<svg id="illustration" xmlns="http://www.w3.org/2000/svg" viewBox="0 0 198.43 144.58"><defs><style>.cls-1{fill:#006bb6;}.cls-2{fill:#fff;}.cls-3{fill:#5e6d76;}.cls-4{fill:#00114a;}.cls-5{fill:#42b6e9;}.cls-6{fill:#1b617e;}.cls-7{fill:#001a42;}.cls-8{fill:#5f6062;}.cls-9{fill:#010101;}</style></defs><path class="cls-1" d="M118.16,19.82,50.6,60.88s.27,8.76-11.25,19c0,0,1.25,3.75,3.24,4.25S64.77,68.76,64.77,68.76L78.32,58.54,101.63,44.1l13-6.5S120,22.24,118.16,19.82Z"/><path class="cls-2" d="M48.59,52S76.1,38.07,84,33,117.34,9.2,117.34,9.2s1.65,8.71.82,10.62S50.6,60.88,50.6,60.88,50.85,54.89,48.59,52Z"/><path class="cls-3" d="M67.81,41.7s-2.7-3.5-2.67-6.07l5.16-2.19-2.15-5.68s-.77-1.12,3.68-4a3.43,3.43,0,0,1-.46-4.74l7.32-3.34,1.13,2.63,4.7-2s3.93-.7,6.6,1.56A6,6,0,0,0,93,14.51a24.51,24.51,0,0,1,11,3.69L87,31.05Z"/><path class="cls-4" d="M64.06,13.41l2.86,2.51,11.4-4.34s.75-2.35-.45-3.69S64.06,13.41,64.06,13.41Z"/><path class="cls-5" d="M110.84,91.25l-.91,3.23v4.41l.45,3.77,2.6,4.55,4.43,3.58,2.36,1s5.7,7.51,53.8,13,4.1,20.55,4.1,20.55H57.08a29.39,29.39,0,0,1-28.7-35.72l3.25-14.73,72-16.72Z"/><path class="cls-2" d="M31.84,93.06s8.48-5.87,11.22-8.14S79.79,57.56,79.79,57.56L107,41.44l7.7-3.84,7.67-2,5.74-1,5.17.69,5.64,1.54,6.6,5.15,3.23,5.75.89,6L149,58.22l-2,4.49-2.7,3.22L141,68.35l-2.58,1.23s-3.56,1-4.06,1-3.77.13-3.77.13L128,69.52l-.54,5.57-1.82,4.8-2.13,4.26-5,4.16-2,.93-4,1.72-4.56.29-7,.27-5.72-2.4-4.16-2-3-1.26L84.8,91.67l-5.17,5-9.18,3.4-4.17,1.76-4.44.45s-11.83,3-23.17,2.57-8.16,0-8.16,0Z"/><path class="cls-6" d="M71.58,130.64a22.41,22.41,0,0,1-6.36-7.91c-1.62-3.56-1.42-6.73-1.63-10.48a.74.74,0,0,0-1.45-.19c-1.19,3.32,0,7.75,1.33,10.85a16.56,16.56,0,0,0,7.72,8.24c.3.14.69-.26.39-.51Z"/><path class="cls-6" d="M91.75,119.16a18.1,18.1,0,0,1-4.58-6.11,21.74,21.74,0,0,1-1.34-7.49.33.33,0,0,0-.65-.09c-1.42,5.17,1.9,11.39,6.36,14a.18.18,0,0,0,.21-.28Z"/><path class="cls-6" d="M68,102.28c4.28-.08,9-2.84,12.42-5.26a33.58,33.58,0,0,0,9.18-10,.4.4,0,0,0-.69-.4,33.35,33.35,0,0,1-9.5,10.18c-3.6,2.5-7.57,3.49-11.48,5.27-.12,0-.06.24.07.24Z"/><path class="cls-6" d="M89.56,86.83a19.23,19.23,0,0,0,10.15,5.61c3.22.75,7.94,1.29,10.93-.43a.23.23,0,0,0-.11-.42c-1.72,0-3.41.56-5.15.61a21.56,21.56,0,0,1-5.82-.63c-3.73-.92-6.67-2.86-9.7-5.13-.24-.18-.48.19-.3.39Z"/><path class="cls-6" d="M31.67,105.14a90,90,0,0,0,19.21,0c6-.57,12.41-1.29,18.05-3.4a.2.2,0,0,0-.1-.38c-6.33.93-12.48,2.5-18.88,3.06a171.53,171.53,0,0,1-18.28.36c-.24,0-.23.33,0,.36Z"/><path class="cls-6" d="M59.84,103.64a4.77,4.77,0,0,0,3.28-.81c.15-.12,0-.32-.2-.25a8.13,8.13,0,0,1-3.08.91.08.08,0,0,0,0,.15Z"/><path class="cls-6" d="M64,141.23c-2.31-1.46-4.8-2.58-7.08-4.11a41.37,41.37,0,0,1-7-5.92c-4.15-4.39-6.57-9.25-8.91-14.74-.15-.34-.64-.08-.57.24,1.16,5.67,4.68,11.23,8.51,15.47s9.12,8.56,14.75,9.69a.35.35,0,0,0,.26-.63Z"/><path class="cls-6" d="M144.51,126.44a.05.05,0,0,0,0-.1.05.05,0,1,0,0,.1Z"/><path class="cls-6" d="M143.61,125.94c-5.6-3.18-12.12.68-17.9-2a.27.27,0,0,0-.27.46c5.44,3.47,12.28-1.1,17.88,2a.28.28,0,0,0,.29-.49Z"/><path class="cls-6" d="M141.05,135.27c-6.85-4.75-15.68.64-23.2-1.09a.36.36,0,0,0-.19.69c7.62,2.6,15.72-3.26,23.15.8a.23.23,0,0,0,.24-.4Z"/><path class="cls-2" d="M60.28,131.28a82.87,82.87,0,0,0-7.2-9.31c-.13-.14-.39,0-.27.21a81.37,81.37,0,0,0,7.37,9.18s.14,0,.1-.08Z"/><path class="cls-2" d="M45.31,136.35c-6.17-5.87-6.67-13.26-8-21.19a.08.08,0,0,0-.15,0c0,7.4,1.44,16.81,8,21.33.09.06.2-.08.12-.16Z"/><path class="cls-2" d="M80,130a26.62,26.62,0,0,1-7.19-11.33c-1.34-4.3-1.17-8.35-.68-12.74,0-.24-.33-.26-.4-.06-2.9,8.49,1.27,19,8.08,24.32.13.1.32-.07.19-.19Z"/><path class="cls-2" d="M115.32,114.19c-2.34-2-4.48-3.82-5.91-6.62-1.89-3.69-1.88-7.44-1.3-11.44a.44.44,0,0,0-.85-.23c-2.19,6.65,1.22,15.72,7.79,18.64.21.09.48-.17.27-.35Z"/><path class="cls-2" d="M107.62,133.52q-6.12.28-12.23.73c-3.34.24-8.8,1.68-11.62-.66a.26.26,0,0,0-.36.36c2.1,2.5,6.24,1.51,9,1.29,5.06-.39,10.12-.8,15.16-1.33.24,0,.25-.4,0-.39Z"/><path class="cls-2" d="M123.36,130.52c6.27-2.91,12.38,2.19,18.77.88a.19.19,0,0,0,0-.37c-6.25.69-13-4.19-18.93-.86-.23.13,0,.46.21.35Z"/><path class="cls-2" d="M132.66,119.68c5.6,1.89,12.35,6,18.36,3.71a.21.21,0,0,0-.11-.4c-6.77,1.56-11.82-2.84-18.23-3.49-.11,0-.11.15,0,.18Z"/><path class="cls-2" d="M68.57,37.88c1.94,1.18,5.67-1.2,7.49-2.11,2.69-1.35,5.91-3,7.55-5.58a.38.38,0,0,0-.42-.55c-2.74,1-5.08,3-7.66,4.4a48,48,0,0,1-4.74,2.14c-1,.4-1.79.49-2.26,1.52a.14.14,0,0,0,0,.18Z"/><path class="cls-2" d="M71.72,29.56a18.28,18.28,0,0,0,8.22-4.73.16.16,0,0,0-.18-.25,43.67,43.67,0,0,0-4,2.43c-1.35.78-2.79,1.42-4.13,2.25a.17.17,0,0,0,.13.3Z"/><path class="cls-2" d="M66.54,13.84A72.47,72.47,0,0,0,76.82,9.46c.39-.19.05-.74-.34-.58a71.92,71.92,0,0,0-10,4.74.12.12,0,0,0,.1.22Z"/><path class="cls-2" d="M68.39,14.73a27.92,27.92,0,0,0,4.71-1.55,30.67,30.67,0,0,0,4.07-1.65A.28.28,0,0,0,77,11a33.83,33.83,0,0,0-4.66,1.72,23.83,23.83,0,0,0-4,1.79.11.11,0,0,0,.08.2Z"/><path class="cls-2" d="M90,23a7.7,7.7,0,0,0,1.46,1,12.22,12.22,0,0,0,1.58.88c.4.17.56-.43.27-.65a13,13,0,0,0-1.58-.91,8.7,8.7,0,0,0-1.52-.7A.23.23,0,0,0,90,23Z"/><path class="cls-2" d="M94.22,18.35a4.57,4.57,0,0,0,1.87,1.13,10.67,10.67,0,0,0,2.33,1c.2,0,.42-.23.22-.38A10.12,10.12,0,0,0,96.4,19a4.72,4.72,0,0,0-2.1-.75c-.06,0-.13.08-.08.15Z"/><path class="cls-2" d="M96.61,15.76a11.82,11.82,0,0,0,1.85,1.45,6.51,6.51,0,0,0,2,1.22c.17,0,.37-.16.25-.33a6.2,6.2,0,0,0-1.8-1.36,13.44,13.44,0,0,0-2.14-1.25c-.15-.06-.25.17-.15.27Z"/><path class="cls-2" d="M82.51,20.78c0,.13.06.25.1.37L83,21c-.12-.2.22-.26,0-.08,0,0-.14,0-.19.07a.29.29,0,0,0-.12.24.31.31,0,0,0,.22.29c.68.11,1.19-.93.51-1.28a.68.68,0,0,0-.8,1c.19.22.55-.14.32-.32a3.47,3.47,0,0,0-.29-.25c-.08-.06-.21,0-.18.1Z"/><path class="cls-2" d="M78.17,22.81a.65.65,0,0,0-.49,1A.78.78,0,0,0,79,23.48a.89.89,0,0,0-1.14-1c-.55.19-.84,1-.28,1.38a.2.2,0,0,0,.29-.17c0-.15,0-.67.33-.57.1,0,.19.32,0,.34-.35,0-.13-.38,0-.44a.14.14,0,0,0-.07-.25Z"/><path class="cls-2" d="M72.79,26.45a.39.39,0,0,0-.59.5.5.5,0,0,0,.59.2.82.82,0,0,0,.48-.65.32.32,0,0,0-.14-.34c-.37-.16-.85-.07-.87.4a.25.25,0,0,0,.31.24c.08,0,.25-.12.33-.09l-.21-.37c0,.16,0,.31,0,.47a.21.21,0,0,0,.15-.36Z"/><path class="cls-7" d="M106.54,23.64c-2,.78-2,3.68-1,5.23,1.13,1.76,3.86,3,5.65,1.42s1.38-4.26.05-5.88-4.38-2.14-5.8-.2c-.33.46.29.94.71.72,1.29-.67,2.77-.95,4,.11s1.61,3,.55,4.2c-1.3,1.45-3.46.49-4.48-.8-1.28-1.62-.75-3.16.45-4.59.07-.09,0-.26-.13-.21Z"/><path class="cls-7" d="M105.59,25.65a2.83,2.83,0,0,0-.1,3.77c.88,1,2.94,1.7,4,.63a.55.55,0,0,0-.38-.92c-1.05.09-1.94.46-2.83-.37a2.86,2.86,0,0,1-.56-3c0-.09-.1-.16-.17-.09Z"/><path class="cls-7" d="M106.24,24c-1.24,1.17-2.27,3-1.37,4.72.54,1,3,2.13,3.34.39a.32.32,0,0,0-.3-.4,6.44,6.44,0,0,1-1.24,0,1.57,1.57,0,0,1-1-1.47,7.75,7.75,0,0,1,.72-3.08.12.12,0,0,0-.19-.11Z"/><path class="cls-7" d="M106.82,24.33a3.07,3.07,0,0,0-1.35,3.74A3.23,3.23,0,0,0,109,30a3.08,3.08,0,0,0,2.68-2.91,3.15,3.15,0,0,0-2.39-3.32,2.84,2.84,0,0,0-3.48,2.5,2.53,2.53,0,0,0,3,2.66A2.15,2.15,0,0,0,110,25.37a1.77,1.77,0,0,0-3,1.49,1.59,1.59,0,0,0,3.15-.27c0-1.94-3.14-1.67-3,.17a.84.84,0,0,0,1.42.58l.57-.53c.8-.72-.39-1.91-1.18-1.18l-.57.54,1.42.59c0,.24-.51-.12-.23-.25s.41,0,.39.33c0,.91-1.38.46-1.53-.17a1.2,1.2,0,0,1,1.32-1.38,1.49,1.49,0,0,1,1.34,1.24,1.71,1.71,0,0,1-2.37,1.91,2,2,0,0,1-1.28-1.63,3.12,3.12,0,0,1,.62-2.26c.1-.15-.08-.28-.22-.22Z"/><path class="cls-7" d="M89,33.77c-2.39.71-3.59,4-1.85,5.88s5.22.61,5.85-1.84a4.21,4.21,0,1,0-8.2-.28,4.3,4.3,0,0,0,7.07,2.34c.87-.72-.38-2-1.24-1.25a2.55,2.55,0,0,1-4.21-2.09,2.58,2.58,0,0,1,4.16-1.78c1.52,1.3,1.11,4.26-1.15,4.42a2,2,0,0,1-2-2.22c0-1.28.89-2,1.73-2.83a.21.21,0,0,0-.2-.35Z"/><path class="cls-7" d="M88.93,34.47A2.71,2.71,0,0,0,87,36.61a2.55,2.55,0,0,0,1.42,2.53c2,1,4.51-1.35,3.25-3.38-1.15-1.84-4.26-1-4.12,1.2a2.14,2.14,0,0,0,4.24.29.83.83,0,0,0-1.6-.44c-.21.66-1.17.47-.89-.15.21-.47,1-.13,1,.3,0,.84-1,.95-1.47.51a1.74,1.74,0,0,1,.28-2.61c.18-.13.08-.48-.16-.39Z"/><path class="cls-7" d="M88.8,36.85a1.41,1.41,0,0,0,1.69-1.63,1.63,1.63,0,0,0-2.5-.95,2,2,0,0,0-.31,3,2.47,2.47,0,0,0,3.52,0c.6-.6-.19-1.7-.92-1.2-.37.25-.82.55-1.28.35a.72.72,0,0,1-.4-.87.53.53,0,0,1,.72-.14c.32.26-.1.72-.43.71s-.47.59-.09.72Z"/><path class="cls-7" d="M90,34.83a1.44,1.44,0,0,1,0,1.25,1.64,1.64,0,0,1-.76.8.58.58,0,0,0,.59,1,2.15,2.15,0,0,0,.5-3.28c-.16-.18-.39,0-.3.23Z"/><path class="cls-7" d="M74.05,42.83c-.91-.3-1.79.49-2.23,1.22a2.72,2.72,0,0,0-.07,2.73,3.23,3.23,0,0,0,4.91.94,3.32,3.32,0,0,0-.11-5,3.46,3.46,0,0,0-2.74-.56c-.8.16-2.21.84-1.81,1.88a.65.65,0,0,0,.42.42c.56.08.79-.17,1.24-.42a1.78,1.78,0,0,1,1.46-.15,1.5,1.5,0,0,1,.62,2.31,1.56,1.56,0,0,1-2.5,0A1.72,1.72,0,0,1,73,44.52c.21-.61.76-.92,1.19-1.37a.19.19,0,0,0-.09-.32Z"/><path class="cls-7" d="M74.31,43.49a1.73,1.73,0,0,0-1.61,2.33,1.81,1.81,0,0,0,3,.52,1.78,1.78,0,0,0-.77-2.83c-1.23-.33-3,1.38-1.79,2.45a.75.75,0,0,0,1.24-.33,2.15,2.15,0,0,1,0-.45.21.21,0,0,1,.14-.12c.06,0,0,0-.06,0a.27.27,0,0,1,0,.34s-.11,0-.21,0a.55.55,0,0,1-.3-.24.8.8,0,0,1,.47-1c.32-.1.29-.67-.09-.62Z"/><path class="cls-7" d="M57.27,49.39c-2.73.34-3.73,4.13-2.72,6.31a4.87,4.87,0,0,0,7.16,2,4.76,4.76,0,0,0,1-6.91c-1.72-2.14-5.47-2.37-6.8.19a.46.46,0,0,0,.63.62c1.45-.76,3.43-1.25,4.72,0a3.13,3.13,0,0,1-.41,4.72A3.33,3.33,0,0,1,55.87,55c-1.12-2.15.36-3.58,1.63-5.09.15-.19.07-.6-.23-.56Z"/><path class="cls-7" d="M58.2,50.57a3.05,3.05,0,0,0-2.87,2.37,3.57,3.57,0,0,0,1.38,3.63c2.5,1.83,6.28-.52,5.49-3.6s-5.63-2.87-5.52.5c.1,2.93,4.84,3,4.65,0-.07-1.22-1.58-2.87-2.75-1.71a1.54,1.54,0,0,0,1.47,2.6.81.81,0,0,0,.59-.78.67.67,0,0,0-.2-.53.66.66,0,0,0-.29-.2.48.48,0,0,0-.2-.07c-.16-.06-.19,0-.11.24l-.68.09c.39.1.61.67.17.88s-1-.42-.83-.9A1,1,0,0,1,60,52.72a1.44,1.44,0,0,1,.35,1.83,1.94,1.94,0,0,1-3.3.15c-.82-1.25.07-2.79,1.32-3.35.38-.16.19-.82-.21-.78Z"/><path class="cls-7" d="M74.12,44.9c-.26.09-.53.12-.69.37a1,1,0,0,0-.1.81,1.21,1.21,0,0,0,1.73.62c.77-.37.21-1.52-.57-1.35-.11,0-.1.07-.22,0a1.09,1.09,0,0,0-.08-.15c-.09-.07-.08-.1,0-.11s0-.22-.1-.18Z"/><path class="cls-7" d="M73.68,44.89a1.57,1.57,0,0,0,1.49,1.49.66.66,0,0,0,.18-1.29c-.28-.07-.55,0-.82-.09s-.43-.18-.65-.26-.19.06-.2.15Z"/><path class="cls-2" d="M106.6,23.81c-.88.88-1.37,2.59-.28,3.53.5.43,1.67.21,2,.67s-.11,1.17-.13,1.58a1.44,1.44,0,0,0,.21.95c.17.36.64.08.59-.25-.13-.91.56-2.34-.29-3.09-.28-.25-.5-.22-.83-.29-1-.21-1.69-.6-1.43-1.8.08-.41.27-.77.34-1.19a.11.11,0,0,0-.19-.11Z"/><path class="cls-2" d="M88.59,32.84a19.78,19.78,0,0,0,0,3.69.4.4,0,0,0,.5.39l.54-.13-.49-.28a25.74,25.74,0,0,0,.6,3.82.33.33,0,0,0,.65-.08,27.66,27.66,0,0,0-.48-4,.41.41,0,0,0-.49-.28l-.54.13.5.38a19.07,19.07,0,0,0-.43-3.69c0-.14-.29-.16-.31,0Z"/><path class="cls-2" d="M74.4,42.6a2,2,0,0,0-.4,2.08,4.94,4.94,0,0,0,.56.91,8,8,0,0,1,.57,2.24c.11.51.9.3.79-.22a8.23,8.23,0,0,0-.59-2.44c-.3-.48-.66-.57-.71-1.2a2.51,2.51,0,0,1,.23-1.11c.1-.26-.27-.43-.45-.26Z"/><path class="cls-2" d="M57.69,49.51c-.4,1.14-.86,3.38-.23,4.51a1.16,1.16,0,0,0,1.95.23l-1-.25c.16,1,.28,2,.54,3,.15.58,1.12.48,1.07-.15-.08-1.08-.31-2.14-.49-3.2a.59.59,0,0,0-1-.26,1.72,1.72,0,0,1-.25-1.19l0-1.07A6.54,6.54,0,0,0,58,49.51a.18.18,0,0,0-.35,0Z"/><path class="cls-2" d="M115.22,17.37c-.5,1.35-.17,2.8-.14,4.23a32.56,32.56,0,0,1-.39,5.67,30.5,30.5,0,0,1-1.25,4.89,19.89,19.89,0,0,0-1.4,4.08c-.06.47.57.64.86.36,2.31-2.2,3-6.85,3.45-9.85.35-2.63,1-7.22-.86-9.45-.08-.1-.23,0-.27.07Z"/><path class="cls-2" d="M41,80.44a3.92,3.92,0,0,0,2.17,1.27.55.55,0,0,0,.59-.24.44.44,0,0,0,.06-.4.51.51,0,0,0-.37-.37,7.67,7.67,0,0,1-2-.87c-.4-.23-.73.28-.46.61Z"/><path class="cls-2" d="M63,65.66c6.17-5.08,11.88-10.49,18.58-14.93,3.16-2.09,6.43-4,9.78-5.79s7.24-3.14,10.59-5.14a.4.4,0,0,0-.31-.72c-3.8.86-7.51,2.93-10.94,4.72a107.76,107.76,0,0,0-10.14,6c-6.45,4.31-13.12,9.33-17.91,15.49a.25.25,0,0,0,.35.35Z"/><path class="cls-8" d="M46.75,35.4c-1.3.23-1.76,1.84-1.73,3a3.56,3.56,0,0,0,1.81,3.08A3.4,3.4,0,0,0,52,38.16a3.55,3.55,0,0,0-2.49-3,3.06,3.06,0,0,0-3.61,1.44,2.6,2.6,0,0,0,1,3.51,2.24,2.24,0,0,0,3.28-1.39,1.77,1.77,0,0,0-2.74-1.84,1.58,1.58,0,0,0,1.41,2.76,1,1,0,0,0-.52-1.88c.15.4.06.63-.25.71a.54.54,0,0,1-.4-.16.63.63,0,0,1-.14-.73,1.2,1.2,0,0,1,1.71-.49,1.76,1.76,0,0,1,.44,2.76,2,2,0,0,1-2.83-.7c-.61-1.2.17-2.25.31-3.43,0-.23-.23-.35-.42-.32Z"/><path class="cls-8" d="M48.51,35.44a4.39,4.39,0,0,1,2.09.92c.54.42.85,1,1.37,1.46a.21.21,0,0,0,.35-.14,2.42,2.42,0,0,0-1.26-2,3.58,3.58,0,0,0-2.55-.63.19.19,0,0,0,0,.38Z"/><path class="cls-8" d="M49.18,42a7.71,7.71,0,0,0,.74,1.84A4.46,4.46,0,0,0,51,45.48a.69.69,0,0,0,1-.6,4.47,4.47,0,0,0-.84-1.76A7.33,7.33,0,0,0,50,41.56a.49.49,0,0,0-.81.47Z"/><path class="cls-8" d="M49.89,43.89c-2.21,1.39-1.71,5.7.35,7,.54.34,1.15-.33.86-.86a7.91,7.91,0,0,1-1.28-2.74,9.63,9.63,0,0,1,.3-3.21c0-.12-.11-.26-.23-.18Z"/><path class="cls-8" d="M50.56,50.59a13.17,13.17,0,0,0,2.89-1.11,18.26,18.26,0,0,0,3.09-1.56.37.37,0,0,0-.28-.67,17.32,17.32,0,0,0-3.06,1.34,13.47,13.47,0,0,0-2.86,1.63c-.19.15,0,.41.22.37Z"/><path class="cls-8" d="M56.6,47.54a4,4,0,0,0-1.87-3.37c-1.16-.79-3.16-1.22-4.39-.36-.46.32-.34,1.16.31,1.13,1.22,0,2.21-.41,3.39.19a5.18,5.18,0,0,1,2.23,2.5c.07.17.34.08.33-.09Z"/><path class="cls-8" d="M52.05,44.7c-2-1-3.32,1.55-2.25,3.16A2.89,2.89,0,0,0,52.68,49a2.33,2.33,0,0,0,2.14-2,2.37,2.37,0,0,0-1.9-2.24,1.63,1.63,0,0,0-1.52,0,2,2,0,0,0,.47,3.52c.81.25,2.38,0,2.26-1.15a.69.69,0,0,0-.66-.66c-.37,0-.68.34-1,.27a.36.36,0,0,1-.08-.66l-.63.08c.38.07,1.81.26,1.39.92-.29.46-1.24.44-1.65.24A1.29,1.29,0,0,1,52,45c.12,0,.2-.19.07-.25Z"/><path class="cls-8" d="M54.2,45.55a1.73,1.73,0,0,0,.21,1.11,2.11,2.11,0,0,0,.9.85.71.71,0,0,0,.91-.19.68.68,0,0,0,0-.92c-.26-.21-.54-.38-.8-.59a6.28,6.28,0,0,1-.64-.48.31.31,0,0,0-.53.22Z"/><path class="cls-8" d="M51.64,46.09c.26.25.46.53.72.77s.54.47.78.73c.82.85,2-.85.73-1.26-.33-.11-.64-.26-1-.39s-.66-.2-1-.32-.46.28-.27.47Z"/><path class="cls-8" d="M50.67,49.26a10.34,10.34,0,0,0,2.5-.59c.73-.25,1.59-.34,1.84-1.15a.55.55,0,0,0-.24-.6c-.79-.37-1.41.17-2.11.55a10.35,10.35,0,0,0-2.13,1.44c-.12.12,0,.37.14.35Z"/><path class="cls-8" d="M52.07,49.75a23.78,23.78,0,0,0,2.56-1.06c.72-.34,1.61-.54,1.91-1.34a.38.38,0,0,0-.26-.45c-.83-.16-1.48.5-2.15.92s-1.52,1.06-2.24,1.63c-.15.11,0,.36.18.3Z"/><path class="cls-2" d="M156.8,41c2,2.37,4.57,3.78,6.15,6.6,1.86,3.35,1.65,6.48,1.77,10.13a.73.73,0,0,0,1.43.19c1.27-3.49.1-8.08-1.7-11.2-1.53-2.64-4.24-5.83-7.47-6.13-.23,0-.3.27-.18.41Z"/><path class="cls-2" d="M165.15,58c.69.8,1.95.79,2.93.92s2.27.62,3.09-.13a.47.47,0,0,0,.07-.57c-.6-.88-1.76-.72-2.74-.82s-2.4-.45-3.3.21a.26.26,0,0,0,0,.39Z"/><path class="cls-2" d="M164.5,57.2a1.37,1.37,0,0,0,.43,1.19,1.11,1.11,0,0,0,1.45.06.49.49,0,0,0-.23-.87c-.43-.12-1,0-1.28-.48-.1-.19-.35-.08-.37.1Z"/><path class="cls-2" d="M170,58.29c2.48-3.71,1.35-8.74-1.23-12.09a16.22,16.22,0,0,0-5.18-4.31c-1.66-.91-4.06-2.26-6-1.72a.46.46,0,0,0-.2.76c1.11,1.09,2.86,1.28,4.27,1.91a16.88,16.88,0,0,1,4.92,3.22,11.53,11.53,0,0,1,2.86,12c-.1.32.35.48.52.22Z"/><path class="cls-2" d="M161.36,42.74c1,2.49,2.67,4.59,3.46,7.2a17.13,17.13,0,0,1,.77,4.38,6.12,6.12,0,0,0,.4,2.93.42.42,0,0,0,.71,0c1.45-2,.26-6-.47-8.11-.86-2.5-2.18-5.29-4.59-6.62-.13-.07-.35,0-.28.22Z"/><path class="cls-2" d="M167,57.24a2.87,2.87,0,0,0,2.81-.2.6.6,0,0,0-.42-1,3.85,3.85,0,0,0-1.15.27c-.38.09-.76.12-1.14.19a.42.42,0,0,0-.1.75Z"/><path class="cls-2" d="M170.26,56.63c1.52-4.75-1.61-10.09-5.61-12.55-.94-.58-1.75.86-.86,1.47,4,2.71,5.24,6.53,5.86,11.08,0,.34.52.27.61,0Z"/><path class="cls-2" d="M163.81,45.24c1.92,4.11,2,8,2.82,12.39.17.88,1.49.63,1.52-.21.16-4.27-.77-9.43-3.64-12.72-.35-.41-.9.11-.7.54Z"/><path class="cls-2" d="M168,57.05c.41-.25.84-.47,1.27-.68a.67.67,0,0,0,.31-.75,30.85,30.85,0,0,0-2.8-8.36c-.89-1.76-2-3.95-4.12-4.26-.73-.1-1.28.85-.54,1.29,2.2,1.28,3.18,3.5,4.16,5.76.7,1.6,2.6,4.9,1.23,6.37a.4.4,0,0,0,.49.63Z"/><path class="cls-2" d="M170.38,53.92a3.21,3.21,0,0,0-.63,1.9,9,9,0,0,0-.13,2.53c.08.51.75.38.9,0a8.55,8.55,0,0,0,.36-2.37,3.24,3.24,0,0,0-.21-2,.19.19,0,0,0-.29,0Z"/><path class="cls-5" d="M124,25.57a22.52,22.52,0,0,1,4.56-2.92c.9-.34,5.1-1.48,5.77-.41,1.52,2.41-4.53,1.74-5.13,1.82a5,5,0,0,0-3.5,1.65c-.48.56.18,1.63.87,1.11,2-1.52,3.8-1.17,6.15-1.23A5.82,5.82,0,0,0,135.8,25a2.12,2.12,0,0,0,0-3.56c-3.47-2.74-10.66.26-12.18,4a.2.2,0,0,0,.29.22Z"/><path class="cls-5" d="M126.8,24.82a53,53,0,0,0,7.64-.82.86.86,0,0,0,.51-1.25c-.84-1.84-3-1-4.51-.55-1.92.61-4.67,1.34-5.92,3a.63.63,0,0,0,.54.94c1.18-.11,7.76-3.87,8.42-2.52l.51-1.26a53.34,53.34,0,0,0-7.22,2.23c-.12.05-.12.25,0,.24Z"/><path class="cls-5" d="M164.71,44.39c1,2,2.45,3.38,3,5.63.45,2-.37,3.92,0,5.85.06.36.52.4.75.2,3.14-2.72.33-11-3.39-12a.26.26,0,0,0-.29.37Z"/><path class="cls-2" d="M128.16,22.83c1.4-.3,2.63-1,4.11-.87A2.92,2.92,0,0,1,135,24.5c0,.29.46.19.48-.07a3,3,0,0,0-2.14-2.85,6.17,6.17,0,0,0-5.29,1.05.11.11,0,0,0,.09.2Z"/><path class="cls-9" d="M40.14,87.56c21.27-16.15,42-32.46,65.61-45.22,11.19-6.06,26.93-11.38,37.81-1.56a17.27,17.27,0,0,1,3.71,20.42c-3.41,6.63-10.7,9.62-17.85,8.91-.49,0-.61.79-.11.86,11.5,1.61,21.83-7.59,20.69-19.38-1.18-12.25-13.6-18.14-24.76-17.11-7.43.69-14.3,3.92-20.75,7.47-7.75,4.25-15.3,8.92-22.69,13.76C67.3,65.18,52.57,75.41,40,87.35c-.1.1,0,.3.16.21Z"/><path class="cls-9" d="M95.92,54.54c14.14-10.78,34.26,1.48,31.35,19a22,22,0,0,1-14.82,17c-7.91,2.5-16,.17-22.44-4.68-.32-.23-.72.29-.42.55C103,97.88,126,91.58,128.38,72.93,130.63,55,110,42.53,95.76,54.33c-.12.1,0,.31.16.21Z"/><path class="cls-9" d="M67.69,73.15c5.59-3.27,12.45-5.22,17.9-.4,6,5.35,3,12.85-1.32,18.09a31.2,31.2,0,0,1-24,11,.41.41,0,0,0,0,.82c11.77.09,26.33-7.21,29.44-19.56a10.85,10.85,0,0,0-6-12.59C78.39,68,72.11,69.49,67.58,73a.11.11,0,0,0,.11.2Z"/><path class="cls-9" d="M88.6,125.23c-3.72-1.68-7.2-4-9.41-7.48-2.59-4.12-2.45-8.29-2.24-12.91,0-.3-.4-.31-.49-.07-3.34,8.59,3.42,19,12,20.7.13,0,.24-.17.1-.24Z"/><path class="cls-9" d="M110,119.05a23.65,23.65,0,0,1-5.51-6c-1.43-2.51-1.81-5.06-2.33-7.84-.06-.35-.55-.23-.57.08-.47,5.35,3.39,11.79,8.25,14,.12,0,.28-.1.16-.21Z"/><path class="cls-9" d="M119.86,111.63c-8-3.79-10.79-10.47-9-19,.07-.33-.43-.6-.59-.25-3.65,7.73,1.41,17.49,9.49,19.6.19,0,.34-.24.14-.34Z"/><path class="cls-9" d="M115.3,36.67a54.35,54.35,0,0,0,2.43-27.58c-.08-.52-.88-.3-.79.22a58.13,58.13,0,0,1-2.09,27.24c-.09.29.35.4.45.12Z"/><path class="cls-9" d="M117.33,8.76c-10.88,8-21.47,16.19-32.9,23.41a343.49,343.49,0,0,1-35.38,19.5c-.49.23-.06,1,.44.74,24-11.48,48.18-25.53,68-43.38.14-.13,0-.38-.2-.27Z"/><path class="cls-9" d="M48.3,52.14c5.79,11.09-2.43,19.68-9.12,27.57a.25.25,0,0,0,.35.36C47.47,73.44,54.67,62,48.89,51.8a.34.34,0,0,0-.59.34Z"/><path class="cls-9" d="M39.33,80.05a4.67,4.67,0,0,0,3.17,4.41c.36.12.61-.45.26-.6A5.34,5.34,0,0,1,39.65,80a.16.16,0,0,0-.32,0Z"/><path class="cls-9" d="M56,50.61a4.46,4.46,0,0,0,.92,7.3c2.28,1.11,5.35.43,6.44-2a4.87,4.87,0,1,0-9.25-2.55c0,.28.42.34.49.07A4.84,4.84,0,0,1,60,49.63c2.45.47,3.78,3.31,3.11,5.6a4.19,4.19,0,0,1-5.47,2.5c-3.14-1.06-3.36-4.69-1.5-7,.05-.07,0-.15-.09-.09Z"/><path class="cls-9" d="M75.06,43.11c-2-.42-3.4,2.17-2.72,3.87.82,2,3.79,2,5.13.55,1.63-1.77.3-4.7-1.82-5.33a3.63,3.63,0,0,0-4.43,4c0,.21.32.14.34,0,.2-1.85,1.82-4,3.91-3.33,1.69.51,2.81,2.9,1.44,4.3-1,1-3.12,1.13-3.91-.24-.92-1.59.5-3.33,2.06-3.64a.09.09,0,0,0,0-.17Z"/><path class="cls-9" d="M91.11,34.51H89.23a0,0,0,0,0,0,0h1.88a0,0,0,1,0,0,0Z"/><path class="cls-9" d="M88.21,34.2c-2.15.67-2.8,3.66-1.58,5.42,1.4,2.05,4.59,1.66,6.06-.08,1.79-2.11.54-5.41-1.83-6.46-2.81-1.26-5.68.86-6.24,3.62a.19.19,0,0,0,.36.1c.64-2.07,3-3.87,5.2-3.2s3.55,3.62,2,5.48c-1.22,1.45-3.78,1.84-5,.19a3.26,3.26,0,0,1,1.2-4.74.18.18,0,0,0-.14-.33Z"/><path class="cls-9" d="M106.47,23.46a4.17,4.17,0,0,0-1.27,6.69,4.34,4.34,0,0,0,6.93-1.23,4.44,4.44,0,0,0-3.22-6.18c-3.72-.81-7.08,2.12-8.47,5.34-.06.15.13.35.26.2,1.28-1.5,2.39-3.14,4.14-4.13,2.13-1.2,5.66-1.08,6.63,1.57A3.53,3.53,0,0,1,107,30.34c-3.19-1.13-2.83-5-.46-6.79a.05.05,0,0,0-.06-.09Z"/><path class="cls-9" d="M59.13,84.94a12.09,12.09,0,0,1,3.27-5.85c1.65-1.54,3.46-2.11,5.47-3,.14-.06.06-.27-.08-.28-4.38,0-8.48,5-8.85,9.11,0,.11.16.12.19,0Z"/><path class="cls-9" d="M76.05,73.43a2.18,2.18,0,0,0-.22-.31.21.21,0,0,0-.29,0,3.55,3.55,0,0,0-.23.31c-.5.8,1.25.8.74,0Z"/><path class="cls-9" d="M79.85,73.78c-.41-.07-.77.09-.81.53a.44.44,0,0,0,.73.31c-.13,0-.19,0-.18.08.61.17.85-.82.26-.92Z"/><path class="cls-9" d="M83.58,75.9l-.08.25c-.29.76,1.21.76.91,0l-.07-.25a.38.38,0,0,0-.76,0Z"/><path class="cls-9" d="M85.34,81.54c.3,3.91-1.33,7-4.16,9.62a.13.13,0,0,0,.16.2,10.68,10.68,0,0,0,4.31-9.82c0-.2-.33-.2-.31,0Z"/><path class="cls-9" d="M76.81,95.46a25.2,25.2,0,0,0-3.8,2.2.15.15,0,0,0,.16.26,25.13,25.13,0,0,0,3.72-2.32.08.08,0,0,0-.08-.14Z"/><path class="cls-9" d="M96.12,58c4.72-4.17,9.62-4.93,15.64-3.72.32.06.58-.42.24-.57-5.36-2.3-12.31-.18-16,4.15a.1.1,0,0,0,.14.14Z"/><path class="cls-9" d="M115.93,55.69a.48.48,0,0,0,0-1,.48.48,0,0,0,0,1Z"/><path class="cls-9" d="M118.94,58.29a.07.07,0,0,0,0-.14.07.07,0,0,0,0,.14Z"/><path class="cls-9" d="M122.33,64.72a.48.48,0,0,0,0-1,.48.48,0,0,0,0,1Z"/><path class="cls-9" d="M123.83,72.24a.48.48,0,0,0,0-.95.48.48,0,0,0,0,.95Z"/><path class="cls-9" d="M124.51,75.85c-4,6.77-8.83,10.44-16.14,13.09a.19.19,0,0,0,.1.36c6.92-1.08,13.73-6.91,16.29-13.34.06-.15-.18-.24-.25-.11Z"/><path class="cls-9" d="M101.26,89.35A12.71,12.71,0,0,1,95,88c-.36-.17-.68.35-.32.54a10.39,10.39,0,0,0,6.58,1c.11,0,.08-.2,0-.19Z"/><path class="cls-9" d="M106.91,47.34c1.83-1.29,3.49-2.77,5.4-4a46.25,46.25,0,0,1,6-3c.33-.14.09-.69-.24-.57-4.07,1.4-8.56,4-11.24,7.46,0,0,0,.13.07.09Z"/><path class="cls-9" d="M125.34,39.52a.48.48,0,0,0,0-1,.48.48,0,0,0,0,1Z"/><path class="cls-9" d="M132.48,39.13a.47.47,0,0,0,0-.94.47.47,0,0,0,0,.94Z"/><path class="cls-9" d="M138.88,41.37a.45.45,0,0,0,0-.9.45.45,0,0,0,0,.9Z"/><path class="cls-9" d="M143.46,44.62c4,4.74,4.86,10.41,2.9,16.24,0,.11.14.18.19.08a14.65,14.65,0,0,0-2.88-16.53c-.14-.14-.33.07-.21.21Z"/><path class="cls-9" d="M143.49,63.18a25.54,25.54,0,0,1-5.11,3,29.07,29.07,0,0,1-5.2,1.21.23.23,0,0,0,.06.45,15.27,15.27,0,0,0,10.41-4.46c.11-.11,0-.31-.16-.22Z"/><path class="cls-9" d="M67.89,42c-.51-1.12-1.21-2.13-1.71-3.27a18.63,18.63,0,0,1-1.12-3.51c-.09-.37-.65-.21-.57.16.48,2.32,1.43,5.11,3.2,6.78a.13.13,0,0,0,.2-.16Z"/><path class="cls-9" d="M65.18,35.77C75.68,32.1,85.79,24.48,92.88,16c.22-.26-.14-.64-.39-.38C84.33,24.17,75.54,30.11,65.07,35.5c-.15.07,0,.32.11.27Z"/><path class="cls-9" d="M92.94,14.73c4.25,1.09,8,2.32,11.57,5,.3.23.72-.3.41-.53-3.34-2.61-7.61-4.75-11.92-4.92a.23.23,0,0,0-.06.45Z"/><path class="cls-9" d="M70.48,33.39a28.84,28.84,0,0,0-2-5.82c-.17-.38-.8-.11-.67.28a29.08,29.08,0,0,0,2.33,5.69.19.19,0,0,0,.35-.15Z"/><path class="cls-9" d="M67.85,27.45A113.35,113.35,0,0,1,82.91,17.36c.24-.14,0-.48-.21-.37A58.7,58.7,0,0,0,67.77,27.37c0,.05,0,.12.08.08Z"/><path class="cls-9" d="M82.81,17c1.14.24,2.31-.2,3.48-.13a10.14,10.14,0,0,1,4.63,1.47.39.39,0,0,0,.4-.67A9.78,9.78,0,0,0,86.83,16c-1.28-.13-3.09-.21-4.06.76,0,.05,0,.14,0,.15Z"/><path class="cls-9" d="M71.9,23.69a3,3,0,0,1,0-4.64c1.4-1.24,3.19-1,4.71-1.78a.21.21,0,0,0,0-.39c-2-.39-5.12.89-6.08,2.76-.78,1.53-.58,3.77,1.29,4.29.14,0,.21-.16.1-.24Z"/><path class="cls-9" d="M78.43,15.79c.16.52.37,1,.57,1.52a4.24,4.24,0,0,0,.62,1.24.29.29,0,0,0,.48-.2,4,4,0,0,0-.46-1.3,15.38,15.38,0,0,0-.72-1.47.27.27,0,0,0-.49.21Z"/><path class="cls-9" d="M75.71,17.32a12.59,12.59,0,0,0,2.68-1.1.15.15,0,0,0-.11-.27,12.54,12.54,0,0,0-2.65,1.18c-.11.05,0,.23.08.19Z"/><path class="cls-9" d="M74,17.18a32.13,32.13,0,0,0-2.12-4.28.35.35,0,0,0-.61.36,30.73,30.73,0,0,0,2.42,4c.1.14.38.06.31-.13Z"/><path class="cls-9" d="M66.21,16.29c2.39-.75,4.76-1.57,7.12-2.39,1.63-.56,3.73-1,5.08-2.15s1.53-3.56-.47-4.11a.26.26,0,0,0-.14.51q1.82,2.79-.66,3.73c-.72.31-1.45.6-2.19.85s-1.76.65-2.64,1c-2.06.78-4.12,1.55-6.15,2.38-.12.05-.08.24,0,.2Z"/><path class="cls-9" d="M77.6,7.15c-4.65,2-9.16,4.29-13.69,6.5-.28.13,0,.54.24.41,4.53-2.2,9.14-4.3,13.55-6.74.12-.06,0-.22-.1-.17Z"/><path class="cls-9" d="M63.92,13.56a33.06,33.06,0,0,0,3.42,3.06c.24.18.51-.2.31-.4a32.35,32.35,0,0,0-3.45-2.95c-.2-.15-.47.1-.28.29Z"/><path class="cls-9" d="M123.74,25.65a11.07,11.07,0,0,1,6.58-4.78,8.17,8.17,0,0,1,4.36.08q3.19.8,1.38,4.21a3.89,3.89,0,0,1-2.67.31c-2.58-.19-5.95-1.59-7.27,1.56-.14.35.4.53.59.25,2.54-3.8,7.31,1,10.34-1.81,1.45-1.32,1.06-3.2-.38-4.36-4.21-3.42-11.32-.07-13.32,4.32a.22.22,0,0,0,.39.22Z"/><path class="cls-9" d="M155.65,40.84a13.8,13.8,0,0,1,8.1,8.81c.95,3.37-.9,6.75.1,9.94,1.2,3.83,5.54,2.85,7.17-.14,5.74-10.59-6.68-22.76-17.25-19.12a.27.27,0,0,0,.14.52c6.26-1,12.54.63,15.8,6.53A13.54,13.54,0,0,1,171.28,56a8.09,8.09,0,0,1-.87,3.1l-6-1c-.31-.55.45-2.73.53-3.64a13.29,13.29,0,0,0-9.09-14.08c-.27-.08-.46.34-.2.45Z"/><path class="cls-9" d="M31.75,77.72C29.39,73.93,22,74.85,22.51,80,23,85.71,31,83.8,33.79,81.32a.27.27,0,0,0-.26-.46c-2.91,1-6.6,3.87-9.39.8-1.74-1.92-.26-4.81,2-5.42,2.07-.56,3.78.63,5.43,1.66a.13.13,0,0,0,.17-.18Z"/><path class="cls-9" d="M53.6,49.23a110.45,110.45,0,0,0,5.29-20.77c0-.36-.48-.37-.59-.08a109.22,109.22,0,0,0-5.19,20.71.26.26,0,0,0,.49.14Z"/><path class="cls-9" d="M58.31,32.16a324,324,0,0,0,45.16,89.27c.18.25.59,0,.41-.24A356.93,356.93,0,0,1,58.54,32.1c0-.15-.28-.09-.23.06Z"/><path class="cls-9" d="M99.58,122.45a2.14,2.14,0,0,0,.4,2.89,1.93,1.93,0,0,0,2.68-.3c.07-.11-.07-.23-.17-.17a1.94,1.94,0,0,1-2.27,0,1.66,1.66,0,0,1-.21-2.2c.18-.26-.25-.51-.43-.25Z"/><path class="cls-9" d="M105.94,120.46a1.19,1.19,0,0,1,1.79.47,1.09,1.09,0,0,1-.15.91,1.74,1.74,0,0,1-.82.59.25.25,0,0,0,.06.45c1.14.23,1.92-1.34,1.49-2.26a1.63,1.63,0,0,0-2.61-.41.17.17,0,0,0,.24.25Z"/><path class="cls-9" d="M98.6,120.59c-2.4.82-2.84,4.45-1.71,6.39a4.83,4.83,0,0,0,6.8,1.49.17.17,0,0,0-.17-.29c-2.09,1-4.88.69-6.16-1.48s-.09-4.25,1.3-6c0,0,0-.12-.06-.1Z"/><path class="cls-9" d="M105.08,118.51a4.32,4.32,0,0,1,5.1,6.94c-.18.19.09.44.28.28a4.63,4.63,0,0,0-5.51-7.45.13.13,0,0,0,.13.23Z"/><path class="cls-9" d="M103.48,125.56l0,.37a0,0,0,1,0,0,0l0-.37a0,0,0,0,0-.08,0Z"/><path class="cls-9" d="M103,126.31a4.71,4.71,0,0,0,5.12-1.44c.12-.16-.12-.31-.26-.2a5.39,5.39,0,0,1-4.81,1.48.08.08,0,0,0,0,.16Z"/><path class="cls-9" d="M48.32,35c-2.7.42-4.42,3.73-2.56,6a3.82,3.82,0,0,0,6.51-.85,4,4,0,0,0-3.37-5.58,4.2,4.2,0,0,0-4.23,5.61.12.12,0,0,0,.23-.06c-.53-2.16.54-4.71,2.9-5.16a3.71,3.71,0,0,1,4.34,4.51,3.52,3.52,0,0,1-5.66,1.86,3.41,3.41,0,0,1,1.89-6,.17.17,0,1,0,0-.33Z"/><path class="cls-9" d="M48.93,42.06A11.61,11.61,0,0,0,49.64,44a.1.1,0,0,0,.19-.08A12.93,12.93,0,0,0,49,42c0-.05-.1,0-.08,0Z"/><path class="cls-9" d="M50.33,42.13c.25.51.47,1,.76,1.5.09.15.37.06.3-.12-.21-.53-.5-1-.76-1.55-.1-.19-.39,0-.3.17Z"/><path class="cls-9" d="M49.18,44.2c-1.45,2-1.34,5.78,1,7.22.12.07.21-.09.14-.18-1.68-2.13-2.4-4.41-.87-6.9.09-.16-.15-.29-.25-.14Z"/><path class="cls-9" d="M51.18,43.36a5.15,5.15,0,0,1,5.64,4.71c0,.21.34.21.33,0-.12-2.91-3-5.58-6-4.86a.08.08,0,0,0,0,.15Z"/><path class="cls-9" d="M55.68,45a15.18,15.18,0,0,0-.79,3,.1.1,0,0,0,.19,0,15.07,15.07,0,0,0,.73-3,.07.07,0,0,0-.13,0Z"/><path class="cls-9" d="M53.46,43.92c-.43,2-.86,4-1.23,6,0,.21.28.29.32.09.39-2,.72-4,1.05-6,0-.1-.12-.14-.14,0Z"/><path class="cls-9" d="M51.92,44.27a12.31,12.31,0,0,0-1.58,6.81.14.14,0,0,0,.28,0,19.27,19.27,0,0,1,1.43-6.74c0-.09-.09-.17-.13-.07Z"/><path class="cls-9" d="M50.42,44.29c-.41,1.49-.9,3-1.21,4.49a.15.15,0,0,0,.28.08c.45-1.48.71-3,1-4.54a.06.06,0,0,0-.12,0Z"/><path class="cls-9" d="M51.58,36.78c-.33.85-.59,1.73-.86,2.6a9.58,9.58,0,0,0-.61,2.32.1.1,0,0,0,.18,0,9.4,9.4,0,0,0,.79-2.27c.27-.87.54-1.74.76-2.63a.13.13,0,0,0-.26-.07Z"/><path class="cls-9" d="M50,35.24a18.12,18.12,0,0,0-2.32,7.56.12.12,0,0,0,.23,0,34.09,34.09,0,0,1,2.25-7.5c0-.1-.1-.2-.16-.09Z"/><path class="cls-9" d="M47.39,35.63c-.57,2.11-1.2,4.23-1.59,6.37,0,.18.22.26.27.08.61-2.1,1-4.28,1.42-6.42,0-.06-.08-.09-.1,0Z"/><path class="cls-9" d="M48.45,35.61A47.62,47.62,0,0,0,47,42.05c0,.13.18.14.22,0a48,48,0,0,0,1.55-6.39c0-.19-.25-.27-.3-.08Z"/><path class="cls-9" d="M50.45,35.64a40.5,40.5,0,0,0-1.17,7.16.09.09,0,0,0,.18,0,41.29,41.29,0,0,0,1.11-7.17c0-.07-.1-.08-.12,0Z"/><path class="cls-9" d="M52.22,44.27a37,37,0,0,0-1.59,7.18c0,.22.31.23.38,0a38.65,38.65,0,0,0,1.41-7.18c0-.13-.17-.18-.2,0Z"/><path class="cls-9" d="M97.14,15v-.37a0,0,0,1,0,0,0V15a0,0,0,1,0,0,0Z"/><path class="cls-9" d="M96.76,14.7c-3.71,4.51-7.24,8.79-12.39,11.77a.29.29,0,0,0,0,.5l1.25,1.66a.33.33,0,0,0,.4.23c6.78-2.3,14-6.74,17.71-13a.21.21,0,0,0-.33-.25c-2.68,2.85-5.07,5.69-8.31,8-1.5,1.06-7.64,5.45-9.18,4.06s3.14-3.89,4.18-4.82a32.93,32.93,0,0,0,6.8-8c0-.08-.07-.18-.13-.1Z"/><path class="cls-9" d="M92.51,20.13a10.22,10.22,0,0,0,2.67.65,14.5,14.5,0,0,0,2.77.36.21.21,0,0,0,.06-.41,16.07,16.07,0,0,0-2.87-.6,9.6,9.6,0,0,0-2.56-.26c-.12,0-.21.2-.07.26Z"/><path class="cls-9" d="M94.45,17.27A22.1,22.1,0,0,0,97,18.57a6.67,6.67,0,0,0,2.09.81c.11,0,.16-.15.09-.22A7.68,7.68,0,0,0,97,18a19,19,0,0,0-2.38-1,.15.15,0,0,0-.12.28Z"/><path class="cls-9" d="M71.78,26.22a1.05,1.05,0,0,0,1,1.2.15.15,0,0,0,.13-.07l.58-1a.17.17,0,0,0,0-.2c-.55-.71-1.82.34-1.18.89a.12.12,0,0,0,.19-.12c-.09-.39.42-.94.76-.53l0-.2c-.1.17-.3.74-.47.84-.41.24-.71-.49-.72-.77,0-.12-.21-.16-.23,0Z"/><path class="cls-9" d="M78,23.59a.51.51,0,0,0-.84.37c0,.59.9.58,1.27.44,1.43-.58.48-2.6-.89-2.15a.2.2,0,0,0-.14.19,6.22,6.22,0,0,0,0,1.22.16.16,0,0,0,.3,0,6.24,6.24,0,0,0,.06-1.22l-.14.19c.58-.22,1.36.34,1.1,1a.87.87,0,0,1-.6.5.75.75,0,0,1-.42,0l-.17-.07c-.06-.26,0-.35.25-.28a.14.14,0,0,0,.19-.2Z"/><path class="cls-9" d="M82.87,20.52c-.19-.07-.13-.17-.35-.12a.71.71,0,0,0-.35.24.83.83,0,0,0-.14.84c.32.69,1.31.5,1.72,0a2,2,0,0,0,.39-1.4c0-.36-.28-.47-.62-.48A1.19,1.19,0,0,0,82.28,21a.15.15,0,0,0,.3,0,1,1,0,0,1,.5-.85c.12-.07.46-.21.6-.09s.09.34.07.51a1,1,0,0,1-.8,1c-.63.1-.92-.75-.25-.9a.17.17,0,0,0,.1-.1l0,0c.06,0,.08-.07,0-.09Z"/><path class="cls-9" d="M72.69,20.3c1.67-.7,3.31-1.44,5-2.19.18-.09,0-.36-.16-.27-1.62.75-3.24,1.52-4.84,2.33-.07,0,0,.16,0,.13Z"/><path class="cls-9" d="M65.18,15.06c4.55-1.58,9.17-3.28,13.58-5.23.08,0,0-.17-.06-.15-4.58,1.51-9.13,3.34-13.57,5.21-.1,0-.06.21.05.17Z"/><path class="cls-9" d="M70.36,10.54a4.2,4.2,0,0,1,1.83,3c0,.13.21.09.22,0a3.42,3.42,0,0,0-1.94-3.1c-.12-.06-.23.11-.11.18Z"/><path class="cls-9" d="M72.28,10.08a17,17,0,0,0,1.9,2.64.09.09,0,0,0,.14-.11A16.37,16.37,0,0,0,72.39,10c0-.06-.16,0-.11.09Z"/><path class="cls-9" d="M73.74,9.35A21.8,21.8,0,0,0,76,12.78c.08.08.2,0,.15-.12a20.57,20.57,0,0,0-2.28-3.37c0-.07-.16,0-.12.06Z"/><path class="cls-9" d="M76,9l1.17,1.42a5.4,5.4,0,0,0,1.11,1.22.08.08,0,0,0,.12-.11,5.89,5.89,0,0,0-1-1.3c-.4-.46-.81-.91-1.22-1.36-.09-.1-.22,0-.14.13Z"/><path class="cls-9" d="M67.4,12l.37.37s0,0,0,0l-.37-.38s0,0,0,0Z"/><path class="cls-9" d="M67.71,12.37a31.35,31.35,0,0,0,2.63,3.42.11.11,0,0,0,.17-.13,29.91,29.91,0,0,0-2.67-3.39c-.06-.07-.19,0-.13.1Z"/><path class="cls-9" d="M66.92,13.94a24.14,24.14,0,0,0,1.9,2.24c.1.09.28,0,.2-.15a23,23,0,0,0-1.88-2.3c-.13-.16-.34.06-.22.21Z"/></svg>