<svg xmlns="http://www.w3.org/2000/svg" viewBox="0 0 198.43 55.59"><defs><style>.cls-1,.cls-2{fill:#fff;}.cls-1{opacity:0.74;}.cls-3{fill:#6e6e6e;opacity:0.5;}</style></defs><g id="card_base" data-name="card base"><rect class="cls-1" x="163.33" y="11.42" width="27.33" height="28.98" rx="5.08"/><rect class="cls-1" x="126.87" y="11.42" width="27.33" height="28.98" rx="5.08"/><rect class="cls-1" x="90.2" y="11.42" width="27.33" height="28.98" rx="5.08"/></g><g id="carracters"><path d="M173,26.64l-4.18,1.46c-.06,0-.11.1-.16.15s-.19.25-.32.42l-.69-1.73,4.95-1.64-1.58-5.22,2.14-.39c.06.35-.21.44-.41.58l1.27,4.51a40.68,40.68,0,0,1,6-1.69,19.79,19.79,0,0,0-3.7-3.14c.3-.3.59-.6.9-.89,0,0,.16,0,.21,0,.68.49,1.4.94,2,1.48s1.32,1.25,2,1.88l.07.1L181,23c.31,0,.57,0,.83,0a4.39,4.39,0,0,1,3.54,1.78,3.77,3.77,0,0,1,.69,2.16,4.58,4.58,0,0,1-.46,2.33,3.92,3.92,0,0,1-2.84,2A6.68,6.68,0,0,1,177.31,30c-.1-.07-.13-.13-.07-.25a5.14,5.14,0,0,0,.2-.55c.05-.18.1-.36.16-.56l.17.12A6.25,6.25,0,0,0,181.49,30a3.26,3.26,0,0,0,2.1-.69,2.6,2.6,0,0,0,.92-1.87,2.67,2.67,0,0,0-.6-2.1,2.92,2.92,0,0,0-1.91-.94,7.92,7.92,0,0,0-3.28.34c-1.4.4-2.79.86-4.18,1.29l-.07,0,3.12,11.16-1.65.37C175.1,33.93,174.08,30.29,173,26.64Z"/><path class="cls-2" d="M21.92,26.64,17.75,28.1c-.06,0-.11.1-.16.15s-.19.25-.32.42l-.7-1.73,5-1.64L20,20.08l2.13-.39c.07.35-.2.44-.41.58L23,24.78a40.33,40.33,0,0,1,6-1.69A19.79,19.79,0,0,0,25.22,20c.3-.3.59-.6.9-.89,0,0,.15,0,.21,0,.68.49,1.39.94,2,1.48s1.31,1.25,2,1.88l.07.1-.51.43c.3,0,.57,0,.82,0a4.39,4.39,0,0,1,3.55,1.78A3.85,3.85,0,0,1,35,26.93a4.49,4.49,0,0,1-.47,2.33,3.89,3.89,0,0,1-2.84,2A6.66,6.66,0,0,1,26.21,30a.17.17,0,0,1-.08-.25,3.62,3.62,0,0,0,.2-.55c.06-.18.11-.36.17-.56l.17.12A6.25,6.25,0,0,0,30.39,30a3.26,3.26,0,0,0,2.1-.69,2.64,2.64,0,0,0,.92-1.87,2.7,2.7,0,0,0-.6-2.1,2.94,2.94,0,0,0-1.91-.94,7.9,7.9,0,0,0-3.28.34c-1.4.4-2.79.86-4.18,1.29l-.08,0,3.12,11.16-1.64.37C24,33.93,23,30.29,21.92,26.64Z"/><path class="cls-3" d="M136.36,26.64l-4.17,1.46c-.07,0-.12.1-.17.15s-.18.25-.32.42L131,26.94l5-1.64-1.59-5.22,2.14-.39c.07.35-.21.44-.41.58l1.28,4.51a40.21,40.21,0,0,1,6-1.69,19.48,19.48,0,0,0-3.7-3.14l.9-.89s.16,0,.21,0c.69.49,1.4.94,2,1.48s1.31,1.25,2,1.88c0,0,0,.05.08.1l-.51.43c.3,0,.56,0,.82,0a4.37,4.37,0,0,1,3.54,1.78,3.78,3.78,0,0,1,.7,2.16,4.69,4.69,0,0,1-.47,2.33,3.9,3.9,0,0,1-2.84,2A6.68,6.68,0,0,1,140.64,30c-.1-.07-.13-.13-.07-.25a5.14,5.14,0,0,0,.2-.55c.06-.18.11-.36.16-.56l.18.12A6.2,6.2,0,0,0,144.82,30a3.28,3.28,0,0,0,2.11-.69,2.63,2.63,0,0,0,.91-1.87,2.7,2.7,0,0,0-.59-2.1,3,3,0,0,0-1.91-.94,8,8,0,0,0-3.29.34c-1.4.4-2.78.86-4.17,1.29a.19.19,0,0,0-.08,0l3.12,11.16-1.64.37C138.43,33.93,137.41,30.29,136.36,26.64Z"/><path class="cls-3" d="M100.49,26.64,96.31,28.1c-.06,0-.11.1-.16.15s-.19.25-.32.42l-.69-1.73,5-1.64-1.59-5.22,2.14-.39c.07.35-.21.44-.41.58l1.27,4.51a40.68,40.68,0,0,1,6-1.69,19.79,19.79,0,0,0-3.7-3.14c.3-.3.59-.6.9-.89,0,0,.16,0,.21,0,.69.49,1.4.94,2,1.48s1.31,1.25,2,1.88l.08.1-.52.43c.31,0,.57,0,.83,0a4.39,4.39,0,0,1,3.54,1.78,3.7,3.7,0,0,1,.69,2.16,4.58,4.58,0,0,1-.46,2.33,3.9,3.9,0,0,1-2.84,2A6.68,6.68,0,0,1,104.77,30c-.1-.07-.13-.13-.07-.25a5.14,5.14,0,0,0,.2-.55c.06-.18.1-.36.16-.56l.18.12A6.2,6.2,0,0,0,109,30a3.28,3.28,0,0,0,2.11-.69,2.63,2.63,0,0,0,.91-1.87,2.67,2.67,0,0,0-.6-2.1,2.92,2.92,0,0,0-1.91-.94,7.92,7.92,0,0,0-3.28.34c-1.4.4-2.78.86-4.18,1.29l-.07,0,3.12,11.16-1.65.37C102.56,33.93,101.54,30.29,100.49,26.64Z"/><path d="M131.69,28.65,131,26.92c.49-.15,1-.29,1.43-.45,2-.68,4-1.37,6-2a33,33,0,0,1,4.44-1.26l.49-.08A19.31,19.31,0,0,0,139.66,20l1-.95a18.43,18.43,0,0,1,4.22,3.53l-.27.22-.27.24c.37,0,.7,0,1,0a4.54,4.54,0,0,1,3.05,1.37,3.81,3.81,0,0,1,1,2.49,4.4,4.4,0,0,1-.71,2.8A4,4,0,0,1,146,31.3,6.68,6.68,0,0,1,140.66,30c-.11-.07-.15-.13-.09-.27a3.5,3.5,0,0,0,.2-.54c.06-.18.11-.36.17-.56l.19.13A6.3,6.3,0,0,0,144.6,30a3.71,3.71,0,0,0,1.85-.38,2.74,2.74,0,0,0,1.39-2.82,2.61,2.61,0,0,0-2.45-2.4,8.12,8.12,0,0,0-3.1.27,53.61,53.61,0,0,0-5.8,1.86c-1.39.51-2.8,1-4.2,1.48a.42.42,0,0,0-.31.27A1.94,1.94,0,0,1,131.69,28.65Z"/><path d="M170.91,22.46c.11-.27.19-.49.29-.7,0-.05.1-.08.15-.11l.06.06c-.13.33-.26.66-.4,1a.18.18,0,0,1-.17.07l-1-.38c0-.15.07-.18.19-.13l.7.27c0-.11-.06-.19-.09-.26l-1.2-3.14c0-.11-.08-.2.12-.22Z"/><path d="M141.26,18.91l.84-.13,0-.05a.39.39,0,0,1-.14-.08l-2.68-2.16c-.09-.07-.2-.14,0-.25l2.94,2.37c0-.27-.07-.5-.1-.72s0-.14.15-.17c.06.36.12.71.16,1.08,0,0-.08.12-.14.13-.3.06-.61.09-.92.14C141.27,19.1,141.24,19,141.26,18.91Z"/><path d="M92.6,26.89l3.58-1.24-.8-.35v-.08c.06,0,.14-.06.19,0l.84.35c.13.06.14.13.09.25s-.22.5-.35.81l.29-.08L103,24.26a25.28,25.28,0,0,1,4.18-1.12,7.07,7.07,0,0,1,3.48.09,3.8,3.8,0,0,1,2.7,2.94,4.28,4.28,0,0,1-.93,3.89,4.07,4.07,0,0,1-2.34,1.24A6.73,6.73,0,0,1,104.77,30a.18.18,0,0,1-.08-.27,4.93,4.93,0,0,0,.19-.54c.06-.18.11-.36.17-.56l.21.15A6.35,6.35,0,0,0,108.71,30a3.88,3.88,0,0,0,1.65-.28,2.72,2.72,0,0,0,1.6-2.9,2.62,2.62,0,0,0-2.46-2.42,8.12,8.12,0,0,0-3.1.27,51.17,51.17,0,0,0-5.78,1.86c-1.4.51-2.82,1-4.22,1.49a.4.4,0,0,0-.3.25,1.62,1.62,0,0,1-.29.33l-.69-1.71c.2-.07.39-.14.58-.19a.36.36,0,0,0,.28-.26c.07-.2.17-.4.28-.65l-1,.33c-.81.28-1.62.57-2.43.84-.08,0-.18.11-.24,0Z"/></g></svg>