<svg id="illustration" xmlns="http://www.w3.org/2000/svg" viewBox="0 0 198.43 130.29"><defs><style>.cls-1{fill:#32493f;}.cls-2{fill:#659e90;}.cls-3{fill:#fff;}.cls-4{opacity:0.57;}.cls-5{opacity:0.35;}.cls-6{fill:#010101;}.cls-7{fill:#613b0a;}.cls-8{fill:#7d4f1c;}.cls-9{fill:#907a87;}.cls-10{fill:#fbaa1b;}.cls-11{fill:#231f20;}</style></defs><path class="cls-1" d="M42.76,36.35s36.37-6.05,54-5.87,56,2.47,56,2.47S136.61,7.9,106,6.88,45.94,25.64,42.76,36.35Z"/><path class="cls-1" d="M81.26,49.11l2.76.46.36,2.65,3.57.17.73-2.47,2.94-.35.73,3.68L90,68.2,88.72,80v.54L90.64,80l.24,1.54.18,1.7.12,2.46-.38,1.73L90.54,89l-1,.32-.27.25-.11.62-.35,4.7.42,5.22.77,3.49.42,1.71.46-.09.48-.26,1.44,3.89.58,1.83-1.41,1,.45,3.2.67,3.8.56,2,.57,1.72-1.39,1L89.7,124.9,86.45,126l-3.84.75-2.1-5.9-1.47-6-.43-2.31-.8-1.46-.72-3-.24-2.41.66.48.45-.55-.2-.88-.84-4.13-.6-3.82-.85-7.34-.09-1.17L73.94,84l0-1.73,0-.91v-1a6.66,6.66,0,0,0,.93.28l.74.08-.3-.93V76l.18-4.65L76,66.73,77,61l1.23-4.82.9-2.89-.24-.36,2-3.79Z"/><polygon class="cls-2" points="84.38 52.23 84.48 45.15 84.48 39.46 84.14 35.01 83.81 31.21 87.87 31.21 90.72 30.93 92.04 30.87 91.77 32.68 91.09 35.86 89.98 41.55 89.11 46.51 87.95 52.39 84.38 52.23"/><polygon class="cls-2" points="63.35 33.03 69.53 32.38 74.44 38.33 79.39 45.77 81.26 49.11 78.92 52.9 77.39 49.33 73.92 44.66 70.82 40.89 68.2 38.05 65.02 34.74 63.35 33.03"/><polygon class="cls-2" points="79.97 31.58 83.81 31.21 84.32 37.98 84.48 44.02 84.45 49.54 83.24 49.69 82.1 43.2 79.97 31.58"/><polygon class="cls-2" points="105.41 30.48 113.38 30.64 94.07 49.57 93.7 50.72 92.87 52.46 92.36 53.25 91.73 51.77 91.56 50.57 91.62 49.57 105.41 30.48"/><path class="cls-3" d="M58.62,25.18c3.79-2.39,7.23-5.19,11.19-7.34a98.56,98.56,0,0,1,13.82-5.72.38.38,0,0,0-.2-.73c-8.78,2-18.86,6.85-25.13,13.38a.26.26,0,0,0,.32.41Z"/><path class="cls-3" d="M125.73,15.36c2.12,1,4.4,1.49,6.5,2.53a29.34,29.34,0,0,1,6.43,4.38c.47.4,1.15-.27.68-.68-3.53-3.14-8.6-6.55-13.5-6.64-.21,0-.31.32-.11.41Z"/><path class="cls-3" d="M100.31,12.14c1,1.56,2.31,2.86,3.27,4.45s1.53,3.34,2.4,5c.22.42.77.11.7-.3a15.91,15.91,0,0,0-2.43-5.43,13.45,13.45,0,0,0-3.52-4.12c-.26-.18-.58.17-.42.42Z"/><path class="cls-3" d="M104.62,34.68A45,45,0,0,0,98,43c-.1.16.15.3.26.15a91.72,91.72,0,0,1,6.5-8.33.08.08,0,0,0-.11-.11Z"/><path class="cls-3" d="M88,34.86a75.7,75.7,0,0,0-.47,10c0,.31.45.3.48,0a73.36,73.36,0,0,0,.36-9.94c0-.2-.34-.27-.37,0Z"/><path class="cls-3" d="M69.18,37.28c.63.06,1,1.28,1.35,1.76.4.65.83,1.27,1.28,1.88a15.8,15.8,0,0,0,2.57,3c.15.12.43,0,.3-.22-1-1.42-2.24-2.66-3.22-4.11C70.83,38.64,70.4,37,69.18,37c-.2,0-.19.29,0,.31Z"/><path class="cls-3" d="M77.49,76.64A39.09,39.09,0,0,1,79.37,60a.41.41,0,0,0-.74-.31,24.07,24.07,0,0,0-1.68,17c.09.28.56.25.54-.07Z"/><path class="cls-3" d="M75.52,82.81a15,15,0,0,0,.64,2.27c.17.55.24,1.27.79,1.55a.25.25,0,0,0,.34-.09c.28-.6-.13-1.24-.34-1.82a13.75,13.75,0,0,0-.88-2.14c-.18-.32-.6-.09-.55.23Z"/><path class="cls-3" d="M77.11,90.26a45,45,0,0,0,2.17,11.88c.12.34.68.31.66-.09a44.9,44.9,0,0,0-2.45-11.84c-.06-.19-.39-.18-.38.05Z"/><path class="cls-3" d="M78.68,107.85a3.39,3.39,0,0,0,.41,2.87.45.45,0,0,0,.78-.45,6.19,6.19,0,0,1-.68-2.35.26.26,0,0,0-.51-.07Z"/><path class="cls-3" d="M80.74,114.73c-.43,3.3,1.07,6.84,2.73,9.62a.48.48,0,0,0,.83-.48c-1.76-3-2.27-6-3.2-9.19a.18.18,0,0,0-.36,0Z"/><g class="cls-4"><path class="cls-3" d="M111.85,31.2a2.26,2.26,0,0,0-.37,0s0,.06,0,.07h.37a0,0,0,1,0,0-.09Z"/></g><g class="cls-5"><path class="cls-6" d="M90.49,52.65a52,52,0,0,0-5.08,27.71.36.36,0,0,0,.71,0A74.84,74.84,0,0,1,91,52.86c.11-.29-.37-.5-.51-.21Z"/></g><g class="cls-5"><path class="cls-6" d="M86.08,82.15a8,8,0,0,1,1.46-.27A5.23,5.23,0,0,1,89,82.1c.1,0,.17-.12.07-.17a3.27,3.27,0,0,0-3,.12c-.05,0,0,.12,0,.1Z"/></g><g class="cls-5"><path class="cls-6" d="M89,81.22c.13,1.32.31,2.62.31,4a25.37,25.37,0,0,0-.13,3.48c0,.13.22.15.28,0,1.05-2.05.59-5.38-.08-7.51-.06-.2-.41-.18-.38,0Z"/></g><g class="cls-5"><path class="cls-6" d="M87.47,90.21c-1.16,4.93-.89,11,1.41,15.62.15.29.56.08.5-.21a71.44,71.44,0,0,1-1.64-8.11,55,55,0,0,1,0-7.26.14.14,0,0,0-.27,0Z"/></g><g class="cls-5"><path class="cls-6" d="M90.2,107.17c0,.49.4,1,.61,1.39a13.58,13.58,0,0,1,.66,1.85c.11.34.7.3.66-.09a5.73,5.73,0,0,0-.61-1.93c-.23-.48-.58-1.22-1.13-1.36a.15.15,0,0,0-.19.14Z"/></g><g class="cls-5"><path class="cls-6" d="M89.62,113.6c-.65,2.76.6,6.85,2.36,9,.14.17.44,0,.37-.22-.55-1.44-1.3-2.78-1.73-4.28s-.44-3-.85-4.53a.08.08,0,0,0-.15,0Z"/></g><g class="cls-4"><path class="cls-6" d="M110.5,32.29c-5.26,5.26-10.7,10.25-16.37,15.07-.08.07,0,.19.12.12a175.63,175.63,0,0,0,16.36-15.09.07.07,0,0,0-.11-.1Z"/></g><g class="cls-4"><path class="cls-6" d="M83.82,32.74A17.88,17.88,0,0,1,91,32c.2,0,.28-.26.09-.3a11.71,11.71,0,0,0-7.36.85.1.1,0,0,0,.08.18Z"/></g><g class="cls-4"><path class="cls-6" d="M64,33.92a14.49,14.49,0,0,0,2.55.13,24.52,24.52,0,0,0,3,0c.07,0,.11-.13,0-.14a23.33,23.33,0,0,0-2.78-.11,15.89,15.89,0,0,0-2.76,0s0,.08,0,.08Z"/></g><g class="cls-4"><path class="cls-6" d="M64.37,33.62A63.83,63.83,0,0,1,76.78,48.79c.08.14.3,0,.22-.14A43.8,43.8,0,0,0,64.47,33.49c-.08-.06-.17.06-.1.13Z"/></g><g class="cls-4"><path class="cls-6" d="M65.94,33.56a6,6,0,0,1,3.25-.78c.1,0,.14-.17,0-.19a4.61,4.61,0,0,0-3.37.79.1.1,0,0,0,.1.18Z"/></g><g class="cls-4"><path class="cls-6" d="M65.32,33.56a19.28,19.28,0,0,0,3.86.26c.09,0,.12-.15,0-.17a18.66,18.66,0,0,0-3.88-.32c-.15,0-.14.21,0,.23Z"/></g><g class="cls-4"><path class="cls-6" d="M105.77,31.51a25.45,25.45,0,0,1,6,.47.18.18,0,0,0,.09-.34,16,16,0,0,0-6.12-.39c-.16,0-.17.27,0,.26Z"/></g><g class="cls-4"><path class="cls-6" d="M85.41,51.09a11.47,11.47,0,0,0,2.1-.5.22.22,0,0,0-.11-.41,11.4,11.4,0,0,0-2.06.63.14.14,0,0,0,.07.28Z"/></g><g class="cls-4"><path class="cls-6" d="M84.71,51.21a2.61,2.61,0,0,0,1.38.68c.38,0,1.07,0,1.21-.4a.1.1,0,0,0,0-.11c-.29-.14-.64,0-.94,0a2,2,0,0,1-1.4-.43c-.14-.11-.34.08-.2.21Z"/></g><g class="cls-4"><path class="cls-6" d="M84.78,50.5a5,5,0,0,0,1.72.17.12.12,0,0,0,0-.22,4.74,4.74,0,0,0-1.72-.22c-.15,0-.19.25,0,.27Z"/></g><g class="cls-4"><path class="cls-6" d="M80.81,32.84a11.17,11.17,0,0,1,1.51-.51,13,13,0,0,1,1.76-.19.18.18,0,0,0,0-.36,5.18,5.18,0,0,0-3.36.85c-.1.07,0,.25.09.21Z"/></g><g class="cls-4"><path class="cls-6" d="M151.77,32.45A69.53,69.53,0,0,0,133,29.27c-.36,0-.36.55,0,.57a107.82,107.82,0,0,1,18.74,2.77c.1,0,.14-.12,0-.16Z"/></g><g class="cls-4"><path class="cls-6" d="M119.06,28c-12.53-2.54-25.77-1.81-38.23.75-.44.1-.25.77.19.68,12.79-2.56,25.1-2.4,38-1,.25,0,.3-.39.06-.43Z"/></g><g class="cls-4"><path class="cls-6" d="M71.39,28.37a77.49,77.49,0,0,0-20.88,2.68.26.26,0,0,0,.14.5,152.4,152.4,0,0,1,20.74-2.89.15.15,0,0,0,0-.29Z"/></g><path class="cls-7" d="M98.7,63.34s-.78,0-.63-.38a8.6,8.6,0,0,1,.48-.9l.3-.35,0-.6.73-.25.39-.23h1.81l.44-.47.43-.15h.75l.46-.51v-.4l.7-.41.6-.23.65.18.68.22.69,0,10.07-2.15.77.18.38-.58.48.25.28.31.73-.23.54.66,9.29,1.45.34.31.6.2a1.76,1.76,0,0,0,.65-.08l.5-.24.39-.1,0,.52-.2.32.2.38.55.19.85-.33-.07.63.4-.21V61l.45.49.41.27.5-.07.46.35L134.62,64S99.4,65.23,99.31,65,98.7,63.34,98.7,63.34Z"/><polygon class="cls-7" points="100.44 97.14 100.82 96.39 101.48 96.79 102.1 95.79 102.9 95.79 103.96 95.54 104.49 95.23 104.57 94.55 104.97 94.69 105.71 94.69 105.81 94.23 106.51 94.06 106.73 93.84 107.31 94.07 107.94 93.84 108.53 93.71 109.26 93.71 117.95 92.45 118.71 92.84 119.7 92.06 120.2 92 120.69 92.12 121.66 92.62 122.27 92.63 123.25 92.64 123.98 92.65 133.54 94.82 134.02 95.16 134.92 94.97 135.82 94.93 136.09 95.23 136.09 95.59 136.83 95.58 137.15 96.11 137.73 96.36 138.34 96.09 139.09 96.39 139.35 96.91 139.35 97.3 139.93 97.64 139.94 98.48 138.73 100.41 136.02 101.18 101.8 99.62 100.44 97.14"/><path class="cls-8" d="M98.7,63.34l7.63.33,5.81.13,2.17-.87,1.1.51,3.24.35,1.41-.46,1.61,0,3.11.07,1.73-.25.76-.56,1,.41.9-.35.89.48,3.39-.13,1.7-.23.48-.43a5.45,5.45,0,0,1,.33,1.29c0,.51-.54.84-.54.84l.59.83-1.28.28.42.76-.54-.18-.31.43-.17.3-.07.66-.61.39s.15.7-.16,1-1.65,2-2.53,2.23a9,9,0,0,1-2.22.22c-.62,0-.23,1.3-1.8,1.7s-1.94.15-1.94.15a6.66,6.66,0,0,1-2.92,1.62,4.56,4.56,0,0,1-2.92-.46s-.8.29-2.2.63a2.68,2.68,0,0,1-2.33-.53,4,4,0,0,1-1.83.5,9.88,9.88,0,0,1-2.46-.63,5.43,5.43,0,0,0-1.42-.1,1.68,1.68,0,0,1-1.4-.9,3,3,0,0,1-2.57-.91,8.17,8.17,0,0,1-1.45-1.63s-1.3,0-1.37-.38a2.17,2.17,0,0,1,0-.73l-1.11-.21.37-.65-.84.25.21-1.49-.48.34-.42-1.48-.7.34,0-1.51-1.17,0Z"/><path class="cls-8" d="M100.45,97.14l-1,1.2,1.41.08-.49.93.5.44.53.62s1.59,4.31,3.88,5.51a8.94,8.94,0,0,0,5.81,4.56c1.35.12,1.89.54,3.18.39a7.94,7.94,0,0,0,2.54-.82,10.84,10.84,0,0,0,3.43,1.18l2.46,0a4.91,4.91,0,0,0,2.25.53c1-.11,3.4-.8,3.7-1.2s1.94-.23,3.28-.72,3.15-1.61,3.27-2.33,1.12-.66,1.82-1.38,1.46-2.39,1.84-2.63a1.47,1.47,0,0,1,.84-.19l-.92-1.2.9-.27-.3-.62,1-.26a15.7,15.7,0,0,1-.46-2.08c0-.36-1,.09-1,.09l-2.5,0-1.8.1-.8.11-.92.47-.69.41-.38-.25-.42-.25-.52.44-.8-.32-.56-.39-.6.61-.78-.53a6.11,6.11,0,0,1-1.43.16l-.43.46a1.39,1.39,0,0,0-.64-.31c-.4-.07-.66.4-.66.4l-.72-.79-.91.77a1.13,1.13,0,0,0-1.22-.69,21.88,21.88,0,0,0-2.55.44l-2-.77-1.69.1L114,98.84l-1.13.17-1.14-.1-.72-.18-.68-.38-.65.23-1,.35a1.55,1.55,0,0,0-.83-.19c-.37.07-.9.24-.9.24a5.61,5.61,0,0,0-1.3-.69l-1.95-.48-1.59-.27-1-.27Z"/><path class="cls-9" d="M111.1,85.71a1.25,1.25,0,0,0-.68.22c-.73.5.09,1.57.74,1a1.18,1.18,0,0,0,.37-.61.45.45,0,0,0-.43-.57Z"/><path class="cls-9" d="M111.47,85.43c-1.14-.5-2.26.55-2.8,1.47a6.23,6.23,0,0,0-.68,4.43c.73,3.1,4.18,5,7,3.33a1.65,1.65,0,0,0-1.66-2.85c-2,1.1-3.61-1.06-2.9-3,.17-.48,2-2.93,1-3.37Z"/><path class="cls-9" d="M111.84,86.66a2.4,2.4,0,0,1,1.13-.07c.66,0,1-1,.36-1.32a1.92,1.92,0,0,0-2.16.52.56.56,0,0,0,.67.87Z"/><path class="cls-9" d="M111.38,86.27c2,.12,4.68.72,5.43,2.94a2.41,2.41,0,0,1-.62,2.66c-1,.78-1.73.09-2.66-.3a1,1,0,0,0-1.45,1.11c.46,1.76,2.72,2.19,4.26,1.72a4.21,4.21,0,0,0,2.83-3.86c.29-4.3-4.36-6.17-7.92-5.23a.49.49,0,0,0,.13,1Z"/><path class="cls-9" d="M115.07,88.23a9.24,9.24,0,0,1,.19,1.47c0,.33-.25.57-.3.84-.36.18-.23.31.37.4l0-.13c.24-.24.22-.66.56-.94.52-.42,1-.66,1.27-1.34a2,2,0,0,0-.57-2.12,3.21,3.21,0,0,0-4.08.06,3.61,3.61,0,0,0-1.22,2,8.48,8.48,0,0,0-.16,1.11,5.59,5.59,0,0,1-.08.59q-.3.8.54-.09l.84.22c.3.69.42.78.36.26v-.31a3.21,3.21,0,0,1,.27-.79,2.81,2.81,0,0,1,1.27-1.21c1.88-1,.2-3.91-1.68-2.87a6.12,6.12,0,0,0-2.8,3.23c-.46,1.21-.67,2.93.22,4a2.31,2.31,0,0,0,3.81-.48,5.69,5.69,0,0,0,.5-2.19c0-.28.14-.63.14-.91,0-.06,0-.08.06-.08.25,0,.18-.1-.2-.25l-.16-1.19c.22-.3.17-.31-.14,0l-.3.23a3.74,3.74,0,0,0-.7.79,4.17,4.17,0,0,0-.72,2,2.79,2.79,0,0,0,1.93,3.1c3.37.82,4.82-4.09,2.78-6.16-.66-.67-2.1-.22-2,.82Z"/><path class="cls-9" d="M114.46,85.31a1.86,1.86,0,0,0-2.62.17.38.38,0,0,0,.31.56c.38,0,.69-.22,1.06-.28s.74.11,1.07,0a.3.3,0,0,0,.18-.43Z"/><path class="cls-9" d="M112.6,85.68a6.77,6.77,0,0,1,1.49.13c.4.13.81.38,1.23.23a.28.28,0,0,0,.19-.26c0-1.21-2.35-1.31-3.12-.89-.4.22-.17.75.21.79Z"/><path class="cls-9" d="M112.39,84.82a1.68,1.68,0,0,0-1.67,1,.45.45,0,0,0,.11.41.52.52,0,0,0,.64,0c.17-.1.31-.24.47-.35a4.84,4.84,0,0,1,.57-.23.44.44,0,0,0-.12-.85Z"/><path class="cls-9" d="M110.39,94.34c-.52.28-.46,1-.49,1.5a8.22,8.22,0,0,0,0,2.27c.1.45.78.34.8-.11,0-.72-.12-1.44,0-2.16.06-.53.28-1-.08-1.47a.18.18,0,0,0-.23,0Z"/><path class="cls-9" d="M109.75,98.37A9.6,9.6,0,0,0,113,99a39.8,39.8,0,0,0,4.23.2.42.42,0,0,0,0-.83c-1.31-.14-2.63-.26-4-.38a12.51,12.51,0,0,0-3.45-.15.31.31,0,0,0-.08.56Z"/><path class="cls-9" d="M116.87,98.58c.21-.72-.42-1.59-.73-2.22s-.66-1.81-1.42-2.17a.35.35,0,0,0-.51.21c-.15.86.51,1.66.9,2.38s.69,1.71,1.46,2a.25.25,0,0,0,.3-.17Z"/><path class="cls-9" d="M115,95.72a1.92,1.92,0,0,0,.46,1.28,7.7,7.7,0,0,0,.8,1.36.58.58,0,0,0,1-.4,3.09,3.09,0,0,0-.7-1.59c-.28-.39-.67-.92-1.2-.89a.35.35,0,0,0-.33.24Z"/><path class="cls-9" d="M114,95.22a12.37,12.37,0,0,0,.52,3.2l1.48-.85a4.62,4.62,0,0,1-1.12-2.39,1.34,1.34,0,0,0-1.41-1.1,1.23,1.23,0,0,0-1.07,1.18,23.7,23.7,0,0,0-.28,2.8l1.75-.47a15.92,15.92,0,0,0-1.49-2.8.88.88,0,0,0-1.46.38,7.94,7.94,0,0,0-.7,2,.76.76,0,0,0,1.29.54,8.49,8.49,0,0,0,1-1.88l-1.6-.21a15.67,15.67,0,0,0,1.33,2.89c.42,1,1.64.31,1.74-.47.07-.49.09-1,.12-1.48,0-.22,0-.44,0-.66s.15-.47,0-.28l-.65.27c-.24-.22-.31-.22-.2,0s.11.28.17.42.17.41.26.61c.23.5.64,1,.82,1.49.38,1.06,2.07.61,1.7-.46a11.93,11.93,0,0,0-1.36-3,.46.46,0,0,0-.86.23Z"/><path class="cls-9" d="M111.87,93.69c-.55,1.52,1,3.61,1.93,4.75A1.64,1.64,0,0,0,116,99a1.6,1.6,0,0,0,.57-2.17c-.51-.68-1-1.38-1.48-2.1a3.79,3.79,0,0,0-1.81-1.83,1.14,1.14,0,0,0-1.38.78Z"/><path class="cls-9" d="M110.68,94.66a2.53,2.53,0,0,0-.27,1.35.7.7,0,0,0,.36.63l.09,0a.61.61,0,0,0,.7-.1c.44-.34.31-1.12.28-1.62a.63.63,0,0,0-1.16-.31Z"/><path class="cls-9" d="M111,97.38a1.44,1.44,0,0,0,.89,1.26c1.07.46,1.65-1.2.6-1.42a8.42,8.42,0,0,1-.89-.29.48.48,0,0,0-.6.45Z"/><path class="cls-9" d="M113.51,94.19a2.51,2.51,0,0,0,.47,2.42,1,1,0,0,0,1.61-.67,2.52,2.52,0,0,0-1.4-2,.6.6,0,0,0-.68.28Z"/><path class="cls-9" d="M113.41,95c0,.74-.1,2.85,1.23,2.49s.26-2.12,0-2.82-1.21-.27-1.19.33Z"/><path class="cls-9" d="M126.9,94.68a5.78,5.78,0,0,0-.14-.7,1,1,0,0,0-1.37-.66,1,1,0,0,0-.49,1.44,1.68,1.68,0,0,0,1,.89c.63.23,1-.44,1-1Z"/><path class="cls-9" d="M127,95.75c.19-1.1-.53-2-.35-3.13.21-1.31,1.21-3.27,2.56-3.63,3.74-1,5.35,6.42,1,6.5-.83,0-.83,1.34,0,1.3,5.31-.23,5.45-7.6.8-9.16-2.36-.78-4.34.73-5.49,2.69-.87,1.47-2,5.51.62,5.93a.74.74,0,0,0,.88-.5Z"/><path class="cls-9" d="M129.58,88.88a3.16,3.16,0,0,0-2.89,1.53A4.24,4.24,0,0,0,126,94c.83,2.73,4.37,3.28,6.3,1.41s1.79-5.63-.8-7a3.55,3.55,0,0,0-4,.4c-1.11,1-1.54,2.58-.35,3.67a1.23,1.23,0,0,0,1.72,0c.31-.33.78-1.36,1.29-1s.12,1.54-.41,1.85c-.79.48-1.42-.12-1.26-1a5.82,5.82,0,0,1,1.43-2.72.5.5,0,0,0-.36-.85Z"/><path class="cls-9" d="M129.53,90.8a3.65,3.65,0,0,0-1.44,1.5,4.8,4.8,0,0,0-.79,2.29,1.51,1.51,0,0,0,2.55,1,4.79,4.79,0,0,0,.8-4.55.83.83,0,0,0-1.12-.29Z"/><path class="cls-9" d="M124.94,95.78c-1.15.38-1.94,2-2.26,3-.25.83,1,1.15,1.28.35a6.8,6.8,0,0,1,.7-1.37,11.47,11.47,0,0,0,.92-1.19c.21-.41-.13-1-.64-.83Z"/><path class="cls-9" d="M123.46,99.17a10.54,10.54,0,0,0,1-1.6,21.26,21.26,0,0,1,1.36-1.65c.53-.63-.34-1.54-.91-.92a9,9,0,0,0-1.29,1.94,4.92,4.92,0,0,0-.74,2,.34.34,0,0,0,.57.24Z"/><path class="cls-9" d="M123.54,99.54c1.12.53,2.42,0,3.64,0,1.53,0,3,.43,4.54.43a.68.68,0,0,0,.18-1.33,16.34,16.34,0,0,0-4.72-.53c-1.2.06-2.83.09-3.69,1a.26.26,0,0,0,.05.41Z"/><path class="cls-9" d="M132.12,99a4.09,4.09,0,0,0-1.82-3.49,1,1,0,0,0-1.43,1.1,6.22,6.22,0,0,0,.95,1.68,3.38,3.38,0,0,0,1.36,1.24.63.63,0,0,0,.94-.53Z"/><path class="cls-9" d="M129.35,96.36a12.74,12.74,0,0,0-.91,1.27l2.23.6c-.09-.67-.18-1.34-.31-2-.21-1.12-1.65-1-2.2-.29-.26.37-.53.73-.81,1.09l2,.53c-.08-.46-.17-.91-.25-1.36a1.14,1.14,0,0,0-2.06-.27c-.2.38-.75.64-1,1l1.15-.15-.11-.07.36.48a1.67,1.67,0,0,1,0-.59.7.7,0,0,0-1.29-.35,3.74,3.74,0,0,0-.29,1.15l.24-.56-.08.09a1,1,0,0,0,1.15,1.49,9.11,9.11,0,0,0,1.38-1l-.45.26.21-.06-1.43-1.08c0,.46.09.91.14,1.37a1.2,1.2,0,0,0,2.21.6c.28-.36.55-.72.84-1.07L128,96.54c.08.67.19,1.34.32,2a1.2,1.2,0,0,0,2.18.29,2.63,2.63,0,0,0,0-2.48.65.65,0,0,0-1.11,0Z"/><path class="cls-9" d="M125.05,98.72a5.16,5.16,0,0,0,1.36-1c.42-.4,1-.82,1.09-1.43a.89.89,0,0,0-1.08-1.08c-.67.19-1,.79-1.42,1.31-.17.22-.36.44-.52.68a3.54,3.54,0,0,0-.38.84c-.22.57.49,1,1,.73Z"/><path class="cls-3" d="M113.24,90.23a1.42,1.42,0,1,0-1.42-1.42,1.44,1.44,0,0,0,1.42,1.42Z"/><path class="cls-3" d="M113.85,89.86a1.93,1.93,0,1,0-1.92-1.93,1.94,1.94,0,0,0,1.92,1.93Z"/><path class="cls-3" d="M113.21,87.18c-.6-.54-1.22.39-1.32.92a.57.57,0,0,0,.25.61c.47.24.7-.12.82-.52s.59-.69.25-1Z"/><path class="cls-3" d="M111.76,87.1a2.37,2.37,0,0,0,1.51,3.82,2.43,2.43,0,0,0,2.53-3.33.71.71,0,1,0-1.3.55,1.16,1.16,0,0,1-1.15,1.61,1.11,1.11,0,0,1-.95-.66,1.67,1.67,0,0,1,.14-1.53.45.45,0,0,0-.78-.46Z"/><path class="cls-3" d="M129,89c-1.24-.38-1.43,1.92-1.16,2.64a2.07,2.07,0,0,0,3,1,2.6,2.6,0,0,0,.7-3.06,1.82,1.82,0,0,0-1.53-1,2.11,2.11,0,0,0-1,.23c-.34.16-.4.35-.64.58s.16.8.52.52a1.87,1.87,0,0,1,.75-.16,1.79,1.79,0,0,1,1,.34,1.26,1.26,0,0,1,.55.94,1.15,1.15,0,0,1-.71,1,1.49,1.49,0,0,1-2.11-.68,1.22,1.22,0,0,1,.33-1.42c.2-.21.4-.35.45-.65A.26.26,0,0,0,129,89Z"/><path class="cls-3" d="M129,89.6a1,1,0,0,0-.81.66,1.55,1.55,0,0,0,.1,1.23,1.69,1.69,0,0,0,2.32.55,1.53,1.53,0,0,0,.35-2.3,1.31,1.31,0,0,0-2.23.92.73.73,0,0,0,.52.69c-.3-.13.21.16.3.2a.44.44,0,0,0,.54-.54.29.29,0,0,1,0-.22l-.17.43c.12-.11.36-.72.14-.55,0,0,0,.15,0,.18a.54.54,0,0,1-.33.18c-.58.06-.56-.83-.41-1.18.06-.15-.12-.28-.25-.25Z"/><path class="cls-10" d="M133.86,89.19a12,12,0,0,0,2.88-.77,6.93,6.93,0,0,0,2.4-1.15c.12-.11,0-.27-.15-.25a15.24,15.24,0,0,0-2.56,1c-.87.3-1.77.48-2.63.79-.21.07-.2.44.06.42Z"/><path class="cls-10" d="M138.82,87.26c-.76.17-1.35.95-1.94,1.43A7.66,7.66,0,0,0,135,90.5s0,0,0,0a8.42,8.42,0,0,0,1.91-1.41c.63-.51,1.66-1,2-1.69a.12.12,0,0,0-.13-.17Z"/><path class="cls-10" d="M134.91,90.58s0,0,0,0,0,0,0,0Z"/><path class="cls-10" d="M134.85,90.67a.05.05,0,0,0,0-.1.05.05,0,0,0,0,.1Z"/><path class="cls-10" d="M133.5,89.29a3.06,3.06,0,0,1,.92,1.84c0,.28.52.21.49-.07a3.06,3.06,0,0,0-1.07-2.12c-.23-.2-.58.13-.34.35Z"/><path class="cls-10" d="M134.76,90.55a3.8,3.8,0,0,0,1.41-.91,6.58,6.58,0,0,0,1.41-1.21c.18-.26-.16-.49-.39-.39a6.53,6.53,0,0,0-1.46,1.17,3.64,3.64,0,0,0-1.12,1.19c0,.09.07.16.15.15Z"/><path class="cls-10" d="M134.59,90.12a2.22,2.22,0,0,0,1.28-.46,3.31,3.31,0,0,0,1.16-.89.44.44,0,0,0-.49-.64,3.45,3.45,0,0,0-1.32.79,2,2,0,0,0-.82,1,.2.2,0,0,0,.19.25Z"/><path class="cls-10" d="M134.15,89.39c.57.35,1.38,0,1.94-.2s1.52-.39,1.67-1a.38.38,0,0,0-.17-.42c-.63-.27-1.2.23-1.79.48s-1.4.41-1.7,1a.15.15,0,0,0,.05.2Z"/><path class="cls-10" d="M139.08,87.26a3,3,0,0,0,.47-.32c.1-.09,0-.24-.14-.18a3.63,3.63,0,0,0-.46.34c-.09.07,0,.22.13.16Z"/><path class="cls-10" d="M138.66,87.65a.72.72,0,0,0,.75-.3c.1-.14,0-.3-.18-.31a.73.73,0,0,0-.7.38.15.15,0,0,0,.13.23Z"/><path class="cls-10" d="M134.66,91.48a.05.05,0,1,0,0-.1.05.05,0,0,0,0,.1Z"/><path class="cls-10" d="M134.57,91.39c-.21.3-.06.75-.07,1.1a3.57,3.57,0,0,1-.46,1.6c0,.1.09.23.17.13a3.73,3.73,0,0,0,.72-1.58c.06-.39.15-1-.24-1.28a.1.1,0,0,0-.12,0Z"/><path class="cls-10" d="M134.39,94.07a2.29,2.29,0,0,0,1.36-.36c.6-.28,1.26-.44,1.85-.74.15-.07,0-.29-.11-.25-.61.13-1.18.41-1.79.57a2.36,2.36,0,0,0-1.35.6.11.11,0,0,0,0,.18Z"/><path class="cls-10" d="M137.56,92.55a8.18,8.18,0,0,0-1.41-.65,5.66,5.66,0,0,0-1.29-.62c-.16,0-.35.14-.24.3a3.25,3.25,0,0,0,1.33.84,3.59,3.59,0,0,0,1.53.43.16.16,0,0,0,.08-.3Z"/><path class="cls-10" d="M135.07,91.94a2.83,2.83,0,0,0-.37,1.48.22.22,0,0,0,.37.15,1.82,1.82,0,0,0,.66-1.2.2.2,0,0,0-.37-.1,11.5,11.5,0,0,1-.6,1l.34.26a3,3,0,0,0,.2-1.56.13.13,0,0,0-.23,0Z"/><path class="cls-10" d="M135.43,93.22a2.06,2.06,0,0,0,1.56-.16.27.27,0,0,0-.07-.48,2,2,0,0,0-1.52.35.16.16,0,0,0,0,.29Z"/><path class="cls-10" d="M136.68,92.67a5.58,5.58,0,0,1-.73-.46.5.5,0,1,0-.22.84,6.25,6.25,0,0,1,.87-.06.17.17,0,0,0,.08-.32Z"/><path class="cls-10" d="M135.3,93.7a4.32,4.32,0,0,0,1.4-.49.39.39,0,0,0,.2-.35.33.33,0,0,0-.12-.28.42.42,0,0,0-.48-.06,4.16,4.16,0,0,0-1.13.87c-.08.11,0,.33.13.31Z"/><path class="cls-10" d="M109.21,85.78c-.38-.47-1.32-.5-1.87-.77a10.39,10.39,0,0,1-1.83-1.53c-.16-.12-.47,0-.38.22a4,4,0,0,0,1.8,1.79c.55.33,1.64,1,2.25.53a.15.15,0,0,0,0-.24Z"/><path class="cls-10" d="M105.53,84.38c.06.54.56,1,.92,1.32A9.46,9.46,0,0,0,108,86.86c.31.2.59-.29.29-.49a10.7,10.7,0,0,1-1.45-1.14c-.35-.32-.66-.8-1.12-1a.11.11,0,0,0-.15.11Z"/><path class="cls-10" d="M107.9,86.94a4.13,4.13,0,0,0,.83-.61.37.37,0,0,0,.09-.36c-.06-.16-.1-.19-.26-.26a.37.37,0,0,0-.36.1,4.85,4.85,0,0,0-.61.82.23.23,0,0,0,.31.31Z"/><path class="cls-10" d="M107.83,86.41a2.16,2.16,0,0,1,0,.44c0,.37.6.36.56,0a.45.45,0,0,0,0-.2.13.13,0,0,0-.12-.1.58.58,0,0,0-.19,0l.35.27a.7.7,0,0,0-.3-.59.16.16,0,0,0-.26.15Z"/><path class="cls-10" d="M108.48,86.65a.15.15,0,0,0,0-.3.15.15,0,1,0,0,.3Z"/><path class="cls-10" d="M105.27,89.49a8.85,8.85,0,0,0,2.33-1.14c.19-.11.07-.46-.15-.37a9.41,9.41,0,0,0-2.38,1.17c-.17.13,0,.38.2.34Z"/><path class="cls-10" d="M107.49,88.1a1.62,1.62,0,0,0-.62,1.69.17.17,0,0,0,.32,0,5.45,5.45,0,0,1,.2-.89,3.16,3.16,0,0,0,.25-.71c0-.09-.09-.12-.15-.09Z"/><path class="cls-10" d="M107.19,89.6a1.49,1.49,0,0,0-1.65-.62.24.24,0,0,0,0,.41,1.83,1.83,0,0,0,.69.2,6.91,6.91,0,0,0,.77.25.17.17,0,0,0,.19-.24Z"/><path class="cls-10" d="M106.71,89.28a1,1,0,0,0,.58-.46c.07-.12,0-.24-.17-.22a1,1,0,0,0-.57.41c-.09.11,0,.34.16.27Z"/><path class="cls-9" d="M108.2,58.42a12.66,12.66,0,0,1-1.61-2.56,4.72,4.72,0,0,1,7.15-5.35c.42.27.81-.4.39-.66a5.73,5.73,0,0,0-7.92,1.49c-1.44,2.18-1.15,6.51,1.71,7.43a.24.24,0,0,0,.28-.35Z"/><path class="cls-9" d="M109.41,49.56c.45-.05.85-.28,1.33-.3s.91.29,1.36.25a.2.2,0,0,0,.17-.3c-.43-.89-2.55-.66-3,.15a.14.14,0,0,0,.12.2Z"/><path class="cls-9" d="M114.08,50.51c3.73,2.24,3.29,6.58-.27,8.68-.26.15-.09.61.21.51,4.42-1.47,4.37-7.77.3-9.61a.24.24,0,0,0-.24.42Z"/><path class="cls-9" d="M107.32,63.38c.16-1.54-.29-2.83.32-4.38a13.23,13.23,0,0,1,2.07-2.92c.06-.08,0-.22-.15-.19-2.41.89-4.14,5.48-2.34,7.54,0,0,.1,0,.1,0Z"/><path class="cls-9" d="M117.26,63.35a14.51,14.51,0,0,0-1.18-3.16,7.43,7.43,0,0,0-1.81-2.86c-.21-.16-.62,0-.51.3a19.42,19.42,0,0,0,1.65,2.71c.58,1,1,2.12,1.44,3.19.11.24.46.06.41-.18Z"/><path class="cls-9" d="M115.23,59.56A8.52,8.52,0,0,0,116,61c.22.46.26,1.17.66,1.51a.17.17,0,0,0,.27,0c.3-.52-.06-1.27-.29-1.75s-.63-1.23-1.23-1.43a.18.18,0,0,0-.21.22Z"/><path class="cls-9" d="M115.62,60.23c.32.36.32.85.58,1.23a.18.18,0,0,0,.3,0c.38-.56-.21-1.23-.7-1.46a.15.15,0,0,0-.18.23Z"/><path class="cls-9" d="M106.82,63.36a9,9,0,0,0,7.87-.83c.17-.14,0-.36-.2-.33-1.35.19-2.56.79-4,.9-1.21.1-2.42-.16-3.62-.05-.15,0-.25.23-.09.31Z"/><path class="cls-9" d="M114.16,62.69c0,.46.66.57,1,.64a4.43,4.43,0,0,0,1.74-.09.35.35,0,0,0-.18-.67,4,4,0,0,1-1.89,0c-.12,0-.72-.18-.7.14Z"/><path class="cls-9" d="M108.3,62.72c.48-1,.59-2.11,1-3.14s1.29-1.86,1.66-2.92c.26-.73-.62-1.2-1.21-.92-2,.91-3.4,4.85-2.63,6.83.18.45.9.69,1.17.15Z"/><path class="cls-9" d="M109.34,62.89a14.17,14.17,0,0,0,1-2.53,22.4,22.4,0,0,1,1.35-2.79,1,1,0,0,0-1.67-1c-1,1.59-2.3,4-2.07,5.91a.75.75,0,0,0,1.39.38Z"/><path class="cls-9" d="M109.81,63.38c1-.38,1.2-1.54,1.5-2.47a12.66,12.66,0,0,0,1-4.1.83.83,0,0,0-1.53-.42,12.53,12.53,0,0,0-1.22,3.77c-.24.94-.76,2.22-.12,3.07a.36.36,0,0,0,.39.15Z"/><path class="cls-9" d="M110.85,63c1.19-.06,1.55-2,1.76-2.89.26-1.15.91-3.22-.11-4.09a.65.65,0,0,0-.88,0c-.63.49-.55,1.06-.61,1.81a22.28,22.28,0,0,1-.42,2.68c-.07.36-.75,2.54.26,2.49Z"/><path class="cls-9" d="M110.4,63.36a3.68,3.68,0,0,0,1.1,0c.44-.11.87-.24,1.31-.33a8.82,8.82,0,0,1,2.81-.08c.91.1,1.12-1.45.22-1.62a8,8,0,0,0-3.31.06,5.74,5.74,0,0,0-1.44.56,1.88,1.88,0,0,0-.92,1,.28.28,0,0,0,.23.42Z"/><path class="cls-9" d="M116.2,62.19c.06-1.15-.64-2.2-1.07-3.23a30.53,30.53,0,0,1-1.23-3.64.92.92,0,0,0-1.78.5,25.37,25.37,0,0,0,1.35,3.84c.48,1.07,1,2.35,2.09,2.9a.43.43,0,0,0,.64-.37Z"/><path class="cls-9" d="M114.21,61.62c.46-.5.18-1.34,0-1.92a23.71,23.71,0,0,0-.43-2.86c-.21-.58-1.2-.91-1.5-.2a5,5,0,0,0,.29,3.67c.13.31,1,1.94,1.6,1.31Z"/><path class="cls-9" d="M112.57,61.92c1.14-.55,1.37-2.48,1.46-3.6s-1.73-1.17-1.88,0c-.12,1-.52,2.59,0,3.5a.28.28,0,0,0,.37.1Z"/><path class="cls-9" d="M115,58.41c2-.37,2.13-3.67,1.7-5.18a5.59,5.59,0,0,0-5-3.93,5.26,5.26,0,0,0-3.61,9.22c.9.76,2.21-.53,1.3-1.29a3.35,3.35,0,0,1,2.77-5.92A3.83,3.83,0,0,1,115,54.2c.3,1.41-.64,2.53-.49,3.83a.4.4,0,0,0,.5.38Z"/><path class="cls-9" d="M109.45,57c.16-1.16-.1-2.47.59-3.5a1.9,1.9,0,0,1,3.11-.32c.66.94.7,3.29-1,2.81-.67-.2-1.32-.92-1-1.65a.73.73,0,0,1,.75-.45c1.19.28-.56,1.32-.64.93l.09-.69,0,0c-1,.55-.11,2.08.91,1.54a1.29,1.29,0,0,0-.87-2.4c-1.45.26-1.43,2.2-.38,2.92a2.06,2.06,0,0,0,3.13-1.65,2.35,2.35,0,0,0-2.58-2.5,2.66,2.66,0,0,0-2.32,3,3.26,3.26,0,0,0,3.26,2.72c3.71.06,3.54-5.44.84-6.83-3.53-1.83-7.82,3.39-4.82,6.23.24.23.78.17.84-.22Z"/><path class="cls-9" d="M113.8,51.75c.09.49.49.9.61,1.39s-.1,1.12.22,1.56a.65.65,0,0,0,.71.28c1.7-.58.45-4-1.22-3.79a.46.46,0,0,0-.32.56Z"/><path class="cls-9" d="M110.84,51.38A2.18,2.18,0,0,0,108.75,53a2.47,2.47,0,0,0,1,2.68c.73.44,1.86,0,1.21-.93-.34-.46-.88-.71-1-1.34a1.86,1.86,0,0,1,.93-1.69.18.18,0,0,0-.08-.33Z"/><path class="cls-9" d="M123.24,50.26c-4.21.81-3.25,7.93-.77,10,.24.19.7,0,.57-.33-.57-1.52-1.6-2.74-1.83-4.42-.31-2.25.78-3.47,2.13-5a.1.1,0,0,0-.1-.17Z"/><path class="cls-9" d="M122.94,50.58c1.41-.91,3.48-.23,4.76.62a4.34,4.34,0,0,1,2.15,4.29.74.74,0,1,0,1.46.2,5.7,5.7,0,0,0-3.66-5.5c-.92-.33-4.75-1.48-4.87.29a.11.11,0,0,0,.16.1Z"/><path class="cls-9" d="M130.54,56a4.06,4.06,0,0,0-.13.86,2.46,2.46,0,0,1-.68,1.34,11.68,11.68,0,0,1-2.34,1.31.24.24,0,0,0,.18.44,5.34,5.34,0,0,0,2.81-1.73c.43-.54,1.05-1.66.41-2.25-.07-.06-.21-.07-.25,0Z"/><path class="cls-9" d="M129.6,62.61c.07-.69-.7-1.42-1.06-2s-.66-1.53-1.31-1.92a.26.26,0,0,0-.39.22c0,.8.72,1.56,1.15,2.19s.79,1.47,1.47,1.59a.11.11,0,0,0,.14-.1Z"/><path class="cls-9" d="M127.46,59.27a3.1,3.1,0,0,0,.45,1.08c.2.35.35.76.71.95a.21.21,0,0,0,.31-.18,2.09,2.09,0,0,0-.49-1.08,2.82,2.82,0,0,0-.73-.91.17.17,0,0,0-.25.14Z"/><path class="cls-9" d="M119.28,63.35c.51-.79.67-1.83,1.11-2.67a20.78,20.78,0,0,1,1.66-2.39c.18-.26-.21-.51-.42-.32a8.26,8.26,0,0,0-1.85,2.53,5.41,5.41,0,0,0-.85,2.75.19.19,0,0,0,.35.1Z"/><path class="cls-9" d="M119.19,63.07a3.81,3.81,0,0,0,1.47,0,3.35,3.35,0,0,0,1.48-.1c.15-.07.11-.27,0-.35a2.61,2.61,0,0,0-1.59-.2,2.47,2.47,0,0,0-1.4.31.19.19,0,0,0,0,.29Z"/><path class="cls-9" d="M120.42,63.32c1.46-.34,2.74.15,4.18.07s2.61-1,4.06-.64a.28.28,0,0,0,.15-.53c-1.55-.54-2.92.58-4.48.54s-2.73-.52-4.09.11c-.26.12-.07.5.18.45Z"/><path class="cls-9" d="M124.34,50.05c-3.85,1.17-3.35,8.3-.76,10.38a.53.53,0,0,0,.9-.37c.12-1.73-1.14-3.29-1.27-5.06a6.91,6.91,0,0,1,1.48-4.5.31.31,0,0,0-.35-.45Z"/><path class="cls-9" d="M122,52.22c-1.4.59-1.39,4.34,0,4.9a.26.26,0,0,0,.32-.25,1.51,1.51,0,0,0-.23-.79,3.65,3.65,0,0,1-.38-1.48c0-.82.47-1.52.45-2.29a.11.11,0,0,0-.17-.09Z"/><path class="cls-9" d="M122,52.61c.2-.09.29-.28.45-.43s.35-.26.46-.48a.25.25,0,0,0-.22-.38c-.48,0-1.06.71-.89,1.21a.14.14,0,0,0,.2.08Z"/><path class="cls-9" d="M121.45,56.56v.06a0,0,0,0,0,0,0v-.06s0,0,0,0Z"/><path class="cls-9" d="M121.21,56.76a2.82,2.82,0,0,0,.94,1.47c.27.16.5-.14.39-.39-.2-.46-.63-.81-.86-1.28-.13-.25-.59-.07-.47.2Z"/><path class="cls-9" d="M123.66,50.27c-.56,0-1.48.64-1.09,1.26a.2.2,0,0,0,.26.07c.2-.11.24-.28.37-.47a3.26,3.26,0,0,1,.55-.62.14.14,0,0,0-.09-.24Z"/><path class="cls-9" d="M124,50.84c1.06,1.25,2.76,1.66,3.69,3.1a3.39,3.39,0,0,1,.6,2.41c-.26,1.4-1.35,1.71-2.58,1.75a.78.78,0,0,0-.39,1.45c2.8,1.49,5.25-1.75,4.91-4.36s-3.35-5.36-6.07-5c-.3,0-.32.43-.16.62Z"/><path class="cls-9" d="M128.6,58.4c2.43.5,2.44-2.62,1.39-4-1.43-1.9-4.78-4.18-7-2.21a.8.8,0,0,0,.56,1.35,11.13,11.13,0,0,1,2-.1,6.76,6.76,0,0,1,2.07.83,3.73,3.73,0,0,1,1.59,1.23,1.72,1.72,0,0,1-.66,2.49.24.24,0,0,0,.06.43Z"/><path class="cls-9" d="M124,52.05c.65,0,1.27.28,1.91.29a.78.78,0,0,0,.39-1.43,2.69,2.69,0,0,0-2.58.13.55.55,0,0,0,.28,1Z"/><path class="cls-9" d="M123.39,54.51c1.59.28,3,.21,4.54.93,1.12.54,2.1-1.08,1-1.68-1.66-.89-3.92-1.46-5.69-.55a.72.72,0,0,0,.17,1.3Z"/><path class="cls-9" d="M123,55.41a6.55,6.55,0,0,0,2.39.62,22.93,22.93,0,0,1,2.71.58,1,1,0,0,0,.52-1.89c-1.69-.46-4-1.1-5.62-.15a.49.49,0,0,0,0,.84Z"/><path class="cls-9" d="M123.1,56.27c1.16,1,3.09,1.21,4.52,1.68,1.21.4,1.72-1.49.53-1.89-1.49-.48-3.51-1.17-5-.34a.35.35,0,0,0-.07.55Z"/><path class="cls-9" d="M123,56.72c-.11.89,1,1.55,1.73,1.83a4.93,4.93,0,0,0,3.15.17,1,1,0,0,0-.52-1.85,5.11,5.11,0,0,1-2.3,0c-.57-.15-1.23-.56-1.83-.4a.32.32,0,0,0-.23.3Z"/><path class="cls-9" d="M120.7,62.64a28.39,28.39,0,0,1,2.15-3.38c.56-.74-.7-1.73-1.3-1a11,11,0,0,0-2.07,3.87.67.67,0,0,0,1.22.51Z"/><path class="cls-9" d="M121.55,62.76c.8-.3,1.24-1.16,1.82-1.76a14.73,14.73,0,0,1,2.1-1.76c1-.67.11-2.2-.92-1.58a10,10,0,0,0-2.37,2c-.58.64-1.51,1.59-1.42,2.51,0,.37.38.76.79.61Z"/><path class="cls-9" d="M122.43,62.72a2.63,2.63,0,0,0,1.74-1c.59-.55,1.16-1.11,1.73-1.67.76-.74-.41-1.92-1.15-1.16-.57.57-1.13,1.14-1.67,1.73a2.61,2.61,0,0,0-1,1.74.34.34,0,0,0,.32.33Z"/><path class="cls-9" d="M123.35,62.64c1.55.41,3.09-1.56,3.81-2.68a.67.67,0,0,0,0-.66.61.61,0,0,0-.57-.32.65.65,0,0,0-.56.32A7.9,7.9,0,0,1,124.6,61a4.9,4.9,0,0,0-1.36,1.4.19.19,0,0,0,.11.27Z"/><path class="cls-9" d="M122.71,63a8.25,8.25,0,0,0,3.13-.05,5.43,5.43,0,0,0,2.48-.49c1.15-.88-.71-2.61-1.72-2.29a.47.47,0,0,0-.33.44c0,.78.69,1,1.16,1.5l-.21-.51v.24l.36-.62c-.28.22-1,.19-1.33.25s-.8.17-1.2.25a6.59,6.59,0,0,0-2.43.73.31.31,0,0,0,.08.55Z"/><path class="cls-9" d="M126.63,60.27a11.27,11.27,0,0,1-1.17.89c-.7.55.6,1.71,1.05.61.17-.4.29-.83.49-1.21a.24.24,0,0,0-.37-.29Z"/><path class="cls-9" d="M125.39,52.08c-.71-.37-1.7.39-1.79,1.1a.51.51,0,0,0,.63.49,2.38,2.38,0,0,0,.7-.51c.23-.18.48-.28.6-.56a.39.39,0,0,0-.14-.52Z"/><path class="cls-3" d="M111.26,51.57l-.06-.1a.46.46,0,0,0-.42-.24,2.17,2.17,0,0,0-1.67,3.17A3.36,3.36,0,0,0,113.37,56a2.37,2.37,0,0,0,1-3.65c-.82-1.16-3.62-1.91-4.32-.25a.58.58,0,0,0,.34.84c.9.24,1.94-.59,2.72.23s-.23,1.63-1.1,1.64-2.55-.93-1.78-2.1c.17-.26,1.29-.61,1-1.11Z"/><path class="cls-3" d="M110.71,52.16c-1,.09-.93,1.42-.44,2a2.35,2.35,0,0,0,2.8.62,1.51,1.51,0,0,0,.24-2.58c-.87-.68-2.43-.76-3,.36s1.07,2,1.59.93c0,.09-.23,0,.12.07-.1,0,.21.07.19.09s-.11-.52,0-.41-.33.07-.29.07a.79.79,0,0,1-.71-.23,2.56,2.56,0,0,1-.21-.73.32.32,0,0,0-.31-.23Z"/><path class="cls-3" d="M125.22,52.25c-1.13-.73-2.1,1-2.06,2a2.55,2.55,0,0,0,2.59,2.38c1.58-.1,2.22-1.81,2-3.2a1.89,1.89,0,0,0-3-1.31c-.8.64.34,1.79,1.13,1.14.43-.35.51.94.47,1.11A.88.88,0,0,1,125,55a1.07,1.07,0,0,1-.55-1.27c.16-.49.64-.76.87-1.2a.24.24,0,0,0-.07-.31Z"/><path class="cls-3" d="M125.3,52.85c-1.23-.4-1.53,1.3-1.14,2.11a1.55,1.55,0,0,0,2.63.4,2,2,0,0,0-.49-2.94,1.53,1.53,0,0,0-1.74.2,1.15,1.15,0,0,0-.15,1.66.79.79,0,0,0,.94.12,1,1,0,0,0,.37-.35c.08-.12.08-.14,0,0h-.25c.05,0,0,.28,0,.27s.26,0,.25,0l-.12-.24a1.37,1.37,0,0,1,0-.8.3.3,0,0,0-.21-.37Z"/><path class="cls-10" d="M128.57,50.23c.81-.71,1.64-1.39,2.48-2.06a17.53,17.53,0,0,0,2.44-2.1c.1-.12,0-.31-.17-.22a15.78,15.78,0,0,0-2.39,1.93c-.85.75-1.71,1.5-2.6,2.21-.16.13.08.38.24.24Z"/><path class="cls-10" d="M132.88,46.28a8.41,8.41,0,0,0-1.71,2.83,10.65,10.65,0,0,0-1,2.84c0,.2.29.27.38.1.5-1,.77-2,1.24-3a20,20,0,0,0,1.29-2.63.13.13,0,0,0-.21-.12Z"/><path class="cls-10" d="M128.36,50.22c.22.27.71.28,1,.44a2,2,0,0,1,.94,1c.17.42.86.24.69-.19a2.6,2.6,0,0,0-1.15-1.36c-.36-.2-1.16-.52-1.49-.11a.18.18,0,0,0,0,.22Z"/><path class="cls-10" d="M129.29,50.76c0,.23.13.33.29.48a6.55,6.55,0,0,0,.66.63c.19.13.38-.12.29-.29-.19-.38-.73-1-1.2-.87,0,0-.05,0,0,0Z"/><path class="cls-10" d="M128.91,50.63c.25.25.46.51.82.54.09,0,.13-.1.09-.17-.17-.31-.5-.4-.82-.53-.09,0-.15.09-.09.16Z"/><path class="cls-10" d="M129.25,50a3.44,3.44,0,0,0,1.31-.75c.43-.31.82-.65,1.22-1s-.15-.71-.44-.44-.79.7-1.19,1a4.49,4.49,0,0,0-1,1,.12.12,0,0,0,.13.17Z"/><path class="cls-10" d="M131.34,47.94a12.25,12.25,0,0,0-.78,1.36,2.15,2.15,0,0,0-.32,1.2.25.25,0,0,0,.41.11,3.14,3.14,0,0,0,.48-1.07,11.85,11.85,0,0,1,.6-1.37.23.23,0,0,0-.39-.23Z"/><path class="cls-10" d="M130.67,50.13a2.6,2.6,0,0,0-.74-.59c-.59-.25-1.1.6-.51.87a2.65,2.65,0,0,0,1.05.2.29.29,0,0,0,.2-.48Z"/><path class="cls-10" d="M130.09,50.26c.36,0,.63-.26.53-.63a.22.22,0,0,0-.32-.14c-.21.11-.24.27-.4.43a.2.2,0,0,0,.19.34Z"/><path class="cls-10" d="M131.43,48.39a8.9,8.9,0,0,0,1-.94c.31-.38-.23-.92-.54-.54a9.89,9.89,0,0,0-.79,1.23.21.21,0,0,0,.33.25Z"/><path class="cls-10" d="M130.63,52.41v0a.27.27,0,0,0,0,.32,3,3,0,0,1,.76,1.36,7.68,7.68,0,0,1,0,1.44.21.21,0,0,0,.39.1c.66-1,0-2.55-.81-3.27a.27.27,0,0,0-.32,0s-.07,0-.08.07Z"/><path class="cls-10" d="M131.77,55.58a3.64,3.64,0,0,0,1.45-.41c.54-.18,1.11-.27,1.65-.44.3-.09.26-.59-.08-.56a6.8,6.8,0,0,0-1.82.48,2.42,2.42,0,0,0-1.31.74c-.06.09,0,.18.11.19Z"/><path class="cls-10" d="M134.7,54.52a4,4,0,0,0-1.42-1.16,7,7,0,0,0-1.89-.92.41.41,0,0,0-.4.68,6.8,6.8,0,0,0,1.81,1.05,3.94,3.94,0,0,0,1.79.55.13.13,0,0,0,.11-.2Z"/><path class="cls-10" d="M131.65,53.46c-.26.63,0,1.65.86,1.55a.75.75,0,0,0,.64-.55c.08-.38-.2-.57-.51-.73a.4.4,0,0,0-.4.69,2.43,2.43,0,0,0,1.16.42l-.12-.9c-.39.08-.67.09-.84.48a.29.29,0,0,0,.08.28c.25.29.54.19.88.14a.46.46,0,0,0,0-.91,1.83,1.83,0,0,1-.76-.2l-.09.73.12,0-.27,0,.07,0,0-.28c0,.28-.21.06-.29-.09a3,3,0,0,1-.17-.6.17.17,0,0,0-.33,0Z"/><path class="cls-10" d="M103.92,46.6c.46.52,1,1,1.53,1.48s1,1,1.54,1.46a.23.23,0,0,0,.33-.32c-.45-.56-.93-1.07-1.42-1.6s-.91-1.1-1.43-1.58a.39.39,0,0,0-.55.56Z"/><path class="cls-10" d="M107,49.24a5.77,5.77,0,0,0-1.79,1.95c-.35.57-1,1.61-.71,2.29a.16.16,0,0,0,.27.07c.49-.47.56-1.35.9-1.95a9.59,9.59,0,0,1,1.64-2c.21-.2-.06-.57-.31-.41Z"/><path class="cls-10" d="M104.38,47.37a6,6,0,0,0,.57,1.24c.24.48.46,1,.67,1.47.13.34.69.2.55-.15s-.39-1-.61-1.45a4.37,4.37,0,0,0-.8-1.33.23.23,0,0,0-.38.22Z"/><path class="cls-10" d="M105.36,48.39a3,3,0,0,0,.81,1.29c.31.34.77-.15.49-.5a2.81,2.81,0,0,0-1.14-.94c-.09,0-.18.07-.16.15Z"/><path class="cls-10" d="M105.12,48.15a14,14,0,0,0,1,1.19.47.47,0,0,0,.51.21.47.47,0,0,0,.2-.12.48.48,0,0,0,0-.64,2.31,2.31,0,0,0-1.54-.93.2.2,0,0,0-.17.29Z"/><path class="cls-10" d="M106,49.14a1.85,1.85,0,0,0-.15.92c.06.26.39.2.47,0a1.92,1.92,0,0,0,0-.92c0-.15-.26-.13-.3,0Z"/><path class="cls-10" d="M101.66,51.75s0,0,0,0Z"/><path class="cls-10" d="M101.56,51.82a3.3,3.3,0,0,0,1.93-.19,18.83,18.83,0,0,0,2.33-.8c.38-.16.21-.8-.18-.63a21.24,21.24,0,0,1-2.32.81,4.32,4.32,0,0,0-1.81.61c-.07.06,0,.17,0,.2Z"/><path class="cls-10" d="M101.68,52.05a9.21,9.21,0,0,0,1.34.65c.45.22.86.51,1.31.73.26.14.56-.2.32-.42a5.3,5.3,0,0,0-2.86-1.38c-.23,0-.28.3-.11.42Z"/><path class="cls-10" d="M104,53a4.58,4.58,0,0,0,1.37-1.5c.21-.32-.29-.73-.55-.42a4.81,4.81,0,0,0-1,1.76c0,.12.1.23.2.16Z"/><path class="cls-10" d="M103.5,52.52a5.41,5.41,0,0,0,1.3-.82c.23-.28.11-.83-.33-.8a1.49,1.49,0,0,0-1.23,1.47.18.18,0,0,0,.26.15Z"/><path class="cls-10" d="M102.42,52.14c.58.35,1.87.54,2.25-.17a.44.44,0,0,0-.16-.6c-.37-.24-.67-.09-1.05,0a4.55,4.55,0,0,0-1,.35.24.24,0,0,0,0,.41Z"/><path class="cls-3" d="M130,49.6a2.93,2.93,0,0,0,1.44-1.11.12.12,0,0,0-.13-.17,3,3,0,0,0-1.44,1.12.11.11,0,0,0,.13.16Z"/><path class="cls-3" d="M105.3,48a2.81,2.81,0,0,0,.75,1.29c.11.09.32,0,.26-.16a2.74,2.74,0,0,0-.92-1.18s-.11,0-.09,0Z"/><path class="cls-3" d="M103.06,52.26a1.46,1.46,0,0,0,.85.08.23.23,0,0,0,0-.44,1.39,1.39,0,0,0-.85.09.14.14,0,0,0,0,.27Z"/><path class="cls-3" d="M132.12,55.14a2,2,0,0,0,1.29-.25.24.24,0,0,0-.12-.45,2,2,0,0,0-1.23.45.15.15,0,0,0,.06.25Z"/><path class="cls-3" d="M106.9,85.5a1.88,1.88,0,0,0,.71.31c.19,0,.33-.22.14-.33a1.78,1.78,0,0,0-.78-.24c-.15,0-.17.19-.07.26Z"/><path class="cls-3" d="M106.1,89.28a1.68,1.68,0,0,0,.55,0,.19.19,0,0,0,0-.35.44.44,0,0,0-.68.24.09.09,0,0,0,.08.14Z"/><path class="cls-3" d="M134.47,89.35a6.38,6.38,0,0,0,2.41-.7c.19-.1,0-.35-.14-.33a6.41,6.41,0,0,0-2.33.81c-.09.06-.06.23.06.22Z"/><path class="cls-3" d="M135.05,93.24a2.41,2.41,0,0,0,1.19-.6.11.11,0,0,0-.1-.18,2.5,2.5,0,0,0-1.13.69.05.05,0,0,0,0,.09Z"/><path class="cls-3" d="M110.31,86.4a9,9,0,0,0,1.07-.45c.33-.12.68-.19,1-.34s.07-.32-.09-.32a2.8,2.8,0,0,0-2.11.95c-.06.08,0,.18.13.16Z"/><path class="cls-3" d="M126.75,89.8a6.21,6.21,0,0,1,2-1.47.16.16,0,0,0-.08-.3,2.58,2.58,0,0,0-2.11,1.65.11.11,0,0,0,.19.12Z"/><path class="cls-3" d="M107.66,51c.54-.46,1.24-.7,1.77-1.16a.21.21,0,0,0-.14-.35,3.15,3.15,0,0,0-1.88,1.26.18.18,0,0,0,.25.25Z"/><path class="cls-3" d="M122.61,51.32a6.93,6.93,0,0,0,.72-.26c.24-.08.51-.09.76-.19a.19.19,0,0,0,0-.36,1.29,1.29,0,0,0-1.59.7c0,.07,0,.13.11.11Z"/><path class="cls-11" d="M106.34,52.69c-1,1-.46,3.18.56,3.94.12.09.29-.09.21-.21a4.22,4.22,0,0,1-.83-1.84,7.06,7.06,0,0,1,.19-1.84c0-.07-.08-.1-.13-.05Z"/><path class="cls-11" d="M129.91,53.3a6.31,6.31,0,0,1,.1,2.56,8.52,8.52,0,0,1-1.14,2.07c-.06.09,0,.2.15.15,1.45-.79,2-3.55,1.29-4.95-.13-.23-.43-.06-.4.17Z"/><path class="cls-11" d="M127.89,61c.08.25.2.49.29.74a1,1,0,0,0,.25.51.15.15,0,0,0,.24,0c.28-.47-.15-1.14-.55-1.4a.16.16,0,0,0-.23.18Z"/><path class="cls-11" d="M114.64,60.52a8,8,0,0,0,.57,1.22c.17.32.33.65.71.73a.16.16,0,0,0,.2-.11c.13-.38-.09-.67-.28-1a8.4,8.4,0,0,0-.79-1.09.25.25,0,0,0-.41.24Z"/><path class="cls-11" d="M116.19,54.62a3,3,0,0,1-.84,1.69.18.18,0,0,0,.22.28,2,2,0,0,0,.88-2,.13.13,0,0,0-.26,0Z"/><path class="cls-11" d="M109.09,87.42c-1.5,1.26-.83,4.77,1.21,5.13a.16.16,0,0,0,.16-.27c-.62-.71-1.32-1.12-1.54-2.12a4.37,4.37,0,0,1,.5-2.55c.07-.2-.19-.3-.33-.19Z"/><path class="cls-11" d="M115.23,96.3c-.1.34.15.67.25,1s.08.71.4.86a.18.18,0,0,0,.21,0c.51-.4-.16-1.86-.74-1.92a.13.13,0,0,0-.12.1Z"/><path class="cls-11" d="M117.26,91.91a2.5,2.5,0,0,0,1-2.55c0-.08-.12,0-.12,0a4.65,4.65,0,0,1-.9,2.49s0,.07.06,0Z"/><path class="cls-11" d="M125.54,91.59a1.75,1.75,0,0,0,.73,2.67c.08,0,.16-.09.09-.15a2.1,2.1,0,0,1-.74-2.49c0-.05-.05-.07-.08,0Z"/><path class="cls-11" d="M133,90.35a12.49,12.49,0,0,1,.16,1.94,4.76,4.76,0,0,1-.85,2.17c-.06.08.06.16.13.1,1.09-1,1.74-3.06.78-4.3a.13.13,0,0,0-.22.09Z"/><path class="cls-11" d="M124.59,97.1a1.31,1.31,0,0,0-.92,1.34c0,.17.26.28.36.09s.18-.44.31-.64.31-.35.43-.55a.16.16,0,0,0-.18-.24Z"/><path class="cls-11" d="M130.07,98.12a4.69,4.69,0,0,1,.34.8.19.19,0,0,0,.37,0,1.06,1.06,0,0,0-.3-1.12c-.19-.22-.58.07-.41.32Z"/><path class="cls-6" d="M139.91,80.1c-.1.15-.22.29-.28.37l-.14.16-.15.17a.74.74,0,0,1-.43.1.22.22,0,0,0-.14,0c-.08.1-.15.22-.23.33s-.23.32-.34.48a1.32,1.32,0,0,1-.72.5.18.18,0,0,0-.11.1c-.06.12-.11.24-.17.35a1.79,1.79,0,0,1-.61.67,1.84,1.84,0,0,1-.42.09h-.11l0,.08a2.29,2.29,0,0,1-.16.23l-.2.28a.17.17,0,0,1-.22.05l-.05,0c0-.06,0-.13.1-.19l.24-.34a.15.15,0,0,0,0-.18.18.18,0,0,0,0-.08c-.1-.14-.25-.19-.37-.29a1.66,1.66,0,0,1-.46-.59.9.9,0,0,1-.1-.5c0-.13,0-.25.08-.33a.4.4,0,0,1,.21-.1,1,1,0,0,1,.67.25,1.53,1.53,0,0,1,.3.35,1,1,0,0,1,.18.66,1.64,1.64,0,0,0,0,.23c0,.15,0,.18,0,.18s.21,0,.27,0c.29-.13.33-.34.58-.7a.53.53,0,0,0,0-.18.22.22,0,0,0-.06-.13,4.32,4.32,0,0,1-.5-.45,1.63,1.63,0,0,1-.47-1.06.75.75,0,0,1,.08-.35c0-.11.17-.13.3-.11a1.21,1.21,0,0,1,.9.62,1.09,1.09,0,0,1,.16.67,2.55,2.55,0,0,0,0,.39s0,.07,0,.08.08,0,.09,0c.2,0,.58-.68.7-.82s.05-.08.1-.18,0-.22-.15-.3a1.56,1.56,0,0,1-.63-.69,1.76,1.76,0,0,1-.19-.72.63.63,0,0,1,.08-.34c.05-.09.16-.09.21-.1a.91.91,0,0,1,.6.19,1.48,1.48,0,0,1,.65,1.25s0,.13,0,.36c0,.06,0,.07.06,0a.49.49,0,0,0,.18-.08c.12-.14.24-.29.35-.44l.13-.17Zm-4,2.88a.82.82,0,0,0-.07-.68,1.08,1.08,0,0,0-.5-.49c-.12-.07-.23,0-.24.08a1,1,0,0,0,.05.44,1.74,1.74,0,0,0,.13.2,3.28,3.28,0,0,0,.36.34l.19.13S135.92,83,135.94,83Zm1.31-1.24a1.19,1.19,0,0,0-.08-.77,1.13,1.13,0,0,0-.43-.49c-.21-.13-.31-.06-.33.14a.8.8,0,0,0,.09.44,2,2,0,0,0,.45.57l.2.14C137.23,81.83,137.25,81.75,137.25,81.74Zm1.54-1.47a.54.54,0,0,0,0-.19,1.29,1.29,0,0,0-.49-.88,1,1,0,0,0-.19-.11c-.18-.08-.31,0-.33.13a1.36,1.36,0,0,0,.31.84,1.52,1.52,0,0,0,.4.36.24.24,0,0,0,.14,0C138.74,80.44,138.76,80.36,138.79,80.27Z"/><path class="cls-6" d="M144.15,75.92a.17.17,0,0,1,0,.2c-.1.16-.22.3-.28.38l-.14.16a1,1,0,0,1-.16.16.71.71,0,0,1-.42.11.17.17,0,0,0-.14,0c-.08.1-.15.22-.23.33l-.35.48a1.29,1.29,0,0,1-.71.5.23.23,0,0,0-.12.1c-.06.11-.1.24-.16.35a1.88,1.88,0,0,1-.61.67,1.61,1.61,0,0,1-.43.08h-.1l0,.09a2.3,2.3,0,0,1-.15.23c-.06.09-.13.18-.21.28l-.16-.18.24-.34a.19.19,0,0,0,0-.18s0,0,0-.08-.26-.19-.37-.29a1.78,1.78,0,0,1-.47-.59.81.81,0,0,1-.09-.5c0-.13,0-.25.08-.33a.34.34,0,0,1,.2-.1,1,1,0,0,1,.68.25,1.72,1.72,0,0,1,.29.34,1.12,1.12,0,0,1,.19.66,2,2,0,0,0,0,.24c0,.15,0,.17,0,.18s.21,0,.27,0c.29-.14.32-.34.57-.7a.5.5,0,0,0,0-.19.25.25,0,0,0-.07-.12c-.16-.15-.35-.28-.5-.45a1.67,1.67,0,0,1-.46-1.07.82.82,0,0,1,.08-.35c.05-.1.16-.12.29-.1a1.21,1.21,0,0,1,.91.62,1.09,1.09,0,0,1,.16.67,1.73,1.73,0,0,0,0,.39.1.1,0,0,0,0,.08s.07,0,.09,0c.2-.06.58-.68.7-.82l.1-.18c.05-.1,0-.22-.16-.3A1.68,1.68,0,0,1,142,76a1.91,1.91,0,0,1-.18-.72.69.69,0,0,1,.08-.35c0-.09.16-.08.21-.09a1,1,0,0,1,.6.18,1.55,1.55,0,0,1,.65,1.26s0,.13,0,.35,0,.08.07.06a.35.35,0,0,0,.17-.09,3.73,3.73,0,0,0,.36-.43l.12-.18A.11.11,0,0,1,144.15,75.92Zm-4,3.09a.85.85,0,0,0-.08-.69,1.08,1.08,0,0,0-.49-.48c-.13-.07-.23,0-.25.08a1,1,0,0,0,.05.43.85.85,0,0,0,.14.21c.09.12.12.11.36.33a.94.94,0,0,0,.19.14S140.18,79.05,140.2,79Zm1.31-1.24a1.24,1.24,0,0,0-.09-.77,1.16,1.16,0,0,0-.42-.5c-.21-.12-.32,0-.34.15a.8.8,0,0,0,.1.44,2,2,0,0,0,.44.56l.2.15C141.49,77.86,141.51,77.78,141.51,77.77Zm1.54-1.47a1,1,0,0,0,0-.19,1.32,1.32,0,0,0-.5-.89l-.18-.1c-.18-.09-.31-.05-.33.13a1.39,1.39,0,0,0,.31.84,1.35,1.35,0,0,0,.4.35.18.18,0,0,0,.14,0C143,76.46,143,76.39,143.05,76.3Z"/><path class="cls-6" d="M113.38,42.3c0,.1.07.2.09.25l0,.11c0,.08,0,.11,0,.12s-.08.15-.2.23a.1.1,0,0,0,0,.07c0,.08.08.14.11.21s.1.2.16.3a.44.44,0,0,1,0,.48.06.06,0,0,0,0,.08l.19.16a.61.61,0,0,1,.21.44,1.36,1.36,0,0,1-.16.26l0,.06,0,0,.12.11.13.15s0,.07-.06.14l-.07,0a.07.07,0,0,1-.1-.07l-.16-.18a.14.14,0,0,0-.14,0l-.08,0a1.83,1.83,0,0,0-.42.21,2.65,2.65,0,0,1-.71.22.91.91,0,0,1-.47,0c-.1,0-.21-.06-.24-.13a.2.2,0,0,1,0-.16,1.15,1.15,0,0,1,.56-.4,2,2,0,0,1,.44-.12,1.49,1.49,0,0,1,.63,0l.18,0a.37.37,0,0,0,.17,0c.08,0,.1-.13.11-.17s-.1-.23-.25-.44t-.12-.06a.35.35,0,0,0-.14,0c-.21.06-.42.14-.64.19a2.06,2.06,0,0,1-1.13,0,.46.46,0,0,1-.23-.17c-.06-.06,0-.15.08-.22a1.61,1.61,0,0,1,1-.33,1.38,1.38,0,0,1,.62.11,1.77,1.77,0,0,0,.33.08h.08a.08.08,0,0,0,.06,0c.07-.11-.18-.47-.21-.57l-.08-.1c0-.06-.17-.07-.33,0a2.6,2.6,0,0,1-.92.09,1.94,1.94,0,0,1-.68-.19.49.49,0,0,1-.21-.19c0-.07,0-.13.07-.15a1,1,0,0,1,.54-.24,2.34,2.34,0,0,1,1.37.2l.24.13s.07,0,.09,0,0-.07,0-.1a1.57,1.57,0,0,0-.08-.31l-.05-.12Zm-.14,2.79a1,1,0,0,0-.6-.06,1.63,1.63,0,0,0-.65.23c-.13.07-.16.15-.06.18a1,1,0,0,0,.39.05,1.2,1.2,0,0,0,.24-.06c.14,0,.15-.06.46-.18l.2-.11S113.27,45.11,113.24,45.09Zm-.29-1a1.59,1.59,0,0,0-.66-.16,1.8,1.8,0,0,0-.64.1c-.23.09-.23.18-.08.26a1,1,0,0,0,.41.07,3.4,3.4,0,0,0,.7-.12l.24-.08C113,44.12,113,44.09,113,44.08Zm-.19-1.23a.58.58,0,0,0-.12-.08,2,2,0,0,0-1-.11.8.8,0,0,0-.2.05c-.18.06-.24.14-.12.23a1.71,1.71,0,0,0,.84.16,2.26,2.26,0,0,0,.53-.07.2.2,0,0,0,.12-.06S112.81,42.9,112.76,42.85Z"/><path class="cls-6" d="M113.87,39.11a.19.19,0,0,1,.13.13,1.72,1.72,0,0,1,0,.26l0,.11c0,.07,0,.11,0,.12a.43.43,0,0,1-.28.12s-.07,0-.07,0,0,.16,0,.24l0,.33a.44.44,0,0,1-.22.43.09.09,0,0,0,0,.09c0,.07.08.14.11.21a.6.6,0,0,1,0,.49,1.06,1.06,0,0,1-.24.18l-.07.05,0,0a.47.47,0,0,1,.06.15l.06.18h-.25l-.07-.23S113,42,113,42h-.09a2.27,2.27,0,0,0-.46,0,3.08,3.08,0,0,1-.75-.07.83.83,0,0,1-.42-.21c-.08-.07-.17-.13-.17-.21a.17.17,0,0,1,.07-.14,1.13,1.13,0,0,1,.67-.15,2.52,2.52,0,0,1,.45.06,1.6,1.6,0,0,1,.58.25l.15.12a.3.3,0,0,0,.15.06.18.18,0,0,0,.17-.11c.11-.15,0-.25-.07-.51a.25.25,0,0,0-.08-.1.4.4,0,0,0-.13,0c-.22,0-.45,0-.67-.07a2,2,0,0,1-1-.44.48.48,0,0,1-.16-.24c0-.09,0-.14.16-.17a1.58,1.58,0,0,1,1.08.09,1.47,1.47,0,0,1,.54.33,1.4,1.4,0,0,0,.26.21l.08,0a.1.1,0,0,0,.07,0c.12-.08,0-.5,0-.61l0-.12c0-.07-.14-.13-.3-.15a2.32,2.32,0,0,1-.89-.28,1.76,1.76,0,0,1-.55-.43.4.4,0,0,1-.11-.26c0-.07.08-.1.11-.12a1,1,0,0,1,.59,0,2.37,2.37,0,0,1,1.19.71l.17.22s.06,0,.08,0,.08,0,.09-.07,0-.21,0-.32v-.12A.07.07,0,0,1,113.87,39.11Zm-1.07,2.64a.92.92,0,0,0-.53-.29,1.48,1.48,0,0,0-.69,0c-.14,0-.21.07-.12.14a.84.84,0,0,0,.33.2l.25,0c.14,0,.16,0,.49,0h.22S112.81,41.78,112.8,41.75Zm.12-1a1.76,1.76,0,0,0-.55-.4,1.93,1.93,0,0,0-.63-.16c-.24,0-.29.08-.18.21a1,1,0,0,0,.36.22,2.7,2.7,0,0,0,.7.16l.24,0C113,40.76,112.92,40.71,112.92,40.7Zm.3-1.2a.55.55,0,0,0-.08-.13,2,2,0,0,0-.87-.48.78.78,0,0,0-.21,0c-.19,0-.27,0-.19.17a1.59,1.59,0,0,0,.7.48,2.47,2.47,0,0,0,.52.13h.13S113.24,39.56,113.22,39.5Z"/><path class="cls-6" d="M42.78,36.35a2,2,0,0,1,.09-.8,2.14,2.14,0,0,1,.49-.63s0-.08,0-.07a1.2,1.2,0,0,0-.59,1.51,0,0,0,0,0,0,0Z"/><path class="cls-6" d="M42.22,35.81C53.33,23.14,67.63,13.23,84.08,9a65.19,65.19,0,0,1,48.56,6.18A64.19,64.19,0,0,1,152.6,33c.13.17.43,0,.3-.18A64.62,64.62,0,0,0,114.8,8c-17.16-3.74-35.38.11-50.38,9A90.5,90.5,0,0,0,42.13,35.72c-.05.06,0,.15.09.09Z"/><path class="cls-6" d="M152.92,33.32a366.9,366.9,0,0,0-109.76,2.4c-.19,0-.11.31.08.28a410.27,410.27,0,0,1,109.68-2.57c.07,0,.07-.1,0-.11Z"/><path class="cls-6" d="M90.31,7.43A13.24,13.24,0,0,0,106.09,7c.09-.07,0-.2-.13-.13a13.23,13.23,0,0,1-15.58.5c-.07,0-.13.06-.07.11Z"/><path class="cls-6" d="M92.27,9A45.35,45.35,0,0,0,75.8,31.39c0,.14.17.19.22.06A47.94,47.94,0,0,1,92.37,9.16c.11-.08,0-.25-.1-.17Z"/><path class="cls-6" d="M103.68,8.49c11,4.29,19.95,12,25,22.8.09.19.37,0,.28-.16-4.93-10.5-14.11-19.21-25.23-22.8-.1,0-.14.12,0,.16Z"/><path class="cls-6" d="M86.71,11c-.47,0-.88.7-.21.79a.89.89,0,0,0,1-1,.08.08,0,0,0-.1-.06c-.31.07-.62.13-.93.22-.06,0,0,.13,0,.12.23,0,.85-.29.84,0,0,.17-.27.38-.4.44l-.19.07q-.63.11,0-.51c.08,0,.08-.13,0-.12Z"/><path class="cls-6" d="M84.49,13.51c-.29.15-.41.74,0,.84.56.14.87-.71.76-1.1a.08.08,0,0,0-.09-.06c-.31.08-.62.15-.92.26-.07,0,0,.12,0,.11s.68-.22.81-.11,0,.27,0,.39a.37.37,0,0,1-.16.21c-.18.2-.29,0-.32-.43.07,0,0-.14-.06-.11Z"/><path class="cls-6" d="M82.27,17.16a.37.37,0,0,0,0,.64s0,0,.07,0a1.08,1.08,0,0,0,.49-1.34.11.11,0,0,0-.08-.07,1.06,1.06,0,0,0-1,.81.06.06,0,0,0,.11,0c.12-.2.54-.86.82-.62.1.08,0,.46,0,.55l-.1.21c-.13.26-.21.22-.26-.1.07-.05,0-.17-.07-.12Z"/><path class="cls-6" d="M78.71,21.18a.62.62,0,1,0,.94-.68s-.09,0-.12,0q-.37.39-.72.81c0,.05,0,.1.06.06s.49-.59.65-.62.26.25.21.39c-.19.57-.76.28-.88,0a.08.08,0,0,0-.14.06Z"/><path class="cls-6" d="M76.24,25.45a.66.66,0,1,0,.94-.92.07.07,0,0,0-.07,0,.83.83,0,0,0-.7.79c0,.05.07.06.09,0a1,1,0,0,1,.23-.42c.12-.2.23-.2.34,0,.47.42-.34.84-.75.5,0-.05-.14,0-.08.08Z"/><path class="cls-6" d="M74.82,29.08l.51.62a.11.11,0,0,0,.08,0,.47.47,0,0,0,.27-.76.45.45,0,0,0-.75.24c0,.06.07.11.11.05l.15-.2c.18.39.2.5.06.31a2.3,2.3,0,0,1-.33-.37c-.06-.07-.15,0-.1.09Z"/><path class="cls-6" d="M103.34,9.85a.73.73,0,0,0,.42.74c.18.09.64.17.78-.07s-.57-.62-.69-.19a.07.07,0,0,0,.12.06c.15-.19.28-.16.38.07a.5.5,0,0,1-.43,0,.59.59,0,0,1-.43-.63c0-.09-.15-.09-.15,0Z"/><path class="cls-6" d="M106,11.09a.69.69,0,0,0,1.06.41.07.07,0,0,0,0-.12c-.23-.06-.47-.13-.71-.17a.06.06,0,0,0,0,.11l.35.1c.21,0,.24,0,.08.08s-.6-.17-.65-.43a0,0,0,0,0-.08,0Z"/><path class="cls-6" d="M109.46,13c-.07.62,1.07,1.08,1.29.44s-1.13-.67-1.11,0c0,0,.06.07.08,0a.58.58,0,0,1,.52-.35c.25,0,.47.28.12.38a.59.59,0,0,1-.77-.54c0-.08-.12-.08-.13,0Z"/><path class="cls-6" d="M112.85,14.89c-.47.52.28,1.26.74.68s-.65-.88-1-.4c0,.08.08.18.14.11a.41.41,0,0,1,.39-.21c.4.12.35.09-.16-.08.06-.07,0-.17-.1-.1Z"/><path class="cls-6" d="M115.92,17.42a.77.77,0,1,0,1.54.13.08.08,0,0,0,0-.06,1.21,1.21,0,0,0-1.37.11c-.07.06,0,.18.09.13a1.29,1.29,0,0,1,.47-.23l.25,0c.24-.05.33,0,.26.26s0,.28-.13.32a.47.47,0,0,1-.5.1.76.76,0,0,1-.46-.74c0-.08-.1-.07-.11,0Z"/><path class="cls-6" d="M118.89,21.28c-.38,1,1.17,1.13,1.16.49s-1.16-.46-1.28.08a.08.08,0,0,0,.16,0,.51.51,0,0,1,.62-.35c.25.06.36.14.16.33s-.27.21-.45,0c-.31-.06-.4-.24-.27-.53,0-.06-.08-.09-.1,0Z"/><path class="cls-6" d="M121.64,24.83a.75.75,0,0,0,1.13.47.09.09,0,0,0,0-.09c-.12-.58-1.18-.52-1.12.09,0,.08.14.11.16,0s.45-.54.66-.28-.15.23-.28.21a.62.62,0,0,1-.46-.45.07.07,0,0,0-.13,0Z"/><path class="cls-6" d="M123.62,28.81c.25.34.51.67.77,1a.1.1,0,0,0,.09,0,.82.82,0,0,0,0-1.49.1.1,0,0,0-.09,0,4.19,4.19,0,0,0-.49.54c0,.07,0,.13.11.08s.38-.49.62-.33.19.48.12.65c-.16.4-.37.18-.55,0l-.45-.54a.08.08,0,0,0-.12.09Z"/><path class="cls-6" d="M83.77,30.93c.39,7.11.68,14.17.48,21.29a.13.13,0,0,0,.13.14c1.19.06,2.38.12,3.57.13.13,0,.12-.19,0-.2-.62,0-2.12.16-2.68-.16-1.08-.62-.69-1.82-.67-2.81q.06-3.15,0-6.3c-.07-4-.24-8.08-.67-12.09,0-.1-.17-.11-.16,0Z"/><path class="cls-6" d="M88.26,52.25c1.17-7,2.49-13.85,3.9-20.75a.13.13,0,0,0-.24-.07,183.63,183.63,0,0,0-3.74,20.81s.07,0,.08,0Z"/><path class="cls-6" d="M105.59,30.43A96.93,96.93,0,0,0,91.65,49.35c-.09.15.12.26.22.13,2.31-3.16,4.33-6.53,6.65-9.69s4.78-6.18,7.17-9.28c0-.06,0-.14-.1-.08Z"/><path class="cls-6" d="M94,49.56a11.57,11.57,0,0,1-.72,1.88c-.19.4-.46,1.22-.81,1.45s-.33-.19-.46-.52-.15-.46-.21-.69a5.4,5.4,0,0,1-.09-2.08.12.12,0,1,0-.23,0,5.67,5.67,0,0,0,.77,3.73.1.1,0,0,0,.17,0,12,12,0,0,0,1.68-3.72.05.05,0,0,0-.1,0Z"/><path class="cls-6" d="M94.22,49.22c6.48-6,13-12,19.26-18.25.14-.13-.07-.34-.21-.21-6.51,6-12.85,12.17-19.15,18.36-.07.07,0,.16.1.1Z"/><path class="cls-6" d="M69.45,32.75A114.62,114.62,0,0,1,81.11,49.2a.18.18,0,0,0,.31-.18A60.68,60.68,0,0,0,69.6,32.6c-.1-.1-.24,0-.15.15Z"/><path class="cls-6" d="M63.51,33.3A157.21,157.21,0,0,1,77.22,49.43c.15.21.5,0,.35-.2a88.92,88.92,0,0,0-14-16,.07.07,0,0,0-.1.1Z"/><path class="cls-6" d="M77.34,49.1c.42,1.32.91,2.63,1.41,3.94,0,.14.29.08.23-.07-.48-1.31-1-2.63-1.53-3.92,0-.06-.13,0-.11.05Z"/><path class="cls-6" d="M78.93,53c.75-1.38,1.57-2.73,2.24-4.15.06-.12-.12-.23-.19-.11-.8,1.35-1.45,2.79-2.17,4.19a.07.07,0,0,0,.12.07Z"/><path class="cls-6" d="M81.08,49.9A26.32,26.32,0,0,0,84,49.75c.23,0,.23-.38,0-.36a27,27,0,0,0-3,.34c-.1,0-.07.17,0,.17Z"/><path class="cls-6" d="M88.68,50a17.18,17.18,0,0,0,3.21-.08c.14,0,.09-.2,0-.22a17,17,0,0,0-3.18.13.09.09,0,0,0,0,.17Z"/><path class="cls-6" d="M79.1,53.24a68.23,68.23,0,0,0-3.92,28,.16.16,0,0,0,.32,0,94.82,94.82,0,0,1,3.72-27.92c0-.08-.1-.11-.12,0Z"/><path class="cls-6" d="M92.43,53.27c-2.91,8.45-3.91,17.8-3.91,26.7a.21.21,0,0,0,.41,0c0-9.14,1.55-17.81,3.59-26.67a0,0,0,1,0-.09,0Z"/><path class="cls-6" d="M74.64,80.72a31.7,31.7,0,0,0,16.29-.57.18.18,0,0,0-.1-.35,44.39,44.39,0,0,1-16.16.72.1.1,0,0,0,0,.2Z"/><path class="cls-6" d="M73.81,81.2a13.25,13.25,0,0,0,1.57,7.64.11.11,0,0,0,.2-.09c-.35-1.17-.85-2.26-1.11-3.46a22.43,22.43,0,0,1-.42-4.09.12.12,0,1,0-.24,0Z"/><path class="cls-6" d="M90.59,80.48A25.08,25.08,0,0,1,90.43,89c0,.15.19.21.22.06a19.15,19.15,0,0,0,.11-8.62c0-.11-.18-.06-.17,0Z"/><path class="cls-6" d="M75.74,88.42c4.61,2.8,10.91,2.42,15.72.4.22-.09.12-.45-.1-.36-5.36,2.22-10.22,1.6-15.57-.14-.07,0-.1.07-.05.1Z"/><path class="cls-6" d="M75.45,88.55v-.24s0,0,0,0v.24s0,0,0,0Z"/><path class="cls-6" d="M75.24,88.31a103.56,103.56,0,0,0,2.63,18.21c.06.24.41.14.37-.1-1.18-6-2-12-2.72-18.11,0-.17-.29-.18-.28,0Z"/><path class="cls-6" d="M89.26,89.26A30.9,30.9,0,0,0,90.56,106c.08.24.46.14.38-.1a36.78,36.78,0,0,1-1.54-16.6c0-.08-.12-.1-.14,0Z"/><path class="cls-6" d="M76.8,106a16.06,16.06,0,0,0,1.76,7.39.12.12,0,0,0,.21-.09A36.06,36.06,0,0,1,76.9,106c0-.07-.1-.07-.1,0Z"/><path class="cls-6" d="M91.28,105q.8,2.59,1.67,5.16c.06.18.34.1.28-.08q-.84-2.58-1.76-5.13c0-.12-.23-.07-.19.05Z"/><path class="cls-6" d="M90.84,105.08a13,13,0,0,1-14.17.35c-.24-.15-.47.24-.23.39a12.62,12.62,0,0,0,14.51-.6c.08-.06,0-.2-.11-.14Z"/><path class="cls-6" d="M78.91,112.71C83.5,115,90,114.16,93.75,110.56c.1-.09,0-.27-.15-.19-4.69,3.08-9.22,3.9-14.63,2.19-.08,0-.14.11-.06.15Z"/><path class="cls-6" d="M78.55,112.09a48.68,48.68,0,0,0,4.54,15.8c.1.22.42,0,.32-.18a57.77,57.77,0,0,1-4.74-15.63c0-.07-.13,0-.12,0Z"/><path class="cls-6" d="M82.32,126.87A21.16,21.16,0,0,0,93.9,122.7c.13-.1,0-.29-.16-.21a31.75,31.75,0,0,1-11.44,4.22c-.09,0-.07.17,0,.16Z"/><path class="cls-6" d="M94.31,122.4a50.27,50.27,0,0,1-2.23-12c0-.22-.37-.22-.35,0a38.59,38.59,0,0,0,2.43,12.07c0,.09.18.06.15,0Z"/><path class="cls-6" d="M111.54,51a2.48,2.48,0,0,0-3,2.78,3.47,3.47,0,0,0,3.87,2.84,3.05,3.05,0,0,0,2.86-3.39c-.3-1.92-2.38-2.39-4-2.32-.31,0-.31.5,0,.48,1.13,0,2.57.08,3.26,1.12,1,1.45-.21,3.16-1.69,3.57a3.18,3.18,0,0,1-3.5-1.35,2.23,2.23,0,0,1,2.19-3.41c.19,0,.21-.26.05-.32Z"/><path class="cls-6" d="M111.68,52.67c-.35-.53-1.2,0-1.36.45a1.06,1.06,0,0,0,1,1.38,1.12,1.12,0,0,0,1-1.3,1.06,1.06,0,0,0-1.51-.73.18.18,0,0,0,.09.33,1,1,0,0,1,.84.25.64.64,0,0,1-.33,1,.6.6,0,0,1-.59-1c.23-.25.49-.17.77-.26a.1.1,0,0,0,.06-.15Z"/><path class="cls-6" d="M126.16,51.52A3.06,3.06,0,0,0,123,53.77a2.64,2.64,0,0,0,2.07,3,2.82,2.82,0,0,0,3-2,3,3,0,0,0-1.95-3.39c-.29-.11-.42.36-.13.47a2.5,2.5,0,0,1,1.61,2.79,2.26,2.26,0,0,1-2.91,1.57,2.14,2.14,0,0,1-1.15-2.71c.5-1.13,1.6-1.29,2.62-1.69a.11.11,0,0,0,0-.22Z"/><path class="cls-6" d="M125.49,53c-.31-.53-1,0-1.07.47a1.08,1.08,0,0,0,1.25,1.12,1.11,1.11,0,0,0,.89-1.42,1.14,1.14,0,0,0-1.6-.65c-.27.12,0,.51.23.4.8-.36,1.38.84.57,1.19a.67.67,0,0,1-.87-.33c-.22-.51.19-.62.55-.67,0,0,.07-.07,0-.11Z"/><path class="cls-6" d="M111.75,58.14c-1.83.7-2.44,3.52-.59,4.62a.09.09,0,0,0,.11-.14,2.84,2.84,0,0,1-1-2.33,2.74,2.74,0,0,1,1.49-2.07s0-.1,0-.08Z"/><path class="cls-6" d="M115.54,59a8.52,8.52,0,0,1,1.58,3.86c0,.16.28.16.26,0a7.15,7.15,0,0,0-1.7-4c-.06-.08-.19,0-.14.1Z"/><path class="cls-6" d="M106.91,58.84a6.73,6.73,0,0,0-.28,4.36c0,.08.18.08.17,0a9.74,9.74,0,0,1,.28-4.29c0-.11-.13-.15-.17,0Z"/><path class="cls-6" d="M107.73,49.54A18.13,18.13,0,0,0,103.34,45c-.17-.14-.42,0-.3.23.84,1.59,1.66,3.2,2.49,4.79.1.2.4,0,.3-.17-.82-1.6-1.65-3.2-2.46-4.81l-.3.23c1.65,1.33,3,2.88,4.56,4.33a.06.06,0,0,0,.1-.08Z"/><path class="cls-6" d="M105.09,50.51a24.53,24.53,0,0,0-4.31,1,.11.11,0,1,0,.06.22,25.51,25.51,0,0,0,4.29-1.11c.08,0,0-.13,0-.12Z"/><path class="cls-6" d="M100.78,51.71c.61.3,1.23.56,1.83.88s1.14.77,1.75,1.06c.1.05.22-.08.13-.17a8.92,8.92,0,0,0-3.65-1.92.08.08,0,0,0-.06.15Z"/><path class="cls-6" d="M123,49.91a6,6,0,0,0-1.27,9.48.16.16,0,0,0,.22-.22A5.84,5.84,0,0,1,123.12,50a.08.08,0,0,0-.08-.13Z"/><path class="cls-6" d="M126.9,60c3.25.11,5.24-3.31,4.36-6.23-1.12-3.72-5.32-5-8.76-3.91a.13.13,0,0,0,.07.25c3-.71,6.37-.22,8,2.69a4.7,4.7,0,0,1-3.67,7.09c-.06,0-.07.11,0,.11Z"/><path class="cls-6" d="M128.31,50.09c1.92-1.54,3.66-3.24,5.7-4.66.14-.1,0-.35-.15-.24A26.32,26.32,0,0,0,128.22,50c-.05.06,0,.13.09.08Z"/><path class="cls-6" d="M133.66,45.57a26.6,26.6,0,0,0-3.1,6.69.08.08,0,0,0,.14.06c1.07-2.21,2-4.48,3.08-6.68a.07.07,0,0,0-.12-.07Z"/><path class="cls-6" d="M130.81,52.32c.88.46,1.8.87,2.67,1.34s1.7,1.1,2.6,1.49c.12.05.26-.09.15-.19a14.77,14.77,0,0,0-5.33-2.85.12.12,0,0,0-.09.21Z"/><path class="cls-6" d="M131.22,56c1.62-.36,3.22-.82,4.81-1.27a.15.15,0,0,0-.08-.29c-1.6.44-3.2.87-4.77,1.41a.08.08,0,0,0,0,.15Z"/><path class="cls-6" d="M121.16,58.41a5.7,5.7,0,0,0-1.33,4.4c0,.18.3.18.28,0a6.34,6.34,0,0,1,1.16-4.32c0-.06-.06-.15-.11-.08Z"/><path class="cls-6" d="M123.64,58.7A3.06,3.06,0,0,1,124.7,63c-.08.14.14.27.22.13a3.08,3.08,0,0,0-1.22-4.53c-.08,0-.11.09-.06.13Z"/><path class="cls-6" d="M128.36,59.86a15.29,15.29,0,0,0,1.4,3,.11.11,0,0,0,.21-.09,15.47,15.47,0,0,0-1.41-3c-.06-.1-.24,0-.2.08Z"/><path class="cls-6" d="M99,63.8a.78.78,0,0,1,1.28,0,.12.12,0,0,0,.22,0c.52-.24.91-.19,1.17.16a.13.13,0,0,0,.19,0c.34-.41.34-.52.73-.13.14.15.38-.1.23-.23s-.33-.27-.49-.41a.13.13,0,0,0-.2,0l-.48.62.21,0c-.43-.44-1.36-.94-1.59,0l.22,0a1,1,0,0,0-1.65.07.09.09,0,0,0,.16.09Z"/><path class="cls-6" d="M103,64a1.1,1.1,0,0,1,1.64-.12.12.12,0,0,0,.16-.17,1.23,1.23,0,0,0-1.92.22c0,.07.07.13.12.07Z"/><path class="cls-6" d="M104.89,63.72a1.91,1.91,0,0,1,.7-.28,2.14,2.14,0,0,1,.68.33c.13.07.25-.14.12-.2s-.57-.38-.8-.37-.57.3-.76.41,0,.15.06.11Z"/><path class="cls-6" d="M106.21,63.8a30.61,30.61,0,0,0,6.9,0c.7-.12.67-.32,1.58-.29.39,0,.82.16,1.24.19a54.7,54.7,0,0,0,6-.15c1.35-.08,2.77.16,4.1,0,.36-.05.81-.32,1.16-.29.7.08.93.44,1.73.32.25,0,.35-.42.63-.44.13,0,.73.37,1,.4a1.87,1.87,0,0,0,.58-.12c1.16-.16,2.31-.08,3.46-.22.74-.1,1.37-.22,1.4-1a.15.15,0,0,0-.3,0c0,.8-5.55,1.33-6.07.42a.16.16,0,0,0-.27,0l-1.91.07a.16.16,0,0,0-.25,0c-1.24,1.56-5.43.39-7.15.64-.59.08-4.84.47-5.62-.31a.11.11,0,0,0-.14,0c-2.09,1.27-5.66.66-8,.78a.1.1,0,0,0,0,.19Z"/><path class="cls-6" d="M98.86,63.68c-.4.55-.75,1.13-1.11,1.71a.07.07,0,0,0,.06.11c.39,0,.79-.08,1.18-.16a.06.06,0,0,0,0-.11c-.39,0-.78.08-1.17.12l.06.11c.36-.58.74-1.14,1.06-1.74a0,0,0,0,0-.07,0Z"/><path class="cls-6" d="M99,65.51c0,.46-.1.92-.14,1.38,0,.06.06.08.1.06l.72-.35a.07.07,0,0,0-.07-.12,2.84,2.84,0,0,1-.43.21c-.19.06-.12.1-.17-.09a4.47,4.47,0,0,1,.1-1.09c0-.07-.1-.07-.11,0Z"/><path class="cls-6" d="M99.65,67a2,2,0,0,1,.36,1s0,.08.09,0l.48-.34c.06,0,0-.14-.06-.1s-.31.28-.4.23a1.3,1.3,0,0,1,0-.26,1.84,1.84,0,0,0-.32-.66c0-.07-.15,0-.11.06Z"/><path class="cls-6" d="M100.37,68.2l-.11,1a.09.09,0,0,0,.12.07,6.28,6.28,0,0,0,.83-.39s0-.11,0-.09a7.12,7.12,0,0,0-.87.34l.12.07.1-1c0-.1-.14-.1-.15,0Z"/><path class="cls-6" d="M101,69.15c-.08.13-.16.26-.25.39a.08.08,0,0,0,0,.11,1.78,1.78,0,0,0,1.39.19l-.07-.16a.65.65,0,0,0-.23.92c.29.51,1,.44,1.5.3.09,0,.08-.18,0-.17a3.94,3.94,0,0,1-.77,0,.76.76,0,0,1-.49-.22c-.15-.17-.29-.59.09-.72.11,0,.06-.18,0-.17a1.92,1.92,0,0,1-.86,0c-.33-.11-.29-.19-.12-.45.05-.08-.09-.16-.14-.07Z"/><path class="cls-6" d="M103.77,71.21a2.29,2.29,0,0,0-.37-.12s-.05,0,0,.06l.38.08s0,0,0,0Z"/><path class="cls-6" d="M103.57,71.09l-.24-.24a.07.07,0,0,0-.11.06c.29.78,1.08,1.79,2,1.87,0,0,.06-.07,0-.09a10.15,10.15,0,0,1-1.12-.72,3.51,3.51,0,0,1-.75-1.11l-.1.08.24.24s.14,0,.09-.09Z"/><path class="cls-6" d="M104.54,72.29a2.88,2.88,0,0,0,2.77,1.25c.12,0,.13-.22,0-.2a2.85,2.85,0,0,1-2.66-1.11c-.05-.06-.16,0-.11.06Z"/><path class="cls-6" d="M107.22,73.69a3.75,3.75,0,0,0,2.94.87.12.12,0,0,0,0-.24,4,4,0,0,1-2.76-.78c-.1-.08-.25.06-.15.15Z"/><path class="cls-6" d="M110.36,74.72a4.13,4.13,0,0,0,4.35-.21.07.07,0,0,0-.06-.12,5.76,5.76,0,0,1-4.24.21c-.07,0-.12.09,0,.12Z"/><path class="cls-6" d="M114.38,74.64a4.13,4.13,0,0,0,4.76-.37c.07-.07,0-.18-.11-.14a5,5,0,0,1-4.58.36c-.09,0-.14.1-.07.15Z"/><path class="cls-6" d="M118.91,74.54a5,5,0,0,0,5.94-1.18.07.07,0,0,0-.11-.1A5.44,5.44,0,0,1,119,74.39c-.09,0-.14.11-.06.15Z"/><path class="cls-6" d="M124.83,73.64c1.62.08,3.64-1,3.86-2.74a.07.07,0,0,0-.13,0,4.78,4.78,0,0,1-1.43,1.92,3.64,3.64,0,0,1-2.3.7c-.1,0-.1.15,0,.16Z"/><path class="cls-6" d="M128.51,71.52A4.34,4.34,0,0,0,133,69.37c0-.07-.06-.17-.12-.09a5.14,5.14,0,0,1-4.39,2.11c-.08,0-.1.12,0,.13Z"/><path class="cls-6" d="M132.56,69.31a.83.83,0,0,0,1-1,.11.11,0,0,0-.21,0,.67.67,0,0,1-.74.82c-.1,0-.14.13-.05.15Z"/><path class="cls-6" d="M133.48,68.05c.21-.11.42-.24.63-.36a.13.13,0,0,0,0-.21c-.37-.16.4-.69.48-.81a.49.49,0,0,0,.08-.41l-.15.15c.21,0,.41.06.62.07s.14-.17,0-.2a5.72,5.72,0,0,0-.57-.11c-.1,0-.17,0-.15.15.05.3-1.21,1-.45,1.37v-.21l-.6.43c-.08.06,0,.2.09.14Z"/><path class="cls-6" d="M135.27,65.54l.73-.1a.1.1,0,0,0,.09-.15,6.55,6.55,0,0,0-.61-.85c-.08-.09-.21,0-.16.12a6.92,6.92,0,0,0,.59.83l.06-.15-.73.17c-.09,0-.05.14,0,.13Z"/><path class="cls-6" d="M135.52,64.08a.58.58,0,0,0,.25-1l0,.16c.43-.18.4-1.05-.13-1a.09.09,0,0,0,0,.17c.22.14.42.48.07.65a.1.1,0,0,0,0,.15.4.4,0,0,1-.15.67.08.08,0,1,0,0,.15Z"/><path class="cls-6" d="M98.67,63.23c-.3-.4-.31-.62,0-.66a.09.09,0,0,0,0-.18.56.56,0,0,0-.72.57.61.61,0,0,0,.8.49c.14,0,.08-.25-.06-.22Z"/><path class="cls-6" d="M99,61.71v-.4a.4.4,0,0,1,.53,0,.13.13,0,0,0,.19-.08,1.58,1.58,0,0,0,0-.38L99.6,61l.72,0a.11.11,0,0,0,0-.21H99.6a.12.12,0,0,0-.12.09,2.35,2.35,0,0,0,0,.37l.17-.13a1.1,1.1,0,0,0-.76-.06.11.11,0,0,0-.08.1c0,.2,0,.4,0,.6s.21.13.22,0Z"/><path class="cls-6" d="M102.24,60.72c.17-.44.36-.56.58-.38s.21-.05.15-.14c-.43-.63-1.26,0-1,.65.07.14.29,0,.22-.13Z"/><path class="cls-6" d="M104,59.5c-.06-.21,0-.28.24-.2a.13.13,0,0,0,.22-.09c0-.56.57-.58,1-.43.08,0,.16-.08.11-.14-.42-.58-1.3,0-1.31.57l.18-.1a.61.61,0,0,0-.52-.12.13.13,0,0,0-.08.11v.4c0,.14.21.14.22,0Z"/><path class="cls-6" d="M118.14,56.85l.33-.14c0,.16.3.13.29,0a.52.52,0,0,0-.78-.45.5.5,0,0,0,0,.83c.12.09.23-.1.15-.2Z"/><path class="cls-6" d="M119.28,57l.22-.22-.19,0a2.11,2.11,0,0,0,.31.36.1.1,0,0,0,.16-.12,2.14,2.14,0,0,0-.28-.39.11.11,0,0,0-.17,0l-.22.22a.12.12,0,0,0,.17.17Z"/><path class="cls-6" d="M131,59.56a2.93,2.93,0,0,1,1.22-.58l-.12-.09a1.33,1.33,0,0,1-.18.78c-.07.14.14.26.21.12a1.47,1.47,0,0,0,.16-.9c0-.06,0-.11-.12-.09a3,3,0,0,0-1.29.64c-.08.07,0,.19.12.12Z"/><path class="cls-6" d="M133.08,60.4l.63-.34-.15-.12c0,.22-.07.44-.1.66s.12.15.19.11l.39-.24-.16-.08a1.93,1.93,0,0,1,0,.34.06.06,0,0,0,.12,0,3.38,3.38,0,0,1,.08-.34c0-.09-.07-.15-.15-.11l-.41.2.19.1c0-.21,0-.42,0-.63s-.09-.12-.16-.09l-.62.35c-.11.06,0,.23.1.17Z"/><path class="cls-6" d="M134.49,61.59a.57.57,0,0,1,.88.47c0,.07.12.1.13,0a.72.72,0,0,0-1.11-.66c-.1.07,0,.24.1.17Z"/><path class="cls-6" d="M116.48,60.28a.57.57,0,0,0,.84-.24,0,0,0,0,0-.07-.06.69.69,0,0,1-.7.13c-.1,0-.17.12-.07.17Z"/><path class="cls-6" d="M102.74,62.3a1.26,1.26,0,0,0,.38.1c.06,0,.1-.07,0-.1a1.34,1.34,0,0,0-.37-.16c-.11,0-.15.13-.05.16Z"/><path class="cls-6" d="M103.92,61.54c.3-.21.58-.42.86-.65,0,0,0-.08,0-.06-.3.19-.58.39-.87.6-.07,0,0,.15.06.11Z"/><path class="cls-6" d="M117.76,59.1a3.79,3.79,0,0,1,1.8-.17c.07,0,.11-.1,0-.12a3.44,3.44,0,0,0-1.88.12c-.11,0-.06.21.05.17Z"/><path class="cls-6" d="M131.33,61.38a23.25,23.25,0,0,0,2.47.57s0-.06,0-.08a20.43,20.43,0,0,0-2.45-.62.07.07,0,0,0,0,.13Z"/><path class="cls-6" d="M102.69,66.17c.13.29.29.57.45.85,0,.09.21.11.25,0a13.62,13.62,0,0,0,.74-1.6.13.13,0,0,0-.24-.1,13,13,0,0,0-.75,1.55h.25a7.9,7.9,0,0,0-.53-.8.1.1,0,1,0-.17.1Z"/><path class="cls-6" d="M108.36,65.44l.68.84a.12.12,0,0,0,.18,0l.4-.65h-.21l.51.69a.14.14,0,0,0,.19,0,.63.63,0,0,1,.67,0c.12.08.27-.11.16-.21a.74.74,0,0,0-1-.06l.17,0-.54-.67a.13.13,0,0,0-.19,0l-.39.65.18,0c-.24-.27-.48-.53-.73-.79-.07-.08-.17,0-.11.11Z"/><path class="cls-6" d="M113.48,65.56c.13.23.26.46.38.7a.12.12,0,0,0,.2,0l.37-.64h-.23l.42.57a.14.14,0,0,0,.25,0c.14-.2.28-.4.41-.61s-.12-.3-.22-.17a7.23,7.23,0,0,0-.44.64h.25c-.15-.2-.3-.4-.46-.59s-.17,0-.21,0l-.34.66h.2c-.14-.23-.28-.45-.41-.68a.1.1,0,0,0-.17.1Z"/><path class="cls-6" d="M118.07,68.44a1.51,1.51,0,0,1,.85.57.16.16,0,0,0,.29,0,2.12,2.12,0,0,0,.33-1,.1.1,0,0,0-.16-.07,2.33,2.33,0,0,0-.48,1l.27-.07a1.6,1.6,0,0,0-1-.61.12.12,0,0,0-.06.23Z"/><path class="cls-6" d="M123.92,67.53l1,1c.08.08.18,0,.22-.06a12.7,12.7,0,0,0,.53-1.33c0-.16-.2-.27-.27-.11a12.48,12.48,0,0,0-.52,1.37l.23-.06-1.11-.94c-.09-.07-.21,0-.13.13Z"/><path class="cls-6" d="M129.58,68a5.45,5.45,0,0,1,0-.7l-.26.07c.22.3.45.58.69.87a.17.17,0,0,0,.27,0l.35-.74-.28,0c.36.39,1.23.22,1.14-.4,0-.13-.2-.12-.26,0s-.38.44-.63.17a.18.18,0,0,0-.28,0L130,68l.27,0c-.23-.27-.47-.53-.71-.79a.15.15,0,0,0-.24.14,3.89,3.89,0,0,1,.13.68c0,.09.17.07.16,0Z"/><path class="cls-6" d="M125.66,70.72a6.1,6.1,0,0,1,.57.29v-.15c-.31.14-.27,0-.46.25a.11.11,0,0,0,.1.18c.28-.07.18-.07.45-.28a.09.09,0,0,0,0-.16c-.19-.07-.38-.17-.57-.26s-.15.09-.07.13Z"/><path class="cls-6" d="M132.59,65.47a8,8,0,0,0,.64.51l.07-.29c-.21,0-.43,0-.65,0s-.11.26,0,.27.41,0,.61,0a.15.15,0,0,0,.11-.26,7.75,7.75,0,0,0-.62-.52c-.15-.11-.33.13-.2.25Z"/><path class="cls-6" d="M102.53,68.21l-.43.44a.18.18,0,0,0,.17.29,4.37,4.37,0,0,0,.94-.26.13.13,0,0,0-.07-.23,3.57,3.57,0,0,0-1,.16l.17.28.42-.45c.15-.15-.09-.39-.24-.23Z"/><path class="cls-6" d="M100.13,65.68a1.66,1.66,0,0,0-.26.27.17.17,0,0,0,.12.28,1.15,1.15,0,0,0,.49,0c.08,0,.12-.16,0-.2a1.25,1.25,0,0,0-.51-.09l.15.25a2.36,2.36,0,0,0,.2-.31.13.13,0,0,0-.21-.16Z"/><path class="cls-6" d="M107.67,71.76a.6.6,0,0,0,.33.58.14.14,0,0,0,.15,0,5.72,5.72,0,0,0,.37-.49c.07-.1-.08-.22-.16-.13s-.46.61-.44.06c0-.16-.24-.16-.25,0Z"/><path class="cls-6" d="M104.51,68.83a.39.39,0,0,0,.76.2l-.17.08a7.35,7.35,0,0,0,.71.2c.12,0,.23-.16.09-.23a4.44,4.44,0,0,0-.72-.27.14.14,0,0,0-.17.07l-.2,0c0-.2-.28-.19-.3,0Z"/><path class="cls-6" d="M110.74,69.32a0,0,0,0,0,0,0s0,0,0,0Z"/><path class="cls-6" d="M115.61,70.08a5.84,5.84,0,0,0,.6.15l-.1-.24-.23.33a.18.18,0,0,0,.06.23,2.55,2.55,0,0,0,.66.33.12.12,0,0,0,.12-.2,2.49,2.49,0,0,0-.6-.42l.06.23.21-.34a.16.16,0,0,0-.14-.23,4.3,4.3,0,0,0-.61,0,.11.11,0,0,0,0,.21Z"/><path class="cls-6" d="M117.56,72.22l.51.29a.12.12,0,0,0,.17-.07c.05-.13.09-.26.13-.39l-.19.08a2,2,0,0,0,.9.2.08.08,0,0,0,0-.15,2.1,2.1,0,0,0-.88-.3.17.17,0,0,0-.13.1l-.09.39.14-.08-.54-.22c-.09,0-.14.11-.06.15Z"/><path class="cls-6" d="M123.26,70.68c0,.11.07.23.11.34a.16.16,0,0,0,.14.11,2.36,2.36,0,0,0,.75-.06.11.11,0,0,0,0-.22,2.68,2.68,0,0,0-.75,0l.15.11-.14-.33c-.06-.16-.31-.1-.26.07Z"/><path class="cls-6" d="M120.4,69.94a5.56,5.56,0,0,0,1.27,1s.1,0,.07-.08a5.38,5.38,0,0,0-1.25-1c-.07-.06-.16.06-.09.12Z"/><path class="cls-6" d="M126.33,71.18l.28.23c0,.08.17.08.16,0a.4.4,0,0,0-.44-.39c-.12,0-.11.17,0,.18Z"/><path class="cls-6" d="M113.17,85.77a2.82,2.82,0,1,0,1.57,5.39,2.85,2.85,0,0,0,1.46-3.63,2.66,2.66,0,0,0-3.85-1.08.12.12,0,0,0,.12.21,2.58,2.58,0,0,1,3.31.82,2.49,2.49,0,0,1-1.38,3.45,2.58,2.58,0,0,1-3.06-1.59A2.73,2.73,0,0,1,113.23,86a.1.1,0,1,0-.06-.2Z"/><path class="cls-6" d="M129.53,88.61a2.36,2.36,0,0,0-2.12,2.9,2.46,2.46,0,0,0,3.18,1.54,2.49,2.49,0,0,0,1.16-3.4,2.4,2.4,0,0,0-3.53-.65c-.1.1,0,.25.15.19a2.32,2.32,0,0,1,2.94.5,2,2,0,1,1-3.47,2,2.15,2.15,0,0,1,1.72-2.86c.11,0,.08-.2,0-.19Z"/><path class="cls-6" d="M128.87,86.92c-2.91,1.26-7.12,7.14-3,9.47a.19.19,0,0,0,.19-.33c-3.9-2.34.46-7.63,2.94-8.93.14-.07,0-.27-.13-.21Z"/><path class="cls-6" d="M131.1,96.81a5,5,0,0,0,3.32-5.93,5.11,5.11,0,0,0-6.32-3.62.22.22,0,0,0,.12.42,4.72,4.72,0,0,1,5.91,3.83A4.94,4.94,0,0,1,131,96.65c-.09,0,0,.19.06.16Z"/><path class="cls-6" d="M110.6,94.23c-4.85-2.25-2.86-8.87,2.13-9.26a5.4,5.4,0,0,1,5.79,3.93c.77,3-1.46,5.47-4.34,5.84-.09,0-.1.15,0,.15,6.47-.11,5.78-9.51-.16-10.33a6,6,0,0,0-6.53,3.92,4.78,4.78,0,0,0,3,6,.16.16,0,0,0,.12-.29Z"/><path class="cls-6" d="M110.16,94.14a6.89,6.89,0,0,0-.65,3.85c0,.18.28.18.27,0a10.64,10.64,0,0,1,.11-2c.1-.6.32-1.16.44-1.75a.09.09,0,0,0-.17-.07Z"/><path class="cls-6" d="M113.2,93.78a3.25,3.25,0,0,0,1,4.84.13.13,0,0,0,.12-.22,3.25,3.25,0,0,1-1-4.54c0-.09-.08-.16-.14-.08Z"/><path class="cls-6" d="M115.32,94.6A22,22,0,0,1,117.45,99a.16.16,0,0,0,.31-.09,11.13,11.13,0,0,0-2.28-4.44.1.1,0,0,0-.16.11Z"/><path class="cls-6" d="M126.32,95.38a2,2,0,0,1,.36,3.62.14.14,0,0,0,.14.24,2.18,2.18,0,0,0-.45-4,.1.1,0,0,0-.05.19Z"/><path class="cls-6" d="M124.5,95.44a5.53,5.53,0,0,0-2.08,3.66.1.1,0,0,0,.2,0,9.16,9.16,0,0,1,.7-2,7.48,7.48,0,0,1,1.29-1.62c.08-.07,0-.17-.11-.11Z"/><path class="cls-6" d="M131.22,97.33a19.08,19.08,0,0,0,1,1.85c.11.18.37,0,.28-.17a17.85,17.85,0,0,0-1-1.82.14.14,0,0,0-.24.14Z"/><path class="cls-6" d="M133.55,89c2.22-.78,4.39-1.52,6.66-2.09a.15.15,0,0,0-.08-.29,28.42,28.42,0,0,0-6.66,2.19c-.1,0,0,.23.08.19Z"/><path class="cls-6" d="M139.84,86.88c-1.79,1.43-3.58,2.87-5.34,4.34-.17.14.07.37.24.24q2.65-2.17,5.27-4.4c.13-.11,0-.28-.17-.18Z"/><path class="cls-6" d="M134.82,91.25c.6.34,1.21.65,1.82,1a8.86,8.86,0,0,0,1.66.76c.13,0,.27-.15.15-.25a10.19,10.19,0,0,0-1.73-.91c-.59-.28-1.18-.56-1.79-.81-.15-.06-.24.18-.11.26Z"/><path class="cls-6" d="M133.85,94.62c1.5-.42,3-1,4.42-1.55.22-.08.12-.43-.1-.35-1.47.55-3,1-4.41,1.7-.11.06,0,.23.09.2Z"/><path class="cls-6" d="M110.17,85.92c-.8-.41-1.62-.75-2.41-1.18s-1.49-1-2.29-1.41a.16.16,0,0,0-.19.26,7.2,7.2,0,0,0,2.26,1.54,9.79,9.79,0,0,0,2.56,1c.1,0,.18-.13.07-.18Z"/><path class="cls-6" d="M104.77,83.46a19.75,19.75,0,0,0,3.28,4.23c.15.15.39-.08.24-.23A36.55,36.55,0,0,1,105,83.35a.11.11,0,0,0-.18.11Z"/><path class="cls-6" d="M107.76,87.63c-1.16.58-2.34,1.12-3.5,1.72-.22.11,0,.44.19.33,1.15-.6,2.27-1.26,3.41-1.89.11-.06,0-.22-.1-.16Z"/><path class="cls-6" d="M104.61,89.53a22.13,22.13,0,0,1,2.56.6l.08-.27L107,89.8c-.11,0-.19.14-.08.19l.25.13c.16.08.3-.16.14-.25a5.56,5.56,0,0,0-2.67-.5c-.11,0-.1.15,0,.16Z"/><path class="cls-6" d="M112.5,87.57a1,1,0,0,0-.29,1.51,1.08,1.08,0,0,0,1.63-.14,1.12,1.12,0,0,0-.6-1.63,1.1,1.1,0,0,0-1.39,1.13c0,.11.18.09.21,0,.15-.47.52-1,1.09-.81a.74.74,0,1,1-.73,1.24.81.81,0,0,1,.17-1.15c.09-.07,0-.21-.09-.15Z"/><path class="cls-6" d="M129.69,89.66A.88.88,0,0,0,129.4,91a.94.94,0,0,0,1.45,0,.94.94,0,1,0-1.69-.58.12.12,0,0,0,.24,0,.77.77,0,0,1,.87-.64.67.67,0,0,1,.32,1.06.64.64,0,0,1-1,0,.77.77,0,0,1,.19-1c0-.06,0-.17-.08-.14Z"/><path class="cls-6" d="M134.48,47.07a36.91,36.91,0,0,0,5.85-7.77c0-.07-.06-.13-.11-.07A62,62,0,0,1,134.36,47c-.07.08,0,.2.12.12Z"/><path class="cls-6" d="M137,47.43a68.13,68.13,0,0,1,7.1-3,.06.06,0,0,0,0-.11,26.43,26.43,0,0,0-7.17,3c-.11.06,0,.23.1.17Z"/><path class="cls-6" d="M138.1,51c3.07-.9,6.17-1.76,9.18-2.84.11,0,.07-.2,0-.17-3.1.8-6.15,1.84-9.19,2.83a.09.09,0,1,0,0,.18Z"/><path class="cls-6" d="M139.55,53.38a86.9,86.9,0,0,0,8.83.47c.1,0,.14-.18,0-.2a86.85,86.85,0,0,0-8.85-.52c-.16,0-.16.24,0,.25Z"/><path class="cls-6" d="M140.22,48.43c.93-.45,1.89-.88,2.8-1.38.06,0,0-.15-.05-.12-1,.4-1.91.88-2.86,1.32-.12.06,0,.24.11.18Z"/><path class="cls-6" d="M102.42,48.32a35.45,35.45,0,0,0-3.2-3.4c-.07-.06-.2,0-.14.1a37.25,37.25,0,0,0,3.18,3.46.11.11,0,1,0,.16-.16Z"/><path class="cls-6" d="M100.22,49.24a31.71,31.71,0,0,0-4.43-1.42c-.1,0-.18.13-.07.18a32,32,0,0,0,4.44,1.46.11.11,0,0,0,.06-.22Z"/><path class="cls-6" d="M97.87,51c-1.53-.09-3.63-.14-5,.64a.11.11,0,0,0,.06.2c.82,0,1.62-.32,2.44-.42a16,16,0,0,1,2.5-.07c.23,0,.23-.34,0-.35Z"/><path class="cls-6" d="M141,87.9c1.39-.66,2.74-1.42,4.1-2.15a24.55,24.55,0,0,0,3.52-2c.09-.06,0-.21-.1-.18a25.42,25.42,0,0,0-3.63,1.87c-1.35.74-2.71,1.45-4,2.27a.13.13,0,0,0,.13.22Z"/><path class="cls-6" d="M142.42,89.69a57.07,57.07,0,0,1,8-1.89c.14,0,.11-.24,0-.24a29.12,29.12,0,0,0-8,1.83c-.19.07-.11.37.09.3Z"/><path class="cls-6" d="M141.73,92a54,54,0,0,0,8,.92c.17,0,.21-.26,0-.29a53.66,53.66,0,0,0-8-.79c-.08,0-.11.14,0,.16Z"/><path class="cls-6" d="M103.48,83.58a40,40,0,0,0-7.58-2.76c-.13,0-.23.16-.09.23a39.61,39.61,0,0,0,7.58,2.73c.12,0,.21-.15.09-.2Z"/><path class="cls-6" d="M102.32,85.61c-2.48-.65-4.95-1.42-7.46-1.93a.16.16,0,0,0-.08.3c2.44.76,5,1.26,7.47,1.89.17,0,.24-.22.07-.26Z"/><path class="cls-6" d="M101.82,88.69a51.71,51.71,0,0,0-7.63-.89c-.13,0-.17.22,0,.25a54.22,54.22,0,0,0,7.64.8c.09,0,.11-.15,0-.16Z"/><path class="cls-6" d="M101.41,97.46a21.65,21.65,0,0,1,4.06.9,15.31,15.31,0,0,0,1.58.77c.27.07,1.18-.43,1.33-.1.07.18.35,0,.26-.15-.17-.36-.11-.21-.49-.37-.1,0-.25.08-.36.08a1.06,1.06,0,0,1-1.17-.06,2.1,2.1,0,0,0-.42-.22,27.71,27.71,0,0,0-4.76-1c-.12,0-.14.19,0,.2Z"/><path class="cls-6" d="M109.77,98.68l.77.32a.19.19,0,0,0,.27.11c.7-.42,1,.1,1.91.11a14.17,14.17,0,0,1,2.68.2,9.46,9.46,0,0,0,2.55.06.16.16,0,0,0,0-.32c-1.2,0-2.3-.24-3.48-.39-.54-.07-2.57.38-2.81-.33a.19.19,0,0,0-.28-.11c-.73.45-1-.46-1.74.17-.1.08,0,.25.13.18Z"/><path class="cls-6" d="M120.19,99.67c.72-.14,1.91-.6,2.44.12.05.06.18,0,.14-.06-.38-.94-2-.37-2.62-.22-.11,0-.06.18,0,.16Z"/><path class="cls-6" d="M123.38,100.13a4.61,4.61,0,0,0,.69-.4c.05,0,.12-.22.17-.22.21,0,.56.53.65.65a.13.13,0,0,0,.21-.06l1-.13a.17.17,0,0,0,.27.08l.67-.68-.26,0a1,1,0,0,0,1.89-.22.13.13,0,0,0-.23-.09l-1.37.14a.17.17,0,0,0-.27,0s-.42.5-.5.5-.13-.19-.2-.2c-.25-.05-.28-.19-.57-.16s-.28.17-.5.28c-.06,0-.12.25-.15.25s-.49-.57-.56-.64a.11.11,0,0,0-.17,0,1.27,1.27,0,0,1-.83.81c-.08,0,0,.17,0,.14Z"/><path class="cls-6" d="M131.32,99.52c.4,1.41,2.07-.08,2.82-.2,2-.33,4.05.4,5.9-.66l-.28-.28a3.24,3.24,0,0,0-.11,1.92c0,.06.25.57.31.4s-1,.51-.85.42a.21.21,0,0,0,0,.32c.17.32.05.47-.38.46-.11,0-.19.2-.08.29,1.15.94.53.71-.06,1.38s-.7,1.36-1.26,2a16.45,16.45,0,0,1-2.19,1.81c-.13.09,0,.3.12.21a11.45,11.45,0,0,0,2.32-1.78c.55-.58,1.22-2.46,2.12-2.35.14,0,.2-.16.15-.26-.3-.64-1-.94-.12-1.18a.21.21,0,0,0,.09-.34l.61-.54a.2.2,0,0,0,.14-.34l-.41-2.2a.21.21,0,0,0-.28-.28c-1.58.87-3.42.55-5.15.66a4.64,4.64,0,0,0-1.43.22c-.34.15-1.4,1.24-1.75.29,0-.11-.23-.07-.19,0Z"/><path class="cls-6" d="M135.1,107.09c-1.27,2.64-4,2.81-6.52,3.31-.13,0-.1.25,0,.24,2.57-.1,5.59-.89,6.65-3.48,0-.09-.12-.16-.16-.07Z"/><path class="cls-6" d="M128.59,110c-1.61,1.77-3.78,1.86-5.89,1.08-.18-.06-.28.21-.13.3,2,1.2,4.67.37,6.13-1.26.07-.08,0-.19-.11-.12Z"/><path class="cls-6" d="M123.23,110.8a8.55,8.55,0,0,1-6.39-.87.14.14,0,0,0-.14.24,7.78,7.78,0,0,0,6.57.77c.09,0,0-.16,0-.14Z"/><path class="cls-6" d="M117.59,109.73a7,7,0,0,1-6.07.38.12.12,0,0,0-.09.23,5.77,5.77,0,0,0,6.27-.48c.07-.06,0-.17-.11-.13Z"/><path class="cls-6" d="M100.39,97.08l-1,1.2a.09.09,0,0,0,.07.15c1.48.09.77,0,.72.88,0,.69,1.26,1.25,1.46,1.7,1,2.13,1.77,4.08,3.93,5.32,0,0,.11,0,.06-.08a11.73,11.73,0,0,1-3.73-5.08c-.27-.71-1.63-2.19-1-2.7,0,0,0-.12-.05-.12-1.28-.11-1-.39-.32-1.16.07-.08,0-.19-.11-.11Z"/><path class="cls-6" d="M105.37,106.39a8.56,8.56,0,0,0,6.24,4.26c.11,0,.13-.16,0-.19a10.06,10.06,0,0,1-6.11-4.16c-.06-.1-.22,0-.16.09Z"/><path class="cls-6" d="M101.37,97.31a1,1,0,0,0-1.07-.2,0,0,0,0,0,0,.09c.36,0,.6,0,.92.23.09.07.21-.05.12-.12Z"/><path class="cls-6" d="M100.56,97.22c.21-.54.5-.66.88-.36a.09.09,0,0,0,.13-.07c0-.56.59-.57,1-.7s.93-.27,1.38-.45a.1.1,0,0,0-.06-.2c-.85.19-1.68.5-2.51.77a.12.12,0,0,0-.09.11,3.85,3.85,0,0,0,.07.49l.12-.09c-.33-.15-.78-.35-1.07,0a.42.42,0,0,0,0,.63.07.07,0,1,0,.1-.1Z"/><path class="cls-6" d="M104.21,95.59l.45-1h-.18a.77.77,0,0,0,1.48-.38l-.25.1a.69.69,0,0,0,1.18-.49l-.21.16a4.5,4.5,0,0,0,.6.17.1.1,0,0,0,.08-.18,2.77,2.77,0,0,0-.59-.31.17.17,0,0,0-.21.16l-.64.28a.16.16,0,0,0-.26.11c0,.64-.35.73-1,.27a.1.1,0,0,0-.18,0c-.15.33-.3.66-.44,1-.06.12.12.22.17.1Z"/><path class="cls-6" d="M107.73,94.13a.87.87,0,0,1,1-.19c.08,0,.15-.08.08-.13a.88.88,0,0,0-1.22.18c-.08.1.06.24.14.14Z"/><path class="cls-6" d="M118.75,92.91c.25-.18.63-.62,1-.63.06,0,.15.16.23.17s.58-.11.71-.08.41.38.73.44a12.56,12.56,0,0,0,2.6,0,.13.13,0,0,0,0-.26c-.65,0-2.8.29-3.19-.46a.12.12,0,0,0-.19,0l-.8,0a.12.12,0,0,0-.18,0l-1,.81c-.06.06,0,.17.09.12Z"/><path class="cls-6" d="M134,95.24a3,3,0,0,0,.36,0c.11,0,2-.47,1.46.32a.17.17,0,0,0,.15.26,1.43,1.43,0,0,1,.71,0c.09.05.16.28.29.36a.64.64,0,0,0,.87-.22l-.27-.12c0,.17,0,.33,0,.49s.07.16.15.15c.7-.07.9-.05,1.24.56.08.13.29,0,.22-.13s-.27-.48-.4-.72a.14.14,0,0,0-.11-.07c-.37,0-.8.2-.79-.28a.17.17,0,0,0-.28-.11l-.61-.18a.17.17,0,0,0-.17-.18l-.86.11.15.26a.66.66,0,0,0-.2-1c-.56-.34-1.38.18-1.92.28a.08.08,0,0,0,0,.16Z"/><path class="cls-6" d="M114.4,97.05l.49.36s.07,0,0-.06l-.49-.37s-.08,0,0,.07Z"/><path class="cls-6" d="M102.58,99.52c-.24.25-.44.53-.66.8-.07.09,0,.25.12.21l.65-.19c.15,0,.09-.29-.07-.24l-.64.19.14.19c.21-.28.43-.55.62-.84a.1.1,0,0,0-.16-.12Z"/><path class="cls-6" d="M102.83,101.14l-.31.45a.08.08,0,0,0,.09.12c.23-.07.45-.14.68-.19s.06-.23-.05-.19-.44.15-.67.22l.09.12.3-.45c.06-.08-.07-.16-.13-.08Z"/><path class="cls-6" d="M136.62,101.49a4.33,4.33,0,0,0,.46.66l.25-.25a.33.33,0,0,0-.48.11.19.19,0,0,0,0,.18.25.25,0,0,0,.39.12.09.09,0,0,0,0-.16l-.08.07c.19.11.35-.14.23-.29s-.35-.41-.54-.6-.29,0-.21.16Z"/><path class="cls-6" d="M136.63,103.27l.05,0c-.05-.13-.28-.12-.27,0,0,.57.84.17.41-.2-.13-.1-.32.07-.19.19Z"/><path class="cls-6" d="M132.69,102.54c0,.8,1.24.39.69-.29a.18.18,0,0,0-.21,0l0,0a.1.1,0,0,0-.05.11c0,.2-.08,0-.07.18,0-.2-.32-.21-.31,0Z"/><path class="cls-6" d="M128.8,103.66l.35.22a.15.15,0,0,0,.23-.12c0-.15,0-.3,0-.45l-.3.08.23.36a.18.18,0,0,0,.28,0,4.42,4.42,0,0,0,.86-.81c.09-.12-.07-.25-.18-.19a4.83,4.83,0,0,0-.93.76l.27,0c-.08-.11-.16-.23-.25-.34s-.31-.1-.3.08v.45l.23-.13-.37-.21c-.16-.1-.29.14-.14.24Z"/><path class="cls-6" d="M124.22,102.15l.35-.44h-.25l.07.39c-.06.24.31.34.37.11a.75.75,0,0,0-.19-.74.18.18,0,0,0-.27,0L124,102c-.11.14.14.33.25.19Z"/><path class="cls-6" d="M115.66,102.33a2.61,2.61,0,0,0,.79-.62l-.27-.11a.89.89,0,0,0,.86,1c.44,0,1-.47.81-.94a.15.15,0,0,0-.27,0c-.1.2-.12.41-.33.54-.42.24-.77-.15-.76-.54a.15.15,0,0,0-.26-.11,2.61,2.61,0,0,0-.63.78.05.05,0,0,0,.06.06Z"/><path class="cls-6" d="M109.45,101.73l.63.51a.14.14,0,0,0,.14,0,.58.58,0,0,0,.32-.6l-.22.13.69.46a.17.17,0,0,0,.24-.1l.27-.68c.08-.2-.25-.29-.33-.09l-.26.68.24-.1-.7-.42c-.12-.08-.23,0-.22.16l-.16.26-.2-.14-.33-.22c-.08-.06-.18.07-.11.13Z"/><path class="cls-6" d="M106.86,103.18a1.18,1.18,0,0,0-.19,1.37.18.18,0,0,0,.23.06,1.3,1.3,0,0,0,.68-.77l-.21.12a5,5,0,0,0,1.19.31.1.1,0,0,0,0-.18,4.39,4.39,0,0,0-1.15-.46.18.18,0,0,0-.22.12,1,1,0,0,1-.51.57l.23.06a1,1,0,0,1,.05-1.08c.06-.09-.08-.21-.15-.12Z"/><path class="cls-6" d="M113.13,105.22c0,.23-.06.47-.1.7a.17.17,0,0,0,.2.2,1.35,1.35,0,0,0,.85-.56l-.23.06a1.35,1.35,0,0,0,.55.3.08.08,0,0,0,.09-.12,1.41,1.41,0,0,0-.47-.47.19.19,0,0,0-.23.06,1,1,0,0,1-.64.41l.2.16,0-.74c0-.16-.23-.15-.25,0Z"/><path class="cls-6" d="M122.27,105.73s0,0,0,0a0,0,0,1,0,0,0Z"/><path class="cls-6" d="M128,108c.17.17.33.34.49.52a.17.17,0,0,0,.27,0,.73.73,0,0,0,0-.79l-.21.28c.13,0,.26.07.4.11s.2-.15.09-.22a3.64,3.64,0,0,0-.35-.24.19.19,0,0,0-.26.26l0,.43.26,0-.51-.51c-.14-.14-.36.08-.22.23Z"/><path class="cls-6" d="M132.26,108.39l.73.2a.18.18,0,0,0,.23-.18c0-.15,0-.31,0-.46a.18.18,0,0,0-.17-.18l-.37,0c-.1,0-.15.16,0,.21.26.12.23.19.23.46l.23-.17-.72-.21a.19.19,0,0,0-.1.36Z"/><path class="cls-6" d="M112,109.6a4,4,0,0,0,.69-.23c.09,0,0-.15-.06-.14a3.79,3.79,0,0,0-.68.19c-.11,0-.07.22,0,.18Z"/><path class="cls-6" d="M108.11,59c-4.21-2.69-3.5-9,1.66-10.06s10.89,6.48,5.47,9.94a.17.17,0,0,0,.18.3c5.65-3.27.35-11.16-5-10.75-5.67.45-7.89,8.17-2.53,10.86a.17.17,0,0,0,.17-.29Z"/><path class="cls-6" d="M122.65,49.68a7.14,7.14,0,0,0-.55.55.06.06,0,0,0,.09.09c.19-.17.37-.36.55-.55a.06.06,0,0,0-.09-.09Z"/><path class="cls-6" d="M122.37,50.05a9.33,9.33,0,0,0-.73.93s0,.08.06,0a9.31,9.31,0,0,0,.74-.92s0-.09-.07-.05Z"/><path class="cls-6" d="M101,61.2c-.26.92-.53,1.84-.73,2.77a0,0,0,1,0,.06,0c.29-.9.51-1.83.75-2.75,0-.06-.07-.08-.08,0Z"/><path class="cls-6" d="M102.56,61.19a21.9,21.9,0,0,0-.69,2.22c0,.05.06.09.09,0a19.32,19.32,0,0,0,.78-2.21c0-.11-.14-.16-.18-.05Z"/><path class="cls-6" d="M103.33,61.18l-.36.74c0,.07.06.13.1.06l.38-.73c0-.08-.08-.15-.12-.07Z"/><path class="cls-6" d="M105.33,59.72c-.37,1.16-.82,2.32-1.09,3.5a.07.07,0,0,0,.13,0c.46-1.13.76-2.34,1.12-3.49a.08.08,0,0,0-.16-.05Z"/><path class="cls-6" d="M105.72,60.65l-.17.92c0,.06.08.09.09,0l.19-.92a.06.06,0,1,0-.11,0Z"/><path class="cls-6" d="M118.18,57.3a47.6,47.6,0,0,0-1.92,4.4c0,.11.14.19.19.08.72-1.41,1.33-2.93,1.91-4.41,0-.1-.13-.18-.18-.07Z"/><path class="cls-6" d="M119.53,57.53c-.48,1.23-1,2.45-1.42,3.7,0,.1.13.17.17.07.55-1.2,1-2.48,1.42-3.72,0-.11-.13-.15-.17,0Z"/><path class="cls-6" d="M119.67,60.27c-.36,1.16-.81,2.32-1.07,3.51,0,.07.08.09.1,0,.47-1.11.77-2.33,1.14-3.48a.09.09,0,0,0-.17,0Z"/><path class="cls-6" d="M131.27,60.07a26.09,26.09,0,0,0-1.28,2.6c0,.07.08.11.12,0,.5-.81.88-1.71,1.3-2.56.05-.1-.1-.19-.14-.09Z"/><path class="cls-6" d="M132.75,60.26a18.56,18.56,0,0,0-1.09,2.41,0,0,0,0,0,.09,0,20.65,20.65,0,0,0,1.12-2.38c0-.08-.08-.14-.12-.07Z"/><path class="cls-6" d="M133.24,61.7a7.91,7.91,0,0,0-.53,1.32.06.06,0,0,0,.11,0,7.27,7.27,0,0,0,.62-1.25c.06-.14-.14-.26-.2-.12Z"/><path class="cls-6" d="M134.77,61.7a9.24,9.24,0,0,0-.72,1,.07.07,0,0,0,.11.09,7.23,7.23,0,0,0,.77-.89c.09-.11-.07-.27-.16-.16Z"/><path class="cls-6" d="M102,95.74a9.24,9.24,0,0,0-.74,1.68.08.08,0,0,0,.14.06,8.62,8.62,0,0,0,.75-1.67c0-.09-.11-.15-.15-.07Z"/><path class="cls-6" d="M104.43,95.2A19,19,0,0,0,103,97.8s0,.09.09,0a18.81,18.81,0,0,0,1.49-2.58.07.07,0,1,0-.12-.07Z"/><path class="cls-6" d="M106,94.8c-.57,1-1.23,2-1.7,3.11a.07.07,0,0,0,.12.07c.65-1,1.15-2.08,1.7-3.11,0-.08-.08-.15-.12-.07Z"/><path class="cls-6" d="M107.25,95.8a0,0,0,0,0,0,0,0,0,0,0,0,0,0Z"/><path class="cls-6" d="M108.51,94.85c-.61,1.34-1.34,2.67-1.84,4.06a.07.07,0,0,0,.13.06c.7-1.29,1.22-2.71,1.82-4.06,0-.07-.07-.14-.11-.06Z"/><path class="cls-6" d="M108.65,96.14c-.36.91-.76,1.83-1,2.78,0,0,.06.07.08,0,.44-.89.77-1.84,1.14-2.76,0-.11-.14-.16-.18,0Z"/><path class="cls-6" d="M119.51,93a16.66,16.66,0,0,0-1.85,5.74c0,.07.11.09.13,0a30.9,30.9,0,0,1,1.88-5.67c0-.1-.11-.2-.16-.09Z"/><path class="cls-6" d="M122,93.34a17.05,17.05,0,0,0-2.34,5.56.06.06,0,0,0,.11,0,31.53,31.53,0,0,1,2.43-5.48c.08-.12-.12-.24-.2-.11Z"/><path class="cls-6" d="M123.05,93.4c-.64,1.76-1.36,3.52-1.89,5.31,0,.11.12.15.17.05.72-1.73,1.29-3.54,1.9-5.31,0-.11-.14-.16-.18,0Z"/><path class="cls-6" d="M120.93,93.71a53.52,53.52,0,0,0-2.56,5.35c0,.07.08.11.12,0a54.36,54.36,0,0,0,2.56-5.33c0-.08-.08-.16-.12-.07Z"/><path class="cls-6" d="M134.2,95.37a30.66,30.66,0,0,0-1.45,3.52c0,.07.07.11.1,0a31.76,31.76,0,0,0,1.5-3.5c0-.09-.11-.15-.15-.07Z"/><path class="cls-6" d="M136,95.54c-.66,1.22-1.43,2.43-2,3.69a.1.1,0,0,0,.17.11c.75-1.18,1.33-2.48,2-3.71a.09.09,0,0,0-.16-.09Z"/><path class="cls-6" d="M136.26,96.49c-.44,1-1,2-1.3,3a.07.07,0,0,0,.13.06,32,32,0,0,0,1.3-2.94c0-.09-.09-.16-.13-.08Z"/><path class="cls-6" d="M137.12,97.57a12.4,12.4,0,0,0-.88,1.49c0,.07.06.15.11.09a12.87,12.87,0,0,0,1-1.47c.08-.12-.12-.24-.2-.11Z"/><path class="cls-6" d="M138.25,97a16.06,16.06,0,0,0-.91,1.68c0,.08.08.11.12.05a14.79,14.79,0,0,0,.94-1.64.09.09,0,1,0-.15-.09Z"/><path class="cls-6" d="M138.14,98.19s0,0,0,0,0,0,0,0Z"/><path class="cls-6" d="M133.14,96.5c-.37.74-.76,1.47-1.08,2.23,0,0,.06.08.08,0,.41-.71.76-1.46,1.12-2.2,0-.08-.08-.15-.12-.07Z"/><path class="cls-6" d="M128.84,100.09l.76-.79-.16,0A1.3,1.3,0,0,0,131,100c.09,0,.09-.19,0-.18a1.31,1.31,0,0,1-1.38-.65.12.12,0,0,0-.17,0l-.76.79a.11.11,0,0,0,.15.15Z"/><path class="cls-6" d="M120.12,106.65c.07.56,1.06,1,1.34.38a.09.09,0,0,0-.12-.12c-.38.18-.91.26-1.07-.28a.08.08,0,0,0-.15,0Z"/><path class="cls-6" d="M124,105.2c.19.65,1-.06.41-.3-.09,0-.16.09-.12.16l0,.07a.13.13,0,0,0-.25.07Z"/><path class="cls-6" d="M60.37,21.52a96.71,96.71,0,0,1,20.24-11s0-.08,0-.07a70.81,70.81,0,0,0-20.27,11s0,.1,0,.07Z"/><path class="cls-6" d="M109.6,8.6c6.17,1.17,12.2,2.77,18.25,4.42a.06.06,0,0,0,0-.11,141,141,0,0,0-18.24-4.46c-.09,0-.14.13,0,.15Z"/><path class="cls-6" d="M51.7,33.46c3.37-.21,6.75-.45,10.12-.76.08,0,.08-.13,0-.13-3.38.21-6.75.5-10.12.8-.06,0-.06.1,0,.09Z"/><path class="cls-6" d="M90.73,29.89A56.51,56.51,0,0,1,108,28.75c.11,0,.11-.15,0-.16A52.34,52.34,0,0,0,90.7,29.8s0,.1,0,.09Z"/><path class="cls-6" d="M109.44,32.52a90.14,90.14,0,0,0-8.8,8.12c0,.06,0,.14.1.09,2.93-2.71,5.8-5.47,8.8-8.11.07-.06,0-.16-.1-.1Z"/><path class="cls-6" d="M89,33.08c-.21,3.53-.61,7-1.1,10.47,0,.11.15.17.18,0a48.16,48.16,0,0,0,1.09-10.51.09.09,0,0,0-.17,0Z"/><path class="cls-6" d="M66.88,35.07a52.25,52.25,0,0,1,7.51,7.36c.06.06.17,0,.12-.09A29.19,29.19,0,0,0,67,35c-.08-.06-.14.07-.07.12Z"/><path class="cls-6" d="M83.33,49.59c-.88-6-2.08-12.05-3.19-18,0-.14-.24-.08-.21.06,1,6,2,12.06,3.22,18,0,.11.19.06.18,0Z"/><path class="cls-6" d="M81.33,33.13c.5,2.26,1,4.57,1.75,6.78,0,0,.07,0,.06,0-.43-2.28-1.06-4.57-1.71-6.79,0-.07-.11,0-.1,0Z"/><path class="cls-6" d="M83.32,43.19c.06.56.12,1.11.19,1.66a0,0,0,1,0,0,0c0-.55-.11-1.1-.18-1.66,0,0,0,0,0,0Z"/><path class="cls-6" d="M89.61,55.84C88,62.46,86.72,69.63,87,76.48a.08.08,0,0,0,.15,0,136.17,136.17,0,0,1,2.61-20.61c0-.07-.09-.1-.11,0Z"/><path class="cls-6" d="M86.76,92.85a37,37,0,0,0,1.69,10.49.07.07,0,0,0,.14,0,75.37,75.37,0,0,1-1.71-10.45.06.06,0,1,0-.12,0Z"/><path class="cls-6" d="M90.2,114.76a65.64,65.64,0,0,0,1.94,6.78.05.05,0,0,0,.1,0,66.93,66.93,0,0,0-1.91-6.78.07.07,0,0,0-.13,0Z"/><path class="cls-6" d="M75.8,82.28h-.36a0,0,0,1,0,0,0h.36a0,0,0,1,0,0-.06Z"/><path class="cls-6" d="M75.52,82a.36.36,0,0,1,.47.19c.15.22.09.33-.19.32-.21.15-.34.11-.39-.14A.38.38,0,0,1,75.5,82c0-.05,0-.12-.09-.09-.44.34.07,1.14.56.9s0-1.15-.48-.95c-.08,0,0,.17,0,.13Z"/><path class="cls-6" d="M78,82c-.39.55.45,1.36.89.77a.69.69,0,0,0,0-.81c-.35-.41-.63,0-.9.33,0,0,0,.12.06.08.21-.15.54-.55.75-.23.08.12.14.4,0,.51l-.58,0a.47.47,0,0,1-.08-.62c0-.07-.07-.13-.12-.06Z"/><path class="cls-6" d="M81.29,82.17c.52-.37,1.09.55.53.72a.51.51,0,0,1-.64-.54.08.08,0,0,0-.15,0c-.2.57.7,1,1.09.6s-.39-1.27-.9-.88c-.07,0,0,.17.07.12Z"/><path class="cls-6" d="M84.74,82c-.75.37.24,1.53.66.68a.57.57,0,0,0-.41-.84.63.63,0,0,0-.68.75,0,0,0,0,0,.09,0,.55.55,0,0,1,.19-.4c.21-.18.7-.22.71.19a.56.56,0,0,1-.2.41c-.53.25-.58-.54-.31-.7a.05.05,0,1,0-.05-.09Z"/><path class="cls-6" d="M87.72,81.74c-.43.22-.21.7.14.86a.78.78,0,0,0,1.07-.52.79.79,0,0,0-.8-.9.77.77,0,0,0-.6,1.12c0,.09.19,0,.16-.07a.63.63,0,0,1,.36-.82.53.53,0,0,1,.64.62.52.52,0,0,1-.67.44c-.25,0-.54-.4-.23-.61a.07.07,0,0,0-.07-.12Z"/><path class="cls-6" d="M77.89,108.13a.3.3,0,0,1,.27-.27q.32-.1.24.24c.1.21,0,.3-.19.29a.39.39,0,0,1-.32-.15.07.07,0,0,0-.11.06c.12.55,1.09.27,1-.27s-1-.44-1,.06c0,.1.13.14.15,0Z"/><path class="cls-6" d="M80.17,108.7a.62.62,0,0,0,1.22-.08c0-.73-1-.34-.88.24a.07.07,0,0,0,.13,0c0-.09.4-.8.57-.39l-.12.47c-.4.2-.66.11-.8-.27a.06.06,0,1,0-.12,0Z"/><path class="cls-6" d="M83.88,108.79a.34.34,0,0,0,0,.65c.49.17.88-.4.79-.83a.09.09,0,0,0-.13,0,4.14,4.14,0,0,0-.69.37c-.06,0,0,.13,0,.11a5.4,5.4,0,0,0,.74-.33l-.14,0a.37.37,0,0,1-.26.51q-.36.35-.3-.27c.06,0,0-.13-.05-.11Z"/><path class="cls-6" d="M86.33,108.84a.63.63,0,0,0,1.14.33c.34-.58-.58-1.13-1-.71-.11.1,0,.25.15.16.44-.4,1.09.42.51.62a.49.49,0,0,1-.65-.4.06.06,0,1,0-.12,0Z"/><path class="cls-6" d="M88.46,107.93a.37.37,0,0,1,.32-.33c.22-.07.3,0,.21.26s-.19.37-.5.22a0,0,0,0,0-.07.06c.17.53,1.1.08.92-.43s-1-.29-1,.22a.06.06,0,0,0,.12,0Z"/><path class="cls-6" d="M90.27,107.31l-.31.34a.09.09,0,0,0,.06.15.6.6,0,0,0,.41-.92c-.32-.49-.78.12-.71.51,0,.07.12.07.14,0s.19-.68.47-.29c.12.19-.13.51-.31.53l.06.14.31-.34a.09.09,0,0,0-.12-.12Z"/></svg>