<svg id="illustration" xmlns="http://www.w3.org/2000/svg" viewBox="0 0 198.43 153.77"><defs><style>.cls-1{fill:#fff;}.cls-2{fill:#939696;}.cls-3{fill:#57a9ad;}.cls-4{fill:#f47d5e;}.cls-5{fill:#856138;}.cls-6{fill:#babcbe;}.cls-7{opacity:0.55;}.cls-8{fill:#434646;}.cls-9{fill:#231f20;}.cls-10{opacity:0.6;}.cls-11{fill:#010101;}</style></defs><path class="cls-1" d="M108.49,32.24c-1.53,1.62-.25,4.65,1.84,5.08a.88.88,0,0,0,.68-1.6,2.45,2.45,0,0,1-1.21-1.12,4.39,4.39,0,0,1-.06-1.84.74.74,0,0,0-1.25-.52Z"/><polygon class="cls-2" points="112.57 18.23 114.12 12.99 117.06 8.04 120.21 4.75 121.57 4.55 123.56 9.05 124.79 16.08 124.53 22.96 122.77 28.95 124.79 33.43 124.55 39.18 123.21 44.06 121.71 46.16 123.21 48.28 124.21 53.01 124.79 60.24 125.14 75.03 126.26 79.25 127.87 90.05 129.01 97.54 130.17 108.62 130.84 116.53 130.84 125.06 128.38 130.55 128.17 131.02 125.86 134.96 122.57 138.37 119.44 140.34 116.57 141.96 113.82 143.42 105.2 144.36 104.18 143.24 103.29 138.7 102.57 134.07 102.03 129.46 101.69 125.06 101.48 120.7 101.69 119.01 100.17 119.13 98.58 119.34 98.7 121.8 98.7 128.57 98.55 134.81 98.45 139.7 98.66 143.58 97.52 144.39 94.85 144.36 91.49 143.66 88.95 144.03 87.62 144.54 87.01 143.43 81.97 143.75 78.06 140.2 75.54 137 70.99 137.3 67.02 135.76 63.4 134.58 60.47 132.52 56.56 130.09 54.5 126.97 51.05 120.7 49.7 115.68 49.84 112.31 51.86 106.21 52.96 102.13 52.47 97.09 51.3 94.04 48.1 89.27 45.13 87.46 41.15 87.45 38.9 88.79 37.69 90.44 37.16 93.6 37.97 96.02 37.97 98.2 36.07 98.25 34.22 95.87 32.91 92.21 33.74 86.93 35.66 83.44 38.9 82.26 43.45 82.44 47.42 83.28 55.89 86.81 59.02 89.66 61.21 93.93 61.21 100.25 59.45 105.25 57.88 107.89 55.97 111.58 55.22 115.01 55.59 118.59 58.19 124.44 61.57 127.29 66.9 128.39 71.75 127.83 71.1 124.43 70.21 117.65 69.84 112.74 69.49 105.25 69.9 97.92 71.06 90.11 73.25 82.7 75.38 77.97 78.53 72.95 81.6 69.33 83.62 67.53 86.66 57.02 88.72 51.75 90.33 47.98 87.69 44.91 86.22 40.04 86.08 36.91 86.03 31.28 85.87 29.73 83.49 26.9 81.6 22.11 79.83 18.23 79.03 15.59 78.19 12.99 78.33 9.57 79.05 8.14 81.6 8.65 82.86 11.01 86.72 13.55 90.93 16.27 94.76 18.23 98.63 17.4 103.32 17.11 107.59 17.17 111.85 17.58 112.57 18.23"/><path class="cls-3" d="M112.33,28.84s-5,.23-4.23,4.69,3.75,4.5,3.75,4.5l3.93-1.12,1-3.38-.64-2.39-1.86-1.82Z"/><polygon class="cls-3" points="93.51 32.93 94.88 35.54 94.4 38.02 92.34 39.06 90.33 39.06 88.37 37.81 87.64 35.63 88.37 33.65 89.65 32.02 93.51 32.93"/><polygon class="cls-4" points="99.87 46.36 97.3 44.06 99.4 43.56 101.52 43.81 101.52 44.91 99.87 46.36"/><polygon class="cls-5" points="38.9 82.93 39.93 83.96 41.55 85.57 43.54 86.43 45.63 86.24 47.82 86.14 50 86.43 52.29 86.05 52.29 84.83 47.42 83.28 42.79 81.72 40.12 81.72 38.9 82.93"/><polygon class="cls-5" points="72.32 84.08 73.74 85.57 74.22 87.57 74.16 90.05 73.75 92.21 73.27 95.55 73.06 101.01 73.55 106.47 73.9 111.58 72.98 115.68 71.65 117.67 70.11 118.59 69.97 114.6 69.55 104.19 70.23 94.12 72.03 85.67 72.32 84.08"/><polygon class="cls-6" points="114.66 12.09 115.47 12.99 117.43 13.55 119.38 11.34 120.31 9.05 120.94 6.66 120.94 5.04 120.21 4.75 118.22 6.67 115.78 9.05 114.8 11.01 114.66 12.09"/><polygon class="cls-6" points="82.86 11.01 82.42 12.07 82.47 13.55 82.86 15.1 82.64 17.11 82.91 18.9 83.94 19.76 86.3 19.35 88.72 18.72 90.33 18.16 92.34 17.44 90.93 16.27 87.84 14.25 85.57 12.79 82.86 11.01"/><polygon class="cls-6" points="87.42 83.39 92.17 84.64 97.58 84.83 102.97 84.64 106.95 84.11 110.69 83.27 115.15 81.97 113.82 86.24 112.3 89.47 109.92 92.98 107.26 95.57 104.56 97.98 102.1 99.88 100.34 101.33 98.63 101.8 97.52 100.85 95.87 99.06 94.16 96.97 92.77 94.63 91.58 92.21 90.76 90.05 89.93 87.79 88.72 85.69 87.65 84.08 87.42 82.93 87.42 83.39"/><polygon class="cls-6" points="53.01 100.25 54.44 100.33 55.71 101.01 56.36 102.57 56.36 105.07 55.48 106.02 53.89 108.17 52.47 109.6 50.95 110.17 50.09 110.17 51.71 107.32 52.75 103.9 52.92 101.72 53.01 100.25"/><path class="cls-5" d="M94,64.57l.73.54-2-1.5-1.41-1.92-1.71-1.62-.93-1.2-1.3,0-1.25-.2L83.73,67l1.6-.13,2.09.09,2.91.47s.36-.74,3.18.75C93.59,66.91,94,65.85,94,64.57Z"/><path class="cls-5" d="M124.55,57a5.26,5.26,0,0,0-1.19,1.88c-.43,1.16-.81,2.3-1.57,2.77s-2,1.48-2.92,2a6.84,6.84,0,0,0-1.07.85,35.92,35.92,0,0,0,.67,6.75l1-.73,2.21-1.94,1.73-1.83,1.76-2Z"/><polygon class="cls-1" points="87.62 144.54 90.85 143.75 93.04 143.81 95.8 144.14 97.52 144.39 97.86 146.57 98.13 149.75 96.4 151.01 94.34 150.77 93.04 151.37 91.49 150.19 89.56 151.37 87.16 150.69 86 149.16 84.49 147.44 81.43 147.56 79.92 145.82 80.26 144.54 82.52 143.42 84.78 142.93 86.39 142.93 87.62 144.54"/><polygon class="cls-1" points="105.2 143.65 108.84 143.24 112.38 143.3 114.67 143.6 117.06 145.47 117.06 148.91 115.82 149.58 114.67 149.9 113.35 149.36 112.48 150.34 110.87 150.75 109.42 149.9 108.53 149.65 106.64 149.9 105.31 149.02 104.32 147.15 104.21 145.82 105.2 143.65"/><path class="cls-1" d="M119.31,104.39,113,101.53s-1.61-.76-2.09.57,1.19,2.29,1.19,2.29l4.32,2.39,2.09,1.84Z"/><polygon class="cls-1" points="129.32 100.47 128.16 102.29 127.4 104.57 127.59 107.23 127.59 111.4 126.66 116.02 125.14 118.48 124.93 121.15 125.23 124.92 126.66 127.83 128.17 131.02 129.95 126.01 130.84 121.15 130.84 114.6 129.98 106.78 129.32 100.47"/><path class="cls-1" d="M78.21,111.26l2.16-1.48,3.52-2,2.09-1,2.29-.31.67,1.33v1.51l-2,1.52L85.14,112l-1.25,1.46-1.32,1.87-1,2-.7,1.3-.76,3.21S78,114.92,78.21,111.26Z"/><polygon class="cls-1" points="62.85 127.56 64.09 129.46 64.53 132.11 64.53 132.64 63.69 133.13 63.4 134.58 71.88 137.3 75.54 137 71.75 127.83 66.9 128.39 62.85 127.56"/><path class="cls-1" d="M96.46,20.67a5.9,5.9,0,0,0,2.18-.38,12.56,12.56,0,0,1,2.44-.33,11.74,11.74,0,0,1,2.44.16,8.19,8.19,0,0,0,2.34.35.28.28,0,0,0,.2-.48,4,4,0,0,0-2.33-.91,13.89,13.89,0,0,0-2.65-.17,12.85,12.85,0,0,0-2.55.36,3.73,3.73,0,0,0-2.18,1.11.19.19,0,0,0,.11.29Z"/><path class="cls-1" d="M121.76,8.65l-.08.06a.44.44,0,0,0-.19.47,10.73,10.73,0,0,0,1.1,4,.26.26,0,0,0,.48-.13,11.07,11.07,0,0,0-.78-4,.39.39,0,0,0-.29-.29s-.19-.06-.24,0Z"/><path class="cls-1" d="M117,10.86c.41-.56.88-1.14,1.32-1.68a7.94,7.94,0,0,0,1.14-1.4.17.17,0,0,0-.23-.23A4.11,4.11,0,0,0,117.86,9a7.66,7.66,0,0,0-1,1.87c0,.05.06.07.09,0Z"/><path class="cls-1" d="M80.59,10.82c.3,1.32,1.5,2.24,2.52,3a9.31,9.31,0,0,0,4.16,2.05.27.27,0,0,0,.2-.49c-1.11-.81-2.38-1.38-3.5-2.2s-2-2-3.2-2.51c-.1,0-.21,0-.18.13Z"/><path class="cls-1" d="M80.22,16.11a11.14,11.14,0,0,0,2.85,5.54c.09.09.28,0,.23-.14A20.69,20.69,0,0,0,82,18.91C81.44,18,81,17,80.5,16a.15.15,0,0,0-.28.12Z"/><path class="cls-1" d="M88.15,41.06c-.56,2.28,1.2,6.14,3.8,6.35.15,0,.21-.17.12-.27a16,16,0,0,1-2.44-2.43,7.8,7.8,0,0,1-.95-3.58c0-.29-.46-.39-.53-.07Z"/><path class="cls-1" d="M122.76,37.63c-.17.53-.24,1.1-.41,1.64a10.94,10.94,0,0,1-.63,1.55,11.15,11.15,0,0,1-.84,1.41,5.35,5.35,0,0,0-.91,1.4.21.21,0,0,0,.26.26,2.87,2.87,0,0,0,1.33-1.14,8.15,8.15,0,0,0,1-1.57,9.35,9.35,0,0,0,.62-1.7,8.93,8.93,0,0,0,.17-.9,3.93,3.93,0,0,0,.06-.48,1.87,1.87,0,0,0,0-.47c0-.31-.48-.24-.57,0Z"/><g class="cls-7"><path class="cls-1" d="M91.46,87.26c3.09,6,15.18,5.08,17.91-.81a.25.25,0,0,0-.34-.34c-3,1.69-5.19,3.6-8.84,3.68-3.32.06-5.6-1.65-8.54-2.78-.15-.06-.26.13-.19.25Z"/></g><path class="cls-1" d="M75.92,82.07c.65-1.13.87-2.51,1.44-3.7s1.45-2.23,2.06-3.41a.44.44,0,0,0-.68-.53,11.06,11.06,0,0,0-2.4,3.62,8.51,8.51,0,0,0-1.11,3.83.37.37,0,0,0,.69.19Z"/><path class="cls-1" d="M40.9,84.89C44.65,86,48.76,87,52.13,89c3.79,2.26,8.41,7.06,5,11.61-.3.41.35.88.7.54,3.75-3.63,1.19-8.74-2.15-11.66-4.08-3.58-9.43-5-14.68-5.34-.41,0-.48.6-.09.71Z"/><path class="cls-1" d="M87.61,131.1c.94,1.45,3.9,1.81,5,.38.14-.18,0-.44-.25-.44-.75,0-1.45.32-2.21.29a12.44,12.44,0,0,1-2.34-.47.17.17,0,0,0-.19.24Z"/><path class="cls-1" d="M105.28,130.68a4.34,4.34,0,0,0,3.17,1c.94-.08,2.24-.47,2.55-1.47a.25.25,0,0,0-.3-.31c-.81.15-1.48.71-2.31.84a4.19,4.19,0,0,1-2.82-.49c-.23-.14-.51.2-.29.38Z"/><path class="cls-1" d="M71,103.62a78.12,78.12,0,0,1,1.92-9.34c.08-.3-.35-.4-.46-.12a26.55,26.55,0,0,0-1.73,9.46c0,.17.25.16.27,0Z"/><path class="cls-8" d="M103.49,54.69c2.53,1.25,7.31-.62,9.78-1.53a27.7,27.7,0,0,0,9.36-5.46c.41-.38-.13-1.11-.61-.78a40,40,0,0,1-9.42,5.34,29.81,29.81,0,0,1-4.73,1.29c-1.48.27-3.1.09-4.38.92a.13.13,0,0,0,0,.22Z"/><path class="cls-8" d="M90,50.51c1,1.07,2.57,1.36,3.9,1.78,1.82.56,3.66,1.23,5.49,1.7.16,0,.27-.19.11-.26-1.69-.86-3.49-1.55-5.23-2.32C93,50.85,91.59,50,90.19,50.06a.27.27,0,0,0-.18.45Z"/><path class="cls-8" d="M115.53,19.6c.67-1.28,1.19-2.6,2-3.82s2.13-2.14,2.66-3.38a.38.38,0,0,0-.42-.55c-1.35.36-2.39,2-3.11,3.15a9.26,9.26,0,0,0-1.57,4.47.25.25,0,0,0,.47.13Z"/><path class="cls-8" d="M119.37,12c-.12,2.21.56,4.45.71,6.66.14,2,0,4,.27,5.91.08.5.85.45,1,0a20.84,20.84,0,0,0,.07-6.87,16,16,0,0,0-1.27-5.9c-.19-.38-.73-.18-.75.2Z"/><path class="cls-8" d="M121.19,25.55c.21-1.32-1.11-2.75-1.87-3.73-.94-1.19-2.14-2.84-3.6-3.38-.43-.16-.78.39-.57.75.69,1.21,2.06,2.13,2.95,3.22.53.66,1,1.33,1.49,2,.37.55.58,1,1.19,1.27.14.07.38,0,.41-.16Z"/><path class="cls-8" d="M116.37,19.2c1-1.51,2.18-2.83,3.28-4.25l-1-.42c.16,2.4.23,4.8.31,7.2l1.41-.19a6,6,0,0,0-3.05-3.79.81.81,0,0,0-1.2.7c-.05.9.55,2.07,1.66,1.63s1.1-2.72.91-3.7a.65.65,0,0,0-1.17-.15,3.57,3.57,0,0,0-.35.89l-.07.56c-.26.56,0,.81.62.77l-1.21.69A4.82,4.82,0,0,1,119,21.92c.24.72,1.48.66,1.41-.19-.21-2.4-.44-4.79-.58-7.2a.59.59,0,0,0-.88-.5A7,7,0,0,0,116,19.1c0,.21.27.24.37.1Z"/><path class="cls-8" d="M120.65,16.73a16.17,16.17,0,0,0,0,2.09c0,.61-.35,1.32.13,1.8a.42.42,0,0,0,.4.11c.77-.22.76-1.24.76-1.91a3.18,3.18,0,0,0-.72-2.23.32.32,0,0,0-.53.14Z"/><path class="cls-8" d="M121.1,23.82a4.41,4.41,0,0,0-.72,1.82c0,.51.77.77,1,.27a4.51,4.51,0,0,0,.15-2c0-.22-.33-.34-.43-.12Z"/><path class="cls-8" d="M110.06,39.88a7.33,7.33,0,0,0,6.41.3.33.33,0,0,0-.08-.59,20.45,20.45,0,0,0-2.93,0c-1.09,0-2.18-.27-3.26-.21a.29.29,0,0,0-.14.54Z"/><path class="cls-8" d="M88.74,39.78a4.78,4.78,0,0,0,5.32-.16c.21-.17,0-.45-.24-.41a12.71,12.71,0,0,1-2.6.5,21.1,21.1,0,0,1-2.37-.33c-.24,0-.25.29-.11.4Z"/><path class="cls-8" d="M98.22,118.9a3,3,0,0,0-1.79-1c-.69-.22-1.49-.66-2.17-.2a.55.55,0,0,0-.2.74c.37.73,1.27.74,2,.88a3,3,0,0,0,2.06,0,.32.32,0,0,0,.12-.43Z"/><path class="cls-8" d="M97,118.65c-1.07-.16-2.12-.31-3.18-.5a8,8,0,0,0-2.56-.32c-.3,0-.29.47-.08.61,1.46,1,4.13.73,5.77.53.16,0,.24-.29,0-.32Z"/><path class="cls-8" d="M93,119.93a42.21,42.21,0,0,1,2.6,3.46c.59.88,1.07,2.09,2,2.67a.32.32,0,0,0,.47-.27c0-1.19-1-2.43-1.63-3.39a31.66,31.66,0,0,0-2.56-3.33c-.51-.59-1.35.26-.85.86Z"/><path class="cls-8" d="M97.26,120.43a28.59,28.59,0,0,0-.09,4.14l1.15-.31a30.69,30.69,0,0,1-1.54-3c-.47-.79-1-1.84-1.93-2.1a.64.64,0,0,0-.78.78c.25.79,1,1.23,1.53,1.83a5.53,5.53,0,0,1,1.57,2.76.62.62,0,0,0,1.24,0,28.61,28.61,0,0,0-.15-4.14.5.5,0,0,0-1,0Z"/><path class="cls-8" d="M94.77,120.1c.43.64,1.11.81,1.76,1.16,1,.56,1.64-1.24.59-1.41a4.5,4.5,0,0,0-2.18-.17.29.29,0,0,0-.17.42Z"/><path class="cls-8" d="M101.24,119.41c1.62.73,4.86.48,6.18-.79a.33.33,0,0,0-.15-.56,8.06,8.06,0,0,0-2.71.29,18.66,18.66,0,0,0-3.26.55c-.2.07-.31.4-.06.51Z"/><path class="cls-8" d="M105.52,119.13a11.12,11.12,0,0,0,4.61-1.69c.18-.14,0-.45-.18-.44a10.81,10.81,0,0,0-4.62,1.68c-.26.13-.07.5.19.45Z"/><path class="cls-8" d="M105.31,118.57a46.88,46.88,0,0,0-3.46,9.63c-.09.37.47.64.64.27a47,47,0,0,0,3.33-9.68c.06-.3-.35-.52-.51-.22Z"/><path class="cls-8" d="M102.32,120.36a19.49,19.49,0,0,0-.84,4.79c0,1,1.46,1,1.49,0a24,24,0,0,1,.5-4.47.6.6,0,0,0-1.15-.32Z"/><path class="cls-8" d="M101.74,120.6a3.32,3.32,0,0,0-.08,2.2.63.63,0,0,0,1,.28,4.59,4.59,0,0,0,1.49-3.36l-1.09.46c.11.14.2.3.32.43a.26.26,0,0,0,.38,0c.12-.13.22-.29.33-.43.45-.6-.61-1.26-1-.6a11.64,11.64,0,0,0-.56,1.42,9.35,9.35,0,0,1-.83,1.31h1.09a1.8,1.8,0,0,1-.24-1.48.43.43,0,0,0-.83-.23Z"/><path class="cls-8" d="M103.17,120.44a1.31,1.31,0,0,0-.32.83.21.21,0,0,0,.31.17c.31-.13.41-.38.58-.67a.33.33,0,0,0-.57-.33Z"/><path class="cls-8" d="M82.38,136.15a.05.05,0,1,0,0-.1.05.05,0,0,0,0,.1Z"/><path class="cls-8" d="M80.55,125.74c.62,6.22,1.89,12.16,5.32,17.5a.19.19,0,0,0,.35-.14c-1.7-5.79-3.89-11.52-5.12-17.44-.06-.3-.58-.24-.55.08Z"/><path class="cls-8" d="M82.72,68.81a134.24,134.24,0,0,0-3.86,12.88c-1.14,4.36-2.44,8.65-2.87,13.15-.79,8.28-.82,17.57,2,25.52.15.42.84.39.82-.11-.19-4.34-1.42-8.63-1.76-13a59.11,59.11,0,0,1,.37-12.33,116.79,116.79,0,0,1,2.27-13c1.08-4.35,2.56-8.6,3.59-13a.3.3,0,0,0-.58-.16Z"/><path class="cls-8" d="M77,115.5a74.84,74.84,0,0,0,2.4,11.27c1,3.22,1.91,7.1,3.66,10,.08.13.34.09.32-.09-.37-3.4-1.76-6.94-2.64-10.26-1-3.7-2-7.41-3.17-11.06a.3.3,0,0,0-.57.16Z"/><path class="cls-8" d="M78.39,73.75a5,5,0,0,0,1.78-.92c.6-.34,1.49-.56,1.93-1.11a.26.26,0,0,0-.18-.44,4,4,0,0,0-2.14.89c-.55.34-1.32.74-1.54,1.39a.15.15,0,0,0,.15.19Z"/><path class="cls-8" d="M79.91,72.35a1.52,1.52,0,0,0,.92-.39c.31-.22.65-.38,1-.62.52-.41,1.48-.92,1.42-1.68a.52.52,0,0,0-.36-.48c-.77-.17-1.34.6-1.84,1.07-.3.28-.53.6-.8.89a1.63,1.63,0,0,0-.55.87.28.28,0,0,0,.26.34Z"/><path class="cls-8" d="M81.9,69.9a24.73,24.73,0,0,0-2.68,13c0,.13.21.17.24,0,.87-4.32,2-8.53,3-12.83a.29.29,0,0,0-.53-.22Z"/><path class="cls-8" d="M71.18,128.65c-.32,1.27.35,2.79.75,4A15.71,15.71,0,0,0,73.79,137c.23.32.8.14.68-.29-.43-1.55-1.24-3-1.78-4.53-.41-1.16-.57-2.59-1.37-3.53a.08.08,0,0,0-.14,0Z"/><path class="cls-8" d="M57.76,129.51c-2-3.15-4.15-5.73-5.32-9.38a24.14,24.14,0,0,1-1.16-10.73c0-.37-.54-.37-.58,0-.82,6.82.69,16,6.5,20.54.3.23.8-.06.56-.43Z"/><path class="cls-8" d="M50.3,117.63a13.55,13.55,0,0,0,.19-4.58c-.05-.37-.62-.39-.6,0,.09,2.09.06,4.18.93,6.14.11.24.48.07.42-.18a14.89,14.89,0,0,1-.77-5.88l-.58-.08c.09,1.51.07,3,0,4.53a.2.2,0,0,0,.39,0Z"/><path class="cls-8" d="M34.43,95.68c.46.75,1.11,1.54,2.11,1.19.49-.17,1.15-1.13.42-1.43a.2.2,0,0,0-.18,0c-.25.31-.16.76-.69.79a2.54,2.54,0,0,1-1.5-.73c-.08-.07-.23,0-.16.13Z"/><path class="cls-8" d="M35.35,97.05a1.28,1.28,0,0,0,1.44.89,1.14,1.14,0,0,0,.9-1.4.31.31,0,0,0-.6,0c-.08.23-.18.51-.42.61A.59.59,0,0,1,36,96.8c-.17-.33-.74-.1-.61.25Z"/><path class="cls-8" d="M36.81,96.5c0,.38-.43.32-.64.57a.36.36,0,0,0,.08.56l.08,0a.47.47,0,0,0,.53-.07,1.47,1.47,0,0,0,.56-1.1.31.31,0,0,0-.61,0Z"/><path class="cls-9" d="M94.35,48.15a.47.47,0,0,0,0-.94.47.47,0,0,0,0,.94Z"/><path class="cls-9" d="M96.15,47.59v.09a.28.28,0,0,0,.56,0v-.09c0-.38-.63-.38-.58,0Z"/><path class="cls-9" d="M95.74,45l-.09,0a.09.09,0,0,0,0,.18l.09,0a.11.11,0,1,0,0-.22Z"/><path class="cls-9" d="M93.3,45.45a.05.05,0,1,0,0-.1.05.05,0,0,0,0,.1Z"/><path class="cls-9" d="M95.49,46.94a.3.3,0,0,0,0-.6.3.3,0,0,0,0,.6Z"/><path class="cls-9" d="M93.59,45.26a.05.05,0,0,0,0-.1.05.05,0,0,0,0,.1Z"/><path class="cls-9" d="M107.12,45.52l.07-.05a.42.42,0,0,0,0-.71l-.07,0a.46.46,0,1,0,0,.8Z"/><path class="cls-9" d="M109.13,46.32c-.12.25.19.54.41.31s-.25-.65-.41-.31Z"/><path class="cls-9" d="M105.65,47.78a.29.29,0,0,0,0-.57.29.29,0,0,0,0,.57Z"/><path class="cls-9" d="M109.92,44.54a.37.37,0,0,0,0-.74.37.37,0,0,0,0,.74Z"/><g class="cls-10"><path class="cls-1" d="M92.09,66.2a42.25,42.25,0,0,1,7.72,4.37,14.63,14.63,0,0,0,5.89,2.62A11.3,11.3,0,0,0,116,69c.13-.18-.16-.4-.31-.24-3.55,3.84-9,4.9-13.52,2-3-2-6.07-5.59-10-5-.28,0-.19.4,0,.49Z"/></g><path class="cls-1" d="M112.58,29.77a6.36,6.36,0,0,1,2.26,3,5.16,5.16,0,0,1-.4,4.07c-.32.56.55,1.07.86.5a6.16,6.16,0,0,0,.45-4.88,5.37,5.37,0,0,0-2.93-3.26c-.36-.15-.5.39-.24.59Z"/><path class="cls-1" d="M92.37,32.76a.86.86,0,0,0,.29.59,4.24,4.24,0,0,1,.5.62,3.44,3.44,0,0,1-.54,4.33.42.42,0,0,0,.6.6,4.18,4.18,0,0,0,.63-5.28c-.24-.37-.8-1.23-1.35-1a.19.19,0,0,0-.13.17Z"/><circle class="cls-9" cx="111.12" cy="34.24" r="3.53"/><circle class="cls-9" cx="90.62" cy="36.18" r="2.89"/><path class="cls-1" d="M108.89,32.09a1.45,1.45,0,0,0-.17.26,2.42,2.42,0,0,0-.21.39,1.71,1.71,0,0,0-.12.71,4,4,0,0,0,.32,1.49,4.54,4.54,0,0,0,.8,1.27c.35.39.95,1,1.51.81a.61.61,0,0,0,.42-.73.89.89,0,0,0-.35-.46s-.14-.1-.08,0l0,0-.12-.08-.07,0c.06,0-.07-.06-.07-.06a2.09,2.09,0,0,1-.22-.2l-.18-.19-.09-.11c.06.07,0,0,0,0a3.21,3.21,0,0,1-.31-.5l-.06-.13s0-.07,0,0-.07-.18-.1-.28-.1-.37-.14-.56,0-.1,0-.15,0,.14,0,0a2.32,2.32,0,0,0,0-.38,2.18,2.18,0,0,0-.15-.57l.05.19a1.46,1.46,0,0,0,0-.36.29.29,0,0,0-.48-.13Z"/><path class="cls-1" d="M88.24,35.6a3.06,3.06,0,0,0,1,2c.13.12.28.24.42.35a2.2,2.2,0,0,0,.25.17s.14.1,0,0a1.18,1.18,0,0,0,.18.13,1.93,1.93,0,0,0,1.34.29.63.63,0,0,0,.45-.59.62.62,0,0,0-.45-.59,5.87,5.87,0,0,0-.59,0,.22.22,0,0,0-.11,0c.14,0,.08,0,0,0l-.21,0c-.07,0-.18-.05-.23,0h0l0,0,0,0-.07,0-.1,0-.19-.1L89.88,37c.09.07,0,0,0,0a2.42,2.42,0,0,1-.32-.32s-.09-.11,0,0l-.06-.09-.13-.2-.1-.21c0-.08,0,.07,0,0l0-.1a.83.83,0,0,1-.06-.21.43.43,0,0,1,0-.11s0-.05,0-.07h0a.41.41,0,1,0-.82,0Z"/><path class="cls-11" d="M88.85,21.69c-2.06.23-2.54,3-2.83,4.65a45,45,0,0,0-.69,7.94A42,42,0,0,0,86,42,11.42,11.42,0,0,0,88.87,48a14.83,14.83,0,0,0,3,2.27c.52.31,1,.59,1.58.87a4.49,4.49,0,0,0,1.83.66.66.66,0,0,0,.46-1.12,8.69,8.69,0,0,0-2.53-1.5,14.76,14.76,0,0,1-2.39-1.58,9.16,9.16,0,0,1-3-5,35.16,35.16,0,0,1-.84-6.86,46.28,46.28,0,0,1,.21-7.06c.14-1.26.3-2.52.53-3.76a3.48,3.48,0,0,1,1.43-2.43c.3-.21.24-.83-.21-.78Z"/><path class="cls-11" d="M92.36,19.39a36.1,36.1,0,0,1,10.92-1.9c3.87-.06,7.5-.06,10.85,2.13.3.2.65-.26.39-.5-2.89-2.59-7.2-2.4-10.84-2.36s-8.3.11-11.37,2.55c0,0,0,.1,0,.08Z"/><path class="cls-11" d="M122.61,29c1.28,3.57,2.27,6.63,1.49,10.48-.7,3.47-2.6,6-4.42,9-.15.24.18.47.38.29,5-4.39,7.31-14.43,2.83-19.9a.17.17,0,0,0-.28.17Z"/><path class="cls-11" d="M112.69,18.77a30,30,0,0,1,3.3-8.6c1.72-2.73,4-4.52,6.28-6.73.18-.17,0-.44-.26-.33-5.28,2.56-9.41,9.87-9.72,15.61a.2.2,0,0,0,.4.05Z"/><path class="cls-11" d="M121.24,4.74a27.41,27.41,0,0,1,3.08,13.12,35.38,35.38,0,0,1-.73,7.11,45.07,45.07,0,0,0-1.26,5.44c0,.38.49.45.67.18,2.41-3.51,2.53-9.52,2.36-13.65A26.5,26.5,0,0,0,121.9,4.36a.38.38,0,0,0-.66.38Z"/><path class="cls-11" d="M94.19,17.57c-2.24-1.42-4.57-2.66-6.73-4.2S83.15,9.45,80.75,8c-3.19-1.89-2.94,3.34-2.78,5,0,.35.56.36.55,0a7.21,7.21,0,0,1,0-2.62c1.37-2.73,2.4-.85,3.35,0a38.81,38.81,0,0,0,3.54,2.86,39.46,39.46,0,0,0,8.43,5c.45.18.7-.51.32-.76Z"/><path class="cls-11" d="M78.67,14.68c1.34,5.84,3.45,11.9,7.06,16.77a.35.35,0,0,0,.6-.34c-2.86-5.39-5.66-10.61-7.44-16.49a.11.11,0,0,0-.22.06Z"/><path class="cls-11" d="M90.16,48.27c-2.67,3.71-4.09,8.85-5.4,13.17a97,97,0,0,0-3.41,14.77.25.25,0,0,0,.49.13c1.42-4.68,2.36-9.5,3.68-14.21.66-2.35,1.39-4.68,2.24-7s2-4.43,2.77-6.73c.07-.23-.24-.33-.37-.16Z"/><path class="cls-11" d="M82.79,67.86C71.85,77.13,69,92.93,69.17,106.51c.13,12.72.68,30.57,13.23,37.76.33.19.58-.28.29-.49C70.93,135.16,70.1,118.92,70,105.57,70,91.63,73.21,78.39,83.11,68.18c.21-.21-.1-.5-.32-.32Z"/><path class="cls-11" d="M125.09,73.22c.23,6,1.37,11.94,2.18,17.83.89,6.43,1.9,12.85,2.61,19.3,1.17,10.72.22,24.06-10.69,29.56-.57.29-.07,1.13.5.85,10-5,12.22-16.92,11.49-27.09-.46-6.51-1.58-13-2.47-19.44-1-7-1.52-14.21-3.16-21.07a.24.24,0,0,0-.46.06Z"/><path class="cls-11" d="M122.14,46.27a47.16,47.16,0,0,1,1.75,9.61c.25,3.46.52,6.93.66,10.4a86.88,86.88,0,0,1-1.62,21.41.36.36,0,0,0,.7.19c2.21-7.3,2.4-15,2.05-22.55-.18-3.74-.44-7.49-.81-11.22-.28-2.72-.54-5.89-2.41-8a.19.19,0,0,0-.32.18Z"/><path class="cls-11" d="M87.18,144.3c-2.29-6.2-3.8-12.57-5.87-18.82a.32.32,0,0,0-.62.17,73.05,73.05,0,0,0,6.14,18.8c.1.19.43.06.35-.15Z"/><path class="cls-11" d="M98.78,143.58c.56-8.32.11-16.76.43-25.1a.36.36,0,0,0-.72,0c-.31,8.24-.87,16.88,0,25.1a.13.13,0,0,0,.25,0Z"/><path class="cls-11" d="M101.29,118.48a76.41,76.41,0,0,0,.68,13.6c.5,4.1.88,8.63,2.32,12.51.07.18.38.18.36-.05-.35-4.32-1.56-8.62-2.05-12.95s-.64-8.74-1-13.11a.16.16,0,0,0-.31,0Z"/><path class="cls-11" d="M86.69,145.31a12.79,12.79,0,0,1,5.82-1.18c1.91.09,3.73.7,5.62.88a.3.3,0,0,0,.15-.55c-3.36-1.51-8.87-2.25-11.76.55-.12.11,0,.37.17.3Z"/><path class="cls-11" d="M86,148c-1.62,3.11,4.82,5.32,5.88,2.3a.36.36,0,0,0-.59-.35,3.19,3.19,0,0,1-3.06.8,2.88,2.88,0,0,1-2-2.69c0-.11-.17-.19-.24-.06Z"/><path class="cls-11" d="M92.66,149a.05.05,0,0,0,0-.1.05.05,0,1,0,0,.1Z"/><path class="cls-11" d="M91.31,148.85a2.09,2.09,0,0,0,1.29,3.09,2.2,2.2,0,0,0,2-.51c.43-.39.9-1.37.35-1.84a.41.41,0,0,0-.46-.06c-.28.15-.4.49-.63.72a1.48,1.48,0,0,1-.91.5c-.81,0-1.15-1-1-1.65a.33.33,0,0,0-.61-.25Z"/><path class="cls-11" d="M94.32,149c-.86,1.83,1.28,3.28,2.89,2.27,2.31-1.45,1.65-5.35.43-7.29a.41.41,0,0,0-.75.2,16.17,16.17,0,0,0,.46,3.38,3,3,0,0,1-.36,2.17c-.63.89-2.7,1-2.37-.6,0-.17-.22-.31-.3-.13Z"/><path class="cls-11" d="M85.76,145.43a5,5,0,0,0-.2,3.91,2,2,0,0,0,2.17,1.28.29.29,0,0,0,.06-.52,3.36,3.36,0,0,1-1.6-1.62,7.26,7.26,0,0,1-.13-3c0-.18-.24-.19-.3,0Z"/><path class="cls-11" d="M104,144.52c1.65-.12,3.23-.61,4.89-.72a27.3,27.3,0,0,1,5.64.29c.63.09.92-.84.27-1-3.34-.68-7.88-.72-10.88,1.14a.15.15,0,0,0,.08.27Z"/><path class="cls-11" d="M104.21,144.29a4.67,4.67,0,0,0,1,5.35c1.1.91,3.41,1.34,4.29-.11.2-.34-.15-.9-.57-.73a3.75,3.75,0,0,1-1.56.52,2.65,2.65,0,0,1-1.8-.76c-1.09-1.08-1-2.8-.89-4.2,0-.3-.37-.29-.47-.07Z"/><path class="cls-11" d="M108.59,147.87a2.82,2.82,0,0,0,2.28,3.45c1.4.16,3.63-1.17,3.09-2.81a.41.41,0,0,0-.73-.09c-.58.8-.9,1.79-2.1,1.78a2.12,2.12,0,0,1-2-2.25.3.3,0,0,0-.58-.08Z"/><path class="cls-11" d="M113.13,147.94c-.37,2.11,2.31,3,3.65,1.54,2-2.1.11-5-1.69-6.48-.54-.44-1.31.27-.78.79,1,1,2.18,2,2.2,3.47a2.06,2.06,0,0,1-.76,1.74,1.51,1.51,0,0,1-2.32-1c0-.16-.26-.21-.3,0Z"/><path class="cls-11" d="M119.29,140.33c-1.35.41-3,.6-4.2,1.39-.21.14-.16.55.14.51,1.45-.17,2.83-1.09,4.17-1.65.14-.07,0-.3-.11-.25Z"/><path class="cls-11" d="M103.3,141.37c-.77.62-1.52,1.27-2.27,1.92-.53.46-1.45.94-1.51,1.7a.2.2,0,0,0,.2.2c.75,0,1.32-.91,1.81-1.4.7-.69,1.4-1.39,2.08-2.11a.22.22,0,0,0-.31-.31Z"/><path class="cls-11" d="M103.17,138.72c-.78.76-1.58,1.51-2.37,2.27a16.56,16.56,0,0,0-2.12,2.15c-.18.26.19.64.45.44a16.49,16.49,0,0,0,2.12-2.14l2.24-2.4a.23.23,0,0,0-.32-.32Z"/><path class="cls-11" d="M101,137.68a10.53,10.53,0,0,1-1,1.35c-.31.35-.75.66-.87,1.12a.21.21,0,0,0,.2.27,2.34,2.34,0,0,0,1.34-.85,9.4,9.4,0,0,0,1.17-1.42c.33-.49-.47-1-.8-.47Z"/><path class="cls-11" d="M100.85,134.63,100,136.2l-.35.67-.24.45c-.18.18-.15.34.07.5a.25.25,0,0,0-.24-.31h-.06a.29.29,0,0,0-.28.22c-.14.62.54.82.92.41a5.75,5.75,0,0,0,.72-1.34c.3-.6.6-1.21.91-1.81.2-.41-.4-.76-.61-.36Z"/><path class="cls-11" d="M100.4,132.46c-.21.51-.44,1-.65,1.54-.09.22-.18.44-.28.66a5.16,5.16,0,0,1-.21.49c-.15.14-.09.23.17.28l-.26.14h.08c.31,0,.41-.51.07-.57-.69-.1-.65,1,0,.93.51,0,.64-.57.77-1,.26-.79.5-1.58.77-2.37.1-.32-.37-.43-.49-.13Z"/><path class="cls-11" d="M100.18,129.51a.05.05,0,1,0,0-.1.05.05,0,0,0,0,.1Z"/><path class="cls-11" d="M99.63,128.59A6.32,6.32,0,0,0,98.46,130a.18.18,0,0,0,.24.24,5.64,5.64,0,0,0,1.41-1.17c.32-.3-.18-.79-.48-.48Z"/><path class="cls-11" d="M100,125.91c-.28.44-.55.89-.84,1.33a4.82,4.82,0,0,0-.73,1.26.28.28,0,0,0,.46.27,5.45,5.45,0,0,0,.73-1.26c.24-.47.49-.93.74-1.39a.21.21,0,0,0-.36-.21Z"/><path class="cls-11" d="M100,124.34a16.19,16.19,0,0,0-1.36,2.15c-.15.34.41.57.59.25a1.5,1.5,0,0,0,.19-1.09.18.18,0,0,0-.34,0,1.87,1.87,0,0,1-.36.7l.51.39a6.33,6.33,0,0,0,.54-1.11c.17-.37.37-.73.56-1.1a.19.19,0,0,0-.33-.19Z"/><path class="cls-11" d="M99.58,123.73a3.84,3.84,0,0,0-.26,1.33.2.2,0,0,0,.36.1,3.81,3.81,0,0,0,.44-1.28.28.28,0,0,0-.54-.15Z"/><path class="cls-11" d="M96.32,118.87c2.53.6,5.76,1.34,8.34.87a.33.33,0,0,0,0-.63,25,25,0,0,0-3.87-.37c-1.47-.12-2.93-.28-4.39-.43-.32,0-.38.48-.08.56Z"/><path class="cls-11" d="M98.51,119.09a7.59,7.59,0,0,1-1.92.52,7.93,7.93,0,0,0-1.83.27.37.37,0,0,0,0,.7c1.25.42,2.86-.41,3.95-1,.25-.14.08-.59-.2-.48Z"/><path class="cls-11" d="M98.81,119.53a11.13,11.13,0,0,0-1.75,1.29c-.46.42-1.17,1-1.26,1.65a.31.31,0,0,0,.45.35c.57-.3.91-1,1.33-1.48a11.44,11.44,0,0,1,1.53-1.42c.22-.18-.06-.52-.3-.39Z"/><path class="cls-11" d="M101.54,119.62c.77,1,2.41,2,3.72,1.54.16-.07.21-.34,0-.39a13.12,13.12,0,0,1-1.74-.28,3.79,3.79,0,0,1-1.67-1.18c-.19-.21-.48.1-.31.31Z"/><path class="cls-11" d="M102.06,121a10,10,0,0,0,2,2.11c.23.14.42-.12.34-.33a10.3,10.3,0,0,0-1.81-2.36c-.34-.39-.92.18-.58.58Z"/><path class="cls-11" d="M84,143.7c-1.8-.9-4.61.31-4.28,2.59s3.76,2.72,5.35,1.52a.54.54,0,0,0-.27-1c-1.12,0-3.27,1.1-3.87-.53s2-1.92,3-2.12a.25.25,0,0,0,.06-.46Z"/><path class="cls-11" d="M82,144c.9,0,1.8-.08,2.71-.08a6.48,6.48,0,0,0,2.41-.15c.21-.08.35-.44.08-.56a4.88,4.88,0,0,0-2.49-.09,21.71,21.71,0,0,0-2.77.49A.2.2,0,0,0,82,144Z"/><path class="cls-11" d="M79.75,82.83c-2.72,5.41-3.08,12.09-3,18,0,3.29.27,6.58.55,9.86.24,2.78.46,5.67,1.63,8.23.17.38.73.1.64-.27a84,84,0,0,1-2-17.82A60.15,60.15,0,0,1,80.12,83a.2.2,0,0,0-.37-.15Z"/><path class="cls-11" d="M123.34,90c-1.79,3.59-2.6,7.92-3.6,11.8q-1.59,6.18-2.84,12.45c-1.62,8.07-3.36,16.66-3.45,24.92,0,.4.65.51.72.09,1.32-8.25,1.89-16.58,3.47-24.81q1.15-6,2.68-12c1-4.07,2.67-8.21,3.27-12.35,0-.14-.17-.25-.25-.1Z"/><path class="cls-11" d="M86.93,83.26c4.42,1.89,9.59,2.2,14.34,1.94s10-1.09,14.14-3.37a.12.12,0,0,0-.09-.22c-4.87,1.15-9.42,2.53-14.48,2.73-4.71.2-9.23-.64-13.88-1.19-.06,0-.08.08,0,.11Z"/><path class="cls-11" d="M87,82.74c.6,2.06,2.18,3.59,3,5.58.68,1.66,1.14,3.37,1.91,5a23.22,23.22,0,0,0,6.52,8.54c.14.11.29-.11.18-.23-2.51-2.8-4.89-5.43-6.5-8.88-.69-1.49-1.12-3.06-1.75-4.57-.82-2-2.35-3.5-3-5.51a.16.16,0,0,0-.3.08Z"/><path class="cls-11" d="M99.36,101.88C107,98,114.09,90.1,115.51,81.48c.06-.39-.52-.56-.59-.17a25.75,25.75,0,0,1-6.24,12.33c-2.8,3.15-6.26,5.38-9.44,8.1-.08.07,0,.19.12.14Z"/><path class="cls-11" d="M78.66,111.58v-.32a.12.12,0,0,0-.24,0v.32a.13.13,0,0,0,.25,0Z"/><path class="cls-11" d="M78.22,111.32c2.2-1,4.15-2.54,6.34-3.59.42-.21,2.14-1.26,2.58-1.1l1.35,2.75-1,.78a24.78,24.78,0,0,0-2.15,1.54,16.15,16.15,0,0,0-5.5,10.19c-.05.34.47.48.51.14a15.75,15.75,0,0,1,5.07-9.72c1.36-1.21,4.81-2.45,4.45-4.83-.69-4.57-10.41,2.41-11.62,3.81,0,0,0,0,0,0Z"/><path class="cls-11" d="M119.36,104.31a24.16,24.16,0,0,0-6.47-3.12c-1-.26-2.16-.15-2.47,1-.43,1.56,1.24,2.39,2.37,2.92a23.48,23.48,0,0,1,2.9,1.61,34.92,34.92,0,0,0,2.82,2.1.2.2,0,0,0,.28-.27c-1.26-2.09-4.14-3.1-6.15-4.21a3.51,3.51,0,0,1-1.43-1.07c.05-1.33.55-1.81,1.5-1.42a14.24,14.24,0,0,1,2.46,1,29.53,29.53,0,0,0,4.11,1.63.1.1,0,0,0,.08-.17Z"/><path class="cls-11" d="M72.83,84.7A4.76,4.76,0,0,1,74,89.37c-.25,1.35-.55,2.69-.74,4a50.21,50.21,0,0,0-.5,8c.1,5.34,3.31,14.46-3.31,17.07a.28.28,0,0,0,.15.54c7.2-1.68,4-12.25,3.86-17.14-.12-4.63.88-8.92,1.39-13.47.17-1.47,0-3.81-1.93-3.88-.07,0-.1.08,0,.13Z"/><path class="cls-11" d="M114.92,19.42a19.07,19.07,0,0,1,7.47-10,.28.28,0,0,0-.28-.49,16.12,16.12,0,0,0-7.72,10.36.28.28,0,0,0,.53.15Z"/><path class="cls-11" d="M120,11.25a30.41,30.41,0,0,1,1.77,8,52,52,0,0,1-.54,7.37c0,.2.26.2.32,0,1.85-4.69.92-11.1-1.2-15.55-.09-.19-.42,0-.35.15Z"/><path class="cls-11" d="M118.93,24.42a22.46,22.46,0,0,1,2.36,2.88c.6,1,.94,2.06,1.47,3.06a.16.16,0,0,0,.29-.08,9,9,0,0,0-3.92-6.12c-.16-.1-.31.13-.2.26Z"/><path class="cls-11" d="M114.72,12.73c.94,1.8,3.1.84,4-.42,1.41-1.9,3.35-5.53,1.89-7.83a.14.14,0,0,0-.26.11,7.51,7.51,0,0,1-.86,5.7c-.78,1.54-2.84,4.61-4.66,2.32-.07-.09-.2,0-.15.12Z"/><path class="cls-11" d="M71.75,126.93c-2.45-.06-4.9-.1-7.35-.2-3.29-.12-5-1.63-6.56-4.47-2.6-4.84-2-9.68.75-14.27,2.15-3.63,3.53-6.93,3.48-11.23a11.33,11.33,0,0,0-4.28-9.29,29.3,29.3,0,0,0-11.3-5c-3.61-.86-7.94-1.46-11.07,1-2.78,2.22-2.93,6.22-2.51,9.49.39,3,1.89,5.62,4.86,6.53a.36.36,0,0,0,.42-.24A5.5,5.5,0,0,0,38,95.65c-.77-2.77-.84-5.61,2-7.34,4.77-2.9,8.87,1.75,10.74,5.68a15.13,15.13,0,0,1,.36,12.72c-1.19,3.12-2.22,6-1.75,9.35a24.54,24.54,0,0,0,9.73,16.07,29,29,0,0,0,8.18,4.22c2.44.81,5.91,2,8.4.9.3-.13.08-.62-.23-.53-2.68.75-6.83-.8-9.36-1.79a27.08,27.08,0,0,1-8.18-5c-4.49-4-8.29-10.65-7.69-16.87.28-3,1.85-5.62,2.7-8.45a13.31,13.31,0,0,0,0-7.78c-1.21-4.13-4.08-9.36-8.79-10-3.95-.55-7.81,2.59-7.26,6.73.13,1,.59,1.93.8,2.92.75,3.44-2.25.73-2.89-.59-1.62-3.34-1.59-9.69,1.81-11.9,3.05-2,7.21-1.11,10.48-.23A27.73,27.73,0,0,1,57,88.38c6.18,4.88,4,13.22.42,18.91-3.17,5-4,10.44-1,15.84,1.06,2,2.59,4.06,4.74,4.89,3.13,1.21,7.39.32,10.66.23a.66.66,0,0,0,0-1.32Z"/><path class="cls-11" d="M31.39,83.49a10.51,10.51,0,0,1,.74-2.24,4.94,4.94,0,0,1,2-1.87c1.39-.7,3.14-.29,4.4-1.07a.18.18,0,0,0,0-.31c-1.49-1-4.41,0-5.73,1s-2.65,3-1.77,4.53a.18.18,0,0,0,.33,0Z"/><path class="cls-11" d="M29.68,79.91a7.71,7.71,0,0,1,1.47-2.34,6.32,6.32,0,0,1,2.65-1.23c.24-.07.16-.38-.06-.41-1.92-.25-4.59,1.83-4.42,3.88a.2.2,0,0,0,.36.1Z"/><path class="cls-11" d="M34.15,101.54c2.08.93,7.15,1.24,7.16-2.22a.16.16,0,0,0-.3-.08c-1.55,3-3.93,2.4-6.79,2-.14,0-.2.21-.07.27Z"/><path class="cls-11" d="M34.89,104.5c2.91,2.25,7.81.25,8.14-3.49a.24.24,0,0,0-.45-.12,6.63,6.63,0,0,1-2.64,3.2,6.18,6.18,0,0,1-4.88.12c-.16,0-.31.18-.17.29Z"/><path class="cls-11" d="M37.85,83.13a14.76,14.76,0,0,1,2.69,1.71,14.86,14.86,0,0,0,1.56,1.61,3,3,0,0,0,2.16.41c.93-.1,1.79-.48,2.73-.53a18.49,18.49,0,0,1,2.74.33,3,3,0,0,0,2.71-.87.21.21,0,0,0-.26-.33c-1.59,1-3.06.31-4.73.27-.94,0-1.75.38-2.66.4-2.6.07-4.4-2.51-6.76-3.43-.25-.09-.4.3-.18.43Z"/><path class="cls-11" d="M53.07,100.53A2.79,2.79,0,0,1,56,101.81c.73,1.35-.17,2.86-.78,4-1,2-2.73,4.69-5.42,3.84-.45-.14-.65.58-.19.72,3.5,1.07,5.79-3,6.86-5.68.9-2.3-.5-5.58-3.43-4.51-.17.06-.16.35,0,.33Z"/><path class="cls-11" d="M64.25,134.55a2.23,2.23,0,0,1-.31-.86c.07-1.4.31-.37.66-.77s.36-.32.44-.68a3.64,3.64,0,0,0-.51-1.84,10.1,10.1,0,0,0-1-2.12.21.21,0,0,0-.38.17,14,14,0,0,0,1,2.52c.19.48.43,1.07,0,1.53-.11.12-.39.12-.54.28-.54.58,0,1.45.44,1.89.08.07.25,0,.2-.12Z"/><path class="cls-11" d="M83.07,11.25c-1.41,1.14-.66,2.55-.46,4.07.17,1.36-.76,3.48.69,4.47s3.08-.28,4.4-.75c1.84-.66,3.85-.42,5.37-1.82.28-.26-.13-.65-.42-.42C91,18.17,88.33,18.12,86.34,19c-1.31.59-3.17.55-3.25-1.65,0-.49.16-1,.14-1.47,0-1.45-1.28-3.15,0-4.44a.13.13,0,1,0-.18-.19Z"/><path class="cls-11" d="M128,100.77a16.41,16.41,0,0,0-.93,7.74c.14,2.22.31,4-.69,6a19.68,19.68,0,0,0-1.39,3.28c-1.27,4.44-.43,10.1,2.9,13.48.33.33.92-.1.66-.51-3-4.67-4.25-9.79-1.7-15a10,10,0,0,0,1.35-5.18c-.12-3.18-.64-6.3.66-9.34.25-.58-.6-1.08-.86-.5Z"/><path class="cls-11" d="M94.38,64.22c-2.78-2.21-4.23-5.72-8.16-6-.64,0-.63,1,0,1,3.51.28,5,3.77,7.45,5.73.5.4,1.22-.3.71-.7Z"/><path class="cls-11" d="M101.52,66.92a.05.05,0,0,0,0-.1.05.05,0,1,0,0,.1Z"/><path class="cls-11" d="M117.44,65.48c1.13-1.37,2.77-1.9,4.19-2.88a5,5,0,0,0,2.23-3.73c.08-.64-.92-.63-1,0-.41,3.34-4.26,3.64-6.13,5.9-.4.5.3,1.21.71.71Z"/><path class="cls-11" d="M118.41,71.57a16.85,16.85,0,0,0,7-6.61c.3-.57-.56-1.08-.86-.51a15.93,15.93,0,0,1-6.63,6.25c-.56.32-.05,1.18.51.87Z"/><path class="cls-11" d="M84.15,67.42c3.34-.22,6.25-.2,9.33,1.3.58.28,1.08-.58.5-.86-3.23-1.58-6.3-1.67-9.83-1.44-.64,0-.64,1,0,1Z"/><path class="cls-11" d="M123.45,58.87a2.19,2.19,0,0,1,.75-1.31.1.1,0,0,0-.12-.16,1.78,1.78,0,0,0-.78,1.47c0,.09.13.08.15,0Z"/><path class="cls-11" d="M89.22,32.39a3.91,3.91,0,0,0-1.14,5.33,4.08,4.08,0,0,0,5.6,1.09,4.17,4.17,0,0,0,1-5.6c-1.14-1.64-4-2.42-5.59-1a.47.47,0,0,0,.46.78c1.49-.49,3.06-.71,4.19.68a3.2,3.2,0,0,1-.66,4.46,3.33,3.33,0,0,1-4.38-.78,3.56,3.56,0,0,1,.78-4.58.23.23,0,0,0-.28-.37Z"/><path class="cls-11" d="M109.72,29.41a4.73,4.73,0,0,0-2.4,5.38,5.15,5.15,0,0,0,5,3.77,5.16,5.16,0,0,0,2.44-9.67,5.2,5.2,0,0,0-3.63-.51c-1.08.22-2.6.9-2.88,2.09a.36.36,0,0,0,.52.4,11,11,0,0,0,1.11-.71,4.89,4.89,0,0,1,1.2-.57,4.23,4.23,0,0,1,2.49,0A4,4,0,0,1,113,37.4a4.21,4.21,0,0,1-4.49-2.22A3.88,3.88,0,0,1,110.05,30c.38-.19,0-.73-.33-.56Z"/><path class="cls-11" d="M99.6,46c-.39-.41-.76-.84-1.15-1.25a2.75,2.75,0,0,0-1.1-.91.26.26,0,0,0-.32.31,2.86,2.86,0,0,0,.92,1.1c.41.39.84.76,1.25,1.15a.28.28,0,0,0,.4-.4Z"/><path class="cls-11" d="M97.57,44a12.13,12.13,0,0,1,4.12.07.26.26,0,0,0,.13-.5,8,8,0,0,0-4.35.07c-.24.06-.14.4.1.36Z"/><path class="cls-11" d="M101.85,43.91c-.75.74-1.44,1.54-2.15,2.32-.2.22.13.55.33.33.7-.79,1.43-1.57,2.08-2.39a.18.18,0,0,0-.26-.26Z"/><path class="cls-11" d="M94.54,49a3,3,0,0,0,5.32.57.3.3,0,0,0-.46-.36,2.84,2.84,0,0,1-4.48-.43c-.14-.17-.45,0-.38.22Z"/><path class="cls-11" d="M99.93,49.61a5.75,5.75,0,0,0,5.49.8,15.34,15.34,0,0,0,3.29-1.52,41.15,41.15,0,0,1,5.09-2.35,0,0,0,0,0,0-.07c-4.88-.55-8.43,5.63-13.53,2.71-.26-.14-.57.23-.33.43Z"/><path class="cls-11" d="M108.17,48.28a1.84,1.84,0,0,0,1,1.63.29.29,0,0,0,.34,0c.39-.41.85-1.2.4-1.71a.17.17,0,0,0-.26,0c-.27.4-.2.88-.54,1.27l.28-.08a1.38,1.38,0,0,1-.83-1.16c0-.22-.36-.15-.36.05Z"/><path class="cls-11" d="M102.52,46.51a97.92,97.92,0,0,1,11.34-6.29c.2-.1.06-.45-.16-.37a38.74,38.74,0,0,0-11.38,6.4c-.14.12,0,.36.2.26Z"/><path class="cls-11" d="M106.52,46.61q5.88-1.3,11.73-2.71c.18,0,.1-.3-.07-.27q-5.91,1.2-11.8,2.48c-.33.07-.19.57.14.5Z"/><path class="cls-11" d="M106.93,48.44a118.81,118.81,0,0,0,12.94-.21.25.25,0,0,0,0-.5,118.81,118.81,0,0,0-12.94-.21.46.46,0,0,0,0,.92Z"/><path class="cls-11" d="M97.17,44.59a24,24,0,0,0-15-1c-.29.08-.16.47.12.43A29.66,29.66,0,0,1,97,45.24c.42.15.59-.5.19-.65Z"/><path class="cls-11" d="M94,46.14a35.29,35.29,0,0,0-16.31,3.67c-.12.06,0,.29.1.23A42.61,42.61,0,0,1,94,46.67a.27.27,0,0,0,0-.53Z"/><path class="cls-11" d="M93.37,47.78c-3.46,1.6-7.16,3.76-9.6,6.75a.24.24,0,0,0,.34.34c3.1-2.45,6-4.87,9.54-6.6.34-.16,0-.64-.28-.49Z"/><path class="cls-11" d="M109.72,53.2c3.6-.25,8.18-1.93,10.62-4.68a.19.19,0,0,0-.23-.3c-1.65.74-3.14,1.78-4.77,2.55a51.91,51.91,0,0,1-5.68,2c-.2.07-.18.41.06.39Z"/><path class="cls-11" d="M98.57,53.65a8,8,0,0,0,7.06.16.14.14,0,0,0-.07-.25c-1.16,0-2.31.21-3.47.19s-2.31-.34-3.46-.33a.12.12,0,0,0-.06.23Z"/></svg>