<svg id="illustration" xmlns="http://www.w3.org/2000/svg" viewBox="0 0 198.43 97.6"><defs><style>.cls-1{fill:#83889b;}.cls-2{fill:#a09295;}.cls-3{fill:#2c2628;}.cls-4{fill:#95898c;}.cls-5{fill:#eaf6f5;}.cls-6{fill:#5c6e31;}.cls-7{fill:#e1d020;}.cls-8{fill:#d6662a;}.cls-9{fill:#faed25;}.cls-10{fill:#3a68b2;}.cls-11{fill:#fff;}.cls-12{fill:#833c0d;}.cls-13{fill:#221c1d;}.cls-14{fill:#5b5153;}.cls-15{fill:#62352c;}.cls-16{fill:#010101;}</style></defs><path class="cls-1" d="M104.53,51.81l8-2.37,6.28-1.08,6.59-.29a3.53,3.53,0,0,0-1.06,2.53c.12,1.41,1,4.18.81,5.9s-1.72,4.33-2.84,6a5.42,5.42,0,0,0-.06,2.16,4,4,0,0,1,1.18,2.41c0,1.19-2,3.51-2.19,4.67a41.52,41.52,0,0,0,.31,5.57s-.94,2.77-1.48,4a10.38,10.38,0,0,0-.71,2.57,16.36,16.36,0,0,1,2.11,4.19,5.84,5.84,0,0,1-.26,3l-2.44,1.64L113.9,94l-5.81,1L103,94.67l-3-.9-1.81-1.63.28-3.06,2.33-2.58s2.17-3.5,2.33-5.25.64-11.58,1.36-14.5,2.68-10,2.68-10l1.05-1.8Z"/><path class="cls-2" d="M104.53,51.81l9.33-2.65,6.38-.88,5.21-.21.1-.76-.46-2.58L125,43.09s-.32-.5-.69-.36-1.31.6-1.31.6l-7.22.68-3.21.16-3.89.86-1.77,1-1.9,0,.61,1.49,1.38,0,.63,1.54S104.81,49.7,104.53,51.81Z"/><polygon class="cls-3" points="102.45 38.23 106.8 44.17 109.73 43.55 111.62 42.71 113.28 43.09 114.84 42.99 116.13 41.13 116.96 40.88 118.86 41.88 120.54 41.46 121.4 40.46 122.44 41.1 124.54 41.46 120.48 35.72 116.86 36.14 107.01 37.24 103.92 37.75 102.45 38.23"/><path class="cls-4" d="M111.3,33.79a8.32,8.32,0,0,1,3-.11c.77.31,3,.94,2.8,1.7s-.5,1.91-1.21,2.08-2.39.42-2.39.42l-2,.13-.93-.55-1-1.07.28-1.59.58-.6Z"/><polygon class="cls-5" points="102.45 38.23 92.49 40.21 81.41 42.27 73.53 43.85 72.28 45.44 71.99 46.83 72.9 49.04 75.24 49.44 81.42 49.31 88.49 48.36 95.24 46.76 100.7 46.29 106.92 46.07 106.09 43.2 102 43.83 91.8 45.44 82.15 46.83 77.3 47.37 75.89 47.3 73.8 46.12 77.86 45.12 85.11 43.69 93.29 42.33 100 41.46 104.22 40.79 102.45 38.23"/><path class="cls-5" d="M106.92,46.07l1.5-1,2.81-.6,3.61-.43,7-.58,2-.18s.12-.59.51-.54l1.34.23,5.6-1.08,3.35-.42,6.86-5.32,8.15-7,1-.92-1-.38-.91-.85-.28-.45-1.38,1-3.31,3-6.66,5.46-3.68,2.74-.74.51-2.17.25L126.1,40l-1.87.45.31,1h-1.06l-2.08-1-.47.72-1.6.88-2.84-1.27-.87.67-.48,1.27-1.28.46-1.24.12-1-.6-1.89.84-2.93.62-.71-1Z"/><path class="cls-5" d="M120.76,35.91l1.48,2.45,4.51-.48s3.33-.5,3.95-3S132.85,24,132.85,24l.29-1.56,2-6.86s-.21-1.14-.88-1.14a5.17,5.17,0,0,0-1.82.73l-.64,3-1.16,7.3-1.71,6.78s-1,3.11-3.78,3.64A9.42,9.42,0,0,1,120.76,35.91Z"/><path class="cls-6" d="M143.28,17.63A113.54,113.54,0,0,0,122.36,20c-9.84,2.26-39.81,11.16-56.56,12.27-12.06.75-19-1.41-19-1.41l.84,1.87-.08,2.14-.6.79,1.74.31c-.05.51,11.78,1.42,19.62.53,7.81-.17,49.73-11,55.59-12.41s17.9-2.32,17.9-2.32l.86.36.37-.83.26-1.53.18-1.56Z"/><path class="cls-6" d="M42.56,18.29l.88,1.17.49,1.44-.24,1.67-.43.8.18.27,2.33-.51,20.59-5.21L85.67,13s16.62-3.93,21.53-4.43,13.18-.67,13.18-.67l.66-.58.27-.89,0-1-.5-1.16-.24-.56-4.78-.07L105,4.59,86,9,62.12,15.75l-7.35,1.44-6.28.62Z"/><polygon class="cls-7" points="120.52 3.79 121.31 5.19 121.13 7.07 120.17 8.48 123.48 9.42 129.56 9.42 129.41 7.89 129.61 6.04 130.03 4.59 126.09 3.96 122.82 3.72 120.52 3.79"/><polygon class="cls-7" points="143.17 17.31 143.52 18.21 143.34 19.77 143.08 21.3 142.72 22.13 142.42 22 141.85 21.77 142.12 22.44 144.63 23.23 147.54 23.2 150.17 23.23 152.32 22.44 153.22 21.11 153.12 19.64 152.85 18.46 152.03 17.36 150.47 17.12 148.34 17.27 146.36 17.12 144.63 17.12 143.17 17.31"/><path class="cls-8" d="M130,4.59l-.35,1.16-.27,2.14.14,1,3,.16.3,1.05-.55,2.28-.58,1.75-.51,1.05a4.93,4.93,0,0,1,2.35-.73,1.33,1.33,0,0,1,1.5,1.14l1-1.89.41-2.31L136.17,9l-1.11-1.89L133,5.39l-1.86-.67Z"/><path class="cls-8" d="M152.57,18.09l.65,2.4-.9,2-.71.58h-.89l-2.63,2.7.62,1.31,1.48,1.06,1,.3,6.24-5.71a2.2,2.2,0,0,0,.81-2.51c-.58-1.55-2.77-2.08-2.77-2.08Z"/><path class="cls-8" d="M37.58,19.15l-.67-1.33-1.2-.56-2.81.23-2.07,1-.48,2.44-.49,1.25L28.1,26l-1.87,5.11A5.34,5.34,0,0,0,29,33.87a31.36,31.36,0,0,0,5.64,1.88l1,0-1-1.42L34.31,33l.95-.09.22-1.23.23-1.11h.89l1.21.75,1.94.29,1.3-.4L41,30.1l-.84-1.29-1.18-1-2.11-1.15L36.62,26l.49-1.18.94-.75.46-.19.54-.9.17-1.23L38.7,20.2,38,19.46Z"/><polygon class="cls-9" points="41.25 30.93 46.84 30.86 47.69 32.73 47.69 34.38 47 35.66 45.81 36.36 44.34 36.47 41.25 36.44 37.28 35.99 35.27 35.35 34.48 33.67 34.48 32.77 35.26 32.93 35.71 30.59 36.6 30.59 37.19 30.95 38.35 31.42 39.25 31.55 40.32 31.45 41.25 30.93"/><polygon class="cls-9" points="37.58 19.15 38.48 19.93 39.17 21.37 39.17 22.62 38.52 23.9 39.75 24.05 41.05 24.06 42.74 23.57 43.44 23.04 43.93 21.54 43.8 19.93 43.2 18.96 42.56 18.29 37.58 19.15"/><path class="cls-10" d="M139,38.13l2.88-.38,2.58-.45,3.66-.28,2.54.17,3.1.56.9,1.31.42,1.73a4.89,4.89,0,0,1-.42,1.39,7.6,7.6,0,0,1-1.17.72l-2.22.5-7.72,1.26-6.17.85-6.49,1-2.93.33-1.49.34-.89.14-.42-1.87,0-.71,2.08-.23,4.09-.47,5.73-.94,4.31-.78,4.44-.75,2.6-.33,2.29-.1.51-.91-.78-.78-1.66,0-3.09.62-2.53.1-3.91.34-3,.67-1.06-.06Z"/><polygon class="cls-10" points="101.74 41.27 102 42.2 101.87 43.27 101.74 43.96 106.09 43.2 104.22 40.79 101.74 41.27"/><polygon class="cls-10" points="95.14 47.08 95.77 47.71 96.74 47.81 98 47.9 99.51 47.71 99.87 48.75 100.68 50.03 101.5 50.77 102.29 51.02 103.86 50.13 104.82 49.6 105.74 49.23 107.01 48.92 107.39 48.58 107.01 47.65 105.63 47.61 105.31 46.83 105.03 46.12 103.11 46.07 100 46.37 97.57 46.83 95.14 47.08"/><path class="cls-11" d="M114.56,58.86c-.88,4.35-2.75,8.45-3.08,12.89a53.63,53.63,0,0,1-.85,7.8c-.58,2.61-1.27,5.18-1.89,7.77a.19.19,0,0,0,.37.11,48.39,48.39,0,0,0,3.67-14.34,28.82,28.82,0,0,1,1.54-7.75c.71-2,1.51-4.15,1.24-6.34-.07-.52-.87-.75-1-.14Z"/><path class="cls-11" d="M107.06,59.18c-3.3,6.19-2,13.47-3.34,20.15-.65,3.36-5.55,12,.43,13.52a.27.27,0,0,0,.21-.49c-3.62-2-2-5.89-.89-8.87a27.65,27.65,0,0,0,1.61-7.3c.55-5.72.25-11.39,2.31-16.87.08-.19-.23-.32-.33-.14Z"/><path class="cls-11" d="M123.86,53.56c-.36,1,.07,2.24,0,3.3a11.74,11.74,0,0,1-1.38,4.2.36.36,0,0,0,.56.43,7.27,7.27,0,0,0,1.87-4.16c.16-1.18.25-3.08-.85-3.85a.14.14,0,0,0-.2.08Z"/><path class="cls-11" d="M110.28,46.21a47.67,47.67,0,0,0,6.06-.53,31.19,31.19,0,0,0,5.28-.62c.2-.05.23-.41,0-.44a21.52,21.52,0,0,0-5.72.2,25.16,25.16,0,0,0-5.67,1,.19.19,0,0,0,0,.38Z"/><path class="cls-11" d="M106.47,40.76a7,7,0,0,1,3.35-1c.68,0,1.49.31,2.18.28,1,0,1.36-.52,2.23-.78,1.32-.41,2.18.54,3.33.24.92-.24,1.22-1.54,2.31-1.56a.22.22,0,0,0,0-.44c-1.38-.17-2.11.8-3.8.79a5.14,5.14,0,0,0-2,.12,11.19,11.19,0,0,1-3.4.59,10.82,10.82,0,0,0-1.61,0,5.36,5.36,0,0,0-2.91,1.41c-.22.2.06.53.31.4Z"/><path class="cls-11" d="M111.3,36.32a.07.07,0,0,0,0-.14.07.07,0,0,0,0,.14Z"/><path class="cls-11" d="M110.2,36.36c.6-.19.78-.78,1.28-1.11a4,4,0,0,1,1.64-.47c.45-.08.41-.67.11-.88a2.21,2.21,0,0,0-2.52.19c-.67.47-1.5,1.44-.78,2.2a.27.27,0,0,0,.27.07Z"/><path class="cls-11" d="M100,47.94a2.59,2.59,0,0,0,1.73,2.63.29.29,0,0,0,.22-.52,3.61,3.61,0,0,1-1.06-.88,4.18,4.18,0,0,1-.47-1.23c-.06-.19-.38-.22-.42,0Z"/><path class="cls-11" d="M101.75,50.5a18.32,18.32,0,0,1,2.33-1.31,17.08,17.08,0,0,0,2.46-1,.23.23,0,0,0-.11-.43c-1.7-.19-3.78,1.32-4.86,2.5a.15.15,0,0,0,.18.23Z"/><path class="cls-11" d="M129.28,46.05A112.45,112.45,0,0,0,143,44.3c3.43-.65,7.6-1,9.94-3.95.12-.14.15-.42-.06-.51a13.47,13.47,0,0,0-3-.94.42.42,0,0,0-.22.8c1.13.43,3.13.17,1.39,1.62a7.19,7.19,0,0,1-2.61,1.1,55.82,55.82,0,0,1-5.6,1.22,132.87,132.87,0,0,1-13.49,1.83c-.37,0-.38.61,0,.58Z"/><path class="cls-11" d="M154.8,19.58a2.88,2.88,0,0,1,1,2.76c-.24,1-1,1.37-1.67,2-.15.13,0,.37.16.38,1.23,0,2.24-1.32,2.42-2.43a3.08,3.08,0,0,0-1.51-3.18c-.3-.18-.63.24-.37.47Z"/><path class="cls-11" d="M132.23,6.44a17.08,17.08,0,0,1,1.24,1.89c.34.69.39,1.45.72,2.14a.43.43,0,0,0,.78-.11c.28-1.52-1-3.63-2.24-4.42a.37.37,0,0,0-.5.5Z"/><path class="cls-11" d="M144.53,20.71a11.54,11.54,0,0,0,3.37.15c1,0,2.22.15,3.09-.44a.63.63,0,0,0,0-1.07c-.94-.51-2.05-.22-3.09-.15a11.6,11.6,0,0,0-3.37.49.53.53,0,0,0,0,1Z"/><path class="cls-11" d="M122.76,7.13a6.88,6.88,0,0,0,2.52.21,5.24,5.24,0,0,0,2.4-.29.76.76,0,0,0,0-1.31,5.69,5.69,0,0,0-2.57-.17,6.83,6.83,0,0,0-2.5.4c-.55.25-.3,1,.15,1.16Z"/><path class="cls-11" d="M117.77,4.78c-4.16-.42-9,.78-13.14,1.57C100.34,7.18,96,8,91.78,9.05a184.21,184.21,0,0,0-25.93,8.23c-.38.15-.21.77.17.62A189.15,189.15,0,0,1,91.47,9.69a130.88,130.88,0,0,1,13.31-2.6c4.24-.59,9-.6,13-1.83a.25.25,0,0,0-.06-.48Z"/><path class="cls-11" d="M137.82,19.29c-6-.58-12.19.74-18,2-6.34,1.38-12.54,3.34-18.74,5.23C88.61,30.29,76,34.27,62.89,34.7c-.63,0-.63,1,0,1,12.61-.71,24.71-4.35,36.73-8,6.08-1.84,12.18-3.55,18.38-5,6.58-1.5,13.16-1.88,19.82-2.68a.38.38,0,0,0,0-.76Z"/><path class="cls-11" d="M30.08,24.78a7.27,7.27,0,0,0-1.74,2.58,4.67,4.67,0,0,0-.72,2.85.83.83,0,0,0,1.37.36c.66-.6.82-1.72,1.16-2.53a19.42,19.42,0,0,0,1.06-2.6.68.68,0,0,0-1.13-.66Z"/><path class="cls-11" d="M37.05,33.5c.68.74,2,.67,2.89.71,1.12.06,2.6.36,3.56-.28a.66.66,0,0,0,0-1.12c-1-.62-2.46-.33-3.56-.28-.94,0-2.21,0-2.89.71a.19.19,0,0,0,0,.26Z"/><path class="cls-11" d="M39.53,21.59a3.36,3.36,0,0,0,2.26.14c1-.18.76-1.84-.24-1.75a3.42,3.42,0,0,0-2.13.76.54.54,0,0,0,.11.85Z"/><path class="cls-12" d="M37.41,18.58c-1.55-2.5-5.43-1.62-6.34,1-1.08,3.11,1.7,6.08,4.63,6.62.82.15,1.5-1.07.62-1.46-1.54-.69-3.33-1.37-3.65-3.27A2.2,2.2,0,0,1,33.79,19a2.82,2.82,0,0,1,2.7.49.68.68,0,0,0,.92-.93Z"/><path class="cls-12" d="M36.2,25.9c.2-1,1.44-1.35,2.1-2.07A2.48,2.48,0,0,0,38.94,22a3.36,3.36,0,0,0-2.38-2.88,4.27,4.27,0,0,0-3.86.34c-1.23,1-.79,2.46.06,3.52s2.13,2,3.54,1.48a2.14,2.14,0,0,0,1-3.06c-.57-1-2.22-1.71-3.25-1-1.22.86-.35,2.19.76,2.53s1.68-1.48.51-1.84v.12l-.09.73c-.18.34.3,0,.42.3l-.3.54L35,22.64a3,3,0,0,1-1.1-1.26c-.34-1.26,2.48-.64,3-.2,1.33,1.18-.22,1.94-.86,2.88A1.63,1.63,0,0,0,35.83,26a.21.21,0,0,0,.37-.05Z"/><path class="cls-12" d="M31.57,21.34a2.85,2.85,0,0,0,.17-1,.44.44,0,0,0-.66-.38.89.89,0,0,0-.48.75.79.79,0,0,0,.43.73.4.4,0,0,0,.54-.14Z"/><path class="cls-12" d="M36.74,19.48A3.07,3.07,0,0,0,38,21a.41.41,0,0,0,.55-.55A3.09,3.09,0,0,0,37,19.19a.22.22,0,0,0-.3.29Z"/><path class="cls-12" d="M33.6,29.39c-.89,0-1.3,1.12-1.25,1.9a2.43,2.43,0,0,0,1.33,2c.87.45,1.64-.9.76-1.32a1,1,0,0,1-.63-.82c0-.44.3-.79.3-1.22a.51.51,0,0,0-.51-.51Z"/><path class="cls-12" d="M34.4,32.67a1.46,1.46,0,0,0,.83-1.19,2.49,2.49,0,0,0-.48-1.64c-.7-1.12-2.26.39-1.12,1.12.43.27.31,1.1.4,1.51a.3.3,0,0,0,.37.2Z"/><path class="cls-13" d="M108.21,51.12c4-.54,8-1.24,11.93-2a.36.36,0,0,0-.09-.7,42.6,42.6,0,0,0-11.93,2.41.18.18,0,0,0,.09.34Z"/><path class="cls-13" d="M121.1,66.13a10.57,10.57,0,0,1,.06,2,18.27,18.27,0,0,0-.27,1.93c0,.25.35.45.54.22.89-1.07.69-3,.29-4.19-.11-.31-.66-.28-.62.09Z"/><path class="cls-13" d="M120.16,74.63a10.76,10.76,0,0,1-.67,4.8c-.11.31.37.62.59.34a5.61,5.61,0,0,0,.82-5.24c-.13-.38-.78-.35-.74.1Z"/><path class="cls-13" d="M118.75,87.76c1.51,2.62-4.64,3.7-6.15,4.25a.33.33,0,0,0,.09.65,11.42,11.42,0,0,0,6.18-2.2c.86-.67,1.68-2.61.07-2.95a.17.17,0,0,0-.19.25Z"/><path class="cls-13" d="M107.6,45.73c2.85-.18,5.65-1.19,8.51-1.51s5.78-.19,8.69-.32c.24,0,.32-.4.06-.44a32.3,32.3,0,0,0-9.21.09c-2.66.34-5.74.67-8.1,2a.1.1,0,0,0,0,.18Z"/><path class="cls-13" d="M109.28,37c1.78,3,7.41,1.82,8.78-.95.11-.22-.12-.51-.36-.35a9.54,9.54,0,0,1-4,1.9c-1.62.21-2.8-.53-4.31-.81a.14.14,0,0,0-.16.21Z"/><polygon class="cls-14" points="36.61 93.16 35.61 92.53 35.85 90.76 36.61 89.72 37.99 88 39.17 87.09 40.48 85.96 41.08 85.91 40.48 85.12 40.11 83.72 40.45 82.43 41.5 81.79 42.38 81.1 43.8 81.28 44.2 79.49 45.19 77.72 46.45 76.58 48.2 75.93 49.96 75.93 51.17 77.08 51.13 79.09 52.22 78.4 53.93 77.42 55.25 77.08 57.17 77.93 58.23 78.71 60.3 81.12 61.23 80.97 61.13 79.62 62.02 78.13 62.8 77.94 64.56 78.41 66.7 80.65 67.74 81.1 68.97 82.64 68.97 84.83 68.69 86.24 70.06 87.34 70.98 89.02 70.71 91.13 69.44 92.02 68.76 92.59 37.07 93.94 36.61 93.16"/><path class="cls-15" d="M46.69,78.58a2.32,2.32,0,0,0-2,2c-.15,1,.35,2.83,1.61,2.7a.79.79,0,0,0,.78-.78c0-.65-.61-1-.63-1.6a2.07,2.07,0,0,1,.68-1.35c.29-.34.13-1.06-.42-1Z"/><path class="cls-15" d="M54.44,80.21c.14.76,1.15.77,1.41,1.43a1,1,0,0,0,1.2.68,1,1,0,0,0,.68-1.2,2.77,2.77,0,0,0-1.65-1.71,1.49,1.49,0,0,0-1.19,0,.76.76,0,0,0-.45.77Z"/><path class="cls-15" d="M46.45,87.26a1.94,1.94,0,0,0-.6.79,2.28,2.28,0,0,0-.06,1.1,2.79,2.79,0,0,0,1.15,1.76c.83.62,1.94-.79,1.12-1.45a1.41,1.41,0,0,1-.53-.72,2,2,0,0,1-.1-.41,2.78,2.78,0,0,1-.1-.55.53.53,0,0,0-.88-.52Z"/><path class="cls-15" d="M40.09,87.21a2.06,2.06,0,0,0-1.72.64,3.33,3.33,0,0,0-.63.72,1.38,1.38,0,0,0-.27,1,.72.72,0,0,0,1.22.51l.1-.09-.34.2c.59-.24.75-.74,1.11-1.22a5.47,5.47,0,0,0,.87-1.17.49.49,0,0,0-.34-.61Z"/><path class="cls-15" d="M41.7,82.25a2,2,0,0,0-1.05.75,2.16,2.16,0,0,0-.25,1.45.75.75,0,0,0,.53.53.76.76,0,0,0,.93-.93,1.47,1.47,0,0,1,.22-1.14c.24-.27,0-.82-.38-.66Z"/><path class="cls-15" d="M61.42,81.74a2.52,2.52,0,0,0-.56,2.54.78.78,0,0,0,1,.32.8.8,0,0,0,.46-.93c-.07-.5-.3-.78,0-1.27s-.46-1.16-.85-.66Z"/><path class="cls-15" d="M54,90.75c.15,1.54,3.07,2.42,3.8.86.37-.79-.59-.94-1.14-1a4.32,4.32,0,0,1-1.07-.15,5.18,5.18,0,0,0-1-.3.56.56,0,0,0-.55.56Z"/><path class="cls-15" d="M63.11,91.75C64.46,92.77,68,93,69,91.4a.8.8,0,0,0-.48-1.16c-.83-.19-1.58.25-2.42.29a14.64,14.64,0,0,1-2.55-.36c-.94-.12-1,1.15-.43,1.58Z"/><path class="cls-11" d="M63.65,80.28a2.07,2.07,0,0,1,1,1.08c.4.78,1.55.23,1.37-.57A2.15,2.15,0,0,0,63.8,79.2a.55.55,0,0,0-.15,1.08Z"/><path class="cls-11" d="M52.45,79.89a3,3,0,0,0,.48-.39,2.4,2.4,0,0,1,.62-.31c.37-.15.79-.17,1-.51a.34.34,0,0,0,0-.34c-.7-1-2.6.32-2.6,1.28a.31.31,0,0,0,.46.27Z"/><path class="cls-11" d="M47.8,77.31a1.56,1.56,0,0,1,1.09.56c.31.33.3.71.77.89a.53.53,0,0,0,.59-.24l0-.08a.64.64,0,0,0,0-.64,2.15,2.15,0,0,0-2.58-1.09.31.31,0,0,0,.08.6Z"/><path class="cls-11" d="M42.42,82a.79.79,0,0,0,.53-.22c.15-.12,0-.35-.15-.36a.74.74,0,0,0-.5.13c-.19.11-.12.48.12.45Z"/><path class="cls-11" d="M41.27,87.15c.73.35,1,1.14,1.42,1.74.25.32.89.38,1-.13A1.82,1.82,0,0,0,43,87.11a2.19,2.19,0,0,0-1.61-.51c-.28,0-.43.42-.15.55Z"/><path class="cls-11" d="M47.93,87.67a10.17,10.17,0,0,0,2.8,1.85.6.6,0,0,0,.55-.15c.95-.94-2.33-2.25-2.85-2.55a.49.49,0,0,0-.5.85Z"/><path class="cls-11" d="M55.84,86.73a20,20,0,0,0,2.29,1.09.57.57,0,0,0,.55-.94A3.77,3.77,0,0,0,56.05,86c-.39,0-.59.58-.21.77Z"/><path class="cls-11" d="M63.53,87.52a3.41,3.41,0,0,1,1.35,0,4.58,4.58,0,0,1,.64.15,1.43,1.43,0,0,0,.65,0,.53.53,0,0,0,.45-.79,1.05,1.05,0,0,0-.71-.65,3,3,0,0,0-1-.16,2.81,2.81,0,0,0-1.74.78.41.41,0,0,0,.39.69Z"/><path class="cls-11" d="M121.67,57a.5.5,0,0,0,0-1,.5.5,0,0,0,0,1Z"/><path class="cls-16" d="M122,36l-.47.11s0,0,0,0l.47-.13s0,0,0,0Z"/><path class="cls-16" d="M120.92,36.06c2.46.55,5.62.18,7.23-2a10,10,0,0,0,1.43-3.69c.64-2.52,1.23-5,1.84-7.58a.17.17,0,0,0-.32-.09c-.69,2.9-1.22,5.89-2.1,8.73-.63,2-1.69,3.66-3.88,4.2a30.94,30.94,0,0,1-4.19.29c-.06,0-.08.1,0,.11Z"/><path class="cls-16" d="M131.79,18.22a4.7,4.7,0,0,0,.48-1.33c.15-.52.33-1,.45-1.58a.12.12,0,0,0-.24-.06c-.19.51-.31,1.05-.45,1.57a4.54,4.54,0,0,0-.29,1.39s0,0,0,0Z"/><path class="cls-16" d="M132.2,15.89a1.66,1.66,0,0,1,1.24-1.29,1.49,1.49,0,0,1,1.63,1c.07.19.38.11.31-.09a1.76,1.76,0,0,0-1.83-1.25,1.64,1.64,0,0,0-1.45,1.58s.08.06.1,0Z"/><path class="cls-16" d="M131.1,15.88a21.36,21.36,0,0,0,2.13-6.72.17.17,0,0,0-.11-.21,11.28,11.28,0,0,0-3.57-.18c-.18,0-.19.3,0,.3a9.5,9.5,0,0,1,2.5.06c1.14.29.65,1.21.42,2.17A42.83,42.83,0,0,1,131,15.83c0,.07.08.12.12.05Z"/><polygon class="cls-16" points="129.56 9.42 129.56 9.42 129.56 9.42 129.56 9.42"/><path class="cls-16" d="M129.65,9.42a10.06,10.06,0,0,1,.55-4.65c.08-.22-.28-.32-.36-.1a7.72,7.72,0,0,0-.36,4.77c0,.09.18.08.17,0Z"/><path class="cls-16" d="M130,4.66c5.5.76,8,6.2,5,10.84-.08.13.11.29.21.17A6.87,6.87,0,0,0,130,4.52c-.07,0-.1.13,0,.14Z"/><path class="cls-16" d="M129.69,4.29a43.28,43.28,0,0,0-9.17-.64c-.18,0-.18.29,0,.28,3.07,0,6.1.25,9.16.47.06,0,.07-.1,0-.11Z"/><path class="cls-16" d="M120.43,4.11a2.91,2.91,0,0,1-.54,4.41c-.09.07,0,.22.09.16A3,3,0,0,0,120.52,4c-.06-.06-.14,0-.09.08Z"/><path class="cls-16" d="M120.23,8.44a1.55,1.55,0,0,0-.36-.48c-.05,0-.14,0-.12.07a1.75,1.75,0,0,0,.37.5c.06.06.15,0,.11-.09Z"/><path class="cls-16" d="M119.77,8.41a25.23,25.23,0,0,0,10,1.24c.16,0,.16-.26,0-.25a49.36,49.36,0,0,1-10-1.08,0,0,0,0,0,0,.09Z"/><path class="cls-16" d="M142.57,17.33c1.29.24.75,1.89.61,2.7l-.15.89-.05.35c0,.4-.28.58-.81.55,0-.17-.3-.1-.26.07a.53.53,0,0,0,.66.41c.61-.13.63-1,.71-1.5.16-.9,1-3.57-.7-3.6-.07,0-.09.12,0,.13Z"/><path class="cls-16" d="M141.81,22.27c1.83,1.45,4.81,1,7,1.05,1.76,0,4.1.14,4.52-2,.22-1.21,0-3.35-1.22-4.05-.88-.51-2.3-.24-3.23-.21l-5.68.17a.13.13,0,0,0,0,.25l5.27-.13c2,0,4.16-.08,4.55,2.37a2.93,2.93,0,0,1-2.72,3.44c-.78.05-1.58,0-2.37,0-2,0-4.25.17-6-.91,0,0-.1,0-.06.08Z"/><path class="cls-16" d="M152.32,22.54a9.4,9.4,0,0,0,2.37,0,.11.11,0,0,0,0-.22,9.4,9.4,0,0,0-2.37,0,.1.1,0,0,0,0,.2Z"/><path class="cls-16" d="M151.13,23A8.4,8.4,0,0,0,148,25.64c-.09.12.08.3.18.17a17.42,17.42,0,0,1,3-2.74c.05,0,0-.13-.06-.1Z"/><path class="cls-16" d="M148.07,25.49a3.19,3.19,0,0,0,3.57,3c.12,0,.09-.21,0-.21a3.32,3.32,0,0,1-3.4-2.8c0-.08-.14,0-.14,0Z"/><path class="cls-16" d="M150.88,28.67a26,26,0,0,0,5-4c.91-.92,2.63-2.32,2.67-3.73.1-3-4.68-3.63-6.76-3-.19.06-.11.32.09.29a6.86,6.86,0,0,1,4.27.37c3.43,1.7,1.26,4-.26,5.55a46.86,46.86,0,0,1-5.08,4.46s0,.1.06.07Z"/><path class="cls-16" d="M135.25,15.23a13.86,13.86,0,0,0-.81,2.64c0,.08.11.1.14,0a13.9,13.9,0,0,0,.8-2.64c0-.09-.11-.12-.13,0Z"/><path class="cls-16" d="M133.05,22.4c-.69,3.06-1.18,6.17-1.75,9.26A9.75,9.75,0,0,1,130,35.82c-1.49,2.07-4.17,2.17-6.49,2.2a.11.11,0,0,0,0,.22c3-.06,6.19-.37,7.41-3.48a27.86,27.86,0,0,0,1-4.88c.46-2.47,1-4.94,1.31-7.43,0-.11-.15-.17-.18-.05Z"/><path class="cls-16" d="M122.05,35.88c-.43,0-.86,0-1.29.06-.11,0-.11.19,0,.18.43,0,.86-.12,1.29-.18a0,0,0,1,0,0-.06Z"/><path class="cls-16" d="M120.41,35.76a19.94,19.94,0,0,0,3.7,5.15c.15.17.39-.07.25-.24-1.4-1.59-2.5-3.37-3.82-5-.06-.08-.17,0-.13.1Z"/><path class="cls-16" d="M102.24,38.26a17.17,17.17,0,0,0,2.05,3,20.1,20.1,0,0,0,2.61,3.05c.12.11.33,0,.24-.18a34.11,34.11,0,0,0-2.28-2.81,31.28,31.28,0,0,0-2.52-3.1.06.06,0,0,0-.1.08Z"/><path class="cls-16" d="M102.33,38.06c2.46-.21,5-.56,7.43-.93.13,0,.09-.22,0-.22A21.64,21.64,0,0,0,102.32,38s0,.1,0,.09Z"/><path class="cls-16" d="M114.57,33.68c-1.36-.44-3.57-.43-4.64.7a1.29,1.29,0,0,0,.36,2.14c.16.06.22-.19.07-.25-1.23-.49-.36-1.73.28-2.08a4.39,4.39,0,0,1,1.11-.37,8.23,8.23,0,0,1,2.8,0c.1,0,.11-.13,0-.16Z"/><path class="cls-16" d="M110.67,36.3c1.26-.8,2.47-1.66,3.68-2.52.13-.09,0-.31-.13-.21-1.21.87-2.43,1.73-3.6,2.66,0,0,0,.09,0,.07Z"/><path class="cls-16" d="M111.64,36.8q2-1.2,4-2.49c.15-.09,0-.32-.13-.23-1.34.86-2.65,1.74-4,2.65a0,0,0,0,0,0,.07Z"/><path class="cls-16" d="M115.5,34.51a1.27,1.27,0,0,1,1.42,1.25,1.68,1.68,0,0,1-1.37,1.64c-1.14.28-2-.38-3-.77-.1,0-.16.11-.1.17,1.12,1.12,3.52,1.46,4.5,0,.76-1.13,0-2.9-1.49-2.43-.07,0-.07.15,0,.14Z"/><path class="cls-16" d="M110,34.34a1.76,1.76,0,0,0-.29,2.6c.93,1.2,2.87,1.18,4.2,1,1.06-.16,3.22-.64,3.42-2S115.4,34,114.43,33.6c-.13-.05-.22.17-.09.23a7.85,7.85,0,0,1,1.91.84c.45.17.46.56,0,1.19.21.73,0,1.15-.57,1.27a4.9,4.9,0,0,1-1.36.43,7.36,7.36,0,0,1-2.34.16c-1.47-.14-3.69-1.82-1.94-3.3,0,0,0-.11-.06-.08Z"/><path class="cls-16" d="M110.77,36.54a1.77,1.77,0,0,0,1.82-.07c.07,0,0-.17-.06-.14a3.2,3.2,0,0,1-1.73.15s-.06,0,0,.06Z"/><path class="cls-16" d="M107.28,44.08a10.34,10.34,0,0,1,2.92-.4.13.13,0,0,0,.12-.09l2.16-.24a.15.15,0,0,0,.17.1l2.65-.39a.14.14,0,0,0,.1-.14q1.23-2.72,2.16-1.24l.5.39a2.8,2.8,0,0,0,.63.23,2.57,2.57,0,0,0,1.84-.38,10.53,10.53,0,0,1,1.77-.78c.11,0,.25.41.42.44a3.54,3.54,0,0,0,2.22-.13.13.13,0,0,0-.07-.25c-2.34.67-2.31-2-4.24-.86-.2.13-.16.69-.3.77h-2.89c-.13-.12-.27-.23-.41-.34-.66,0-.56-.27-1.19.11-1.06.63-.55,2.4-2.38,2.18-.93-.11-1.21-1.1-2.15-1s-.45.42-1.14.84A16.41,16.41,0,0,1,107.25,44c-.06,0,0,.11,0,.1Z"/><path class="cls-16" d="M102.43,38.17C94.92,39.48,87.44,41,80,42.44c-1.7.32-12.18,1.36-8.88,5.71,1.09,1.44,3.69,1.36,5.28,1.42a49.53,49.53,0,0,0,9.34-.66c7.07-1.06,14-2.84,21.23-2.65.24,0,.24-.37,0-.37-10.34-.36-20.24,3.73-30.57,3.36-.7,0-1.39-.06-2.09-.14-1.93-.23-1.45.06-1.1-2.68s-.21-2.35,1.55-2.74c.78-.18,1.58-.31,2.37-.46l8.3-1.6c5.7-1.1,11.41-2.15,17.08-3.35.07,0,0-.12,0-.11Z"/><path class="cls-16" d="M106.52,46.08c5.2-2.38,11.68-2.06,17.29-2.53.27,0,.27-.45,0-.43-3.47.3-7,.55-10.43.89a15.61,15.61,0,0,0-7,1.89.1.1,0,1,0,.1.18Z"/><path class="cls-16" d="M106.16,43.25q-7.43,1-14.84,2.08l-7.9,1.16c-2.19.32-4.5.93-6.72.75a1.7,1.7,0,0,1-2-1.16l1.9-.45c1-.22,1.91-.43,2.86-.63q3.83-.82,7.68-1.5c5.12-.91,10.27-1.61,15.44-2.14.23,0,.23-.38,0-.36a219.6,219.6,0,0,0-28.92,5,.17.17,0,0,0-.08.28,5.6,5.6,0,0,0,4.54,1.29c2.79-.2,5.58-.79,8.35-1.19,6.58-1,13.15-2,19.72-3,.08,0,0-.14,0-.12Z"/><path class="cls-16" d="M101.8,41.66a5.47,5.47,0,0,0,0,1.07,4.44,4.44,0,0,0,0,1.09c0,.11.16.1.21,0a2.26,2.26,0,0,0,0-2.21s-.13,0-.14,0Z"/><path class="cls-16" d="M124,43a.72.72,0,0,1,1,.31c.08.15.3,0,.23-.13a.85.85,0,0,0-1.34-.3c-.06.06,0,.15.09.12Z"/><path class="cls-16" d="M124.86,40.18c2.74-.12,5.48-.43,8.22-.69.19,0,.2-.33,0-.31-2.75.26-5.51.48-8.23.88-.07,0-.06.13,0,.12Z"/><path class="cls-16" d="M125,43.27l-.11,0s0,.06,0,.07H125a.05.05,0,1,0,0-.1Z"/><path class="cls-16" d="M125,43c3.09-.32,6.23-.8,9.28-1.39.13,0,.1-.27,0-.25-3.08.36-6.22.87-9.26,1.5-.08,0-.06.15,0,.14Z"/><path class="cls-16" d="M133.43,38.87a150.28,150.28,0,0,0,15.38-12.43c.14-.13-.07-.34-.22-.21-4.87,4.44-10,8.55-15.22,12.54-.06,0,0,.15.06.1Z"/><path class="cls-16" d="M150.59,28.22c-5.65,4.38-10.89,9.23-16.64,13.5-.19.14,0,.46.19.31,5.68-4.19,11.68-8.57,16.54-13.72a.06.06,0,0,0-.09-.09Z"/><path class="cls-16" d="M125.57,47.38c5.45-.77,10.88-1.6,16.32-2.42l8.4-1.28c1.64-.25,3.6-.36,4.78-1.68,1.82-2-.07-4.19-2.27-4.71-4.35-1-9.51-.21-13.77.88-.16,0-.09.28.07.24a35.91,35.91,0,0,1,11.26-1.08c.9.06,3,.06,3.69.75l0,4.4a5.92,5.92,0,0,1-1.72.58c-1.65.39-3.38.54-5.06.8-7.24,1.1-14.49,2.2-21.72,3.37-.1,0-.06.16,0,.15Z"/><path class="cls-16" d="M135.89,41.11c3.29-.21,6.58-.63,9.85-1,1.29-.15,3.81-1,4.62.06s-.74.72-1.51.84l-2.88.45c-6.7,1-13.41,2.07-20.11,3.14-.18,0-.1.31.08.28,4.79-.73,9.58-1.49,14.37-2.23l6.7-1c.82-.12,4.15-.07,4.58-.92.88-1.71-1.83-1.37-2.56-1.29-4.39.45-8.8.92-13.15,1.66a0,0,0,0,0,0,.07Z"/><path class="cls-16" d="M124.76,43.36h0s0,0,0,0l0,0a.06.06,0,0,0,0-.1l0,0a.07.07,0,0,0-.11.07v0s0,.06.08,0l0-.06s0,.06,0,.07Z"/><path class="cls-16" d="M124.75,43.34l.31-.09-.2-.16a10.26,10.26,0,0,0,.69,4.76.12.12,0,0,0,.23-.06,20.33,20.33,0,0,0-.38-2,26.27,26.27,0,0,1-.23-2.66.16.16,0,0,0-.29-.07l-.18.25a0,0,0,0,0,0,.07Z"/><path class="cls-16" d="M125.45,48a61.5,61.5,0,0,0-21.64,3.86c-.21.08-.12.43.1.35a63.89,63.89,0,0,1,21.54-4,.11.11,0,0,0,0-.22Z"/><path class="cls-16" d="M104,51.92a7.76,7.76,0,0,1,3.42-2.46.15.15,0,0,0-.08-.29,5.59,5.59,0,0,0-3.42,2.68s0,.12.08.07Z"/><path class="cls-16" d="M107.65,49.31a2,2,0,0,0-.72-2,.18.18,0,1,0-.25.25,4.36,4.36,0,0,1,.91,1.76s.06,0,.06,0Z"/><path class="cls-16" d="M107,47.7a1.35,1.35,0,0,0-1.28,0c-.12.06,0,.26.1.22a1.57,1.57,0,0,1,1.11,0c.1,0,.16-.12.07-.16Z"/><path class="cls-16" d="M105.8,47.44c-.27-.4-.53-.81-.79-1.22l0,.26a.56.56,0,0,0,.17-.33A.12.12,0,0,0,105,46a.55.55,0,0,0-.31.18.2.2,0,0,0,0,.25l.83,1.2c.14.2.46,0,.33-.19Z"/><path class="cls-16" d="M99.46,47.43a4.43,4.43,0,0,0,2.35,3.74.17.17,0,0,0,.17-.3,5.66,5.66,0,0,1-2.43-3.45c0-.05-.08,0-.09,0Z"/><path class="cls-16" d="M106.08,49.14a6.29,6.29,0,0,0-4.37,3.19,0,0,0,0,0,.06,0,7.86,7.86,0,0,1,4.34-3.14,0,0,0,0,0,0-.09Z"/><path class="cls-16" d="M95.19,46.73C94,48.44,99.41,48,100,47.81a.1.1,0,0,0,0-.19c-.53,0-5.07.43-4.71-.85,0-.06-.07-.09-.1,0Z"/><path class="cls-16" d="M104.52,51.82a9.46,9.46,0,0,0,2.1,2.09l1.18,1a4.23,4.23,0,0,1,.5.45,1.16,1.16,0,0,1,.32.44c.44.47.2.82-.71,1.06a.17.17,0,0,0-.27.21c.63,1.08,1.86-.09,1.58-1S108,54.56,107.36,54a11.72,11.72,0,0,0-2.82-2.21s0,0,0,0Z"/><path class="cls-16" d="M107.89,54.86a48.2,48.2,0,0,0-3.75,12.26c-.76,4.48-.33,9.09-1.16,13.54a15.56,15.56,0,0,1-2.77,6.11c-.81,1.15-2.1,2.39-2.37,3.83-.51,2.76,2.82,3.83,4.9,4.25,4,.8,8.05.07,11.93-.84,2.32-.55,6.38-1,7.25-3.75a3.58,3.58,0,0,0-.47-2.81c-.34-.67-.86-1.25-1.22-1.92-1-1.79-.37-3.28.52-4.91a6.81,6.81,0,0,0,1.06-3.43,17.46,17.46,0,0,0-.24-2,6.07,6.07,0,0,1,1.12-5.24c.69-1,1.28-1.81,1-3-.17-.65-.68-1.14-.9-1.75-.85-2.31.14-3.11,1.25-4.63a6.39,6.39,0,0,0,1.31-4.79c-.26-2.73-1.53-5.57.56-8,.15-.19-.1-.45-.27-.27-1.53,1.6-1.47,3.67-1.14,5.75.44,2.79.73,4.94-1,7.3a6.09,6.09,0,0,0-1.56,2.88,4,4,0,0,0,.66,2.22c.89,1.74.58,2.89-.58,4.51a5.88,5.88,0,0,0-.73,1.17,6,6,0,0,0-.22,3.14,15.74,15.74,0,0,1,.37,3.13A8.75,8.75,0,0,1,120.05,81c-1.15,2.16-.92,3.56.33,5.59.73,1.18,1.42,2.59.88,4.06-.42,1.15-2.23,1.73-3.28,2.06a52,52,0,0,1-6.16,1.47,28,28,0,0,1-6.33.55,16.06,16.06,0,0,1-4-.64,8,8,0,0,1-1.58-.61l-1-.72-.13-3.27c.46-1.31,1.91-2.58,2.66-3.78a13.84,13.84,0,0,0,1.86-4.51c.92-4.25.43-8.74,1.07-13A61.68,61.68,0,0,1,108.1,55c.05-.12-.15-.2-.21-.09Z"/><path class="cls-16" d="M116.53,58c0,5.48-3.77,10-4,15.47-.14,3,0,5.89-.78,8.81a25.1,25.1,0,0,1-4.16,7.93c-.07.1.08.21.16.13,3.85-3.93,5.13-9.36,5.13-14.68a25.34,25.34,0,0,1,2-9.8c1-2.56,2-5.07,1.87-7.86a.08.08,0,1,0-.16,0Z"/><path class="cls-16" d="M120.24,3.81C107.29,2.65,94.33,6.37,82.06,10c-12.73,3.79-25.45,7.79-38.84,8.07a.1.1,0,0,0,0,.2c12.73-.08,25-3.79,37.11-7.44,13.09-4,26.11-7.37,39.91-6.94.06,0,.06-.09,0-.1Z"/><path class="cls-16" d="M42.26,18.64l.05-.17c0-.07-.11-.1-.11,0v.17a0,0,0,0,0,.06,0Z"/><path class="cls-16" d="M42.49,18.36a4.11,4.11,0,0,1,1.25,2.49,5,5,0,0,1-.59,2.49c0,.11.12.18.19.11,1.45-1.35.78-4.24-.73-5.24-.1-.07-.19.07-.12.15Z"/><path class="cls-16" d="M43.27,18.17c-2,.23-4,.58-6,1-.15,0-.08.24.06.22,2-.27,4-.61,6-1.05.07,0,.06-.15,0-.15Z"/><path class="cls-16" d="M37.4,19.27a3.09,3.09,0,0,1,1.64,2,3.52,3.52,0,0,1-.62,2.54.11.11,0,0,0,.17.13c1.6-1.49.69-4.06-1.07-4.91-.14-.06-.25.13-.12.2Z"/><path class="cls-16" d="M37.64,19.44C34.77,19,31.89,22,33,24.86c0,.09.18.09.17,0A4.65,4.65,0,0,1,34,21a4.47,4.47,0,0,1,3.64-1.47c.06,0,.08-.1,0-.11Z"/><path class="cls-16" d="M38.87,23.86a2.36,2.36,0,0,0-2.32,2.78c0,.17.27.09.25-.07A2.24,2.24,0,0,1,38.87,24a.07.07,0,0,0,0-.13Z"/><path class="cls-16" d="M41.3,30.91c-.55-2.58-2.72-3.73-5-4.74-1.53-.69-3.57-1.33-4.63-2.73-4.07-5.38,4.71-8,5.7-4.24a.18.18,0,0,0,.35-.1c-.79-3.52-6.72-2.35-7.49.69-.5,2,.73,3.77,2.26,4.9,3,2.21,7.12,2.29,8.68,6.25a.05.05,0,0,0,.1,0Z"/><path class="cls-16" d="M31.26,18.42c-1.81,4.18-3.56,8.41-5.15,12.68,0,.13.17.22.23.1,1.8-4.19,3.46-8.46,5-12.73,0-.07-.08-.12-.11,0Z"/><path class="cls-16" d="M25.74,31A12.57,12.57,0,0,0,35.88,36a.15.15,0,0,0,0-.3A14.1,14.1,0,0,1,25.82,31s-.12,0-.08.06Z"/><path class="cls-16" d="M31.89,22.34a3.76,3.76,0,0,1,3.82-3.1c.12,0,.16-.19,0-.22a3.53,3.53,0,0,0-3.94,3.3c0,.05.08.07.09,0Z"/><path class="cls-16" d="M41,31.18a3.85,3.85,0,0,1-3.85-.37c-.35-.23-.75-.64-1.21-.57a.77.77,0,0,0-.59.39c-.18.3.08,2.5-.62,2.14a.14.14,0,0,0-.14.24.63.63,0,0,0,.89-.09c.6-.63-.57-2.48,1-2.23.38.06.84.59,1.2.76a3.75,3.75,0,0,0,1.14.29,4,4,0,0,0,2.27-.46c.07,0,0-.13-.06-.1Z"/><path class="cls-16" d="M35.35,30.64c.11-1.56-2-1.94-2.8-.81A2.46,2.46,0,0,0,34,33.49a.08.08,0,0,0,.06-.14c-.9-.67-1.91-1.45-1.58-2.73.37-1.43,2.54-1.68,2.68,0a.09.09,0,0,0,.18,0Z"/><path class="cls-16" d="M34.91,32.42a1.53,1.53,0,0,0-.6,2.24c1.11,1.94,5.08,1.85,7,1.92,1.71.08,4.72.63,6-.9S47.69,32,47,30.51c-.08-.18-.35,0-.26.16,1,2.21,1.95,4.85-1.74,5.64a14,14,0,0,1-2.82,0c-1,0-2-.06-3.06-.18a16.92,16.92,0,0,1-2.54-.46c-1.33-.21-1.86-1.25-1.57-3.13a.07.07,0,0,0-.07-.12Z"/><path class="cls-16" d="M46.62,30.9A40.75,40.75,0,0,0,41,30.77.11.11,0,0,0,41,31a44.06,44.06,0,0,0,5.63,0c.06,0,.06-.11,0-.11Z"/><path class="cls-16" d="M46.82,30.93c15.28,3.86,32.1.26,47-3.59C110,23.16,126.18,18,143.08,17.75a.12.12,0,1,0,0-.24c-16,.19-31.28,4.83-46.59,8.85A182.53,182.53,0,0,1,72,31.42a90.57,90.57,0,0,1-25.15-.62.07.07,0,0,0,0,.13Z"/><path class="cls-16" d="M47,35.75c15.36,3.18,31.42,0,46.36-3.77,16-4.1,31.87-9.28,48.51-10.09a.13.13,0,0,0,0-.25C109.6,23.2,79.82,40.9,47,35.57c-.12,0-.17.16-.05.18Z"/><path class="cls-16" d="M102.79,28c9.57-2.09,19.19-4.28,28.66-6.79.06,0,0-.11,0-.09-9.58,2-19.16,4.41-28.65,6.85,0,0,0,0,0,0Z"/><path class="cls-16" d="M134.66,20.8a1.71,1.71,0,0,0,.18-.2.07.07,0,0,0-.1-.09,1.06,1.06,0,0,0-.2.17.09.09,0,0,0,.12.12Z"/><path class="cls-16" d="M38.7,23.54c.11,0,.22,0,.34,0,.22.19.16.37-.18.51,0,0,0,.09,0,.07a.53.53,0,0,0,.35-.63,0,0,0,0,0,0,0l-.51,0c-.05,0-.05.06,0,.06Z"/><path class="cls-16" d="M39,24a5.62,5.62,0,0,0,4.45-.71.08.08,0,0,0-.08-.14,5.85,5.85,0,0,1-4.34.74A.06.06,0,0,0,39,24Z"/><path class="cls-16" d="M43.93,23.67c12.67-3.13,25.3-6.39,37.95-9.58S107.25,7.62,120.38,8c.12,0,.12-.19,0-.2-12.81-.39-25.26,2.72-37.58,5.84-13,3.28-26,6.5-38.9,9.85-.09,0,0,.16,0,.14Z"/><path class="cls-16" d="M53.14,19.7a151.05,151.05,0,0,0,32.92-9.43c.11,0,.07-.23,0-.19-5.42,1.85-10.78,3.78-16.28,5.37S58.65,18.21,53.1,19.58c-.08,0,0,.14,0,.12Z"/><path class="cls-16" d="M88.69,9.55c7-1.5,13.84-3,20.94-3.94a.1.1,0,0,0,0-.2A101.22,101.22,0,0,0,88.68,9.49s0,.07,0,.06Z"/><path class="cls-16" d="M122.76,4.75a4.66,4.66,0,0,1,.5,2.61.07.07,0,0,0,.14,0,3.7,3.7,0,0,0-.52-2.69.07.07,0,0,0-.12.06Z"/><path class="cls-16" d="M125,4.74a6.69,6.69,0,0,1,.29,3c0,.13.22.17.24,0a5.72,5.72,0,0,0-.35-3.06c0-.11-.22-.07-.18,0Z"/><path class="cls-16" d="M144.65,18.54a2.47,2.47,0,0,1-.18,2.45c-.13.2.18.38.31.19a2.65,2.65,0,0,0,.15-2.8c-.11-.19-.36,0-.28.16Z"/><path class="cls-16" d="M148.2,19a3.76,3.76,0,0,1,.31,1.87,9.12,9.12,0,0,1-.64,1.77c0,.09.09.19.17.13,1.12-.81,1-2.8.41-3.87-.07-.14-.31,0-.25.1Z"/><path class="cls-16" d="M39.87,19a8.56,8.56,0,0,0,.67,2c.08.16.29.05.27-.11a8.93,8.93,0,0,0-.73-2c-.06-.12-.24,0-.21.09Z"/><path class="cls-16" d="M42.88,31.11a8.84,8.84,0,0,1,0,1.15,9.17,9.17,0,0,1-.28,1.12.11.11,0,0,0,.2.08A2.41,2.41,0,0,0,43,31.08a.07.07,0,0,0-.12,0Z"/><path class="cls-16" d="M39.8,33.2a16.59,16.59,0,0,0-.32,2.32.1.1,0,0,0,.19,0,14.66,14.66,0,0,0,.38-2.28c0-.17-.22-.24-.25-.07Z"/><path class="cls-16" d="M30,24.38c-.67,1.45-1.32,2.93-1.93,4.41,0,.09.11.15.15.07.65-1.47,1.27-3,1.87-4.45,0-.05-.07-.08-.09,0Z"/><path class="cls-16" d="M30.92,26c-.78,1.71-1.57,3.41-2.29,5.13-.05.12.16.21.21.09.77-1.7,1.47-3.44,2.19-5.17,0-.06-.08-.11-.11-.05Z"/><path class="cls-16" d="M27.19,31a5,5,0,0,0,4.29,2.29c.08,0,.11-.13,0-.14a6,6,0,0,1-4.21-2.21c0-.07-.15,0-.1.06Z"/><path class="cls-16" d="M73.13,44.92a1.65,1.65,0,0,0-.94,1.68A1.56,1.56,0,0,0,73.53,48a.07.07,0,0,0,0-.14c-.51-.26-1-.53-1.14-1.14A1.58,1.58,0,0,1,73.19,45c.07,0,0-.13-.06-.1Z"/><path class="cls-16" d="M109.28,47.37a31.41,31.41,0,0,1,9-.77c.21,0,.2-.31,0-.33a24.46,24.46,0,0,0-9,1c-.08,0,0,.15,0,.13Z"/><path class="cls-16" d="M116.13,36.32c1.24-.08,2.49-.28,3.73-.46.14,0,.11-.26,0-.25-1.24.16-2.5.29-3.73.55-.09,0-.07.16,0,.16Z"/><path class="cls-16" d="M107.78,37.46a8.48,8.48,0,0,0,1.66,5.59c.08.09.25,0,.21-.12-.35-.9-.83-1.74-1.12-2.67a24.53,24.53,0,0,1-.6-2.83c0-.09-.15-.06-.15,0Z"/><path class="cls-16" d="M111.27,37.76a15.48,15.48,0,0,0,1.16,2.3,18.43,18.43,0,0,0,1.34,2.22c.08.1.25,0,.21-.12a17.46,17.46,0,0,0-1.25-2.28,14.75,14.75,0,0,0-1.41-2.15s-.06,0,0,0Z"/><path class="cls-16" d="M115.73,37.64a22.06,22.06,0,0,0,1.87,3.57.16.16,0,1,0,.28-.16,21.79,21.79,0,0,0-2-3.45c0-.05-.12,0-.1,0Z"/><path class="cls-16" d="M118.1,36.22l0-.17c0-.08-.13-.08-.12,0l0,.17a0,0,0,0,0,.08,0Z"/><path class="cls-16" d="M118,36.25a25.24,25.24,0,0,0,1.47,5c.08.2.41.11.33-.09a29.52,29.52,0,0,1-1.56-4.94c0-.15-.27-.09-.24.07Z"/><path class="cls-16" d="M119.27,36.28a7.66,7.66,0,0,0,2.39,4.26c.1.09.3,0,.2-.15-.45-.63-1-1.17-1.4-1.83a11.58,11.58,0,0,1-1.06-2.32.07.07,0,0,0-.13,0Z"/><path class="cls-16" d="M123.52,40.56a31.66,31.66,0,0,0,5-.46.13.13,0,0,0,0-.26,29.51,29.51,0,0,0-5,.53c-.11,0-.08.19,0,.19Z"/><path class="cls-16" d="M124.4,43.28c2.76-.44,5.53-.86,8.28-1.4.07,0,0-.12,0-.11-2.77.4-5.52.92-8.27,1.41-.07,0,0,.11,0,.1Z"/><path class="cls-16" d="M34.48,93.91c12.36,0,24.76-.76,37.12-1.18a.16.16,0,0,0,0-.32c-12.36.41-24.78.52-37.12,1.31a.1.1,0,0,0,0,.19Z"/><path class="cls-16" d="M36.68,93c-2.68-1.22,1-3.7,1.75-4.63.24-.3.42-.64.64-.94,1.29-1.72,3.36-2,4.75-.3s.46,4.32,2.4,5.61c.14.09.31-.12.18-.22-2.06-1.68-.89-4.82-3.2-6.36a2.84,2.84,0,0,0-3.47.1c-.91.73-1.53,1.83-2.38,2.63a6.58,6.58,0,0,0-1.71,1.78,1.74,1.74,0,0,0,.93,2.58c.15,0,.26-.19.11-.25Z"/><path class="cls-16" d="M46.41,92.54a3.33,3.33,0,0,0,.16.71c0,.07.16.07.15,0a3.64,3.64,0,0,0-.19-.72.06.06,0,1,0-.12,0Z"/><path class="cls-16" d="M44.61,87c.2-3.84,4.59-.33,5.68.43a7.75,7.75,0,0,1,2,1.47c1.12,1.57,0,2.82-.92,3.91-.16.18.11.46.28.27.85-1,1.93-2.27,1.43-3.65s-2.24-2.13-3.27-2.84-2.51-1.95-4-1.57a1.63,1.63,0,0,0-1.3,2,.06.06,0,0,0,.11,0Z"/><path class="cls-16" d="M51.93,88.58c1.43-2,3.13-4.31,5.87-2.73,2.21,1.28,4.25,4.23,2.2,6.51-.1.11,0,.31.17.22,2.64-1.79.32-5.18-1.5-6.56-2.9-2.2-5.44-.39-6.87,2.48a.08.08,0,0,0,.13.08Z"/><path class="cls-16" d="M60.64,88.58a5,5,0,0,1,5.39-3c2.78.36,7.14,3.91,3.35,6.37a.12.12,0,0,0,.09.22,2.5,2.5,0,0,0,1.79-2.58c0-1.66-1.41-2.94-2.78-3.66-2.85-1.51-7.14-1-8,2.63,0,.09.11.15.15.06Z"/><path class="cls-16" d="M44.92,85.28a7.06,7.06,0,0,1-.35-6.08,5.34,5.34,0,0,1,2.18-2.54c1.72-.94,4.74-.23,4.18,2.37-.06.27.35.39.41.11.69-3.2-3.11-4.13-5.27-2.55a6.51,6.51,0,0,0-1.32,8.79.1.1,0,0,0,.17-.1Z"/><path class="cls-16" d="M54,85.47c-.93-1.41-2.36-2.56-2.47-4.38-.18-2.68,1.84-3.11,3.79-4,0,0,0-.1,0-.1a4.12,4.12,0,0,0-4.09,3c-.38,2.11,1.16,4.26,2.77,5.45,0,0,0,0,0,0Z"/><path class="cls-16" d="M55,77.15a10.94,10.94,0,0,1,3.15,1.75c.8.68,1.3,1.58,2,2.3.07.07.22,0,.18-.11a6,6,0,0,0-2.21-2.64A7.87,7.87,0,0,0,55.09,77a.1.1,0,1,0-.05.19Z"/><path class="cls-16" d="M60.61,86.2C60,84.38,59.22,81,62.12,80.73a.15.15,0,0,0,0-.29,2.45,2.45,0,0,0-2.23,1.73c-.5,1.35.07,2.83.61,4.08,0,.07.13,0,.11,0Z"/><path class="cls-16" d="M61.29,80.94c-1.17-1.8,1-3.23,2.65-2.63s2.23,2.12,2.8,3.54c.1.23.49.13.39-.11-.76-1.85-2.11-4.29-4.51-4-1.47.21-2.5,2-1.43,3.23a.06.06,0,0,0,.1-.07Z"/><path class="cls-16" d="M66.66,80.8a3.09,3.09,0,0,1,1.73,4.73c-.14.22.19.4.33.2a3.37,3.37,0,0,0-2-5.23.16.16,0,0,0-.08.3Z"/><path class="cls-16" d="M43.82,81.24a2.68,2.68,0,0,0-3.38.91A3,3,0,0,0,41,86c.17.14.41-.1.25-.25a2.63,2.63,0,0,1-.34-3.63,3.19,3.19,0,0,1,2.94-.84c.05,0,.06-.06,0-.08Z"/><path class="cls-16" d="M40.85,87.5a1,1,0,0,1,.88-.15c.18.06.27.18.47.2,0,0,.1,0,.1-.1,0-.33-.39-.45-.67-.47a1,1,0,0,0-.9.4c0,.07.05.17.12.12Z"/><path class="cls-16" d="M42.35,90.23a1.19,1.19,0,0,1,.66.59c.1.23.05.46.13.68a.12.12,0,0,0,.2.06c.52-.62-.35-1.47-1-1.54-.12,0-.13.17,0,.21Z"/><path class="cls-16" d="M45.8,87.19l.67-.31-.17,0a3.17,3.17,0,0,0,.8.66.09.09,0,0,0,.12-.13,3.12,3.12,0,0,0-.73-.72.13.13,0,0,0-.17,0L45.7,87a.1.1,0,0,0,.1.17Z"/><path class="cls-16" d="M50.4,89.77a2,2,0,0,1,.25,1,6.42,6.42,0,0,0-.1.75.13.13,0,0,0,.21.09c.53-.47.17-1.46-.21-1.91-.07-.09-.2,0-.15.11Z"/><path class="cls-16" d="M53.22,87.83A1.72,1.72,0,0,1,54.71,87a.14.14,0,1,0,0-.28,1.7,1.7,0,0,0-1.63,1c0,.09.09.14.14.06Z"/><path class="cls-16" d="M55.41,86.31a1.92,1.92,0,0,1,1.05.25,7.55,7.55,0,0,1,.74.64.13.13,0,0,0,.21-.12c-.17-.84-1.31-1.12-2-1a.11.11,0,0,0,0,.22Z"/><path class="cls-16" d="M59.19,89.22a2.44,2.44,0,0,1,.09,1.23c-.06.3-.28.56-.26.86a.11.11,0,0,0,.13.11c.76-.31.56-1.74.21-2.27a.09.09,0,0,0-.17.07Z"/><path class="cls-16" d="M54.83,90.42c0,.23,0,.45,0,.68a.14.14,0,0,0,.13.14l.5,0c.18,0,.17-.25,0-.27l-.5,0,.14.13c0-.23-.07-.46-.1-.69a.06.06,0,0,0-.12,0Z"/><path class="cls-16" d="M68.71,88.05a2.21,2.21,0,0,1,.6,1.53,1.82,1.82,0,0,1-.2.8,1,1,0,0,0-.19.46.11.11,0,0,0,.14.1c.54-.12.66-1,.63-1.51a1.83,1.83,0,0,0-.89-1.49.07.07,0,0,0-.09.11Z"/><path class="cls-16" d="M63.69,87.54a2.75,2.75,0,0,0,.94-.18c.12,0,.05-.23-.06-.23a2.61,2.61,0,0,0-.91.2.11.11,0,0,0,0,.21Z"/><path class="cls-16" d="M63.23,90l-.34.44a.16.16,0,0,0,.07.26,8.44,8.44,0,0,1,1,.41c.25.13.41-.29.15-.35s-.7-.24-1.05-.36l.09.23c.11-.17.21-.34.31-.51s-.12-.25-.21-.12Z"/><path class="cls-16" d="M62.5,80.25c.14-.23.26-.46.39-.69h-.23a14,14,0,0,0,.88,1.15c.15.18.41-.08.26-.26a13.4,13.4,0,0,0-.93-1,.13.13,0,0,0-.21,0c-.12.25-.24.49-.35.75,0,.11.13.17.19.08Z"/><path class="cls-16" d="M61.58,83.19l-.08,0a.13.13,0,0,0-.06.11c0,.52.48,1.28,1.06,1,.08,0,0-.15,0-.18-.31-.13-.64-.18-.75-.57,0-.16,0-.24-.1-.36s0,0,0,0Z"/><path class="cls-16" d="M67.15,82.84a2.88,2.88,0,0,0-.21,1.08c0,.11.18.19.23.06a3,3,0,0,0,.15-1.12.09.09,0,0,0-.17,0Z"/><path class="cls-16" d="M54.41,80.06c.05-.23.22-.7.49-.68a2.48,2.48,0,0,1,.73.45c.22.18.44-.18.22-.28s-.79-.61-1.14-.39a1,1,0,0,0-.44.88.07.07,0,0,0,.14,0Z"/><path class="cls-16" d="M45,80.5a1,1,0,0,0,.17,1.43c.15.1.33-.13.19-.25a.85.85,0,0,1-.24-1.09c0-.07-.06-.15-.12-.09Z"/><path class="cls-16" d="M69.32,92.68a3.8,3.8,0,0,0-2.88,1.75s0,.11.08.07a6.09,6.09,0,0,1,1.23-1.15,4.7,4.7,0,0,1,1.58-.58s0-.1,0-.09Z"/><path class="cls-16" d="M66.49,93A27.18,27.18,0,0,0,64,94.8a.05.05,0,0,0,.06.08,25,25,0,0,0,2.47-1.75c.06,0,0-.14-.05-.1Z"/><path class="cls-16" d="M64.17,93.34a18.71,18.71,0,0,0-2,1.22.07.07,0,0,0,.07.11A16.23,16.23,0,0,0,64.2,93.4a0,0,0,1,0,0-.06Z"/><path class="cls-16" d="M62.78,92.84a25.57,25.57,0,0,0-2.29,1.41s0,.1,0,.07a24.16,24.16,0,0,0,2.28-1.42s0-.09,0-.06Z"/><path class="cls-16" d="M60.3,93a23,23,0,0,0-2.11,1.43s0,.1.06.08a24.94,24.94,0,0,0,2.12-1.39c.07-.05,0-.17-.07-.12Z"/><path class="cls-16" d="M57.66,93.7l-1,.54c-.07,0,0,.14.07.11l1.06-.51c.1,0,0-.19-.08-.14Z"/><path class="cls-16" d="M56.1,93.19a4.53,4.53,0,0,0-2.3,1.25s0,.1.05.07a8,8,0,0,1,2.28-1.22.05.05,0,1,0,0-.1Z"/><path class="cls-16" d="M53.79,93.35c-.58.35-1.19.68-1.75,1.07a.06.06,0,1,0,.06.1c.61-.31,1.18-.69,1.77-1,.08,0,0-.18-.08-.13Z"/><path class="cls-16" d="M52.2,93.34c-.72.51-1.45,1-2.12,1.6,0,0,0,.12.07.08.73-.48,1.42-1,2.11-1.6.05,0,0-.12-.06-.08Z"/><path class="cls-16" d="M49.94,93.53A3.29,3.29,0,0,0,48.17,95s0,.08.06,0A4.3,4.3,0,0,1,50,93.65c.07,0,0-.15,0-.12Z"/><path class="cls-16" d="M47.28,93.52a17.39,17.39,0,0,0-2.15,1.57c-.07.06,0,.18.1.13a17.4,17.4,0,0,0,2.12-1.61s0-.12-.07-.09Z"/><path class="cls-16" d="M45.52,93.3a4.32,4.32,0,0,0-2.28,1.86s0,.11.09.06a7.06,7.06,0,0,1,2.23-1.83s0-.11,0-.09Z"/><path class="cls-16" d="M43.56,93.67c-.53.41-1.08.81-1.59,1.25-.06.06,0,.17.09.12.55-.38,1.07-.82,1.6-1.24.07-.06,0-.19-.1-.13Z"/><path class="cls-16" d="M41.51,93.78a0,0,0,0,0,0,0s0,0,0,0Z"/><path class="cls-16" d="M40.24,93.88c-.53.35-1.1.67-1.6,1.06-.08.06,0,.18.1.13.55-.31,1.06-.71,1.58-1.06.08-.06,0-.19-.08-.13Z"/><path class="cls-16" d="M38,94.22a13.47,13.47,0,0,0-1.22.72.06.06,0,0,0,.06.11A11.6,11.6,0,0,0,38,94.37c.1-.05,0-.21-.09-.15Z"/><path class="cls-16" d="M37.62,93.68a5.4,5.4,0,0,0-3,2c0,.06,0,.12.1.07a8.22,8.22,0,0,1,2.95-2c.08,0,.05-.15,0-.12Z"/><path class="cls-16" d="M34.4,94.05a24.5,24.5,0,0,0-1.91,1.6c-.05.06,0,.16.08.11a24.79,24.79,0,0,0,2-1.57c.1-.08,0-.22-.15-.14Z"/></svg>