<svg xmlns="http://www.w3.org/2000/svg" viewBox="0 0 426.44 405.2"><defs><style>.cls-1{fill:#a7a7a7;}</style></defs><g id="Layer_2" data-name="Layer 2"><g id="Layer_1-2" data-name="Layer 1"><path d="M393.8,1c-8.29,2.07-31.61,3.62-43.53,3.62H60.62C40.41,4.66,19.17,2.59,0,0V57.51c22.28-1.55,40.41-3.1,60.62-3.1H345.09c-15,29.53-60.62,80.83-105.7,107.26l43,34.71c55.45-39.38,104.67-105.18,127-143,4.15-6.22,12.44-16.06,17.1-21.76Z"/><path class="cls-1" d="M217.11,100.52c0,135.24-7.78,234.73-144,304.68L25.39,366.34A197,197,0,0,0,75.13,341c74.1-47.67,86-113,86-199,0-14-.51-26.43-3.1-41.46Z"/></g></g></svg>