<svg xmlns="http://www.w3.org/2000/svg" viewBox="0 0 426.44 405.2"><g id="Layer_2" data-name="Layer 2"><g id="Layer_1-2" data-name="Layer 1"><path d="M426.44,31.61c-4.66,5.7-12.95,15.54-17.1,21.76-22.28,37.83-71.5,103.63-126.95,143l-43-34.71c45.08-26.43,90.67-77.73,105.7-107.26H60.62C40.42,54.41,22.28,56,0,57.51V0C19.17,2.59,40.42,4.66,60.62,4.66H350.27c11.92,0,35.24-1.55,43.53-3.62ZM217.11,100.52c0,135.24-7.78,234.73-144,304.68L25.39,366.34A196.83,196.83,0,0,0,75.13,341c74.1-47.67,86-113,86-199,0-14-.51-26.43-3.1-41.46Z"/></g></g></svg>