<svg xmlns="http://www.w3.org/2000/svg" viewBox="0 0 409.12 405.2"><defs><style>.cls-1{fill:#a7a7a7;}</style></defs><g id="Layer_2" data-name="Layer 2"><g id="Layer_1-2" data-name="Layer 1"><path d="M328.28,0c-24.5,10.78-78.4,22.05-124.95,28.42-53.4,7.84-128.86,9.31-166.1,7.84L49.48,81.33c35.77-.49,89.18-2,137.69-6.85l50.46-5.88a923.17,923.17,0,0,0,90.65-18.13c7.84-2,18.61-4.41,31.84-7.84Z"/><path class="cls-1" d="M409.12,153.36v50c-11.76-1-27.44-1.47-40.18-1.47H236.65c-6.37,86.72-42.14,154.34-125.43,203.33l-49-33.31c75.95-35.77,116.12-89.18,123.47-170H44.58c-15.18,0-32.33.49-44.58,1.47V152.87a391.06,391.06,0,0,0,44.09,2.45H187.17V74.48l50.46-5.88v86.72H368C378.25,155.32,398.34,154.34,409.12,153.36Z"/></g></g></svg>