<svg xmlns="http://www.w3.org/2000/svg" viewBox="0 0 409.12 405.2"><defs><style>.cls-1{fill:#a7a7a7;}</style></defs><g id="Layer_2" data-name="Layer 2"><g id="Layer_1-2" data-name="Layer 1"><path d="M328.28,0c-24.5,10.78-78.4,22.05-124.95,28.42-53.4,7.84-128.86,9.31-166.09,7.84L49.48,81.33c35.77-.49,89.18-2,137.69-6.85l50.46-5.88a923.17,923.17,0,0,0,90.65-18.13c7.84-2,18.61-4.41,31.84-7.84ZM368,155.32H44.09A391.2,391.2,0,0,1,0,152.87v50.47c12.25-1,29.4-1.47,44.58-1.47H368.94c12.74,0,28.42.49,40.18,1.47v-50C398.34,154.34,378.25,155.32,368,155.32Z"/><path class="cls-1" d="M236.65,201.87c-6.37,86.72-42.13,154.34-125.43,203.33l-49-33.31c75.95-35.77,116.13-89.18,123.47-170Z"/><polygon class="cls-1" points="237.63 68.6 237.63 155.32 187.17 155.32 187.17 74.48 237.63 68.6"/></g></g></svg>