<svg xmlns="http://www.w3.org/2000/svg" viewBox="0 0 401.91 310.52"><defs><style>.cls-1{fill:#a7a7a7;}</style></defs><g id="Layer_2" data-name="Layer 2"><g id="Layer_1-2" data-name="Layer 1"><path d="M334,2.39H72.25c-11,0-29.67-1-42.11-2.39V52.15c12-1.43,31.58-1.91,42.11-1.91H334A427.5,427.5,0,0,1,377,52.15V0A404.12,404.12,0,0,1,334,2.39Z"/><path class="cls-1" d="M401.91,256v54.54c-12.92-1.43-31.58-1.91-41.63-1.91H44.5c-13.88,0-29.19.48-44.5,1.91V256a283.13,283.13,0,0,0,44.5,3.35H173.21V50.24h52.15V259.33H360.28C375.59,259.33,389.47,257.41,401.91,256Z"/></g></g></svg>