<svg xmlns="http://www.w3.org/2000/svg" viewBox="0 0 499.76 405.2"><defs><style>.cls-1{fill:#a7a7a7;}</style></defs><g id="Layer_2" data-name="Layer 2"><g id="Layer_1-2" data-name="Layer 1"><path d="M144.42,6.88C137,75.65,114.05,159.9,88.83,221.8,68.77,270.52,36.1,331.27,0,378.84L62.47,405.2c30.94-44.71,63.61-106.6,84.25-160.48,22.35-56.16,43-138.69,51-175.94,2.3-12.61,7.46-34.39,11.47-48.72Z"/><path class="cls-1" d="M499.76,382.28l-65.91,21.2c-14.9-63-39-138.12-62.47-199.44C349,144.43,312.92,62.47,288.28,19.49L347.31,0c23.5,43,61.32,126.09,84.25,184C453.34,238.42,483.72,327.83,499.76,382.28Z"/></g></g></svg>