<svg xmlns="http://www.w3.org/2000/svg" viewBox="0 0 499.77 405.2"><g id="Layer_2" data-name="Layer 2"><g id="Layer_1-2" data-name="Layer 1"><path d="M144.43,6.88l64.76,13.18c-4,14.33-9.17,36.11-11.46,48.72-8,37.25-28.66,119.78-51,175.94C126.09,298.6,93.42,360.49,62.47,405.2L0,378.84c36.11-47.57,68.77-108.32,88.83-157C114.05,159.9,137,75.65,144.43,6.88ZM288.28,19.49,347.31,0c23.5,43,61.33,126.09,84.26,184,21.77,54.45,52.15,143.86,68.2,198.31l-65.91,21.2c-14.9-63-39-138.12-62.47-199.44C349,144.43,312.93,62.47,288.28,19.49Z"/></g></g></svg>