<svg xmlns="http://www.w3.org/2000/svg" viewBox="0 0 599.55 405.2"><g id="Layer_2" data-name="Layer 2"><g id="Layer_1-2" data-name="Layer 1"><path d="M50,189.12c31.34-31.34,86.69-102,130-153.38,37.35-44,68.69-48.69,120-6.67,42,35.34,94.71,92,137.39,137.38,44.68,48,114,122,162.06,178.73l-55.36,60c-45.35-57.35-105.37-126.71-147.38-174.06-43.35-50.69-99.37-111.37-126-134-26-22-36-21.34-57.35,4.67-29.34,36.68-81.36,106-110,142.72-14.67,19.34-30,40.68-40.68,56L0,235.81C18,220.47,31.34,207.8,50,189.12Z"/></g></g></svg>