<svg xmlns="http://www.w3.org/2000/svg" viewBox="0 0 333.64 405.2"><defs><style>.cls-1{fill:#a7a7a7;}</style></defs><g id="Layer_2" data-name="Layer 2"><g id="Layer_1-2" data-name="Layer 1"><path d="M299.14,67.45A386.39,386.39,0,0,1,249.2,93.19C198.74,114.3,118.42,140.05,56.64,155v53c65.39-17,155.49-44.27,211.09-66.41,16-6.18,36.56-15.45,53.55-22.14Z"/><path class="cls-1" d="M333.64,335.69V394.9c-46.34,6.7-124.08,10.3-180.72,10.3-31.41,0-62.3-1.54-83.92-5.15-41.71-7.72-65.39-28.31-65.39-71.56V46.85A373.07,373.07,0,0,0,0,0H60.24a345.52,345.52,0,0,0-3.6,46.85V313.56c0,24.19,10.81,30.89,35,35.52,16,2.58,40.16,3.61,64.36,3.61C210.07,352.69,290.9,347,333.64,335.69Z"/></g></g></svg>