<svg xmlns="http://www.w3.org/2000/svg" viewBox="0 0 333.63 405.2"><g id="Layer_2" data-name="Layer 2"><g id="Layer_1-2" data-name="Layer 1"><path d="M56.63,313.56c0,24.19,10.82,30.89,35,35.52,16,2.58,40.16,3.61,64.35,3.61,54.06,0,134.9-5.67,177.63-17V394.9c-46.34,6.7-124.08,10.3-180.72,10.3-31.4,0-62.29-1.54-83.92-5.15C27.29,392.33,3.6,371.74,3.6,328.49V46.85A373,373,0,0,0,0,0H60.24a345.5,345.5,0,0,0-3.61,46.85V155c61.79-14.93,142.11-40.68,192.56-61.79a385.84,385.84,0,0,0,49.95-25.74l22.14,52c-17,6.69-37.59,16-53.55,22.14C212.12,163.73,122,191,56.63,208Z"/></g></g></svg>