<svg xmlns="http://www.w3.org/2000/svg" viewBox="0 0 427.22 405.2"><defs><style>.cls-1{fill:#a7a7a7;}</style></defs><g id="Layer_2" data-name="Layer 2"><g id="Layer_1-2" data-name="Layer 1"><path d="M366.05,83.68H62.15a323.26,323.26,0,0,1-44-2.93v51.38c13.7-1,29.36-1.47,44.53-1.47H193.3v2l49.92-2H366.54c12.23,0,28.87,0,43.06,1V81.24A435.33,435.33,0,0,1,366.05,83.68Z"/><path class="cls-1" d="M427.22,310.75l-45.51,25C361.64,295.58,325.92,235.39,301,205l42.09-23C369,213.36,407.64,275,427.22,310.75Z"/><path class="cls-1" d="M136,203.58c-21.53,42.58-67,105.7-93.95,135.06L0,310.26c32.3-30.83,72.92-87.11,92.49-127.72Z"/><path class="cls-1" d="M247.13,0c-1.47,6.85-3.91,27.41-3.91,38.66v45H193.3V38.17c0-11.25-2-30.34-3.92-38.17Z"/><path class="cls-1" d="M243.22,130.66V363.6c0,26.92-14.2,41.6-46,41.6-23,0-51.88-1-73.9-3.43l-4.4-48.44c21,3.91,43.06,5.87,55.78,5.87s18.11-5.39,18.11-18.6c.49-23,.49-184.49.49-208Z"/></g></g></svg>