<svg xmlns="http://www.w3.org/2000/svg" viewBox="0 0 427.22 405.2"><defs><style>.cls-1{fill:#a7a7a7;}</style></defs><g id="Layer_2" data-name="Layer 2"><g id="Layer_1-2" data-name="Layer 1"><path d="M366.05,83.68H243.22v-45c0-11.25,2.44-31.81,3.91-38.66H189.38c2,7.83,3.92,26.92,3.92,38.17V83.68H62.15a323.26,323.26,0,0,1-44-2.93v51.38c13.7-1,29.36-1.47,44.53-1.47H193.3v2c0,23.49,0,185-.49,208,0,13.21-5.38,18.6-18.11,18.6s-34.74-2-55.78-5.87l4.4,48.44c22,2.45,50.9,3.43,73.9,3.43,31.8,0,46-14.68,46-41.6V130.66H366.54c12.23,0,28.87,0,43.06,1V81.24A435.33,435.33,0,0,1,366.05,83.68ZM92.49,182.54C72.92,223.15,32.3,279.43,0,310.26l42.09,28.38C69,309.28,114.51,246.16,136,203.58Z"/><path class="cls-1" d="M427.22,310.75l-45.51,25C361.64,295.58,325.92,235.39,301,205l42.09-23C369,213.36,407.64,275,427.22,310.75Z"/></g></g></svg>