<svg xmlns="http://www.w3.org/2000/svg" viewBox="0 0 427.22 405.2"><g id="Layer_2" data-name="Layer 2"><g id="Layer_1-2" data-name="Layer 1"><path d="M136,203.58c-21.53,42.58-67,105.7-93.95,135.06L0,310.26c32.3-30.83,72.92-87.11,92.49-127.72Zm107.18-72.92V363.6c0,26.92-14.2,41.6-46,41.6-23,0-51.88-1-73.9-3.43l-4.4-48.44c21,3.91,43.06,5.87,55.78,5.87s18.11-5.39,18.11-18.6c.49-23,.49-184.49.49-208v-2H62.64c-15.17,0-30.83.49-44.53,1.47V80.75a323.26,323.26,0,0,0,44,2.93H193.3V38.17c0-11.25-2-30.34-3.92-38.17h57.75c-1.47,6.85-3.91,27.41-3.91,38.66v45H366.05a435.33,435.33,0,0,0,43.55-2.44v50.4c-14.19-1-30.83-1-43.06-1ZM343.05,182c25.93,31.32,64.59,93,84.17,128.71l-45.51,25C361.64,295.58,325.92,235.39,301,205Z"/></g></g></svg>