<svg xmlns="http://www.w3.org/2000/svg" viewBox="0 0 373.88 405.2"><defs><style>.cls-1{fill:#a7a7a7;}</style></defs><g id="Layer_2" data-name="Layer 2"><g id="Layer_1-2" data-name="Layer 1"><path d="M340.12,86.13a222.34,222.34,0,0,1-33.77,2.94H71.45c-19.08,0-41.1-1.47-59.7-2.94V137c18.6-1.46,41.6-2,59.7-2H321c0,52.85-6.36,163.45-23,197.7-5.38,12.24-13.21,16.64-27.89,16.64-20.07,0-46-2.44-71-5.87l5.87,51.38c24.47,1.47,53.34,3.43,79.77,3.43,29.85,0,46.49-10.77,56.77-33.28,21.53-48,27.89-187.92,29.36-237.34.49-6.37,1.47-16.64,2.93-25Z"/><path class="cls-1" d="M195.75,135.07C177.65,271.11,129.2,346,45,405.2L0,368.5a261.18,261.18,0,0,0,56.28-41.11c47.47-44.53,77.32-103.75,89.56-192.32Z"/><path class="cls-1" d="M205.54,0c-1,11.25-2,29.36-2.45,41.11-.49,16.64-1.46,32.78-2.44,48H150.24c1-14.69,1.47-30.35,1.47-46.5,0-11.25-1.47-31.32-3.43-42.57Z"/></g></g></svg>