<svg xmlns="http://www.w3.org/2000/svg" viewBox="0 0 373.88 405.2"><g id="Layer_2" data-name="Layer 2"><g id="Layer_1-2" data-name="Layer 1"><path d="M373.88,102.77c-1.47,8.32-2.45,18.59-2.94,25-1.46,49.42-7.82,189.38-29.36,237.34-10.27,22.51-26.91,33.28-56.76,33.28-26.43,0-55.3-2-79.77-3.43l-5.88-51.38c25,3.43,50.9,5.87,71,5.87,14.69,0,22.51-4.4,27.9-16.64,16.64-34.25,23-144.85,23-197.7H195.75C177.64,271.11,129.19,346,45,405.2L0,368.5a261.18,261.18,0,0,0,56.28-41.11c47.47-44.53,77.32-103.75,89.55-192.32H71.45c-18.11,0-41.11.49-59.71,2V86.13c18.6,1.47,40.62,2.94,59.71,2.94h78.79c1-14.69,1.46-30.35,1.46-46.5,0-11.25-1.46-31.32-3.42-42.57h57.26c-1,11.25-2,29.36-2.45,41.11-.49,16.64-1.47,32.78-2.45,48H306.35a222.09,222.09,0,0,0,33.76-2.94Z"/></g></g></svg>