<svg xmlns="http://www.w3.org/2000/svg" viewBox="0 0 412.38 405.2"><defs><style>.cls-1{fill:#a7a7a7;}</style></defs><g id="Layer_2" data-name="Layer 2"><g id="Layer_1-2" data-name="Layer 1"><path d="M119.6,0a197.63,197.63,0,0,1-8.14,42.58c-5.73,18.65-14.35,43.05-27.26,66.49C67,138.26,34,184.66,0,210l47.36,28.7c28.23-23.92,58.84-66.5,78.46-101.9L148.3,89.46c6.22-15.31,11.48-30.14,15.79-42.1,3.82-10,9.09-24.88,13.87-35.88Z"/><path class="cls-1" d="M412.38,86.59v51.67c-16.27-1-35.89-1.44-46.89-1.44H290.87C282.25,269.34,230.59,352.1,146.39,405.2L95.68,370.76c14.83-6.22,30.62-15.31,41.62-23.92,48.32-36.84,94.72-98.07,101.9-210H125.82L148.3,89.46H365.49C377.45,89.46,398,89,412.38,86.59Z"/></g></g></svg>