<svg xmlns="http://www.w3.org/2000/svg" viewBox="0 0 412.37 405.2"><defs><style>.cls-1{fill:#a7a7a7;}</style></defs><g id="Layer_2" data-name="Layer 2"><g id="Layer_1-2" data-name="Layer 1"><path d="M365.49,89.46H148.3c6.22-15.31,11.48-30.14,15.78-42.1,3.83-10,9.1-24.88,13.88-35.88L119.59,0a197,197,0,0,1-8.13,42.58c-5.74,18.65-14.35,43.05-27.27,66.49C67,138.26,34,184.66,0,210l47.36,28.7c28.22-23.92,58.84-66.5,78.46-101.9H365.49c11,0,30.62.48,46.88,1.44V86.59C398,89,377.45,89.46,365.49,89.46Z"/><path class="cls-1" d="M290.86,136.82C282.25,269.34,230.58,352.1,146.38,405.2L95.67,370.76c14.84-6.22,30.62-15.31,41.62-23.92,48.32-36.84,94.73-98.07,101.9-210Z"/></g></g></svg>