<svg xmlns="http://www.w3.org/2000/svg" viewBox="0 0 412.38 405.2"><g id="Layer_2" data-name="Layer 2"><g id="Layer_1-2" data-name="Layer 1"><path d="M365.49,89.46c12,0,32.53-.48,46.89-2.87v51.67c-16.27-1-35.89-1.44-46.89-1.44H290.86C282.25,269.34,230.59,352.1,146.39,405.2L95.68,370.76c14.83-6.22,30.62-15.31,41.62-23.92,48.31-36.84,94.72-98.07,101.9-210H125.82c-19.62,35.4-50.23,78-78.46,101.9L0,210c34-25.36,67-71.76,84.2-101,12.91-23.44,21.53-47.84,27.26-66.49A197.63,197.63,0,0,0,119.6,0L178,11.48c-4.78,11-10.05,25.84-13.87,35.88-4.31,12-9.57,26.79-15.79,42.1Z"/></g></g></svg>