<svg xmlns="http://www.w3.org/2000/svg" viewBox="0 0 382.38 405.2"><defs><style>.cls-1{fill:#a7a7a7;}</style></defs><g id="Layer_2" data-name="Layer 2"><g id="Layer_1-2" data-name="Layer 1"><path d="M332.44,56.12c-9.51,2.85-24.25,6.18-39,9-18.55,3.81-59,10.47-102.25,17.6l-48.51,7.61C99.4,97,59.93,102.73,42.33,104.63,27.59,106.06,14.27,107,1,108l10,52.31c12.37-2.85,24.73-5.7,40.9-8.56,16.65-2.85,56.12-9.51,99.88-16.64l48-7.61c42.81-6.66,82.75-12.84,103.68-16.17,13.32-1.9,29.49-4.28,38.05-5.23Z"/><path class="cls-1" d="M336.25,242.08c-24.74,3.8-66.59,10.46-110.82,17.59,8.56,42.8,15.22,78.47,18.07,91.31,3.33,13.8,7.61,30.44,12.37,44.71l-54.69,9.51c-2.38-16.64-3.81-31.86-6.66-46.13-1.9-11.89-9-47.56-17.12-91.79-51.84,8.56-99.87,16.65-122.23,20.93-19.5,3.33-33.76,6.18-44.23,9L0,246.35c11.9-.47,31.87-2.85,45.18-4.75,23.31-3.33,71.82-10.94,123.18-19l-16.64-87.5,48-7.61,16.65,87c46.13-7.61,88.46-14.74,111.28-19,18.08-3.81,33.77-7.14,44.71-10.47l10,49.94C371.44,235.89,354.32,239.22,336.25,242.08Z"/><path class="cls-1" d="M191.19,82.75l-48.51,7.61c-4.75-23.78-8.08-40.9-9.51-47.56a271,271,0,0,0-9.51-34.24L176.92,0c1.43,9,2.86,23.78,5.23,34.24C183.11,40,186.44,58,191.19,82.75Z"/></g></g></svg>