<svg xmlns="http://www.w3.org/2000/svg" viewBox="0 0 382.38 405.2"><defs><style>.cls-1{fill:#a7a7a7;}</style></defs><g id="Layer_2" data-name="Layer 2"><g id="Layer_1-2" data-name="Layer 1"><path d="M372.39,185c-10.94,3.33-26.63,6.66-44.71,10.47-22.82,4.28-65.15,11.41-111.28,19l-48,8.08c-51.36,8.09-99.87,15.7-123.18,19C31.87,243.5,11.9,245.88,0,246.35l10.94,50.89c10.47-2.85,24.73-5.7,44.23-9,22.36-4.28,70.39-12.37,122.23-20.93l48-7.61c44.23-7.13,86.08-13.79,110.82-17.59,18.07-2.86,35.19-6.19,46.13-7.14ZM332.44,56.12c-9.51,2.85-24.25,6.18-39,9-18.55,3.81-59,10.47-102.25,17.6l-48.51,7.61C99.4,97,59.93,102.73,42.33,104.63,27.59,106.06,14.27,107,1,108l10,52.31c12.37-2.85,24.73-5.7,40.9-8.56,16.65-2.85,56.12-9.51,99.88-16.64l48-7.61c42.81-6.66,82.75-12.84,103.68-16.17,13.32-1.9,29.49-4.28,38.05-5.23Z"/><path class="cls-1" d="M255.87,395.69l-54.69,9.51c-2.38-16.64-3.81-31.86-6.66-46.13-1.9-11.89-9-47.56-17.12-91.79l48-7.61c8.56,42.8,15.22,78.47,18.07,91.31C246.83,364.78,251.11,381.42,255.87,395.69Z"/><path class="cls-1" d="M191.19,82.75l-48.51,7.61c-4.75-23.78-8.08-40.9-9.51-47.56a271,271,0,0,0-9.51-34.24L176.92,0c1.43,9,2.86,23.78,5.23,34.24C183.11,40,186.44,58,191.19,82.75Z"/><polygon class="cls-1" points="216.4 214.49 168.36 222.57 151.72 135.07 199.75 127.46 216.4 214.49"/></g></g></svg>