<svg xmlns="http://www.w3.org/2000/svg" viewBox="0 0 382.37 405.2"><g id="Layer_2" data-name="Layer 2"><g id="Layer_1-2" data-name="Layer 1"><path d="M382.37,234.94c-10.94.95-28.06,4.28-46.13,7.14-24.73,3.8-66.58,10.46-110.81,17.59,8.56,42.8,15.22,78.47,18.07,91.31,3.33,13.8,7.61,30.44,12.37,44.71l-54.7,9.51c-2.37-16.64-3.8-31.86-6.65-46.13-1.91-11.89-9-47.56-17.13-91.79-51.83,8.56-99.87,16.65-122.22,20.93-19.5,3.33-33.77,6.18-44.23,9L0,246.35c11.89-.47,31.87-2.85,45.18-4.75,23.3-3.33,71.81-10.94,123.18-19l-16.65-87.5C108,142.2,68.48,148.86,51.84,151.71c-16.17,2.86-28.54,5.71-40.9,8.56L1,108c13.32-.95,26.63-1.9,41.38-3.33,17.6-1.9,57.07-7.61,100.35-14.27-4.76-23.78-8.09-40.9-9.51-47.56a270.91,270.91,0,0,0-9.52-34.24L176.92,0c1.43,9,2.85,23.78,5.23,34.24.95,5.71,4.28,23.78,9,48.51,43.28-7.13,83.7-13.79,102.25-17.6,14.74-2.85,29.48-6.18,39-9l9,49.94c-8.56,1-24.73,3.33-38,5.23-20.93,3.33-60.88,9.51-103.68,16.17l16.64,87c46.14-7.61,88.46-14.74,111.29-19,18.07-3.81,33.77-7.14,44.7-10.47Z"/></g></g></svg>