<svg xmlns="http://www.w3.org/2000/svg" viewBox="0 0 402.91 405.2"><defs><style>.cls-1{fill:#a7a7a7;}</style></defs><g id="Layer_2" data-name="Layer 2"><g id="Layer_1-2" data-name="Layer 1"><path d="M338.52,374.43c0,12-.57,22.79-.57,30.77h65c-1.13-12.54-2.27-40.46-2.27-60.41V50.15c0-14.81.57-35.33,1.14-47.87-10.26.57-30.21,1.14-45.6,1.14H72.94C54.14,3.42,26.78,1.71,6.84,0V62.69C21.66,62.12,50.72,61,72.94,61H339.09V315.16Z"/><path class="cls-1" d="M339.09,315.16l-.57,59.27H68.39c-23.37,0-51.87,1.14-68.39,2.28v-64.4c16.52,1.14,41.6,2.85,66.1,2.85Z"/></g></g></svg>