<svg xmlns="http://www.w3.org/2000/svg" viewBox="0 0 371.67 405.2"><g id="Layer_2" data-name="Layer 2"><g id="Layer_1-2" data-name="Layer 1"><path d="M371.67,89.42c-4.66,7.46-9.79,19.1-13.05,28.41-12.57,44.72-40.05,107.12-82,158.36-42.84,52.63-99.2,95.48-186.3,129L47,366.54c89.89-27,145.31-68.46,186.77-116.43,34.46-39.59,62.41-98.28,70.79-137.4H159.29c-29.81,40.06-69.4,81-118.31,113.64L0,196.08C81,147.64,124.35,82.9,146.24,41.92,151.83,32.6,159.75,13.51,163.48,0l54,17.7c-9.31,14-19.09,32.14-24.22,41.45-1.86,3.73-4.19,7.92-6.52,11.64H298.54c13,0,26.08-1.39,34.94-4.65Z"/></g></g></svg>