<svg xmlns="http://www.w3.org/2000/svg" viewBox="0 0 454.3 405.2"><defs><style>.cls-1{fill:#a7a7a7;}</style></defs><g id="Layer_2" data-name="Layer 2"><g id="Layer_1-2" data-name="Layer 1"><path d="M411.67,0c-9.17,3.23-24.28,4.86-41.54,4.86H58.27A466.94,466.94,0,0,1,0,.54V61c11.33-1.08,36.68-3.24,58.27-3.24H361.49c-26.44,46.4-83.09,118.7-154.31,173.2l41,38.84C330.74,205,399.8,117.62,438.65,54A190.21,190.21,0,0,1,454.3,35.07Z"/><path class="cls-1" d="M336.67,365.27,287,405.2c-21.59-29.14-65.29-77.7-99.82-113.3C154.85,260.06,96,208.27,65.82,187.22l44.24-36.15c20.51,15.11,61.51,48,97.12,79.86l41,38.84C280,301.61,315.09,339.37,336.67,365.27Z"/></g></g></svg>