<svg xmlns="http://www.w3.org/2000/svg" viewBox="0 0 454.3 405.2"><g id="Layer_2" data-name="Layer 2"><g id="Layer_1-2" data-name="Layer 1"><path d="M454.3,35.07A191.63,191.63,0,0,0,438.65,54C399.8,117.62,330.74,205,248.19,269.77c31.84,31.84,66.9,69.6,88.49,95.5L287,405.2c-21.58-29.14-65.29-77.7-99.82-113.3C154.85,260.06,96,208.27,65.82,187.22l44.25-36.15c20.5,15.11,61.51,48,97.12,79.86,71.22-54.5,127.87-126.8,154.31-173.2H58.27C36.69,57.73,11.33,59.89,0,61V.54A467.24,467.24,0,0,0,58.27,4.86H370.13c17.26,0,32.37-1.63,41.55-4.86Z"/></g></g></svg>