<svg xmlns="http://www.w3.org/2000/svg" viewBox="0 0 391.23 405.2"><defs><style>.cls-1{fill:#a7a7a7;}</style></defs><g id="Layer_2" data-name="Layer 2"><g id="Layer_1-2" data-name="Layer 1"><path d="M299.9,0c-2,11.48-7,29.44-11,40.92C275,81.84,256,125.25,227.05,168.67l-32.43,43.41C145.21,272.46,84.83,324.36,0,364.78L45.41,405.2C130.74,359.29,191.12,302.41,236.53,247L270,202.6c31.44-46.91,55.88-99.8,71.35-141.72,4.5-11,12.48-29.94,18.47-39.92Z"/><path class="cls-1" d="M391.23,314.88l-40.42,44.41C314.88,317.87,278,282.44,236.53,247L270,202.6C313.88,239,356.8,278,391.23,314.88Z"/><path class="cls-1" d="M227.05,168.67l-32.43,43.41c-36.43-28.94-87.83-67.37-137.23-97.81L90.82,74.36C132.24,100.8,187.13,138.73,227.05,168.67Z"/></g></g></svg>