<svg xmlns="http://www.w3.org/2000/svg" viewBox="0 0 391.23 405.2"><g id="Layer_2" data-name="Layer 2"><g id="Layer_1-2" data-name="Layer 1"><path d="M359.79,21c-6,10-14,28.94-18.46,39.92C325.85,102.8,301.41,155.69,270,202.6,313.88,239,356.8,278,391.23,314.88l-40.42,44.41C314.88,317.87,278,282.44,236.53,247,191.12,302.41,130.74,359.29,45.41,405.2L0,364.78c84.83-40.42,145.21-92.32,194.62-152.7-36.43-28.94-87.83-67.36-137.23-97.81L90.82,74.36c41.42,26.44,96.31,64.37,136.23,94.31C256,125.25,275,81.84,288.93,40.92c4-11.48,9-29.44,11-40.92Z"/></g></g></svg>