<svg xmlns="http://www.w3.org/2000/svg" viewBox="0 0 435.7 405.2"><defs><style>.cls-1{fill:#a7a7a7;}</style></defs><g id="Layer_2" data-name="Layer 2"><g id="Layer_1-2" data-name="Layer 1"><path d="M346.93,2.18H86.6C67.53,2.18,51.2,1.09,36,0V54.46c15.25-1.09,31.58-1.63,50.65-1.63H346.93c19.6,0,33.22,1.09,46.84,1.63V0C381.24,1.63,364.9,2.18,346.93,2.18Z"/><path class="cls-1" d="M277.76,350.19c50.11,0,96.4-2.17,141.61-7.62l-3.28,58.27c-39.75,2.73-95.85,4.36-147.59,4.36-89.86,0-114.91-31-114.91-80.06V210.23H55c-14.71,0-39.21,1.09-55,2.18V155.22c15.25,1.63,39.21,2.72,55,2.72h98.58V52.83h57.73V157.94H386.69c11.43,0,35.4-1.09,48.47-2.18l.54,55.56c-14.15-1.09-35.94-1.09-47.93-1.09H211.32v97.49C211.32,336.58,230.38,350.19,277.76,350.19Z"/></g></g></svg>