<svg xmlns="http://www.w3.org/2000/svg" viewBox="0 0 435.7 405.2"><defs><style>.cls-1{fill:#a7a7a7;}</style></defs><g id="Layer_2" data-name="Layer 2"><g id="Layer_1-2" data-name="Layer 1"><path d="M346.92,2.18H86.59C67.53,2.18,51.19,1.09,35.94,0V54.46c15.25-1.09,31.59-1.63,50.65-1.63H346.92c19.61,0,33.23,1.09,46.84,1.63V0C381.23,1.63,364.89,2.18,346.92,2.18Zm88.23,153.58c-13.07,1.09-37,2.18-48.47,2.18H55c-15.79,0-39.76-1.09-55-2.72v57.19c15.79-1.09,40.3-2.18,55-2.18H387.77c12,0,33.77,0,47.93,1.09Z"/><path class="cls-1" d="M419.36,342.57l-3.27,58.27c-39.76,2.73-95.85,4.36-147.59,4.36-89.87,0-114.92-31-114.92-80.06V210.23h57.73v97.49c0,28.86,19.06,42.47,66.44,42.47C327.86,350.19,374.15,348,419.36,342.57Z"/><rect class="cls-1" x="153.58" y="52.83" width="57.73" height="105.11"/></g></g></svg>