<svg xmlns="http://www.w3.org/2000/svg" viewBox="0 0 435.7 405.2"><g id="Layer_2" data-name="Layer 2"><g id="Layer_1-2" data-name="Layer 1"><path d="M211.32,307.72c0,28.86,19.06,42.47,66.44,42.47,50.11,0,96.4-2.17,141.6-7.62l-3.27,58.27c-39.75,2.73-95.85,4.36-147.59,4.36-89.86,0-114.91-31-114.91-80.06V210.23H55c-14.71,0-39.21,1.09-55,2.18V155.22c15.25,1.63,39.21,2.72,55,2.72h98.58V52.83h-67c-19.07,0-35.41.54-50.65,1.63V0C51.19,1.09,67.53,2.18,86.6,2.18H346.93c18,0,34.31-.55,46.84-2.18V54.46c-13.62-.54-27.24-1.63-46.84-1.63H211.32V157.94H386.69c11.43,0,35.4-1.09,48.47-2.18l.54,55.56c-14.16-1.09-35.95-1.09-47.93-1.09H211.32Z"/></g></g></svg>