<svg xmlns="http://www.w3.org/2000/svg" viewBox="0 0 434.56 405.2"><defs><style>.cls-1{fill:#a7a7a7;}</style></defs><g id="Layer_2" data-name="Layer 2"><g id="Layer_1-2" data-name="Layer 1"><path d="M333.51,294.69c-53.26,7-137.39,16.43-205.08,22.4,24.88-65.71,70.18-206.58,85.12-253.87,7-21.9,13.44-36.84,18.91-50.28L170.24,0a313.78,313.78,0,0,1-11,51.77c-13.94,50.78-61.23,199.12-89.1,270.3-7.47.49-14.44.49-20.42,1-14.93,1-34.34,1-49.77,1L9,381.8c14.93-2,31.36-4.48,43.8-6,64.71-6,224-23.4,303.15-32.85Z"/><path class="cls-1" d="M434.56,381.3,381.8,405.2c-6.47-17.42-15.43-39.32-25.89-62.22l-22.4-48.29c-18.91-37.83-39.32-74.17-56.74-97.07l48.28-20.91C359.9,229,413.16,328,434.56,381.3Z"/></g></g></svg>