<svg xmlns="http://www.w3.org/2000/svg" viewBox="0 0 407.15 405.2"><defs><style>.cls-1{fill:#a7a7a7;}</style></defs><g id="Layer_2" data-name="Layer 2"><g id="Layer_1-2" data-name="Layer 1"><path d="M360.17,113H49.42C30.83,113,11.74,111.58,0,110.6v52.85c12.23-1,30.83-1.47,50.4-1.47H359.68c17.13,0,38.66.49,47.47,1.47V111.09C398.34,112.07,379.26,113,360.17,113Z"/><path class="cls-1" d="M238.81,162c-2,103.26-35.73,183-137.51,243.22l-48-35.73C147.79,325.92,183.51,254,186,162Z"/><path class="cls-1" d="M242.23,0c-2.44,12.73-3.42,38.17-3.42,52.85V113H186V52.85c0-15.66-2-40.12-5.39-52.85Z"/></g></g></svg>