<svg xmlns="http://www.w3.org/2000/svg" viewBox="0 0 411.82 405.2"><defs><style>.cls-1{fill:#a7a7a7;}</style></defs><g id="Layer_2" data-name="Layer 2"><g id="Layer_1-2" data-name="Layer 1"><path d="M180.14,0C182,10.87,183,28.37,183,42.55v27.9h48.23V42.55A377,377,0,0,1,234,0Z"/><path class="cls-1" d="M365,96.45c-9.93,10.41-22.22,23.17-30.73,33.1-24.11,27.9-62.41,66.19-104,96V349.41c0,17.49,1.42,41.13,2.36,55.79h-53.9c1.89-13.71,3.32-38.3,3.32-55.79,0-25.53,0-63.36.47-93.62-44,24.59-95.51,44.92-153.67,62.41L0,274.23c90.78-20.81,150.35-52.48,192.43-79.9,39.72-25.54,73.76-58.16,88.89-79.44H96c-17,0-44.92,1-59.57,1.89V67.61C52.48,69.5,79,70.45,95,70.45h205.2c12.29,0,24.58-1,33.57-3.78Z"/><path class="cls-1" d="M411.82,282.74l-31.21,41.14c-41.13-31.21-70.92-50.59-113.47-73.76l30.73-35.46C341.84,238.3,366.9,252.48,411.82,282.74Z"/></g></g></svg>