<svg xmlns="http://www.w3.org/2000/svg" viewBox="0 0 411.82 405.2"><defs><style>.cls-1{fill:#a7a7a7;}</style></defs><g id="Layer_2" data-name="Layer 2"><g id="Layer_1-2" data-name="Layer 1"><path d="M333.81,66.67c-9,2.83-21.28,3.78-33.57,3.78h-69V42.55A377,377,0,0,1,234,0h-53.9C182,10.87,183,28.37,183,42.55v27.9H95c-16.08,0-42.56-1-58.63-2.84v49.17c14.65-.94,42.55-1.89,59.57-1.89H281.32c-15.13,21.28-49.17,53.9-88.89,79.44C150.35,221.75,90.78,253.42,0,274.23l28.84,44C87,300.71,138.53,280.38,182.51,255.79l47.75-30.26c41.61-29.79,79.91-68.08,104-96,8.51-9.93,20.8-22.69,30.73-33.1Z"/><path class="cls-1" d="M411.82,282.74l-31.21,41.14c-41.13-31.21-70.92-50.59-113.47-73.76l30.73-35.46C341.84,238.3,366.9,252.48,411.82,282.74Z"/><path class="cls-1" d="M232.62,405.2h-53.9c1.89-13.71,3.32-38.3,3.32-55.79,0-25.53,0-63.36.47-93.62l47.75-30.26V349.41C230.26,366.9,231.68,390.54,232.62,405.2Z"/></g></g></svg>