<svg xmlns="http://www.w3.org/2000/svg" viewBox="0 0 374.92 405.2"><defs><style>.cls-1{fill:#a7a7a7;}</style></defs><g id="Layer_2" data-name="Layer 2"><g id="Layer_1-2" data-name="Layer 1"><path d="M334.19,0c-8.88,4.18-21.41,6.79-33.42,6.79H93C71.54,6.79,47,4.7,31.85,3.66V59.53C47,58.49,73.1,57.44,93,57.44H297.11c-10.44,44.38-35,99.21-68.92,145.16l-36,41.77C143.6,293.46,77.28,335.23,0,358.73L46,405.2c67.88-25.06,138.38-69.45,192.16-126.88l36-43.34C307,188,336.28,129,358.21,61.1a160.53,160.53,0,0,1,14.62-31.34Z"/><path class="cls-1" d="M374.92,315.39l-38.64,45.43c-25.59-24.54-60-53.27-98.17-82.5l36-43.34C312.78,263.17,348.29,291.37,374.92,315.39Z"/><path class="cls-1" d="M228.19,202.6l-36,41.77c-45.95-33.42-94-64.22-135.24-86.67l33.41-40.21C133.15,139.94,181.72,170.75,228.19,202.6Z"/></g></g></svg>