<svg xmlns="http://www.w3.org/2000/svg" viewBox="0 0 374.91 405.2"><g id="Layer_2" data-name="Layer 2"><g id="Layer_1-2" data-name="Layer 1"><path d="M336.27,360.82c-25.58-24.54-60-53.27-98.16-82.5C184.33,335.75,113.83,380.14,46,405.2L0,358.73c77.28-23.5,143.59-65.27,192.16-114.36-45.95-33.42-94-64.22-135.25-86.67l33.42-40.21c42.82,22.45,91.38,53.26,137.86,85.11,33.94-45.95,58.48-100.78,68.92-145.16H93c-19.85,0-46,1.05-61.1,2.09V3.66C47,4.7,71.54,6.79,93,6.79H300.77c12,0,24.54-2.61,33.42-6.79l38.64,29.76A160.53,160.53,0,0,0,358.21,61.1C336.27,129,307,188,274.14,235c38.64,28.19,74.15,56.39,100.77,80.41Z"/></g></g></svg>