<svg xmlns="http://www.w3.org/2000/svg" viewBox="0 0 405.69 405.2"><defs><style>.cls-1{fill:#a7a7a7;}</style></defs><g id="Layer_2" data-name="Layer 2"><g id="Layer_1-2" data-name="Layer 1"><path d="M360.07,87.32H70.64a385.49,385.49,0,0,1-49.06-3.43v52q24.3-1.47,50-1.47h290.9c12.27,0,29.92.49,43.17,1V83.89A395.24,395.24,0,0,1,360.07,87.32Z"/><path class="cls-1" d="M289.43,45.13l.49,42.19H241.85c-.5-16.19-1-30.41-1.47-42.19C239.88,31.89,238.9,15.7,236,0h55.92A275.86,275.86,0,0,0,289.43,45.13Z"/><path class="cls-1" d="M294.83,361.05c0,28.45-16.68,44.15-49.55,44.15-27,0-55.43-1.47-81.43-2.94l-3.93-50.53a504.31,504.31,0,0,0,67.21,5.4c13.25,0,18.15-6.38,18.15-19.63,0-36.79-.49-98.6-1.47-157.95C201.62,236.94,118.72,311,35.32,355.17L0,314.94C97.62,267.85,182,192.3,221.24,134.41H290.9C292.38,207,294.33,297.77,294.83,361.05Z"/></g></g></svg>