<svg xmlns="http://www.w3.org/2000/svg" viewBox="0 0 405.69 405.2"><defs><style>.cls-1{fill:#a7a7a7;}</style></defs><g id="Layer_2" data-name="Layer 2"><g id="Layer_1-2" data-name="Layer 1"><path d="M360.07,87.32H289.92l-.49-42.19A275.86,275.86,0,0,1,291.88,0H236c2.94,15.7,3.92,31.89,4.42,45.13.49,11.78,1,26,1.47,42.19H70.64a385.49,385.49,0,0,1-49.06-3.43v52q24.3-1.47,50-1.47H243.81v45.14c1,59.35,1.47,121.16,1.47,158,0,13.25-4.9,19.63-18.15,19.63a504.31,504.31,0,0,1-67.21-5.4l3.93,50.53c26,1.47,54.45,2.94,81.43,2.94,32.87,0,49.55-15.7,49.55-44.15-.5-63.28-2.45-154-3.93-226.64h71.62c12.27,0,29.92.49,43.17,1V83.89A395.24,395.24,0,0,1,360.07,87.32Z"/><path class="cls-1" d="M243.81,134.41v45.14C201.62,236.94,118.72,311,35.32,355.17L0,314.94C97.62,267.85,182,192.3,221.24,134.41Z"/></g></g></svg>