<svg xmlns="http://www.w3.org/2000/svg" viewBox="0 0 405.69 405.2"><g id="Layer_2" data-name="Layer 2"><g id="Layer_1-2" data-name="Layer 1"><path d="M360.07,87.32a395.06,395.06,0,0,0,45.62-3.43V135.4c-13.24-.5-30.9-1-43.16-1H290.9c1.48,72.61,3.44,163.36,3.93,226.64,0,28.45-16.68,44.15-49.55,44.15-27,0-55.43-1.47-81.43-2.94l-3.93-50.53a504.31,504.31,0,0,0,67.21,5.4c13.25,0,18.15-6.38,18.15-19.63,0-36.79-.49-98.6-1.47-157.95C201.62,236.94,118.72,311,35.32,355.17L0,314.94C97.62,267.85,182,192.3,221.25,134.41H71.62q-25.74,0-50,1.47v-52a385.2,385.2,0,0,0,49.05,3.43H241.85c-.5-16.19-1-30.41-1.47-42.19C239.88,31.89,238.9,15.7,236,0h55.92a275.86,275.86,0,0,0-2.45,45.13l.49,42.19Z"/></g></g></svg>