<svg xmlns="http://www.w3.org/2000/svg" viewBox="0 0 379.46 405.2"><defs><style>.cls-1{fill:#a7a7a7;}</style></defs><g id="Layer_2" data-name="Layer 2"><g id="Layer_1-2" data-name="Layer 1"><path d="M290.65,2.52H93.85A467.78,467.78,0,0,1,45.92,0V52c14.13-1,32.29-1.52,47.93-1.52h196.3c17.15,0,37.34.51,50,1.52V0C327.49,1.51,306.8,2.52,290.65,2.52Z"/><path class="cls-1" d="M379.46,138.76c-2.52,5.56-6.56,13.13-7.57,17.16-14.63,49.45-36.83,100.42-74.17,141.8-52,57.52-116.06,89.31-180.65,107.48L77.71,359.78c73.17-15.13,135.23-47.93,176.61-90.83,28.76-29.77,46.93-67.61,56-100.92H53.49c-12.11,0-34.32.51-53.49,2V117.57c19.68,2,38.85,3.53,53.49,3.53H311.85c13.62,0,25.73-2,32.29-4.53Z"/></g></g></svg>