<svg xmlns="http://www.w3.org/2000/svg" viewBox="0 0 379.47 405.2"><g id="Layer_2" data-name="Layer 2"><g id="Layer_1-2" data-name="Layer 1"><path d="M379.47,138.76c-2.53,5.56-6.56,13.13-7.57,17.16-14.63,49.45-36.84,100.42-74.18,141.8-52,57.52-116.06,89.31-180.65,107.48L77.71,359.78C150.88,344.65,213,311.85,254.32,269c28.77-29.77,46.93-67.61,56-100.92H53.49c-12.11,0-34.31.51-53.49,2V117.57c19.68,2,38.86,3.53,53.49,3.53H311.85c13.62,0,25.73-2,32.29-4.53ZM45.92,0A467.83,467.83,0,0,0,93.86,2.52H290.65c16.15,0,36.84-1,49.46-2.52V52c-12.62-1-32.8-1.52-50-1.52H93.86c-15.65,0-33.81.51-47.94,1.52Z"/></g></g></svg>