<svg xmlns="http://www.w3.org/2000/svg" viewBox="0 0 288.22 405.2"><defs><style>.cls-1{fill:#a7a7a7;}</style></defs><g id="Layer_2" data-name="Layer 2"><g id="Layer_1-2" data-name="Layer 1"><path d="M56.25,40.82c0-13.94,1-26.38,2-36.84H.5c1,10.46,2,27.88,2,36.84V207.58C2.49,222,.5,239.44,0,247.9H58.24c-1-10-2-27.38-2-40.32Z"/><path class="cls-1" d="M288.22,0c-1,12.94-2,27.88-2,45.8v88.61c0,114-17.92,156.3-54.76,198.11-32.35,37.84-82.63,60.24-119,72.68L71.18,361.89C118.47,350,161.28,331,191.65,296.68,226.5,257.36,233,218.53,233,131.42V45.8A385.57,385.57,0,0,0,230,0Z"/></g></g></svg>