<svg xmlns="http://www.w3.org/2000/svg" viewBox="0 0 288.22 405.2"><g id="Layer_2" data-name="Layer 2"><g id="Layer_1-2" data-name="Layer 1"><path d="M58.24,4c-1,10.46-2,22.9-2,36.84V207.58c0,12.94,1,30.36,2,40.32H0c.5-8.46,2.49-25.89,2.49-40.32V40.82c0-9-1-26.38-2-36.84Zm230-4c-1,12.94-2,27.88-2,45.8v88.61c0,114-17.92,156.3-54.76,198.11-32.35,37.84-82.63,60.24-119,72.68L71.18,361.89C118.47,350,161.28,331,191.65,296.68,226.5,257.36,233,218.53,233,131.42V45.8A385.57,385.57,0,0,0,230,0Z"/></g></g></svg>