<svg xmlns="http://www.w3.org/2000/svg" viewBox="0 0 434.56 419.72"><defs><style>.cls-1{fill:#a7a7a7;}</style></defs><g id="Layer_2" data-name="Layer 2"><g id="Layer_1-2" data-name="Layer 1"><path d="M57.58,1.18c-14.84,0-33.84,0-57-1.18.59,16,.59,36.21.59,51.65V343.14C1.18,366.89,0,414.38,0,419.72H62.93V1.18Z"/><path class="cls-1" d="M433.38,343.14c0,20.78,1.18,71.83,1.18,76.58H369.85c.6-3,.6-16.62,1.19-33.24H63.52c0,16,0,30.27.59,33.24H62.93v-92H371V60.55H62.93V1.18H380c13.65,0,35,0,54.61-.59-1.18,16-1.18,34.43-1.18,51.06Z"/></g></g></svg>