<svg xmlns="http://www.w3.org/2000/svg" viewBox="0 0 434.56 419.72"><defs><style>.cls-1{fill:#a7a7a7;}</style></defs><g id="Layer_2" data-name="Layer 2"><g id="Layer_1-2" data-name="Layer 1"><path d="M433.38,51.65c0-16.63,0-35,1.18-51.06-19.59.59-41,.59-54.61.59H57.58c-14.84,0-33.84,0-57-1.18.59,16,.59,36.21.59,51.65V343.14C1.18,366.89,0,414.38,0,419.72H64.11c-.59-3-.59-17.21-.59-33.24l-.59-58.78V60.55H371V386.48c-.59,16.62-.59,30.27-1.19,33.24h64.71c0-4.75-1.18-55.8-1.18-76.58Z"/><polygon class="cls-1" points="371.04 327.7 371.04 386.48 63.52 386.48 62.93 327.7 371.04 327.7"/></g></g></svg>