<svg xmlns="http://www.w3.org/2000/svg" viewBox="0 0 454.56 397.24"><defs><style>.cls-1{fill:#a7a7a7;}</style></defs><g id="Layer_2" data-name="Layer 2"><g id="Layer_1-2" data-name="Layer 1"><path d="M97,1.52c3,11.56,4,23.63,4,40.73,0,57.82,0,155.88-14.58,200.63C71.9,289.14,43.24,334.39,0,365.06l47.77,32.18a282.45,282.45,0,0,0,89.5-140.79c13.58-50.28,15.59-157.38,15.59-214.71a373.62,373.62,0,0,1,2.52-40.22Z"/><path class="cls-1" d="M454.56,245.89c-42.74,56.82-113.14,109.62-171,138.78-8.55,4-13.58,8.55-19.11,12.57L231.3,369.59a145.1,145.1,0,0,0,3.52-31.68V40.23c0-20.62-3-37.21-3-40.23h58.32a303.78,303.78,0,0,0-2.51,40.23V318.3C331.37,298.69,388.19,256,424.39,202.65Z"/></g></g></svg>