<svg xmlns="http://www.w3.org/2000/svg" viewBox="0 0 454.56 397.24"><g id="Layer_2" data-name="Layer 2"><g id="Layer_1-2" data-name="Layer 1"><path d="M0,365.06c43.24-30.67,71.9-75.93,86.49-122.19,14.58-44.75,14.58-142.81,14.58-200.63,0-17.09-1-29.16-4-40.73h58.33a373.87,373.87,0,0,0-2.52,40.23c0,57.32-2,164.42-15.59,214.71a282.45,282.45,0,0,1-89.5,140.79Zm231.3,4.53a144.56,144.56,0,0,0,3.52-31.68V40.23c0-20.62-3-37.21-3-40.23h58.32a303.78,303.78,0,0,0-2.51,40.23V318.3c43.75-19.61,100.57-62.36,136.77-115.66l30.17,43.25c-42.74,56.82-113.14,109.62-171,138.78-8.55,4-13.58,8.55-19.11,12.57Z"/></g></g></svg>