<svg xmlns="http://www.w3.org/2000/svg" viewBox="0 0 416.29 405.2"><defs><style>.cls-1{fill:#a7a7a7;}</style></defs><g id="Layer_2" data-name="Layer 2"><g id="Layer_1-2" data-name="Layer 1"><path d="M368.05,97.92H50.16A393.28,393.28,0,0,1,0,94.55v51.61c7.71-.48,27.49-1.45,50.16-1.45H368.53c22.68,0,40,.49,47.76,1.45V95C406.64,97,391.21,97.92,368.05,97.92Z"/><path class="cls-1" d="M322.71,144.71v16.41c0,124.45-28,193.43-140.86,244.08l-41-38.59c90.21-33.28,132.66-74.77,132.66-202.6v-19.3Z"/><path class="cls-1" d="M325.6,0a315.62,315.62,0,0,0-2.89,42v56h-49.2V42a331.51,331.51,0,0,0-2.42-42Z"/><path class="cls-1" d="M149.05,3.86a260.78,260.78,0,0,0-2.89,38.59V97.92H97.44V42.45c0-16.88-1.93-32.32-2.42-38.59Z"/><path class="cls-1" d="M148.09,263.86H95c.49-6.75,2.42-27,2.42-46.79V144.71h48.72v72.36C146.16,236.85,147.61,257.11,148.09,263.86Z"/></g></g></svg>