<svg xmlns="http://www.w3.org/2000/svg" viewBox="0 0 416.29 405.2"><defs><style>.cls-1{fill:#a7a7a7;}</style></defs><g id="Layer_2" data-name="Layer 2"><g id="Layer_1-2" data-name="Layer 1"><path d="M368.06,97.92H146.16V42.45a260.78,260.78,0,0,1,2.89-38.59H95c.48,6.27,2.41,21.71,2.41,38.59V97.92H50.17A393.48,393.48,0,0,1,0,94.55v51.61c7.72-.48,27.49-1.45,50.17-1.45H97.44v72.36c0,19.78-1.93,40-2.41,46.79h53.06c-.48-6.75-1.93-27-1.93-46.79V144.71H368.54c22.67,0,40,.49,47.75,1.45V95C406.65,97,391.21,97.92,368.06,97.92Z"/><path class="cls-1" d="M325.61,0a313.39,313.39,0,0,0-2.9,42v56h-49.2V42A334.05,334.05,0,0,0,271.1,0Z"/><path class="cls-1" d="M322.71,144.71v16.41c0,124.45-28,193.43-140.85,244.08l-41-38.59c90.21-33.28,132.66-74.77,132.66-202.6v-19.3Z"/></g></g></svg>