<svg xmlns="http://www.w3.org/2000/svg" viewBox="0 0 416.29 405.2"><g id="Layer_2" data-name="Layer 2"><g id="Layer_1-2" data-name="Layer 1"><path d="M368.06,97.92c23.15,0,38.59-1,48.23-2.89v51.13c-7.71-1-25.08-1.45-47.75-1.45H322.71v16.41c0,124.45-28,193.43-140.85,244.08l-41-38.59c90.21-33.28,132.66-74.77,132.66-202.6v-19.3H146.16v72.36c0,19.78,1.45,40,1.93,46.79H95c.48-6.75,2.41-27,2.41-46.79V144.71H50.17c-22.68,0-42.45,1-50.17,1.45V94.55a393.48,393.48,0,0,0,50.17,3.37H97.44V42.45c0-16.88-1.93-32.32-2.41-38.59h54a259,259,0,0,0-2.9,38.59V97.92H273.51V42A334.05,334.05,0,0,0,271.1,0h54.51a313.39,313.39,0,0,0-2.9,42v56Z"/></g></g></svg>