<svg xmlns="http://www.w3.org/2000/svg" viewBox="0 0 422.24 405.2"><defs><style>.cls-1{fill:#a7a7a7;}</style></defs><g id="Layer_2" data-name="Layer 2"><g id="Layer_1-2" data-name="Layer 1"><path d="M384.63,74.22c-7.52,4-18.05,7-30.59,10-21.56,5-101.8,21.06-181.54,36.61l-52.15,10C68.7,140.42,23.06,148.44,0,151.45L9.52,203.6c20.56-4.51,63.19-13,110.83-23.06L172.5,170c81.25-16.55,162.49-32.59,174-35.1C332,163,296.87,214.13,261.27,246.73l43.63,25.58C343.51,233.69,385.64,168,408.2,126.37c4-7.52,10-17.05,14-23.06Z"/><path class="cls-1" d="M176,0a430.13,430.13,0,0,0-3.52,51.15v69.71l-52.15,10V51.15c0-16-1-36.1-3.51-51.15Z"/><path class="cls-1" d="M398.67,340.51l-2,54.16a1165.9,1165.9,0,0,1-157,10.53c-102.31,0-119.36-26.08-119.36-79.74V180.54L172.5,170V311.92c0,33.1,11,44.13,68.71,44.13A794.59,794.59,0,0,0,398.67,340.51Z"/></g></g></svg>