<svg xmlns="http://www.w3.org/2000/svg" viewBox="0 0 422.25 405.2"><g id="Layer_2" data-name="Layer 2"><g id="Layer_1-2" data-name="Layer 1"><path d="M261.27,246.73C296.88,214.13,332,163,346.52,134.9c-11.53,2.51-92.77,18.55-174,35.1V311.92c0,33.1,11,44.13,68.7,44.13a794.69,794.69,0,0,0,157.47-15.54l-2,54.16a1165.9,1165.9,0,0,1-157,10.53c-102.3,0-119.35-26.08-119.35-79.74V180.54c-47.65,10-90.27,18.55-110.83,23.06L0,151.45c23.07-3,68.7-11,120.36-20.56V51.15c0-16-1-36.1-3.52-51.15H176a430.13,430.13,0,0,0-3.51,51.15v69.71c79.74-15.55,160-31.59,181.54-36.61,12.53-3,23.07-6,30.59-10l37.61,29.09c-4,6-10,15.54-14,23.06C385.64,168,343.52,233.69,304.9,272.31Z"/></g></g></svg>