<svg xmlns="http://www.w3.org/2000/svg" viewBox="0 0 409.67 405.2"><defs><style>.cls-1{fill:#a7a7a7;}</style></defs><g id="Layer_2" data-name="Layer 2"><g id="Layer_1-2" data-name="Layer 1"><path d="M103.78,0,75.48,42.71c30.78,17.37,83.92,52.63,109.24,71L214,71C190.68,54.13,134.57,17.38,103.78,0Z"/><path class="cls-1" d="M409.67,165.85C365.47,233.39,296.45,297,216,343.62c-50.16,29.3-119.68,53.14-164.87,61.58L21.85,354.05c55.12-9.43,115.7-27.8,167.84-56.6,82.92-47.18,150-113.72,190.18-184.23Z"/><path class="cls-1" d="M139.53,180.75,110.73,225C84.41,206.08,31.78,172.31,0,155.43l28.3-42.71C59.59,129.6,116.19,164.36,139.53,180.75Z"/></g></g></svg>