<svg xmlns="http://www.w3.org/2000/svg" viewBox="0 0 409.67 405.2"><defs><style>.cls-1{fill:#a7a7a7;}</style></defs><g id="Layer_2" data-name="Layer 2"><g id="Layer_1-2" data-name="Layer 1"><path d="M103.78,0,75.48,42.71c30.79,17.37,83.92,52.63,109.24,71L214,71C190.68,54.13,134.57,17.38,103.78,0ZM28.31,112.72,0,155.43C31.78,172.31,84.42,206.08,110.74,225l28.8-44.2C116.2,164.36,59.59,129.6,28.31,112.72Z"/><path class="cls-1" d="M409.67,165.85C365.48,233.39,296.45,297,216,343.62c-50.15,29.3-119.67,53.14-164.86,61.58l-29.3-51.15c55.12-9.43,115.7-27.8,167.84-56.6,82.93-47.18,150-113.72,190.19-184.23Z"/></g></g></svg>