<svg xmlns="http://www.w3.org/2000/svg" viewBox="0 0 409.67 405.2"><g id="Layer_2" data-name="Layer 2"><g id="Layer_1-2" data-name="Layer 1"><path d="M139.54,180.75,110.73,225C84.42,206.08,31.78,172.31,0,155.43l28.31-42.71C59.59,129.6,116.2,164.36,139.54,180.75Zm50.15,116.7c82.93-47.18,150-113.72,190.19-184.23l29.79,52.63C365.47,233.39,296.45,297,216,343.62c-50.15,29.3-119.67,53.14-164.86,61.58l-29.3-51.15C77,344.62,137.55,326.25,189.69,297.45ZM214,71l-29.3,42.7c-25.32-18.37-78.45-53.63-109.24-71L103.78,0C134.57,17.38,190.68,54.13,214,71Z"/></g></g></svg>