<svg xmlns="http://www.w3.org/2000/svg" viewBox="0 0 438.97 405.2"><defs><style>.cls-1{fill:#a7a7a7;}</style></defs><g id="Layer_2" data-name="Layer 2"><g id="Layer_1-2" data-name="Layer 1"><path d="M354.29,0c-9.11,3.22-26.8,5.36-46.63,5.36H108.81c-16.62,0-47.7-2.14-58.42-3.75V62.17C59,61.64,87.91,59,108.81,59h196.7c-12.86,41.8-48.77,100.76-85.22,141.5C167.23,260,86.83,324.27,0,357.5l43.42,45c77.18-35.37,149-92.72,206.35-153.83l35.91-42.34c37.52-48.24,69.14-108.8,87.9-152.75,3.75-9.11,11.79-22.51,15.54-27.87Z"/><path class="cls-1" d="M439,363.39l-47.7,41.81C356.43,357,302.83,298,249.77,248.69l35.91-42.34C340.89,253.52,405.74,322.66,439,363.39Z"/></g></g></svg>