<svg xmlns="http://www.w3.org/2000/svg" viewBox="0 0 438.97 405.2"><g id="Layer_2" data-name="Layer 2"><g id="Layer_1-2" data-name="Layer 1"><path d="M389.12,25.73c-3.75,5.36-11.79,18.76-15.54,27.87-18.76,43.95-50.38,104.51-87.9,152.75,55.2,47.17,120.06,116.31,153.29,157L391.26,405.2C356.43,357,302.83,298,249.77,248.69,192.42,309.8,120.6,367.15,43.41,402.52L0,357.5c86.83-33.23,167.23-97.55,220.29-157,36.45-40.74,72.36-99.7,85.22-141.5H108.8C87.9,59,59,61.64,50.38,62.17V1.61C61.1,3.22,92.19,5.36,108.8,5.36H307.65c19.84,0,37.52-2.14,46.63-5.36Z"/></g></g></svg>