<svg xmlns="http://www.w3.org/2000/svg" viewBox="0 0 372.47 405.2"><defs><style>.cls-1{fill:#a7a7a7;}</style></defs><g id="Layer_2" data-name="Layer 2"><g id="Layer_1-2" data-name="Layer 1"><path d="M165,0c-3.23,13.37-11.53,32.27-17.52,41.49C125.85,82.51,80.21,149.36,0,198.68l39.65,30C89,195,130.46,150.74,160.89,108.79L188.54,67.3l5.54-10.14c4.61-9.22,14.75-26.74,23.51-40.57Z"/><path class="cls-1" d="M359.57,113.86C348,152.12,325.45,201,294.11,246.16c17.05,11.07,32.73,21.21,44.25,29.51l-32.27,42.4c-11.06-9.21-26.27-20.28-43.79-32.26-41,46.56-97.26,89.43-175.63,119.39L44.72,368.32c81.13-24.43,137.37-66.38,177.48-109.25-34.12-22.13-69.61-43.79-94.5-57.62l30.42-34.58c25.82,13.37,61.31,33.65,95,53.94,25.36-36.42,46.1-79.75,54.4-112H160.89L188.54,67.3h112c12.91,0,25.82-1.84,34.58-5.07l37.33,23.05A233.22,233.22,0,0,0,359.57,113.86Z"/></g></g></svg>