<svg xmlns="http://www.w3.org/2000/svg" viewBox="0 0 372.47 405.2"><defs><style>.cls-1{fill:#a7a7a7;}</style></defs><g id="Layer_2" data-name="Layer 2"><g id="Layer_1-2" data-name="Layer 1"><path class="cls-1" d="M338.36,275.67l-32.27,42.4c-11.06-9.21-26.28-20.28-43.79-32.26l31.8-39.65C311.16,257.23,326.83,267.37,338.36,275.67Z"/><path d="M335.13,62.23c-8.76,3.23-21.67,5.07-34.57,5.07h-112l5.53-10.14c4.61-9.22,14.75-26.74,23.51-40.57L165,0c-3.23,13.37-11.53,32.27-17.52,41.49C125.85,82.51,80.21,149.36,0,198.68l39.64,30C89,195,130.46,150.74,160.88,108.79H307.47c-8.3,32.27-29,75.6-54.39,112l-30.89,38.26c-40.1,42.87-96.34,84.82-177.47,109.25L86.66,405.2c78.37-30,134.61-72.83,175.64-119.39l31.8-39.65c31.35-45.17,53.94-94,65.46-132.3a233.24,233.24,0,0,1,12.91-28.58Z"/><path class="cls-1" d="M253.08,220.81l-30.89,38.26c-34.11-22.13-69.61-43.79-94.5-57.62l30.42-34.58C183.93,180.24,219.43,200.52,253.08,220.81Z"/></g></g></svg>