<svg xmlns="http://www.w3.org/2000/svg" viewBox="0 0 372.47 405.2"><g id="Layer_2" data-name="Layer 2"><g id="Layer_1-2" data-name="Layer 1"><path d="M372.47,85.28a233.24,233.24,0,0,0-12.91,28.58C348,152.12,325.45,201,294.1,246.16c17.06,11.07,32.73,21.21,44.26,29.51l-32.27,42.4c-11.06-9.21-26.28-20.28-43.79-32.26-41,46.56-97.27,89.43-175.64,119.39L44.72,368.32c81.13-24.43,137.37-66.38,177.47-109.25-34.11-22.13-69.61-43.79-94.5-57.62l30.42-34.58c25.82,13.37,61.32,33.65,95,53.94,25.35-36.42,46.09-79.75,54.39-112H160.88C130.46,150.74,89,195,39.64,228.65L0,198.68C80.21,149.36,125.85,82.51,147.51,41.49,153.5,32.27,161.8,13.37,165,0l52.55,16.59c-8.76,13.83-18.9,31.35-23.51,40.57L188.54,67.3h112c12.9,0,25.81-1.84,34.57-5.07Z"/></g></g></svg>