<svg xmlns="http://www.w3.org/2000/svg" viewBox="0 0 416.25 405.2"><defs><style>.cls-1{fill:#a7a7a7;}</style></defs><g id="Layer_2" data-name="Layer 2"><g id="Layer_1-2" data-name="Layer 1"><path d="M310.81,3.52H108.46A384.41,384.41,0,0,1,59.25,0V51.72c14.06-1,32.64-1.51,49.21-1.51H310.81c15.56,0,34.14.5,50.21,1.51V0A342.57,342.57,0,0,1,310.81,3.52Zm63.27,126.53H45.7A439,439,0,0,1,0,127.53v51.72c14.06-1,30.63-1.5,45.7-1.5H374.08c13.05,0,30.62.5,42.17,1.5V127.53C403.7,129,384.62,130.05,374.08,130.05Z"/><path class="cls-1" d="M245,177.75C243,231,233,275.15,213.9,311.81c-18.08,33.64-56.23,71.3-99.92,93.39L67.79,371.06C105,356,140.6,327.38,160.68,296.24c21.59-33.64,28.12-73.3,30.12-118.49Z"/></g></g></svg>