<svg xmlns="http://www.w3.org/2000/svg" viewBox="0 0 416.25 405.2"><g id="Layer_2" data-name="Layer 2"><g id="Layer_1-2" data-name="Layer 1"><path d="M374.07,130.05c10.54,0,29.63-1,42.18-2.52v51.72c-11.55-1-29.13-1.5-42.18-1.5H245C243,231,233,275.15,213.9,311.81c-18.08,33.64-56.24,71.3-99.92,93.39L67.79,371.06c37.15-15.07,72.8-43.68,92.88-74.82,21.59-33.64,28.12-73.3,30.13-118.49H45.69c-15.06,0-31.63.5-45.69,1.5V127.53a439,439,0,0,0,45.69,2.52ZM108.45,50.21c-16.56,0-35.14.5-49.2,1.51V0a384.25,384.25,0,0,0,49.2,3.52H310.8A342.61,342.61,0,0,0,361,0V51.72c-16.07-1-34.65-1.51-50.22-1.51Z"/></g></g></svg>