<svg xmlns="http://www.w3.org/2000/svg" viewBox="0 0 417.82 405.2"><defs><style>.cls-1{fill:#a7a7a7;}</style></defs><g id="Layer_2" data-name="Layer 2"><g id="Layer_1-2" data-name="Layer 1"><path d="M50.46,30.78,0,49c13.12,24.22,46.93,108,57,140.28l51-18.67C95.88,136.75,64.59,60.55,50.46,30.78Z"/><path class="cls-1" d="M417.82,35.83c-4.55,10.59-8.08,24.22-10.6,33.3C392.08,128.67,364.33,203.86,323,258.86,270.47,328,196.3,379.46,124.64,405.2l-43.9-44.41c70.65-20.18,147.35-67.61,198.31-132.2,41.38-52.48,70.65-138.77,79.73-209.41Z"/><path class="cls-1" d="M242.21,133.72l-50,17.66c-8.58-30.27-36.84-106.47-50.46-134.73L190.74,0C202.86,24.73,233.13,103.45,242.21,133.72Z"/></g></g></svg>