<svg xmlns="http://www.w3.org/2000/svg" viewBox="0 0 417.81 405.2"><defs><style>.cls-1{fill:#a7a7a7;}</style></defs><g id="Layer_2" data-name="Layer 2"><g id="Layer_1-2" data-name="Layer 1"><path d="M190.74,0l-49,16.65c13.63,28.26,41.89,104.46,50.46,134.73l50-17.66C233.13,103.45,202.85,24.73,190.74,0ZM50.46,30.78,0,49c13.12,24.22,46.93,108,57,140.28l51-18.67C95.87,136.75,64.59,60.55,50.46,30.78Z"/><path class="cls-1" d="M417.81,35.83c-4.54,10.59-8.07,24.22-10.59,33.3-15.14,59.54-42.9,134.73-84.27,189.73C270.47,328,196.29,379.46,124.64,405.2l-43.9-44.41c70.64-20.18,147.34-67.61,198.3-132.2,41.38-52.48,70.65-138.77,79.73-209.41Z"/></g></g></svg>