<svg xmlns="http://www.w3.org/2000/svg" viewBox="0 0 417.81 405.2"><g id="Layer_2" data-name="Layer 2"><g id="Layer_1-2" data-name="Layer 1"><path d="M108,170.56,57,189.23C46.93,156.93,13.12,73.17,0,49L50.46,30.78C64.59,60.55,95.87,136.75,108,170.56ZM417.81,35.83c-4.54,10.59-8.07,24.22-10.59,33.3C392.08,128.67,364.33,203.86,323,258.86,270.47,328,196.29,379.46,124.64,405.2l-43.9-44.41c70.64-20.18,147.34-67.61,198.31-132.2,41.38-52.48,70.64-138.77,79.73-209.41Zm-175.6,97.89-50,17.66c-8.58-30.27-36.84-106.47-50.47-134.73L190.74,0C202.85,24.73,233.13,103.45,242.21,133.72Z"/></g></g></svg>