<svg xmlns="http://www.w3.org/2000/svg" viewBox="0 0 364.87 405.2"><defs><style>.cls-1{fill:#a7a7a7;}</style></defs><g id="Layer_2" data-name="Layer 2"><g id="Layer_1-2" data-name="Layer 1"><path d="M146.14,0a219,219,0,0,1,3.32,39.38V80.19H200.7V39.38c0-11.39,1-22.3,2.85-39.38Z"/><path class="cls-1" d="M364.87,95.84c-3.32,8.07-6.64,23.25-8.07,32.27-7.12,41.28-20.4,94.89-45.55,139C274.72,333.08,206.39,382,121,405.2L82.08,360.13A298.32,298.32,0,0,0,139,344.47c43.65-14.71,91.1-47,119.57-89.2,24.67-38,38.43-89.68,43.65-131H49.82v77.82c0,9.49.47,23.24,1.89,31.31H0c1-10,1.9-23.72,1.9-34.16v-83c0-10.44-.48-27.53-1.9-38.44a448.87,448.87,0,0,0,46,2.38H296.54c19,0,28.47-2.38,35.59-4.75Z"/></g></g></svg>