<svg xmlns="http://www.w3.org/2000/svg" viewBox="0 0 364.87 405.2"><defs><style>.cls-1{fill:#a7a7a7;}</style></defs><g id="Layer_2" data-name="Layer 2"><g id="Layer_1-2" data-name="Layer 1"><path d="M146.14,0a219,219,0,0,1,3.32,39.38V80.19H200.7V39.38c0-11.39,1-22.3,2.85-39.38ZM49.82,80.19H46A448.87,448.87,0,0,1,0,77.81c1.42,10.91,1.9,28,1.9,38.44v83c0,10.44-.95,24.2-1.9,34.16H51.72c-1.43-8.07-1.9-21.82-1.9-31.31Z"/><path class="cls-1" d="M364.87,95.84c-3.32,8.07-6.64,23.25-8.07,32.27-7.11,41.28-20.4,94.89-45.54,139C274.72,333.08,206.4,382,121,405.2L82.08,360.13A298.32,298.32,0,0,0,139,344.47c43.65-14.71,91.1-47,119.57-89.2,24.67-38,38.43-89.68,43.65-131H49.82V80.19H296.54c19,0,28.47-2.38,35.59-4.75Z"/></g></g></svg>