<svg xmlns="http://www.w3.org/2000/svg" viewBox="0 0 364.87 405.2"><g id="Layer_2" data-name="Layer 2"><g id="Layer_1-2" data-name="Layer 1"><path d="M364.87,95.84c-3.32,8.07-6.64,23.25-8.06,32.27-7.12,41.28-20.41,94.89-45.55,139C274.72,333.08,206.4,382,121,405.2L82.08,360.13A298.32,298.32,0,0,0,139,344.47c43.65-14.71,91.1-47,119.57-89.2,24.67-38,38.43-89.68,43.65-131H49.82v77.82c0,9.49.47,23.24,1.9,31.31H0c1-10,1.9-23.72,1.9-34.16v-83c0-10.44-.48-27.53-1.9-38.44a448.87,448.87,0,0,0,46,2.38H149.46V39.38A218.1,218.1,0,0,0,146.14,0h57.41c-1.9,17.08-2.85,28-2.85,39.38V80.19h95.85c19,0,28.46-2.38,35.58-4.75Z"/></g></g></svg>