<svg xmlns="http://www.w3.org/2000/svg" viewBox="0 0 407.34 405.2"><defs><style>.cls-1{fill:#a7a7a7;}</style></defs><g id="Layer_2" data-name="Layer 2"><g id="Layer_1-2" data-name="Layer 1"><path d="M0,193H61.32a374,374,0,0,1-1.6-38.38V3.19C35.94,3.18,14.82,2.65,0,1.6,1.07,14.39,2.13,28.25,2.13,41.05V154.62C2.13,166.34,1.07,178.61,0,193Z"/><path class="cls-1" d="M407.34,26.12c-2.67,6.4-6.93,23.46-8,29.32-9.59,60.25-21.32,136.49-60.78,198.88C294.84,323.09,221.8,376.94,136.49,405.2L90.11,358.28c75.17-19.72,154.08-65,197.27-132.22C316.17,180.2,331.63,116.22,337,55.44H59.72V3.19h266c14.4,0,29.33-.53,41.06-3.19Z"/></g></g></svg>