<svg xmlns="http://www.w3.org/2000/svg" viewBox="0 0 407.34 405.2"><g id="Layer_2" data-name="Layer 2"><g id="Layer_1-2" data-name="Layer 1"><path d="M407.34,26.13c-2.67,6.39-6.93,23.46-8,29.32-9.6,60.25-21.33,136.49-60.78,198.87C294.84,323.1,221.8,377,136.49,405.2L90.1,358.29c75.18-19.73,154.09-65.05,197.28-132.23C316.17,180.21,331.63,116.23,337,55.45H59.71v99.17A374,374,0,0,0,61.31,193H0c1.07-14.39,2.13-26.66,2.13-38.38V41.05C2.13,28.25,1.07,14.4,0,1.6,14.93,2.67,36.25,3.2,60.25,3.2H325.76c14.4,0,29.33-.53,41.06-3.2Z"/></g></g></svg>