<svg xmlns="http://www.w3.org/2000/svg" viewBox="0 0 382.32 405.2"><defs><style>.cls-1{fill:#a7a7a7;}</style></defs><g id="Layer_2" data-name="Layer 2"><g id="Layer_1-2" data-name="Layer 1"><path d="M341.22.52c-10.92,3.12-25,3.64-38.49,3.64H56.18C34.33,4.16,12.48,1.56,0,0V56.7c13-1.05,34.85-2.08,56.18-2.08H314.7A599.54,599.54,0,0,1,297,140.44l-17.17,48.37a243.27,243.27,0,0,1-18.72,34.86C215.86,290.25,140.44,338.62,51,359.43L93.63,405.2c107.15-36.93,172.17-90,219.5-163.85,30.17-47.33,49.42-129,61.9-194a118.6,118.6,0,0,1,7.29-20.8Z"/><path class="cls-1" d="M297,140.44l-17.17,48.37H63.46c-18.21,0-32.77.53-49.94,2.09V138.36c14.57,1,31.73,2.08,48.38,2.08Z"/></g></g></svg>