<svg xmlns="http://www.w3.org/2000/svg" viewBox="0 0 382.32 405.2"><g id="Layer_2" data-name="Layer 2"><g id="Layer_1-2" data-name="Layer 1"><path d="M382.32,26.53A118.6,118.6,0,0,0,375,47.33c-12.48,65-31.73,146.69-61.9,194C265.8,315.21,200.78,368.27,93.63,405.2L51,359.43c89.46-20.81,164.88-69.18,210.14-135.76a243.27,243.27,0,0,0,18.72-34.86H63.46c-18.21,0-32.77.53-49.94,2.09V138.36c14.57,1,31.73,2.08,48.38,2.08H297A599.54,599.54,0,0,0,314.7,54.62H56.18C34.85,54.62,13,55.65,0,56.7V0C12.48,1.56,34.33,4.16,56.18,4.16H302.73c13.53,0,27.57-.52,38.49-3.64Z"/></g></g></svg>