<svg xmlns="http://www.w3.org/2000/svg" viewBox="0 0 411.35 405.2"><defs><style>.cls-1{fill:#a7a7a7;}</style></defs><g id="Layer_2" data-name="Layer 2"><g id="Layer_1-2" data-name="Layer 1"><path d="M377.74,56.8a120,120,0,0,1-24.14,7.1c-20.36,4.74-112.66,22.72-190.77,37.4l-49.23,9.47c-31.71,5.68-55.38,9.93-63.43,11.36C32.66,125,17.51,126.39,0,128.28l13.25,50.65c16.1-3.79,60.59-13.25,112.19-23.67l49.7-10.41C250.41,129.7,325.67,115,339.87,112.19c-16.57,28.4-58.7,83.31-96.09,113.61l48.28,22.71c38.82-40.23,97-120.23,119.29-167.57Z"/><path class="cls-1" d="M246.15,391.94,190.76,405.2a350,350,0,0,0-9.47-42.6c-7.57-26.51-34.08-126.39-55.85-207.34l49.7-10.41c23.2,83.31,49.23,178.45,57.75,206.86C235.73,361.65,242.36,381.06,246.15,391.94Z"/><path class="cls-1" d="M162.83,101.3l-49.23,9.47c-7.57-27.46-13.72-49.23-17-60.12C92.3,35.5,88,22.72,82.36,12.3L136.8,0c1.89,10.41,4.73,23.67,8.52,38.81C150.05,54.91,156.21,76.69,162.83,101.3Z"/></g></g></svg>