<svg xmlns="http://www.w3.org/2000/svg" viewBox="0 0 411.35 405.2"><g id="Layer_2" data-name="Layer 2"><g id="Layer_1-2" data-name="Layer 1"><path d="M243.78,225.8c37.4-30.3,79.53-85.21,96.1-113.61-14.21,2.84-89.47,17.51-164.73,32.66,23.19,83.31,49.22,178.45,57.75,206.86,2.84,9.94,9.46,29.35,13.25,40.23L190.77,405.2a353.83,353.83,0,0,0-9.47-42.6c-7.57-26.51-34.08-126.39-55.86-207.34-51.59,10.42-96.09,19.88-112.19,23.67L0,128.28c17.51-1.89,32.66-3.31,50.18-6.15l63.43-11.36c-7.58-27.46-13.73-49.23-17-60.12C92.31,35.5,88.05,22.72,82.37,12.3L136.8,0c1.9,10.41,4.74,23.67,8.52,38.81,4.74,16.1,10.89,37.88,17.52,62.49,78.1-14.68,170.41-32.66,190.76-37.4a120,120,0,0,0,24.15-7.1l33.6,24.14c-22.25,47.34-80.47,127.34-119.28,167.57Z"/></g></g></svg>