<svg xmlns="http://www.w3.org/2000/svg" viewBox="0 0 376.81 405.2"><defs><style>.cls-1{fill:#a7a7a7;}</style></defs><g id="Layer_2" data-name="Layer 2"><g id="Layer_1-2" data-name="Layer 1"><path d="M376.26,38.77c0-14.2,0-29.49.55-37.68C367,2.18,350.05,2.73,334.76,2.73H81.91C61.16,2.73,22.39,1.09,7.64,0V56.79c14.21-1.09,53.52-2.18,74.27-2.18H318.37V377.9c-.54,10.37-.54,20.75-.54,27.3h59c0-9.83-.55-24.57-.55-36Z"/><path class="cls-1" d="M318.37,324.38V377.9H55.16C34.4,377.9,11.47,379,0,380.08V322.19c10.92,1.1,31.13,2.19,55.16,2.19Z"/><path class="cls-1" d="M318.37,160v51.87H89.56c-24,0-51.33.55-65.53.55V157.28c15.83,1.09,41.5,2.73,65,2.73Z"/></g></g></svg>