<svg xmlns="http://www.w3.org/2000/svg" viewBox="0 0 376.81 405.2"><defs><style>.cls-1{fill:#a7a7a7;}</style></defs><g id="Layer_2" data-name="Layer 2"><g id="Layer_1-2" data-name="Layer 1"><path d="M376.26,38.77c0-14.2,0-29.49.55-37.68C367,2.18,350.05,2.73,334.75,2.73H81.91C61.16,2.73,22.39,1.09,7.64,0V56.79c14.2-1.09,53.52-2.18,74.27-2.18H318.37V160H89c-23.48,0-49.15-1.64-65-2.73v55.15c14.2,0,41.5-.55,65.53-.55H318.37v166c-.54,10.37-.54,20.75-.54,27.3h59c0-9.83-.55-24.57-.55-36Z"/><path class="cls-1" d="M318.37,324.38V377.9H55.15C34.4,377.9,11.47,379,0,380.08V322.19c10.92,1.1,31.13,2.19,55.15,2.19Z"/></g></g></svg>