<svg xmlns="http://www.w3.org/2000/svg" viewBox="0 0 376.81 405.2"><g id="Layer_2" data-name="Layer 2"><g id="Layer_1-2" data-name="Layer 1"><path d="M376.26,369.16c0,11.47.55,26.21.55,36h-59c0-6.55,0-16.93.54-27.3H55.16C34.4,377.9,11.47,379,0,380.08V322.19c10.92,1.1,31.13,2.19,55.16,2.19H318.37V211.88H89.56c-24,0-51.33.55-65.53.55V157.28c15.83,1.09,41.5,2.73,65,2.73H318.37V54.61H81.91c-20.75,0-60.06,1.09-74.27,2.18V0C22.39,1.09,61.16,2.73,81.91,2.73H334.76c15.29,0,32.22-.55,42.05-1.64-.55,8.19-.55,23.48-.55,37.68Z"/></g></g></svg>