<svg xmlns="http://www.w3.org/2000/svg" viewBox="0 0 540.47 405.2"><g id="Layer_2" data-name="Layer 2"><g id="Layer_1-2" data-name="Layer 1"><path d="M485.22,336.61a354,354,0,0,0,55.25-4.45v73c-17.15-1.91-41.91-3.18-55.25-3.18H59.06C40.65,402,20.32,403.29,0,405.2v-73a369.34,369.34,0,0,0,59.06,4.45H334.7c12.06-69.23,36.2-222.93,38.11-266.11H135.91c-24.13,0-44.46,1.27-65.41,2.54V2.54C90.18,4.45,114.32,7,135.28,7H355c14,0,38.74-3.18,47.63-7L456,26c-3.17,7-5.08,19.05-5.71,24.13-7.62,58.44-32.39,216.58-43.82,286.44Z"/></g></g></svg>