<svg id="carracters" xmlns="http://www.w3.org/2000/svg" viewBox="0 0 198.43 35.43"><defs><style>.cls-1{fill:#fff;}</style></defs><path d="M174.39,28.13l1.47-.09a24.61,24.61,0,0,0,5.45-.89,6.92,6.92,0,0,0,2.37-1.21,3.47,3.47,0,0,0,1.25-3.1,3.66,3.66,0,0,0-3.29-3.46,9.61,9.61,0,0,0-4.64.36,13.34,13.34,0,0,0-4.82,2.41c-.74.63-1.38,1.39-2.06,2.08l-.26.3-1.15-1.19c3.57-3.93,7.38-7.69,11.19-11.54l-1.15.08-6.94.46a.57.57,0,0,0-.23.12c-.12.07-.23.16-.4.28l-.24-2c.54,0,1.06,0,1.58,0l5.64-.3c.93-.06,1.86-.16,2.78-.25.22,0,.43-.13.64-.18s.19,0,.22,0l1.34,1.46a1.76,1.76,0,0,1-.44.15.82.82,0,0,0-.49.24c-1.34,1.27-2.7,2.52-4,3.81s-2.36,2.36-3.54,3.54l-.16.17.23-.1a12.62,12.62,0,0,1,6.22-1.49A6.4,6.4,0,0,1,184.83,19a4.73,4.73,0,0,1,1.79,3.28,5.87,5.87,0,0,1-.28,2.85A5.18,5.18,0,0,1,184,27.75a12.75,12.75,0,0,1-3.87,1.36,33.72,33.72,0,0,1-5,.58.26.26,0,0,1-.2-.1C174.71,29.11,174.56,28.63,174.39,28.13Z"/><path class="cls-1" d="M23.14,28.13,24.61,28a24.61,24.61,0,0,0,5.45-.89,6.92,6.92,0,0,0,2.37-1.21,3.47,3.47,0,0,0,1.25-3.1,3.66,3.66,0,0,0-3.29-3.46,9.61,9.61,0,0,0-4.64.36,13.34,13.34,0,0,0-4.82,2.41c-.74.63-1.38,1.39-2.06,2.08l-.26.3-1.15-1.19C21,19.41,24.84,15.65,28.65,11.8l-1.15.08-6.94.46a.57.57,0,0,0-.23.12c-.12.07-.23.16-.4.28l-.24-2c.54,0,1.06,0,1.58,0l5.64-.3c.93-.06,1.86-.16,2.78-.25.22,0,.43-.13.64-.18s.19,0,.22,0l1.34,1.46a1.76,1.76,0,0,1-.44.15.82.82,0,0,0-.49.24c-1.34,1.27-2.7,2.52-4,3.81S24.58,18,23.4,19.17l-.16.17.23-.1a12.62,12.62,0,0,1,6.22-1.49A6.4,6.4,0,0,1,33.58,19a4.73,4.73,0,0,1,1.79,3.28,5.87,5.87,0,0,1-.28,2.85,5.18,5.18,0,0,1-2.38,2.61,12.75,12.75,0,0,1-3.87,1.36,33.72,33.72,0,0,1-5,.58.26.26,0,0,1-.2-.1C23.46,29.11,23.31,28.63,23.14,28.13Z"/><path d="M176.93,18l1.84-2.77.17.11-1.33,2,0,.05a9.27,9.27,0,0,1,7.05-.56l-.19-.29-.18-.27c.07,0,.17-.07.19-.06l.62.89c-.37.09-.69.18-1,.24-.05,0-.11-.06-.16-.1l0-.06.55-.15A8.94,8.94,0,0,0,176.93,18Z"/><path d="M171.7,9.08l.4.3a.19.19,0,0,1,0,.3l-.31.41-.17-.1.23-.33-2,.17c-.06-.14,0-.2.12-.21l1.43-.12.36,0C171.78,9.31,171.42,9.28,171.7,9.08Z"/></svg>