<?xml version="1.0" encoding="utf-8"?>
<!-- Generator: Adobe Illustrator 24.2.3, SVG Export Plug-In . SVG Version: 6.00 Build 0)  -->
<svg version="1.1" id="Layer_1" xmlns="http://www.w3.org/2000/svg" xmlns:xlink="http://www.w3.org/1999/xlink" x="0px" y="0px"
	 viewBox="0 0 212.1 56.6" style="enable-background:new 0 0 212.1 56.6;" xml:space="preserve">
<style type="text/css">
	.st0{fill:#FFFFFF;}
	.st1{fill:url(#SVGID_1_);}
	.st2{fill:url(#SVGID_2_);}
	.st3{fill:url(#SVGID_3_);}
	.st4{fill:url(#SVGID_4_);}
	.st5{fill:url(#SVGID_5_);}
	.st6{fill:url(#SVGID_6_);}
	.st7{fill:url(#SVGID_7_);}
	.st8{fill:url(#SVGID_8_);}
	.st9{fill:url(#SVGID_9_);}
	.st10{fill:url(#SVGID_10_);}
	.st11{fill:url(#SVGID_11_);}
	.st12{fill:url(#SVGID_12_);}
	.st13{fill:url(#SVGID_13_);}
	.st14{fill:url(#SVGID_14_);}
	.st15{fill:url(#SVGID_15_);}
	.st16{fill:url(#SVGID_16_);}
	.st17{fill:url(#SVGID_17_);}
	.st18{fill:url(#SVGID_18_);}
	.st19{fill:url(#SVGID_19_);}
	.st20{fill:url(#SVGID_20_);}
	.st21{fill:url(#SVGID_21_);}
	.st22{fill:url(#SVGID_22_);}
	.st23{fill:url(#SVGID_23_);}
	.st24{fill:url(#SVGID_24_);}
	.st25{fill:url(#SVGID_25_);}
	.st26{fill:url(#SVGID_26_);}
	.st27{fill:url(#SVGID_27_);}
	.st28{fill:url(#SVGID_28_);}
	.st29{fill:url(#SVGID_29_);}
	.st30{fill:url(#SVGID_30_);}
	.st31{fill:url(#SVGID_31_);}
</style>
<rect x="-43.8" y="-184.6" class="st0" width="300" height="300"/>
<g>
	<g>
		<g>
			
				<linearGradient id="SVGID_1_" gradientUnits="userSpaceOnUse" x1="178.6721" y1="1563.358" x2="-0.6078" y2="1782.958" gradientTransform="matrix(1 0 0 1 0 -1758.9788)">
				<stop  offset="0" style="stop-color:#8FD3F5"/>
				<stop  offset="0.2108" style="stop-color:#76CBF3"/>
				<stop  offset="0.6567" style="stop-color:#35B7EC"/>
				<stop  offset="1" style="stop-color:#00A7E7"/>
			</linearGradient>
			<path class="st1" d="M21.8,11.3c0,5.1-3.4,8-7.6,8.5c-1.3,0.2-2.5,0.2-4,0.2H4.6v12.7H1.9V2.8h8.3c1.5,0,2.7,0,4,0.2
				C18.7,3.5,21.8,6.2,21.8,11.3z M18.9,11.3c0-3.8-2.2-5.6-4.9-6c-1-0.2-2.2-0.2-3.6-0.2H4.6v12.7h5.8c1.4,0,2.6,0,3.6-0.2
				C16.8,17.1,18.9,15.3,18.9,11.3z"/>
			
				<linearGradient id="SVGID_2_" gradientUnits="userSpaceOnUse" x1="198.1382" y1="1579.25" x2="18.8581" y2="1798.8501" gradientTransform="matrix(1 0 0 1 0 -1758.9788)">
				<stop  offset="0" style="stop-color:#8FD3F5"/>
				<stop  offset="0.2108" style="stop-color:#76CBF3"/>
				<stop  offset="0.6567" style="stop-color:#35B7EC"/>
				<stop  offset="1" style="stop-color:#00A7E7"/>
			</linearGradient>
			<path class="st2" d="M43.9,22H26.5c0.3,6.8,3.7,9.1,7.5,9.1c3.2,0,6.1-1.9,6.9-5.7h2.8c-1.1,5.3-5.3,7.9-9.9,7.9
				c-5.7,0-10.2-4-10.2-12.1c0-7.4,4.6-12.1,10.6-12.1c6.4,0,9.8,5.1,9.8,11.4C44,20.9,44,21.3,43.9,22z M26.5,19.9h14.7
				c-0.3-5.9-3.3-8.6-7.1-8.6C30.4,11.3,26.9,14.2,26.5,19.9z"/>
			
				<linearGradient id="SVGID_3_" gradientUnits="userSpaceOnUse" x1="207.793" y1="1587.1322" x2="28.5131" y2="1806.7322" gradientTransform="matrix(1 0 0 1 0 -1758.9788)">
				<stop  offset="0" style="stop-color:#8FD3F5"/>
				<stop  offset="0.2108" style="stop-color:#76CBF3"/>
				<stop  offset="0.6567" style="stop-color:#35B7EC"/>
				<stop  offset="1" style="stop-color:#00A7E7"/>
			</linearGradient>
			<path class="st3" d="M58.5,9.4v2.1c-4-0.3-6.9,2.2-6.9,8.3v12.9h-2.7V9.7h2.7v4.2l1.7-2.9c1-1.1,2.5-1.7,3.9-1.7
				C57.6,9.2,58.1,9.3,58.5,9.4z"/>
			
				<linearGradient id="SVGID_4_" gradientUnits="userSpaceOnUse" x1="214.2862" y1="1592.4331" x2="35.0061" y2="1812.0331" gradientTransform="matrix(1 0 0 1 0 -1758.9788)">
				<stop  offset="0" style="stop-color:#8FD3F5"/>
				<stop  offset="0.2108" style="stop-color:#76CBF3"/>
				<stop  offset="0.6567" style="stop-color:#35B7EC"/>
				<stop  offset="1" style="stop-color:#00A7E7"/>
			</linearGradient>
			<path class="st4" d="M65,7.1v2.8h4.7v2.2H65v20.6h-2.7V12.1h-2.5V9.9h2.5V7.4c0-0.8,0-1.7,0.1-2.6C62.7,1.6,64.8,0,67.7,0
				c0.9,0,1.7,0.1,2.4,0.2v2.3c-3-0.6-4.8,0.4-5,2.4C65,5.6,65,6.5,65,7.1z"/>
			
				<linearGradient id="SVGID_5_" gradientUnits="userSpaceOnUse" x1="227.4099" y1="1603.1473" x2="48.1299" y2="1822.7472" gradientTransform="matrix(1 0 0 1 0 -1758.9788)">
				<stop  offset="0" style="stop-color:#8FD3F5"/>
				<stop  offset="0.2108" style="stop-color:#76CBF3"/>
				<stop  offset="0.6567" style="stop-color:#35B7EC"/>
				<stop  offset="1" style="stop-color:#00A7E7"/>
			</linearGradient>
			<path class="st5" d="M94,21.2c0,6.7-3.9,12.1-11.1,12.1S71.7,28,71.7,21.2c0-6.8,3.9-12.1,11.1-12.1C90.2,9.1,94,14.5,94,21.2z
				 M91.1,21.2c0-6.2-3.4-9.9-8.2-9.9c-4.8,0-8.2,3.7-8.2,9.9c0,6.2,3.4,9.9,8.2,9.9C87.6,31.2,91.1,27.5,91.1,21.2z"/>
			
				<linearGradient id="SVGID_6_" gradientUnits="userSpaceOnUse" x1="241.5037" y1="1614.6534" x2="62.2237" y2="1834.2534" gradientTransform="matrix(1 0 0 1 0 -1758.9788)">
				<stop  offset="0" style="stop-color:#8FD3F5"/>
				<stop  offset="0.2108" style="stop-color:#76CBF3"/>
				<stop  offset="0.6567" style="stop-color:#35B7EC"/>
				<stop  offset="1" style="stop-color:#00A7E7"/>
			</linearGradient>
			<path class="st6" d="M121.1,23.3c0,5.9-5,8.5-9.6,9.1c-1.5,0.2-2.5,0.2-4,0.2H97.2l5.3-29.9h9.7c1.5,0,2.4,0,3.9,0.2
				c4.1,0.6,6.3,2.7,6.3,6.2c0,4.1-2.3,6.5-6.3,7.6C119.3,17.7,121.1,19.8,121.1,23.3z M115.9,23.1c0-2.5-1.5-3.6-3.7-3.9
				c-0.8-0.1-1.5-0.1-2.2-0.1h-5.6l-1.7,9.8h5.7c0.7,0,1.5,0,2.1,0C113.3,28.6,115.9,26.6,115.9,23.1z M105.1,15.4h5.2
				c0.8,0,1.5,0,2.3-0.2c3.4-0.5,4.6-2.6,4.6-5.2c0-2.1-1.4-3.2-3.4-3.4c-0.7-0.1-1.6-0.1-2.3-0.1h-4.9L105.1,15.4z"/>
			
				<linearGradient id="SVGID_7_" gradientUnits="userSpaceOnUse" x1="259.6613" y1="1629.4772" x2="80.3814" y2="1849.0771" gradientTransform="matrix(1 0 0 1 0 -1758.9788)">
				<stop  offset="0" style="stop-color:#8FD3F5"/>
				<stop  offset="0.2108" style="stop-color:#76CBF3"/>
				<stop  offset="0.6567" style="stop-color:#35B7EC"/>
				<stop  offset="1" style="stop-color:#00A7E7"/>
			</linearGradient>
			<path class="st7" d="M148.5,19.3c0,6.5-4.1,14-13.5,14c-7.2,0-10.2-4.7-10.2-10.2c0-6.5,4.1-14.1,13.5-14.1
				C145.5,9.1,148.5,13.8,148.5,19.3z M143.4,19.3c0-3.8-1.7-6.8-5.6-6.8c-5.2,0-7.9,5.4-7.9,10.4c0,3.8,1.7,6.9,5.6,6.9
				C140.7,29.8,143.4,24.4,143.4,19.3z"/>
			
				<linearGradient id="SVGID_8_" gradientUnits="userSpaceOnUse" x1="275.2929" y1="1642.2388" x2="96.013" y2="1861.8387" gradientTransform="matrix(1 0 0 1 0 -1758.9788)">
				<stop  offset="0" style="stop-color:#8FD3F5"/>
				<stop  offset="0.2108" style="stop-color:#76CBF3"/>
				<stop  offset="0.6567" style="stop-color:#35B7EC"/>
				<stop  offset="1" style="stop-color:#00A7E7"/>
			</linearGradient>
			<path class="st8" d="M174.6,19.3c0,6.5-4.1,14-13.5,14c-7.2,0-10.2-4.7-10.2-10.2c0-6.5,4.1-14.1,13.5-14.1
				C171.6,9.1,174.6,13.8,174.6,19.3z M169.4,19.3c0-3.8-1.7-6.8-5.6-6.8c-5.2,0-7.9,5.4-7.9,10.4c0,3.8,1.7,6.9,5.6,6.9
				C166.8,29.8,169.4,24.4,169.4,19.3z"/>
			
				<linearGradient id="SVGID_9_" gradientUnits="userSpaceOnUse" x1="289.2852" y1="1653.6619" x2="110.0051" y2="1873.2618" gradientTransform="matrix(1 0 0 1 0 -1758.9788)">
				<stop  offset="0" style="stop-color:#8FD3F5"/>
				<stop  offset="0.2108" style="stop-color:#76CBF3"/>
				<stop  offset="0.6567" style="stop-color:#35B7EC"/>
				<stop  offset="1" style="stop-color:#00A7E7"/>
			</linearGradient>
			<path class="st9" d="M195.2,16.3h-4.8c-0.2-2.4-1.3-3.9-3.6-3.9c-2.7,0-3.9,1.5-3.9,3.2c0,2,1.5,2.9,4.3,3.8
				c4.5,1.4,6.7,3.3,6.7,7c0,4.2-3.6,7.2-9.4,7.2c-6.5,0-9.1-3.6-9.3-7.5h4.9c0.3,3,2.2,4.1,4.7,4.1c2.3,0,4.1-1.3,4.1-3.4
				c0-1.9-1.3-2.9-4.7-4.1c-3.6-1.1-6.3-2.6-6.3-6.6c0-3.8,3.1-7.1,9.1-7.1C192.7,9.1,195.1,12.1,195.2,16.3z"/>
			
				<linearGradient id="SVGID_10_" gradientUnits="userSpaceOnUse" x1="299.1059" y1="1661.6793" x2="119.8259" y2="1881.2794" gradientTransform="matrix(1 0 0 1 0 -1758.9788)">
				<stop  offset="0" style="stop-color:#8FD3F5"/>
				<stop  offset="0.2108" style="stop-color:#76CBF3"/>
				<stop  offset="0.6567" style="stop-color:#35B7EC"/>
				<stop  offset="1" style="stop-color:#00A7E7"/>
			</linearGradient>
			<path class="st10" d="M203.6,25.2c-0.3,1.4-0.3,1.9-0.3,2.5c0,1.7,1.2,2.1,3.9,1.7l-0.6,3.3c-1,0.3-2.3,0.4-3.4,0.4
				c-3.3,0-4.8-1.1-4.8-3.6c0-0.7,0.1-1.9,0.5-3.8l2.2-12.5h-3.2l0.6-3.3h3.2l0.9-5.5h4.7l-0.9,5.5h4.2l-0.6,3.3h-4.2L203.6,25.2z"
				/>
		</g>
		<g>
			
				<linearGradient id="SVGID_11_" gradientUnits="userSpaceOnUse" x1="200.3264" y1="1581.0365" x2="21.0465" y2="1800.6366" gradientTransform="matrix(1 0 0 1 0 -1758.9788)">
				<stop  offset="0" style="stop-color:#8FD3F5"/>
				<stop  offset="0.2108" style="stop-color:#76CBF3"/>
				<stop  offset="0.6567" style="stop-color:#35B7EC"/>
				<stop  offset="1" style="stop-color:#00A7E7"/>
			</linearGradient>
			<path class="st11" d="M19,49c0,2.4-1.5,3.6-3,3.8c-0.4,0-0.6,0-1,0h-2.2v-7.6h2.3c0.4,0,0.6,0,0.9,0C17.6,45.5,19,46.6,19,49z
				 M18.3,49c0-1.9-1.1-2.9-2.3-3.1c-0.2,0-0.5,0-0.9,0h-1.5v6.4h1.5c0.4,0,0.6,0,0.9,0C17.2,52,18.3,50.9,18.3,49z"/>
			
				<linearGradient id="SVGID_12_" gradientUnits="userSpaceOnUse" x1="206.3026" y1="1585.9154" x2="27.0226" y2="1805.5155" gradientTransform="matrix(1 0 0 1 0 -1758.9788)">
				<stop  offset="0" style="stop-color:#8FD3F5"/>
				<stop  offset="0.2108" style="stop-color:#76CBF3"/>
				<stop  offset="0.6567" style="stop-color:#35B7EC"/>
				<stop  offset="1" style="stop-color:#00A7E7"/>
			</linearGradient>
			<path class="st12" d="M27.4,52.8h-4.9v-7.6h4.8v0.6h-4.1v2.9H27v0.6h-3.8v2.9h4.2C27.4,52.3,27.4,52.8,27.4,52.8z"/>
			
				<linearGradient id="SVGID_13_" gradientUnits="userSpaceOnUse" x1="210.458" y1="1589.3079" x2="31.178" y2="1808.908" gradientTransform="matrix(1 0 0 1 0 -1758.9788)">
				<stop  offset="0" style="stop-color:#8FD3F5"/>
				<stop  offset="0.2108" style="stop-color:#76CBF3"/>
				<stop  offset="0.6567" style="stop-color:#35B7EC"/>
				<stop  offset="1" style="stop-color:#00A7E7"/>
			</linearGradient>
			<path class="st13" d="M32.8,52.8l-2.7-7.6h0.7l2.5,7.1l2.5-7.1h0.7l-2.8,7.6H32.8z"/>
			
				<linearGradient id="SVGID_14_" gradientUnits="userSpaceOnUse" x1="216.4736" y1="1594.219" x2="37.1936" y2="1813.819" gradientTransform="matrix(1 0 0 1 0 -1758.9788)">
				<stop  offset="0" style="stop-color:#8FD3F5"/>
				<stop  offset="0.2108" style="stop-color:#76CBF3"/>
				<stop  offset="0.6567" style="stop-color:#35B7EC"/>
				<stop  offset="1" style="stop-color:#00A7E7"/>
			</linearGradient>
			<path class="st14" d="M44.4,52.8h-4.9v-7.6h4.8v0.6h-4.1v2.9H44v0.6h-3.8v2.9h4.2V52.8z"/>
			
				<linearGradient id="SVGID_15_" gradientUnits="userSpaceOnUse" x1="221.4542" y1="1598.285" x2="42.1742" y2="1817.885" gradientTransform="matrix(1 0 0 1 0 -1758.9788)">
				<stop  offset="0" style="stop-color:#8FD3F5"/>
				<stop  offset="0.2108" style="stop-color:#76CBF3"/>
				<stop  offset="0.6567" style="stop-color:#35B7EC"/>
				<stop  offset="1" style="stop-color:#00A7E7"/>
			</linearGradient>
			<path class="st15" d="M52.7,52.8h-4.9v-7.6h0.7v7h4.2V52.8z"/>
			
				<linearGradient id="SVGID_16_" gradientUnits="userSpaceOnUse" x1="226.3742" y1="1602.3016" x2="47.0941" y2="1821.9017" gradientTransform="matrix(1 0 0 1 0 -1758.9788)">
				<stop  offset="0" style="stop-color:#8FD3F5"/>
				<stop  offset="0.2108" style="stop-color:#76CBF3"/>
				<stop  offset="0.6567" style="stop-color:#35B7EC"/>
				<stop  offset="1" style="stop-color:#00A7E7"/>
			</linearGradient>
			<path class="st16" d="M62,49c0,2.3-1.3,3.9-3.5,3.9c-2.2,0-3.5-1.7-3.5-3.9c0-2.3,1.3-3.9,3.5-3.9C60.6,45.1,62,46.7,62,49z
				 M61.2,49c0-2.1-1.1-3.4-2.8-3.4c-1.6,0-2.8,1.3-2.8,3.4c0,2.1,1.1,3.4,2.8,3.4C60.1,52.4,61.2,51.2,61.2,49z"/>
			
				<linearGradient id="SVGID_17_" gradientUnits="userSpaceOnUse" x1="230.9651" y1="1606.0497" x2="51.685" y2="1825.6498" gradientTransform="matrix(1 0 0 1 0 -1758.9788)">
				<stop  offset="0" style="stop-color:#8FD3F5"/>
				<stop  offset="0.2108" style="stop-color:#76CBF3"/>
				<stop  offset="0.6567" style="stop-color:#35B7EC"/>
				<stop  offset="1" style="stop-color:#00A7E7"/>
			</linearGradient>
			<path class="st17" d="M70.5,47.4c0,1.3-0.9,2-1.9,2.2c-0.3,0-0.6,0-1,0h-1.4v3.2h-0.7v-7.6h2.1c0.4,0,0.7,0,1,0
				C69.7,45.4,70.5,46.1,70.5,47.4z M69.7,47.4c0-1-0.6-1.4-1.2-1.5c-0.3,0-0.6-0.1-0.9-0.1h-1.5V49h1.5c0.4,0,0.7,0,0.9-0.1
				C69.2,48.9,69.7,48.4,69.7,47.4z"/>
			
				<linearGradient id="SVGID_18_" gradientUnits="userSpaceOnUse" x1="235.9035" y1="1610.0814" x2="56.6236" y2="1829.6814" gradientTransform="matrix(1 0 0 1 0 -1758.9788)">
				<stop  offset="0" style="stop-color:#8FD3F5"/>
				<stop  offset="0.2108" style="stop-color:#76CBF3"/>
				<stop  offset="0.6567" style="stop-color:#35B7EC"/>
				<stop  offset="1" style="stop-color:#00A7E7"/>
			</linearGradient>
			<path class="st18" d="M78.7,47.4c0,1.3-0.9,2-1.9,2.2c-0.3,0-0.6,0-1,0h-1.4v3.2h-0.7v-7.6h2.1c0.4,0,0.7,0,1,0
				C77.9,45.4,78.7,46.1,78.7,47.4z M78,47.4c0-1-0.6-1.4-1.2-1.5c-0.3,0-0.6-0.1-0.9-0.1h-1.5V49h1.5c0.4,0,0.7,0,0.9-0.1
				C77.4,48.9,78,48.4,78,47.4z"/>
			
				<linearGradient id="SVGID_19_" gradientUnits="userSpaceOnUse" x1="241.9284" y1="1614.9999" x2="62.6482" y2="1834.5999" gradientTransform="matrix(1 0 0 1 0 -1758.9788)">
				<stop  offset="0" style="stop-color:#8FD3F5"/>
				<stop  offset="0.2108" style="stop-color:#76CBF3"/>
				<stop  offset="0.6567" style="stop-color:#35B7EC"/>
				<stop  offset="1" style="stop-color:#00A7E7"/>
			</linearGradient>
			<path class="st19" d="M86.8,52.8h-4.9v-7.6h4.8v0.6h-4.1v2.9h3.8v0.6h-3.8v2.9h4.2V52.8L86.8,52.8z"/>
			
				<linearGradient id="SVGID_20_" gradientUnits="userSpaceOnUse" x1="246.6808" y1="1618.8799" x2="67.4009" y2="1838.48" gradientTransform="matrix(1 0 0 1 0 -1758.9788)">
				<stop  offset="0" style="stop-color:#8FD3F5"/>
				<stop  offset="0.2108" style="stop-color:#76CBF3"/>
				<stop  offset="0.6567" style="stop-color:#35B7EC"/>
				<stop  offset="1" style="stop-color:#00A7E7"/>
			</linearGradient>
			<path class="st20" d="M95.5,50.1c0,0.2,0,0.4,0,0.7C95.4,52,94.6,53,92.8,53c-1.7,0-2.6-0.9-2.7-2.2c0-0.3,0-0.5,0-0.7v-4.9h0.7
				v4.8c0,0.2,0,0.5,0,0.7c0.1,1,0.7,1.7,2,1.7c1.3,0,1.9-0.7,2-1.7c0-0.2,0-0.4,0-0.7v-4.8h0.7V50.1L95.5,50.1z"/>
			
				<linearGradient id="SVGID_21_" gradientUnits="userSpaceOnUse" x1="252.4917" y1="1623.6239" x2="73.2117" y2="1843.224" gradientTransform="matrix(1 0 0 1 0 -1758.9788)">
				<stop  offset="0" style="stop-color:#8FD3F5"/>
				<stop  offset="0.2108" style="stop-color:#76CBF3"/>
				<stop  offset="0.6567" style="stop-color:#35B7EC"/>
				<stop  offset="1" style="stop-color:#00A7E7"/>
			</linearGradient>
			<path class="st21" d="M104.6,52.8h-0.8c-0.2-0.5-0.3-1-0.4-1.9c-0.1-0.8-0.4-1.4-1.2-1.5c-0.2,0-0.4,0-0.6,0H100v3.4h-0.7v-7.6
				h2.2c0.4,0,0.7,0,1,0c1.1,0.1,1.9,0.8,1.9,2c0,1-0.6,1.6-1.4,1.8c0.7,0.3,1,1,1,1.8C104.2,51.8,104.3,52.4,104.6,52.8z
				 M101.6,48.8c0.3,0,0.5,0,0.8,0c0.8-0.1,1.4-0.6,1.4-1.5s-0.5-1.3-1.3-1.4c-0.3,0-0.5,0-0.9,0H100v3L101.6,48.8L101.6,48.8
				L101.6,48.8z"/>
			
				<linearGradient id="SVGID_22_" gradientUnits="userSpaceOnUse" x1="259.8825" y1="1629.6577" x2="80.6025" y2="1849.2577" gradientTransform="matrix(1 0 0 1 0 -1758.9788)">
				<stop  offset="0" style="stop-color:#8FD3F5"/>
				<stop  offset="0.2108" style="stop-color:#76CBF3"/>
				<stop  offset="0.6567" style="stop-color:#35B7EC"/>
				<stop  offset="1" style="stop-color:#00A7E7"/>
			</linearGradient>
			<path class="st22" d="M118.3,49c0,2.4-1.5,3.6-3,3.8c-0.4,0-0.6,0-1,0h-2.2v-7.6h2.3c0.4,0,0.6,0,0.9,0
				C116.8,45.5,118.3,46.6,118.3,49z M117.5,49c0-1.9-1.1-2.9-2.3-3.1c-0.2,0-0.5,0-0.9,0h-1.5v6.4h1.5c0.4,0,0.6,0,0.9,0
				C116.5,52,117.5,50.9,117.5,49z"/>
			
				<linearGradient id="SVGID_23_" gradientUnits="userSpaceOnUse" x1="265.8587" y1="1634.5365" x2="86.5786" y2="1854.1366" gradientTransform="matrix(1 0 0 1 0 -1758.9788)">
				<stop  offset="0" style="stop-color:#8FD3F5"/>
				<stop  offset="0.2108" style="stop-color:#76CBF3"/>
				<stop  offset="0.6567" style="stop-color:#35B7EC"/>
				<stop  offset="1" style="stop-color:#00A7E7"/>
			</linearGradient>
			<path class="st23" d="M126.7,52.8h-4.9v-7.6h4.8v0.6h-4.1v2.9h3.8v0.6h-3.8v2.9h4.2C126.7,52.3,126.7,52.8,126.7,52.8z"/>
			
				<linearGradient id="SVGID_24_" gradientUnits="userSpaceOnUse" x1="273.1208" y1="1640.4653" x2="93.8409" y2="1860.0654" gradientTransform="matrix(1 0 0 1 0 -1758.9788)">
				<stop  offset="0" style="stop-color:#8FD3F5"/>
				<stop  offset="0.2108" style="stop-color:#76CBF3"/>
				<stop  offset="0.6567" style="stop-color:#35B7EC"/>
				<stop  offset="1" style="stop-color:#00A7E7"/>
			</linearGradient>
			<path class="st24" d="M139.5,50.7c0,1.3-1,2-2,2.1c-0.3,0-0.6,0-0.9,0h-2.3v-7.6h2.1c0.3,0,0.6,0,0.9,0c1.2,0.1,1.9,0.8,1.9,1.8
				c0,0.9-0.5,1.5-1.4,1.7C138.9,49,139.5,49.6,139.5,50.7z M135,48.6h1.6c0.2,0,0.4,0,0.6,0c0.8-0.1,1.3-0.5,1.3-1.4
				c0-0.9-0.6-1.3-1.4-1.4c-0.2,0-0.4,0-0.6,0H135L135,48.6L135,48.6z M138.8,50.7c0-0.9-0.5-1.5-1.5-1.6c-0.3,0-0.4,0-0.6,0H135
				v3.1h1.8c0.2,0,0.4,0,0.5,0C138.1,52.2,138.8,51.7,138.8,50.7z"/>
			
				<linearGradient id="SVGID_25_" gradientUnits="userSpaceOnUse" x1="278.3642" y1="1644.746" x2="99.084" y2="1864.3458" gradientTransform="matrix(1 0 0 1 0 -1758.9788)">
				<stop  offset="0" style="stop-color:#8FD3F5"/>
				<stop  offset="0.2108" style="stop-color:#76CBF3"/>
				<stop  offset="0.6567" style="stop-color:#35B7EC"/>
				<stop  offset="1" style="stop-color:#00A7E7"/>
			</linearGradient>
			<path class="st25" d="M148.3,50.1c0,0.2,0,0.4,0,0.7c-0.1,1.2-0.9,2.2-2.7,2.2c-1.7,0-2.6-0.9-2.7-2.2c0-0.3,0-0.5,0-0.7v-4.9
				h0.7v4.8c0,0.2,0,0.5,0,0.7c0.1,1,0.7,1.7,2,1.7c1.3,0,1.9-0.7,2-1.7c0-0.2,0-0.4,0-0.7v-4.8h0.7L148.3,50.1L148.3,50.1z"/>
			
				<linearGradient id="SVGID_26_" gradientUnits="userSpaceOnUse" x1="283.9486" y1="1649.3052" x2="104.6687" y2="1868.9052" gradientTransform="matrix(1 0 0 1 0 -1758.9788)">
				<stop  offset="0" style="stop-color:#8FD3F5"/>
				<stop  offset="0.2108" style="stop-color:#76CBF3"/>
				<stop  offset="0.6567" style="stop-color:#35B7EC"/>
				<stop  offset="1" style="stop-color:#00A7E7"/>
			</linearGradient>
			<path class="st26" d="M156.8,47.3h-0.7c-0.1-1-0.8-1.6-1.8-1.6c-0.9,0-1.7,0.4-1.7,1.4c0,0.9,0.5,1.3,1.8,1.6
				c1.6,0.4,2.4,1,2.4,2.3s-1.1,2.1-2.6,2.1c-1.5,0-2.6-0.8-2.8-2.2h0.7c0.2,1.1,1,1.7,2.1,1.7c1,0,1.8-0.6,1.8-1.4
				c0-1-0.6-1.4-2-1.8c-1.4-0.4-2.3-0.9-2.3-2.1c0-1.2,1.1-2,2.5-2C155.9,45.1,156.7,46,156.8,47.3z"/>
			
				<linearGradient id="SVGID_27_" gradientUnits="userSpaceOnUse" x1="287.7879" y1="1652.4395" x2="108.5078" y2="1872.0394" gradientTransform="matrix(1 0 0 1 0 -1758.9788)">
				<stop  offset="0" style="stop-color:#8FD3F5"/>
				<stop  offset="0.2108" style="stop-color:#76CBF3"/>
				<stop  offset="0.6567" style="stop-color:#35B7EC"/>
				<stop  offset="1" style="stop-color:#00A7E7"/>
			</linearGradient>
			<path class="st27" d="M160.4,52.8v-7.6h0.7v7.6H160.4z"/>
			
				<linearGradient id="SVGID_28_" gradientUnits="userSpaceOnUse" x1="292.0153" y1="1655.8906" x2="112.7353" y2="1875.4907" gradientTransform="matrix(1 0 0 1 0 -1758.9788)">
				<stop  offset="0" style="stop-color:#8FD3F5"/>
				<stop  offset="0.2108" style="stop-color:#76CBF3"/>
				<stop  offset="0.6567" style="stop-color:#35B7EC"/>
				<stop  offset="1" style="stop-color:#00A7E7"/>
			</linearGradient>
			<path class="st28" d="M169.6,52.8l-3.9-6.9c0,0.9,0,2.1,0,3v3.9H165v-7.6h1l3.9,6.9c0-0.9,0-2.1,0-3v-3.9h0.7l0,7.6H169.6z"/>
			
				<linearGradient id="SVGID_29_" gradientUnits="userSpaceOnUse" x1="297.5238" y1="1660.3878" x2="118.2438" y2="1879.9879" gradientTransform="matrix(1 0 0 1 0 -1758.9788)">
				<stop  offset="0" style="stop-color:#8FD3F5"/>
				<stop  offset="0.2108" style="stop-color:#76CBF3"/>
				<stop  offset="0.6567" style="stop-color:#35B7EC"/>
				<stop  offset="1" style="stop-color:#00A7E7"/>
			</linearGradient>
			<path class="st29" d="M179.5,52.8h-4.9v-7.6h4.8v0.6h-4.1v2.9h3.8v0.6h-3.8v2.9h4.2V52.8z"/>
			
				<linearGradient id="SVGID_30_" gradientUnits="userSpaceOnUse" x1="302.3825" y1="1664.3544" x2="123.1026" y2="1883.9545" gradientTransform="matrix(1 0 0 1 0 -1758.9788)">
				<stop  offset="0" style="stop-color:#8FD3F5"/>
				<stop  offset="0.2108" style="stop-color:#76CBF3"/>
				<stop  offset="0.6567" style="stop-color:#35B7EC"/>
				<stop  offset="1" style="stop-color:#00A7E7"/>
			</linearGradient>
			<path class="st30" d="M187.5,47.3h-0.7c-0.1-1-0.8-1.6-1.8-1.6c-0.9,0-1.7,0.4-1.7,1.4c0,0.9,0.5,1.3,1.8,1.6
				c1.6,0.4,2.4,1,2.4,2.3s-1.1,2.1-2.6,2.1c-1.5,0-2.6-0.8-2.8-2.2h0.7c0.2,1.1,1,1.7,2.1,1.7c1,0,1.8-0.6,1.8-1.4
				c0-1-0.6-1.4-2-1.8c-1.4-0.4-2.3-0.9-2.3-2.1c0-1.2,1.1-2,2.5-2C186.6,45.1,187.4,46,187.5,47.3z"/>
			
				<linearGradient id="SVGID_31_" gradientUnits="userSpaceOnUse" x1="307.3691" y1="1668.4254" x2="128.0891" y2="1888.0254" gradientTransform="matrix(1 0 0 1 0 -1758.9788)">
				<stop  offset="0" style="stop-color:#8FD3F5"/>
				<stop  offset="0.2108" style="stop-color:#76CBF3"/>
				<stop  offset="0.6567" style="stop-color:#35B7EC"/>
				<stop  offset="1" style="stop-color:#00A7E7"/>
			</linearGradient>
			<path class="st31" d="M195.8,47.3h-0.7c-0.1-1-0.8-1.6-1.8-1.6c-0.9,0-1.7,0.4-1.7,1.4c0,0.9,0.5,1.3,1.8,1.6
				c1.6,0.4,2.4,1,2.4,2.3s-1.1,2.1-2.6,2.1c-1.5,0-2.6-0.8-2.8-2.2h0.7c0.2,1.1,1,1.7,2.1,1.7c1,0,1.8-0.6,1.8-1.4
				c0-1-0.6-1.4-2-1.8c-1.4-0.4-2.3-0.9-2.3-2.1c0-1.2,1.1-2,2.5-2C194.9,45.1,195.7,46,195.8,47.3z"/>
		</g>
	</g>
</g>
</svg>
