<?xml version="1.0" encoding="utf-8"?>
<!-- Generator: Adobe Illustrator 24.2.3, SVG Export Plug-In . SVG Version: 6.00 Build 0)  -->
<svg version="1.1" id="Layer_1" xmlns="http://www.w3.org/2000/svg" xmlns:xlink="http://www.w3.org/1999/xlink" x="0px" y="0px"
	 viewBox="0 0 212.1 56.6" style="enable-background:new 0 0 212.1 56.6;" xml:space="preserve">
<style type="text/css">
	.st0{fill:#FFFFFF;}
</style>
<g>
	<g>
		<g>
			<path class="st0" d="M21.8,11.3c0,5.1-3.4,8-7.6,8.5c-1.3,0.2-2.5,0.2-4,0.2H4.6v12.7H1.9V2.8h8.3c1.5,0,2.7,0,4,0.2
				C18.7,3.5,21.8,6.2,21.8,11.3z M18.9,11.3c0-3.8-2.2-5.6-4.9-6c-1-0.2-2.2-0.2-3.6-0.2H4.6v12.7h5.8c1.4,0,2.6,0,3.6-0.2
				C16.8,17.1,18.9,15.3,18.9,11.3z"/>
			<path class="st0" d="M43.9,22H26.5c0.3,6.8,3.7,9.1,7.5,9.1c3.2,0,6.1-1.9,6.9-5.7h2.8c-1.1,5.3-5.3,7.9-9.9,7.9
				c-5.7,0-10.2-4-10.2-12.1c0-7.4,4.6-12.1,10.6-12.1c6.4,0,9.8,5.1,9.8,11.4C44,20.9,44,21.3,43.9,22z M26.5,19.9h14.7
				c-0.3-5.9-3.3-8.6-7.1-8.6C30.4,11.3,26.9,14.2,26.5,19.9z"/>
			<path class="st0" d="M58.5,9.4v2.1c-4-0.3-6.9,2.2-6.9,8.3v12.9h-2.7v-23h2.7v4.2l1.7-2.9c1-1.1,2.5-1.7,3.9-1.7
				C57.6,9.2,58.1,9.3,58.5,9.4z"/>
			<path class="st0" d="M65,7.1v2.8h4.7v2.2H65v20.6h-2.7V12.1h-2.5V9.9h2.5V7.4c0-0.8,0-1.7,0.1-2.6C62.7,1.6,64.8,0,67.7,0
				c0.9,0,1.7,0.1,2.4,0.2v2.3c-3-0.6-4.8,0.4-5,2.4C65,5.6,65,6.5,65,7.1z"/>
			<path class="st0" d="M94,21.2c0,6.7-3.9,12.1-11.1,12.1S71.7,28,71.7,21.2S75.6,9.1,82.8,9.1C90.2,9.1,94,14.5,94,21.2z
				 M91.1,21.2c0-6.2-3.4-9.9-8.2-9.9c-4.8,0-8.2,3.7-8.2,9.9s3.4,9.9,8.2,9.9C87.6,31.2,91.1,27.5,91.1,21.2z"/>
			<path class="st0" d="M121.1,23.3c0,5.9-5,8.5-9.6,9.1c-1.5,0.2-2.5,0.2-4,0.2H97.2l5.3-29.9h9.7c1.5,0,2.4,0,3.9,0.2
				c4.1,0.6,6.3,2.7,6.3,6.2c0,4.1-2.3,6.5-6.3,7.6C119.3,17.7,121.1,19.8,121.1,23.3z M115.9,23.1c0-2.5-1.5-3.6-3.7-3.9
				c-0.8-0.1-1.5-0.1-2.2-0.1h-5.6l-1.7,9.8h5.7c0.7,0,1.5,0,2.1,0C113.3,28.6,115.9,26.6,115.9,23.1z M105.1,15.4h5.2
				c0.8,0,1.5,0,2.3-0.2c3.4-0.5,4.6-2.6,4.6-5.2c0-2.1-1.4-3.2-3.4-3.4c-0.7-0.1-1.6-0.1-2.3-0.1h-4.9L105.1,15.4z"/>
			<path class="st0" d="M148.5,19.3c0,6.5-4.1,14-13.5,14c-7.2,0-10.2-4.7-10.2-10.2c0-6.5,4.1-14.1,13.5-14.1
				C145.5,9.1,148.5,13.8,148.5,19.3z M143.4,19.3c0-3.8-1.7-6.8-5.6-6.8c-5.2,0-7.9,5.4-7.9,10.4c0,3.8,1.7,6.9,5.6,6.9
				C140.7,29.8,143.4,24.4,143.4,19.3z"/>
			<path class="st0" d="M174.6,19.3c0,6.5-4.1,14-13.5,14c-7.2,0-10.2-4.7-10.2-10.2c0-6.5,4.1-14.1,13.5-14.1
				C171.6,9.1,174.6,13.8,174.6,19.3z M169.4,19.3c0-3.8-1.7-6.8-5.6-6.8c-5.2,0-7.9,5.4-7.9,10.4c0,3.8,1.7,6.9,5.6,6.9
				C166.8,29.8,169.4,24.4,169.4,19.3z"/>
			<path class="st0" d="M195.2,16.3h-4.8c-0.2-2.4-1.3-3.9-3.6-3.9c-2.7,0-3.9,1.5-3.9,3.2c0,2,1.5,2.9,4.3,3.8
				c4.5,1.4,6.7,3.3,6.7,7c0,4.2-3.6,7.2-9.4,7.2c-6.5,0-9.1-3.6-9.3-7.5h4.9c0.3,3,2.2,4.1,4.7,4.1c2.3,0,4.1-1.3,4.1-3.4
				c0-1.9-1.3-2.9-4.7-4.1c-3.6-1.1-6.3-2.6-6.3-6.6c0-3.8,3.1-7.1,9.1-7.1C192.7,9.1,195.1,12.1,195.2,16.3z"/>
			<path class="st0" d="M203.6,25.2c-0.3,1.4-0.3,1.9-0.3,2.5c0,1.7,1.2,2.1,3.9,1.7l-0.6,3.3c-1,0.3-2.3,0.4-3.4,0.4
				c-3.3,0-4.8-1.1-4.8-3.6c0-0.7,0.1-1.9,0.5-3.8l2.2-12.5h-3.2l0.6-3.3h3.2l0.9-5.5h4.7l-0.9,5.5h4.2l-0.6,3.3h-4.2L203.6,25.2z"
				/>
		</g>
		<g>
			<path class="st0" d="M19,49c0,2.4-1.5,3.6-3,3.8c-0.4,0-0.6,0-1,0h-2.2v-7.6h2.3c0.4,0,0.6,0,0.9,0C17.6,45.5,19,46.6,19,49z
				 M18.3,49c0-1.9-1.1-2.9-2.3-3.1c-0.2,0-0.5,0-0.9,0h-1.5v6.4h1.5c0.4,0,0.6,0,0.9,0C17.2,52,18.3,50.9,18.3,49z"/>
			<path class="st0" d="M27.4,52.8h-4.9v-7.6h4.8v0.6h-4.1v2.9H27v0.6h-3.8v2.9h4.2C27.4,52.3,27.4,52.8,27.4,52.8z"/>
			<path class="st0" d="M32.8,52.8l-2.7-7.6h0.7l2.5,7.1l2.5-7.1h0.7l-2.8,7.6H32.8z"/>
			<path class="st0" d="M44.4,52.8h-4.9v-7.6h4.8v0.6h-4.1v2.9H44v0.6h-3.8v2.9h4.2V52.8z"/>
			<path class="st0" d="M52.7,52.8h-4.9v-7.6h0.7v7h4.2V52.8z"/>
			<path class="st0" d="M62,49c0,2.3-1.3,3.9-3.5,3.9S55,51.2,55,49c0-2.3,1.3-3.9,3.5-3.9C60.6,45.1,62,46.7,62,49z M61.2,49
				c0-2.1-1.1-3.4-2.8-3.4c-1.6,0-2.8,1.3-2.8,3.4c0,2.1,1.1,3.4,2.8,3.4C60.1,52.4,61.2,51.2,61.2,49z"/>
			<path class="st0" d="M70.5,47.4c0,1.3-0.9,2-1.9,2.2c-0.3,0-0.6,0-1,0h-1.4v3.2h-0.7v-7.6h2.1c0.4,0,0.7,0,1,0
				C69.7,45.4,70.5,46.1,70.5,47.4z M69.7,47.4c0-1-0.6-1.4-1.2-1.5c-0.3,0-0.6-0.1-0.9-0.1h-1.5V49h1.5c0.4,0,0.7,0,0.9-0.1
				C69.2,48.9,69.7,48.4,69.7,47.4z"/>
			<path class="st0" d="M78.7,47.4c0,1.3-0.9,2-1.9,2.2c-0.3,0-0.6,0-1,0h-1.4v3.2h-0.7v-7.6h2.1c0.4,0,0.7,0,1,0
				C77.9,45.4,78.7,46.1,78.7,47.4z M78,47.4c0-1-0.6-1.4-1.2-1.5c-0.3,0-0.6-0.1-0.9-0.1h-1.5V49h1.5c0.4,0,0.7,0,0.9-0.1
				C77.4,48.9,78,48.4,78,47.4z"/>
			<path class="st0" d="M86.8,52.8h-4.9v-7.6h4.8v0.6h-4.1v2.9h3.8v0.6h-3.8v2.9h4.2V52.8L86.8,52.8z"/>
			<path class="st0" d="M95.5,50.1c0,0.2,0,0.4,0,0.7C95.4,52,94.6,53,92.8,53c-1.7,0-2.6-0.9-2.7-2.2c0-0.3,0-0.5,0-0.7v-4.9h0.7
				V50c0,0.2,0,0.5,0,0.7c0.1,1,0.7,1.7,2,1.7s1.9-0.7,2-1.7c0-0.2,0-0.4,0-0.7v-4.8h0.7V50.1L95.5,50.1z"/>
			<path class="st0" d="M104.6,52.8h-0.8c-0.2-0.5-0.3-1-0.4-1.9c-0.1-0.8-0.4-1.4-1.2-1.5c-0.2,0-0.4,0-0.6,0H100v3.4h-0.7v-7.6
				h2.2c0.4,0,0.7,0,1,0c1.1,0.1,1.9,0.8,1.9,2c0,1-0.6,1.6-1.4,1.8c0.7,0.3,1,1,1,1.8C104.2,51.8,104.3,52.4,104.6,52.8z
				 M101.6,48.8c0.3,0,0.5,0,0.8,0c0.8-0.1,1.4-0.6,1.4-1.5s-0.5-1.3-1.3-1.4c-0.3,0-0.5,0-0.9,0H100v3L101.6,48.8L101.6,48.8
				L101.6,48.8z"/>
			<path class="st0" d="M118.3,49c0,2.4-1.5,3.6-3,3.8c-0.4,0-0.6,0-1,0h-2.2v-7.6h2.3c0.4,0,0.6,0,0.9,0
				C116.8,45.5,118.3,46.6,118.3,49z M117.5,49c0-1.9-1.1-2.9-2.3-3.1c-0.2,0-0.5,0-0.9,0h-1.5v6.4h1.5c0.4,0,0.6,0,0.9,0
				C116.5,52,117.5,50.9,117.5,49z"/>
			<path class="st0" d="M126.7,52.8h-4.9v-7.6h4.8v0.6h-4.1v2.9h3.8v0.6h-3.8v2.9h4.2C126.7,52.3,126.7,52.8,126.7,52.8z"/>
			<path class="st0" d="M139.5,50.7c0,1.3-1,2-2,2.1c-0.3,0-0.6,0-0.9,0h-2.3v-7.6h2.1c0.3,0,0.6,0,0.9,0c1.2,0.1,1.9,0.8,1.9,1.8
				c0,0.9-0.5,1.5-1.4,1.7C138.9,49,139.5,49.6,139.5,50.7z M135,48.6h1.6c0.2,0,0.4,0,0.6,0c0.8-0.1,1.3-0.5,1.3-1.4
				s-0.6-1.3-1.4-1.4c-0.2,0-0.4,0-0.6,0H135V48.6L135,48.6z M138.8,50.7c0-0.9-0.5-1.5-1.5-1.6c-0.3,0-0.4,0-0.6,0H135v3.1h1.8
				c0.2,0,0.4,0,0.5,0C138.1,52.2,138.8,51.7,138.8,50.7z"/>
			<path class="st0" d="M148.3,50.1c0,0.2,0,0.4,0,0.7c-0.1,1.2-0.9,2.2-2.7,2.2c-1.7,0-2.6-0.9-2.7-2.2c0-0.3,0-0.5,0-0.7v-4.9h0.7
				V50c0,0.2,0,0.5,0,0.7c0.1,1,0.7,1.7,2,1.7s1.9-0.7,2-1.7c0-0.2,0-0.4,0-0.7v-4.8h0.7V50.1L148.3,50.1z"/>
			<path class="st0" d="M156.8,47.3h-0.7c-0.1-1-0.8-1.6-1.8-1.6c-0.9,0-1.7,0.4-1.7,1.4c0,0.9,0.5,1.3,1.8,1.6
				c1.6,0.4,2.4,1,2.4,2.3s-1.1,2.1-2.6,2.1s-2.6-0.8-2.8-2.2h0.7c0.2,1.1,1,1.7,2.1,1.7c1,0,1.8-0.6,1.8-1.4c0-1-0.6-1.4-2-1.8
				c-1.4-0.4-2.3-0.9-2.3-2.1c0-1.2,1.1-2,2.5-2C155.9,45.1,156.7,46,156.8,47.3z"/>
			<path class="st0" d="M160.4,52.8v-7.6h0.7v7.6H160.4z"/>
			<path class="st0" d="M169.6,52.8l-3.9-6.9c0,0.9,0,2.1,0,3v3.9H165v-7.6h1l3.9,6.9c0-0.9,0-2.1,0-3v-3.9h0.7v7.6H169.6z"/>
			<path class="st0" d="M179.5,52.8h-4.9v-7.6h4.8v0.6h-4.1v2.9h3.8v0.6h-3.8v2.9h4.2V52.8z"/>
			<path class="st0" d="M187.5,47.3h-0.7c-0.1-1-0.8-1.6-1.8-1.6c-0.9,0-1.7,0.4-1.7,1.4c0,0.9,0.5,1.3,1.8,1.6
				c1.6,0.4,2.4,1,2.4,2.3s-1.1,2.1-2.6,2.1s-2.6-0.8-2.8-2.2h0.7c0.2,1.1,1,1.7,2.1,1.7c1,0,1.8-0.6,1.8-1.4c0-1-0.6-1.4-2-1.8
				c-1.4-0.4-2.3-0.9-2.3-2.1c0-1.2,1.1-2,2.5-2C186.6,45.1,187.4,46,187.5,47.3z"/>
			<path class="st0" d="M195.8,47.3h-0.7c-0.1-1-0.8-1.6-1.8-1.6c-0.9,0-1.7,0.4-1.7,1.4c0,0.9,0.5,1.3,1.8,1.6
				c1.6,0.4,2.4,1,2.4,2.3s-1.1,2.1-2.6,2.1s-2.6-0.8-2.8-2.2h0.7c0.2,1.1,1,1.7,2.1,1.7c1,0,1.8-0.6,1.8-1.4c0-1-0.6-1.4-2-1.8
				c-1.4-0.4-2.3-0.9-2.3-2.1c0-1.2,1.1-2,2.5-2C194.9,45.1,195.7,46,195.8,47.3z"/>
		</g>
	</g>
</g>
</svg>
