<?xml version="1.0" encoding="utf-8"?>
<!-- Generator: Adobe Illustrator 24.1.2, SVG Export Plug-In . SVG Version: 6.00 Build 0)  -->
<svg version="1.1" id="illustration" xmlns="http://www.w3.org/2000/svg" xmlns:xlink="http://www.w3.org/1999/xlink" x="0px"
	 y="0px" viewBox="0 0 198.4 108.8" style="enable-background:new 0 0 198.4 108.8;" xml:space="preserve">
<style type="text/css">
	.st0{fill:#F3B06C;}
	.st1{fill:#FFFFFF;}
	.st2{fill:#6A0D0E;}
	.st3{fill:#231F20;}
	.st4{fill:#3F5FAC;}
	.st5{fill:#2A3481;}
</style>
<path class="st0" d="M87.2,27.1l11.4-1.5l11.8,0.8l0.1,3l0.9,0.3l0.4,1.1l-0.6,1.9l-0.8,1.3l-0.7,0.4l-0.7,0.1l-2.5,4.2l-1.8,2
	l0.2,1.9l1,2.2l1.3,1l2,0.5c1.1,0.3,2.2,0.3,3.2,0c0.8-0.3,1.6-0.5,2.4-0.6l1.4,0.3l-0.5-0.6l1.5-1.6l4.9-5.4l1.4-1.8l5.2-5.9l4.9-6
	l2.1-2.9l0.1-5.8l1.2,1.4c0,0,0.4,0.6,0.6,0s1.1-2.4,1.1-2.4l1.3-1.8l1.9-1.8l0.5-0.4l-2.3,4.4l3.3-2.9l-1.9,4.3l1.9-1.1l1.7-0.6
	l-1.4,2l-3,3.7l-1.1,1.3l-2.8,3.1l-4.4,6l-3.6,5.6l-0.5,0.8l-0.5,1.6l-1.1,1l-4.1,5.4l-3,3.6l-4.5,4.8l-2.4,1.8l-1.3,5.3l-3.4,5
	l2.6,1.6l3.8,3.7l1.7,2.8l10.4,1.6V77l-2,8.6l-20.8-1l-1.2-0.8l-1.7,0.3l-1.6-0.4l-4.3,1.3L75,88.4l-1.4-2.2l-1.4-3.3l-0.4-3.1
	l13.6-4.4l1.5-3.6l2.5-3.1l3.1-2.2l-3.2-5.4l-1.8-4.8L83,53.1l-3.4-4l-2.9-4l-2.3-3.5l-1.2-0.9L72.4,39l-3.9-5.7l-3.6-4.6l-4.7-5.3
	l-5.4-6.2l1,0.2l2.1,1l0.7,0.2l-2-3.8l3.3,2.9l-2-4.4l2.2,1.9l1.6,2.3l1,1.8c0,0-0.1,0.7,0.3,0.4s0.5-1.2,0.5-1.2l1-0.7l0.1,3.5
	l0.1,2.3l8.9,10.2l4,4.2l5.7,6l2.7,2.8h2.4l2,0.9c0,0,3-0.2,3.8-0.4s2.7-2.3,2.7-2.3l0.5-3.1l-1.2-1l-4.5-4l-2.3-2.8l-0.9-0.1
	L87,32.6l-0.9-2l0.4-1l1-0.3L87.2,27.1z"/>
<polygon class="st1" points="86.8,27.3 86.3,25 88.4,24 96.8,22.5 104.4,22.3 111.8,23 111.1,25 110.3,26.5 98.8,25.7 "/>
<path class="st2" d="M85.9,25l0.7-2.7l1.8-2.5l3.1-1.9l4.5-1.1l-0.8-2.6l-1.9-1.1l-0.5-2L94,9l2.8-1.9l2.6-0.9l2.9,0.2l2,1.5
	l0.5,2.6l-1.2,1.5c-0.2,0.8-0.9,1.4-1.7,1.6v3.2l2.6-0.3l2.6,0.4l2.5,1.5l1.4,2.1l0.9,2.6l-5.5-0.6h-8.1l-5.8,0.7l-5.6,1.3L85.9,25z
	"/>
<polygon class="st1" points="72.3,79.7 72.2,82.3 73.6,86.2 75,88.4 65.5,89.2 59.2,89.4 51.7,90.9 41.7,92.8 38.9,93.3 36.9,94.3 
	34.1,92.6 26.5,84.6 25.7,81.6 26.8,79.9 28.2,80 29.7,81.4 32.3,84.2 35.7,88.1 37.1,89.6 45.1,87.1 59.9,82.9 61.9,81.8 
	64.6,82.1 67.8,81.1 "/>
<polygon class="st1" points="126.7,75.9 124.7,85.5 137.7,84.8 148.1,84.2 160.6,84.6 164.4,85 165.8,86.4 168.5,86.4 173.8,80.6 
	175.9,78.2 177.8,75.9 177.7,73.9 175.8,73.9 173.4,75.6 170.2,78.2 166.1,81.1 151,79 142.8,78 140.4,76.9 136.6,77.6 "/>
<path class="st1" d="M105,28.8l-1.7,0.5c0,0-1.1,0.3-1.2,1s1.7,1.5,1.7,1.5l1.7,0.2l1.8-0.5c0,0,1-0.4,1.1-0.8s-0.9-1.2-0.9-1.2
	l-1.3-0.7C106.2,28.8,105,28.8,105,28.8z"/>
<path class="st1" d="M93.1,28.9l1.7,0.5c0,0,1.1,0.3,1.2,1s-1.7,1.5-1.7,1.5l-1.7,0.2l-1.8-0.5c0,0-1-0.4-1.1-0.8s0.9-1.2,0.9-1.2
	l1.3-0.7C91.9,28.9,93.1,28.9,93.1,28.9z"/>
<polygon class="st3" points="105,28.8 103.9,29.3 103.6,30.2 103.8,31.3 104.4,31.6 105.3,31.7 106.1,31.4 106.6,30.7 106.6,29.5 
	105.8,28.9 "/>
<polygon class="st3" points="92.9,28.8 91.8,29.3 91.5,30.4 92,31.4 92.9,32 93.7,31.7 94.3,31 94.4,30 93.9,29.1 "/>
<polygon class="st4" points="95.2,14.2 98,13.9 101.9,13.6 101.8,16.9 96.4,17 95.9,16.9 "/>
<path class="st5" d="M90.6,47.9c0.6-0.3,1.3-0.4,2-0.2l0.6,1.6l1.4,1.8l2,1.7l2.8,1.1l3.1,0.2l3.9-1.3l2.6-2.4l1.2-2.1
	c0,0,0-1.6,0.3-1.7c0.5-0.2,1-0.1,1.4,0.1c0.2,0.3-0.2,1.8-0.2,1.8l-0.2,3.1l0.2,2.7l0.4,0.9l0.7,1.2l-1.1,4.6l-1.8,2.8l-1.7,2.4
	l2.6,1.6l2.1,2.1l1.8,1.7l1.5,2.8l-3.4,1.7l-2.7,2.3l-2.7,2.2l-1.8,1.8L104,84l-0.4,0.3l-1.9-0.1l-2.3-0.6l-1.3-1.1l-2.8-2.6
	l-2.6-1.5l-4-2.2l-3.1-0.7l1.2-3.1l3-3.9l2.8-2.3l-3-5.1l-1.1-3.1l1.4-1.8l1.2-4v-2.9L90.6,47.9z"/>
<path class="st3" d="M87,27.1c0.4,3.5,1.8,6.8,3.9,9.5c2.1,2.7,5.6,5.9,9,6.7c3.2,0.7,5.8-3,7.4-5.2c2.5-3.5,3.7-7.7,3.5-11.9
	c0-0.1-0.1-0.3-0.3-0.3c-0.1,0-0.3,0.1-0.3,0.3c0,3.6-0.9,7.1-2.7,10.3c-0.8,1.4-1.8,2.8-3,4c-0.7,0.8-1.5,1.5-2.3,2
	c-1.7,0.8-3,0.1-4.4-0.7c-5.8-3.1-9.1-8.4-10.5-14.6c0-0.1-0.1-0.1-0.2-0.1C87.1,27,87,27.1,87,27.1L87,27.1z"/>
<path class="st3" d="M110.4,26.3c-7.8-1.6-15.9-1.3-23.6,0.8c-0.3,0.1-0.2,0.5,0.1,0.4c7.7-1.5,15.6-1.8,23.4-0.9
	C110.5,26.6,110.5,26.3,110.4,26.3L110.4,26.3z"/>
<path class="st3" d="M87.1,27.4c0-0.4-0.1-0.8-0.2-1.3c-0.1-0.4-0.2-0.8-0.4-1.2c0-0.1-0.2-0.1-0.2-0.1c-0.1,0-0.1,0.1-0.1,0.2
	c0,0.4,0.1,0.9,0.2,1.3c0.1,0.4,0.2,0.8,0.4,1.2c0,0.1,0.2,0.1,0.2,0.1C87,27.5,87.1,27.4,87.1,27.4z"/>
<path class="st3" d="M86.5,24.7c4.2-1,8.5-1.7,12.8-2.1c4,0,8.1,0.2,12.1,0.7c0.3,0,0.4-0.5,0.1-0.5c-8.3-1.9-17-1.4-25.1,1.5
	c-0.1,0-0.1,0.2-0.1,0.2C86.3,24.7,86.4,24.7,86.5,24.7z"/>
<path class="st3" d="M111.7,23.3c-0.3,1-1.2,1.8-1.3,2.8c0,0.2,0.3,0.2,0.3,0c0.5-0.9,0.9-1.8,1.3-2.8
	C112,23.2,111.7,23.1,111.7,23.3L111.7,23.3z"/>
<path class="st3" d="M86.6,24.8v-0.2c0-0.1,0-0.1-0.1-0.1s-0.1,0-0.1,0.1v0.2C86.4,24.9,86.7,24.9,86.6,24.8L86.6,24.8z"/>
<path class="st3" d="M86.1,25c0.5-3.6,3.2-6.5,6.8-7.1c0.1,0,0.1-0.1,0.1-0.1c0,0,0-0.1-0.1-0.1c-3.8,0-7,3.6-7.1,7.3
	C85.8,25.2,86.1,25.2,86.1,25L86.1,25z"/>
<path class="st3" d="M112,23c-0.5-4.2-4.4-7.2-8.6-6.7c-1.1,0.1-2.2,0.5-3.2,1.1c-0.2,0.1-0.1,0.4,0.1,0.3c2.6-1.1,5.7-1.4,8.2,0.3
	c1.8,1.2,2.3,3.2,3.1,5.1C111.8,23.3,112,23.1,112,23z"/>
<path class="st3" d="M89.9,19.1c4.4-2.1,8.5-2.1,13.2-1.8c0.1,0,0.2-0.2,0-0.2c-4.4-1.6-9.5-0.5-13.5,1.6
	C89.4,18.9,89.7,19.3,89.9,19.1L89.9,19.1z"/>
<path class="st3" d="M96.2,16.9c0-0.5-0.1-0.9-0.3-1.3c-0.1-0.5-0.3-1-0.5-1.4c0-0.1-0.1-0.1-0.2,0c0,0-0.1,0.1-0.1,0.1
	c0,0.5,0.1,1,0.3,1.4c0.1,0.4,0.2,0.9,0.5,1.3C96,17,96.1,17,96.2,16.9C96.2,16.9,96.2,16.9,96.2,16.9z"/>
<path class="st3" d="M95.6,14.5c1.8-0.1,3.6-0.3,5.4-0.7c0.1,0,0.2-0.1,0.2-0.2c0-0.1-0.1-0.2-0.2-0.2c-1.8,0.1-3.6,0.3-5.4,0.7
	C95.3,14.1,95.4,14.5,95.6,14.5z"/>
<path class="st3" d="M101.6,13.6v1.8c-0.1,0.5,0,1,0.1,1.4c0.1,0.1,0.2,0.1,0.2,0c0,0,0,0,0,0c0.1-0.5,0.2-1,0.1-1.4v-1.8
	c0-0.1-0.1-0.2-0.2-0.2C101.7,13.4,101.6,13.5,101.6,13.6L101.6,13.6z"/>
<path class="st3" d="M95.1,13.9c-4-1.3-1.2-4.7,0.3-5.8c1-0.6,2-1.1,3.1-1.4c1.4-0.5,3-0.4,4.3,0.4c1.4,0.8,1.9,2.6,1.1,4
	c-0.2,0.3-0.4,0.6-0.6,0.8c-0.1,0.1-0.1,0.2,0,0.3c0.1,0.1,0.2,0.1,0.3,0l0,0c1.5-0.9,1.9-2.9,0.9-4.4c-0.1-0.1-0.2-0.3-0.3-0.4
	c-1.4-1.8-3.9-1.9-5.9-1.3s-4.7,1.9-5.5,4c-0.8,1.9,0.1,4,2.2,4.2C95.3,14.3,95.3,14,95.1,13.9L95.1,13.9z"/>
<path class="st3" d="M96.2,40.8c1.7,2.7,0.5,5.4-2.3,6.5c-0.1,0-0.2,0.2-0.2,0.3c0,0.1,0.2,0.2,0.3,0.2c3.4-0.5,4.5-4.8,2.5-7.2
	C96.4,40.4,96.1,40.6,96.2,40.8z"/>
<path class="st3" d="M104.8,40.7c-0.8,2.7,1.2,6.3,4.3,5.9c0.3,0,0.4-0.5,0.1-0.5c-1.2-0.1-2.3-0.6-3.1-1.4
	c-0.9-1.1-1.2-2.5-0.9-3.8c0-0.1-0.1-0.2-0.2-0.2C104.9,40.6,104.9,40.6,104.8,40.7z"/>
<path class="st3" d="M112.5,46.5c0.6-0.4,1.3-0.5,2.1-0.5c0.7,0.1,1.4,0.3,2,0.7c0.1,0.1,0.3,0,0.4-0.1c0.1-0.1,0-0.3-0.1-0.4
	c-1.2-1.3-3.5-1-4.8,0C112,46.4,112.3,46.7,112.5,46.5L112.5,46.5z"/>
<path class="st3" d="M86.8,53.5c0.8,5.4,3.1,10.4,6.8,14.5c0.2,0.2,0.5-0.1,0.3-0.3c-3.2-4.3-5.5-9.1-6.7-14.3
	C87.2,53.1,86.8,53.2,86.8,53.5L86.8,53.5z"/>
<path class="st3" d="M112.7,55.3c-0.7,3.9-2.4,7.6-4.7,10.7c-0.2,0.2,0.2,0.5,0.4,0.3c2.7-3.1,4.4-6.9,4.8-11
	C113.2,55.1,112.8,55.1,112.7,55.3L112.7,55.3z"/>
<path class="st3" d="M92.1,66.2c-3.5,2.2-6.6,5.8-7.1,10.1c0,0.3,0.5,0.4,0.6,0.1c1.4-3.9,3.2-7.3,6.8-9.6
	C92.7,66.6,92.3,66,92.1,66.2L92.1,66.2z"/>
<path class="st3" d="M86.8,75.1c-3.8,0.8-7.5,2.1-11.2,3.2s-7.5,2.2-11.2,3.4c-0.2,0.1-0.3,0.3-0.3,0.4s0.3,0.3,0.4,0.3
	c3.8-1,7.5-2.2,11.2-3.3s7.5-2.1,11.1-3.5c0.1,0,0.2-0.2,0.2-0.3C87.1,75.1,86.9,75.1,86.8,75.1z"/>
<path class="st3" d="M65.1,82c-2-0.9-5.4-0.4-6.3,1.9c-0.1,0.1,0,0.3,0.1,0.3c0.1,0.1,0.2,0,0.3,0c0.7-0.8,1.6-1.4,2.6-1.8
	c1-0.3,2.1-0.3,3.1,0C65.1,82.5,65.3,82.1,65.1,82L65.1,82z"/>
<path class="st3" d="M58.4,83.1c-7.2,1.7-14.5,3.8-21.6,6.1c-0.2,0-0.3,0.2-0.2,0.4c0,0.2,0.2,0.3,0.4,0.2c7.2-1.8,14.5-4,21.5-6.4
	c0.1,0,0.2-0.1,0.1-0.3S58.5,83.1,58.4,83.1z"/>
<path class="st3" d="M38.9,93.5c3.5-0.3,6.9-0.8,10.3-1.6c3.7-0.6,7.6-1,11.1-2.3c0.3-0.1,0.2-0.5-0.1-0.5c-3.5,0-6.9,1-10.3,1.6
	c-3.7,0.5-7.4,1.3-11.1,2.2C38.6,93.1,38.6,93.5,38.9,93.5L38.9,93.5z"/>
<path class="st3" d="M60.6,90.6c0.1,0,0.2-0.1,0.2-0.3c0-0.1-0.1-0.1-0.2-0.2c-0.1,0-0.2,0.1-0.2,0.3C60.5,90.5,60.5,90.6,60.6,90.6
	z"/>
<path class="st3" d="M60.2,89.6c13.1,0,26.2-1.7,39-4.8c0.6-0.2,0.4-1.1-0.3-1c-12.7,3.1-25.7,4.9-38.7,5.4c-0.1,0-0.2,0.1-0.2,0.2
	C60,89.5,60.1,89.5,60.2,89.6L60.2,89.6z"/>
<path class="st3" d="M107.9,66.4c4,1.8,6.1,4.9,8.2,8.6c0.1,0.1,0.3,0.2,0.4,0.1c0.1-0.1,0.1-0.2,0.1-0.3c-1-4.1-4.7-7.3-8.4-8.9
	C107.9,65.7,107.6,66.2,107.9,66.4z"/>
<path class="st3" d="M114.6,74.3c3.9,0.9,8,1.4,12,2c3.7,0.6,7.4,1.2,11.2,1.6c0.4,0,0.5-0.6,0.1-0.7c-4-0.8-8-1.3-12-1.9
	c-3.7-0.6-7.4-1.3-11.2-1.5c-0.1,0-0.2,0.1-0.2,0.3C114.5,74.3,114.5,74.3,114.6,74.3L114.6,74.3z"/>
<path class="st3" d="M137.4,78c1-0.5,2.2-0.7,3.4-0.4c0.9,0.3,1.8,0.7,2.6,1.3c0.2,0.1,0.4-0.1,0.3-0.3c-1.3-2.1-4.6-2.2-6.5-1
	c-0.1,0.1-0.1,0.2-0.1,0.3C137.2,78,137.3,78,137.4,78L137.4,78z"/>
<path class="st3" d="M143.9,78.2c7.3,1.4,14.8,2.5,22.3,3.2c0.2,0,0.3-0.2,0.3-0.4c0-0.1-0.1-0.3-0.2-0.3c-7.3-1.3-14.9-2.3-22.3-3
	C143.7,77.7,143.6,78.1,143.9,78.2L143.9,78.2z"/>
<path class="st3" d="M164.7,84.8c-3.5-0.4-6.9-0.6-10.4-0.6c-3.7-0.1-7.6-0.6-11.3-0.1c-0.3,0-0.4,0.4-0.1,0.5
	c3.4,0.7,7,0.5,10.4,0.6c3.8,0.3,7.6,0.3,11.3,0.1C164.9,85.2,165,84.8,164.7,84.8z"/>
<path class="st3" d="M142.8,85.5c0.1,0,0.2-0.1,0.2-0.3c0-0.1-0.1-0.1-0.2-0.2c-0.1,0-0.2,0.1-0.2,0.3
	C142.6,85.4,142.7,85.5,142.8,85.5z"/>
<path class="st3" d="M143,84c-13,1.4-26.1,1.4-39.2,0.2c-0.7-0.1-0.7,1,0,1c13.1,1.3,26.2,1,39.2-0.8C143.3,84.4,143.2,84,143,84
	L143,84z"/>
<path class="st3" d="M89.6,59.1c2.7,0.9,5.6,0.4,7.9-1.3c0.1-0.1,0-0.1,0-0.2c0,0-0.1,0-0.1,0c-1.1,0.5-2.3,0.9-3.6,1.2
	c-1.4,0.2-2.8,0.2-4.2,0.1C89.5,58.8,89.5,59,89.6,59.1L89.6,59.1z"/>
<path class="st3" d="M105.1,57.5c1.6,1.8,5.3,2.3,7,0.2c0.1-0.1,0.1-0.2,0-0.3c-0.1-0.1-0.1-0.1-0.2,0c-1,0.6-2.1,0.9-3.3,1
	c-1.2,0-2.3-0.5-3.3-1.2C105.2,57.2,105.1,57.4,105.1,57.5L105.1,57.5z"/>
<path class="st3" d="M90.8,48.3v-0.2c0.1-0.4-0.5-0.4-0.4,0v0.2c0,0.1,0.1,0.2,0.2,0.1C90.7,48.4,90.7,48.3,90.8,48.3L90.8,48.3z"/>
<path class="st3" d="M90.8,48.1l0.1-0.2c0.1-0.3-0.4-0.3-0.4,0v0.2c0,0.1,0.1,0.1,0.2,0.1C90.7,48.1,90.7,48.1,90.8,48.1L90.8,48.1z
	"/>
<path class="st3" d="M90.4,47.9c0.8,3.7,0,6.7-1.7,10c-0.1,0.2,0.2,0.4,0.3,0.2c2.3-2.8,2.7-6.8,1.9-10.3
	C90.7,47.6,90.3,47.7,90.4,47.9L90.4,47.9z"/>
<path class="st3" d="M111.9,46.4c-0.8,2.9-0.8,6,0.1,8.9c0.1,0.1,0.2,0.2,0.3,0.1c0.1,0,0.2-0.1,0.1-0.2c-0.5-2.9-0.5-5.8-0.2-8.7
	C112.3,46.3,112,46.2,111.9,46.4L111.9,46.4z"/>
<path class="st3" d="M92.7,48.6c3.2,7.4,15.5,7.9,17.7-0.6c0-0.1,0-0.2-0.1-0.2c-0.1,0-0.1,0-0.2,0.1c-1.8,3.2-4.4,5.7-8.3,5.9
	c-3.7,0-7-2-8.7-5.3C92.9,48.2,92.6,48.4,92.7,48.6z"/>
<path class="st3" d="M100.3,48.5c0.5,0.5,1.4,0.4,1.8-0.1c0,0,0,0,0.1-0.1c0.1-0.1,0-0.3-0.1-0.3c-0.1,0-0.1,0-0.2,0
	c-0.2,0.1-0.4,0.2-0.7,0.3c-0.2,0-0.5,0-0.7-0.1c-0.1,0-0.2,0.1-0.3,0.2C100.2,48.4,100.2,48.5,100.3,48.5z"/>
<path class="st3" d="M86,75.7c4.3,1.2,8.2,3.4,11.4,6.4c1.4,1.4,3.5,3.5,5.5,1.8c0-0.1,0-0.2,0-0.2c0,0-0.1,0-0.1,0
	c-3.2,1.2-6.2-3.4-8.7-5.1c-2.4-1.6-5.1-2.8-8-3.5c-0.2,0-0.3,0-0.4,0.2S85.8,75.7,86,75.7L86,75.7L86,75.7z"/>
<path class="st3" d="M103.7,84.4c1.9-1.6,3.8-3.1,5.6-4.8c2.1-1.8,4.2-4.4,7.2-4.7c0.2,0,0.3-0.2,0.2-0.3c0-0.1-0.1-0.2-0.2-0.2
	c-2.3-0.1-3.9,1.5-5.6,3c-2.5,2.2-5.1,4.5-7.5,6.8C103.2,84.3,103.5,84.6,103.7,84.4L103.7,84.4z"/>
<path class="st3" d="M71.8,79.8c-1,2.4,0.8,7.1,3.1,8.4c0.1,0.1,0.2,0,0.3-0.1c0-0.1,0-0.1,0-0.2c-0.7-1.4-1.8-2.4-2.3-4
	c-0.5-1.3-0.3-2.8-0.7-4.1C72.2,79.6,71.9,79.5,71.8,79.8z"/>
<path class="st3" d="M126.6,76.3c-0.8,3.1-1.5,6.2-2.2,9.3c-0.1,0.3,0.4,0.5,0.5,0.2c0.7-3.1,1.5-6.2,2.2-9.3
	C127.3,76.1,126.7,75.9,126.6,76.3z"/>
<path class="st3" d="M129.6,76.9c-1.1,2.6-1.9,5.3-2.8,8c-0.1,0.3,0.4,0.5,0.5,0.1c0.9-2.6,2-5.3,2.8-8
	C130.2,76.7,129.7,76.6,129.6,76.9z"/>
<path class="st3" d="M68.6,81.1c0.2,1.2,0.5,2.4,1,3.6c0.4,1.2,0.8,2.4,1.3,3.6c0.1,0.3,0.5,0.1,0.4-0.2c-0.3-1.3-0.8-2.5-1.3-3.8
	c-0.3-1.1-0.7-2.2-1.3-3.3C68.7,80.9,68.6,80.9,68.6,81.1L68.6,81.1z"/>
<path class="st3" d="M37.3,89.7c-1.5-2-3.2-3.9-4.9-5.8c-1.2-1.3-2.5-3.5-4.1-4.3c-2.9-1.4-3.6,1.9-2.5,3.9c1.2,1.9,2.6,3.7,4.2,5.3
	c1.5,1.9,3.2,3.6,5.1,5.3c1.4,1.1,5.1,1.3,4.3-1.4c-0.1-0.1-0.2-0.2-0.3-0.1c-0.1,0-0.1,0.1-0.1,0.2c-1.5,1.7-2.8,1.8-3.9,0.4
	L33.9,92c-0.8-0.9-1.7-1.7-2.5-2.6c-1.5-1.6-3.7-3.5-4.6-5.5c-1.2-1.3-0.4-2.3,2.3-3c0.4,0.4,0.7,0.8,1.1,1.2l1.8,2.2
	c1.6,1.9,3.2,3.8,5,5.6C37.2,90.1,37.5,89.9,37.3,89.7L37.3,89.7z"/>
<path class="st3" d="M165.9,81.6c2.1-1.4,4.1-3,6.1-4.5l2.3-1.7c0.4-0.3,0.8-0.6,1.3-1c2.4,0.4,2.8,1.3,1.1,2.5
	c-1.4,1.8-3,3.5-4.4,5.2c-1.7,1.9-5.4,7.2-7.6,2.4c-0.1-0.3-0.7-0.1-0.6,0.2c0.6,1.7,2.4,2.6,4.1,2.1c0.4-0.1,0.7-0.3,1-0.5
	c1.6-1.1,2.8-3,4-4.5c1.5-1.8,3.1-3.4,4.5-5.3c1.3-1.7,0.6-3.8-1.8-2.9c-1.8,0.7-3.4,2.4-4.9,3.6c-1.8,1.4-3.6,2.7-5.3,4.1
	C165.5,81.4,165.7,81.7,165.9,81.6L165.9,81.6z"/>
<path class="st3" d="M91.1,33.6C91,33.9,91,34.2,91,34.5c0,0.2,0.3,0.3,0.4,0.1c0.1-0.3,0.2-0.5,0.3-0.8
	C91.7,33.4,91.2,33.2,91.1,33.6z"/>
<path class="st3" d="M92.8,33.5c-0.1,0.4-0.2,0.7-0.1,1.1c0,0.1,0.1,0.1,0.2,0.1c0,0,0.1,0,0.1-0.1c0.2-0.3,0.3-0.6,0.3-1
	C93.3,33.3,92.9,33.1,92.8,33.5L92.8,33.5z"/>
<path class="st3" d="M94.2,33.9c0,0.2,0,0.4,0,0.6c0,0.1,0.1,0.2,0.2,0.1c0.1,0,0.1-0.1,0.1-0.1c0-0.2,0-0.4,0-0.6
	c0-0.1-0.1-0.2-0.2-0.2C94.2,33.7,94.1,33.8,94.2,33.9L94.2,33.9z"/>
<path class="st3" d="M104.4,33.4c-0.1,0.1-0.1,0.3-0.2,0.5c0,0.1,0,0.2,0.1,0.2c0.1,0,0.1,0,0.1,0c0.1-0.1,0.2-0.3,0.3-0.4
	C104.9,33.4,104.5,33.2,104.4,33.4z"/>
<path class="st3" d="M105.8,33.3c-0.1,0.2-0.1,0.4-0.2,0.7c0,0.1,0,0.1,0.1,0.2c0.1,0,0.1,0,0.2-0.1c0.1-0.2,0.2-0.4,0.3-0.6
	C106.2,33.1,105.8,33,105.8,33.3z"/>
<path class="st3" d="M107.1,33.2c-0.2,0.3-0.3,0.6-0.4,0.9c0,0.2,0.2,0.3,0.3,0.2c0.2-0.2,0.4-0.5,0.5-0.8
	C107.7,33.1,107.3,32.9,107.1,33.2z"/>
<path class="st3" d="M115.4,46.1c0.7-1,1.4-2,2-3c0-0.1-0.1-0.1-0.1-0.1c-0.7,1-1.4,2-2,3C115.2,46.1,115.4,46.2,115.4,46.1
	L115.4,46.1z"/>
<path class="st3" d="M115.6,45.8c2.6-2.3,4.9-4.9,7-7.7c0.1-0.2-0.1-0.4-0.2-0.2c-2.6,2.4-4.9,5-7,7.8
	C115.3,45.7,115.5,45.9,115.6,45.8z"/>
<path class="st3" d="M113.5,55.4c3.8-2.5,7-5.9,9.2-9.9c0.1-0.1,0-0.2-0.1-0.3c-0.1-0.1-0.2,0-0.3,0.1c-2.5,3.7-5.6,6.9-9.1,9.6
	C112.9,55.2,113.2,55.6,113.5,55.4L113.5,55.4z"/>
<path class="st3" d="M122.7,37.7c0.5-0.4,1-0.9,1.5-1.4c0.5-0.5,0.9-1,1.3-1.6c0.1-0.1-0.1-0.3-0.2-0.2c-0.5,0.4-1,0.9-1.5,1.5
	c-0.5,0.5-0.9,1-1.3,1.6C122.4,37.6,122.6,37.8,122.7,37.7z"/>
<path class="st3" d="M125.2,34.9c4.1-3.9,7.7-8.2,10.7-12.9c0.1-0.2-0.2-0.5-0.4-0.3c-3.5,4.3-6.9,8.7-10.5,12.9
	c-0.1,0.1-0.1,0.2,0,0.2C125.1,34.9,125.2,34.9,125.2,34.9L125.2,34.9z"/>
<path class="st3" d="M139.4,22.4c-4.3,4.4-8,9.5-10.9,15c0,0.1,0,0.3,0.1,0.3c0.1,0,0.2,0,0.3-0.1c3.6-5,6.6-10.3,10.7-15
	C139.7,22.4,139.5,22.2,139.4,22.4L139.4,22.4z"/>
<path class="st3" d="M128.3,37.3c0,0.6-0.2,1.2-0.5,1.7c-0.3,0.4-0.8,0.6-1.1,1.1c-0.1,0.1,0,0.3,0.1,0.3c0,0,0,0,0,0
	c0.7,0.1,1.2-0.6,1.6-1.1c0.4-0.6,0.5-1.4,0.4-2.1C128.8,36.9,128.3,37,128.3,37.3z"/>
<path class="st3" d="M126.7,40.2c-0.8,1-1.5,2-2.3,3c-0.8,0.8-1.4,1.7-1.9,2.7c0,0.1,0,0.2,0.1,0.2c0.1,0,0.1,0,0.2,0
	c0.8-0.9,1.5-2,2.3-2.9c0.7-0.9,1.4-1.8,2-2.8C127.2,40.2,126.8,40,126.7,40.2L126.7,40.2z"/>
<path class="st3" d="M123.1,45.1c-0.6,0.6-1.1,1.2-1.6,1.8c-0.1,0.2,0.1,0.3,0.3,0.2c0.6-0.5,1.1-1.1,1.6-1.8
	C123.6,45.2,123.3,44.9,123.1,45.1z"/>
<path class="st3" d="M136,22.2c0.1-2,0.1-4.1,0-6.2l-0.3,0.3l1.1,1.3c0,0.1,0.1,0.1,0.1,0.1c0.1,0,0.1-0.1,0.1-0.1
	c0.2-0.8-0.3-1.6-1.1-1.8c-0.1,0-0.1,0-0.2,0c-0.1,0-0.3,0.1-0.3,0.2c0,0,0,0,0,0.1c0,2.1-0.1,4.1,0.1,6.2c0,0.1,0.1,0.2,0.2,0.2
	S135.9,22.3,136,22.2L136,22.2z"/>
<path class="st3" d="M137.7,17.5c1.1-2.5,2.8-4.6,4.9-6.3l-0.2-0.2c-0.9,2.1-2.1,4.1-3.1,6.2c-0.1,0.1,0.1,0.2,0.2,0.1
	c1.1-2,2-4.2,3.2-6.1c0-0.1,0-0.2,0-0.2c-0.1,0-0.1,0-0.2,0c-2.4,1.5-4.2,3.8-4.9,6.5C137.5,17.5,137.7,17.6,137.7,17.5z"/>
<path class="st3" d="M139.6,16.6c1.5-1.4,2.9-2.8,4.4-4.2l-0.4-0.3c-0.9,1.9-1.8,3.8-2.7,5.6c-0.1,0.2,0.2,0.4,0.3,0.2
	c0.9-1.9,1.8-3.7,2.8-5.6c0.1-0.1,0.1-0.3,0-0.4s-0.3-0.1-0.4,0c-1.5,1.4-2.9,2.8-4.4,4.2C139.1,16.5,139.4,16.8,139.6,16.6z"/>
<path class="st3" d="M141.1,18.2c1.1-1.5,2.7-2.6,4.6-2.9l-0.2-0.4c-2,2.5-4.1,4.9-6,7.5c-0.1,0.2,0.2,0.4,0.3,0.2
	c2.1-2.4,4.1-4.9,6.1-7.4c0.1-0.1,0.1-0.2,0-0.3c-0.1-0.1-0.1-0.1-0.2-0.1c-2,0.3-3.7,1.5-4.8,3.2C140.6,18.2,140.9,18.4,141.1,18.2
	L141.1,18.2z"/>
<path class="st3" d="M89.2,47.1c-1.3-0.9-3.6-1.1-4.7,0.2c-0.1,0.1-0.1,0.3,0,0.4c0.1,0.1,0.2,0.1,0.4,0.1c0.6-0.4,1.3-0.6,2-0.7
	c0.7,0,1.4,0.1,2.1,0.5c0.1,0.1,0.3,0,0.3-0.1C89.4,47.3,89.3,47.2,89.2,47.1L89.2,47.1z"/>
<path class="st3" d="M86.2,47.1c-0.7-1-1.4-2-2.1-2.9c0-0.1-0.1,0-0.1,0.1c0.6,1,1.4,2,2.1,2.9C86.1,47.3,86.3,47.2,86.2,47.1z"/>
<path class="st3" d="M86.1,46.7c-1-1.3-2.2-2.5-3.4-3.6c-1.3-1.3-2.6-2.6-3.9-3.9c-0.1-0.1-0.2,0-0.2,0c0,0.1,0,0.1,0,0.2
	c1.1,1.3,2.3,2.5,3.6,3.8c1.2,1.3,2.4,2.5,3.7,3.6C86,46.9,86.2,46.9,86.1,46.7z"/>
<path class="st3" d="M88.3,57c-3.6-2.6-6.8-5.7-9.5-9.3c-0.1-0.2-0.4,0-0.3,0.2c2.3,3.9,5.6,7.2,9.5,9.5
	C88.3,57.6,88.6,57.2,88.3,57z"/>
<path class="st3" d="M78.8,39.1c-0.4-0.6-0.8-1.1-1.3-1.6c-0.4-0.5-0.9-1-1.5-1.4c-0.1-0.1-0.3,0.1-0.2,0.2c0.4,0.6,0.9,1.1,1.4,1.6
	c0.5,0.5,1,1,1.5,1.4c0,0,0.1,0,0.2,0S78.9,39.1,78.8,39.1L78.8,39.1L78.8,39.1z"/>
<path class="st3" d="M76.1,36.1c-3.8-4.1-7.3-8.4-11-12.6c-0.2-0.2-0.5,0.1-0.3,0.3c3.2,4.6,6.9,8.8,11.1,12.5
	c0.1,0.1,0.2,0.1,0.2,0C76.2,36.2,76.2,36.1,76.1,36.1z"/>
<path class="st3" d="M61,24.5c4.3,4.5,7.4,9.7,11.3,14.6c0.2,0.2,0.5,0,0.4-0.3c-3-5.4-6.9-10.3-11.4-14.6c-0.1,0-0.2,0-0.2,0.1
	C61,24.4,61,24.5,61,24.5L61,24.5z"/>
<path class="st3" d="M72.4,38.9c-0.1,0.7,0.1,1.4,0.5,2c0.3,0.5,0.9,1.1,1.5,1c0.1,0,0.2-0.2,0.2-0.3c0,0,0,0,0-0.1
	c-0.3-0.4-0.8-0.6-1.1-1c-0.3-0.5-0.5-1-0.6-1.6c0-0.1-0.2-0.2-0.3-0.2C72.5,38.7,72.4,38.8,72.4,38.9L72.4,38.9z"/>
<path class="st3" d="M74.2,41.9c1.5,2.6,3.3,5,5.2,7.2c0.1,0.1,0.2,0.1,0.3,0c0.1-0.1,0.1-0.1,0-0.2c-1.5-2.6-3.3-5-5.2-7.3
	C74.4,41.5,74.1,41.7,74.2,41.9z"/>
<path class="st3" d="M78.1,46.8c0.5,0.6,1.1,1.2,1.7,1.7c0.1,0.1,0.3-0.1,0.2-0.2c-0.5-0.6-1.1-1.2-1.7-1.8
	C78.2,46.3,77.9,46.6,78.1,46.8z"/>
<path class="st3" d="M65.1,24c0.1-2-0.1-4.1-0.2-6.1c0-0.2-0.1-0.3-0.3-0.3c0,0,0,0-0.1,0c-0.8,0.1-1.4,0.9-1.2,1.8
	c0,0.1,0,0.1,0,0.2c0,0.1,0.3,0.1,0.3,0c-0.1-0.6,0.2-1.1,1-1.3l-0.3-0.3c0,2,0.1,4.1,0.3,6.1c0,0.1,0.1,0.2,0.3,0.2
	C65,24.2,65,24.1,65.1,24L65.1,24z"/>
<path class="st3" d="M62.9,19.3c-0.9-2.7-2.7-4.9-5.2-6.3c-0.1,0-0.2,0-0.2,0c0,0.1,0,0.1,0,0.2c1.3,1.9,2.3,4,3.4,6
	c0,0,0.1,0,0.2,0c0,0,0-0.1,0-0.1c-1.1-2-2.4-4-3.4-6.1l-0.2,0.2c2.2,1.6,3.9,3.7,5.1,6.1C62.8,19.5,63,19.4,62.9,19.3L62.9,19.3z"
	/>
<path class="st3" d="M61.1,18.3c-1.5-1.4-3-2.7-4.5-4.1c-0.1-0.1-0.3-0.1-0.4,0c-0.1,0.1-0.1,0.2,0,0.3c1,1.8,2,3.6,3,5.5
	c0.1,0.2,0.5,0,0.3-0.2c-1-1.9-2-3.7-2.9-5.5l-0.4,0.3c1.5,1.3,3,2.7,4.5,4C61,18.8,61.4,18.5,61.1,18.3L61.1,18.3z"/>
<path class="st3" d="M59.8,20c-1.1-1.7-2.9-2.7-4.8-3c-0.2,0-0.4,0.2-0.2,0.4c2.1,2.4,4.2,4.8,6.3,7.1c0.2,0.2,0.4-0.1,0.3-0.3
	c-2-2.5-4.2-4.8-6.3-7.2l-0.2,0.4c1.9,0.2,3.5,1.2,4.7,2.7C59.6,20.3,59.9,20.2,59.8,20L59.8,20z"/>
<path class="st3" d="M104.7,28.8c-0.9-0.2-1.4,1-1.2,1.7c0.1,0.9,1,1.5,1.9,1.3c0,0,0,0,0,0c0.9-0.2,1.5-1.1,1.3-2
	c-0.2-1-1.2-1.6-2.1-1.4c-0.3,0-0.2,0.5,0.1,0.5c0.7-0.1,1.3,0.3,1.5,1c0.2,0.7-0.2,1.4-0.9,1.6c0,0-0.1,0-0.1,0
	c-0.6,0.1-1.3-0.3-1.4-0.9c-0.1-0.4,0-0.8,0.3-1.1c0.2-0.2,0.4-0.3,0.6-0.5c0.1,0,0.1-0.1,0-0.2C104.8,29,104.8,28.9,104.7,28.8
	L104.7,28.8z"/>
<path class="st3" d="M102.6,29.9c0.8-0.5,1.6-0.8,2.5-0.9c0.9,0,1.8,0.3,2.5,0.8c0.2,0.1,0.3-0.1,0.2-0.3c-1.3-1.2-4.2-1.4-5.3,0.3
	C102.5,29.8,102.5,29.9,102.6,29.9z"/>
<path class="st3" d="M103,31.5c1.1,1,3.1,0.8,4.3,0.1c0.1-0.1,0.1-0.3-0.1-0.2c-0.7,0.2-1.4,0.4-2.1,0.4c-0.7-0.1-1.4-0.2-2.1-0.4
	C103,31.4,102.9,31.4,103,31.5z"/>
<path class="st3" d="M102.1,28.5c2.2-0.3,3.9-1,5.9,0.4c0.1,0.1,0.3-0.1,0.2-0.2c-1.7-1.6-4-1.1-6-0.4C102,28.2,102,28.5,102.1,28.5
	L102.1,28.5z"/>
<path class="st3" d="M93.3,29c0.2,0.2,0.4,0.3,0.6,0.5c0.2,0.2,0.4,0.6,0.3,0.9c0,0.7-0.6,1.2-1.3,1.2c-0.1,0-0.1,0-0.2,0
	c-0.7-0.1-1.1-0.8-1-1.5c0,0,0,0,0,0C91.9,29.3,92.6,28.9,93.3,29c0.3,0,0.5-0.5,0.2-0.5c-0.9-0.2-1.9,0.4-2.1,1.3
	c-0.2,0.9,0.3,1.9,1.3,2.1c0,0,0,0,0,0c0.9,0.2,1.7-0.4,1.9-1.3c0.2-0.7-0.3-2-1.2-1.8C93.3,28.9,93.3,28.9,93.3,29
	C93.3,29,93.3,29,93.3,29L93.3,29z"/>
<path class="st3" d="M95.5,29.8c-1.1-1.6-4-1.5-5.3-0.3c-0.1,0.1-0.1,0.2,0,0.2c0,0,0.1,0.1,0.2,0c0.7-0.5,1.6-0.7,2.5-0.7
	c0.9,0.1,1.7,0.4,2.5,0.9C95.5,29.9,95.5,29.9,95.5,29.8L95.5,29.8z"/>
<path class="st3" d="M94.9,31.4c-0.7,0.2-1.4,0.3-2.1,0.4c-0.7,0-1.4-0.1-2.1-0.4c-0.1,0-0.2,0.2-0.1,0.2c1.2,0.7,3.2,0.9,4.3-0.1
	C95.1,31.4,95,31.4,94.9,31.4z"/>
<path class="st3" d="M96,28.2c-2-0.7-4.3-1.2-6,0.4c-0.1,0.1,0,0.3,0.2,0.2c2-1.4,3.7-0.7,5.8-0.4C96.2,28.5,96.2,28.3,96,28.2
	L96,28.2z"/>
<path class="st3" d="M98.2,32.6c-0.4,0.4-0.8,0.7-1.2,1.1C97,33.8,97,33.9,97,34c0,0,0,0,0,0c0.3,0.1,0.5,0.3,0.8,0.5
	c0.2,0.2,0.3,0.4,0.5,0.5c0.1,0,0.2,0,0.3-0.1c0,0,0-0.1,0-0.1c-0.3-0.6-0.8-1-1.4-1.1V34c0.5-0.3,0.9-0.7,1.3-1
	C98.8,32.8,98.4,32.5,98.2,32.6L98.2,32.6z"/>
<path class="st3" d="M96.4,38.8c1.5,0.8,4.4,0.8,5.4-0.9c0,0,0-0.1,0-0.1c0,0,0,0-0.1,0c-0.8,0.2-1.5,0.7-2.3,0.8
	c-1,0.1-2,0.1-2.9-0.2C96.3,38.3,96.2,38.7,96.4,38.8z"/>
<path class="st3" d="M87.4,29.2c-1.5-0.5-1.5,1.5-1.1,2.4s1.8,4,3.2,2.9c0.1,0,0.1-0.1,0-0.2c0,0-0.1-0.1-0.1-0.1
	c-1-0.1-1.9-0.8-2.3-1.8c-0.4-0.7-1.6-3,0.2-2.9c0.1,0,0.2-0.1,0.2-0.2C87.5,29.3,87.5,29.2,87.4,29.2L87.4,29.2z"/>
<path class="st3" d="M110.6,29.6c0.7,0.1,1.1,0.3,1,0.8c0,0.3,0,0.5-0.1,0.8c-0.1,0.3-0.2,0.7-0.3,1c-0.2,0.5-1.1,2.6-1.9,1.8
	c-0.1-0.1-0.2-0.1-0.3,0c0,0.1-0.1,0.1,0,0.2c0.1,0.4,0.6,0.7,1,0.5c0.1,0,0.1-0.1,0.2-0.1c0.9-0.5,1.3-1.8,1.6-2.6s0.6-2,0-2.7
	c-0.3-0.4-0.9-0.4-1.3-0.1c0,0-0.1,0.1-0.1,0.1c-0.1,0.1,0,0.2,0,0.3C110.4,29.6,110.5,29.6,110.6,29.6L110.6,29.6z"/>
</svg>
