<svg id="illustration" xmlns="http://www.w3.org/2000/svg" viewBox="0 0 198.43 138.97"><defs><style>.cls-1{fill:#ca9959;}.cls-2{fill:#698d60;}.cls-3{fill:#3b52a4;}.cls-4{fill:#2faae1;}.cls-5{fill:#7f3803;}.cls-6{fill:#b06918;}.cls-7{fill:#fff;}.cls-8{fill:#fbb992;}.cls-9{fill:#8c6a3c;}.cls-10{fill:#523b19;}.cls-11{fill:#9b7643;}.cls-12{fill:#f05a23;}.cls-13{fill:#8a3003;}.cls-14{opacity:0.26;}.cls-15{fill:#231f20;}.cls-16{fill:#010101;}</style></defs><polygon class="cls-1" points="82.47 4.75 76.98 6.09 72.41 8.16 69.14 10.4 66.7 12.66 65.4 14.17 63.26 16.94 60.08 15.75 56.93 15.14 53.72 15.03 50.8 15.46 48.81 16.01 47.15 16.3 49.17 19.75 51.3 22.11 52.96 25.4 54.75 26.76 55.45 27.55 54.56 29.79 53.72 31.3 53.42 33.16 53.39 33.91 52.56 33.82 51.61 35.24 51.4 36.22 52.3 37.75 52.08 38.8 51.61 40.17 51.3 41.34 50.4 41.34 49.68 40.91 48.81 42.67 48.21 45.01 48.21 46.91 49.37 47.16 48.81 48.66 48.12 50.7 47.54 52.87 47.25 54.59 47.15 57 47.6 59.59 48.57 61.82 48.49 64.55 48.76 69.7 48.81 73.66 48.75 77.27 48.58 80.93 48.06 86.94 47.2 93.17 45.94 99.78 45.66 103 43.3 109.74 41.81 114.24 40.7 117.25 39.19 120.77 37.69 124.69 35.44 129.88 33.94 134.2 31.69 139.25 77.11 139.25 76.19 133 76.61 127.69 77.4 123.26 78.26 119.92 79.84 116.52 80.95 113.59 81.78 110.95 83.25 107.6 85.11 104.45 87.89 103.71 91.04 102.09 93.54 100.03 95.13 98.14 96.3 99.93 98.49 101.28 101.42 103 103.97 104.42 105.95 105.48 108.95 104.45 109.17 102.09 107.4 100.69 104.8 97.22 102.37 94.57 101.8 93.17 104.55 94.57 107.45 96.6 110.45 98.36 113.94 99.18 116.93 98.31 118.85 95.9 119.76 93 120.5 95.75 121.74 97.22 124.33 98.71 127.94 98.97 130.78 98.04 133.91 95.97 136.04 93.89 137.67 91.76 139.1 89.61 140.36 87.46 142.21 82.56 142.89 79.39 143.16 76.66 143.34 73.66 143.34 70.92 143.34 65.69 142.55 60.18 141.55 57.52 139.91 54.23 137.67 50.38 136.18 48.23 136.04 46.12 134.56 44.68 132.56 44.5 131.82 44.68 128.46 41.88 123.94 39.88 120.05 39.03 113.77 38.92 110.86 39.31 109.4 39.51 108.87 36.63 107.64 33.91 106.33 32.23 104.64 30.9 102.94 29.79 102.94 28.75 106.83 29.13 110.03 29.44 111.56 29.59 110.45 27.89 108.62 27.11 108.62 25.4 107.92 23.18 107.92 22.05 109.33 19.9 110.86 17.06 112.25 13.56 113.04 10.8 113.2 8.86 109.27 9.39 105.42 10.3 102.94 11.36 101.43 12.27 99.92 10.48 96.1 7.77 90.84 5.56 86.63 4.75 83.9 4.75 82.47 4.75"/><polygon class="cls-2" points="56.03 28.14 56.93 28.9 59.18 29.79 60.08 30.5 63.13 28.14 64.81 25.75 65.82 23.32 66.29 20.14 66.11 17.91 64.56 17.38 63.26 16.94 65.4 14.17 69.14 10.4 73.78 7.43 76.98 6.09 81.39 5.02 86.63 4.75 89.22 5.17 94.18 6.78 98.88 9.63 102.95 13.56 106.42 19.03 108.62 26.39 110.45 27.89 110.86 29.52 106.83 29.13 95.56 28.14 87.54 27.76 76.98 28.47 70.06 29.79 62.99 32.42 57.7 34.4 53.81 37.12 52.21 37.12 51.61 35.24 53.39 33.91 54.41 30.98 56.03 28.14"/><polygon class="cls-3" points="63.05 46.02 63.28 41.99 64.66 38.08 67.15 35.07 70.16 33.28 73.45 33 76.03 33.21 79.07 33.96 82.47 35.06 85.22 37.18 87.3 39.27 88.25 42.33 89.01 45.03 88.81 48.58 87.3 52.65 84.23 55.63 80.72 58.02 76.03 59.95 71.53 59.54 68.98 57.71 66.65 55.98 64.47 51.85 63.56 48.23 63.05 46.02"/><polygon class="cls-3" points="95.81 32.29 97.92 30.5 100.58 29.79 103.51 30.34 105.61 31.57 107.64 33.91 109.18 37.78 109.4 39.51 95.03 45.26 94.18 42.34 93.54 38.92 94.27 35.24 95.81 32.29"/><polygon class="cls-4" points="72.44 35.38 69.69 36.21 68.22 37.23 66.01 41.34 65.4 44.27 65.54 47.14 66.57 50.38 68.22 52.87 70.17 54.59 73.31 55.63 76.98 55.96 81.19 54.59 83.9 51.56 84.97 49.23 85.42 45.67 84.93 42.74 83.1 39.17 81.33 37.53 78.02 35.82 75.41 35.6 72.44 35.38"/><polygon class="cls-4" points="96.99 44.27 107.64 40.05 107.12 37.12 105.69 34.4 102.59 32.48 99.73 32.23 97.75 33.16 96.08 35.38 95.03 38.25 95.56 41.34 96.99 44.27"/><polygon class="cls-5" points="88.46 41.01 93.82 39.55 94.18 43.05 89.22 43.97 88.46 41.01"/><polygon class="cls-5" points="62.99 43.05 61.58 43.38 59.69 42.79 60.36 44.68 60.13 46.91 63.02 46.45 62.99 43.05"/><path class="cls-6" d="M49.68,40.91l-.87,1.76L48.21,45l.6,2,8.89,1.22s2.46.17,2.66-1.15A9.27,9.27,0,0,0,60.08,44l-.39-1.18-2,.32-3-.06-2.19-.73-1.26-1Z"/><path class="cls-7" d="M99.32,33.08c-.84,3.25,2.22,5.74.67,8.93-.22.47.45.87.69.41a5.22,5.22,0,0,0,.56-3.63c-.43-2-1.86-3.32-1.54-5.61,0-.24-.31-.35-.38-.1Z"/><path class="cls-7" d="M100.6,42.39a1.89,1.89,0,0,0,1.72-.8.11.11,0,0,0-.1-.16,1.76,1.76,0,0,0-.81.26,2.26,2.26,0,0,0-.87.45.15.15,0,0,0,.06.25Z"/><path class="cls-7" d="M102,41.67a3.78,3.78,0,0,0,.16-3.7,23,23,0,0,1-1-2.44c-.25-.94.21-1.63.16-2.51a.2.2,0,0,0-.25-.19c-1,.19-1.11,1.38-1,2.25.17,2.24,2.66,4,1.5,6.33a.26.26,0,0,0,.45.26Z"/><path class="cls-7" d="M101.08,32.75l0,0c-.09,0,0,.18.09.09l0,0a0,0,0,0,0-.06-.07Z"/><path class="cls-7" d="M101.38,32.73a1.79,1.79,0,0,0-1.95,0c-.35.2-.11.83.29.68a4.25,4.25,0,0,1,.79-.24,3.33,3.33,0,0,0,.77-.11.22.22,0,0,0,.1-.36Z"/><path class="cls-7" d="M100,33.08a2.64,2.64,0,0,0,0,3.69c.34.26.71-.16.64-.49-.09-.55-.41-1-.47-1.57s.05-1,0-1.52a.15.15,0,0,0-.25-.11Z"/><path class="cls-7" d="M100.4,33.14a1.74,1.74,0,0,0-.53,1.31.36.36,0,0,0,.71,0c0-.39,0-.78.07-1.17,0-.13-.14-.27-.25-.14Z"/><path class="cls-7" d="M100.65,37.11a6.79,6.79,0,0,0,.15,2.15,13.53,13.53,0,0,1,.12,2.2.4.4,0,0,0,.59.34c.72-.52.44-1.45.35-2.23A4.18,4.18,0,0,0,101,37a.19.19,0,0,0-.32.09Z"/><path class="cls-7" d="M73.59,35.44a13.73,13.73,0,0,0-1.51,6.63c.11,1.75,1.61,2.36,3.16,2.45a.56.56,0,0,0,.15-1.1c-3.89-.85-1.87-5.15-1.31-7.77.06-.28-.34-.49-.49-.21Z"/><path class="cls-7" d="M75.12,44.2c-.45,1.83-.59,3.71-1,5.54s-1.18,3.6-1.64,5.43a.38.38,0,0,0,.69.3A16.48,16.48,0,0,0,75.49,44.2a.19.19,0,0,0-.37,0Z"/><path class="cls-7" d="M72.52,55.2a2.94,2.94,0,0,0,1.67.59,4.5,4.5,0,0,0,2.16,0,.39.39,0,0,0,0-.74,9.26,9.26,0,0,0-1.9-.15,5.63,5.63,0,0,0-1.83,0,.23.23,0,0,0-.1.38Z"/><path class="cls-7" d="M76.54,55.34a9.15,9.15,0,0,0,.62-2.19c.19-.84.42-1.67.66-2.5a.35.35,0,0,0-.67-.18c-.4,1.46-1.12,3.3-.9,4.83a.16.16,0,0,0,.29,0Z"/><path class="cls-7" d="M77.42,52.93c.88-2.12,2-6.06.91-8.3-.7-1.41-2.7-2.67-4.27-2.27a.39.39,0,0,0-.17.65c1.67,1.5,4,.56,4,3.91,0,2-.79,3.95-.73,6a.14.14,0,0,0,.28,0Z"/><path class="cls-7" d="M75.26,42.88a16.13,16.13,0,0,0,.7-3.11,22.61,22.61,0,0,1,1.22-3.37c.2-.48-.53-.7-.79-.33-1.2,1.68-2.45,4.79-1.58,6.81a.26.26,0,0,0,.45,0Z"/><path class="cls-7" d="M77,35.91a3.56,3.56,0,0,0-1.85-.37,2.47,2.47,0,0,0-1.76.4.38.38,0,0,0,.16.62c.51.21,1.18-.06,1.72-.12A7.79,7.79,0,0,0,77,36.25a.19.19,0,0,0,0-.34Z"/><path class="cls-7" d="M73.92,36.32c-1.46,1.54-1.24,4.65-.51,6.48.25.63,1.28.37,1-.29a8.56,8.56,0,0,1-.67-3.19c0-1,.35-1.92.39-2.9a.15.15,0,0,0-.25-.1Z"/><path class="cls-7" d="M74.62,42.62c.2-2.19.31-3.95,1.8-5.7.63-.74-.41-1.82-1.09-1.09-1.61,1.74-2.55,4.86-1,6.9.09.11.25,0,.26-.11Z"/><path class="cls-7" d="M75.67,36.25a1.83,1.83,0,0,0-1.65.39,1.74,1.74,0,0,0-.6,1.88.66.66,0,0,0,1.29-.17c.09-.76.13-1.44,1-1.77.14-.06.18-.29,0-.33Z"/><path class="cls-7" d="M75.43,44c-.43,1.72-.08,3.58-.39,5.34s-1.38,3.43-1.65,5.22a.48.48,0,0,0,.79.45c2.5-2,3.5-8.46,1.58-11a.18.18,0,0,0-.33,0Z"/><path class="cls-7" d="M73.81,54.9a1.86,1.86,0,0,0,.94.56,3.21,3.21,0,0,0,1.31-.06.72.72,0,0,0-.19-1.4c-.34,0-.69.07-1,.1a3.3,3.3,0,0,0-.92.35.27.27,0,0,0-.11.45Z"/><path class="cls-7" d="M76,54.82c2.45-2.58,2.14-7.69,1.4-10.89-.25-1.07-1.84-.61-1.63.45a18.58,18.58,0,0,1,.39,5.41c-.15,1.62-.75,3.18-.7,4.8a.32.32,0,0,0,.54.23Z"/><path class="cls-7" d="M77.31,44a5.05,5.05,0,0,0,.31,1.12c.09.4,0,.85.22,1.19a.51.51,0,0,0,.79.1c.71-.67,0-2.5-.85-2.78a.38.38,0,0,0-.47.37Z"/><path class="cls-7" d="M77.45,45.32A16.3,16.3,0,0,0,77,47.94c-.13.64-.43,1.27,0,1.83a.3.3,0,0,0,.27.08c.84-.17.93-1.26,1-2a3.47,3.47,0,0,0-.44-2.64.24.24,0,0,0-.42.06Z"/><path class="cls-7" d="M75.3,54.35a1.84,1.84,0,0,0,.63-1.66.47.47,0,0,0-.67-.27,1.81,1.81,0,0,0-.5,1.79.33.33,0,0,0,.54.14Z"/><path class="cls-7" d="M76.85,54.63c.17-.49.44-1,.65-1.43s.37-.88.1-1.27a.41.41,0,0,0-.54-.14c-.42.2-.47.66-.52,1.09s0,1.09-.13,1.63a.23.23,0,0,0,.44.12Z"/><path class="cls-7" d="M75.44,46.27a.39.39,0,0,0,0-.78.39.39,0,0,0,0,.78Z"/><path class="cls-7" d="M65.1,40.1c.74-1.2,1-2.41,2.05-3.47a10.05,10.05,0,0,1,3.42-2.13c.15-.07,0-.27-.11-.25-2.33.36-5.61,3.27-5.53,5.8a.09.09,0,0,0,.17.05Z"/><path class="cls-7" d="M87.06,45.48a27.18,27.18,0,0,1-.74,4,15.2,15.2,0,0,1-2.63,4.18.21.21,0,0,0,.29.29c2.2-1.72,4-5.66,3.27-8.44a.1.1,0,0,0-.19,0Z"/><path class="cls-7" d="M95.63,34.46a7,7,0,0,1,5.87-3c.18,0,.23-.3,0-.33a6,6,0,0,0-6.13,3.17c-.06.13.11.31.22.17Z"/><path class="cls-7" d="M105.93,33.38a8.5,8.5,0,0,0,.67,1.8,12.65,12.65,0,0,1,.53,1.89c.06.33.57.19.5-.14-.23-1.18-.62-2.85-1.68-3.57,0,0,0,0,0,0Z"/><path class="cls-7" d="M97.41,56.74c-.16-1.06-.65-1.94-.06-3s1.59-1.14,2.63-1.38a.38.38,0,0,0,0-.73,3.24,3.24,0,0,0-3.32,1.87c-.52,1-.6,2.77.45,3.47.16.12.33-.07.3-.23Z"/><path class="cls-7" d="M131.83,46.83c.35.27.86.09,1.23.35s.24.86.61,1.19a.47.47,0,0,0,.53.07c.85-.56,0-1.88-.67-2.21a1.54,1.54,0,0,0-1.31-.08c-.15.07-.68.45-.39.68Z"/><path class="cls-7" d="M104.19,44.24a41.39,41.39,0,0,1,9.93-2.35,31.63,31.63,0,0,1,10.15,1.18.47.47,0,0,0,.26-.91C118.19,39.72,109.76,40,104,43.77c-.23.16-.09.56.2.47Z"/><path class="cls-7" d="M92.71,75.26a20.21,20.21,0,0,1-.18-3.11c0-1,.31-2.05.4-3.09,0-.27-.36-.35-.48-.13a7.47,7.47,0,0,0,0,6.4.13.13,0,0,0,.23-.07Z"/><path class="cls-7" d="M139.48,58.05c.11,2.23,1.2,4.3,1.38,6.57.2,2.58-.44,4.94-.79,7.46a.37.37,0,0,0,.67.28c2.38-3.5,2.63-11.58-1-14.43-.1-.08-.3,0-.29.12Z"/><path class="cls-7" d="M80.55,32.28a3.8,3.8,0,0,0,1.48.91,4.27,4.27,0,0,0,1.63.7.22.22,0,0,0,.19-.32,3.72,3.72,0,0,0-1.5-.94,3.56,3.56,0,0,0-1.67-.58.15.15,0,0,0-.13.23Z"/><path class="cls-7" d="M92.44,34.58c.38-.41.68-.88,1-1.31s.76-.7.88-1.15a.18.18,0,0,0-.21-.21c-.48.1-.84.64-1.12,1a4.4,4.4,0,0,0-.8,1.53.13.13,0,0,0,.21.12Z"/><path class="cls-7" d="M69.12,15.21a0,0,0,1,0,0,0s0,0,0,0Z"/><path class="cls-7" d="M71.5,15c7-4.59,17.53-5.31,24.65-.49.27.18.53-.26.26-.44-4-2.69-8.19-4.72-13.08-4.45a21.3,21.3,0,0,0-12.13,5c-.22.18.06.55.3.39Z"/><path class="cls-7" d="M50.94,17a38.07,38.07,0,0,1,3.85-.42,28.24,28.24,0,0,1,4.29.82.21.21,0,0,0,.16-.39,8.38,8.38,0,0,0-8.37-.28.14.14,0,0,0,.07.27Z"/><path class="cls-7" d="M104.39,13c.93-.52,1.72-1.21,2.69-1.67s2-.62,3-1c.21-.1.08-.39-.11-.4a7.9,7.9,0,0,0-5.75,2.9c-.1.13.08.29.21.22Z"/><path class="cls-8" d="M104.52,14.91a18,18,0,0,1,3.24-2.44,10.26,10.26,0,0,1,4.72-.59.44.44,0,0,0,.12-.85c-2.69-1-7.48.77-8.31,3.7,0,.13.12.27.23.18Z"/><path class="cls-8" d="M112.1,11.69a44.63,44.63,0,0,0-2,4.83c-.72,1.61-1.67,3.07-2.5,4.63-.14.27.24.6.45.34,2-2.44,4.34-6.45,4.53-9.67a.26.26,0,0,0-.47-.13Z"/><path class="cls-8" d="M107.83,21.39c0-2.28-1.4-4.76-2.49-6.7a.49.49,0,0,0-.85.5,23.5,23.5,0,0,1,1.64,3.1,30,30,0,0,0,1.32,3.21.21.21,0,0,0,.38-.11Z"/><path class="cls-8" d="M105.47,15a10.84,10.84,0,0,1,3.31-1.91,24.37,24.37,0,0,0,2.92-.67.41.41,0,0,0,0-.7c-1-.54-2.54-.06-3.55.37a6.54,6.54,0,0,0-3.06,2.63c-.15.24.18.45.38.28Z"/><path class="cls-8" d="M111.5,11.81a8.83,8.83,0,0,0-3.79.72,5.51,5.51,0,0,0-2.87,2.12c-.13.28.09.67.43.56A19.77,19.77,0,0,0,108,13.58a17.16,17.16,0,0,1,3.55-1.3.24.24,0,0,0-.06-.47Z"/><path class="cls-8" d="M106,15.3a26,26,0,0,0,2.58-1.19,19.64,19.64,0,0,1,3-.82.63.63,0,0,0-.16-1.23c-2-.09-4.83,1.06-5.66,3,0,.13,0,.32.21.26Z"/><path class="cls-8" d="M105.87,15.5c1,.3,2.06-.28,3-.59s2.19-.41,2.6-1.31a.41.41,0,0,0-.15-.54c-.91-.54-2.11.22-3,.58s-2.07.68-2.54,1.61a.17.17,0,0,0,.1.25Z"/><path class="cls-8" d="M105.37,15.08c-.31.81.3,1.74.65,2.47a7.48,7.48,0,0,0,1.53,2.73.58.58,0,0,0,1-.41,7.71,7.71,0,0,0-1.15-2.9c-.38-.77-.73-1.84-1.61-2.12a.34.34,0,0,0-.4.23Z"/><path class="cls-8" d="M108,20.41a7.84,7.84,0,0,0,1.85-2.87,17,17,0,0,0,1.25-3.32c.14-.71-.92-1.27-1.25-.52-.49,1.07-.79,2.23-1.21,3.33a11.68,11.68,0,0,0-1,3.25c0,.17.21.22.32.13Z"/><path class="cls-8" d="M110,13.91a3.11,3.11,0,0,0-1.62,1.26c-.48.71-.48,1.57-1,2.28l1.33.18a8.46,8.46,0,0,0-.84-2.4c-.45-.86-1.77-.1-1.31.76a6.93,6.93,0,0,1,.75,2,.74.74,0,0,0,1.33.18c.78-1.27.28-2.92,1.5-4,.14-.12,0-.39-.19-.32Z"/><path class="cls-8" d="M107,15.82a4.29,4.29,0,0,0,2-.24.53.53,0,0,0-.28-1,4.47,4.47,0,0,0-1.81.83.26.26,0,0,0,.12.43Z"/><path class="cls-8" d="M108,15.2c-.18.59-.51,1.4,0,1.87a.54.54,0,0,0,.84-.11c.38-.66-.17-1.28-.55-1.8a.19.19,0,0,0-.34,0Z"/><path class="cls-8" d="M111.51,11.63a2.47,2.47,0,0,0-.93,1.13c-.25.48-.44,1,0,1.45l-.15-.38a2.28,2.28,0,0,1,0,.37c0,.43.52.49.74.2s.36-.24.49-.48a2.64,2.64,0,0,0,.23-.82,2.3,2.3,0,0,0,0-1.4.22.22,0,0,0-.3-.07Z"/><path class="cls-8" d="M52.81,18.86a.05.05,0,1,0,0-.1.05.05,0,0,0,0,.1Z"/><path class="cls-8" d="M52.45,18.66C54.36,23,58.93,27.5,64,26.83c.68-.09.73-1.14,0-1.11A10,10,0,0,1,56.88,23c-1.55-1.38-2.62-3.15-4.11-4.56a.2.2,0,0,0-.32.25Z"/><path class="cls-8" d="M64,26.35c.7-.42,1-1.43,1.25-2.16a6,6,0,0,0,.49-2.82c0-.3-.44-.22-.52,0-.33.82-.36,1.78-.62,2.64a7.85,7.85,0,0,0-.75,2.25.1.1,0,0,0,.15.09Z"/><path class="cls-8" d="M52.49,18.84c4.57.59,8.49.78,12.69,3,.57.3,1.07-.57.5-.87-3.85-2-8.89-3.65-13.24-2.48a.19.19,0,0,0,.05.37Z"/><path class="cls-8" d="M64.66,21.73c-.52.48-.4.64-.72,1.23-1.36,2.55-2.7,1.67-4.41.59a36.49,36.49,0,0,1-5.3-4.64.81.81,0,0,0-1.14,1.14c2.17,2.47,5.11,5.46,8.52,6,3.07.52,3.48-1.71,3.45-4.2a.23.23,0,0,0-.4-.16Z"/><path class="cls-8" d="M53.41,19.32A27.08,27.08,0,0,0,58.78,21c1.79.52,3.63,1.57,5.49,1.62a.53.53,0,0,0,.37-.89c-1.41-1.3-3.64-1.7-5.46-2.18a13.15,13.15,0,0,0-5.73-.6.19.19,0,0,0,0,.34Z"/><path class="cls-8" d="M64,21.65a13.6,13.6,0,0,0-1.4,1.44c-.5.49-.47.59-1.28.24a7.61,7.61,0,0,1-1.16-.7c-1.38-.91-2.52-2.06-4.09-2.65l-.44,1.58a36.2,36.2,0,0,1,4.09,1.34c1.07.41,2.1,1.11,3.24.76a.53.53,0,0,0,.31-.76c-.59-1-1.71-1.2-2.8-1.57-1.46-.48-2.94-.89-4.4-1.35a.82.82,0,0,0-.63,1.5c2.08,1.08,3.69,3,6.06,3.52,1.83.42,2.66-1.4,3-3,0-.24-.22-.54-.47-.36Z"/><path class="cls-8" d="M64,21.44a1.19,1.19,0,0,0,.06.67.64.64,0,0,0,1,.27.63.63,0,0,0-.28-1c-.21-.06-.74-.24-.83.1Z"/><path class="cls-9" d="M55.28,36.91c3-.87,5.84-2.53,8.79-3.63a71.18,71.18,0,0,1,9.58-2.85A72.22,72.22,0,0,1,93.81,29c.79,0,.77-1.15,0-1.22a68.41,68.41,0,0,0-30.48,4.42c-2.84,1.11-6,2.28-8.27,4.3a.23.23,0,0,0,.22.39Z"/><path class="cls-9" d="M93.93,28.67a9.49,9.49,0,0,0,3.6.49,45.1,45.1,0,0,1,5.45.26c.39.06.55-.53.16-.58-2.77-.39-6.5-1.77-9.21-.61a.25.25,0,0,0,0,.44Z"/><path class="cls-9" d="M93.54,28.82a3.24,3.24,0,0,0,1.87.14.14.14,0,0,0,0-.27c-.31,0-.61,0-.91,0s-.6,0-.9-.08a.09.09,0,0,0,0,.18Z"/><path class="cls-9" d="M81.42,31.08a1.92,1.92,0,0,0,1.06.26,5.5,5.5,0,0,1,1.81.55A4.64,4.64,0,0,1,86.6,34.5a.17.17,0,0,0,.32-.09,5.23,5.23,0,0,0-2-3.19c-.82-.54-2.69-1.27-3.5-.41a.18.18,0,0,0,0,.27Z"/><path class="cls-9" d="M90.75,34.18A3.91,3.91,0,0,1,91.83,32a3.37,3.37,0,0,1,1-.61c.4-.15.83-.15,1.21-.31a.21.21,0,0,0,0-.4,2.82,2.82,0,0,0-2.59.79,3.27,3.27,0,0,0-1.11,2.63c0,.22.35.3.4.06Z"/><path class="cls-9" d="M89,48.62c-2.14,3.32-3.65,6.75-7.18,8.91-4.16,2.54-8,1.52-12.38.53-.34-.07-.64.35-.36.61,3.24,2.89,8.6,1.78,12.09,0,3.68-1.9,7.41-5.68,8.18-9.88a.19.19,0,0,0-.35-.15Z"/><path class="cls-9" d="M94.66,54.09c-1,1.29-.57,3.28.31,4.53a5.3,5.3,0,0,0,1.8,1.59,5.49,5.49,0,0,0,2.48.35c.28,0,.27-.4,0-.43a6.74,6.74,0,0,1-3.15-2,4.7,4.7,0,0,1-1.16-4,.16.16,0,0,0-.28-.11Z"/><path class="cls-9" d="M133.18,53.14c.73,0,1.53-1,2-1.51a6.89,6.89,0,0,0,1.39-2.53c.12-.38-.5-.66-.67-.28a17.56,17.56,0,0,1-1.28,2.38,8.41,8.41,0,0,1-.88,1.18c-.23.27-.45.41-.55.74,0,0,0,0,0,0Z"/><path class="cls-9" d="M135.92,49.05a2.52,2.52,0,0,0,.51,1.1,2.46,2.46,0,0,0,.8,1,.24.24,0,0,0,.34-.26,3.06,3.06,0,0,0-.67-1.08,3,3,0,0,0-.72-.86.17.17,0,0,0-.26.15Z"/><path class="cls-10" d="M127.33,51.67c.68.27,1.41-.19,2-.54a15.94,15.94,0,0,1,2.45-1.3.9.9,0,1,0-.7-1.65A11.74,11.74,0,0,0,127.89,50c-.22.2-1.18,1.42-.56,1.66Z"/><path class="cls-10" d="M105.89,56.26l.07-.1a.78.78,0,0,0,0-.78c-1.17-2-3.81-2.54-5.92-2a.93.93,0,0,0-.64,1.12l.09.22a.92.92,0,0,0,1,.41,4.55,4.55,0,0,1,3.69.79c.43.29,1.23,1,1.68.3Z"/><path class="cls-9" d="M99.44,55.09a.28.28,0,0,0,0-.55.28.28,0,0,0,0,.55Z"/><path class="cls-10" d="M99.18,55.23c.4-.12.86-.29.92-.74a.16.16,0,0,0-.13-.16c-.39-.14-.77.21-1,.48a.25.25,0,0,0,.24.42Z"/><path class="cls-10" d="M127,52a2.37,2.37,0,0,0,.88-.67.17.17,0,0,0-.18-.24,2.47,2.47,0,0,0-.9.65.17.17,0,0,0,.2.26Z"/><path class="cls-11" d="M116.57,64.85a9.64,9.64,0,0,0,.16,3.12,14.29,14.29,0,0,0,.5,3.14.16.16,0,0,0,.32,0,16.52,16.52,0,0,0-.31-3.57,8.5,8.5,0,0,0-.53-2.66c0-.06-.13,0-.14,0Z"/><path class="cls-11" d="M119.45,64.81a21,21,0,0,0,.28,3,24,24,0,0,0,.17,2.69.19.19,0,0,0,.37,0,11,11,0,0,0-.11-3.13,8.17,8.17,0,0,0-.59-2.64c0-.06-.11,0-.12,0Z"/><path class="cls-11" d="M120.67,81.75a61.5,61.5,0,0,1-1.79,9.88c-1.18,4.36-3.65,6.62-8.24,6-.24,0-.4.26-.17.4,2.87,1.85,6.74.29,8.34-2.47,2.3-4,2.69-9.34,2.35-13.81a.25.25,0,0,0-.49,0Z"/><path class="cls-11" d="M121,90.61c-1,1.9-1.21,4.79.29,6.53,1.16,1.34,3.58,2.38,5.32,1.77a.19.19,0,0,0,0-.36c-1.79-.49-3.61-.27-4.62-2.2s-.38-3.72-.61-5.64c0-.18-.27-.3-.38-.1Z"/><path class="cls-11" d="M126.82,96.64l-.1.09a0,0,0,0,0,0,.07l.14,0c.12,0,0-.23-.08-.13Z"/><path class="cls-11" d="M125.19,96.21l.08-.12h-.43c1.24,2.82,5.64-.51,6.68-1.9.06-.07-.06-.15-.12-.09-1.17,1.07-4.6,3.85-6.13,1.74-.31-.43-.68.3-.28.36l.17,0s0,0,0,0Z"/><path class="cls-11" d="M92,101.17c1.86-.53,1.84-2.91.69-4.17a10.43,10.43,0,0,0-3.2-1.94,7.38,7.38,0,0,0-4.07-.84.15.15,0,0,0,0,.3c2.4.32,9.5,3,6.39,6.31a.2.2,0,0,0,.19.34Z"/><path class="cls-11" d="M92.87,98a3.23,3.23,0,0,0,.23.66c.09.27.05.57.16.83s.35.28.46.06A1.34,1.34,0,0,0,93,97.83a.12.12,0,0,0-.16.12Z"/><path class="cls-11" d="M93.25,98.22c.14.24.32.37.36.67s.68.24.62-.17-.45-.91-.92-.71a.15.15,0,0,0-.06.21Z"/><path class="cls-11" d="M93.67,98.65a.49.49,0,0,0,.39.24c.14,0,.31-.13.21-.27a.54.54,0,0,0-.42-.28.19.19,0,0,0-.18.31Z"/><path class="cls-11" d="M82.05,106.55a21.09,21.09,0,0,0,5.12-8.61c.06-.22-.27-.38-.38-.16-.77,1.48-1.36,3-2.2,4.47s-1.81,2.77-2.75,4.14c-.09.13.11.27.21.16Z"/><path class="cls-11" d="M48.23,63a6.83,6.83,0,0,0,1.44,1.4c.45.33,1.11.88,1.7.76a.27.27,0,0,0,.16-.38c-.27-.44-.93-.6-1.36-.87a11.31,11.31,0,0,1-1.54-1.22c-.2-.18-.58.07-.4.31Z"/><path class="cls-11" d="M48.48,63.38a2,2,0,0,0,1.82,2.09.46.46,0,0,0,.45-.34.59.59,0,0,0,0-.13.5.5,0,0,0-.47-.47,1.8,1.8,0,0,1-1.48-1.2.17.17,0,0,0-.34.05Z"/><path class="cls-11" d="M48.72,63.58a8.1,8.1,0,0,0-.24,3,3.77,3.77,0,0,0,.61,2.32.2.2,0,0,0,.33-.09,6.59,6.59,0,0,0-.28-2.27c-.12-1-.09-1.94-.15-2.9a.14.14,0,0,0-.27,0Z"/><path class="cls-11" d="M48.77,66.26a12.65,12.65,0,0,0,.11,3.79.19.19,0,0,0,.36,0A12.77,12.77,0,0,0,49,66.26a.1.1,0,0,0-.2,0Z"/><path class="cls-11" d="M49.07,68A7.73,7.73,0,0,0,49,70.68a.22.22,0,0,0,.42,0A7.73,7.73,0,0,0,49.3,68a.12.12,0,0,0-.23,0Z"/><path class="cls-11" d="M85.1,94.73c5.1,2-1.61,9.8-3.48,11.83a.29.29,0,0,0,.4.41c2.28-2.16,9.08-10.85,3.21-12.71-.3-.09-.41.36-.13.47Z"/><path class="cls-11" d="M82.37,106.52c2.36-1.14,4.6-2.55,6.85-3.87,1.12-.66,2.63-1.38,3.11-2.69,1.25-3.4-4-4.4-6-5.1a.39.39,0,0,0-.3.71,12,12,0,0,0,2.68.92,7.64,7.64,0,0,1,1.66.53l.78,3.59c-.26.52-1.36,1-1.84,1.27-2.37,1.42-4.83,2.74-7.09,4.33a.18.18,0,0,0,.18.31Z"/><path class="cls-11" d="M87.34,95.88v-.13s0,0-.06,0v.13a0,0,0,0,0,.06,0Z"/><path class="cls-11" d="M84.8,94.47l0-.12c0-.09-.17-.09-.19,0l0,.12a.12.12,0,1,0,.23,0Z"/><path class="cls-11" d="M84.51,94.43a8.91,8.91,0,0,1,2.34,4.16c.09.41.69.23.62-.17a6.52,6.52,0,0,0-2.67-4.37c-.24-.15-.46.18-.29.38Z"/><path class="cls-11" d="M86.42,94.8c.57.24,1.16.42,1.71.7a8.16,8.16,0,0,0,1.36.74c.18.06.39-.17.26-.34a3.13,3.13,0,0,0-1.4-.91,5,5,0,0,0-1.89-.48c-.19,0-.19.23,0,.29Z"/><path class="cls-11" d="M89.41,96.79c.21.71.6,1.33.79,2a12.17,12.17,0,0,1,.18,2.41.29.29,0,0,0,.57.08,4.8,4.8,0,0,0-1.32-4.7c-.11-.08-.25.05-.22.16Z"/><path class="cls-11" d="M91,100.65a18,18,0,0,0-4.07,1.51,9.22,9.22,0,0,0-3.24,2.18c-.14.19.1.46.31.39a19.64,19.64,0,0,0,3.33-1.89c1.25-.67,2.53-1.27,3.8-1.89.17-.09,0-.34-.13-.3Z"/><path class="cls-11" d="M86,102.92c1.51-1.57,2.74-4.06,2.4-6.29-.06-.44-.77-.41-.86,0-.23,1-.27,2-.52,3a14.71,14.71,0,0,1-1.24,3.12.14.14,0,0,0,.22.17Z"/><path class="cls-11" d="M87.59,96.75c1.93.67,2,2.39,2.12,4.14a.58.58,0,0,0,1.16,0c.07-1.86-.68-5.33-3.28-4.76a.32.32,0,0,0,0,.62Z"/><path class="cls-11" d="M90.53,100.38a22,22,0,0,0-3.21,1.08c-.78.29-1.83.38-2.29,1.11a.33.33,0,0,0,.19.47c.85.34,1.89-.36,2.68-.7a9.48,9.48,0,0,0,2.78-1.71.15.15,0,0,0-.15-.25Z"/><path class="cls-11" d="M86.24,102.55c.61-.73,1.16-1.46,1.71-2.23.44-.6,1.24-1.33,1-2.13a.34.34,0,0,0-.39-.23c-.78.11-1.06,1.08-1.38,1.7-.45.86-.87,1.72-1.26,2.61-.09.22.18.5.36.28Z"/><path class="cls-11" d="M89,97.06a8.49,8.49,0,0,1,1.39,1c.43.38.69,1,1.27,1.17a.65.65,0,0,0,.79-.45c.12-.83-.58-1.39-1.21-1.83a3.1,3.1,0,0,0-2.06-.57.36.36,0,0,0-.18.67Z"/><path class="cls-11" d="M88.27,97.26a8.06,8.06,0,0,0,0,2.3,3.07,3.07,0,0,0,.64,1.88.45.45,0,0,0,.75-.2,3.63,3.63,0,0,0-.27-1.91c-.18-.73-.42-1.42-.67-2.13a.21.21,0,0,0-.42.06Z"/><path class="cls-11" d="M89.11,98.57a5.64,5.64,0,0,1-2,2.47l.61,1a4.91,4.91,0,0,0,1.48-1.66,6.85,6.85,0,0,0,.6-2.21c.14-.87-1.17-1.25-1.34-.37-.06.3-.1.6-.13.9-.09.77,1.22,1,1.36.19,0-.3.1-.6.13-.91l-1.36.19c.23,1.09-.68,2.3-1.48,2.91-.54.42.19,1.38.74,1a4.48,4.48,0,0,0,1.86-3.45c0-.31-.42-.34-.51-.07Z"/><path class="cls-11" d="M85.73,103.73a3.29,3.29,0,0,0,2.55-.33,4.77,4.77,0,0,0,2.47-1.89.5.5,0,0,0-.68-.68c-.8.36-1.46,1.09-2.24,1.53a9.88,9.88,0,0,0-2.13,1.14c-.06.06-.06.2,0,.23Z"/><path class="cls-11" d="M86.74,103.18a6.68,6.68,0,0,0,2.53-.83c.54-.33,1.42-.88,1.36-1.6a.2.2,0,0,0-.2-.2c-.62,0-1.12.6-1.59,1a10.74,10.74,0,0,1-2.2,1.33.18.18,0,0,0,.1.35Z"/><path class="cls-11" d="M82.75,106.57c.39-.38.76-.75,1.12-1.15a4.86,4.86,0,0,0,.91-1.16.22.22,0,0,0-.34-.26,4.93,4.93,0,0,0-.94,1.14c-.31.44-.58.88-.86,1.34,0,.07,0,.14.11.09Z"/><path class="cls-11" d="M56.72,48.6c-1.26,3.16-1.44,7-1.69,10.34a105,105,0,0,0-.23,11.22,112.68,112.68,0,0,0,2.8,21.56c2.63,11.41,7.24,26.26,20,29.85,1,.28,1.36-1.17.42-1.52-12.65-4.66-16.58-19.21-19.05-31.12a111.16,111.16,0,0,1-2.27-20.17q-.09-4.92.22-9.82c.22-3.36.91-6.87.7-10.22a.44.44,0,0,0-.86-.12Z"/><path class="cls-11" d="M96.4,99.61c1.76,1.84,4.31,2.89,6.52,4.09,1.19.65,2.85,1.9,4.29,1.3,3.63-1.51-2.48-7.85-3.4-9.39a.28.28,0,0,0-.49.28c.81,1.47,1.31,3,2.09,4.52a9,9,0,0,1,1,1.8c.35,1.64-.59,1.44-1.68.89-2.61-1.32-5.26-3.26-8.18-3.78a.18.18,0,0,0-.17.29Z"/><path class="cls-11" d="M98.86,56.45a15,15,0,0,1,2.68-.33c.81,0,1.58.2,2.39.29.45.05.45-.59.1-.73a7.17,7.17,0,0,0-5.34.36c-.24.12-.06.45.17.41Z"/><path class="cls-11" d="M99,56.14c4.58-.28,8.44,4.12,12.9,2.32.22-.08.21-.44-.06-.43-4.4.09-8.62-4.24-12.91-2.15a.14.14,0,0,0,.07.26Z"/><path class="cls-11" d="M133.53,49.28c-4.44,1.13-8.48,4.25-12,7,0,0,0,.11.06.08,3.9-2.38,8.39-4.19,12.05-6.92a.1.1,0,0,0-.08-.18Z"/><path class="cls-11" d="M67.27,57.39a4.4,4.4,0,0,0,2.57,2.52c.92.41,2.29.94,3.17.22a.28.28,0,0,0,0-.39c-.7-.62-1.85-.58-2.7-1a30.09,30.09,0,0,1-2.7-1.66.23.23,0,0,0-.34.26Z"/><path class="cls-11" d="M71.47,59.79a4.91,4.91,0,0,0,2.1.46c.61,0,1.46,0,1.87-.48a.17.17,0,0,0-.08-.28c-.56-.2-1.2.08-1.79.11a13.75,13.75,0,0,1-2-.11c-.15,0-.21.23-.08.3Z"/><path class="cls-11" d="M71.3,60a3,3,0,0,0,3.67.11c.2-.18,0-.44-.24-.41A11.31,11.31,0,0,1,73.1,60a10.07,10.07,0,0,1-1.65-.22c-.14,0-.27.14-.15.25Z"/><path class="cls-11" d="M70.46,59.92c1.83,1.15,4.78,1.55,6.65.26.24-.16.19-.67-.17-.62a29.59,29.59,0,0,1-3,.5,12.29,12.29,0,0,1-3.35-.45.17.17,0,0,0-.14.31Z"/><path class="cls-11" d="M75.57,60.43a10.23,10.23,0,0,0,6-2.66c.13-.14,0-.43-.2-.35-1,.4-1.83.95-2.76,1.4s-2.11.82-3.13,1.33a.15.15,0,0,0,.08.28Z"/><path class="cls-11" d="M74.54,60.53c2.79.54,6.1-1.16,8.26-2.79a16.18,16.18,0,0,0,5.55-7.61c.07-.19-.23-.28-.31-.08a15.49,15.49,0,0,1-5.88,7.39c-2.42,1.63-5,1.94-7.62,2.94a.08.08,0,0,0,0,.15Z"/><path class="cls-11" d="M90.22,47.26a15.47,15.47,0,0,0,2.12-1,6.67,6.67,0,0,0,2.09-1.07.16.16,0,0,0-.11-.27,4.38,4.38,0,0,0-2.14.77A7.23,7.23,0,0,0,90.07,47a.15.15,0,0,0,.15.25Z"/><path class="cls-11" d="M91,46.75a10.41,10.41,0,0,0,1.38-.59c.47-.19,1-.33,1.45-.51s.3-.95-.22-.8a6.32,6.32,0,0,0-1.58.74,3.7,3.7,0,0,0-1.18,1c-.07.1.05.22.15.19Z"/><path class="cls-11" d="M94,45.32a2.26,2.26,0,0,0-.29-1.69.42.42,0,0,0-.71,0,.42.42,0,0,0,0,.42c.23.43.29.92.54,1.33a.26.26,0,0,0,.46-.06Z"/><path class="cls-11" d="M93.67,43.38a4.92,4.92,0,0,0-1.52.19,4.42,4.42,0,0,0-1.5.38.32.32,0,0,0,.16.59,4.56,4.56,0,0,0,1.52-.33,5.06,5.06,0,0,0,1.43-.5.18.18,0,0,0-.09-.33Z"/><path class="cls-11" d="M93.3,43.83A12.93,12.93,0,0,0,90,44.3c-.31.11-.28.63.09.61a13.35,13.35,0,0,0,3.28-.81c.14-.05.13-.28,0-.27Z"/><path class="cls-11" d="M89.6,44.47a7.75,7.75,0,0,0-.35,1.85,6.84,6.84,0,0,0-.14,1.86c0,.22.33.16.39,0a7.28,7.28,0,0,0,.28-1.86,7.66,7.66,0,0,0,0-1.85c0-.12-.19-.09-.23,0Z"/><path class="cls-11" d="M89.07,48.7a7,7,0,0,1,1.68-1.91,7.28,7.28,0,0,1,1-.64c.29-.16.56-.23.72-.53a.16.16,0,0,0-.09-.22c-.65-.22-1.52.58-2,1a6.4,6.4,0,0,0-1.57,2.18.14.14,0,0,0,.25.14Z"/><path class="cls-11" d="M90.64,46.52c.48-.35.92-.75,1.39-1.1a5.47,5.47,0,0,0,1.34-1,.35.35,0,0,0-.3-.52,3,3,0,0,0-1.49.91,5,5,0,0,0-1.18,1.44c-.07.14.09.35.24.24Z"/><path class="cls-11" d="M93.07,44.41a5.54,5.54,0,0,0-3.39,1.19.33.33,0,0,0,.32.55,10,10,0,0,0,1.42-.64c.56-.24,1.13-.42,1.71-.61.25-.09.23-.51-.06-.49Z"/><path class="cls-11" d="M90.74,44.83a8.55,8.55,0,0,0-1.11,2.22.52.52,0,0,0,.94.4A8.56,8.56,0,0,0,91.21,45c.07-.28-.33-.47-.47-.2Z"/><path class="cls-11" d="M90.09,45.6A3.18,3.18,0,0,0,89,47.14c-.18.46-.53,1.34-.1,1.74a.18.18,0,0,0,.22,0c.39-.29.32-.86.45-1.3a13.34,13.34,0,0,1,.78-1.78c.06-.13-.07-.32-.22-.22Z"/><path class="cls-11" d="M90.26,45.56c.12-.36.26-.7.37-1.06a.32.32,0,0,0-.62-.17c-.22.61-.39,1.72.12,2.22a.25.25,0,0,0,.42-.11,2.32,2.32,0,0,0,0-.87,3.88,3.88,0,0,1,.1-1.07L90,44.33c-.07.38-.11.78-.15,1.17s.32.26.4.06Z"/><path class="cls-11" d="M91,45.18c.54-.18,1.05-.42,1.6-.56s1.1-.07,1.42-.44a.3.3,0,0,0-.06-.45c-.46-.31-1.17,0-1.64.23a4.59,4.59,0,0,0-1.51.91.19.19,0,0,0,.19.31Z"/><path class="cls-11" d="M93.45,43.57c.14.54.28,1.48.8,1.78a.23.23,0,0,0,.33-.13c.15-.6-.42-1.34-.72-1.82a.22.22,0,0,0-.41.17Z"/><path class="cls-11" d="M93.71,43.35a1.81,1.81,0,0,0,.53,1.6.29.29,0,0,0,.48-.2,1.79,1.79,0,0,0-.88-1.48.11.11,0,0,0-.13.08Z"/><path class="cls-11" d="M93.15,44.73a8.49,8.49,0,0,1-1.22.16c-.59,0-.3.94.18.64A8.61,8.61,0,0,1,93.25,45c.14-.06,0-.26-.1-.24Z"/><path class="cls-11" d="M89.88,44.63c-.06.61.76.62,1.05.24.13-.16,0-.43-.24-.31s-.42,0-.6-.09a.17.17,0,0,0-.21.16Z"/><path class="cls-11" d="M90.06,44.86a2.26,2.26,0,0,0,.82,0,.25.25,0,0,0,0-.47,2.26,2.26,0,0,0-.82,0,.24.24,0,0,0,0,.47Z"/><path class="cls-11" d="M60.67,47.56a4.82,4.82,0,0,0,1.2,0,5.08,5.08,0,0,0,1.24-.16c.15-.06.2-.33,0-.37a4.72,4.72,0,0,0-1.24.09,4.86,4.86,0,0,0-1.2.27c-.06,0-.08.13,0,.14Z"/><path class="cls-11" d="M60.88,47.69a5.38,5.38,0,0,0,2,0,.4.4,0,0,0-.11-.79,5.33,5.33,0,0,0-2,.48.2.2,0,0,0,0,.36Z"/><path class="cls-11" d="M48.94,48.25a.5.5,0,0,0,0-1,.5.5,0,0,0,0,1Z"/><path class="cls-11" d="M48.91,47.74a34.58,34.58,0,0,0,3.9.68,26.43,26.43,0,0,0,3.48.69.31.31,0,0,0,.16-.57,11.81,11.81,0,0,0-7.54-1,.09.09,0,0,0,0,.16Z"/><path class="cls-11" d="M48.76,48.33a22.12,22.12,0,0,0,4,.74c1.19.19,2.38.5,3.58.58.57,0,.59-.75.13-.93A15.32,15.32,0,0,0,48.76,48a.19.19,0,0,0,0,.36Z"/><path class="cls-11" d="M49.52,48.28c-2.52,4.57-3.81,14,2.55,16.31.3.1.44-.33.2-.5C46.35,60,49,54.15,49.66,48.32c0-.08-.1-.1-.14,0Z"/><path class="cls-11" d="M51.39,64.26c.21.36-.27.51-.52.38a2.66,2.66,0,0,1-.55-.56c-.37-.39-.94.19-.59.59s1.21.94,1.81.52c.4-.28.59-.91.09-1.18a.18.18,0,0,0-.24.25Z"/><path class="cls-11" d="M49.63,64.86a6.91,6.91,0,0,0,1.6.56.35.35,0,0,0,.39-.16,1.2,1.2,0,0,0-.42-1.59c-.37-.25-.72.36-.35.6a.5.5,0,0,1,.18.64l.39-.16a7.2,7.2,0,0,0-1.73-.12c-.11,0-.18.17-.06.23Z"/><path class="cls-11" d="M51.24,64.05a11.31,11.31,0,0,0,.46,1.27l.36-.47a4.33,4.33,0,0,1-2.24-.44c-.51-.2-.72.54-.35.81a3.43,3.43,0,0,0,2.69.36.38.38,0,0,0,.23-.55,13.6,13.6,0,0,0-.77-1.2c-.15-.19-.43,0-.38.22Z"/><path class="cls-11" d="M49.59,64.81a2.07,2.07,0,0,0-.43.91,4.68,4.68,0,0,0-.28,1.16.18.18,0,0,0,.33.08,4,4,0,0,0,.37-1.12,1.91,1.91,0,0,0,.12-1,.07.07,0,0,0-.11,0Z"/><path class="cls-11" d="M48.87,64.5a5,5,0,0,0,0,1.81.24.24,0,0,0,.46,0,5,5,0,0,0,0-1.81.19.19,0,0,0-.38,0Z"/><path class="cls-12" d="M57.7,48.23l-1.11,10.4-.19,7.63.65,10.4,1.16,8.1,1.48,7,2.73,8.75,5.08,10.84,3,3.67,4.09,3,3.7,1.87,5.16,1.32,6.38.48,6.72-.75,6.91-2.86,4.88-3.61L109.4,111l1.45-4.06-.4-8.59s.13,8.18-1.5,10.35a35,35,0,0,1-5.51,5L99.25,116l-6.49,1.26-5.09-.39L81.43,115l-3.66-2.62-5.16-5.64-3.29-6.66-2.94-9.93L65,83.92l-1.4-7.56-.56-4.2-.27-3.1-.59-5.44L61.57,59l-.44-5.6-.19-4.6-.58-1.67-1.18.67Z"/><path class="cls-7" d="M57.69,56.38a123.29,123.29,0,0,0,.89,15.48,113.06,113.06,0,0,0,2,14.45c0,.18.35.15.33,0-.55-5-1.59-9.89-2-14.89s-.58-10-.89-15a.14.14,0,1,0-.27,0Z"/><path class="cls-7" d="M88,119.3c5.68,2.14,13.31.82,17.8-3.32a.11.11,0,0,0-.13-.18c-5.74,3.39-11,4.48-17.59,3.23a.14.14,0,0,0-.08.27Z"/><path class="cls-13" d="M65.29,92.22a34.81,34.81,0,0,0,2.86,10.53c1.26,3,2.74,6.5,5.07,8.84.24.25.61-.06.46-.36-1.57-3.24-3.76-6.07-5.15-9.45a75.08,75.08,0,0,1-2.81-9.62.22.22,0,0,0-.43.06Z"/><path class="cls-13" d="M101.31,116.36c3.56.36,8.06-3.46,8.38-7a.35.35,0,0,0-.65-.17c-.8,1.65-1.34,3.15-2.75,4.43s-3.17,1.78-5,2.39a.18.18,0,0,0,0,.36Z"/><path class="cls-13" d="M69.36,112.49c1.18,2.25,3.77,4.91,6.28,5.58.21.06.43-.24.23-.39-1.1-.85-2.34-1.44-3.4-2.36a23.1,23.1,0,0,1-2.75-3.1c-.17-.21-.47.06-.36.27Z"/><path class="cls-13" d="M59.64,48.71a70.75,70.75,0,0,0-.43,13.57c.17,4.47-.12,9.3,1.32,13.59a.49.49,0,0,0,1-.13c-.05-4.51-1.41-8.94-1.64-13.46s.06-9,0-13.53c0-.15-.24-.19-.26,0Z"/><g class="cls-14"><path class="cls-15" d="M68.58,55.64c2.22,2.87,8,3.43,10.71,1.07.13-.11,0-.3-.16-.27a15.14,15.14,0,0,1-5.22.65C72,56.87,70.67,56,69,55.2c-.25-.11-.65.16-.43.44Z"/></g><g class="cls-14"><path class="cls-15" d="M75.45,34.51a8.92,8.92,0,0,1,4.72.87c1.46.75,2.16,1.93,3.25,3a.31.31,0,0,0,.51-.3c-.74-3.32-5.63-4.93-8.52-4-.18.06-.16.36,0,.35Z"/></g><g class="cls-14"><path class="cls-15" d="M103.47,32a1.17,1.17,0,0,0,.84.25.16.16,0,0,0,.11-.26,1.17,1.17,0,0,0-.86-.32.18.18,0,0,0-.09.33Z"/></g><g class="cls-14"><path class="cls-15" d="M62.47,31.12c1.46-.31,2.85-.88,4.29-1.26s2.94-.57,4.37-1a.27.27,0,0,0-.07-.53,18.17,18.17,0,0,0-8.67,2.58.11.11,0,0,0,.08.2Z"/></g><g class="cls-14"><path class="cls-15" d="M87.06,26.72c3.14.27,6.29.4,9.42.73s6.21,1.05,9.33,1.28c.57,0,.64-.8.13-1-5.78-1.78-12.9-2-18.88-1.53a.24.24,0,0,0,0,.48Z"/></g><g class="cls-14"><path class="cls-15" d="M95.44,27.17a.17.17,0,0,0,0-.33.17.17,0,0,0,0,.33Z"/></g><g class="cls-14"><path class="cls-15" d="M52.51,22.89a11.71,11.71,0,0,0,2.81,3.79,14.39,14.39,0,0,0,4,3.35.6.6,0,0,0,.72-.94,44.39,44.39,0,0,0-3.77-3.31,26.46,26.46,0,0,0-3.34-3.19.26.26,0,0,0-.38.3Z"/></g><g class="cls-14"><path class="cls-15" d="M52.5,19c2,.53,4.17.17,6.24.61a23.13,23.13,0,0,1,6.49,2.61A.7.7,0,0,0,65.94,21c-3.27-2.28-9.72-4.55-13.47-2.26a.14.14,0,0,0,0,.25Z"/></g><g class="cls-14"><path class="cls-15" d="M104.66,15c1.1-.64,1.94-1.64,3.09-2.23a8.24,8.24,0,0,1,4.32-.81c.84,0,.82-1.23,0-1.3-2.63-.23-7.09,1.13-7.63,4.17a.15.15,0,0,0,.22.17Z"/></g><g class="cls-14"><path class="cls-15" d="M52.08,35.15c-.43.82-.71,2.25.56,2.51.63.13,1.2-.34,1.69-.65s1.48-.76,1.77-1.44a.31.31,0,0,0-.26-.46,3.82,3.82,0,0,0-2,1c-.25.16-.66.57-1,.6-.74.09-.47-1-.36-1.37.06-.24-.28-.4-.4-.17Z"/></g><g class="cls-14"><path class="cls-15" d="M49.12,46.46a12.68,12.68,0,0,0,4.14.85c1.35.1,3,.32,4.15-.42a.7.7,0,0,0-.16-1.26c-1.12-.46-2.5-.18-3.7-.22s-2.7-.33-4.06-.33c-.68,0-1.08,1.08-.37,1.38Z"/></g><path class="cls-7" d="M50.1,43.94a13.8,13.8,0,0,0,6.71,1,.48.48,0,0,0,0-.92c-2.13-.39-4.38-.4-6.54-.73a.33.33,0,0,0-.17.63Z"/><path class="cls-7" d="M61.37,45.17a.61.61,0,0,0,.61-.11.31.31,0,0,0-.16-.58.6.6,0,0,0-.57.24.28.28,0,0,0,.12.45Z"/><path class="cls-7" d="M89.94,42.34a8.58,8.58,0,0,0,2-.13,5,5,0,0,0,1.58-.38.2.2,0,0,0-.05-.37,5,5,0,0,0-1.63.06,8.39,8.39,0,0,0-2,.4.21.21,0,0,0,.06.42Z"/><path class="cls-15" d="M68.15,65.31a7.24,7.24,0,0,0-2.91,3.85c-.07.23.19.36.38.28l2.16-.93-.4-.4a13.68,13.68,0,0,0-1.85,4.1.31.31,0,0,0,.38.38c.29-.08.58-.18.86-.28a.29.29,0,0,0-.15-.55c-.29.07-.58.14-.87.23l.38.38a14.77,14.77,0,0,1,1.75-4c.17-.27-.15-.52-.4-.4l-2.12,1,.37.29a7.93,7.93,0,0,1,2.52-3.85c.07-.06,0-.18-.1-.13Z"/><path class="cls-15" d="M75.3,74.37A9,9,0,0,0,72.82,80a.27.27,0,0,0,.46.19,5.58,5.58,0,0,1,.56-.53l-.35-.14A1.63,1.63,0,0,0,73.92,81c.14.17.42,0,.31-.24a1.45,1.45,0,0,1-.33-1.23.2.2,0,0,0-.3-.18c-.21.15-.43.29-.65.42l.41.24a11.37,11.37,0,0,1,2.17-5.48c.1-.14-.12-.3-.23-.18Z"/><path class="cls-15" d="M53.74,87.77a10,10,0,0,0-1.25,5.65.25.25,0,0,0,.47.13c.27-.39.54-.78.78-1.19.1-.18-.15-.39-.29-.23-.33.37-.63.77-.93,1.16l.48.13a16,16,0,0,1,1-5.56c0-.13-.15-.2-.22-.09Z"/><path class="cls-15" d="M73.38,89.29A11.69,11.69,0,0,0,72,93.72a.25.25,0,0,0,.46.12,6.65,6.65,0,0,1,.73-.93l-.29-.12c0,.41,0,.81,0,1.22a.2.2,0,0,0,.33.14c.38-.3.75-.59,1.11-.9.16-.13,0-.4-.21-.28-.4.29-.79.6-1.17.9l.33.14c0-.41,0-.81,0-1.22a.17.17,0,0,0-.29-.12,8,8,0,0,1-.87.88l.41.23c.33-1.48.6-3,1.06-4.42a.09.09,0,0,0-.17-.07Z"/><path class="cls-15" d="M51.75,106.31c-.37.74-.55,1.55-.86,2.31a23.91,23.91,0,0,1-1.49,2.78.17.17,0,0,0,.23.23c.93-.52.92-.45.67.57a.1.1,0,0,0,.15.11,12.47,12.47,0,0,0,3.25-3c.13-.16-.15-.38-.28-.22a15.7,15.7,0,0,1-1.58,1.78c-.23.22-.59.69-.89.78l-.36.14a8.75,8.75,0,0,1,.23-.88c0-.1-.08-.17-.17-.13l-1.19.54.2.26A8.49,8.49,0,0,0,52,106.39c0-.14-.21-.22-.28-.08Z"/><path class="cls-15" d="M58.28,109.22a6.8,6.8,0,0,0,.5,4.22.23.23,0,0,0,.41,0,1,1,0,0,1,.69-.78c.14-.06,0-.28-.13-.22a2.6,2.6,0,0,0-1,.83l.41.06a17.31,17.31,0,0,1-.72-4c0-.11-.17-.14-.19,0Z"/><path class="cls-15" d="M59.82,112.34a4.34,4.34,0,0,0,1.12.26.12.12,0,0,0,.06-.22,4.34,4.34,0,0,0-1.12-.26.11.11,0,0,0-.06.22Z"/><path class="cls-15" d="M80.63,61.94A23.44,23.44,0,0,1,78,64.32a.26.26,0,0,0,.11.43,3.53,3.53,0,0,0,1.71,0l-.27-.35a10.31,10.31,0,0,0-1,3.44.2.2,0,0,0,.31.18l1.11-.56c.23-.11,0-.45-.2-.34l-1.12.54.32.18a6.88,6.88,0,0,1,.94-3.2.24.24,0,0,0-.27-.35,2.36,2.36,0,0,1-1.44,0l.11.43a10.5,10.5,0,0,0,2.41-2.61c.06-.1-.09-.22-.17-.13Z"/><path class="cls-15" d="M53.5,52.15a3.84,3.84,0,0,0-1.63,2.41.21.21,0,0,0,.35.2,7.83,7.83,0,0,1,1-.64.14.14,0,0,0-.14-.24,8,8,0,0,1-1.11.53l.26.26a4.3,4.3,0,0,1,1.38-2.33c.1-.09,0-.26-.15-.19Z"/><path class="cls-15" d="M53.25,54.22a9.6,9.6,0,0,0-.72,1.64.15.15,0,0,0,.09.18.84.84,0,0,0,1-.38.09.09,0,0,0-.12-.12,1,1,0,0,1-.8.22l.1.18a10,10,0,0,0,.58-1.67.07.07,0,0,0-.13-.05Z"/><path class="cls-15" d="M62.11,34.8c-.64.53-1.29,1-1.89,1.61-.1.09,0,.22.1.23l.72.08c.15.09.14.21,0,.35s-.23.44-.31.67a4.17,4.17,0,0,0-.26,1.85.09.09,0,0,0,.18,0,1.32,1.32,0,0,1,.74-.79c.06,0,0-.13-.06-.1s-.79.51-.69.58c-.13-.09.07-1,.11-1.11a3.38,3.38,0,0,1,.77-1.46c.06-.06.05-.19,0-.2l-1.08-.16.06.23c.65-.52,1.24-1.09,1.85-1.65.1-.09,0-.23-.15-.15Z"/><path class="cls-15" d="M54.47,39.16c-.43.44-.86.88-1.28,1.33a.17.17,0,0,0,.12.29l1.07,0-.15-.26c-.23.34-.55.92-.12,1.25a.45.45,0,0,0,.74-.18c0-.11-.12-.17-.18-.08h-.35a.3.3,0,0,1,0-.37,1.33,1.33,0,0,1,.23-.44.17.17,0,0,0-.15-.25l-1.07,0,.12.29,1.23-1.38c.11-.13-.07-.32-.19-.19Z"/><path class="cls-15" d="M65.31,22.19a.06.06,0,1,0,0-.12c-.07,0-.07.12,0,.12Z"/><path class="cls-15" d="M65.87,22.19a7.49,7.49,0,0,0-2.69-.57c-.18,0-.2.25,0,.3a7.63,7.63,0,0,0,2.66.52c.12,0,.19-.19.07-.25Z"/><path class="cls-15" d="M63.5,22.16c.21.46.41.92.64,1.37,0,0,.12,0,.1,0-.19-.47-.41-.93-.62-1.4,0-.07-.15,0-.12.07Z"/><path class="cls-15" d="M64.7,23.58a19.65,19.65,0,0,0-2,.2c-.17,0-.2.22-.14.35.21.46.68,1.3,1.26,1.32a.17.17,0,0,0,.15-.2c-.09-.24-.27-.34-.45-.52a2.91,2.91,0,0,1-.55-.84l-.14.35a17.88,17.88,0,0,0,1.92-.46.1.1,0,0,0,0-.2Z"/><path class="cls-15" d="M63.83,25.06A5.38,5.38,0,0,1,61.9,26a.2.2,0,0,0-.11.29c.3.46.66,1,1.26,1a.13.13,0,0,0,.09-.22c-.35-.35-.79-.53-1-1l-.12.29a5.27,5.27,0,0,0,2-.94c.22-.16,0-.51-.2-.36Z"/><path class="cls-15" d="M105.05,15.83a4.33,4.33,0,0,1,1.07-.35,6.51,6.51,0,0,0,1-.15.11.11,0,0,0,0-.2,2.84,2.84,0,0,0-2.22.39c-.21.11,0,.41.18.31Z"/><path class="cls-15" d="M107,15.28a2.83,2.83,0,0,0-1.39,1.7.08.08,0,0,0,.15.06c.2-.28.33-.61.56-.88a3.29,3.29,0,0,1,.8-.69.11.11,0,0,0-.12-.19Z"/><path class="cls-15" d="M106.06,17.13a7.82,7.82,0,0,0,1.45.05l-.12-.3a7.15,7.15,0,0,0-1.18,1,.13.13,0,0,0,.15.2,7.43,7.43,0,0,0,1.27-1c.13-.11,0-.28-.12-.3a8.79,8.79,0,0,0-1.45,0,.13.13,0,0,0,0,.26Z"/><path class="cls-15" d="M106.28,18.25a3.14,3.14,0,0,0,2.46-.11l-.26-.2c-.33.79-1.07,1.37-1.38,2.19-.06.15.16.26.27.15.61-.62.82-1.54,1.4-2.17.1-.1,0-.32-.12-.3-.35.05-.67.17-1,.22a4.65,4.65,0,0,1-1.29,0,.11.11,0,1,0-.06.22Z"/><path class="cls-15" d="M66.89,16.05a8,8,0,0,0,1.45-1.61,10,10,0,0,0,1.47-1.65c.13-.23-.12-.43-.34-.34a5.26,5.26,0,0,0-1.68,1.61,4.56,4.56,0,0,0-1.11,1.83c0,.11.1.24.21.16Z"/><path class="cls-15" d="M104.59,18.51c.31.88.44,1.8.74,2.68a3.39,3.39,0,0,0,1,1.8.29.29,0,0,0,.43-.18,3.37,3.37,0,0,0-.49-2c-.38-.85-.89-1.61-1.26-2.46-.1-.24-.5-.07-.42.17Z"/><path class="cls-15" d="M135.73,56.47A14.52,14.52,0,0,0,137,60.39,29,29,0,0,1,138.32,66c.51,3.61.05,7.06-.21,10.66,0,.21.32.31.4.11a20.27,20.27,0,0,0,1-10.94c-.42-2.92-1.25-7.47-3.77-9.35,0,0,0,0,0,0Z"/><path class="cls-15" d="M92,76.4c-.07-2.53-.47-4.76.11-7.29.51-2.22,1.74-4,2.6-6.06.06-.15-.15-.22-.24-.14-3.4,2.74-4.64,9.7-2.73,13.56A.14.14,0,0,0,92,76.4Z"/><path class="cls-16" d="M55.61,28.1a52.07,52.07,0,0,0-3.21,5.63.19.19,0,0,0,.32.19,53.53,53.53,0,0,0,3-5.76c0-.08-.08-.12-.13-.06Z"/><path class="cls-16" d="M55.45,33.81a5,5,0,0,0-3.24.72,2.32,2.32,0,0,0-.82,2.27A1.58,1.58,0,0,0,53.13,38a3.5,3.5,0,0,0,2.43-2,.18.18,0,0,0-.29-.22,7.72,7.72,0,0,1-1.65,1.48,1.11,1.11,0,0,1-1.75-.93c0-1.83,2.2-2.16,3.58-2.3.13,0,.14-.21,0-.21Z"/><path class="cls-16" d="M53.4,37.4c9.2-4.3,17.75-8.18,28-9.07,10.06-.89,20.14.83,30.15,1.61a.35.35,0,0,0,.3-.52,4,4,0,0,0-4.7-2.44c-.37.06-.21.62.16.56L109.6,29l-2-.2a42.81,42.81,0,0,1-4.89-.48c-3-.29-5.92-.6-8.89-.79a76.2,76.2,0,0,0-15.1.27C70,29,60.41,31.85,53.37,37.35c0,0,0,.07,0,0Z"/><path class="cls-16" d="M53.5,34.42a31.16,31.16,0,0,1,2.75-6.9c.1-.18-.15-.4-.29-.23a12.48,12.48,0,0,0-2.64,7.11c0,.1.16.12.18,0Z"/><path class="cls-16" d="M63.19,18C68.44,9,79,3.33,89.51,5.61s18,11.74,18.86,22.15c0,.31.52.32.5,0C108.08,17,100.5,7.2,89.7,4.89A25,25,0,0,0,62.8,17.78a.23.23,0,0,0,.39.24Z"/><path class="cls-16" d="M102.46,12.84a31.59,31.59,0,0,1,5.46-2.72,46.61,46.61,0,0,1,5.34-1c.27-.06.17-.41-.06-.44-3.63-.46-8.33,1.45-10.88,4a.12.12,0,0,0,.14.19Z"/><path class="cls-16" d="M113.34,8.74c-.83,2.35-1.31,4.77-2.3,7.08s-2.45,4.31-3.54,6.54c-.08.16.12.33.25.2,3.21-3.16,5.73-9.31,5.82-13.79a.12.12,0,0,0-.23,0Z"/><path class="cls-16" d="M65.64,18.23c-5.35-4.67-13.91-4.48-19.9-1.26-.41.22-.05.81.36.61,6.76-3.25,12.81-2.21,19.37.87.13.06.3-.11.17-.22Z"/><path class="cls-16" d="M47.08,16.34a58.28,58.28,0,0,0,6.53,9.58c1.58,2,3.4,4,6,4.71.31.08.55-.4.23-.54-6-2.68-8.18-9.43-12.64-13.85a.08.08,0,0,0-.12.1Z"/><path class="cls-16" d="M57.73,31.67a12.35,12.35,0,0,0,8.48-14.82c-.09-.41-.71-.24-.63.17a12.25,12.25,0,0,1-7.91,14.45c-.12.05-.07.24.06.2Z"/><path class="cls-16" d="M52.22,37.7a12.37,12.37,0,0,0-1.11,3.64.19.19,0,0,0,.36.1,12,12,0,0,0,.93-3.69.1.1,0,0,0-.18,0Z"/><path class="cls-16" d="M59.44,42.65a16.63,16.63,0,0,1-5-.16,24.3,24.3,0,0,1-4.64-1.82c-.26-.11-.6.21-.34.44,2.59,2.23,6.81,2.66,10,1.8.14,0,.12-.27,0-.26Z"/><path class="cls-16" d="M50.07,40.4c-1.64,1.45-3,4.73-2,6.84a.21.21,0,0,0,.38-.05c.18-1.1,0-2.18.27-3.29a10.92,10.92,0,0,1,1.58-3.3.16.16,0,0,0-.25-.2Z"/><path class="cls-16" d="M48.18,47a32.32,32.32,0,0,0,6.34,1.15c1.54.18,3.79.87,5.19,0,2.08-1.32,1.07-3.9.14-5.6-.23-.41-.86,0-.63.37a10.78,10.78,0,0,1,.85,1.82c-.28,2.32-1.23,3.32-2.84,3a13.06,13.06,0,0,1-2.71-.28,55.71,55.71,0,0,0-6.31-.63.11.11,0,0,0,0,.22Z"/><path class="cls-16" d="M60,43.26a2.45,2.45,0,0,0,2.33.16c.28-.15.08-.56-.21-.49a3.42,3.42,0,0,1-2,0,.18.18,0,0,0-.14.32Z"/><path class="cls-16" d="M60.37,46.94a7.32,7.32,0,0,0,1.48,0,1.77,1.77,0,0,0,1.07-.27.19.19,0,0,0,0-.31,1.8,1.8,0,0,0-1.1,0,7.6,7.6,0,0,0-1.44.37.11.11,0,0,0,0,.21Z"/><path class="cls-16" d="M49.22,47.07c-2.78,5.27-4.44,14.38,2,17.77a.34.34,0,0,0,.34-.58c-6.18-4.44-3.41-11-2-17.06,0-.18-.22-.3-.31-.13Z"/><path class="cls-16" d="M48.29,63.1c-.1,9.56.23,18.8-1.2,28.32-1.33,8.92-4.11,17.15-6.62,25.76-.07.26.32.44.44.19,3.82-8.26,5.79-17.74,7.06-26.71s2-18.6.49-27.58c0-.1-.17-.07-.17,0Z"/><path class="cls-16" d="M76.24,134.66a92.45,92.45,0,0,1,2.1-13.85.31.31,0,0,0-.6-.17,37.21,37.21,0,0,0-1.59,14,0,0,0,0,0,.09,0Z"/><path class="cls-16" d="M80.71,115.06a64,64,0,0,1,2.2-6c.71-1.55,1.71-3,2.37-4.53.07-.16-.18-.28-.3-.17-2.49,2.58-4.1,7.2-4.47,10.71,0,.12.16.13.2,0Z"/><path class="cls-16" d="M81.62,106.69c2.38-2.44,4.81-6,5.44-9.45a.16.16,0,0,0-.3-.12c-.88,1.57-1.45,3.31-2.34,4.89s-2,3-3,4.54c-.08.11.09.23.18.14Z"/><path class="cls-16" d="M85.42,104.49c3.8-.49,8.06-2.67,9.92-6.22A.25.25,0,0,0,95,98a27.36,27.36,0,0,1-4.26,3.93,21.06,21.06,0,0,1-5.29,2.46c-.06,0-.06.14,0,.13Z"/><path class="cls-16" d="M84.44,94.08c5.63.3,12.16,6.59,17,9.35,1.55.88,5.37,4,7.48,2.5,3.82-2.8-7-12.37-8.71-13.9-.4-.36-1,.23-.59.59a45,45,0,0,1,7.28,8.06c.61.86,1.17,1.74,1.71,2.65l-3,1.57c-1.4,0-4.09-2.24-5.32-3-4.61-2.7-10.25-8.59-15.86-8a.1.1,0,0,0,0,.19Z"/><path class="cls-16" d="M100.18,92.87c4.6,1.9,11.51,9.58,17,5.83,4.54-3.12,4.46-13,4.51-17.77a.36.36,0,0,0-.72,0c-.41,5.35-.11,18.52-8.27,17.58-4.78-.56-7.56-5.59-12.47-5.83-.12,0-.12.15,0,.19Z"/><path class="cls-16" d="M119.55,93c.09,4.46,4.38,7,8.58,6.3,5.17-.85,9.22-5.72,11.66-10,3.53-6.22,3.51-12.5,3.72-19.42.26-8.87-2.15-14.39-7-21.83-.27-.41-.92,0-.65.37,3.25,5,6.68,10.11,7.1,16.2a81.61,81.61,0,0,1-.29,13.54,27.39,27.39,0,0,1-6.25,14.77c-4,4.71-14.74,10-16.45,0,0-.24-.43-.18-.42.06Z"/><path class="cls-16" d="M129.62,42.5c-11.39-9.67-28.4-1-39.3,4.82-.44.23,0,.9.39.67,5.8-3.12,11.69-6.28,18.14-7.83,7.45-1.8,13.79-.63,20.63,2.52.11,0,.25-.09.14-.18Z"/><path class="cls-16" d="M121,54.33c2.59-1.95,5-4.15,7.37-6.3.56-.5,1.12-1,1.69-1.51a16.55,16.55,0,0,1,1.8-1.45l3.31.75c.93.84.3,3.1-.14,4a12.66,12.66,0,0,1-2.24,2.77c-.32.35.2.87.53.53,1.9-2,5.43-7.48.83-9-1.8-.61-3.34.87-4.57,2-3,2.63-6,5.24-8.71,8.13-.08.08,0,.24.13.17Z"/><path class="cls-16" d="M110.79,53.34c-4.46-.44-10.31-6-14.5-1.87a5.31,5.31,0,0,0,2.92,9,.34.34,0,0,0,.18-.66c-3.28-1.05-5.42-5-2.51-7.78,2.28-2.18,5.21-1,7.66,0,2.08.89,4,1.72,6.27,1.4.09,0,.06-.13,0-.14Z"/><path class="cls-16" d="M98.4,47.85a8.19,8.19,0,0,0-5.2,2.5,2.23,2.23,0,0,0-.8,2,.93.93,0,0,0,1.24.69.2.2,0,0,0,0-.39c-1-.37-.15-1.58.31-2a7.73,7.73,0,0,1,1.4-1.15,10.71,10.71,0,0,1,3.08-1.4.11.11,0,0,0,0-.21Z"/><path class="cls-16" d="M101.06,53.51a1.75,1.75,0,0,0-2.39,2,.21.21,0,0,0,.3.17c4.61-2.29,8.54,3.57,13.31,2.51l-.15-.55C108,59,106.18,54,102.74,53a3.59,3.59,0,0,0-4.33,1.35c-.15.24.22.54.41.31,2.9-3.6,6.37,1,8.7,2.64a5.08,5.08,0,0,0,4.76.91.29.29,0,0,0-.15-.55c-3.35.73-5.76-1.71-8.73-2.63a7.2,7.2,0,0,0-2.39-.38c-.36,0-.81.21-1.16.2a2.4,2.4,0,0,0-.38.12c-.65.28-.14-.15,1.54-1.27.11,0,.15-.12,0-.16Z"/><path class="cls-16" d="M130.42,49.82a3.15,3.15,0,0,0,3.43-1.25.21.21,0,0,0,0-.31c-1.63-1-3.21-.46-4.67.64-2.86,2.17-5.37,5.1-7.94,7.6l.37.37c3.52-3.7,7.52-5.75,12.18-7.64a.21.21,0,0,0-.11-.4c-4.76,1.06-9.13,4.19-12.44,7.67a.26.26,0,0,0,.37.37l5-4.91c.74-.74,1.46-1.52,2.25-2.21a5.72,5.72,0,0,1,2.47-1.54q.45,1.88-.9,1.5c-.06,0-.08.1,0,.11Z"/><path class="cls-16" d="M71.79,32.49c-15.9,2.82-8.7,33.06,7.33,26.57,6.41-2.59,12.68-10.85,9.67-17.88-3.16-7.37-12.33-9.91-19.56-8.42-.52.11-.3.91.22.8,6.15-1.26,13,.35,17,5.47,4.84,6.19.69,14.23-5.26,18C65.44,67,56,37.2,71.88,32.8c.2-.06.11-.34-.09-.31Z"/><path class="cls-16" d="M94.84,44.68c-.49-4.59-2-11.27,3.31-13.87,6.45-3.19,10,4.2,11,9.13a.34.34,0,0,0,.67-.1c-.29-5.24-4.31-11.52-10.36-10.31-6.75,1.35-6.82,10.17-4.93,15.19.05.13.29.12.27,0Z"/><path class="cls-16" d="M88.14,41.1c2.16-.27,4.79-.44,6.78-1.36.24-.11.11-.5-.14-.5-2.17,0-4.63,1-6.67,1.69-.09,0-.08.19,0,.17Z"/><path class="cls-16" d="M89,44.15a29.83,29.83,0,0,0,4.94-1,.39.39,0,0,0-.21-.75A30.45,30.45,0,0,0,89,43.8c-.17.07-.17.37,0,.35Z"/><path class="cls-16" d="M69.74,35.55A12.47,12.47,0,0,0,67.08,52a10.29,10.29,0,0,0,14.13,2.82c4.83-3.07,6-9.83,3.05-14.63-3.16-5.24-9.91-6.5-15.24-4.11-.48.21-.06.91.42.7,4.9-2.15,11.2-1,14.1,3.83s1.32,11.68-4,14.13a9.45,9.45,0,0,1-12.82-4.94c-2.2-5-.55-10.37,3.18-14.07.11-.11,0-.26-.17-.17Z"/><path class="cls-16" d="M73.26,36.19c-.65,2-2.65,5.59-1.63,7.63.43.87,2.34.91,2.65,2.29.17.76-.85,3.42-1,4.19-.35,1.39-.7,2.79-1,4.2a.33.33,0,0,0,.63.17A57.84,57.84,0,0,0,75,46.31c.09-.72.31-1.46-.17-2.08s-.77-.25-1.36-.67c-1.72-1.2-1.27-1.84-.82-3.7.29-1.2.56-2.4.8-3.62a.1.1,0,0,0-.2-.05Z"/><path class="cls-16" d="M76.88,55.65A29.55,29.55,0,0,0,79.67,43.2a.39.39,0,0,0-.39-.38c-5-.14-3.34-3.35-1.36-6.41.29-.43-.41-.84-.7-.4a15,15,0,0,0-2.4,6.41.4.4,0,0,0,.27.48c3.06,1,4,.7,3.54,4.48a42.47,42.47,0,0,1-2,8.15.16.16,0,0,0,.29.12Z"/><path class="cls-16" d="M98.31,32.73c-3.14,2-4.68,7-2.39,10.17.13.19.5.08.41-.17-1.31-3.69-1-7.17,2-9.94,0,0,0-.08,0-.06Z"/><path class="cls-16" d="M96.92,33.83c4.42-2.68,10-.45,10.09,5.09a.29.29,0,0,0,.58,0c.1-5.51-6.5-9.26-10.76-5.2a.07.07,0,0,0,.09.11Z"/><path class="cls-16" d="M99.34,32.6a3.68,3.68,0,0,0-.61,3.1c.27,1.33,2.16,3.45,1.16,4.66-.29.34.18.84.5.5a2.18,2.18,0,0,0,.25-2.54c-.76-1.9-2.16-3.45-1.11-5.61a.11.11,0,0,0-.19-.11Z"/><path class="cls-16" d="M101.34,33.12a2,2,0,0,0-.65,2.37c.47,1.8,2,2.94,1.25,4.94-.1.25.23.36.39.23,2.39-1.94-2.5-5.14-.93-7.47,0,0,0-.1-.06-.07Z"/><path class="cls-16" d="M90.26,61.81C88.85,67,87.54,72.29,86.59,77.57c0,.05.06.07.07,0,1.48-5.16,2.64-10.5,3.67-15.76,0,0-.06-.07-.07,0Z"/><path class="cls-16" d="M93.49,65.45a13.15,13.15,0,0,0-1.81,11,.13.13,0,0,0,.26-.07A15.32,15.32,0,0,1,93.58,65.5a.05.05,0,1,0-.09,0Z"/><path class="cls-16" d="M92.31,78.55c.22.24.32.5.59.68s.34-.1.24-.24-.44-.37-.68-.59-.24,0-.15.15Z"/><path class="cls-16" d="M116.63,64.26a39.47,39.47,0,0,1,.86,7.57c0,.13.21.18.23,0a15.68,15.68,0,0,0-.89-7.67.1.1,0,0,0-.2.06Z"/><path class="cls-16" d="M119.52,64.3a35.46,35.46,0,0,1,.75,7.54c0,.25.35.24.37,0a17.44,17.44,0,0,0-1-7.58.08.08,0,0,0-.15,0Z"/><path class="cls-16" d="M136,55.9a58.94,58.94,0,0,1,2.72,19.6c0,.18.29.23.32,0a34.58,34.58,0,0,0-3-19.67,0,0,0,1,0-.07,0Z"/><path class="cls-16" d="M138.44,77.53c-.05.22-.05.28.11.44a.14.14,0,0,0,.22,0,.35.35,0,0,0,0-.45.17.17,0,0,0-.3,0Z"/><path class="cls-16" d="M137.48,80.55a1.79,1.79,0,0,0,0,1,.17.17,0,0,0,.32,0,1.79,1.79,0,0,0,0-1,.2.2,0,0,0-.38,0Z"/><path class="cls-16" d="M136.93,83.58c0,.13,0,.21,0,.34s.35.22.34,0a2,2,0,0,0,0-.34.14.14,0,0,0-.27,0Z"/><path class="cls-16" d="M136.38,88.31a22.32,22.32,0,0,1-3.68,4.54c-1.08,1-6.13,5.4-7.51,2.48-.06-.13-.26,0-.23.09.65,2.37,3.35,1,4.7.13a21.16,21.16,0,0,0,6.93-7.12.12.12,0,0,0-.21-.12Z"/><path class="cls-16" d="M126.16,89.73A15.2,15.2,0,0,0,128.88,91c.09,0,.15-.11.06-.16a15.85,15.85,0,0,0-2.75-1.16,0,0,0,1,0,0,.07Z"/><path class="cls-16" d="M127.87,87a4.6,4.6,0,0,0,2.18,2.15c.18.08.34-.18.16-.27a4.93,4.93,0,0,1-2.2-2,.08.08,0,0,0-.14.08Z"/><path class="cls-16" d="M116.77,76.71a1.88,1.88,0,0,1,.2.56c0,.41.6.07.33-.14a1.43,1.43,0,0,1-.36-.52c-.06-.1-.22,0-.17.1Z"/><path class="cls-16" d="M117.34,79l-.14.16a.33.33,0,1,0,.47,0l-.14-.16a.14.14,0,0,0-.19,0Z"/><path class="cls-16" d="M117.3,82.39a.31.31,0,0,0,0,.25c0,.06.27.28.1,0a.32.32,0,0,0,.55,0l0,0a.31.31,0,0,0-.26-.46.36.36,0,0,0-.35.36l.19-.25h0l.14.19v-.06c0-.22-.29-.23-.36,0Z"/><path class="cls-16" d="M113.26,87.89c-1.37,1-2.74,2.11-4,3.24-.11.11,0,.32.17.22,1.37-1,2.71-2.15,4-3.29.09-.08,0-.25-.13-.17Z"/><path class="cls-16" d="M114.67,89.93a7.25,7.25,0,0,1-3.91,3.54c-.14.06-.09.27.06.23a6,6,0,0,0,4-3.72c0-.07-.09-.11-.12,0Z"/><path class="cls-16" d="M116.13,91.73A5.26,5.26,0,0,1,115,93.42a6.66,6.66,0,0,1-1.77,1.06c-.09,0-.06.21,0,.2a4,4,0,0,0,3-2.9c0-.07-.09-.13-.12,0Z"/><path class="cls-16" d="M84.28,99.07c-1.17,1.26-2.35,2.49-3.43,3.83-.11.14.08.33.2.2,1.16-1.27,2.21-2.63,3.28-4,0,0,0-.08,0-.05Z"/><path class="cls-16" d="M73,10.47c3.94-1.13,7.15-2.66,11.38-2.59a23.51,23.51,0,0,1,12.4,3.83c.51.33,1-.5.48-.83-6.7-4.27-17.76-6.14-24.32-.5,0,0,0,.1.06.09Z"/><path class="cls-16" d="M99.92,14a.47.47,0,0,0,0-.94.47.47,0,0,0,0,.94Z"/><path class="cls-16" d="M101.43,16.66a.38.38,0,0,0,0-.76.38.38,0,0,0,0,.76Z"/><path class="cls-16" d="M102.94,20.3a.4.4,0,0,0,0-.8.4.4,0,0,0,0,.8Z"/><path class="cls-16" d="M100.93,12.83a26.54,26.54,0,0,1,6-2.64,32.77,32.77,0,0,1,6.56-.39.2.2,0,0,0,0-.39c-4-1.28-9.8.33-12.85,3.15a.17.17,0,0,0,.21.27Z"/><path class="cls-16" d="M106.37,12.72a3.37,3.37,0,0,1,1.73-1.21c.52-.14,1.11,0,1.58-.18a.19.19,0,0,0,0-.31c-.48-.51-1.48-.19-2,.05a3,3,0,0,0-1.53,1.52.12.12,0,0,0,.21.13Z"/><path class="cls-16" d="M49.87,19a20.15,20.15,0,0,1,14,1.45c.37.18.69-.35.32-.56a16.85,16.85,0,0,0-14.39-1.18.15.15,0,0,0,.08.29Z"/><path class="cls-16" d="M52.07,18.47a21.84,21.84,0,0,0,1.43,2.76.25.25,0,0,0,.43-.24,22.5,22.5,0,0,0-1.59-2.68.16.16,0,0,0-.27.16Z"/><path class="cls-16" d="M56.31,23.61c.74,1,2.55,1.62,3.53.6a.14.14,0,0,0-.13-.23,4.48,4.48,0,0,1-1.62.27,2.57,2.57,0,0,1-1.59-.8c-.09-.1-.28,0-.19.16Z"/><path class="cls-16" d="M62.47,23.85a1.92,1.92,0,0,0,.64-.28.12.12,0,0,0-.09-.21,2,2,0,0,0-.64.29.11.11,0,0,0,.09.2Z"/><path class="cls-16" d="M58.35,43.19c1.34-2.36-.61-5.85-3.15-6.32-2-.37-4.74,1.81-3.45,4a.31.31,0,0,0,.57-.24,2.48,2.48,0,0,1,4-2.53A4.09,4.09,0,0,1,58,40.65c.21.84.09,1.69.28,2.53a0,0,0,0,0,.06,0Z"/><path class="cls-16" d="M57.44,49.19A98.57,98.57,0,0,0,57.68,84c1.8,10.16,4.61,22.59,11.75,30.51,10.61,11.77,43.06,10.81,41.33-10.12-.05-.55-.9-.56-.86,0,1,12.27-11.74,17.22-22,16.81-10.88-.43-18.59-5.73-23-15.56-8-17.66-9.1-37.45-7.15-56.45,0-.17-.27-.21-.3,0Z"/><path class="cls-16" d="M60.36,48.1h.3a.1.1,0,0,0,0-.2l-.3,0c-.15,0-.15.24,0,.23Z"/><path class="cls-16" d="M60.66,47.08a177.58,177.58,0,0,0,3.16,32.6c1.75,9.62,3.41,20.7,9.47,28.71,9.77,12.92,28.88,11.65,37.91-1.24.3-.42-.4-.82-.69-.4-5.16,7.34-14,11.46-22.92,9.69-9.72-1.92-15.68-9.54-18.69-18.51-5.46-16.26-6.82-33.86-8-50.85,0-.13-.21-.14-.21,0Z"/><path class="cls-16" d="M59.09,50.7A152.59,152.59,0,0,0,60,75.16c0,.19.33.2.31,0-.42-8.18-.86-16.27-1-24.46a.12.12,0,0,0-.23,0Z"/><path class="cls-16" d="M60.58,79.39a1.19,1.19,0,0,0,0,.65.16.16,0,0,0,.29,0,1.19,1.19,0,0,0,0-.65.17.17,0,0,0-.33,0Z"/><path class="cls-16" d="M61.16,82.72s0,.43-.09.52a.27.27,0,0,0,0,.34l.09.13a.18.18,0,0,0,.31,0l.09-.13a.29.29,0,0,0,0-.34c-.1-.09-.1-.47-.1-.52a.1.1,0,0,0-.21,0Z"/><path class="cls-16" d="M62.07,86.94l0,.1a.26.26,0,0,0-.11.27,1.48,1.48,0,0,1,.1.27.14.14,0,0,0,.27,0,1.43,1.43,0,0,1,.09-.27.23.23,0,0,0-.11-.27l0-.1c0-.12-.19-.12-.2,0Z"/><path class="cls-16" d="M62.64,90.23a5,5,0,0,1-.21.54c-.24.58.93.58.69,0a5,5,0,0,1-.21-.54.14.14,0,0,0-.27,0Z"/><path class="cls-16" d="M63.39,93.29a41.22,41.22,0,0,0,8.22,18.62c.14.17.43,0,.3-.23a54.52,54.52,0,0,1-8.32-18.44c0-.14-.23-.08-.2.05Z"/><path class="cls-16" d="M50.12,70c-.44,10.87-.95,21.22-2.67,32,0,.22.3.33.35.09C50.22,92,51.48,80.44,50.37,70a.13.13,0,0,0-.25,0Z"/><path class="cls-16" d="M46.47,106.59a.32.32,0,0,0,0-.64.32.32,0,0,0,0,.64Z"/><path class="cls-16" d="M45.75,108.6c-.22.36-.55.72-.28,1.14a.24.24,0,0,0,.31.08c.44-.2.36-.7.37-1.11a.22.22,0,0,0-.4-.11Z"/><path class="cls-16" d="M45,111.42l-.14,0a.33.33,0,0,0-.41.23.25.25,0,0,0,0,.17.34.34,0,0,0,.41.24l.14,0a.3.3,0,0,0,0-.57Z"/><path class="cls-16" d="M69.33,118a23.19,23.19,0,0,0-.68,2.7.18.18,0,0,0,.34.09,25.44,25.44,0,0,0,.52-2.74c0-.12-.15-.17-.18,0Z"/><path class="cls-16" d="M75.48,109.36c.78-.55,1.55-1.11,2.3-1.7a6.92,6.92,0,0,0,1.78-1.58.2.2,0,0,0-.22-.29,7.49,7.49,0,0,0-1.92,1.41c-.72.62-1.44,1.25-2.14,1.9-.14.12,0,.38.2.26Z"/><path class="cls-16" d="M74.83,116.58c2.65,1.86,6.76,3.36,10,2.87.18,0,.16-.31,0-.35-1.68-.42-3.42-.45-5.11-.9a47.27,47.27,0,0,1-4.88-1.75c-.08,0-.11.09,0,.13Z"/><path class="cls-16" d="M88.81,119.75l-.06,0a.26.26,0,0,0-.34.09c-.08.18-.17.35,0,.54a.43.43,0,0,0,.58.16c.48-.29.08-.91-.4-.76l.31.31a.38.38,0,0,0,0-.21l-.14.24h0a.18.18,0,0,0,0-.32Z"/><path class="cls-16" d="M92.69,120.16c.24,0,.42.07.66,0s.25-.22.4-.36a.21.21,0,0,0-.1-.35,1.22,1.22,0,0,0-.57,0c-.23.06-.31.23-.51.34s-.13.49.12.45Z"/><path class="cls-16" d="M96.14,119.29a1.71,1.71,0,0,1-.23.13.16.16,0,0,0,0,.28,1.67,1.67,0,0,1,.23.12c.58.35.58-.88,0-.53Z"/><path class="cls-16" d="M73.75,122.78a10.43,10.43,0,0,0-.91,5.53c0,.28.46.28.44,0a12.22,12.22,0,0,1,.64-5.46c0-.1-.13-.17-.17-.07Z"/><path class="cls-16" d="M73.51,131.22a.74.74,0,0,0-.08-.29c-.18-.34-.62-.09-.57.24v.05c0,.42.68.42.65,0Z"/><path class="cls-16" d="M73.32,134.19a1,1,0,0,0-.19-.23.15.15,0,0,0-.18,0,1,1,0,0,0-.18.23c-.38.6.92.6.55,0Z"/><path class="cls-16" d="M68.36,124.43l-.24.11a.18.18,0,0,0,0,.3l.24.12c.58.27.58-.81,0-.53Z"/><path class="cls-16" d="M68.51,128.73h.21a.33.33,0,0,0,.31-.24l0-.11a.27.27,0,0,0-.32-.33l-.12,0a.35.35,0,0,0-.24.32v.2a.11.11,0,0,0,.11.11Z"/><path class="cls-16" d="M81.16,31.28a10.68,10.68,0,0,1,3,1.26,14.68,14.68,0,0,1,2.21,2.39.3.3,0,0,0,.5-.29c-.49-2.22-3.6-3.87-5.7-3.62a.13.13,0,0,0,0,.26Z"/><path class="cls-16" d="M87.54,37.5a.39.39,0,0,0,0-.77.39.39,0,0,0,0,.77Z"/><path class="cls-16" d="M94.18,31a3.59,3.59,0,0,0-3.66,3c-.06.42.55.62.65.18a3.75,3.75,0,0,1,3-3c.09,0,.07-.14,0-.15Z"/><path class="cls-16" d="M91.07,35.88a3.9,3.9,0,0,0-.57.13.21.21,0,0,0,0,.4,3.9,3.9,0,0,0,.57.13.34.34,0,1,0,0-.66Z"/><path class="cls-16" d="M73,31.32A60.25,60.25,0,0,0,81,30.7c.22,0,.17-.4,0-.4a60,60,0,0,0-7.9,1,0,0,0,0,0,0,.05Z"/><path class="cls-16" d="M73.31,26.5c8.36-1.11,16.36-2.05,24.8-1.4.5,0,.5-.74,0-.78-8.23-.64-16.87-.43-24.83,2-.1,0-.09.21,0,.2Z"/><path class="cls-16" d="M109.3,104.16a67,67,0,0,0-.06-6.94c0-.37-.6-.37-.59,0a67.53,67.53,0,0,0,.4,7c0,.16.24.11.25,0Z"/></svg>