<svg id="carracters" xmlns="http://www.w3.org/2000/svg" viewBox="0 0 198.43 35.43"><defs><style>.cls-1{fill:#fff;}.cls-2{fill:#6e6e6e;opacity:0.5;}</style></defs><path d="M178.06,13.25l-.26-3.56H180a.44.44,0,0,1-.34.47.2.2,0,0,0-.16.23l.12,2.66,0,0c.37,0,.74,0,1.11.07a5.77,5.77,0,0,1,3.9,1.89,5,5,0,0,1,1.15,2.67,7,7,0,0,1-.25,3.14,5.34,5.34,0,0,1-3.28,3.36,8.59,8.59,0,0,1-3,.56A.27.27,0,0,0,179,25,9.17,9.17,0,0,1,175,28.85c-.08,0-.15.09-.24,0l-1-1a11,11,0,0,0,2.09-1.35,6.43,6.43,0,0,0,1.57-1.91,7,7,0,0,1-4.81-3.11l1.06-.93a5.58,5.58,0,0,0,1.2,1.37,5.77,5.77,0,0,0,2.94,1.27c.15,0,.2,0,.22-.17a24.5,24.5,0,0,0,.29-2.53c0-1.79-.07-3.59-.12-5.38,0-.12,0-.25,0-.42-.35.07-.69.13-1,.23a9.81,9.81,0,0,0-4.65,3,14.06,14.06,0,0,0-2.29,3.46,4.36,4.36,0,0,0-.34,2.39c.05.46.15.92.22,1.39l-1.38.23c-.11,0-.15,0-.17-.14-.15-.81-.34-1.61-.46-2.42a25.07,25.07,0,0,1-.17-4.5,41.52,41.52,0,0,1,.9-7.28c0-.06,0-.12.06-.2l2,.43a.42.42,0,0,1-.39.32.22.22,0,0,0-.22.21c-.21,1.15-.47,2.29-.61,3.45s-.22,2.48-.3,3.73c0,.38,0,.76,0,1.16A12.08,12.08,0,0,1,178.06,13.25Zm1.37,10.15c.56-.11,1.08-.17,1.58-.3a4.16,4.16,0,0,0,2.72-2,5.05,5.05,0,0,0,.52-3,4.2,4.2,0,0,0-.49-1.65,3.73,3.73,0,0,0-2.67-1.81c-.45-.08-.91-.11-1.38-.16v.35c0,1.37.09,2.74.13,4.12a16.72,16.72,0,0,1-.22,3.53C179.57,22.8,179.5,23.06,179.43,23.4Z"/><path class="cls-1" d="M28.18,13.25l-.27-3.56h2.16a.44.44,0,0,1-.33.47.2.2,0,0,0-.17.23c.05.89.09,1.78.13,2.66,0,0,0,0,0,0,.37,0,.75,0,1.12.07a5.81,5.81,0,0,1,3.9,1.89,4.9,4.9,0,0,1,1.14,2.67,7,7,0,0,1-.25,3.14,5.32,5.32,0,0,1-3.28,3.36,8.53,8.53,0,0,1-3,.56.28.28,0,0,0-.28.18,9.2,9.2,0,0,1-3.93,3.88c-.09,0-.15.09-.25,0-.32-.32-.66-.64-1-1A11,11,0,0,0,26,26.52a6.58,6.58,0,0,0,1.57-1.91,7,7,0,0,1-4.82-3.11l1.06-.93a5.72,5.72,0,0,0,4.14,2.64c.16,0,.21,0,.23-.17a24.46,24.46,0,0,0,.28-2.53c0-1.79-.07-3.59-.11-5.38,0-.12,0-.25,0-.42-.35.07-.69.13-1,.23a9.84,9.84,0,0,0-4.66,3,14.31,14.31,0,0,0-2.28,3.46A4.36,4.36,0,0,0,20,23.74c.05.46.14.92.22,1.39l-1.38.23c-.12,0-.15,0-.17-.14-.16-.81-.34-1.61-.46-2.42A24.18,24.18,0,0,1,18,18.3a41.52,41.52,0,0,1,.9-7.28,1.08,1.08,0,0,1,.06-.2l2,.43a.42.42,0,0,1-.39.32.24.24,0,0,0-.23.21c-.2,1.15-.46,2.29-.61,3.45s-.21,2.48-.3,3.73c0,.38,0,.76,0,1.16A12.08,12.08,0,0,1,28.18,13.25ZM29.54,23.4c.56-.11,1.08-.17,1.59-.3a4.16,4.16,0,0,0,2.71-2,5.05,5.05,0,0,0,.52-3,4,4,0,0,0-.49-1.65,3.73,3.73,0,0,0-2.67-1.81c-.44-.08-.9-.11-1.38-.16v.35c.05,1.37.1,2.74.13,4.12a16.08,16.08,0,0,1-.22,3.53C29.68,22.8,29.62,23.06,29.54,23.4Z"/><path class="cls-2" d="M143.5,13.25l-.27-3.56h2.16a.44.44,0,0,1-.33.47.2.2,0,0,0-.17.23c.05.89.09,1.78.13,2.66,0,0,0,0,0,0,.37,0,.75,0,1.12.07a5.81,5.81,0,0,1,3.9,1.89,4.9,4.9,0,0,1,1.14,2.67,7,7,0,0,1-.25,3.14,5.32,5.32,0,0,1-3.28,3.36,8.53,8.53,0,0,1-3,.56.28.28,0,0,0-.28.18,9.2,9.2,0,0,1-3.93,3.88c-.09,0-.15.09-.25,0-.32-.32-.66-.64-1-1a11,11,0,0,0,2.1-1.35,6.75,6.75,0,0,0,1.57-1.91A7,7,0,0,1,138,21.5l1.06-.93a5.72,5.72,0,0,0,4.14,2.64c.16,0,.21,0,.23-.17a24.46,24.46,0,0,0,.28-2.53c0-1.79-.07-3.59-.11-5.38,0-.12,0-.25,0-.42-.35.07-.69.13-1,.23a9.84,9.84,0,0,0-4.66,3,14.31,14.31,0,0,0-2.28,3.46,4.27,4.27,0,0,0-.34,2.39c.05.46.14.92.21,1.39l-1.37.23c-.12,0-.15,0-.17-.14-.16-.81-.34-1.61-.46-2.42a24.18,24.18,0,0,1-.17-4.5,41.52,41.52,0,0,1,.9-7.28,1.08,1.08,0,0,1,.06-.2l2,.43a.42.42,0,0,1-.39.32.24.24,0,0,0-.23.21c-.2,1.15-.46,2.29-.61,3.45s-.21,2.48-.3,3.73c0,.38,0,.76,0,1.16A12.08,12.08,0,0,1,143.5,13.25Zm1.36,10.15c.56-.11,1.08-.17,1.59-.3a4.16,4.16,0,0,0,2.71-2,5.05,5.05,0,0,0,.52-3,4,4,0,0,0-.49-1.65,3.73,3.73,0,0,0-2.67-1.81c-.44-.08-.9-.11-1.38-.16v.35c.05,1.37.1,2.74.13,4.12a16.08,16.08,0,0,1-.22,3.53C145,22.8,144.94,23.06,144.86,23.4Z"/><path d="M139.05,20.58a5.69,5.69,0,0,0,2.39,2.12,6.67,6.67,0,0,0,2.23.57,6.8,6.8,0,0,0,2.91-.2,4,4,0,0,0,2.72-2.3,5,5,0,0,0,0-3.84,3.5,3.5,0,0,0-2.59-2.15,6.39,6.39,0,0,0-2.35-.12,10.24,10.24,0,0,0-2.45.49,10.48,10.48,0,0,0-4.69,3.51,14.91,14.91,0,0,0-1.7,2.81,4.36,4.36,0,0,0-.29,2.34c0,.43.14.86.22,1.33l-1.55.25c-.14-.76-.3-1.48-.41-2.21A20.61,20.61,0,0,1,133.3,19c.06-1.44.17-2.87.31-4.3.09-1,.26-1.93.4-2.92l-.67.6c-.24.21-.24.21-.46,0l-.62-.7c.07-.14.13-.16.24,0s.32.37.52.59c0-.34.08-.63.11-.92.1-1,.21-1.93.31-2.89,0-.15.08-.17.21-.09l-.43,3.88c.31-.11.43-.53.84-.52l.2-.87,2.05.44a.43.43,0,0,1-.41.33c-.13,0-.18.07-.2.18-.18.9-.41,1.8-.52,2.72-.18,1.46-.28,2.94-.39,4.42,0,.39,0,.79,0,1.23l.1-.16a12.15,12.15,0,0,1,6.8-6.22,12,12,0,0,1,2.79-.56,7.17,7.17,0,0,1,3.69.53,4.84,4.84,0,0,1,3,4.1,6.6,6.6,0,0,1-.45,3.54,5.37,5.37,0,0,1-3.44,3,7.31,7.31,0,0,1-3,.42,9.91,9.91,0,0,1-3.13-.63,6.82,6.82,0,0,1-3-2.45l-.12-.2Z"/><path d="M136.09,22.24l-.5.21c0-.09,0-.19,0-.2.26-.13.52-.24.79-.36l.21.71-.16.07-.15-.39a4.32,4.32,0,0,0,.81,4.87l-.4-.19-2-1c-.13-.06-.19-.12,0-.24l1.77.9A4.36,4.36,0,0,1,136.09,22.24Z"/><path d="M177.12,11.13l.53-.7.16.1c-.23.31-.44.6-.66.88a.23.23,0,0,1-.21,0c-.31-.21-.61-.44-.9-.66.05-.15.12-.16.23-.07l.63.47-.37-3.93c.14-.09.19,0,.2.1.05.54.1,1.08.16,1.62l.18,2S177.1,11.05,177.12,11.13Z"/></svg>