<?xml version="1.0" encoding="utf-8"?>
<!-- Generator: Adobe Illustrator 24.1.2, SVG Export Plug-In . SVG Version: 6.00 Build 0)  -->
<svg version="1.1" id="illustration" xmlns="http://www.w3.org/2000/svg" xmlns:xlink="http://www.w3.org/1999/xlink" x="0px"
	 y="0px" viewBox="0 0 198.4 141" style="enable-background:new 0 0 198.4 141;" xml:space="preserve">
<style type="text/css">
	.st0{fill:#6A979E;}
	.st1{fill:#010101;}
	.st2{fill:#CDB46E;}
	.st3{opacity:0.51;}
	.st4{fill:#6A979E;stroke:#010101;stroke-width:0.25;stroke-miterlimit:10;}
	.st5{fill:#FFFFFF;stroke:#010101;stroke-width:0.25;stroke-miterlimit:10;}
	.st6{fill:#CDB46E;stroke:#010101;stroke-width:0.25;stroke-miterlimit:10;}
	.st7{fill:#90A3A5;stroke:#010101;stroke-width:0.25;stroke-miterlimit:10;}
	.st8{fill:none;stroke:#010101;stroke-width:0.25;stroke-miterlimit:10;}
	.st9{fill:#FFFFFF;}
	.st10{font-family:'Algerian';}
	.st11{font-size:8.21px;}
</style>
<circle class="st0" cx="100.4" cy="71.6" r="51.6"/>
<path class="st1" d="M150,86.1c8-27.4-7.7-56.1-35.1-64.2c-14.8-4.3-30.8-1.8-43.6,6.9c-23.6,16.1-29.8,48.2-13.7,71.8
	c8.7,12.8,22.6,21,38,22.4C120.1,125.4,143,109.6,150,86.1c0-0.1,0-0.2-0.1-0.2c0,0-0.1,0-0.1,0.1c-8,27.3-36.6,42.9-63.9,35
	S43,84.4,51,57.1c2.7-9.1,7.7-17.2,14.7-23.6c16.2-14.5,39.6-17.5,58.9-7.4C146,37.5,156.4,62.9,149.8,86
	C149.7,86.2,150,86.3,150,86.1z"/>
<circle class="st2" cx="98.2" cy="79.1" r="51.6"/>
<path class="st1" d="M147.8,93.7c8-27.4-7.7-56.1-35.1-64.2c-14.8-4.4-30.9-1.8-43.6,6.9c-23.6,16.1-29.8,48.2-13.7,71.8
	c8.7,12.8,22.6,21,38,22.4C117.8,133,140.8,117.1,147.8,93.7c0.1-0.2-0.2-0.2-0.2-0.1c-8,27.3-36.6,42.9-63.8,35S40.8,92,48.8,64.7
	c2.6-9.1,7.7-17.2,14.7-23.6c16.2-14.5,39.6-17.5,58.9-7.4c21.4,11.4,31.8,36.7,25.2,59.9C147.5,93.8,147.8,93.8,147.8,93.7z"/>
<g class="st3">
	<circle class="st0" cx="98.5" cy="79" r="48.9"/>
	<path class="st1" d="M145.5,92.7c7.6-26-7.3-53.2-33.3-60.8c-14.1-4.1-29.4-1.7-41.5,6.7c-22.3,15.3-28,45.8-12.6,68.1
		c8.3,12.1,21.7,19.9,36.3,21.1C117.4,129.8,138.9,114.8,145.5,92.7c0-0.2-0.2-0.2-0.2-0.1c-7.6,25.8-34.6,40.7-60.5,33.1
		S44.1,91.2,51.7,65.3c2.5-8.6,7.4-16.4,14-22.4c15.2-13.7,37.4-16.5,55.6-7.1c20.4,10.7,30.3,34.8,24,56.8
		C145.2,92.8,145.5,92.9,145.5,92.7z"/>
</g>
<path class="st1" d="M145.2,92.9c7.6-26-7.3-53.2-33.3-60.8c-14.1-4.1-29.4-1.7-41.5,6.7c-22.3,15.3-28,45.8-12.7,68.1
	C66,119,79.4,126.8,94.1,128C117.1,130,138.6,115,145.2,92.9c0.1-0.1-0.2-0.2-0.2,0c-7.6,25.8-34.7,40.6-60.5,33
	c-25.8-7.6-40.6-34.7-33-60.5c2.5-8.6,7.3-16.3,13.9-22.3C80.6,29.3,102.8,26.5,121,36c20.4,10.7,30.3,34.8,24,56.8
	C145,92.9,145.1,92.9,145.2,92.9C145.2,92.9,145.2,92.9,145.2,92.9z"/>
<path class="st4" d="M116,15.6c0,0-1.6,0.1-2.2,3.3c-0.4,1.5-0.6,2.9-0.8,4.4c0,0.6,0.5,1.6,1.1,1.8c0.8,0.3,1.7,0.1,2.4-0.4
	c0.7-0.6,1.3-4.1,1.6-5.4S118.3,15.6,116,15.6z"/>
<circle class="st5" cx="116.1" cy="18.4" r="1.2"/>
<rect x="91.5" y="74.3" transform="matrix(0.281 -0.9597 0.9597 0.281 -7.0068 151.7374)" class="st6" width="12.5" height="12.5"/>
<polygon class="st7" points="114.1,71.6 99.5,74.5 88.8,64.2 91.8,78.8 81.4,89.5 96.3,86.6 106.7,96.9 103.8,82.4 "/>
<polygon class="st6" points="108.8,42.8 105.5,76.3 114.4,85.4 102,88.3 91,103.2 90,84.8 81.8,75.9 93.5,72.8 "/>
<circle class="st6" cx="97.8" cy="80.5" r="9.4"/>
<polyline class="st8" points="108.7,31 109.5,40.3 114.7,32.9 "/>
<polyline class="st8" points="81.2,124.8 87,117.5 87.3,126.6 "/>
<polyline class="st8" points="145.8,91.3 136.5,92.2 144,97.4 "/>
<polyline class="st8" points="50.2,70 59.5,69.1 52,63.9 "/>
<path class="st1" d="M116.3,70.9c8.4-5,16.9-10.1,25.3-15.1c0.1-0.1,0-0.3-0.1-0.2c-8.4,5-16.8,10.1-25.2,15.2
	C116.1,70.8,116.2,70.9,116.3,70.9z"/>
<path class="st1" d="M87.4,61.8c-2.2-4.3-5-8.3-7.5-12.3l-7.6-12.2c-0.2-0.3-0.6,0-0.4,0.2l7.6,12.2c2.5,4,4.9,8.3,7.8,12.1
	C87.3,62,87.4,61.9,87.4,61.8z"/>
<path class="st1" d="M55.7,103.1C61.6,100,67,95.7,72.5,92c0.1-0.1,0-0.3-0.1-0.2C66.8,95.5,60.8,98.9,55.7,103.1
	C55.7,103.1,55.7,103.2,55.7,103.1L55.7,103.1z"/>
<path class="st1" d="M116.7,124.2c-1.6-5.2-3.7-10.2-5.7-15.2c-0.1-0.3-0.5-0.2-0.4,0.1c1.8,5.1,3.7,10.3,6,15.2
	C116.5,124.4,116.7,124.3,116.7,124.2L116.7,124.2z"/>
<path class="st1" d="M59.5,109.1c0.5-0.5,1-1.1,1.5-1.6c0.1-0.1,0-0.2-0.1-0.1C60.4,108,59.9,108.5,59.5,109.1
	C59.4,109.1,59.4,109.1,59.5,109.1C59.4,109.1,59.4,109.1,59.5,109.1z"/>
<path class="st1" d="M66.3,116c0.6-0.3,1.1-0.7,1.5-1.1c0,0,0-0.1-0.1-0.1c-0.6,0.3-1.1,0.7-1.6,1.1C66.2,115.9,66.3,116.1,66.3,116
	z"/>
<path class="st1" d="M49.7,77.3c0.8,0,1.6,0,2.3-0.1c0.2,0,0.2-0.3,0-0.3c-0.8,0-1.6,0.1-2.3,0.3C49.6,77.2,49.6,77.3,49.7,77.3
	L49.7,77.3z"/>
<path class="st1" d="M50.8,90.4c0.5-0.1,0.9-0.3,1.3-0.5l1.5-0.6c0.2-0.1,0-0.3-0.2-0.3L52,89.7C51.5,89.9,51.1,90.1,50.8,90.4
	C50.7,90.3,50.7,90.4,50.8,90.4z"/>
<path class="st1" d="M55.5,55.5c1.1,0.5,2.2,1,3.4,1.4c0.2,0.1,0.3-0.3,0.1-0.3c-1.1-0.4-2.3-0.9-3.4-1.3
	C55.5,55.3,55.5,55.4,55.5,55.5C55.5,55.4,55.5,55.5,55.5,55.5z"/>
<path class="st1" d="M63.1,45.1c0.7,0.7,1.4,1.4,2.1,2.1l0.1-0.2c-0.1,0.1-0.3,0.1-0.4,0.3c-0.1,0.1,0,0.2,0.1,0.2
	c0.1,0,0.3-0.1,0.4-0.2c0.1,0,0.1-0.1,0-0.2c0,0,0,0,0,0c-0.7-0.7-1.5-1.3-2.2-2c0,0-0.1,0-0.1,0S63.1,45.1,63.1,45.1L63.1,45.1z"/>
<path class="st1" d="M84.9,32.3c0.5,0.8,1.1,1.5,1.7,2.3c0,0.1,0.1,0.1,0.2,0.1s0.1-0.1,0.1-0.2c0,0,0,0,0,0
	c-0.6-0.7-1.2-1.5-1.8-2.2C85,32,84.8,32.1,84.9,32.3z"/>
<path class="st1" d="M98,30.4c-0.1,0.9-0.2,1.8-0.1,2.7c0,0.1,0.1,0.1,0.2,0c0.2-0.9,0.2-1.8,0.2-2.7C98.2,30.4,98.1,30.3,98,30.4
	C98,30.4,98,30.4,98,30.4z"/>
<path class="st1" d="M126.1,39.2c-0.3,0.4-0.5,0.8-0.8,1.2c-0.3,0.4-0.5,0.8-0.7,1.3c0,0,0,0.1,0.1,0.1c0,0,0,0,0.1,0
	c0.3-0.4,0.6-0.8,0.8-1.3C125.7,40.1,126,39.7,126.1,39.2L126.1,39.2z"/>
<path class="st1" d="M133.5,45.5c-0.6,0.5-1.2,1-1.8,1.5c-0.1,0.1,0,0.2,0.1,0.1c0.6-0.5,1.3-1,1.8-1.5
	C133.7,45.5,133.6,45.4,133.5,45.5L133.5,45.5z"/>
<path class="st1" d="M144.6,64.8c-1.4,0.5-2.8,1.1-4.1,1.6c-0.1,0-0.1,0.1-0.1,0.1c0,0.1,0.1,0.1,0.1,0.1c0,0,0,0,0.1,0
	C142,66,143.3,65.5,144.6,64.8L144.6,64.8L144.6,64.8z"/>
<path class="st1" d="M146.7,77.8c-1,0.3-2.1,0.7-3.1,1.1c-0.2,0.1-0.1,0.3,0.1,0.3c1-0.4,2-0.8,3.1-1.2
	C146.8,77.9,146.8,77.8,146.7,77.8L146.7,77.8z"/>
<path class="st1" d="M139.6,105.2c-0.4-0.3-0.7-0.7-1-1c-0.2-0.3-0.5-0.5-0.9-0.7c-0.1,0-0.1,0-0.1,0.1c0,0,0,0.1,0,0.1
	c0.2,0.3,0.5,0.6,0.9,0.8l1.1,0.8C139.6,105.3,139.7,105.3,139.6,105.2L139.6,105.2z"/>
<path class="st1" d="M129.5,116.3c-0.8-0.9-1.7-1.7-2.4-2.6c-0.2-0.2-0.5,0.1-0.3,0.3C127.7,114.8,128.5,115.7,129.5,116.3
	c-0.1,0.1,0,0.1,0,0.1C129.5,116.4,129.5,116.4,129.5,116.3L129.5,116.3L129.5,116.3z"/>
<path class="st1" d="M95.8,127.4c0-1.2,0-2.3-0.1-3.5c0-0.3-0.4-0.3-0.4,0c0.1,1.2,0.2,2.3,0.3,3.5c0,0.1,0,0.1,0.1,0.1
	S95.8,127.5,95.8,127.4z"/>
<path class="st1" d="M104.5,127.3c-0.2-1-0.4-2.1-0.6-3.1c0-0.2-0.4-0.1-0.3,0.1c0.3,1,0.4,2.1,0.7,3.1
	C104.3,127.4,104.5,127.3,104.5,127.3L104.5,127.3z"/>
<path class="st1" d="M106.5,49.8c-1.9,6-3.4,12.3-4.8,18.5 M101.7,68.3c1.8-6.1,3.5-12.3,4.8-18.5c0,0-0.1-0.1-0.1,0L101.7,68.3z"/>
<path class="st1" d="M84.3,76.6c1,0.4,2.1,0.7,3.2,0.9c0.1,0,0.1-0.1,0-0.2c-1-0.4-2.1-0.8-3.2-1c-0.1,0-0.1,0-0.1,0.1
	S84.2,76.6,84.3,76.6L84.3,76.6z"/>
<path class="st1" d="M107.8,83.8c0.5,0.2,0.9,0.3,1.4,0.5c0.5,0.2,1.1,0.3,1.6,0.4c0.1,0,0.2-0.1,0.1-0.2
	C109.9,84.1,108.9,83.8,107.8,83.8C107.8,83.7,107.8,83.8,107.8,83.8L107.8,83.8z"/>
<path class="st1" d="M94.3,91c-0.5,1.6-0.9,3.3-1.3,4.9c0,0.1,0,0.1,0.1,0.1c0.1,0,0.1,0,0.1-0.1c0.4-1.6,0.9-3.3,1.3-5
	c0,0,0-0.1-0.1-0.1C94.3,90.9,94.3,90.9,94.3,91L94.3,91z"/>
<path class="st1" d="M97.5,73.2C94.8,73,92.2,74.5,91,77c0,0.1,0,0.1,0,0.2c0.1,0,0.1,0,0.2,0c1.4-2.2,3.7-3.6,6.3-3.8
	c0,0,0.1,0,0.1-0.1C97.6,73.2,97.6,73.2,97.5,73.2L97.5,73.2z"/>
<path class="st1" d="M90.6,79.2c-0.2,0-0.3,0.1-0.4,0.3c0,0,0,0.1,0,0.1c0,0,0.1,0,0.1,0c0.2,0,0.3-0.1,0.4-0.2
	C90.7,79.3,90.7,79.3,90.6,79.2C90.6,79.2,90.6,79.2,90.6,79.2z"/>
<path class="st1" d="M90.1,81.6v0.2c0,0.1,0.1,0.1,0.1,0.1c0,0,0.1,0,0.1-0.1l0.1-0.1C90.5,81.4,90.2,81.3,90.1,81.6L90.1,81.6z"/>
<path class="st1" d="M90.9,84.1l0.2,0.1c0.1,0.1,0.2-0.2,0.1-0.2h-0.2C90.9,84,90.8,84.1,90.9,84.1L90.9,84.1z"/>
<path class="st1" d="M93.4,87.2c2.3,1.7,5.5,1.9,7.9,0.3 M101.3,87.4c-2.5,1.2-5.4,1.1-7.8-0.4c-0.1,0-0.2,0.1-0.1,0.1L101.3,87.4z"
	/>
<path class="st1" d="M102.5,75c2.1,1.4,3,4.1,2.2,6.5c0,0.1,0.2,0.2,0.2,0.1c1-2.5,0-5.4-2.3-6.7C102.5,74.9,102.5,74.9,102.5,75
	C102.5,75,102.5,75,102.5,75z"/>
<path class="st1" d="M97.1,78c-1,0.1-1.7,1-1.5,2c0,0.4,0.2,0.7,0.5,1c0.1,0.1,0.3,0,0.2-0.1c-0.6-0.7-0.5-1.7,0.2-2.3
	c0.2-0.2,0.5-0.3,0.8-0.4C97.2,78.1,97.2,78,97.1,78L97.1,78z"/>
<path class="st1" d="M99.1,78.9c0.5,0.3,0.7,0.9,0.7,1.5c0,0,0.1,0.1,0.1,0c0,0,0,0,0,0c0.2-0.7-0.1-1.4-0.8-1.7c0,0-0.1,0-0.1,0.1
	C99,78.8,99.1,78.9,99.1,78.9L99.1,78.9z"/>
<path class="st1" d="M98,81.9c0.3-0.2,0.7-0.3,1-0.5c0,0,0.1-0.1,0-0.1s-0.1-0.1-0.1,0l0,0c-0.3,0.2-0.7,0.4-1,0.6
	c0,0-0.1,0-0.1,0.1C97.9,81.9,97.9,81.9,98,81.9C98,81.9,98,81.9,98,81.9L98,81.9z"/>
<path class="st1" d="M98.1,75.4c-2.3,0.1-4.2,1.8-4.4,4.1c-0.1,2.3,1.3,4.4,3.5,5c0.2,0.1,0.3-0.3,0.1-0.3c-2.2-0.6-3.6-2.8-3.2-5.1
	c0.4-2.1,2.2-3.1,4.1-3.6C98.1,75.5,98.1,75.5,98.1,75.4C98.1,75.4,98.1,75.4,98.1,75.4z"/>
<path class="st1" d="M102.1,80.1c0.3,1.1-0.1,2.2-0.8,2.9c-0.1,0.1,0,0.2,0.1,0.1c1-0.7,1.3-2,0.9-3.1C102.2,80,102.1,80,102.1,80.1
	L102.1,80.1z"/>
<path class="st1" d="M102.8,38.9c-14.1-0.2-27.3,6.7-35.1,18.4c-0.1,0.1,0.1,0.2,0.1,0.1c8.1-11.3,21.1-18.1,35-18.3
	C102.9,39.1,102.9,39,102.8,38.9C102.9,39,102.9,38.9,102.8,38.9z"/>
<path class="st1" d="M133.4,86.3c-4.3,8-11.2,14.3-19.6,17.8c-0.1,0,0,0.2,0,0.1c8.7-3,15.9-9.5,19.8-17.8
	C133.5,86.3,133.4,86.2,133.4,86.3L133.4,86.3z"/>
<path class="st1" d="M63.9,87.9c2.4,9.6,9.7,17.9,19.2,20.8c0.1,0,0.2-0.1,0-0.2c-9.4-3.3-16.5-11.1-19.1-20.7
	C64.1,87.8,63.9,87.9,63.9,87.9L63.9,87.9z"/>
<path class="st1" d="M123.2,47.1c7.1,5.9,10,14.6,8.9,23.6c0,0.1,0.2,0.2,0.2,0c2-8.8-2-18.4-9-23.8C123.2,46.8,123.1,47,123.2,47.1
	L123.2,47.1z"/>
<path class="st1" d="M79.4,27.6c6.1-3.6,12.6-4.7,19.5-4.3c0.1,0,0.1-0.1,0-0.2C92.2,22,85.1,23.9,79.4,27.6
	C79.4,27.5,79.4,27.6,79.4,27.6L79.4,27.6z"/>
<path class="st1" d="M112.4,23c-0.9-0.1-1.8-0.1-2.8,0c-0.1,0-0.1,0-0.1,0.1s0,0.1,0.1,0.1C110.5,23.2,111.5,23.2,112.4,23
	C112.4,23.1,112.4,23,112.4,23L112.4,23z"/>
<path class="st1" d="M117.3,24.4c0.5,0.3,1.1,0.5,1.7,0.7c0,0,0,0,0-0.1C118.5,24.7,117.9,24.5,117.3,24.4
	C117.2,24.3,117.2,24.4,117.3,24.4L117.3,24.4z"/>
<path class="st1" d="M116,22.3c0.1,0.9-0.5,1.7-1.4,1.8c-0.2,0-0.3,0-0.5,0c-0.2-0.1-0.3,0.3-0.1,0.3c1,0.2,2-0.5,2.2-1.5
	c0-0.2,0-0.4,0-0.6C116.2,22.2,116,22.2,116,22.3L116,22.3z"/>
<path class="st1" d="M132.4,35.3c3.9,3.5,7.4,7.5,10.4,11.8c0.1,0.1,0.2,0,0.2-0.1c-2.8-4.5-6.3-8.5-10.4-11.9
	C132.5,35,132.3,35.2,132.4,35.3z"/>
<path class="st1" d="M147.1,58.3c2,3.3,3.6,6.9,4.7,10.6c0,0,0,0.1,0.1,0.1c0,0,0.1,0,0.1-0.1c-0.9-3.8-2.4-7.4-4.6-10.6
	C147.2,58.2,147,58.3,147.1,58.3L147.1,58.3z"/>
<path class="st1" d="M58.8,43.4c4.4-5.3,9.9-9.6,16.2-12.5c0.1,0,0-0.2-0.1-0.1C68.6,33.5,63,37.8,58.8,43.4
	C58.8,43.3,58.8,43.4,58.8,43.4L58.8,43.4z"/>
<path class="st1" d="M130.1,33.7c0.1,0,0.2-0.1,0.2-0.2c0-0.1-0.1-0.2-0.2-0.2s-0.2,0.1-0.2,0.2C129.9,33.7,130,33.7,130.1,33.7z"/>
<path class="st1" d="M127,31.5c-0.1,0-0.3,0.1-0.4,0.1c-0.1,0,0,0.1,0,0.1c0.1,0,0.3,0,0.4,0C127.2,31.8,127.1,31.5,127,31.5
	L127,31.5z"/>
<path class="st1" d="M124.2,29.9L124,30c0,0,0,0.1,0,0.1c0,0,0.1,0,0.1,0l0.2-0.1C124.4,30,124.3,29.8,124.2,29.9L124.2,29.9z"/>
<path class="st1" d="M144.4,49.3v0.2c0,0.1,0.1,0.1,0.2,0l0.1-0.1c0-0.1,0-0.1-0.1-0.1C144.5,49.1,144.4,49.2,144.4,49.3L144.4,49.3
	z"/>
<path class="st1" d="M83.6,28.4c2-0.3,4-0.8,6-1.4c0,0,0.1,0,0.1,0c0,0,0-0.1,0-0.1c0,0,0,0,0,0C87.6,27.3,85.6,27.8,83.6,28.4
	C83.7,28.4,83.7,28.4,83.6,28.4L83.6,28.4z"/>
<path class="st1" d="M73.3,29.8c2-2.7,4.7-4.7,7.9-5.8c0.2-0.1,0.1-0.3-0.1-0.3c-3.3,0.9-6.2,3-8,5.9C73,29.8,73.2,29.9,73.3,29.8
	L73.3,29.8z"/>
<path class="st1" d="M99.7,21.7c2.2,0,4.5,0.1,6.7,0.1c0,0,0.1-0.1,0.1-0.1c0,0,0,0-0.1-0.1c-2.2-0.1-4.5,0-6.7,0
	C99.7,21.6,99.7,21.6,99.7,21.7C99.6,21.7,99.6,21.7,99.7,21.7C99.7,21.7,99.7,21.7,99.7,21.7z"/>
<path class="st1" d="M106,25c2.3,0.4,4.7,0.9,7,1.3c0.1,0,0.1-0.1,0-0.1c-2.3-0.5-4.7-0.9-7-1.3C105.9,24.9,105.9,25,106,25z"/>
<path class="st1" d="M115,28c4.3,1,8.3,3,11.8,5.8c0.2,0.2,0.5-0.1,0.3-0.3c-3.4-2.9-7.6-4.9-12-5.7C114.9,27.8,114.8,28,115,28
	L115,28z"/>
<path class="st1" d="M143.3,50.2c1,1.8,2.1,3.5,3.4,5.2c0,0,0.1,0,0.1,0c0,0,0-0.1,0-0.1c-1-1.8-2.1-3.5-3.4-5.2
	c0,0-0.1-0.1-0.1-0.1C143.3,50.1,143.2,50.1,143.3,50.2C143.2,50.2,143.3,50.2,143.3,50.2z"/>
<path class="st1" d="M102.4,67.8c-1.1,1.2-2.2,2.4-3.2,3.7c0,0,0,0.1,0,0C100.3,70.3,101.3,69,102.4,67.8L102.4,67.8L102.4,67.8z"/>
<path class="st1" d="M100.1,69c-0.6,0.7-1.2,1.5-1.7,2.3c0,0,0,0.1,0.1,0.1C99.1,70.6,99.6,69.8,100.1,69
	C100.2,69,100.2,69,100.1,69L100.1,69z"/>
<path class="st1" d="M98,69.1c-0.6,0.8-1.3,1.5-1.9,2.4c0,0,0,0.1,0.1,0.1C96.9,70.8,97.4,69.9,98,69.1C98.1,69.1,98.1,69,98,69.1z"
	/>
<path class="st1" d="M96.4,69.5c-0.5,0.7-1,1.4-1.5,2.2c0,0.1,0,0.1,0.1,0.1C95.5,71,96,70.3,96.4,69.5
	C96.5,69.5,96.4,69.4,96.4,69.5z"/>
<path class="st1" d="M95.3,70c-0.5,0.6-1,1.3-1.4,2 M93.9,72c0.5-0.6,1-1.3,1.4-2c0.1-0.1,0-0.1-0.1-0.1L93.9,72z"/>
<path class="st1" d="M90.1,74c-0.6,0.5-1.1,1-1.6,1.6c-0.5,0.5-1,1.1-1.6,1.6c0,0,0,0.1,0,0.1c0.6-0.6,1.1-1.1,1.7-1.7
	C89.1,75.1,89.7,74.6,90.1,74C90.1,74,90.1,73.9,90.1,74L90.1,74z"/>
<path class="st1" d="M87.7,74.8c-1,0.8-2,1.6-2.9,2.4c0,0,0,0.1,0.1,0.1C85.9,76.5,86.9,75.7,87.7,74.8
	C87.9,74.8,87.8,74.8,87.7,74.8z"/>
<path class="st1" d="M85.2,75.3c-0.8,0.6-1.5,1.1-2.3,1.7c0,0,0,0.1,0.1,0.1C83.8,76.5,84.5,75.9,85.2,75.3
	C85.3,75.4,85.3,75.3,85.2,75.3L85.2,75.3z"/>
<path class="st1" d="M84,75.3c-0.5,0.3-0.9,0.6-1.3,1c0,0,0,0,0,0.1c0,0,0,0,0.1,0C83.2,76,83.6,75.7,84,75.3
	C84.1,75.3,84,75.2,84,75.3L84,75.3z"/>
<path class="st1" d="M111.9,85c-0.9,0.5-1.8,1.2-2.6,1.8c0,0,0,0.1,0.1,0.1c0.9-0.5,1.8-1.1,2.6-1.8C112,85.1,112,85,111.9,85
	C111.9,85,111.9,85,111.9,85z"/>
<path class="st1" d="M109.5,84.8c-0.7,0.6-1.6,1.1-2.2,1.8c0,0,0,0.1,0.1,0.1C108.2,86.2,108.9,85.5,109.5,84.8
	C109.7,84.9,109.6,84.8,109.5,84.8z"/>
<path class="st1" d="M107.9,84.5c-0.8,0.7-1.6,1.4-2.4,2.2c0,0,0,0.1,0.1,0.1C106.4,86.1,107.2,85.3,107.9,84.5
	C108,84.6,108,84.5,107.9,84.5L107.9,84.5z"/>
<path class="st1" d="M106.9,84.4c-0.3,0.4-0.7,0.7-1,1.1c0,0,0,0.1,0,0.1c0,0,0,0,0.1,0C106.3,85.2,106.6,84.8,106.9,84.4
	C107,84.5,107,84.3,106.9,84.4z"/>
<path class="st1" d="M96.3,95.3c-1.5,1.1-3,2.3-4.5,3.5c-0.1,0.1,0,0.2,0.1,0.1C93.4,97.8,95,96.6,96.3,95.3
	C96.4,95.4,96.4,95.3,96.3,95.3z"/>
<path class="st1" d="M94.7,97.1c-1.1,0.9-2.2,1.8-3.2,2.8c0,0.1,0,0.2,0.1,0.1c1.1-0.9,2.2-1.9,3.3-2.8C94.9,97.2,94.9,97,94.7,97.1
	z"/>
<path class="st1" d="M93.1,99.2c-0.6,0.6-1.3,1.2-1.9,1.8c-0.1,0.1,0,0.1,0.1,0.1C92,100.6,92.6,99.9,93.1,99.2
	C93.3,99.2,93.2,99.1,93.1,99.2z"/>
<path class="st1" d="M92.7,100.1c-0.6,0.5-1.2,1-1.7,1.6c0,0,0,0.1,0,0.1c0,0,0.1,0,0.1,0C91.7,101.3,92.2,100.7,92.7,100.1
	C92.8,100.1,92.8,100.1,92.7,100.1z"/>
<path class="st1" d="M100.5,89.7c-0.6,0.6-1.3,1.1-1.9,1.7c0,0,0,0.1,0.1,0.1C99.4,91,100,90.4,100.5,89.7
	C100.7,89.7,100.6,89.7,100.5,89.7z"/>
<path class="st1" d="M98.7,90.2c-0.5,0.3-1,0.7-1.5,1.1c0,0,0,0.1,0.1,0.1C97.8,91.1,98.2,90.6,98.7,90.2
	C98.7,90.3,98.7,90.2,98.7,90.2L98.7,90.2z"/>
<path class="st1" d="M96.9,90.5c-0.5,0.3-1,0.6-1.5,0.9c-0.1,0,0,0.1,0.1,0.1C96,91.3,96.5,90.9,96.9,90.5
	C96.9,90.6,96.9,90.4,96.9,90.5L96.9,90.5z"/>
<path class="st1" d="M95.8,90.2c-0.7,0.5-1.4,1.1-2,1.6c-0.1,0,0,0.1,0.1,0.1C94.5,91.4,95.2,90.8,95.8,90.2
	C95.9,90.3,95.9,90.2,95.8,90.2L95.8,90.2z"/>
<path class="st1" d="M94.1,89.4c-0.3,0.2-0.7,0.4-1,0.6c0,0,0,0.1,0,0.1C93.5,89.9,93.8,89.7,94.1,89.4
	C94.2,89.5,94.1,89.3,94.1,89.4L94.1,89.4z"/>
<path class="st1" d="M92.7,88.8c-0.4,0.2-0.7,0.3-1,0.6c0,0,0,0.1,0,0.1C92.1,89.3,92.4,89.1,92.7,88.8
	C92.8,88.9,92.8,88.8,92.7,88.8C92.7,88.8,92.7,88.8,92.7,88.8L92.7,88.8z"/>
<path class="st1" d="M91.8,88.2c-0.4,0.1-0.8,0.2-1.1,0.4c0,0,0,0.1,0,0.1C91,88.5,91.4,88.4,91.8,88.2
	C91.8,88.3,91.8,88.2,91.8,88.2C91.8,88.2,91.8,88.2,91.8,88.2L91.8,88.2z"/>
<path class="st1" d="M91.1,87.3c-0.3,0.2-0.6,0.4-0.9,0.6c0,0,0,0.1,0.1,0.1C90.6,87.8,90.9,87.5,91.1,87.3L91.1,87.3z"/>
<path class="st1" d="M100.1,67.3c-0.8,1-1.7,2-2.4,3.1c0,0,0,0.1,0.1,0.1C98.6,69.5,99.3,68.4,100.1,67.3
	C100.2,67.4,100.2,67.3,100.1,67.3L100.1,67.3z"/>
<path class="st1" d="M98.5,68c-0.8,1-1.7,2-2.4,3.1c0,0.1,0,0.1,0.1,0.1C97,70.2,97.7,69.2,98.5,68C98.5,68,98.5,67.9,98.5,68z"/>
<path class="st1" d="M100.8,67.8c-1,0.9-1.9,1.9-2.8,3c0,0,0,0.1,0,0.1c0,0,0.1,0,0.1,0C99.1,70,100,69,100.8,67.8
	C100.9,67.8,100.8,67.7,100.8,67.8L100.8,67.8z"/>
<path class="st1" d="M99.5,67.7c-0.8,1-1.6,2-2.3,3.1c0,0,0,0.1,0,0.1c0,0,0.1,0,0.1,0c0.8-1,1.6-2,2.3-3.1
	C99.6,67.7,99.5,67.6,99.5,67.7z"/>
<path class="st1" d="M98.5,67c-1.1,1.4-2.2,2.9-3.3,4.3c-0.1,0.1,0.1,0.2,0.2,0.1c1.1-1.4,2.2-2.9,3.3-4.4
	C98.7,67,98.6,66.9,98.5,67z"/>
<path class="st1" d="M100.6,69.7c-0.5,0.5-1,1-1.5,1.6c0,0,0,0.1,0.1,0.1C99.7,70.8,100.1,70.3,100.6,69.7
	C100.6,69.7,100.6,69.6,100.6,69.7z"/>
<path class="st1" d="M102.1,66.2c-1.2,1.6-2.4,3.1-3.5,4.8c0,0.1,0.1,0.2,0.1,0.1C100,69.6,101.1,67.9,102.1,66.2
	C102.3,66.2,102.2,66.1,102.1,66.2z"/>
<path class="st1" d="M99.5,68.2c-0.8,0.8-1.5,1.6-2.1,2.5 M97.5,70.7c0.8-0.8,1.5-1.6,2.1-2.5c0,0,0-0.1-0.1-0.1L97.5,70.7z"/>
<path class="st1" d="M108.2,83.9c-1.1,0.9-2.2,1.8-3.2,2.8c-0.1,0.1,0,0.2,0.1,0.1C106.2,85.9,107.3,85,108.2,83.9
	C108.3,84,108.3,83.9,108.2,83.9L108.2,83.9z"/>
<path class="st1" d="M108.4,84.6c-0.9,0.8-1.9,1.6-2.8,2.5c-0.1,0.1,0,0.2,0.1,0.1C106.6,86.4,107.5,85.6,108.4,84.6
	C108.5,84.7,108.5,84.6,108.4,84.6z"/>
<path class="st1" d="M109.2,84.7c-0.8,0.7-1.5,1.5-2.2,2.3c0,0,0,0.2,0.1,0.1c0.8-0.7,1.6-1.4,2.3-2.2c0,0,0-0.1,0-0.1
	C109.3,84.7,109.3,84.7,109.2,84.7L109.2,84.7z"/>
<path class="st1" d="M110.7,84.9c-0.7,0.5-1.5,1-2.2,1.6c-0.1,0.1,0,0.2,0.1,0.1c0.8-0.5,1.5-1,2.2-1.6
	C110.8,85,110.8,84.8,110.7,84.9z"/>
<path class="st1" d="M111.4,85.1c-0.5,0.2-1,0.5-1.4,0.8c0,0,0,0.1,0,0.1c0,0,0,0,0.1,0c0.5-0.2,1-0.5,1.4-0.8
	C111.5,85.2,111.5,85.2,111.4,85.1C111.5,85.1,111.5,85.1,111.4,85.1z"/>
<path class="st1" d="M90.3,74.3c-1,1-1.9,2-2.8,3.2c0,0.1,0,0.1,0.1,0.1c0.5-0.5,1-1,1.5-1.6c0.5-0.5,1-1,1.4-1.6c0,0,0-0.1,0-0.1
	C90.4,74.3,90.3,74.3,90.3,74.3L90.3,74.3z"/>
<path class="st1" d="M89.1,74.7c-0.9,0.8-1.7,1.5-2.6,2.3c-0.1,0.1,0,0.2,0.1,0.1C87.5,76.3,88.3,75.6,89.1,74.7
	C89.2,74.8,89.2,74.7,89.1,74.7z"/>
<path class="st1" d="M88.2,74.4c-1,0.8-2.1,1.5-3,2.3c0,0,0,0.1,0,0.1c0,0,0,0,0.1,0C86.3,76.1,87.3,75.2,88.2,74.4
	C88.3,74.5,88.3,74.3,88.2,74.4L88.2,74.4z"/>
<path class="st1" d="M86.2,75c-0.7,0.5-1.5,1-2.2,1.6c-0.1,0,0,0.2,0.1,0.1C84.8,76.2,85.5,75.6,86.2,75C86.2,75.1,86.2,75,86.2,75
	L86.2,75z"/>
<path class="st1" d="M83.9,75.4c-0.3,0.3-0.6,0.5-0.9,0.8c0,0,0,0.1,0.1,0.1C83.4,76,83.7,75.8,83.9,75.4
	C84.1,75.5,84,75.3,83.9,75.4z"/>
<path class="st1" d="M88.3,74.5c-0.8,0.8-1.7,1.5-2.4,2.3c0,0,0,0.1,0,0.1c0,0,0.1,0,0.1,0C86.8,76.2,87.6,75.3,88.3,74.5
	C88.4,74.5,88.4,74.5,88.3,74.5C88.4,74.4,88.4,74.4,88.3,74.5z"/>
<path class="st1" d="M106.9,75.4c1.3-0.6,2.6-1.1,3.8-1.8c0.1-0.1,0-0.2-0.1-0.2c-1.3,0.5-2.6,1.2-3.8,1.8
	C106.7,75.3,106.8,75.4,106.9,75.4z"/>
<path class="st1" d="M90.7,67.5c0.5,1.3,1,2.6,1.6,3.9c0,0.1,0.2,0,0.2-0.1c-0.5-1.3-1.1-2.6-1.6-3.9C90.9,67.3,90.7,67.4,90.7,67.5
	z"/>
<path class="st1" d="M84.7,88.3c1.3-0.8,2.5-1.8,3.7-2.8c0,0,0-0.1-0.1-0.1C87,86.3,85.8,87.2,84.7,88.3
	C84.6,88.2,84.6,88.3,84.7,88.3z"/>
<path class="st1" d="M102.3,89.7c0.4,0.6,0.8,1.1,1.2,1.6c0.3,0.5,0.7,1,1.1,1.4c0,0,0.1,0,0.1,0s0-0.1,0-0.1
	c-0.3-0.5-0.7-1-1.1-1.5c-0.4-0.5-0.8-1.1-1.3-1.6C102.4,89.5,102.3,89.6,102.3,89.7z"/>
<path class="st9" d="M63.4,74.6c0.3-7.2,1.8-13.8,6.4-19.6c4.3-5.3,9.9-8.2,16.3-10.1c0.1,0,0.2-0.1,0.1-0.2c0-0.1-0.1-0.2-0.2-0.1
	c-13.3,2.2-24.6,16.5-23,30.1c0,0.1,0.1,0.1,0.2,0.1C63.4,74.7,63.4,74.7,63.4,74.6L63.4,74.6z"/>
<path class="st9" d="M137.9,73.8c-1.7,13-9.2,24.3-21.6,29.4c-0.3,0.1-0.2,0.6,0.1,0.5c11.8-4.8,21.3-16.9,21.9-29.9
	C138.3,73.6,137.9,73.6,137.9,73.8z"/>
<text transform="matrix(0.9597 0.281 -0.281 0.9597 115.2401 11.6901)" class="st1 st10 st11">N</text>
<text transform="matrix(0.9597 0.281 -0.281 0.9597 79.0201 137.59)" class="st1 st10 st11">S</text>
<text transform="matrix(0.9597 0.281 -0.281 0.9597 149.0001 98.92)" class="st1 st10 st11">e</text>
<text transform="matrix(0.9597 0.281 -0.281 0.9597 36.8399 65.5699)" class="st1 st10 st11">w</text>
<path class="st1" d="M132.9,111L132.9,111L132.9,111z"/>
<path class="st1" d="M133.5,109.9c-1.3,2-2.6,4-3.8,6.1 M129.8,116c1.3-2,2.6-4.1,3.8-6.1c0,0,0-0.1,0-0.1c0,0-0.1,0-0.1,0
	L129.8,116z"/>
<path class="st1" d="M130.7,110.9c-1.9,2.6-4,5.2-5.8,7.9c0,0,0,0.1,0.1,0c2-2.6,3.9-5.2,5.9-7.8
	C130.9,110.9,130.8,110.8,130.7,110.9L130.7,110.9z"/>
<path class="st1" d="M125.4,112.9c-3.6,3.7-7.2,7.4-10.6,11.3c0,0,0,0.1,0,0.1s0.1,0,0.1,0c3.6-3.6,7.2-7.4,10.6-11.2
	C125.6,112.9,125.5,112.8,125.4,112.9z"/>
<path class="st1" d="M116.6,117.1c-2.7,3.2-5.6,6.4-8.2,9.7c0,0,0,0.1,0.1,0.1C111.3,123.7,114,120.4,116.6,117.1
	C116.7,117.1,116.7,117,116.6,117.1z"/>
<path class="st1" d="M110.9,119.5c-2.5,2.6-5.1,5-7.4,7.7 M103.5,127.3c2.6-2.4,5-5.1,7.5-7.7c0.1-0.1,0-0.2-0.1-0.1L103.5,127.3z"
	/>
<path class="st1" d="M103.8,121.2c-2.4,2-4.8,3.8-7.1,5.9c-0.1,0.1,0,0.2,0.1,0.1c2.5-1.8,4.8-3.9,7.1-5.9
	C104,121.2,103.9,121.1,103.8,121.2z"/>
<path class="st1" d="M96.5,123.5c-2,1.4-4,2.8-5.8,4.3c0,0,0,0.1,0,0.1c2-1.3,3.9-2.8,5.9-4.2C96.6,123.6,96.6,123.4,96.5,123.5
	L96.5,123.5z"/>
<path class="st1" d="M91.7,123c-1.6,1-3.2,2-4.7,3c-0.1,0,0,0.1,0.1,0.1C88.7,125.1,90.2,124.1,91.7,123
	C91.9,123.1,91.8,122.9,91.7,123L91.7,123z"/>
<path class="st1" d="M87.2,122.4c-1.9,1.1-3.8,2-5.6,3.3c0,0-0.1,0-0.1,0.1c0,0,0,0.1,0.1,0.1c0,0,0,0,0,0c1.9-0.9,3.7-2.2,5.6-3.3
	C87.3,122.6,87.3,122.4,87.2,122.4z"/>
<path class="st1" d="M82.9,122.3c-1,0.6-2,1.3-2.9,2c-0.1,0,0,0.1,0.1,0.1c1-0.6,2-1.3,2.9-2C83.1,122.3,83,122.1,82.9,122.3
	L82.9,122.3z"/>
<path class="st1" d="M79.7,122.1c-0.8,0.2-1.6,0.5-2.3,0.9c-0.1,0,0,0.1,0,0.1c0.8-0.2,1.6-0.5,2.3-0.8
	C79.8,122.2,79.7,122,79.7,122.1z"/>
<path class="st1" d="M77.1,121.4c-0.8,0.2-1.5,0.4-2.2,0.6c0,0,0,0,0,0.1c0,0,0,0,0,0c0.8-0.1,1.5-0.4,2.3-0.6
	C77.2,121.5,77.1,121.4,77.1,121.4L77.1,121.4z"/>
<path class="st1" d="M74.6,120.1c-0.5,0.2-1,0.4-1.5,0.6c0,0,0,0.1,0,0.1c0.5-0.2,1-0.3,1.5-0.6C74.7,120.2,74.6,120.1,74.6,120.1
	L74.6,120.1z"/>
<path class="st1" d="M72.6,119.8c-0.2,0-0.4,0.1-0.5,0.1c0,0,0,0.1,0,0.1l0.6-0.1C72.7,119.9,72.7,119.9,72.6,119.8
	C72.7,119.8,72.7,119.8,72.6,119.8L72.6,119.8z"/>
<path class="st1" d="M127.3,112.4c-2.6,3.2-5.2,6.5-7.6,9.8c0,0,0,0.1,0,0.1c0,0,0,0,0.1,0c2.7-3.2,5.2-6.5,7.7-9.8
	C127.4,112.5,127.4,112.4,127.3,112.4z"/>
<path class="st1" d="M120.4,115.3c-2.5,3.4-4.9,7-7.3,10.5c-0.1,0.1,0.1,0.2,0.2,0.1C115.8,122.4,118.2,118.9,120.4,115.3
	C120.5,115.3,120.5,115.2,120.4,115.3z"/>
<path class="st1" d="M113.2,119.4c-2,2.6-4,5.1-5.8,7.8c0,0.1,0.1,0.1,0.1,0.1c2.1-2.5,3.9-5.2,5.9-7.8
	C113.3,119.4,113.3,119.3,113.2,119.4z"/>
<path class="st1" d="M130.8,111.4c-2.1,2.7-4.1,5.5-6.1,8.2c-0.1,0.1,0.1,0.2,0.2,0.1c2-2.7,4.1-5.5,6-8.3
	C130.9,111.5,130.9,111.4,130.8,111.4C130.8,111.4,130.8,111.4,130.8,111.4L130.8,111.4z"/>
<path class="st1" d="M126.4,113.7c-1.9,2.3-3.9,4.5-5.7,6.9c0,0,0,0.1,0,0.1C122.7,118.4,124.5,116,126.4,113.7
	C126.4,113.8,126.4,113.6,126.4,113.7L126.4,113.7z"/>
<path class="st1" d="M126.4,113.9c1,1.1,2.1,2.1,3.2,3c0.1,0,0.1-0.1,0.1-0.1c-1-1.1-2.1-2.1-3.2-3
	C126.4,113.7,126.3,113.8,126.4,113.9L126.4,113.9z"/>
<path class="st1" d="M122,116.3c1.4,0.9,2.8,2,4.3,2.8c0.1,0,0.1,0,0-0.1c-1.4-1-2.9-1.9-4.3-2.8C121.9,116.2,121.9,116.3,122,116.3
	L122,116.3z"/>
<path class="st1" d="M116.5,117.6l3.1,2.3l1.5,1.1c0.4,0.3,1.3,0.7,0.8,1.1c0,0,0,0.1,0,0.1s0.1,0,0.1,0l0.6-0.3
	c0.1,0,0.1-0.1,0-0.2c-1.9-1.5-3.9-2.9-5.9-4.3C116.5,117.4,116.4,117.5,116.5,117.6z"/>
<path class="st1" d="M112.5,120.7c1.6,1.2,3,2.6,4.7,3.7c0,0,0.1,0,0.1,0c0,0,0,0,0-0.1C115.8,123,114.1,121.8,112.5,120.7
	C112.6,120.6,112.4,120.7,112.5,120.7z"/>
<path class="st1" d="M107.4,121.4c2.2,0.9,4.1,2.4,5.4,4.3c0.1,0.1,0.2,0,0.2-0.1c-1.3-2.1-3.2-3.6-5.5-4.4
	C107.4,121.2,107.3,121.3,107.4,121.4L107.4,121.4z"/>
<path class="st1" d="M102.6,121.9c1.9,1.3,3.8,2.9,5.8,4.1c0.1,0,0.1,0,0.1-0.1C106.7,124.4,104.6,123.2,102.6,121.9
	C102.6,121.8,102.6,121.9,102.6,121.9z"/>
<path class="st1" d="M95.9,123.6c1.3,1.4,2.6,2.6,4.1,3.8c0.1,0.1,0.2-0.1,0.1-0.2c-1.2-1.3-2.6-2.6-4-3.8
	C96,123.4,95.9,123.5,95.9,123.6L95.9,123.6z"/>
<path class="st1" d="M91.9,123.5c1.1,1.4,2.3,2.8,3.4,4.1c0.1,0.1,0.2,0,0.1-0.1c-1.1-1.4-2.3-2.7-3.4-4.1
	C91.9,123.3,91.8,123.3,91.9,123.5z"/>
<path class="st1" d="M87,122.7c1.3,1.6,2.5,3.2,3.8,4.7c0,0.1,0.2,0,0.1-0.1C89.7,125.7,88.4,124.2,87,122.7
	C87,122.6,86.9,122.6,87,122.7z"/>
<path class="st1" d="M83,122.1c1.5,1.6,2.9,3.4,4.6,4.8c0,0,0.2,0,0.1-0.1c-1.3-1.7-3-3.3-4.5-4.9C83,121.9,82.9,122,83,122.1z"/>
<path class="st1" d="M82.3,123.4c0.7,0.7,1.3,1.4,2,2.1c0,0,0.1,0,0.1,0c0,0,0-0.1,0-0.1l0,0C83.7,124.6,83,124,82.3,123.4
	C82.4,123.3,82.2,123.3,82.3,123.4z"/>
<path class="st1" d="M98.1,124.2c1.2,1.1,2.4,2.2,3.8,3.1c0,0,0.1,0,0.1,0c0,0,0-0.1,0-0.1C100.7,126.1,99.5,125.1,98.1,124.2
	C98.1,124.1,98,124.2,98.1,124.2z"/>
<path class="st1" d="M100,124c1.3,1.1,2.6,2,4.1,2.9c0,0,0.1,0,0.1,0c0,0,0-0.1,0-0.1c-1.3-1.1-2.6-2.1-4-3
	C100,123.7,99.9,123.9,100,124L100,124z"/>
<path class="st1" d="M100.8,123.6c1.7,1.2,3.3,2.5,5.1,3.6c0.1,0.1,0.2-0.1,0.1-0.1c-1.6-1.3-3.4-2.4-5.2-3.6
	C100.8,123.3,100.7,123.5,100.8,123.6z"/>
<path class="st1" d="M105.8,122.4c1.9,1.6,3.8,3.3,5.8,4.8c0.1,0,0.2-0.1,0.1-0.1c-1.8-1.7-3.9-3.2-5.8-4.7
	C105.8,122.2,105.7,122.3,105.8,122.4z"/>
<path class="st1" d="M111.2,122.3c1.1,1.1,2.3,2.1,3.6,3c0,0,0.1,0,0.1-0.1c-1.1-1.1-2.3-2.1-3.5-3
	C111.2,122.2,111.1,122.2,111.2,122.3L111.2,122.3z"/>
<path class="st1" d="M115,120c1.2,1.1,2.4,2.2,3.7,3.1c0.1,0.1,0.2-0.1,0.1-0.1c-1.2-1.1-2.5-2.1-3.7-3.2
	C115,119.8,114.9,119.9,115,120z"/>
<path class="st1" d="M117.4,118c1.3,0.9,2.7,1.9,4.1,2.7c0.1,0,0.1-0.1,0.1-0.1c-1.3-1-2.7-1.9-4.1-2.8
	C117.4,117.8,117.3,117.9,117.4,118z"/>
<path class="st1" d="M119.7,116.4c1.3,0.9,2.5,1.8,3.9,2.6c0.1,0,0.2-0.1,0.1-0.1c-1.2-1-2.6-1.8-3.9-2.7
	C119.7,116.2,119.6,116.3,119.7,116.4z"/>
<path class="st1" d="M124,117.4c0.8,0.4,1.6,0.9,2.5,1.2c0.1,0,0.1-0.1,0-0.1c-0.8-0.5-1.6-0.8-2.5-1.3
	C123.9,117.3,123.9,117.4,124,117.4L124,117.4z"/>
<path class="st1" d="M125.1,115.5c1,0.6,2,1.3,3.1,1.9c0,0,0.1,0,0.1,0c0,0,0-0.1,0-0.1c-1-0.7-2-1.3-3-2
	C125.1,115.2,125,115.4,125.1,115.5L125.1,115.5z"/>
<path class="st1" d="M126.9,113.8c1.2,0.5,2.4,1,3.7,1.3c0.1,0,0.1-0.1,0-0.1c-1.2-0.6-2.5-1-3.7-1.4
	C126.8,113.6,126.7,113.7,126.9,113.8z"/>
<path class="st1" d="M129.7,111.9c0.9,0.2,1.8,0.4,2.7,0.5c0.1,0,0.1-0.1,0-0.1c-0.9-0.2-1.8-0.4-2.7-0.6
	C129.7,111.8,129.6,111.9,129.7,111.9L129.7,111.9z"/>
<path class="st1" d="M129.7,110.3c0.5,0.3,1,0.7,1.5,1c0.1,0,0.1-0.1,0.1-0.1C130.8,110.9,130.3,110.6,129.7,110.3
	C129.7,110.3,129.6,110.3,129.7,110.3L129.7,110.3z"/>
<path class="st1" d="M130.9,110.7c0.6,0.4,1.3,0.9,1.9,1.3c0,0,0.1,0,0.1,0c0,0,0-0.1,0-0.1c-0.6-0.5-1.3-0.9-1.9-1.4
	C130.9,110.6,130.8,110.6,130.9,110.7L130.9,110.7z"/>
<path class="st9" d="M138.8,107.8c-1.7,3.1-4,6-6.7,8.4c0,0,0,0.1,0,0C135.1,114,137.4,111.1,138.8,107.8L138.8,107.8L138.8,107.8z"
	/>
<path class="st9" d="M57.8,48.8c6-8.5,14.7-14.6,24.7-17.5c0,0,0.1-0.1,0-0.1c0,0,0,0,0,0C72.5,34,63.7,40.2,57.8,48.8
	C57.8,48.8,57.8,48.9,57.8,48.8L57.8,48.8z"/>
<path class="st9" d="M148.4,77.1c0.6,6.9-0.7,13.8-3.6,20.1c0,0.1,0.1,0.2,0.1,0.1C148.1,91,149.4,84,148.4,77.1L148.4,77.1
	L148.4,77.1z"/>
<path class="st9" d="M80.5,126.4c2.4,0.5,4.9,0.8,7.4,1.1 M87.9,127.4c-2.4-0.5-4.9-0.8-7.4-1l0,0L87.9,127.4z"/>
<path class="st9" d="M67.9,34c3.5-2.2,7.1-4.4,10.3-6.9c0.1-0.1,0-0.2-0.1-0.2C74.5,29,71.1,31.5,67.9,34
	C67.7,33.9,67.8,34.1,67.9,34L67.9,34z"/>
<path class="st9" d="M91.9,26.4c3.4-0.4,6.8-0.5,10.2-0.1c0.2,0,0.2-0.3,0-0.3c-3.4-0.8-7-0.8-10.3,0.1
	C91.5,26.1,91.6,26.5,91.9,26.4L91.9,26.4z"/>
<path class="st9" d="M130.4,36.7c1.9,1.1,3.7,2.4,5.3,3.9c1.4,1.7,2.7,3.5,3.6,5.5c0,0.1,0.1,0.1,0.2,0.1c0.1,0,0.1-0.1,0.1-0.2
	c-1.5-4.4-4.9-7.8-9.2-9.4C130.4,36.6,130.4,36.6,130.4,36.7C130.4,36.7,130.4,36.7,130.4,36.7z"/>
<path class="st9" d="M113.5,21.8c0.2,0.6,0.4,1.1,0.7,1.6c0.1,0.2,0.4,0,0.3-0.2c-0.2-0.5-0.5-1-0.8-1.5
	C113.6,21.6,113.4,21.7,113.5,21.8z"/>
<path class="st9" d="M121.6,25.5c0.5,0.4,1,0.8,1.5,1.2c0.4,0.4,0.8,0.7,1.3,0.9c0.1,0,0.1,0,0.2-0.1c0,0,0-0.1,0-0.1
	c-0.4-0.4-0.8-0.8-1.3-1.1c-0.5-0.4-0.9-0.7-1.4-1.1C121.6,25.2,121.5,25.4,121.6,25.5z"/>
<path class="st9" d="M61.7,56.4c2.6-6.5,7.2-10.8,13-14.4c0.1,0,0.1-0.1,0.1-0.2c0-0.1-0.1-0.1-0.2-0.1l0,0
	c-6.1,2.7-10.6,8.5-13,14.6C61.6,56.5,61.7,56.5,61.7,56.4L61.7,56.4z"/>
<path class="st9" d="M76.7,118.4c-4.6-2.9-8.5-6-11.3-10.8l0,0c2.3,4.7,6.2,9,11.2,10.9C76.7,118.6,76.7,118.5,76.7,118.4
	C76.7,118.5,76.7,118.4,76.7,118.4L76.7,118.4L76.7,118.4z"/>
<path class="st9" d="M135.3,51.9c4,3.6,5.4,7.2,6.1,12.5c0,0.1,0.3,0.2,0.3,0c0.7-4.7-2.3-10.2-6.2-12.8
	C135.4,51.4,135.2,51.7,135.3,51.9L135.3,51.9z"/>
</svg>
