<svg id="Letter" xmlns="http://www.w3.org/2000/svg" viewBox="0 0 198.43 141.01"><defs><style>.cls-1{fill:none;stroke:#231f20;}.cls-2{opacity:0.88;}.cls-3{fill:#231f20;}</style></defs><path class="cls-1" d="M108.74,42.16a3.61,3.61,0,0,1,.94.11,2.81,2.81,0,0,1,2.26,2.9q0,2.59-3.39,11.7A70.87,70.87,0,0,1,93.2,81.48,63.37,63.37,0,0,1,75.82,94.39a4.4,4.4,0,0,1-2,.56c-1.33,0-2-.69-2-2.07a1.9,1.9,0,0,1,.68-1.5c.22-.23,1.58-1.14,4.06-2.75A62.37,62.37,0,0,0,91.28,74.86,71.05,71.05,0,0,0,103.74,52q.67-2.07,1.92-7.23A3,3,0,0,1,108.74,42.16Z"/><g class="cls-2"><path class="cls-3" d="M108.74,42.16a3.61,3.61,0,0,1,.94.11,2.81,2.81,0,0,1,2.26,2.9q0,2.59-3.39,11.7A70.87,70.87,0,0,1,93.2,81.48,63.37,63.37,0,0,1,75.82,94.39a4.4,4.4,0,0,1-2,.56c-1.33,0-2-.69-2-2.07a1.9,1.9,0,0,1,.68-1.5c.22-.23,1.58-1.14,4.06-2.75A62.37,62.37,0,0,0,91.28,74.86,71.05,71.05,0,0,0,103.74,52q.67-2.07,1.92-7.23A3,3,0,0,1,108.74,42.16Z"/></g></svg>