<svg width="186" height="42" viewBox="0 0 186 42" fill="none" xmlns="http://www.w3.org/2000/svg">
<path d="M25.2182 8.625C24.0516 5.58333 22.0516 3.20833 19.5099 1.83333C17.5099 0.749999 15.2599 0.416666 13.2182 0.374998C11.2182 0.374998 9.05156 0.541664 6.88489 1.54167C4.13489 2.79167 2.00989 5.625 2.00989 8.91667C2.00989 11 2.80156 13.25 4.59323 14.75C6.05156 16.0417 8.09323 16.9167 10.3432 17.5417L15.9266 19.1667C17.0932 19.5 17.9266 19.9167 18.5932 20.5C19.2182 21.0417 19.5099 21.7917 19.5099 22.5833C19.5099 23.4167 19.2599 24.3333 18.3016 25.0417C17.2182 25.875 15.2182 26.3333 13.6349 26.3333C11.6349 26.3333 9.30156 25.5833 8.09323 23.9167C7.34323 23 6.84323 21.6667 6.59323 20.2083L0.843226 21.75C1.30156 23.7083 2.09323 25.7917 3.55156 27.5833C6.00989 30.5833 9.42656 31.625 13.4266 31.625C16.5932 31.625 19.3432 31.25 21.6349 29.7083C24.0099 28.125 25.5099 25.375 25.5099 22.75C25.5099 20.2917 24.5099 18.0833 22.7182 16.375C21.3849 15.125 19.8432 14.3333 17.1766 13.5417L11.9682 12.0417C10.4682 11.5833 9.09323 11.0417 8.55156 10.4583C8.17656 10.0833 7.96823 9.58333 7.96823 9.04167C7.96823 8.125 8.46823 7.16667 9.50989 6.54167C10.3849 6 11.7182 5.66666 13.1349 5.70833C14.5099 5.70833 15.7182 6.20833 16.6766 6.79167C18.0932 7.625 18.7182 8.66667 19.4682 10.1667L25.2182 8.625ZM34.5927 22.4167H37.2594L43.0927 31H49.5094L41.8427 19.7083L48.9677 8.5H42.676L37.2594 17.0833H34.5927V0.999998H28.8427L28.801 31H34.5927V22.4167ZM55.1469 21.3333H70.9802C71.2719 17.4167 70.7302 14.0417 68.4802 11.4167C66.3969 8.95833 63.7719 7.875 60.4385 7.875C57.1052 7.875 53.8969 9.16667 51.8135 11.625C50.0219 13.7917 49.0635 16.7917 49.0635 20.0417C49.0635 22.9167 49.9802 25.625 51.8135 27.875C53.8552 30.3333 57.3552 31.625 60.7719 31.625C62.8552 31.625 65.1052 30.9583 66.8552 29.8333C68.6052 28.7083 70.0219 26.9583 70.7719 25.125L65.1052 23.5C64.8552 24.0417 64.4802 24.6667 63.6469 25.3333C62.8135 26 61.7719 26.3333 60.4385 26.3333C58.7719 26.3333 57.2302 25.6667 56.3135 24.4167C55.6469 23.5417 55.3135 22.4583 55.1469 21.3333ZM60.4385 12.7917C61.9802 12.7917 63.5219 13.3333 64.3969 14.4583C64.9802 15.2083 65.2302 16.0417 65.3135 16.9583H55.2719C55.4802 16.125 55.7719 15.375 56.3552 14.625C57.4802 13.2083 58.9802 12.7917 60.4385 12.7917ZM85.6984 7.91667C84.3651 8 82.9901 8.33333 81.7818 9.08333C80.7401 9.70833 79.9484 10.5833 79.3651 11.5833V8.5H74.3651V31H80.0734V19C80.0734 17.3333 80.5318 15.8333 81.5318 14.75C82.3234 13.9167 83.4901 13.3333 85.1151 13.2083C86.7401 13.0833 88.2818 13.3333 89.4484 13.7917V8.54167C88.1984 8.04167 86.9068 7.83333 85.6984 7.91667ZM92.0885 31V0.374998H97.7552V31H92.0885ZM102.69 0.374998V5.375H108.356V0.374998H102.69ZM102.69 8.5V31H108.356V8.5H102.69ZM131.942 10.2917C129.775 8.16666 127.067 7.70833 124.4 7.875C122.358 8 120.067 8.75 118.608 10.5C118.525 10.625 118.4 10.75 118.317 10.8333V8.5H113.317V31H119.025V21.2083C119.025 19.6667 119.067 17.9167 119.275 16.9167C119.525 15.6667 120.108 14.6667 120.942 14.0417C121.692 13.5 122.567 13.2083 123.608 13.1667C125.15 13.125 126.358 13.5833 127.15 14.4583C128.317 15.7083 128.65 18.0417 128.65 20.375V31H134.4V20.125C134.4 16.625 134.4 12.7083 131.942 10.2917ZM154.126 8.5V9.91667C152.418 8.625 150.209 7.875 147.918 7.875C144.793 7.875 141.793 9.08333 139.876 11.4583C138.126 13.6667 137.251 16.625 137.251 19.75C137.251 22.8333 137.959 25.7083 139.876 28.0417C141.709 30.3333 144.668 31.625 147.626 31.625C149.793 31.625 151.793 31.125 153.418 30.125V32.4583C153.459 33.625 153.084 34.4583 152.043 35.25C151.209 35.875 149.876 36.25 148.584 36.25C147.876 36.25 146.751 36.0417 146.043 35.5417C145.543 35.1667 145.126 34.75 144.834 34.2083L139.584 36.75C140.543 38.4167 142.209 39.7917 143.834 40.5833C145.168 41.1667 147.084 41.5833 148.543 41.5833C150.501 41.5833 152.626 41.4167 154.918 40.125C157.751 38.5417 159.084 36.0417 159.084 32.5417V8.5H154.126ZM148.543 26.5833C146.959 26.5833 145.334 26.0417 144.376 24.5833C143.584 23.4167 143.251 21.6667 143.251 19.75C143.251 17.8333 143.668 16.0833 144.459 14.9167C145.418 13.4583 146.876 12.9167 148.751 12.9167C150.293 12.9167 151.626 13.4167 152.543 14.5C153.626 15.75 154.126 17.7083 154.126 19.75C154.126 21.7917 153.626 23.7917 152.543 25C151.543 26.0833 150.168 26.5833 148.543 26.5833ZM173.732 31.625C177.107 31.625 180.232 30.375 182.357 27.875C184.274 25.5 185.149 22.9583 185.149 19.75C185.149 16.7083 184.357 14 182.357 11.625C180.274 9.125 177.066 7.875 173.732 7.875C170.441 7.875 167.191 9.16667 165.107 11.625C163.316 13.7917 162.357 16.5833 162.357 19.75C162.357 22.8333 163.191 25.5417 165.107 27.875C167.191 30.3333 170.399 31.625 173.732 31.625ZM179.149 19.75C179.149 21.4583 178.816 23.1667 177.857 24.4167C176.941 25.6667 175.399 26.3333 173.732 26.3333C172.066 26.3333 170.524 25.6667 169.607 24.4167C168.649 23.1667 168.357 21.4583 168.357 19.75C168.357 18.0417 168.649 16.2917 169.607 15.0417C170.524 13.7917 172.066 13.1667 173.732 13.1667C175.399 13.1667 176.941 13.7917 177.857 15.0417C178.816 16.2917 179.149 18.0417 179.149 19.75Z" fill="#F8830D"/>
</svg>
