<svg id="carracters" xmlns="http://www.w3.org/2000/svg" viewBox="0 0 198.43 35.43"><defs><style>.cls-1{fill:#fff;}</style></defs><path d="M189.22,17.13l-1.94,1-.57.29.76.11c0,.14,0,.19-.15.17-.31,0-.63-.06-.94-.11,0,0-.13-.1-.13-.15,0-.25.11-.5.16-.74.23,0,.19.1.16.22s0,.23-.08.38l2.21-1.12v0L186.36,17c0-.19,0-.2.15-.19l2.07.1a3.05,3.05,0,0,1,.43,0c.08,0,.14.08.21.13Z"/><path d="M178.27,10.78l-1.31.15c-.94.09-1.86.19-2.8.26-1.1.08-2.21.12-3.32.19-.07,0-.14.06-.21.09l-.51.23L170,9.84a61.61,61.61,0,0,0,11.1-.93l.51,1.33c-2.95,2.47-6,4.69-9.16,6.87A80.88,80.88,0,0,1,186,15.61v1.64l-.25,0a17,17,0,0,0-4,.3,9,9,0,0,0-2.42,1,11.55,11.55,0,0,0-3.43,2.87,4.12,4.12,0,0,0-1,2.64,2.09,2.09,0,0,0,1.23,2,8.57,8.57,0,0,0,2.32.67c1,.15,2,.25,3,.38l.26,0c-.16.5-.31,1-.47,1.47a.28.28,0,0,1-.21.1c-.57-.06-1.14-.11-1.71-.18a14.31,14.31,0,0,1-3.29-.77,4.88,4.88,0,0,1-2-1.31,3.48,3.48,0,0,1-.79-2.68,5.74,5.74,0,0,1,1.56-3.27,13.12,13.12,0,0,1,3.33-2.69l.36-.21a54.05,54.05,0,0,0-5.69.84l-5.65,1.25-.29-1.5,1.36-.35a9.54,9.54,0,0,0,2.88-1.5c2.17-1.49,4.29-3.05,6.31-4.73l.91-.79Z"/><path class="cls-1" d="M25.51,11.78c-.44.05-.88.11-1.32.15-.93.09-1.86.19-2.79.26-1.11.08-2.21.12-3.32.19a.6.6,0,0,0-.22.09l-.5.23-.17-1.86A61.8,61.8,0,0,0,28.3,9.91l.5,1.33c-2.94,2.47-6,4.69-9.15,6.87a80.76,80.76,0,0,1,13.62-1.5v1.64l-.26,0a17,17,0,0,0-4,.3,8.78,8.78,0,0,0-2.41,1,11.43,11.43,0,0,0-3.43,2.87,4.13,4.13,0,0,0-1,2.64,2.1,2.1,0,0,0,1.24,2,8.5,8.5,0,0,0,2.31.67c1,.15,2,.25,3,.38l.26,0c-.16.5-.3,1-.47,1.47a.28.28,0,0,1-.21.1c-.57-.06-1.14-.11-1.7-.18a14.52,14.52,0,0,1-3.3-.77,4.94,4.94,0,0,1-2-1.31,3.47,3.47,0,0,1-.78-2.68A5.72,5.72,0,0,1,22,21.51a13.3,13.3,0,0,1,3.33-2.69l.37-.21a53.8,53.8,0,0,0-5.7.84L14.36,20.7l-.29-1.5,1.36-.35a9.37,9.37,0,0,0,2.87-1.5c2.17-1.49,4.29-3.05,6.32-4.73l.9-.79Z"/><path d="M167.41,19.94l1,.83-.87,1-.16-.12.61-.71h-.23l-3,.24a.23.23,0,0,1-.2-.07.24.24,0,0,1,.06-.19l2.1-2,.14.15-1.95,1.83V21L168,20.7l-.59-.52C167.26,20.08,167.27,20,167.41,19.94Z"/><path d="M182.32,11.06l.94.15,0,.2-1.31-.2.2-1.26c.13,0,.21,0,.18.16s-.08.49-.12.79l2.53-1.77,0-.05L183.82,9l-1.64-.09c-.16,0-.19-.07-.14-.21l1.6.09,1.27.08c.06,0,.16.06.17.11s0,.14-.09.18l-2.41,1.69Z"/><path d="M169.83,9.6c-.15-.07-.16-.14-.07-.25s.32-.38.52-.62l-3.4.39c-.09-.17,0-.21.12-.22l2.09-.24,1.18-.14-.72-.6.13-.15,1,.81Z"/></svg>