<svg id="illustration" xmlns="http://www.w3.org/2000/svg" viewBox="0 0 198.43 148.67"><defs><style>.cls-1{fill:#37783a;}.cls-2{fill:#664526;}.cls-3{fill:#c28c56;}.cls-4{fill:#fff;}.cls-5{fill:#372111;}.cls-6{fill:#7a7b31;}.cls-7{fill:#573b1b;}.cls-8{fill:#494d16;}</style></defs><path class="cls-1" d="M133.14-.67l4.36,0A28.63,28.63,0,0,0,135.62,15a32.07,32.07,0,0,0,6.64,14l1.26,7.4S152.11,51.28,154.27,61s1.57,28-2.14,33.48c-2.79,6-9.18,17-8.86,20.71a24.57,24.57,0,0,1-1.12,8.11s-2.77,4.33,2.38,10,12.2,7,12.7,7.29.59.6.3,1.32-2.37,2.07-2.9,2.5a.74.74,0,0,1-.91.13l-.39-.52s-10.48-3.21-13.37-8.5-3.42-8.74-2.94-11.45a40.76,40.76,0,0,0,0-7.84s2.68-9,7.11-15.27,7.77-16.22,7.19-23.41-1.41-17.11-3.48-22.19a47.73,47.73,0,0,1-2.73-8.85l-4.75-9.06L136.49,27S131,19.5,130.44,11.68,133.14-.67,133.14-.67Z"/><path class="cls-2" d="M106.1,43.91l-3.73-5.65-6.44-6-3.81-1.85-6-1.59-8.46-.07s-4,.75-3.65,2.3a2.14,2.14,0,0,0,1.89,1.62l2.44-.83,1.93-.56,3.56.15,1.86.38s-1.56,1.73-5.5,2.13-10.6-.9-10.6-.9S65,30.86,63.73,31.25a21.92,21.92,0,0,0-2.87,1.23l-.39.9s.56.68,2.69,1a59.52,59.52,0,0,1,6.25,1.6,21.2,21.2,0,0,0,2.22.26A29,29,0,0,1,69,37.44a23.09,23.09,0,0,1-4.19.45c-1,0-6.41-2.67-10.63-3s-9.47,1.2-11,3.21-2.56,2.76-1.52,4.18,4.64-1.58,4.64-1.58a10.6,10.6,0,0,1,5.19-2.06,12.59,12.59,0,0,1,5,.5l1.52,2s-5.28.61-6.68,1.32A61.67,61.67,0,0,0,45.4,47s-1.53,1-2.28,1.45-4.37.93-4.15,2.29a1.81,1.81,0,0,0,1.79,1.62c.51,0,3.31-.47,3.31-.47A44.9,44.9,0,0,0,49.56,49,58.66,58.66,0,0,1,55,45.49c.87-.46,6.47-1.1,6.47-1.1s-6.84,7.75-9.21,9.17-9.3,3.37-10.58,4.14-2,2.26-1.18,3.07,1.43,1.21,2.72.53A70.34,70.34,0,0,0,50,57.73c2.57-1.66,7.25-5,7.25-5s2-1.91,3.54-1.47S62.32,57,62.32,57a24.23,24.23,0,0,0-4.21.56c-1,.38-7.41,3.61-7.41,3.61s-4.27,2.49-4.88,3.34S43.1,67,44.26,67.9s1.37,1.8,2.66,1.54a6.32,6.32,0,0,0,2.64-.91c.1-.27,1.89-3.65,3.33-4.52s3-1.25,3.57-1.59,10.88-4.74,10.88-4.74a6.58,6.58,0,0,1,3.13-1.46c1.89-.32,2.54-.61,2.75.12s-1.93,2-2.41,2.58a1.26,1.26,0,0,0,.69,1.94c1.14,1.41,3.85-2.26,3.85-2.26a14.45,14.45,0,0,1,2.77-1.28c1.19-.38,2.44-.36,2.45-.52,0,0,3.72-.47,2.51-1.45a21.45,21.45,0,0,1-2.15-2l-1.8-3,.25-2.15,1.8-1.34,1.8.36,1.26.88L85,50.62l.73,2.24,2.45-.94-.59-2.13L87,48.41l-.1-1.69-.47-1.13s.8-.84,1.37-.73c.5.9,2.74-3.45,2.74-3.45s1.57-1.46,2.27-1.3,5.78,3,6.45,3.1,2.89.48,3.67.49,1-.42,1.77,0l1.17.61Z"/><path class="cls-3" d="M106.8,45.05l-.53.74.31,1,.57,1.56.21,1.14-.18,1.25.36.87L107.15,53l-.89,1.35-.45,2-.28.93-1.11,1.59-.89.57-.36.5.36.84.08.89-.68,0-1.7-.77-3.48-.45-2.64-1-1.37-.88-1.42-.85L92,57.32l-.37.76,0,.94,1.16,1.47,1.8,1.57L97.11,64l1.85.89,1.35.45-1,1.37a17.18,17.18,0,0,1-1.72.27c-.38,0-2.26-.37-2.26-.37l-2-1.21-.88-.52-2.54-1.59-.61,1.6-.17,1.74.17,1.77,1.25-1.14L92,66.13l6.44-1.85L100,62.61l1.17-.85L104,59.93l2.57-.59,2.35.09,2.7.2L113,54.57l1.25-2.47,1.69-2.31,1.36-1.38,1.77-1.29,3.14-1.76,2.36-1.49,1.55-1.06L128,41.68l1.55-1.08,1.17-1.38,1.93-1.32.69-1,.86-1.41.9-1.34.26-1.83-.41-2.85-.16-1.84,1.38-1.17,1.93,1.65,2.49-.7s.09-.59,1.43-.42,1.48.86,1.48.86l.26,1.36,0,1.3.66.82.33,1.64.05,1.18-.54,1.4-.72.91-1.74.81-1.42.17-1.05-.17L137.7,39l-2.48,2.73-3.3,5.38-2,3.13L127,54.57l-2,2.53-2.62,2.51-2,1.25-1.83.75-1.26.13-.82.24-.85,1.69-3,.4-3.34,4.46-2,2.18-1.82,1.57-1.64,1.11-1.52,1-1.52.43-1.53.44-2.06,2.71-3.33,2-1.66.87-.43,1-1,1.7-1,1.65-.74,1.45L89,88l.19,1.14-.36.81,4.15-1.34,2.22-1.32,3.43-1.39,1.94.29,1.71,1,2.35-1.82L108,84.2l5.82-.93,8.42-1.33,9.5-1.94,2-.82s4.37-6.81,4-6.43.42-1.56.42-1.56l.45-1.25,1.13-.68,1,.2.33.72-.08.88.78-.51.9-.24.24.77.08.81.12.78,1.11-1.32.63,0,.11.77-.34,1,.88-.5.88-.06-.07.78-.78.72s-.3,1.2.24.86a1.93,1.93,0,0,1,1.4-.05l.18.65-.61.48-1.17-.07-4.68,3.94-1.5,1.57-1,1.71-1.14,1.63-1.65.65-1.87-.44-.44-.16-4.12.63-4.66,1.84-3.73,1.85L116,92.66l-3.83,2.51-4.12.55-3-1-1.24.76-1.34,1.2L101.91,98l-.77,1.64-.9,1.38-1.57,1.13-2.25,2-2,1L91.61,107l3.41.36,3.11.4.79,1,1.32-.12s2.21.11,2.22.37a6,6,0,0,0,.73,1.22l1.08.78s4.33-.54,6.42-.54,14.33,3.39,16.13,4,4,1.14,4,1.14l5.43.76s6.49.07,6.93-.27,3.93-2,3.93-2l1.72-1.36,2.65-2.77.66.86v2.3l.48,1-.22.87-.44.57.72.35.59.27.08,1.23.32.57-.44,1.09-.38.47-.15,1-.54,1.28s-.39.62-.72.34-2.06,0-2.06,0l-5.3.12-3.61.76-2.81.85a11.4,11.4,0,0,1-2.2,0,8.11,8.11,0,0,1-1.25-1.09l.19-.81a11.66,11.66,0,0,0-5.68-2.12c-3.25-.23-13.52.62-18.76,1.24s-12.33-4.69-12.33-4.69l-1.26-.28A21.78,21.78,0,0,1,91,122.77c-3.43,2.63-6.12,2.26-6.12,2.26l-4.66,1.54L62.12,125l2-21,3.09-4.15.36-1.48,1.52-3.9,1.29-4.5a27.29,27.29,0,0,1-1.24-8.6c.22-4.11.28-6,.28-6L65,74.41l-2.56-1.9-1-2L58.89,70l0-2.16-.81-1V64.49L58.33,60l.48-2.57.83-2.27.6-1.8.55-2.18.65-2.37.14-3.27-.11-2-.61-1.12H59.39L58,41.14l-2.15-.43-1.65.16.09-.8.7-.86,1.49-.05L57.8,39l1,.45,1,0,.16-.93-.16-2.25L59.39,34l-.26-1.83,0-1.6.74-.6,1,.35.31,1.56.32,1.69,1.34,2.11.83-.23.56-2.37.2-1.54.23-1.64.76-.39.88.7.9.43V32.7l-.19,1.48-.53,1.59.72-.58.94-1.33.29-1.53.6.15-.25,1.68-.77,1.34-.48.88-.42.53.25,2.51-.78,3.4s-.19.17-.54,1.93c-.42,2,.11,7.36.11,7.36l1,7.32.09,2.31v1.92l1.36-.26,1.54.26,1.57.83,1.63,1.44.91,1.35L76,67l1.42-.07,1.44.14h.56l.74-.66.57-.62L81.19,63l.1-2,.25-.79-.35-1.79-.45-.85-.17-.78,1.06-.18,2.2-1.16-2.29-1.27-1.61-2.27-1-2.24.84-2.13,1.36-.76,1.8.36,1.26.88.66,1.84.56,1.79.23,1.2L87,52.42l1.14-.5-.33-1.3L87,48.75l-.34-1.45-.22-1.71L87.2,45l1.15-.1s2.32-3.71,2.2-3.5l1.21-.93,1.76-.21,1.87.88,2.36,1.26,1.52.8,2.14.32,1.53.17h1.77l1.17.61Z"/><path class="cls-4" d="M97.26,49.79l-1.09-.95A7.33,7.33,0,0,0,94.1,48c-.52,0-1.92-.06-2.31.27a13.51,13.51,0,0,0-1.13,1.19,4.06,4.06,0,0,0,2.16,1.48,7.66,7.66,0,0,0,3.61-.12,2.52,2.52,0,0,0,.83-.84C97.52,49.46,97.26,49.79,97.26,49.79Z"/><path class="cls-4" d="M103.2,52.1a3.22,3.22,0,0,0,3.57,1.38l.44-.94.05-1L106,51.05l-1.73.39Z"/><path class="cls-5" d="M93.25,48s-.86.49-.87,1,.32,1.48.87,1.71a2.92,2.92,0,0,0,2-.05c.27-.23.71-.3.82-.61a6,6,0,0,0,.12-1.2l-1.64-.79Z"/><path class="cls-5" d="M105,51.16A1,1,0,0,0,105.3,53a2,2,0,0,0,1.54-.3,2.11,2.11,0,0,0,.56-.93l-1.05-.59Z"/><path class="cls-5" d="M103.27,49.53s-.12.37.08.54a1.56,1.56,0,0,0,.45.28l1.87-.92,3.07.12s-.32-.73-.73-.88a2.44,2.44,0,0,0-1.47-.24l-1.83.54-.95.4Z"/><path class="cls-5" d="M92,46.63a16.69,16.69,0,0,1,2.55-.22,13.79,13.79,0,0,1,2.35,1.2c.47.36,1.27.94,1.27.94s.41.06.57-.14a.85.85,0,0,0,.09-.55l-1.19-.6s-1.69-1.35-2-1.48a3,3,0,0,0-1.89-.21,8.9,8.9,0,0,0-1.79.8Z"/><path class="cls-6" d="M64.46,103.82a30.3,30.3,0,0,0-2.15,3.48c-.26.77-.79,4-.79,4a18.73,18.73,0,0,1-.91,3.25,21.42,21.42,0,0,1-2.07,2.3,4.84,4.84,0,0,0,1.32-.12,6.9,6.9,0,0,0,1.42-.43s-1,3.65-.39,6.19,3.67,5.33,3.67,5.33l.12-.82-.41-1.22.25-.92s2.66,2.89,4.84,3.08a3.69,3.69,0,0,1,2.87,1.29l1.23.4-1.23-3.36a27.8,27.8,0,0,0,2.67,1.22,5.78,5.78,0,0,0,2.4.18,9.07,9.07,0,0,0,2.25.7,25.64,25.64,0,0,0,2.87.16l-1-2.52s-.9-1.79-.78-2.1a4.63,4.63,0,0,1,.34-.66,2.62,2.62,0,0,1,1.41.49c.39.42,2.16,3.42,2.16,3.42a5.82,5.82,0,0,0,.45-2.34c-.07-1.16-1.3-4.77-2-5.3s-.93-.75-.93-.75l1.84-.46L86.43,117a11.39,11.39,0,0,0,1.47-1.41,14.4,14.4,0,0,0,.84-2.34l-3.15,1a3.84,3.84,0,0,1,1.2-4.24,13,13,0,0,1,4.94-2.51l-.12-.35,4.15-2.46-.87-.62L98,101.72l-3.61-.48L98,99.8l1-.43h.63l3.5-1.59L100,97l-2.21.34,1.15-2,1.57-3.06a13.81,13.81,0,0,1-2.76.89l-1.95.15-.29-.36A26.91,26.91,0,0,0,98,90.19c.56-.85.82-1.19.82-1.19a4.5,4.5,0,0,1-1.37.23c-.51-.06-.82-.13-.82-.13A11.93,11.93,0,0,1,98.29,87a9.23,9.23,0,0,1,1.67-1,9.8,9.8,0,0,0-2.47.22c-.64.26-4.64,2.52-4.64,2.52l.36-2.26S89.39,89.88,88.76,91a4.07,4.07,0,0,1-.32,1.77c-.36.52.55,2.3.31,3.76a7.61,7.61,0,0,1-.53,2L88,100.9l-.2.67-1.7-1.1a7.17,7.17,0,0,1-.66,2.17,6.27,6.27,0,0,1-.85.94L82.92,102a5.16,5.16,0,0,1,0,1.75,4.42,4.42,0,0,1-.94,1.56.84.84,0,0,1-1.11-.14A5.29,5.29,0,0,1,80,103.2a10.61,10.61,0,0,0-1.14,1.71,11.21,11.21,0,0,1-.5,1.08s-1.14-2-1.78-1.86-1,1.9-1.36,2.3-.63.73-.91.53A16.72,16.72,0,0,1,73,105.55l-1.58,2.15L69.74,105a5,5,0,0,1-.93,1.24,4.27,4.27,0,0,1-1.11.68s-.41-4-.8-4.17-1.79.45-1.79.45Z"/><path class="cls-4" d="M106.57,51.76a1,1,0,0,1-.13.58c0,.06,0,.13.1.08a.54.54,0,0,0,.15-.69.06.06,0,0,0-.12,0Z"/><path class="cls-4" d="M95.32,49a2.27,2.27,0,0,1,0,.9,0,0,0,0,0,.08.05.81.81,0,0,0,.19-1.05c-.07-.14-.29,0-.25.1Z"/><path class="cls-4" d="M104.36,48.77a7.22,7.22,0,0,1,2.58-.58c.12,0,.15-.2,0-.22a5.78,5.78,0,0,0-2.66.63.09.09,0,0,0,0,.17Z"/><path class="cls-4" d="M93.92,45.29c.6.17,1.18,0,1.73.42a4,4,0,0,0,1.15.77s0,0,0,0a6.48,6.48,0,0,0-1.31-1.15,2.31,2.31,0,0,0-1.59-.17.09.09,0,0,0,0,.17Z"/><path class="cls-4" d="M101.36,56s.27.22.28.15-.12,0-.18.06,0,.25.06.23a.81.81,0,0,0,.46-.15.16.16,0,0,0,0-.15c-.06-.21-.39-.28-.57-.35s-.18.14-.09.21Z"/><path class="cls-4" d="M105.57,55.44A15.69,15.69,0,0,1,105,57.9a.07.07,0,0,0,.12.07,3.31,3.31,0,0,0,.68-2.5c0-.11-.21-.17-.23,0Z"/><path class="cls-4" d="M103,60.51c0,.15.26.45.22.58-.15.47-.56.08-.77,0a1.62,1.62,0,0,0-.68-.16s-.06,0-.06,0l0,.07a.17.17,0,0,0,.08.17,1,1,0,0,0,.36.14,5.71,5.71,0,0,1,.6.31.69.69,0,0,0,.65.06c.49-.28.15-1-.15-1.33a.14.14,0,0,0-.23.14Z"/><path class="cls-4" d="M98.52,65.3c.19.09.57.13.65.29s-.06.81-.38.84l0,.26c.36-.14.84-.23,1-.62,0-.11-.13-.22-.2-.12a1.88,1.88,0,0,1-.86.48c-.13,0-.13.28,0,.27.49,0,.63-.43.7-.84,0-.2.15-.42,0-.59s-.61-.16-.84-.23-.26.19-.11.26Z"/><path class="cls-4" d="M84.89,56.55a3,3,0,0,0,0,1.85c.08.23.15.47.25.69s.45.59.55,1A.14.14,0,0,0,86,60c-.12-.49-.52-.8-.71-1.26a3.46,3.46,0,0,1-.23-2.13.08.08,0,0,0-.16-.05Z"/><path class="cls-4" d="M86,60.14a5.08,5.08,0,0,1-.84-1.25,7.43,7.43,0,0,1-.3-1.4c0-.19-.3-.13-.31,0a4,4,0,0,0,.35,1.64,2.54,2.54,0,0,0,1,1.09.08.08,0,0,0,.11-.12Z"/><path class="cls-4" d="M81.49,47.19a2,2,0,0,0-2.11,1.39,4.75,4.75,0,0,0,.74,3.82,0,0,0,0,0,.07,0,11.43,11.43,0,0,1-.44-2.78c.07-1.21.79-1.68,1.78-2.12a.16.16,0,0,0,0-.28Z"/><path class="cls-4" d="M82.75,48.27a2.7,2.7,0,0,1,1.07,1.1.15.15,0,0,0,.28-.08A1.39,1.39,0,0,0,82.83,48c-.13,0-.23.21-.08.28Z"/><path class="cls-4" d="M106.23,45.05c-.64,1.08.14,2,.41,3.06.06.2.39.16.37,0a4.56,4.56,0,0,0-.35-1.3,4.3,4.3,0,0,1-.23-.69,7.85,7.85,0,0,1,0-1,.1.1,0,0,0-.19-.05Z"/><path class="cls-4" d="M104.48,48.94Z"/><path class="cls-4" d="M104.42,48.81a0,0,0,0,0,0-.05s0,.05,0,.05Z"/><path class="cls-4" d="M104.22,48.65l-.08.11a.14.14,0,0,0,.09.21c.33.1.76-.16,1.07-.27a5.3,5.3,0,0,1,1.5-.45,0,0,0,0,0,0-.07c-.22-.27-.53-.13-.82,0l-.8.25c-.21.07-.7.34-.92.29l.11.14V48.7a.1.1,0,0,0-.18-.05Z"/><path class="cls-4" d="M94.08,45.25h0s0,0,0,0h0s0-.06,0,0Z"/><path class="cls-4" d="M93.74,45.52a3.41,3.41,0,0,1,2.56.74c.58.45,1.13.94,1.71,1.39.11.08.27-.06.16-.16-1.17-1.08-2.72-2.92-4.48-2.13-.08,0,0,.17,0,.16Z"/><path class="cls-4" d="M101.22,55.85a1.1,1.1,0,0,1,0,.51.13.13,0,0,0,.22.1.57.57,0,0,0,0-.77c-.12-.18-.4,0-.29.16Z"/><path class="cls-4" d="M135.07,29.27c0-.59.69-1.77,1.39-1.61.2.05.35-.25.15-.35-.53-.28-1,.11-1.33.51s-.73.94-.5,1.49c.06.14.31.14.29,0Z"/><path class="cls-4" d="M141.53,27.22a0,0,0,0,0,0,0,0,0,0,0,0,0,0Z"/><path class="cls-4" d="M141.56,27.36a3,3,0,0,0,.58.25,1.47,1.47,0,0,1,.7.65,4.11,4.11,0,0,1,.47,1.79c0,.25.39.16.41-.05a2.79,2.79,0,0,0-.42-2.37,1.55,1.55,0,0,0-1.69-.68.23.23,0,0,0-.05.41Z"/><path class="cls-4" d="M143.7,30.79a10.15,10.15,0,0,1,.47,4.59,0,0,0,0,0,.08,0,4.72,4.72,0,0,0,.32-2.44,4,4,0,0,0-.52-2.37.2.2,0,0,0-.35.2Z"/><path class="cls-4" d="M138.6,28.54c.51-.2,1.27-.15,1.6-.63.07-.09,0-.18-.11-.19a2.57,2.57,0,0,0-1,.21,1.56,1.56,0,0,0-.68.34c-.12.11,0,.34.16.27Z"/><path class="cls-4" d="M138.67,31.51a2.93,2.93,0,0,1,1.31-.38,1.38,1.38,0,0,0,.89-.26.22.22,0,0,0,0-.35,1.69,1.69,0,0,0-1.29.17,2.54,2.54,0,0,0-1,.6c-.1.11,0,.31.17.22Z"/><path class="cls-4" d="M139.67,33.57a9.13,9.13,0,0,0,1.11-.49c.33-.16.77-.19,1-.53a.13.13,0,0,0-.08-.19c-.72-.26-1.51.68-2.09,1-.13.07,0,.29.1.24Z"/><path class="cls-4" d="M140.66,36.44a6.23,6.23,0,0,0,1-.28,1.25,1.25,0,0,0,.67-.3.16.16,0,0,0-.07-.26,1.93,1.93,0,0,0-1.67.63.12.12,0,0,0,.11.21Z"/><path class="cls-4" d="M135,35.59c-.65.78-1.1,1.7-1.73,2.49a18.23,18.23,0,0,0-2,2.35c-.07.12.07.28.19.2a9.2,9.2,0,0,0,2.31-2.22c.61-.79,1-1.72,1.53-2.55.14-.21-.18-.46-.34-.27Z"/><path class="cls-4" d="M119.55,47.62a9.75,9.75,0,0,0-3.54,3c-.75,1-1.69,2.18-1.63,3.46a.31.31,0,0,0,.61.09,12.47,12.47,0,0,1,4.8-6.09.24.24,0,0,0-.24-.42Z"/><path class="cls-4" d="M105.92,60.63l.06-.08a0,0,0,1,0,0,0l-.07.09s0,0,0,0Z"/><path class="cls-4" d="M105,60.67c1.82-.79,3.76-.41,5.64,0,.34.07.59-.41.25-.59a7.47,7.47,0,0,0-3.41-.54,4.22,4.22,0,0,0-2.7.89c-.17.14,0,.35.22.28Z"/><path class="cls-4" d="M99.09,72a25.07,25.07,0,0,0-.81,2.64,8.3,8.3,0,0,1-2,2.75c-.19.22.06.59.33.43,2-1.24,2.38-3.55,2.87-5.67,0-.2-.26-.36-.36-.15Z"/><path class="cls-4" d="M74.37,68.54a4.85,4.85,0,0,1,2.68-1.07,15.9,15.9,0,0,0,2.48.08.21.21,0,0,0,0-.39,4.91,4.91,0,0,0-3.08-.29,4,4,0,0,0-2.29,1.46c-.09.1,0,.3.16.21Z"/><path class="cls-4" d="M67.71,64.16a7.68,7.68,0,0,1,2.93.74c.69.31,1.22.86,1.89,1.18a.25.25,0,0,0,.36-.27c-.2-.91-1.34-1.34-2.1-1.67-1-.42-2.18-.94-3.15-.24a.14.14,0,0,0,.07.26Z"/><path class="cls-4" d="M63.66,45.39a34.12,34.12,0,0,0-.4,7.48.27.27,0,0,0,.53,0c.28-2.45.17-5,.23-7.48,0-.24-.33-.23-.36,0Z"/><path class="cls-4" d="M62.71,38.3a4.09,4.09,0,0,1,1.67,0,9.86,9.86,0,0,0,1.28.38.27.27,0,0,0,.23-.41c-.65-.94-2.39-.82-3.33-.5a.29.29,0,0,0,.15.55Z"/><path class="cls-4" d="M65.44,30.62c0,.34.07.68.07,1a5.38,5.38,0,0,0,0,.9.19.19,0,0,0,.33,0,2.49,2.49,0,0,0-.1-2,.18.18,0,0,0-.33.09Z"/><path class="cls-4" d="M66.26,31a7.45,7.45,0,0,1,.11,1.41c0,.42-.1.85-.08,1.27,0,.18.28.29.36.1a5,5,0,0,0,0-2.9c0-.28-.48-.16-.43.12Z"/><path class="cls-4" d="M68.34,33.05A5.42,5.42,0,0,1,68,34a2.58,2.58,0,0,0-.31.7.18.18,0,0,0,.26.2c.6-.27.81-1.15.82-1.74a.21.21,0,0,0-.42-.06Z"/><path class="cls-4" d="M60.33,31.08c.57.43.57,1,.68,1.63a.19.19,0,0,0,.35,0c.44-.75-.14-1.69-.77-2.12-.27-.19-.51.24-.26.44Z"/><path class="cls-4" d="M75.32,30.61A5.11,5.11,0,0,1,78,29.69c.86-.13,1.73-.07,2.59-.22.25,0,.21-.4,0-.47a6.28,6.28,0,0,0-3.33.13A3.09,3.09,0,0,0,75,30.36a.21.21,0,0,0,.32.25Z"/><path class="cls-4" d="M42.49,40.81c-.25-.81.77-1.55,1.34-1.94s1.3-.52,1.71-1a.25.25,0,0,0-.11-.42c-1.16-.24-4.73,2.37-3.35,3.58.17.15.48,0,.41-.23Z"/><path class="cls-4" d="M40.6,50.92c-.08-.2-.12-.28.11-.45a4,4,0,0,1,.87-.39,10.19,10.19,0,0,0,1.73-.91.21.21,0,0,0-.16-.38A10.56,10.56,0,0,0,40.41,50c-.44.26-.68.72-.31,1.16a.29.29,0,0,0,.28.07l.08,0c.09,0,.19-.14.14-.25Z"/><path class="cls-4" d="M41.53,60c-.11-.31-.42-.79-.32-1.12s.67-.53,1-.66a5.13,5.13,0,0,0,2-1c.1-.12.08-.36-.1-.39a4.08,4.08,0,0,0-1.8.41,4.15,4.15,0,0,0-1.43.66,1.46,1.46,0,0,0,.28,2.36.26.26,0,0,0,.38-.29Z"/><path class="cls-4" d="M46.49,68.57a1.51,1.51,0,0,1-1.05-1.69,5.77,5.77,0,0,1,1.05-1.83.32.32,0,0,0-.35-.46c-2.39.53-2.43,4.64.28,4.5.27,0,.37-.46.07-.52Z"/><path class="cls-4" d="M79.42,46.41a.05.05,0,1,0,0-.1.05.05,0,0,0,0,.1Z"/><path class="cls-4" d="M79.43,45a3.61,3.61,0,0,0-2.55.56,4.85,4.85,0,0,0-2.08,1.77c-.18.36.2.82.59.58,1.27-.76,2.29-2.32,4-2.29a.32.32,0,0,0,.08-.62Z"/><path class="cls-4" d="M83.75,42.64c-1.2-.11-2.44-.36-3.64-.52a9.7,9.7,0,0,0-3.21-.26.45.45,0,0,0-.1.82,6.74,6.74,0,0,0,3,.71,24.16,24.16,0,0,0,3.9,0,.36.36,0,0,0,0-.71Z"/><path class="cls-4" d="M84.69,40.21a11.52,11.52,0,0,0-4.38-1.15c-1-.05-2.33-.19-2.88.8a.29.29,0,0,0,.4.4,6.12,6.12,0,0,1,3.21-.2,22.48,22.48,0,0,1,3.45.62c.28.08.48-.34.2-.47Z"/><path class="cls-4" d="M88.47,39c-.88-.72-2.46-1.73-3.63-1.14a.3.3,0,0,0,0,.51,4.43,4.43,0,0,0,1.54.4,10.73,10.73,0,0,1,1.83.56c.2.08.46-.17.26-.33Z"/><path class="cls-4" d="M92.64,39.13c-2-1.65-6.2-4.3-8.8-2.9a.21.21,0,0,0,.1.38c3-.08,5.77,1.69,8.38,2.93.25.12.57-.21.32-.41Z"/><path class="cls-4" d="M96.17,38.86a7.12,7.12,0,0,0-2.44-2.53c-.79-.51-2.1-1.31-3.06-1a.22.22,0,0,0-.1.37c.69.63,1.82.76,2.64,1.25a13.47,13.47,0,0,1,2.61,2.22.22.22,0,0,0,.35-.27Z"/><path class="cls-4" d="M100.31,41.4A6.16,6.16,0,0,0,99.88,39a8.88,8.88,0,0,0-1.95-2.25c-.63-.62-2.27-2.63-3.13-1.27-.16.24.09.46.33.43,1-.14,2.4,1.76,3,2.4a5.91,5.91,0,0,1,1.57,3.21.31.31,0,0,0,.6-.08Z"/><path class="cls-4" d="M103.94,41a18.81,18.81,0,0,0-1.48-2.2,18.37,18.37,0,0,0-1.57-2.24,13.79,13.79,0,0,0-4.53-3.46c-.36-.15-.61.39-.37.63,1.58,1.59,3.47,2.58,4.78,4.48.78,1.11,1.44,2.79,2.83,3.22.27.09.44-.21.34-.43Z"/><path class="cls-7" d="M80.24,82.27a28.8,28.8,0,0,1,6.84-1.09c1.61,0,3.32.67,4.89.15a.24.24,0,0,0-.07-.46c-4-.28-8.11-1.18-11.87.9-.29.15-.09.57.21.5Z"/><path class="cls-7" d="M79.57,91.76a2.07,2.07,0,0,0,1.85.87c.2,0,.15-.31,0-.36a8,8,0,0,1-.83-.26,4.35,4.35,0,0,1-.72-.49c-.15-.12-.44,0-.3.24Z"/><path class="cls-7" d="M78.3,94.93c0,.72.89,1.32,1.46,1.57a3.16,3.16,0,0,0,2.62-.08.17.17,0,0,0-.08-.31,6.37,6.37,0,0,1-2,.09,2.32,2.32,0,0,1-1.66-1.31.15.15,0,0,0-.3,0Z"/><path class="cls-7" d="M78.09,99c-.07,1.17,2.17,1.56,2.83.9a.17.17,0,0,0-.12-.29,8.93,8.93,0,0,1-1.27.06c-.49-.08-.89-.21-1.06-.72a.19.19,0,0,0-.38,0Z"/><path class="cls-7" d="M87.41,99a2.15,2.15,0,0,0,.75-.3.25.25,0,0,0-.12-.46,1.14,1.14,0,0,0-.84.4.22.22,0,0,0,.21.36Z"/><path class="cls-7" d="M87.51,94a1.51,1.51,0,0,0,1-.59.21.21,0,0,0-.18-.3,3.07,3.07,0,0,0-1,.48.23.23,0,0,0,.17.41Z"/><path class="cls-7" d="M86.8,91.73a2.08,2.08,0,0,0,2-.69c.12-.16-.07-.35-.24-.31a6.29,6.29,0,0,0-.92.41,3.37,3.37,0,0,0-.83.34.14.14,0,0,0,0,.25Z"/><path class="cls-7" d="M99.62,86.39A4.26,4.26,0,0,0,98,87.53a3.76,3.76,0,0,0-1,1.58.2.2,0,0,0,.25.19c.48-.2.78-.82,1.13-1.2a7.24,7.24,0,0,1,1.52-1.24c.23-.15.09-.57-.19-.47Z"/><path class="cls-7" d="M98.86,88.94a10.65,10.65,0,0,0-1.24,1.94,4.77,4.77,0,0,1-.64,1.2,3.79,3.79,0,0,1-1.24.73.22.22,0,0,0,.11.41A2.69,2.69,0,0,0,97.65,92c.57-.89,1-1.86,1.6-2.71.17-.22-.21-.52-.39-.3Z"/><path class="cls-7" d="M100.62,92.06a19.53,19.53,0,0,1-1.14,2.66c-.43.78-1,1.44-1.47,2.18-.13.19.15.38.3.23a10.59,10.59,0,0,0,2.72-5,.21.21,0,0,0-.41-.11Z"/><path class="cls-7" d="M101.34,98.52c-1.06.45-2,1.06-3.11,1.43s-2,.46-3,.83c-.26.1-.26.58.08.54a16,16,0,0,0,3.46-1,7.34,7.34,0,0,0,2.81-1.53c.17-.17,0-.4-.24-.31Z"/><path class="cls-7" d="M97.62,102.09c-.38.34-.77.68-1.16,1a5.63,5.63,0,0,0-1.07.93.29.29,0,0,0,.32.42,4,4,0,0,0,1.14-.83c.4-.36.8-.73,1.17-1.12s-.12-.63-.4-.4Z"/><path class="cls-7" d="M91.82,107.85c-3-.09-6.81,2.75-6.53,6,0,.34.56.35.54,0a4.82,4.82,0,0,1,2.31-4.2,38,38,0,0,1,3.75-1.56c.14-.06.06-.26-.07-.27Z"/><path class="cls-7" d="M89.22,113.3l-.29.28c-.18.17.13.42.27.21l.22-.34c.08-.12-.09-.24-.2-.15Z"/><path class="cls-7" d="M89,113.43a10.47,10.47,0,0,1-2.19,3.6,7.78,7.78,0,0,1-4.38,1.64c-.45.07-.27.78.19.7a9.25,9.25,0,0,0,4.29-1.7c1.36-1.09,1.83-2.45,2.51-4,.12-.28-.28-.53-.42-.25Z"/><path class="cls-7" d="M80.94,123.53c-1,.34.08,2,.61,2.35.16.1.43-.08.35-.27s-1-1.44-.75-1.59a.27.27,0,0,0-.21-.49Z"/><path class="cls-7" d="M81,124c.73,0,.85,1.17,1.59,1.17a.21.21,0,0,0,.21-.21c0-.46-.51-.85-.83-1.13a1,1,0,0,0-1-.33.26.26,0,0,0,.07.5Z"/><path class="cls-7" d="M75.92,81.84a1.28,1.28,0,0,0,.84.58.9.9,0,0,0,.9-.21c.16-.13,0-.35-.18-.32-.55.12-.91-.28-1.41-.32a.18.18,0,0,0-.15.27Z"/><path class="cls-7" d="M69.5,75.92c.31.41,1.23,0,1.62-.11s1.21-.44,1.22-1a.23.23,0,0,0-.15-.2.57.57,0,0,0-.52.09,8.86,8.86,0,0,1-.87.44,5.88,5.88,0,0,1-.84.27c-.25,0-.38,0-.49.28a.2.2,0,0,0,0,.21Z"/><path class="cls-7" d="M72.13,74.83c.23.79.52,2,1.38,2.34.17.07.35-.13.3-.3a4.88,4.88,0,0,0-.54-.9,6.84,6.84,0,0,1-.57-1.3c-.13-.35-.68-.21-.57.16Z"/><path class="cls-7" d="M72.06,75.11c-.81,0-1.55.9-2,1.52a4,4,0,0,0-.84,2.6.2.2,0,0,0,.29.12c.35-.22.35-.42.45-.81a5.06,5.06,0,0,1,.52-1.28,5.18,5.18,0,0,1,.86-1.07,3.71,3.71,0,0,0,.83-.8.18.18,0,0,0-.15-.28Z"/><path class="cls-7" d="M70,76.14c-.44.49-1.1,1.41-.72,2.08a.22.22,0,0,0,.37,0,2.44,2.44,0,0,0,.23-.84,2.83,2.83,0,0,1,.45-1c.14-.2-.17-.43-.33-.26Z"/><path class="cls-7" d="M69.86,75.89c-.45.28-1,1.26-.3,1.55a.22.22,0,0,0,.26-.1c.22-.38-.08-.76.31-1.1.19-.17,0-.48-.27-.35Z"/><path class="cls-7" d="M69.3,76.16a.86.86,0,0,0,0,.75.25.25,0,0,0,.42,0,2.27,2.27,0,0,0,.2-.57c.14-.41-.52-.59-.64-.18Z"/><path class="cls-7" d="M70.12,76.51c.3-.2.71-.3.82-.67a.27.27,0,0,0-.13-.3c-.46-.21-.84.2-1.09.56a.3.3,0,0,0,.4.41Z"/><path class="cls-7" d="M73.58,86a2.74,2.74,0,0,0,1.93-.17c.4-.17.9-.37,1-.8,0-.06,0-.14-.12-.12a8.8,8.8,0,0,1-1.14.47,4.44,4.44,0,0,1-1.66.21c-.25,0-.28.34-.06.41Z"/><path class="cls-7" d="M73.6,87.68c0,.57,1.07.5,1.46.53a2,2,0,0,0,1.77-.85c.09-.14-.06-.37-.23-.3-.5.2-.79.6-1.38.6-.25,0-.5,0-.74,0s-.56.07-.71,0a.11.11,0,0,0-.17.09Z"/><path class="cls-7" d="M73.17,91.17a1.79,1.79,0,0,0,2.44-.54c0-.1-.08-.22-.17-.18-.33.12-.59.35-.93.44a2.6,2.6,0,0,1-1.21,0,.17.17,0,0,0-.13.31Z"/><path class="cls-7" d="M70.39,91.14c.17.23.37.43.55.66s.26.4.49.5c.07,0,.15,0,.15-.08,0-.5-.57-1-1-1.32-.14-.1-.34.1-.24.24Z"/><path class="cls-7" d="M92.32,52.45a6.88,6.88,0,0,0,3.71-.1.14.14,0,0,0-.08-.26,10.32,10.32,0,0,1-3.55.06c-.19,0-.28.25-.08.3Z"/><path class="cls-7" d="M103.48,53.91a4,4,0,0,0,1.14.8,2,2,0,0,0,1.12.33.17.17,0,0,0,.05-.34,6,6,0,0,1-1.17-.49,4,4,0,0,0-1.05-.47.1.1,0,0,0-.09.17Z"/><path class="cls-7" d="M103,52.32c.05.61.75,1,1.25,1.19a3.88,3.88,0,0,0,2.15.47c.21,0,.13-.33,0-.35a6.53,6.53,0,0,1-1.83-.54,11.23,11.23,0,0,1-1.36-.87.11.11,0,0,0-.17.1Z"/><path class="cls-7" d="M90.47,49.67c1.4,1.82,5,2.55,6.7.83.06-.06,0-.15-.09-.11a5.2,5.2,0,0,1-6.27-1c-.16-.19-.49.06-.34.26Z"/><path class="cls-7" d="M100,57a2,2,0,0,0,2.22-.51.11.11,0,0,0-.12-.16,6.35,6.35,0,0,1-1.12.36,2.13,2.13,0,0,0-1,.14.1.1,0,0,0,0,.17Z"/><path class="cls-7" d="M102.17,56.25c-.47.52-1,1-1.5,1.47a.11.11,0,0,0,.14.17,6.44,6.44,0,0,0,1.61-1.38c.16-.17-.1-.43-.25-.26Z"/><path class="cls-7" d="M100.82,57.63a1.13,1.13,0,0,1-.34-.61c-.07-.35-.63-.2-.53.14a1.26,1.26,0,0,0,.61.81.22.22,0,0,0,.26-.34Z"/><path class="cls-7" d="M100.74,57.6c.18-.16.4-.25.58-.43s0-.32-.17-.3a1.11,1.11,0,0,0-.66.49.17.17,0,0,0,.25.24Z"/><path class="cls-7" d="M86.16,61.77c1.28.88,2.42,1.62,2.65,3.31a12.86,12.86,0,0,0,.34,3.16.16.16,0,0,0,.31-.09c-.35-1.45,0-3.1-.52-4.5a5.23,5.23,0,0,0-2.49-2.38.29.29,0,0,0-.29.5Z"/><path class="cls-7" d="M88.61,63.35c0,.23.13.44.18.66s0,.46.11.68a.2.2,0,0,0,.39,0,1.5,1.5,0,0,0-.47-1.46.13.13,0,0,0-.21.12Z"/><path class="cls-7" d="M88.59,63.23a1.56,1.56,0,0,1,.32.79.35.35,0,1,0,.69-.09,1.77,1.77,0,0,0-.57-1c-.22-.21-.64.08-.44.34Z"/><path class="cls-7" d="M89,63.49a1.89,1.89,0,0,0,.52.41.26.26,0,0,0,.35-.35,1.88,1.88,0,0,0-.42-.51c-.3-.28-.74.16-.45.45Z"/><path class="cls-7" d="M93.35,66.27c.72,1.15,2.18,1.43,3.45,1.54a5.1,5.1,0,0,0,4-1.62c.1-.09,0-.26-.14-.19a4.7,4.7,0,0,1-4,1,8.38,8.38,0,0,1-3-1.07.28.28,0,0,0-.38.38Z"/><path class="cls-7" d="M100.26,70.73c.43,1.55-.38,2.79-.49,4.3a0,0,0,0,0,0,0,3.91,3.91,0,0,0,1-2,3.48,3.48,0,0,0,0-2.48.32.32,0,0,0-.61.17Z"/><path class="cls-7" d="M99.86,75.2a7.6,7.6,0,0,0,3.64-1.68,43,43,0,0,0,3.55-2.78s0-.09-.06-.07c-1.25.82-2.43,1.7-3.73,2.45A25.33,25.33,0,0,0,99.79,75a.1.1,0,0,0,.07.17Z"/><path class="cls-7" d="M113.19,64c.25-.25.55-.52.5-.91a.14.14,0,0,0-.21-.12c-.31.16-.42.5-.61.79s.16.4.32.24Z"/><path class="cls-7" d="M113.24,64c1.56.57,2.84-.65,3.33-2.07,0-.06-.06-.1-.11-.06-.49.45-.7,1.11-1.3,1.48a3,3,0,0,1-1.87.35c-.19,0-.2.25-.05.3Z"/><path class="cls-7" d="M97.57,103.32c.67-.65,1.3-1.33,1.93-2,.47-.53,1.23-1.12,1.38-1.83,0,0,0-.1-.08-.08-.69.26-1.15,1-1.64,1.57-.63.68-1.28,1.35-1.92,2a.23.23,0,0,0,.33.33Z"/><path class="cls-7" d="M102,97.07c.48,0,.81-.78,1.07-1.11a1.7,1.7,0,0,1,.87-.6c.25-.07.45,0,.64-.22a.1.1,0,0,0,0-.17c-.42-.3-1.26.08-1.61.38a4.61,4.61,0,0,0-.66.8c-.19.27-.49.52-.37.86,0,0,0,.06.08.06Z"/><path class="cls-7" d="M106.7,95.22c2.54.33,6.75.12,8.53-2.07,0-.05,0-.15-.07-.12a18.76,18.76,0,0,1-3.55,1.41c-1.62.32-3.28.23-4.91.4a.19.19,0,0,0,0,.38Z"/><path class="cls-7" d="M109.23,93.72a7.86,7.86,0,0,0,4-.94A7.11,7.11,0,0,0,116,90.35c.06-.08,0-.22-.11-.15a15.65,15.65,0,0,1-2.23,1.9,13,13,0,0,1-4.38,1.33.15.15,0,0,0,0,.29Z"/><path class="cls-7" d="M133.3,84c.28,1,1.53,1.29,2.46,1.2a3.07,3.07,0,0,0,2.52-1.69c.07-.11-.1-.26-.19-.15-1,1.25-3.38,2.09-4.47.5a.18.18,0,0,0-.32.14Z"/><path class="cls-7" d="M137.84,80.68a3.55,3.55,0,0,1,.79-1.13c.28-.28.65-.48.91-.78.12-.14,0-.42-.2-.34a3.7,3.7,0,0,0-1.91,2.14c-.09.26.31.35.41.11Z"/><path class="cls-7" d="M140.41,78.2a3.26,3.26,0,0,0,1.92-.89,1.69,1.69,0,0,0,.89-1.54.12.12,0,0,0-.23,0c-.37,1.22-1.64,1.65-2.65,2.21-.12.06-.06.24.07.25Z"/><path class="cls-7" d="M139.22,72.1a2.92,2.92,0,0,1,.93,0,.25.25,0,0,0,.17-.42,1.06,1.06,0,0,0-1.28,0c-.23.14-.09.53.18.45Z"/><path class="cls-7" d="M141.25,72.09c.2.09.33.25.57.23a.23.23,0,0,0,.21-.21V72a.29.29,0,0,0-.15-.27,1,1,0,0,0-.5-.13c-.23,0-.37.37-.13.47Z"/><path class="cls-7" d="M143.24,73.53c.28.06.45.28.74.26.09,0,.21-.07.22-.17v-.08a.36.36,0,0,0-.16-.39,1.11,1.11,0,0,0-.73-.2c-.31,0-.42.51-.08.58Z"/><path class="cls-7" d="M144.61,74.42a2.17,2.17,0,0,0,.55.36.28.28,0,0,0,.34-.33,1.08,1.08,0,0,0-.56-.59c-.36-.22-.67.33-.33.56Z"/><path class="cls-7" d="M145.66,75.6a.05.05,0,1,0,0-.1.05.05,0,0,0,0,.1Z"/><path class="cls-7" d="M85.48,125.2a15.61,15.61,0,0,0,7.41-3.93.17.17,0,0,0-.24-.24c-2.07,2-4.72,2.63-7.3,3.69a.25.25,0,0,0,.13.48Z"/><path class="cls-7" d="M97.3,116a14,14,0,0,0,4.76,3.25c1.4.66,3.15,1.75,4.74,1.55.13,0,.19-.23,0-.25-3.33-.52-6.64-3-9.31-4.85-.18-.14-.36.14-.23.3Z"/><path class="cls-7" d="M132.33,120.75a.25.25,0,0,0,0-.5.25.25,0,0,0,0,.5Z"/><path class="cls-7" d="M132.17,120.85a11.77,11.77,0,0,1,2.1,1.05c.33.33.29.83.51,1.16a1.5,1.5,0,0,0,1.08.71,5.62,5.62,0,0,0,4.78-.88c.09-.07,0-.22-.13-.16a5.3,5.3,0,0,1-3,.63c-1.27,0-1.51-.27-2.37-1.28a6.31,6.31,0,0,0-2.79-1.72c-.29-.11-.47.34-.21.49Z"/><path class="cls-7" d="M151.13,122.06a.94.94,0,0,0,1.17-.29c.17-.23-.11-.54-.36-.47s-.49.19-.74.26-.29.4-.07.5Z"/><path class="cls-7" d="M151.47,120c.21-.08.4-.21.62-.27a1.92,1.92,0,0,0,.58-.16.24.24,0,0,0,0-.4,1.23,1.23,0,0,0-1.46.5.23.23,0,0,0,.26.33Z"/><path class="cls-7" d="M151.9,117.91c.33-.12.63-.3,1-.4a.32.32,0,0,0,.22-.23A.3.3,0,0,0,153,117a.32.32,0,0,0-.32-.08,2.4,2.4,0,0,0-1,.59c-.16.18,0,.53.25.44Z"/><path class="cls-7" d="M151.27,116.39a2.55,2.55,0,0,1,.94-1.11c.18-.1.32-.13.27-.36s-.14-.17-.24-.19c-.75-.07-1.22.89-1.32,1.51a.19.19,0,0,0,.35.15Z"/><path class="cls-7" d="M150.34,114.37a2.66,2.66,0,0,0,.64-.52,3,3,0,0,1,.8-.44.3.3,0,0,0,.06-.46c-.71-.61-1.41.54-1.85,1-.25.24.06.59.35.45Z"/><path class="cls-7" d="M136.26,118.33c.52.12,1.14-.22,1.65-.31.91-.18,1.84-.17,2.76-.26a.25.25,0,0,0,0-.49,9,9,0,0,0-2.74.24c-.49.1-1.5.14-1.73.67a.1.1,0,0,0,.06.15Z"/><path class="cls-7" d="M83.77,55.61a6.65,6.65,0,0,0-1.35.64,3,3,0,0,1-.93.3.66.66,0,0,0-.49.18A.17.17,0,0,0,81,57c.37.35.93.08,1.34-.11a4.74,4.74,0,0,0,1.54-1.07.11.11,0,0,0-.11-.19Z"/><path class="cls-7" d="M82.55,56.76A5.66,5.66,0,0,0,83.63,56c.11-.12,0-.37-.18-.3a5.7,5.7,0,0,0-1.11.72c-.23.16,0,.53.21.37Z"/><path class="cls-7" d="M82.57,56.53a4.41,4.41,0,0,0,.72-.5c.24-.21-.12-.57-.36-.36a3.2,3.2,0,0,1-.61.43c-.28.15,0,.59.25.43Z"/><path class="cls-7" d="M82.73,56.06a7,7,0,0,0-.92.27c-.2.09-.09.38.11.39a2.39,2.39,0,0,0,1-.3c.2-.09.05-.43-.15-.36Z"/><path class="cls-7" d="M81.57,52.11c.13-.43.12-.89.24-1.33a4.17,4.17,0,0,1,.71-1.41c.24-.31-.19-.74-.43-.43-.64.81-1.28,2.18-.78,3.2,0,.12.23.08.26,0Z"/><path class="cls-7" d="M81.66,49.38a2.32,2.32,0,0,0-.52,1.11c0,.2.28.26.37.1.18-.33.29-.68.5-1s-.19-.41-.35-.21Z"/><path class="cls-7" d="M82.32,49.43c.53.52,1.09,1,1.64,1.54.22.19.59-.06.42-.33a4.43,4.43,0,0,0-1.77-1.58c-.23-.11-.49.17-.29.37Z"/><path class="cls-7" d="M80.86,57c.27,2.49,1.73,8.12-.93,9.8-.2.13-.07.49.16.4,1.24-.52,1.56-1.53,1.78-2.81a15.25,15.25,0,0,0-.41-7.47c-.1-.31-.64-.28-.6.08Z"/><path class="cls-7" d="M84.67,55.84a2.43,2.43,0,0,0-.8,3.1c.46,1,1.66,3,2.94,3.1.29,0,.33-.36.13-.5a9.57,9.57,0,0,1-2-2.29,2.54,2.54,0,0,1,0-3.2.16.16,0,0,0-.22-.21Z"/><path class="cls-7" d="M64.59,73.81A7.57,7.57,0,0,0,71.36,75c.15,0,.14-.3,0-.29a12.25,12.25,0,0,1-3.82-.15,22.21,22.21,0,0,0-2.85-.86c-.07,0-.11.1-.06.15Z"/><path class="cls-7" d="M58.84,68.13a2,2,0,0,0,.29,2,1.42,1.42,0,0,0,.83.36c.48.07,1,.11,1.44.17.23,0,.28-.35.05-.4a7.35,7.35,0,0,1-1.68-.4c-.68-.33-.48-1.1-.51-1.71a.22.22,0,0,0-.42-.06Z"/><path class="cls-7" d="M64.42,64.79l0,0a.29.29,0,0,0,.27,0A7.6,7.6,0,0,1,66.05,64c.37-.18.9-.23,1.13-.58a.18.18,0,0,0-.07-.25c-.41-.2-.89.1-1.28.28a6.24,6.24,0,0,0-1.42.91.25.25,0,0,0-.07.26s0,.1.08.13Z"/><path class="cls-4" d="M74.88,76.3a17.28,17.28,0,0,0,.44,2.14,3.26,3.26,0,0,0,1.14,1.38c1,.71,2.89,1.33,4,.57a.36.36,0,0,0,0-.61c-1.08-.65-2.43-.23-3.49-1.09-.89-.72-.82-1.92-1.65-2.63-.18-.16-.51,0-.42.24Z"/><path class="cls-4" d="M88.83,71.39c.54.22,1.59.47,2-.09a.17.17,0,0,0-.09-.25,1.64,1.64,0,0,0-.73,0A2.5,2.5,0,0,1,89,71c-.28-.09-.38.33-.12.44Z"/><path class="cls-4" d="M81,68.71c.47.17.94.31,1.42.46a4.37,4.37,0,0,1,1,.55.1.1,0,0,0,.14-.09c0-.4-.4-.6-.74-.74a9.74,9.74,0,0,0-1.75-.51.17.17,0,0,0-.09.33Z"/><path class="cls-4" d="M90.37,68.28a6.07,6.07,0,0,0,1.22-1.15.15.15,0,0,0-.2-.2,5.5,5.5,0,0,0-1.23,1.13.15.15,0,0,0,.21.22Z"/><path class="cls-4" d="M79.73,91.08c.26.4.91,1.15,1.45,1a.16.16,0,0,0,.1-.22c-.12-.23-.29-.26-.5-.39a4.23,4.23,0,0,1-.74-.6c-.15-.16-.44,0-.31.24Z"/><path class="cls-4" d="M78.82,94.72A2.08,2.08,0,0,0,80,96.2c.46.24,1.29.49,1.71,0a.21.21,0,0,0-.09-.34,1.87,1.87,0,0,0-.58,0,2,2,0,0,1-.81-.21,2.13,2.13,0,0,1-1-1.1c-.1-.22-.41,0-.37.16Z"/><path class="cls-4" d="M78.33,99a1.44,1.44,0,0,0,1.76.54.19.19,0,0,0-.1-.36,1.57,1.57,0,0,1-1.39-.39c-.13-.13-.38,0-.27.21Z"/><path class="cls-4" d="M86.93,91c.72.37,2.23-.43,2.09-1.31,0-.12-.16-.13-.23-.07a3.67,3.67,0,0,1-.94.72c-.32.14-.71.14-.95.41a.16.16,0,0,0,0,.25Z"/><path class="cls-4" d="M87.8,93.5c.43-.27.93-.77.79-1.33a.17.17,0,0,0-.31,0c-.25.41-.27.82-.64,1.17a.13.13,0,0,0,.16.2Z"/><path class="cls-4" d="M87.46,98.51c.56,0,1.23-.71,1-1.27a.18.18,0,0,0-.26-.11c-.4.25-.4.78-.86,1-.2.09-.09.37.1.38Z"/><path class="cls-4" d="M84.6,93.81a8.23,8.23,0,0,0,.08,1.57.17.17,0,0,0,.32,0,2,2,0,0,0,0-1.67c-.08-.21-.43-.2-.42.06Z"/><path class="cls-4" d="M84.72,90.75a12,12,0,0,1-.18,1.6.23.23,0,0,0,.39.16,2.08,2.08,0,0,0,.33-1.83c-.06-.3-.57-.24-.54.07Z"/><path class="cls-4" d="M84,98.19A2.26,2.26,0,0,1,84,99a1.3,1.3,0,0,0,0,.55.21.21,0,0,0,.3.12c.61-.28.46-1.31.12-1.74-.18-.23-.46,0-.43.25Z"/><path class="cls-4" d="M75,94.39a.05.05,0,1,0,0-.1.05.05,0,0,0,0,.1Z"/><path class="cls-4" d="M75.22,94.31c.15-.33.32-.66.5-1a5.34,5.34,0,0,0,.5-.86c.08-.22-.22-.37-.37-.22a5.54,5.54,0,0,0-1,1.9c-.09.22.28.38.39.16Z"/><path class="cls-4" d="M73.31,90.88c.5.07,1.2.13,1.57-.28a.28.28,0,0,0-.12-.46,4.61,4.61,0,0,0-1.45.25.25.25,0,0,0,0,.49Z"/><path class="cls-4" d="M74.19,87.61a2.38,2.38,0,0,0,1.76,0c.17-.1.16-.41,0-.44-.54-.09-1.11.07-1.66,0a.2.2,0,0,0,0,.39Z"/><path class="cls-4" d="M74.24,85.61l1.22-.25c.35-.07.55-.07.75-.37a.2.2,0,0,0-.08-.28c-.3-.18-.5-.07-.84,0l-1.2.33a.29.29,0,0,0,.15.55Z"/><path class="cls-4" d="M69.81,80.77a11,11,0,0,0,1,8.59.3.3,0,0,0,.54-.23,35,35,0,0,1-1.09-4.32,37.74,37.74,0,0,1,0-4,.22.22,0,0,0-.42-.06Z"/><path class="cls-4" d="M67.88,101.75a31,31,0,0,0,1.66-2.7,5.44,5.44,0,0,0,1-2.41.22.22,0,0,0-.37-.15,8.17,8.17,0,0,0-1.35,2.33c-.48.87-1,1.72-1.56,2.55-.28.41.38.78.65.38Z"/><path class="cls-4" d="M93.2,107.89a15.45,15.45,0,0,1,2.34.23,7.46,7.46,0,0,0,2.08.33c.14,0,.27-.19.13-.3a5.83,5.83,0,0,0-2.83-.75c-.6-.09-1.51-.37-1.84.28a.14.14,0,0,0,.12.21Z"/><path class="cls-4" d="M98.4,109.55a6.53,6.53,0,0,0,1.65.19,7.63,7.63,0,0,1,1.7.53c.35.1.73-.33.5-.65-.76-1.06-2.87-1.17-3.9-.48a.23.23,0,0,0,.05.41Z"/><path class="cls-4" d="M108.68,111.35c3.06-.64,6.78.54,9.78,1.05.32,0,.6-.43.25-.58a16.26,16.26,0,0,0-5.12-1,14,14,0,0,0-5,0,.27.27,0,0,0,.14.52Z"/><path class="cls-4" d="M118.44,114.19a24,24,0,0,0,3.36,1.09,17.91,17.91,0,0,0,3.44.88c.3,0,.39-.41.15-.55a14.1,14.1,0,0,0-3.37-1.14,17.81,17.81,0,0,0-3.47-.71c-.22,0-.32.34-.11.43Z"/><path class="cls-4" d="M136.28,117.81c2.77-.91,5.66-1,8.45-1.83.09,0,.08-.19,0-.18-2.51.27-6.75-.4-8.65,1.63-.15.16,0,.46.22.38Z"/><path class="cls-4" d="M145.71,115.32a.05.05,0,0,0,0-.1.05.05,0,1,0,0,.1Z"/><path class="cls-4" d="M150.11,112.71a2.4,2.4,0,0,0,1.53-1.83.21.21,0,0,0-.31-.18,7.82,7.82,0,0,0-.72.69c-.27.25-.57.47-.86.7a.37.37,0,0,0,.36.62Z"/><path class="cls-4" d="M151.32,114.65a2.2,2.2,0,0,0,.71-.41c.24-.24,0-.56-.31-.52a2.41,2.41,0,0,0-.76.32c-.4.22-.05.79.36.61Z"/><path class="cls-4" d="M152.08,116.57c.14-.1.29-.15.44-.24a.25.25,0,0,0-.13-.46.83.83,0,0,0-.65.27c-.23.2.08.61.34.43Z"/><path class="cls-4" d="M152.62,118.64a1.74,1.74,0,0,0,.86-.3.32.32,0,0,0-.14-.53,1.59,1.59,0,0,0-.9.18.34.34,0,0,0,.18.65Z"/><path class="cls-4" d="M151.67,120.63l.43.05c.66.09.77-.9.12-.9a2.76,2.76,0,0,0-.65.09c-.46.11-.31.72.1.76Z"/><path class="cls-4" d="M99.53,87.29a5.61,5.61,0,0,0,1.18.51.65.65,0,0,0,.35-1.25,5.59,5.59,0,0,0-1.28-.2.51.51,0,0,0-.25.94Z"/><path class="cls-4" d="M102.89,87.17A36.34,36.34,0,0,1,111,84a.18.18,0,0,0-.05-.35,14.21,14.21,0,0,0-8.31,3.13c-.2.16,0,.5.21.36Z"/><path class="cls-4" d="M109.66,92.66a8.36,8.36,0,0,0,3.15-1,4.53,4.53,0,0,0,2.32-1.86c.08-.18-.13-.32-.28-.29A10.94,10.94,0,0,0,112.39,91c-.91.49-1.88.86-2.84,1.28-.19.08-.09.41.11.4Z"/><path class="cls-4" d="M140.42,74.38a7.11,7.11,0,0,1,2.05.41c.55.27,1,.75,1.62.78a.3.3,0,0,0,.28-.29c.08-.85-.86-1.35-1.53-1.62a3.34,3.34,0,0,0-2.52-.09.45.45,0,0,0,.1.81Z"/><path class="cls-4" d="M136,77.44a14,14,0,0,0,1.58-2.72c.07-.22-.25-.42-.39-.23a27.12,27.12,0,0,0-1.65,2.68c-.19.3.27.56.46.27Z"/><path class="cls-4" d="M141.11,76.49l-.58.36a.15.15,0,0,0,.15.26l.61-.3c.21-.11,0-.44-.18-.32Z"/><path class="cls-4" d="M138.15,78.1A6.77,6.77,0,0,0,136.82,80c-.08.22.23.36.38.22a16.5,16.5,0,0,0,1.39-1.82c.19-.25-.23-.58-.44-.34Z"/><path class="cls-4" d="M131.73,81.47a.05.05,0,0,0,0-.1c-.06,0-.07.1,0,.1Z"/><path class="cls-4" d="M130.6,82a2.68,2.68,0,0,0,1.64-.26,2.83,2.83,0,0,0,1.41-.82.35.35,0,0,0-.29-.51,2.26,2.26,0,0,0-1.28.45,5.15,5.15,0,0,1-1.48.61c-.27,0-.26.47,0,.53Z"/><path class="cls-4" d="M139.21,70.71a1.72,1.72,0,0,0,1.37-.25.33.33,0,0,0-.07-.54,1.78,1.78,0,0,0-1.46.21c-.31.13-.11.56.16.58Z"/><path class="cls-4" d="M141.72,71.16a1.36,1.36,0,0,0,.35.24.47.47,0,0,0,.54-.07l.07-.08a.32.32,0,0,0,0-.45c-.17-.22-.34-.19-.58-.29s-.67.41-.38.65Z"/><path class="cls-4" d="M144,71.77a.81.81,0,0,0,.36.45c.55.4,1-.72.36-.84a.77.77,0,0,0-.58.05.3.3,0,0,0-.14.34Z"/><path class="cls-4" d="M145.6,73.25a.66.66,0,0,0,.5.36.28.28,0,0,0,.34-.35c0-.27-.13-.34-.35-.51s-.71.22-.49.5Z"/><path class="cls-4" d="M146.83,75.39l0,.1a.42.42,0,0,0,.84,0,.6.6,0,0,0-.35-.62c-.3-.17-.76.2-.52.52Z"/><path class="cls-4" d="M90.83,52.93v0a.26.26,0,0,0-.38-.16c-.44.2-.07.92.09,1.21a2.48,2.48,0,0,0,1.25,1.26c.27.08.56-.25.38-.49s-.52-.49-.76-.77c-.1-.11-.64-.75-.58-.91l-.32.18h0a.25.25,0,0,0,.3-.3Z"/><path class="cls-4" d="M84.85,56.27A3.63,3.63,0,0,0,85,58.78c.21.65.45,1.53,1.1,1.86.1,0,.26,0,.22-.17-.22-.63-.61-1.18-.8-1.83a5.51,5.51,0,0,1-.31-2.31c0-.24-.31-.24-.39-.06Z"/><path class="cls-4" d="M90.9,41.84a2.6,2.6,0,0,1,1.41-.78c.36-.11,1.14-.4,1.5-.24.18.08.42,0,.35-.27-.23-.72-1.42-.25-1.9-.1-.66.21-1.62.5-1.7,1.29,0,.2.25.23.34.1Z"/><path class="cls-4" d="M98,44.71c1,1.09,4,2.65,5.37,1.28a.13.13,0,0,0-.09-.22,13.54,13.54,0,0,1-2.69-.2,11.86,11.86,0,0,1-2.32-1.2.22.22,0,0,0-.27.34Z"/><path class="cls-4" d="M133,1.59a18.52,18.52,0,0,0,.57,17.62.29.29,0,0,0,.5-.29,21.81,21.81,0,0,1-.8-17.22.15.15,0,0,0-.27-.11Z"/><path class="cls-4" d="M149.68,52.57a69.47,69.47,0,0,1,3.43,18c.26,6.22-.73,12.15-1.76,18.25a.26.26,0,0,0,.49.14c3.85-11.34,2.63-25.5-1.71-36.52-.11-.26-.54-.16-.45.13Z"/><path class="cls-4" d="M145.66,101c-2.73,4.58-5.28,9.28-6.43,14.52-.09.43.55.61.65.18,1.23-5.16,3.69-9.81,6.11-14.5.11-.22-.21-.41-.33-.2Z"/><path class="cls-4" d="M138.56,127.68c.31,5.4,2.92,12.36,9.18,13,.42,0,.47-.59.1-.7-5.87-1.75-7.93-6.68-8.82-12.32,0-.26-.47-.2-.46.06Z"/><path class="cls-4" d="M91.25,89.46c.4-.41,1.1-.91,1.19-1.5,0-.19-.13-.45-.36-.36-.6.24-.93,1-1.27,1.52a.28.28,0,0,0,.44.34Z"/><path class="cls-4" d="M95.66,88.06l1-.5a1.38,1.38,0,0,0,.7-.5.24.24,0,0,0-.21-.36,1.5,1.5,0,0,0-.83.28l-1,.51c-.38.19,0,.75.33.57Z"/><path class="cls-4" d="M96.64,90.21a1.44,1.44,0,0,0,1.13-.58.19.19,0,0,0-.21-.27c-.34.1-.63.29-1,.36s-.22.53.06.49Z"/><path class="cls-4" d="M97.62,93.72c.73.09,1.92,0,2.24-.82a.31.31,0,0,0-.3-.39,3.09,3.09,0,0,0-.84.36,3,3,0,0,1-1.1.28.29.29,0,0,0,0,.57Z"/><path class="cls-4" d="M99.21,97.84a6,6,0,0,0,2.3.2.36.36,0,0,0,.09-.65,6.38,6.38,0,0,0-2.31-.19c-.35,0-.45.59-.08.64Z"/><path class="cls-4" d="M94.51,101.84a11,11,0,0,1,1.29.28,1.34,1.34,0,0,0,1,.06.31.31,0,0,0,.11-.43c-.24-.35-.57-.38-1-.45a12,12,0,0,0-1.32-.18c-.41,0-.51.65-.1.72Z"/><path class="cls-4" d="M85.34,115.3a10,10,0,0,0,1.54-.43c.41-.16.81-.31,1-.75a.32.32,0,0,0-.21-.37,1.69,1.69,0,0,0-1.2.32l-1.34.68c-.33.16-.09.62.23.55Z"/><path class="cls-4" d="M83.2,121.94c.18.55.43,1.08.63,1.62a5.65,5.65,0,0,0,.59,1.48.16.16,0,0,0,.3-.08,3.41,3.41,0,0,0-.42-1.6,6.25,6.25,0,0,0-.86-1.56c-.09-.11-.28,0-.24.14Z"/><path class="cls-4" d="M80.4,126.29c.18.33.39.65.54,1s.15.61.39.82a.2.2,0,0,0,.34-.09c.24-.62-.48-1.6-.93-2a.22.22,0,0,0-.34.26Z"/><path class="cls-4" d="M64.62,103.88a4.8,4.8,0,0,0-1.8,2.75,38.71,38.71,0,0,0-1.29,5.28.21.21,0,0,0,.41.12c1.1-2.64,1.37-5.39,3.06-7.77.16-.23-.15-.53-.38-.38Z"/><path class="cls-4" d="M64.43,116.22c0,.44.16,1.08.68,1.11a.13.13,0,0,0,.11-.2c-.2-.34-.47-.46-.48-.91a.16.16,0,0,0-.31,0Z"/><path class="cls-4" d="M78.11,111c.61.1,1.78.14,2.21-.4a.28.28,0,0,0-.13-.46,1.76,1.76,0,0,0-1,.06c-.37.08-.75.13-1.12.23s-.3.52,0,.57Z"/><path class="cls-4" d="M80.52,116.19a2,2,0,0,0,.94.34.24.24,0,0,0,.17-.4,2.07,2.07,0,0,0-.89-.47c-.3-.12-.52.39-.22.53Z"/><path class="cls-4" d="M73.36,116a1.32,1.32,0,0,0,.94.81c.17,0,.29-.16.3-.3.05-.51-.53-.9-1-1-.25,0-.34.27-.26.45Z"/><path class="cls-4" d="M87.73,104.79a3.47,3.47,0,0,0,1.06.14.32.32,0,0,0,.08-.63,3.41,3.41,0,0,0-1.06-.08.29.29,0,0,0-.08.57Z"/><path class="cls-4" d="M90.62,100a8,8,0,0,1,.39,2.21,3.72,3.72,0,0,0,.1,1.6.17.17,0,0,0,.28,0,2.31,2.31,0,0,0,.34-1.77,7.75,7.75,0,0,0-.5-2.24c-.14-.38-.74-.23-.61.16Z"/><path class="cls-8" d="M74.38,111.72a8.4,8.4,0,0,1,1.21,1.09l.17-.64a1.8,1.8,0,0,0-1,.38.34.34,0,0,0,.15.56,1.79,1.79,0,0,0,1.08-.2.39.39,0,0,0,.09-.7,8.94,8.94,0,0,0-1.37-.89c-.24-.12-.55.21-.31.4Z"/><path class="cls-8" d="M63.87,116.22a3,3,0,0,0,.24,1.57c.18.4.48.93,1,1,.15,0,.33-.1.27-.26-.13-.37-.46-.62-.64-1a2.48,2.48,0,0,1-.26-1.36c0-.37-.52-.35-.56,0Z"/><path class="cls-8" d="M73.35,117.24a2.44,2.44,0,0,0,1.44.29.23.23,0,0,0,.1-.38,2.64,2.64,0,0,0-1.47-.43c-.31,0-.32.42-.07.52Z"/><path class="cls-8" d="M80.13,117.42a4.59,4.59,0,0,0,2.06-.1c.2-.1.12-.37,0-.44a4.71,4.71,0,0,0-2.07.13c-.24,0-.17.4.06.41Z"/><path class="cls-8" d="M79.7,111.71a1.64,1.64,0,0,0,.91-1.46.21.21,0,0,0-.35-.09,3.46,3.46,0,0,0-.36.62c-.14.23-.32.43-.48.65s.11.36.28.28Z"/><path class="cls-8" d="M88.58,105.85a4.67,4.67,0,0,0,.86-.8c.14-.2-.13-.42-.31-.32a5.1,5.1,0,0,0-.91.76c-.24.23.12.57.36.36Z"/><path class="cls-8" d="M89.47,100.14a8.7,8.7,0,0,1,.89,2.84,12.56,12.56,0,0,1-.16,2.45c0,.22.32.29.41.11a5.55,5.55,0,0,0-.7-5.75c-.22-.27-.56.08-.44.35Z"/><path class="cls-8" d="M95.23,93.78a1.1,1.1,0,0,0,1.21.17.29.29,0,0,0,0-.5,1.73,1.73,0,0,0-1.1-.11.27.27,0,0,0-.11.44Z"/><path class="cls-8" d="M98.33,94.61a11.49,11.49,0,0,0-1,1.94.2.2,0,0,0,.28.22,3.81,3.81,0,0,0,1.22-2c.11-.29-.37-.49-.5-.21Z"/><path class="cls-8" d="M66.45,109.08a8.81,8.81,0,0,0-.27,1.77c0,.26.34.33.47.12l.33-.55-.47-.13a2.5,2.5,0,0,0,.95,1.89.22.22,0,0,0,.3-.3,4,4,0,0,1-.74-1.59.26.26,0,0,0-.48-.13l-.33.56.47.13a14.87,14.87,0,0,1,.18-1.65c0-.27-.34-.39-.41-.12Z"/><path class="cls-8" d="M71.25,121.25a2.82,2.82,0,0,0,.89,1.78.39.39,0,0,0,.59-.07c0-.12.1-.24.16-.36l-.63.08c.39.45.81,1.1,1.39,1.3a.32.32,0,0,0,.39-.4c-.15-.58-.8-1.06-1.22-1.46a.4.4,0,0,0-.66.17l-.11.38.62-.16a2.2,2.2,0,0,1-.78-1.35c-.07-.35-.69-.27-.64.09Z"/><path class="cls-8" d="M71.94,125.37c1.93,2.51,6.31,2.9,9.24,2.92.27,0,.35-.44.07-.49-2.82-.46-6.92-.31-8.9-2.75-.19-.23-.6.08-.41.32Z"/><path class="cls-8" d="M69.08,126.38a2.35,2.35,0,0,0,1.17,1.54,9.24,9.24,0,0,0,2.66,1.34c.38.12.52-.44.16-.58a12.15,12.15,0,0,1-2.16-1.09,6.42,6.42,0,0,1-1.43-1.37.24.24,0,0,0-.4.16Z"/><path class="cls-8" d="M64.57,124.8c1.15,1.22,2.84,2.74,4.55,3a.23.23,0,0,0,.17-.43c-.69-.46-1.52-.75-2.23-1.2a12.46,12.46,0,0,1-2.15-1.75c-.22-.23-.55.11-.34.34Z"/><path class="cls-8" d="M60.76,119c.07,2.78.84,6.28,3.06,8.17.34.28.82-.2.48-.48-2.1-1.76-2.82-5.09-3-7.69a.27.27,0,0,0-.53,0Z"/><path d="M106.42,45.1c-.44,1.07.23,2.25.6,3.25,0,.13.28.12.26,0-.13-1.1-1-2-.63-3.15,0-.14-.17-.2-.23-.06Z"/><path d="M103.2,49.5c-.2.43.18,1.15.71.93a.1.1,0,0,0,0-.19c-.33-.08-.62-.25-.5-.66a.11.11,0,0,0-.21-.08Z"/><path d="M103.86,50.43a6.1,6.1,0,0,1,5-.62c.12,0,.21-.15.09-.21a4.92,4.92,0,0,0-5.22.66c-.1.08,0,.23.13.17Z"/><path d="M103.38,49.62c1.5-.45,4.1-1.86,5.23-.15a.14.14,0,0,0,.25-.14c-1-2.15-4.06-.53-5.54.07-.13.06-.09.27.06.22Z"/><path d="M107.21,49.41c-.09.42-.1.86-.15,1.29,0,.12.17.15.23.06a1.74,1.74,0,0,0,.22-1.35c-.05-.13-.27-.15-.3,0Z"/><path d="M106.47,50.48c0,.24.24.28.41.43a2,2,0,0,1,.5,1c0,.09.18.13.22,0,.31-.67-.27-1.4-.88-1.65a.2.2,0,0,0-.19.06s-.07,0-.06.09Z"/><path d="M103.33,52.14c1.35-.67,2.43-1.12,3.82-.32a.12.12,0,0,0,.17-.16c-.92-1.49-3.08-.52-4.18.15a.19.19,0,0,0,.19.33Z"/><path d="M104.78,51.43c-.84.42-.11,1.5.5,1.72A1.83,1.83,0,0,0,107.49,52c.05-.12-.13-.22-.22-.12-.36.45-.69.95-1.32,1s-1.76-.64-1-1.24c.13-.11,0-.29-.17-.22Z"/><path d="M107.31,52.22a6.8,6.8,0,0,1-.58,1.1c-.24.34-.55.61-.8.94-.06.08,0,.17.13.13a3.46,3.46,0,0,0,1.41-2.1c0-.1-.12-.17-.16-.07Z"/><path d="M105.73,55.19c.18,1.55-.67,2.59-1.63,3.68a.13.13,0,1,0,.19.19c1-1,2.19-2.37,1.71-3.91,0-.14-.29-.12-.27,0Z"/><path d="M100.07,56.86a2.63,2.63,0,0,0,2.38-.68c0-.07,0-.14-.1-.13a10.19,10.19,0,0,0-1.12.42c-.38.11-.79.11-1.16.24a.08.08,0,0,0,0,.15Z"/><path d="M102.29,56.11a3.23,3.23,0,0,1-.78-.74,5,5,0,0,0-.45-.65.21.21,0,0,0-.34.2c.12.64.89,1.16,1.45,1.4a.12.12,0,0,0,.12-.21Z"/><path d="M103.42,59.39l.09.07s.08,0,.06-.05l-.07-.1a.06.06,0,1,0-.08.08Z"/><path d="M103.06,59.57a1.59,1.59,0,0,0,.8,1.73c.09,0,.18-.09.12-.16a2.38,2.38,0,0,1-.67-1.53.13.13,0,0,0-.25,0Z"/><path d="M103.58,61.17l-.37.43-.25,0a3.38,3.38,0,0,1-.42-.13,8.42,8.42,0,0,1-.86-.4.15.15,0,0,0-.15.26,2.93,2.93,0,0,0,2,.55.51.51,0,0,0,.25-.86c-.13-.12-.31.06-.19.18Z"/><path d="M101.76,60.86c-1.5-.48-3.07-.69-4.57-1.15a41,41,0,0,1-4.79-2.12c-.15-.06-.33.12-.19.25,2.3,2.1,6.45,3.27,9.5,3.37.21,0,.23-.29.05-.35Z"/><path d="M91.91,57.47c-1.33.78,1,3.16,1.64,3.71a47.09,47.09,0,0,0,3.85,3.21c.43.32.88.52,1.33.8a1.73,1.73,0,0,0,.52.14c.17,0,.24.15.22.41a.11.11,0,0,0-.11.2,1.58,1.58,0,0,0,1.67.17.14.14,0,0,0,.08-.2c-.29-.56-.43-.6-1-.79a13.5,13.5,0,0,1-1.67-.39,10,10,0,0,1-1.73-1.31c-.65-.54-6.2-4.66-4.69-5.83.07-.05,0-.16-.09-.12Z"/><path d="M84.71,55.9c-2.31,3.23,2.36,6.12,4.71,7.43,2.82,1.56,7,5.78,10.32,3.31.15-.11,0-.36-.15-.25-3,2.14-6.15-1.25-8.66-2.66s-8.06-3.81-6.1-7.76a.07.07,0,0,0-.12-.07Z"/><path d="M89.82,53.05c-.19.56.34,1.35.71,1.74a2.25,2.25,0,0,0,1.73.8.14.14,0,0,0,0-.25,5.65,5.65,0,0,1-1.47-.84,2.57,2.57,0,0,1-.53-.74A6.81,6.81,0,0,0,90,53a.1.1,0,0,0-.17,0Z"/><path d="M98.68,48.13c-.24.41-3-1.62-3.56-1.77a7.46,7.46,0,0,0-3.18.2.07.07,0,0,0,0,.14c.79.11,1.51-.19,2.29-.15,1.4.08,2.2,1.08,3.26,1.81.51.36,1.21.66,1.47-.12a.15.15,0,0,0-.28-.11Z"/><path d="M92,46.58a4.11,4.11,0,0,1,1.26-.66c.41-.13.85-.12,1.25-.25a.1.1,0,0,0,0-.2,3.36,3.36,0,0,0-2.66.9c-.12.09,0,.3.15.21Z"/><path d="M94.77,45.54A6.9,6.9,0,0,1,96.85,47a6.46,6.46,0,0,0,1,.61c.26.13,1.2.34.92.81,0,.07.06.16.12.09.59-.68-.71-1.08-1.11-1.3-1-.54-1.82-1.68-3-1.82-.11,0-.13.17,0,.2Z"/><path d="M97.26,50.47a.05.05,0,1,0,0-.1.05.05,0,1,0,0,.1Z"/><path d="M97.3,50.51c.32-1.39-1.56-2.28-2.65-2.56a3.44,3.44,0,0,0-4.09,1.45.12.12,0,0,0,.21.13,3.38,3.38,0,0,1,4-1.14,4.21,4.21,0,0,1,2.48,2.13,0,0,0,0,0,.07,0Z"/><path d="M93.17,48.11a1.22,1.22,0,0,0-.93,1.38,1.79,1.79,0,0,0,1.35,1.4c1.24.36,3.55-.51,2.54-2.12a.16.16,0,0,0-.27.16c.68,1.24-1.15,1.84-2,1.64-1.13-.24-1.81-1.65-.55-2.25.13-.06,0-.23-.09-.21Z"/><path d="M92.37,52.18c1.41.2,3.46.52,4.59-.58a.09.09,0,0,0-.08-.15,10,10,0,0,1-2.29.53,16,16,0,0,1-2.19-.08c-.15,0-.19.26,0,.28Z"/><path d="M96.52,51.71a5.2,5.2,0,0,1-2.37,1.55c-.05,0-.05.11,0,.1a4,4,0,0,0,2.48-1.53c.06-.09-.06-.21-.13-.12Z"/><path d="M103.16,53.46a4.81,4.81,0,0,0,1.41.89,3.08,3.08,0,0,0,1.46.45.13.13,0,0,0,.06-.24,6.29,6.29,0,0,0-1.43-.61c-.47-.21-.91-.49-1.4-.66-.1,0-.17.1-.1.17Z"/><path d="M103.07,53.75c.38.54,1.21,1.48,2,1.39a.1.1,0,0,0,.08-.17,4.12,4.12,0,0,0-.88-.53,3.81,3.81,0,0,1-.92-.87c-.1-.13-.33,0-.23.18Z"/><path d="M84.68,49.06a3.33,3.33,0,0,0-3-2.53,2.43,2.43,0,0,0-2.57,2.23,4.82,4.82,0,0,0,1.58,4.43c.85.82,1.74,3,3.24,2.38.18-.07.1-.36-.08-.29-.83.33-3.61-2.91-4-3.62-.47-.87-.87-2.75-.14-3.61a2.49,2.49,0,0,1,2.85-.51c.79.34,1.52.68,1.8,1.61a.16.16,0,0,0,.3-.09Z"/><path d="M81.23,48.38a4.78,4.78,0,0,1,3,3.39.11.11,0,0,0,.22,0,4.21,4.21,0,0,0-3.19-3.65.15.15,0,0,0-.08.29Z"/><path d="M82.2,48.71c-1.47.57-1.69,2.48-1,3.75.06.09.23,0,.22-.06-.16-1.26-.62-2.77.88-3.43.15-.07,0-.32-.11-.26Z"/><path d="M84.91,50.09a15,15,0,0,0,.71,2.57c0,.05.1,0,.1,0a14.6,14.6,0,0,0-.59-2.6.11.11,0,0,0-.22.06Z"/><path d="M86.43,52.82a7.7,7.7,0,0,0,1.7-.63c.11-.06,0-.2-.08-.18a7.35,7.35,0,0,0-1.67.63c-.11,0-.07.23.05.18Z"/><path d="M88.22,51.75a16,16,0,0,0-.94-3.15c-.28-1-.12-2.15-.71-3.09a.16.16,0,0,0-.27.16c.45,1,.29,2.17.64,3.23s.82,1.88,1.12,2.87c0,.08.17.07.16,0Z"/><path d="M86.69,45.35a2.45,2.45,0,0,1,1-.33c.27,0,.53,0,.8,0a.07.07,0,0,0,0-.14,2,2,0,0,0-2,.28.09.09,0,0,0,.09.16Z"/><path d="M88.41,44.94c1.59-2.17,2.85-5.61,6.33-4,1.39.65,2.47,1.7,4,1.94a.05.05,0,0,0,0-.1c-2-.79-4.17-3.05-6.48-2.62-2.07.37-3.2,3.08-4,4.72a.06.06,0,0,0,.11.06Z"/><path d="M98.11,43a17.58,17.58,0,0,0,4.53.95c.17,0,.21-.26,0-.29-1.49-.34-3-.55-4.49-1a.16.16,0,0,0-.08.3Z"/><path d="M102.48,44.14a5.17,5.17,0,0,1,2.92.13c.52.26.81.81,1.4.88a.1.1,0,0,0,.07-.17,4.5,4.5,0,0,0-1.76-1.33,4.86,4.86,0,0,0-2.67.17c-.17,0-.15.34,0,.32Z"/><path d="M106.19,43.86c-2.24-4.14-5-8.45-8.93-11.23-4.12-2.94-10-4.28-15-4.34-1.67,0-10.11.24-9,3.39.4,1.13,1.7,1.29,2.69,1.1,1.42-.26,2.69-1,4.14-1.19a14.08,14.08,0,0,1,5.63.36.15.15,0,0,0,.08-.29,12.41,12.41,0,0,0-4.92-.54,12.14,12.14,0,0,0-2.07.37c-.62.16-2,1-2.59.89-1.55-1.76-1.56-2.73,0-2.89l.85-.22a18.46,18.46,0,0,1,4.32-.42,31.75,31.75,0,0,1,6.58.81c4,.89,7.88,2.3,11,5.15,2.87,2.66,4.85,6,7.07,9.15a.1.1,0,0,0,.17-.1Z"/><path d="M86.3,31.48c-5.79,4-12.73,2.79-18.93.5-.31-.12-.45.38-.14.49,6.29,2.24,13.4,3.3,19.16-.83.1-.07,0-.23-.09-.16Z"/><path d="M64.55,31.41a2.72,2.72,0,0,0-3.14.74c-.09.14.08.29.22.22A6,6,0,0,1,63,31.69a5.46,5.46,0,0,1,1.51,0,.14.14,0,0,0,.07-.26Z"/><path d="M68.58,35.8A7.26,7.26,0,0,0,74,36c.08,0,0-.17,0-.16a11.84,11.84,0,0,1-5.26-.23c-.15,0-.2.18-.07.23Z"/><path d="M72.91,36.14c-.56-.39-1.39.16-1.93.36-1.19.44-2.37.9-3.56,1.3-.21.07-.11.4.08.32.85-.35,1.71-.66,2.56-1,.52-.2,2.21-1.13,2.72-.78.14.09.26-.13.13-.22Z"/><path d="M59.91,36.13a15.34,15.34,0,0,0-10.71-1c-2.87.68-6.88,2.08-7.84,5.24-.47,1.53.17,3.27,2,2.76,1.57-.44,2.74-2.24,4.18-3a12.48,12.48,0,0,1,7.25-1.33c.23,0,.22-.33,0-.36a12.41,12.41,0,0,0-6.06.74,12,12,0,0,0-3,1.67,9.16,9.16,0,0,1-.91.76l-.52.47q-3.57-1.05-2-2.72c1.45-2.48,5.16-3.53,7.79-4a16.51,16.51,0,0,1,9.69,1c.14.06.23-.17.1-.24Z"/><path d="M54.27,41.48c-3.69.2-6.17,2.9-8.87,5.1A13.3,13.3,0,0,1,41.46,49a20.53,20.53,0,0,0-2.08.56c-.75.35-1.47,1-1.13,1.9.83,2.17,5.55.75,7,.15,4.68-2,8.13-6.38,13.45-6.78.27,0,.27-.44,0-.42-6.38.48-10.11,6.78-16.31,7.65a5.52,5.52,0,0,1-1.57.11l-.64-2.49c.1-.13,2-.56,2.13-.64A13.74,13.74,0,0,0,45,47.34c3-2.27,5.34-5.09,9.26-5.58.17,0,.18-.29,0-.28Z"/><path d="M59.33,46.58c-3.4,3.81-7,7.46-11.89,9.24-1.84.66-8.37,1.07-7.93,4.39.77,5.77,17.25-7,18.94-8.16.19-.13,0-.43-.17-.3-3.1,2.16-6.14,4.43-9.32,6.45-1.35.87-4.18,2.95-5.82,2.93l-.59.16q-4-2.58-.46-3.54a22.15,22.15,0,0,1,2.38-.67A27.84,27.84,0,0,0,59.53,46.79c.12-.15-.08-.35-.2-.21Z"/><path d="M57,57.8c-3.3,1.66-7.22,3.05-10.1,5.39-1.36,1.1-3.57,3.67-2.69,5.65.73,1.66,2.82,1.66,4.15.82a9.17,9.17,0,0,0,2.37-2.74,9.87,9.87,0,0,1,5.75-4.33.17.17,0,0,0-.09-.33,9.73,9.73,0,0,0-4,2.06,10.61,10.61,0,0,0-1.53,1.75c-.32.44-.58.91-.9,1.34l-.88,1.09q-1.2,1.75-2.73-.22c-1.68-.17-2.17-.75-1.49-1.72a3.75,3.75,0,0,1,.74-1.34,7.47,7.47,0,0,1,1.58-1.69,17.35,17.35,0,0,1,3-1.83c2.33-1.21,4.69-2.38,7-3.57.21-.12,0-.44-.19-.33Z"/><path d="M70,56.56c1.05-.36,1.28-.66,2.06.26s.43.68-.39,1.2a4.53,4.53,0,0,0-1.42,1.26,1.46,1.46,0,0,0,.58,2.11c1.07.56,2.19-.15,3-.87a12.34,12.34,0,0,1,3.42-2.71,16.68,16.68,0,0,1,4.64-1c.23,0,.25-.37,0-.37a11.27,11.27,0,0,0-5.77,1.41A11.06,11.06,0,0,0,74,59.68a6.09,6.09,0,0,1-1.27,1.16l-1.74-1.79c.06-.51,1.51-.95,1.91-1.23s1.17-.8.83-1.55c-.6-1.35-3-.34-3.8,0-.14.07,0,.31.11.25Z"/><path d="M70,56.22a4.52,4.52,0,0,0-2.94,1.58c0,.09,0,.19.13.14.44-.28.8-.67,1.26-.93a5.14,5.14,0,0,1,1.61-.56c.15,0,.09-.25-.06-.23Z"/><path d="M80.42,56.88c.87,1.63.7,3.26.59,5a13.68,13.68,0,0,1-.67,4.55c0,.11.13.18.19.08.88-1.5.85-3.23.94-4.92s.22-3.4-.76-4.89a.17.17,0,0,0-.29.16Z"/><path d="M89.73,63.69a5.33,5.33,0,0,0,.15,5.61c.07.09.23,0,.19-.12a9.16,9.16,0,0,1-.66-2.68,7.64,7.64,0,0,1,.52-2.72c0-.13-.14-.2-.2-.09Z"/><path d="M81,66.06a1.93,1.93,0,0,0-1.38.9c0,.08.08.14.14.1a8.14,8.14,0,0,1,1.3-.78.11.11,0,0,0-.06-.22Z"/><path d="M80.32,67.3a6.57,6.57,0,0,0-4.67-.42c-1.06.3-2.4.85-2.48,2.09,0,.21.29.23.35,0,.39-1.21,2.21-1.64,3.31-1.75a7.3,7.3,0,0,1,3.3.49c.26.1.44-.33.19-.45Z"/><path d="M91.26,68a4,4,0,0,1,2.29-1.48.13.13,0,0,0,0-.25A3,3,0,0,0,91,67.81c-.12.19.18.36.31.17Z"/><path d="M98.12,64.82c.5-.52.93-1.1,1.46-1.6s1.22-.83,1.68-1.36a.14.14,0,0,0-.14-.24,4.86,4.86,0,0,0-1.73,1.26A6.62,6.62,0,0,0,98,64.7c0,.1.08.21.16.12Z"/><path d="M103.44,60.37a17,17,0,0,1,4.48-.7c1.35,0,2.65.3,4,.39a.19.19,0,0,0,.1-.36c-2.63-1.29-6.1-.69-8.65.48-.11,0,0,.22.08.19Z"/><path d="M112.08,59.3a16,16,0,0,1,4.23-9.63c2.21-2.44,5.38-3.7,8.09-5.49,3.95-2.61,8.74-5.47,10.73-10,0-.1-.09-.19-.15-.09-3.27,5.76-9.77,9.33-15.38,12.46a15.05,15.05,0,0,0-7.73,12.73c0,.14.2.13.21,0Z"/><path d="M138.45,38.26c-8.26,6.55-10.08,21.63-21.81,23.6-.18,0-.14.34,0,.32,4.91-.5,8.25-4.37,10.93-8.17,1.82-2.59,3.5-5.27,5.23-7.92s3.29-5.59,5.79-7.63c.14-.11,0-.3-.19-.2Z"/><path d="M113.08,63.47a.6.6,0,0,0-.26.14s0,.12,0,.1a1,1,0,0,0,.28-.13.06.06,0,0,0-.06-.11Z"/><path d="M112.72,64.22a10.16,10.16,0,0,0,1.83-.07,2.82,2.82,0,0,0,1.28-.32c.55-.42.38-1.27.84-1.75a.13.13,0,0,0-.15-.21c-.45.22-.46.71-.6,1.13-.35,1-2.27.91-3.2.92a.15.15,0,0,0,0,.3Z"/><path d="M113.52,62.73c-4.14,5.35-7.85,11.1-14.9,12.67-.15,0-.08.25.06.22,6.81-1.33,11.58-7.11,15.06-12.72.07-.13-.12-.29-.22-.17Z"/><path d="M64.57,64.77c2.08-.78,4.09-1.76,6.28-.59,1.48.79,2.42,2.3,3.69,3.36.1.08.29,0,.2-.16a10.72,10.72,0,0,0-4.25-3.88c-2-.79-4.32,0-6,1.1-.09.05,0,.21.07.17Z"/><path d="M61.3,43.16a23.1,23.1,0,0,1-.4,6.89c-.49,2.09-1.41,4-2,6.08a24.67,24.67,0,0,0-.7,11.45c0,.17.32.13.3,0A28.39,28.39,0,0,1,60.09,53.8c1.3-3.51,2.07-6.92,1.39-10.66a.09.09,0,0,0-.18,0Z"/><path d="M67.39,63.79a67.2,67.2,0,0,0-.81-10c-.34-3.21-1-6.83-.2-10a.23.23,0,0,0-.44-.12c-.76,3.11-.18,6.53.18,9.66.41,3.49.69,7,1.16,10.5,0,.06.11,0,.11,0Z"/><path d="M58.76,67.74a1.24,1.24,0,0,0-.1,1.69c.36.41,1.22.66,1.59.14a.15.15,0,0,0-.12-.21c-.4,0-.73.21-1.1-.06A.88.88,0,0,1,59,68a.16.16,0,0,0-.22-.22Z"/><path d="M59,67.74a9.55,9.55,0,0,0-.34,1.69.82.82,0,0,0,.27.86,4.15,4.15,0,0,0,1.4.43,6.66,6.66,0,0,0,1.87.36.15.15,0,0,0,.07-.27,9,9,0,0,0-2.45-.71,1.93,1.93,0,0,1-.55-.13c-.23-.2-.21-.64-.18-.9.05-.43.12-.86.14-1.3a.12.12,0,0,0-.23,0Z"/><path d="M61.09,70.05c1,5.07,7.77,6.91,11.78,4.38a.3.3,0,0,0-.3-.52c-4.6,2.33-8.92.32-11.2-4-.09-.16-.31,0-.28.12Z"/><path d="M72.49,74.16A4.1,4.1,0,0,0,74,76.86c.1.06.19-.06.15-.15-.2-.45-.58-.84-.82-1.27s-.43-.91-.64-1.37c-.06-.12-.21,0-.2.09Z"/><path d="M81,68.21A37.69,37.69,0,0,0,85.42,70c.16.05.28-.21.12-.28A37.14,37.14,0,0,0,81.06,68c-.13,0-.22.16-.09.22Z"/><path d="M90.8,69.71a2.8,2.8,0,0,1,.81-.6c.19-.09,0-.39-.17-.28a2.24,2.24,0,0,0-.83.73c-.08.12.1.24.19.15Z"/><path d="M88.6,70.43c.51.53,1.63.81,2.14.12.07-.09,0-.18-.13-.17a4.63,4.63,0,0,1-.91.21,1.68,1.68,0,0,1-1-.31c-.09,0-.18.08-.11.15Z"/><path d="M90.44,71.65c0,1,.28,1.89.23,2.87A15,15,0,0,1,90,77.69a.13.13,0,0,0,.23.1c1-1.54,1.34-4.56.33-6.17a.05.05,0,0,0-.1,0Z"/><path d="M79.86,81.65c3.94-1.45,7.57-1.17,11.62-.37.25,0,.36-.32.11-.39-3.82-1.09-8.2-1.25-11.79.63-.07,0,0,.16.06.13Z"/><path d="M92.9,80.88c3.9-2.22,8.16-5.17,7.72-10.24,0-.2-.33-.2-.32,0,.33,4.86-3.89,7.72-7.51,10-.11.08,0,.26.11.19Z"/><path d="M91.44,82.13A7,7,0,0,0,88.86,88a.13.13,0,0,0,.25,0,9.25,9.25,0,0,1,2.46-5.78.09.09,0,0,0-.13-.13Z"/><path d="M69.3,75.33a65.52,65.52,0,0,0-.36,9.9,18.57,18.57,0,0,0,2.42,7.14.16.16,0,0,0,.3-.12c-.83-2.88-2.23-5.19-2.23-8.29,0-2.88.22-5.75.18-8.63a.16.16,0,0,0-.31,0Z"/><path d="M70.44,90.65c-1,3.08-2.4,5.94-3.56,8.94,0,.11.12.16.18.08a29.25,29.25,0,0,0,3.55-9c0-.11-.13-.15-.17,0Z"/><path d="M67.23,99.57c-1.8,3.4-6.14,6.36-5.54,10.65,0,.17.26.11.27,0,.39-4.3,3.75-6.78,5.52-10.46.08-.17-.16-.31-.25-.15Z"/><path d="M89,89.1c0,1.37-1.34,1.62-2.35,2a.19.19,0,0,0,.1.37c1.19-.17,2.79-1,2.53-2.41,0-.16-.28-.12-.28,0Z"/><path d="M88.57,91a2.22,2.22,0,0,1-.34,1.66,2,2,0,0,1-.6.6c-.19.11-.33.14-.45.33a.14.14,0,0,0,.09.2c.52.2,1.15-.57,1.38-1a2.17,2.17,0,0,0,.15-1.89.12.12,0,0,0-.23.07Z"/><path d="M88.33,93.34c0,1.09,1,5-.89,5a.21.21,0,0,0,0,.42c2.43.11,1.4-4.2,1.14-5.47a.13.13,0,0,0-.25,0Z"/><path d="M88.48,98.28a8.84,8.84,0,0,0,.14.92.12.12,0,0,0,.22,0,1.05,1.05,0,0,0-.12-1c-.07-.13-.27,0-.24.1Z"/><path d="M78.6,94.36a1.58,1.58,0,0,0,.79,1.9,3.5,3.5,0,0,0,2.92.11.22.22,0,0,0-.06-.43,10.23,10.23,0,0,1-2.07.1,1.63,1.63,0,0,1-1.35-1.64.12.12,0,0,0-.23,0Z"/><path d="M79.45,91a2.22,2.22,0,0,0,.88,1.12c.37.23.93.49,1.34.24.1-.06.13-.25,0-.3-.32-.15-.67-.08-1-.21a1.91,1.91,0,0,1-1-.93.11.11,0,0,0-.21.08Z"/><path d="M78.18,98.62c-.08,1.22,1.59,1.65,2.5,1.18a.22.22,0,0,0-.05-.4c-.77-.17-1.89.27-2.19-.81a.13.13,0,0,0-.26,0Z"/><path d="M84.67,90.35c.4.75.07,1.29-.18,2a.1.1,0,0,0,.14.1c.72-.43.59-1.59.22-2.2-.06-.12-.24,0-.18.1Z"/><path d="M84.3,93.48a6.52,6.52,0,0,1-.1,1.25,7.67,7.67,0,0,0-.29,1,.21.21,0,0,0,.32.18,2.31,2.31,0,0,0,.4-2.53c-.08-.17-.33-.07-.33.09Z"/><path d="M84.23,97.84l-.26.27s0,0,0,0l.26-.27s0,0,0,0Z"/><path d="M83.7,97.86a5,5,0,0,1,0,1.09c0,.27-.24.42-.3.66a.19.19,0,0,0,.09.2c.32.24.62-.15.71-.43A3.22,3.22,0,0,0,84,97.82c0-.14-.28-.11-.26,0Z"/><path d="M82.38,84.69c-3.79,3.75-8,9.79-7,15.47a.16.16,0,0,0,.3,0c.51-2.88.74-5.49,2-8.18a29.86,29.86,0,0,1,4.94-7.07c.13-.15-.08-.37-.23-.22Z"/><path d="M88.18,85.59a2.13,2.13,0,0,1,.64.87c.11.27.13.57.23.84a.19.19,0,0,0,.37,0c.22-.8-.47-1.58-1.08-2-.17-.12-.32.15-.16.27Z"/><path d="M63.7,104.07a2,2,0,0,0,1.18-.23c.39-.2,1-.83,1.42-.87s.39.24.49.59.2.8.28,1.21c.15.71.22,1.43.33,2.15,0,.22.4.17.4-.06a15.2,15.2,0,0,0-.37-2.51c-.1-.49-.15-1.54-.6-1.84-.27-.18-.6,0-.85.14-.75.4-1.38,1.11-2.28,1.14a.14.14,0,0,0,0,.28Z"/><path d="M67.77,107.16a5.54,5.54,0,0,0,2.21-2l-.33,0a8.36,8.36,0,0,0,2,3.08c.12.11.36,0,.24-.19A15.21,15.21,0,0,1,70,105a.19.19,0,0,0-.31,0,5.51,5.51,0,0,1-2,2,.13.13,0,0,0,.13.23Z"/><path d="M71.49,107.89a11.29,11.29,0,0,0,1.79-2.33l-.4-.06c.24.67.78,1.67,1.57,1.73a.15.15,0,0,0,.13-.22,3.05,3.05,0,0,0-.6-.59,3.08,3.08,0,0,1-.68-1,.22.22,0,0,0-.4,0,12.54,12.54,0,0,1-1.61,2.35c-.12.13.07.33.2.2Z"/><path d="M74.78,107c.74-.38.91-1.12,1.17-1.84.14-.37.17-.8.73-.61.21.08.46.41.62.57.37.38.64.89,1.1,1.15a.15.15,0,0,0,.23-.17,3,3,0,0,0-1.13-1.51c-.27-.24-.79-.82-1.21-.69s-.5.6-.61.88c-.27.69-.35,1.55-1.05,1.95-.18.1,0,.35.15.27Z"/><path d="M79.17,105.07a4.79,4.79,0,0,1,.91-1.71l-.38-.09a3.84,3.84,0,0,0,.62,1.59c.25.37.65.87,1.12.88a.2.2,0,0,0,.17-.29c-.16-.36-.6-.61-.85-.92a3.14,3.14,0,0,1-.63-1.39.22.22,0,0,0-.37-.09,5.11,5.11,0,0,0-1,1.9.21.21,0,0,0,.41.12Z"/><path d="M82.05,105.37c1.48-.62,1.4-2.25,1.19-3.6l-.44.33a4.29,4.29,0,0,1,1.08,1,2.32,2.32,0,0,0,.62.7.2.2,0,0,0,.31-.18c0-.86-1-1.59-1.71-2-.24-.16-.48.1-.44.34.18,1,.34,2.42-.8,3-.25.12-.07.56.19.45Z"/><path d="M84.88,103.66a3.17,3.17,0,0,0,1.07-2c0-.21.08-.42.13-.62.09-.39.13-.51.54-.22s.6.71,1,.91a.16.16,0,0,0,.23-.17,2.7,2.7,0,0,0-1.06-1.16c-.28-.21-.58-.4-.88-.11s-.3.88-.39,1.26a3.14,3.14,0,0,1-.91,1.82c-.17.14.07.37.24.24Z"/><path d="M88.15,100.9c.09-.84.19-1.68.3-2.51l-.27.2a2.92,2.92,0,0,1,1,.57,1.85,1.85,0,0,0,.58.46c.15.06.27-.11.25-.25-.14-.65-1.14-1-1.72-1.19a.22.22,0,0,0-.27.21c0,.83-.1,1.67-.16,2.51,0,.19.27.18.29,0Z"/><path d="M90.7,100.51c0,.4.12.8.16,1.2a9.94,9.94,0,0,0,.13,1.08.15.15,0,0,0,.28,0,3.23,3.23,0,0,0-.34-2.34.12.12,0,0,0-.23.06Z"/><path d="M88.83,91.14a17.55,17.55,0,0,1,4.48-4.41l-.3-.17c-.07.67-.19,1.34-.23,2a.16.16,0,0,0,.31,0,14.32,14.32,0,0,0,.32-2c0-.15-.18-.24-.3-.17A12.2,12.2,0,0,0,88.6,91a.13.13,0,0,0,.23.13Z"/><path d="M93.47,88.72c2.16-1.36,4.4-2.68,7.06-2.34l-.06-.46a5.06,5.06,0,0,0-3.78,2.71.17.17,0,0,0,.3.17,5.29,5.29,0,0,1,3.6-2.43c.29,0,.18-.43-.06-.46-2.75-.35-5,1.06-7.23,2.53-.17.11,0,.4.17.28Z"/><path d="M96.33,89.13a2.94,2.94,0,0,0,3.11-.27c.24-.18,0-.57-.24-.41a5.76,5.76,0,0,0-1.83,1.94,12.82,12.82,0,0,1-2,2.42.13.13,0,0,0,.13.22c1.9-.51,2.31-3.2,3.93-4.17l-.24-.41a2.79,2.79,0,0,1-2.75.41c-.16-.06-.27.2-.12.27Z"/><path d="M95.76,93.42a10.75,10.75,0,0,0,5-1.26l-.36-.37c-.38.88-.8,1.74-1.26,2.57a18.58,18.58,0,0,0-1.28,2.25c-.08.19.2.31.33.19,1.25-1.18,2-3.19,2.67-4.74a.27.27,0,0,0-.37-.37,10.66,10.66,0,0,1-4.7,1.37.18.18,0,0,0,0,.36Z"/><path d="M97.75,97.48a14,14,0,0,1,5.78.61v-.61a17.12,17.12,0,0,0-4.12,1.85c-.15.1-.07.37.13.31a13.57,13.57,0,0,0,1.68-.8c.57-.3,1.58-1.07,2.24-.78a.32.32,0,1,0,.24-.58,11,11,0,0,0-6-.35c-.2,0-.16.38,0,.35Z"/><path d="M99.2,99.25l-2.33.74a5.3,5.3,0,0,0-1.78.7c-.1.08,0,.25.11.25a5.82,5.82,0,0,0,1.92-.61l2.14-.84c.15,0,.09-.29-.06-.24Z"/><path d="M95.89,101.74l2.24.18-.14-.5c-.69.46-1.36,1-2,1.46a6.51,6.51,0,0,0-1.76,1.71.19.19,0,0,0,.25.25,9.39,9.39,0,0,0,1.7-1.39,22.8,22.8,0,0,1,2.09-1.57.27.27,0,0,0-.13-.5l-2.24-.16c-.34,0-.34.5,0,.52Z"/><path d="M94.7,104.28a2.1,2.1,0,0,0,1.28.85l-.06-.46a31,31,0,0,0-4.34,2.2.19.19,0,0,0,.15.34,32.74,32.74,0,0,0,4.44-2.11c.25-.12.09-.44-.13-.47a1.9,1.9,0,0,1-1.11-.53c-.11-.11-.34,0-.23.18Z"/><path d="M92.23,106.64a1.57,1.57,0,0,1-1.08.4.12.12,0,0,0,0,.23,1.79,1.79,0,0,0,1,.12c.17,0,.13-.32,0-.3a2.08,2.08,0,0,1-.86,0l0,.24a1.83,1.83,0,0,0,1.23-.5c.1-.09,0-.23-.15-.14Z"/><path d="M91.92,107.45c-2-.24-3.73,1-5.17,2.3-1.14,1-2.39,2.62-1.38,4.16a.12.12,0,0,0,.23-.09c-.7-3,3.62-6.06,6.32-6,.26,0,.25-.38,0-.41Z"/><path d="M84.25,114.77a13.69,13.69,0,0,0,5.45-1.53c.26-.14.07-.52-.2-.46-1.43.29-1,1.92-1.86,2.84a8.71,8.71,0,0,1-4.52,2.69.21.21,0,0,0,.06.4,5.8,5.8,0,0,0,3.41-1.62,10.07,10.07,0,0,0,1.47-1.37c.4-.5.79-2.58,1.44-2.46l-.06-.46a21,21,0,0,1-5.23,1.61c-.21,0-.16.38,0,.36Z"/><path d="M81.62,118.48c2,2.36,3.89,5.56,2.81,8.82l.42-.06c-.61-1.23-2.21-4.58-4-4.19-.25.06-.2.49.06.46,1.49-.13,3,2.91,3.53,4,.09.2.37.12.43,0,1.17-3.21-.59-7.1-3-9.18a.16.16,0,0,0-.23.23Z"/><path d="M80.67,123.73c-.33.6,0,1.17.28,1.77.44,1.07.91,2.14,1.36,3.21l.25-.43a11,11,0,0,1-3.08-.19,12.8,12.8,0,0,0-2.39-.64.18.18,0,0,0-.12.31c1.2,1.25,4,1.23,5.59,1.09a.29.29,0,0,0,.24-.43c-.34-.71-.67-1.43-1-2.14s-1.15-1.83-.9-2.46c0-.13-.16-.21-.22-.09Z"/><path d="M81.05,126.37a3,3,0,0,0,2.42-1c.18-.27-.16-.54-.41-.42s-.61.44-.94.62a5.65,5.65,0,0,1-1.13.41.22.22,0,0,0,.06.43Z"/><path d="M72.06,124.88a7.19,7.19,0,0,0,1.25,5l.29-.37c-1.6-.58-3.82-1.62-4.34-3.38a.14.14,0,0,0-.28,0c-.19.91.54,1.55,1.2,2.07a11.46,11.46,0,0,0,3.29,1.8.25.25,0,0,0,.28-.37,7.47,7.47,0,0,1-1.33-4.78c0-.24-.34-.23-.36,0Z"/><path d="M73.54,127a3.67,3.67,0,0,0,1.53.79,2.17,2.17,0,0,0,1.56.1.15.15,0,0,0,0-.25,4.26,4.26,0,0,0-1.43-.32c-.53-.13-1-.37-1.54-.53a.13.13,0,0,0-.12.21Z"/><path d="M69.57,127.86a7.59,7.59,0,0,1-2.94-1.2,10,10,0,0,1-2.1-2.35c-.16-.21-.47,0-.41.24.6,2.23,3.25,3.6,5.41,3.6.16,0,.2-.26,0-.29Z"/><path d="M64.66,124.6c-.48.41-.53.42-.59,1.09s.79,1.34-.29,1.11c-.44-.1-1.46-1.92-1.74-2.41-2.45-4.32-.48-7.85,1.22-11.93.06-.14-.16-.22-.24-.1-3.44,5.25-3.88,11.73,1.68,15.72a.21.21,0,0,0,.31-.18c-.06-1-1-2.25-.17-3.11a.13.13,0,0,0-.18-.19Z"/><path d="M61.61,109.12c-.16,1.76-.35,4.06-1.29,5.61-.54.89-1.54,1.3-1.93,2.27,0,.06,0,.13.1.13a6,6,0,0,0,3-.75c.16-.09,0-.32-.14-.25s-1.65.82-1.9.68c-.73-.42,0-.5.11-.71.38-.6.93-.88,1.26-1.6A15,15,0,0,0,62,109.12c0-.23-.34-.23-.36,0Z"/><path d="M91.64,107.47a19.35,19.35,0,0,1,7,1c.29.11.42-.36.13-.47a15,15,0,0,0-7.14-.85c-.21,0-.16.37,0,.36Z"/><path d="M84.65,125.55a16.08,16.08,0,0,0,7.54-3.15c2.57-2,3.91-4.41,5.47-7.18,0-.08-.06-.16-.12-.1-1.87,1.87-2.93,4.34-5,6.12a18.36,18.36,0,0,1-8,4c-.18,0-.1.31.08.29Z"/><path d="M98,109.37a4,4,0,0,1,3-.26c.91.25,1.4.91,2.17,1.33a.18.18,0,0,0,.26-.19c-.27-.94-1.54-1.51-2.42-1.7a4.29,4.29,0,0,0-3.14.56c-.17.1,0,.35.16.26Z"/><path d="M97.58,116.57c2.46,2.65,6.68,4.78,10.37,4.35.14,0,.19-.22,0-.26a40.13,40.13,0,0,1-5.16-1.29,22.81,22.81,0,0,1-5.07-3c-.13-.1-.27.11-.17.22Z"/><path d="M107.54,121.44c4.16,0,8.2-.7,12.33-1.13a41.56,41.56,0,0,1,12.24.59.24.24,0,0,0,.12-.47c-7.65-3-16.85.29-24.69.7a.16.16,0,0,0,0,.31Z"/><path d="M104,111.32a32.32,32.32,0,0,1,16.31,1.36c4.74,1.5,9.4,3.53,14.4,3.94.22,0,.27-.34.06-.38-5.63-1.2-10.91-3.33-16.43-4.89-4.65-1.31-9.81-2.19-14.42-.3a.14.14,0,0,0,.08.27Z"/><path d="M99.47,86.59a6.63,6.63,0,0,1,1.54.2c.43.14.79.53,1.23.56a.22.22,0,0,0,.21-.28c-.12-.53-.88-.79-1.35-.91a2.21,2.21,0,0,0-1.71.14.16.16,0,0,0,.08.29Z"/><path d="M103.89,94.94c2.83,1.31,6.81,1.85,9.33-.34.16-.14,0-.37-.22-.28-3.09,1.6-5.8.68-9,.37a.14.14,0,0,0-.07.25Z"/><path d="M112.22,95.27c7.38-3.53,12.86-10,21.57-10.13a.2.2,0,0,0,0-.4c-8.41-1-14.9,6.73-21.69,10.33-.13.07,0,.27.12.2Z"/><path d="M101.13,87.85c4.55-3.69,11.21-4,16.79-4.82,5.29-.8,11.07-1.4,16-3.67.21-.1.06-.43-.16-.37a166.11,166.11,0,0,1-18.22,3.84c-4.81.73-11,1.07-14.57,4.83-.13.13.06.3.19.19Z"/><path d="M133.26,83.73c-.95,1.69,2.43,2.46,3.43,1.53a.18.18,0,0,0-.12-.29,9,9,0,0,1-1.72.1,1.42,1.42,0,0,1-1.31-1.27.15.15,0,0,0-.28-.07Z"/><path d="M136.32,85.48c1.92-.73,2.58-3,3.86-4.43,1.86-2.11,4.52-3.35,6.3-5.48.09-.11,0-.31-.17-.22a36.4,36.4,0,0,0-5.49,4.42,17.82,17.82,0,0,0-1.77,2.11c-.85,1.17-1.45,2.73-2.83,3.37-.13.06,0,.29.1.23Z"/><path d="M134.17,78.79a33,33,0,0,1,4.54-6.59.16.16,0,0,0-.19-.25,6.81,6.81,0,0,0-2.35,2.56c-.83,1.33-1.58,2.71-2.36,4.07a.21.21,0,0,0,.36.21Z"/><path d="M138.46,72.42a2.49,2.49,0,0,1,.81-2.4,1,1,0,0,1,1.24,0c.37.3.35.62.32,1a.21.21,0,0,0,.38.11c.71-1-.71-2-1.61-1.83-1.41.31-1.78,1.9-1.47,3.12.05.18.34.15.33,0Z"/><path d="M141.45,71.56a3.34,3.34,0,0,1,.43-.73c.31-.32.79-.24.83.25s-.3.93-.35,1.43a.13.13,0,0,0,.17.12,1.57,1.57,0,0,0,.33-2.34c-.84-.64-1.67.41-1.73,1.19a.17.17,0,0,0,.32.08Z"/><path d="M143.32,72.76c.14-.27,1.09-1.64,1.46-1.06.12.18-.12.59-.18.75a1.1,1.1,0,0,0-.09.67c0,.18.27.14.33,0,.23-.56,1-1.8,0-2.13a1.28,1.28,0,0,0-1.12.41,2.13,2.13,0,0,0-.72,1.22c0,.19.23.32.33.14Z"/><path d="M144.62,73.45c.25-.21,1.36-1,1.63-.69s-.18.68-.34.82-.36.16-.45.36a.15.15,0,0,0,0,.19c.69.48,1.45-1.07,1.2-1.63-.18-.39-.68-.27-1-.17a2.57,2.57,0,0,0-1.33.88.17.17,0,0,0,.24.24Z"/><path d="M145.82,75c.26,0,.53-.05.79-.05a1.23,1.23,0,0,1,.43,0c.3.14.22.31,0,.47a1.82,1.82,0,0,1-1.44.27.13.13,0,0,0-.09.22,1.57,1.57,0,0,0,2.16-.55c.5-1.08-1.39-.88-1.91-.71-.17.05-.16.35,0,.33Z"/><path d="M140.88,73.53a5.71,5.71,0,0,1,2.13.67,6.69,6.69,0,0,1,1.62,1.52c.27.31.71-.08.54-.41a4.49,4.49,0,0,0-4.23-2.2c-.22,0-.32.38-.06.42Z"/><path d="M142.92,75.72a9.07,9.07,0,0,1-1.25,1.15c-.43.31-.93.5-1.36.8a.18.18,0,0,0,.13.32,4.86,4.86,0,0,0,2.76-2c.11-.17-.14-.36-.28-.22Z"/><path d="M139.45,78.25a3.24,3.24,0,0,0-2.19,2.17.2.2,0,0,0,.36.15,7.32,7.32,0,0,1,1.93-2.07c.13-.08,0-.3-.1-.25Z"/><path d="M134.4,118.47c3.75-3.5,9.59-.93,13.39-4.63a.15.15,0,0,0-.18-.24c-2.91,1.91-5.58,2-8.91,2.43a6.59,6.59,0,0,0-4.51,2.22c-.13.16.07.36.21.22Z"/><path d="M148.53,113.37a24.34,24.34,0,0,0,2.39-2.58l.28-.31q.5-.3.57.12a1.9,1.9,0,0,1,.24.88,7.78,7.78,0,0,1,0,1.74.15.15,0,0,0,.28.08,3.52,3.52,0,0,0,.14-2.15c-.09-.44-.26-1.26-.81-1.34s-1.12.84-1.44,1.2a21.27,21.27,0,0,0-1.81,2.21c-.09.13.1.25.2.15Z"/><path d="M150.45,114.51c.35-.32,1.82-1.43,2-.45.11.7-.41,1.15-.84,1.59-.06.07,0,.21.08.2a1.63,1.63,0,0,0,1.12-2.18c-.55-1.19-2,.08-2.55.63a.15.15,0,0,0,.21.21Z"/><path d="M151.3,116.48c.23-.34.63-.81,1.09-.63a.77.77,0,0,1,.41.89c0,.21.27.25.37.1a1,1,0,0,0-.6-1.43c-.75-.31-1.2.35-1.54.91a.16.16,0,0,0,.27.16Z"/><path d="M151.93,118.38c.17-.18,1.55-1.16,1.62-.54,0,.2-.29.56-.4.7s-.36.39-.51.61a.14.14,0,0,0,.15.2c.55-.18,1.53-1.29,1.13-1.9-.21-.34-.71-.24-1-.15a2.55,2.55,0,0,0-1.26.77c-.19.21.12.52.31.31Z"/><path d="M151.25,120.26a1.75,1.75,0,0,1,1-.41c.65.05.5.66.32,1.06s-.66,1.22-1.32.89a.15.15,0,0,0-.18.23c.9,1,1.86-.54,2.1-1.3a.87.87,0,0,0-.47-1.16,1.66,1.66,0,0,0-1.57.45c-.13.11,0,.33.14.24Z"/><path d="M150.38,122.13c-3.47-.35-7.89-.78-11,1.22-.15.09-.06.36.12.29,3.67-1.28,7.07-.81,10.84-1.21a.15.15,0,0,0,0-.3Z"/><path d="M139.68,123.33c-1.1.29-5.49,1.33-4.78-1.14a.31.31,0,0,0-.56-.23,1.52,1.52,0,0,0,.75,2.13c1.35.68,3.36-.06,4.66-.52.15,0,.09-.29-.07-.24Z"/><path d="M135.21,34.15a7,7,0,0,0,.09-3.46,6.84,6.84,0,0,1-.33-1.91l1.26-1.36a2.36,2.36,0,0,1,.73.26,6.89,6.89,0,0,1,1,.6c.16.12.33-.13.2-.26-.71-.75-2.81-1.77-3.56-.51-.33.55,0,1.76.09,2.28a16.18,16.18,0,0,1,.21,4.28.16.16,0,0,0,.3.08Z"/><path d="M141,27.15c-.74.14-1.45.34-2.17.53-.45.12-1.05.18-1.36.57-.68.82.29,1.86.49,2.64a.23.23,0,0,0,.23.18,5.23,5.23,0,0,0,1.63-.24c.12,0,.08-.24,0-.27a5,5,0,0,0-1.59,0l.23.18c-.24-.9-1.33-1.87-.12-2.51a6.76,6.76,0,0,1,1.26-.37c.51-.15,1-.3,1.51-.49a.13.13,0,0,0-.07-.25Z"/><path d="M141.05,30.29c-.66.06-1.31.18-2,.3a3.51,3.51,0,0,0-1.5.38c-.61.47-.19,1.35.08,1.91s1,.66,1.62.51a7.43,7.43,0,0,0,1.32-.53c.57-.25,1.17-.36,1.73-.61.14-.06.08-.25,0-.29-1.15-.44-2.26.92-3.37,1a.9.9,0,0,1-1-.85c-.08-.57.1-.74.61-.91.81-.27,1.74-.28,2.58-.52a.19.19,0,0,0-.06-.37Z"/><path d="M139.86,33a1.6,1.6,0,0,0-1.38,2.44c.3.61.63.69,1.28.55a9.91,9.91,0,0,0,2.84-.79.16.16,0,0,0-.08-.3,7.67,7.67,0,0,0-2.36.38c-.51.12-1.1.24-1.29-.39a1.13,1.13,0,0,1,1-1.54.18.18,0,0,0,0-.35Z"/><path d="M140.83,35.74c-.61-.12-1.46-.22-1.8.45a.9.9,0,0,0,.53,1.2c1.33.67,3.64-.15,4.46-1.3.12-.16-.1-.31-.24-.24a15.78,15.78,0,0,1-1.89.93,4.44,4.44,0,0,1-1,.21,4.93,4.93,0,0,1-.54,0c-.77,0-.65-.29.36-1,.2,0,.29-.27.08-.3Z"/><path d="M141.63,26.76c.8.61,1.94,1,1.81,2.22-.06.63-.4,1.28.19,1.73a.22.22,0,0,0,.33-.19c-.08-.87.33-1.82-.15-2.64a3.34,3.34,0,0,0-2.07-1.4.15.15,0,0,0-.11.28Z"/><path d="M143.74,30.29a8.1,8.1,0,0,1,.72,2.76,3.59,3.59,0,0,1-.33,2.45.13.13,0,0,0,.14.18c.9-.26.93-1.35.84-2.13-.11-1-.24-2.78-1.09-3.48-.15-.12-.39,0-.28.22Z"/><path d="M66.15,44a6.08,6.08,0,0,0,1.25-3.32,11.2,11.2,0,0,0-.18-4.32c0-.15-.33-.14-.3,0,.29,2.45.19,5.3-1.08,7.43-.12.19.18.36.31.17Z"/><path d="M67.32,36.69a7.19,7.19,0,0,0,1.5-2.41c.16-.43.65-1.63.21-2.05s-.68.06-.83.4-.22.84-.37,1.25a6.33,6.33,0,0,1-1.18,2c-.08.11.06.26.15.15a6.14,6.14,0,0,0,.94-1.42,4.71,4.71,0,0,0,.32-.81,7,7,0,0,1,.2-.93q0-.42.69-.18a5.4,5.4,0,0,1-.14.72,9.84,9.84,0,0,1-.36,1,7.88,7.88,0,0,1-1.31,2.07c-.1.12.07.29.18.17Z"/><path d="M66.67,35.71c.65-.91,1.73-6-.46-5.67-.19,0-.11.33.09.3,1-.17.9,2.33.85,2.88a17,17,0,0,1-.63,2.43.08.08,0,0,0,.15.06Z"/><path d="M65.24,36a12.81,12.81,0,0,0,1.15-4.82c0-.61.08-1.69-.7-1.89s-1.21.75-1.31,1.4c-.14,1-.15,2-.37,3.06-.15.73-.06,1.15-.83,1.35s-.51,0-.85-.44c-.12-.17-.4,0-.28.16.29.39.51,1.55,1.26,1.38s.81-1.59.93-2.13a16.64,16.64,0,0,0,.31-2c0-.32,0-.65.08-1q-.27-1.05.75-.87c.52-.31.76-.25.71.18.33.66-.13,2.28-.26,2.93a16.42,16.42,0,0,1-.77,2.59c0,.1.14.18.18.08Z"/><path d="M62.41,34.66a7.26,7.26,0,0,1-.92-2.23,8.87,8.87,0,0,0-.34-2.05,1.26,1.26,0,0,0-1.49-.81c-.83.28-.63,1.32-.61,2a19,19,0,0,0,.79,5.07.13.13,0,0,0,.24-.07,29.14,29.14,0,0,1-.68-3.47c0-.43-.09-.85-.11-1.28,0-.25,0-.51,0-.76,1.17-.75,1.75-.71,1.73.15.25.63.16,1.42.4,2.09a5.38,5.38,0,0,0,.85,1.47c.08.1.23,0,.17-.12Z"/><path d="M59.91,36.91A7,7,0,0,0,60,39.32c0,.11.2.09.19,0a21.22,21.22,0,0,1-.09-2.39c0-.13-.18-.12-.19,0Z"/><path d="M61.41,40.16c-.39-.79-1.95-1.38-2.54-.45a.24.24,0,0,0,.26.34,2.49,2.49,0,0,1,1-.25,1.5,1.5,0,0,1,1,.55c.12.14.32,0,.24-.19Z"/><path d="M59.24,39.65l-.14-.12c-.05,0-.1,0-.07.06l.13.14c.05.06.14,0,.08-.08Z"/><path d="M59.22,39.44c-1.57-.39-4.92-1.22-5.57,1,0,.11.12.21.2.12,1.5-1.65,3.38-1.07,5.35-1a.08.08,0,0,0,0-.15Z"/><path d="M54.18,40a1.57,1.57,0,0,0-.17.85.18.18,0,0,0,.13.17,11.21,11.21,0,0,0,2.39.11,8.24,8.24,0,0,1,2.88,1,.14.14,0,0,0,.17-.22,4,4,0,0,0-2.16-1.11,4.66,4.66,0,0,0-1.06-.12c-.32,0-2.29.39-2-.59,0-.12-.15-.21-.2-.09Z"/><path d="M58.21,41.92c.9.69,2.64,1.39,3.7.67.08-.05.09-.21,0-.23-.52-.07-1,0-1.56,0a4.42,4.42,0,0,1-1.94-.73c-.19-.13-.34.16-.17.29Z"/><path d="M62.15,37.69a8.75,8.75,0,0,1,2-.18,13.42,13.42,0,0,1,2,.43.13.13,0,0,0,.1-.23,4.94,4.94,0,0,0-4.2-.24.11.11,0,0,0,.06.22Z"/><path d="M61.56,43.26c.75.56,2.19-.2,2.41-1a.14.14,0,0,0-.24-.14,2.92,2.92,0,0,1-.87.81,3.34,3.34,0,0,1-1.25.19.09.09,0,0,0,0,.16Z"/><path d="M64.85,42.75a3.68,3.68,0,0,0,1,.25.1.1,0,0,0,0-.19,3.42,3.42,0,0,0-.93-.32.14.14,0,0,0-.08.26Z"/><path d="M64.06,45.66a52.74,52.74,0,0,0-.34,12c0,.18.29.2.29,0-.1-4,.24-8,.25-12,0-.13-.18-.12-.2,0Z"/><path d="M132.29,39.91c.59-.63,1.22-1.24,1.84-1.85a14.83,14.83,0,0,0,1.73-1.63c.06-.08-.06-.18-.14-.13a8.54,8.54,0,0,0-1.78,1.57c-.62.62-1.19,1.27-1.76,1.94a.07.07,0,0,0,.11.1Z"/><path d="M134,41.21c.69-.63,1.38-1.25,2.08-1.86.34-.31,1.17-.76,1.09-1.29a.19.19,0,0,0-.2-.15.21.21,0,0,0-.22.09.18.18,0,0,0,0,.21l0,0a.17.17,0,0,0,.3-.09v0l-.13.17-.19-.17-.18.16a4.32,4.32,0,0,0-.44.42l-.77.77L133.75,41c-.15.14.08.36.23.23Z"/><path d="M125.13,48.22c-1.38.86-2,2.43-3.13,3.58-1.42,1.49-3.2,2.58-4.69,4-.1.1,0,.29.16.2a34.12,34.12,0,0,0,4.19-3.39c1.31-1.23,2.1-3.23,3.57-4.2.11-.07,0-.24-.1-.17Z"/><path d="M108,66c-.67.67-1.33,1.33-2,2a6.74,6.74,0,0,1-2.21,1.78.19.19,0,0,0,0,.37c.84.07,1.37-.68,1.89-1.24.82-.91,1.63-1.81,2.47-2.69.13-.14-.07-.33-.19-.2Z"/><path d="M65.24,71.58c1.19.85,3.56,1.77,4.91.75.1-.07.11-.26,0-.29a17.36,17.36,0,0,0-2,0,7.39,7.39,0,0,1-2.69-.74.15.15,0,1,0-.15.25Z"/><path d="M67.38,65.11c.66.22,1.36.28,2,.48s1.28.56,2,.71a.18.18,0,0,0,.17-.29,4.88,4.88,0,0,0-4.16-1.14.13.13,0,0,0,0,.24Z"/><path d="M72.26,74.37A26.93,26.93,0,0,0,74.07,78a.07.07,0,0,0,.12-.06,27.78,27.78,0,0,0-1.71-3.67c-.08-.15-.28,0-.22.13Z"/><path d="M90.42,71.75a21.72,21.72,0,0,1,.24,2.66c0,.9-.29,1.77-.25,2.66a.14.14,0,0,0,.25.07c.89-1.42.68-3.93.06-5.43,0-.14-.32-.15-.3,0Z"/><path d="M91.17,80.87c1.38.3,3.14,0,3.83-1.4,0-.06,0-.13-.09-.09a7.17,7.17,0,0,1-1.77,1c-.65.21-1.32.11-2,.27-.11,0-.12.21,0,.23Z"/><path d="M92.1,81c-.61,1.9-2.64,3.34-2.71,5.39,0,.12.18.14.2,0,.51-2,2.29-3.35,2.72-5.36A.11.11,0,0,0,92.1,81Z"/><path d="M73.6,85.59a3.6,3.6,0,0,0,3.3-.78.12.12,0,0,0-.12-.2c-.5.13-1,.38-1.45.52a7.47,7.47,0,0,1-1.7.22c-.13,0-.17.21,0,.24Z"/><path d="M73.61,87.62A3.11,3.11,0,0,0,77.12,87a.17.17,0,0,0-.19-.24,14.53,14.53,0,0,1-1.4.62,4.13,4.13,0,0,1-1.85,0c-.17,0-.22.18-.07.25Z"/><path d="M73.22,90.9c.78.26,2,.3,2.53-.52a.14.14,0,0,0-.16-.21c-.37.07-.71.28-1.09.37a3.7,3.7,0,0,1-1.24.09c-.17,0-.18.22,0,.27Z"/><path d="M72.45,101.35c1,.53,2.13,2.91,3.5,2.36.08,0,.13-.18,0-.23a9.66,9.66,0,0,1-.94-.37,4,4,0,0,1-.92-.83A5.11,5.11,0,0,0,72.65,101c-.23-.11-.43.22-.2.34Z"/><path d="M75.41,104a2.56,2.56,0,0,1,.43.75,3.94,3.94,0,0,0,.19.61.13.13,0,0,0,.24,0,1.62,1.62,0,0,0-.65-1.49c-.1-.09-.31,0-.21.16Z"/><path d="M89.82,68.27a7.37,7.37,0,0,1,2-1.62c.73-.35,1.56-.3,2.26-.66a.17.17,0,0,0,0-.29,3,3,0,0,0-2.57.41,4.16,4.16,0,0,0-2,2c-.07.17.18.29.29.17Z"/><path d="M139.44-2.21c-4.15,1.63-4.23,8.7-4.3,12.38a29.72,29.72,0,0,0,1,8.91,29.08,29.08,0,0,0,4.37,8c.14.2.47,0,.33-.19-3.16-4.53-5.06-8.78-5.35-14.37a34.68,34.68,0,0,1,.57-8.26c.46-2.37,1-5.13,3.43-6.23.11,0,0-.26-.09-.21Z"/><path d="M133.54-1.36c-6.3,8-3.14,21.4,3,28.56.17.21.54-.07.37-.29-5.8-7.54-9-19.66-3.18-28.17,0-.08-.08-.18-.14-.1Z"/><path d="M140,37.64c4.06,5.88,6.22,13.13,8.15,20A67,67,0,0,1,151,79.84a44.59,44.59,0,0,1-6.48,20.33c-3.07,5.19-6.46,10.22-7.86,16.17-.06.26.34.37.4.11,1.61-6.86,5.9-12.45,9.23-18.52a43.11,43.11,0,0,0,5.29-19.45,70,70,0,0,0-3.19-21.92c-1-3.58-2.26-7.11-3.58-10.6a26.56,26.56,0,0,0-4.58-8.51c-.11-.13-.34,0-.24.19Z"/><path d="M143.38,36.55c7.17,12.82,12.69,26.19,11.94,41.19a52.73,52.73,0,0,1-5.55,21.46c-2.78,5.42-7,10.51-6.76,16.92,0,.27.43.27.42,0-.31-7.51,5.54-13.65,8.35-20.22A53.53,53.53,0,0,0,155.93,76a67.1,67.1,0,0,0-12.27-39.61c-.12-.16-.38,0-.28.16Z"/><path d="M136.71,124.52c-1.41,10.34,7.94,18.25,17.33,19.79.18,0,.27-.23.08-.28-9.59-2.35-17.33-9-17.19-19.49,0-.11-.2-.15-.22,0Z"/><path d="M142.36,122.47c-2.75,3.74-.4,8.25,2.27,11.3a21.6,21.6,0,0,0,12.56,7.1c.19,0,.27-.24.08-.29a24.86,24.86,0,0,1-10.7-5.49c-3.4-3.11-6.77-7.91-4-12.5.08-.14-.13-.25-.22-.12Z"/><path d="M154.14,144.89a16.94,16.94,0,0,0,4.43-3.31.1.1,0,0,0-.14-.14,44.07,44.07,0,0,1-4.37,3.32.08.08,0,0,0,.08.13Z"/><path d="M153.23,144.53c.49.94,1.75-.22,2.21-.58.71-.56,3-1.84,2.43-3.08-.41-.89-1.5-.36-2,.11a9.51,9.51,0,0,0-2.51,4.24.09.09,0,0,0,.17.07c.71-1.47,1.37-3.25,2.71-4.27a1.52,1.52,0,0,1,.59-.34c.76.5.88,1,.36,1.44a6.82,6.82,0,0,1-1,.82c-.38.31-2.34,2.27-2.79,1.47-.07-.14-.28,0-.2.12Z"/><path d="M155.46,142.94c.21-.32.41-.64.61-1l-.27-.16-.81,1.71a.15.15,0,0,0,.2.2,3,3,0,0,0,1.56-1.79c.05-.17-.18-.24-.27-.11a11.88,11.88,0,0,0-.68,1c-.07.12.1.26.2.15.27-.32.49-.68.73-1l-.26-.11a2.59,2.59,0,0,1-1.43,1.62l.2.2c.27-.57.55-1.13.83-1.7a.16.16,0,0,0-.27-.16c-.2.33-.38.66-.57,1a.13.13,0,0,0,.23.14Z"/><path d="M155.81,142.57c-.08.19-.16.38-.23.57s.08.11.12.05l.3-.51c.07-.13-.13-.24-.19-.11Z"/><path d="M132.44,1.55a3.18,3.18,0,0,0,2.84,1c.16,0,.12-.29,0-.29a3.43,3.43,0,0,1-2.53-1c-.17-.18-.44.09-.27.26Z"/><path d="M130.57,4.12C131,5.61,133.36,6.6,134.75,6a.18.18,0,0,0-.05-.36,5.32,5.32,0,0,1-2.27-.33A6.79,6.79,0,0,1,130.75,4a.11.11,0,0,0-.18.11Z"/><path d="M130.33,7.27c.53,1.8,3.26,3.26,5,2.14.13-.09.09-.33-.08-.32A6.37,6.37,0,0,1,132.75,9a4.6,4.6,0,0,1-2.21-1.78.11.11,0,0,0-.21.08Z"/><path d="M130,11.3c.77,1.64,3,2.78,4.71,1.79.11-.06.07-.28-.07-.26-1.73.19-3.37-.13-4.4-1.67a.14.14,0,0,0-.24.14Z"/><path d="M130.57,15.81c1,1.4,3.06,2.44,4.73,1.56a.16.16,0,0,0-.08-.3c-1.68.12-3.24-.07-4.35-1.49-.13-.17-.42.05-.3.23Z"/><path d="M131.7,19.47c.81,1.45,3,2.89,4.65,1.87a.14.14,0,0,0-.07-.25,7.62,7.62,0,0,1-2.23-.18A3.81,3.81,0,0,1,132,19.32a.15.15,0,0,0-.26.15Z"/><path d="M133.75,23.29a4.14,4.14,0,0,0,4.48,1.26c.16-.07.08-.33-.09-.32A5,5,0,0,1,134,23.05a.17.17,0,0,0-.24.24Z"/><path d="M135.46,26.74a8.38,8.38,0,0,0,3.52.2c.13,0,.09-.22,0-.22a19.36,19.36,0,0,1-3.4-.3c-.21,0-.3.27-.09.32Z"/><path d="M141.33,40c1.34.09,2.63.51,4,.58a.13.13,0,0,0,.06-.24,8.34,8.34,0,0,0-4-.7c-.23,0-.22.34,0,.36Z"/><path d="M143.63,43.62c.88.71,2.56,1,3.37,0,.09-.11,0-.36-.17-.29-1.06.43-2,.77-3.05.1-.12-.07-.26.1-.15.19Z"/><path d="M146.33,50.54a4.94,4.94,0,0,0,3-.19.12.12,0,0,0-.06-.22c-1,0-1.95.17-2.94.11a.16.16,0,0,0,0,.3Z"/><path d="M146.18,48.43A21.34,21.34,0,0,0,148.29,47c.1-.09,0-.22-.13-.17A16.68,16.68,0,0,0,146,48.18a.15.15,0,0,0,.15.25Z"/><path d="M147.12,54.26a5.28,5.28,0,0,0,3.84-.51.15.15,0,0,0-.12-.28,10,10,0,0,1-3.67.47c-.19,0-.23.29,0,.32Z"/><path d="M148.42,57.69a2.22,2.22,0,0,0,3.06-1.17c0-.11-.13-.22-.21-.12a2.64,2.64,0,0,1-2.74,1c-.15,0-.27.19-.11.27Z"/><path d="M149.55,61.73a3.9,3.9,0,0,0,3.28-1.19c.07-.09,0-.22-.14-.19-.53.19-1,.5-1.54.68a8.51,8.51,0,0,1-1.64.39c-.19,0-.13.29,0,.31Z"/><path d="M150.08,65.48a6.65,6.65,0,0,0,3.77-1.18c.11-.08.05-.28-.1-.24-1.25.35-2.45.77-3.71,1.07a.18.18,0,0,0,0,.35Z"/><path d="M150.58,68.8a3.25,3.25,0,0,0,2.78-.79.18.18,0,0,0-.21-.28,8.22,8.22,0,0,1-2.54.91c-.09,0-.13.15,0,.16Z"/><path d="M151.4,72.84a3.6,3.6,0,0,0,3-.9.16.16,0,0,0-.2-.25,6.4,6.4,0,0,1-2.79.85.15.15,0,0,0,0,.3Z"/><path d="M151.26,76.41a2.9,2.9,0,0,0,3.61-.54c.1-.1,0-.29-.16-.2a4.27,4.27,0,0,1-3.36.51.13.13,0,0,0-.09.23Z"/><path d="M151.32,80a4.76,4.76,0,0,0,3.31.58.18.18,0,0,0,0-.36,12.44,12.44,0,0,1-3.13-.53c-.18-.07-.3.23-.13.31Z"/><path d="M150.63,83.77a3.2,3.2,0,0,0,4,.87c.17-.1,0-.31-.12-.29a4.14,4.14,0,0,1-3.64-.81.16.16,0,0,0-.23.23Z"/><path d="M150.05,87a2.89,2.89,0,0,0,3.59.72c.14-.09.1-.37-.1-.35a4.61,4.61,0,0,1-3.35-.56c-.11-.07-.22.09-.14.19Z"/><path d="M149.57,91c.52,1.49,2.43,2.89,4,2.19.19-.09.07-.34-.09-.36a4.83,4.83,0,0,1-2.12-.4,3.63,3.63,0,0,1-1.52-1.56c-.08-.17-.37-.05-.31.13Z"/><path d="M148.11,94.2c.69,1,2.09,1.89,3.33,1.4a.14.14,0,0,0,0-.28,3.81,3.81,0,0,1-3-1.29c-.13-.17-.42,0-.29.17Z"/><path d="M146.53,96.53a2.64,2.64,0,0,0,3.05,2.25.14.14,0,0,0,0-.27,3.79,3.79,0,0,1-1.76-.55,3.52,3.52,0,0,1-1.1-1.48.09.09,0,0,0-.16,0Z"/><path d="M145.05,100c.08,1.24,1.31,2.71,2.68,2.32a.13.13,0,0,0,0-.25c-1.16-.29-2.22-.8-2.46-2.1a.11.11,0,0,0-.22,0Z"/><path d="M143,103.68a2.79,2.79,0,0,0,1,2.16,2.42,2.42,0,0,0,2.18.67.19.19,0,0,0,0-.36,5,5,0,0,1-1.83-.78,3,3,0,0,1-1-1.73.16.16,0,0,0-.32,0Z"/><path d="M140.68,107.12A3.15,3.15,0,0,0,144,110c.19,0,.18-.34,0-.38a3.78,3.78,0,0,1-3.08-2.55c-.05-.14-.29-.13-.28,0Z"/><path d="M139.19,110c1.11,1.65,3.62,2.68,5.4,1.46a.12.12,0,0,0-.09-.23c-1.9.52-3.85.36-5.09-1.35-.09-.13-.31,0-.22.12Z"/><path d="M138.07,113.09c1.59,1,4.12,1.49,5.75.29a.18.18,0,0,0-.14-.32,16,16,0,0,1-2.59.39,6.83,6.83,0,0,1-2.85-.65.17.17,0,0,0-.17.29Z"/><path d="M136.49,126.53a4,4,0,0,0,5,.06c.12-.11,0-.31-.18-.23a4,4,0,0,1-4.62,0c-.13-.09-.3.13-.17.22Z"/><path d="M137,130.34c1.84.87,4.82.76,6-1.21a.17.17,0,0,0-.23-.23,9.45,9.45,0,0,1-2.54,1.32,5.61,5.61,0,0,1-3.12-.13c-.14,0-.24.18-.1.25Z"/><path d="M139.49,135.69c1.5-.19,3.16-1.19,3.41-2.8a.16.16,0,0,0-.3-.12,4.69,4.69,0,0,1-3.16,2.58c-.19,0-.15.36.05.34Z"/><path d="M142.18,138.55c1.56-.46,3.55-2.07,3.52-3.87a.12.12,0,0,0-.22-.06c-.51.69-.8,1.48-1.38,2.14a7.69,7.69,0,0,1-2,1.56.13.13,0,0,0,.1.23Z"/><path d="M145.14,140.49a3.81,3.81,0,0,0,2.36-3.73c0-.12-.19-.09-.23,0a10.49,10.49,0,0,1-.74,1.88,5.75,5.75,0,0,1-1.52,1.55c-.13.1-.06.38.13.3Z"/><path d="M148.3,142a4.14,4.14,0,0,0,2.71-3.92.14.14,0,0,0-.27,0,7.35,7.35,0,0,1-.92,2.13,7.87,7.87,0,0,1-1.65,1.61c-.11.08,0,.26.13.22Z"/><path d="M151.45,143.44a7.61,7.61,0,0,0,1.66-3.72.09.09,0,0,0-.16-.05c-.29.61-.42,1.28-.69,1.9a10.47,10.47,0,0,1-1,1.75c-.08.12.11.24.2.12Z"/><path d="M131.8,117.46h0s0,0,0,0Z"/><path d="M136.36,118.1a6.5,6.5,0,0,1,4.68-.53c.12,0,.22-.15.09-.22a5.41,5.41,0,0,0-4.94.44.18.18,0,0,0,.17.31Z"/><path d="M148.21,115.31a1.21,1.21,0,0,0-.51.31c-.08.07,0,.22.12.15a1.2,1.2,0,0,0,.39-.45s0,0,0,0Z"/><path d="M149.28,115.89a0,0,0,0,0,0,0,0,0,0,0,0,0,0Z"/><path d="M148.75,116.79a2.07,2.07,0,0,0-.82,0,.09.09,0,0,0,0,.17,2.27,2.27,0,0,0,.82,0,.14.14,0,0,0,0-.27Z"/><path d="M148.75,118.56a.45.45,0,0,0-.34.08.16.16,0,0,0,0,.28.56.56,0,0,0,.34.08.22.22,0,0,0,0-.44Z"/><path d="M149.81,119.6a0,0,0,0,0,0,0,0,0,0,0,0,0,0Z"/><path d="M148.75,120.28c-.15,0-.33-.12-.5-.14s-.37,0-.56,0c-.35,0-.35.6,0,.56l.56-.05c.17,0,.35-.13.5-.14a.09.09,0,1,0,0-.18Z"/><path d="M149.94,112.54q.62-.71,1.26-1.38c.43-.45.93-.85,1.32-1.34.06-.08,0-.23-.13-.16a15,15,0,0,0-2.63,2.7c-.11.13.07.31.18.18Z"/><path d="M150.86,114.59a5.22,5.22,0,0,0,1.41-.3c.11,0,.11-.24,0-.23a5.26,5.26,0,0,0-1.41.33c-.1,0-.09.21,0,.2Z"/><path d="M151.82,115.71a1.62,1.62,0,0,0,1.46.5.09.09,0,0,0,0-.18,2.4,2.4,0,0,1-1.27-.51c-.13-.12-.32.07-.19.19Z"/><path d="M152.29,117.77a5.6,5.6,0,0,0,.33.8c0,.09.18,0,.16-.07a4.59,4.59,0,0,0-.24-.8c-.06-.15-.3-.09-.25.07Z"/><path d="M151.52,120.37a2.5,2.5,0,0,0,0,.82.1.1,0,0,0,.2,0,2.5,2.5,0,0,0,0-.82.15.15,0,0,0-.29,0Z"/><path d="M100.11,42.07c.29-2.39-1.69-5-3.38-6.48a9.68,9.68,0,0,0-7.46-2.67.18.18,0,0,0,0,.36c5.6.53,8.66,3.82,10.65,8.82a.1.1,0,0,0,.19,0Z"/><path d="M102.9,41.07a1.61,1.61,0,0,1-.21-.3c-.15-.24-.49.09-.24.24a1.61,1.61,0,0,1,.3.21c.08.06.21-.06.15-.15Z"/><path d="M102.86,41.39a7,7,0,0,0-3.61-5c-.18-.07-.27.18-.17.29a29.57,29.57,0,0,1,2.18,2.29,18,18,0,0,1,1.49,2.51c0,.06.12,0,.11,0Z"/><path d="M92.43,39.46a10.75,10.75,0,0,0-6.14-3.3c-3-.5-5.93.62-8.93.41-.18,0-.22.29,0,.31,2.4.33,4.61-.48,7-.44a12.06,12.06,0,0,1,7.87,3.26.17.17,0,0,0,.25-.24Z"/><path d="M84.83,40a10.83,10.83,0,0,0-5-1.18c-1.14,0-2.28.06-3.42.11s-3.55.44-4.4-.28a.18.18,0,0,0-.25.25c.83.93,3.13.49,4.21.44,3-.12,5.85-.36,8.69.89.16.07.3-.15.14-.23Z"/><path d="M67.73,42.58a9.94,9.94,0,0,1,2.79-1.28c.93-.23,1.86-.1,2.78-.28.27-.05.2-.4,0-.48-1.81-.76-4.54.41-5.82,1.72a.21.21,0,0,0,.25.32Z"/><path d="M68.45,44.64a13.34,13.34,0,0,1,9.88-1.28c2.08.43,4.07.81,6.09,0a.21.21,0,0,0-.11-.41c-3.43.74-6.5-.89-9.89-.8a9.81,9.81,0,0,0-6.12,2.33c-.11.09,0,.26.15.19Z"/><path d="M80.32,45.32c-5.39-1.61-6,7-10.81,7a.23.23,0,0,0-.06.44c1.47.55,2.88-.66,3.86-1.69,2.15-2.28,3.27-5.47,7-5.43a.18.18,0,0,0,0-.35Z"/><path d="M68.51,49.61a8.83,8.83,0,0,0,4-3,.11.11,0,0,0-.14-.15c-.73.46-1.35,1.09-2,1.6s-1.32.87-2,1.35c-.09.07,0,.23.12.19Z"/><path d="M73.88,55.57c-.18-.37.42-1.33.59-1.65a3.47,3.47,0,0,1,1.41-1.43,15,15,0,0,1,3.22-.91.15.15,0,0,0,0-.29,5.84,5.84,0,0,0-4.2,1.35c-.48.47-1.84,2.48-1.16,3.07a.12.12,0,0,0,.18-.14Z"/><path d="M84.08,38.93a12.43,12.43,0,0,1,2.28.16c.69.17,1.25.59,1.91.79.12,0,.26-.12.18-.23a4.23,4.23,0,0,0-4.43-1c-.13.06,0,.24.06.24Z"/><path d="M88.85,35.42c1.52-.15,2.78.68,4.08,1.36a5.12,5.12,0,0,1,2.8,2.55.18.18,0,0,0,.35-.1c-.28-1.4-1.49-2.11-2.68-2.75-1.4-.75-2.94-1.79-4.6-1.39-.17,0-.14.35,0,.33Z"/><path d="M58.31,44.88a25.66,25.66,0,0,1,3.27-.31.19.19,0,0,0,0-.37,12.13,12.13,0,0,0-3.34.41.14.14,0,0,0,.07.27Z"/><path d="M59,47a4.67,4.67,0,0,0,1.26-1.09,10.19,10.19,0,0,0,1.14-1.23c.09-.14-.11-.26-.22-.17a14.28,14.28,0,0,0-1.23,1.23,5.51,5.51,0,0,0-1.06,1.15A.08.08,0,0,0,59,47Z"/><path d="M58.18,52.22a7.5,7.5,0,0,1,1.43-.61,7.13,7.13,0,0,0,1.23-.3.11.11,0,0,0,0-.2,2.47,2.47,0,0,0-1.39.17,5,5,0,0,0-1.38.71c-.14.1,0,.32.13.23Z"/><path d="M56.82,58.29a7.22,7.22,0,0,0,2-.74c.07,0,0-.19,0-.18a6.8,6.8,0,0,0-2.07.72c-.11,0,0,.23.08.2Z"/><path d="M56.22,62.73a14.91,14.91,0,0,0,2.16-1.33c.14-.1,0-.29-.17-.23a17.2,17.2,0,0,0-2.13,1.32c-.14.1,0,.33.14.24Z"/><path d="M53.94,41.47c.26,0,.43-.12.66-.24s.64-.25.94-.42c.1-.06.06-.24-.06-.23-.46,0-1.46.37-1.55.88Z"/><path d="M115.28,54.69A26.63,26.63,0,0,1,118,51a29.57,29.57,0,0,1,3.14-2.78c.07,0,0-.15-.09-.11a13.55,13.55,0,0,0-5.9,6.54c0,.11.12.17.18.08Z"/><path d="M108.48,93.5c3.09.28,7.37-2,9-4.6a.19.19,0,0,0-.25-.25c-1.32.87-2.49,1.94-3.9,2.7a48.06,48.06,0,0,1-4.9,1.82.17.17,0,0,0,0,.33Z"/><path d="M117.36,113.77a0,0,0,0,0,0,0s0,0,0,0Z"/><path d="M115.18,112.38a97,97,0,0,0,10.59,3.84.2.2,0,0,0,.15-.37,41.12,41.12,0,0,0-10.66-3.65c-.1,0-.18.13-.08.18Z"/><path d="M67.82,105.83l.34-.31-.18,0a3,3,0,0,0,.36.66c.06.07.15,0,.14-.07a3.36,3.36,0,0,0-.3-.7.11.11,0,0,0-.2,0,2.92,2.92,0,0,0-.24.37s0,.11.08.08Z"/><path d="M77.46,110.54a14.35,14.35,0,0,0,2.93-.06l-.16-.21a1.65,1.65,0,0,1-.72.8c-.18.1,0,.35.16.27a1.72,1.72,0,0,0,.89-1,.17.17,0,0,0-.17-.21,15.12,15.12,0,0,0-2.93.24c-.07,0-.08.14,0,.15Z"/><path d="M73,114.25a11.05,11.05,0,0,1,2,3l.28-.22a5.34,5.34,0,0,0-1.81-.75c-.3-.06-.43.38-.13.46a10.7,10.7,0,0,1,1.75.62.19.19,0,0,0,.26-.26,9.46,9.46,0,0,0-2.2-3,.08.08,0,0,0-.12.12Z"/><path d="M64.63,115.65a2.22,2.22,0,0,0,.47,2.57c.1.09.32.06.34-.09A2.84,2.84,0,0,1,66,116.7l-.35-.09c.34,1,1.09,2.24,2.28,2.37.16,0,.2-.22.08-.3-.9-.55-1.76-1-2-2.18a.22.22,0,0,0-.36-.09,2.66,2.66,0,0,0-.66,1.66l.35-.14a2.06,2.06,0,0,1-.54-2.19.12.12,0,0,0-.22-.09Z"/><path d="M80.41,115.58a5.11,5.11,0,0,1,1.47,1l.13-.34c-.66.07-1.33.21-2,.27l.22.38a1.62,1.62,0,0,0,.17-.48c0-.11-.1-.25-.21-.16a2.24,2.24,0,0,0-.36.33.26.26,0,0,0,.25.43c.66-.16,1.33-.24,2-.38a.2.2,0,0,0,.08-.33,4.27,4.27,0,0,0-1.65-.95c-.13,0-.22.16-.09.21Z"/><path d="M87,104.51a4.13,4.13,0,0,1,2,.32v-.38A2.47,2.47,0,0,0,88,105.53a.18.18,0,0,0,.27.21c.38-.27.67-.64,1.06-.91a.22.22,0,0,0,0-.38,3.2,3.2,0,0,0-2.31-.22c-.15,0-.13.29,0,.28Z"/><path d="M85,55.77c-2.63,2.56,1,5.22,3,6.46,3.62,2.24,7.28,6.05,11.9,4.3.19-.07.11-.37-.08-.3-3.56,1.23-6.58-.79-9.35-2.79-2.2-1.59-7.75-4.07-5.27-7.49.1-.14-.11-.29-.23-.18Z"/><path d="M96.1,67.09A2.17,2.17,0,0,0,98.48,67c.1-.1,0-.24-.13-.22a9.43,9.43,0,0,1-1.08.25,5,5,0,0,1-1.09-.15.1.1,0,0,0-.08.19Z"/><path d="M96,66.94a5.88,5.88,0,0,0,2.17.13.08.08,0,0,0,0-.16c-.68-.16-1.42-.11-2.11-.21-.15,0-.22.22-.06.24Z"/><path d="M92.45,58a0,0,0,0,0,0,0,0,0,0,0,0,0,0Z"/><path d="M92.75,57.74a1.32,1.32,0,0,0-.67-.56.12.12,0,0,0-.14,0,.94.94,0,0,0-.3.9.09.09,0,0,0,.17,0c.06-.2.08-.46.29-.54s.37.13.49.29.23,0,.16-.13Z"/><path d="M79.92,81.85a17.47,17.47,0,0,1,7.39-1.26,21.85,21.85,0,0,0,5,.22c3.08-.52,5.4-2.64,7.05-5.19,0-.06-.06-.14-.11-.08-2.64,3.29-6,5-10.25,4.62a17.81,17.81,0,0,0-9.25,1.4c-.16.07,0,.35.13.29Z"/><path d="M90.91,72.28v-.13a0,0,0,1,0-.08,0v.13a.05.05,0,0,0,.1,0Z"/><path d="M90.61,72.16a28.71,28.71,0,0,1,0,3.47,29.17,29.17,0,0,1-.91,3.8.19.19,0,0,0,.34.14,10.26,10.26,0,0,0,.87-7.45.16.16,0,0,0-.32,0Z"/><path d="M80.32,77.1a.52.52,0,0,0-.69.4.25.25,0,0,0,.3.3.48.48,0,0,0,.41-.42c0-.28-.37-.4-.43-.12l0,0,.24.32.08-.07a.24.24,0,0,0,.13-.46Z"/><path d="M95.6,78.33a.31.31,0,0,0,.58-.09c0-.18-.19-.35-.33-.19H96l.06.21h0a.13.13,0,0,0,.06-.15v0a.2.2,0,0,0-.18-.13h-.06a.22.22,0,0,0-.21.16l0,.06a.21.21,0,0,0,.06.21.29.29,0,0,0,.48-.06l-.37-.1.09-.07c-.13-.16-.37,0-.28.21Z"/><path d="M76.08,81.55a2,2,0,0,0,2,.38.15.15,0,0,0,0-.26,5.56,5.56,0,0,0-.82-.08,3.5,3.5,0,0,1-1-.3.15.15,0,0,0-.15.26Z"/><path d="M88.1,81.58a6.3,6.3,0,0,0-.82,1.59c-.29.54-.64,1-.88,1.57-.05.12.12.24.22.17a4.15,4.15,0,0,0,1.18-1.56,3,3,0,0,0,.53-1.71.14.14,0,0,0-.23-.06Z"/><path d="M104.72,95.14c-2,0-2.58,2.16-3.39,3.65a14.88,14.88,0,0,1-7,6.23.16.16,0,0,0,.12.3,13.38,13.38,0,0,0,5.18-3.53,13.82,13.82,0,0,0,1.87-2.55c.73-1.28,1.32-3.75,3.22-3.78a.16.16,0,0,0,0-.32Z"/></svg>