<svg id="carracters" xmlns="http://www.w3.org/2000/svg" viewBox="0 0 198.43 35.43"><defs><style>.cls-1{fill:#646464;opacity:0.5;}.cls-2{fill:#fff;}</style></defs><path d="M102.19,6.64l-.26,3.45.73-.59.11.16-1,.81-.83-1c.07-.13.14-.16.24,0s.32.39.51.62c0-.21,0-.38,0-.54L102,6.75s0-.07,0-.11Z"/><path d="M171.64,14.43h-4.13V12.91h4.37l.6-4.41,2.32.23c-.09.36-.39.4-.66.48l-.56,3.54a25.77,25.77,0,0,0,3.19-.44c1-.22,2.07-.5,3.14-.75l.35,1.51a28.56,28.56,0,0,1-6.91,1.28c-.44,2.41-1,4.8-1.63,7.15a42.79,42.79,0,0,1-2.51,6.92l-1.64-.62a38.49,38.49,0,0,0,2.51-6.52A62.43,62.43,0,0,0,171.64,14.43Z"/><path class="cls-1" d="M65.1,14.23H61V12.71h4.37L66,8.3l2.32.23c-.09.36-.39.41-.66.48L67,12.55a25.93,25.93,0,0,0,3.2-.44c1-.22,2.07-.49,3.14-.75l.35,1.51a28.56,28.56,0,0,1-6.91,1.28c-.45,2.41-1,4.8-1.63,7.15a41.9,41.9,0,0,1-2.52,6.92L61,27.61a38.92,38.92,0,0,0,2.51-6.53A62.4,62.4,0,0,0,65.1,14.23Z"/><path d="M103.33,8.52l2.31.22c-.09.36-.37.4-.65.48l-.57,3.54a26.08,26.08,0,0,0,6.3-1.26l.37,1.58a28.56,28.56,0,0,1-6.91,1.28,60.57,60.57,0,0,1-4.11,14.07l-.31-.11-1.34-.51a48.84,48.84,0,0,0,4.07-13.36H98.36V12.91h4.37Z"/><path d="M133.69,14.45V12.91h4.38l.6-4.39,2.3.22a.46.46,0,0,1-.39.41c-.22,0-.27.15-.3.35-.16,1.08-.34,2.16-.52,3.26a26.16,26.16,0,0,0,6.3-1.25l.37,1.57c-.37.12-.74.24-1.11.34a26.22,26.22,0,0,1-4.21.78l-1.43.14c-.13,0-.17.06-.19.19a75.35,75.35,0,0,1-2.24,9.12,39.67,39.67,0,0,1-1.76,4.58l-.1.19-1.63-.61a48.71,48.71,0,0,0,4.07-13.36Z"/><path d="M186.22,26.45V28.1h-1.37c-1.27,0-2.54-.06-3.81-.14a8.55,8.55,0,0,1-2.6-.49A3,3,0,0,1,176.36,25a3.75,3.75,0,0,1,.4-2.28c.25-.48.57-.92.85-1.37.07-.12.14-.15.27-.09.39.19.79.35,1.19.53-.2.29-.41.57-.59.86a3.43,3.43,0,0,0-.54,1.39A1.71,1.71,0,0,0,179,26a5.37,5.37,0,0,0,1.85.43c1.18.06,2.38.1,3.57.12C185,26.53,185.61,26.47,186.22,26.45Z"/><path class="cls-1" d="M152.61,26.45V28.1h-1.37c-1.28,0-2.55-.06-3.82-.14a8.49,8.49,0,0,1-2.59-.49A3,3,0,0,1,142.74,25a3.68,3.68,0,0,1,.41-2.28c.24-.48.56-.92.84-1.37a.19.19,0,0,1,.28-.09c.39.19.79.35,1.19.53-.21.29-.42.57-.6.86a3.43,3.43,0,0,0-.54,1.39A1.72,1.72,0,0,0,145.39,26a5.43,5.43,0,0,0,1.85.43q1.78.09,3.57.12C151.4,26.53,152,26.47,152.61,26.45Z"/><path d="M73.49,13.13a113.28,113.28,0,0,1-12.73,1.35V13a89.37,89.37,0,0,0,12.37-1.39c.05.2.11.46.17.72S73.42,12.8,73.49,13.13Z"/><path d="M144,18.61l-.39-1.42a27.11,27.11,0,0,1,8.19-1.14v1.54A26.14,26.14,0,0,0,144,18.61Z"/><path d="M177.83,18.6l-.39-1.41A26.66,26.66,0,0,1,185.62,16v1.54A26.11,26.11,0,0,0,177.83,18.6Z"/><path class="cls-1" d="M80.06,26.45V28.1H78.69c-1.27,0-2.55-.06-3.82-.14a8.49,8.49,0,0,1-2.59-.49A3,3,0,0,1,70.19,25a3.75,3.75,0,0,1,.41-2.28c.24-.48.56-.92.84-1.37a.19.19,0,0,1,.28-.09c.39.19.79.35,1.19.53-.21.29-.41.57-.6.86a3.27,3.27,0,0,0-.53,1.39A1.7,1.7,0,0,0,72.84,26a5.43,5.43,0,0,0,1.85.43q1.78.09,3.57.12C78.85,26.53,79.44,26.47,80.06,26.45Z"/><path class="cls-1" d="M71.67,18.6l-.39-1.41A26.61,26.61,0,0,1,79.46,16v1.54A26.07,26.07,0,0,0,71.67,18.6Z"/><path class="cls-1" d="M116.89,26.45V28.1h-1.37c-1.27,0-2.55-.06-3.82-.14a8.49,8.49,0,0,1-2.59-.49A3,3,0,0,1,107,25a3.75,3.75,0,0,1,.41-2.28c.24-.48.56-.92.84-1.37a.19.19,0,0,1,.28-.09c.39.19.79.35,1.19.53-.21.29-.41.57-.6.86a3.27,3.27,0,0,0-.53,1.39A1.7,1.7,0,0,0,109.67,26a5.43,5.43,0,0,0,1.85.43q1.78.09,3.57.12C115.68,26.53,116.27,26.47,116.89,26.45Z"/><path class="cls-1" d="M108.5,18.6l-.39-1.41A26.66,26.66,0,0,1,116.29,16v1.54A26.07,26.07,0,0,0,108.5,18.6Z"/><path class="cls-2" d="M20.94,14.09H16.81V12.57h4.37l.6-4.41,2.32.23c-.09.36-.39.4-.66.48l-.56,3.54A25.77,25.77,0,0,0,26.07,12c1-.22,2.07-.5,3.14-.75l.35,1.51A28.56,28.56,0,0,1,22.65,14c-.44,2.41-1,4.8-1.63,7.15a42.34,42.34,0,0,1-2.51,6.91l-1.64-.61a38.49,38.49,0,0,0,2.51-6.52A62.43,62.43,0,0,0,20.94,14.09Z"/><path class="cls-2" d="M35.52,26.11v1.65H34.15c-1.27,0-2.54-.06-3.81-.14a8.55,8.55,0,0,1-2.6-.49,3,3,0,0,1-2.08-2.46,3.75,3.75,0,0,1,.4-2.28c.25-.48.57-.92.85-1.37.07-.12.14-.15.27-.09.39.19.79.35,1.19.53-.2.29-.41.57-.59.86a3.43,3.43,0,0,0-.54,1.39,1.71,1.71,0,0,0,1.07,1.92,5.37,5.37,0,0,0,1.85.43c1.18.06,2.38.1,3.57.12C34.32,26.19,34.91,26.13,35.52,26.11Z"/><path class="cls-2" d="M27.13,18.26l-.39-1.41a26.66,26.66,0,0,1,8.18-1.15v1.54A26.11,26.11,0,0,0,27.13,18.26Z"/><path d="M177.83,29.59l-.12-.16.74-.59-.49-.1a4.38,4.38,0,0,1-3.43-3,4.23,4.23,0,0,1,.8-3.86l.15.11a4,4,0,0,0-.36,4.57,4.47,4.47,0,0,0,3.37,2.05l-.57-.73.15-.13.8,1Z"/><path d="M64,11.15l-.77,1.07L63,12.11l.56-.79-3.35.62,0-.2,3.38-.62-.74-.54c0-.15.1-.19.23-.08Z"/><path d="M143.7,16.5l-3.35.59c-.09-.17,0-.21.14-.23l3.2-.57c-.24-.17-.43-.32-.64-.46s-.11-.15,0-.24l1,.74-.78,1.06-.17-.11Z"/><path d="M102.67,12.91l.59-4.39,2.32.22c-.09.36-.38.4-.65.48l-.57,3.54"/><path d="M104.12,14.36A61.08,61.08,0,0,1,100,28.43l-.3-.11-1.34-.51a48.84,48.84,0,0,0,4.07-13.36"/></svg>