<svg id="illustration" xmlns="http://www.w3.org/2000/svg" viewBox="0 0 198.43 143.05"><defs><style>.cls-1{fill:#f4a96c;}.cls-2{fill:#f8ed30;}.cls-3{fill:#918e1b;}.cls-4{fill:#b17c4e;}.cls-5{fill:#fff;}.cls-6{fill:#815936;}.cls-7{fill:#010101;}</style></defs><path class="cls-1" d="M149,38.52l.25,3.1-.67,3.47-3.43,1.75-3.45,2.66-2.35,2.35-2.41,2-4.36-1-5.61-.36-2.91.4-3.9.52-4,1.35-2.27-1.91-2.79.9-2,2-4.35-2.25-4.76-1H97.1l-5.81,1.47-3.56,1.62,3.36-5.77,1.7-4.82,1.67-4.87,1-5.82,2-4.3,3.18-3.82,6.59-3.14,4.74-2.4,3.25-4.2.14-5.71-1.12-2-3.11-3.87-2.07-1-5,2.34-2.28,1.12-2.2,4.3-1.37,3.41L95,19.66l-4.15,3.48L80.88,33.48,72.16,45.09,62.64,62.75l-5.1,14.51-1.8,3-.05,3.37,1.09,2,5.75-.67,2.79-1.57,9.58,5.39L83.23,90l7,.65,11-1.93,6.94-2.16,5.66-1.66,5.56,9.68,4.71,6.59,2.78,2.76L174,126V35.12s-3.06,2.52-11.19,3.37A61.93,61.93,0,0,1,149,38.52Z"/><path class="cls-2" d="M116.15,54.8l4-1.35,3.9-.52s2.91,29.82,23.11,46.45c21.16,12.36,28.49,5.68,27.89,7.28l-.38,36L128.07,144h0l-2.19-6.86-2-5.07-2.19-7.4-1.67-7-.72-9.16-.5-7.33.52-6.59,7.49,9.35L125.51,97,124,90.77l-2.28-8.4-2.06-6.14-2.35-11V58.61Z"/><polygon class="cls-3" points="119.3 94.59 118.78 101.18 119.28 108.51 120.7 115.47 122.93 120.01 124.01 122.15 125.88 118.25 126.79 112.66 128.07 105.92 126.79 103.94 122.51 99.08 119.3 94.59"/><path class="cls-3" d="M125.12,126.12c3.77,5,5.18,10.35,5.5,16.55a.39.39,0,0,0,.77,0c.28-6.09-2.18-12.12-5.87-16.87-.18-.22-.58.08-.4.32Z"/><path class="cls-3" d="M120.41,53.87c-1.3,6.21-.8,14.76,2.55,20.31.13.22.55.15.51-.13-.39-3.33-1.43-6.5-1.7-9.86A75.82,75.82,0,0,1,122,54.08a.82.82,0,0,0-1.6-.21Z"/><path class="cls-4" d="M164.51,65.55c2,.52,4.34,1.43,6.38,1a.9.9,0,0,0,.21-1.64c-1.93-.86-4.4-.5-6.45-.42a.54.54,0,0,0-.14,1.06Z"/><path class="cls-4" d="M141.7,55.57A17.54,17.54,0,0,0,153,59.8c.34,0,.52-.51.18-.67-1.65-.83-3.46-1.43-5.19-2.1-1.92-.75-3.77-1.76-5.75-2.32a.52.52,0,0,0-.5.86Z"/><path class="cls-4" d="M152.68,39.9c-.19,1.05,1.18,2.1,1.88,2.71A14.43,14.43,0,0,0,158.29,45c.68.3,1.29-.69.6-1a17.63,17.63,0,0,1-3.67-2.29c-.7-.58-1.5-1.8-2.46-1.85,0,0-.08,0-.08.07Z"/><path class="cls-4" d="M151.51,50.92a26,26,0,0,0,3.68,1.22,24.91,24.91,0,0,0,3.8,1c.42.06.62-.65.22-.83a25.65,25.65,0,0,0-3.76-1.08,24.74,24.74,0,0,0-3.8-.82.29.29,0,0,0-.14.54Z"/><path class="cls-4" d="M165.13,40.46a2.89,2.89,0,0,1,.91,1.3c.13.56-.19,1-.19,1.55a.44.44,0,0,0,.56.42c1-.23,1-1.52.78-2.28a2.79,2.79,0,0,0-.63-1.11,1.34,1.34,0,0,0-1.22-.4c-.23,0-.44.34-.21.52Z"/><path class="cls-4" d="M166.36,74.4c2.08,8.37-1.14,16.61-9.75,19.44-.76.25-.44,1.45.33,1.2,8.82-2.76,14.24-12.16,10.29-21-.23-.51-1-.14-.87.37Z"/><path class="cls-4" d="M166.33,75.54a29.92,29.92,0,0,0-.41,4.44c0,1.33-.3,2.75.25,4a.58.58,0,0,0,1,0c.59-1.21.38-2.66.36-4a29.91,29.91,0,0,0-.27-4.44c-.07-.47-.84-.45-.93,0Z"/><path class="cls-4" d="M165.56,76.8a18.15,18.15,0,0,0-.89,5.17c0,1.5-.08,3.44.84,4.69a.69.69,0,0,0,1.25-.17c.36-1.46-.13-3-.18-4.52a32.15,32.15,0,0,1,.23-5c.09-.73-1-.82-1.25-.17Z"/><path class="cls-4" d="M167.4,83.58a9.44,9.44,0,0,0,1.25,7.19c1.12,1.79,3.29,4.07,5.6,3.86.29,0,.53-.41.26-.64-1.62-1.38-3.44-2-4.7-3.9a9.23,9.23,0,0,1-1.41-6.37c.06-.57-.87-.68-1-.14Z"/><path class="cls-4" d="M156.39,104c1.6-.9,2.88-2.35,4.46-3.33s3.57-1.16,4.68-2.38A.76.76,0,0,0,165.2,97c-1.78-.49-4.17,1.12-5.59,2.07s-3.35,2.5-4,4.32a.52.52,0,0,0,.75.58Z"/><path class="cls-4" d="M167,101.17a6.31,6.31,0,0,0,1.13,2.42,6.36,6.36,0,0,1,.64,3.07c0,1.22,2.05,1.62,2.24.3a6.94,6.94,0,0,0-.72-4.07c-.51-1-1.49-2.38-2.8-2.21a.5.5,0,0,0-.49.49Z"/><path class="cls-4" d="M172.18,98.26a3.5,3.5,0,0,0,1.79.54c.39,0,.6-.58.21-.77a3.41,3.41,0,0,0-1.87-.25.26.26,0,0,0-.13.48Z"/><path class="cls-4" d="M136.27,54.3a18.59,18.59,0,0,0-1.8,1.75c-.57.61-1.18,1.07-1.29,1.93a.77.77,0,0,0,1,.74c.8-.29,1.11-1,1.57-1.69a22.32,22.32,0,0,0,1.3-2.15.48.48,0,0,0-.76-.58Z"/><path class="cls-4" d="M133.19,58.82a11.11,11.11,0,0,1,1.3-2.14c.54-.62,1.42-.87,1.85-1.58a.77.77,0,0,0-.66-1.15c-1.06,0-1.76,1.07-2.3,1.88a4.1,4.1,0,0,0-.8,2.82c0,.3.44.49.61.17Z"/><path class="cls-4" d="M87.49,56.05A56.34,56.34,0,0,0,84.25,62a38.58,38.58,0,0,0-2.72,5.46c-.28.81.85,1.15,1.28.55A43.72,43.72,0,0,0,86,62a50.87,50.87,0,0,0,2.61-5.48c.24-.66-.71-1-1.07-.45Z"/><path class="cls-4" d="M82.23,67.33A9.86,9.86,0,0,1,83,62.9c.48-1,1.59-1.81,1.64-2.9a.31.31,0,0,0-.31-.31C83,59.58,82,61.46,81.55,62.52a7.15,7.15,0,0,0-.42,5,.56.56,0,0,0,1.1-.15Z"/><path class="cls-4" d="M83.72,67.29a17.92,17.92,0,0,0,2.37-4.45,20.15,20.15,0,0,0,2-4.73c.08-.38-.44-.82-.74-.43a21.77,21.77,0,0,0-2.4,4.89,17.88,17.88,0,0,0-1.68,4.52.28.28,0,0,0,.48.2Z"/><path class="cls-4" d="M64.56,82c4.5,6.79,14.43,8.5,22,8.5a61.69,61.69,0,0,0,30.29-8.23.52.52,0,0,0-.39-.94c-9.41,1.63-17.92,5.93-27.62,6.43-9,.47-15.79-2.73-23.88-6.18-.26-.1-.61.14-.42.42Z"/><path class="cls-4" d="M116.55,82.25c-1.49,4.59,1.11,10.27,4.31,13.55.67.7,1.61-.31,1-1a19.23,19.23,0,0,1-3.62-6.49c-.59-2-.74-4-1.2-6a.28.28,0,0,0-.53,0Z"/><path class="cls-4" d="M114.81,85a15.7,15.7,0,0,0,2.58,8.21,1,1,0,0,0,1.8-1,28.86,28.86,0,0,1-3.31-7.31.55.55,0,0,0-1.07.15Z"/><path class="cls-4" d="M115.24,85.79a22.19,22.19,0,0,0,4.26,10.36c1.71,2.25,4.17,5.47,7.16,5.75.75.07,1-.8.78-1.36-1.11-2.45-4.19-4.2-5.86-6.37a37,37,0,0,1-5.12-8.72.63.63,0,0,0-1.22.34Z"/><path class="cls-4" d="M56.15,78.91c-1.54,2.49.27,6,2.92,6.79,2.83.85,6.09-1.07,6.18-4.1a.62.62,0,0,0-1.14-.31c-.83,1.58-2.63,3.11-4.53,2.57C57.52,83.27,57,81,57.22,79.2c.06-.6-.79-.73-1.07-.29Z"/><path class="cls-4" d="M108.63,57.62c.89-1.13,1.73-2.35,3.24-2.64s2.52.85,3.93,1.3a.63.63,0,0,0,.76-.76c-.46-1.91-3.24-2.46-4.9-2.13-1.88.36-3.76,1.93-3.68,4,0,.29.43.55.65.27Z"/><path class="cls-4" d="M124.32,54.4a.4.4,0,0,0,0-.8.4.4,0,0,0,0,.8Z"/><path class="cls-5" d="M68.66,54.13c4.27-4.34,7.64-9.56,11.47-14.29,3.47-4.29,7.85-8.24,10.69-13,.4-.66-.43-1.59-1.11-1.11C85,29.1,81.38,34.36,77.82,38.82s-7.55,9.3-10,14.65c-.24.53.39,1.12.85.66Z"/><path class="cls-5" d="M108.5,5.05a5.32,5.32,0,0,0-4.8.71c-1.2.83-3.09,2.56-2.57,4.19a1.17,1.17,0,0,0,1.69.68c1-.57,1.35-2,2.34-2.72a8.89,8.89,0,0,1,3.34-1.48.72.72,0,0,0,0-1.38Z"/><path class="cls-5" d="M108.9,6.13a2.21,2.21,0,0,1,.88.44L109.42,6c0,.72.73,1,1.11,1.48A8.49,8.49,0,0,1,111.19,9c.35.83,1.63.53,1.84-.24a2.74,2.74,0,0,0-.91-2.69c-.6-.59-1.73-1.33-2.48-.65l.51-.21a3.36,3.36,0,0,0-1.25.22.36.36,0,0,0,0,.69Z"/><path class="cls-5" d="M112.94,13c.34.35.56.65,1,.72a.44.44,0,0,0,.42-.42c-.07-.49-.37-.71-.72-1.05a.53.53,0,0,0-.75.75Z"/><path class="cls-5" d="M89.47,57.21a34.59,34.59,0,0,1,8.71-1.51c2.56,0,4.93,1.35,7.45,1a1.1,1.1,0,0,0,.65-1.61c-1.69-2.65-5.71-2.87-8.59-2.72-3.56.19-6.45,1.25-8.75,3.93a.55.55,0,0,0,.53.92Z"/><path class="cls-5" d="M124.19,54c.94.49,2.25.18,3.28.18,1.47,0,2.76.66,4.19.75a1,1,0,0,0,.71-1.7c-1.71-1.41-7.22-2-8.26.58a.17.17,0,0,0,.08.19Z"/><path class="cls-5" d="M160.4,71.24c.47,5.85,3.65,13.14-3.56,16.28-4.87,2.12-10.45,0-15.27,2.15-.86.38-.38,1.68.46,1.69,5.94.06,15.73.8,20.17-4.22,3.68-4.17,2.81-12.37-.49-16.44a.77.77,0,0,0-1.31.54Z"/><path class="cls-5" d="M137.4,59.72c-2.37-.62-4.58.87-6.07,2.64-1.18,1.4-3.09,4.51-1.74,6.3a.64.64,0,0,0,1,.13,4.84,4.84,0,0,0,.81-2A8.4,8.4,0,0,1,132.81,64c1.23-1.59,3.06-2.38,4.69-3.47a.42.42,0,0,0-.1-.77Z"/><path class="cls-5" d="M169.54,74a92.2,92.2,0,0,0,1.67,13.75c.45,2.28,1.28,4.48,3.8,4.81.83.11,1.07-1.16.41-1.53-2.66-1.51-2.69-5.42-3.15-8.11-.52-3-1-6.08-1.8-9a.48.48,0,0,0-.93.13Z"/><path class="cls-5" d="M168.62,81.34c0,2.51.45,5.86,2.22,7.79a.65.65,0,0,0,1.08-.62c-.34-1.14-1-2.16-1.33-3.32a14.33,14.33,0,0,1-.55-3.85.71.71,0,0,0-1.42,0Z"/><path class="cls-5" d="M163.47,67.9c2.64,2.29,7.61,2.4,9.9-.52a.61.61,0,0,0-.74-1c-3,1.29-5.43,1.65-8.56.43-.58-.22-1.06.65-.6,1.05Z"/><path class="cls-5" d="M143.35,58.45c.58,1.78,2.42,2.43,4.16,2.75s3.69.11,5.51.48c2.15.43,3.09,1.6,4.64,3,.62.56,2,.24,1.83-.75-.27-2.26-2.13-3.54-4.32-3.79-1.85-.22-3.79.06-5.66,0a11.75,11.75,0,0,1-5.94-1.89.15.15,0,0,0-.22.18Z"/><path class="cls-5" d="M153.89,39.64A8.79,8.79,0,0,0,156.83,42c1,.63,2,1.53,3.21,1.36a.54.54,0,0,0,.38-.67c-.4-1.14-1.72-1.64-2.71-2.21a8.74,8.74,0,0,0-3.44-1.5.45.45,0,0,0-.38.67Z"/><path class="cls-5" d="M163.35,41a2,2,0,0,1,.43,1c.05.35-.06.64.12,1a.48.48,0,0,0,.75.09c.41-.36.29-1,.13-1.49a2.24,2.24,0,0,0-.92-1.2c-.43-.29-.79.32-.51.67Z"/><path class="cls-5" d="M152.06,49.25A7.23,7.23,0,0,0,155,51.06c.9.28,2.19.63,2.92-.12a.35.35,0,0,0,0-.5c-.66-.58-1.58-.43-2.4-.62a9.38,9.38,0,0,1-2.95-1.19.4.4,0,0,0-.49.62Z"/><path class="cls-5" d="M149.25,39.67a35.21,35.21,0,0,1-.79,5.5c-.41,1.61-1.25,3.1-1.57,4.72-.08.44.45.83.8.47,2.44-2.57,2.89-7.46,2.33-10.79-.08-.47-.73-.31-.77.1Z"/><path class="cls-5" d="M147.73,45.94a51.47,51.47,0,0,0-5.83,4.33,57.31,57.31,0,0,0-6.1,5.2c-.48.52.14,1.41.78,1a53,53,0,0,0,5.68-4.59,58,58,0,0,0,5.87-5.43c.24-.27-.07-.72-.4-.52Z"/><path class="cls-5" d="M90.49,72.55c4.23,2.62,13.84,2.27,16.77-2.25a.76.76,0,0,0-.66-1.14c-2.43,0-4.65,1.24-7,1.66-2.93.51-5.7-.09-8.61,0a.94.94,0,0,0-.47,1.74Z"/><path class="cls-6" d="M106.15,11a1.42,1.42,0,0,0-1.68.84,1.7,1.7,0,0,0,.35,1.9A1.52,1.52,0,0,0,107,14a2,2,0,0,0,.4-1.91,2.09,2.09,0,0,0-3.27-1.15,2,2,0,0,0-.75,1.76,1.67,1.67,0,0,0,1.13,1.56.85.85,0,0,0,1-1,.58.58,0,0,0,0-.18v0c0-.19,0,0,0-.12-.08.2.12-.16.14-.19s-.08.09,0,0a.2.2,0,0,1-.12.08.44.44,0,0,1-.3,0c.23.09,0-.09,0,0l.09.15c0-.1,0-.08,0,0q0-.17,0,0a.25.25,0,0,1,0-.12l.6-.47c.09,0,.18.07.13.09s.18-.25.26-.29a.62.62,0,0,0-.15-1.12Z"/><path class="cls-6" d="M106.91,10.8c-1.49-.9-3.1,1.09-3.53,2.31-.54,1.54-.31,3.62,1.43,4.26a.77.77,0,0,0,1-.74,8.07,8.07,0,0,1-.15-2.77c.25-1,1.1-1.46,1.49-2.31a.56.56,0,0,0-.2-.75Z"/><path class="cls-6" d="M104.22,16.1a10.23,10.23,0,0,0,2.12,2.09.62.62,0,0,0,.84-.83,10,10,0,0,0-2.1-2.12.61.61,0,0,0-.86.86Z"/><path class="cls-6" d="M105.18,17.47A5.1,5.1,0,0,0,111.32,21a.79.79,0,0,0-.42-1.53,3.72,3.72,0,0,1-4.3-2.39.74.74,0,0,0-1.42.39Z"/><path class="cls-6" d="M109,19.82c-1.49-.17-1.91-1.53-2.43-2.69a.75.75,0,0,0-1.35.18c-.56,2.15,2,3.69,3.89,3.32.49-.1.31-.77-.11-.81Z"/><path class="cls-6" d="M107.18,11.79c.21-.31.38-.49.28-.9A1.86,1.86,0,0,0,105,9.67,1.88,1.88,0,0,0,104,11.14c-.1.59.12,1.5.87,1.5a.48.48,0,0,0,.45-.35c.13-.47-.31-1.08.21-1.44a.57.57,0,0,1,.75.14,2.31,2.31,0,0,1,.27.42c0,.1.19.24.21.32a.25.25,0,0,0,.44.06Z"/><path class="cls-6" d="M108,8.17a2.76,2.76,0,0,1,.37,1.44c0,.49-.29,1-.13,1.5a.43.43,0,0,0,.5.29c.77-.14.93-1.25.86-1.87a3,3,0,0,0-.32-1.07,2.47,2.47,0,0,0-.74-.7c-.27-.23-.78.07-.54.41Z"/><path class="cls-6" d="M107.88,10.59a3.18,3.18,0,0,1,.53,1.68,8.26,8.26,0,0,0,0,1.49.3.3,0,0,0,.44.17c1.14-.85.56-2.85-.1-3.82-.35-.52-1.18,0-.84.48Z"/><path class="cls-6" d="M110.65,12.75a17.44,17.44,0,0,1,.42,2.7,14.52,14.52,0,0,0-.24,2.35c.06.39.58.43.83.21.72-.64.74-2,.68-2.88a4.31,4.31,0,0,0-1-2.76c-.29-.31-.71,0-.65.38Z"/><path class="cls-6" d="M113.33,15.35a3.74,3.74,0,0,1-.42,1.86c-.28.5-.77.87-1,1.41a.44.44,0,0,0,.42.56c.8-.06,1.31-.84,1.57-1.53a3,3,0,0,0,0-2.38c-.11-.28-.58-.28-.56.08Z"/><path class="cls-6" d="M99.15,19.1a21.37,21.37,0,0,0,2.68,1.29,6.8,6.8,0,0,1,1.25,1,7.34,7.34,0,0,0,1.13,1.23.67.67,0,0,0,1-.58c-.16-2.06-4.14-4.67-6-3.34a.24.24,0,0,0,0,.38Z"/><path class="cls-6" d="M105,11.19a4.06,4.06,0,0,1-.29,4.86c-.27.34.06.91.5.65a3.88,3.88,0,0,0,.43-6c-.34-.28-.9.08-.64.5Z"/><path class="cls-6" d="M104.27,12.33a4.73,4.73,0,0,1-1,2.93c-.66.81-1.55,1-2.33,1.63-.4.31,0,.9.39.93,1.18.08,2.37-1.12,3-2a4.88,4.88,0,0,0,.79-3.58c-.07-.47-.81-.34-.81.11Z"/><path class="cls-7" d="M148.71,38.52a18.86,18.86,0,0,1-.26,5.95,36.31,36.31,0,0,1-1.89,5c-.07.18.2.34.33.2,2.43-2.92,2.94-7.58,2.28-11.18,0-.26-.49-.21-.46.06Z"/><path class="cls-7" d="M148.51,45c-6.56,1.93-11,8.22-14.93,13.45-.26.36.33.7.59.35,4.16-5.56,8.27-10.24,14.41-13.62a.1.1,0,0,0-.07-.18Z"/><path class="cls-7" d="M137,53.65a21.1,21.1,0,0,0-13.1-1.07.37.37,0,0,0,.1.72c2,0,4-.3,6-.19,2.31.12,4.52.64,6.79,1,.23,0,.44-.29.18-.41Z"/><path class="cls-7" d="M124.78,55.42a.05.05,0,1,0,0-.1.05.05,0,0,0,0,.1Z"/><path class="cls-7" d="M125,55.18c-1.87-3.21-6.7-2.88-9.16-.65-.37.33.18.89.55.55,2.57-2.37,5.92-1.65,8.49.23.07.06.17-.05.12-.13Z"/><path class="cls-7" d="M116.42,54.65C115.11,70.08,122.8,84.18,125.5,99a54.85,54.85,0,0,1,1,12.06,36,36,0,0,1-1.1,7.53c-.69,2.6-.71,3.28-2.36,1-2.11-3-2.85-7.87-3.42-11.41a47,47,0,0,1-.06-13.61c0-.29-.46-.36-.5-.07a46.39,46.39,0,0,0,5,28.45c.14.27.48.15.58-.07,9.36-22.28-7.9-45.75-8-68.25a.14.14,0,0,0-.27,0Z"/><path class="cls-7" d="M120,53.52a5.64,5.64,0,0,1,.85,4.34c0,.22.27.4.39.17a4.08,4.08,0,0,0-1-4.67c-.11-.1-.31,0-.21.16Z"/><path class="cls-7" d="M122.38,54c4.63,23.38,20.43,56.69,49.35,53,.28,0,.3-.49,0-.46-12.88,1-24.73-5.56-32.64-15.47-8.79-11-11.64-24.28-16.44-37.14a.14.14,0,0,0-.27.07Z"/><path class="cls-7" d="M154.84,102.69a21.35,21.35,0,0,1,9.58-6.78c.14,0,.14-.31,0-.29a14,14,0,0,0-9.78,6.89c-.08.14.13.32.24.18Z"/><path class="cls-7" d="M114.57,55.19c-.21,0-.35-.15-.54-.19a2.33,2.33,0,0,0-.59,0L112,55a.41.41,0,0,0,0,.82c.49,0,1,0,1.48,0a2.91,2.91,0,0,0,.59,0,4.3,4.3,0,0,1,.54-.2c.17,0,.17-.32,0-.35Z"/><path class="cls-7" d="M116.47,54.93c-2.29-3.69-9.23-1.44-9.53,2.66,0,.33.41.38.57.15,1-1.5,1.82-2.94,3.71-3.49s3.38.26,5.12.85a.12.12,0,0,0,.13-.17Z"/><path class="cls-7" d="M109.1,55.79c-9.89-9.6-28.25-.27-28.51,12.78a.29.29,0,0,0,.56.08c1.65-6.1,4.32-11.38,10.41-14.1s11.62-1,17.49,1.33c0,0,.08-.05,0-.09Z"/><path class="cls-7" d="M86.92,57.1c-1.66,1.8-3.1,5.95-1.9,8.28a.23.23,0,0,0,.41-.06c.32-1.34,0-2.77.31-4.16a23.33,23.33,0,0,1,1.41-3.93c.06-.13-.14-.23-.23-.13Z"/><path class="cls-7" d="M86.34,57a3.87,3.87,0,0,0-2.11-.1,6.06,6.06,0,0,0-2.19,1,5.11,5.11,0,0,0-2.13,3.68c0,.27.37.29.46.06a6.86,6.86,0,0,1,5.95-4.5c.09,0,.13-.16,0-.18Z"/><path class="cls-7" d="M85.79,57.62c4.26-2.69,6-7.86,7.23-12.52,2.07-7.82,3.07-15.37,10.28-20.24a.3.3,0,0,0-.31-.52c-4.32,2.15-6.74,6.38-8.24,10.82-2.75,8.18-3.38,15.42-9,22.39a0,0,0,0,0,.06.07Z"/><path class="cls-7" d="M94.9,19.55C75.26,32.94,62.05,57.51,56.33,80a.47.47,0,0,0,.9.25,116.2,116.2,0,0,1,14.2-33.2c6.6-10.46,15-18.63,23.62-27.33.1-.1,0-.28-.15-.2Z"/><path class="cls-7" d="M55.69,80.19c-1.37,1.6-.52,4,1.18,5,2.91,1.76,6.47,0,8.91-1.73a.35.35,0,0,0-.35-.6c-1.91,1-3.79,2.34-6.06,2.29-2.73-.07-4.65-2.31-3.56-4.94,0-.07-.08-.13-.12-.07Z"/><path class="cls-7" d="M64.24,82C77.07,97.92,102,90,117.4,83.52c.48-.19.29-1-.22-.79-18,6.47-36.38,12.71-52.77-.87a.12.12,0,0,0-.17.17Z"/><path class="cls-7" d="M113.6,85a47.43,47.43,0,0,0,13,19.22.33.33,0,0,0,.47-.47c-2.55-3.16-5.26-6.1-7.55-9.48-2-3-3.67-6.29-5.61-9.38-.08-.13-.32,0-.26.11Z"/><path class="cls-7" d="M139.68,54.72A18.68,18.68,0,0,0,147.16,59c4.08,1.33,13.86,1,12.74,7.58-.06.38.5.55.59.16.62-3-1.07-5.24-3.77-6.39-2.54-1.09-5.44-1-8.09-1.73a37.33,37.33,0,0,1-8.83-4.1.1.1,0,0,0-.12.16Z"/><path class="cls-7" d="M163.9,65.79c2.16,1.37,5.78,1.58,7.89,0a.2.2,0,0,0-.16-.36,23.14,23.14,0,0,1-3.79.67,14.4,14.4,0,0,1-3.8-.64.18.18,0,0,0-.14.32Z"/><path class="cls-7" d="M138.32,92.09a34.9,34.9,0,0,0,21.83.6A.37.37,0,0,0,160,92a52.17,52.17,0,0,1-21.55-.16.15.15,0,0,0-.08.28Z"/><path class="cls-7" d="M162.9,91.47c2.68-5.49,4.1-12.15,2.73-18.2a.26.26,0,0,0-.5.07c.06,6.33-.28,12-2.48,18-.05.15.18.25.25.11Z"/><path class="cls-7" d="M169.09,74a33.16,33.16,0,0,0,1.48,19.2.34.34,0,0,0,.65-.18,68.79,68.79,0,0,1-1.76-19,.19.19,0,0,0-.37-.06Z"/><path class="cls-7" d="M153.77,106a47.51,47.51,0,0,1,3.65-4.5,19.2,19.2,0,0,1,5.32-3.28c.47-.21.14-1-.34-.82-3.63,1.11-8,4.59-8.84,8.48,0,.11.12.23.21.12Z"/><path class="cls-7" d="M119.07,107.88A96.63,96.63,0,0,0,122.26,128c2.19,7.68,6.82,14.4,5,22.71a.11.11,0,0,0,.22.06c2.28-6.58-1.18-12.62-3.39-18.72-2.84-7.81-3.58-16-4.86-24.14,0-.09-.17-.07-.16,0Z"/><path class="cls-7" d="M94.73,20.2s0,0,0,0,0,0,0,0Z"/><path class="cls-7" d="M92.85,21.6c3.18-1.29,4.81-3.93,6.11-7s3-10,7.46-10.24c3.23-.18,6.11,2,7.56,4.61,1.59,2.86,3.75,9.65-3,9.87a.27.27,0,0,0,0,.53c8.58,1,4.44-11.74.43-14.64-2.9-2.1-6.49-1.06-8.84,1.37-4.38,4.52-4.12,11.56-9.85,15.09-.21.12-.07.51.17.41Z"/><path class="cls-7" d="M112.62,19.46c-.12.53,0,1.1-.09,1.65a4.9,4.9,0,0,1-.74,1.92c-.15.23.22.45.37.22.61-.95,1.28-2.77.53-3.8,0,0-.06,0-.07,0Z"/><path class="cls-7" d="M113.38,18.69c-2.22,4.08-8.75,2.82-10.25,7.5-.14.45.56.64.72.19,1.55-4.4,8.39-3,9.75-7.6a.12.12,0,0,0-.22-.09Z"/><path class="cls-7" d="M109.44,21.75a32.11,32.11,0,0,0,3.72-2.19c.13-.11,0-.28-.18-.22a31.68,31.68,0,0,0-3.64,2.23c-.12.07,0,.25.1.18Z"/><path class="cls-7" d="M105.27,12.92a1.4,1.4,0,0,0,2.39-1.45,1.44,1.44,0,0,0-1.85-.76,1.57,1.57,0,0,0-.83,2c.1.24.47.06.41-.18-.31-1.24,1.33-2.09,1.9-.79s-1.09,1.85-1.88,1.09a.09.09,0,0,0-.14.11Z"/><path class="cls-7" d="M106.18,13.6l-.33,2.9c0,.16.14.26.28.28,2.51.22,5.12-2.71,3.9-5.16-.12-.25-.49-.07-.43.18.49,2.2-1,4.65-3.47,4.42l.27.28.33-2.9c0-.35-.51-.35-.55,0Z"/><path class="cls-7" d="M109.19,15.77c-1.83-.14-2,2.53-.52,3.22,2.35,1.12,4.1-1.61,4.52-3.53a.24.24,0,0,0-.46-.13c-.52,1.29-1,2.9-2.59,3.26a1.59,1.59,0,0,1-2-.8,1.3,1.3,0,0,1,1-1.74.14.14,0,0,0,0-.28Z"/><path class="cls-7" d="M110.19,17.73c-.43,1.37.92,2.39,2.22,2.27a4,4,0,0,0,3-3.46.18.18,0,0,0-.31-.12c-.75.67-.93,1.77-1.75,2.44a1.84,1.84,0,0,1-1.66.43c-.66-.17-1.41-.73-1.28-1.5,0-.14-.18-.21-.22-.06Z"/><path class="cls-7" d="M109.32,14.29c1.23-1.68,1.82-5.27.06-6.83a.2.2,0,0,0-.33.2,23.51,23.51,0,0,1,.8,3.26,8.33,8.33,0,0,1-.66,3.31c0,.08.09.12.13.06Z"/><path class="cls-7" d="M112.27,16.23c.31-1.16.5-2.34.71-3.52a11.07,11.07,0,0,0,.4-3.11c0-.12-.19-.21-.25-.07a11.46,11.46,0,0,0-.67,3.3c-.17,1.12-.35,2.24-.42,3.36a.12.12,0,0,0,.23,0Z"/><path class="cls-7" d="M113.22,18.5c2.08-2,3.46-5.85,2.17-8.66a1.83,1.83,0,0,0-1.68-1.27,1.15,1.15,0,0,0-1.14,1.53A.22.22,0,0,0,113,10c1.32-.36,2-.07,2.09.87l.13,1.08a9.06,9.06,0,0,1-.25,2.54A10.4,10.4,0,0,1,113,18.35c-.08.12.1.24.19.15Z"/><path class="cls-7" d="M113.4,9.93a3,3,0,0,0-.94-4.75c-1.67-.74-4.4.56-4.1,2.62a.17.17,0,0,0,.3,0c.64-1.27,1.9-2.58,3.48-1.91s1.7,2.54,1,3.81a.15.15,0,0,0,.24.19Z"/><path class="cls-7" d="M109.64,7.37A3,3,0,0,0,107,4.6c-1.18-.14-2.74.41-3.06,1.66a.2.2,0,0,0,.28.22c.85-.57,1.52-1.24,2.63-1.14a3.06,3.06,0,0,1,2.53,2.1c0,.18.29.1.27-.07Z"/><path class="cls-7" d="M152.12,38.59a15.42,15.42,0,0,0,8.5,6.43.28.28,0,0,0,.21-.5c-1.44-.86-3-1.57-4.32-2.55s-2.68-2.43-4.07-3.62a.2.2,0,0,0-.32.24Z"/><path class="cls-7" d="M164.57,40.51a1.39,1.39,0,0,1,.8,1.13,2,2,0,0,1-.37,1.27c-.07.14.05.37.23.3a1.56,1.56,0,0,0,.74-1.7,1.91,1.91,0,0,0-1.24-1.58c-.38-.14-.51.44-.16.58Z"/><path class="cls-7" d="M151.45,49.78A73.72,73.72,0,0,0,159.9,53c.12,0,.19-.14.08-.19a70.48,70.48,0,0,0-8.45-3.31c-.19-.07-.26.21-.08.29Z"/><path class="cls-7" d="M126.25,111.4h-.37a.06.06,0,0,0,0,.11l.37,0a0,0,0,0,0,0-.08Z"/><path class="cls-7" d="M125.34,113.17c-.73,1.47-1.58,2.93-2.18,4.46-.07.18.2.28.3.12.85-1.38,1.5-2.92,2.22-4.38.12-.22-.22-.42-.34-.2Z"/><path class="cls-7" d="M125.62,111.08c0-1.45,0-2.9.06-4.35a.27.27,0,0,0-.5-.14,41.93,41.93,0,0,0-2.29,4.78,42.59,42.59,0,0,0-1.86,4.34.41.41,0,0,0,.75.31,47.74,47.74,0,0,0,2.16-4.85,38.16,38.16,0,0,0,1.73-4.37l-.53-.07c.16,1.44.18,2.9.27,4.35,0,.13.21.13.21,0Z"/><path class="cls-7" d="M125.15,109.62s0,0,0,0,0,0,0,0Z"/><path class="cls-7" d="M124.78,108.52s0,0,0,0,0,0,0,0Z"/><path class="cls-7" d="M125.15,108.52s0,0,0,0,0,0,0,0Z"/><path class="cls-7" d="M125,103c-1.68,2.52-4.11,6.07-4.13,9.23a.21.21,0,0,0,.4.1,26.75,26.75,0,0,0,1.58-4.17,40.53,40.53,0,0,1,2.38-5c.09-.15-.13-.27-.23-.13Z"/><path class="cls-7" d="M122.82,102.94a75.48,75.48,0,0,0-3.42,7.7.25.25,0,0,0,.45.19,74.49,74.49,0,0,0,3.2-7.79c0-.13-.17-.22-.23-.1Z"/><path class="cls-7" d="M121.4,100.77a43.84,43.84,0,0,0-2.68,6.22.21.21,0,0,0,.38.16,44.38,44.38,0,0,0,2.47-6.31c0-.1-.12-.17-.17-.07Z"/><path class="cls-7" d="M121,98.22a43.7,43.7,0,0,0-1.84,5.86c0,.11.14.19.19.08a44.16,44.16,0,0,0,1.83-5.89.09.09,0,0,0-.18,0Z"/><path class="cls-7" d="M120,100.09s0,0,0,0,0,0,0,0Z"/></svg>