<svg id="carracters" xmlns="http://www.w3.org/2000/svg" viewBox="0 0 198.43 35.43"><defs><style>.cls-1{fill:#fff;}.cls-2{fill:#6e6e6e;opacity:0.5;}.cls-3{fill:#040404;}</style></defs><path d="M94.42,12.42l.27,0H98l-.64-.67.1-.12,1,.89-1,.94c-.15-.07-.16-.15,0-.26s.37-.34.6-.57H94.42Z"/><path d="M169.35,16.49V14.91c3,.05,5.88.12,8.83-.05-.27-1.6-.53-3.16-.79-4.73h2.49c0,.38-.31.47-.6.58.1.7.18,1.41.29,2.11s.2,1.15.3,1.72c0,.12,0,.19.2.17a38.81,38.81,0,0,0,7.51-1.34L188,15a45.83,45.83,0,0,1-7.7,1.27c.28.8.53,1.57.84,2.33a6.9,6.9,0,0,0,1.76,2.61,6.69,6.69,0,0,0,1.79,1.12l-1.15,1.43a8.3,8.3,0,0,0-5.14-1.6l-.28-1.4,2.5.33a13.7,13.7,0,0,1-2-4.69C175.5,16.62,172.44,16.53,169.35,16.49Z"/><path d="M146.51,22.75l-1.11,1.38c-.38-.23-.74-.48-1.12-.69a7.68,7.68,0,0,0-2.75-.77l-1.14-.1c-.06,0-.16,0-.16-.08-.1-.42-.18-.85-.28-1.33l2.5.33a14,14,0,0,1-2-4.7c-3.07.21-6.14.11-9.21.06a.83.83,0,0,1,0-.13V15.28c3,0,5.89.13,8.83,0-.26-1.59-.52-3.14-.78-4.7h2.49c0,.38-.31.46-.62.58l.61,4a40.06,40.06,0,0,0,7.7-1.35l.38,1.64a45.78,45.78,0,0,1-7.68,1.28c.15.47.29.92.44,1.37a9.76,9.76,0,0,0,1.35,2.7,6,6,0,0,0,2.3,1.86l.21.1Z"/><path d="M174.61,22.78c-.28.3-.56.58-.82.88a3.42,3.42,0,0,0-.77,1.6,2.13,2.13,0,0,0,.95,2.23,5.72,5.72,0,0,0,2.32.89,23.23,23.23,0,0,0,4.93.24l2.72-.07-.11,1.64-1.65,0c-1.05,0-2.1,0-3.15,0a14.26,14.26,0,0,1-4.49-.72,5.54,5.54,0,0,1-2.31-1.42,3.59,3.59,0,0,1-.52-4.11,7.61,7.61,0,0,1,1.56-2.09s.17-.06.2,0C173.86,22.17,174.24,22.48,174.61,22.78Z"/><path class="cls-1" d="M17.83,16.5V14.92c2.94.05,5.87.12,8.82,0-.27-1.6-.52-3.17-.78-4.74h2.48c0,.39-.31.47-.6.59.1.7.19,1.4.29,2.1s.21,1.15.3,1.72c0,.12,0,.19.2.18a39.61,39.61,0,0,0,7.51-1.35L36.43,15a47.17,47.17,0,0,1-7.71,1.28c.29.79.54,1.57.84,2.32a6.82,6.82,0,0,0,1.76,2.61,6.71,6.71,0,0,0,1.79,1.13L32,23.81a8.36,8.36,0,0,0-5.14-1.61l-.28-1.4,2.5.33a13.82,13.82,0,0,1-2-4.69C24,16.63,20.91,16.54,17.83,16.5Z"/><path class="cls-1" d="M23.09,22.79c-.29.31-.57.58-.82.89a3.31,3.31,0,0,0-.78,1.59,2.16,2.16,0,0,0,1,2.24,5.91,5.91,0,0,0,2.32.88,23.24,23.24,0,0,0,4.93.25l2.72-.08L32.3,30.2c-.56,0-1.1,0-1.64,0-1.05,0-2.11,0-3.16,0A14,14,0,0,1,23,29.54a5.44,5.44,0,0,1-2.3-1.42A3.58,3.58,0,0,1,20.18,24a7.61,7.61,0,0,1,1.56-2.09.23.23,0,0,1,.21,0Z"/><path class="cls-2" d="M136.12,22.74c-.28.31-.56.58-.82.89a3.38,3.38,0,0,0-.77,1.59,2.13,2.13,0,0,0,.95,2.23,5.72,5.72,0,0,0,2.32.89,22.59,22.59,0,0,0,4.93.24l2.72-.07-.12,1.64c-.55,0-1.09,0-1.64,0-1.05,0-2.1,0-3.15,0a14,14,0,0,1-4.49-.72,5.54,5.54,0,0,1-2.31-1.42,3.58,3.58,0,0,1-.52-4.11,7.61,7.61,0,0,1,1.56-2.09.21.21,0,0,1,.2,0Z"/><path class="cls-2" d="M94.43,15.59V14c2.94,0,5.88.12,8.83,0-.27-1.6-.53-3.16-.79-4.73H105c0,.38-.31.46-.6.58.1.7.18,1.41.29,2.11s.2,1.14.3,1.72c0,.11,0,.19.2.17a39.59,39.59,0,0,0,7.51-1.34l.37,1.65a45.84,45.84,0,0,1-7.7,1.28c.28.79.53,1.57.84,2.32a6.82,6.82,0,0,0,1.76,2.61,6.71,6.71,0,0,0,1.79,1.13l-1.15,1.43a8.3,8.3,0,0,0-5.14-1.6l-.29-1.4,2.51.32a13.62,13.62,0,0,1-2-4.69C100.58,15.73,97.52,15.64,94.43,15.59Z"/><path class="cls-2" d="M99.69,21.89c-.28.3-.56.58-.82.88a3.43,3.43,0,0,0-.77,1.59,2.15,2.15,0,0,0,1,2.24,5.57,5.57,0,0,0,2.32.88,23.24,23.24,0,0,0,4.93.25l2.72-.08-.12,1.64-1.64.05c-1.05,0-2.1,0-3.15,0a14,14,0,0,1-4.49-.71,5.54,5.54,0,0,1-2.31-1.42,3.59,3.59,0,0,1-.52-4.11A7.47,7.47,0,0,1,98.35,21a.21.21,0,0,1,.2,0C98.94,21.28,99.32,21.59,99.69,21.89Z"/><path d="M169.73,23l.15.11a4.86,4.86,0,0,0-.11,5.28,4.92,4.92,0,0,0,3.51,2.22l-.58-.48.11-.17,1,.82-.84,1-.17-.11.65-.82a5.05,5.05,0,0,1-3.74-7.9Z"/><path d="M145.32,25.94l-.19,0-.34-1.26,1.29-.35.07.19-1,.27,2.85,1.56c-.12-.42-.23-.78-.34-1.14s-.16-.5-.22-.75c0-.06,0-.14,0-.22s.12.1.14.16c.21.66.41,1.33.61,2a.74.74,0,0,1,0,.21.57.57,0,0,1-.23,0l-1.47-.8-1.5-.81Z"/><path d="M138.46,12.64c.17-.27.29-.48.42-.68s.09-.13.25,0L138.46,13l-1.15-.71.1-.18.84.52-.46-1.79c-.12-.48-.24-1-.37-1.44,0-.13,0-.21.16-.2Z"/><path class="cls-3" d="M141.76,15.12a40.06,40.06,0,0,0,7.7-1.35l.38,1.65a45.76,45.76,0,0,1-7.68,1.27"/><path class="cls-3" d="M140.46,16.79c-3.07.21-6.14.11-9.21.06a.83.83,0,0,1,0-.13V15.28c3,0,5.89.13,8.83,0"/><path d="M94.42,14c.74,0,1.47.05,2.21,0,1.48,0,3,0,4.46-.08,1.76-.11,3.53-.31,5.28-.51,2-.23,3.91-.45,5.84-.87l.46-.11.38,1.66c-.51.1-1.17.31-1.66.37a45.61,45.61,0,0,1-4.66.73c-1.68.19-3.28.3-5.08.36-2.07.2-4.15,0-6.22,0-.34,0-.67,0-1,0Z"/></svg>