<svg xmlns="http://www.w3.org/2000/svg" viewBox="0 0 198.43 135.39"><defs><style>.cls-1{fill:none;}.cls-2{fill:#eee6da;}.cls-3{fill:#feffff;}.cls-4{fill:#fff;}.cls-12,.cls-5{fill:#4bc5d9;}.cls-5{opacity:0.62;}.cls-6{fill:#aaa093;}.cls-7{fill:#7b4a26;}.cls-8{fill:#683e21;}.cls-9{fill:#92a5a3;}.cls-10{fill:#ce6eab;}.cls-11{opacity:0.47;}.cls-13{fill:#010101;}</style></defs><g id="illustration"><path class="cls-1" d="M67.79,55.31l-.11-.16c-.36.26-.73.52-1.08.79Z"/><path class="cls-1" d="M91.15,79.83a3.1,3.1,0,0,1-.21.45,30.91,30.91,0,0,0,5.09,0c.88-.08,1.77-.19,2.66-.31C96.19,80,93.66,80,91.15,79.83Z"/><path class="cls-2" d="M134.65,51.17c-8.8-9.19-25.72-12.9-37.84-12.34-15.12.79-32.8,8.5-39.55,18.56a2.21,2.21,0,0,0-.5,2.7,2.44,2.44,0,0,0,.09,2.1,41.15,41.15,0,0,0,22,19.92,2.37,2.37,0,0,0,.78.29,46.76,46.76,0,0,0,6.3,1.87c7.18,1.58,13.39.61,20.47-1,6.88-1.36,14.65-2.91,21.07-5.74,4.57-1.24,9.07-1.65,12.64-11.26C142.09,60.94,138.39,55.1,134.65,51.17ZM67.79,55.31l-1.19.63c.35-.27.72-.53,1.08-.79Zm23.15,25a3.1,3.1,0,0,0,.21-.45c2.51.15,5,.18,7.54.12-.89.12-1.78.23-2.66.31A30.91,30.91,0,0,1,90.94,80.28Z"/><path class="cls-1" d="M135.1,38.83l0,0-.23-.17Z"/><path class="cls-1" d="M92.4,91.91l-.91.06.9.25C92.39,92.11,92.39,92,92.4,91.91Z"/><path class="cls-1" d="M137.17,54a2.38,2.38,0,0,1-1.48-1.08c-3.82-5.89-10.36-8.31-16.82-10.09-7.14-2-14.63-4-22.06-4s-14.72,2.79-21.54,5.54c-6.14,2.47-12,5.74-15.9,11.27a2.56,2.56,0,0,1-3.11.92c.49,1.91,2,5.16,2.15,6.43.5,3.8,2.63,6.88,5.11,9.8,4.72,4,14.3,9,20.28,10.21a2.13,2.13,0,0,1,1.27.21,2.49,2.49,0,0,1,.93-.15,31.47,31.47,0,0,1,5.69,1c3.19.66,6.31,0,9.46-.66l15.53-3c10.17-2,20-4.17,23.77-15.09a2.78,2.78,0,0,1,.21-.46A17.54,17.54,0,0,0,137.17,54Z"/><path class="cls-1" d="M143.16,47.77l.17-.09c-.18-.29-.36-.58-.56-.87Z"/><path class="cls-3" d="M139.67,35.56c-4.77-4-10.4-7.6-16.45-8.9C116.81,25.24,110.71,24,104.15,24,90,23.88,74.69,27.66,62.9,35.72a1.89,1.89,0,0,0-.59.66,2.85,2.85,0,0,0-.71.3v0C54.62,41.1,47.35,46,44.37,54S44.21,69.84,48,76.74c7,12.8,22.57,29.16,37.91,19.57a2.16,2.16,0,0,0,.75-.81c5.45,2.67,11.74,2.83,17.68,1.77a70.41,70.41,0,0,0,9.74-2.53A2.3,2.3,0,0,0,116,95h0c8.62-2.34,17.24-5.17,24.54-10.19a27.11,27.11,0,0,0,3.33-1.94,21.91,21.91,0,0,0,9.76-15.52C155.18,55.73,148.53,43,139.67,35.56Zm.78,29.79c-3.8,10.92-13.6,13.11-23.77,15.09l-15.53,3c-3.15.61-6.27,1.32-9.46.66a31.47,31.47,0,0,0-5.69-1,2.49,2.49,0,0,0-.93.15A2.13,2.13,0,0,0,83.8,83c-6-1.19-15.56-6.24-20.28-10.21-2.48-2.92-4.61-6-5.11-9.8-.16-1.27-1.66-4.52-2.15-6.43a2.56,2.56,0,0,0,3.11-.92c3.87-5.53,9.76-8.8,15.9-11.27,6.82-2.75,14.11-5.56,21.54-5.54s14.92,2,22.06,4c6.46,1.78,13,4.2,16.82,10.09A2.38,2.38,0,0,0,137.17,54a17.54,17.54,0,0,1,3.49,10.89A2.78,2.78,0,0,0,140.45,65.35ZM135.1,38.83l-.19-.2.23.17ZM92.4,91.91c0,.1,0,.2,0,.31l-.9-.25Zm50.93-44.23-.17.09-.39-1C143,47.1,143.15,47.39,143.33,47.68Z"/></g><g id="Layer_4" data-name="Layer 4"><path class="cls-4" d="M66.68,32.81c-2-1.83-17.91,14.62-19.82,16.81a15.89,15.89,0,0,0-2,2.94,24.71,24.71,0,0,0-1,2.74C40.35,66.75,47.76,77.67,50.68,82c2.57,3.79,7,10.21,15.38,13.74,2.84,1.2,7.47,3.68,13.14,2.68,3.21-.57,6-1.43,9.34-.81,2.51.47,4.93,1.32,7.49,1.58,5.54.55,11-1,16.28-2.48s10.48-2.78,15.64-4.46c8.81-2.88,17.38-7.27,22.59-15.25a22.43,22.43,0,0,0,3.78-11.67c.17-5-1.46-8.8-4-14.69a44.49,44.49,0,0,0-5.67-10.41,37.88,37.88,0,0,0-13.07-10.54c-21.07-11.09-56.59-5.06-68.42,7a49.65,49.65,0,0,0-4.59,5.6c-4.83,7-8.48,16.26-6.62,17.57,1.44,1,4.87-3.67,15.79-10.44,4.68-2.9,7.42-4.6,11.71-6.11,3.42-1.2,7.55-1.82,15.79-3.06,6.75-1,8.5-1,10.19-.76s1.74.38,8.92,2c5.43,1.25,5.38,1.15,6.36,1.52,3.89,1.47,4.19,2.79,8.41,4.84,4.68,2.29,5.25,1.1,7.38,2.8,4.85,3.87,4.13,11.71,4.08,12.23a17.11,17.11,0,0,1-4.33,9.42c-3.18,3.7-6.83,5.08-12.23,7.13a88.44,88.44,0,0,1-14.51,3.82c-3.85.79-4.58.75-7.39,1.53-3.3.93-4.38,1.57-6.62,1.53-1.85,0-2.75-.5-5.86-1.53-.38-.13-3.23-.93-8.91-2.55C73.07,80,72.16,80,70.54,78.65c-1.15-.93-1.72-1.73-3.82-3.31a37.38,37.38,0,0,0-4.33-2.8c-3.93-2.38-5.24-9.8-5.35-14.27C56.7,43.86,68.3,34.28,66.68,32.81Z"/><path class="cls-5" d="M127.66,72.34c-.61-3.74-3.9-5.24-7.35-5.6a18.64,18.64,0,0,0-6.85.69,14.12,14.12,0,0,1-9.4-.48,2.05,2.05,0,0,0-1.91.15,2.44,2.44,0,0,0-1.15-.71,12.45,12.45,0,0,0-5.33-.14,2.52,2.52,0,0,0-1.12.73,2.6,2.6,0,0,0-1.46,1c-.93,1.29-3.81.49-5.09.4a27.39,27.39,0,0,0-5.2.17l-.12,0c-2.88-.37-6.41-.22-8.56,1.76a3.89,3.89,0,0,0-.34.36,9.9,9.9,0,0,0-2.66.67,2.57,2.57,0,0,0-1.74,3.07,2.37,2.37,0,0,0,.59,1,2.49,2.49,0,0,0,.71,1.89h0a9.57,9.57,0,0,0,2.06,1.28c0,.17,0,.34,0,.51C73,82,77,82.33,77.68,80a6.58,6.58,0,0,0,.74,1.18c1.22,1.54,3,.82,3.75-.55l1.15.11a2.54,2.54,0,0,0,1.47,1.42h0c11.42,4.44,22.79-.54,34.32-1.62a2.5,2.5,0,0,0,1.4-.56,10.63,10.63,0,0,0,5.53-4.77A2.61,2.61,0,0,0,127.66,72.34Z"/><path class="cls-6" d="M59.78,68.2S80.49,49.26,97.59,49.34,138.75,66,138.75,66l.77-1.55.28-3.82V57.12l-1.33-3.63-1-1.92-2.33-1.48S125.58,45,122.45,43.9s-8.72-2.7-8.72-2.7l-7.26-1.28-7-.34-7.41.74-6.26,1.33L79.7,43l-9,4.46-7.22,4.8L58.2,57.12l-1.94,2.07L56,60.42S58.54,66.74,59.78,68.2Z"/><path class="cls-4" d="M84.37,72.12c4,2,8.94.19,13-.8,6.18-1.49,12.16-1.09,18.37-.13.28,0,.41-.37.12-.43a39.84,39.84,0,0,0-14.68-.57C95.39,71,90.38,73.33,84.42,72a.08.08,0,0,0,0,.1s0,0,0,0Z"/><path class="cls-4" d="M87.76,78.38c4.24.67,8.16-.51,12.21-1.62a30.13,30.13,0,0,1,7.23-1.33c3-.06,5.51,1,8.33,1.6.15,0,.27-.18.11-.26a19.15,19.15,0,0,0-12.58-1.34c-5.08,1.08-10,3.31-15.27,2.71a.12.12,0,0,0,0,.24Z"/><path class="cls-4" d="M77.93,73.57a15.2,15.2,0,0,0,11,2.32.18.18,0,0,0,0-.35,20.71,20.71,0,0,1-10.79-2.3.19.19,0,0,0-.19.33Z"/><path class="cls-7" d="M116.35,106.88l.32-.87-1.2.27c-.06,1.18-.09,2.35-.21,3.21C115.66,108.54,116.06,107.65,116.35,106.88Z"/><path class="cls-7" d="M109.35,110.57c.22-1.14.47-2.27.74-3.4l-.4,0C109.58,108.29,109.49,109.44,109.35,110.57Z"/><path class="cls-7" d="M117.27,119.93q-1.93.51-3.93.84a21.81,21.81,0,0,1-3.68,2c.78-.2,1.56-.4,2.34-.64A40.41,40.41,0,0,0,117.27,119.93Z"/><path class="cls-7" d="M110.32,103.14c-.14.55-.25,1.11-.34,1.67.26-.09.53-.17.79-.27.16-.6.33-1.19.5-1.78l-1,.07A1.05,1.05,0,0,1,110.32,103.14Z"/><path class="cls-7" d="M103.93,103.46a2.32,2.32,0,0,0,0,1.26c.17-.56.35-1.11.55-1.66h-.33A1.14,1.14,0,0,1,103.93,103.46Z"/><path class="cls-7" d="M107.28,103.16l-.15,1.53a9,9,0,0,1,1-1.75l-.88,0A1,1,0,0,1,107.28,103.16Z"/><path class="cls-7" d="M77.7,118.24c1.06.55,2.14,1.06,3.22,1.55a.86.86,0,0,1,.23-.39C80,119.05,78.84,118.66,77.7,118.24Z"/><path class="cls-7" d="M84.65,97.27a.73.73,0,0,1-.11,1c-.34.17-.7.32-1.05.46,1-.1,2.07-.15,3.11-.17-.49-.19-1-.38-1.46-.6l0,0a.5.5,0,0,1,.25-.93c2.43.25,4.82.49,7.2.66a18.7,18.7,0,0,0-7.73-1.26,20.61,20.61,0,0,0-4.3.79c1.18-.1,2.39-.21,3.66-.3A.71.71,0,0,1,84.65,97.27Z"/><path class="cls-7" d="M100.75,103.07c0,.06,0,.12,0,.17a1.13,1.13,0,0,1-.16.33c.11.43.19.86.26,1.31a6.88,6.88,0,0,1,.44-1.8Z"/><path class="cls-7" d="M51,98.42s0,0,0-.08L50.73,98c-3-3.8-3.3-8.65-5.19-13v0a.41.41,0,0,1,0-.36A30.53,30.53,0,0,1,44,75.5c-.31-1.58-.6-3.16-.82-4.75v0c0-.12.25-.13.25,0,.32.9.61,1.82.88,2.75a.38.38,0,0,1,.5.18c.15.33.28.66.4,1,5.06,5.63,8.62,12.08,14.86,16.69a32,32,0,0,0,7.14,4.07c-27.18-14.71-24-36.8-24-36.8-1.6.7-2.19,5.85-2.19,5.85s.07.62,2.19,13.11A68.13,68.13,0,0,0,52,102.17a12.34,12.34,0,0,1-1-3.72Z"/><path class="cls-7" d="M124,108.4l-.27.1c-.16.76-.34,1.51-.55,2.26C123.47,110,123.77,109.18,124,108.4Z"/><path class="cls-7" d="M119.72,107.78l.14-.06c.28-.9.58-1.79.91-2.65l-.47.11C120.11,106.05,119.92,106.91,119.72,107.78Z"/><path class="cls-7" d="M124.62,105.38c.06-.45.11-.9.17-1.36l-.27.08c-.08.48-.15,1-.23,1.45Z"/><path class="cls-7" d="M91.92,102.89a11.51,11.51,0,0,1,1.15.12.8.8,0,0,1,.19-.13l-1.37,0Z"/><path class="cls-7" d="M63.1,96.55a1.11,1.11,0,0,1,.39-.44c-.93-.5-1.81-1-2.63-1.58-.33-.21-.65-.44-1-.67C61,94.72,62.06,95.62,63.1,96.55Z"/><path class="cls-7" d="M145.8,86.51c.21-.34.42-.69.65-1v0a.89.89,0,0,1,1.31-.13l.6-1.76a27,27,0,0,1-2.92,2.18A1.38,1.38,0,0,1,145.8,86.51Z"/><path class="cls-7" d="M86.6,103.47h0c0-.23.07-.46.11-.69h-.32C86.48,103,86.53,103.24,86.6,103.47Z"/><path class="cls-7" d="M47.59,84.14a17,17,0,0,1,0-2.14v.07a.53.53,0,0,1,.15-.36.44.44,0,0,1,.19-.12c-.52-.8-1-1.6-1.48-2.42.31,1.5.59,3,1,4.47A3.67,3.67,0,0,0,47.59,84.14Z"/><path class="cls-7" d="M57.62,93.32a1,1,0,0,1,1.22-.23c-.77-.57-1.53-1.18-2.28-1.82C56.93,92,57.28,92.63,57.62,93.32Z"/><path class="cls-7" d="M54.82,102.62c-.47-.5-1-1-1.41-1.5.51.88,1,1.75,1.58,2.59A6.52,6.52,0,0,1,54.82,102.62Z"/><path class="cls-7" d="M155,65.54c-.33-9.31-5.78-16.16-4.37-11.46s5.14,16.78-2.43,25.1S128.62,91,128.62,91s-15.09,4.57-24.3,6.67l.68-.07a91.82,91.82,0,0,0,18.32-4.64c6.13-2.11,12.68-4.13,18.31-7.4,5.88-3.41,8.23-7.75,11-13.61a.39.39,0,0,1,.31-.24c.18-.84.37-1.67.61-2.49h0a.24.24,0,0,1,.46.07,32.15,32.15,0,0,1-1.67,12.93A34.84,34.84,0,0,1,147.59,96a56,56,0,0,1-27,27.3C109,128.75,91.85,131.93,80,125.46l0,.05a.37.37,0,0,1-.18-.31v0c-.89-.31-1.77-.61-2.66-.86-2.67-.75-6.12-1.71-7.66-4.17-4.13-2-7.79-6-10.73-9-1.1-1.12-2.25-2.33-3.33-3.63,3.18,4.53,5.88,7.38,6.6,8.38,1.77,2.46,25.48,23.75,58.34,8S155.35,74.84,155,65.54Z"/><path class="cls-7" d="M141.44,88.1l0,0-.05,0Z"/><path class="cls-7" d="M114.78,98.48A10.46,10.46,0,0,1,119,96.6l.16-.12c-2.72.88-5.52,1.7-8.36,2.37C112.11,98.76,113.45,98.63,114.78,98.48Z"/><path class="cls-7" d="M96.48,103.27a15,15,0,0,1,.78,2.07,22.52,22.52,0,0,1,.33-2.33l-1.34,0A1,1,0,0,1,96.48,103.27Z"/><path class="cls-7" d="M94.63,103.33s0,0,0,.06a1,1,0,0,1,.34-.46l-.77,0A1,1,0,0,1,94.63,103.33Z"/><path class="cls-7" d="M73.91,103c1,.56,2,1.08,3.09,1.55a2.77,2.77,0,0,1,.36-.74.3.3,0,0,1,.08-.08.24.24,0,0,1,.33.08,1.56,1.56,0,0,0,1.21.67,11.37,11.37,0,0,0-.23-1.32A30.05,30.05,0,0,1,73.91,103Z"/><path class="cls-7" d="M80.41,103.47c0-.13,0-.26,0-.39l-.27,0C80.22,103.22,80.32,103.34,80.41,103.47Z"/><path class="cls-7" d="M139,89.91l-.11.15v0c.27-.4.55-.8.85-1.18l-.71.32A.49.49,0,0,1,139,89.91Z"/><path class="cls-7" d="M89.26,103l.48,0v0s0-.1,0-.14h-.52A2,2,0,0,1,89.26,103Z"/><path class="cls-7" d="M69.47,120.12c1.54,2.46,5,3.42,7.66,4.17.89.25,1.77.55,2.66.86v0a.37.37,0,0,0,.18.31l0-.05c11.85,6.47,29,3.29,40.59-2.18a56,56,0,0,0,27-27.3,34.84,34.84,0,0,0,4.76-13.79A32.15,32.15,0,0,0,154,69.26a.24.24,0,0,0-.46-.07h0c-.24.82-.43,1.65-.61,2.49a.39.39,0,0,0-.31.24c-2.77,5.86-5.12,10.2-11,13.61-5.63,3.27-12.18,5.29-18.31,7.4A91.82,91.82,0,0,1,105,97.57l-.68.07a65.25,65.25,0,0,1-11.77.13c-2.38-.17-4.77-.41-7.2-.66a.5.5,0,0,0-.25.93l0,0c.48.22,1,.41,1.46.6-1,0-2.07.07-3.11.17.35-.14.71-.29,1.05-.46a.73.73,0,0,0,.11-1,.71.71,0,0,0-.47-.27c-1.27.09-2.48.2-3.66.3a25.57,25.57,0,0,1-9-.45,33,33,0,0,1-4.34-1.45,32,32,0,0,1-7.14-4.07c-6.24-4.61-9.8-11.06-14.86-16.69-.12-.34-.25-.67-.4-1a.38.38,0,0,0-.5-.18c-.27-.93-.56-1.85-.88-2.75,0-.13-.27-.12-.25,0v0c.22,1.59.51,3.17.82,4.75a30.53,30.53,0,0,0,1.58,9.09.41.41,0,0,0,0,.36v0c1.89,4.35,2.2,9.2,5.19,13l.29.34s0,0,0,.08v0a12.34,12.34,0,0,0,1,3.72,22,22,0,0,0,3.42,5.32c1.08,1.3,2.23,2.51,3.33,3.63C61.68,114.13,65.34,118.15,69.47,120.12Zm11.45-.33c-1.08-.49-2.16-1-3.22-1.55,1.14.42,2.29.81,3.45,1.16A.86.86,0,0,0,80.92,119.79ZM124,108.4c-.25.78-.55,1.57-.82,2.36.21-.75.39-1.5.55-2.26Zm.77-4.38c-.06.46-.11.91-.17,1.36l-.33.17c.08-.48.15-1,.23-1.45Zm-4.93,3.7-.14.06c.2-.87.39-1.73.58-2.6l.47-.11C120.44,105.93,120.14,106.82,119.86,107.72ZM116.67,106l-.32.87c-.29.77-.69,1.66-1.09,2.61.12-.86.15-2,.21-3.21Zm-7.32,4.56c.14-1.13.23-2.28.34-3.42l.4,0C109.82,108.3,109.57,109.43,109.35,110.57Zm4,10.2q2-.33,3.93-.84a40.41,40.41,0,0,1-5.27,2.15c-.78.24-1.56.44-2.34.64A21.81,21.81,0,0,0,113.34,120.77Zm-2.57-16.23c-.26.1-.53.18-.79.27.09-.56.2-1.12.34-1.67a1.05,1.05,0,0,0,0-.31l1-.07C111.1,103.35,110.93,103.94,110.77,104.54Zm-3.64.15.15-1.53a1,1,0,0,0,0-.17l.88,0A9,9,0,0,0,107.13,104.69Zm-3.24,0a2.32,2.32,0,0,1,0-1.26,1.14,1.14,0,0,0,.18-.39h.33C104.24,103.61,104.06,104.16,103.89,104.72Zm-3.06.16c-.07-.45-.15-.88-.26-1.31a1.13,1.13,0,0,0,.16-.33s0-.11,0-.17h.52A6.88,6.88,0,0,0,100.83,104.88ZM141.44,88.1l0,0,.05,0Zm-2.59,2v0l.11-.15a.49.49,0,0,0,0-.68l.71-.32C139.4,89.29,139.12,89.69,138.85,90.09ZM119,96.6a10.46,10.46,0,0,0-4.18,1.88c-1.33.15-2.67.28-4,.37,2.84-.67,5.64-1.49,8.36-2.37Zm-21.7,8.74a15,15,0,0,0-.78-2.07,1,1,0,0,0-.23-.3l1.34,0A22.52,22.52,0,0,0,97.26,105.34Zm-2.61-2s0,0,0-.06a1,1,0,0,0-.41-.42l.77,0A1,1,0,0,0,94.65,103.39ZM93.07,103a11.51,11.51,0,0,0-1.15-.12l0,0,1.37,0A.8.8,0,0,0,93.07,103Zm-3.34-.21s0,.09,0,.14v0l-.48,0a2,2,0,0,0-.05-.24Zm-9.34.28c0,.13,0,.26,0,.39-.09-.13-.19-.25-.29-.37Zm-1.64.11a11.37,11.37,0,0,1,.23,1.32,1.56,1.56,0,0,1-1.21-.67.24.24,0,0,0-.33-.08.3.3,0,0,0-.08.08,2.77,2.77,0,0,0-.36.74c-1.06-.47-2.09-1-3.09-1.55A30.05,30.05,0,0,0,78.75,103.19Zm69.62-19.61-.6,1.76a.89.89,0,0,0-1.31.13v0c-.23.33-.44.68-.65,1a1.38,1.38,0,0,0-.35-.75A27,27,0,0,0,148.37,83.58Zm-61.64,19.2c0,.23-.08.46-.11.69h0c-.07-.23-.12-.46-.19-.68ZM60.86,94.53c.82.55,1.7,1.08,2.63,1.58a1.11,1.11,0,0,0-.39.44c-1-.93-2.11-1.83-3.21-2.69C60.21,94.09,60.53,94.32,60.86,94.53Zm-2-1.44a1,1,0,0,0-1.22.23c-.34-.69-.69-1.37-1.06-2C57.31,91.91,58.07,92.52,58.84,93.09Zm-10.9-11.5a.44.44,0,0,0-.19.12.53.53,0,0,0-.15.36V82a17,17,0,0,0,0,2.14,3.67,3.67,0,0,1-.17-.5c-.37-1.47-.65-3-1-4.47C46.92,80,47.42,80.79,47.94,81.59Zm6.88,21a6.52,6.52,0,0,0,.17,1.09c-.55-.84-1.07-1.71-1.58-2.59C53.87,101.63,54.35,102.12,54.82,102.62Z"/><path class="cls-8" d="M120.4,124.31c-32.87,15.74-56.58-5.55-58.34-8S46.49,100.15,43.23,78C41.11,65.51,41,64.88,41,64.88a127.52,127.52,0,0,1,5.48-14.64s-16,24.81,21.48,46c7.5,2.59,4.13,2.47,10.23,2.08,0,0-.74,18.75,10.53,23.48s23.86,6.14,31.64,2.5"/><path class="cls-9" d="M58.38,42.45c-4.62,3-8.13,9.09-8.73,14.5,0,.21.28.23.34,0a37.5,37.5,0,0,1,3.18-7.83A44.48,44.48,0,0,1,58.5,42.6C58.57,42.52,58.5,42.38,58.38,42.45Z"/><path class="cls-9" d="M150.42,57c-.4,3.59,1.41,6.73.46,10.41-1.07,4.12-4.19,7.08-6.89,10.18a.18.18,0,0,0,.2.3.12.12,0,0,0,.05,0c2.95-2.33,5.76-5.26,7.14-8.84,1.65-4.31,0-7.66-.54-12a.21.21,0,0,0-.42,0Z"/><path class="cls-9" d="M52.09,76.81c.68,3.63,3.39,6.18,6.12,8.47,2.53,2.12,5.52,5,9.06,4.69a.25.25,0,0,0,.21-.27.24.24,0,0,0-.15-.19c-6.12-2.17-12.12-6.86-14.9-12.85C52.33,76.46,52.05,76.66,52.09,76.81Z"/><path class="cls-9" d="M80.63,61.55c4.28-2.79,10.75-3.31,15.7-3.58a31.86,31.86,0,0,1,16,3.24.14.14,0,0,0,.17-.08.15.15,0,0,0,0-.14c-4.63-3.31-10.53-3.87-16.08-3.52-5.13.33-11.51.83-15.76,4-.06.05,0,.16.06.11Z"/><path class="cls-10" d="M128.59,60.36l-.12,1.45c0-.08,0-.15,0-.23a45.26,45.26,0,0,0,.48-5.2C128.84,57.72,128.7,59.05,128.59,60.36Z"/><path class="cls-10" d="M129.87,48.18l0,.09a.24.24,0,0,0,0-.08Z"/><path class="cls-10" d="M141.78,14.61c1.52.81,3.35,1.87,4.86,2.71a28.73,28.73,0,0,1,3.47,2.87c.69.88,1.46,1,2,2,.74,1.28,2.13,2.32,4.36,3.81.54.2.7-.28.95-.43.06,0,.72-.84.76-.9s-.12-.05,0,0c.76.37.37-.14-.16-.93-2-3-4.43-5.07-6.29-7.91a19.39,19.39,0,0,0-5.1-4.7c-2.1-1.58-4.84-5.58-8.15-6.5,0-.7-1.42-.37-2-.46s-1.55-.58-2.13-.21c-.91.14-1.63,1.34-2.22,2-.93,1.09-.32,3.21-1,4.95a24.29,24.29,0,0,0,.23,2.66,7.34,7.34,0,0,0-.13,1.12,7.71,7.71,0,0,0-.53,2.28c-.66,3.79-1,5.51-1.48,9.36,0-.06,0,0,.47,1.6,0,0,.06.35,0,.37s-.48-2-.49-2L129,28.26a12.53,12.53,0,0,0,0,3.12l-.2.95c-.09,1.69-.21,3.42-.37,5.19-.29,3.34-.69,6.51-1.16,9.52q-.41,5.64-.71,11.44-.48,9.18-.74,18c0,.06-.45,2.93.06,1.25,0,0,.35-.13.36-.17l-.36.17c0,.17.36-.34.36-.17,0,.58.59,0,1.17,0a1,1,0,0,0,1-1c0-9.59,2.18-17.46,2.79-27.72a2.45,2.45,0,0,0,.43-1.06c.85-7.14,1.67-14.27,2.45-21.57.75-5.78,1.7-8.57.58-15.61,0-.09-.21-.66-.19-.75.1-.52.38-.4.68-.84s1,.43,1.31.19m1.15,1.34c-.23-.14-1-.87-.94-.66m-6.9,38.38h.05a.19.19,0,0,0,0,.08Z"/><g class="cls-11"><path class="cls-12" d="M157.73,31.68a21.83,21.83,0,0,1,.45,3.23,13.61,13.61,0,0,0,.14,2.63.36.36,0,0,0,.46.22.37.37,0,0,0,.22-.22c.7-1.78.09-4.31-.4-6.1a.45.45,0,0,0-.56-.31A.44.44,0,0,0,157.73,31.68Z"/></g><g class="cls-11"><path class="cls-12" d="M157.78,33.72c.09.65.17,1.31.21,2a4,4,0,0,0,.21,1.61.23.23,0,0,0,.33.09.2.2,0,0,0,.09-.09c.6-1,.12-2.66-.22-3.67-.11-.31-.67-.28-.62.09Z"/></g><g class="cls-11"><path class="cls-12" d="M157.8,33.33c-.32.43,0,1.27.08,1.76s-.06,1.18.4,1.51a.3.3,0,0,0,.26,0c.54-.35.34-1.2.24-1.74s-.2-1.46-.79-1.61A.18.18,0,0,0,157.8,33.33Z"/></g><g class="cls-11"><path class="cls-12" d="M157.37,32.77a6.27,6.27,0,0,1,.74,2,15.53,15.53,0,0,0,.15,1.93.22.22,0,0,0,.27.16.21.21,0,0,0,.1-.06c1.21-1.2.23-3.45-.81-4.4a.3.3,0,0,0-.41,0,.3.3,0,0,0,0,.33Z"/></g><g class="cls-11"><path class="cls-12" d="M157.57,32.72c.11.58.21,1.17.3,1.75a10.13,10.13,0,0,0,.23,1.73.35.35,0,0,0,.42.23.35.35,0,0,0,.23-.23,5.47,5.47,0,0,0-.68-3.69C157.92,32.22,157.52,32.43,157.57,32.72Z"/></g><path class="cls-13" d="M56.45,59.11a59.44,59.44,0,0,1,71.31-12.47c.29.15.54-.28.26-.43C104.28,33.61,74.14,38.8,56.1,58.76,55.88,59,56.24,59.35,56.45,59.11Z"/><path class="cls-13" d="M135.17,50.34c3.94,2.5,4.53,7.12,4.23,11.42S138,71,133.24,72.27a.23.23,0,0,0-.12.29.22.22,0,0,0,.24.13c4.75-.9,6.12-5.88,6.58-10.06.51-4.69.08-10.17-4.58-12.6a.18.18,0,1,0-.19.31Z"/><path class="cls-13" d="M132.37,73.53c.14.47.25.94.38,1.4A2.48,2.48,0,0,0,133.2,76a.22.22,0,0,0,.31,0,.24.24,0,0,0,.07-.16,2.57,2.57,0,0,0-.32-1.18c-.17-.42-.34-.84-.5-1.26-.09-.24-.46-.15-.39.1Z"/><path class="cls-13" d="M130.49,75.74c-1.75.76-3.49,1.5-5.22,2.3-.3.14,0,.57.25.43,1.72-.79,3.41-1.64,5.12-2.47C130.81,75.92,130.64,75.67,130.49,75.74Z"/><path class="cls-13" d="M125.25,77.42c-.17.49-.33,1-.5,1.48a4.53,4.53,0,0,0-.33,1.35.18.18,0,0,0,.19.17.16.16,0,0,0,.14-.08,4.23,4.23,0,0,0,.43-1.33l.36-1.51a.16.16,0,0,0-.1-.19.15.15,0,0,0-.19.11Z"/><path class="cls-13" d="M125.4,79.8c-.57-.23-1.11-.51-1.68-.74a4,4,0,0,0-1.54-.5.19.19,0,0,0-.19.19.21.21,0,0,0,.05.13,4,4,0,0,0,1.43.62c.61.22,1.24.38,1.85.59C125.5,80.15,125.57,79.87,125.4,79.8Z"/><path class="cls-13" d="M120.36,80.67c-6.18-.35-11.77,2-17.65,3.52a29.75,29.75,0,0,1-8.23,1.11,17.14,17.14,0,0,1-8.84-2.86.25.25,0,0,0-.34.11.26.26,0,0,0,0,.28c3.6,3.45,9.58,3.41,14.17,2.63,7-1.2,13.57-4.71,20.85-4.54a.13.13,0,0,0,.09-.16A.14.14,0,0,0,120.36,80.67Z"/><path class="cls-13" d="M84.25,81.6c-4.14,2.22-7.38-2.19-11.24-2.78a4.81,4.81,0,0,0-4.84,1.7c-.09.14.11.28.23.18,5-4.63,10.43,4.37,16,1.16a.16.16,0,0,0,.06-.21A.16.16,0,0,0,84.25,81.6Z"/><path class="cls-13" d="M69.46,79.49a19.9,19.9,0,0,0,1.18-3.18c0-.15-.17-.26-.25-.11a20.43,20.43,0,0,0-1.23,3.21C69.09,79.6,69.39,79.68,69.46,79.49Z"/><path class="cls-13" d="M70.07,76.75a44.26,44.26,0,0,1-7.4-5.18,20.47,20.47,0,0,1-5-8.66c-.13-.39-.75-.23-.62.17a21,21,0,0,0,4.53,8.37,30.46,30.46,0,0,0,8.24,5.66.2.2,0,0,0,.26-.14.2.2,0,0,0-.06-.22Z"/><path class="cls-13" d="M57.43,64.26c-1.45-.68-3.37-1.21-4.92-.55-.17.08-.07.31.08.32.76,0,1.51-.11,2.27-.06a8.32,8.32,0,0,1,2.47.53C57.47,64.5,57.56,64.33,57.43,64.26Z"/><path class="cls-13" d="M55.75,61.41a4.43,4.43,0,0,0-2,.83,3.22,3.22,0,0,0-1.29,1.68c0,.11.12.22.21.12a16,16,0,0,1,1.17-1.44,4.58,4.58,0,0,1,1.93-1c.16,0,.09-.26-.07-.23Z"/><path class="cls-13" d="M56.34,60.76a9,9,0,0,1,.58-3,11.38,11.38,0,0,1,1.8-2.45c.1-.12,0-.39-.19-.31-2,.77-3.14,3.84-2.49,5.78a.15.15,0,0,0,.3,0Z"/><path class="cls-13" d="M63.42,50.85c.14-.78-.64-1.61-1.18-2.09A4.84,4.84,0,0,0,61.15,48a2.79,2.79,0,0,0-1.37-.21.17.17,0,0,0-.17.19.17.17,0,0,0,.12.16c.32.1.62.33.94.46a4.57,4.57,0,0,1,1.14.64c.59.46.88,1.23,1.47,1.65a.1.1,0,0,0,.13,0h0Z"/><path class="cls-13" d="M64.85,48.64c-.28-.43-.58-.86-.84-1.31s-.37-.72-.79-.87a.26.26,0,0,0-.31.19.09.09,0,0,0,0,.05,1.81,1.81,0,0,0,.54,1.07L64.3,49A.32.32,0,1,0,64.85,48.64Z"/><path class="cls-13" d="M66.26,47a6.23,6.23,0,0,0-2.07-1.13.15.15,0,0,0-.2.1.14.14,0,0,0,0,.17,6.24,6.24,0,0,0,2,1.29.25.25,0,0,0,.25-.43Z"/><path class="cls-13" d="M67.88,45.49l-1.07-1.05a4.42,4.42,0,0,0-1-.88.12.12,0,0,0-.16.06.09.09,0,0,0,0,.1,4.65,4.65,0,0,0,.88,1l1.06,1.07a.22.22,0,0,0,.31-.31Z"/><path class="cls-13" d="M81,40.77a43.05,43.05,0,0,0-2.44-3.94.25.25,0,0,0-.35-.06.25.25,0,0,0-.08.31c.67,1.37,1.62,2.66,2.42,4,.18.29.63,0,.45-.26Z"/><path class="cls-13" d="M78.24,39.91a6.33,6.33,0,0,0-1.72-1.5.1.1,0,0,0-.12,0,.11.11,0,0,0,0,.08,6.29,6.29,0,0,0,1.49,1.72C78.11,40.47,78.46,40.13,78.24,39.91Z"/><path class="cls-13" d="M81.94,40.39a13.45,13.45,0,0,0-1.37-4,.13.13,0,0,0-.16-.08.13.13,0,0,0-.09.15c-.06,1.32.65,2.8,1,4.06a.31.31,0,0,0,.59-.17Z"/><path class="cls-13" d="M89,39.57c-1-2-2.06-3.9-3.07-5.87l-.54.31a10.85,10.85,0,0,0,1,1.34.13.13,0,0,0,.17,0,.14.14,0,0,0,0-.17,10.57,10.57,0,0,0-.7-1.53c-.18-.35-.73,0-.54.31,1.08,1.93,2.14,3.87,3.2,5.8.15.27.55,0,.41-.24Z"/><path class="cls-13" d="M88.91,39.29c-.09-1.82-.15-3.64-.25-5.45a.31.31,0,0,0-.62.08c.08.61.16,1.2.27,1.81,0,.11.18.07.19,0,.08-.62.12-1.24.16-1.86H88c.1,1.82.23,3.63.34,5.45,0,.34.55.35.54,0Z"/><path class="cls-13" d="M89.85,38.88a22.07,22.07,0,0,0,.25-4.8c0-.11-.18-.09-.21,0a21.61,21.61,0,0,0-.54,4.8A.25.25,0,0,0,89.85,38.88Z"/><path class="cls-13" d="M122.77,41.71c.41-1.45.84-2.9,1.21-4.37a.2.2,0,0,0-.17-.21.2.2,0,0,0-.19.11c-.42,1.45-.78,2.92-1.17,4.38a.18.18,0,0,0,.16.18A.17.17,0,0,0,122.77,41.71Z"/><path class="cls-13" d="M124.34,40.56a33.27,33.27,0,0,0,2.35-3.2c.07-.12-.09-.26-.19-.15a32.68,32.68,0,0,0-2.44,3.18C123.93,40.56,124.22,40.72,124.34,40.56Z"/><path class="cls-13" d="M133.12,42.79l2.75-2.14c.26-.2-.1-.55-.35-.36l-2.75,2.15C132.51,42.63,132.87,43,133.12,42.79Z"/><path class="cls-13" d="M134.17,44.58l1.57-.82c.16-.08,0-.31-.13-.24L134,44.3C133.82,44.39,134,44.67,134.17,44.58Z"/><path class="cls-13" d="M139.71,55.43a39.68,39.68,0,0,0,7.23,0,.25.25,0,0,0,.17-.31.24.24,0,0,0-.17-.17,39.68,39.68,0,0,0-7.23,0,.24.24,0,0,0,0,.47Z"/><path class="cls-13" d="M141.3,57.38a9.12,9.12,0,0,1,2.76,0c.82.15,1.56.55,2.37.7.14,0,.29-.16.16-.27-1.35-1.1-3.71-1.1-5.34-.88-.23,0-.18.43.05.4Z"/><path class="cls-13" d="M132.73,75.2a45.1,45.1,0,0,0,3.65,7.12c.09.13.34.06.28-.11-.82-2.5-2.42-4.86-3.67-7.16C132.89,74.88,132.65,75.05,132.73,75.2Z"/><path class="cls-13" d="M132.33,78.32a8.41,8.41,0,0,0,2.93,5.24c.12.09.3-.09.21-.21a12.15,12.15,0,0,1-2.69-5.15C132.72,77.9,132.27,78,132.33,78.32Z"/><path class="cls-13" d="M134.76,78.76c.81,1.32,1.6,2.65,2.46,3.93a.13.13,0,0,0,.17,0,.14.14,0,0,0,0-.17h0c-.73-1.36-1.54-2.68-2.32-4-.13-.22-.48,0-.35.21Z"/><path class="cls-13" d="M124.37,80.07a13,13,0,0,1,2.71,7.34.18.18,0,0,0,.35,0,10,10,0,0,0-2.81-7.59C124.46,79.65,124.23,79.9,124.37,80.07Z"/><path class="cls-13" d="M106.51,86.66a17.82,17.82,0,0,0,.87,3.2.15.15,0,0,0,.2,0,.14.14,0,0,0,0-.1,18.68,18.68,0,0,0-.74-3.23.2.2,0,0,0-.27-.09A.19.19,0,0,0,106.51,86.66Z"/><path class="cls-13" d="M107.1,88.39h.4a.16.16,0,0,0,.12-.19.16.16,0,0,0-.12-.12h-.4c-.24,0-.24.38,0,.37Z"/><path class="cls-13" d="M108.06,87.14a55.82,55.82,0,0,0,2.78,5.17c.12.18.47.07.38-.15a57,57,0,0,0-2.8-5.23C108.29,86.7,107.94,86.93,108.06,87.14Z"/><path class="cls-13" d="M112.29,83.94c1.17,2.87,2.11,6.12,3.71,8.78a.25.25,0,0,0,.35.06.24.24,0,0,0,.1-.25c-.73-3-2.33-5.94-3.51-8.77C112.77,83.37,112.12,83.54,112.29,83.94Z"/><path class="cls-13" d="M100.1,87.34a44.87,44.87,0,0,0-1.95,6.84.24.24,0,0,0,.45.12,43.57,43.57,0,0,0,2-6.81.29.29,0,0,0-.2-.35.28.28,0,0,0-.34.2h0Z"/><path class="cls-13" d="M100.89,84.68a45.41,45.41,0,0,0,1.61,7.56c.06.15.33.14.32,0a41,41,0,0,0-1.63-7.59.15.15,0,0,0-.22-.06.16.16,0,0,0-.08.14Z"/><path class="cls-13" d="M100.14,86.21c.23,2.26.29,4.61.72,6.84,0,.31.57.24.55-.08-.1-2.25-.59-4.52-.88-6.76C100.53,86,100.11,86,100.14,86.21Z"/><path class="cls-13" d="M87,84.62a77.86,77.86,0,0,0-.88,8.75c0,.25.41.33.47.06a81.14,81.14,0,0,0,.75-8.81A.17.17,0,0,0,87,84.62Z"/><path class="cls-13" d="M85,84.17a13.92,13.92,0,0,0-.87,7.68.28.28,0,0,0,.36.16.28.28,0,0,0,.18-.23,21.11,21.11,0,0,1,.71-7.5C85.46,84,85.09,83.94,85,84.17Z"/><path class="cls-13" d="M84.23,84.57a60.07,60.07,0,0,0-2.35,7.17c0,.17.22.3.3.12a59,59,0,0,0,2.45-7.18C84.71,84.42,84.32,84.32,84.23,84.57Z"/><path class="cls-13" d="M68.78,79.32a49.69,49.69,0,0,0-4.46,5.57.26.26,0,0,0,.13.34.24.24,0,0,0,.27,0,50.6,50.6,0,0,0,4.36-5.65C69.21,79.38,68.92,79.15,68.78,79.32Z"/><path class="cls-13" d="M67.61,78.58l-1.47,1.94a12.71,12.71,0,0,0-1.42,2,.18.18,0,1,0,.29.22,12.53,12.53,0,0,0,1.34-1.9l1.42-2.14c.07-.11-.09-.19-.16-.1Z"/><path class="cls-13" d="M66.41,77.34c-.71.69-1.42,1.39-2.13,2.07a10.14,10.14,0,0,0-1.87,2,.16.16,0,0,0,0,.22.15.15,0,0,0,.2,0,9.82,9.82,0,0,0,1.94-1.87l2.07-2.13a.17.17,0,0,0,0-.24.17.17,0,0,0-.23,0Z"/><path class="cls-13" d="M65.65,75.33c-1.63.94-3.61,2.55-4.11,4.46A.25.25,0,1,0,62,80h0c.59-.78,1-1.67,1.64-2.43a9.94,9.94,0,0,1,2.23-1.91.18.18,0,0,0,0-.24.17.17,0,0,0-.2,0Z"/><path class="cls-13" d="M60,71.37a49.28,49.28,0,0,0-4.35,6,.18.18,0,0,0,.07.25.2.2,0,0,0,.21,0,47.05,47.05,0,0,0,4.42-6c.16-.21-.19-.41-.35-.21Z"/><path class="cls-13" d="M60.45,70.19l-2.77,2.28a14.36,14.36,0,0,0-2.41,2.13c-.1.12.08.25.19.19a13.81,13.81,0,0,0,2.5-2l2.7-2.35c.15-.13-.06-.33-.21-.21Z"/><path class="cls-13" d="M58.28,56.2a13.73,13.73,0,0,0-6.86-2.56c-.47,0-.45.66,0,.72a16.37,16.37,0,0,1,6.65,2.21C58.31,56.71,58.5,56.36,58.28,56.2Z"/><path class="cls-13" d="M56.67,57c-1.33-1-3.54-1.55-5-.56a.19.19,0,1,0,.15.35c1.73-.32,3.11-.48,4.63.63.25.18.49-.24.24-.42Z"/><path class="cls-13" d="M80.41,79.52l1.61.76c.09,0,.17-.09.08-.14l-1.58-.8C80.39,79.27,80.28,79.46,80.41,79.52Z"/><path class="cls-13" d="M41,64.46c2.41,24.8,11.14,51.75,36.21,61.78,23.9,9.57,51.06-.21,66-20.58,9-12.36,13.24-27.76,12.79-43a.5.5,0,0,0-1,0c.77,26.24-13.07,52.23-38,62.39-23.61,9.62-51.19,1-64-21.32-6.91-12.06-9.26-25.82-11.29-39.38-.06-.4-.76-.31-.72.1Z"/><path class="cls-13" d="M125.75,78.66c.55-12,1.31-24.07,2.36-36.08s2.8-23.93,4-35.91a.14.14,0,1,0-.27,0c-2.09,11.68-3.07,23.65-4.11,35.46q-1.64,18.24-2.22,36.57c0,.18.27.17.28,0Z"/><path class="cls-13" d="M132.36,5.7c4-5.21,12.4,3.67,15.37,6.56,3.85,3.75,7.24,7.91,10.75,12,.13.15.35-.07.22-.23-4.51-5.62-9.28-11.19-14.9-15.74-2.62-2.12-8.75-7.29-11.58-2.67-.05.09.08.19.14.11Z"/><path class="cls-13" d="M158.9,24a17.06,17.06,0,0,0-2.41,2,.11.11,0,0,0,.13.18,18.45,18.45,0,0,0,2.4-2,.1.1,0,0,0-.12-.16Z"/><path class="cls-13" d="M156.69,26.09a175,175,0,0,0-20.52-16.6c-.15-.1-.35.15-.2.27,6.84,5.52,13.74,10.92,20.48,16.57C156.61,26.47,156.85,26.24,156.69,26.09Z"/><path class="cls-13" d="M135.84,10.2c-2.71,22.14-5.24,44.29-7.84,66.44a.12.12,0,0,0,.23,0c2.63-22.15,5.33-44.28,7.85-66.44C136.08,10.05,135.86,10.05,135.84,10.2Z"/><path class="cls-13" d="M132.35,5.64a3.84,3.84,0,0,1,1.74.27,6.83,6.83,0,0,1,1.34.93c.17.12.36-.11.27-.27a3.27,3.27,0,0,0-3.39-1.25.16.16,0,0,0,0,.32Z"/><path class="cls-13" d="M135.52,4.7a30.08,30.08,0,0,0,2.8,3.17c.09.07.23,0,.16-.13a28.4,28.4,0,0,0-2.79-3.21c-.1-.12-.27,0-.17.17Z"/><path class="cls-13" d="M135.81,5.15l.84,1.28a6.23,6.23,0,0,0,.78,1.12c.09.09.27,0,.22-.12a7.36,7.36,0,0,0-.74-1.16L136.05,5c-.1-.15-.34,0-.24.14Z"/><path class="cls-13" d="M135,5.6c.27.26.54.52.83.75.09.07.2,0,.12-.12-.23-.29-.49-.56-.75-.83a.14.14,0,0,0-.2.2Z"/><path class="cls-13" d="M134.19,6a9.8,9.8,0,0,0,.84.75.13.13,0,0,0,.18,0,.12.12,0,0,0,0-.14,7.58,7.58,0,0,0-.76-.84C134.28,5.56,134,5.83,134.19,6Z"/><path class="cls-13" d="M133.42,6a15.62,15.62,0,0,0,.84,1.56c.08.12.29,0,.24-.09a17.51,17.51,0,0,0-.76-1.65C133.63,5.6,133.31,5.82,133.42,6Z"/><path class="cls-13" d="M133.45,7.17l.41.38a.12.12,0,0,0,.17-.17h0L133.65,7a.14.14,0,0,0-.2.2Z"/><path class="cls-13" d="M133,7.59l1.23,1.56a.13.13,0,0,0,.2-.16L133.3,7.37a.18.18,0,0,0-.25-.07.19.19,0,0,0-.06.25l0,0Z"/><path class="cls-13" d="M134.19,7.55l.42.78c.09.17.33,0,.25-.14l-.37-.81C134.4,7.18,134.09,7.38,134.19,7.55Z"/><path class="cls-13" d="M134.58,7.16l.84,1.17a.14.14,0,0,0,.2,0,.14.14,0,0,0,0-.13c-.25-.4-.5-.81-.76-1.21C134.77,6.78,134.45,7,134.58,7.16Z"/><path class="cls-13" d="M137.07,9.11A.09.09,0,1,0,137.2,9"/><path class="cls-13" d="M136.17,6.31l.43,1.19c.05.16.31.1.26-.07l-.37-1.2c-.07-.2-.39-.11-.32.08Z"/><path class="cls-13" d="M139.84,12A9.7,9.7,0,0,0,138,10.22c-.76-.63-1.52-1.26-2.28-1.87a.39.39,0,0,0-.55,0l-.06.08c-.91,1.35-1.2,4.15.49,5.08a.25.25,0,0,0,.34-.11.29.29,0,0,0,0-.16,9.71,9.71,0,0,1-.77-2.09,3.56,3.56,0,0,1,.59-2.33L135.2,9c.78.6,1.56,1.18,2.35,1.77a9.66,9.66,0,0,0,2.17,1.42.11.11,0,0,0,.12-.16Z"/><path class="cls-13" d="M134.75,10.63c.18,1.74.31,3.52.6,5.25.06.34.66.27.61-.08-.23-1.75-.62-3.48-1-5.21,0-.14-.26-.11-.25,0Z"/><path class="cls-13" d="M157.19,28.94a2.67,2.67,0,0,1,0,.4c0,.32.54.32.5,0a1.34,1.34,0,0,1,0-.4.22.22,0,0,0-.44,0h-.06Z"/><path class="cls-13" d="M156.11,26.85c.64,4.09,1.54,8.14,2.34,12.2a.22.22,0,0,0,.27.16.26.26,0,0,0,.13-.1,6.82,6.82,0,0,0-2.27-9.37,6.25,6.25,0,0,0-.89-.46c-.39-.15-.55.47-.17.62a6.05,6.05,0,0,1,3.55,3.75c.24.7.28,5.05-.34,4.55s-.91-4.54-1.07-5.36c-.4-2-.78-4.06-1.26-6.07C156.35,26.58,156.08,26.66,156.11,26.85Z"/><path class="cls-4" d="M114.88,102.42l0,0h0a.22.22,0,0,0-.12,0h.12Z"/><path class="cls-4" d="M114.23,101.78h0v0Z"/><path class="cls-4" d="M72.61,98.84a13.9,13.9,0,0,0-3,10.9,10.86,10.86,0,0,0,2.72,5.81,9.47,9.47,0,0,0,11.4,1.39,10.4,10.4,0,0,0,4.61-10.7,11.55,11.55,0,0,0-8.06-8.61c-3.11-.9-7-.21-8.65,2.58"/><path class="cls-4" d="M72.25,98.49a14.26,14.26,0,0,0-2.48,13.84,9.68,9.68,0,0,0,4.39,5.23A10.05,10.05,0,0,0,88.86,110a11.44,11.44,0,0,0-5.1-11.22c-3.69-2.51-9.92-3.1-12.57,1.23-.34.55.53,1.06.87.51,2.07-3.38,6.92-3.2,10-1.57A10.7,10.7,0,0,1,88,108.39a9.55,9.55,0,0,1-6.52,9,8.76,8.76,0,0,1-10.17-4c-2.45-4.44-1.51-10.28,1.64-14.13.41-.5-.3-1.21-.71-.71Z"/><path d="M75.05,105.49a3.64,3.64,0,0,0,2.35,5.33,2.82,2.82,0,0,0,2.66-.67,3,3,0,0,0,.71-2.07,3.8,3.8,0,0,0-2.28-3.53,3,3,0,0,0-3.74,1.51"/><path d="M74.62,105.24a4.2,4.2,0,0,0,.52,4.8,3.92,3.92,0,0,0,4.34,1.1,3.43,3.43,0,0,0,1.67-4.08A4.13,4.13,0,0,0,78.23,104a3.48,3.48,0,0,0-4,2,.5.5,0,0,0,.35.61.51.51,0,0,0,.62-.34,2.44,2.44,0,0,1,2.46-1.33A2.94,2.94,0,0,1,80,106.81c.4,1,.4,2.59-.65,3.25a2.74,2.74,0,0,1-3.2-.4,3.18,3.18,0,0,1-.69-3.92c.3-.56-.56-1.07-.87-.5Z"/><path class="cls-4" d="M110.9,98.84a13.89,13.89,0,0,0-3,10.9,10.77,10.77,0,0,0,2.71,5.81A9.48,9.48,0,0,0,122,116.94a10.42,10.42,0,0,0,4.61-10.7,11.57,11.57,0,0,0-8.06-8.61c-3.11-.9-7-.21-8.65,2.58"/><path class="cls-4" d="M110.55,98.49a14.26,14.26,0,0,0-2.49,13.84,9.74,9.74,0,0,0,4.4,5.23,10.05,10.05,0,0,0,14.7-7.61,11.44,11.44,0,0,0-5.1-11.22c-3.69-2.51-9.92-3.1-12.57,1.23a.5.5,0,0,0,.86.51c2.07-3.38,6.93-3.2,10.05-1.57a10.7,10.7,0,0,1,5.91,9.49,9.56,9.56,0,0,1-6.53,9,8.76,8.76,0,0,1-10.17-4c-2.44-4.44-1.51-10.28,1.65-14.13.4-.5-.3-1.21-.71-.71Z"/><path d="M113.35,105.49a3.64,3.64,0,0,0,2.34,5.33,2.81,2.81,0,0,0,2.66-.67,3,3,0,0,0,.72-2.07,3.8,3.8,0,0,0-2.28-3.53,3,3,0,0,0-3.74,1.51"/><path d="M112.92,105.24a4.19,4.19,0,0,0,.52,4.8,3.91,3.91,0,0,0,4.33,1.1,3.45,3.45,0,0,0,1.68-4.08,4.13,4.13,0,0,0-2.92-3.11,3.47,3.47,0,0,0-4,2,.5.5,0,0,0,1,.27,2.46,2.46,0,0,1,2.47-1.33,2.94,2.94,0,0,1,2.33,1.94c.4,1,.4,2.59-.65,3.25a2.74,2.74,0,0,1-3.2-.4,3.18,3.18,0,0,1-.7-3.92c.31-.56-.55-1.07-.86-.5Z"/><path class="cls-4" d="M78.84,103.86a1.63,1.63,0,0,0-1,2.32,1.56,1.56,0,0,0,1.19.7,1.37,1.37,0,0,0,.45-2.69A1.27,1.27,0,0,0,78,105a1,1,0,0,0,.06.84,1.06,1.06,0,0,0,.61.51,1,1,0,0,0,.84,0,.9.9,0,0,0,.48-.78,1,1,0,0,0-1.2-1,.51.51,0,0,0-.34.62.5.5,0,0,0,.61.35l.07,0-.13,0h.09l-.13,0,.06,0-.07,0,0,0c.07,0-.11-.1,0,0l0,.05s-.09-.12,0,0l0,.06c-.08-.14,0-.08,0,0a.24.24,0,0,1,0,.08l0-.14a.28.28,0,0,1,0,.13l0-.13s0,0,0,0,0,0,0,0l0,0c.05-.1.07-.09,0,0s.11-.06,0,0l0,0s.13,0,.06,0l-.07,0,.14,0a.43.43,0,0,1-.16,0l.14,0-.09,0s-.11,0,0,0,0,0,0,0l0,0,0,0-.06-.06s0-.06,0,.05l0,0,0,0,0,.06a.32.32,0,0,0,0-.09l0,.13a.38.38,0,0,1,0-.15l0,.13s0-.07,0-.1h0s.09-.13,0,0,0,0,0,0l0,0,0,0s-.1.07,0,0l.1,0c.08,0,0,0,0,0h0l.12,0-.14,0h.18l-.13,0,.13,0c.08,0-.12-.06-.05,0l.07,0,0,0c-.13-.08-.07-.06,0,0l.1.1,0,0,0,.06a.6.6,0,0,1,.06.11c-.07-.14,0-.08,0,0a.14.14,0,0,0,0,.06l0,.14,0-.14a1.13,1.13,0,0,1,0,.26l0-.14,0,.13s0,0,0,0,.07-.13,0,0-.06.08-.06.11.08-.1,0,0l0,0s-.09.05,0,0l0,0-.1.06c.15-.08,0,0,0,0a.61.61,0,0,1-.13,0l.13,0a1.31,1.31,0,0,1-.28,0l.13,0-.27-.07c.17.06,0,0,0,0l-.06,0c-.07-.05.1.09,0,0a.47.47,0,0,1-.1-.1s.08.12,0,0l0-.06,0-.06c.08.13,0,.07,0,0l0-.16,0,.14a1.22,1.22,0,0,1,0-.27l0,.13,0-.16,0-.07c0-.12-.05.09,0,0l.08-.14,0,0c0-.07-.09.11,0,0a.57.57,0,0,1,.11-.11c.09-.08-.08,0,0,0l.06,0a.61.61,0,0,1,.14-.07h0l.09,0a.51.51,0,0,0,.35-.62.52.52,0,0,0-.62-.35Z"/><path class="cls-4" d="M117.07,103.5a1.49,1.49,0,0,0-1.26.78,1.42,1.42,0,0,0,0,1.46,1.55,1.55,0,0,0,1.23.68,1.43,1.43,0,0,0,1.26-.62,1.5,1.5,0,0,0,.12-1.32,1.42,1.42,0,0,0-1-1,1.53,1.53,0,0,0-.92.13,1.29,1.29,0,0,0-.6.68,1.18,1.18,0,0,0,.54,1.44,1.11,1.11,0,0,0,.84,0,1.08,1.08,0,0,0,.64-.58,1,1,0,0,0-.91-1.36.93.93,0,0,0-.47.11.5.5,0,0,0,.5.87.05.05,0,0,1,0,0l-.12.05.09,0-.13,0a.24.24,0,0,1,.12,0l-.14,0,.12,0-.12-.05.09.05h0c-.08-.06,0,0,0,0l0,0c.06,0,0-.09,0-.05a.93.93,0,0,0,0,.1l0-.12,0,.12,0-.14a.21.21,0,0,1,0,.11l0-.14,0,.11,0-.11a.22.22,0,0,0,0,.08s.1-.11,0,0l0,0,0,0c.1-.1.08-.06,0,0l-.09,0,.12,0a.53.53,0,0,1-.17,0h0l.13,0-.15,0,.12,0-.09,0s.11.09,0,0,0,0,0,0l0,0c.1.1.06.08,0,0a.31.31,0,0,1,0-.1l0,.12a1.21,1.21,0,0,1,0-.18l0,.13a.6.6,0,0,1,0-.19l0,.14a1.05,1.05,0,0,1,0-.19l0,.12a.6.6,0,0,1,.06-.11c0-.07-.09.09,0,0l0,0,.05,0-.06,0,0,0,.12-.06-.12,0,.25-.07-.14,0a.88.88,0,0,1,.23,0l-.13,0,.23.07-.12,0a.71.71,0,0,1,.15.08c.06,0,0,0,0,0l0,0,.06.06a.12.12,0,0,1,.05,0c-.11-.13,0,0,0,0a.8.8,0,0,1,.08.16l0-.12a1.32,1.32,0,0,1,.08.3l0-.14a1.41,1.41,0,0,1,0,.29l0-.14a1.68,1.68,0,0,1-.07.24l.05-.12a.54.54,0,0,1-.07.13c-.06.1.08-.08,0,0l0,.06-.06.05c.12-.11.07-.05,0,0l-.14.07.12-.06a.72.72,0,0,1-.25.07h.13a1,1,0,0,1-.29,0l.14,0a1.11,1.11,0,0,1-.3-.08l.12.05-.14-.07-.07,0s.1.08.06,0l0,0,0-.05,0,0,0,.06a.8.8,0,0,1-.08-.16l.05.12a.67.67,0,0,1-.05-.19v.13a1,1,0,0,1,0-.24v.13a.89.89,0,0,1,.07-.28l0,.12.09-.17,0,0,0,0s.06-.07.07-.08l.07-.06s0,0,0,0-.1.08-.05,0a.81.81,0,0,1,.18-.1l-.12,0a.79.79,0,0,1,.22-.06l-.14,0h.11a.51.51,0,0,0,.5-.5.51.51,0,0,0-.5-.5Z"/><path d="M69.17,99.29a11.58,11.58,0,0,1,8.06-5.56,11,11,0,0,1,9.27,2.86,11.24,11.24,0,0,1,3.08,4.71c.2.6,1.17.34,1-.27a12.59,12.59,0,0,0-7.26-7.63,12.33,12.33,0,0,0-15,5.39.5.5,0,0,0,.86.5Z"/><path d="M105.46,100.58a9.46,9.46,0,0,1,17.14-3c.35.53,1.22,0,.86-.51a10.83,10.83,0,0,0-8-4.72A10.33,10.33,0,0,0,107,95.67a10.62,10.62,0,0,0-2.51,4.65.5.5,0,0,0,1,.26Z"/><path d="M95.23,120.65a2.67,2.67,0,0,0-1.63,2.72,2.36,2.36,0,0,0,.73,1.52,2.81,2.81,0,0,0,1.59.7,2.7,2.7,0,0,0,1.62-.34,2.49,2.49,0,0,0,1.08-1.35,2.76,2.76,0,0,0-1-3.15,2.89,2.89,0,0,0-3.64.45.5.5,0,1,0,.71.71,2.5,2.5,0,0,1,.23-.23s.07-.05,0,0a.1.1,0,0,1,0,0l.16-.1.14-.07c.08,0,0,0,0,0l.09,0a2,2,0,0,1,.33-.09s.17,0,.07,0H96a2,2,0,0,1,.35,0h.07c.08,0-.08,0,0,0l.16,0,.15,0,.07,0,.07,0,0,0,.06,0,.14.08.13.09.08.07.11.11s.1.13.05.06a1.92,1.92,0,0,1,.18.31l0,.06h0a.88.88,0,0,1,0,.15,1.24,1.24,0,0,1,0,.16.13.13,0,0,1,0,.06s0,.14,0,.07,0,0,0,0a.28.28,0,0,0,0,.09v.32a.13.13,0,0,0,0,.06c0,.06,0-.07,0,0a2,2,0,0,1-.08.31.88.88,0,0,1-.05.15c0,.07,0-.07,0,0s0,0,0,.08-.1.18-.16.27,0,0,0,0l0,.06-.13.12-.07.06h0l-.13.09-.13.07-.06,0s.07,0,0,0l-.29.08-.11,0c.06,0,0,0,0,0h-.11c-.1,0-.2,0-.3,0s-.11,0,0,0h0l-.18,0a1.61,1.61,0,0,1-.29-.09c-.09,0,0,0,0,0l-.06,0-.17-.1-.11-.07c-.08,0,0,0,0,0a.18.18,0,0,0-.07,0l-.09-.09-.06-.07s-.08-.09,0,0,0,0,0,0a.35.35,0,0,0,0-.08s0-.08-.07-.13-.07-.15,0-.05l-.06-.17,0-.16s0-.06,0-.09h0a2.28,2.28,0,0,1,0-.37v-.06c0,.11,0,0,0,0a.85.85,0,0,0,0-.17,1,1,0,0,1,0-.16s.08-.2,0-.1a3.07,3.07,0,0,1,.17-.31l0-.07.11-.13.12-.12.07,0c-.06,0,0,0,0,0l.14-.09.1,0a.53.53,0,0,0,.35-.62.52.52,0,0,0-.62-.35Z"/><path d="M95.3,121.3a2,2,0,0,0-.94,2.16,1.89,1.89,0,0,0,1.87,1.37,1.71,1.71,0,0,0,1.14-.48,1.86,1.86,0,0,0,.5-1.13,1.58,1.58,0,0,0-1.32-1.73,1.65,1.65,0,0,0-1.85,1.16,1.63,1.63,0,0,0,1.46,1.89,1.36,1.36,0,0,0,1.26-2,1.23,1.23,0,0,0-1.29-.53,1.07,1.07,0,0,0-.78,1,1,1,0,0,0,.7,1,1.06,1.06,0,0,0,1.16-.55.85.85,0,0,0-.49-1.21,1,1,0,0,0-1.11.38.82.82,0,0,0-.12.63l.84-.49,0,0,0-.07a.31.31,0,0,1,0-.1s-.06-.11,0,0a.89.89,0,0,1-.06-.2s0-.1,0,0a.45.45,0,0,1,0-.11v-.12c0,.05,0,0,0,0l0-.13s0,0,0,0a.73.73,0,0,0,0-.09s0-.07,0,0a.67.67,0,0,1,.15-.14s0,0,0,0l.09,0s-.07,0,0,0a.29.29,0,0,0,.1,0c.06,0-.1,0,0,0s.13,0,.06,0,.05,0,.06,0,0,0,0,0l.09,0s.07,0,0,0l.07.07s.06.09,0,0l0,.07c.06.1,0,0,0,0a.3.3,0,0,0,0,.1c0-.08,0,0,0,0l.75-.44a1.82,1.82,0,0,0-1.24-.32.51.51,0,0,0-.5.5.5.5,0,0,0,.5.5h.31c-.06,0,.08,0,.07,0l.1,0h0l.23.14c.32.23.73-.09.75-.43a1.34,1.34,0,0,0-.72-1.21,1.38,1.38,0,0,0-1.41.09,1.62,1.62,0,0,0-.71,1.27,1.94,1.94,0,0,0,.54,1.36.53.53,0,0,0,.61.08.55.55,0,0,0,.23-.57c0,.1,0,.09,0,.18l0,0s.07-.08,0,0,0,0,0,0-.12,0,0,0h0c.09,0-.11,0,0,0h0c-.09,0,0,0,0,0-.13,0-.08,0,0,0-.13-.09,0,0-.06-.06s0,.1,0-.07c0,0,0,.09,0,0,0,.08,0,0,0,0s.06-.08,0,0,.09-.06,0,0l0,0c.08-.07,0,0,0,0s.07,0,0,0,0,0,0,0-.06,0-.06,0,.11,0,0,0h0s.06,0,0,0,0,0,0,0,0-.06,0-.06,0,.11,0,0,0,.08,0,0V123s0,.11,0,0a.24.24,0,0,0,0-.08s0,.1,0,0,0,0,0,0l0,0s-.09.06,0,0-.11,0,0,0,.06,0,0,0,0,0,.07,0c-.15,0,0,0,0,0l0,0s-.06,0,0,0l.08.05h0s.09.09,0,0,0,0,0,0,0,.07,0,0,0,0,0,.08,0,0,0,0v.06q0-.09,0,0l0,.1c0-.09,0,0,0,0a.7.7,0,0,0-.06.09c0,.06.08-.07,0,0s-.05,0-.06.06,0,0,0,0l-.09,0h0l-.07,0h-.11c.08,0,0,0,0,0s-.16-.06-.06,0l-.11,0s-.11-.09,0,0l-.12-.1s-.09-.1,0,0l0,0,0-.07s-.06-.12,0,0,0,0,0,0,0-.08,0-.12v0s0-.12,0,0,0,0,0,0a.19.19,0,0,1,0-.07l0,.06s0,0,0,0l.05-.07c0-.08-.07.07,0,0l0,0s.08-.09,0,0,0,0,0,0l.06,0,.06,0c.09-.06-.08,0,0,0l.18-.06h.07s-.11,0,0,0h.23s-.1,0,0,0l.09,0,0,0,0,0s.11.07.14.08-.08-.08,0,0a.12.12,0,0,0,0,.05l.05.06c-.09-.09,0,0,0,0s.09.2,0,.08a.88.88,0,0,1,0,.15s0,.07,0,.09,0-.12,0,0a1.08,1.08,0,0,1,0,.18v.07c0-.1,0,0,0,0a.75.75,0,0,1,0,.16s0,.1,0,0a.25.25,0,0,0,0,.07s-.12.18,0,.08a.8.8,0,0,1-.13.13c-.06.06,0,0,0,0l-.1.06-.06,0c.07,0,0,0,0,0l-.18,0s-.09,0,0,0H96l-.11,0-.08,0c-.11,0,.09,0,0,0l-.18-.11s-.09-.07,0,0l-.09-.08,0,0c-.08-.07,0,.07,0,0a1.62,1.62,0,0,0-.1-.18c0-.06,0,.11,0,0l0-.11s0,0,0-.07,0,0,0,0,0-.15,0-.22,0,.12,0,0a.36.36,0,0,1,0-.11l.06-.19c0,.11,0,0,0,0l.06-.11,0-.08c0,.07,0,0,0,0l.14-.13c-.08.07,0,0,0,0l.12-.07a.5.5,0,0,0-.5-.87Z"/><path class="cls-13" d="M66.55,32.82C59.14,37,51.5,42,46.66,49.2,41.4,57,41.4,66.44,45.48,74.77c4.15,8.53,12.17,16.37,20.45,20.94a19.92,19.92,0,0,0,13.14,2.68c3.21-.57,6-1.43,9.34-.81,2.51.47,4.93,1.32,7.49,1.58,5.54.55,11-1,16.28-2.48s10.48-2.78,15.64-4.46C136.63,89.34,145.2,85,150.41,77a22.25,22.25,0,0,0,3.78-11.67c.09-5.17-2-10-4-14.69-1.85-4.39-3.83-8.82-6.92-12.51a32.48,32.48,0,0,0-11.82-8.44c-20.32-9.11-44.8-7.36-64.09,3.4-.5.28,0,1,.45.77a72.58,72.58,0,0,1,54.26-6.53c9.31,2.59,18.32,6.89,23.35,15.53a81.17,81.17,0,0,1,6.12,13.74c1.63,4.59,2.25,9.27.8,14-2.82,9.16-11,15.26-19.54,18.77a112.64,112.64,0,0,1-13.23,4.26c-4.7,1.28-9.36,2.77-14.12,3.8a32.33,32.33,0,0,1-8.21.87c-2.83-.13-5.45-1-8.2-1.55a15.27,15.27,0,0,0-5-.35c-2.73.32-5.3,1.32-8.08,1.3-9.54-.08-18.3-8.42-24.13-15.23-7.16-8.36-11.28-20-5.76-30.36,4.51-8.44,13.09-13.62,20.82-18.73A.31.31,0,0,0,67,32.9a.32.32,0,0,0-.39-.1Z"/><path class="cls-7" d="M101.06,119.74a7.56,7.56,0,0,1,5.56-2.87c2.8-.2,3.1,1.31,7.27,2.23,2.37.53,5.92,1.31,8.17-.51a11.78,11.78,0,0,0,2.75-2.87c4.62-7.69,1.38-15.65,6.25-21.83,1.08-1.36,4.59-3.76,11.62-8.55,3-2.08,2.85-1.83,3.58-2.43,7-5.87,7.42-15.15,8.23-15,.57.11.25,4.72-.32,8.68a67.08,67.08,0,0,1-2,9.19c-5.16,16.88-18.06,28.41-18.06,28.41-4.87,4.35-11.53,10.11-21.26,11.42-4.72.64-12,.5-13-2.23C99.44,122,100.63,120.35,101.06,119.74Z"/><path class="cls-7" d="M83.06,97.78c-.5,1.36,5.21,2.78,6.45,7.28,1,3.48-1.75,5.22-.77,7.53,2,4.59,16,5.5,18.26.7,1.71-3.56-3.22-9.92-4.79-11.93a6,6,0,0,0-1.4-1.41c-2.16-1.49-3.86-.32-7.53-1.08-2.42-.5-4-1.5-4.28-1.09s1.82,2.1,1.4,2.81a1,1,0,0,1-1,.26c-1.15-.3-.89-2.2-2.1-3.19S83.38,96.93,83.06,97.78Z"/><path class="cls-7" d="M107.32,102.38a26.29,26.29,0,0,0-10.6-1.28"/><path class="cls-7" d="M91.11,99.25l9.32.9"/><path class="cls-7" d="M106.68,104.17c.1.56-.18.81-.13,2.23.09,2.47,1,3.52.45,4.28s-2.07.53-2.68.44c-7.6-1-11.14,1.79-13.21-.63-.26-.3-.66-1.91-1.47-5.11-.85-3.38-.79-3.64-.7-3.83C90.5,98,106,100.3,106.68,104.17Z"/><path class="cls-7" d="M131.7,106.59a17.6,17.6,0,0,1,5.3-1.15,17.23,17.23,0,0,1,4,.26"/></g></svg>