<svg xmlns="http://www.w3.org/2000/svg" viewBox="0 0 198.43 35.43"><defs><style>.cls-1{fill:#6e6e6e;opacity:0.5;}.cls-2{fill:#fff;}.cls-3,.cls-4{font-size:96px;font-family:NotoSansJP-Medium-90ms-RKSJ-H, Noto Sans JP;}.cls-3{fill:none;stroke:#231f20;stroke-miterlimit:10;}.cls-4{opacity:0.79;fill:#231f20;}</style></defs><g id="carracters"><path d="M133.1,10l1.1.12,3,.28.79.06c0-.15-.29-.23,0-.41l.44.56a.5.5,0,0,1-.11.1l-.91.38c-.06,0-.13,0-.19,0V11l.65-.29v0l-.69-.07-3-.28-1.15-.1C133.07,10.12,132.91,10,133.1,10Z"/><path d="M171.42,20.81l2,.72a3.06,3.06,0,0,0-.7,1.2,2.13,2.13,0,0,0,1.06,2.67,6,6,0,0,0,2.12.61,20.17,20.17,0,0,0,4.91,0c1.61-.18,3.21-.43,4.82-.64h.08v2.59c-.5.09-1,.2-1.52.28a21.65,21.65,0,0,1-3.86.24c-1.38-.05-2.76-.18-4.15-.27a9.07,9.07,0,0,1-3.23-.79,5.48,5.48,0,0,1-1.63-1.15,3.05,3.05,0,0,1-.85-2.56,7.33,7.33,0,0,1,1-2.8Z"/><path class="cls-1" d="M133.93,20.78l1.95.72a3,3,0,0,0-.71,1.2,2.12,2.12,0,0,0,1.07,2.67,6,6,0,0,0,2.11.61,20.25,20.25,0,0,0,4.92,0c1.61-.19,3.21-.43,4.81-.65h.08V27.9c-.5.09-1,.2-1.51.28a20.8,20.8,0,0,1-3.86.23c-1.39-.05-2.77-.17-4.15-.26a8.78,8.78,0,0,1-3.23-.8,5.2,5.2,0,0,1-1.64-1.14,3.08,3.08,0,0,1-.85-2.56,7.69,7.69,0,0,1,1-2.8Z"/><path d="M172.12,13.23l.1-2.17a18,18,0,0,0,5.49.61,30,30,0,0,0,5.5-.53.31.31,0,0,1,0,.09c0,.61,0,1.22,0,1.83a.23.23,0,0,1-.17.26,5.39,5.39,0,0,1-1.89.49,25.19,25.19,0,0,1-2.75.11c-1.08,0-2.17-.11-3.26-.22-.93-.1-1.86-.28-2.79-.42Z"/><path class="cls-2" d="M20,20.65l1.95.72a3,3,0,0,0-.71,1.2,2.11,2.11,0,0,0,1.07,2.66,6,6,0,0,0,2.11.62,20.25,20.25,0,0,0,4.92,0c1.61-.18,3.21-.42,4.81-.64h.08v2.59c-.5.1-1,.21-1.51.28a20.81,20.81,0,0,1-3.86.24c-1.39-.05-2.77-.17-4.15-.26a8.78,8.78,0,0,1-3.23-.8,5.37,5.37,0,0,1-1.64-1.14A3.09,3.09,0,0,1,19,23.51a7.82,7.82,0,0,1,1-2.8S20,20.68,20,20.65Z"/><path class="cls-2" d="M20.7,13.06l.1-2.16a18.23,18.23,0,0,0,5.49.61A30.77,30.77,0,0,0,31.78,11a.58.58,0,0,1,0,.1c0,.61,0,1.21,0,1.82a.26.26,0,0,1-.17.27,5.45,5.45,0,0,1-1.89.49c-.92.06-1.84.13-2.75.11-1.09,0-2.18-.11-3.26-.23s-1.87-.27-2.8-.42Z"/><path d="M146.08,11.1c0,.65,0,1.32,0,2a.33.33,0,0,1-.15.18,5.66,5.66,0,0,1-1.6.47,19.15,19.15,0,0,1-4.28.09c-1.19-.09-2.38-.21-3.56-.35-.5-.05-1-.19-1.5-.29l.1-2.17a18,18,0,0,0,5.5.61A29,29,0,0,0,146.08,11.1Z"/><path d="M174.14,29.73l-1.22.77-.11-.15.94-.6-.43-.08a6.65,6.65,0,0,1-3.64-1.91,5.74,5.74,0,0,1-1.56-3.5c0-.22,0-.45,0-.67.2-.08.2.05.2.16a5.48,5.48,0,0,0,.28,1.75,5.7,5.7,0,0,0,3.78,3.71c.45.16.94.25,1.41.38l0-.07-.57-.91.16-.1Z"/></g><g id="Layer_7" data-name="Layer 7"><text class="cls-3" transform="translate(46.21 -50.66)">こ</text><text class="cls-4" transform="translate(45.55 -50.13)">こ</text></g></svg>