<svg id="illustration" xmlns="http://www.w3.org/2000/svg" viewBox="0 0 198.43 141.52"><defs><style>.cls-1{fill:#103b42;}.cls-2{fill:#9595c1;}.cls-3{fill:#fff;}.cls-4{fill:#f26a49;}.cls-5{fill:#f7c889;}.cls-6{fill:#422d16;}.cls-7{fill:#6c0003;}.cls-8{fill:#200000;}.cls-9{fill:#210000;}.cls-10{fill:#1e0d00;}.cls-11{fill:#010101;}</style></defs><polygon class="cls-1" points="137.32 20.24 134.13 19.43 99.43 22.19 96.75 20.51 94.28 20.27 91.28 20.85 88.93 21.18 86.92 19.81 81.83 12.66 77.35 8.05 71.89 4.92 65.89 3.46 60.69 3.68 56.84 4.88 55.18 5.76 58.37 6.95 63.05 11.14 65.86 13.71 67.67 17.31 68.66 21.19 69.24 23.72 63.78 26.68 51.48 35.64 40.47 47.47 34.49 56.97 32.56 63.12 32.33 67.84 33.63 72.67 35.83 77.04 39.74 81.61 43.45 85.45 46.87 88.15 48.65 89.46 45.86 97.08 44.19 105.06 45.36 111.44 47.38 119.73 50.4 124.64 56.17 130.56 62.96 134.75 71.06 137.22 67.6 133.78 63.96 127.72 63.05 121.35 62.85 113.87 63.05 107.6 62.65 101.23 66.02 100.52 68.71 97.59 75.09 92.42 80.21 90.09 83.42 89.18 76.61 85.45 69.24 84.11 64.57 84.64 59.95 86.19 55.47 84.23 51.6 80.9 49.27 75 50.07 70.34 51.82 67.39 55.05 64.58 57.29 63.82 59.95 65.61 65.28 66.27 68.91 65.61 71.69 64.29 73.25 63.26 78.02 66.28 83.98 67.26 89.95 67.84 96.93 67.5 102.58 66.62 113.84 62.15 118.52 59.26 120.64 57.72 105.08 38.16 130.23 41.39 132.33 38.42 134.92 31.57 137.32 25.94 138.33 22.53 137.32 20.24"/><path class="cls-2" d="M105,40S92.36,37,86.6,38.53,74.78,47.91,68.11,49.9s-13,5.7-14.45,5.31-5.17,7.32-5.17,7.32a37.88,37.88,0,0,0,.79,10.69l1.51-4.09,2-2.85,2.85-2.16,1.62-.3,3.48,1.79H67l4.7-1.32,1.56-1,4.36,2.35,8,1.89,9.52.18,9.82-1.4,6.37-2.93,9.29-5.63Z"/><path class="cls-3" d="M90.76,28.24l1.41-2.08,3-1.67,2.42.37,2.49.77,1.69,1.68.67,2a3.92,3.92,0,0,1-3.3.3,20.25,20.25,0,0,0-3-1.19L94,29l-1.8,1.15s-1.14.59-1.78,0S90.76,28.24,90.76,28.24Z"/><path class="cls-4" d="M130.53,41.15l-.88-.21-1-.18-.89-.17-.94-.23-.77-.36-.85-.12-.89.12-.74.24-1.69-.68-1.26-.35-1.84-.62-1.43-.33-2.11-.16-1.93-.3H111l-3.63.13-2.31-.13-.83.36.1.84.63,1,.58,1.08.37.72.34,1.16.66.33.55.61.43.62.68.54.48.43.79,1.41.59.77.76,1,1.23.66a1,1,0,0,0,.17,1,7.75,7.75,0,0,0,1.52,1.37l.37.53.37.72.39.27.68.36.33.67.3.71.8.86.43.17.85.41.16,1.28.37.68.69-.19,1.07-.93.6-.38-14.28-16-.77-1c-.17-.2-.37-.44-.06-.72,1-.87,2.88-.51,2.88-.51l10.36,1.79,9,2.23,1.72-.27Z"/><polygon class="cls-3" points="130.39 42.45 129.85 44.6 128.49 47.48 128.62 45.15 128.57 43.89 127.66 44.94 125.69 46.64 126.2 44.72 126.39 42.19 124.93 43.49 121.54 45.15 122.67 43.49 123.59 41.33 120.11 44.05 120.37 42.77 119.87 40.36 115.69 43.07 116.36 41.66 116.57 40.03 112.43 42.98 112.68 41.8 112.61 40.13 112.55 39.48 110.86 41.39 110.44 39.21 109.03 40.49 109.12 38.94 109.74 38.53 110.47 38.84 111.21 38.58 112.02 38.53 112.49 39.14 113.33 38.89 114.5 38.76 115.66 39 116.68 39.72 117.74 39.53 118.65 39.55 119.96 40.14 121.2 40.3 122.39 40.49 123.38 41.08 123.74 41.15 124.47 41 125.12 41 126.09 41.34 126.54 41.75 127.11 41.66 127.78 41.85 128.38 42.19 128.63 42.96 129.22 42.47 129.73 42.42 130.39 42.45"/><path class="cls-3" d="M120.84,57.51l.7-.63,1-1.22.66-1,.15-.53-1.22.81-1.16.68-1.29.44.76-.89L121.54,54l.65-1.32-1.31.9L119.8,54l-.8.26,1-1.3.71-1.09.47-1.23-1.39,1-1.15.63-1,.4-.87-.17.63-1.06.58-1.12.37-1,.33-1.28-1.26,1-1,.57s-.66.2-.78.22-1.24-.18-1.24-.18l1.15-.85.71-1,.84-1.26.34-.74-1.44.69-1.33.57-1.05.2-.76-.08,1-1.36-.87.1-.74.08L113.35,44l-1.27.7-.73.31-.33,0V42.91l-1,.77.18-2-1.23,1-.21-1.71-1.13.75-.5.14.33,1,.52.21.82.09-.1.42.4.6.42.13h.35l.36.71.24.13.22.1.09.74.24.3.37.1.46,0-.1.52.1.36.46.27-.12.64.29.87.6.49.8.29.58.21.08.9.29.59.63.69.47.28.59.26h.46l.36.8.36.48.73.36.26.07.17.65,0,.58.48.37.68.56v.35l.26.48.42.32Z"/><path class="cls-5" d="M137.88,47.75l16.77,9.59L134.33,78.12,125.76,59a2.66,2.66,0,0,0,2.45.17c1.23-.61,1-2.71,1-2.71s2,1.2,3.2.11,1.24-3.5,1.24-3.5a1.85,1.85,0,0,0,2.48,0,4.64,4.64,0,0,0,1.29-3s1,.1,1.22-.46S137.88,47.75,137.88,47.75Z"/><path class="cls-6" d="M142.62,51.51a.46.46,0,0,0,0-.91.46.46,0,0,0,0,.91Z"/><path class="cls-7" d="M140.57,54.34a.48.48,0,0,0,0-1,.48.48,0,0,0,0,1Z"/><path class="cls-7" d="M140.16,54.61a.5.5,0,0,0,0-1,.5.5,0,0,0,0,1Z"/><path class="cls-7" d="M136.52,67.94l.13.08a.43.43,0,0,0,.65-.37v-.16a.53.53,0,1,0-.79.45Z"/><path class="cls-7" d="M144.27,64v.08a.58.58,0,0,0,1.12,0l0-.08a.59.59,0,1,0-1.15,0Z"/><path class="cls-8" d="M135.88,60.74a.68.68,0,0,0,0-1.36.68.68,0,0,0,0,1.36Z"/><path class="cls-8" d="M134.89,61.07a.27.27,0,0,0,0-.54.27.27,0,0,0,0,.54Z"/><path class="cls-8" d="M147.47,58.21a.72.72,0,0,0,0-1.43.72.72,0,0,0,0,1.43Z"/><path class="cls-8" d="M131.44,69.43a.71.71,0,0,0,0-1.41.71.71,0,0,0,0,1.41Z"/><path class="cls-8" d="M134.73,73.26a.9.9,0,0,0,0-1.8.9.9,0,0,0,0,1.8Z"/><path class="cls-9" d="M131.44,63.28a.91.91,0,0,0,0-1.81.91.91,0,0,0,0,1.81Z"/><path class="cls-5" d="M134.41,45.42a1.73,1.73,0,0,0-.16.56.32.32,0,0,0,.31.39.57.57,0,0,0,.66-.6.29.29,0,0,0-.54-.15.18.18,0,0,1-.12.13l.31.31a1.41,1.41,0,0,0,0-.58.24.24,0,0,0-.43-.06Z"/><path class="cls-5" d="M137.93,38.88a.68.68,0,0,0,.66,1.1c.79-.14.75-1.22.11-1.53a.54.54,0,1,0-.27,1c0-.2-.13-.25-.25-.16l.28,0-.11-.13c0-.22-.23-.46-.42-.25Z"/><path class="cls-5" d="M124.79,56.56a.67.67,0,0,0-.4.32.37.37,0,0,0,.13.49,1.11,1.11,0,0,0,1.54-.28.81.81,0,0,0-.69-1.22c-.59,0-.61.77-.13,1,0-.19-.06-.22-.23-.1l-.31,0,.34.45a.61.61,0,0,0,0-.46.22.22,0,0,0-.26-.14Z"/><path class="cls-5" d="M122.79,59.16a.93.93,0,0,0,.28,1.05.47.47,0,0,0,.72-.09,1.16,1.16,0,0,0,.17-.79.5.5,0,0,0-.36-.48l-.09,0a.39.39,0,0,0-.43.17c-.16.26,0,.5-.13.76l.67-.27v-.1c.16-.54-.65-.74-.84-.23Z"/><path class="cls-5" d="M119.18,61.15a1.71,1.71,0,0,1,.38,1.32c-.11.48.66.68.74.2a1.61,1.61,0,0,0-.86-1.87.24.24,0,0,0-.26.35Z"/><path class="cls-5" d="M117.41,65.45v-.07c.19.07.32-.2.19-.32a.86.86,0,0,0-.46-.22v.65l.29-.09a.34.34,0,0,0-.18-.65l-.29.09c-.34.11-.3.7.09.66a1.43,1.43,0,0,0,.29,0c.28-.1-.12,0-.06-.09-.05.07.08.15.12.07Z"/><path class="cls-5" d="M109.34,51.53a2.27,2.27,0,0,1,.46-.16.37.37,0,0,1,.42.06q.3.06.09.33s-.4-.51-.51-.58a.36.36,0,0,0-.52.21c-.26.9,1.28,1.35,1.62.51a.75.75,0,0,0-.34-.9,1.44,1.44,0,0,0-1.4.12c-.23.11-.06.51.18.41Z"/><path class="cls-5" d="M105.7,49.66h-.08a.34.34,0,0,0-.31.17.65.65,0,0,0,.37,1c.54.15.92-.28,1.13-.71a.42.42,0,0,0-.36-.62l-.71,0a.41.41,0,0,0,0,.82l.71,0-.35-.62c0,.06-.18.56-.11.36a.31.31,0,0,0-.29-.38Z"/><path class="cls-5" d="M114.31,36.6a2.57,2.57,0,0,0-.22-1.17l-.31.54c.38,0,.77.13,1.07-.15a.23.23,0,0,0,0-.31c-.26-.31-.7-.24-1.07-.26a.36.36,0,0,0-.36.36,2.38,2.38,0,0,0,.26,1.07c.12.32.65.31.63-.08Z"/><path class="cls-5" d="M114.63,35.49a1.3,1.3,0,0,0-.68.93.36.36,0,1,0,.71.1,3.62,3.62,0,0,1,.17-.87c0-.11-.11-.22-.2-.16Z"/><path class="cls-5" d="M119.37,36c-.26.36-.55.94-.21,1.32a.23.23,0,0,0,.27,0c.44-.2.39-.91.31-1.31a.2.2,0,0,0-.37,0Z"/><path class="cls-5" d="M119.6,35.85a.88.88,0,0,0,0,.79c.17.56,1,.32.88-.24-.08-.29-.16-.53-.45-.65a.29.29,0,0,0-.38.1Z"/><path class="cls-5" d="M123.55,37.57a1.85,1.85,0,0,0,0-1,.5.5,0,0,0-1,.13,1.72,1.72,0,0,0,.2.83c.11.31.67.4.72,0Z"/><path class="cls-5" d="M128.35,37.92l.1-.22c-.25-.23-.34-.25-.28-.07a1,1,0,0,0,.05.33.61.61,0,0,0,.47.46.42.42,0,0,0,.22-.8c.18.07.11,0,.07-.16a1,1,0,0,0-.09-.27.61.61,0,0,0-.49-.34.66.66,0,0,0-.53,1.07.28.28,0,0,0,.48,0Z"/><path class="cls-5" d="M128.73,37.91a1.77,1.77,0,0,0-.49.21l.46.26c0-.16-.1-.29-.12-.44a.48.48,0,0,0-.34-.44.43.43,0,0,0-.35,0,.47.47,0,0,0-.16.62c.3.69.87.64,1.2,0a.18.18,0,0,0-.2-.27Z"/><path class="cls-10" d="M95.6,25.35a1,1,0,0,0-1.31.3,1.59,1.59,0,0,0-.23,1.66,2.05,2.05,0,0,0,3.22.66c1-.78,1.45-2.69,0-3.28s-2.58,1.22-2.08,2.52c.35.89,1.81.51,1.46-.4,0-.09-.18-1,.17-.76.14.09-.13.57-.17.63a1.22,1.22,0,0,1-.53.45.83.83,0,0,1-1-.34c-.17-.43.27-.87.56-1.14a.19.19,0,0,0,0-.3Z"/><path class="cls-10" d="M97.28,28.28c.37-.23.71-.46.62-.94a.28.28,0,0,0-.47-.12c-.22.21-.21.5-.4.74s0,.44.25.32Z"/><path class="cls-10" d="M95.48,26.33c.19-.14.38-.27.56-.43.42-.37-.19-.94-.61-.61-.16.13-.29.26-.44.4-.32.31.11.91.49.64Z"/><path class="cls-10" d="M95.11,26a1,1,0,0,0,.19-.89c-.11-.74-1.39-.38-1,.44a.87.87,0,0,0,.57.52.29.29,0,0,0,.28-.07Z"/><path class="cls-10" d="M94.76,26.16c0,.16-.05.33-.06.5-.1,1.15,2,.76,1.36-.37a1.67,1.67,0,0,0-.18-.28c-.26-.39-1-.42-1.12.15Z"/><path class="cls-10" d="M96.7,25.21c-.29-1.15-2.24-.62-2.16.48a.5.5,0,0,0,.84.35,1.36,1.36,0,0,1,1-.46.3.3,0,0,0,.28-.37Z"/><path class="cls-10" d="M95,27.77c-.28,1.39,2.09,1.43,2.42.2a.49.49,0,0,0-.72-.56,1.62,1.62,0,0,1-.7.36c-.27,0-.52-.15-.8-.15a.21.21,0,0,0-.2.15Z"/><path class="cls-3" d="M52.1,39.41c.69-.61,1.27-1.38,1.91-2s1.32-1.33,2-2a48,48,0,0,1,4.29-3.49A51.37,51.37,0,0,1,64.86,29c.78-.44,1.58-.86,2.38-1.26a15.39,15.39,0,0,0,2.59-1.32.28.28,0,0,0-.22-.51A9.46,9.46,0,0,0,67,27c-.87.43-1.73.88-2.57,1.37a43.87,43.87,0,0,0-4.65,3.12A45.44,45.44,0,0,0,55.64,35q-1.05,1-2,2.07a14.69,14.69,0,0,0-1.77,2.1c-.1.17.13.33.27.21Z"/><path class="cls-3" d="M59.82,5.61a60.88,60.88,0,0,1,6.74.72A26.73,26.73,0,0,1,73,8.45a25.75,25.75,0,0,1,9.55,7.93c.67.92,1.45,1.82,2,2.8s1.13,2.07,1.65,3.11c.12.25.49.07.43-.18A15.93,15.93,0,0,0,85.56,19a26.37,26.37,0,0,0-1.42-2.93,24.07,24.07,0,0,0-4.26-5A25.21,25.21,0,0,0,67.7,5a17.78,17.78,0,0,0-8,0,.28.28,0,0,0,.07.55Z"/><path class="cls-3" d="M92.69,22.54c.28-.28.36-.67.65-.95a2.05,2.05,0,0,1,1.84-.47c1.23.27,1.86,1.45,2.86,2.07.3.18.57-.17.45-.45a4.34,4.34,0,0,0-4.1-2.45c-.82.13-2.67,1.22-1.84,2.25a.11.11,0,0,0,.14,0Z"/><path class="cls-3" d="M57,47.17a43.56,43.56,0,0,1,5.21-5.31c2.09-1.73,4.45-3,6.66-4.52.33-.23.14-.83-.29-.69-4.87,1.49-9.41,5.91-12,10.19-.15.26.22.56.42.33Z"/><path class="cls-3" d="M38.89,75.47a26.66,26.66,0,0,1-2.37-11.08,22.17,22.17,0,0,1,2.9-10.45c.49-.86,1-1.71,1.53-2.52s1.24-1.59,1.79-2.44a.23.23,0,0,0-.32-.31,15.56,15.56,0,0,0-3.69,4.1,17.83,17.83,0,0,0-2.36,5.08,22.84,22.84,0,0,0-.56,11.63,18.48,18.48,0,0,0,2.62,6.26.27.27,0,0,0,.46-.27Z"/><path class="cls-3" d="M64.92,88.18A16.44,16.44,0,0,1,75.26,89c.47.18.74-.54.33-.79a12,12,0,0,0-10.83-.44c-.22.11-.06.44.16.39Z"/><path class="cls-3" d="M51.19,83.86A7.64,7.64,0,0,0,54,86c.88.41,2.13,1,3.08.58.26-.11.47-.48.19-.71A7.84,7.84,0,0,0,54.65,85a23.19,23.19,0,0,1-3.22-1.43.19.19,0,0,0-.24.3Z"/><path class="cls-3" d="M50.45,119a17.13,17.13,0,0,1-3.94-8.42c0-.31-.55-.24-.54.07a11.83,11.83,0,0,0,4.19,8.64.21.21,0,0,0,.29-.29Z"/><path class="cls-1" d="M86.92,50.67c-3.14,5.09-1.73,12.27,1.79,16.73.31.4,1-.12.71-.55a18.22,18.22,0,0,1-3.07-8c-.36-2.87.24-5.25.9-8a.18.18,0,0,0-.33-.13Z"/><path class="cls-1" d="M82.14,50.24c-2.69,4.86-.89,13.42,2.78,17.32a.38.38,0,0,0,.63-.37,57.51,57.51,0,0,1-2.77-7.88c-.65-3.06-.12-6-.35-9a.16.16,0,0,0-.29-.08Z"/><path class="cls-1" d="M78.4,48.08a30.13,30.13,0,0,0,2,18.09c.16.36.76.1.64-.28A47.81,47.81,0,0,1,78.9,48.15c0-.29-.45-.36-.5-.07Z"/><path class="cls-2" d="M81.88,88.64C75.38,90.38,69,92.7,62.6,94.8c-1.85.62-3.92,1.14-4.94,3s-.68,4.15-.49,6.16c1.11,11.36,2.71,23.33,10.19,32.44.32.38.86-.17.55-.54-7-8.52-8.64-19.41-9.65-30-.2-2.11-.75-4.66-.1-6.74.91-2.93,5.3-3.6,7.87-4.48,5.32-1.83,10.74-3.43,16-5.51.25-.1.16-.5-.12-.42Z"/><path class="cls-2" d="M67.05,135.16A78.51,78.51,0,0,1,62.7,116.7c-.32-2.93-.5-5.89-.61-8.84s.3-6.2-.38-9a.67.67,0,0,0-1.29,0c-.61,2.84-.15,6.14,0,9,.13,3.4.36,6.79.8,10.16.81,6,2.36,12,5.55,17.27.1.16.38.06.31-.13Z"/><path class="cls-2" d="M62.24,99.85c1.14.09,2.69.32,3.75-.19a.62.62,0,0,0-.14-1.13,4.23,4.23,0,0,0-1.8.13c-.64.13-1.27.28-1.91.46a.37.37,0,0,0,.1.73Z"/><path class="cls-2" d="M64.74,100.38c1.66-1.27,3.43-2.38,5.18-3.52,1.4-.91,3.2-1.64,4.18-3a.41.41,0,0,0-.35-.61c-1.79.2-3.39,1.59-4.83,2.61-1.66,1.17-3.2,2.5-4.78,3.78-.43.35.16,1.12.6.78Z"/><path class="cls-2" d="M64.7,99.32a23.36,23.36,0,0,1,4.49-3.48c1.33-.8,3.27-1.2,4.3-2.33a.51.51,0,0,0-.22-.84c-1.68-.31-3.74,1.11-5,2.06A15.76,15.76,0,0,0,64.29,99c-.16.25.2.52.41.31Z"/><path class="cls-2" d="M73.83,92.36a67.71,67.71,0,0,0-10.53,3.5c-1.7.72-3.75,1.72-3.55,3.85a.51.51,0,0,0,.86.35c3.4-3.69,9.13-4.65,13.5-7a.37.37,0,0,0-.28-.68Z"/><path class="cls-2" d="M65.8,96.75c-.93.39-1.92.61-2.87,1A26.39,26.39,0,0,0,60.29,99c-1,.55-.12,2,.91,1.55a25,25,0,0,0,2.53-1.4c.82-.51,1.55-1.17,2.37-1.67.36-.22.12-.88-.3-.71Z"/><path class="cls-2" d="M64.93,95.63c-5.86-1.32-7.8,5.05-7.24,9.72.42,3.47,1.27,6.92,2,10.34A104.49,104.49,0,0,0,62,126.83c.26.82,1.65.73,1.57-.21-.45-5.07-1.86-10.17-2.86-15.16a50.64,50.64,0,0,1-1.4-7.88c-.12-3.17,1.64-7.42,5.49-7.11.48,0,.58-.74.11-.84Z"/><path class="cls-2" d="M61,110.12c.5-3.31-.39-7.09-.83-10.39-.13-.94-1.75-.72-1.66.22.25,2.72.24,5.56,1,8.18a.48.48,0,0,0,.94-.13c.35-2.64-.1-5.39-.28-8l-1.66.23c.47,3.22.66,7,2,10a.24.24,0,0,0,.44-.06Z"/><path class="cls-2" d="M61.78,125.06a1.45,1.45,0,0,0,.26.71.23.23,0,0,0,.38-.16,1.44,1.44,0,0,0-.22-.72c-.11-.25-.48-.07-.42.17Z"/><path class="cls-2" d="M94.23,31.94a4.53,4.53,0,0,1,1.42-.17c.58,0,1,.39,1.48.55a.44.44,0,0,0,.49-.64,2.25,2.25,0,0,0-1.88-.84,2.56,2.56,0,0,0-1.06.19c-.34.13-.42.3-.64.57s0,.4.19.34Z"/><path class="cls-2" d="M125.74,24.21A1.5,1.5,0,0,0,124.36,26a1.54,1.54,0,0,0,2,1.19.47.47,0,0,0-.13-.91,1,1,0,0,1-.89-.47c-.19-.45.22-.83.56-1.05a.28.28,0,0,0-.14-.52Z"/><path class="cls-2" d="M54.41,50.19A58.08,58.08,0,0,1,63,48.46c2.66-.25,5.29,0,8,0a.28.28,0,0,0,.07-.54c-5.23-1.29-11.91-.33-16.83,1.75-.33.14-.09.64.23.56Z"/><path class="cls-2" d="M63.63,8.91c.41,1.54,2.29,2.8,3.16,4.15a28.68,28.68,0,0,1,2.49,5.88c.15.41.86.39.81-.11a14.26,14.26,0,0,0-2.51-6.23C66.7,11.28,65.35,9,63.67,8.87a0,0,0,0,0,0,0Z"/><path class="cls-2" d="M41.68,77.9a9,9,0,0,0,1.46,2.2A7.22,7.22,0,0,0,45.28,82a.31.31,0,0,0,.37-.48c-.57-.66-1.35-1.17-2-1.79s-1.14-1.35-1.74-2c-.1-.11-.33,0-.27.15Z"/><path class="cls-2" d="M47.38,73.44a1.37,1.37,0,0,0-.18-.71.2.2,0,0,0-.36.1,1.39,1.39,0,0,0,.2.71.18.18,0,0,0,.34-.1Z"/><path class="cls-2" d="M49.4,92.15a75.41,75.41,0,0,0-3.83,12.49c-.1.44.58.63.69.19,1-4.24,2.34-8.34,3.51-12.52.06-.22-.28-.37-.37-.16Z"/><path class="cls-2" d="M52.72,127.24a18.83,18.83,0,0,0,2.18,2.1,9.09,9.09,0,0,0,2.15,1.72c.17.07.38-.09.27-.27a9.54,9.54,0,0,0-2.08-2A20.07,20.07,0,0,0,53,126.93c-.2-.12-.37.15-.24.31Z"/><path class="cls-11" d="M97,22.31c9.94-.16,19.89-1,29.81-1.57,1.61-.1,6.62-1.26,8-.48l2.79,3.88c-.57,1.46-1.17,2.92-1.8,4.36C133.89,33,132,37.48,130,42c-.21.49.52.93.74.43,2.38-5.61,5.21-11.21,7.21-17,.63-1.79,1.45-4.34-.55-5.61-1.75-1.12-4.74-.28-6.62-.17l-11.93.73c-7.29.45-14.59.8-21.86,1.56-.22,0-.23.35,0,.35Z"/><path class="cls-11" d="M121.12,57.09C113,62.5,104.7,66.52,94.84,67.26c-9,.68-21.1-.5-25.38-9.68-.18-.4-.84-.12-.71.3,2.94,8.88,14.88,10.47,22.89,10.41,10.53-.08,21.9-3.67,29.67-11a.15.15,0,0,0-.19-.23Z"/><path class="cls-11" d="M73.17,63c-7.38,4.61-14,3-19.33-3.59-.2-.26-.51.07-.41.31,3.26,7.58,14.26,9.21,19.92,3.52a.15.15,0,0,0-.18-.24Z"/><path class="cls-11" d="M59.41,63a11.68,11.68,0,0,0-10.56,11.3c0,5.63,4.84,11.29,10.56,11.44a.28.28,0,0,0,.08-.54c-5.13-1.51-9.77-5-9.79-10.9,0-5.56,4.55-10,9.74-11.05.14,0,.11-.27,0-.25Z"/><path class="cls-11" d="M69.14,23.55a74.35,74.35,0,0,0-33.92,31C27.15,69.29,36.48,81.1,48.41,89.87c.48.36,1-.46.47-.81C42.53,84.4,35.94,79,33.61,71.13S35,55.9,39.52,49.52c7.87-11,18.2-18.93,29.82-25.63.23-.13,0-.44-.2-.34Z"/><path class="cls-11" d="M48.54,88.89c-12.72,19.34.68,44.82,22.39,48.81a.5.5,0,0,0,.38-.9c-6.22-4.44-7.68-12.05-7.8-19.23-.06-3.26.12-6.51,0-9.77-.09-3-1.93-6.54,2.22-6.45a.49.49,0,0,0,0-1l-3.44-.07a.5.5,0,0,0-.48.62c1.55,8.72-.56,17.82,1.93,26.41a21.22,21.22,0,0,0,3,6.48c.27.37,2.9,2.85,2.89,3,0-.66-3.18-1.21-4-1.5-19.44-7-25.4-28.6-16.71-46.19a.26.26,0,0,0-.44-.26Z"/><path class="cls-11" d="M66.12,100.63c5.18-5.2,10.15-9.21,17.43-11a.48.48,0,0,0,.11-.87,23.76,23.76,0,0,0-23.84-3c-.57.24-.32,1.19.26,1A23,23,0,0,1,73.34,85.1a22.34,22.34,0,0,1,6.39,2.21,20.8,20.8,0,0,1,2.35,1.44c-.21.59-.71.83-1.51.72-2.6,1.88-6.14,2.59-8.84,4.64a22.21,22.21,0,0,0-5.84,6.34.15.15,0,0,0,.23.18Z"/><path class="cls-11" d="M70.93,24.11l-.31-.31s0,0,0,0l.3.3s0,0,0,0Z"/><path class="cls-11" d="M70.29,23.7c-1,.17-3.13-8.81-4-10.21C64,10,61.05,8.64,57.94,6.21c-.48-.37-1.33-.12-1.17-.76.27-1,5.86-1.52,6.36-1.55A20.81,20.81,0,0,1,74,6.46C80,9.69,83.79,15.2,87,21c.28.51,1,.06.77-.45C81.91,8.52,68.4-2,54.94,5.34a.49.49,0,0,0,.11.89c8.56,2.61,12.35,9.52,13.68,17.83a.08.08,0,0,0,.09.06l1.48-.38s0,0,0,0Z"/><path class="cls-11" d="M86.69,21.07a1.51,1.51,0,0,1-.3,0s0,0,0,0a1.51,1.51,0,0,1,.3,0s0,0,0,0Z"/><path class="cls-11" d="M91,23.31c.91-2.72,4-3.31,6.37-2.09,1.76.91,2.82,2.5,4.13,3.9a.36.36,0,0,0,.56-.44c-1.35-2.22-3.74-4.62-6.48-4.84-2.22-.17-4.6,1-5,3.37a.19.19,0,0,0,.37.1Z"/><path class="cls-11" d="M87.59,21.1c1.47.33,3.34.45,4.64-.49a.12.12,0,0,0-.09-.21c-.8.15-1.54.47-2.36.57a9.27,9.27,0,0,1-2.17,0c-.07,0-.08.1,0,.11Z"/><path class="cls-11" d="M90.44,29.61c1.4-2.18,2.25-4.44,5.24-4.8A6,6,0,0,1,102,29.39a.41.41,0,0,0,.79-.22A6.66,6.66,0,0,0,95.62,24c-2.46.34-5.75,2.79-5.29,5.58,0,0,.08,0,.11,0Z"/><path class="cls-11" d="M94.2,25.51a1.84,1.84,0,0,0,.73,3.4,1.37,1.37,0,0,0,1.37-.42.22.22,0,0,0-.19-.34,7.52,7.52,0,0,1-1,.15,1.54,1.54,0,0,1-1-.43,1.57,1.57,0,0,1,.2-2.15.14.14,0,0,0-.17-.21Z"/><path class="cls-11" d="M97.84,25.63c-.06.27.09.49.14.76a2.1,2.1,0,0,1-.2,1.35,1.86,1.86,0,0,1-2.18.83.32.32,0,0,0-.17.62,2.48,2.48,0,0,0,2.78-1,2.29,2.29,0,0,0,.35-1.55c-.06-.39-.2-1-.64-1.07,0,0-.07,0-.08,0Z"/><path class="cls-11" d="M92.42,30.17a5.14,5.14,0,0,1,3.16-1.46,5.72,5.72,0,0,1,3,.87.27.27,0,0,0,.33-.43c-1.66-1.92-5.48-1.2-6.59,1,0,.05,0,.09.06.06Z"/><path class="cls-11" d="M91.67,32.51c-.24.49-.49,1-.72,1.46a2.57,2.57,0,0,0-.42,1.3.24.24,0,0,0,.4.16,2.53,2.53,0,0,0,.56-1.23c.17-.52.31-1,.46-1.57a.16.16,0,0,0-.28-.12Z"/><path class="cls-11" d="M94.15,32.57a14.24,14.24,0,0,0-.35,1.7,3.21,3.21,0,0,0-.09,1.44.28.28,0,0,0,.49.07,2.87,2.87,0,0,0,.21-1.42,12.77,12.77,0,0,0,0-1.75.13.13,0,0,0-.25,0Z"/><path class="cls-11" d="M97.37,32.23c-.21.57-.44,1.13-.64,1.71s-.44.92-.25,1.44a.19.19,0,0,0,.28.11c.44-.32.47-.75.6-1.26s.29-1.25.44-1.88a.22.22,0,0,0-.43-.12Z"/><path class="cls-11" d="M99.21,32.24c-.13.7-.26,1.39-.43,2.08a3.23,3.23,0,0,0-.22,1.7.28.28,0,0,0,.5.06,2.87,2.87,0,0,0,.32-1.54c.07-.73.17-1.45.28-2.18,0-.28-.39-.41-.45-.12Z"/><path class="cls-11" d="M129.48,23.85c-1.29-1.16-3.32.23-3.41,1.73a.31.31,0,0,0,.31.31,4.84,4.84,0,0,0,3.56-1.51.33.33,0,0,0-.33-.55,11.3,11.3,0,0,0-1.78.69c-.25.14-.06.45.18.42a10.85,10.85,0,0,0,1.78-.47l-.32-.56a4.18,4.18,0,0,1-3.09,1.36l.31.31c0-1.36,1.53-1.81,2.6-1.4.18.07.33-.2.19-.33Z"/><path class="cls-11" d="M89.47,67.48c-.88-3-2.12-5.48-2.37-8.61A25.47,25.47,0,0,1,88.23,50c.09-.36-.47-.62-.62-.26C85.37,55,85.4,63,89.36,67.55c0,0,.13,0,.11-.07Z"/><path class="cls-11" d="M86.4,67.29c-2.69-6.15-3.93-11-2.72-17.7a.29.29,0,0,0-.55-.15c-2,5.67-1.14,13.49,3,18.07.15.17.36,0,.29-.22Z"/><path class="cls-11" d="M81.5,66.62c-.35-3.19-1.31-6.27-1.68-9.47a89.3,89.3,0,0,1-.36-9.68.35.35,0,0,0-.69,0c-.6,6-.17,13.73,2.54,19.21a.1.1,0,0,0,.19-.06Z"/><path class="cls-11" d="M96.38,62.27a34.69,34.69,0,0,0,18.09-5.08c.23-.14.09-.57-.19-.46-2.92,1.16-5.72,2.51-8.75,3.39s-6.1,1.29-9.18,1.91a.12.12,0,0,0,0,.24Z"/><path class="cls-11" d="M70.46,35.43C63.27,36.51,57,43.19,53.71,49.3a.36.36,0,0,0,.4.52A40.5,40.5,0,0,1,70,48.24c.43,0,.53-.69.1-.76a31.64,31.64,0,0,0-9.37-.06,33.52,33.52,0,0,0-4.08.83c-2,.54-2.21.86-.94-1.11a28.16,28.16,0,0,1,6.42-7c2.6-2,5.48-3.11,8.33-4.66.06,0,0-.1,0-.09Z"/><path class="cls-11" d="M70.51,37.71A8.46,8.46,0,0,0,69.9,43a.13.13,0,0,0,.26,0,15.15,15.15,0,0,1,.49-5.15c0-.08-.11-.14-.14-.06Z"/><path class="cls-11" d="M42.71,50.21a17.86,17.86,0,0,0-6.22,11.57,18.86,18.86,0,0,0,.44,7c.56,2.17,1.49,4.83,3.18,6.36a.23.23,0,0,0,.36-.27c-.94-2.14-2.21-4-2.82-6.28A18.13,18.13,0,0,1,37.14,62c.5-4.54,2.71-8.27,5.76-11.56a.14.14,0,0,0-.19-.2Z"/><path class="cls-11" d="M42.18,78l.07.09c.25.3.74,0,.74-.31a.44.44,0,0,0-.74-.3l-.07.08a.33.33,0,0,0,0,.44Z"/><path class="cls-11" d="M43.66,80.77a.53.53,0,0,0,.41.43c.23.08.41-.17.37-.38a.48.48,0,0,0-.32-.4.32.32,0,0,0-.46.35Z"/><path class="cls-11" d="M46.65,84.09a.7.7,0,0,0,1.18,0c.4-.56-.11-1.25-.61-1.52a.21.21,0,0,0-.29.28,2.18,2.18,0,0,1,.33.62c0,.08-.1.44-.21.33s-.56.06-.4.31Z"/><path class="cls-11" d="M64.55,6.48A19.72,19.72,0,0,1,81.57,19c.13.3.6.19.51-.14A18.34,18.34,0,0,0,64.55,6.24a.12.12,0,0,0,0,.24Z"/><path class="cls-11" d="M130.82,30.48a5.33,5.33,0,0,1-.9,3.24c-.1.15.12.32.23.19a4.14,4.14,0,0,0,1-3.43c0-.2-.34-.21-.32,0Z"/><path class="cls-11" d="M130.06,42.7a9.7,9.7,0,0,1-1.88,4.85l.28.16a9,9,0,0,0,.25-3.86c0-.17-.28-.12-.29,0a21.34,21.34,0,0,1-.28,3.74.16.16,0,0,0,.3.12,7.94,7.94,0,0,0,1.76-5,.07.07,0,0,0-.14,0Z"/><path class="cls-11" d="M128.76,43.31a20.79,20.79,0,0,1-3.47,3.42l.27.21a8,8,0,0,0,1-4.79c0-.18-.27-.12-.29,0a12.49,12.49,0,0,1-1,4.58c-.09.18.11.32.27.2a15.9,15.9,0,0,0,3.34-3.56c.05-.08-.07-.17-.12-.1Z"/><path class="cls-11" d="M126.6,42c-1.81,1-3.46,2.17-5.31,3.06l.22.28a10.1,10.1,0,0,0,2.3-4c0-.17-.21-.29-.29-.12a14.87,14.87,0,0,1-2.26,3.87.17.17,0,0,0,.21.27,19.7,19.7,0,0,0,5.23-3.23c.07-.06,0-.17-.1-.13Z"/><path class="cls-11" d="M123.35,41.54c-1.12.76-2.22,1.57-3.31,2.39l.21.15a4.55,4.55,0,0,0-.4-3.92.17.17,0,1,0-.29.17A4.34,4.34,0,0,1,120,44c0,.11.11.23.2.16,1.1-.83,2.19-1.66,3.24-2.54,0,0,0-.13-.07-.09Z"/><path class="cls-11" d="M119.42,40.6c-1.29.73-2.55,1.53-3.82,2.31l.25.25a5.45,5.45,0,0,0,.89-3.31c0-.23-.37-.23-.36,0a5.25,5.25,0,0,1-.84,3.13c-.1.15.09.34.25.25,1.26-.79,2.54-1.56,3.77-2.4a.13.13,0,0,0-.14-.23Z"/><path class="cls-11" d="M116.43,39.94c-1.39.92-2.74,1.91-4.09,2.89l.25.19a5.63,5.63,0,0,0-.11-3.92c-.07-.15-.3,0-.26.11a7,7,0,0,1,0,3.72.18.18,0,0,0,.25.2c1.36-1,2.72-2,4-3,.1-.07,0-.24-.13-.17Z"/><path class="cls-11" d="M112.52,39.44c-.6.61-1.17,1.24-1.77,1.84l.25.07c-.07-.4-.15-.79-.23-1.18a2.4,2.4,0,0,0-.27-1c0-.05-.12-.05-.13,0a2,2,0,0,0,.1,1c.08.43.16.85.25,1.28a.14.14,0,0,0,.24.06c.53-.67,1.09-1.31,1.63-2,0,0,0-.11-.07-.07Z"/><path class="cls-11" d="M110.39,39.14c-.5.41-1,.84-1.48,1.24l.28.11a6,6,0,0,0,0-1.58.12.12,0,0,0-.24,0,6,6,0,0,0-.14,1.58.17.17,0,0,0,.29.12c.44-.46.92-.89,1.37-1.34a.09.09,0,0,0-.13-.13Z"/><path class="cls-11" d="M119.18,54.84s0,0,0,0,0,0,0,0Z"/><path class="cls-11" d="M120,56.22a9.73,9.73,0,0,0,4-2.49l-.3-.23a18,18,0,0,1-3.15,4.11c-.12.12,0,.35.18.25a11.4,11.4,0,0,0,3.3-4.17.19.19,0,0,0-.3-.23A14.27,14.27,0,0,1,119.9,56c-.1,0,0,.22.08.19Z"/><path class="cls-11" d="M119.84,55.9a8,8,0,0,0,2.74-3.32.17.17,0,0,0-.27-.21,13.07,13.07,0,0,1-3.59,2c-.17.07,0,.3.12.28a8.1,8.1,0,0,0,3.71-2l-.27-.21a13.52,13.52,0,0,1-2.5,3.4s0,.12.06.09Z"/><path class="cls-11" d="M119.07,54.07a8.25,8.25,0,0,0,2.47-3.72c.06-.15-.16-.25-.26-.15a9.84,9.84,0,0,1-1.81,1.48,16.23,16.23,0,0,1-2.14,1,.15.15,0,0,0,.08.29,7.69,7.69,0,0,0,4.09-2.5l-.26-.15A9.71,9.71,0,0,1,119,54s0,.11.07.07Z"/><path class="cls-11" d="M117.74,52l-.26.13s0,0,0,0l.26-.13s0,0,0,0Z"/><path class="cls-11" d="M116.78,52.66a11.48,11.48,0,0,0,2-4.51c0-.18-.18-.33-.31-.19a5.27,5.27,0,0,1-4.16,1.82.2.2,0,0,0,0,.4,5.69,5.69,0,0,0,4.43-2l-.32-.18a12.7,12.7,0,0,1-1.88,4.49c-.09.13.11.24.19.12Z"/><path class="cls-11" d="M115.14,49.1c-.18.17-.36.33-.53.51,0,0,0,0,0,0,.18-.17.35-.35.52-.53Z"/><path class="cls-11" d="M114.34,49.94a8,8,0,0,0,3.44-4.4c.07-.19-.18-.3-.31-.18a7.92,7.92,0,0,1-4.58,1.88c-.2,0-.13.31,0,.32a6.79,6.79,0,0,0,4.8-1.93l-.31-.19a8.42,8.42,0,0,1-3.21,4.26c-.14.1,0,.33.13.24Z"/><path class="cls-11" d="M112.62,47.35c.52-.44,1-.88,1.56-1.33.1-.1,0-.31-.12-.29l-1.21.12A2.47,2.47,0,0,0,112,46c-.09,0-.06.19,0,.21a2.59,2.59,0,0,0,1,0l1.11-.14-.12-.28c-.5.46-1,.94-1.48,1.42-.1.1.05.24.16.15Z"/><path class="cls-11" d="M112.09,46.28c.53-.76,1-1.54,1.6-2.26a.17.17,0,0,0-.21-.26,19,19,0,0,0-2.58,1.43c-.13.1-.06.37.12.3a20.33,20.33,0,0,0,2.63-1.44l-.23-.23c-.46.81-1,1.57-1.51,2.35a.11.11,0,0,0,.18.11Z"/><path class="cls-11" d="M111.25,44.89a4.83,4.83,0,0,1,.13-2.07c0-.14-.13-.3-.26-.2a6.06,6.06,0,0,0-1.4,1.11.13.13,0,0,0,.14.19,6.36,6.36,0,0,0,1.44-1l-.27-.21a5.55,5.55,0,0,0-.11,2.26c0,.22.36.12.33-.09Z"/><path class="cls-11" d="M109.84,43.91c.23-.79.38-1.61.54-2.41a.2.2,0,0,0-.32-.19c-.48.43-1,.84-1.43,1.28-.17.16.08.4.26.26.49-.41,1-.85,1.44-1.27L110,41.4c-.13.82-.27,1.65-.33,2.48a.08.08,0,0,0,.16,0Z"/><path class="cls-11" d="M109,42.62a9.83,9.83,0,0,1-.11-1.71c0-.15-.16-.21-.26-.16-.47.22-1.09.64-1.16,1.19a.12.12,0,0,0,.18.1,3.28,3.28,0,0,0,.43-.48,2.74,2.74,0,0,1,.72-.5l-.26-.15a3.3,3.3,0,0,0,.32,1.75c0,.05.14,0,.14,0Z"/><path class="cls-11" d="M130.23,42.62c-.61-.92-1.94,0-1.88.87a.17.17,0,0,0,.33,0,.88.88,0,0,1,.69-.88,1.63,1.63,0,0,1,.79.1.06.06,0,0,0,.07-.09Z"/><path class="cls-11" d="M128.8,43.08c-.24-.65-.59-1.4-1.32-1.59a1,1,0,0,0-1.29.67.14.14,0,0,0,.26.11A.89.89,0,0,1,127.7,42a3.08,3.08,0,0,1,.85,1.14c.08.13.31,0,.25-.1Z"/><path class="cls-11" d="M126.74,41.72c-.67-1.09-3-1.37-3.59-.08a.11.11,0,0,0,.15.15,3.16,3.16,0,0,1,1.57-.58,2.34,2.34,0,0,1,1.63.7c.13.11.34,0,.24-.19Z"/><path class="cls-11" d="M123.81,41.34a4.76,4.76,0,0,0-4.29-1.06.15.15,0,0,0,0,.3,12.29,12.29,0,0,1,2.26.17,16.27,16.27,0,0,1,1.89.77c.1,0,.17-.1.1-.18Z"/><path class="cls-11" d="M120.33,40.31c-.78-1-2.89-1.48-3.83-.41-.06.07,0,.19.09.16a4.68,4.68,0,0,1,1.85-.35,3.45,3.45,0,0,1,1.72.77c.1.08.24-.07.17-.17Z"/><path class="cls-11" d="M117,40c-.75-1.49-3.41-1.88-4.64-.8-.11.1,0,.32.15.26a4.2,4.2,0,0,1,2.39-.39,4.75,4.75,0,0,1,2,1.07c.09.06.17-.06.13-.14Z"/><path class="cls-11" d="M112.71,39.47c.07-1.28-2.18-1.56-2.44-.32a.16.16,0,0,0,.27.15c.32-.3.56-.62,1.06-.56s.7.41.94.78a.09.09,0,0,0,.17-.05Z"/><path class="cls-11" d="M110.72,39.17a.9.9,0,0,0-1.78,0c0,.13.17.17.23.06.15-.27.32-.54.68-.55a.86.86,0,0,1,.74.5.07.07,0,0,0,.13,0Z"/><path class="cls-11" d="M107,41.79c-.17,1,1.28,1.91,2.06,1.24.09-.08,0-.22-.12-.2a1.42,1.42,0,0,1-1.16-.06,1.39,1.39,0,0,1-.66-1,.06.06,0,0,0-.12,0Z"/><path class="cls-11" d="M108.59,43.1a1,1,0,0,0,.33,1,.89.89,0,0,0,1.12,0s0-.15-.06-.14c-.31,0-.55.13-.84,0a.81.81,0,0,1-.4-.85c0-.09-.13-.1-.15,0Z"/><path class="cls-11" d="M109.86,44c-.26.89.81,1.8,1.58,1.12.09-.08,0-.24-.13-.21a1,1,0,0,1-.88,0A.86.86,0,0,1,110,44c0-.09-.14-.11-.16,0Z"/><path class="cls-11" d="M110.72,45.41c-.37,1.07,1.32,1.61,1.57.56,0-.1-.11-.19-.18-.11-.21.24-.42.46-.77.37a.68.68,0,0,1-.5-.8c0-.07-.1-.08-.12,0Z"/><path class="cls-11" d="M111.92,46.29a.76.76,0,0,0-.07,1.17.78.78,0,0,0,1.18-.29c0-.11-.12-.18-.19-.11a.66.66,0,0,1-.68.27.58.58,0,0,1-.17-1c.06-.06,0-.13-.07-.08Z"/><path class="cls-11" d="M112.08,47.39a2.08,2.08,0,0,0,.65,2.06,2,2,0,0,0,2.21.27.14.14,0,0,0-.1-.25,2.11,2.11,0,0,1-2-.35,2,2,0,0,1-.6-1.71c0-.09-.14-.11-.16,0Z"/><path class="cls-11" d="M114.38,49.88c-.41,1.63,1.53,3.59,3.18,2.84.13-.06,0-.25-.08-.26a3,3,0,0,1-2.1-.55,2.9,2.9,0,0,1-.91-2s-.08-.07-.09,0Z"/><path class="cls-11" d="M117,52.45a1.82,1.82,0,0,0,.89,1.84,1.65,1.65,0,0,0,2-.23c0-.07,0-.17-.11-.15-.61.15-1.15.4-1.76.07a1.81,1.81,0,0,1-.86-1.5c0-.11-.19-.16-.21,0Z"/><path class="cls-11" d="M118.93,54.23a1.34,1.34,0,0,0,.3,1.91c.51.32,1.65.3,1.83-.42,0-.08-.06-.19-.16-.15-.45.18-.78.53-1.32.3a1.14,1.14,0,0,1-.51-1.55.08.08,0,0,0-.14-.09Z"/><path class="cls-11" d="M120,56.19a.94.94,0,0,0,0,1.33.86.86,0,0,0,1.34-.16c0-.09-.07-.18-.15-.15-.3.08-.56.26-.87.08a.71.71,0,0,1-.19-1c.06-.11-.08-.24-.17-.14Z"/><path class="cls-11" d="M130.81,41.07a19.26,19.26,0,0,1-4.36-1c-.87-.41-1.48-.1-2.45-.11-.06,0-.08.1,0,.11a3.84,3.84,0,0,0,.76,0,4.78,4.78,0,0,1,2.08.41,17.86,17.86,0,0,0,3.93.76c.1,0,.14-.13.05-.15Z"/><path class="cls-11" d="M123.75,40.33c-4.91-2.56-10.15-2.76-15.55-2.47-1.12.06-3.56-.92-4.31.07s1.15,2.29,1.4,2.74c0,.06.11,0,.08-.05s-.67-1-.67-1c-.28-2.6,1-1.38,1.82-1.55a30.45,30.45,0,0,1,5.57-.24,33.09,33.09,0,0,1,11.65,2.53,0,0,0,0,0,0,0Z"/><path class="cls-11" d="M105,40.63a3.51,3.51,0,0,1,1.1,1.76c.16.5.38.61.77.94.61.51.87,1.57,1.76,1.67a.06.06,0,0,0,0-.12c-.64-.15-.86-.69-1.22-1.17s-.64-.62-.92-1c-.57-.76-.56-1.59-1.47-2.12,0,0-.06,0,0,0Z"/><path class="cls-11" d="M108.78,45.18c1.11,1.41,1.85,3.6,3.64,4.3.07,0,.11-.08,0-.12-1.69-.88-2.51-2.77-3.63-4.23,0-.05-.09,0-.06,0Z"/><path class="cls-11" d="M113.81,51.5a7.51,7.51,0,0,1,1,1.57,2.34,2.34,0,0,0,.82.65c.57.39.61,1.14,1,1.65a2.57,2.57,0,0,0,1.3.82.09.09,0,0,0,0-.18,2.74,2.74,0,0,1-1.73-1.85c-.14-.37-.14-.39-.43-.59s-.65-.26-.89-.6-.28-.5-.43-.75a2.21,2.21,0,0,0-.73-.79s-.09,0,0,.07Z"/><path class="cls-11" d="M118.13,56.22c1.11,0,0,2.45,1.35,2.23.11,0,.07-.16,0-.17-1-.11,0-2.35-1.33-2.19-.08,0-.08.13,0,.13Z"/><path class="cls-11" d="M134.37,50.44h-.18a0,0,0,0,0,0,0l.09.08c.25.23.25-.41,0-.18l-.09.08a0,0,0,0,0,0,0h.18s0,0,0,0Z"/><path class="cls-11" d="M136.52,46.66c5.84,3.79,12,7.37,18,10.86a.2.2,0,0,0,.2-.35,141.5,141.5,0,0,0-18-10.83.19.19,0,0,0-.19.32Z"/><path class="cls-11" d="M155.92,55.64c-6.22,5.55-12,11.59-17.66,17.73-.6.65-3.13,4.23-4.08,3.78a14.38,14.38,0,0,1-1.12-2.71l-1.32-3.17c-1.69-4.06-3.37-8.13-5.08-12.19-.12-.28-.59-.16-.47.13,2.61,6.33,5.27,12.65,7.9,19a.25.25,0,0,0,.41.11c6.89-7.8,14.24-15.12,21.62-22.46.12-.12-.07-.3-.2-.19Z"/><path class="cls-11" d="M125.74,52.47c.58.22,1.27.43,1.75-.12a.91.91,0,0,0,0-1.27.21.21,0,0,0-.29.29.56.56,0,0,1-.29.89,2.23,2.23,0,0,1-1.12.06.08.08,0,0,0,0,.15Z"/><path class="cls-11" d="M130.08,56.52a2.62,2.62,0,0,0,3-.52,2.81,2.81,0,0,0,.82-1.41c.09-.41-.25-1.8.27-2a.11.11,0,0,0,0-.21c-1-.06-.6,1.32-.62,1.85a2.51,2.51,0,0,1-3.33,2.08c-.12,0-.21.15-.09.2Z"/><path class="cls-11" d="M134.11,53a2.34,2.34,0,0,0,3.35-2.86c-.1-.28-.54-.16-.44.12a2,2,0,0,1-2.76,2.5c-.17-.08-.31.15-.15.24Z"/><path class="cls-11" d="M137.24,50.9a2,2,0,0,0,1.33-1.54c.1-.56,0-1.55-.66-1.72a.12.12,0,0,0-.15.15c.17.5.48.81.43,1.39a1.57,1.57,0,0,1-1,1.42c-.19.06-.12.36.08.3Z"/><path class="cls-11" d="M131.68,46.44a6.91,6.91,0,0,0,2-.14c.11,0,.08-.17,0-.18a6.85,6.85,0,0,0-2,.21c-.07,0,0,.11,0,.11Z"/><path class="cls-11" d="M142.9,49.69a1.34,1.34,0,0,0-1.66,1.11,1.31,1.31,0,0,0,1.14,1.57,1.75,1.75,0,0,0,1.91-.91c.29-.77-.7-.91-.66-.4a.07.07,0,0,0,.14,0c-.08.28.37.34.1.63a1.86,1.86,0,0,1-.26.23,2.21,2.21,0,0,1-.55.23,1.48,1.48,0,0,1-1.33-.31,1.25,1.25,0,0,1,1.14-2,.06.06,0,0,0,0-.12Z"/><path class="cls-11" d="M134.92,59.79a1.24,1.24,0,0,0-.38,1.72.11.11,0,0,0,.12.05,4.4,4.4,0,0,0,3-2.06.13.13,0,0,0-.08-.18c-.79-.28-2.09-.65-2.56.33-.24.49-.13,1.25.51,1.32.07,0,.11-.12,0-.15a.8.8,0,0,1-.13-1.29c.53-.52,1.48-.18,2.07,0l-.07-.19a4.13,4.13,0,0,1-1.69,1.6c-.16.08-.86.46-1.07.31-.42-.31.1-1.15.37-1.33.1-.06,0-.22-.1-.16Z"/><path class="cls-11" d="M142.24,59.13c-.4.11-.94.1-1.13.54a1.05,1.05,0,0,0,.09.85c.54,1,1.7.41,2.26-.22s1.07-1.79-.12-1.94a3.2,3.2,0,0,0-3,1.49.19.19,0,0,0,.12.28c.3.13.59.25.89.36a.13.13,0,0,0,.1-.23l-.84-.48.07.26a3,3,0,0,1,1.47-1.16,2,2,0,0,1,.86-.16c.62.1.71.52.42,1s-1.21,1.42-1.87.85a.83.83,0,0,1-.28-.78c.1-.31.67-.43.94-.52a.06.06,0,1,0,0-.11Z"/><path class="cls-11" d="M147.69,58.26a1.62,1.62,0,0,0,1.15-.74.2.2,0,0,0,0-.23c-.93-.78-3-.62-3.21.81a.12.12,0,0,0,.23.09,1.88,1.88,0,0,1,2.71-.63l0-.23a1.25,1.25,0,0,1-.92.57c-.24,0-.14.4.1.36Z"/><path class="cls-11" d="M136.6,66.8c-.7.19-1.79,1-1.12,1.8s2,.21,2.49-.42a1.44,1.44,0,0,0-.45-2.12c-.7-.3-1.8.32-1.5,1.14,0,.1.22.13.24,0a.87.87,0,0,1,1.05-.82,1.06,1.06,0,0,1,.43,1.5,1.61,1.61,0,0,1-1.56.69.59.59,0,0,1-.5-.89,1.4,1.4,0,0,1,1-.65.12.12,0,0,0-.06-.23Z"/><path class="cls-11" d="M129.29,67.59c.8-.09,1.92-.2,2.46.55a1.18,1.18,0,0,1,0,1.29,1.69,1.69,0,0,1-.9.67c-.09.05,0,.17.05.18.92.09,1.43-1.21,1.16-2-.42-1.1-1.85-1-2.8-.93-.12,0-.13.21,0,.19Z"/><path class="cls-11" d="M134.07,72.17c-.54,0-.62.65-.43,1,.33.7,1.21.4,1.69,0s1.49-1.27,1.14-2.05-1.41-.49-1.87-.07a.13.13,0,0,0,.13.22c.47-.13.94-.56,1.37-.13s-.19,1.18-.56,1.55-1,.88-1.53.58c-.35-.2-.51-1,.06-1.06.08,0,.08-.12,0-.13Z"/><path class="cls-11" d="M131.18,61.93l1.21.62a.16.16,0,0,0,.23-.18,1.81,1.81,0,0,0-2.35-1c-.64.26-.64.55-.39,1.13a2.86,2.86,0,0,0,1.29,1.47.12.12,0,0,0,.14-.18,5,5,0,0,1-.86-1,2.17,2.17,0,0,1-.3-.66c0-.25,0-.28.26-.4a1.43,1.43,0,0,1,1.91.79l.23-.18-1.21-.61c-.18-.09-.33.17-.16.26Z"/><path class="cls-11" d="M138.93,64.08a1.17,1.17,0,0,0,2,1.15,1.25,1.25,0,0,0-1.56-1.86.2.2,0,0,0-.1.18,5.25,5.25,0,0,0,0,1.12c0,.12.21.11.24,0a7.12,7.12,0,0,0,.13-1.12l-.1.18a.86.86,0,0,1,1,1.35c-.69.74-1.73-.08-1.52-1a.08.08,0,0,0-.16,0Z"/><path class="cls-11" d="M144.79,64a1.08,1.08,0,0,0-.57,1.52.16.16,0,0,0,.18.07,2.67,2.67,0,0,0,2-2.88c0-.08,0-.16-.13-.17a1.47,1.47,0,0,0-1.29.29c-.2.16.09.45.29.29s.51-.36.71-.19.1.3.07.48a2.64,2.64,0,0,1-.3.81,2.31,2.31,0,0,1-1.43,1.07l.18.07a.84.84,0,0,1,.37-1.2c.09,0,0-.2-.07-.16Z"/><path class="cls-11" d="M139.74,52.42a1.6,1.6,0,0,0-.22,2.31,1.43,1.43,0,0,0,2.21-.24,1.35,1.35,0,0,0-.78-1.94c-.6-.14-1.94.59-1.45,1.33a.15.15,0,0,0,.26,0c.13-.22.12-.46.31-.66a.9.9,0,0,1,.8-.27,1,1,0,0,1,.48,1.44,1.14,1.14,0,0,1-1.7,0,1.35,1.35,0,0,1,.21-1.88c.08-.07,0-.18-.12-.12Z"/><path class="cls-11" d="M133.61,45.2c.42-.26,1.45.11,1.53.65,0,.24-.12.28-.33.36a.73.73,0,0,1-.25.08l-.34-.43.07-.12a1.87,1.87,0,0,1,.3-.33.61.61,0,0,0,.17-.67.37.37,0,0,0-.51-.13.16.16,0,0,0,.07.29c.13,0-.28.49-.3.52a1.27,1.27,0,0,0-.23.41.66.66,0,0,0,.11.66c.36.39,1,.16,1.4-.11s.29-.73-.1-1a1.41,1.41,0,0,0-1.67-.28c-.08.06,0,.2.08.14Z"/><path class="cls-11" d="M138.08,39.2a2.35,2.35,0,0,0,0-.26h0a2.35,2.35,0,0,0,0,.26,0,0,0,1,0,0,0Z"/><path class="cls-11" d="M137.6,38.73a2.1,2.1,0,0,1,.9.05c.29.1.33.17.38.48s.08.31-.08.4a.51.51,0,0,1-.34.19,1.26,1.26,0,0,1-.67,0c-.11-.09-.07-.16-.09-.28a6.65,6.65,0,0,0-.06-.77c0-.1-.2-.11-.21,0a4.75,4.75,0,0,0,0,1.13.13.13,0,0,0,.09.13c.59.12,1.73.17,1.71-.74s-1.07-.89-1.69-.8c-.13,0-.1.24,0,.23Z"/><path class="cls-11" d="M123.46,38.19a2.93,2.93,0,0,1-.47-2.07l-.16.09c1.09.29.46,1.53.19,2.17,0,.07,0,.16.12.09.61-.69.93-2.18-.24-2.51-.06,0-.15,0-.16.09a2.41,2.41,0,0,0,.65,2.2s.1,0,.07-.06Z"/><path class="cls-11" d="M119.19,37.18a4.22,4.22,0,0,1,0-.87,1.51,1.51,0,0,1,.53-.82l-.18-.08c0,.39.3.49.51.75.79,1-1,1.39-1.58,1.56a.09.09,0,0,0,0,.17,2.26,2.26,0,0,0,1.89-1,.69.69,0,0,0,0-.64c-.14-.29-.67-.46-.63-.83,0-.1-.13-.13-.19-.08-.47.39-.93,1.33-.45,1.87,0,0,0,0,0,0Z"/><path class="cls-11" d="M113.92,36.65a1.87,1.87,0,0,1-.44-.82c-.11-.47-.11-.57.35-.56l1.83,0-.07-.16a2.66,2.66,0,0,0-1,1.67c0,.11.14.15.16,0a2.92,2.92,0,0,1,1-1.59c.07-.05,0-.16-.06-.16l-2.31,0c-.06,0-.09,0-.1.1a2.12,2.12,0,0,0,.54,1.61c.07.09.21,0,.13-.13Z"/><path class="cls-11" d="M127.79,37.64c0-.24.07-.69.31-.82s.42.1.56.21a1.82,1.82,0,0,1,.56,1.15.09.09,0,0,0,.18,0,1.55,1.55,0,0,0-1-1.56c-.27-.12-.37-.14-.56.08a1.39,1.39,0,0,0-.33.94.12.12,0,0,0,.24,0Z"/><path class="cls-11" d="M110,50.58a2.17,2.17,0,0,0-1.55,1,.12.12,0,0,0,.13.17c.63-.22,1,.91,1.77.79A1,1,0,0,0,111,51a.09.09,0,0,0-.17.07,2.25,2.25,0,0,1,.11.62.67.67,0,0,1-.81.65,2,2,0,0,1-.69-.51.82.82,0,0,0-.83-.24l.13.17a1.84,1.84,0,0,1,1.39-1c.1,0,0-.15,0-.14Z"/><path class="cls-11" d="M105.56,49.51a1.69,1.69,0,0,0-.6.77.13.13,0,0,0,.06.14l.45.29c.1.07.31.28.44.3a.64.64,0,0,0,.43-.16,1.44,1.44,0,0,0,.59-1.11c0-.18-.28-.18-.28,0,0,.51-.37,1.1-.91.85a2.86,2.86,0,0,1-.45-.28c-.12-.25.22-.54.38-.67s0-.19-.11-.13Z"/><path class="cls-11" d="M119.05,61a1.27,1.27,0,0,1,0,1.78.12.12,0,0,0,0,.17,1,1,0,0,0,1.52-.51c.13-.63-.28-1.91-1.09-1.8-.11,0-.17.15-.06.22l.34.22a.08.08,0,0,0,.09-.12l-.29-.28-.08.19c.52-.06.73.56.81,1s.1.71-.21.93a.72.72,0,0,1-.87,0v.17a1.4,1.4,0,0,0-.08-2c-.06,0-.13,0-.08.08Z"/><path class="cls-11" d="M123.11,58.47c-.41-.25-.49.74-.48.94,0,.54.44,1.05,1,.84a.83.83,0,0,0,.33-1.32,1.11,1.11,0,0,0-1.69,0,.13.13,0,0,0,.19.19,1,1,0,0,1,1-.27c.57.24.52,1.24-.19,1.12-.37-.06-.47-.37-.48-.72,0-.1,0-.86.23-.77,0,0,.06,0,0-.05Z"/><path class="cls-11" d="M124.18,56.48c.29.35.07,1.1.6,1.31a.45.45,0,0,0,.34,0c.16-.05.26-.17.47-.14a2.44,2.44,0,0,0,.26.06c.32,0,.46-.35.47-.63a1.84,1.84,0,0,0-.64-1.34.17.17,0,0,0-.19,0,3.84,3.84,0,0,0-1.18,1.16c-.06.09.07.17.15.11.4-.33.77-.69,1.19-1l-.19,0a1.57,1.57,0,0,1,.61,1.06c0,.45-.46.3-.74.32s.1.1-.41.07c-.33,0-.31-.14-.36-.44a1,1,0,0,0-.25-.61c-.08-.09-.21,0-.13.13Z"/><path class="cls-11" d="M117,64.56a1.46,1.46,0,0,0-.61,1,.11.11,0,0,0,.11.15,8.8,8.8,0,0,0,1.54,0,.55.55,0,0,0,.48-.42c.18-.8-.83-.9-1.36-.86a.18.18,0,1,0,0,.35,1.39,1.39,0,0,1,.7,0c.69.26.17.7-.24.71h-1.17l.11.11a1.16,1.16,0,0,1,.46-.95s0-.13-.07-.09Z"/></svg>