<svg id="carracters" xmlns="http://www.w3.org/2000/svg" viewBox="0 0 198.43 35.43"><defs><style>.cls-1{fill:#fff;}.cls-2,.cls-3{fill:#6e6e6e;}.cls-3{opacity:0.5;}</style></defs><path d="M180.53,20.15l1.29-.56c.17.22.36.46.53.7a8.74,8.74,0,0,1,1.58,3.31,3.4,3.4,0,0,1-.62,3,3.84,3.84,0,0,1-2.13,1.24,15.3,15.3,0,0,1-3.22.43,23.84,23.84,0,0,1-3.78-.05,6,6,0,0,1-1.91-.51A2.17,2.17,0,0,1,170.91,26a3.43,3.43,0,0,1,.24-1.7,1.54,1.54,0,0,0,.08-.19h0a7.59,7.59,0,0,1-1.15.08,2.34,2.34,0,0,1-2-1.6,4.35,4.35,0,0,1,.94-4.48,2.94,2.94,0,0,1,2.68-.82,4.18,4.18,0,0,1,1,.42l.22-2.87h-4.46V13.53h4.54l.13-3.15,2.11.18a.41.41,0,0,1-.34.38c-.2.05-.25.15-.25.35,0,.64-.07,1.28-.11,1.92v.21a25.13,25.13,0,0,0,4.53-.86l.23,1.42a24.91,24.91,0,0,1-4.87.82c0,.34-.06.68-.1,1-.1,1.09-.21,2.19-.3,3.28,0,.3,0,.6,0,.9a5.91,5.91,0,0,1-.94,3.18,3.9,3.9,0,0,0-.66,2.06,1.32,1.32,0,0,0,.77,1.26,3.66,3.66,0,0,0,1.45.37,23.73,23.73,0,0,0,4.46,0,6.62,6.62,0,0,0,2-.47A2.14,2.14,0,0,0,182.42,24a5.81,5.81,0,0,0-1.13-2.79C181.05,20.83,180.79,20.5,180.53,20.15Zm-7.94,0c0-.15,0-.33-.06-.51a1.32,1.32,0,0,0-1.13-1.18,1.87,1.87,0,0,0-1.59.53,3,3,0,0,0-.69,2.85,1.38,1.38,0,0,0,1.1,1.15,1.56,1.56,0,0,0,1.64-.59A4,4,0,0,0,172.59,20.1Z"/><path d="M179.9,15.92c.1-.39.2-.74.27-1.11,0-.17.11-.21.27-.18.65.11,1.32.2,2,.33A15.94,15.94,0,0,1,185.89,16l.31.15-.46,1.39A18.8,18.8,0,0,0,179.9,15.92Z"/><path class="cls-1" d="M30,20.15l1.29-.56c.17.22.36.46.53.7a8.72,8.72,0,0,1,1.57,3.31,3.37,3.37,0,0,1-.62,3,3.81,3.81,0,0,1-2.12,1.24,15.3,15.3,0,0,1-3.23.43,23.86,23.86,0,0,1-3.78-.05,6,6,0,0,1-1.91-.51A2.16,2.16,0,0,1,20.36,26a3.32,3.32,0,0,1,.24-1.7c0-.06,0-.13.08-.19s0,0,0,0a7.63,7.63,0,0,1-1.16.08,2.34,2.34,0,0,1-2-1.6,4.35,4.35,0,0,1,.93-4.48,3,3,0,0,1,2.69-.82,4.31,4.31,0,0,1,.94.42l.22-2.87H17.81V13.53h4.55l.13-3.15,2.11.18a.43.43,0,0,1-.35.38c-.2.05-.24.15-.25.35,0,.64-.07,1.28-.1,1.92a1.46,1.46,0,0,0,0,.21,25,25,0,0,0,4.52-.86L28.66,14a25.16,25.16,0,0,1-4.87.82c0,.34-.07.68-.1,1-.1,1.09-.21,2.19-.3,3.28,0,.3,0,.6,0,.9a5.81,5.81,0,0,1-.93,3.18,3.82,3.82,0,0,0-.66,2.06,1.3,1.3,0,0,0,.77,1.26,3.61,3.61,0,0,0,1.44.37,23.84,23.84,0,0,0,4.47,0,6.49,6.49,0,0,0,2-.47A2.15,2.15,0,0,0,31.87,24a5.81,5.81,0,0,0-1.13-2.79C30.5,20.83,30.23,20.5,30,20.15ZM22,20.1c0-.15,0-.33-.06-.51a1.31,1.31,0,0,0-1.12-1.18,1.86,1.86,0,0,0-1.59.53,2.94,2.94,0,0,0-.7,2.85,1.38,1.38,0,0,0,1.11,1.15,1.55,1.55,0,0,0,1.63-.59A3.8,3.8,0,0,0,22,20.1Z"/><path class="cls-1" d="M29.35,15.92c.09-.39.19-.74.26-1.11,0-.17.11-.21.27-.18.66.11,1.32.2,2,.33A15.69,15.69,0,0,1,35.33,16l.32.15-.46,1.39A18.88,18.88,0,0,0,29.35,15.92Z"/><path class="cls-2" d="M144.69,20.24l1.29-.56c.17.22.36.45.53.7a8.57,8.57,0,0,1,1.57,3.31,3.4,3.4,0,0,1-.61,3,3.93,3.93,0,0,1-2.13,1.24,15.3,15.3,0,0,1-3.23.43,22.73,22.73,0,0,1-3.78-.06,5.8,5.8,0,0,1-1.91-.5,2.18,2.18,0,0,1-1.35-1.68,3.3,3.3,0,0,1,.24-1.7c0-.06.05-.13.08-.19s0,0,0,0a6.51,6.51,0,0,1-1.16.07,2.31,2.31,0,0,1-2-1.59,4.36,4.36,0,0,1,.93-4.48,3,3,0,0,1,2.69-.83,5,5,0,0,1,1,.43L137,15h-4.47V13.62h4.55l.13-3.15,2.11.18A.42.42,0,0,1,139,11c-.21.05-.25.15-.26.35,0,.64-.06,1.28-.1,1.92a1.33,1.33,0,0,0,0,.2,24.27,24.27,0,0,0,4.53-.85l.23,1.42a25,25,0,0,1-4.87.82c0,.34-.07.68-.1,1-.1,1.1-.21,2.19-.3,3.29,0,.3,0,.6,0,.9a5.87,5.87,0,0,1-.94,3.17,4,4,0,0,0-.66,2.07,1.33,1.33,0,0,0,.77,1.26,3.61,3.61,0,0,0,1.44.37,24.72,24.72,0,0,0,4.47,0,6.62,6.62,0,0,0,2-.47,2.15,2.15,0,0,0,1.38-2.39,5.88,5.88,0,0,0-1.13-2.8C145.21,20.92,145,20.59,144.69,20.24Zm-7.95,0a5,5,0,0,0-.06-.51,1.29,1.29,0,0,0-1.12-1.18A1.87,1.87,0,0,0,134,19a2.93,2.93,0,0,0-.69,2.85,1.36,1.36,0,0,0,1.1,1.15,1.54,1.54,0,0,0,1.63-.59A3.8,3.8,0,0,0,136.74,20.19Z"/><path class="cls-3" d="M144.09,15.92c.09-.39.19-.74.26-1.11,0-.17.11-.21.27-.18.66.11,1.32.2,2,.33A15.61,15.61,0,0,1,150.07,16l.32.15-.46,1.39A18.88,18.88,0,0,0,144.09,15.92Z"/><path class="cls-3" d="M107.24,20.15l1.29-.56.53.7a8.87,8.87,0,0,1,1.57,3.31,3.37,3.37,0,0,1-.62,3,3.8,3.8,0,0,1-2.13,1.24,15.12,15.12,0,0,1-3.22.43,23.86,23.86,0,0,1-3.78-.05A6,6,0,0,1,99,27.71,2.16,2.16,0,0,1,97.62,26a3.22,3.22,0,0,1,.24-1.7l.07-.19s0,0,0,0a7.63,7.63,0,0,1-1.16.08,2.36,2.36,0,0,1-2-1.6,4.37,4.37,0,0,1,.94-4.48,3,3,0,0,1,2.69-.82,4.31,4.31,0,0,1,.94.42l.22-2.87H95.07V13.53h4.54l.14-3.15,2.11.18a.43.43,0,0,1-.35.38c-.2.05-.24.15-.25.35,0,.64-.07,1.28-.1,1.92a1.46,1.46,0,0,0,0,.21,25,25,0,0,0,4.52-.86l.24,1.42a25.16,25.16,0,0,1-4.87.82c0,.34-.07.68-.1,1-.11,1.09-.21,2.19-.31,3.28,0,.3,0,.6,0,.9a5.82,5.82,0,0,1-.94,3.18,3.89,3.89,0,0,0-.65,2.06,1.3,1.3,0,0,0,.77,1.26,3.61,3.61,0,0,0,1.44.37,23.84,23.84,0,0,0,4.47,0,6.63,6.63,0,0,0,2-.47A2.15,2.15,0,0,0,109.13,24,5.91,5.91,0,0,0,108,21.19C107.76,20.83,107.49,20.5,107.24,20.15Zm-7.95,0c0-.15,0-.33-.06-.51a1.31,1.31,0,0,0-1.12-1.18,1.86,1.86,0,0,0-1.59.53,2.94,2.94,0,0,0-.7,2.85,1.38,1.38,0,0,0,1.11,1.15,1.55,1.55,0,0,0,1.63-.59A3.8,3.8,0,0,0,99.29,20.1Z"/><path class="cls-3" d="M106.61,15.92c.09-.39.19-.74.26-1.11,0-.17.11-.21.27-.18.66.11,1.32.2,2,.33A15.61,15.61,0,0,1,112.59,16l.32.15-.46,1.39A18.88,18.88,0,0,0,106.61,15.92Z"/><path d="M133.36,16.93l-.37-.34.12-.14.25.22c.47.4.44.32.07.74a3.27,3.27,0,0,0-.24.27l-.14-.12.32-.38v0l-.36.16a4.88,4.88,0,0,0-2.61,2.93,2.93,2.93,0,0,0,2.18,4,5,5,0,0,0,2.15.11.35.35,0,0,1,.21,0c0,.05-.07.14-.12.14a4.65,4.65,0,0,1-3.8-.88,2.73,2.73,0,0,1-1-2.44,4.83,4.83,0,0,1,2.74-4A5.6,5.6,0,0,1,133.36,16.93Z"/><path d="M97.1,13.3l.62-.69h-3.8c-.08-.19,0-.2.15-.2h3.64l-.65-.6.13-.14.78.73a.22.22,0,0,1,0,.21c-.23.27-.48.52-.74.82Z"/><path d="M137.34,28.84c0-.19-.34-.25-.14-.5a4.11,4.11,0,0,1,.4.46.26.26,0,0,1,0,.24,3.48,3.48,0,0,1-.38.39l-.12-.13.24-.26c-.49,0-1,.08-1.42.1a1.55,1.55,0,0,1-1.65-1.43,2.37,2.37,0,0,1,.19-1.41l.1,0a.18.18,0,0,1,.07.05,2.19,2.19,0,0,0-.13,1.51A1.33,1.33,0,0,0,136,29C136.41,29,136.87,28.88,137.34,28.84Z"/><path d="M135.46,10.1l.19-.16.61.65c0-.51.06-1,.09-1.45l.12-2.23c0-.14.07-.17.2-.12l-.22,3.81.61-.67.13.12c-.26.29-.5.56-.75.81a.21.21,0,0,1-.19,0C136,10.62,135.73,10.36,135.46,10.1Z"/><path d="M182,14.12l-.21-.33.14-.1a3.82,3.82,0,0,1,.33.49.24.24,0,0,1-.05.23,3.23,3.23,0,0,1-.47.32c-.09-.06-.15-.12,0-.21l.27-.18L180.41,14c-.13,0-.26,0-.38-.09a.3.3,0,0,1-.12-.13c.05,0,.11-.06.16-.05l1.76.42Z"/><path d="M135.39,24.17a2.53,2.53,0,0,1-1.49.09,2.34,2.34,0,0,1-1.72-1.61,4.27,4.27,0,0,1,.68-4.11,3.07,3.07,0,0,1,2.6-1.19,1.79,1.79,0,0,1,1.16.45l.15.12L137,15h-4.46V13.64h4.54l.13-3.18,2.1.19c0,.26-.2.35-.39.4a.22.22,0,0,0-.19.24c0,.62-.06,1.23-.1,1.84v.38a24.19,24.19,0,0,0,4.52-.86l.24,1.42a24.52,24.52,0,0,1-4.88.82c-.06.67-.12,1.31-.18,2s-.16,1.56-.22,2.35c0,.33,0,.66,0,1a5.82,5.82,0,0,1-.93,3.07,3.9,3.9,0,0,0-.66,2.12,1.26,1.26,0,0,0,.65,1.15,3.17,3.17,0,0,0,1.4.42,23.66,23.66,0,0,0,4.76,0,6.09,6.09,0,0,0,1.92-.48,2.14,2.14,0,0,0,1.33-2.38,6.1,6.1,0,0,0-1.25-3c-.2-.29-.43-.57-.64-.85l1.31-.57c.26.37.56.76.83,1.17a8,8,0,0,1,1.26,2.84,3.47,3.47,0,0,1-.56,2.94,3.75,3.75,0,0,1-2.1,1.28,13.64,13.64,0,0,1-2.91.43c-.79,0-1.58.08-2.38.07a10.19,10.19,0,0,1-3.2-.4,3.1,3.1,0,0,1-1.35-.8,2.26,2.26,0,0,1-.46-2.13C135.19,24.78,135.3,24.49,135.39,24.17Zm1.36-4c0-.15,0-.33-.06-.51a1.31,1.31,0,0,0-1-1.16,1.94,1.94,0,0,0-1.85.7,2.79,2.79,0,0,0-.61,1.78,3.56,3.56,0,0,0,.11.92,1.38,1.38,0,0,0,1.17,1.13,1.53,1.53,0,0,0,1.55-.6A3.88,3.88,0,0,0,136.75,20.19Z"/><path d="M105.7,12.58l.23,1.41-.59.17a25.88,25.88,0,0,1-4.1.63c-2,.14-4,.15-6.08.12h-.07V13.57h.58c1.81,0,3.61,0,5.41-.14a20.07,20.07,0,0,0,4.49-.82Z"/></svg>