<svg id="illustration" xmlns="http://www.w3.org/2000/svg" viewBox="0 0 198.43 148.67"><defs><style>.cls-1{fill:#bbb1b4;}.cls-2{fill:#591831;}.cls-3{fill:#b04b68;}.cls-4{fill:#9087c1;}.cls-5{fill:#781c47;}.cls-6{fill:#fff;}.cls-7{fill:#231f20;}</style></defs><polygon class="cls-1" points="120.37 3.16 124.84 4.48 128.12 7.24 131.11 13.82 131.11 18.06 129.75 22.9 127.22 27.33 123.72 31.28 120.37 34.1 117.18 36.38 113.11 38.98 113.58 41.86 116.15 48.21 118.89 51.48 122.18 53.5 126.9 49.64 132.71 43.06 135.74 37.82 137.55 33.21 138.9 27.01 138.9 17.69 136.65 12.11 131.26 5.79 127.41 3.7 122.3 2.74 120.37 3.16"/><path class="cls-2" d="M81.06,113.86l.59,6.06-1,6.89-1.12,4.38A20,20,0,0,1,78,135c-.71,1.08-2.3,4.07-2.3,4.07l4.52-3.27,4.09-4.41,2.57-4.19,1.36-4.63.9-5.32.56-3.7L89,111.86l-3,.31-2.83,1Z"/><polygon class="cls-1" points="61.98 135.79 66.32 136.6 70.17 136.61 72.98 135.22 67.48 132.18 63.97 129.02 63.15 126.81 70.28 129.02 70.17 125.36 69.7 123.61 72.98 124.1 75.57 124.19 74.1 120.87 74.61 119.92 70.93 119.19 63.97 122.53 58.49 126.37 57.59 132.02 61.98 135.79"/><polygon class="cls-1" points="80.24 135.79 78.75 132.75 77.65 129.47 80.24 130.64 83.6 132.05 83.17 130.18 82.69 127.24 84.74 127.19 86.9 127.19 85.99 125.67 84.74 122.56 87.32 122.86 88.26 122.56 90.12 126.24 86.9 136.07 83.6 138.89 80.24 135.79"/><polyline class="cls-1" points="76.99 136.86 75.27 132.75 74.61 129.47 76.65 130.18 78.29 131.38 79.45 134.36 77.31 136.07"/><path class="cls-3" d="M50.82,61.25l-.52,4.27.2,7,.91,4.86L52.17,80,54,82.51l-1.14,4.38.29,4.63.19,3.27,1.25,3.38,2.41,3.5.19,2.81-.84,1.26-2.58.67-2.33,2.15L50.61,110l-.69,2.07-.67,2.53-1.54,2.63-1,2.45-1.77,1.78-2.65,1.76-1.37,1-.81,1.9,2.27,3.31,1.81,1.72,2.52,2.19L50.25,135,54,136.92l6.34,2s1-.6,1-.81.66-4.91.66-4.91v-3.65l2.78-3.73,4.93-2.18,4.4-2.74,2.76-3.59,3-2.71,4.84-2.15,4.25-.56.39,4s-.89,5.76-1.12,6.73-2.74,7.72-2.74,7.72l-3.1,4.94-3.24,2.2-3.46,1.64s-.76,2.22.41,2.22,4.5-.54,4.5-.54l4.11-.81,8.94-3.07,4.86-3.35,4.62-5.68-.8,3.55-1.85,4.41-2.19,3.27-2.83,4.09-2.14,2.3,3.31-.1,10.84-2,14.14-6.22,10.6-8.15,6.26-7.7-1.71-2.91-.5-4.55,2.85-15.1.19-11.87L137.2,75.36l-5.5-13.7-6.86-10.18-2.66,2L119.52,52l-3.37-3.82-2.57-6.35L113.11,39,110,41.52l-3.65,5-2.39,3.13L99,48.75l-5.65.43-4.47,1.4-7.18-.49-6,.84L72.1,52.14,68.77,54l-1.43-.47-4-.14-3.15,2.16-1.69,1.61L57,59,55.6,61l-1.06,1-1.93-1Z"/><path class="cls-4" d="M61.34,77.43a19.26,19.26,0,0,1-2.56-2l-1.19-2.91,1.06-2.71,1.5-2.09h3.18l.07-2.54,1.75-3.37,3.25-2,2.25-.08,1.45.82L74,58.23l2.58-.82h2.57l4.6,1.6,3.4.77-.5,1.4-7.5,3.09L70.65,69l-5.88,4.82L62.62,77Z"/><path class="cls-5" d="M115.12,63.34c-.81,1.14.26,3.1.38,4.38.16,1.69-.45,3.47,0,5.1a.78.78,0,0,0,1.28.34c1.41-1.42,1.29-3.91,1-5.75-.18-1.44-.5-4.09-2.29-4.29a.45.45,0,0,0-.37.22Z"/><path class="cls-5" d="M116.6,72.44c2.79,4,6.15,7,7.85,11.83a24.89,24.89,0,0,1-.88,18.1c-.47,1.1,1.14,2.06,1.62.95,4.22-9.7,3.45-26.57-7.9-31.58-.41-.18-1,.23-.69.7Z"/><path class="cls-5" d="M124.48,103c-4.86-1.59-9.14,2.3-11.64,6.13-4.2,6.44-7.33,14-10.57,21-.59,1.28,1.26,2.41,1.92,1.12,2.62-5.1,5-10.29,7.53-15.46,2.9-6,5.67-10.5,12.76-11.76.53-.09.44-.84,0-1Z"/><path class="cls-5" d="M123.26,103.47a11,11,0,0,0,1.22-.78.69.69,0,0,0,.06-.91.71.71,0,0,0-.89-.17,8.12,8.12,0,0,0-1.11.63.71.71,0,0,0,.72,1.23Z"/><path class="cls-5" d="M115.52,65.41c2-1.11,3.3-3.73,4.69-5.48,1.65-2.07,3.43-4.09,5.27-6,1.09-1.14-.53-2.68-1.7-1.7a36.88,36.88,0,0,0-5.8,6c-1.39,1.83-3.39,4.28-3.37,6.68a.61.61,0,0,0,.91.52Z"/><path class="cls-5" d="M90.3,50.66a5.64,5.64,0,0,0,2.44,1.12,8.58,8.58,0,0,0,2.92.89c.27,0,.48-.38.24-.58A8.16,8.16,0,0,0,93.16,51c-.86-.27-1.89-.84-2.78-.65a.18.18,0,0,0-.08.29Z"/><path class="cls-5" d="M95.6,52.7A15.74,15.74,0,0,1,99.3,51c1-.29,2.29-.11,3.23-.67a.26.26,0,0,0,0-.45c-1-.67-2.64-.17-3.74.17a9,9,0,0,0-3.64,2.07.38.38,0,0,0,.45.59Z"/><path class="cls-5" d="M89.63,115.8c.69,2.31,3.61,2.4,5.36,1.21a8.34,8.34,0,0,0,2.67-3.43,23.57,23.57,0,0,1,1.41-3,7.29,7.29,0,0,1,2.82-2.32.59.59,0,0,0-.29-1.09c-5.19-.14-5.82,12.34-11.33,8.14-.31-.24-.75.16-.64.5Z"/><path class="cls-5" d="M79.36,96.62c1.2.71,2.83.54,4.16.94s2.55,1.43,3.81,1.12a.61.61,0,0,0,.45-.59c-.09-1.67-2.24-2.46-3.63-2.84s-3.67-.76-4.9.46a.58.58,0,0,0,.11.91Z"/><path class="cls-5" d="M88.09,92.36A19,19,0,0,1,91,93.57c.87.56,1.48,1.49,2.43,1.94a.49.49,0,0,0,.72-.42c.21-2.52-3.81-4.48-5.91-3.87-.47.13-.67.91-.15,1.14Z"/><path class="cls-5" d="M63.39,96.28c2.52.19,5.16-1.19,7.33-2.37s4.69-2.7,6.14-4.78c.3-.43-.28-.94-.7-.7-2.15,1.26-4,3-6.16,4.25s-4.69,1.8-6.72,3.18a.23.23,0,0,0,.11.42Z"/><path class="cls-5" d="M63.65,95.47C68.77,95,75.37,91.28,78.28,87c.32-.47-.33-1.14-.8-.8-2.24,1.64-4.13,3.64-6.53,5.1s-5,2.29-7.48,3.49a.36.36,0,0,0,.18.67Z"/><path class="cls-5" d="M69.68,92.57c1.42-.92,2.85-1.81,4.29-2.69,1.09-.68,2.7-1.34,3.27-2.53a.33.33,0,0,0-.28-.49c-1.33.07-2.54,1.25-3.58,2-1.38,1-2.76,2-4.16,2.93-.48.32,0,1.1.46.78Z"/><path class="cls-5" d="M81.14,139.62a26.66,26.66,0,0,0,8.12-1.23c2.31-.68,5-1.36,6.73-3.09.4-.4.14-1.27-.49-1.2-2.37.24-4.54,1.52-6.81,2.25-2.53.81-5.15,1.36-7.71,2.1a.6.6,0,0,0,.16,1.17Z"/><path class="cls-5" d="M130.13,130.06c5.25-.19,10.87-9.26,6.38-13.34a.57.57,0,0,0-.94.25c-.66,2.59.14,5.12-1.22,7.62-1.08,2-2.92,3.14-4.59,4.57a.53.53,0,0,0,.37.9Z"/><path class="cls-6" d="M42.87,129.57a26.06,26.06,0,0,1-.94-2.83c-.1-.94.42-1.88.21-2.77a.53.53,0,0,0-.75-.31c-1.16.51-1.13,2.4-1,3.43s.93,2.6,2.12,2.79a.26.26,0,0,0,.31-.31Z"/><path class="cls-6" d="M43,129.28c.19-.67-.46-1.39-.6-2a3.35,3.35,0,0,1,.51-2.44.89.89,0,0,0-1.39-1.07,4,4,0,0,0-.81,4.11,3,3,0,0,0,1.15,1.61c.33.19,1,.33,1.14-.17Z"/><path class="cls-6" d="M64.42,91.12a16.1,16.1,0,0,1-.07-2.69,10.31,10.31,0,0,1,.89-2.7c.39-.82.83-2.62-.76-2.37-1.41.22-2.08,2.49-2.19,3.7a6,6,0,0,0,1.2,4.45.55.55,0,0,0,.93-.39Z"/><path class="cls-6" d="M121.52,85.45a1.46,1.46,0,0,0-.11.68c0-.35,0,.39,0,.47a10.91,10.91,0,0,0,.39,1.57,13.84,13.84,0,0,1,.56,2.63,12,12,0,0,1,0,2.68c-.06.51-.17,1-.24,1.51a3.87,3.87,0,0,0-.1,1.72v-.56a2.63,2.63,0,0,0,.07,1.75.5.5,0,0,0,.55.22A2.14,2.14,0,0,0,123.94,97l-.38.38c1-.67,1.28-2.19,1.43-3.31a13.25,13.25,0,0,0,0-3.33,12.1,12.1,0,0,0-.83-3.35,5,5,0,0,0-.91-1.51,3.06,3.06,0,0,0-.68-.5c.25.15-.08-.09-.14-.12a1.34,1.34,0,0,0-.39-.07.6.6,0,0,0-.54.3Z"/><path class="cls-6" d="M128.87,64.25A7.84,7.84,0,0,0,130,68c.62,1.39,1.24,2.79,1.82,4.19a69.83,69.83,0,0,1,3,8.29,38.36,38.36,0,0,1,1.35,8.38,44.56,44.56,0,0,1-.87,8.85c-.16,1,1.3,1.89,1.84.77,2.61-5.39,1.79-12.42.32-18a58.43,58.43,0,0,0-3.14-8.81c-.63-1.41-1.3-2.8-2-4.19s-1.25-2.83-2.52-3.67a.58.58,0,0,0-.86.49Z"/><path class="cls-6" d="M128.21,42.89A23.08,23.08,0,0,0,137,32.13c1.88-4.81,2.49-11.12-.1-15.78-.37-.66-1.62-.42-1.51.41.62,4.95,1.31,9.57-.33,14.43a22.85,22.85,0,0,1-7.49,10.58c-.64.49-.06,1.6.65,1.12Z"/><path class="cls-6" d="M59.34,70.5a2.7,2.7,0,0,0-.73,2,3.72,3.72,0,0,0,.12,1,2.3,2.3,0,0,0,.21.59c.12.19.3.25.46.38a.57.57,0,0,0,1-.39,3.05,3.05,0,0,0,0-.71c-.06-.31-.13-.61-.16-.92,0-.61.12-1.19,0-1.79s-.65-.47-.93-.24Z"/><path class="cls-6" d="M66.52,62.64C65.05,63,64.11,65,64.27,66.4a.93.93,0,0,0,.63.83l.08,0a.66.66,0,0,0,.66-.18c.58-.52.17-1.3.33-2a5,5,0,0,1,1.09-1.76c.26-.36-.17-.79-.54-.7Z"/><path class="cls-6" d="M77.54,58.42a2.84,2.84,0,0,0-2.32,0c-.73.3-1.46.85-1.35,1.74a.56.56,0,0,0,.7.53,3.77,3.77,0,0,0,.66-.26c.22-.14.37-.33.6-.45a2.37,2.37,0,0,1,1.34-.17c.7.09,1-1.08.37-1.35Z"/><path class="cls-6" d="M51.14,63.72A24.69,24.69,0,0,0,51,69c0,.89,0,1.79.08,2.68s-.14,2.06.66,2.53a.71.71,0,0,0,.73,0c.79-.57.53-1.68.49-2.53s-.09-1.79-.15-2.68a23.55,23.55,0,0,0-.62-5.3.53.53,0,0,0-1,0Z"/><path class="cls-6" d="M54,88.13c-1.07,1.57-.46,4.07.07,5.75.46,1.5,1.26,4,3,4.31a.42.42,0,0,0,.52-.39c.11-1.59-1.42-3.17-1.88-4.68s-.25-3.46-.94-5c-.15-.34-.61-.25-.78,0Z"/><path class="cls-6" d="M78.55,99.75a19.36,19.36,0,0,0,2.53.26,6.05,6.05,0,0,0,2.22.3.52.52,0,0,0,.23-.85,3.36,3.36,0,0,0-2.43-.85,4.15,4.15,0,0,0-2.64.44.39.39,0,0,0,.09.7Z"/><path class="cls-6" d="M88.37,95.84c.45.19.9.4,1.35.58a1.76,1.76,0,0,0,1.26.21.29.29,0,0,0,.19-.35c-.28-.78-1.55-1.09-2.24-1.4s-1.21.67-.56,1Z"/><path class="cls-6" d="M95.73,93.28c.73.64,1.63,1.69,2.67,1.72a.4.4,0,0,0,.39-.5c-.29-1-1.54-1.61-2.34-2.16-.55-.37-1.22.49-.72.94Z"/><path class="cls-6" d="M51.4,114.86a10.68,10.68,0,0,1,1.6,0c.52,0,1.07.3,1.57.1A.64.64,0,0,0,55,114a2,2,0,0,0-1.84-.7,4.29,4.29,0,0,0-1,.12,3.34,3.34,0,0,0-1,.46c-.42.23-.26,1,.25.94Z"/><path class="cls-6" d="M53.52,110.36c1.16.21,2.77.75,3.89.23a.52.52,0,0,0,0-.88c-1-.64-2.67-.35-3.76-.32-.53,0-.7.87-.13,1Z"/><path class="cls-6" d="M50.83,111.1a9.7,9.7,0,0,1,2-2.75,19.29,19.29,0,0,0,2.28-1.94c.12-.15,0-.36-.21-.36A4.41,4.41,0,0,0,52,107.69,8.8,8.8,0,0,0,50,110.75c-.18.47.6.8.82.35Z"/><path class="cls-6" d="M62.89,135.32a5.86,5.86,0,0,0,5.27,0c.54-.27.15-1.09-.41-.95a9.51,9.51,0,0,1-4.47,0c-.54-.12-1,.67-.39.94Z"/><path class="cls-7" d="M76,98c4.74-.75,8.82-.58,12.41,3,.58.58,1.47-.31.9-.91-3.23-3.38-9.28-5.37-13.52-2.62A.27.27,0,0,0,76,98Z"/><path class="cls-7" d="M82.69,93.68c4.68-1,8.24.26,11.6,3.55.46.45,1.28-.14.92-.71a10.15,10.15,0,0,0-12.69-3.24c-.23.12-.07.45.17.4Z"/><path class="cls-7" d="M90.05,90.43a9.49,9.49,0,0,1,10.43,4.39.57.57,0,0,0,1-.58,9.58,9.58,0,0,0-11.58-4.39.3.3,0,0,0,.16.58Z"/><path class="cls-7" d="M76.42,70.77a6.59,6.59,0,0,1,1.91,2.92c.3,1,.2,2,.49,2.94a.34.34,0,0,0,.62.08c1.09-2.23-1-5.08-2.69-6.37-.25-.18-.57.23-.33.43Z"/><path class="cls-7" d="M62.93,77.22C70.32,70.37,77.78,65,87.35,61.63c.77-.27.45-1.48-.34-1.23-9.39,2.94-18.59,8.51-24.59,16.43-.23.3.25.63.51.39Z"/><path class="cls-7" d="M63.84,67c-.43-2.48,1.36-4.81,3.44-6a4,4,0,0,1,3.53-.33,2.35,2.35,0,0,1,1.47,2l-.4,1.2a1.76,1.76,0,0,1-1.83.39.49.49,0,0,0,.09-.76L70,63.41a.65.65,0,0,0-.9,0c-1.64,1.36,1.14,2.45,2.33,2.14,2.2-.58,2.63-3.28,1.32-4.93-3.7-4.66-10.9,2-9.62,6.57.13.46.79.26.71-.2Z"/><path class="cls-7" d="M72.4,60.78c3.5-6.77,12.41,1.09,17.75.11.62-.11.43-1-.14-1-5.27-.32-15.14-6.87-18.25.66-.15.37.46.62.64.27Z"/><path class="cls-7" d="M62.34,77.1c-2.67-.68-4.53-2.94-3.77-5.81a4.42,4.42,0,0,1,2.2-2.81,2.48,2.48,0,0,1,2.91.4c1.18,1.18.56,1-.76,2,.27-.2,0-.65-.28-.46-1.44.89.18,2.63,1.53,1.7,1.77-1.2.71-3.94-1-4.62-2.74-1.11-5.28,1.78-5.69,4.22-.5,3,1.55,6.13,4.74,6.06a.34.34,0,0,0,.09-.67Z"/><path class="cls-7" d="M55.34,105.85c-2.49.32-4,1.81-5,4.09-1.22,2.6-1.44,5.52-2.91,8-1.71,3-4.44,3.53-6.57,5.77-4.24,4.48,6,10.18,9.22,11.54.42.17.79-.4.37-.62-2.63-1.38-5.86-2.94-7.66-5.37-3.61-4.89.62-5.78,3-8.11,4.34-4.15,3.38-13.19,9.54-15.12.12,0,.11-.25,0-.23Z"/><path class="cls-7" d="M53.91,137a9.81,9.81,0,0,0,2.92,1.11l3.39,1.09c.41.13.6-.53.18-.66l-3.41-1a9.74,9.74,0,0,0-3-.73.12.12,0,0,0-.06.22Z"/><path class="cls-7" d="M61.14,139.23a20.08,20.08,0,0,0,1.17-9.71c0-.41-.69-.42-.65,0a29.2,29.2,0,0,1-.82,9.63c-.05.2.22.26.3.08Z"/><path class="cls-7" d="M63.93,127.92c1.14-3.77,5.38-3.27,8.13-4.87a12.4,12.4,0,0,0,3.26-3.12c4-4.9,8-7.69,14.64-7.48.5,0,.49-.73,0-.78a15.69,15.69,0,0,0-13.83,5.93c-1.4,1.69-2.41,3.66-4.37,4.85-1.42.87-3.33,1-4.81,1.68a5.26,5.26,0,0,0-3.36,3.69.18.18,0,0,0,.34.1Z"/><path class="cls-7" d="M89.91,113A2.61,2.61,0,0,0,93,116.19c2.63-.4,3.73-3.37,4.07-5.66.09-.59-.75-.86-.92-.25-.39,1.45-.57,3.08-1.7,4.19a2.81,2.81,0,0,1-2.47.92,1.88,1.88,0,0,1-1.41-2.19.33.33,0,0,0-.63-.18Z"/><path class="cls-7" d="M89.49,113.37c-1.56,10.63-3.66,20.16-13.86,25.52-.2.1-.06.4.14.35,11-2.5,13.2-16.55,14.09-25.82a.19.19,0,0,0-.37,0Z"/><path class="cls-7" d="M77.31,141.51c9.6-.8,19.29-3.39,25-11.7,7-10.16,8.14-23.52,21.5-27.72.45-.14.4-.9-.12-.86-9.47.69-14.14,11.25-17.39,18.74-2.59,6-5.39,11.73-11.09,15.32-5.44,3.45-11.85,4.31-18,5.77a.23.23,0,0,0,.07.45Z"/><path class="cls-7" d="M124.13,101.61c5.7-9.25,2.27-22.64-7-28.25-.59-.36-1.07.52-.53.92A22.14,22.14,0,0,1,125,85.71a22.52,22.52,0,0,1-1.36,15.61.29.29,0,0,0,.5.29Z"/><path class="cls-7" d="M56.68,101.29C53,95.1,52.74,89.49,54.29,82.6c.09-.38-.46-.65-.65-.27-3.11,6.07-1.53,14.12,2.65,19.26.18.22.54-.07.39-.3Z"/><path class="cls-7" d="M101.91,53c1.82-2.55,3.65-5.09,5.7-7.47,1.86-2.16,4-4,5.89-6.18.21-.24-.08-.68-.37-.47-4.67,3.47-8.71,8.88-11.6,13.9-.14.25.22.44.38.22Z"/><path class="cls-7" d="M115,39.24a.05.05,0,0,0,0-.1.05.05,0,1,0,0,.1Z"/><path class="cls-7" d="M113.43,39.52a15.87,15.87,0,0,0,8.13,14.17.21.21,0,0,0,.21-.37,17.53,17.53,0,0,1-8-13.8.15.15,0,0,0-.29,0Z"/><path class="cls-7" d="M121.52,54.06a30.17,30.17,0,0,0-9.07,13.63c-.11.36.42.49.55.16a35.39,35.39,0,0,1,8.75-13.57c.15-.14-.07-.36-.23-.22Z"/><path class="cls-7" d="M114.44,64.65a8.58,8.58,0,0,1,1.34,4.22c0,1.47-.68,2.55-1,3.92a.21.21,0,0,0,.34.2c2.39-1.9,1.62-6.7-.3-8.63a.24.24,0,0,0-.37.29Z"/><path class="cls-7" d="M101.65,50.31c-2.94.07-6.46,2-7,5.12a.33.33,0,0,0,.6.26c1.55-2.45,3.32-4.49,6.39-4.84.34,0,.36-.55,0-.54Z"/><path class="cls-7" d="M113.2,39.15c8-4.41,16.62-10.89,18.22-20.47,1.25-7.5-3.22-15-11-15.94-.53-.06-.53.78,0,.84,10.5,1.21,12.37,13.18,8.1,21.06C125,31.05,118.8,34.79,113,38.82a.19.19,0,0,0,.19.33Z"/><path class="cls-7" d="M119.5,3.27c13.37-1.77,20.19,11.65,19,23.22-1.16,10.94-7.72,20.5-16.83,26.4-.57.37,0,1.28.53.92,10.52-6.68,17.75-18.56,17.45-31.21-.25-10.88-8.17-22.18-20.18-19.8-.26.05-.2.5.07.47Z"/><path class="cls-7" d="M52.43,80a48.84,48.84,0,0,1-1.77-10.59,29.08,29.08,0,0,1,.08-4.07,6.73,6.73,0,0,1,1-3.68,5.25,5.25,0,0,1,3.91,1.88.41.41,0,0,0,.58-.58,6.49,6.49,0,0,0-5.45-2.09.43.43,0,0,0-.41.31,36.9,36.9,0,0,0,1.5,19,.27.27,0,0,0,.52-.14Z"/><path class="cls-7" d="M55.29,61.74c3-4.37,8.67-11.27,14.55-6.63a.36.36,0,1,0,.44-.56c-6.23-4.8-12.18,2.16-15.28,7-.11.18.17.34.29.17Z"/><path class="cls-7" d="M68.63,54.16c8.54-4.63,17.38-4.52,26.19-.68.39.17.73-.37.34-.59-8.27-4.74-18.76-4-26.75.89a.22.22,0,0,0,.22.38Z"/><path class="cls-7" d="M45.46,124c-1,1-2.26,2.65-1.4,4.15a1.92,1.92,0,0,0,3,.66.46.46,0,0,0,0-.65,1.68,1.68,0,0,0-1.93-.37c-.49.22-.12.93.36.83a1,1,0,0,1,.92.19v-.65c-.72.76-1.77-.35-1.77-1.13a5.25,5.25,0,0,1,1.26-2.72c.17-.24-.2-.51-.4-.31Z"/><path class="cls-7" d="M52.41,112.53a7.33,7.33,0,0,1,3.69.28,5.92,5.92,0,0,1,1.6,1c.36.3.47.46.95.39a.3.3,0,0,0,.29-.22c.26-1.18-1.62-2-2.53-2.27a5.55,5.55,0,0,0-4.29.16c-.43.21-.1.76.29.7Z"/><path class="cls-7" d="M56,109.2a12.65,12.65,0,0,1,2.91.66c.72.26,1.42,1,2.2.73a.43.43,0,0,0,.29-.51c-.13-.93-1.52-1.29-2.3-1.51a6,6,0,0,0-3.19,0c-.4.1-.27.63.09.67Z"/><path class="cls-7" d="M75.53,140.19a36.53,36.53,0,0,0,6.36-24.67.26.26,0,0,0-.51,0,58.57,58.57,0,0,1-6.3,24.41.26.26,0,0,0,.45.26Z"/><path class="cls-7" d="M61.26,136.08a18.41,18.41,0,0,0,12.17-.16c.48-.17.28-.92-.21-.77a25.18,25.18,0,0,1-11.83.45.25.25,0,0,0-.13.48Z"/><path class="cls-7" d="M73.13,135a20.21,20.21,0,0,1-9-7.71.59.59,0,0,0-1,.59,15.24,15.24,0,0,0,9.77,7.69c.33.07.58-.41.24-.57Z"/><path class="cls-7" d="M63.87,127.42A21.63,21.63,0,0,0,67,128.49a10.64,10.64,0,0,0,3.25.74.22.22,0,0,0,.12-.4,10.54,10.54,0,0,0-3.17-1,21.45,21.45,0,0,0-3.25-.72.19.19,0,0,0-.1.35Z"/><path class="cls-7" d="M71.17,128.82a10.47,10.47,0,0,1-.5-5c0-.39-.56-.45-.66-.09a7.44,7.44,0,0,0,.71,5.23c.13.24.55.07.45-.18Z"/><path class="cls-7" d="M70.58,124.26c1.64.24,3.33.27,5,.37.32,0,.46-.29.42-.56a8.69,8.69,0,0,0-.76-3.37.34.34,0,0,0-.61.08,9,9,0,0,0,.53,3.53l.42-.56c-1.63,0-3.29-.11-4.92,0-.27,0-.37.45-.07.5Z"/><path class="cls-7" d="M81.16,136.76a23.44,23.44,0,0,1-3-8.27l-.81.47c1.57,1.48,4,3.45,6.28,3.35a.26.26,0,0,0,.13-.48c-.88-.6-1.93-.84-2.87-1.36a12.7,12.7,0,0,1-2.85-2.2.5.5,0,0,0-.82.48,17.64,17.64,0,0,0,3.59,8.3c.18.21.51-.06.38-.29Z"/><path class="cls-7" d="M83.89,131.05a7.59,7.59,0,0,1-.74-3.81l-.46.47c1.09,0,2.2,0,3.3,0a.47.47,0,0,0,0-.94c-1.1,0-2.21,0-3.3,0a.48.48,0,0,0-.47.47,7.7,7.7,0,0,0,1.19,4.09.28.28,0,0,0,.48-.28Z"/><path class="cls-7" d="M86.76,126.72a34.69,34.69,0,0,0-1.46-4.31l-.56.73a8.49,8.49,0,0,0,2.7.16.47.47,0,0,0,.11-.84,8.81,8.81,0,0,0-2.81-.47.58.58,0,0,0-.55.73,33.39,33.39,0,0,0,2,4.25.33.33,0,0,0,.6-.25Z"/><path class="cls-7" d="M77.33,136.76a28.13,28.13,0,0,1-2.19-7.29l-.67.51a7.12,7.12,0,0,1,2.93,1.3c.46.33,1-.41.6-.77A6.72,6.72,0,0,0,74.75,129c-.29-.06-.71.14-.66.5A16.7,16.7,0,0,0,76.68,137c.21.3.81.12.65-.28Z"/><path class="cls-7" d="M57,103.38a1.31,1.31,0,0,1-.79,2c-.37.1-.31.71.09.68A1.93,1.93,0,0,0,57.51,103c-.23-.28-.72.09-.51.38Z"/><path class="cls-7" d="M96.85,111a9.41,9.41,0,0,1,4.65-4.45.3.3,0,0,0-.23-.55,8.24,8.24,0,0,0-4.81,4.84c-.09.22.28.37.39.16Z"/><path class="cls-7" d="M108.2,98.4a8.54,8.54,0,0,0,0-11.74c-.6-.68-1.65.35-1,1A7.93,7.93,0,0,1,107.69,98c-.22.3.26.65.51.39Z"/><path class="cls-7" d="M120.72,87.26a15.5,15.5,0,0,1,1.15,4.47c.11,1.39-.23,2.77-.09,4.13a.21.21,0,0,0,.39.1c1.39-2.52.28-6.52-1-8.9-.13-.27-.6-.08-.49.2Z"/><path class="cls-7" d="M49,124.42a6.08,6.08,0,0,1,1.11,3.49A10.51,10.51,0,0,1,49,131.13a.36.36,0,0,0,.52.4c2.47-1.48,1.83-5.86-.05-7.51-.27-.23-.73.07-.52.4Z"/><path class="cls-7" d="M69.75,88.24c.22-.44.45-.88.66-1.34a0,0,0,0,0-.06,0c-.25.43-.46.88-.69,1.32,0,.06.06.11.09,0Z"/><path class="cls-7" d="M89,50.68a26.85,26.85,0,0,1,12.88-1.21c.37.06.54-.5.16-.58a20.56,20.56,0,0,0-13.16,1.5.16.16,0,0,0,.12.29Z"/><path class="cls-7" d="M124.52,51.67c13.85,19.39,17.71,41.21,10.48,64-.24.76.87,1,1.16.32,8.6-20.67,4.14-48.24-11.06-64.77-.28-.31-.83.1-.58.45Z"/><path class="cls-7" d="M102.92,127.76c-1.21,6.32-4.27,10.91-8.27,15.77a.32.32,0,0,0,.45.45c4.71-3.88,7.37-10.19,8.31-16.08,0-.32-.43-.47-.49-.14Z"/><path class="cls-7" d="M95,145.67c16.21-.45,35.95-9.11,43.76-24.2a.3.3,0,0,0-.47-.37c-5.82,6.17-10.91,12.09-18.41,16.39A60.87,60.87,0,0,1,95,145.22c-.28,0-.29.46,0,.45Z"/><path class="cls-7" d="M138.08,120.81a9,9,0,0,1-1.06-4c0-1.11.23-2.2.22-3.31a.21.21,0,0,0-.4-.11c-1.64,2.23-.57,5.56.8,7.63a.25.25,0,0,0,.44-.25Z"/><path class="cls-7" d="M62.1,82.06c-2.44,4.2-2.47,10,.74,13.89.33.39.91-.1.68-.52-2.33-4.26-3-8.5-.86-13,.17-.38-.35-.7-.56-.33Z"/><path class="cls-7" d="M64.73,94.31a36,36,0,0,0,12-8.36c.12-.13-.06-.29-.19-.19a96.48,96.48,0,0,1-12,8.3c-.17.1,0,.33.15.25Z"/></svg>