<svg id="illustration" xmlns="http://www.w3.org/2000/svg" viewBox="0 0 198.43 152.24"><defs><style>.cls-1{fill:#fcc28c;}.cls-2{fill:#1b1a18;}.cls-3{fill:#ebe846;}.cls-4{fill:#4995d1;}.cls-5{fill:#70ccd8;}.cls-6{fill:#111242;}.cls-7{fill:#231f20;}.cls-8{fill:#eeea60;}.cls-9{fill:#c59062;}.cls-10{fill:#f6d1b5;}.cls-11{fill:#f1eeb7;}.cls-12{fill:#d3cb3e;}.cls-13{fill:#253169;}.cls-14{fill:#e5e54e;}.cls-15{fill:#253130;}</style></defs><path class="cls-1" d="M92,134.05l2.37-.74,4.1-3,4.35-3.4,3.57-2.62,1.16,2.16,1.24,5.35,11.71-3.49,9.57-3.48-1.13-7.07-.75-8L128,107l-11.7-15.25,2.64.45,1.56-3,.73-3.7.73-2.3,1.84-4L124.2,76,123,73.08l-2-1.19-2.74.47-1.79,1.5L115.81,76l-.14,4.25.07,4.31-1.37,1.13-2.56.47-.73-.17-.28-8.49-.9-7.38L109,66.8l-3.54-.54-.41-4.49-2.24-3.45a6.56,6.56,0,0,0-4.93-1.45c-3.19.26-5.51.71-5.51.71H87.12l-4.82.54L82,59.83,78.77,80.25,72.71,92.79l-3.85,7.26-3.55,5.76.31,2.06,1.56.64,1.13-.13L72.43,105l5-2.87,1.67-.76L80.24,104l.3,1.57.52,4.23-.15,4.28.54,1.17v.63l.36.55-.36,1.64.82,1.2,1.39.43,1.52,2.11,2.52,3.5.65,3.25.45,3.77.78,1,1,.52Z"/><path class="cls-2" d="M127.81,54.49l.44,4.68,3.37,26.33,1.32,9,1.31,3.17,2.22,2.25,2.65.8,2.52-.74,1.06-1.09V100l.53-.38-1.79,2.84L137.77,105l-3.53,1.36-5.31.49-4.71-1-4-2.31-1.13-.68a16.27,16.27,0,0,1-2.43-5.31,18,18,0,0,1-.57-4.6l-.35-1.43,2,.49,1.85-1,.94-1.81.73-3.7,1.12-3.16,1.45-3.17L124.2,76,123,73.08l-2-1.19-2.74.47-1.79,1.5L115.81,76l-.14,4.25.07,4.31-.36.84-1,.29-2.56.47-.73-.17L109.9,70.12l-.54-2L109,66.8l-3.54-.54-.17-3.75-1.37-2.91-1.11-1.28s-.44-1.32-4.93-1.45C93.61,56.76,127.81,54.49,127.81,54.49Z"/><polygon class="cls-3" points="83.42 59.74 86.38 59.16 89.87 60.31 92.65 62.56 94.81 66.5 95.37 70.5 94.97 75.49 93.28 79.75 90.92 82.34 88.49 83.66 86.38 84.17 83.42 83.66 81.18 82.17 78.75 79.17 77.65 75.24 77.12 71.31 77.39 67.16 78.33 63.72 79.84 62.05 81.24 61.12 83.42 59.74"/><polygon class="cls-4" points="82.3 63.1 84.38 62.56 87.7 63.84 89.68 67 90.3 70.5 90.3 74.75 89.75 78.17 88.66 80.25 87.24 81.56 84.97 82.34 81.84 81.01 79.73 78.17 78.33 72.98 78.33 68.75 79.74 65.5 81.12 63.99 82.3 63.1"/><polygon class="cls-5" points="83.86 62.56 83.15 64.73 82.49 67.56 82.45 71.67 82.52 76.58 82.58 80.25 82.49 81.29 84.32 82.21 84.97 82.34 84.57 80.3 84.38 77.12 84.56 74.43 84.93 70.93 85.43 68.35 85.43 68.04 84.68 67.81 84.47 66.81 84.97 65.41 85.43 64.16 85.43 63.79 85.93 62.87 83.86 62.56"/><path class="cls-6" d="M66.48,57l-.14,1.16.53,1,1.31.59,4.69-.15,6.25-.77,3.33-.48,5.67-.67L97,57l10-.85,23.13-1.87,4.67-.66,2.71-.3.95-.92L138,52l-4.88.33h-6.55L126,47.43l-.76-6.58-1.8-15.61-2.61-21L76.87,5.4s-.81-1-.47,1.81.59,5.72.59,5.72l1.13,10.44,3.72,32.46Z"/><polygon class="cls-7" points="79.24 32.31 123.93 29.59 124.99 38.78 80.4 42.93 79.24 32.31"/><polygon class="cls-8" points="80.56 5.15 86.24 55.56 93.18 54.99 87.24 5.15 80.56 5.15"/><path class="cls-9" d="M78.73,80.61C79.94,83.32,83.14,85,86,85a8.28,8.28,0,0,0,4.24-1.22c1.47-.87,2-1.88,2.83-3.24,0-.06-.06-.12-.1-.06a8.88,8.88,0,0,1-7,3.61c-3,0-4.92-1.78-6.72-3.89-.3-.34-.75.1-.59.45Z"/><path class="cls-9" d="M95.44,73.07c.42.87,2.16.4,2.75,0a2.55,2.55,0,0,0,.7-3c-.11-.19-.47-.12-.44.12a2.22,2.22,0,0,1-.73,2.31,2,2,0,0,1-1.21.43c-.34,0-.66-.15-1,0a.13.13,0,0,0-.08.2Z"/><path class="cls-9" d="M79.42,102.07c2.09-.14,4.57-1.46,6.39-2.44,1.3-.7,2.45-1.9,2-3.47a.26.26,0,0,0-.5.07c.14,3.72-5.84,3.58-8.12,5.38a.27.27,0,0,0,.19.46Z"/><path class="cls-9" d="M80,102.54c.35-.24.63-.56,1-.77s.82-.28,1.15-.53a.21.21,0,0,0,0-.37,2.69,2.69,0,0,0-2.39,1.37c-.08.18.09.43.29.3Z"/><path class="cls-9" d="M79.88,102.52a35.31,35.31,0,0,0,6.05-2.8,3.29,3.29,0,0,0,1.81-3.38c0-.31-.59-.24-.55.07.44,3.26-5.34,4.46-7.49,5.69-.22.12-.07.51.18.42Z"/><path class="cls-9" d="M83.15,112.54c1.52.46,3.4-.23,4.84-.76a14.58,14.58,0,0,0,4.34-2.46c.22-.19-.07-.55-.32-.4a22.49,22.49,0,0,1-4.77,2.41c-1.34.44-2.86.45-4.11,1.07a.08.08,0,0,0,0,.14Z"/><path class="cls-9" d="M106.82,126a8.23,8.23,0,0,0,1.16-1.68,10.54,10.54,0,0,1,2.87-2.57,20.2,20.2,0,0,0,4-3.74c2.22-2.76,4.21-6.55,4.07-10.19a.33.33,0,0,0-.64-.09c-1.32,4.6-2.54,8.61-6.25,11.93-1.64,1.47-6.29,3.49-5.75,6.21a.3.3,0,0,0,.5.13Z"/><path class="cls-9" d="M107,124.42a10.3,10.3,0,0,0,.73,3.39c.37,1.26.77,2.52,1.19,3.77a.29.29,0,0,0,.56-.15c-.33-1.28-.69-2.55-1.06-3.81a10.09,10.09,0,0,0-1.24-3.24.1.1,0,0,0-.18,0Z"/><path class="cls-9" d="M108.52,131a.78.78,0,0,0,0,.37.18.18,0,0,0,.36,0,.78.78,0,0,0,0-.37.15.15,0,0,0-.28,0Z"/><path class="cls-9" d="M117.08,83.51c.74-.48.79-1.94,1.17-2.7a8.27,8.27,0,0,1,2.87-2.8.45.45,0,0,0-.34-.81,6.16,6.16,0,0,0-3.26,2.8c-.49.78-1.5,2.73-.58,3.49a.12.12,0,0,0,.14,0Z"/><path class="cls-9" d="M119.93,77.53a10.53,10.53,0,0,1,.66.94,2.23,2.23,0,0,1,.38,1,.6.6,0,0,0,1.19,0,2.15,2.15,0,0,0-2.06-2.4.24.24,0,0,0-.17.41Z"/><path class="cls-9" d="M117.07,89.37a3.35,3.35,0,0,1,1-.05c.75.07.77-1.17,0-1.18a1.31,1.31,0,0,0-1.33.85c-.08.24.17.41.38.38Z"/><path class="cls-9" d="M82.61,58.68c-.26.22-.39.38-.33.71a.23.23,0,0,0,.39.11c.23-.25.19-.47.09-.78a.09.09,0,0,0-.15,0Z"/><path class="cls-9" d="M82.53,59.69a.93.93,0,0,0,.49-1,.31.31,0,0,0-.45-.19.93.93,0,0,0-.26,1.14.15.15,0,0,0,.22.08Z"/><path class="cls-9" d="M82.74,59.12c3,.3,6.14-.37,9.11-.69,2.74-.29,5.51-.51,8.24-.91.4-.06.3-.71-.1-.7-3,.11-6.07.44-9.1.68-2.73.21-5.6.14-8.24.91a.36.36,0,0,0,.09.71Z"/><path class="cls-9" d="M98.71,70.77c8.16,5.18,7.85,14.77,8.05,23.35.23,9.44,1,18.9,2,28.3,0,.28.48.29.45,0-1-10.67-1.28-21.32-1.64-32-.24-7.19-1.43-16.38-8.67-20a.19.19,0,0,0-.19.32Z"/><path class="cls-9" d="M108.52,123a13.07,13.07,0,0,0,2.83,8.28c.21.28.69,0,.48-.28a18.27,18.27,0,0,1-2.92-8.06c0-.24-.38-.16-.39.06Z"/><path class="cls-9" d="M88.81,131.66l-.07.08a.32.32,0,0,0,0,.38,3.67,3.67,0,0,0,2.94,2.11,2.86,2.86,0,0,0,3-1.48c.06-.14-.11-.31-.26-.26-1.46.59-2.68,1.4-4.19.34-.13-.1-1.13-1.45-1.38-1.17Z"/><path class="cls-9" d="M93.89,133.21a9.07,9.07,0,0,0,2.44-1.39.14.14,0,0,0-.14-.24A9.26,9.26,0,0,0,93.78,133c-.08.06,0,.22.11.18Z"/><path class="cls-9" d="M94.06,133.07a7.14,7.14,0,0,0,1.57-.71,7,7,0,0,0,1.51-.84c.14-.13,0-.35-.19-.31a7.18,7.18,0,0,0-1.56.74,8.41,8.41,0,0,0-1.47.88c-.12.1,0,.28.14.24Z"/><path class="cls-9" d="M85,120.44c3.21.5,7.33-1.92,9-4.57.12-.2-.15-.38-.32-.24a17.38,17.38,0,0,1-4,2.86A35.53,35.53,0,0,1,85,119.8c-.29.09-.34.59,0,.64Z"/><path class="cls-9" d="M95.71,109.31c.12.2.29.34.3.59s-.12.37-.15.57.16.25.29.22c.75-.18.44-1.66-.3-1.63a.17.17,0,0,0-.14.25Z"/><path class="cls-9" d="M85.1,115.77A8.88,8.88,0,0,0,92,113.49a.15.15,0,0,0-.19-.24,27.52,27.52,0,0,1-3.39,1.7,23.42,23.42,0,0,1-3.31.68.07.07,0,0,0,0,.14Z"/><path class="cls-10" d="M65.91,104.88a2.48,2.48,0,0,0,0,2.6c.4.63,1.31,1.37,2.09,1.13A.33.33,0,0,0,68,108c-.55-.26-1.09-.22-1.53-.74a1.85,1.85,0,0,1-.11-2.12.28.28,0,0,0-.48-.27Z"/><path class="cls-10" d="M81.41,113.34a1.31,1.31,0,0,0-.08.76,3.26,3.26,0,0,0,.16,1c.13.31.63.3.62-.08a3,3,0,0,0-.22-1,1.32,1.32,0,0,0-.37-.71.07.07,0,0,0-.11,0Z"/><path class="cls-10" d="M81.57,116.42c-.65,1,.55,3.16,1.68,3.24a.3.3,0,0,0,.26-.46,2.26,2.26,0,0,0-.53-.49,2.76,2.76,0,0,1-.6-.75c-.28-.49-.29-1.06-.56-1.54a.15.15,0,0,0-.25,0Z"/><path class="cls-10" d="M82.45,95.72a4.42,4.42,0,0,1,1.42-1,2,2,0,0,1,2,.5A2,2,0,0,1,85,98.57a.34.34,0,0,0,.18.65,2.8,2.8,0,0,0,1.43-4.63,2.69,2.69,0,0,0-2.71-.75c-.8.23-1.7.86-1.75,1.76a.18.18,0,0,0,.3.12Z"/><path class="cls-10" d="M72.59,96.56a23.19,23.19,0,0,0,3.34-5.11c.84-1.52,2.27-3.32,2.15-5.1a.4.4,0,0,0-.59-.34c-1.53.92-2.19,3.07-2.95,4.62a23.58,23.58,0,0,0-2.31,5.72.22.22,0,0,0,.36.21Z"/><path class="cls-10" d="M118.2,75.39c1.06-.57,2.3-.8,3.07.33.61.89,2.09,0,1.46-.85-1.2-1.65-4.09-2.27-5.14-.09a.45.45,0,0,0,.61.61Z"/><path class="cls-10" d="M98.55,60.63c0,.69.62,1.26.92,1.87a20.85,20.85,0,0,1,.71,2.54c.2.6,1.24.74,1.36,0a4.48,4.48,0,0,0-.78-3c-.42-.67-1.14-1.68-2-1.62a.2.2,0,0,0-.19.19Z"/><path class="cls-11" d="M89.26,62.74c.92,2.32,2.64,4,3.2,6.59.75,3.44-.23,6.51-1.64,9.61-.15.34.24.71.53.42a11.42,11.42,0,0,0,2.9-9.63c-.39-2.66-1.85-6.39-4.57-7.41a.35.35,0,0,0-.42.42Z"/><path class="cls-11" d="M88.1,69a16.22,16.22,0,0,1,.57,3.67c0,1.11-.3,2.18-.34,3.29a.26.26,0,0,0,.48.13c1-2.06.61-5.23-.34-7.25-.1-.21-.42-.06-.37.16Z"/><polygon class="cls-12" points="95.37 68.56 96.24 68.37 97.19 68.47 98.12 69.25 98.46 70.5 98.1 71.7 97.19 72.36 96.31 72.48 95.55 72.36 95.55 70.88 95.23 69.55 95.37 68.56"/><polygon class="cls-13" points="108.78 131.81 130.06 124.84 133.06 134.31 131.86 134.64 125.77 135.4 120.19 136.99 113.96 139.96 110.62 141.81 106.39 142.93 105.33 142.5 107.41 136.5 108.78 131.81"/><polygon class="cls-14" points="111.59 133.34 110.85 134.05 110.85 135.81 112.18 136.49 112.93 136.18 113.75 135.31 113.58 134.31 112.99 133.5 111.59 133.34"/><path class="cls-15" d="M127.53,126.06c-.28,2.75.93,6.34,2.26,8.72a.72.72,0,0,0,1.31-.56c-.44-1.38-1-2.7-1.39-4.11s-.52-2.86-1-4.21a.59.59,0,0,0-1.16.16Z"/><path class="cls-15" d="M133,134.06c-3.9-1.37-9.35.14-13,1.65-2.32.95-4.45,2.25-6.67,3.41a33.36,33.36,0,0,1-7.69,2.72c-.51.13-.35.83.12.87,4.47.39,8.63-2.58,12.46-4.46a32,32,0,0,1,7.22-2.57c2.5-.56,5.11-.38,7.58-1a.34.34,0,0,0,0-.64Z"/><path class="cls-15" d="M130.59,133.91a5.14,5.14,0,0,0,1.71.48c.5.07.6-.76.12-.87a4.77,4.77,0,0,0-1.68-.14c-.25,0-.42.39-.15.53Z"/><path class="cls-15" d="M128.49,125.88c-1.3,2.7.41,6.81,3,8.18a.65.65,0,0,0,.65-1.12,5.47,5.47,0,0,1-2.38-3.12c-.4-1.27-.24-2.66-.74-3.87-.08-.19-.38-.3-.49-.07Z"/><path class="cls-15" d="M132.67,133.36a16.42,16.42,0,0,0-1.08-4.24,11,11,0,0,0-1.58-3.7c-.31-.37-.91,0-.92.38a11.35,11.35,0,0,0,1.21,4,15.7,15.7,0,0,0,1.77,3.75c.17.23.62.19.6-.16Z"/><path class="cls-15" d="M128.92,126c-.73,1.87,0,5.79,1.6,7.1a.39.39,0,0,0,.65-.38,23.38,23.38,0,0,0-1.2-3.3c-.33-1.12-.35-2.34-.76-3.42a.15.15,0,0,0-.29,0Z"/><path class="cls-15" d="M129.71,128.36c.06.86.09,1.69.22,2.53a3.59,3.59,0,0,0,.82,2.23.53.53,0,0,0,.88-.24,4.05,4.05,0,0,0-.52-2.15c-.32-.8-.65-1.61-.9-2.43-.08-.27-.52-.23-.5.06Z"/><path class="cls-15" d="M131.82,132.37a2.78,2.78,0,0,0-.07,1.59c.13.59,1.14.47,1.07-.15a2.81,2.81,0,0,0-.61-1.54c-.11-.16-.34-.05-.39.1Z"/><path class="cls-7" d="M78.49,80.08c-3.78,7.6-7.08,15.44-11.56,22.67-.89,1.43-3.73,4.43-1.46,5.91,1.73,1.14,3.54-.6,4.78-1.63A33.64,33.64,0,0,1,81.16,101c2.1-.7,5.3-1,6.47-3.24,2.09-3.91-4.28-6.62-5.69-2.22-.09.29.37.5.49.21,1.88-4.4,6.85.29,3.58,2.85a8.61,8.61,0,0,1-2.83,1.17,43.38,43.38,0,0,0-5.31,1.86,33.71,33.71,0,0,0-5.7,3.23c-.69.49-1.36,1-2,1.54l-1.18,1q-2.42,2.58-3.41-1.43c.14-.87,1.38-2.14,1.85-2.89.65-1,1.27-2.1,1.87-3.17,1.21-2.13,2.35-4.31,3.45-6.5,2.16-4.29,4.3-8.59,6.32-13,.18-.39-.38-.72-.57-.34Z"/><path class="cls-7" d="M79.34,101.87c.34,2.32,1.09,4.53,1.29,6.89a29.29,29.29,0,0,1,.09,3.11,12.41,12.41,0,0,0-.14,3c.24.89,1,1.85,1.79.79.08-.11-.06-.22-.16-.17-1.09.56-.78-3.67-.77-4a26.7,26.7,0,0,0-.23-4,15.63,15.63,0,0,0-1.57-5.69c-.1-.18-.33,0-.3.13Z"/><path class="cls-7" d="M81.73,116.36c-1.36,1.43.14,3.8,2,3.54.25,0,.16-.39-.06-.41a2.11,2.11,0,0,1-1.8-1.12,2.53,2.53,0,0,1,0-1.91c0-.1-.1-.17-.17-.1Z"/><path class="cls-7" d="M81.93,109.22a13.79,13.79,0,0,1,.51,1.49,4.6,4.6,0,0,0,.28,1.44.31.31,0,0,0,.53,0,2.09,2.09,0,0,0,0-1.66,3.48,3.48,0,0,0-.87-1.51c-.16-.16-.5,0-.41.24Z"/><path class="cls-7" d="M83.17,112.21c4.84.16,11.19-3.18,14-7.14.1-.14-.1-.26-.22-.17a31.33,31.33,0,0,1-6.36,4.48c-2.43,1.14-4.91,1.37-7.5,1.93-.51.11-.38.88.13.9Z"/><path class="cls-7" d="M83.32,115.87a14.14,14.14,0,0,0,10-4.2.19.19,0,0,0-.23-.3A33.51,33.51,0,0,1,88.73,114a43,43,0,0,1-5.44,1.62.11.11,0,0,0,0,.22Z"/><path class="cls-7" d="M84,120.63c.87,1.82,2.27,3.28,3.09,5.16a21.28,21.28,0,0,1,1.52,6.54.19.19,0,0,0,.38,0c.18-3.81-1.38-9.72-4.9-11.79a.07.07,0,0,0-.09.09Z"/><path class="cls-7" d="M88.45,132.18c1.18,2.63,4.22,2.39,6.4,1.17a55.77,55.77,0,0,0,6.25-4.7l6.34-4.88c5.91-4.59,14.39-12,10-20.42-.17-.32-.74-.09-.6.26,3.13,7.62-2.61,13.84-8.17,18.28-2.76,2.21-5.55,4.38-8.33,6.57-2.41,1.91-9.1,8.65-11.52,3.5-.11-.24-.47,0-.36.22Z"/><path class="cls-7" d="M116.36,75.21c1.65-4.59,7.4-3.49,7.59,1.12.09,2.06-.83,3.91-1.72,5.71a20.18,20.18,0,0,0-1.59,3.81,14.25,14.25,0,0,0-.28,1.61c-.06.72-.13,1.44-.24,2.15q-.27,2.73-3.59,1.9c-.29-.33-.79.16-.49.48,1.61,1.73,3.78.45,4.47-1.49.77-2.19.52-4.49,1.51-6.7a28.75,28.75,0,0,0,2.25-5.38c.51-2.39.09-5.28-2.39-6.38a4.16,4.16,0,0,0-5.8,3.1.14.14,0,0,0,.28.07Z"/><path class="cls-7" d="M115.25,90.51c.27,1.19.59,2.38.79,3.58s.2,2.43.42,3.63c0,.19.37.2.4,0a14,14,0,0,0-1.37-7.31c-.06-.14-.27,0-.24.1Z"/><path class="cls-7" d="M115.77,73.66a74.56,74.56,0,0,0-.41,7.76c0,1.08.47,3-.5,3.83s-3,.51-4,.62a.3.3,0,0,0,0,.59,17,17,0,0,0,5-.87.31.31,0,0,0,.22-.3c-.15-3.88,0-7.74.22-11.63,0-.32-.45-.3-.49,0Z"/><path class="cls-7" d="M102.67,58.4c1.74,2.44,2.92,4.66,2.47,7.77,0,.16,0,.37.23.4,1.18.21,2.35.39,3.54.55.41.06.59-.58.17-.63-.71-.1-2.88,0-3.22-.74a9.89,9.89,0,0,1,0-1.53,8.92,8.92,0,0,0-.2-1.36,7.68,7.68,0,0,0-2.8-4.68.16.16,0,0,0-.22.22Z"/><path class="cls-7" d="M109.24,67.16c.25,3.13.92,6.23,1.19,9.37s.28,6.3.37,9.46a.28.28,0,0,0,.56,0c.27-6-.07-13.07-1.88-18.87,0-.12-.25-.11-.24,0Z"/><path class="cls-7" d="M127.65,56.43c1.31,11.23,2.75,22.46,4.18,33.67.45,3.54.93,7.76,4.16,9.94,2.18,1.48,5.47,1.43,6.86-1.07a.17.17,0,0,0-.27-.21c-4.64,4.66-8.79-1.47-9.59-5.77s-1.16-8.45-1.71-12.65c-1-8-2-16-3.14-24,0-.27-.52-.21-.49.07Z"/><path class="cls-7" d="M118.8,102.69c3,3.63,8.93,4.92,13.44,4.34a16.48,16.48,0,0,0,11.11-6.41c.09-.12-.11-.27-.21-.16a18.32,18.32,0,0,1-11.65,6.1c-4.9.44-8.55-1.6-12.61-4-.07,0-.13,0-.08.11Z"/><path class="cls-7" d="M127.76,107c-.13,6,.88,12.18,1.83,18.07,0,.32.62.25.57-.08-.78-6-1.06-12.09-1.95-18.06,0-.26-.45-.18-.45.07Z"/><path class="cls-7" d="M129.81,125.21c.42,3,1.85,6.31,2.92,9.19.15.41.79.25.66-.18-.87-3-1.67-6.47-3.17-9.18-.13-.25-.45-.06-.41.17Z"/><path class="cls-7" d="M106.22,124.35c.9,2.83,1.54,5.66,2.32,8.52a.15.15,0,0,0,.3-.05,21.6,21.6,0,0,0-2.31-8.6c-.08-.17-.36,0-.31.13Z"/><path class="cls-7" d="M108.85,131.46c-1.47,3.56-2.55,7.32-3.84,10.95-.15.4.49.57.64.17a70.07,70.07,0,0,0,3.46-11.05.13.13,0,1,0-.26-.07Z"/><path class="cls-7" d="M105.43,143c4,1,7.8-2.41,11.12-4a41.06,41.06,0,0,1,16.11-4,.41.41,0,0,0,0-.82A37.18,37.18,0,0,0,119,137c-4.62,1.87-8.44,5.27-13.54,5.64-.2,0-.27.32,0,.37Z"/><path class="cls-7" d="M108.83,132a70,70,0,0,0,11.25-3.1,71.46,71.46,0,0,0,10.14-3.8c.31-.16.09-.65-.24-.56-3.57,1-7,2.56-10.56,3.73s-7.22,2-10.7,3.35a.2.2,0,0,0,.11.38Z"/><path class="cls-7" d="M111.68,133.63c.73,0,1.47.18,1.72,1a1.25,1.25,0,0,1-1,1.52,1.12,1.12,0,0,1-1.45-.86,1.35,1.35,0,0,1,.09-.82,5.56,5.56,0,0,0,.37-.73.28.28,0,0,0-.27-.35c-1,0-1.06,1.65-.77,2.34a1.79,1.79,0,0,0,2.36,1,1.83,1.83,0,0,0,1.15-2.29,1.87,1.87,0,0,0-2.36-1.17.23.23,0,0,0,.11.42Z"/><path class="cls-7" d="M83,60.64c-7.47-.7-6.34,12.4-5.24,16.53,1.62,6.09,7.77,9.58,13.3,5.55,5.3-3.86,5.65-12.69,3.23-18.23a9.5,9.5,0,0,0-6.4-5.77c-2.74-.61-5.89.34-7.27,2.88a.35.35,0,0,0,.54.42c4.79-4.22,11.22-1.43,13.15,4.3,1.7,5,1.12,11.71-3.12,15.36-5.19,4.47-11.58,1-12.94-5.1C77.12,71.65,76.54,62.13,83,61.06c.25,0,.16-.39-.06-.42Z"/><path class="cls-7" d="M82.68,62.77c-9.71,2.93-3,25,5.17,18.73,2-1.51,2.61-4,2.75-6.38.17-2.86.24-6.19-.85-8.88a6.5,6.5,0,0,0-4.11-4.13,4.21,4.21,0,0,0-4.88,2c-.2.43.33.93.7.54,3.88-4.17,7.8.76,8.32,4.78.43,3.42.81,8.54-1.83,11.15-4.52,4.47-8.27-2.3-9-6-.85-4.68-.22-8.62,3.79-11.52.12-.09,0-.3-.11-.25Z"/><path class="cls-7" d="M83.8,63.54C82.07,64.75,82,67,82,68.89c0,3.78,0,7.64.26,11.41a.31.31,0,0,0,.62,0c.25-5.41-1.19-11.5,1.19-16.47.09-.17-.09-.41-.28-.29Z"/><path class="cls-7" d="M85.45,63.72C85,64.63,83.54,67,84.27,68a.89.89,0,0,0,1.49,0l-.46-.27a38.9,38.9,0,0,0-.82,14.5c0,.35.67.27.62-.08a39,39,0,0,1,.73-14.28c.06-.25-.27-.48-.46-.27a1.41,1.41,0,0,1-.21-2,9.33,9.33,0,0,0,.54-1.8c0-.14-.18-.25-.25-.11Z"/><path class="cls-7" d="M81.88,60.79a6.61,6.61,0,0,0,.83-2,.22.22,0,0,0-.37-.16,6.54,6.54,0,0,0-.9,1.86c-.13.3.29.57.44.26Z"/><path class="cls-7" d="M82.14,59.92a8.65,8.65,0,0,0,.6-1.36c.11-.31-.37-.43-.49-.13a7.27,7.27,0,0,0-.42,1.35.17.17,0,0,0,.31.14Z"/><path class="cls-7" d="M82.3,58.34c7.59-.26,15.18-1.13,22.75-1.74s15.18-1.14,22.76-1.83c.35,0,.36-.58,0-.56-7.59.52-15.17,1.19-22.76,1.79s-15.21.94-22.75,1.89c-.28,0-.3.46,0,.45Z"/><path class="cls-7" d="M127.77,54.3a6.72,6.72,0,0,0-.32,1.53,4.83,4.83,0,0,0-.1,1.56.19.19,0,0,0,.35,0A4.61,4.61,0,0,0,128,56a7,7,0,0,0,0-1.65c0-.13-.2-.09-.23,0Z"/><path class="cls-7" d="M82.47,58.24c-2.57.29-5.13.61-7.7.79-1,.07-8.71,1.14-8-1.38a.26.26,0,0,0-.5-.14c-.7,2.38,2,2.39,3.67,2.33a93.07,93.07,0,0,0,12.58-1.26c.19,0,.15-.36,0-.34Z"/><path class="cls-7" d="M127.82,54.37a24,24,0,0,0,4.85-.28,29,29,0,0,0,4.57-.49c1-.27,1.85-1,1.08-2-.19-.24-.6,0-.42.24.88,1.26-2.35,1.41-2.81,1.45l-2.83.24a23.23,23.23,0,0,0-4.48.61.13.13,0,0,0,0,.26Z"/><path class="cls-7" d="M66.48,57.17C72,56.87,77.74,56.9,83.2,56c.22,0,.16-.37,0-.38-5.51-.14-11.17.66-16.67,1.08-.28,0-.28.45,0,.43Z"/><path class="cls-7" d="M123.49,52.83c4.66.5,9.83-.27,14.5-.58.3,0,.31-.48,0-.47-4.72.12-9.9-.18-14.53.76-.18,0-.12.27,0,.29Z"/><path class="cls-7" d="M82,55.86c-1.46-16.24-3.5-32.44-5.23-48.65,0-.44-.74-.44-.69,0C78,23.42,79.54,39.69,81.7,55.86c0,.18.3.19.28,0Z"/><path class="cls-7" d="M76.63,5.61C84,5.69,91.37,5,98.72,4.81s14.73-.21,22.1-.1a.43.43,0,0,0,0-.85q-11.29-.18-22.6.11c-7.18.19-14.53.21-21.65,1.22-.25,0-.18.42.06.42Z"/><path class="cls-7" d="M120.85,4.36c.52,8.18,1.83,16.34,2.7,24.49.84,7.86,1.6,15.76,2.72,23.59,0,.33.62.26.59-.08C126.15,44.18,125,36,124,27.87c-1-7.83-1.54-15.77-2.84-23.55a.17.17,0,0,0-.33,0Z"/><path class="cls-7" d="M78.66,32.68c7.43.23,15.07-.8,22.5-1.26s15-.88,22.49-1.47c.46,0,.47-.74,0-.72-7.66.36-15.32.91-23,1.4-7.3.46-14.86.42-22.08,1.55-.29,0-.21.49.07.5Z"/><path class="cls-7" d="M80.34,43.15c15-.75,30.08-2.3,45-4,.45,0,.47-.75,0-.72-15,1-30.14,2.29-45.07,4.3-.25,0-.19.44.06.43Z"/><path class="cls-7" d="M96,109a2.62,2.62,0,0,1,.41.9c0,.28-.14.56,0,.83a.17.17,0,0,0,.17.13c1-.1.55-2.1-.4-2.09A.16.16,0,0,0,96,109Z"/><path class="cls-7" d="M116.49,83.61h-.16s0,.08,0,.08l.16,0c.07,0,.07-.12,0-.11Z"/><path class="cls-7" d="M116.65,84a24.12,24.12,0,0,1,1.83-4.66,28.85,28.85,0,0,1,3.3-3.76c.13-.15,0-.33-.21-.26-2.84,1.22-5.37,5.59-5.18,8.65a.13.13,0,0,0,.26,0Z"/><path class="cls-7" d="M120.42,77a2.7,2.7,0,0,1,1,1.09,3.4,3.4,0,0,1,.16,1.45.24.24,0,0,0,.44.12,1.86,1.86,0,0,0-.06-1.81,1.83,1.83,0,0,0-1.47-1.09c-.14,0-.24.16-.1.24Z"/><path class="cls-7" d="M116.66,83.34a1.65,1.65,0,0,1,1.5,1.46c0,.75-.46,1.16-1,1.57a.22.22,0,0,0,.17.41,1.89,1.89,0,0,0,1.28-2.14,1.93,1.93,0,0,0-2-1.58.14.14,0,0,0,0,.28Z"/><path class="cls-7" d="M116.2,87.89a3.44,3.44,0,0,1,1.65-1.07,13.54,13.54,0,0,0,1.57-.27.2.2,0,0,0,0-.32,2,2,0,0,0-1.9,0A3.45,3.45,0,0,0,116,87.7c-.09.15.13.34.25.19Z"/><path class="cls-7" d="M122.38,79.07a9.58,9.58,0,0,0-3,6.43.13.13,0,0,0,.25,0,20.25,20.25,0,0,1,2.93-6.3c.1-.14-.1-.27-.22-.17Z"/><path class="cls-7" d="M95.24,68.83a3.5,3.5,0,0,1,1.64,0,1.7,1.7,0,0,1,1.18,1.44,1.8,1.8,0,0,1-2.64,1.8c-.42-.21-.79.41-.37.63a2.55,2.55,0,0,0,3.79-2.29,2.49,2.49,0,0,0-1.31-2.1,2.09,2.09,0,0,0-2.44.19c-.1.12,0,.37.15.35Z"/><path class="cls-7" d="M98.82,70.44c9,.89,8.44,13.28,8.83,19.93.45,7.66.5,15.34,1.33,23,1.31,12,4.48,24.95,13.32,33.68.15.15.36-.07.23-.23-10.36-12.08-12.83-27.3-13.54-42.72-.37-8-.31-16.12-1.4-24.06-.62-4.54-3.14-11-8.85-10.15-.35,0-.22.55.08.58Z"/></svg>