<svg id="carracters" xmlns="http://www.w3.org/2000/svg" viewBox="0 0 198.43 38.23"><defs><style>.cls-1{fill:#fff;}</style></defs><path d="M168.52,28.91,167,28.4l6.3-18,2.32.6a.6.6,0,0,1-.64.42.23.23,0,0,0-.26.18L171,21.35s0,.1-.05.18c.28-.26.51-.51.76-.74a7,7,0,0,1,3.2-1.73,3.31,3.31,0,0,1,1.82.08,2.39,2.39,0,0,1,1.61,2.23c.08.88,0,1.77,0,2.66a11.81,11.81,0,0,0,.05,1.58,2.06,2.06,0,0,0,2.41,1.79A3.53,3.53,0,0,0,183.17,26,10,10,0,0,0,185,22.77c.15-.44.28-.88.43-1.34l.08,0,1.19.68c.09.05.15.09.12.21a12.65,12.65,0,0,1-2.52,4.9,5,5,0,0,1-3,1.7,4.43,4.43,0,0,1-2.71-.37,3.24,3.24,0,0,1-1.83-3c0-1.07,0-2.13,0-3.2a3.28,3.28,0,0,0-.14-.93,1.37,1.37,0,0,0-1.59-1,4.36,4.36,0,0,0-2.34,1.1,10.86,10.86,0,0,0-3.38,5C169.08,27.32,168.8,28.1,168.52,28.91Z"/><path class="cls-1" d="M17.24,28.91l-1.56-.51,6.31-18,2.31.6a.59.59,0,0,1-.63.42.24.24,0,0,0-.27.18c-1.21,3.26-2.44,6.51-3.66,9.76l0,.18c.27-.26.5-.51.75-.74a7,7,0,0,1,3.21-1.73,3.32,3.32,0,0,1,1.82.08,2.42,2.42,0,0,1,1.61,2.23c.08.88,0,1.77,0,2.66a10.35,10.35,0,0,0,.05,1.58,2,2,0,0,0,2.4,1.79A3.55,3.55,0,0,0,31.9,26a10.13,10.13,0,0,0,1.77-3.26c.16-.44.28-.88.43-1.34l.08,0,1.19.68c.09.05.16.09.12.21A12.39,12.39,0,0,1,33,27.26,5,5,0,0,1,30,29a4.44,4.44,0,0,1-2.71-.37,3.22,3.22,0,0,1-1.82-3c0-1.07,0-2.13,0-3.2a3.28,3.28,0,0,0-.14-.93,1.36,1.36,0,0,0-1.58-1,4.32,4.32,0,0,0-2.34,1.1,10.79,10.79,0,0,0-3.38,5C17.81,27.32,17.52,28.1,17.24,28.91Z"/><path d="M177.2,18.39l-.2-.46c.11-.1.18-.1.24.05s.19.45.3.7c-.22.07-.4.14-.59.18s-.12,0-.19-.06l0-.07.31-.12a4.21,4.21,0,0,0-4.82.85l1.24-2.52c.16,0,.19.07.12.21-.24.46-.46.92-.69,1.38l-.12.28A4.37,4.37,0,0,1,177.2,18.39Z"/><path d="M171.1,12.6l.76-.36.09.15a.21.21,0,0,1-.08.06l-.89.43a.17.17,0,0,1-.26-.09c-.14-.33-.3-.64-.46-1l.17-.09.41.85.5-1.22c.32-.77.64-1.55.95-2.32.05-.14.11-.18.23-.06l-1.46,3.59Z"/></svg>