<svg id="illustration" xmlns="http://www.w3.org/2000/svg" viewBox="0 0 198.43 125.18"><defs><style>.cls-1{fill:#e6e515;}.cls-2{fill:#5a3e16;}.cls-3{fill:#68441a;}.cls-4{fill:#ee2d24;}.cls-5{fill:#333996;}.cls-6{fill:#88d4e7;}.cls-7{fill:#fffdee;}.cls-8{fill:#ef3e23;}.cls-9{fill:#2c318e;}.cls-10{fill:#05afe5;}.cls-11{fill:#ee2c27;}.cls-12{fill:#fff;}.cls-13{fill:#010101;}</style></defs><path class="cls-1" d="M79.32,24.81l2-1.5a2.78,2.78,0,0,0,1.15-1.5,2.58,2.58,0,0,0-.25-1.92c-.67-1-2.3-1.74-3.42-.9l-2,1.5A2.73,2.73,0,0,0,75.65,22a2.53,2.53,0,0,0,.25,1.92c.67,1,2.3,1.74,3.42.9Z"/><path class="cls-1" d="M82.75,22.74l8.75-1.5c3.17-.55,1.83-5.37-1.33-4.82l-8.75,1.49c-3.16.55-1.82,5.37,1.33,4.83Z"/><path class="cls-1" d="M85,18.9l2-3a2.53,2.53,0,0,0-.9-3.42,2.57,2.57,0,0,0-3.42.9l-2,3a2.52,2.52,0,0,0,.89,3.42A2.56,2.56,0,0,0,85,18.9Z"/><path class="cls-1" d="M88.31,15.4h.75a2.5,2.5,0,0,0,0-5h-.75a2.5,2.5,0,0,0,0,5Z"/><path class="cls-1" d="M84.3,15.24a6.64,6.64,0,0,1,7.25,1.42c2.27,2.28,5.81-1.25,3.53-3.53A11.59,11.59,0,0,0,83,10.41c-3,1.09-1.71,5.92,1.33,4.83Z"/><path class="cls-1" d="M90,18.61a170.45,170.45,0,0,1,7.3,23.47c.73,3.13,5.55,1.81,4.82-1.33a170.88,170.88,0,0,0-7.3-23.47c-1.16-3-6-1.67-4.82,1.33Z"/><path class="cls-1" d="M94.79,16.63c.79,3.89,2.38,7.63,3.23,11.53s1.07,7.92,2,11.79c.06.28.45.2.47-.06.24-3.92-.71-8.15-1.56-12s-1.71-8.09-3.61-11.49c-.15-.28-.54-.08-.48.2Z"/><path class="cls-1" d="M96.34,18.46c1.2,4,2.68,7.93,3.54,12.07s.63,8.38,1.41,12.47a.37.37,0,0,0,.71,0c.84-3.87-.07-8.51-.82-12.36A37.67,37.67,0,0,0,96.8,18.26a.25.25,0,0,0-.46.2Z"/><path class="cls-1" d="M91,23a16,16,0,0,0,1,2.92,8.53,8.53,0,0,0,1.16,2.27c.26.3.63,0,.59-.34a9.13,9.13,0,0,0-1-2.45,15.53,15.53,0,0,0-1.46-2.53A.16.16,0,0,0,91,23Z"/><path class="cls-1" d="M92.39,24c1.32,5.27,2.62,11.07,5,16,.14.28.5.07.46-.19-.88-5.36-3.12-10.84-5-15.91a.2.2,0,0,0-.38.11Z"/><path class="cls-1" d="M86.81,17c1.42.05,3.57-.16,4.58-1.29a.13.13,0,0,0-.12-.21,17.52,17.52,0,0,0-2,.79,12.44,12.44,0,0,1-2.42.53c-.11,0-.12.18,0,.18Z"/><path class="cls-1" d="M88.67,3.69a.74.74,0,0,0-.12,1.15.24.24,0,0,0,.34,0l1.07-1a.26.26,0,0,0,0-.36.77.77,0,0,0-1.23.88c.12.23.54.07.44-.19s.22-.54.43-.33V3.47l-1,1h.34a.31.31,0,0,1,0-.49c.18-.16-.06-.48-.26-.33Z"/><path class="cls-1" d="M89.24,4.07a11.89,11.89,0,0,0-2.72,6.57c0,.29.41.33.49.07.32-1.13.55-2.26,1-3.36s1.08-2.06,1.47-3.15c0-.13-.13-.21-.21-.13Z"/><path class="cls-1" d="M86.47,3.56c-.43.49-.59,1.91.35,1.95a.14.14,0,0,0,.12-.16c-.1-.23-.27-.4-.37-.62a1,1,0,0,1,.08-1c.07-.11-.09-.23-.18-.14Z"/><path class="cls-1" d="M104.08,69.44a6,6,0,0,0-.75.76.3.3,0,0,0,.29.49l1.66-.37-.38-.21a1.75,1.75,0,0,1,0,1.4c-.2.44-.56.62-.87.94-.15.14-.06.48.18.45,1.27-.16,1.72-2,1.3-3a.32.32,0,0,0-.37-.21l-1.66.39.29.5a7.42,7.42,0,0,0,.64-.94.2.2,0,0,0-.31-.24Z"/><path class="cls-1" d="M105.22,69.81a5.46,5.46,0,0,0,4.43.68.36.36,0,0,0-.09-.7,19.46,19.46,0,0,1-2,0,19.82,19.82,0,0,1-2.18-.36.18.18,0,0,0-.14.33Z"/><path class="cls-1" d="M109,70.4A10.45,10.45,0,0,0,109.3,72a.33.33,0,0,0,.48.2c.28-.18.6-.32.73-.63a.2.2,0,0,0-.18-.3,1.51,1.51,0,0,0-.88.36l.45.12a10.1,10.1,0,0,0-.75-1.37c-.06-.07-.2-.06-.19.05Z"/><path class="cls-1" d="M106.94,69.79a2.22,2.22,0,0,0-.67,2.21.39.39,0,0,0,.65.17A8.17,8.17,0,0,0,108.06,71a.43.43,0,0,0,0-.57c-.45-.54-1.79-.37-1.7.51a.54.54,0,0,0,.79.39.5.5,0,0,0-.07-.89.31.31,0,0,0-.32,0l-.08,0a.27.27,0,0,0,0,.46c.19.12.61-.27.76,0l.06-.49a8.64,8.64,0,0,0-1.19,1.31H107a1.86,1.86,0,0,1,.19-1.74c.09-.14-.11-.27-.23-.17Z"/><path class="cls-1" d="M104.18,70.86a7.07,7.07,0,0,0-.07,1.72.3.3,0,0,0,.38.28,1.17,1.17,0,0,0,.83-1.48.31.31,0,0,0-.46-.18.68.68,0,0,0,0,1.15.33.33,0,0,0,.32,0,4.81,4.81,0,0,0,.81-.51c.21-.18,0-.52-.26-.45a4.3,4.3,0,0,0-.87.41h.32v-.07l-.46-.18a.56.56,0,0,1-.39.74l.37.29a7.69,7.69,0,0,0-.26-1.72c0-.11-.23-.13-.26,0Z"/><path class="cls-1" d="M103.81,68.83a1.16,1.16,0,0,0,.44,1.35c.38.3,1.09.52,1.45.08.12-.16.06-.45-.18-.43s-.6.14-.93,0a1,1,0,0,1-.54-.93c0-.15-.19-.15-.24,0Z"/><path class="cls-1" d="M109,49.64a2,2,0,0,1,0,.24c0,.12.17.12.14,0a2,2,0,0,1,0-.24,0,0,0,0,0-.06,0Z"/><path class="cls-1" d="M109.76,49.56a.7.7,0,0,0-.39.76c.09.38.51.4.84.34.6-.12,1.6-1.15.63-1.51A.77.77,0,0,0,110,50.4c.74.83,1.71,0,1.8-.88,0-.17-.14-.31-.28-.37-1-.33-1.91.94-1.17,1.71s2.09-.17,1.84-1.16a.5.5,0,0,0-.34-.35,1,1,0,0,0-.57,1.92c1.06.41,2.41-.88,1.84-2a.24.24,0,0,0-.31-.08c-.43.25-.65,1.2-1.23,1.07l-.35-.35c.05.14-.11.2-.19.2.07,0-.08-.37.27-.27l-.28-.37c0,.34-.13.41-.47.21a.3.3,0,0,1-.16.23c-.19.18-1.07.32-.5-.2.11-.1,0-.27-.15-.2Z"/><path class="cls-1" d="M112.55,48.84a19.8,19.8,0,0,0-3.61-.06V50c1.61-.18,3.5-.16,5-.86a.25.25,0,0,0-.06-.45,16,16,0,0,0-4.93.12c-.76.07-.76,1.26,0,1.19a21.84,21.84,0,0,0,3.68-.66.24.24,0,0,0-.07-.47Z"/><path class="cls-1" d="M109.68,50.08c.09.11,0,.26.12.38a1.2,1.2,0,0,0,.26.24A2,2,0,0,0,111,51a2.42,2.42,0,0,0,1.84-.6c.54-.47-.14-1.21-.72-.93a3.6,3.6,0,0,1-1.27.39c-.21,0-.42,0-.62,0s-.37.15-.49.12a.06.06,0,0,0,0,.1Z"/><path class="cls-2" d="M96.86,19.9a3.4,3.4,0,0,0,.54,2.34,2.55,2.55,0,0,0,1.68,1.27.16.16,0,0,0,.11-.26c-.51-.46-1.08-.7-1.46-1.31a3.27,3.27,0,0,1-.49-2c0-.25-.35-.24-.38,0Z"/><path class="cls-2" d="M97.7,19.84a3.17,3.17,0,0,0,.72,3.76c.18.12.33-.11.27-.26a8.82,8.82,0,0,1-.76-1.65,9,9,0,0,1,0-1.8.1.1,0,0,0-.19-.05Z"/><path class="cls-2" d="M97,20a9.76,9.76,0,0,0,.73,2c.25.6.49,1.21.79,1.78.15.29.64.09.53-.22-.22-.61-.5-1.2-.77-1.79a9.61,9.61,0,0,0-1-1.92A.17.17,0,0,0,97,20Z"/><path class="cls-2" d="M97.21,19.12a3.55,3.55,0,0,0,.29,1.5,7,7,0,0,0,.58,1.67c.13.21.53.14.5-.14a7.13,7.13,0,0,0-.53-1.68,3.74,3.74,0,0,0-.67-1.39.11.11,0,0,0-.17,0Z"/><path class="cls-1" d="M86.13,16.86c1.31.74,3.35.39,4.73,0A1,1,0,0,0,90.35,15c-.74.15-1.48.31-2.22.45a6.82,6.82,0,0,0-2,.49.52.52,0,0,0,0,.89Z"/><path class="cls-1" d="M88.35,6.52a4.18,4.18,0,0,0-.91,1.88,2.57,2.57,0,0,0-.24,1.87.23.23,0,0,0,.36,0c.46-.41.46-1.14.61-1.71a6.81,6.81,0,0,0,.49-1.95.18.18,0,0,0-.31-.13Z"/><path class="cls-1" d="M88,7.45a3,3,0,0,0-.19,2c.09.63.16,1.54.79,1.86a.45.45,0,0,0,.66-.27c.22-.56-.17-1.23-.32-1.78a5.72,5.72,0,0,0-.56-1.77.23.23,0,0,0-.38,0Z"/><path class="cls-1" d="M86.51,4.37c-.63-.14-.8.77-.61,1.2a1.11,1.11,0,0,0,1.77.21,1.24,1.24,0,0,0-.51-2,1.39,1.39,0,0,0-1.86,1.3c0,.68,1,.64,1,0s1-.1.5.17-.31-.55-.24-.76a.12.12,0,0,0-.09-.15Z"/><path class="cls-1" d="M86.23,5.22a14.91,14.91,0,0,0-.82,4.84c0,.48.77.6.85.12a14.8,14.8,0,0,0,.31-4.91.19.19,0,0,0-.34,0Z"/><path class="cls-1" d="M94.72,15.8a25.6,25.6,0,0,1,1.5,3.5c.32.72,1.37.31,1.39-.37a4.25,4.25,0,0,0-.74-2.19,3.62,3.62,0,0,0-1.73-1.36c-.26-.12-.6.15-.42.42Z"/><path class="cls-1" d="M95.92,18.69c.07,1.36,1,2.55,1.48,3.79.64,1.58.68,3.29,1.27,4.85.21.56,1.12.69,1.27,0,.39-1.75-.3-3.78-1-5.4-.55-1.34-1.29-3-2.73-3.49a.25.25,0,0,0-.32.25Z"/><path class="cls-1" d="M97.16,21.2c.3,4.34,1.48,8.72,2.28,13a.75.75,0,0,0,1.47-.2c-.38-4.35-1.21-9.08-3.46-12.87-.07-.13-.3-.09-.29.07Z"/><path class="cls-1" d="M90.44,21.13c-.66,1,.34,2.58.8,3.46.34.65,1.18,2.68,2.23,2.13s-.3-2.06-.65-2.64c-.54-.9-1-2.73-2.09-3.07a.27.27,0,0,0-.29.12Z"/><path class="cls-1" d="M79.14,19.62a14.59,14.59,0,0,0,2-1.36,3.38,3.38,0,0,0,1.34-1.44.3.3,0,0,0-.37-.37,3.68,3.68,0,0,0-1.67,1.28,16.67,16.67,0,0,0-1.48,1.67c-.1.14.09.3.22.22Z"/><path class="cls-1" d="M101.6,38.34a11.16,11.16,0,0,0,.12,3.36,7.76,7.76,0,0,0,.52,3.12.51.51,0,0,0,.86,0,5.34,5.34,0,0,0,.08-3.07,7.42,7.42,0,0,0-1.09-3.48.27.27,0,0,0-.49.07Z"/><path class="cls-1" d="M97.66,46a7,7,0,0,0,2.36-.2,27.58,27.58,0,0,0,3-.6c.41-.11.35-.82-.11-.77-.9.09-1.8.29-2.7.46a7.87,7.87,0,0,0-2.58.72c-.14.09-.14.36,0,.39Z"/><path class="cls-1" d="M102.92,44.45a7.09,7.09,0,0,0-2.11-.51,4.79,4.79,0,0,0-2.13,0,.51.51,0,0,0-.12.91,4.47,4.47,0,0,0,2.09.28,7.18,7.18,0,0,0,2.22-.24.24.24,0,0,0,0-.43Z"/><path class="cls-1" d="M98.43,45.07a4.47,4.47,0,0,0,.35-2,2.71,2.71,0,0,0-.41-1.95.41.41,0,0,0-.65.09,2.81,2.81,0,0,0-.14,2,4.23,4.23,0,0,0,.55,1.88.18.18,0,0,0,.3,0Z"/><path class="cls-1" d="M101.08,44.72a11.16,11.16,0,0,0,.37-3c0-.83.31-1.89-.37-2.49a.44.44,0,0,0-.52-.07c-.82.57-.62,1.65-.59,2.56a7.17,7.17,0,0,0,.71,3.09.22.22,0,0,0,.4-.05Z"/><path class="cls-1" d="M102.62,41.51a4.93,4.93,0,0,0,.31-3c-.1-.77-.11-1.89-1-2.14a.3.3,0,0,0-.3.08c-.57.62-.13,1.5,0,2.23a11.87,11.87,0,0,0,.6,2.84.22.22,0,0,0,.38,0Z"/><path class="cls-1" d="M80.94,20.75c2.33-2.86,5.07-4.3,8.45-5.58.32-.12.31-.7-.09-.66-3.58.39-6.86,3-8.65,6-.1.17.15.39.29.22Z"/><path class="cls-1" d="M88.82,10.64a8.18,8.18,0,0,0,2,.5c.72.24,1.26.91,2,1,.21,0,.5-.09.47-.36-.17-1.49-3.49-2.69-4.48-1.42a.16.16,0,0,0,0,.25Z"/><path class="cls-3" d="M91.78,19.94c0-.35-.34-.59-.67-.6a.93.93,0,0,0-.9.62,1,1,0,0,0,1.41,1.13.32.32,0,0,0,.15-.36c0-.23-.28-.22-.47-.2s-.61-.17-.33-.44.42-.06.65,0a.12.12,0,0,0,.16-.12Z"/><path class="cls-3" d="M90.86,20.84c.58.18,1.23-.43,1.41-.94a.29.29,0,0,0-.49-.28c-.19.19-.33.41-.53.59a2.18,2.18,0,0,0-.46.45.12.12,0,0,0,.07.18Z"/><path class="cls-3" d="M91.31,19.66a.83.83,0,0,0-.82.9.32.32,0,0,0,.32.32,1,1,0,0,0,.55-.09.26.26,0,0,0,0-.45.94.94,0,0,0-.55-.11l.31.24c-.08-.21,0-.37.24-.48s.15-.34,0-.33Z"/><path class="cls-3" d="M86.13,21.75c.18-.12.23-.18.45-.09s.19.15.31.32a.31.31,0,0,0,.55-.08c.18-1-1.22-1.31-1.72-.55a.3.3,0,0,0,.41.4Z"/><path class="cls-3" d="M85.53,21.79c.37.57,1.19.52,1.77.38A.55.55,0,0,0,87,21.1a3.4,3.4,0,0,0-1.46.54.12.12,0,0,0,0,.15Z"/><path class="cls-3" d="M86.32,20.83c-.86-.66-1.73.87-.69,1.38a.45.45,0,0,0,.53-.07.4.4,0,0,0,.12-.4c0-.15-.43-.45-.09-.45s.31-.32.13-.46Z"/><path class="cls-3" d="M91.2,19.7a.56.56,0,0,0-.48.21.52.52,0,0,0-.14.5l0,.11a.47.47,0,0,0,.84.11.7.7,0,0,0,.08-.67.39.39,0,0,0-.34-.26Z"/><path class="cls-3" d="M79.57,18.5a.54.54,0,0,0,.77.63c.64-.26.41-.93,0-1.29a.46.46,0,0,0-.55-.07.62.62,0,0,0-.29,1,.27.27,0,0,0,.34,0,2,2,0,0,1,.3-.21l-.45-.12c.12.11.38.1.23-.08a.22.22,0,0,0-.37.1Z"/><path class="cls-3" d="M80,18.74a.26.26,0,0,0,0-.52.26.26,0,0,0,0,.52Z"/><path class="cls-3" d="M83.58,11.13c.52.77,1.79.15,2.28-.34a.34.34,0,0,0,0-.48,1.58,1.58,0,0,0-1.46-.43,1.25,1.25,0,0,0-1,1,.32.32,0,0,0,.53.22c.21-.18.31-.44.59-.54a.83.83,0,0,1,.86.18v-.48a1.85,1.85,0,0,1-1,.52,2.77,2.77,0,0,0-.8.16.1.1,0,0,0,0,.14Z"/><path class="cls-3" d="M84.34,10.9l.13,0c.17-.09,0-.35-.15-.26a.29.29,0,0,0,.05.55.16.16,0,0,0,.15,0c.15-.17.14-.42-.1-.48s-.18.14-.08.18Z"/><path class="cls-3" d="M84.05,11.51a7.43,7.43,0,0,1,.77-.33,1.35,1.35,0,0,0,.68-.4.87.87,0,0,0-.15-1.3c-.39-.3-.93.28-.67.66,0,0-.73.32-.82.39a.67.67,0,0,0-.31.77.35.35,0,0,0,.5.21Z"/><path class="cls-3" d="M88.11,8.05a3.65,3.65,0,0,0,.87-2,7.46,7.46,0,0,0,.1-1,5.1,5.1,0,0,0,0-.68c0-.35,0,0-.4.08a.43.43,0,0,0,.23.82c.65-.19,1.39-.51,1.45-1.29a.89.89,0,0,0-1.07-1c-.7.15-.92.85-.94,1.49a11.26,11.26,0,0,1-.12,1.92c-.11.54-.3,1-.37,1.59a.13.13,0,0,0,.23.09Z"/><path class="cls-3" d="M89.33,3.6c-.61-.25-1,.58-.64,1A.83.83,0,0,0,90.08,4a1,1,0,0,0-1.71-.64,1,1,0,0,0,.25,1.74A.44.44,0,0,0,89,5a.38.38,0,0,0,.12-.42A1.22,1.22,0,0,0,89,4.35a.21.21,0,0,1-.13-.16A.39.39,0,0,1,89.38,4a.25.25,0,0,0,0-.44Z"/><path class="cls-3" d="M86.22,8.35a8.32,8.32,0,0,0,.54-4.91c-.08-.53-1-.41-.94.13.13,1.57,0,3.21.27,4.77,0,.06.1.06.13,0Z"/><path class="cls-3" d="M86,3.74c.22.3.55.45.79.72s.34.81-.17.62-.71.44-.43.73c.63.66,1.68,0,1.73-.78a1.71,1.71,0,0,0-1.69-1.68c-.18,0-.35.22-.23.39Z"/><path class="cls-3" d="M85.82,3.31c.22.41.74.56,1.06.88a.78.78,0,0,1,.27.59c0,.22-.15.37-.2.58a.41.41,0,0,0,.5.5c.82-.13.77-1.32.46-1.87a1.87,1.87,0,0,0-2-1,.18.18,0,0,0-.11.27Z"/><path class="cls-3" d="M86.68,5a1.14,1.14,0,0,0,.71.42.4.4,0,0,0,.44-.17l.06-.08a.29.29,0,0,0,0-.34c-.34-.27-.59-.06-1-.13a.18.18,0,0,0-.17.3Z"/><path class="cls-3" d="M89.49,9.78c-.29.3-.14.76-.11,1.14,0,.17.15.36.34.34l1.25-.1c.35,0,.59,0,.83-.25a.23.23,0,0,0,0-.35c-.28-.21-.56-.12-.88-.09l-1.16.11.34.34c0-.4,0-.92-.36-1.17a.16.16,0,0,0-.21,0Z"/><path class="cls-3" d="M89.7,10.31a3,3,0,0,0,1.86.62c.53.06.65-.83.13-.93a3.12,3.12,0,0,0-2,.06.16.16,0,0,0,0,.25Z"/><path class="cls-3" d="M89.81,11.44a.29.29,0,0,0,0-.58.29.29,0,0,0,0,.58Z"/><path class="cls-3" d="M91.73,10.91a.26.26,0,0,0,0-.52.26.26,0,0,0,0,.52Z"/><path class="cls-3" d="M89.89,10.42a.19.19,0,0,0,0-.37.19.19,0,0,0,0,.37Z"/><path class="cls-3" d="M92.06,10.94a.29.29,0,0,0,0-.58.29.29,0,0,0,0,.58Z"/><path class="cls-3" d="M93.89,21.35a2,2,0,0,0-1.16,2.52c.27.52.82.67,1.29,1s.91.79,1.56.69c1.15-.16,1.24-1.53.86-2.38a2.91,2.91,0,0,0-2.71-1.71.5.5,0,0,0,0,1,2,2,0,0,1,1.58.71c.42.5.62,1.88-.4,1.22-.38-.25-1.3-.52-1.52-.89-.4-.68.45-1.35.75-1.88.1-.17-.09-.32-.25-.25Z"/><path class="cls-3" d="M93.87,21.92c-.62.11-.68,1-.5,1.46a2.34,2.34,0,0,0,1.7,1.21.5.5,0,0,0,.61-.35,1.62,1.62,0,0,0-.42-1.67,1.26,1.26,0,0,0-1.64-.19c-.31.25-.09.68.2.79s.48,0,.68.15a.56.56,0,0,1,.22.66l.62-.35a2.38,2.38,0,0,1-1.12-.47c-.29-.31-.14-.57,0-.91s-.15-.36-.33-.33Z"/><path class="cls-3" d="M97.29,19.1a4.58,4.58,0,0,0,.38,2.18,4.85,4.85,0,0,0,1,2c.13.12.39,0,.37-.15a8.93,8.93,0,0,0-.72-2.05,8.86,8.86,0,0,0-.7-2.05c-.07-.11-.26-.11-.28,0Z"/><path class="cls-3" d="M99,23a8.08,8.08,0,0,1-1-1.37,2.41,2.41,0,0,1,.17-2.24.46.46,0,0,0-.79-.46,3.09,3.09,0,0,0-.28,2.83,2.16,2.16,0,0,0,1.78,1.48A.16.16,0,0,0,99,23Z"/><path class="cls-3" d="M92.59,26.43c.31.26.35.19.79.42a2.16,2.16,0,0,1,1.1,1.51,5.88,5.88,0,0,1-.5,3.22c-.15.45.55.63.71.19.49-1.34,1-2.94.3-4.31-.38-.75-1.56-1.85-2.4-1.11a.06.06,0,0,0,0,.08Z"/><path class="cls-3" d="M94.52,31.58A3.65,3.65,0,0,0,94.3,29a11.22,11.22,0,0,0-1.23-3,.46.46,0,0,0-.83.35c.27,1,.75,1.95,1.06,2.95a4.93,4.93,0,0,0,.94,2.32.19.19,0,0,0,.28,0Z"/><path class="cls-3" d="M93.57,27.55A10.93,10.93,0,0,1,94,29.41a.47.47,0,0,0,.93,0,2.38,2.38,0,0,0-1-2.15.26.26,0,0,0-.37.29Z"/><path class="cls-3" d="M93.37,27c.18.44.38,1,.86,1.11a.34.34,0,0,0,.41-.41c-.07-.45-.56-.74-.94-1-.15-.09-.41.07-.33.26Z"/><path class="cls-3" d="M100,26.38c-.59,0-1.58.62-1.57,1.27a.25.25,0,0,0,.37.21c.27-.12.39-.4.61-.6s.5-.35.72-.57a.18.18,0,0,0-.13-.31Z"/><path class="cls-3" d="M98.69,27.69a2.28,2.28,0,0,0,1.31.53.44.44,0,1,0,.12-.86,2.19,2.19,0,0,0-1.39.08.16.16,0,0,0,0,.25Z"/><path class="cls-3" d="M99.78,26.61c-.33,0-.46.37-.45.65a1,1,0,0,0,.69.93c.51.2.73-.48.47-.81-.15-.18-.27-.37-.42-.56s-.15-.21-.29-.21Z"/><path class="cls-3" d="M99.52,26.71c.07.31.06.54.29.77a.24.24,0,0,0,.4-.16c0-.32-.15-.5-.3-.78s-.44-.06-.39.17Z"/><path class="cls-3" d="M97,30.85a.93.93,0,0,0,.76,1.26c.58.07,1.4-.61,1-1.2a.31.31,0,0,0-.52,0c-.11.16-.15.54-.41.53s-.3-.33-.33-.52a.27.27,0,0,0-.48-.07Z"/><path class="cls-3" d="M97.4,31.36a1.23,1.23,0,0,0,1,.4c.65,0,.63-1.07,0-1l-.87.1a.3.3,0,0,0-.13.5Z"/><path class="cls-3" d="M101.06,31.52l0,.18c0,.12.12.23.21.12l.12-.13c.2-.23-.24-.43-.29-.17Z"/><path class="cls-3" d="M101,31.87c-.72.85-1.76,1.77-1.61,3s1.4,1.21,2.07,2c.46.54,1.29-.26.79-.79s-1.45-.6-1.77-1.18c-.49-.89.82-1.78,1.28-2.46.31-.45-.4-1-.76-.58Z"/><path class="cls-3" d="M101.31,32.71c-.38.31-.13.86,0,1.27a15,15,0,0,0,.45,2c.13.39.8.36.75-.1a17.53,17.53,0,0,0-.53-2.47c0-.17-.24-1-.63-.71Z"/><path class="cls-3" d="M100.91,33.66a1.1,1.1,0,0,0,.39,1.91c.42.15.61-.52.19-.67a.6.6,0,0,1-.23-1c.15-.22-.17-.41-.35-.27Z"/><path class="cls-3" d="M100.9,33.15a2.26,2.26,0,0,0-.55,2,.48.48,0,0,0,.93-.13c0-.27-.09-.52-.11-.79a2.63,2.63,0,0,1,.14-.83.25.25,0,0,0-.41-.24Z"/><path class="cls-3" d="M100.81,34.18a4.12,4.12,0,0,0,1,1.27.34.34,0,0,0,.46-.46A4.23,4.23,0,0,0,101,34a.15.15,0,0,0-.2.2Z"/><path class="cls-3" d="M95.48,35.42l.07.2c-.27.28.08.76.41.54a.69.69,0,0,0-.48-1.28c-.28,0-.24.47,0,.54Z"/><path class="cls-3" d="M95.42,35.19a1.07,1.07,0,0,0,.25,1,.24.24,0,0,0,.38-.1,1,1,0,0,0-.37-1,.15.15,0,0,0-.26.07Z"/><path class="cls-3" d="M100.75,33.52c-.33.27-.19.84-.16,1.2.1,1.14,1.75.53,1.21-.32-.15-.25-.63-1.22-1-.88Z"/><path class="cls-3" d="M96.53,39.67c.51.51,1.87.77,2.35.12a.28.28,0,0,0-.1-.37,1.53,1.53,0,0,0-.93-.14c-.38,0-.74-.11-1.12-.08a.28.28,0,0,0-.2.47Z"/><path class="cls-3" d="M98.27,39.74a5.55,5.55,0,0,0,.38,1.91c.13.64-.05,1.55.33,2.08a.34.34,0,0,0,.51.07c.51-.54.28-1.48.17-2.16a3,3,0,0,0-1-2.09.3.3,0,0,0-.44.19Z"/><path class="cls-3" d="M99.1,43.2a10.32,10.32,0,0,0-1.58,1.23.32.32,0,0,0-.08.31c0,.1,0,.15.15.19a.33.33,0,0,0,.38,0,9.91,9.91,0,0,0,1.44-1.38c.14-.19-.13-.4-.31-.3Z"/><path class="cls-3" d="M97.87,44.36a14.67,14.67,0,0,0-.3-4.33c-.09-.55-1-.43-1,.13a14.63,14.63,0,0,0,.93,4.24.18.18,0,0,0,.33,0Z"/><path class="cls-3" d="M97.49,40.22a12.49,12.49,0,0,0,.27,3.5c.12.65,1.25.51,1.16-.16A12.28,12.28,0,0,0,98,40.08c-.13-.3-.52-.11-.55.14Z"/><path class="cls-3" d="M98.24,39.69a4.19,4.19,0,0,0,0,2.6c.14.83,1.39.47,1.25-.35a4,4,0,0,0-.85-2.3.23.23,0,0,0-.36,0Z"/><path class="cls-3" d="M98.53,39.6a2.05,2.05,0,0,0,.17,1.5.24.24,0,0,0,.44-.06,2,2,0,0,0-.31-1.48.17.17,0,0,0-.3,0Z"/><path class="cls-3" d="M97.7,43.71a.83.83,0,0,0-.28.61c0,.23.3.28.41.11a.78.78,0,0,0,.13-.61.15.15,0,0,0-.26-.11Z"/><path class="cls-3" d="M97.47,43.71a.92.92,0,0,0-.19.61c0,.15.22.28.34.14a1.11,1.11,0,0,0,.23-.64c0-.21-.29-.27-.38-.11Z"/><path class="cls-3" d="M98.44,43.52c.43.09,1-.27,1-.75a.18.18,0,0,0-.21-.12,2.08,2.08,0,0,0-.79.66.13.13,0,0,0,0,.21Z"/><path class="cls-3" d="M101.25,40.17c-.65.34-.43,1.39-.06,1.85a1.51,1.51,0,0,0,2,.38.45.45,0,0,0-.19-.74c-.4-.11-.74,0-1.1-.27s-.34-.73-.51-1.15a.11.11,0,0,0-.16-.07Z"/><path class="cls-3" d="M101.29,40.58c.24.2.51.36.75.56s.42.37.77.36a.44.44,0,0,0,.41-.55c-.11-.71-1.22-.93-1.81-.8a.26.26,0,0,0-.12.43Z"/><path class="cls-3" d="M101.41,40.76a1.26,1.26,0,0,0,1,1.3c1,.29,1-1.52,0-1.24-.27.07-.44-.06-.67-.2a.23.23,0,0,0-.34.14Z"/><path class="cls-3" d="M101.06,40.15a1.68,1.68,0,0,0,1.44,1.49.46.46,0,0,0,.32-.77,3.72,3.72,0,0,0-.81-.49,4.33,4.33,0,0,0-.73-.4.17.17,0,0,0-.22.17Z"/><path class="cls-3" d="M101.29,40.38a6.65,6.65,0,0,1,.67.82c.38.5,1.25,0,.86-.51a2.42,2.42,0,0,0-1.21-.87c-.32-.12-.55.33-.32.56Z"/><path class="cls-3" d="M98.59,44.2c.59.23,1.53-.49,1.13-1.11a.31.31,0,0,0-.4-.11c-.19.12-.22.25-.34.43a2.29,2.29,0,0,1-.48.45.2.2,0,0,0,.09.34Z"/><path class="cls-3" d="M98.79,39.76a.87.87,0,0,1,.17.52c0,.16.25.16.33,0a.53.53,0,0,0-.37-.79.14.14,0,0,0-.13.23Z"/><path class="cls-3" d="M97.71,44.78a2.09,2.09,0,0,0,.88-1.24c0-.16-.13-.33-.29-.23a2.09,2.09,0,0,0-.83,1.29c0,.13.12.27.24.18Z"/><path class="cls-3" d="M97,40.12c.38.44.78,1.1,1.35,1.29a.19.19,0,0,0,.23-.24c-.18-.56-.85-1-1.28-1.34a.21.21,0,0,0-.3.29Z"/><path class="cls-4" d="M83.64,13.58a15.68,15.68,0,0,1,2.7-.85,30.22,30.22,0,0,1,3.15-.17.2.2,0,0,0,.05-.4,9,9,0,0,0-6.1,1c-.24.14-.07.57.2.46Z"/><path class="cls-4" d="M83.73,13.9a3,3,0,0,0,1.66-.6.24.24,0,0,0-.17-.4,3,3,0,0,0-1.6.74.16.16,0,0,0,.11.26Z"/><path class="cls-4" d="M83.51,13.23a4,4,0,0,0,0,3.63,2.4,2.4,0,0,0,2.57,1.36A.37.37,0,0,0,86,17.5a2,2,0,0,1-2.13-1.7C83.7,15,84,14,83.74,13.26a.13.13,0,0,0-.23,0Z"/><path class="cls-4" d="M85.36,18.18a6.51,6.51,0,0,0,2.66-.3,4.91,4.91,0,0,0,2.51-1,.19.19,0,0,0-.14-.32,6.91,6.91,0,0,0-2.55.65,11.4,11.4,0,0,0-2.51.77.12.12,0,0,0,0,.21Z"/><path class="cls-4" d="M88.26,17.9c1.54.59,3.11-1.2,3.28-2.59.13-1.1-.78-3.7-2.28-3.21a.34.34,0,0,0-.2.5c.2.41.53.47.87.76a2.5,2.5,0,0,1,.8,1.46c.3,1.69-1.25,2.23-2.47,2.73a.19.19,0,0,0,0,.35Z"/><path class="cls-4" d="M89.43,12.9c.13.67.36,1.3.52,2a7.44,7.44,0,0,0,.48,1.81.37.37,0,0,0,.67-.09,4.11,4.11,0,0,0-.27-2.1,5.4,5.4,0,0,0-.92-1.86c-.19-.25-.54,0-.48.28Z"/><path class="cls-4" d="M87.4,18.07a3.91,3.91,0,0,0,3.17-.64c.67-.48,1.38-1.43,1-2.28a.31.31,0,0,0-.53,0c-.16.31-.2.65-.38.94a2.36,2.36,0,0,1-1,.85c-.74.4-1.65.37-2.36.8a.18.18,0,0,0,0,.33Z"/><path class="cls-4" d="M90.44,15.56a2.5,2.5,0,0,0-1,1.52.23.23,0,0,0,.35.2,2.5,2.5,0,0,0,.83-1.58c0-.09-.08-.21-.17-.14Z"/><path class="cls-4" d="M83.56,13.61a.3.3,0,0,0,0-.59.3.3,0,0,0,0,.59Z"/><path class="cls-4" d="M84.13,13.6A14.23,14.23,0,0,0,86,13.16a10.54,10.54,0,0,0,1.86-.46c.15-.08.13-.37,0-.39A4.81,4.81,0,0,0,86,12.6a6.21,6.21,0,0,0-1.9.74c-.1.07-.08.28.07.26Z"/><path class="cls-5" d="M92,14.49a2.47,2.47,0,0,0,3.29-1.05.31.31,0,0,0-.45-.35,6.23,6.23,0,0,1-1.25.78,6.56,6.56,0,0,1-1.47.17.24.24,0,0,0-.12.45Z"/><path class="cls-5" d="M92,14.66a1.7,1.7,0,0,0,1.72.5c.52-.1,1.48-.51,1.42-1.17a.3.3,0,0,0-.37-.28,1,1,0,0,0-.51.3,1.94,1.94,0,0,1-.69.34,5.05,5.05,0,0,1-1.4,0,.2.2,0,0,0-.17.3Z"/><path class="cls-5" d="M91.88,14.37c.06.2.11.41.17.62.14.57,1,.08.59-.34l-.45-.47a.19.19,0,0,0-.31.19Z"/><path class="cls-5" d="M92.13,13.88a.7.7,0,0,0,0,1,.37.37,0,0,0,.35.09c.42-.17.25-.74,0-1a.27.27,0,0,0-.41,0Z"/><path class="cls-5" d="M81.79,12.22a1.91,1.91,0,0,0,0,2.61c.26.29.78-.1.54-.42a1.55,1.55,0,0,1-.07-1.84.29.29,0,0,0-.46-.35Z"/><path class="cls-5" d="M81.9,12.47a1.29,1.29,0,0,0,.57.81c.24.14.62-.09.51-.39a1.2,1.2,0,0,0-.71-.7.25.25,0,0,0-.37.28Z"/><path class="cls-5" d="M82.34,12.91a2.58,2.58,0,0,0-.14,1.73.29.29,0,0,0,.55,0,2.58,2.58,0,0,0-.14-1.73.16.16,0,0,0-.27,0Z"/><path class="cls-5" d="M82.05,12.77a2.66,2.66,0,0,0,.06,2.09c.18.44.92.13.77-.32a11,11,0,0,1-.47-1.77c0-.21-.3-.15-.36,0Z"/><path class="cls-5" d="M82.61,13a7.58,7.58,0,0,0-.13.81,4.91,4.91,0,0,0-.13.75.3.3,0,0,0,.55.15A2,2,0,0,0,83,13a.21.21,0,0,0-.38,0Z"/><path class="cls-6" d="M84.22,14.15c0,1.06-.46,2.71.87,3.2a2.87,2.87,0,0,0,1.69-.09,29.55,29.55,0,0,0,2.87-.87c.44-.15.25-.86-.2-.71-1.06.36-2.14.7-3.22,1a1.92,1.92,0,0,1-.76.18,1.43,1.43,0,0,1-.85-1.19,10,10,0,0,0-.07-1.55.17.17,0,0,0-.33,0Z"/><path class="cls-6" d="M90,16.13A8.42,8.42,0,0,0,89.27,13a.38.38,0,0,0-.74.21,8.36,8.36,0,0,0,1.22,3.08c.1.12.27,0,.28-.12Z"/><path class="cls-6" d="M89,13a7.29,7.29,0,0,0-2.48.41,5.37,5.37,0,0,0-2.11.81c-.18.14,0,.43.18.43a9.34,9.34,0,0,0,2.28-.59,13.15,13.15,0,0,0,2.25-.63c.22-.11.09-.41-.12-.43Z"/><path class="cls-6" d="M84.83,14.4a1.64,1.64,0,0,0-.15,1.74,1.78,1.78,0,0,0,1.75.65,3.09,3.09,0,0,0,1.81-.62A1.81,1.81,0,0,0,88.55,14a.55.55,0,0,0-.67-.38,25.49,25.49,0,0,0-2.46.67.52.52,0,0,0,.27,1,23.65,23.65,0,0,0,2.48-.62l-.67-.38c.16.43.33.85-.13,1.13a3.08,3.08,0,0,1-.9.3c-.29.06-.82.19-1.08,0s-.19-.87-.22-1.21a.18.18,0,0,0-.34-.09Z"/><path class="cls-6" d="M85.72,14.63a1.31,1.31,0,0,0,.15,1.25.5.5,0,0,0,.55.23.46.46,0,0,0,.35-.35.48.48,0,0,0-.13-.48c-.24-.21-.38-.49-.6-.69a.2.2,0,0,0-.32,0Z"/><path class="cls-6" d="M85.67,15.64a4.89,4.89,0,0,0,2.21-.18c.72-.18.41-1.29-.31-1.11a5,5,0,0,0-2,.9.24.24,0,0,0,.11.39Z"/><path class="cls-6" d="M88,14.08a4.43,4.43,0,0,1,0,.89c0,.35-.28.57-.33.89a.56.56,0,0,0,.68.69c1.19-.3,1.09-2.42,0-2.76a.3.3,0,0,0-.37.29Z"/><path class="cls-6" d="M85.36,15.15a1.43,1.43,0,0,0,.5,1.34,1.63,1.63,0,0,0,1.55.28.63.63,0,0,0,.44-.58.64.64,0,0,0-.18-.42.59.59,0,0,0-.58-.16,1,1,0,0,1-1.24-.52.25.25,0,0,0-.49.06Z"/><path class="cls-7" d="M86.44,13.54a4.56,4.56,0,0,0-.91,1.86c-.14.58-.39,1.34,0,1.83a.36.36,0,0,0,.49,0c.46-.36.39-1.15.48-1.68a9.37,9.37,0,0,0,.15-1.9c0-.12-.16-.21-.25-.11Z"/><path class="cls-7" d="M86.81,13.83a.27.27,0,0,0,0-.53.27.27,0,0,0,0,.53Z"/><path class="cls-7" d="M86.8,13.6a4.81,4.81,0,0,0-1,2.14.21.21,0,0,0,.36.15A4.64,4.64,0,0,0,87,13.68a.11.11,0,0,0-.2-.08Z"/><path class="cls-7" d="M86.29,13.63c0,.24-.08.47-.12.71a.23.23,0,0,0,.38.22,1,1,0,0,0,.22-1,.24.24,0,0,0-.48.06Z"/><path class="cls-7" d="M83.64,13.57a2.8,2.8,0,0,0,2-.49.15.15,0,0,0-.1-.26,19.09,19.09,0,0,0-2,.44c-.18,0-.13.3,0,.31Z"/><path class="cls-7" d="M82,12.3a1.61,1.61,0,0,0-.13,2.15.18.18,0,0,0,.31-.12,8.07,8.07,0,0,0-.07-1c0-.33.11-.63.13-.95,0-.14-.15-.17-.24-.1Z"/><path class="cls-7" d="M92.38,14.77a1.9,1.9,0,0,0,2.28-.52.22.22,0,0,0-.25-.33c-.32.08-.58.28-.9.37a6.06,6.06,0,0,1-1.05.18c-.14,0-.24.22-.08.3Z"/><path class="cls-8" d="M97.26,47.05a8.55,8.55,0,0,0-.48,2.34c0,.55.78.62.93.13a8.24,8.24,0,0,0,.36-2.36.41.41,0,0,0-.81-.11Z"/><path class="cls-8" d="M97.15,49.49A28.53,28.53,0,0,0,100,48c1.06-.56,2.17-1,3.27-1.48.4-.17.12-.84-.29-.7-2,.69-4.53,1.81-5.94,3.46-.08.09,0,.27.12.22Z"/><path class="cls-8" d="M97.68,47.5a6.29,6.29,0,0,0,2.31-.27,26.82,26.82,0,0,0,2.94-.72.46.46,0,0,0-.24-.89,25.66,25.66,0,0,0-2.74.72,6.79,6.79,0,0,0-2.31.9c-.08.06-.1.24,0,.26Z"/><path class="cls-8" d="M97.73,48.2a6.14,6.14,0,0,0,2-.43,6.46,6.46,0,0,0,2.07-.68.52.52,0,0,0-.26-1,4.5,4.5,0,0,0-2.23.65A3.82,3.82,0,0,0,97.63,48a.12.12,0,0,0,.1.18Z"/><path class="cls-8" d="M97.74,47.38a6.06,6.06,0,0,0,2.36-.08,6.89,6.89,0,0,0,2.58-.67c.26-.16.25-.64-.09-.7a6.38,6.38,0,0,0-2.41.28,6.61,6.61,0,0,0-2.48.86c-.11.07-.11.28,0,.31Z"/><path class="cls-8" d="M97.51,49.5A17.85,17.85,0,0,0,100,48.2a13.12,13.12,0,0,0,2.4-1.43c.14-.13,0-.33-.17-.3a7.87,7.87,0,0,0-2.53,1.21,9.39,9.39,0,0,0-2.25,1.65c-.06.07,0,.21.11.17Z"/><path class="cls-8" d="M101.68,46.79c.48-.14,1.26-.36,1.53-.81a.17.17,0,0,0-.15-.25c-.52,0-1.14.5-1.52.81-.12.1,0,.29.14.25Z"/><path class="cls-9" d="M96.89,50.11a2.88,2.88,0,0,0-.55,1.71,8.63,8.63,0,0,0-.24,2.08c0,.28.46.49.6.17a8.85,8.85,0,0,0,.47-2.17,2.94,2.94,0,0,0,0-1.76.19.19,0,0,0-.3,0Z"/><path class="cls-9" d="M96.45,54.11a16.06,16.06,0,0,1,7.39-5.46.42.42,0,0,0-.22-.8,11.11,11.11,0,0,0-7.38,6.09c-.06.13.11.3.21.17Z"/><path class="cls-9" d="M104.24,47.82a3,3,0,0,0-.38-1.49c-.37-.74-1.55-.06-1.1.64A2.85,2.85,0,0,0,103.84,48a.27.27,0,0,0,.4-.22Z"/><path class="cls-9" d="M103.05,46.67a15.24,15.24,0,0,0-2.84,1.76c-1,.66-2.21,1.16-3.24,1.83a.35.35,0,0,0,.26.63,14.76,14.76,0,0,0,3.4-1.74,8.29,8.29,0,0,0,2.64-2.2.19.19,0,0,0-.22-.28Z"/><path class="cls-9" d="M97.1,52.25a12.15,12.15,0,0,1,3.16-2.19,17.55,17.55,0,0,0,3-1.62c.45-.38,0-1-.52-.9a9.71,9.71,0,0,0-3.55,1.8A9.85,9.85,0,0,0,96.75,52c-.15.21.17.45.35.27Z"/><path class="cls-9" d="M103.45,47.41a10.12,10.12,0,0,0-3.77,1.52c-1.07.62-2.65,1.5-3.17,2.66-.13.29.1.77.48.62,1.14-.46,2-1.55,3-2.25s2.45-1.27,3.55-2.07c.19-.13.16-.51-.13-.48Z"/><path class="cls-9" d="M97.88,50.5c-.31.49-.63,1-.93,1.48a3.38,3.38,0,0,0-.64,1.42c0,.39.45.49.7.29a3.62,3.62,0,0,0,.78-1.46c.21-.5.41-1,.61-1.51.12-.31-.36-.48-.52-.22Z"/><path class="cls-9" d="M97.85,51.61a8.78,8.78,0,0,1-1.34,1.51c-.35.33.16.82.51.51a5,5,0,0,0,1.24-1.78.24.24,0,0,0-.41-.24Z"/><path class="cls-9" d="M96.48,53.43c-.37,0-.45.38-.25.62a.26.26,0,0,0,.29,0l0,0a.2.2,0,0,0,.08-.2s-.1-.21-.08-.24a.12.12,0,0,0-.08-.2Z"/><path class="cls-9" d="M96.81,53.37a.05.05,0,0,0,0-.1.05.05,0,1,0,0,.1Z"/><path class="cls-9" d="M97.07,53.1a5.9,5.9,0,0,0-1.18,1.16c-.22.3.27.67.52.4a6,6,0,0,0,.89-1.33c.06-.14-.08-.34-.23-.23Z"/><path class="cls-10" d="M96,55.92c3.26-1.54,4.73-5.34,8.29-6.48.59-.19.33-1.13-.26-.93-3.56,1.17-5.35,4.85-8.27,7a.24.24,0,0,0,.24.41Z"/><path class="cls-10" d="M103.52,49.27a10.68,10.68,0,0,0,.7,2.3,17.94,17.94,0,0,1,.27,2.82.54.54,0,0,0,1.05.15c.58-1.54.13-4.76-1.47-5.59a.37.37,0,0,0-.55.32Z"/><path class="cls-10" d="M95.81,55.66c-.08.42-.11.84-.18,1.26s-.18.81-.21,1.23.75.58.93.13a4.06,4.06,0,0,0,0-2.62c-.08-.21-.45-.28-.5,0Z"/><path class="cls-10" d="M95.56,58.35A4,4,0,0,0,97,58.13a4.29,4.29,0,0,0,1.43-.52.47.47,0,0,0-.23-.87,4.54,4.54,0,0,0-1.56.43,4,4,0,0,0-1.31.68c-.21.18,0,.48.21.5Z"/><path class="cls-10" d="M97.56,57.25c-.22,1.12.55,2.2,1,3.19.53,1.19.87,2.79,1.78,3.73a.49.49,0,0,0,.83-.34c0-1.2-.77-2.54-1.26-3.63s-.88-2.57-2-3.1a.26.26,0,0,0-.37.15Z"/><path class="cls-10" d="M95.46,65.52a19.11,19.11,0,0,0,2.83-1.32,11.58,11.58,0,0,0,2.82-1.33c.23-.2,0-.52-.22-.54a6.38,6.38,0,0,0-3.08,1.05,7.42,7.42,0,0,0-2.55,1.88c-.09.13.07.3.2.26Z"/><path class="cls-10" d="M96.4,64.62c-1.18,1.19-.59,3-.13,4.42.64,1.94,1.08,4.37,2.37,6,.29.36.85,0,.86-.35,0-1.8-1-3.69-1.56-5.37-.52-1.51-.68-3.22-1.33-4.65,0-.08-.15-.08-.21,0Z"/><path class="cls-10" d="M98.45,75.4a11.78,11.78,0,0,0,2.7-.49,4.31,4.31,0,0,0,2.29-1,.32.32,0,0,0-.14-.53,4.28,4.28,0,0,0-2.44.44,11.9,11.9,0,0,0-2.54,1.1.25.25,0,0,0,.13.46Z"/><path class="cls-10" d="M103.56,74.16a3.51,3.51,0,0,0,1.66-.54c.12-.08.09-.31-.08-.29a3.58,3.58,0,0,0-1.63.65c-.07,0-.06.19,0,.18Z"/><path class="cls-10" d="M105.27,73.61a1.15,1.15,0,0,0,.74-.67.2.2,0,0,0-.27-.27,1.18,1.18,0,0,0-.61.8.11.11,0,0,0,.14.14Z"/><path class="cls-10" d="M105.85,73.2a.86.86,0,0,0,1.32-.41.2.2,0,0,0-.2-.26,10.1,10.1,0,0,0-1.06.24c-.22,0-.2.32-.06.43Z"/><path class="cls-10" d="M108.45,72.41l0,0,0,.21c0-.06,0-.08,0-.06a.15.15,0,0,0,0-.18v0a.19.19,0,0,0-.22-.09l0,0a.22.22,0,0,0-.17.21v.07a.2.2,0,0,0,.11.18l0,0a.2.2,0,0,0,.24-.32Z"/><path class="cls-10" d="M110.15,67.93a3.31,3.31,0,0,0-.06,1.79.31.31,0,0,0,.52,0,3.31,3.31,0,0,0-.06-1.79.21.21,0,0,0-.4,0Z"/><path class="cls-10" d="M110.14,68.71a2.49,2.49,0,0,0,.23,1.76c.12.16.46.2.51-.07a1.58,1.58,0,0,0-.2-.94,2.14,2.14,0,0,0-.4-.78.08.08,0,0,0-.14,0Z"/><path class="cls-10" d="M103.75,73.64a3,3,0,0,1-.65-1.13,3.26,3.26,0,0,1,.19-1.39.28.28,0,0,0-.46-.27,1.83,1.83,0,0,0-.34,1.75,1.69,1.69,0,0,0,1.09,1.33c.18,0,.26-.17.17-.29Z"/><path class="cls-10" d="M103.22,71a1.22,1.22,0,0,1,0-2,1.7,1.7,0,0,1,1.3-.22c.33.06.55.21.89.13a.21.21,0,0,0,.12-.3c-.26-.54-1.17-.59-1.7-.53a2.13,2.13,0,0,0-1.44.77c-.61.78-.47,2.24.67,2.37.14,0,.19-.18.11-.27Z"/><path class="cls-10" d="M105.45,68.61c2.09-1.78,2.46-5.19,1.4-7.62-.85-1.94-3.38-4.54-5.54-2.85-.34.27,0,.74.32.77a4.75,4.75,0,0,1,4.66,3.49c.82,2.31.11,4.06-1,6.12a.08.08,0,0,0,.12.09Z"/><path class="cls-10" d="M105.64,68.55a3,3,0,0,0,3.27.1.55.55,0,0,0,.25-.61l-.06-.13a.52.52,0,0,0-.46-.27c-.51,0-1,.2-1.48.27a6.68,6.68,0,0,0-1.41.22.25.25,0,0,0-.11.42Z"/><path class="cls-10" d="M108.32,68.65c3.09-2.17,3.05-7.14,1.12-10.08s-6.76-5.11-10.13-3.43c-.75.37-.33,1.44.4,1.48,3.28.18,6.19.09,8.24,3.24,1.82,2.8,1,5.6,0,8.47a.29.29,0,0,0,.41.32Z"/><path class="cls-10" d="M99.57,57.21a5.26,5.26,0,0,0,2.16.94,7.44,7.44,0,0,1,3.37,2.18,7,7,0,0,1,1.55,3.38c.19,1.21-.25,2.37.11,3.54a.67.67,0,0,0,1.11.29c1.95-1.93.47-6.14-.93-8s-5-4.63-7.28-3a.46.46,0,0,0-.09.71Z"/><path class="cls-10" d="M108.17,67.3c3.41-2.8.44-9.85-3.61-10.29a.8.8,0,0,0-.56,1.36c1.25,1.21,2.65,1.82,3.33,3.57s.16,3.33.19,5.09a.38.38,0,0,0,.65.27Z"/><path class="cls-10" d="M103.28,49.78a4.81,4.81,0,0,0-.3,2.81,21.42,21.42,0,0,0,.3,3.3c.25,1,1.66.7,1.75-.24a16.49,16.49,0,0,0-.29-3.5,4.1,4.1,0,0,0-.87-2.45.37.37,0,0,0-.59.08Z"/><path class="cls-10" d="M103.22,49.7a5.37,5.37,0,0,0-1.53,2.7c-.33.92-1.09,2.35-.42,3.24a.65.65,0,0,0,.87.22c1-.5.9-1.87,1.13-2.82a7.28,7.28,0,0,0,.43-3.15.32.32,0,0,0-.48-.19Z"/><path class="cls-10" d="M103.13,49.87a5.81,5.81,0,0,0-2.56,2.23,10.5,10.5,0,0,0-1.86,3.18c-.3.95,1,1.39,1.53.65.65-.94,1.1-2,1.71-3a10.41,10.41,0,0,0,1.52-2.72.28.28,0,0,0-.34-.34Z"/><path class="cls-10" d="M101.07,51.77a7.27,7.27,0,0,0-2.8,1.87c-.75.64-2,1.24-1.89,2.35,0,.2.23.33.4.4,1,.36,2-1,2.64-1.6a6,6,0,0,0,2-2.63.32.32,0,0,0-.39-.39Z"/><path class="cls-10" d="M96.68,56.86a11.78,11.78,0,0,0,3.38-.31c1-.11,1.06-1.67,0-1.61-1.23.06-2.89.43-3.51,1.62a.21.21,0,0,0,.13.3Z"/><path class="cls-10" d="M96.29,57.42a4.07,4.07,0,0,0,1.9,0,12.28,12.28,0,0,0,2.08-.47.79.79,0,0,0-.42-1.53,11.64,11.64,0,0,0-2.1.57,4.07,4.07,0,0,0-1.62.85.37.37,0,0,0,.16.61Z"/><path class="cls-10" d="M98.35,56.11c-.34,1.47.26,3.07.75,4.44a12.32,12.32,0,0,0,2,4.28c.37.4,1.24.12,1.17-.49-.18-1.56-1.09-3-1.64-4.51A10.86,10.86,0,0,0,98.8,56a.27.27,0,0,0-.45.12Z"/><path class="cls-10" d="M99.48,57.34a56.24,56.24,0,0,0,1.42,5.54c.46,1.44.71,3.2,1.83,4.26a.64.64,0,0,0,1.07-.28c.26-1.64-.66-3.29-1.22-4.82a54.43,54.43,0,0,0-2.2-5.08c-.25-.53-1-.14-.9.38Z"/><path class="cls-10" d="M100.7,57.63c.64,3.39,2.3,6.63,3.63,9.8.47,1.13,2.36.64,1.87-.52-1.35-3.24-2.53-6.79-4.53-9.69a.53.53,0,0,0-1,.41Z"/><path class="cls-10" d="M103.11,58.58a14.21,14.21,0,0,0,1.2,4.45c.43,1.17.66,2.79,1.81,3.42a.62.62,0,0,0,.9-.37c.46-1.25-.57-2.9-1-4.09a13.59,13.59,0,0,0-1.9-3.81.58.58,0,0,0-1,.4Z"/><path class="cls-10" d="M97.47,68.85a13.47,13.47,0,0,0,3-1.86,12.28,12.28,0,0,0,2.7-2.19c.42-.56-.28-1.39-.9-1.18a9.84,9.84,0,0,0-2.85,2,10.07,10.07,0,0,0-2.4,2.6c-.17.29.12.77.48.62Z"/><path class="cls-10" d="M97.56,67a.05.05,0,0,0,0-.1.05.05,0,1,0,0,.1Z"/><path class="cls-10" d="M97.37,67.63a30.79,30.79,0,0,0,2.71-1.47c.73-.47,1.67-.84,1.73-1.79a.64.64,0,0,0-.46-.61c-.89-.25-1.62.59-2.27,1.09-.82.64-1.52,1.34-2.27,2-.41.38.1,1,.56.74Z"/><path class="cls-10" d="M96.46,66.37c.93-.39,1.87-.71,2.78-1.14s1.87-.58,2.26-1.5a.64.64,0,0,0-.44-.78c-.92-.3-1.83.52-2.57,1A11.47,11.47,0,0,0,96.26,66c-.12.14,0,.44.2.35Z"/><path class="cls-10" d="M96.56,65.75a5.37,5.37,0,0,0,1.57-.42c.57-.2,1.15-.39,1.72-.6.93-.34.56-1.79-.42-1.5a4.92,4.92,0,0,0-3.09,2.13.27.27,0,0,0,.22.39Z"/><path class="cls-10" d="M96.74,67.09A8.52,8.52,0,0,0,99.68,66c.84-.38,0-1.79-.74-1.25a8.27,8.27,0,0,0-2.4,2,.24.24,0,0,0,.2.36Z"/><path class="cls-10" d="M97.59,69.67a17.23,17.23,0,0,0,3.87-1.34c1.29-.53,2.6-1,3.91-1.47,1-.38.62-2-.46-1.66-2.58.76-5.82,1.87-7.64,3.93a.33.33,0,0,0,.32.54Z"/><path class="cls-10" d="M98.81,69.7a.05.05,0,0,0,0-.1.05.05,0,1,0,0,.1Z"/><path class="cls-10" d="M97.91,70.41c2.35.11,5-1.3,7.15-2.22.84-.36.24-1.82-.64-1.5-2.15.81-5.06,1.65-6.67,3.34a.23.23,0,0,0,.16.38Z"/><path class="cls-10" d="M101.41,69.48a10.58,10.58,0,0,0-.13,3.55.89.89,0,0,0,.63.81.72.72,0,0,0,.65-.08.91.91,0,0,0,.39-1c-.09-.62-.16-1.25-.31-1.85a7.73,7.73,0,0,0-.65-1.54.32.32,0,0,0-.58.07Z"/><path class="cls-10" d="M100.57,69.85a4.92,4.92,0,0,0-.23,4c.26.86,1.78.76,1.65-.22a10.63,10.63,0,0,0-.95-3.76.27.27,0,0,0-.47,0Z"/><path class="cls-10" d="M98.82,69.75a15.09,15.09,0,0,0,.29,4.13c.2,1.06,1.89.62,1.63-.44a15.09,15.09,0,0,0-1.43-3.83.27.27,0,0,0-.49.14Z"/><path class="cls-10" d="M97.4,69.73A6.55,6.55,0,0,0,98.12,72a4.49,4.49,0,0,0,1.39,2.14.64.64,0,0,0,1-.54,4.65,4.65,0,0,0-1.11-2.32,6.38,6.38,0,0,0-1.59-1.8.24.24,0,0,0-.37.21Z"/><path class="cls-10" d="M101.39,68.06a10.13,10.13,0,0,0-.94,2.29,4.57,4.57,0,0,0-.29,2.41.72.72,0,0,0,1.29.17,4.78,4.78,0,0,0,.57-2.37,10.87,10.87,0,0,0-.06-2.42c0-.28-.45-.29-.57-.08Z"/><path class="cls-10" d="M99,69.16c-.45,1.29-.27,3.77,1,4.58a.72.72,0,0,0,1.07-.62,5,5,0,0,0-.7-2.05c-.27-.66-.48-1.35-.8-2a.3.3,0,0,0-.54.07Z"/><path class="cls-10" d="M108.85,58.26a20.79,20.79,0,0,1,1.39,2.94,9.39,9.39,0,0,1-.16,3.54c0,.35.47.43.62.17,1.11-1.83.45-5.85-1.65-6.8-.1,0-.25,0-.2.15Z"/><path class="cls-10" d="M109.5,59.21a6.33,6.33,0,0,1,.84,1.71c.12.46,0,1.13.38,1.48a.23.23,0,0,0,.28,0c.54-.41.3-1.28.11-1.84a3.3,3.3,0,0,0-1.27-1.73.25.25,0,0,0-.34.34Z"/><path class="cls-10" d="M109.23,58.29a5.86,5.86,0,0,1,1,1.57c.19.54.07,1.08.21,1.61a.29.29,0,0,0,.53.07,2.54,2.54,0,0,0-.17-2.08A2.49,2.49,0,0,0,109.38,58c-.16-.06-.23.15-.15.25Z"/><path class="cls-10" d="M104.61,47.22a6.36,6.36,0,0,1,2.9-1.47,2.35,2.35,0,0,1,2.7,2.19.38.38,0,0,0,.73,0,2.75,2.75,0,0,0-2.4-3.14,4.07,4.07,0,0,0-4.23,2.12c-.1.18.11.44.3.3Z"/><path class="cls-10" d="M110.83,48.38c1.66-.84,1.38-3.05,0-4-1.84-1.24-5-.24-6.06,1.58a.35.35,0,0,0,.39.5c1.21-.3,2.1-1.25,3.38-1.39,1.7-.19,3.9,1.52,2.18,3.14-.1.1,0,.24.15.18Z"/><path class="cls-10" d="M105.72,46.19a4.67,4.67,0,0,1,2.22-.78,12.86,12.86,0,0,1,2,.17.29.29,0,0,0,.15-.54c-1.44-.77-3.36,0-4.49,1-.11.09,0,.28.16.2Z"/><path class="cls-10" d="M110.41,45.65a1.39,1.39,0,0,0,.22.78.16.16,0,0,0,.25,0,1.24,1.24,0,0,0,0-.74c0-.31-.53-.31-.49,0Z"/><path class="cls-10" d="M105.32,46.33l0,.18c0,.18.19.35.33.19l.11-.14c.27-.31-.31-.58-.4-.23Z"/><path class="cls-11" d="M95.8,60.91c-.59-.26-1.11.4-1.11,1a1.15,1.15,0,0,0,1.57,1,1.27,1.27,0,0,0,.64-1.76c-.35-.63-1.46-1-1.87-.21a.46.46,0,0,0,.27.66c.12,0,.4,0,.48.08s.2.15,0,.17c-.32,0,0-.42.08-.49a.29.29,0,0,0-.1-.38Z"/><path class="cls-12" d="M95.71,59.58A4.23,4.23,0,0,0,97.36,59a.27.27,0,0,0-.14-.5,4.22,4.22,0,0,0-1.74.49c-.33.15-.07.6.23.55Z"/><path class="cls-12" d="M97,58.85a4.6,4.6,0,0,0,.28,2,3.8,3.8,0,0,0,.84,1.88.19.19,0,0,0,.32-.13,6,6,0,0,0-.52-1.92,8.76,8.76,0,0,0-.56-1.91.2.2,0,0,0-.36,0Z"/><path class="cls-12" d="M95.56,64.06a4.48,4.48,0,0,0,1.67-.39,3.33,3.33,0,0,0,1.4-.75c.1-.12.05-.34-.13-.32a4,4,0,0,0-1.38.54,10.3,10.3,0,0,0-1.61.76.09.09,0,0,0,0,.16Z"/><path class="cls-12" d="M96.29,63.44a.89.89,0,0,0,1.11-.32,1.92,1.92,0,0,0,.21-1.95c-.25-.69-1.44-2.81-2.33-1.55a.24.24,0,0,0,.2.36,1,1,0,0,1,1,.25,3.92,3.92,0,0,1,.52.82c.48.94.39,1.86-.68,2.26,0,0-.08.1,0,.13Z"/><path class="cls-12" d="M96.42,59.75c.39.09.92.16,1.12-.26a.18.18,0,0,0-.1-.26c-.34-.08-.62.12-1,.15s-.28.32-.06.37Z"/><path class="cls-12" d="M97.65,61.91A1.43,1.43,0,0,0,97.51,63a.23.23,0,0,0,.38.1c.3-.29.37-1.12-.14-1.25a.12.12,0,0,0-.1,0Z"/><path class="cls-10" d="M101.84,59c.22.64.87,1,1.3,1.53a11.14,11.14,0,0,1,1,1.68l.81-1.42h-.09a.86.86,0,0,0-.79.61l0,.08c-.47,1.3,2.08,1.72,1.82,0a4.77,4.77,0,0,0-1.26-2.25,2.65,2.65,0,0,0-2.21-1.13.72.72,0,0,0-.5.89Z"/><path class="cls-10" d="M104.37,60.67a3.2,3.2,0,0,0,.5,1.79c.3.62.65,1.22,1,1.81a1,1,0,0,0,.84.48.93.93,0,0,0,.84-.48,1,1,0,0,0,0-1c-.65-1.07-1.33-2.59-2.55-3.09-.33-.14-.59.19-.62.47Z"/><path class="cls-10" d="M105.73,68.4c.45.56,1.37.37,2,.25a8.64,8.64,0,0,0,2.2-.79c1.12-.55.14-2.26-1-1.68a13.44,13.44,0,0,1-1.82.71c-.53.18-1.21.26-1.47.81a.62.62,0,0,0,.09.7Z"/><path class="cls-10" d="M108.86,68.87a6.32,6.32,0,0,0,1.27-1.41c.54-.83-.93-1.64-1.31-.76a6.27,6.27,0,0,0-.52,1.94c0,.32.36.39.56.23Z"/><path class="cls-10" d="M104.64,68.65a2.15,2.15,0,0,0,2.1.4.87.87,0,0,0,.63-.82v-.08a.75.75,0,0,0-.36-.63l-.07,0a.88.88,0,0,0-1,.13,3.3,3.3,0,0,1-1.1.44.35.35,0,0,0-.16.59Z"/><path class="cls-10" d="M100.68,70.72a1.66,1.66,0,0,0,.63-.88c.18-.4.42-.76.57-1.17a.78.78,0,0,0-1.3-.76c-.53.6-1.09,2.11-.35,2.75a.39.39,0,0,0,.45.06Z"/><path class="cls-10" d="M105.63,67.82c1.36-.44,1.87-2.23,1.61-3.49s-2-.65-1.72.47a4.28,4.28,0,0,1-.37,2.54.39.39,0,0,0,.48.48Z"/><path class="cls-10" d="M104.58,48a22.25,22.25,0,0,0,1.72-1.5c.42-.52,0-1.51-.73-1.25a2.59,2.59,0,0,0-1.3,1,3,3,0,0,0-.39,1.43c0,.36.47.52.7.29Z"/><path class="cls-10" d="M110.69,46c-.14.29-.25.6-.38.9s-.35.67-.48,1c-.27.73.75,1.24,1.25.73a2.13,2.13,0,0,0,.17-2.73.36.36,0,0,0-.56.08Z"/><path class="cls-10" d="M111.23,46.08a2.87,2.87,0,0,1-.51,1.68c-.21.39-.28,1,.36,1s.91-.78,1-1.29a1.86,1.86,0,0,0-.45-1.5.22.22,0,0,0-.37.15Z"/><path class="cls-10" d="M99.84,56.1l1.58-1.68a5.13,5.13,0,0,0,1.15-1.56c.07-.18-.16-.31-.3-.23A5.36,5.36,0,0,0,100.83,54L99.4,55.66c-.26.3.17.74.44.44Z"/><path class="cls-8" d="M97.89,48.46A4,4,0,0,0,99.23,48a3.34,3.34,0,0,0,1.19-.6c.15-.16,0-.48-.19-.46a3.32,3.32,0,0,0-1.23.51,4.12,4.12,0,0,0-1.2.75.13.13,0,0,0,.09.23Z"/><path class="cls-8" d="M97.78,47.12a2.78,2.78,0,0,0,1.43,0,3.56,3.56,0,0,0,1.55-.39.23.23,0,0,0-.06-.42,3.64,3.64,0,0,0-1.56.16,3,3,0,0,0-1.41.49.12.12,0,0,0,0,.2Z"/><path class="cls-8" d="M100.27,47.39a6,6,0,0,0,2-.9c.09-.08,0-.26-.1-.24a6.33,6.33,0,0,0-2.06.87c-.15.08,0,.33.11.27Z"/><path class="cls-9" d="M97.87,52.72c.4-.13.66-.56.92-.88s.58-.6.6-1a.14.14,0,0,0-.18-.14c-.43.12-.66.58-.92.91a2.18,2.18,0,0,0-.57,1,.11.11,0,0,0,.15.11Z"/><path class="cls-9" d="M102.4,48a5.16,5.16,0,0,0,1.22-.61c.16-.13,0-.37-.2-.33a5.06,5.06,0,0,0-1.2.62c-.21.12,0,.41.18.32Z"/><path class="cls-1" d="M101.55,44.53a.89.89,0,0,0,0-1.77.89.89,0,0,0,0,1.77Z"/><path class="cls-1" d="M97.64,46.12a4.34,4.34,0,0,0,1.66-.43.15.15,0,0,0-.08-.28,4.18,4.18,0,0,0-1.65.44.15.15,0,0,0,.07.27Z"/><path class="cls-1" d="M97.71,46.21a3.16,3.16,0,0,0,1.75,0,12.12,12.12,0,0,0,2.07-.36.21.21,0,0,0-.06-.4,11.23,11.23,0,0,0-2.08.23,3.12,3.12,0,0,0-1.68.49,0,0,0,0,0,0,.05Z"/><path class="cls-1" d="M101.48,45.75a4.15,4.15,0,0,0,1.75-.27.17.17,0,0,0,0-.3,4.23,4.23,0,0,0-1.75.27c-.16,0-.13.31,0,.3Z"/><path class="cls-1" d="M97.53,46a2.21,2.21,0,0,0,1.52-.81.18.18,0,0,0-.15-.26,2.27,2.27,0,0,0-1.46.9.11.11,0,0,0,.09.17Z"/><path class="cls-1" d="M104.9,69.82c.32-.29.1-.78-.21-1a1,1,0,0,0-1.39.25,1.28,1.28,0,0,0,0,1.47,1.43,1.43,0,0,0,1.52.51.61.61,0,0,0,.45-.6.64.64,0,0,0-.18-.43.61.61,0,0,0-.59-.16c-.11,0-.34,0,0,0a.5.5,0,0,0,.46-.06Z"/><path class="cls-1" d="M104.47,70.1a1.88,1.88,0,0,0-1.06,1.71,1.44,1.44,0,0,0,.76,1.64c.7.23,1.22-.35,1.46-.92s.71-1.65.25-2.25a.41.41,0,0,0-.63-.08,1.75,1.75,0,0,0-.41,1,3.78,3.78,0,0,1-.17.6,3.44,3.44,0,0,0-.23.48c.18.14.24.12.16,0v-.09a2,2,0,0,1,.08-.69,4.79,4.79,0,0,0,.18-1.07.3.3,0,0,0-.38-.29Z"/><path class="cls-1" d="M106.21,70.39c-1.37.13-1.16,2,0,2.35a1.67,1.67,0,0,0,1.8-.66,1.89,1.89,0,0,0,0-2,.66.66,0,0,0-.6-.35h-.09a.6.6,0,0,0-.57.43c-.09.37.07.51.16.84a.35.35,0,0,1-.19.46c-.38.13-.49-.48-.34-.72a.22.22,0,0,0-.19-.33Z"/><path class="cls-1" d="M107.83,70.08a3.39,3.39,0,0,0,.13.68,3.19,3.19,0,0,0,.17,1,1.23,1.23,0,0,0,1.59.76,1.49,1.49,0,0,0,.92-1.57c-.07-.66-.62-1.66-1.37-1.63a.63.63,0,0,0-.61.61.89.89,0,0,0,.25.69c.13.15.19.33.31.48s.07.29.2.07a1.92,1.92,0,0,0-.11-.56,1.37,1.37,0,0,0-.67-.9.55.55,0,0,0-.81.4Z"/><path class="cls-1" d="M109,69.7a3.8,3.8,0,0,0-.81-.32,7.45,7.45,0,0,0-1-.09.68.68,0,0,0-.63.48l0,.09a.5.5,0,0,0,.13.49l.07.06a.68.68,0,0,0,.79.11A5.64,5.64,0,0,1,109,70.1a.22.22,0,0,0,0-.4Z"/><path class="cls-1" d="M109.76,49.83a1,1,0,0,0-1.37,1.1,1.29,1.29,0,0,0,2,.66,1.42,1.42,0,0,0,0-2.22,1.37,1.37,0,0,0-2.25.82.57.57,0,0,0,.71.54s.93-.5.8-.17a.1.1,0,0,1-.16,0c0-.07.15-.34.26-.38a.19.19,0,0,0,.05-.35Z"/><path class="cls-1" d="M110.1,49.59c0-.42-.39-.74-.76-.86a1.35,1.35,0,0,0-1.3.3c-.66.58-.65,2,.34,2.29a.58.58,0,0,0,.71-.71c0-.16-.29-.46-.17-.63s.6,0,.77,0a.42.42,0,0,0,.41-.41Z"/><path class="cls-1" d="M112.72,49.47c-1-.21-1.08,1.54,0,1.68a1.15,1.15,0,0,0,1.2-.73,1.48,1.48,0,0,0-.45-1.54.57.57,0,0,0-.58-.15l-.09,0a.52.52,0,0,0-.35.62.75.75,0,0,0,.3.44c.09.07.23.07.22.23s-.35.12-.11-.17a.25.25,0,0,0-.11-.41Z"/><path class="cls-1" d="M112.27,48.41a11.21,11.21,0,0,1,.23,1.24.33.33,0,0,0,.4.23c.92-.36.56-1.73-.36-1.82a.28.28,0,0,0-.27.35Z"/><path class="cls-8" d="M98.89,76.59a41.5,41.5,0,0,0,6.67-1.91c2.2-.7,4.45-1.32,6.6-2.16a.31.31,0,0,0-.16-.59c-2.4.6-4.75,1.45-7.1,2.2a37.24,37.24,0,0,0-6.14,2.16c-.18.09,0,.32.13.3Z"/><path class="cls-8" d="M111.57,72.3a1.78,1.78,0,0,1,.15.85c0,.25-.17.44-.19.69a.31.31,0,0,0,.46.26c.77-.37.52-1.67,0-2.1a.25.25,0,0,0-.39.3Z"/><path class="cls-8" d="M98.8,76.13c-.3.4,0,1,.17,1.44A5.18,5.18,0,0,0,100,79a.62.62,0,0,0,.88-.88,7.56,7.56,0,0,1-.92-1.19c-.22-.33-.42-.79-.83-.89a.29.29,0,0,0-.33.13Z"/><path class="cls-8" d="M100.27,78.57a25,25,0,0,0,5.67-2.09c2.08-.91,4.16-1.82,6.18-2.86.48-.24.06-.93-.42-.71-1.93.9-3.84,1.83-5.79,2.69a37.72,37.72,0,0,0-5.79,2.62.19.19,0,0,0,.15.35Z"/><path class="cls-8" d="M100.18,77.84c2.12.11,4.32-1,6.24-1.82s3.93-1.31,5.32-2.67a.58.58,0,0,0-.41-1c-2,.18-3.76,1.36-5.54,2.14S101.53,76,100,77.41a.26.26,0,0,0,.18.43Z"/><path class="cls-8" d="M100.14,77.3a11,11,0,0,0,2.22-.27,6.4,6.4,0,0,0,2.17-.63.78.78,0,0,0-.39-1.43,6.31,6.31,0,0,0-2.21.48,10.85,10.85,0,0,0-2.07.81.56.56,0,0,0,.28,1Z"/><path class="cls-10" d="M98.26,74.16a1.18,1.18,0,0,0-.08.92c.12.29.37.63.72.58a.19.19,0,0,0,.16-.28c-.2-.39-.65-.57-.55-1.11,0-.14-.18-.26-.25-.11Z"/><path class="cls-10" d="M97.56,73.82c0,.56.33,1.78,1.08,1.69a.19.19,0,0,0,.18-.24c0-.29-.29-.45-.47-.67a3.9,3.9,0,0,1-.51-.86c-.07-.14-.28-.06-.28.08Z"/><path class="cls-10" d="M98.77,78.23c-1.79.33-3,2.54-3.65,4.06a11.31,11.31,0,0,0-.83,6c.12.8,1.47.61,1.42-.19a11.05,11.05,0,0,1,1-5.73c.67-1.38,2-2.41,2.47-3.83.08-.23-.16-.4-.36-.36Z"/><path class="cls-10" d="M94.54,88.8a2.12,2.12,0,0,0,1.52.39,16.7,16.7,0,0,0,2-.06.7.7,0,0,0,0-1.39,16.7,16.7,0,0,0-2,.05,2.2,2.2,0,0,0-1.52.47.39.39,0,0,0,0,.54Z"/><path class="cls-10" d="M98.13,88.85c.86-.85,1.56-1.78,2.35-2.68s1.87-1.46,2.2-2.48c.18-.56-.37-.94-.86-.87-1.14.18-2.06,1.65-2.7,2.51a6.74,6.74,0,0,0-1.4,3.35c0,.22.28.3.41.17Z"/><path class="cls-10" d="M101.33,85c.9,1,2.68,1.07,3.88,1.6a13.37,13.37,0,0,1,4,2.93c.88.9,2.18-.43,1.37-1.36A13,13,0,0,0,106,84.84c-1.28-.55-3.27-1.39-4.53-.5a.44.44,0,0,0-.09.68Z"/><path class="cls-10" d="M107.93,87.47c-1.23,3-.82,6.88-.62,10,.19,3,.3,6.47,1.53,9.21.25.56,1.09.24,1.1-.3,0-3.26-.93-6.58-1.1-9.86-.16-3,.36-6.19-.3-9.08-.08-.33-.5-.26-.61,0Z"/><path class="cls-10" d="M108.19,105.81c0,.47,0,1,.52,1.19a.26.26,0,0,0,.26-.07c.35-.39.09-.89-.15-1.29a.34.34,0,0,0-.63.17Z"/><path class="cls-10" d="M109.58,106.78a12.3,12.3,0,0,0,4.88-.85.56.56,0,0,0-.3-1.08,12.15,12.15,0,0,0-4.62,1.59c-.11.08-.14.31,0,.34Z"/><path class="cls-10" d="M115,105.69c.55-2.76.24-5.68.48-8.48.26-3,.7-6,.84-9.08C116.56,83.26,116,78,113.11,74c-.65-.9-2.11-.1-1.51.88,2.89,4.72,3.17,10,2.71,15.35-.4,4.75-2.19,11.12.1,15.58a.34.34,0,0,0,.61-.08Z"/><path class="cls-10" d="M100.05,79.73a4.8,4.8,0,0,0,1.54-.31,5.27,5.27,0,0,0,1.51-.56.25.25,0,0,0-.13-.47,5.36,5.36,0,0,0-1.64.5,4.52,4.52,0,0,0-1.36.66c-.08.06,0,.18.08.18Z"/><path class="cls-10" d="M100.44,79.81a62.73,62.73,0,0,0,6.83-2.49,56.38,56.38,0,0,0,6-2.42c.5-.25.15-1.07-.39-.91a63.79,63.79,0,0,0-6.39,2.53,56.39,56.39,0,0,0-6.28,2.72.31.31,0,0,0,.24.57Z"/><path class="cls-10" d="M101.65,78.84a18.6,18.6,0,0,0,3.39-.56,14.42,14.42,0,0,0,3.32-1,.27.27,0,0,0-.13-.51,13.63,13.63,0,0,0-3.39.75,18.18,18.18,0,0,0-3.23,1.13.09.09,0,0,0,0,.16Z"/><path class="cls-10" d="M99.17,79.54c-3.36.65-4,5.54-3.36,8.22a.88.88,0,0,0,1.7-.47,6.61,6.61,0,0,1,.28-4.49c.46-1,1.29-1.77,1.76-2.76a.34.34,0,0,0-.38-.5Z"/><path class="cls-10" d="M97.73,88.45c1.16-.31,1.78-2.14,2.45-3a11.61,11.61,0,0,1,1.57-1.72c.56-.51,1.17-.77,1.33-1.55a.74.74,0,0,0-.7-.91c-1.4-.19-3,2-3.7,2.94s-2.12,2.94-1.3,4.12a.31.31,0,0,0,.35.14Z"/><path class="cls-10" d="M97.51,86.69c.54-.1.6-.54.83-1a8.88,8.88,0,0,1,1.53-2.07,11,11,0,0,1,2-1.55A7.26,7.26,0,0,0,104,80.74c.41-.49.2-1.47-.58-1.4-1.58.13-3.34,1.49-4.49,2.54A5.89,5.89,0,0,0,96.84,86a.67.67,0,0,0,.32.56.63.63,0,0,0,.35.09Z"/><path class="cls-10" d="M98,83.09c2.06-1,4-2.29,6.1-3.13,1.85-.73,4.33-.69,5.93-1.81a.43.43,0,0,0,0-.74c-2-1-4.73.13-6.62.9a11.69,11.69,0,0,0-5.75,4.44.25.25,0,0,0,.34.34Z"/><path class="cls-10" d="M104.46,79.91A53,53,0,0,0,112.53,77c1-.44.14-1.92-.87-1.48a51.4,51.4,0,0,0-7.42,3.9.29.29,0,0,0,.22.52Z"/><path class="cls-10" d="M102.64,82.06c2,.14,4-1,5.77-1.7s3.85-1.55,5.73-2.42c1-.44.27-2.08-.72-1.71-1.94.73-3.84,1.57-5.75,2.37s-4,1.41-5.25,2.91a.32.32,0,0,0,.22.55Z"/><path class="cls-10" d="M102.34,83.49c1.79.32,3.49-.67,5.13-1.34q3.21-1.29,6.4-2.64a1,1,0,1,0-1-1.63l-.34.29a.57.57,0,0,0,0,.79l.34.3.43-1.63c-2.27.93-4.54,1.87-6.79,2.83-1.58.66-3.39,1.16-4.39,2.61a.29.29,0,0,0,.17.42Z"/><path class="cls-10" d="M102.71,84.33c2,.68,4.28-.13,6.17-.81a15.72,15.72,0,0,0,5.66-3.06c.56-.54,0-1.66-.79-1.36-2,.75-3.73,1.93-5.74,2.65-1.77.64-3.82.84-5.38,1.92a.36.36,0,0,0,.08.66Z"/><path class="cls-10" d="M105,85c1.35,1.11,3.63.38,5.12-.12s4-1.28,4.53-3a.63.63,0,0,0-.6-.79c-1.59,0-3.21,1.48-4.73,2s-3.27.45-4.32,1.5a.28.28,0,0,0,0,.4Z"/><path class="cls-10" d="M106.89,86.25c1.09,1.16,3.39.52,4.65,0S115.06,84.52,115,83c0-.34-.3-.74-.69-.69a2,2,0,0,0-1.41.78,7.24,7.24,0,0,1-2.07,1.39c-1.21.56-2.87.48-3.91,1.29a.37.37,0,0,0,0,.5Z"/><path class="cls-10" d="M108.66,87.47c.53,1.13,2.73.43,3.58.12,1.27-.46,2.88-1.25,3.4-2.56.41-1-1.51-1.47-1.57-.21a.71.71,0,0,0,.24.56l.35-1.33a8,8,0,0,0-1.68,1.1,8.22,8.22,0,0,1-2.26,1c-.46.14-2.48.37-2.06,1.3Z"/><path class="cls-10" d="M113.7,85.75a21.45,21.45,0,0,0-1.6,8.36c-.06,2,2.26,11.19-2,9.83a.88.88,0,0,0-.67,1.6c3,1.57,5.31-1.33,5.35-4.17,0-2.44-.87-4.79-.83-7.26,0-2.72.89-5.38.77-8.09,0-.49-.75-.78-1-.27Z"/><path class="cls-10" d="M109.87,106.12c1.35.52,3.2-.77,4.21-1.61a.86.86,0,0,0,.22-.86.83.83,0,0,0-.4-.53.88.88,0,0,0-.9,0c-.62.39-1.22.81-1.87,1.16a3.38,3.38,0,0,0-1.53,1.18.46.46,0,0,0,.27.66Z"/><path class="cls-10" d="M113.37,104.76c.43-.83.33-1,.14-1.89a49.38,49.38,0,0,1-.74-5,34.05,34.05,0,0,1,.37-9.4c.22-1.23-1.67-1.76-1.89-.52a33.35,33.35,0,0,0-.4,9.92c.25,2,.5,5.91,2.49,6.89Z"/><path class="cls-10" d="M111.54,87c-1.89,2-2.17,5.3-2.25,7.92a24,24,0,0,0,1.73,9.59c.45,1.17,2.35.66,1.89-.52a22.83,22.83,0,0,1-1.67-8.64c0-2.71,1.13-5.39,1-8.06a.42.42,0,0,0-.7-.29Z"/><path class="cls-10" d="M111.52,104.3c-2.49-5-1-10.68-.45-15.88a.83.83,0,0,0-1.53-.41c-1.39,2.77-1.53,6.47-1.34,9.52.14,2.28.21,5.83,2.27,7.25a.66.66,0,0,0,.64,0l.33-.17a.22.22,0,0,0,.08-.31Z"/><path class="cls-10" d="M110.59,86.2c-1.06.7-.84,2.38-.78,3.5s0,2.88,1,3.66a.65.65,0,0,0,.88-.23c.66-1,.06-2.51,0-3.67-.06-1,.22-2.46-.61-3.2a.45.45,0,0,0-.53-.06Z"/><path class="cls-10" d="M112.66,85.3c-1,.78-.83,2.48-.84,3.66a6.54,6.54,0,0,1-.41,2.6,1.93,1.93,0,0,0-.31,1.35.53.53,0,0,0,.37.37c2.81,1,2.94-6.86,1.49-8a.29.29,0,0,0-.3,0Z"/><path class="cls-10" d="M109,87c-1,.63-1,2-1.07,3.11-.14,1.52-.47,3.38.08,4.83a.77.77,0,0,0,1.47,0c.5-1.38.27-3.09.33-4.54,0-1.11.36-2.51-.48-3.36a.27.27,0,0,0-.33,0Z"/><path class="cls-8" d="M94.5,90.22a4.62,4.62,0,0,0,1.43.41c.51.09,1,.2,1.54.24a.57.57,0,0,0,.15-1.12A12.81,12.81,0,0,0,96,89.5a4.47,4.47,0,0,0-1.41,0,.42.42,0,0,0-.1.76Z"/><path class="cls-8" d="M94.46,89.68c-.42,2.57.24,5.83.77,8.37a.57.57,0,0,0,1.11-.15c-.16-2.59-.37-5.9-1.45-8.28a.24.24,0,0,0-.43.06Z"/><path class="cls-8" d="M97.15,90.6c-1.22,1.65-1.33,3.63-1.29,5.62,0,2.72-4.56,1.44-6.21,1.3-.85-.07-1,1.28-.2,1.48a21.08,21.08,0,0,0,4.41.51,3.64,3.64,0,0,0,3-.84A3.6,3.6,0,0,0,97.42,96c-.06-1.77.23-3.5.18-5.27a.24.24,0,0,0-.45-.12Z"/><path class="cls-8" d="M89.2,98.44a7.67,7.67,0,0,1,2.18-1.38,3,3,0,0,1,3.07,1c.62.66,1.53-.3,1-1a4.13,4.13,0,0,0-4.09-1.4,3,3,0,0,0-2.48,2.54.23.23,0,0,0,.34.19Z"/><path class="cls-8" d="M90.63,97.46c.09,1.45,3.4.86,4.21.6a.77.77,0,0,0-.41-1.48,25,25,0,0,1-2.74.34c-.27,0-1.09.08-1.06.54Z"/><path class="cls-8" d="M96,90.72a3,3,0,0,0-.75,1.39,3.78,3.78,0,0,0,0,1.83.78.78,0,0,0,1.52-.21,8.94,8.94,0,0,0-.38-2.9.26.26,0,0,0-.42-.11Z"/><path class="cls-8" d="M95.15,90.44c-.15,1,1.15,1.6,2,1.37a.73.73,0,0,0,0-1.39A4.83,4.83,0,0,0,96,90.34a4,4,0,0,0-.77,0,.18.18,0,0,0-.12.12Z"/><path class="cls-8" d="M90.67,97.81c-.22.14-.44.27-.66.43s0,.21.09.15.45-.26.68-.4a.11.11,0,0,0-.11-.18Z"/><path class="cls-8" d="M90.24,97.46a1.29,1.29,0,0,0,2,.36.48.48,0,0,0-.1-.74,1.41,1.41,0,0,0-.95-.07,1.57,1.57,0,0,0-.83.17.26.26,0,0,0-.11.28Z"/><path class="cls-8" d="M109,108a6.69,6.69,0,0,0,2.59-.17,16,16,0,0,0,3.31-.62.4.4,0,0,0-.1-.79,14.56,14.56,0,0,0-3,.49,7.46,7.46,0,0,0-2.84.82.15.15,0,0,0,0,.27Z"/><path class="cls-8" d="M108.77,107.69c-.4,2,.34,4.17.86,6.08a29.58,29.58,0,0,0,2.43,6.67.57.57,0,0,0,1-.43c-.67-2.22-1.64-4.33-2.29-6.56-.56-1.91-.74-4.08-1.76-5.79a.15.15,0,0,0-.27,0Z"/><path class="cls-8" d="M114.13,107.38c-1.54,3.44-1.85,7.55-2.09,11.27-.06.91,1.38.92,1.42,0,.16-3.74,1-7.44,1-11.17,0-.19-.29-.28-.37-.1Z"/><path class="cls-8" d="M114,111.13a15.47,15.47,0,0,0-1.13,4.76c-.23,1.47-.76,3-.46,4.48a.53.53,0,0,0,1,.12c.8-1.26.8-2.94,1-4.4a12.12,12.12,0,0,0,0-4.91.19.19,0,0,0-.34-.05Z"/><path class="cls-8" d="M113.72,107.49c-1.39,1.11-1.87,3.08-2.16,4.77-.24,1.37-.75,3.38.39,4.41a.5.5,0,0,0,.77-.09c.83-1.08.37-3,.57-4.27.24-1.55.95-3,1-4.59a.34.34,0,0,0-.57-.23Z"/><path class="cls-8" d="M112.88,107.47c-2,1.65-3.3,4.71-2.14,7.25.34.76,1.4.31,1.45-.39a21.56,21.56,0,0,1,.07-3.31,15.31,15.31,0,0,1,1-3.25.25.25,0,0,0-.39-.3Z"/><path class="cls-8" d="M111.83,107.51a4.53,4.53,0,0,0-1,.65,3,3,0,0,0-.66,1.09,4,4,0,0,0,0,2.71.84.84,0,0,0,1.62-.45,4.79,4.79,0,0,1,0-2,5.93,5.93,0,0,1,.49-1.73.23.23,0,0,0-.31-.31Z"/><path class="cls-8" d="M109.49,107.87c-.88.29-.46,1.77,0,2.25a1.73,1.73,0,0,0,2.38.18c.78-.61-.23-1.9-1-1.37-.14.1-.06.06-.07,0s-.25-.27-.33-.4c-.17-.29-.49-.85-.91-.71Z"/><path class="cls-8" d="M109.55,108.85a5.5,5.5,0,0,0,2.55-.06,8,8,0,0,0,2.81-.52.69.69,0,0,0-.17-1.25,5.69,5.69,0,0,0-2.88.22,4.27,4.27,0,0,0-2.44,1.14.28.28,0,0,0,.13.47Z"/><path class="cls-8" d="M108.69,107.8c.61.13,1.73.37,2.2-.14a.35.35,0,0,0-.07-.54c-.59-.38-1.61.14-2.17.42a.15.15,0,0,0,0,.26Z"/><path class="cls-8" d="M112.07,115.75c-.56.54-.36,1.55-.27,2.25s.11,1.64.86,1.9a.35.35,0,0,0,.36-.1c.47-.57.09-1.3,0-2s-.09-1.61-.61-2.09a.22.22,0,0,0-.31,0Z"/><path class="cls-8" d="M113.9,117.92a8.09,8.09,0,0,0,.32,1.81c.07.37.17.9-.12,1.21s-.42.24-.6.4a.44.44,0,0,0,0,.61c.89.69,1.77-.38,1.88-1.25a3.13,3.13,0,0,0-1.18-3,.2.2,0,0,0-.3.18Z"/><path class="cls-8" d="M114.55,121.33a26.45,26.45,0,0,0-4.36.06c-1.69,0-3.37-.07-5-.18-.87-.06-.83,1.22,0,1.32,2.87.34,6.78.58,9.45-.78a.23.23,0,0,0,0-.42Z"/><path class="cls-8" d="M104.65,122.22c1.06-.28,1.73-1.35,2.67-1.91a5,5,0,0,1,4.52-.43c.55.21.93-.69.4-.95a5.26,5.26,0,0,0-4.55,0c-1.17.52-3,1.68-3.26,3a.18.18,0,0,0,.22.22Z"/><path class="cls-8" d="M108.61,118.66a2.22,2.22,0,0,0-1.78.19c-.51.31-1.06.94-.87,1.58a.39.39,0,0,0,.56.22c.37-.18.63-.6.92-.88a3,3,0,0,1,1.17-.74.19.19,0,0,0,0-.37Z"/><path class="cls-8" d="M106.49,121a4.58,4.58,0,0,0,3.12.37,15.62,15.62,0,0,0,3.58-.68.79.79,0,0,0-.42-1.52c-1.17.16-2.32.45-3.5.61a5.78,5.78,0,0,0-2.78.72.29.29,0,0,0,0,.5Z"/><path class="cls-8" d="M107.3,121.77a55.84,55.84,0,0,0,6.84-.22c1.07-.06,1.07-1.73,0-1.67a56.79,56.79,0,0,0-7,.58c-.78.14-.53,1.26.18,1.31Z"/><path class="cls-8" d="M108.31,120.41c.39,0,.8.12,1.18.15s.8.06,1.2.07a.75.75,0,0,0,0-1.49,5.78,5.78,0,0,0-1.36.23,6.83,6.83,0,0,0-1.14.59.24.24,0,0,0,.12.45Z"/><path class="cls-8" d="M105.62,121.58c.69.3,1.91.65,2.52.07a.6.6,0,0,0-.12-.93c-.64-.43-1.82.12-2.4.5-.11.08-.15.29,0,.36Z"/><path class="cls-8" d="M104.52,122.56l.1,0c.48-.12-.17-.76-.28-.28l0,.1a.16.16,0,0,0,.2.2Z"/><path class="cls-12" d="M105.73,121.65a8.26,8.26,0,0,1,1.21-1.15c.42-.25,1-.29,1.36-.6a.23.23,0,0,0,0-.35c-1-.44-2.73.91-2.94,1.87a.25.25,0,0,0,.41.23Z"/><path class="cls-12" d="M113.6,107.6a20.29,20.29,0,0,0-.8,5.79.3.3,0,0,0,.59.08,20.42,20.42,0,0,0,.58-5.82.19.19,0,0,0-.37-.05Z"/><path class="cls-12" d="M90.25,97.58c.37-.1.6-.46,1-.58a11.4,11.4,0,0,1,1.15-.1.25.25,0,0,0,.12-.42c-.6-.65-2.57-.06-2.5.9a.21.21,0,0,0,.26.2Z"/><path class="cls-12" d="M96.57,90.57a7,7,0,0,0-.65,2,4,4,0,0,0-.21,1.83.15.15,0,0,0,.27,0,5.35,5.35,0,0,0,.5-1.86,12.44,12.44,0,0,0,.39-1.89.16.16,0,0,0-.3-.08Z"/><path class="cls-12" d="M112.68,75c.32,1.64,1,3.18,1.37,4.82a35.91,35.91,0,0,1,.68,5.85,65.61,65.61,0,0,1-.37,11.21c-.09.82,1.34,1,1.46.19a56,56,0,0,0,.59-12.8c-.24-3.18-.53-7.4-3.08-9.65a.39.39,0,0,0-.65.38Z"/><path class="cls-12" d="M94.56,86.46a.15.15,0,0,0,0-.29.15.15,0,0,0,0,.29Z"/><path class="cls-12" d="M99.32,82.22a3.75,3.75,0,0,0-2.74,2.14c-.51.93-1.09,2.46-.3,3.38a.37.37,0,0,0,.56-.07c.45-.79.3-1.84.68-2.69a11.35,11.35,0,0,1,1.93-2.43c.1-.12,0-.34-.13-.33Z"/><path class="cls-12" d="M101.11,79.6c-.4,1.46.44,3.38,1.36,4.49.77.94,2.47,2.21,3.61,1.17a.36.36,0,0,0,0-.51,5.5,5.5,0,0,0-1.4-.68,3.75,3.75,0,0,1-1.5-1.35c-.66-1-.8-2.35-1.61-3.24a.28.28,0,0,0-.46.12Z"/><path class="cls-12" d="M111.33,82.32a60.39,60.39,0,0,0-.18,8.4.15.15,0,0,0,.29,0,25.08,25.08,0,0,0,.35-8.51c0-.28-.43-.18-.46.07Z"/><path class="cls-12" d="M99.62,50a13.48,13.48,0,0,1,1.57-.89,5.86,5.86,0,0,0,1.5-.69.2.2,0,0,0-.09-.34,2.64,2.64,0,0,0-1.6.5,5.2,5.2,0,0,0-1.51,1.25c-.07.09,0,.24.13.17Z"/><path class="cls-12" d="M103.22,56.77c4.11,1.29,4.85,4.65,4.65,8.54,0,.42.55.44.68.09,1.31-3.51-.37-10.23-5.33-9.13a.26.26,0,0,0,0,.5Z"/><path class="cls-12" d="M107.18,45.13c1.1-.23,3.58-.15,3.44,1.43a.28.28,0,0,0,.41.24c.84-.61.27-1.6-.49-2a4.19,4.19,0,0,0-3.43,0,.13.13,0,0,0,.07.26Z"/><path class="cls-12" d="M96.68,65.41c-.61,2.74,1.11,6.65,3.08,8.53a.46.46,0,0,0,.72-.56,32.67,32.67,0,0,1-2.23-4.27c-.45-1.23-.62-2.55-1.14-3.75a.24.24,0,0,0-.43,0Z"/><path class="cls-12" d="M83.53,11.5a11.61,11.61,0,0,0,1.8-1c.12-.09,0-.3-.14-.25a11.3,11.3,0,0,0-1.77,1.05c-.12.07,0,.25.11.19Z"/><path class="cls-12" d="M86.08,4.68c-.07-.26-.32-.52-.22-.82s.47-.32.66-.55a.17.17,0,0,0,0-.21c-.4-.57-1.18,0-1.34.51S85.38,5,86,4.8a.09.09,0,0,0,.07-.12Z"/><path class="cls-12" d="M89.09,4.44a2.83,2.83,0,0,1,.38-.68.39.39,0,0,0-.27-.66c-.75,0-1.2,1.15-.43,1.47a.3.3,0,0,0,.32-.13Z"/><path class="cls-12" d="M78.73,20.31a.5.5,0,0,0,0-1,.5.5,0,0,0,0,1Z"/><path class="cls-12" d="M78.78,19.91a2.59,2.59,0,0,0,.87-.63c0-.07,0-.17-.12-.14a2.38,2.38,0,0,0-.88.6c-.1.08,0,.23.13.17Z"/><path class="cls-12" d="M82.06,22.54a1.85,1.85,0,0,0,1.51-.62.21.21,0,0,0-.12-.3,1.82,1.82,0,0,0-1.55.54.22.22,0,0,0,.16.38Z"/><path class="cls-12" d="M128.35,99.54c2.08-1.14,3.51-3.54,5-5.31,1.8-2.1,6-6,8.19-2.14a1,1,0,0,0,1.69-1c-1.67-2.85-5.08-3.11-7.78-1.5a18.58,18.58,0,0,0-4.37,4.3c-1.31,1.56-3,3-3.61,5a.59.59,0,0,0,.85.66Z"/><path class="cls-12" d="M144.08,91.75c1.67-2.26,2.61-4.77,4.65-6.81a33,33,0,0,1,7.69-5.44,41,41,0,0,1,8.81-3.81,21.79,21.79,0,0,1,5.07-.8c1.66,0,3.25.33,4.89.3a.76.76,0,0,0,.39-1.41c-2.8-1.45-6.58-1-9.56-.31a39.92,39.92,0,0,0-10.59,4.34,33.86,33.86,0,0,0-8.36,6c-1.93,2-4.1,4.72-4,7.64a.54.54,0,0,0,1,.27Z"/><path class="cls-12" d="M124.91,121.07l.08,0a.83.83,0,0,0,.92-.37c1.91-2.91,3.9-5.46,7.26-6.76a12.93,12.93,0,0,1,5.44-.82c1.91.12,3.51.93,5.35,1.29.68.13,1.37-.74.74-1.28-3.14-2.71-8.76-2.4-12.39-1-3.46,1.4-6.72,4.27-7.89,7.89a.82.82,0,0,0,.37.92l.12,0Z"/><path class="cls-12" d="M142.6,113.08c1.25-1,2-2.35,3.11-3.47a16.92,16.92,0,0,1,4.72-3.36c3.14-1.5,7-1.18,9.9-3.17a12.94,12.94,0,0,0,2.74-2.93,12.1,12.1,0,0,1,5.32-4.24,16,16,0,0,1,6.47-.93c1.16,0,6.62.18,7.08,1.68a.72.72,0,0,0,1.29.17c2.19-3.22-6.34-3.68-7.9-3.78-4.62-.29-9.57.91-12.71,4.52-1.69,1.94-2.73,4-5.37,4.78-2.29.7-4.64.86-6.88,1.81-3.17,1.33-8.09,4.51-8.69,8.21-.07.46.44,1.09.92.71Z"/><path class="cls-12" d="M119.54,73.73a.81.81,0,0,0,0,.27.05.05,0,0,0,.1,0,.62.62,0,0,0,0-.27c0-.13-.21-.13-.2,0Z"/><path class="cls-13" d="M96.52,44.68c.07.82.14,1.63.22,2.44,0,.14.23.15.22,0-.06-.81-.12-1.63-.19-2.44,0-.16-.27-.16-.25,0Z"/><path class="cls-13" d="M97.49,46.79a23.93,23.93,0,0,0,5.12-1c.08,0,.08-.18,0-.17a23.5,23.5,0,0,0-5.11,1c-.09,0-.07.17,0,.16Z"/><path class="cls-13" d="M97.17,46.68c-.36,1.22-.64,2.47-.93,3.71a.19.19,0,0,0,.27.21c2.46-1.45,4.94-2.88,7.37-4.38a.15.15,0,0,0,0-.23,5.13,5.13,0,0,0-.72-.68c-.07-.06-.2,0-.14.11.45.59.29.68-.31,1.11s-1.5.87-2.23,1.29l-4.19,2.47.27.2c.29-1.24.6-2.48.82-3.74a.13.13,0,0,0-.24-.07Z"/><path class="cls-13" d="M95.83,49.85C91.53,58.66,94.58,68,98,76.58c.12.3.6.17.48-.13C95.16,67.79,92,59,96,50c.06-.13-.13-.25-.2-.12Z"/><path class="cls-13" d="M110.19,70.94a3.92,3.92,0,0,0,1.26-.67.1.1,0,0,0-.1-.17,3.59,3.59,0,0,0-1.27.59c-.12.08,0,.31.11.25Z"/><path class="cls-13" d="M103.23,46.28c1.42,3.06,2.41,5.73,2.28,9.18,0,.37.56.37.58,0,.13-3.2-.52-6.8-2.5-9.4a.21.21,0,0,0-.36.22Z"/><path class="cls-13" d="M100.32,54.54c3.07.59,6.67.7,9,3.14,3.36,3.57,2.13,8.48-.5,12-.16.21.21.42.37.21,2.42-3.28,3.76-7.75,1.35-11.46-2.12-3.26-6.54-4.09-10.16-4.14-.13,0-.17.21,0,.24Z"/><path class="cls-13" d="M99.16,58.47c2.87-.85,5.94-.36,7.55,2.42s.32,6-1.69,8.22c-.2.22.11.54.32.33,2.37-2.41,3.56-6,1.62-9.07a6,6,0,0,0-7.9-2.15.14.14,0,0,0,.1.25Z"/><path class="cls-13" d="M105.44,69.37a16.53,16.53,0,0,0,3.72,0,.2.2,0,0,0,0-.39,17.79,17.79,0,0,0-3.72,0,.16.16,0,0,0,0,.31Z"/><path class="cls-13" d="M103.42,47.18c1.37-1.15,2.64-2.56,4.45-3a3.66,3.66,0,0,1,3.46.67,2.45,2.45,0,0,1,.2,3.39c-.15.17.09.42.24.25a3,3,0,0,0-1.37-4.71c-2.8-1-5.52,1.23-7.16,3.25a.12.12,0,0,0,.18.17Z"/><path class="cls-13" d="M105,48.58a2.85,2.85,0,0,1,3.23-2.42,2.77,2.77,0,0,1,2,3.05.18.18,0,0,0,.36,0,3.07,3.07,0,0,0-2.5-3.57,3,3,0,0,0-3.25,2.87c0,.1.17.12.18,0Z"/><path class="cls-13" d="M110,49.3a8.26,8.26,0,0,0,2.06-.84c.09-.07.08-.27-.07-.25a7.9,7.9,0,0,0-2.11.82c-.15.07,0,.32.12.27Z"/><path class="cls-13" d="M105,68.68c-.81-.1-2-.11-2.33.84-.15.45,0,1.55.75,1.29.07,0,.12-.13,0-.19-.36-.29-.61-.68-.3-1.14S104.43,69,105,69c.21,0,.2-.3,0-.33Z"/><path class="cls-13" d="M104.16,70.68a2.47,2.47,0,0,0-1,1.85,1.13,1.13,0,0,0,1,1.1,1.56,1.56,0,0,0,1.34-.6,3.3,3.3,0,0,0,.42-2.35c0-.19-.31-.19-.3,0,.06.93.1,2.37-1.08,2.6-.69.13-1.06-.53-1-1.14a2.9,2.9,0,0,1,.76-1.28.13.13,0,0,0-.18-.18Z"/><path class="cls-13" d="M105.53,71.76a1.48,1.48,0,0,0,2.18,1.11c.71-.42,1.08-2,.17-2.37a.14.14,0,0,0-.19.19c.26.58.5,1.31-.16,1.76a1.2,1.2,0,0,1-1.73-.73c0-.14-.29-.12-.27,0Z"/><path class="cls-13" d="M108.27,71.32c-.69,1.37,1.4,2.22,2.27,1.16a2.07,2.07,0,0,0,.28-2c-.25-.64-.95-1.55-1.68-1.65-.11,0-.24.09-.16.21.5.76,1.44,1,1.52,2.09a1.48,1.48,0,0,1-.43,1.18,1,1,0,0,1-1.55-.83c0-.14-.18-.26-.25-.11Z"/><path class="cls-13" d="M98.81,76c4.19-.95,8.32-2.4,12.41-3.69a.15.15,0,0,0-.07-.29c-4.14,1.15-8.39,2.2-12.42,3.69a.15.15,0,0,0,.08.29Z"/><path class="cls-13" d="M110.38,67.88a19.49,19.49,0,0,0,1,4.54c.06.16.32.15.31,0a19.18,19.18,0,0,0-.94-4.55c-.06-.19-.39-.17-.37,0Z"/><path class="cls-13" d="M97.89,76.12a23,23,0,0,0,1.63,3.3c.11.21.42,0,.32-.19A23,23,0,0,0,98.14,76c-.08-.12-.3-.05-.25.11Z"/><path class="cls-13" d="M99.77,79.21c4.55-1.82,9-3.81,13.54-5.74.1,0,.09-.18,0-.25l-1.6-2c-.1-.12-.32,0-.22.17.56.76,1.36,1.34.67,2.26s-3.47,1.49-4.33,1.86c-2.73,1.17-5.47,2.32-8.17,3.55-.11,0,0,.24.08.19Z"/><path class="cls-13" d="M98,78c-1.93,2.29-3.72,4.81-4.16,7.84-.52,3.57.32,7.56.92,11.08a.15.15,0,0,0,.29,0c-.25-2.87-1-5.77-1-8.66,0-4.05,1.83-6.92,4.07-10.11C98.17,78,98,77.88,98,78Z"/><path class="cls-13" d="M101.51,84.74A14.72,14.72,0,0,0,97.07,97c0,.28.44.3.44,0a18,18,0,0,1,4.27-12,.19.19,0,0,0-.27-.28Z"/><path class="cls-13" d="M94.44,95.78h-.2s0,0,0,0h.2a0,0,0,1,0,0,0Z"/><path class="cls-13" d="M94.45,96c-2.11-1.4-5.2-.18-6.23,2-.18.37.37.69.55.32a4.22,4.22,0,0,1,5.51-1.9c.25.09.37-.27.17-.41Z"/><path class="cls-13" d="M88.36,99.09c1.84.23,3.7.34,5.56.42,1.11,0,2.64.26,3.53-.6s.94-2.26-.19-2.74c-.25-.11-.47.23-.22.38.17,1.56-.28,2.31-1.35,2.26a5.58,5.58,0,0,1-1.08,0c-.69,0-1.39,0-2.08-.06-1.4,0-2.78,0-4.17,0a.13.13,0,0,0,0,.25Z"/><path class="cls-13" d="M93.58,89.21a18.49,18.49,0,0,0,4.73.72.25.25,0,0,0,.07-.49,18.5,18.5,0,0,0-4.75-.64.21.21,0,0,0,0,.41Z"/><path class="cls-13" d="M106.92,99.46a78.14,78.14,0,0,0,4,18.44c.08.22.42.13.35-.1a151.56,151.56,0,0,1-4.16-18.37c0-.13-.25-.11-.24,0Z"/><path class="cls-13" d="M116.86,90.53c.22-6.06-.22-12-3.37-17.35a.25.25,0,0,0-.43.25c3.11,5.26,3.51,11.13,3.3,17.1a.25.25,0,0,0,.5,0Z"/><path class="cls-13" d="M114.52,118.08l1-11.22c0-.32-.47-.32-.5,0l-1,11.22c0,.32.47.31.5,0Z"/><path class="cls-13" d="M108.55,108.07l.11-.1c.48-.47-.82-.47-.33,0l.1.1a.08.08,0,0,0,.12,0Z"/><path class="cls-13" d="M108.37,107.57l6.9-1.1c.32,0,.19-.54-.13-.49l-6.9,1.11c-.32,0-.18.53.13.48Z"/><path class="cls-13" d="M111,118.42c-2.89-1.66-6.68,1-7.65,3.69-.11.31.37.43.48.14a5.86,5.86,0,0,1,3.16-3.27,7.81,7.81,0,0,1,4-.36.11.11,0,0,0,.06-.2Z"/><path class="cls-13" d="M104.07,122.84a67.12,67.12,0,0,0,7,.17c1.23,0,3,.34,4.16-.28,2.09-1.14-.22-4.86-.72-6.36-.09-.25-.48-.15-.4.11a17.15,17.15,0,0,1,1.18,3.66c.15,2.4-1.55,2.21-3.35,2.21a72.79,72.79,0,0,0-7.82.2.15.15,0,0,0,0,.29Z"/><path class="cls-13" d="M99.94,85.56a11,11,0,0,1,4.16.86,18.44,18.44,0,0,1,2.9,2c.14.1.32-.09.23-.23-1.43-2.17-4.81-3.23-7.29-2.94a.18.18,0,0,0,0,.35Z"/><path class="cls-13" d="M100.09,80.55a15.09,15.09,0,0,0,1.42,2.06s.09,0,.07-.06a14.62,14.62,0,0,0-1.43-2,0,0,0,0,0-.06,0Z"/><path class="cls-13" d="M102.63,83.16l.18,1.23s0,0,0,0l-.17-1.23s0,0,0,0Z"/><path class="cls-13" d="M102.08,83.6a10.27,10.27,0,0,0,.42,1.63c0,.08.18.08.17,0a10.44,10.44,0,0,0-.4-1.65c0-.12-.21-.07-.19,0Z"/><path class="cls-13" d="M100,80.52a5.17,5.17,0,0,0,2.12,3.73c.09,0,.19-.08.12-.16a9.13,9.13,0,0,1-1.36-1.61,6,6,0,0,1-.69-2c0-.1-.2-.08-.19,0Z"/><path class="cls-13" d="M82,56a111.34,111.34,0,0,0,12.66-3.12c.14,0,.08-.26-.07-.23A111.85,111.85,0,0,0,82,55.91c-.08,0,0,.13,0,.12Z"/><path class="cls-13" d="M106.45,51c12.18-2.48,24.24-5.76,36.32-8.68.2-.05.11-.36-.09-.31-12.08,2.92-24.3,5.51-36.27,8.86-.08,0,0,.15,0,.13Z"/><path class="cls-13" d="M133.6,40.6c.06,1,.25,2,.4,3a18.92,18.92,0,0,0,.64,3.37.16.16,0,0,0,.31,0,16.78,16.78,0,0,0-.39-3c-.18-1.13-.32-2.27-.61-3.38,0-.19-.37-.16-.35.05Z"/><path class="cls-13" d="M79.37,75.39c8-1.3,16-2.72,23.93-4.35.14,0,.08-.25-.06-.23-8,1.26-16,2.75-23.93,4.35-.15,0-.08.25.06.23Z"/><path class="cls-13" d="M110.52,69.85C123.06,67.9,135.59,65.44,148,63c.16,0,.09-.27-.06-.25-12.51,2.13-25.1,4.28-37.51,6.91-.14,0-.08.22,0,.2Z"/><path class="cls-13" d="M137.4,61c-.16,3.32-.15,6.66-.16,10a.15.15,0,0,0,.3,0c.09-3.32.2-6.66.14-10a.14.14,0,0,0-.28,0Z"/><path class="cls-13" d="M108.9,49.86c-.72.19-.78,1.28-.33,1.76a1.18,1.18,0,0,0,1.85-.17,1.45,1.45,0,0,0-.43-1.89,1.69,1.69,0,0,0-2.2.34c-.08.13.07.23.18.18.52-.21.93-.5,1.52-.33a1,1,0,0,1,.73,1.16.81.81,0,0,1-1.25.6c-.65-.4-.3-1,0-1.51,0-.07,0-.16-.11-.14Z"/><path class="cls-13" d="M110.85,50c.75-.33,1.45.7.63,1.11s-1.11-.65-.61-1.09c.2-.18-.09-.47-.3-.3-1,.81.12,2.43,1.22,1.68a1,1,0,0,0-1.13-1.71.18.18,0,0,0,.19.31Z"/><path class="cls-13" d="M111.67,50a1.82,1.82,0,0,0,1.89,1.67c.09,0,.21-.07.22-.17.2-1.32-1.43-2.66-2.64-1.85-.2.14-.08.52.17.41a1.43,1.43,0,0,1,2,1.38l.23-.23A1.42,1.42,0,0,1,112,50c0-.21-.35-.23-.34,0Z"/><path class="cls-13" d="M112.82,49.89a.76.76,0,0,0,.83.89.88.88,0,0,0,.73-1c-.15-1.37-2.33-1.28-2.91-.31a.13.13,0,0,0,.11.2c.56,0,1-.47,1.58-.42a.74.74,0,0,1,.73.56.53.53,0,0,1-.1.44.37.37,0,0,1-.58-.29c0-.22-.35-.28-.39,0Z"/><path class="cls-13" d="M109.76,48.92a1.59,1.59,0,0,0-2.21.1c-.5.56-.58,1.83.22,2.18A.18.18,0,0,0,108,51c-.26-.52-.56-1-.22-1.59a1.2,1.2,0,0,1,1.76-.24c.14.11.35-.08.2-.21Z"/><path class="cls-13" d="M93.06,59.49c1.58-.31,3.15-.69,4.72-1.08.38-.09.22-.69-.16-.59-1.56.44-3.12.86-4.65,1.37a.16.16,0,1,0,.09.3Z"/><path class="cls-13" d="M97.38,58a24.07,24.07,0,0,0,1.71,5.12c.1.2.38,0,.34-.15a24,24,0,0,0-1.75-5.1c-.07-.17-.34,0-.3.13Z"/><path class="cls-13" d="M94.64,65.08c.73-.29,1.44-.64,2.15-1a14.88,14.88,0,0,0,2.39-1.21.15.15,0,0,0-.11-.27,12.64,12.64,0,0,0-2.14,1c-.8.4-1.61.78-2.37,1.24a.11.11,0,0,0,.08.2Z"/><path class="cls-13" d="M95.26,60.66a1.46,1.46,0,0,0-.73,2.13,1.6,1.6,0,0,0,2.49,0,1.79,1.79,0,0,0-.69-2.68,2,2,0,0,0-2.68,1.36c-.09.32.37.43.48.13A1.55,1.55,0,0,1,96,60.58a1.26,1.26,0,0,1,.66,1.9,1.08,1.08,0,1,1-1.28-1.62c.11,0,0-.24-.09-.2Z"/><path class="cls-13" d="M94,55.75l.22,0a.06.06,0,0,0,0-.11l-.22,0c-.1,0-.1.15,0,.15Z"/><path class="cls-13" d="M94.08,56.18c1.92-.45,3.2-1.8,4.44-3.27a25.66,25.66,0,0,1,2.06-2.35,9.05,9.05,0,0,1,4.12-2.07.15.15,0,0,0,0-.28c-1.83-.43-3.54.93-4.76,2.16-2,2-3.3,4.36-6,5.54-.15.07,0,.3.12.27Z"/><path class="cls-13" d="M95.54,69.13a52.64,52.64,0,0,0,11.69-4.75.1.1,0,0,0-.08-.18A51.88,51.88,0,0,0,95.48,69a.07.07,0,0,0,.06.13Z"/><path class="cls-13" d="M101,85.47a.07.07,0,0,0,0-.13.07.07,0,1,0,0,.13Z"/><path class="cls-13" d="M101.12,85.26a18.67,18.67,0,0,0-2.65.87c-.07,0,0,.13,0,.11a18.29,18.29,0,0,0,2.65-.8.09.09,0,0,0,0-.18Z"/><path class="cls-13" d="M100.68,85.27a20.22,20.22,0,0,0-2.24,1.23c-.07,0,0,.18.06.14a19.68,19.68,0,0,0,2.27-1.2.1.1,0,0,0-.09-.17Z"/><path class="cls-13" d="M100.68,85.5A10.78,10.78,0,0,0,98.84,87a.09.09,0,0,0,.11.14,10.21,10.21,0,0,0,1.84-1.45c.08-.06,0-.2-.11-.14Z"/><path class="cls-13" d="M100.09,85.44a12.34,12.34,0,0,0-2.46.85c-.07,0,0,.19.05.18a13,13,0,0,0,2.49-.76c.17,0,.1-.33-.08-.27Z"/><path class="cls-13" d="M98.65,78a15.46,15.46,0,0,0-.81,1.43.07.07,0,0,0,.12.06,14.17,14.17,0,0,0,.82-1.42c0-.08-.08-.15-.13-.07Z"/><path class="cls-13" d="M99.24,78.63A21.64,21.64,0,0,0,98,80.45c0,.08.07.18.13.1a21.2,21.2,0,0,0,1.23-1.85c0-.07-.07-.14-.12-.07Z"/><path class="cls-13" d="M99.06,79.87a5.45,5.45,0,0,0-.58.84c0,.05,0,.1.08.06a5.61,5.61,0,0,0,.66-.8c.07-.1-.09-.2-.16-.1Z"/><path class="cls-13" d="M98.25,79a12.4,12.4,0,0,0-1,1s0,.08.06.06a12.4,12.4,0,0,0,1-1,.08.08,0,0,0-.11-.11Z"/><path class="cls-13" d="M97.7,79.51s0,0,0,0,0,0,0,0Z"/><path class="cls-13" d="M97.66,79a8.26,8.26,0,0,0-1,.65s0,.08,0,.06a10.59,10.59,0,0,0,1-.58c.08,0,0-.19-.08-.13Z"/><path class="cls-13" d="M97.39,79.85a25.26,25.26,0,0,0-1.63,2.44c0,.06,0,.14.1.08a25.77,25.77,0,0,0,1.67-2.45c0-.08-.08-.15-.14-.07Z"/><path class="cls-13" d="M97.6,79.82c-1,1.22-2,2.41-2.86,3.68a.05.05,0,0,0,.08.06c1-1.17,1.93-2.44,2.87-3.67,0,0,0-.12-.09-.07Z"/><path class="cls-13" d="M97.4,80c-1,1.22-2,2.42-2.87,3.68,0,.07.06.15.11.09,1-1.17,1.92-2.44,2.87-3.65.06-.08-.05-.2-.11-.12Z"/><path class="cls-13" d="M97,80.87c-.88,1.15-1.84,2.27-2.63,3.48,0,.05,0,.11.09.06,1-1.08,1.79-2.31,2.67-3.46.06-.08-.07-.16-.13-.08Z"/><path class="cls-13" d="M97.06,81.52l-.81,1.23s0,0,0,0l.82-1.22s0-.06,0,0Z"/><path class="cls-13" d="M98,80.85c-1.09,1.42-2.24,2.81-3.25,4.28,0,.06.05.13.09.07,1.16-1.37,2.2-2.85,3.29-4.28,0-.07-.07-.14-.13-.07Z"/><path class="cls-13" d="M97.63,81.29c-.81,1.08-1.71,2.13-2.43,3.27,0,.06,0,.13.1.07.89-1,1.66-2.17,2.47-3.25.06-.09-.08-.17-.14-.09Z"/><path class="cls-13" d="M112.78,76.43a22.1,22.1,0,0,1,2.27,8.16.11.11,0,0,0,.21,0,12.26,12.26,0,0,0-2.24-8.3.14.14,0,0,0-.24.14Z"/><path class="cls-13" d="M115.15,89.29c-.45,4.46-.79,8.95-1.05,13.43,0,.13.2.13.21,0,.43-4.46.77-9,1-13.43,0-.11-.15-.1-.16,0Z"/><path class="cls-13" d="M108,90.5c-.44,3.82-.27,8.33,1.3,11.9.06.13.23,0,.21-.09-.73-4-1.48-7.68-1.3-11.81,0-.13-.19-.13-.21,0Z"/><path class="cls-13" d="M106.1,57.77c3,2.12,3.93,4.83,3.23,8.37,0,.22.27.39.39.16,1.64-3-.28-7.69-3.5-8.82-.18-.06-.25.19-.12.29Z"/><path class="cls-13" d="M109.44,45a3.26,3.26,0,0,1,1.13,1,9.29,9.29,0,0,1,.52,1.17c.07.13.23,0,.24-.06.1-1-1-2-1.81-2.28-.11,0-.17.13-.08.18Z"/><path class="cls-13" d="M112,48.06a.75.75,0,0,1,1.13.55c0,.27.48.2.47-.06a1.06,1.06,0,0,0-1.78-.72c-.11.11,0,.32.18.23Z"/><path class="cls-13" d="M105.41,50.89a3,3,0,0,0,1.52-.28.24.24,0,0,0-.13-.47,3.1,3.1,0,0,0-1.44.57.11.11,0,0,0,0,.18Z"/><path class="cls-13" d="M64.84,93.5c.41-.75,2.84,1.43,3.29,1.72a13.15,13.15,0,0,0,5.2,1.4A129.1,129.1,0,0,0,88.54,97.9c.13,0,.12-.19,0-.2-3.28-.2-6.56-.39-9.83-.72-2.07-.21-4.15-.42-6.19-.76a13.66,13.66,0,0,1-1.91-.35,6.67,6.67,0,0,1-4.16-2.66c-.93-.11-1.13-1.21-1.88.13-.1.18.17.34.27.16Z"/><path class="cls-13" d="M98.11,98.31a39.57,39.57,0,0,0,7.54.83c.21,0,.2-.3,0-.32a39.72,39.72,0,0,0-7.53-.61.05.05,0,0,0,0,.1Z"/><path class="cls-13" d="M117.2,100.05l7.94,1.16.06-.49-7.88-.17c-.32,0-.32.49,0,.5l7.88.17c.28,0,.35-.45.07-.49l-7.94-1.16c-.31,0-.45.44-.13.48Z"/><path class="cls-13" d="M106.26,100.23c-6.72-.68-13.44-1.33-20.15-2-6-.6-17.29.34-21.08-5.3-.14-.19-.45,0-.33.19,2.71,4.61,9.08,4.21,13.73,4.65,9.28.88,18.55,1.81,27.83,2.71.16,0,.16-.24,0-.25Z"/><path class="cls-13" d="M104.21,122.12c-8.3.16-16.59.45-24.88.67s-17.27.9-21.83-7.64a.26.26,0,0,0-.46.06c-2.19,11.23,18.17,8,23.74,7.9,15.82-.15,31.65-.18,47.46-.43a.18.18,0,0,0,0-.35c-10.65,0-21.3.13-32,.22l-16.46.12c-4.93,0-11.61,1.22-16.34-.26-1.84,0-3.06-1-3.65-3-2.21-3-2.79-3.74-1.76-2.22.51.65.31.48.85,1.12A13.53,13.53,0,0,0,62,121a16.57,16.57,0,0,0,9.26,2.32c11,.08,22-.57,33-1,.12,0,.12-.2,0-.19Z"/><path class="cls-12" d="M124.78,120.93c3.34-7.81,10.49-10.2,18.23-7.33.28.11.43-.31.2-.45-7-4.41-16.55,0-18.61,7.7,0,.1.14.18.18.08Z"/><path class="cls-12" d="M141.08,112.56a14,14,0,0,1,11.65-8.49c2.48-.22,4.66.22,6.71-1.46,2.4-2,3.36-5.11,5.88-7.1,5.06-4,11.45-3.7,16.7-.23.36.24.7-.34.34-.57-6.85-4.52-15.54-3.35-20.46,3.4a11.59,11.59,0,0,1-9.17,5.22,14.22,14.22,0,0,0-4.3,1,13.72,13.72,0,0,0-7.59,8.15c-.06.14.18.24.24.1Z"/><path class="cls-12" d="M127.65,98.67c2.08-2.13,4.21-4.21,6.27-6.36,2.54-2.65,5.9-5.74,8.76-1.41.15.23.56.1.47-.19a4.23,4.23,0,0,0-5.87-2.4,12.6,12.6,0,0,0-3.45,3.06c-2.19,2.32-4.28,4.71-6.43,7a.18.18,0,0,0,.25.25Z"/><path class="cls-12" d="M142.76,89.81c3.48-6.7,10.81-8.66,17.28-11.37,6.26-2.62,14.85-8.06,20-.51a.25.25,0,0,0,.43-.25c-3-6.58-11.13-4-16.13-1.8-7.72,3.43-17.82,5.48-21.81,13.78-.08.17.17.32.25.15Z"/><path class="cls-13" d="M107,87.83c.16,2,.25,4.1.56,6.13,0,0,.06,0,.06,0,0-2-.26-4.09-.43-6.12,0-.12-.2-.12-.19,0Z"/><path class="cls-13" d="M107.5,88.27a121.61,121.61,0,0,0-.67,13.63.09.09,0,1,0,.18,0,117.08,117.08,0,0,0,.59-13.63c0-.06-.09-.06-.1,0Z"/><path class="cls-13" d="M107.55,89.07a16.84,16.84,0,0,0,.14-2.24.08.08,0,0,0-.15,0,21.33,21.33,0,0,0-.21,2.26.11.11,0,0,0,.22,0Z"/><path class="cls-13" d="M107.5,89.29a18.79,18.79,0,0,0,.38-3.08c0-.07-.1-.08-.12,0a18.49,18.49,0,0,0-.46,3.07.1.1,0,0,0,.2,0Z"/><path class="cls-13" d="M107.71,89.27a18.21,18.21,0,0,0,.18-2.44.07.07,0,0,0-.13,0,20.22,20.22,0,0,0-.19,2.46.07.07,0,0,0,.14,0Z"/><path class="cls-13" d="M117.06,84.58c-.36,2.11-.78,4.22-1,6.34a.05.05,0,0,0,.1,0c.47-2.07.74-4.2,1.07-6.3,0-.11-.16-.16-.18,0Z"/><path class="cls-13" d="M117,88.65a22.33,22.33,0,0,0-.66,2.43.11.11,0,0,0,.22.06,22.52,22.52,0,0,0,.57-2.46.07.07,0,0,0-.13,0Z"/><path class="cls-13" d="M115.87,92.28l-2.59,8.52c-.1.31.38.44.48.13l2.59-8.51a.25.25,0,0,0-.48-.14Z"/><path class="cls-13" d="M114.89,96.6c-.15,3.37-.51,6.81-.39,10.18a.09.09,0,0,0,.17,0c.4-3.35.32-6.81.44-10.18a.11.11,0,0,0-.22,0Z"/><path class="cls-13" d="M114.33,102.1c.16,2.11.19,4.27.52,6.35,0,.13.22.1.22,0,0-2.1-.31-4.23-.49-6.32,0-.16-.26-.16-.25,0Z"/><path class="cls-13" d="M115.25,105.77c0-2.77.22-5.57.09-8.35a.09.09,0,0,0-.18,0c-.22,2.77-.14,5.58-.18,8.35a.14.14,0,0,0,.27,0Z"/><path class="cls-13" d="M114.16,73.42c2.57,16.37.36,32.5-.63,48.92,0,.35.53.35.56,0,.7-8.37,1.3-16.75,1.75-25.13.43-7.91.66-16.15-1.4-23.87,0-.18-.31-.1-.28.08Z"/><path class="cls-13" d="M107.45,87.39c-2.07,10.49-.33,21.57,3.46,31.46.17.46.92.26.74-.2-3.83-10.23-4.57-20.41-3.93-31.22,0-.15-.24-.19-.27,0Z"/><path class="cls-13" d="M111.18,118.56c-3.07-1.86-6.77.63-7.54,3.77-.13.53.71.76.83.22.76-3.27,3.55-4.19,6.56-3.64.21,0,.35-.23.15-.35Z"/><path class="cls-13" d="M98.89,77.54A10.73,10.73,0,0,0,93.5,84.9c-.9,4.28,1.25,8.44,1.08,12.72,0,.56.84.56.87,0,.15-3.14-.93-6-1.17-9.09-.37-4.54,1.55-7.74,4.84-10.69.17-.15,0-.4-.23-.3Z"/><path class="cls-13" d="M97.35,97.05a30.84,30.84,0,0,1,4.8-11.42c.3-.42-.4-.83-.7-.41A24.06,24.06,0,0,0,97,97a.19.19,0,0,0,.38,0Z"/><path class="cls-13" d="M94.66,96.05C92,94,88.52,95.73,87.85,98.82a.46.46,0,0,0,.43.57l5,.39a5.75,5.75,0,0,0,3.31-.26c1.94-1.1,1.71-3.7,1.15-5.51a.36.36,0,0,0-.69.19c.22,1.6.89,4-1.36,4.73a6.73,6.73,0,0,1-2.41,0l-5-.41.43.57c.66-2.8,3.25-3.54,5.71-2.6a.25.25,0,0,0,.24-.41Z"/><path class="cls-13" d="M100.52,80.49C95.43,70.26,93.9,60.76,97,49.65a.39.39,0,0,0-.75-.21c-3.75,9.92-2.56,22.69,3.92,31.25a.2.2,0,0,0,.35-.2Z"/><path class="cls-13" d="M104.27,46.19a17.4,17.4,0,0,1,1.62,8.87.17.17,0,0,0,.33,0A12.47,12.47,0,0,0,104.56,46a.17.17,0,0,0-.29.17Z"/><path class="cls-13" d="M106,55.28c4.44,3.51,6.07,8.69,2.93,13.79a.25.25,0,0,0,.43.26c3.06-4.73,2.07-11.54-3.16-14.3-.15-.08-.35.13-.2.25Z"/><path class="cls-13" d="M110.7,67.77c.22.63.48,1.25.73,1.86a10.34,10.34,0,0,0,.72,1.63.12.12,0,0,0,.22-.1,11.35,11.35,0,0,0-.72-1.86c-.23-.55-.45-1.1-.71-1.63-.07-.13-.29,0-.24.1Z"/><path class="cls-13" d="M111.64,71c.44.7.91,1.39,1.37,2.07a8.27,8.27,0,0,0,1.34,1.8c.08.06.25,0,.2-.12a7.57,7.57,0,0,0-1.22-1.86c-.48-.68-1-1.35-1.48-2-.09-.12-.3,0-.21.12Z"/><path class="cls-13" d="M86.65,9.07c-1.75.17-4.11,1.24-4.88,2.93a.12.12,0,0,0,.19.15,16.08,16.08,0,0,1,2.11-1.84,8.63,8.63,0,0,1,2.61-1c.12,0,.1-.24,0-.23Z"/><path class="cls-13" d="M83.25,12.59a3.06,3.06,0,0,0-1.14-.95.16.16,0,0,0-.18.23,3.23,3.23,0,0,0,1.13,1c.16.1.3-.12.19-.25Z"/><path class="cls-13" d="M82,11.71a2.26,2.26,0,0,0-.82,1.48,1.73,1.73,0,0,0,.34,1.45c.09.07.26,0,.25-.1a7.17,7.17,0,0,1-.2-1.23,2.38,2.38,0,0,1,.61-1.41.13.13,0,0,0-.18-.19Z"/><path class="cls-13" d="M81.39,15a1.64,1.64,0,0,0,1.48.35c.14-.06.17-.27,0-.31a9.17,9.17,0,0,1-1.34-.29.14.14,0,0,0-.14.25Z"/><path class="cls-13" d="M83,13.08A52,52,0,0,0,89.29,12c.29-.06.17-.49-.12-.44a52.65,52.65,0,0,0-6.23,1.32c-.13,0-.11.26,0,.25Z"/><path class="cls-13" d="M83.08,12.85c-.22,1.36-.22,4.5.93,5.5s4.47.09,5.83-.21c1.61-.35,2.47-1.19,2.23-2.89s-.91-3.53-2.82-3.67c-.29,0-.29.43,0,.45,2.39.18,3.27,4.68.94,5.56a16.29,16.29,0,0,1-3.67.62,2,2,0,0,1-1.85-.36c-.86-.53-.85-.64-1-1.52-.22-1.15-.25-2.34-.51-3.48a0,0,0,0,0-.07,0Z"/><path class="cls-13" d="M91.17,13.86A3.84,3.84,0,0,0,94.92,13a.23.23,0,0,0,0-.28.94.94,0,0,0-1.21-.5.17.17,0,0,0,0,.3c.32.08.54,0,.76.44l0-.29a5.12,5.12,0,0,1-3.34.89c-.13,0-.21.2-.07.26Z"/><path class="cls-13" d="M91.66,15.43a3,3,0,0,0,3.56-.87,1.54,1.54,0,0,0-.82-2.4c-.29-.06-.41.38-.12.45,1.24.31.76,1.77-.06,2.25s-1.73.15-2.55.49c0,0,0,.06,0,.08Z"/><path class="cls-13" d="M81.29,15.13c-.29,3.44-7.08,5.38-4.71,9.28.1.16.36,0,.26-.15-2.23-3.65,4.47-5.66,4.65-9.13,0-.13-.19-.12-.2,0Z"/><path class="cls-13" d="M76.72,24.5a3.32,3.32,0,0,0,3.21-2.62.11.11,0,0,0-.21-.06,5.54,5.54,0,0,1-1.11,1.63,4.45,4.45,0,0,1-1.91.91.07.07,0,0,0,0,.14Z"/><path class="cls-13" d="M77.31,24.56c1.54.53,3.82-.63,3.85-2.4,0-.07-.11-.11-.14,0A3.89,3.89,0,0,1,79.61,24a3.35,3.35,0,0,1-2.29.47c-.06,0-.07.09,0,.11Z"/><path class="cls-13" d="M80.69,23.53a35,35,0,0,1,6.43-1.26,10.1,10.1,0,0,0,3.82-.69c1.49-.76,2.42-2.47,1.27-3.91-.1-.12-.26,0-.2.15,1.59,3.46-2.44,3.86-4.2,4-.52.05-1,.07-1.56.13a21.6,21.6,0,0,0-5.6,1.4.07.07,0,0,0,0,.14Z"/><path class="cls-13" d="M77.15,22.24c.25-.52.39-.94,1-1.07l-.2-.35a5.93,5.93,0,0,0-.74.85.15.15,0,0,0,.21.2,5.79,5.79,0,0,0,.82-.75c.12-.12,0-.38-.15-.36-.63.08-1.46.73-1.19,1.45,0,.09.18.14.23,0Z"/><path class="cls-13" d="M85.92,9.54A6.49,6.49,0,0,0,88,6.65a4.07,4.07,0,0,0,.44-1.57c0-.19-.22-.31-.27-.51l.14-1c2.32-.73,2.54-.14.64,1.76a.13.13,0,0,0-.16.13c0,1.34-.06,2.68-.07,4a.14.14,0,0,0,.27,0c0-.68,0-1.35,0-2,0-.43-.19-1.52.16-1.84-.1.09.74-.17.67-.14a1.52,1.52,0,0,0,.55-.42,1.41,1.41,0,1,0-2.51-.76,2.85,2.85,0,0,0,.16.59,3.29,3.29,0,0,1-.43,2A13,13,0,0,1,85.88,9.5s0,.06,0,0Z"/><path class="cls-13" d="M85.74,9.21c.22-1.2.32-2.42.44-3.63A.16.16,0,0,0,86,5.42c.39,0-1.29-3.73,1.21-1.88a2.54,2.54,0,0,1,.76,1c.09.2.38,0,.29-.17C87.64,3,85.49,2,84.68,3.79a1.45,1.45,0,0,0,.65,1.83c.44.35.45.14.44.86,0,.9-.18,1.8-.2,2.7,0,.1.16.12.17,0Z"/><path class="cls-13" d="M88,5.2A1.26,1.26,0,0,1,87,6c-.16,0-.16.27,0,.25a1.29,1.29,0,0,0,1.14-1s-.07-.1-.09,0Z"/><path class="cls-13" d="M87,6.11c-.22.9-.34,1.83-.5,2.74,0,.15.2.21.22.06.15-.92.34-1.84.43-2.78,0-.08-.13-.09-.15,0Z"/><path class="cls-13" d="M88.49,9.69a6.55,6.55,0,0,1,5.68,3.09.17.17,0,0,0,.29-.17,5.83,5.83,0,0,0-6-3.18c-.15,0-.1.25,0,.26Z"/><path class="cls-13" d="M89.48,21.88a34,34,0,0,0,2.26,4.77,58.68,58.68,0,0,1,2.71,6.87,61.12,61.12,0,0,1,2.63,13.25c0,.3.5.3.48,0a59.18,59.18,0,0,0-2.64-13.38c-1.19-3.68-2.68-8.72-5.4-11.54,0,0,0,0,0,0Z"/><path class="cls-13" d="M95.24,13.92a81.71,81.71,0,0,1,8.05,31.62c0,.28.45.29.44,0a74.85,74.85,0,0,0-8.08-31.85c-.14-.28-.54,0-.41.23Z"/><path class="cls-13" d="M84,13.61a5.44,5.44,0,0,0,.55,3.89c.07.11.21,0,.17-.1a7,7,0,0,1-.59-3.77c0-.08-.11-.09-.13,0Z"/><path class="cls-13" d="M84.65,17.48a9.87,9.87,0,0,0,5.44-1c.12-.06,0-.26-.09-.22a24.66,24.66,0,0,1-2.64.74c-.9.17-1.82.17-2.71.36a0,0,0,0,0,0,.08Z"/><path class="cls-13" d="M90.21,16.37a6.74,6.74,0,0,0-.83-3.89c-.08-.14-.33-.05-.27.11a17.71,17.71,0,0,1,1,3.79,0,0,0,0,0,.07,0Z"/><path class="cls-13" d="M89.56,12.66a8.61,8.61,0,0,0-6,1.42c-.09.06,0,.24.08.19a27.46,27.46,0,0,1,2.91-1.08c1-.25,2-.27,3.06-.46a0,0,0,0,0,0-.07Z"/><path class="cls-13" d="M86,13.3c-.42,1.33-.65,2.74-.94,4.11,0,.13.17.19.2.06.32-1.36.71-2.74.9-4.13,0-.1-.13-.15-.16,0Z"/><path class="cls-13" d="M87.2,13.45c-.5,1.27-.81,2.63-1.19,3.94a.11.11,0,0,0,.22.06c.37-1.31.81-2.63,1.06-4,0-.07-.07-.09-.09,0Z"/><path class="cls-13" d="M81.89,12.85a1.68,1.68,0,0,0,.44,1.73s.11,0,.08-.06A2.32,2.32,0,0,1,82,12.87s-.07-.08-.08,0Z"/><path class="cls-13" d="M97.43,18.29c-2,2.05-.13,5.49,2.51,5.57.17,0,.22-.28,0-.3a3.43,3.43,0,0,1-2.77-1.84,3.61,3.61,0,0,1,.34-3.34c0-.07-.06-.15-.12-.09Z"/><path class="cls-13" d="M91.7,26.21a2.77,2.77,0,0,1,3.65,2.62,5.77,5.77,0,0,1-1.23,3.62c-.11.17.16.33.28.16,1-1.49,1.76-3.45.9-5.21A2.74,2.74,0,0,0,91.62,26a.1.1,0,0,0,.08.18Z"/><path class="cls-13" d="M101.22,31c-.53,1.13-2.39,2.42-2,3.87a1.73,1.73,0,0,0,.72,1,15.1,15.1,0,0,0,3,1.85c.12,0,.27-.1.15-.2-1.15-1-4-1.86-3.27-3.73.41-1,1.46-1.59,1.61-2.75,0-.07-.11-.1-.14,0Z"/><path class="cls-13" d="M96.69,39a1.09,1.09,0,0,0,.81.3,8.67,8.67,0,0,1,.87-.06c.92.18.87.88,1,1.55s.6,2,.33,2.6S98,44.67,97.38,45.05c-.23.15,0,.53.22.37.86-.55,1.72-1.1,2.57-1.67a.2.2,0,0,0,.09-.23c-.17-.86-.33-1.73-.48-2.6a3.3,3.3,0,0,0-.51-1.72c-.64-.65-1.73-.08-2.51-.3a.07.07,0,0,0-.07.12Z"/><path class="cls-13" d="M93.29,21.48c-.53.47-1.46,1.7-1,2.44.18.31.89.62,1.19.83s.78.56,1.19.81a1.36,1.36,0,0,0,1.37.27,2.11,2.11,0,0,0,.75-2.66,4.35,4.35,0,0,0-3-2.35c-.28-.08-.38.33-.12.43a5.62,5.62,0,0,1,2.22,1.22c.68.71,1.26,3-.31,2.94-.83-.05-1.64-.84-2.32-1.3-.46-.3-.67-.52-.54-1.11a3.12,3.12,0,0,1,.81-1.35.12.12,0,0,0-.16-.17Z"/><path class="cls-13" d="M89.24,9.81c0,.66.08,1.31.15,2a.17.17,0,0,0,.26.15,7.59,7.59,0,0,1,1.46-.56c.46-.11.94-.1,1.38-.25.11,0,.13-.22,0-.25a4.67,4.67,0,0,0-3,.76l.26.15c-.08-.66-.15-1.33-.28-2a.11.11,0,0,0-.21,0Z"/><path class="cls-13" d="M83.2,11.08a9.27,9.27,0,0,0,.6.8.15.15,0,0,0,.23,0c.52-.69,1.75-.12,2.21-.95.35-.64-.32-1.16-.84-1.36-.14-.06-.2.15-.1.23.35.26,1,.68.5,1.16a1.81,1.81,0,0,1-1,.26,1.43,1.43,0,0,0-1,.51l.23,0c-.21-.24-.42-.49-.64-.72s-.24,0-.17.13Z"/><path class="cls-13" d="M85.77,22c-.61-.5,0-1.25.64-1.15s1,.69,1.41,1.19c.14.19.47,0,.33-.19-.5-.78-1.42-1.78-2.45-1.28-.64.32-.81,1.36,0,1.62.11,0,.21-.12.12-.19Z"/><path class="cls-13" d="M90.87,21.05a1,1,0,0,1-.46-1.19.84.84,0,0,1,1.19-.28c.22.13.41-.21.2-.34a1.23,1.23,0,0,0-1.75.48,1.14,1.14,0,0,0,.73,1.54.12.12,0,0,0,.09-.21Z"/><path class="cls-13" d="M81.85,22.84a1,1,0,0,0,.11-.31.2.2,0,1,0-.39,0,.68.68,0,0,0,.11.31.1.1,0,0,0,.17,0Z"/><path class="cls-13" d="M79.44,18.83a.87.87,0,0,0,1.39.14c.36-.44.19-1.31-.44-1.36-.11,0-.15.14-.09.21.21.22.47.49.36.83-.16.5-.84.41-1.11.09,0-.06-.15,0-.11.09Z"/><path class="cls-13" d="M95.09,34.84a1,1,0,0,1,1.15.53.88.88,0,0,1-.64,1.05.17.17,0,0,0,.09.33,1.19,1.19,0,0,0,.85-1.53,1.13,1.13,0,0,0-1.54-.6.12.12,0,0,0,.09.22Z"/><path class="cls-13" d="M100.08,26c-.18.11-.35.1-.53.23a3.21,3.21,0,0,0-.51.46,4.56,4.56,0,0,0-.78,1.21.2.2,0,0,0,.17.29l1.47.18a4.58,4.58,0,0,0,1.16.12c.12,0,.21-.18.07-.25a4,4,0,0,0-1.33-.28c-.45-.07-.91-.11-1.37-.15l.18.24a4.15,4.15,0,0,1,.78-1.23l.4-.41.32-.36s0-.07,0-.05Z"/><path class="cls-13" d="M101.21,39.58c-1.21,1.15.43,3.67,2,3.12a.17.17,0,0,0,0-.33,2.4,2.4,0,0,1-1.6-.7c-.51-.64-.32-1.27-.21-2,0-.09-.09-.17-.16-.1Z"/><path class="cls-13" d="M101.11,39.62a7.88,7.88,0,0,0,1,.62,2.07,2.07,0,0,0,.94.37c.09,0,.18-.12.11-.2a3.88,3.88,0,0,0-1.92-.95c-.08,0-.16.1-.09.16Z"/><path class="cls-13" d="M97.31,30.06a1.32,1.32,0,0,0,.07,2.18c1,.54,2.07-.55,1.85-1.53a.22.22,0,0,0-.21-.17,3.86,3.86,0,0,1-1.22-.16c-.37-.11-.68-.31-1-.42a.2.2,0,0,0-.19.33A3.59,3.59,0,0,0,99,31l-.22-.16c.16.7-.74,1.46-1.36,1a1,1,0,0,1,0-1.53c.1-.09,0-.27-.15-.19Z"/></svg>