<?xml version="1.0" encoding="utf-8"?>
<!-- Generator: Adobe Illustrator 25.4.1, SVG Export Plug-In . SVG Version: 6.00 Build 0)  -->
<svg version="1.1" id="illustration" xmlns="http://www.w3.org/2000/svg" xmlns:xlink="http://www.w3.org/1999/xlink" x="0px"
	 y="0px" viewBox="0 0 198.4 131.8" style="enable-background:new 0 0 198.4 131.8;" xml:space="preserve">
<style type="text/css">
	.st0{fill:#B4884E;}
	.st1{fill:#F5F6CF;}
	.st2{fill:#87752D;}
	.st3{fill:none;}
	.st4{fill:#BF9D2F;}
	.st5{fill:#FFF3DF;}
	.st6{fill:#FEE7D9;}
	.st7{fill:#FCB01A;}
	.st8{fill:#AA823A;}
	.st9{fill:#FFFFFF;}
	.st10{fill:#1B1E28;}
	.st11{fill:#695B4D;}
	.st12{fill:#C9A477;}
	.st13{fill:#C777AD;}
	.st14{fill:#3D393C;}
	.st15{fill:#9B9499;}
	.st16{fill:#213519;}
	.st17{fill:#545F4E;}
	.st18{fill:#363A34;}
	.st19{fill:#010101;}
	.st20{fill:#231F20;}
</style>
<path class="st0" d="M82.9,13.2c1.8,0.1,3.7,0,5.6-0.1c1.6,0,3.2-0.1,4.8-0.4c0.2-0.1,0.2-0.4,0-0.5c-1.7-0.2-3.5-0.2-5.2,0
	c-1.7,0.1-3.5,0.1-5.2,0.4C82.5,12.6,82.6,13.2,82.9,13.2L82.9,13.2z"/>
<path class="st0" d="M92.8,12.6c-0.3,0.6-0.6,1.3-0.7,2c-0.3,0.7-0.4,1.4-0.4,2.1c0,0.1,0.1,0.2,0.3,0.2c0.1,0,0.2,0,0.2-0.1
	c0.3-0.6,0.6-1.3,0.8-2c0.2-0.7,0.4-1.4,0.5-2.1c0-0.2-0.1-0.3-0.3-0.3C92.9,12.5,92.8,12.5,92.8,12.6L92.8,12.6z"/>
<path class="st0" d="M91.8,15.9c-0.4,0.1-0.7,0.2-1.1,0.3c-0.3,0.1-0.6,0.2-0.8,0.4c-0.1,0.1-0.1,0.3,0,0.4c0,0,0.1,0.1,0.2,0.1
	c0.3,0,0.7-0.1,0.9-0.3c0.3-0.1,0.6-0.3,0.9-0.5C92.2,16.1,92,15.8,91.8,15.9z"/>
<path class="st0" d="M90.9,17.2c0.2-0.4,0.3-0.8,0.2-1.2c0-0.5,0-1,0-1.5c0-0.7-1.2-0.7-1.1,0c0,0.5,0.1,1.1,0.2,1.6
	c0,0.4,0.1,0.8,0.4,1.2C90.6,17.4,90.8,17.4,90.9,17.2C90.9,17.3,90.9,17.2,90.9,17.2L90.9,17.2z"/>
<path class="st0" d="M91.3,13.9c-0.4,0.7-0.6,1.5-0.5,2.3c0.1,0.2,0.5,0.7,0.7,0.6c0.1,0,0.1-0.4,0.1-0.5c0.3-0.8,0.3-1.6,0-2.4
	c0-0.1-0.1-0.1-0.2-0.1C91.3,13.9,91.3,13.9,91.3,13.9L91.3,13.9z"/>
<path class="st0" d="M91.9,13.4c-1.4-0.2-2.9-0.7-4.4-0.5c-1.7,0-3.3,0.1-4.9-0.1c-0.8-0.1-0.7,4,0.2,4.1c2.9,0.1,6.5-1.9,9.2-3.2
	C92.1,13.7,92.1,13.5,91.9,13.4L91.9,13.4z"/>
<path class="st0" d="M82.2,15c0.2,0.5,0.4,0.9,0.6,1.3c0.2,0.4,0.3,0.8,0.7,0.9c0.1,0,0.3,0,0.3-0.2c0.1-0.4-0.2-0.8-0.4-1.1
	c-0.2-0.4-0.5-0.9-0.8-1.2C82.5,14.5,82.1,14.7,82.2,15z"/>
<path class="st0" d="M82.2,14.8c-0.5,0.8,0.4,1.9,1.3,1.9c0.1,0,0.3-0.1,0.3-0.3c0-0.1,0-0.1-0.1-0.2c-0.3-0.2-0.5-0.5-0.7-0.7
	c-0.2-0.3-0.2-0.5-0.4-0.8C82.4,14.7,82.3,14.7,82.2,14.8C82.2,14.8,82.2,14.8,82.2,14.8L82.2,14.8z"/>
<path class="st0" d="M81.4,14.6c-0.2,0.5,0.4,1.1,0.9,1.4c0.2,0.1,0.4,0.1,0.7,0.1c0.1,0,0.2-0.2,0.2-0.3c0-0.1-0.1-0.1-0.1-0.2
	c-0.4-0.2-0.7-0.5-0.9-0.8c-0.1-0.1-0.2-0.1-0.2-0.1c0,0,0,0-0.1,0.1L81.4,14.6z"/>
<path class="st0" d="M82.5,15.9c0.1,0.5,0.3,1,0.5,1.5c0.2,0.4,0.5,1.3,0.9,1.5c0.1,0.1,0.8,0.2,0.8,0.1c0,0-0.7-0.5-0.6-0.6
	c0.1-0.5-0.2-0.9-0.4-1.3c-0.2-0.5-0.5-1-0.8-1.4c-0.1-0.1-0.2-0.1-0.3,0C82.6,15.8,82.6,15.8,82.5,15.9L82.5,15.9z"/>
<path class="st0" d="M84,18.4c0.7,0.3,1.5,0.4,2.3,0.3c0.9,0.1,1.8,0.1,2.7,0c0.3-0.1,0.3-0.6,0-0.7c-0.9-0.2-1.8-0.2-2.7-0.1
	c-0.8-0.1-1.5,0-2.3,0.2C83.9,18.1,83.9,18.2,84,18.4C84,18.3,84,18.3,84,18.4L84,18.4z"/>
<path class="st0" d="M89.1,17.9c1.1-0.8,1.4-2.3,0.7-3.4c0,0,0,0,0,0c-0.1-0.2-0.4-0.3-0.6-0.2c-0.7,0.1-0.2,0.9-0.1,1.3
	c0.3,0.7,0.2,1.5-0.2,2.2C88.8,17.8,89,18,89.1,17.9z"/>
<path class="st0" d="M88.6,14.8c-0.3,0.4-0.8,0.9-0.9,1.4c-0.2,0.5-0.6,1-0.8,1.6c-0.1,0.5,1.1,1,1.4,0.4c0.2-0.5,0.4-1.1,0.5-1.6
	c0.2-0.5,0.2-1.1,0.3-1.7c0-0.1-0.1-0.2-0.2-0.2C88.7,14.7,88.6,14.7,88.6,14.8L88.6,14.8z"/>
<path class="st0" d="M88.4,15c-0.7,0.2-1.3,0.6-1.7,1.1c-0.5,0.5-0.7,1.3-0.7,2c0.1,0.3,0.4,0.5,0.7,0.4c0.1,0,0.2-0.1,0.3-0.2
	c0.3-0.5,0.3-1.1,0.6-1.6c0.3-0.5,0.6-1,1-1.4C88.7,15.1,88.6,14.9,88.4,15L88.4,15z"/>
<path class="st0" d="M87,15.2c-0.7,0.7-1.3,1.5-1.9,2.3c-0.4,0.7,0.6,1.2,1,0.6c0.5-0.8,1-1.6,1.3-2.5C87.6,15.3,87.2,14.9,87,15.2
	L87,15.2z"/>
<path class="st0" d="M86,14.9c-0.6,0.7-1.1,1.5-1.5,2.4c-0.2,0.3-0.1,0.7,0.2,0.9c0,0,0.1,0,0.2,0.1c0.3,0.1,0.6,0,0.7-0.3
	c0.4-0.9,0.7-1.8,0.9-2.7C86.5,14.9,86.2,14.6,86,14.9z"/>
<path class="st0" d="M85.2,14.5c-1,0.9-1.4,2.2-1.3,3.4c0.1,0.3,0.4,0.5,0.7,0.4c0.2-0.1,0.3-0.2,0.4-0.4c0.1-0.5,0.1-1.1,0.2-1.6
	c0.1-0.5,0.3-1,0.5-1.5C85.8,14.5,85.4,14.3,85.2,14.5z"/>
<path class="st0" d="M83.7,14.5c-0.4,0.5-0.6,1.1-0.6,1.7c-0.1,0.6,0.1,1.2,0.6,1.6c0.2,0.1,0.5,0.1,0.6-0.2c0,0,0-0.1,0-0.1
	c0-0.4-0.1-0.9-0.2-1.3c0-0.5,0-1,0.2-1.4C84.5,14.4,83.9,14.3,83.7,14.5z"/>
<path class="st0" d="M82.9,14.5c-0.2,0.6-0.2,1.2,0,1.8c0.2,0.5,0.7,1.2,1.4,1.1c0.2,0,0.4-0.2,0.4-0.5c0-0.1,0-0.1-0.1-0.2
	c-0.2-0.4-0.6-0.5-0.8-0.9c-0.2-0.3-0.3-0.8-0.3-1.2c0-0.2-0.2-0.4-0.4-0.4C83.1,14.3,83,14.4,82.9,14.5L82.9,14.5z"/>
<path class="st0" d="M84,15.6c1.9,0.7,4.1,0.7,6,0c0.5-0.2,0.5-1.1-0.2-1.1C87.9,14.6,86,15,84.1,15c-0.2,0-0.3,0.2-0.3,0.3
	C83.9,15.5,83.9,15.6,84,15.6L84,15.6z"/>
<path class="st0" d="M84.3,15.4c0.7,0.2,1.5,0.3,2.3,0.3c0.7,0.1,1.4,0,2-0.4c0.2-0.2,0.2-0.5,0-0.7c-0.6-0.4-1.4-0.5-2.1-0.3
	c-0.8,0-1.5,0.2-2.2,0.5C84,14.9,84.1,15.2,84.3,15.4L84.3,15.4z"/>
<path class="st0" d="M84,15.5c1.1,0.2,2.1,0.3,3.2,0.3c0.9,0.1,1.9,0,2.8-0.3c0.2-0.1,0.3-0.4,0.2-0.6c0-0.1-0.1-0.1-0.2-0.2
	c-0.9-0.3-1.9-0.5-2.9-0.3c-1,0-2.1,0.1-3.1,0.3c-0.2,0.1-0.3,0.3-0.2,0.5C83.8,15.4,83.9,15.5,84,15.5z"/>
<path class="st0" d="M85.9,16.8l1.9-0.5c0.5-0.1,1.1-0.3,1.5-0.6c0.1-0.1,0.1-0.4,0-0.5c0,0-0.1-0.1-0.1-0.1c-0.6,0-1.1,0.1-1.6,0.3
	l-1.8,0.6c-0.2,0.1-0.3,0.3-0.3,0.5C85.5,16.8,85.7,16.9,85.9,16.8z"/>
<path class="st0" d="M91.5,13c-0.6,0.4-1,1.2-0.9,1.9c0,0.3,0.2,0.5,0.5,0.6c0.2,0.1,0.3,0,0.5-0.1c0.2-0.1,0.3-0.3,0.3-0.6
	c-0.1-0.6-0.1-1.1,0-1.7c0-0.1-0.1-0.2-0.2-0.3C91.7,12.9,91.6,13,91.5,13L91.5,13z"/>
<path class="st0" d="M91.9,13.5c-0.2,0.3-0.3,0.7-0.5,1.1c-0.2,0.3-0.3,0.7-0.2,1c0.1,0.2,0.2,0.3,0.4,0.2c0,0,0.1,0,0.1-0.1
	c0.3-0.2,0.3-0.6,0.4-1c0.1-0.4,0.1-0.8,0.2-1.1C92.3,13.3,92,13.2,91.9,13.5L91.9,13.5z"/>
<path class="st0" d="M92,13.1c-0.2,0.5-0.4,1-0.4,1.6c0,0.2,0.2,0.3,0.3,0.3c0.1,0,0.2-0.1,0.2-0.1c0.2-0.5,0.3-1.1,0.4-1.6
	c0-0.1,0-0.3-0.2-0.3C92.2,12.9,92,13,92,13.1z"/>
<path class="st1" d="M86.6,21.8c0.9-0.3,1.7-0.6,2.5-1.1c0.8-0.3,1.5-0.8,2.1-1.4c0.1-0.1,0-0.3-0.1-0.3c0,0-0.1,0-0.1,0
	c-0.8,0.2-1.6,0.6-2.2,1.1c-0.8,0.4-1.6,0.9-2.2,1.6c-0.1,0.1-0.1,0.2,0,0.2C86.5,21.8,86.6,21.8,86.6,21.8L86.6,21.8z"/>
<path class="st1" d="M87,21.8c1-0.2,1.9-0.6,2.7-1.2c1-0.4,2-1.1,2.8-1.8c0.1-0.1,0.1-0.2,0-0.3c-0.1-0.1-0.1-0.1-0.2-0.1
	c-1.1,0.3-2.1,0.8-3,1.5c-0.9,0.4-1.7,1-2.4,1.7C86.9,21.6,86.9,21.7,87,21.8C86.9,21.8,87,21.8,87,21.8L87,21.8z"/>
<path class="st1" d="M88.5,20.4c0.6-0.3,1.2-0.8,1.8-1.2s1.4-0.5,2-0.9c0.2-0.1,0.2-0.3,0.1-0.5c-0.1-0.1-0.2-0.2-0.3-0.2
	c-0.8,0.1-1.6,0.5-2.3,1c-0.7,0.4-1.2,0.9-1.5,1.6C88.4,20.4,88.5,20.4,88.5,20.4L88.5,20.4z"/>
<path class="st1" d="M90.9,18.6c0.7-0.1,1.9-0.1,2.3-0.7c0.1-0.1,0-0.3-0.1-0.4c0,0,0,0,0,0c-0.7-0.3-1.7,0.2-2.4,0.6
	c-0.1,0.1-0.2,0.3-0.1,0.4C90.7,18.5,90.8,18.6,90.9,18.6z"/>
<path class="st1" d="M91.8,18.7c0.3,0.1,0.6,0.1,0.9,0.1c0.1,0,0.2-0.1,0.1-0.2c0,0,0-0.1,0-0.1c-0.2-0.2-0.5-0.3-0.8-0.4
	c-0.2,0-0.3,0.1-0.3,0.3C91.6,18.5,91.7,18.6,91.8,18.7z"/>
<path class="st1" d="M86.2,22.4c0.6,0,1.2-0.2,1.8-0.4c0.5-0.2,1.3-0.4,1.4-1c0.1-0.2,0-0.5-0.3-0.6c-0.6-0.4-1.2,0.1-1.7,0.4
	c-0.6,0.3-1.1,0.7-1.5,1.1c-0.1,0.1-0.1,0.3,0,0.5C86.1,22.4,86.2,22.4,86.2,22.4L86.2,22.4z"/>
<path class="st1" d="M87.5,20.9c0.5-0.2,0.9-0.5,1.3-0.8c0.4-0.3,0.8-0.6,0.7-1.1c0-0.1-0.1-0.2-0.2-0.2c-0.5-0.1-0.8,0.2-1.1,0.5
	c-0.4,0.3-0.7,0.7-1,1.2C87.1,20.7,87.3,21,87.5,20.9z"/>
<path class="st1" d="M89.2,19.5c0.6-0.5,1.3-0.9,2-1.2c0.6-0.2,0.1-1.1-0.4-0.9c-0.9,0.3-1.7,0.9-2.2,1.7c-0.1,0.2,0,0.4,0.2,0.5
	C88.9,19.6,89.1,19.6,89.2,19.5L89.2,19.5z"/>
<path class="st1" d="M90.9,18.1c0.3-0.1,0.6-0.2,0.9-0.2c0.3,0,0.5,0,0.8-0.1c0.2-0.1,0.2-0.3,0.1-0.5c0,0,0,0-0.1-0.1
	c-0.5-0.5-1.5,0-2,0.3C90.4,17.7,90.5,18.3,90.9,18.1z"/>
<path class="st1" d="M92.2,19.2c0.4-0.2,0.8-0.3,0.8-0.8c0-0.1-0.1-0.2-0.1-0.2c-0.5-0.1-0.7,0.3-1,0.6c-0.1,0.1-0.1,0.2,0,0.3
	C92,19.3,92.1,19.3,92.2,19.2z"/>
<path class="st1" d="M92.4,18.9c0.1-0.1,0.1-0.2,0.2-0.2c0-0.1,0-0.2-0.1-0.2c0,0-0.1,0-0.1,0c-0.1,0-0.2,0.1-0.2,0.2
	c-0.1,0.1,0,0.2,0.1,0.3C92.2,19,92.3,19,92.4,18.9z"/>
<path class="st0" d="M89,17.6c0.2-0.5,0.5-1.4,0.1-1.8c-0.1-0.1-0.2-0.1-0.3,0c-0.5,0.2-0.5,1.2-0.5,1.8c0,0.2,0.1,0.4,0.4,0.4
	C88.8,18,89,17.9,89,17.6L89,17.6z"/>
<path class="st0" d="M88.8,18c0.7-0.3,0.9-1.4,0.9-2.1c0-0.3-0.2-0.6-0.5-0.6c-0.2,0-0.5,0.2-0.5,0.4c-0.1,0.4-0.2,0.8-0.2,1.2
	c-0.1,0.3-0.1,0.6,0.1,0.9C88.5,18.1,88.7,18.1,88.8,18z"/>
<path class="st0" d="M84.1,15.2c0.6,0.4,2.5,0.5,2.7-0.5c0-0.1,0-0.3-0.1-0.4c-0.4-0.3-0.8-0.2-1.2-0.1c-0.5,0.1-0.9,0.2-1.3,0.3
	C83.9,14.8,84,15.1,84.1,15.2z"/>
<path class="st0" d="M84.3,15.1c0.6,0.4,1.5,0.6,1.9-0.1c0.1-0.2,0-0.5-0.2-0.6c0,0-0.1,0-0.1,0c-0.6-0.1-1.1,0.2-1.6,0.4
	C84.2,14.8,84.2,14.9,84.3,15.1C84.3,15,84.3,15.1,84.3,15.1L84.3,15.1z"/>
<path class="st0" d="M81.9,14.1c-0.3,0.3-0.4,0.8,0,0.9c0.1,0,0.2,0,0.2-0.1c0,0,0,0,0,0c0.1-0.3-0.1-0.5,0-0.7S82,14,81.9,14.1
	L81.9,14.1z"/>
<path class="st0" d="M82.1,14.1c-0.2,0.1-0.4,0.4-0.3,0.7c0.1,0.2,0.4,0.2,0.6,0.1c0,0,0.1-0.1,0.1-0.1c0.1-0.1,0.1-0.2,0-0.2
	c0,0,0,0-0.1,0c-0.1,0-0.2-0.1-0.3-0.1l0.1,0.2c0-0.1,0-0.3,0.1-0.4C82.3,14.2,82.2,14,82.1,14.1L82.1,14.1z"/>
<path class="st0" d="M81.7,14.7c0.3,0.5,0.7,1,1.2,1.4c0.4,0.5,0.6,1.1,1,1.6c0.2,0.2,0.4,0,0.4-0.2c-0.2-0.6-0.5-1.2-1-1.7
	c-0.4-0.5-0.9-1-1.5-1.2C81.7,14.6,81.7,14.6,81.7,14.7L81.7,14.7z"/>
<path class="st0" d="M83.9,18.4c0.7,0.6,1.7,0.6,2.4,0.1c0.1-0.1,0.1-0.2,0-0.3c0,0,0,0,0,0c-0.4-0.1-0.7-0.1-1.1,0
	c-0.4,0-0.8,0-1.2,0.1C83.9,18.3,83.9,18.4,83.9,18.4c0.1,0,0.1,0,0.1,0H83.9z"/>
<path class="st0" d="M85.4,18.8c1.3,0.6,2.9,0.2,3.7-0.9c0.1-0.1,0-0.3-0.1-0.3c0,0-0.1,0-0.1,0c-0.6,0.1-1.1,0.5-1.7,0.6
	c-0.6,0.1-1.2,0.2-1.8,0.3C85.3,18.5,85.3,18.6,85.4,18.8C85.3,18.7,85.4,18.8,85.4,18.8L85.4,18.8z"/>
<path class="st0" d="M88.7,18.5c0.7-0.2,2.1-0.9,2.3-1.7c0-0.1,0-0.2-0.2-0.3c0,0,0,0,0,0c-0.8-0.1-1.7,0.9-2.2,1.4
	C88.5,18,88.6,18.6,88.7,18.5z"/>
<path class="st0" d="M90.2,17.2c0.6-0.1,1.5-0.1,1.9-0.7c0.1-0.1,0-0.3-0.1-0.3c0,0,0,0,0,0c-0.6-0.2-1.4,0.4-1.9,0.7
	c-0.1,0-0.1,0.1,0,0.2C90.1,17.2,90.1,17.2,90.2,17.2z"/>
<path class="st0" d="M89.5,13.5c0.5,0.2,1.1,0.3,1.7,0.3c0.5,0,1.2,0.1,1.6-0.4c0.1-0.1,0.1-0.3,0-0.4c-0.4-0.4-1.1-0.2-1.6-0.2
	c-0.6,0-1.2,0.2-1.7,0.5C89.4,13.3,89.4,13.4,89.5,13.5C89.4,13.5,89.4,13.5,89.5,13.5z"/>
<path class="st0" d="M82.6,14c-0.9,0.4-0.5,1.9,0.4,1.9c0.3,0,0.8-0.2,0.6-0.6s-0.3-0.3-0.5-0.4c-0.2-0.2-0.4-0.5-0.3-0.8
	C82.8,14.1,82.7,14,82.6,14z"/>
<path class="st0" d="M82.2,14.3c-0.2,0.3-0.1,0.7,0.2,1c0.2,0.2,0.6,0.5,0.9,0.3c0.1,0,0.1-0.1,0.1-0.2c-0.1-0.2-0.3-0.2-0.5-0.4
	c-0.2-0.2-0.4-0.4-0.5-0.6C82.3,14.2,82.2,14.3,82.2,14.3L82.2,14.3z"/>
<g>
	<path class="st2" d="M102.9,12.1c-0.7,0.1-2.2,0.1-2.9,0.2c0,0,0,0,0,0c-0.9-0.1-1.8-0.1-2.7,0c-0.3,0-0.7,0-1,0
		c-0.2-0.1-0.5-0.1-0.7,0c-0.5,0.1-1,0-1.5,0.1c0-0.1-0.1-0.2-0.2-0.2c0,0-0.1-0.1-0.2,0c0,0,0,0,0,0c-0.5,0.4-0.5,1.1-0.5,1.6
		c0,0.2,0.3,0.4,0.6,0.4c0.2,0,0.3-0.1,0.4-0.2c0.4,0.1,0.7,0.2,1,0.1c0.2,0,0.5,0,0.6-0.1c1.6,0,3-0.4,4.5-0.9
		c0.6-0.1,1.2-0.1,1.8-0.2C102.8,12.8,103.5,12,102.9,12.1z"/>
	<path class="st2" d="M81.4,13c0,0,0,0.1,0,0.1c0,0-0.1,0-0.1,0c-1.7,0.1-3.3,0.2-5,0.5c-1,0-1.9-0.1-2.9,0.2
		c-0.2-0.1-0.4,0.1-0.7,0.2c-0.3,0-1.1,0-1.1,0.2h-0.1c0.1,0.3,0.4,0.4,0.7,0.5c0,0,0,0.1,0,0.1c0,0.1,0.1,0.1,0.1,0.1v0
		c0.3,0,0.7,0,1,0c0,0,0.1,0,0.1-0.1c0,0,0.1,0,0.1,0c0.2,0,0.4,0.1,0.6,0.1c0,0,0,0,0,0c0,0,0,0,0.1,0c0.9,0.1,1.8,0.1,2.6,0
		c1.3,0,2.6,0,4,0c0,0,0,0,0,0c0.2,0,0.3,0,0.6-0.2c0,0-0.1-0.1-0.1-0.1c0.1,0,0.1,0,0.2,0c0,0,0.1-0.1,0-0.1c0,0,0,0,0,0
		c0,0,0,0,0,0C81.8,14,82,14,81.9,14c-0.1,0-0.1,0-0.2,0c0.2-0.4,0.4-0.9,0.5-1.1C82.3,12.7,81.5,12.8,81.4,13z"/>
</g>
<g>
	<path class="st3" d="M85.7,5.6c0,0,0.1,0,0.1,0c0.1-0.1,0.2-0.2,0.3-0.3c0,0,0,0,0,0C86,5.5,85.8,5.6,85.7,5.6z"/>
	<path class="st3" d="M94,6.4C94,6.4,94,6.4,94,6.4C94,6.4,94.1,6.4,94,6.4C94.1,6.4,94.1,6.4,94,6.4C94,6.4,94,6.4,94,6.4z"/>
	<path class="st4" d="M72.1,14.2C72.1,14.2,72.1,14.2,72.1,14.2C72.1,14.2,72.1,14.2,72.1,14.2L72.1,14.2z"/>
	<path class="st4" d="M102.9,11.6v-0.1c0,0,0,0,0,0c0-0.1,0-0.3-0.2-0.5c-3.9-3.8-9.4-8.9-15.2-8.4c-6.7,0.5-10.2,5.8-15.4,9.9
		c-0.4,0.2-0.6,0.7-1.2,0.9c0,0.1,0.1,0.3,0.2,0.4c0.1,0.2,0.3,0.3,0.6,0.4c0.1,0,0.2,0,0.3,0c0.1-0.5,0,0,0,0c0,0,0.2-0.3,0.3-0.3
		c9.6-1.6,19.1-1.9,28.8-1.7c0.2,0,0.4-0.1,0.6-0.2c0.4,0.1,0.7,0,1-0.1c0,0,0,0,0.1,0h0.1C102.8,11.9,102.9,11.8,102.9,11.6
		C102.9,11.7,102.9,11.7,102.9,11.6z M85.8,5.6c0,0-0.1,0-0.1,0c0.1-0.1,0.3-0.2,0.4-0.3c0,0,0,0,0,0C86,5.4,85.9,5.5,85.8,5.6z
		 M94,6.4C94,6.4,94,6.4,94,6.4C94,6.4,94,6.4,94,6.4C94.1,6.4,94.1,6.4,94,6.4C94.1,6.4,94,6.4,94,6.4z"/>
</g>
<path class="st5" d="M75.9,40.6c-1.7,8.8-4.1,20.5,0.7,28.7c0,0.1,0.2,0,0.2-0.1c-1.2-4.9-1.7-10-1.6-15.1c0.3-4.5,1.3-9,1.5-13.5
	c0-0.2-0.2-0.4-0.4-0.4C76.1,40.3,75.9,40.4,75.9,40.6z"/>
<path class="st5" d="M76.6,69.5c0.6-0.3,1.1-0.7,1.4-1.3c0.1-0.3,0-0.6-0.2-0.7c-0.2-0.1-0.4-0.1-0.6,0.1c-0.4,0.4-0.8,0.8-1.2,1.2
	c-0.2,0.2-0.2,0.5,0,0.7C76.1,69.6,76.4,69.6,76.6,69.5L76.6,69.5z"/>
<path class="st5" d="M76.4,68.5c0-0.2,0-0.3,0-0.5c0-0.9-1.4-0.7-1.2,0.2c0.1,0.2,0.2,0.5,0.4,0.7c0.2,0.2,0.5,0.2,0.7,0
	C76.4,68.8,76.4,68.7,76.4,68.5L76.4,68.5z"/>
<path class="st5" d="M76.9,40.6c-0.3,5.8-0.9,11.4-1.5,17.2c-0.4,3.8-0.5,7.3,1.7,10.6c0.2,0.3,0.7,0.1,0.6-0.3
	c-3.2-8.6,0.5-18.5,0.1-27.5c0-0.3-0.2-0.5-0.5-0.5C77.1,40.2,76.9,40.4,76.9,40.6z"/>
<path class="st5" d="M76.5,41.5c-2,4.9-2.5,10.2-1.6,15.4c0.2,0.8,1.3,0.6,1.4-0.2c0.4-5,0.5-10.9,0.9-15.9c0.1-0.5-0.7-0.5-0.8-0.1
	L76.5,41.5z"/>
<path class="st5" d="M75.3,58.5c0.4-0.8,0.7-1.7,0.9-2.7c0.3-0.8,0.3-1.6,0-2.3c-0.1-0.2-0.4-0.3-0.6-0.1c0,0-0.1,0-0.1,0.1
	c-0.5,0.7-0.8,1.6-0.8,2.4c-0.1,0.9-0.2,1.7-0.1,2.6c0.1,0.2,0.2,0.3,0.4,0.2C75.2,58.6,75.3,58.5,75.3,58.5L75.3,58.5z"/>
<path class="st5" d="M76.4,56.2c0.7-0.3,0.8-1.3,0.9-1.9c0.2-0.9,0.1-1.9-0.1-2.8c0-0.1-0.2-0.1-0.2-0.1c0,0-0.1,0.1-0.1,0.1
	c-0.2,0.9-0.3,1.8-0.5,2.7c-0.1,0.6-0.4,1.4-0.1,1.9C76.3,56.2,76.4,56.2,76.4,56.2z"/>
<path class="st5" d="M77,52.1c0.4-0.8,0.6-1.7,0.6-2.6c0.1-1,0.1-2-0.1-3c-0.1-0.2-0.4-0.3-0.5-0.1c-0.3,0.9-0.4,1.7-0.5,2.7
	c-0.1,1,0,2,0.3,3C76.8,52.2,77,52.2,77,52.1L77,52.1z"/>
<path class="st5" d="M76.4,57.2c0.5-0.1,0.7-0.8,0.8-1.2c0.2-0.6,0.2-1.2-0.1-1.8c-0.1-0.2-0.3-0.2-0.5-0.1c0,0-0.1,0.1-0.1,0.1
	C76.3,54.5,75.9,57.3,76.4,57.2L76.4,57.2z"/>
<path class="st5" d="M75.7,40.2c-0.5,0.3-0.5,1.3-0.2,1.7c0.1,0.2,0.3,0.2,0.5,0.1c0.1,0,0.1-0.1,0.2-0.2c0.1-0.3,0.1-0.6,0-0.9
	c0-0.2,0-0.5-0.2-0.7C75.9,40.2,75.8,40.2,75.7,40.2L75.7,40.2z"/>
<path class="st5" d="M75.8,40.7c-0.2,0.4-0.2,0.8-0.2,1.2c-0.1,0.4,0,0.9,0.2,1.3c0,0.1,0.1,0.1,0.2,0.1c0,0,0.1,0,0.1-0.1
	c0.2-0.4,0.2-0.8,0.1-1.3c0-0.4-0.1-0.8-0.3-1.2C75.9,40.6,75.9,40.6,75.8,40.7C75.8,40.6,75.8,40.7,75.8,40.7z"/>
<path class="st6" d="M75.3,74.9c8.8-2.3,21-3.7,27.2-11c0.2-0.3-0.2-0.7-0.4-0.4c-6.5,7-18.2,8.2-26.9,10.9c-0.1,0-0.2,0.2-0.2,0.3
	C75.1,74.8,75.2,74.9,75.3,74.9L75.3,74.9z"/>
<path class="st6" d="M75.7,74.2c-0.3,1.6,0.1,3.3,1.1,4.6c0.2,0.2,0.5,0,0.4-0.2c-0.3-0.7-0.6-1.4-0.9-2.1c-0.2-0.8-0.2-1.5-0.3-2.3
	C76,74.1,75.9,74.1,75.7,74.2C75.8,74.1,75.8,74.2,75.7,74.2z"/>
<path class="st6" d="M75.5,74.7c-0.2,1.3,0.2,2.7,1.2,3.6c0.2,0.1,0.4,0,0.3-0.2c-0.4-0.5-0.7-1.1-1-1.7c-0.2-0.5-0.3-1.1-0.4-1.7
	C75.6,74.6,75.5,74.6,75.5,74.7L75.5,74.7z"/>
<path class="st6" d="M77.2,78.8c5.7-0.4,11.4-2.3,16.7-4.6c3.7-1.6,8.5-3.3,10.4-7.1c0-0.1,0-0.2-0.1-0.2c-0.1,0-0.2,0-0.2,0.1
	c-5.7,7.7-18.2,9.4-26.9,11.6C77,78.5,77.1,78.8,77.2,78.8L77.2,78.8z"/>
<path class="st6" d="M104.2,66.9c0.1,0,0.2-0.2,0.2-0.3c0-0.1-0.1-0.2-0.2-0.2c-0.1,0-0.2,0.2-0.2,0.3
	C104,66.8,104.1,66.9,104.2,66.9z"/>
<path class="st6" d="M104.4,66.7c0-1-0.5-2-1.2-2.7c-0.5-0.5-1.1,0.2-0.7,0.7c0.6,0.7,1,1.5,1.5,2.2C104.1,67,104.4,66.8,104.4,66.7
	z"/>
<path class="st6" d="M102.3,64.8c0.1,0.5,0.2,0.9,0.4,1.4c0.1,0.6,0.1,1.1,0.2,1.7c0,0.2,0.1,0.3,0.3,0.3c0.2,0,0.3-0.1,0.3-0.3
	c0.2-0.9,0-2.8-1-3.3C102.5,64.6,102.4,64.7,102.3,64.8C102.3,64.8,102.3,64.8,102.3,64.8L102.3,64.8z"/>
<path class="st6" d="M103.8,66.3c-0.1,0.3-0.2,0.6-0.2,0.9c0,0.3,0.4,0.3,0.5,0.1c0-0.3,0-0.6,0-0.9C104,66.3,103.9,66.2,103.8,66.3
	C103.8,66.3,103.8,66.3,103.8,66.3L103.8,66.3z"/>
<path class="st6" d="M76.7,76.8c6,0,12.4-2.7,18-5c3.4-1.4,7.2-2.5,8.5-6.2c0.3-1-1.2-1.6-1.7-0.7c-2.1,4.4-9.2,5.8-13.5,7.3
	c-3.8,1.3-8,2-11.6,3.6C75.9,76,76.2,76.8,76.7,76.8L76.7,76.8z"/>
<path class="st6" d="M101.8,65.4C93.1,68.8,85.3,73,76,74.9c-0.7,0.2-0.4,1.3,0.3,1.1c8.6-1.7,18.8-4.6,25.7-10.3
	C102.1,65.6,102,65.4,101.8,65.4L101.8,65.4z"/>
<path class="st6" d="M76.8,77.4c8.3,1.3,19.9-4,26.3-9c0.2-0.2,0.3-0.5,0.1-0.7c-0.1-0.2-0.4-0.3-0.6-0.2c-4.7,2.3-9.1,4.8-14.1,6.4
	c-3.9,1.3-8,1.6-11.7,3.3C76.7,77.3,76.7,77.3,76.8,77.4C76.7,77.4,76.7,77.4,76.8,77.4L76.8,77.4z"/>
<path class="st6" d="M90.4,75c-0.1,0-0.1,0.1-0.2,0.1v0.1C90.3,75.1,90.4,75.1,90.4,75L90.4,75z"/>
<path class="st6" d="M90.4,75.2c2.6-0.1,5-1.2,6.9-2.9c0.1-0.1,0.1-0.3,0.1-0.4c-0.1-0.1-0.3-0.1-0.4,0c-1,0.7-2,1.3-3,1.8
	c-1.2,0.5-2.4,0.9-3.7,1.1c-0.1,0-0.2,0.1-0.2,0.2C90.2,75.1,90.3,75.2,90.4,75.2L90.4,75.2z"/>
<path class="st6" d="M102.3,68c0.4-0.3,0.8-0.7,1.1-1.1c0.1-0.2-0.1-0.5-0.3-0.3c-0.4,0.4-0.8,0.8-1,1.3
	C101.9,68,102.1,68.1,102.3,68L102.3,68z"/>
<path class="st6" d="M76.5,77.1c0,0.6,0.3,1.1,0.8,1.3c0.4,0.2,0.7-0.4,0.3-0.6c-0.4-0.2-0.7-0.5-1-0.8C76.6,77,76.5,77,76.5,77.1
	L76.5,77.1z"/>
<path class="st6" d="M77.3,78.5c0.7,0.2,1.4,0.2,2.2,0.2c0.7,0,1.3-0.2,1.8-0.6c0.1-0.1,0.1-0.4,0-0.5c0,0-0.1-0.1-0.1-0.1
	c-0.6-0.1-1.2,0-1.8,0.2c-0.7,0.2-1.4,0.3-2,0.5C77.3,78.2,77.3,78.3,77.3,78.5C77.3,78.4,77.4,78.4,77.3,78.5L77.3,78.5z"/>
<path class="st6" d="M77.5,78c0.8,0.5,1.7,0.4,2.4-0.3c0.1-0.2,0-0.4-0.1-0.5c0,0-0.1,0-0.2,0c-0.3,0.1-0.7,0.2-1,0.3
	c-0.3,0.1-0.7,0.1-1,0.2C77.5,77.8,77.4,77.9,77.5,78L77.5,78z"/>
<path class="st6" d="M76.2,77.2c0.6,0.2,1.2,0.3,1.8,0.3c0.5,0,1.1-0.1,1.4-0.5c0-0.1,0-0.2-0.1-0.2c-0.4-0.2-0.9-0.3-1.4-0.1
	c-0.5,0-1.1,0.1-1.6,0.3C76.2,76.9,76.1,77.2,76.2,77.2L76.2,77.2z"/>
<g>
	<path class="st3" d="M88.2,89.1c0.1-0.2,0.3-0.4,0.4-0.6c-0.3,0.4-0.6,0.8-0.9,1.2c0.2-0.1,0.3-0.2,0.5-0.3
		C88.1,89.3,88.1,89.2,88.2,89.1z"/>
	<path class="st3" d="M80.9,88.8l-0.2,0c0.5,1.4,1,2.8,1.6,4.2C81.8,91.5,81.3,90.1,80.9,88.8z"/>
	<path class="st7" d="M102.3,63.2c0,0-0.1-0.1-0.2-0.7c0.1-0.4,0-0.9-0.1-1.3c0-1,0-2.6,0.2-4.9c0.4-4.5-0.6-15.4-1.7-22.3
		c0-0.1,0-0.2,0-0.3c0-0.2-0.1-0.4-0.1-0.7c-0.3-1.8-0.6-3.2-0.8-4c-0.4-1.2-1.1-2.7-1.8-4.1c-0.5-1-1-1.9-1.6-2.8
		c-1.1-1.8-2.1-3.2-2.4-3.6c-0.6-0.7-0.7,0.7-0.8,0.5c-0.1-0.1-1.9,0.8-2.5,1.2c-0.5,0.3-1.6,1.1-2.1,1.5c-1,0.3-2.2,0.5-2.8,1.2
		c-0.1,0.1-0.1,0.1,0,0.2c-1.8,2.1-5.7,11-6.1,12.9c-0.1,0.4-0.4,2.2-0.8,4.8c0-0.1,0-0.3-0.1-0.4c0-0.1-0.1-0.1-0.2-0.1
		c-0.1,0-0.1,0.1-0.1,0.1l0,0c0,1.1-0.1,2.3-0.1,3.4c-1.4,8.8-3.4,21.9-3.4,24.5c0,2.6,0.5,4,0.9,4.6c-0.2,0.1-0.2,0.3-0.2,0.5
		c0.1,0.2,0.3,0.4,0.5,0.3l0.1,0c0.9-0.2,1.9-0.4,2.9-0.6C95,71.2,102.3,63.2,102.3,63.2z"/>
	<path class="st7" d="M105.6,75.6c1.2,1.5,1.8,3.6,2.6,5.3c0.2,0.4,0.4,0.8,0.7,1.3c0-0.1-0.1-0.1-0.1-0.2
		c-0.4-0.9-3.1-8.5-3.8-10.5c0.1,0.7,0.2,1.4,0.3,2.1C105.5,74.2,105.6,74.9,105.6,75.6z"/>
	<path class="st7" d="M110.8,86.9c0.4,0.1,0.8,0.3,1.1,0.6c0.1,0.1,0.1,0.1,0.1,0.2l0.2,0c0,0-1.9-2.8-2.9-4.5c0.5,1,1,2,1,3
		C110.7,86.2,110.9,86.6,110.8,86.9z"/>
	<path class="st7" d="M104.3,70.1c0.1,0,0.2,0,0.3,0.2c0,0,0,0,0,0c0.1,0,0.1,0,0.2,0c-0.2-0.8-0.4-2.1-0.4-2.1s-0.1,0-0.1,0.1
		c0,0,0,0,0,0.1C104.3,68.9,104.3,69.5,104.3,70.1z"/>
	<path class="st7" d="M81,83.2c0.6,0,1.3-0.1,1.9-0.1c-0.7,0-1.4,0-2.2-0.1c0,0.1,0.1,0.1,0.1,0.2C80.9,83.3,80.9,83.2,81,83.2z"/>
	<path class="st7" d="M101.8,73.4c0-0.1,0-0.2,0-0.3c-0.1,0.1-0.1,0.2-0.2,0.3C101.8,73.4,101.8,73.4,101.8,73.4z"/>
	<path class="st7" d="M91,85.6c0.4-0.2,0.9-0.5,1.3-0.7c-0.3,0-0.5,0.1-0.8,0.1C91.3,85.2,91.1,85.4,91,85.6z"/>
	<path class="st7" d="M109,85.4c-0.1,0.2-0.2,0.3-0.3,0.4c0.3,0,0.6,0.1,0.9,0.1C109.4,85.8,109.2,85.6,109,85.4z"/>
	<path class="st7" d="M79,81.1c0.1,0,0.2-0.1,0.4-0.1c0.1,0,0.2,0,0.4,0c-0.3,0-0.6-0.1-0.9-0.2C78.9,80.9,79,81,79,81.1z"/>
	<path class="st7" d="M103.5,70.2c0-0.1,0-0.1,0-0.2c0,0-0.1,0-0.1,0.1C103.4,70.1,103.4,70.1,103.5,70.2z"/>
	<path class="st7" d="M103.7,68.9c0-0.1,0-0.2,0.1-0.3c-1.7,1.1-6.6,4.3-11.9,6.8c-4.2,2-9.2,2.9-12.2,3.3c8.8-1,16.8-3.9,23.8-9.7
		C103.5,68.9,103.6,68.9,103.7,68.9z"/>
	<path class="st7" d="M84,79.3c0-0.1,0-0.1,0.1-0.2c0.3-0.1,0.6-0.3,0.9-0.4c-1.1,0.2-2.2,0.4-3.3,0.5C82.4,79.3,83.2,79.3,84,79.3z
		"/>
	<path class="st7" d="M87.3,78.3c0.4-0.1,0.9-0.1,1.3-0.2c0,0,0-0.1,0-0.1C88.1,78,87.7,78.2,87.3,78.3z"/>
	<path class="st7" d="M101.7,85.2c-0.4,0.1-0.8,0.2-1.2,0.3c0.5,0,1,0,1.5,0C101.9,85.4,101.8,85.3,101.7,85.2z"/>
	<path class="st7" d="M103,71.3c0.1,0,0.1,0,0.2,0c0.1,0,0.1,0,0.2,0.1c0-0.3,0-0.5,0-0.8C103.3,70.9,103.1,71.1,103,71.3z"/>
	<path class="st7" d="M83.8,85.7c-0.1,0.1-0.1,0.2-0.2,0.3c0,0,0,0,0,0c0,0.1,0.1,0.2,0.1,0.3c0.2-0.3,0.4-0.6,0.6-0.9
		c0-0.1,0-0.2,0-0.4C84.2,85.2,84,85.4,83.8,85.7z"/>
	<path class="st7" d="M89.5,87.4C89.5,87.4,89.5,87.4,89.5,87.4c-0.2,0.1-0.3,0.3-0.4,0.4C89.2,87.7,89.4,87.5,89.5,87.4z"/>
	<path class="st7" d="M80.5,87.7c-0.5-1.5-1.1-3-1.6-4.5c0.5,1.9,1.1,3.7,1.7,5.5l0.2,0C80.7,88.4,80.6,88,80.5,87.7z"/>
	<path class="st7" d="M78,79.5c0,0.1,0,0.1,0.1,0.2c0.5-0.1,1-0.2,1.4-0.2C79,79.5,78.5,79.5,78,79.5C78,79.5,78,79.5,78,79.5z"/>
	<path class="st7" d="M77.7,79c0-0.1,0.1-0.1,0.1-0.1c-0.7,0.1-1.2,0.1-1.2,0.1c0.5,3.5,2.8,9.9,2.8,9.9l0,0
		c-1.1-3.1-1.8-6.3-2.2-9.5C77.2,79,77.5,78.9,77.7,79z"/>
	<path class="st7" d="M110.2,87.2c-5.2-0.4-10.7-1-15.7,0.6c-0.5,0.1-0.9,0.3-1.4,0.5l17.6-0.7c-0.1-0.1-0.2-0.3-0.2-0.4
		C110.4,87.2,110.3,87.2,110.2,87.2z"/>
	<path class="st7" d="M112,87.4c-0.3-0.3-0.7-0.5-1.1-0.6c0.1-0.3-0.1-0.7-0.4-0.8c0-1-0.5-2-1-3c-0.2-0.3-0.3-0.6-0.5-0.9
		c-0.3-0.4-0.5-0.9-0.7-1.3c-0.8-1.7-1.4-3.8-2.6-5.3c0-0.7-0.1-1.4-0.2-2c-0.1-0.7-0.2-1.4-0.3-2.1c-0.1-0.4-0.1-0.7-0.2-1.1
		c0-0.1,0-0.1-0.1-0.1c-0.1,0-0.1,0-0.2,0c0,0,0,0,0,0c-0.1-0.1-0.2-0.2-0.3-0.2c0-0.6,0-1.2,0-1.8c0,0,0-0.1,0-0.1
		c-0.1-0.1-0.3-0.1-0.4,0.1l0,0c0,0.1,0,0.2-0.1,0.3c0,0.1-0.1,0.2-0.1,0.3c-0.1,0-0.2,0-0.2,0.1c-7,5.8-15,8.7-23.8,9.7
		c-0.5,0.1-1.1,0.1-1.6,0.2c0,0-0.1,0-0.1,0c-0.1,0-0.1,0.1-0.1,0.1c-0.2-0.1-0.5,0-0.5,0.3c0.4,3.3,1.2,6.5,2.2,9.5
		c0.9,2.6,2.1,5.2,3.4,7.6c0.2,0.4,0.8,0,0.6-0.4c0,0,0-0.1-0.1-0.1c0,0,0,0,0,0l0,0c0.1-0.1,0.1-0.2,0.2-0.2c0,0,0,0,0,0
		c0,0.3,0,0.6,0,0.8c0,0,0,0.1,0.1,0v0c1.3-1.3,2-2.9,3.2-4.2c1.7-1.8,3.8-3.1,6-4c0.4-0.2,0.9-0.3,1.4-0.5c5.1-1.5,10.5-1,15.7-0.6
		c0.1,0,0.2,0,0.2,0c0.1,0.1,0.1,0.3,0.2,0.4c0.2,0.2,0.4,0.4,0.6,0.6c0.4,0.2,0.9-0.2,0.7-0.6C112,87.5,112,87.5,112,87.4z
		 M83.7,86.2c0-0.1-0.1-0.2-0.1-0.3c0,0,0,0,0,0c0.1-0.1,0.1-0.2,0.2-0.3c0.2-0.2,0.4-0.4,0.6-0.7c0,0.1,0,0.2,0,0.4
		C84.1,85.6,83.9,85.9,83.7,86.2z M82.9,83.1c-0.6,0-1.3,0.1-1.9,0.1c0,0-0.1,0-0.1,0c0-0.1-0.1-0.1-0.1-0.2
		C81.4,83.1,82.1,83.1,82.9,83.1z M89.5,87.4C89.5,87.4,89.5,87.4,89.5,87.4c-0.1,0.1-0.2,0.3-0.3,0.4
		C89.2,87.7,89.3,87.5,89.5,87.4z M91,85.6c0.2-0.2,0.4-0.4,0.5-0.6c0.3,0,0.5-0.1,0.8-0.1C91.8,85.1,91.4,85.3,91,85.6z
		 M101.8,73.4c0,0-0.1,0-0.1,0c0.1-0.1,0.1-0.2,0.2-0.3C101.9,73.2,101.8,73.3,101.8,73.4z M79.4,81c-0.1,0-0.2,0-0.4,0.1
		c0-0.1-0.1-0.2-0.1-0.2c0.3,0.1,0.6,0.1,0.9,0.2C79.6,81,79.5,81,79.4,81z M103.4,71.4c-0.1,0-0.1-0.1-0.2-0.1c-0.1,0-0.1,0-0.2,0
		c0.1-0.2,0.3-0.5,0.4-0.7C103.4,70.9,103.4,71.1,103.4,71.4z M88.5,78c-0.4,0.1-0.9,0.1-1.3,0.2c0.4-0.1,0.9-0.2,1.3-0.4
		C88.5,78,88.5,78,88.5,78z M84,79.2c-0.1,0-0.1,0.1-0.1,0.2c-0.8,0-1.5,0-2.3,0c1.1-0.1,2.2-0.3,3.3-0.5C84.7,78.9,84.4,79,84,79.2
		z M78,79.7c0-0.1,0-0.1-0.1-0.2c0,0,0,0,0,0c0.5,0,1,0,1.5-0.1C79,79.6,78.5,79.6,78,79.7z M88.5,88.6c-0.1,0.2-0.3,0.4-0.4,0.6
		c-0.1,0.1-0.1,0.2,0,0.3c-0.2,0.1-0.3,0.2-0.5,0.3C87.9,89.3,88.3,89,88.5,88.6z M101.7,85.2c0.1,0.1,0.2,0.2,0.3,0.3
		c-0.5,0-1,0-1.5,0C100.9,85.4,101.3,85.3,101.7,85.2z M109,85.4c0.2,0.2,0.4,0.4,0.6,0.5c-0.3,0-0.6-0.1-0.9-0.1
		C108.8,85.7,108.9,85.6,109,85.4z M103.5,70c0,0.1,0,0.1,0,0.2C103.4,70.1,103.4,70.1,103.5,70C103.4,70,103.4,70,103.5,70z
		 M78.9,83.2c0.5,1.5,1.1,3,1.6,4.5c0.1,0.3,0.2,0.7,0.4,1.1c0.5,1.4,0.9,2.8,1.4,4.2c-0.6-1.4-1.1-2.8-1.6-4.2
		C80,86.9,79.4,85.1,78.9,83.2z"/>
</g>
<g>
	<path class="st3" d="M87.1,27.6C87.1,27.6,87.1,27.6,87.1,27.6C87.1,27.5,87.1,27.5,87.1,27.6C87.1,27.6,87.1,27.6,87.1,27.6z"/>
	<path class="st3" d="M88.1,36.3C88.1,36.4,88.1,36.4,88.1,36.3c0,0,0,0,0-0.1C88.1,36.3,88.1,36.3,88.1,36.3z"/>
	<path class="st3" d="M87.7,29.3c0,0,0-0.1,0-0.1C87.6,29.2,87.6,29.2,87.7,29.3C87.7,29.3,87.7,29.3,87.7,29.3z"/>
	<path class="st3" d="M88.6,32C88.6,32,88.6,32,88.6,32C88.6,32,88.6,32,88.6,32C88.6,32,88.6,32,88.6,32z"/>
	<path class="st8" d="M96.9,39.5c-0.1-0.3-0.5-0.1-0.5,0.1v0c-0.1,3,0.7,6,0.9,9c0.2,3-0.1,6.1,0.1,9.1c0,0.5,0.8,0.7,0.9,0.1
		C99.5,52.5,99.3,44.5,96.9,39.5z"/>
	<polygon class="st8" points="86.2,28.5 86.2,28.5 86.2,28.5 	"/>
	<path class="st8" d="M86.5,34.7c0.1,1.6,0.5,3.2,1.1,4.4c0,0.1,0,0.2,0.1,0.3c0,0.1,0.1,0.1,0.1,0.1c0,0,0,0,0,0c0,0,0,0,0,0v0
		c0,0,0,0,0,0c0.1,0,0.2,0,0.2,0c0.1,0,0.1-0.1,0.1-0.1c0.1,0.3,0.2,0.5,0.3,0.8c0,0-0.1,0.1-0.1,0.1c-0.1,0.1,0,0.3,0.1,0.4
		c0.2,0.1,0.3,0.3,0.5,0.4c0,0.1,0.1,0.2,0.1,0.2c0.1,0.1,0.1,0.1,0.2,0.1c0.3,0.3,0.5,0.6,0.7,0.9c0.5,0.7,1.5-0.1,0.9-0.7
		c0,0,0,0-0.1,0c0,0,0,0,0,0c0,0,0.1,0,0.1,0c0.1,0,0.2-0.1,0.2-0.2c0.6-2.4-0.1-5.6-1.3-8.1c0.2,0.1,0.4-0.2,0.4-0.4
		c-0.4-0.9-0.9-1.8-1.5-2.6c-0.5-0.9-1-1.7-1.6-2.5c-0.1-0.1-0.1,0-0.2,0.1c0,0,0,0,0,0.1c0,0,0,0,0,0c0,0,0,0,0,0c0,0,0,0,0,0v0
		c0-0.1-0.1-0.1-0.2,0c0,0,0,0,0,0c-0.1,0.2-0.2,0.5-0.3,0.7c-0.1,0-0.1,0-0.2,0c-0.1,0-0.2,0.2-0.2,0.3c0,1,0,1.9,0.1,2.9
		c0,0.5,0,1.1,0.1,1.6c0,0,0,0,0,0c-0.2-0.3-0.5,0-0.4,0.2C86.1,33.7,86.3,34.2,86.5,34.7z M88.6,32C88.6,32,88.6,32,88.6,32
		C88.6,32,88.6,32,88.6,32C88.6,32,88.6,32,88.6,32z M88.1,36.3c0,0,0-0.1,0-0.1C88.1,36.3,88.1,36.3,88.1,36.3
		C88.1,36.4,88.1,36.4,88.1,36.3z M87.7,29.3C87.7,29.3,87.7,29.3,87.7,29.3c0,0,0-0.1,0-0.1C87.6,29.2,87.7,29.2,87.7,29.3z"/>
	<path class="st8" d="M82.2,43.2c0,0,0,0.1,0,0.1c0,0.2,0.2,0.3,0.3,0.3c0,0,0.1,0,0.1,0c0,0.1,0,0.1-0.1,0.2c0,0.2,0.2,0.4,0.4,0.4
		c0.1,0,0.1,0,0.2-0.1c0.4-0.3,0.6-0.7,0.8-1.1l0.8-1.4c0-0.1,0.1-0.1,0.2-0.2c-0.1,0.2-0.2,0.5-0.2,0.7c-0.5,0.6-0.9,1.4-1,2.1
		c0,0.2,0.2,0.4,0.4,0.4c0.1,0,0.2,0,0.3-0.1c0.2-0.2,0.4-0.4,0.6-0.7c0.1,0.1,0.3,0.1,0.4,0c0.1,0,0.1-0.1,0.2-0.2
		c0-0.1,0-0.1,0-0.2c0,0.6,0.1,1.2,0.3,1.8c0,0.3,0.3,0.3,0.5,0.3c0,0.2,0,0.4,0.1,0.6c0.1,0.2,0.3,0.3,0.5,0.3
		c0.1,0,0.2-0.1,0.3-0.3c0.5-1.9,0.4-3.9-0.4-5.7c-0.1-0.1-0.2-0.1-0.3-0.1c0,0-0.1,0.1-0.1,0.1c0,0,0,0.1,0,0.1
		c-0.1-0.1-0.3-0.2-0.4-0.2c0,0,0,0-0.1,0c-0.1-0.1-0.3-0.1-0.4,0c0,0,0-0.1,0-0.1c-0.2-0.1-1.4-0.1-1.5,0.1l0,0.1
		c-0.1-0.1-0.2-0.1-0.3,0L83,40.4c-0.1,0-0.1,0.1-0.1,0.1c-0.5-0.1-1.1-0.1-1.6,0c0,0,0,0,0,0c0,0-0.1,0-0.1,0
		c-0.7,0.1-1.4,0.4-2,0.9c-0.5,0.4-1.2,1.2-1.2,1.8c0,0.2,0.2,0.4,0.4,0.4c0.1,0,0.2,0,0.2-0.1c0.2-0.2,0.4-0.4,0.6-0.7
		c0.1-0.2,0.2-0.3,0.4-0.5c0,0,0,0,0,0v0c0,0.3-0.1,0.7-0.1,1c-0.2,0.5-0.4,1-0.2,1.5c0,0.1,0.1,0.1,0.1,0.2c0,0.1,0,0.3,0,0.4
		c0,0.2,0.1,0.4,0.3,0.4c0.2,0,0.3-0.1,0.3-0.3c0.1-0.4,0.2-0.8,0.3-1.1c0.1-0.2,0.2-0.5,0.3-0.7c0.1-0.1,0.2-0.2,0.4-0.3
		c-0.2,0.4-0.3,0.8-0.3,1.2c0,0.2,0.2,0.4,0.5,0.4c0.1,0,0.2,0,0.3-0.1c0.3-0.5,0.6-1,0.8-1.5C82.2,43.3,82.2,43.3,82.2,43.2z"/>
	<path class="st8" d="M81.1,40.5C81.1,40.5,81.1,40.5,81.1,40.5C81.1,40.5,81.1,40.5,81.1,40.5L81.1,40.5z"/>
	<path class="st8" d="M84.2,49.9c0-0.1-0.1-0.2-0.2-0.2c-0.1,0-0.1,0-0.1,0.1c-1.5,2.7-1.2,6.6-0.5,9.5c0,0.2,0.2,0.2,0.4,0.2
		c0.1,0,0.2-0.2,0.2-0.3c-0.1-1.6-0.1-3.1-0.1-4.7C83.9,53,84.2,51.5,84.2,49.9z"/>
	<path class="st8" d="M76.8,72.1c0-0.2-0.1-0.4-0.2-0.6c-0.1-0.1-0.2-0.1-0.3-0.1c0,0-0.1,0.1-0.1,0.1c-0.4,0.7,0.3,1.6,0.9,1.9
		c0.3,0.2,0.6-0.3,0.3-0.5C77.1,72.7,76.9,72.4,76.8,72.1z"/>
	<path class="st8" d="M79.1,70.7c-0.1-0.1-0.3-0.1-0.3,0c0,0,0,0.1-0.1,0.1c0,0.7,0.3,1.4,0.8,1.8c0.1,0.1,0.2,0.1,0.4,0.1
		c0.1,0,0.2-0.1,0.2-0.2h0.1v-0.1c0-0.1,0-0.3-0.1-0.4C79.7,71.7,79.5,71.1,79.1,70.7z"/>
	<path class="st8" d="M83.3,71c0-0.2-0.1-0.4-0.1-0.6S83,70,82.9,69.8c-0.1-0.2-0.3-0.3-0.5-0.3c-0.1,0-0.2,0.1-0.3,0.3
		c-0.1,0.5-0.1,1,0,1.4c0.1,0.5,0.3,0.9,0.7,1.1c0.2,0.1,0.4,0,0.6-0.2c0,0,0-0.1,0-0.1h0C83.5,71.7,83.4,71.3,83.3,71z"/>
	<path class="st8" d="M86.1,70.5c0.1-0.4,0.1-0.8,0-1.2c-0.1-0.2-0.4-0.3-0.5-0.1c-0.1,0.3-0.2,0.7-0.1,1c0,0.3-0.1,0.6,0.2,0.8
		c0.1,0,0.1,0,0.2,0v0C86.1,71.1,86.1,70.8,86.1,70.5z"/>
	<path class="st8" d="M88.4,67.8c-0.2,0.5-0.4,1.1-0.6,1.6c-0.2,0.5-0.5,0.9-0.3,1.3c0,0.1,0.1,0.1,0.2,0.1v0
		c0.5-0.1,0.7-0.7,0.8-1.1c0.2-0.6,0.3-1.2,0.2-1.9c0-0.1-0.1-0.2-0.2-0.2C88.5,67.6,88.4,67.7,88.4,67.8z"/>
	<path class="st8" d="M93.5,68.5C93.6,68.5,93.5,68.5,93.5,68.5C93.5,68.5,93.5,68.5,93.5,68.5L93.5,68.5z"/>
	<path class="st8" d="M93.1,68.8c0.2,0.2,0.5-0.1,0.5-0.3c-0.2-0.5-0.4-0.9-0.7-1.3c-0.2-0.4-0.5-0.8-0.8-1.1
		c-0.3-0.2-0.6,0.1-0.6,0.4c0.2,0.5,0.4,0.9,0.8,1.3C92.5,68.2,92.7,68.5,93.1,68.8z"/>
	<path class="st8" d="M92.2,63.3c0.3-0.8,0.4-1.7,0.3-2.6c0-0.1-0.2-0.2-0.3-0.2c0,0-0.1,0-0.1,0.1c-0.7,0.7-0.8,2.1-0.9,3.1
		c0,0.1-0.3,1.5,0.2,1.3C92,64.8,92.1,63.9,92.2,63.3z"/>
	<path class="st8" d="M88.5,60.7c-0.2,0.3,0.1,0.6,0.4,0.5v0c1.2-0.4,2.1-1.2,2.8-2.2c0.6-0.8,1.5-2,1.3-3.1c0-0.4-0.5-0.4-0.7-0.2
		c-0.3,0.4-0.6,0.8-0.7,1.3c-0.3,0.5-0.6,0.9-0.9,1.4C90,59.2,89.1,59.8,88.5,60.7z"/>
	<path class="st8" d="M95.2,67.9c0.1,0,0.2-0.1,0.3-0.2c0.3-0.5,0.4-1,0.4-1.6c0-0.2-0.1-0.3-0.3-0.3c-0.1,0-0.2,0.1-0.2,0.1
		c-0.3,0.5-0.4,1-0.5,1.6C94.9,67.7,95,67.9,95.2,67.9z"/>
	<path class="st8" d="M97.8,64.7c0-0.1-0.2-0.2-0.3-0.1c0,0-0.1,0-0.1,0.1c-0.4,0.6-0.5,1.2-0.4,1.9c0,0.3,0.4,0.4,0.5,0.1h0
		C97.8,66.1,97.9,65.4,97.8,64.7z"/>
	<path class="st8" d="M99.4,63.8c0-0.1-0.1-0.1-0.2-0.1c-0.1,0-0.1,0.1-0.1,0.1c-0.2,0.5-0.2,1-0.4,1.5c0,0.1,0.2,0.3,0.3,0.1
		C99.4,65,99.6,64.4,99.4,63.8z"/>
	<path class="st8" d="M100.9,62.6C100.8,62.6,100.8,62.6,100.9,62.6c-0.3,0.6-0.5,1.2-0.5,1.7c0,0.3,0.5,0.5,0.5,0.1v0
		c0.2-0.6,0.3-1.2,0.2-1.7C101.1,62.6,101,62.5,100.9,62.6z"/>
	<path class="st8" d="M76,49.3c0.3-1.4,0.5-2.8,0.7-4.2c0.1-1.2,0.4-2.5-0.2-3.6l0,0c-0.4,1.1-0.5,2.2-0.4,3.3
		C76,46.3,76,47.8,76,49.3C75.9,49.3,76,49.4,76,49.3z"/>
	<path class="st8" d="M75.8,49.9C75.8,49.9,75.8,49.9,75.8,49.9C75.8,50,75.8,50,75.8,49.9C75.9,50,75.9,50,75.8,49.9
		C75.9,49.9,75.9,49.9,75.8,49.9C75.9,49.9,75.9,49.9,75.8,49.9z"/>
	<path class="st8" d="M95.3,72.7c-4.4,1.7-8.8,2.8-13.4,4.1c-0.2,0.1-0.2,0.5,0.1,0.5c4.7-0.5,9.3-2,13.4-4.3
		C95.6,73,95.5,72.7,95.3,72.7z"/>
	<path class="st8" d="M102.5,64.7c0,0-0.1,0-0.1,0c0,0,0,0,0,0l0,0c-0.3,0.4-0.1,1,0,1.4c0,0.6,0.1,1.1,0.3,1.6
		c0,0.1,0.2,0.2,0.3,0.1c0.1,0,0.2-0.1,0.2-0.2c0-0.6,0-1.1-0.1-1.7C102.9,65.6,102.9,65,102.5,64.7z"/>
	<path class="st8" d="M76.4,74.8c0-0.1-0.2-0.2-0.3-0.1c-0.1,0-0.1,0.1-0.1,0.1h0c-0.3,1.1,0.1,2.3,1,3.1c0.1,0,0.2,0,0.3-0.1
		c0,0,0-0.1,0-0.1c-0.1-0.5-0.4-0.9-0.6-1.4C76.5,75.9,76.5,75.3,76.4,74.8z"/>
	<path class="st8" d="M91.5,71.2c-0.1,0,0,0.1,0,0.1V71.2c2.1-0.2,4-1,5.7-2.1c0,0,0-0.1-0.1-0.1C95.3,69.9,93.4,70.6,91.5,71.2z"/>
	<path class="st8" d="M93.5,86.4c-0.4-0.2-0.9-0.5-1.3-0.8c-0.4-0.6-0.8-1.2-1-1.9c-0.3-1.1-0.7-2.3-1.2-3.4
		c-0.1-0.2-0.3-0.2-0.5-0.1c-0.1,0-0.1,0.1-0.2,0.2h0c-0.7,1.7,1.8,9.1,4.2,6.6C93.7,86.9,93.7,86.6,93.5,86.4
		C93.5,86.4,93.5,86.4,93.5,86.4z"/>
	<path class="st8" d="M83.8,79.8C83.7,79.8,83.7,79.8,83.8,79.8L83.8,79.8c-0.4,1.4-0.6,2.7-0.5,4c-0.3,1.5-0.4,3-0.5,4.5
		c0,0.3,0.5,0.5,0.6,0.2c0.6-1.4,0.9-2.9,0.9-4.3c0.1-1.4,0.3-3-0.3-4.3C83.9,79.8,83.8,79.7,83.8,79.8z"/>
	<path class="st8" d="M103.1,77C103.1,77,103.1,77,103.1,77C103.1,77,103.1,77,103.1,77L103.1,77z"/>
	<path class="st8" d="M106.7,83.4c-1-0.7-1.6-1.8-1.8-3c-0.2-1.2-0.6-2.4-1.2-3.5c-0.1-0.1-0.3-0.2-0.4-0.1c-0.1,0-0.1,0.1-0.1,0.2
		c0,1.7,0.2,3.3,0.8,4.8c0.2,1.1,1.1,2.1,2.2,2.4C106.6,84.3,107.1,83.8,106.7,83.4z"/>
	<path class="st8" d="M99.2,73C99.2,73,99.2,73,99.2,73L99.2,73c-0.1,0.8,0,1.5,0.5,2.1c0.2,0.2,0.6,0.2,0.5-0.2
		c0-0.7-0.3-1.4-0.8-1.9C99.3,72.9,99.2,72.9,99.2,73z"/>
</g>
<path class="st9" d="M81.3,34.2c0.6-1.1,1.2-2.2,1.7-3.3c0.6-1.1,1.3-2.1,1.9-3.1c0.1-0.1-0.1-0.3-0.2-0.2c-0.8,1-1.5,2.2-2.1,3.3
	C81.9,31.9,81.5,33,81.3,34.2C81.3,34.2,81.3,34.2,81.3,34.2L81.3,34.2z"/>
<path class="st9" d="M79.1,51.4c-1.1,3.2-1.6,6.5-1.4,9.8c0,0.1,0.1,0.2,0.2,0.2c0.1,0,0.1-0.1,0.2-0.2c0.3-3.3,1-6.5,1.3-9.8
	C79.4,51.3,79.2,51.3,79.1,51.4L79.1,51.4z"/>
<path class="st9" d="M93.6,22.8c0.9,1.2,1.7,2.4,2.3,3.8c0.6,1.4,0.6,2.9,1.1,4.3c0.1,0.2,0.2,0.3,0.4,0.2c0.1,0,0.2-0.1,0.2-0.2
	C98.4,28.1,96.1,24.1,93.6,22.8C93.6,22.8,93.5,22.8,93.6,22.8z"/>
<path class="st9" d="M76,10.7c0.8-0.5,1.5-1.1,2.2-1.7c0.8-0.6,1.6-1.3,2.3-2c0.2-0.2,0-0.5-0.3-0.3c-0.8,0.5-1.5,1.1-2.2,1.7
	c-0.8,0.6-1.6,1.3-2.3,2.1C75.6,10.6,75.7,10.9,76,10.7L76,10.7z"/>
<path class="st9" d="M92,5.4c1.1,0.7,2.2,1.1,3.3,1.8c1,0.7,2,1.2,3,1.7c0.1,0,0.3-0.1,0.3-0.2c0-0.1,0-0.1,0-0.2
	c-0.8-1-1.8-1.7-3-2.2c-1.1-0.6-2.3-1.1-3.5-1.2C91.9,5.1,91.9,5.3,92,5.4L92,5.4z"/>
<path class="st9" d="M84.6,18.8c0.3,0.3,0.7,0.2,1.1,0.2c0.5,0.1,0.9,0,1.4-0.1c0.2-0.1,0.3-0.2,0.2-0.4c0-0.1-0.1-0.2-0.2-0.2
	c-0.5-0.1-0.9-0.1-1.4,0c-0.4,0-0.8,0-1.1,0.3C84.6,18.6,84.6,18.7,84.6,18.8L84.6,18.8z"/>
<path class="st9" d="M79,81.5c0.5,3.6,1.7,7,3.5,10.1c0.1,0.1,0.3,0,0.2-0.1c-1-3.4-2.4-6.7-3.5-10.1c0-0.1-0.1-0.1-0.2-0.1
	C79,81.3,79,81.4,79,81.5C79,81.5,79,81.5,79,81.5z"/>
<path class="st9" d="M90.3,77.6c-0.1,0.1-0.1,0.1-0.1,0.3l0,0c1,0.1,1.9-0.1,2.8-0.5c1.1-0.3,2.1-0.6,3.1-1.1
	c0.1-0.1,0.1-0.2,0.1-0.3c0-0.1-0.1-0.1-0.2-0.1c-1.1,0.1-2.2,0.4-3.2,0.8C91.9,76.8,91.1,77.1,90.3,77.6
	C90.4,77.6,90.4,77.5,90.3,77.6L90.3,77.6z"/>
<path class="st10" d="M115.9,93.9V94c0,0,0,0,0.1,0c0,0,0,0,0,0v-0.1C116,93.9,116,93.9,115.9,93.9
	C115.9,93.9,115.9,93.9,115.9,93.9L115.9,93.9z"/>
<path class="st11" d="M134.1,119.7c6.2-2.2,12.3-5.3,18.3-8c6.6-3,13.3-5.3,20-7.9c0.7-0.3,0.7-1.5-0.2-1.4
	c-6.1,0.6-11.9,3.7-17.3,6.3c-7,3.3-14.4,6.4-21.2,10.2C133.3,119.1,133.6,119.8,134.1,119.7L134.1,119.7z"/>
<path class="st11" d="M137.9,113.6c6-1.1,11.9-5,17.4-7.4c5.9-2.6,13.6-4.4,18.8-8.3c0.6-0.5,0.5-1.7-0.4-1.7
	c-6.1,0.4-12.6,4.2-18.1,6.8c-5.9,2.7-13.5,5.3-18.1,10c-0.1,0.2-0.1,0.4,0,0.6C137.6,113.6,137.8,113.7,137.9,113.6L137.9,113.6z"
	/>
<path class="st11" d="M161.1,115.1c-0.8,1.4-2.3,4.2-1,5.6c0.3,0.3,0.8,0.3,1.2,0c0,0,0.1-0.1,0.1-0.1c0.3-0.8,0.3-1.6,0.1-2.4
	c-0.1-0.9,0.1-1.8,0.4-2.7C162.1,115,161.4,114.7,161.1,115.1L161.1,115.1z"/>
<path class="st11" d="M163.2,122.2c4.3-2.4,8.1-6.4,12.1-9.5c4-3.1,8.9-4.6,12.4-8.8c0.3-0.5,0.4-1.3,0.1-1.8
	c-0.2-0.3-0.4-0.4-0.7-0.4c-4.2,0.2-8.7,4.5-12.4,7.4c-4.1,3.2-8.8,6.9-12,12.1C162.6,121.5,162.8,122.4,163.2,122.2L163.2,122.2z"
	/>
<path class="st11" d="M181.8,109.3c-0.4,1.3-0.4,2.7-0.2,4c0.3,1.4,2.6,0.7,2.1-0.6c-0.5-1.1-0.9-2.3-1.3-3.4
	c-0.1-0.2-0.2-0.3-0.4-0.2C181.9,109.2,181.8,109.2,181.8,109.3L181.8,109.3z"/>
<path class="st11" d="M181.8,114.2c3.3-0.3,6.2-2.2,9.2-3.6c2.8-1.3,7-2,8.7-4.8c0.3-0.5,0.1-1.2-0.4-1.6c-0.1,0-0.2-0.1-0.3-0.1
	c-3.1-0.8-6.5,1.8-9.2,3.2c-3.1,1.6-6.4,3-8.6,5.8c-0.2,0.3-0.1,0.8,0.3,1C181.6,114.2,181.7,114.2,181.8,114.2L181.8,114.2z"/>
<path class="st11" d="M134.1,122.2c5.6-1.3,10.7-4.9,15.9-7.4c5.5-2.7,12.3-4.5,17.2-8.2c0.7-0.5,0.6-2.1-0.5-1.9
	c-5.7,0.7-11.5,4.2-16.6,6.7c-5.5,2.7-12.2,5.4-16.4,10c-0.2,0.2-0.2,0.5,0,0.6C133.8,122.2,133.9,122.2,134.1,122.2L134.1,122.2z"
	/>
<path class="st11" d="M165.8,105.2c-0.5,1.3-1.9,4.3-0.2,5.3c0.4,0.2,0.8,0.1,1-0.3c0.5-0.7,0.2-1.3,0-2.1c-0.2-0.9-0.2-1.8,0-2.7
	c0-0.2-0.1-0.5-0.4-0.5C166,104.9,165.8,105,165.8,105.2L165.8,105.2z"/>
<path class="st11" d="M165.2,110.3c4.6-2.3,9.1-4.9,13.8-7c4.5-2,10.2-2.9,14.2-5.8c0.4-0.3,0.5-0.8,0.3-1.2
	c-0.2-0.2-0.4-0.4-0.7-0.4c-4.8-0.3-10.1,2.6-14.4,4.6c-5,2.2-9.7,5.1-14,8.6C163.8,109.7,164.6,110.6,165.2,110.3L165.2,110.3z"/>
<path class="st11" d="M190.4,97.5c-1.6,1.2-3.1,2.6-4.4,4.1c-1.1,1.3,1.1,2.6,1.7,1.3c0.8-1.8,1.9-3.4,3.2-4.9
	C191.4,97.6,190.8,97.2,190.4,97.5L190.4,97.5z"/>
<path class="st11" d="M184,105.6c3.9-0.9,7.7-2.7,11.5-4s7.9-2.2,11.7-3.6c0.7-0.2,1.1-0.9,0.9-1.7c-0.2-0.7-0.9-1.1-1.7-0.9l0,0
	c-7.4,1.3-16.9,4.6-22.9,9.2c-0.3,0.2-0.3,0.5-0.2,0.8C183.5,105.5,183.8,105.6,184,105.6L184,105.6z"/>
<path class="st11" d="M99.2,123.4c10.5,1.4,22-0.2,32.6-0.6c11.4-0.4,23-0.2,34.2-1.6c2.2-0.3,2.3-3.5,0-3.5
	c-11.4,0.2-22.8,1.7-34.2,2.3c-10.7,0.5-22.1-0.4-32.6,1.5C98.3,121.7,98.2,123.3,99.2,123.4z"/>
<path class="st11" d="M103.5,126.3c9.1,0.5,18.5-1,27.6-1.4s18.6,0.3,27.7-0.8c0.9,0,1.7-0.7,1.7-1.7c0-0.9-0.7-1.7-1.7-1.7
	c-9.2-1.2-19.4-0.1-28.7,0.4c-8.8,0.4-18.5,0.3-27,2.5c-0.7,0.2-1.2,1-0.9,1.7C102.3,125.9,102.9,126.3,103.5,126.3L103.5,126.3z"/>
<path class="st11" d="M106.9,127.9c2.3,2.2,5,1.2,8,1c4.9-0.4,9.7-0.7,14.6-1c4.6-0.2,9.1-0.4,13.7-0.6c4.3-0.1,9,0.4,13.1-0.9
	c0.7-0.2,1.1-1,0.9-1.7c-0.1-0.4-0.5-0.8-0.9-0.9c-4.4-1.3-9.5-0.5-14.1-0.3s-9.1,0.4-13.7,0.7s-9.1,0.6-13.7,1.1
	c-3.1,0.3-6.1-0.3-8,2.4C106.8,127.6,106.8,127.8,106.9,127.9L106.9,127.9z"/>
<path class="st12" d="M69.7,38.8c0.2,0.3,0.4,0.7,0.6,1c0.2,0.4,0.3,0.8,0.3,1.2c0,0.3-0.1,0.6,0.2,0.9c0.2,0.2,0.4,0.2,0.6,0.1
	c0.6-0.3,0.4-1.4,0.2-1.9s-0.6-1.5-1.3-1.7C69.9,38.3,69.6,38.6,69.7,38.8L69.7,38.8z"/>
<path class="st12" d="M70.5,38.4c0.1,0.7,1,1,1.6,1.3s1.4,0.9,1.9,0.5c0.1-0.1,0.2-0.2,0.2-0.4c-0.2-0.6-1.1-0.7-1.6-1
	s-1.2-0.8-1.8-0.8C70.6,38.1,70.5,38.2,70.5,38.4C70.5,38.4,70.5,38.4,70.5,38.4L70.5,38.4z"/>
<path class="st12" d="M70.7,38.2c0.5,0.6,1,1,1.7,1.4c0.7,0.5,1.5,1,2.3,1.4c0.4,0.2,1-0.3,0.5-0.7c-0.7-0.5-1.4-1-2.2-1.4
	c-0.6-0.4-1.4-0.8-2.1-0.9C70.8,37.9,70.7,38,70.7,38.2C70.7,38.1,70.7,38.2,70.7,38.2L70.7,38.2z"/>
<path class="st12" d="M74.7,40.4c-0.3,0.3-0.4,0.7-0.4,1.1c-0.1,0.5-0.2,0.9-0.3,1.4s0.7,0.7,0.8,0.2s0.2-1,0.2-1.5
	c0.2-0.4,0.2-0.8,0-1.1C75,40.3,74.9,40.3,74.7,40.4C74.8,40.4,74.8,40.4,74.7,40.4L74.7,40.4z"/>
<path class="st12" d="M74.1,42.7c-1.3-0.1-2.7-0.1-4,0.2c-1.4,0-2.7,0.2-4.1,0.4c-0.2,0-0.3,0.2-0.2,0.4c0,0.1,0.1,0.2,0.2,0.2
	c1.5,0.2,2.9,0.2,4.4,0c1.3,0,2.6-0.3,3.7-0.9c0.1,0,0.2-0.2,0.1-0.3C74.2,42.7,74.2,42.7,74.1,42.7L74.1,42.7z"/>
<path class="st12" d="M62.5,42c0,0.2,0.2,0.3,0.3,0.1S62.5,41.8,62.5,42z"/>
<path class="st12" d="M62.7,41.9c-0.2-0.1-0.3,0-0.5,0.1c-0.1,0.1-0.1,0.3,0,0.4c1.3,1.5,3.4,2.2,5.4,1.9c0.3,0,0.5-0.3,0.4-0.6
	c0-0.3-0.3-0.5-0.6-0.4c-0.9,0.1-1.7,0-2.6-0.1c-0.8-0.2-1.6-0.6-2.3-1.1l0.1,0.4c0.1-0.1,0.1-0.2,0.1-0.3
	C62.7,42,62.7,41.9,62.7,41.9C62.7,41.9,62.7,41.9,62.7,41.9L62.7,41.9z"/>
<path class="st12" d="M63.5,42.6c0.3,0.1,0.6,0.3,0.9,0.2c0.1,0,0.2-0.2,0.1-0.3c-0.3-0.2-0.6-0.2-1-0.2
	C63.5,42.4,63.4,42.5,63.5,42.6C63.5,42.6,63.5,42.6,63.5,42.6z"/>
<path class="st12" d="M63.1,42.8c0.3,0.2,0.7,0.2,1,0.1c0.1-0.1,0.2-0.3,0.1-0.4c0,0,0,0,0-0.1c-0.3-0.2-0.7-0.3-1-0.1
	c-0.2,0-0.2,0.2-0.2,0.4C63,42.7,63.1,42.7,63.1,42.8L63.1,42.8z"/>
<path class="st12" d="M68.2,43.2c0.2-0.1,0.4-0.3,0.5-0.5c0.2-0.2,0.2-0.4,0-0.6c0,0,0,0,0,0c0,0,0-0.1-0.1-0.1
	c-0.2-0.1-0.4-0.1-0.5,0.1c0,0,0,0,0,0c-0.2,0.2-0.3,0.5-0.3,0.8c0,0.1,0.1,0.3,0.3,0.3C68.2,43.2,68.2,43.2,68.2,43.2L68.2,43.2z"
	/>
<path class="st12" d="M68.3,42.5c0.5,0.4,1.1,0.4,1.7,0.2c0.6-0.2,1.2-0.7,1.4-1.3c0.1-0.3-0.1-0.6-0.4-0.7c-0.2-0.1-0.4,0-0.6,0.2
	c-0.3,0.3-0.6,0.6-0.9,0.8c-0.4,0.2-0.8,0.2-1.1,0.3C68.3,42.1,68.2,42.3,68.3,42.5C68.3,42.5,68.3,42.5,68.3,42.5z"/>
<path class="st12" d="M68.8,43.5c1.2,0.5,2.6,0.2,3.5-0.7c0.9-0.8,1-2.2,0.2-3.2c-0.6-0.7-1.7,0.2-1.2,0.9c1,1.5-1.5,1.9-2.5,2.2
	c-0.2,0.1-0.3,0.3-0.3,0.5C68.6,43.3,68.7,43.4,68.8,43.5z"/>
<path class="st12" d="M71.8,40.1c0.2,0.5,0.7,0.8,0.9,1.4s-0.2,1.2,0.3,1.7c0.1,0.1,0.4,0.2,0.6,0.2h0.1c0.2-0.1,0.4-0.3,0.5-0.5
	c0.2-0.8,0-1.6-0.4-2.2c-0.4-0.5-1.1-1.2-1.8-0.8C71.8,39.8,71.7,40,71.8,40.1L71.8,40.1z"/>
<path class="st12" d="M73.5,43c1-0.1,1.7-1,1.6-2c0-0.1,0-0.2-0.1-0.3c-0.2-0.4-0.7-0.6-1.1-0.5c-0.4,0.1-0.6,0.5-0.5,0.9
	c0.1,0.2,0.1,0.5,0.1,0.7c-0.1,0.3-0.1,0.5-0.3,0.7c-0.1,0.1,0,0.3,0.1,0.4C73.4,43,73.5,43,73.5,43z"/>
<path class="st12" d="M73.5,41.2c0,0.1,0,0.3,0,0.4c0,0.1,0.2,0.2,0.3,0.2c0.1,0,0.1-0.1,0.2-0.2c0-0.1,0-0.3,0-0.4
	c0-0.1-0.1-0.3-0.3-0.3C73.5,41,73.4,41.1,73.5,41.2L73.5,41.2z"/>
<path class="st13" d="M62.7,38.5c-0.7,0.7-0.7,1.9,0,2.7c0.1,0.1,0.1,0.1,0.2,0.2c1.3,1.1,3.2,0.5,4.7,0.4c1-0.1,2.5,0.1,2.6-1.3
	c0-1-0.8-1.9-1.8-1.9c-0.2,0-0.3,0-0.4,0c-0.2,0.1-0.3,0.3-0.2,0.5c0,0.1,0,0.1,0.1,0.1c0.3,0.2,0.6,0.4,0.9,0.6
	c0.5,0.9-1,0.8-1.3,0.8c-0.6,0.1-1.3,0.3-1.9,0.4c-1,0.1-4-0.3-2.4-2.1C63.3,38.7,62.9,38.2,62.7,38.5z"/>
<path class="st13" d="M62.5,39.2c1.1,0.1,2.1,0.2,3.2,0.2c1.1,0.1,2.2,0.1,3.2-0.1c0.2-0.1,0.4-0.3,0.3-0.6c0-0.2-0.2-0.3-0.3-0.3
	c-1.1-0.1-2.2-0.1-3.2,0c-1.1,0-2.1,0.1-3.2,0.2c-0.2,0.1-0.2,0.2-0.2,0.4C62.3,39.1,62.4,39.2,62.5,39.2L62.5,39.2z"/>
<path class="st13" d="M62.5,40.1c1.8,0.3,3.7,0.4,5.5,0.2c1,0,1-1.6,0-1.5c-1.9,0-3.7,0.2-5.5,0.7c-0.2,0.1-0.3,0.2-0.2,0.4
	C62.4,40,62.4,40.1,62.5,40.1z"/>
<path class="st13" d="M63,41.2c1.6,0.8,3.8,0.6,5.4,0.1c1.1-0.3,0.6-1.8-0.4-1.6c-0.9,0.1-1.8,0.3-2.7,0.4c-0.8,0.1-1.5,0.2-2.2,0.5
	c-0.2,0.1-0.3,0.3-0.2,0.4C62.9,41.1,63,41.1,63,41.2L63,41.2z"/>
<path class="st13" d="M64.3,42.5c0.3,0.6,1.4,0.3,1.9,0.3c0.7-0.1,1.7-0.2,2.1-0.8c0.1-0.2,0-0.5-0.2-0.6c0,0-0.1,0-0.1,0
	c-0.4-0.1-0.8-0.1-1.2,0.1l-1.3,0.3C65.3,41.8,64,42,64.3,42.5z"/>
<path class="st13" d="M62.6,40.4c0.1,0.5,0.6,0.9,1.1,1c0.7,0.1,0.9-0.9,0.3-1C63.6,40.3,63.1,40.3,62.6,40.4
	C62.7,40.3,62.6,40.3,62.6,40.4C62.6,40.4,62.6,40.4,62.6,40.4L62.6,40.4z"/>
<path class="st13" d="M63.8,40.3c0.9,0.3,1.9,0.2,2.7-0.3c0.2-0.2,0.2-0.6,0-0.8c-0.1-0.1-0.2-0.1-0.3-0.2c-0.9,0-1.8,0.3-2.5,0.8
	C63.6,40,63.6,40.3,63.8,40.3L63.8,40.3z"/>
<path class="st13" d="M65.1,40.4c0.3,0,0.6-0.2,0.8-0.4c0.1-0.1,0.1-0.4,0-0.5c0,0-0.1-0.1-0.2-0.1c-0.3-0.1-0.6,0-0.8,0.1
	C64.3,39.6,64.6,40.5,65.1,40.4L65.1,40.4z"/>
<path class="st14" d="M63.3,38.2c0.7-0.2,1.5-0.4,2.2-0.5c0.8,0.1,1.5,0.2,2.2,0.5c0.5,0.2,0.7-0.5,0.3-0.8c-1.2-0.9-4-0.8-5,0.4
	c-0.1,0.1-0.1,0.3,0,0.3C63.2,38.2,63.3,38.2,63.3,38.2L63.3,38.2z"/>
<path class="st14" d="M64.9,38.2c0.5,0.1,1,0.2,1.6,0.2c0.5,0.1,1,0,1.5-0.2c0.2-0.1,0.2-0.3,0.1-0.5c0,0-0.1-0.1-0.1-0.1
	c-0.4-0.2-1-0.3-1.4-0.2c-0.5,0-1.1,0.1-1.6,0.2c-0.2,0-0.2,0.2-0.2,0.4C64.8,38.1,64.9,38.2,64.9,38.2L64.9,38.2z"/>
<path class="st15" d="M64.6,35.3c1.1-0.7,1.2-2,0.9-3.2s-1-2.2-1.4-3.4c-0.6-1.8-0.5-3.8,0.4-5.4c0.1-0.2,0-0.4-0.2-0.5
	c-0.1-0.1-0.3,0-0.4,0.1c-1.4,1.2-2.1,3.1-1.8,4.9C62.5,30.1,65.4,32.9,64.6,35.3C64.6,35.3,64.6,35.3,64.6,35.3z"/>
<path class="st15" d="M69.1,34.6c-0.6-3.3-3.4-6.8-1.7-10.2c0.1-0.2-0.2-0.5-0.4-0.3c-2.7,3.5,0.1,7.4,1.7,10.7
	C68.8,35,69.1,34.9,69.1,34.6z"/>
<path class="st15" d="M70.4,35.2c1-1.4,0-3,0-4.5c0-2.9,3.2-2.8,4.9-4.2c0.1-0.1,0.1-0.3,0-0.4c-0.1-0.1-0.2-0.1-0.3-0.1
	c-1.7,0.6-4.4,1.1-5.3,3s0.3,4,0,5.9C69.7,35.3,70.2,35.4,70.4,35.2L70.4,35.2z"/>
<path class="st16" d="M78.6,90.1c0,0-2.9,1.1-2.3,13.1s1.3,11.8,2.7,12.8s1.3,2.6,14.2,2.8s45,0.3,45,0.3c1-0.2,1.9-0.8,2.4-1.6
	c1-1.5,1-5.2,1-5.2l-1.2-10.6l-2.6-7.6c0,0-1.6-4.7-3.9-5.6c-3.6-1.2-7.4-1.6-11.2-1.3c-4.4,0.3-16.1,0.7-16.1,0.7l-12.9-0.2
	l-10.7,0.2L78.6,90.1z"/>
<polygon class="st17" points="83,93.2 81.4,96.2 81.4,105 81.9,108.9 84.6,112.2 92.8,114 107.7,115.2 118,114.7 127.8,114.2 
	133.3,113 135,110.3 135.5,105.6 134.5,102.3 133.8,98.2 131.7,94.9 128.6,92.2 122.3,91.1 109.9,91.1 98.5,91.3 88.4,92 84.3,91.8 
	"/>
<polygon class="st18" points="89.8,94.4 85.8,96.1 83.7,99.2 83.8,103.1 85.5,105.6 89,107.3 93.2,107.1 96,104.8 97,101.1 
	95.7,97.2 92.8,95.1 "/>
<polygon class="st18" points="121.2,95.2 117.4,97 115.7,100.8 116,104.1 118.6,107.3 121.6,109.2 125.4,108.9 128.2,107.3 
	129.8,105 129.8,101.7 129,98.6 126.8,96.8 122.8,95.2 "/>
<path class="st19" d="M71.6,13.6c0.1,0,0.1-0.1,0-0.1C71.6,13.5,71.6,13.5,71.6,13.6C71.6,13.6,71.6,13.6,71.6,13.6z"/>
<path class="st19" d="M70.9,13.7C75.7,9.8,83.4,0.8,90,3c5,1.6,9.5,4.6,13,8.6c0,0,0.1,0,0.1-0.1C100,7.2,92.8,2.1,87.3,1.8
	c-2.4-0.1-3.9,1.1-5.7,2.5c-3.7,2.9-7.3,6.1-10.8,9.2C70.6,13.6,70.8,13.8,70.9,13.7z"/>
<path class="st19" d="M70.9,14L70.9,14L70.9,14z"/>
<path class="st19" d="M70.9,14c10.8-1.2,21.6-1.7,32.4-1.7c0.1,0,0.2-0.1,0.2-0.2c0-0.1-0.1-0.2-0.2-0.2
	C92.4,11.7,81.6,12.4,70.9,14C70.8,13.9,70.8,14.1,70.9,14L70.9,14z"/>
<path class="st19" d="M71.1,14.1c1,0.9,2.2,0.7,3.6,0.7c2.4,0,4.8,0,7.2,0c0,0,0.1,0,0.1-0.1s0-0.1-0.1-0.1c-1.7,0-3.4,0-5.1,0
	s-4.2,0.5-5.5-0.6C71.2,13.9,71,14,71.1,14.1L71.1,14.1z"/>
<path class="st19" d="M92.7,14.1c3.7,0.3,7.4-0.2,10.8-1.7c0.2-0.1,0.1-0.3-0.1-0.2C100,13.4,96.4,14,92.7,14.1L92.7,14.1L92.7,14.1
	z"/>
<path class="st19" d="M82.2,12.9c-0.1,0.2-0.2,0.5-0.3,0.8c-0.2,0.4-0.4,0.8-0.7,1.2c-0.1,0.1,0.1,0.3,0.2,0.2
	C81.7,14.5,82.5,13.5,82.2,12.9L82.2,12.9z"/>
<path class="st19" d="M81.2,14.9c0.3,0.6,0.8,1.2,1.1,1.9s0.6,1.3,0.9,2c0.1,0.1,0.2,0,0.2-0.1C83,17.2,82.3,15.9,81.2,14.9
	C81.3,14.7,81.2,14.8,81.2,14.9L81.2,14.9z"/>
<path class="st19" d="M83.4,18.8c1.8,0.9,3.9,0.8,5.6-0.2c0.1,0,0.1-0.1,0-0.2c0,0-0.1-0.1-0.1-0.1c-0.9,0.3-1.8,0.5-2.7,0.6
	c-0.9,0-1.9-0.1-2.8-0.4C83.4,18.7,83.3,18.8,83.4,18.8L83.4,18.8z"/>
<path class="st19" d="M89.9,17.7c0.7-1.2,0.7-2.6,0.1-3.8c-0.1-0.1-0.2,0-0.2,0.1c0,0.6,0.2,1.1,0.2,1.7c-0.1,0.6-0.2,1.3-0.3,1.9
	c0,0.1,0,0.1,0.1,0.2C89.8,17.8,89.9,17.7,89.9,17.7L89.9,17.7z"/>
<path class="st19" d="M82.7,17.2c0.7,0.1,1.3,0.1,2,0c0.2,0,0.2-0.3,0-0.3C84,16.8,83.3,16.9,82.7,17.2
	C82.7,17.1,82.7,17.2,82.7,17.2L82.7,17.2z"/>
<path class="st19" d="M82.6,12.9c0.2,0.4,0.5,0.9,0.8,1.2c0.1,0.1,0.2,0,0.1-0.1C83.3,13.6,83,13.2,82.6,12.9L82.6,12.9z"/>
<path class="st19" d="M83.4,13c0.2,0.4,0.5,0.7,0.8,1c0.1,0.1,0.2,0,0.2-0.1c-0.3-0.3-0.5-0.6-0.8-0.9C83.5,12.9,83.3,12.9,83.4,13
	L83.4,13z"/>
<path class="st19" d="M84.4,13c0.2,0.3,0.4,0.6,0.6,0.9c0,0,0,0.1,0.1,0.1c0,0,0.1,0,0.1-0.1c0-0.4-0.3-0.8-0.6-1
	C84.5,12.9,84.4,12.9,84.4,13C84.4,12.9,84.3,13,84.4,13L84.4,13L84.4,13z"/>
<path class="st19" d="M85.1,12.7c0.2,0.4,0.5,0.8,0.8,1.2c0,0,0.1,0,0.1-0.1c-0.2-0.4-0.4-0.9-0.8-1.2
	C85.2,12.6,85.2,12.6,85.1,12.7C85.1,12.7,85.1,12.7,85.1,12.7z"/>
<path class="st19" d="M85.9,12.7c0,0.4,0.3,0.8,0.6,1.1c0.1,0.1,0.2,0,0.1-0.1c-0.3-0.3-0.5-0.6-0.6-1
	C86.1,12.5,85.9,12.6,85.9,12.7L85.9,12.7z"/>
<path class="st19" d="M79.8,13.2c0.2,0.5,0.4,0.9,0.6,1.3c0,0,0.1,0,0.1,0c0,0,0,0,0-0.1C80.3,14,80.1,13.5,79.8,13.2
	C79.8,13.1,79.7,13.1,79.8,13.2L79.8,13.2z"/>
<path class="st19" d="M78.6,13.2c0.1,0.5,0.3,1,0.7,1.3c0,0,0.1,0,0.1-0.1c-0.3-0.4-0.5-0.8-0.7-1.3C78.7,13.1,78.6,13.1,78.6,13.2
	L78.6,13.2z"/>
<path class="st19" d="M77.8,13.4c0.2,0.4,0.5,0.7,0.8,1c0.1,0.1,0.2,0,0.1-0.1c-0.2-0.4-0.5-0.7-0.7-1
	C77.8,13.2,77.7,13.3,77.8,13.4L77.8,13.4z"/>
<path class="st19" d="M76.8,13.7c0.3,0.2,0.5,0.6,0.6,0.9c0,0,0,0,0.1,0c0,0,0,0,0,0c0-0.4-0.2-0.8-0.6-1
	C76.9,13.5,76.8,13.6,76.8,13.7L76.8,13.7z"/>
<path class="st19" d="M76.3,14l0.2,0.2l0,0L76.3,14L76.3,14L76.3,14z"/>
<path class="st19" d="M74.9,13.8c0.2,0.3,0.4,0.6,0.7,0.9c0.1,0,0.1,0,0.1-0.1C75.5,14.3,75.3,14,74.9,13.8
	C75,13.7,74.9,13.8,74.9,13.8z"/>
<path class="st19" d="M74.2,14c0.1,0.2,0.3,0.4,0.5,0.6c0,0,0.1,0,0.1-0.1c-0.1-0.2-0.3-0.5-0.4-0.7C74.2,13.8,74.1,13.9,74.2,14z"
	/>
<path class="st19" d="M73.5,14.1c0.1,0.1,0.3,0.3,0.5,0.4 M74,14.4c-0.1-0.1-0.3-0.3-0.5-0.4c0,0-0.1,0,0,0.1L74,14.4z"/>
<path class="st19" d="M72.9,14.1c0.1,0.2,0.2,0.3,0.4,0.5s0.2,0,0.1-0.1S73.1,14.2,73,14c0,0-0.1,0-0.1,0
	C72.8,14.1,72.8,14.1,72.9,14.1z"/>
<path class="st19" d="M72.4,14.4L72.4,14.4L72.4,14.4z"/>
<path class="st19" d="M71.7,14.1c0.3,0.2,0.5,0.4,0.8,0.6c0.1,0,0.2-0.1,0.1-0.1C72.3,14.4,72,14.2,71.7,14.1
	C71.7,14.1,71.6,14.1,71.7,14.1z"/>
<path class="st19" d="M93.1,12.5c0.2,0.6,0.6,1.1,1.1,1.5c0.1,0,0.1-0.1,0.1-0.1C93.9,13.5,93.6,13,93.1,12.5
	C93.2,12.5,93.1,12.5,93.1,12.5L93.1,12.5z"/>
<path class="st19" d="M93.8,12.4c0.5,0.4,0.9,0.9,1.3,1.4c0.1,0.1,0.2,0,0.1-0.1c-0.3-0.6-0.8-1.1-1.3-1.4
	C93.8,12.2,93.7,12.3,93.8,12.4z"/>
<path class="st19" d="M94.9,12.5c0.4,0.6,0.9,1.1,1.4,1.5c0.1,0,0.1,0,0.1-0.1c-0.4-0.6-0.9-1.1-1.4-1.6c0,0-0.1,0-0.1,0
	C94.9,12.4,94.8,12.4,94.9,12.5L94.9,12.5z"/>
<path class="st19" d="M95.9,12.6c0.4,0.3,0.8,0.6,1.3,0.9c0,0,0.1,0,0.1,0c0,0,0-0.1,0-0.1c-0.4-0.4-0.8-0.7-1.3-1
	C95.9,12.3,95.8,12.5,95.9,12.6L95.9,12.6z"/>
<path class="st19" d="M96.7,12.5c0.4,0.4,0.7,0.8,1.1,1.1c0.1,0.1,0.2,0,0.1-0.1c-0.3-0.4-0.7-0.7-1.1-1.1
	C96.8,12.3,96.8,12.4,96.7,12.5C96.7,12.4,96.7,12.5,96.7,12.5z"/>
<path class="st19" d="M98,12.8c0.3,0.3,0.6,0.5,1,0.7c0,0,0.1,0,0.1-0.1c0,0,0,0,0-0.1c-0.3-0.3-0.6-0.5-0.9-0.8
	C98.1,12.5,97.9,12.7,98,12.8L98,12.8z"/>
<path class="st19" d="M98.6,12.6c0.2,0.3,0.5,0.5,0.8,0.8c0.1,0,0.1-0.1,0.1-0.1c-0.3-0.3-0.5-0.5-0.9-0.8
	C98.6,12.4,98.6,12.5,98.6,12.6z"/>
<path class="st19" d="M99.6,12.7c0.2,0.2,0.5,0.4,0.8,0.5c0,0,0.1,0,0.1,0c0,0,0-0.1,0-0.1c-0.2-0.2-0.5-0.4-0.7-0.6
	C99.6,12.4,99.5,12.6,99.6,12.7z"/>
<path class="st19" d="M101,12.8L101,12.8L101,12.8z"/>
<path class="st19" d="M101.4,12.8c0.1,0.1,0.1,0.1,0.2,0.2c0.1,0.1,0.1,0,0.1-0.1s-0.1-0.1-0.2-0.2S101.3,12.8,101.4,12.8z"/>
<path class="st19" d="M74,11.9c1.8-1.3,3.6-2.8,5.3-4.2c0,0,0-0.1,0,0C77.5,9,75.7,10.4,74,11.9C74,11.9,74,12,74,11.9L74,11.9z"/>
<path class="st19" d="M80.5,6.3c0.3-0.4,0.6-0.7,1-0.9c0,0,0-0.1,0,0C81.1,5.6,80.8,5.9,80.5,6.3L80.5,6.3L80.5,6.3z"/>
<path class="st19" d="M80.1,6.8c0.7-0.5,1.4-1.2,2.1-1.8c0.7-0.7,1.5-1.4,2.2-2.1l0,0c-0.7,0.5-1.4,1.2-2.1,1.8
	C81.4,5.3,80.7,6,80.1,6.8C80,6.8,80,6.9,80.1,6.8L80.1,6.8z"/>
<path class="st19" d="M86.3,4c-0.4,1.6-0.5,3.3-0.4,5c0,0.1,0.1,0.1,0.1,0C86.1,7.3,86.1,5.7,86.3,4C86.3,4,86.3,3.9,86.3,4z"/>
<path class="st19" d="M84.9,3.7c-1.5,2.1-2.8,4.4-4.2,6.7c0,0,0,0.1,0,0.1s0.1,0,0.1,0C82.3,8.2,83.8,6,85,3.7L84.9,3.7z"/>
<path class="st19" d="M88.2,4.1c0.7,2,1.5,3.9,2.4,5.8c0,0,0.1,0.1,0.1,0c0,0,0,0,0,0C90,7.9,89.2,6,88.2,4.1
	C88.3,4.1,88.2,4.1,88.2,4.1L88.2,4.1z"/>
<path class="st19" d="M89.8,3.9c1.8,1.7,3.9,3,6.2,4c0,0,0.1,0,0,0C93.9,6.7,91.8,5.3,89.8,3.9C89.8,3.8,89.7,3.9,89.8,3.9L89.8,3.9
	z"/>
<path class="st19" d="M87,5.2c0.1,1.3,0.3,2.5,0.6,3.7c0,0.1,0.1,0.1,0.1,0c-0.1-1.3-0.3-2.5-0.6-3.7C87.1,5.1,87.1,5.1,87,5.2
	C87,5.1,87,5.1,87,5.2L87,5.2z"/>
<path class="st19" d="M81.9,6c-1.3,1.4-2.5,2.9-3.7,4.4c0,0.1,0.1,0.2,0.1,0.1c1.3-1.4,2.5-2.9,3.7-4.5C82,6.1,82,6,81.9,6L81.9,6z"
	/>
<path class="st19" d="M84.6,7.1C84.3,8,84,9,83.9,9.9c0,0,0.1,0.1,0.1,0C84.2,9,84.4,8,84.6,7.1C84.6,7.1,84.6,7,84.6,7.1z"/>
<path class="st19" d="M90.3,6.5c1.1,1.2,2.2,2.4,3.4,3.5c0.1,0.1,0.2,0,0.1-0.1c-1.1-1.2-2.2-2.4-3.4-3.5
	C90.4,6.4,90.4,6.4,90.3,6.5C90.3,6.5,90.3,6.5,90.3,6.5z"/>
<path class="st19" d="M87.8,2.7C87.9,2.8,88,3,88,3.2c0,0,0.1,0,0.1,0c0,0,0,0,0,0c0.1-0.2,0-0.5-0.2-0.6
	C87.9,2.6,87.8,2.6,87.8,2.7L87.8,2.7z"/>
<path class="st19" d="M86.6,2.7c0,0.4,0.1,0.9,0.2,1.3c0,0.1,0.1,0,0.1,0C86.9,3.6,86.8,3.2,86.6,2.7C86.7,2.7,86.6,2.8,86.6,2.7
	L86.6,2.7z"/>
<path class="st19" d="M85.6,2.7c-0.1,0.2-0.2,0.4-0.3,0.6c0,0.1,0.1,0.1,0.1,0C85.5,3.1,85.6,2.9,85.6,2.7
	C85.7,2.7,85.7,2.6,85.6,2.7L85.6,2.7z"/>
<path class="st19" d="M95.9,6.5c1.6,1.4,3.4,2.4,5.4,3.1c0.1,0,0.2-0.2,0.1-0.2c-1.9-0.7-3.7-1.8-5.3-3.1C96,6.2,95.8,6.4,95.9,6.5z
	"/>
<path class="st19" d="M94.8,8.4c1,1.2,2.3,2.1,3.7,2.6c0,0,0.1-0.1,0-0.1c0,0,0,0,0,0c-0.6-0.4-1.3-0.6-1.9-1S95.5,8.9,94.8,8.4
	L94.8,8.4z"/>
<path class="st19" d="M97,8.7c0.9,0.7,1.9,1.4,2.9,2.1c0.1,0.1,0.2-0.1,0.1-0.1c-1-0.7-2-1.4-3-2C96.9,8.5,96.9,8.6,97,8.7L97,8.7z"
	/>
<path class="st19" d="M87.7,10c0,0.4,0.1,0.7,0.3,1c0,0,0.1,0,0.1,0c0,0,0-0.1,0-0.1c-0.2-0.3-0.3-0.6-0.3-1c0,0,0-0.1-0.1-0.1
	C87.7,9.9,87.7,9.9,87.7,10L87.7,10z"/>
<path class="st19" d="M85.5,10.4c0,0.3-0.1,0.6-0.1,0.9c0,0,0,0,0.1,0c0,0,0,0,0,0c0.1-0.3,0.1-0.7,0.1-1
	C85.6,10.3,85.5,10.3,85.5,10.4L85.5,10.4z"/>
<path class="st19" d="M84.8,8.2c-0.3,1-0.5,2-0.6,3c0,0,0,0.1,0.1,0.1c0,0,0.1,0,0.1-0.1C84.6,10.2,84.8,9.2,84.8,8.2
	C84.9,8.1,84.8,8.1,84.8,8.2z"/>
<path class="st19" d="M83.2,7.6c-0.8,1.3-1.7,2.6-2.4,3.9c0,0.1,0.1,0.2,0.1,0.1C81.8,10.3,82.5,8.9,83.2,7.6L83.2,7.6z"/>
<path class="st19" d="M81.4,7.6c-1,1.1-1.9,2.3-2.7,3.6c0,0,0,0.1,0.1,0.1C79.8,10.1,80.6,8.9,81.4,7.6C81.5,7.6,81.5,7.6,81.4,7.6z
	"/>
<path class="st19" d="M78.2,9.5c-1,0.8-1.9,1.6-2.8,2.5c0,0,0,0.1,0.1,0.1C76.4,11.3,77.4,10.4,78.2,9.5C78.2,9.5,78.2,9.5,78.2,9.5
	L78.2,9.5z"/>
<path class="st19" d="M83.2,3.9c1.5,0.4,3,0.6,4.6,0.6c0.1,0,0.1-0.1,0-0.1C86.3,4.2,84.8,4.1,83.2,3.9C83.2,3.8,83.2,3.9,83.2,3.9
	L83.2,3.9z"/>
<path class="st19" d="M82.3,5c2.4,0.6,4.9,0.7,7.3,0.2c0.1,0,0-0.1,0-0.1C87.2,5.4,84.7,5.4,82.3,5C82.3,4.9,82.3,5,82.3,5L82.3,5z"
	/>
<path class="st19" d="M81.1,6.7c4,1.1,8.6,1.9,12.4-0.2c0.1,0,0-0.2-0.1-0.1C89.2,8.1,85.4,7.3,81.1,6.7C81.1,6.6,81,6.7,81.1,6.7
	L81.1,6.7z"/>
<path class="st19" d="M78.4,8.8C84.3,10.9,90.6,11,96.5,9c0,0,0.1,0,0.1-0.1s0-0.1-0.1-0.1c-5.9,1.8-12.2,1.7-18-0.3
	C78.4,8.5,78.3,8.8,78.4,8.8L78.4,8.8z"/>
<path class="st19" d="M76.2,9.9c1,0.9,2.4,1.2,3.7,0.9c0,0,0.1,0,0.1-0.1c0,0,0-0.1-0.1-0.1c-1.2,0.3-2.5,0-3.5-0.8
	C76.4,9.8,76.2,9.9,76.2,9.9L76.2,9.9z"/>
<path class="st19" d="M89.2,9.1c2.6,0,5.2-0.8,7.4-2.1c0,0,0-0.1,0-0.1c0,0-0.1,0-0.1,0l0,0c-2.3,1.2-4.8,1.9-7.4,2.1
	C89.1,9,89.1,9,89.2,9.1C89.1,9.1,89.1,9.1,89.2,9.1L89.2,9.1z"/>
<path class="st19" d="M94,11.1c2.2,0,4.3-0.6,6.2-1.8c0,0,0-0.1,0-0.1c0,0-0.1,0-0.1,0C98.2,10.2,96.1,10.8,94,11.1
	C93.9,11,93.9,11.1,94,11.1L94,11.1z"/>
<path class="st19" d="M86.4,6.8c2.4,0.4,4.9,0,7.2-1.1c0.1,0,0-0.2-0.1-0.2c-2.2,0.8-4.6,1.2-7,1.1C86.4,6.6,86.3,6.8,86.4,6.8
	L86.4,6.8z"/>
<path class="st19" d="M84.8,23.9c1.4-1.5,5.6-8.8,8.4-6.2c0.2,0.1,0.4-0.1,0.2-0.2c-1.2-1.1-2.6-0.7-3.8,0.3
	C87.6,19.5,85.9,21.5,84.8,23.9C84.7,23.9,84.7,23.9,84.8,23.9C84.8,23.9,84.8,23.9,84.8,23.9L84.8,23.9z"/>
<path class="st19" d="M93.3,17.7c-0.6-0.1-1.3,0.1-1.8,0.4c-0.2,0.1,0,0.4,0.2,0.3c0.5-0.3,1-0.5,1.6-0.5
	C93.4,17.9,93.4,17.8,93.3,17.7C93.3,17.7,93.3,17.7,93.3,17.7z"/>
<path class="st19" d="M92.9,17.9c0.6,1.3-1.7,1.7-2.4,2.1c-0.7,0.4-1.3,0.8-1.8,1.3c-0.8,0.6-1.8,1.1-2.8,1.3
	c-0.5,0.1-1,0.4-1.4,0.9c-0.1,0.2,0.1,0.4,0.2,0.2c0.9-1.1,2.2-0.8,3.2-1.4c1.3-0.8,2.2-1.8,3.6-2.4c0.9-0.4,2.2-0.9,1.5-2.1
	c0-0.1-0.1-0.1-0.2,0C92.9,17.8,92.9,17.9,92.9,17.9z"/>
<path class="st19" d="M85.2,23.3c-3.6,5-5.9,10.7-7,16.8c0,0.2,0.3,0.3,0.3,0.1c1.3-5.9,3.6-11.6,6.9-16.7
	C85.5,23.3,85.3,23.1,85.2,23.3z"/>
<path class="st19" d="M93.2,12c-0.2,1.6-0.6,3.2-1.1,4.8c-0.1,0.2,0.2,0.3,0.3,0.1c0.6-1.5,1-3.2,1-4.8C93.5,11.9,93.3,11.9,93.2,12
	L93.2,12z"/>
<path class="st19" d="M93.4,18.8c4.3,6.1,6.9,13.2,7.6,20.6c0,0.2,0.2,0.2,0.2,0c0.2-7.7-2.5-15.1-7.6-20.8
	C93.5,18.4,93.2,18.6,93.4,18.8L93.4,18.8z"/>
<path class="st19" d="M101,36.9c0.4,8.8,0.8,17.4,0.7,26.2c0,0.3,0.5,0.3,0.5,0c0.6-8.8,0.3-17.6-1-26.2
	C101.2,36.8,101,36.8,101,36.9L101,36.9z"/>
<path class="st19" d="M74.7,40c2,0.5,4,0.8,6,0.8c2.2,0,6.7-1,8.2,1.2c0.2,0.3,0.7,0,0.5-0.3c-1-1.4-2.4-1.7-4-1.7
	c-3.6,0-7,0-10.6-0.2C74.6,39.8,74.6,40,74.7,40L74.7,40z"/>
<path class="st19" d="M80.8,38.7L80.8,38.7L80.8,38.7z"/>
<path class="st19" d="M75.4,39.8C73.7,49.6,71.6,60,76,69.4c0,0.1,0.1,0,0.1,0c-1.6-4.9-2.7-9.7-2.4-14.9c0.3-4.9,1.3-9.7,2-14.6
	C75.7,39.8,75.5,39.7,75.4,39.8L75.4,39.8z"/>
<path class="st19" d="M77.3,69c4.9-4.6,13.3-8,15.2-15.1c0,0-0.1-0.1-0.1,0c-3,7.2-10.2,9.5-15.2,15c0,0,0,0.1,0,0.1
	C77.2,69.1,77.3,69.1,77.3,69L77.3,69z"/>
<path class="st19" d="M91.3,38.7c0.5,6.5,0.9,12.8,0.8,19.2c0,0.1,0.2,0.1,0.2,0C92.8,51.5,92.5,45.1,91.3,38.7
	C91.4,38.7,91.3,38.7,91.3,38.7L91.3,38.7z"/>
<path class="st19" d="M75.9,40.3c-1.4-0.5-5.3-4.3-6.9-2.6c-0.3,0.3-0.1,0.4-0.1,0.8c0,0.2,0.1,0.1,0.1,0.2l0.2,0.1
	c0.5,0.3,0.5,0.8,0.2,1.6c0,1.7,0.1,1.6-1.4,1.5c-0.5-0.1-1.1-0.2-1.6-0.3c-0.1,0-0.1,0-0.1,0.1c0,0.1,0,0.1,0.1,0.1l0,0
	c1.2,0.5,4.8,0.9,4.5-1.4c-0.1-0.4-0.3-0.6-0.5-1c0-0.1-0.4-0.3-0.4-0.4c-0.2-0.2,0-0.3,0.5-0.5c0.3-0.6,0.6-0.7,1.1-0.3
	c1.6,0.3,2.6,2.1,4.3,2.4C75.9,40.4,75.9,40.4,75.9,40.3C76,40.3,75.9,40.3,75.9,40.3L75.9,40.3z"/>
<path class="st19" d="M62.9,38.3c2,0.1,4.1,0.1,6.1-0.1c0.1,0,0.1-0.2,0-0.2c-2-0.1-4.1-0.1-6.1,0.1C62.8,38.1,62.8,38.2,62.9,38.3
	C62.8,38.3,62.8,38.3,62.9,38.3L62.9,38.3z"/>
<path class="st19" d="M69,38c-1.1-2.1-5.6-1.9-6.5,0.2c0,0.1,0,0.1,0,0.2c0.1,0,0.1,0,0.2,0c1.5-1.8,4.3-2,6-0.4
	C68.8,38,68.9,38,69,38C68.9,38.1,69,38.1,69,38z"/>
<path class="st19" d="M62.3,38.2c-0.7,0.8-0.9,2-0.3,2.9c0.6,0.9,1.7,1.4,2.8,1.2c0.2,0,0.1-0.3-0.1-0.3c-1,0.2-2-0.2-2.5-1.1
	C61.8,40.1,61.9,39.1,62.3,38.2C62.4,38.3,62.4,38.2,62.3,38.2L62.3,38.2z"/>
<path class="st19" d="M64.1,42.2c-0.1,1.2,2.2,0.9,2.9,0.8s2-0.6,1.2-1.4c-0.1-0.1-0.2,0-0.2,0.1c0.7,0.9-0.8,1-1.1,1h-0.7
	C65.6,42.8,64.5,42.9,64.1,42.2L64.1,42.2L64.1,42.2z"/>
<path class="st19" d="M62.3,41.5c-1.4,5.4,11.1,2.2,13.2,1.7c0.2,0,0.1-0.4-0.1-0.3c-2.3,0.5-13.4,3.5-13-1.3L62.3,41.5z"/>
<path class="st19" d="M65.5,35.4c0.8-1.3,0.9-2.9,0.2-4.3c-0.6-1.2-1.4-2.3-2.2-3.3c-1.7-2.3-2-5.4-0.6-8c0-0.1,0-0.1-0.1-0.1
	c0,0-0.1,0-0.1,0c-1.3,1.8-1.6,4.1-0.9,6.1c1.2,3.3,5.3,5.6,3.6,9.5C65.3,35.5,65.4,35.5,65.5,35.4L65.5,35.4z"/>
<path class="st19" d="M66.8,35.2c0.7-1.4,0.9-3,0.3-4.5c-0.8-2.2-6-6.1-0.8-7.9c0.1,0,0.1-0.3-0.1-0.2c-1.6,0.3-2.6,1.8-2.4,3.4
	c0.2,0.9,0.6,1.7,1.2,2.3c1.7,2.2,2.7,4,1.5,6.8C66.6,35.2,66.8,35.3,66.8,35.2z"/>
<path class="st19" d="M68.2,35.1c0.8-1,1-2.3,0.7-3.5c-0.4-1.5-0.5-3.1,0.9-4.2c0.6-0.4,1.1-0.9,1.7-1.4c0,0,0-0.1-0.1-0.1
	c-1.1,0.8-2.7,1.5-3.2,2.9c-0.2,0.5-0.2,1.1,0,1.6c0.1,0.5,0.5,0.9,0.6,1.5c0.2,1.1-0.1,2.2-0.7,3.1C68,35.1,68.2,35.2,68.2,35.1
	L68.2,35.1z"/>
<path class="st19" d="M74.8,67.3c-0.3,2.4,0,4.7,0.6,7c0,0.1,0.1,0.1,0.2,0.1c0.1,0,0.1-0.1,0.1-0.1c-0.4-2.3-0.7-4.7-0.7-7
	C75,67.2,74.8,67.2,74.8,67.3L74.8,67.3z"/>
<path class="st19" d="M76.8,79.2c9.8-0.4,19.3-4.6,27-10.6c0.2-0.1-0.1-0.4-0.2-0.2c-8.1,6.2-16.8,9.2-26.8,10.6
	C76.7,79,76.7,79.2,76.8,79.2L76.8,79.2z"/>
<path class="st19" d="M104.2,68.1c0.5-2-0.3-4.1-2-5.2c-0.1-0.1-0.2-0.1-0.3,0c-0.1,0.1-0.1,0.2,0,0.3c0.7,0.6,1.2,1.3,1.6,2.1
	c0.3,0.9,0.4,1.8,0.4,2.7c0,0.1,0.1,0.2,0.2,0.2S104.2,68.1,104.2,68.1L104.2,68.1z"/>
<path class="st19" d="M102.3,63.2c-7.1,6.5-18.2,8.5-27.3,10.6c-0.1,0-0.2,0.2-0.1,0.3c0,0.1,0.2,0.2,0.3,0.2
	c9-2.1,20.6-4,27.3-10.9c0,0,0-0.1,0-0.1C102.4,63.2,102.3,63.2,102.3,63.2L102.3,63.2z"/>
<path class="st19" d="M75.1,73.6c-0.3,1.9,0.1,3.9,1.2,5.5c0.1,0.1,0.2,0.1,0.3,0c0.1-0.1,0.1-0.1,0.1-0.2c-0.4-0.8-0.8-1.7-1-2.6
	c-0.2-0.9-0.3-1.8-0.3-2.8C75.4,73.5,75.2,73.5,75.1,73.6L75.1,73.6z"/>
<path class="st19" d="M76.9,79c0.7,6.2,2.6,12.2,5.8,17.6c0.2,0.3,0.6,0,0.4-0.2c-2.6-5.6-4.6-11.4-6-17.3
	C77.1,78.9,76.9,78.9,76.9,79L76.9,79z"/>
<path class="st19" d="M104.4,68.2c0.5,7.3,3.3,14.3,8,19.9c0.2,0.2,0.5-0.1,0.3-0.3c-2-3-3.7-6.1-5.2-9.3c-1.2-3.3-2.2-6.8-3-10.3
	c0,0,0-0.1-0.1-0.1C104.4,68,104.4,68.1,104.4,68.2L104.4,68.2z"/>
<path class="st19" d="M131.9,111.3c5.2-4.5,10.8-8.8,17-12.9c1.2-0.8,8.4-6,9.7-5.8c-0.4-0.1-0.4,3-0.3,3.2c0,0.1,0.1,0.1,0.3,0
	c0,0,0.1,0,0.1,0c3.9-2.4,7.8-4.8,11.6-7.3c1.7-1.2,3.5-2.3,5.3-3.5c2.7-1.5,2.5-1.4,2.4,0.3c0,0.1,0.1,0.1,0.2,0.1
	c0.1,0,0.1,0,0.2-0.1c7.7-5.2,16.1-10,24.9-14.3c0.4-0.2,0.1-0.5-0.3-0.3c-5.2,2.5-10.2,5.3-15,8.1c-1.8,1-3.4,2.1-5.1,3.1
	c-0.5,0.3-2.9,2.2-3.5,2.3c-1.4,0.1-0.8-0.5-0.7-1.4c0-0.1-0.1-0.1-0.2-0.1c-0.1,0-0.1,0-0.2,0.1c-3.5,2.3-7,4.7-10.5,6.9
	c-1.5,1-3.1,2-4.6,2.9l-3.1,1.9c-2.3-0.2-2.4-1.2-0.3-3c0.1-0.1-0.1-0.2-0.3-0.1c-10.3,5.9-19.6,12.5-27.5,19.6
	C131.7,111.3,131.8,111.4,131.9,111.3L131.9,111.3z"/>
<path class="st19" d="M135.3,119c4.2-4.1,9.8-8.1,16.4-12c3.5-2,7.3-3.7,10.9-5.6c2.7-1.4,0.8-0.7,0.5-0.2c-0.7,0.8-0.6,0.5-1.2,1.3
	c-0.1,0.1,0,0.1,0.2,0.1c0.1,0,0.2,0,0.2-0.1l12.2-5.7l5.7-2.6c1.3-0.6,4.6-2.5,3.3-1c-0.1,0.1,0.2,0.2,0.4,0.1
	c6.8-3.4,13.8-6.7,21.1-9.9c0.5-0.2,0.2-0.4-0.3-0.2c-3.9,1.7-7.7,3.4-11.5,5.2c-1.6,0.8-3.2,1.5-4.8,2.3c-1.2,0.6-4.5,2.6-3.1,1.1
	c0.1-0.1,0-0.1-0.2-0.1c-0.1,0-0.2,0-0.2,0.1L173.5,97l-4.9,2.3l-3.3,1.5c-2.3,1.2-2.3,1,0-0.6c0.2-0.1,0.2-0.2,0.2-0.2
	c-0.1,0-0.2,0-0.4,0c-12.7,5.5-23.6,12.3-30,19C135.1,119,135.2,119,135.3,119L135.3,119z"/>
<path class="st19" d="M132.6,119c12.1-3.2,24-8,35.8-12.3c0.2-0.1,0.1-0.4-0.1-0.4c-11.9,4-24.2,7.5-35.7,12.5
	C132.5,118.8,132.5,119,132.6,119L132.6,119z"/>
<path class="st19" d="M135.5,114.5c14-6.8,28.4-12.6,43.2-17.5c0.1,0,0.1-0.1,0.1-0.2s-0.1-0.1-0.2-0.1c-15.1,4-29.6,9.9-43.2,17.6
	C135.3,114.4,135.4,114.5,135.5,114.5L135.5,114.5z"/>
<path class="st19" d="M166.6,92.9c14.1-3.1,28.3-5.9,43-8.4c0.2,0,0.1-0.2-0.1-0.2c-14.9,2.3-29.3,5.1-43,8.5
	C166.4,92.9,166.5,92.9,166.6,92.9z"/>
<path class="st19" d="M95.3,27.3c15.3-0.7,30.6-1.5,45.9-2.2c0.2,0,0.1-0.1,0-0.1C126.1,25.4,109.9,26,95.3,27.3
	C95.1,27.2,95.1,27.3,95.3,27.3L95.3,27.3z"/>
<path class="st19" d="M126,38.7c12.4-0.2,25-0.5,37.3-0.9c0.3,0,0.3-0.1,0-0.1C150.9,37.8,138.4,38.2,126,38.7
	C125.9,38.6,125.9,38.7,126,38.7z"/>
<path class="st19" d="M93.6,30.6c23.9-0.5,47.8-1.4,71.7-2.2c0.2,0,0.2-0.1,0-0.1C141.3,29,117.3,29.6,93.6,30.6L93.6,30.6
	L93.6,30.6z"/>
<path class="st19" d="M99,67.2c19.2,0.3,38.5,0.1,57.7-0.5c0.2,0,0.2-0.1,0-0.1C137.5,67,118.3,67.1,99,67.2
	C99,67.1,98.9,67.1,99,67.2C98.9,67.1,99,67.2,99,67.2z"/>
<path class="st19" d="M97.3,50.2c17.8-0.4,35.9-1.3,53.6-2c0.3,0,0.2-0.1-0.1-0.1C133,48.6,114.8,49.1,97.3,50.2
	C97.2,50.1,97.2,50.2,97.3,50.2C97.2,50.2,97.2,50.2,97.3,50.2L97.3,50.2z"/>
<path class="st19" d="M109.4,90.5c21.8-0.6,43.5-1.3,65.2-2c0.1,0,0.1-0.1,0-0.1C152.9,89,131.1,89.6,109.4,90.5
	C109.3,90.4,109.3,90.5,109.4,90.5z"/>
<path class="st19" d="M124.2,105.5c16-0.1,32-0.4,48-0.7c0.2,0,0.2-0.1,0-0.1C156.2,104.9,140.2,105.1,124.2,105.5
	C124.1,105.4,124.1,105.5,124.2,105.5L124.2,105.5z"/>
<path class="st19" d="M87.7,24.4c10.9-0.3,21.8-0.6,32.6-1c0.3,0,0.3-0.1,0-0.1C109.4,23.5,98.5,23.9,87.7,24.4
	C87.5,24.3,87.5,24.4,87.7,24.4z"/>
<path class="st19" d="M141.5,57.6c5.9,0,12-0.2,17.8-0.4c0.3,0,0.3-0.1,0-0.1C153.4,57.2,147.4,57.3,141.5,57.6
	C141.4,57.6,141.4,57.6,141.5,57.6L141.5,57.6z"/>
<path class="st19" d="M99.2,121.7c10.2,0.5,20.8-0.9,30.9-1.5s20.6-1.2,31-1.8c0.6,0,0.6-1,0-1c-10.6,0.6-21.3,1.3-31.9,2
	c-9.9,0.6-20.2,0.5-30,2.2C99.2,121.6,99.2,121.6,99.2,121.7C99.2,121.7,99.2,121.7,99.2,121.7L99.2,121.7z"/>
<path class="st19" d="M95.2,25c0.6,3,1.5,6,2.5,8.9c0,0,0,0,0.1,0c0,0,0,0,0,0c-0.6-3-1.5-6-2.5-8.9C95.3,25,95.2,24.9,95.2,25
	C95.2,25,95.2,25,95.2,25z"/>
<path class="st19" d="M89.2,27c0.2,2.8,0.6,5.6,1.1,8.4c0,0.1,0.2,0.1,0.2,0C90.1,32.6,89.8,29.8,89.2,27L89.2,27L89.2,27z"/>
<path class="st19" d="M87.1,26.9c0.5,2.5,1.5,4.8,2.8,7c0,0,0.1,0.1,0.2,0c0,0,0-0.1,0-0.1c-1.1-2.2-2-4.6-2.9-6.9
	C87.2,26.8,87.1,26.8,87.1,26.9C87.1,26.8,87.1,26.8,87.1,26.9z"/>
<path class="st19" d="M97,39.4c1,5.7,1.5,11.6,1.4,17.4c0,0,0.1,0,0.1,0c0.5-5.8,0.1-11.7-1.3-17.4C97.1,39.3,97,39.4,97,39.4
	L97,39.4z"/>
<path class="st19" d="M80.1,72.6c-0.3-0.3-0.6-0.6-0.9-0.8c-0.1-0.1-0.2,0.1-0.2,0.2c0.3,0.3,0.5,0.6,0.8,0.9
	C80,73,80.2,72.8,80.1,72.6z"/>
<path class="st19" d="M77.3,73.2c-0.3-0.3-0.5-0.6-0.5-1c0-0.1-0.2-0.1-0.2,0C76.6,72.7,76.8,73,77.3,73.2c0,0,0.1-0.1,0-0.1
	L77.3,73.2z"/>
<path class="st19" d="M83.3,72c-0.5-0.5-0.8-1.1-0.8-1.8c0-0.1-0.1-0.1-0.1,0c-0.1,0.7,0.2,1.5,0.8,1.9C83.2,72.2,83.4,72.1,83.3,72
	L83.3,72z"/>
<path class="st19" d="M85.7,71.5c0-0.9-0.1-1.8-0.2-2.7c0-0.1-0.1-0.1-0.1,0c0,0.9,0,1.8,0.1,2.7C85.5,71.5,85.7,71.5,85.7,71.5
	L85.7,71.5z"/>
<path class="st19" d="M87.7,71.1c0.2-1,0.5-2,0.7-3.1c0-0.1-0.1-0.1-0.1,0C88,69,87.8,70,87.7,71.1C87.6,71.1,87.7,71.2,87.7,71.1
	L87.7,71.1z"/>
<path class="st19" d="M93,68.5c-0.4-0.6-0.8-1.2-1.2-1.7c-0.1-0.1-0.2,0-0.1,0.1C92.1,67.5,92.5,68,93,68.5
	C93,68.6,93.1,68.6,93,68.5L93,68.5z"/>
<path class="st19" d="M97.1,67.2c0.4-0.5,0.5-1.2,0.4-1.8c0-0.1-0.2-0.1-0.2,0C97.4,65.9,97.3,66.6,97.1,67.2
	C97,67.2,97.1,67.2,97.1,67.2L97.1,67.2z"/>
<path class="st19" d="M99.4,65.9c0.1-0.7,0.1-1.4,0.1-2.1c0-0.1-0.1-0.1-0.1,0c-0.1,0.7-0.2,1.4-0.2,2.1C99.2,66,99.4,66,99.4,65.9
	L99.4,65.9z"/>
<path class="st19" d="M100.4,65.2c0.5-0.6,0.6-1.3,0.3-2c0,0,0-0.1-0.1-0.1s-0.1,0-0.1,0.1C100.7,63.9,100.6,64.5,100.4,65.2
	C100.3,65.1,100.4,65.2,100.4,65.2L100.4,65.2z"/>
<path class="st19" d="M95.2,67.9c0.1-0.4,0.2-0.8,0.2-1.1c0-0.1-0.1-0.1-0.2-0.1c0,0-0.1,0-0.1,0.1C95,67.1,95,67.5,95,67.8
	C95,67.9,95.1,67.9,95.2,67.9C95.2,67.9,95.2,67.9,95.2,67.9L95.2,67.9z"/>
<path class="st19" d="M91.8,60.1c-0.3,1.7-0.5,3.4-0.6,5c0,0,0,0.1,0.1,0.1c0,0,0.1,0,0.1-0.1c0.3-1.6,0.6-3.3,0.7-5
	C92,60.1,91.9,60.1,91.8,60.1C91.9,60.1,91.8,60.2,91.8,60.1L91.8,60.1z"/>
<path class="st19" d="M83,78.6c0.5,3.5,0.9,7.1,1,10.6c0,0,0.1,0.1,0.1,0c0,0,0,0,0,0c0.3-3.6-0.1-7.2-1-10.6
	C83.1,78.5,83,78.5,83,78.6L83,78.6z"/>
<path class="st19" d="M89.7,80.4c0.1,2.4,1.2,4.6,3.1,6c0,0,0.1,0,0.1-0.1c-1.8-1.5-2.9-3.6-3.1-5.9C89.8,80.3,89.8,80.3,89.7,80.4
	C89.8,80.3,89.7,80.3,89.7,80.4L89.7,80.4z"/>
<path class="st19" d="M103.1,75.6c0.3,3.4,1.5,6.7,3.4,9.6c0,0,0.1,0,0.1,0s0-0.1,0-0.1c-1.3-3.1-2.5-6.3-3.4-9.5
	C103.3,75.5,103.1,75.5,103.1,75.6L103.1,75.6z"/>
<path class="st19" d="M99.1,71.6c0.1,0.8,0.3,1.5,0.5,2.2c0,0.1,0.2,0.1,0.2,0c-0.1-0.8-0.3-1.5-0.6-2.2
	C99.2,71.6,99.1,71.6,99.1,71.6z"/>
<path class="st19" d="M77.8,40.5c0,6.7-0.5,13.4-1.6,20c-0.4,2.8-0.4,5.3,2,7.2c0.1,0.1,0.3-0.1,0.2-0.2c-4-3.4-1.3-9.6-0.8-14.1
	c0.5-4.3,0.7-8.7,0.4-13c0,0,0-0.1-0.1-0.1C77.9,40.4,77.9,40.5,77.8,40.5L77.8,40.5L77.8,40.5z"/>
<path class="st19" d="M86.7,41.2c-0.7,1.7-1.4,3.4-2.1,5.2c0,0.1,0.1,0.1,0.1,0c0.8-1.7,1.5-3.4,2.2-5.1C87,41,86.7,41,86.7,41.2
	L86.7,41.2z"/>
<path class="st19" d="M88,41.8c-0.3,1.3-0.4,2.7-0.7,4c-0.3,0.9-0.3,1.8-0.2,2.7c0.3,0.7,1.2,1,1.5,0.2c0,0,0-0.1,0-0.1
	c0,0-0.1,0-0.1,0c-1.1-0.3-1.4-0.8-1-1.7l0.1-0.5c0.1-0.6,0.2-1.2,0.2-1.8c0.1-0.9,0.3-1.8,0.3-2.8C88.1,41.7,88,41.7,88,41.8
	L88,41.8z"/>
<path class="st19" d="M85.1,40.8c-0.4,0.7-0.8,1.5-1.1,2.2c0,0.1,0.1,0.1,0.1,0C84.6,42.3,84.9,41.5,85.1,40.8
	C85.2,40.7,85.1,40.6,85.1,40.8L85.1,40.8z"/>
<path class="st19" d="M82.6,40.6c-0.2,0.7-0.4,1.4-0.5,2.1c0,0,0,0.1,0,0.1s0.1,0,0.1,0c0,0,0,0,0-0.1c0.2-0.7,0.3-1.4,0.5-2.1
	C82.7,40.5,82.6,40.5,82.6,40.6z"/>
<path class="st19" d="M79.6,40.8c0.3,2.3,0.9,4.6,1.7,6.9c0,0.1,0.2,0,0.2,0c-0.6-2.3-1.2-4.6-1.7-6.8
	C79.8,40.7,79.6,40.8,79.6,40.8L79.6,40.8z"/>
<path class="st19" d="M84.3,50c-0.8,3.4-1,7-0.6,10.5c0,0.1,0.2,0.1,0.2,0C83.7,57,83.8,53.5,84.3,50C84.4,49.9,84.3,49.9,84.3,50z"
	/>
<path class="st19" d="M112,88.8c0.6,0.4,1.3,0.8,2,1.1c0.1,0,0.1,0,0.1-0.1c0,0,0-0.1,0-0.1c-0.6-0.5-1.2-0.8-1.9-1.1
	c-0.1,0-0.1,0-0.2,0.1S112,88.8,112,88.8L112,88.8L112,88.8z"/>
<path class="st20" d="M112.3,87.6c-7.4-0.1-14.7-0.1-22.1,0c-4.1,0-10.7-1-13.1,3.5c-1.1,2-0.9,4.4-0.9,6.7c0,3.8-0.1,7.7,0,11.5
	c0.2,4.9,2.2,8.3,7.2,9.3c2.6,0.4,5.2,0.6,7.8,0.6c4,0.2,7.9,0.3,11.9,0.4c7.3,0.2,14.5,0.3,21.8,0.3c3.5,0,6.9,0,10.4,0
	c2,0,4.1,0,5.5-1.7s1.3-4.2,1.2-6.3c-0.1-3.3-0.5-6.6-1.2-9.8c-1.1-5.2-2.8-13.4-8.9-14.9c-3.1-0.8-6.5-0.3-9.7-0.2l-12.3,0.3
	c-0.2,0-0.5,0.2-0.5,0.5c0,0.2,0.2,0.4,0.5,0.4l0,0l16.6-0.3c2.9-0.1,6.1-0.2,8.3,2s3,5.3,3.8,8c1.8,5.3,2.6,10.9,2.4,16.5
	c-0.1,2.2-0.8,3.8-3.2,4.4c-1.4,0.2-2.7,0.3-4.1,0.2c-3,0-5.9,0-8.9,0c-11.5,0-23.1-0.3-34.6-0.8c-5.7-0.2-12.3-0.3-13.1-7.4
	c-0.2-2.5-0.2-5-0.1-7.5c0-2.8-0.2-5.6,0-8.4c0.3-4,2.7-6,6.6-6.3c3-0.2,6-0.1,9-0.1c6.6,0,13.1-0.1,19.7-0.2c0.1,0,0.2-0.2,0.2-0.3
	C112.5,87.7,112.4,87.6,112.3,87.6L112.3,87.6z"/>
<path class="st20" d="M85.2,95.1L85.2,95.1L85.2,95.1z"/>
<path class="st20" d="M85.5,94L85.5,94L85.5,94z"/>
<path class="st20" d="M96.4,91.3c-2.9,0.1-5.9,0.2-8.8,0.4c-1.7,0.1-3.6,0.1-4.9,1.2c-1,1-1.5,2.4-1.5,3.8c-0.2,2.8-0.1,5.6-0.1,8.3
	c0,3.5,0.8,6.7,4.3,8c1.9,0.6,3.8,1,5.8,1.1c3.1,0.4,6.2,0.6,9.3,0.8c5.7,0.3,11.5,0.4,17.2,0.1c3-0.1,5.9-0.4,8.8-0.6
	c2.1-0.2,4.6-0.2,6.6-1c3.5-1.5,2.7-5.6,2.3-8.6c-0.6-3.8-1.3-9.1-4.3-11.8c-1.5-1.2-3.4-1.9-5.3-2c-3.1-0.3-6.3-0.3-9.4-0.4
	c-6.8-0.2-13.5,0-20.3,0.3c-0.6,0-0.6,1,0,1c8.7-0.4,17.5-0.5,26.2-0.1c1.9,0,3.8,0.2,5.6,0.6c2.7,0.8,4,2.9,4.9,5.4
	c0.5,1.6,1,3.3,1.3,5c0.4,2.2,1.2,4.8,0.8,7c-0.6,3.2-3.7,3.2-6.3,3.5c-2.1,0.2-4.2,0.4-6.4,0.6c-4.4,0.3-8.8,0.5-13.3,0.4
	c-4.3,0-8.5-0.2-12.8-0.6c-2-0.2-3.9-0.4-5.9-0.6c-2.5-0.3-5.7-0.6-7.2-2.9c-1.3-1.9-1.1-4.3-1.1-6.5s-0.1-4.5,0.1-6.8
	c0.1-1.8,0.9-3.7,2.8-4.3c1.2-0.3,2.5-0.4,3.8-0.4c2.6-0.2,5.2-0.5,7.8-0.7C96.7,91.7,96.7,91.3,96.4,91.3L96.4,91.3z"/>
<path class="st20" d="M93.1,94.9c-3.2-1.8-7.2-0.6-9,2.6C84,97.7,84,97.8,83.9,98c-1.6,3.7,0,8,3.7,9.6c0.1,0,0.1,0,0.2,0.1
	c3.7,1.5,7.8-0.3,9.3-3.9C98.5,100.2,96.8,96.2,93.1,94.9c-0.2-0.1-0.5-0.2-0.8-0.3c-0.3,0-0.5,0.1-0.6,0.4c0,0.2,0.1,0.5,0.3,0.5
	c3.2,0.8,5.2,4,4.4,7.1c0,0.1,0,0.1,0,0.2c-1,3.3-4.5,5.1-7.8,4.1c-0.5-0.1-0.9-0.3-1.3-0.6c-2.9-1.8-3.9-5.5-2.3-8.6
	c1.6-2.9,5.1-3.6,8.1-2.7c0.1,0,0.2,0,0.2-0.1C93.2,95,93.2,94.9,93.1,94.9z"/>
<path class="st20" d="M122.1,95.2c-4.3-0.7-7.2,3-6.8,7.1c0.4,4.3,4.1,7.5,8.3,7.4c4-0.1,7.1-3.5,7-7.5c0-0.1,0-0.1,0-0.2
	c-0.4-5.2-6.1-7.4-10.6-7c-0.2,0-0.4,0.2-0.4,0.4c0,0.2,0.2,0.4,0.4,0.4c3.6,0.3,8.2,0.9,9.4,5c0.9,3.3-1,6.8-4.4,7.7
	c-0.3,0.1-0.6,0.1-0.8,0.2c-3.3,0.5-6.4-1.5-7.6-4.6c-1.5-3.9,0.8-8.8,5.4-8.4C122.3,95.6,122.4,95.3,122.1,95.2L122.1,95.2z"/>
<path class="st20" d="M123,100.9c-0.7-0.7-1.8-0.7-2.6,0c-0.2,0.2-0.3,0.4-0.4,0.7c-0.4,1.3,0.2,2.7,1.5,3.1
	c0.2,0.1,0.3,0.1,0.5,0.1c1.3,0.2,2.6-0.7,2.8-2c0-0.2,0-0.4,0-0.6c-0.1-1.1-1.9-2.7-2.8-1.5c-0.1,0.1-0.1,0.4,0.1,0.4
	c0.8,0.1,1.7-0.1,1.9,0.9c0.2,0.9-0.4,1.8-1.3,2c-0.1,0-0.3,0-0.4,0c-0.9,0-1.7-0.7-1.9-1.6c-0.1-0.8,0.5-1.5,1.3-1.6
	c0.4,0,0.7,0,1,0.3C122.9,101.2,123.1,101,123,100.9L123,100.9z"/>
<path class="st20" d="M89.7,99.4c-1.1,0.2-1.8,1.2-1.6,2.2c0,0.3,0.2,0.5,0.3,0.8c0.7,1,2,1.2,3,0.5c0.2-0.1,0.4-0.3,0.5-0.5
	c0.7-1,0.5-2.3-0.4-3.1c-0.1-0.1-0.3-0.2-0.5-0.3c-1.3-0.6-2.8,0-3.4,1.3c0,0.1-0.1,0.2-0.1,0.3c-0.1,0.3,0.3,0.5,0.5,0.3
	c0.5-0.7,1.2-1.1,2-1.3c0.9,0,1.6,0.6,1.6,1.5c0,0.1,0,0.3,0,0.4c-0.3,0.8-1.1,1.2-1.9,0.9c-0.1,0-0.2-0.1-0.2-0.1
	c-0.7-0.5-0.9-1.4-0.4-2.1c0.2-0.3,0.5-0.5,0.8-0.6c0.1,0,0.1-0.1,0.1-0.2S89.8,99.3,89.7,99.4L89.7,99.4z"/>
<path class="st20" d="M120.3,95.3c0.2-0.4,0.3-0.9,0.2-1.4c0-0.6,0-1.3,0-1.9l-0.3,0.3l3.2,0.4l-0.3-0.3l-0.3,3.1
	c0,0.4,0.6,0.4,0.6,0l0.4-3.1c0-0.2-0.2-0.3-0.3-0.3l-3.2-0.4c-0.2,0-0.3,0.2-0.3,0.3c0,0.6,0,1.2,0.1,1.9c-0.1,0.5,0,1,0.2,1.4
	C120.1,95.3,120.2,95.4,120.3,95.3C120.3,95.3,120.3,95.3,120.3,95.3L120.3,95.3z"/>
<path class="st20" d="M129.7,100c1.2,0.2,2.4,0.4,3.6,0.5l-0.3-0.3v3.2l0.3-0.3h-2.8c-0.2,0-0.3,0.2-0.2,0.4c0,0.1,0.1,0.2,0.2,0.2
	h2.8c0.2,0,0.3-0.1,0.3-0.3c0-1,0-2.1,0-3.2c0-0.2-0.1-0.3-0.3-0.3c-1.2-0.2-2.3-0.2-3.5-0.2c-0.1,0-0.2,0.1-0.2,0.2
	C129.6,99.9,129.7,100,129.7,100L129.7,100z"/>
<path class="st20" d="M115.5,100.2c-0.8-0.7-2.1-0.7-2.8,0.2c-0.3,0.3-0.5,0.7-0.5,1.2c-0.1,2,2.3,2.3,3.8,2
	c0.4-0.1,0.2-0.8-0.2-0.7c-1,0.2-2.6,0.3-2.9-1c-0.1-0.6,0.3-1.2,0.9-1.4c0.5-0.1,1.1-0.1,1.6,0.1c0.1,0,0.2,0,0.2-0.1
	C115.5,100.4,115.5,100.3,115.5,100.2L115.5,100.2z"/>
<path class="st20" d="M121.7,109.7c-0.7,1-0.4,2.4,0.6,3.1c0.4,0.2,0.8,0.4,1.2,0.4c1.2,0,2.2-1,2.2-2.2c0-0.4-0.1-0.9-0.4-1.2
	c-0.3-0.4-0.8,0-0.6,0.3c0.5,0.7,0.4,1.6-0.3,2.1c-0.3,0.2-0.6,0.3-0.9,0.3c-1.4-0.1-1.8-1.5-1.4-2.7
	C122.2,109.6,121.8,109.5,121.7,109.7L121.7,109.7z"/>
<path class="st20" d="M116.4,105.4c-1.5,0.2-3.6,1.2-2.8,3.1c1,2.2,3.7,0.9,5-0.1c0.3-0.2,0-0.8-0.3-0.6c-1,0.7-2.7,1.9-3.8,0.7
	c-1.4-1.5,1-2.5,2-2.9C116.6,105.7,116.6,105.4,116.4,105.4L116.4,105.4z"/>
<path class="st20" d="M126.2,96.6c0.6-0.5,1.2-1,1.7-1.6h-0.3l1.8,1.2v-0.5c-0.7,0.5-1.4,0.9-2,1.5c-0.2,0.2,0.1,0.6,0.3,0.4
	c0.7-0.4,1.3-0.9,2-1.4c0.1-0.1,0.2-0.3,0.1-0.4c0,0-0.1-0.1-0.1-0.1l-1.8-1.2c-0.1-0.1-0.2-0.1-0.3,0c-0.6,0.5-1.1,1.1-1.6,1.7
	c-0.1,0.2,0.1,0.4,0.3,0.3L126.2,96.6z"/>
<path class="st20" d="M118.3,96.5c-0.7-2.2-3.5-2.3-4.9-0.8c-0.1,0.1-0.1,0.3,0,0.5c0,0,0,0,0,0c0.9,0.8,1.8,1.5,2.7,2.2
	c0.1,0.1,0.3,0,0.4-0.1c0.1-0.1,0-0.3,0-0.3c-0.8-0.8-1.7-1.6-2.6-2.2v0.5c1.3-1.4,3.1-0.9,4.2,0.5
	C118.1,96.8,118.3,96.7,118.3,96.5z"/>
<path class="st20" d="M124.1,91.4c-0.8,1-1.2,2.7,0.1,3.5c0.4,0.2,1,0.4,1.4,0s0.3-0.8,0.4-1c0.2-0.6,0.4-1.1,0.6-1.6
	c0.1-0.3-0.4-0.5-0.5-0.2l-0.5,1.5c-0.2,0.5-0.3,1.2-0.9,0.9c-1.3-0.5-0.7-2.1-0.2-2.9C124.5,91.5,124.3,91.3,124.1,91.4L124.1,91.4
	z"/>
<path class="st20" d="M132.6,96.2c-0.9,0.2-1.9,0.5-2.8,0.8c-0.1,0-0.2,0.2-0.2,0.3c0,0,0,0,0,0.1c0.5,0.6,1.2,1.1,2,1.2
	c0.6,0.1,1.7,0.1,2.1-0.6c0.1-0.1,0-0.3-0.1-0.3c0,0-0.1,0-0.1,0c-0.6,0-1,0.3-1.6,0.3c-0.7-0.1-1.3-0.4-1.8-0.9l-0.1,0.4
	c0.9-0.4,1.8-0.7,2.8-1C132.8,96.4,132.7,96.2,132.6,96.2L132.6,96.2z"/>
<path class="st20" d="M130.2,105.5c0.4,0.3,0.7,0.6,1.1,0.9s0.7,0.4,0.8,0.8c0,0.3-0.2,0.7-0.5,0.8c-1,0.7-1.7-0.5-2.4-1
	c-0.3-0.2-0.6,0.2-0.4,0.5c0.8,0.9,2.2,2,3.3,0.8c0.4-0.4,0.6-1.1,0.4-1.6c-0.1-0.3-0.6-0.4-0.9-0.6c-0.5-0.3-0.9-0.6-1.4-0.8
	C130.2,105.2,130.1,105.4,130.2,105.5L130.2,105.5z"/>
<path class="st20" d="M127.9,113.1c-0.2-0.6-0.6-2.3,0.5-2.2c0.4,0.1,0.8,0.4,0.9,0.9c0.1,0.3,0.1,0.7,0.3,1c0.1,0.1,0.3,0.1,0.3,0
	c0.2-0.6,0-1.3-0.4-1.8c-0.3-0.4-0.8-0.7-1.3-0.6c-0.5,0.1-0.9,0.4-1,0.9c-0.1,0.7,0,1.4,0.4,1.9c0,0.1,0.2,0.1,0.2,0.1
	C127.9,113.2,127.9,113.2,127.9,113.1L127.9,113.1z"/>
<path class="st20" d="M135.3,104.6c-0.6-0.1-1.2-0.3-1.8-0.4c-0.1,0-0.2,0-0.3,0.1c-0.4,0.7-0.4,1.5,0,2.2c0.4,0.6,1.2,1.2,1.9,0.9
	c0.2-0.1,0.3-0.4,0.1-0.5c-0.5-0.2-1-0.2-1.4-0.6c-0.4-0.5-0.5-1.2-0.2-1.8l-0.2,0.1c0.6,0.1,1.2,0.1,1.8,0.1
	C135.4,104.8,135.4,104.6,135.3,104.6L135.3,104.6z"/>
<path class="st20" d="M117.8,91.3c-0.1,0.6-0.1,1.2-0.3,1.8l0.2-0.2c-0.5,0.2-1,0-1.3-0.3c-0.4-0.3-0.3-0.8-0.6-1.2
	c-0.1-0.1-0.3-0.1-0.4,0c0,0,0,0,0,0c-0.4,0.6,0.1,1.3,0.5,1.7c0.5,0.5,1.3,0.6,1.9,0.4c0.1,0,0.2-0.2,0.2-0.3c0-0.6,0.1-1.2,0-1.8
	c0-0.1-0.1-0.2-0.2-0.2C117.8,91.3,117.7,91.3,117.8,91.3L117.8,91.3z"/>
<path class="st20" d="M111.2,92.1c-0.1,0.4-0.2,0.9-0.2,1.3l0.4-0.2c-0.9-0.3-1.8-0.6-2.7-0.8l0.2,0.3c0.1-0.5,0-0.9-0.2-1.3
	c-0.1-0.1-0.2-0.2-0.3-0.1c0,0-0.1,0.1-0.1,0.1c-0.1,0.4-0.2,0.9-0.1,1.3c0,0.2,0.1,0.3,0.2,0.3c0.9,0.3,1.8,0.5,2.8,0.7
	c0.2,0,0.3-0.1,0.3-0.3c0-0.4,0-0.8-0.1-1.2C111.4,92.1,111.2,92,111.2,92.1L111.2,92.1z"/>
<path class="st20" d="M105,91.4c0,0.7,0,1.2-0.8,1.4c-0.4,0.1-0.9,0.1-1.3,0c-0.6-0.1-1.3-0.1-1.9,0.1l0.4,0.3
	c-0.1-0.5-0.1-1-0.2-1.5s-0.7-0.3-0.7,0.1s0.1,1,0.2,1.5c0,0.2,0.2,0.3,0.4,0.3c0,0,0.1,0,0.1,0c1.1-0.7,2.5,0.4,3.7-0.3
	c0.6-0.4,0.9-1.4,0.3-1.9C105.2,91.3,105.1,91.3,105,91.4C105,91.4,105,91.4,105,91.4L105,91.4z"/>
<path class="st20" d="M89.2,94.7c-0.1-0.3-0.1-0.7,0-1.1c0.1-0.4,0.5-0.7,0.9-0.8c0.4,0,0.8,0.2,1,0.6c0.2,0.4,0.1,0.7,0.3,1.1
	c0,0.1,0.1,0.1,0.2,0.1c0,0,0.1,0,0.1,0c0.4-0.4,0.1-1.2-0.2-1.6c-0.3-0.5-0.9-0.8-1.6-0.7c-0.6,0.1-1,0.5-1.2,1
	c-0.3,0.5-0.1,1.1,0.3,1.5c0.1,0,0.2,0,0.2,0C89.2,94.8,89.2,94.7,89.2,94.7L89.2,94.7z"/>
<path class="st20" d="M97.1,99c0.7-0.3,1.4,0,1.7,0.7c0,0,0,0.1,0,0.1c0.2,0.9,0.1,1.7-0.3,2.5l0.3-0.2l-1.2-0.2
	c-0.3-0.1-0.5,0.4-0.1,0.5l1.2,0.2c0.1,0,0.3,0,0.3-0.2c0.4-1.1,0.8-2.5-0.1-3.5c-0.5-0.7-1.5-0.8-2.2-0.3
	C96.7,98.8,96.9,99.1,97.1,99L97.1,99z"/>
<path class="st20" d="M88.7,107.5c-0.1,0.3-0.1,0.7,0,1c0,0.4,0,0.8,0.1,1.3c0.2,0.5,1.1,0.6,1.6,0.5c1-0.2,1.7-1.2,1.5-2.2
	c0-0.2-0.1-0.3-0.2-0.5c-0.2-0.3-0.6,0-0.5,0.3c0.3,0.7-0.1,1.5-0.7,1.7c-0.4,0.2-0.9,0.1-1.3-0.2l0.1,0.2l-0.2-1.2
	c0-0.4-0.1-0.7-0.3-1C89,107.4,88.8,107.4,88.7,107.5L88.7,107.5z"/>
<path class="st20" d="M83.4,99.7c-0.4,0-0.7,0-1.1,0c-0.1,0-0.2,0.1-0.3,0.2c-0.3,0.9-0.3,2,0.2,2.9c0.3,0.6,1,0.9,1.7,0.7
	c0.1,0,0.1-0.2,0.1-0.2c0,0-0.1-0.1-0.1-0.1c-0.6-0.1-1.1-0.4-1.3-0.9c-0.2-0.7-0.2-1.5,0.1-2.2l-0.3,0.2c0.4,0,0.7,0,1.1-0.1
	C83.8,100.2,83.7,99.7,83.4,99.7L83.4,99.7z"/>
<path class="st20" d="M92.9,95.1c0.3-0.2,0.7-0.5,1-0.7c0.4-0.3,0.9-0.2,1.3,0.1c0.6,0.3,1,0.9,0.5,1.6c-0.2,0.3-0.7,0.4-1,0.6
	c-0.1,0-0.1,0.1-0.1,0.2c0,0,0,0,0.1,0.1c0.8,0.1,1.4-0.5,1.5-1.3c0-0.3-0.1-0.6-0.2-0.9c-0.4-0.5-0.9-0.8-1.5-0.9
	c-0.3-0.1-0.3-0.1-0.6,0.1l-1.2,0.9C92.5,94.9,92.7,95.2,92.9,95.1L92.9,95.1z"/>
<path class="st20" d="M94.5,106.8c0.5,1.1,2.3,0.8,3,0.1c0.5-0.5,0.6-1.4,0-1.9c-0.3-0.3-0.7-0.5-1.1-0.4c-0.3,0-0.2,0.5,0.1,0.5
	c0.5,0,0.9,0.3,0.9,0.7c0,0.1,0,0.2,0,0.3c-0.2,0.5-0.5,0.8-1,0.9c-0.7,0.2-1.2-0.1-1.8-0.3C94.6,106.7,94.5,106.7,94.5,106.8
	L94.5,106.8z"/>
<path class="st20" d="M83.4,103.8c-0.3,0.3-0.5,0.6-0.8,0.9c-0.1,0.2-0.5,0.4-0.5,0.7c0,0.4,0.4,0.9,0.7,1.1
	c0.9,0.7,2.1,0.6,2.9-0.2c0.1-0.1,0.1-0.2,0-0.3s-0.2-0.1-0.3,0c-0.7,0.7-1.8,0.7-2.5,0.1c-0.2-0.1-0.3-0.3-0.3-0.5
	c0-0.2,0.1-0.3,0.3-0.5c0.3-0.3,0.5-0.7,0.7-1c0-0.1,0-0.2,0-0.2C83.5,103.8,83.5,103.8,83.4,103.8z"/>
<path class="st20" d="M84.2,96.9c-0.5-0.1-1-0.5-0.9-1.1c0-0.4,0.3-0.7,0.6-0.8c0.9-0.3,1.8,0.1,2.2,0.9c0.2,0.3,0.6,0,0.5-0.3
	c-0.7-1.2-2.3-1.9-3.4-0.8c-0.8,0.8-0.2,2.7,1.1,2.3C84.2,97.2,84.3,97.1,84.2,96.9C84.2,97,84.2,96.9,84.2,96.9z"/>
<path class="st20" d="M82.7,111.2c0.7-0.5,1.3-1,2-1.5c0.8-0.6,1.6-0.1,2.4,0.2l-0.2-0.3c-0.3,0.8-0.6,1.5-0.8,2.3
	c0,0.2,0.2,0.3,0.3,0.1c0.3-0.8,0.6-1.5,0.9-2.3c0-0.1,0-0.2-0.1-0.3c0,0,0,0,0,0c-0.6-0.2-1.6-0.7-2.1-0.6
	c-0.4,0.1-0.9,0.7-1.2,0.9l-1.4,1.2C82.5,111.1,82.6,111.2,82.7,111.2L82.7,111.2z"/>
<path class="st20" d="M92.9,113.7c0.2-0.4,0.3-1,0.1-1.4c-0.1-0.7-0.1-2.3,1-1.7c0.5,0.4,0.9,1,1,1.7c0.1,0.4,0.3,1,0.7,1.2
	c0,0,0.1,0,0.1,0c0,0,0-0.1,0-0.1c-0.1-0.4-0.3-0.8-0.5-1.2c-0.1-0.4-0.2-0.8-0.4-1.1c-0.3-0.5-0.8-0.9-1.3-1c-0.5,0-1,0.3-1.1,0.8
	c-0.2,0.9,0.3,1.8,0.2,2.7c0,0,0,0.1,0,0.1C92.8,113.7,92.8,113.7,92.9,113.7L92.9,113.7L92.9,113.7z"/>
<path class="st20" d="M117.3,114c0.2-0.2,0.2-0.4,0.2-0.8s0.1-0.9,0.1-1.4l-0.3,0.3l2.7-0.1l-0.3-0.3v2.7c0,0.1,0.2,0.2,0.3,0.2
	c0.1,0,0.2-0.1,0.2-0.2c0-0.9,0.1-1.8,0.1-2.7c0-0.2-0.1-0.3-0.3-0.3c0,0,0,0,0,0l-2.7,0.2c-0.2,0-0.3,0.1-0.3,0.3
	c0,0.5,0,0.9,0,1.4C117.1,113.6,117.1,113.8,117.3,114C117.3,114.1,117.3,114.1,117.3,114C117.3,114.1,117.3,114.1,117.3,114
	L117.3,114z"/>
<path class="st20" d="M102,114.4c0-0.7-0.1-1.3-0.2-2l-0.2,0.2l2.2,0.2l-0.2-0.3c-0.1,0.7,0,1.5,0.4,2.1c0.1,0.1,0.2,0.1,0.3,0.1
	s0.1-0.2,0.1-0.3l0,0c-0.3-0.6-0.4-1.2-0.3-1.8c0-0.1-0.1-0.2-0.2-0.3c0,0,0,0,0,0l-2.2-0.2c-0.1,0-0.2,0.1-0.2,0.2c0,0,0,0,0,0
	c0.1,0.7,0.2,1.3,0.3,2C101.7,114.6,102,114.6,102,114.4z"/>
<path class="st20" d="M108.7,114.7c0.1-0.8,0.1-1.6,0-2.4l-0.2,0.3c0.6-0.1,1.2,0.2,1.4,0.8c0.1,0.3,0.1,0.6,0,0.8
	c-0.1,0.1-0.1,0.3,0,0.4c0,0.1,0.1,0.1,0.2,0.1c0.7-0.2,0.4-1.4,0.2-1.8c-0.4-0.7-1.2-1-2-0.8c-0.1,0-0.2,0.1-0.2,0.3
	c0,0.8,0.1,1.7,0.2,2.5C108.2,115,108.6,114.9,108.7,114.7L108.7,114.7z"/>
<path class="st20" d="M89,91.8L89,91.8L89,91.8z"/>
<path class="st20" d="M90.8,91.7c-0.5,0.7-0.3,1.7,0.5,2.2c0.2,0.1,0.4,0.2,0.7,0.2c0.9,0.1,2-1,1.4-1.9c-0.1-0.1-0.2-0.1-0.3-0.1
	C93,92.2,93,92.3,93,92.4c0.1,0.5-0.2,1.1-0.7,1.2c-0.1,0-0.2,0-0.3,0c-0.7-0.1-1.1-0.7-1.1-1.3c0-0.2,0.1-0.3,0.2-0.5
	c0-0.1,0-0.2-0.1-0.2C91,91.7,90.9,91.7,90.8,91.7L90.8,91.7z"/>
<path class="st20" d="M128.9,92.4c-1.3-0.2-1.5,1.5-0.7,2.2c0.9,0.7,2.3,0.5,3-0.4c0,0,0.1-0.1,0.1-0.1c0.1-0.2-0.1-0.4-0.3-0.2
	c-0.4,0.6-1.1,0.9-1.9,0.8c-0.3-0.1-0.6-0.2-0.9-0.5c-0.4-0.3-0.4-0.9,0-1.3c0.2-0.2,0.4-0.3,0.7-0.3C129,92.6,129,92.4,128.9,92.4z
	"/>
<path class="st20" d="M95.7,97c6.2,0.3,12.5,0.6,18.7,0.4c0.1,0,0.2-0.1,0.2-0.2c0-0.1-0.1-0.1-0.2-0.2c-6.2-0.4-12.5-0.4-18.7-0.3
	C95.6,96.8,95.6,96.8,95.7,97C95.6,97,95.6,97,95.7,97z"/>
<path class="st20" d="M97.7,107.4c5.8-0.4,11.4-1.1,17.3-0.7c0.4,0,0.4-0.6,0-0.6c-5.7-0.5-11.9-0.5-17.4,1
	C97.5,107.1,97.5,107.4,97.7,107.4L97.7,107.4z"/>
<path class="st20" d="M82.6,90.5c-3.6,0.7-4.3,4.4-3.3,7.5c0,0.1,0.1,0.1,0.2,0.1c0.1,0,0.1-0.1,0.1-0.2c-0.2-1.6-0.7-3.1,0-4.6
	c0.6-1.3,1.8-2.3,3.2-2.6c0.1,0,0.1-0.1,0.1-0.2C82.8,90.5,82.7,90.5,82.6,90.5L82.6,90.5z"/>
<path class="st20" d="M79.8,108.9c0,2.2,0.6,4.4,2.5,5.8c1.4,1.1,3.3,1.4,5,0.8c0.1,0,0.1-0.1,0-0.2c0,0-0.1-0.1-0.1-0.1
	c-1.6,0.4-3.3,0-4.7-0.9c-1.8-1.3-2.1-3.4-2.5-5.5C80,108.8,79.8,108.8,79.8,108.9L79.8,108.9z"/>
<path class="st20" d="M132.8,116.2c3.3,0.9,6.9-2,6.2-5.5c-0.1-0.3-0.5-0.2-0.5,0.1c0.1,1.4-0.4,2.9-1.3,3.9
	c-1.1,1.1-2.7,1.6-4.3,1.2c-0.1,0-0.1,0-0.1,0.1C132.7,116.1,132.7,116.2,132.8,116.2L132.8,116.2z"/>
<path class="st20" d="M76.7,88c-5.3-1.6-4.8,6.8-5.3,9.6c0,0.1,0.2,0.2,0.2,0.1c1.2-2.7-0.2-10.9,5-9.4c0.1,0,0.2,0,0.2-0.1
	C76.8,88.1,76.8,88,76.7,88z"/>
<path class="st20" d="M73.6,112.2c0.1,2.6,0.5,5.6,2.7,7.4c1.9,1.6,4.8,1.7,7.1,1.2c0.2,0,0.1-0.2,0-0.2c-2.4-0.3-5.2,0.1-7.1-1.8
	c-1.8-1.7-2-4.3-2.4-6.6C73.8,112.1,73.6,112.1,73.6,112.2L73.6,112.2z"/>
<path class="st20" d="M136.4,122.2c2.8,0.3,5.8,0.4,8.1-1.4c1.9-1.5,2.9-3.9,2.6-6.3c0-0.2-0.4-0.2-0.4,0.1c-0.1,2.5-1,4.9-3.2,6.3
	s-4.7,1.1-7,1.1C136.2,121.9,136.3,122.2,136.4,122.2L136.4,122.2z"/>
<path class="st20" d="M131.2,84.9c2.2-0.7,4.7,0,6.1,1.9c1.5,1.8,1.7,4.2,1.8,6.5c0,0.2,0.3,0.2,0.3,0c0.7-4.6-3-11-8.4-8.7
	C131,84.7,131.1,84.9,131.2,84.9L131.2,84.9z"/>
<path class="st20" d="M78.3,90.3c0.4,0.6,0.8,1.3,1.3,1.8c0.4,0.5,0.9,1.2,1.6,1.3c0.2,0.1,0.4-0.1,0.5-0.3c0,0,0-0.1,0-0.1
	c-0.1-0.7-0.5-1.3-1-1.7c-0.5-0.6-1.1-1.1-1.7-1.6C78.6,89.5,78,89.9,78.3,90.3L78.3,90.3z"/>
<path class="st20" d="M76.8,97.6c0.8,0.3,1.6,0.4,2.5,0.5c0.6,0.1,1.3,0.3,1.8-0.2c0.1-0.1,0.1-0.3,0.1-0.4
	c-0.3-0.6-1.1-0.6-1.7-0.6c-0.8-0.1-1.7-0.2-2.5-0.1c-0.2,0-0.4,0.2-0.4,0.5C76.5,97.3,76.6,97.5,76.8,97.6z"/>
<path class="st20" d="M77.7,103l1.9,0.1c0.5,0.1,1.1,0.1,1.6-0.1c0.2-0.1,0.3-0.4,0.1-0.6c0-0.1-0.1-0.1-0.1-0.1
	c-0.5-0.2-1.1-0.3-1.6-0.3l-1.9-0.1C76.9,101.9,76.9,103,77.7,103z"/>
<path class="st20" d="M76.8,110.8c0.7-0.1,1.5-0.3,2.2-0.6c0.7-0.2,1.3-0.5,1.7-1c0.1-0.2,0.1-0.5-0.2-0.7c0,0-0.1,0-0.1-0.1
	c-0.7,0-1.4,0.1-2,0.5c-0.7,0.2-1.4,0.6-2,1.1c-0.2,0.2-0.2,0.5,0,0.7C76.5,110.8,76.6,110.8,76.8,110.8L76.8,110.8z"/>
<path class="st20" d="M78.7,115.7c0.7-0.4,1.4-0.8,2-1.3c0.6-0.5,1.3-0.9,1.5-1.6c0.1-0.3-0.1-0.6-0.4-0.6c0,0-0.1,0-0.1,0
	c-0.7,0.1-1.4,0.5-1.9,1c-0.6,0.5-1.2,1.1-1.8,1.7c-0.2,0.2-0.2,0.5,0,0.7C78.2,115.8,78.4,115.8,78.7,115.7L78.7,115.7z"/>
<path class="st20" d="M85.6,118.5c-0.1-0.7,0-1.4,0.3-2.1c0.2-0.4,0.3-1.2-0.4-1.2s-1,1-1.1,1.6c-0.1,0.7,0,1.4,0.3,2
	c0.1,0.2,0.5,0.3,0.7,0.1C85.5,118.9,85.6,118.7,85.6,118.5z"/>
<path class="st20" d="M90.4,117.7c0.1-0.5,0.1-1.1,0.1-1.6c0-0.5,0-0.9-0.4-1.2c-0.1-0.1-0.3-0.1-0.4,0c-0.4,0.2-0.4,0.8-0.4,1.2
	c0,0.5,0,1.1,0.1,1.6c0,0.3,0.2,0.5,0.5,0.5C90.2,118.2,90.4,118,90.4,117.7z"/>
<path class="st20" d="M94.5,118c0.2-0.7,0.7-1.8,0.2-2.4c-0.2-0.3-0.5-0.3-0.8-0.2c0,0-0.1,0-0.1,0.1c-0.6,0.5-0.4,1.7-0.5,2.4
	c0,0.3,0.3,0.6,0.6,0.5C94.2,118.4,94.4,118.2,94.5,118z"/>
<path class="st20" d="M101.6,118.4V117c0.1-0.4,0-0.8-0.2-1.1c-0.1-0.1-0.3-0.1-0.4,0c-0.2,0.3-0.3,0.7-0.3,1.1v1.4
	c0,0.2,0.3,0.4,0.5,0.4C101.5,118.7,101.6,118.6,101.6,118.4z"/>
<path class="st20" d="M97.8,117.8c0.1-0.5-0.1-1.1-0.4-1.5c-0.1-0.1-0.4-0.1-0.5,0c-0.3,0.5-0.4,1.1-0.2,1.6
	c0.1,0.3,0.4,0.5,0.7,0.4C97.6,118.2,97.8,118,97.8,117.8z"/>
<path class="st20" d="M105.6,118.6c0-0.7,0.2-1.8-0.3-2.4c-0.1-0.1-0.4-0.1-0.5,0c-0.5,0.6-0.2,1.7-0.1,2.4c0,0.3,0.2,0.5,0.5,0.5
	C105.4,119,105.6,118.8,105.6,118.6z"/>
<path class="st20" d="M111.3,118.8c0-0.7,0.2-2-0.4-2.6c-0.1-0.1-0.4-0.2-0.5,0c0,0,0,0,0,0c-0.6,0.6-0.3,1.8-0.2,2.6
	c0,0.3,0.3,0.5,0.6,0.5C111,119.3,111.2,119.1,111.3,118.8z"/>
<path class="st20" d="M115.1,119.1c0.2-0.4,0.3-0.7,0.3-1.1c0.1-0.4,0-0.8,0.1-1.2c0-0.9-1.3-0.9-1.4,0c-0.1,0.4-0.1,0.8-0.1,1.2
	c0,0.4,0.1,0.8,0.2,1.1c0.1,0.2,0.3,0.4,0.5,0.3C115,119.3,115.1,119.2,115.1,119.1z"/>
<path class="st20" d="M120.6,119.2c0.2-0.6,0.2-1.2,0.2-1.8c0-0.6-0.2-1.1-0.6-1.5c-0.2-0.1-0.4-0.1-0.6,0.1c-0.3,0.5-0.4,1-0.3,1.6
	c0.1,0.6,0.2,1.2,0.5,1.7c0.1,0.2,0.4,0.3,0.6,0.1C120.5,119.4,120.6,119.3,120.6,119.2z"/>
<path class="st20" d="M124.3,119.3c0-0.5,0-1,0-1.4c0.1-0.5,0.1-0.9,0.1-1.4c0-0.3-0.3-0.5-0.6-0.5c-0.1,0-0.2,0-0.2,0.1
	c-1,0.9-1.2,2.5-0.3,3.6c0.2,0.2,0.6,0.2,0.8,0C124.2,119.5,124.3,119.4,124.3,119.3L124.3,119.3z"/>
<path class="st20" d="M130,119c0.1-0.9,0.4-2.2-0.4-2.9c-0.2-0.2-0.4-0.2-0.6,0c0,0,0,0,0,0c-0.7,0.9-0.2,2.1,0,3
	C129.1,119.7,130,119.5,130,119L130,119z"/>
<path class="st20" d="M135.1,118.7c0.1-0.3,0.1-0.5,0.1-0.8c0-0.3-0.1-0.6-0.2-0.9c-0.2-0.5-0.4-1.2-1-1.3c-0.2-0.1-0.5,0-0.6,0.2
	c-0.4,0.5,0,1.2,0.1,1.7c0.1,0.3,0.2,0.5,0.4,0.8c0.2,0.3,0.4,0.4,0.6,0.6c0.1,0.1,0.4,0.2,0.5,0
	C135.1,118.9,135.2,118.8,135.1,118.7L135.1,118.7z"/>
<path class="st20" d="M138.6,117.8c-0.3-0.7-0.8-1.3-1.4-1.7c-0.4-0.1-0.8,0.1-0.9,0.5c0,0.1,0,0.1,0,0.2c0,0.4,0.2,0.7,0.4,1
	c0.2,0.3,0.4,0.6,0.7,0.9C138,119.5,139,118.6,138.6,117.8L138.6,117.8z"/>
<path class="st20" d="M141.3,114.1c-0.6-0.4-1.6-1.3-2.4-0.8c-0.2,0.1-0.3,0.3-0.3,0.5c0,0.9,1.3,1.3,1.9,1.6c0.4,0.2,0.8,0,1-0.3
	C141.7,114.6,141.6,114.3,141.3,114.1L141.3,114.1z"/>
<path class="st20" d="M141.3,109.3c-0.6-0.3-1.2-0.4-1.8-0.5c-0.5-0.1-1.3-0.1-1.4,0.6s0.6,0.9,1.2,0.9c0.6,0.1,1.3,0.1,1.9,0
	c0.3-0.1,0.5-0.4,0.3-0.7C141.5,109.6,141.4,109.5,141.3,109.3L141.3,109.3z"/>
<path class="st20" d="M140.7,105.9c-0.2-0.5-0.9-0.6-1.4-0.7c-0.6-0.2-1.2,0-1.7,0.4c-0.2,0.2-0.2,0.4,0,0.6
	c0.6,0.5,1.3,0.7,2.1,0.5C140,106.7,140.9,106.4,140.7,105.9L140.7,105.9z"/>
<path class="st20" d="M140.2,101.1c-0.4-0.6-1.2-0.4-1.9-0.4c-0.7-0.1-1.4,0.1-2,0.6c-0.2,0.2-0.2,0.5,0,0.7c0,0,0,0,0.1,0.1
	c0.6,0.3,1.4,0.4,2.1,0.2c0.6-0.1,1.4,0,1.7-0.6C140.3,101.5,140.3,101.3,140.2,101.1L140.2,101.1z"/>
<path class="st20" d="M138.1,94.3c-0.5-0.1-0.9,0.1-1.3,0.4c-0.4,0.2-0.8,0.6-1,1c-0.1,0.3,0.1,0.5,0.4,0.6c0,0,0.1,0,0.1,0
	c0.5,0,1-0.2,1.4-0.6c0.4-0.2,0.7-0.6,0.8-1.1C138.4,94.4,138.3,94.3,138.1,94.3L138.1,94.3z"/>
<path class="st20" d="M134.8,89.2c-0.6,0.3-1.2,0.6-1.8,0.9s-1.2,0.7-1.3,1.3c0,0.3,0.1,0.7,0.4,0.7c1.4,0.2,2.4-1.4,3.2-2.2
	c0.2-0.2,0.2-0.5,0-0.7C135.2,89.1,134.9,89.1,134.8,89.2L134.8,89.2z"/>
<path class="st20" d="M129.9,87.1c-0.6,0.9-1.6,2.1-1.3,3.2c0.1,0.3,0.3,0.4,0.6,0.4c0,0,0.1,0,0.1-0.1c1-0.6,1.2-2.1,1.4-3.2
	c0.1-0.2-0.1-0.5-0.3-0.6C130.2,86.8,130,86.9,129.9,87.1L129.9,87.1z"/>
<path class="st20" d="M122.6,86.8c-0.6,0.5-0.9,1.3-1,2.1c-0.1,0.2,0,0.5,0.3,0.6l0.1,0.1c0.2,0.1,0.5,0,0.6-0.2
	c0.4-0.7,0.6-1.6,0.4-2.4C122.9,86.8,122.7,86.8,122.6,86.8C122.6,86.8,122.6,86.8,122.6,86.8L122.6,86.8z"/>
<path class="st20" d="M115.3,87.6c-0.4,0.7-0.7,1.6-0.8,2.4c0,0.4,0.4,0.7,0.8,0.7c0.2,0,0.5-0.1,0.6-0.3c0.4-0.7,0.6-1.5,0.6-2.3
	C116.6,87.4,115.6,86.9,115.3,87.6z"/>
<path class="st20" d="M106.7,88c-0.5,0.4-0.8,1-0.8,1.6c0,0.4,0.3,0.7,0.7,0.7c0.3,0,0.6-0.2,0.7-0.5c0.2-0.5,0.2-1.1-0.1-1.6
	C107.1,88,106.9,87.9,106.7,88z"/>
<path class="st20" d="M97.7,88.3c-0.1,0.5-0.2,0.9-0.2,1.4c0,0.3,0.3,0.6,0.6,0.6c0.3,0,0.5-0.2,0.6-0.4c0.1-0.5,0.1-0.9,0.1-1.4
	C98.8,87.9,97.8,87.7,97.7,88.3z"/>
<path class="st20" d="M92.5,88.1c-0.4,0.7-0.5,1.5-0.3,2.2c0.2,0.5,1,0.7,1.2,0.2c0.3-0.8,0.3-1.6,0-2.4c-0.1-0.2-0.4-0.3-0.7-0.2
	C92.6,88,92.6,88,92.5,88.1L92.5,88.1z"/>
<path class="st20" d="M86,88.4c0.2,0.7,0.2,2,1.1,2.2c0.2,0.1,0.5,0,0.6-0.2c0.5-0.7-0.3-1.8-0.6-2.4S85.8,87.8,86,88.4L86,88.4z"/>
<path class="st20" d="M81.6,88.6c0.3,0.8,0.6,2.3,1.7,2.5c0.4,0.1,0.8-0.1,0.9-0.5c0.2-1.1-0.9-1.9-1.7-2.5
	C82.1,87.8,81.4,88.1,81.6,88.6z"/>
<path class="st20" d="M88.5,96.8c-2.6-0.1-5.1,2.5-3.8,5c0,0.1,0.1,0.1,0.2,0.1c0,0,0.1-0.1,0.1-0.1c-0.3-1.1,0-2.3,0.6-3.2
	c0.7-0.9,1.8-1.4,3-1.3C88.8,97.2,88.8,96.8,88.5,96.8L88.5,96.8z"/>
<path class="st20" d="M88.4,104.4c1,1.2,2.7,1.5,4,0.8c1.2-0.9,1.6-2.5,1-3.9c0,0-0.1,0-0.1,0c0,0,0,0,0,0.1c0.5,1.5-0.3,3-1.8,3.5
	c-1,0.3-2.1,0.1-2.9-0.7C88.5,104.1,88.2,104.3,88.4,104.4L88.4,104.4z"/>
<path class="st20" d="M120.4,97.5c-2.3,1-3.2,4.2-1,5.8c0.2,0.1,0.3-0.1,0.2-0.3c-1.5-1.7-1.3-4.2,0.9-5.1
	C120.7,97.8,120.6,97.4,120.4,97.5L120.4,97.5z"/>
<path class="st20" d="M121.5,107.1c3.4,1.1,7.3-2.4,5.6-5.9c-0.1-0.2-0.3,0-0.3,0.1c0.4,1.5,0,3.1-1,4.2c-1.1,1.1-2.7,1.5-4.2,1.2
	c-0.1,0-0.2,0-0.2,0.1C121.3,106.9,121.4,107,121.5,107.1L121.5,107.1L121.5,107.1z"/>
<path class="st11" d="M143.2,115.9l34.7-13.5l10.2-4.8l-1.4,5.9l15.3-5.9l-0.6,27.4l-74.2,1.6C127.2,126.5,133.4,118.6,143.2,115.9z
	"/>
</svg>
