<svg id="illustration2" xmlns="http://www.w3.org/2000/svg" viewBox="0 0 198.43 148.67"><defs><style>.cls-1{fill:#efbc6b;}.cls-2{fill:#dc8fbe;}.cls-3{fill:#3d833e;}.cls-4{fill:#74bf44;}</style></defs><path class="cls-1" d="M95.72,86.57l4,6.69s1.81,11.25-7.5,15.8-15.73-9.77-15.73-9.77-1.37-6.61,3.92-10S92.43,86.39,95.72,86.57Z"/><path class="cls-1" d="M76.85,61.61l5.36,2.27s2.9,4.43,1.76,8.31-5.54,10.17-5.54,10.17l.14.91-.21,1.2-.69,1.34a23.59,23.59,0,0,0-2.19,3.32c-.46,1.06-1.54,4.47-1.54,4.47s-1.34,5.66-2,7.17a37.45,37.45,0,0,1-4.45,7.48c-1.6,1.85-4.86,5.16-4.86,5.16a22.2,22.2,0,0,0-3.37.76A49,49,0,0,0,54,116.62l-.81-6.11s-1-6.36-.44-9.07,2.38-8.09,3.86-9.14l.13-.45-.29-2.74s.73-2.93,1.39-4.76,7.7-16,7.7-16,2.8-4.43,5.46-5.94A9.24,9.24,0,0,1,76.85,61.61Z"/><path class="cls-2" d="M78.56,82.35s4.4-6.3,5.54-10.17-1.75-8.31-1.75-8.31L77,61.6a9.27,9.27,0,0,0-5.83.82c-2.66,1.51-5.45,5.93-5.45,5.93l-2.65,5.09a2.25,2.25,0,0,0,1.84,2.61c2.23.53,2.95-1.18,5-.45s1.28,3.09,2.51,3.67,3.05-.66,4.47,0S78.56,82.35,78.56,82.35Z"/><path class="cls-2" d="M92.15,109c9.31-4.56,7.5-15.81,7.5-15.81l-4-6.69c-3.29-.17-10-.56-15.27,2.77,0,0,3.33-.56,4.56,1.53s-1.07,2.63,0,4.24S89,96.4,89.56,98.21s-1.77,3.91-.46,5.52,2.22,0,3.15,1.24S92.15,109,92.15,109Z"/><polygon class="cls-3" points="77.38 61.67 76.29 62.23 75.92 63 76.13 64.04 77.48 65.39 79.18 65.85 80.82 65.97 81.9 65.32 82.07 64.23 81.64 63.58 80.82 62.72 78.99 61.83 77.38 61.67"/><path class="cls-3" d="M98.47,87.89l-.68-.6L97.07,87h-.84l-.81.34-.58,1-.25.79.16,1.67,1,1.54,1.46.81,1.44.16.9-.31.63-.53.23-.6.11-.82-.07-.65a11,11,0,0,0-.94-1.88A6,6,0,0,1,98.47,87.89Z"/><path class="cls-4" d="M97.56,90.38l.77-1,.31-2.91L99.81,75l1-14.06.44-8.43,8.15-3.35,15.38,9,4.77,10.18,3.69,9.26.2,10-9.68,1-13.3,1.73-5.84.77-4.37.72L99,91.93a1,1,0,0,1-1.44-.33C96.87,90.7,97.56,90.38,97.56,90.38Z"/><path class="cls-4" d="M77.48,62.07l-.1.83-.19.52.29.91,1.07.54.84.24.87-.24.47-.34.07-.85L80.54,63l1.82-2.33,1.52-2,4.39-5.83,7.84-10.18,5.33-7.31s1.12-1.12.32-1.2a16.37,16.37,0,0,1-2.24-.52l-2.12-1.5-1.93-1.46L82,27l-2,.44-1.26,2.35L79,32.61l-.27,5.32-.47,10.46-.56,10.79Z"/><path class="cls-3" d="M74.81,12.65V11.31l-.45-1.6,1.42-2,2.16-1.3h2.25l2.74.67L85,9.64l1.15-2.49,1.17-1,2.91-.75,2.55,1,1.37,1.45L95,10.3l1.47-1,1.85,3.19,1.13-1.29,3-1.91.83.62.06,1.91,2-1.57H107l.9,1.24.72,1.79-.93,2.21-.13,1,2,.48,1.07,1.34,1.56.13,1.76,0,2.13.91.78,1.71.51,1.26,2-.41H121L122.83,23l1.41,1.94L126,26.25l1.16.59,2,2.18,1.79-1.66,3.39-.37,2.3.43,2,2,.78,2.86.87,1.43h.91l1.28,1.6.32,2.33,1,2.07,1.16,2.89L144.73,45l2.77-.83,2.87,0,2,1.65.07,1-.28,1-.32.84-.21,1,.1.87.4.61.5.57,1.06,1.24.3.91A7.2,7.2,0,0,1,154,55a7.66,7.66,0,0,0-.23.82l-.3.85-.43,1-.17.29-.39.85.22.55.54.41.67.57.8,1.87.51,2.91L155,66.5l-.35,2.24-.8,1.75-1.13,1.45-1.2,1.12-2,.94.21,1.63-.41.79a11.57,11.57,0,0,0,.25,1.42c.08.11,1.06,2.21,1.06,2.21s.66,1.47.66,1.58-.46,1.74-.46,1.74l-2,1.62-2.73.78-1.66.73.49,1,.6,3.1-.39,2.27L144,94.9l-1.23,1.28-2.49,1.38-3.32.13-2.75-.62-1.11-.75-1.85-.43L130,94.52l-.75-2.81v-1l.15-2.78,3.88-.27.35-1-.18-3.76-1.32-2.49-2.22-3.15-.89-1.71-1-3.33-1-.83-.65-1.42-.27-1.55-.34-1.91-.46-1-1.53-.87s-1.13.07-1.24,0a12.61,12.61,0,0,1-1-.8v-.81s-1.39.09-1.91-.86,0-1.36,0-1.36L119,59.35l0-1.53s.16-.93-.93-.74a6.88,6.88,0,0,0-2.19.91l-1.41.39-2.1-.47-1.21-1.1-.49-1-.53-1.52-.86.58L107.41,54l-.32-1.76.46-1.42-.71,1.64-1.83.15-1.39-.5-1.2.3-1.35.16-1.3.69L98,54.13l-1.58-.2L95.85,53a3.45,3.45,0,0,0,.26-.95c0-.17-1.08-1.54-1.08-1.54l-.69-2,.57-3.1.94-.93-.67-.85,6.17-8.19.09-1.35-1.24-.19-1.69-1-3-2.29s-2.87.42-4.45.62a30.92,30.92,0,0,1-3.46.21l-2.13-.61-.65-.72S84,28.5,82.84,28.53a3.24,3.24,0,0,0-2,.94l-1.05,1.19h-1L78.1,30l.11-1.26.41-.38-1.06-.39-.75-1.24.07-1,.6-.79-1.66-.19-.91-.7-.39-1.82.67-1.15.63-1.58L75.9,19l-.79-.71-2.27-2.71L73,14l.9-.77Z"/><path class="cls-3" d="M96.69,33.55c-5.17,8.05-10.34,16.32-15,24.71-.22.4.73.49.94.17,5.1-8,9.84-16.46,14.38-24.82.08-.15-.29-.18-.37-.06Z"/><path class="cls-3" d="M79.4,58.4a93.17,93.17,0,0,0-.15-10.57c-.11-3.52-.13-7.06-.4-10.57,0-.12-.26-.12-.27,0,0,3.51.13,7.05.24,10.57A95.53,95.53,0,0,0,79.3,58.4s.1,0,.1,0Z"/><path class="cls-3" d="M83.79,32a65.79,65.79,0,0,0-1.1,9.89,46.5,46.5,0,0,0,.14,9.94c0,.18.41.19.43,0,.25-3.28-.05-6.64.1-9.94s.53-6.59.78-9.89c0-.16-.32-.15-.35,0Z"/><path class="cls-3" d="M107,56.23c-1.16,2.28-1.53,5.06-2.12,7.54s-1.14,4.75-1.7,7.13c-1.07,4.57-2.36,9.21-3,13.85,0,.18.39.19.44,0,1.55-4.77,2.55-9.81,3.71-14.69L106,63c.51-2.18,1.31-4.48,1.26-6.73,0-.1-.18-.09-.22,0Z"/><path class="cls-3" d="M99.86,89.69c4.62-2.64,9-5.91,13.35-8.91s9-5.73,13.1-9.06c.3-.24-.22-.38-.42-.27-4.61,2.63-8.91,6-13.29,8.94s-9,5.76-13,9.1c-.22.17.16.28.31.2Z"/><path class="cls-3" d="M105.43,89.44a141.45,141.45,0,0,0,14.16-2.72c.37-.09.15-.4-.15-.35a140.66,140.66,0,0,0-14.09,2.87c-.21.06-.08.22.08.2Z"/><path class="cls-3" d="M124.89,85.63a47.47,47.47,0,0,0,6.25-1.77c.36-.15,0-.42-.25-.38a52,52,0,0,0-6.3,1.82c-.37.11.06.39.3.33Z"/><path class="cls-3" d="M113.31,85.33a99.41,99.41,0,0,0,13.56-5.49c1-.47-.14-1.18-.84-.91a92.53,92.53,0,0,0-13.23,6c-.43.25.27.49.51.42Z"/><path class="cls-3" d="M108.3,74.25c2.8-3.82,5-8,7.49-12,.33-.54-1.12-.82-1.43-.25-2.16,4-4.66,8-6.47,12.18-.08.2.32.24.41.12Z"/><path d="M76.88,61.49c-7.5-1.79-11.27,6.26-13.82,11.75-1.88,4.05-3.93,8.06-5.66,12.18-1.09,2.62-1.66,5.4,0,7.9.09.13.31,0,.22-.13-2.19-3.25-.41-6.84,1-10s2.78-6,4.18-9c2.63-5.63,6.21-14.13,13.95-12.5a.12.12,0,0,0,.06-.23Z"/><path d="M56.6,92.26A19.38,19.38,0,0,0,52.48,104c-.06,5.87,2.49,11.93.24,17.65-.79,2-2.35,3.59-3.22,5.57-1,2.23-.63,4.71-1.2,7-.92,3.78-5,7.55-2.79,11.63.06.11.22,0,.17-.1-1.4-3.05.3-5.71,1.66-8.38a14.46,14.46,0,0,0,1.51-5.13c.29-2.63.61-4.75,2.12-7a15.47,15.47,0,0,0,2.55-5.14c1-4.33-.17-8.72-.63-13a21.07,21.07,0,0,1,3.79-14.84s0-.12-.08-.07Z"/><path d="M54.06,116.68a18,18,0,0,1,8.48-2.89c.19,0,.19-.3,0-.29A17,17,0,0,0,54,116.56c-.07,0,0,.16.07.12Z"/><path d="M62.56,113.7c3.75-3.46,7.5-7.57,9.35-12.4,2-5.16,2-11.07,5.85-15.4.1-.12-.07-.29-.17-.17-3.14,3.58-3.73,8.23-5,12.66-1.76,6.29-5.91,10.5-10.16,15.21-.06.07,0,.17.1.1Z"/><path d="M78,85a2.16,2.16,0,0,0-2.07-3.72c-.1,0-.05.21,0,.2a2.18,2.18,0,0,1,2.28.78,2.14,2.14,0,0,1-.33,2.67c-.05,0,0,.11.07.07Z"/><path d="M79,81.61c4.54-4.39,8.06-12.89,3-18.27-.09-.1-.26,0-.19.14,4.12,6.49,1.56,12.6-3,18-.07.08,0,.2.12.12Z"/><path d="M77.19,61.6a1.7,1.7,0,0,0-.69,3,.07.07,0,0,0,.09-.11,1.58,1.58,0,0,1,.64-2.74c.09,0,0-.16,0-.14Z"/><path d="M77.35,65.35a2.46,2.46,0,0,0,2.4.52s0-.1,0-.1a4.9,4.9,0,0,1-1.21,0,3.23,3.23,0,0,1-1.11-.48s-.09,0-.05.07Z"/><path d="M80.8,66c1.21-.08,2-1.73.86-2.51,0,0-.09,0-.06.08A1.46,1.46,0,0,1,82,65a1.33,1.33,0,0,1-1.21.93.07.07,0,0,0,0,.13Z"/><path d="M77.74,62.41a1.44,1.44,0,0,0,.18,2.38s.08,0,0-.08a1.41,1.41,0,0,1-.18-2.25s0-.08,0-.05Z"/><path d="M79.18,65.16a1.36,1.36,0,0,0,1.48-.55s0-.11-.08-.06a1.32,1.32,0,0,1-1.37.5.06.06,0,0,0,0,.11Z"/><path d="M77.53,62.07c.86-10,1.3-20.09,1.55-30.08,0-.16-.24-.15-.25,0-.73,10-1.29,20.1-1.4,30.08,0,.06.09.06.1,0Z"/><path d="M80.65,63c7.2-9,14-18.4,20.91-27.61.11-.15-.13-.28-.24-.14C94.38,44.49,87.22,53.57,80.55,63c0,.06.06.13.1.07Z"/><path d="M78,62.76a.6.6,0,0,0,.93.08s0-.08,0-.06a.8.8,0,0,1-.83-.06s-.06,0,0,0Z"/><path d="M77.69,63.78a2.51,2.51,0,0,0,2.78,0c.07-.06,0-.16-.07-.12a2.75,2.75,0,0,1-2.64.05c-.07,0-.14.07-.07.11Z"/><path d="M80.58,63.87c0,.36.1.72.18,1.08,0,0,.08,0,.08,0,0-.36-.11-.73-.18-1.09,0,0-.08,0-.08,0Z"/><path d="M77,62.81c.05.36.1.72.18,1.07,0,0,.1,0,.09,0,0-.36-.11-.73-.18-1.09,0-.05-.09,0-.09,0Z"/><path d="M80.6,63.34c.42.38-.19.58-.36.66s0,.11,0,.09c.23-.08.54-.1.6-.36a.44.44,0,0,0-.22-.46s-.09,0-.05.07Z"/><path d="M78.17,62.09a21.08,21.08,0,0,0,.39-7.55c0-.07-.13-.07-.12,0a26,26,0,0,1-.39,7.52c0,.07.1.11.12,0Z"/><path d="M79.09,62.24A86.62,86.62,0,0,1,82,51.16s-.08-.08-.1,0A62.13,62.13,0,0,0,79,62.22c0,.05.07.08.08,0Z"/><path d="M80.43,62.51a120.34,120.34,0,0,0,5.36-13.89s-.07-.07-.09,0c-1.68,4.67-3.4,9.29-5.35,13.87,0,.05.06.1.08,0Z"/><path d="M80.25,61.22c1.19-4.19,2.42-8.38,3.53-12.6a0,0,0,0,0-.09,0c-1.25,4.18-2.39,8.4-3.55,12.6a.06.06,0,1,0,.11,0Z"/><path d="M84.89,56.82a68.05,68.05,0,0,1,8.83-15.13s0-.06,0,0A59.63,59.63,0,0,0,84.8,56.8c0,.05.06.08.09,0Z"/><path d="M79.79,52.06c.81-6.57,1.48-13.17,2.11-19.75,0-.09-.13-.09-.14,0C81,38.88,80.27,45.47,79.7,52.06c0,.06.08.06.09,0Z"/><path d="M84.24,44.52C85,40,85.76,35.44,86.49,30.89c0-.07-.1-.1-.11,0C85.61,35.4,84.87,40,84.13,44.5c0,.06.1.09.11,0Z"/><path d="M81.85,49.74c.94-4.83,1.84-9.7,2.56-14.57a.06.06,0,0,0-.11,0c-1,4.82-1.75,9.71-2.5,14.58a0,0,0,0,0,0,0Z"/><path d="M85.18,47.23Q88.26,39.66,91.13,32c0-.07-.08-.1-.11,0q-3,7.57-5.9,15.23s0,.06.06,0Z"/><path d="M87.35,46.9A166.73,166.73,0,0,1,97,32c0-.05-.06-.1-.1-.05a120.17,120.17,0,0,0-9.65,14.88s.06.1.09,0Z"/><path d="M90.86,43.64q4.64-5,8.73-10.49c0-.08-.07-.15-.13-.08q-4.11,5.45-8.66,10.52s0,.09.06,0Z"/><path d="M84.73,30.19a2.29,2.29,0,0,0,1.88,1.16,19,19,0,0,0,4.76,0,.11.11,0,0,0,0-.22c-1.76-.15-5.44.84-6.53-1,0-.07-.15,0-.11.07Z"/><path d="M95.42,30.71c1.49,1.19,6.09,5.77,7.8,2.55a.1.1,0,0,0-.16-.13c-2.41,2.23-5.58-1.14-7.55-2.53-.07,0-.15.06-.09.11Z"/><path d="M83.13,28.57a1.59,1.59,0,0,0-1.66.29c-.39.29-.66.7-1,1s-1.12.93-1.73.47a1.13,1.13,0,0,1,.06-1.94c.19-.11,0-.41-.17-.29a1.43,1.43,0,0,0,.06,2.57c2,.86,2.52-2.74,4.41-2,.08,0,.13-.1.06-.14Z"/><path d="M78.33,28.24A2,2,0,0,1,77,26.37c0-.88.59-1.31,1.24-1.77a.11.11,0,0,0-.08-.2,2,2,0,0,0-1.43,2.07,2.15,2.15,0,0,0,1.61,1.91.07.07,0,0,0,0-.14Z"/><path d="M77.09,24.68c-1.88.3-2.63-1.48-2.16-2.94.24-.72.66-1.36,1-2.06a2.8,2.8,0,0,0,.18-2.53.15.15,0,0,0-.27.07c.28,2.16-1.59,3.62-1.47,5.69a2.25,2.25,0,0,0,2.83,2c.17,0,.1-.29-.07-.26Z"/><path d="M75.53,18.61a12.45,12.45,0,0,1-1.76-2.22c-1.58-3.62-.34-2.18.8-3.21a1.37,1.37,0,0,0,.58-1.1c.06-.56-.37-1-.39-1.5-.1-2.05,1-2.79,2.6-3.37,2.48-.9,5-.93,6.74,1.27.09.12.27,0,.2-.16-1-1.83-3.08-2.31-5-2-1.57.23-4.4.94-5,2.72-.3.88.31,1.4.32,2.25,0,2.24-1.25,1.46-2.08,2.63-1.08,1.53,2.1,4,2.87,4.85.09.1.22-.05.14-.15Z"/><path d="M85.18,9.69a4.85,4.85,0,0,1,5.51-4c2.36.48,3.65,2.45,4.18,4.65a.15.15,0,0,0,.3,0c-.27-6.1-9.29-6.75-10.38-.72,0,.26.34.36.39.11Z"/><path d="M86.21,12.66c1.53-1.39,5.46-1.41,6.78.28.13.16.35,0,.27-.2-1.12-2.24-5.7-1.69-7.2-.23a.11.11,0,1,0,.15.15Z"/><path d="M84,21c-.09-.94-1.54-.85-1.7,0A1.37,1.37,0,0,0,83,22.39a2.51,2.51,0,0,0,2.14-.1c.16-.08,0-.35-.13-.3-.79.24-1.9.55-2.38-.38a.7.7,0,0,1,.32-1,.61.61,0,0,1,.81.43c0,.11.21.08.19,0Z"/><path d="M83.57,22.3a1.18,1.18,0,0,0-.45,1.64,1.11,1.11,0,0,0,1.62.28.1.1,0,0,0-.1-.16,1.15,1.15,0,0,1-1.25-.23,1,1,0,0,1,.27-1.38c.09-.06,0-.21-.09-.15Z"/><path d="M92.81,20.67c.3.32.61.62.92.93s.64.54.19,1.1a14.62,14.62,0,0,0-1.48,1.94.12.12,0,0,0,.19.15,17.26,17.26,0,0,0,2-2.54.15.15,0,0,0,0-.17c-.58-.51-1.13-1-1.71-1.53-.08-.07-.2,0-.12.12Z"/><path d="M86.08,26.29c1.12,2,4.45,3.51,6.5,1.92.09-.08,0-.2-.11-.19a6.76,6.76,0,0,1-3.28.21,5.38,5.38,0,0,1-3-2,.09.09,0,0,0-.15.09Z"/><path d="M95.44,9.92c1.79-1,1.74,1.78,2,2.47.62,1.56,1.54,1.94,1.7,3.82.12,1.35.18,2.67-1,3.79-.55.52-.93.36-1.29,1.16a.14.14,0,0,0,.24.14c.88-1.37,3.08-1.07,3-3,0,.1-.52-1.56-.47-1.32a17.87,17.87,0,0,0-.29-2.33c-.29-.78-1-1.28-1.37-2,.8,1.6-.44-3-.36-3-.72-.77-1.48-.45-2.3,0a.1.1,0,0,0,.1.18Z"/><path d="M97.82,12.75A9.89,9.89,0,0,0,100,11a3.6,3.6,0,0,1,1.82-1.11c1-.18,2.36.86,1.4,1.89-.16.17.07.38.25.25,1-.81.27-2.3-.84-2.53-2.17-.44-3.31,2.18-4.89,3.08-.13.07,0,.26.11.2Z"/><path d="M103.08,11a3.18,3.18,0,0,1,5,.6c.92,1.77-.19,2.52-.66,4a1,1,0,0,0,.26,1.29,1.81,1.81,0,0,0,.46.18l.49,0c1.11-.12,1.83.59,2.13,2.13,0,.22.29.32.34.1a2,2,0,0,0-1.51-2.55c-.26-.06-.75.07-1,0-1.54-.76-.47-1.54-.16-2.22a3.42,3.42,0,0,0,.29-1.81A3.34,3.34,0,0,0,103,10.9c-.08.08,0,.2.13.13Z"/><path d="M112.2,21.6a2.58,2.58,0,0,1-1.36,1.3c-.11.06,0,.21.08.19a2,2,0,0,0,1.43-1.45.08.08,0,1,0-.15,0Z"/><path d="M111.56,20.12c-.26.48-.29.93-.87,1.16-.14.06-.08.28.06.23.51-.17,1.2-.8.9-1.39a.06.06,0,0,0-.09,0Z"/><path d="M112.06,23.52a3.17,3.17,0,0,1-1,1.48,5.64,5.64,0,0,1-1.49.75c-.1.05,0,.18,0,.18,1.27.13,2.37-1.26,2.62-2.35a.1.1,0,0,0-.2-.06Z"/><path d="M111.36,26.33a3.15,3.15,0,0,1,1,3.61A3.12,3.12,0,0,1,109,31.55c-.14,0-.15.18,0,.22,3.25,1.14,5.52-3.88,2.52-5.57-.08,0-.17.07-.1.13Z"/><path d="M106.91,23.25c1.31,1.92,1.33,3.19.08,3.81a2.53,2.53,0,0,0-.55.37c-.23.26-.53.41-.7.74a1.86,1.86,0,0,0-.2.8c0,.57.43.83.64,1.29a5.84,5.84,0,0,1,.75,3.78c-.25,1.32-2.07,5.31-4.41,2.62-.1-.12-.3,0-.22.17,2.28,3.77,5.76-2.65,5.32-4.93-.15-.77-.2-.5-.4-1-.42-1.06-.63-.22-.45-2s.17-1.05,1.27-2a2,2,0,0,0,.68-.81c.79-1.51-.25-2.77-1.74-3.06a.13.13,0,0,0-.07.26Z"/><path d="M66.75,65.91A15.08,15.08,0,0,0,72.9,69.3c.09,0,.12-.11,0-.14a20.55,20.55,0,0,1-6.07-3.37c-.08-.06-.2,0-.12.12Z"/><path d="M75.74,71.28a11.09,11.09,0,0,0,6.87,1.24c.07,0,0-.14,0-.13a12,12,0,0,1-6.78-1.22c-.08,0-.14.07-.07.11Z"/><path d="M65.2,68.69a10.62,10.62,0,0,0,7.54,3.72.06.06,0,1,0,0-.11,11.91,11.91,0,0,1-7.45-3.7.06.06,0,0,0-.09.09Z"/><path d="M63.89,71.46a12.22,12.22,0,0,0,7.41,4.06c.07,0,.1-.1,0-.12a14.8,14.8,0,0,1-7.39-4s-.09,0,0,.06Z"/><path d="M62.75,74.51a8.47,8.47,0,0,0,6.42,4.38c.08,0,.1-.13,0-.14a9.33,9.33,0,0,1-6.34-4.29.05.05,0,1,0-.09.05Z"/><path d="M61,78.5a10.24,10.24,0,0,0,7.82,3.07.06.06,0,1,0,0-.12,11.41,11.41,0,0,1-7.73-3,.06.06,0,0,0-.09.09Z"/><path d="M58.47,82.56a13.94,13.94,0,0,0,5.64,5.72.06.06,0,0,0,.06-.1,18.36,18.36,0,0,1-5.59-5.68.06.06,0,0,0-.11.06Z"/><path d="M57.22,86.69a16.92,16.92,0,0,0,5.52,5.61c.08,0,.15-.08.08-.13a18.21,18.21,0,0,1-5.45-5.57.09.09,0,1,0-.15.09Z"/><path d="M56.2,90.06a10.05,10.05,0,0,0,7.4,4.34.06.06,0,0,0,0-.12A11,11,0,0,1,56.32,90a.07.07,0,1,0-.12.07Z"/><path d="M55.21,94.19a9.34,9.34,0,0,0,6.61,1.72c.08,0,.06-.16,0-.16a10.87,10.87,0,0,1-6.52-1.67.06.06,0,0,0-.06.11Z"/><path d="M54,96.73a7.77,7.77,0,0,0,5.45,2.14.08.08,0,0,0,0-.16,9.63,9.63,0,0,1-5.37-2.06c-.06-.05-.14,0-.08.08Z"/><path d="M52.83,99.38a17.09,17.09,0,0,0,6.45,2.89.06.06,0,1,0,0-.11,25.24,25.24,0,0,1-6.43-2.87c-.06,0-.1,0-.05.09Z"/><path d="M52.61,103.16a8.64,8.64,0,0,0,6.15,2.48.07.07,0,0,0,0-.14,10,10,0,0,1-6.08-2.4s-.11,0-.07.06Z"/><path d="M52.81,107.65a11.24,11.24,0,0,0,5.06,2.12.05.05,0,0,0,0-.1,18.92,18.92,0,0,1-5-2.14.07.07,0,0,0-.07.12Z"/><path d="M53.56,111.71a6.73,6.73,0,0,0,4.27,2.21c.07,0,.07-.09,0-.11a10.22,10.22,0,0,1-4.17-2.22.08.08,0,0,0-.12.12Z"/><path d="M62.69,113.37c-1.54-.7-3.09-1.4-4.66-2-.06,0-.1.07-.05.1,1.53.72,3.11,1.36,4.68,2,0,0,.07,0,0-.07Z"/><path d="M65.57,108.16a5.44,5.44,0,0,1-4.17-2.33c-.06-.08-.18,0-.13.07a5.2,5.2,0,0,0,4.3,2.43c.11,0,.11-.16,0-.17Z"/><path d="M69.87,103.65a8.85,8.85,0,0,1-6-2.78s-.12,0-.08.06a7.67,7.67,0,0,0,6.11,2.89.09.09,0,0,0,0-.17Z"/><path d="M71.66,99.23A5.11,5.11,0,0,1,67.26,97a.08.08,0,0,0-.13.08,4.77,4.77,0,0,0,4.53,2.34.08.08,0,0,0,0-.16Z"/><path d="M74.38,91.32A12.5,12.5,0,0,1,69,88.79s-.11,0-.06.08a9.7,9.7,0,0,0,5.45,2.59c.09,0,.13-.12,0-.14Z"/><path d="M77.05,85c-1.32-.61-2.62-1.26-4-1.8-.07,0-.11.08,0,.11,1.27.67,2.61,1.23,3.92,1.83.1,0,.18-.1.09-.14Z"/><path d="M80.46,76c-.78-.3-1.55-.6-2.34-.87,0,0-.06,0,0,.06.77.33,1.55.63,2.32.93.08,0,.11-.09,0-.12Z"/><path d="M95.72,86.42c-6.06-.27-13.24-.37-17.41,4.86-3.37,4.22-2,9.78,1.21,13.67,3.5,4.27,8.88,6.5,14,3.58,5.38-3.09,6.87-9.49,6.49-15.27,0-.31-.5-.31-.48,0,.33,5.13-.72,10.72-5,14-5,3.84-10.88,1.92-14.64-2.65-3.5-4.27-4.48-10.4,0-14.39s10.48-3.72,15.9-3.52c.19,0,.19-.3,0-.3Z"/><path d="M96.07,86.6c-3.47,2.47-.5,8.13,3.51,6.57.07,0,0-.15,0-.13a3.66,3.66,0,0,1-3.4-6.35s0-.13-.07-.09Z"/><path d="M96.57,87.7a1.67,1.67,0,0,0,0,2.77s.1,0,.06-.08a1.67,1.67,0,0,1,0-2.63s0-.09,0-.06Z"/><path d="M96.73,92.2a.74.74,0,0,0,1,0s0-.1-.06-.08a.72.72,0,0,1-.83,0c-.06,0-.15,0-.08.09Z"/><path d="M96.06,87.07a2,2,0,0,1,2.09.66c.06.06.17,0,.12-.09A2,2,0,0,0,96,87a.05.05,0,0,0,0,.1Z"/><path d="M99.57,93.39a3.17,3.17,0,0,0,1-3c0-.15-.27-.09-.23.06a3,3,0,0,1-.87,2.87c-.07.06,0,.15.1.09Z"/><path d="M98.36,89.14c1-5.93,1.48-12,2-18a182.58,182.58,0,0,0,1-19c0-.12-.17-.11-.18,0-.65,6.13-.74,12.34-1.23,18.49S98.72,83,98.29,89.13c0,0,.07.05.07,0Z"/><path d="M100.16,92c12.21-2,24.42-3.32,36.72-4.57.14,0,.15-.23,0-.23a252.55,252.55,0,0,0-36.76,4.66c-.09,0-.05.16,0,.14Z"/><path d="M97.55,90.41a149.44,149.44,0,0,0,14.28-20.54c0-.07-.06-.13-.1-.07-4.6,7-9.55,13.67-14.2,20.6,0,0,0,0,0,0Z"/><path d="M97.82,91.1c7.6-3.85,15.37-7.24,23.17-10.66a.08.08,0,0,0-.07-.14A228.76,228.76,0,0,0,97.77,91c-.07,0,0,.13,0,.1Z"/><path d="M101,90.87c8.61-2.14,17.26-4.17,25.84-6.46.07,0,0-.12,0-.11-8.65,2-17.24,4.27-25.85,6.42a.08.08,0,1,0,0,.15Z"/><path d="M100.1,88.38a118.45,118.45,0,0,1,18.2-13.13c.06,0,0-.13,0-.1A91.4,91.4,0,0,0,100,88.3s0,.12.07.08Z"/><path d="M102.67,79.47A129.21,129.21,0,0,1,107,60.84c0-.07-.09-.1-.12,0a97.44,97.44,0,0,0-4.4,18.61c0,.1.14.14.15,0Z"/><path d="M101.54,76.76c.93-4.53,1.9-9.06,2.73-13.61,0-.06-.08-.09-.1,0-1,4.52-1.85,9.07-2.75,13.61,0,.08.11.11.12,0Z"/><path d="M104.51,78.84c3.21-5.18,6.51-10.34,9.57-15.61,0,0,0-.1-.08,0-3.32,5.12-6.42,10.39-9.6,15.6,0,.07.07.13.11.06Z"/><path d="M100.92,84.46a13.05,13.05,0,0,1-.19-5.17c0-.06-.08-.09-.09,0a11.37,11.37,0,0,0,.18,5.22.05.05,0,0,0,.1,0Z"/><path d="M107.68,80a130,130,0,0,1,15.18-13.64s0-.1,0-.07a99.91,99.91,0,0,0-15.2,13.64s0,.12.07.07Z"/><path d="M114.7,80.59c5.1-2.75,10.27-5.41,15.28-8.34.08,0,0-.17-.08-.13-5.17,2.62-10.21,5.53-15.28,8.33a.08.08,0,0,0,.08.14Z"/><path d="M118.65,83.83a117.32,117.32,0,0,1,12.7-5.55c.1,0,.06-.2,0-.16a94.86,94.86,0,0,0-12.74,5.57.08.08,0,0,0,.08.14Z"/><path d="M122.57,87.6c4.49-1,9-1.83,13.45-3a.07.07,0,0,0,0-.13c-4.52.83-9,2-13.45,3-.08,0-.05.14,0,.13Z"/><path d="M104.13,53.82c.16,1.79.28,3.6.51,5.38,0,.07.12.08.12,0-.1-1.8-.32-3.59-.49-5.38a.07.07,0,0,0-.14,0Z"/><path d="M105.34,52.48a1.5,1.5,0,0,1-1.73-.93c-.28-.93.52-1.43,1.23-1.73.09,0,.12-.18,0-.2-1-.24-1.79,1-1.61,1.88a1.61,1.61,0,0,0,2.16,1.14c.08,0,0-.17,0-.16Z"/><path d="M102.55,52.39a3.62,3.62,0,0,0-2.27.46c-.46.24-.88.55-1.34.78a2.61,2.61,0,0,1-1.6.4c-.81-.16-2.16-1.21-.78-2.12a.11.11,0,0,0-.09-.2c-1.26.36-.92,2,.13,2.49,2.13.89,3.83-1.93,5.94-1.68.07,0,.09-.12,0-.13Z"/><path d="M95.58,51.06a4.76,4.76,0,0,1,.4-6.42c.16-.16-.08-.39-.25-.25a4.86,4.86,0,0,0-.3,6.81c.09.1.23,0,.15-.14Z"/><path d="M107.86,51.69s0,0,0,0,0,0,0,0Z"/><path d="M108.32,49.4c-1,1.31-2.08,3.19-1,4.78a1.76,1.76,0,0,0,2.91.18c.07-.11-.09-.22-.18-.14-1.26,1.2-2.8-.09-2.82-1.54a6.18,6.18,0,0,1,1.27-3.19c.06-.1-.09-.18-.16-.09Z"/><path d="M110.53,55.73A3.78,3.78,0,0,0,116.12,58a.13.13,0,0,0-.13-.23c-2.13.92-4.51.25-5.32-2.07,0-.09-.17,0-.14,0Z"/><path d="M110.69,58.1a106.83,106.83,0,0,0-4.75,12.72,0,0,0,0,0,.08,0c1.58-4.23,3-8.49,4.82-12.65,0-.1-.11-.19-.15-.09Z"/><path d="M117.64,57.1c.58-2.07,1.34-3.78,3.51-4.46a4.23,4.23,0,0,0,1.91-.74c1.35-1.19,1.21-3.13.9-4.74,0-.16-.32-.13-.3,0,.26,2.09.28,4.07-2,5.07-.79.34-1.41.2-2.15.76-1.26.95-1.64,2.58-2,4,0,.09.12.13.14,0Z"/><path d="M108.57,48.46c-1.87-.16.66-3,.79-3.13.46-.54.93-1.06,1.42-1.57,1-1,2.09-1.89,3.12-2.84.07-.07,0-.18-.09-.13A21.94,21.94,0,0,0,108.47,46c-.56.73-1.6,2.55.1,2.63.1,0,.1-.14,0-.15Z"/><path d="M108.85,42.6a8,8,0,0,0-3.37,5.15c0,.12.16.13.2,0a9.87,9.87,0,0,1,3.24-5.08c.06,0,0-.13-.07-.1Z"/><path d="M105,41.81a1.77,1.77,0,0,0-1,2,.07.07,0,0,0,.13,0,2.05,2.05,0,0,1,1-1.86.08.08,0,0,0-.08-.14Z"/><path d="M118.42,28.5c-2.3-.32-4.61,1.76-5.69,3.64a2.47,2.47,0,0,0,0,2.73,1.43,1.43,0,0,0,1.81.48.12.12,0,0,0-.06-.23c-2,.09-2-1.88-1.27-3a8.53,8.53,0,0,1,1.38-1.56c1-1,2.29-2.06,3.85-1.91.1,0,.12-.16,0-.17Z"/><path d="M117.27,30.31a3.52,3.52,0,0,0,2.08.43c.26,0,.26-.44,0-.41a2,2,0,0,0-.42.08.13.13,0,0,0,0,.25,2,2,0,0,0,.42.08v-.41a3.76,3.76,0,0,1-1.93-.27c-.17-.07-.32.16-.15.25Z"/><path d="M124.34,31.57a2.93,2.93,0,0,0,.52,2.42c.79,1.19,3,3.38.88,4.58-.15.08,0,.28.12.21a1.87,1.87,0,0,0,1-2.12c-.35-2-2.65-2.84-2.37-5.07,0-.07-.1-.08-.12,0Z"/><path d="M123.62,53.23c-1.76.73-3.76,1.79-4.59,3.61a3.4,3.4,0,0,0,.68,4.1c.12.09.23-.1.15-.2A3.63,3.63,0,0,1,120,56a12.76,12.76,0,0,1,3.69-2.62s0-.13,0-.11Z"/><path d="M121.67,62.86a1.16,1.16,0,0,0,.29,1.66c1,.81,2.73,0,3.5,1.27a.19.19,0,0,0,.33-.2,1.8,1.8,0,0,0-1.5-1c-.4-.06-.8,0-1.19-.08-.72-.07-1.93-.68-1.28-1.59.06-.08-.08-.19-.15-.11Z"/><path d="M126.37,66.21a7.28,7.28,0,0,1,3.17-4.9,6.69,6.69,0,0,1,2.43-1c1.13-.23,4.65.32,2.92,2.14a.22.22,0,0,0,.31.31,1.53,1.53,0,0,0,.26-2c-.68-1.09-2.26-1.08-3.37-.89a7.48,7.48,0,0,0-6,6.32c0,.2.27.28.3.08Z"/><path d="M126.49,69.43s0,0,0,0,0,0,0,0Z"/><path d="M126.5,69.43c-.87.72-.25,1.44.3,2.15,1.12,1.43.08-2.19,1.56,2.59.07.23,0,.56.09.8a19.86,19.86,0,0,0,1.67,2.94c.82,1.29,1.69,2.55,2.46,3.87s1.42,2.42,1.12,4.3c-.12.75-.48,1.45-.62,2.19-.27,1.42-.14,2.73,1.08,3.6.17.12.37-.15.22-.28-2.22-2,.08-4.62-.11-6.94-.16-1.84-1.6-3.54-2.55-5-.66-1-1.33-2-2-3.08a8.38,8.38,0,0,1-.9-3.21c-.18-.87-2.54-3.42-2.2-3.76.09-.1-.05-.23-.15-.15Z"/><path d="M135.8,94.93c2.14.72,5.06.14,6.33-1.88.11-.17-.12-.32-.26-.21-1.8,1.52-3.59,2.37-6,1.79a.16.16,0,0,0-.08.3Z"/><path d="M129,91.28a7.41,7.41,0,0,0,1.46,4.18c.71.76,2.09,1.5,3.09.89a.12.12,0,0,0-.06-.23,4.15,4.15,0,0,1-1.84-.27,3.55,3.55,0,0,1-1.41-1.36,9.35,9.35,0,0,1-1-3.27c0-.16-.27-.09-.24.06Z"/><path d="M139.2,97.91c5.24-.69,8.4-7,5.36-11.49a.15.15,0,0,0-.25.15c2.15,4.94.16,9.67-5.13,11.18-.09,0-.07.17,0,.16Z"/><path d="M139.62,87.25c3.85-2.68,1.73-8.57,5.58-11.28.15-.1,0-.34-.14-.24-4.11,2.39-2.08,8.41-5.55,11.38-.07.07,0,.19.11.14Z"/><path d="M143.75,87c2.43-1.87,7.79-1.19,7.76-5.46a3.71,3.71,0,0,0-.28-1.39,2.62,2.62,0,0,0-.56-.89c-.8-1-.7-.51-.79-2.39,0-.88.41-2.31-.18-3.07-.15-.19-.5.07-.35.27.43.55-.79,2.06-.77,2.78,0,1.12,1,1.64,1.56,2.44,2.43,3.42-.48,5.23-3.45,6.11a8.55,8.55,0,0,0-3.07,1.47c-.1.08,0,.21.13.13Z"/><path d="M151.38,73.15a8.09,8.09,0,0,0,3.72-5.69c.32-2.34.24-5.81-1.46-7.63-.15-.16-.37.07-.23.23,1.47,1.73,1.53,4.45,1.4,6.61A8,8,0,0,1,151.28,73a.1.1,0,0,0,.1.17Z"/><path d="M153,58c.87-1.7,2.32-5.72-.5-6.55a.1.1,0,0,0-.1.16,3.66,3.66,0,0,1,1.4,2.77,8.8,8.8,0,0,1-1,3.49c-.06.15.15.29.23.13Z"/><path d="M152.15,51c-1.56-2,1.76-4.32-.28-6.28-1.55-1.48-4-1-5.75-.3a.1.1,0,0,0,0,.2,12.34,12.34,0,0,1,3.4-.47A3.34,3.34,0,0,1,152,45.48c.62.84.08,1.92-.21,2.73-.36,1-.58,2.09.27,2.91.05.05.12,0,.08-.08Z"/><path d="M143.45,49.06c.91-2,1.92-4.27,1.58-6.56a6.53,6.53,0,0,0-.84-2.32,6.21,6.21,0,0,1-1-2.5c-.16-.92.06-1.37,0-2.12-.52-3.92-7.31-1.41-9.53-.61a.1.1,0,0,0,.05.19c1.77-.44,4.68-1.56,6.48-1.17.78-.19,1.3.19,1.53,1.15a1.43,1.43,0,0,1,.74,2c0,.25,0,.53.05.79.28,1.43,1.57,2.48,2,3.87.74,2.44-.39,5-1.35,7.13-.1.22.22.42.32.2Z"/><path d="M139.44,32.33c-.12-4.82-6.24-8.23-9.81-4.21-.07.08,0,.23.12.16,1.68-1.1,3.54-1.83,5.55-1.19a5.76,5.76,0,0,1,3.86,5.24c0,.17.28.17.28,0Z"/><path d="M129.64,32.12a5.48,5.48,0,0,0-.9-4,5.75,5.75,0,0,0-2.15-1.76c-1.42-.78-1.86-1.74-2.82-3.06-2-2.83-6.59-1.57-9,.13-.15.11,0,.36.15.26a10.47,10.47,0,0,1,5.23-1.59c2.27,0,3,1.8,4.17,3.27a7.7,7.7,0,0,0,2.39,1.51,5.46,5.46,0,0,1,2.75,5.27c0,.12.17.12.19,0Z"/><path d="M116.88,21a4,4,0,0,0-6.8-1.52.17.17,0,0,0,.24.24,4,4,0,0,1,6.46,1.32.05.05,0,0,0,.1,0Z"/><path d="M93.07,86.24a8,8,0,0,0,1.32,6.93s.13,0,.1,0a8.62,8.62,0,0,1-1.29-6.85.07.07,0,0,0-.13,0Z"/><path d="M89.53,86.52A11.3,11.3,0,0,0,90,94.25c0,.06.11,0,.09,0a12.68,12.68,0,0,1-.42-7.68.06.06,0,0,0-.11,0Z"/><path d="M86.36,86.85a15.12,15.12,0,0,0,2,10.27s.09,0,.07-.05a16.9,16.9,0,0,1-1.89-10.2c0-.07-.12-.09-.13,0Z"/><path d="M83.56,87.58a13,13,0,0,0,2.09,9.78,0,0,0,1,0,.07,0,15.44,15.44,0,0,1-2-9.72c0-.08-.12-.09-.13,0Z"/><path d="M81,88.86a15,15,0,0,0,3.78,10.46.05.05,0,0,0,.08-.06,17.94,17.94,0,0,1-3.75-10.4c0-.07-.1-.07-.11,0Z"/><path d="M78.73,91a23,23,0,0,0,5.15,12.43s.08,0,.06,0A28.58,28.58,0,0,1,78.84,91c0-.06-.11,0-.11,0Z"/><path d="M77.15,93.62c.9,5.06,4.31,9.21,7.71,12.88.06.06.14,0,.09-.09-3.25-4-6.43-7.73-7.69-12.82,0-.07-.12,0-.11,0Z"/><path d="M78.07,102.4a2.51,2.51,0,0,1-.09,1.71s0,.11,0,.12a4,4,0,0,1,2,.91l0-.18-.23.05c-.09,0-.06.13,0,.14l.25,0a.1.1,0,0,0,.07-.18,3.48,3.48,0,0,0-.88-.59,3.07,3.07,0,0,0-.42-.17,3,3,0,0,1-.59-.13c-.11-.15.09-.61.09-.82a2.21,2.21,0,0,0-.16-.92s-.11,0-.1,0Z"/><path d="M78.55,104a3.89,3.89,0,0,0-2.72,3.46c-.52,3.78,2.71,7,.61,10.77,0,0,0,.1.08,0,2.58-4.23-3.68-11.7,2.07-14.13a.08.08,0,1,0,0-.15Z"/><path d="M99,101.81a8.91,8.91,0,0,1-6.16-5.12s-.11,0-.09,0a8.08,8.08,0,0,0,6.22,5.2c.08,0,.12-.11,0-.13Z"/><path d="M97.94,104.67a27.83,27.83,0,0,1-3.42-1.9,16,16,0,0,1-3-3c-.07-.09-.22,0-.16.12,1.35,2.21,3.93,4.44,6.54,4.9,0,0,.07,0,0-.07Z"/><path d="M95.45,107a16.46,16.46,0,0,1-6.28-6A.09.09,0,0,0,89,101a12.42,12.42,0,0,0,6.37,6.08c.09,0,.14-.1.06-.14Z"/><path d="M91.54,109c-3-1.66-4.06-4.55-5.26-7.6a.07.07,0,0,0-.14,0c.87,3,2.26,6.42,5.36,7.66a.05.05,0,0,0,0-.1Z"/><path d="M96.46,97.14c.83.36,1.66.77,2.53,1,0,0,.07,0,0-.07A26.52,26.52,0,0,0,96.5,97c-.06,0-.1.07,0,.1Z"/></svg>