<svg id="carracters" xmlns="http://www.w3.org/2000/svg" viewBox="0 0 198.43 35.67"><defs><style>.cls-1{fill:#fff;}.cls-2{fill:#6e6e6e;opacity:0.5;}.cls-3{fill:#231f20;}</style></defs><path d="M168.09,24.87l-1.69-.71c3.34-6.07,4.79-9.49,4.87-11.57h-4.73V10.83c1.45,0,2.9-.05,4.35,0,.72,0,1-.25,1.07-.91.14-1.06.33-2.12.53-3.33l2.75.32c-1.45,1-.93,2.45-1.59,3.93l7.48-1.19.31,1.74-8,1.21A37.72,37.72,0,0,1,168.09,24.87Z"/><path d="M129.91,25.1A33.25,33.25,0,0,0,135,13.5h-4.84V11.78h5.22l.72-4.23,2.69.3c-1.36,1-.88,2.45-1.53,3.94l7.49-1.2.27,1.76-8,1.2a37.35,37.35,0,0,1-5.32,12.24Z"/><path d="M180.18,22.15V17.8l1.61-.15c.11,1.43.28,2.81.31,4.18,0,.77.39,1.05,1,1.35,1.49.73,2.93,1.56,4.48,2.39l-.94,1.73-4.39-2.59c0,.34-.07.5-.09.66a3.67,3.67,0,0,1-3.41,3.71,6.92,6.92,0,0,1-4.19-.45,3.12,3.12,0,0,1-2-2.79,3.2,3.2,0,0,1,1.63-3.15,6.88,6.88,0,0,1,5.23-.71Zm-2.88,5.57a10.74,10.74,0,0,0,2-.61c1.05-.53,1.52-2.74.77-3.25a5.73,5.73,0,0,0-5.2.3A1.65,1.65,0,0,0,175,27,12.35,12.35,0,0,0,177.3,27.72Z"/><path d="M141.93,17.08l-.26-1.65L150.78,14l.14,1.83Z"/><path d="M178.34,16.13l-.19-1.35a25.33,25.33,0,0,1,9-1.35l0,.1c.21,1.58.2,1.51-1.33,1.67C183.42,15.45,181,15.8,178.34,16.13Z"/><path class="cls-1" d="M17.41,25.28l-1.69-.71c3.34-6.07,4.79-9.48,4.87-11.57H15.86V11.24c1.45,0,2.9,0,4.35,0,.72,0,1-.25,1.07-.91.14-1.07.33-2.12.53-3.34l2.75.33c-1.45,1-.93,2.44-1.59,3.92l7.48-1.18.31,1.74-8,1.21A37.57,37.57,0,0,1,17.41,25.28Z"/><path class="cls-1" d="M29.5,22.57V18.22l1.61-.16c.11,1.44.28,2.81.31,4.19,0,.76.39,1.05,1,1.35,1.49.72,2.93,1.55,4.48,2.38L36,27.72l-4.39-2.59c0,.33-.07.49-.09.65a3.67,3.67,0,0,1-3.41,3.72A6.92,6.92,0,0,1,23.89,29a3.1,3.1,0,0,1-2-2.78,3.21,3.21,0,0,1,1.63-3.16,6.84,6.84,0,0,1,5.23-.7Zm-2.88,5.57a12.47,12.47,0,0,0,2-.61c1.05-.53,1.52-2.74.77-3.25a5.7,5.7,0,0,0-5.2.29,1.66,1.66,0,0,0,.15,2.81A13.15,13.15,0,0,0,26.62,28.14Z"/><path class="cls-1" d="M27.66,16.55l-.19-1.35a25.14,25.14,0,0,1,9-1.35.3.3,0,0,1,0,.1c.21,1.58.2,1.51-1.33,1.66C32.74,15.86,30.28,16.22,27.66,16.55Z"/><path class="cls-2" d="M59.82,25.09l-1.69-.71c3.35-6.07,4.79-9.48,4.87-11.57H58.27V11.05c1.45,0,2.9,0,4.35,0,.72,0,1-.25,1.07-.91.14-1.06.33-2.12.53-3.33L67,7.15c-1.44,1-.93,2.44-1.58,3.92l7.47-1.19.32,1.74-8,1.21A37.65,37.65,0,0,1,59.82,25.09Z"/><path class="cls-2" d="M71.91,22.37V18l1.61-.15c.12,1.43.28,2.81.32,4.19,0,.76.38,1,1,1.35,1.49.72,2.93,1.55,4.47,2.38l-.93,1.73L74,24.93c0,.34-.08.5-.09.66a3.67,3.67,0,0,1-3.42,3.71,6.86,6.86,0,0,1-4.19-.45,3.13,3.13,0,0,1-2-2.78,3.22,3.22,0,0,1,1.63-3.16,6.91,6.91,0,0,1,5.24-.71ZM69,27.94a11.65,11.65,0,0,0,2-.6c1-.54,1.51-2.75.76-3.26a5.73,5.73,0,0,0-5.2.3,1.65,1.65,0,0,0,.15,2.8A12.35,12.35,0,0,0,69,27.94Z"/><path class="cls-2" d="M70.07,16.35,69.88,15a25.61,25.61,0,0,1,9-1.35.54.54,0,0,1,0,.1c.21,1.59.2,1.52-1.33,1.67C75.15,15.67,72.69,16,70.07,16.35Z"/><path class="cls-2" d="M109.1,22.61V18.26l1.61-.15c.12,1.43.28,2.8.31,4.18,0,.77.39,1.05,1,1.35,1.49.72,2.93,1.55,4.48,2.38l-.94,1.74-4.38-2.59c0,.33-.08.49-.1.65a3.67,3.67,0,0,1-3.41,3.72,6.93,6.93,0,0,1-4.19-.46,3.1,3.1,0,0,1-2-2.78,3.21,3.21,0,0,1,1.63-3.16,6.86,6.86,0,0,1,5.24-.7Zm-2.88,5.57a11.28,11.28,0,0,0,2-.61c1-.53,1.52-2.74.77-3.25a5.7,5.7,0,0,0-5.2.29,1.66,1.66,0,0,0,.15,2.81A12.35,12.35,0,0,0,106.22,28.18Z"/><path class="cls-2" d="M107.26,16.59l-.19-1.35a25.16,25.16,0,0,1,9-1.35l0,.1c.21,1.58.2,1.51-1.33,1.66C112.34,15.91,109.88,16.26,107.26,16.59Z"/><path d="M131.65,26,130,25.25c3.34-6.07,4.78-9.48,4.86-11.57H130.1V11.92c1.45,0,2.9,0,4.35,0,.72,0,1-.26,1.07-.92.14-1.06.34-2.12.53-3.33l2.76.33c-1.45,1-.94,2.44-1.59,3.92l7.47-1.19.32,1.74-8,1.22A37.48,37.48,0,0,1,131.65,26Z"/><path class="cls-2" d="M143.74,23.24V18.89l1.61-.15c.12,1.43.28,2.81.32,4.19,0,.76.38,1,1,1.35,1.49.72,2.93,1.55,4.47,2.38l-.93,1.73-4.39-2.58c-.05.33-.07.49-.09.65a3.68,3.68,0,0,1-3.42,3.72,6.9,6.9,0,0,1-4.18-.46,3.13,3.13,0,0,1-2-2.78,3.22,3.22,0,0,1,1.63-3.16,6.86,6.86,0,0,1,5.24-.7Zm-2.88,5.57a11.65,11.65,0,0,0,2-.6c1-.54,1.51-2.75.77-3.26a5.75,5.75,0,0,0-5.21.3,1.65,1.65,0,0,0,.16,2.81A12.75,12.75,0,0,0,140.86,28.81Z"/><path d="M141.9,17.22l-.19-1.35a25.37,25.37,0,0,1,9-1.34.32.32,0,0,1,0,.09c.21,1.59.21,1.52-1.33,1.67C147,16.54,144.52,16.9,141.9,17.22Z"/><path d="M172.12,23.13c1.16-1.84,3-2.3,5-2.42a6.22,6.22,0,0,0,.9-.21l.35.82a5.78,5.78,0,0,0-6.17,1.87Z"/><path d="M183.39,16.76v4.07l.6-.31-1,.93-.87-1,.85.46.32-4.13Z"/><path d="M172.19,23.19c-1.1,2.58-.92,3.33,1.38,5.52-2.25-.78-3-4.12-1.45-5.58Z"/><path d="M99.78,9.06l-1-1.28.11-.13.66.59.73-4.06.18,0Z"/><path d="M63.45,8.59l-.89.95-.11-.06.33-.75H58.64V8.52h4.07l-.39-.76.11-.12Z"/><path d="M139.55,18.22h4.15l-.58-.68.15-.15,1,.93-.89.94-.12-.06.37-.73h-4.12Z"/><path d="M58.27,12.81V11.05A87.46,87.46,0,0,0,72.86,9.88c0,.09.07.35.12.61s.1.58.2,1.13C67.43,12.63,62.38,13.18,58.27,12.81Z"/><path d="M95.32,24.49a33.29,33.29,0,0,0,5-11.48H95.45V11.19c1.5,0,3,0,4.41,0,.65,0,.94-.17,1-.84.13-1.1.35-2.18.56-3.39l2.69.36c-1.4,1-.89,2.49-1.49,3.91l7.44-1.2.29,1.77c-2.39.34-4.67.74-7,1a1.25,1.25,0,0,0-1.3,1.1,36.12,36.12,0,0,1-4.2,10.06C97,25.37,97,25.37,95.32,24.49Z"/><polygon class="cls-3" points="119.14 17.09 125.17 17.59 119.14 18.09 119.14 17.09"/><polygon class="cls-3" points="122.58 15.15 125.18 17.6 122 15.97 122.58 15.15"/><polygon class="cls-3" points="121.97 19.22 125.17 17.58 122.54 20.04 121.97 19.22"/><polygon class="cls-3" points="156.16 17.12 162.2 17.62 156.16 18.12 156.16 17.12"/><polygon class="cls-3" points="159.6 15.18 162.2 17.63 159.02 15.99 159.6 15.18"/><polygon class="cls-3" points="158.99 19.25 162.2 17.61 159.57 20.06 158.99 19.25"/><polygon class="cls-3" points="82.64 16.98 88.68 17.48 82.64 17.98 82.64 16.98"/><polygon class="cls-3" points="86.08 15.04 88.68 17.49 85.5 15.85 86.08 15.04"/><polygon class="cls-3" points="85.47 19.11 88.68 17.47 86.05 19.92 85.47 19.11"/></svg>