<svg id="illustration" xmlns="http://www.w3.org/2000/svg" viewBox="0 0 198.43 133.35"><defs><style>.cls-1{fill:#6e8491;}.cls-2{fill:#d7e5ed;}.cls-3{fill:#50626c;}.cls-4{fill:#676b6d;}.cls-5{fill:#005c24;}.cls-6{fill:#005949;}.cls-7{fill:#d64f9d;}.cls-8{fill:#fff;}.cls-9{fill:#501834;}.cls-10{fill:#85d1da;}.cls-11{fill:#f68723;}.cls-12{fill:#2a4b39;}.cls-13{fill:#231f20;}.cls-14{fill:#010101;}</style></defs><path class="cls-1" d="M126.39,24.8l-1-6.66s-2.37-6.55-12.09-4.5-10.92,15.54-10.92,15.54-.76,19.34-5.86,24.6C85.13,69.2,73.93,73.94,73.93,73.94L64.7,78.4l-3.84,1.67-9.7,3.56L36.77,88.8s-4.08,1.13-3.83,1.67,3.83,1.29,3.83,1.29l7.41,1-6.91,2.88L26.78,99.75l-3.13,1.32a1.59,1.59,0,0,0-.19,1.8c.48,1.18,2.54,1.36,2.54,1.36l8.91-2.81,2.77-1s2,0,3,0,16.46-.94,16.46-.94l13.87-.72,7.72.12,5.28,1.6,3,2.15,1.49,3,.07,4.32.68,3.51,1.63,3.24L95.64,115,94.49,111l.4-4.29.61-2.18,1.55-3,3.18-3.5,7.52-6.46s11.55-7.11,14-11.45a27.31,27.31,0,0,0,3.57-17.67c-1-7.44-6.24-29.84-4.66-33-.07-.66,1.55-3.93,3.15-4.17Z"/><path class="cls-2" d="M124.63,56.45a148.55,148.55,0,0,0-15.26,17c-6.07,8.33-11.64,19.83-22,21.75s-21.84,3.67-21.84,3.67h9.79L82.63,100l4,2.08,1.49,2.31.46,4,0,3.64,1.24,3.48,1,1.21L95.64,115l-1.55-4.65.4-2.42,1.2-4,1.36-2.49,4.06-5.14,7.11-5,9.09-6.36s6.57-6.56,7.32-12.64C126.39,66.23,124.63,56.45,124.63,56.45Z"/><path class="cls-3" d="M121.78,43.53c0-1.5-2.64-10.85-1-14-.08-.65,1.55-3.93,3.15-4.17l2.53-.4-1-6.66S123,11.74,113.28,13.8s-10.92,15.53-10.92,15.53-1.26,9.12-2.56,15.38A75.21,75.21,0,0,1,110.3,43c4.91-.33,8.08.75,9.41.75A7,7,0,0,0,121.78,43.53Z"/><path class="cls-1" d="M94.89,56.36l5.24-1.16h5.25L111,56.45l4.52,2.72,2.92,2.09,3,3.71a35.82,35.82,0,0,1,1.56,3.29c.15.61-1.28,4.94-1.28,4.94l-1.4,3.17-1.91,3-2.31,3.27-2.78,2.92L110.72,88l-2.84,1.59L105.59,91l-3.81,1.53-3.29.76-2.8.49-1.8-.34-1.74.74-1.28.18h-.63l-1.78.21H86.18l-4.45.08-1.35-.08-2.27-.79-3.27.57a11.65,11.65,0,0,1-2.55-.57C72,93.53,70,92.19,70,92.19L65.55,93l-11,.06H47.3L39,92.19s-5.66,0-5.79-1.47,1.46-1.27,1.46-1.27l4.63-1.58,9.5-3.48L61.72,79.7,68.25,77l6.59-3.53,8-4.72,6.4-5.46,4.35-5Z"/><path class="cls-1" d="M72.05,76.83a.47.47,0,0,0,0-.93.47.47,0,0,0,0,.93Z"/><path class="cls-1" d="M72.4,75.52a1,1,0,0,0,0,.41l0,.1a3.54,3.54,0,0,0,.16.34l.22.36.45.72a.9.9,0,0,0,.49.37.84.84,0,0,0,.64-.08.8.8,0,0,0,.37-.49.77.77,0,0,0-.08-.63l-.51-.69-.36-.47a1,1,0,0,0-.58-.41.76.76,0,0,0-.51.07.69.69,0,0,0-.31.4Z"/><path class="cls-4" d="M68.71,77.32A8.71,8.71,0,0,0,71,79.4c.86.66,1.71,1.32,2.54,2,1.63,1.36,3.22,2.76,4.83,4.14,3,2.55,6.24,5,10.17,5.81a12,12,0,0,0,3.22.24c1-.06,2.4-.15,3-.95a.58.58,0,0,0-.25-1A8.67,8.67,0,0,0,92,90a10.5,10.5,0,0,1-2.8-.14,15.26,15.26,0,0,1-5.11-2c-3.33-2-6-4.89-9.11-7.25-.94-.72-1.87-1.44-2.84-2.13a8.12,8.12,0,0,0-3-1.66.38.38,0,0,0-.43.55Z"/><path class="cls-4" d="M94.3,90.08c0,.38.41.62.7.78a3,3,0,0,0,1.15.31,4.27,4.27,0,0,0,1.07,0,1.74,1.74,0,0,0,1.07-.46.55.55,0,0,0-.38-.92,4,4,0,0,0-1,.16c-.07,0-.07,0,0,0h-.77l-.22,0h-.11c.06,0,.06,0,0,0s-.35-.07-.53-.09H95.2c.06,0,0,0,0,0l-.28,0a.77.77,0,0,0-.45.06.31.31,0,0,0-.15.26Z"/><path class="cls-4" d="M97.42,90.09v0a.43.43,0,0,0,.23.39,6.51,6.51,0,0,0,1.06.52,6.08,6.08,0,0,0,1.2.24,8.85,8.85,0,0,0,2.41-.1,8.69,8.69,0,0,0,2.21-.73A3.62,3.62,0,0,0,106.4,89a.5.5,0,0,0-.48-.63,2.62,2.62,0,0,0-1,.4c-.29.15-.6.3-.9.43a10,10,0,0,1-2,.56,9.65,9.65,0,0,1-2,.1l-1-.08c-.34,0-.68,0-1-.07a.5.5,0,0,0-.52.21h0a.23.23,0,0,0-.06.21Z"/><path class="cls-4" d="M68.78,77.61c.92-.43,1.77-1,2.69-1.44.43-.22.87-.43,1.31-.61l.74-.3a1.88,1.88,0,0,0,.71-.38.39.39,0,0,0-.17-.63,2.94,2.94,0,0,0-1.54.36,15.69,15.69,0,0,0-1.5.69,8.6,8.6,0,0,0-2.57,1.89.27.27,0,0,0,.33.42Z"/><path class="cls-4" d="M73.37,74.89C74.72,78,76.78,80.7,80,82c.81.33,1.66.59,2.45,1a10.65,10.65,0,0,1,2.16,1.55c1.22,1,2.9,2,4.44,1,.45-.29.17-1.16-.39-.93-1.67.7-3-1-4.16-1.89a15.7,15.7,0,0,0-4.16-2c-3-1.18-4.53-3.91-6.42-6.28-.26-.33-.68.09-.54.42Z"/><path class="cls-4" d="M88.83,85.31a5.55,5.55,0,0,0,2.37,1.84,13.49,13.49,0,0,0,3,1.13,12.17,12.17,0,0,0,3.12.38,5.52,5.52,0,0,0,3-.58c.17-.11.18-.44-.06-.48a18.64,18.64,0,0,0-2.79.1,13,13,0,0,1-3-.36,12.8,12.8,0,0,1-2.79-1c-.42-.21-.83-.46-1.23-.71a5.87,5.87,0,0,0-1.29-.73.3.3,0,0,0-.33.43Z"/><path class="cls-4" d="M99.72,88.22a3.18,3.18,0,0,0,1.54.6,9.08,9.08,0,0,0,1.81.12,10.28,10.28,0,0,0,1.74-.25c.29-.07.57-.15.85-.24a1.25,1.25,0,0,0,.75-.44.34.34,0,0,0-.2-.5c-.3-.08-.54.08-.82.17a6.21,6.21,0,0,1-.74.2,9.43,9.43,0,0,1-3.18.17l-.78-.08a2.89,2.89,0,0,0-.83-.08.2.2,0,0,0-.14.33Z"/><path class="cls-4" d="M105,88.7a14.89,14.89,0,0,0-1.63.12c-.52,0-1,0-1.55,0a13.27,13.27,0,0,1-1.54-.1q-.41,0-.81-.12a1.67,1.67,0,0,0-.83,0,.42.42,0,0,0-.18.7,3.07,3.07,0,0,0,1.7.41,15.35,15.35,0,0,0,1.66.06,13.21,13.21,0,0,0,1.65-.18,5.25,5.25,0,0,0,1.64-.48.21.21,0,0,0-.11-.39Z"/><path class="cls-4" d="M105.59,88.1l.09,0h-.09A.7.7,0,0,0,106,88a1.3,1.3,0,0,0,.26-.14l.52-.35a.31.31,0,0,0,.11-.41.3.3,0,0,0-.41-.11l-.51.36a3,3,0,0,0-.27.23l-.1.11a.39.39,0,0,0-.12.19l0-.08-.07.08a.15.15,0,0,0,0,.19.14.14,0,0,0,.18.07Z"/><path class="cls-4" d="M101.57,89a3.64,3.64,0,0,0-.75-.61,3.07,3.07,0,0,0-.5-.2,3.57,3.57,0,0,0-.46-.16,3.77,3.77,0,0,0-1-.08,3.26,3.26,0,0,0-1.16.25.56.56,0,0,0-.23.7.57.57,0,0,0,.66.32c.15,0,.3-.07.45-.1l.23,0h.07a5.47,5.47,0,0,1,.89,0c.14,0,.29,0,.43,0s.26.07.39.08a3.4,3.4,0,0,1,.83.17.17.17,0,0,0,.17-.28Z"/><path class="cls-4" d="M100.62,88.54a6.2,6.2,0,0,1-1,.31l-.43.11c-.17,0-.34,0-.51.07a3.53,3.53,0,0,1-.86.08c-.42,0-.86-.11-1.18.24a.52.52,0,0,0,0,.71c.31.39.88.25,1.3.19A7.19,7.19,0,0,0,99,90a3,3,0,0,0,.51-.24,4.23,4.23,0,0,0,.47-.25,8.81,8.81,0,0,0,.84-.67c.17-.15,0-.37-.23-.29Z"/><path class="cls-4" d="M99.38,88.94a30.94,30.94,0,0,1-3.83-.53c-.63-.1-1.26-.2-1.89-.32l-1-.17a1.29,1.29,0,0,0-1.06.32.6.6,0,0,0-.09.71c.36.67,1.15.69,1.83.78s1.36.18,2,.23c1.33.1,2.64,0,4,0a.5.5,0,0,0,0-1Z"/><path class="cls-4" d="M92.68,89c-.87-.18-1.69-.51-2.54-.76a15.91,15.91,0,0,1-2.49-.94,17,17,0,0,1-4.35-3c-.89-.86-2.26.5-1.36,1.36a16.07,16.07,0,0,0,4.87,3.24,17.68,17.68,0,0,0,2.74.93,12,12,0,0,0,3,.2c.56,0,.72-.89.14-1Z"/><path class="cls-4" d="M88.68,89.06l.09.08a0,0,0,0,0,0,0,0,0,0,0,0,0,0L88.74,89s0,0-.06,0,0,0,0,.06Z"/><path class="cls-4" d="M89.35,89.14a21.8,21.8,0,0,1-2.62-1.27,20.4,20.4,0,0,1-2.46-1.56A42.87,42.87,0,0,1,80,82.67c-1.39-1.29-2.77-2.59-4.26-3.76A15.47,15.47,0,0,0,70.62,76,.86.86,0,0,0,70,77.56a28.9,28.9,0,0,1,4.88,3.09c1.52,1.24,2.93,2.61,4.37,3.94a32.23,32.23,0,0,0,4.62,3.71,17.79,17.79,0,0,0,2.6,1.35,9.77,9.77,0,0,0,2.78.58c.65.09.69-.89.14-1.09Z"/><path class="cls-4" d="M70.39,77.19l.39-.07a2.26,2.26,0,0,0,.39-.07c.13,0,.25-.11.37-.15a2.66,2.66,0,0,1,.38-.1,4.74,4.74,0,0,0,.75-.26l.37-.15a.83.83,0,0,0,.55-.53.59.59,0,0,0-.06-.45.68.68,0,0,0-.35-.27c-.34-.13-.74.13-1,.28a5.51,5.51,0,0,0-.68.36,3.21,3.21,0,0,1-.3.21l-.37.16a3.07,3.07,0,0,0-.35.28l-.28.2a.31.31,0,0,0,.23.56Z"/><path class="cls-4" d="M72.9,76.08a8.17,8.17,0,0,0,.32,1,.61.61,0,0,1,0,.12l.07.16c0-.08,0-.09,0,0s.13.29.16.35a4.34,4.34,0,0,0,.28.46,9.29,9.29,0,0,0,.75.91,3.41,3.41,0,0,0,.39.37,2,2,0,0,0,.69.47.78.78,0,0,0,.87-1.13.85.85,0,0,0-.23-.27l0,0-.2-.16L75.62,78a6.78,6.78,0,0,1-.68-.74s0-.06-.07-.08c.15.15,0,0,0,0l-.21-.25a1.56,1.56,0,0,0-.16-.2l-.09-.09c0-.05,0,0,0,0a1.34,1.34,0,0,1-.11-.14s-.12-.17,0-.06l-.14-.22c-.09-.15-.18-.29-.26-.44a.51.51,0,0,0-.93.39Z"/><path class="cls-4" d="M71.91,76.61l0,0s0,0,0,0a.56.56,0,0,0,0,.13A2.38,2.38,0,0,0,72,77a1.64,1.64,0,0,0,.18.51c.15.24.31.47.46.7a4.35,4.35,0,0,0,.65.77l.49.37a1,1,0,0,0,.33.16,1.65,1.65,0,0,0,.38,0,.74.74,0,0,0,.64-1.1,1,1,0,0,0-.23-.35c-.1-.09-.23-.17-.34-.26l.17.13-.54-.42.17.13-.6-.46-.13-.09c-.1-.08.14.11,0,0a2.08,2.08,0,0,1-.21-.21l-.2-.21-.08-.09L73,76.55l0,0-.3-.22h0a.45.45,0,0,0-.21-.12l.08,0-.06-.05a.38.38,0,0,0-.63.37Z"/><path class="cls-4" d="M78.59,81.36c0,1.28,1.57,2.36,2.47,3.08a25.24,25.24,0,0,0,7.34,4.08c.67.24,1.34.44,2,.62a3.79,3.79,0,0,0,2.18.15.65.65,0,0,0,.28-1.07,4,4,0,0,0-1.8-.73c-.65-.17-1.3-.36-1.93-.58a24.5,24.5,0,0,1-3.67-1.62,24.25,24.25,0,0,1-3.27-2.15c-.53-.42-1-.87-1.54-1.31A2.81,2.81,0,0,0,79,80.94a.42.42,0,0,0-.42.42Z"/><path class="cls-4" d="M87.1,86.38c.47.09,1,0,1.43.07a2.89,2.89,0,0,1,1.33.58l1.32.9a8.59,8.59,0,0,0,1.41.89.57.57,0,0,0,.72-.15.56.56,0,0,0,0-.73,10.69,10.69,0,0,0-1.55-1L90.21,86a3.78,3.78,0,0,0-1.55-.57,2.76,2.76,0,0,0-1.63.43c-.16.12-.18.45.07.49Z"/><path class="cls-4" d="M88.27,86.56c.23.17.45.37.7.52s.48.26.7.37.14.11.23.15l.19.08.5.21a4,4,0,0,0,.83.26c.35.07.87.12,1.12-.2s-.05-.75-.39-.93a3,3,0,0,0-.93-.26l-.85-.19c-.62-.15-1.28-.27-1.92-.46-.28-.08-.39.29-.18.45Z"/><path class="cls-4" d="M81.44,83.54a3.61,3.61,0,0,1,.35.33,4.57,4.57,0,0,0,.49.38,1.82,1.82,0,0,0,.14.14l.19.16.43.35.8.68c.32.26.6.57.93.82a.71.71,0,0,0,.92-.19.72.72,0,0,0-.06-.93,5,5,0,0,0-.85-.73,10.13,10.13,0,0,0-1-.72c-.15-.09-.3-.18-.46-.26l-.25-.11-.22-.1,0,0a2.56,2.56,0,0,0-.57-.24c-.19,0-.37-.08-.56-.14a.3.3,0,0,0-.37.18.32.32,0,0,0,.13.4Z"/><path class="cls-4" d="M81.56,82.69v0a.41.41,0,0,0,0,.09s0,0,0,0a.34.34,0,0,0,.1.16,1.92,1.92,0,0,0,.22.18l.47.39.46.4.23.17a1.2,1.2,0,0,0,.51.31l.18,0a.39.39,0,0,0,.26-.06.63.63,0,0,0,.33-.27.73.73,0,0,0,.09-.35.67.67,0,0,0-.2-.48,1.5,1.5,0,0,0-.24-.18L83.75,83l-.27-.11-.57-.21-.57-.22-.26-.11a.37.37,0,0,0-.21,0h-.11l0,0a.18.18,0,0,0-.16.28Z"/><path class="cls-4" d="M66.88,77.66v0h0s0,0,0,.06,0,0,.06,0a.11.11,0,0,0,.08,0,.11.11,0,0,0,.07,0,.1.1,0,0,0,.06,0s0,0,0,0v-.06a.14.14,0,0,0,0-.09.12.12,0,0,0,0-.07.16.16,0,0,0-.11,0,.17.17,0,0,0-.12,0,.18.18,0,0,0-.05.07v.09Z"/><path class="cls-4" d="M67.07,77.42a.94.94,0,0,0-.18.56c0,.24,0,.48-.07.72a12.71,12.71,0,0,0,0,1.38,12.2,12.2,0,0,0,.38,2.82.5.5,0,0,0,1-.26A16.88,16.88,0,0,1,67.5,80c-.06-.44-.1-.88-.12-1.33,0-.23,0-.45,0-.68a1.09,1.09,0,0,0-.07-.57.15.15,0,0,0-.23,0Z"/><path class="cls-4" d="M67.13,77.39a10.94,10.94,0,0,0-.19,3.66,13.07,13.07,0,0,0,.73,3.66,16,16,0,0,0,3.94,6.34A.75.75,0,0,0,72.67,90,16.46,16.46,0,0,1,69,84.23a24.31,24.31,0,0,1-.9-3.24,34.57,34.57,0,0,1-.28-3.51.37.37,0,0,0-.73-.09Z"/><path class="cls-4" d="M71.33,89.64a9.69,9.69,0,0,0-2.41-1.46c-.42-.2-.83-.42-1.23-.64L67,87.19a3.7,3.7,0,0,0-.74-.38.72.72,0,0,0-.7,1.2,2.68,2.68,0,0,0,.69.46c.22.13.43.25.65.36.43.22.87.41,1.31.6a10.62,10.62,0,0,0,1.44.49,6.1,6.1,0,0,0,.72.14,2.05,2.05,0,0,0,.74,0,.26.26,0,0,0,.19-.44Z"/><path class="cls-4" d="M66.29,88c.39-.22.45-.79.54-1.19a3.55,3.55,0,0,0,0-1.3,2.64,2.64,0,0,0-.46-1.14,4.67,4.67,0,0,0-.9-.82,2.92,2.92,0,0,1-.54-.9,3.05,3.05,0,0,0-.77-.87,2.74,2.74,0,0,0-2.26-.52l.68.52a1.71,1.71,0,0,0-2-1.65c-.59.1-.45,1,.14,1,.36,0,.77.2.73.62a.56.56,0,0,0,.54.54,2,2,0,0,1,1.5.55c.46.47.53,1.17,1,1.62a6.85,6.85,0,0,1,.72.59,1.66,1.66,0,0,1,.33.77,4.26,4.26,0,0,1,.08,1c0,.39-.11.76.16,1.08a.34.34,0,0,0,.41.06Z"/><path class="cls-4" d="M61.08,80.66a6.35,6.35,0,0,0,1.58-.57l1.64-.74,1.58-.73.78-.37c.24-.12.48-.21.55-.49a.2.2,0,0,0-.09-.24.79.79,0,0,0-.73.08l-.83.37c-.52.24-1,.48-1.57.74l-1.54.79a6.59,6.59,0,0,0-1.48,1,.12.12,0,0,0,.11.2Z"/><path class="cls-4" d="M66.35,78.12a3.06,3.06,0,0,0-.2,1.2,9.08,9.08,0,0,0,0,1.38,13.16,13.16,0,0,0,.54,2.85,19.12,19.12,0,0,0,1,2.66,6.05,6.05,0,0,0,1.49,2.41c.36.27.8-.18.71-.55a4.79,4.79,0,0,0-.61-1.19c-.23-.4-.44-.81-.64-1.23a16.51,16.51,0,0,1-.94-2.45,24.48,24.48,0,0,1-.56-2.54c-.08-.45-.16-.9-.23-1.35a4.74,4.74,0,0,0-.24-1.19.16.16,0,0,0-.27,0Z"/><path class="cls-4" d="M68.78,88.38a8.05,8.05,0,0,1-.61-1.25c-.2-.39-.43-.76-.62-1.15a8.81,8.81,0,0,1-.78-2.39,7.88,7.88,0,0,1,0-2.74,9.39,9.39,0,0,1,.38-1.38c.15-.44.38-.86.1-1.29a.52.52,0,0,0-.46-.26c-1,.11-1.3,1.78-1.44,2.63a9.37,9.37,0,0,0,0,3.34,8.37,8.37,0,0,0,1,2.78,5.38,5.38,0,0,0,.92,1.25,11.86,11.86,0,0,0,1.24.8c.21.16.4-.16.26-.34Z"/><path class="cls-4" d="M66.32,78.72a5.4,5.4,0,0,0-.58.09l-.59.1a9.44,9.44,0,0,0-1.27.42c-.42.17-.84.35-1.25.55a2.78,2.78,0,0,0-1.1.77.55.55,0,0,0,.26.79.56.56,0,0,0,.75-.36,0,0,0,0,0,0,0l-.1.18a.57.57,0,0,0,.12-.23c0-.06,0-.3,0-.07l-.41.54a2,2,0,0,0,.56-.29l.51-.29c.37-.22.76-.41,1.14-.59s.76-.37,1.13-.57c.18-.09.33-.21.51-.29l.5-.29c.25-.13.06-.47-.18-.43Z"/><path class="cls-4" d="M63.33,81.68h.3a1.79,1.79,0,0,0,.39-.13l.17-.07h0l.08,0a1.76,1.76,0,0,0,.37-.17c.2-.1.4-.2.59-.31a1.55,1.55,0,0,0,.66-.5.46.46,0,0,0-.39-.68,1.6,1.6,0,0,0-.75.31c-.2.11-.39.24-.59.36a1.78,1.78,0,0,0-.32.24l-.21.17a1.22,1.22,0,0,0-.32.28,2.26,2.26,0,0,0-.16.26.18.18,0,0,0,.16.27Z"/><path class="cls-4" d="M65.84,78.49a1.46,1.46,0,0,0-.58.08,4.77,4.77,0,0,0-.52.22,7.45,7.45,0,0,0-.91.53c-.3.21-.59.44-.87.68a3.4,3.4,0,0,0-.8.85.56.56,0,0,0,.34.82.59.59,0,0,0,.58-.13.5.5,0,0,0,.06-.61l.07.25v-.05l-.17.4a2.81,2.81,0,0,0,.34-.35l.35-.37a9.19,9.19,0,0,1,.74-.66l.09-.07,0,0s0,0,0,0l.25-.19.33-.25a4.84,4.84,0,0,0,.46-.33c.12-.1.3-.2.37-.35a.3.3,0,0,0-.17-.43Z"/><path class="cls-4" d="M63.21,81a.57.57,0,0,1,.08.13l.05.08s0,.06,0,0a.31.31,0,0,0,.08.15l.06.07.06.06.14.15h0l.07.08a.18.18,0,0,0,0,.07l.07.09s0-.07,0,0l.33.42.06.08s0-.07,0,0l.12.17a4.05,4.05,0,0,1,.21.35c.07.12.13.24.19.36a.36.36,0,0,1,0,.09s0,.13,0,0,0,0,0,0l0,.12a.63.63,0,0,0,.76.43.63.63,0,0,0,.44-.76,6.18,6.18,0,0,0-1-1.72,3.18,3.18,0,0,0-.75-.61l-.17-.1-.11-.06a.79.79,0,0,0-.26-.08c.06,0,0,0,0,0l-.15,0h-.06l-.12,0a.25.25,0,0,0-.24.42Z"/><path class="cls-4" d="M64.42,81.05a4.17,4.17,0,0,1,.26.46,1.23,1.23,0,0,0,.12.26c0-.08,0-.1,0,0l0,.06,0,.12a4.84,4.84,0,0,1,.14.51l.06.26a1.43,1.43,0,0,0,.13.38.62.62,0,0,0,.7.29.67.67,0,0,0,.46-.6,1.78,1.78,0,0,0-.16-.68,7.52,7.52,0,0,0-.84-1.55.55.55,0,0,0-.31-.25.53.53,0,0,0-.41.06.54.54,0,0,0-.19.72Z"/><path class="cls-5" d="M72.63,77.08a4,4,0,0,0,.64.91l.82,1c.55.61,1.12,1.2,1.72,1.76a21.42,21.42,0,0,0,3.83,2.94c.15.08.25-.12.13-.22a41.69,41.69,0,0,1-3.78-3c-.57-.53-1.12-1.09-1.65-1.66l-.79-.9a6.8,6.8,0,0,0-.78-.91.09.09,0,0,0-.14.11Z"/><path class="cls-5" d="M83.53,85.15a28.91,28.91,0,0,0,12.69,4c.28,0,.28-.42,0-.43A31.64,31.64,0,0,1,83.64,85a.11.11,0,0,0-.11.18Z"/><path class="cls-5" d="M106.6,30.9a.45.45,0,0,0,.19,0,.39.39,0,0,0,.16-.1.34.34,0,0,0,.1-.16.31.31,0,0,0,0-.19v-.13a.54.54,0,0,0-.13-.22l-.1-.08a.5.5,0,0,0-.45,0,.42.42,0,0,0-.16.11.37.37,0,0,0-.1.16.41.41,0,0,0,0,.19l0,.13a.48.48,0,0,0,.12.22l.1.08a.59.59,0,0,0,.26.07Z"/><path class="cls-6" d="M105.11,26.93a12,12,0,0,0-.86,1.13c-.14.19-.27.39-.4.58l-.2.3a.61.61,0,0,0-.14.34.2.2,0,0,0,.31.18.62.62,0,0,0,.25-.28l.2-.29.37-.58a10.24,10.24,0,0,0,.69-1.21c.06-.13-.1-.29-.22-.17Z"/><path class="cls-6" d="M106.29,28.18l-.55,1.12c-.09.19-.19.38-.27.57a5.46,5.46,0,0,0-.21.61c-.08.22.27.36.38.16a6,6,0,0,0,.31-.55c.09-.19.16-.4.24-.6l.47-1.15c.08-.22-.27-.37-.37-.16Z"/><path class="cls-6" d="M107.81,28.49c-.33,1-.68,2-.94,3a.15.15,0,0,0,.28.08c.4-1,.71-2,1-3,.08-.23-.29-.33-.37-.1Z"/><path class="cls-6" d="M109.21,30.08a.05.05,0,1,0,0-.1.05.05,0,0,0,0,.1Z"/><path class="cls-6" d="M110,29.54l.09,1a8.63,8.63,0,0,0,.14,1,.15.15,0,0,0,.3,0,5.9,5.9,0,0,0-.11-1l-.16-1c0-.14-.28-.11-.26,0Z"/><path class="cls-6" d="M111.46,30.58a.05.05,0,1,0,0-.1.05.05,0,0,0,0,.1Z"/><path class="cls-6" d="M112.77,29.28v1a2.64,2.64,0,0,0,.09,1,.1.1,0,0,0,.2,0,2.3,2.3,0,0,0,.09-1v-1a.19.19,0,0,0-.38,0Z"/><path class="cls-6" d="M114.1,29.78c0,.21,0,.43,0,.64s0,.21,0,.32a1.84,1.84,0,0,0,0,.33c0,.14.26.14.29,0s0-.22,0-.33,0-.22,0-.32,0-.43,0-.64a.12.12,0,0,0-.23,0Z"/><path class="cls-6" d="M116.05,29.78l0,.77v.37a1.09,1.09,0,0,0,0,.18.46.46,0,0,0,0,.23.16.16,0,0,0,.27,0,.38.38,0,0,0,0-.21,1.34,1.34,0,0,0,0-.2v-.37l0-.77a.16.16,0,0,0-.32,0Z"/><path class="cls-6" d="M117.86,29.47a.87.87,0,0,0,0,.77.76.76,0,0,0,.62.43.13.13,0,0,0,.07-.24l0,0s0-.05,0,0l0,0h0l0,0-.05,0s0,0,0,0,0,0,0,0l0-.06-.07-.13,0-.06,0,0h0c0-.05,0-.09,0-.14h0v-.14h0s0,0,0-.07-.18-.26-.25-.11Z"/><path class="cls-6" d="M119,30a1,1,0,0,0,.44.78l.09.06a.05.05,0,0,0,0,0l0,0,0,0a.75.75,0,0,0,.18.13.72.72,0,0,0,.46.09.18.18,0,0,0,.18-.16.18.18,0,0,0-.13-.2l-.17,0-.18-.05-.08,0-.08,0h0l0,0a.46.46,0,0,1-.07-.07l-.06-.06v0s0,0,0,0l0,0a1.19,1.19,0,0,1-.09-.15s0-.05,0-.08l0,0h0a1.21,1.21,0,0,1-.05-.18.19.19,0,0,0-.22-.14.2.2,0,0,0-.18.2Z"/><path class="cls-6" d="M116.37,34.52l.1.79.38-.16a1.55,1.55,0,0,0-.82-.47,1.81,1.81,0,0,0-.52,0,.61.61,0,0,0-.45.25.17.17,0,0,0,.1.25.3.3,0,0,0,.13,0h.08l.14,0h.39s-.05,0,0,0l.19,0,.09,0s0,0,0,0l0,0a1,1,0,0,1,.17.1s0,0,0,0l0,0a.3.3,0,0,1,.08.08.23.23,0,0,0,.27,0,.24.24,0,0,0,.11-.25l-.13-.79a.22.22,0,0,0-.23-.15c-.09,0-.2.1-.18.21Z"/><path class="cls-6" d="M111.69,34.73l-.82.15a2.38,2.38,0,0,1-.37.06.86.86,0,0,0-.23.06.43.43,0,0,0-.21.14.16.16,0,0,0,.06.22.45.45,0,0,0,.23,0h.1l.16,0,.37-.08.81-.18a.19.19,0,0,0,.13-.23.19.19,0,0,0-.23-.13Z"/><path class="cls-6" d="M107.82,34.14l-.39.38-.18.2a.64.64,0,0,0-.1.13.41.41,0,0,0-.07.15.13.13,0,0,0,.17.16.42.42,0,0,0,.14-.06l.13-.1a1.8,1.8,0,0,0,.2-.19l.38-.39a.19.19,0,0,0,0-.28.2.2,0,0,0-.28,0Z"/><path class="cls-6" d="M106.39,34l-.32.34a2.37,2.37,0,0,0-.34.37h.32l-.06-.09a.27.27,0,0,0-.07-.08s0,0,0,0l-.12-.18a3,3,0,0,0-.26-.36c-.06-.08-.2,0-.17.1s.12.27.19.4a1.74,1.74,0,0,0,.1.19v0s0,0,0,0,0,.08,0,.1l.06.11a.18.18,0,0,0,.29,0,2.23,2.23,0,0,0,.27-.41c.08-.14.17-.27.26-.4s-.08-.2-.16-.12Z"/><path class="cls-6" d="M109.5,32.23l-.14.63a1.73,1.73,0,0,0-.07.31,2.17,2.17,0,0,0,0,.36.15.15,0,0,0,.11.14.16.16,0,0,0,.18-.07l.06-.15a1.11,1.11,0,0,0,.07-.16c0-.11,0-.22,0-.32l.1-.65a.18.18,0,0,0-.12-.22.2.2,0,0,0-.23.13Z"/><path class="cls-6" d="M105.51,32.16l-.38.51a2.4,2.4,0,0,0-.18.26.54.54,0,0,0,0,.11s0,0,0,.07h0s0,.09,0,.14a.13.13,0,0,0,.19.14l.11-.09h0l.06,0,.08-.07a2.09,2.09,0,0,0,.24-.28l.39-.52a.22.22,0,0,0,0-.18.2.2,0,0,0-.11-.14.23.23,0,0,0-.18,0,.3.3,0,0,0-.14.11Z"/><path class="cls-6" d="M103.93,31.89a2.16,2.16,0,0,0-1,.72,1.9,1.9,0,0,0-.33.59.71.71,0,0,0,0,.65.13.13,0,0,0,.21,0,.71.71,0,0,0,.16-.26,2.76,2.76,0,0,1,.08-.27v0l0-.06,0-.12a1.4,1.4,0,0,1,.15-.24.24.24,0,0,1,.06-.08l.09-.1a1.8,1.8,0,0,1,.2-.19,1.16,1.16,0,0,1,.2-.13,1.08,1.08,0,0,1,.24-.12.2.2,0,0,0,.14-.25.21.21,0,0,0-.25-.14Z"/><path class="cls-6" d="M103.28,35v.78a2.56,2.56,0,0,0,0,.39l0,.18a.66.66,0,0,0,.06.2.1.1,0,0,0,.17,0,.66.66,0,0,0,.06-.2l0-.18c0-.13,0-.26,0-.39V35a.19.19,0,0,0-.37,0Z"/><path class="cls-6" d="M103.5,37.41l-.39.75-.19.38a1.14,1.14,0,0,0-.1.19,1,1,0,0,0-.07.24.22.22,0,0,0,.1.25.23.23,0,0,0,.27,0,1.39,1.39,0,0,0,.15-.19l.09-.18.2-.39.36-.78a.24.24,0,0,0-.09-.33.25.25,0,0,0-.33.09Z"/><path class="cls-6" d="M104.21,39.08a.05.05,0,1,0,0-.1.05.05,0,0,0,0,.1Z"/><path class="cls-6" d="M107.5,37.41l-.27.55-.07.15a1,1,0,0,0-.09.18s0,.09,0,.14a.3.3,0,0,0,0,.13.16.16,0,0,0,.08.1c.13.08.25,0,.33-.14a1,1,0,0,0,.1-.17l.07-.14.29-.55a.25.25,0,0,0-.09-.34.25.25,0,0,0-.34.09Z"/><path class="cls-6" d="M109.53,37.88a1.46,1.46,0,0,0,.13.25l.15.24a.14.14,0,0,0,.19.06.14.14,0,0,0,.09-.18L110,38a2,2,0,0,0-.15-.29.18.18,0,0,0-.24-.06.15.15,0,0,0-.08.11.19.19,0,0,0,0,.13Z"/><path class="cls-6" d="M112,37.53a1.29,1.29,0,0,0,.23.76,1.11,1.11,0,0,0,.31.3l.2.07a.33.33,0,0,0,.22,0,.11.11,0,0,0,.06-.16l-.05-.08,0,0a1.14,1.14,0,0,0-.11-.11l-.12-.11,0,0h0l0,0,0-.05h0l0,0a537558483151.06,537558483151.06,0,0,1-.08-.14h0s0,0,0,0,0,0,0,0,0-.1,0-.15v0h0v-.09a.2.2,0,0,0-.21-.2.22.22,0,0,0-.21.2Z"/><path class="cls-6" d="M114.12,38.45l.51.22a.17.17,0,0,0,.12,0,.16.16,0,0,0,.1-.08.17.17,0,0,0-.06-.22l-.48-.27a.18.18,0,0,0-.26.07.14.14,0,0,0,0,.14.16.16,0,0,0,.09.12Z"/><path class="cls-6" d="M116.89,38.53l.52.21a.23.23,0,0,0,.16,0,.24.24,0,0,0,.09-.11.21.21,0,0,0-.09-.26l-.48-.29a.26.26,0,0,0-.36.12.23.23,0,0,0,0,.2.22.22,0,0,0,0,.08.41.41,0,0,0,.11.07Z"/><path class="cls-6" d="M119.46,37.33a.05.05,0,1,0,0-.1.05.05,0,0,0,0,.1Z"/><path class="cls-6" d="M118.56,33.62l.35.64.17.31a2,2,0,0,0,.21.35.23.23,0,0,0,.38-.22,2.5,2.5,0,0,0-.21-.35l-.2-.3-.4-.6a.17.17,0,0,0-.3.17Z"/><path class="cls-6" d="M113.46,33v.64c0,.11,0,.21,0,.32v.14a.22.22,0,0,0,0,.08.27.27,0,0,0,.08.18.23.23,0,0,0,.31,0,.23.23,0,0,0,.07-.15.41.41,0,0,0,0-.11V34c0-.11,0-.21,0-.32V33a.25.25,0,0,0-.25-.25.26.26,0,0,0-.25.25Z"/><path class="cls-6" d="M111,32.1l-.11.13,0,.06,0,.07v0l0,.07v.11l0,.05s0,0,.06.06a.05.05,0,0,0,0,0l.06,0h0s.06,0,.08,0l.07,0a.42.42,0,0,0,.12-.08l.1-.12a.16.16,0,0,0,.06-.08.36.36,0,0,0,0-.1.3.3,0,0,0,0-.1.18.18,0,0,0-.06-.09.3.3,0,0,0-.18-.08h-.07l-.12.07Z"/><path class="cls-6" d="M109.71,26.58a.05.05,0,1,0,0-.1.05.05,0,0,0,0,.1Z"/><path class="cls-6" d="M108.62,23.87l-.92.65-.46.32A1.3,1.3,0,0,0,107,25a.65.65,0,0,0-.18.22c0,.07,0,.16.12.16a.74.74,0,0,0,.26-.1,1.49,1.49,0,0,0,.24-.14l.45-.32.9-.65a.21.21,0,0,0,.07-.26.19.19,0,0,0-.26-.07Z"/><path class="cls-6" d="M105.46,25.27a.24.24,0,0,0,0-.48.24.24,0,0,0,0,.48Z"/><path class="cls-6" d="M107.12,22.37l-.51.38a3.34,3.34,0,0,0-.47.45.11.11,0,0,0,.13.18,4.17,4.17,0,0,0,.54-.31l.5-.37a.2.2,0,0,0,.07-.26c0-.08-.18-.14-.26-.07Z"/><path class="cls-6" d="M107.87,19.94l-.77.63-.38.31a2.31,2.31,0,0,0-.36.34c-.07.11.07.2.16.16a2.7,2.7,0,0,0,.4-.29l.38-.32.76-.64a.15.15,0,0,0,0-.19.13.13,0,0,0-.19,0Z"/><path class="cls-6" d="M108.21,18.58a.05.05,0,1,0,0-.1.05.05,0,0,0,0,.1Z"/><path class="cls-6" d="M108.54,18.28l0,.75a.14.14,0,0,0,.13.13.13.13,0,0,0,.13-.13l0-.75a.18.18,0,0,0-.18-.17.16.16,0,0,0-.17.17Z"/><path class="cls-6" d="M110.15,22l-.51.5-.24.25a1.59,1.59,0,0,0-.13.13.48.48,0,0,0-.1.17.09.09,0,0,0,.12.12.54.54,0,0,0,.16-.1l.13-.12.25-.26.5-.51c.12-.12-.06-.31-.18-.18Z"/><path class="cls-6" d="M108.21,23.58a.05.05,0,1,0,0-.1.05.05,0,0,0,0,.1Z"/><path class="cls-6" d="M106.07,24.14l-.65.77-.32.4a1.48,1.48,0,0,0-.25.44.12.12,0,0,0,.17.13.75.75,0,0,0,.2-.15,1.29,1.29,0,0,0,.17-.16l.34-.38.63-.76a.21.21,0,0,0,0-.29.2.2,0,0,0-.29,0Z"/><path class="cls-6" d="M105.29,26.78v.52a2.53,2.53,0,0,0,0,.28.5.5,0,0,1,0,.12.5.5,0,0,0,.05.13.1.1,0,0,0,.18,0,.5.5,0,0,0,0-.13s0-.07,0-.11a.88.88,0,0,0,0-.16v-.65a.17.17,0,0,0-.17-.17.18.18,0,0,0-.17.17Z"/><path class="cls-6" d="M108.22,27l-.12.89a3.75,3.75,0,0,0,0,.47,3.38,3.38,0,0,0,0,.45.11.11,0,0,0,.22,0c0-.14.1-.27.13-.42s.06-.28.08-.43l.12-.87a.2.2,0,0,0-.14-.25.2.2,0,0,0-.25.14Z"/><path class="cls-6" d="M108.8,30.28v.65a1.6,1.6,0,0,0,.09.65c0,.05.12.05.15,0a1.6,1.6,0,0,0,.09-.65v-.65a.17.17,0,0,0-.33,0Z"/><path class="cls-6" d="M108.46,32.83a.05.05,0,1,0,0-.1.05.05,0,0,0,0,.1Z"/><path class="cls-6" d="M106,31.73l-.26.75c0,.12-.09.24-.12.37a2.7,2.7,0,0,0-.08.39.15.15,0,0,0,.08.18.14.14,0,0,0,.19-.06L106,33c0-.13.09-.26.13-.39l.25-.77a.19.19,0,0,0-.37-.1Z"/><path class="cls-6" d="M105.11,34.13l.27.23a.09.09,0,0,0,.08,0,.11.11,0,0,0,.09,0,.12.12,0,0,0,0-.16l-.24-.27a.15.15,0,0,0-.1,0,.21.21,0,0,0-.1,0,.18.18,0,0,0,0,.1.15.15,0,0,0,0,.1Z"/><path class="cls-6" d="M106.3,36l.49.52.24.25.13.12a.76.76,0,0,0,.17.13.15.15,0,0,0,.2-.21.91.91,0,0,0-.11-.16l-.12-.13-.26-.26-.5-.51a.18.18,0,0,0-.24,0,.18.18,0,0,0,0,.25Z"/><path class="cls-7" d="M108.55,30.19l-.25.52-.12.25a1,1,0,0,0-.07.15.35.35,0,0,0,0,.17.14.14,0,0,0,.09.13.14.14,0,0,0,.15,0,.7.7,0,0,0,.17-.24l.14-.26.26-.5a.2.2,0,0,0-.07-.26.18.18,0,0,0-.26.07Z"/><path class="cls-7" d="M106.46,28.58a.05.05,0,1,0,0-.1.05.05,0,0,0,0,.1Z"/><path class="cls-7" d="M106,27.61l-.25,0h0l0,0a.21.21,0,0,0,0,.1.15.15,0,0,0,0,.1l0,0a.1.1,0,0,0,.07,0l.25,0H106a.1.1,0,0,0,0,0,.17.17,0,0,0,0-.24.17.17,0,0,0-.12-.05Z"/><path class="cls-7" d="M106.09,24.9l-.24.27,0,0a.13.13,0,0,0,0,.06.21.21,0,0,0,0,.11.12.12,0,0,0,.11,0h0l.07,0,.27-.23,0-.06a.15.15,0,0,0,0-.07.17.17,0,0,0,0-.07l0-.06a.19.19,0,0,0-.13,0,.18.18,0,0,0-.12,0Z"/><path class="cls-7" d="M106,23.43l-.11.26c0,.1-.08.19-.11.29a.12.12,0,0,0,.08.16.13.13,0,0,0,.17-.05l.15-.23.14-.25a.18.18,0,0,0-.07-.25.22.22,0,0,0-.14,0,.24.24,0,0,0-.11.09Z"/><path class="cls-7" d="M105.79,27.68l-.27.52c0,.1-.09.2-.13.29l0,.13a.21.21,0,0,0,0,.07.48.48,0,0,0,0,.12.14.14,0,0,0,.2.08.57.57,0,0,0,.2-.26,2,2,0,0,0,.13-.25l.26-.52a.18.18,0,0,0-.07-.24.17.17,0,0,0-.24.06Z"/><path class="cls-7" d="M105.79,31.74l-.14.67c0,.11-.05.22-.07.33a.5.5,0,0,0,0,.21.31.31,0,0,0,.06.16.12.12,0,0,0,.13,0,.36.36,0,0,0,.11-.13.35.35,0,0,0,.06-.18c0-.11,0-.21.06-.32l.13-.66a.18.18,0,1,0-.34-.09Z"/><path class="cls-7" d="M106.71,33.58a.05.05,0,1,0,0-.1.05.05,0,0,0,0,.1Z"/><path class="cls-7" d="M107.34,35a1.58,1.58,0,0,0-.13.26l-.06.13,0,0s0,0,0,.05v.07a.09.09,0,0,0,0,.07.08.08,0,0,0,.08,0l.05,0a.2.2,0,0,0,.06-.07l.07-.11c0-.08.08-.17.13-.26a.13.13,0,0,0,0-.16.12.12,0,0,0-.16,0Z"/><path class="cls-7" d="M111.32,34l-.14.26-.07.14,0,.09a.18.18,0,0,0,0,.16.13.13,0,0,0,.07.06h.09a.23.23,0,0,0,.16-.16l.07-.13.13-.26a.15.15,0,0,0,0-.13.18.18,0,0,0-.07-.1.16.16,0,0,0-.23.06Z"/><path class="cls-7" d="M116,31.83a.05.05,0,1,0,0-.1.05.05,0,0,0,0,.1Z"/><path class="cls-7" d="M118.06,31.28l0,.51a2.28,2.28,0,0,0,0,.26.75.75,0,0,0,0,.15s0,.08,0,.13a.17.17,0,0,0,.33,0l0-.13a.76.76,0,0,0,0-.15c0-.09,0-.17,0-.26l0-.51a.15.15,0,0,0-.15-.15.16.16,0,0,0-.15.15Z"/><path class="cls-7" d="M118.21,33.08a.05.05,0,1,0,0-.1.05.05,0,0,0,0,.1Z"/><path class="cls-7" d="M115.06,33l-.12.62c0,.11,0,.23,0,.34s0,.21,0,.32a.18.18,0,0,0,.16.18.19.19,0,0,0,.21-.13,3.88,3.88,0,0,0,.14-.61l.1-.61a.21.21,0,0,0-.15-.26.21.21,0,0,0-.26.15Z"/><path class="cls-7" d="M113.36,34.48l-.26.38a2,2,0,0,0-.11.2l-.06.11a.17.17,0,0,0,0,.1s0,0,0,0a.11.11,0,0,0,.13.11.33.33,0,0,0,.13-.07l.07-.09.16-.21.26-.4a.17.17,0,0,0-.06-.23.18.18,0,0,0-.24.06Z"/><path class="cls-7" d="M112.52,36.28l0,.25a.13.13,0,0,0,0,.06l0,0a.15.15,0,0,0,.22,0l0,0a.19.19,0,0,0,0-.08l0-.25a.1.1,0,0,0,0-.07s0,0,0-.06a.09.09,0,0,0-.06,0l-.07,0a.2.2,0,0,0-.13.06l0,0a.32.32,0,0,0,0,.09Z"/><path class="cls-7" d="M111.86,37.18l-.19.19-.21.18-.18.2-.09.1-.06.07a.32.32,0,0,0,0,.09.14.14,0,0,0,.17.18l.07,0a.24.24,0,0,0,.08-.06l.1-.09.21-.19.18-.2.19-.2a.17.17,0,0,0,0-.24.18.18,0,0,0-.24,0Z"/><path class="cls-7" d="M109.46,38.33a.05.05,0,1,0,0-.1.05.05,0,0,0,0,.1Z"/><path class="cls-7" d="M107.65,38.16l-.38.26-.18.12a.2.2,0,0,0-.08.08l0,0-.07.09s0,.09,0,.13a.15.15,0,0,0,.13,0,.58.58,0,0,0,.22-.08l.19-.12.36-.25a.19.19,0,0,0,.07-.25.19.19,0,0,0-.24-.06Z"/><path class="cls-7" d="M105,38.58a.05.05,0,1,0,0-.1.05.05,0,0,0,0,.1Z"/><path class="cls-7" d="M104.33,39.9l-.23.27,0,0a.13.13,0,0,0,0,.06.21.21,0,0,0,0,.11.12.12,0,0,0,.11,0h0l.07,0,.27-.23a.13.13,0,0,0,0-.06.14.14,0,0,0,0-.07.19.19,0,0,0,0-.07l0-.06a.19.19,0,0,0-.13,0,.21.21,0,0,0-.13,0Z"/><path class="cls-7" d="M108.82,38.45a.58.58,0,0,0-.06.34.73.73,0,0,0,.12.35.58.58,0,0,0,.26.23.39.39,0,0,0,.39,0,.13.13,0,0,0,0-.21l-.08,0h0l0,0,0,0h0l-.06,0s0,0,0,0l0,0a.1.1,0,0,1,0,0,.08.08,0,0,1,0,0h0l0,0,0,0,0,0s0,0,0,0a.53.53,0,0,1,0-.12s0,0,0,0v0s0,0,0-.06,0,.06,0,0v0a.14.14,0,0,0,0-.06.17.17,0,0,0,0-.14.23.23,0,0,0-.09-.08.18.18,0,0,0-.23.08Z"/><path class="cls-7" d="M116.39,35l-.37.15-.4.17a.17.17,0,0,0-.07.2.17.17,0,0,0,.19.09l.39-.08.38-.1a.24.24,0,0,0,.16-.28.26.26,0,0,0-.1-.13.22.22,0,0,0-.18,0Z"/><path class="cls-7" d="M115.87,30.12l-.39.26-.19.13-.1.06-.09.09s0,0,0,0a.15.15,0,0,0,0,.16.14.14,0,0,0,.13.08.34.34,0,0,0,.17-.05l.1-.06.19-.13.39-.25a.2.2,0,0,0,.07-.26.19.19,0,0,0-.26-.07Z"/><path class="cls-7" d="M110.4,31.05l-.38.14a2.83,2.83,0,0,0-.4.17.15.15,0,0,0-.07.2.17.17,0,0,0,.19.1l.39-.09.38-.12a.21.21,0,0,0-.11-.4Z"/><path class="cls-7" d="M107.71,30.05h-.25a1.54,1.54,0,0,0-.3,0l0,0a.12.12,0,0,0-.05.05.16.16,0,0,0,0,.11.29.29,0,0,0,0,.1.23.23,0,0,0,.11.08l.3.05h.25a.24.24,0,0,0,.24-.24.29.29,0,0,0-.07-.16.22.22,0,0,0-.17-.07Z"/><path class="cls-7" d="M104.71,28.83a.05.05,0,1,0,0-.1.05.05,0,0,0,0,.1Z"/><path class="cls-7" d="M104.88,26.38l.12-.26.06-.13a.29.29,0,0,0,0-.1l0-.07a.17.17,0,0,0-.07-.17.15.15,0,0,0-.18,0,.69.69,0,0,0-.11.13l-.07.12-.14.25a.26.26,0,0,0,0,.15.23.23,0,0,0,.09.12.2.2,0,0,0,.15,0,.16.16,0,0,0,.12-.09Z"/><path class="cls-7" d="M107.06,22.21l.25-.15.12-.07.13-.1a.12.12,0,0,0,0-.15.13.13,0,0,0-.14-.06l-.07,0-.1,0-.12.06-.27.11a.18.18,0,0,0-.08.11.18.18,0,0,0,0,.14.18.18,0,0,0,.24.06Z"/><path class="cls-7" d="M111,23.58a.05.05,0,1,0,0-.1.05.05,0,0,0,0,.1Z"/><path class="cls-7" d="M118.75,34.59l0,.24v0l0,.06,0,0,.07,0a.29.29,0,0,0,.1,0l0,0a.33.33,0,0,0,0-.06l0-.24a.24.24,0,0,0,0-.12.26.26,0,0,0,0-.09.26.26,0,0,0-.16-.07l-.08,0a.27.27,0,0,0-.13.14.24.24,0,0,0,0,.12Z"/><path class="cls-7" d="M118.53,37.53v.77a.22.22,0,0,0,0,.08.33.33,0,0,0,.06.1l0-.06a.74.74,0,0,0,0,.14.12.12,0,0,0,.23,0l0-.14,0,.06a.21.21,0,0,0,.06-.1.22.22,0,0,0,0-.08v-.77a.19.19,0,0,0-.19-.18.18.18,0,0,0-.18.18Z"/><path class="cls-7" d="M116.71,37.86l-.25,0,0,0a.05.05,0,0,0,0,0,.12.12,0,0,0,0,.1.22.22,0,0,0,0,.11l0,0,.07,0,.25,0,.07,0,.06,0s0,0,0-.06a.14.14,0,0,0,0-.07.18.18,0,0,0,0-.12.17.17,0,0,0-.13,0Z"/><path class="cls-7" d="M114.86,36.35l-.49.29-.25.14-.25.16a.14.14,0,0,0,0,.15.13.13,0,0,0,.15.06c.18,0,.36-.14.54-.21l.53-.23a.2.2,0,0,0,.07-.28.21.21,0,0,0-.28-.08Z"/><path class="cls-7" d="M112.71,37.83a.05.05,0,1,0,0-.1.05.05,0,0,0,0,.1Z"/><path class="cls-7" d="M109.09,35.46l-.11.26-.06.13,0,.06a.29.29,0,0,0,0,.09.07.07,0,0,0,.12.07l.06-.06,0-.07.07-.11.14-.25a.13.13,0,0,0,0-.16.14.14,0,0,0-.16,0Z"/><path class="cls-7" d="M107,35.16l-.25,0s0,0-.07,0a.21.21,0,0,0,0,.07s0,0,0,.07a.11.11,0,0,0,.07,0l.25,0a.15.15,0,0,0,.09,0,.12.12,0,0,0,0-.16.18.18,0,0,0-.09,0Z"/><path class="cls-7" d="M104.24,35.72l-.13.53c0,.09,0,.18,0,.27a.59.59,0,0,0,0,.13.24.24,0,0,0,0,.17.11.11,0,0,0,.15,0,.22.22,0,0,0,.1-.13.65.65,0,0,0,0-.13c0-.09,0-.17.07-.26l.11-.53a.15.15,0,0,0-.1-.19.16.16,0,0,0-.2.1Z"/><path class="cls-7" d="M73.33,79.9,75.85,82l1.24,1a11.31,11.31,0,0,0,1.29,1,.17.17,0,0,0,.2-.26,11.55,11.55,0,0,0-1.19-1l-1.25-1c-.83-.69-1.66-1.35-2.49-2-.22-.18-.54.13-.32.31Z"/><path class="cls-7" d="M65.38,80.58a15,15,0,0,1,1.23,2.47A11.24,11.24,0,0,1,67,84.29c.06.23.12.46.17.68a2.16,2.16,0,0,0,.19.61.1.1,0,0,0,.18,0,3.22,3.22,0,0,0-.22-1.26,13,13,0,0,0-.46-1.37,12.11,12.11,0,0,0-1.33-2.45c-.07-.1-.24,0-.17.1Z"/><path class="cls-8" d="M119.59,17.54c.27-.4,0-.95-.26-1.3a3.6,3.6,0,0,0-.78-.87,2.93,2.93,0,0,0-2.56-.6,4.43,4.43,0,0,0-2.11,1.34,3.71,3.71,0,0,0-1,2.33,2.67,2.67,0,0,0,1.22,2.4.82.82,0,0,0,1-.21.81.81,0,0,0-.06-1.06,2.29,2.29,0,0,1-.23-.21s-.15-.19-.07-.06l-.15-.27c.06.13,0-.05,0-.09s0-.15,0-.22c0,.17,0-.13,0-.17a1.77,1.77,0,0,1,0-.23c0,.18,0-.14,0-.17a1.83,1.83,0,0,1,.08-.25c-.05.13.06-.11.08-.14a2.13,2.13,0,0,1,.16-.25c.09-.15,0,0,.07-.11a5.66,5.66,0,0,1,.43-.42,2.62,2.62,0,0,1,.4-.29l.24-.13,0,0,.17-.06.25-.07.18,0c-.07,0-.07,0,0,0s.31,0,.17,0a1,1,0,0,1,.25.06l.15.05c-.08,0-.08,0,0,0s.14.08.2.13.09.06,0,0l.12.1.18.17c.14.14.26.28.4.41a2,2,0,0,0,.5.43.67.67,0,0,0,.88-.2Z"/><path class="cls-8" d="M114.5,20.14a.64.64,0,0,0,.26.1l.21.09a3,3,0,0,0,.59.07c.17,0,.33,0,.5,0l.26,0h.11c.18,0-.17,0,0,0a.82.82,0,0,0,.49,0,.72.72,0,0,0,.36-.31.77.77,0,0,0-.12-.91l-.12-.12c-.1-.11.08.12,0,0l0-.07a1.09,1.09,0,0,1-.08-.15s-.06-.12,0,0,0,0,0,0,0-.12,0-.19,0,.18,0,.09a.28.28,0,0,0,0-.09,1,1,0,0,1,0-.17c0-.09,0-.09,0,.06,0,0,0-.07,0-.1s.08-.22,0-.08,0-.05,0-.08a.41.41,0,0,1,0-.09s.09-.07,0,.07l.12-.14s.18-.15.06-.06.06,0,.09-.05l.15-.08s-.2.07-.08,0l.12,0a.88.88,0,0,0,.66-.62.78.78,0,0,0-.39-.87,1.34,1.34,0,0,0-1.3.2,2.29,2.29,0,0,0-1.06,1.69,2.17,2.17,0,0,0,.76,1.91l.53-1.29a3.36,3.36,0,0,0-1.26.12,1.72,1.72,0,0,0-.64.34c-.07.07-.12.15-.18.22l-.06.06a.39.39,0,0,0-.1.19.21.21,0,0,0,.1.23Z"/><path class="cls-8" d="M117.37,16.59l-.25-.07s-.1,0,0,0a1,1,0,0,0-.29-.07,2,2,0,0,0-.6,0,2.24,2.24,0,0,0-1.1.62,2.58,2.58,0,0,0-.64,1.18,3.08,3.08,0,0,0-.07.68c0,.15,0,.3,0,.45s0,.07,0,.11a1,1,0,0,0,.24.42.78.78,0,0,0,1.3-.34,1.09,1.09,0,0,0,0-.36c0-.07,0-.11,0-.18a1.29,1.29,0,0,1,0-.19l0,.21a2.33,2.33,0,0,1,0-.59l0,.2a2.63,2.63,0,0,1,.15-.53l-.08.18a3.24,3.24,0,0,1,.28-.47c0-.06,0,0,0,.05l0-.06.08-.08.09-.09s.16-.13,0,0l.18-.15.06-.05c-.07.06-.08.06,0,0l.22-.16.09-.05s.23-.14.12-.08a.37.37,0,0,1,.16-.05.3.3,0,0,0,.28-.25.28.28,0,0,0-.21-.32Z"/><path class="cls-9" d="M120,17.44l0,0,.09.15v0a.53.53,0,0,0-.37-.49c-.12,0-.23-.09-.35-.12a2.17,2.17,0,0,0-.42-.07,2.68,2.68,0,0,0-.8.06,2.12,2.12,0,0,0-1.15.68,1.87,1.87,0,0,0-.48,1.33,1.9,1.9,0,0,0,.2.74,2,2,0,0,0,.21.3.65.65,0,0,0,.18.15.6.6,0,0,0,.45,0h-.25a.86.86,0,0,0,.32,0,.43.43,0,0,0,.3-.4,1.38,1.38,0,0,0,0-.2v.26a.69.69,0,0,0,0-.32,1.15,1.15,0,0,0-.06-.17l-.07-.08,0-.05a.31.31,0,0,1-.05-.1s0,0,0,0l0-.07a.36.36,0,0,1,0-.1v0c0-.06,0-.05,0,0s0-.1,0-.11v-.11c0-.12,0,.13,0,0a1.66,1.66,0,0,0,.06-.21c0,.08,0,.09,0,0l0,0a.41.41,0,0,1,.05-.09l0-.07,0,.06s.07-.08.09-.1l.08-.08.05,0c-.08,0,0,0,0,0l.11-.07.1-.05,0,0s0,0,0,0,.18-.06.23-.07l.13,0c.15,0-.11,0,0,0H119l.27,0h.23c-.06,0,0,0,0,0a.52.52,0,0,0,.57-.23h0l-.16.16.08,0-.18,0h0a.32.32,0,0,0,.22-.55Z"/><path class="cls-9" d="M117.46,20l.2.1.09,0h0l.06,0c.12,0,.26,0,.38.06a2.49,2.49,0,0,0,1,0,.47.47,0,0,0,.33-.5.46.46,0,0,0-.13-.26.55.55,0,0,0-.32-.14,1.34,1.34,0,0,0-.2,0l-.21,0-.27,0-.19.05a2.21,2.21,0,0,0-.42.12c-.07,0,.06,0,0,0l-.09,0a2.12,2.12,0,0,0-.2.12.17.17,0,0,0,0,.28Z"/><path class="cls-9" d="M119.35,20c.22,0,.42-.2.57-.34a1.55,1.55,0,0,0,.37-.6A1.29,1.29,0,0,0,120,17.7a1.26,1.26,0,0,0-1.3-.27,1.68,1.68,0,0,0-1,.82,2.7,2.7,0,0,0-.22.68c0,.13,0,.27-.05.4a1,1,0,0,0,0,.43.56.56,0,0,0,1,.14l.07-.19a1.33,1.33,0,0,0,0-.21,1.11,1.11,0,0,1,0-.17l0,.16a2.45,2.45,0,0,1,.16-.66l-.06.15a1.33,1.33,0,0,1,.18-.31l-.09.12a1.45,1.45,0,0,1,.17-.18l-.12.1a1,1,0,0,1,.22-.13l-.14.06a1.38,1.38,0,0,1,.27-.08l-.16,0a.67.67,0,0,1,.2,0l-.16,0,.17.05-.15-.06a.75.75,0,0,1,.2.1l-.12-.09.1.1-.09-.12a.94.94,0,0,1,.12.22l-.06-.13a.83.83,0,0,1,.06.21l0-.14a.62.62,0,0,1,0,.13v.08s0,.1,0,0,0,0,0,0,0,0,0,.08l0,.16-.09.28a.51.51,0,0,0,0,.4.23.23,0,0,0,.18.11Z"/><path class="cls-10" d="M119.73,12.22a5,5,0,0,0-.57,1.86,12.75,12.75,0,0,0-.18,2,11.86,11.86,0,0,0,.61,3.92c.21.61,1.17.35,1-.26a12.4,12.4,0,0,1-.68-3.66,11.6,11.6,0,0,1,.1-1.86c.07-.6.29-1.2.3-1.81a.29.29,0,0,0-.54-.15Z"/><path class="cls-10" d="M120.64,20.05a4.57,4.57,0,0,0,1.57-3.57,7.79,7.79,0,0,0-.85-4.08.74.74,0,0,0-1.34.17,32.33,32.33,0,0,0-.46,3.54,16.3,16.3,0,0,0,0,3.56.72.72,0,0,0,.78.51.74.74,0,0,0,.62-.7c0-.55,0-1.11,0-1.65s0-1.1.07-1.65a26.63,26.63,0,0,1,.44-3.21l-1.34.17a7.09,7.09,0,0,1,.83,3.34c0,1.18-.4,2.29-.48,3.45a.14.14,0,0,0,.2.12Z"/><path class="cls-10" d="M120.35,20.24a2.63,2.63,0,0,0,1.38-.83,2.84,2.84,0,0,0,.62-1.68.54.54,0,0,0-.53-.53.53.53,0,0,0-.53.53c0,.11,0,.23,0,.34s0-.12,0,0,0,.05,0,.08a.94.94,0,0,1,0,.16.75.75,0,0,1,0,.16s0,.07,0,.08l0,0,0,0,0,.08a.36.36,0,0,0,0,.09h0a1.19,1.19,0,0,0-.08.16,4.73,4.73,0,0,1-.35.56c0,.07,0,0,0,0l0,.05-.14.13a1.44,1.44,0,0,1-.25.18.23.23,0,0,0,.17.42Z"/><path class="cls-10" d="M123.06,13.12a.91.91,0,0,0-.24.49,2.58,2.58,0,0,0,0,.29,1.94,1.94,0,0,0,0,.24,3.41,3.41,0,0,0,.1.54c0,.07,0,.15.07.23s0,.13.08.19a1,1,0,0,0,.12.16.44.44,0,0,0,.51.06.45.45,0,0,0,.19-.47c0-.1-.07-.18-.1-.28,0,.12,0,0,0,0l0-.08a2.26,2.26,0,0,1-.11-.43s0-.14,0,0a.41.41,0,0,1,0-.11,2.33,2.33,0,0,0,0-.28s0-.13,0,0a.85.85,0,0,0,0-.17c0-.07-.06-.15-.1-.23a.23.23,0,0,0-.36,0Z"/><path class="cls-10" d="M123.43,13.48a.51.51,0,0,0,.25-.21l-.43,0a7.58,7.58,0,0,1,.53,1.32,2.53,2.53,0,0,1,.11.65,3.55,3.55,0,0,0,0,.8.38.38,0,0,0,.68.09,1.5,1.5,0,0,0,.1-.89,5.31,5.31,0,0,0-.16-.87,2.84,2.84,0,0,0-.87-1.43.27.27,0,0,0-.45.12.47.47,0,0,0-.08.26c0,.13.13.27.28.21Z"/><path class="cls-10" d="M123.46,15.28l.21.27a1.47,1.47,0,0,1,.1.13h0s0,0,0,0l0,.07a3.3,3.3,0,0,0,.22.3l.11.13a.44.44,0,0,0,.15.12.34.34,0,0,0,.26,0h-.16a.28.28,0,0,0,.34-.09.27.27,0,0,0,.06-.17.35.35,0,0,0-.06-.18l0,.23a.39.39,0,0,0,0-.26.49.49,0,0,0-.17-.18l-.13-.1-.29-.17-.56-.36a.13.13,0,0,0-.18,0,.15.15,0,0,0,0,.18Z"/><path class="cls-11" d="M124.47,23c.31,0,.55-.28.83-.41a3.25,3.25,0,0,1,1.07-.28,4,4,0,0,1,2.17.43,5.17,5.17,0,0,1,1.73,1.46,7.63,7.63,0,0,1,.64,1,3.79,3.79,0,0,0,.61,1,.39.39,0,0,0,.66-.27,2.65,2.65,0,0,0-.54-1.25,8.06,8.06,0,0,0-.82-1.1,5.86,5.86,0,0,0-2.1-1.56,4.6,4.6,0,0,0-2.43-.3,3.72,3.72,0,0,0-1.17.37c-.29.14-.74.37-.81.72a.16.16,0,0,0,.16.2Z"/><path class="cls-11" d="M131.91,25.76A6.29,6.29,0,0,0,129,24.35a8.65,8.65,0,0,0-3.24-.31.44.44,0,0,0,0,.88,16.74,16.74,0,0,1,3,.37c1,.24,1.88.68,2.85.94a.28.28,0,0,0,.28-.47Z"/><path class="cls-11" d="M125.48,24.79s.11-.07.14-.14a.87.87,0,0,0,.07-.17l-.07.13a.85.85,0,0,0,.17-.62,2.8,2.8,0,0,0-.08-.58,2,2,0,0,0-.65-1,.5.5,0,0,0-.74.05.45.45,0,0,0-.1.37.52.52,0,0,0,.24.37l0,0,0,0,.09.09.08.09c0,.06,0,0,0,0l0,0a3.07,3.07,0,0,1,.26.43l0,.05c0,.05,0-.11,0,0l0,.12.06.23c0,.08,0,.23.09.28s0,0,0,0,0,.05,0,0a.4.4,0,0,0,.07.19.22.22,0,0,0,.28.07Z"/><path class="cls-11" d="M124.73,23.35a1.33,1.33,0,0,0,.67-.12,5.06,5.06,0,0,1,.78-.12,4,4,0,0,1,1.53.16,3.41,3.41,0,0,1,2,1.68.6.6,0,0,0,.66.27c.79-.33.21-1.11-.09-1.48a3.15,3.15,0,0,0-.6-.61,4.46,4.46,0,0,0-1.61-.85,4,4,0,0,0-1.91-.07,3.63,3.63,0,0,0-.9.34c-.23.12-.58.29-.65.57a.19.19,0,0,0,.13.23Z"/><path class="cls-11" d="M130.22,24.55a4,4,0,0,0-.78-.51c-.3-.13-.61-.24-.92-.35l.24.14a2.49,2.49,0,0,0-1.42-.41l-.62-.05h-.29a.83.83,0,0,0-.58.23.6.6,0,0,0,0,.86.8.8,0,0,0,.51.23h.72c.35,0,.7,0,1,.07a4.09,4.09,0,0,0,.5,0l.48.06a2.83,2.83,0,0,0,.5.05,4.47,4.47,0,0,1,.52,0c.19,0,.21-.23.09-.32Z"/><path class="cls-11" d="M126.15,23.87a.06.06,0,0,1,0,0l0,.1a.3.3,0,0,0,.08-.08s0-.05,0-.08,0,0,0,0,0-.07,0,0,0,0,0,0l-.35.09a1.75,1.75,0,0,0,.32,0l.27,0a4.71,4.71,0,0,0,.53,0,4.64,4.64,0,0,1,.53,0,2.44,2.44,0,0,0,.27,0,.68.68,0,0,0,.31-.08.6.6,0,0,0,.22-.23.5.5,0,0,0,0-.49.58.58,0,0,0-.22-.22.68.68,0,0,0-.31-.08,1.55,1.55,0,0,0-.37,0c-.12,0,.1,0,0,0h-.4c-.38,0-.75.09-1.12.14a.42.42,0,0,0-.24.61v0l0-.28c0,.24,0,.63.33.64l-.08,0,0,0a.12.12,0,0,0,.18-.11Z"/><path class="cls-11" d="M126.52,23.23l-.17,0,.12.07,0,0-.28.48a.76.76,0,0,0,.39-.05,1.86,1.86,0,0,0,.31-.1l.22-.12a.51.51,0,0,0,.13-.09.23.23,0,0,0,.06-.21.22.22,0,0,0-.16-.15.44.44,0,0,0-.16,0l-.25,0a1.21,1.21,0,0,0-.31.09l-.13,0a.36.36,0,0,0-.22.11.31.31,0,0,0-.09.2.29.29,0,0,0,.09.21.29.29,0,0,0,.4,0l0,0-.12.06.17,0a.23.23,0,0,0,.17-.22.25.25,0,0,0-.17-.22Z"/><path class="cls-12" d="M124.19,22.13a1.15,1.15,0,0,0,.11-.46c0-.18.07-.34.08-.53a3.12,3.12,0,0,1,.1-.82,1.2,1.2,0,0,1,.35-.57.26.26,0,0,1,.09-.06s.18-.1.11-.07l.18-.05s.18,0,.08,0a2.54,2.54,0,0,1,.39,0c-.1,0,.07,0,.09,0l.19.05h0l.09,0,.17.1.17.11s.16.13.12.09a6.49,6.49,0,0,1,1.11,1.3.67.67,0,0,0,.89.23.65.65,0,0,0,.23-.89,6.65,6.65,0,0,0-1.56-1.74,2.94,2.94,0,0,0-2.17-.5,2.1,2.1,0,0,0-1.61,1.47,2.88,2.88,0,0,0-.11,1.2,1.77,1.77,0,0,0,.23.63,1.66,1.66,0,0,0,.34.49.19.19,0,0,0,.3,0Z"/><path class="cls-12" d="M128.68,21.22a1.28,1.28,0,0,0-.51-.47,4.15,4.15,0,0,0-.6-.29,3.83,3.83,0,0,0-1.31-.16,4.59,4.59,0,0,0-1.27.23,2.2,2.2,0,0,0-1.24.83.62.62,0,0,0,.53.92,1.81,1.81,0,0,0,.7-.23l.11-.05c.1-.05-.09,0,0,0l.24-.09a4.84,4.84,0,0,1,.51-.14l.25-.05h.16l.51,0,.25,0h0l.13,0,.36,0s.09,0,0,0l.13,0a2.09,2.09,0,0,0,.61.08.43.43,0,0,0,.37-.65Z"/><path class="cls-12" d="M124.07,21.81c.18-.18.37-.35.56-.51l.15-.13s0,0,0,0l.08-.06.09-.05c.06,0,0,0,0,0l.15-.05a.2.2,0,0,1,.08,0h0s.17,0,.19-.06l.22,0s.16,0,0,0,0,0,.06,0a1.61,1.61,0,0,1,.22,0H126c.16,0-.22,0,0,0,.11,0,.12,0,0,0h0l.1,0c.12,0,.24,0,.36.06h-.08l.18,0a.78.78,0,0,0,.36-.1.62.62,0,0,0,.29-.38.73.73,0,0,0-.07-.48,1,1,0,0,0-.73-.45,2.08,2.08,0,0,0-.66,0,2.44,2.44,0,0,0-1.19.42,1.81,1.81,0,0,0-.86,1.8.16.16,0,0,0,.26.07Z"/><path class="cls-12" d="M128.51,20.81l-.07,0,.2,0h-.18a.36.36,0,0,0-.15.08.86.86,0,0,0-.07.1h0a.24.24,0,0,0,0,.09h0a.49.49,0,0,0,0,.12,0,0,0,0,0,0,.05.62.62,0,0,0,0,.13s0,0,0,0a1.11,1.11,0,0,0,.07.16l0-.09a.61.61,0,0,1,.05.12.52.52,0,0,0,.16.17l.17.07a.29.29,0,0,0,.16,0,.3.3,0,0,0,.15-.05l.08-.06a.26.26,0,0,0,.08-.13.19.19,0,0,0,0-.1.49.49,0,0,0,0-.17l-.05-.09a.34.34,0,0,0-.14-.15l0,0,.08.06h0a.44.44,0,0,0-.19-.1h0l.1,0h0l.08.06s0,0,0-.05l.06.08,0-.07,0,.08a.14.14,0,0,1,0-.07v.09s0-.08,0-.12,0,0,0,0v.09a.33.33,0,0,0,0-.17.34.34,0,0,0-.12-.12l.13.23h0a.22.22,0,0,0-.1-.2.23.23,0,0,0-.22-.05Z"/><path class="cls-12" d="M124.1,21.67l-.23.13.15,0a.3.3,0,0,0-.25.1l0,0-.07.07a.36.36,0,0,0-.09.22.27.27,0,0,0,0,.12.18.18,0,0,0,.06.09.27.27,0,0,0,.22.09H124a.26.26,0,0,0,.13-.08l.07-.06,0,0a.35.35,0,0,0,.1-.25l0,.14.13-.22,0,0a.14.14,0,0,0,0-.09.07.07,0,0,0,0,0,.22.22,0,0,0,0-.08l-.1-.05a.18.18,0,0,0-.16,0Z"/><path class="cls-13" d="M101.16,14.75c.11-.15.26-.27.38-.43a2.87,2.87,0,0,0,.26-.49c.16-.34.31-.69.46-1,.29-.65.58-1.3.88-1.94l1-2a7.46,7.46,0,0,0,.47-1,1,1,0,0,0-.57-1.2c-1-.26-1.3.86-1.61,1.52s-.64,1.43-.93,2.17-.53,1.31-.77,2c-.13.35-.26.71-.36,1.07a6.29,6.29,0,0,0-.11,1.14c0,.54.68.62.94.25Z"/><path class="cls-13" d="M103.66,8a3.16,3.16,0,0,0,1,.36,9.08,9.08,0,0,0,1,.07h1.93c.65,0,1.29,0,1.94-.09a6.7,6.7,0,0,0,1.94-.64c.28-.13.17-.52-.07-.6a7.21,7.21,0,0,0-1.87-.46c-.67,0-1.34,0-2,0l-1.94,0a7.71,7.71,0,0,0-1,0,3.47,3.47,0,0,0-1,.34.55.55,0,0,0,0,.95Z"/><path class="cls-13" d="M100.24,15a9.84,9.84,0,0,0,4.05-.48l2-.44c.61-.13,1.47-.21,1.83-.8a.41.41,0,0,0-.14-.54c-.56-.36-1.37,0-2,.09l-2.09.52a9.94,9.94,0,0,0-3.8,1.35.18.18,0,0,0,.08.3Z"/><path class="cls-13" d="M108,13.61c.23,0,.38-.17.54-.31a4.53,4.53,0,0,0,.54-.62c.33-.46.67-.9,1-1.36.63-.92,1.23-1.86,1.81-2.82.26-.41.77-1.19.16-1.56s-1.07.48-1.31.89c-.58,1-1.15,1.91-1.7,2.88-.32.55-.65,1.1-.92,1.67-.09.2-.61,1.2-.11,1.23Z"/><path class="cls-13" d="M110.64,7.55c-.3.35-.66.62-1,1s-.64.73-1,1.1c-.62.73-1.18,1.51-1.79,2.25l1.14.89c.7-1.33,1.45-2.65,2-4,.15-.37-.24-.76-.59-.76-1.05,0-1.64,1.14-2.2,1.86-.76.95-1.47,1.94-2.19,2.92l1.16.68q1.05-2.12,2.08-4.25a.7.7,0,0,0-.18-.91.69.69,0,0,0-.92.05l-3.44,4.41,1.17.9A20.57,20.57,0,0,0,106.77,9a.79.79,0,0,0-1.44-.61c-1,1.54-2,3.07-3.06,4.6l1.42.6.9-2.32A19.94,19.94,0,0,0,105.48,9c.23-1-1.28-1.39-1.5-.42a12.17,12.17,0,0,1-1.14,2.71,17.59,17.59,0,0,1-1.52,2.54.74.74,0,0,0,.27,1,.76.76,0,0,0,1-.27,17.62,17.62,0,0,0,1.52-2.63,27.72,27.72,0,0,1,1.27-2.77l-1.34-.78a18.83,18.83,0,0,0-1,2.43c-.31.8-.61,1.61-.92,2.41s1,1.29,1.42.6q1.53-2.31,3.08-4.6l-1.44-.6a20.16,20.16,0,0,1-1.54,4.27.74.74,0,0,0,1.28.75l3.37-4.45-1.21-.71c-.68,1.43-1.37,2.85-2,4.28a.67.67,0,0,0,1.16.68c.52-.77,1-1.54,1.55-2.33.12-.19,1.18-2.1,1.38-2L109,8.25c-.81,1.19-1.48,2.5-2.19,3.76-.39.69.61,1.55,1.15.88a22,22,0,0,0,1.82-2.46c.25-.42.49-.86.7-1.3s.3-.93.5-1.39c.07-.18-.21-.33-.33-.19Z"/><path class="cls-13" d="M106.68,8.1a1.5,1.5,0,0,0-.25.19l.22-.12a.79.79,0,0,0-.57.63l.19-.33c-.4.35-.21,1,0,1.38l.07.11a1.18,1.18,0,0,0,.38.39,1.09,1.09,0,0,0,.65.2,1,1,0,0,0,.42-.11l.17-.13a.65.65,0,0,0,.17-.27.42.42,0,0,0,.06-.21.45.45,0,0,0,0-.23.42.42,0,0,0-.06-.21.65.65,0,0,0-.17-.27,2,2,0,0,0-.28-.23l.17.14-.09-.09c-.1-.09-.18-.12-.27-.19l.17.14a.9.9,0,0,1-.19-.2l.12.17-.09-.14,0-.06a.77.77,0,0,0-.48-.38l.32.19,0,0,.11.14-.06-.08a.68.68,0,0,0-.42-.32l.29.22h0l0,.11a.36.36,0,0,1,0-.09s0-.14,0,0a.33.33,0,0,0-.17-.3.32.32,0,0,0-.35,0Z"/><path class="cls-13" d="M107.84,13.56a1.07,1.07,0,0,0,.16.14l-.07-.06.09.09-.11-.18a.51.51,0,0,0,.12.2.45.45,0,0,0,.13.1l.2.08-.12,0,.07,0-.25-.34a.38.38,0,0,0,.1.2.55.55,0,0,0,.23.17.58.58,0,0,0,.26.06,2.4,2.4,0,0,0,.28,0,1.66,1.66,0,0,0,.39-.15.63.63,0,0,0,.3-.39.65.65,0,0,0,0-.34.43.43,0,0,0-.12-.22.58.58,0,0,0-.18-.17.46.46,0,0,0-.25-.08.58.58,0,0,0-.26,0,.62.62,0,0,0-.28.17.48.48,0,0,1-.11.09l.13-.09a1,1,0,0,1-.18.1l.14-.06a.9.9,0,0,0-.3.17.54.54,0,0,0-.09.12.36.36,0,0,0-.07.22.17.17,0,0,0,0,.07l.16-.39,0,0,.11-.08,0,0,.12,0a.29.29,0,0,1-.1,0,.52.52,0,0,0-.31.23l.25-.19-.11,0h.15l-.1,0a.31.31,0,0,0-.3.52Z"/><path class="cls-13" d="M105.21,14.92a.05.05,0,1,0,0-.1.05.05,0,0,0,0,.1Z"/><path class="cls-13" d="M105.05,15a.05.05,0,0,0,0-.1.05.05,0,1,0,0,.1Z"/><path class="cls-13" d="M104.6,15.23a8.6,8.6,0,0,0,2.32-.06l2.38-.26a.35.35,0,0,0,.35-.35.34.34,0,0,0-.35-.34c-.81.09-1.62.19-2.42.3a9,9,0,0,0-2.31.48.12.12,0,0,0,0,.23Z"/><path class="cls-13" d="M109.12,14.81a1.41,1.41,0,0,0,.42-.26,5,5,0,0,0,.38-.42,5.57,5.57,0,0,0,.58-.93,7.6,7.6,0,0,0,.43-1c0-.18.1-.36.14-.54a1.31,1.31,0,0,0,.06-.68.48.48,0,0,0-.79-.2,2.88,2.88,0,0,0-.35,1.06c-.1.32-.2.65-.33,1s-.25.56-.38.84a3.52,3.52,0,0,0-.39,1c0,.11.08.27.23.22Z"/><path class="cls-13" d="M110.5,10.72a4.51,4.51,0,0,0-.18.81,3.85,3.85,0,0,0,0,.83,3.14,3.14,0,0,0,.18.86,2.19,2.19,0,0,0,.45.87.49.49,0,0,0,.82-.47,2.53,2.53,0,0,0-.21-.44s0-.1-.08-.16l0-.09c-.09-.23-.17-.47-.25-.71a4.18,4.18,0,0,1-.23-1.44.22.22,0,0,0-.42-.06Z"/><path class="cls-13" d="M111.5,13.75a1.52,1.52,0,0,0-1.13,0,5.68,5.68,0,0,0-1.1.49,8.08,8.08,0,0,0-1.85,1.39c-.13.13-.26.26-.38.4a1.17,1.17,0,0,0-.38.68.52.52,0,0,0,.52.52c.27,0,.43-.22.6-.41a7.7,7.7,0,0,1,1.66-1.46,9.75,9.75,0,0,1,1.09-.61,2.21,2.21,0,0,0,1-.71.23.23,0,0,0-.08-.31Z"/><path class="cls-13" d="M107.66,16.63v-.09s0-.13,0,0c0-.11,0-.17,0-.28l0-.08a3.11,3.11,0,0,0-.2-.41.35.35,0,0,0-.05-.08s0,0,0,0,0,0,0-.11l-.08-.13a4.09,4.09,0,0,0-.33-.38,4.34,4.34,0,0,0-.69-.5,3.07,3.07,0,0,0-.31-.17,1.29,1.29,0,0,0-.63-.17.66.66,0,0,0-.59.4.64.64,0,0,0,.13.71,1.33,1.33,0,0,0,.41.25l.2.08-.16-.07a3.41,3.41,0,0,1,.78.46L105.9,16c.13.1.25.21.39.31s.11.1,0,0l.06.05a.74.74,0,0,0,.17.12s0,0,0,0h0c.08.09.17.17.25.25a.72.72,0,0,0,.18.17l.09,0s0,0,0,0,.09.07,0,0a.4.4,0,0,0,.43.08.38.38,0,0,0,.24-.36Z"/><path class="cls-13" d="M106.13,15.75a6.13,6.13,0,0,0,2.26-.09,6.38,6.38,0,0,0,2.08-1,.61.61,0,0,0-.62-1.06,8,8,0,0,1-1.75,1c-.32.13-.65.25-1,.36a4.84,4.84,0,0,1-1,.27.25.25,0,0,0,0,.5Z"/><path class="cls-13" d="M108.68,15a5.59,5.59,0,0,0,.6-.46l.13-.12.07-.07h0a1.27,1.27,0,0,0,.36-.37,1,1,0,0,0,.07-.15s0,0,0,0l.08-.11,0-.08a3.75,3.75,0,0,0,.16-.43,2.09,2.09,0,0,0,.07-1,.6.6,0,0,0-1.09-.15,6.19,6.19,0,0,0-.39.92c-.11.36-.25.94.17,1.16a.47.47,0,0,0,.63-.24,2.15,2.15,0,0,0,.15-.51.42.42,0,0,0,0-.1s0-.13,0,0a.63.63,0,0,1,.1-.2l.13-.19c0,.05-.06.07,0,0l0,0,.09-.08-1-.43c0,.22,0,.45,0,.67,0,0,0,0,0,.07s0,.11,0,0c0,.05,0,.1,0,.15s0,.05,0,.08a.77.77,0,0,0,0,.15s0,0,0,0,0,0,0,0l0,.08a1.78,1.78,0,0,0-.07.39s0,.07,0,0,0,.06,0,.06l0,.09a2.25,2.25,0,0,1-.37.54c-.14.15,0,.41.22.3Z"/><path class="cls-13" d="M109.74,13.31a.9.9,0,0,0,.08.21l0,.05a1.71,1.71,0,0,0,.11.14,1.24,1.24,0,0,0,.18.14.67.67,0,0,0,.23.1l-.21-.11h0l-.12-.21,0,.07a.19.19,0,0,0,.07.11.29.29,0,0,0,.14.13l.12.05.14,0h.1a.77.77,0,0,0,.39-.11.48.48,0,0,0,.22-.3l0-.13a.41.41,0,0,0,0-.19.24.24,0,0,0-.06-.11.43.43,0,0,0-.14-.13l-.12-.05a.62.62,0,0,0-.27,0l-.13.06.12-.05-.12,0,.14,0h-.08a.54.54,0,0,0-.48.26l.28-.21h.23a.7.7,0,0,1-.14,0l.11,0-.1-.06.08.07-.08-.08.07.08a.22.22,0,0,1,0-.08l0,.1v0a.23.23,0,0,0-.07-.14.32.32,0,0,0-.12-.11.41.41,0,0,0-.31,0,.4.4,0,0,0-.25.19l0,.1a.41.41,0,0,0,0,.22Z"/><path class="cls-13" d="M109.38,14a1.42,1.42,0,0,1-.4-.12c-.12,0-.25,0-.37-.07a1.91,1.91,0,0,0-.48,0s-.18,0-.11,0l-.28-.05a5.21,5.21,0,0,0-.79,0,8.09,8.09,0,0,0-1,.08.79.79,0,0,0,.21,1.54,7.89,7.89,0,0,0,1-.17,4.32,4.32,0,0,0,.78-.22,3.72,3.72,0,0,1,.37-.14,1.52,1.52,0,0,0,.42-.16,3.23,3.23,0,0,0,.34-.15l.16-.13a1.07,1.07,0,0,1,.22-.1.13.13,0,0,0,0-.26Z"/><path class="cls-11" d="M90.2,116.48c-.15-.11,0,.09.08.12a1.37,1.37,0,0,0,.23.17,1.69,1.69,0,0,0,.43.2,4,4,0,0,0,.85.17,3.5,3.5,0,0,0,1.71-.32,2.8,2.8,0,0,0,1.15-1.06,5.32,5.32,0,0,0,.35-.61,2.07,2.07,0,0,0,.14-.42.64.64,0,0,0,0-.47.38.38,0,0,0-.55-.22.79.79,0,0,0-.28.32,1.32,1.32,0,0,1-.12.2,2.88,2.88,0,0,1-.31.44,3.75,3.75,0,0,1-1,.62l-.07,0-.11,0a2,2,0,0,1-.33.09l-.14,0c.11,0,0,0-.06,0h-.52s-.1,0,0,0a2.05,2.05,0,0,1-.34-.07l-.33-.09-.13,0s-.32-.08-.15,0a.5.5,0,1,0-.5.86Z"/><path class="cls-11" d="M94.44,114.31a.63.63,0,0,0-.14.46s0,.35,0,.17a2.8,2.8,0,0,0,.06.28,5.8,5.8,0,0,0,.33.76c.23.44.46.87.71,1.3a.69.69,0,0,0,.93.24.7.7,0,0,0,.24-.93c-.23-.45-.48-.89-.74-1.33a2.29,2.29,0,0,0-.28-.41,2.21,2.21,0,0,0-.22-.29c-.2-.2-.63-.49-.89-.25Z"/><path class="cls-11" d="M95.77,116.58a1.34,1.34,0,0,0-.32.31c-.1.1-.2.21-.31.3s-.41.41-.63.6l-.15.14-.08.06,0,0-.35.25-.36.24c-.19.12-.4.22-.46.46a.43.43,0,0,0,.3.53.53.53,0,0,0,.44-.07l.18-.13c.15-.1.29-.21.43-.32s.43-.4.64-.6a4.64,4.64,0,0,0,.62-.71c.09-.12.17-.24.25-.37a1.06,1.06,0,0,0,.22-.42.26.26,0,0,0-.38-.29Z"/><path class="cls-11" d="M91.76,117.73c.24.28.5.55.72.84l.34.43.17.22a1.25,1.25,0,0,0,.3.26.51.51,0,0,0,.63-.08.62.62,0,0,0,.14-.23.58.58,0,0,0,0-.41,2,2,0,0,0-.42-.5l-.39-.4c-.26-.26-.5-.55-.74-.83a.49.49,0,1,0-.7.7Z"/><path class="cls-11" d="M93.25,117.81s0-.08,0,0,0,0,0-.08,0,0,0,0,0-.11,0,0,0-.06,0-.09l0,0,0,0a.43.43,0,0,0,0-.07l0,0,0,0,.12-.13,0,0,.09-.07c-.09.06,0,0,0,0a1,1,0,0,1,.17-.1l.1-.05c.1,0-.1,0,0,0,.27-.11.55-.19.82-.31a3.9,3.9,0,0,0,.35-.19,1.8,1.8,0,0,0,.43-.44l-1-.57-1.2,2.12a.57.57,0,0,0,.2.77.58.58,0,0,0,.77-.2c.4-.71.79-1.42,1.2-2.12a.57.57,0,0,0-.2-.77.61.61,0,0,0-.44-.06.7.7,0,0,0-.33.26c.1-.13,0,0,0,0a.6.6,0,0,1-.08.08.46.46,0,0,1-.07.07l0,0s0,0,.05,0-.06,0-.08.06l-.1.06-.19.1a4.81,4.81,0,0,0-.77.42,1.4,1.4,0,0,0-.6.84.88.88,0,0,0,0,.16c0-.12,0,0,0,.09a1.22,1.22,0,0,0,0,.27,1.09,1.09,0,0,0,.21.45.35.35,0,0,0,.45,0,.35.35,0,0,0,.09-.44Z"/><path class="cls-11" d="M94.17,118.49h0a.33.33,0,0,0,.3-.08h0l.09-.07.08-.09.14-.17.16-.17s.09-.08,0,0a.64.64,0,0,0,.15-.13c.12-.14.24-.28.35-.43l.12-.18a.61.61,0,0,0,.07-.1,1.24,1.24,0,0,0,.1-.2v-.13a.34.34,0,0,0,0-.2.52.52,0,0,0-.2-.24.53.53,0,0,0-.61.08,2.91,2.91,0,0,0-.32.46c-.08.13-.15.27-.22.4l0,.06c-.06.12-.07.14,0,.06s0,.07,0,.08a2.4,2.4,0,0,1-.11.23,2.67,2.67,0,0,0-.2.46.3.3,0,0,0,.08.3.29.29,0,0,0,.12.07Z"/><path class="cls-11" d="M90.55,125.88a3.25,3.25,0,0,0,1.8.56c.59.07,1.19.11,1.79.13s1.19,0,1.78,0a9.24,9.24,0,0,0,2-.13c.61-.15.67-1.19,0-1.3a13.94,13.94,0,0,0-1.83,0c-.62,0-1.24,0-1.86,0L92.42,125a3.61,3.61,0,0,0-1.79.21.42.42,0,0,0-.08.66Z"/><path class="cls-11" d="M97.13,126.24c.12.35.37.39.7.46l.84.18c.59.13,1.17.25,1.75.39l1.74.43a3.5,3.5,0,0,0,1.8.23.37.37,0,0,0,.17-.61,3.57,3.57,0,0,0-1.79-.74c-.62-.15-1.24-.29-1.87-.41s-1.26-.25-1.89-.34a4.78,4.78,0,0,0-1-.12c-.23,0-.56.25-.46.53Z"/><path class="cls-11" d="M100.11,127.09c0,.34.35.49.6.59a10.3,10.3,0,0,0,1.4.44,28.79,28.79,0,0,0,2.89.54,12.74,12.74,0,0,0,2.54.2c.71,0,1.78-.18,2.06-1,.1-.26-.14-.46-.37-.49a3.34,3.34,0,0,0-1.06.25,4,4,0,0,1-1.14.11,17.51,17.51,0,0,1-2.51-.27c-.89-.14-1.77-.31-2.64-.5-.31-.07-1.7-.52-1.77.08Z"/><path class="cls-11" d="M109.33,127.54c-.12-.26-.49-.32-.74-.37a10.87,10.87,0,0,0-1.14-.2c-.78-.1-1.56-.27-2.33-.4s-1.54-.34-2.31-.5a2.73,2.73,0,0,0-1.23-.14.67.67,0,0,0-.46.81c.12.44.64.55,1,.63s.78.14,1.17.21c.78.12,1.59.19,2.38.26A20.43,20.43,0,0,0,108,128c.18,0,1.5,0,1.29-.42Z"/><path class="cls-11" d="M109.73,127.74a18.79,18.79,0,0,0,2-.78c.62-.3,1.26-.57,1.89-.84s1.29-.5,1.94-.71l1.06-.32a1.6,1.6,0,0,0,.88-.48.3.3,0,0,0-.14-.5c-.62-.26-1.46.14-2.06.34s-1.39.48-2.07.74a20.06,20.06,0,0,0-2,.91,8.17,8.17,0,0,0-1.74,1.23.25.25,0,0,0,.24.41Z"/><path class="cls-11" d="M114.48,126.15l.55-.22.28-.11h0a.45.45,0,0,0,.16,0l.14,0,.54-.19a3.48,3.48,0,0,0,.63-.26.48.48,0,0,0,.2-.62.49.49,0,0,0-.58-.29,5,5,0,0,0-.63.27l-.51.26-.13.07L115,125s-.06,0,0,0l-.27.12-.55.25a.4.4,0,0,0-.16.49.39.39,0,0,0,.47.23Z"/><path class="cls-11" d="M116.54,124.4c0-.94-1.63-.86-2.21-.78-1.19.18-2.34.6-3.51.87s-2.49.51-3.75.68c-.62.08-1.24.15-1.87.21a5.38,5.38,0,0,0-1.69.31c-.47.21-.29.9.14,1a4.49,4.49,0,0,0,1.79,0c.61,0,1.21-.12,1.82-.21,1.2-.17,2.4-.39,3.58-.67s2.27-.63,3.41-.92a8.82,8.82,0,0,1,1.69-.18c.21,0,.59-.08.6-.37Z"/><path class="cls-11" d="M106.45,127.27a9.09,9.09,0,0,0,.91.15,5.25,5.25,0,0,0,1,.12,9.08,9.08,0,0,0,1.94-.21,9.42,9.42,0,0,0,1.79-.53c.31-.13.63-.26.93-.42a2,2,0,0,0,.46-.3,1.07,1.07,0,0,0,.24-.71.45.45,0,0,0-.23-.41,1,1,0,0,0-.75-.15,3.22,3.22,0,0,0-.51.21c-.22.11-.44.21-.67.3a12.54,12.54,0,0,1-3.2.81c-.29,0-.57.09-.86.14s-.59,0-.89,0a.49.49,0,0,0-.13,1Z"/><path class="cls-11" d="M114.35,124.52a1.79,1.79,0,0,0,.4,0H115c-.07,0-.08,0,0,0l.27,0h.17a1.84,1.84,0,0,1,.33,0l-.16,0c.29,0,.58,0,.88.09l-.18,0a1.34,1.34,0,0,0,.35,0,.75.75,0,0,0,.47-.19.7.7,0,0,0,.18-.39.62.62,0,0,0-.08-.42.81.81,0,0,0-.4-.3,1.21,1.21,0,0,0-.43-.06l-.29,0a3.45,3.45,0,0,0-.71.09l-.28.06-.12,0-.17.07c.07,0,.07,0,0,0l-.28.09a1.36,1.36,0,0,0-.37.21.43.43,0,0,0,.18.71Z"/><path class="cls-11" d="M107.31,123c-.53-.17-1,.25-1.38.56a11,11,0,0,0-.94.87c-.32.34-.6.7-.88,1.06l-.36.52a1.72,1.72,0,0,0-.2.38.84.84,0,0,0,0,.64.58.58,0,0,0,.53.3c.41,0,.6-.28.81-.6s.22-.33.33-.5l.19-.25c-.06.08,0,0,0,0l.09-.11c.13-.17.26-.33.4-.48a11.5,11.5,0,0,1,.85-.86,4.18,4.18,0,0,0,.53-.5c-.08.1,0,0,.08-.11l.07-.11a.84.84,0,0,0,.11-.41.41.41,0,0,0-.29-.38Z"/><path class="cls-11" d="M106.16,122.9a11.66,11.66,0,0,1-1.51.51c-.52.13-1,.32-1.54.49s-1,.29-1.46.42-1.64.54-1.2,1.32c.36.63,1.27.33,1.81.16a14.59,14.59,0,0,0,1.44-.53,9,9,0,0,0,1.53-.75c.45-.29.9-.59,1.36-.87a.43.43,0,0,0-.43-.75Z"/><path class="cls-11" d="M104.63,124.92c-.48,0-1,0-1.45,0a10.75,10.75,0,0,1-1.5-.06l-.19,0-.19,0-.19,0c-.11,0-.13,0,0,0-.22,0-.43-.08-.65-.13a2.25,2.25,0,0,0-1-.12.88.88,0,0,0-.7.84c0,.92,1.09,1,1.77,1.08a6.65,6.65,0,0,0,1.41,0,7.19,7.19,0,0,0,1.58-.34,5.79,5.79,0,0,0,1.3-.79c.16-.11.12-.41-.11-.39Z"/><path class="cls-11" d="M101.89,124.83a1.3,1.3,0,0,0-.29-.44c-.13-.13-.25-.27-.39-.39a6.43,6.43,0,0,1-.71-.58l-.34-.36a3.59,3.59,0,0,0-.36-.32l-.48-.38a2.78,2.78,0,0,0-.4-.3.73.73,0,0,0-.92.19.7.7,0,0,0,.06.93,3.5,3.5,0,0,0,.49.37l.41.27a2.67,2.67,0,0,0,.43.25l.44.22c.29.15.55.36.83.54s.29.14.44.22a1.26,1.26,0,0,0,.51.15.3.3,0,0,0,.28-.37Z"/><path class="cls-11" d="M94.94,124.59a.47.47,0,0,0,.44.12,4.08,4.08,0,0,0,.52-.07,4.72,4.72,0,0,0,1-.38,7.08,7.08,0,0,0,.89-.49l.4-.28a1.62,1.62,0,0,0,.48-.46.42.42,0,0,0,0-.47.43.43,0,0,0-.46-.16,1.85,1.85,0,0,0-.51.37l-.37.28a7.27,7.27,0,0,1-.89.54c-.3.15-.63.26-.92.42a4.81,4.81,0,0,0-.46.22c-.1.06-.22.24-.12.36Z"/><path class="cls-11" d="M94.46,124.93a.07.07,0,1,0,0-.13.07.07,0,0,0,0,.13Z"/><path class="cls-11" d="M94.05,125.37c.94-.05,1.88-.14,2.83-.23.46,0,.92-.08,1.38-.11a6,6,0,0,0,1.47-.21.51.51,0,0,0-.13-1,5.67,5.67,0,0,0-1.48.13c-.45.08-.9.14-1.35.2-1,.11-1.89.24-2.83.41-.46.07-.36.83.11.81Z"/><path class="cls-11" d="M98.21,123.11l-.13.06-.07,0-.08.07-.1.07a.71.71,0,0,0-.1.14l-.09.18a2.14,2.14,0,0,0-.25,1,4.42,4.42,0,0,0,.11.89,2.24,2.24,0,0,0,.1.37,1.47,1.47,0,0,0,.33.6.7.7,0,0,0,1.19-.5,1.16,1.16,0,0,0-.12-.44c.11.26,0-.13-.07-.17l0,.05,0-.09-.06-.17c0-.1,0-.21-.07-.31s0-.06,0-.09,0-.06,0,0a1.41,1.41,0,0,0,0-.18c0-.11,0-.21,0-.32s0,0,0-.08,0,.11,0,0,0-.29,0-.43c0,.15,0,0,0-.07a.69.69,0,0,0,0-.25l-.11-.28a.22.22,0,0,0-.32-.13Z"/><path class="cls-11" d="M98.94,124l0,.09,0,0s0,0,0,0v0l0,.11,0,.09a1.65,1.65,0,0,0,.27.38l-.13-.23c0,.21.22.36.35.5l.29.31c.25.27.53.72,1,.67a.64.64,0,0,0,.42-.18.67.67,0,0,0,.18-.42c0-.45-.39-.68-.71-.92l.13.1-.41-.32-.19-.16-.19-.15a.78.78,0,0,0-.33-.09l.26.07-.16-.11a.88.88,0,0,0-.24-.11,2,2,0,0,1-.32-.11.27.27,0,0,0-.3.11.29.29,0,0,0,0,.32Z"/><path class="cls-11" d="M107.38,123.46h.07l-.15-.06a.39.39,0,0,0,.16.1.21.21,0,0,0,.13,0h.11a1.35,1.35,0,0,0,.34-.06,4,4,0,0,0,.57-.23.47.47,0,0,0,.23-.3.46.46,0,0,0,0-.38.5.5,0,0,0-.3-.23.56.56,0,0,0-.38,0,2.8,2.8,0,0,0-.43.27.83.83,0,0,0-.18.13.3.3,0,0,1-.08.08l-.07.09a.47.47,0,0,0-.12.32l0-.11,0,0a.18.18,0,0,0,.16.27Z"/><path class="cls-13" d="M95.39,124.64a2.73,2.73,0,0,0,1.06-.33,8.65,8.65,0,0,0,.93-.54,7,7,0,0,0,1.6-1.48.33.33,0,0,0,0-.38.35.35,0,0,0-.19-.15.31.31,0,0,0-.31.08A8,8,0,0,1,97,123.19a7.35,7.35,0,0,1-.85.51,6.23,6.23,0,0,0-.93.47.26.26,0,0,0,.13.47Z"/><path class="cls-13" d="M110.56,125.76c.84-.25,1.63-.63,2.49-.86.42-.11.84-.21,1.27-.28a5.53,5.53,0,0,0,1.28-.29c.24-.1.15-.46-.06-.51a3.33,3.33,0,0,0-1.44,0,11.78,11.78,0,0,0-1.31.29,12.07,12.07,0,0,0-1.27.46c-.22.09-.45.18-.66.29a3.37,3.37,0,0,0-.58.41c-.23.18,0,.55.28.47Z"/><path class="cls-13" d="M103.81,124.71a3.1,3.1,0,0,0,.42.08h.18l.28,0a2.35,2.35,0,0,0,.43-.13.71.71,0,0,0,.14-.1.38.38,0,0,0,.09-.13s.06-.12,0,0,0,0,0,0a.61.61,0,0,1,.07-.1.27.27,0,0,0,0-.3.28.28,0,0,0-.29-.1h-.07c.06,0,.07,0,0,0a.36.36,0,0,0-.25,0,.56.56,0,0,0-.16.07l.09-.05-.2.09.1,0c-.15.06-.3.09-.44.15a2.36,2.36,0,0,1-.44.11.27.27,0,0,0,0,.52Z"/><path class="cls-13" d="M105.2,127.9c.28,0,.56.08.84.14l.51.06h.22a.81.81,0,0,0,.37-.12.41.41,0,0,0,.21-.36.42.42,0,0,0-.21-.37.69.69,0,0,0-.28-.11,1.43,1.43,0,0,0-.29,0h-.43c-.28,0-.56,0-.85.06a.36.36,0,0,0-.35.31.36.36,0,0,0,.26.4Z"/><path class="cls-13" d="M91.46,125.86l.52,0h.26l.2,0h0a.59.59,0,0,0,.17-.1.28.28,0,0,0,.09-.26.32.32,0,0,0-.15-.22.55.55,0,0,0-.25-.07.48.48,0,0,0-.12,0,2.3,2.3,0,0,0-.26,0l-.51.06a.31.31,0,0,0-.31.31.33.33,0,0,0,.31.32Z"/><path class="cls-13" d="M92.76,117.13a1.82,1.82,0,0,0,.39-.14l.32-.19.33-.2a4,4,0,0,0,.34-.23.54.54,0,0,0,.23-.36c0-.2-.25-.18-.39-.14a2.51,2.51,0,0,0-.7.38l-.36.23-.09.06-.06,0,0,0s0,0,0,0l-.13.14a.2.2,0,0,0,.19.33Z"/><path class="cls-13" d="M93.56,117.69l0,0a.28.28,0,0,0,.13,0h.11a1.12,1.12,0,0,0,.32,0,2.7,2.7,0,0,0,.53-.22,2.47,2.47,0,0,0,.44-.27,1.59,1.59,0,0,0,.24-.2.85.85,0,0,0,.17-.25.2.2,0,0,0-.23-.29,1.38,1.38,0,0,0-.27.08l-.21.11c-.15.09-.3.16-.46.24l-.21.1-.06,0h0l-.18.08a1.49,1.49,0,0,0-.24.14l-.07.06-.07.06s0,.06,0,.09a.15.15,0,0,0,0,.2Z"/><path class="cls-13" d="M123,69.6a28.46,28.46,0,0,0-1.6,4.22,34,34,0,0,1-4.79,8.32c-1,1.23-2.15,2.28-3.13,3.5-.19.24.06.68.36.47a17.65,17.65,0,0,0,3.28-3.46,33.92,33.92,0,0,0,2.75-4.05,31,31,0,0,0,2-4.32,11.32,11.32,0,0,0,1.15-4.67s0,0-.06,0Z"/><path class="cls-13" d="M88.1,94.68c.6,1,2,1.18,3,1.11a4.7,4.7,0,0,0,3.12-1.38c.33-.37-.12-1.06-.56-.73a5.1,5.1,0,0,1-2.6,1.06,4.7,4.7,0,0,1-1.4-.08,8.86,8.86,0,0,0-1.44-.25.18.18,0,0,0-.16.27Z"/><path class="cls-13" d="M78.74,94.11a7.73,7.73,0,0,0,4.76,1.66A10.16,10.16,0,0,0,86,95.59c.71-.14,1.88-.31,2.25-1a.27.27,0,0,0-.16-.4c-.68-.16-1.46.3-2.13.45a9.28,9.28,0,0,1-2.41.19,10.22,10.22,0,0,1-2.32-.38c-.76-.22-1.49-.55-2.23-.82a.29.29,0,0,0-.28.49Z"/><path class="cls-13" d="M69.05,92.38a0,0,0,0,0,0,0s0,0,0,0Z"/><path class="cls-13" d="M69,92.57c.13.7,1.21,1.28,1.78,1.61a7.71,7.71,0,0,0,2.46.88,7.92,7.92,0,0,0,2.66,0,4.61,4.61,0,0,0,2.52-1c.12-.12.05-.4-.16-.38a6.12,6.12,0,0,0-1.11.32,10.42,10.42,0,0,1-1.23.28,7.78,7.78,0,0,1-4.74-.76,8.86,8.86,0,0,1-1-.61,2.36,2.36,0,0,0-.92-.55.2.2,0,0,0-.24.24Z"/><path class="cls-13" d="M43.74,93.32a8.76,8.76,0,0,0,2.93.51c1.09.1,2.19.17,3.29.23,2.11.1,4.24.09,6.35.06s4.24-.13,6.35-.3c1-.08,2-.15,3-.3.56-.09,1.13-.16,1.69-.23a7.89,7.89,0,0,0,1.68-.3.32.32,0,0,0-.09-.63,19.86,19.86,0,0,0-3.15.3l-3.16.27q-3.16.25-6.35.3c-2.12,0-4.23,0-6.35-.15-1.06,0-2.11-.12-3.17-.19a10.34,10.34,0,0,0-3,0,.27.27,0,0,0-.06.48Z"/><path class="cls-13" d="M40.14,100.09a2.51,2.51,0,0,0,1.24-.14l1.5-.42q1.41-.41,2.79-.87c.92-.31,1.83-.66,2.74-1a21.13,21.13,0,0,0,2.8-1.1A.31.31,0,0,0,51,96c-.93.23-1.84.67-2.74,1s-1.91.63-2.87,1l-2.77.91-1.39.44a2.6,2.6,0,0,0-1.12.54.16.16,0,0,0,.06.26Z"/><path class="cls-13" d="M124.28,23a.7.7,0,0,0,.52-.13c.18-.1.35-.2.54-.29a4.19,4.19,0,0,1,1.16-.34,4.51,4.51,0,0,1,1.16,0,2.9,2.9,0,0,1,.59.09,3.48,3.48,0,0,0,.64.14c.23,0,.41-.34.21-.5a2.66,2.66,0,0,0-1.33-.37,5.23,5.23,0,0,0-1.37.05,5.52,5.52,0,0,0-1.27.4,3.51,3.51,0,0,0-.6.33,1.18,1.18,0,0,0-.28.22.39.39,0,0,0-.09.28.19.19,0,0,0,.12.16Z"/><path class="cls-13" d="M125.07,25.09a19.49,19.49,0,0,1,3.15,0,8.79,8.79,0,0,1,1.51.38c.25.09.49.2.73.31s.49.18.75.29.42-.26.24-.41a3.12,3.12,0,0,0-.69-.5,7,7,0,0,0-.75-.31,8.29,8.29,0,0,0-1.7-.42,5.47,5.47,0,0,0-3.32.4.15.15,0,0,0,.08.27Z"/><path class="cls-8" d="M124.43,20.23l.25-.14.26-.16,0,0,.05,0,.14,0,.15,0c.07,0,0,0,0,0h.45c-.09,0,0,0,0,0l.14,0,.14,0s.06,0,0,0l.07,0,.13.07a.55.55,0,0,0,.28.07l-.17-.05a1,1,0,0,0,.29.12.25.25,0,0,0,.3-.31.63.63,0,0,0-.19-.32l.08.14a.51.51,0,0,0-.2-.28l-.15-.08a1.74,1.74,0,0,0-.38-.14,2.33,2.33,0,0,0-.83,0,1.93,1.93,0,0,0-.7.27,1.38,1.38,0,0,0-.3.24.83.83,0,0,0-.2.37.21.21,0,0,0,.3.23Z"/><path class="cls-8" d="M126.87,23.45a4.33,4.33,0,0,1,.72,0,2.38,2.38,0,0,1,.7.11,2.7,2.7,0,0,1,.63.26,5.58,5.58,0,0,0,.69.35c.23.08.38-.2.29-.38a1.38,1.38,0,0,0-.64-.6,2.9,2.9,0,0,0-.81-.29,3.28,3.28,0,0,0-.83,0,2.28,2.28,0,0,0-.84.26.19.19,0,0,0,.09.34Z"/><path class="cls-8" d="M108.3,19.2a1,1,0,0,0-.24.05l-.12.06a.5.5,0,0,0-.12.08.92.92,0,0,0-.27.35.16.16,0,0,0,0,.15.19.19,0,0,0,.09.12.2.2,0,0,0,.27-.07.87.87,0,0,1,.11-.18l0,0,.16-.15,0,0,.09-.07,0,0a.81.81,0,0,1,.18-.1l0,0,.07,0a.18.18,0,0,0,.12-.19.16.16,0,0,0-.16-.14Z"/><path class="cls-8" d="M106.88,26.53l-.33.29a.65.65,0,0,0-.25.46.17.17,0,0,0,.2.16.52.52,0,0,0,.27-.19l.06-.08,0-.1.19-.39a.14.14,0,0,0,0-.16.12.12,0,0,0-.16,0Z"/><path class="cls-8" d="M107.09,27.63l-.49.75a.14.14,0,0,0,.05.18.12.12,0,0,0,.17,0c.18-.24.34-.49.51-.74a.14.14,0,0,0,0-.19.15.15,0,0,0-.19.05Z"/><path class="cls-8" d="M104.87,21.67a29,29,0,0,0-1.45,4.3c-.44,1.56-.81,3.13-1.13,4.72s-.48,3.12-.79,4.67a15.77,15.77,0,0,0-.44,4.68c0,.32.52.45.61.08a24.74,24.74,0,0,0,.46-4.56,34.17,34.17,0,0,1,.74-4.71c.29-1.51.64-3,1-4.51s.89-3,1.23-4.57c0-.14-.18-.25-.25-.1Z"/><path class="cls-8" d="M104.38,13.29c.6-.08,1.2-.18,1.79-.27l.88-.16a4,4,0,0,0,.91-.21c.32-.14.13-.6-.16-.61a4.05,4.05,0,0,0-.9.16l-.86.19c-.58.13-1.15.26-1.72.41-.26.07-.22.52.06.49Z"/><path class="cls-8" d="M108.22,12.47c.72-1.15,1.44-2.3,2.2-3.43.22-.32-.3-.62-.51-.3a26.25,26.25,0,0,0-2,3.53.2.2,0,0,0,.34.2Z"/><path class="cls-8" d="M106.71,16.21a3.45,3.45,0,0,0,1.29-.49,13.55,13.55,0,0,0,1.23-.71,13.05,13.05,0,0,0,1.14-.81c.19-.15.38-.3.56-.46a1.32,1.32,0,0,0,.41-.56.22.22,0,0,0-.26-.26,1.53,1.53,0,0,0-.58.33c-.16.14-.33.29-.5.42-.36.29-.73.56-1.11.82s-.76.48-1.16.7a6.49,6.49,0,0,0-1.17.68.2.2,0,0,0,.15.34Z"/><path class="cls-8" d="M103,10c.09-.14.2-.28.28-.43s.16-.3.24-.45l.23-.44c.08-.17.24-.38.17-.57a.24.24,0,0,0-.29-.17c-.21.06-.28.28-.36.46l-.22.47c-.08.17-.16.33-.23.5s-.11.33-.17.49.24.31.35.14Z"/><path class="cls-8" d="M103.76,8.16a1.77,1.77,0,0,0,.33.08l.34,0,.67.05.66,0a.84.84,0,0,0,.66-.15.19.19,0,0,0,0-.26.89.89,0,0,0-.66-.18h-.66l-.67,0h-.34a1.94,1.94,0,0,0-.33.07c-.15,0-.13.24,0,.28Z"/><path class="cls-8" d="M100.56,14.57a.44.44,0,0,0,.22.28.46.46,0,0,0,.2.05.32.32,0,0,0,.19-.05.17.17,0,0,0,.08-.19.16.16,0,0,0-.16-.12H101l-.07,0-.07,0,0,0-.07,0,0,0-.07-.06a.12.12,0,0,0-.08,0,.16.16,0,0,0-.1,0,.15.15,0,0,0-.07.16Z"/><path class="cls-8" d="M111.46,7.5l.06.11.07.11,0-.14a.21.21,0,0,0,0,.11l0,.06,0,0,0,.06h0l0,0a.1.1,0,0,0,.07,0,.11.11,0,0,0,.08,0,.18.18,0,0,0,.14-.06.17.17,0,0,0,.06-.15v0a.15.15,0,0,0-.06-.09l0,0-.08-.07,0,0,0,0h-.13l.14,0-.12-.06-.11-.06a.14.14,0,0,0-.14,0,.12.12,0,0,0,0,.14Z"/><path class="cls-8" d="M120,12.47a.72.72,0,0,0-.14.67c0,.33.09.66.12,1,.08.64.14,1.28.17,1.92s.07,1.29.09,1.93a7.67,7.67,0,0,0,.1,1.92.46.46,0,0,0,.88,0,5.61,5.61,0,0,0,0-1.92,19.08,19.08,0,0,0-.17-2c-.09-.63-.17-1.27-.28-1.91,0-.31-.11-.63-.17-.95s-.1-.57-.37-.7a.23.23,0,0,0-.27,0Z"/><path class="cls-8" d="M123.4,13.09a1.08,1.08,0,0,0,0,.36,1.41,1.41,0,0,0,0,.29c0,.22,0,.43.05.65a6.38,6.38,0,0,1,0,1.31.56.56,0,0,0,1.11,0,5.56,5.56,0,0,0,0-1.47,3.06,3.06,0,0,0-.21-.73,1.39,1.39,0,0,0-.42-.59.3.3,0,0,0-.44.18Z"/><path class="cls-8" d="M69.43,77.43a1.57,1.57,0,0,0,.53.06,5.42,5.42,0,0,0,.58-.06,6.7,6.7,0,0,0,1.17-.3,11.63,11.63,0,0,0,1.1-.46,2.87,2.87,0,0,0,1-.68.31.31,0,0,0-.3-.51,4.63,4.63,0,0,0-1.05.51c-.32.17-.65.31-1,.45s-.68.26-1,.37c-.19.06-.37.14-.55.19a2.84,2.84,0,0,0-.5.23.11.11,0,0,0,0,.2Z"/><path class="cls-8" d="M62.38,80.73a9.14,9.14,0,0,0,1.27-.14,5.5,5.5,0,0,0,1.19-.38.46.46,0,0,0,.33-.43v0l-.12.27a3.7,3.7,0,0,1,.33-.21c.12-.08.24-.18.35-.27s0-.52-.25-.44l-.37.14a2.67,2.67,0,0,1-.33.12l.27.12v0a.47.47,0,0,0-.54-.07c-.35.18-.73.31-1.09.49a10.24,10.24,0,0,1-1.08.45c-.21.07-.19.4.05.39Z"/><path class="cls-8" d="M86.25,77.75C88,78,90,77,91.59,76.32a30.38,30.38,0,0,0,4.83-2.69,30.82,30.82,0,0,0,4.28-3.52,12.8,12.8,0,0,0,3.41-4.48c.2-.55-.51-.8-.87-.51A49.48,49.48,0,0,0,99.56,69a32.41,32.41,0,0,1-4.13,3.36A31.71,31.71,0,0,1,90.79,75c-.77.35-1.57.66-2.37,1a9.19,9.19,0,0,0-2.36,1.14.41.41,0,0,0,.19.69Z"/><path class="cls-8" d="M35.48,90.53a12.24,12.24,0,0,0,1.68-.45l.81-.29c.24-.1.76-.28.61-.64S38,89,37.75,89.1l-.83.35a14.37,14.37,0,0,0-1.55.83.14.14,0,0,0,.11.25Z"/><path class="cls-8" d="M41.52,88.5l.28-.09a1.69,1.69,0,0,0,.31-.13l.25-.12.13-.06a.66.66,0,0,0,.15-.14.27.27,0,0,0,0-.27.26.26,0,0,0-.23-.16.56.56,0,0,0-.22,0,.8.8,0,0,0-.16.08l-.25.13-.24.14-.24.18a.22.22,0,0,0-.09.28.22.22,0,0,0,.26.13Z"/><path class="cls-8" d="M46.29,87.24l1.11-.39.58-.23a1.29,1.29,0,0,0,.52-.33c.09-.12.09-.35-.1-.38a1,1,0,0,0-.34,0l-.29.08-.55.2-1.09.45a.33.33,0,0,0-.22.39.31.31,0,0,0,.38.21Z"/><path class="cls-8" d="M51.44,85.34l.88-.34.43-.18.21-.09a.53.53,0,0,0,.26-.18.23.23,0,0,0-.16-.4.51.51,0,0,0-.3.06l-.21.09-.44.21-.85.41c-.23.11-.06.51.18.42Z"/><path class="cls-8" d="M61.27,85.18c-.13.14,0,.37.06.5a2.23,2.23,0,0,0,.42.5,3.74,3.74,0,0,0,1.1.7,3.39,3.39,0,0,0,2.59.24.25.25,0,0,0-.07-.49,7.9,7.9,0,0,1-2.21-.45,6.16,6.16,0,0,1-1-.59c-.18-.12-.66-.63-.9-.41Z"/><path class="cls-8" d="M77.35,91.39a7.24,7.24,0,0,0,3,.73A9.5,9.5,0,0,0,81.86,92c.48-.06,1.27-.08,1.54-.54a.41.41,0,0,0-.15-.56c-.41-.22-1,0-1.42.12a8.55,8.55,0,0,1-1.43.14A15.45,15.45,0,0,1,77.52,91c-.23,0-.42.29-.17.41Z"/><path class="cls-8" d="M80.63,82.7a1.52,1.52,0,0,0,.46.45l.52.42a11.21,11.21,0,0,0,1.14.75,12.66,12.66,0,0,0,1.14.63c.2.11.4.21.61.3s.48.24.69.14a.28.28,0,0,0,.2-.33c-.07-.23-.28-.33-.47-.44l-.6-.31-1.19-.65c-.38-.22-.74-.46-1.13-.67l-.59-.32a1.48,1.48,0,0,0-.6-.27c-.17,0-.23.18-.18.3Z"/><path class="cls-8" d="M86.5,93.49a1,1,0,0,0,.48.06l.49,0a6.32,6.32,0,0,0,1-.13,7,7,0,0,0,.89-.27,1.73,1.73,0,0,0,.89-.55.3.3,0,0,0-.17-.44,2.09,2.09,0,0,0-.94.22l-.88.29c-.3.09-.59.18-.89.25l-.42.11a.86.86,0,0,0-.45.15.22.22,0,0,0,0,.33Z"/><path class="cls-8" d="M71.57,92.67a4.11,4.11,0,0,0,3.63,1,.27.27,0,0,0-.07-.52,4.88,4.88,0,0,1-3.1-1,.33.33,0,0,0-.46,0,.32.32,0,0,0,0,.45Z"/><path class="cls-8" d="M92.24,93.72c.38-.23.77-.44,1.13-.69s.73-.51,1.09-.78A.16.16,0,0,0,94.3,92c-.39.2-.78.43-1.16.64s-.75.48-1.12.72,0,.53.22.38Z"/><path class="cls-8" d="M93.85,121.22a.55.55,0,0,0,.24.15l.06,0a1.18,1.18,0,0,0,.46.09,4.14,4.14,0,0,0,.61,0,3.88,3.88,0,0,0,1.41-.41,2.86,2.86,0,0,0,.62-.4c.08-.09.24-.27.24-.4s-.21.27-.08.14a2.42,2.42,0,0,0,.27-.36,3.36,3.36,0,0,0,.3-.6,1.38,1.38,0,0,0,.14-.66.4.4,0,0,0-.59-.34,2.79,2.79,0,0,0-.44.4l-.1.08c-.11.1.11-.08-.06,0l-.14.12,0,0-.21.15c-.1.08.08,0,0,0a.68.68,0,0,0-.27.1,1.64,1.64,0,0,0-.33.26c-.14.11.14-.1,0,0l-.11.08a6.78,6.78,0,0,1-1,.51c.08,0,.05,0,0,0l-.13,0-.26.07-.15,0s-.25.1-.17.06l-.07,0a.75.75,0,0,0-.24.15.45.45,0,0,0,0,.6Z"/><path class="cls-8" d="M107.71,123.31l.19,0h-.06l-.08,0a.49.49,0,0,0,.29.06,1,1,0,0,0,.24,0,.37.37,0,0,0,.26-.45.44.44,0,0,0-.17-.23.37.37,0,0,0-.29,0,.6.6,0,0,0-.22.09.51.51,0,0,0-.22.19l0-.06h0l.06,0-.17.12a.24.24,0,0,0-.09.11.33.33,0,0,0,0,.14.21.21,0,0,0,.06.1.23.23,0,0,0,.16.06Z"/><path class="cls-8" d="M104.25,124.79c.15-.09.31-.17.47-.25l.21-.09.07,0h0l.11,0a4.79,4.79,0,0,1,1-.25l-.16,0a1,1,0,0,0,.42-.1.76.76,0,0,0,.32-.41.58.58,0,0,0-.15-.56.78.78,0,0,0-.32-.18.75.75,0,0,0-.51.08l-.28.16-.55.3a13.18,13.18,0,0,0-1.09.75.38.38,0,0,0,0,.5.39.39,0,0,0,.5.1Z"/><path class="cls-8" d="M112.17,125.22a12.11,12.11,0,0,1,1.46-.4l.18,0c-.16,0,.06,0,.09,0l.36,0a3.32,3.32,0,0,0,.89,0,.6.6,0,0,0,.43-.5.63.63,0,0,0-.29-.6,1.64,1.64,0,0,0-1-.17,3.9,3.9,0,0,0-1,.13,2.9,2.9,0,0,0-1.6,1,.41.41,0,0,0,0,.46.43.43,0,0,0,.44.15Z"/><path class="cls-8" d="M105.05,127.55q.3,0,.6,0h.44c.11,0-.1,0,0,0s.36.06.55.11a1.54,1.54,0,0,0,.82.08.58.58,0,0,0,.26-1,1.39,1.39,0,0,0-.88-.29,4.42,4.42,0,0,0-.63,0l-.31,0-.15,0-.24,0c-.2,0-.41.07-.61.12a.44.44,0,0,0-.31.48.42.42,0,0,0,.43.38Z"/><path class="cls-8" d="M91.71,125.74c.53,0,1.05,0,1.57,0l-.13,0a.8.8,0,0,0,.27,0,.51.51,0,0,0,.32-.17.54.54,0,0,0,.14-.42.5.5,0,0,0-.24-.37.47.47,0,0,0-.36-.08.89.89,0,0,0-.26.09l.13,0c-.52.12-1,.3-1.51.46a.28.28,0,0,0,.07.55Z"/><path class="cls-8" d="M121.24,68a23.65,23.65,0,0,1-2.09,7.31,21.59,21.59,0,0,1-1.84,3.15c-.74,1-1.61,2-2.37,3-.23.33.23.77.55.55a15.55,15.55,0,0,0,4.74-6.29A18.72,18.72,0,0,0,122,68c0-.52-.72-.49-.78,0Z"/><path class="cls-8" d="M96.45,58.59c-3,1.3-5.29,3.58-7.46,6-1.1,1.22-2.19,2.44-3.33,3.63-.56.58-1.14,1.16-1.73,1.71a10,10,0,0,0-1.75,1.53c-.16.25.11.54.38.48a5.44,5.44,0,0,0,1.85-1.26A23.43,23.43,0,0,0,86.25,69c1.16-1.13,2.23-2.32,3.31-3.51a31.1,31.1,0,0,1,7.24-6.35c.39-.22,0-.76-.35-.59Z"/><path class="cls-8" d="M104.36,44.75a1.42,1.42,0,0,1-.08.18.74.74,0,0,1,0,.14l0,.14,0,.06v0a.28.28,0,0,0,0,.18l0,.09a.34.34,0,0,0,.12.12.28.28,0,0,0,.12,0,.23.23,0,0,0,.14,0,.29.29,0,0,0,.14-.08l.06-.08a.28.28,0,0,0,0-.12V45l0-.19,0-.06,0,0a.24.24,0,0,0-.13-.07.25.25,0,0,0-.12,0,.24.24,0,0,0-.11.09Z"/><path class="cls-8" d="M111.58,46.16l-.12.17a.25.25,0,0,0,0,.07c0,.06,0,.11-.07.16s0,.12,0,.19a.58.58,0,0,0,0,.32.25.25,0,0,0,.18.18.25.25,0,0,0,.25-.07.58.58,0,0,0,.1-.12.69.69,0,0,0,.07-.15l.07-.18a2.3,2.3,0,0,0,.05-.45.26.26,0,0,0-.17-.23.24.24,0,0,0-.26.11Z"/><path class="cls-8" d="M118.12,50.79A.3.3,0,0,0,118,51a.14.14,0,0,0,0,.06l0,.14-.08.25a.61.61,0,0,0,0,.13c0,.08,0,.16,0,.24a.66.66,0,0,0,.18.52.4.4,0,0,0,.29.12.38.38,0,0,0,.29-.12.53.53,0,0,0,.16-.28.92.92,0,0,0,0-.37,2.86,2.86,0,0,0-.07-.28l-.09-.27c0-.05,0-.09,0-.14a.26.26,0,0,0-.35-.17Z"/><path class="cls-8" d="M121,50.74c0,.11.06.23.1.34a1.19,1.19,0,0,0,.08.2.51.51,0,0,0,.09.16.47.47,0,0,0,.13.11l0,0a.34.34,0,0,0,.19.05.3.3,0,0,0,.19-.05.37.37,0,0,0,.19-.32,1.1,1.1,0,0,0,0-.18s0-.11-.07-.16a1.71,1.71,0,0,0-.11-.14l-.06-.07a2.85,2.85,0,0,0-.23-.26.3.3,0,0,0-.37-.05.32.32,0,0,0-.14.34Z"/><path class="cls-8" d="M111.25,16.77a6.23,6.23,0,0,0-.51,1.62,6.38,6.38,0,0,0-.07.87,1.27,1.27,0,0,0,.2.93l-.09-.16,0,0a.35.35,0,0,0,.68-.09v0l0,.18a1.59,1.59,0,0,0,.06-.84,4.88,4.88,0,0,1,0-.76,4.79,4.79,0,0,1,.37-1.38.38.38,0,0,0-.14-.5.37.37,0,0,0-.5.13Z"/><path class="cls-8" d="M114.4,14.54a4,4,0,0,1,.82-.29c.28-.06.56-.13.85-.17s.58,0,.87-.06h.44a.54.54,0,0,0,.28,0l.16-.08a.2.2,0,0,0,.05-.31.76.76,0,0,0-.4-.24,4.52,4.52,0,0,0-.53-.06,4.06,4.06,0,0,0-1,.11,4.67,4.67,0,0,0-1.73.85.18.18,0,1,0,.18.31Z"/><path class="cls-8" d="M111.94,31.2a.28.28,0,0,1,0,.09v-.05a.83.83,0,0,1,0,.15l0-.06a.54.54,0,0,1-.07.13l0-.05a.52.52,0,0,0-.12.18l0,.09,0-.06v0a.24.24,0,0,0,.15.37.31.31,0,0,0,.19,0,.51.51,0,0,0,.24-.22,1.09,1.09,0,0,0,0-.26.74.74,0,0,0-.1-.41.19.19,0,0,0-.21-.09.21.21,0,0,0-.13.18Z"/><path class="cls-8" d="M104.05,31.71a1.15,1.15,0,0,0-.18.39c0,.11-.09.22-.12.33a2.13,2.13,0,0,0-.07.44.47.47,0,0,0,.12.36.42.42,0,0,0,.21.13.36.36,0,0,0,.24-.07.52.52,0,0,0,.2-.32,1.53,1.53,0,0,0,0-.43,2.17,2.17,0,0,0,0-.36,1,1,0,0,0-.08-.42.23.23,0,0,0-.34-.05Z"/><path class="cls-8" d="M103.25,36.4l-.11.08-.06,0-.12.11,0,0a1.13,1.13,0,0,0-.1.13l0,0,0,0a.29.29,0,0,0,0,.09s0,.05,0,.07,0,0,0,.07a.3.3,0,0,0,.12.24l.1,0a.25.25,0,0,0,.17,0l.05,0,.1,0h0l.07-.06a.36.36,0,0,0,.07-.1l0,0a1.17,1.17,0,0,0,.05-.11l0-.08,0-.07s0,0,0-.07l0-.15a.25.25,0,0,0-.21-.31.3.3,0,0,0-.16,0Z"/><path class="cls-8" d="M107.15,35.65h0l-.08,0-.07.06,0,.06a.69.69,0,0,0-.05.13v0h0a.49.49,0,0,0,0,.12.18.18,0,0,0,0,.14.26.26,0,0,0,.07.11.28.28,0,0,0,.12.08.35.35,0,0,0,.14,0h.1a.34.34,0,0,0,.16-.1l.06-.07a.41.41,0,0,0,0-.18s0-.08,0-.12h0l0,0a.69.69,0,0,0-.05-.13.36.36,0,0,0-.19-.15h0a.23.23,0,0,0-.14,0Z"/><path class="cls-8" d="M107.19,37.64l0,.08v0l0,0,.06,0h0a.08.08,0,0,0,0-.06l0-.08v0l0-.05a.11.11,0,0,0-.07,0,.11.11,0,0,0-.08,0l0,.05v0Z"/><path class="cls-8" d="M110.93,38.67a.36.36,0,0,1,0,.1v-.06a.6.6,0,0,1,0,.19v-.07a.53.53,0,0,1,0,.17l0-.07-.07.15s0,.07,0,.1a.33.33,0,0,0,.13.34l.15,0a.31.31,0,0,0,.21-.09.38.38,0,0,0,.09-.13l0-.1a.49.49,0,0,0,0-.12.65.65,0,0,0,0-.24.73.73,0,0,0-.16-.37.17.17,0,0,0-.12-.1.23.23,0,0,0-.14,0,.22.22,0,0,0-.12.25Z"/><path class="cls-8" d="M117.68,38.08a.09.09,0,0,1,0,.06V38a.36.36,0,0,0,0,.1l0-.12a.24.24,0,0,0,0,.15.25.25,0,0,0,0,.09.64.64,0,0,0,0,.07v-.08a.71.71,0,0,1,0,.14l0-.1a.44.44,0,0,0,0,.13.5.5,0,0,0,0,.12l0-.1a.28.28,0,0,1,0,.09,1,1,0,0,0,0,.17l0-.1a.45.45,0,0,1,0,.11v.09l0,.08a.29.29,0,0,0,.16.13.32.32,0,0,0,.17,0,.34.34,0,0,0,.19-.09.9.9,0,0,0,.17-.3.55.55,0,0,0,0-.18.59.59,0,0,0,0-.14.35.35,0,0,0-.1-.19l0,.07a.84.84,0,0,0-.15-.18.39.39,0,0,0-.37-.13h.07a.25.25,0,0,0-.15,0l.09,0h-.06a.15.15,0,0,0-.13.22Z"/><path class="cls-8" d="M115.38,35.75a.05.05,0,0,0,0-.1.05.05,0,1,0,0,.1Z"/><path class="cls-8" d="M108.3,30.45l-.18.23-.09.11c0,.05-.09.1-.13.16a.33.33,0,0,0,0,.22.29.29,0,0,0,.13.16.29.29,0,0,0,.22,0,.27.27,0,0,0,.17-.13s0-.08.07-.13l.06-.12.14-.25a.23.23,0,0,0-.06-.3.24.24,0,0,0-.14-.05.33.33,0,0,0-.16.07Z"/><path class="cls-8" d="M105.13,27.89l-.06.08,0,0h0l0,.07h0v.05l0,.1a.64.64,0,0,0,0,.07v.07a.14.14,0,0,0,0,.09s0,0,0,.06l.06,0h.14l.09,0,.08-.06,0,0,0,0,0,0v0l.07-.09a.35.35,0,0,0,.08-.13V28a.33.33,0,0,0,0-.15.24.24,0,0,0-.08-.09.19.19,0,0,0-.1-.05.17.17,0,0,0-.12,0,.28.28,0,0,0-.12,0,.22.22,0,0,0-.1.11Z"/><path class="cls-8" d="M104.83,25.7l-.23.35a.12.12,0,0,0,0,.1.16.16,0,0,0,0,.07.14.14,0,0,0,.17,0l.27-.32a.16.16,0,0,0,0-.07v0a.12.12,0,0,0-.06-.12.2.2,0,0,0-.11,0,.16.16,0,0,0-.11.07Z"/><path class="cls-8" d="M107,23.67a.05.05,0,1,0,0-.1.05.05,0,0,0,0,.1Z"/><path class="cls-8" d="M109.33,22.62l-.31.51a.13.13,0,0,0,0,.18.13.13,0,0,0,.18,0l.35-.48a.15.15,0,0,0,0-.21.16.16,0,0,0-.21.05Z"/><path class="cls-8" d="M108.38,25.9l-.39.67a4.54,4.54,0,0,0-.38.68c0,.1.11.18.17.1a4,4,0,0,0,.39-.67l.37-.69a.09.09,0,0,0-.16-.09Z"/><path class="cls-8" d="M110.45,29.15l0,.26a.17.17,0,0,0,0,.12l0,0,0,0a.16.16,0,0,0,.1,0,.31.31,0,0,0,.09-.07l.11-.24a.29.29,0,0,0,0-.09v-.05a.22.22,0,0,0,0-.08l-.06,0-.07,0-.07,0-.06,0a.22.22,0,0,0,0,.08Z"/><path class="cls-8" d="M107.65,29.8l-.24.27s0,.07,0,.09a.07.07,0,0,0,.1,0l.26-.23a.09.09,0,0,0,0-.13.09.09,0,0,0-.12,0Z"/><path class="cls-8" d="M104.89,29.86l-.21.42-.11.21s0,.08,0,.12a.31.31,0,0,0,0,.13.14.14,0,0,0,.06.17.15.15,0,0,0,.18,0l.08-.09a.47.47,0,0,0,.07-.12l.11-.22.21-.42a.18.18,0,0,0-.07-.24.17.17,0,0,0-.24.06Z"/><path class="cls-8" d="M109.14,33.61l-.24.51a1.72,1.72,0,0,0-.11.29.51.51,0,0,0,0,.32.14.14,0,0,0,.2.09.57.57,0,0,0,.2-.26,2.36,2.36,0,0,0,.12-.28l.2-.53a.18.18,0,0,0-.33-.14Z"/><path class="cls-8" d="M107.08,33.37l-.29.43c-.05.07-.1.14-.14.21a1.34,1.34,0,0,0-.12.24.1.1,0,0,0,.15.12l.1-.09.09-.1c.06-.08.12-.15.17-.23l.3-.43a.15.15,0,0,0,0-.2.17.17,0,0,0-.21,0Z"/><path class="cls-8" d="M103.88,35.17a.05.05,0,0,0,0-.1.05.05,0,1,0,0,.1Z"/><path class="cls-8" d="M113.05,33.08a.05.05,0,0,0,0-.1.05.05,0,1,0,0,.1Z"/><path class="cls-8" d="M110.66,33c0,.22-.07.43-.08.65a.13.13,0,0,0,.25.06c.09-.17.16-.36.24-.54a.2.2,0,0,0,0-.11V33a.18.18,0,0,0-.13-.14.17.17,0,0,0-.17,0,.23.23,0,0,0-.13.14Z"/><path class="cls-8" d="M118.31,36s0,.05,0,.07l.06-.1h0a.37.37,0,0,0-.07.12.28.28,0,0,0,0,.09v-.07a.74.74,0,0,1,0,.14l0-.08a.54.54,0,0,1-.07.13l0-.07a.6.6,0,0,0-.09.13l0,.07,0-.07a1.06,1.06,0,0,0-.1.12l-.05.07.05-.05,0,0a.28.28,0,0,0-.06.31.29.29,0,0,0,.25.17.76.76,0,0,0,.16,0,.4.4,0,0,0,.22-.12.57.57,0,0,0,.19-.29.83.83,0,0,0,0-.27.4.4,0,0,0-.18-.37l.05,0s0,0-.05,0a.2.2,0,0,0-.19,0,.17.17,0,0,0-.13.13Z"/><path class="cls-8" d="M116.71,33.5a.05.05,0,1,0,0-.1.05.05,0,0,0,0,.1Z"/><path class="cls-8" d="M118,30.56a2.68,2.68,0,0,1-.07.27s0,0,0,.06,0,0,0,0v0a.75.75,0,0,1-.07.12l-.13.23,0,.06,0,0s0,0,0,0,0,0,0,0l0,.05-.06.08a.25.25,0,0,0,.34.34.9.9,0,0,0,.27-.28,1.3,1.3,0,0,0,.16-.31,1.91,1.91,0,0,0,.08-.63.2.2,0,0,0-.17-.19.19.19,0,0,0-.21.14Z"/><path class="cls-8" d="M112.8,31.67a.05.05,0,0,0,0-.1.05.05,0,1,0,0,.1Z"/><path class="cls-8" d="M109.38,31.33a.05.05,0,0,0,0-.1.05.05,0,1,0,0,.1Z"/><path class="cls-14" d="M125.54,18c-2.66-6.16-11.28-6.33-16-2.7-7,5.3-7.65,14.85-8.61,22.81A41,41,0,0,1,97,52.25a41.74,41.74,0,0,1-7.72,10.39c-6.77,6.76-15.29,11.29-24,15-10.9,4.61-22.12,8.47-33.11,12.86-.24.09-.3.48,0,.55C43.61,93.78,55.3,93.62,67,93.19c.36,0,.36-.57,0-.55-11.55.35-23.5.89-34.77-2.16V91q14.46-5.28,28.79-11c8.42-3.35,16.8-7.14,24-12.78C91.28,62.36,96.6,56,99.29,48.38c3.1-8.77,1.54-18.69,5.92-27.08,2.06-3.94,5.51-7.34,10.09-7.85,3.91-.44,8.12,1.1,9.88,4.79.11.25.46,0,.36-.21Z"/><path class="cls-14" d="M44.32,92.57a23.18,23.18,0,0,0-5.27,3,26.15,26.15,0,0,0-2.22,1.87,11.88,11.88,0,0,0-2,2.26.15.15,0,0,0,.24.19c.36-.32.65-.74,1-1.1s.67-.71,1-1.05a24.24,24.24,0,0,1,2.31-2,25.45,25.45,0,0,1,5.08-2.94c.11,0,0-.26-.09-.21Z"/><path class="cls-14" d="M39.05,95.63l.29-.59s0,0,0,0l-.29.59s0,0,0,0Z"/><path class="cls-14" d="M43.86,92.89c-4,1.37-7.89,3-11.82,4.53l-6,2.37c-1.2.48-2.8.88-3.51,2.06a1.8,1.8,0,0,0,.33,2.42,3.47,3.47,0,0,0,2.79.23c1.95-.45,3.87-1.23,5.78-1.84l5.9-1.9,6.83-2.21c2.35-.76,4.78-1.41,7.06-2.34.24-.1.16-.47-.11-.4-4.29,1-8.52,2.75-12.72,4.14l-6.59,2.17c-2,.67-4,1.49-6.1,2-.82.2-2.1.44-2.78-.29-1.62-1.72,1.58-2.93,2.55-3.31l6.25-2.45c4.09-1.61,8.23-3.15,12.25-4.94.14-.06,0-.29-.1-.24Z"/><path class="cls-14" d="M40.23,100.63c5.61,0,11.26-.61,16.87-.88,5.29-.26,10.59-.51,15.89-.59s14.37.2,15.36,7.07c.36,2.5-.46,5,.34,7.49a7.32,7.32,0,0,0,1.48,2.62c.9,1,2.28,1.69,2.75,3,.12.34.66.19.54-.15a4.74,4.74,0,0,0-1.54-2,8.55,8.55,0,0,1-2.35-2.79c-1.22-2.55-.33-5.26-.62-7.93a7.73,7.73,0,0,0-4.74-6.25,23.34,23.34,0,0,0-9.14-1.62c-5-.1-10,.23-15,.45-6.6.3-13.34.41-19.89,1.33-.14,0-.1.25,0,.25Z"/><path class="cls-14" d="M125.15,24.94c-3-.27-4.65,2.75-4.87,5.38-.32,3.92.44,8.09,1.15,11.94,1.47,7.93,3.75,15.81,3.48,24a28.87,28.87,0,0,1-2.3,10.92,22.89,22.89,0,0,1-6.94,8.59c-5.75,4.52-13,7.3-17.59,13.16-3.59,4.54-6,12.87-1.57,17.68.2.22.53-.11.32-.33-4.4-4.7-1.32-12.94,2.23-17.21,4.52-5.43,11.3-8.16,16.81-12.37a24.39,24.39,0,0,0,9.52-16.15c1.06-6.94-.14-13.82-1.64-20.6-1-4.41-2.11-8.82-2.66-13.3a29.49,29.49,0,0,1-.34-6.5c.24-2.39,1.61-5.07,4.4-4.85.21,0,.21-.31,0-.32Z"/><path class="cls-14" d="M87.39,103.07a.08.08,0,0,0,0-.15.08.08,0,1,0,0,.15Z"/><path class="cls-14" d="M93.58,119.93h-.45a0,0,0,0,0,0,0h.45a0,0,0,1,0,0,0Z"/><path class="cls-14" d="M93.32,119.94a4.46,4.46,0,0,0,2.28-1.4,4.68,4.68,0,0,0,1.28-2.37.18.18,0,0,0-.35-.1,8.06,8.06,0,0,1-.47,1.18,4.79,4.79,0,0,1-.74,1,5,5,0,0,1-.95.82,9.65,9.65,0,0,1-1.15.6c-.14.06,0,.26.1.23Z"/><path class="cls-14" d="M92.62,120.65a11.5,11.5,0,0,1,1.59,1.45,9.24,9.24,0,0,1,.68.84l.3.45a1.94,1.94,0,0,0,.27.41,0,0,0,0,0,.07,0,1.87,1.87,0,0,0-.23-.47q-.15-.26-.3-.48c-.2-.3-.42-.59-.64-.87a9.27,9.27,0,0,0-1.59-1.54c-.15-.11-.29.14-.15.24Z"/><path class="cls-14" d="M95.54,124.16a16.37,16.37,0,0,0,2.56-1.64,11.61,11.61,0,0,0,2.18-2.08c0-.06,0-.11-.09-.07-.75.65-1.45,1.34-2.23,1.95a23.4,23.4,0,0,1-2.5,1.7.08.08,0,0,0,.08.14Z"/><path class="cls-14" d="M96.65,116a1.09,1.09,0,0,0,.27.56c.13.2.29.39.44.58.29.39.58.79.86,1.19.56.8,1.13,1.6,1.67,2.42a.15.15,0,0,0,.26-.15,25.36,25.36,0,0,0-1.52-2.56c-.28-.4-.57-.79-.87-1.18a6,6,0,0,0-.44-.56,1.15,1.15,0,0,0-.51-.42.13.13,0,0,0-.16.12Z"/><path class="cls-14" d="M93.46,119.84c-.44-.18-.9.26-.93.69a1.1,1.1,0,0,0,0,.18c0,.07.07.17.15.18a.09.09,0,0,0,.12-.07.23.23,0,0,0,0-.16.13.13,0,0,1,0-.06s0,0,0,0h0v0s0,0,0-.06,0,0,0,0v-.05s0,0,0-.06v0s0,0,0,0l.07-.11h0l0,0,0,0,0,0s0,0,0,0l.06,0,0,0s0,0,0,0h0l.07,0h.1l.07,0a.12.12,0,1,0,.07-.23Z"/><path class="cls-14" d="M95.49,123.84h.28l0,0a.05.05,0,0,0,0,0,.06.06,0,0,0,0-.06h-.31a.07.07,0,0,0-.06.07.06.06,0,0,0,.06.06Z"/><path class="cls-14" d="M98.51,121.9a2.25,2.25,0,0,0,.51.56l.57.51c.4.34.81.67,1.24,1s.89.57,1.35.83a9.45,9.45,0,0,0,1.43.61s.08-.06,0-.08a24.18,24.18,0,0,1-2.63-1.59c-.42-.3-.83-.61-1.23-.94l-.58-.51a2.59,2.59,0,0,0-.56-.49.1.1,0,0,0-.14.13Z"/><path class="cls-14" d="M105.36,125.62a12.66,12.66,0,0,0,4.14-.52c1.45-.33,2.84-.85,4.25-1.3s3-.6,4.07.51c.15.15.6.67.53.9s-.63.09-.91.06-.79,0-.77-.43a1.36,1.36,0,0,1,.68-1.12c.08,0,0-.19-.06-.15a1.44,1.44,0,0,0-.83,1.8.14.14,0,0,0,.14.1c.64.07,1.28.12,1.92.17a.13.13,0,0,0,.13-.12,2.52,2.52,0,0,0-1.48-2,4.6,4.6,0,0,0-3.27-.1c-1.39.35-2.73.91-4.14,1.24-.71.17-1.42.32-2.14.43a17.3,17.3,0,0,0-2.27.36c-.09,0-.06.13,0,.14Z"/><path class="cls-14" d="M116.67,125.24a15.21,15.21,0,0,0-1.49.48l-1.54.52-3,1a.16.16,0,0,0,.09.3l3.08-1c1-.34,2-.61,3-1,.13-.07,0-.27-.1-.24Z"/><path class="cls-14" d="M104.33,126.83c.5.06,1,0,1.5.06s1,.07,1.5.13a25.65,25.65,0,0,1,3,.59l0-.3a1.05,1.05,0,0,0-.88.58.91.91,0,0,0,0,1,.11.11,0,0,0,.18-.11,1,1,0,0,1,0-.74.72.72,0,0,1,.63-.41.15.15,0,0,0,0-.3,18.34,18.34,0,0,0-3-.64c-.51-.06-1-.11-1.55-.13a7.12,7.12,0,0,0-1.53,0c-.16,0-.1.24,0,.25Z"/><path class="cls-14" d="M109.64,126.8a1.15,1.15,0,0,0-.84.32,1.37,1.37,0,0,0-.29.34,1.18,1.18,0,0,0-.11.19.74.74,0,0,0,0,.14.2.2,0,0,0,0,.11.11.11,0,0,0,.2.06.41.41,0,0,1,0-.09.36.36,0,0,0,0-.11l.09-.16a1.68,1.68,0,0,1,.24-.29,3.88,3.88,0,0,1,.33-.23,1.51,1.51,0,0,1,.35-.14c.08,0,.06-.13,0-.14Z"/><path class="cls-14" d="M109.37,128.63c-3.59.68-6.87-.67-10.23-1.75a18.77,18.77,0,0,0-4.32-1c-1.46-.12-4.48.9-4.87-1.16a.17.17,0,0,0-.32,0c-.17,1.17,1,1.73,2,1.74s2-.19,3-.12A16.39,16.39,0,0,1,98,127c3.7,1,7.56,3,11.46,1.9a.12.12,0,0,0-.06-.24Z"/><path class="cls-14" d="M95.45,123.17c0,1.12-1.32,1.37-2.2,1.33a11,11,0,0,0-2.86.18,4.57,4.57,0,0,0-2.24,1,1.2,1.2,0,0,0,0,1.71.23.23,0,0,0,.4-.16,1.6,1.6,0,0,1,.41-1.08,1.38,1.38,0,0,1,.4-.32c.16-.1.35-.13.51-.25a.16.16,0,0,0,0-.29,1.46,1.46,0,0,0-1.23.58A2,2,0,0,0,88,127.2l.4-.17a.72.72,0,0,1,.06-1,2.67,2.67,0,0,1,1.1-.59,9.85,9.85,0,0,1,2.75-.53,6.18,6.18,0,0,0,2.38-.31,1.61,1.61,0,0,0,1-1.4.14.14,0,0,0-.28,0Z"/><path class="cls-14" d="M102.44,124.79a19.49,19.49,0,0,1,5-2l-.15-.2a1.12,1.12,0,0,0,.28,1.57c.14.09.27-.13.13-.22a.85.85,0,0,1-.17-1.21c.08-.11,0-.23-.16-.21a16.12,16.12,0,0,0-5.08,2.08.12.12,0,0,0,.13.21Z"/><path class="cls-14" d="M107.59,123a1.33,1.33,0,0,1,.78-.39.42.42,0,0,1,.28.12.25.25,0,0,1,.09.24v0s0,0,0,0l0,0v0h0l0,0s0,0,0,0l0,0,0,0-.13.07s0,0,0,0h0l-.07,0-.13,0c-.09,0-.18.07-.27.12a.56.56,0,0,0-.34.49c0,.2.32.2.31,0,0,0,0-.07,0,0v0s0,0,0,0,0,0,0,0,0,0,0,0l0,0,0,0h0l.06,0,.13-.06,0,0s0,0,0,0l.07,0,.15-.06.3-.13a.61.61,0,0,0,.33-.55.66.66,0,0,0-.63-.54,1.25,1.25,0,0,0-.93.55c-.07.07,0,.16.1.1Z"/><path class="cls-14" d="M107.85,123.85a3.36,3.36,0,0,0-1.29.51,4.28,4.28,0,0,0-1,1c-.12.14.14.29.25.14a4.48,4.48,0,0,1,2.1-1.48.07.07,0,0,0,0-.14Z"/><path class="cls-14" d="M96.54,56.2a22.69,22.69,0,0,1,15.59,1,23.35,23.35,0,0,1,10,9.09.1.1,0,0,0,.18-.1A21.81,21.81,0,0,0,96.43,55.82a.2.2,0,0,0,.11.38Z"/><path class="cls-14" d="M122.94,68.23a36.61,36.61,0,0,1-3.32,9.41,31.4,31.4,0,0,1-6.11,7.88,30.34,30.34,0,0,1-8.5,5.57,37.1,37.1,0,0,1-10.22,2.49c-.28,0-.3.46,0,.45,6.79-.12,13.91-3.59,18.84-8.11s8.73-11,9.56-17.66c0-.14-.22-.17-.25,0Z"/><path class="cls-14" d="M100.78,86.33c-.8.86-1.44,1.89-2.19,2.8a21.59,21.59,0,0,1-2.54,2.61,11.74,11.74,0,0,1-2.87,1.85,8.23,8.23,0,0,1-1.67.57c-.55.13-1.15.12-1.68.3a.15.15,0,0,0,0,.28,5.75,5.75,0,0,0,3.26-.66A12.89,12.89,0,0,0,96,92.34a19.47,19.47,0,0,0,2.69-2.68,23.66,23.66,0,0,0,2.36-3.12c.09-.17-.14-.36-.28-.21Z"/><path class="cls-14" d="M94.78,89.9A15.65,15.65,0,0,1,81,94.26c-.36-.06-.52.48-.15.55A15.43,15.43,0,0,0,95,90.12c.13-.15-.08-.36-.22-.22Z"/><path class="cls-14" d="M88.06,90.8a13.84,13.84,0,0,1-12.63,1.47c-.38-.15-.54.46-.17.6A13.47,13.47,0,0,0,88.21,91c.11-.09,0-.27-.15-.2Z"/><path class="cls-14" d="M78.05,93.62a7.16,7.16,0,0,1-5.42,0,7.44,7.44,0,0,1-2-1.26c-.6-.54-1-1.24-1.55-1.79a.25.25,0,0,0-.42.24,4.5,4.5,0,0,0,1.59,2.12,7.36,7.36,0,0,0,2.26,1.33,7.64,7.64,0,0,0,2.89.39,7.09,7.09,0,0,0,2.8-.79c.14-.07,0-.28-.13-.22Z"/><path class="cls-14" d="M76.3,88.81a9.75,9.75,0,0,1-4.75,1,10,10,0,0,1-2.31-.37c-.78-.21-1.5-.61-2.28-.82a.23.23,0,0,0-.22.38A5.45,5.45,0,0,0,69,90.05a10,10,0,0,0,7.53-.88c.23-.12,0-.47-.21-.36Z"/><path class="cls-14" d="M68.19,87.5c-2,.39-4.34.69-6.31-.2a5.11,5.11,0,0,1-2-1.58,4.24,4.24,0,0,1-.61-1.15,6.28,6.28,0,0,1-.19-1.29.25.25,0,0,0-.48-.07,3.41,3.41,0,0,0,.57,2.62,5.5,5.5,0,0,0,2.2,1.94c2.15,1.06,4.67.62,6.93.16.28-.06.16-.48-.12-.43Z"/><path class="cls-14" d="M58.35,82.25a0,0,0,1,0,0-.07s0,.07,0,.07Z"/><path class="cls-14" d="M59.29,81.83a17.37,17.37,0,0,1,2.62-1.91c.92-.54,1.91-.93,2.83-1.44a.09.09,0,0,0-.07-.16,9.88,9.88,0,0,0-2.94,1.38,17.09,17.09,0,0,0-2.6,2c-.11.1,0,.26.16.16Z"/><path class="cls-14" d="M57.11,81.22a5.13,5.13,0,0,0-1.25,1.12,8.61,8.61,0,0,0-1,1.42,8.12,8.12,0,0,0-.66,1.55A3.77,3.77,0,0,0,54,87c0,.09.18.12.21,0a3.8,3.8,0,0,0,.18-.74,6.49,6.49,0,0,1,.19-.76,9.09,9.09,0,0,1,.65-1.55,7.72,7.72,0,0,1,.93-1.35c.36-.42.78-.76,1.17-1.15.11-.11,0-.31-.17-.22Z"/><path class="cls-14" d="M52.07,82.8a6.6,6.6,0,0,0-2.73,3,7.26,7.26,0,0,0-.59,1.94,4,4,0,0,0,.08,2,.09.09,0,0,0,.18,0,18,18,0,0,1,.09-1.94,6.62,6.62,0,0,1,.57-1.85A7,7,0,0,1,52.19,83a.12.12,0,0,0-.12-.21Z"/><path class="cls-14" d="M45.75,85.63a6.08,6.08,0,0,0-1.86,2.14,6.28,6.28,0,0,0-.49,1.31,5.57,5.57,0,0,0-.14.71,1.89,1.89,0,0,0,0,.71.12.12,0,0,0,.22,0,3.18,3.18,0,0,0,.07-.62c0-.23.08-.46.13-.69a6.9,6.9,0,0,1,.49-1.31,6.44,6.44,0,0,1,1.71-2.1c.08-.07,0-.21-.11-.15Z"/><path class="cls-14" d="M40.63,87.31c-.18.44-.36.89-.53,1.33l-.24.64c-.09.23-.15.47-.22.7s.14.19.19.08.2-.43.29-.65l.23-.68c.16-.45.31-.91.47-1.37,0-.12-.15-.16-.19,0Z"/><path class="cls-14" d="M113.49,20.22a4.23,4.23,0,0,1-.39-2.66,3.28,3.28,0,0,1,1.56-2.23,3.48,3.48,0,0,1,4.82,1.44,3.8,3.8,0,0,1,.37,1.48,5.35,5.35,0,0,1-.26,1.54.14.14,0,0,0,.26.12,3.49,3.49,0,0,0,.11-3,3.7,3.7,0,0,0-2.09-2.14,3.92,3.92,0,0,0-5.12,2.34,3.55,3.55,0,0,0,.48,3.31c.13.15.33,0,.26-.19Z"/><path class="cls-14" d="M112.59,21.71a13.51,13.51,0,0,1,4.27-1.05,10,10,0,0,1,2.25.11,7.9,7.9,0,0,1,1,.21,4.31,4.31,0,0,0,1,.27.2.2,0,0,0,.14-.34,2.1,2.1,0,0,0-.9-.37,10.06,10.06,0,0,0-1.21-.27,11.12,11.12,0,0,0-2.31-.11,8.92,8.92,0,0,0-4.36,1.31c-.12.08,0,.3.09.24Z"/><path class="cls-14" d="M117.77,15.36a2.59,2.59,0,0,0-3,1.49,2.68,2.68,0,0,0,0,1.79A2.21,2.21,0,0,0,115.78,20c.14.06.23-.14.14-.24a5.83,5.83,0,0,1-.55-.56,2.33,2.33,0,0,1-.32-2.22,2.45,2.45,0,0,1,2.66-1.42.11.11,0,1,0,.06-.22Z"/><path class="cls-14" d="M119.89,17.32a.89.89,0,0,0-.46-.35,1.82,1.82,0,0,0-.56-.17,2.23,2.23,0,0,0-1.17.16,2,2,0,0,0-1.15,1.93,2,2,0,0,0,.48,1.25c.14.15.36-.07.23-.23A1.82,1.82,0,0,1,117,18a1.72,1.72,0,0,1,1.67-.92,1.81,1.81,0,0,1,.56.12c.18.07.33.2.51.25a.1.1,0,0,0,.11-.14Z"/><path class="cls-14" d="M125.14,18.72a1.32,1.32,0,0,0-1.5.2,1.88,1.88,0,0,0-.7,1.67c.13,1.73,1.77,2.85,2,4.54,0,.15.29.12.27,0-.19-1.39-1.26-2.35-1.79-3.6a2.13,2.13,0,0,1,0-2,1.3,1.3,0,0,1,1.59-.58c.11.05.21-.11.1-.17Z"/><path class="cls-14" d="M125.1,18.42a4.36,4.36,0,0,1,.64.21,6.08,6.08,0,0,1,.64.25,4.46,4.46,0,0,1,1.1.75,5.16,5.16,0,0,1,1.16,1.62c.07.18.09.47.25.6a.09.09,0,0,0,.14,0c.09-.2,0-.46-.1-.66a4.09,4.09,0,0,0-1.18-1.8,4.63,4.63,0,0,0-1.21-.8,3.44,3.44,0,0,0-.68-.24,3.72,3.72,0,0,0-.74,0,.07.07,0,0,0,0,.13Z"/><path class="cls-14" d="M128.71,22a3.29,3.29,0,0,0-2.44-.67A3.22,3.22,0,0,0,124,22.52c-.1.13.1.27.22.17a3.64,3.64,0,0,1,.94-.71,3.47,3.47,0,0,1,3.42.19c.09.06.2-.08.11-.15Z"/><path class="cls-14" d="M128.3,22a6.21,6.21,0,0,0,.7.31,6.29,6.29,0,0,1,.67.37,5.68,5.68,0,0,1,1.17,1,5.34,5.34,0,0,1,.85,1.29,5.28,5.28,0,0,1,.29.69,4.83,4.83,0,0,0,.22.74c.05.1.24.09.26,0a2.09,2.09,0,0,0-.12-.78,4.45,4.45,0,0,0-.28-.77,5.65,5.65,0,0,0-.92-1.4,5.54,5.54,0,0,0-1.25-1.07,3.2,3.2,0,0,0-1.52-.61.13.13,0,0,0-.07.24Z"/><path class="cls-14" d="M125,25.2a8.78,8.78,0,0,1,5.41.53,9,9,0,0,1,.82.41c.21.13.43.34.69.32a.15.15,0,0,0,.15-.19c-.08-.26-.34-.37-.56-.5a7.83,7.83,0,0,0-.91-.47,8.56,8.56,0,0,0-1.85-.55,8.65,8.65,0,0,0-3.82.19.14.14,0,0,0,.07.26Z"/><path class="cls-14" d="M106.85,26.36a2,2,0,0,0-.47.61,2.72,2.72,0,0,0-.29.71.08.08,0,0,0,.13.08l.49-.49L107,27a.72.72,0,0,0,.23-.26,0,0,0,0,0-.06-.07,1,1,0,0,0-.26.21l-.25.25-.5.49.13.08a2.75,2.75,0,0,1,.27-.69,3.37,3.37,0,0,1,.21-.31c.07-.1.16-.19.23-.29s0-.12-.1-.08Z"/><path class="cls-14" d="M107.39,27.19a1.35,1.35,0,0,0-.31.32,2.55,2.55,0,0,0-.26.38,3,3,0,0,0-.2.4c0,.08-.05.15-.07.22a.54.54,0,0,0,0,.22s.06,0,.08,0a.8.8,0,0,0,.07-.2l.06-.19a3.11,3.11,0,0,1,.2-.41,2.64,2.64,0,0,1,.23-.35c.09-.12.2-.22.3-.34s0-.1-.06-.06Z"/><path class="cls-14" d="M106.77,28.74l.25-.25.12-.12.06-.07a.18.18,0,0,0,0-.07,0,0,0,0,0,0-.05l-.07.06-.07.06-.12.12-.25.25s0,.11.07.07Z"/><path class="cls-14" d="M112.19,31l-.15.61c0,.1-.05.2-.08.29s0,.11,0,.16v.13s0,0,0,0a.39.39,0,0,0,.06-.11.83.83,0,0,0,0-.15c0-.1.05-.2.08-.3l.15-.61c0-.07-.09-.1-.11,0Z"/><path class="cls-14" d="M112.25,31.76l.23-.21.12-.1.12-.11s0,0,0,0l-.12.1-.12.1-.24.21s0,.05,0,0Z"/><path class="cls-14" d="M112.72,31.55a.65.65,0,0,0-.17.74,0,0,0,0,0,.06,0l.52-.4c.17-.14.35-.27.51-.42s0,0,0,0a6.42,6.42,0,0,0-.53.38l-.52.39h.06a.57.57,0,0,1,.14-.65s0-.07,0,0Z"/><path class="cls-14" d="M103.16,36.55a4.5,4.5,0,0,0-.23.43l-.23.44s0,.11.06.1a1,1,0,0,0,.69-.4l-.13,0c0,.22,0,.43,0,.65,0,0,.06.07.09,0l.36-.34.17-.16a.87.87,0,0,0,.16-.17,0,0,0,0,0,0,0,.9.9,0,0,0-.19.15l-.17.16-.36.33.1,0c0-.22.05-.43.08-.65s-.1-.08-.13,0a.83.83,0,0,1-.57.34l.06.1c.15-.3.31-.59.44-.9,0-.06-.07-.09-.1,0Z"/><path class="cls-14" d="M108.38,19a2.36,2.36,0,0,0-.75.59,2.7,2.7,0,0,0-.27.39,1.63,1.63,0,0,0-.18.43c0,.07.08.12.11,0s.11-.28.18-.42a2.33,2.33,0,0,1,.26-.38,2.29,2.29,0,0,1,.71-.56c.06,0,0-.13-.06-.1Z"/><path class="cls-14" d="M107.45,20.49l.35-.15a1.54,1.54,0,0,0,.34-.17s0-.07,0-.06l-.18.06-.18.07-.35.15a.06.06,0,0,0,0,.08s0,0,.07,0Z"/><path class="cls-14" d="M107.77,20.43l-.25.39a.06.06,0,0,0,.07.09l.38-.15a2.43,2.43,0,0,0,.37-.16s0-.09,0-.09a1.63,1.63,0,0,0-.37.13l-.37.15.07.09.25-.39c0-.07-.07-.13-.11-.06Z"/><path class="cls-14" d="M115.26,36.09a.76.76,0,0,0,.76-.27.39.39,0,0,0,.1-.19s0-.09-.06-.1-.06,0-.08.08a.68.68,0,0,1-.27.26.53.53,0,0,1-.41.06.08.08,0,0,0,0,.16Z"/><path class="cls-14" d="M107.28,35.56a3.13,3.13,0,0,0-.31,1.38c0,.07.09.11.13.06s.24-.27.35-.41l.17-.19a1.13,1.13,0,0,0,.15-.21s0-.06-.07,0a.77.77,0,0,0-.18.18l-.17.18-.35.39.12,0a3.18,3.18,0,0,1,.27-1.32c0-.07-.08-.13-.11-.06Z"/><path class="cls-14" d="M104.13,31.72a1.68,1.68,0,0,0-.23,1.46.08.08,0,0,0,.12,0l.23-.31a1.09,1.09,0,0,1,.17-.13l.17-.11.34-.24.17-.11c.05,0,.1-.07.12-.13s0,0,0,0-.12,0-.17.07l-.18.12-.34.23-.18.13a.78.78,0,0,0-.15.1l-.26.33.14,0a1.59,1.59,0,0,1,.19-1.36c0-.06-.06-.12-.1-.06Z"/><path class="cls-14" d="M111.62,46.16a.79.79,0,0,0-.13,1,.07.07,0,0,0,.11,0c.17-.19.34-.38.5-.58a.08.08,0,0,0-.11-.11c-.17.19-.33.39-.49.59h.11a.65.65,0,0,1,.1-.79c.05-.06,0-.14-.09-.09Z"/><path class="cls-14" d="M104.88,44.7l-.58,1.35h.14a2.61,2.61,0,0,0-.17-.28.09.09,0,0,0-.14,0l-.37.42-.17.2a.56.56,0,0,0-.16.21c0,.06,0,.1.11.08a.69.69,0,0,0,.17-.17l.19-.21.36-.41-.14,0,.18.28a.08.08,0,0,0,.15,0l.54-1.38a.06.06,0,0,0-.11,0Z"/><path class="cls-14" d="M117.8,38a.59.59,0,0,1,.18.45.6.6,0,0,1,0,.24,1,1,0,0,1-.12.23s0,.1.08.08a.51.51,0,0,0,.18-.25.76.76,0,0,0-.19-.83.06.06,0,0,0-.08.08Z"/><path class="cls-14" d="M117.59,31.06l-.33.9.09-.06a.17.17,0,0,1-.12-.23.08.08,0,0,0-.12-.09,2.93,2.93,0,0,0-.39.21.07.07,0,0,0,.06.13,3.11,3.11,0,0,0,.41-.2l-.12-.09a.34.34,0,0,0,.24.42.08.08,0,0,0,.1,0c.1-.31.19-.61.29-.91,0-.07-.08-.1-.11,0Z"/><path class="cls-14" d="M111.32,38.53c-.09.23-.17.47-.25.7l.12,0a.46.46,0,0,1-.23-.37.12.12,0,0,0-.08-.09.1.1,0,0,0-.1.07l0,.26a.38.38,0,0,0,0,.15v.12a.05.05,0,0,0,.1,0l.05-.12a.5.5,0,0,0,0-.13l0-.26-.17,0a.59.59,0,0,0,.33.51.08.08,0,0,0,.12,0c.06-.24.13-.47.2-.71a.06.06,0,0,0-.11,0Z"/><path class="cls-14" d="M121.08,49.93c.08.25.2.5.3.74l.32.75c0,.09.17,0,.16-.06a.74.74,0,0,0-.33-.48c-.07,0-.2-.12-.27-.09a.91.91,0,0,0-.16.11L121,51s0,.08.06.07a1.05,1.05,0,0,0,.29-.17h-.06a.57.57,0,0,1,.44.46l.16,0c-.11-.25-.21-.5-.32-.74s-.2-.51-.33-.74a.07.07,0,0,0-.13,0Z"/><path class="cls-14" d="M118.22,50.81c0,.31-.09.63-.14.94l.13,0-.4-.47a.08.08,0,0,0-.12,0l-.31.27h.13a1.62,1.62,0,0,0-.1-.18.52.52,0,0,0-.12-.18s-.09,0-.09,0a.58.58,0,0,0,.07.21,1.86,1.86,0,0,0,.1.2c0,.05.09.05.13,0l.31-.27h-.12l.41.45c.05.06.12,0,.13,0l.09-1s-.09-.06-.1,0Z"/><path class="cls-14" d="M60.84,81a.74.74,0,0,1,.53.41.92.92,0,0,1,.1.32.86.86,0,0,1,0,.16c0,.07,0,.13-.05.19s.09.16.15.09a.64.64,0,0,0,.1-.43,1,1,0,0,0-.12-.41.94.94,0,0,0-.66-.5.1.1,0,0,0-.1.06.09.09,0,0,0,.06.11Z"/><path class="cls-14" d="M61.74,82a1.68,1.68,0,0,1,1.82.62c.35.46.21,1.25.77,1.55.31.16.66.15,1,.34a1.82,1.82,0,0,1,.71.84A4.53,4.53,0,0,1,66.08,88c0,.09.12.13.14,0a4.82,4.82,0,0,0,0-2.69,2.18,2.18,0,0,0-.59-.82,2.31,2.31,0,0,0-.93-.42c-.57-.18-.57-.61-.71-1.1a1.7,1.7,0,0,0-.48-.75,1.81,1.81,0,0,0-1.76-.43c-.09,0-.05.17,0,.14Z"/><path class="cls-14" d="M71.93,89.77a15.75,15.75,0,0,1-3.54-6.18,17.72,17.72,0,0,1-.48-7c0-.09-.14-.1-.16,0a14.08,14.08,0,0,0,.48,7.11,15.41,15.41,0,0,0,3.57,6.16c.08.09.21,0,.13-.12Z"/><path class="cls-14" d="M68.52,77.25c-.08,1.13,1.27,1.24,2,1.48,1.21.39,2,1.52,2.74,2.45a17.22,17.22,0,0,0,5.92,4.55c.13.07.25-.13.12-.19a17.86,17.86,0,0,1-5.68-4.22,16.61,16.61,0,0,0-2-2.2,3.61,3.61,0,0,0-1.31-.63c-.7-.17-1.7-.31-1.72-1.24,0-.08-.12-.08-.13,0Z"/><path class="cls-14" d="M79.32,85.58a9.81,9.81,0,0,0,4.47,3.91,22.88,22.88,0,0,0,3.16.92c1.29.32,2.59.67,3.9.92a.05.05,0,1,0,0-.1c-2.17-.66-4.44-1-6.58-1.74a8.06,8.06,0,0,1-2.84-1.7,29.4,29.4,0,0,1-2-2.3.08.08,0,0,0-.12.09Z"/><path class="cls-14" d="M91.62,91.35c.46,0,.93-.14,1.38-.21a13.19,13.19,0,0,0,1.39-.29c.08,0,.07-.15,0-.14a12.58,12.58,0,0,0-1.37.21,12.82,12.82,0,0,0-1.4.27c-.09,0-.07.17,0,.16Z"/><path class="cls-14" d="M94.33,90.86a2.51,2.51,0,0,0,1.37.33,2.67,2.67,0,0,0,.69-.09,2.06,2.06,0,0,0,.35-.12,1.55,1.55,0,0,0,.32-.2c.08,0,0-.17-.08-.13s-.23.08-.34.12l-.29.09a3,3,0,0,1-.67.1,3.55,3.55,0,0,1-1.29-.23.07.07,0,0,0-.06.13Z"/><path class="cls-14" d="M98.46,91a8.55,8.55,0,0,0,3.49.07,6.85,6.85,0,0,0,3.16-1.4s0-.11-.07-.08c-.5.26-1,.55-1.51.77a9.71,9.71,0,0,1-1.59.48,8.38,8.38,0,0,1-3.42,0c-.13,0-.18.16-.06.19Z"/><path class="cls-14" d="M104.52,89.79A6.77,6.77,0,0,0,106,88.55a5.81,5.81,0,0,0,1-1.58s-.07-.09-.1,0a8.13,8.13,0,0,1-.47.81,5.35,5.35,0,0,1-.58.75,6.25,6.25,0,0,1-1.43,1.23,0,0,0,0,0,0,.07Z"/><path class="cls-14" d="M107,87a8.61,8.61,0,0,1-3.21,1,8.92,8.92,0,0,1-1.55,0c-.58,0-1.14-.16-1.71-.25a.1.1,0,1,0,0,.19,7.08,7.08,0,0,0,3.33.22A9.34,9.34,0,0,0,107,87a0,0,0,0,0,0-.07Z"/><path class="cls-14" d="M99.15,87.69a7.15,7.15,0,0,1-2.84.17,22.39,22.39,0,0,1-2.59-.35,6.88,6.88,0,0,1-2.35-1c-.71-.47-1.27-1.16-2-1.6-.06,0-.14,0-.1.1a7.54,7.54,0,0,0,1.89,1.67,7,7,0,0,0,2.48,1,23.62,23.62,0,0,0,2.66.36,7.05,7.05,0,0,0,2.89-.25c.11,0,.06-.21,0-.17Z"/><path class="cls-14" d="M89.25,85c-1.52,1.62-3.63-1.16-4.83-2A38,38,0,0,0,80,80.83a8.88,8.88,0,0,1-3.82-3.08c-.73-1.18-1.23-2.81-2.65-3.31-.09,0-.16.11-.07.16,1.64.89,2,2.86,3.17,4.18a12.18,12.18,0,0,0,4.11,2.66,17.91,17.91,0,0,1,4.64,2.64c1,.89,2.67,2.44,3.93,1,.05,0,0-.12-.07-.07Z"/><path class="cls-14" d="M124.28,21a1.81,1.81,0,0,1,.92-.61,2,2,0,0,1,.54-.06,2.58,2.58,0,0,1,.29,0,2.44,2.44,0,0,0,.26.06s.06-.05,0-.07a1,1,0,0,0-.55-.17,1.6,1.6,0,0,0-.61.07,1.68,1.68,0,0,0-.56.26,1.64,1.64,0,0,0-.4.43c0,.05,0,.11.08.06Z"/><path class="cls-14" d="M113.6,16.19a1.4,1.4,0,0,0,.28.06l.28.06.28.05a.86.86,0,0,0,.28,0,.06.06,0,0,0,0-.1.34.34,0,0,0-.14-.05l-.12,0-.29,0-.28-.05a1.26,1.26,0,0,0-.28,0,.06.06,0,0,0,0,.11Z"/><path class="cls-14" d="M113,17.6l.44.2.23.1a.92.92,0,0,0,.23.09.05.05,0,0,0,0-.1,1.55,1.55,0,0,0-.22-.12l-.23-.09L113,17.5c-.06,0-.1.07,0,.1Z"/><path class="cls-14" d="M109.35,17.15a5,5,0,0,1,1.45-1.49,4.32,4.32,0,0,1,.91-.46,3.8,3.8,0,0,1,.51-.15,1.78,1.78,0,0,0,.5-.14.15.15,0,0,0,0-.27,1,1,0,0,0-.54,0,5.52,5.52,0,0,0-.54.16,5.08,5.08,0,0,0-1,.52A4.06,4.06,0,0,0,109.14,17a.12.12,0,0,0,.21.12Z"/><path class="cls-14" d="M119.88,15a5.48,5.48,0,0,1,1.62.52,4,4,0,0,1,.71.43c.24.17.43.39.67.56s.28-.08.2-.2a2.8,2.8,0,0,0-.64-.6,5.44,5.44,0,0,0-.79-.49,4.57,4.57,0,0,0-1.74-.45c-.13,0-.16.21,0,.23Z"/><path class="cls-14" d="M127.28,22.5a5,5,0,0,1,2.58,1c.11.09.26-.11.15-.19a4.93,4.93,0,0,0-2.73-1c-.13,0-.13.19,0,.2Z"/><path class="cls-14" d="M117.94,64.52a25.53,25.53,0,0,1,.32,3.8,16.05,16.05,0,0,1-.58,4,16.42,16.42,0,0,1-3.91,6.94.12.12,0,0,0,.17.17,15.55,15.55,0,0,0,4.1-6.91,13.94,13.94,0,0,0,.14-8c0-.12-.26-.11-.24,0Z"/><path class="cls-14" d="M97,59.1a27.81,27.81,0,0,0-9.87,8.31c-.06.09.08.2.15.12a34.25,34.25,0,0,1,9.81-8.28c.1-.06,0-.2-.09-.15Z"/><path class="cls-14" d="M23.07,104.5c.71-.25,1.4-.56,2.1-.85s1.38-.53,2-.86a.08.08,0,0,0-.06-.15c-.71.23-1.41.56-2.1.85s-1.37.55-2,.86c-.08,0,0,.18.06.15Z"/><path class="cls-14" d="M22.07,103.57c1-.39,2-.87,3-1.32s2.06-.9,3-1.42a.08.08,0,0,0-.06-.14c-1,.4-2,.88-3,1.34s-2,.91-3,1.44c-.06,0,0,.13,0,.1Z"/><path class="cls-14" d="M26,104.29l4-1.9c1.32-.63,2.67-1.22,3.94-1.94.05,0,0-.11,0-.09-1.34.54-2.63,1.23-3.92,1.86l-4,2c-.07,0,0,.14.06.11Z"/><path class="cls-14" d="M22.83,102.12s0,0,0,0,0,0,0,0Z"/><path class="cls-14" d="M22.73,102s0,0,0,0,0,0,0,0Z"/><path class="cls-14" d="M23,101.74c3.17-1.13,6.42-2.16,9.53-3.48.06,0,0-.11,0-.1-3.22,1-6.38,2.26-9.54,3.42-.1,0-.05.2,0,.16Z"/><path class="cls-14" d="M25.3,102.92a51.4,51.4,0,0,1,7-2.89c.08,0,.05-.16,0-.13a34.1,34.1,0,0,0-7,2.93c-.06,0,0,.12.05.09Z"/><path class="cls-14" d="M119.14,12.59a15.5,15.5,0,0,0-.45,5.91c.11,1.07.41,2.89,1.83,2.88,1.7,0,2-2.29,2.08-3.52a10.13,10.13,0,0,0-.72-5.25c-.26-.58-.71-1.28-1.43-1.27-.54,0-1.09.46-1,1,0,.13.25.11.24,0a.67.67,0,0,1,1.07-.51,2,2,0,0,1,.67.86,8.51,8.51,0,0,1,.72,2.62,11.83,11.83,0,0,1,0,2.38,6,6,0,0,1-.6,2.57,1.13,1.13,0,0,1-2,.1,4.65,4.65,0,0,1-.5-2,22.35,22.35,0,0,1,.29-5.66c0-.16-.2-.23-.24-.07Z"/><path class="cls-14" d="M122.19,13.82a.33.33,0,0,1,.1-.23l0,0h0l0,0s0,0,0,0l.07,0s0,0,0,0h0l.08,0h.18l.07,0h.05l0,0h0l0,0,0,0h0a.13.13,0,0,0,.17,0,.13.13,0,0,0,0-.17.59.59,0,0,0-.56-.26.8.8,0,0,0-.31.09l-.06,0,0,0s0,0,0,0h0l0,0a.48.48,0,0,0-.09.11.5.5,0,0,0-.09.33.09.09,0,1,0,.18,0Z"/><path class="cls-14" d="M123.23,14.3c-.2-.42-.48-1.06,0-1.41s.75.31.9.62a5.24,5.24,0,0,1,.41,1.4,5.84,5.84,0,0,1,0,.73,3.47,3.47,0,0,0,0,.72.11.11,0,0,0,.19,0,2.1,2.1,0,0,0,.08-.87,5.64,5.64,0,0,0-.11-.92,4.22,4.22,0,0,0-.65-1.67.7.7,0,0,0-1.15-.09c-.4.48-.15,1.1.08,1.59.07.15.29,0,.22-.12Z"/><path class="cls-14" d="M122.83,13.83c0,.39.07.77.12,1.16a.08.08,0,0,0,0,.07h.06s0,0,0-.06c0-.39-.11-.78-.16-1.17,0-.06-.11-.05-.1,0Z"/><path class="cls-14" d="M122.33,13.66h0l0,0v0a.06.06,0,0,0,0-.06h0v0h0s0,0,0,0v0h0v0h0v0h0s0,0,0,0v0h.14l0,0s0,0,0,0h0s0,0,0,0a.1.1,0,0,0,.13,0,.09.09,0,0,0,0-.12.33.33,0,0,0-.15-.11h0s0,0,0,0h-.11a.27.27,0,0,0-.19.26.36.36,0,0,0,.07.17s0,0,.06,0h0l.06,0a0,0,0,0,0,0,0s0,0,0-.05Z"/><path class="cls-14" d="M122.41,15h0v-.08h0l0-.11s0,0,0,0v0l0,0,0,0h0a.08.08,0,0,1,0,0l0,0s0,0,0,0l.05,0,0,0h.1s0,0,0,0h0a.42.42,0,0,0,.16,0,.12.12,0,0,0,0-.17.2.2,0,0,0-.15,0h-.12a.72.72,0,0,0-.2.09.74.74,0,0,0-.28.37.57.57,0,0,0,0,.26.09.09,0,0,0,.12.07.11.11,0,0,0,.07-.12Z"/><path class="cls-14" d="M120.1,11.77a2.32,2.32,0,0,0-.06,1.58,12,12,0,0,1,.5,2.29,13.61,13.61,0,0,1-.56,4.79c0,.12.16.18.19.06a14,14,0,0,0,.55-4.46,7.89,7.89,0,0,0-.33-2,3.41,3.41,0,0,1-.22-2.24s0-.07-.07,0Z"/><path class="cls-14" d="M120.43,12.3a16.82,16.82,0,0,1,.87,4.33A19.17,19.17,0,0,1,121,21c0,.06.08.09.1,0a14.11,14.11,0,0,0-.53-8.8c0-.06-.12,0-.1,0Z"/><path class="cls-14" d="M123,12.94c0,.45.13.89.21,1.34l.11.68a2.44,2.44,0,0,0,.14.65s.07,0,.08,0a2.3,2.3,0,0,0-.09-.64l-.11-.68c-.08-.45-.15-.9-.24-1.35,0-.05-.11,0-.1,0Z"/><path class="cls-14" d="M123.7,13.85a3.77,3.77,0,0,1,.06,1,3.47,3.47,0,0,1-.06.45c0,.16-.08.32-.11.48s.07.1.1,0a1.88,1.88,0,0,0,.17-.47,3.86,3.86,0,0,0,.09-.49,3.44,3.44,0,0,0-.07-1c0-.12-.21-.07-.18,0Z"/><path class="cls-14" d="M118.78,14.58s0,0,0,0a0,0,0,1,0,0,0Z"/><path class="cls-14" d="M118.81,14.67c-.79,0-1.61.17-2.4.25s-1.61.15-2.41.2-1.61.08-2.42.09a17.32,17.32,0,0,0-2.28,0,.17.17,0,0,0,0,.32,10.86,10.86,0,0,0,2.28,0c.84,0,1.68-.06,2.51-.13s1.61-.15,2.41-.25a13.2,13.2,0,0,0,2.33-.4.07.07,0,0,0,0-.14Z"/><path class="cls-14" d="M115.09,15.26a15.37,15.37,0,0,0,1.92-.15l1.92-.22c.22,0,.23-.39,0-.36l-2,.23a18,18,0,0,0-1.91.29.11.11,0,0,0,0,.21Z"/><path class="cls-14" d="M107.63,17.45a1.44,1.44,0,0,0-.25-.53,4.21,4.21,0,0,0-.35-.48,4.89,4.89,0,0,0-.85-.79,4.35,4.35,0,0,0-1-.58,4.87,4.87,0,0,0-.53-.21,1.85,1.85,0,0,0-.61-.13c-.2,0-.33.32-.12.42a5.7,5.7,0,0,0,.55.16,3.75,3.75,0,0,1,.47.17,5,5,0,0,1,1,.54,5.4,5.4,0,0,1,.79.72,4.35,4.35,0,0,1,.33.42,3.68,3.68,0,0,0,.34.44.16.16,0,0,0,.27-.15Z"/><path class="cls-14" d="M112,13.9c-.13-.33-.33-.63-.44-1a5,5,0,0,1-.21-1.09,4.26,4.26,0,0,1,0-1.07,3.33,3.33,0,0,1,.11-.53,1,1,0,0,0,.09-.52.19.19,0,0,0-.28-.12.81.81,0,0,0-.26.49,5.6,5.6,0,0,0-.12.59,4.39,4.39,0,0,0,0,1.2,4.54,4.54,0,0,0,.27,1.13,3.23,3.23,0,0,0,.58,1c.1.09.3,0,.25-.15Z"/><path class="cls-14" d="M100.36,15.37a12.46,12.46,0,0,0,2-.3l2.13-.38,2.12-.38a13.57,13.57,0,0,0,2.11-.41.21.21,0,0,0,0-.41,15.61,15.61,0,0,0-2,.33l-2.12.39-2.12.38a13.75,13.75,0,0,0-2.1.44.17.17,0,0,0,0,.34Z"/><path class="cls-14" d="M108.69,13.7a8.36,8.36,0,0,0,1.09-1.47c.36-.54.72-1.1,1.06-1.67s.66-1.09,1-1.65l.48-.83a2.14,2.14,0,0,0,.33-.78.13.13,0,0,0-.19-.12,2,2,0,0,0-.45.65c-.15.28-.31.56-.47.84-.32.57-.66,1.14-1,1.7l-1,1.64a9.72,9.72,0,0,0-1,1.61c0,.08.07.13.13.08Z"/><path class="cls-14" d="M100.21,15.13a16.24,16.24,0,0,0,.81-1.87c.27-.67.53-1.34.8-2s.53-1.34.79-2a6.89,6.89,0,0,0,.67-1.91.13.13,0,0,0-.21-.09A6.91,6.91,0,0,0,102.28,9c-.27.67-.54,1.34-.8,2s-.53,1.34-.79,2a18,18,0,0,0-.75,2,.15.15,0,0,0,.27.11Z"/><path class="cls-14" d="M103.21,7.07a8,8,0,0,0,2.34,0c.77,0,1.55,0,2.32,0s1.55,0,2.33.12c.41,0,.83.07,1.24.12a3,3,0,0,0,1.11.07.15.15,0,0,0,0-.28,2.54,2.54,0,0,0-1-.21l-1.24-.13c-.84-.08-1.67-.12-2.51-.14s-1.66,0-2.5.05a5.53,5.53,0,0,0-2.18.32.08.08,0,0,0,0,.14Z"/></svg>