<svg id="illustration" xmlns="http://www.w3.org/2000/svg" viewBox="0 0 198.43 137.43"><defs><style>.cls-1{fill:#fcee27;}.cls-2{fill:#fff;}.cls-3{fill:#f16048;}.cls-4{fill:#646b62;}.cls-5{fill:#8c8934;}.cls-6{fill:#636a75;}.cls-7{fill:#008eb2;}.cls-8{fill:#b8ad25;}.cls-9{fill:#1c1a00;}.cls-10{fill:#010101;}.cls-11{fill:#54b948;}</style></defs><path class="cls-1" d="M121.74,54.45,70.28,57.17s-5.4.61-6.78,5.16,2.6,31.79,2.6,31.79l3.71,11.95,6.35,10.84,3.93,3.54,4.08,2.84a23.89,23.89,0,0,0,19.49,1c10.45-4.21,21.75-12.94,24.58-24,4-11.43,3.51-36.27,3.34-41.57l-2.4-.16-7.17.31Z"/><polygon class="cls-2" points="116.13 62.33 122.29 61.57 126.53 61.57 127.59 62.33 128.1 71.88 126.78 72.72 117.48 73.03 116.13 71.56 116.13 62.33"/><path class="cls-2" d="M67.47,62.33H78.65s2,.51,2.17,2S80.75,73,80.75,73a2.57,2.57,0,0,1-2.64,1.91c-2.33.12-7.83-.38-7.83-.38s-2-.19-2.1-1.85S67.47,62.33,67.47,62.33Z"/><path class="cls-3" d="M83.93,65.71l28-.43S113.49,79.1,99.63,81,83.93,65.71,83.93,65.71Z"/><path class="cls-2" d="M88.1,67.79l20.56.18s.64,9.71-9.37,10.65S88.1,67.79,88.1,67.79Z"/><polygon class="cls-4" points="72.53 86.1 119.4 84.17 120.83 98.24 74.66 101.64 72.53 86.1"/><path class="cls-5" d="M73.55,106.51s6.86,15.21,21,14.71,22.39-6.07,25.64-10.45a26.37,26.37,0,0,0,4.1-7.19s-.72-1.44-4.41-.75S102.24,106,98,106.07s-22-2.62-23.68-1.8A1.47,1.47,0,0,0,73.55,106.51Z"/><polygon class="cls-6" points="121.76 58.98 121.48 2.83 129.54 3.43 131.58 58.66 121.76 58.98"/><polygon class="cls-6" points="91.7 56.04 94.28 48.82 98.11 48.53 100.22 55.47 91.7 56.04"/><polygon class="cls-6" points="71.21 57.1 73.93 49.37 78.65 49.36 81.54 56.64 71.21 57.1"/><path class="cls-2" d="M74.19,50.07v.09a.3.3,0,0,0,.21.27,4.71,4.71,0,0,0,3.5,0,.19.19,0,0,0-.09-.35,13.41,13.41,0,0,0-1.55,0,7.68,7.68,0,0,1-1.71-.25.27.27,0,0,0-.27.08s-.1.08-.09.11Z"/><path class="cls-2" d="M94.82,49.9a3.43,3.43,0,0,0,3.46.17c.21-.16.24-.59-.09-.65a8.32,8.32,0,0,0-1.65.1,8.76,8.76,0,0,0-1.62,0,.22.22,0,0,0-.1.36Z"/><path class="cls-7" d="M122.07,3.54a2,2,0,0,0-.17,1.27c0,.57.08,1.14.13,1.71a.46.46,0,0,0,.22.38l.14.06a.24.24,0,0,0,.23,0l.08-.06a.44.44,0,0,0,.22-.38c-.08-.57-.15-1.13-.25-1.7a2,2,0,0,0-.48-1.29.08.08,0,0,0-.12,0Z"/><path class="cls-7" d="M122.31,7.11c2,1,4.89.44,7,.49.62,0,.6-.9,0-.95-2.09-.16-4.92-1-6.94-.24-.28.11-.41.54-.09.7Z"/><path class="cls-7" d="M129.46,7.3a3.45,3.45,0,0,0,.16-1.78,4.48,4.48,0,0,0-.14-1.83.35.35,0,0,0-.6,0,3.51,3.51,0,0,0-.25,2,2.63,2.63,0,0,0,.44,1.7.26.26,0,0,0,.39,0Z"/><path class="cls-7" d="M122.56,3.7a4.51,4.51,0,0,0,.11,2.47c.15.4.86.38.81-.11s-.15-.76-.22-1.15-.1-.81-.21-1.21a.26.26,0,0,0-.49,0Z"/><path class="cls-7" d="M123,4.17c-.14.68,0,2,.69,2.31a.42.42,0,0,0,.63-.36,1.87,1.87,0,0,0-.36-1,9.63,9.63,0,0,0-.52-1c-.11-.16-.4-.16-.44.06Z"/><path class="cls-7" d="M123.45,4.29a4.47,4.47,0,0,0,.78,2.23.65.65,0,0,0,1.14,0,.68.68,0,0,0-.1-.8,15.69,15.69,0,0,1-1.39-1.55c-.12-.16-.45-.14-.43.12Z"/><path class="cls-7" d="M124,4.55c.41.87,1.16,2.31,2.26,2.33a.68.68,0,0,0,.65-.85c-.21-.51-.64-.74-1.08-1a13.71,13.71,0,0,1-1.22-.9.39.39,0,0,0-.61.47Z"/><path class="cls-7" d="M124.71,4.55a10.77,10.77,0,0,0,2.19,2.38.72.72,0,1,0,.87-1.13c-.84-.63-1.68-1.19-2.57-1.74-.29-.18-.69.19-.49.49Z"/><path class="cls-7" d="M126.22,4.58a5,5,0,0,0,1.56,2.12.6.6,0,1,0,.73-1,10.91,10.91,0,0,0-2-1.45.23.23,0,0,0-.28.28Z"/><path class="cls-7" d="M128.34,4.14c-.49.36-.46,1.13-.51,1.69-.06.76,1.24.77,1.2,0,0-.51,0-1.31-.42-1.66a.21.21,0,0,0-.27,0Z"/><path class="cls-7" d="M122.1,13.71c2.1.89,5.19.45,7.43.36a.53.53,0,0,0,0-1.05c-1.31-.07-2.63-.09-3.94-.1a8.85,8.85,0,0,0-3.44.35c-.16.07-.27.35-.05.44Z"/><path class="cls-7" d="M129.37,13.57a4.08,4.08,0,0,0-.42,2.22c0,.71-.21,1.61.35,2.14a.46.46,0,0,0,.65,0c.57-.59.33-1.53.26-2.29a3.73,3.73,0,0,0-.52-2.11c-.09-.11-.25,0-.32,0Z"/><path class="cls-7" d="M130.06,17.51a17.45,17.45,0,0,0-4.08-.42c-1.19-.05-2.58-.4-3.63.26a.54.54,0,0,0,0,.91c1,.72,2.45.46,3.63.5a17.41,17.41,0,0,0,4.08-.13.58.58,0,0,0,0-1.12Z"/><path class="cls-7" d="M122.51,18.43a7.08,7.08,0,0,0,.57-2.41c.09-.72.4-1.76-.23-2.27a.42.42,0,0,0-.51-.07c-.69.45-.53,1.27-.53,2a7.59,7.59,0,0,0,.32,2.69.21.21,0,0,0,.38.05Z"/><path class="cls-7" d="M122.93,14.67a4.67,4.67,0,0,0,2.84.42,28.42,28.42,0,0,0,3.32-.29l-.72-.54c0,.86-.12,1.71-.16,2.57a.67.67,0,0,0,1.34,0c0-.86-.12-1.72-.05-2.57a.57.57,0,0,0-.56-.56,25.71,25.71,0,0,0-3.62,0,4.06,4.06,0,0,0-2.44.62.26.26,0,0,0,.05.4Z"/><path class="cls-7" d="M128.79,16.74c-1.53-.91-3.81-.55-5.51-.54a.81.81,0,0,0,0,1.61c1.71,0,4,.31,5.51-.62a.26.26,0,0,0,0-.45Z"/><path class="cls-7" d="M123.64,17.12a2.84,2.84,0,0,0,.63-1.82.79.79,0,0,0-1.58,0,5.2,5.2,0,0,0,.45,1.76.28.28,0,0,0,.5.06Z"/><path class="cls-7" d="M123.7,15.89a3.39,3.39,0,0,0,2.59.55c.95,0,2,.16,2.57-.66a.62.62,0,0,0-.1-.77c-.63-.71-1.78-.4-2.64-.35a3.29,3.29,0,0,0-2.42.75.34.34,0,0,0,0,.48Z"/><path class="cls-7" d="M127.62,16.56l0,.12a.64.64,0,1,0,.79-.79l-.14,0a.56.56,0,0,0-.68.69Z"/><path class="cls-2" d="M125.15,4a2,2,0,0,0-2.4.19,1.9,1.9,0,0,0-.39,1.15c0,.28,0,.56,0,.84s-.08.39,0,.6a.18.18,0,0,0,.24.07c.52-.34.21-1.34.37-1.86.31-1,1.34-.54,2.06-.62a.2.2,0,0,0,.1-.37Z"/><path class="cls-2" d="M125.08,21.06c-.76,5.71-.21,11.84-.18,17.61,0,2.77,0,5.55,0,8.32s-.24,5.72.41,8.43a.43.43,0,0,0,.82,0c.57-2.58.3-5.32.28-7.94q0-4.65-.07-9.3c-.06-5.65.38-11.64-.45-17.24-.08-.52-.79-.31-.85.12Z"/><path class="cls-2" d="M67.86,60.5c6.89-1.44,14-1.41,21-1.72s14.26-.51,21.36-1c.66,0,.67-1,0-1-7.6.21-15.21.74-22.81,1.11-6.39.32-13.65-.22-19.65,2.32-.18.08,0,.34.12.3Z"/><path class="cls-2" d="M85.83,68.72c.25,2.12.91,5.06,2.89,6.27a.31.31,0,0,0,.41-.42,18.5,18.5,0,0,1-1.77-2.76c-.43-1-.67-2.11-1-3.16-.09-.27-.55-.24-.51.07Z"/><path class="cls-2" d="M75.19,106.6c2.94,8,11.32,15.47,20.34,13.28a.32.32,0,0,0-.08-.62c-4.79.1-9.16-.61-12.93-3.83-3-2.56-4.57-6.05-7-9-.11-.14-.37,0-.31.18Z"/><path class="cls-2" d="M73.4,110c5.38,11.87,20.3,20.12,32.37,12.27.17-.11.07-.41-.14-.34-6.35,2.3-12.91,3-19.26.13a21.42,21.42,0,0,1-7.19-5c-2.07-2.24-3.56-4.9-5.54-7.2-.12-.14-.31,0-.24.18Z"/><path class="cls-2" d="M129.18,74.39c-.49,4.33-.41,8.64-1.16,13-.69,4.06-2.06,7.91-3,11.91a.32.32,0,0,0,.59.25c2.16-3.82,3.17-8.4,3.87-12.69.66-4.06,1.16-8.45.38-12.53-.08-.44-.67-.28-.72.1Z"/><path class="cls-8" d="M115.68,73a2.85,2.85,0,0,0,1.87,1.31c.63.14,1.74.26,2.19-.31a.35.35,0,0,0-.15-.57c-.59-.14-1.19.17-1.81,0A5.61,5.61,0,0,1,116,72.6a.27.27,0,0,0-.36.36Z"/><path class="cls-8" d="M116.37,73.58c2.66.91,6.22.76,9,.62,1.69-.09,2.85-.7,2.84-2.52,0-.32-.44-.3-.48,0-.26,1.95-4.78,1.17-6.14,1.14a17,17,0,0,0-5.23.31.24.24,0,0,0,0,.45Z"/><path class="cls-8" d="M67.83,74.06c2.73,2.88,12,4.22,13.26-.77a.26.26,0,0,0-.5-.14c-.86,2.71-5,2.54-7.18,2.25-1.94-.25-3.57-1.14-5.45-1.57a.14.14,0,0,0-.13.23Z"/><path class="cls-8" d="M74.92,102.25c3.2,1.25,7.34.32,10.67.06q6.12-.48,12.26-.92,12.27-.9,24.53-1.88c.63-.05.63-1,0-1q-12,.85-24,1.76c-3.92.3-7.85.61-11.77.89s-7.8,1.07-11.58.59c-.3,0-.31.39-.07.48Z"/><path class="cls-8" d="M112.34,117.84c5-1.23,11-5.5,12.43-10.72.12-.44-.48-.85-.79-.47-1.68,2-2.91,4.29-4.85,6.12a30.3,30.3,0,0,1-6.93,4.74.18.18,0,0,0,.14.33Z"/><path class="cls-8" d="M118.3,114.23a13.07,13.07,0,0,0,3.33-3,10.29,10.29,0,0,0,2.32-4.32c0-.36-.38-.76-.68-.4a37.69,37.69,0,0,0-2.19,3.56c-.93,1.36-2,2.62-3,3.9-.13.16,0,.43.24.31Z"/><path class="cls-8" d="M86.88,76.62c1.21,3.14,5.24,4.72,8.34,5.17a15.28,15.28,0,0,0,11-2.53.23.23,0,0,0-.23-.4c-3.38,1.86-7,2.83-10.87,1.85-3.14-.81-5.24-2.92-8.06-4.24-.09,0-.24,0-.19.15Z"/><path class="cls-8" d="M120.44,54.78c-.65,2.11-1,5.08,1.68,5.6a15.48,15.48,0,0,0,4.94-.23c1.32-.19,2.73-.25,3.71-1.21a.37.37,0,0,0-.16-.6c-1.76-.41-3.84.5-5.66.57-1.38.05-2.73.17-3.42-1.37-.3-.67-.07-2-.26-2.76a.43.43,0,0,0-.83,0Z"/><path class="cls-9" d="M121.24,64.26c-2.45-.4-3.06,3.09-1.31,4.35a2.64,2.64,0,0,0,3.77-3.44,2.29,2.29,0,0,0-3-.89,2.09,2.09,0,0,0-.81,2.9,1.94,1.94,0,0,0,2.82.47,1.85,1.85,0,0,0-.07-2.88c-1.19-.81-3,.39-2.21,1.79a1.26,1.26,0,0,0,2.32-.87.81.81,0,0,0-1.56,0c.08-.38.79.61.46.77a.3.3,0,0,1-.35,0c-.4-.26-.09-.8.28-.9,1.14-.31,1.19,1.39.53,1.91a1.42,1.42,0,0,1-2.2-.64c-.36-1,.57-1.8,1.35-2.18a.2.2,0,0,0-.05-.37Z"/><path class="cls-9" d="M73.53,65.45a1.7,1.7,0,0,0-2,.64,2.24,2.24,0,0,0-.24,2.43,2.41,2.41,0,0,0,4.24,0,2.45,2.45,0,0,0,0-2.48A1.92,1.92,0,0,0,73,65.35a2.09,2.09,0,0,0-1,2.3,1.69,1.69,0,0,0,2.3,1.23,1.42,1.42,0,0,0,.25-2.42c-1-.68-2.65.5-1.84,1.58A.8.8,0,0,0,74,68a1.51,1.51,0,0,0,.11-.22c.14-.25,0-.41-.51-.47a.39.39,0,0,1,0-.28c.07-.25.24-.29.43-.13.42.35.07,1.13-.34,1.32a1,1,0,0,1-1.28-.78c0-.68.64-1.07,1.11-1.39a.37.37,0,0,0,0-.64Z"/><path class="cls-2" d="M72.8,65.94c-.6-.34-1.18.31-1.09.92a1,1,0,0,0,1.55.62,1,1,0,1,0-1.64-.75.6.6,0,0,0,1.2,0c-.21.07-.28,0-.21,0a.07.07,0,0,1,0-.07.61.61,0,0,1,.19-.29.24.24,0,0,0,0-.38Z"/><path class="cls-2" d="M120.33,64.47c-.67-.37-1.35.35-1.32,1a1.18,1.18,0,0,0,1.74.89,1.2,1.2,0,0,0,.11-2c-.76-.47-2.06.23-1.52,1.17a.58.58,0,0,0,.89.12s.16-.11.16-.17c-.27,0-.35-.09-.22-.19a.09.09,0,0,1-.07,0,.65.65,0,0,1,.23-.31.29.29,0,0,0,0-.5Z"/><path class="cls-10" d="M121.34,2.66c-.48,4.53-.15,9.25-.14,13.79,0,4.77,0,9.53.06,14.29,0,9.36.06,18.71.14,28.07a.44.44,0,0,0,.87,0c0-9.36,0-18.71-.06-28.07q0-6.9,0-13.79c0-4.71.28-9.6-.25-14.29a.29.29,0,0,0-.58,0Z"/><path class="cls-10" d="M129.44,3.5c.18,19.75,1.24,39.51,1.84,59.26.53,17.34,1.17,36.38-11.31,50.08-5.5,6-13,10.75-21.14,12.22-9.49,1.73-17.72-2.79-23.38-10.24-5.11-6.74-7.83-14.89-9.33-23.14A132.91,132.91,0,0,1,64,67a12.83,12.83,0,0,1,1.35-6.37c1.49-2.52,4.28-2.92,7-3.08,5.59-.35,11.18-.61,16.77-.91l33.55-1.82c.5,0,.5-.81,0-.78l-33,1.81-16.28.9c-3.31.18-6.71.38-8.64,3.47-1.79,2.89-1.64,6.64-1.5,9.9.18,4.53.45,9.06.92,13.57.89,8.54,2.55,17.14,6.4,24.88,3.51,7.06,9.07,13.81,16.65,16.64,8.3,3.09,17.61.17,24.81-4.34a41.51,41.51,0,0,0,15.54-17.53c3.89-8.36,4.9-17.66,5-26.78.14-11.82-.62-23.69-1-35.5-.42-12.51-.64-25-1.34-37.53,0-.42-.66-.42-.65,0Z"/><path class="cls-10" d="M122.57,59.36h-.28s0,0,0,0h.28s0,0,0,0Z"/><path class="cls-10" d="M122,59.37a27,27,0,0,0,8.71-.8c.48-.11.27-.82-.21-.73-2.83.56-5.64.74-8.5,1a.25.25,0,0,0,0,.5Z"/><path class="cls-10" d="M91.86,56.07a51.68,51.68,0,0,0,2-7.76.2.2,0,0,0-.38-.11A52.39,52.39,0,0,0,91.61,56a.13.13,0,1,0,.25.07Z"/><path class="cls-10" d="M93.87,48.76a36.82,36.82,0,0,0,4.79.68c.43.05.43-.63,0-.68a37.44,37.44,0,0,0-4.73-.42.21.21,0,0,0-.06.42Z"/><path class="cls-10" d="M98.55,49.12A61.2,61.2,0,0,0,100.34,55c.11.33.64.19.53-.15A60.33,60.33,0,0,0,98.76,49c-.06-.12-.24,0-.21.09Z"/><path class="cls-10" d="M71.61,57.2a81,81,0,0,0,2.57-7.76.26.26,0,0,0-.5-.14c-.82,2.58-1.75,5.18-2.31,7.84a.12.12,0,0,0,.24.06Z"/><path class="cls-10" d="M73.87,49.25a22.47,22.47,0,0,0,4.78.22.39.39,0,0,0,0-.77,22.47,22.47,0,0,0-4.78.22.17.17,0,0,0,0,.33Z"/><path class="cls-10" d="M78.82,49.11c.35,1.11.72,2.2,1.12,3.29a13.34,13.34,0,0,0,1.16,2.84c.07.1.28.08.26-.07a14.61,14.61,0,0,0-1-3.11c-.39-1-.81-2-1.24-3.05-.06-.15-.3,0-.25.1Z"/><path class="cls-10" d="M74.21,51a3.57,3.57,0,0,0,4-.38.08.08,0,0,0-.1-.13,5.79,5.79,0,0,1-2,.66,5.15,5.15,0,0,1-1.87-.28c-.08,0-.12.09-.05.13Z"/><path class="cls-10" d="M74.18,53.25a3.49,3.49,0,0,0,4,.14c.09-.07,0-.26-.09-.21a4.48,4.48,0,0,1-3.82,0c-.06,0-.13.05-.08.09Z"/><path class="cls-10" d="M94.17,51.49a18.25,18.25,0,0,0,3.37.28c.14,0,.18-.21,0-.24a19,19,0,0,0-3.37-.3c-.15,0-.18.24,0,.26Z"/><path class="cls-10" d="M94.26,53.47c1.15.77,3.31.75,4-.67,0-.07-.05-.19-.13-.13a4.91,4.91,0,0,1-1.61.93,3.06,3.06,0,0,1-2.18-.27c-.09,0-.16.08-.08.14Z"/><path class="cls-10" d="M67.24,63.54A64.56,64.56,0,0,0,67.71,72a3.27,3.27,0,0,0,1.93,2.91c2,.86,4.81.66,7,.64,1.39,0,3.1,0,4-1.26,1.12-1.45.65-4,.63-5.63s.45-4.14-.41-5.55S78.05,62,76.64,62c-3,.07-6.07.21-9.11.33-.58,0-.58.93,0,.9,3.2-.14,6.39-.27,9.59-.45,1.39-.07,2.81-.51,3.35,1.64a6.36,6.36,0,0,1,0,1.51c0,1.66,0,3.33,0,5,0,2.86-2.38,3.8-4.79,3.78a17.58,17.58,0,0,1-4.87-.27c-2.61-.83-2.48-3.27-2.64-5.6-.13-1.77-.26-3.53-.47-5.3,0-.27-.45-.29-.45,0Z"/><path class="cls-10" d="M116.07,63c-.17,2-.14,4-.17,6,0,1-.37,2.49.14,3.39.28.48.48.51,1,.7,1.45.53,4,.1,5.53.1s5,.76,5.78-1c.49-1.1,0-2.78-.11-3.93-.14-2.19-.23-4.37-.49-6.55a.2.2,0,0,0-.19-.2,31,31,0,0,0-11.47.65c-.45.13-.25.74.19.68,1.71-.24,3.4-.61,5.12-.78,1.37-.13,3.5-.59,4.84-.21,1.63.46,1.18,2.61,1.26,4.07s.68,3.81.26,5.15c-.59,1.89-3.22,1.34-4.73,1.37a27.44,27.44,0,0,1-4.52.15,1.07,1.07,0,0,1-1.52-.61,1.25,1.25,0,0,1-.6-1.58,14.59,14.59,0,0,1,0-2.29c0-1.69,0-3.37-.07-5.05a.13.13,0,0,0-.25,0Z"/><path class="cls-10" d="M120.21,64.72a2.41,2.41,0,0,0-.57,3.81,2.79,2.79,0,0,0,4.08-.43,3,3,0,0,0-1.27-4.26,3,3,0,0,0-4.1,2.09c0,.31.38.56.56.23.59-1.1,1.65-2.14,3-1.75a2.28,2.28,0,0,1,1.37,3.17,2.17,2.17,0,0,1-3.22.52,2.37,2.37,0,0,1,.22-3.26.08.08,0,0,0-.09-.12Z"/><path class="cls-10" d="M72.64,66.31a1.45,1.45,0,0,0-1.78,1,2.32,2.32,0,0,0,.81,2.37A3,3,0,0,0,76,69.06a2.9,2.9,0,1,0-5.28-2.25c-.15.51.62.71.79.22a2.32,2.32,0,0,1,2.38-1.53A2.14,2.14,0,0,1,75.63,68a2.07,2.07,0,0,1-2.48,1.72c-1.64-.25-2.56-2.58-.51-3,.19,0,.15-.29,0-.35Z"/><path class="cls-10" d="M112.18,64.37c.11,3.67-.29,7-2.36,10.16a13.82,13.82,0,0,1-10.51,6.09c-8.48.64-14.43-6-15.12-14a.31.31,0,0,0-.61,0C83,75.33,91.25,82.28,99.69,81.4c7.91-.82,14.89-8.93,12.76-17.07a.14.14,0,0,0-.27,0Z"/><path class="cls-10" d="M83.86,66.37c4.63.81,9.84.22,14.54.08,2.57-.07,5.14-.19,7.7-.33a33.48,33.48,0,0,0,6.8-.62c.28-.07.19-.43-.06-.46-2.5-.29-5.18.16-7.7.28s-4.82.2-7.23.26c-4.59.13-9.51-.39-14,.28a.27.27,0,0,0,0,.51Z"/><path class="cls-10" d="M88.43,69.36a10.28,10.28,0,0,0,11.22,9.55A10.42,10.42,0,0,0,109,67.42c0-.3-.5-.32-.49,0,.17,5.53-3.48,10.51-9.26,10.88-5.55.35-9.55-3.82-10.56-9a.14.14,0,0,0-.28,0Z"/><path class="cls-10" d="M108.66,67.94a100.61,100.61,0,0,0-10.28-.4c-3.4-.07-6.89-.36-10.28-.11a.36.36,0,0,0,0,.72c3.38.36,6.88.2,10.28.25a97.89,97.89,0,0,0,10.28-.05.21.21,0,0,0,0-.41Z"/><path class="cls-10" d="M89.69,72.55c4.94,2.57,12.91,3.06,17.82.11a.18.18,0,0,0-.14-.33c-3,.61-5.67,1.54-8.77,1.51a29.6,29.6,0,0,1-8.74-1.71.23.23,0,0,0-.17.42Z"/><path class="cls-10" d="M93.54,71.88c0,.55.09,1.1.13,1.65A5.73,5.73,0,0,0,93.86,75c0,.06.14.08.15,0a5.29,5.29,0,0,0-.07-1.43c0-.55-.11-1.1-.17-1.65,0-.14-.24-.15-.23,0Z"/><path class="cls-10" d="M98.32,72.71a9.15,9.15,0,0,0,0,2.81.12.12,0,0,0,.23,0,9.47,9.47,0,0,0-.06-2.81.06.06,0,0,0-.12,0Z"/><path class="cls-10" d="M103.54,72.43c-.05,1-.08,2-.06,3.06a.18.18,0,0,0,.36,0c0-1,0-2-.06-3.06a.12.12,0,0,0-.24,0Z"/><path class="cls-10" d="M98.58,69.38a4.87,4.87,0,0,0,0,.85s.1,0,.1,0a4.06,4.06,0,0,0,0-.85.08.08,0,1,0-.16,0Z"/><path class="cls-10" d="M93.3,69.1c0,.28,0,.56,0,.83a.09.09,0,0,0,.17,0c0-.27,0-.55,0-.83a.08.08,0,1,0-.15,0Z"/><path class="cls-10" d="M103.85,69.93a4.26,4.26,0,0,0,0,1.13.07.07,0,0,0,.14,0,4.26,4.26,0,0,0,0-1.13c0-.11-.17-.11-.18,0Z"/><path class="cls-10" d="M72.65,85.78c-.57,4.92.42,10.63,1.72,15.39.1.38.65.22.59-.16-.5-2.83-1-5.63-1.36-8.49-.24-2.26-.25-4.55-.59-6.79,0-.22-.34-.14-.36,0Z"/><path class="cls-10" d="M72.53,86.48c8,0,16-.55,24-.88,3.91-.16,7.83-.36,11.74-.51,3.71-.13,7.7.07,11.34-.65.33-.07.21-.52-.08-.55-3.81-.44-7.91.14-11.75.3L96,84.65c-7.82.32-15.7.4-23.5,1.07a.38.38,0,0,0,0,.76Z"/><path class="cls-10" d="M119.38,84.66c-.62,2.18-.18,4.77.05,7a37.44,37.44,0,0,0,1.24,7c.09.31.51.17.47-.13-.37-2.6-.94-5.15-1.19-7.77-.19-2,0-4.14-.52-6.07,0,0,0,0-.05,0Z"/><path class="cls-10" d="M74.77,101.82c3.91.36,8-.11,11.86-.34s7.58-.46,11.36-.74q11.61-.84,23.18-2.07c.55-.06.56-.92,0-.87q-11.82,1.15-23.67,2-5.93.44-11.86.79a90.6,90.6,0,0,0-10.92.85c-.22,0-.14.34,0,.36Z"/><path class="cls-10" d="M74.19,87.75c.34,4.17,1,8.33,1.51,12.48,0,.19.32.19.3,0-.52-4.16-.91-8.37-1.6-12.51,0-.12-.22-.09-.21,0Z"/><path class="cls-10" d="M76.16,88.16C88.93,87.66,101.75,87,114.5,86a.14.14,0,0,0,0-.27c-12.77.49-25.59,1.21-38.34,2.12-.17,0-.18.28,0,.27Z"/><path class="cls-10" d="M117.37,87.18c.15,2.87.47,5.76.81,8.61,0,.16.27.17.26,0-.22-2.87-.46-5.79-.86-8.64,0-.12-.21-.09-.21,0Z"/><path class="cls-10" d="M78.38,100a321.54,321.54,0,0,0,36.4-3.19c.08,0,.06-.16,0-.15C102.62,97.67,90.55,99,78.38,99.75c-.13,0-.13.21,0,.2Z"/><path class="cls-11" d="M79.2,90.49A67.51,67.51,0,0,0,80,97.57a.34.34,0,0,0,.33.26c1.2,0,2.38-.13,3.58-.23a.44.44,0,0,0,.43-.43c0-2.39.05-4.79,0-7.18a.43.43,0,0,0-.31-.4,9.47,9.47,0,0,0-4.92.44c-.58.22-.33,1.16.26.94a10,10,0,0,1,4.56-.57L83.48,90c-.08,2.39,0,4.79,0,7.18l.44-.44c-1.23.11-2.45.22-3.67.41l.43.25a64.89,64.89,0,0,0-1.25-6.93.1.1,0,0,0-.2,0Z"/><path class="cls-11" d="M86.27,90.78a33.09,33.09,0,0,0,.37,5.53.4.4,0,0,0,.4.39c1.37-.06,2.74-.14,4.1-.28a.41.41,0,0,0,.35-.61c-.95-1.65.31-3.79-.87-5.36-1-1.39-3.13-1.36-4.57-.65a.38.38,0,0,0,.19.71,17.79,17.79,0,0,1,2.29-.33c1.47,0,1.91,1,1.91,2.29s-.22,2.53.36,3.75l.34-.61c-1.36.06-2.74.17-4.1.3l.4.4a33.63,33.63,0,0,0-.79-5.58.19.19,0,0,0-.38,0Z"/><path class="cls-11" d="M95.75,89.66A18.12,18.12,0,0,0,96,93.19a9.71,9.71,0,0,0,.52,2.74.3.3,0,0,0,.54-.07,9.66,9.66,0,0,0-.23-2.78,17.75,17.75,0,0,0-.73-3.46.17.17,0,0,0-.33,0Z"/><path class="cls-11" d="M98.14,90.15c1.44-.64,3.15.16,2.83,1.89l.6-.24a2.49,2.49,0,0,0-3.75,1.65,2.37,2.37,0,0,0,.7,2.2,2,2,0,0,0,1.12.07,15.86,15.86,0,0,0,2.17-.17c.38-.08.25-.61-.09-.65a10.35,10.35,0,0,0-1.67,0c-.7,0-1.13.22-1.34-.57a1.65,1.65,0,0,1,2.45-1.85.41.41,0,0,0,.59-.24c.43-2.3-2-4.26-4-2.62-.31.26.08.65.39.51Z"/><path class="cls-11" d="M104,92c.22-1,.33-2.06.45-3.09l-.48.36c.52.12,1,.22,1.57.33a2.15,2.15,0,0,0,1.28,0,.2.2,0,0,0,.08-.33c-.67-.6-1.87-.61-2.73-.75a.38.38,0,0,0-.48.37c-.08,1-.17,2-.16,3,0,.26.41.33.47.06Z"/><path class="cls-11" d="M106.44,89.41c.08.87.25,1.74.41,2.6a6.51,6.51,0,0,0,.72,2.5c.08.12.31.13.34,0a5.81,5.81,0,0,0-.3-2.26,27.25,27.25,0,0,0-.79-2.85c-.07-.19-.4-.18-.38,0Z"/><path class="cls-11" d="M111.72,88.08a10.15,10.15,0,0,0-1.65,0c-.51.05-1,.13-1.53.23s-.33,1,.24.89,1.1-.21,1.64-.34a8.53,8.53,0,0,0,1.39-.5c.18-.07.07-.32-.09-.33Z"/><path class="cls-11" d="M108.81,88.84a14.8,14.8,0,0,0,.23,2.73,8.63,8.63,0,0,0,.54,2.67.24.24,0,0,0,.43-.06,8.11,8.11,0,0,0-.25-2.39,16,16,0,0,0-.69-3,.13.13,0,0,0-.26,0Z"/><path class="cls-11" d="M110.26,94.39a17,17,0,0,0,2.58.15.42.42,0,0,0,0-.84,17,17,0,0,0-2.58.14.29.29,0,0,0,0,.55Z"/><path class="cls-11" d="M113.27,94.12a10.83,10.83,0,0,0,0-1.61,2.09,2.09,0,0,0-.26-1.26.18.18,0,0,0-.31,0,2.09,2.09,0,0,0,0,1.24,13.63,13.63,0,0,0,.31,1.67.16.16,0,0,0,.31,0Z"/><path class="cls-11" d="M112.56,91.46c-.87,0-2.16-.27-2.94.19a.34.34,0,0,0,.08.61,2.66,2.66,0,0,0,1.37-.05c.52-.09,1-.23,1.55-.36a.2.2,0,0,0-.06-.39Z"/><path class="cls-11" d="M94.16,94.86c-.51.23-.22,1,.23.68s.1-.83-.23-.68Z"/><path class="cls-10" d="M73,105.58c2.68,5.91,7.28,11.46,13.2,14.34a.15.15,0,0,0,.15-.25c-5.71-3.65-10.23-8-13.11-14.23-.08-.16-.31,0-.24.14Z"/><path class="cls-10" d="M112,117.43c5.75-2.2,10.51-8.08,12.43-13.81.06-.17-.21-.28-.28-.12a27.62,27.62,0,0,1-4.86,8,37.09,37.09,0,0,1-7.36,5.78c-.07,0,0,.19.07.16Z"/><path class="cls-10" d="M83.44,108.17c-.31-.15-.52.17-.43.46.2.64,1-.3.29-.37h0l.23.14s0-.12,0-.15v.22l-.09.05a.18.18,0,0,0,.09-.34Z"/><path class="cls-10" d="M83.73,108.84c.09-.25.14-.54-.16-.67a.39.39,0,0,0-.54.26.4.4,0,0,0,.28.49c.08,0,.38,0,.42-.08Z"/><path class="cls-10" d="M90.88,108.13l-.14,0a.45.45,0,0,0-.4.23l0,.06a.36.36,0,0,0,0,.35l0,0a.45.45,0,0,0,.4.23h.14a.45.45,0,0,0,0-.89Z"/><path class="cls-10" d="M99.24,108.41a2.07,2.07,0,0,0-.62.52.36.36,0,0,0,.31.53,2,2,0,0,0,.68-.17c.67-.25.19-1.25-.37-.88Z"/><path class="cls-10" d="M108.22,108l.06.15a.4.4,0,0,0,.77,0l.07-.15c.29-.75-1.2-.75-.9,0Z"/><path class="cls-10" d="M116.82,106a.78.78,0,0,0-.52-.37c-.77-.25-.78,1.17,0,.92a.78.78,0,0,0,.52-.37.13.13,0,0,0,0-.18Z"/><path class="cls-10" d="M86.31,114.45a.49.49,0,0,0-.11-.51c-.35-.5-1,.17-.52.51.15.1.54.28.63,0Z"/><path class="cls-10" d="M95.29,114a.92.92,0,0,0-.87-.24.37.37,0,0,0-.22.53c.16.33.44.39.77.46a.41.41,0,0,0,.32-.75Z"/><path class="cls-10" d="M103.2,113.42l.08.26a.4.4,0,0,0,.77,0l.08-.26c.22-.77-1.15-.77-.93,0Z"/><path class="cls-10" d="M113.68,110.71a2,2,0,0,0-1.31.47.28.28,0,0,0,.12.47,2,2,0,0,0,1.38-.22.39.39,0,0,0-.19-.72Z"/><path class="cls-10" d="M90.38,116.54a1.09,1.09,0,0,0-.4.45.4.4,0,0,0,.54.54,1.09,1.09,0,0,0,.45-.4c.26-.34-.25-.85-.59-.59Z"/><path class="cls-10" d="M98.87,116.18c0,.12,0,.23,0,.34,0,.29.33.64.58.33l.28-.33c.57-.64-.72-1.24-.82-.34Z"/><path class="cls-10" d="M106.72,115.44a.48.48,0,0,0,0-1,.48.48,0,0,0,0,1Z"/><path class="cls-10" d="M134.62,97.73a27.65,27.65,0,0,0,.19,4.35,23.45,23.45,0,0,1-.64,5.72,23.69,23.69,0,0,1-5.33,10.11c-.4.46.26,1.14.68.68a24,24,0,0,0,5.5-10.15c.79-3.07,1.65-7.88,0-10.76-.08-.14-.35-.13-.37,0Z"/><path class="cls-10" d="M141.45,95.77c-.28,2,.7,4.1.71,6.18a22.18,22.18,0,0,1-1.43,7.77c-1.82,5-5.14,9.23-8.54,13.22-.41.48.28,1.17.69.69,3.53-4.11,6.91-8.51,8.79-13.65a23,23,0,0,0,1.46-7.61c0-2,0-5.18-1.57-6.63a.07.07,0,0,0-.11,0Z"/><path class="cls-10" d="M149.1,95.07c1.06,6.3,1.52,12.06-1.12,18.09a26.74,26.74,0,0,1-11.16,12.3.48.48,0,0,0,.48.83c10.32-5.78,17.38-19.94,12.4-31.47-.16-.36-.66-.08-.6.25Z"/><path class="cls-10" d="M63,100.91c-2,6.49.33,16.8,5.67,21.27.3.25.79-.06.57-.44-2-3.29-4-5.94-5.06-9.76s-.74-7.2-.49-11c0-.41-.57-.46-.69-.09Z"/><path class="cls-10" d="M58.42,99.71c-2.52,4.07-2.79,9.33-1.94,14,.78,4.19,3,10,6.74,12.4a.33.33,0,0,0,.45-.45c-1.14-1.83-2.72-3.3-3.77-5.22a23.42,23.42,0,0,1-2.4-6.63c-1-4.8-.1-9.29,1.27-13.91.07-.21-.24-.33-.35-.14Z"/><path class="cls-10" d="M51.55,98.33a23,23,0,0,0-2,18.8c1.68,5.2,5.48,10.74,10.51,13.19.38.19.88-.33.49-.64-4.41-3.48-8.06-7-9.94-12.45C48.52,111.05,49.4,104.48,52,98.6c.14-.31-.27-.57-.45-.27Z"/><path class="cls-10" d="M71.38,57.27a31.13,31.13,0,0,0,1.44-4.17,18.51,18.51,0,0,0,1.12-4.28.25.25,0,0,0-.47-.13,17.55,17.55,0,0,0-1.31,3.9A35.6,35.6,0,0,0,71,57.11c0,.21.26.38.36.16Z"/><path class="cls-10" d="M73.77,49.82a9.51,9.51,0,0,1,4.47,0c.6.14.86-.78.26-.93a10,10,0,0,0-5,0,.48.48,0,0,0,.25.92Z"/><path class="cls-10" d="M78.91,49c-.45,1,.2,2.05.47,3,.44,1.46.89,2.93,1.34,4.39.18.59,1.12.34.93-.26-.45-1.46-.9-2.92-1.36-4.38-.3-.95-.38-2.24-1.3-2.77a.07.07,0,0,0-.08,0Z"/><path class="cls-10" d="M91.87,55.64a10,10,0,0,0,1.91-3.24c.42-1.07,1.09-2.5.79-3.66a.3.3,0,0,0-.54-.07c-.64.88-.71,2.24-1.09,3.27s-1,2.3-1.46,3.47c-.09.22.24.4.39.23Z"/><path class="cls-10" d="M93.65,48.86a47.53,47.53,0,0,0,4.77-.18L98,48.32v0a.3.3,0,0,0,.07.55.62.62,0,0,0,.85-.5.49.49,0,0,0-.46-.61c-1.62,0-3.28.07-4.89.28-.51.07-.35.85.12.87Z"/><path class="cls-10" d="M98.35,48.19c-.8.57-.31,1.88-.15,2.71a17,17,0,0,0,1.43,4.27c.28.56,1.09.07.84-.49a17.43,17.43,0,0,1-1.34-4c-.15-.8.08-2-.71-2.45,0,0,0,0-.07,0Z"/><path class="cls-10" d="M121.92,7.7a37.74,37.74,0,0,0,7.59.47.47.47,0,0,0,0-.93A37.65,37.65,0,0,0,122,7c-.34,0-.5.57-.09.66Z"/><path class="cls-10" d="M122,13.35c1.2,0,2.39,0,3.59-.08a9.86,9.86,0,0,0,3.17-.32.32.32,0,0,0,0-.62,9.91,9.91,0,0,0-3.17,0c-1.2.07-2.4.13-3.59.28-.46.06-.5.74,0,.75Z"/><path class="cls-10" d="M121.68,18.91c1.1.6,2.59.29,3.81.24s2.72.16,3.88-.39c.22-.11.12-.41-.06-.48-1.23-.48-2.81-.13-4.11-.08s-2.52-.13-3.52.52a.11.11,0,0,0,0,.19Z"/></svg>