<svg id="illustration" xmlns="http://www.w3.org/2000/svg" viewBox="0 0 198.43 135.39"><defs><style>.cls-1{fill:#8e8475;}.cls-2{fill:#fff;}.cls-3{fill:#f15a24;}.cls-4{fill:#d8ba39;}.cls-5{fill:#af9572;}.cls-6{fill:#231f20;}</style></defs><path class="cls-1" d="M73.09,6.57l8.74-2.06L90,3.65l9.18.18,11,1.85,5.36,2L118,6.26l2.9-1,2.8.35,2.1,1.77.45,2.12,3.23.66,4.21,2.14L135.82,15l2,5.13,1.45,7.14,2,7.46,4.4,11L150,53.49l3.2,4.76s-2.93-1.45-4-1.21a21.68,21.68,0,0,0-4.06,2.28s-3.24-2.8-6.08-2.38a21.92,21.92,0,0,0-5.9,2L129,57.34l3.29,3.88,2.22,4.46,1.07,4.86.08,3,5.28,8,1.61,9.85-.2,9.38-.85,3.74,6.76,3.7,6.81,2.45,6.71,1.35,2.5.31-.85,1.52-3.37,1.23h-6.8l-5.67-.94-6.65-2.08-6.78-3.63-2.45,1.69L127,111.55l-4.92,2.3-8.42,2.41-8.11.38-6.12-1L91.94,113l-5.87-4.52-1.45.08-.93,1.6-.14,2.25,1.6,4.28.92,3.63-.34,1.7-1.8,2.39-1.31,1.79-.29,1.15-2.6.41L77,129l-4.52.37-1.62,1.52-3.25-1.21-3,.08-3.8-.81-3.37-10.69-1.51-11V94.89l1.89-7,2.62-7.45,1.44-3.35s-1.66-1.67,1.25-4.29a4.71,4.71,0,0,1,5.77-.68l1.15-.77H74.6l-.24-2.21.82-2.93,2.88-.89,3.94.5,4.28-6.58-17.21,2H61.94l-1.45-.76L57.85,59l-1-2,0-1.45-1.24-.72-.92-1.22-.26-1.37.35-1.41-1.21-1.15-1.28-1.3L53,47.4l.57-2.16,8-.08L61.94,44l2.34-1.59,7.24-.37,27.56-1.16.08-1.75-.72-3.95-.76-2.52-13.21-4-7.93-.27-5-2.91-3.18.17-1-1.05,2.64-1.32,5.38-2.69-.43-.88-2.52-.43-3.91.43L65,21.51l-2.88,2-3.5,3.3-3.67,4-4.34,4.36-3.13,2.33L45,38.85l-4.32,1-4.2-.45-2.89-1.4-2.79-3.5-1.14-4.34V24.57l.69-4.8.93-4,1.12-3.42-.08-2.15L33.93,10l6.33,2.58,2.23,1.61L42,16.21l-1.75.15-1.9,1.39-2.48,3.84L33.54,25.9l.39,4.31,3,3.43,4.46.56,5.11-3.26,5-7.43,2.77-5.13L61,10.75,65.7,8.4l2.64-1.63Z"/><polygon class="cls-2" points="76.74 18.7 79.13 18.46 80.66 18.97 82.65 20.09 79.13 24.85 72.71 29.74 65.64 33.02 57.7 34.55 62.68 32.13 70.17 26.97 74.88 22.01 76.74 18.7"/><polygon class="cls-2" points="68.45 19.77 67.56 21.84 65.77 24.08 63.53 26.14 61.53 27.7 60.11 28.66 63.53 27.7 66.51 26.81 66.87 26.14 66.51 24.85 69.36 23.63 73.31 21.71 75.31 20.65 74.08 19.47 71.21 19.47 68.45 19.77"/><path class="cls-2" d="M97.41,16.67a3.45,3.45,0,0,1,3.53-3.56c3.6-.09,3.52,5.14,3.52,5.14l-3.61-1.51Z"/><polygon class="cls-2" points="53.56 45.24 60.11 45.17 60.49 47.05 59.01 49.44 60.49 50.19 61.11 52.18 60.49 53.87 61.94 54.17 63.53 55.94 63.36 57.92 61.94 59.81 60.49 60.46 57.85 58.98 56.86 56.94 56.84 55.48 55.6 54.77 54.28 52.98 54.77 50.77 53.56 49.62 52.99 47.4 52.99 46.1 53.56 45.24"/><polygon class="cls-2" points="60.81 128.97 59.88 126.63 60.44 124.3 62.03 123.69 64.18 124.06 65.98 125.51 67.01 126.73 68.33 126.39 69.07 126.12 71.11 126.73 72.61 125.12 74.53 125.12 76.56 125.12 79.37 127.06 78.32 128.31 75.96 129.42 73.7 130.07 72.08 129.95 71.3 130.5 69.63 130.5 67.61 129.7 64.18 129.94 61.94 129.78 60.81 128.97"/><path class="cls-3" d="M87.7,114.34s4.28,5.53,16.54,6.24,26.36-5.28,26.36-5.28l.52,12.3s-10.4,4.23-20.31,4.71S89,128.22,89,128.22Z"/><path class="cls-4" d="M90.73,112.33a28.28,28.28,0,0,0,14.86,4.31c9,.16,19.78-4.31,19.78-4.31l5.23,2v1s-11.38,5.61-21.58,5.52-18.8-3-21.32-6.48l.78-1.15Z"/><path class="cls-5" d="M81.92,6.65l.08.11a.27.27,0,0,0,.46-.19A.27.27,0,0,0,82,6.38l-.08.1a.12.12,0,0,0,0,.17Z"/><path class="cls-5" d="M82.43,6.56a77.08,77.08,0,0,1,11-1.14,97.13,97.13,0,0,1,10.21.84c.4,0,.47-.59.09-.69A42.39,42.39,0,0,0,82.29,6a.27.27,0,0,0,.14.52Z"/><path class="cls-5" d="M123.43,12.16c3.83-.79,7.39.09,10,3.12,2.13,2.47,2.76,5.58,4.36,8.32.06.11.27.07.26-.07-.92-6.84-7.11-14.87-14.75-11.84a.24.24,0,0,0,.13.47Z"/><path class="cls-5" d="M119,7.27a4.62,4.62,0,0,1,5.13.79c.34.33.87-.2.52-.52a5.08,5.08,0,0,0-5.88-.8c-.28.16-.09.67.23.53Z"/><path class="cls-5" d="M33.7,11.08a.83.83,0,0,1,.87.07c.18.13.25.27.49.29a.19.19,0,0,0,.16-.1c.22-.38-.22-.72-.54-.85a1.26,1.26,0,0,0-1.26.12.27.27,0,0,0,.28.47Z"/><path class="cls-5" d="M40.17,13.77a2.92,2.92,0,0,0,1.48.86.28.28,0,0,0,.24-.41,2.9,2.9,0,0,0-1.47-.88c-.24-.1-.45.27-.25.43Z"/><path class="cls-5" d="M52.35,23.83c.44-.84.84-1.71,1.26-2.57a9.11,9.11,0,0,0,1-2.34c0-.18-.19-.36-.34-.2A8.85,8.85,0,0,0,53.09,21c-.41.87-.84,1.72-1.22,2.6-.13.32.31.6.48.28Z"/><path class="cls-5" d="M55.65,18.19c.7-.76,1.4-1.51,2.08-2.28a11.09,11.09,0,0,0,1.73-2.21c.07-.14-.08-.34-.24-.23a10.8,10.8,0,0,0-1.89,2c-.66.79-1.3,1.61-1.93,2.43-.13.17.09.42.25.25Z"/><path class="cls-5" d="M60.43,13.48A15.79,15.79,0,0,1,71.72,7c.35,0,.37-.59,0-.57A14.56,14.56,0,0,0,60,13.25c-.16.26.22.46.4.23Z"/><path class="cls-5" d="M53.13,21.84c-1.85,4.15-4.17,8-7.94,10.72C41.07,35.49,35,36,33,30.4c-.15-.4-.86-.39-.8.1.52,5.09,6.72,6,10.55,4.26,5-2.21,9.2-7.59,10.73-12.78.06-.2-.25-.34-.33-.14Z"/><path class="cls-5" d="M32.93,30.89a14.49,14.49,0,0,1,4.59-13.81c.12-.11,0-.34-.19-.24A13.46,13.46,0,0,0,32.43,31a.26.26,0,0,0,.5-.14Z"/><path class="cls-5" d="M97.15,30.53c3.62,1.82,11.15-1,12.68-4.72.17-.43-.37-.68-.7-.53-2.08.91-3.59,2.6-5.81,3.4-2,.71-4.1.53-6.07,1.15a.39.39,0,0,0-.1.7Z"/><path class="cls-5" d="M133.84,76c1.48,2.94,3.58,5.28,4.7,8.45a23.86,23.86,0,0,1,1.23,9.59c-.06.76,1.12.76,1.18,0,.43-5.93-1.27-14.93-6.8-18.36-.2-.12-.41.12-.31.32Z"/><path class="cls-5" d="M75.81,77.19a21.8,21.8,0,0,1,10.07-6,20,20,0,0,1,5.45-.71c1.72,0,3.46.7,5.13.35a.62.62,0,0,0,.28-1c-2.7-2.33-8.59-1.15-11.66-.14a18.73,18.73,0,0,0-9.68,7.24c-.16.24.21.52.41.31Z"/><path class="cls-5" d="M85.31,81.2a21.26,21.26,0,0,1,5.69-2c1.76-.34,3.59-.19,5.31-.61a.33.33,0,0,0,0-.64c-3.57-1.1-8.29.94-11.32,2.75a.31.31,0,0,0,.32.54Z"/><path class="cls-5" d="M65.8,73.15c-2.22-.34-4.72,2.57-3.49,4.62a.32.32,0,0,0,.6-.16,5.65,5.65,0,0,1,.64-2.49,3.71,3.71,0,0,1,2.25-1.49c.22-.06.26-.44,0-.48Z"/><path class="cls-5" d="M61.77,78.5a56,56,0,0,0-3.4,13.87c-.6,4.34-1.3,9.13-.73,13.49a.52.52,0,0,0,1,0c.54-4.68.36-9.41,1-14.1.64-4.42,1.74-8.74,2.55-13.13a.25.25,0,0,0-.49-.13Z"/><path class="cls-5" d="M75.52,68.71A3.69,3.69,0,0,1,76.89,67c.54-.4,1.3-.46,1.77-.92a.56.56,0,0,0-.24-.92c-.84-.24-1.77.52-2.33,1.09A4.63,4.63,0,0,0,75,68.56a.29.29,0,0,0,.57.15Z"/><path class="cls-5" d="M62.18,46.59c2.5,0,5,0,7.48-.07,2.16-.1,4.58.12,6.64-.58a.35.35,0,0,0,0-.67c-2.12-.49-4.48-.05-6.64.07-2.51.13-5,.43-7.48.66a.3.3,0,0,0,0,.59Z"/><path class="cls-5" d="M75.79,46.45a4.69,4.69,0,0,1,1.89-.78c.6-.09,1.26.18,1.82,0a.42.42,0,0,0,.19-.7c-.56-.52-1.5-.33-2.19-.15a4.12,4.12,0,0,0-2,1.22c-.2.22.06.61.34.43Z"/><path class="cls-5" d="M94.63,45.44c2.52-.44,5-1.09,7.49-1.65.8-.18.46-1.44-.33-1.23-2.47.67-5,1.25-7.39,2a.43.43,0,0,0,.23.83Z"/><path class="cls-5" d="M79.94,42.91l5.84-.39A20.44,20.44,0,0,0,90.91,42c.37-.13.45-.76,0-.84a20.08,20.08,0,0,0-5.13.17l-5.84.46c-.75.06-.76,1.23,0,1.17Z"/><path class="cls-5" d="M55.26,46.51c.61,0,1.21,0,1.82-.09a5.14,5.14,0,0,0,1.66-.19c.32-.14.45-.72,0-.79a4.86,4.86,0,0,0-1.65.14c-.63.1-1.28.18-1.91.33a.31.31,0,0,0,.08.6Z"/><path class="cls-5" d="M55.83,51.53l1.62-.07a3,3,0,0,0,1.29-.18.21.21,0,0,0-.05-.38,3.08,3.08,0,0,0-1.35,0L55.83,51c-.31,0-.32.51,0,.49Z"/><path class="cls-5" d="M58.26,56.58a7.08,7.08,0,0,0,2-.43.42.42,0,0,0-.23-.81,7.12,7.12,0,0,0-1.89.73.27.27,0,0,0,.14.51Z"/><path class="cls-5" d="M61.25,127h-.19a0,0,0,0,0,0,.06h.19a0,0,0,0,0,0-.08Z"/><path class="cls-5" d="M61.06,127.05a4.27,4.27,0,0,1,1.45-1.18c.43-.15,1.09,0,1.36-.38a.21.21,0,0,0,0-.23l0-.08a.35.35,0,0,0-.32-.18,2.91,2.91,0,0,0-2.78,1.86.2.2,0,0,0,.33.19Z"/><path class="cls-5" d="M69.14,128.43a1.42,1.42,0,0,1,.8-.54,4.69,4.69,0,0,1,.84,0,.29.29,0,0,0,.14-.53c-.74-.52-1.85.18-2.25.83-.18.3.27.54.47.27Z"/><path class="cls-5" d="M73.06,128.05a1.62,1.62,0,0,1,.81-.67c.3-.11.62,0,.91-.14a.26.26,0,0,0,.06-.47,1.38,1.38,0,0,0-1.25,0,2.16,2.16,0,0,0-1,1,.28.28,0,0,0,.48.28Z"/><path class="cls-5" d="M146.89,104.41a.05.05,0,0,0,0-.1.05.05,0,0,0,0,.1Z"/><path class="cls-5" d="M141.06,107.57A17.23,17.23,0,0,0,152.12,112c1.09,0,1-1.52,0-1.65a33.1,33.1,0,0,1-10.67-3.26c-.31-.15-.67.24-.39.5Z"/><path class="cls-6" d="M118.73,8.14A69.36,69.36,0,0,0,72.25,6.39c-.52.16-.3,1,.22.81a70.64,70.64,0,0,1,46.11,1.48c.34.13.48-.41.15-.54Z"/><path class="cls-6" d="M74.35,6.26C63.76,4.34,56.56,14.24,51.68,22c-2.65,4.23-9,16-15.39,10.57-2.2-1.88-2.75-5.26-1.95-7.92,1-3.33,3.5-5.46,5.69-8,.28-.33-.11-1-.51-.65-3.9,2.95-7.63,8.15-6.31,13.28,1.28,5,6.32,6.82,10.63,4.1,2.4-1.51,4.09-4,5.64-6.32,2-3,3.82-6.24,5.86-9.28C59.61,11.5,66,5.55,74.22,6.71c.29,0,.43-.39.13-.45Z"/><path class="cls-6" d="M39.91,16.33c1.07.26,3.18.33,3.2-1.31,0-.64-.37-.9-.84-1.23a37.15,37.15,0,0,0-4.78-2.46c-1.29-.66-4-2.68-5.42-1.34s0,3.12,1.09,4a.2.2,0,0,0,.28-.29c-1-.89-.91-2.05.41-3.46a14.76,14.76,0,0,1,1.87.79c.77.36,1.53.74,2.29,1.12l2.28,1.12,1.52.74c-.07,1.71-.69,2.43-1.87,2.14a.11.11,0,0,0,0,.21Z"/><path class="cls-6" d="M32.18,12.29c-3.34,9-6.67,29.18,8.67,28,14.28-1.1,18.51-23.19,34-20.28.46.09.67-.61.2-.72C62.57,16.54,56.34,31.21,47.62,36.93c-5.51,3.61-14.38,4-16.92-3.44-2.22-6.49-.37-14.86,1.82-21.1.07-.22-.27-.31-.34-.1Z"/><path class="cls-6" d="M76.72,18.92A39.4,39.4,0,0,1,56.87,34.17c-.4.13-.36.79.11.77A32.63,32.63,0,0,0,83,20.19c.25-.39-.36-.74-.61-.36A32.49,32.49,0,0,1,57,34.15l.1.78A38.11,38.11,0,0,0,77.24,19.22c.2-.33-.3-.61-.52-.3Z"/><path class="cls-6" d="M82.91,19.79c-1.62-1.31-4.38-2.08-6.32-1-.26.14-.16.6.15.57a13.82,13.82,0,0,1,2.87-.2,7.44,7.44,0,0,1,3,1.08c.25.16.57-.22.32-.42Z"/><path class="cls-6" d="M76.62,28.77c8.19-1.32,15.35,3.64,23.24,4.69,5.41.72,11.48-.82,14.17-6,.3-.57-.56-1.07-.85-.5-3.54,6.88-12.08,6.27-18.38,4.42-6.06-1.79-11.9-4.4-18.35-3.26-.42.07-.24.7.17.63Z"/><path class="cls-6" d="M68.86,25.43c-.51.58-1,.42-1.42-.5l1.24-.61,2.17-1.07c1.53-.77,3.12-1.48,4.6-2.36.26-.15.08-.64-.22-.51-1.61.66-3.16,1.51-4.72,2.3-1.08.54-3.41,1.2-4.07,2.28a1,1,0,0,0,.16,1.33c.8.75,1.81.16,2.55-.36.29-.22,0-.71-.29-.5Z"/><path class="cls-6" d="M68.3,20.4a27.44,27.44,0,0,1-8.34,8c-.23.14-.15.59.15.55,2.37-.25,5.7-.87,7.36-2.75.1-.11,0-.32-.15-.27-1.14.36-2.12,1.08-3.24,1.5a15.93,15.93,0,0,1-4,.93l.15.55a22.55,22.55,0,0,0,8.35-8.33c.11-.2-.18-.36-.31-.18Z"/><path class="cls-6" d="M68.27,25.83a2.59,2.59,0,0,0,1.54.13,5.32,5.32,0,0,0,1.78-.17.26.26,0,0,0,0-.49,5.57,5.57,0,0,0-1.91,0,2.6,2.6,0,0,0-1.44.3.14.14,0,0,0,0,.22Z"/><path class="cls-6" d="M97.59,16.14c.64-1.74,2.41-3.18,4.34-2.47a3.34,3.34,0,0,1,2,4,.42.42,0,0,0,.81.22,4.11,4.11,0,0,0-2.85-5,3.86,3.86,0,0,0-4.63,3.28c0,.21.29.23.36.05Z"/><path class="cls-6" d="M95.63,18.22a7.84,7.84,0,0,1,10.07,2.17c.44.57,1.44,0,1-.59a7.85,7.85,0,0,0-11.34-2,.26.26,0,0,0,.26.45Z"/><path class="cls-6" d="M101.25,14a1,1,0,1,0,.35,2,1,1,0,0,0,.65-1.4,1,1,0,0,0-.59-.63c-.33-.08-.79.3-1,.54s0,.33.13.31a2.42,2.42,0,0,0,.89-.34h-.29c.5.23.49,1-.15,1-.81,0-.67-1.1,0-1.2.17,0,.13-.32,0-.31Z"/><path class="cls-6" d="M98.14,12c1.2-.21,2.38-.53,3.55-.83a9.63,9.63,0,0,0,3-1,.31.31,0,0,0-.16-.58,9.81,9.81,0,0,0-3.12.71c-1.17.33-2.34.66-3.48,1.09a.3.3,0,0,0,.16.58Z"/><path class="cls-6" d="M111.21,11.59a98.17,98.17,0,0,0,10.26-.89c3-.32,6.39-.89,9.33.21,6.83,2.57,6.95,11.66,8.35,17.64a79.68,79.68,0,0,0,14.66,31.12c.23.29.74-.09.52-.4a101.64,101.64,0,0,1-9.82-17.16,95.46,95.46,0,0,1-5.89-19.84c-1-5-2.91-10.74-8.39-12.25-2.69-.74-5.55-.33-8.27,0a102.5,102.5,0,0,0-10.79,1.31c-.18,0-.13.3,0,.3Z"/><path class="cls-6" d="M155.17,59.33a6.27,6.27,0,0,0-10.26-.12c-.14.22.17.42.35.27,3-2.7,6.5-2.64,9.34.29.28.29.8-.09.57-.44Z"/><path class="cls-6" d="M145.11,58.73c-3.48-2.71-8.75-2.92-12.13.11-.16.14.05.42.24.3,3.71-2.31,7.89-2.54,11.57,0,.24.17.56-.23.32-.41Z"/><path class="cls-6" d="M133,59c-2.75-3-7.86-2.41-10.23.72-.17.22.18.46.37.29,3-2.79,6.24-2.86,9.68-.79A.14.14,0,0,0,133,59Z"/><path class="cls-6" d="M123.33,60c-.78-3.16-5-3.2-7.41-2.15-.2.09-.1.42.11.41,2.46-.11,5.62-1.18,6.81,1.88a.26.26,0,0,0,.49-.14Z"/><path class="cls-6" d="M117.58,57.21c-2.32-6-2.17-11.93-1.69-18.29.41-5.43.6-11.12-2-16.07-.21-.39-.78,0-.6.35,2.8,5.92,2.07,12.32,1.53,18.64-.43,5.11-.63,11.12,2.52,15.49.09.12.34.05.27-.12Z"/><path class="cls-6" d="M115.65,7.8A13.61,13.61,0,0,1,121,5.58c2.51-.26,5.24,1,5.07,4a.24.24,0,0,0,.48,0,4.17,4.17,0,0,0-3.25-4.26c-2.82-.75-5.49.81-7.81,2.21a.18.18,0,0,0,.18.31Z"/><path class="cls-6" d="M97.42,32.76a35.92,35.92,0,0,1,1.24,5.41c.23,1.86,0,3.7.23,5.55a.13.13,0,0,0,.25,0c1-3.41.11-7.92-1.21-11.14-.13-.3-.6-.19-.51.14Z"/><path class="cls-6" d="M102.45,43.37A7.15,7.15,0,0,0,93.75,45a.25.25,0,0,0,.35.35,8.71,8.71,0,0,1,8.24-1.73.15.15,0,0,0,.11-.27Z"/><path class="cls-6" d="M74.24,46.26a7,7,0,0,1,7.53-.88c.24.1.37-.28.17-.41a6.67,6.67,0,0,0-8,1c-.21.21.1.5.32.32Z"/><path class="cls-6" d="M82.91,45.42l12.16-.56c.33,0,.33-.53,0-.52l-12.16.55c-.34,0-.34.55,0,.53Z"/><path class="cls-6" d="M74.88,44.63A191.94,191.94,0,0,0,53.56,45a.26.26,0,0,0,0,.52A192,192,0,0,0,74.88,45a.17.17,0,0,0,0-.33Z"/><path class="cls-6" d="M53.6,45.8c-1.56,1.72-.65,5.26,2,5.13a.16.16,0,0,0,0-.32A3.47,3.47,0,0,1,53.45,49a3,3,0,0,1,.33-3.1c.07-.11-.09-.23-.18-.14Z"/><path class="cls-6" d="M54.91,50.31c1.68.1,3.73,0,5-1.27,1-1,1.34-3,.29-4.11a.24.24,0,0,0-.4.23c.47,1.48.66,2.9-.78,3.94-1.17.85-2.71.87-4.09,1a.12.12,0,1,0,0,.24Z"/><path class="cls-6" d="M56.16,55.59c2.15.19,4.84-1,5.21-3.37.23-1.46-1.2-3.71-2.87-2.91a.19.19,0,0,0,0,.34,2.67,2.67,0,0,1,2,1,2.42,2.42,0,0,1-.19,2.62c-1,1.49-2.64,1.63-4.2,2-.2,0-.13.31,0,.33Z"/><path class="cls-6" d="M59.68,60.68c2.38.39,4.37-2.08,4.15-4.31-.18-1.86-2.6-3.91-4.34-2.44a.2.2,0,0,0,.14.35c1.78,0,3.56.47,3.57,2.66s-1.86,2.89-3.52,3.57c-.07,0-.1.16,0,.17Z"/><path class="cls-6" d="M61.53,61.4c6.06.35,12.18-.67,18.18-1.3,5.63-.6,11.54-.78,17.07-2,.28,0,.22-.49-.06-.49-5.79.05-11.74,1.18-17.49,1.83S67.46,61,61.53,61c-.29,0-.29.44,0,.45Z"/><path class="cls-6" d="M95.74,57.32c3.42,2,9.11,1.48,12-1.29.13-.11,0-.28-.17-.22a17.08,17.08,0,0,1-6,2A18.34,18.34,0,0,1,95.89,57a.2.2,0,0,0-.15.37Z"/><path class="cls-6" d="M86.45,58.85A16.59,16.59,0,0,0,81,69.16c0,.28.41.32.49.06a23.89,23.89,0,0,1,5.15-10.15.16.16,0,0,0-.23-.22Z"/><path class="cls-6" d="M101.7,66.77c-5-1.93-11.4-1-16.27.84s-9.72,5-12.52,9.4a.21.21,0,0,0,.33.25C77,73.21,81,69.92,86.33,68.13s10-1.38,15.3-.85c.32,0,.33-.42.07-.51Z"/><path class="cls-6" d="M78.06,71.41c-2.72-.21-5.5-.25-8.23-.22a.28.28,0,0,0,0,.56c2.73.13,5.5.18,8.23.06a.2.2,0,0,0,0-.4Z"/><path class="cls-6" d="M69.87,72.44c-3.88-2.51-9.42.87-8.39,5.57a.19.19,0,0,0,.38-.05c0-4.33,3.75-7.18,7.86-5.27a.15.15,0,0,0,.15-.25Z"/><path class="cls-6" d="M61.78,76.88a63.75,63.75,0,0,0-6.23,26c-.19,8.73,1.13,18.35,5,26.27a.31.31,0,0,0,.56-.24c-2.83-8.44-4.9-16.61-4.76-25.61A66.73,66.73,0,0,1,62.1,77.07c.1-.21-.21-.41-.32-.19Z"/><path class="cls-6" d="M60.58,126.67c-.7-1.55.55-2.76,2.14-2.61a5.3,5.3,0,0,1,2.84,1.51,10.58,10.58,0,0,1,2.6,4.26c.06.17.37.17.35-.05-.29-2.81-2.75-6-5.71-6.39A2.63,2.63,0,0,0,60,124.67a1.68,1.68,0,0,0,.36,2.22c.15.12.28-.09.23-.22Z"/><path class="cls-6" d="M66.9,127.23a3.8,3.8,0,0,1,3.33-.67,3.37,3.37,0,0,1,2.12,2.53c.08.33.58.19.51-.14-.57-2.61-4.18-4.32-6.14-2-.11.13,0,.33.18.24Z"/><path class="cls-6" d="M71,127.83a4.58,4.58,0,0,1,8.27.19c.15.28.63.09.51-.21a4.89,4.89,0,0,0-9.09-.11c-.08.18.22.3.31.13Z"/><path class="cls-6" d="M80,127.06c0-2.67,3.85-2.85,3.89-5.58a12.3,12.3,0,0,0-.92-3.56c-.52-1.66-1-3.32-1.51-5-1.27-4.06-2.67-10.27-7.6-11.32-.43-.09-.77.56-.32.76,5.37,2.42,6.28,8.39,8,13.47.4,1.19.8,2.39,1.19,3.59s.9,2.32-.16,3.67a8.08,8.08,0,0,1-1.46,1.12,3.17,3.17,0,0,0-1.56,2.82.22.22,0,0,0,.44,0Z"/><path class="cls-6" d="M79.52,108.57a6.22,6.22,0,0,1,2.34-1.34c.75-.22,1.5-.11,2.25-.26.27,0,.2-.4,0-.48-1.61-.65-3.87.58-4.89,1.79a.21.21,0,0,0,.3.29Z"/><path class="cls-6" d="M82.23,106.49a37.17,37.17,0,0,0,23,10.6c8.25.66,18.78-1.5,24.84-7.54a.2.2,0,0,0-.23-.31c-4,2.09-7.56,4.35-11.94,5.59a36.59,36.59,0,0,1-12.27,1.34A37.1,37.1,0,0,1,82.7,106a.33.33,0,0,0-.47.47Z"/><path class="cls-6" d="M128.07,111.76c2.67-.46,6-2,7.48-4.43a.18.18,0,0,0-.24-.24c-1.13.75-2.08,1.73-3.24,2.44a19.54,19.54,0,0,1-4.11,1.81.22.22,0,0,0,.11.42Z"/><path class="cls-6" d="M129.36,58a26.66,26.66,0,0,1,6.17,14.14c0,.16.25.1.26,0a17.7,17.7,0,0,0-6.12-14.41.22.22,0,0,0-.31.31Z"/><path class="cls-6" d="M133,70.63c3.43,4.92,6.53,9.56,8.08,15.45s1.25,11.48.51,17.43c0,.26.36.28.43.06,3.53-10.51-.2-25.89-8.75-33.15-.14-.12-.39,0-.27.21Z"/><path class="cls-6" d="M140.32,104.06A46.47,46.47,0,0,0,151.63,110a47.8,47.8,0,0,0,6.53,1.79c1.11.22,2.23.4,3.35.54.78.1,2.44,0,2.5.57.11,1-2.62,1.7-3.37,1.86a15.61,15.61,0,0,1-3.48.32,40.51,40.51,0,0,1-7.77-.82A47.24,47.24,0,0,1,135,108.77a.34.34,0,0,0-.34.58,45.08,45.08,0,0,0,17.26,5.86c4.39.53,10.18,1.18,13.23-2.76.12-.16,0-.36-.21-.37a51.84,51.84,0,0,1-24.37-8.5c-.29-.19-.56.28-.27.48Z"/><path class="cls-6" d="M99.78,40.43c-9.32.23-18.63.91-27.94,1.27-2.32.09-4.68.07-7,.29-1,.1-2.34.13-3.1,1a1.77,1.77,0,0,0,.57,2.94c.27.1.42-.31.19-.45L63.43,43a17.77,17.77,0,0,1,1.92-.17l2-.1,4.49-.28c3.16-.19,6.32-.35,9.48-.5,6.15-.31,12.32-.54,18.46-1,.31,0,.32-.5,0-.49Z"/><path class="cls-6" d="M54.69,50.35c-1.33,1.86-.15,5.39,2.39,5.37a.25.25,0,0,0,.13-.47,4.29,4.29,0,0,1-2.05-1.48,3.26,3.26,0,0,1,0-3.15.27.27,0,0,0-.46-.27Z"/><path class="cls-6" d="M56.66,55.43c-.85,2.7,1.91,5.5,4.56,5.23a.32.32,0,0,0,0-.64,4.27,4.27,0,0,1-3.15-1.26,4.65,4.65,0,0,1-1-3.27.19.19,0,0,0-.37-.06Z"/><path class="cls-6" d="M66,73.17c-1.72.61-3.46,2.5-3.11,4.46a.24.24,0,0,0,.46,0,6.59,6.59,0,0,1,.72-2.25,4.11,4.11,0,0,1,2.09-1.65c.35-.12.2-.69-.16-.56Z"/><path class="cls-6" d="M60.17,129.09a7.77,7.77,0,0,0,8.6,0c.23-.18,0-.55-.28-.47a14,14,0,0,1-4,1,13.51,13.51,0,0,1-4.07-.86c-.2-.05-.4.23-.21.38Z"/><path class="cls-6" d="M67.45,129.86c1.42,1.32,4.12,1.37,5.32-.3.18-.26-.19-.65-.45-.45-1.42,1.09-3,1.47-4.59.4-.22-.15-.46.18-.28.35Z"/><path class="cls-6" d="M72,129.94a8.66,8.66,0,0,0,8.45-3.16c.2-.28-.23-.59-.47-.36a9.68,9.68,0,0,1-7.91,3,.26.26,0,0,0-.07.5Z"/><path class="cls-6" d="M82.47,127.34c.87-3.11,4.23-4.25,3.86-7.82-.39-3.89-4.74-7.92-.87-11.39.17-.16,0-.38-.23-.3-2.85,1.24-2.17,4.8-1.21,7.09a23.29,23.29,0,0,1,1.55,3.85c.46,2-.33,3.6-1.59,5.1-.91,1.07-1.76,2-1.79,3.43a.14.14,0,0,0,.28,0Z"/><path class="cls-6" d="M82.25,126.94a3.3,3.3,0,0,1-1.38.51,8.35,8.35,0,0,0-1.22,0c-.28.06-.26.4-.07.55a1.93,1.93,0,0,0,1.53,0,3.07,3.07,0,0,0,1.37-.77c.15-.15,0-.42-.23-.3Z"/><path class="cls-6" d="M82.31,65.82a6.55,6.55,0,0,0-6.63,0c-1.83,1.3-2,3.61-1.24,5.57a.17.17,0,0,0,.33,0c0-2-.41-4.06,1.66-5.14,1.92-1,3.82,0,5.8-.09a.17.17,0,0,0,.08-.32Z"/><path class="cls-6" d="M69.39,112.22a24.93,24.93,0,0,1-5.24-22.79.39.39,0,0,0-.76-.21,26.77,26.77,0,0,0,5.36,23.64c.37.44,1-.2.64-.64Z"/><path class="cls-6" d="M83.43,81.33A16.46,16.46,0,0,1,93,77.51c3.77-.16,6.57,1.36,9.82,2.95a.36.36,0,0,0,.44-.57C97.94,74.57,88.06,76,83.17,81c-.15.16.06.48.26.33Z"/><path class="cls-6" d="M86.1,98.06c4.16,5.43,12.11,8.11,18.42,4.7a.48.48,0,0,0-.37-.88c-3.32.92-6.4,1.52-9.83.66a16.43,16.43,0,0,1-7.89-4.74c-.16-.17-.48.06-.33.26Z"/><path class="cls-6" d="M138.2,77.5a26.72,26.72,0,0,0-3.79,4c-.16.2.16.38.32.25a26.23,26.23,0,0,0,3.82-3.85.25.25,0,0,0-.35-.35Z"/><path class="cls-6" d="M140.81,82.72a26.68,26.68,0,0,1-6.39,4.18c-.19.1-.06.38.14.34A12.56,12.56,0,0,0,141.08,83c.16-.18-.09-.45-.27-.27Z"/><path class="cls-6" d="M141.37,88.27a34,34,0,0,0-5.46,3.61c-.24.21.06.54.32.42a34,34,0,0,0,5.44-3.64c.23-.17-.06-.52-.3-.39Z"/><path class="cls-6" d="M141.66,92.64c-1,.42-1.95,1-2.91,1.45A9.22,9.22,0,0,0,136,95.74c-.09.1,0,.33.13.31a8,8,0,0,0,2.61-1.16c1.06-.57,2.15-1.1,3.15-1.76.24-.15.09-.61-.21-.49Z"/><path class="cls-6" d="M64.75,8.21c-1.33.55-1.27,3.53.15,3.95a.22.22,0,0,0,.25-.33c-.3-.61-.74-1-.76-1.71S64.75,9,65,8.46a.2.2,0,0,0-.24-.25Z"/><path class="cls-6" d="M60.17,11.86A2.76,2.76,0,0,0,59.82,14c.14.6.51,1.45,1.18,1.53.14,0,.24-.15.21-.27-.14-.53-.64-.87-.8-1.42A3,3,0,0,1,60.52,12c.08-.21-.23-.32-.35-.15Z"/><path class="cls-6" d="M55.18,17a2.42,2.42,0,0,0,1,3,.29.29,0,0,0,.29-.5,2.26,2.26,0,0,1-.91-2.31c0-.23-.31-.44-.43-.18Z"/><path class="cls-6" d="M51.39,22.4A2.55,2.55,0,0,0,51.76,24a2.3,2.3,0,0,0,1.17,1.07.24.24,0,0,0,.23-.4,8.5,8.5,0,0,1-1-1,4.17,4.17,0,0,1-.54-1.31c0-.15-.23-.1-.24,0Z"/><path class="cls-6" d="M48.66,27.62a1.41,1.41,0,0,0,0,1.67c.28.43.94.93,1.46.63a.22.22,0,0,0,0-.37c-.36-.18-.7-.17-1-.52a1.28,1.28,0,0,1-.23-1.26.15.15,0,0,0-.26-.15Z"/><path class="cls-6" d="M45.32,32.13a7.3,7.3,0,0,0,.17,2.14A.25.25,0,0,0,46,34.2a7.2,7.2,0,0,0-.38-2.1.14.14,0,0,0-.27,0Z"/><path class="cls-6" d="M41.47,33.87a2.08,2.08,0,0,0-.63,1.45c0,.45.09,1.07.55,1.27.12,0,.25-.08.25-.19,0-.37-.24-.69-.25-1.08a2,2,0,0,1,.41-1.19c.15-.2-.17-.42-.33-.26Z"/><path class="cls-6" d="M37.24,34.06a1.9,1.9,0,0,0-.71,1.32c-.05.44,0,1.21.44,1.43a.21.21,0,0,0,.31-.18c0-.36-.19-.72-.19-1.1a2.77,2.77,0,0,1,.38-1.23c.07-.14-.09-.35-.23-.24Z"/><path class="cls-6" d="M35.42,32.37c-.68,0-1.85.64-1.51,1.49a.2.2,0,0,0,.33.08,7.74,7.74,0,0,0,.42-.68,1.63,1.63,0,0,1,.81-.58.16.16,0,0,0,0-.31Z"/><path class="cls-6" d="M33.61,28.49a1.8,1.8,0,0,0-1.23-.15c-.37.09-.85.31-.93.71a.21.21,0,0,0,.25.25c.28-.08.46-.3.72-.42a1.76,1.76,0,0,1,1.08-.14c.14,0,.25-.18.11-.25Z"/><path class="cls-6" d="M34,24.71c-.52-.08-1.24-.23-1.67.11-.09.07,0,.19,0,.25.41.31,1.16.15,1.64.08a.23.23,0,0,0,0-.44Z"/><path class="cls-6" d="M35.23,21.42a8.58,8.58,0,0,0-2.32.22.25.25,0,0,0,.06.49,8.58,8.58,0,0,0,2.3-.38.17.17,0,0,0,0-.33Z"/><path class="cls-6" d="M36.73,18.82l-1.12.05a1.36,1.36,0,0,0-.85.16.2.2,0,0,0,0,.33,1.28,1.28,0,0,0,.82,0l1.2-.19c.21,0,.16-.37-.05-.36Z"/><path class="cls-6" d="M39.2,16A4.58,4.58,0,0,0,38,16a4.15,4.15,0,0,0-1.17.11c-.17.05-.2.33,0,.37a4.17,4.17,0,0,0,1.17,0,4.57,4.57,0,0,0,1.17-.13c.15,0,.17-.29,0-.32Z"/><path class="cls-6" d="M35.74,11.39a3.52,3.52,0,0,0,4.61,2.31c.18-.08,0-.39-.14-.33A3.3,3.3,0,0,1,36,11.31c-.06-.18-.34-.11-.28.08Z"/><path class="cls-6" d="M36.3,11.76a4.43,4.43,0,0,0,2,1.51,2.72,2.72,0,0,0,2.11.24.17.17,0,0,0,0-.29,12.92,12.92,0,0,0-1.79-.39,5.9,5.9,0,0,1-2-1.27c-.13-.11-.37,0-.25.2Z"/><path class="cls-6" d="M37.19,11.77a10.57,10.57,0,0,0,1.75.87,6.38,6.38,0,0,0,1.64.65c.15,0,.33-.17.17-.29a6,6,0,0,0-1.51-.72,10.76,10.76,0,0,0-2-.73.12.12,0,0,0-.09.22Z"/><path class="cls-6" d="M91,112.6l-2.5.13c-.29,0-.29.47,0,.44L91,113c.25,0,.25-.4,0-.39Z"/><path class="cls-6" d="M89.72,113.06c-.67,0-1.34,0-2,0a.15.15,0,0,0-.15.16c.29,4.71.39,9.57,1.12,14.24,0,.25.44.19.44-.06,0-2.83-.44-5.69-.69-8.51-.11-1.24-.37-2.54-.36-3.78,0-1.58.27-1.75,1.68-1.95.07,0,.05-.11,0-.12Z"/><path class="cls-6" d="M88.9,128.45c13.12,6.06,28.67,5.6,41.79-.21.58-.26.08-1.12-.51-.86C117,133.23,102.45,133,89.11,128c-.29-.11-.49.37-.21.5Z"/><path class="cls-6" d="M131.29,127.68a75.24,75.24,0,0,0-.28-13.34c0-.52-.86-.54-.82,0,.31,4.44.43,8.88.61,13.34a.25.25,0,0,0,.49,0Z"/><path class="cls-6" d="M130.42,113.74a4.51,4.51,0,0,0-3.61-1.68c-.3,0-.23.46,0,.54.57.21,1.19.23,1.76.48a9.11,9.11,0,0,1,1.55,1c.18.12.44-.12.3-.3Z"/><path class="cls-6" d="M89.06,115.79c5,3.86,12.37,5.33,18.51,5.56,6.67.25,13.76-1,19.62-4.33.26-.15.08-.63-.22-.51a47,47,0,0,1-19,3.83,44.86,44.86,0,0,1-9.79-1.44c-3.15-.81-6-2.24-9-3.34a.14.14,0,0,0-.13.23Z"/><path class="cls-6" d="M94.51,121.67a30,30,0,0,0-.55,5.25c0,.16.26.2.29,0a29.72,29.72,0,0,0,.44-5.26c0-.1-.16-.13-.18,0Z"/><path class="cls-6" d="M98.28,122.69c0,.87,0,1.74.09,2.62a8,8,0,0,0,.23,2.29c.05.13.28.16.31,0a8.6,8.6,0,0,0-.08-2.48c-.07-.83-.13-1.65-.26-2.47,0-.17-.28-.12-.29,0Z"/><path class="cls-6" d="M105.22,123.69c0,1.61,0,3.25.22,4.86,0,.3.5.32.5,0,0-1.62-.2-3.26-.36-4.86a.18.18,0,0,0-.36,0Z"/><path class="cls-6" d="M111.46,124.06c.1.86.2,1.72.31,2.58a7.38,7.38,0,0,0,.38,2c.09.21.35.07.37-.1a7.8,7.8,0,0,0-.23-2.14c-.13-.8-.26-1.6-.41-2.4,0-.24-.44-.18-.42.06Z"/><path class="cls-6" d="M118.65,123.43a17.23,17.23,0,0,0,.27,2.13,7.28,7.28,0,0,0,.44,2.08c.09.17.31.07.33-.09a7,7,0,0,0-.27-2,20.31,20.31,0,0,0-.47-2.19c0-.16-.31-.14-.3,0Z"/><path class="cls-6" d="M126,121.94a35.26,35.26,0,0,0,.07,4.48.3.3,0,0,0,.6,0,35.35,35.35,0,0,0-.29-4.48.19.19,0,0,0-.38,0Z"/><path class="cls-6" d="M127.62,122.1c.08.53.15,1.06.22,1.59,0,.37,0,.72.28,1a.19.19,0,0,0,.29,0,1.68,1.68,0,0,0-.1-1.12c-.12-.51-.24-1-.35-1.52-.06-.22-.36-.12-.34.09Z"/><path class="cls-6" d="M80.38,128.19a50.76,50.76,0,0,0,8.54-.41c.24,0,.17-.4-.06-.42a51.25,51.25,0,0,0-8.48.45.19.19,0,0,0,0,.38Z"/><path class="cls-6" d="M131.12,127.75c5.68.46,11.45.2,17.14.2s11.46.25,17.14,0a.31.31,0,0,0,0-.62c-5.69-.3-11.44-.05-17.14,0s-11.46-.25-17.14.2a.15.15,0,0,0,0,.3Z"/><path class="cls-6" d="M60.44,128.53c-9.75-.85-19.76-.85-29.54-1-.4,0-.39.6,0,.62,9.77.47,19.76,1.13,29.54.92a.27.27,0,0,0,0-.53Z"/></svg>