<?xml version="1.0" encoding="utf-8"?>
<!-- Generator: Adobe Illustrator 24.1.2, SVG Export Plug-In . SVG Version: 6.00 Build 0)  -->
<svg version="1.1" id="Layer_1" xmlns="http://www.w3.org/2000/svg" xmlns:xlink="http://www.w3.org/1999/xlink" x="0px" y="0px"
	 viewBox="0 0 22.8 23.9" style="enable-background:new 0 0 22.8 23.9;" xml:space="preserve">
<style type="text/css">
	.st0{opacity:0.5;fill:#6E6E6E;enable-background:new    ;}
</style>
<path d="M37.4,23.3l-1.7-1.7c4-4.7,8.4-8.9,13.3-12.7c-3.5,0.9-7.1,1.4-10.7,1.7V7.9c0.5,0,1,0,1.5,0c1.8-0.1,3.5-0.3,5.2-0.6
	c2-0.4,4-0.9,5.9-1.6c0.1,0,0.2,0,0.3,0c0.7,0.8,1.3,1.7,2,2.5c-0.5,0.4-1,0.7-1.5,1.1c-1.8,1.4-3.5,2.9-5.3,4.4
	c-0.2,0.2-0.4,0.4-0.6,0.7c0.4-0.1,0.7-0.2,1-0.2c1-0.3,1.9,0.3,2.2,1.2c0,0.2,0.1,0.3,0.1,0.5c0.1,1.2,0.2,2.3,0.3,3.5
	c0,0.5,0,0.9,0,1.4c0,0.3,0.2,0.5,0.4,0.6c0.5,0.2,1,0.3,1.5,0.3c1.2,0,2.4-0.1,3.5-0.3c0.8-0.1,1.6-0.3,2.4-0.5h0.2
	c0,0.1,0,0.1,0,0.2c0,0.8,0,1.6,0,2.3c0,0.2-0.1,0.3-0.2,0.3c-0.6,0.1-1.2,0.1-1.8,0.2c-1.9,0-3.8,0-5.7-0.1c-0.2,0-0.4,0-0.6,0
	c-0.8,0-1.5-0.4-1.9-1.1c-0.3-0.7-0.5-1.4-0.4-2.2c0.1-1,0.1-2,0.1-3c0-0.4-0.3-0.8-0.7-0.8c0,0-0.1,0-0.1,0c-0.8,0-1.6,0.2-2.3,0.6
	c-1.1,0.6-2.2,1.4-3.1,2.3c-1.1,1.1-2.1,2.3-3.1,3.6L37.4,23.3z"/>
<path class="st0" d="M2.2,23.3l-1.7-1.7c4-4.7,8.4-8.9,13.3-12.7c-3.5,0.8-7.1,1.4-10.7,1.7V7.9c0.5,0,1,0,1.5,0
	C6.3,7.8,8,7.6,9.8,7.3c2-0.4,4-0.9,5.9-1.6c0.1,0,0.2,0,0.3,0c0.7,0.8,1.3,1.7,2,2.5c-0.5,0.4-1,0.7-1.5,1.1
	c-1.8,1.4-3.5,2.9-5.3,4.4c-0.2,0.2-0.4,0.4-0.6,0.7c0.4-0.1,0.7-0.2,1-0.2c1-0.3,1.9,0.3,2.2,1.2c0,0.2,0.1,0.3,0.1,0.5
	c0.1,1.2,0.2,2.3,0.3,3.5c0,0.5,0,0.9,0,1.4c0,0.3,0.2,0.5,0.4,0.6c0.5,0.2,1,0.3,1.5,0.3c1.2,0,2.4-0.1,3.5-0.3
	c0.8-0.1,1.6-0.3,2.4-0.5h0.2c0,0.1,0,0.1,0,0.2c0,0.8,0,1.6,0,2.3c0,0.2-0.1,0.3-0.2,0.3c-0.6,0.1-1.2,0.1-1.8,0.2
	c-1.9,0-3.8,0-5.7-0.1c-0.2,0-0.4,0-0.6,0c-0.8,0-1.5-0.4-1.9-1.1c-0.3-0.7-0.5-1.4-0.4-2.2c0.1-1,0.1-2,0.1-3
	c0-0.4-0.3-0.8-0.7-0.8c0,0-0.1,0-0.1,0c-0.8,0-1.6,0.2-2.3,0.6c-1.1,0.6-2.2,1.4-3.1,2.3c-1.1,1.1-2.2,2.3-3.1,3.6L2.2,23.3z"/>
<path d="M41.7,3.3L42.1,1c3.1,0.6,6.3,0.8,9.4,0.7v2.2C48.2,4,44.9,3.8,41.7,3.3z"/>
<path d="M15.8,3.9C12.6,4,9.3,3.8,6.1,3.3L6.4,1c3.1,0.6,6.3,0.8,9.4,0.7L15.8,3.9z"/>
</svg>
