<svg xmlns="http://www.w3.org/2000/svg" viewBox="0 0 198.43 40.27"><defs><style>.cls-1{fill:#6e6e6e;opacity:0.5;}.cls-2,.cls-3{fill:#fff;}.cls-2{opacity:0.74;}.cls-3{opacity:0.82;}.cls-3,.cls-4{font-size:137.4px;font-family:UDDigiKyokashoNK-R, UD Digi Kyokasho NK-R;}.cls-4{fill:none;stroke:#fff;stroke-miterlimit:10;stroke-width:0.5px;}</style></defs><g id="carracters"><path d="M167.85,31l-1.74-1.73a90.52,90.52,0,0,1,13.3-12.66,65.9,65.9,0,0,1-10.66,1.68V15.58c.5,0,1,0,1.47,0a33.85,33.85,0,0,0,5.21-.63,46,46,0,0,0,5.89-1.56.3.3,0,0,1,.25,0c.67.84,1.33,1.69,2,2.54-.5.37-1,.71-1.48,1.09-1.77,1.44-3.54,2.89-5.29,4.35a4.48,4.48,0,0,0-.55.7c.36-.08.67-.17,1-.21a1.79,1.79,0,0,1,2.27,1.72c.13,1.16.19,2.34.25,3.51,0,.47,0,.94,0,1.41a.64.64,0,0,0,.41.6,3.48,3.48,0,0,0,1.53.29,18.89,18.89,0,0,0,3.53-.27c.82-.13,1.62-.34,2.42-.52l.16,0c0,.08,0,.14,0,.21,0,.78,0,1.56,0,2.34,0,.17-.05.25-.21.26a15.14,15.14,0,0,1-1.77.17c-1.91,0-3.82-.05-5.73-.09-.19,0-.39,0-.58,0a2,2,0,0,1-1.89-1.14,4.07,4.07,0,0,1-.4-2.2c.05-1,.07-2,.09-3a.74.74,0,0,0-.82-.8,5.31,5.31,0,0,0-2.34.57,12.26,12.26,0,0,0-3.09,2.3A31,31,0,0,0,168,30.81Z"/><path class="cls-1" d="M132.64,31l-1.74-1.73a89.53,89.53,0,0,1,13.3-12.66,66.07,66.07,0,0,1-10.66,1.68V15.58c.5,0,1,0,1.47,0a33.85,33.85,0,0,0,5.21-.63,45.87,45.87,0,0,0,5.88-1.56.32.32,0,0,1,.26,0c.67.84,1.33,1.69,2,2.54-.5.37-1,.71-1.48,1.09-1.77,1.44-3.54,2.89-5.29,4.35a4,4,0,0,0-.55.7c.36-.08.67-.17,1-.21a1.79,1.79,0,0,1,2.27,1.72c.13,1.16.19,2.34.25,3.51,0,.47,0,.94,0,1.41a.64.64,0,0,0,.4.6,3.55,3.55,0,0,0,1.54.29,19,19,0,0,0,3.53-.27c.81-.13,1.61-.34,2.42-.52l.16,0c0,.08,0,.14,0,.21,0,.78,0,1.56,0,2.34,0,.17-.05.25-.21.26a15.14,15.14,0,0,1-1.77.17c-1.91,0-3.82-.05-5.73-.09-.19,0-.39,0-.58,0a2,2,0,0,1-1.89-1.14,4.07,4.07,0,0,1-.4-2.2c.05-1,.07-2,.09-3a.74.74,0,0,0-.82-.8,5.31,5.31,0,0,0-2.34.57,12.26,12.26,0,0,0-3.09,2.3,31,31,0,0,0-3.09,3.59Z"/><path d="M172.18,10.93l.35-2.3a40.27,40.27,0,0,0,9.43.68v2.21A51.82,51.82,0,0,1,172.18,10.93Z"/><path class="cls-2" d="M17.05,31l-1.74-1.73a89.53,89.53,0,0,1,13.3-12.66A66.07,66.07,0,0,1,18,18.3V15.58c.49,0,1,0,1.46,0A33.82,33.82,0,0,0,24.63,15a45.87,45.87,0,0,0,5.88-1.56.32.32,0,0,1,.26,0c.67.84,1.33,1.69,2,2.54-.5.37-1,.71-1.48,1.09Q28.62,19.22,26,21.41a4,4,0,0,0-.55.7c.36-.08.67-.17,1-.21a1.79,1.79,0,0,1,2.27,1.72c.13,1.16.19,2.34.25,3.51,0,.47,0,.94,0,1.41a.64.64,0,0,0,.4.6,3.52,3.52,0,0,0,1.54.29,19,19,0,0,0,3.53-.27c.81-.13,1.61-.34,2.42-.52l.15,0a1.65,1.65,0,0,1,0,.21c0,.78,0,1.56,0,2.34,0,.17-.05.25-.21.26A15.31,15.31,0,0,1,35,31.6c-1.91,0-3.81-.05-5.72-.09-.2,0-.39,0-.58,0a1.94,1.94,0,0,1-1.89-1.14,4.07,4.07,0,0,1-.4-2.2c.05-1,.07-2,.09-3a.74.74,0,0,0-.82-.8,5.31,5.31,0,0,0-2.34.57,12.31,12.31,0,0,0-3.1,2.3,31.88,31.88,0,0,0-3.08,3.59Z"/><path class="cls-2" d="M21.38,10.93l.35-2.3a40.27,40.27,0,0,0,9.43.68v2.21A51.77,51.77,0,0,1,21.38,10.93Z"/><path d="M146.29,11.54a51.72,51.72,0,0,1-9.77-.59l.34-2.3a42,42,0,0,0,9.43.69Z"/><path d="M183.57,13.35l3.37-1-2.12,4.37.74-.16c.08.14.06.2-.09.24-.32.06-.63.14-1,.22l-.22-1.13.19-.06.16.71,0,0,1.88-3.87-1.07.31c-.57.17-1.13.33-1.69.51C183.65,13.54,183.59,13.53,183.57,13.35Z"/><path d="M165.27,34.24l.36-3.48c.2,0,.21,0,.19.17,0,.53-.11,1.05-.16,1.57s-.09.81-.13,1.29l3.5-2.61h-.77l0-.22h1.16l-.05,1.13-.07,0c0-.05-.11-.1-.12-.16s0-.38,0-.62Z"/><path d="M180,32.33l-.58-.38c.12,0,.21-.1.25-.07.3.17.59.36.89.55l-.64,1c-.16,0-.2-.1-.1-.23l.37-.55c-.33,0-.65,0-1-.07-.69-.12-1.38-.22-2-.4a1.77,1.77,0,0,1-1.35-2.25c.06-.32.16-.63.24-.93.22,0,.22.07.17.22a2.89,2.89,0,0,0-.21,1.54,1.32,1.32,0,0,0,.9,1.11,16.93,16.93,0,0,0,1.77.43c.42.08.85.1,1.28.15Z"/><path d="M140.63,7.66l-.3-.33.15-.15.57.6c-.16.19-.32.36-.46.54s-.17.11-.25,0l.37-.44h-1.16l-2.18,0c-.14,0-.23,0-.16-.21Z"/><path d="M167.77,14.55l3.38-.25-.29-.24.14-.2.61.52c-.15.22-.29.43-.45.63,0,0-.12,0-.19,0l0-.07.31-.46-1,.06-2.36.17C167.8,14.75,167.71,14.75,167.77,14.55Z"/></g><g id="Layer_7" data-name="Layer 7"><text class="cls-3" transform="translate(50.28 -19.02)">え</text><text class="cls-4" transform="translate(50.28 -19.02)">え</text></g></svg>