<svg id="illustration" xmlns="http://www.w3.org/2000/svg" viewBox="0 0 198.43 125.69"><defs><style>.cls-1{fill:#fff;}.cls-2{fill:#001f00;}.cls-3{fill:#d15d1f;}.cls-4{opacity:0.59;}.cls-5{fill:#3b3b3c;}.cls-6{fill:#f8ec2a;}.cls-7{fill:#78766b;}.cls-8{fill:#ef3f23;}.cls-9{fill:#f26921;}.cls-10{fill:#7ac143;}.cls-11{fill:#fee046;}.cls-12{fill:#e57ab0;}.cls-13{fill:#fbac1d;}.cls-14{fill:#f37024;}.cls-15{fill:#8c3c07;}.cls-16{fill:#010101;}</style></defs><path class="cls-1" d="M132,46a26.78,26.78,0,0,1,2.72,3c.68,1,1.17,2,1.91,2.93.26.31.67,0,.62-.36-.39-2.42-2.7-5-4.61-6.41-.5-.37-1.06.42-.64.83Z"/><path class="cls-1" d="M135.51,48.81c.57,2,1.42,3.9,2,5.92.47,1.77.57,3.69,1.34,5.37a.3.3,0,0,0,.54-.07,12.57,12.57,0,0,0-.78-5.61A20.19,20.19,0,0,0,136,48.59a.29.29,0,0,0-.52.22Z"/><path class="cls-1" d="M137.43,55.72c-.05,2,.11,3.93-.07,5.89a38.41,38.41,0,0,1-1.43,6.48c-.14.55.68.94.94.4a20,20,0,0,0,1.46-12.89.46.46,0,0,0-.9.12Z"/><path class="cls-1" d="M136.65,68.86c.91.39,1.81.78,2.7,1.22s1.44,1,2.34.79a.67.67,0,0,0,.48-.84c-.34-.91-1.24-1.2-2.08-1.56a17,17,0,0,0-2.87-1c-.78-.18-1.38,1-.57,1.37Z"/><path class="cls-1" d="M142.06,71.17a23.53,23.53,0,0,0,0-8.2c-.24-2.07-.61-4.24-2.39-5.5a.59.59,0,0,0-.85.35c-.35,1.92.54,3.62,1.12,5.44.81,2.57.83,5.13,1.16,7.78.06.5.83.72,1,.13Z"/><path class="cls-1" d="M137.1,51.31a37.49,37.49,0,0,0,1.62,3.54c.48,1.23.68,2.54,1.17,3.76a.28.28,0,0,0,.54-.07c.17-2.25-1.15-6-3-7.44-.16-.13-.43,0-.36.21Z"/><path class="cls-1" d="M138.73,56.55a6,6,0,0,1,.32,2,.59.59,0,0,0,.41.54.39.39,0,0,0,.3,0,.6.6,0,0,0,.41-.54,4.66,4.66,0,0,0-.74-2.26c-.22-.35-.86-.13-.7.29Z"/><path class="cls-1" d="M138.75,60.5c-.85,2.1-1.3,4.49-1.94,6.67-.24.82,1,1.14,1.27.35a22,22,0,0,0,1.52-6.91.44.44,0,0,0-.85-.11Z"/><path class="cls-1" d="M137.56,68c.82.65,2.18,1.49,3.27,1.13a.87.87,0,0,0,0-1.65,6.34,6.34,0,0,0-1.31-.15,4.33,4.33,0,0,1-1.18-.34c-.6-.27-1.39.52-.78,1Z"/><path class="cls-1" d="M140.81,68.54c0-1.08,0-2.14-.07-3.22,0-.86.2-1.78-.46-2.41a.56.56,0,0,0-.77,0c-.77.61-.54,1.92-.47,2.81a9.41,9.41,0,0,0,.72,3.1c.24.55,1,.22,1.05-.28Z"/><path class="cls-1" d="M139.1,63.06a21.72,21.72,0,0,0-.86,2.46c-.2.68-.61,1.49-.13,2.12a.58.58,0,0,0,.78.21c.7-.45.59-1.2.72-1.95s.33-1.71.54-2.55a.55.55,0,0,0-1.05-.29Z"/><path class="cls-1" d="M133.89,81.84c.57,8.31-3.37,14.42-7.32,21.34-.35.61.53,1.1.93.54,4.49-6.36,8.6-14,7.43-22-.09-.59-1.08-.46-1,.14Z"/><path class="cls-1" d="M128.08,103.69c2.19-.52,4.19-2.27,5.71-3.87,1.38-1.44,3.08-3.59,2.87-5.71a.23.23,0,0,0-.4-.16c-1.45,1.29-2.23,3.36-3.49,4.85-1.45,1.73-3.31,2.69-5.06,4a.48.48,0,0,0,.37.87Z"/><path class="cls-1" d="M135.44,95.84a1.59,1.59,0,0,0,.19,1.17.45.45,0,0,0,.78-.46,1.23,1.23,0,0,1-.14-.6c0-.47-.75-.59-.83-.11Z"/><path class="cls-1" d="M135.77,95.78a1.28,1.28,0,0,0-.15,1.4c.22.5.92.12.83-.35a7,7,0,0,1-.07-.79c0-.29-.39-.51-.61-.26Z"/><path class="cls-1" d="M136.51,95.86c2.16-2,4.53-6.82,2.75-9.68a.57.57,0,0,0-1,.14c-.31,1.49.1,3-.22,4.56a12.11,12.11,0,0,1-2.1,4.51c-.26.37.29.75.6.47Z"/><path class="cls-1" d="M139.52,86.78a2.15,2.15,0,0,0,1.94-2.28.67.67,0,1,0-1.32.18.84.84,0,0,1-.78.92c-.67.1-.52,1.25.16,1.18Z"/><path class="cls-1" d="M140.47,84.71c-1-1.8-3.1-2.65-5-3-1-.2-1.36,1.35-.41,1.48,1.85.26,3.17,1.32,4.65,2.36.5.34,1.06-.32.79-.79Z"/><path class="cls-1" d="M135.22,82.64c-1.09,2.91-.9,6.19-1.9,9.2-1.14,3.37-3.12,6.09-4.73,9.2a.74.74,0,0,0,1.15.89c4.36-3.74,8.6-13.62,6.49-19.29a.53.53,0,0,0-1,0Z"/><path class="cls-1" d="M131.09,101.77c4.58-4.27,8.5-10,8.45-16.49,0-1.62-2.55-2.07-2.9-.39-1.21,5.84-2.51,11.21-6.79,15.64a.88.88,0,0,0,1.24,1.24Z"/><path class="cls-1" d="M136,84.59c.29.23.46.57.74.8a4.84,4.84,0,0,0,1.09.65,1.27,1.27,0,1,0,1-2.32,3.84,3.84,0,0,0-2.34-.25h.4l-.2,0a.73.73,0,0,0-.78.32.69.69,0,0,0,.11.83Z"/><path class="cls-1" d="M78.62,62.66A11.82,11.82,0,0,1,91.82,61c3.76,1.84,8,6.16,5.75,10.65-.08.16.12.34.25.2,3.79-4-.45-9.22-4.27-11.46-5-2.91-11.49-2.56-15.6,1.59-.44.44.22,1.08.67.68Z"/><path class="cls-1" d="M97.45,71.88c2.59,2.06,2.26,6,1.39,8.79-1.07,3.43-3.18,6-7.06,5.88a1,1,0,0,0,0,2,9.65,9.65,0,0,0,9.37-7.78c.46-2.68.64-9.72-3.31-9.88a.57.57,0,0,0-.39,1Z"/><path class="cls-1" d="M78.92,61.63c-9.47-4.16-13,10.59-11.07,17,3.27,10.89,19,12.68,28.28,10.9,2.29-.44,1.33-4-1-3.51-6.71,1.34-15.39.7-20.8-4C71,79,70,74.91,70.68,70.59c.76-4.81,3.4-7,8.07-7.65a.72.72,0,0,0,.17-1.31Z"/><path class="cls-1" d="M75.12,52.44c-5.74,2.57-9.39,9.36-11.38,15s-4,14.53-.58,20a1.29,1.29,0,0,0,2.35-1,38.67,38.67,0,0,1,1.13-18.22c1.9-6.07,5.55-9.79,9.48-14.52a.83.83,0,0,0-1-1.3Z"/><path class="cls-1" d="M63.93,87c1.17,2.51,3.55,3.32,6.09,4.06a62.58,62.58,0,0,0,14.45,2.36c7.08.33,18.36,0,23.65-5.4a.89.89,0,0,0-.62-1.5c-3,.17-5.64,1.46-8.53,2.17a49.12,49.12,0,0,1-12.61,1.38A56.49,56.49,0,0,1,65,85.59c-.87-.36-1.41.76-1.1,1.43Z"/><path class="cls-1" d="M99.05,92.74a13.15,13.15,0,0,0,6.82-1.42c1.86-.78,4.4-1.5,5.12-3.53a.91.91,0,0,0-.64-1.11c-2-.33-3.79,1.23-5.61,2a40,40,0,0,0-6.09,2.61.81.81,0,0,0,.4,1.49Z"/><path class="cls-1" d="M109.86,87.37c.81-4.23-.07-8.5-.68-12.72-.63-4.4-1.43-8.06-4.18-11.6a.58.58,0,0,0-1,.41c.55,4.24,1.37,8.43,1.95,12.67.54,3.91.76,7.82,2.5,11.43a.77.77,0,0,0,1.4-.19Z"/><path class="cls-1" d="M103,59.26c1.21,3.68,2.53,7.29,3.38,11.07a.88.88,0,0,0,1.29.52c2.43-1.33.83-4.56.15-6.52s-1.37-5.55-3.9-6a.76.76,0,0,0-.92.92Z"/><path class="cls-1" d="M104.23,57.75c-3.64-9-16.69-9.57-24.43-6.27C70.24,55.55,63.71,65.67,66,76.08c.35,1.6,3,1.28,2.9-.39-.83-9.25,3.62-17.26,12.44-20.63a20.21,20.21,0,0,1,11.75-1.14c3.7.86,6.39,3.15,9.55,5.06.76.46,2-.32,1.61-1.23Z"/><path class="cls-1" d="M65.35,71.44C63,75.94,62.09,85.3,68.06,87.65c1.26.49,2-1.08,1.58-2.05-.94-2-2.26-3.42-2.62-5.74-.4-2.66,0-5.39-.4-8.08-.08-.6-.92-1-1.27-.34Z"/><path class="cls-1" d="M66,76c-1.62,2.35.55,6.1,2,8.06a14.86,14.86,0,0,0,7.51,5.75,1.63,1.63,0,0,0,1.25-3C74.21,85.3,72,84,70.28,81.5c-1.21-1.75-1.79-4.43-3.55-5.69A.56.56,0,0,0,66,76Z"/><path class="cls-1" d="M97,88.57c3.83-.6,6.33-3.53,7.52-7.14,1.13-3.4,2.23-9.67-.26-12.56a1,1,0,0,0-1.41,0c-1.86,2.25-1,5.08-1.23,7.87-.36,4.05-1.87,7.72-5.35,10.08A1,1,0,0,0,97,88.57Z"/><path class="cls-1" d="M102.22,87.9c2.35-1,3.7-3.65,4.38-6s1.29-5.8-.21-7.79a1.41,1.41,0,0,0-2.54.33c-.68,2,0,4.39-.57,6.54s-1.64,4-2.06,6.17a.69.69,0,0,0,1,.76Z"/><path class="cls-1" d="M107.64,87.17c.19-1.16.57-2.27.74-3.46a28.92,28.92,0,0,0,.23-3.61c0-2.44-3.88-2.43-3.78,0,0,1.13.06,2.26.16,3.39s.37,2.28.4,3.38,2,1.63,2.25.3Z"/><path class="cls-1" d="M105.73,82.48A9,9,0,0,1,103,86.21l2.18.89-.06-.26v.72a7.37,7.37,0,0,1,1.12-2c.61-1.11-.68-2.66-1.85-1.85a3.94,3.94,0,0,0-1.26,1.4,14.06,14.06,0,0,1-.67,1.64c-.79,1.11.52,2.48,1.68,2.19a4.44,4.44,0,0,0,2.69-2.47,7.8,7.8,0,0,0,.41-3.77.78.78,0,0,0-1.53-.21Z"/><path class="cls-1" d="M109.58,80.47c-.18,1-.3,2-.41,3a10.22,10.22,0,0,0-.12,3c.1.53.79.39,1,0a9.75,9.75,0,0,0,.43-2.75c.1-1,.19-2,.21-3,0-.6-1-.76-1.06-.15Z"/><path class="cls-1" d="M79.48,62.13c3.93-4.26,9.73-2.68,14.19-.25,4.78,2.61,5.2,6.26,5.88,11.19.3,2.14,3.31,1.35,3.5-.47.82-7.77-3.3-12.48-10.1-15.43-5.74-2.5-12.08-2.32-15.93,3.07-1,1.45,1.26,3.19,2.46,1.89Z"/><path class="cls-1" d="M99.08,68.31a17.24,17.24,0,0,0-1.16,2.51,1.31,1.31,0,0,0,2.4,1,17,17,0,0,0,.82-2.65c.33-1.2-1.5-2-2.06-.87Z"/><path class="cls-1" d="M104.6,69.09c-.69-6.21-3.19-12.82-9.53-15-6.56-2.26-13.89-.77-19.55,3-2.1,1.4-.14,4.81,2,3.4,4.36-2.9,9.86-4.41,15.06-3,6.59,1.77,6.1,7.73,9.34,12.37.73,1.05,2.87.84,2.7-.73Z"/><path class="cls-1" d="M74.51,62.19a16.93,16.93,0,0,1,3.66-3.25c.87-.58,3-2,1.73-3.21s-3.13.22-4.14,1a15.52,15.52,0,0,0-3.44,3.79c-.88,1.3,1.18,2.93,2.19,1.69Z"/><path class="cls-1" d="M99.18,58.56a12.45,12.45,0,0,0,1.56,1.84,8.17,8.17,0,0,1,1.35,3.7c.42,2.4.09,4.89.62,7.24a1.5,1.5,0,0,0,2.72.35c2.28-3.41.85-15.91-5-15.37a1.51,1.51,0,0,0-1.28,2.24Z"/><path class="cls-1" d="M113.15,26.07c-1.05,6.07-2,12.5-2.44,18.63-.07.87,1.23,1,1.47.2a53.23,53.23,0,0,0,1.94-18.7c0-.51-.87-.72-1-.13Z"/><path class="cls-1" d="M111.34,44.61c3.41,2.53,8.78-.25,11.15-3.09.23-.28.12-.87-.33-.82a11.19,11.19,0,0,0-4.27,1.69,9,9,0,0,1-6.13,1.21.55.55,0,0,0-.42,1Z"/><path class="cls-1" d="M117.77,44.74c3.06,1,7.55-.29,10.51-1.29,2.81-1,5.75-2.41,7.46-4.9a1,1,0,0,0-1.37-1.37c-2.75,1.83-5,3.49-8.25,4.46-2.73.8-6.07.59-8.48,2.11a.55.55,0,0,0,.13,1Z"/><path class="cls-1" d="M134.37,38.44a2.2,2.2,0,0,0,1.93.88c1-.1,1.38-.8,2-1.52a7.1,7.1,0,0,0,1.45-5.53c-.09-.7-1.14-.6-1.31,0-.33,1.18-.57,2.43-.82,3.63-.12.6-.22,1.21-.85,1.48a2,2,0,0,1-1.59,0c-.64-.45-1.3.51-.81,1Z"/><path class="cls-1" d="M139.33,32C132,27.44,122.49,26,114,25.71c-1.25-.05-1.23,1.85,0,1.94,8.78.62,16.41,3.3,24.8,5.5a.66.66,0,0,0,.51-1.2Z"/><path class="cls-1" d="M114.22,27.33c-.77,2.26-.77,4.69-1,7.05-.33,3-.84,5.93-1.38,8.88-.3,1.67,2.19,2.41,2.58.71,1.14-4.95,2.73-11.65,1.31-16.64a.78.78,0,0,0-1.48,0Z"/><path class="cls-1" d="M114.82,44c2.12-1,2.42-4.18,3-6.25a29.61,29.61,0,0,0,1.55-8.93c0-1.8-2.89-2.35-3.27-.44-.6,3-.66,6.1-1.24,9.12-.4,2.09-1.73,4.32-.74,6.32a.52.52,0,0,0,.68.18Z"/><path class="cls-1" d="M118,27.76c-1,2.13-1.06,4.62-1.33,7-.29,2.52-1.3,5.42-.62,7.9a1.16,1.16,0,0,0,1.92.51c1.61-2,1.68-4.83,1.94-7.32.27-2.65.52-5.6-.7-8a.71.71,0,0,0-1.21,0Z"/><path class="cls-1" d="M115,28.88a12.42,12.42,0,0,0,2.4,1.95c1,.51,2.29,1.08,3.28.35a1.37,1.37,0,0,0,.48-1.81c-.85-1.59-3.43-1.35-4.86-2.17-1-.58-2.22.85-1.3,1.68Z"/><path class="cls-1" d="M119.69,28.24c-.84,2-.69,4-.78,6.15-.11,2.6-.38,5.16-.66,7.74-.2,1.78,2.85,2.21,3.15.43.69-4.16,1.95-10.46-.18-14.32a.89.89,0,0,0-1.53,0Z"/><path class="cls-1" d="M122.07,43A11.2,11.2,0,0,0,124.83,36c.13-2.47.17-6-2-7.58a1.16,1.16,0,0,0-1.58.42c-1.08,1.75-.2,3.56,0,5.5a13.51,13.51,0,0,1-1,7.35c-.52,1.08.87,2.4,1.78,1.37Z"/><path class="cls-1" d="M124.42,43.65c4.89-2.34,3.32-9.72,2.19-13.78-.66-2.39-4.4-1.37-3.72,1,.6,2.1,1.39,4.3,1.22,6.52a18.07,18.07,0,0,1-1.5,4.85c-.41,1.1.93,1.81,1.81,1.39Z"/><path class="cls-1" d="M127.43,42.76c4.86-2.47,3-8.61,1-12.47a2,2,0,0,0-2.14-.87,1.68,1.68,0,0,0-.84.49,2,2,0,0,0-.29,2.3c1.43,2.94,2.5,6.07.88,9.21a1,1,0,0,0,1.35,1.34Z"/><path class="cls-1" d="M127.4,31c.61,3.34,1.32,6.5,1,9.93-.2,2.26,3.28,2.21,3.52,0,.41-3.75,0-7.77-2.28-10.88a1.24,1.24,0,0,0-2.25.95Z"/><path class="cls-1" d="M132.11,41c2.63-2.16,2.57-5.64,2.43-8.79-.11-2.31-3.72-2.33-3.61,0a30.65,30.65,0,0,1-.7,7.7A1.13,1.13,0,0,0,132.11,41Z"/><path class="cls-1" d="M132.48,31.27c.06,1.88.09,3.82,0,5.7s3.18,2,3.14,0a29.17,29.17,0,0,0-.22-3.1,13.68,13.68,0,0,0-.8-2.88c-.38-1.11-2.17-1-2.13.28Z"/><path class="cls-1" d="M135.52,32.1c-1.3.68-1.13,3.07-1.38,4.32a1.71,1.71,0,1,0,3.36.45,9.31,9.31,0,0,0,0-3.33c-.19-.86-.94-2-2-1.44Z"/><path class="cls-1" d="M136.56,32.7c-.19.76-.64,1.47-.91,2.22s-.58,1.49-.89,2.23c-.69,1.64,2.08,2.8,2.88,1.22a10,10,0,0,0,.9-2.65A9.19,9.19,0,0,0,138.4,33c-.1-1-1.57-1.35-1.84-.25Z"/><path class="cls-1" d="M66.13,33.24c7.81-1.9,15.5-4.37,23.16-6.77.77-.24.44-1.44-.33-1.2-7.69,2.34-15.44,4.65-23,7.49a.25.25,0,0,0,.13.48Z"/><path class="cls-1" d="M88.8,25.79c-.39,1.91,0,4,.2,5.93l.57,6.82c.07.89,1.47.89,1.39,0l-.66-6.82c-.19-2-.13-4.1-.86-5.93-.11-.27-.56-.36-.64,0Z"/><path class="cls-1" d="M90.66,38.05a4.21,4.21,0,0,0-.64-.31,2.13,2.13,0,0,0-.94,0,3.81,3.81,0,0,0-1.8,1,3.94,3.94,0,0,0-1.21,3.65,1,1,0,0,0,1.87,0,3.75,3.75,0,0,1,.93-2.06,4.09,4.09,0,0,1,.92-.61c.34-.18.66-.5,1-.65s.25-.85-.13-1Z"/><path class="cls-1" d="M87.68,43c.58-1.15-.91-2.09-1.83-2.37a4.24,4.24,0,0,0-3.56.44c-1,.71-.45,2.43.86,2A3.82,3.82,0,0,1,85.58,43c.57.18,1.7.81,2.1,0Z"/><path class="cls-1" d="M82.71,42.79c1.12-2.25-1.49-5.29-3.7-5.58S73.66,39,74.88,41.45a.82.82,0,0,0,1.41,0c.4-.53.47-1.21,1.06-1.59a1.65,1.65,0,0,1,2.05.32c1,.82,1.18,2.33,2.4,2.85a.67.67,0,0,0,.91-.24Z"/><path class="cls-1" d="M75.62,41c-.29-.32-.45-.76-.75-1.1a14.31,14.31,0,0,1-.94-1.1,7.81,7.81,0,0,0-1.67-2.3.69.69,0,0,0-1,.41c-.35,1.13.41,2.26,1.07,3.12a7.23,7.23,0,0,0,1.18,1.23,4.49,4.49,0,0,0,1.57.64c.55.19.86-.53.53-.9Z"/><path class="cls-1" d="M72.71,38.38c-2.28-.45-5.53-2-4.64-4.81.33-1-1.35-1.79-1.8-.76a4.69,4.69,0,0,0,.85,4.94,5.46,5.46,0,0,0,2.24,1.51,6.14,6.14,0,0,0,3.21.15c.54-.07.78-.91.14-1Z"/><path class="cls-1" d="M66.85,35.75a.05.05,0,0,0,0-.1.05.05,0,0,0,0,.1Z"/><path class="cls-1" d="M71.13,38.46a89,89,0,0,0,17.29-7.67c1.41-.85.48-3.43-1.16-2.77a89.22,89.22,0,0,0-16.62,9.27c-.57.38-.23,1.42.49,1.17Z"/><path class="cls-1" d="M87.76,26.76c-6.36,1-12.93,4.95-18.2,8.51-1.6,1.08-.17,3.62,1.53,2.62,5.63-3.3,12-5.9,17.33-9.57a.86.86,0,0,0-.66-1.56Z"/><path class="cls-1" d="M68.44,36.57c2.08-.65,3.91-2.15,5.89-3.1,1.73-.83,4.33-1,5.47-2.66a.8.8,0,0,0-.29-1.09c-1.91-.87-4.34.6-6.11,1.46-2.06,1-4.56,2.36-5.73,4.4a.68.68,0,0,0,.77,1Z"/><path class="cls-1" d="M67.91,34.5c1,.09,2.09-.61,3-.91s1.89-.38,2.43-1.15a.47.47,0,0,0-.17-.64c-.92-.5-2.1.07-3,.4s-2.14.67-2.69,1.53a.52.52,0,0,0,.44.77Z"/><path class="cls-1" d="M75.7,38.39a14.29,14.29,0,0,0,3.55-.62,7.81,7.81,0,0,0,3.24-1.34c.88-.75.13-2.1-.89-2.14a9.37,9.37,0,0,0-3.29.89,19.42,19.42,0,0,0-3.14,1.26,1.05,1.05,0,0,0,.53,2Z"/><path class="cls-1" d="M74,39.36c5.1-.33,10.38-3.64,14.34-6.65,1.52-1.15.17-3.7-1.53-2.63-4.33,2.71-9.39,4.76-13.38,7.9A.81.81,0,0,0,74,39.36Z"/><path class="cls-1" d="M86.91,30.61c-.6,2,0,4.55.06,6.64a1.61,1.61,0,0,0,1.15,1.5,1.52,1.52,0,0,0,.82,0,1.58,1.58,0,0,0,1.14-1.5c-.1-2.15-.09-5-1.34-6.88a1,1,0,0,0-1.83.24Z"/><path class="cls-1" d="M89.62,36.79a5,5,0,0,0-2.2,0,4.37,4.37,0,0,0-1.93,1.32,1.52,1.52,0,1,0,2.39,1.85c0,.07.26-.27.33-.33-.09,0,0,0,.1-.07l.29-.19a2.72,2.72,0,0,1,1-.57c1-.18,1-1.85,0-2Z"/><path class="cls-1" d="M86.25,38.56a9.62,9.62,0,0,0-4.17-.09c-1.79.36-1,3.3.76,2.75a7.58,7.58,0,0,1,3.1-.36c1.31.13,1.59-2,.31-2.3Z"/><path class="cls-1" d="M83.16,38.89c-.15-.23-.08.06-.06-.18a2.3,2.3,0,0,0,0-.37,2.24,2.24,0,0,0-.55-1.41A1.41,1.41,0,0,0,81,36.64,1.45,1.45,0,0,0,80.08,38a2,2,0,0,0,.75,1.56,2.56,2.56,0,0,0,.51.35c.3.15.37.17.21.07l.33.25c.77.56,1.76-.53,1.28-1.29Z"/><path class="cls-1" d="M82.64,39c1.5-.72,3.41-1.41,4.41-2.78.74-1-.52-2.77-1.74-2.26a8,8,0,0,0-2.11,1.5,14.22,14.22,0,0,1-1.83,1.36A1.26,1.26,0,0,0,82.64,39Z"/><path class="cls-1" d="M84.92,35.11a20.24,20.24,0,0,0-.32,2.78,1.43,1.43,0,0,0,2.79.38,23.85,23.85,0,0,0,.34-3.16,1.42,1.42,0,0,0-1.4-1.4,1.45,1.45,0,0,0-1.41,1.4Z"/><path class="cls-1" d="M86,35.78a14.67,14.67,0,0,0-2.51.64,1.39,1.39,0,1,0,1.35,2.32,3.5,3.5,0,0,1,1.63-1.26.88.88,0,0,0-.47-1.7Z"/><path class="cls-1" d="M86.89,35.87c0-.56.14-.86.17-1.42a1.54,1.54,0,0,0-3.08,0c0,.56.13.86.16,1.42a1.38,1.38,0,0,0,2.75,0Z"/><path class="cls-2" d="M91.48,11.24c2.74-5.15,19-1,23.15-.44.93.13,1.35-1.27.4-1.43A98.62,98.62,0,0,0,98,7.59c-3.13,0-6.52-.23-7.42,3.27a.5.5,0,0,0,.91.38Z"/><path class="cls-2" d="M91.79,9c-2.86,3.15-2.33,7.75-2.3,11.76.05,5.6.14,11.61,2.12,16.92a.47.47,0,0,0,.91-.13c.33-9.17-2.92-19.12,0-28.12A.44.44,0,0,0,91.79,9Z"/><path class="cls-2" d="M91.75,37.44l-.15,0c-.73.15-.61,1.15,0,1.35,1.12.39,2.39.44,3,1.69.46,1-.24,1.65-.35,2.61a.44.44,0,0,0,.42.42c1.78.08,1.86-2.81,1.35-3.92a4,4,0,0,0-4.22-2.18Z"/><path class="cls-2" d="M94.19,44.29a1.81,1.81,0,0,0,.71-1c0-.22-.13-.47-.38-.39a2,2,0,0,0-.93.93c-.24.38.29.75.6.46Z"/><path class="cls-2" d="M95.57,43a9.54,9.54,0,0,1,1.76.31,3.76,3.76,0,0,1,1.53,1.08c.6.72,1.58-.3,1-1-.92-1.15-2.81-2.19-4.3-1.59-.51.2-.68,1.08,0,1.21Z"/><path class="cls-2" d="M99.66,44c1.62,1,3.42.93,5.27,1s3.76.27,5.27-.67a.37.37,0,0,0,0-.63c-1.51-.94-3.54-.74-5.27-.81s-3.55-.29-5.27.48a.39.39,0,0,0,0,.66Z"/><path class="cls-2" d="M115.39,9.51c-3.89,2.2-3.61,7-4,11-.78,7.93-1.63,15.86-2.19,23.8-.07,1,1.37.92,1.48,0,.71-5.61,1.22-11.24,1.78-16.86.51-5.11-.23-13.32,3.38-17.34a.38.38,0,0,0-.46-.59Z"/><path class="cls-2" d="M110.85,44.74a11.33,11.33,0,0,0,.05-2.33,9.57,9.57,0,0,0-.15-2.27.24.24,0,0,0-.43-.06,6.64,6.64,0,0,0-.35,4.66c.15.38.78.47.88,0Z"/><path class="cls-2" d="M111.46,39a13.37,13.37,0,0,0,.25-2.27.28.28,0,0,0-.55-.07,13.73,13.73,0,0,0-.42,2.14c-.08.47.65.67.72.2Z"/><path class="cls-2" d="M91.1,9.19a1.58,1.58,0,0,0-.91,1.71.33.33,0,0,0,.24.24c.26.08.4-.16.44-.38a2.57,2.57,0,0,1,.14-.61c.1-.21.27-.38.39-.58a.27.27,0,0,0-.3-.38Z"/><path class="cls-2" d="M90.86,9.78c-1.29.54-1.85,2.89-1.26,4.07a.31.31,0,0,0,.55-.07c.14-.64.15-1.28.34-1.92s.61-1.14.78-1.77c.07-.26-.2-.4-.41-.31Z"/><path class="cls-2" d="M89.73,12.79a6.65,6.65,0,0,0,0,6.39.33.33,0,0,0,.6-.25,19.63,19.63,0,0,1-.5-2.94,11.82,11.82,0,0,1,.42-3,.31.31,0,0,0-.57-.24Z"/><path class="cls-2" d="M89.52,19.2v-.08a0,0,0,0,0,0,0v.08s0,0,0,0Z"/><path class="cls-2" d="M89.7,19.21a1.14,1.14,0,0,0,.12-.81c0-.24-.34-.17-.41,0a1.14,1.14,0,0,0-.06.77.2.2,0,0,0,.35,0Z"/><path class="cls-2" d="M92.25,12a41,41,0,0,1,10.29-1c3.36.2,6.67.7,10,1.09,1.22.14,1.46-1.86.29-2.14a63.86,63.86,0,0,0-12.39-1.57c-3.16-.11-6.61-.06-9,2.26A.8.8,0,0,0,92.25,12Z"/><path class="cls-2" d="M91.88,13.11c3.47.07,6.94-.38,10.42-.33s7,1,10.44.57c.83-.1,1.37-1.25.47-1.73-5.76-3-15.77-2.08-21.63.4-.56.24-.23,1.08.3,1.09Z"/><path class="cls-2" d="M113.94,9.89A1.6,1.6,0,0,0,112.47,11a.89.89,0,0,0,1.09,1.09,1.63,1.63,0,0,0,1.13-1.48.75.75,0,0,0-.75-.74Z"/><path class="cls-2" d="M91,14.44c3.37.79,6.89.47,10.33.54s7.1.65,10.5,0c1.12-.21.9-1.73,0-2.06-3.25-1.17-7.08-.92-10.5-.83s-7.09.13-10.33,1.48c-.37.16-.48.76,0,.88Z"/><path class="cls-2" d="M91.06,12.92c-.79,3.9-.27,7.94.13,11.87s.49,8.3,1.88,12a1.1,1.1,0,0,0,2.15-.29c.58-4.38-.39-9.18-1-13.55-.46-3.48-.85-7-2.29-10.19a.5.5,0,0,0-.9.12Z"/><path class="cls-2" d="M92.27,36.91l0,.07c.82,1.21,2.54-.27,1.52-1.17v.07a1,1,0,0,0-1.95.54c.42,1.51,1.65,1.55,2.93,1.95s.83,1.57,1.45,2.45a.87.87,0,0,0,1.17.31c1.2-.92.79-2.44,0-3.49a3.37,3.37,0,0,0-1.51-1.1c-.5-.18-2,0-2-.66l-1.95.54a1.35,1.35,0,0,0,1,1l-.68-1.19a.76.76,0,0,0,0,.67Z"/><path class="cls-2" d="M94.91,38.64c.11.2.14.42.25.63s.29.43.42.65a5.39,5.39,0,0,1,.52,1.27,1.16,1.16,0,0,0,2.23-.61,5.11,5.11,0,0,0-1-1.91,3.37,3.37,0,0,0-.68-.68,3.44,3.44,0,0,0-1-.35.69.69,0,0,0-.77,1Z"/><path class="cls-2" d="M96.58,40.84c.4.62,1,.84,1.41,1.26a2.52,2.52,0,0,1,.4.55,2,2,0,0,0,1.12.94,1.36,1.36,0,0,0,1.64-.93c.38-1-.47-2.07-1.18-2.65s-1.75-1.24-2.7-.86a1.17,1.17,0,0,0-.69,1.69Z"/><path class="cls-2" d="M100.05,42.28c.57,1.21,1.94,1.35,3.14,1.4,1.71.08,3.47,0,5.18-.06a1.75,1.75,0,0,0,0-3.5c-1,0-9.61-.55-8.32,2.16Z"/><path class="cls-2" d="M109.17,41.38c2.2-3.27,1.7-7.8,2-11.61.38-4.84,1.72-10.16,1.13-15a1.5,1.5,0,0,0-2.93-.39c-1.77,4.35-1.68,9.76-2.06,14.41-.33,4.06-1.43,8.87.65,12.55a.7.7,0,0,0,1.21,0Z"/><path class="cls-2" d="M110.08,14.76c-5.11-1.36-11-1.17-16.27-1.32A1.92,1.92,0,0,0,92,15.85,71.29,71.29,0,0,1,93.78,27c.19,2.5,0,5.23.73,7.65A9.39,9.39,0,0,0,102,41c3.35.47,6.42-1,7.12-4.44.45-2.21,0-4.79,0-7a105.17,105.17,0,0,1,.88-10.5c.33-2.51-3.61-2.48-3.93,0a90,90,0,0,0-.81,10.5,29.28,29.28,0,0,1,0,4.39c-.73,3.91-3.31,4.17-5.85,1.53s-1.74-7.71-2.12-11.18a75.59,75.59,0,0,0-1.76-9.45l-1.83,2.4c5.27.48,11,1.3,16.27.56,1.61-.22,1.4-2.67,0-3Z"/><path class="cls-2" d="M97.19,19.1a34,34,0,0,0,5.78.54c1.76.11,3.72.69,5.21-.45a1.34,1.34,0,0,0,.27-2.07c-1.28-1.43-3.27-1.22-5.06-1.29a21.83,21.83,0,0,0-6.2.36,1.52,1.52,0,0,0,0,2.91Z"/><path class="cls-2" d="M95.55,20.5a8.92,8.92,0,0,0,5,1.61c1.87.17,4.31.77,5.94-.31a1.54,1.54,0,0,0,.3-2.39c-1.53-1.29-3.57-1.05-5.5-1.11s-3.9-.08-5.55,1a.78.78,0,0,0-.16,1.22Z"/><path class="cls-2" d="M96.76,23.38c2.33,1.24,5.75,1.08,8.34,1.34s2.5-3.68,0-3.92-5.56-1-8-.28a1.59,1.59,0,0,0-.38,2.86Z"/><path class="cls-2" d="M96.42,24.28c.3,1.35,2,1.65,3.15,1.88,1.75.34,3.54.48,5.31.68a2,2,0,0,0,1.89-1.45,4.34,4.34,0,0,0,.07-.52,2,2,0,0,0-2-2c-1.27-.12-9.09-1.51-8.46,1.37Z"/><path class="cls-2" d="M97.76,27.42c2.53,1.25,5.49,1.21,8.26,1.26,2.53,0,2.53-3.92,0-3.94s-5.34-.47-7.92.1a1.43,1.43,0,0,0-.34,2.58Z"/><path class="cls-2" d="M96.48,28.15A6.85,6.85,0,0,0,100.4,30c1.47.24,3.33.58,4.75,0a1.77,1.77,0,0,0,0-3.37c-1.27-.52-2.88-.36-4.24-.46a9.76,9.76,0,0,0-4,.33,1,1,0,0,0-.44,1.67Z"/><path class="cls-2" d="M96.56,29.64c1.9,2.28,4.94,2.78,7.77,2.67,2.46-.09,2.41-4,0-3.8s-4.85-.19-7.3,0a.68.68,0,0,0-.47,1.15Z"/><path class="cls-2" d="M97,32.36c1.88,2.35,6.76,2.82,9.28,1.36,2.19-1.26.21-4.66-2-3.39-.88.52-2.42.22-3.38.1a12.3,12.3,0,0,0-3.37-.17c-1,.14-1.06,1.46-.55,2.1Z"/><path class="cls-2" d="M96.75,33.64c.64,2,2.69,2.55,4.57,2.83s4.71.26,5.71-1.71a1.71,1.71,0,0,0-1.46-2.54c-1.28-.06-2.39.56-3.73.43a14.06,14.06,0,0,1-3.56-.54c-.89-.36-1.8.69-1.53,1.53Z"/><path class="cls-2" d="M98,35.93a5.11,5.11,0,0,0,4.47,2.83c1.85.07,4.36-.56,4.48-2.74a1.57,1.57,0,0,0-.8-1.39c-1.31-.65-2,.12-3.34.23a7,7,0,0,1-3.17-.56A1.2,1.2,0,0,0,98,35.93Z"/><path class="cls-2" d="M107.35,41.89c1.39-.24,2.05-1.76,2.47-2.93a2,2,0,0,0-1.37-2.42A2,2,0,0,0,106,37.91c0,.08-.27.74-.1.33-.12.28-.25.56-.36.85a2.93,2.93,0,0,0-.15,1.71,1.61,1.61,0,0,0,1.92,1.09Z"/><path class="cls-2" d="M61.74,80.69l-.1,0c-.37.05.15.57.2.2l0-.1a.1.1,0,0,0-.12-.12Z"/><path class="cls-2" d="M61.42,81c.3-2.07.1-4.17.3-6.25a73.1,73.1,0,0,1,1.6-8c.07-.32-.41-.57-.56-.23C61,70.52,59.89,76.66,61.24,81c0,.08.17.1.18,0Z"/><path class="cls-2" d="M61.56,74.65a45.69,45.69,0,0,0,1.49-4.6,20.13,20.13,0,0,0,1.08-4.15c0-.37-.47-.44-.66-.18a13.48,13.48,0,0,0-1.56,4.35,18.35,18.35,0,0,0-.64,4.54.15.15,0,0,0,.29,0Z"/><path class="cls-2" d="M61.92,75.59A3.42,3.42,0,0,0,62.34,74a3.12,3.12,0,0,0-.05-1.69c-.07-.15-.28-.11-.36,0A3.23,3.23,0,0,0,61.6,74a3.26,3.26,0,0,0,.13,1.64.11.11,0,0,0,.19,0Z"/><path class="cls-2" d="M60.87,74.09c.84-2.82,1.68-5.67,2.62-8.46,1.06-3.15,2.95-5.73,4.28-8.72a1.32,1.32,0,0,0-2.07-1.6c-4.81,4.44-6.77,12.58-5.27,18.78a.23.23,0,0,0,.44,0Z"/><path class="cls-2" d="M63.93,66.34c1.36-3.09,2.52-6.16,4.51-8.92,2.24-3.1,5.47-4.62,8-7.29a1,1,0,0,0-.94-1.61c-3.34,1-6,4.47-8,7.21a20.28,20.28,0,0,0-4.1,10.48.26.26,0,0,0,.48.13Z"/><path class="cls-2" d="M65,59.35c2-1.92,3.84-3.93,5.89-5.75A31.85,31.85,0,0,1,74.21,51c1.08-.71,1.91-1.16,2.31-2.43A1.28,1.28,0,0,0,75.63,47c-2.59-.58-5.49,2.5-7.12,4.21a16.35,16.35,0,0,0-4.32,7.66.48.48,0,0,0,.8.46Z"/><path class="cls-2" d="M63.34,58.45c2.41-1.67,3.8-4.27,5.7-6.45,2.12-2.43,4.89-4.16,7-6.52a1.47,1.47,0,0,0-1.77-2.3c-3,1.35-5.62,4.52-7.62,7-1.86,2.35-3.78,4.87-3.75,8a.29.29,0,0,0,.43.24Z"/><path class="cls-2" d="M74.72,44.26a4,4,0,0,0,2.86,4.21,4.46,4.46,0,0,0,5.22-1.89c.45-.72-.64-1.61-1.21-.93a3.6,3.6,0,0,1-3.43,1.46c-1.46-.29-2.14-1.61-2.64-2.85-.14-.33-.74-.46-.8,0Z"/><path class="cls-2" d="M74.62,47.55a1,1,0,0,1,.63.39c.78.82,2-.23,1.52-1.18a1.42,1.42,0,0,0-2-.57.92.92,0,0,0-.47.8c0,.18.06.51.27.56Z"/><path class="cls-2" d="M81.8,47.11c0,1,1.14,1.79,2,2.2a4.83,4.83,0,0,0,3.46.34c1.82-.52,4.17-3.58,2.22-5.21a.58.58,0,0,0-1,.41c-.08.81.24,1.55-.19,2.33a2.78,2.78,0,0,1-2.43,1.3,3.82,3.82,0,0,1-2.13-.68c-.56-.37-.89-.87-1.56-1a.31.31,0,0,0-.37.28Z"/><path class="cls-2" d="M89.41,44.72l0,0a.58.58,0,0,0-.26.62,1.84,1.84,0,0,0,2.09,1.29A4.46,4.46,0,0,0,94,45.22a.7.7,0,0,0,.17-.66c-.43-1.11-1.56.06-2.17.36s-1.28.55-1.8.13c-.21-.17-.46-.55-.8-.33Z"/><path class="cls-2" d="M92.8,45.4c-2,1.78.59,4.32,2.48,4.62,2.33.38,5.17-1.38,5.21-3.91,0-.62-.94-.94-1.22-.33-.61,1.31-1.09,2.5-2.67,2.87a3.22,3.22,0,0,1-2.16-.22,2.19,2.19,0,0,1-1.09-2.71.33.33,0,0,0-.55-.32Z"/><path class="cls-2" d="M99.87,46.69c.74,1.16,2.14,1.86,3,2.92.52.6,1,1.28,1.44,1.92a8.06,8.06,0,0,1,1.09,1.53c.17.41.79.1.7-.3a14,14,0,0,0-.43-2.2,7.22,7.22,0,0,0-1.34-2.14c-.95-1.1-2.5-2.6-4.06-2.52a.53.53,0,0,0-.45.79Z"/><path class="cls-2" d="M105.07,52.21c.27,2,1.06,4,1.52,6s.28,4.18,1.21,6a.32.32,0,0,0,.55,0c.75-1.72.3-3.75,0-5.56a15.68,15.68,0,0,0-2.25-6.71c-.28-.39-1.11-.33-1,.28Z"/><path class="cls-2" d="M107.82,61.47a14.22,14.22,0,0,0,.35,4A16,16,0,0,0,109,70a.3.3,0,0,0,.54-.07c.37-1.44,0-3.11-.23-4.57a11.24,11.24,0,0,0-.92-4,.3.3,0,0,0-.55.08Z"/><path class="cls-2" d="M109.24,65.61a4.84,4.84,0,0,0,.08-2.24,7,7,0,0,0-.41-2.28c-.15-.36-.76-.49-.85,0a6.66,6.66,0,0,0,.06,2.27,5.24,5.24,0,0,0,.58,2.32.3.3,0,0,0,.54-.07Z"/><path class="cls-2" d="M106.73,60.37c1-2-1.77-5.65-2.91-7.13-1.49-1.94-4.14-5.09-6.74-5.16a.92.92,0,0,0-.79,1.37C96.93,50.57,98,51,99,51.81a26.78,26.78,0,0,1,3.22,3.08,30.69,30.69,0,0,1,2.69,3.63c.55.86.71,1.55,1.65,1.91a.14.14,0,0,0,.15-.06Z"/><path class="cls-2" d="M99.15,49.74c.84.28,1.87-.5,2.45-1A1.2,1.2,0,1,0,99.91,47c-.52.44-2.06,2.3-.76,2.74Z"/><path class="cls-2" d="M99.64,48.07c-.2,1.19.94,2.3,1.66,3.19s2.14,1.78,2.67,3,2.69.37,2.24-.94-1.59-2.19-2.64-3.17c-.6-.55-1.23-1.06-1.79-1.66s-.72-.84-1.49-.91a.67.67,0,0,0-.65.5Z"/><path class="cls-2" d="M105,54.25c-.78,1-.16,2.33.56,3.13,1,1.09,2.69-.61,1.61-1.62-.52-.48-.91-1.22-1.52-1.6a.55.55,0,0,0-.65.09Z"/><path class="cls-2" d="M97.94,50.48a22.7,22.7,0,0,0-5.38-2,5.91,5.91,0,0,0-4.67.22.61.61,0,0,0,.31,1.12c1.83.14,3.52-.09,5.35.37a15,15,0,0,0,4.21.91.35.35,0,0,0,.18-.64Z"/><path class="cls-2" d="M89.28,48.8a3,3,0,0,0,1.21-.68c.05,0,.69-.43.72-.18l.62-.82A2.35,2.35,0,0,1,90.6,47c-1.2-.32-1.68,1.64-.5,1.83a6.2,6.2,0,0,0,2.19-.09.87.87,0,0,0,.62-.83,1.94,1.94,0,0,0-2.21-1.85,2.18,2.18,0,0,0-2.06,2.34.54.54,0,0,0,.64.37Z"/><path class="cls-2" d="M84.36,48.93C77,48.22,65.45,55.22,65,63.28a.32.32,0,0,0,.54.22c2.34-2.72,3.63-6,6.41-8.5,3.7-3.29,7.93-4.21,12.54-5.49a.3.3,0,0,0-.08-.58Z"/><path class="cls-2" d="M63.85,66.08a4.46,4.46,0,0,0,1.37-2A5.1,5.1,0,0,0,66,61.68a.43.43,0,0,0-.72-.3A5.24,5.24,0,0,0,64,63.58a4.46,4.46,0,0,0-.53,2.33.27.27,0,0,0,.4.17Z"/><path class="cls-2" d="M67,60.14a28.47,28.47,0,0,1,6.82-6.77c2.56-1.67,5.43-2.29,8.15-3.53.44-.21.19-.85-.23-.86-6.1-.25-12.83,5.53-15.2,10.81-.12.28.24.64.46.35Z"/><path class="cls-2" d="M75.61,50.88a33,33,0,0,1,3.52-.9c1.1-.2,2.38,0,3.37-.53a.8.8,0,0,0,0-1.36c-1-.7-2.74-.29-3.88.06a7.36,7.36,0,0,0-3.35,2.14.36.36,0,0,0,.34.59Z"/><path class="cls-2" d="M82.26,48a7.28,7.28,0,0,0-3.05-.35,12,12,0,0,0-3.6.24c-.77.27-1,1.57,0,1.75a11.55,11.55,0,0,0,3.6-.29,7.27,7.27,0,0,0,3.05-.8c.18-.11.24-.45,0-.55Z"/><path class="cls-2" d="M81.08,47.8a.88.88,0,0,0-.16.63c.09.75,1.1,1.19,1.53.42l.06-.1a.85.85,0,0,0,0-.87l-.06-.08a.8.8,0,0,0-1.37,0Z"/><path class="cls-2" d="M114.69,66.31a14.7,14.7,0,0,0-1,4.89,20.18,20.18,0,0,0-.28,5.69c.07.45.71.38.82,0a26.67,26.67,0,0,0,.65-5.29,19.58,19.58,0,0,0,.36-5.22.27.27,0,0,0-.5-.07Z"/><path class="cls-2" d="M114.23,67.49c2.74,1,5.82.63,8.7.61,3.34,0,6.67.05,10,.06,1.05,0,1.37-1.74.26-1.91-5.65-.83-13.82-2.27-19.06.49a.42.42,0,0,0,.09.75Z"/><path class="cls-2" d="M133.15,67.66c.06,1.37,2.3,2,3.32,2.61,1.63,1,3.18,2.57,4.94,3.17a.67.67,0,0,0,.75-1c-1-1.8-3.75-3.27-5.5-4.21-.26-.14-3.58-1.91-3.51-.59Z"/><path class="cls-2" d="M140.39,72.46c-.67.92-.66,2.55-.92,3.66-.22.91-.7,2.06,0,2.84a.35.35,0,0,0,.35.09c1.11-.32,1.23-1.83,1.35-2.81s.44-2.78-.2-3.78a.33.33,0,0,0-.56,0Z"/><path class="cls-2" d="M141.26,72.86c-1.28.79-1.36,2.68-1.61,4.06a53.62,53.62,0,0,0-.7,5.78c-.08,1.06,1.54,1,1.64,0,.18-2,.47-4,.83-6,.23-1.24.79-2.6.13-3.75a.22.22,0,0,0-.29-.07Z"/><path class="cls-2" d="M140,81c-3.87-2.18-8.21-3-12.49-4s-8.89-2.26-13.29-2.27a1.21,1.21,0,0,0-.32,2.36c8,3,17.34,3,25.59,5.11A.66.66,0,0,0,140,81Z"/><path class="cls-2" d="M115.61,75.65c1.15-1.83,1-4.85,1.17-6.94.21-2.32-3.29-2.23-3.58,0s-.68,5.07.49,6.94a1.13,1.13,0,0,0,1.92,0Z"/><path class="cls-2" d="M115.84,69.09c2.27,1.71,5.5,1.39,8.22,1.45,3.12.07,6.71.58,9.69-.43a1.5,1.5,0,0,0,0-2.87c-3-1-6.57-.52-9.69-.46-2.72,0-6-.28-8.22,1.42a.52.52,0,0,0,0,.89Z"/><path class="cls-2" d="M132.71,70.38c1.34,2,3.94,3.37,6,4.49,1.72.93,3.88-1.51,2.2-2.84-2-1.57-4.43-3.43-7-3.7a1.37,1.37,0,0,0-1.18,2Z"/><path class="cls-2" d="M138.84,73.69c-2.3.7-2.54,4.35-2.36,6.31s3.4,2.16,3.3,0a22.44,22.44,0,0,1,0-3.38,4.16,4.16,0,0,0-.33-2.67.6.6,0,0,0-.65-.26Z"/><path class="cls-2" d="M139.28,79.93c-2.42-3.25-7.3-3.56-11.05-4.33-2.37-.49-4.75-.93-7.13-1.39-1.07-.2-2.78-1.28-2,.29-.37-.73.16-2.92.2-3.69l-1.95,2c5,.1,11.22,1.65,16.11.48a1.44,1.44,0,0,0,.34-2.61c-4.65-2.32-11.35-1.68-16.45-1.78a2,2,0,0,0-2,2c-.36,5.46,0,6.31,5.44,7.34,3.17.6,6.35,1.18,9.49,1.9,2.82.65,5.64,1.9,8.48,1a.77.77,0,0,0,.46-1.12Z"/><path class="cls-2" d="M132.14,71.33a6.93,6.93,0,0,0,.41,1.24,10.14,10.14,0,0,0,1,1.3A12.86,12.86,0,0,0,135.68,76a1.79,1.79,0,0,0,2.33-.46,1.85,1.85,0,0,0-.14-2.38,12.3,12.3,0,0,0-2.05-1.82,9.15,9.15,0,0,0-1.09-.75,6.66,6.66,0,0,0-1.39-.46,1,1,0,0,0-1.2,1.2Z"/><path class="cls-2" d="M136.46,73.59a8.64,8.64,0,0,0-2.3,2.77l2-.81c-5.32-1.38-10.7-2.49-16.08-3.64l-.52,3.84,13.63-.62-1.88-2.48a3.4,3.4,0,0,0,2.53,4.41c2.1.58,3.51-2.52,1.51-3.57a5.81,5.81,0,0,0-4.82-.59c-1.9.6-1.68,3.79.49,3.64a3.72,3.72,0,0,1,2.36.32l1.5-3.57.2.4a2,2,0,0,0-1.89-2.47l-13.63.62c-2.11.1-2.77,3.36-.52,3.84,5.38,1.16,10.75,2.35,16.18,3.27a1.81,1.81,0,0,0,2.24-1.7c.17-1.61.4-1.84,0-3.25a.7.7,0,0,0-1-.41Z"/><path class="cls-2" d="M138.48,82.21a.83.83,0,0,0,0,.58.2.2,0,0,0,.3,0,.74.74,0,0,0,.22-.47c.08-.36-.48-.51-.54-.15Z"/><path class="cls-2" d="M137.42,82a1.41,1.41,0,0,0,1.35.65c.82-.07.83-1.35,0-1.28a4,4,0,0,0-1.24.23.29.29,0,0,0-.11.4Z"/><path class="cls-2" d="M113.41,77.11l0,0a.43.43,0,0,0,0,.44l0,0a.51.51,0,1,0,0-.51Z"/><polygon class="cls-3" points="60.13 32.67 59.55 30.77 59.55 27.79 61.05 25.49 64.37 20.99 66.88 18.45 69.44 16.41 79.54 13.05 85.99 11.37 90.26 10.19 89.52 12.7 89.22 14.22 89.13 16.67 89.13 18.89 89.38 21.97 89.74 25.16 80.97 28.03 69.19 31.86 66.59 32.35 64.05 32.87 61.24 32.9 60.13 32.67"/><path class="cls-3" d="M117,9.55l2.38.53,14.29,3.28s3.36,1.05,4.49,3.07,2.72,14.34,2.72,14.34l.21,1.68-8.62-3.3-10-2.62-9.62-.93.68-10.79S114.72,10,117,9.55Z"/><path class="cls-1" d="M93.18,12.08a.05.05,0,1,0,0-.1.05.05,0,0,0,0,.1Z"/><path class="cls-1" d="M91.77,15.8a42.88,42.88,0,0,0,.6,17.83c.15.57,1,.32.87-.24a74.12,74.12,0,0,1-1-17.53c0-.25-.4-.31-.44-.06Z"/><path class="cls-1" d="M66.69,22.66a101.18,101.18,0,0,1,9.39-4.51c2.59-1,5.58-1.44,7.93-2.9a.65.65,0,0,0-.33-1.19c-3-.18-6.18,1.4-8.82,2.71a37.87,37.87,0,0,0-8.55,5.4c-.28.25.08.64.38.49Z"/><path class="cls-1" d="M116.68,13.23a51.25,51.25,0,0,1,8.82,1.19c2.59.71,4.8,2.14,7.29,3.11.87.34,1.2-.92.58-1.39-4.23-3.19-11.61-4.48-16.78-3.59-.41.07-.26.64.09.68Z"/><path class="cls-1" d="M110.32,21.31A69.07,69.07,0,0,0,109.09,38a.12.12,0,0,0,.23,0c.47-5.55.61-11.07,1.37-16.61,0-.25-.33-.36-.37-.11Z"/><path class="cls-1" d="M94.13,11.12a26.28,26.28,0,0,1,8.71-.37c2.46.25,5.11,1.15,7.58.94.52,0,1-.75.48-1.16-4.42-3.65-12.1-1.83-17-.19a.4.4,0,0,0,.21.78Z"/><path class="cls-1" d="M63.31,65c1-2.51,1.64-5,3.09-7.39s3.41-4,5.33-6a.47.47,0,0,0-.56-.73c-4.36,2.49-8.52,8.9-8.49,14a.32.32,0,0,0,.63.09Z"/><path class="cls-1" d="M122,70.26a31.69,31.69,0,0,0,6.07.84,24.1,24.1,0,0,0,6.11.23c.45-.08.36-.71,0-.83a22.22,22.22,0,0,0-5.65-.64,34,34,0,0,0-6.46-.09c-.27,0-.36.41-.07.49Z"/><path class="cls-1" d="M135.32,72.74a5.84,5.84,0,0,0,1.77.87c.55.26,1.16.88,1.79.81a.44.44,0,0,0,.41-.54c-.1-.75-1.12-1.13-1.73-1.37a2.59,2.59,0,0,0-2.18-.2.28.28,0,0,0-.06.43Z"/><g class="cls-4"><path class="cls-5" d="M94.85,23.26a.52.52,0,0,0,0-1,.52.52,0,0,0,0,1Z"/></g><g class="cls-4"><path class="cls-5" d="M94.89,23.67a1,1,0,0,0,0-2,1,1,0,0,0,0,2Z"/></g><g class="cls-4"><path class="cls-5" d="M107.39,21.7A1.75,1.75,0,1,0,105.64,20a1.76,1.76,0,0,0,1.75,1.75Z"/></g><g class="cls-4"><path class="cls-5" d="M94.68,15.89a1.42,1.42,0,1,0-1.42-1.42,1.44,1.44,0,0,0,1.42,1.42Z"/></g><g class="cls-4"><path class="cls-5" d="M107.35,15.42A1.43,1.43,0,1,0,105.92,14a1.45,1.45,0,0,0,1.43,1.43Z"/></g><g class="cls-4"><path class="cls-5" d="M100.93,22.65a1.16,1.16,0,0,0,0-2.31,1.16,1.16,0,0,0,0,2.31Z"/></g><g class="cls-4"><path class="cls-5" d="M100,15.34a.89.89,0,0,0,0-1.78.89.89,0,0,0,0,1.78Z"/></g><g class="cls-4"><path class="cls-5" d="M98.64,31a1,1,0,0,0,0-2.09,1,1,0,0,0,0,2.09Z"/></g><g class="cls-4"><path class="cls-5" d="M107.83,31.06l.16-.13a1.61,1.61,0,0,0-1.36-2.73,1.62,1.62,0,0,0-1.35,1.16,1.7,1.7,0,0,0,.75,1.82l.12.1a1.41,1.41,0,0,0,1.68-.22Z"/></g><g class="cls-4"><path class="cls-5" d="M98.1,37.13a.86.86,0,0,0,0-1.72.86.86,0,0,0,0,1.72Z"/></g><g class="cls-4"><path class="cls-5" d="M95.39,40.74l.1.06a.55.55,0,0,0,.75-.75l-.06-.1c-.47-.83-1.62.32-.79.79Z"/></g><g class="cls-4"><path class="cls-5" d="M106.64,41.25a.67.67,0,0,0,0-1.34.67.67,0,0,0,0,1.34Z"/></g><g class="cls-4"><path class="cls-5" d="M102.39,34.15a.66.66,0,0,0,0-1.31.66.66,0,0,0,0,1.31Z"/></g><g class="cls-4"><path class="cls-5" d="M104.8,25.66a.67.67,0,0,0,0-1.33.67.67,0,0,0,0,1.33Z"/></g><g class="cls-4"><path class="cls-5" d="M95.43,27a.51.51,0,0,0,0-1,.51.51,0,0,0,0,1Z"/></g><g class="cls-4"><path class="cls-5" d="M93.77,37.44a.57.57,0,0,0,0-1.14.57.57,0,0,0,0,1.14Z"/></g><g class="cls-4"><path class="cls-5" d="M109.89,42.46a.92.92,0,0,0,0-1.84.92.92,0,0,0,0,1.84Z"/></g><g class="cls-4"><path class="cls-5" d="M101.06,41.93a.69.69,0,0,0,0-1.38.69.69,0,0,0,0,1.38Z"/></g><g class="cls-4"><path class="cls-5" d="M99.73,51.41a.8.8,0,0,0,0-1.59.8.8,0,0,0,0,1.59Z"/></g><g class="cls-4"><path class="cls-5" d="M100.93,48.61a.58.58,0,0,0,0-1.15.58.58,0,0,0,0,1.15Z"/></g><g class="cls-4"><path class="cls-5" d="M105.73,54.77a.53.53,0,0,0,0-1.05.53.53,0,0,0,0,1.05Z"/></g><g class="cls-4"><path class="cls-5" d="M103.89,50.79a.05.05,0,1,0,0-.1.05.05,0,0,0,0,.1Z"/></g><g class="cls-4"><path class="cls-5" d="M102.35,51.92a.05.05,0,0,0,0-.1.05.05,0,0,0,0,.1Z"/></g><g class="cls-4"><path class="cls-5" d="M107.43,59.17a.76.76,0,0,0,0-1.52.76.76,0,0,0,0,1.52Z"/></g><g class="cls-4"><path class="cls-5" d="M108.68,63.83a.5.5,0,0,0,0-1,.5.5,0,0,0,0,1Z"/></g><g class="cls-4"><path class="cls-5" d="M105.18,56.75a.6.6,0,0,0,0-1.19.6.6,0,0,0,0,1.19Z"/></g><g class="cls-4"><path class="cls-5" d="M90.93,48.55a.64.64,0,0,0,0-1.28.64.64,0,0,0,0,1.28Z"/></g><g class="cls-4"><path class="cls-5" d="M92.39,47.34a.6.6,0,0,0,0-1.19.6.6,0,0,0,0,1.19Z"/></g><g class="cls-4"><path class="cls-5" d="M79.37,48.21l-.11-.06c-.86-.43-1.38,1-.5,1.17l.13,0c.66.15,1.14-.81.48-1.14Z"/></g><g class="cls-4"><path class="cls-5" d="M76.18,50.84a.6.6,0,0,0,0-1.2.6.6,0,0,0,0,1.2Z"/></g><g class="cls-4"><path class="cls-5" d="M74.43,46.63a.05.05,0,1,0,0-.1.05.05,0,0,0,0,.1Z"/></g><g class="cls-4"><path class="cls-5" d="M70.68,49.88a.05.05,0,1,0,0-.1.05.05,0,0,0,0,.1Z"/></g><g class="cls-4"><path class="cls-5" d="M73.81,51.83a.59.59,0,0,0,0-1.17.59.59,0,0,0,0,1.17Z"/></g><g class="cls-4"><path class="cls-5" d="M62.46,69.69a1.57,1.57,0,1,0-1.57-1.57,1.59,1.59,0,0,0,1.57,1.57Z"/></g><g class="cls-4"><path class="cls-5" d="M71.06,49.77a1,1,0,0,0,0-2.06,1,1,0,0,0,0,2.06Z"/></g><g class="cls-4"><path class="cls-5" d="M73.43,46.64a.9.9,0,0,0,0-1.8.9.9,0,0,0,0,1.8Z"/></g><g class="cls-4"><path class="cls-5" d="M76.14,48.7a.88.88,0,0,0,0-1.75.88.88,0,0,0,0,1.75Z"/></g><g class="cls-4"><path class="cls-6" d="M68.52,51.88a.77.77,0,0,0,0-1.53.77.77,0,0,0,0,1.53Z"/></g><g class="cls-4"><path class="cls-6" d="M81.56,48.62a.55.55,0,0,0,0-1.09.55.55,0,0,0,0,1.09Z"/></g><g class="cls-4"><path class="cls-6" d="M89.78,46.27a.42.42,0,0,0,.83-.11c0-.66-1.06-.44-.83.11Z"/></g><g class="cls-4"><path class="cls-6" d="M93.64,49.45a.59.59,0,0,0,0-1.17.59.59,0,0,0,0,1.17Z"/></g><g class="cls-4"><path class="cls-6" d="M103.27,52.06a1.84,1.84,0,0,0,1.82-1.82,1.86,1.86,0,0,0-1.82-1.82,1.82,1.82,0,1,0,0,3.64Z"/></g><g class="cls-4"><path class="cls-6" d="M104.81,54.31a.2.2,0,0,0,0-.39.2.2,0,0,0,0,.39Z"/></g><g class="cls-4"><path class="cls-6" d="M108.1,62.33a.76.76,0,0,0,0-1.51.76.76,0,0,0,0,1.51Z"/></g><g class="cls-4"><path class="cls-6" d="M106.52,56a.71.71,0,0,0,0-1.41.71.71,0,0,0,0,1.41Z"/></g><g class="cls-4"><path class="cls-6" d="M106.23,35.84a.85.85,0,0,0,0-1.7.85.85,0,0,0,0,1.7Z"/></g><g class="cls-4"><path class="cls-6" d="M100.18,27.09a.85.85,0,0,0,0-1.69.85.85,0,0,0,0,1.69Z"/></g><g class="cls-4"><path class="cls-6" d="M104.48,19a.42.42,0,0,0,0-.83.42.42,0,0,0,0,.83Z"/></g><g class="cls-4"><path class="cls-6" d="M96.35,19.78a.46.46,0,0,0,0-.91.46.46,0,0,0,0,.91Z"/></g><g class="cls-4"><path class="cls-6" d="M95.14,30.81a.78.78,0,0,0,0-1.56.78.78,0,0,0,0,1.56Z"/></g><g class="cls-4"><path class="cls-6" d="M95.54,34.71l.14.1a.63.63,0,1,0,0-1.08l-.14.06c-.41.17-.28.71,0,.92Z"/></g><g class="cls-4"><path class="cls-6" d="M107.68,25.51a.56.56,0,0,0,0-1.12.56.56,0,0,0,0,1.12Z"/></g><g class="cls-4"><path class="cls-6" d="M110.89,17.74a.54.54,0,0,0,0-1.08.54.54,0,0,0,0,1.08Z"/></g><g class="cls-4"><path class="cls-6" d="M113,10.58a.05.05,0,0,0,0-.1.05.05,0,1,0,0,.1Z"/></g><g class="cls-4"><path class="cls-6" d="M91.43,12.84a.47.47,0,0,0,0-.94.47.47,0,0,0,0,.94Z"/></g><g class="cls-4"><path class="cls-6" d="M97.43,13.06a.53.53,0,0,0,0-1.05.53.53,0,0,0,0,1.05Z"/></g><g class="cls-4"><path class="cls-6" d="M103,13.78a.58.58,0,0,0,0-1.16.58.58,0,0,0,0,1.16Z"/></g><g class="cls-4"><path class="cls-6" d="M100.1,18.45a.63.63,0,0,0,0-1.25.63.63,0,0,0,0,1.25Z"/></g><g class="cls-4"><path class="cls-6" d="M94.64,19.37a.42.42,0,0,0,0-.84.42.42,0,0,0,0,.84Z"/></g><g class="cls-4"><path class="cls-6" d="M115.21,69.44l0,0a.79.79,0,1,0,0-1.37l0,0a.78.78,0,0,0,0,1.32Z"/></g><g class="cls-4"><path class="cls-6" d="M125.18,68.84a.47.47,0,0,0,0-.94.47.47,0,0,0,0,.94Z"/></g><g class="cls-4"><path class="cls-6" d="M116.48,74.42a.68.68,0,0,0,0-1.36.68.68,0,0,0,0,1.36Z"/></g><g class="cls-4"><path class="cls-6" d="M129.52,79.17a.94.94,0,0,0,0-1.87.94.94,0,0,0,0,1.87Z"/></g><g class="cls-4"><path class="cls-6" d="M131.89,69.45a.46.46,0,0,0,0-.92.46.46,0,0,0,0,.92Z"/></g><g class="cls-4"><path class="cls-6" d="M122.48,75a.5.5,0,0,0,0-1,.5.5,0,0,0,0,1Z"/></g><g class="cls-4"><path class="cls-6" d="M115.45,76.33v-.09a.63.63,0,0,0-.45-.59l-.09,0a.73.73,0,1,0,.53.71Z"/></g><g class="cls-4"><path class="cls-6" d="M135.43,79.65l0,0s0-.12-.07-.07l0,0a0,0,0,1,0,.07.07Z"/></g><g class="cls-4"><path class="cls-6" d="M136.51,77.14a.65.65,0,0,0,0-1.29.65.65,0,0,0,0,1.29Z"/></g><g class="cls-4"><path class="cls-6" d="M139.81,77.93a.86.86,0,0,0,0-1.71.86.86,0,0,0,0,1.71Z"/></g><g class="cls-4"><path class="cls-6" d="M136.48,70.82a.58.58,0,0,0,0-1.16.58.58,0,0,0,0,1.16Z"/></g><g class="cls-4"><path class="cls-6" d="M135.43,80.58a1,1,0,0,0,0-2,1,1,0,0,0,0,2Z"/></g><g class="cls-4"><path class="cls-6" d="M139,81.78a1,1,0,0,0,0-1.91,1,1,0,0,0,0,1.91Z"/></g><g class="cls-4"><path class="cls-7" d="M118.85,68.74a.54.54,0,0,0,0-1.08.54.54,0,0,0,0,1.08Z"/></g><g class="cls-4"><path class="cls-7" d="M129.14,68.75a.63.63,0,0,0,0-1.25.63.63,0,0,0,0,1.25Z"/></g><g class="cls-4"><path class="cls-7" d="M120.23,71.38a.68.68,0,0,0,0-1.36.68.68,0,0,0,0,1.36Z"/></g><g class="cls-4"><path class="cls-7" d="M131.89,75.75a.55.55,0,0,0,0-1.1.55.55,0,0,0,0,1.1Z"/></g><g class="cls-4"><path class="cls-7" d="M120,75.55l.07.08c.53.54,1.29-.46.62-.81l-.09,0a.5.5,0,0,0-.6.78Z"/></g><g class="cls-4"><path class="cls-7" d="M138.93,72.27a.11.11,0,0,0,0-.22.11.11,0,0,0,0,.22Z"/></g><g class="cls-4"><path class="cls-7" d="M140.9,74.77a.65.65,0,0,0,0-1.3.65.65,0,0,0,0,1.3Z"/></g><g class="cls-4"><path class="cls-7" d="M137.83,79.52a1.14,1.14,0,0,0,0-2.27,1.14,1.14,0,0,0,0,2.27Z"/></g><g class="cls-4"><path class="cls-7" d="M127.27,76.22a.77.77,0,0,0,0-1.54.77.77,0,0,0,0,1.54Z"/></g><g class="cls-4"><path class="cls-7" d="M122.94,72.91a.62.62,0,0,0,0-1.23.62.62,0,0,0,0,1.23Z"/></g><g class="cls-4"><path class="cls-7" d="M114.43,74.55a.77.77,0,0,0,0-1.53.77.77,0,0,0,0,1.53Z"/></g><path class="cls-8" d="M76.59,39.72c-2.25,1.84-.93,6.36,1.6,7.26a2.57,2.57,0,0,0,3.36-2,4.57,4.57,0,0,0-1.36-4.17,1.77,1.77,0,0,0-2.08-.26l-.12,0a1.47,1.47,0,0,0-.72,1.26c-.06.94.49,1.12,1,1.76.11.15.11.34.21.49-.09.34,0,.4.25.19.31-.05.33-.15.08-.28-.08-.25-.42-.51-.53-.77a2.55,2.55,0,0,1-.19-.91,13,13,0,0,1,.31-1.85c.11-1-1.16-1.24-1.78-.74Z"/><path class="cls-8" d="M77.51,40.66a2.32,2.32,0,0,0,1.34.62c.8.1,1-1.09.39-1.45A2.11,2.11,0,0,0,78,39.57c-.51,0-.91.7-.45,1.09Z"/><path class="cls-8" d="M84.62,43.16c-.79-.23-1.49.61-1.69,1.3a2.14,2.14,0,0,0,.61,2.18.64.64,0,0,0,.91-.91.93.93,0,0,1-.25-1c.15-.37.55-.51.73-.85a.51.51,0,0,0-.31-.75Z"/><path class="cls-8" d="M83.19,44.3l.07,0c-.22,0-.51.16-.55.42a3.53,3.53,0,0,0,1,2.92,3.35,3.35,0,0,0,3.48.46c3-1.3.25-6.18-2.26-4.65A.82.82,0,0,0,85.1,45a1.69,1.69,0,0,1,1.25.79c.31.57-.08.71-.62.72-1,0-1.88-.48-1.91-1.56a.54.54,0,0,0-.28-.49h0a.24.24,0,0,0-.4-.1Z"/><path class="cls-8" d="M85.4,44.11A1.49,1.49,0,0,0,84,45.82,1.8,1.8,0,0,0,86.3,47.2a1,1,0,0,0,.69-.9.92.92,0,0,0-.47-.81,1.33,1.33,0,0,0-.83-.08.14.14,0,0,1-.17-.13.76.76,0,0,1,.15-.52.39.39,0,0,0-.27-.65Z"/><path class="cls-8" d="M86.26,44.87l0-.06a.66.66,0,0,0-.58-.33,1,1,0,0,0-1,1.28,1.09,1.09,0,0,0,1.61.63.87.87,0,0,0,.31-1.16.79.79,0,0,0-.67-.42.92.92,0,0,0-.29,0,.54.54,0,0,0-.29.15c-.12.09-.11.09,0,0h.42l.27.24v.38c-.29.22-.31.26-.06.14a.65.65,0,0,0,.18-.15.61.61,0,0,0,.09-.72Z"/><path class="cls-8" d="M85.5,43.22a.82.82,0,0,0-.82-.31.73.73,0,0,0-.51.88.74.74,0,0,0,.89.51.85.85,0,0,0,.55-.67.45.45,0,0,0-.11-.41Z"/><path class="cls-8" d="M92.38,39.39l0-.09a.49.49,0,0,0-.43-.25,3.71,3.71,0,0,0-3.51,2.34,2.46,2.46,0,0,0,1.68,3.16,3.39,3.39,0,0,0,3.56-2c.73-1.28.58-3.22-1.24-3.3-1,0-1,1.58,0,1.59.52,0-.62,1.6-.8,1.76-.48.44-1.43.78-1.83,0C89,41.26,91.3,40.38,92.16,40a.5.5,0,0,0,.25-.43.41.41,0,0,0,0-.16Z"/><path class="cls-8" d="M92,40.34a4.94,4.94,0,0,0-.67.89,4.71,4.71,0,0,1-.36.42l-.23.22c-.2.08-.15.14.14.2v.4c.09-.4.73-.81,1-1.06a.76.76,0,0,0,0-1.07.78.78,0,0,0-1.07,0A3.63,3.63,0,0,0,89.41,42a1.2,1.2,0,0,0,1.14,1.48,2.63,2.63,0,0,0,2.25-2.92.5.5,0,0,0-.82-.21Z"/><path class="cls-8" d="M96,43.26c-.65.17-1,.87-1.32,1.43a3.72,3.72,0,0,0-.61,2,2,2,0,0,0,2.79,1.59A3.06,3.06,0,0,0,98.57,45c-.19-1.29-1.43-2.5-2.76-1.9a.75.75,0,0,0,0,1.29c.5.23,1.15.28,1.27.92a1.42,1.42,0,0,1-1,1.48c-1,.27-.51-1-.3-1.46s.72-1.08.69-1.7a.41.41,0,0,0-.5-.39Z"/><path class="cls-8" d="M96.75,44.54a2.21,2.21,0,0,0-1.58,1,1.24,1.24,0,0,0,.64,1.86,1.6,1.6,0,0,0,1.77-1.12c.21-.62.12-1.63-.67-1.78a.64.64,0,0,0-.63.17,1.88,1.88,0,0,0-.32.82s0,.11,0,.15-.14.09,0,.06h.48l.32.32c.09.16,0,.39.06.09,0-.11.07-.22.12-.33a3.29,3.29,0,0,1,.3-.55.47.47,0,0,0-.4-.7Z"/><path class="cls-8" d="M95,44a2.23,2.23,0,0,0-.69,3,.6.6,0,0,0,1.09-.46,2.46,2.46,0,0,1,.28-1.89A.5.5,0,0,0,95,44Z"/><path class="cls-8" d="M93.77,46a1,1,0,0,0,.29,1c.4.34,1.08-.09.76-.58a1.51,1.51,0,0,1-.2-.45.45.45,0,0,0-.85,0Z"/><path class="cls-9" d="M80.83,69.33l-1.48.46-1.65.65-1.1.9-.89,1.26-1.36,4.56v2.22l.11,3.31.69,1.16a10.23,10.23,0,0,0,1.77,1.24l2.43.47h1.79l2,.09,3.27.51,4.5.28,3.78-.62,2.07-1.16,1.15-1,.43-1.8.48-1.44.37-1.63.22-1.37-.13-1.81-.38-2.15-.56-1.16-.92-.52-.57-.25Z"/><polygon class="cls-10" points="78.37 62.73 76.39 62.96 74.54 63.76 73.34 64.6 72.04 65.49 70.64 67.6 70.06 69.67 69.58 72.1 69.22 74.11 69.04 76.28 69.37 77.7 70.26 79.95 71.49 81.78 72.67 82.69 73.84 83.85 74.74 83.61 74.46 81.81 74.31 80.31 74.31 79.04 74.31 77.74 74.46 76.55 74.54 75.21 75.71 72.6 76.98 71.16 78.2 70.11 79.72 69.33 81.15 69.32 80.22 67.34 79.54 65.7 79.12 64.04 79.12 62.73 78.37 62.73"/><polygon class="cls-11" points="80.36 61.1 82.53 60.53 84.59 60.01 87.32 59.98 90.28 60.33 92.91 61.68 95.64 63.84 97.08 66 98.09 68.66 97.67 70.69 96.09 72.1 94.56 73.1 93.01 73.83 90.62 74.53 87.89 74.11 85.96 73.9 85.11 73.29 82.86 71.86 81.34 69.67 80.22 67.6 79.54 65.7 79 64.37 79.12 62.73 79.56 61.41 80.36 61.1"/><path class="cls-12" d="M74.76,88.24s-2.79,3.4-2.14,6.69,2.53,2.72,2.53,2.72L79,96.1l1.48-2,1.57-2.24.81-1.53-2.5-.41-2.85-.54-1.58-.58Z"/><path class="cls-13" d="M115.17,66l1.72-10.35,1.25-3.52,1.58-2.86,1-2.12.75-1.16.87-1.14a16.1,16.1,0,0,0,2.23-.37c.2-.13,2.7-.87,2.7-.87l1.48.46,2.89,1.61,2.56,2.88,1.58,2.8,1.1,3.5.57,3.31,0,3.45-.54,2.55L135.78,68,134,67l-3.71-.54-6.86-.35-6-.1Z"/><polygon class="cls-13" points="113.17 77.7 115.7 77.88 118.85 78.41 122.69 79.01 126.53 79.95 131.1 80.37 133.53 80.83 134.1 83.68 133.87 87.81 133.22 89.93 132.07 92.67 131.3 94.28 130.23 96.95 128.7 99.47 127.03 102.54 125.77 105.1 124.28 107.17 122.69 108.9 119.75 109.6 117.44 108.97 115.21 107.47 114.03 103.92 113.69 102.17 112.9 98.67 112.14 94.28 111.52 90.71 111.52 86.91 111.52 83.28 112.14 80.83 112.93 78.61 113.17 77.7"/><polygon class="cls-14" points="121.19 78.71 121.19 81.09 120.89 84.11 120.36 88.01 120.22 91.81 119.59 95.77 118.86 99.47 118.35 102.17 117.74 105.05 117.27 106.66 116.8 107.85 119.13 108.85 119.89 106.85 120.02 104.85 120.67 100.58 121.52 95.74 122.47 91.94 123.57 87.55 124.48 83.45 125.18 81.09 125.77 79.53 121.19 78.71"/><path class="cls-14" d="M126,44.22l.53,1.66.25,1.75-.25,1.78-.53,2.4-.37,1.94-.55,2.7-.3,1.85-.57,3-.36,1.6-.22,1.47-.25,1.33,2.85.21.3-1.4.63-3.31.81-3.23,1.1-3.85.77-2.42.76-2.22s.79-.94.6-1.63-.54-2.17-.54-2.17l-.31-1-2.48-1.09Z"/><path class="cls-1" d="M123.05,48.58c-1,1.85-1.25,4-2,6-.71,1.8-1.72,3.63-1.25,5.58a.8.8,0,0,0,1.33.35c1.2-1.35,1.26-3.11,1.46-4.86.26-2.27,1-4.59,1-6.87a.3.3,0,0,0-.55-.15Z"/><path class="cls-1" d="M116.39,80.72c-1.51,1.45-1.58,3.92-1.87,5.91a15.93,15.93,0,0,0,.23,6.34.24.24,0,0,0,.43.06A24.35,24.35,0,0,0,117,86.35c.27-1.87.91-3.76.14-5.54a.45.45,0,0,0-.71-.09Z"/><path class="cls-1" d="M123,81.55A13.06,13.06,0,0,0,121.67,87c0,.15.24.25.32.08a13.42,13.42,0,0,0,.74-2.51c.24-1,.53-1.9.74-2.88,0-.24-.32-.43-.43-.18Z"/><path class="cls-1" d="M126.11,59.2a26.09,26.09,0,0,0,2.1-8c0-.3-.39-.31-.49-.06a40,40,0,0,0-1.91,8,.16.16,0,0,0,.3.08Z"/><path class="cls-1" d="M128.08,45.48a6.18,6.18,0,0,1,.39,1.52.11.11,0,0,0,.21,0,2,2,0,0,0-.34-1.67.15.15,0,0,0-.26.15Z"/><path class="cls-1" d="M71,28c1.18-.49,2.38-1,3.59-1.36s2.22-.54,3.28-1c.19-.08.07-.35-.1-.36-2.38-.16-5,1.08-6.92,2.38-.16.11-.06.43.15.34Z"/><path class="cls-1" d="M120.2,23.49c1.37.13,2.71.59,4.07.67.15,0,.26-.22.13-.32a5.72,5.72,0,0,0-4.2-.83.24.24,0,0,0,0,.48Z"/><path class="cls-15" d="M70.15,22.68a1.42,1.42,0,0,1-.24.25c-.17.15.19.36.22.1l.06-.33s0,0,0,0Z"/><path class="cls-15" d="M69.75,23a7.78,7.78,0,0,0-.47,1.56s0,.07.07,0a7.4,7.4,0,0,0,.84-1.41.24.24,0,1,0-.44-.19Z"/><path class="cls-15" d="M80.86,18.7a24.81,24.81,0,0,0-2.09,3.42c-.7,1.3-1.52,2.53-2.22,3.83-.06.11.1.25.18.14a52.52,52.52,0,0,0,4.91-6.79c.25-.47-.42-1.05-.78-.6Z"/><path class="cls-15" d="M75,20.71A12.65,12.65,0,0,0,72.56,25c-.07.16.14.38.27.21a12.76,12.76,0,0,0,2.57-4.24.22.22,0,0,0-.37-.22Z"/><path class="cls-15" d="M64.71,24.16a5.24,5.24,0,0,0-2.9,5.24c0,.13.23.12.26,0A11.58,11.58,0,0,1,63,26.65a15.94,15.94,0,0,1,1.84-2.26c.07-.1,0-.28-.13-.23Z"/><path class="cls-15" d="M128.79,17.23a16.52,16.52,0,0,0-1.1,2.79c-.45,1.15-1.09,2.17-1.6,3.3,0,.11.09.24.19.14a13.54,13.54,0,0,0,2-3,7.45,7.45,0,0,0,1.12-3.09.31.31,0,0,0-.57-.15Z"/><path class="cls-15" d="M123.8,17.13c-1.1,1.23-2.06,2.57-3.22,3.76a24,24,0,0,1-4.25,3.33.16.16,0,0,0,.16.27c2.86-1.61,6.05-4.2,7.58-7.15.09-.17-.13-.37-.27-.21Z"/><path class="cls-15" d="M119.93,15.76a6.52,6.52,0,0,0-2.19,1.86,11.63,11.63,0,0,0-2,2.34.2.2,0,0,0,.27.27,11.65,11.65,0,0,0,2.39-2,6.54,6.54,0,0,0,1.89-2.14.26.26,0,0,0-.32-.33Z"/><path class="cls-15" d="M136.17,22.35a11.33,11.33,0,0,0-2.92,3.29c-.05.11.06.27.18.19a11.76,11.76,0,0,0,2.8-3.43s0-.08-.06,0Z"/><path class="cls-15" d="M133.45,19.56c-.64.94-1.14,2-1.78,2.92a25.62,25.62,0,0,1-2.4,2.81.1.1,0,0,0,.13.16,10,10,0,0,0,4.53-5.68.27.27,0,0,0-.48-.21Z"/><path class="cls-15" d="M138.37,28.72a5,5,0,0,0-1,1.06.16.16,0,0,0,.22.23,5.29,5.29,0,0,0,1.06-1,.21.21,0,0,0-.29-.29Z"/><path class="cls-15" d="M133.22,50.11a13.54,13.54,0,0,0,1.44,2.61.06.06,0,0,0,.11,0,13.8,13.8,0,0,0-1.22-2.75c-.12-.23-.43,0-.33.19Z"/><path class="cls-15" d="M132.27,56.91a9.62,9.62,0,0,1,.79,1.53c.06.14.25.05.26-.07a1.46,1.46,0,0,0-.19-1,1.43,1.43,0,0,0-.73-.62c-.08,0-.19,0-.13.12Z"/><path class="cls-15" d="M132.28,60.91a14.19,14.19,0,0,0,1.5,1.86.1.1,0,0,0,.16-.12,13.46,13.46,0,0,0-1.53-1.84c-.06-.08-.19,0-.13.1Z"/><path class="cls-15" d="M128.14,87.05c.36.6.73,1.17,1.13,1.74a5.55,5.55,0,0,0,1.06,1.33.15.15,0,0,0,.23-.17,5.83,5.83,0,0,0-1.05-1.57c-.38-.51-.77-1-1.19-1.46a.11.11,0,0,0-.18.13Z"/><path class="cls-15" d="M126.39,90.88a5.45,5.45,0,0,0,.73,1.26,2.91,2.91,0,0,0,.85,1c.08,0,.2,0,.19-.11a2.71,2.71,0,0,0-.57-1.15,5.08,5.08,0,0,0-.9-1.16c-.12-.11-.36,0-.3.17Z"/><path class="cls-15" d="M124,95.7l.19,1.5s.09,0,.08,0l-.14-1.5c0-.08-.14-.08-.13,0Z"/><path class="cls-15" d="M122.28,107.47c1.28-1.07,3-2.36,3.39-4.06a.16.16,0,0,0-.26-.15,10.91,10.91,0,0,0-1.58,1.93,21.64,21.64,0,0,1-1.75,2.08c-.13.13.07.31.2.2Z"/><path class="cls-15" d="M119.24,104.65c.73-1.19,1.39-3.37.71-4.7a.17.17,0,0,0-.31,0,7,7,0,0,0-.34,2c-.11.86-.31,1.69-.45,2.54a.21.21,0,0,0,.39.16Z"/><path class="cls-15" d="M125.27,64.37a12.43,12.43,0,0,1,.15-1.83c.09-.51.32-1,.36-1.51a.26.26,0,0,0-.45-.18,4.45,4.45,0,0,0-.55,3.58c.06.29.48.21.49-.06Z"/><path class="cls-16" d="M61.59,34.41c-6.2-6.06,4.13-13.59,7.78-17.6a.25.25,0,0,0-.35-.36C65.1,20.2,54.8,28.77,61.46,34.54c.09.08.22,0,.13-.13Z"/><path class="cls-16" d="M68.78,16.7a228.27,228.27,0,0,1,23.3-6.46c.18,0,.1-.3-.07-.27a102.14,102.14,0,0,0-23.26,6.67,0,0,0,0,0,0,.06Z"/><path class="cls-16" d="M90.78,9.28c-2.6,4.6-1.92,9.7-1.41,14.77.67,6.56.94,13.31,2.23,19.77,0,.16.28.12.28,0-.09-5.58-1-11.22-1.67-16.77-.67-5.94-1.92-12,.71-17.65,0-.1-.09-.18-.14-.08Z"/><path class="cls-16" d="M92.15,44.11c6.39.79,13,1,19.4,1.29.32,0,.31-.47,0-.5-6.41-.52-13-1.06-19.4-1-.16,0-.15.21,0,.23Z"/><path class="cls-16" d="M110.78,45.21a124.18,124.18,0,0,0,2.13-15.6c.45-5.23-1-17.56,4.51-19.91.29-.12.08-.62-.21-.51-4.68,1.77-4.18,7-4.36,11.2-.37,8.32-1.51,16.52-2.25,24.79a.09.09,0,0,0,.18,0Z"/><path class="cls-16" d="M116.1,9.47A69.07,69.07,0,0,0,97.8,7.63c-3.12.1-6.67,0-8.47,2.88-.09.15.13.34.25.2C92.35,7.13,98.65,8,102.64,8.09A88.48,88.48,0,0,1,116,9.76c.19,0,.27-.25.08-.29Z"/><path class="cls-16" d="M116.45,9.59c5.58,1.28,11.34,2.27,16.82,3.92,6.94,2.08,6.23,11.65,7.38,17.51,0,.21.4.16.37-.05-.43-3.64-1-7.3-1.65-10.91-.4-2.12-.77-4.07-2.52-5.49-2-1.59-4.92-1.85-7.28-2.38-4.34-1-8.69-1.94-13-2.88-.18,0-.26.24-.08.28Z"/><path class="cls-16" d="M141.29,32.53a64.21,64.21,0,0,0-29.37-7.19.24.24,0,0,0,0,.48,81.65,81.65,0,0,1,29.35,6.77s.06,0,0-.06Z"/><path class="cls-16" d="M89.52,25C85.1,26.2,80.75,27.66,76.38,29c-5.1,1.6-10.72,4.28-16.18,3.36-.36-.06-.51.49-.15.55,4.49.69,8.47-.89,12.72-2.24,5.61-1.79,11.28-3.45,16.83-5.42.19-.07.11-.37-.08-.31Z"/><path class="cls-16" d="M65.24,34c-1.51,4.18,3.85,6.33,7.12,6.27a.25.25,0,0,0,.06-.5c-1.56-.39-3.16-.38-4.62-1.18a3.77,3.77,0,0,1-2.06-4.45c.11-.32-.39-.45-.5-.14Z"/><path class="cls-16" d="M72.2,40A8.58,8.58,0,0,0,79,43.79c.32,0,.3-.45,0-.49a10.78,10.78,0,0,1-6.6-3.4c-.09-.09-.25,0-.18.13Z"/><path class="cls-16" d="M78.77,44.11c3,1.77,7.39,1.53,9.86-1.09.12-.13,0-.36-.19-.26-3,2-6.13,2.62-9.5,1.07-.19-.09-.36.17-.17.28Z"/><path class="cls-16" d="M87.39,43.15c1.94,1.13,5.24,1.65,7-.09a.13.13,0,0,0-.13-.22,12.85,12.85,0,0,1-3.17.87,6.69,6.69,0,0,1-3.55-.85.17.17,0,0,0-.17.29Z"/><path class="cls-16" d="M110.88,44.63a6,6,0,0,0,7.41,0c.17-.15-.05-.43-.25-.31a6.11,6.11,0,0,1-7,.07c-.17-.11-.32.15-.16.27Z"/><path class="cls-16" d="M117.25,45.2c4.08.18,8.53-.17,12.23-2,.15-.07,0-.3-.11-.26-4.07,1.06-7.85,2.11-12.12,2a.14.14,0,0,0,0,.28Z"/><path class="cls-16" d="M129.11,43.26c2.56,0,5.37-1.71,6-4.31.06-.21-.27-.37-.37-.15-1.16,2.32-3,4-5.68,4.06a.2.2,0,0,0,0,.4Z"/><path class="cls-16" d="M135.05,39.35c3.69,1.41,4.8-4.34,4.72-6.77a.13.13,0,0,0-.25,0c-.74,2.33-.47,7.56-4.44,6.67-.08,0-.11.1,0,.13Z"/><path class="cls-16" d="M139.06,33.92A1.39,1.39,0,0,0,140.14,32a.23.23,0,0,0-.42.18,1.07,1.07,0,0,1-.72,1.46c-.17,0-.09.26.06.24Z"/><path class="cls-16" d="M73.25,15.11c-2.82,6.35-11.18,10.58-10,18.38,0,.16.27.09.24-.07-1.12-7.92,7.47-11.66,10-18.25,0-.09-.12-.15-.16-.06Z"/><path class="cls-16" d="M76.89,15A101,101,0,0,0,67.52,30.3c-.06.13.13.24.19.11A161.27,161.27,0,0,1,77,15.12C77.1,15,77,15,76.89,15Z"/><path class="cls-16" d="M81.94,14.15c-3.51,5.1-7,10.27-10,15.66a.15.15,0,0,0,.25.15c3.27-5.27,6.48-10.55,10-15.68.09-.13-.13-.26-.22-.13Z"/><path class="cls-16" d="M85.6,14.22c.11,6.34-7.72,8.51-8.82,14.46,0,.25.32.35.37.11,1.09-6,8.93-8.14,8.76-14.57a.16.16,0,1,0-.31,0Z"/><path class="cls-16" d="M117.86,13a0,0,0,1,0,0,0s0,0,0,0Z"/><path class="cls-16" d="M120.48,11.29c-1.49.81-2.7,2.39-3.91,3.58L112.36,19c-.18.17.09.44.26.27l4.23-4.14c1.2-1.19,2.8-2.37,3.64-3.85,0,0,0,0,0,0Z"/><path class="cls-16" d="M124.11,12.66a18,18,0,0,1-11.22,10.91c-.21.07-.12.4.09.33a17.54,17.54,0,0,0,11.37-11.17c.05-.16-.18-.21-.24-.07Z"/><path class="cls-16" d="M128.51,13.4c-2.44,4.88-5.3,9-9.9,12-.16.11,0,.36.15.26,4.32-2.93,8.23-7.22,9.86-12.26,0-.07-.08-.11-.11,0Z"/><path class="cls-16" d="M132.19,14.21c2.27,6.32-6.51,8.83-8.65,13.52a.12.12,0,0,0,.2.12c2.56-4.25,11-7.62,8.58-13.68,0-.08-.16-.05-.13,0Z"/><path class="cls-16" d="M136.27,15.25c.54,5.78-3.85,9.39-8,12.55-.18.14,0,.45.18.31,4.17-3.1,8.9-7.11,8-12.89,0-.1-.2-.08-.19,0Z"/><path class="cls-16" d="M137.88,21.83a22.86,22.86,0,0,1-5.51,6.48c-.12.1,0,.3.17.22a15.76,15.76,0,0,0,5.51-6.61.1.1,0,0,0-.17-.09Z"/><path class="cls-16" d="M139.21,25.55a12.85,12.85,0,0,1-2.65,2.61,25.86,25.86,0,0,1-3,1.6c-.11,0,0,.2.07.18a10.3,10.3,0,0,0,5.72-4.26c.07-.09-.09-.22-.16-.13Z"/><path class="cls-16" d="M88.45,17.91a70.08,70.08,0,0,0-4.83,7.52c-.05.11.09.25.18.14a67.62,67.62,0,0,0,4.88-7.52.13.13,0,0,0-.23-.14Z"/><path class="cls-16" d="M115.39,32.47c.84,3.23,5.41,4,7.84,2.24.41-.31,0-1-.42-.71-2.53,1.74-5.41.6-7.1-1.66a.18.18,0,0,0-.32.13Z"/><path class="cls-16" d="M126.11,35.48c2,2.79,7.67,2.65,9.72,0a.27.27,0,0,0-.32-.42c-1.61.85-2.92,1.66-4.83,1.63a12.36,12.36,0,0,1-4.47-1.33.08.08,0,0,0-.1.12Z"/><path class="cls-16" d="M122.32,40.06l-1-.24a.21.21,0,0,0-.24.1,2.14,2.14,0,0,0,1.17,2.92,2,2,0,0,0,2.65-1.59,2.13,2.13,0,0,0-1.6-2.67c-1-.21-2.81.41-2.88,1.67a.26.26,0,0,0,.45.18,4.27,4.27,0,0,1,.75-.89,2.06,2.06,0,0,1,1.2-.38,1.51,1.51,0,0,1,1.53,1.64c0,.86-.68,1.79-1.65,1.61a1.72,1.72,0,0,1-1.26-2.28l-.23.1,1,.14c.2,0,.29-.25.09-.31Z"/><path class="cls-16" d="M118.47,31c.93,1.09,3,1.75,4.14.55a.1.1,0,0,0-.1-.17c-1.39.43-2.78.65-3.94-.49-.07-.07-.16,0-.1.11Z"/><path class="cls-16" d="M127.16,33a40.66,40.66,0,0,0,4.38.81c.18,0,.21-.26,0-.31a39.57,39.57,0,0,0-4.35-.77c-.17,0-.25.23-.07.27Z"/><path class="cls-16" d="M85.63,29.25a1.87,1.87,0,0,1,1.14,1.32c.18.73-.21,1.13-.44,1.74a.93.93,0,0,0,.07,1c.72,1.16,3,1.86,4.26,1.83.12,0,.15-.19,0-.21a9.41,9.41,0,0,1-3.25-1.14c-.78-.51-.78-1-.56-1.85a5.62,5.62,0,0,0,.19-.58,2.13,2.13,0,0,0-1.36-2.29c-.11,0-.18.14-.08.19Z"/><path class="cls-16" d="M89.54,39.75a8.19,8.19,0,0,0-1.34-2.61,8.34,8.34,0,0,0-1.26-1.26c-1-.79-.91-.76-1.53-2.27-1.38-3.39-.47-.37-.44-2.41a6.27,6.27,0,0,0,0-1.37,3.92,3.92,0,0,0-1.44-2.26c-.17-.14-.4.09-.24.23,2.75,2.37-.22,4.37,1.29,6.59a5.45,5.45,0,0,0,1.32,1.16,9.75,9.75,0,0,1,3.43,4.26c.06.13.27.08.22-.06Z"/><path class="cls-16" d="M83.44,30.29c.61,1.47-2,2.4-2.13,3.76a3.79,3.79,0,0,0,.26,1c0,.19-.46.49-.55.72a1.88,1.88,0,0,0-.1,1,1.42,1.42,0,0,0,1,1.2.14.14,0,0,0,.11-.26,1.37,1.37,0,0,1,0-2.46.18.18,0,0,0,0-.3c-1.45-.84,1.18-2.7,1.53-3.29a1.3,1.3,0,0,0,.1-1.39c0-.13-.27,0-.22.09Z"/><path class="cls-16" d="M84.25,38.81a1.54,1.54,0,0,0-2.45-1.44c-1.69,1.19-.81,3.6.39,4.76.13.12.36,0,.25-.2C81.8,41,81,40,81.28,38.8a1.84,1.84,0,0,1,1.14-1.36,1.34,1.34,0,0,1,1.65,1.34.09.09,0,0,0,.18,0Z"/><path class="cls-16" d="M81.06,43.77a3.13,3.13,0,0,1,2.84-2.56c1.47-.1,2.23,1.74,3.14,2.68a.15.15,0,0,0,.24-.19,12.48,12.48,0,0,0-.87-1.19A7.37,7.37,0,0,0,85.2,41a2.51,2.51,0,0,0-1.67-.12,3.42,3.42,0,0,0-2.68,2.82c0,.14.18.2.21.06Z"/><path class="cls-16" d="M85,40.36a1.45,1.45,0,0,1,.86-2.08,3.89,3.89,0,0,1,2.71.55.14.14,0,0,0,.14-.24c-1-.68-2.44-1.15-3.48-.38a1.72,1.72,0,0,0-.53,2.32c.12.18.42,0,.3-.17Z"/><path class="cls-16" d="M84.61,34.82a1.34,1.34,0,0,0-2-.11,1.42,1.42,0,0,0,0,2.09c.1.08.29,0,.2-.15a1.33,1.33,0,0,1,0-1.67,1.41,1.41,0,0,1,1.7-.08s.11,0,.08-.08Z"/><path class="cls-16" d="M80.53,33.31a6.57,6.57,0,0,0-1.59-2.64l0,.27a25,25,0,0,0,2.46-1.76c.13-.11,0-.3-.18-.22a23.85,23.85,0,0,0-2.46,1.69.18.18,0,0,0,0,.27,5.75,5.75,0,0,1,1.54,2.47.15.15,0,0,0,.29-.08Z"/><path class="cls-16" d="M77.93,31.54a15,15,0,0,1-2.27,1.21c-.44.16-1,.28-1.37-.12a.67.67,0,0,1,.21-1.06c.12-.05.16-.25,0-.28-1-.19-.94,1.24-.43,1.71,1.11,1,3.06-.71,4-1.29a.1.1,0,0,0-.1-.17Z"/><path class="cls-16" d="M74.69,33.15a3.75,3.75,0,0,0-1.46.64c-.38.28-.61.8-1.06.88s-1.31-.5-1.81-.68c-.35-.12-.7-.24-1.06-.33s-.54-.13-.82-.18q-.93-.06-.9-1.38c.15,0,.18-.2.07-.26-.83-.51-1.28.5-1,1.2a1.93,1.93,0,0,0,.9.77c.61.26,1.47.22,2.12.42a14.2,14.2,0,0,1,2.51,1.06.19.19,0,0,0,.25-.06,3.58,3.58,0,0,1,2.25-1.92c.1,0,.06-.19,0-.16Z"/><path class="cls-16" d="M69.42,34.42a2.88,2.88,0,0,0-1.86,1.66,2.32,2.32,0,0,0,0,2.23c.06.08.22,0,.21-.09a4.44,4.44,0,0,1,0-1.92,2.68,2.68,0,0,1,1.63-1.66c.13,0,.08-.26-.06-.22Z"/><path class="cls-16" d="M68.86,37.32a2.16,2.16,0,0,1,2,1.31A2.3,2.3,0,0,1,70.66,41a.15.15,0,0,0,.24.19,2.26,2.26,0,0,0,.24-2.6,2.36,2.36,0,0,0-2.28-1.42.1.1,0,0,0,0,.2Z"/><path class="cls-16" d="M71.27,38.65c1.54-1.2,5.15-.27,5.27-3a2.13,2.13,0,0,0-1.07-2c-.37-.14-.83.15-.54.56a.09.09,0,0,0,.17-.07c-.07-.35.76.46.83.59A1.94,1.94,0,0,1,76.08,36a2.27,2.27,0,0,1-1.79,1.43c-1.09.32-2.23.31-3.16,1.06-.09.08,0,.2.14.13Z"/><path class="cls-16" d="M73.22,38.05a6.63,6.63,0,0,0,1.78,0c.21,0,.74-.27.94-.2.41.12.48.58.63.93.61,1.41,1.17,2.86,1.87,4.22.11.22.48.07.39-.16-.69-1.85-1.59-3.63-2.4-5.43a.21.21,0,0,0-.23-.09,6.07,6.07,0,0,1-3,.42c-.19,0-.19.27,0,.3Z"/><path class="cls-16" d="M78.18,38.55a3.41,3.41,0,0,1,2.06-1,9.74,9.74,0,0,1,1.79.13c.2,0,.27-.28.1-.38-1.33-.73-3.21.06-4.19,1.05-.15.15.09.39.24.24Z"/><path class="cls-16" d="M79.39,36.34,78,34.24l-.59-.9-.4-.6c-.33-.35-.25-.72.24-1.1.09.12.33.1.31-.08-.07-.81-1.16-.62-1.37,0s.52,1.58.9,2.14L79,36.57c.17.24.56,0,.4-.23Z"/><path class="cls-16" d="M79.14,34.89A3.63,3.63,0,0,1,80,33.58a11.85,11.85,0,0,1,1.12-.78c.16-.13,0-.34-.18-.31a2.7,2.7,0,0,0-1.32.92,3.88,3.88,0,0,0-.81,1.39c-.08.22.27.32.35.09Z"/><path class="cls-16" d="M110.74,39.68a7.71,7.71,0,0,1,2.56-.54,4.32,4.32,0,0,1,1.47.11c.31.27.2.67.23,1a5.73,5.73,0,0,0,1.25,3.26c.12.13.29,0,.23-.17a9.29,9.29,0,0,1-1.09-4.22.2.2,0,0,0-.14-.19,8.76,8.76,0,0,0-4.59.45c-.16.07-.09.33.08.27Z"/><path class="cls-16" d="M116.54,41.88a8,8,0,0,0,4.61.12.1.1,0,0,0,0-.19c-.71,0-1.41.09-2.12.06a10.6,10.6,0,0,1-2.37-.35.19.19,0,0,0-.09.36Z"/><path class="cls-16" d="M117.82,41.27c-.17.94-.33,2.14.41,2.91a1.39,1.39,0,0,0,2,.17.13.13,0,0,0-.16-.2,1.41,1.41,0,0,1-1.72-.63,4.19,4.19,0,0,1-.27-2.22.13.13,0,0,0-.25,0Z"/><path class="cls-16" d="M125.55,43.73a6.83,6.83,0,0,1,2.26-3.12c1.75-1.09,3.06.49,3.82,1.91.11.22.41,0,.32-.18-.64-1.43-1.89-2.92-3.63-2.43s-2.48,2.28-3,3.71c-.06.15.2.26.27.11Z"/><path class="cls-16" d="M113.78,39.6a5.88,5.88,0,0,1,2.71-1.26.18.18,0,0,0,.08-.3,7.88,7.88,0,0,0-4.78-2.95c-.14,0-.2.21-.07.27.79.38,1.63.62,2.4,1.08a10.8,10.8,0,0,1,2.2,1.85l.08-.29a5.29,5.29,0,0,0-2.74,1.49c-.07.07,0,.18.12.11Z"/><path class="cls-16" d="M112.77,30.71a4.79,4.79,0,0,1,2.83-1.47,8.65,8.65,0,0,0,2-.14,1.09,1.09,0,0,0,.59-.51,1.2,1.2,0,0,0,.1-.67,2.24,2.24,0,0,0-.08-.39c-.2-.44,0-.81.48-1.1.2.15.39-.16.25-.33a.59.59,0,0,0-.88-.09c-.61.43-.33.89-.34,1.48a2,2,0,0,1-1,1.31,3,3,0,0,1-.67,0,5.14,5.14,0,0,0-1.35.21,5.37,5.37,0,0,0-2.27,1.45c-.16.17.09.42.25.25Z"/><path class="cls-16" d="M118.3,28.85c1.38.87,3.07,1.92,4.79,1.51a2.76,2.76,0,0,0,2.25-2.71.25.25,0,0,0-.5,0,2.56,2.56,0,0,1-3,2.36,7.93,7.93,0,0,1-3.43-1.43.16.16,0,1,0-.16.27Z"/><path class="cls-16" d="M124.51,30a2.78,2.78,0,0,1,1.5.75c.23.28.08.43.41.73a1.62,1.62,0,0,0,1.26.33,8.1,8.1,0,0,1,2.6.1c.72.21,1.6.56,2.21-.07s.18-1.65-.32-2.29c-.13-.17-.34,0-.27.21.52.53.53,1,0,1.44-.17.59-.53.72-1.09.38-.42-.11-.84-.29-1.27-.36-.58-.1-3.4.3-3.12-.8a.16.16,0,0,0-.11-.2l-1.74-.5c-.17-.05-.25.22-.07.28Z"/><path class="cls-16" d="M133.53,32.58c.59-.85,1.47.81,1.88,1.11a1.39,1.39,0,0,0,1.07.22c.66-.13,1.57-.87,1.22-1.6a.15.15,0,0,0-.26,0c-.28.55-.44,1.2-1.2,1.23s-1-.79-1.53-1.21a1,1,0,0,0-1.47.08c-.12.18.17.35.29.17Z"/><path class="cls-16" d="M128.52,29.08c-1,.65-1.85,1.47-2.81,2.15l-.62.41a4.78,4.78,0,0,1-.42.26l-1.3-.31c-.25-.33.17-1.23.24-1.59a.19.19,0,0,0-.34-.14c-.55.82-.68,2.64.69,2.71.82,0,1.67-.75,2.27-1.19a11.12,11.12,0,0,0,2.4-2.19c.05-.07,0-.15-.11-.11Z"/><path class="cls-16" d="M113.35,30.74a2.61,2.61,0,0,0,3.3,3.55l-.25-.19a2,2,0,0,1-.3,1.42.19.19,0,0,0,.11.28,14.22,14.22,0,0,0,1.8.42.13.13,0,0,0,.07-.23,12.13,12.13,0,0,0-1.77-.56l.12.28a2.23,2.23,0,0,0,.36-1.61.2.2,0,0,0-.25-.19,2.23,2.23,0,0,1-2.87-3c.1-.21-.22-.4-.32-.18Z"/><path class="cls-16" d="M136.2,38.05a16.64,16.64,0,0,1-6.73.49c-.31,0-.32.47,0,.5a16.17,16.17,0,0,0,6.8-.76c.14-.05.08-.28-.07-.23Z"/><path class="cls-16" d="M127.09,41.2a10.6,10.6,0,0,0-4-2.87c-.16-.06-.25.19-.11.27a18.26,18.26,0,0,1,3.78,2.88c.18.19.45-.09.28-.28Z"/><path class="cls-16" d="M130.17,41.56a2.23,2.23,0,0,1,3.53,0c.09.1.21,0,.16-.12-.69-1.55-3.09-1.31-3.93-.07-.1.15.14.29.24.14Z"/><path class="cls-16" d="M74.83,43.8l-.36,0c-.07,0-.07.11,0,.11l.36,0s0-.07,0-.07Z"/><path class="cls-16" d="M74.83,42.93c-14.59,8.5-17.86,28.19-13,43.24a.25.25,0,0,0,.49-.13C58.87,69.72,60.64,53.64,75,43.25c.19-.14,0-.45-.19-.32Z"/><path class="cls-16" d="M62.59,86.73c-1-7.83-.34-15.49,3.26-22.64C70.59,54.71,77.85,50,88.4,50c9.82,0,16.44,4.7,19,14.22a87.8,87.8,0,0,1,1.79,9.66c.74,5,2.34,10.6.74,15.48-.13.4.49.56.63.17,1.67-4.47.26-9.36-.42-13.93-.74-5-1.26-10.21-3.13-15-3.09-7.84-9.62-11.22-17.83-11.37-9.57-.17-16.66,3-22,11.08a34.73,34.73,0,0,0-5,26.4c0,.19.38.16.35,0Z"/><path class="cls-16" d="M99.32,45.6c10.36,3.49,9.84,21.19,10.38,30.13a.28.28,0,0,0,.56,0,68.41,68.41,0,0,0-2.55-22.31C106.47,49.3,104,45.52,99.4,45c-.34,0-.36.46-.08.56Z"/><path class="cls-16" d="M61.62,86.26C68.16,93.38,77,93.36,86,93.48c7.8.1,18.18,1.7,24.38-4.24.35-.33-.15-.79-.51-.51C103.11,94,94,92.69,86,92.6c-9.14-.09-16.88-.35-24.17-6.55a.15.15,0,0,0-.21.21Z"/><path class="cls-16" d="M77.7,39.45c-3.39.8-2.8,6.66,0,7.92a2.89,2.89,0,0,0,3.71-1.19c1.09-1.78.39-3.87-.56-5.55a.38.38,0,0,0-.65.38c.65,1.25,1.31,2.69.85,4.11a2.22,2.22,0,0,1-3.61,1.16c-1.89-1.51-1.7-5.27.48-6.41a.23.23,0,0,0-.18-.42Z"/><path class="cls-16" d="M85.21,43.39C84,42.18,82,43.44,81.92,45c-.12,2.29,2.79,4.08,4.85,3.56,1.81-.46,2.48-2.73,1.7-4.32-1-2-3.65-2.26-5.53-1.45-.5.22-.07,1,.44.74a3.58,3.58,0,0,1,3.89.48,2.44,2.44,0,0,1,.07,3.28c-1.18,1.22-3.49.15-4.27-1.07a1.76,1.76,0,0,1-.11-2,1.65,1.65,0,0,1,2.11-.69.12.12,0,0,0,.14-.19Z"/><path class="cls-16" d="M88.73,40.1a3.07,3.07,0,0,0-.44,4.08,3.26,3.26,0,0,0,4.49.51c1.4-1,2.49-3.12,1.7-4.83-.57-1.22-2.41-2.19-3.54-1.14a.35.35,0,0,0,.34.58c1.26-.33,2.49.14,2.61,1.62A3.72,3.72,0,0,1,92.26,44c-2.42,1.73-5.08-1.42-3.28-3.66.14-.17-.08-.41-.25-.25Z"/><path class="cls-16" d="M94.24,44.2a2.88,2.88,0,0,0,0,4.31c1.58,1.37,3.95.26,4.72-1.46a3.21,3.21,0,0,0-2.4-4.41,2.52,2.52,0,0,0-2.67,3.44c.15.3.57.08.51-.21a2,2,0,0,1,2.69-2.25,2.44,2.44,0,0,1,.75,3.76,2.19,2.19,0,0,1-3.47.21,2.27,2.27,0,0,1,.11-3.13c.18-.16-.08-.41-.26-.26Z"/><path class="cls-16" d="M80.64,60.46c-4,1.87-.27,8.33,1.43,10.62,3,4,8.2,4.61,12.44,2.36,1.33-.7,3.63-2,4-3.61.5-2-1.64-4.63-2.78-6-4-4.74-9.87-5.14-15.44-3a.2.2,0,0,0,.1.38c4.09-.85,7.89-2,11.76.26,3.71,2.22,8,7.92,2.56,11.14-4.21,2.5-9.75,2-12.71-2.21C80.2,67.85,77.6,63,80.69,60.54c0,0,0-.1,0-.08Z"/><path class="cls-16" d="M83.4,62.19a1.93,1.93,0,0,0-.08-.48.43.43,0,0,0-.82,0,1.55,1.55,0,0,0-.07.48.49.49,0,0,0,1,0Z"/><path class="cls-16" d="M86.22,62.68a.49.49,0,0,0,0-1,.49.49,0,0,0,0,1Z"/><path class="cls-16" d="M90.62,64.4s0,0,0,0,0,0,0,0Z"/><path class="cls-16" d="M95,67a.43.43,0,0,0,0-.85A.43.43,0,0,0,95,67Z"/><path class="cls-16" d="M91.36,69.91s0,0,0,0,0,0,0,0Z"/><path class="cls-16" d="M87,67.33a.37.37,0,0,0,0-.74.37.37,0,0,0,0,.74Z"/><path class="cls-16" d="M91,65.23a.83.83,0,0,0,.1.34.28.28,0,0,0,.53,0,.83.83,0,0,0,.1-.34.38.38,0,1,0-.73,0Z"/><path class="cls-16" d="M88.42,71.38s0,0,0,0,0,0,0,0Z"/><path class="cls-16" d="M84.38,66.3a.44.44,0,0,0,0-.88.44.44,0,0,0,0,.88Z"/><path class="cls-16" d="M84.4,70.3l.73-.37a0,0,0,0,0,0-.06l-.74.36s0,.09,0,.07Z"/><path class="cls-16" d="M87.32,64.47a.45.45,0,0,0,0-.89.45.45,0,0,0,0,.89Z"/><path class="cls-16" d="M90,69a1.3,1.3,0,0,0-.15-.43.37.37,0,0,0-.64,0,1.3,1.3,0,0,0-.15.43A.48.48,0,1,0,90,69Z"/><path class="cls-16" d="M89.05,63.79a1,1,0,0,0,.26.44.29.29,0,0,0,.42,0,1,1,0,0,0,.26-.44c.27-.78-1.22-.79-.94,0Z"/><path class="cls-16" d="M81.44,65.59H82a.46.46,0,0,0,0-.92,3.35,3.35,0,0,0-.55,0,.47.47,0,0,0,0,.93Z"/><path class="cls-16" d="M84,70.37a.47.47,0,0,0,0-.94.47.47,0,0,0,0,.94Z"/><path class="cls-16" d="M94.05,69.85a2.46,2.46,0,0,1-.27.17.29.29,0,0,0,0,.5,1.11,1.11,0,0,1,.27.17.49.49,0,0,0,.73-.42c0-.34-.43-.65-.73-.42Z"/><path class="cls-16" d="M93.93,66.7a.48.48,0,0,0,0-1,.48.48,0,0,0,0,1Z"/><path class="cls-16" d="M88.05,72.59a.49.49,0,0,0,0-1,.49.49,0,0,0,0,1Z"/><path class="cls-16" d="M81.41,69.32c-5.52-.53-7,5-7.15,9.47-.24,6.9.66,6.16,7.45,6.95,4.81.56,13.5,2.9,16.74-2.46,1.26-2.09,1.57-7.39.82-9.47a3,3,0,0,0-2.72-2.42c-.31-.06-.44.42-.13.47,2.9.51,2.61,4.43,2.37,6.4-.47,3.89-1.16,6.44-4.94,7.54-3.15.92-7.08,0-10.28-.36-3.49-.36-7.94-.3-9-4.44-1.12-4.55,1.57-11.46,6.8-11.54.09,0,.08-.13,0-.14Z"/><path class="cls-16" d="M79.73,62.83c-4.63-1.57-9,2.48-10,6.79-1.38,6.11-1.52,10.22,3.88,14.07.26.19.5-.24.25-.43-3.39-2.43-4.75-4.43-4.42-9.09a27.63,27.63,0,0,1,.65-3.85c1.17-5.13,4.57-6.93,9.61-7.42a0,0,0,0,0,0-.07Z"/><path class="cls-16" d="M76.92,72c5.12-.37,8,4.17,12.33,5.91a14.85,14.85,0,0,0,10,.32.15.15,0,0,0-.08-.28c-6.56,1.47-10.42-.67-15.61-4.27-2.17-1.5-4-2.37-6.63-1.84-.09,0-.07.17,0,.16Z"/><path class="cls-16" d="M77.53,72.8c5.71-1.35,8.2,4.29,12.48,6.55a10.27,10.27,0,0,0,8.3.53.12.12,0,0,0-.07-.23A10.88,10.88,0,0,1,88.71,78c-1.62-1.16-2.86-2.76-4.45-4-2.08-1.56-4.29-2.32-6.77-1.4a.08.08,0,0,0,0,.15Z"/><path class="cls-16" d="M76.34,73.2c5.71-.44,7.59,6.1,11.85,8.55a13.05,13.05,0,0,0,8.7,1.45c.25,0,.14-.42-.1-.38-6.17.92-9.79-2.09-13.5-6.47-1.9-2.24-3.9-3.8-7-3.49-.22,0-.22.36,0,.34Z"/><path class="cls-16" d="M75.93,74c5.06,0,6.86,6,10.54,8.54a14.35,14.35,0,0,0,8.58,2.55.17.17,0,0,0,0-.34,15.9,15.9,0,0,1-7.41-2c-2.63-1.55-3.91-3.75-5.86-6-1.64-1.89-3.28-3.13-5.85-3.06-.16,0-.17.26,0,.26Z"/><path class="cls-16" d="M74.76,75.72c5.69.17,5.42,9.14,11.2,9.15a.22.22,0,0,0,0-.44c-5.57-.15-5.41-9.28-11.2-9a.13.13,0,0,0,0,.25Z"/><path class="cls-16" d="M75.12,76c4.65,1.13,3.14,9.08,8.18,9.46.17,0,.21-.26,0-.3-4.7-1.13-3.29-8.68-8.16-9.38-.14,0-.21.18-.06.22Z"/><path class="cls-16" d="M74.76,78.39A45.61,45.61,0,0,0,79,84.76c.11.13.3,0,.22-.17a46.49,46.49,0,0,0-4.34-6.31c-.07-.08-.19,0-.14.11Z"/><path class="cls-16" d="M82.85,53.15a4.11,4.11,0,0,1,2.66-.87c.78.18,1.42,1.24.68,1.85-.2.16.07.51.29.36a1.44,1.44,0,0,0-.22-2.29c-1.17-.9-2.55.14-3.46.88,0,0,0,.09,0,.07Z"/><path class="cls-16" d="M93.53,55.49c-.15-.85.88-1.78,1.69-1.24a1.32,1.32,0,0,1,.23,1.82c-.08.14.09.35.24.24.87-.62.4-2.14-.47-2.5a1.56,1.56,0,0,0-2,1.77c0,.22.36.13.33-.09Z"/><path class="cls-16" d="M99.74,59.44c.26-.59,1.08-.47,1.47-.07.59.64.26,1.67.11,2.4a.22.22,0,0,0,.43.12c.27-.93.48-2.34-.45-3a1.27,1.27,0,0,0-1.91.33c-.11.24.25.45.35.2Z"/><path class="cls-16" d="M102.78,68.66c.28,0,.56,0,.84,0a1.45,1.45,0,0,1,1,.75c.41.82-.17,1.52-.84,1.93a.19.19,0,0,0,.15.34,1.76,1.76,0,0,0,1.13-2.33c-.28-.71-1.65-1.61-2.32-.85,0,0,0,.12,0,.13Z"/><path class="cls-16" d="M104.63,78.55a1.65,1.65,0,0,1,1.9,1.2,1.55,1.55,0,0,1-1.27,1.76c-.28,0-.16.52.12.44a2,2,0,0,0,1.48-2.29,1.89,1.89,0,0,0-2.29-1.33c-.15,0-.08.24.06.22Z"/><path class="cls-16" d="M104.81,83.89a1.41,1.41,0,0,1-1.64,1.57c-.29,0-.42.39-.13.44a1.81,1.81,0,0,0,2-2.08c0-.16-.26-.09-.24.07Z"/><path class="cls-16" d="M73.25,62.73c-.83-.63-1.53-1.88-.94-2.9a1.51,1.51,0,0,1,2.31-.38c.13.12.39-.05.27-.21a1.8,1.8,0,0,0-2.75.21c-.91,1.17,0,2.75,1,3.49.13.09.24-.12.12-.21Z"/><path class="cls-16" d="M75.12,59.15a2.5,2.5,0,0,1,.62-2.78c1-.88,2.11-.53,3.16,0a.13.13,0,0,0,.16-.21A2.66,2.66,0,0,0,75.65,56a2.83,2.83,0,0,0-.86,3.29c.08.21.41.12.33-.09Z"/><path class="cls-16" d="M79.91,59.25a1.67,1.67,0,0,1,1.46-1.62,1.75,1.75,0,0,1,1.73,1.3c.06.18.3.11.28-.08a1.87,1.87,0,0,0-2-1.49,1.93,1.93,0,0,0-1.65,1.89c0,.14.22.14.23,0Z"/><path class="cls-16" d="M70.06,63.67a1.86,1.86,0,0,0-2.91.58A1.83,1.83,0,0,0,69,66.76c.13,0,.13-.26,0-.28-.92-.13-1.87-1.11-1.41-2.08a1.59,1.59,0,0,1,2.31-.5c.14.09.29-.11.18-.23Z"/><path class="cls-16" d="M66.05,70.21c.68,0,1.42.75,1,1.41a1,1,0,0,1-.78.39,1.5,1.5,0,0,1-.71-.24.22.22,0,0,0-.3.3c.48.83,1.88.38,2.2-.36A1.34,1.34,0,0,0,66,69.93c-.16,0-.12.3,0,.28Z"/><path class="cls-16" d="M63,77c.49.16,1.17.38,1.35.93s-.19.75-.59.94a.15.15,0,0,0,0,.25c.59.4,1-.55.95-1-.09-.79-1-1.07-1.68-1.23A.06.06,0,0,0,63,77Z"/><path class="cls-16" d="M63.83,87.88a2.76,2.76,0,0,1,4.3,1.52c.07.29.5.16.44-.13a3.15,3.15,0,0,0-5-1.63c-.17.15.07.38.24.24Z"/><path class="cls-16" d="M71.75,91.25A1.87,1.87,0,0,1,73.92,90a1.91,1.91,0,0,1,1.31,2c0,.23.34.22.36,0a2.05,2.05,0,0,0-4-.71.1.1,0,1,0,.19,0Z"/><path class="cls-16" d="M80.38,92a2,2,0,0,1,1.92-1.7,2.23,2.23,0,0,1,2,1.66c0,.12.26.12.25,0a2.2,2.2,0,0,0-2.12-2,2.34,2.34,0,0,0-2.34,2c0,.2.27.29.31.08Z"/><path class="cls-16" d="M89.62,90.4l-1.05-1.79-.13.23c.65,0,1.53-.14,2,.37a.86.86,0,0,1-.27,1.41c-.1,0-.14.22,0,.24.78.13,1-.9.79-1.46-.37-1-1.69-1-2.55-.87a.16.16,0,0,0-.14.23c.37.59.74,1.18,1.1,1.77a.13.13,0,0,0,.22-.13Z"/><path class="cls-16" d="M82.5,88.88c.63.11.61.77.37,1.21a.09.09,0,0,0,.12.12c.74-.34.23-1.49-.42-1.6-.18,0-.25.24-.07.27Z"/><path class="cls-16" d="M76.27,86.9c.48.16,1,.3,1.43.47l-.11-.19a.9.9,0,0,0,.5,1.22c.12,0,.18-.12.11-.2a1.19,1.19,0,0,1-.31-.94.16.16,0,0,0-.11-.18c-.49-.12-1-.27-1.45-.41a.12.12,0,0,0-.06.23Z"/><path class="cls-16" d="M94.43,89.31a1.84,1.84,0,0,1,.74-2.16l-.16,0c.22.51.43,1,.61,1.55a.18.18,0,1,0,.33-.14c-.27-.49-.51-1-.74-1.52a.13.13,0,0,0-.16,0,2,2,0,0,0-.76,2.39c0,.09.18.05.14,0Z"/><path class="cls-16" d="M95.61,92.73c.72-1.83,2.55-5.63,5-3.93,1.46,1,2.65,2.46,4.15,3.43a.23.23,0,0,0,.31-.32,11.4,11.4,0,0,0-2.86-2.72c-.8-.62-2-1.79-3.11-1.68-2,.21-3.29,3.55-3.84,5.11-.1.25.3.35.39.11Z"/><path class="cls-16" d="M99.26,85.68c0-.33,0-.68.09-1l-.4.16c.34.35.69.69,1,1s.58-.13.35-.35l-1.06-1a.24.24,0,0,0-.4.17c0,.34,0,.68-.07,1s.43.29.45,0Z"/><path class="cls-16" d="M104.57,86a1.42,1.42,0,0,0-.91,1.46.21.21,0,0,0,.21.21,11.71,11.71,0,0,1,2.1.44c.23.06.4-.29.17-.4a5.72,5.72,0,0,0-2.27-.46l.2.16a1.1,1.1,0,0,1,.57-1.24c.09-.05,0-.21-.07-.17Z"/><path class="cls-16" d="M99.64,72.63a3.38,3.38,0,0,1,.76,3.85c-.06.18.21.28.31.13a3.46,3.46,0,0,0-.84-4.2c-.15-.14-.38.08-.23.22Z"/><path class="cls-16" d="M99.06,64a1.61,1.61,0,0,1,1.32,1.26c.18.69-.12,1-.38,1.63,0,.1,0,.27.17.21.72-.29.72-1.37.52-2a1.92,1.92,0,0,0-1.63-1.41c-.2,0-.19.28,0,.3Z"/><path class="cls-16" d="M66.39,80.67a8.51,8.51,0,0,0-1,0,.31.31,0,0,0-.25.14A2.1,2.1,0,0,0,65.49,83c.45.54,1.45,1.11,2.12.64.15-.11.17-.42-.06-.46-.6-.1-1-.07-1.51-.54A1.51,1.51,0,0,1,65.66,81l-.28.21a9.83,9.83,0,0,0,1.07-.15c.25,0,.18-.43-.06-.43Z"/><path class="cls-16" d="M70.43,47.07a6.87,6.87,0,0,1,5.49,4c.19.44.84.06.65-.38a6,6,0,0,0-6.14-3.74.09.09,0,0,0,0,.17Z"/><path class="cls-16" d="M67.43,49.54A9.2,9.2,0,0,1,73,54a.32.32,0,0,0,.55-.32,9.12,9.12,0,0,0-6-4.63.28.28,0,0,0-.15.53Z"/><path class="cls-16" d="M67,51.93a4.37,4.37,0,0,1,2.49,1.34,9.92,9.92,0,0,1,1.29,2.37.16.16,0,0,0,.29,0c.45-2.1-2.09-4-3.91-4.27-.39-.06-.56.54-.16.6Z"/><path class="cls-16" d="M64.09,54.11a6.89,6.89,0,0,1,4.32,4.08c.15.38.77.22.62-.17a7.39,7.39,0,0,0-4.79-4.49c-.36-.11-.52.46-.15.58Z"/><path class="cls-16" d="M63.3,58.79A7.43,7.43,0,0,1,65.23,60c.55.48.9,1.11,1.41,1.6.18.17.52,0,.43-.25-.49-1.39-2.19-2.5-3.48-3.05-.34-.14-.63.35-.29.5Z"/><path class="cls-16" d="M61.94,60.13A4.94,4.94,0,0,1,64,61.42a4.28,4.28,0,0,1,.67.95,9.41,9.41,0,0,0,.42,1,.24.24,0,0,0,.44-.12A3.35,3.35,0,0,0,64.3,61,4,4,0,0,0,62,59.87c-.16,0-.17.22,0,.26Z"/><path class="cls-16" d="M60.08,63.58A9,9,0,0,1,64.55,67a.24.24,0,0,0,.42-.24,6.48,6.48,0,0,0-4.86-3.25c-.07,0-.1.09,0,.11Z"/><path class="cls-16" d="M60.74,67.47c1,.87,1.88,1.81,2.88,2.63.26.23.64-.13.39-.39-.94-.9-2-1.71-2.94-2.57-.22-.19-.54.13-.33.33Z"/><path class="cls-16" d="M100.49,46.4a24.53,24.53,0,0,1,.55,2.71,22.69,22.69,0,0,1-.24,2.47.22.22,0,0,0,.4.11,5.44,5.44,0,0,0-.52-5.4c-.09-.1-.21,0-.19.11Z"/><path class="cls-16" d="M102.46,49.05a46.32,46.32,0,0,1,.41,4.7c0,.24.4.34.46.06A12.16,12.16,0,0,0,103,48.9c-.07-.37-.63-.21-.55.15Z"/><path class="cls-16" d="M105,51.62c.69,2.36.15,4.26-.67,6.49-.1.27.29.37.43.18,1.44-1.88,1.43-4.65.76-6.82a.27.27,0,0,0-.52.15Z"/><path class="cls-16" d="M106.94,54.9a16.72,16.72,0,0,1-.16,6.46.31.31,0,0,0,.6.16,11.61,11.61,0,0,0-.21-6.68.12.12,0,0,0-.23.06Z"/><path class="cls-16" d="M121.29,45.88A36.93,36.93,0,0,0,114.8,66c0,.47.72.47.74,0a41.29,41.29,0,0,1,6.11-19.91c.14-.23-.21-.42-.36-.21Z"/><path class="cls-16" d="M127.59,43.85c9.19,4,11.32,14.62,7.94,23.43-.16.41.5.59.65.18,3.2-8.45,1.72-21.35-8.4-24-.25-.07-.45.33-.19.44Z"/><path class="cls-16" d="M131.16,45.38c4.31-.61,7.34,7.27,8.63,10.29a32.7,32.7,0,0,1,2.47,15.11c0,.4.6.4.63,0a34.38,34.38,0,0,0-4.47-19.12c-1.48-2.71-3.38-7.84-7.29-6.39a.06.06,0,0,0,0,.11Z"/><path class="cls-16" d="M140.94,83.67a4.16,4.16,0,0,1,0,2.13,1.19,1.19,0,0,1-1.5.84c-.35-.13-.52.46-.16.57a1.7,1.7,0,0,0,1.9-.76,3.51,3.51,0,0,0,.06-2.86.16.16,0,0,0-.3.08Z"/><path class="cls-16" d="M139.41,86.91A14.14,14.14,0,0,1,137.17,95c-.19.29.29.58.48.28a12.38,12.38,0,0,0,2-8.45c0-.16-.28-.11-.28,0Z"/><path class="cls-16" d="M136.62,95.74c0,.6-.05,1.19-.09,1.79l.21-.21h-1c-.39,0-.34.6.07.54s.65-.1,1-.13c.12,0,.21-.09.21-.21,0-.6,0-1.19,0-1.79,0-.23-.34-.22-.35,0Z"/><path class="cls-16" d="M135.52,97.47a12.19,12.19,0,0,1-9,6.11c-.48.06-.39.78.09.67a13.8,13.8,0,0,0,9.18-6.61.16.16,0,0,0-.28-.17Z"/><path class="cls-16" d="M135.28,70a44.23,44.23,0,0,0-2.17,7.29c-.09.35.46.49.52.15a71,71,0,0,1,2-7.31c.06-.18-.24-.32-.32-.13Z"/><path class="cls-16" d="M115.13,66.36c2.91.67,6,.32,9,.38,3.49.08,7,.25,10.48.43.52,0,.51-.76,0-.8-6-.49-13.64-1.69-19.49-.1a0,0,0,0,0,0,.09Z"/><path class="cls-16" d="M135.33,67.32a.22.22,0,0,0,0-.43.22.22,0,0,0,0,.43Z"/><path class="cls-16" d="M134.15,67.25c2.33,1.75,4.82,3.3,7.27,4.89.4.26.77-.38.37-.64-2.44-1.59-4.86-3.24-7.41-4.65a.23.23,0,0,0-.23.4Z"/><path class="cls-16" d="M141.86,71.47c-.62,3.78-1,7.56-1.77,11.32-.07.34.45.48.52.14a47.92,47.92,0,0,0,1.57-11.42c0-.17-.29-.23-.32,0Z"/><path class="cls-16" d="M140.33,84.22c-2.25-3.39-6.9-3.42-10.56-4.16-5.64-1.14-11.41-2.81-17.21-2.68a.36.36,0,0,0,0,.72c4.89-.06,9.66,1.19,14.43,2.15,3.94.79,10.3.87,12.94,4.28.18.22.55-.07.4-.31Z"/><path class="cls-16" d="M113.51,77.74A62.56,62.56,0,0,1,114.2,66c0-.28-.42-.33-.49-.06a32.85,32.85,0,0,0-.49,11.82c0,.18.31.19.29,0Z"/><path class="cls-16" d="M134,70.77c-.11,1.17-.1,2.35-.24,3.52a34.06,34.06,0,0,0-.54,3.46.25.25,0,0,0,.46.12c1.05-1.9,1.11-5.06.73-7.15-.05-.25-.39-.16-.41,0Z"/><path class="cls-16" d="M112.9,77.83c-2.74,7.45-1.53,13.77,0,21.35.73,3.56.92,10.77,5.79,11.38s7.36-5.61,9.13-8.87c3-5.52,7.61-12.24,6.27-18.78a.17.17,0,0,0-.33,0c.4,5.6-2.24,10.32-4.72,15.14q-1.5,2.89-3.1,5.73c-.37.67-.75,1.33-1.15,2q-2.89,6.06-10-.35c-1.6-3-1.86-8.31-2.47-11.57-1.07-5.75-1.07-10.42.81-16,0-.14-.16-.19-.21-.06Z"/><path class="cls-16" d="M126.49,45.42c.72,3-1,7.62-1.56,10.67s-1.1,5.82-1.63,8.74c0,.24.33.35.37.1.8-4.12,1.57-8.24,2.34-12.37.42-2.22,1.64-5,.57-7.17,0,0-.1,0-.09,0Z"/><path class="cls-16" d="M130.36,49.43a120,120,0,0,0-4.42,16.14c-.06.32.43.45.49.14a111.5,111.5,0,0,1,4.31-16.18c.09-.24-.29-.34-.38-.1Z"/><path class="cls-16" d="M121.39,79.93c-2,9.33-2,19-4.78,28.18-.07.24.3.34.39.1,3-8.62,4-19.14,4.52-28.26a.07.07,0,0,0-.13,0Z"/><path class="cls-16" d="M125.11,81.07c-3.11,8.38-4.59,17.55-5.6,26.4,0,.31.44.3.48,0,1.05-9,3.23-17.55,5.26-26.36a.07.07,0,0,0-.14,0Z"/><path class="cls-16" d="M120.87,50.22a15.92,15.92,0,0,0,5.15-.34c.07,0,0-.1,0-.09a25.21,25.21,0,0,1-5.13.35,0,0,0,0,0,0,.08Z"/><path class="cls-16" d="M121.24,52.78s0,0,0,0a0,0,0,0,0,0,0Z"/><path class="cls-16" d="M117.74,56.56c1.7-.64,3.46-1.21,5.11-2a.07.07,0,0,0-.06-.13c-1.72.54-3.4,1.31-5.08,2-.08,0,0,.15,0,.12Z"/><path class="cls-16" d="M118.82,58l2.57-1.11s0,0,0,0l-2.58,1.09s0,.06,0,.05Z"/><path class="cls-16" d="M116.61,60.51c2.09-1.07,4.27-2,6.28-3.26.09,0,0-.18-.09-.14-2.13,1-4.16,2.22-6.22,3.35,0,0,0,.06,0,0Z"/><path class="cls-16" d="M115.9,62.06c1.84-.73,3.72-1.41,5.52-2.22a.1.1,0,0,0-.07-.18c-1.86.66-3.67,1.47-5.5,2.22-.11,0-.06.23.05.18Z"/><path class="cls-16" d="M118.1,63.16c1.48-.59,3-1.16,4.44-1.81.06,0,0-.13-.05-.11-1.49.54-3,1.16-4.43,1.76-.1,0-.06.2,0,.16Z"/><path class="cls-16" d="M116.64,64.66a16,16,0,0,0,5.14-1.53c.08,0,0-.18-.06-.14a22.88,22.88,0,0,1-5.13,1.5c-.12,0-.07.19,0,.17Z"/><path class="cls-16" d="M131.6,53.19A44.08,44.08,0,0,1,135,59c.05.1.23,0,.19-.08a23.55,23.55,0,0,0-3.49-5.82c0-.05-.12,0-.08.06Z"/><path class="cls-16" d="M130.4,55.81A22.58,22.58,0,0,0,135.32,62c.09.07.22,0,.13-.13a32.54,32.54,0,0,1-4.93-6.1c0-.08-.16,0-.12.07Z"/><path class="cls-16" d="M130.53,59.43a62.56,62.56,0,0,0,4.76,5.14c.07.07.21,0,.14-.11a62.93,62.93,0,0,0-4.78-5.16c-.08-.09-.2,0-.12.13Z"/><path class="cls-16" d="M130.55,62a46,46,0,0,0,3.6,4.49.1.1,0,0,0,.16-.12,46.88,46.88,0,0,0-3.66-4.44c0-.06-.14,0-.1.07Z"/><path class="cls-16" d="M129.8,63.47c1.18.91,2.34,1.88,3.58,2.7a.08.08,0,0,0,.09-.12c-1.14-1-2.41-1.79-3.61-2.68-.06,0-.12.06-.06.1Z"/><path class="cls-16" d="M128.11,83.85a62.55,62.55,0,0,1,4.55,5.36.09.09,0,0,0,.14-.1,23.24,23.24,0,0,0-4.59-5.35c-.06-.06-.16,0-.1.09Z"/><path class="cls-16" d="M128.79,85.43a6.51,6.51,0,0,0,3.52,4.21.07.07,0,1,0,.07-.11,8.73,8.73,0,0,1-3.46-4.13c0-.08-.15-.05-.13,0Z"/><path class="cls-16" d="M125.72,85.87c1.32,2,2.53,4.06,4,5.91.06.08.18,0,.13-.1-1.18-2-2.69-3.94-4-5.88,0-.07-.16,0-.11.07Z"/><path class="cls-16" d="M125.85,88a27,27,0,0,1,4.33,5.59.06.06,0,0,0,.1-.05,16.7,16.7,0,0,0-4.35-5.62c-.05-.05-.14,0-.08.08Z"/><path class="cls-16" d="M124,89.66a39.41,39.41,0,0,0,4,6c.06.07.18,0,.13-.1-1.27-2-2.73-4-4-6,0-.06-.14,0-.1.06Z"/><path class="cls-16" d="M123.81,93.26a20.76,20.76,0,0,1,2.4,5,.07.07,0,1,0,.14,0,14.49,14.49,0,0,0-2.43-5c0-.07-.16,0-.11.06Z"/><path class="cls-16" d="M122.85,98.69s0,0,0,0a0,0,0,1,0,0,0Z"/><path class="cls-16" d="M122.39,101.3c.36.61.72,1.23,1.11,1.83a.08.08,0,0,0,.13-.08c-.35-.62-.72-1.23-1.09-1.84a.09.09,0,0,0-.15.09Z"/><path class="cls-16" d="M113.72,101a15.08,15.08,0,0,0,4-2.3s0-.14-.08-.1a29.31,29.31,0,0,1-4,2.27c-.07,0,0,.17.06.13Z"/><path class="cls-16" d="M114,98a4.78,4.78,0,0,0,4.09-1.88c0-.06-.06-.14-.11-.08a5.23,5.23,0,0,1-4,1.87s0,.08,0,.09Z"/><path class="cls-16" d="M113.72,97.3c1-.6,2-1.16,3-1.81.06,0,0-.14-.06-.1-1,.55-2,1.19-3,1.8-.07,0,0,.15.06.11Z"/><path class="cls-16" d="M112.17,95.69A15.41,15.41,0,0,0,116,92.56a.06.06,0,0,0-.09-.09,35.7,35.7,0,0,1-3.8,3.13.05.05,0,0,0,.06.09Z"/><path class="cls-16" d="M114,91.35s0,0,0,0a0,0,0,0,0,0,0Z"/><path class="cls-16" d="M112.92,90.21a11,11,0,0,0,4.55-2.78.05.05,0,0,0-.07-.08A13.77,13.77,0,0,1,112.88,90c-.11,0-.07.2,0,.17Z"/><path class="cls-16" d="M113,88.1a11.6,11.6,0,0,0,4.54-2.48c.06-.06,0-.18-.1-.13a13.77,13.77,0,0,1-4.48,2.44c-.11,0-.07.2,0,.17Z"/><path class="cls-16" d="M112.94,85.13a16.34,16.34,0,0,0,5.55-2.92c.07-.06,0-.18-.09-.13A21.68,21.68,0,0,1,112.91,85c-.07,0,0,.14,0,.11Z"/><path class="cls-16" d="M114.07,83.37c1.84-.48,3.67-1,5.49-1.5a.06.06,0,1,0,0-.12c-1.84.47-3.68.94-5.51,1.45-.11,0-.06.19,0,.17Z"/><path class="cls-16" d="M134.92,89.7a1.72,1.72,0,0,0-1,2.06c.26.74,1.27.19,1.53-.25a.88.88,0,0,0-.66-1.38c-.64,0-1.44.47-1.29,1.18,0,.09.14.06.15,0a1.05,1.05,0,0,1,1-1,.69.69,0,0,1,.56,1.19,1,1,0,0,1-.7.39c-.38,0-.48-.28-.49-.61a1.63,1.63,0,0,1,1-1.54s0-.07,0-.06Z"/><path class="cls-16" d="M131.88,95.34A1.59,1.59,0,0,0,133.26,97a1.31,1.31,0,0,0,1.33-1.27c.1-1.65-2.52-1.25-2.18,0a.09.09,0,0,0,.18,0c.12-1.27,2.12-1.23,1.84.13a1.17,1.17,0,0,1-1.1,1A1.49,1.49,0,0,1,132,95.34a0,0,0,1,0-.07,0Z"/><path class="cls-16" d="M130.12,99c-.15.38-.3.76-.46,1.14a.13.13,0,0,0,0,.08c.44.35,2.18.79,2-.24a.79.79,0,0,0-1.57,0,.1.1,0,0,0,.07.13,4.91,4.91,0,0,0,2.93-.36c.06,0,0-.13-.05-.11a5.69,5.69,0,0,1-1.29.33,5,5,0,0,1-.67,0c-.14,0-1,0-.61-.39-.23.22,1.53.79.3.81a1.34,1.34,0,0,1-.75-.17c-.38-.28,0-.89.17-1.26,0-.08-.09-.11-.13,0Z"/><path class="cls-16" d="M137.26,87.15a.85.85,0,0,0,1.25-.81c-.09-.55-1-1-1.35-.48,0,0,0,.11.08.1a.88.88,0,0,1,1,.13c.49.54-.33,1.22-.9.94-.08,0-.15.08-.07.12Z"/><path class="cls-16" d="M141,70.24a.83.83,0,0,0,0-1.32c-.55-.35-1,.71-1,1.12a.15.15,0,0,0,.29,0c0-.26.15-1,.52-.91s.25.75,0,.91,0,.28.12.2Z"/><path class="cls-16" d="M140,64.92c.17.67,1.38.74,1.18-.08s-1.35-1.42-1.94-.79a.11.11,0,0,0,.11.19,1.2,1.2,0,0,1,1.34.13A.89.89,0,0,1,141,65c0,.54-.77.27-.88-.1a.07.07,0,1,0-.14,0Z"/><path class="cls-16" d="M138.6,62.35a1,1,0,1,0,1.59-1.25c-.09-.05-.22,0-.15.15.28.39.51.92.11,1.34a1,1,0,0,1-1.46-.29c0-.07-.12,0-.09.05Z"/><path class="cls-16" d="M114.77,69.7l.35,0c.1,0,.1-.13,0-.12l-.35,0a0,0,0,0,0,0,.06Z"/><path class="cls-16" d="M114.73,72.33A2.42,2.42,0,1,1,119.26,74c-.07.18.21.25.27.08A2.79,2.79,0,0,0,118,70.43a2.75,2.75,0,0,0-3.46,1.84c-.05.14.17.2.22.06Z"/><path class="cls-16" d="M125.06,74.44a2.44,2.44,0,0,1,3-2.2,2.54,2.54,0,0,1,1.43,3.18.09.09,0,0,0,.16.07A2.59,2.59,0,0,0,128,72a2.62,2.62,0,0,0-3.18,2.49.1.1,0,0,0,.2,0Z"/><path class="cls-16" d="M117.67,76.35a8.8,8.8,0,0,0,9.37,1,.1.1,0,0,0-.08-.18,9.44,9.44,0,0,1-9.16-1c-.13-.09-.25.13-.13.22Z"/><path class="cls-16" d="M75.46,72.52c-1.66-.85-3.8,1.24-2.63,2.86,1,1.43,3.48,1.13,3.63-.78a2.18,2.18,0,0,0-1.11-2.11,2,2,0,0,0-2.43.76,1.72,1.72,0,0,0,.58,2.32,1.48,1.48,0,0,0,2.17-.71c.82-1.86-2.2-2.66-2.54-.94s2.73,2,2.37.32a1.35,1.35,0,0,0-1.55-1,.86.86,0,0,0-.35,1.43c.38.46,1.21.77,1.64.2s0-1.11-.57-1.31-1.38,0-1.27.75,1,.68,1.44.43a.7.7,0,0,0,0-1.32A1.3,1.3,0,0,0,73,74.52a.16.16,0,0,0,.16.17,1.38,1.38,0,0,0,1.34-1c0-.15-.12-.25-.25-.19a2.62,2.62,0,0,0-1.46,1.88c0,.18.24.26.28.07a2.32,2.32,0,0,1,1.35-1.66l-.24-.19a1.07,1.07,0,0,1-1,.78l.16.16a1,1,0,0,1,1.07-.87c.72.08.69.75,0,.89-.32.07-.94,0-.66-.52s.77-.22,1,0c.51.37.09,1-.48.79s-1.06-1.07-.25-1.27a1.06,1.06,0,0,1,1.1.79c.13.74-.75.84-1.22.58a.82.82,0,0,1-.28-1.33,1.14,1.14,0,0,1,1.64.15,1.22,1.22,0,0,1-.46,1.6,1.24,1.24,0,0,1-1.76-.74c-.55-1.43,1.45-2.51,2.48-1.51a1.72,1.72,0,1,1-2.82,1.54c-.28-1.42,1.44-2.35,2.62-1.9.1,0,.18-.13.07-.19Z"/><path class="cls-16" d="M97.43,74.94l-.62,1.14a.19.19,0,0,0,.06.26,2.12,2.12,0,0,0,2.81-.45,1.84,1.84,0,0,0-.75-2.71c-2.34-1.24-3.49,2.83-1.22,3.26a1.87,1.87,0,0,0,2.08-1.72c0-1.24-1.82-1.49-2.68-1a1.72,1.72,0,0,0-.44,2.59,1.33,1.33,0,0,0,2.21-.67c.34-1.2-1.41-1.86-2.07-.86-.22.36-.33,1.2.13,1.44s1.51-.26,1.88-.68a.18.18,0,0,0,0-.23c-.33-.55-1.38-.66-1.65,0s.92.78.77,0c0-.22-.36-.12-.33.09,0-.24.72-.19.88.07l0-.23c-.25.28-1.06.9-1.46.55s.12-1,.43-1.11a.84.84,0,0,1,.82.18c.84.84-1.18,2.25-1.64.7a1.35,1.35,0,0,1,1.51-1.7c.58,0,1.28.33,1.17,1a1.51,1.51,0,0,1-.77,1c-2,1.13-2.43-3-.2-2.49a1.49,1.49,0,0,1,.89,2.35,1.72,1.72,0,0,1-2.23.26l.06.26.63-1.13c.12-.22-.21-.41-.33-.2Z"/><path class="cls-16" d="M69,86.7c5.46,3.14,12.48,3.79,18.65,4.29,5.88.47,12,.11,17-3.38.25-.18,0-.59-.24-.41-5.06,3.49-11.18,3.8-17.12,3.29a61.69,61.69,0,0,1-18.18-4,.1.1,0,0,0-.08.18Z"/><path class="cls-16" d="M70.06,86.89a.1.1,0,0,0,0-.2.1.1,0,0,0,0,.2Z"/><path class="cls-16" d="M69.63,86.49c4.76,3.17,11.48,4.06,17.08,4.61,6,.58,11.89.54,17.35-2.11.56-.27.07-1.11-.49-.84C97.81,91,91.23,90.7,85,89.91c-5.27-.67-10.17-2.75-15.36-3.53a.06.06,0,0,0,0,.11Z"/><path class="cls-16" d="M75.18,72.47a2.25,2.25,0,0,0-1.85,2.12A1.15,1.15,0,0,0,74,75.81a1.47,1.47,0,0,0,1.37-.26,1.25,1.25,0,0,0-.26-2.22c-.69-.24-2.25.18-1.89,1.19a1,1,0,0,0,1.39.5.93.93,0,0,0,.14-1.45.35.35,0,0,0-.55.43c.07.16.11.37-.12.36s-.07-.1,0-.18A.75.75,0,0,1,74.6,74c.58,0,.7.62.23.94-.16.12-.52.26-.7.08s-.1-.61-.08-.78A1.57,1.57,0,0,1,75.25,73c.26-.07.22-.52-.07-.49Z"/><path class="cls-16" d="M98.51,73.76c-.19-.21-.24-.33-.54-.37a1.35,1.35,0,0,0-.74.1,1.27,1.27,0,0,0-.81,1.23,1.59,1.59,0,0,0,2.67,1,1.19,1.19,0,0,0,.15-1.54A1,1,0,0,0,98,73.94a.7.7,0,0,0-.2,1.14,1.29,1.29,0,0,0,1.42.1c.48-.26.87-.9.35-1.31a1.36,1.36,0,0,0-1.81.19c-.32.35.21.88.53.52a.61.61,0,0,1,.92,0l-.09-.36a.48.48,0,0,1-.39.41c-.14,0-.2,0-.34,0l-.12-.06c0,.09,0,.12.06.07.73-.24.39.7-.14.81s-1.24-.4-1.06-1a1,1,0,0,1,1.29-.51c.11.07.21-.08.13-.17Z"/><path class="cls-16" d="M74.26,88.87c-1.8,2.27-4.11,7.57.09,9,3.89,1.29,8.14-5,9.05-8.08a.28.28,0,0,0-.51-.21c-1.5,2.41-2.75,5-5.13,6.67-1.23.89-2.68,1.75-4.22.31a3.76,3.76,0,0,1-.88-3c.13-1.66,1.1-3.08,1.87-4.5.08-.16-.14-.36-.27-.2Z"/><path class="cls-16" d="M77.08,92.57l-.7,1.7c-.1.24.19.5.43.42a2.55,2.55,0,0,0,1.71-2.18c0-.35-.43-.37-.59-.16-.32.43-.65.85-1,1.28a4,4,0,0,0-.81,1.23.26.26,0,0,0,.38.29,3.92,3.92,0,0,0,1-1.11c.34-.46.67-.92,1-1.37l-.59-.16A1.91,1.91,0,0,1,76.62,94l.43.42.68-1.7c.16-.4-.49-.57-.65-.18Z"/><path class="cls-16" d="M114.6,72.65a2.29,2.29,0,0,1,2.81-1.46,1.93,1.93,0,0,1,1,1.3,4.91,4.91,0,0,1-.07,1.48.25.25,0,0,0,.43.17c1.22-1,0-3.24-1.24-3.67a2.55,2.55,0,0,0-2.3.35,2,2,0,0,0-.91,1.8.13.13,0,0,0,.26,0Z"/><path class="cls-16" d="M125.49,74.42a2.33,2.33,0,0,0-.37-.78c-.07-.07-.18,0-.16.1a2.07,2.07,0,0,0,.39.75c0,.07.18,0,.14-.07Z"/><path class="cls-16" d="M125.41,74.42c.15-1.14,1.59-2.28,2.71-1.64a1.82,1.82,0,0,1,.56,2.51c-.26.38.36.74.61.36A2.5,2.5,0,0,0,128.17,72a2.23,2.23,0,0,0-2.14.37,2,2,0,0,0-.78,2.06c0,.1.15.06.16,0Z"/><path class="cls-16" d="M117.35,76.62c2.83,1.94,6.88,2,10.05.9a.36.36,0,0,0-.19-.7,19.61,19.61,0,0,1-9.8-.34.08.08,0,0,0-.06.14Z"/></svg>