<svg id="carracters" xmlns="http://www.w3.org/2000/svg" viewBox="0 0 198.43 35.43"><defs><style>.cls-1{fill:#fff;}.cls-2{fill:#6e6e6e;opacity:0.5;}</style></defs><path d="M176.3,6.46c.06.48.12,1,.17,1.44s.12,1.15.19,1.72a.46.46,0,0,0,0,.13c.16-.2.32-.37.46-.55s.15-.12.24,0l-.78.94-1-.82.12-.16.72.6c0-.5-.1-1-.15-1.41s-.13-1.17-.19-1.75a.45.45,0,0,1,0-.16Z"/><path d="M177.78,16.85l-.09-2.7-10,.33V13.05l10-.31-.12-3.4,2.25.09c-.05.32-.3.4-.53.47v2.78l7.1-.17V14l-7,.1c0,.55,0,1.07,0,1.59,0,.91,0,1.83.1,2.74,0,.33.15.65.19,1a8.8,8.8,0,0,1-1.28,6.18,9.28,9.28,0,0,1-3.07,2.71c-.62.34-1.27.63-1.91.93a.24.24,0,0,1-.22,0c-.35-.38-.68-.77-1-1.17.35-.15.7-.28,1.05-.44a9.8,9.8,0,0,0,3.1-2.07,5.9,5.9,0,0,0,1.36-2.18,1,1,0,0,0,.05-.25,2.77,2.77,0,0,1-1.3.89,3.25,3.25,0,0,1-3.2-.71A3.73,3.73,0,0,1,172,19.18a3.8,3.8,0,0,1,3.19-2.89,3.27,3.27,0,0,1,2.5.53S177.73,16.84,177.78,16.85Zm.28,3.35c0-.26,0-.52-.06-.78a2,2,0,0,0-1.4-1.77A2.68,2.68,0,0,0,173.89,22a2.39,2.39,0,0,0,3.64-.06A2.54,2.54,0,0,0,178.06,20.2Z"/><path class="cls-1" d="M26,16.85l-.09-2.7-10,.33V13.05l10-.31-.12-3.4L28,9.43c-.05.32-.3.4-.53.47v2.78l7.1-.17V14l-7,.1c0,.55,0,1.07,0,1.59,0,.91.05,1.83.1,2.74,0,.33.15.65.19,1a8.8,8.8,0,0,1-1.28,6.18,9.28,9.28,0,0,1-3.07,2.71c-.62.34-1.27.63-1.91.93a.24.24,0,0,1-.22,0c-.35-.38-.68-.77-1-1.17.35-.15.7-.28,1.05-.44a9.8,9.8,0,0,0,3.1-2.07,5.9,5.9,0,0,0,1.36-2.18,1,1,0,0,0,.05-.25,2.77,2.77,0,0,1-1.3.89,3.25,3.25,0,0,1-3.2-.71,3.73,3.73,0,0,1-1.19-4.09,3.8,3.8,0,0,1,3.19-2.89,3.27,3.27,0,0,1,2.5.53S26,16.84,26,16.85Zm.28,3.35c0-.26,0-.52-.06-.78a2,2,0,0,0-1.4-1.77A2.68,2.68,0,0,0,22.14,22,2.39,2.39,0,0,0,25.78,22,2.54,2.54,0,0,0,26.31,20.2Z"/><path class="cls-2" d="M140,16.84l-.08-2.69-10,.32V13l10-.3-.12-3.41,2.24.09c0,.32-.3.4-.53.48v2.77l7.1-.17V14l-7,.1c0,.56,0,1.08,0,1.6,0,.91,0,1.82.11,2.73,0,.33.15.65.18,1a8.77,8.77,0,0,1-1.28,6.17,9.17,9.17,0,0,1-3.07,2.71c-.62.35-1.27.63-1.91.93a.24.24,0,0,1-.22,0q-.51-.57-1-1.17l1-.43a9.88,9.88,0,0,0,3.1-2.08,5.9,5.9,0,0,0,1.36-2.18.64.64,0,0,0,.05-.24,2.8,2.8,0,0,1-1.29.88,3.29,3.29,0,0,1-3.21-.7,3.75,3.75,0,0,1-1.19-4.1,3.81,3.81,0,0,1,3.19-2.89,3.24,3.24,0,0,1,2.5.54Zm.29,3.36c0-.26,0-.52-.07-.78a1.91,1.91,0,0,0-1.4-1.77,2.68,2.68,0,0,0-1.46,0A2.75,2.75,0,0,0,136.1,22a2.4,2.4,0,0,0,3.65-.06A2.62,2.62,0,0,0,140.28,20.2Z"/><path d="M148.58,12.48V14l-18.7.48V13Z"/><path d="M171.17,20.92a4.39,4.39,0,0,1-.36-1.67,3.86,3.86,0,0,1,1.4-3.24,3.42,3.42,0,0,1,2.51-.69c.29,0,.58.08.91.12a1.83,1.83,0,0,1-.09-.39s0-.1.07-.14.1.05.11.09a5.06,5.06,0,0,1,.17.67.19.19,0,0,1-.11.16c-.23.06-.47.09-.7.13,0-.11,0-.11.45-.3a3.37,3.37,0,0,0-4.5,2.93,4.36,4.36,0,0,0,.26,2.11C171.33,20.81,171.36,20.91,171.17,20.92Z"/><path d="M181,17.09l.16-.1a3,3,0,0,1-.87,4.1l.87.35c-.08.06-.15.14-.18.13-.36-.13-.71-.27-1.07-.42l.43-1.06c.05-.14.11-.13.22,0l-.3.77a2.58,2.58,0,0,0,1.13-1.7A2.81,2.81,0,0,0,181,17.09Z"/><path d="M130.88,12.41l-.15-.12.59-.72-1.1.12c-.68.08-1.35.17-2,.24a.41.41,0,0,1-.17-.07s.09-.12.15-.12c.92-.12,1.84-.22,2.76-.32l.38-.05-.73-.61c.12,0,.21-.08.24,0,.3.23.58.47.88.72Z"/></svg>