<svg id="illustration" xmlns="http://www.w3.org/2000/svg" xmlns:xlink="http://www.w3.org/1999/xlink" viewBox="0 0 198.43 147.14"><defs><style>.cls-1{fill:#92ca6b;}.cls-2{fill:#fff;}.cls-3{fill:url(#linear-gradient);}.cls-4{fill:url(#linear-gradient-2);}.cls-5{fill:#a65e21;}.cls-6{fill:#abadb0;}.cls-7{fill:#f392bd;}.cls-8{fill:#737577;}.cls-9{fill:#010101;}</style><linearGradient id="linear-gradient" x1="71.34" y1="100.81" x2="93.32" y2="88.13" gradientUnits="userSpaceOnUse"><stop offset="0.42" stop-color="#be6c28"/><stop offset="1" stop-color="#fff"/></linearGradient><linearGradient id="linear-gradient-2" x1="129.4" y1="91.34" x2="143.3" y2="99.36" gradientUnits="userSpaceOnUse"><stop offset="0" stop-color="#fff"/><stop offset="0.81" stop-color="#be6c28"/></linearGradient></defs><path class="cls-1" d="M114.84,45.51s-4.36-2.11-5-2.29S105,41.5,105,41.5l-7-2.9-4.74-.88-3.88-.2-2.64.34s-6.25-.73-9.85.73-7.16,3.32-7.16,3.32l-3.3,2.16-1.17.24-1.89-1.87.22,2.87-1.83,1.6-1.17,1-1.91,1.68L56.89,48.3,57.1,51l-2,1.48-2,2.33-1.92,2-.91,1.87-2-1.87,1.33,5.06-2.48,3.46L44.87,71l-1.43,5.7-4.5-9.36L35.25,61.7l-2.74-3.77L30,55.87l-1.36-.69,1.59,15.39-.09,10.54L29,88.92l-2,6.16L24.73,100l-1.43,2.29,2.17-.22,5.19-2.94,3.91-3.24,3.81-1.18,2.73,0-.23,4.08.75,3.55,1.3,4.64,1.94,4.55.51,1.74-3,3,4.74-1.35.94,2.89,2.32,4.08,3.83,4,2.06.72-1.81,3.23L57,127.55l2.55,2.7,3.64,2.89L68,135.81l2.26.91.43,4.06,3-3.57,4,1.21,4.2.69,2.51.12.16,2.64L86,139l2.36.15h4.86l1.39-.15,1.65,1.91-.12-2.65,2.52-.59,2.2-.91,2.54-.88h1l1.63,1.79,0-3.14,2.91-.58,4.17-1.73,3.72-2,2-1.28,1.8,3-.56-4.74,2.47-1.31,2.67-2.3,3.32-4.2.68-1.16,2.45,1.16-.79-2.64-1-2.62,1.28-2.82L123.19,53.3l-2.64-2.89-2.28-1.79,2.18-3.11-3.62,2.42Z"/><path class="cls-2" d="M76.07,78.94s-1.19-16.62,5.46-23.63,13.06-7,13.06-7,15.17-1.39,25.19,5,7.13,6,7.13,6l.63,1.34.54,1.85-.37,1,1.36,1.74L130,67l.68,2.2.86,2.39.29,1.91.52,3.11,1.89,9.74v6l-.58,5.73-1.06,4-1,2.36-.09,2.29.13,1.26-.86,3.8-3.26,1.73A25.11,25.11,0,0,1,123,116c-9,3.71-12.6,3.27-26.18.94-13-4.36-16.8-20-16.8-20Z"/><path class="cls-3" d="M99,79.94l-5.18,2.51-7.78.76-4.37.23L75,84.74l-5.49,3.94s-1.89,3.44-1.28,6.11,2,10.52,12.65,11.11,17.9-9.13,17.9-9.13a17,17,0,0,0,2.91-8C102,84.34,99,79.94,99,79.94Z"/><path class="cls-4" d="M134,82.45s5.21,1,7.67,3.11,10.21,8.06,6.22,17.1-12.59,5.13-12.59,5.13l-3.41-3,1.83-7.52.57-5.72v-6Z"/><path class="cls-5" d="M67.43,42.45s1.41-17.4,14.32-18.63,19.83,10.34,19.57,16.31L93.48,38l-9.1-.41-8.57,1.28-6.22,2.9Z"/><path class="cls-5" d="M48,121.71S40.26,126.3,46.12,135s16-1.64,16-1.64l-6.19-5.59-2.79-1.64-3.83-4.05Z"/><path class="cls-5" d="M103.56,57.47c-3.18.11-5.15,3.73-3.9,6.61s5.53,3.6,7.28.83c.38-.6-.41-1.5-1-1a3.75,3.75,0,0,1-2.6,1.14,2.67,2.67,0,0,1-2.39-2.4c-.2-2,1.57-3.27,2.94-4.4a.44.44,0,0,0-.31-.75Z"/><path class="cls-5" d="M107,64.25c.53-.94,0-2.25-.38-3.16a9.81,9.81,0,0,0-2.15-3.1c-.75-.75-1.94.48-1.15,1.15a7.74,7.74,0,0,1,2,2.59c.4.83.47,1.9,1.1,2.59a.36.36,0,0,0,.56-.07Z"/><path class="cls-5" d="M106.54,63.72a1.52,1.52,0,0,0-.28.7.55.55,0,0,0,.23.59.47.47,0,0,0,.4,0,.55.55,0,0,0,.38-.5,1.89,1.89,0,0,0-.17-.84c-.11-.24-.43-.18-.56,0Z"/><path class="cls-5" d="M105.58,63.27a3,3,0,0,1-2.6.16,1.29,1.29,0,0,1-.46-2,1.09,1.09,0,0,1,1.79.4.89.89,0,0,1-.45,1.12c-.4.15-.82-.14-1.24-.14s-.94.5-.74,1a1.9,1.9,0,0,0,2.46.91,2.63,2.63,0,0,0,1.76-2.21,2.86,2.86,0,0,0-3.63-3,2.9,2.9,0,0,0-1.41,4.49,3.21,3.21,0,0,0,5,0,.43.43,0,0,0-.52-.68Z"/><path class="cls-5" d="M102.4,59.09a3.85,3.85,0,0,0,1.19,1.08c.84.61,1.73-1,.8-1.36a3.94,3.94,0,0,0-1.55-.48.51.51,0,0,0-.44.76Z"/><path class="cls-5" d="M103.52,60.69a1.68,1.68,0,0,0-1.23.57,1.46,1.46,0,0,0-.22,1.56,1.55,1.55,0,0,0,2.73.17,1.51,1.51,0,0,0-1.49-2.24,1.31,1.31,0,0,0-.4,2.5.79.79,0,0,0,1-.55,1.72,1.72,0,0,0,0-.64v.47c.18-.79,0,.19-.46,0-.19-.08-.24-.23-.17-.48a.17.17,0,0,1,.21-.06c.06,0,.08-.19.2-.24.56-.19.52-1.13-.14-1.09Z"/><path class="cls-5" d="M114.45,60.38c-2.39-.06-3.54,2.79-2.74,4.75a4.26,4.26,0,0,0,6.28,2c2-1.3,3.13-4.48,1.18-6.31-1.51-1.41-5.68-1.62-6.32.83a.62.62,0,0,0,.76.76c1.26-.22,2.06-1.22,3.5-.86,2.13.52,1.46,3,.08,4a2.91,2.91,0,0,1-4-.43c-1.22-1.66-.06-3.22,1.41-4.12a.33.33,0,0,0-.16-.6Z"/><path class="cls-5" d="M114.44,61.29c-.77.09-1.39.23-1.75,1a2.28,2.28,0,0,0,.28,2.29c1.08,1.58,3.49,1.65,5,.69s1.88-3.41,0-4.27c-1.5-.69-4.15.44-4.07,2.29a.84.84,0,0,0,1.24.72c.58-.26.76-.92,1.35-1.18.94-.41,1,.53.25,1a2.33,2.33,0,0,1-2,.16c-.63-.31-1.11-1.64-.2-2,.3-.12.31-.67-.08-.63Z"/><path class="cls-5" d="M115.83,64.12c.55-.31,1.15-.53,1.67-.89,1.09-.75-.27-2.28-1-1.37-.45.54-.76,1.15-1.17,1.71-.24.34.22.73.55.55Z"/><path class="cls-5" d="M113.08,64.93a2.08,2.08,0,0,0,1.51,1.75,2.15,2.15,0,0,0,2.5-.72c.51-.86-.23-1.39-1-1.11a2.06,2.06,0,0,1-1.19.23,1.91,1.91,0,0,1-.92-.51.47.47,0,0,0-.85.36Z"/><path class="cls-5" d="M117.55,60.47a2.78,2.78,0,0,1,1.26,1.12c.3.55.1,1.13.23,1.7a.64.64,0,0,0,1.06.28c.77-.7.49-2-.06-2.81a2,2,0,0,0-2.42-.84c-.29,0-.41.48-.07.55Z"/><path class="cls-5" d="M118.69,61.4a.83.83,0,0,0-1.38.44,1.09,1.09,0,0,0,1,1.29c1,.12.86-1.73-.19-1.39.08.43.19.57.34.41a.24.24,0,0,1,.09-.06.45.45,0,0,0,.09-.69Z"/><path class="cls-2" d="M116.61,62.52a1.18,1.18,0,0,0,.37.4c1-.14.4-2-.57-1.35a1.2,1.2,0,0,0-.62,1.24,1.06,1.06,0,0,0,1,.83c1,0,1.52-1.42.54-1.84-.44-.19-1,.23-.72.72Z"/><path class="cls-2" d="M103.84,60.63c-.54-.13-.81.56-.73,1a1,1,0,0,0,1.61.54,1,1,0,0,0-.18-1.77,1.16,1.16,0,0,0-1.64.92.65.65,0,0,0,.81.62,1,1,0,0,0,.37-.12c.06,0-.06,0,0,0l-.36-.63a.13.13,0,0,1,.2-.06c.14.06.16,0,.07-.09l.05,0a.33.33,0,0,0,0-.17.3.3,0,0,0-.21-.28Z"/><path class="cls-2" d="M115.73,73.86a7.55,7.55,0,0,0,6.32,2.6c.4-.08.32-.61,0-.73-1-.35-2-.38-3-.75s-1.94-1.07-3-1.53c-.24-.11-.61.14-.41.41Z"/><path class="cls-6" d="M115.79,74.09a8.3,8.3,0,0,0,6.47-1c.16-.11.13-.43-.11-.41-1.06.09-2.08.53-3.15.68s-2.17.06-3.21.32a.19.19,0,0,0,0,.36Z"/><path class="cls-6" d="M115.73,73.81c1.25,2.64,4.56,3.26,7.24,2.92,1-.13,1-1.69,0-1.57-2.59.31-4.7-.77-7.09-1.54-.12,0-.19.1-.15.19Z"/><path class="cls-6" d="M119.53,74.93c.71-.06,1.4-.16,2.1-.27s1.35-.13,1.64-.72a.44.44,0,0,0-.15-.58c-.55-.37-1.23,0-1.8.18s-1.31.5-1.95.79a.32.32,0,0,0,.16.6Z"/><path class="cls-6" d="M121.47,74.07a1.68,1.68,0,0,0,.82-.35.22.22,0,0,0-.09-.36,1.63,1.63,0,0,0-.9.09c-.4.09-.23.72.17.62Z"/><path class="cls-6" d="M102.33,72.2c-1,.72-1.85,1.68-2.94,2.34S97,75.35,95.91,76c-.24.15-.23.59.08.64,1.28.22,2.82-.59,3.89-1.24a6.45,6.45,0,0,0,2.84-2.89c.09-.21-.21-.43-.39-.3Z"/><path class="cls-6" d="M101.44,72.57a49.66,49.66,0,0,0-5,2.62.55.55,0,0,0,.56.94,50.08,50.08,0,0,0,4.84-2.87.4.4,0,0,0-.39-.69Z"/><path class="cls-6" d="M101.13,72.5a11.64,11.64,0,0,0-2.7.11c-.87.06-1.83-.2-2.62.21a.55.55,0,0,0-.11.86c.8.65,1.93.45,2.91.31a4.12,4.12,0,0,0,2.62-1.1c.11-.12.09-.36-.1-.39Z"/><path class="cls-6" d="M99,73.47c.5-.06,1.31,0,1.66-.42a.22.22,0,0,0,0-.34c-.48-.28-1.2,0-1.71.14-.33.08-.27.66.09.62Z"/><path class="cls-6" d="M106.1,80.79a3.13,3.13,0,0,0,1,1.66c.41.41,1,1,1.6.81a.33.33,0,0,0,.25-.33c0-.62-.63-.9-1-1.28a9.75,9.75,0,0,0-1.37-1.19c-.23-.15-.47.1-.43.33Z"/><path class="cls-6" d="M113.54,83.42c.58-.12,1-.93,1.29-1.39a3.79,3.79,0,0,0,.84-1.87.3.3,0,0,0-.45-.27,3.88,3.88,0,0,0-1.34,1.58c-.29.51-.83,1.15-.69,1.75a.29.29,0,0,0,.35.2Z"/><path class="cls-7" d="M110.09,91c3.16-1.77,7.72-2.65,10.08.93,2.54,3.86-1.81,9.3-5.88,6-.86-.69-2.09.46-1.24,1.24,4.42,4,10.78-.45,9.6-6-1.29-6-9.3-7.21-12.92-2.71a.3.3,0,0,0,.36.47Z"/><path class="cls-7" d="M113.35,101.07c1.71,1.12,3.21,2.5,3.12,4.73a5.18,5.18,0,0,1-8.82,3.33c-1-1.06-1.2-2.43-1.78-3.71-.17-.38-.71-.23-.82.11-.67,2.06,1,4.49,2.67,5.58a6.76,6.76,0,0,0,7,0c4-2.41,4.41-10-1.06-10.89a.45.45,0,0,0-.34.81Z"/><path class="cls-7" d="M109.75,91l.46.36.41-.54-.28-.15a.37.37,0,0,0-.38,0,1.35,1.35,0,0,0-.47.55c-.11.18.41,1.55,0,1.43a.48.48,0,0,0-.59.58c.23.9.13.8-.79,1a.52.52,0,0,0-.3.75l-.33.75a.52.52,0,0,0-.49.64c.16.8.32,1.59.47,2.39l.47-.61h-1.39a.49.49,0,0,0-.42.73l-.59.82a.48.48,0,0,0-.58.33c-.07.47-.13.93-.19,1.4l.69-.28a1,1,0,0,0-1.59.38c-.61,1.16,1.09,3.43,1.65,4.2a.26.26,0,0,0,.47-.2,36.75,36.75,0,0,0-1-3.57.48.48,0,0,0,.69-.28c.22-1.52.51-.42,1.35-1.43a1.48,1.48,0,0,0-.05-1.86l-.42.73h1.39a.49.49,0,0,0,.46-.61c-.15-.81-.28-1.61-.43-2.41l-.48.64c1.35-.11,2-1.06,1.21-2.28l-.31.75,1.46-.4a.49.49,0,0,0,.34-.6c-.11-.42-.23-.83-.36-1.25l-.59.58a1.1,1.1,0,0,0,1.34-.33c.29-.38.22-1.66-.21-1.79a.34.34,0,0,0,.26-.62l-.51-.28c-.28-.16-.63.25-.36.46Z"/><path class="cls-7" d="M110.7,91.37c2.48,1.06,6.9-1.16,8.13,2.52.63,1.88-1.12,3-2.77,3.13a10.34,10.34,0,0,1-4.28-1.2c-1-.41-1.74,1.31-.74,1.78,2,1,4.42,1.85,6.69,1.11A4.38,4.38,0,0,0,121,94.62a5.09,5.09,0,0,0-3.5-4.53c-1.93-.71-5.3-.82-6.82.78a.32.32,0,0,0,.07.5Z"/><path class="cls-7" d="M111.81,100.62c.59,1.18,2,1.49,2.75,2.67a4.26,4.26,0,0,1-1.47,5.81c-2.27,1.27-4.74.07-5.91-2-1-1.75-1-3.77-1.38-5.68-.21-1-1.75-.75-1.76.24,0,3.08.78,6.7,3.32,8.7a6.11,6.11,0,0,0,7.36.06,6.24,6.24,0,0,0,2-7.06c-.62-1.67-2.74-4.34-4.74-3.37a.51.51,0,0,0-.18.68Z"/><path class="cls-7" d="M106.4,102.65c1.53-1.56,2.28-3.57,3.22-5.52.81-1.71,2.07-3.5,2.14-5.41a.66.66,0,0,0-1.12-.47c-1.53,1.34-2.23,3.82-3.09,5.64a17.57,17.57,0,0,0-2,5.41c0,.44.57.63.84.35Z"/><path class="cls-7" d="M111.16,92.75a12.57,12.57,0,0,0,3.08.62c.58.06,1.16.11,1.75.15.25,0,1.5,0,1.69.18,1.16,1.07-2.25,1.24-2.59,1.24a10.18,10.18,0,0,1-3.46-.63c-1.21-.41-1.71,1.48-.53,1.9,2.26.8,8.81,1.7,9.06-2.1.09-1.49-1.21-2.18-2.48-2.39a20.1,20.1,0,0,0-6.52-.13c-.63.11-.51,1,0,1.16Z"/><path class="cls-7" d="M111.44,94.38a5.63,5.63,0,0,0,3.42.77,6.71,6.71,0,0,0,3.56-.57.8.8,0,0,0-.19-1.45,13.14,13.14,0,0,0-3.37.06,10.36,10.36,0,0,0-3.29.2.55.55,0,0,0-.13,1Z"/><path class="cls-7" d="M110.7,96.78a10.45,10.45,0,0,1,1.18,3.42,1.06,1.06,0,0,0,.73,1,.81.81,0,0,0,.75-.1,1.05,1.05,0,0,0,.46-1.11,7.58,7.58,0,0,0-1.89-4.11c-.63-.67-1.62.19-1.23,1Z"/><path class="cls-7" d="M111.53,92.81a20.82,20.82,0,0,0-.66,6,.91.91,0,0,0,.45.79.81.81,0,0,0,.71.09.92.92,0,0,0,.64-.64,22,22,0,0,0-.12-6.28c-.08-.53-.91-.48-1,0Z"/><path class="cls-7" d="M111.11,94.73c-1,1.38-8.46,11.86-2.84,12.06a.61.61,0,0,0,.58-.77c-.34-1-.85-1.42-.59-2.63a12,12,0,0,1,1.39-2.83,41.75,41.75,0,0,0,2.54-5.37c.26-.68-.71-.94-1.08-.46Z"/><path class="cls-7" d="M106.61,103.1c0,2,.3,4.07,2,5.45a3.67,3.67,0,0,0,4.53.21c4-2.86.51-7.67-2-10-.91-.88-2.3.5-1.39,1.38,1.51,1.46,4.17,4,2.89,6.34-.82,1.51-2.47,1.3-3.54.19a10.68,10.68,0,0,1-1.73-3.63.39.39,0,0,0-.76.1Z"/><path class="cls-7" d="M109.77,100.14c.73,1.82,2.11,3.15,1.77,5.3-.13.81-.8,1.6-1.48.61a3.34,3.34,0,0,1-.29-1.71,12.57,12.57,0,0,1,.89-3.31.85.85,0,0,0-1.41-.82c-2.17,2-2,10.22,2.4,8.34,3.38-1.45,2-8.34-1.34-9-.29,0-.68.2-.54.54Z"/><path class="cls-7" d="M109.25,101.13a19.74,19.74,0,0,0,.71,5.6l.25-1a.82.82,0,0,0-.25.43,1,1,0,1,0,1.89,0,19.29,19.29,0,0,0-1.71-5.31.48.48,0,0,0-.89.24Z"/><path class="cls-2" d="M116.27,90.49c.11.83.92,1.15,1.39,1.77a3.62,3.62,0,0,1,.71,2.36c0,1,1.64,1.31,1.84.25a4.71,4.71,0,0,0-1.1-3.89,3.17,3.17,0,0,0-1.62-1.12c-.4-.1-1.29,0-1.22.63Z"/><path class="cls-2" d="M113.42,89.56c.22,0,.42.42.34-.19a.55.55,0,0,0-.68-.52c-1.23.26-.33,2.47,1,1.78a1,1,0,0,0,.42-1.27,1,1,0,0,0-1.26-.33c-.31.14-.08.6.23.53Z"/><path class="cls-2" d="M73.48,87.62a7.61,7.61,0,0,0-1,7.68c1,2.17,3.28,4.44,5.8,4.38a.63.63,0,0,0,.32-1.17c-1.72-1-3.39-1.58-4.5-3.41A7.46,7.46,0,0,1,74,87.9a.28.28,0,0,0-.49-.28Z"/><path class="cls-2" d="M145.37,92.76c-.22,2.19.06,4.27-.56,6.46s-2,3.75-2.95,5.77c-.24.53.28,1.2.85.85,3.69-2.26,5.57-9.53,3.73-13.37-.28-.57-1-.22-1.07.29Z"/><path class="cls-2" d="M72.25,34.63c1.38-1.81,2.5-3.66,4.39-5a13.79,13.79,0,0,1,6.41-2.41,17.75,17.75,0,0,1,7.41.83c2.55.82,4.63,2.35,7.05,3.4.78.34,1.67-.57,1-1.27-3.94-3.9-11.17-5.71-16.54-4.79-4.5.76-10.19,3.95-10.83,8.93-.09.68.83.72,1.14.31Z"/><path class="cls-2" d="M30.22,61.21l.58-1.09H30c1.52,2.45,2.74,5,4,7.55,1.05,2.12,1.9,5.27,3.66,6.84a.52.52,0,0,0,.87-.36c.09-2.35-1.72-4.94-2.83-7a87.19,87.19,0,0,0-4.95-7.53.45.45,0,0,0-.82.11c-.1.4-.21.8-.31,1.2s.39.55.55.23Z"/><path class="cls-2" d="M28.89,93.24a21.71,21.71,0,0,0,2.57-13.56.28.28,0,0,0-.55,0A45.05,45.05,0,0,1,28.25,93c-.13.38.45.61.64.27Z"/><path class="cls-2" d="M45.78,127.43A6.65,6.65,0,0,0,47.6,134c1.49,1.51,4.24,2.9,6.34,2,.63-.27.34-1.14-.17-1.33-.74-.26-1.53-.22-2.28-.43a6.31,6.31,0,0,1-2.65-1.5,8.25,8.25,0,0,1-2.2-5.18.44.44,0,0,0-.86-.11Z"/><path class="cls-2" d="M62.52,44.3a3,3,0,0,0,1,1.61c.42.38,1.14,1.05,1.76.82a.57.57,0,0,0,.39-.7c-.22-.58-.86-.7-1.32-1.07s-.8-.79-1.24-1.13-.65.16-.61.47Z"/><path class="cls-2" d="M55.86,49.75a3,3,0,0,0,.64,1.44,12.52,12.52,0,0,0,1.15,1.46c.51.49,1.4-.15,1-.77a10.51,10.51,0,0,0-1.17-1.42,3,3,0,0,0-1.3-1,.25.25,0,0,0-.32.24Z"/><path class="cls-2" d="M47.65,58.5a5.83,5.83,0,0,0,1,2.08c.38.59.74,1.37,1.41,1.68a.41.41,0,0,0,.62-.35,4.26,4.26,0,0,0-1.06-2,5.86,5.86,0,0,0-1.54-1.71c-.24-.15-.48.1-.44.35Z"/><path class="cls-2" d="M69.1,63a10.37,10.37,0,0,0,1.65.29A1.6,1.6,0,0,0,72.07,63a.24.24,0,0,0,0-.32,1.53,1.53,0,0,0-1.21-.38,10.45,10.45,0,0,0-1.68.06c-.3,0-.42.48-.08.57Z"/><path class="cls-2" d="M57.51,85c.24.45.87.29,1.27.21.58-.12,1.2-.14,1.56-.65a.53.53,0,0,0-.19-.73c-.61-.28-1.27.06-1.86.28-.31.11-1,.44-.78.89Z"/><path class="cls-2" d="M51.45,107.52l0,0a.38.38,0,0,0,.46-.06c.57-.47,1.13-.95,1.67-1.46.35-.32,1-.79.83-1.33a.2.2,0,0,0-.13-.12c-.53-.15-1,.45-1.37.78-.53.52-1,1-1.53,1.6a.38.38,0,0,0-.06.46.43.43,0,0,0,.09.1Z"/><path class="cls-2" d="M42.39,116.21a4.62,4.62,0,0,0,1.87-1c.55-.38,1.24-.76,1.48-1.4a.38.38,0,0,0-.36-.48,3.27,3.27,0,0,0-1.69,1c-.52.4-1.28.86-1.54,1.48-.08.17,0,.45.24.43Z"/><path class="cls-2" d="M68.09,112.72a6,6,0,0,1,.65-1.6c.26-.43.66-.83.51-1.36a.41.41,0,0,0-.37-.29c-.67-.06-1,.68-1.24,1.2a4.59,4.59,0,0,0-.36,1.94.41.41,0,0,0,.81.11Z"/><path class="cls-2" d="M54.62,129.12a4.15,4.15,0,0,0,1.8-1.52,2.93,2.93,0,0,0,.85-2,.34.34,0,0,0-.5-.2,5.67,5.67,0,0,0-1.16,1.6c-.4.58-1,1.07-1.35,1.67a.32.32,0,0,0,.36.47Z"/><path class="cls-2" d="M71,138.67a9.78,9.78,0,0,0,.79-3.29.26.26,0,0,0-.48-.13,9.74,9.74,0,0,0-.93,3.25.32.32,0,0,0,.62.17Z"/><path class="cls-2" d="M84.26,140.4c-.15-.81-.23-1.6-.32-2.42,0-.41-.22-1.14-.78-.94s-.51,1.25-.4,1.75a3.73,3.73,0,0,0,1,1.91.31.31,0,0,0,.52-.3Z"/><path class="cls-2" d="M94.76,139.19a2.53,2.53,0,0,0-.19-1.11,6.29,6.29,0,0,1-.2-1.3c0-.46,0-1.54-.8-1.29s-.53,1.44-.41,2c.16.7.47,1.67,1.19,1.94a.34.34,0,0,0,.41-.23Z"/><path class="cls-2" d="M104.86,136.23c-.1-.38,0-.76-.14-1.14a6.73,6.73,0,0,0-.36-1.07c-.15-.38-.56-1.15-1.1-.93s-.33,1-.19,1.4a8.8,8.8,0,0,0,.42,1c.18.38.49.65.68,1s.79.11.69-.29Z"/><path class="cls-2" d="M109.38,123.58a2,2,0,0,0,.54-2,.3.3,0,0,0-.39-.1,2,2,0,0,0-.54,2,.24.24,0,0,0,.39.11Z"/><path class="cls-2" d="M118.64,130.5a5.26,5.26,0,0,1-.12-.91c0-.29,0-.6-.07-.9s0-1-.56-1a.5.5,0,0,0-.44.25,2.32,2.32,0,0,0-.09,1.56,3.35,3.35,0,0,0,.26.66c.15.28.36.37.55.61s.56,0,.47-.27Z"/><path class="cls-2" d="M130.6,118.94a7,7,0,0,0-1.1-2.16c-.48-.57-1.33.16-1,.77a6.49,6.49,0,0,0,1.55,1.71c.22.2.66,0,.55-.32Z"/><path class="cls-2" d="M66.64,72.75a13.15,13.15,0,0,0-3.54-.2c-.22,0-.17.34,0,.4a12.81,12.81,0,0,0,3.54.54c.48.05.46-.68,0-.74Z"/><path class="cls-2" d="M81.05,47.2a20.41,20.41,0,0,0-3.77-.8.31.31,0,0,0-.15.58,19.53,19.53,0,0,0,3.71,1c.5.12.72-.66.21-.78Z"/><path class="cls-2" d="M76.77,47.63a6.22,6.22,0,0,0,1.47,1.15c.19.08.42-.09.3-.3a6.21,6.21,0,0,0-1.31-1.3c-.31-.28-.77.18-.46.45Z"/><path class="cls-2" d="M60.06,65.72a5,5,0,0,1-1.47-.41c-.39-.19-.71-.48-1.1-.64s-.38.21-.3.39c.45,1,2,1.28,2.93,1.1.27,0,.17-.42-.06-.44Z"/><path class="cls-2" d="M50.31,77.14a2.84,2.84,0,0,0-1.56-.53.31.31,0,0,0-.21.52,2.71,2.71,0,0,0,1.54.57c.32,0,.56-.39.23-.56Z"/><path class="cls-2" d="M55.17,92.32c-.57-.16-1.14-.35-1.72-.46-.26,0-.46.32-.19.45A17.14,17.14,0,0,0,55,93c.42.16.63-.55.19-.68Z"/><path class="cls-2" d="M52.35,101.07a8.16,8.16,0,0,0-2.61,0,.24.24,0,0,0-.05.43,8.46,8.46,0,0,0,2.66.42c.55,0,.56-.84,0-.87Z"/><path class="cls-2" d="M76.52,120.56a.05.05,0,0,0,0-.1.05.05,0,1,0,0,.1Z"/><path class="cls-2" d="M76.93,119.6a3.48,3.48,0,0,0-1,1.39,3.15,3.15,0,0,0-.47,1.71c0,.25.3.49.55.32a3,3,0,0,0,1-1.36,3.93,3.93,0,0,0,.48-1.76c0-.24-.29-.47-.52-.3Z"/><path class="cls-2" d="M58.44,111.46c-.37.46-.74.91-1.08,1.4a4.75,4.75,0,0,0-.88,1.52.4.4,0,0,0,.58.44,4.37,4.37,0,0,0,1-1.28c.35-.51.66-1,1-1.59.22-.38-.34-.86-.64-.49Z"/><path class="cls-2" d="M104.45,125.88a5.79,5.79,0,0,0,.6,1.74.34.34,0,0,0,.63-.17,5.4,5.4,0,0,0-.4-1.8.43.43,0,0,0-.83.23Z"/><path class="cls-2" d="M64.43,125.63a6.6,6.6,0,0,0-.66.91c-.18.35-.32.73-.51,1.08a.43.43,0,0,0,.74.44,11.19,11.19,0,0,0,1.17-1.86c.19-.44-.37-1-.74-.57Z"/><path class="cls-8" d="M69.46,128.88c2.62,3.7,9,4.59,13.23,4.77,6.23.27,12.54-1.28,18.45-3.11a.84.84,0,0,0-.45-1.61c-5.53,1.38-11,3-16.79,3a27.31,27.31,0,0,1-7.36-1c-2.3-.65-4.32-2-6.6-2.65-.33-.09-.69.31-.48.62Z"/><path class="cls-8" d="M48,124.13c.16.78,1.19,1.3,1.79,1.75s1.46,1.34,2.35,1.34a.22.22,0,0,0,.21-.27c-.25-.8-1.18-1.27-1.82-1.74s-1.51-1.4-2.35-1.31a.18.18,0,0,0-.18.23Z"/><path class="cls-8" d="M55.85,131.49c.52.26,1,.53,1.57.78a3.08,3.08,0,0,0,1.42.48.32.32,0,0,0,.23-.54,3.08,3.08,0,0,0-1.31-.76l-1.61-.66c-.4-.16-.68.5-.3.7Z"/><path class="cls-9" d="M48.82,64a17.62,17.62,0,0,0-1.43-7l-.41.23c1.4,1.32,2.8,2.64,4.21,3.94.22.2.56-.13.34-.34-1.39-1.33-2.8-2.63-4.2-3.94-.17-.16-.5,0-.41.24A67.31,67.31,0,0,1,48.57,64a.13.13,0,0,0,.25,0Z"/><path class="cls-9" d="M57.8,53.33s0,0,0,0a0,0,0,1,0,0,0Z"/><path class="cls-9" d="M56.77,53.87A27.4,27.4,0,0,1,56,48.54l-.42.17,3.46,3.35c.23.22.57-.12.35-.34l-3.46-3.35a.25.25,0,0,0-.42.17A14.55,14.55,0,0,0,56.45,54c.08.18.35,0,.32-.14Z"/><path class="cls-9" d="M62.94,48.17c-.09-1.84-.25-3.67-.42-5.5l-.4.17a30.13,30.13,0,0,0,4.43,4.1c.15.1.29-.11.19-.24-1.28-1.5-2.9-2.78-4.29-4.19-.13-.13-.41,0-.39.16.17,1.85.37,3.69.64,5.53,0,.13.24.1.24,0Z"/><path class="cls-9" d="M104.54,45a18.5,18.5,0,0,0,4.15-4.32l-.36-.15A34.11,34.11,0,0,0,106.17,46a.13.13,0,0,0,.23.1,34.33,34.33,0,0,0,2.31-5.43c.09-.22-.24-.33-.36-.15a18.7,18.7,0,0,1-4,4.29c-.13.11,0,.33.18.23Z"/><path class="cls-9" d="M113.56,49.74c2-1.27,3.92-2.53,5.86-3.82l-.26-.27a22.34,22.34,0,0,0-2.59,3.87c0,.1.1.16.16.1a23,23,0,0,0,2.76-3.77c.11-.16-.11-.37-.27-.27-1.94,1.3-3.86,2.63-5.78,4-.11.08,0,.28.12.2Z"/><path class="cls-9" d="M121.39,55.6l4.42-1.9-.2-.26a12.93,12.93,0,0,0-3,3.48.15.15,0,0,0,.26.16,21.62,21.62,0,0,1,3-3.41c.15-.13,0-.33-.19-.25l-4.34,2c-.1,0,0,.19.08.14Z"/><path class="cls-9" d="M126,62.69c1.82-.72,3.64-1.44,5.47-2.14l-.12-.29a14,14,0,0,0-4.3,3.83c-.1.14.12.31.23.18a17.94,17.94,0,0,1,4.23-3.73c.18-.11,0-.36-.16-.28-1.8.76-3.6,1.5-5.41,2.24-.12,0-.06.24.06.19Z"/><path class="cls-9" d="M128.67,67.34l5.08-1.63-.16-.35a22,22,0,0,0-4.71,4.17c-.16.19.11.47.28.28a23,23,0,0,1,4.63-4.12c.18-.11.07-.43-.15-.35l-5,1.71c-.18.06-.11.35.08.29Z"/><path class="cls-9" d="M130.11,72.4c2.11-.21,4.21-.74,6.29-1.16l-.15-.36a42.83,42.83,0,0,0-4.51,3.39c-.12.11,0,.31.18.23a42.37,42.37,0,0,0,4.53-3.28.2.2,0,0,0-.15-.36c-2.07.43-4.2.76-6.21,1.38-.08,0-.07.17,0,.16Z"/><path class="cls-9" d="M128.15,84.82a7.12,7.12,0,0,0,3.47.58l-.09-.32a9.86,9.86,0,0,1-1.6,1,16.79,16.79,0,0,0-1.75.7.11.11,0,0,0,.06.21,3.73,3.73,0,0,0,1.78-.54,7.82,7.82,0,0,0,1.72-1.12.17.17,0,0,0-.12-.3,9.76,9.76,0,0,1-3.4-.39c-.09,0-.16.12-.07.16Z"/><path class="cls-9" d="M45,112.64a11.36,11.36,0,0,1-3.84,3.68c-.18.11-.06.42.15.35,2.31-.73,4.61-1.51,6.84-2.42.23-.09.14-.46-.1-.38-2.27.84-4.54,1.67-6.84,2.43l.15.35a11,11,0,0,0,3.82-3.91c.07-.11-.11-.21-.18-.1Z"/><path class="cls-9" d="M55.4,125.42A37.84,37.84,0,0,0,53.15,130c-.08.18.11.45.3.3l2.7-2.05a14.52,14.52,0,0,0,2.37-1.9.13.13,0,0,0-.16-.21A16.15,16.15,0,0,0,55.77,128l-2.54,1.93.3.29a38.57,38.57,0,0,0,2.1-4.69c0-.13-.15-.21-.23-.09Z"/><path class="cls-9" d="M69.58,135.63c-.17,1.79-.18,3.59-.24,5.38a.19.19,0,0,0,.33.14,16.24,16.24,0,0,0,3.79-6.38c.05-.18-.22-.31-.3-.13a24.39,24.39,0,0,1-3.77,6.24l.33.13c.06-1.79.16-3.59.11-5.38a.13.13,0,0,0-.25,0Z"/><path class="cls-9" d="M82.05,137.42c.68,1.59,1.47,3.09,2,4.74a.21.21,0,0,0,.41,0,18.71,18.71,0,0,1,1.67-6.22c.1-.23-.23-.43-.35-.2a16.46,16.46,0,0,0-1.74,6.42l.41-.06a16.41,16.41,0,0,0-2.25-4.72.09.09,0,0,0-.16.09Z"/><path class="cls-9" d="M92.55,137.1a21.52,21.52,0,0,1,2.34,4.06c.07.2.44.19.41-.06a12.46,12.46,0,0,1,.74-6.25c.11-.28-.33-.39-.44-.12a12,12,0,0,0-.71,6.43l.4-.11A8.73,8.73,0,0,0,92.64,137c-.06,0-.13,0-.09.1Z"/><path class="cls-9" d="M101.65,134.69c1.46,1.11,2.63,2,3.22,3.82a.24.24,0,0,0,.47-.13,14.78,14.78,0,0,1,.25-6.21c0-.18-.22-.33-.32-.14a10.06,10.06,0,0,0-.4,6.48l.47-.13c-.54-1.64-1.81-3.48-3.6-3.91a.12.12,0,0,0-.09.22Z"/><path class="cls-9" d="M115.58,127.35a31.14,31.14,0,0,0,3.62,4.88c.14.19.5.1.42-.17a11.69,11.69,0,0,1,0-6.63.21.21,0,0,0-.4-.11,10.54,10.54,0,0,0,0,6.86l.38-.22a31.38,31.38,0,0,0-3.85-4.71.08.08,0,0,0-.13.1Z"/><path class="cls-9" d="M125.17,117c1.68,1,3.42,1.89,5.14,2.8a.25.25,0,0,0,.36-.27,10.29,10.29,0,0,0-2.25-5.12.17.17,0,0,0-.27.21c.36.83.9,1.58,1.26,2.42a13.4,13.4,0,0,1,.79,2.62l.36-.28c-1.73-.91-3.46-1.83-5.23-2.66-.18-.08-.34.17-.16.28Z"/><path class="cls-9" d="M141.32,106.64c.62.23.81.69,1.13,1.21.06.1.24.06.23-.06a1.7,1.7,0,0,0-1.3-1.36.11.11,0,0,0-.06.21Z"/><path class="cls-9" d="M142.89,105.22a15.09,15.09,0,0,0,1.82,1.48.06.06,0,0,0,.08-.1,16.13,16.13,0,0,0-1.78-1.51c-.08-.07-.21.06-.12.13Z"/><path class="cls-9" d="M144,104.37c.41.27.81.57,1.24.81.06,0,.14-.06.08-.11-.39-.3-.82-.56-1.24-.84-.08,0-.16.08-.08.14Z"/><path class="cls-9" d="M145,103.14a13.72,13.72,0,0,0,1.27,1c.05,0,.11-.05.07-.09a12.14,12.14,0,0,0-1.21-1c-.09-.07-.21,0-.13.13Z"/><path class="cls-9" d="M145.39,102.33a12.51,12.51,0,0,0,1.25.79c.05,0,.11,0,.06-.08a11.21,11.21,0,0,0-1.22-.86c-.09-.06-.18.09-.09.15Z"/><path class="cls-9" d="M146.26,102.27s0,0,0,0a0,0,0,1,0,0,0Z"/><path class="cls-9" d="M97.54,56.4c4.15-.4,8.25,1.44,9.49,5.71a8,8,0,1,1-15.47,4.27,8.17,8.17,0,0,1,5.86-9.83.25.25,0,0,0-.14-.47,8.67,8.67,0,0,0-6.19,10.43,8.5,8.5,0,1,0,6.42-10.36c-.14,0-.11.26,0,.25Z"/><path class="cls-9" d="M117.58,58.83a7.54,7.54,0,1,0,2.08,14.83,7.55,7.55,0,0,0,5.11-9.31,7.3,7.3,0,0,0-9.52-4.43c-.17.07,0,.33.12.29,3.53-.91,7.77.45,8.92,4.27A6.94,6.94,0,1,1,110.74,67c-.28-4.3,2.83-7.27,6.86-7.94.1,0,.08-.18,0-.18Z"/><path class="cls-9" d="M105.13,90.86c4.94.76,9.22-5.59,13.91-2,2.44,1.87,4.74,5.51,3.15,8.58-1.77,3.41-5.49,3.17-8.23,1.24-.14-.1-.26.1-.17.21,3.91,4.88,10.92-.51,9-5.83-.92-2.56-3.41-5.55-6.28-5.83-4.21-.41-7,4-11.35,3.51a.06.06,0,0,0,0,.11Z"/><path class="cls-9" d="M113.79,99.17c-.39,1.47.78,1.81,1.87,2.36,6.49,3.27-.72,10.84-5.71,9.84-7.06-1.42-4-10.87-8.48-14.75-.2-.18-.5.1-.3.3,4.27,4.25,1.85,16.18,10.91,15a8,8,0,0,0,6.4-5.71,4.35,4.35,0,0,0-.56-3.71c-.81-1.07-4.22-1.69-3.92-3.23,0-.14-.18-.2-.21-.06Z"/><path class="cls-9" d="M106.21,80.54a4.32,4.32,0,0,1,1.9,2.74l.35-.26a3,3,0,0,1-1.1-2.32c0-.2-.34-.18-.39,0a2.82,2.82,0,0,0,1.25,2.72c.18.13.39-.08.34-.26a4.8,4.8,0,0,0-2.13-3c-.24-.15-.45.23-.22.38Z"/><path class="cls-9" d="M115.66,79.37a4.62,4.62,0,0,0-2.76,3.87c0,.24.32.29.43.11a31.77,31.77,0,0,0,2.21-3.43c.09-.19-.16-.43-.32-.24a33.68,33.68,0,0,0-2.29,3.44l.44.12a5,5,0,0,1,2.39-3.7.1.1,0,0,0-.1-.17Z"/><path class="cls-9" d="M99.52,79.88c-6.93,4.4-15.08,2-22.6,4.17-5.41,1.53-9.54,5.74-8.66,11.68.92,6.23,6.43,10.08,12.47,10.41,7.26.4,14-4,18.42-9.47.16-.19-.1-.46-.28-.28-4.7,4.89-10.22,9.35-17.38,9.29S67.1,99.82,68.82,92c1.53-7,9.67-8.29,15.63-8.52,5.18-.21,10.88-.1,15.15-3.5.06,0,0-.15-.08-.11Z"/><path class="cls-9" d="M81.67,83.39c-2.34,6.93-.52,19,7.53,21.6.28.09.38-.32.12-.43-8.24-3.19-8.6-13.76-7.35-21.08a.16.16,0,0,0-.3-.09Z"/><path class="cls-9" d="M67.83,43.05C67.14,33.64,73.18,25,83,24.13A16.83,16.83,0,0,1,101,40.19c0,.31.5.32.49,0A17.31,17.31,0,0,0,82.58,23.68c-9.4,1-16.66,9.94-15.11,19.41,0,.21.38.16.36,0Z"/><path class="cls-9" d="M42.46,76.87c-2.33-4.65-4.82-9.24-7.37-13.76-1.82-3.24-3.94-6.32-7.41-7.91-.15-.06-.39,0-.37.21,2,15.76,3.93,33-5.35,47-.17.27.25.51.42.25,6.71-10.09,7.73-22.41,6.85-34.2-.25-3.39-.64-6.77-1.06-10.14-.07-.51-.48-1.8-.16-2.16s.89.22,1.3.51a14.86,14.86,0,0,1,3.61,3.85C36.49,65.68,39,71.61,42.17,77a.17.17,0,0,0,.29-.17Z"/><path class="cls-9" d="M22.56,102.79c6.75-.38,10.31-8.46,17.42-7.66.31,0,.3-.44,0-.48-6.86-.9-11.1,6.57-17.46,7.85a.15.15,0,0,0,0,.29Z"/><path class="cls-9" d="M48.48,121.25A8.85,8.85,0,0,0,47,136.17c5,3.84,12.61,1.9,15.73-3.45.1-.18-.16-.4-.3-.23-3.58,4.4-9.21,7.07-14.53,3.72A8.62,8.62,0,0,1,44,128.62c.16-3.26,2.22-5.31,4.61-7.2.1-.08,0-.23-.13-.17Z"/><path class="cls-9" d="M132.92,106.12c2,2.62,5.82,3.31,8.87,2.45a10.5,10.5,0,0,0,7.07-8.07c2-9.41-6.71-16.16-14.77-18.29a.25.25,0,0,0-.13.48c7.2,1.9,14.52,7,14.67,15.23a10.7,10.7,0,0,1-5.15,9.43c-3.56,2-7.34,1-10.38-1.37-.09-.08-.27,0-.18.14Z"/><path class="cls-9" d="M141.59,85.66c3.15,3.51.23,8.9-1.74,12.31a39.61,39.61,0,0,1-7,8.53c-.19.19.1.46.3.29a31.71,31.71,0,0,0,8.58-11.41c1.37-3,3.1-7.34.07-9.91a.14.14,0,0,0-.2.19Z"/><path class="cls-9" d="M104.34,70.73A26.74,26.74,0,0,1,96.9,74.2a.08.08,0,0,0,0,.16,14.56,14.56,0,0,0,7.5-3.5c.07-.06,0-.18-.1-.13Z"/><path class="cls-9" d="M103.64,71.51a15.12,15.12,0,0,1-8,5.27c-.1,0-.06.16,0,.15a12,12,0,0,0,8.08-5.32.09.09,0,0,0-.14-.1Z"/><path class="cls-9" d="M113.81,71.85a12.47,12.47,0,0,0,10.16,3c.15,0,.11-.26,0-.26a17.77,17.77,0,0,1-10-2.89.08.08,0,0,0-.09.12Z"/><path class="cls-9" d="M114.15,72.14a8,8,0,0,0,9,4.51.11.11,0,0,0,0-.21,8.61,8.61,0,0,1-8.83-4.36c0-.08-.15,0-.11.06Z"/><path class="cls-9" d="M114.11,60.29a3.92,3.92,0,0,0-2.89,4.4,4.46,4.46,0,0,0,4.47,3.44A5.32,5.32,0,0,0,120.54,64c.48-2-.36-4.6-2.74-4.63-.21,0-.27.33-.06.37,5,.87,1.74,8.11-2.28,8s-5.57-5.93-1.32-7.28c.09,0,0-.16,0-.14Z"/><path class="cls-9" d="M103.24,57.37c-3.36,0-5.28,3.93-3.94,6.8a4.94,4.94,0,0,0,8.17,1.12c.19-.21-.11-.52-.31-.32a4.54,4.54,0,0,1-7.39-.78c-1.68-3.08.61-5.8,3.48-6.69.08,0,.07-.14,0-.13Z"/><path class="cls-9" d="M40.68,89.15a54.86,54.86,0,0,1,.41-7.58c0-.09-.14-.11-.16,0a26.92,26.92,0,0,0-.42,7.6c0,.11.18.11.17,0Z"/><path class="cls-9" d="M42.22,79.13a51.63,51.63,0,0,1,5.3-15.68.11.11,0,0,0-.19-.11,29.42,29.42,0,0,0-5.27,15.77c0,.09.15.11.16,0Z"/><path class="cls-9" d="M48.85,59.52c1.08-1.3,2-2.74,3.06-4.06s2.28-2.54,3.35-3.86a.16.16,0,0,0-.22-.22,29,29,0,0,0-6.35,8c0,.1.08.21.16.12Z"/><path class="cls-9" d="M57.64,49.89c1.66-1.4,3.43-2.72,5-4.26.09-.1,0-.28-.15-.19-1.74,1.31-3.29,2.89-4.9,4.35-.06.06,0,.15.09.1Z"/><path class="cls-9" d="M64.24,45.27a48,48,0,0,1,13.25-6.78c.25-.08.14-.47-.11-.39a39.12,39.12,0,0,0-13.28,7c-.1.08,0,.26.14.18Z"/><path class="cls-9" d="M85.66,38.15c7-.26,13,.79,19.08,4.47.22.13.4-.2.2-.34C99.56,38.58,92.1,36.62,85.65,38a.06.06,0,0,0,0,.12Z"/><path class="cls-9" d="M108.17,43.26a3.21,3.21,0,0,0-.62,0s0,0,0,.05a3.22,3.22,0,0,0,.62,0,0,0,0,1,0,0,0Z"/><path class="cls-9" d="M107.12,43.54a16,16,0,0,1,7.31,3.09c.2.16.49-.11.28-.28a12.41,12.41,0,0,0-7.56-3c-.1,0-.12.15,0,.17Z"/><path class="cls-9" d="M116.74,49.26a12.65,12.65,0,0,1,5.16,4.37c.13.21.46,0,.33-.19a9.79,9.79,0,0,0-5.42-4.34c-.1,0-.17.12-.07.16Z"/><path class="cls-9" d="M124,55.72c.59.61,1.39,1,2,1.63a8,8,0,0,1,1.55,2.55c.08.2.39.12.32-.09a7.18,7.18,0,0,0-1.46-2.52A4.63,4.63,0,0,0,124,55.65s-.07,0,0,.07Z"/><path class="cls-9" d="M127.78,62.76c.38.58.85,1.09,1.22,1.68s.61,1.26,1,1.82a.09.09,0,0,0,.17-.07,5.47,5.47,0,0,0-1-2,6.21,6.21,0,0,0-1.32-1.52s-.12,0-.08.08Z"/><path class="cls-9" d="M130.39,67.91a11.43,11.43,0,0,1,1.06,3.65c0,.12.18.08.19,0a6.52,6.52,0,0,0-1.08-3.73c-.06-.11-.22,0-.17.1Z"/><path class="cls-9" d="M132.17,74.81c.51,5,1.8,9.87,1.92,14.94a35,35,0,0,1-2.48,13.84c0,.1.13.17.18.07,4.39-8.48,3.11-20,.49-28.86a.06.06,0,0,0-.11,0Z"/><path class="cls-9" d="M131.83,106.36a32,32,0,0,1-3.34,7.88c-.07.12.11.27.2.16a16.27,16.27,0,0,0,3.3-8c0-.09-.14-.1-.16,0Z"/><path class="cls-9" d="M39.9,92c-1.06,7,.86,14.57,4.26,20.64a.11.11,0,0,0,.19-.11C40.85,106,39.81,99.39,39.93,92a0,0,0,0,0,0,0Z"/><path class="cls-9" d="M49,118.82c-.69-.27-1.36-.55-2-.81,0,0,0,0,0,0,.68.29,1.36.55,2.05.83a0,0,0,0,0,0,0Z"/><path class="cls-9" d="M45.94,115.15A18.84,18.84,0,0,0,54,127c.13.08.24-.12.12-.21a21.57,21.57,0,0,1-8.1-11.64c0-.07-.12,0-.11,0Z"/><path class="cls-9" d="M56.38,128.48a27.74,27.74,0,0,0,12.68,8.6c.16,0,.22-.19.07-.25a41.54,41.54,0,0,1-12.7-8.41s-.08,0,0,.06Z"/><path class="cls-9" d="M72.52,137.54a30.66,30.66,0,0,0,10.87,2.06c.17,0,.16-.25,0-.26a35.57,35.57,0,0,1-10.81-2c-.13,0-.18.16-.06.2Z"/><path class="cls-9" d="M84.81,139.35a27,27,0,0,0,8.65,0c.12,0,.1-.22,0-.21a82.44,82.44,0,0,1-8.61.09c-.1,0-.12.15,0,.17Z"/><path class="cls-9" d="M95.11,138.67c2.74-.71,5.52-1.56,8.18-2.52a.07.07,0,0,0,0-.14c-2.74.71-5.51,1.58-8.17,2.54-.07,0,0,.14,0,.12Z"/><path class="cls-9" d="M104.48,135.2a38,38,0,0,0,13.17-6c.11-.08,0-.26-.1-.18a48.38,48.38,0,0,1-13.1,6.08c-.07,0,0,.12,0,.11Z"/><path class="cls-9" d="M118.86,127.73a22.13,22.13,0,0,0,9.19-9.29.07.07,0,0,0-.13-.07,28.51,28.51,0,0,1-9.1,9.28s0,.1,0,.08Z"/><path class="cls-9" d="M126.8,118.54a.11.11,0,0,0,0-.22.11.11,0,0,0,0,.22Z"/><path class="cls-9" d="M104,50.35v-.11a.15.15,0,0,0-.3,0v.11c0,.2.33.2.32,0Z"/><path class="cls-9" d="M104.78,50.62c-5.25-1.31-10.92,1.05-14.52,4.87-.22.23.13.58.35.34,3.83-4.07,8.71-5.3,14.14-5,.14,0,.17-.21,0-.25Z"/><path class="cls-9" d="M109.62,51.33c4.58-.28,8.79,1.56,11,5.7.15.28.58,0,.43-.25-2.17-4-6.86-6.72-11.48-5.74-.16,0-.12.3,0,.29Z"/><path class="cls-9" d="M95.06,53.74a0,0,0,0,0,0,0s0,0,0,0Z"/><path class="cls-9" d="M92,56a60,60,0,0,1,7.22-3.38c.15-.06,0-.28-.1-.24a22.55,22.55,0,0,0-7.21,3.46c-.1.07,0,.22.09.16Z"/><path class="cls-9" d="M113.28,53.53a19.42,19.42,0,0,1,2.1,1.49c.6.52,1.1,1.14,1.69,1.67.09.07.22,0,.16-.12a8,8,0,0,0-3.88-3.21c-.1,0-.16.11-.07.17Z"/><path class="cls-9" d="M72.31,61.83a15.6,15.6,0,0,1-5.41-.1c-.27-.06-.38.34-.11.4a9.44,9.44,0,0,1,3.63,1.76c.19.14.41-.16.25-.31a8,8,0,0,0-3.77-1.85l-.06.41a20.48,20.48,0,0,0,5.53-.09c.14,0,.08-.24-.06-.22Z"/><path class="cls-9" d="M60.43,83.92a8,8,0,0,1-4.14.28.2.2,0,0,0-.1.38l4.43,1.66c.28.1.4-.34.12-.44l-4.45-1.6,0,.39a11.73,11.73,0,0,0,4.25-.45c.13,0,.08-.26-.06-.22Z"/><path class="cls-9" d="M54.11,105.12l-.21.2a0,0,0,0,0,0,0l.21-.2s0,0,0,0Z"/><path class="cls-9" d="M53.71,104.09c-1,1.25-2.1,2.49-3.14,3.74-.1.12,0,.36.17.29l2.58-1a10.41,10.41,0,0,0,2.23-1,.1.1,0,0,0-.08-.18,10.86,10.86,0,0,0-2.43.87l-2.39,1,.17.3c1-1.28,2-2.58,3-3.86.08-.09-.05-.22-.13-.13Z"/><path class="cls-9" d="M68.35,109.07a8,8,0,0,0-1.11,4.39.2.2,0,0,0,.33.14A15.32,15.32,0,0,0,70,110.92a.13.13,0,0,0-.18-.18,15.4,15.4,0,0,0-2.52,2.58l.34.14a9.93,9.93,0,0,1,.88-4.3.09.09,0,0,0-.16-.09Z"/><path class="cls-9" d="M106.41,120.89a7.57,7.57,0,0,1,2.75,3.7c0,.16.33.24.41,0a19.8,19.8,0,0,0,1.62-3.91.16.16,0,0,0-.29-.13,20.26,20.26,0,0,0-1.72,3.82l.41,0a5.9,5.9,0,0,0-3-3.74c-.1,0-.23.08-.13.16Z"/><path class="cls-9" d="M95.47,47.32A20.67,20.67,0,0,0,78.14,60.44c0,.08.1.13.13.06A21.57,21.57,0,0,1,95.48,47.41a0,0,0,0,0,0-.09Z"/><path class="cls-9" d="M77.12,67.61A18.2,18.2,0,0,0,76.86,81c.08.22.44.13.35-.1a17.78,17.78,0,0,1,.14-13.24c.06-.14-.17-.2-.23-.06Z"/><path class="cls-9" d="M87.09,109.19a18.27,18.27,0,0,0,15.14,7.9.17.17,0,0,0,0-.33,21.29,21.29,0,0,1-15-7.7c-.09-.09-.24,0-.18.13Z"/><path class="cls-9" d="M107.76,116.47c9.09,1.16,19.34-1.41,26.27-7.61.13-.11,0-.33-.18-.23-7.87,5.54-16.36,8.46-26.09,7.7-.09,0-.09.13,0,.14Z"/><path class="cls-9" d="M116.51,89.9a5.46,5.46,0,0,1,2.5,1.87,4.22,4.22,0,0,1,.64,1.53c0,.17.17.74.06.91l-1.63.35a2,2,0,0,1,.12-.69c.18-.61.57-1.23.36-1.88a1.2,1.2,0,0,0-.36-.55c-.18-.17-.42-.21-.6-.36l-.25-.13c-.38-.16-.44-.52-.2-1.09.2,0,.2-.32,0-.3a.68.68,0,0,0-.72.73c0,.67.68.82,1.13,1.13,1.52,1.06,0,2.2.28,3.45a1,1,0,0,0,.82.83c1.55.23,1.51-2,1.21-3a4.2,4.2,0,0,0-3.32-3,.07.07,0,0,0,0,.13Z"/><path class="cls-9" d="M113.7,88.68c-.46,0-1.38.66-.93,1.18a1.21,1.21,0,0,0,1.81,0,.93.93,0,0,0-.31-1.46c-.5-.17-1.22.27-1,.84a.08.08,0,0,0,.15,0,.64.64,0,0,1,.88-.53c.4.21.32.83.06,1.1a1,1,0,0,1-1.21,0c-.59-.4.12-1,.59-1.08.07,0,.07-.12,0-.12Z"/><path class="cls-9" d="M77.37,84.22c-.39-3.31-1.05-6.47-.9-9.83A33.16,33.16,0,0,1,78.7,63.94c.11-.29-.36-.42-.47-.13-2.37,6.12-3.54,14.17-1,20.43,0,.07.15.07.14,0Z"/><path class="cls-9" d="M77.51,60.84c2.48-3.94,4.83-7.37,8.87-9.9s8.16-3.29,12.79-3.59a.15.15,0,0,0,0-.3c-8.45-1-19.3,5.41-21.81,13.73,0,.08.1.13.15.06Z"/><path class="cls-9" d="M105.72,117.27c4.06,1.08,8.93.34,12.94-.68s8.52-2.76,11.76-5.51c.15-.12,0-.35-.2-.26-3.83,2.15-7.37,4.2-11.69,5.3s-8.38.81-12.79,1a.1.1,0,0,0,0,.19Z"/><path class="cls-9" d="M69.5,92.89c1.5-.75,3-1.47,4.5-2.26.06,0,0-.12,0-.09-1.53.7-3,1.49-4.51,2.24-.08,0,0,.15.06.11Z"/><path class="cls-9" d="M67.88,93.66a21.07,21.07,0,0,0,7.56-3,.11.11,0,0,0-.11-.18,51.36,51.36,0,0,1-7.48,3.08.06.06,0,0,0,0,.12Z"/><path class="cls-9" d="M68.28,96.19c2-.86,4-1.64,6-2.63.12-.06,0-.27-.09-.22-2,.79-4,1.8-5.94,2.72-.09,0,0,.16.07.13Z"/><path class="cls-9" d="M69.1,98.07c2-.75,4-1.52,6-2.45.09-.05,0-.2-.07-.16-2,.7-4,1.6-5.95,2.48-.07,0,0,.16.06.13Z"/><path class="cls-9" d="M70.12,100.38a12.84,12.84,0,0,0,5.33-2.19c.09-.07,0-.18-.11-.14a34.43,34.43,0,0,1-5.25,2.19.07.07,0,0,0,0,.14Z"/><path class="cls-9" d="M71.58,103c1.77-.87,3.59-1.69,5.32-2.66.11-.06,0-.21-.09-.16-1.81.81-3.55,1.78-5.31,2.68-.09,0,0,.18.08.14Z"/><path class="cls-9" d="M28.64,64.14a15.88,15.88,0,0,0,5.61,1.53c.1,0,.13-.17,0-.18a47,47,0,0,1-5.61-1.42s-.07.05,0,.07Z"/><path class="cls-9" d="M28.69,68.39a11.8,11.8,0,0,1,4.75,1.92.05.05,0,0,0,.06-.08,8.94,8.94,0,0,0-4.76-2c-.12,0-.17.17,0,.19Z"/><path class="cls-9" d="M29.51,72.89c1.29.3,2.58.64,3.88.85.09,0,.12-.11,0-.13-1.27-.37-2.58-.62-3.87-.91a.1.1,0,1,0,0,.19Z"/><path class="cls-9" d="M28.88,76.34a8.45,8.45,0,0,0,4.14,1,.08.08,0,1,0,0-.15,12.48,12.48,0,0,1-4.08-1c-.07,0-.14.08-.06.12Z"/><path class="cls-9" d="M28.7,80a44.18,44.18,0,0,0,4.54,1c.08,0,.09-.12,0-.14a43.14,43.14,0,0,0-4.51-1c-.11,0-.16.14-.05.16Z"/><path class="cls-9" d="M28.87,84a14.66,14.66,0,0,0,4.57,1c.06,0,.08-.1,0-.11a28.23,28.23,0,0,1-4.54-1.06c-.09,0-.13.11,0,.14Z"/><path class="cls-9" d="M27.69,88.65c1.23.07,2.46.19,3.69.19.08,0,.08-.12,0-.13-1.22-.13-2.46-.14-3.69-.2-.09,0-.09.13,0,.14Z"/><path class="cls-9" d="M26.71,92.75c1.43-.47,2.88-.91,4.29-1.45.06,0,0-.11,0-.1-1.46.41-2.88.93-4.31,1.41-.09,0-.05.17,0,.14Z"/><path class="cls-9" d="M25.88,95.4a13.76,13.76,0,0,0,4.91-2.11.06.06,0,0,0-.06-.11,17.12,17.12,0,0,1-4.89,2.06.08.08,0,0,0,0,.16Z"/><path class="cls-9" d="M23.64,99a33,33,0,0,0,6.56-3.91c.06,0,0-.14-.08-.1a50.88,50.88,0,0,1-6.55,3.89c-.09,0,0,.16.07.12Z"/><path class="cls-9" d="M78.24,36.32c0,.41,0,.82,0,1.23,0,0,.07,0,.07,0,0-.41,0-.82,0-1.23a0,0,0,1,0-.07,0Z"/><path class="cls-9" d="M79.24,35.93c.27.75.51,1.53.83,2.26,0,.05.11,0,.1,0-.22-.76-.54-1.51-.81-2.26,0-.07-.15,0-.12,0Z"/><path class="cls-9" d="M80.4,36.53a7.11,7.11,0,0,0,0,1s.09,0,.09,0a5.91,5.91,0,0,0,0-1,.07.07,0,1,0-.15,0Z"/><path class="cls-9" d="M81.48,36.34c.07.41.12.82.23,1.22a0,0,0,0,0,.09,0c0-.42-.11-.84-.18-1.25,0-.09-.16,0-.14,0Z"/><path class="cls-9" d="M82.29,36.12a11.36,11.36,0,0,0,0,1.65s.09,0,.09,0a10.11,10.11,0,0,0,0-1.65.08.08,0,1,0-.16,0Z"/><path class="cls-9" d="M83.8,35.72a0,0,0,0,0,0,0s0,0,0,0Z"/><path class="cls-9" d="M84.94,35.53A22.88,22.88,0,0,0,85.38,38c0,.06.13.05.12,0a20.62,20.62,0,0,0-.38-2.48c0-.12-.2-.07-.18.05Z"/><path class="cls-9" d="M86.6,35.09A5.37,5.37,0,0,0,87.66,38s.1,0,.08-.06a9.16,9.16,0,0,1-1-2.84c0-.09-.15-.09-.14,0Z"/><path class="cls-9" d="M82.85,30a10.71,10.71,0,0,1-.33,6.71c0,.09.12.16.16.07A9.22,9.22,0,0,0,83,30a.09.09,0,0,0-.18.05Z"/><path class="cls-9" d="M75.16,27.33A18.09,18.09,0,0,0,75.6,30a.08.08,0,0,0,.15,0,18.92,18.92,0,0,0-.43-2.68c0-.11-.18-.06-.16,0Z"/><path class="cls-9" d="M77.38,27.12c.2.82.36,1.66.62,2.46,0,.08.15.05.13,0-.14-.83-.4-1.65-.61-2.46a.07.07,0,0,0-.14,0Z"/><path class="cls-9" d="M80.26,26.51c.19,1,.34,2.06.62,3.07,0,.06.13.05.12,0-.14-1-.4-2.06-.62-3.09,0-.08-.14,0-.12,0Z"/><path class="cls-9" d="M82.92,26.68a3.65,3.65,0,0,0,.64,2.92s.11,0,.08-.06a4.09,4.09,0,0,1-.6-2.83c0-.07-.1-.11-.12,0Z"/><path class="cls-9" d="M87,26.9c.06,1,.07,2.06.2,3.07a.06.06,0,1,0,.12,0c0-1-.14-2-.22-3.07,0-.06-.11-.06-.1,0Z"/><path class="cls-9" d="M90.74,27.31c.06,1,.07,1.92.2,2.86,0,.08.13.09.13,0,0-1-.12-1.91-.19-2.86,0-.09-.15-.09-.14,0Z"/><path class="cls-9" d="M93.15,28.38a5.62,5.62,0,0,1,.44,3c0,.05.07.06.09,0a4.34,4.34,0,0,0-.39-3.12c-.05-.1-.18,0-.14.08Z"/><path class="cls-9" d="M96.69,30.58c-.15.82-.33,1.64-.42,2.47,0,.07.11.09.13,0,.19-.8.29-1.64.43-2.45,0-.1-.13-.14-.14,0Z"/><path class="cls-9" d="M69.86,34.28c.28,1.16.51,2.33.84,3.47,0,.07.12,0,.11,0-.21-1.17-.53-2.32-.81-3.48,0-.09-.16-.05-.14,0Z"/><path class="cls-2" d="M139.14,47.57c2.3-.24,4.73.69,5.6,3a4.91,4.91,0,0,1-3.06,6.25,5,5,0,0,1-5.9-3.11c-.8-2.58.8-4.85,3-6a.26.26,0,0,0-.2-.47,5.44,5.44,0,0,0-3.33,6.62,5.32,5.32,0,0,0,10.26-2.74,5.39,5.39,0,0,0-6.44-4c-.25.06-.21.49.06.46Z"/><path class="cls-2" d="M126.43,30.51c-4.51,1-5.54,6.41-2.58,9.68,2.81,3.1,8.35,3.12,11-.2,2.42-3,1.91-8.08-1.3-10.36a7.38,7.38,0,0,0-10.33,2.25.28.28,0,0,0,.48.28,7,7,0,0,1,8.83-2.43c3,1.64,4,5.67,2.56,8.69-1.58,3.32-5.86,4.36-9,2.69-4.16-2.19-4.73-9,.47-10.31a.15.15,0,0,0-.08-.29Z"/><path class="cls-2" d="M150.45,14.32c-3.93,1-7.13,4.45-6.68,8.69a7.64,7.64,0,1,0,15.15-1.91,8,8,0,0,0-8.41-6.54c-.4,0-.4.64,0,.61a7.3,7.3,0,0,1,7.75,6,7.21,7.21,0,0,1-6.32,8,7.36,7.36,0,0,1-7.49-5.61c-.82-4,2.32-8,6.06-9a.11.11,0,0,0-.06-.22Z"/><path class="cls-2" d="M124.53,7.43c-4.47.82-5.3,6.26-2.62,9.4,3.1,3.64,9.18,3.54,12.75.67s3.28-8.21-.24-11.11-9-2-12.24,1c-.22.21.07.61.33.43,2.71-1.89,5.85-3.22,9.18-2.14,3.94,1.29,6.36,6.19,3.9,9.82-2.05,3-6.52,4.14-9.92,3.07-5.06-1.6-6.82-8.82-1.07-10.84a.13.13,0,0,0-.07-.26Z"/><path class="cls-2" d="M144.21,64.49c-1.61,1.25,1,4.13,2.69,2.88a2.25,2.25,0,0,0,.68-2.38,2,2,0,0,0-.68-1c-.54-.41-1-.21-1.66-.07a.09.09,0,0,0,0,.18c.53,0,1.12-.18,1.53.24a1.68,1.68,0,0,1,.41.78,1.92,1.92,0,0,1-.45,1.84,1.45,1.45,0,0,1-2-.25,2.16,2.16,0,0,1-.4-2.13.06.06,0,0,0-.1-.06Z"/><path class="cls-2" d="M140.55,74.49c-1.31,1.7.83,4.43,2.8,3.54,1.54-.69,2-3.9.07-4.4a.21.21,0,0,0-.21.35,2.23,2.23,0,0,1,.93,1.57,2.12,2.12,0,0,1-.74,1.83c-1.63,1.2-3.37-1.29-2.65-2.77a.12.12,0,0,0-.2-.12Z"/><path class="cls-2" d="M129.72,7.64a5.44,5.44,0,0,0,.82,1,4.38,4.38,0,0,1,.82,2c.22,1.44-.36,2.33-.92,3.57-.08.18.1.44.31.3,1.2-.78,1.45-2.64,1.24-3.95-.17-1.11-.88-3-2.17-3.12-.1,0-.14.11-.1.18Z"/><path class="cls-2" d="M151.19,17.87c1.15.72,2.18,1.27,2.73,2.6.64,1.58,0,2.8-.81,4.14-.26.46.3,1.13.78.78,2.9-2.16,1.43-8.38-2.59-7.93a.22.22,0,0,0-.11.41Z"/><path class="cls-2" d="M129.62,32a3.26,3.26,0,0,1,1.55,2.69,6.05,6.05,0,0,1-.84,2.73c-.08.17,0,.44.27.35,2.8-1,1.51-5.43-.53-6.54a.45.45,0,0,0-.45.77Z"/><path class="cls-2" d="M140.74,49.16a2.35,2.35,0,0,1,.69,1.71,2.62,2.62,0,0,1-.88,1.57.29.29,0,0,0,.19.48c2.07.23,2.26-4.1.15-4.13a.22.22,0,0,0-.15.37Z"/><path class="cls-2" d="M146.13,66.33l.27-.13c.31,0,.44-.39.25-.59s-.62-.06-.59.25l-.13.28a.14.14,0,0,0,.2.19Z"/><path class="cls-2" d="M142.22,75.52a.81.81,0,0,0,.11.68.37.37,0,0,0,.63,0,.81.81,0,0,0,.1-.68.44.44,0,0,0-.84,0Z"/></svg>