<svg id="carracters" xmlns="http://www.w3.org/2000/svg" viewBox="0 0 198.43 35.43"><defs><style>.cls-1{fill:#fff;}.cls-2{fill:#6e6e6e;}</style></defs><path d="M63.1,11.1l.84-1.19a22.55,22.55,0,0,0,8.72,2.75c-.07.26-.13.52-.2.78s-.13.5-.18.72c-.45,0-.87,0-1.29,0a4.5,4.5,0,0,0-2.43,1c-.24.18-.46.38-.7.57a.23.23,0,0,1-.19.05l-1.31-.56a8.94,8.94,0,0,1,2.34-1.7c-.49-.14-1-.27-1.4-.42a19,19,0,0,1-4-1.85l-.21-.11Z"/><path class="cls-1" d="M21.24,16.71l1.48.54-.38.78a2.05,2.05,0,0,0,.43,2.48,15.46,15.46,0,0,0,1.64,1.37,7,7,0,0,1,2.06,2.17A4.3,4.3,0,0,1,27,27.24a3.42,3.42,0,0,1-2.89,2.58,5.23,5.23,0,0,1-2.39-.23,18.63,18.63,0,0,1-2.81-1.25L19.34,27c.55.25,1.1.52,1.66.76a5.41,5.41,0,0,0,2.28.57,2,2,0,0,0,2-1.53,2.63,2.63,0,0,0-.24-1.74,6.1,6.1,0,0,0-2-2.23,18.36,18.36,0,0,1-1.52-1.25,3.34,3.34,0,0,1-.85-3.8C20.89,17.42,21.07,17.08,21.24,16.71Z"/><path d="M102.94,17.28c-.14.29-.27.55-.39.81a2,2,0,0,0,.44,2.45,12.12,12.12,0,0,0,1.55,1.3,6.64,6.64,0,0,1,2.37,2.67,3.9,3.9,0,0,1,0,3.43,3.5,3.5,0,0,1-3.17,1.94,5.47,5.47,0,0,1-2.43-.48c-.76-.32-1.51-.68-2.25-1L99.56,27l1.22.59a8.06,8.06,0,0,0,2.24.73,2.7,2.7,0,0,0,1.38-.15,2,2,0,0,0,1.12-2.46A4.57,4.57,0,0,0,104,23.35c-.49-.42-1-.77-1.53-1.18a7.57,7.57,0,0,1-.9-.89,3.32,3.32,0,0,1-.48-3.66c.11-.26.23-.5.36-.74a.22.22,0,0,1,.2-.08Z"/><path d="M140.34,17.28c-.12.25-.24.47-.35.7a2.12,2.12,0,0,0,.49,2.66,12.45,12.45,0,0,0,1.43,1.18,6.82,6.82,0,0,1,2.34,2.55,4.24,4.24,0,0,1,.36,2.82,3.42,3.42,0,0,1-2.85,2.63,4.72,4.72,0,0,1-2.42-.21c-1-.37-1.91-.8-2.86-1.2L137,27l.93.45a8.34,8.34,0,0,0,2.56.87,2.31,2.31,0,0,0,2-.56,2,2,0,0,0,.47-2.1,4.65,4.65,0,0,0-1.61-2.36c-.42-.36-.89-.67-1.33-1a5,5,0,0,1-1.64-2,3.46,3.46,0,0,1,.11-2.66c.11-.26.24-.52.37-.76,0-.05.13-.11.17-.09Z"/><path d="M145.77,14.2l-.66,0a4.23,4.23,0,0,0-2.72.82c-.35.25-.67.54-1,.79a.34.34,0,0,1-.26.05l-1.26-.54a9.26,9.26,0,0,1,2.35-1.71,19,19,0,0,1-5.62-2.4l.83-1.25a22.76,22.76,0,0,0,8.73,2.75l-.18.75C145.91,13.67,145.84,13.92,145.77,14.2Z"/><path class="cls-1" d="M19,11.13l.07-.11.76-1.15a22.32,22.32,0,0,0,8.73,2.75l-.39,1.55a5.12,5.12,0,0,0-1.79,0,5.73,5.73,0,0,0-2.47,1.42.41.41,0,0,1-.55.09c-.35-.18-.71-.32-1.09-.49a9.28,9.28,0,0,1,2.34-1.71A18.85,18.85,0,0,1,19,11.13Z"/><path d="M108.76,12.66c-.13.49-.24,1-.38,1.45,0,0-.13.07-.2.08a13.84,13.84,0,0,0-1.44,0,4.92,4.92,0,0,0-2.35,1.19,1.54,1.54,0,0,0-.19.17c-.23.31-.48.28-.79.11a9.34,9.34,0,0,0-1-.42,9.26,9.26,0,0,1,2.35-1.71,19,19,0,0,1-5.62-2.4L100,9.91A22.75,22.75,0,0,0,108.76,12.66Z"/><path class="cls-1" d="M32.64,27.22a10.24,10.24,0,0,0-5.59-6L27.93,20c.52.27,1.07.51,1.57.81a10.44,10.44,0,0,1,4.55,5.32c.09.23.06.33-.16.44C33.47,26.75,33.07,27,32.64,27.22Z"/><path class="cls-1" d="M14.53,28.07l-1.29-1.69A51.7,51.7,0,0,0,18.88,22l.82,1.27c-.58.51-1.13,1-1.71,1.49-1,.87-2.07,1.71-3.1,2.57-.07.05-.1.16-.14.24S14.62,27.85,14.53,28.07Z"/><path d="M139,16.71l1.48.54c-.14.27-.26.53-.38.78a2.06,2.06,0,0,0,.42,2.48,15.57,15.57,0,0,0,1.65,1.37,7.12,7.12,0,0,1,2.06,2.17,4.3,4.3,0,0,1,.51,3.19,3.43,3.43,0,0,1-2.9,2.58,5.2,5.2,0,0,1-2.38-.23,18.74,18.74,0,0,1-2.82-1.25l.46-1.34c.54.25,1.09.52,1.65.76a5.49,5.49,0,0,0,2.28.57A2,2,0,0,0,143,26.8a2.69,2.69,0,0,0-.25-1.74,6.07,6.07,0,0,0-1.95-2.23,17,17,0,0,1-1.53-1.25,3.32,3.32,0,0,1-.84-3.8C138.6,17.42,138.78,17.08,139,16.71Z"/><path d="M136.69,11.13s0-.08.06-.11l.77-1.15a22.32,22.32,0,0,0,8.73,2.75l-.39,1.55a5.18,5.18,0,0,0-1.8,0,5.75,5.75,0,0,0-2.46,1.42.42.42,0,0,1-.56.09c-.34-.18-.71-.32-1.09-.49a9.51,9.51,0,0,1,2.35-1.71A18.74,18.74,0,0,1,136.69,11.13Z"/><path class="cls-2" d="M150.35,27.22a10.27,10.27,0,0,0-5.59-6l.87-1.23c.53.27,1.07.51,1.58.81a10.54,10.54,0,0,1,4.55,5.32c.09.23.05.33-.16.44C151.18,26.75,150.78,27,150.35,27.22Z"/><path d="M132.24,28.07l-1.3-1.69A49.85,49.85,0,0,0,136.58,22l.83,1.27c-.58.51-1.13,1-1.71,1.49-1,.87-2.07,1.71-3.11,2.57a.78.78,0,0,0-.13.24C132.39,27.69,132.33,27.85,132.24,28.07Z"/><path d="M101.55,16.71l1.48.54c-.14.27-.27.53-.38.78a2.06,2.06,0,0,0,.42,2.48,15.46,15.46,0,0,0,1.64,1.37,7,7,0,0,1,2.07,2.17,4.3,4.3,0,0,1,.51,3.19,3.44,3.44,0,0,1-2.9,2.58,5.2,5.2,0,0,1-2.38-.23,18.74,18.74,0,0,1-2.82-1.25L99.65,27c.54.25,1.09.52,1.65.76a5.49,5.49,0,0,0,2.28.57,2,2,0,0,0,2.06-1.53,2.69,2.69,0,0,0-.25-1.74,6.16,6.16,0,0,0-2-2.23,17,17,0,0,1-1.53-1.25,3.32,3.32,0,0,1-.84-3.8C101.2,17.42,101.38,17.08,101.55,16.71Z"/><path d="M99.29,11.13l.06-.11.77-1.15a22.32,22.32,0,0,0,8.73,2.75l-.4,1.55a5.12,5.12,0,0,0-1.79,0,5.69,5.69,0,0,0-2.46,1.42.42.42,0,0,1-.56.09c-.34-.18-.71-.32-1.09-.49a9.33,9.33,0,0,1,2.35-1.71A18.64,18.64,0,0,1,99.29,11.13Z"/><path class="cls-2" d="M113,27.22a10.3,10.3,0,0,0-5.59-6l.87-1.23c.53.27,1.07.51,1.58.81a10.54,10.54,0,0,1,4.55,5.32c.09.23,0,.33-.17.44C113.78,26.75,113.37,27,113,27.22Z"/><path class="cls-2" d="M94.84,28.07l-1.3-1.69A50.76,50.76,0,0,0,99.18,22l.83,1.27c-.58.51-1.14,1-1.71,1.49-1,.87-2.08,1.71-3.11,2.57a.51.51,0,0,0-.13.24C95,27.69,94.93,27.85,94.84,28.07Z"/><path d="M132.15,28.08l-1.3-1.68A52.24,52.24,0,0,0,136.49,22l.83,1.27L136,24.44l-3.46,2.86a.57.57,0,0,0-.14.24C132.3,27.7,132.24,27.86,132.15,28.08Z"/><path d="M73.17,13.9c.94.16.94.16.93.35l-1.33-.2c.06-.41.12-.8.19-1.19,0,0,.08-.06.12-.09a.37.37,0,0,1,.07.14c0,.26-.07.52-.12.83l2.64-1.85-2.77-.17v-.2l1.86.11c.35,0,.71,0,1.06.08.08,0,.15.07.28.14Z"/><path d="M99.53,18.8l.53-.3c.12.1.13.17,0,.25a6.16,6.16,0,0,0-.55.33c-.12.08-.19.05-.26-.07s-.27-.48-.41-.71c.16-.13.16-.13.27.06l.23.37.1-.38c.15-.63.31-1.26.45-1.9,0-.15.1-.16.23-.1Z"/><path d="M134.2,22.93c.44.09.44.09.41.28a6.17,6.17,0,0,1-.62-.1c-.06,0-.13-.13-.13-.19a4.09,4.09,0,0,1,.1-.61s.11-.08.21-.14l-.06.56,1.56-1.27.13.15Z"/><path d="M174.57,16.71l1.48.54-.38.78a2.05,2.05,0,0,0,.43,2.48,15.46,15.46,0,0,0,1.64,1.37,7,7,0,0,1,2.06,2.17,4.3,4.3,0,0,1,.51,3.19,3.43,3.43,0,0,1-2.9,2.58,5.2,5.2,0,0,1-2.38-.23,18.74,18.74,0,0,1-2.82-1.25l.46-1.34c.55.25,1.09.52,1.65.76a5.49,5.49,0,0,0,2.28.57,2,2,0,0,0,2.06-1.53,2.57,2.57,0,0,0-.25-1.74,6,6,0,0,0-1.95-2.23c-.52-.4-1.05-.8-1.53-1.25a3.35,3.35,0,0,1-.84-3.8C174.22,17.42,174.4,17.08,174.57,16.71Z"/><path d="M172.31,11.13s0-.08.06-.11c.25-.37.51-.75.77-1.15a22.32,22.32,0,0,0,8.73,2.75l-.39,1.55a5.18,5.18,0,0,0-1.8,0,5.75,5.75,0,0,0-2.46,1.42.41.41,0,0,1-.55.09c-.35-.18-.71-.32-1.1-.49a9.51,9.51,0,0,1,2.35-1.71A18.74,18.74,0,0,1,172.31,11.13Z"/><path d="M186,27.22a10.24,10.24,0,0,0-5.59-6l.87-1.23c.53.27,1.07.51,1.58.81a10.54,10.54,0,0,1,4.55,5.32c.09.23.06.33-.16.44C186.8,26.75,186.4,27,186,27.22Z"/><path d="M167.86,28.07l-1.3-1.69A49.85,49.85,0,0,0,172.2,22l.83,1.27c-.58.51-1.13,1-1.71,1.49-1,.87-2.07,1.71-3.11,2.57a.78.78,0,0,0-.13.24C168,27.69,168,27.85,167.86,28.07Z"/><path d="M182.7,20.21l.21-.19-1-.7.12-.16,1.08.76.23-.25C183.5,20.27,183.44,20.32,182.7,20.21Z"/><path class="cls-2" d="M65.44,16.71l1.48.54-.38.78A2.05,2.05,0,0,0,67,20.51a15.46,15.46,0,0,0,1.64,1.37,7,7,0,0,1,2.06,2.17,4.3,4.3,0,0,1,.51,3.19,3.42,3.42,0,0,1-2.89,2.58,5.23,5.23,0,0,1-2.39-.23,18.63,18.63,0,0,1-2.81-1.25L63.54,27c.55.25,1.1.52,1.66.76a5.41,5.41,0,0,0,2.28.57,2,2,0,0,0,2-1.53,2.57,2.57,0,0,0-.25-1.74,6,6,0,0,0-2-2.23,18.36,18.36,0,0,1-1.52-1.25,3.34,3.34,0,0,1-.85-3.8C65.09,17.42,65.27,17.08,65.44,16.71Z"/><path d="M63.18,11.13l.07-.11L64,9.87a22.32,22.32,0,0,0,8.73,2.75l-.39,1.55a5.12,5.12,0,0,0-1.79,0,5.73,5.73,0,0,0-2.47,1.42.41.41,0,0,1-.55.09c-.35-.18-.71-.32-1.09-.49a9.28,9.28,0,0,1,2.34-1.71A18.85,18.85,0,0,1,63.18,11.13Z"/><path class="cls-2" d="M76.84,27.22a10.24,10.24,0,0,0-5.59-6L72.13,20c.52.27,1.07.51,1.57.81a10.49,10.49,0,0,1,4.55,5.32c.09.23.06.33-.16.44C77.67,26.75,77.27,27,76.84,27.22Z"/><path class="cls-2" d="M58.73,28.07l-1.3-1.69A50.87,50.87,0,0,0,63.08,22l.82,1.27c-.58.51-1.13,1-1.71,1.49-1,.87-2.07,1.71-3.1,2.57-.07.05-.1.16-.14.24S58.82,27.85,58.73,28.07Z"/></svg>