<?xml version="1.0" encoding="utf-8"?>
<!-- Generator: Adobe Illustrator 25.4.1, SVG Export Plug-In . SVG Version: 6.00 Build 0)  -->
<svg version="1.1" id="illustration" xmlns="http://www.w3.org/2000/svg" xmlns:xlink="http://www.w3.org/1999/xlink" x="0px"
	 y="0px" viewBox="0 0 198.4 143.6" style="enable-background:new 0 0 198.4 143.6;" xml:space="preserve">
<style type="text/css">
	.st0{fill:#2F671F;}
	.st1{fill:#3BC6F4;}
	.st2{fill:#6DBE45;}
	.st3{fill:#71311F;}
	.st4{fill:#B57240;}
	.st5{fill:#010101;}
	.st6{fill:#231F20;}
	.st7{fill:#FFFFFF;}
</style>
<path class="st0" d="M150.4,4.5v4.7l0,0l-0.3,0.6l0,0l-1,1.9l0,0l-1.9,1.5l-0.5-0.8l0.2,2.6l-1.7,2.2l-1.8,0.7l0,0l-0.6,0.2
	c0,0.2,0,0.5,0,0.7l-0.1,1.7l-0.6,0.8L140,24l-4.1,1.6l-2,4.3l0,0l0,0l0,0l-3.1,3l0,0l-1.4,1.3l-1.9,0.3l0,0l-4.7,0.8l-0.4,0.2
	l-8.6,4.4l-2.3,1.2h-0.1l-0.4,0.2l-2-0.2l-1.5-0.9l-0.6-0.9l0,0l-2.4-2l-0.1-2.3v-1.7l-1.5,0.3l-3-0.7l-2.3-1.3l-1,0.5l0,0l-2.5,1.2
	h-4l-2.8-1.4l0,0L86,30.3L83.6,31l-1.4-0.1l-2-2.7L80,28.3L78.5,29l0,0l-0.8,0.4L76.7,29l0,0l-1.1-0.5l-1.4-1.1l-0.1-0.1l-1.6,0.9
	L70,28h-0.2l-3,0.2l0.1,0.2c0.3,0.8,0.6,1.5,0.9,2.3l0,0l0.2,0.6h-1.3L64.7,31c0,0,0,0-0.1,0l-2.2-1.9h-0.2l-2.5,0.4l-2.1-0.3
	l-1.5-1.5l-0.8-2.7l1-0.9l-1.5-1.5L53.6,22l-0.3-0.5l-0.4-0.8L51.9,19l-0.7,0.4l-1.7,0l-1.6-1.6l-0.7-2L47,15.4l0,0v-0.6l0,0l0.7-11
	c2.5-1,5.1-2,7.7-2.9h86.8c0.3,0.2,0.7,0.4,1,0.7l0,0C145.6,2.5,148,3.5,150.4,4.5z"/>
<path class="st1" d="M67.2,74.3l53.4-0.1l19.6,9.6l-25.1,5.8l4.3,0.1l4.5,0.2l5.8-0.2l-1.1,1.9l-0.8,1V94c0,0,2.9,3.4,20.8,3
	c-1,1.1-1.6,2.5-2,3.9l0.9,1.4l1.5,0.3l2.4,0.3h2.9l1.8,0.5l3.6,1.9l1,0.6l2.1,1.2l1.8,0.6l1.7,0.1h3l1.2,0.6v34.2H28.9v-34.4
	c0,0,5.3-0.8,8.7-2.7s6.3-3.3,6.3-3.3s-1.1-2.5-2.9-2.4l1.4-1.2l11.7-2l2.3-1.2l0.4-2l-1.3-2l-1.1-1.8l-1.8-1.1l5.2,0.6l5.1,0.1
	l4.5-0.2l-13-5.5L67.2,74.3z"/>
<path class="st2" d="M170.6,66.8c0,0-24.2-2.1-39.7,7.2c-5.9,4.2-11.2,9.2-15.8,14.9l1.6,0.8l4.2,0.1l3.8-0.1l5,0.1l-1.1,1.9
	l-0.8,2.3l1.4,0.9l2.9,0.8l5.4,0.8l6.1,0.5h3.9h1.2l-1,1.8l-1,2.1l0.6,1.4l4.2,0.5h2.9l1.8,0.5l3.6,1.9l2.5,1.3l2.4,1.1l3.3,0.3
	l2.6,0.5L170.6,66.8z"/>
<path class="st0" d="M47.9,62c-0.8-1.1-0.7-2.7,0.2-3.7c0.1-0.1,0.2-0.1,0.3,0c0,0,0,0.1,0.1,0.1c0.3-0.1,0.7-0.1,1-0.1l0.7-3.2
	c0,0-0.5-2.7-2.3-2.9c-1.2,0-2.4,0.4-3.3,1.3c0,0-0.4-2-1.8-2.1c-0.7-0.1-1.4,0.1-2,0.5c0,0,0.6-0.9-1.6-2.3s-8.5,0.7-8.5,0.7
	L32,71.9l14.6,1.5l2.1-10.8C48.4,62.5,48.1,62.3,47.9,62z"/>
<path class="st2" d="M28.9,67.9l5.3-0.1l4.2,0.5l6.6,1l5.9,2.5l5.7,3.1l4.5,3.5l5.4,5.8l3.2,4.9l-5.6,0.5L59,89.3l-4.7,0.5l0.6,1.1
	l-0.1,0l1.7,2.5l-0.3,2.2L54,96.8l-3,0.5l-3.8,0.3l-3.1,0.7l-1.8,0.4L41,99.9l1.5,1.2l1.4,1.2c-0.6,0.5-1.3,0.9-2,1.2
	c-0.7,0.3-4.3,2.1-4.3,2.1l-1.7,0.8l-1.9,0.7l-3.2,0.8l-2,0.4l0,0L28.9,67.9z"/>
<path class="st0" d="M68.9,74.6c1,0,14.5,0.9,14.6-0.6c0.2-2.1-1.8-2.2-3.5-2c0.6-1.8-1.6-3-2.3-3.5c-0.9-0.7-4.7,0.9-4.6,1.1
	l-1.5-2.3l-1.7-1l-1.5-0.7h-1.9l-1.5,0.4l-1.6-1.4l-2.3-1l-2.3,0.1l-2,0.5L56,64.7l-1.2-1.1l-0.9-0.4l-0.8-0.1l-1.2,0.2l1-2.4l0.2-2
	l-0.4-1.5L51.8,56l-1.3-0.5L47.9,56l-1.2,14.2l6.6,2.9l1.7,0.8l1.2,1.1l0.9,0.4L68.9,74.6z"/>
<path class="st0" d="M141.6,69.3l4.4-1.2l16.4-14.4l-6.3-4.8c0,0-1.3-2.1-3.4-1.9s-3.1,2.7-3.1,3.7c-0.5-1.4-3.7-1.4-4.2-0.5
	s0.5-2.1-3.8-2.3s-4.3,5.4-4,6.1s-1-1-2.3-0.5c0,0-1.6,0.1-1.6,2.6c0,0-3.3,1.7-3,4.1v1.8c-1.4,0.5-2.5,1.5-3,2.8
	c-0.9,2.2,0.2,3,0.2,3s-3.9,2-4.2,6s1.3,4.5,1.3,4.5l6.8-4.9l6-2.9L141.6,69.3z"/>
<path class="st0" d="M117.8,74.5c0,0-8.8,0.6-12.9,0c0.3-2.1,3.3-4.1,6.6-4.1c-0.9-1.9-0.5-3.7,1.5-4.3l1.7,0.3l1.1-1.6l2-1.4
	l2.1-0.2l1.5,0.3l1.6-1.7l0.6-0.9l1.8-0.7l2.1,0.2l1.9,1l2.5-1.2c0,0-4,14.7-3.9,14.5S117.8,74.5,117.8,74.5z"/>
<polygon class="st2" points="56.5,66.2 58.2,66.8 61,68.3 63.6,70.5 67.2,74.1 70,78.7 71.1,81.5 69.7,81.9 67.8,81.9 65.6,81.8 
	64.4,81.9 59.6,77.1 57.2,75.5 57.8,74.1 58.1,73.2 58.2,71.5 57.6,69.5 56.8,68.3 56.3,67.9 "/>
<path class="st3" d="M170.6,15.1v51.8c-7.1-0.2-13.4,0.1-17.7,0.5l0,0h-0.5h-0.1c-3.6,0.3-5.7,0.6-5.7,0.6l0.8-1
	c0.6-0.8,1.5-2.1,2.6-3.7v-0.1c2.9-4.1,5.5-8.5,7.8-13c2.2-4.1,3.7-8.5,4.6-13.1c0,0,0-0.1,0-0.1c0.3-1.8,0.4-3.7,0.2-5.5
	c0-0.3-0.1-0.6-0.1-0.9l0,0c-0.1-0.9-0.4-1.8-0.6-2.8c0,0,0-0.1,0-0.1c-2-6.7-7-13.5-11.4-18.5L150,8.7V8.7
	c-2.2-2.5-4.6-4.9-7.1-7.2l0,0l-0.6-0.6c0.3,0.2,0.7,0.4,1,0.7l0,0c2.5,0.9,4.9,1.8,7.2,2.8c1.2,0.5,2.5,1.1,3.8,1.7
	c4,1.8,7.8,3.8,11.5,6C167.4,13.1,169,14.1,170.6,15.1z"/>
<path class="st3" d="M68.7,0.9c-7.9,3.9-15.1,8.9-21.5,14.9v0.1c-5,4.8-9.5,10.6-11.9,17.3c-0.1,0.2-0.2,0.5-0.2,0.7s-0.2,0.7-0.3,1
	l0,0c-0.9,3.1-1.5,6.3-1.6,9.5c0,0.1,0,0.3,0,0.4c0,1.6,0,3.2,0.2,4.8c0.6,5.5,2.3,10.9,5,15.7c0,0,0,0.1,0.1,0.1
	c0.6,1.1,1.3,2.1,2,3.1c-2.8-0.7-5.7-1-8.6-0.9c-0.9,0-1.9,0.1-2.8,0.3V43.5v-0.8L29.1,13c6-3.5,12.2-6.6,18.6-9.2
	c2.5-1,5.1-2,7.7-2.9H68.7z"/>
<path class="st4" d="M33.4,48.7C33.5,48.7,33.5,48.6,33.4,48.7c0-0.1,0-0.1,0-0.1C33.4,48.6,33.4,48.6,33.4,48.7
	C33.4,48.7,33.4,48.7,33.4,48.7z"/>
<path class="st4" d="M33.3,47.6c-0.1,0.3,0,0.7,0.2,1c0.1,0.1,0.2,0.1,0.3,0c0.1,0,0.1-0.1,0.1-0.2C33.8,48.1,33.7,47.8,33.3,47.6
	C33.4,47.6,33.3,47.6,33.3,47.6L33.3,47.6z"/>
<path class="st4" d="M33.1,48.1c-0.1,0.2-0.1,0.4,0.1,0.6c0.1,0,0.1,0,0.2,0h0.1c0.1,0,0.1-0.1,0.1-0.2c0,0,0,0,0,0
	c0-0.1-0.1-0.2-0.1-0.3S33.2,47.9,33.1,48.1L33.1,48.1z"/>
<path class="st4" d="M33.5,48c0.4,0.2,0.9,0.2,1.4,0c0.2-0.1,0.3-0.5,0-0.6c-0.5-0.1-1,0-1.4,0.3c-0.1,0-0.1,0.1-0.1,0.2
	C33.4,47.9,33.5,48,33.5,48L33.5,48z"/>
<path class="st4" d="M160.7,43c-0.4,0.2-0.6,0.8-0.8,1.2c-0.2,0.4-0.4,0.9-0.3,1.4c0,0.1,0.2,0.2,0.3,0.1c0,0,0,0,0.1,0
	c0.3-0.3,0.5-0.7,0.6-1.2c0.3-0.4,0.4-0.9,0.5-1.3C161,43.1,160.9,43,160.7,43C160.8,43,160.7,43,160.7,43L160.7,43z"/>
<path class="st4" d="M158.7,45.4c0.5,0.1,0.9-0.1,1.3-0.4c0.1-0.1,0.1-0.2,0-0.3c0,0-0.1,0-0.1,0c-0.4,0-0.9,0.2-1.2,0.5
	C158.6,45.2,158.6,45.3,158.7,45.4C158.7,45.4,158.7,45.4,158.7,45.4L158.7,45.4z"/>
<path class="st4" d="M159.1,45.2C159.2,45.2,159.2,45.2,159.1,45.2C159.2,45.2,159.2,45.1,159.1,45.2
	C159.1,45.1,159.1,45.1,159.1,45.2C159.1,45.1,159.1,45.2,159.1,45.2C159.1,45.2,159.1,45.2,159.1,45.2z"/>
<path class="st4" d="M159.1,45.5c0.3,0.1,0.7,0.1,1-0.1c0.3-0.2,0.1-0.7-0.2-0.5c-0.3,0.1-0.5,0.2-0.8,0.2
	C158.9,45.1,158.9,45.5,159.1,45.5L159.1,45.5z"/>
<path class="st4" d="M159.4,44.3c0.4,0.1,0.9,0,1.1-0.4c0.1-0.1,0-0.3-0.1-0.4c0,0,0,0-0.1,0c-0.4-0.1-0.9,0.1-1.1,0.5
	C159.2,44.1,159.2,44.2,159.4,44.3C159.3,44.3,159.4,44.3,159.4,44.3z"/>
<polygon class="st2" points="128,64.2 127.6,65 127.3,65.7 127.3,66.8 127.8,68 126.4,68.9 125.5,69.8 124.8,70.7 124.3,71.5 
	124,72.4 123.7,73.4 123.7,74.8 124,76.4 124.4,77.6 125,78.5 123.6,79.9 122,79.7 118.4,79.4 115.5,79.1 115.9,78.3 117.3,75.8 
	118.7,73.4 120.4,70.4 122,67.9 124,65.2 126.1,63.3 128.4,61.9 130.4,61.1 130.6,62.2 129.5,62.8 128.6,63.5 "/>
<polygon class="st3" points="62,63.3 61.8,57.6 62.7,48.6 65.2,38.2 68,32.2 67.7,30.1 66.8,28.2 68,28.4 70,28 70.8,30.4 
	71.3,31.9 71.6,28.5 72.8,30.6 73.2,31.4 74.7,29.8 75.6,28.5 77.1,29 77.6,29.4 76.8,30.8 76.4,32.7 76.8,33.2 79.4,30.6 
	80.3,29.6 81.5,30.6 79.9,32.6 78.1,34.7 76.6,38.2 74.6,43.6 73.7,47.6 73,50.9 72.5,55.5 72.5,59.5 72.6,63.3 73.2,66.4 
	73.4,68.8 71.1,66.6 68.6,65.5 66.6,65.5 65.1,65.8 62.8,64.1 "/>
<polygon class="st3" points="107.7,34.5 108.8,33.2 110.4,34.1 113,35 112.9,33.5 113.5,33.9 112.6,29.2 116,28 116.8,31.4 
	117.3,33.6 118.2,33.4 119.7,30.1 121.4,27.3 122.6,27.2 123,28.9 123.7,29.4 122.6,31.2 121.9,33.2 122.1,35.5 123.5,42.2 
	124.3,49.1 124.4,54 124.2,58.8 123.6,61 121.4,63.6 119.9,63.2 117.8,63.5 115.8,64.8 114.7,66.4 113.6,66.4 112.9,66.2 
	112.6,63.3 112.6,57.6 112.3,51.9 111.4,42.1 110.7,38.2 109.8,36.7 108.5,35.4 "/>
<path class="st5" d="M44.7,58.6c0.1,2.9,0,5.9-0.2,8.8c0,0.2,0.3,0.2,0.3,0c0.4-2.9,0.4-5.9,0-8.8C44.8,58.5,44.6,58.5,44.7,58.6
	L44.7,58.6z"/>
<path class="st5" d="M69.8,89.1c-3.7-6.7-9.3-12.2-16.1-15.7c-7.7-3.9-16.3-5.2-24.8-5.5c-0.1,0-0.1,0.1-0.1,0.2c0,0,0,0.1,0.1,0.1
	c8.5,0.3,17.1,1.6,24.7,5.5c6.8,3.5,12.3,9,16,15.6c0,0.1,0.1,0.1,0.2,0S69.8,89.2,69.8,89.1L69.8,89.1z"/>
<path class="st5" d="M52.6,88.7h-0.2l0,0H52.6L52.6,88.7z"/>
<path class="st5" d="M51.9,88.7L51.9,88.7L51.9,88.7z"/>
<path class="st5" d="M52.1,89.1c5.7,0.5,11.3,0.7,17,0.5c0.1,0,0.2-0.1,0.2-0.2s-0.1-0.2-0.2-0.2l0,0l-0.8-0.2c-0.1,0-0.1,0-0.1,0.1
	c0,0,0,0.1,0,0.1c-0.7-0.4-2.6,0-3.4,0c-1.4,0-2.8,0-4.2,0c-2.8-0.1-5.7-0.2-8.5-0.4C51.9,88.8,51.9,89.1,52.1,89.1z"/>
<path class="st5" d="M43.3,84.2c5.1,2.1,9,5,13.2,8.6c0.1,0.1,0.2,0.1,0.2,0c0.1-0.1,0.1-0.2,0-0.2c-3.3-4.1-8.4-7.1-13.3-8.6
	C43.2,83.8,43.1,84.1,43.3,84.2z"/>
<path class="st5" d="M56.7,93.6l-2.2,2.9c-0.7,0.2-1.4,0.3-2.1,0.3c-0.6,0-1.2,0.1-1.7,0.1c-1.2,0.1-2.3,0.3-3.5,0.5
	c-2.7,0.5-5.4,1.3-8,2.4c-0.2,0.1-0.1,0.5,0.1,0.4c4.3-1.7,8.9-2.7,13.5-3.1C54.8,96.9,57.3,96.1,56.7,93.6
	C56.8,93.5,56.6,93.5,56.7,93.6L56.7,93.6z"/>
<path class="st5" d="M31.9,95.3c4.2,1.6,7.6,4.1,11.3,6.5c0.1,0.1,0.3-0.1,0.2-0.2c-3-3.1-7.4-5.2-11.4-6.7
	C31.7,94.8,31.6,95.2,31.9,95.3z"/>
<path class="st5" d="M43.3,102.5c-2.7,1.4-5.6,2.8-8.1,4.4c-0.1,0.1,0,0.3,0.1,0.3C38.2,106.1,40.9,104.5,43.3,102.5
	C43.4,102.6,43.4,102.5,43.3,102.5L43.3,102.5z"/>
<path class="st5" d="M170.6,66.5c-21-1-44.2,4.5-56.1,23.4c-0.1,0.1,0.1,0.3,0.2,0.1c11.8-18.8,35-24.3,55.9-23.3
	C170.8,66.7,170.8,66.5,170.6,66.5z"/>
<path class="st5" d="M115.1,89.7c4.2,0.5,8.4,0.6,12.6,0.2c0.1,0,0.1-0.1,0.1-0.2c0-0.1-0.1-0.1-0.1-0.1
	C123.5,89.2,119.3,89.2,115.1,89.7C115,89.7,115,89.8,115.1,89.7L115.1,89.7z"/>
<path class="st5" d="M137.5,84.7L137.5,84.7L137.5,84.7z"/>
<path class="st5" d="M138.5,82.9c-5.3,1.5-9.5,5.7-10.9,11c0,0.1,0,0.3,0.2,0.3c0.1,0,0.3,0,0.3-0.2c1.4-5.2,5.4-9.3,10.5-11
	C138.7,83.1,138.6,82.9,138.5,82.9z"/>
<path class="st5" d="M127.8,94.6c7.4,2.4,15.1,3.2,22.8,2.3c0.3,0,0.3-0.4,0-0.4c-7.7,0.4-15.3-0.3-22.8-2.1
	C127.8,94.4,127.7,94.5,127.8,94.6C127.8,94.6,127.8,94.6,127.8,94.6L127.8,94.6z"/>
<path class="st5" d="M156.1,90.8c-4.1,1.7-8.6,5.5-9.6,10.1c0,0.1,0,0.2,0.1,0.2c0.1,0,0.1,0,0.2-0.1c1-2.1,2.2-4.1,3.8-5.9
	c1.6-1.7,3.6-3,5.8-3.9C156.5,91.1,156.3,90.7,156.1,90.8L156.1,90.8z"/>
<path class="st5" d="M146.3,101.9c3.1,2.1,7,0.6,10.4,2c2.9,1.2,5.5,4.2,8.9,4.1c0.1,0,0.1-0.1,0.1-0.2c0,0,0-0.1-0.1-0.1
	c-3.3-1-5.6-3.1-8.8-4.4c-3.3-1.3-7.2,0.2-10.3-1.9C146.3,101.4,146.1,101.8,146.3,101.9L146.3,101.9z"/>
<path class="st5" d="M40,67.7c-7.7-11.2-8.9-25.7-3.2-38C42.3,17.5,52.8,8.6,64.2,2.2c0.1,0,0.1-0.1,0-0.2c0,0-0.1-0.1-0.1,0
	c-11.9,6.3-22.7,16-28,28.6c-4.9,11.7-4.7,27.2,3.8,37.2C40,67.9,40.1,67.8,40,67.7L40,67.7z"/>
<path class="st5" d="M142.1,1c1.4,1.4,3.1,2.5,4.4,4c2.4,2.5,4.5,5.2,6.6,8c3.5,4.8,8,10.6,9.1,16.6c1.4,7-1,14.8-4,21
	C155,57,150.6,62.6,145.9,68c-0.1,0.1,0.1,0.3,0.2,0.2c8.8-10.3,18.3-23.4,16.5-37.8c-0.7-5.8-5-11.5-8.3-16.2
	c-1.9-2.7-3.9-5.3-6.1-7.8c-1.8-2.1-4-3.7-5.9-5.6c0,0-0.1,0-0.2,0C142,0.9,142,0.9,142.1,1L142.1,1z"/>
<path class="st5" d="M50.2,56.1c0.8-1.6-0.7-3.6-2.3-4c-1.7-0.3-3.4,0.8-3.7,2.6c0,0.1,0,0.1,0,0.2c0,0.1,0.1,0.2,0.2,0.2
	c0.1,0,0.2-0.1,0.2-0.2c0.5-1.4,1.6-2.7,3.3-2.4s2.2,2,2.2,3.5C50,56.1,50.2,56.2,50.2,56.1L50.2,56.1z"/>
<path class="st5" d="M44.7,54c0.3-1.3-0.5-2.5-1.8-2.8c0,0,0,0-0.1,0c-1.2-0.2-2.7,0.8-2.7,2.1c0,0.1,0.2,0.2,0.2,0.1
	c0.4-0.9,1-1.8,2.2-1.8c1.2,0.1,2.1,1.2,1.9,2.4c0,0,0,0,0,0C44.5,54.1,44.6,54.1,44.7,54C44.7,54.1,44.7,54,44.7,54z"/>
<path class="st5" d="M41.2,52.2c-0.2-1.7-1.7-2.9-3.4-2.7c-0.2,0-0.5,0.1-0.7,0.2c-0.2,0.1-0.1,0.5,0.1,0.4c1.5-0.5,3.1,0.2,3.6,1.7
	c0.1,0.1,0.1,0.3,0.1,0.5C41,52.4,41.3,52.4,41.2,52.2L41.2,52.2z"/>
<path class="st5" d="M133.7,56.2c-0.2-0.9,0.2-1.8,1-2.2c0.7-0.3,1.6-0.1,2.1,0.4c0.1,0,0.1,0,0.1,0c0,0,0-0.1,0-0.1
	c-0.6-0.7-1.7-0.9-2.5-0.5c-0.9,0.5-1.3,1.5-1,2.5c0,0.1,0.1,0.1,0.1,0.1C133.7,56.3,133.7,56.3,133.7,56.2L133.7,56.2z"/>
<path class="st5" d="M137.6,54.1c-0.1-2,0.5-4.2,2.3-5.3c1.7-1.1,3.9-0.7,5,1c0.2,0.3,0.4,0.6,0.5,1c0,0.1,0.2,0.1,0.2,0
	c-0.2-2.3-2.8-3.4-4.8-2.7c-2.6,0.9-3.6,3.6-3.4,6.1C137.4,54.3,137.6,54.3,137.6,54.1L137.6,54.1z"/>
<path class="st5" d="M145.4,50.8c0.8-1,2.3-1.1,3.3-0.3c0.1,0.1,0.2,0.2,0.3,0.3c0.1,0.2,0.3-0.1,0.2-0.2c-0.9-1-2.4-1.2-3.5-0.3
	c-0.1,0.1-0.3,0.3-0.4,0.4C145.2,50.7,145.3,50.7,145.4,50.8C145.3,50.8,145.4,50.8,145.4,50.8z"/>
<path class="st5" d="M149.6,50.9c0.1-1.6,1.2-3,2.8-3.3c1.4-0.2,2.7,0.4,3.6,1.5c0.1,0.1,0.3,0,0.2-0.2c-2-3.2-6.7-1.5-6.7,2
	C149.5,50.9,149.5,50.9,149.6,50.9C149.6,50.9,149.6,50.8,149.6,50.9L149.6,50.9z"/>
<path class="st5" d="M142.2,61.8c1.7-1.2,3.3-1,5.2-0.7c0.1,0,0.2-0.1,0.1-0.2c-1.7-1-4-0.3-5.4,0.8C142,61.8,142.1,61.9,142.2,61.8
	z"/>
<path class="st5" d="M147.2,60.8c0.2-1.5,0.9-2.9,1.8-4.1c1.4-1.4,3.5-1.5,4.5,0.4c0.1,0.2,0.3,0,0.3-0.1c-0.4-1.6-2.3-2.1-3.7-1.5
	c-2.1,0.9-2.7,3.2-3.1,5.2C147,60.8,147.2,60.9,147.2,60.8z"/>
<path class="st5" d="M71.7,67.2c0.2,0.4,0.5,0.8,0.7,1.3c0.2,0.4,0.4,0.7,0.7,1.1c0.1,0.1,0.2,0,0.2-0.1c-0.2-0.4-0.4-0.8-0.7-1.1
	c-0.3-0.4-0.6-0.8-0.8-1.2C71.8,67.1,71.6,67.2,71.7,67.2z"/>
<path class="st5" d="M73.8,69.8c1.1-1.5,3.3-1.8,4.8-0.7c0.9,0.7,1.4,1.7,1.4,2.9c0,0.1,0.1,0.1,0.2,0.1c0,0,0.1,0,0.1-0.1
	C80.6,68.3,75.7,66.8,73.8,69.8C73.6,69.8,73.8,69.8,73.8,69.8L73.8,69.8z"/>
<path class="st5" d="M79.9,72.1c0.8-0.3,1.6-0.2,2.3,0.2c0.6,0.4,1.1,1,1.3,1.7c0,0,0.1,0.1,0.1,0c0,0,0,0,0,0
	C83.7,72.2,81.3,71.3,79.9,72.1C79.8,72,79.8,72.1,79.9,72.1L79.9,72.1z"/>
<path class="st5" d="M105,74.4c1.2-2.8,3.8-3.6,6.6-3.4c0.1,0,0.1-0.2,0-0.2c-2.7-1-5.8,1.1-6.7,3.6C104.8,74.4,104.9,74.5,105,74.4
	L105,74.4z"/>
<path class="st5" d="M111.6,70.4c-0.3-1-0.3-2,0-3c0.3-0.9,1.3-1.3,2.1-0.9c0.1,0,0.1,0.1,0.2,0.1c0.2,0.1,0.3-0.2,0.2-0.3
	c-0.8-0.5-1.9-0.3-2.5,0.5c-0.9,1-0.5,2.5-0.2,3.7C111.4,70.5,111.5,70.5,111.6,70.4C111.6,70.4,111.6,70.4,111.6,70.4L111.6,70.4z"
	/>
<path class="st5" d="M70.1,74.6c15.7,0.6,31.5,0.2,47.2,0.2c0.2,0,0.2-0.4,0-0.4c-15.7,0-31.5-0.6-47.2,0.1
	C70,74.4,70,74.6,70.1,74.6z"/>
<path class="st5" d="M116.4,66.2l-0.4-0.2l0,0L116.4,66.2L116.4,66.2L116.4,66.2z"/>
<path class="st5" d="M116.4,65.9c-0.1-0.1-0.1-0.3-0.2-0.4c0-0.1-0.2,0-0.1,0.1C116.2,65.7,116.3,65.8,116.4,65.9
	C116.4,66,116.5,66,116.4,65.9L116.4,65.9z"/>
<path class="st5" d="M41.9,60l0.7,0.2l0,0L41.9,60L41.9,60z"/>
<path class="st5" d="M44.1,58.8c-0.8,3.4-1,7-0.6,10.5c0,0.2,0.2,0.1,0.2,0c0.2-1.7,0.1-3.5,0.2-5.2s0.4-3.5,0.5-5.2
	c0-0.1-0.1-0.2-0.2-0.2C44.2,58.7,44.1,58.8,44.1,58.8L44.1,58.8z"/>
<path class="st5" d="M44.5,59.5c-0.1,3.2,0.1,6.5,0.2,9.8c0,0.3,0.5,0.3,0.5,0c-0.1-3.2-0.1-6.5-0.4-9.8c0-0.1-0.1-0.1-0.2-0.1
	C44.6,59.4,44.5,59.5,44.5,59.5z"/>
<path class="st5" d="M44.4,64.8c0.1,0.8,0,1.5-0.1,2.3c-0.1,0.6-0.3,1.2-0.4,1.7c0,0.1,0.1,0.1,0.2,0.1c0,0,0.1,0,0.1-0.1
	c0.5-1.3,0.7-2.7,0.5-4.1C44.7,64.7,44.4,64.7,44.4,64.8z"/>
<path class="st5" d="M44.3,61.7c-0.3,2.2-0.4,4.4-0.6,6.7c0,0.3,0.4,0.3,0.4,0c0.2-2.2,0.4-4.4,0.3-6.7
	C44.4,61.6,44.3,61.6,44.3,61.7L44.3,61.7z"/>
<path class="st5" d="M47.2,60.4H47l0,0H47.2L47.2,60.4L47.2,60.4z"/>
<path class="st5" d="M46.6,60C46.6,60,46.6,60,46.6,60C46.6,59.9,46.6,59.9,46.6,60C46.6,59.9,46.5,59.9,46.6,60
	C46.5,60,46.6,60,46.6,60C46.6,60,46.6,60,46.6,60z"/>
<path class="st5" d="M46.9,59.5l-0.5,0.9c0,0.1,0.1,0.2,0.1,0.1L46.9,59.5C47,59.5,46.9,59.4,46.9,59.5z"/>
<path class="st5" d="M77.8,83.1c9.4,0.8,19.1,0.3,28.6,0.4c0.1,0,0.1-0.1,0.1-0.1c0,0,0-0.1-0.1-0.1C97,83.1,87.3,82.5,77.8,83.1z"
	/>
<path class="st5" d="M75.4,87.9c5.1,0,10.2-0.1,15.3-0.2c0,0,0.1-0.1,0-0.1c0,0,0,0,0,0C85.6,87.6,80.5,87.7,75.4,87.9L75.4,87.9z"
	/>
<path class="st5" d="M63.7,95.6c16-0.2,32.1-0.3,48.1-0.6c0,0,0.1,0,0.1-0.1s0-0.1-0.1-0.1c-16,0.1-32.1,0.4-48.1,0.7
	C63.6,95.5,63.6,95.5,63.7,95.6C63.6,95.6,63.6,95.6,63.7,95.6z"/>
<path class="st5" d="M88.3,100c13.9-0.1,27.7,0.7,41.5,2.3c0.1,0,0.1-0.2,0-0.2c-13.8-1.8-27.6-2.6-41.5-2.3
	C88.2,99.9,88.2,99.9,88.3,100C88.2,100,88.2,100,88.3,100L88.3,100z"/>
<path class="st5" d="M52.1,105.9L52.1,105.9L52.1,105.9z"/>
<path class="st5" d="M51,105c16.5,0.3,33,0.6,49.4,0.7c0,0,0.1-0.1,0-0.1c0,0,0,0,0,0c-16.5-0.4-33-0.6-49.4-0.7
	C50.9,104.8,50.9,105,51,105L51,105z"/>
<path class="st5" d="M93.4,111.9c16.9,1.2,33.9,1.4,50.8,0.6 M144.1,112.4c-17,0.3-33.8,0.4-50.8-0.7c-0.1,0-0.1,0.2,0,0.2
	L144.1,112.4z"/>
<path class="st5" d="M41.2,119c18.9,0.5,38.1,0.1,57-0.9c0.1,0,0.1-0.2,0-0.2c-9.5,0.2-19,0.6-28.5,0.8s-19,0-28.5,0.2
	C41.2,118.8,41.2,119,41.2,119L41.2,119z"/>
<path class="st5" d="M86.1,124.7c24.1,2.1,48.3,2.7,72.5,1.7c0.1,0,0.1-0.1,0.1-0.1c0,0,0-0.1-0.1-0.1
	C134.3,127,110.2,126.2,86.1,124.7C86.1,124.6,86.1,124.7,86.1,124.7z"/>
<path class="st5" d="M133.6,56.4c-2.3,0.6-4.1,3.5-3,5.8c0,0.1,0.1,0,0.1,0c-0.6-2.4,0.4-5,3-5.7c0,0,0.1,0,0.1,0c0,0,0-0.1,0-0.1
	c0,0,0,0,0,0L133.6,56.4z"/>
<path class="st5" d="M131.1,62.2c-2.4,0.1-4.9,3.1-3.7,5.4c0,0.1,0.2,0,0.1,0c-0.3-1.1-0.1-2.3,0.5-3.3c0.7-1.1,1.8-1.8,3-1.9
	C131.2,62.4,131.2,62.3,131.1,62.2L131.1,62.2z"/>
<path class="st5" d="M128,67.8c-4,1.9-5.9,7-3.2,10.8c0,0,0.1,0,0.2,0c0,0,0-0.1,0-0.1c-2-4-1.1-8.4,3.1-10.5
	C128.2,67.9,128.1,67.7,128,67.8z"/>
<path class="st5" d="M49.4,55.7c1.8-0.1,3.4,1.3,3.5,3.1c0,0.1,0,0.2,0,0.3c-0.1,1.6-0.6,3.1-1.3,4.4c-0.1,0.1,0.1,0.3,0.2,0.1
	c0.9-1.8,1.9-4,1.1-6c-0.5-1.5-2-2.4-3.5-2.1C49.4,55.6,49.4,55.7,49.4,55.7L49.4,55.7z"/>
<path class="st5" d="M52.1,63.3c2-0.4,3.8,0.9,4.2,2.9c0.2,0.9,0,1.8-0.5,2.6c0,0.1,0,0.2,0.1,0.2c0.1,0,0.2,0,0.2,0
	c1.1-1.8,0.6-4.1-1.1-5.3c-0.9-0.6-1.9-0.7-2.9-0.5C51.9,63.1,52,63.3,52.1,63.3z"/>
<path class="st5" d="M56.2,68c2,1.8,2.4,4.8,0.9,7c-0.1,0.2,0.1,0.3,0.2,0.2c1.6-2.3,1.2-5.5-1-7.3C56.3,67.8,56.2,67.9,56.2,68
	L56.2,68z"/>
<path class="st5" d="M130.6,61.1c-3.4,0.7-6,2.9-8,5.7c-2.8,3.8-5,8.2-7.3,12.3c0,0.1,0,0.2,0.1,0.2c0,0,0,0,0.1,0l7.7,0.6
	c0.2,0,0.2-0.2,0-0.3c-1.4-0.1-6.8,0.2-7.1-1.3c-0.1-0.6,1.6-2.8,1.9-3.3c0.7-1.1,1.3-2.2,1.9-3.3c2.6-4.5,5.4-9,10.8-10.4
	C130.7,61.3,130.7,61.1,130.6,61.1L130.6,61.1z"/>
<path class="st5" d="M56.8,66.3c3.8,1.7,7.2,4.2,9.9,7.4c1.5,1.9,2.8,4,3.7,6.2c0.6,1.5,0.6,1.6-1.1,1.8c-1.2,0.2-2.6-0.1-3.9,0
	c-0.1,0-0.1,0.1-0.1,0.1c0,0.1,0.1,0.1,0.1,0.1c1.9,0.1,3.9,0.1,5.8,0.2c0.1,0,0.2-0.1,0.2-0.2c0,0,0,0,0,0
	c-2.2-7-7.5-13.3-14.5-15.7C56.8,66.2,56.7,66.3,56.8,66.3L56.8,66.3z"/>
<path class="st6" d="M75.6,69.3c0.9,0,1.8,0.4,2.4,1c0.1,0.1,0.3,0,0.2-0.2C77.6,69.3,76.5,68.9,75.6,69.3
	C75.5,69.3,75.5,69.3,75.6,69.3C75.5,69.4,75.5,69.4,75.6,69.3L75.6,69.3z"/>
<path class="st6" d="M81.2,72.9c0.4,0.1,0.5,0.4,0.8,0.6c0.1,0.1,0.2,0,0.2-0.1C82,73,81.6,72.8,81.2,72.9L81.2,72.9L81.2,72.9z"/>
<path class="st6" d="M107.1,73.5c0.4-0.2,0.7-0.6,1-0.8c0.3-0.2,0.7-0.4,1-0.6c0.2-0.1,0-0.4-0.2-0.4c-1,0.1-1.8,0.7-2.2,1.6
	c0,0.1,0,0.2,0.1,0.2C107,73.6,107,73.6,107.1,73.5L107.1,73.5z"/>
<path class="st6" d="M112.8,69.7c0-0.7,0.5-1.1,0.9-1.6c0.1-0.1,0-0.1,0-0.2c0,0,0,0-0.1,0c-0.4-0.1-0.9,0.2-1.1,0.6
	c-0.3,0.4-0.3,0.9,0,1.3c0,0.1,0.1,0.1,0.2,0C112.8,69.8,112.8,69.7,112.8,69.7L112.8,69.7z"/>
<path class="st6" d="M36.6,51.6c0.6-0.3,1.4-0.3,2,0c0.1,0,0.2,0,0.2-0.1c0-0.1,0-0.1,0-0.2c-0.7-0.5-1.6-0.5-2.2,0.1
	C36.5,51.5,36.5,51.5,36.6,51.6C36.6,51.6,36.6,51.6,36.6,51.6L36.6,51.6z"/>
<path class="st6" d="M46.7,54.2c0.5-0.2,0.8,0.1,1.1,0.4c0.1,0,0.1,0,0.2,0c0,0,0-0.1,0-0.1c0-0.8-1-0.8-1.5-0.5
	C46.4,54,46.5,54.2,46.7,54.2z"/>
<path class="st6" d="M36.1,56.5c0.2-0.3,0.7-0.4,1-0.2c0.1,0.1,0.2,0.2,0.2,0.3c0.2,0.4,0.2,0.9,0.2,1.4c0,0.1,0,0.1,0.1,0.1
	c0.1,0,0.1,0,0.1-0.1c0.5-0.7,0.4-1.7-0.3-2.2c-0.4-0.3-1.1-0.3-1.4,0.1c-0.1,0.1-0.1,0.2-0.2,0.4c0,0.1,0,0.2,0.1,0.2
	C36,56.7,36.1,56.6,36.1,56.5z"/>
<path class="st6" d="M37.8,57.3c0.3-0.3,0.8-0.3,1.1,0c0.2,0.3,0.3,0.6,0.3,0.9c0,0.1,0.1,0.2,0.2,0.2c0.1,0,0.1,0,0.2-0.1
	c0.3-0.5,0.1-1.2-0.4-1.5c-0.5-0.3-1.1-0.3-1.5,0.1C37.4,57.1,37.6,57.4,37.8,57.3z"/>
<path class="st6" d="M139.4,51.9c0.1-0.6,0.4-1.1,0.9-1.5c0.3-0.3,0.9-0.4,1.2-0.8c0-0.1,0-0.2-0.1-0.2c-0.5-0.3-1.2,0.3-1.6,0.7
	c-0.4,0.5-0.7,1.1-0.6,1.8c0,0.1,0,0.1,0.1,0.1S139.4,51.9,139.4,51.9L139.4,51.9z"/>
<path class="st6" d="M141,55.8c0.1-0.5,0.3-0.9,0.7-1.2c0.3-0.2,0.8-0.2,1.1-0.5c0.1,0,0.1-0.1,0-0.2c0,0,0,0,0,0
	c-0.4-0.3-1.1,0.1-1.4,0.4c-0.4,0.4-0.7,0.9-0.7,1.5C140.6,56,141,56.1,141,55.8L141,55.8z"/>
<path class="st6" d="M142,54.1c0.2-0.4,0.4-0.7,0.8-0.9c0.3-0.2,0.6-0.2,0.9-0.4c0.1,0,0.1-0.2,0-0.2c-0.9-0.5-1.8,0.6-2,1.4
	C141.6,54.1,141.9,54.3,142,54.1L142,54.1z"/>
<path class="st6" d="M148.4,60.5c0.1-1.1,0.8-2.1,1.7-2.8c0.1-0.1,0-0.3-0.2-0.3c-0.7,0.3-1.3,0.7-1.7,1.3c-0.4,0.5-0.5,1.2-0.1,1.8
	c0.1,0.1,0.2,0.1,0.2,0.1C148.4,60.6,148.4,60.6,148.4,60.5L148.4,60.5z"/>
<path class="st6" d="M144.2,63.3c-0.1-0.2,0.8-0.7,0.9-0.8c0.3-0.2,0.6-0.4,0.8-0.7c0.1-0.1,0-0.2-0.1-0.3c0,0-0.1,0-0.2,0
	c-0.6,0.3-1.2,0.7-1.6,1.2c-0.3,0.3-0.4,0.6,0,0.8C144.1,63.5,144.2,63.4,144.2,63.3z"/>
<path class="st7" d="M151.4,50c0.4-0.2,0.7-0.6,1.2-0.8c0.4-0.2,0.9-0.2,1.4-0.2c0.1,0,0.3-0.1,0.3-0.3c0-0.1-0.1-0.2-0.1-0.2
	c-0.6-0.3-1.3-0.3-1.9,0c-0.5,0.2-1.2,0.7-1.1,1.3c0,0.1,0.1,0.1,0.2,0.1C151.3,50,151.4,50,151.4,50L151.4,50z"/>
<path class="st7" d="M136,54.6c-0.3-0.3-0.8-0.4-1.1-0.1c-0.1,0.1-0.1,0.1-0.2,0.2c-0.3,0.4,0.3,0.9,0.6,0.7
	c0.1-0.1,0.3-0.3,0.4-0.3S136.2,54.8,136,54.6z"/>
<path class="st7" d="M137.2,59.1c0.5,0.1,0.9,0.3,1.4,0.5c0.4,0.2,1.1,0.6,1.1,1.1s0.4,0.5,0.6,0.2c0.4-1.4-1.8-2.2-2.8-2.4
	C137,58.4,136.8,59,137.2,59.1z"/>
<path class="st6" d="M35.5,23.7c1.8-5.1,5.1-9.5,9.5-12.7 M44.9,10.9c-4.4,3.1-7.8,7.6-9.5,12.7c0,0.1,0.1,0.1,0.1,0L44.9,10.9z"/>
<path class="st6" d="M32.3,22.7c1.1-4.5,3.4-8.6,6.7-11.9c0.1-0.1-0.1-0.3-0.2-0.2c-3.6,3.1-6,7.3-6.7,12
	C32.2,22.7,32.3,22.7,32.3,22.7L32.3,22.7z"/>
<path class="st6" d="M150.6,4.3c3.8,1.7,6.8,4.8,8.3,8.6c0.1,0.2,0.3,0.1,0.3-0.1c-1.2-4.2-4.3-7.5-8.4-8.9
	C150.6,3.9,150.4,4.2,150.6,4.3L150.6,4.3z"/>
<path class="st6" d="M166.5,16.2c-0.1-1.3-0.2-2.7-0.2-4c0-0.3-0.2-0.5-0.5-0.5s-0.5,0.2-0.5,0.5c0,1.3,0.1,2.7,0.2,4
	C165.6,16.8,166.6,16.8,166.5,16.2z"/>
<path class="st6" d="M163,55.6c-0.7,0.9-1.5,1.8-2.3,2.6c-0.9,0.8-1.8,1.4-2.7,2.1c-0.1,0.1,0,0.3,0.1,0.3c2.2-1,4-2.6,5.2-4.7
	C163.5,55.6,163.2,55.4,163,55.6L163,55.6z"/>
<path class="st6" d="M128.1,82.9c3.6-2.8,7.6-5,11.9-6.7c4-1.4,8.2-2.5,12.4-3.2c0.1,0,0.1-0.1,0.1-0.1c0,0,0-0.1-0.1-0.1
	c-8.8,0.2-17.7,4.5-24.4,9.9C127.9,82.8,128,83,128.1,82.9L128.1,82.9z"/>
<path class="st6" d="M140,88.8c2.5-2.8,5.5-5.2,8.8-6.9c3.8-1.9,7.5-2.4,11.6-3c0.1,0,0.2-0.1,0.2-0.2c0-0.1-0.1-0.2-0.2-0.2
	c-7.6-0.5-16.1,4.1-20.6,10.1C139.8,88.7,139.9,88.8,140,88.8L140,88.8z"/>
<path class="st6" d="M156.8,97.3c2.4-3.1,5.6-4.6,9.4-5.2c0.2,0,0.2-0.4-0.1-0.4c-3.9,0.2-7.5,2.2-9.6,5.5
	C156.4,97.3,156.7,97.4,156.8,97.3L156.8,97.3z"/>
<path class="st6" d="M39.2,76.1c5.2-1.3,10,0.3,14.1,3.5c0.1,0.1,0.3-0.1,0.2-0.2c-3.7-3.8-9.4-4.8-14.3-3.4
	C39,76,39.1,76.1,39.2,76.1L39.2,76.1z"/>
<path class="st6" d="M34.9,86.7c4.4-0.4,7.6,1,10.5,4.3c0.2,0.2,0.4,0,0.3-0.2c-2-3.6-7-5.4-10.8-4.3C34.7,86.4,34.7,86.7,34.9,86.7
	L34.9,86.7z"/>
<path class="st6" d="M114.9,66.6c0.7-1.2,1.8-2.1,3.1-2.6c1.2-0.4,2.3-0.1,3.5-0.1c0.3,0,0.4-0.4,0.2-0.6c-2.4-1.7-6.3,0.7-7.1,3.1
	C114.4,66.7,114.7,66.8,114.9,66.6L114.9,66.6z"/>
<path class="st6" d="M121.8,63.6c0.6-1.3,1.7-2.3,3.1-2.7c1.7-0.5,2.9,0.2,4.4,1c0.2,0.1,0.4,0,0.5-0.1c0.1-0.1,0.1-0.3-0.1-0.4
	c-2.5-2.9-7.1-1.1-8.4,2C121.1,63.7,121.6,64,121.8,63.6L121.8,63.6z"/>
<path class="st6" d="M73.9,69c-1.7-3.2-5.4-4.7-8.9-3.6c-0.6,0.2-0.3,1.1,0.2,0.9c3.1-1,6.4,0.3,8.1,3.1c0.1,0.2,0.3,0.2,0.4,0.1
	S74,69.2,73.9,69L73.9,69z"/>
<path class="st6" d="M65.2,66c-1.4-3.1-6.6-4.3-9.1-1.9c-0.3,0.3,0.1,0.8,0.5,0.6c3.2-1.5,5.9-1.1,8.3,1.5
	C65.1,66.5,65.3,66.2,65.2,66z"/>
<path class="st6" d="M31.6,38.4c0.8,3.4,0.5,6.9-0.9,10.1c-0.1,0.2,0.2,0.2,0.3,0.1c2.2-3,2.6-7,0.9-10.4c0-0.1-0.2-0.1-0.2-0.1
	C31.6,38.3,31.6,38.3,31.6,38.4z"/>
<path class="st6" d="M28.6,42.7c-0.8,0.2-0.3,1.4,0.5,1.1C30,43.5,29.2,42.1,28.6,42.7c-0.1,0-0.2,0.1-0.1,0.2c0,0,0,0.1,0.1,0.1
	c0.2,0,0.2,0.5,0.1,0.3c-0.1-0.1-0.1-0.3,0-0.4c0,0,0,0,0,0C28.7,42.8,28.7,42.7,28.6,42.7C28.6,42.7,28.6,42.7,28.6,42.7L28.6,42.7
	z"/>
<path class="st6" d="M29.6,40.5c0.5,0.8,0.8,1.7,0.9,2.7c0,0.9-0.1,1.7-0.3,2.6c0,0.2,0.1,0.3,0.3,0.2c1.4-1.5,0.9-4.4-0.5-5.7
	c-0.1-0.1-0.3-0.1-0.3,0C29.5,40.3,29.5,40.4,29.6,40.5z"/>
<path class="st6" d="M163.2,24.3c2,3.3,3,7,1.8,10.8c-0.5,1.5-1.4,2.9-1.7,4.4c-0.2,1.3-0.2,2.6,0.1,3.8c0,0.1,0.2,0.1,0.2,0
	c0-2.4,0.5-4.8,1.4-7c0.6-1.3,0.9-2.7,1-4.1c0.2-2.9-0.7-5.9-2.5-8.2C163.4,23.9,163.2,24.1,163.2,24.3L163.2,24.3z"/>
<path class="st6" d="M165.9,38.2c-2.6,3.2-1.7,8.8,2.8,9.8c0.1,0,0.2,0,0.2-0.1c0-0.1,0-0.1-0.1-0.2c-3.4-2-5.1-5.7-2.6-9.2
	C166.3,38.3,166,38.1,165.9,38.2L165.9,38.2z"/>
<path class="st6" d="M167.4,24.5c-1.4,3.5-0.8,8.1,2.3,10.6c0.2,0.1,0.4,0,0.3-0.2c-2.4-3.1-3.5-6.4-2.3-10.3
	C167.8,24.4,167.5,24.3,167.4,24.5z"/>
<path class="st6" d="M168.6,36.9c1.5,1.5,1.9,3.3,2.1,5.4c0,0.2,0.2,0.1,0.3,0c0.7-2.1-0.6-4.4-2.2-5.6
	C168.7,36.5,168.5,36.7,168.6,36.9L168.6,36.9z"/>
<path class="st6" d="M167,40.6c-0.4,1.1-0.1,3.1,1.5,3c0.5,0,1-0.4,1.1-0.9c0.1-0.7-0.4-1.5-0.7-2c-0.1-0.2-0.3,0-0.3,0.1
	c0.1,0.4,0.3,0.8,0.5,1.2c0.2,0.6,0,1.2-0.8,1.2c-1.2-0.1-1.1-1.7-1.1-2.5C167.2,40.6,167.1,40.6,167,40.6
	C167,40.6,167,40.6,167,40.6L167,40.6z"/>
<path class="st6" d="M163.1,46.5c0,3.7,4.9,5,7.8,4.6c0.2,0,0.2-0.4,0-0.4c-3.4-0.5-6.1-0.8-7.5-4.3
	C163.4,46.3,163.1,46.3,163.1,46.5L163.1,46.5z"/>
<path class="st7" d="M78.9,82.6c4.8,0.3,9.7,0.1,14.5,0s9.8,0.3,14.5-0.3c0.1,0,0.2-0.1,0.2-0.3c0-0.1-0.1-0.1-0.2-0.2
	c-4.7-0.5-9.7,0-14.5,0s-9.7,0-14.5,0.3c-0.1,0-0.1,0.1-0.1,0.2C78.8,82.5,78.8,82.5,78.9,82.6L78.9,82.6z"/>
<path class="st7" d="M73.1,93.9c12.6,0.4,25.2,0.3,37.8,0c0.2,0,0.3-0.2,0.3-0.3c0-0.2-0.2-0.3-0.3-0.3c-12.6-0.1-25.2-0.1-37.8,0.3
	c-0.1,0-0.1,0.1-0.1,0.2C73,93.8,73.1,93.8,73.1,93.9L73.1,93.9z"/>
<path class="st7" d="M46.4,110.5c7.2,0.5,14.5,0,21.8-0.1l22.2-0.3l21.8-0.3l10.9-0.1c3.8,0.1,7.6,0,11.4-0.3c0.2,0,0.4-0.2,0.4-0.4
	s-0.2-0.4-0.4-0.4c-3.6-0.2-7.2-0.2-10.9,0l-10.9,0.2l-22.2,0.3l-21.8,0.3c-7.4,0.1-14.9-0.2-22.2,0.5c-0.1,0-0.2,0.1-0.2,0.2
	C46.2,110.4,46.3,110.4,46.4,110.5L46.4,110.5z"/>
<path class="st7" d="M45.4,122.2c8.9-0.2,17.8-1.1,26.7-1.5c9.1-0.4,18.1-0.7,27.2-0.9c18-0.4,35.9,0,53.9,0.4
	c0.3,0,0.6-0.3,0.6-0.6c0-0.3-0.3-0.6-0.6-0.6c-18.1-0.8-36.3-0.8-54.4-0.4c-8.9,0.2-17.8,0.6-26.7,1s-17.9,0.7-26.7,2
	C45,121.6,45,122.2,45.4,122.2L45.4,122.2z"/>
<path class="st7" d="M64.4,101.9c9,0.7,18.2,0.5,27.2,0.7s18.2,0.4,27.2,0.5c0.2,0,0.4-0.2,0.4-0.4c0-0.2-0.2-0.4-0.4-0.4
	c-9.1-0.2-18.2-0.3-27.2-0.5s-18.2-0.6-27.2-0.3c-0.1,0-0.2,0.1-0.2,0.2S64.3,101.9,64.4,101.9L64.4,101.9z"/>
<path class="st7" d="M157.9,115.9c2.7,0,5.3-0.2,8-0.6c0.2,0,0.1-0.3,0-0.3c-2.7,0-5.3,0.2-8,0.4
	C157.6,115.5,157.6,115.9,157.9,115.9z"/>
<path class="st7" d="M36.9,116.7c2.2,0.1,4.3,0.1,6.5-0.1c0.1,0,0.1-0.1,0.1-0.1c0-0.1-0.1-0.1-0.1-0.1c-2.2-0.2-4.3-0.2-6.5-0.1
	c-0.1,0-0.2,0.1-0.2,0.2S36.8,116.7,36.9,116.7z"/>
<path class="st7" d="M47.4,104.4c1.5,0,3-0.1,4.5-0.3c0.2,0,0.2-0.4,0-0.4c-1.5,0-3,0-4.5,0.2C47.1,103.9,47.1,104.4,47.4,104.4
	L47.4,104.4z"/>
<path class="st7" d="M133.9,103.2c1.7-0.1,3.4-0.1,5-0.3c0.2,0,0.2-0.3,0-0.3c-1.7,0-3.3,0.1-5,0.2
	C133.6,102.8,133.6,103.2,133.9,103.2z"/>
<path class="st7" d="M72.6,78.4c1.7,0,3.3,0,5-0.2c0.3,0,0.3-0.4,0-0.4c-1.7,0-3.3,0.1-5,0.3C72.4,78,72.5,78.4,72.6,78.4z"/>
<path class="st7" d="M91.1,78.5c6.8,0.3,13.7,0.6,20.5,0.7c0.2,0,0.2-0.3,0-0.3c-6.8-1-13.7-1.2-20.6-0.7c-0.1,0-0.1,0.1-0.1,0.2
	C91,78.4,91,78.5,91.1,78.5L91.1,78.5z"/>
<path class="st6" d="M62,63.7c-0.3-11,1.4-22.1,6.5-32c0-0.1,0-0.2-0.1-0.2c-0.1,0-0.1,0-0.2,0c-3.5,3.4-4.6,9.8-5.5,14.4
	c-1.1,5.9-1.6,11.9-1.3,17.8c0,0.1,0.1,0.2,0.2,0.2C61.9,63.9,62,63.8,62,63.7L62,63.7z"/>
<path class="st6" d="M73.5,68.1c-0.6-5.8-1.1-11.4-0.2-17.2c0.9-5.7,2.7-11.2,5.3-16.4c0.2-0.3-0.3-0.6-0.5-0.3
	c-5.2,9.9-7.8,22.9-5,34C73.1,68.5,73.5,68.4,73.5,68.1L73.5,68.1z"/>
<path class="st6" d="M112.9,66.4c0.2-9.5-0.1-19.5-2.1-28.8c0-0.2-0.3-0.1-0.3,0c0.9,9.6,2,19,2,28.8c0,0.1,0.1,0.2,0.2,0.2
	C112.8,66.6,112.9,66.5,112.9,66.4L112.9,66.4z"/>
<path class="st6" d="M121.6,34.6c1.9,8.5,3,16.9,2.3,25.7c0,0.3,0.4,0.3,0.4,0c0.7-8.5,0.3-17.5-2.2-25.8c0-0.1-0.2-0.2-0.3-0.2
	C121.7,34.4,121.6,34.5,121.6,34.6z"/>
<path class="st6" d="M69,31.4c-1.3,0.1-2.6-0.1-3.8-0.6c-1.1-0.5-1.9-1.5-2.9-2c-0.2-0.1-0.5,0.1-0.4,0.3c0.9,2.5,4.9,3.3,7.2,3
	C69.4,32,69.4,31.3,69,31.4L69,31.4z"/>
<path class="st6" d="M62.4,29c-3.4,1.3-6.2-0.3-6.8-3.9c0-0.3-0.4-0.2-0.5,0.1c-0.5,3.8,4.4,6.4,7.4,4.1
	C62.6,29.1,62.5,28.9,62.4,29z"/>
<path class="st6" d="M54.3,22.6c-0.7-1.5-1.5-2.9-2.4-4.2c-0.2-0.2-0.5-0.1-0.4,0.2c0.6,1.5,1.3,3,2.2,4.4
	C53.9,23.4,54.5,23,54.3,22.6L54.3,22.6z"/>
<path class="st6" d="M51.8,18.9c-1.1,0.7-2.5,0.4-3.2-0.7c0,0,0-0.1-0.1-0.1c-0.7-0.9-0.7-2.2-1.3-3.1c-0.1-0.1-0.4-0.2-0.5,0.1
	c-0.6,2.6,2.9,6.7,5.4,4.2C52.3,19.1,52,18.7,51.8,18.9z"/>
<path class="st6" d="M52.6,18.6c-0.4,1.5,0,3,0.9,4.3c0.8,1.1,2,1.8,3.4,1.8c0.2,0,0.3-0.2,0.3-0.3c0-0.1-0.1-0.2-0.2-0.3
	c-1.1-0.3-2-0.8-2.8-1.5c-0.9-1.1-1.3-2.5-1-3.8C53.1,18.4,52.7,18.3,52.6,18.6L52.6,18.6z"/>
<path class="st6" d="M78,34.7C78,34.7,78,34.7,78,34.7C78,34.7,78,34.6,78,34.7C78,34.6,77.9,34.7,78,34.7
	C77.9,34.7,78,34.7,78,34.7C78,34.7,78,34.7,78,34.7z"/>
<path class="st6" d="M78.9,34l0.9-1c0.3-0.3,0.6-0.6,0.8-1c0-0.1,0-0.2-0.1-0.2c0,0-0.1,0-0.1,0c-0.3,0.2-0.6,0.5-0.9,0.8l-1,1
	C78.3,33.9,78.7,34.2,78.9,34L78.9,34z"/>
<path class="st6" d="M76.9,33.3c0.7-0.7,1.4-1.4,2.2-2.1c0.7-0.6,1.3-1.2,1.8-2c0-0.1,0-0.2-0.1-0.2c0,0-0.1,0-0.1,0
	c-0.8,0.5-1.4,1.1-2,1.8c-0.7,0.7-1.4,1.4-2.1,2.2c-0.1,0.1-0.1,0.2,0,0.3C76.7,33.4,76.9,33.4,76.9,33.3L76.9,33.3z"/>
<path class="st6" d="M71.5,32.1c-0.2-1-0.5-1.9-0.8-2.9c-0.1-0.9-0.4-1.7-0.8-2.5c-0.1-0.1-0.2-0.2-0.4-0.1c-0.1,0-0.1,0.1-0.1,0.2
	c0.1,0.9,0.4,1.9,0.8,2.7c0.3,0.9,0.6,1.8,1,2.7C71.3,32.5,71.6,32.3,71.5,32.1L71.5,32.1z"/>
<path class="st6" d="M71.8,29.2l0.7,1.8c0.1,0.2,0.3,0.1,0.3-0.1l-0.6-1.8C72.1,28.9,71.7,29,71.8,29.2L71.8,29.2z"/>
<path class="st6" d="M68.8,27.3c0.7,1,1.8,1.6,3,1.6c1,0,2.4-0.5,2.7-1.5c0.1-0.2-0.1-0.4-0.3-0.3c-0.8,0.3-1.4,0.9-2.3,1
	c-1,0.1-2-0.3-2.7-1.1C69,26.8,68.6,27.1,68.8,27.3L68.8,27.3z"/>
<path class="st6" d="M73.8,27.5c0.7,1,1.8,1.7,3.1,1.9c1.2,0.2,2.8-0.1,3.4-1.2c0-0.1,0-0.2-0.1-0.3c0,0-0.1,0-0.1,0
	c-1.1,0.3-1.9,0.9-3.1,0.8c-1.1-0.1-2.1-0.7-2.8-1.6C74.1,26.9,73.7,27.2,73.8,27.5z"/>
<path class="st6" d="M79.8,28.1c0,1.1,0.5,2.2,1.4,2.8c0.9,0.7,2.2,0.9,3.3,0.4c0.1-0.1,0.2-0.2,0.1-0.4c0-0.1-0.2-0.2-0.3-0.1
	c-0.9,0.1-1.9-0.1-2.7-0.5c-0.8-0.6-1.3-1.4-1.5-2.3c0-0.1-0.1-0.1-0.2-0.1C79.9,27.9,79.8,27.9,79.8,28.1L79.8,28.1z"/>
<path class="st6" d="M85.7,30.4c2.4,3.5,8.7,5.4,11.6,1.4c0.1-0.1,0-0.3-0.1-0.4c-0.1,0-0.2-0.1-0.2,0c-1.9,0.8-3.5,1.7-5.7,1.5
	c-2-0.2-3.8-1.2-5.1-2.8C85.9,29.8,85.5,30.1,85.7,30.4z"/>
<path class="st6" d="M97.2,31.8c1.8,1.9,5.3,3.2,7.7,1.4c0.1-0.1,0.2-0.2,0.1-0.4c-0.1-0.1-0.2-0.1-0.3-0.1
	c-2.6,0.4-4.9,0.5-6.9-1.5c-0.1-0.1-0.4-0.1-0.5,0S97.1,31.7,97.2,31.8z"/>
<path class="st6" d="M122.1,35c0.1-2,0.7-3.9,1.8-5.6c0.1-0.1,0-0.3-0.1-0.3c-0.1,0-0.2,0-0.3,0c-1.5,1.6-2.2,3.7-1.9,5.9
	c0,0.1,0.2,0.2,0.3,0.2C122,35.2,122.1,35.2,122.1,35z"/>
<path class="st6" d="M118.4,33.5c0.6-1,1.2-2.1,1.7-3.2c0.6-0.9,1-1.9,1.3-2.9c0-0.2-0.2-0.4-0.4-0.2c-0.7,0.9-1.2,1.9-1.6,3
	c-0.5,1-1,2.1-1.4,3.1C117.9,33.6,118.3,33.8,118.4,33.5z"/>
<path class="st6" d="M117.5,33.6c-0.1-1-0.3-1.9-0.6-2.9c-0.1-1-0.4-1.9-0.8-2.8c-0.1-0.1-0.2-0.2-0.4-0.1c-0.1,0-0.1,0.1-0.1,0.2
	c0,0.9,0.2,1.8,0.6,2.7c0.3,1,0.5,2,0.9,3C117.2,33.9,117.5,33.9,117.5,33.6L117.5,33.6z"/>
<path class="st6" d="M112.5,29.8c0.1,1.4,0.4,2.8,0.7,4.2c0.1,0.3,0.6,0.3,0.6-0.1c-0.2-1.4-0.5-2.8-0.8-4.2
	C112.9,29.5,112.5,29.6,112.5,29.8z"/>
<path class="st6" d="M112.7,33.5c0,0.5,0,1,0,1.5l0.4-0.3c-0.9-0.2-1.8-0.6-2.6-1.1c-0.4-0.3-0.7-0.6-1-0.9
	c-0.3-0.3-0.4-0.7-0.9-0.9c-0.2-0.1-0.4,0-0.4,0.1c0,0,0,0.1,0,0.2c0,0.9,1.1,1.8,1.8,2.2c0.9,0.6,1.9,0.9,3,0.9
	c0.2,0,0.3-0.1,0.3-0.3c0,0,0,0,0-0.1c-0.1-0.5-0.1-0.9-0.2-1.4C113,33.3,112.6,33.3,112.7,33.5L112.7,33.5z"/>
<path class="st6" d="M108,35.4c0.6,0.3,1.1,0.7,1.5,1.3c0.3,0.5,0.4,1.1,0.7,1.6c0.1,0.1,0.2,0.1,0.3,0.1c0,0,0.1-0.1,0.1-0.1
	c0-0.7-0.2-1.4-0.7-1.9c-0.4-0.6-1-1.1-1.7-1.4C108,34.8,107.7,35.2,108,35.4z"/>
<path class="st6" d="M103.8,33.5c-0.6,1.4-0.5,3,0.3,4.3c0.7,1.1,2.1,2.3,3.4,2c0.1,0,0.1-0.2,0-0.2c-1-0.7-2.1-0.9-2.9-2
	c-0.8-1.2-1-2.7-0.5-4C104.1,33.3,103.9,33.2,103.8,33.5L103.8,33.5z"/>
<path class="st6" d="M106.5,39.8c0.5,0.8,1.2,1.4,2,1.7c0.7,0.4,1.6,0.4,2.4,0.2c0.1-0.1,0.2-0.2,0.1-0.3c0-0.1-0.1-0.1-0.1-0.1
	c-0.6-0.2-1.4-0.1-2-0.3c-0.8-0.3-1.5-0.7-2-1.3c-0.1-0.1-0.2-0.1-0.3,0C106.5,39.7,106.4,39.8,106.5,39.8L106.5,39.8z"/>
<path class="st6" d="M122.6,35.6c5.7,0.8,12.7-3.9,13.6-9.8c0-0.2-0.3-0.4-0.4-0.2c-1.3,2.4-2.4,4.6-4.6,6.4
	c-2.5,2.1-5.4,2.7-8.6,3.2C122.3,35.2,122.4,35.6,122.6,35.6L122.6,35.6z"/>
<path class="st6" d="M135.8,25.9c3.8,0,7.8-3.6,7.2-7.6c0-0.2-0.4-0.2-0.4,0c-0.4,1.8-0.7,3.5-2,4.9c-1.3,1.3-3,2.1-4.8,2.3
	C135.5,25.5,135.6,25.9,135.8,25.9L135.8,25.9z"/>
<path class="st6" d="M143.3,18.3c2.3-0.1,4.1-2.1,4-4.4c0-0.5-0.2-1.1-0.4-1.6c-0.1-0.1-0.2-0.2-0.3-0.1c-0.1,0.1-0.2,0.2-0.1,0.3
	c0.7,2.5-0.5,4.9-3.1,5.3C142.9,17.9,143,18.3,143.3,18.3L143.3,18.3z"/>
<path class="st6" d="M147.2,13.4c1.7-0.7,3-2.3,3.3-4.2c0.1-0.3-0.5-0.5-0.5-0.1c-0.3,1.7-1.4,3.2-2.9,4
	C146.8,13.2,147,13.5,147.2,13.4L147.2,13.4z"/>
<path class="st6" d="M111.1,29.1c2.2,1.1,5.8,0.4,6.2-2.4c0-0.1-0.1-0.3-0.2-0.3c-0.1,0-0.2,0-0.2,0.1c-1.4,1.9-3.2,3.1-5.6,2.2
	C111,28.6,110.8,29,111.1,29.1z"/>
<path class="st6" d="M120,26.1c0.2,0.7,0.7,1.3,1.4,1.5c0.7,0.2,1.4-0.1,1.9-0.6c0.1-0.1-0.1-0.3-0.2-0.3c-0.4,0.2-0.9,0.4-1.3,0.4
	c-0.7,0-1.2-0.5-1.4-1.1c0-0.1-0.2-0.2-0.3-0.1C120,25.9,119.9,26,120,26.1L120,26.1L120,26.1z"/>
<path class="st6" d="M122.9,26.7c-0.7,0.9-0.5,2.2,0.3,2.9c0.8,0.8,2.1,0.7,2.8-0.1c0,0,0,0,0,0c0.1-0.1,0-0.3-0.1-0.3
	c-0.1,0-0.1,0-0.2,0c-0.7,0.3-1.4,0.3-2.1,0c-0.7-0.5-0.9-1.5-0.5-2.3c0-0.1,0-0.2-0.1-0.2C123,26.6,123,26.6,122.9,26.7L122.9,26.7
	z"/>
<path class="st6" d="M107.2,35.3c0.8-0.4,1.4-1.1,1.9-1.8c0.3-0.5,0.9-1.5,0.6-2.2c-0.1-0.1-0.2-0.1-0.3,0c0,0,0,0,0,0
	c-0.4,0.4-0.4,1.2-0.8,1.8c-0.4,0.7-1,1.3-1.7,1.7c-0.1,0.1-0.2,0.3-0.1,0.4C106.8,35.4,107,35.4,107.2,35.3L107.2,35.3L107.2,35.3z
	"/>
<path class="st6" d="M72,29.5c0.1,0.5,0.4,0.9,0.6,1.4c0.2,0.4,0.4,0.8,0.8,1.1c0.1,0,0.1,0,0.2,0c0,0,0,0,0-0.1
	c-0.1-0.4-0.2-0.9-0.5-1.2c-0.2-0.5-0.5-0.9-0.8-1.3C72.2,29.1,72,29.3,72,29.5z"/>
<path class="st6" d="M73.6,31.7l1.2-1.6c0.4-0.4,0.7-1,0.9-1.5c0-0.1-0.1-0.2-0.2-0.2c-0.4,0.4-0.8,0.9-1.1,1.4l-1.1,1.8
	C73.3,31.7,73.5,31.9,73.6,31.7z"/>
<path class="st6" d="M76.6,32.7c0.1-0.6,0.2-1.2,0.4-1.7c0.3-0.5,0.6-1,0.9-1.4c0.2-0.3-0.2-0.6-0.5-0.4c-0.9,0.9-1.4,2.2-1.2,3.5
	C76.2,32.9,76.5,33,76.6,32.7L76.6,32.7z"/>
<path class="st6" d="M68.9,33.2c-0.5-1.9-1.2-3.8-2-5.5c-0.1-0.1-0.3-0.2-0.4-0.1c-0.1,0.1-0.1,0.2-0.1,0.3c0.5,1.9,1.2,3.7,2.1,5.4
	C68.5,33.5,69,33.4,68.9,33.2z"/>
<path class="st6" d="M65,27.5c2,1.6,5.2,1.7,6.8-0.6c0.2-0.2-0.2-0.5-0.4-0.3c-1.8,1.6-4,2.2-6,0.6C65.1,26.9,64.8,27.3,65,27.5
	L65,27.5z"/>
<path class="st6" d="M67.8,44.4c-1.2,1.7-1.7,3.8-1.6,5.9c0,0.1,0.1,0.1,0.1,0c0.1-2,0.7-4,1.7-5.8c0-0.1,0-0.1-0.1-0.1
	C67.9,44.3,67.9,44.3,67.8,44.4L67.8,44.4z"/>
<path class="st6" d="M72.5,45.6c0.3,1.8,0.2,3.6-0.3,5.3c0,0.1,0,0.1,0.1,0.1c0,0,0.1,0,0.1,0c0.8-1.7,0.9-3.7,0.4-5.5
	C72.8,45.4,72.5,45.4,72.5,45.6z"/>
<path class="st6" d="M68.3,46.9c-0.3,0.9-0.1,1.8,0.5,2.5c0.1,0.1,0.2,0,0.2-0.1c-0.4-0.7-0.5-1.5-0.3-2.2
	C68.7,46.8,68.4,46.7,68.3,46.9L68.3,46.9z"/>
<path class="st6" d="M70.6,47.9c0.2,0.3,0.3,0.7,0.2,1c0,0.1,0,0.1,0,0.2c0.1,0,0.1,0,0.2,0c0.2-0.4,0.2-0.9-0.1-1.3
	C70.8,47.6,70.5,47.7,70.6,47.9L70.6,47.9z"/>
<path class="st6" d="M114,49.5c-0.7,1.8-0.7,3.7,0.2,5.5c0,0.1,0.2,0,0.2-0.1c-0.5-1.7-0.5-3.6-0.1-5.3
	C114.2,49.5,114.2,49.5,114,49.5C114,49.5,114,49.5,114,49.5L114,49.5z"/>
<path class="st6" d="M119.3,49.6c0.8,1.6,0.9,3.4,0.5,5.2c0,0.1,0.1,0.1,0.1,0c0.8-1.7,0.7-3.8-0.3-5.4c0-0.1-0.1-0.1-0.2-0.1
	S119.2,49.4,119.3,49.6C119.3,49.5,119.3,49.6,119.3,49.6L119.3,49.6z"/>
<path class="st6" d="M115.4,51.5c-0.4,0.7-0.2,1.7,0.4,2.2c0.1,0,0.2-0.1,0.1-0.1c-0.4-0.6-0.5-1.3-0.3-1.9
	C115.8,51.4,115.5,51.3,115.4,51.5z"/>
<path class="st6" d="M117.6,51.7c0,0.6,0.2,1.1,0.3,1.6c0,0.1,0.2,0,0.2,0c0-0.6-0.1-1.1-0.3-1.7C117.8,51.4,117.5,51.5,117.6,51.7z
	"/>
<path class="st6" d="M113.2,37.9c0,1.9,0.1,3.9,0.4,5.8c0,0.1,0.2,0.1,0.2,0c0.1-1.9,0-3.8-0.2-5.8
	C113.6,37.7,113.2,37.7,113.2,37.9L113.2,37.9z"/>
<path class="st6" d="M119.5,37.9c0.1,1.6,0.5,3.2,1,4.7c0,0.1,0.2,0.1,0.2,0c-0.1-1.6-0.5-3.2-1-4.7
	C119.8,37.8,119.6,37.8,119.5,37.9L119.5,37.9z"/>
<path class="st6" d="M70.5,35.2c-0.7,1.3-1.4,2.8-1.9,4.2c0,0.1,0.1,0.2,0.2,0.1c0.8-1.3,1.4-2.7,2-4.1C70.9,35.2,70.6,35,70.5,35.2
	L70.5,35.2z"/>
<path class="st6" d="M74,36.7c-0.7,1.5-1.2,3-1.6,4.6c0,0.1,0,0.1,0.1,0.1c0,0,0.1,0,0.1,0c0.7-1.5,1.3-3,1.7-4.6
	C74.4,36.6,74.1,36.5,74,36.7z"/>
<path class="st6" d="M70.6,60.2l0.1,0.9l0,0L70.6,60.2L70.6,60.2L70.6,60.2z"/>
<path class="st6" d="M62,15.5c0.2,2.1,3.1,4,4.9,2.3c0.2-0.2,0-0.5-0.2-0.4c-0.8,0.3-1.8,0.4-2.6,0.1c-0.8-0.4-1.4-1.1-1.6-2
	C62.4,15.3,62,15.3,62,15.5L62,15.5z"/>
<path class="st6" d="M66.6,16.9c0.9,2.1,4.7,2.9,5.9,0.6c0.1-0.2-0.1-0.5-0.3-0.4c-0.8,0.4-1.7,0.7-2.6,0.8c-1-0.1-1.9-0.5-2.6-1.3
	C66.8,16.5,66.5,16.7,66.6,16.9z"/>
<path class="st6" d="M134.9,10.3c-0.3,0.6-0.8,1-1.4,1.1c-0.5,0.1-1.1,0-1.6-0.1c-0.2,0-0.3,0.1-0.3,0.3c0,0.1,0,0.1,0.1,0.2
	c0.6,0.4,1.5,0.5,2.2,0.2c0.7-0.3,1.3-0.8,1.6-1.5C135.5,10.2,135,10,134.9,10.3z"/>
<path class="st6" d="M132.2,11.1c-0.7,0.4-1.5,0.7-2.3,0.8c-0.6-0.1-1.3-0.3-1.8-0.6c-0.2-0.1-0.5,0.1-0.4,0.3
	c0.7,2.1,3.6,0.7,4.8-0.1c0.1-0.1,0.2-0.2,0.1-0.3C132.4,11.1,132.3,11,132.2,11.1z"/>
<path class="st6" d="M95,19.2c0.6,0.7,1.4,1.1,2.3,1.1c1.6,0.2,3.3,0.2,4.9,0c0.2,0,0.3-0.3,0.1-0.4c-2-0.3-5.6,0.7-7-1
	C95.1,18.8,94.9,19,95,19.2L95,19.2z"/>
<path class="st6" d="M85.1,24.5c0.8,1.4,2.3,2.3,3.9,2.3c0.2,0,0.3-0.4,0.1-0.4c-0.7-0.1-1.4-0.3-2-0.6c-0.7-0.3-1.3-0.8-1.7-1.5
	C85.2,24.1,84.9,24.3,85.1,24.5L85.1,24.5z"/>
<path class="st6" d="M89.7,25.6c1.2,2,3.9,3,5.9,1.4c0.2-0.1,0-0.5-0.2-0.4c-2,0.7-4,0.6-5.3-1.3C90,25.1,89.6,25.4,89.7,25.6z"/>
<path class="st6" d="M77.3,3.5C79,2.4,80.6,3,82.2,4c0.1,0,0.2,0,0.3-0.1c0-0.1,0-0.1,0-0.2C81.4,2,78.6,2,77,3.1
	C76.7,3.3,77,3.7,77.3,3.5L77.3,3.5z"/>
<path class="st6" d="M82.2,3.7C83,3.4,84,3.3,84.9,3.6c0.8,0.3,1.6,0.9,2.2,1.6c0.1,0.1,0.2,0.1,0.2,0.1c0.1-0.1,0.1-0.2,0.1-0.3
	c-0.7-2.1-3.6-2.5-5.4-1.7C81.8,3.4,81.9,3.8,82.2,3.7L82.2,3.7z"/>
<path class="st6" d="M114,5.4c1.4,1.3,4.4,1.9,5.8,0.1c0.1-0.1-0.1-0.3-0.2-0.3c-0.8,0.4-1.7,0.6-2.6,0.7c-1,0-2-0.3-2.8-0.9
	C114.1,5.1,113.9,5.3,114,5.4z"/>
<path class="st6" d="M119.8,5.3c1.4,0.9,3.9,1.2,5-0.2c0.1-0.1,0.1-0.2,0-0.3c0,0-0.1-0.1-0.2,0c-0.7,0.3-1.4,0.5-2.1,0.6
	c-0.9,0.1-1.7-0.1-2.5-0.4C119.8,4.8,119.6,5.1,119.8,5.3L119.8,5.3z"/>
</svg>
