<svg id="illustration" xmlns="http://www.w3.org/2000/svg" viewBox="0 0 198.43 144.58"><defs><style>.cls-1{fill:#2f671f;}.cls-2{fill:#3bc6f4;}.cls-3{fill:#6dbe45;}.cls-4{fill:#71311f;}.cls-5{fill:#b57240;}.cls-6{fill:#010101;}.cls-7{fill:#231f20;}.cls-8{fill:#fff;}</style></defs><path class="cls-1" d="M150.4,5V9.7l0,0-.31.58a.06.06,0,0,1,0,0l-1,1.91s0,0,0,0l-1.88,1.49-.52-.77.2,2.63L145.1,17.9l-1.78.69h0l-.56.21c0,.23,0,.47,0,.7l-.07,1.7L142,22l-2.1,2.63-4.14,1.57-2,4.33h0s0,0,0,.05h0l-3.1,3h0l-1.39,1.33-1.88.3h0l-4.69.75-.45.23-8.64,4.4-2.3,1.17-.08,0-.41.21-2-.23-1.5-.91-.55-.94h0l-2.36-2-.1-2.29V33.75l-1.49.31-3-.68-2.26-1.3-1,.5,0,0-2.53,1.15H90.2l-2.8-1.42s0,0,0,0l-1.42-1.5-2.36.66-1.39-.11-2-2.69-.21.11-1.51.75h0l-.84.43-.89-.39h0L75.59,29l-1.42-1.1-.1-.08-1.64.9L70,28.54H69.8l-3,.16.09.23c.28.78.57,1.55.86,2.33,0,0,0,0,0,0l.24.65H66.64l-1.92-.38a.09.09,0,0,1-.07,0l-2.24-1.87-.18,0-2.47.44-2.08-.32-1.54-1.46-.8-2.66,1-.9-1.55-1.46-1.24-.79-.3-.55-.44-.79-.89-1.62-.7.44L49.51,20l-1.64-1.6-.68-2L47,15.88s0,0,0-.05l0-.58h0L47.7,4.32q3.78-1.55,7.68-2.88h86.79a0,0,0,0,1,0,0,11.17,11.17,0,0,1,1,.69h0C145.61,3,148,4,150.4,5Z"/><path class="cls-2" d="M69.42,75.08h47.89l.5,12-2.72,3.13,4.31.06,4.49.18,5.85-.18-1.08,1.88-.83,1v1.33s2.93,3.36,20.83,3a9.89,9.89,0,0,0-2,3.92l.88,1.41,1.54.29,2.35.29h2.94l1.83.46,3.63,1.9,1,.63,2.08,1.19,1.84.64,1.69.14h3l1.23.6v34.23H28.88v-34.4s5.33-.75,8.75-2.71,6.27-3.29,6.27-3.29-1.15-2.46-2.89-2.35l1.37-1.15,11.66-2L56.31,96l.43-2-1.28-2-1.08-1.76-1.82-1.08,5.16,1,5.16-.3,4.5-.24h2.37Z"/><path class="cls-3" d="M170.61,67.35s-24.25-2.14-39.74,7.14a77.48,77.48,0,0,0-15.78,14.94l1.63.84,4.23.06,3.77-.12,5,.06-1.08,1.88-.83,2.33,1.36.92,2.85.84,5.45.77,6.08.46,3.92,0,1.17,0-2,1.43v2.49l2.42,1.7,2.35.29h2.94l1.83.46,3.63,1.9,2.85.63,2.06,1.83,3.36.14h2.56Z"/><path class="cls-1" d="M47.89,62.54a2.86,2.86,0,0,1,.25-3.65.22.22,0,0,1,.37.06,2.52,2.52,0,0,1,1-.11l.65-3.23s-.54-2.67-2.27-2.89A4.59,4.59,0,0,0,44.63,54s-.37-2-1.75-2.08a2.53,2.53,0,0,0-2,.5s.63-.88-1.6-2.29-8.52.66-8.52.66L32,72.45l14.58,1.49,2.14-10.8A1.72,1.72,0,0,1,47.89,62.54Z"/><path class="cls-3" d="M28.88,68.43l5.33-.14,4.17.49,6.61,1,5.89,2.53,5.69,3.13,4.53,3.46,5.41,5.84,3.24,4.92-5.63.54-5.07-.4-4.67.46-1.82-1.08,2.16,2.25L56,94.06l.32,2L54,97.29l-3,.52-3.77.3-3.11.73-1.75.43L41,100.42l1.46,1.17,1.43,1.18a15.51,15.51,0,0,1-2,1.21c-.7.29-4.29,2.08-4.29,2.08l-1.7.82-1.86.68-3.16.84-2,.37h0Z"/><path class="cls-1" d="M68.94,75.08c1,0,14.51.9,14.63-.59.17-2.11-1.85-2.18-3.46-2,.56-1.82-1.62-3-2.34-3.54-.91-.68-4.65.91-4.57,1.09l-1.46-2.28-1.66-1L68.55,66H66.63l-1.52.36L63.48,65l-2.35-1-2.31.14-2,.51-.86.57-1.19-1.08-.89-.36-.82-.13-1.25.21,1-2.43.25-2-.42-1.55-.81-1.3-1.29-.48-2.61.48L46.74,70.76l6.59,2.91,1.73.82,1.25,1.12.94.36Z"/><path class="cls-1" d="M141.55,69.79,146,68.64l16.35-14.42-6.27-4.81s-1.33-2.09-3.39-1.91-3.06,2.72-3.13,3.71c-.54-1.38-3.74-1.39-4.22-.46s.49-2.08-3.8-2.26-4.28,5.43-4,6.13-1-1.06-2.3-.5c0,0-1.58.11-1.61,2.62,0,0-3.32,1.66-3,4.12l0,1.82a5.23,5.23,0,0,0-3.05,2.79c-.91,2.16.23,3,.23,3s-3.93,2-4.16,6S125,79.05,125,79.05l6.78-4.92,6-2.91Z"/><path class="cls-1" d="M117.81,75s-8.81.59-12.92,0c.35-2.12,3.32-4.11,6.57-4.11-.89-1.93-.46-3.72,1.48-4.25l1.72.28,1.1-1.59,2-1.37,2.13-.23,1.48.32L123,62.42l.63-.88,1.85-.68,2.08.21,1.9,1L132,60.86s-4,14.63-3.95,14.48S117.81,75,117.81,75Z"/><polygon class="cls-3" points="56.55 66.74 58.24 67.36 60.95 68.86 63.63 71 67.18 74.59 69.99 79.19 71.07 82 69.68 82.43 67.76 82.43 65.63 82.34 64.37 82.43 59.57 77.63 57.25 75.97 57.85 74.59 58.13 73.67 58.21 72.03 57.6 70 56.81 68.86 56.31 68.45 56.55 66.74"/><path class="cls-4" d="M170.62,15.58V67.35c-7.12-.18-13.37.13-17.7.46h0l-.52,0h-.08c-3.56.27-5.67.56-5.67.56l.77-1c.61-.8,1.54-2.06,2.65-3.65l0-.06a105,105,0,0,0,7.77-13,48.09,48.09,0,0,0,4.57-13.12.28.28,0,0,0,0-.09,20.56,20.56,0,0,0,.21-5.5c0-.31-.08-.63-.13-.94a.06.06,0,0,0,0,0,19.47,19.47,0,0,0-.63-2.75.22.22,0,0,0,0-.1c-2-6.71-7-13.46-11.43-18.5L150,9.23l0-.05A100.81,100.81,0,0,0,142.83,2h0l-.64-.57a11.17,11.17,0,0,1,1,.69h0C145.61,3,148,4,150.4,5c1.31.56,2.61,1.13,3.89,1.73q5.94,2.73,11.51,6Q168.25,14.08,170.62,15.58Z"/><path class="cls-4" d="M68.74,1.44A89.92,89.92,0,0,0,47.19,16.35l0,0c-5,4.79-9.51,10.62-11.85,17.3-.09.25-.18.49-.25.74s-.23.68-.32,1v0a37.93,37.93,0,0,0-1.6,9.46,3.31,3.31,0,0,0,0,.44,38.94,38.94,0,0,0,.16,4.76,40.37,40.37,0,0,0,5,15.69,1,1,0,0,0,.08.14,25.72,25.72,0,0,0,2,3.1,33.69,33.69,0,0,0-8.59-.9,20.1,20.1,0,0,0-2.82.26L29,44.06v-.77l.11-29.73A142.64,142.64,0,0,1,47.7,4.32q3.78-1.55,7.68-2.88Z"/><path class="cls-5" d="M33.44,49.19a.07.07,0,0,0,0-.13.07.07,0,0,0,0,.13Z"/><path class="cls-5" d="M33.31,48.11a1.27,1.27,0,0,0,.21,1,.19.19,0,0,0,.34-.14,1.19,1.19,0,0,0-.45-.88.08.08,0,0,0-.1,0Z"/><path class="cls-5" d="M33.14,48.63a.41.41,0,0,0,.08.56.17.17,0,0,0,.18,0l.08,0a.12.12,0,0,0,.07-.17c0-.08-.14-.18-.11-.27s-.21-.3-.3-.13Z"/><path class="cls-5" d="M33.53,48.52a2,2,0,0,0,1.37,0c.25-.1.33-.52,0-.59a2.09,2.09,0,0,0-1.4.3.14.14,0,0,0,0,.26Z"/><path class="cls-5" d="M160.72,43.52c-.4.23-.57.8-.75,1.21a2.54,2.54,0,0,0-.34,1.39.2.2,0,0,0,.32.08,3.1,3.1,0,0,0,.58-1.18,3.36,3.36,0,0,0,.49-1.33.2.2,0,0,0-.3-.17Z"/><path class="cls-5" d="M158.73,45.87A1.59,1.59,0,0,0,160,45.5a.18.18,0,0,0-.12-.3,1.59,1.59,0,0,0-1.19.49.11.11,0,0,0,0,.18Z"/><path class="cls-5" d="M159.13,45.74a.05.05,0,1,0,0-.1.05.05,0,0,0,0,.1Z"/><path class="cls-5" d="M159.13,46a1.18,1.18,0,0,0,1-.09c.29-.15.09-.65-.22-.53a3.72,3.72,0,0,1-.8.19c-.24,0-.18.36,0,.43Z"/><path class="cls-5" d="M159.38,44.83a1,1,0,0,0,1.12-.39.3.3,0,0,0-.17-.43,1,1,0,0,0-1.08.49.23.23,0,0,0,.13.33Z"/><polygon class="cls-3" points="128 64.71 127.6 65.47 127.3 66.25 127.33 67.36 127.83 68.47 126.39 69.37 125.49 70.32 124.78 71.22 124.32 72 124.01 72.94 123.73 73.9 123.73 75.34 124.01 76.88 124.38 78.06 125.04 79.05 123.64 80.45 122 80.22 118.45 79.92 115.46 79.56 115.89 78.82 117.31 76.35 118.72 73.9 120.44 70.92 122.01 68.39 124.01 65.75 126.09 63.84 128.41 62.42 130.4 61.64 130.65 62.68 129.47 63.29 128.58 63.99 128 64.71"/><polygon class="cls-4" points="62.05 63.81 61.79 58.08 62.69 49.13 65.16 38.69 67.97 32.71 67.65 30.61 66.8 28.71 67.97 28.91 70.03 28.54 70.77 30.9 71.32 32.38 71.61 29.01 72.77 31.12 73.2 31.94 74.73 30.32 75.59 29.04 77.14 29.5 77.63 29.94 76.77 31.29 76.39 33.19 76.77 33.7 79.36 31.12 80.34 30.13 81.48 31.1 79.87 33.08 78.06 35.19 76.56 38.69 74.61 44.09 73.74 48.13 72.99 51.44 72.51 56.05 72.47 60 72.64 63.81 73.2 66.94 73.38 69.33 71.07 67.07 68.55 66 66.63 66 65.11 66.36 62.85 64.57 62.05 63.81"/><polygon class="cls-4" points="107.74 35.04 108.81 33.75 110.38 34.58 113.01 35.51 112.91 34.06 113.48 34.45 112.58 29.7 115.96 28.55 116.8 31.94 117.33 34.11 118.23 33.93 119.71 30.61 121.39 27.85 122.63 27.74 123.01 29.36 123.69 29.86 122.57 31.7 121.89 33.7 122.13 35.96 123.5 42.68 124.26 49.59 124.41 54.49 124.24 59.28 123.64 61.54 121.42 64.08 119.94 63.76 117.81 63.99 115.76 65.36 114.66 66.95 113.58 66.94 112.94 66.67 112.58 63.84 112.56 58.11 112.26 52.38 111.38 42.61 110.71 38.69 109.81 37.18 108.54 35.9 107.74 35.04"/><path class="cls-6" d="M44.67,59.14A66.54,66.54,0,0,1,44.43,68c0,.22.32.22.35,0a32.71,32.71,0,0,0,0-8.84c0-.08-.15-.06-.15,0Z"/><path class="cls-6" d="M69.79,89.61a38.8,38.8,0,0,0-16.1-15.73C46,70,37.39,68.66,28.89,68.36c-.16,0-.16.24,0,.25,8.45.3,17.06,1.61,24.67,5.49a38.61,38.61,0,0,1,16,15.63.12.12,0,0,0,.21-.12Z"/><path class="cls-6" d="M52.56,89.18h-.22s0,0,0,0h.22s0,0,0,0Z"/><path class="cls-6" d="M51.9,89.2s0,0,0,0,0,0,0,0Z"/><path class="cls-6" d="M52.12,89.59a141.85,141.85,0,0,0,17,.48.22.22,0,0,0,.06-.44l-.81-.19a.11.11,0,0,0-.09.19c-.7-.39-2.55,0-3.41,0-1.42,0-2.84,0-4.25,0-2.84-.06-5.67-.19-8.5-.36-.21,0-.21.31,0,.32Z"/><path class="cls-6" d="M43.28,84.69c5.12,2.08,9,5,13.17,8.58a.17.17,0,0,0,.24-.24C53.43,89,48.26,86,43.36,84.4c-.18-.06-.25.22-.08.29Z"/><path class="cls-6" d="M56.66,94.06,54.51,97a12.14,12.14,0,0,1-2.07.29l-1.74.13c-1.18.12-2.35.29-3.52.51a40.27,40.27,0,0,0-8,2.41c-.24.09-.13.48.1.38a50.07,50.07,0,0,1,13.54-3.1c2-.23,4.53-1.05,3.94-3.58,0-.08-.16-.07-.15,0Z"/><path class="cls-6" d="M31.89,95.81c4.25,1.63,7.56,4.11,11.35,6.51.13.08.27-.11.17-.22C40.43,99,36,96.9,32,95.4c-.26-.1-.37.31-.11.41Z"/><path class="cls-6" d="M43.32,103.05c-2.68,1.44-5.56,2.77-8.14,4.39-.13.08,0,.31.11.26a32.11,32.11,0,0,0,8.08-4.57c.06,0,0-.11,0-.08Z"/><path class="cls-6" d="M170.62,67c-21-1.06-44.24,4.53-56.11,23.41-.09.13.13.26.21.12,11.83-18.8,35-24.33,55.9-23.28a.13.13,0,0,0,0-.25Z"/><path class="cls-6" d="M115.09,90.25a60.7,60.7,0,0,0,12.64.23.15.15,0,0,0,0-.29,60.68,60.68,0,0,0-12.64,0c-.06,0-.06.09,0,.09Z"/><path class="cls-6" d="M137.49,85.21a0,0,0,0,0,0,0,0,0,0,1,0,0,0Z"/><path class="cls-6" d="M138.54,83.45a15.84,15.84,0,0,0-10.94,11c-.08.28.37.4.45.12a16,16,0,0,1,10.54-10.93c.1,0,0-.18-.05-.16Z"/><path class="cls-6" d="M127.76,95.09a53.56,53.56,0,0,0,22.84,2.32c.26,0,.27-.43,0-.41a77.47,77.47,0,0,1-22.8-2.08.09.09,0,0,0,0,.17Z"/><path class="cls-6" d="M156.1,91.3c-4.14,1.74-8.57,5.48-9.63,10.06a.14.14,0,0,0,.26.1,25.6,25.6,0,0,1,3.76-5.87,17.35,17.35,0,0,1,5.77-3.91c.21-.09.05-.47-.16-.38Z"/><path class="cls-6" d="M146.33,102.37c3.13,2.1,7,.59,10.39,2,2.92,1.19,5.54,4.25,8.88,4.14a.13.13,0,0,0,0-.25c-3.26-1-5.64-3.12-8.75-4.36-3.33-1.34-7.25.17-10.33-1.86-.23-.15-.44.22-.22.37Z"/><path class="cls-6" d="M40,68.24a38.64,38.64,0,0,1-3.16-38C42.34,18,52.75,9.11,64.17,2.7a.11.11,0,0,0-.11-.19c-11.88,6.33-22.72,16-28,28.6-4.87,11.67-4.73,27.22,3.83,37.24.07.09.21,0,.15-.11Z"/><path class="cls-6" d="M142.08,1.53c1.38,1.38,3.06,2.49,4.44,4a85,85,0,0,1,6.57,8c3.51,4.77,8,10.6,9.13,16.57,1.36,7-1,14.82-4,21-3.17,6.43-7.63,12.09-12.26,17.52-.11.12.07.3.17.18,8.82-10.34,18.31-23.41,16.5-37.84-.73-5.84-5-11.54-8.3-16.19a95.4,95.4,0,0,0-6.12-7.77c-1.82-2.07-4-3.67-5.93-5.58-.11-.11-.29.07-.17.18Z"/><path class="cls-6" d="M50.17,56.59c.77-1.61-.7-3.64-2.3-4a3.19,3.19,0,0,0-3.73,2.78.16.16,0,0,0,.32,0C45,54,46.1,52.7,47.77,53.06S49.94,55,50,56.53c0,.1.15.16.2.06Z"/><path class="cls-6" d="M44.71,54.52a2.36,2.36,0,0,0-1.88-2.81c-1.19-.19-2.74.8-2.65,2.1,0,.11.17.19.23.07.4-.93,1-1.83,2.16-1.79a2.19,2.19,0,0,1,1.91,2.4.12.12,0,0,0,.23,0Z"/><path class="cls-6" d="M41.22,52.72a3.07,3.07,0,0,0-4.07-2.57c-.24.09-.14.48.1.39A2.84,2.84,0,0,1,41,52.72c0,.16.26.16.24,0Z"/><path class="cls-6" d="M133.71,56.71a1.91,1.91,0,0,1,1-2.18,2.09,2.09,0,0,1,2.15.39.11.11,0,0,0,.15-.15,2,2,0,0,0-2.51-.48,2.14,2.14,0,0,0-1,2.48.11.11,0,0,0,.22-.06Z"/><path class="cls-6" d="M137.63,54.62c-.11-2,.48-4.22,2.29-5.34a3.61,3.61,0,0,1,5.47,1.95c0,.08.17.08.16,0-.19-2.27-2.75-3.37-4.76-2.72-2.63.86-3.59,3.58-3.39,6.13,0,.14.24.14.23,0Z"/><path class="cls-6" d="M145.37,51.26a2.34,2.34,0,0,1,3.55,0c.12.15.33-.06.21-.21a2.48,2.48,0,0,0-3.88.12.08.08,0,0,0,.12.09Z"/><path class="cls-6" d="M149.64,51.38a3.62,3.62,0,0,1,2.8-3.35A3.69,3.69,0,0,1,156,49.51c.1.12.31,0,.22-.18-2-3.21-6.69-1.49-6.74,2.05a.09.09,0,0,0,.17,0Z"/><path class="cls-6" d="M142.21,62.34c1.72-1.2,3.29-1,5.25-.71.11,0,.19-.12.08-.18-1.66-1-4-.28-5.42.75-.08.06,0,.2.09.14Z"/><path class="cls-6" d="M147.23,61.26a8.81,8.81,0,0,1,1.84-4.13c1.4-1.41,3.51-1.45,4.48.43.08.15.3,0,.27-.11-.37-1.6-2.33-2.1-3.7-1.51-2.1.9-2.68,3.25-3.14,5.25,0,.16.21.23.25.07Z"/><path class="cls-6" d="M71.68,67.76c.24.42.48.84.73,1.25a3.86,3.86,0,0,0,.71,1.06c.08.07.22,0,.18-.1a3.88,3.88,0,0,0-.66-1.1c-.27-.4-.55-.79-.84-1.18a.07.07,0,0,0-.12.07Z"/><path class="cls-6" d="M73.79,70.29A3.45,3.45,0,0,1,80,72.45a.13.13,0,0,0,.25,0c.31-3.67-4.52-5.14-6.56-2.26-.06.08.07.17.12.1Z"/><path class="cls-6" d="M79.89,72.58a2.7,2.7,0,0,1,2.28.26,3.35,3.35,0,0,1,1.32,1.69.09.09,0,0,0,.16,0c0-1.82-2.39-2.65-3.81-2-.07,0,0,.14,0,.11Z"/><path class="cls-6" d="M105,74.91c1.16-2.78,3.78-3.64,6.56-3.41.13,0,.14-.17,0-.21-2.71-1.05-5.81,1.08-6.74,3.58,0,.09.11.13.15,0Z"/><path class="cls-6" d="M111.57,70.89a4.58,4.58,0,0,1,0-3,1.66,1.66,0,0,1,2.35-.85c.18.11.32-.16.16-.28a1.89,1.89,0,0,0-2.52.5c-.87,1-.53,2.49-.17,3.66a.11.11,0,0,0,.21-.06Z"/><path class="cls-6" d="M70.08,75.11c15.7.64,31.52.15,47.23.17a.2.2,0,0,0,0-.4c-15.71,0-31.53-.54-47.23.07-.1,0-.1.15,0,.16Z"/><path class="cls-6" d="M116.44,66.66l-.44-.23s0,0,0,0l.44.22s0,0,0,0Z"/><path class="cls-6" d="M116.43,66.46a2.75,2.75,0,0,1-.17-.45c0-.12-.23,0-.14.08a1.84,1.84,0,0,1,.26.4s.07,0,.05,0Z"/><path class="cls-6" d="M41.92,60.48l.66.22a0,0,0,0,0,0,0l-.67-.22s0,0,0,0Z"/><path class="cls-6" d="M44.07,59.3a30.08,30.08,0,0,0-.61,10.52c0,.16.24.1.25,0,.23-1.72.13-3.5.23-5.23s.37-3.47.46-5.21a.17.17,0,0,0-.33-.05Z"/><path class="cls-6" d="M44.52,60c-.08,3.25.14,6.52.24,9.76,0,.3.48.3.47,0-.1-3.24-.09-6.52-.38-9.76a.17.17,0,0,0-.33,0Z"/><path class="cls-6" d="M44.44,65.35a10,10,0,0,1-.09,2.26c-.09.59-.29,1.15-.36,1.73a.15.15,0,0,0,.27.08,7.24,7.24,0,0,0,.46-4.07c0-.18-.3-.18-.28,0Z"/><path class="cls-6" d="M44.27,62.23c-.35,2.19-.44,4.45-.58,6.67,0,.28.41.28.43,0,.15-2.2.36-4.44.31-6.65,0-.09-.15-.11-.16,0Z"/><path class="cls-6" d="M47.24,60.91H47s0,0,0,0h.22s0,0,0,0Z"/><path class="cls-6" d="M46.58,60.53c.06,0,.06-.11,0-.11a.06.06,0,0,0,0,.11Z"/><path class="cls-6" d="M46.92,60c-.15.29-.31.58-.46.88-.05.08.09.16.13.07L47,60c0-.06-.06-.11-.09-.05Z"/><path class="cls-6" d="M77.84,83.61c9.45.77,19.13.28,28.6.36a.12.12,0,0,0,0-.23C97,83.65,87.3,83,77.84,83.61Z"/><path class="cls-6" d="M75.4,88.38c5.1,0,10.2-.08,15.3-.16a.08.08,0,0,0,0-.15c-5.1.05-10.2.14-15.3.23a0,0,0,0,0,0,.08Z"/><path class="cls-6" d="M63.65,96.1c16-.18,32.08-.31,48.12-.62a.08.08,0,0,0,0-.16c-16,.12-32.08.41-48.12.65-.08,0-.08.13,0,.13Z"/><path class="cls-6" d="M88.26,100.52a338.3,338.3,0,0,1,41.48,2.35c.12,0,.14-.19,0-.21a262.87,262.87,0,0,0-41.5-2.26.06.06,0,0,0,0,.12Z"/><path class="cls-6" d="M52.12,106.39a0,0,0,0,0,0,0,0,0,0,0,0,0,0Z"/><path class="cls-6" d="M51,105.47q24.72.5,49.45.66a.07.07,0,0,0,0-.13q-24.72-.5-49.45-.64a.06.06,0,0,0,0,.11Z"/><path class="cls-6" d="M93.37,112.4a432.31,432.31,0,0,0,50.78.58,0,0,0,1,0,0-.09c-17,.31-33.84.38-50.78-.65-.11,0-.11.15,0,.16Z"/><path class="cls-6" d="M41.25,119.52c18.92.54,38.1.12,57-.94a.09.09,0,0,0,0-.17c-9.5.21-19,.61-28.49.77s-19,0-28.5.18a.08.08,0,0,0,0,.16Z"/><path class="cls-6" d="M86.06,125.25a569.56,569.56,0,0,0,72.5,1.69c.14,0,.14-.23,0-.22-24.22.83-48.33,0-72.5-1.56,0,0,0,.08,0,.09Z"/><path class="cls-6" d="M133.62,56.92c-2.32.58-4.14,3.48-3,5.79,0,.06.11,0,.1,0-.61-2.41.4-5,3-5.65a.05.05,0,1,0,0-.1Z"/><path class="cls-6" d="M131.13,62.74c-2.4.08-4.91,3.07-3.69,5.44,0,.09.15,0,.14-.05a4.53,4.53,0,0,1,.5-3.34,4.14,4.14,0,0,1,3-1.92c.07,0,.08-.13,0-.13Z"/><path class="cls-6" d="M128,68.3c-4,1.89-5.9,7-3.2,10.81a.11.11,0,0,0,.18-.11c-2-4-1.09-8.37,3.12-10.52.12-.06,0-.24-.1-.18Z"/><path class="cls-6" d="M49.43,56.19a3.29,3.29,0,0,1,3.48,3.41A10.93,10.93,0,0,1,51.56,64c-.07.14.14.27.22.13.92-1.76,1.92-4,1.14-6a3.07,3.07,0,0,0-3.5-2.08c-.05,0,0,.1,0,.1Z"/><path class="cls-6" d="M52.1,63.77a3.62,3.62,0,0,1,3.73,5.48c-.11.17.16.33.27.16a3.83,3.83,0,0,0-4.05-5.82c-.12,0-.07.2.05.18Z"/><path class="cls-6" d="M56.25,68.51a5.34,5.34,0,0,1,.9,7c-.11.16.14.3.25.15a5.4,5.4,0,0,0-1-7.3c-.08-.06-.17.07-.11.13Z"/><path class="cls-6" d="M130.59,61.64c-3.4.72-6,2.91-8,5.66-2.81,3.81-5,8.19-7.32,12.29a.14.14,0,0,0,.12.21l7.7.64c.18,0,.17-.25,0-.27-1.37-.11-6.76.15-7.09-1.27-.13-.56,1.62-2.81,1.92-3.35.65-1.11,1.29-2.23,1.93-3.34,2.6-4.48,5.45-9,10.77-10.43a.07.07,0,1,0,0-.14Z"/><path class="cls-6" d="M56.77,66.8a27.74,27.74,0,0,1,9.87,7.38,23.84,23.84,0,0,1,3.69,6.22c.63,1.54.55,1.61-1.06,1.83-1.24.17-2.63-.07-3.89,0a.12.12,0,0,0,0,.24c1.94.14,3.9.12,5.84.15a.17.17,0,0,0,.16-.21c-2.19-7-7.51-13.3-14.55-15.72-.08,0-.13.1-.06.13Z"/><path class="cls-7" d="M75.56,69.84a3.39,3.39,0,0,1,2.4,1c.12.1.31,0,.22-.16a2.27,2.27,0,0,0-2.63-.89.05.05,0,0,0,0,.1Z"/><path class="cls-7" d="M81.19,73.42c.37.07.54.36.8.6.08.08.24,0,.2-.11a.91.91,0,0,0-1-.54s0,0,0,0Z"/><path class="cls-7" d="M107.11,74.05c.37-.2.65-.55,1-.78a7.66,7.66,0,0,0,1-.59c.16-.14,0-.37-.16-.38a2.64,2.64,0,0,0-2.17,1.55.18.18,0,0,0,.27.2Z"/><path class="cls-7" d="M112.78,70.21c0-.74.46-1.08.9-1.57a.14.14,0,0,0-.07-.23,1,1,0,0,0-1.06.57,1.2,1.2,0,0,0,0,1.3.14.14,0,0,0,.26-.07Z"/><path class="cls-7" d="M36.61,52.14a2.42,2.42,0,0,1,2,0,.14.14,0,0,0,.14-.24,1.79,1.79,0,0,0-2.2.07.07.07,0,0,0,.07.12Z"/><path class="cls-7" d="M46.69,54.67c.46-.23.76.09,1.08.37A.13.13,0,0,0,48,55c0-.77-1-.85-1.46-.49-.13.1,0,.28.16.21Z"/><path class="cls-7" d="M36.1,57.06a.71.71,0,0,1,1.21.09,2.46,2.46,0,0,1,.15,1.42.11.11,0,0,0,.21.06,1.62,1.62,0,0,0-.3-2.2,1,1,0,0,0-1.59.5.17.17,0,0,0,.32.13Z"/><path class="cls-7" d="M37.82,57.83a.86.86,0,0,1,1.06,0,1.14,1.14,0,0,1,.27.92.17.17,0,0,0,.32.09,1.11,1.11,0,0,0-.36-1.47,1.23,1.23,0,0,0-1.54.14c-.16.15.06.45.25.32Z"/><path class="cls-7" d="M139.42,52.41A2.77,2.77,0,0,1,140.3,51c.34-.29.94-.42,1.17-.8a.19.19,0,0,0-.07-.25c-.53-.3-1.24.31-1.56.69a2.59,2.59,0,0,0-.64,1.78.11.11,0,0,0,.22,0Z"/><path class="cls-7" d="M141,56.36a1.84,1.84,0,0,1,.71-1.23c.32-.25.78-.26,1.06-.53a.14.14,0,0,0,0-.22c-.42-.32-1.1.12-1.42.41a2.14,2.14,0,0,0-.71,1.52c0,.22.36.28.39,0Z"/><path class="cls-7" d="M142,54.58a2.31,2.31,0,0,1,.77-.9c.28-.19.63-.24.91-.43.07,0,.09-.17,0-.21-.88-.45-1.83.64-2,1.41-.05.18.23.32.32.13Z"/><path class="cls-7" d="M148.39,61a4,4,0,0,1,1.71-2.79c.14-.13,0-.33-.19-.25a3.89,3.89,0,0,0-1.7,1.3,1.74,1.74,0,0,0-.15,1.83.18.18,0,0,0,.33-.09Z"/><path class="cls-7" d="M144.18,63.77c-.13-.21.76-.72.92-.84a2.58,2.58,0,0,0,.77-.7.22.22,0,0,0-.24-.32,5.14,5.14,0,0,0-1.62,1.2c-.28.27-.36.59,0,.83.11.08.24-.06.18-.17Z"/><path class="cls-8" d="M151.43,50.52c.44-.18.72-.59,1.18-.76a4.64,4.64,0,0,1,1.43-.22.27.27,0,0,0,.13-.5,2,2,0,0,0-1.86,0c-.48.24-1.16.73-1.1,1.34a.14.14,0,0,0,.22.13Z"/><path class="cls-8" d="M136,55.11a.8.8,0,0,0-1.28.12c-.27.38.27.9.65.64.11-.07.3-.29.44-.29s.39-.31.19-.47Z"/><path class="cls-8" d="M137.18,59.58a5.36,5.36,0,0,1,1.36.54c.35.21,1.13.64,1.06,1.12s.45.51.55.15c.38-1.35-1.82-2.16-2.8-2.4-.38-.09-.55.49-.17.59Z"/><path class="cls-7" d="M35.47,24.21a26.8,26.8,0,0,1,9.47-12.68,0,0,0,1,0,0-.07,26,26,0,0,0-9.55,12.72c0,.08.09.11.12,0Z"/><path class="cls-7" d="M32.3,23.18A24.39,24.39,0,0,1,39,11.3c.12-.13-.06-.29-.19-.19a19.39,19.39,0,0,0-6.65,12c0,.1.13.14.15,0Z"/><path class="cls-7" d="M150.63,4.86a15.42,15.42,0,0,1,8.26,8.65c.07.16.31.1.27-.07a13.29,13.29,0,0,0-8.4-8.89c-.18-.07-.31.23-.13.31Z"/><path class="cls-7" d="M166.5,16.7c-.12-1.34-.19-2.68-.2-4a.5.5,0,0,0-1,0c0,1.34.08,2.68.2,4,.05.64,1.05.64,1,0Z"/><path class="cls-7" d="M163,56.07a24.82,24.82,0,0,1-2.3,2.61c-.86.78-1.83,1.41-2.73,2.13-.12.09,0,.32.15.26a11.47,11.47,0,0,0,5.23-4.73c.12-.21-.19-.47-.35-.27Z"/><path class="cls-7" d="M128.11,83.44A49.53,49.53,0,0,1,140,76.73a69.47,69.47,0,0,1,12.45-3.15.11.11,0,0,0,0-.21c-8.77.21-17.68,4.53-24.43,9.87-.11.09,0,.29.15.2Z"/><path class="cls-7" d="M140,89.28a31.48,31.48,0,0,1,8.83-6.94c3.76-1.88,7.47-2.42,11.57-3a.17.17,0,0,0,0-.34c-7.6-.5-16.11,4.11-20.56,10.11-.07.09.08.2.16.12Z"/><path class="cls-7" d="M156.82,97.8c2.41-3.14,5.55-4.56,9.36-5.21.23,0,.17-.4-.05-.4a12.08,12.08,0,0,0-9.57,5.46c-.11.16.14.3.26.15Z"/><path class="cls-7" d="M39.18,76.62c5.18-1.29,10,.3,14.09,3.47.14.1.29-.11.18-.23-3.65-3.84-9.36-4.8-14.31-3.39-.1,0,0,.17,0,.15Z"/><path class="cls-7" d="M34.91,87.2c4.39-.45,7.59,1,10.47,4.28.15.17.41,0,.31-.23-2-3.58-6.95-5.42-10.82-4.33-.15,0-.13.3,0,.28Z"/><path class="cls-7" d="M114.86,67.07a5.65,5.65,0,0,1,3.06-2.61c1.25-.42,2.26-.1,3.5-.06.34,0,.39-.42.16-.59-2.39-1.74-6.31.69-7.14,3.08-.09.25.28.4.42.18Z"/><path class="cls-7" d="M121.75,64.13a4.9,4.9,0,0,1,3.14-2.71c1.71-.46,2.94.21,4.41,1a.33.33,0,0,0,.4-.52c-2.49-2.92-7.13-1.06-8.44,2-.13.32.33.61.49.28Z"/><path class="cls-7" d="M73.88,69.54A7.55,7.55,0,0,0,65,65.92c-.57.17-.32,1.07.25.89a7.05,7.05,0,0,1,8.1,3.06.32.32,0,0,0,.55-.33Z"/><path class="cls-7" d="M65.22,66.49c-1.41-3.11-6.63-4.32-9.14-1.86-.33.33.09.79.47.61,3.15-1.47,5.92-1.14,8.31,1.53.19.21.46-.06.36-.28Z"/><path class="cls-7" d="M31.57,38.92A16.55,16.55,0,0,1,30.72,49c-.07.18.19.24.28.12a9.86,9.86,0,0,0,.88-10.37.17.17,0,0,0-.31.13Z"/><path class="cls-7" d="M28.63,43.2c-.78.24-.32,1.4.45,1.11.92-.34.17-1.69-.49-1.19a.19.19,0,0,0,0,.34c.19,0,.22.5.09.29a.28.28,0,0,1,0-.4.1.1,0,0,0-.11-.15Z"/><path class="cls-7" d="M29.56,41a6.71,6.71,0,0,1,.93,2.67,11.25,11.25,0,0,1-.32,2.58c0,.15.15.3.28.16,1.37-1.47.9-4.41-.52-5.7a.24.24,0,0,0-.37.29Z"/><path class="cls-7" d="M163.25,24.83c2,3.34,3,7,1.77,10.82-.47,1.52-1.38,2.86-1.7,4.43a10.18,10.18,0,0,0,.12,3.81c0,.13.22.1.22,0a16.52,16.52,0,0,1,1.44-7,12.91,12.91,0,0,0,1-4.1,11.74,11.74,0,0,0-2.51-8.2c-.15-.17-.41,0-.3.23Z"/><path class="cls-7" d="M165.88,38.75c-2.6,3.25-1.69,8.75,2.78,9.77a.16.16,0,0,0,.12-.3c-3.43-2-5.07-5.68-2.6-9.24.12-.18-.17-.4-.3-.23Z"/><path class="cls-7" d="M167.39,25c-1.4,3.51-.76,8.13,2.28,10.64.16.13.45,0,.31-.24-2.39-3.1-3.49-6.44-2.29-10.31.07-.2-.22-.27-.3-.09Z"/><path class="cls-7" d="M168.64,37.41c1.51,1.52,1.85,3.35,2.13,5.38,0,.16.25.13.3,0,.71-2.09-.56-4.37-2.18-5.63-.17-.13-.41.09-.25.25Z"/><path class="cls-7" d="M167,41.08c-.38,1.13-.09,3.13,1.51,3a1.15,1.15,0,0,0,1.07-.93c.12-.71-.42-1.45-.72-2-.09-.16-.3,0-.28.11a6.15,6.15,0,0,0,.5,1.18c.22.6,0,1.24-.75,1.18-1.16-.09-1.1-1.65-1.14-2.47a.1.1,0,0,0-.19,0Z"/><path class="cls-7" d="M163.13,47c0,3.67,4.9,5,7.83,4.63.2,0,.2-.36,0-.4-3.35-.54-6.05-.81-7.5-4.28-.07-.16-.33-.16-.33.05Z"/><path class="cls-8" d="M78.88,83.11c4.81.27,9.68.08,14.5,0s9.77.31,14.5-.26a.21.21,0,0,0,0-.41c-4.74-.49-9.73,0-14.5,0s-9.69,0-14.5.3a.17.17,0,0,0,0,.33Z"/><path class="cls-8" d="M73.13,94.39c12.55.37,25.2.27,37.75,0a.34.34,0,0,0,0-.68c-12.55-.14-25.2-.13-37.75.35a.16.16,0,0,0,0,.31Z"/><path class="cls-8" d="M46.38,111c7.19.51,14.55,0,21.75-.06l22.25-.27,21.76-.28,10.87-.14a105.09,105.09,0,0,0,11.37-.26.36.36,0,0,0,0-.72,101.08,101.08,0,0,0-10.87,0l-10.88.15-22.25.31-21.75.31c-7.37.11-14.91-.18-22.25.53a.2.2,0,0,0,0,.39Z"/><path class="cls-8" d="M45.36,122.66c8.88-.17,17.78-1.07,26.66-1.49,9.06-.43,18.12-.71,27.19-.9,18-.37,35.94,0,53.92.4.77,0,.77-1.16,0-1.2-18.11-.84-36.3-.78-54.42-.37-8.9.2-17.8.57-26.69,1s-17.93.74-26.74,2c-.33,0-.24.57.08.57Z"/><path class="cls-8" d="M64.38,102.44c9,.65,18.19.53,27.25.7s18.16.39,27.25.48a.37.37,0,0,0,0-.74c-9.08-.22-18.17-.34-27.25-.48s-18.19-.58-27.25-.26a.15.15,0,0,0,0,.3Z"/><path class="cls-8" d="M157.88,116.4a79.81,79.81,0,0,0,8-.55c.19,0,.14-.31,0-.32a79.44,79.44,0,0,0-8,.45c-.26,0-.27.43,0,.42Z"/><path class="cls-8" d="M36.88,117.16a44.06,44.06,0,0,0,6.5-.08.14.14,0,0,0,0-.28,44.06,44.06,0,0,0-6.5-.08.22.22,0,0,0,0,.44Z"/><path class="cls-8" d="M47.38,104.92a31.43,31.43,0,0,0,4.55-.31c.22,0,.16-.37,0-.38a30.83,30.83,0,0,0-4.5.22c-.29,0-.3.47,0,.47Z"/><path class="cls-8" d="M133.88,103.67c1.67-.07,3.35-.08,5-.29.17,0,.19-.27,0-.27-1.66,0-3.34.09-5,.18-.24,0-.24.39,0,.38Z"/><path class="cls-8" d="M72.63,78.89a37.94,37.94,0,0,0,5-.2c.28,0,.29-.45,0-.44a40.47,40.47,0,0,0-5,.31c-.2,0-.14.32,0,.33Z"/><path class="cls-8" d="M91.13,79c6.81.34,13.7.6,20.51.74.19,0,.24-.3,0-.33a91.82,91.82,0,0,0-20.56-.7.15.15,0,0,0,0,.29Z"/><path class="cls-7" d="M62,64.19c-.29-11,1.41-22.14,6.51-32a.16.16,0,0,0-.25-.19c-3.51,3.43-4.56,9.78-5.46,14.36a75,75,0,0,0-1.26,17.82.23.23,0,0,0,.46,0Z"/><path class="cls-7" d="M73.53,68.65c-.62-5.81-1.1-11.38-.23-17.21a54.11,54.11,0,0,1,5.3-16.38c.17-.34-.33-.64-.51-.3-5.23,9.94-7.84,22.9-5,33.95.06.22.43.18.41-.06Z"/><path class="cls-7" d="M112.87,66.94c.17-9.49-.09-19.48-2.11-28.79,0-.14-.28-.12-.26,0,.91,9.63,2,19.05,2,28.75a.19.19,0,0,0,.38,0Z"/><path class="cls-7" d="M121.64,35.13c1.9,8.54,3,16.91,2.28,25.68,0,.26.38.26.4,0,.67-8.54.29-17.55-2.18-25.82a.26.26,0,0,0-.5.14Z"/><path class="cls-7" d="M69,31.88a7.38,7.38,0,0,1-3.85-.58c-1.14-.51-1.88-1.48-2.94-2.05-.21-.11-.52.08-.43.33.89,2.53,4.93,3.29,7.22,3,.44,0,.45-.74,0-.69Z"/><path class="cls-7" d="M62.37,29.53c-3.39,1.34-6.22-.31-6.81-3.9,0-.28-.42-.17-.45.06-.45,3.81,4.43,6.43,7.39,4.06.1-.08,0-.27-.13-.22Z"/><path class="cls-7" d="M54.28,23.15A30.11,30.11,0,0,0,51.92,19c-.15-.2-.53-.1-.43.18a29.09,29.09,0,0,0,2.2,4.35c.2.39.8,0,.59-.35Z"/><path class="cls-7" d="M51.82,19.39a2.34,2.34,0,0,1-3.28-.78c-.68-.93-.68-2.2-1.35-3.08-.12-.16-.4-.17-.45.05-.6,2.64,2.9,6.71,5.36,4.17.17-.18-.07-.52-.28-.36Z"/><path class="cls-7" d="M52.6,19.11a5.08,5.08,0,0,0,.87,4.27,4.32,4.32,0,0,0,3.4,1.81.31.31,0,0,0,.09-.6,6.46,6.46,0,0,1-2.83-1.52,4.55,4.55,0,0,1-1-3.82c0-.32-.42-.46-.5-.14Z"/><path class="cls-7" d="M78,35.24a.05.05,0,0,0,0-.1.05.05,0,1,0,0,.1Z"/><path class="cls-7" d="M78.92,34.48l.94-1a3.92,3.92,0,0,0,.77-1,.14.14,0,0,0-.19-.19,3.72,3.72,0,0,0-.9.83l-1,1c-.2.22.13.55.33.33Z"/><path class="cls-7" d="M76.93,33.86c.72-.69,1.44-1.37,2.15-2.07a7.89,7.89,0,0,0,1.82-2,.15.15,0,0,0-.2-.2,7.71,7.71,0,0,0-2,1.82c-.7.71-1.38,1.43-2.07,2.15a.22.22,0,0,0,.31.31Z"/><path class="cls-7" d="M71.52,32.65c-.18-1-.49-1.91-.75-2.86a7.87,7.87,0,0,0-.85-2.5.27.27,0,0,0-.5.13,8.58,8.58,0,0,0,.77,2.73c.31.89.58,1.8,1,2.66.1.22.41,0,.37-.16Z"/><path class="cls-7" d="M71.81,29.74l.68,1.74c.07.17.34.1.28-.08l-.56-1.77c-.09-.25-.5-.13-.4.11Z"/><path class="cls-7" d="M68.77,27.83a3.57,3.57,0,0,0,3,1.58c1,0,2.4-.48,2.73-1.52.05-.16-.12-.35-.28-.29-.81.32-1.38.92-2.3,1a3.47,3.47,0,0,1-2.71-1.1c-.22-.2-.61.06-.43.33Z"/><path class="cls-7" d="M73.84,28a4.63,4.63,0,0,0,3.09,1.93c1.17.17,2.8-.09,3.45-1.18a.19.19,0,0,0-.21-.27c-1.1.29-1.92.9-3.13.78a4.13,4.13,0,0,1-2.78-1.58c-.19-.22-.59.08-.42.32Z"/><path class="cls-7" d="M79.83,28.57a3.38,3.38,0,0,0,1.42,2.83,3.17,3.17,0,0,0,3.27.41.27.27,0,0,0-.14-.51,5.08,5.08,0,0,1-2.71-.53,4.08,4.08,0,0,1-1.55-2.24.15.15,0,0,0-.29,0Z"/><path class="cls-7" d="M85.68,30.93c2.38,3.52,8.66,5.43,11.58,1.4a.31.31,0,0,0-.35-.46c-1.91.77-3.5,1.72-5.65,1.52a7.67,7.67,0,0,1-5.12-2.82c-.22-.25-.65.08-.46.36Z"/><path class="cls-7" d="M97.22,32.35c1.82,1.92,5.32,3.17,7.66,1.41a.27.27,0,0,0-.21-.49c-2.59.42-4.9.55-6.91-1.46a.38.38,0,0,0-.54.54Z"/><path class="cls-7" d="M122.14,35.57A11.13,11.13,0,0,1,123.9,30a.25.25,0,0,0-.39-.29,7.37,7.37,0,0,0-1.9,5.88c0,.33.53.34.53,0Z"/><path class="cls-7" d="M118.44,34.05c.64-1,1.16-2.1,1.7-3.16A12.26,12.26,0,0,0,121.43,28c0-.22-.24-.44-.41-.24a13,13,0,0,0-1.63,3c-.48,1-1,2.06-1.39,3.13-.09.27.29.4.44.19Z"/><path class="cls-7" d="M117.52,34.11c-.11-1-.35-1.92-.55-2.87a9.23,9.23,0,0,0-.79-2.82.26.26,0,0,0-.48.13,8.5,8.5,0,0,0,.57,2.65c.28,1,.52,2,.89,3,.06.17.38.17.36,0Z"/><path class="cls-7" d="M112.53,30.32a37.06,37.06,0,0,0,.66,4.2c.08.33.63.27.59-.08a37.67,37.67,0,0,0-.83-4.18c-.06-.23-.45-.19-.42.06Z"/><path class="cls-7" d="M112.71,34.06c0,.49,0,1,0,1.45l.36-.28a6.65,6.65,0,0,1-2.55-1.09,5.92,5.92,0,0,1-1-.9c-.3-.35-.45-.7-.86-.92a.33.33,0,0,0-.49.28c0,.92,1.07,1.79,1.76,2.25a5.4,5.4,0,0,0,3,.94.29.29,0,0,0,.27-.36c-.08-.45-.12-.91-.16-1.37,0-.26-.42-.27-.41,0Z"/><path class="cls-7" d="M108,35.91a4.09,4.09,0,0,1,1.48,1.29c.34.5.39,1.12.7,1.61a.24.24,0,0,0,.43-.06,2.83,2.83,0,0,0-.68-1.92,4.47,4.47,0,0,0-1.65-1.4c-.32-.16-.6.32-.28.48Z"/><path class="cls-7" d="M103.85,34a4.74,4.74,0,0,0,.28,4.29c.66,1.09,2.07,2.26,3.42,2,.12,0,.12-.18,0-.24-1-.65-2.09-.88-2.86-2a4.5,4.5,0,0,1-.54-4c0-.19-.25-.33-.33-.14Z"/><path class="cls-7" d="M106.48,40.37a4.13,4.13,0,0,0,2,1.7,2.88,2.88,0,0,0,2.36.15.25.25,0,0,0-.06-.45c-.63-.23-1.37-.07-2-.3a4.91,4.91,0,0,1-2-1.34c-.15-.16-.42,0-.31.24Z"/><path class="cls-7" d="M122.63,36.16c5.7.74,12.74-3.9,13.56-9.8,0-.24-.29-.44-.44-.18-1.33,2.36-2.42,4.64-4.58,6.4-2.54,2.07-5.45,2.71-8.59,3.18-.25,0-.15.37,0,.4Z"/><path class="cls-7" d="M135.76,26.41c3.83,0,7.78-3.63,7.18-7.65,0-.22-.38-.21-.42,0-.38,1.8-.72,3.5-2,4.9A8.37,8.37,0,0,1,135.71,26c-.23,0-.17.41,0,.41Z"/><path class="cls-7" d="M143.26,18.84a4.18,4.18,0,0,0,3.57-5.95.26.26,0,0,0-.48.2c.69,2.51-.46,4.85-3.15,5.29-.26,0-.2.48.06.46Z"/><path class="cls-7" d="M147.21,14a5.46,5.46,0,0,0,3.26-4.17c.06-.35-.46-.51-.53-.15a5.88,5.88,0,0,1-2.91,4c-.21.12,0,.41.18.32Z"/><path class="cls-7" d="M111.07,29.66c2.24,1.15,5.75.44,6.24-2.43a.24.24,0,0,0-.43-.18c-1.42,1.87-3.18,3.1-5.63,2.18-.25-.09-.41.31-.18.43Z"/><path class="cls-7" d="M120,26.65a2,2,0,0,0,1.45,1.5,1.68,1.68,0,0,0,1.86-.65c.06-.12-.05-.32-.2-.26a3,3,0,0,1-1.34.38,1.61,1.61,0,0,1-1.36-1.09.21.21,0,0,0-.41.12Z"/><path class="cls-7" d="M122.92,27.18a2.22,2.22,0,0,0,.27,2.92A2,2,0,0,0,126,30a.24.24,0,0,0-.27-.35,2.27,2.27,0,0,1-2.09,0,1.73,1.73,0,0,1-.46-2.26.17.17,0,0,0-.29-.17Z"/><path class="cls-7" d="M107.15,35.82A5.23,5.23,0,0,0,109,34c.35-.55.91-1.54.56-2.18a.2.2,0,0,0-.31,0c-.43.44-.44,1.25-.75,1.8a4.64,4.64,0,0,1-1.68,1.7.3.3,0,0,0,.3.52Z"/><path class="cls-7" d="M72,30a6.37,6.37,0,0,0,.61,1.36,2.74,2.74,0,0,0,.75,1.08.13.13,0,0,0,.2-.11,3,3,0,0,0-.47-1.25,6.25,6.25,0,0,0-.77-1.26c-.13-.15-.36,0-.32.18Z"/><path class="cls-7" d="M73.6,32.24l1.21-1.61a4.07,4.07,0,0,0,.93-1.55c0-.13-.1-.25-.23-.17a3.81,3.81,0,0,0-1.05,1.38l-1.1,1.81c-.09.16.14.28.24.14Z"/><path class="cls-7" d="M76.59,33.24A6.15,6.15,0,0,1,77,31.5a9,9,0,0,1,.89-1.4c.21-.31-.24-.61-.49-.38a4.37,4.37,0,0,0-1.23,3.47c0,.21.37.31.41.05Z"/><path class="cls-7" d="M68.88,33.67a29.6,29.6,0,0,0-2-5.55.29.29,0,0,0-.52.22,29.54,29.54,0,0,0,2.08,5.45c.1.26.54.16.44-.12Z"/><path class="cls-7" d="M65,28c2,1.65,5.25,1.69,6.81-.62.17-.25-.2-.5-.41-.31-1.79,1.6-4,2.17-6,.57-.26-.2-.62.15-.36.36Z"/><path class="cls-7" d="M67.79,44.89a9.07,9.07,0,0,0-1.56,5.92c0,.07.1.07.1,0A14.1,14.1,0,0,1,68,45a.1.1,0,0,0-.17-.1Z"/><path class="cls-7" d="M72.5,46.1a13.09,13.09,0,0,1-.32,5.32.1.1,0,0,0,.18.08,7.81,7.81,0,0,0,.4-5.47c0-.17-.3-.1-.26.07Z"/><path class="cls-7" d="M68.34,47.39a2.51,2.51,0,0,0,.46,2.5.11.11,0,0,0,.18-.13,3.24,3.24,0,0,1-.32-2.28c.06-.2-.26-.29-.32-.09Z"/><path class="cls-7" d="M70.62,48.4a1.13,1.13,0,0,1,.17,1,.12.12,0,0,0,.22.09,1.16,1.16,0,0,0-.14-1.26c-.11-.15-.36,0-.25.15Z"/><path class="cls-7" d="M114,50a6.87,6.87,0,0,0,.15,5.46c0,.1.2,0,.18-.07a11.05,11.05,0,0,1-.13-5.33A.1.1,0,0,0,114,50Z"/><path class="cls-7" d="M119.29,50.12a7.63,7.63,0,0,1,.51,5.17c0,.06.07.11.1,0a5.66,5.66,0,0,0-.34-5.37.16.16,0,0,0-.27.16Z"/><path class="cls-7" d="M115.37,52a1.72,1.72,0,0,0,.45,2.19c.09,0,.18-.06.14-.14a2.11,2.11,0,0,1-.27-1.91c.08-.19-.24-.32-.32-.14Z"/><path class="cls-7" d="M117.55,52.22a6.5,6.5,0,0,0,.35,1.63c0,.1.18,0,.19-.05a6.75,6.75,0,0,0-.26-1.66c0-.19-.31-.11-.28.08Z"/><path class="cls-7" d="M113.21,38.44a35.94,35.94,0,0,0,.44,5.78c0,.12.19.08.2,0a35.75,35.75,0,0,0-.24-5.75c0-.26-.42-.26-.4,0Z"/><path class="cls-7" d="M119.53,38.42a18,18,0,0,0,1,4.65c0,.11.23.1.22,0a18.18,18.18,0,0,0-1-4.65.09.09,0,0,0-.17,0Z"/><path class="cls-7" d="M70.54,35.69a28.46,28.46,0,0,0-1.91,4.21c0,.12.13.18.2.08a28.93,28.93,0,0,0,2-4.09c.1-.22-.22-.42-.34-.2Z"/><path class="cls-7" d="M74,37.25a27,27,0,0,0-1.57,4.64.13.13,0,0,0,.23.1,26.75,26.75,0,0,0,1.68-4.64c.07-.22-.26-.31-.34-.1Z"/><path class="cls-7" d="M70.62,60.69l.13.88s0,0,0,0l-.13-.87s0,0,0,0Z"/><path class="cls-7" d="M62,16c.21,2.14,3.1,4,4.91,2.31.2-.17,0-.47-.24-.42A3.75,3.75,0,0,1,64,18a3.07,3.07,0,0,1-1.63-2c-.07-.22-.45-.19-.42.06Z"/><path class="cls-7" d="M66.63,17.4c.91,2.15,4.73,2.89,5.91.61.09-.18-.06-.46-.29-.38a6.8,6.8,0,0,1-2.62.82A4.18,4.18,0,0,1,67,17.18c-.15-.12-.46,0-.37.22Z"/><path class="cls-7" d="M134.88,10.8a2.12,2.12,0,0,1-1.4,1.14,4.47,4.47,0,0,1-1.63-.11.31.31,0,0,0-.22.52,2.15,2.15,0,0,0,2.18.17A2.76,2.76,0,0,0,135.36,11c.11-.27-.35-.47-.48-.2Z"/><path class="cls-7" d="M132.16,11.61a5.9,5.9,0,0,1-2.33.78,4,4,0,0,1-1.8-.61c-.19-.09-.47.07-.39.31.67,2.08,3.63.71,4.77-.06a.24.24,0,0,0-.25-.42Z"/><path class="cls-7" d="M95,19.76a3.08,3.08,0,0,0,2.31,1.08,22.58,22.58,0,0,0,4.93,0c.19,0,.29-.34.06-.38-2-.31-5.57.69-7-1-.16-.18-.4.07-.26.25Z"/><path class="cls-7" d="M85.07,25.05A4.4,4.4,0,0,0,89,27.32c.22,0,.32-.38.06-.44a7.61,7.61,0,0,1-2-.57,4.73,4.73,0,0,1-1.69-1.45c-.14-.2-.46,0-.33.19Z"/><path class="cls-7" d="M89.72,26.11c1.19,2,3.94,3,5.91,1.43.18-.15,0-.46-.23-.39-2,.67-4,.56-5.27-1.28-.17-.25-.57,0-.41.24Z"/><path class="cls-7" d="M77.26,4c1.77-1.15,3.37-.52,5,.49a.19.19,0,0,0,.26-.25C81.41,2.46,78.57,2.55,77,3.61c-.26.17,0,.6.25.43Z"/><path class="cls-7" d="M82.17,4.25a3.84,3.84,0,0,1,2.71-.11A6.08,6.08,0,0,1,87.1,5.71a.18.18,0,0,0,.3-.18C86.72,3.42,83.76,3,82,3.83c-.24.11-.07.52.17.42Z"/><path class="cls-7" d="M114,6c1.39,1.28,4.45,1.93,5.75.14.1-.13-.06-.3-.2-.26a9.48,9.48,0,0,1-2.56.72,4.59,4.59,0,0,1-2.78-.87c-.16-.11-.36.14-.21.27Z"/><path class="cls-7" d="M119.75,5.78c1.38.86,3.86,1.25,5-.22a.2.2,0,0,0-.19-.33,13.75,13.75,0,0,1-2.07.64A4.37,4.37,0,0,1,120,5.43c-.24-.11-.43.22-.21.35Z"/></svg>