<svg id="carracters" xmlns="http://www.w3.org/2000/svg" viewBox="0 0 198.43 40.27"><defs><style>.cls-1{fill:#fff;}.cls-2{fill:#6e6e6e;opacity:0.5;}.cls-3{fill:#231f20;}</style></defs><path d="M136.08,14.35l.13-.07.63.6.22-3.72c.14-.05.18,0,.17.13,0,.57-.07,1.14-.1,1.72s-.07,1.12-.1,1.68a.31.31,0,0,0,0,.19l.53-.67.17.18-.74.75c-.11.12-.18,0-.25,0l-.7-.72Z"/><path d="M176.33,29.75c.59-.27,1.2-.53,1.78-.82a10.78,10.78,0,0,0,3.42-2.61,7.88,7.88,0,0,0,1.87-4.89c0-1.07,0-2.14-.06-3.2-.09-1.64-.24-3.28-.37-4.91v-.19l2.19.1a.35.35,0,0,1-.3.38c-.19.06-.21.16-.2.33.09,1.21.19,2.42.24,3.63s.1,2.57.07,3.85a9,9,0,0,1-2,5.7A11.88,11.88,0,0,1,179.3,30c-.59.31-1.2.58-1.81.87-.12.06-.18,0-.27-.07C176.93,30.44,176.62,30.09,176.33,29.75Z"/><path d="M175.69,14.49a26.71,26.71,0,0,0-.62,7l1.57-3.08.79.86s0,.14,0,.2c-.38.69-.77,1.38-1.14,2.08-.18.33-.34.67-.5,1a2.49,2.49,0,0,0-.19,1.64l-1.47.26c-.13-.58-.27-1.15-.37-1.72a18,18,0,0,1,0-5c.14-1.32.33-2.63.51-4l2.08.35C176.24,14.34,176.13,14.41,175.69,14.49Z"/><path class="cls-1" d="M25.23,29.75c.59-.27,1.2-.53,1.78-.82a10.78,10.78,0,0,0,3.42-2.61,7.83,7.83,0,0,0,1.87-4.89c0-1.07,0-2.14-.06-3.2-.09-1.64-.24-3.28-.37-4.91v-.19l2.2.1a.36.36,0,0,1-.31.38c-.19.06-.21.16-.2.33.09,1.21.19,2.42.24,3.63s.11,2.57.07,3.85a9,9,0,0,1-2,5.7A12,12,0,0,1,28.21,30c-.6.31-1.21.58-1.81.87-.13.06-.19,0-.28-.07C25.83,30.44,25.53,30.09,25.23,29.75Z"/><path class="cls-1" d="M24.6,14.49a26.71,26.71,0,0,0-.63,7l1.57-3.08.79.86s0,.14,0,.2c-.38.69-.77,1.38-1.14,2.08-.18.33-.34.67-.49,1a2.43,2.43,0,0,0-.2,1.64L23,24.43c-.13-.58-.27-1.15-.36-1.72a18,18,0,0,1-.06-5c.14-1.32.34-2.63.51-4l2.08.35C25.14,14.34,25,14.41,24.6,14.49Z"/><path class="cls-2" d="M140.16,29.75c.59-.27,1.19-.53,1.78-.82a10.78,10.78,0,0,0,3.42-2.61,7.82,7.82,0,0,0,1.86-4.89c0-1.07,0-2.14-.05-3.2-.1-1.64-.25-3.28-.37-4.91a1.2,1.2,0,0,1,0-.19l2.19.1a.36.36,0,0,1-.3.38c-.19.06-.22.16-.2.33.08,1.21.18,2.42.23,3.63s.11,2.57.08,3.85a9,9,0,0,1-2,5.7A11.88,11.88,0,0,1,143.13,30c-.59.31-1.21.58-1.81.87a.19.19,0,0,1-.27-.07C140.76,30.44,140.45,30.09,140.16,29.75Z"/><path d="M138,13.76l2.05.35a.43.43,0,0,1-.41.33c-.15,0-.2.09-.23.23a26.47,26.47,0,0,0-.54,3.75c-.07.88-.07,1.77-.09,2.65,0,.13,0,.25,0,.38l1.58-3.09c.28.31.54.58.78.86,0,0,0,.15,0,.21-.42.78-.85,1.55-1.26,2.33a8.8,8.8,0,0,0-.48,1.09,2.35,2.35,0,0,0-.09,1.32l-1.45.25c-.12-.53-.26-1.05-.35-1.58a17.06,17.06,0,0,1-.09-4.89c.14-1.33.35-2.66.53-4C138,13.9,138,13.84,138,13.76Z"/><path d="M186.13,12.72c.15-.08.17,0,.18.13,0,1,0,1.93,0,2.9,0,.21,0,.43,0,.64h.06c.16-.17.31-.33.46-.51s.14-.09.21,0c-.23.26-.46.53-.7.79a.19.19,0,0,1-.19,0L185.4,16l.11-.13.68.59Z"/><path d="M139.82,24.36h-.23V24.3l.31-.29c.08-.08.14-.05.19,0s.11.22.18.36l-.23.06a1.74,1.74,0,0,0,.44,1.26l-.1.13-1.85-1.26.09-.15,1.37.93Z"/><polygon class="cls-3" points="155.95 20.7 161.98 21.2 155.95 21.7 155.95 20.7"/><polygon class="cls-3" points="159.39 18.76 161.99 21.21 158.81 19.58 159.39 18.76"/><polygon class="cls-3" points="158.78 22.83 161.99 21.19 159.35 23.65 158.78 22.83"/></svg>