<svg id="illustration" xmlns="http://www.w3.org/2000/svg" viewBox="0 0 198.43 118.54"><defs><style>.cls-1{fill:#fee829;}.cls-2{fill:#fbb88b;}.cls-3{fill:#0c173d;}.cls-4{fill:#92b3c1;}.cls-5{fill:#6abd45;}.cls-6{fill:#fff;}.cls-7{fill:#86888a;}.cls-8{fill:#69838f;}.cls-9{fill:#3b7828;}.cls-10{fill:#656668;}.cls-11{fill:#88644b;}.cls-12{fill:#000020;}.cls-13{fill:#e6d31b;}.cls-14{fill:#6fcacb;}.cls-15{fill:#fff274;}.cls-16{fill:#010101;}</style></defs><path class="cls-1" d="M135.35,15.54c-3.09-.8-5,2.93-4.41,5.54.79,3.24,4.16,4.89,7.3,4.34s5.53-3.17,4.83-6.45c-.77-3.58-4.58-5.17-7.87-4-2,.72-1.17,4,.9,3.28,1.37-.48,3.13-.52,4,.89,1.08,1.78-.61,3.31-2.27,3.68A3.69,3.69,0,0,1,133.5,21c-.83-1.91.69-2.79,2.09-3.64a1,1,0,0,0-.24-1.82Z"/><path class="cls-1" d="M135.86,17.07c-1.12-.22-2,.77-2.4,1.68A3.37,3.37,0,0,0,134,22.3a4.07,4.07,0,0,0,6.68-1.4,3,3,0,0,0-1.66-3.67,3.46,3.46,0,0,0-4,.83c-.87,1-1.4,3.84.66,3.66.7-.07,1.11-.62,1.55-1.1s.41-.46.8-.48c-.36,0,.11-.19-.14,0s-.24.39-.5.52a1.45,1.45,0,0,1-1.27,0c-1.17-.63-.29-1.89.08-2.69a.61.61,0,0,0-.36-.88Z"/><path class="cls-1" d="M130.47,25.2a1.51,1.51,0,0,0-.37,0,.14.14,0,0,0,0,.27,1.14,1.14,0,0,0,.37,0,.12.12,0,0,0,0-.23Z"/><path class="cls-1" d="M129,24.24a29.55,29.55,0,0,0-4.31,3.67c-1.49,1.43-3,2.84-4.4,4.4A.48.48,0,0,0,121,33c1.61-1.3,3.08-2.79,4.56-4.23a30,30,0,0,0,3.82-4.15.27.27,0,0,0-.36-.37Z"/><path class="cls-1" d="M131.45,26c-1.28,1.56-2.52,3.15-3.77,4.73a27.24,27.24,0,0,0-3.23,4.37.27.27,0,0,0,.42.32,29.83,29.83,0,0,0,3.85-4.65c1.13-1.42,2.25-2.85,3.34-4.31.25-.34-.33-.79-.61-.46Z"/><path class="cls-1" d="M137,27.61c-1.05,3.9-1.23,8.21-1.69,12.21-.07.62.9.62,1,0,.45-4,1.24-8.16,1.1-12.16a.19.19,0,0,0-.38-.05Z"/><path class="cls-1" d="M140.12,27a9.43,9.43,0,0,0,1.12,3A20.31,20.31,0,0,0,143,33.59a.53.53,0,0,0,1-.41,19,19,0,0,0-1.52-3.31,10.81,10.81,0,0,0-1.77-3.1.31.31,0,0,0-.52.22Z"/><path class="cls-1" d="M143.23,25.26a19.53,19.53,0,0,0,3.6,4.47,41.15,41.15,0,0,0,4.48,4.38.57.57,0,0,0,.81-.8c-1.36-1.58-3-3-4.39-4.48a28,28,0,0,0-4.08-4c-.28-.19-.55.17-.42.43Z"/><path class="cls-1" d="M122.44,15.22c-1.38,1.85-2.23,4.81-1,6.93a.33.33,0,0,0,.6-.25c-.38-2.39-.67-4.3.72-6.47.15-.23-.21-.42-.36-.21Z"/><path class="cls-1" d="M149.78,13.17a13.8,13.8,0,0,1,1.06,2.76c.21.88.17,1.79.39,2.66a.39.39,0,0,0,.74,0c.63-1.88-.42-4.42-1.6-5.87-.28-.35-.76.09-.59.45Z"/><path class="cls-1" d="M133.48,6.65c4.58-.72,8.47.29,12.52,2.4.48.25,1.08-.42.61-.8A13.7,13.7,0,0,0,133.39,6.3a.18.18,0,0,0,.09.35Z"/><path class="cls-1" d="M130.69,15.13a7.28,7.28,0,0,1,2.55-1.31,15.24,15.24,0,0,1,2.86-.21c.27,0,.42-.4.15-.54-2-1-4.57.15-5.79,1.83-.09.13.1.32.23.23Z"/><path class="cls-1" d="M143.87,16.89a18.17,18.17,0,0,1,.73,2,13.87,13.87,0,0,0,.22,2.16.33.33,0,0,0,.6.07,3,3,0,0,0,.06-2.33,3.91,3.91,0,0,0-1.22-2.16c-.16-.13-.47,0-.39.23Z"/><path class="cls-1" d="M128.27,34.43a6.06,6.06,0,0,0,4.1,1.08.37.37,0,0,0,0-.72c-.62-.21-1.32-.17-2-.33a16,16,0,0,1-1.88-.63c-.37-.13-.56.41-.26.6Z"/><path class="cls-1" d="M117.05,26c-.21-1.76-.73-3.43-.79-5.21a19.74,19.74,0,0,1,.8-5.91.27.27,0,0,0-.49-.2c-1.83,3.33-2.34,8.31.17,11.44a.18.18,0,0,0,.31-.12Z"/><path class="cls-1" d="M120.35,8c1.15-.44,2-1.5,3.08-2.16a25.81,25.81,0,0,0,3.27-1.9.37.37,0,0,0-.26-.63,7.37,7.37,0,0,0-3.59,1.53c-1,.65-2.43,1.5-2.92,2.62-.11.26.08.67.42.54Z"/><polygon class="cls-2" points="55.68 50.73 54.58 52.72 53.94 55.26 53.33 59.6 52.32 63.37 51.27 66.23 51.27 67.07 52.46 67.26 52.03 72.56 53.74 72.88 53.48 74.39 53.48 76.61 54.61 77.97 57.04 77.66 61.98 76.69 66.46 75.21 69.67 72.94 71.52 70.31 72.39 67.07 73.33 64.58 73.77 61.93 72.39 59.6 70.69 59.06 69.17 59.06 65.19 50.74 60.31 48.27 55.68 50.73"/><path class="cls-3" d="M55.92,50.27a9.63,9.63,0,0,1,5.9-6.39A14.54,14.54,0,0,1,79.07,50.7c3.2,5.85.91,10.78-.37,12.22s-6.19,3.55-6.19,3.55l1.31-3-.26-2.62-1.64-1.32-2,.16-1.16.84-.3,4.16-1.58-.19.71-4.81,0-2.72-.73-2.14-2.32,0,.62-4.13S59.41,49.05,55.92,50.27Z"/><path class="cls-3" d="M78.86,44.6a6.34,6.34,0,0,1,1.63-6.92c3.28-3,8.28,1.56,8.47,2.84s1.92,6-.3,7.75-4.12,2.73-7.17.08S78.75,44.75,78.86,44.6Z"/><polygon class="cls-2" points="69.07 73.66 73.97 74.95 78.49 77.29 78.49 78.08 80 78.65 81.69 72.05 81.9 71.08 82.13 68.13 83.35 66.45 80.5 65.94 77.44 64.22 76.01 65.25 73.48 66.23 72.51 66.47 72.05 68.91 70.73 71.43 69.67 72.94 69.07 73.66"/><polygon class="cls-2" points="81.09 102.17 77.03 103.99 74.44 105.45 72.64 106.33 71.55 107.14 71.73 108.36 72.18 108.69 72.95 109.9 73.49 110.49 74.73 110.98 75.55 110.98 76.39 111.26 77.03 111.41 79.07 110.21 83.74 107.46 88.45 105.84 91.31 105.18 92.93 104.38 94.26 102.75 95.19 100.97 93.39 100.99 90.72 101.33 88.27 101.51 85.9 102.15 83.02 102.75 81.15 102.98 82.47 101.69 81.09 102.17"/><polygon class="cls-2" points="78.19 99.53 78.19 100.51 79.64 101.14 80.76 101.53 81.09 102.17 83.57 100.66 81.82 100.13 80.58 99.81 78.86 99.42 78.19 99.53"/><polygon class="cls-2" points="77.84 95.72 75.92 95.82 73.56 95.51 71.86 95.63 71.52 95.77 71.03 96.77 70.49 97 70.49 98.02 70.5 98.76 71.02 99.54 71.39 100.51 72.18 100.72 80.59 97.66 81.96 97.91 82.3 99.15 81.82 100.13 83.02 100.49 83.99 99.04 85.6 97.32 87.43 95.82 86.41 95.41 83.57 95.82 81.9 96.15 80.27 96.84 78.56 97 77.84 95.72"/><polygon class="cls-4" points="82.67 67.39 84.98 66.03 87.92 65.62 91 66.14 92.93 67.23 95.72 67.24 101.54 66.82 107.29 65.39 111.3 63.97 114.94 62.35 115.92 62.08 117.76 60.46 118.87 60.73 120.36 62.72 121.1 65.21 121.79 68.07 122.64 72.56 124.32 77.48 125.3 81.09 126 83.85 124.37 84.95 120.48 84.59 115.44 83.85 111.3 83.74 105.8 83.24 100.8 82.49 101.09 86.28 100.09 90.32 97.22 96.44 95.19 100.97 81.15 102.98 83.57 100.66 85.9 98.43 87.43 95.82 86.41 95.41 84.17 95.63 81.9 96.15 80.88 96.63 79.64 97.43 78.56 97 78.19 95.63 80 95.38 81.05 92.16 82.3 89.09 83.13 86.59 83.28 85.75 81.9 83.4 81.14 82.13 79.64 80.77 78.05 79.29 78.49 78.08 79.44 78.44 80.88 77.05 81.09 74.95 81.6 72.56 81.9 71.08 81.8 69.05 82.67 67.39"/><path class="cls-5" d="M119.28,60.29l6.37-1.52s6,16.83,5.65,19.35l-1,1.16-4.87,1L120,61.57Z"/><polygon class="cls-6" points="177.53 65.84 178.23 66.64 179.19 66.64 179.61 66.19 179.42 64.65 178.99 62.7 178.62 61.55 178.54 60.15 179.61 59.02 179.46 57.69 178.25 54.57 177.44 50.52 177.32 48.65 176.62 46.11 175.44 45.27 173.57 45.17 171.91 45.57 170.56 56.95 177.53 65.84"/><polygon class="cls-7" points="125.57 58.18 129.31 56.38 133.4 55.15 138.02 55.11 140.49 55.21 143.16 55.11 147.4 56.02 149.32 56.73 158.59 51.44 164.54 48.04 167.83 46.11 170.89 44.88 171.78 44.88 172.31 46.11 171.81 48.65 172.06 51.15 173.2 53.81 174.74 56.45 176.21 59.76 177.47 65.21 177.98 70.89 178.54 74.95 178.84 77.71 178.99 80.08 179.46 82.49 179.23 84.05 177.77 85.57 177.47 85.03 176.6 83.15 176.08 82.14 173.69 81.92 144.57 79.77 131.73 79.86 131.46 77.48 125.57 58.18"/><path class="cls-8" d="M82.58,75.18c.53,1.45,2,2.54,2.85,3.79A26.86,26.86,0,0,1,88,83.51c.38.85,1.88.23,1.53-.65a22.49,22.49,0,0,0-2.77-5c-.91-1.22-2-2.88-3.56-3.31a.48.48,0,0,0-.58.58Z"/><path class="cls-8" d="M81.73,83.17a10.38,10.38,0,0,0,7.83,1.49c.57-.1.32-1-.24-.86a11.84,11.84,0,0,1-7.25-1.22.34.34,0,0,0-.34.59Z"/><path class="cls-8" d="M82.06,83.68c.86,1.71,2.08,3.25,3.1,4.87a33.07,33.07,0,0,0,3,4.25c.29.32.76-.09.58-.45a38.14,38.14,0,0,0-3.17-4.82c-1-1.4-1.88-2.91-3-4.21-.24-.27-.62.07-.48.36Z"/><path class="cls-8" d="M88.5,92.45a10.94,10.94,0,0,0,1.71-4.66c.22-1.15.58-2.71-.42-3.56-.43-.36-1.17.1-.82.63C90.32,87,88.34,90,88,92.18c0,.23.27.52.46.27Z"/><path class="cls-8" d="M83,84.51a12.12,12.12,0,0,0,2,2.64,20.35,20.35,0,0,1,2.07,3.28.77.77,0,0,0,.69.4.69.69,0,0,0,.56-.24.82.82,0,0,0,.13-1A18.64,18.64,0,0,0,86.3,86.3,6.07,6.07,0,0,0,83.52,84c-.26-.07-.59.19-.48.47Z"/><path class="cls-8" d="M88.1,91.2c1.42-1.46,2.13-3.66,3.05-5.46.58-1.14-1.34-1.7-1.49-.62a.88.88,0,0,0,.08.62v-.82c-.95,1.81-2.22,4-2.13,6.08a.29.29,0,0,0,.49.2Z"/><path class="cls-8" d="M89.55,84.84c-1.13-.84-2.8-.68-4.12-.5a.9.9,0,1,0,.24,1.77c1.24-.17,2.58.06,3.76-.34a.51.51,0,0,0,.12-.93Z"/><path class="cls-8" d="M85.34,85.54a25.82,25.82,0,0,1,1.86,3c.52,1,2,.1,1.48-.86a12.89,12.89,0,0,0-1.05-1.56,8.61,8.61,0,0,0-1.37-1.26c-.47-.36-1.35.12-.92.72Z"/><path class="cls-8" d="M87.87,88.75a4.07,4.07,0,0,0,1-1,5.65,5.65,0,0,0,.55-1.41.85.85,0,0,0-.57-1,1.56,1.56,0,0,0-1.91.8.77.77,0,0,0,.74,1,1.75,1.75,0,0,0,.54-.12c.06,0,.11-.09.2-.08l-.57-1a11.61,11.61,0,0,1-.29,1.3c-.11.41-.17.84-.31,1.24s.34.54.59.35Z"/><path class="cls-8" d="M88.19,92a.72.72,0,0,0,0-1.43.72.72,0,0,0,0,1.43Z"/><path class="cls-8" d="M94,71.79A4.26,4.26,0,0,0,95.92,73c.35.15,1.3.68,1.58.15s-.52-.72-.83-.84a12.67,12.67,0,0,0-2.33-1c-.2,0-.46.19-.31.4Z"/><path class="cls-8" d="M94.64,72a8.17,8.17,0,0,0,.64,2.27,5,5,0,0,0,.92,2,.29.29,0,0,0,.49-.2A5.65,5.65,0,0,0,96,73.74a7.11,7.11,0,0,0-1-1.9c-.11-.15-.37,0-.36.14Z"/><path class="cls-8" d="M100.43,82.72a59.89,59.89,0,0,0,8.78,1c3.06.28,6.13.51,9.19.77,1.52.13,10.15,1.45,7.64-2.82a.52.52,0,0,0-.89.52c1.09,1.95-2.8,1.51-3.37,1.47l-2.9-.24-6.28-.52c-3.93-.32-8.16-1.06-12.09-.74a.29.29,0,0,0-.08.57Z"/><path class="cls-9" d="M124.69,79.61c.58.93,2,.49,2.91.27a8,8,0,0,0,3.61-1.68.8.8,0,0,0-.78-1.32,11.72,11.72,0,0,0-2,.75c-.68.24-1.38.44-2.08.63-.4.11-2.14.54-1.64,1.35Z"/><path class="cls-10" d="M131.47,76.78c-.35,1.92,1.53,2.74,3.16,2.93a83.3,83.3,0,0,0,13.31,0,.64.64,0,0,0,0-1.28c-2.8-.23-5.64-.3-8.45-.35-1.91,0-6.84.87-7.7-1.33,0-.14-.29-.18-.32,0Z"/><path class="cls-10" d="M147.6,79.62c.48,0,1,0,1.42,0a8.48,8.48,0,0,0,1.42.06.21.21,0,0,0,.1-.38,3.28,3.28,0,0,0-3,.06.14.14,0,0,0,.06.25Z"/><path class="cls-10" d="M150.05,79.25a20.36,20.36,0,0,0,5.88.87c2.42.19,4.84.34,7.26.5,2.26.15,4.52.27,6.78.4,1.75.09,9.54,0,7.44,4.13-.23.46.47.86.69.4a3.69,3.69,0,0,0-.54-4c-1.54-1.83-4.46-1.72-6.62-1.88-3.55-.26-7.1-.52-10.65-.75-3.27-.2-7-.93-10.24-.14a.26.26,0,0,0,0,.5Z"/><path class="cls-10" d="M176.83,82.57a4.46,4.46,0,0,0,.38,3,.55.55,0,0,0,.46.27c.57,0,.57-.56.39-1a6.2,6.2,0,0,1-.66-2.21c0-.31-.53-.42-.57-.08Z"/><path class="cls-10" d="M177.74,85.45a6.41,6.41,0,0,0,1.59-2.75c.22-.9.38-2.13-.32-2.85a.46.46,0,0,0-.75.2,8.78,8.78,0,0,0,0,2.35,6.43,6.43,0,0,1-.75,2.85c-.09.15.13.34.26.2Z"/><path class="cls-10" d="M177.15,82.23c.19.48.31,1,.84,1.15a.41.41,0,0,0,.52-.39c-.07-.56-.49-.79-.93-1.09-.2-.13-.52.1-.43.33Z"/><path class="cls-10" d="M178,81.49a1.38,1.38,0,0,0,.31-.33.38.38,0,0,0-.33-.57,1.52,1.52,0,0,0-.47.06c-.74.2-.19,1.39.49.84Z"/><path class="cls-10" d="M176.83,82.8a4.43,4.43,0,0,0,.42.29.47.47,0,0,0,.63-.63c-.1-.15-.19-.28-.3-.42a.55.55,0,1,0-.75.76Z"/><path class="cls-10" d="M169.9,46.11a67.28,67.28,0,0,1-2.51,7.28,45.58,45.58,0,0,1-4.3,7.24c-.32.5.43,1.09.82.64A27.45,27.45,0,0,0,170,46.13a.07.07,0,0,0-.13,0Z"/><path class="cls-10" d="M148.89,59.08c-3.58,4.17-1.12,10.57-3.76,15.24a.17.17,0,0,0,.26.21,9.11,9.11,0,0,0,2.5-5.79c.35-3.25.17-6.3,1.41-9.42.09-.23-.26-.42-.41-.24Z"/><path class="cls-10" d="M153.83,56.36a10.09,10.09,0,0,0,1.56,1.12c.58.4,1.17.76,1.78,1.11a.47.47,0,0,0,.57-.74A4.85,4.85,0,0,0,154,56a.2.2,0,0,0-.14.33Z"/><path class="cls-10" d="M149.5,56.74c.06.41.33.55.65.77a12.44,12.44,0,0,1,1.42,1.09,8,8,0,0,1,1.11,1.21,3.22,3.22,0,0,0,1,1.15.43.43,0,0,0,.64-.36c.1-1.09-1.24-2.29-2-2.92-.58-.48-2-1.62-2.77-1a.09.09,0,0,0,0,.1Z"/><path class="cls-10" d="M160.1,51.71c-.42,1.77,2.27,3.53,3.77,2.63a.5.5,0,0,0,.26-.45c0-.74-1.14-.58-1.62-.73-.89-.28-1.23-.95-1.78-1.61a.38.38,0,0,0-.63.16Z"/><path class="cls-11" d="M70.38,61a3.35,3.35,0,0,0-.51,1.76,5.17,5.17,0,0,0,0,2.18.43.43,0,0,0,.78.1,4.89,4.89,0,0,0,.43-2,3.65,3.65,0,0,0-.17-2,.36.36,0,0,0-.56-.07Z"/><path class="cls-11" d="M70.34,65.05c.74.7,1.77-.38,2-1a2.77,2.77,0,0,0-.73-3c-.92-.9-2.14.81-1,1.35a1,1,0,0,1,.44,1.4c-.22.38-.67.63-.78,1.07a.26.26,0,0,0,.06.24Z"/><path class="cls-11" d="M71.08,62.69a.63.63,0,0,0-.19.69.24.24,0,0,0,.43.06.64.64,0,0,0,0-.71.18.18,0,0,0-.28,0Z"/><path class="cls-11" d="M55.41,51.42A26.66,26.66,0,0,0,59.67,51a20.08,20.08,0,0,1,4.83.39c.53.09.76-.68.23-.82-2.7-.7-7-1.33-9.41.46a.19.19,0,0,0,.09.35Z"/><path class="cls-11" d="M54.39,62c.38.1.77.12,1.15.21a4.39,4.39,0,0,1,1.15.51.31.31,0,0,0,.38-.48,2.35,2.35,0,0,0-2.71-.52.15.15,0,0,0,0,.28Z"/><path class="cls-11" d="M55.2,61.88a5.59,5.59,0,0,0,1.91-.09,4.71,4.71,0,0,0,1.72-.34.27.27,0,0,0-.06-.49,5,5,0,0,0-1.92.1,5.48,5.48,0,0,0-1.71.35.26.26,0,0,0,.06.47Z"/><path class="cls-11" d="M53.82,57.75c1.25,1.76,3.6-.21,4.82-1a.25.25,0,0,0-.19-.45c-1.42.33-2.75,2.46-4.27,1.14-.18-.15-.52.05-.36.28Z"/><path class="cls-11" d="M56,73.36a1.63,1.63,0,0,0-2.24-.26c-.48.37-.89,1.58-.35,2a.22.22,0,0,0,.36-.1,5.3,5.3,0,0,0,.1-.55c.07-.3.23-.38.47-.53.43-.25.74-.11,1.19,0s.69-.31.47-.61Z"/><path class="cls-11" d="M69.49,74.12c1.14-.39,1.91-1.8,2.47-2.81a15.3,15.3,0,0,0,1.59-4.39c.11-.55-.72-.79-.85-.23a17,17,0,0,1-1.58,4.13c-.55,1-1.56,2-1.8,3.13,0,.1.06.21.17.17Z"/><path class="cls-11" d="M72.83,67.37a5.41,5.41,0,0,0,4.91-2c.31-.43-.29-1-.71-.71a16,16,0,0,1-1.92,1.22,16.4,16.4,0,0,1-2.28.74c-.35.1-.41.71,0,.77Z"/><path class="cls-11" d="M70.08,73.92c1.48.54,3.1.64,4.6,1.15a10.35,10.35,0,0,1,4,2.7c.73.67,2,.93,2-.45,0-.53-.84-.53-.82,0,0,.35-2-1.69-2.09-1.74a8.7,8.7,0,0,0-2.13-1.32,12.25,12.25,0,0,0-5.48-1.18.43.43,0,0,0-.11.84Z"/><path class="cls-11" d="M78.47,76.81c-.1.93,1.4,1,1.94.7a.57.57,0,0,0,.24-.59.27.27,0,0,0-.06-.12.51.51,0,0,0-.45-.26c-.41,0-.8,0-1.22.07-.14,0-.43,0-.45.2Z"/><path class="cls-11" d="M78.18,77.67c-.21.68.62,1.4,1.2.82a.42.42,0,0,0-.09-.65c-.21-.12-.56-.08-.71-.28s-.35,0-.4.11Z"/><path class="cls-6" d="M54.51,59.63a1.21,1.21,0,0,0-.14,1.19c.11.28.37.65.7.49a.17.17,0,0,0,.07-.12c0-.21-.15-.29-.25-.46a.81.81,0,0,1,0-.87c.15-.25-.23-.46-.39-.23Z"/><path class="cls-6" d="M54.88,61.2a4,4,0,0,0,1.82-.07,5.44,5.44,0,0,0,1.91-.58.18.18,0,0,0-.09-.32,10.28,10.28,0,0,0-1.81.27,7.53,7.53,0,0,0-1.83.3.21.21,0,0,0,0,.4Z"/><path class="cls-6" d="M58.41,60.69c.61-.42-.09-1.24-.64-1.27-.36,0-.35.52,0,.56s.33.37.4.62a.17.17,0,0,0,.24.09Z"/><path class="cls-6" d="M57.86,59.47c-1,0-2,.16-3,.24-.54,0-.55.88,0,.86A6.68,6.68,0,0,0,58,59.86a.21.21,0,0,0-.11-.39Z"/><path class="cls-6" d="M54.72,60.77a4.46,4.46,0,0,0,2,.34c.55,0,1.22,0,1.53-.54a.35.35,0,0,0-.12-.47c-.45-.29-1-.07-1.54,0s-1.24.18-1.85.3c-.21,0-.16.31,0,.37Z"/><path class="cls-6" d="M56.33,60.81a1.75,1.75,0,0,0,1.83-.05.49.49,0,0,0-.49-.85,2.09,2.09,0,0,1-1.15.2c-.37,0-.51.54-.19.7Z"/><path class="cls-6" d="M55,52.59A7.33,7.33,0,0,0,54.35,56,.34.34,0,0,0,55,56c0-.56.06-1.12.15-1.68s.24-1,.34-1.5c.05-.28-.35-.5-.49-.21Z"/><path class="cls-6" d="M51.7,65.58a1.1,1.1,0,0,0-.11,1.34.4.4,0,0,0,.45.18.38.38,0,0,0,.28-.43c0-.14-.13-.24-.18-.37a1.75,1.75,0,0,1-.06-.56.23.23,0,0,0-.38-.16Z"/><path class="cls-6" d="M52,66.86c.2-.48.15-1,.31-1.49s.47-.91.66-1.39c.1-.23-.23-.47-.43-.33-.8.58-1.42,2.37-.82,3.24a.15.15,0,0,0,.28,0Z"/><path class="cls-6" d="M55.31,59.4a3.65,3.65,0,0,0,1.91,0,5.17,5.17,0,0,0,2-.7.27.27,0,0,0-.21-.49c-.67.11-1.32.41-2,.55a7.51,7.51,0,0,0-1.78.37c-.15.07-.08.27,0,.32Z"/><path class="cls-6" d="M72.39,61.12c.07.26.23.47.31.73s0,.53.14.79.39.29.48.06a1.64,1.64,0,0,0-.59-1.83.23.23,0,0,0-.34.25Z"/><path class="cls-6" d="M69.57,61.36c-.63,0-.77.88-.54,1.31a.2.2,0,0,0,.34,0,2.21,2.21,0,0,0,.29-1.24.11.11,0,0,0-.09-.07Z"/><path class="cls-6" d="M62.48,74.25c2.25,1.35,5.72-1.6,6.64-3.5A.71.71,0,0,0,67.89,70,7.88,7.88,0,0,1,65.2,72.6a16.15,16.15,0,0,0-2.77,1.27.25.25,0,0,0,0,.38Z"/><path class="cls-6" d="M77.59,65.88A4.34,4.34,0,0,0,80,67.15c.42.13,1.91.67,2.16,0s-.83-.77-1.16-.86a9.75,9.75,0,0,0-3.15-.73c-.16,0-.32.19-.21.35Z"/><path class="cls-6" d="M82.74,68.47c3.87-2.48,7.68-1.43,11.61.35.2.09.46-.17.26-.33-3.31-2.79-9.16-4.55-12.17-.32-.13.18.12.41.3.3Z"/><path class="cls-6" d="M93.73,68.06c3.84,1.13,8.89-.09,12.66-1.09a45.53,45.53,0,0,0,12.44-5.38.47.47,0,0,0-.47-.81,51.22,51.22,0,0,1-12.29,5A49.9,49.9,0,0,1,99.75,67a40.44,40.44,0,0,0-6,.76.16.16,0,0,0,0,.3Z"/><path class="cls-6" d="M119.75,60.82l0,.09a.52.52,0,0,0,.57.24c.95-.14,1.88-.32,2.82-.5a9.69,9.69,0,0,0,2.45-.62.4.4,0,0,0-.09-.72c-1.66-.43-3.92.24-5.45.86a.51.51,0,0,0-.37.49s0,.12,0,.16Z"/><path class="cls-6" d="M125.86,58.79c3.08-.6,6-1.93,9.13-2.25a16.88,16.88,0,0,1,9,1.58c.2.1.44-.16.25-.32-5-4.34-13.39-2.39-18.61.53a.25.25,0,0,0,.19.46Z"/><path class="cls-6" d="M141.23,55.94c.57.38,1.28.49,1.88.84s1.07,1,1.7,1.06a.45.45,0,0,0,.55-.55c-.16-.78-1.15-1.19-1.81-1.47a3.39,3.39,0,0,0-2.26-.36.27.27,0,0,0-.06.48Z"/><path class="cls-6" d="M142.2,55.47l-.19-.16-.22.29a12.91,12.91,0,0,0,3.14.79c1.21.26,2.39.6,3.59.89a.29.29,0,0,0,.22-.52c-1.84-1-4.79-2.14-6.91-1.49-.24.07-.1.44.15.33l.22-.1s0,0,0,0Z"/><path class="cls-6" d="M150.74,56.47c3.22-1.38,6.24-3.33,9.31-5s6.21-3.34,9.26-5.11a.41.41,0,0,0-.41-.71c-3.1,1.68-6.12,3.51-9.17,5.26s-6.27,3.32-9.12,5.36a.13.13,0,0,0,.13.22Z"/><path class="cls-6" d="M167.44,48.29c-.83,1.5-1.3,3.17-2,4.72a30,30,0,0,1-2.57,4.43c-.07.1.09.23.17.13,2.14-2.45,4.6-5.7,5.06-9,.06-.37-.44-.66-.65-.28Z"/><path class="cls-6" d="M169.68,46a4.61,4.61,0,0,1,1.75.6c.56.21,1-.59.56-1a2.06,2.06,0,0,0-2.43-.11.26.26,0,0,0,.12.48Z"/><path class="cls-6" d="M146.68,59.13c-1.4,1.66-1.63,3.55-1.72,5.65a11.83,11.83,0,0,1-4.09,9,.42.42,0,0,0,.51.65,10.15,10.15,0,0,0,4-5.31c1-3-.17-6.74,2-9.32.41-.49-.29-1.19-.7-.71Z"/><path class="cls-6" d="M80.11,41.6a2.39,2.39,0,0,0,.45-1.14,2.52,2.52,0,0,1,1.32-1.72c1.27-.56,2.1.41,3.23.74a.4.4,0,0,0,.5-.39c0-2-2.94-2.36-4.31-1.74a3.71,3.71,0,0,0-1.89,2c-.25.66-.38,1.91.41,2.24a.24.24,0,0,0,.29,0Z"/><path class="cls-6" d="M58.71,47.26c3-1.19,5.54-2.43,8.85-2.07S73.2,47.26,75.83,49c.27.19.64-.18.46-.46-3.49-5.33-13.38-6.44-17.9-1.86-.22.22,0,.69.32.56Z"/><path class="cls-6" d="M77,62.42A4.16,4.16,0,0,0,78.58,59a.14.14,0,0,0-.28,0c-.23.58-.36,1.18-.62,1.75s-.63.95-.88,1.45c-.07.14.07.33.22.23Z"/><path class="cls-12" d="M56.15,50.18A4.16,4.16,0,0,0,57.59,50c.6-.11,1.23-.15,1.82-.3s.25-.74-.19-.68-1.12.28-1.67.4a4.45,4.45,0,0,0-1.44.43c-.1.07-.1.27,0,.29Z"/><path class="cls-12" d="M56.3,50.5a20.23,20.23,0,0,1,4.83-.73,36.37,36.37,0,0,1,4.78.93c.24,0,.52-.27.27-.47-2.51-2-7.43-1.88-10.1-.24a.28.28,0,0,0,.22.51Z"/><path class="cls-12" d="M65.61,50.34c-.19.72-.32,1.47-.44,2.21A4.45,4.45,0,0,0,65,54.36a.26.26,0,0,0,.46.06,5,5,0,0,0,.46-2c.09-.67.18-1.35.22-2a.29.29,0,0,0-.57-.07Z"/><path class="cls-12" d="M64.87,54.43c1.06.81,2.14,1.34,2.59,2.72.37,1.17-.2,2.16,0,3.28a.21.21,0,0,0,.31.12c1.17-.78.87-2.91.39-4A4,4,0,0,0,65,54c-.28,0-.31.34-.13.48Z"/><path class="cls-12" d="M68.31,59a4.67,4.67,0,0,0-.4,4.85.27.27,0,0,0,.51-.14c0-.79-.28-1.55-.28-2.35s.25-1.53.31-2.31a.08.08,0,0,0-.14,0Z"/><path class="cls-12" d="M56.35,50.4A3.65,3.65,0,0,1,57,48.63c.13-.21-.15-.38-.32-.24a2.64,2.64,0,0,0-.91,2c0,.38.56.37.59,0Z"/><path class="cls-12" d="M64.49,48.57a3.27,3.27,0,0,0,1.22-.65.21.21,0,0,0-.2-.34,3.15,3.15,0,0,0-1.16.67c-.15.1-.07.41.14.32Z"/><path class="cls-12" d="M69.49,55.29a4.87,4.87,0,0,0,1.61.15.36.36,0,0,0,.24-.24.41.41,0,0,0,0-.19.33.33,0,0,0-.24-.23,4.42,4.42,0,0,0-1.54-.07c-.31,0-.42.51-.07.58Z"/><path class="cls-12" d="M74.4,53.73c.55-.16.84.24,1.33.33a.29.29,0,0,0,.36-.28c.07-1-1.36-1-2-.7a.36.36,0,0,0,.27.65Z"/><path class="cls-12" d="M74.66,56.88c.33-.07.57.26.9.29a.4.4,0,0,0,.39-.39c.09-.82-1.08-.89-1.58-.58a.37.37,0,0,0,.29.68Z"/><path class="cls-12" d="M68.88,49.93a3.11,3.11,0,0,0,.86.09,2.59,2.59,0,0,1,1,.33v-.8c-.51.25-1.34.82-1,1.49a.28.28,0,0,0,.24.13c.49,0,.85-.58,1.25-.82a.46.46,0,0,0,0-.8c-.66-.33-1.83-.67-2.43-.06a.26.26,0,0,0,.12.44Z"/><path class="cls-13" d="M76.84,46.66c.34.06.56-.13.84-.32a8.32,8.32,0,0,0,1-.73c.26-.24-.07-.64-.37-.48a8.59,8.59,0,0,0-1.06.72c-.25.19-.49.32-.54.64a.15.15,0,0,0,.1.17Z"/><path class="cls-13" d="M76.91,46.94c.42.38.93.59,1.33,1a4.3,4.3,0,0,1,.9,1.6.32.32,0,0,0,.62-.18,3.76,3.76,0,0,0-1-1.83,2.78,2.78,0,0,0-1.7-1,.22.22,0,0,0-.15.37Z"/><path class="cls-13" d="M79.42,49.49a2.29,2.29,0,0,0,1.27-.85.23.23,0,0,0-.25-.33,2.34,2.34,0,0,0-1.2.95c-.07.11.06.26.18.23Z"/><path class="cls-13" d="M80.67,48.08c-.37-.36-.74-.73-1.07-1.12s-.58-.86-.9-1.26-.91,0-.78.45a4.46,4.46,0,0,0,2.33,2.48c.34.15.72-.25.42-.55Z"/><path class="cls-13" d="M77.46,46.73a1.74,1.74,0,0,0,.75.11l-.29-.16a5.45,5.45,0,0,0,1.54,1.7c.35.23.77-.31.45-.59a11.13,11.13,0,0,1-1.47-1.52.35.35,0,0,0-.32-.08,1.66,1.66,0,0,0-.69.27.15.15,0,0,0,0,.27Z"/><path class="cls-13" d="M78.65,47.69a11,11,0,0,0,.76.93c.28.28.73-.18.43-.44a12.44,12.44,0,0,0-1-.72c-.14-.1-.27.11-.17.23Z"/><path class="cls-13" d="M78.17,45.6c0,.46.21,1.38.72,1.52a.18.18,0,0,0,.18-.07c.26-.46-.27-1.25-.58-1.59a.19.19,0,0,0-.32.14Z"/><path class="cls-14" d="M84.72,56.08a5.36,5.36,0,0,1,1.51,1.49.29.29,0,0,0,.5-.29,2.74,2.74,0,0,0-.83-1,2.23,2.23,0,0,0-1.09-.44.13.13,0,0,0-.09.23Z"/><path class="cls-14" d="M85.38,57a1.24,1.24,0,0,0,.75.8c.29.11.69.13.8-.21a.16.16,0,0,0,0-.16c-.3-.31-.78-.06-1-.57-.12-.31-.62-.19-.51.14Z"/><path class="cls-14" d="M84.54,56.12A4.89,4.89,0,0,1,86.2,57a.17.17,0,0,0,.25-.19,2.12,2.12,0,0,0-1.84-1.13c-.28,0-.35.45-.07.49Z"/><path class="cls-14" d="M65.76,77.83c0,.25.07.22.15.44s0,.4.09.59a1.24,1.24,0,0,0,.91.85.64.64,0,0,0,.81-.62A1.26,1.26,0,0,0,67,78c-.22-.11-.46-.16-.69-.26a.79.79,0,0,0-.34-.1.18.18,0,0,0-.18.18Z"/><path class="cls-14" d="M69.34,76.75c.13.19.14.41.27.6a6.33,6.33,0,0,0,.47.56.54.54,0,0,0,.54.14l.09,0a.41.41,0,0,0,.28-.28l0-.08a.56.56,0,0,0-.14-.54l-.54-.42c-.22-.15-.45-.15-.67-.28s-.46.12-.32.32Z"/><path class="cls-14" d="M62.53,67.8a.4.4,0,0,1,.36.15l0-.26c0,.26.07.48,0,.74a.54.54,0,0,0,1,.29,1.26,1.26,0,0,0-1.38-1.49.29.29,0,0,0,0,.57Z"/><path class="cls-14" d="M48.52,61.79a7.36,7.36,0,0,0-.75.36,3.38,3.38,0,0,0-.42.13,3.92,3.92,0,0,0-.32.25.82.82,0,1,0,1.24.71c0-.46.23-.7.52-1a.28.28,0,0,0-.27-.46Z"/><path class="cls-14" d="M47.77,57.23a4.53,4.53,0,0,1-.74,0,1.24,1.24,0,0,0-1,.4.73.73,0,0,0-.19.73l0,.08a.68.68,0,0,0,.62.47,1,1,0,0,0,.86-.51,2,2,0,0,0,.21-.38c.1-.18.12-.2.33-.24a.26.26,0,0,0-.07-.51Z"/><path class="cls-14" d="M53.51,48.52a1,1,0,0,1-.53-.35l.19.74a3.49,3.49,0,0,0,.07-.43.74.74,0,0,0-1.37-.37,2.74,2.74,0,0,0-.15.4c-.16.57.56,1.27,1.1.85a1.08,1.08,0,0,1,.62-.29c.3,0,.4-.47.07-.55Z"/><path class="cls-15" d="M49.5,73c-1.54.38-2.6,1.26-4.23,1.18s-.77,0-1.77-.46a2.17,2.17,0,0,0-1-.2,2,2,0,0,0-1.86,2.43c.06.39.7.37.78,0,.13-.65,1.71-.93,2.28-.78.2,0,.35.31.55.36a1.87,1.87,0,0,0,1.34.06,13.62,13.62,0,0,0,4-2.34c.12-.1,0-.28-.14-.25Z"/><path class="cls-15" d="M41.16,75.67c-.7-1.36-3.12.83-1.63,1.85.23.15.47-.06.5-.29s0-.71.26-.94a4.61,4.61,0,0,1,.81-.38.18.18,0,0,0,.06-.24Z"/><path class="cls-15" d="M39.5,76.73A1.31,1.31,0,0,0,38,78.61a2,2,0,0,0,1.35,1.08,1.94,1.94,0,0,0,1.85-.36.35.35,0,0,0-.15-.57c-.63-.21-1.31.2-1.91-.23s-.42-1.28.3-1.23c.34,0,.37-.47.07-.57Z"/><path class="cls-15" d="M41,78.74c-.37,1,.48,2,1.29,2.36s2.49.43,2.93-.55c.15-.31,0-.81-.44-.77-.74.07-1.26.57-2,.25s-.89-.9-1.29-1.4c-.14-.18-.38,0-.45.11Z"/><path class="cls-15" d="M45,79.65c.2.77,1.41.83,2,.64a1.89,1.89,0,0,0,1.3-1.79,2.29,2.29,0,0,0-1-2,1.72,1.72,0,0,0-2.1-.1.32.32,0,0,0,0,.46c.59.51,1.83.51,1.88,1.49.06,1.16-1.43.47-2,1a.34.34,0,0,0-.09.32Z"/><path class="cls-15" d="M45.83,76.42a19.84,19.84,0,0,0,3.62-2.17c.33-.26-.09-.76-.44-.57a20,20,0,0,0-3.37,2.49c-.15.13,0,.33.19.25Z"/><path class="cls-15" d="M48.5,74.73l1.17-.79a5.22,5.22,0,0,0,1-.77c.15-.17,0-.5-.23-.41a5.42,5.42,0,0,0-1.09.69l-1.15.82c-.28.2,0,.66.27.46Z"/><path class="cls-15" d="M48.79,74.66A2.42,2.42,0,0,0,49.91,74a.21.21,0,0,0-.25-.32,2.39,2.39,0,0,0-1,.87.11.11,0,0,0,.12.16Z"/><path class="cls-15" d="M47,75a13.87,13.87,0,0,0-2.12,1,8.09,8.09,0,0,0-2,1.28c-.35.33,0,1,.5.85a7.89,7.89,0,0,0,2-1.22,13.86,13.86,0,0,0,1.84-1.57A.17.17,0,0,0,47,75Z"/><path class="cls-15" d="M45.45,75.91a4,4,0,0,0-3.64-1,5.19,5.19,0,0,0-3.14,2.2c-.63.9.85,1.76,1.48.86A4.3,4.3,0,0,1,45,76.61c.39.13.74-.43.41-.7Z"/><path class="cls-15" d="M39.62,78.6a5.66,5.66,0,0,1,1.81.63,6.62,6.62,0,0,1,1.38,1.2.75.75,0,0,0,1.24-.71,3.42,3.42,0,0,0-1.92-1.9,3.49,3.49,0,0,0-1.28-.31,3,3,0,0,0-1.33.37.37.37,0,0,0,.1.72Z"/><path class="cls-15" d="M43.37,79.88a3.37,3.37,0,0,0,2.75-.55,1.31,1.31,0,0,0,.63-1.72c-.43-.8-1.56-.81-2.34-1a9.45,9.45,0,0,0-3.68-.35.8.8,0,0,0-.2,1.45,5.94,5.94,0,0,0,2.44.48c.4,0,2.37,0,2.5.25l-.08-.59c0,.37-1.76,1.3-2.07,1.54-.15.12-.17.39,0,.44Z"/><path class="cls-15" d="M39.11,78.68a2.31,2.31,0,0,0,.31.39,1.92,1.92,0,0,0,.45.18.71.71,0,0,0,.81-.11.78.78,0,0,0,.2-1,.42.42,0,0,0-.37-.21c-.09,0-.37.07,0,0A1.63,1.63,0,0,0,40,78c-.18.06-.27.24-.4.3l.15-.13c-.15,0-.18,0-.08,0-.31-.24-.82.06-.59.46Z"/><path class="cls-15" d="M42.89,76.76c.4,0,.76-.1,1.13.12a4.14,4.14,0,0,1,.86,1,2.25,2.25,0,0,0,2.24.83.82.82,0,0,0,0-1.57,3.25,3.25,0,0,1-.82-.32,5.27,5.27,0,0,1-.49-.57,2.19,2.19,0,0,0-1.2-.75,1.73,1.73,0,0,0-2,.85.33.33,0,0,0,.32.41Z"/><path class="cls-15" d="M46.55,77.81c-.73.39-1.79-.08-2.55-.16a2.14,2.14,0,0,0-2.19.78c-.27.45.07,1.24.66,1.16a9.53,9.53,0,0,1,1.4-.24,8.29,8.29,0,0,0,1.41,0,1.84,1.84,0,0,0,1.61-1.26.24.24,0,0,0-.34-.26Z"/><path class="cls-15" d="M41.44,78.28a10.45,10.45,0,0,1-1.15-.42,2.63,2.63,0,0,0-.57-.13c-.08,0-.53-.09-.43,0l.37.49v.33a8.21,8.21,0,0,0,.7-1.84.73.73,0,0,0-1.23-.51,4.39,4.39,0,0,0-.79,1.38c-.25.5-.46,1.07.06,1.49.85.7,2.14,0,3-.18.3-.05.27-.53,0-.59Z"/><path class="cls-15" d="M44.7,78a4.93,4.93,0,0,0,1.16,1.07c.43.27.92.68,1.45.47a.62.62,0,0,0,.41-.72c-.11-.57-.75-.79-1.23-1a5,5,0,0,0-1.55-.39c-.33,0-.41.38-.24.58Z"/><path class="cls-11" d="M81.35,103.6a26.24,26.24,0,0,0,6.28-.75c2.38-.4,4.76-.8,7.13-1.24.42-.08.24-.7-.18-.64-2.39.35-4.77.74-7.15,1.15a25.8,25.8,0,0,0-6.12,1.33c-.09,0,0,.14,0,.15Z"/><path class="cls-11" d="M81.47,103.28c-.17,0-.33-.13-.16-.28s0-.67-.32-.55a.74.74,0,0,0-.41,1.08.59.59,0,0,0,1,0,.18.18,0,0,0-.1-.26Z"/><path class="cls-11" d="M74.94,111.11a.13.13,0,0,0,0-.25.13.13,0,1,0,0,.25Z"/><path class="cls-11" d="M73.78,109.65a4.61,4.61,0,0,1,1.17-1c.43-.23.9-.39,1.35-.59.69-.31,1.52-.78,1.69-1.58a.2.2,0,0,0-.37-.16,5.21,5.21,0,0,1-2.5,1.72c-.63.28-1.46.74-1.58,1.49,0,.14.13.27.24.15Z"/><path class="cls-11" d="M76.19,111.46h.29a.1.1,0,0,0,0-.2c-1-.36-.43-1.49.14-2s1-.77,1.45-1.13a7.79,7.79,0,0,0,2-1.61c.08-.11,0-.24-.16-.22a7.21,7.21,0,0,0-2.43,1.54,7.56,7.56,0,0,0-1.88,1.68c-.46.69-.31,2.34.86,1.91l-.05-.2-.29.07a.06.06,0,0,0,0,.12Z"/><path class="cls-11" d="M72,108c.39-1,1.52-1.32,2.36-1.76a15,15,0,0,0,2.35-1.39c.13-.11,0-.32-.16-.28a18.67,18.67,0,0,0-3.57,1.8c-.65.37-1.28.77-1.35,1.58,0,.23.3.22.37.05Z"/><path class="cls-11" d="M71.54,97.94c.31.36,1,.19,1.38.14a2.61,2.61,0,0,0,1.38-.48.16.16,0,0,0-.11-.26,6,6,0,0,0-1.5.22c-.36,0-.88,0-1.15.26a.09.09,0,0,0,0,.12Z"/><path class="cls-11" d="M72,96.75a5.39,5.39,0,0,0,1.7,0,5.23,5.23,0,0,0,1.71-.27.16.16,0,0,0,0-.3,5.42,5.42,0,0,0-1.84,0,4.91,4.91,0,0,0-1.61.28.14.14,0,0,0,0,.26Z"/><path class="cls-11" d="M72,99.34a13.43,13.43,0,0,0,1.64-.49,3.25,3.25,0,0,0,1.24-.6.15.15,0,0,0-.1-.25,3.52,3.52,0,0,0-1.48.4,10.12,10.12,0,0,0-1.43.62c-.19.1-.06.35.13.32Z"/><path class="cls-11" d="M81.06,97.79a2,2,0,0,1,1,.87c.2.35.13.75.31,1.08a.19.19,0,0,0,.3,0c.34-.41.07-1.13-.19-1.52a1.79,1.79,0,0,0-1.42-.85c-.23,0-.24.3,0,.38Z"/><path class="cls-11" d="M81.48,108.67c2.15-1.37,4.13-1.7,6.5-2.45a18,18,0,0,0,5.3-2.17.2.2,0,0,0-.2-.34,12.41,12.41,0,0,1-3.9,1.49,22.58,22.58,0,0,0-3.56.58,8,8,0,0,0-4.25,2.77c0,.07,0,.16.11.12Z"/><path class="cls-11" d="M88.52,102.48h0s0,0,0,0Z"/><path class="cls-11" d="M87.69,103.06a.5.5,0,0,0,0-1,.5.5,0,0,0,0,1Z"/><path class="cls-11" d="M86.52,102.55a8.79,8.79,0,0,0,1.35-.12,2,2,0,0,0,1.18-.34.28.28,0,0,0-.06-.43c-.68-.44-2,.13-2.57.64a.15.15,0,0,0,.1.25Z"/><path class="cls-11" d="M86.8,102.34a3.05,3.05,0,0,1,1.34-.09,1,1,0,0,0,.88-.18.24.24,0,0,0,0-.29c-.53-.71-1.76,0-2.35.36a.11.11,0,0,0,.09.2Z"/><path class="cls-6" d="M72.63,109.08a1.74,1.74,0,0,0,.68-.79c.06-.19-.16-.31-.31-.24a1.67,1.67,0,0,0-.66.75c-.09.16.11.41.29.28Z"/><path class="cls-6" d="M74.08,110.26a4.85,4.85,0,0,0,.32-1.34.38.38,0,0,0-.49-.37,1.08,1.08,0,0,0-.29,1.84.28.28,0,0,0,.46-.13Z"/><path class="cls-6" d="M76.14,110.47A14.06,14.06,0,0,1,76.9,109c.15-.38-.33-.62-.62-.48a1.64,1.64,0,0,0-.64,1.92.26.26,0,0,0,.5,0Z"/><path class="cls-6" d="M82.69,105.14a2.24,2.24,0,0,0,1.65-.59.33.33,0,0,0-.15-.55,2.21,2.21,0,0,0-1.73.59c-.22.18,0,.55.23.55Z"/><path class="cls-6" d="M78.77,104.62a.05.05,0,1,0,0-.1.05.05,0,0,0,0,.1Z"/><path class="cls-6" d="M78.19,105.28A2.57,2.57,0,0,0,80,105c.17-.13.15-.47-.13-.46-.56,0-1.08.27-1.66.29-.28,0-.26.38,0,.42Z"/><path class="cls-6" d="M76.05,97.12c.45.52,1.44.95,2,.3a.27.27,0,0,0-.12-.43c-.52-.19-1.13,0-1.67-.21a.21.21,0,0,0-.2.34Z"/><path class="cls-6" d="M82.35,97.17a1.76,1.76,0,0,0,1.68,0,.34.34,0,0,0,.07-.53,1.74,1.74,0,0,0-1.75-.1.36.36,0,0,0,0,.61Z"/><path class="cls-6" d="M82.92,89.8A3.88,3.88,0,0,0,82.11,91c-.07.17.14.38.29.21a4,4,0,0,0,.76-1.25c0-.14-.15-.24-.24-.14Z"/><path class="cls-6" d="M97.62,80.89a10.1,10.1,0,0,1,1.2,3.92c0,1.36-.74,2.35-1,3.62a.45.45,0,0,0,.65.5c1.48-.74,1.94-2.83,1.87-4.36a4.42,4.42,0,0,0-2.41-4,.23.23,0,0,0-.31.32Z"/><path class="cls-6" d="M86.3,73.19a12.47,12.47,0,0,0,2.26-.57.13.13,0,0,0-.07-.25,11.63,11.63,0,0,0-2.24.62.1.1,0,0,0,0,.2Z"/><path class="cls-6" d="M91.78,86.05a22.3,22.3,0,0,0,1.28,2.29A19.86,19.86,0,0,0,94.34,91a.12.12,0,0,0,.22-.06,6,6,0,0,0-.84-2.54A7,7,0,0,0,92,85.91c-.1-.09-.31,0-.25.14Z"/><path class="cls-8" d="M90.94,86.66a2.83,2.83,0,0,0,.63,1.84.25.25,0,0,0,.43-.18,2.78,2.78,0,0,0-.69-1.81.22.22,0,0,0-.37.15Z"/><path class="cls-8" d="M91.05,86.16a6.34,6.34,0,0,0-.6,2.1,7.94,7.94,0,0,0-.26,2.22c0,.18.28.3.38.1a8.18,8.18,0,0,0,.58-2.3,6.16,6.16,0,0,0,.18-2.09c0-.13-.22-.14-.28,0Z"/><path class="cls-8" d="M90.53,90.66c.47-.53,1-1,1.4-1.58a3.84,3.84,0,0,0,1-1.47c0-.12-.08-.27-.22-.22-.54.2-.9.8-1.25,1.23s-.87,1.12-1.3,1.68c-.2.25.14.62.36.36Z"/><path class="cls-8" d="M91.24,87.23a4.09,4.09,0,0,1-.38,1.47l.67.09a2.62,2.62,0,0,1,0-.56c0-.3-.4-.36-.54-.14a2.15,2.15,0,0,0-.46,1.06c0,.22.27.3.41.17a2.27,2.27,0,0,0,.58-1L91,88.23a1.86,1.86,0,0,1-.09.47c-.12.43.49.58.65.18a3.49,3.49,0,0,0,.12-1.7c0-.22-.38-.16-.39,0Z"/><path class="cls-16" d="M55.85,50.19c-2.94,3.65-2,8.52-3.62,12.68-.29.72-3.12,5.31-.08,4.56a.16.16,0,0,0,0-.31c-1,0,.44-3.59.63-4.08a18.1,18.1,0,0,0,1-4.18c.43-3,.68-5.87,2.34-8.54.07-.1-.09-.23-.17-.13Z"/><path class="cls-16" d="M52.45,66.23c-.22,2.17-.36,4.34-.58,6.51a.16.16,0,0,0,.16.16,14.3,14.3,0,0,1,4.36.59c.17.05.3-.22.13-.3a6.83,6.83,0,0,0-2-.58c-.64-.1-2,.18-2.32-.41-.26-.44.16-2.19.2-2.71.08-1.09.16-2.17.22-3.26,0-.12-.18-.12-.19,0Z"/><path class="cls-16" d="M53.7,72.87c-2.64,7,4.18,5.15,8.46,4,2.88-.8,6-1.67,8.06-4,2.15-2.52,2.67-6,3.14-9.18,0-.26-.36-.37-.4-.11-.73,4.86-1.87,9.44-6.84,11.57a36.71,36.71,0,0,1-5.33,1.7c-2.42.63-8.89,3-7-3.89a0,0,0,0,0-.09,0Z"/><path class="cls-16" d="M55.42,50.81a17.74,17.74,0,0,1,9.72.11.19.19,0,0,0,.1-.36,15.64,15.64,0,0,0-9.87.06.1.1,0,0,0,.05.19Z"/><path class="cls-16" d="M65.13,50.67c-.25,1.38-.47,2.77-.7,4.16,0,.1.07.23.18.19,4.19-1.47,2.66,6.16,2.5,7.19-.11.71-.75,2.37-.49,3.14s.23,1.06,1,1.15A1.56,1.56,0,0,0,69,65.62c.4-.63.09-1.56,0-2.2Q67.63,59.34,73.39,61c.72,2.58-.46,4.58-3.52,6-.14,0-.15.23,0,.23,7.36,0,3.17-12-.55-8.15-1,1.09-.18,2.45-.78,3.45-1.85,3.11-1-1-.93-1.37a17.51,17.51,0,0,0,.29-3.39,3.42,3.42,0,0,0-1.77-3.2c-.22-.16-.77,0-.88-.12-.76-.88,0-2.67.09-3.73,0-.14-.18-.2-.21-.06Z"/><path class="cls-16" d="M70.36,61.09a26.91,26.91,0,0,0-.74,4.53.06.06,0,0,0,.12,0,25.71,25.71,0,0,0,.89-4.46c0-.18-.24-.26-.27-.08Z"/><path class="cls-16" d="M55.83,50.77c2.09-9.2,14.36-8.89,20.25-3.87,6.79,5.79,5.9,17.18-3.65,19.27-.39.09-.22.66.16.59,9.68-1.79,11.23-13.7,4.46-19.83C71,41.42,57.56,41,55.54,50.69a.15.15,0,0,0,.29.08Z"/><path class="cls-16" d="M76.09,47c.6-.39,1.18-.82,1.75-1.24s1-.58,1.21-1.1a.19.19,0,0,0-.19-.24c-.55.06-.94.56-1.35.91s-1.1.92-1.62,1.41a.17.17,0,0,0,.2.26Z"/><path class="cls-16" d="M79.58,50.07c.68-.49,1.35-1,2.06-1.46a.3.3,0,0,0-.15-.56,1.67,1.67,0,0,0-.63.05.18.18,0,0,0,0,.33,1.79,1.79,0,0,0,.6.21l-.13-.5c-.61.58-1.27,1.12-1.9,1.67-.14.13,0,.37.2.26Z"/><path class="cls-16" d="M82.52,49.34c-1.7-1.56-3.32-3.35-3.79-5.69-.76-3.82,2.32-7.81,6.34-5.92a8.09,8.09,0,0,1,4.36,7c0,3.54-3.35,6.54-6.81,4.58a.34.34,0,0,0-.34.58,5.11,5.11,0,0,0,7.35-2.68c1.44-3.49-.55-7.75-3.58-9.72a5.09,5.09,0,0,0-7.6,2.25c-1.65,3.82.85,7.67,3.88,9.85.15.11.33-.13.19-.25Z"/><path class="cls-16" d="M68.41,74a29.32,29.32,0,0,1,4.89,1.11c1.81.61,3.34,1.65,5.06,2.39.25.11.53-.17.31-.39-2.49-2.41-6.82-3.52-10.2-3.54-.24,0-.31.39-.06.43Z"/><path class="cls-16" d="M77.54,64.69a7.92,7.92,0,0,0,5.81,2c.31,0,.43-.5.08-.58a29.8,29.8,0,0,1-3-.59c-1-.31-1.83-.83-2.78-1.13a.15.15,0,0,0-.15.25Z"/><path class="cls-16" d="M78.23,77.89c-.41,1.25,1.21,1.65,2,.9a5.26,5.26,0,0,0,1.07-2.66,13.1,13.1,0,0,0,.63-4.59.19.19,0,0,0-.38-.06,29.65,29.65,0,0,0-.65,3.65c-.11.57-.23,1.13-.38,1.68,0,.21-.1.42-.17.63-.15.93-.79,1.1-1.91.48a.11.11,0,0,0-.21,0Z"/><path class="cls-16" d="M82.77,72.42c-1.39-2.13-.38-4.61,1.51-6,.19-.14.09-.5-.17-.42-2.69.9-3.27,4.54-1.82,6.69.2.29.68,0,.48-.28Z"/><path class="cls-16" d="M83.17,74.53a93.43,93.43,0,0,1,9.2,13.84c.13.26.5,0,.38-.22a43.22,43.22,0,0,0-9.38-13.78c-.1-.09-.29,0-.2.16Z"/><path class="cls-16" d="M90.85,84.94a63.22,63.22,0,0,1-5.12,14.3.19.19,0,0,0,.32.19A40.25,40.25,0,0,0,91.16,85c0-.2-.26-.29-.31-.09Z"/><path class="cls-16" d="M95,100.73c3.4-5,10.6-17.42,2.7-21.73a.33.33,0,0,0-.33.56c7.64,4.38-.21,15.63-2.52,21.09a.09.09,0,0,0,.15.08Z"/><path class="cls-16" d="M98.74,79.66c-.83-1.46-1.79-2.84-2.58-4.32s-1.35-3.07-2-4.61c-.16-.37-.73-.1-.63.27a20.62,20.62,0,0,0,5,8.88.18.18,0,0,0,.28-.22Z"/><path class="cls-16" d="M83.85,66.44c3.82-1.36,7-.39,10.16,1.85.18.14.35-.14.22-.29-2.39-3-7.21-3.42-10.46-1.75-.1,0,0,.22.08.19Z"/><path class="cls-16" d="M92.54,67.36a40.44,40.44,0,0,0,24-5.67.14.14,0,0,0-.14-.24,60.85,60.85,0,0,1-23.82,5.63.14.14,0,0,0,0,.28Z"/><path class="cls-16" d="M78.05,79.3s0,0,0,0,0,0,0,0Z"/><path class="cls-16" d="M78,78.91a11.43,11.43,0,0,0,11.3,5,.24.24,0,1,0-.07-.48,11.69,11.69,0,0,1-11.14-4.6s-.12,0-.09.06Z"/><path class="cls-16" d="M101.16,83q5.91.58,11.83,1.1l5.92.53c1.56.13,5,1.08,6.48.45,2.48-1.08.29-2.93.08-5.17,0-.24-.39-.25-.39,0,0,.82.77,2,.75,2.61-.13,3.64-5.63,1.78-7.91,1.55-5.58-.54-11.17-1.06-16.76-1.5-.28,0-.27.4,0,.43Z"/><path class="cls-16" d="M116,62.17c3.79-4.15,4.57,2.7,5,4.2s.78,2.91,1.17,4.37c.91,3.4,1.67,6.87,2.87,10.17a.21.21,0,0,0,.4-.11c-.61-3.46-1.69-6.85-2.61-10.24-.67-2.49-1.1-7.33-2.6-9.45s-3.19-.89-4.41.9c-.08.12.11.27.21.16Z"/><path class="cls-16" d="M125.45,80.53a20.08,20.08,0,0,1,6-1.07.39.39,0,0,0,.37-.49A94.9,94.9,0,0,0,126,58.67c-.19-.48-1-.27-.78.21a97.43,97.43,0,0,1,4.48,13.63c.49,2,1.76,4.73.16,6.24-.62.6-3.57.9-4.62,1.37-.23.11-.07.48.17.41Z"/><path class="cls-16" d="M118.67,60.58c2.4-.56,4.81-1,7.2-1.65a.32.32,0,0,0-.17-.61c-2.39.6-4.73,1.35-7.09,2a.12.12,0,1,0,.06.24Z"/><path class="cls-16" d="M124.58,58.91c6-3.12,11.38-4,18.06-2.55a.25.25,0,0,0,.13-.49,19.58,19.58,0,0,0-18.31,2.88c-.09.08,0,.21.12.16Z"/><path class="cls-16" d="M140.49,55.28a16.17,16.17,0,0,1,12.73,5.16c.19.19.46-.09.29-.29a14.34,14.34,0,0,0-13-5,.08.08,0,0,0,0,.15Z"/><path class="cls-16" d="M149.4,56.86c3.5-2,7-3.92,10.51-5.92,3.71-2.12,8.08-5.73,12.47-5.9a.12.12,0,0,0,0-.23c-3.61-.14-6.69,2.33-9.71,4-4.49,2.56-8.95,5.16-13.42,7.76-.15.09,0,.33.15.25Z"/><path class="cls-16" d="M99.09,36.9a22.92,22.92,0,0,1,.57,3.19,19.39,19.39,0,0,0,.26,2.52.17.17,0,0,0,.33,0c.38-1.84-.27-4.06-.8-5.81a.19.19,0,0,0-.36.1Z"/><path class="cls-16" d="M100.21,40a10.28,10.28,0,0,0,2.9-3.55c.08-.19-.21-.27-.32-.13-.47.62-.83,1.3-1.33,1.91a13.46,13.46,0,0,1-1.5,1.52c-.17.15.08.4.25.25Z"/><path class="cls-16" d="M99.84,40.68a8.73,8.73,0,0,1,1.78,1A16.5,16.5,0,0,0,103,43c.2.12.38-.11.29-.3a4,4,0,0,0-1.47-1.35,8.84,8.84,0,0,0-1.93-.94c-.21-.08-.29.24-.09.32Z"/><path class="cls-16" d="M104.52,40.46l.61-.63a.21.21,0,0,0,0-.29,1.26,1.26,0,0,0-2,1.18c.22,1.59,2.17,1.88,3.37,1.29.2-.1,0-.35-.14-.32-.88.13-2,.34-2.61-.51a1.06,1.06,0,0,1-.12-1.12.85.85,0,0,1,1.23-.23v-.29l-.61.63a.21.21,0,0,0,.3.29Z"/><path class="cls-16" d="M105.53,36.39c.94,1.9,1.83,3.86,2.85,5.72.2.37.72,0,.56-.33-.88-1.93-1.92-3.81-2.87-5.7-.18-.36-.71,0-.54.31Z"/><path class="cls-16" d="M107.83,39.49c1-1.08,2.08-2.14,3.1-3.22.29-.3-.17-.75-.45-.45-1,1.1-2,2.22-3,3.32-.22.23.13.58.35.35Z"/><path class="cls-16" d="M108.16,39.81c1.36.28,2.71.59,4.08.83.46.08.66-.61.19-.71-1.35-.29-2.72-.52-4.09-.79-.43-.08-.61.58-.18.67Z"/><path class="cls-16" d="M114.7,39.89a1.59,1.59,0,0,0,2.09.66,1.57,1.57,0,0,0,.52-2.21c-1.28-1.84-3.8.18-4.22,1.7a.28.28,0,0,0,.47.27c.68-.7,1-1.79,2.09-1.93.59-.07,1.24.2,1.18.9a.81.81,0,0,1-1.54.26.34.34,0,0,0-.59.35Z"/><path class="cls-16" d="M131.73,79.92c14.67.16,29.13.45,43.71,2.37.18,0,.18-.27,0-.29-14.41-1.79-29.19-3-43.71-2.19a.06.06,0,1,0,0,.11Z"/><path class="cls-16" d="M176,81.34c.43,1.46.9,2.9,1.39,4.34a.16.16,0,0,0,.19.11c3.85-1.19,1-6.37,1.32-8.93,0-.14-.22-.17-.25,0-.35,1.85.47,3.37.64,5.19a3.15,3.15,0,0,1-.36,2.27c-.17.7-.65.93-1.43.69l-.21-.62a19,19,0,0,1-1-3.09c-.06-.17-.32-.1-.26.07Z"/><path class="cls-16" d="M171.14,45.24l.82,1.29-.13.59c0-.14-.12.84-.13.92a10.21,10.21,0,0,0,0,2.14,9.72,9.72,0,0,0,1.74,4.45c.08.11.26,0,.19-.11a10.63,10.63,0,0,1-1.7-5,13.1,13.1,0,0,1,.26-2.93,3.29,3.29,0,0,0,.16-1c-.15-.76-1-1.28-1.43-.46a.11.11,0,0,0,.18.11Z"/><path class="cls-16" d="M173.25,54.7c4.95,6.08,4.45,15.56,5.4,23,0,.23.41.24.38,0-.86-6.95-.29-17.78-5.73-23.07a0,0,0,1,0-.05.06Z"/><path class="cls-16" d="M173.11,53.87a52,52,0,0,0,3.72,6c.38.48.86,1.17,1.53,1.27,1.81.26,1.84-1.62,1.55-2.85-.63-2.75-1.89-4.89-2.19-7.81-.13-1.33.07-3-.65-4.18-1.12-1.89-3.43-1.61-5.2-.9a.18.18,0,0,0,.09.35c1.75-.28,3.74-1,4.85,1.41a9.4,9.4,0,0,1,.3,2.81,21.49,21.49,0,0,0,.87,4.63,17,17,0,0,1,.73,2q.21.49.45,1l-2.27,1.86c-.71-.08-3.14-5-3.59-5.62a.11.11,0,0,0-.19.11Z"/><path class="cls-16" d="M169.7,45.56a36,36,0,0,0-.76,5c0,.11.17.13.2,0a37.72,37.72,0,0,0,.63-5,0,0,0,0,0-.07,0Z"/><path class="cls-16" d="M178.52,61.58a22.09,22.09,0,0,1,.78,3.21c.08.51.42,1.68-.33,1.86s-1.17-.56-1.4-1.07c0-.11-.22,0-.22.06,0,1.14,1.46,1.59,2.34,1.08a.15.15,0,0,0,.07-.13,16,16,0,0,0-1-5.07c-.05-.12-.24-.08-.2.06Z"/><path class="cls-16" d="M169.36,45.62a37.14,37.14,0,0,1-5.66,14.11c0,.06.06.12.1.06a31.72,31.72,0,0,0,5.8-14.1c0-.16-.22-.23-.24-.07Z"/><path class="cls-16" d="M161,51.16c.36,1.34,2.26,2.33,3.56,2.29.12,0,.16-.2,0-.22a5.84,5.84,0,0,1-2-.66,9.44,9.44,0,0,1-1.51-1.45.05.05,0,0,0-.09,0Z"/><path class="cls-16" d="M149.37,58.59c-4.5,3.3-1,9.77-3.6,14.06a0,0,0,0,0,.08,0c3.08-4.26-.82-10.34,3.61-14,.07-.05,0-.17-.09-.12Z"/><path class="cls-16" d="M141.8,56.16c2-.28,2.89,1.71,3.75,3.13a.07.07,0,0,0,.13,0c-.55-1.68-1.9-3.67-3.93-3.26-.12,0-.06.19.05.18Z"/><path class="cls-16" d="M154.17,55.83a29.74,29.74,0,0,1,5,2.44.1.1,0,0,0,.1-.17,21.33,21.33,0,0,0-5-2.5c-.15-.05-.21.18-.06.23Z"/><path class="cls-16" d="M139.68,77.59a68.29,68.29,0,0,1,14.59,2.8.09.09,0,0,0,0-.18,44.59,44.59,0,0,0-14.64-2.85.12.12,0,0,0,0,.23Z"/><path class="cls-16" d="M167.81,78.14c1,.34,2,.71,3.07,1a.05.05,0,0,0,0-.1c-1-.4-2-.7-3.06-1-.09,0-.12.11,0,.14Z"/><path class="cls-16" d="M53.76,59.49c1.9.78,4.91.18,6.61-.88.1-.07,0-.24-.09-.2a21.85,21.85,0,0,1-3,.88c-1.19.19-2.34,0-3.52.1a.05.05,0,0,0,0,.1Z"/><path class="cls-16" d="M55.56,59.89c-.3.57.36,1.41,1,1,.45-.31.35-1.32-.28-1.29a.1.1,0,0,0-.06.19.6.6,0,0,1,.34.64c-.16.55-1,.12-.76-.42a.12.12,0,0,0-.21-.12Z"/><path class="cls-16" d="M54.2,56.93A1.09,1.09,0,0,0,55.45,58c1.42-.06,2.06-1.82,3.61-1.44.13,0,.23-.17.1-.23a1.79,1.79,0,0,0-1.71.22c-.77.46-2.68,2.27-3.12.37a.07.07,0,0,0-.13,0Z"/><path class="cls-16" d="M54.38,61.47c1.57-.1,3.13-.35,4.69-.54.22,0,.22-.37,0-.34-1.57.2-3.16.37-4.72.67-.12,0-.09.22,0,.21Z"/><path class="cls-16" d="M86.16,97.84a21.89,21.89,0,0,1-5.52,4.81c-.06,0,0,.16.06.13A12.88,12.88,0,0,0,86.42,98c.11-.16-.15-.3-.26-.15Z"/><path class="cls-16" d="M81.65,102.31a3.3,3.3,0,0,0-.19.43s.05.07.07,0a3.11,3.11,0,0,0,.22-.4.06.06,0,1,0-.1-.06Z"/><path class="cls-16" d="M83.11,101.67l-2.19,1.49a.12.12,0,0,0,.09.21,93.35,93.35,0,0,0,9.23-2.25.08.08,0,1,0,0-.15c-1.92.28-3.82.84-5.71,1.3a21.07,21.07,0,0,0-2.84.7,9.37,9.37,0,0,1,1.54-1.17c.07,0,0-.18-.08-.13Z"/><path class="cls-16" d="M87.43,101.91a78.05,78.05,0,0,0,7.8-.8c.16,0,.12-.28,0-.28a77.81,77.81,0,0,0-7.76.65c-.27,0-.27.45,0,.43Z"/><path class="cls-16" d="M95,101.06a1.5,1.5,0,0,0-.21-1.57c-.32-.41-1-.81-1.54-.49a.23.23,0,0,0,.12.43c.41,0,.7,0,1,.28a1,1,0,0,1,.32,1.18c-.08.19.19.35.28.17Z"/><path class="cls-16" d="M81,102.07c-2.85,1.26-5.76,2.62-8.47,4.13-.92.52-1.79,1.25-.94,2.26.12.14.32-.06.2-.21-1.15-1.38,3.81-3.22,4.46-3.55,1.63-.8,3.27-1.57,4.86-2.44.13-.07,0-.25-.11-.19Z"/><path class="cls-16" d="M77.72,105.39c-2.07.91-4.08,2-6.1,3a.13.13,0,0,0-.05.19,3.08,3.08,0,0,0,1.32,1.4c.13.08.24-.11.12-.2-.75-.54-1.45-1-.38-1.58l1.74-.88c1.15-.58,2.32-1.15,3.44-1.8.1-.05,0-.19-.09-.15Z"/><path class="cls-16" d="M77.67,106c-.59,2-3.34,1.37-4.28,3-.43.76-.2,2,.76,2.11.16,0,.16-.2,0-.25-1.22-.47-.64-1.88.17-2.38a12.4,12.4,0,0,1,1.85-.76,2.63,2.63,0,0,0,1.66-1.67.1.1,0,0,0-.2-.06Z"/><path class="cls-16" d="M80.31,105.62l-3.39,2.48a5.36,5.36,0,0,0-1.84,1.73c-.39.84.42,2.26,1.37,1.54a.13.13,0,0,0-.13-.23c-1-.59-1.23-1.16-.58-1.72a5.91,5.91,0,0,1,.66-.56l1.34-1,2.68-2c.11-.09,0-.28-.11-.2Z"/><path class="cls-16" d="M77,112a30.13,30.13,0,0,1,12.87-6.29c.27-.06.15-.46-.11-.4a26.75,26.75,0,0,0-12.89,6.56c-.1.08,0,.21.13.13Z"/><path class="cls-16" d="M89,105.89A7.35,7.35,0,0,0,95.36,101c0-.16-.21-.28-.28-.12a8.07,8.07,0,0,1-6,4.91c-.08,0-.06.14,0,.13Z"/><path class="cls-16" d="M83.63,100.57a19.51,19.51,0,0,0-3.41-1.06c-.6-.14-1.73-.6-2.26,0a1,1,0,0,0,.05,1.24,1.33,1.33,0,0,0,.66.45c.61.22,2.72.08,2.18,1.35-.09.22.27.32.36.1.37-.9-.51-1.47-1.28-1.62l-1-.14c-.37-1-.24-1.36.4-1.1a4.55,4.55,0,0,1,1.15.25c1,.23,2,.54,3.06.77.1,0,.19-.15.08-.2Z"/><path class="cls-16" d="M77.56,107.7a4.28,4.28,0,0,0,.65.81.08.08,0,0,0,.13-.1,4.5,4.5,0,0,0-.61-.84c-.08-.09-.24,0-.17.13Z"/><path class="cls-16" d="M78,107.94l.42.19c.06,0,.11-.06,0-.09l-.4-.22c-.08,0-.15.08-.07.12Z"/><path class="cls-16" d="M81,82.23a27.52,27.52,0,0,0,2.76,4.45c.06.06.17,0,.14-.08A25.94,25.94,0,0,0,81.31,82a.2.2,0,0,0-.34.2Z"/><path class="cls-16" d="M82.94,86.24s0,0,0,0,0,0,0,0Z"/><path class="cls-16" d="M83.1,86a78.62,78.62,0,0,0-2.59,7.77c0,.08.11.14.14.06a79.23,79.23,0,0,0,2.66-7.78c0-.13-.16-.18-.21,0Z"/><path class="cls-16" d="M81.56,90.47c-.68,1.9-1.39,3.8-2,5.71-.06.15.17.21.23.07.71-1.89,1.37-3.81,2-5.71.06-.16-.19-.23-.25-.07Z"/><path class="cls-16" d="M80.27,95.18a6.77,6.77,0,0,1-2.63.51c-.12,0-.16.2,0,.22a4.34,4.34,0,0,0,2.74-.6c.08,0,0-.17-.08-.13Z"/><path class="cls-16" d="M79.07,96s0,0,0,0a0,0,0,0,0,0,0Z"/><path class="cls-16" d="M78.86,96a0,0,0,1,0,0,0s0,0,0,0Z"/><path class="cls-16" d="M79,95.48a.92.92,0,0,0-.53,1.58c.83.81,2.13.16,2.79-.53a.09.09,0,0,0-.11-.14,3.71,3.71,0,0,1-1.72.76,1,1,0,0,1-.94-.46.69.69,0,0,1,.51-1,.1.1,0,0,0,0-.2Z"/><path class="cls-16" d="M79.94,96.94a8.83,8.83,0,0,1,3.82-.8.11.11,0,0,0,0-.22,7,7,0,0,0-3.94.82c-.13.07,0,.27.12.2Z"/><path class="cls-16" d="M82.15,96.52a23.25,23.25,0,0,0,3.29-1c.11,0,0-.19-.07-.17a22.48,22.48,0,0,0-3.27,1c-.11,0-.07.22.05.18Z"/><path class="cls-16" d="M85,95.76c.63-.07,1.26-.12,1.87-.23a.12.12,0,0,0,0-.24c-.61,0-1.22.11-1.84.18-.18,0-.18.32,0,.29Z"/><path class="cls-16" d="M86.41,95.42s0,0,0,0,0,0,0,0Z"/><path class="cls-16" d="M82.68,86.26c.4.63.79,1.26,1.25,1.85.06.08.18,0,.13-.1-.35-.65-.78-1.25-1.19-1.86-.08-.11-.27,0-.19.11Z"/><path class="cls-16" d="M90,86.58a20.68,20.68,0,0,0-1.2,2.28c0,.08.08.11.12,0a21.92,21.92,0,0,0,1.26-2.22c.06-.12-.12-.22-.18-.11Z"/><path class="cls-16" d="M89.07,88.69s0,0,0,0a0,0,0,1,0,0,0Z"/><path class="cls-16" d="M82.27,91c.48.33,1,.69,1.44,1,.05,0,.11,0,.07-.09-.47-.36-1-.68-1.44-1-.07,0-.13.06-.07.11Z"/><path class="cls-16" d="M90.61,86.86a19.28,19.28,0,0,0,1.46,3.28.1.1,0,0,0,.19-.08,19.14,19.14,0,0,0-1.45-3.28.11.11,0,0,0-.2.08Z"/><path class="cls-16" d="M91.25,86.86a8,8,0,0,0,.82,2.26s.13,0,.13,0a8.61,8.61,0,0,0-.83-2.27c0-.07-.15,0-.12,0Z"/><path class="cls-16" d="M94,71a20.78,20.78,0,0,0,3.51,2.18c.14.06.31-.12.18-.23a20.56,20.56,0,0,0-3.52-2.24A.17.17,0,0,0,94,71Z"/><path class="cls-16" d="M94.52,72.21a27,27,0,0,0,2.24,2.65.11.11,0,0,0,.17-.13A27.29,27.29,0,0,0,94.69,72c-.1-.12-.27,0-.17.17Z"/><path class="cls-16" d="M94.92,72.26a4.37,4.37,0,0,1,1.09.92c.29.34.48.73.76,1.06,0,.06.13,0,.12-.07A3.62,3.62,0,0,0,95.05,72a.13.13,0,0,0-.13.22Z"/><path class="cls-16" d="M83.22,75.21a11.38,11.38,0,0,0,.25,2.47.06.06,0,0,0,.12,0,11.24,11.24,0,0,0-.18-2.45.1.1,0,0,0-.19,0Z"/><path class="cls-16" d="M83.84,76.06a8.46,8.46,0,0,0,.68,1.84s.13,0,.12,0A7.44,7.44,0,0,0,84.08,76c0-.15-.29-.08-.24.07Z"/><path class="cls-16" d="M83.74,77.05l.21.61s0,0,0,0l-.2-.61s0,0,0,0Z"/><path class="cls-16" d="M126.21,78.49c.88-.21,1.78-.39,2.65-.63.07,0,0-.11,0-.1-.89.18-1.77.41-2.65.62a.06.06,0,0,0,0,.11Z"/><path class="cls-16" d="M124.6,78c1.16-.31,2.34-.6,3.48-1a.14.14,0,0,0-.07-.27c-1.16.31-2.31.7-3.46,1.06a.09.09,0,0,0,0,.17Z"/><path class="cls-16" d="M124,76.23c1.22-.37,2.51-.67,3.69-1.16a.13.13,0,1,0-.07-.24c-1.25.28-2.47.78-3.68,1.18-.14,0-.09.27.06.22Z"/><path class="cls-16" d="M123.61,74.09A12.4,12.4,0,0,1,128,72.91c.19,0,.19-.31,0-.3a10.85,10.85,0,0,0-4.55,1.27c-.13.07,0,.27.12.21Z"/><path class="cls-16" d="M122.56,71a48.26,48.26,0,0,0,4.9-1,.1.1,0,0,0,0-.2,46.76,46.76,0,0,0-4.94,1c-.15,0-.08.26.07.23Z"/><path class="cls-16" d="M121.13,69.18a24.34,24.34,0,0,1,5.07-1,.12.12,0,1,0,0-.23,13.46,13.46,0,0,0-5.12,1c-.12.05-.07.23,0,.19Z"/><path class="cls-16" d="M121.13,67.16a40.77,40.77,0,0,0,4.69-1c.11,0,.1-.22,0-.21a40.67,40.67,0,0,0-4.73,1c-.14,0-.08.25.06.22Z"/><path class="cls-16" d="M122.16,65.34c1.48-.34,3-.57,4.48-1,.1,0,.09-.22,0-.2-1.52.19-3,.65-4.52,1-.17,0-.1.29.07.26Z"/><path class="cls-16" d="M120.51,63.67a54.39,54.39,0,0,0,5.32-1.62.15.15,0,0,0-.08-.28,51.6,51.6,0,0,0-5.31,1.62c-.18.06-.1.33.07.28Z"/><path class="cls-16" d="M120.73,61.45l2.08-.62a8.85,8.85,0,0,0,1.82-.61.09.09,0,0,0,0-.17,9.12,9.12,0,0,0-1.84.5l-2.09.63a.14.14,0,0,0,.08.27Z"/><path class="cls-16" d="M123.78,63.87a26.15,26.15,0,0,0,2.65-.62.08.08,0,0,0,0-.16,27,27,0,0,0-2.66.61c-.11,0-.06.19,0,.17Z"/><path class="cls-16" d="M124.57,67.57c1.17-.11,2.35-.19,3.51-.38.16,0,.13-.31,0-.29-1.17.08-2.34.28-3.5.44-.13,0-.1.24,0,.23Z"/><path class="cls-16" d="M125.18,69.52c1.22-.11,2.49-.16,3.69-.39a.08.08,0,0,0,0-.16c-1.22,0-2.46.26-3.67.41-.09,0-.09.15,0,.14Z"/><path class="cls-16" d="M125.57,71.93a31.78,31.78,0,0,0,3.91-.59.11.11,0,0,0,0-.21,30.35,30.35,0,0,0-3.9.59c-.12,0-.1.23,0,.21Z"/><path class="cls-16" d="M126,74.47c1.43-.18,2.9-.29,4.31-.59a.11.11,0,0,0,0-.21c-1.44.08-2.88.38-4.31.59-.12,0-.09.23,0,.21Z"/><path class="cls-16" d="M127.23,75.84a18.52,18.52,0,0,0,2.46-.39c.1,0,.09-.21,0-.2a18.64,18.64,0,0,0-2.45.49.05.05,0,0,0,0,.1Z"/><path class="cls-16" d="M128.07,77.16a15.37,15.37,0,0,0,2.25-.67c.06,0,0-.13,0-.13a14.94,14.94,0,0,0-2.28.58.11.11,0,0,0,.06.22Z"/><path class="cls-16" d="M119.89,87c1.83-.19,3.71-.31,5.53-.65.09,0,.07-.16,0-.16-1.83.07-3.68.37-5.5.6-.13,0-.14.22,0,.21Z"/><path class="cls-16" d="M49.43,72.82a52.76,52.76,0,0,0-4.94,2,.13.13,0,0,0,.11.24,50.17,50.17,0,0,0,4.93-2c.12-.06,0-.27-.1-.22Z"/><path class="cls-16" d="M49.27,74.67a.07.07,0,1,0,0-.15.07.07,0,0,0,0,.15Z"/><path class="cls-16" d="M48.78,74.66c-1,.69-2,1.34-2.87,2.08-.11.09,0,.27.15.2,1-.63,1.92-1.34,2.87-2,.14-.11,0-.35-.15-.25Z"/><path class="cls-16" d="M43.49,73.83a1.88,1.88,0,0,0-3.09,1.39l.31-.17a1.9,1.9,0,0,0-2.09.77c-.22.32-.16.7-.33,1s-.47.34-.65.59c-1.29,1.88,1.81,2.73,3.07,2.39a.14.14,0,0,0,0-.27c-.38,0-.73,0-1.1,0l-.67-.1c-.91-.22-1-.9-.34-2,.12,0,.26-.1.24-.24a1.41,1.41,0,0,1,1.77-1.57.26.26,0,0,0,.31-.24A1.52,1.52,0,0,1,43.37,74c.13.08.24-.12.12-.21Z"/><path class="cls-16" d="M41.91,79.69a1.93,1.93,0,0,0,1.63,2.12c.93.13,2.18-.59,2.12-1.64a.14.14,0,0,0-.26-.06c-.41.61-.83,1.24-1.67,1.23a1.74,1.74,0,0,1-1.6-1.65.11.11,0,0,0-.22,0Z"/><path class="cls-16" d="M47,80.31a1.55,1.55,0,0,0,1.62-.93c.21-.52.11-1.56-.54-1.73a.21.21,0,0,0-.25.26c.15.43.51.65.41,1.18a1.09,1.09,0,0,1-1.24.84c-.24,0-.24.35,0,.38Z"/><path class="cls-16" d="M48.61,61.64a2.73,2.73,0,0,0-1.92.77,1.27,1.27,0,0,0-.12,1.47,1.13,1.13,0,0,0,1.46.25,2.08,2.08,0,0,0,1-1.77.17.17,0,0,0-.32-.09c-.24.39-.29.88-.62,1.22s-1,.48-1.16-.06c-.35-1,1.08-1.36,1.76-1.48.18,0,.14-.34,0-.31Z"/><path class="cls-16" d="M48.14,56.91a2.69,2.69,0,0,0-2,.4,1.29,1.29,0,0,0-.36,1.35c.48,1.29,2.27.13,2.29-.85a.2.2,0,0,0-.33-.14c-.29.24-.39.64-.69.88s-.88.24-.91-.31c0-1,1.29-1.07,2-1.05.17,0,.17-.26,0-.28Z"/><path class="cls-16" d="M84.16,55.41A2.8,2.8,0,0,1,86.56,57c.08.17.28.52.18.7s-.55.06-.73,0c-.46-.28-.47-.69-.62-1.16a.12.12,0,0,0-.22,0c-.33.45,0,1,.39,1.33a1.45,1.45,0,0,0,1.49.26.18.18,0,0,0,.13-.18,3,3,0,0,0-3-2.74.15.15,0,0,0,0,.3Z"/><path class="cls-16" d="M62.9,67.21c.42.16,1,.4,1,.91,0,.29-.18.77-.54.52-.13-.09-.16-.28-.22-.42a.12.12,0,0,0-.17,0c-.63.42.54,1.32,1.09.69.75-.86-.35-1.71-1.09-2-.19-.07-.27.23-.08.29Z"/><path class="cls-16" d="M70.34,76.8A1.28,1.28,0,0,1,70.77,78l.27-.1a1.47,1.47,0,0,1-.69-.59c-.12-.18-.15-.34-.36-.43a.15.15,0,0,0-.2.09c-.23.56.7,1.08,1.11,1.25a.17.17,0,0,0,.22-.12,1.68,1.68,0,0,0-.55-1.56c-.15-.13-.38.09-.23.23Z"/><path class="cls-16" d="M66.89,77.9l.57,1.66.08-.19a.9.9,0,0,1-1-.12c-.15-.14-.16-.24-.37-.31a.19.19,0,0,0-.23.18c0,.36.36.55.67.64a1.36,1.36,0,0,0,1.08-.09.18.18,0,0,0,.08-.2l-.63-1.64c-.06-.17-.33-.1-.27.07Z"/><path class="cls-16" d="M69.59,54.93c.39.07.82.25,1.19.06a.18.18,0,0,0,0-.27c-.26-.29-.71-.29-1.07-.37s-.54.51-.16.58Z"/><path class="cls-16" d="M54,48.11a2.11,2.11,0,0,0-1.82-.39,1,1,0,0,0-.68,1.12c.17.71,1.58.75,1.37-.06,0-.11-.2-.18-.28-.08-.22.28-.75.25-.56-.22.28-.74,1.3-.27,1.77,0a.19.19,0,0,0,.2-.33Z"/><path class="cls-16" d="M63.44,48.21a2.69,2.69,0,0,1,2.8-.36v-.39l-1.58.8c-.28.15,0,.58.25.43.52-.27,1-.55,1.56-.84a.23.23,0,0,0,0-.41,3.45,3.45,0,0,0-3.15.55c-.12.1,0,.32.17.22Z"/><path class="cls-16" d="M54.56,61.6c.36.12.77.08,1.14.2a3.49,3.49,0,0,1,1.2.68.18.18,0,0,0,.26-.25c-.53-.59-1.85-1.21-2.61-.75a.07.07,0,0,0,0,.12Z"/><path class="cls-16" d="M57.52,73.1c-.07.13-.14.27-.2.41s.15.29.23.14a4,4,0,0,0,.21-.41c.08-.16-.16-.31-.24-.14Z"/><path class="cls-16" d="M58.17,73.33a2.1,2.1,0,0,0-.22.42c0,.12.13.17.19.08a2.11,2.11,0,0,0,.2-.43c0-.1-.11-.16-.17-.07Z"/><path class="cls-16" d="M54.05,74.42a8.55,8.55,0,0,0,.06-1l-.15.11,1,.2c.13,0,.18-.17.06-.2l-1-.22a.11.11,0,0,0-.15.11,8,8,0,0,0,0,1c0,.09.14.12.16,0Z"/><path class="cls-16" d="M54.09,75.21a.66.66,0,0,0,0,.2.07.07,0,0,0,.14,0,.65.65,0,0,0,0-.2c0-.11-.18-.11-.17,0Z"/><path class="cls-16" d="M70.23,61.75a1.06,1.06,0,0,1,1.54,1.18.26.26,0,0,0,.5.14,1.47,1.47,0,0,0-.54-1.65,1.27,1.27,0,0,0-1.63.16c-.1.08,0,.22.13.17Z"/><path class="cls-16" d="M70.3,64.44c.25-.68.9-.07.71.31a.18.18,0,0,0,.3.18c.59-.91-1-1.62-1.22-.55a.11.11,0,0,0,.21.06Z"/><path class="cls-16" d="M81.66,39.16c.63.37,1.48.33,2.16.65a4.64,4.64,0,0,1,2,1.77c.27.44,1,0,.69-.41a5.16,5.16,0,0,0-2.27-2c-.68-.3-1.9-.65-2.56-.16a.11.11,0,0,0,0,.19Z"/><path class="cls-16" d="M68.86,45.72a6.11,6.11,0,0,1,4.67,1.35c.31.26.75-.16.45-.44a5.09,5.09,0,0,0-5.15-1.13c-.11,0-.1.23,0,.22Z"/><path class="cls-16" d="M77.84,95.59c-1.14-.06-2.29-.12-3.44-.16a9.33,9.33,0,0,0-2.42,0c-.73.17-1.39.89-.88,1.61.06.08.21,0,.18-.08-.56-1.73,2.69-1.22,3.37-1.2,1.06,0,2.13.06,3.19.07a.13.13,0,0,0,0-.25Z"/><path class="cls-16" d="M72.28,97.19A1,1,0,0,0,71,96.64,1.1,1.1,0,0,0,70.37,98c0,.16.29.09.25-.07a.87.87,0,0,1,.56-1,1,1,0,0,1,1,.39.06.06,0,0,0,.1-.06Z"/><path class="cls-16" d="M71.11,97.15a19.44,19.44,0,0,0,4.3-.65.07.07,0,0,0,0-.14,19.69,19.69,0,0,0-4.31.58c-.11,0-.09.22,0,.21Z"/><path class="cls-16" d="M74.23,97.38c-1,.87-2.74-.3-3.65.77-.4.48-.29,1.41.41,1.51.15,0,.23-.21.06-.24a.6.6,0,0,1-.4-.76.94.94,0,0,1,.71-.65,4.35,4.35,0,0,1,1.3,0,2.17,2.17,0,0,0,1.67-.49c.07-.06,0-.16-.1-.1Z"/><path class="cls-16" d="M77,97.25h0s0,0,0,0Z"/><path class="cls-16" d="M75,98.12a29.57,29.57,0,0,0-3.5,1.23c-.42.22-.85.58-.62,1.1s.94.49,1.42.36a33.75,33.75,0,0,0,3.77-1.52c.14-.05.08-.29-.07-.23l-1.72.7a6.57,6.57,0,0,1-1.89.76c-.27.16-.39,0-.36-.49-.36-.42-.3-.65.16-.69a3.44,3.44,0,0,1,.9-.32l2-.72c.12,0,.07-.22,0-.18Z"/><path class="cls-16" d="M75.22,99.79c1.06-.4,2.1-.82,3.17-1.2.47-.17.94-.35,1.42-.5a6.09,6.09,0,0,1,.61-.17c1.09-.37,1.62.23,1.58,1.8-.1.06,0,.24.08.19.93-.38.71-1.67-.07-2.11s-1.9,0-2.69.25a43.43,43.43,0,0,0-4.12,1.69s0,.06,0,.05Z"/><path class="cls-16" d="M83.23,100.36a28.6,28.6,0,0,1,5.11-5.26c.09-.07,0-.23-.13-.16a19.08,19.08,0,0,0-5.18,5.3c-.09.13.11.23.2.12Z"/><path class="cls-16" d="M80.27,91.55c-8.77.82-17.63,1.54-26.34,2.79-.23,0-.18.42,0,.41C62.75,94.14,71.54,93,80.27,92c.25,0,.26-.42,0-.4Z"/><path class="cls-16" d="M100.09,91.11c14.39-.23,28.72-.63,43.12-.2s28.66,1.88,43,2.82c.24,0,.31-.4.06-.44-13.88-2-28.1-2.62-42.1-3.05a408,408,0,0,0-44.1.6c-.18,0-.18.28,0,.27Z"/><path class="cls-16" d="M92.38,103.57a.49.49,0,0,0,0,.24.12.12,0,0,0,.23,0,.49.49,0,0,0,0-.24c0-.2-.33-.2-.31,0Z"/><path class="cls-16" d="M92.93,104c7.88-.37,15.83-.81,23.68-1.63.3,0,.31-.48,0-.47-7.89.31-15.82,1-23.68,1.78-.2,0-.21.33,0,.32Z"/><path class="cls-16" d="M71.92,106.85A66.21,66.21,0,0,0,56,108.41c-.16,0-.09.24.06.22,5.29-.74,10.57-1.11,15.87-1.66a.06.06,0,0,0,0-.12Z"/><path class="cls-16" d="M70.46,97.93c-3.75.82-7.55,1.74-11.22,2.88a.09.09,0,0,0,0,.18c3.76-.76,7.54-1.79,11.22-2.88a.09.09,0,0,0-.05-.18Z"/><path class="cls-16" d="M97.84,96.41c2.64,0,5.33.21,8,0a.15.15,0,0,0,0-.3c-2.63-.17-5.32,0-8,.07-.13,0-.13.21,0,.21Z"/><path class="cls-16" d="M101.12,94.9a33.11,33.11,0,0,0-4,10.27.14.14,0,0,0,.28.07c1.24-3.47,2.54-6.81,4-10.19.07-.17-.16-.32-.26-.15Z"/><path class="cls-16" d="M104.45,95.58a64.49,64.49,0,0,1-3.47,8.73.13.13,0,0,0,.23.14,28,28,0,0,0,3.53-8.79.15.15,0,0,0-.29-.08Z"/><path class="cls-16" d="M108.1,96.55a73.25,73.25,0,0,0-3.21,7.81.11.11,0,0,0,.2.09,74.85,74.85,0,0,0,3.28-7.78c.07-.16-.21-.28-.27-.12Z"/><path class="cls-16" d="M113.36,98.42c-.53,1.7-1.09,3.4-1.54,5.13a.1.1,0,0,0,.2,0c.63-1.67,1.17-3.38,1.72-5.08.08-.24-.3-.34-.38-.1Z"/><path class="cls-16" d="M117.08,95.58a51.94,51.94,0,0,1-2.8,9.2c0,.14.17.22.24.1a27.56,27.56,0,0,0,2.82-9.23c0-.17-.24-.25-.26-.07Z"/><path class="cls-16" d="M120.69,97.8c-.74,2-1.51,3.94-2.16,5.94,0,.11.14.19.19.08.85-1.94,1.59-3.93,2.36-5.91.1-.25-.3-.36-.39-.11Z"/><path class="cls-16" d="M123.86,98.85l-.8,2.25a.08.08,0,0,0,.16.05l.84-2.24c0-.12-.15-.18-.2-.06Z"/><path class="cls-16" d="M126.37,98.2c-.6,2-1.29,4.07-1.75,6.15a.17.17,0,0,0,.32.08c.75-2,1.3-4.06,1.92-6.09.1-.32-.4-.45-.49-.14Z"/><path class="cls-16" d="M131.74,95.37a70.31,70.31,0,0,0-2.61,7.56c0,.2.25.35.35.15a72.07,72.07,0,0,0,2.74-7.58c.11-.3-.37-.43-.48-.13Z"/><path class="cls-16" d="M136.37,95.44c-.59,1.48-1,3-1.51,4.55a35.53,35.53,0,0,0-1.68,4.47c0,.19.22.41.37.22a14.48,14.48,0,0,0,1.89-4.2,20.6,20.6,0,0,0,1.2-5c0-.17-.22-.17-.27,0Z"/><path class="cls-16" d="M140.94,95.16c-.91,2.83-2.28,5.8-2.6,8.77,0,.15.21.2.27.08,1.37-2.66,1.85-5.9,2.65-8.76a.17.17,0,0,0-.32-.09Z"/><path class="cls-16" d="M143.64,95.32c-.84,2.78-2.07,5.69-2.48,8.56,0,.25.32.47.45.19,1.22-2.65,1.77-5.79,2.56-8.6a.28.28,0,0,0-.53-.15Z"/><path class="cls-16" d="M151.36,96.43c-.52,1.35-.85,2.75-1.25,4.13a37.44,37.44,0,0,0-1.2,4.13c0,.23.27.39.39.16a21.46,21.46,0,0,0,2.39-8.37c0-.2-.27-.21-.33,0Z"/><path class="cls-16" d="M156.13,96c-1.17,4.08-2.66,8.24-3.38,12.42a.14.14,0,0,0,.27.07,119.58,119.58,0,0,0,3.45-12.39.18.18,0,0,0-.34-.1Z"/><path class="cls-16" d="M160.65,96.2c-.93,4.57-2.49,9-3.28,13.62,0,.13.17.24.23.1,1.88-4.21,2.64-9.1,3.42-13.61,0-.24-.32-.35-.37-.11Z"/><path class="cls-16" d="M164.8,96.44c-1.45,5-3,9.93-4.16,15a.25.25,0,0,0,.49.13c1.57-4.92,2.79-10,4.08-15a.21.21,0,0,0-.41-.11Z"/><path class="cls-16" d="M170.16,96.8a124.81,124.81,0,0,0-2.61,14.71.18.18,0,0,0,.36,0,124.57,124.57,0,0,0,2.67-14.65c0-.27-.36-.39-.42-.11Z"/><path class="cls-16" d="M177.2,98.68c-.42,4.06-2,7.23-3.72,10.85-.1.23.19.51.37.29,2.53-3,3.58-7.32,3.9-11.14,0-.36-.51-.35-.55,0Z"/><path class="cls-16" d="M174.3,98.46c-1.6,4.74-3.5,9.5-4.71,14.35a.17.17,0,0,0,.33.09c1.91-4.62,3.2-9.58,4.73-14.34.08-.23-.28-.33-.35-.1Z"/><path class="cls-16" d="M147.24,96.38c-.73,3.65-1.73,7.24-2.46,10.87,0,.12.15.21.2.09a36.89,36.89,0,0,0,2.58-10.91.16.16,0,0,0-.32-.05Z"/><path class="cls-16" d="M144.38,99.44c-.67,1.9-1.41,3.8-1.95,5.74,0,.11.14.19.19.08.82-1.86,1.45-3.81,2.14-5.72.09-.23-.3-.34-.38-.1Z"/><path class="cls-16" d="M133.43,96.81c-1.14,3-2.39,6-3.38,9.13,0,.12.15.2.2.09,1.26-3,2.3-6.1,3.42-9.16.06-.15-.19-.22-.24-.06Z"/><path class="cls-16" d="M127.88,99.85c-.68,2.05-1.35,4.09-2,6.15,0,.12.15.17.2,0,.73-2,1.42-4.06,2.11-6.1.07-.21-.27-.3-.33-.1Z"/><path class="cls-16" d="M127.06,95A72.89,72.89,0,0,1,123.29,107c0,.11.14.19.2.08A40.29,40.29,0,0,0,127.33,95c0-.18-.24-.26-.27-.08Z"/><path class="cls-16" d="M123.63,95a56.66,56.66,0,0,1-3.72,10.79c0,.12.15.19.22.09A31.58,31.58,0,0,0,123.9,95c0-.18-.24-.25-.27-.07Z"/><path class="cls-16" d="M118.76,97.22c-.76,2.64-1.66,5.28-2.24,8a.13.13,0,0,0,.24.07c.9-2.6,1.51-5.32,2.23-8a.12.12,0,0,0-.23-.06Z"/><path class="cls-16" d="M111.81,97.22c-.94,2.76-2,5.51-2.78,8.32a.15.15,0,0,0,.29.08c1.08-2.7,1.86-5.56,2.75-8.33.06-.17-.2-.24-.26-.07Z"/><path class="cls-16" d="M109.32,98.59c-1,2.17-2.16,4.33-3.07,6.57,0,.13.17.21.23.09,1.15-2.1,2.11-4.33,3.14-6.49.09-.2-.21-.38-.3-.17Z"/><path class="cls-16" d="M102.41,96.6A26.06,26.06,0,0,1,99,104.76c-.06.1.09.19.17.09a20.25,20.25,0,0,0,3.48-8.18c0-.15-.2-.21-.23-.07Z"/><path class="cls-16" d="M105.86,95.58c-.86,3.56-2.18,6.92-3.21,10.42a.09.09,0,0,0,.17.07,47.21,47.21,0,0,0,3.32-10.42.14.14,0,0,0-.28-.07Z"/><path class="cls-16" d="M91.33,105.92c-.76,1.5-1.6,3-2.24,4.53-.06.15.17.23.25.11.85-1.44,1.51-3,2.24-4.49.09-.17-.16-.32-.25-.15Z"/><path class="cls-16" d="M88.35,107.18c-.9,1.56-1.81,3.12-2.61,4.72,0,.09.08.17.13.08,1-1.51,1.83-3.09,2.7-4.66.09-.15-.14-.28-.22-.14Z"/><path class="cls-16" d="M85.27,108.15a17.28,17.28,0,0,0-3.64,5,.13.13,0,0,0,.22.13,28.48,28.48,0,0,1,3.57-4.94.11.11,0,1,0-.15-.15Z"/><path class="cls-16" d="M81.17,109.81c-1.12,1.69-2.25,3.36-3.25,5.12-.06.11.1.19.17.09,1.18-1.64,2.24-3.36,3.3-5.07.1-.15-.13-.28-.22-.14Z"/><path class="cls-16" d="M76.33,100.49c-.33,1.22-.73,2.44-1,3.68a.08.08,0,0,0,.16,0c.4-1.2.65-2.46,1-3.69a.08.08,0,0,0-.16,0Z"/><path class="cls-16" d="M73.7,100.91a47.49,47.49,0,0,0-1.6,4.9c0,.1.12.17.16.07A48.9,48.9,0,0,0,73.93,101c0-.15-.18-.21-.23-.06Z"/><path class="cls-16" d="M70.75,99.86c-.59,1.76-1.28,3.53-1.72,5.34,0,.17.2.23.26.07.69-1.73,1.15-3.57,1.69-5.35,0-.15-.18-.2-.23-.06Z"/><path class="cls-16" d="M68.83,99a71.56,71.56,0,0,0-2.93,8.61c0,.09.11.15.15.06a69.57,69.57,0,0,0,3-8.61c0-.14-.17-.19-.22-.06Z"/><path class="cls-16" d="M65,103.18s0,0,0,0a0,0,0,0,0,0,0Z"/><path class="cls-16" d="M62.39,102.1c-.47,1.7-1,3.4-1.37,5.12a.09.09,0,1,0,.18,0c.57-1.67,1-3.38,1.49-5.08a.16.16,0,0,0-.3-.09Z"/><path class="cls-16" d="M76.69,97.41c-.54,3-1.17,6-1.59,9,0,.15.19.21.22.07.67-3,1.14-6,1.68-9,0-.21-.28-.3-.31-.09Z"/><path class="cls-16" d="M73.56,98.69s0,0,0,0a0,0,0,1,0,0,0Z"/><path class="cls-16" d="M69.07,97.87s0,0,0,0,0,0,0,0Z"/><path class="cls-16" d="M65.4,99.91s0,0,0,0,0,0,0,0Z"/><path class="cls-16" d="M63.32,97.78c-1.12,2.91-2.33,5.81-3.24,8.79,0,.14.18.23.24.1,1.24-2.88,2.2-5.87,3.23-8.82.05-.15-.18-.21-.23-.07Z"/><path class="cls-16" d="M104.26,95.21a38.76,38.76,0,0,1-2,8.75c0,.12.16.21.21.08a28.81,28.81,0,0,0,2-8.83c0-.13-.19-.13-.21,0Z"/><path class="cls-16" d="M101.38,95.54c-1.49,3.2-3.08,6.38-4.43,9.65,0,.12.15.2.21.09,1.63-3.12,3-6.37,4.53-9.56.1-.21-.21-.39-.31-.18Z"/><path class="cls-16" d="M98.45,106s0,0,0,0,0,0,0,0Z"/><path class="cls-16" d="M135.82,15.62c-3.08-1.27-5.82,2.17-5.45,5.05.52,4,4.87,5.95,8.54,5.11s6.09-4.32,4.41-7.92a6.36,6.36,0,0,0-8.88-2.63.36.36,0,0,0,.27.65c2.7-.61,5.67-.94,7.41,1.79s.34,5.75-2.5,6.86-6.28.44-7.79-2.3c-1.8-3.29.62-6,3.94-6.21a.2.2,0,0,0,0-.4Z"/><path class="cls-16" d="M132.27,11.35A7.3,7.3,0,0,0,127,19.13c0,.22.36.15.37-.05a7.93,7.93,0,0,1,5-7.42c.18-.08,0-.34-.13-.31Z"/><path class="cls-16" d="M129.25,26.47A9,9,0,0,0,136,29.13a.23.23,0,0,0,0-.46,11.72,11.72,0,0,1-6.58-2.42c-.13-.1-.28.1-.17.22Z"/><path class="cls-16" d="M141.34,28.18a9.51,9.51,0,0,0,6-7,.16.16,0,0,0-.3-.08,10.58,10.58,0,0,1-5.82,6.9c-.11.05,0,.24.09.19Z"/><path class="cls-16" d="M136.38,11.3A10.07,10.07,0,0,1,145,15c.14.16.41,0,.3-.23A9,9,0,0,0,136.35,11c-.15,0-.11.27,0,.26Z"/><path class="cls-16" d="M124.62,14.63c5.79-9.22,18.1-8.89,23.88.16a.17.17,0,0,0,.29-.17c-5.46-9.73-18.72-9.47-24.34-.09-.07.11.1.21.17.1Z"/><path class="cls-16" d="M123,18.87c-1.3,4.52,1.37,9,5.31,11.25.16.09.34-.13.2-.26-3.29-2.9-6.51-6.08-5.26-10.92a.13.13,0,1,0-.25-.07Z"/><path class="cls-16" d="M134.32,32.34A11.15,11.15,0,0,0,143.84,30c.1-.09,0-.25-.14-.18-2.95,1.76-5.82,2.77-9.32,2.3-.14,0-.2.19-.06.22Z"/><path class="cls-16" d="M149.21,27.15a10.33,10.33,0,0,0,1.61-7.89c0-.13-.26-.11-.25,0A12.32,12.32,0,0,1,149,27a.12.12,0,0,0,.21.13Z"/><path class="cls-16" d="M131.31,4.81A18.88,18.88,0,0,0,118,23.38a.12.12,0,0,0,.23,0c.38-8.63,4.95-15.45,13.17-18.41.1,0,.06-.19,0-.16Z"/><path class="cls-16" d="M151.47,9.31A17.62,17.62,0,0,1,154,26.61c0,.14.18.24.24.1A16.62,16.62,0,0,0,151.61,9.2c-.06-.08-.2,0-.14.11Z"/><path class="cls-16" d="M121.79,32.69a19.11,19.11,0,0,0,15.87,3.86c.19,0,.11-.32-.07-.28a19.48,19.48,0,0,1-15.66-3.76c-.1-.07-.24.1-.14.18Z"/><path class="cls-16" d="M133.18,20.54c-10.91,9-21.68,18.19-32.54,27.27-.13.1,0,.27.17.17,10.82-9.12,21.73-18.13,32.49-27.32.09-.07,0-.2-.12-.12Z"/><path class="cls-16" d="M137,23.18c-.77,9.31-1.45,18.63-2.11,27.94,0,.18.27.18.28,0,.7-9.31,1.38-18.62,2-27.94,0-.09-.12-.08-.13,0Z"/><path class="cls-16" d="M140.66,22.37q12.24,11.67,24,23.81c.1.11.25,0,.16-.15-7.62-8.27-15.66-16.23-24-23.81a.11.11,0,1,0-.15.15Z"/><path class="cls-16" d="M134.49,23.09a48.1,48.1,0,0,0-10.86,14.09c0,.1.09.19.15.09A76.57,76.57,0,0,1,134.6,23.2a.08.08,0,0,0-.11-.11Z"/><path class="cls-16" d="M139.12,24.17C141,28.23,143,32.26,145,36.23c0,.07.15,0,.12-.07-1.86-4.06-3.85-8.08-5.9-12,0-.07-.13,0-.1.06Z"/></svg>