<svg id="illustration" xmlns="http://www.w3.org/2000/svg" viewBox="0 0 198.43 137.43"><defs><style>.cls-1{fill:#fed091;}.cls-2{fill:#bc743e;}.cls-3{fill:#edb39d;}.cls-4{fill:#f2ea25;}.cls-5{fill:#8bc63f;}.cls-6{fill:#ee2339;}.cls-7{fill:#5bba47;}.cls-8{fill:#fff;}.cls-9{opacity:0.4;}.cls-10{fill:#ef3f23;}.cls-11{fill:#b27d6d;}.cls-12{fill:#fefad1;}.cls-13{fill:#d69b73;}.cls-14{fill:#f1eb55;}.cls-15{fill:#231f20;}.cls-16{fill:#010101;}</style></defs><path class="cls-1" d="M102.09,37.21a.05.05,0,1,0,0-.1.05.05,0,0,0,0,.1Z"/><polygon class="cls-2" points="102.09 37.16 99.72 37.24 97.45 37.24 94.72 36.86 90.99 36.02 86.04 33.35 80.12 28.94 75.28 25.05 71.19 22 68.78 20.79 66.04 19.55 63.23 18.76 60.33 18.76 58.3 19.66 56.69 20.79 57.72 21.7 55.98 29.95 52.71 39.64 50.58 44.95 47.31 53.01 44.66 60.2 42.84 66.38 41.77 71.2 40.65 79.12 40.27 87.81 40.73 96.21 41.31 100.72 42.63 107.48 44.58 114.43 46.81 120.49 47.93 123.09 50.37 127.34 54.12 134.6 79.92 132.36 87.97 116.98 94.14 105.44 98.32 96.71 103.53 87.08 129.72 41.42 131.7 38.95 114.08 43.57 77.25 93.44 55.57 121.51 54.12 115.66 52.72 109.88 52.01 102.73 52.28 88.78 53.1 82.15 54.19 76.16 55.57 70.57 57.01 64.98 59.34 57.62 61.73 50.94 65.82 40.64 67.75 36.06 69.35 32.5 74.47 35.45 80.17 38.46 89.68 42.9 95.62 44.75 99.21 44.9 103.8 43.57 105.47 42.93 104.29 41.59 103.45 39.92 102.68 38.54 103 37.16 102.09 37.16"/><polygon class="cls-3" points="98.64 33.67 100.09 31.86 101.41 28.94 101.93 25.89 101.82 21.7 102.09 19.66 102.3 18.46 102.8 17.87 105.89 16.81 108.7 16.6 110.99 16.54 111.41 18.46 112.42 20.07 113.88 20.87 114.48 21.32 115.11 21.7 116.6 20.79 117.51 20.11 118.98 19.66 120.28 20.63 121.09 22.49 120.69 25.58 119.86 27.16 120.28 27.77 119.59 29.61 119.83 33.28 120.75 35.45 122.84 38.2 124.69 39.84 126.97 41.42 128.16 42.35 126.96 43.57 124.89 45.23 122.31 46.7 120.28 47.59 118.98 47.89 117.94 47.95 117.94 45.52 117.2 44.14 116.67 43.15 116.13 42.35 115.28 42.8 109.43 43.29 106.49 43.24 105.47 42.93 104.29 41.59 103.45 39.92 103.11 38.54 102.76 37.38 102.14 35.94 101.12 34.93 100.34 34.45 98.64 33.67"/><polygon class="cls-4" points="102.45 12.9 104.38 10.53 106.34 8 109.79 5.53 112.98 3.98 116.16 3.12 120.28 3.12 125.04 3.95 127.81 5.29 131.37 8.01 134.14 11.46 136.19 16.22 136.76 19.66 136.95 22.69 136.95 25.07 137.16 27.34 137.59 30.59 138.6 33.86 140.04 36.88 143.01 40.97 145.86 46.18 147 48.84 148.4 54.62 148.63 58.68 147.73 66.38 147.18 68.01 146.73 68.81 145.6 69.17 144.81 69.2 143.55 69.42 142.53 69.2 143 65.61 142.93 62.6 142.67 60.4 141.93 56.82 141.39 54.98 140.85 53.41 140.22 51.81 139.07 50.49 137.57 48.03 135.52 46.7 133.54 45.29 130.4 43.24 128.76 42.49 128.16 42.35 125.84 40.64 124.13 39.34 121.96 37.05 120.28 34.68 119.61 32.22 119.59 29.61 119.5 28.05 120.43 26.75 121.08 23.98 121.13 22 120.28 20.63 118.98 19.66 117.51 20.11 116.6 20.79 115.11 21.7 112.42 20.07 111.41 18.46 110.87 17.26 110.23 16.59 105.89 16.81 102.8 17.87 102.09 19.66 101.82 21.7 101.93 23.98 101.82 26.43 101.57 28.46 100.71 31.1 100.09 31.86 98.64 33.67 100.34 34.45 102.14 35.94 103 37.16 101.41 37.24 99.72 37.24 99.04 37.77 95.75 32.24 93.61 26.32 93.32 19.73 93.96 16.83 96.16 13.48 98.64 12.2 100.71 12.17 102.45 12.9"/><polygon class="cls-3" points="97.47 65.61 91.33 73.72 83.39 65.13 82.23 64.62 81.43 63.96 81.11 63.03 79.81 62.6 79.14 62.05 78.04 61.55 77.25 60.77 76.29 59.8 75.81 59.29 74.9 58.63 73.32 58 72.67 57.62 72.01 56.99 71.76 56.29 71.94 55.78 71.64 54.52 72.06 53.55 72.79 53.02 73.62 52.46 74.33 53.01 74.33 49.72 74.89 49.47 75.87 49.32 76.86 49.87 78.04 50.76 79.46 50.29 80.95 50.29 82.23 50.36 86.51 52.61 87.16 50.49 87.53 48.9 87.52 47.81 87.53 46.7 88.24 45.61 89.34 45.4 89.11 46.7 89.84 48.03 90.68 50.03 90.47 52.46 89.97 55.32 89.47 57.62 89.3 58.68 89.04 59.25 97.47 65.61"/><path class="cls-5" d="M98.74,128.65l47.27.26-1.72-8.47-2.7-6.63-3.13-4.34-2.27-7-.53-9.07.85-5.39,1.28-5.24L139.71,77,142,71.2,143,66.38V63.2l-.84-5.2-1.56-5.24-1.54-2.27L137.57,48l-4.95-3.6-2.22-1.19-2.24-.89-1.72,1.48-2.15,1.6-2,1.27-2,.89-2.34.36-.37,1.77-.69.87-1.38,1.57-.63,2-.29.83.1,2-7.12,6.83-2.91,3.33-1.88,3.45-.63,3.15.35,2.67,1.36,2.69.58.89-.82,1.85L103,84.17l-.36,3,.28,3s-.16,10.44-.12,10,.54,5,.54,5v6L103,117l-1.14,5.49-1,3Z"/><polygon class="cls-3" points="115.96 61.94 117.51 60.2 118.98 59.02 120.88 58.64 123.27 58.49 126.44 59.5 129.32 60.4 131.75 61.79 132.21 62.26 132.62 76.18 132.62 79.15 132.43 85.11 131.87 91.33 131.01 96.71 130.2 100.32 128.97 103.58 125.85 104.73 121.98 105.14 118.38 104.77 115.22 103.97 110.63 102.44 106.68 100.64 102.35 98.6 98.32 96.71 95.86 96.21 94.14 95.79 91.58 95.17 90.2 95.53 88.68 95.17 87.16 94.97 84.73 93.54 83.55 92.62 82.41 91.1 82.31 90.1 82.51 88.78 81.89 88.52 81.81 87.16 82.41 85.92 82.97 85.81 83.22 84.61 83.98 83.65 84.73 83.42 85.9 84.45 86.76 84.88 86.98 84.1 86.04 83.2 85.44 82.15 85.64 80.75 86.04 79.89 86.89 79.67 88.82 81.47 90.47 82.63 92.8 83.65 94.56 84.39 95.56 83.65 96.1 82.54 96.83 81.04 97.69 80.3 98.87 80.75 98.32 82.91 97.77 85.92 97.94 87.69 99.09 89.13 100.22 89.73 105.2 90.97 116.88 90.12 116.27 85.03 114.88 68.18 115.12 65.38 115.59 63.2 115.96 61.94"/><path class="cls-6" d="M103,37.74a2.61,2.61,0,0,0,1.59-.09.19.19,0,0,0,0-.35,5.25,5.25,0,0,0-1.48,0c-.22,0-.31.38-.06.42Z"/><path class="cls-6" d="M103.52,39.72a2.13,2.13,0,0,0,1-.85,15.56,15.56,0,0,0,1-1.33c.08-.14-.09-.33-.24-.23a3.3,3.3,0,0,0-.81,1c-.3.44-.67.79-1,1.2-.07.09,0,.25.12.21Z"/><path class="cls-6" d="M103.75,39.42c.38-.29,1.4-1,1.19-1.59a.17.17,0,0,0-.18-.13c-.31,0-.38.17-.56.41s-.51.61-.77.9.07.6.32.41Z"/><path class="cls-6" d="M103.14,37.47a1.52,1.52,0,0,0,.47,2.06A.31.31,0,0,0,104,39a1.42,1.42,0,0,1-.4-.69c-.07-.27,0-.53-.1-.79a.21.21,0,0,0-.35-.09Z"/><path class="cls-6" d="M103.65,37.78c-.62.21-.15,1.18.29,1.34.23.08.38-.2.29-.39a3.7,3.7,0,0,1-.32-.59.6.6,0,0,0-.16-.34s-.06,0-.1,0Z"/><path class="cls-6" d="M103.68,37.84a.77.77,0,0,0,.28.79.33.33,0,0,0,.45,0c.35-.33-.32-.61-.46-.82s-.25-.1-.27,0Z"/><path class="cls-6" d="M103.72,38.17c.24.23.43.34.73.19a.21.21,0,0,0,.07-.28c-.11-.2-.25-.25-.45-.36a.29.29,0,0,0-.35.45Z"/><path class="cls-6" d="M104.16,38.11a1,1,0,0,0,.42-.1.24.24,0,0,0,0-.41,1,1,0,0,0-.42-.1c-.39,0-.4.64,0,.61Z"/><path class="cls-6" d="M103.05,37.65c.22-.24.76.11,1,.15a2.54,2.54,0,0,0,.87,0c.29-.06.86-.34.48-.68-.18-.18-.46-.08-.68,0a2.72,2.72,0,0,1-1.17-.06.75.75,0,0,0-1,.41c-.09.25.26.43.43.25Z"/><path class="cls-6" d="M105,37.38a.91.91,0,0,0,.77-.1.09.09,0,0,0-.07-.17c-.24.06-.46.17-.7.22a0,0,0,0,0,0,.05Z"/><path class="cls-6" d="M105.18,37.36a1.32,1.32,0,0,0,1-.3.17.17,0,0,0-.12-.28,1.92,1.92,0,0,0-1,.28c-.16.07-.07.3.08.3Z"/><path class="cls-6" d="M103.33,39.32c-.1.12,0,.32.16.19s-.07-.29-.16-.19Z"/><path class="cls-6" d="M103.28,39.47c0,.22.18.36.4.34a.59.59,0,0,0,.48-.59.17.17,0,0,0-.29-.12c-.14.12-.24.31-.45.26a.12.12,0,0,0-.14.11Z"/><path class="cls-6" d="M103.27,37.67l0,.08a.35.35,0,0,0,.16.39l.12.06a.29.29,0,0,0,.42-.32l0-.13a.34.34,0,0,0-.33-.25h-.09a.24.24,0,0,0-.22.17Z"/><path class="cls-6" d="M103.75,38.17a.36.36,0,0,0,.35,0,.17.17,0,0,0,.09-.2.42.42,0,0,0-.3-.28c-.31-.12-.44.38-.14.5Z"/><path class="cls-7" d="M103.52,27.59a.22.22,0,0,0,0-.44.22.22,0,0,0,0,.44Z"/><path class="cls-7" d="M103.21,27.15c0,.36.38.53.68.44a.12.12,0,0,0,0-.24,4.73,4.73,0,0,0-.62-.25.06.06,0,0,0-.06,0Z"/><path class="cls-7" d="M103.35,27.18a5.87,5.87,0,0,0,.65.46.15.15,0,0,0,.22-.17.78.78,0,0,0-.81-.52.13.13,0,0,0-.06.23Z"/><path class="cls-7" d="M103.23,27l0,.08a.18.18,0,0,0,0,.19c.17.3.51.5.79.24a.16.16,0,0,0-.06-.26,3.55,3.55,0,0,1-.55-.28.1.1,0,0,0-.13,0Z"/><path class="cls-7" d="M103.73,27.33a.5.5,0,0,0,.31.26.17.17,0,0,0,.18-.05l.08-.07a.14.14,0,0,0-.1-.24c-.09,0-.38,0-.41,0a.05.05,0,0,0-.06.07Z"/><path class="cls-8" d="M103.58,26.7l0,.05s0,.08.06.06l0,0c.09,0,0-.17-.08-.08Z"/><path class="cls-8" d="M103.6,26.82a.05.05,0,0,0,0-.1.05.05,0,1,0,0,.1Z"/><path class="cls-8" d="M103.31,26.83c.31.34,1-.1,1.19-.36.08-.1,0-.29-.14-.24s-.49.23-.75.33-.23.07-.3.23a0,0,0,0,0,0,0Z"/><path class="cls-8" d="M104.16,27.18a1.8,1.8,0,0,0,.38-.74c0-.14-.15-.26-.24-.15a1,1,0,0,0-.32.84.1.1,0,0,0,.18.05Z"/><path class="cls-8" d="M103.71,27v0a.21.21,0,0,0,.39-.05v0c0-.13-.09-.29-.24-.23s-.24.16-.17.3Z"/><g class="cls-9"><path class="cls-10" d="M102.57,25.5a3.93,3.93,0,0,1,1.19-.95c.41-.17.86-.16,1.26-.34a.1.1,0,0,0,0-.17c-.89-.58-2.38.48-2.68,1.33,0,.13.14.23.23.13Z"/></g><g class="cls-9"><path class="cls-10" d="M104.69,29.34a2.31,2.31,0,0,1,.69-1.49c.27-.3.71-.44.9-.8a.09.09,0,0,0-.06-.14c-1-.23-2.25,1.6-1.72,2.48a.1.1,0,0,0,.19-.05Z"/></g><g class="cls-9"><path class="cls-10" d="M102.89,26.41a1.49,1.49,0,0,0,1.23-.29,2.78,2.78,0,0,0,1-.9,0,0,0,0,0,0,0,11,11,0,0,1-1.16.64c-.36.16-.74.24-1.1.39a.11.11,0,0,0,0,.21Z"/></g><g class="cls-9"><path class="cls-10" d="M110.79,27.44a7.62,7.62,0,0,1-1.64,3.45,20.43,20.43,0,0,0-1.94,2.6.25.25,0,0,0,.39.3,21.76,21.76,0,0,0,2.89-3.39,5.44,5.44,0,0,0,1-2.87c0-.37-.58-.45-.66-.09Z"/></g><g class="cls-9"><path class="cls-10" d="M117.9,21.71c-1.05.06-1.85,1.95-1,2.67a.14.14,0,0,0,.23-.1,3,3,0,0,1,0-1.24c.17-.47.52-.66.87-1a.21.21,0,0,0-.15-.36Z"/></g><g class="cls-9"><path class="cls-10" d="M118.25,24.26a2.48,2.48,0,0,1,.33.92,2.89,2.89,0,0,0,.08.83c0,.08.16.14.23.06.45-.57.39-1.87-.36-2.16-.22-.09-.35.18-.28.35Z"/></g><path class="cls-11" d="M107.58,43.1A74.12,74.12,0,0,0,114.91,35c.15-.22-.19-.47-.36-.28-2.5,2.6-4.75,5.52-7.14,8.23a.12.12,0,0,0,.17.16Z"/><path class="cls-11" d="M108.66,41.73a.66.66,0,0,0,.1,1,2.12,2.12,0,0,0,.77.29,3.9,3.9,0,0,0,1.22.16.2.2,0,0,0,.1-.37,3,3,0,0,0-1-.3c-.08,0-1.18-.17-.88-.48a.23.23,0,0,0-.33-.32Z"/><path class="cls-11" d="M108.27,42.53c.11.44,1,1.06,1.25.45a.13.13,0,0,0,0-.18.62.62,0,0,0-.36-.07,1,1,0,0,1-.7-.28.08.08,0,0,0-.14.08Z"/><path class="cls-11" d="M108.21,42.15a.72.72,0,0,0,.71.94.28.28,0,0,0,.29-.22c.08-.5-.58-.25-.62-.66a.2.2,0,0,0-.38-.06Z"/><path class="cls-11" d="M108,42.35a.55.55,0,0,0,.6.82.22.22,0,0,0,.05-.39,1,1,0,0,1-.4-.43.15.15,0,0,0-.25,0Z"/><path class="cls-11" d="M107.71,42.48c-.15.35,0,.76.46.67a.2.2,0,0,0,0-.37.19.19,0,0,1-.15-.15c0-.2-.26-.36-.36-.15Z"/><path class="cls-11" d="M107.77,42.59a.46.46,0,0,0-.26.48.21.21,0,0,0,.16.21h.09c.09,0,.21,0,.2-.15s-.09-.3,0-.35,0-.28-.15-.2Z"/><path class="cls-11" d="M107.26,42.79l-.06.08c-.11.15.11.37.26.26l.08-.07c.27-.19-.08-.54-.28-.27Z"/><path class="cls-11" d="M107.44,43.21a.62.62,0,0,0,.55-.29.21.21,0,0,0-.23-.31,1.21,1.21,0,0,1-.32.11c-.31,0-.31.51,0,.49Z"/><path class="cls-11" d="M109.21,42.72a2.42,2.42,0,0,1-.06-1c0-.31.19-.58.24-.88a.22.22,0,0,0-.36-.21,1.79,1.79,0,0,0-.11,2.21.16.16,0,0,0,.29-.12Z"/><path class="cls-11" d="M114.7,35c2.07-1.53,4.72-5.74,3-8.29-.38-.57-1.3,0-.92.54a4.37,4.37,0,0,1-.1,4.64c-.58,1.09-1.59,1.88-2.12,3,0,.07,0,.17.11.12Z"/><path class="cls-11" d="M116.71,31.45a7.38,7.38,0,0,0-1.17,1.2,2.36,2.36,0,0,0-.68,1.36.13.13,0,0,0,.19.11,3.69,3.69,0,0,0,.81-1.1A9.31,9.31,0,0,1,117,31.73c.19-.18-.09-.44-.29-.28Z"/><path class="cls-11" d="M116.6,31.5a3.85,3.85,0,0,0-1.18,1.23c-.27.38-.7,1-.59,1.46a.14.14,0,0,0,.21.08c.38-.23.56-.83.79-1.2s.7-.87,1-1.35a.16.16,0,0,0-.22-.22Z"/><path class="cls-11" d="M115.59,33.56a16.32,16.32,0,0,0,1.53-1.69c.33-.43.85-1,.65-1.55a.26.26,0,0,0-.42-.11,5.86,5.86,0,0,0-.95,1.37,16.23,16.23,0,0,0-1,1.83c-.06.12.09.25.19.15Z"/><path class="cls-11" d="M117.22,31.19a2.9,2.9,0,0,0,.45-1.26.21.21,0,0,0-.39-.1c-.21.34-.31.75-.49,1.11s.28.53.43.25Z"/><path class="cls-11" d="M114.89,35.2A4,4,0,0,0,116.33,33c0-.19-.22-.25-.34-.14a5.11,5.11,0,0,0-.68,1c-.24.36-.5.72-.75,1.08-.14.2.16.39.33.25Z"/><path class="cls-11" d="M117.07,40.33a8.93,8.93,0,0,1,1-1.55c.42-.43,1.1-.71,1.37-1.26.06-.13,0-.33-.14-.36-1.27-.2-3.38,1.91-2.46,3.17a.15.15,0,0,0,.26,0Z"/><path class="cls-11" d="M117.84,21.7l0,0a.28.28,0,0,0,.06.43,1.92,1.92,0,0,1,.67.37c.18.19.21.45.37.65a.28.28,0,0,0,.44-.06,1,1,0,0,0-.46-1.19c-.19-.15-.82-.45-1-.23Z"/><path class="cls-11" d="M118.71,22.89a1.83,1.83,0,0,0-.33.49c-.06.15.11.32.25.19a1.82,1.82,0,0,0,.34-.48c.08-.16-.13-.35-.26-.2Z"/><path class="cls-11" d="M118,22.47a1.54,1.54,0,0,0-.79,1.65.23.23,0,0,0,.42.05,6.28,6.28,0,0,0,.61-1.52.17.17,0,0,0-.24-.18Z"/><path class="cls-11" d="M130.34,65.89c-.5,4.12.11,8.58.23,12.72A58.83,58.83,0,0,1,129,92a.19.19,0,0,0,.36.1,37,37,0,0,0,2.07-13c-.11-4.32.18-9-.63-13.28-.05-.27-.41-.17-.44.06Z"/><path class="cls-11" d="M103.66,96.77c2,2.51,5.14,3.88,8.1,4.83a107.77,107.77,0,0,0,11.49,2.87c.29.06.53-.38.22-.52-3.09-1.42-6.61-1.81-9.88-2.68a26.77,26.77,0,0,1-9.67-4.84c-.21-.16-.4.17-.26.34Z"/><path class="cls-12" d="M127.08,7a24.58,24.58,0,0,1,4.57,5.53c1.62,2.42,1.52,4.51,1.84,7.28a.25.25,0,0,0,.49.07,8.2,8.2,0,0,0-.86-7.42c-1.45-2.23-3-5-5.56-6.07-.37-.17-.85.3-.48.61Z"/><path class="cls-12" d="M136.48,30.39a12.65,12.65,0,0,0,2,7.8c1.4,2.29,3.22,5,5.72,6.18a.32.32,0,0,0,.39-.5c-3.64-4-6.67-8-7.6-13.48,0-.25-.47-.25-.5,0Z"/><path class="cls-12" d="M130.08,38c1.37,1.85,3.79,2.75,5.83,3.69a20.17,20.17,0,0,1,6.8,4.71c.39.44,1-.12.78-.6-1.17-2.25-3.15-3.54-5.38-4.66a54.78,54.78,0,0,0-7.84-3.4c-.13,0-.29.13-.19.26Z"/><path class="cls-12" d="M99.11,33.58a1.5,1.5,0,0,0,.57-.52c.07-.09-.07-.18-.15-.11a1.62,1.62,0,0,0-.45.61s0,0,0,0Z"/><path class="cls-12" d="M99.29,33.62a9.55,9.55,0,0,0,1-1.62.06.06,0,0,0-.09-.07,8.73,8.73,0,0,0-1.17,1.53c-.08.12.11.28.21.16Z"/><path class="cls-12" d="M105.51,27.38c.23-.1.43-.25.67-.33s.51-.08.77-.14a.14.14,0,0,0,0-.25,1.28,1.28,0,0,0-1.58.62s0,.12.11.1Z"/><path class="cls-12" d="M110,27.81a11.14,11.14,0,0,0-.76,1.55c-.32.55-.75,1-1.1,1.54a.15.15,0,0,0,.2.2,4.86,4.86,0,0,0,1.21-1.45,3.56,3.56,0,0,0,.67-1.75c0-.1-.14-.18-.22-.09Z"/><path class="cls-12" d="M115.94,27.56a4.51,4.51,0,0,1,.21,1.89,10.69,10.69,0,0,1-.53,1.66.12.12,0,0,0,.17.13c1.19-.8,1.24-2.72.7-3.91-.14-.31-.65-.09-.55.23Z"/><path class="cls-12" d="M118,20.77a1.81,1.81,0,0,1,1.3.28,2.87,2.87,0,0,1,.65,1,.28.28,0,0,0,.51-.07,1.89,1.89,0,0,0-2.62-1.85.32.32,0,0,0,.16.6Z"/><path class="cls-12" d="M99.06,13.42a8.26,8.26,0,0,1,1.86.08c.56.13,1.06.52,1.62.6a.3.3,0,0,0,.33-.43c-.65-1.09-2.9-1.25-4-.77-.26.12-.11.52.14.52Z"/><path class="cls-12" d="M105.58,94.16c4.66,3.77,12.4,4.83,18.21,4.51a.28.28,0,0,0,0-.56c-3.11-.41-6.24-.46-9.33-1a35.68,35.68,0,0,1-8.68-3.16c-.16-.07-.35.13-.2.25Z"/><path class="cls-13" d="M58.61,20.64c5.79-3.05,11.13,2.39,15.93,4.9a.3.3,0,0,0,.36-.47,23.85,23.85,0,0,0-8.6-5.35,8.51,8.51,0,0,0-7.92.53.23.23,0,0,0,.23.39Z"/><path class="cls-13" d="M61,20.57a1.94,1.94,0,0,0-1.51,2c0,.82.65,1.94,1.6,1.76a.31.31,0,0,0,.18-.45c-.24-.47-.75-.74-.8-1.31s.41-.95.8-1.36c.2-.22.08-.7-.27-.66Z"/><path class="cls-13" d="M84.94,33.57c1.19,1.58,3.33,2.4,5.09,3.22a49.12,49.12,0,0,0,6.35,2.42c.77.24,1.1-1,.33-1.21a47.2,47.2,0,0,1-6.38-2.51c-1.62-.78-3.23-2.06-5-2.42-.25,0-.58.25-.38.5Z"/><path class="cls-13" d="M55.46,34.7a47.48,47.48,0,0,0-2.74,6.14A43.3,43.3,0,0,0,50.19,48a.23.23,0,0,0,.41.17A39.71,39.71,0,0,0,53.33,42a52.72,52.72,0,0,0,2.53-7.11.22.22,0,0,0-.4-.17Z"/><path class="cls-13" d="M49.63,124.6a8.22,8.22,0,0,0,2.91,3.84,1.16,1.16,0,0,0,1.44-.05,3.94,3.94,0,0,0,.57-.71,4,4,0,0,1,1.39-1.18c.65-.35.08-1.26-.56-1a4.25,4.25,0,0,0-1.29.89c-.2.21-.33.47-.53.68-.38.41-.46.33-.83,0a24,24,0,0,1-2.45-2.87c-.24-.3-.78,0-.65.38Z"/><path class="cls-13" d="M82,125.37c1.43-1.75,2.36-3.92,3.73-5.75,1.09-1.45,2.67-3.18,2.64-5.1a.38.38,0,0,0-.7-.19c-.63.89-1,1.92-1.55,2.85s-1.27,1.8-1.9,2.71c-1.1,1.58-2.3,3.41-2.48,5.37a.15.15,0,0,0,.26.11Z"/><path class="cls-8" d="M125,67.09a87.63,87.63,0,0,1-1.18,23.48.19.19,0,0,0,.36.1A55.67,55.67,0,0,0,125.47,67c0-.25-.46-.19-.44.06Z"/><path class="cls-8" d="M140.17,58.94a38.5,38.5,0,0,1-2,15c-.07.22.28.37.38.16a25.37,25.37,0,0,0,2.06-15.23c-.05-.24-.44-.19-.42,0Z"/><path class="cls-8" d="M140.25,116.24a37,37,0,0,1,2.82,13.22c0,.18.32.25.35,0a21,21,0,0,0-2.82-13.4c-.11-.18-.44-.07-.35.14Z"/><path class="cls-8" d="M103.45,130.17a11.3,11.3,0,0,0,4.31-5.5c.07-.21-.25-.34-.36-.15a20.87,20.87,0,0,1-4.09,5.48c-.09.08,0,.25.14.17Z"/><path class="cls-8" d="M107,125a13.68,13.68,0,0,0,3.83,5.71c.13.09.37,0,.25-.19-.68-.91-1.48-1.72-2.12-2.66a23.52,23.52,0,0,1-1.66-3c-.08-.16-.36,0-.3.12Z"/><path class="cls-8" d="M128.94,122.59a15.81,15.81,0,0,0-.05,10.28.14.14,0,0,0,.27-.07,29.82,29.82,0,0,1,0-10.15.1.1,0,1,0-.2-.06Z"/><path class="cls-8" d="M146.54,53.52a38,38,0,0,1-.85,15.31c0,.13.17.23.23.1a22,22,0,0,0,1-15.47c-.07-.2-.43-.18-.4.06Z"/><path class="cls-14" d="M99.47,89.93a2.9,2.9,0,0,0,0,1.7.22.22,0,0,0,.37,0,3,3,0,0,0,.11-1.7c0-.25-.43-.23-.48,0Z"/><path class="cls-14" d="M99.31,91.94c.22,0,.44,0,.65.09a6.32,6.32,0,0,0,.6.25.29.29,0,0,0,.32-.42,1.22,1.22,0,0,0-1.63-.38.26.26,0,0,0,.06.46Z"/><path class="cls-14" d="M100.75,92.2a2.14,2.14,0,0,0,.47-1.65.26.26,0,0,0-.47-.06,2.22,2.22,0,0,0-.14,1.68.09.09,0,0,0,.14,0Z"/><path class="cls-14" d="M101.21,90.49a1.94,1.94,0,0,0-1.35-.81c-.8-.14-.93,1.09-.14,1.08.45,0,.9,0,1.35,0,.11,0,.21-.13.14-.23Z"/><path class="cls-14" d="M100.09,90.59c-.28.33-.21.93.28,1,.13,0,.2-.13.18-.24s-.2-.41-.23-.65a.13.13,0,0,0-.23-.09Z"/><path class="cls-14" d="M99.84,91.18c.27.59.94.3,1.11-.19s-.67-.6-.67-.09l-.23.08a.15.15,0,0,0-.21.2Z"/><path class="cls-14" d="M101.24,90.82a.32.32,0,0,0,0-.64.32.32,0,0,0,0,.64Z"/><path class="cls-14" d="M98.1,94.19a4.27,4.27,0,0,0-1,.77,9.35,9.35,0,0,0-1,1c-.19.23.07.66.35.45a9,9,0,0,0,1-.94,4.52,4.52,0,0,0,.88-1,.18.18,0,0,0-.25-.24Z"/><path class="cls-14" d="M96.14,96.33a1.92,1.92,0,0,0,1.15.26.25.25,0,0,0,.06-.49,1.81,1.81,0,0,0-1.17,0,.15.15,0,0,0,0,.27Z"/><path class="cls-14" d="M97.49,96.45a2.55,2.55,0,0,0,1-.65,3.49,3.49,0,0,0,1-1c.1-.19-.07-.47-.29-.39a3.63,3.63,0,0,0-1.08.83,2.85,2.85,0,0,0-.84,1c0,.11.08.2.18.17Z"/><path class="cls-14" d="M99.27,94.62a1.51,1.51,0,0,1-.55-.23.7.7,0,0,0-.71,0,.37.37,0,0,0-.13.5l.05.12a.49.49,0,0,0,.41.23,1.38,1.38,0,0,0,.63-.14c.17-.09.19-.22.33-.32s0-.13,0-.13Z"/><path class="cls-14" d="M98.49,94.71c-.58.19-1.55.49-1.67,1.17a.37.37,0,0,0,.35.45c.69,0,1.17-.88,1.47-1.42a.14.14,0,0,0-.15-.2Z"/><path class="cls-14" d="M97.74,95.64a.05.05,0,0,0,0-.1.05.05,0,0,0,0,.1Z"/><path class="cls-8" d="M99.83,92.31c-.59-.16-1.19.45-1.31,1a.82.82,0,0,0,1.11.94,1.6,1.6,0,0,0,1-1.62.71.71,0,0,0-1.29-.21.44.44,0,0,0,.15.59.43.43,0,0,0,.22.06A.9.9,0,0,0,100,93c.26-.08-.22,0-.33.15s-.36.35-.11,0c.12-.16.31-.23.45-.39a.29.29,0,0,0-.13-.48Z"/><path class="cls-8" d="M98.64,93.89l0,.09a.28.28,0,0,0,.34.19l.11,0c.2-.08.26-.42,0-.47l-.27,0a.21.21,0,0,0-.2.27Z"/><path class="cls-8" d="M98.35,93.89a.43.43,0,0,0,.34.24.24.24,0,0,0,.23-.4.45.45,0,0,0-.39-.15.21.21,0,0,0-.18.31Z"/><path class="cls-8" d="M99.27,93.64a.93.93,0,0,0,.72-.38c.48-.48-.38-1.16-.73-.57a.94.94,0,0,0-.19.8.23.23,0,0,0,.2.15Z"/><path class="cls-8" d="M99.3,93.23a.9.9,0,0,0,.56.31.11.11,0,0,0,.1-.18,1,1,0,0,0-.55-.31.11.11,0,0,0-.11.18Z"/><path class="cls-8" d="M99.29,93.33a1.67,1.67,0,0,0,.54.33c.13,0,.22-.09.21-.2a.47.47,0,0,0-.73-.33.13.13,0,0,0,0,.2Z"/><path class="cls-8" d="M99.26,93.36a1,1,0,0,0,.87.25c.19,0,.22-.29.1-.41a1,1,0,0,0-.85-.3.25.25,0,0,0-.12.46Z"/><path class="cls-15" d="M99.19,93.45a1.63,1.63,0,0,0,.8.34c.2,0,.28-.25.16-.38a1.71,1.71,0,0,0-.77-.42c-.29-.1-.42.3-.19.46Z"/><path class="cls-15" d="M99.49,93.21a1.18,1.18,0,0,0,.22-.28.14.14,0,0,0-.19-.19,1,1,0,0,0-.27.23.17.17,0,0,0,.24.24Z"/><path class="cls-16" d="M101.46,18.67a13.75,13.75,0,0,1,2.47-1.2.08.08,0,0,0-.05-.16,5.92,5.92,0,0,0-2.54,1.21c-.09.07,0,.21.12.15Z"/><path class="cls-16" d="M102.53,17.74c-1,2.07-.84,4.22-.77,6.47a13.25,13.25,0,0,1-3.19,9.39c-.09.1.05.25.15.15a10.91,10.91,0,0,0,3.2-6.25c.5-3.28-.44-6.49.74-9.7a.07.07,0,0,0-.13-.06Z"/><path class="cls-16" d="M98.7,33.79a3,3,0,0,0,2,.12s0-.08,0-.09c-.33,0-.67,0-1,0a8.36,8.36,0,0,1-1-.12c-.06,0-.06.08,0,.1Z"/><path class="cls-16" d="M98.8,33.72a13.55,13.55,0,0,1,2.78,1.81c.88.91.91,2,1.37,3.1,0,.09.19,0,.19-.05-.11-2.57-1.93-4.26-4.3-4.95a0,0,0,0,0,0,.09Z"/><path class="cls-16" d="M103.07,38.46c.17,1.91,1.22,4.25,3.05,5.1.1,0,.2-.07.12-.15a12.27,12.27,0,0,1-2-2.18,8,8,0,0,1-1-2.78.05.05,0,0,0-.1,0Z"/><path class="cls-16" d="M106.69,43.52c3-3.11,5.78-6.41,8.62-9.64a.06.06,0,0,0-.09-.09c-2.88,3.19-5.83,6.36-8.58,9.68,0,0,0,.08,0,.05Z"/><path class="cls-16" d="M116,32.26c.85-.93,1.72-1.92,1.62-3.27s-1.26-2.78-2.08-3.95a.07.07,0,0,0-.12.06c.4.92,1.07,1.67,1.51,2.55.9,1.78.12,3.17-1,4.53a.06.06,0,1,0,.09.08Z"/><path class="cls-16" d="M107.82,43.64c2.49-.37,5-.62,7.46-.78a.07.07,0,0,0,0-.13,29,29,0,0,0-7.49.78c-.09,0-.05.14,0,.13Z"/><path class="cls-16" d="M116.3,40.25c.41-.61.7-1.3,1.12-1.91A11.76,11.76,0,0,1,119,36.47c.16-.16-.1-.42-.26-.26a9,9,0,0,0-2.5,4s0,.05.06,0Z"/><path class="cls-16" d="M115.8,42.18a12.06,12.06,0,0,1,1.63,3.17,17.73,17.73,0,0,1,.25,3.55c0,.11.17.18.22.06.94-2.1-.25-5.48-2-6.89-.08-.06-.21,0-.15.11Z"/><path class="cls-16" d="M102.82,17.93A33.14,33.14,0,0,1,111,16.72c.23,0,.23-.34,0-.36a15.68,15.68,0,0,0-8.22,1.47s0,.11,0,.1Z"/><path class="cls-16" d="M110.1,16.44a10.69,10.69,0,0,0,2.12,3.24,7.86,7.86,0,0,0,2.85,2.14.12.12,0,0,0,.12-.2c-.83-.81-1.86-1.38-2.69-2.23a17.8,17.8,0,0,1-2.32-3,0,0,0,0,0-.08.05Z"/><path class="cls-16" d="M115.31,22.92a6.76,6.76,0,0,1,2.08-2.8c2.06-1.27,3.38.74,3.53,2.52a6.85,6.85,0,0,1-2.32,5.64c-.17.16.08.41.26.26,2-1.86,3.51-5.66,1.73-8.19a2.29,2.29,0,0,0-2.91-.72c-1.36.58-2,2-2.49,3.24,0,.07.09.12.12.05Z"/><path class="cls-16" d="M118.64,20.77a3.25,3.25,0,0,0-1.8,4.68.13.13,0,0,0,.24-.1,4,4,0,0,1-.11-2.57,4,4,0,0,1,1.72-1.88.07.07,0,0,0,0-.13Z"/><path class="cls-16" d="M117,24.82c.25-.54,1.17-.8,1.47-.15a.81.81,0,0,1-.06.77c-.13.21-.33.26-.5.41a.11.11,0,0,0,0,.18c.77.19,1.06-1.13.7-1.62a1,1,0,0,0-1.77.36c0,.06.08.11.11.05Z"/><path class="cls-16" d="M117.68,21.6a1.64,1.64,0,0,1,1.65.95.14.14,0,0,0,.25-.1,1.54,1.54,0,0,0-1.93-.95c-.07,0,0,.11,0,.1Z"/><path class="cls-16" d="M118.74,17.6c.21,2.46,2.52,5.41,5.22,5.32a.12.12,0,0,0,0-.24,8.75,8.75,0,0,1-3.29-1.8,7.14,7.14,0,0,1-1.81-3.31.08.08,0,0,0-.15,0Z"/><path class="cls-16" d="M120.22,26.48a6.31,6.31,0,0,0,4.82,4c.15,0,.16-.2,0-.24a8.14,8.14,0,0,1-4.75-3.78c0-.05-.13,0-.11.05Z"/><path class="cls-16" d="M120.72,26.58c-3.11,4.41-.54,9.71,3.11,12.86,5.13,4.41,11.59,6.1,15.56,11.92a.16.16,0,0,0,.28-.17c-2.06-4.35-6.86-6.63-10.81-8.92-5.39-3.11-11.93-8.74-8-15.61a.08.08,0,0,0-.13-.08Z"/><path class="cls-16" d="M103.13,12.81c5.46-9.65,18.2-13,27-5.65,4.27,3.56,6.21,8.41,6.56,13.87.31,4.93,0,9.92,2.5,14.37.12.22.45,0,.33-.19-3.43-6.12-1.39-13.23-3.33-19.71A18.4,18.4,0,0,0,127.5,4.87,17.93,17.93,0,0,0,103,12.72c0,.1.1.19.15.09Z"/><path class="cls-16" d="M139.59,36.48c2.73,4.39,5.9,8.43,7.53,13.41,1.84,5.66,1.48,11.68.43,17.45,0,.18.25.27.29.08,1.1-5.69,1.56-11.62-.14-17.24a42.62,42.62,0,0,0-7.89-13.87c-.1-.13-.31,0-.22.17Z"/><path class="cls-16" d="M140.17,51.83c1.46,4.71,2.93,9.28,2.6,14.31-.36,5.37-3.26,10.25-4.82,15.33-2.74,8.94-3.8,18.63,0,27.42.09.23.42,0,.33-.19C134,98.48,136.07,86.89,140,76.88c1.64-4.22,3.33-8.18,3.21-12.79a28.92,28.92,0,0,0-2.93-12.3.05.05,0,0,0-.1,0Z"/><path class="cls-16" d="M119.27,49.22a6.46,6.46,0,0,0-4.74,7.65c0,.19.37.15.35,0-.34-3.32,1.13-6.31,4.45-7.37.15-.05.09-.28-.06-.23Z"/><path class="cls-16" d="M118.4,48.11a17.73,17.73,0,0,0,9.89-5.64c.15-.17-.09-.42-.25-.25A20.38,20.38,0,0,1,118.35,48a.08.08,0,0,0,.05.15Z"/><path class="cls-16" d="M116,62.26c4-6.42,11.5-2.53,16.48.23a.2.2,0,0,0,.2-.34c-4.66-3.15-13.46-6.86-16.82,0a.08.08,0,0,0,.14.09Z"/><path class="cls-16" d="M132.15,62.54c2.19-.26,2.53-2.65,2.68-4.5a17.63,17.63,0,0,0-1.93-9.32c-.14-.27-.54,0-.41.24,1.67,3.33,3.9,11.22-.35,13.56,0,0,0,0,0,0Z"/><path class="cls-16" d="M114.47,55.53a54.39,54.39,0,0,0,1.32,6.31c0,.18.29.1.27-.07a56,56,0,0,0-1.48-6.27c0-.07-.12,0-.11,0Z"/><path class="cls-16" d="M115.9,61.92c-1.82,4.89-.82,10.61-.48,15.67.37,5.47.57,11.37,2.12,16.66,0,.13.27.11.26,0-.57-5.39-1.53-10.71-1.92-16.14S114.67,67.16,116,62a.07.07,0,0,0-.13,0Z"/><path class="cls-16" d="M132.06,62.26c.09,13.46,1,26.65-2.52,39.82a.19.19,0,0,0,.36.1c3.63-12.81,3.56-26.74,2.46-39.92a.15.15,0,0,0-.3,0Z"/><path class="cls-16" d="M116.88,89.9a49.15,49.15,0,0,0-13,1.12.16.16,0,0,0,.05.31c4.33-.28,8.63-.83,13-1.08a.18.18,0,0,0,0-.35Z"/><path class="cls-16" d="M105.23,90.46a42.38,42.38,0,0,1-5.67-1.21c-.29-.11-.42.36-.13.46a12.09,12.09,0,0,0,5.8,1,.1.1,0,0,0,0-.2Z"/><path class="cls-16" d="M93.23,95.68c4.21,1.77,8.58,2.87,12.75,4.84.26.12.48-.26.22-.39-3.89-2-8.54-4.19-13-4.56a.06.06,0,0,0,0,.11Z"/><path class="cls-16" d="M106,100.42c3.46,2.36,8.08,3.75,12.16,4.56a16.58,16.58,0,0,0,10.88-1.22c.24-.12,0-.47-.21-.36-7.78,3.6-15.48-.31-22.75-3.18-.12,0-.18.13-.08.2Z"/><path class="cls-16" d="M99.63,89.7a6.34,6.34,0,0,0-1-1.59,4.67,4.67,0,0,0-1.43-1.47.1.1,0,0,0-.14.14,6.89,6.89,0,0,0,1.12,1.47,17.31,17.31,0,0,0,1.26,1.57c.08.08.25,0,.21-.12Z"/><path class="cls-16" d="M97.76,86.93a15.59,15.59,0,0,1,1.92-6.27.14.14,0,0,0-.05-.19,2.38,2.38,0,0,0-2.92.48,8.51,8.51,0,0,0-.94,2,5.31,5.31,0,0,1-2.61,2.47.11.11,0,0,0,.09.2,4.31,4.31,0,0,0,2.2-1.56c.78-1,.84-2.64,2-3.33a2.13,2.13,0,0,1,1.51-.25c.55.33.18.65,0,1A12.63,12.63,0,0,0,98.29,83a10.29,10.29,0,0,0-.64,4,.06.06,0,1,0,.11,0Z"/><path class="cls-16" d="M94.76,84.38c-1.32-.66-2.66-1.24-3.91-2s-2.31-1.82-3.53-2.64c-.13-.09-.24.1-.16.21a15.14,15.14,0,0,0,7.54,4.6c.09,0,.15-.11.06-.15Z"/><path class="cls-16" d="M86.43,79.6a2,2,0,0,0-1.11,2.63,5,5,0,0,0,1.11,1.6c.21.27.34.1.19.49s-.56-.1-.84-.32a10.21,10.21,0,0,0-1.14-.81.13.13,0,0,0-.15.2c.36.35,2.58,2.55,2.82,1.2.09-.45-.37-.74-.65-1-1.12-1-1.8-2.91-.18-3.87a.07.07,0,0,0,0-.13Z"/><path class="cls-16" d="M84.73,83.45A2,2,0,0,0,83.12,86a.18.18,0,0,0,.34-.09,2.12,2.12,0,0,1,1.27-2.4,0,0,0,1,0,0,0Z"/><path class="cls-16" d="M83.12,85.84a2.68,2.68,0,0,0,1,1.39c.38.28,1.13.72,1.63.55a.1.1,0,0,0,0-.18,1.9,1.9,0,0,0-.57-.18,3.34,3.34,0,0,1-.81-.38,4.2,4.2,0,0,1-1.15-1.26.08.08,0,0,0-.14.06Z"/><path class="cls-16" d="M83.31,85.7a2.25,2.25,0,0,0-1.4,1.16,1.88,1.88,0,0,0-.12,1.72.12.12,0,0,0,.21-.06A3.57,3.57,0,0,1,82.23,87a2.37,2.37,0,0,1,1.16-1.07c.12-.05,0-.23-.08-.2Z"/><path class="cls-16" d="M81.79,88.17a4.57,4.57,0,0,0,3.46,2.11c.18,0,.21-.27,0-.31a6.65,6.65,0,0,1-3.39-1.88.07.07,0,0,0-.11.08Z"/><path class="cls-16" d="M82.48,88.59a1.87,1.87,0,0,0,.68,2.59.11.11,0,0,0,.12-.16,3.65,3.65,0,0,1-.67-1,2.48,2.48,0,0,1,0-1.35.07.07,0,0,0-.13,0Z"/><path class="cls-16" d="M82.45,88.74c-.63.92-.19,1.82.35,2.67A7.51,7.51,0,0,0,85.13,94c.12.07.27-.1.16-.19-1.14-.89-3.54-3.42-2.72-5a.07.07,0,0,0-.12-.07Z"/><path class="cls-16" d="M86.35,94.62a6,6,0,0,0,3.1,1,38.72,38.72,0,0,0,4.69.29c.16,0,.21-.26,0-.29-2.54-.4-5.4.07-7.75-1.17-.09,0-.16.08-.08.14Z"/><path class="cls-16" d="M98.8,80.28c-.25.34-.48.7-.72,1a2.47,2.47,0,0,0-.51.87c0,.34.22.65.56.5.1,0,.05-.22-.06-.21-.54.07-.06-.67,0-.75l.28-.47c.19-.31.38-.62.56-.94,0-.06-.06-.11-.1,0Z"/><path class="cls-16" d="M114.83,56.69c-4,4.28-9.76,7.69-12.06,13.3-1.63,4-.84,9,3.27,11.07.24.12.44-.23.21-.35-5.84-3-4.08-10.3-.69-14.47,2.82-3.46,6.65-5.93,9.37-9.47,0-.06-.05-.13-.1-.08Z"/><path class="cls-16" d="M104.39,79.89c-2,3-2.33,7-1.71,10.46a.21.21,0,0,0,.41,0V90a.1.1,0,0,0-.17-.08c.25-.26-.09-2-.09-2.48a15.59,15.59,0,0,1,.29-3.13,28,28,0,0,1,1.4-4.39c0-.09-.09-.13-.14-.06Z"/><path class="cls-16" d="M102.73,99c-.5,5.19.53,10.48.23,15.7a28.33,28.33,0,0,1-4.29,14,.08.08,0,0,0,.12.09,22.78,22.78,0,0,0,4.47-12A79.48,79.48,0,0,0,102.92,99a.1.1,0,0,0-.19,0Z"/><path class="cls-16" d="M137.81,108.84l.1,0c.12,0,.12-.18,0-.15l-.1,0a.05.05,0,0,0,0,.1Z"/><path class="cls-16" d="M137.72,108.75c2.24,3.39,4.42,6.54,5.86,10.39a39.55,39.55,0,0,1,2.32,11.7c0,.27.44.28.43,0-.14-7.72-2.93-16.61-8.41-22.24-.1-.1-.28,0-.2.15Z"/><path class="cls-16" d="M102.51,12.8C98.23,9.66,94,14.55,93.3,18.58c-1.13,6.68,1.6,14,5.53,19.32.19.24.61,0,.42-.25A28.2,28.2,0,0,1,93.7,23.88c-.3-2.71-.34-5.72,1-8.19,1.57-2.92,4.65-4.21,7.7-2.69a.12.12,0,0,0,.12-.2Z"/><path class="cls-16" d="M106.13,43.11a.54.54,0,0,0,.31.22c.09,0,.21-.07.12-.16a.78.78,0,0,0-.35-.21c-.08,0-.14.09-.08.15Z"/><path class="cls-16" d="M106.1,43.61a22.2,22.2,0,0,0,6-.33c.17,0,.12-.28,0-.3a22.1,22.1,0,0,0-6,.38.13.13,0,0,0,0,.25Z"/><path class="cls-16" d="M111.58,43.26a21,21,0,0,0,4.63-.42c.11,0,.13-.23,0-.25a21.26,21.26,0,0,0-4.63.31c-.22,0-.23.37,0,.36Z"/><path class="cls-16" d="M116.39,42.93a1.71,1.71,0,0,0-.81-1.66c-.16-.07-.35.08-.25.25s.34.39.47.62a6.07,6.07,0,0,1,.35.83.12.12,0,0,0,.24,0Z"/><path class="cls-16" d="M116.26,39.86a6,6,0,0,1,2.83-3.1c.21-.13.07-.49-.17-.4a4.69,4.69,0,0,0-2.86,3.45.1.1,0,0,0,.2,0Z"/><path class="cls-16" d="M102.81,26.91c1.13,0,2.26-1.1,2.9-1.94,0,0,0-.08-.06,0a5.24,5.24,0,0,1-1.4,1.12c-.48.25-1,.42-1.49.7a.09.09,0,0,0,0,.16Z"/><path class="cls-16" d="M104.24,28.14a6.1,6.1,0,0,1,.28-1.4,7.1,7.1,0,0,1,.7-1.23s0-.07,0,0a3.51,3.51,0,0,0-1,2.67,0,0,0,1,0,.08,0Z"/><path class="cls-16" d="M103.06,26.85c-.23.72.86,1.42,1.33.77a.09.09,0,0,0-.08-.13,1.87,1.87,0,0,1-.53,0c-.41-.05-.51-.31-.61-.67,0-.05-.09-.05-.11,0Z"/><path class="cls-16" d="M104.25,27.54a1.15,1.15,0,0,0,.5,1.08s.12,0,.08-.09a4.6,4.6,0,0,1-.48-1,.05.05,0,0,0-.1,0Z"/><path class="cls-16" d="M104.36,26.92a1.27,1.27,0,0,0,.26.88c0,.06.16,0,.13-.05-.12-.28-.21-.56-.3-.84,0-.06-.09-.05-.09,0Z"/><path class="cls-16" d="M104.53,26.5a1.77,1.77,0,0,0,.32,1c0,.06.13,0,.11,0a5.36,5.36,0,0,0-.36-1,0,0,0,0,0-.07,0Z"/><path class="cls-16" d="M104.7,26.16a1.19,1.19,0,0,0,.33.66c0,.06.16,0,.11-.09a1.72,1.72,0,0,1-.31-.6c0-.08-.14-.05-.13,0Z"/><path class="cls-16" d="M104.92,26a2.51,2.51,0,0,0,.32.46c0,.05.11,0,.09-.05a2.92,2.92,0,0,0-.25-.5.09.09,0,0,0-.16.09Z"/><path class="cls-16" d="M103.17,26.47a2.7,2.7,0,0,1-.56-.45.14.14,0,0,0-.21.12c0,.39.37.55.73.59.16,0,.16-.21,0-.26Z"/><path class="cls-16" d="M104,26.27a6.43,6.43,0,0,1-1.2-1.07c0-.05-.14,0-.11.06A2,2,0,0,0,104,26.39a.07.07,0,0,0,.05-.12Z"/><path class="cls-16" d="M104.52,26.05a5.68,5.68,0,0,1-1-1c0-.05-.12,0-.1,0a1.61,1.61,0,0,0,1.07,1s.09-.05,0-.08Z"/><path class="cls-16" d="M104.67,25.78a2.52,2.52,0,0,1-.66-1.22c0-.07-.11,0-.11,0a1.32,1.32,0,0,0,.69,1.31c.06,0,.13-.05.08-.1Z"/><path class="cls-16" d="M103.23,27a1.16,1.16,0,0,1,.86.24c.06.05.14,0,.08-.08a.83.83,0,0,0-1-.23,0,0,0,0,0,0,.07Z"/><path class="cls-16" d="M101.91,22.86a.59.59,0,0,0,.5.45c.08,0,.15-.08.08-.14a1.49,1.49,0,0,0-.55-.34,0,0,0,0,0,0,0Z"/><path class="cls-16" d="M102.48,23.27a3.4,3.4,0,0,1,4.32-.38c.06,0,.12-.05.07-.09a3.05,3.05,0,0,0-4.45.43s0,.07.06,0Z"/><path class="cls-16" d="M103,24.51s0,0,0,0,0,0,0,0Z"/><path class="cls-16" d="M102.61,25.45a3.63,3.63,0,0,1,2.15-1.24s0-.05,0-.05a2.56,2.56,0,0,0-2.21,1.24s0,.09.07.05Z"/><path class="cls-16" d="M102.65,37.13c-11,2.08-19.11-6-27.1-12.17C71,21.45,61,14.39,56.17,21.15a.21.21,0,0,0,.07.28l.64.29c.23.11.44-.23.21-.34a2.41,2.41,0,0,1,1.45-1.78,6.77,6.77,0,0,1,2.61-.71,10.45,10.45,0,0,1,3.92.57,26.2,26.2,0,0,1,6,2.93C75,24.83,78.38,27.93,82,30.73c5.85,4.53,13.08,8.7,20.71,6.6a.1.1,0,0,0,0-.2Z"/><path class="cls-16" d="M104.81,42.8C97.93,47,90.56,43.18,84.13,40q-9.34-4.61-18.36-9.81a.24.24,0,0,0-.25.42C72.61,34.68,79.84,38.55,87.23,42c5.42,2.57,12.33,5,17.67.93.1-.08,0-.23-.09-.17Z"/><path class="cls-16" d="M57.64,21.09C55.18,37.52,46,51.77,42.29,67.83a87.32,87.32,0,0,0,1.33,44,82.69,82.69,0,0,0,10.63,22.86c0,.05.13,0,.1-.06A88.82,88.82,0,0,1,40.53,91.35a85.73,85.73,0,0,1,2-23c1.74-7.62,4.73-14.83,7.69-22,3.34-8.11,6.67-16.37,7.71-25.15,0-.17-.29-.22-.32,0Z"/><path class="cls-16" d="M69.26,32.27C56.4,60.53,44.16,95.44,56.84,125.94c0,.12.25.07.2,0C51.42,110.49,50.9,94.24,54,78.21s9.37-30.87,15.49-45.86c.05-.11-.15-.19-.2-.08Z"/><path class="cls-16" d="M52.87,131.57c.38-.51,3.84-5.28,3.8-5.3-.19-.11-3.48,4.76-3.83,5.29-.05.08.07.15.13.08,1.4-1.85,2.68-3.79,4-5.69,0-.08-.08-.15-.13-.07-1.36,1.88-2.73,3.75-4.07,5.64,0,0,.05.1.08,0Z"/><path class="cls-16" d="M54.18,134.64c10-13.73,19.2-28.15,28.72-42.23.13-.2-.19-.38-.32-.19-9.53,14.07-19.51,28-28.52,42.35-.05.07.07.13.12.07Z"/><path class="cls-16" d="M90.09,82.57c4.76-5.21,8.76-11.32,12.78-17.11,4.23-6.09,8.42-12.27,12.1-18.7a.11.11,0,0,0-.19-.11c-4,6.09-7.8,12.26-12,18.24S94,76.48,90,82.52c0,0,0,.09.07,0Z"/><path class="cls-16" d="M98.77,96.43c-6.68,11.73-12.75,23.88-19,35.84-.11.21.2.39.31.18C86.43,120.54,93,108.68,99,96.54c.06-.12-.12-.23-.19-.11Z"/><path class="cls-16" d="M99.29,90.89c1.1-1.38,2.16-2.81,3.28-4.19a.11.11,0,1,0-.18-.13c-1,1.43-2.15,2.82-3.22,4.24,0,.06.07.15.12.08Z"/><path class="cls-16" d="M57,125.94c8.74-11.39,17.05-23.16,25.47-34.79.08-.11-.11-.22-.19-.11C73.82,102.6,65.15,114.11,57,125.9a0,0,0,1,0,.07,0Z"/><path class="cls-16" d="M89.13,80.81c1.1-1.51,2.14-3.06,3.19-4.59a.08.08,0,1,0-.13-.08c-1,1.54-2.1,3.07-3.11,4.64a0,0,0,1,0,0,0Z"/><path class="cls-16" d="M94.31,73.24c1.08-1.31,2.14-2.65,3.19-4,0-.06,0-.15-.09-.09-1.08,1.32-2.16,2.65-3.2,4,0,.06.05.13.1.08Z"/><path class="cls-16" d="M100.45,65.62c1.35-1.58,2.74-3.13,4-4.77,0,0,0-.1-.06-.06-1.4,1.53-2.69,3.17-4,4.77a0,0,0,0,0,.06.06Z"/><path class="cls-16" d="M108.11,54.7c1.39-1.66,2.78-3.33,4.13-5,.05-.06,0-.15-.09-.09q-2.09,2.51-4.11,5.06s0,.11.07.06Z"/><path class="cls-16" d="M86.81,79.94c4.89-5.64,9.29-11.76,13.75-17.73,4.66-6.24,9.33-12.5,13.74-18.91.14-.2-.18-.37-.31-.19-4.51,6.17-8.91,12.39-13.48,18.5s-9.41,12-13.82,18.24a.08.08,0,0,0,.12.09Z"/><path class="cls-16" d="M85.4,82.1c-.34.4-.7.79-1,1.22a.05.05,0,0,0,.08.06c.37-.37.68-.79,1-1.19.05-.06,0-.15-.09-.09Z"/><path class="cls-16" d="M81,87.77a380.15,380.15,0,0,1-25.56,33.6c-.17.19.11.48.28.28A302.82,302.82,0,0,0,81.13,87.84c.05-.08-.08-.16-.14-.07Z"/><path class="cls-16" d="M102.2,129.65a22.19,22.19,0,0,0,7-9.13c.06-.13-.16-.19-.22-.06a23.64,23.64,0,0,1-6.83,9.09s0,.14.07.1Z"/><path class="cls-16" d="M108.36,122.47a8.44,8.44,0,0,0,2.7,7.3c.1.08.23-.05.14-.14a9.16,9.16,0,0,1-2.63-7.16c0-.14-.2-.14-.21,0Z"/><path class="cls-16" d="M128.69,120.44a15,15,0,0,1-3.26,9.91c-.07.1.08.22.16.13a13.37,13.37,0,0,0,3.23-10c0-.08-.13-.08-.13,0Z"/><path class="cls-16" d="M134.79,103.26c-2.12,3.65.32,7.29,2,10.59a40.09,40.09,0,0,1,4.71,16.8c0,.1.16.1.16,0a30,30,0,0,0-2.71-13c-1.76-4.21-6.48-9.65-4-14.32,0-.07-.07-.14-.11-.06Z"/><path class="cls-16" d="M138.41,55.7a32.33,32.33,0,0,1,.64,15.3c0,.15.2.21.24.06a27.51,27.51,0,0,0-.69-15.41.1.1,0,0,0-.19.05Z"/><path class="cls-16" d="M130,64.81c.5,8.23-.05,16.32-.35,24.54a.1.1,0,0,0,.2,0c1.21-8,.89-16.49.28-24.56,0-.08-.13-.08-.13,0Z"/><path class="cls-16" d="M103.33,95.53a32.33,32.33,0,0,0,20.43,7,.11.11,0,0,0,0-.21,49.12,49.12,0,0,1-10.67-2,44.93,44.93,0,0,1-9.67-4.92c-.07,0-.16.07-.09.12Z"/><path class="cls-16" d="M86.27,80.27a1.62,1.62,0,0,0-.6,1c0,.08.1.15.14.06a3.4,3.4,0,0,1,.61-.93c.09-.11,0-.25-.15-.16Z"/><path class="cls-16" d="M84.11,84.33a1.78,1.78,0,0,0-.42,1.36c0,.12.19.1.22,0,.13-.42.21-.85.34-1.28,0-.08-.09-.15-.14-.08Z"/><path class="cls-16" d="M82.55,87a4.4,4.4,0,0,0-.37.93.11.11,0,0,0,.19.08,4.42,4.42,0,0,0,.4-.92c0-.13-.16-.22-.22-.09Z"/><path class="cls-16" d="M82.58,89.23a1.7,1.7,0,0,0-.07.55c0,.09.12.1.16,0a2,2,0,0,0,.07-.55.08.08,0,0,0-.16,0Z"/><path class="cls-16" d="M97.45,84a2.26,2.26,0,0,0,.37.22.09.09,0,0,0,.09-.15l-.38-.21a.08.08,0,0,0-.08.14Z"/><path class="cls-16" d="M97.44,84.14a.55.55,0,0,0,.52.17c.09,0,.06-.14,0-.14L97.55,84c-.07-.06-.17,0-.11.1Z"/><path class="cls-16" d="M97.54,84.35l.08.07s.08,0,0,0l-.07-.08c0-.05-.1,0-.06.06Z"/><path class="cls-16" d="M97.32,84.69a2.46,2.46,0,0,0,.53.15c.07,0,.15-.1.06-.14a2.57,2.57,0,0,0-.54-.16.08.08,0,1,0-.05.15Z"/><path class="cls-16" d="M97.56,87.14a1,1,0,0,0-.32-.55.06.06,0,0,0-.11.06,1,1,0,0,0,.31.56.07.07,0,0,0,.12-.07Z"/><path class="cls-16" d="M99.23,89.4a8.93,8.93,0,0,1-1.21,4,11.52,11.52,0,0,1-2.74,2.7c-.12.09,0,.31.16.26,2.58-1,4.34-4.3,4.18-7a.2.2,0,0,0-.39,0Z"/><path class="cls-16" d="M97.06,96.8c2.87-.69,4.62-4,4.8-6.77a.23.23,0,0,0-.35-.2l-.28.15a.16.16,0,0,0,.08.3c.43,0-1,3.36-1.2,3.64A10.66,10.66,0,0,1,97,96.63a.09.09,0,0,0,.07.17Z"/><path class="cls-16" d="M98.12,93.65c-.1.62.54,1,1.1.95a2.27,2.27,0,0,0,1.7-1.58,1,1,0,0,0-1-1.26A1.63,1.63,0,0,0,98.36,93c0,.09.1.16.17.09a2.71,2.71,0,0,1,1-.82c.48-.14,1,.17.88.74-.25.87-1.64,1.76-2.17.64a.1.1,0,0,0-.17,0Z"/><path class="cls-16" d="M107.74,80.94l-.3.08s0,0,0,0l.3-.06s0-.06,0-.06Z"/><path class="cls-16" d="M107.26,81.1a2,2,0,0,0,2.18-.18c.07-.06,0-.16-.1-.12a2.42,2.42,0,0,1-2,.21,0,0,0,0,0,0,.09Z"/><path class="cls-16" d="M107.2,83.73a5.21,5.21,0,0,1,2.22,1.83c.06.07.16,0,.12-.09a4.27,4.27,0,0,0-2.3-1.9c-.1,0-.15.12,0,.16Z"/><path class="cls-16" d="M116.31,56a3.82,3.82,0,0,1,.48-2.09,4.54,4.54,0,0,1,1.53-1.49.16.16,0,0,0-.13-.3,3.5,3.5,0,0,0-2.08,3.9.1.1,0,0,0,.2,0Z"/><path class="cls-16" d="M117.9,47.94a10.28,10.28,0,0,1-.73,2c-.09.18.17.33.27.16a3.56,3.56,0,0,0,.54-2.17,0,0,0,0,0-.08,0Z"/><path class="cls-16" d="M132.19,51a14.76,14.76,0,0,1,.72,4,.13.13,0,0,0,.25,0,8.79,8.79,0,0,0-.76-4.07c-.05-.13-.26-.08-.21.06Z"/><path class="cls-16" d="M124.17,47.55a5.15,5.15,0,0,1,4.56.1c.07,0,.14-.07.06-.11a4.82,4.82,0,0,0-4.7-.12c-.09,0,0,.17.08.13Z"/><path class="cls-16" d="M103.06,38.59a12.34,12.34,0,0,0,1.68-.81c.63-.29,1.31-.5,1.93-.83a.1.1,0,0,0-.08-.18,8.5,8.5,0,0,0-1.87.72,6.33,6.33,0,0,0-1.72,1,.06.06,0,0,0,.06.09Z"/><path class="cls-16" d="M107.11,36.63l.15.25a0,0,0,0,0,.09,0c.13-.18,0-.34-.19-.39-.06,0-.12.09,0,.12Z"/><path class="cls-16" d="M103.56,37.24a3.16,3.16,0,0,0,1.67-.16,0,0,0,0,0,0-.07,10.19,10.19,0,0,1-1.65.08c-.1,0-.1.14,0,.15Z"/><path class="cls-16" d="M103.89,39.66a16.9,16.9,0,0,0,1.17-1.35,8.63,8.63,0,0,0,1-1.25c0-.05,0-.09-.07-.05a10.17,10.17,0,0,0-1.19,1.34,15.16,15.16,0,0,0-1,1.24.06.06,0,0,0,.09.07Z"/><path class="cls-16" d="M105,27.79a0,0,0,0,0,0-.09,0,0,0,1,0,0,.09Z"/><path class="cls-16" d="M104.13,28.48a17.15,17.15,0,0,0,1.21-1.72s0,0,0,0a15.73,15.73,0,0,0-1.23,1.71s0,.05,0,0Z"/><path class="cls-16" d="M104.35,28.36a4.3,4.3,0,0,1,.9-1.18,5,5,0,0,1,1.31-.71s0-.08,0-.07a3,3,0,0,0-2.26,1.93c0,.05,0,.07.07,0Z"/><path class="cls-16" d="M110.59,28a0,0,0,1,0,0,0,0,0,0,0,0,0,0Z"/><path class="cls-16" d="M109.53,29.9l-.07.08s0,0,0,0l.07-.07s0,0,0,0Z"/><path class="cls-16" d="M109.77,29.7s0,0,0,0a0,0,0,1,0,0,0Z"/><path class="cls-16" d="M110.82,27.27a10.86,10.86,0,0,1-1.65,3.32h0a9.17,9.17,0,0,0,1.73-3.3c0-.06-.07-.08-.09,0Z"/><path class="cls-16" d="M108.78,31.1l-.15.2s0,0,0,0a5.63,5.63,0,0,0,1.55-2.38s0,0,0,0a10.14,10.14,0,0,1-.67,1.26,7.76,7.76,0,0,1-.5.67c-.06.06-.4.5-.24.24,0,0,0,0,0,0Z"/><path class="cls-16" d="M110.56,28.11a13.22,13.22,0,0,1-1.52,3c0,.05,0,.09.08,0a13,13,0,0,0,1.52-3c0-.05-.06-.07-.08,0Z"/><path class="cls-16" d="M101.12,13.46c-3-.88-6.82,2.08-6,5.33a.1.1,0,0,0,.2,0,6.46,6.46,0,0,1,1.51-3.66,5.69,5.69,0,0,1,4.3-1.47.1.1,0,0,0,0-.2Z"/><path class="cls-16" d="M105.09,11.56c5.1-5,14.29-9.79,21-4.84.16.12.31-.13.2-.26-2.4-2.78-7.13-2.41-10.36-1.72a19.1,19.1,0,0,0-11,6.62c-.11.14.06.33.2.2Z"/><path class="cls-16" d="M135.49,28.28a15.75,15.75,0,0,0,1.65,8.26,16,16,0,0,0,2.19,3.22c1.37,1.56,3.66,2.7,4.08,4.86a.14.14,0,0,0,.28,0c-.18-2.56-3-3.87-4.51-5.72a16.62,16.62,0,0,1-3.55-10.59.07.07,0,0,0-.14,0Z"/><path class="cls-16" d="M127.74,36.08c2.6,8.28,14.22,8.61,16.45,17.45,0,.13.26.11.25,0-.39-3.5-2.87-6-5.64-8-4.09-2.89-8.45-4.88-10.92-9.51a.08.08,0,0,0-.14.06Z"/><path class="cls-16" d="M110.6,17.16c.55-.12,1.11-.23,1.65-.37a0,0,0,1,0,0-.09c-.55.09-1.1.24-1.64.37a0,0,0,1,0,0,.09Z"/><path class="cls-16" d="M111,17.61a4.35,4.35,0,0,0,1.89-.31s0-.09,0-.08a7.3,7.3,0,0,1-1.86.3,0,0,0,1,0,0,.09Z"/><path class="cls-16" d="M111.88,18.29,113,18c.06,0,0-.09,0-.08-.38.08-.75.18-1.12.28a.06.06,0,1,0,0,.11Z"/><path class="cls-16" d="M111.86,19a2.67,2.67,0,0,0,1.83-.55s0-.1-.06-.07a3.35,3.35,0,0,1-1.77.52.05.05,0,1,0,0,.1Z"/><path class="cls-16" d="M113.21,19.67s0,0,0,0,0,0,0,0Z"/><path class="cls-16" d="M113.38,20.65a14.77,14.77,0,0,0,1.46-.5c.1,0,0-.19-.07-.17a14.35,14.35,0,0,0-1.43.52c-.09,0,0,.18,0,.15Z"/><path class="cls-16" d="M114.81,20.68l.44-.23s0-.11,0-.08l-.46.22c-.06,0,0,.12.06.09Z"/><path class="cls-16" d="M114.5,21.37a3.81,3.81,0,0,0,1.83-1.06c0-.07,0-.17-.09-.12a13.88,13.88,0,0,1-1.77,1.07c-.07,0,0,.14,0,.11Z"/><path class="cls-16" d="M112.93,20.17a14.54,14.54,0,0,0,1.9-.72c.12-.05,0-.23-.08-.2a14,14,0,0,0-1.87.8c-.07,0,0,.15.05.12Z"/><path class="cls-16" d="M103.93,17.19a2,2,0,0,1,.28-1,.07.07,0,1,0-.11-.07,1.61,1.61,0,0,0-.33,1.08.08.08,0,0,0,.16,0Z"/><path class="cls-16" d="M104.57,16.69l.44-.61s0-.07-.06,0l-.46.59c0,.06,0,.13.08.06Z"/><path class="cls-16" d="M105.2,16.6s0,0,0,0,0,0,0,0Z"/><path class="cls-16" d="M105.85,16.47l.14-.23c0-.06,0-.1-.09,0l-.15.22c0,.06.06.13.1.06Z"/><path class="cls-16" d="M104.62,17.16a.87.87,0,0,1,.34-1.09c.08-.06,0-.15-.07-.14a.81.81,0,0,0-.42,1.32.09.09,0,0,0,.15-.09Z"/><path class="cls-16" d="M105.3,16.79a.58.58,0,0,1-.1-.76c0-.07,0-.18-.12-.12a.68.68,0,0,0,0,1.07c.13.11.32-.08.19-.19Z"/><path class="cls-16" d="M105.94,16.78a.91.91,0,0,1,.26-1.06s0-.09,0-.07a.9.9,0,0,0-.32,1.19c0,.08.14,0,.11-.06Z"/><path class="cls-16" d="M106.77,16.3s0,0,0,0,0,0,0,0Z"/><path class="cls-16" d="M107.4,16.34a1.33,1.33,0,0,1,.23-.93s0-.09-.06-.06a1,1,0,0,0-.37,1,.1.1,0,1,0,.2,0Z"/><path class="cls-16" d="M108.14,16.42a1.18,1.18,0,0,1,.25-1.07s0-.08-.06-.06a1,1,0,0,0-.38,1.18.1.1,0,0,0,.19,0Z"/><path class="cls-16" d="M108.78,16.58a1.21,1.21,0,0,1,.35-1.29s0-.09,0-.07a1,1,0,0,0-.47,1.42c0,.09.19,0,.16-.06Z"/><path class="cls-16" d="M109.81,16.17l.22-.31s0-.08-.07,0l-.23.3c0,.05,0,.12.08.06Z"/><path class="cls-16" d="M103.4,17.55a1.27,1.27,0,0,0-1.36-.82c-.09,0-.08.14,0,.16a2.17,2.17,0,0,1,1.22.74c.06.06.17,0,.14-.08Z"/><path class="cls-16" d="M102.87,17.65a2,2,0,0,0-2-.44s0,.1,0,.1a3.1,3.1,0,0,1,1.9.48c.08.07.19-.07.11-.14Z"/><path class="cls-16" d="M101.93,17.87a2.93,2.93,0,0,0-1.61.07.07.07,0,0,0,0,.14,3.59,3.59,0,0,1,1.53-.08c.08,0,.12-.11,0-.13Z"/><path class="cls-16" d="M88.44,84.14c.07-.56.41-.78.81-1.11a.18.18,0,0,0-.13-.3,1.42,1.42,0,0,0-1.07,1.41c0,.26.36.25.39,0Z"/><path class="cls-16" d="M86.66,87c.12-.42.44-.56.67-.87a.1.1,0,0,0-.09-.15c-.47,0-.72.54-.82,1a.13.13,0,0,0,.24.07Z"/><path class="cls-16" d="M85.79,89.57a1.36,1.36,0,0,0,.24-.85.13.13,0,0,0-.24-.06,1.42,1.42,0,0,0-.18.86.1.1,0,0,0,.18,0Z"/><path class="cls-16" d="M85,92.62a1.21,1.21,0,0,1,.41-.9c.14-.13-.06-.32-.2-.2a1,1,0,0,0-.37,1.12.08.08,0,0,0,.16,0Z"/><path class="cls-16" d="M89.8,86.59c1.16.82,2.32,1.62,3.48,2.43.1.07.2-.1.1-.18-1.17-.79-2.33-1.59-3.51-2.37-.07,0-.14.07-.07.12Z"/><path class="cls-16" d="M88.14,92.16a24.19,24.19,0,0,1,4.08.17.08.08,0,0,0,0-.15,15.65,15.65,0,0,0-4.1-.15c-.09,0-.09.14,0,.13Z"/><path class="cls-16" d="M88.79,89.51A27.8,27.8,0,0,0,92.1,91.3a0,0,0,0,0,0-.08,24.81,24.81,0,0,0-3.27-1.82c-.08,0-.14.07-.07.11Z"/><path class="cls-16" d="M94.89,98.82c-5.47,8-10.66,16.18-16,24.26,0,0,0,.07.06,0,5.34-8.08,10.83-16.06,16-24.22,0-.07-.07-.13-.11-.07Z"/><path class="cls-16" d="M78.06,124.27a0,0,0,0,0,0,0,0,0,0,0,0,0,0Z"/><path class="cls-16" d="M77.34,125.14a4.53,4.53,0,0,1-.88,1.5,0,0,0,1,0,0,0,4.15,4.15,0,0,0,.91-1.5s0,0,0,0Z"/><path class="cls-16" d="M86.47,97.87a195.08,195.08,0,0,1-13.32,17.78,0,0,0,0,0,0,0A105.33,105.33,0,0,0,86.61,98c.06-.09-.08-.17-.14-.08Z"/><path class="cls-16" d="M72.57,116.28s0,0,0,0,0,0,0,0Z"/><path class="cls-16" d="M72.17,117a38.37,38.37,0,0,0-5.72,7.47s0,.06,0,0A46,46,0,0,1,72.2,117s0,0,0,0Z"/><path class="cls-16" d="M67.34,33.8c-4,5.69-6.84,12.57-9.51,19a134.16,134.16,0,0,0-7,20.91.16.16,0,0,0,.3.08c2.08-6.76,4.16-13.48,6.85-20,2.81-6.83,6.54-13.12,9.61-19.8a.13.13,0,0,0-.22-.13Z"/><path class="cls-16" d="M50.31,50.3A91.38,91.38,0,0,0,42,101.54c0,.09.15.09.14,0a94.47,94.47,0,0,1,8.32-51.17c0-.08-.07-.15-.11-.07Z"/><path class="cls-16" d="M50.29,50.83A3.07,3.07,0,0,1,50.66,53c0,.07.08.1.1,0a2.74,2.74,0,0,0-.34-2.26.07.07,0,0,0-.13.07Z"/><path class="cls-16" d="M59.73,24.53a3,3,0,0,1,4.72-3.64.05.05,0,0,0,.08-.07,3.12,3.12,0,0,0-5,3.79c.06.1.21,0,.15-.08Z"/><path class="cls-16" d="M61.3,22a.92.92,0,0,0-.38,1.38.8.8,0,0,0,1.22,0,.76.76,0,0,0-.3-1.15.68.68,0,0,0-.83.84c0,.09.18.08.17,0,0-.41.45-.92.83-.43a.56.56,0,0,1-.29.84.69.69,0,0,1-.84-.49.84.84,0,0,1,.46-.92s0-.1,0-.08Z"/><path class="cls-16" d="M71.38,33.28a595.2,595.2,0,0,0,.34,71.43,0,0,0,0,0,.09,0c-1.14-23.81-1.39-47.61-.32-71.43,0-.07-.1-.07-.11,0Z"/><path class="cls-16" d="M74.42,35.45c-.51,21.52-.14,43.13,0,64.66a0,0,0,0,0,0,0c.17-21.53.53-43.14,0-64.66a.05.05,0,1,0-.1,0Z"/><path class="cls-16" d="M77.81,37.24c-.08,20,0,40.05,0,60.07a.09.09,0,0,0,.17,0q0-30,0-60.07a.05.05,0,0,0-.1,0Z"/><path class="cls-16" d="M81.18,39.64c-.31,8.56-.06,17.18,0,25.74s-.11,17.17.08,25.75c0,0,.07,0,.07,0,.18-8.58.06-17.17.08-25.75s.26-17.18,0-25.74c0-.09-.15-.09-.15,0Z"/><path class="cls-16" d="M85.6,41c-.32,13.19-.3,26.51,0,39.71a0,0,0,1,0,.07,0c.31-13.2.33-26.52,0-39.71,0-.06-.09-.06-.09,0Z"/><path class="cls-16" d="M90.19,43.43c-.3,11.87-.25,23.85,0,35.72a0,0,0,1,0,.09,0c.24-11.87.3-23.85,0-35.72a0,0,0,1,0-.09,0Z"/><path class="cls-16" d="M94.39,44.43c-.46,9.38-.2,18.94,0,28.34,0,0,.09,0,.09,0,.19-9.39.45-19,0-28.34,0,0,0,0-.06,0Z"/><path class="cls-16" d="M99.13,45.43c-.15,7-.2,14,0,20.95a.07.07,0,1,0,.13,0c.22-7,.17-14,0-20.95a.09.09,0,0,0-.17,0Z"/><path class="cls-16" d="M103.33,44c0,5.78-.1,11.58,0,17.36a.07.07,0,0,0,.13,0c.11-5.78,0-11.58,0-17.36a.07.07,0,0,0-.15,0Z"/><path class="cls-16" d="M106.16,43.83c-.13,3.71-.13,7.46,0,11.18a.07.07,0,0,0,.14,0c.09-3.72.1-7.47,0-11.18a0,0,0,0,0-.08,0Z"/><path class="cls-16" d="M108.73,44c-.08,3.3-.23,6.69,0,10,0,.05.08.05.08,0a94.92,94.92,0,0,0,0-10,.06.06,0,1,0-.12,0Z"/><path class="cls-16" d="M106.17,53.41c0,.92-.08,1.87,0,2.79,0,0,.07,0,.07,0,.07-.92,0-1.87,0-2.79a0,0,0,0,0-.06,0Z"/><path class="cls-16" d="M67.63,31.86c-.24,13,0,26,0,39s-.14,26,.06,39a0,0,0,1,0,.07,0c.2-13,.06-26,.06-39s.2-26,0-39a.06.06,0,1,0-.11,0Z"/><path class="cls-16" d="M66,31.86c-.35,27.19-.05,54.42.07,81.62h0c.11-27.2.41-54.43.07-81.62,0-.1-.16-.1-.16,0Z"/><path class="cls-16" d="M66.53,30.62a10.34,10.34,0,0,0-7.42-2.86c-.17,0-.24.28,0,.32a30.64,30.64,0,0,1,3.67.76,16.32,16.32,0,0,1,3.65,2c.12.08.25-.1.15-.2Z"/><path class="cls-16" d="M62.27,28.66c-.63,14.75-.1,29.64-.1,44.41s-.27,29.61.06,44.4a.07.07,0,0,0,.13,0c.33-14.79.06-29.61.06-44.4s.53-29.66-.1-44.41a0,0,0,0,0,0,0Z"/><path class="cls-16" d="M58.4,123.85c.47-15.87.05-31.81.05-47.69s0-31.8-.09-47.7c0-.06-.11-.06-.11,0-.14,15.9-.1,31.8-.1,47.7s-.41,31.82.06,47.69a.1.1,0,0,0,.19,0Z"/><path class="cls-16" d="M72.63,34.45q-.07,16.86-.08,33.73c0,11.2-.49,22.53.09,33.72,0,0,.06,0,.07,0,.58-11.19.09-22.52.09-33.72s0-22.49-.08-33.73a0,0,0,0,0-.09,0Z"/><path class="cls-16" d="M75.78,36.65c-.48,10.3-.06,20.72,0,31s-.1,20.69.06,31a0,0,0,0,0,.09,0c.17-10.34,0-20.69.06-31s.46-20.73,0-31a.09.09,0,1,0-.17,0Z"/><path class="cls-16" d="M79.2,38.24c-.41,9.22,0,18.52,0,27.74s0,18.49.07,27.74a0,0,0,0,0,0,0c.06-9.25.07-18.49.08-27.74s.36-18.52,0-27.74c0-.07-.1-.07-.11,0Z"/><path class="cls-16" d="M84.05,40.65s0,0,0,0,0,0,0,0Z"/><path class="cls-16" d="M83.36,40.64c-.38,14.2-.13,28.5.06,42.7a0,0,0,0,0,.06,0c.19-14.2.43-28.5.06-42.7,0-.11-.18-.11-.18,0Z"/><path class="cls-16" d="M88.19,42.43c-.4,6.41-.08,12.94-.07,19.36s0,12.91,0,19.36a.09.09,0,0,0,.17,0c0-6.45,0-12.91,0-19.36s.34-12.95-.06-19.36a.05.05,0,0,0-.1,0Z"/><path class="cls-16" d="M92.58,43.83c-.54,10.37-.15,20.94,0,31.33a.05.05,0,1,0,.1,0c.14-10.39.54-21,0-31.33a.05.05,0,0,0-.1,0Z"/><path class="cls-16" d="M96.77,45.43q-.12,11.87,0,23.74s.07,0,.08,0q.12-11.87,0-23.74a.05.05,0,1,0-.1,0Z"/><path class="cls-16" d="M101.39,45.23c-.12,5.72-.16,11.44,0,17.16,0,.08.13.08.13,0,.12-5.72.07-11.44,0-17.16a0,0,0,1,0,0,0Z"/><path class="cls-16" d="M109.76,44a61.2,61.2,0,0,0,0,7.78,0,0,0,0,0,.08,0,61.2,61.2,0,0,0,0-7.78s0,0-.06,0Z"/><path class="cls-16" d="M107.18,44c-.22,3.31-.09,6.67,0,10a0,0,0,0,0,.09,0c.06-3.31.19-6.67,0-10,0,0,0,0,0,0Z"/><path class="cls-16" d="M104.13,44c0,3.79-.06,7.59,0,11.37,0,.07.1.07.11,0,.08-3.78,0-7.58,0-11.37a.08.08,0,0,0-.15,0Z"/><path class="cls-16" d="M69,32.46c-.23,12.69,0,25.41,0,38.11s-.06,25.41.09,38.12c0,0,0,0,0,0,.15-12.71.07-25.41.09-38.12s.23-25.42,0-38.11a.1.1,0,1,0-.2,0Z"/><path class="cls-16" d="M60,28.07C59.56,43.67,60,59.35,60,75s-.3,31.28.11,46.9a0,0,0,1,0,0,0c.42-15.62.12-31.28.11-46.9s.41-31.29-.07-46.89a.06.06,0,1,0-.12,0Z"/><path class="cls-16" d="M64.22,29.66c-.5,14.44,0,29,0,43.41s-.1,28.93.06,43.4a.06.06,0,0,0,.11,0c.16-14.47.05-28.94.05-43.4s.46-29,0-43.41a.07.07,0,0,0-.14,0Z"/><path class="cls-16" d="M97.49,65.58c-2.65-2.24-5.58-4.14-8.22-6.42-.18-.16-.45.11-.27.26a44.14,44.14,0,0,0,8.45,6.22s.08,0,0-.06Z"/><path class="cls-16" d="M87.41,61.28a4.5,4.5,0,0,0,2-3.19c.53-2.4.92-4.88,1.31-7.31,0-.07-.1-.11-.11,0-.35,1.73-.63,3.48-.94,5.22-.34,1.94-.5,4-2.35,5.21-.06,0,0,.13.06.1Z"/><path class="cls-16" d="M90.81,50.5c.55-2-2.06-3.06-1.42-5.09,0,0,0-.09-.08,0a1.72,1.72,0,0,0-.08,1.86c.53,1.17,1.65,1.84,1.49,3.27,0,0,.07.06.09,0Z"/><path class="cls-16" d="M89.33,45.48c-.83-.38-1.5.17-1.76,1a22.49,22.49,0,0,0-.34,3,17.17,17.17,0,0,1-1.53,4.1.06.06,0,0,0,.11.06A9.88,9.88,0,0,0,87.32,50c.25-1.05,0-5,2-4.45,0,0,.09-.07,0-.09Z"/><path class="cls-16" d="M86.52,52.55a12.69,12.69,0,0,1-3.84-2.21c-.13-.11-.32.07-.19.19a8.58,8.58,0,0,0,4,2.14.06.06,0,1,0,0-.12Z"/><path class="cls-16" d="M82.23,50.29c-.93,0-1.85-.11-2.77-.1a.11.11,0,1,0,0,.21c.92.05,1.84,0,2.77,0a.07.07,0,0,0,0-.13Z"/><path class="cls-16" d="M79.45,50.07a2.82,2.82,0,0,0-1.31.75.06.06,0,0,0,.09.09,4.16,4.16,0,0,1,1.24-.75s0-.1,0-.09Z"/><path class="cls-16" d="M78.05,51c.14.68,2.09,8.1,3.54,6.26.08-.1-.06-.23-.13-.13-.86,1.07-2.2-2.73-2.33-3.07-.38-1-.67-2.05-1-3.09,0-.06-.1,0-.09,0Z"/><path class="cls-16" d="M81.93,57.07a13.4,13.4,0,0,0-1-5c0-.11-.23,0-.19.07a18.77,18.77,0,0,1,1.12,4.89,0,0,0,1,0,.08,0Z"/><path class="cls-16" d="M80.92,52.57a.7.7,0,0,0,1-.26c0-.05,0-.11-.08-.06a.74.74,0,0,1-.91.23c-.06,0-.1.05,0,.09Z"/><path class="cls-16" d="M78.27,50.59c-1-.4-2.44-2.12-3.6-1.1s.07,2.73-.2,3.89a.12.12,0,0,0,.24.06c.28-1.17-.73-2.57,0-3.58.91-1.21,2.43.67,3.51.81,0,0,0-.07,0-.08Z"/><path class="cls-16" d="M75.11,53.87a1.22,1.22,0,0,0,1.77-.55,1.25,1.25,0,0,0-1-1.62.1.1,0,0,0,0,.2,1.07,1.07,0,0,1,.83,1.45,1.13,1.13,0,0,1-1.52.43.05.05,0,0,0,0,.09Z"/><path class="cls-16" d="M76.67,52.29a3.61,3.61,0,0,1,.15-1.18.06.06,0,0,0-.12,0,2.52,2.52,0,0,0-.14,1.22c0,.06.11.07.11,0Z"/><path class="cls-16" d="M74.76,52.73c-1.17-.15-2.69,0-3.15,1.32-.27.76.31,2.12,1.29,1.78a.07.07,0,0,0,0-.13,1.32,1.32,0,0,1-1-.6,1.3,1.3,0,0,1,.29-1.53,3.38,3.38,0,0,1,2.56-.72c.08,0,.07-.11,0-.12Z"/><path class="cls-16" d="M73.78,55.36a1.55,1.55,0,0,0-.08-2.07c-.1-.1-.26.06-.16.17a1.06,1.06,0,0,1,.07,1.39c0,.06.06.14.11.08a1.21,1.21,0,0,0,0-1.64l-.16.17a1.4,1.4,0,0,1,.14,1.82c0,.06.06.14.1.08Z"/><path class="cls-16" d="M72.66,55.58a1,1,0,0,0-.8,1.18,1.7,1.7,0,0,0,1.44,1.32.08.08,0,0,0,0-.16c-.5-.2-1-.41-1.24-1a1,1,0,0,1,.59-1.27s0-.12,0-.11Z"/><path class="cls-16" d="M73.58,56.35a2.18,2.18,0,0,1,.5.2.48.48,0,0,1,.21.17c.31.21.21.47-.3.76a.08.08,0,0,0-.08.14.5.5,0,0,0,.75-.42c0-.58-.6-.84-1-1-.07,0-.09.08,0,.11Z"/><path class="cls-16" d="M74.86,58.7a6.73,6.73,0,0,1,1.08.85c.32.33.53.73.82,1.09,0,.07.19,0,.15-.07a3.85,3.85,0,0,0-2-2,.08.08,0,0,0-.08.13Z"/><path class="cls-16" d="M77.33,60.44A5,5,0,0,0,78.75,59s0-.11-.09-.06a13.93,13.93,0,0,1-1.39,1.38s0,.11.06.08Z"/><path class="cls-16" d="M77.2,60.8A5.12,5.12,0,0,0,81.55,63a.11.11,0,1,0,0-.21,5.4,5.4,0,0,1-4.25-2.1s-.14,0-.1.08Z"/><path class="cls-16" d="M81.08,63a2.82,2.82,0,0,0,3.19,2.06s.06-.1,0-.11a5.53,5.53,0,0,1-1.86-.54A5.48,5.48,0,0,1,81.13,63s0,0,0,0Z"/><path class="cls-16" d="M83.34,65.15a68.18,68.18,0,0,0,7.92,8.63c.09.08.21,0,.13-.12-2.59-2.9-5.27-5.78-8-8.57,0,0-.12,0-.08.06Z"/><path class="cls-16" d="M85.51,64.62l-.08.08s0,0,0,0l.07-.08s0,0,0,0Z"/><path class="cls-16" d="M85.11,65.22a13.36,13.36,0,0,0,3-2.59,0,0,0,0,0-.06-.06c-1,.89-2,1.74-2.94,2.6,0,0,0,.06,0,0Z"/><path class="cls-16" d="M85.85,65.57A15.93,15.93,0,0,0,89,62.41s0-.06,0,0a32.21,32.21,0,0,1-3.17,3.12s0,.12.08.08Z"/><path class="cls-16" d="M83.83,55.86c-1.14,1.58-1.45,4.09-.1,5.67.06.08.16,0,.13-.1-.85-1.88-1.11-3.68,0-5.53,0,0,0-.09-.08,0Z"/><path class="cls-16" d="M79.47,60.52l-.06.3h0l.06-.31s0,0,0,0Z"/><path class="cls-16" d="M79.18,62.1a5.08,5.08,0,0,0,1-3.77c0-.09-.15-.07-.15,0a7.29,7.29,0,0,1-1,3.67c0,.06,0,.13.1.08Z"/><path class="cls-16" d="M80.49,63a4.76,4.76,0,0,0,.32-4.83c0-.06-.14,0-.12.05A5.93,5.93,0,0,1,80.42,63c0,.05,0,.09.07,0Z"/><path class="cls-16" d="M76.66,51.67c.45.22.89.47,1.37.66,0,0,.06,0,0-.08-.43-.26-.89-.47-1.34-.69-.07,0-.13.07-.06.11Z"/><path class="cls-16" d="M73.47,53.75a0,0,0,1,0,0-.09,0,0,0,1,0,0,.09Z"/></svg>