<svg id="carracters" xmlns="http://www.w3.org/2000/svg" viewBox="0 0 198.43 35.43"><defs><style>.cls-1{fill:#6e6e6e;}.cls-2{fill:#fff;}</style></defs><path d="M57.12,11.54l.15-.08.5.67c.07-.46.13-.87.18-1.28s.14-1,.2-1.54c0-.11.05-.18.2-.1l-.4,3,.66-.48.1.14-.89.65-.7-.91Z"/><path d="M185.05,25l-.74,1.23a19.78,19.78,0,0,0-3.3-2.29c0,.36,0,.67,0,1a2.69,2.69,0,0,1-.53,1.52,2.35,2.35,0,0,1-1.55.85,5.91,5.91,0,0,1-3.09-.26,2.58,2.58,0,0,1-1.68-1.6,2.37,2.37,0,0,1,1.11-2.91,4.91,4.91,0,0,1,2-.62,6.36,6.36,0,0,1,2.26.19h.14l-.22-3.69h-5v-1.2c.82,0,1.65,0,2.47,0l2.47-.05c-.06-1.33-.12-2.61-.18-3.9h-4.45V12a47.81,47.81,0,0,0,9.17-.53l.16,1.28-1.56.21c-.52.06-1,.1-1.57.15,0,.16-.06.24-.38.33l.14,3.6a22.65,22.65,0,0,0,4-.65l.16,1.3a23.56,23.56,0,0,1-4.1.59c0,.3,0,.6.05.89,0,.76.09,1.52.14,2.28,0,.28,0,.55,0,.83a.24.24,0,0,0,.16.23,17,17,0,0,1,3.69,2.29Zm-5.27-.82h-.06c0-.21,0-.42,0-.63s0-.17-.15-.21a5,5,0,0,0-2.3-.28,3.1,3.1,0,0,0-1.32.42,1.3,1.3,0,0,0-.67,1.37A1.46,1.46,0,0,0,176.36,26a4.16,4.16,0,0,0,2,.19,1.29,1.29,0,0,0,1.23-1C179.69,24.85,179.72,24.5,179.78,24.15Z"/><path class="cls-1" d="M148.83,25l-.74,1.23a19.78,19.78,0,0,0-3.3-2.29c0,.36,0,.67,0,1a2.69,2.69,0,0,1-.53,1.52,2.33,2.33,0,0,1-1.55.85,5.87,5.87,0,0,1-3.08-.26,2.59,2.59,0,0,1-1.69-1.6,2.37,2.37,0,0,1,1.11-2.91,4.91,4.91,0,0,1,2-.62,6.36,6.36,0,0,1,2.26.19h.14l-.22-3.69h-5v-1.2c.82,0,1.65,0,2.48,0l2.46-.05c-.06-1.33-.12-2.61-.18-3.9h-4.44V12a47.75,47.75,0,0,0,9.16-.53l.16,1.28L146.3,13l-1.56.15c0,.16-.06.24-.39.33l.14,3.6a22.51,22.51,0,0,0,4-.65l.16,1.3a23.56,23.56,0,0,1-4.1.59c0,.3,0,.6.05.89,0,.76.09,1.52.14,2.28,0,.28,0,.55,0,.83a.24.24,0,0,0,.16.23,16.73,16.73,0,0,1,3.69,2.29Zm-5.27-.82h-.06v-.63c0-.12,0-.17-.15-.21a5,5,0,0,0-2.3-.28,3.1,3.1,0,0,0-1.32.42,1.3,1.3,0,0,0-.67,1.37A1.46,1.46,0,0,0,140.14,26a4.19,4.19,0,0,0,2,.19,1.29,1.29,0,0,0,1.22-1A9,9,0,0,0,143.56,24.15Z"/><path class="cls-1" d="M112.55,25l-.74,1.23a19.78,19.78,0,0,0-3.3-2.29c0,.36,0,.67,0,1a2.71,2.71,0,0,1-.53,1.52,2.37,2.37,0,0,1-1.55.85,6,6,0,0,1-3.09-.26,2.59,2.59,0,0,1-1.69-1.6,2.39,2.39,0,0,1,1.12-2.91,4.87,4.87,0,0,1,2-.62,6.38,6.38,0,0,1,2.26.19h.14L107,18.39h-5v-1.2h2.47l2.47-.05c-.06-1.33-.12-2.62-.18-3.9h-4.45V12a47.81,47.81,0,0,0,9.17-.53l.16,1.28c-.53.07-1,.15-1.56.21s-1,.1-1.57.14c0,.17-.06.24-.38.34l.14,3.6a22.65,22.65,0,0,0,4-.65l.16,1.3a24.55,24.55,0,0,1-4.1.59c0,.3,0,.6,0,.89,0,.76.09,1.52.14,2.28,0,.28,0,.55,0,.83a.23.23,0,0,0,.16.23,17,17,0,0,1,3.69,2.29Zm-5.27-.82h-.06c0-.21,0-.42,0-.63s0-.17-.15-.21a5,5,0,0,0-2.3-.28,3.09,3.09,0,0,0-1.32.41,1.32,1.32,0,0,0-.67,1.38A1.45,1.45,0,0,0,103.86,26a4.16,4.16,0,0,0,2,.19,1.32,1.32,0,0,0,1.23-1C107.19,24.86,107.22,24.5,107.28,24.16Z"/><path class="cls-1" d="M74.17,24.7l-.74,1.23a18.66,18.66,0,0,0-3.3-2.29c0,.36,0,.67,0,1a2.71,2.71,0,0,1-.53,1.52,2.34,2.34,0,0,1-1.55.84A5.81,5.81,0,0,1,65,26.72a2.54,2.54,0,0,1-1.68-1.59,2.37,2.37,0,0,1,1.11-2.91,4.77,4.77,0,0,1,2-.62,6.36,6.36,0,0,1,2.26.19h.14l-.22-3.69h-5v-1.2H66c.82,0,1.64,0,2.47,0-.06-1.33-.12-2.62-.18-3.9H63.87V11.74A47.81,47.81,0,0,0,73,11.21l.16,1.28-1.56.21-1.57.14c0,.17-.06.24-.38.34l.14,3.59a21.76,21.76,0,0,0,4-.64l.16,1.3a24.55,24.55,0,0,1-4.1.59c0,.3,0,.59,0,.89,0,.76.09,1.52.14,2.28,0,.28,0,.55,0,.83a.25.25,0,0,0,.16.23A17,17,0,0,1,74,24.54Zm-5.27-.82h-.06c0-.21,0-.42,0-.63s0-.17-.15-.21a5,5,0,0,0-2.3-.28,3.09,3.09,0,0,0-1.32.41,1.32,1.32,0,0,0-.67,1.38,1.46,1.46,0,0,0,1.08,1.16,4.16,4.16,0,0,0,2,.19,1.32,1.32,0,0,0,1.23-1C68.81,24.58,68.84,24.22,68.9,23.88Z"/><path d="M169.89,11.06l1.89.35a.44.44,0,0,1-.39.32c-.11,0-.15,0-.17.14-.27,1.41-.59,2.81-.81,4.23-.19,1.25-.3,2.52-.38,3.78-.05.8,0,1.61,0,2.42,0,.51.08,1,.12,1.58l1.58-4c.31.28.57.52.83.78a.24.24,0,0,1,0,.22c-.32.74-.67,1.48-1,2.23a11,11,0,0,0-.8,2.5,2.49,2.49,0,0,0,0,.61c0,.19.08.38.12.6l-.83.18c-.49.11-.49.1-.64-.38a15.31,15.31,0,0,1-.62-3.36c-.08-1.07-.15-2.15-.14-3.22s.11-2,.21-3a54.15,54.15,0,0,1,.95-5.79Z"/><path class="cls-2" d="M34.35,25l-.74,1.23a19.78,19.78,0,0,0-3.3-2.29c0,.36,0,.67,0,1a2.69,2.69,0,0,1-.53,1.52,2.37,2.37,0,0,1-1.55.85A5.91,5.91,0,0,1,25.14,27a2.58,2.58,0,0,1-1.68-1.6,2.37,2.37,0,0,1,1.11-2.91,4.91,4.91,0,0,1,2-.62,6.36,6.36,0,0,1,2.26.19H29l-.22-3.69h-5v-1.2c.82,0,1.65,0,2.47,0l2.47-.05c-.06-1.33-.12-2.61-.18-3.9H24.05V12a47.81,47.81,0,0,0,9.17-.53l.16,1.28L31.82,13c-.52.06-1,.1-1.57.15,0,.16-.06.24-.38.33l.14,3.6a22.65,22.65,0,0,0,4-.65l.16,1.3a23.56,23.56,0,0,1-4.1.59c0,.3,0,.6.05.89,0,.76.09,1.52.14,2.28,0,.28,0,.55,0,.83a.24.24,0,0,0,.16.23,17,17,0,0,1,3.69,2.29Zm-5.27-.82H29c0-.21,0-.42,0-.63s0-.17-.15-.21a5,5,0,0,0-2.3-.28,3.1,3.1,0,0,0-1.32.42,1.3,1.3,0,0,0-.67,1.37A1.46,1.46,0,0,0,25.66,26a4.16,4.16,0,0,0,2,.19,1.29,1.29,0,0,0,1.23-1C29,24.85,29,24.5,29.08,24.15Z"/><path class="cls-2" d="M19.19,11.06l1.89.35a.44.44,0,0,1-.39.32c-.11,0-.15,0-.17.14-.27,1.41-.59,2.81-.81,4.23-.19,1.25-.3,2.52-.38,3.78,0,.8,0,1.61,0,2.42,0,.51.08,1,.12,1.58l1.58-4c.31.28.57.52.83.78a.24.24,0,0,1,0,.22c-.32.74-.67,1.48-1,2.23a10.56,10.56,0,0,0-.8,2.5,2.49,2.49,0,0,0,0,.61c0,.19.08.38.12.6l-.83.18c-.49.11-.49.1-.64-.38a15.31,15.31,0,0,1-.62-3.36C18.05,22.18,18,21.1,18,20s.11-2,.21-3a51.74,51.74,0,0,1,.95-5.79Z"/><path d="M97.44,11.07l1.89.35a.43.43,0,0,1-.4.31c-.11,0-.14.07-.17.17a46.42,46.42,0,0,0-.87,4.56,27,27,0,0,0-.33,4.21c0,1.06.09,2.11.14,3.16h.06l1.56-3.94.88.83c-.4.93-.8,1.83-1.18,2.74a9.33,9.33,0,0,0-.67,2.2,2.59,2.59,0,0,0,.13,1.16l-1.34.29c-.14-.52-.3-1-.41-1.52a23.83,23.83,0,0,1-.5-4.55,27.45,27.45,0,0,1,.33-5c.25-1.62.55-3.24.83-4.86A.88.88,0,0,1,97.44,11.07Z"/><path d="M59.13,10.79l1.9.36a.51.51,0,0,1-.4.32.29.29,0,0,0-.16.15c-.26,1.31-.55,2.63-.78,4-.16.92-.27,1.86-.34,2.79s-.07,2-.06,3a21.1,21.1,0,0,0,.17,2.24L61,19.62c.31.29.59.54.85.8,0,0,0,.13,0,.19-.46,1.09-.94,2.17-1.39,3.27A4.69,4.69,0,0,0,60,25.83a6.36,6.36,0,0,0,.12.72L59,26.8c-.13,0-.18,0-.2-.14-.19-.79-.43-1.57-.57-2.37a22,22,0,0,1-.31-4.51c0-1.13.11-2.26.26-3.37.22-1.65.52-3.28.79-4.92C59,11.26,59.08,11,59.13,10.79Z"/><path d="M134,23.83l1.56-3.94c.26.25.47.47.71.66s.17.25.08.44a27.17,27.17,0,0,0-1.53,3.7,3.12,3.12,0,0,0-.09,2.13l-1.21.26c-.14,0-.16-.08-.18-.16-.19-.75-.41-1.5-.55-2.27a22.94,22.94,0,0,1-.31-5.1c.08-1.3.2-2.59.38-3.88.2-1.46.5-2.9.75-4.35,0-.08,0-.16.06-.25l1.9.35a.43.43,0,0,1-.38.31.2.2,0,0,0-.19.18c-.23,1.11-.49,2.21-.68,3.33s-.31,2.17-.42,3.26a20.21,20.21,0,0,0-.06,3.48c0,.56.08,1.11.12,1.67A1.72,1.72,0,0,0,134,23.83Z"/><path d="M148.5,16.42l.16,1.3c-.39.08-.77.18-1.15.24a27.82,27.82,0,0,1-4.37.38c-1.16,0-2.31.05-3.46.07-.48,0-1,0-1.48,0V18.2l0-1,1,0c1.09,0,2.17,0,3.25,0a28.5,28.5,0,0,0,3.81-.3c.7-.11,1.39-.27,2.08-.4Z"/><path d="M147.71,11.49a.6.6,0,0,1,0,.12c.05.37.09.75.14,1.16a58.25,58.25,0,0,1-9.33.5V12A47.05,47.05,0,0,0,147.71,11.49Z"/><path d="M102.28,13.27V12a47,47,0,0,0,9.18-.52l.16,1.28A57.06,57.06,0,0,1,102.28,13.27Z"/><path d="M178.61,21.21l-.17-.59c.1-.06.17-.08.2.06s.15.53.24.83l-1.12.2,0-.16.85-.16a3.92,3.92,0,0,0-2-.41A4.22,4.22,0,0,0,173,24.49a2.73,2.73,0,0,0,1,2.55A5.33,5.33,0,0,0,177,28.27a7,7,0,0,0,2.87-.29l.07.18c-.38.09-.75.19-1.12.24a6.38,6.38,0,0,1-3.8-.51,4.79,4.79,0,0,1-1.41-1A2.82,2.82,0,0,1,173,24a4.32,4.32,0,0,1,3-3.07,3.63,3.63,0,0,1,2.41.18Z"/><path d="M59.78,27l1.06-.29.31,1.1-.16.06-.24-.81-.83,1.54-.53,1a.2.2,0,0,1-.15.08s-.08-.07-.09-.11c-.15-.81-.3-1.63-.44-2.44,0,0,0,0,0-.05s.16,0,.19.1c.11.67.23,1.33.35,2,0,.06,0,.12,0,.21L60.6,27l-.66.18s-.12,0-.18-.05Z"/><path d="M178.38,16.47l.48-.64.14.1-.66.9-.93-.68.1-.15.67.49c0-.24-.06-.43-.09-.62-.12-.73-.25-1.45-.37-2.17a.41.41,0,0,1,.05-.18c0,.05.11.09.12.15.15.87.3,1.74.44,2.61C178.34,16.34,178.36,16.39,178.38,16.47Z"/><path d="M104.77,10.71l-.6-.5.1-.14.87.71c-.23.28-.45.56-.69.83,0,0-.11,0-.16,0v-.06l.52-.65-1.39.16-1.43.18a.7.7,0,0,1-.17-.06s.1-.11.16-.12l2.73-.33Z"/><path d="M139.9,16.16l-.59-.56.12-.13.81.77-.73.77s-.12,0-.18,0V17l.57-.61-3,.15,0-.17Z"/></svg>