<svg id="illustration" xmlns="http://www.w3.org/2000/svg" viewBox="0 0 198.43 104.75"><defs><style>.cls-1{fill:#e83b25;}.cls-2{fill:#fff;}.cls-3{fill:#620020;}.cls-4{fill:#b02a17;}.cls-5{fill:#f8aa92;}.cls-6{fill:#0f1029;}.cls-7{fill:#10763c;}.cls-8{fill:#9e6d5e;}.cls-9{fill:#a1a3a6;}.cls-10{fill:#ae2a17;}.cls-11{fill:#010101;}</style></defs><polygon class="cls-1" points="110.59 68.67 111.06 64.31 112.8 59.05 115.83 53.49 118.61 51.3 121.99 51.02 119.5 50.51 117.69 49.79 113.15 45.31 111.41 42.03 110.29 40.16 110.69 38.55 103.7 38.9 97.86 38.29 93.66 37.51 89.56 36.47 88.56 38.01 87.98 40.16 86.87 41.25 84.33 42.94 83.39 44.18 82.02 47.28 81.52 49.3 80.71 51.45 79.86 53.48 78.2 54.82 76.41 55.46 73.97 55.67 74.86 58.38 76.77 62.44 79.19 64.94 82.16 67.84 86.28 70.58 92.76 65.88 96.86 61.98 100.31 58.26 102.51 61.98 106.34 65.88 109.51 68.81 110.59 68.67"/><path class="cls-2" d="M89.56,36.47,88,40.16l4,.9,3,1,5,.91a71.92,71.92,0,0,0,9.55-.81c3-.65,1.75-.1,1.75-.1l-.72-3.48-8.8.35-8.23-1.39Z"/><path class="cls-1" d="M89.59,19.06A57.27,57.27,0,0,0,100.94,22c4.82.48,14.67-1.7,14.67-1.7l-3.28,15.81-1.64,2.46-3.48.19-7.7-.24-4.39-.68L91.51,37,88,36.3l.88-3.84.54-3.56.23-3.7-.08-3.39Z"/><path class="cls-3" d="M149.16,35.23S132,34.87,128.41,55.65C151.16,57.94,149.34,35.69,149.16,35.23Z"/><polygon class="cls-4" points="120.53 53.49 117.55 52.57 118.61 51.3 121.16 51.02 120.53 53.49"/><path class="cls-5" d="M117.55,52.57s-6,4.93-7,16.1l1.51,1.49,5-.22-2.17,4,2.32.61,3,.66,3.33-.64L124.76,73l.66-5.29,1.37-1.49V63.89l-.94-1.37-.43-3.47-2.15-3.24-2.73-2.32-1.93-.68Z"/><polygon class="cls-5" points="74.86 58.38 72.87 59.99 71.47 61.98 71.22 64.94 71.22 66.5 69.32 67.12 65.23 68.3 61.73 69.94 60.01 70.93 59.15 71.16 58.76 74.22 60.01 77.53 60.96 80.45 62.77 81.74 66.81 79.14 70.36 76.86 73.51 75.52 76.41 72.95 77.63 73.78 80.33 72.95 83.55 71.96 85.59 70.16 82.85 68.3 79.19 64.94 76.77 61.27 74.86 58.38"/><path class="cls-2" d="M58.2,72.08l-11,7.61-7.93,2.93,1,3.41,1.14,1.7,9-1.7,11.2-4.12-.51-2.22-2.07-3.55.1-5Z"/><polygon class="cls-2" points="114.9 73.94 119.32 74.81 123.58 74.57 123.58 76.78 120.04 83.31 116.22 89.77 116.22 91.18 113.37 92.08 110.17 91.35 111.49 85.16 114.02 77.53 114.9 73.94"/><path class="cls-6" d="M39.25,82.62c-.65.72-3.27.06-4.81-.39l-9.67,19.09L27,102l2.93-.64,3.81-2,2.16-2.74,1.85-3.15,3-6.55-.5-.89Z"/><path class="cls-6" d="M109.33,91l2.36.64h3.38l1.15-.42V89.77l3.24.06,2.87,1,4.46,1.67-.63,3.33a14.57,14.57,0,0,0-1.68,1.93c-.33.61-1.21-.71-1.21-.71l-2.11.38-.61-1-1.09.75-1.46.22-1.76.09-1.17.35-2-.84-2-.79.31,1.19-2.1-.66-.51-1.74-.42-2.52Z"/><polyline class="cls-7" points="106.54 97.79 106.08 97.08 104.65 94.85 110.84 98.76 111.41 97.47 115.07 97.89 121.99 97.55 124.48 97.8 126.99 96.58 130.84 94.22 131.58 92.9 129.94 95.83 128.54 99.36 106.41 100.32"/><path class="cls-7" d="M107.16,99.24c.3-1-.89-2.13-1.4-2.9a10.94,10.94,0,0,0-2.29-2.93c-.38-.27-.87.18-.76.58a11.65,11.65,0,0,0,2.14,3.35c.52.72,1.1,2,2.07,2.08a.25.25,0,0,0,.24-.18Z"/><path class="cls-7" d="M129.15,98.68a15.87,15.87,0,0,0,5.16-6.22c.17-.39-.33-.92-.66-.51-1.67,2-3.17,4.22-4.86,6.26-.19.24.07.68.36.47Z"/><path class="cls-7" d="M106.44,100.29c-.83-.86-1.63-1.75-2.42-2.65a13.39,13.39,0,0,0-2.32-2.49.58.58,0,0,0-.85.65,7.26,7.26,0,0,0,2.2,2.81,16,16,0,0,0,3,2.13.29.29,0,0,0,.35-.45Z"/><path class="cls-7" d="M105.53,99.85a21.62,21.62,0,0,0-3.31-4.52.39.39,0,0,0-.61.47,21.67,21.67,0,0,0,3.5,4.37.27.27,0,0,0,.42-.32Z"/><path class="cls-2" d="M93.07,37a41.54,41.54,0,0,0,1.52-8.43c.21-2.43.66-5.08-.5-7.3a.21.21,0,0,0-.35,0c-.9,2.12-.54,4.43-.67,6.7-.17,3-.62,5.93-1,8.9-.07.57.83.65,1,.13Z"/><path class="cls-2" d="M101.83,37.94a43.06,43.06,0,0,0,.87-7.43c.17-2.38.69-5,0-7.33a.28.28,0,0,0-.5-.06c-1,1.92-.92,4.16-1.12,6.28a47.92,47.92,0,0,0-.41,8.37c0,.65,1,.87,1.19.17Z"/><path class="cls-2" d="M108.49,38.29c2.16-4.59,2.32-11.16,2.51-16.15,0-.91-1.34-.9-1.41,0-.21,3-.43,6.05-.87,9.06a43.56,43.56,0,0,0-.94,6.89c0,.36.55.56.71.2Z"/><path class="cls-1" d="M53.44,76c-.36,1.11.28,2.48.71,3.5a16.28,16.28,0,0,0,2.3,3.76c.31.38.82-.16.53-.53a15.56,15.56,0,0,1-2.26-4,10,10,0,0,0-1.09-2.82c-.06-.07-.16,0-.19,0Z"/><path class="cls-1" d="M50.56,77.78a8.47,8.47,0,0,0,1.43,3c.7,1.22,1.41,2.43,2.13,3.64a.35.35,0,0,0,.6-.35c-.67-1.23-1.35-2.47-2-3.69a8.59,8.59,0,0,0-1.85-2.75.18.18,0,0,0-.27.15Z"/><path class="cls-1" d="M113.68,77.57c.89,1,2.74,1.2,4,1.36a13.32,13.32,0,0,0,4.41-.18c.38-.09.27-.62-.08-.65-1.65-.13-3.26-.21-4.89-.46-1.13-.17-2.27-.69-3.39-.42a.21.21,0,0,0-.09.35Z"/><path class="cls-1" d="M112.77,81.12a17.79,17.79,0,0,0,7.66.92c.33,0,.34-.53,0-.51a21.91,21.91,0,0,1-7.5-1,.3.3,0,0,0-.16.57Z"/><path class="cls-2" d="M143.64,37.66h-.16a.11.11,0,0,0,0,.22h.16a.11.11,0,1,0,0-.22Z"/><path class="cls-2" d="M143.16,37.21A17.21,17.21,0,0,0,138,40.38a13.13,13.13,0,0,0-3.69,4.72c-.12.34.34.54.58.33,1.37-1.2,2.4-2.75,3.82-4a31,31,0,0,1,4.9-3.27c.53-.29.17-1.23-.42-1Z"/><path class="cls-2" d="M86.65,43c-2.54.94-3.8,5.55-2.8,7.88a.39.39,0,0,0,.7-.09,22.22,22.22,0,0,1,.57-4c.45-1.28,1.4-2.25,1.85-3.5a.26.26,0,0,0-.32-.32Z"/><path class="cls-2" d="M74.46,60.64A6.13,6.13,0,0,0,73.4,62.1a3.14,3.14,0,0,0-.52,1.63c0,.24.35.46.54.23a6.41,6.41,0,0,0,.66-1.46c.24-.53.52-1,.8-1.54a.27.27,0,0,0-.42-.32Z"/><path class="cls-2" d="M117.56,55.78c.91.7,2,1.11,2.86,1.9s1.18,1.79,2,2.39a.43.43,0,0,0,.63-.25c.32-1.31-.87-2.64-1.79-3.42a4.19,4.19,0,0,0-3.67-1.19.32.32,0,0,0-.07.57Z"/><path class="cls-2" d="M116.65,62.2a5.4,5.4,0,0,0,1.68,1.88,3.67,3.67,0,0,0,2.27,1,.55.55,0,0,0,.38-.93,8.39,8.39,0,0,0-1.88-1.21c-.66-.39-1.22-.91-1.88-1.31-.39-.23-.74.22-.57.58Z"/><path class="cls-2" d="M122.57,70c-.28.66-.55,1.55,0,2.15a.54.54,0,0,0,.62.08c.61-.32.73-1.25.72-1.88s-1-1-1.3-.35Z"/><path class="cls-2" d="M61.07,72.53a13.45,13.45,0,0,0,3.32-1.14c.92-.39,2-.63,2.59-1.5.23-.33-.08-.69-.41-.73-1-.11-2,.66-2.89,1.11A12.34,12.34,0,0,0,60.85,72c-.19.17-.06.58.22.55Z"/><path class="cls-2" d="M34.22,84.9A6.53,6.53,0,0,0,33,87.31a5.31,5.31,0,0,0-.78,2.6c0,.2.28.21.4.11a5.12,5.12,0,0,0,1.13-2.31A7.06,7.06,0,0,0,34.48,85a.15.15,0,0,0-.26-.1Z"/><path class="cls-2" d="M33.77,85.76a3.87,3.87,0,0,0,1.51.18c1-.08,1-1.6,0-1.51a4.05,4.05,0,0,0-1.62.48.47.47,0,0,0,.11.85Z"/><path class="cls-2" d="M118.34,92.7a16.75,16.75,0,0,1,3.23.45c.82.22,1.71,1,2.57.71a.53.53,0,0,0,.37-.5c0-1.2-1.65-1.75-2.63-2a4.5,4.5,0,0,0-3.75.55.42.42,0,0,0,.21.78Z"/><path class="cls-2" d="M110,46.79c0,1,1,1.92,1.66,2.56s1.87,2,2.68,1.26-.72-1.76-1.23-2.17c-.78-.63-1.7-1.79-2.72-1.95a.31.31,0,0,0-.39.3Z"/><path class="cls-8" d="M111.78,68.57a.31.31,0,0,0,.48.37c.32-.31-.26-.76-.48-.37Z"/><path class="cls-8" d="M111.75,69.44c.75-2.58.79-5.27,1.68-7.85a44.56,44.56,0,0,1,4.12-8,.35.35,0,0,0-.54-.42c-3.67,3.73-6.88,10.94-5.79,16.24a.28.28,0,0,0,.53,0Z"/><path class="cls-8" d="M74.59,58.8c1.45,4.71,5.24,11.48,11,11.53a.4.4,0,0,0,.11-.78,12.24,12.24,0,0,1-7-4.51,50.14,50.14,0,0,1-3.58-6.45.27.27,0,0,0-.5.21Z"/><path class="cls-9" d="M89.81,37.67c6.38,2.67,13.48,2.78,20.21,1.62.33-.06.18-.54-.14-.5-6.88.94-13.2-.18-19.82-2-.62-.18-.81.7-.25.93Z"/><path class="cls-10" d="M87.94,41a27.1,27.1,0,0,0,21.88,1.61.16.16,0,0,0-.08-.3,31.64,31.64,0,0,1-21.42-2c-.44-.21-.82.42-.38.65Z"/><path class="cls-10" d="M79.49,54.24a9.72,9.72,0,0,1-2.18,2c-.64.43-1.6.6-2.06,1.21a.23.23,0,0,0,.14.33c.78.25,1.94-.56,2.56-1a8,8,0,0,0,2.13-2.14c.24-.34-.32-.79-.59-.45Z"/><path class="cls-10" d="M76.22,57.17a12.25,12.25,0,0,0,2-1.26c.47-.36,0-1.16-.47-.8a13,13,0,0,0-1.88,1.67.25.25,0,0,0,.3.39Z"/><path class="cls-10" d="M77.47,55.53A3.7,3.7,0,0,1,75,56c-.56-.06-.69.88-.13,1a2.91,2.91,0,0,0,1.67-.21,2.78,2.78,0,0,0,1.18-1c.1-.13-.09-.3-.22-.22Z"/><path class="cls-10" d="M83.58,68.31c1.77,1.88,6.08,1.39,7-1.18.09-.23-.19-.38-.38-.29a11.46,11.46,0,0,1-3,1.37,8.82,8.82,0,0,1-3.5-.25.21.21,0,0,0-.2.35Z"/><path class="cls-10" d="M86.31,70.08c.55.17,1.67-.2,1.38-1a.33.33,0,0,0-.39-.23c-.34.06-.51.37-.88.38a.41.41,0,0,0-.11.8Z"/><path class="cls-10" d="M100.85,58.41A6.39,6.39,0,0,0,103,56.76c.48-.52,1.31-1.32,1.12-2.09a.26.26,0,0,0-.3-.17c-.66.17-1.09,1.09-1.51,1.57-.55.64-1.23,1.14-1.81,1.74-.23.24,0,.75.35.6Z"/><path class="cls-10" d="M102,58.17a7.23,7.23,0,0,0,3.8-7.71c0-.22-.35-.15-.37,0a9.64,9.64,0,0,1-3.86,7.1c-.34.28.09.71.43.56Z"/><path class="cls-10" d="M105.69,52.32a2.52,2.52,0,0,0,.27-1.84,5,5,0,0,0-.37-2.17.53.53,0,0,0-1,.12,5.07,5.07,0,0,0,.07,2.19c.08.57.1,1.32.58,1.7a.3.3,0,0,0,.41,0Z"/><path class="cls-10" d="M101.73,58.1a0,0,0,0,0,0,0,0,0,0,1,0,0,0Z"/><path class="cls-10" d="M101.73,57.89c-.18,1.74,1.86,3.71,2.87,5,1.35,1.73,2.89,4.11,4.84,5.19a.4.4,0,0,0,.54-.54c-1-2-3.1-3.65-4.49-5.44-1-1.31-2-3.74-3.69-4.27,0,0-.06,0-.07,0Z"/><path class="cls-10" d="M110,69.09a5.41,5.41,0,0,0,.19-2,19,19,0,0,0,.06-2.5c0-.36-.53-.57-.73-.2a5.37,5.37,0,0,0-.57,2.37,3.87,3.87,0,0,0,.37,2.38c.16.2.55.29.68,0Z"/><path class="cls-10" d="M109.66,66.2a12.27,12.27,0,0,0,.47-1.9,3.22,3.22,0,0,0,0-1.6.24.24,0,0,0-.43-.06,3.44,3.44,0,0,0-.41,1.55,11.65,11.65,0,0,0-.07,2,.2.2,0,0,0,.4,0Z"/><path class="cls-10" d="M109.78,64.61a10.62,10.62,0,0,0,1.43-4.11.46.46,0,0,0-.85-.23,10.55,10.55,0,0,0-.86,4.27.15.15,0,0,0,.28.07Z"/><path class="cls-10" d="M110.21,64c.32-.76.39-1.61.67-2.39s.65-1.51.91-2.29c.08-.23-.23-.38-.39-.23A6,6,0,0,0,109.68,64c.06.3.44.22.53,0Z"/><path class="cls-10" d="M94.16,64.07c2.13-1.35,4.79-3.89,5.52-6.39,0-.1-.12-.2-.19-.11-.89,1.07-1.5,2.37-2.4,3.46a27,27,0,0,1-3,3,.05.05,0,0,0,.06.08Z"/><path class="cls-10" d="M97.52,61.26A7.44,7.44,0,0,0,99,59.32c.35-.6.91-1.21.79-1.94a.38.38,0,0,0-.54-.22c-.65.3-.91,1.31-1.19,1.93a7.13,7.13,0,0,0-.69,2.09c0,.11.13.14.2.08Z"/><path class="cls-10" d="M98.91,57.18a4.82,4.82,0,0,0-.9,1.11,3.92,3.92,0,0,0-.61,1.33A.34.34,0,0,0,98,60a4.8,4.8,0,0,0,1.22-2.61.16.16,0,0,0-.27-.16Z"/><path class="cls-10" d="M97.94,58.43a10.28,10.28,0,0,0-1,1.75,6.27,6.27,0,0,0-.67,1.71c0,.28.29.57.53.31a6.48,6.48,0,0,0,1-1.7,9.28,9.28,0,0,0,.72-1.83.31.31,0,0,0-.57-.24Z"/><path class="cls-10" d="M94.88,52.78c-1.54.4-2.62,2-3.14,3.45-.14.36.4.54.6.25a14,14,0,0,1,1.38-1.7c.47-.5,1-.92,1.47-1.46.18-.24,0-.63-.31-.54Z"/><path class="cls-10" d="M83.45,63.17a4.23,4.23,0,0,0,4.39-1.4.45.45,0,0,0-.63-.63,8.08,8.08,0,0,1-3.76,1.56c-.25,0-.21.4,0,.47Z"/><path class="cls-10" d="M109.34,54.34a2.06,2.06,0,0,0,1.26.72.36.36,0,0,0,.31-.54,2,2,0,0,0-1.08-.81c-.38-.19-.85.31-.49.63Z"/><path class="cls-10" d="M88.16,33.91a2.91,2.91,0,0,0,3.35,2.81c.6-.09.34-1-.25-.91a2.35,2.35,0,0,1-2.6-2c0-.29-.5-.21-.5.07Z"/><path class="cls-10" d="M92,36c-.27-.33-.75-.52-1.06-.83a2.3,2.3,0,0,1-.68-1.28c-.07-.46.17-1-.24-1.33a.7.7,0,0,0-1.09.36,3,3,0,0,0,.73,2.72c.49.55,1.64,1.25,2.34.65.09-.07.06-.2,0-.29Z"/><path class="cls-10" d="M105.58,28.44a2.3,2.3,0,0,1,0,2.74c-.09.14.08.27.21.21a2.13,2.13,0,0,0,1.1-1.57,2.33,2.33,0,0,0-.52-2c-.34-.43-1.11.15-.78.6Z"/><path class="cls-10" d="M97.11,29.32c-.57,1.48-.77,3.66.27,5a.22.22,0,0,0,.4-.17,14.33,14.33,0,0,1-.5-2.34,6.83,6.83,0,0,1,.33-2.37c.11-.32-.38-.44-.5-.13Z"/><path class="cls-11" d="M89.08,36.31c6.59,3.29,15.28,3.31,22.41,2.41.47-.06.48-.8,0-.75-7.84.87-14.68-.66-22.34-1.82-.09,0-.17.11-.07.16Z"/><path class="cls-11" d="M89.43,36.39c-.48,1-.89,2.07-1.32,3.11-.1.24.28.34.37.11.42-1,.85-2.06,1.22-3.1,0-.16-.2-.27-.27-.12Z"/><path class="cls-11" d="M88.51,39.59a21.58,21.58,0,0,0,12.43,3.68c.28,0,.36-.44.07-.5-2.13-.4-4.25-.64-6.34-1.23s-4-1.49-6.09-2.12a.09.09,0,0,0-.07.17Z"/><path class="cls-11" d="M104.65,43A10,10,0,0,0,112.22,41c.23-.17,0-.57-.24-.4a14.32,14.32,0,0,1-7.32,2.34c-.06,0-.08.11,0,.12Z"/><path class="cls-11" d="M110.65,39.28a22.07,22.07,0,0,0,.52,2.81.25.25,0,0,0,.48-.13,20.8,20.8,0,0,0-.73-2.76c0-.18-.3-.1-.27.08Z"/><path class="cls-11" d="M110.82,39.22c0,5.15,4,9.79,8.57,11.65.4.16.68-.51.29-.68-4.83-2.13-7.31-6-8.64-11a.11.11,0,0,0-.22,0Z"/><path class="cls-11" d="M117.65,49.92a9.28,9.28,0,0,1,4.2,1.34l.14-.51a19.2,19.2,0,0,0-4.36.54c-.14.05-.18.3,0,.32A19.41,19.41,0,0,0,122,51.3a.28.28,0,0,0,.14-.51,6.06,6.06,0,0,0-4.48-1.13c-.12,0-.13.24,0,.26Z"/><path class="cls-11" d="M118.55,51.2a21.67,21.67,0,0,0-8.19,17.47.23.23,0,0,0,.46,0,28.41,28.41,0,0,1,7.87-17.29c.08-.09,0-.26-.14-.18Z"/><path class="cls-11" d="M121,51.27a11.64,11.64,0,0,0-.57,2.84.13.13,0,0,0,.23.06,11.14,11.14,0,0,0,.69-2.8.18.18,0,0,0-.35-.1Z"/><path class="cls-11" d="M120.76,51.3a5.92,5.92,0,0,0-.38,2.23.17.17,0,0,0,.3,0,6.07,6.07,0,0,0,.24-2.25.08.08,0,0,0-.16,0Z"/><path class="cls-11" d="M109.58,68.74c-1.46-1.88-3.34-3.41-4.84-5.27a38.6,38.6,0,0,1-4.27-6.53c-.25-.48-1,0-.73.43,2.18,4.15,5.43,9.3,9.71,11.54a.11.11,0,0,0,.13-.17Z"/><path class="cls-11" d="M109.83,69.2a9.35,9.35,0,0,0,7.3,1,.22.22,0,0,0-.06-.43c-1.15,0-2.26.16-3.42.07A19.36,19.36,0,0,1,109.9,69a.1.1,0,0,0-.07.18Z"/><path class="cls-11" d="M117.35,52.94a12,12,0,0,1,6.3,4.42c1.38,2,1.6,4.07,1.92,6.41,0,.2.33.17.38,0,1.42-5-3.66-10.91-8.57-11.1-.16,0-.17.22,0,.27Z"/><path class="cls-11" d="M125.16,62c.64,1.13,1.46,1.85,1.28,3.3s-1.13,2-2.09,2.84c-.12.1,0,.35.13.33,2.85-.35,3.74-5.79.81-6.63a.11.11,0,0,0-.13.16Z"/><path class="cls-11" d="M118,67.44c-2.21,2.38-3,5.19-3.85,8.28-1.46,5.16-3,10.34-4.19,15.58a.2.2,0,0,0,.38.1c2.5-7.52,3.3-17.2,8-23.74.12-.17-.15-.37-.29-.22Z"/><path class="cls-11" d="M125.29,67.66c-1.1,9.08-5.23,16-10.32,23.39-.22.32.3.61.52.3,4.81-6.91,10.38-14.87,10.07-23.69a.14.14,0,0,0-.27,0Z"/><path class="cls-11" d="M114.84,74a14.3,14.3,0,0,0,8.83.89c.46-.09.26-.77-.19-.7a27,27,0,0,1-8.55-.39c-.11,0-.2.14-.09.2Z"/><path class="cls-11" d="M115,90.74a12,12,0,0,1,6.47-.11,7.17,7.17,0,0,1,3.25,1.73c1.06.49,1.19,1.34.38,2.55q.54,2.67-1.75,2c-1.9.46-4.37,0-6.33.08-2.58,0-5.17,0-7.74.25a.3.3,0,0,0,0,.6,102.6,102.6,0,0,0,15.48-.35c1.65-.18,3-.61,2.8-2.57-.24-2.23-3.1-4-4.92-4.72a9.57,9.57,0,0,0-7.79.19c-.19.09,0,.39.15.34Z"/><path class="cls-11" d="M109.8,97.76a15.82,15.82,0,0,1-.63-3.74,31.66,31.66,0,0,1,.27-3.37c0-.26-.4-.39-.51-.14-1,2.3-.47,5.19.6,7.36a.15.15,0,0,0,.27-.11Z"/><path class="cls-11" d="M109.2,91.19a7.18,7.18,0,0,0,7.21.31.38.38,0,0,0-.29-.69,9.35,9.35,0,0,1-6.71-.11c-.31-.11-.45.33-.21.49Z"/><path class="cls-11" d="M87.72,40.92c-6.61.62-6.45,10.27-8.52,14.76a.2.2,0,0,0,.35.21c3.21-4.79,1.61-12.52,8.2-14.7.14,0,.13-.29,0-.27Z"/><path class="cls-11" d="M104.21,48.52a14.37,14.37,0,0,0,.52,4.72.24.24,0,0,0,.47-.07,14.17,14.17,0,0,0-.73-4.68.13.13,0,0,0-.26,0Z"/><path class="cls-11" d="M104,54.05a3.83,3.83,0,0,0-1.62.94c-.08.11.06.21.16.2a4,4,0,0,0,1.58-1c.1-.07,0-.19-.12-.15Z"/><path class="cls-11" d="M102.37,54.76C97.72,61,92.81,66.27,86.17,70.38c-.25.15,0,.54.22.39,6.39-4,12.38-9.31,16.19-15.89.08-.14-.12-.24-.21-.12Z"/><path class="cls-11" d="M86.93,70.71c-5.83-3.8-9.93-8.07-12-14.83a.36.36,0,0,0-.7.19c1.48,6.35,6.31,12.73,12.64,14.84.12,0,.19-.14.09-.2Z"/><path class="cls-11" d="M73.93,55.83c2,.37,5-.37,6.07-2.27a.17.17,0,0,0-.23-.23,24.2,24.2,0,0,1-2.7,1.59,10.85,10.85,0,0,1-3.1.6c-.16,0-.23.27,0,.31Z"/><path class="cls-11" d="M74.76,58.21c-2.5,1.51-4.68,5.4-3.78,8.36.07.21.44.25.48,0a17.93,17.93,0,0,1,.78-4.23A11.84,11.84,0,0,1,75,58.51a.19.19,0,0,0-.23-.3Z"/><path class="cls-11" d="M69.41,69.38c.53-.45,1-.93,1.52-1.43a4.69,4.69,0,0,0,1.13-1.38c.08-.22-.2-.39-.39-.29a5,5,0,0,0-1.32,1.41,19,19,0,0,0-1.13,1.54c-.08.12.09.23.19.15Z"/><path class="cls-11" d="M77.64,64.45a5.35,5.35,0,0,0-2.25,1.3.19.19,0,0,0,.18.31,5.22,5.22,0,0,0,2.26-1.28c.16-.12,0-.39-.19-.33Z"/><path class="cls-11" d="M77.46,64.89c-.15.44-.3.87-.44,1.31a2.89,2.89,0,0,0-.28,1.21.26.26,0,0,0,.47.13,2.92,2.92,0,0,0,.34-1.2c.09-.45.17-.9.26-1.36a.18.18,0,0,0-.35-.09Z"/><path class="cls-11" d="M69.37,77.38a12,12,0,0,0,9-6.5c.08-.19-.15-.44-.31-.25a24,24,0,0,1-3.61,3.85,22,22,0,0,1-5.11,2.65c-.12.05-.12.26,0,.25Z"/><path class="cls-11" d="M76.77,74.16a21.14,21.14,0,0,0,9.78-4c.31-.23,0-.73-.31-.53a72.1,72.1,0,0,1-9.51,4.13c-.18.07-.17.38,0,.35Z"/><path class="cls-11" d="M70.36,66.68c-13.28,1.73-21.17,15.1-34.6,16.71-.46,0-.48.78,0,.73C49.17,82.79,57.4,69.94,70.44,67.24c.3-.07.24-.6-.08-.56Z"/><path class="cls-11" d="M41.79,89.19l.32-.29c.1-.09,0-.24-.14-.15l-.3.32c-.07.08,0,.2.12.12Z"/><path class="cls-11" d="M41.4,88c10.49-.29,22-5.24,30.26-11.57.37-.28,0-.91-.38-.64a79.59,79.59,0,0,1-15,7.94c-4.87,1.82-9.88,2.63-14.92,3.8a.24.24,0,0,0,.06.47Z"/><path class="cls-11" d="M69.39,76.36c2.4-.6,5.44-1.36,7.15-3.28a.18.18,0,0,0-.17-.3,24.23,24.23,0,0,0-3.12,1.51,26.36,26.36,0,0,1-4,1.62.23.23,0,0,0,.12.45Z"/><path class="cls-11" d="M39.69,83.19a4,4,0,0,0,1.84,4.75c.36.18.83-.32.46-.61a4.38,4.38,0,0,1-1.85-4.08c0-.27-.36-.28-.45-.06Z"/><path class="cls-11" d="M59.06,71.1c-1.64,3.46,1,8.51,3.41,10.94.38.38,1-.2.59-.59A13.32,13.32,0,0,1,60,76.14c-.49-1.66-.3-3.37-.7-5a.11.11,0,0,0-.2,0Z"/><path class="cls-11" d="M34.35,82.17c-3.82,5.89-6.84,12.67-9.84,19-.17.34.33.65.52.3,3.34-6.2,7-12.62,9.52-19.21,0-.12-.14-.19-.2-.09Z"/><path class="cls-11" d="M25.51,102.22c8.41,1.17,13-8.59,15.22-15.06.13-.39-.47-.53-.62-.17-3,7.1-6,14-14.55,14.92-.16,0-.23.28,0,.31Z"/><path class="cls-11" d="M35.83,84c-.71.06-1.44,0-2.17.08a.32.32,0,1,0,.09.64c.7-.17,1.4-.38,2.11-.52.12,0,.09-.21,0-.2Z"/><path class="cls-11" d="M32.69,96.31c.78.69,2.43,1.29,3.32.45a.21.21,0,0,0-.15-.35c-.48,0-.92.25-1.42.24a3.06,3.06,0,0,1-1.63-.5c-.09-.06-.2.08-.12.16Z"/><path class="cls-11" d="M33.59,94.48c.83.67,2.52.91,3.12-.22a.2.2,0,0,0-.27-.27,3.63,3.63,0,0,1-1.24.55,2,2,0,0,1-1.42-.31c-.15-.1-.33.14-.19.25Z"/><path class="cls-11" d="M34.6,93a8.26,8.26,0,0,0,2.53,0,.2.2,0,0,0,0-.38,8.26,8.26,0,0,0-2.53,0,.17.17,0,0,0,0,.33Z"/><path class="cls-11" d="M34.88,90.81a12.06,12.06,0,0,0,3.48.37c.15,0,.12-.24,0-.28a11.74,11.74,0,0,0-3.45-.29c-.11,0-.14.18,0,.2Z"/><path class="cls-11" d="M33.87,82.53c-.55-.2-1.08-.42-1.64-.57a.38.38,0,0,0-.46.26c-.14.42-.25.85-.36,1.28a.36.36,0,0,0,.34.45,9.4,9.4,0,0,0,1.06,0c.33,0,.44-.54.08-.62a10.75,10.75,0,0,0-1.14-.14l.34.45c.14-.42.28-.84.4-1.27l-.46.26c.6.11,1.19.14,1.8.2.21,0,.23-.29,0-.35Z"/><path class="cls-11" d="M31.23,87.17a1.13,1.13,0,0,0-1.86-.4,1.28,1.28,0,0,0,.61,2c.38.14.54-.46.17-.59a.64.64,0,0,1-.22-1,.79.79,0,0,1,1.15.15c.06.1.19,0,.15-.09Z"/><path class="cls-11" d="M28.72,92.89a1.63,1.63,0,0,0-2.3,1,.32.32,0,0,0,.22.38.8.8,0,0,1,.57.5c.06.14.24.08.29,0a.8.8,0,0,0-.7-1.06L27,94a1.45,1.45,0,0,1,1.62-.92.13.13,0,0,0,.09-.23Z"/><path class="cls-11" d="M25.93,98c-.56-.07-1.11-.2-1.67-.22a.29.29,0,0,0-.3.3l0,1a.31.31,0,0,0,.22.29,3.79,3.79,0,0,0,1.15.23.22.22,0,0,0,.11-.41,3.81,3.81,0,0,0-1.1-.4l.22.29,0-1-.3.3c.56,0,1.11-.08,1.67-.11a.14.14,0,0,0,0-.27Z"/><path class="cls-11" d="M119.38,90.62a3,3,0,0,0-.28,1,2.73,2.73,0,0,0-.08.94.18.18,0,0,0,.32,0,2.71,2.71,0,0,0,.19-.93,3.09,3.09,0,0,0,0-1,.1.1,0,0,0-.17,0Z"/><path class="cls-11" d="M120.65,90.68a7.89,7.89,0,0,0,0,2.52.12.12,0,0,0,.23,0,7.89,7.89,0,0,0,0-2.52.14.14,0,0,0-.27,0Z"/><path class="cls-11" d="M122.78,91.3a9.37,9.37,0,0,0,0,1.59c0,.14.27.14.29,0a9.37,9.37,0,0,0,0-1.59.18.18,0,0,0-.35,0Z"/><path class="cls-11" d="M123.49,92.81c-.09.21-.19.43-.28.65a.05.05,0,0,0,.1,0c.12-.19.24-.4.35-.6s-.12-.2-.17-.09Z"/><path class="cls-11" d="M112.47,99.31a8.74,8.74,0,0,1-1.84-3.45l-.44.44c.93.38,1.86.77,2.8,1.11.38.13.65-.5.28-.66-1-.41-1.92-.77-2.89-1.14a.36.36,0,0,0-.44.44,7.77,7.77,0,0,0,2.42,3.37.08.08,0,0,0,.11-.11Z"/><path class="cls-11" d="M113.45,98.18c.62-1,1.15-2.17,1.86-3.15l-.61-.36a3.43,3.43,0,0,0,.06,3.4c.23.3.79.15.65-.27a3.51,3.51,0,0,1-.1-2.77c.2-.47-.5-.76-.65-.27-.35,1.14-.93,2.24-1.38,3.35,0,.1.12.16.17.07Z"/><path class="cls-11" d="M116.07,98.27l1.56-2.09-.7-.09c.22.71.44,1.43.62,2.16.15.58,1.11.29.89-.25-.28-.7-.53-1.41-.78-2.11a.38.38,0,0,0-.69-.1c-.46.73-.92,1.46-1.39,2.19-.21.32.28.58.49.29Z"/><path class="cls-11" d="M119.14,98.25c.47-.68.93-1.36,1.44-2h-.65c.3.51.56,1.32,1.14,1.54.21.08.39-.12.41-.31,0-.56-.6-1.17-.9-1.61a.38.38,0,0,0-.65,0c-.38.73-.8,1.43-1.22,2.14-.16.28.25.5.43.25Z"/><path class="cls-11" d="M121.91,98c.78-.61,1.43-1.38,2.2-2l-.65-.27c0,.54,0,1.08,0,1.62a4.64,4.64,0,0,0,.08,1.49.39.39,0,0,0,.75,0,4.38,4.38,0,0,0,0-1.49c0-.54,0-1.08-.07-1.62,0-.3-.42-.55-.65-.27-.64.76-1.42,1.38-2,2.15a.28.28,0,0,0,.39.39Z"/><path class="cls-11" d="M124.46,98.6a6.53,6.53,0,0,1,3.31-3.16l-.6-.6c-.3.53-.59,1.06-.88,1.6a2.84,2.84,0,0,0-.56,1.37.33.33,0,0,0,.49.28,2.77,2.77,0,0,0,.85-1.19c.29-.54.58-1.07.86-1.61a.44.44,0,0,0-.6-.61,7.1,7.1,0,0,0-3.49,3.55c-.19.42.41.79.62.37Z"/><path class="cls-11" d="M111,98.72a5.39,5.39,0,0,0-3.33-3.15c-.52-.21-.73.63-.23.84a6.76,6.76,0,0,1,2,1.29c.48.45.86,1.15,1.46,1.46a.25.25,0,0,0,.37-.22c0-.81-.79-1.53-1.36-2a7.77,7.77,0,0,0-2.29-1.35l-.23.84a5.35,5.35,0,0,1,3.27,2.43c.09.14.35,0,.29-.12Z"/><path class="cls-11" d="M109.23,97.45c-1.77-1.26-3.53-2.53-5.31-3.78a.45.45,0,0,0-.65.5c.52,1.53,1.59,3.35,3.18,3.94.34.13.53-.33.33-.56-.45-.51-1-.91-1.45-1.44a7.05,7.05,0,0,1-1.21-2.18l-.65.5c1.84,1.15,3.69,2.27,5.54,3.41.25.15.45-.23.22-.39Z"/><path class="cls-11" d="M127,96.65a7.68,7.68,0,0,0,2.4-1.7l2.79-2.33-.65-.51c-.48.83-.94,1.65-1.41,2.48a6.78,6.78,0,0,0-1.06,2.32.23.23,0,0,0,.39.22,6.49,6.49,0,0,0,1.42-2.1c.46-.83.92-1.66,1.37-2.5a.42.42,0,0,0-.65-.5l-2.56,2.29a8,8,0,0,0-2.13,2.22.08.08,0,0,0,.09.11Z"/><path class="cls-11" d="M89.52,36.26c-2-.35-.16-5.06,0-6.65a46,46,0,0,0,.16-10.55c0-.18-.3-.19-.29,0a59.84,59.84,0,0,1-1.69,17.18.24.24,0,0,0,.24.31,9.12,9.12,0,0,0,1.48.06c.19,0,.25-.31,0-.35Z"/><path class="cls-11" d="M110.75,38.61c1.87-1.64,2.18-4,2.64-6.3.8-4,1.63-8,2.31-12,0-.12-.15-.17-.17,0-.7,3.09-1.28,6.2-1.91,9.31s-.8,6.55-3,8.92a.09.09,0,0,0,.12.12Z"/><path class="cls-11" d="M128.57,55.65c1.39-11.35,9.49-19.78,21.05-20.71.34,0,.35-.56,0-.54-11.48.75-20.84,9.58-21.37,21.25,0,.2.3.19.32,0Z"/><path class="cls-11" d="M148.89,35.3c1.92,11.73-7.08,22.12-19.25,20.23a.39.39,0,1,0-.11.76c12.1,1.61,22.75-8.89,19.89-21.14-.08-.35-.58-.19-.53.15Z"/><path class="cls-11" d="M146.11,40.12c-2.14,6-5.06,10.86-10.53,14.45-.32.2,0,.71.29.5,5.14-3.24,9.58-8.73,10.53-14.87a.15.15,0,0,0-.29-.08Z"/><path class="cls-11" d="M143.19,42.94a2.6,2.6,0,0,0,.95,2.17,2,2,0,0,0,2.15.43.18.18,0,0,0,0-.33,4.45,4.45,0,0,1-1.67-.55,2.43,2.43,0,0,1-1.05-1.72.17.17,0,0,0-.34,0Z"/><path class="cls-11" d="M142.05,45.77c.21,1.26,1.63,2.68,3,2.42a.3.3,0,0,0,0-.57,5.58,5.58,0,0,1-1.61-.55,3.24,3.24,0,0,1-1.14-1.4c-.07-.15-.26,0-.24.1Z"/><path class="cls-11" d="M141.39,48.21a2.61,2.61,0,0,0,2,2.5c.32,0,.46-.48.17-.62a4.08,4.08,0,0,1-1.19-.66,2.29,2.29,0,0,1-.69-1.26c0-.18-.34-.14-.32,0Z"/><path class="cls-11" d="M139.16,50.14a4.17,4.17,0,0,0,.32,1c.11.23.44.07.39-.16a4.92,4.92,0,0,0-.38-1c-.08-.19-.38,0-.33.14Z"/><path class="cls-11" d="M137.78,35.93c-3.14.62-6.7,2.74-8.24,5.64-.15.28.22.59.45.35a24.74,24.74,0,0,1,3.48-3.46,18.19,18.19,0,0,1,4.4-2.22.16.16,0,0,0-.09-.31Z"/><path class="cls-11" d="M135.3,34.69c-2.82,1.06-5.85,3.09-7,6-.07.19.21.35.33.2,2-2.43,3.78-4.6,6.77-5.88.2-.08.06-.43-.15-.35Z"/><path class="cls-11" d="M150.74,44.46A13.51,13.51,0,0,1,147,51.18c-.13.15.05.43.23.3a9.67,9.67,0,0,0,3.74-7c0-.13-.21-.16-.23,0Z"/><path class="cls-11" d="M152.43,46c-.29,2.58-1.66,4.31-3,6.43a.2.2,0,0,0,.27.27c2.2-1.33,3.09-4.29,3.24-6.7,0-.35-.5-.34-.54,0Z"/><path class="cls-11" d="M115.87,59.13c1,2.43,3.7,5.14,6.56,4.73.42-.06.31-.63,0-.75A14.66,14.66,0,0,1,119,61.8a8.06,8.06,0,0,1-2.6-2.9c-.16-.3-.68-.09-.56.23Z"/><path class="cls-11" d="M118.05,70.91A3.25,3.25,0,0,0,116.91,72c-.07.13.08.3.21.21a3.19,3.19,0,0,0,1-1.25,0,0,0,0,0,0,0Z"/><path class="cls-11" d="M62.19,72.31A5.89,5.89,0,0,0,65.67,71c.31-.24-.09-.71-.42-.53-.73.4-1.81.76-2.26,1.5a.15.15,0,0,0,.13.23A5.84,5.84,0,0,0,65.6,71.1l-.42-.54a5.5,5.5,0,0,1-3,1.29c-.28,0-.3.48,0,.46Z"/><path class="cls-11" d="M71.44,66.91A3.85,3.85,0,0,0,69,68.69l.71.41a4.4,4.4,0,0,1,1.07-1.28c.37-.29,1.06-.45,1.26-.88a.28.28,0,0,0-.11-.39c-.55-.26-1.19.26-1.62.59A4.9,4.9,0,0,0,69,68.69c-.26.46.46.88.71.41a4.36,4.36,0,0,1,1.89-1.79c.23-.12.06-.44-.17-.4Z"/><path class="cls-11" d="M58.71,74.13A33,33,0,0,0,55.92,76c-.12.08,0,.27.11.19a30.78,30.78,0,0,0,2.78-1.88.1.1,0,0,0-.1-.17Z"/><path class="cls-11" d="M59.4,77.06a0,0,0,1,0,0,0s0,0,0,0Z"/><path class="cls-11" d="M57.14,80.29l-1.23.65c-.18.09,0,.36.16.27l1.26-.59c.22-.11,0-.45-.19-.33Z"/><path class="cls-11" d="M58.36,76.55a19.84,19.84,0,0,0-4.65,3.15c-.09.08,0,.21.12.16a20.07,20.07,0,0,0,4.66-3.14c.09-.08,0-.22-.13-.17Z"/><path class="cls-11" d="M60.93,79.45a9.69,9.69,0,0,0-5,3.1c-.07.09.06.22.15.16A20.19,20.19,0,0,1,61,79.61a.08.08,0,0,0,0-.16Z"/><path class="cls-11" d="M116,74.87a8.65,8.65,0,0,1,0,2.49c-.12.73-.42,1.41-.57,2.14a.1.1,0,0,0,.18.07,6.74,6.74,0,0,0,.66-4.73c0-.15-.27-.11-.26,0Z"/><path class="cls-11" d="M117.93,74.88a18.84,18.84,0,0,0-.31,4,.1.1,0,0,0,.2,0,18.94,18.94,0,0,0,.34-4.05c0-.15-.21-.15-.23,0Z"/><path class="cls-11" d="M120.16,75.18a21,21,0,0,0-1.29,4.36.12.12,0,0,0,.23.07,20.65,20.65,0,0,0,1.23-4.38.09.09,0,1,0-.17,0Z"/><path class="cls-11" d="M121.93,75.47a24.7,24.7,0,0,0-1.54,4,.16.16,0,0,0,.3.12,24.09,24.09,0,0,0,1.56-4.07c.07-.2-.24-.28-.32-.09Z"/><path class="cls-11" d="M39.27,82.6a68.24,68.24,0,0,1-6.44-8.4.1.1,0,0,0-.17.1,23.63,23.63,0,0,0,6.58,8.35s0,0,0-.05Z"/><path class="cls-11" d="M37.38,84.8c-1.9-2.31-3.8-4.69-5.92-6.8-.06-.07-.2,0-.13.11a89,89,0,0,0,5.93,6.81c.07.08.19,0,.12-.12Z"/><path class="cls-11" d="M34.63,83.22A40.16,40.16,0,0,1,28.41,76c-.06-.09-.2,0-.14.08a29.68,29.68,0,0,0,6.17,7.28c.13.11.31-.07.19-.18Z"/><path class="cls-11" d="M33.2,85.64A21.79,21.79,0,0,1,26,78.08a.09.09,0,0,0-.16.09,18.48,18.48,0,0,0,7.18,7.71c.15.1.29-.14.14-.24Z"/><path class="cls-11" d="M33,90.1a30,30,0,0,1-10.33-10,.1.1,0,1,0-.17.1A24.54,24.54,0,0,0,32.94,90.26.09.09,0,0,0,33,90.1Z"/><path class="cls-11" d="M31.1,91.23A30,30,0,0,1,19.18,81.5c-.07-.1-.24,0-.17.1a23.62,23.62,0,0,0,12,9.75c.07,0,.12-.09.05-.12Z"/><path class="cls-11" d="M29,93.7c-3.17-3.25-6.28-6.57-9.56-9.72-.1-.1-.24,0-.15.15,3.08,3.34,6.34,6.52,9.53,9.75.11.12.3-.06.18-.18Z"/><path class="cls-11" d="M29,96.58A27.23,27.23,0,0,1,13.62,84a.13.13,0,0,0-.23.13A25.47,25.47,0,0,0,28.92,96.77a.1.1,0,0,0,0-.19Z"/><path class="cls-11" d="M27,101.66c-1-.18-2-.24-3-.33a7.22,7.22,0,0,0-3,0,.3.3,0,0,0-.07.54,6.07,6.07,0,0,0,2.62.36,31.76,31.76,0,0,0,3.38,0c.32,0,.44-.53.08-.6Z"/><path class="cls-11" d="M23.09,102c-3-2.17-6.06-4.18-9.13-6.21a.26.26,0,0,0-.39.16c0,.07-5-3-6.23-3-1.64,0-.77.82-1.27.6,0,0-1.82-1.9-1.86-1.93A14,14,0,0,0,.53,89.79c-4.25-1.61-8.76-2.88-13.14-4.08a.33.33,0,0,0-.17.63C-7.4,88.22,3.48,89.31,6,95A.33.33,0,0,0,6.61,95c.16-1.14,5.73,2.82,6.74,3a.33.33,0,0,0,.39-.22c.35-1.59,8.54,4,9.27,4.45.09,0,.15-.07.08-.13Z"/><path class="cls-11" d="M105,89.14c-.09-.5,0-.16.23.12s.43.57.64.86c.47.65.92,1.32,1.35,2,.81,1.28,1.55,2.6,2.32,3.91.08.15.34,0,.27-.11-1-2.64-2.69-5.92-4.93-7.72a.15.15,0,0,0-.23.17l.26.79c0,.06.11,0,.09,0Z"/><path class="cls-11" d="M100,86.94c.86,1.66,2.57,3,3.73,4.51,1.33,1.7,2.46,3.54,3.71,5.3a.24.24,0,0,0,.42-.25,24.11,24.11,0,0,0-3.36-5.3c-1.19-1.49-2.66-3.53-4.44-4.32,0,0-.09,0-.06.06Z"/><path class="cls-11" d="M126.27,95.93a151.3,151.3,0,0,0,7.21-17.37.19.19,0,0,0-.34-.14,151.32,151.32,0,0,0-7.09,17.42.12.12,0,0,0,.22.09Z"/><path class="cls-11" d="M127.91,96c2.77-4.79,5.62-9.6,8.08-14.56a.13.13,0,0,0-.22-.12c-2.91,4.71-5.47,9.67-8.07,14.56a.12.12,0,0,0,.21.12Z"/></svg>