<svg id="illustration" xmlns="http://www.w3.org/2000/svg" viewBox="0 0 198.43 131.49"><defs><style>.cls-1{fill:#ed1d24;}.cls-2{fill:#42b7e9;}.cls-3{fill:#faef66;}.cls-4{fill:#687278;}.cls-5{fill:#ee1c50;}.cls-6{fill:#fef493;}.cls-7{fill:#103052;}.cls-8{fill:#010101;}.cls-9{fill:#fff;}.cls-10{fill:#613613;}.cls-11{fill:#ed1c26;}</style></defs><path class="cls-1" d="M41.88,84.86S31,90.79,31.23,100.49s5.34,17.9,16.18,18.67c3.24-1.85,8.27-12.31,7.26-18.76S48.26,86.48,41.88,84.86Z"/><path class="cls-2" d="M176.68,58.61c-7-2.3-13.07-2.16-18.84,6.37s.94,13.75.94,13.75L143.54,90.89H129.42L128.17,80l-30-18.4-12,.57L68,65.3,41.88,84.86s11.7,3.84,12.79,15.54a23.11,23.11,0,0,1-7.26,18.76l92.67-5.31L168,83.63s9.84,3.34,14.54-4.54S183.72,60.91,176.68,58.61Zm-16.24,8.84A11.09,11.09,0,0,1,167.07,61c.57-.19.86.48.6.88a.76.76,0,0,1,.06.18c.24,1.88.12,3.76.74,5.57a.54.54,0,0,1-.05.71,3.12,3.12,0,0,0-.67.86.55.55,0,0,1-.52.74,5.56,5.56,0,0,1-2.42-.87,18.12,18.12,0,0,0-3.25-.87.65.65,0,0,1-.28-.18C160.87,68.28,160.22,68,160.44,67.45Zm8.84,7.37c-1.13,1.35-1.49,3.17-2.2,4.75a.47.47,0,0,1-.52.29.64.64,0,0,1-.27,0,5,5,0,0,1-3.36-3,.58.58,0,0,1-.43-1l.17-.11a4.44,4.44,0,0,1-.52.15c-.72.17-1-.94-.31-1.1,2-.46,3.53-1.91,5.52-2.3a.57.57,0,0,1,.64.33h0a1.79,1.79,0,0,0,.8.74.56.56,0,0,1,.38.46A.6.6,0,0,1,169.28,74.82ZM177.86,78a14.25,14.25,0,0,1-2.33,1.58.59.59,0,0,1-1.06.13.58.58,0,0,1-.2-.63c-.39-1.54-.72-3.65-2-4.58-.54-.42-.07-1.3.47-1a.8.8,0,0,1,.13-.21,5.88,5.88,0,0,0,.66-1c0-.37.25-.76.69-.59,1.88.69,3.22,2.22,4.94,3.21a.5.5,0,0,1,.27.38.59.59,0,0,1,.2.55C179.53,76.69,178.53,77.45,177.86,78Zm2.81-10.87a.57.57,0,0,1-.39.54c-1,.34-1.92.66-2.89.93a.54.54,0,0,1-.2.16,9.62,9.62,0,0,1-1.5.56.5.5,0,0,1-.5-.11,6.11,6.11,0,0,0-.58.27h0a.53.53,0,0,1-.9.2c-.25-.29-.49-.58-.73-.88-.41,0-.8-.4-.51-.82a.91.91,0,0,0,.11-.16,1,1,0,0,1,.08-.11c1.25-1.77,2.54-3.51,3.61-5.39a.57.57,0,0,1,1,.58l-.08.13a.59.59,0,0,1,.45,0l.08,0,.18.1a6.22,6.22,0,0,1,2.41,3.06C180.69,66.31,180.94,66.82,180.67,67.11Z"/><path class="cls-3" d="M84.28,64.61H95.73l9.78,2.09.76,49-59.08,3.4s9.61-8.11,7.26-18.77S45.18,86.58,41.67,84.78L64.49,70.24l9-3.9L80,64.89Z"/><path class="cls-4" d="M87.52,40.69S120.28,9.94,127.76,8.28s3.78,3.52,3.78,3.52L93.19,47.54l36.59,31.18a2.73,2.73,0,0,1,1.45,3.57c-.89,2.63-4,1.53-4,1.53S99.08,65,93.47,57.11L85.3,48.2,49.17,84.8a2.23,2.23,0,0,1-3.37,0c-1.89-1.74-1.16-2.55,0-4.82s35-33.59,35-33.59l-35-35s-1.9-2.25,0-3.48,4.28-.64,4.14,0,36,34.49,36,34.49Z"/><path class="cls-5" d="M79.31,47.1s.57-5.67,6-6.16,9.73,2.27,9.08,4.69-4.13,5.46-8.19,5.49S79.27,50.56,79.31,47.1Z"/><path class="cls-6" d="M82,51.84s2.17,1.84,3.56,1.8a14.09,14.09,0,0,0,3.62-.9L87.82,51,83,50.73Z"/><path class="cls-4" d="M83.93,62.36,89.48,62l-.27-9.21a6.92,6.92,0,0,1-3,.94,11.91,11.91,0,0,1-2.78-.78Z"/><path class="cls-7" d="M62,71.26s15.12-5.45,20.35-5.41c0,0-1.24,6.94-1.52,10.55s.78,11,.78,11l-9,.84-13,.08s-7.35.26-9.73-3.36C52.72,80.79,62,71.26,62,71.26Z"/><path class="cls-7" d="M85.51,65.87s14.7-2.41,18.11,3.68l-.41.37,1.59,17.69-17.93.21Z"/><path class="cls-8" d="M84.25,91.11s-7.52.14-8.45.82-1.72,2.63,0,3.52,4.7.14,5.75-.13a5.06,5.06,0,0,1,2.7.55Z"/><path class="cls-8" d="M99.3,90.31s-1.58.62-1.33,2.06.18,1.78,1.33,2.12,6-.18,6-.18V90.08Z"/><path class="cls-9" d="M65.84,94s-7.58-.32-8.06,8c-.54,6,6.92,7.4,6.92,7.4s8.33-.36,8-7.4A8.23,8.23,0,0,0,65.84,94Z"/><path class="cls-10" d="M65.08,99.59a1.51,1.51,0,0,0-1.72.93,1.86,1.86,0,0,0,.33,2.11A1.93,1.93,0,0,0,67,101.37a.56.56,0,0,0-.28-.47,2.81,2.81,0,0,1-1.11-1,.57.57,0,0,0-1,.13c-.17.73-.56,2.34.44,2.65a.93.93,0,0,0,1-.43,1.37,1.37,0,0,0-.13-1.43.62.62,0,0,0-.69-.28,1.44,1.44,0,0,0-1.08.73,1,1,0,0,0,.3,1.2c1.07.75,1.63-.79,1.32-1.62a.7.7,0,0,0-1.16-.3,1.28,1.28,0,0,0-.35.84.72.72,0,0,0,.7.7l.36,0a.73.73,0,0,0,.51-1.23.84.84,0,0,0-1.45.58c-.08.8,1,.86,1.35.36l.06-.08c.39-.52-.25-1.1-.76-1l-.12,0,.89.89,0-.07-.34.43-.21,0-.51-.21,0,.06.51-1.23H65l.71.71-.08.13-1.08-.14a.5.5,0,0,1-.05.43l.45-.45c.16.36.38.47.64.35l-.68-.28c.09.14.46.36.63.25a2.45,2.45,0,0,0,0-.47,3.77,3.77,0,0,1,.15-.88l-1,.14a4.26,4.26,0,0,0,1.54,1.35l-.25-.62c-.12.71-.9,1.32-1.51.64s.18-1.27.74-1.63a.36.36,0,0,0-.09-.65Z"/><path class="cls-9" d="M66.64,87.9c1.67-2.71,3.72-5.61,4.76-8.64.94-2.74-1.4-4.35-1.5-7a.9.9,0,0,0-1.79,0c0,2.26,2.2,4.16,1.83,6.31-.48,2.91-2.76,6.2-4.21,8.74a.53.53,0,0,0,.91.54Z"/><path class="cls-9" d="M69.16,71.9a9.91,9.91,0,0,0,.72-1.17,7.39,7.39,0,0,1,1-1.17.42.42,0,0,0-.6-.6,4.61,4.61,0,0,0-1.51,2.78.24.24,0,0,0,.4.16Z"/><path class="cls-9" d="M72.15,68.07a8.51,8.51,0,0,0-1.57.44,7.05,7.05,0,0,0-1.55.58c-.21.13-.15.54.14.51a6.37,6.37,0,0,0,1.58-.47,8,8,0,0,0,1.52-.61c.19-.11.13-.48-.12-.45Z"/><path class="cls-9" d="M69.17,69.4c-2.62,1.78-2.75,6.36.53,7.46.67.22,1-.64.64-1.1-.83-1-2.28-1.33-2.36-2.84-.07-1.32,1-2.24,1.34-3.41a.1.1,0,0,0-.15-.11Z"/><path class="cls-9" d="M69.2,69.5a3.67,3.67,0,0,0-1,2.24c0,.65.91.73,1.1.15.11-.34.14-.7.24-1s.23-.66.35-1-.39-.64-.64-.37Z"/><path class="cls-9" d="M72.23,68.5a4.6,4.6,0,0,0-2.63,3.08,4.37,4.37,0,0,0,0,2.27c.26,1,2.16,3,1.27,4-.52.58.14,1.57.86,1.12a2.38,2.38,0,0,0,.89-3c-.35-.94-1.15-1.65-1.56-2.57-.84-1.9-.06-3.34,1.37-4.57a.16.16,0,0,0-.15-.26Z"/><path class="cls-9" d="M69.58,76.4a21.37,21.37,0,0,1-1.81,6.06c-.9,1.81-1.82,3.6-2.71,5.41a.26.26,0,0,0,.15.37,2.27,2.27,0,0,0,1.84-.09.19.19,0,0,0,0-.37c-1.88-.24-.24-1.42.39-2.55s1.29-2.58,1.86-3.9c.69-1.57,1.57-3.4.57-5a.13.13,0,0,0-.24,0Z"/><path class="cls-9" d="M67.08,87.9a3.4,3.4,0,0,0,.67-1.19,3.62,3.62,0,0,0,.38-1.18.18.18,0,0,0-.3-.13,4,4,0,0,0-.66,1.19,3,3,0,0,0-.39,1.18.18.18,0,0,0,.3.13Z"/><path class="cls-9" d="M68.29,86.18a4,4,0,0,0,.47-1.92.13.13,0,0,0-.22-.06,3.84,3.84,0,0,0-.67,1.87.22.22,0,0,0,.42.11Z"/><path class="cls-9" d="M71.41,80.08a2.39,2.39,0,0,0,.87-1.86c0-.22-.33-.22-.44-.06A11.38,11.38,0,0,0,71.25,80c0,.1.08.23.16.13Z"/><path class="cls-9" d="M72.15,68.89a1.75,1.75,0,0,0,.85-.65c.09-.12,0-.31-.17-.22a1.67,1.67,0,0,0-.79.76c0,.07,0,.12.11.11Z"/><path class="cls-9" d="M72.32,68.41a1.28,1.28,0,0,0,.26-.2c.08-.06,0-.19-.1-.13a1.64,1.64,0,0,0-.25.21.08.08,0,0,0,.09.12Z"/><path class="cls-9" d="M68.85,69.48a.7.7,0,0,0-.38.63.19.19,0,0,0,.35.1l.27-.49a.18.18,0,0,0-.24-.24Z"/><path class="cls-9" d="M71,68.7a1.86,1.86,0,0,0-.69.85.3.3,0,0,0,.08.3l.05.06a.2.2,0,0,0,.18,0c.36-.11.44-.61.68-.87s-.06-.55-.3-.39Z"/><path class="cls-9" d="M93.7,66.05a4.59,4.59,0,0,0,1.16.23c.42,0,.84.11,1.26.13s.33-.41.07-.51-.83-.22-1.23-.35a5.12,5.12,0,0,0-1.17-.2c-.42,0-.46.58-.09.7Z"/><path class="cls-9" d="M93.61,65.64a6.92,6.92,0,0,0-2.13,7.47c.3.83.87,1.52,1.18,2.35a7.21,7.21,0,0,1-.15,4.33,65.9,65.9,0,0,1-2.16,7.27c-.29.78.92,1.08,1.22.34,1.26-3.14,3.3-7.5,3-11-.16-1.58-1.18-2.71-1.83-4.1-1.13-2.43-.36-4.46,1.08-6.52a.13.13,0,0,0-.18-.17Z"/><path class="cls-9" d="M91.71,87.5a2.16,2.16,0,0,0,.84,0,.53.53,0,0,0,.48-.37.37.37,0,0,0,0-.39.55.55,0,0,0-.57-.23,2.51,2.51,0,0,0-.79.29.38.38,0,0,0,.09.69Z"/><path class="cls-9" d="M93,87.07a47.88,47.88,0,0,0,2-5.18c.62-1.52,1.34-2.92,1.09-4.61a12.51,12.51,0,0,0-1.49-3.56c-1.32-2.73-.34-4.85,1.54-7,.42-.48-.27-1.19-.71-.71-2.14,2.33-3.78,4.55-2.46,7.76,1,2.31,2,3.57,1.46,6.25-.49,2.33-1.73,4.44-2.18,6.76-.08.42.5.72.73.31Z"/><path class="cls-9" d="M94.36,66.56a5.43,5.43,0,0,0-2,1.93c-.38.67-1,1.64-.47,2.38a.48.48,0,0,0,.65.17.41.41,0,0,0,.22-.34c0-.15-.06-.27,0-.4a2.52,2.52,0,0,1,.35-1,12.79,12.79,0,0,1,1.58-2.47.19.19,0,0,0-.23-.3Z"/><path class="cls-9" d="M94.54,66.06a1.48,1.48,0,0,0-1.34.64c-.3.39-.71,1-.42,1.48a.3.3,0,0,0,.34.14c.38-.1.47-.42.65-.73a2.23,2.23,0,0,1,.87-.77c.26-.17.28-.7-.1-.76Z"/><path class="cls-9" d="M93.55,66.21a.71.71,0,0,0-.53.54.35.35,0,0,0,.24.42.54.54,0,0,0,.18,0,.34.34,0,0,0,.24-.24.55.55,0,0,1,.14-.26.28.28,0,0,0-.27-.46Z"/><path class="cls-9" d="M93.83,66c-.33,0-.5.24-.65.52a.35.35,0,1,0,.64.27,1.73,1.73,0,0,0,.19-.61.18.18,0,0,0-.18-.18Z"/><path class="cls-9" d="M94.89,66.24c-.49.32-1.27,1.31-.91,1.89a.34.34,0,0,0,.37.15c.66-.12.86-1.38.78-1.94a.17.17,0,0,0-.24-.1Z"/><path class="cls-9" d="M92.47,86.46c.63-1.21,1-2.56,1.61-3.78a6.53,6.53,0,0,0,1-3.45c0-.61-1-.85-1.15-.16a17.55,17.55,0,0,1-1.36,4.19A4.59,4.59,0,0,0,92,86.39a.29.29,0,0,0,.52.07Z"/><polygon class="cls-4" points="168.42 68.37 172.04 68.22 176.68 62 172.36 60.62 167.53 60.82 168.42 68.37"/><polygon class="cls-4" points="167.23 69.97 159.84 68.22 160.92 75.13 167.36 72.42 167.23 69.97"/><path class="cls-4" d="M169.19,73.53l2.66,0L174.26,80s-.66,1.28-2.88,1.15a19.53,19.53,0,0,1-4.51-.92Z"/><polygon class="cls-4" points="173.7 69.66 181.06 67.75 181.53 71.31 180.12 75.48 173.74 71.31 173.7 69.66"/><path class="cls-11" d="M170.49,68.22s-3.35.12-3.06,2.8,3.24,2.85,3.24,2.85,3.11-.9,3.07-2.56S172.5,68.77,170.49,68.22Z"/><path class="cls-9" d="M166.34,60c4.89-1.76,9.92-.83,13.27,3.31.21.27.58-.1.37-.37-3.32-4.17-8.89-5.75-13.72-3.15-.11.06,0,.25.08.21Z"/><path class="cls-9" d="M169,62.28a7.17,7.17,0,0,1,2.17,0,17,17,0,0,1,1.87.61.15.15,0,0,0,.15-.25,4.88,4.88,0,0,0-4.24-.77c-.19,0-.16.38.05.36Z"/><path class="cls-9" d="M169.49,65.76c.21.1.31,0,.56,0s.54.11.82.11a.08.08,0,0,0,.06-.14c-.28-.33-1.18-.48-1.45-.07a0,0,0,0,0,0,.06Z"/><path class="cls-9" d="M179.62,69.65a11.94,11.94,0,0,0-.35,1.37,6.28,6.28,0,0,1-.79,1.52.19.19,0,0,0,.3.23c.71-.66,1.46-2.17.94-3.12a.06.06,0,0,0-.1,0Z"/><path class="cls-9" d="M176.8,70.28a1.55,1.55,0,0,1-.35,1,.11.11,0,0,0,.15.14.94.94,0,0,0,.38-1.19c0-.12-.2-.06-.18,0Z"/><path class="cls-9" d="M168.28,79.3c.94.78,2.91,1,3.8,0,.09-.1,0-.31-.12-.3-.57,0-1.1.27-1.68.3a6.86,6.86,0,0,1-1.86-.27c-.13,0-.25.13-.14.23Z"/><path class="cls-9" d="M169.54,77.16a1.51,1.51,0,0,0,1.18.18c.2,0,.17-.34,0-.39a1.51,1.51,0,0,0-1.18,0,.1.1,0,0,0,0,.17Z"/><path class="cls-9" d="M161.32,69.8a2.12,2.12,0,0,0-.25,1.63c.1.45.38,1.17.9,1.26a.17.17,0,0,0,.19-.2c-.09-.4-.47-.7-.58-1.12a2.78,2.78,0,0,1,0-1.46.14.14,0,0,0-.26-.11Z"/><path class="cls-9" d="M163.83,70.56a.76.76,0,0,0,.15,1.08c.15.1.31-.07.29-.22s-.19-.54-.24-.84c0-.1-.15-.09-.2,0Z"/><path class="cls-9" d="M169.27,69.74a2.12,2.12,0,0,1,1.69.15c.44.25.58.66.88,1a.25.25,0,0,0,.42-.17,1.89,1.89,0,0,0-1.15-1.43,2,2,0,0,0-1.94.17c-.12.08,0,.29.1.24Z"/><path class="cls-9" d="M146.52,91a104.23,104.23,0,0,0,12-9.18c.1-.09,0-.26-.15-.19a105.09,105.09,0,0,0-12,9.27c-.05,0,0,.14.08.1Z"/><path class="cls-9" d="M129.41,92.89c3.48,1.59,9.17,1.28,12.7-.12.31-.12.3-.64-.09-.63-2.1,0-4.15.53-6.26.58s-4.2-.32-6.29,0c-.1,0-.17.16-.06.21Z"/><path class="cls-9" d="M32.55,99.45c.57-2.62,1-5.07,2.49-7.39a16.7,16.7,0,0,1,6.34-5.54c.23-.12.08-.52-.18-.42C36.28,88,31.71,94,32.28,99.42c0,.14.24.2.27,0Z"/><path class="cls-9" d="M52.85,107.09a25.77,25.77,0,0,1-1,4.24,21.68,21.68,0,0,1-2.3,4.23.2.2,0,0,0,.31.24,12.7,12.7,0,0,0,3.45-8.64c0-.27-.43-.36-.49-.07Z"/><path class="cls-9" d="M57.63,108.93c3.84,5,12.54,3.6,16.39-.54.15-.16,0-.46-.24-.31A13.66,13.66,0,0,1,66,111.21c-3.09.09-5.33-1.37-8.05-2.55-.15-.07-.41.09-.27.27Z"/><path class="cls-9" d="M79.32,84.19c-.17.71.18,1.55-.56,2-.54.35-1.21.24-1.76.5-.18.08-.1.32,0,.37a2.44,2.44,0,0,0,2.31-.53,2.22,2.22,0,0,0,.35-2.43.21.21,0,0,0-.39,0Z"/><path class="cls-9" d="M54.57,86.2a9.19,9.19,0,0,1-1.94-1c-.49-.4-.79-1.14-1.37-1.37A.22.22,0,0,0,51,84c-.3.77.69,1.6,1.25,2a2.56,2.56,0,0,0,2.33.41.11.11,0,0,0,0-.2Z"/><path class="cls-9" d="M102.77,84.43a2.58,2.58,0,0,1-1.38,1c-.34.08-.72.38-.33.69s1.13-.05,1.47-.32a1.38,1.38,0,0,0,.59-1.31.21.21,0,0,0-.35-.09Z"/><path class="cls-9" d="M86.77,69.14a1.83,1.83,0,0,0,.32-.64,2.37,2.37,0,0,1,.53-.82A3.15,3.15,0,0,1,89.69,67a.21.21,0,0,0,.1-.39,2.29,2.29,0,0,0-2.48.38c-.48.41-1.24,1.49-.78,2.12a.16.16,0,0,0,.24,0Z"/><path class="cls-9" d="M85,55.57a20.68,20.68,0,0,0,.09,2.23,11,11,0,0,0,.22,2,.25.25,0,0,0,.49-.07,11.24,11.24,0,0,0-.22-2.23,18.58,18.58,0,0,0-.31-2,.14.14,0,0,0-.27,0Z"/><path class="cls-9" d="M82,45.67c2.57-2.85,5.83-2.76,9-1.1.47.24,1-.37.59-.75-3.06-2.82-7.77-1.61-10.05,1.49-.2.27.23.6.46.36Z"/><path class="cls-9" d="M93.48,37.76c5.31-4.15,10.36-8.62,15.68-12.77q8.43-6.58,17.25-12.63c.38-.26,0-.87-.36-.61C114.65,19.59,103.33,28,93.3,37.58c-.12.12.06.28.18.18Z"/><path class="cls-9" d="M49.18,12.53a3.68,3.68,0,0,1-.23-.88q.87-1.23,1.65-.39c.42.34.8.74,1.19,1.1.71.64,1.39,1.33,2.15,1.9.13.09.24-.1.16-.2-.76-.93-1.7-1.75-2.55-2.6-.5-.49-1-1.25-1.76-1.37-1.57-.25-1.75,1.68-1,2.62.15.19.53.1.43-.18Z"/><path class="cls-9" d="M56.34,72.22c2.95-2.62,5.78-5.33,8.58-8.11a102.73,102.73,0,0,0,8.22-8.48.18.18,0,0,0-.26-.26c-2.95,2.56-5.56,5.61-8.34,8.36s-5.61,5.52-8.39,8.3c-.12.12.06.3.19.19Z"/><path class="cls-9" d="M95.73,51.85c2.27,3.4,5.72,6.15,8.85,8.73,3.43,2.83,6.81,5.91,10.5,8.4.17.12.36-.14.22-.28-3.18-3.09-6.89-5.73-10.3-8.54-3.22-2.66-5.9-5.79-9-8.52-.14-.12-.39,0-.27.21Z"/><path class="cls-9" d="M74.38,65.65C78,65,81.55,64,85.25,63.58A78.65,78.65,0,0,1,95.43,63a.27.27,0,0,0,0-.54c-6.91-.07-14.58.52-21.11,2.95a.11.11,0,0,0,.06.21Z"/><path class="cls-9" d="M52.33,89.71a19.78,19.78,0,0,1,2.37,2.64c.61.93.92,2,1.46,2.93a.18.18,0,0,0,.34-.09c0-2.19-2-4.83-4-5.73a.16.16,0,0,0-.19.25Z"/><path class="cls-9" d="M87.3,91c.17,3.11.67,6.2.89,9.31.19,2.77-.08,5.73.49,8.44a.22.22,0,0,0,.42,0c.61-2.85.12-6-.1-8.93a52.07,52.07,0,0,0-1.2-8.89c-.07-.27-.52-.22-.5.07Z"/><path class="cls-8" d="M89.25,40.81c-3.76-.34-9.38.35-10.42,4.82s3.43,5.61,6.91,5.69,8.53-.9,8.8-5.31c.21-3.45-3.05-5.49-6.16-4.77-.31.07-.18.56.13.48a4.35,4.35,0,0,1,4,7.5c-2.44,2.18-5.82,1.85-8.78,1.29-4.39-.82-5.84-5.27-1.9-7.81,2.2-1.42,4.89-1.35,7.4-1.64a.13.13,0,0,0,0-.25Z"/><path class="cls-8" d="M81.36,50.77a5.42,5.42,0,0,0,7.87,2.07c.13-.08,0-.29-.12-.21a5.29,5.29,0,0,1-7.61-1.94.08.08,0,0,0-.14.08Z"/><path class="cls-8" d="M89.18,51.36a7.94,7.94,0,0,0,.2,1.37.08.08,0,0,0,.16,0,9,9,0,0,0-.2-1.37c0-.09-.17-.07-.16,0Z"/><path class="cls-8" d="M82.88,53.24c.28,0,.39.14.65,0a.23.23,0,0,0-.12-.45c-.29,0-.29.2-.54.35,0,0,0,.06,0,.06Z"/><path class="cls-8" d="M83.33,52.7c0,1.64,0,3.26,0,4.9a15.38,15.38,0,0,0,.37,4.24.19.19,0,0,0,.36,0,15,15,0,0,0,0-4.24c-.07-1.64-.18-3.26-.35-4.9a.23.23,0,0,0-.45,0Z"/><path class="cls-8" d="M89,52.85a15.74,15.74,0,0,0-.1,4.6,42.3,42.3,0,0,0,.25,4.64c.07.45.72.3.75-.1a47,47,0,0,0-.11-4.89,14.39,14.39,0,0,0-.43-4.25.19.19,0,0,0-.36,0Z"/><path class="cls-8" d="M98.23,62c-9.79-1.53-20.27.28-29.59,3.37-.49.16-.28.95.22.78C78.63,63,88,62.44,98.18,62.37c.21,0,.27-.34,0-.37Z"/><path class="cls-8" d="M43.15,84.09c-8.72,2.87-13.56,12-12.08,21,1.74,10.41,9.71,15.14,19.68,14.77,29.78-1.09,59.58-3.67,89.33-5.51.59,0,.6-1,0-.93l-69.14,4.27-16.79,1c-5.82.35-12.09.75-16.73-3.46-10.33-9.35-5.78-25.38,5.89-30.76.22-.1.07-.46-.16-.38Z"/><path class="cls-8" d="M140.47,114.14a227.81,227.81,0,0,0,27.85-30.31c.28-.36-.34-.84-.63-.49-8.85,10.55-18,20.56-27.79,30.24-.37.36.19.91.57.56Z"/><path class="cls-8" d="M159.05,78.63a151.46,151.46,0,0,0-15.78,11.85c-.33.28.11.85.47.6A150.29,150.29,0,0,0,159.35,79a.25.25,0,0,0-.3-.39Z"/><path class="cls-8" d="M159.21,78.5c-3.08-5.58-3.11-12.35,1.7-17a13.74,13.74,0,0,1,17-1.65c12.22,7.84,4.64,28.48-10,23.12-.59-.22-.84.72-.26.93,14.86,5.45,23.71-14.89,11.92-24-12.43-9.6-30.47,5.53-20.79,18.85a.23.23,0,0,0,.4-.23Z"/><path class="cls-8" d="M128.9,90.73c2.08.91,4.49.78,6.74.85,2.58.08,5.37.32,7.88-.32.24-.07.27-.47,0-.51a59.52,59.52,0,0,0-7.32-.12c-2.39-.06-4.93-.61-7.27-.12a.12.12,0,0,0,0,.22Z"/><path class="cls-8" d="M129.38,91.08a10,10,0,0,0,0-5.81.41.41,0,0,0-.8.11c0,.93.16,1.87.18,2.81s-.09,1.88,0,2.81a.3.3,0,0,0,.59.08Z"/><path class="cls-8" d="M68.46,68.38a56.29,56.29,0,0,1,34-2.19.17.17,0,0,0,.09-.32A55.73,55.73,0,0,0,68.4,68.15c-.14,0-.08.29.06.23Z"/><path class="cls-8" d="M65.75,69.64a6.46,6.46,0,0,1,3.42-1.18.11.11,0,0,0,0-.21,5.65,5.65,0,0,0-3.52,1.21c-.11.08,0,.26.1.18Z"/><path class="cls-8" d="M84.36,64.7c-.22,17.47-.29,34.94-.34,52.41a.13.13,0,1,0,.26,0c.18-17.47.34-34.94.34-52.41a.13.13,0,0,0-.26,0Z"/><path class="cls-8" d="M49.85,85.07c2.47,3.18,6.27,3.35,10,3.43a171.16,171.16,0,0,0,21.84-.7c.22,0,.23-.36,0-.35-5.38.21-10.75.58-16.14.65-5,.06-12,1.06-15.55-3.22-.12-.14-.3.05-.19.19Z"/><path class="cls-8" d="M81.86,88a54.79,54.79,0,0,1,.82-22.12.22.22,0,0,0-.42-.12,50.72,50.72,0,0,0-.62,22.3c0,.15.25.09.22-.06Z"/><path class="cls-8" d="M85.36,65.87c.4,7.15.79,14.32,1.37,21.47,0,.18.29.18.28,0-.33-7.16-.84-14.33-1.35-21.47,0-.19-.31-.2-.3,0Z"/><path class="cls-8" d="M87.33,87.94c5.76-.33,11.47,0,17.22-.09.17,0,.22-.27,0-.3a70.7,70.7,0,0,0-17.26.15c-.15,0-.16.25,0,.24Z"/><path class="cls-8" d="M104.91,87.54c-.16-5.87-.76-11.77-1.29-17.62,0-.31-.52-.32-.5,0,.42,5.88.78,11.81,1.57,17.64,0,.13.23.1.22,0Z"/><path class="cls-8" d="M85.59,65.87c5-.58,15.32-1.5,17.93,4,.12.24.47,0,.36-.21-2.68-5.59-13.39-5-18.32-4-.11,0-.08.21,0,.2Z"/><path class="cls-8" d="M84.84,90.91c-2.49.13-5.08.2-7.55.58-1.17.19-2.59.63-2.71,2A2.56,2.56,0,0,0,76.41,96c2.3.82,4.7-.92,7.07-.26a.16.16,0,0,0,.08-.3A5.69,5.69,0,0,0,81,95.23c-.6.08-1.17.25-1.76.36a3.53,3.53,0,0,1-2.27,0q-2.56,0-.61-3.49c.86-.55,2.79-.37,3.8-.46,1.55-.14,3.1-.28,4.65-.47.18,0,.19-.3,0-.29Z"/><path class="cls-8" d="M105.48,68c-.34,15.65-.49,31.57.82,47.18,0,.23.37.24.37,0-.31-15.74-1-31.42-.92-47.18a.14.14,0,0,0-.27,0Z"/><path class="cls-8" d="M105.87,90.25c-2.14.37-8.1-1.57-8.31,2.29a2.53,2.53,0,0,0,1.82,2.38c2.14.77,4.47-.56,6.68,0a.19.19,0,0,0,.1-.36,5.16,5.16,0,0,0-2.7-.21,20.44,20.44,0,0,1-2.33.34,3.8,3.8,0,0,1-2-.36,1.18,1.18,0,0,1-.69-1.87,1.41,1.41,0,0,1,1.25-1.69,4.66,4.66,0,0,1,1.48-.18c.53,0,1.06.08,1.58.13a6.79,6.79,0,0,0,3.17-.18.13.13,0,0,0-.07-.25Z"/><path class="cls-8" d="M66.27,96.82c-1.68.21-2,2.2-1,3.36s3.3,1.94,4.72.88a2.79,2.79,0,0,0-.11-4.31c-1.67-1.4-4.22-1-5.79.35-.15.13,0,.34.2.26,1.29-.59,2.55-1.25,4-.87a2.64,2.64,0,0,1,2.09,3.24c-.53,1.6-2.47,1.62-3.73,1a3.22,3.22,0,0,1-1.44-1.29A1.59,1.59,0,0,1,66.3,97c.12,0,.09-.23,0-.22Z"/><path class="cls-8" d="M65.1,99a2.39,2.39,0,0,0-1.36,4.27,2.45,2.45,0,0,0,3.89-2.3c0-.27-.46-.2-.46.06,0,1.73-1.81,3.07-3.29,1.76a2.08,2.08,0,0,1,1.25-3.56c.13,0,.1-.23,0-.23Z"/><path class="cls-8" d="M64.31,93.79a8.3,8.3,0,0,0-6.51,9.87A7.76,7.76,0,0,0,68,109.19a8.22,8.22,0,0,0,4.31-10.81c-1.47-3.57-6.12-6.76-9.63-3.86-.2.16,0,.43.26.33,9.41-4.3,13.31,12.59,3.29,14.18A7.24,7.24,0,0,1,58,102.28c-.27-4.14,2.64-7.12,6.38-8.25a.13.13,0,0,0-.07-.24Z"/><path class="cls-8" d="M37,115.25c4.64,1.25,10-2.37,11.11-6.91.08-.32-.41-.56-.56-.23A11.4,11.4,0,0,1,44,113c-2.12,1.54-4.4,1.77-6.93,1.92a.16.16,0,0,0,0,.32Z"/><path class="cls-8" d="M45.89,106.68A2.93,2.93,0,0,1,50.32,109c0,.43.69.44.67,0a3.3,3.3,0,0,0-5.31-2.58c-.16.12,0,.35.21.27Z"/><path class="cls-8" d="M35.23,105.3c-2.15-5.86-.5-11.3,4.53-15,.19-.14,0-.46-.19-.33A11.93,11.93,0,0,0,35,105.4c.07.14.3,0,.25-.1Z"/><path class="cls-8" d="M41.84,84.94c5.9,3.17,10.61,7.39,12.27,14.16,1.82,7.39-1.34,15-7,19.82-.33.29.16.78.49.49,11.08-9.6,9.64-30-5.74-34.63a.09.09,0,0,0-.07.16Z"/><path class="cls-8" d="M170.71,59.85c-6.28.71-12.18,5-11.11,12a11.66,11.66,0,0,0,12.45,9.64,11,11,0,0,0,9.84-12.07c-.63-5.89-7-11-12.9-8.72-.21.08-.2.45.06.43,4.93-.24,9.67,1.07,11.47,6.19a10.11,10.11,0,0,1-9.69,13.38,10.94,10.94,0,0,1-10.59-10.16c-.32-6.21,5.24-9.24,10.52-10.34.18,0,.14-.36,0-.34Z"/><path class="cls-8" d="M169.49,68.06a3,3,0,0,0-2.21,4,3.68,3.68,0,0,0,4.81,1.76,3.1,3.1,0,0,0,1.46-4.59c-1.61-2.16-4.49-1.48-6.43-.3-.2.12-.07.48.17.39,1.37-.5,3.05-1.08,4.47-.49a2.29,2.29,0,0,1,.31,4.18,3.14,3.14,0,0,1-3.8-.52,2.55,2.55,0,0,1,1.31-4.14c.21,0,.12-.36-.09-.32Z"/><path class="cls-8" d="M167.39,60.82a71.48,71.48,0,0,0,1.08,8.37c0,.23.43.18.41,0a73.5,73.5,0,0,0-1.21-8.36.14.14,0,0,0-.28,0Z"/><path class="cls-8" d="M172,68.57c1.64-2.26,3.42-4.49,4.87-6.88.13-.2-.18-.45-.33-.26-1.76,2.2-3.25,4.64-4.83,7-.12.17.17.33.29.16Z"/><path class="cls-8" d="M168,75s0,0,0,0,0,0,0,0Z"/><path class="cls-8" d="M169.3,73.55a26.08,26.08,0,0,0-2.3,6.37.23.23,0,0,0,.45.12,35.37,35.37,0,0,1,2.14-6.32c.08-.19-.19-.36-.29-.17Z"/><path class="cls-8" d="M171.72,74.08a23,23,0,0,1,2.15,6c.09.44.76.25.67-.18a16.79,16.79,0,0,0-2.5-6,.19.19,0,0,0-.32.19Z"/><path class="cls-8" d="M173.85,70.05c2.82-.85,5.66-1.68,8.47-2.58a.2.2,0,1,0-.16-.37l-.47.23c-.1,0-.06.23.06.21l.51-.06,0-.4c-2.82.86-5.62,1.81-8.43,2.72-.16,0-.09.3.07.25Z"/><path class="cls-8" d="M173.67,71.5c1.11.82,2.21,1.63,3.33,2.43a13.07,13.07,0,0,0,3.07,2c.19.06.28-.18.18-.31a13.15,13.15,0,0,0-2.95-2.21c-1.13-.78-2.27-1.53-3.41-2.29-.23-.15-.44.22-.22.38Z"/><path class="cls-8" d="M167.31,70.19c-2.2-1.1-5.1-2.43-7.6-2.35-.19,0-.31.31-.1.4a25,25,0,0,0,3.56,1c1.35.38,2.68.81,4,1.25.18.06.3-.22.13-.3Z"/><path class="cls-8" d="M167.4,72.13a34,34,0,0,0-7.08,3.16.23.23,0,0,0,.23.39,34.24,34.24,0,0,1,6.92-3.28c.17-.06.1-.33-.07-.27Z"/><path class="cls-8" d="M142.05,103.93C148.22,98,154.22,92,160.32,86c.13-.12-.06-.31-.19-.19-6.08,6-12.26,11.84-18.29,17.88-.13.13.08.34.21.21Z"/><path class="cls-8" d="M128.74,96.88c4.56-.34,9.25-.58,13.76-1.37.1,0,.08-.19,0-.19a137.86,137.86,0,0,0-13.73,1.38c-.11,0-.11.19,0,.18Z"/><path class="cls-8" d="M140.08,105.82a22.55,22.55,0,0,0-2.31,2.17,10.07,10.07,0,0,0-1.79,2.28.08.08,0,0,0,.12.1c.72-.69,1.26-1.58,1.94-2.31a27,27,0,0,1,2.18-2.1c.11-.08,0-.22-.14-.14Z"/><path class="cls-8" d="M135.76,103.24a14.08,14.08,0,0,1,3.86-2.62l-.22-.13c0,.58,0,1.16,0,1.73a.13.13,0,0,0,.25,0,16.65,16.65,0,0,0,0-1.73.15.15,0,0,0-.22-.12,14.27,14.27,0,0,0-3.81,2.77c-.07.06,0,.16.1.1Z"/><path class="cls-8" d="M78.49,48.09C70,55.66,62.07,63.92,54,71.89c-3,2.94-7.36,6-9.43,9.61-.75,1.32-1.17,3.25.05,4.47s2.83.63,4.13-.2c3.84-2.48,7-7.51,10.16-10.85C66.68,66.7,74.92,59,83,51.08c.3-.29-.14-.71-.45-.45-5.92,5.15-11.49,10.74-17,16.29-2.89,2.9-5.73,5.82-8.54,8.79-1.3,1.37-2.59,2.74-3.87,4.13-.8.87-2.87,4.06-3.81,4.18q-5.13-1.65-2.86-3.51c.6-.63,1.22-1.24,1.85-1.84l4.17-4.12,8.33-8.23c6-5.95,12.17-11.78,17.89-18a.16.16,0,0,0-.22-.22Z"/><path class="cls-8" d="M87.62,40.79A250.16,250.16,0,0,1,106.46,24q5.58-4.48,11.43-8.64,2.94-2.08,5.94-4.08c1-.67,2-1.32,3-2q1.71-2.15,2.69.41,2.39,1.45-.13,2.74l-2.61,2.69q-2.3,2.36-4.62,4.66-4.65,4.62-9.43,9.11c-6.6,6.2-13.41,12.16-20.37,18-.34.27.14.74.47.47q13.66-11.4,26.48-23.77c4-3.88,9.19-7.91,12.34-12.53.73-1.06,1.69-2.42.58-3.65-1.58-1.77-4.41.42-5.77,1.27-4.83,3-9.5,6.35-14,9.79a221.79,221.79,0,0,0-25,22.14.14.14,0,0,0,.2.2Z"/><path class="cls-8" d="M87.86,52c8.22,7.91,16.86,15.65,25.68,22.9a99.55,99.55,0,0,0,11.83,8.58c1.62,1,4.61,3,6.51,1.36,4.58-4.06-7.89-11.63-9.92-13.36-9.17-7.77-18.25-15.65-27.51-23.3-.45-.38-1.11.25-.65.65,6.36,5.54,12.86,10.94,19.29,16.41l9.66,8.19c1.74,1.47,3.48,2.94,5.2,4.42l1.49,1.26q3,1.84-2,4.46c-.94,0-3.83-2.37-4.61-2.89-1.5-1-3-2.07-4.42-3.16-3.83-2.9-7.46-6-11.07-9.22-6.33-5.58-12.51-11.37-19-16.75-.3-.25-.74.16-.44.45Z"/><path class="cls-8" d="M48.84,6.52a2.36,2.36,0,0,0-3.78-.19c-2.47,2.57,1,6.12,2.65,7.81C57.94,24.77,68.35,35.37,79,45.59a.44.44,0,0,0,.61-.62C74,39,68.06,33.28,62.28,27.46l-8.34-8.4-4.18-4.19-2.09-2.08q-3-2.16.81-5.91a.25.25,0,0,0,.36-.36Z"/><path class="cls-8" d="M84.87,41.06c-5.2-6.49-12-12-18.11-17.66S54.42,11.87,48,6.38a.47.47,0,0,0-.54-.06l-.7.35c-.35.19-.09.68.26.61,2.07-.4,8.75,7.35,10.44,8.89q4.67,4.26,9.3,8.58c5.89,5.48,11.46,11.73,17.9,16.56.15.11.29-.12.19-.25Z"/><path class="cls-8" d="M82.53,65.75a60.64,60.64,0,0,0-21.44,6c-.13.06,0,.25.12.2a79.68,79.68,0,0,1,21.35-6c.08,0,.06-.16,0-.16Z"/><path class="cls-8" d="M69.07,68.66c-1.39,1.62-3.37,4.39-2.53,6.62.07.17,2,1.82.94.48,2,2.7,1.86,1.9.71,4.61S65.84,85.5,64.53,88c-.11.23.23.42.34.2,1.2-2.29,2.34-4.61,3.37-7,.49-1.11,1.45-2.58,1.34-3.81-.14-1.38-.35-.66-.87-1.69l-.06,0c-1-.43-1.56-1.41-1.6-2.92,0-1.27,1.51-3,2.22-3.94.09-.12-.11-.27-.2-.16Z"/><path class="cls-8" d="M73,68.39c-1.66,1.28-4,3.62-2.43,5.89-.63-.91,1.38,1.29,1.16.89,1.06,2,.83,2.77-.18,4.65-1.44,2.71-2.92,5.41-4.31,8.15a.22.22,0,0,0,.39.22c1.14-2.06,2.23-4.16,3.33-6.25.75-1.41,2-3,2.37-4.62.19-.9,0-.86-.11-1.72,0,0-.09-.07-.09-.1L72.34,75q-2.16-4.21.72-6.46c.06-.07,0-.2-.1-.14Z"/><path class="cls-8" d="M92.94,66.31c-1.85,2-3.33,4-2.2,6.7.78,1.86,2.19,2.89,1.83,5.25C92.13,81.15,91,84,90.32,86.88a.25.25,0,0,0,.48.14c.6-1.89,1.09-3.81,1.6-5.72.41-1.55,1.55-4,1.37-5.55-.06-.45-.27-.89-.37-1.32-.05-.23-.65-.39-.75-.6a2.23,2.23,0,0,1-.59-2.57,3.15,3.15,0,0,1,1.12-4.71c.14-.17-.09-.4-.24-.24Z"/><path class="cls-8" d="M96.31,66.36c-1,1.68-4.18,4.78-2.79,6.94.17.26.55.35.73.59a3.14,3.14,0,0,0,.82.46l1.06,3.82c-.08,2.39-2.25,5.85-3.06,8.12-.11.33.39.45.52.14.9-2.24,1.75-4.5,2.58-6.76.45-1.22,1.25-2.7.82-4-.25-.77-.87-.89-1.26-1.5-2.32-3.55-1-4.42.84-7.62a.15.15,0,0,0-.26-.15Z"/><path class="cls-8" d="M109.4,113.73c6.13.46,12.4-.28,18.47-1.16.49-.08.28-.82-.21-.75-6.09.9-12.14,1.05-18.26,1.5a.21.21,0,0,0,0,.41Z"/><path class="cls-8" d="M55.07,117.24c6.91-.42,13.8-1.51,20.66-2.36.5-.06.51-.85,0-.78-6.89.85-13.88,1.48-20.71,2.76a.19.19,0,0,0,0,.38Z"/><path class="cls-8" d="M89.68,115.21c3.8-.16,7.7-.26,11.47-.79.3,0,.23-.53-.07-.52-3.79,0-7.64.56-11.4,1-.21,0-.22.34,0,.33Z"/><path class="cls-8" d="M102.88,97.24l-.1.1a.34.34,0,0,0,0,.48l.1.1a.48.48,0,1,0,0-.68Z"/><path class="cls-8" d="M103,101.21a.47.47,0,0,0,.74.57c.5-.49-.43-1.18-.74-.57Z"/><path class="cls-8" d="M103.6,105.81h-.11a.3.3,0,0,0-.37.37v.11a.47.47,0,1,0,.47-.47Z"/><path class="cls-8" d="M103.19,111.27l-.06.11a.44.44,0,0,0,.59.6l.12-.06c.71-.36-.29-1.37-.65-.65Z"/><path class="cls-8" d="M81.53,97.8l-.3.23c-.46.37.27,1.1.64.65a3.55,3.55,0,0,0,.23-.31c.24-.34-.23-.8-.57-.57Z"/><path class="cls-8" d="M81.14,104.56l-.14.09a.33.33,0,0,0,0,.56l.14.09a.43.43,0,1,0,0-.74Z"/><path class="cls-8" d="M81.69,110.29l.1-.09a.34.34,0,0,0,0-.48l-.1-.09a.47.47,0,1,0,0,.66Z"/><path class="cls-8" d="M81.93,113.41l-.07-.15a.36.36,0,0,0-.62,0l-.07.15c-.44.83,1.2.83.76,0Z"/><path class="cls-8" d="M80.77,101.61l0,.08a.26.26,0,0,0,0,.29l0,.08a.45.45,0,1,0,0-.45Z"/><path class="cls-8" d="M55.33,119.33c.33,2,.92,4,1.41,6,.14.61,1.08.35.93-.26-.48-2-.88-4-1.51-6a.43.43,0,0,0-.83.23Z"/><path class="cls-8" d="M60.33,119.43a24.17,24.17,0,0,0,.6,3.12,8.12,8.12,0,0,0,.87,3c.13.18.48.2.53-.07a6.82,6.82,0,0,0-.4-2.74,26.88,26.88,0,0,0-.86-3.43c-.13-.38-.78-.36-.74.1Z"/><path class="cls-8" d="M124.41,115.17c.21,2.71.83,5.4,1.3,8.08.1.56,1,.32.86-.24-.47-2.64-.83-5.34-1.55-7.92-.09-.33-.64-.28-.61.08Z"/><path class="cls-8" d="M128.29,117.31a17,17,0,0,0,1.43,5.83c.21.44,1,.13.8-.34a22.11,22.11,0,0,1-1.32-5.49c0-.58-1-.58-.91,0Z"/><path class="cls-8" d="M127.92,115.18c0,.48.18.94.21,1.43a12,12,0,0,1,0,1.47.43.43,0,0,0,.84.11,4.22,4.22,0,0,0-.56-3.14c-.13-.18-.49-.15-.47.13Z"/><path class="cls-8" d="M133.74,114.52a11.18,11.18,0,0,0,.07,3,7.65,7.65,0,0,0,.43,2.66.33.33,0,0,0,.59-.07,8,8,0,0,0-.1-2.8,10.51,10.51,0,0,0-.46-2.79c-.09-.22-.47-.29-.53,0Z"/><path class="cls-8" d="M135.82,115a15.2,15.2,0,0,0,.27,2.61,23.65,23.65,0,0,0,.46,2.9.34.34,0,0,0,.67-.09,20.72,20.72,0,0,0-.31-2.6,17.48,17.48,0,0,0-.51-2.89.3.3,0,0,0-.58.07Z"/><path class="cls-8" d="M65.39,119.26a31.22,31.22,0,0,0,.64,3.58c.13.5.88.29.78-.21a33.54,33.54,0,0,0-.93-3.44c-.09-.25-.53-.23-.49.07Z"/><path class="cls-8" d="M67.82,119.2a12,12,0,0,0-.08,1.69,5.9,5.9,0,0,0,.13,1.73c.09.28.57.33.62,0a5.59,5.59,0,0,0-.07-1.73,10.83,10.83,0,0,0-.28-1.69c0-.15-.3-.17-.32,0Z"/><path class="cls-8" d="M41.32,126.77h-.19a0,0,0,1,0,0,0h.19a0,0,0,1,0,0,0Z"/><path class="cls-8" d="M42.36,126.56c19.25.08,38.63-1.83,57.89-2.35s38.64-.09,57.94-.72a.34.34,0,0,0,0-.67c-19.24-.88-38.7-.08-57.94.46s-38.87.4-57.89,2.82a.23.23,0,0,0,0,.46Z"/><path class="cls-8" d="M128.88,121q14.94-.12,29.9,0a.25.25,0,0,0,0-.5q-15-.18-29.9,0c-.32,0-.33.51,0,.5Z"/><path class="cls-8" d="M61,123.2c21.61-1.35,43.26-1.77,64.9-2.16a.25.25,0,0,0,0-.5c-21.64.39-43.29.81-64.9,2.16-.32,0-.32.52,0,.5Z"/><path class="cls-8" d="M43,124.23q7-.44,14-.81c.32,0,.33-.52,0-.5q-7,.38-14,.81c-.32,0-.32.52,0,.5Z"/></svg>