<svg id="illustration" xmlns="http://www.w3.org/2000/svg" viewBox="0 0 198.43 131.31"><defs><style>.cls-1{fill:#fcd5cf;}.cls-2{fill:#f8a174;}.cls-3{fill:#d8cb6e;}.cls-4{fill:#fff;}.cls-5{fill:#e1ae65;}.cls-6{opacity:0.51;}.cls-7{fill:#231f20;}.cls-8{fill:#a8b559;}.cls-9{fill:#162c55;}.cls-10{fill:#85c441;}.cls-11{fill:#f99e49;}.cls-12{fill:#010101;}</style></defs><path class="cls-1" d="M54.5,85.53S46.26,117.65,97.6,127c0,0,22.69,2,37.61-10.37s13.5-34.83,13.5-34.83.3,16.48-27.95,18.61-58.51-.23-66.26-14.86"/><path class="cls-2" d="M89,65.39S61.75,69.77,55.19,80.21C52.63,84.88,58,91.1,58,91.1s16.67,11.3,41.14,10.3,50.1-1.11,49.84-21.74c-4.29-6.71-6.44-12.89-59-14.23"/><path class="cls-3" d="M54.85,86.65l2.45.94s1.45.23,1.78-.84a6,6,0,0,1,1.09-2l2.32-.52,1.68-.51L65,84l.46-1.56.3-.66-1.09-.9-.46-.92,0-.64.88-1.11.84-.58,1-.27.11-.5,1-1.52,1.39.14.9.68,1-1.33.85-1.21,1.25-.84,1.37-.22.48-.57-.48-.88,1.39-.93,1-.34,1.66.2.58-1h0l1.08-.73.82-.82,1.59-.43,2.1-.29,2.58.29.59-1.26.82-.41,1,0-.14-1.62,1.55-.46,1-.28-.16.74L94,63.1l1,.26-.14-.65,1-1.18,1.11.14,1.52-.77,1.14-.38,1.32-.24,1.13.33,1,.29.4.63,1.26-.93,1.43-.09,1.36.78,0,1.09.41.87,1.4-.3,1.35-.55,1.24.54-.67.94,1.52-.07,1.62.09.87,1.37h1.12l1.67-.46h0l.34,1.09-1.14.11,1.46,1.41,1,.26h1.56l.57-.92L121,65.38l1.69.33L123,67.4l.82.34,1.08.47,1.08.05.08.64.94-.42.75.35-1.51,2.26,1.46.68,1.12.65h0L130,73l1.3.18.81-.7,1.11-.34.7.55L135,74.26l.49.78-1.07.76-.26,1.12.71,1.12.64.36,1.84.13,1.35,1.06.93-1.08,1.38-.32,1,.45,2.27,1.88,1.49,1.89.85,2.84v2.4l-.13,1.42s-6.26,14.07-45.69,12.33S56.48,90,54,85"/><path class="cls-4" d="M86.93,125.41a25.37,25.37,0,0,0,11.19,3.17c6.89.44,16.76-2.27,16.76-2.27v-.41s-11.43,1.26-14.65,1.19S86.93,125.41,86.93,125.41Z"/><path class="cls-5" d="M80.88,68.7a.05.05,0,1,0,0-.1.05.05,0,0,0,0,.1Z"/><path class="cls-5" d="M80.88,68.7a.05.05,0,1,0,0-.1.05.05,0,0,0,0,.1Z"/><path class="cls-5" d="M81,68.87A13.3,13.3,0,0,1,86,68c.22,0,.28-.35,0-.39a7.38,7.38,0,0,0-5.14,1.06c-.12.08,0,.31.1.25Z"/><path class="cls-5" d="M69.57,88.07a3.82,3.82,0,0,1-.92-2.6c.1-1.09.92-1.49,1.38-2.34a.43.43,0,0,0-.47-.62c-1.16.19-1.78,1.78-1.85,2.81a3.07,3.07,0,0,0,1.63,3c.13.07.33-.08.23-.22Z"/><path class="cls-5" d="M67.09,77.08c-.29.65.27,1.42.8,1.78a1.89,1.89,0,0,0,2.29,0,.26.26,0,0,0-.18-.44,2.63,2.63,0,0,1-1.73-.07c-.54-.31-.62-.84-1-1.29,0-.07-.18-.1-.22,0Z"/><path class="cls-5" d="M65.36,80.42a2.51,2.51,0,0,1,.21-1.36c.25-.38.69-.42.86-.87a.45.45,0,0,0-.2-.5c-.68-.44-1.47.42-1.71,1a1.42,1.42,0,0,0,.54,1.9.2.2,0,0,0,.3-.17Z"/><path class="cls-5" d="M78,87.88c.39,2,3.44,3.7,5.25,2.51a.19.19,0,0,0,0-.34,12.46,12.46,0,0,1-2.77-.54,7.72,7.72,0,0,1-2.14-1.8.17.17,0,0,0-.29.17Z"/><path class="cls-5" d="M103.9,77.45c.25,1.25.93,2.29,1.07,3.6a23.38,23.38,0,0,1-.28,3.45c0,.29.41.49.6.25,1.51-1.86,1.14-6.29-1-7.59a.26.26,0,0,0-.38.29Z"/><path class="cls-5" d="M100.36,71.45c.46-.26.81-.7,1.26-1a1.44,1.44,0,0,1,1.58,0,.49.49,0,0,0,.67-.67,1.76,1.76,0,0,0-2.22-.47,2.84,2.84,0,0,0-1.57,1.92.19.19,0,0,0,.28.21Z"/><path class="cls-5" d="M104.43,66.76c.13.54.5.95.68,1.47s.09,1.1.31,1.6a.51.51,0,0,0,.87,0,2.49,2.49,0,0,0-.17-2c-.26-.62-.63-1.26-1.33-1.39a.3.3,0,0,0-.36.36Z"/><path class="cls-5" d="M108.61,73.33c.84,0,1.16.73,1.13,1.49s-.55,1.39-.1,2a.63.63,0,0,0,.69.28c1.15-.32,1.14-2.43.76-3.33s-1.68-1.72-2.64-1a.33.33,0,0,0,.16.6Z"/><path class="cls-5" d="M116.64,81.65c1,.81,2.63.43,3.74-.07.81-.36,2.5-1.34,2.24-2.46s-1.52-.14-2,.23c-1.23.94-2.63.9-4,1.5-.36.16-.24.61,0,.8Z"/><path class="cls-5" d="M111.81,80.21a1.31,1.31,0,0,0,1.2.24c.17,0,0,0,0-.09a.31.31,0,0,1-.09.12,1.53,1.53,0,0,0-.56.54.6.6,0,0,0,.35.87,1.47,1.47,0,0,0,1.55-2c-.53-1-1.8-.57-2.49,0a.28.28,0,0,0,0,.39Z"/><path class="cls-5" d="M113.09,84.82a1.3,1.3,0,0,0,.65-.25c.26-.13.54-.22.8-.34l.44-.18-.27-.19a1.48,1.48,0,0,1,0,.21c-.1.28-.11.61-.2.9-.14.48-.52,1.2,0,1.57s1-.27,1.2-.73c.35-.86.83-2.61-.33-3.07a1.76,1.76,0,0,0-1.59.39c-.37.27-1,.79-1,1.27,0,.2.08.44.32.42Z"/><path class="cls-5" d="M122.18,71.1a1.83,1.83,0,0,1,1.06.49,2.29,2.29,0,0,1,.34,1.43c0,.41.07.93.56,1s.76-.36.82-.76a3.17,3.17,0,0,0-.86-2.71,1.38,1.38,0,0,0-2.1.05.31.31,0,0,0,.18.45Z"/><path class="cls-5" d="M122.06,67.22a3,3,0,0,1-2.14,1.4c-.78.12-.47,1.42.33,1.21a3,3,0,0,0,2.24-2.43.24.24,0,0,0-.43-.18Z"/><path class="cls-5" d="M112.49,64.83a2.66,2.66,0,0,0,.69,0,1.12,1.12,0,0,1,.66.37.51.51,0,0,0,.79-.61c-.38-.72-2.23-1.13-2.34,0a.28.28,0,0,0,.2.26Z"/><path class="cls-5" d="M115.85,65.89a1.62,1.62,0,0,0,1.71-.24.43.43,0,0,0-.19-.72,1.64,1.64,0,0,0-1.6.69.2.2,0,0,0,.08.27Z"/><path class="cls-5" d="M108.82,64.2a4.44,4.44,0,0,0,1.4-.17c.44-.1.89-.15,1.12-.57a.39.39,0,0,0-.14-.54c-.45-.21-.83,0-1.27.18a4.4,4.4,0,0,0-1.28.69.24.24,0,0,0,.17.41Z"/><path class="cls-5" d="M104.21,61.61a1.36,1.36,0,0,1,1.18-.23c.44.17.47.56.78.83a.45.45,0,0,0,.74-.19c.2-.72-.63-1.42-1.27-1.54a1.51,1.51,0,0,0-1.72.84c-.08.17.09.42.29.29Z"/><path class="cls-5" d="M125.46,80.52a4.43,4.43,0,0,0-.94,1,2.62,2.62,0,0,0-.78,1.06c0,.15.08.37.26.35a1.76,1.76,0,0,0,1.15-.85,2.49,2.49,0,0,0,.64-1.36.22.22,0,0,0-.33-.19Z"/><path class="cls-5" d="M121.13,91a1.39,1.39,0,0,0,1,1.15,1.79,1.79,0,0,0,1.64,0,.42.42,0,0,0-.21-.77,2.92,2.92,0,0,1-1.14-.12c-.33-.13-.59-.38-.93-.5a.25.25,0,0,0-.32.24Z"/><path class="cls-5" d="M118.32,93.46a1.68,1.68,0,0,0,1.5.32c.42-.1,1.16-.41,1.11-.94a.25.25,0,0,0-.23-.24c-.37,0-.68.32-1,.43a3.69,3.69,0,0,1-1.24.13.18.18,0,0,0-.12.3Z"/><path class="cls-5" d="M114.87,96.67a2.41,2.41,0,0,0,2.94,1,.43.43,0,0,0,.22-.39c0-.56-.61-.41-1-.37a2,2,0,0,1-1.65-.59c-.24-.25-.72.09-.5.39Z"/><path class="cls-5" d="M130,83.86c-1.07,1.19-.74,4.42,1.4,4a.51.51,0,0,0,0-1c-.62-.17-1-.41-1.06-1.09s.16-1.17.08-1.76c0-.19-.26-.35-.42-.17Z"/><path class="cls-5" d="M137.25,80.06c.29.41.77.61,1,1.06s.32,1,.57,1.52a.64.64,0,0,0,1.16-.15,2.26,2.26,0,0,0-.84-2.15c-.47-.4-1.21-.89-1.85-.59a.24.24,0,0,0-.08.31Z"/><path class="cls-5" d="M140.24,79.75a1.12,1.12,0,0,1,.88,0,3.29,3.29,0,0,1,.73.76c.6.74,1.75-.35,1.07-1.06a2.53,2.53,0,0,0-1.75-.9,1.33,1.33,0,0,0-1.35.77c-.09.25.19.47.42.41Z"/><path class="cls-5" d="M131.76,73.61c.49.19,1.22.44.89,1.13s.67,1.19.95.55a1.67,1.67,0,0,0-.29-1.92,1.2,1.2,0,0,0-1.66-.14.23.23,0,0,0,.11.38Z"/><path class="cls-5" d="M123.47,69.51c.21.06.46,0,.67.06s.27.32.36.51l-.06-.48,0,.08a.58.58,0,0,0,.56.73h.08a.65.65,0,0,0,.61-.8,1.46,1.46,0,0,0-1.16-1c-.47-.09-1.14.06-1.22.62a.28.28,0,0,0,.19.33Z"/><path class="cls-5" d="M118.65,70.67a2.53,2.53,0,0,0-.41,1.49c0,.4.09,1,.58,1.12a.31.31,0,0,0,.31-.12c.22-.3,0-.64,0-1a3.72,3.72,0,0,1,0-1.33.26.26,0,0,0-.47-.2Z"/><path class="cls-5" d="M114.85,72.57c.26.07.49-.08.76-.08a.63.63,0,0,1,.63.44c.39.78,1.67,0,1.16-.68a1.74,1.74,0,0,0-1.92-.76,1.12,1.12,0,0,0-.76.6c-.07.14-.07.43.13.48Z"/><path class="cls-5" d="M125.6,88.5c.18-.11.48-.37.68-.18s.1.55.13.72a.47.47,0,0,0,.68.28c.79-.48.4-1.6-.31-1.94s-1.67,0-1.64.86a.31.31,0,0,0,.46.26Z"/><path class="cls-5" d="M117.93,87.62c.36.18.72.39,1.07.6a4.44,4.44,0,0,1,.9.83c.55.61,1.53-.17,1.12-.86a2.9,2.9,0,0,0-3-1.4.46.46,0,0,0-.11.83Z"/><path class="cls-5" d="M118.4,85.5c.36-.07.69-.25,1-.34s.72-.24,1.08-.35c1-.27.42-1.69-.54-1.28a4,4,0,0,0-1.92,1.53.3.3,0,0,0,.34.44Z"/><path class="cls-5" d="M108.14,95.05c-.2-.32.73-1.16,1-1.35.46-.4.8-.23,1.34-.23a.5.5,0,0,0,.42-.74c-.52-1.17-2.18-.33-2.74.33s-1.26,1.85-.18,2.26a.19.19,0,0,0,.21-.27Z"/><path class="cls-5" d="M92.27,97.61c1,.11,1.92-.12,2.9,0s1.64.82,2.53.76a.44.44,0,0,0,.38-.65c-.45-1-1.93-1.32-2.91-1.41a3.51,3.51,0,0,0-3,.94.19.19,0,0,0,.14.32Z"/><path class="cls-5" d="M93.65,99.22a9.37,9.37,0,0,1,1.08-.2,2.5,2.5,0,0,1,1.11.44c.35.18.83-.19.58-.58-.55-.84-2.57-1-3,.11,0,.1.06.25.18.23Z"/><path class="cls-5" d="M88.52,92.09l2.3-.87a5.71,5.71,0,0,0,1.78-.84.21.21,0,0,0-.15-.35,6,6,0,0,0-1.86.65c-.75.32-1.5.66-2.25,1-.24.1-.07.51.18.42Z"/><path class="cls-5" d="M89.22,86.68a5.51,5.51,0,0,1,5.11-.86A.46.46,0,0,0,95,85.2c-.45-1-1.88-.79-2.75-.63A6.41,6.41,0,0,0,89,86.34c-.18.16.06.49.26.34Z"/><path class="cls-5" d="M83.2,86.07c1.08.35,2.42.15,2.74,1.54.09.41,0,1,.41,1.23a.68.68,0,0,0,.88-.4,2.56,2.56,0,0,0-.92-2.69,2.91,2.91,0,0,0-3.18-.2.29.29,0,0,0,.07.52Z"/><path class="cls-5" d="M84.61,77c.78-.72,1.69-1.59,2.84-1.41.45.07,1.16.45,1.21-.3a.48.48,0,0,0-.25-.43c-1.74-.81-3.14.48-4.17,1.77-.2.26.12.61.37.37Z"/><path class="cls-5" d="M79.09,75.23a7.65,7.65,0,0,1,2.13-1.47,20.15,20.15,0,0,0,2.28-.69.38.38,0,0,0-.08-.68,3.51,3.51,0,0,0-2.64.61,5.56,5.56,0,0,0-2,2,.22.22,0,0,0,.34.26Z"/><path class="cls-5" d="M97.26,69.55a1.73,1.73,0,0,0,1.5.7c.53,0,1.23-.06,1.41-.64a.29.29,0,0,0-.13-.33c-.38-.22-.79,0-1.2,0s-.89-.13-1.34-.1a.27.27,0,0,0-.24.41Z"/><path class="cls-5" d="M126,84.66a2,2,0,0,1,1.19-1c.54-.15,1.07,0,1.62-.08a.26.26,0,0,0,.15-.38c-.45-.75-1.44-.65-2.15-.32a2.54,2.54,0,0,0-1.31,1.59.28.28,0,0,0,.5.21Z"/><path class="cls-4" d="M87.11,69.71A3.76,3.76,0,0,0,87,72.65c.07.13.24,0,.25-.07a25.74,25.74,0,0,1,.17-2.77.18.18,0,0,0-.34-.1Z"/><path class="cls-4" d="M90.93,67.59a2,2,0,0,0-.13-.68,4.74,4.74,0,0,0-.18-.72c-.11-.24-.43-.12-.51.07-.19.46.12,1.36.67,1.45a.13.13,0,0,0,.15-.12Z"/><path class="cls-4" d="M101.11,63.43c.47-.19.78,0,1.2.2.2.09.35-.18.26-.34a1.1,1.1,0,0,0-1.59-.17c-.14.11-.06.4.13.31Z"/><path class="cls-4" d="M99.38,62.5a1.71,1.71,0,0,0-.15,2.26.19.19,0,0,0,.31-.08,5.58,5.58,0,0,0-.08-1c0-.37.14-.71.14-1.07a.14.14,0,0,0-.22-.12Z"/><path class="cls-4" d="M105.61,65.26a2.1,2.1,0,0,0,2-.05.43.43,0,0,0,.22-.38c0-1-1.82,0-2.24.14a.16.16,0,0,0,0,.29Z"/><path class="cls-4" d="M107.44,66.72a4.89,4.89,0,0,1,1.56.33c.42.15.85.49,1.31.46.21,0,.44-.22.35-.45-.21-.56-.87-.79-1.41-.93a5,5,0,0,0-1.89,0c-.37.06-.26.61.08.63Z"/><path class="cls-4" d="M110.19,65.45a3.91,3.91,0,0,1,1.06.63c.25.23.44.57.78.65a.24.24,0,0,0,.28-.16c.13-.43-.27-.85-.59-1.09a2.26,2.26,0,0,0-1.41-.49c-.22,0-.36.35-.12.46Z"/><path class="cls-4" d="M105.66,74.87a5.84,5.84,0,0,1,1.61-1.27c.35-.19,1-.61.63-1.07s-1.2.09-1.56.37a4,4,0,0,0-1.2,1.57c-.14.31.25.7.52.4Z"/><path class="cls-4" d="M95.26,74.11a5.5,5.5,0,0,1,1.19-.66c.45-.11.91.1,1.35-.06A.35.35,0,0,0,98,73c-.51-1.33-3.21-.36-3.07,1a.2.2,0,0,0,.3.17Z"/><path class="cls-4" d="M132.25,73.53a1.19,1.19,0,0,1,1,.46c.2.36,0,.68.06,1a.34.34,0,0,0,.49.21c.65-.31.42-1.39.09-1.85A1.4,1.4,0,0,0,132.1,73a.31.31,0,0,0,.15.58Z"/><path class="cls-4" d="M133.8,82.51l-.05-.08a.19.19,0,0,0-.29,0A2.8,2.8,0,0,0,132.6,85c.17.69,1,1.5,1.71,1.18a.17.17,0,0,0,.07-.28c-.53-.45-1.19-.53-1.23-1.39a2.48,2.48,0,0,1,.31-1.16s.26-.62.27-.62a.11.11,0,0,0,.07-.17Z"/><path class="cls-4" d="M135.64,89a1.81,1.81,0,0,1,1.15.9c.2.51-.1,1,.1,1.51a.31.31,0,0,0,.25.14c1,0,.9-1.58.55-2.18a1.91,1.91,0,0,0-.95-.8,1.28,1.28,0,0,0-1.16,0c-.19.09-.11.36.06.41Z"/><path class="cls-4" d="M127.7,96.23a6.61,6.61,0,0,1,2.21-.27,19.07,19.07,0,0,1,2,.68.36.36,0,0,0,.4-.52c-.81-1.46-3.77-1.41-4.75-.19a.18.18,0,0,0,.17.3Z"/><path class="cls-4" d="M128,98c.34.11.71.07,1.05.2s.57.45.92.57a.29.29,0,0,0,.36-.28,1.54,1.54,0,0,0-2.4-.76A.16.16,0,0,0,128,98Z"/><path class="cls-4" d="M81.86,95.25a1,1,0,0,1,1.19-.34c.46.26.25.82.61,1.14a.5.5,0,0,0,.6.08c.92-.63-.06-2-.8-2.31a1.69,1.69,0,0,0-2.28,1,.41.41,0,0,0,.68.39Z"/><path class="cls-4" d="M74.59,90.67a3.62,3.62,0,0,1,2.09.42c.75.42.87,1,1.15,1.71a.44.44,0,0,0,.63.26c1.26-.68.05-2.29-.71-2.82a3,3,0,0,0-3.31-.12c-.23.14-.16.58.15.55Z"/><path class="cls-4" d="M68.85,93.47a5.44,5.44,0,0,1,3.81.21c.5.23,1.07,1.14,1.69.77a.67.67,0,0,0,.3-.73C74.36,92.61,73,92.17,72,92a4.81,4.81,0,0,0-3.42.86c-.3.19-.11.72.26.6Z"/><path class="cls-4" d="M59.71,88.79a3.59,3.59,0,0,1,3-.94c.77.09.9-1.14.18-1.34a3,3,0,0,0-3.64,2,.28.28,0,0,0,.47.28Z"/><path class="cls-4" d="M65.29,78.67a2.68,2.68,0,0,0-.71,2.06c.1.52.53,1.16,1.13,1a.27.27,0,0,0,.16-.4c-.18-.33-.5-.53-.59-.92a3.17,3.17,0,0,1,.31-1.59c.07-.19-.2-.27-.3-.13Z"/><path class="cls-4" d="M74.19,81.68A4.79,4.79,0,0,0,78,79.11c.75-1.52-.84-2.62-2.2-2a.42.42,0,0,0,.1.77c.43.06,1.3-.09,1.25.59,0,.42-.66.94-1,1.21a24.08,24.08,0,0,1-2.11,1.53c-.17.12-.13.43.11.42Z"/><path class="cls-4" d="M82.72,80.81c.28-.57.46-1.16.73-1.73a2.54,2.54,0,0,0,.48-1.41.27.27,0,0,0-.32-.19c-.55.22-.72.77-.91,1.28a4.68,4.68,0,0,0-.35,1.95c0,.18.27.29.37.1Z"/><path class="cls-4" d="M83.06,83.79a5.43,5.43,0,0,0,3,.55c.75-.07,1.84-.19,2.1-1A.27.27,0,0,0,88,83c-.62-.34-1.33,0-2,.14a13,13,0,0,1-2.86.1.28.28,0,0,0-.14.52Z"/><path class="cls-4" d="M79.37,73c-.09-.65.55-1.52.84-2.08a2.58,2.58,0,0,0,.49-1.45c0-.17-.18-.36-.37-.29a2.66,2.66,0,0,0-1.26,1.66,3.24,3.24,0,0,0-.32,2.33.32.32,0,0,0,.62-.17Z"/><path class="cls-4" d="M75.22,72.38c.42-.14.68-.57,1-.82a8.2,8.2,0,0,0,1.18-.71.25.25,0,0,0-.11-.41,2,2,0,0,0-1.48.57c-.37.28-.88.68-.89,1.18a.2.2,0,0,0,.26.19Z"/><path class="cls-4" d="M114.05,74.12a10.83,10.83,0,0,0,1.25-.2c.45,0,.83,0,1.19-.29a.52.52,0,0,0,0-.72c-.66-.65-2.31,0-2.7.75a.31.31,0,0,0,.26.46Z"/><path class="cls-4" d="M109.31,70.07a4,4,0,0,1,1.55,0,2.61,2.61,0,0,1,.67.27,2.25,2.25,0,0,0,.73.39c.37,0,.76-.22.64-.64-.41-1.33-3-1.26-3.68-.21a.11.11,0,0,0,.09.17Z"/><path class="cls-4" d="M121,76c.66,1.53,3.91,2,5.16,1a.37.37,0,0,0-.18-.69c-.91-.11-1.79.15-2.71,0a10.36,10.36,0,0,0-2.17-.51c-.1,0-.14.09-.1.18Z"/><path class="cls-4" d="M126.33,72.31c.13.94,2,1.75,2.7,1a.31.31,0,0,0,0-.42,3.27,3.27,0,0,0-1.15-.39,11.87,11.87,0,0,0-1.21-.55.28.28,0,0,0-.34.34Z"/><path class="cls-4" d="M106.89,80.47a3.38,3.38,0,0,0,3.77,0c.15-.13,0-.35-.15-.36-.59,0-1.16.12-1.75.13S107.6,80.06,107,80c-.26,0-.3.33-.12.46Z"/><path class="cls-4" d="M106.73,83.5a3.19,3.19,0,0,0,1.33,2c.55.4,1.54.9,2.2.51a.26.26,0,0,0,0-.43c-.51-.34-1.22-.32-1.76-.65a3.93,3.93,0,0,1-1.37-1.57c-.12-.23-.45-.06-.4.17Z"/><path class="cls-4" d="M99.9,82.23a3.58,3.58,0,0,1,1.78-.07c.48.14.9.63,1.41.5a.31.31,0,0,0,.24-.23c.22-.83-1-1.26-1.61-1.34a2.24,2.24,0,0,0-2.13.75c-.15.2.1.43.31.39Z"/><path class="cls-4" d="M94.24,81.41a11,11,0,0,0,1.1-.51c.21-.1.42-.22.64-.31s.16-.15.23.08,0,.52.16.77a.59.59,0,0,0,.68.28.37.37,0,0,0,.25-.45c-.09-.32-.19-.67-.31-1a.83.83,0,0,0-.65-.6c-.41-.06-.76.27-1.08.47A13.62,13.62,0,0,0,94,81a.26.26,0,0,0,.24.43Z"/><path class="cls-4" d="M79.31,86.19a3.39,3.39,0,0,1,1.87-.45.4.4,0,0,0,.11-.78,2.16,2.16,0,0,0-2.38.72c-.22.26.07.73.4.51Z"/><path class="cls-4" d="M80.21,87.69c1,1.06,3.39,2.12,4.62.91a.28.28,0,0,0-.12-.46A11,11,0,0,0,82.8,88a6.52,6.52,0,0,1-2.28-.75.26.26,0,0,0-.31.4Z"/><path class="cls-4" d="M73.6,86.85a3.28,3.28,0,0,1,0-1.73c.2-.56.77-.77,1-1.28a.6.6,0,0,0-.51-.89c-1-.11-1.64,1.14-1.76,1.94a2,2,0,0,0,1,2.15.17.17,0,0,0,.25-.19Z"/><path class="cls-4" d="M64.93,92.75a1.38,1.38,0,0,1,.93-.59c.32,0,.58.09.88,0a.3.3,0,0,0,.1-.41c-.22-.49-1-.38-1.39-.22a1.65,1.65,0,0,0-1,1.06c-.1.31.34.45.51.21Z"/><path class="cls-4" d="M92.62,92.05a1.42,1.42,0,0,1,.61,1.18c0,.46-.43.69-.51,1.11a.32.32,0,0,0,.3.39c.71,0,1-1,1-1.57a1.76,1.76,0,0,0-1.14-1.55c-.24-.1-.45.28-.25.44Z"/><path class="cls-4" d="M97,90.22c-.24.74-.46,1.48-.65,2.24a4.93,4.93,0,0,0-.29,1.82c0,.21.32.19.42,0A5.28,5.28,0,0,0,97,92.48c.15-.71.26-1.43.36-2.16a.2.2,0,0,0-.38-.1Z"/><path class="cls-4" d="M95.35,87.81a2.88,2.88,0,0,1,1-.87,3.58,3.58,0,0,0,1-.55A.27.27,0,0,0,97.2,86c-.94-.33-2,.84-2.4,1.54-.21.36.31.64.55.32Z"/><path class="cls-4" d="M102.67,100.78c1.07.92,4.19.88,4.89-.53a.26.26,0,0,0-.22-.38,9.2,9.2,0,0,0-2,.43c-.82.12-1.61-.12-2.42,0-.24,0-.44.33-.22.52Z"/><path class="cls-4" d="M116.39,67a1.89,1.89,0,0,0,.75,1.65,1.65,1.65,0,0,0,1.94.32.53.53,0,0,0,0-.91c-.38-.2-.8-.22-1.2-.39a2.65,2.65,0,0,1-1-.8.26.26,0,0,0-.48.13Z"/><path class="cls-4" d="M115.25,66.31a9.72,9.72,0,0,1,1.32-.3,3.13,3.13,0,0,0,1.18-.27.24.24,0,0,0,0-.41c-.76-.48-2,.11-2.68.53-.23.15-.09.53.18.45Z"/><path class="cls-4" d="M111.77,64.78c.18.28.55.31.83.44s.54.57.92.66c.17,0,.43,0,.45-.25.09-.66-.59-1.08-1.15-1.26-.18-.06-1.36-.1-1,.41Z"/><path class="cls-4" d="M104.24,62.28c.49,0,1-.27,1.42,0s.41.78.7,1.13a.2.2,0,0,0,.25,0c.64-.56-.07-1.56-.63-1.86s-1.71-.29-1.89.49a.15.15,0,0,0,.15.19Z"/><path class="cls-4" d="M120.1,71.59c.77-.43,1.36-1.16,2.26-1.36.71-.17,1.29.38,1.93.23a.3.3,0,0,0,.22-.29c.13-1-1.42-1.12-2.09-1a4,4,0,0,0-2.67,2.09.25.25,0,0,0,.35.34Z"/><path class="cls-4" d="M124.06,71.91a2.71,2.71,0,0,1,0,1.57,8.92,8.92,0,0,0-.46,1.28.37.37,0,0,0,.47.35,1.77,1.77,0,0,0,.89-1.53,3,3,0,0,0-.49-1.84c-.12-.23-.52-.07-.42.17Z"/><path class="cls-4" d="M115.39,77c.44-.3.81-.69,1.27-1a1.17,1.17,0,0,1,.66-.27c.18,0,.35.09.54.08a.28.28,0,0,0,.26-.19c.27-.82-.91-1-1.42-.77A3,3,0,0,0,115,76.65c-.06.22.2.46.41.31Z"/><path class="cls-4" d="M116.38,78.13a2.5,2.5,0,0,0,1.29-.26.2.2,0,0,0,0-.36,2.53,2.53,0,0,0-1.3.16.24.24,0,0,0,.06.46Z"/><path class="cls-4" d="M110.31,84a3.16,3.16,0,0,0,2.25-1.08.21.21,0,0,0-.23-.31,4.28,4.28,0,0,0-1,.49,8.33,8.33,0,0,1-1.18.53.19.19,0,0,0,.11.37Z"/><path class="cls-4" d="M105.83,88.52a12.86,12.86,0,0,1,1.65.75c.53.32.91.81,1.44,1.1a.24.24,0,0,0,.36-.27c-.27-1.24-2.15-2.17-3.33-2-.21,0-.37.34-.12.45Z"/><path class="cls-4" d="M112.89,90.56c1.13-.49,2.52-1.69,2.5-3,0-.13-.17-.21-.25-.11-.39.44-.65,1-1,1.43a6.64,6.64,0,0,1-1.48,1.32.23.23,0,0,0,.24.4Z"/><path class="cls-4" d="M102.64,98.44c1,1,3.07,1.08,3.65-.42a.22.22,0,0,0-.33-.24,4.35,4.35,0,0,1-1.27.69,2.37,2.37,0,0,1-1.79-.36.21.21,0,0,0-.26.33Z"/><path class="cls-4" d="M108.24,94.83a3.57,3.57,0,0,1,1.77-.9,3,3,0,0,1,2.12.84.26.26,0,0,0,.41-.31c-.85-1.69-3.93-1.74-4.6.13a.21.21,0,0,0,.3.24Z"/><path class="cls-4" d="M114.89,92.66c.32.69,1.41.87,2.09,1a5.33,5.33,0,0,0,2.66,0,.27.27,0,0,0,0-.51c-.85-.2-1.72-.22-2.58-.41-.65-.15-1.41-.61-2.06-.41a.18.18,0,0,0-.11.25Z"/><path class="cls-4" d="M124.82,89c.52.19,1-.48,1.61-.25s.26.68-.1.88a7.08,7.08,0,0,0-.77.41.16.16,0,0,0,0,.28c1,.29,2.4-.82,1.66-1.86a1.4,1.4,0,0,0-1.32-.51c-.44.07-1.2.42-1.19.95a.11.11,0,0,0,.07.1Z"/><path class="cls-4" d="M121.32,91.57c0,1.14,2.06,1.48,2.65.64.14-.2-.09-.42-.29-.38-.42.08-.72.31-1.18.21s-.61-.41-1-.6a.15.15,0,0,0-.23.13Z"/><path class="cls-4" d="M116.19,87.84c.33.16.77-.06,1.14,0a3.14,3.14,0,0,1,1.17.65.25.25,0,0,0,.37-.28,1.66,1.66,0,0,0-1.37-1c-.4-.07-1.27-.07-1.38.44a.15.15,0,0,0,.07.16Z"/><path class="cls-4" d="M101.35,96.08a6.19,6.19,0,0,0,4-2.17c.09-.13-.1-.31-.22-.22a14.55,14.55,0,0,1-3.82,2.15.12.12,0,0,0,.06.24Z"/><g class="cls-6"><path class="cls-7" d="M111.38,69a.05.05,0,1,0,0-.1.05.05,0,0,0,0,.1Z"/></g><g class="cls-6"><path class="cls-7" d="M106.8,76.31c.2-.16.25-.42.4-.62A1.91,1.91,0,0,1,108,75l-.33-.19a3.35,3.35,0,0,0,.33,1.22c.09.13.34.14.37,0a3.47,3.47,0,0,0-.19-1.31.26.26,0,0,0-.32-.19c-.56.23-1.62,1-1.33,1.74a.15.15,0,0,0,.24.06Z"/></g><g class="cls-6"><path class="cls-7" d="M107.93,81.91c.21.22.39.2.69.22l-.34-.35c0,.24-.08.45-.07.68a.23.23,0,0,0,.35.2.93.93,0,0,0,.41-.88.35.35,0,0,0-.35-.35c-.3,0-.47,0-.69.2a.19.19,0,0,0,0,.28Z"/></g><g class="cls-6"><path class="cls-7" d="M100.19,77.77a2.5,2.5,0,0,1,2.11,1.11c.4.62.48,1.46,1,2,.27.29.65,0,.69-.29a4,4,0,0,0-1.37-2.83A2.3,2.3,0,0,0,100,77.2a.31.31,0,0,0,.16.57Z"/></g><g class="cls-6"><path class="cls-7" d="M103.63,80.88c0-.81-1.33-1.21-2-1.3a2.51,2.51,0,0,0-2.49.79.23.23,0,0,0,.2.35,13.94,13.94,0,0,1,2.34-.2,3.87,3.87,0,0,1,1.11.34c.31.14.38.22.7.17a.16.16,0,0,0,.12-.15Z"/></g><g class="cls-6"><path class="cls-7" d="M97.71,74.11c-.83-.61-2,.31-2.25,1.14s.32,2,1.27,1.92a.22.22,0,0,0,.13-.32c-.3-.45-.8-.77-.67-1.4s.87-.73,1.45-.83c.26,0,.24-.38.07-.51Z"/></g><g class="cls-6"><path class="cls-7" d="M86,77.33,86,77s-.07,0-.07,0a1.71,1.71,0,0,0,0,.31c0,.09.14.09.13,0Z"/></g><g class="cls-6"><path class="cls-7" d="M87.12,76.64c-1.87-.91-3.59,2.53-2.82,4a.23.23,0,0,0,.36,0c.49-.59.4-1.47.71-2.15A3,3,0,0,1,87.12,77a.21.21,0,0,0,0-.36Z"/></g><g class="cls-6"><path class="cls-7" d="M80.59,71.31A15.68,15.68,0,0,1,82.9,69.9c.79-.34,1.68-.32,2.44-.68a.29.29,0,0,0,0-.49c-1.71-.83-4.36.77-5,2.38-.06.14.14.28.26.2Z"/></g><g class="cls-6"><path class="cls-7" d="M80.43,76.09a2.41,2.41,0,0,1,1.7-1.49c.64-.15,1.43,0,1.86-.58a.35.35,0,0,0,0-.4c-.63-.76-2.39-.21-3.06.25A1.81,1.81,0,0,0,80,76.14c.08.19.33.1.39,0Z"/></g><g class="cls-6"><path class="cls-7" d="M75.63,87.06c.08-.29-.07-.59,0-.89a1.11,1.11,0,0,1,.47-1c.27-.2.62-.39.56-.78a.67.67,0,0,0-.86-.46,1.93,1.93,0,0,0-1.36,1.75c0,.55.42,1.61,1.12,1.46a.16.16,0,0,0,.12-.13Z"/></g><g class="cls-6"><path class="cls-7" d="M67.35,79c-.93-.34-1.59.66-1.4,1.51s1.35,1.73,2.19,1.13a.38.38,0,0,0,0-.63c-.32-.24-.79-.26-1.07-.58a.58.58,0,0,1,.28-.91.27.27,0,0,0,0-.52Z"/></g><g class="cls-6"><path class="cls-7" d="M64.69,85A2.31,2.31,0,0,0,67,83.9c.34-.55-.5-1-.85-.5a3,3,0,0,1-1.5,1.18c-.18.08-.14.43.06.45Z"/></g><g class="cls-6"><path class="cls-7" d="M88,92.12l-.13,0a.07.07,0,0,0-.06.13l.12.08c.1.06.2-.12.07-.17Z"/></g><g class="cls-6"><path class="cls-7" d="M87.31,93.87a1.66,1.66,0,0,1-.46,1.45c-.25.23-.69.3-.78.65a.19.19,0,0,0,.05.19c.42.4,1.1-.18,1.37-.52a2.05,2.05,0,0,0,.4-1.85c-.07-.32-.62-.26-.58.08Z"/></g><g class="cls-6"><path class="cls-7" d="M79.79,91.45c1.07,1,3.67,1.85,5,1a.23.23,0,0,0-.06-.41,12.71,12.71,0,0,0-2.4-.31c-.81-.15-1.58-.44-2.38-.61a.19.19,0,0,0-.18.32Z"/></g><g class="cls-6"><path class="cls-7" d="M94.42,90.43a8.17,8.17,0,0,0,.7-.5,3.37,3.37,0,0,1,.88-.35l-.5-.38a3.63,3.63,0,0,1-.12,1.35,1.9,1.9,0,0,0-.16,1,.15.15,0,0,0,.2.11c.83-.32.84-1.75.88-2.48a.41.41,0,0,0-.51-.39c-.68.1-1.64.7-1.64,1.47a.18.18,0,0,0,.27.15Z"/></g><g class="cls-6"><path class="cls-7" d="M100,90.85c-.15.52-.24,1.07-.41,1.59a2.53,2.53,0,0,0-.31,1.33.2.2,0,0,0,.3.12c.48-.26.58-.87.69-1.36a5,5,0,0,0,.12-1.68c0-.21-.34-.18-.39,0Z"/></g><g class="cls-6"><path class="cls-7" d="M92.71,100.57a11.72,11.72,0,0,1,1.45-.18c.51,0,1,.34,1.49.28.28,0,.58-.35.37-.65-.68-.93-2.79-.66-3.46.19-.1.13,0,.38.15.36Z"/></g><g class="cls-6"><path class="cls-7" d="M91.06,98.09a6,6,0,0,1,6.41-.15c.18.1.39-.14.22-.29a5.07,5.07,0,0,0-6.88.12.21.21,0,0,0,.25.32Z"/></g><g class="cls-6"><path class="cls-7" d="M111.05,99.91c.82,0,1.62-.19,2.44-.26.61-.05,1.36.06,1.72-.54a.39.39,0,0,0,0-.38c-.44-.63-1.22-.42-1.89-.29a6.2,6.2,0,0,0-2.4,1c-.18.14-.14.49.13.47Z"/></g><g class="cls-6"><path class="cls-7" d="M111.53,96.92c.2-.3.41-.6.64-.89l-.45.18a4.94,4.94,0,0,1,.84.48,1,1,0,0,0,.69.27.31.31,0,0,0,.3-.31c0-.71-1-1-1.62-1.2a.4.4,0,0,0-.48.28c-.09.35-.19.69-.31,1a.21.21,0,0,0,.39.16Z"/></g><path class="cls-3" d="M130.91,98.81a7.21,7.21,0,0,1,1.72,2,8.51,8.51,0,0,1,.53,3.35,2.57,2.57,0,0,0,1.84,2.46.26.26,0,0,0,.29-.37c-.36-.81-.2-.11-.63-.87a4.83,4.83,0,0,1-.6-2,8.12,8.12,0,0,0-.35-2.24,5.22,5.22,0,0,0-2.42-2.86c-.3-.16-.66.24-.38.49Z"/><path class="cls-3" d="M134.73,106.13a7.76,7.76,0,0,0-1.27-6.34.42.42,0,0,0-.69.41,25.9,25.9,0,0,1,1.17,2.88c.24,1,.23,2,.41,3a.2.2,0,0,0,.38,0Z"/><path class="cls-3" d="M134.56,97.48a6.11,6.11,0,0,0,2.85,4.71c1.45.88,3.85,1.19,5.07-.23a.24.24,0,0,0-.24-.4c-1.73.33-3.17.69-4.79-.37-1.44-1-1.9-2.34-2.68-3.77a.11.11,0,0,0-.21.06Z"/><path class="cls-3" d="M134.22,97.71a3,3,0,0,0,.64,1.86c.3.41.86,1.09,1.42,1.06a.23.23,0,0,0,.2-.34,1.38,1.38,0,0,0-.44-.39,2.88,2.88,0,0,1-.68-.67,5.43,5.43,0,0,1-.69-1.58.23.23,0,0,0-.45.06Z"/><path class="cls-3" d="M135.11,98.75a5.24,5.24,0,0,0,.93,1.82c.37.46.89,1.06,1.51,1.11a.14.14,0,0,0,.12-.2c-.25-.49-.81-.82-1.18-1.23a8.14,8.14,0,0,1-1.12-1.61.14.14,0,0,0-.26.11Z"/><path class="cls-3" d="M138.2,102a2.67,2.67,0,0,0,2.22.76c.75-.09,1.71-.49,1.9-1.3,0-.1-.07-.24-.19-.19a13.87,13.87,0,0,1-1.53.8,3.12,3.12,0,0,1-2.24-.28c-.13-.07-.28.1-.16.21Z"/><path class="cls-4" d="M135.89,100.13c.15,1.75,2.87,3.34,4.44,2.49.19-.11.17-.47-.07-.5a6.92,6.92,0,0,1-2.54-.42,6.31,6.31,0,0,1-1.65-1.65.1.1,0,0,0-.18.08Z"/><path class="cls-4" d="M133.31,100.6a9.29,9.29,0,0,1,.83,2.55c.1.74,0,1.47.05,2.19,0,.2.34.22.43.06.79-1.48,0-3.82-1.06-5-.13-.15-.33,0-.25.2Z"/><path class="cls-8" d="M89,79.39a5.93,5.93,0,0,0,.44,1.15c.15.35.27.74.64.91a.4.4,0,0,0,.58-.24,1.34,1.34,0,0,0-.22-1A6,6,0,0,0,89.83,79a.47.47,0,0,0-.85.35Z"/><path class="cls-8" d="M90.29,80.76a19.72,19.72,0,0,0,1.6-4.37c.43-1.28,1.39-2.68,1.08-4a.34.34,0,0,0-.57-.15c-1.06.87-1.14,2.63-1.49,3.9A15,15,0,0,0,90,80.68a.16.16,0,0,0,.29.08Z"/><path class="cls-8" d="M91.17,78.9c1-.94,1.5-2.61,2-3.89.55-1.5,1.41-3.21,1.39-4.82a.61.61,0,0,0-1.12-.3c-1,1.27-1.32,3.19-1.77,4.7-.4,1.34-1,2.84-.73,4.24a.15.15,0,0,0,.25.07Z"/><path class="cls-8" d="M94,72c1.09-.93,1.52-2.47,2-3.77a14.87,14.87,0,0,0,1.48-4.67c0-.75-.9-.84-1.28-.35a15.59,15.59,0,0,0-1.81,4.58c-.42,1.34-1,2.71-.77,4.13A.2.2,0,0,0,94,72Z"/><path class="cls-8" d="M97.32,64.37a13.85,13.85,0,0,0,1.3-3.48,16,16,0,0,0,1.3-3.53c.06-.44-.55-.61-.83-.34a8.41,8.41,0,0,0-1.65,3.55,7.14,7.14,0,0,0-.51,3.75.21.21,0,0,0,.39.05Z"/><path class="cls-8" d="M98.51,61.75a13.27,13.27,0,0,0,1.57-3.29,9.46,9.46,0,0,0,.91-3.53c0-.27-.37-.48-.58-.24A9.15,9.15,0,0,0,99,57.91a12.81,12.81,0,0,0-.79,3.77c0,.15.18.17.26.07Z"/><path class="cls-8" d="M100.9,56.15a20.07,20.07,0,0,0,1.71-3.88,14.44,14.44,0,0,0,1.34-4,.16.16,0,0,0-.28-.11A11.76,11.76,0,0,0,102,51.79a16.41,16.41,0,0,0-1.27,4.31c0,.11.14.13.19,0Z"/><path class="cls-8" d="M100.6,55.05a16,16,0,0,0,2.31-4,13,13,0,0,0,1.31-4.08c0-.41-.5-.47-.7-.19a18.17,18.17,0,0,0-1.71,3.81,26.25,26.25,0,0,0-1.49,4.32c0,.15.17.3.28.17Z"/><path class="cls-8" d="M104,48.33c1-2.69,2.17-5.34,3.3-8,.25-.56-.56-1.07-.84-.49a44.09,44.09,0,0,0-2.88,8.35.22.22,0,0,0,.42.11Z"/><path class="cls-8" d="M104.6,47.29A19.29,19.29,0,0,0,106.77,43a19.9,19.9,0,0,0,1.53-4.58c.06-.52-.66-.59-.9-.24a19.52,19.52,0,0,0-1.92,4.47,18.72,18.72,0,0,0-1.24,4.58c0,.21.26.23.36.1Z"/><path class="cls-8" d="M103.89,46.79a14.55,14.55,0,0,0,2.32-4.64c.68-1.77,1.74-3.69,1.85-5.59,0-.38-.54-.65-.79-.33-1.08,1.37-1.52,3.21-2.13,4.83-.68,1.79-1.58,3.66-1.58,5.6a.2.2,0,0,0,.33.13Z"/><path class="cls-8" d="M109.66,30.1c.21.61,1.07,1.11,1.62,1.4s1-.38.55-.73-1.26-1.05-1.91-1a.27.27,0,0,0-.26.34Z"/><path class="cls-8" d="M110.91,31.25a21,21,0,0,0-1.76,4,16.73,16.73,0,0,0-1.41,4.06.29.29,0,0,0,.49.21,11.9,11.9,0,0,0,1.85-3.7,14.4,14.4,0,0,0,1.19-4.44.2.2,0,0,0-.36-.1Z"/><path class="cls-8" d="M110.07,31.07A6.36,6.36,0,0,0,108.64,34a28.71,28.71,0,0,0-1.24,3.95c-.13.61.79,1.11,1.09.46a28.68,28.68,0,0,0,1.28-3.83c.32-1.09.88-2.29.59-3.42a.17.17,0,0,0-.29-.08Z"/><path class="cls-8" d="M109.86,30.48a7.66,7.66,0,0,0-1.4,2.88,9.07,9.07,0,0,0-.93,3.49.3.3,0,0,0,.5.21,7.88,7.88,0,0,0,1.31-3,8.55,8.55,0,0,0,.8-3.49.17.17,0,0,0-.28-.12Z"/><path class="cls-8" d="M109.91,31.12c-.06.36-.08.73-.12,1.09-.1.76,1.1.75,1.19,0a1.18,1.18,0,0,0-.74-1.27.26.26,0,0,0-.33.18Z"/><path class="cls-8" d="M109.78,30.84c.12.35,0,1.54.78,1.22a.69.69,0,0,0,.28-.9,1,1,0,0,0-.78-.6c-.16,0-.35.11-.28.28Z"/><path class="cls-8" d="M78.88,82.13c-.33-2.16-1-4.27-1.36-6.42s-.61-4.35-1.18-6.44a.59.59,0,0,0-1.15.15,36,36,0,0,0,3.2,12.92c.14.29.53.06.49-.21Z"/><path class="cls-8" d="M75.73,69.85a16.29,16.29,0,0,0-.61-5.13,16.23,16.23,0,0,0-1.34-5,.43.43,0,0,0-.79.21,16.46,16.46,0,0,0,.92,5.13,16,16,0,0,0,1.59,4.86.12.12,0,0,0,.23-.06Z"/><path class="cls-8" d="M73.73,59.94a28.76,28.76,0,0,0-.89-6.9c-.4-2.23-.51-4.76-1.56-6.78-.26-.49-.91-.2-1,.26-.23,2.26.64,4.69,1.1,6.9a28.59,28.59,0,0,0,1.73,6.67c.14.3.55.12.57-.15Z"/><path class="cls-8" d="M71.07,47.26c.57-2.06,0-4.19-.43-6.25s-.45-4.5-1.82-6a.52.52,0,0,0-.86.23c-.41,1.91.58,3.95,1,5.82.46,2.11.55,4.42,1.69,6.28a.23.23,0,0,0,.42-.05Z"/><path class="cls-8" d="M67.09,34.64a1.72,1.72,0,0,0,1.37,0c.41-.15.91-.36,1.05-.8.06-.2-.13-.33-.31-.31-.36.05-.65.37-1,.49s-.72.19-1.07.31c-.12,0-.18.24,0,.3Z"/><path class="cls-8" d="M68.69,34.17a4.58,4.58,0,0,0,.13,1.47c.09.46.08,1.07.54,1.32a.31.31,0,0,0,.42-.12c.27-.45-.06-1-.23-1.4a4.3,4.3,0,0,0-.66-1.32.12.12,0,0,0-.2.05Z"/><path class="cls-8" d="M68.05,34.85c-.09.74-.51,2.63.47,2.94a.26.26,0,0,0,.27-.07c.33-.32.19-.77.1-1.18a12,12,0,0,1-.34-1.69.25.25,0,0,0-.5,0Z"/><path class="cls-8" d="M67.41,35A3.14,3.14,0,0,0,68,37.26c.29.34.84,0,.72-.42-.19-.69-.7-1.19-.92-1.86a.17.17,0,0,0-.34,0Z"/><path class="cls-8" d="M68.68,34.61c0,.29.06.58.07.87a1.8,1.8,0,0,0,.09.8c.15.36.77.37.75-.1A6.2,6.2,0,0,0,69,34.56c-.06-.16-.34-.15-.32,0Z"/><path class="cls-8" d="M67.41,35.5a1.79,1.79,0,0,0,.6,1,.33.33,0,0,0,.48-.2,1.71,1.71,0,0,0-.06-1.07c-.15-.66-1.25-.35-1,.29Z"/><path class="cls-8" d="M67.46,34.86c-.15.51-.17,1.65.63,1.6a.29.29,0,0,0,.26-.2c.14-.44-.29-.86-.29-1.32a.31.31,0,0,0-.6-.08Z"/><path class="cls-8" d="M67.58,35.68c.49-.07,1-.13,1.48-.23a.58.58,0,0,0,.41-.41.55.55,0,0,0-.06-.45.56.56,0,0,0-.51-.29c-.55.05-1.09.15-1.64.23-.75.11-.43,1.26.32,1.15Z"/><path class="cls-8" d="M63.59,19.18a7.49,7.49,0,0,0,2.09-.39,5.54,5.54,0,0,0,2-.66.32.32,0,0,0-.16-.6,5.64,5.64,0,0,0-2.09.41,7.39,7.39,0,0,0-2,.68.3.3,0,0,0,.15.56Z"/><path class="cls-8" d="M66.89,18.19a20.61,20.61,0,0,0-.34-3.84c-.15-.73-1.27-.55-1.27.17a7.08,7.08,0,0,0,1.17,3.79.24.24,0,0,0,.44-.12Z"/><path class="cls-8" d="M66.07,14.09a2.44,2.44,0,0,0-.93-.18,3.71,3.71,0,0,0-1,.2c-.57.18-1.29.47-1.47,1.09a.48.48,0,0,0,.46.6c.51,0,.9-.41,1.36-.63a6.39,6.39,0,0,1,.77-.28c.27-.08.52-.23.79-.31a.25.25,0,0,0,0-.49Z"/><path class="cls-8" d="M63,15.21c-.31.42-.05,1.15.07,1.61a4.24,4.24,0,0,0,.67,1.74.26.26,0,0,0,.45-.19,9.87,9.87,0,0,0-.52-1.71c-.12-.47-.1-1.16-.49-1.47a.12.12,0,0,0-.18,0Z"/><path class="cls-8" d="M64.26,18.5A2.52,2.52,0,0,0,66.21,18a.41.41,0,0,0-.18-.66,2.54,2.54,0,0,0-2,.67c-.23.17,0,.49.21.51Z"/><path class="cls-8" d="M66.07,17.59a16.58,16.58,0,0,1-.58-2.41c-.22-.7-1.38-.61-1.32.18A5.1,5.1,0,0,0,65.44,18a.37.37,0,0,0,.63-.37Z"/><path class="cls-8" d="M64.32,15.61c0,.75-.17,2.1.6,2.52a.52.52,0,0,0,.71-.19,1.25,1.25,0,0,0,0-1.1,4.29,4.29,0,0,1-.26-1.23.51.51,0,0,0-1,0Z"/><path class="cls-8" d="M63.41,16.15l.33,1.66c.2,1,1.74.57,1.51-.42l-.36-1.65c-.22-1-1.67-.55-1.48.41Z"/><path class="cls-8" d="M63.22,16.84c.22.46.46,1.2,1,1.3a.4.4,0,0,0,.43-.18c.31-.54-.15-1.24-.37-1.75-.33-.73-1.44-.1-1.08.63Z"/><path class="cls-9" d="M117.93,9.54a2,2,0,0,0,1.26.94c.39.14,1.22.4,1.47-.1s-.32-.66-.65-.75c-.58-.16-1.12-.48-1.71-.58a.33.33,0,0,0-.37.49Z"/><path class="cls-9" d="M118,9.32a86.88,86.88,0,0,0-8.29,19.89c-.16.6.69.8.91.25,1.36-3.3,2.47-6.72,3.78-10s2.82-6.56,4-9.91c.1-.26-.3-.41-.43-.18Z"/><path class="cls-9" d="M110.51,29.19a.25.25,0,0,0,0-.5.25.25,0,0,0,0,.5Z"/><path class="cls-9" d="M110.13,29.22a7.12,7.12,0,0,0,1.11,1.4c.34.39.92-.19.57-.57a7.44,7.44,0,0,0-1.3-1.21c-.24-.16-.5.14-.38.38Z"/><path class="cls-9" d="M120,10.4s0-.09,0-.09a0,0,0,0,0,0,.09Z"/><path class="cls-9" d="M120.16,10.37a159.86,159.86,0,0,0-8.67,20c-.14.36.47.62.64.26a160,160,0,0,0,8.23-20.19.11.11,0,0,0-.2-.08Z"/><path class="cls-9" d="M111.52,29.89c2.06-2.88,3.38-6.48,4.88-9.68a83.35,83.35,0,0,0,4-9.27.74.74,0,0,0-1.35-.57,81,81,0,0,0-4.19,9.19c-1.36,3.26-3.16,6.64-3.91,10.09a.31.31,0,0,0,.56.24Z"/><path class="cls-9" d="M118.36,10.12c-1.9,2.17-2.78,5.3-3.9,7.94-1.32,3.14-3.14,6.45-3.82,9.8a.47.47,0,0,0,.85.36c1.79-2.62,2.83-6,4.06-8.87s3-5.94,3.27-9a.27.27,0,0,0-.46-.18Z"/><path class="cls-9" d="M118.14,10.47a1.29,1.29,0,0,0,.88.79c.93.35,1.19-1.43.18-1.34-.26,0-.52,0-.77,0a.42.42,0,0,0-.29.51Z"/><path class="cls-9" d="M111.49,28.72l-.25.09s0,.08,0,.07l.26-.07c.06,0,0-.12,0-.09Z"/><path class="cls-9" d="M111,29.21l.12-.08a.22.22,0,0,0,0-.38l-.12-.09c-.59-.44-.59,1,0,.55Z"/><path class="cls-9" d="M110.67,28.52a2.64,2.64,0,0,0,0,.28.43.43,0,0,0,.32.42l.12,0a.33.33,0,0,0,.4-.23l0-.1a.44.44,0,0,0-.2-.5l-.26-.12a.26.26,0,0,0-.38.22Z"/><path class="cls-9" d="M111.33,29.27a1.07,1.07,0,0,0,.29.88.3.3,0,0,0,.43-.43,1.17,1.17,0,0,1-.37-.5.18.18,0,0,0-.35.05Z"/><path class="cls-9" d="M120.26,10.87a.27.27,0,0,0,0-.53.27.27,0,0,0,0,.53Z"/><path class="cls-9" d="M118.34,9.19a.17.17,0,0,0,0-.34.17.17,0,0,0,0,.34Z"/><path class="cls-9" d="M63.61,19.41a5.26,5.26,0,0,0,3.28-.24.26.26,0,0,0-.13-.49c-.51,0-1,.15-1.53.2s-1,0-1.56.07a.24.24,0,0,0-.06.46Z"/><path class="cls-9" d="M67,34c.57.19,2.11.1,2.19-.69a.23.23,0,0,0-.15-.2c-.32-.1-.54.14-.83.24a4.44,4.44,0,0,1-1.15.17A.25.25,0,0,0,67,34Z"/><path class="cls-9" d="M63.87,19.33A84.78,84.78,0,0,0,66.5,33.55c.11.35.71.3.67-.09a84.87,84.87,0,0,0-3-14.18c0-.17-.36-.15-.34,0Z"/><path class="cls-9" d="M63.54,19.46a1,1,0,0,0,.29,1.2A.16.16,0,0,0,64,20.6a1,1,0,0,0-.33-1.18.13.13,0,0,0-.17,0Z"/><path class="cls-9" d="M64,19.82c.32.6.9.53,1.52.53s1.38,0,1.67-.5a.3.3,0,0,0,0-.36c-.42-.4-1.1-.21-1.63-.19s-1.09-.11-1.5.38a.11.11,0,0,0,0,.14Z"/><path class="cls-9" d="M66.69,19.45a30.73,30.73,0,0,0,.67,6.33c.35,2.38.61,4.8,1.13,7.14a.3.3,0,0,0,.59-.08c-.15-2.4-.57-4.79-.89-7.17a30.74,30.74,0,0,0-1.11-6.27.2.2,0,0,0-.39.05Z"/><path class="cls-9" d="M66.76,33.66a1.42,1.42,0,0,0,1.59-.06c.4-.28.17-1.06-.36-.86a6.83,6.83,0,0,0-1.23.64.16.16,0,0,0,0,.28Z"/><path class="cls-9" d="M66.81,33.14c.43.41,1.21.2,1.66-.08a.52.52,0,0,0,.24-.58.42.42,0,0,0-.24-.32.53.53,0,0,0-.52,0,5.31,5.31,0,0,0-1.14.58.28.28,0,0,0,0,.4Z"/><path class="cls-9" d="M66.78,32.65a2.56,2.56,0,0,0,1.26,0c.62-.1.34-1.17-.26-.94a2.49,2.49,0,0,0-1.09.6.23.23,0,0,0,.09.36Z"/><path class="cls-9" d="M66.73,32.23c.37.42,1.27.23,1.65-.08a.4.4,0,0,0-.18-.67,1.61,1.61,0,0,0-1.27.28c-.13.09-.35.3-.2.47Z"/><path class="cls-9" d="M66.58,31.79a2.05,2.05,0,0,0,1.91-.45.45.45,0,0,0-.44-.75,9.42,9.42,0,0,1-1.38.49c-.36,0-.53.64-.09.71Z"/><path class="cls-9" d="M66.53,31.47a4.27,4.27,0,0,0,1.47,0,.57.57,0,0,0,.42-.56.41.41,0,0,0-.08-.3.6.6,0,0,0-.79-.21,4.29,4.29,0,0,0-1.11.76c-.1.1-.07.33.09.35Z"/><path class="cls-9" d="M66.75,30.76a6.48,6.48,0,0,0,1.39-.07c.63-.1.37-1.15-.27-1a7,7,0,0,0-1.26.53c-.26.12-.12.51.14.51Z"/><path class="cls-9" d="M66.54,30.17a1.86,1.86,0,0,0,1.63,0,.59.59,0,1,0-.45-1.08,9.18,9.18,0,0,0-1.24.66.27.27,0,0,0,.06.42Z"/><path class="cls-9" d="M66.42,30c.65-.08,1.59-.27,1.91-.91.18-.35-.12-.91-.57-.74s-.94.74-1.51,1a.35.35,0,0,0,.17.66Z"/><path class="cls-9" d="M66.59,29.65A3.88,3.88,0,0,0,68,28.59c.2-.32-.14-.82-.52-.68a4.1,4.1,0,0,0-1.31,1.18c-.27.28.08.79.43.56Z"/><path class="cls-9" d="M66.32,29.3A4.54,4.54,0,0,0,67.89,28c.28-.45-.33-.83-.7-.53a4.51,4.51,0,0,0-1,1.66c0,.11.06.26.18.18Z"/><path class="cls-9" d="M66.59,28.69c.25-.24.5-.48.76-.71a2.11,2.11,0,0,0,.64-.69c.14-.32-.16-.72-.51-.51-.55.33-.9,1.1-1.29,1.6-.19.24.2.51.4.31Z"/><path class="cls-9" d="M66.42,28.19c.41-.42.87-.8,1.24-1.26a.46.46,0,1,0-.73-.57c-.35.48-.59,1-.89,1.53a.25.25,0,0,0,.38.3Z"/><path class="cls-9" d="M66.42,27.75c.4-.56,1.15-1.16,1.29-1.84.06-.33-.31-.76-.65-.5-.61.46-.81,1.37-1.17,2a.31.31,0,0,0,.53.31Z"/><path class="cls-9" d="M66.15,27c.34-.32.62-.69.94-1a2.39,2.39,0,0,0,.75-1.09.51.51,0,0,0-.74-.57,2.1,2.1,0,0,0-.8,1.16,7.85,7.85,0,0,0-.49,1.33.21.21,0,0,0,.34.2Z"/><path class="cls-9" d="M66,26.18a5.42,5.42,0,0,0,1-.8,5.19,5.19,0,0,0,.67-1.07.58.58,0,0,0-1-.59,4.29,4.29,0,0,0-.61,1.11,5.23,5.23,0,0,0-.24,1.24.11.11,0,0,0,.19.11Z"/><path class="cls-9" d="M65.84,25.61a12.18,12.18,0,0,0,1.63-1.81.51.51,0,0,0,0-.52.6.6,0,0,0-.31-.24.53.53,0,0,0-.59.24,12.07,12.07,0,0,0-1.12,2c-.13.25.18.53.39.31Z"/><path class="cls-9" d="M65.94,24.93c.47-.72,1-1.39,1.42-2.15a.51.51,0,0,0-.88-.52c-.43.76-.71,1.57-1.07,2.36a.31.31,0,0,0,.53.31Z"/><path class="cls-9" d="M65.56,24.48a18.12,18.12,0,0,0,1.17-1.69,2.36,2.36,0,0,0,.54-1.62.48.48,0,0,0-.71-.29,2.46,2.46,0,0,0-.86,1.47,16.77,16.77,0,0,0-.55,2,.22.22,0,0,0,.41.17Z"/><path class="cls-9" d="M65.4,23.82c.32-.51.72-1,1.06-1.45a3.84,3.84,0,0,0,.82-1.51.59.59,0,0,0-1-.57c-.83.82-.92,2.29-1.31,3.35-.1.25.28.39.42.18Z"/><path class="cls-9" d="M65.64,20.32a2.74,2.74,0,0,0-.91,3.14c.25.75,1.43.44,1.19-.33A4.32,4.32,0,0,1,66,20.59a.25.25,0,0,0-.36-.27Z"/><path class="cls-9" d="M64.58,20.25c-.61.54-.11,1.71.18,2.28.4.78,1.64.07,1.18-.68-.3-.51-.61-1.41-1.2-1.64a.18.18,0,0,0-.16,0Z"/><path class="cls-9" d="M64.59,20.7a4.66,4.66,0,0,0,1.65.41c.78.1.82-1.27,0-1.24a4.38,4.38,0,0,0-1.57.25c-.23.09-.34.45-.08.58Z"/><path class="cls-9" d="M66.65,19.38a1.79,1.79,0,0,0-.3,1.13.41.41,0,0,0,.81,0,1.79,1.79,0,0,0-.3-1.13.12.12,0,0,0-.21,0Z"/><path class="cls-9" d="M63.84,19.84a4.57,4.57,0,0,0,.54,2,.18.18,0,0,0,.3-.08,1.6,1.6,0,0,0-.09-.89c-.1-.38-.2-.76-.29-1.14s-.52-.17-.46.13Z"/><path class="cls-8" d="M117.87,8.61a3,3,0,0,0,2.89,1.81c.5,0,.66-.8.12-.93a4.92,4.92,0,0,1-1.4-.42c-.41-.23-.75-.58-1.15-.81a.31.31,0,0,0-.46.35Z"/><path class="cls-8" d="M118.4,8.87A3.77,3.77,0,0,0,119.88,7a13.92,13.92,0,0,0,1-2.63A.6.6,0,0,0,119.71,4c-.33.88-.61,1.77-1,2.65a4.87,4.87,0,0,0-.61,2.05.18.18,0,0,0,.27.15Z"/><path class="cls-8" d="M119.79,4.42a5.51,5.51,0,0,1,1.09.71,2.44,2.44,0,0,1,.79,1.09c.19.54,1.06.29.85-.23a3.15,3.15,0,0,0-1.09-1.45,2.22,2.22,0,0,0-.8-.36,1.89,1.89,0,0,0-.82,0,.11.11,0,0,0,0,.2Z"/><path class="cls-8" d="M122.06,6c-.57.13-.87.92-1.15,1.39a7.32,7.32,0,0,0-1,2,.27.27,0,0,0,.5.21,19.22,19.22,0,0,0,1-1.9c.26-.45.84-1,.77-1.57a.13.13,0,0,0-.17-.13Z"/><path class="cls-8" d="M121.9,6.76c-.51.09-.82.8-1.08,1.21a6.61,6.61,0,0,0-.95,1.75c-.07.24.26.47.44.26a14.71,14.71,0,0,0,1-1.61c.26-.42.84-1,.78-1.48a.14.14,0,0,0-.17-.13Z"/><path class="cls-8" d="M121.63,5.76a4.76,4.76,0,0,0-1.25,1.32,7.64,7.64,0,0,0-1.12,1.71c-.19.47.48.77.8.46a7.26,7.26,0,0,0,1.12-1.7,4.7,4.7,0,0,0,.71-1.64.18.18,0,0,0-.26-.15Z"/><path class="cls-8" d="M121.31,5.26A8.73,8.73,0,0,0,119.62,7c-.28.38-1,1.41-.45,1.86s1-.47,1.24-.8a25.15,25.15,0,0,1,1.45-2.19c.24-.32-.24-.8-.55-.56Z"/><path class="cls-8" d="M120.9,5.18a14.36,14.36,0,0,0-1,1.45c-.3.5-.77,1-.78,1.56a.56.56,0,0,0,.84.48c.5-.35.62-1,.88-1.49a16.69,16.69,0,0,0,.66-1.65c.11-.33-.37-.64-.6-.35Z"/><path class="cls-8" d="M121.22,5c-.54-.38-1.4,1.12-1.58,1.42s-.76,1.31-.15,1.72,1-.33,1.17-.78a18.34,18.34,0,0,0,.69-2,.3.3,0,0,0-.08-.31l0,0Z"/><path class="cls-8" d="M121.2,7.54a2.17,2.17,0,0,0-1,1c-.26.4-.57.75-.36,1.24a.36.36,0,0,0,.3.17c.5,0,.65-.43.88-.83a2.22,2.22,0,0,0,.45-1.3c0-.15-.14-.3-.31-.24Z"/><path class="cls-8" d="M121,7.94a3.5,3.5,0,0,1-.8,1.46c-.31.46.33.83.7.54a2.74,2.74,0,0,0,.77-2c0-.45-.62-.42-.67,0Z"/><path class="cls-8" d="M118.52,9.09c.35.41,1.43,1,1.78.29a.26.26,0,0,0,0-.3c-.28-.32-.83-.26-1.17-.57s-.9.18-.57.58Z"/><path class="cls-8" d="M118.68,9.13c.47.24,1.12.54,1.58.15a.26.26,0,0,0,0-.3c-.26-.5-1-.48-1.46-.45-.29,0-.47.45-.16.6Z"/><path class="cls-4" d="M119.59,4.83c-1.79,3.55-3.26,7.33-4.8,11-1.47,3.52-3.21,7.61-3.49,11.44a.31.31,0,0,0,.58.16c1.67-3.23,2.44-7,3.63-10.46,1.39-4,3.09-7.83,4.83-11.72.22-.49-.49-.94-.75-.43Z"/><path class="cls-4" d="M63.49,16.34A132.31,132.31,0,0,0,67.6,36c.06.2.42.17.39-.06a130.64,130.64,0,0,0-4-19.69c-.07-.26-.54-.23-.5.07Z"/><path class="cls-4" d="M80.4,62.43a16.17,16.17,0,0,0,2.17-16.36c-2.52-6.13-9.94-14-3.15-20,.32-.28-.08-.75-.43-.57-5.61,3-3.46,10.28-1,14.59,1.86,3.22,4.24,6.23,5,10a16.06,16.06,0,0,1-2.91,12.14c-.13.19.18.44.33.25Z"/><path class="cls-4" d="M120.54,58.71c1.49-3.1-1.52-7.07-1.31-10.35.33-4.94,3.83-8.27,6.35-12.19.17-.25-.19-.49-.4-.31-3.14,2.74-5.92,6.55-6.75,10.7s1.43,8,2,12.14c0,0,.08,0,.1,0Z"/><path class="cls-4" d="M130.08,62.37c3.25-4.21.31-9.46-.54-13.94-1.16-6,.94-10.93,4.12-15.9.23-.36-.26-.67-.56-.43C129.61,35,128,40,128,44.43c0,6,5.08,12,1.77,17.74-.13.23.2.4.35.2Z"/><path class="cls-4" d="M60.56,29.4c-4.27,3.86.25,10.39,2.34,14.15,3.89,7,6.79,13.62,4.81,21.72a.29.29,0,0,0,.52.22c2.65-4.86,1.23-10.93-.84-15.72-1.31-3-3-5.89-4.59-8.78C61,37.68,58.12,33.37,61,29.82a.3.3,0,0,0-.42-.42Z"/><path class="cls-4" d="M57.14,67.49c3.66-3.35-1.64-7.26-3.53-9.74-3.83-5-3.63-11.37-1.17-16.9a.3.3,0,0,0-.51-.3C49.38,44,49,48.75,50.07,52.82a15.57,15.57,0,0,0,2.75,5.54c1.79,2.29,7.09,5.47,4.07,8.88a.18.18,0,0,0,.25.25Z"/><path class="cls-4" d="M93.83,54.77c2-7.19-4.11-13.11-3.89-20.16.25-8.13,6.7-13.6,12-18.95.15-.15-.05-.45-.24-.31-5.4,4.11-10.93,9.33-12.43,16.24-1.8,8.33,5.6,14.89,4.18,23.06,0,.28.35.4.42.12Z"/><path class="cls-10" d="M109.74,66.05c-.42.5-.25,1.56.59,1.33a.89.89,0,0,0,.37-1.45c-.44-.51-1.13.22-.73.73-.11-.13-.08-.22.1-.28l.44.25a.1.1,0,0,1,0-.12.48.48,0,0,0-.8-.46Z"/><path class="cls-10" d="M122.87,76.85a1.48,1.48,0,0,0-.63,2.22.71.71,0,0,0,.77.32,1.28,1.28,0,0,0,.59-2.09c-.49-.42-1.48,0-1.2.7a1.34,1.34,0,0,0,.07.18c0,.11,0,.12,0,0s.24-.18,0,0l.83.11a.61.61,0,0,1,0-.83c.18-.26-.13-.7-.44-.57Z"/><path class="cls-10" d="M95.89,77.58c-.56.41-.42,1,0,1.42a.74.74,0,0,0,.89.12l.06,0c.66-.43.26-1.59-.55-1.32a.93.93,0,0,0-.29.12h.69a.32.32,0,0,1,.14.4c.09-.47-.43-1.06-.91-.7Z"/><path class="cls-10" d="M85.16,69.94a1.38,1.38,0,0,0-.6-.25,1.51,1.51,0,0,0-.72.18A2.2,2.2,0,0,0,83,71c-.21.55.33,1,.82,1.07s1,0,1.44,0a.87.87,0,0,0,.84-.64,1.49,1.49,0,0,0-.72-1.64,1.46,1.46,0,0,0-1.77.16.86.86,0,0,0-.13,1,.83.83,0,0,0,1.06.35c.28-.1,0,0,0,0l0,0a.32.32,0,0,1-.06-.33l.84-.64c-.48,0-1,0-1.44,0l.82,1.07a.94.94,0,0,1,.2-.47l.16-.2c0-.05.17-.29.21-.32a.31.31,0,0,0,0-.53Z"/><path class="cls-10" d="M106.41,70.93c-.06.3-.11.61-.17.91a.6.6,0,0,0,.27.65,1.24,1.24,0,0,0,1.67-.64c.47-.73-.41-1.36-1.07-1.07a1.62,1.62,0,0,0-.35.17c-.91.48-.11,1.78.79,1.36l.35-.18-1.15-.47,0,.11v-.39s-.1.05-.14.06l.7.4c-.08-.3-.16-.61-.25-.91a.36.36,0,0,0-.69,0Z"/><path class="cls-10" d="M105.62,62.18c-.91.16-1.14,1.4-.74,2.09l.53-.93a1.28,1.28,0,0,0-1.28.93c-.22.63.51,1,1,.77a7.18,7.18,0,0,0,.72-.39.71.71,0,0,0,.33-.8,1.08,1.08,0,0,0-.57-.68c-.82-.38-1.53.77-.72,1.22l-.08-.16.32-.81c-.23.14-.47.28-.69.44l1,.77c0-.07,0-.09,0,0a.63.63,0,0,0,.44-1.06.87.87,0,0,1,0-1,.23.23,0,0,0-.25-.33Z"/><path class="cls-10" d="M71.44,77.86a5,5,0,0,0-.44.69.52.52,0,0,0,.75.58A2.61,2.61,0,0,1,72,79h-.54l.05,0a.69.69,0,0,0,1-.6v-.1a.59.59,0,0,0-.41-.53l-.09,0a.7.7,0,0,0-.85.85l0,0,.14-.52-.24.22.85.49A5.63,5.63,0,0,0,72,78a.28.28,0,0,0-.51-.14Z"/><path class="cls-10" d="M116.55,75.58c-.71.61.58,1.59,1.11.7a.6.6,0,0,0,0-.58,1,1,0,0,0-1.71,0,.75.75,0,0,0,0,.74l0,.05a.66.66,0,0,0,.92.24.83.83,0,0,0,.3-.29l0-.08a.27.27,0,0,1-.37.1l-.26-.64c.45-.16.56-.24.34-.26a.24.24,0,0,0-.12,0l.25.25v.06a.32.32,0,0,0-.54-.31Z"/><path class="cls-10" d="M107.19,79.57a1.21,1.21,0,0,0,.79.24.49.49,0,0,0,.42-.73,1.1,1.1,0,0,0-.63-.51c-.66-.32-1.24.62-.58,1Z"/><path class="cls-11" d="M120.32,71.39c-.16.59.38.85.82.83a.71.71,0,0,0,.69-.7v0c.07-.9-1.3-.88-1.39,0a.89.89,0,0,0,0,.28l.06-.5a.27.27,0,0,1-.06.1l.34-.26H121l.31.24,0-.06a.51.51,0,0,0-.91.12Z"/><path class="cls-11" d="M89,67.79a1.09,1.09,0,0,0-1.82.18c-.5,1,.71,1.81,1.62,1.47a1.32,1.32,0,0,0,.9-1.1,1.13,1.13,0,0,0-1-1.22c-1-.23-2.64.83-1.94,2a.83.83,0,0,0,1.27.16,1.54,1.54,0,0,0,.25-.32c.22-.3,0,0,0-.06l.09-.06s0,0,0,0l0,0-.39-.51a.33.33,0,0,1,.15-.41c-.27.16.1-.17.07,0l-.18-.08q.38.49.3.27s.08-.18.19-.08.62-.07.42-.32Z"/><path class="cls-11" d="M111.09,78.72a.87.87,0,0,0-1.08.76c-.07.78.79,1.07,1.4.76a1.41,1.41,0,0,0,.73-1.73c-.41-.91-1.67-.42-2,.24-.52.93,1,1.75,1.4.82.11-.25,0,0,0,0l-.65-.37s0,0,0-.07a.13.13,0,0,1-.07.06c-.11.06,0,.13.22.21,0-.06,0-.09,0-.07a.3.3,0,0,0,.08-.59Z"/><path class="cls-11" d="M101.7,79.47c-.32.93.72,1.65,1.57,1.53a1.64,1.64,0,0,0,1.21-2.21.88.88,0,0,0-1-.59c-.61.09-1.55.32-1.33,1.16s1.18.59,1.77.45l-.94-.38c0,.06-.07.21-.09.22-.19.11-.52-.2-.62-.32a.32.32,0,0,0-.54.14Z"/><path class="cls-11" d="M83.76,77.52a1,1,0,0,0-.8,1.62c.68,1.2,2.35.08,2-1.09-.4-1.37-2.47-.86-2.51.45,0,1.59,2.4,1.42,2.69.07a.75.75,0,0,0-1.08-.83c-.2.12-.27.17-.46.09l.62.62c.29,1-1.14.21-.84-.12l.27-.13a.75.75,0,0,0-.33.07l.46.06s-.05-.21,0-.24a.29.29,0,0,0-.08-.57Z"/><path class="cls-11" d="M113.17,70.86a10.56,10.56,0,0,0-.48,1,.58.58,0,0,0,.27.65,1.25,1.25,0,0,0,1.52-.27,1.47,1.47,0,0,0,.22-1.66.79.79,0,0,0-1.06-.28,6.47,6.47,0,0,0-1,.66c-.73.57.21,1.75,1,1.27a9.26,9.26,0,0,0,.94-.71h-1.1c.26.2-.12-.22,0-.15s-.21,0,0,.08l.42.56a7.65,7.65,0,0,0-.1-.95c0-.27-.43-.45-.56-.15Z"/><path class="cls-11" d="M102,74.78c-.76-.6-1.55.37-1.34,1.16a.73.73,0,0,0,.68.52,2.59,2.59,0,0,0,2.08-1.06,1,1,0,0,0-.21-1.16,1.12,1.12,0,0,0-1.33-.15c-.86.44-.25,1.71.64,1.51h-.11L102,75.4h0v-.78a1.14,1.14,0,0,1-.74.42l.5.21c0,.12.06.12,0,0,0,.15,0,.14.11,0a.31.31,0,0,0,0-.43Z"/><path class="cls-11" d="M126.56,73.41l0,.12a.67.67,0,0,0,.3.73,1,1,0,0,0,1.34-.34,1,1,0,0,0-.73-1.39l.35.21-.05,0a.91.91,0,0,0-1.06-.13,1,1,0,0,0-.57.69.79.79,0,0,0,1,1,1.29,1.29,0,0,0,.72-.33l-.57.23L127,74l-.19-.72c.36-.21.44-.29.23-.24l-.19,0a.47.47,0,0,0-.32.32Z"/><path class="cls-11" d="M120.18,69.2c-.75,1.18,1.1,2.39,1.92,1.23a.72.72,0,0,0,0-.75,1.15,1.15,0,0,0-2-.13c-.43.63.43,1.47,1.06,1.06.4-.27-.35.18-.46-.35l.19-.73c.44-.23.62-.09.56.44.51-.83-.78-1.58-1.31-.77Z"/><path class="cls-10" d="M73.42,73.08A1,1,0,0,0,73,74.86c.88.55,1.62-.34,1.5-1.18-.15-1.05-1.91-.63-1.63.45l0,.08v-.45l0,0,.3-.3-.07,0,.41-.11h-.1l.41.11h0l.21.35s0,0,0-.07c.05-.36-.35-.68-.68-.68Z"/><path class="cls-12" d="M74.51,68.62c-7.51,2.17-27.68,9.71-19,20.65,4.18,5.25,11.57,7.35,17.73,9.09A104.76,104.76,0,0,0,98.11,102a167.86,167.86,0,0,0,27.16-1.49c6-.78,11.85-2.31,16.76-6,4.53-3.45,7.91-8.16,6.07-14-1.65-5.27-6.58-8.45-11.45-10.38-.3-.12-.43.36-.13.48,6.4,2.54,13.15,8,11.11,15.65-1.66,6.25-8.49,10.24-14.28,12.15-10.75,3.55-24,3.51-35.24,3.14-12.12-.41-26.25-2.14-37-8.24-2.72-1.55-6.28-4.36-7-7.59-1-4.29,3.15-8.25,6.18-10.44,4.26-3.08,9.38-4.68,14.38-6.12a.25.25,0,0,0-.14-.48Z"/><path class="cls-12" d="M79.91,66.92c-1.42.39-2.82.82-4.21,1.29-.3.1-.17.58.13.48,1.4-.47,2.8-.9,4.21-1.29a.25.25,0,0,0-.13-.48Z"/><path class="cls-12" d="M137.1,70.44A44.7,44.7,0,0,0,126,68.19c-.08,0-.1.13,0,.14,3.74.71,7.45,1.25,11.15,2.2a0,0,0,1,0,0-.09Z"/><path class="cls-12" d="M103.83,63.06a1.73,1.73,0,0,1,1.85-1.14,1.06,1.06,0,0,1,.21,2,.07.07,0,0,0,0,.13,1.17,1.17,0,0,0,.31-2.11A1.66,1.66,0,0,0,103.76,63s0,.06.07,0Z"/><path class="cls-12" d="M107.47,64.1a2.17,2.17,0,0,0-.8-3.56,3.1,3.1,0,0,0-4,2.19c0,.08.1.13.13.06.61-1.2,1.48-2.28,3-2.23A2.1,2.1,0,0,1,107.4,64s0,.12.07.08Z"/><path class="cls-12" d="M103.15,67.4c.69-.67,1.45,2.66,1.5,3a9.51,9.51,0,0,1-.2,3.64.1.1,0,0,0,.2.05,9.21,9.21,0,0,0-1.1-7.2.09.09,0,0,0-.13,0l-.34.42c0,.06,0,.13.07.08Z"/><path class="cls-12" d="M106.43,71.51c.42-1.47.74-3.28-.21-4.62a2.22,2.22,0,0,0-3-.68c-.14.09,0,.31.13.22,1.37-.82,2.74.25,3.11,1.62a7.31,7.31,0,0,1-.22,3.41.1.1,0,0,0,.19.05Z"/><path class="cls-12" d="M108.67,71.53a1.46,1.46,0,0,0-1.92-1.63c-.13,0-.08.24,0,.2a1.38,1.38,0,0,1,1.77,1.41.05.05,0,0,0,.1,0Z"/><path class="cls-12" d="M103.62,76.54c.83-1.9,1.39-3.9,3.6-4.64a3.59,3.59,0,0,1,3.53.56,2.79,2.79,0,0,1,.25,3.81c-.13.14.08.35.2.21A3.13,3.13,0,0,0,109,71.39c-2.79-.28-5.32,2.43-5.44,5.12,0,0,.07.07.09,0Z"/><path class="cls-12" d="M108.69,78.21c.24-.79.9-4.87-.76-4.6-.74.11-1.27,1.07-1.57,1.65a6.41,6.41,0,0,0-.71,2.94.11.11,0,0,0,.22,0,6.29,6.29,0,0,1,.31-1.93,4.53,4.53,0,0,1,1.15-2c1.49-1,1.42,1.11,1.43,1.83s-.09,1.41-.13,2.12a0,0,0,0,0,.06,0Z"/><path class="cls-12" d="M100.62,86.51c2.78.47,4.31-2.53,4-4.93-.29-2.13-1.89-5.78-4.58-5.07a.14.14,0,0,0,.08.27c4.22-1.12,6.65,9.4.52,9.66,0,0-.06.06,0,.07Z"/><path class="cls-12" d="M101.93,88.58c6.77-3.1,5.63-13.58-2.17-14.17-.16,0-.2.26,0,.29,3.18.6,5.9,2.62,6.43,6a7.31,7.31,0,0,1-4.37,7.62c-.18.08,0,.35.15.27Z"/><path class="cls-12" d="M99.75,77.87c.43-2.23,0-6.44-3.14-6.29-3,.14-3.55,4-2.26,6.07.05.09.22,0,.18-.08a6,6,0,0,1-.44-3.31A2.78,2.78,0,0,1,97.24,72c2.59.64,2.32,3.82,2.4,5.83,0,.06.1.08.11,0Z"/><path class="cls-12" d="M96,77.59a3.75,3.75,0,0,1-.29-3.08,1.35,1.35,0,0,1,2.55,0c0,.11.22.1.21,0,0-1.15-1.53-1.51-2.37-.91-1.36,1-.9,2.82-.2,4,0,.05.12,0,.1,0Z"/><path class="cls-12" d="M98.45,74.81a1.18,1.18,0,0,0-1.71.84c-.09.64.8,1.73,1.46,1.22,0,0,0-.09,0-.11a2.84,2.84,0,0,1-.7-.16,1,1,0,0,1-.52-.93,1.06,1.06,0,0,1,1.45-.75c.06,0,.1-.08,0-.11Z"/><path class="cls-12" d="M91.19,75.65c-2.2-1.58-4.3-2.69-6.68-.81-2.06,1.63-3.65,4.35-2.87,7a.25.25,0,0,0,.48-.13c-.67-2.29.6-4.65,2.3-6.15,2.33-2.06,4.34-1.06,6.52.51.26.19.51-.24.25-.43Z"/><path class="cls-12" d="M92,77.7a4.56,4.56,0,0,0,4.1-.18c.27-.17,0-.6-.25-.43a4.13,4.13,0,0,1-3.72.13c-.3-.11-.43.37-.13.48Z"/><path class="cls-12" d="M83.12,82.31c.35-4,3.08-7.2,7.26-5.3.29.13.55-.3.25-.43-1.82-.83-3.85-1.07-5.52.22s-2.31,3.48-2.49,5.51c0,.32.48.32.5,0Z"/><path class="cls-12" d="M90.44,77.84a8.23,8.23,0,0,1-.54,1.68c-.19.43-.48.8-.66,1.24,0,0,.06.09.1,0a5.05,5.05,0,0,0,1.21-2.93c0-.08-.1-.12-.11,0Z"/><path class="cls-12" d="M91.86,78.19a11.36,11.36,0,0,0-1,2.26c0,.07.08.11.11,0a10.87,10.87,0,0,0,1-2.26c0-.07-.08-.11-.11,0Z"/><path class="cls-12" d="M94.58,80.51c-2.31.39-4.61.91-7,1.16-1,.1-2,.18-3,.18h-1c-1.47.37-2.15-.2-2-1.73.18,0,.14-.34,0-.32-1.23.17-1.14,1.45-.21,2,1.52,1,4.65.31,6.3.12a51.81,51.81,0,0,0,7-1.35c.06,0,0-.11,0-.1Z"/><path class="cls-12" d="M81.34,79c-1.74,1.43-3.24,4.1-.5,5.41,1.73.83,3.91,0,5.59-.45,2.32-.59,11.24-4.4,11.27.72a.14.14,0,0,0,.27,0c0-1.7-.24-3.21-2.17-3.33-1.6-.09-3.65.88-5.18,1.27l-4.26,1.08L84.94,84c-2.4.92-3.56-.73-3.5-5a.07.07,0,0,0-.1-.11Z"/><path class="cls-12" d="M99.27,85.09c-.29-1.21-.66-2.41-1-3.61a5.93,5.93,0,0,0-.91-2.4c-1.39-1.48-2.81,1.55-4.11,1.55-.12,0-.15.18,0,.2a1.4,1.4,0,0,0,1.09-.18,3,3,0,0,0,.6-.51l.51-.54c.38-.56.82-.58,1.3-.06.88.44.79.5,1,1.35l.42,1.34c.31,1,.6,1.94,1,2.9a.07.07,0,0,0,.13,0Z"/><path class="cls-12" d="M87.46,81.21c-1.3-1.11-1.35-3.14.5-3.7a.15.15,0,0,0,.1-.18c0-.29-.11-.58-.18-.88s-.27-.09-.25.07c.13.9-.11.69-.69,1.21a2.27,2.27,0,0,0-.74,1.36,2,2,0,0,0,1.23,2.17s0,0,0-.05Z"/><path class="cls-12" d="M89.08,77.1a4.17,4.17,0,0,0-.29,4.45c.06.09.22,0,.18-.08a4.48,4.48,0,0,1,.24-4.29c.05-.09-.08-.15-.13-.08Z"/><path class="cls-12" d="M98.41,81.34a5.15,5.15,0,0,1,6.08.86.14.14,0,0,0,.19-.2,5.13,5.13,0,0,0-6.37-.83.1.1,0,1,0,.1.17Z"/><path class="cls-12" d="M98.56,83.36a4.07,4.07,0,0,1,5.12,1.29c.11.16.38,0,.27-.16a4.06,4.06,0,0,0-5.45-1.23.06.06,0,0,0,.06.1Z"/><path class="cls-12" d="M106.63,81.07a10,10,0,0,1,2.21,3.51c0,.15.29.09.24-.06A7,7,0,0,0,106.69,81s-.1,0-.06.08Z"/><path class="cls-12" d="M106.17,83.7c.75,4.14,6.63,4.54,8.06.63,0-.1-.12-.16-.17-.07-1.87,3.66-6.5,3.27-7.83-.57a0,0,0,0,0-.06,0Z"/><path class="cls-12" d="M108.14,85.1a9,9,0,0,0,6.58-3.23c.08-.1,0-.23-.14-.14A11.65,11.65,0,0,1,108.12,85c-.05,0,0,.1,0,.1Z"/><path class="cls-12" d="M114,82.62c1.93-.28,2.77.22,2.49,1.49a2.79,2.79,0,0,1-.41,1.73c-.24.56-.52,1.1-.79,1.65-.55,1.13-1.11,2.26-1.62,3.42-.06.11.11.22.17.1.82-1.57,1.59-3.18,2.33-4.8a4.09,4.09,0,0,0,.48-3.06,1.53,1.53,0,0,0-2.71-.58s0,.08.06.05Z"/><path class="cls-12" d="M113.91,84.71a5.48,5.48,0,0,1-3.5,5.64.11.11,0,0,0,.06.21c2.33-.61,4.22-3.48,3.54-5.86a.05.05,0,0,0-.1,0Z"/><path class="cls-12" d="M111.3,90a14.67,14.67,0,0,0-6.51-3.33c-.12,0-.18.16-.05.19A19.26,19.26,0,0,1,111.23,90s.13,0,.07-.08Z"/><path class="cls-12" d="M103.52,88.52a8.42,8.42,0,0,1,6.15,2.89c.09.11.24,0,.15-.15a8.2,8.2,0,0,0-6.3-2.86.06.06,0,0,0,0,.12Z"/><path class="cls-12" d="M107.67,94.23c-.43-4.22,3.9-1.93,4.93-1.26a18.59,18.59,0,0,1,2.1,1.65,10.4,10.4,0,0,0,2,1.78c.92.42,1.84.18,1.95-.89,0-.17-.27-.21-.29,0-.28,2-3.58-1.2-4-1.5s-.74-.59-1.1-.85a6.67,6.67,0,0,0-3.2-1.5c-1.53-.09-3,1-2.54,2.63a.06.06,0,0,0,.12,0Z"/><path class="cls-12" d="M119.46,95.76l-2.12,2.53-1.64-.49A8.3,8.3,0,0,1,114,96.43c-.49-.44-.94-.93-1.46-1.33-.77-.59-2-1.36-3-.95s-1.11,2,.2,2c.15,0,.14-.22,0-.23.68-1.32,1.42-1.64,2.21-1a11.22,11.22,0,0,1,1.35,1.13,18.85,18.85,0,0,0,1.69,1.52,4,4,0,0,0,3,.89,2,2,0,0,0,1.61-2.8s-.08,0-.07,0Z"/><path class="cls-12" d="M110.15,95.26A11,11,0,0,0,107.71,98c-1.59,2-4.42,2.47-6,.13-.1-.15-.34,0-.24.14a3.88,3.88,0,0,0,4.13,1.62c2.23-.58,3-3.18,4.67-4.48.08-.06,0-.2-.08-.14Z"/><path class="cls-12" d="M121.61,99.45a3.85,3.85,0,0,1,.49-3,1.53,1.53,0,0,1,2.75.43.08.08,0,0,0,.15,0,1.59,1.59,0,0,0-2.31-1.15c-1.35.65-1.59,2.43-1.15,3.72,0,0,.08,0,.07,0Z"/><path class="cls-12" d="M123.61,99.44a9.13,9.13,0,0,1,.08-1.65,9.59,9.59,0,0,1,.47-1.4.09.09,0,0,0-.16-.07,4.42,4.42,0,0,0-.52,3.14.07.07,0,0,0,.13,0Z"/><path class="cls-12" d="M123.71,97.58a1.36,1.36,0,0,1,1.41.58c.08.12.27,0,.19-.11a1.33,1.33,0,0,0-1.62-.58s0,.11,0,.11Z"/><path class="cls-12" d="M124.72,99.24c1.31-4.9,6.83-5.89,10-2,1,1.29,1.6,3.06,2.93,4.12s3,1.3,4.2-.16c.08-.1,0-.27-.15-.19-4.53,2.71-5.7-3.82-8.22-5.6a5.84,5.84,0,0,0-3.51-1,5.77,5.77,0,0,0-5.44,4.81c0,.11.14.16.17,0Z"/><path class="cls-12" d="M125.66,99.28c1.38-4.24,6.09-4.18,8.47-.79a24.74,24.74,0,0,0,1.67,2.74,6.84,6.84,0,0,0,4.54,2.09c.15,0,.15-.22,0-.24A6.58,6.58,0,0,1,135,99.64a14,14,0,0,0-1.43-2.42,4.82,4.82,0,0,0-2.95-1.55,4.72,4.72,0,0,0-5,3.58c0,.07.09.1.12,0Z"/><path class="cls-12" d="M126.9,98.71c4-.83,7,2.16,6.06,6.15a.1.1,0,0,0,.19.06c1.52-3.75-2.5-7.87-6.27-6.27a0,0,0,0,0,0,.06Z"/><path class="cls-12" d="M125.71,98.92c2.14-3.4,6.42-1.11,8.09,1.43a8.24,8.24,0,0,1,1.13,6.25.11.11,0,0,0,.21.06,8.19,8.19,0,0,0-2.52-8.06c-2-1.73-5.6-2.61-7,.28a0,0,0,1,0,.07,0Z"/><path class="cls-12" d="M130.13,97.48a8.73,8.73,0,0,0,1.37-1,.06.06,0,0,0-.07-.09,8.68,8.68,0,0,0-1.39,1,.07.07,0,0,0,.09.1Z"/><path class="cls-12" d="M102.15,60.55a2.75,2.75,0,0,0-3.8.92c-.06.12.1.27.2.15a3,3,0,0,1,3.55-.95c.07,0,.11-.08.05-.12Z"/><path class="cls-12" d="M100.9,61.9a1.52,1.52,0,0,0-2.41.63,3.79,3.79,0,0,0-.2,2.11c.15,1.42.32,2.36-.55,3.57,0,.06,0,.13.1.1a2.07,2.07,0,0,0,1-2,12.54,12.54,0,0,0-.19-1.73c-.12-1.08.28-3.85,2.12-2.54.11.08.25-.09.15-.18Z"/><path class="cls-12" d="M99.05,68.43a4.51,4.51,0,0,0,1.46-3.93c0-.1-.17-.11-.16,0a5.16,5.16,0,0,1-1.3,3.93Z"/><path class="cls-12" d="M97.07,61.43a1.59,1.59,0,1,0-.65,3c.32,0,.32-.47,0-.5-.74-.07-1.38-.58-1.15-1.37a1.15,1.15,0,0,1,1.67-.65c.3.12.43-.36.13-.48Z"/><path class="cls-12" d="M94,63.07a1.21,1.21,0,0,0-2.12.6,1.91,1.91,0,0,0,2,2.1c.17,0,.17-.25,0-.26A1.7,1.7,0,0,1,92.15,64,1.09,1.09,0,0,1,94,63.13s.1,0,.06-.06Z"/><path class="cls-12" d="M91.47,63.29c-.64-.83-1.46.11-1.39.88a5.11,5.11,0,0,0,2.68,3.61.11.11,0,0,0,.11-.2A6.87,6.87,0,0,1,91.16,66a5.43,5.43,0,0,1-.42-.68,4.87,4.87,0,0,1-.3-.71c-.24-.53,0-.93.85-1.2.08.1.26,0,.18-.14Z"/><path class="cls-12" d="M96.37,68.14a6.24,6.24,0,0,0,4.13,1.39c.31,0,.31-.54,0-.5a5.84,5.84,0,0,1-3.88-1.32c-.27-.18-.52.26-.25.43Z"/><path class="cls-12" d="M92.13,68.55A2.22,2.22,0,0,1,95,67.47.25.25,0,0,0,95.1,67a2.72,2.72,0,0,0-3.45,1.42c-.12.3.36.43.48.14Z"/><path class="cls-12" d="M94.7,68.37a2,2,0,0,0-2.84,1.4c0,.32.43.46.49.14a1.48,1.48,0,0,1,2.21-1.06c.3.12.43-.36.14-.48Z"/><path class="cls-12" d="M99,70.79c-1.33,0-2.29-.91-3.22-1.76-.24-.21-.59.14-.35.36,1,.93,2.09,1.89,3.57,1.9a.25.25,0,0,0,0-.5Z"/><path class="cls-12" d="M90,65.37A2,2,0,0,0,87.39,67c0,.21.28.3.32.09A2,2,0,0,1,90,65.49c.07,0,.08-.1,0-.12Z"/><path class="cls-12" d="M89.74,63.77a4.62,4.62,0,0,0,1,4.77c.12.12.34,0,.24-.18a5.82,5.82,0,0,1-1.08-2.15,8,8,0,0,1,0-2.4c0-.08-.12-.11-.16,0Z"/><path class="cls-12" d="M91.51,69.47a8.57,8.57,0,0,0-10.11-2c-2.22,1.15-4.84,4.27-2.8,6.67.1.12.32,0,.22-.17-2.15-3,1.74-6.15,4.4-6.83,3.06-.78,5.87.46,8.21,2.37.06,0,.13,0,.08-.08Z"/><path class="cls-12" d="M79.82,73.11c-.21-3.18,3.19-4.77,5.92-4.75a9.28,9.28,0,0,1,5.44,2c.1.07.22-.09.13-.17C88.24,67.32,79,67,79.59,73.11c0,.14.24.15.23,0Z"/><path class="cls-12" d="M86.84,68.93a7.53,7.53,0,0,0,0,5.19c0,.07.13,0,.13,0,0-.86-.26-1.7-.27-2.57A20,20,0,0,1,86.92,69c0-.06-.07-.06-.08,0Z"/><path class="cls-12" d="M88.44,68.94A7.07,7.07,0,0,0,88,74.51a.1.1,0,0,0,.19-.06A10.88,10.88,0,0,1,88.56,69c0-.07-.09-.11-.12,0Z"/><path class="cls-12" d="M92.33,69.08a1.4,1.4,0,0,0-.21,2c.07.06.22,0,.18-.1a1.69,1.69,0,0,1,.12-1.83c0-.06,0-.13-.09-.08Z"/><path class="cls-12" d="M91.16,70.92c-1.09.15-2.19.28-3.26.52-.18,0-.1.3.07.27,1.09-.15,2.16-.41,3.23-.65.09,0,0-.16,0-.14Z"/><path class="cls-12" d="M92,73.06a26.61,26.61,0,0,0-3.46.09c-.14,0-.1.23,0,.24A26.29,26.29,0,0,0,92,73.2a.07.07,0,0,0,0-.14Z"/><path class="cls-12" d="M86.24,71.65c-2.61-1.22-5.86.09-7.6,2.26-1.21,1.52-1,4.5,1.52,4.15.2,0,.12-.32-.08-.29-1.45,0-2.07-.82-1.88-2.4a3.69,3.69,0,0,1,1-1.62A7.44,7.44,0,0,1,81,72.41a5.67,5.67,0,0,1,5.16-.57c.13,0,.25-.13.11-.19Z"/><path class="cls-12" d="M77.14,79.82c-1.81,1.26-4.13,2.48-5.3,4.42s.3,3.3,2.06,4.11c.29.13.55-.3.26-.43-1.06-.48-2.5-1.2-2.26-2.59a4.14,4.14,0,0,1,1.41-2,32,32,0,0,1,4.08-3c.27-.18,0-.62-.25-.43Z"/><path class="cls-12" d="M76,87.74a2.08,2.08,0,0,1-1.39-3.22,5.06,5.06,0,0,1,2.65-2c.17-.07.1-.35-.08-.28-1.47.6-3,1.57-3.24,3.31a2.17,2.17,0,0,0,2,2.47c.12,0,.16-.21,0-.23Z"/><path class="cls-12" d="M79.2,87.48c-.77-1.49-.62-2.33.44-2.52a4,4,0,0,1,1.68-.3,10.61,10.61,0,0,1,2.92.23,5.79,5.79,0,0,1,2.81,1.31c1.18,1.14,2,4.41-1.29,4.31-.15,0-.14.2,0,.22A2.31,2.31,0,0,0,88.31,88c-.32-2.1-2.52-3-4.37-3.39-1.41-.25-4.72-.63-5.66,1a1.27,1.27,0,0,0,.9,2c.07,0,.08-.09,0-.11Z"/><path class="cls-12" d="M83.41,87.87c-1.08-.45-1.69-1.76-2.9-1.92-.65-.09-1.46.26-1.47,1a.16.16,0,0,0,.29.08c1-2,2.85.69,4,1.16.2.08.28-.24.09-.32Z"/><path class="cls-12" d="M82.09,87a2.51,2.51,0,0,0,1.59.35,5.39,5.39,0,0,1,1.27,0,1.46,1.46,0,0,1,.77.37c.46.84.26,1.22-.58,1.13-.13-.06-.29.11-.16.22.74.64,1.63-.38,1.3-1.17-.63-1.51-2.93-.69-4.11-1.11-.12,0-.17.13-.08.19Z"/><path class="cls-12" d="M71.2,90.23a4.75,4.75,0,0,1-3.42-5.14,4.6,4.6,0,0,1,4.9-3.68c.2,0,.2-.29,0-.31A5,5,0,0,0,67.41,85a4.8,4.8,0,0,0,3.75,5.34.08.08,0,0,0,0-.15Z"/><path class="cls-12" d="M72.22,82.85a2.47,2.47,0,0,0-2.44,3.05c.39,1.94,2.35,3,4.17,3.22.12,0,.14-.19,0-.21a5.29,5.29,0,0,1-3.36-1.81c-1.11-1.56-.6-4,1.61-4.11a.07.07,0,0,0,0-.14Z"/><path class="cls-12" d="M70.79,91.39c1.9-1.54,4.62-3.07,7-1.54s2.25,4.81.23,6.6c-.11.1,0,.24.15.16a4.28,4.28,0,0,0,.2-6.69c-2.43-2-5.71-.56-7.67,1.37-.06.07,0,.15.1.1Z"/><path class="cls-12" d="M77,96.93a18.47,18.47,0,0,0,.9-3.89,1.78,1.78,0,0,0-.42-1.76c-1.36-1.09-3.22.67-4.5,1-.13,0-.11.25,0,.24,1.27-.14,2.35-1.51,3.66-1.25,2,.41.45,4.35.25,5.65a0,0,0,0,0,.08,0Z"/><path class="cls-12" d="M76.23,96.7A5.17,5.17,0,0,0,70,91.54a.15.15,0,0,0,0,.3,5.29,5.29,0,0,1,6,4.86.06.06,0,1,0,.12,0Z"/><path class="cls-12" d="M69.25,91.71a4,4,0,0,0-1.68,1.08,3,3,0,0,0-.92,1.64c0,.09.1.09.15,0,.37-.5.58-1.07,1-1.55a6,6,0,0,1,1.48-1.12s0-.11,0-.09Z"/><path class="cls-12" d="M68.22,95.47a1.74,1.74,0,0,0,2.29-.5,1,1,0,0,0-.87-1.47,1.15,1.15,0,0,0-1.13,1.37,1.34,1.34,0,0,0,1.81,1c.08,0,.09-.17,0-.16a1.35,1.35,0,0,1-1.4-.57c-.29-.54.09-1.45.8-1.31a.74.74,0,0,1,.17,1.41c-.55.32-1.11,0-1.63.21,0,0,0,0,0,0Z"/><path class="cls-12" d="M69.27,94a4.19,4.19,0,0,1,3.29.24,5,5,0,0,1,2,2.31c0,.08.19,0,.18,0-.3-2.39-3.57-3.56-5.56-2.73-.13.06-.08.27.06.22Z"/><path class="cls-12" d="M71.12,96.59a1,1,0,0,0,1.22-.44A.93.93,0,0,0,72.16,95a.08.08,0,0,0-.11.09,1.3,1.3,0,0,1,.14.82.89.89,0,0,1-1,.57.08.08,0,0,0,0,.15Z"/><path class="cls-12" d="M72.27,96.25a4.24,4.24,0,0,0,1.07.71c.09,0,.14-.09.09-.15a4.18,4.18,0,0,0-1.05-.7c-.08,0-.19.08-.11.14Z"/><path class="cls-12" d="M74.73,72.51a4.44,4.44,0,0,0-2.45,1.16,6.85,6.85,0,0,0-2.1,2.41c-.05.11.09.25.17.14A12.51,12.51,0,0,1,72.28,74a7.51,7.51,0,0,1,1.3-.86,5.07,5.07,0,0,0,1.17-.63s0,0,0,0Z"/><path class="cls-12" d="M70.14,76.2a1.8,1.8,0,0,0-3.38,1.17c0,.17.26.09.24-.06a1.66,1.66,0,0,1,1.09-1.88,1.76,1.76,0,0,1,2,.83.06.06,0,0,0,.1-.06Z"/><path class="cls-12" d="M66.51,77.48a2.23,2.23,0,0,0-.82,4.38c.11,0,.19-.14.08-.19a2.26,2.26,0,0,1-1.47-2.15,2.19,2.19,0,0,1,2.21-1.88c.1,0,.1-.15,0-.16Z"/><path class="cls-12" d="M65.63,81.61c-.26.59-.38,1.67-.86,2s-1.26.21-1.82.3a8.65,8.65,0,0,0-3.63,1.59c-.17.12,0,.41.17.29A8.74,8.74,0,0,1,65,84.11a.13.13,0,0,0,.12-.1,21.68,21.68,0,0,0,.61-2.37s0-.06-.06,0Z"/><path class="cls-12" d="M59.71,85.4a2.26,2.26,0,0,1-1.37,1.92,2.81,2.81,0,0,1-2-.22c-.1,0-.17.11-.1.18a2.12,2.12,0,0,0,2.35.25,2.27,2.27,0,0,0,1.27-2.13c0-.09-.11-.08-.12,0Z"/><path class="cls-12" d="M60.88,85.83a17.16,17.16,0,0,1,5.29-.44c.19,0,.19-.28,0-.3a11.37,11.37,0,0,0-5.33.59.08.08,0,0,0,0,.15Z"/><path class="cls-12" d="M65,81.59A3.1,3.1,0,0,0,68.6,82a.12.12,0,0,0-.09-.21,3.57,3.57,0,0,1-3.39-.35c-.08-.06-.17.06-.1.13Z"/><path class="cls-12" d="M68.6,81.22a1.85,1.85,0,0,1-3-.7,1.4,1.4,0,0,1,2-1.64c.17.11.33-.16.16-.27a1.69,1.69,0,0,0-2.54,1.75,2,2,0,0,0,3.37.94s0-.12-.07-.08Z"/><path class="cls-12" d="M67,76.83a2.19,2.19,0,0,0,1.7,2.71c2.46.75,4.93-1.37,7.47-1,.11,0,.13-.16,0-.19-2.48-.8-9.23,3.48-9.12-1.47,0,0-.06,0-.08,0Z"/><path class="cls-12" d="M75.17,73.46a41.32,41.32,0,0,1-6.23,3.8c-.18.09,0,.36.16.27a34.2,34.2,0,0,0,6.17-4c.07,0,0-.18-.1-.12Z"/><path class="cls-12" d="M70.37,76.75c-.62-.54-1.62-1-2.33-.32a1.12,1.12,0,0,0,.2,1.69c2,1.7,5.77-.7,8-.92.32,0,.32-.53,0-.5a21.55,21.55,0,0,0-3.7.93,10.56,10.56,0,0,1-2.36.5,2,2,0,0,1-1-.13c-.53-.11-.76-.51-.69-1.22A1.2,1.2,0,0,1,70,77.1c.24.21.59-.14.35-.35Z"/><path class="cls-12" d="M74.34,77a10.4,10.4,0,0,0,0-2.43c0-.15-.23-.09-.24,0a10.16,10.16,0,0,0,.09,2.4.08.08,0,0,0,.15,0Z"/><path class="cls-12" d="M73.52,75.45a9.74,9.74,0,0,1-1,1.37c-.38.37-.9.59-1.24,1,0,0,0,.11,0,.1A2.79,2.79,0,0,0,72.67,77a3.55,3.55,0,0,0,1-1.49.06.06,0,0,0-.11,0Z"/><path class="cls-12" d="M60.4,89.15c.7-.8,1.26-1.6,2.46-1.6a2.64,2.64,0,0,1,2.48,2.19c0,.19.32.11.28-.08a2.9,2.9,0,0,0-2.47-2.38c-1.13-.12-2.68.57-2.87,1.8,0,.06.07.13.12.07Z"/><path class="cls-12" d="M68.27,90.26c-1.44-3.81-7.2-6.94-9.53-2.19,0,.07.08.13.11.06a4.23,4.23,0,0,1,5.07-1.91c2,.66,3.11,2.43,4.18,4.11.05.08.21,0,.17-.07Z"/><path class="cls-12" d="M60.44,88.61c-.58,1.23-.48,3.16.76,4,0,0,.11,0,.08-.08a5.11,5.11,0,0,1-.9-1.73,3.69,3.69,0,0,1,.21-2.13c0-.09-.11-.15-.15-.06Z"/><path class="cls-12" d="M59.11,87.93a3.1,3.1,0,0,0,.31,3.87c.09.1.22,0,.14-.14A3.28,3.28,0,0,1,59.18,88s0-.09-.07,0Z"/><path class="cls-12" d="M62.2,93.52a4.41,4.41,0,0,0-.37-4.93c-.07-.09-.21,0-.15.12a5.7,5.7,0,0,1,.43,4.77,0,0,0,0,0,.09,0Z"/><path class="cls-12" d="M60.16,89.89a3,3,0,0,1,1.53.59,2.35,2.35,0,0,1,.72,1.59c0,.1.18.15.2,0,.17-1.16-1.22-2.73-2.45-2.33a.06.06,0,0,0,0,.12Z"/><path class="cls-12" d="M64.72,93.65a1.81,1.81,0,0,1,1.14-1.19,2,2,0,0,1,1.46.11c.11,0,.21-.13.12-.21a2,2,0,0,0-2.93,1.23.11.11,0,0,0,.21.06Z"/><path class="cls-12" d="M66.58,91.32c-1.07-1.36-3.22-.14-2.88,1.47a.14.14,0,0,0,.28,0,1.47,1.47,0,0,1,2.47-1.3c.1.08.21,0,.13-.13Z"/><path class="cls-12" d="M64.63,89.69a2.24,2.24,0,0,0-2.17,1c-.08.11.09.22.18.14a4.6,4.6,0,0,1,1-.71c.33-.15.69-.2,1-.37,0,0,0,0,0,0Z"/><path class="cls-12" d="M68.2,92.27a1.54,1.54,0,0,1-.26-1.81c.35-.57.93-.59,1.51-.71a.09.09,0,0,0,0-.16c-.68-.37-1.57.21-1.88.83a1.66,1.66,0,0,0,.46,2c.12.09.22-.09.15-.19Z"/><path class="cls-12" d="M93.88,63.54c-.82.3.11,1.94.93,1.61.12-.05.16-.26,0-.28a.88.88,0,0,1-.76-.43c-.18-.31,0-.51-.06-.81,0-.05,0-.11-.11-.09Z"/><path class="cls-12" d="M97.27,68a5.92,5.92,0,0,0,.49-.89c0-.07-.08-.12-.12-.07a5.43,5.43,0,0,0-.56.85c-.08.12.12.23.19.11Z"/><path class="cls-12" d="M96.94,65.05a2.5,2.5,0,0,1-.23,2.63c-.08.11.11.26.2.15A2.42,2.42,0,0,0,97.06,65a.07.07,0,0,0-.12.07Z"/><path class="cls-12" d="M80.75,76.83c-1.26-.59-1.5-1.26-.71-2l.24-.22a5,5,0,0,1,1.38-.88,2.44,2.44,0,0,1,3.22.63.13.13,0,0,0,.22-.13c-1.06-1.94-3.59-1.09-4.93,0a2,2,0,0,0-.84,2.15,1.16,1.16,0,0,0,1.49.69c.16,0,.09-.31-.07-.25Z"/><path class="cls-12" d="M89.33,90.16a2.64,2.64,0,0,1-.28-2c0-.11-.13-.12-.18,0a1.8,1.8,0,0,0,.4,2.13s.1,0,.06-.06Z"/><path class="cls-12" d="M88.31,87.82c.84-4.06,5-5.74,8.26-3,.12.1.29-.06.18-.17-2.94-3-8.39-1.13-8.53,3.18a0,0,0,0,0,.09,0Z"/><path class="cls-12" d="M95,86.25a1.63,1.63,0,0,0-3,1.25.12.12,0,0,0,.23,0c.09-.62.12-1.2.75-1.54a1.58,1.58,0,0,1,1.86.43.09.09,0,0,0,.14-.11Z"/><path class="cls-12" d="M91,85.18a5,5,0,0,0-2.1,4.16c0,.09.15.12.17,0a8.35,8.35,0,0,1,.6-2.24A7.87,7.87,0,0,1,91,85.25s0-.1,0-.07Z"/><path class="cls-12" d="M87.3,90.13a4,4,0,0,0,4-.29,20.68,20.68,0,0,0,3-2.65l1.64-1.27,4.93,1.9c.38.56.17,1.68.39,2.37,1,3.24,3.39,1.15,3.37-1.35a.14.14,0,0,0-.28,0c-1.87.91-2.87.86-3-.15l-.19-1c-1.15-1.55.47-.32-.91-1.71a3.12,3.12,0,0,0-1.72-.94c-4.72-.91-6,6.84-11.17,4.89-.08,0-.14.11-.06.15Z"/><path class="cls-12" d="M105.64,88.83c-2.86,2.67-4.47,3-4.81,1a7.78,7.78,0,0,0-.49-1.48,4.49,4.49,0,0,0-.57-.91,2.38,2.38,0,0,0-2-.82c-1.21,0-2.1.89-2.91,1.63-3.16,2.86-5.77,4.62-10.13,3.21-.21-.07-.3.25-.09.32a8.86,8.86,0,0,0,7-.29c1.22-.62,2-2,3.08-2.59s4.95,0,5.76,1c.28.33.29,1.13.49,1.53,2.13,4.27,5,.67,4.86-2.65a.12.12,0,0,0-.23,0Z"/><path class="cls-12" d="M85.71,90.86l-.33-.2c-.1-.06-.19.11-.09.16l.35.16a.07.07,0,0,0,.07-.12Z"/><path class="cls-12" d="M86.23,90.35c-2-.83-8.36-1.53-7.68-4.55a.18.18,0,0,0-.35-.1,2.49,2.49,0,0,0,1.6,2.88,25.52,25.52,0,0,0,6.38,1.9c.07,0,.13-.1,0-.13Z"/><path class="cls-12" d="M79.37,85.05c-2.11-.59-3,1.82-2.11,3.43,1.4,2.64,5.6,3.36,8.26,3.42a.15.15,0,1,0,0-.3,13.52,13.52,0,0,1-5.14-1.08,6.88,6.88,0,0,1-2.29-1.42c-1.27-1.32-1.16-4.19,1.26-3.94.07,0,.08-.1,0-.11Z"/><path class="cls-12" d="M102,98.55c-2.38-1.71-5.42-3.4-8.48-3-2.85.41-5.19,2.69-7.29,4.47-.13.11,0,.35.19.25,1.93-1.43,3.84-3.44,6.2-4.12,3.38-1,6.46,1,9.34,2.43a0,0,0,1,0,0-.07Z"/><path class="cls-12" d="M88.57,98.43a1.15,1.15,0,0,0-1.17-.13c-.25.07-.47.31-.7.36-.39.43-.78.37-1.19-.15-.65-.07-.9-.35-.74-.86-.26-.76.08-1.72-.24-2.55a2.92,2.92,0,0,0-1.06-1.41c-3.1-2.1-4.47,3.88-5.11,5.67,0,.14.18.24.24.1.61-1.34,1-3.28,1.85-4.45,3-4,4,.85,4,2.32a5,5,0,0,0,0,1.22c.6,2.19,2.85-.42,4,0,.09,0,.14-.1.06-.15Z"/><path class="cls-12" d="M80,100c.34-.62.6-1.29.88-2a7.72,7.72,0,0,1,.78-1.7,1,1,0,0,1,1.74.11,1.73,1.73,0,0,1,.16,1.28,4.57,4.57,0,0,1-1.26,1.92c-.1.12.07.3.18.18a3.9,3.9,0,0,0,1.38-2.54,1.57,1.57,0,0,0-1-1.55,1.22,1.22,0,0,0-1.54.65,17.5,17.5,0,0,0-1.45,3.56c0,.06.08.11.11,0Z"/><path class="cls-12" d="M88.83,101c1.91-1.64,3.73-3.49,6.46-3.24,2.48.24,4.23,2.08,5.91,3.73.14.15.36-.07.22-.22-1.73-1.84-3.81-3.84-6.5-3.89-2.52,0-4.59,1.77-6.17,3.53a.06.06,0,1,0,.08.09Z"/><path class="cls-12" d="M90.87,101v-.17a0,0,0,0,0,0,0V101s.06,0,.06,0Z"/><path class="cls-12" d="M90.91,100.89a4.86,4.86,0,0,1,7.15.69c.13.17.42,0,.29-.17a5,5,0,0,0-7.55-.64c-.08.08,0,.18.11.12Z"/><path class="cls-12" d="M108.45,101.51a8.13,8.13,0,0,1,8.23-.84c.19.08.35-.19.16-.28a7.81,7.81,0,0,0-8.49,1,.08.08,0,0,0,.1.12Z"/><path class="cls-12" d="M115.7,97.67a11.11,11.11,0,0,0-7.17,1.23c-.2.1,0,.41.18.3a12.8,12.8,0,0,1,7-1.35c.1,0,.13-.16,0-.18Z"/><path class="cls-12" d="M106.66,100.89a13.6,13.6,0,0,0,2.84-2.78,15.32,15.32,0,0,0,2.3-3.25c0-.09-.07-.2-.14-.11-.84,1-1.51,2.16-2.36,3.17s-1.88,1.88-2.7,2.9a0,0,0,0,0,.06.07Z"/><path class="cls-12" d="M106.77,96.54s0,0,0,0,0,0,0,0Z"/><path class="cls-12" d="M107,95.26a2.79,2.79,0,0,0,.84,3.19c.17.13.41-.12.3-.3a4.38,4.38,0,0,1-.75-1.31,6.85,6.85,0,0,1-.11-1.5.15.15,0,0,0-.28-.08Z"/><path class="cls-12" d="M106.43,95.15a18.42,18.42,0,0,1-5.54,2.71.18.18,0,1,0,.09.35,12.51,12.51,0,0,0,5.56-2.93c.07-.06,0-.19-.11-.13Z"/><path class="cls-12" d="M98.53,88.48c2.06.6-.38,6.26-.73,7.47A.11.11,0,1,0,98,96c.33-1,.62-2,.94-3a13.78,13.78,0,0,0,.86-3,1.45,1.45,0,0,0-1.22-1.73c-.14,0-.2.18-.06.22Z"/><path class="cls-12" d="M98.4,89c-.64,2.2-1.13,4.46-1.63,6.7,0,.15.2.22.24.06.57-2.22,1.14-4.46,1.56-6.72a.09.09,0,0,0-.17,0Z"/><path class="cls-12" d="M96.64,88a2.58,2.58,0,0,1,1.78,1.39.13.13,0,0,0,.24-.09,2,2,0,0,0-2-1.45.08.08,0,0,0,0,.15Z"/><path class="cls-12" d="M96.64,87.78a73.32,73.32,0,0,1-1.66,8c0,.13.16.19.21,0a29.6,29.6,0,0,0,1.62-8.06c0-.1-.16-.12-.17,0Z"/><path class="cls-12" d="M94.45,95.66c-1.42-1.35-4.07-.17-4.62,1.51,0,.13.17.23.22.1.84-1.83,2.62-2.14,4.37-1.55,0,0,.06,0,0-.06Z"/><path class="cls-12" d="M95,94.2a2,2,0,0,0-.88,0,.07.07,0,0,0,0,.13,1.86,1.86,0,0,0,.88,0,.1.1,0,0,0,0-.2Z"/><path class="cls-12" d="M88.41,97a3.34,3.34,0,0,1,.09-1.54,2.81,2.81,0,0,1,.33-.7,2.89,2.89,0,0,1,.51-.59,5.44,5.44,0,0,0,.07-1.76.12.12,0,0,0-.23,0A4.52,4.52,0,0,1,89,94.18a9.93,9.93,0,0,0-.61.93,3.14,3.14,0,0,0-.15,2c0,.14.23.07.21-.06Z"/><path class="cls-12" d="M89.47,96.78l.17,0a.06.06,0,1,0,0-.12h-.17c-.1,0-.1.15,0,.15Z"/><path class="cls-12" d="M90,96.65a38.87,38.87,0,0,0,2-4.21c.06-.14-.14-.26-.2-.12a36.55,36.55,0,0,0-2,4.28c0,.07.08.11.11.05Z"/><path class="cls-12" d="M93.5,95.05a3.91,3.91,0,0,0-.78-5.19.16.16,0,0,0-.24,0l-.19.25c-.05.07,0,.13.1.1.67-.32,1.33,1.59,1.42,2A4,4,0,0,1,93.42,95s0,.1.08,0Z"/><path class="cls-12" d="M86.58,93a1.46,1.46,0,0,1-.42,1.44,1.24,1.24,0,0,1-.73.34c-.14,0-.19,0-.3.11a.08.08,0,0,0,0,.11c.35.34,1-.23,1.26-.5a1.55,1.55,0,0,0,.3-1.53c0-.06-.13,0-.11,0Z"/><path class="cls-12" d="M107.92,63.38a2.52,2.52,0,0,0,1.47-.31,5.48,5.48,0,0,1,1.08-.48,1.33,1.33,0,0,1,.79,0c.48.79.46,1.2-.05,1.22-.09,0-.07.14,0,.16.85.3,1.12-1,.55-1.44-1.18-1-2.61.74-3.84.6-.16,0-.16.24,0,.26Z"/><path class="cls-12" d="M111.6,64.41a5.21,5.21,0,0,1,2-.57,1.51,1.51,0,0,1,1.59,1.43.1.1,0,0,0,.2,0,1.49,1.49,0,0,0-1-1.52,3.51,3.51,0,0,0-2.81.47c-.1,0,0,.23.08.19Z"/><path class="cls-12" d="M115.32,65.21c.33.36.77.25,1.18.08a5.78,5.78,0,0,1,1-.39c.41-.08.89.09.89.59,0,.69-.68.66-1.07.43a.11.11,0,0,0-.13.17.85.85,0,0,0,1.29-1.1c-.8-1.16-2.15.7-3.06.12a.06.06,0,0,0-.07.1Z"/><path class="cls-12" d="M117.19,66.38c.93,1.08,2.81,2.31,4.19,1.24a1.32,1.32,0,0,0-.38-2.38v.29a1.42,1.42,0,0,1,1.83,1.83.14.14,0,0,0,.27.08,1.69,1.69,0,0,0-2.18-2.2.15.15,0,0,0,0,.29l.7,1.18-.92.89a2.22,2.22,0,0,1-1.6-.18,5.81,5.81,0,0,1-1.73-1.21.12.12,0,0,0-.18.17Z"/><path class="cls-12" d="M122.94,68a2.72,2.72,0,0,1,3,1c.12.15.37,0,.26-.16a2.71,2.71,0,0,0-3.26-1c-.09,0-.05.17,0,.14Z"/><path class="cls-12" d="M126.3,68.89c.47,0,1,.07,1.42.09l-.14-.19a6.76,6.76,0,0,1-.67,1.24c-.24.35-.57.64-.79,1a.11.11,0,0,0,.15.15,4.8,4.8,0,0,0,1.6-2.32c0-.1-.06-.19-.15-.19-.47,0-1,0-1.42,0a.11.11,0,0,0,0,.22Z"/><path class="cls-12" d="M126.16,71.32A24,24,0,0,0,129,72.69a5.4,5.4,0,0,0,1.89.7c.38,0,.52-.2.83-.3.13,0,.18-.23.29-.29,1.82-.83,2.39.55,2.87,1.55.1.21.42,0,.31-.18-.47-1-1.3-2.43-2.66-2.1a4,4,0,0,0-.51.23c-1.14.41-1.26.76-2.52.22a28.59,28.59,0,0,0-3.25-1.3c-.06,0-.09.07,0,.1Z"/><path class="cls-12" d="M134.3,75a2.32,2.32,0,0,0,1.45,3.63c1.15.21,2.08-.13,2.82,1a.15.15,0,0,0,.27-.07c.08-1-1.21-1.27-2-1.29-.94,0-1.82,0-2.39-.87a2.19,2.19,0,0,1,0-2.29c0-.09-.08-.2-.15-.12Z"/><path class="cls-12" d="M138.67,79c1.66-1.19,3.84-.28,5,1.16.92,1.14,1.23,2.54,2,3.77.1.18.34,0,.31-.13-.49-3.17-4-7.71-7.39-4.94-.08.06,0,.2.11.14Z"/><path class="cls-12" d="M145,86.06a1.41,1.41,0,0,0-.79,1.5,1.46,1.46,0,0,0,.4.74,2.39,2.39,0,0,1,.33.25c.09.2-.07.52-.11.74a.17.17,0,0,0,.32.08c.07-.28.14-.56.2-.85a.16.16,0,0,0-.07-.19A1.19,1.19,0,0,1,145,86.2a.08.08,0,1,0-.09-.14Z"/><path class="cls-12" d="M143.91,89.17c-.3-1.72-1.1-3.82-2.93-4.4a2.24,2.24,0,0,0-3,1.84c0,.24.38.3.42.06.34-1.89,2.44-1.8,3.59-.72a8.12,8.12,0,0,1,1.67,3.28.12.12,0,0,0,.23-.06Z"/><path class="cls-12" d="M143.87,84.29c0-1.6-.53-3.65-2.12-4.36a2,2,0,0,0-2.83,1.37c0,.18.26.2.31,0,.62-1.72,2.59-1.39,3.49-.09a10.28,10.28,0,0,1,1,3.07.09.09,0,0,0,.18,0Z"/><path class="cls-12" d="M134.54,79.47a8.62,8.62,0,0,0,2.79,1.65c1.27.6,3,2.12,1.56,3.54-.18.18.09.42.28.27a2.07,2.07,0,0,0,.15-2.9c-1.14-1.46-3.26-1.57-4.64-2.71a.1.1,0,0,0-.14.15Z"/><path class="cls-12" d="M138.52,79.18a5.6,5.6,0,0,1,1.36,6,.18.18,0,0,0,.32.14A5,5,0,0,0,138.65,79c-.1-.07-.21.08-.13.17Z"/><path class="cls-12" d="M137.94,83.7a0,0,0,1,0,0,0s0,0,0,0Z"/><path class="cls-12" d="M138,83.52a5.69,5.69,0,0,1-3.06-4c0-.16-.28-.1-.25.07a5.83,5.83,0,0,0,3.17,4.14c.15.08.29-.15.14-.23Z"/><path class="cls-12" d="M134.05,81.49a5.85,5.85,0,0,0,5.1,3.84c.26,0,.26-.39,0-.41a5.9,5.9,0,0,1-4.9-3.51c-.06-.11-.24,0-.2.08Z"/><path class="cls-12" d="M139.68,91.38c.09-1.27.07-2.57.95-3.59l-.31-.18a2.29,2.29,0,0,0,1.81,2.71c1.06.17,2.55-.64,2.49-1.84a.15.15,0,0,0-.28-.07c-.44.74-.84,1.47-1.81,1.53a1.88,1.88,0,0,1-1.85-2.23c0-.16-.18-.34-.31-.18a5.19,5.19,0,0,0-.92,3.85.12.12,0,0,0,.23,0Z"/><path class="cls-12" d="M115.65,80.25c1.38,1,2.88.2,4-.81,1.4-1.24,2.8-3.11,4.92-1.94a2.77,2.77,0,0,1,.86,4.13,4.14,4.14,0,0,1-3.12,1.87c-.18,0-.14.32,0,.31,2.89-.12,5.61-3.45,3.33-6a3.08,3.08,0,0,0-3.35-.92c-2.46.87-3.45,4.46-6.62,3.24-.1,0-.14.11-.07.17Z"/><path class="cls-12" d="M121.36,82.44c1.17-.17,2.85-.9,3.22-2.19a1.07,1.07,0,0,0-.88-1.45c-1.08-.22-1.68.71-2.2,1.47-1.47,2.17-3.7,2.83-5.91,1.2-.18-.13-.38.15-.23.3a4,4,0,0,0,4.37.76,3.79,3.79,0,0,0,1.61-1.22c.2-.26.48-1.08.76-1.23q2.66.63.69,1.56a5.55,5.55,0,0,1-1.48.63.09.09,0,0,0,0,.17Z"/><path class="cls-12" d="M112.29,79.4a1.82,1.82,0,0,1,2.85.35,1.63,1.63,0,0,1-.25,1.64,2.51,2.51,0,0,1-1.3.81c-.08,0,0,.13,0,.16.62.24,1.35-.29,1.7-.78a2,2,0,0,0,.2-2.1,2,2,0,0,0-3.35-.18c-.06.08.06.17.13.1Z"/><path class="cls-12" d="M113.25,79a25,25,0,0,1-8-.14c-.2,0-.3.26-.09.32a16.37,16.37,0,0,0,8.11,0c.13,0,.07-.23-.06-.21Z"/><path class="cls-12" d="M107.07,81.26a7.84,7.84,0,0,0,5.9-.77c.12-.08,0-.29-.1-.24a12.61,12.61,0,0,1-5.77.84c-.1,0-.12.14,0,.17Z"/><path class="cls-12" d="M110.51,80.9A4.16,4.16,0,0,0,108.39,83c0,.07.07.1.12.06a14.38,14.38,0,0,0,1-1.06c.34-.34.74-.62,1.1-.94.08-.07,0-.17-.1-.13Z"/><path class="cls-12" d="M109.88,69c0-.28-.26-.5-.55-.38,0,0,0,.1,0,.1a.44.44,0,0,1,.49.29s0,0,0,0Z"/><path class="cls-12" d="M106.74,69.42c1.4-.32,2.42-.92,3.94-.71a6.31,6.31,0,0,1,3.82,2.09c.11.13.34,0,.24-.18-1.48-2.11-6.11-3.6-8-1.21,0,0,0,0,0,0Z"/><path class="cls-12" d="M108.18,70.9a3.54,3.54,0,0,1,2.44-.22,5.51,5.51,0,0,1,1.75,1.1c.06,0,.17,0,.14-.11-.65-1.58-3.17-1.69-4.41-.9a.08.08,0,0,0,.08.13Z"/><path class="cls-12" d="M104,69.49a2.61,2.61,0,0,0-3.14-.39,6.27,6.27,0,0,0-2.64,3.6c-.06.15.18.25.25.11a10.49,10.49,0,0,1,1.7-2.79,2.78,2.78,0,0,1,3.71-.4.09.09,0,0,0,.12-.13Z"/><path class="cls-12" d="M99.66,73.79a6.47,6.47,0,0,1,2.72-3.25l-.19-.05a7.52,7.52,0,0,0,.54.91c.07.09.25,0,.2-.08a7.48,7.48,0,0,0-.51-1,.13.13,0,0,0-.18,0,5.57,5.57,0,0,0-2.72,3.42c0,.09.1.15.14.06Z"/><path class="cls-12" d="M102.33,71.46a1.12,1.12,0,0,0-1.47.72c-.14.5.15,1.34.76,1.35a.11.11,0,0,0,.07-.18c-.27-.29-.6-.48-.56-.94a.92.92,0,0,1,1.14-.74.11.11,0,0,0,.06-.21Z"/><path class="cls-12" d="M103.05,75.31a2,2,0,0,0-1.2-1.74,1.81,1.81,0,0,0-2.09.38.1.1,0,0,0,.11.14c.66-.19,1.12-.54,1.85-.24a2,2,0,0,1,1.12,1.48.11.11,0,0,0,.21,0Z"/><path class="cls-12" d="M101.07,64.52c.13-.38.32-.76.77-.79s.56.22.85.38a.08.08,0,0,0,.12-.09c-.08-.45-.7-.63-1.09-.55a1,1,0,0,0-.81,1,.08.08,0,0,0,.16,0Z"/><path class="cls-12" d="M100.38,63.17c.34-1.07,1.55-.87,2.25-.36a13.4,13.4,0,0,1,1.1,1,2.53,2.53,0,0,0,1.7.79c.15,0,.19-.23,0-.26-1.55-.27-2.19-2.1-3.73-2.28a1.27,1.27,0,0,0-1.49,1.06c0,.08.11.09.13,0Z"/><path class="cls-12" d="M104.56,64.89a9.07,9.07,0,0,0,4.16-1.7c.09-.07,0-.19-.12-.14a29.82,29.82,0,0,1-4.07,1.74c-.07,0,0,.11,0,.1Z"/><path class="cls-12" d="M111.14,63.67a31.77,31.77,0,0,0-3.6,2,.1.1,0,1,0,.1.18,31.22,31.22,0,0,0,3.56-2.12.06.06,0,0,0-.06-.1Z"/><path class="cls-12" d="M104.29,66.26a10.92,10.92,0,0,1,8.82,2.33c.15.12.36-.08.21-.21a10,10,0,0,0-9.07-2.27c-.1,0,0,.16,0,.15Z"/><path class="cls-12" d="M111.28,68.72a6.46,6.46,0,0,0-5.41-1.64.16.16,0,0,0,0,.32,10,10,0,0,1,5.3,1.41c.05,0,.12,0,.07-.09Z"/><path class="cls-12" d="M103.49,66.15a2.94,2.94,0,0,0-1.78,2.63c0,.15.21.14.22,0a3.41,3.41,0,0,1,1.6-2.54s0-.11,0-.09Z"/><path class="cls-12" d="M103.15,67.16a1.58,1.58,0,0,0-1.09,1.45.09.09,0,0,0,.17,0,1.73,1.73,0,0,1,1-1.33c.08,0,0-.17-.06-.14Z"/><path class="cls-12" d="M114.65,65.34a3.27,3.27,0,0,1-1.89.58.1.1,0,0,0,0,.19,3.07,3.07,0,0,0,2-.62c.09-.07,0-.22-.09-.15Z"/><path class="cls-12" d="M117.56,66.46a.25.25,0,0,0,0-.5.25.25,0,0,0,0,.5Z"/><path class="cls-12" d="M116.53,67a4.71,4.71,0,0,0-1.4,0,.12.12,0,0,0,0,.24,4.4,4.4,0,0,0,1.4,0,.09.09,0,1,0,0-.17Z"/><path class="cls-12" d="M116.22,68.35a2.55,2.55,0,0,0,2.57,1.58.12.12,0,0,0,0-.24,7.17,7.17,0,0,1-1.27-.47,3.24,3.24,0,0,1-1-1,.17.17,0,0,0-.29.17Z"/><path class="cls-12" d="M120.45,69.93c1.4-.17,3-1.69,2.72-3.23a.1.1,0,0,0-.19,0,4.81,4.81,0,0,1-.73,1.89,3.7,3.7,0,0,1-1.81,1.23c-.06,0-.06.12,0,.11Z"/><path class="cls-12" d="M122.07,70.42a2.36,2.36,0,0,1,2.75.21c.09.07.21-.06.15-.14a2.09,2.09,0,0,0-3-.22.09.09,0,0,0,.11.15Z"/><path class="cls-12" d="M112.26,74.44c1.55-.48,1.52-1.81,2.77-2.61,2.37-1.51,3.5,1.83,4.81,2.85a6.8,6.8,0,0,0,7.74.42c.14-.08,0-.34-.12-.28-2.77,1.09-5.75,1.21-8-1-.71-.68-1.33-2.47-2.38-2.89-2.06-.81-3.46,2.75-4.81,3.43,0,0,0,.11,0,.09Z"/><path class="cls-12" d="M128.8,75.86a24,24,0,0,0-3.25,1.72c-.13.08-.06.32.11.26a24.54,24.54,0,0,0,3.27-1.76c.14-.08,0-.29-.13-.22Z"/><path class="cls-12" d="M122,77.15c-2.63.2-2.79-3.22-4.94-3.92-1.6-.52-2.92.84-3.85,2-.15.17.1.43.25.25,1.19-1.34,2.57-2.52,4.41-1.25.65.45,1,1.41,1.5,2A2.57,2.57,0,0,0,122,77.33c.1,0,.08-.19,0-.18Z"/><path class="cls-12" d="M113.28,75.6a9.14,9.14,0,0,0-2.09.27.11.11,0,0,0,0,.22,9.18,9.18,0,0,0,2.07-.43,0,0,0,0,0,0-.06Z"/><path class="cls-12" d="M115.64,78.06a1.33,1.33,0,0,1,1.14-1,1.56,1.56,0,0,1,1.18.63c.08.08.22,0,.18-.1a1.37,1.37,0,0,0-1.52-.82A1.42,1.42,0,0,0,115.44,78c0,.12.16.13.2,0Z"/><path class="cls-12" d="M115.88,74.45a5.71,5.71,0,0,0-2,3.25.13.13,0,0,0,.26.07,8.29,8.29,0,0,1,1.88-3.2c.08-.08,0-.18-.11-.12Z"/><path class="cls-12" d="M130.17,76.43a1.6,1.6,0,0,1,2.31.39c.18.22.45-.06.36-.28a1.79,1.79,0,0,0-2.85-.3.13.13,0,0,0,.18.19Z"/><path class="cls-12" d="M132.58,82.24c-1,1.07-1.67,2.57-.72,3.9a5,5,0,0,0,4.32,1.7.18.18,0,0,0,0-.36c-1.11-.32-2.29-.3-3.27-1-1.52-1.07-1.31-2.76-.2-4.06.11-.13-.06-.31-.18-.19Z"/><path class="cls-12" d="M129.93,83.25a2.72,2.72,0,0,0-.61,3.59,5.93,5.93,0,0,0,4.56,2.42A.14.14,0,0,0,134,89c-1.18-.54-2.51-.7-3.53-1.57-1.21-1-1.76-2.87-.37-4,.09-.08,0-.24-.12-.17Z"/><path class="cls-12" d="M130.56,80.16a3.65,3.65,0,0,1-4.76,1.36c-.18-.07-.28.21-.13.3a3.81,3.81,0,0,0,5.08-1.56c.07-.12-.12-.22-.19-.1Z"/><path class="cls-12" d="M126.5,80.89a3.85,3.85,0,0,1,1.24-.28c.39,0,.75.07,1.13.06a.08.08,0,0,0,0-.15,3.1,3.1,0,0,0-2.49.18c-.1,0,0,.23.08.19Z"/><path class="cls-12" d="M126.81,79.65a11.29,11.29,0,0,0,1.3,0,4.12,4.12,0,0,0,1.11-.07.05.05,0,0,0,0-.1,4.12,4.12,0,0,0-1.11-.07,11.3,11.3,0,0,0-1.3,0,.08.08,0,0,0,0,.15Z"/><path class="cls-12" d="M127.14,78.7a6.67,6.67,0,0,1,4.64-1.82c.1,0,.13-.17,0-.18A5.73,5.73,0,0,0,127,78.58c-.07.08,0,.19.12.12Z"/><path class="cls-12" d="M122.71,70a3.44,3.44,0,0,0-2.47,5,.06.06,0,0,0,.1,0,4,4,0,0,1,.09-3.15,4.16,4.16,0,0,1,2.29-1.8s0,0,0,0Z"/><path class="cls-12" d="M118.34,70.07a2.14,2.14,0,0,0-.28,2.49c0,.08.16,0,.13,0a2.86,2.86,0,0,1-.19-1.29,7,7,0,0,1,.39-1.11s0-.06,0,0Z"/><path class="cls-12" d="M123.05,75.54c.66-1.12,1.43-2.79.33-3.92a1.38,1.38,0,0,0-2.28.38c0,.15.18.21.24.07a1.11,1.11,0,0,1,1.34-.6,1.56,1.56,0,0,1,1,1.34,4.45,4.45,0,0,1-.77,2.63.1.1,0,0,0,.17.1Z"/><path class="cls-12" d="M122.3,70.23A2.32,2.32,0,0,1,125,72.5a8.41,8.41,0,0,1-.72,3.3.09.09,0,0,0,.16.07c.66-1.27,1.25-3,.6-4.41a2.24,2.24,0,0,0-2.73-1.34c-.06,0,0,.13,0,.11Z"/><path class="cls-12" d="M132.12,73.24s0,0,0,0,0,0,0,0Z"/><path class="cls-12" d="M132,73.19a.32.32,0,0,0-.57.21s.07.06.08,0l.43-.16s.1,0,.06-.06Z"/><path class="cls-12" d="M130,74.38c.57.1,1.15.16,1.74.21.16,0,.16-.24,0-.26-.57-.06-1.15-.11-1.72-.12-.09,0-.12.15,0,.17Z"/><path class="cls-12" d="M127.27,73.28c1.26,1.26,3.73,1.85,5.22.66,0,0,0-.11-.05-.09a7.09,7.09,0,0,1-2.37.43,4.78,4.78,0,0,1-2.7-1.09c-.07,0-.16,0-.1.09Z"/><path class="cls-12" d="M117.56,86.57a3.77,3.77,0,0,1,3.28,2c.37.73.48,1.66,1.19,2.17s1.78.25,1.78-.71a.11.11,0,0,0-.21,0c-.85.69-1.43.72-1.75.09a2.38,2.38,0,0,1-.44-.92c-.1-.25-.17-.5-.29-.74a3.83,3.83,0,0,0-.88-1.16,3.73,3.73,0,0,0-2.68-.94.11.11,0,1,0,0,.21Z"/><path class="cls-12" d="M121.51,88.67a15.86,15.86,0,0,1,2.36-.85,5.73,5.73,0,0,1,2.42-.42l1.21.88a1.45,1.45,0,0,1,0,.77,2.05,2.05,0,0,1-.62,1.21,7.34,7.34,0,0,1-2.4,1.17.1.1,0,0,0,0,.19c1.59-.28,4.17-1.69,3.11-3.7s-4.9-.08-6.24.62c-.09,0,0,.17.07.13Z"/><path class="cls-12" d="M124.55,90l0-.17a.12.12,0,0,0-.23,0l0,.17c0,.17.29.17.27,0Z"/><path class="cls-12" d="M123.56,89.94a5.33,5.33,0,0,0,3.32-.82.14.14,0,0,0-.14-.25,8.1,8.1,0,0,1-3.18.89.09.09,0,0,0,0,.18Z"/><path class="cls-12" d="M124.22,90.09a2.05,2.05,0,0,1-.08,1.87,2.15,2.15,0,0,1-1.64.91c-.13,0-.08.2,0,.22,1.61.2,2.62-1.77,1.9-3.09-.06-.11-.26,0-.21.09Z"/><path class="cls-12" d="M126.63,89.46c-.81.24-1.61.54-2.4.83-.15.06-.09.29.06.24.8-.3,1.61-.6,2.39-1,.06,0,0-.14-.05-.12Z"/><path class="cls-12" d="M123,92.82c-2.31.46-2.68-3.43-4.27-4.39a3.72,3.72,0,0,0-3.43-.18c-.2.08,0,.36.16.28a3.36,3.36,0,0,1,4.07,1.07,23.22,23.22,0,0,1,1,2.19A2,2,0,0,0,123,92.94a.06.06,0,0,0,0-.12Z"/><path class="cls-12" d="M120,87.11a4,4,0,0,1,2.74-1.54,1.17,1.17,0,0,1,.53,2.27c-.05,0,0,.13,0,.14,1.2.23,1.36-1.64.66-2.25-1.39-1.23-3.14.19-4.11,1.22a.11.11,0,0,0,.16.16Z"/><path class="cls-12" d="M121,88a.71.71,0,0,1,.63-.41c.21,0,.65.22.23.28a.05.05,0,0,0,0,.1.32.32,0,0,0,.46-.15.12.12,0,0,0,0-.14.82.82,0,0,0-1.41.27c0,.06.09.11.12,0Z"/><path class="cls-12" d="M120.75,85.93A10.14,10.14,0,0,0,121,84c0-.13-.21-.17-.23,0a9.39,9.39,0,0,0-.12,1.91.07.07,0,0,0,.14,0Z"/><path class="cls-12" d="M123.21,83.62c-1.89,0-4.26,1.19-4.89,3.11a.07.07,0,0,0,.12.07,8.77,8.77,0,0,1,1.89-2,6.35,6.35,0,0,1,2.88-1c.06,0,.06-.09,0-.09Z"/><path class="cls-12" d="M122,82.09a9.2,9.2,0,0,0-5.76,3.21.12.12,0,0,0,.17.16,12.15,12.15,0,0,1,5.6-3.24c.07,0,.06-.13,0-.13Z"/><path class="cls-12" d="M123.15,83.7c.1.42.22.83.28,1.26s0,.87.06,1.29c0,.08.11.1.13,0a3.92,3.92,0,0,0-.35-2.62c0-.08-.14,0-.12,0Z"/><path class="cls-12" d="M127.82,89.09a16.28,16.28,0,0,0,5.84,1.27c.13,0,.17-.21,0-.23a39.56,39.56,0,0,1-5.8-1.31c-.17,0-.23.2-.07.27Z"/><path class="cls-12" d="M126.79,91a51.17,51.17,0,0,0,6.69,1.26c.12,0,.13-.16,0-.19a50.3,50.3,0,0,0-6.68-1.22c-.09,0-.14.13,0,.15Z"/><path class="cls-12" d="M133.83,94c1.31-.5,1.09-2,.35-3a14.36,14.36,0,0,0-2.63-2.15l-4-3c-.21-.16-.41.2-.2.35l3.74,2.81c1.09.81,5.18,3.22,2.68,4.81-.07,0,0,.16.05.13Z"/><path class="cls-12" d="M133.66,89.43a3.74,3.74,0,0,1,3.24,4.88c-.06.19.22.26.29.08a3.86,3.86,0,0,0-3.53-5.18.11.11,0,0,0,0,.22Z"/><path class="cls-12" d="M132,93.81a9.23,9.23,0,0,1,6.09,2.44.15.15,0,0,0,.22-.21A8.16,8.16,0,0,0,132,93.65c-.1,0-.1.16,0,.16Z"/><path class="cls-12" d="M138,94.66c.14-.68,1-4.22,2.24-3.18.9.76-.11,2.28.41,3.21,0,.09.21.06.2,0-.1-.91.29-1.88,0-2.76a1.21,1.21,0,0,0-1-1c-1.54-.14-2.06,2.65-2,3.72,0,.08.13.11.15,0Z"/><path class="cls-12" d="M139.85,92.9a6.76,6.76,0,0,0-.34,2.08c0,.08.13.13.17,0a6.78,6.78,0,0,0,.37-2.11.1.1,0,0,0-.2,0Z"/><path class="cls-12" d="M139.86,95c-.84-.11-1.67-.17-2.51-.24a10.56,10.56,0,0,0-2.51-.09.1.1,0,0,0,0,.19,10,10,0,0,0,2.32.22c.89,0,1.78.1,2.67.09.09,0,.12-.15,0-.17Z"/><path class="cls-12" d="M138.21,92.52a3.73,3.73,0,0,0,0-2.88.19.19,0,0,0-.18-.14,14.66,14.66,0,0,0-2.89.13.12.12,0,0,0,0,.24,14,14,0,0,0,2.89,0l-.17-.14a6.09,6.09,0,0,1,.16,2.75c0,.08.11.11.15,0Z"/><path class="cls-12" d="M135.51,88.3a1.51,1.51,0,0,1,2.21,2,.1.1,0,0,0,.15.12,1.67,1.67,0,0,0-.12-2.34,1.65,1.65,0,0,0-2.31.08c-.05,0,0,.15.07.1Z"/><path class="cls-12" d="M110.83,92.07a5.46,5.46,0,0,1,4.66-.73c1.05.34,2.13,1.7,3.28,1.63,1.44-.1,1.36-1.72,1-2.73a.12.12,0,0,0-.23.06c.22.59,0,1-.8,1.25q-.58,1.31-1.35.48a9.65,9.65,0,0,1-.88-.59,5.36,5.36,0,0,0-5.8.46c-.1.07,0,.24.1.17Z"/><path class="cls-12" d="M112.2,93c2.59-.35,4.55,1.86,7,1.57a2.39,2.39,0,0,0,2.35-2.46c0-.09-.15-.13-.17,0-.79,4.54-6.6.17-9.28.7-.15,0-.08.23,0,.21Z"/><path class="cls-12" d="M122,94.21a1.39,1.39,0,0,1,1.55.26,1.31,1.31,0,0,1,0,1.72c-.1.14.13.31.24.18A1.53,1.53,0,0,0,121.87,94c-.1.06,0,.24.08.2Z"/><path class="cls-12" d="M124,95.35c1.59-.85,3.32-2,4.9-.44.1.1.29,0,.2-.16-1.27-1.85-3.89-.64-5.19.48-.07.06,0,.16.09.12Z"/><path class="cls-12" d="M125.69,91.9a1.4,1.4,0,0,0,.94,1.66c1.38.56,3.37-.69,4.26,1,.07.12.27,0,.23-.09a1.67,1.67,0,0,0-1.4-1.09c-1.09-.2-4.17.71-3.88-1.4,0-.1-.12-.14-.15,0Z"/><path class="cls-12" d="M130.12,79.05a.47.47,0,0,1,.69-.12.87.87,0,0,1,.39.7,5.43,5.43,0,0,1,0,.9,2,2,0,0,0,.23,1.37c.33.45,1.25.66,1.47,0a.17.17,0,0,0-.24-.18.62.62,0,0,1-.87,0,1.53,1.53,0,0,1-.2-1.17,2.77,2.77,0,0,0-.13-1.51c-.3-.56-1.23-.79-1.55-.12a.15.15,0,0,0,.26.15Z"/><path class="cls-12" d="M54.78,81.31c-2.59,12.61,2.37,25.35,11.87,33.84,9.87,8.83,23.11,12.52,36.17,12.27,12.9-.24,26.15-3.73,35.34-13.25s12.66-23,10.16-36c-.06-.28-.49-.16-.44.12a39.47,39.47,0,0,1-11.16,36.62c-9.1,8.71-21.61,11.74-33.9,11.94-25.21.4-52.76-17.12-47.79-45.48,0-.16-.22-.23-.25-.07Z"/><path class="cls-12" d="M85.57,125.24c9.06,4.56,19.91,4.6,29.31,1.09,0,0,0,0,0,0-10,3.37-19.53,2.64-29.29-1.1,0,0,0,0,0,0Z"/><path class="cls-12" d="M116,125.84s0,0,0,0a0,0,0,0,0,0,0Z"/><path class="cls-12" d="M78.13,83.27c-5-22.75-9.94-45.58-15.55-68.18a.09.09,0,0,0-.18,0C67.16,37.93,72.6,60.66,78,83.31c0,.08.14,0,.13,0Z"/><path class="cls-12" d="M63.13,14a3.3,3.3,0,0,0,3.57-.6s0-.15-.08-.11a4,4,0,0,1-3.47.64s-.06,0,0,.07Z"/><path class="cls-12" d="M67,14.75l-.39-.39s0,0,0,0l.38.38s0,0,0,0Z"/><path class="cls-12" d="M67,13.6c1.41,23.08,6.25,46.33,12.09,68.65a.11.11,0,1,0,.22-.06C73.41,59.54,70.09,36.77,67.06,13.6a0,0,0,0,0,0,0Z"/><path class="cls-12" d="M89.32,79.27c10.53-25.18,20.75-50.5,31.07-75.76.07-.16-.19-.23-.26-.07-10.36,25.24-20.83,50.45-31,75.78,0,.11.12.15.17,0Z"/><path class="cls-12" d="M121.76,2.43V2a.06.06,0,0,0-.12,0v.39c0,.09.15.09.14,0Z"/><path class="cls-12" d="M120.11,3.66c1.26.56,2.56,1.11,3.87,1.57.11,0,.19-.15.08-.2-1.26-.57-2.58-1.07-3.89-1.53-.09,0-.15.12-.06.16Z"/><path class="cls-12" d="M122.9,5.36c-11.5,25.42-22,51.31-33,77-.07.18.18.33.26.15,11-25.66,22.38-51.2,32.79-77.09a0,0,0,0,0-.06,0Z"/><path class="cls-12" d="M66.47,13.67c1.77,23,7,46.36,12.27,68.78.12.52.91.3.79-.21C77,70.87,74.6,59.49,72.52,48s-3.41-23-5.64-34.42c0-.23-.43-.19-.41.05Z"/><path class="cls-12" d="M67.05,13.69c-.45-.83-2-.59-2.69-.35s-2.12.92-2.14,1.88a.3.3,0,0,0,.39.29,2.23,2.23,0,0,0,.75-.62,3.48,3.48,0,0,1,1.34-.78c.76-.24,1.6.09,2.29-.22a.15.15,0,0,0,.06-.2Z"/><path class="cls-12" d="M119.41,3.86a3,3,0,0,1,3.25,2c.12.37.71.21.59-.16a3.08,3.08,0,0,0-3.92-2.08.15.15,0,0,0,.08.28Z"/><path class="cls-12" d="M119.45,3.54C114.19,16,109.61,28.83,104.6,41.43S93.37,66.33,89.4,79.14c-.05.16.19.26.26.11,6.16-11.54,10.33-24.6,15.16-36.76,5.12-12.87,10.49-25.74,14.91-38.87.06-.19-.21-.25-.28-.08Z"/><path class="cls-12" d="M119.47,4.21a3,3,0,0,0-.16.76.08.08,0,0,0,.16,0,3.39,3.39,0,0,0,.09-.78,0,0,0,0,0-.09,0Z"/><path class="cls-12" d="M119.55,4.18a4.77,4.77,0,0,0-.27,1.05c0,.12.15.12.19,0a4.58,4.58,0,0,0,.26-1,.09.09,0,0,0-.18-.05Z"/><path class="cls-12" d="M118,8.33a1.45,1.45,0,0,0,1.61,1.09.1.1,0,0,0,0-.19,1.72,1.72,0,0,1-1.53-.93c0-.05-.09,0-.08,0Z"/><path class="cls-12" d="M117.5,11.15a1,1,0,0,0,1.1.81.06.06,0,0,0,0-.11,1.17,1.17,0,0,1-1-.72c0-.07-.12,0-.1,0Z"/><path class="cls-12" d="M116.21,13.52a9.24,9.24,0,0,0,1.28,1.06c.08.05.17-.07.11-.13a9.84,9.84,0,0,0-1.33-1s-.1,0-.06.07Z"/><path class="cls-12" d="M114.69,15.79a1.52,1.52,0,0,0,1.6.81c.07,0,0-.11,0-.12a1.71,1.71,0,0,1-1.47-.76.07.07,0,0,0-.12.07Z"/><path class="cls-12" d="M113.64,18.11a18.38,18.38,0,0,0,1,1.56c0,.07.16,0,.12-.09a18,18,0,0,0-1-1.54c0-.08-.18,0-.13.07Z"/><path class="cls-12" d="M113.08,20.44a15,15,0,0,0,.76,1.56c0,.09.18,0,.14-.08a12.3,12.3,0,0,0-.85-1.5s-.06,0,0,0Z"/><path class="cls-12" d="M111.59,23.79a10.55,10.55,0,0,0,1.31,1.28c.06,0,.14,0,.1-.09a10,10,0,0,0-1.29-1.31c-.08-.08-.19,0-.12.12Z"/><path class="cls-12" d="M111.08,26.31a1.57,1.57,0,0,0,1.34,1.35.08.08,0,0,0,0-.15,1.89,1.89,0,0,1-1.27-1.23.06.06,0,0,0-.11,0Z"/><path class="cls-12" d="M109.81,29.16A19,19,0,0,0,111.33,31c.07.07.19,0,.14-.1a20.76,20.76,0,0,0-1.58-1.8s-.12,0-.08.08Z"/><path class="cls-12" d="M67.63,18.45c-.43.26-.85.52-1.27.8a.1.1,0,0,0,.1.17c.44-.24.87-.5,1.29-.76a.12.12,0,0,0-.12-.21Z"/><path class="cls-12" d="M67.18,21.08c-.44.17-.88.33-1.3.53a.07.07,0,0,0,.05.13c.44-.14.86-.33,1.29-.5.09,0,0-.2,0-.16Z"/><path class="cls-12" d="M67.17,23.39a8,8,0,0,0-1.31.5c-.1.06,0,.23.08.19a7.71,7.71,0,0,0,1.3-.53.09.09,0,0,0-.07-.16Z"/><path class="cls-12" d="M67.44,25.74c-.45.14-.88.31-1.31.49-.07,0,0,.17.06.14.44-.16.86-.34,1.29-.54,0,0,0-.11,0-.09Z"/><path class="cls-12" d="M68.46,27.77a6.73,6.73,0,0,0-1,.5c-.09.05,0,.22.07.17a6.84,6.84,0,0,0,1-.54.07.07,0,0,0-.06-.13Z"/><path class="cls-12" d="M68.74,29.62a2.6,2.6,0,0,1-1.79.89c-.09,0-.13.15,0,.17a1.82,1.82,0,0,0,1.91-1c0-.06,0-.12-.09-.07Z"/><path class="cls-12" d="M69,31.94a7.53,7.53,0,0,0-1.58.47c-.11.05,0,.21.08.19A7.73,7.73,0,0,0,69,32s0-.09,0-.08Z"/><path class="cls-12" d="M69.2,33.14c-.26.17-.52.34-.77.52s0,.24.1.17c.27-.16.52-.33.78-.5.11-.08,0-.27-.11-.19Z"/></svg>