<svg id="carracters" xmlns="http://www.w3.org/2000/svg" viewBox="0 0 198.43 35.43"><defs><style>.cls-1{fill:#fff;}.cls-2{fill:#6e6e6e;opacity:0.5;}</style></defs><path d="M169.55,10.46H172c0,.26-.24.35-.45.44a.21.21,0,0,0-.16.27,53.23,53.23,0,0,0,.94,5.46s0,0,0,.05l.18-.1a15.74,15.74,0,0,1,5.4-2.37.26.26,0,0,0,.24-.26c.24-1.73.49-3.46.74-5.19,0-.07,0-.14.05-.24l2.36.44c-.07.3-.12.33-.68.46L180,13.88c.51,0,1-.06,1.52-.07a5.32,5.32,0,0,1,5.71,4.1,11.62,11.62,0,0,1,.36,4.35c-.09,1-.29,1.94-.42,2.91a.33.33,0,0,0,.12.25L189.06,27s.06,0,.11.11l-1,1.54L186.44,27c-.22.35-.4.68-.62,1a4.39,4.39,0,0,1-3.6,1.84,5.17,5.17,0,0,1-2.23-.35,3.1,3.1,0,0,1-1.64-4.26,3.52,3.52,0,0,1,2.37-1.72,5.7,5.7,0,0,1,3.91.47c.3.13.58.29.91.44.08-.39.16-.77.21-1.15a12.25,12.25,0,0,0-.14-4.27,4.9,4.9,0,0,0-1.21-2.45,3.88,3.88,0,0,0-3-1.15c-.49,0-1,.09-1.47.12-.27,0-.37.14-.44.4A26.31,26.31,0,0,1,177.29,22c-.43.84-.91,1.65-1.38,2.46a.29.29,0,0,0,0,.39c.29.32.56.66.87,1l-.95,1.29L174.73,26l-.22.26a7,7,0,0,1-2.47,2,3.6,3.6,0,0,1-2.56.24A2.56,2.56,0,0,1,167.91,27a6.14,6.14,0,0,1-.4-3.2A9.16,9.16,0,0,1,170.63,18a.55.55,0,0,0,.19-.63,66.31,66.31,0,0,1-1.27-6.72A1.72,1.72,0,0,1,169.55,10.46Zm1.91,9c-.27.31-.53.58-.77.87a6.51,6.51,0,0,0-1.63,4.31,3.58,3.58,0,0,0,.37,1.64,1.19,1.19,0,0,0,1.16.7,2.68,2.68,0,0,0,1.32-.43,7.15,7.15,0,0,0,1.86-1.86A21.68,21.68,0,0,1,171.46,19.47Zm3.29,3.72a23,23,0,0,0,2.95-7.28,13.29,13.29,0,0,0-4.78,2.28.22.22,0,0,0-.1.3c.33.91.61,1.83,1,2.72C174.05,21.87,174.41,22.5,174.75,23.19ZM185.14,26a6.74,6.74,0,0,0-2.67-1.15,3.18,3.18,0,0,0-2.14.35,1.51,1.51,0,0,0-.85,1.44,1.56,1.56,0,0,0,1,1.45,3.64,3.64,0,0,0,2.84,0A3.41,3.41,0,0,0,185.14,26Z"/><path class="cls-1" d="M15.72,10.46h2.47c0,.26-.25.35-.45.44a.23.23,0,0,0-.17.27,50.68,50.68,0,0,0,.95,5.46l0,.05.18-.1a15.74,15.74,0,0,1,5.4-2.37.26.26,0,0,0,.23-.26c.25-1.73.5-3.46.74-5.19,0-.07,0-.14,0-.24L27.52,9c-.07.3-.12.33-.68.46-.24,1.48-.48,3-.73,4.46.52,0,1-.06,1.53-.07a5.31,5.31,0,0,1,5.7,4.1,11.42,11.42,0,0,1,.36,4.35c-.09,1-.28,1.94-.41,2.91a.36.36,0,0,0,.11.25L35.23,27a.37.37,0,0,1,.1.11l-1,1.54L32.61,27c-.22.35-.41.68-.62,1a4.39,4.39,0,0,1-3.6,1.84,5.2,5.2,0,0,1-2.24-.35,3.09,3.09,0,0,1-1.63-4.26,3.5,3.5,0,0,1,2.36-1.72,5.69,5.69,0,0,1,3.91.47c.3.13.59.29.92.44.07-.39.16-.77.21-1.15A12.25,12.25,0,0,0,31.78,19a4.91,4.91,0,0,0-1.22-2.45,3.85,3.85,0,0,0-3-1.15c-.48,0-1,.09-1.46.12-.28,0-.38.14-.44.4A26.31,26.31,0,0,1,23.46,22c-.43.84-.91,1.65-1.38,2.46a.28.28,0,0,0,0,.39c.28.32.56.66.86,1L22,27.12,20.9,26l-.22.26a7.16,7.16,0,0,1-2.47,2,3.61,3.61,0,0,1-2.56.24A2.53,2.53,0,0,1,14.08,27a6.15,6.15,0,0,1-.41-3.2A9.17,9.17,0,0,1,16.8,18a.57.57,0,0,0,.19-.63,66.31,66.31,0,0,1-1.27-6.72A1.72,1.72,0,0,1,15.72,10.46Zm1.91,9c-.28.31-.54.58-.77.87a6.46,6.46,0,0,0-1.63,4.31,3.57,3.57,0,0,0,.36,1.64,1.2,1.2,0,0,0,1.17.7,2.65,2.65,0,0,0,1.31-.43,6.86,6.86,0,0,0,1.86-1.86A22,22,0,0,1,17.63,19.47Zm3.28,3.72a23,23,0,0,0,3-7.28,13.13,13.13,0,0,0-4.78,2.28.22.22,0,0,0-.1.3c.32.91.6,1.83,1,2.72C20.22,21.87,20.57,22.5,20.91,23.19ZM31.3,26a6.62,6.62,0,0,0-2.67-1.15,3.16,3.16,0,0,0-2.13.35,1.51,1.51,0,0,0-.85,1.44,1.56,1.56,0,0,0,1,1.45,3.64,3.64,0,0,0,2.84,0A3.42,3.42,0,0,0,31.3,26Z"/><path class="cls-2" d="M132.37,10.45h2.48c0,.26-.25.36-.46.44a.22.22,0,0,0-.16.28,50.5,50.5,0,0,0,1,5.45l0,.05a1,1,0,0,0,.18-.1,15.85,15.85,0,0,1,5.41-2.36A.27.27,0,0,0,141,14c.25-1.73.5-3.46.74-5.2,0-.07,0-.14.05-.23l2.37.44c-.07.29-.12.32-.68.45l-.72,4.47,1.52-.08A5.32,5.32,0,0,1,150,17.91a11.62,11.62,0,0,1,.36,4.35c-.09,1-.28,1.94-.42,2.91a.35.35,0,0,0,.12.26c.6.54,1.22,1.07,1.83,1.6l.1.11-1,1.55L149.27,27c-.22.35-.4.68-.62,1a4.36,4.36,0,0,1-3.6,1.85,5.3,5.3,0,0,1-2.23-.35,3.09,3.09,0,0,1-1.64-4.26,3.51,3.51,0,0,1,2.36-1.73,5.73,5.73,0,0,1,3.92.48c.3.13.59.28.92.44.07-.4.15-.78.2-1.16a12,12,0,0,0-.13-4.27,5.07,5.07,0,0,0-1.22-2.46,3.91,3.91,0,0,0-3-1.14c-.49,0-1,.09-1.47.12-.28,0-.38.14-.44.4A26.56,26.56,0,0,1,140.12,22c-.43.83-.91,1.64-1.38,2.46a.26.26,0,0,0,0,.38c.28.33.56.66.86,1l-.94,1.28L137.56,26l-.22.25a7.14,7.14,0,0,1-2.48,2,3.55,3.55,0,0,1-2.56.23A2.54,2.54,0,0,1,130.73,27a6.19,6.19,0,0,1-.4-3.21A9.16,9.16,0,0,1,133.45,18a.55.55,0,0,0,.19-.63c-.55-2.22-.94-4.46-1.27-6.72A1.88,1.88,0,0,1,132.37,10.45Zm1.92,9c-.28.31-.54.58-.77.88a6.5,6.5,0,0,0-1.64,4.31,3.57,3.57,0,0,0,.37,1.63,1.18,1.18,0,0,0,1.17.7,2.64,2.64,0,0,0,1.31-.42,7.31,7.31,0,0,0,1.86-1.86A21.49,21.49,0,0,1,134.29,19.47Zm3.28,3.72a23.13,23.13,0,0,0,3-7.28,13.13,13.13,0,0,0-4.78,2.28.22.22,0,0,0-.11.3c.33.91.61,1.83,1,2.72C136.87,21.87,137.23,22.5,137.57,23.19ZM148,26a6.45,6.45,0,0,0-2.68-1.15,3.16,3.16,0,0,0-2.13.34,1.51,1.51,0,0,0-.85,1.44,1.58,1.58,0,0,0,1,1.46,3.64,3.64,0,0,0,2.84,0A3.39,3.39,0,0,0,148,26Z"/><path d="M132.68,13c-.05-.39-.11-.79-.16-1.18s-.11-.78-.17-1.17c0,0,0,0,0-.11h2.46a.41.41,0,0,1-.32.37c-.26.09-.32.23-.27.49.3,1.66.52,3.33.86,5a24.88,24.88,0,0,0,3.47,8.22,9.53,9.53,0,0,0,1.1,1.23c-.12.18-.29.41-.46.63s-.33.46-.55.75c-.4-.43-.8-.81-1.16-1.23a18.6,18.6,0,0,1-3.15-6.17,42.24,42.24,0,0,1-1.61-6.66.51.51,0,0,0-.07-.15Z"/><path d="M166.57,21.54l-.68,0c-.08-.17,0-.23.15-.22s.5,0,.76,0a.19.19,0,0,1,.22.22l-.06.88c-.16.06-.22,0-.21-.15s0-.37,0-.55l-.08,0c-.18.38-.39.76-.54,1.16a5.75,5.75,0,0,0,.08,4.53,3.93,3.93,0,0,0,4.94,2.32A6.52,6.52,0,0,0,174.06,28c.12-.1.22-.22.33-.33.17.06.19.13.07.26a6.47,6.47,0,0,1-4.54,2.14,3.89,3.89,0,0,1-3.72-2.33,6.06,6.06,0,0,1,.15-5.85C166.41,21.81,166.48,21.7,166.57,21.54Z"/><path d="M183.28,23.33c.15-.34.37,0,.55-.11a3.24,3.24,0,0,0-2.73-1.31A3.93,3.93,0,0,0,177.45,25a5.7,5.7,0,0,0,.29,3.71c.08.18.08.18-.12.26a4.76,4.76,0,0,1-.48-1.51,5.53,5.53,0,0,1,.47-3.49A4,4,0,0,1,181,21.69a3.38,3.38,0,0,1,2.9,1.21,1.31,1.31,0,0,1,.14.16c0-.11.07-.2.11-.29l.1-.26c.13,0,.22,0,.15.21s-.13.43-.22.62a.3.3,0,0,1-.23.14A4.26,4.26,0,0,1,183.28,23.33Z"/><path d="M180.94,10.41l.2-.1.49.94,1.58-4.19c.25,0,.19.12.14.26-.46,1.23-.93,2.47-1.4,3.7,0,.08,0,.16-.1.3l.92-.46.11.18c-.39.2-.76.4-1.14.57-.05,0-.19,0-.22-.09C181.32,11.16,181.14,10.79,180.94,10.41Z"/><path d="M132.44,13a.31.31,0,0,1-.05.17c-.2.31-.42.61-.62.91-.07.11-.15.15-.26.07l-1-.72.11-.18.89.6c-.14-1-.28-2-.41-3-.06-.43-.12-.86-.17-1.29,0-.07.06-.14.1-.21l.09,0,.61,4.45c.17-.26.33-.47.47-.7a.21.21,0,0,1,.29-.1Z"/></svg>