<svg xmlns="http://www.w3.org/2000/svg" viewBox="0 0 414.31 436.44"><defs><style>.cls-1{fill:#7a7a7a;}</style></defs><g id="Layer_2" data-name="Layer 2"><g id="Layer_1-2" data-name="Layer 1"><path class="cls-1" d="M194.55,1.54a237,237,0,0,0-6.17,24.19c-2.07,9.78-4.13,21.62-6.18,34l-45.81,1.54L140,26.76C140.5,18,141.54,7.2,141,0Z"/><path class="cls-1" d="M314,155.94c3.08-9.26,6.68-21.62,9.79-28.31l-50.46-12.35a191.11,191.11,0,0,1-5.65,32.95,128.83,128.83,0,0,0-14.41-.52c-25.22,0-54,4.12-81.32,11.32,1.55-19,3.08-37.57,4.63-55.06l-44.77,1.53c-2.06,22.13-4.13,45.82-5.15,69.48C56.1,207.42,0,275.86,0,341.23c0,47.35,28.82,69,64.33,69,27.28,0,56.61-10.29,82.86-24.71,2.06,8.75,4.64,17,7.21,24.71l46.84-13.91c-4.13-12.35-8.24-25.73-11.84-39.62,41.17-35,81.83-89.56,110.14-160.58,42.2,13.38,64.33,44.77,64.33,79.77,0,59.19-49.41,107.57-144.1,117.87L247,436.44c121-19,167.27-85.43,167.27-158C414.31,220.8,375.71,174.47,314,155.94ZM74.63,360.27c-18,0-26.26-9.26-26.26-28.31,0-35.51,31.91-80.81,76.69-108.59,0,39.11,4.64,78.75,11.33,114.77C113.74,352.56,92.12,360.27,74.63,360.27Zm103.44-56.1a532.45,532.45,0,0,1-7.71-89V202.78c22.64-7.2,49.92-13.38,80.81-13.38h3.07C234.17,238.81,207.42,275.35,178.07,304.17Z"/><path d="M358.73,85.44c-51.47,8.75-119.4,15.44-182.2,18.53l-44.77,1.53H107.05c-24.19,0-63.81-2-85.43-3.6L20.07,54.55c17.5,2.58,62.28,6.69,88.52,6.69h27.8L182.2,59.7c63.82-2.57,122-9.26,176-21.61Z"/></g></g></svg>