<svg xmlns="http://www.w3.org/2000/svg" viewBox="0 0 414.31 436.44"><defs><style>.cls-1{fill:#7a7a7a;}</style></defs><g id="Layer_2" data-name="Layer 2"><g id="Layer_1-2" data-name="Layer 1"><path class="cls-1" d="M147.19,385.49c-26.25,14.42-55.58,24.71-82.86,24.71C28.82,410.2,0,388.58,0,341.23,0,275.86,56.1,207.42,126.61,175l-1.55,48.39C80.28,251.15,48.37,296.45,48.37,332c0,19.05,8.25,28.31,26.25,28.31,17.5,0,39.12-7.71,61.77-22.13Z"/><path class="cls-1" d="M414.31,278.44c0,72.57-46.33,139-167.27,158l-27.27-42.71c94.69-10.3,144.1-58.68,144.1-117.87,0-35-22.13-66.39-64.33-79.77-28.3,71-69,125.58-110.14,160.58l-11.33-52.5c29.33-28.82,56.1-65.36,76.17-114.77h-3.09c-30.87,0-58.15,6.18-80.79,13.38L171.9,159c27.28-7.2,56.1-11.32,81.32-11.32a128.83,128.83,0,0,1,14.41.52,192.08,192.08,0,0,0,5.65-32.95l50.44,12.35c-3.09,6.69-6.69,19.05-9.77,28.31C375.71,174.47,414.31,220.8,414.31,278.44Z"/><path d="M189.4,356.67c3.6,13.89,7.71,27.27,11.84,39.62L154.4,410.2c-2.57-7.73-5.15-16-7.21-24.71l-10.8-47.35c-6.69-36-11.33-75.66-11.33-114.77L126.61,175c1-23.66,3.09-47.35,5.15-69.48H107.05c-24.19,0-63.83-2-85.43-3.6L20.07,54.55c17.5,2.58,62.28,6.69,88.52,6.69h27.8L140,26.76C140.5,18,141.54,7.2,141,0l53.51,1.54a245.24,245.24,0,0,0-6.18,24.19c-2.05,9.78-4.11,21.62-6.16,34,63.82-2.57,122-9.26,176-21.61l.51,47.35C307.26,94.19,239.33,100.88,176.53,104c-1.55,17.49-3.08,36-4.63,55.06l-1.54,43.75v12.35a532.45,532.45,0,0,0,7.71,89Z"/></g></g></svg>