<svg xmlns="http://www.w3.org/2000/svg" viewBox="0 0 414.31 436.44"><g id="Layer_2" data-name="Layer 2"><g id="Layer_1-2" data-name="Layer 1"><path d="M323.73,127.64c-3.09,6.69-6.69,19-9.78,28.31,61.76,18.53,100.36,64.85,100.36,122.49,0,72.57-46.32,139-167.27,158l-27.27-42.71c94.69-10.3,144.1-58.68,144.1-117.86,0-35-22.13-66.4-64.33-79.78-28.31,71-69,125.58-110.14,160.58,3.6,13.9,7.72,27.28,11.84,39.63L154.4,410.2c-2.57-7.72-5.14-16-7.21-24.71C121,399.9,91.61,410.2,64.33,410.2,28.82,410.2,0,388.58,0,341.23,0,275.87,56.1,207.41,126.61,175c1-23.67,3.09-47.35,5.15-69.48H107.05c-24.19,0-63.82-2.06-85.43-3.6L20.07,54.55c17.5,2.58,62.28,6.7,88.52,6.7h27.8L140,26.76C140.5,18,141.53,7.21,141,0l53.53,1.54a236.45,236.45,0,0,0-6.18,24.19c-2.06,9.78-4.12,21.62-6.18,34,63.82-2.57,122-9.26,176-21.61l.52,47.35c-51.47,8.74-119.41,15.43-182.2,18.52-1.54,17.5-3.09,36-4.63,55.07,27.28-7.2,56.1-11.32,81.32-11.32a128.83,128.83,0,0,1,14.41.52,192.18,192.18,0,0,0,5.66-32.94ZM136.39,338.14c-6.69-36-11.33-75.65-11.33-114.77C80.29,251.16,48.38,296.45,48.38,332c0,19,8.23,28.3,26.25,28.3C92.12,360.27,113.74,352.55,136.39,338.14Zm34-123a530.4,530.4,0,0,0,7.72,89c29.33-28.82,56.1-65.36,76.17-114.77h-3.09c-30.88,0-58.16,6.18-80.8,13.38Z"/></g></g></svg>