<svg xmlns="http://www.w3.org/2000/svg" viewBox="0 0 363.14 407.3"><defs><style>.cls-1{fill:#7a7a7a;}.cls-2{fill:none;}</style></defs><g id="Layer_2" data-name="Layer 2"><g id="Layer_1-2" data-name="Layer 1"><path d="M328.88,46C270.15,58.73,201.15,66.07,144.37,68.52l-47,1.4s0,0,0,.06h-2A606.34,606.34,0,0,1,0,61.66v48c26.42,2.45,56.77,3.91,88.58,4.4l46.5-1C198.21,110.12,276,101.8,329.37,92.5Z"/><path class="cls-1" d="M363.14,277c0,104.24-103.75,142.91-255,126.75L94.45,354.33c109.63,16.16,217.79,0,217.79-76.34,0-32.79-27.89-58.73-80.26-58.73-57.26,0-108.65,19.57-139.48,57.26a141.48,141.48,0,0,0-14.2,22L32.79,282.39c24-47,43.56-114,55.79-168.36l46.5-1c-7.84,35.73-17.62,75.37-26.92,101.31,41.11-26.43,79.28-37.19,129.2-37.19C315.18,177.17,363.14,217.79,363.14,277Z"/><path class="cls-1" d="M158.57,2.45c-4.41,14.68-7.34,30.34-9.79,44.53l-4.41,21.54-47,1.4q2.94-15.36,4.4-26.36c2-17.62,2.93-29.37,2-43.56Z"/><line class="cls-2" x1="97.4" y1="69.92" x2="95.43" y2="69.98"/></g></g></svg>