<svg xmlns="http://www.w3.org/2000/svg" viewBox="0 0 363.14 407.3"><g id="Layer_2" data-name="Layer 2"><g id="Layer_1-2" data-name="Layer 1"><path d="M329.37,92.5c-53.34,9.3-131.16,17.62-194.29,20.55-7.83,35.73-17.62,75.37-26.92,101.31,41.11-26.43,79.28-37.19,129.21-37.19,77.81,0,125.77,40.62,125.77,99.84,0,104.24-103.75,142.91-255,126.75l-13.7-49.43c109.62,16.16,217.78,0,217.78-76.34,0-32.79-27.89-58.73-80.26-58.73-57.26,0-108.65,19.57-139.48,57.26a140.72,140.72,0,0,0-14.19,22L32.79,282.39c24-47,43.56-114,55.79-168.36-31.81-.49-62.15-2-88.58-4.4v-48A606.33,606.33,0,0,0,95.43,70h2q2.94-15.42,4.41-26.43c2-17.62,2.93-29.37,2-43.56l54.82,2.45c-4.4,14.68-7.34,30.34-9.79,44.53l-4.4,21.54C201.15,66.07,270.16,58.73,328.89,46Z"/></g></g></svg>