<svg xmlns="http://www.w3.org/2000/svg" viewBox="0 0 405.52 427.42"><defs><style>.cls-1{fill:#7a7a7a;}</style></defs><g id="Layer_2" data-name="Layer 2"><g id="Layer_1-2" data-name="Layer 1"><path d="M102.39,0,94.75,46.87c60.63,10.69,151.31,21.9,203.27,26L304.64,26C254.72,22.92,157.92,11.2,102.39,0Z"/><path class="cls-1" d="M405.52,364.25l-3.06,53.49c-21.4,3.57-70.3,7.14-96.79,7.14-43.31,0-69.29-9.68-80.5-42.8-5.09-15.28-11.71-42.28-16.3-56-6.12-17.32-16.3-25.47-29-25.47-11.72,0-22.92,7.64-35.15,19.36-18.34,17.83-65.21,67.76-96.8,107.49L0,394.31a243.68,243.68,0,0,0,29-26.49C52,345.4,174.74,223.13,222.63,173.72c-37.71,2-111.57,8.15-142.14,10.7C64.18,186,49.92,188,38.71,190l-4.58-56c11.72,1,28.53,1.53,45.34,1.53,27-.51,142.64-7.13,182.89-12.23,8.66-1,20.38-3.56,25.47-5.6l30.06,33.62c-11.21,8.15-22.41,17.83-30.06,23.95C267.46,194.1,215,242,199.19,258.8c4.59-.51,14.27,1,18.85,2.54,17.32,3.06,28,15.8,35.15,35.67,4.59,14.26,10.7,36.68,15.8,51.45,5.09,17.83,16.81,26,39.73,26C344.38,374.44,381.06,369.86,405.52,364.25Z"/></g></g></svg>