<svg xmlns="http://www.w3.org/2000/svg" viewBox="0 0 405.52 427.43"><g id="Layer_2" data-name="Layer 2"><g id="Layer_1-2" data-name="Layer 1"><path d="M287.84,175.25C267.46,194.1,215,242,199.19,258.8c4.59-.51,14.27,1,18.85,2.55,17.32,3.06,28,15.79,35.15,35.66,4.59,14.26,10.7,36.68,15.8,51.45,5.09,17.84,16.81,26,39.73,26,35.67,0,72.35-4.59,96.8-10.19l-3.06,53.49c-21.39,3.56-70.3,7.13-96.79,7.13-43.3,0-69.29-9.68-80.49-42.79-5.1-15.29-11.72-42.29-16.31-56-6.11-17.32-16.3-25.47-29-25.47-11.71,0-22.92,7.64-35.15,19.36-18.34,17.83-65.21,67.75-96.79,107.49L0,394.31a244.43,244.43,0,0,0,29-26.49C52,345.41,174.74,223.14,222.63,173.72c-37.7,2-111.57,8.16-142.14,10.7C64.19,186,49.93,188,38.72,190l-4.59-56c11.72,1,28.53,1.53,45.34,1.53,27-.51,142.65-7.14,182.9-12.23,8.66-1,20.37-3.57,25.47-5.61l30.06,33.63C306.69,159.46,295.48,169.14,287.84,175.25ZM304.65,26,298,72.85c-52-4.07-142.65-15.28-203.27-26L102.4,0C157.93,11.21,254.72,22.93,304.65,26Z"/></g></g></svg>