<svg xmlns="http://www.w3.org/2000/svg" viewBox="0 0 459.04 405.2"><defs><style>.cls-1{fill:#7a7a7a;}</style></defs><g id="Layer_2" data-name="Layer 2"><g id="Layer_1-2" data-name="Layer 1"><path d="M306.52,62.29C275.12,40.86,221.29,15.44,182.42,0L153,36.88c37.88,14.45,80.75,36.88,102.67,52.83-7.47,6-20.43,16-32.89,23.92L254.69,143c18.94-13.46,50.84-38.88,63.3-49.35Z"/><path class="cls-1" d="M459,347.89l-46.85,24.92c-13-47.85-46.85-118.62-80.75-158.5l42.37-22.92C406.21,230.26,444.09,303,459,347.89Z"/><path class="cls-1" d="M311,325.46c0,63.3-48.35,79.74-91.21,79.74-29.41,0-57.32-3.49-79.75-7.47l-7.47-52.34a256.54,256.54,0,0,0,78.25,12c23.92,0,46.35-9,46.35-37.38,0-31.9-35.39-76.76-60.31-102.68-11.46-11.46-27.41-25.91-41.86-37.88L192.88,147c13.46,13.46,25.92,26.42,37.88,38.88C280.11,236.74,311,280.6,311,325.46Z"/><path class="cls-1" d="M155.5,278.11c-28.41,29.41-75.75,70.27-126.09,100.68L0,336.42c41.36-21.93,97.19-65.29,125.6-96.69Z"/></g></g></svg>