<svg xmlns="http://www.w3.org/2000/svg" viewBox="0 0 459.04 405.2"><defs><style>.cls-1{fill:#7a7a7a;}</style></defs><g id="Layer_2" data-name="Layer 2"><g id="Layer_1-2" data-name="Layer 1"><path d="M306.52,62.29C275.13,40.86,221.3,15.44,182.42,0L153,36.88c37.88,14.45,80.75,36.88,102.68,52.83-7.48,6-20.44,16-32.9,23.92L254.69,143c18.94-13.46,50.84-38.88,63.3-49.35ZM230.77,185.9c-12-12.46-24.43-25.42-37.89-38.88L155,179.42c14.45,12,30.4,26.42,41.86,37.88,24.92,25.92,60.31,70.78,60.31,102.68,0,28.4-22.43,37.38-46.35,37.38a256.54,256.54,0,0,1-78.25-12l7.47,52.34c22.43,4,50.34,7.47,79.75,7.47,42.86,0,91.21-16.44,91.21-79.74C311,280.6,280.11,236.74,230.77,185.9ZM125.6,239.73C97.19,271.13,41.37,314.49,0,336.42l29.41,42.37c50.34-30.41,97.68-71.27,126.1-100.68Z"/><path class="cls-1" d="M459,347.89l-46.85,24.92c-13-47.85-46.85-118.62-80.75-158.5l42.37-22.92C406.21,230.26,444.09,303,459,347.89Z"/></g></g></svg>