<svg xmlns="http://www.w3.org/2000/svg" viewBox="0 0 459.04 405.21"><g id="Layer_2" data-name="Layer 2"><g id="Layer_1-2" data-name="Layer 1"><path d="M29.41,378.79,0,336.43c41.37-21.93,97.19-65.3,125.6-96.7l29.91,38.38C127.1,307.52,79.75,348.39,29.41,378.79ZM132.58,345.4a256.54,256.54,0,0,0,78.25,12c23.92,0,46.35-9,46.35-37.38,0-31.9-35.38-76.76-60.3-102.67-11.47-11.47-27.42-25.92-41.87-37.88L192.88,147c13.46,13.46,25.92,26.41,37.89,38.88C280.11,236.75,311,280.61,311,325.46c0,63.3-48.35,79.75-91.21,79.75-29.41,0-57.32-3.49-79.75-7.48Zm90.21-231.76c12.46-8,25.42-17.94,32.9-23.93C233.76,73.76,190.89,51.33,153,36.88L182.42,0c38.88,15.45,92.71,40.87,124.11,62.3L318,93.7c-12.46,10.46-44.36,35.89-63.3,49.34Zm189.4,259.17c-13-47.85-46.85-118.62-80.74-158.49l42.36-22.93C406.21,230.27,444.09,303,459,347.89Z"/></g></g></svg>