<svg xmlns="http://www.w3.org/2000/svg" viewBox="0 0 421.2 405.2"><defs><style>.cls-1{fill:#7a7a7a;}</style></defs><g id="Layer_2" data-name="Layer 2"><g id="Layer_1-2" data-name="Layer 1"><path d="M100.43,248.32,75,228.34c-7.5,18-18,42-25,62.45a367.91,367.91,0,0,1-3.5-52c0-53,15-155.89,24-195.87,2-9,6.5-29.47,10-38L26,0c-.5,13-2.5,28.48-4,41C16,80.44,0,174.37,0,248.32,0,315.27,9.5,370.73,19.49,405.2l44-3c-.5-6-.5-13.49-1-18.49A119.71,119.71,0,0,1,65,361.24C70.45,335.75,87.44,285.29,100.43,248.32ZM318.77,86.94l-48.46,3c-14,.5-27.48,1-41.47,1-29.48,0-57-1.5-85.44-4l.5,47c29,1.5,56,3,84.44,3,14,0,28-.5,42-1l48.46-2.5c28.48-2,56.46-5,81.94-9V75.94C375.23,80.94,347.75,84.44,318.77,86.94Z"/><path class="cls-1" d="M323.27.5c-1.5,10-2.5,20.48-3,30.48-.5,12.49-1,33.47-1.5,56l-48.46,3c0-24.48-.5-45.46-.5-58a175.91,175.91,0,0,0-3-31.47Z"/><path class="cls-1" d="M324.27,265.31c-1.5-38-4.5-82.44-5.5-131.91l-48.46,2.5c1,38.47,3,80.94,4.5,115.42a254.67,254.67,0,0,0-40-3c-66,0-105.42,34-105.42,79.44,0,47.47,39,75.45,105.92,75.45,68.95,0,90.94-39,90.94-84.94v-1.5c23,14,45.47,32.48,68.45,54l26.48-41C396.22,307.28,365.24,281.79,324.27,265.31Zm-47.47,42c0,31-11.49,49.46-48,49.46-31.48,0-53.47-11.49-53.47-34.48,0-20.48,22.49-35,55.47-35,16,0,31,2.5,46,6.5Z"/></g></g></svg>