<svg xmlns="http://www.w3.org/2000/svg" viewBox="0 0 421.2 405.21"><g id="Layer_2" data-name="Layer 2"><g id="Layer_1-2" data-name="Layer 1"><path d="M80.44,5c-3.5,8.49-8,29-10,38-9,40-24,142.9-24,195.86a366.23,366.23,0,0,0,3.5,52c7-20.48,17.48-44.46,25-62.45l25.48,20c-13,37-30,87.44-35.48,112.92a119.1,119.1,0,0,0-2.5,22.48c.51,5,.51,12.49,1,18.49l-44,3C9.49,370.73,0,315.28,0,248.32,0,174.38,16,80.44,22,41c1.49-12.49,3.49-28,4-41ZM394.72,370.73c-23-21.48-45.47-40-68.45-54v1.5c0,46-22,84.94-90.94,84.94-67,0-105.92-28-105.92-75.44,0-45.47,39.47-79.45,105.42-79.45a254.44,254.44,0,0,1,40,3c-1.5-34.47-3.5-76.94-4.49-115.42-14,.5-28,1-42,1-28.48,0-55.46-1.49-84.44-3l-.5-47c28.48,2.5,56,4,85.44,4,14,0,27.48-.51,41.47-1,0-24.48-.5-45.47-.5-58a176.1,176.1,0,0,0-3-31.48h56.46c-1.5,10-2.5,20.48-3,30.48-.5,12.49-1,33.47-1.5,56,29-2.5,56.46-6,81.94-11v48.46c-25.48,4-53.46,7-81.94,9,1,49.47,4,93.94,5.5,131.91,41,16.49,72,42,96.93,64.45ZM276.8,293.79c-15-4-30-6.5-46-6.5-33,0-55.47,14.5-55.47,35,0,23,22,34.47,53.47,34.47,36.47,0,48-18.48,48-49.46Z"/></g></g></svg>