<svg xmlns="http://www.w3.org/2000/svg" viewBox="0 0 594.94 405.21"><g id="Layer_2" data-name="Layer 2"><g id="Layer_1-2" data-name="Layer 1"><path d="M50.85,190.61c32.35-33.67,85.84-105,124.8-151.21,40.94-48.2,79.89-53.49,124.79-8.58C341.38,71.75,393.55,138.45,433.83,182c40.27,44.24,101,109,161.11,162.43l-52.16,60.75c-48.87-45.56-107-110.27-150.55-160.45-41.6-48.2-91.12-110.94-121.5-144.61-26.41-27.73-38.3-24.43-58.77,2-28.39,36.32-79.24,105-109.61,143.94-14.53,18.49-29,40.29-40.28,55.48L0,237.49C17.83,223.63,32.36,209.76,50.85,190.61Z"/></g></g></svg>