<svg xmlns="http://www.w3.org/2000/svg" viewBox="0 0 428.54 405.21"><g id="Layer_2" data-name="Layer 2"><g id="Layer_1-2" data-name="Layer 1"><path d="M391,247a555.91,555.91,0,0,1-54.26-81.65c7.6,121.72-46.66,239.88-176.49,239.88-82.16,0-134.9-52.74-134.9-135.91C25.36,187.65,70,109,110.56,64.91,88.24,68.47,54.77,74.05,35.5,77.6c-9.13,2-17.24,3.54-28.4,6.59L0,31.45a260.84,260.84,0,0,0,27.39-1.53C75.06,25.87,161.78,11.67,192.71.51l15.22,45.14c-7.1,2.53-18.76,6.08-25.87,10.14-33.47,25.35-106.5,117.15-106.5,206.4,0,63.4,40.58,89.77,86.73,89.77C263.72,352,321,232.78,284,48.69,280,38,276.4,26.88,272.34,15.22L321,0c13.18,61.88,42.09,142,107.51,207.43Z"/></g></g></svg>