<svg xmlns="http://www.w3.org/2000/svg" viewBox="0 0 419.74 405.2"><defs><style>.cls-1{fill:#7a7a7a;}</style></defs><g id="Layer_2" data-name="Layer 2"><g id="Layer_1-2" data-name="Layer 1"><path d="M100.68,247.93l-25-20c-8,18-18.54,43.07-25.55,63.61a382.43,382.43,0,0,1-3.51-53.09c0-53.1,14.53-155.28,23.55-195.35,2-9,6.51-29,10-38.07L25.05,0a357.18,357.18,0,0,1-4,41.07C15,80.64,0,173.8,0,247.93,0,315.05,9,370.64,19,405.2l45.07-3c-.5-6-1-13.53-1-18.53-.5-6,1-16,2.51-22.54C70.63,335.58,87.66,285,100.68,247.93ZM157.78,23V67.11c36.56,1.5,73.63,2,108.69,1l45.58-2c29.05-1.5,55.6-3.5,77.64-6V16.53C330.08,24.54,241.93,29.55,157.78,23ZM312.05,139.24l-45.58,2a1145.63,1145.63,0,0,1-116.7-2.5l.5,45.58c39.06,2,78.64,2,116.7,1.5l45.58-2c32.56-1.5,62.61-3.51,88.16-6.51V131.23C373.66,134.73,344.11,137.24,312.05,139.24Z"/><path class="cls-1" d="M316.06,268c-1.51-26-3-55.09-3.51-84.14l-45.58,2c.5,23,1.5,48.08,2.5,70.63a235.38,235.38,0,0,0-38.56-3c-66.12,0-98.17,34.56-98.17,73.12,0,49.59,43.57,73.64,99.67,73.64,57.6,0,86.15-26.55,86.15-68.62v-15c26.55,14.53,52.09,34.56,75.14,58.1l26-43.57C397.7,311.54,363.14,284,316.06,268ZM226.9,356.12c-30.05,0-49.09-11-49.09-32.56,0-19,19.54-32.05,51.59-32.05a146.72,146.72,0,0,1,41.58,6c.5,6,.5,11.53.5,16C271.48,339.09,261.46,356.12,226.9,356.12Z"/><polygon class="cls-1" points="312.05 66.11 312.05 139.24 266.47 141.24 266.47 68.11 312.05 66.11"/></g></g></svg>