<svg xmlns="http://www.w3.org/2000/svg" viewBox="0 0 419.74 405.21"><g id="Layer_2" data-name="Layer 2"><g id="Layer_1-2" data-name="Layer 1"><path d="M80.14,5c-3.5,9-8,29.05-10,38.07-9,40.07-23.54,142.25-23.54,195.34a382.22,382.22,0,0,0,3.51,53.09c7-20.54,17.53-45.58,25.54-63.61l25.05,20c-13,37.07-30.06,87.66-35.06,113.21-1.51,6.5-3,16.52-2.51,22.53,0,5,.5,12.52,1,18.53l-45.08,3C9,370.65,0,315.05,0,247.93,0,173.81,15,80.64,21,41.07A357.21,357.21,0,0,0,25,0ZM400.7,177.31c-25.54,3-55.59,5-88.15,6.51.5,29.05,2,58.1,3.51,84.15,47.08,16,81.64,43.58,103.68,63.11l-26.05,43.57c-23-23.54-48.58-43.57-75.13-58.1v15c0,42.08-28.55,68.62-86.15,68.62-56.1,0-99.68-24-99.68-73.63,0-38.57,32.06-73.13,98.18-73.13a236.49,236.49,0,0,1,38.56,3c-1-22.54-2-47.58-2.5-70.63-38.07.51-77.64.51-116.7-1.5l-.51-45.58a1145.88,1145.88,0,0,0,116.71,2.51V68.12c-35.06,1-72.13.5-108.69-1V23c84.15,6.51,172.3,1.5,231.9-6.51V60.1c-22,2.51-48.58,4.51-77.63,6v73.14c32.05-2,61.61-4.51,88.65-8ZM271,297.52a146.38,146.38,0,0,0-41.58-6c-32.05,0-51.59,13-51.59,32.06,0,21.54,19,32.55,49.09,32.55,34.56,0,44.58-17,44.58-42.57C271.48,309,271.48,303.53,271,297.52Z"/></g></g></svg>