<svg xmlns="http://www.w3.org/2000/svg" viewBox="0 0 458.09 406.88"><defs><style>.cls-1{fill:#7a7a7a;}</style></defs><g id="Layer_2" data-name="Layer 2"><g id="Layer_1-2" data-name="Layer 1"><path class="cls-1" d="M357.37,15.37,301,34.15c56.91,67.14,89.34,188.36,98.45,285.1l58.61-22.76C450.69,204.86,409.16,80.81,357.37,15.37Z"/><path d="M247,276.57c-35.85,96.74-70.56,130.31-112.1,130.31C78,406.88,25.61,352.26,10.24,203.72,4.55,154.22,4,87.06,4,52.92,4,38.7,3.41,15.37,0,0L68.85,1.14C66,17.65,63.16,46.66,63.16,62c-.57,35.29,0,83.08,4,126.9,8.55,88.77,31.31,148,68.87,148,28.45,0,52.92-61.46,65.43-113.25Z"/></g></g></svg>