<svg xmlns="http://www.w3.org/2000/svg" viewBox="0 0 458.09 406.88"><g id="Layer_2" data-name="Layer 2"><g id="Layer_1-2" data-name="Layer 1"><path d="M63.16,62c-.57,35.28,0,83.08,4,126.9,8.53,88.77,31.3,148,68.85,148,28.46,0,52.93-61.45,65.45-113.24L247,276.57c-35.85,96.73-70.56,130.31-112.1,130.31C78,406.88,25.61,352.25,10.24,203.73,4.55,154.22,4,87.07,4,52.93,4,38.7,3.41,15.37,0,0L68.85,1.14C66,17.64,63.16,46.67,63.16,62ZM458.09,296.48l-58.61,22.77C390.37,222.51,357.94,101.3,301,34.15l56.34-18.78C409.15,80.81,450.7,204.86,458.09,296.48Z"/></g></g></svg>