<svg xmlns="http://www.w3.org/2000/svg" viewBox="0 0 470.32 433.02"><defs><style>.cls-1{fill:#7a7a7a;}</style></defs><g id="Layer_2" data-name="Layer 2"><g id="Layer_1-2" data-name="Layer 1"><path class="cls-1" d="M124,111.41l-11,48.35c-23.65,2.63-44.67,4.73-56.23,6.3-13.66,1.58-37.31,4.73-52,7.36L0,116.67c17.34,1,32.58.52,49.92,0C66.74,116.14,94.59,114,124,111.41Z"/><path class="cls-1" d="M318.45,197.59c0,61.49-7.88,144-29.95,188.66-16.82,35.21-43.62,45.19-80.4,45.19-19.45,0-44.67-3.68-61.49-7.88l-8.93-54.65c21,6.3,49.92,11,64.11,11,18.39,0,33.11-4.73,42.56-24.7,15.77-32.58,23.13-97.74,23.13-151.87,0-44.66-20-52-53.08-52-10.51,0-27.85,1.05-47.29,2.63l10.51-47.3c21.54-1.58,39.93-2.63,52-2.63C280.09,104.05,318.45,125.07,318.45,197.59Z"/><path class="cls-1" d="M470.32,247.52l-51.5,24.69C404.11,217,364.69,124,327.91,79.36l48.87-21C408.84,102,453.5,198.65,470.32,247.52Z"/><path d="M197.59,6.31c-2.63,11-5.26,24.18-7.36,35.73-3.15,15.77-7.88,41-12.61,64.64L167.11,154c-19.45,76.72-56.23,196-107.2,279L5.78,411.47C57.28,342.1,94.59,230.17,113,159.76l11-48.35C131.37,73.05,136.63,33.64,136.1,0Z"/></g></g></svg>