<svg xmlns="http://www.w3.org/2000/svg" viewBox="0 0 470.32 433.02"><defs><style>.cls-1{fill:#7a7a7a;}</style></defs><g id="Layer_2" data-name="Layer 2"><g id="Layer_1-2" data-name="Layer 1"><path d="M229.64,104.05c-12.09,0-30.48,1-52,2.63C182.35,83,187.08,57.81,190.23,42c2.1-11.55,4.73-24.69,7.36-35.73L136.1,0c.53,33.64-4.73,73.05-12.08,111.41-29.43,2.63-57.28,4.73-74.1,5.26-17.34.52-32.58,1-49.92,0l4.73,56.75c14.71-2.63,38.36-5.78,52-7.36,11.56-1.57,32.58-3.67,56.23-6.3C94.59,230.17,57.28,342.1,5.78,411.47L59.91,433c51-83,87.75-202.32,107.2-279,19.44-1.58,36.78-2.63,47.29-2.63,33.11,0,53.08,7.36,53.08,52,0,54.13-7.36,119.29-23.13,151.87-9.45,20-24.17,24.7-42.56,24.7-14.19,0-43.09-4.73-64.11-11l8.93,54.65c16.82,4.2,42,7.88,61.49,7.88,36.78,0,63.58-10,80.4-45.19,22.07-44.67,29.95-127.17,29.95-188.66C318.45,125.07,280.09,104.05,229.64,104.05Z"/><path class="cls-1" d="M470.32,247.52l-51.5,24.69C404.11,217,364.69,124,327.91,79.36l48.87-21C408.84,102,453.5,198.65,470.32,247.52Z"/></g></g></svg>