<svg xmlns="http://www.w3.org/2000/svg" viewBox="0 0 470.32 433.01"><g id="Layer_2" data-name="Layer 2"><g id="Layer_1-2" data-name="Layer 1"><path d="M197.59,6.31c-2.63,11-5.26,24.17-7.36,35.73-3.15,15.77-7.88,41-12.61,64.64,21.54-1.58,39.93-2.63,52-2.63,50.45,0,88.81,21,88.81,93.54,0,61.48-7.88,144-29.95,188.65-16.82,35.21-43.62,45.2-80.4,45.2-19.45,0-44.67-3.68-61.49-7.89l-8.93-54.65c21,6.31,49.92,11,64.11,11,18.39,0,33.11-4.73,42.56-24.7,15.77-32.58,23.13-97.74,23.13-151.87,0-44.67-20-52-53.08-52-10.51,0-27.85,1.06-47.29,2.63-19.45,76.73-56.23,196-107.2,279L5.78,411.47C57.28,342.1,94.59,230.17,113,159.75c-23.65,2.63-44.67,4.73-56.23,6.31-13.66,1.58-37.31,4.73-52,7.36L0,116.66c17.34,1,32.58.53,49.92,0,16.82-.53,44.67-2.63,74.1-5.25C131.37,73,136.63,33.63,136.1,0Zm179.19,52C408.84,102,453.5,198.64,470.32,247.51l-51.5,24.7C404.11,217,364.69,124,327.91,79.35Z"/></g></g></svg>