<svg xmlns="http://www.w3.org/2000/svg" viewBox="0 0 409.46 428.76"><defs><style>.cls-1{fill:#7a7a7a;}</style></defs><g id="Layer_2" data-name="Layer 2"><g id="Layer_1-2" data-name="Layer 1"><path d="M106.18,238.76,79.76,222c-8.64,22.35-18.29,49.79-25.4,68.58C38.1,216.92,55.37,109.22,69.6,44.2,72.14,34,76.2,18.29,79.76,7.62L20.83,2c-.51,10.16-1,24.89-3,37.59C11.68,81.28,0,158.5,0,240.8c0,62.48,16.77,130.05,27.43,161l43.69-5.08c0-6.1-1-13.72-1-18.8-.51-5.59,1-15.75,2.54-22.86C78.23,328.17,93,277.37,106.18,238.76Z"/><path class="cls-1" d="M330.72,102.11l-49.28,3c-.51-30.49-1.53-60.46-2.54-73.67A241.77,241.77,0,0,0,273.82,0h58.42c-1.52,9.65-1.52,20.32-2,31.49S330.21,72.14,330.72,102.11Z"/><path class="cls-1" d="M331.23,151.39v18.79c0,116.85-4.07,195.08-107.7,258.58l-46.74-36.58c17.27-7.62,40.13-21.33,53.34-35.56,47.24-43.68,52.33-95,52.33-187V153.93Z"/><path d="M409.46,91.44v52.33c-21.85,3-48.77,5.58-78.23,7.62l-48.77,2.54c-20.33.51-40.64,1-60.46,1-23.37,0-56.39-1.52-79.76-3V101.09c23.37,3.56,51.82,5.08,78.75,5.08,19.3,0,40.13-.5,60.45-1l49.28-3C359.67,99.57,387.11,96,409.46,91.44Z"/></g></g></svg>