<svg xmlns="http://www.w3.org/2000/svg" viewBox="0 0 409.46 428.76"><g id="Layer_2" data-name="Layer 2"><g id="Layer_1-2" data-name="Layer 1"><path d="M79.76,7.62C76.2,18.29,72.14,34,69.6,44.2c-14.23,65-31.5,172.72-15.24,246.38,7.11-18.79,16.76-46.23,25.4-68.58l26.42,16.76C93,277.37,78.23,328.17,72.64,355.1c-1.52,7.11-3,17.27-2.53,22.86,0,5.08,1,12.7,1,18.8l-43.69,5.08C16.77,370.85,0,303.28,0,240.8,0,158.5,11.68,81.28,17.78,39.62c2-12.7,2.54-27.43,3-37.59Zm329.7,136.15c-21.85,3-48.77,5.58-78.23,7.62v18.79c0,116.85-4.07,195.08-107.7,258.58l-46.74-36.58c17.27-7.61,40.13-21.33,53.34-35.56,47.24-43.68,52.33-95,52.33-187V153.93c-20.33.51-40.64,1-60.46,1-23.37,0-56.39-1.52-79.76-3V101.09c23.37,3.56,51.82,5.08,78.75,5.08,19.3,0,40.13-.5,60.45-1-.51-30.48-1.53-60.45-2.54-73.67A241.77,241.77,0,0,0,273.82,0h58.42c-1.52,9.65-1.52,20.32-2,31.49s0,40.65.51,70.62c28.95-2.54,56.38-6.1,78.74-10.67Z"/></g></g></svg>