<svg xmlns="http://www.w3.org/2000/svg" viewBox="0 0 352.28 428.76"><defs><style>.cls-1{fill:#7a7a7a;}</style></defs><g id="Layer_2" data-name="Layer 2"><g id="Layer_1-2" data-name="Layer 1"><path class="cls-1" d="M278.8,368.37l-1.51,50.33c-29.19,5.53-79,10.06-123.29,10.06-91.09,0-145.44-31.2-145.44-96.62,0-21.64,6-46.3,11.57-64.42l48.82,4c-6,15.6-11.57,37.24-11.57,49.82,0,35.23,26.67,57.87,95.11,57.87C195.77,379.44,243.58,375.92,278.8,368.37Z"/><path class="cls-1" d="M314,281.31l-23.65,30.2c-26.17-5-69.95-11.08-102.16-15.1l4-38.25c22.65,2.52,44.29,4.53,58.88,6-8.55-19.12-18.11-41.26-28.18-62.9l47.81-8.06C284.84,222.43,299.94,254.64,314,281.31Z"/><path class="cls-1" d="M252.13,152l-47.3,7.55-13.59-31.71c-4-9.06-8.05-18.11-11.58-26.67L227,94.61,236,115.75C240.05,124.8,245.59,137.39,252.13,152Z"/><path class="cls-1" d="M210.36,53.34,161,58.88l-4-8.56C149,33.21,143.93,23.65,136.38,11.57L192.75,0C196.77,16.1,203.32,34.22,210.36,53.34Z"/><path d="M352.28,172.61c-21.14,7.55-49.32,14.59-81.53,20.63l-47.81,8.06c-62.9,8-143.93,9-220.92,4L0,159.53c75.49,7,146.45,6.54,204.83,0l47.3-7.55a549.43,549.43,0,0,0,90.58-24.16Z"/><path d="M316,74C290.38,82.53,260.18,89.07,227,94.61l-47.31,6.54C129.84,105.68,67.44,105.68,6,99.64L3,53.85c58.38,6.54,111.22,8,158,5l49.32-5.54a609.56,609.56,0,0,0,97.13-23.65Z"/></g></g></svg>