<svg xmlns="http://www.w3.org/2000/svg" viewBox="0 0 352.28 428.76"><defs><style>.cls-1{fill:#7a7a7a;}</style></defs><g id="Layer_2" data-name="Layer 2"><g id="Layer_1-2" data-name="Layer 1"><path d="M352.28,172.61l-9.57-44.79A549.43,549.43,0,0,1,252.13,152c-6.54-14.59-12.08-27.18-16.11-36.23L227,94.61C260.18,89.07,290.38,82.53,316,74l-8.55-44.29a609.56,609.56,0,0,1-97.13,23.65c-7-19.12-13.59-37.24-17.61-53.34L136.38,11.57C143.93,23.65,149,33.21,157,50.32l4,8.56c-46.8,3-99.64,1.51-158-5L6,99.64c61.4,6,123.8,6,173.62,1.51,3.53,8.56,7.55,17.61,11.58,26.67l13.59,31.71c-58.38,6.54-129.34,7-204.83,0l2,45.79c77,5,158,4,220.92-4,10.07,21.64,19.63,43.78,28.18,62.9-14.59-1.51-36.23-3.52-58.88-6l-4,38.25c32.21,4,76,10.07,102.16,15.1L314,281.31c-14.09-26.67-29.19-58.88-43.28-88.07C303,187.2,331.14,180.16,352.28,172.61Z"/><path class="cls-1" d="M278.8,368.37l-1.51,50.33c-29.19,5.53-79,10.06-123.29,10.06-91.09,0-145.44-31.2-145.44-96.62,0-21.64,6-46.3,11.57-64.42l48.82,4c-6,15.6-11.57,37.24-11.57,49.82,0,35.23,26.67,57.87,95.11,57.87C195.77,379.44,243.58,375.92,278.8,368.37Z"/></g></g></svg>