<svg xmlns="http://www.w3.org/2000/svg" viewBox="0 0 352.27 428.76"><g id="Layer_2" data-name="Layer 2"><g id="Layer_1-2" data-name="Layer 1"><path d="M352.27,172.61c-21.13,7.55-49.32,14.59-81.53,20.64,14.1,29.18,29.19,61.39,43.28,88.06l-23.65,30.2c-26.17-5-70-11.07-102.16-15.1l4-38.25c22.64,2.52,44.28,4.53,58.88,6-8.56-19.12-18.12-41.26-28.18-62.9-62.91,8-143.93,9-220.93,4L0,159.53c75.49,7,146.44,6.54,204.82,0l-13.59-31.71c-4-9.06-8-18.11-11.57-26.67C129.84,105.68,67.44,105.68,6,99.64L3,53.85c58.37,6.54,111.22,8,158,5l-4-8.56c-8-17.11-13.08-26.67-20.63-38.75L192.74,0c4,16.1,10.57,34.22,17.62,53.34a608.09,608.09,0,0,0,97.12-23.65L316,74C290.37,82.53,260.18,89.07,227,94.61L236,115.75c4,9,9.56,21.64,16.1,36.23a549.31,549.31,0,0,0,90.59-24.16ZM69,271.75C62.9,287.35,57.37,309,57.37,321.57c0,35.23,26.67,57.87,95.11,57.87,43.28,0,91.09-3.52,126.32-11.07l-1.51,50.33c-29.19,5.53-79,10.06-123.3,10.06-91.09,0-145.43-31.2-145.43-96.62,0-21.64,6-46.3,11.57-64.42Z"/></g></g></svg>