<svg xmlns="http://www.w3.org/2000/svg" viewBox="0 0 386.52 428.76"><defs><style>.cls-1{fill:#7a7a7a;}</style></defs><g id="Layer_2" data-name="Layer 2"><g id="Layer_1-2" data-name="Layer 1"><path d="M189.79,8.1C131.35,8.1,78.12,5.79,36.45,1.16V60.75c45.71,4,94.9,6.37,153.92,6.37,53.23,0,119.77-4.05,159.12-7V0C306.67,4.63,245.34,8.1,189.79,8.1Z"/><path class="cls-1" d="M386.52,409.08c-45.13,11.58-115.72,19.68-197.31,19.68C66.54,428.76,0,387.67,0,313c0-31.24,6.36-58.44,11.57-81l59,5.2c-6.36,22-10.41,41.67-10.41,62.49,0,39.93,39.92,68.28,127.29,68.28,78.7,0,152.18-8.68,198.47-22Z"/></g></g></svg>