<svg xmlns="http://www.w3.org/2000/svg" viewBox="0 0 386.52 428.76"><g id="Layer_2" data-name="Layer 2"><g id="Layer_1-2" data-name="Layer 1"><path d="M70.59,237.24c-6.36,22-10.41,41.66-10.41,62.49,0,39.92,39.92,68.27,127.29,68.27,78.7,0,152.18-8.68,198.47-22l.58,63.07c-45.13,11.57-115.72,19.67-197.31,19.67C66.54,428.76,0,387.68,0,313c0-31.24,6.37-58.44,11.57-81ZM36.46,1.16C78.12,5.79,131.35,8.1,189.79,8.1c55.55,0,116.88-3.47,159.7-8.1V60.18c-39.35,2.89-105.89,6.94-159.12,6.94-59,0-108.2-2.31-153.91-6.36Z"/></g></g></svg>