<svg xmlns="http://www.w3.org/2000/svg" viewBox="0 0 332.14 405.2"><defs><style>.cls-1{fill:#7a7a7a;}</style></defs><g id="Layer_2" data-name="Layer 2"><g id="Layer_1-2" data-name="Layer 1"><path d="M321.57,145.16c-40.86,5.77-82.68,10.1-129.79,12.5l-45.66,1.44H121.61c-28.84,0-87.49-3.36-117.29-9.13l-.48,45.18c33.17,3.85,87,6.25,117.29,6.25h26l45.67-1c45.66-1.92,85.08-4.81,129.3-10.1ZM311,43.74a1157.13,1157.13,0,0,1-118.72,12L146.6,57.2H122.09c-30.76,0-78.35-3.85-107.67-9.13V91.81C42.3,95.65,90.84,99,122.57,99h23.55l45.66-1.92c45.19-1.93,85.09-6.25,119.69-9.62Z"/><path class="cls-1" d="M332.14,338.87c-27.4-22.59-74.5-56.24-136-73.54-1.44-20.67-2.88-43.26-3.36-64.89l-45.67,1c.48,17.3,1,36.53,1.93,54.32-11.54-1-23.08-1.93-35.09-1.93C42.78,253.79,0,285.52,0,330.7c0,48.07,38.93,74.5,111,74.5,62,0,88-33.16,88-69.21,0-6.73-.48-14.9-.48-24.51,42.78,17.3,79.31,44.22,106.22,69.21ZM104.3,362.43c-40.85,0-58.64-13.95-58.64-34.13,0-19.71,21.63-35.09,62-35.09a247.77,247.77,0,0,1,42.78,3.85c.48,11.05.48,20.18.48,26.91C150.93,354.74,131.22,362.43,104.3,362.43Z"/><path class="cls-1" d="M195.63,0c-1,8.65-2.4,19.22-2.88,32.2,0,5.29-.48,13.94-.48,23.56L146.6,57.2V30.28A301.23,301.23,0,0,0,144.68,0Z"/><polygon class="cls-1" points="191.78 97.1 191.78 157.66 146.12 159.1 146.12 99.02 191.78 97.1"/></g></g></svg>