<svg xmlns="http://www.w3.org/2000/svg" viewBox="0 0 332.15 405.21"><g id="Layer_2" data-name="Layer 2"><g id="Layer_1-2" data-name="Layer 1"><path d="M304.75,380.7c-26.92-25-63.45-51.92-106.23-69.22,0,9.61.48,17.79.48,24.51,0,36.05-26,69.22-88,69.22-72.1,0-111-26.43-111-74.51,0-45.18,42.78-76.9,113.92-76.9,12,0,23.55,1,35.09,1.92-1-17.78-1.44-37-1.92-54.31h-26C90.85,201.41,37,199,3.85,195.15L4.33,150c29.8,5.77,88.44,9.13,117.28,9.13h24.52V99H122.57C90.85,99,42.3,95.66,14.42,91.81V48.07c29.32,5.29,76.91,9.13,107.67,9.13h24.52V30.29A301.17,301.17,0,0,0,144.68,0h50.95c-1,8.65-2.4,19.23-2.88,32.21,0,5.29-.48,13.93-.48,23.55A1154.24,1154.24,0,0,0,311,43.74l.48,43.74C276.87,90.85,237,95.17,191.79,97.1v60.56c47.11-2.4,88.92-6.72,129.78-12.49l.48,45.18c-44.22,5.29-83.63,8.17-129.3,10.09.48,21.64,1.92,44.23,3.37,64.9,61.52,17.3,108.63,51,136,73.54Zm-154.3-83.64a248.76,248.76,0,0,0-42.78-3.85c-40.38,0-62,15.39-62,35.09,0,20.19,17.79,34.13,58.65,34.13,26.92,0,46.62-7.69,46.62-38.45C150.93,317.25,150.93,308.11,150.45,297.06Z"/></g></g></svg>