<svg xmlns="http://www.w3.org/2000/svg" viewBox="0 0 405.2 405.2"><defs><style>.cls-1{fill:#7a7a7a;}</style></defs><g id="Layer_2" data-name="Layer 2"><g id="Layer_1-2" data-name="Layer 1"><path d="M197,275.5l-28.77-41.45-4.38-7.31c-11.71-19-25.36-50.23-37.06-82.9L112.64,102.4C108.73,90.7,105.32,79,102.4,68.75,99,54.61,95.08,38.52,92.16,24.38L41.44,40C48.76,55.1,54.12,70.21,59,86.79c4.39,13.66,8.77,27.79,14.14,41.94L89.23,173.1c14.14,37.06,29.74,71.19,44.37,94.11l5.85,9.26,27.31,38c6.34,8.29,13.16,16.1,20,23.9l38.52-31.21A256.4,256.4,0,0,1,197,275.5Z"/><path class="cls-1" d="M166.76,314.5c-30.72,35.6-59.49,56.08-95.08,56.08C33.15,370.58,0,338.89,0,279.4c0-55.1,29.25-113.61,73.14-150.67L89.23,173.1C61.43,201.87,44.86,241.85,44.86,276c0,28.28,11.7,45.84,31.69,45.84,21,0,42.91-19.5,62.9-45.35Z"/><path class="cls-1" d="M405.2,232.59c0,99-70.7,158-172.61,172.61l-29.26-43.88C306.22,352.05,356,298.9,356,230.64c0-59-34.62-102.89-90.69-114.59-17.56,59-40.47,118.49-68.27,159.45l-28.77-41.45c19.51-33.65,37.55-77.53,50.71-120.93-34.62,2.44-64.85,13.66-92.15,30.72L112.64,102.4c39-21.46,77.52-31.21,117.51-32.19C232.59,60,235,50.22,236.49,41c1.95-11.71,3.41-29.75,2.92-41l53.15,5.36c-3.41,12.19-7.31,31.69-9.75,42.42-1.95,8.29-3.9,17.07-6.34,25.85C353,88.74,405.2,149.21,405.2,232.59Z"/></g></g></svg>