<svg xmlns="http://www.w3.org/2000/svg" viewBox="0 0 405.2 405.21"><g id="Layer_2" data-name="Layer 2"><g id="Layer_1-2" data-name="Layer 1"><path d="M292.57,5.36c-3.42,12.2-7.32,31.7-9.76,42.43-1.95,8.29-3.9,17.06-6.34,25.84C353,88.75,405.2,149.21,405.2,232.59c0,99-70.7,158-172.61,172.62l-29.26-43.89C306.22,352.06,356,298.91,356,230.64c0-59-34.62-102.89-90.7-114.58-17.55,59-40.47,118.48-68.27,159.44a256.51,256.51,0,0,0,28.28,31.7l-38.52,31.2c-6.82-7.8-13.65-15.6-20-23.89-30.72,35.6-59.49,56.08-95.08,56.08C33.16,370.59,0,338.89,0,279.4c0-55.1,29.26-113.61,73.14-150.67C67.78,114.59,63.39,100.45,59,86.8,54.12,70.22,48.76,55.1,41.45,40L92.16,24.38C95.08,38.53,99,54.61,102.4,68.76c2.92,10.24,6.34,21.94,10.24,33.64,39-21.46,77.53-31.21,117.51-32.18C232.59,60,235,50.23,236.49,41c1.95-11.7,3.41-29.74,2.93-41Zm-159,261.86c-14.62-22.93-30.23-57.05-44.37-94.11C61.44,201.87,44.86,241.86,44.86,276c0,28.28,11.7,45.84,31.69,45.84,21,0,42.91-19.51,62.9-45.35Zm34.62-33.17c19.51-33.64,37.55-77.53,50.72-120.92-34.62,2.44-64.86,13.65-92.16,30.72,11.7,32.66,25.35,63.87,37.06,82.89Z"/></g></g></svg>