<svg xmlns="http://www.w3.org/2000/svg" viewBox="0 0 436.38 405.2"><defs><style>.cls-1{fill:#7a7a7a;}</style></defs><g id="Layer_2" data-name="Layer 2"><g id="Layer_1-2" data-name="Layer 1"><path d="M380,212.74l-13.36,52.45a469.4,469.4,0,0,1,47,36.61l22.76-53.44C421,238,402.24,225.11,380,212.74ZM267.17,43c4-6.92,8.91-12.37,14.35-18.3L250.84,0a91.62,91.62,0,0,1-28.2,5.93c-21.77,2-80.64,4.45-107.36,4.45-10.39,0-25.73-.49-38.59-1.48l2,50.47c12.37-1.49,27.7-3,38.09-3.47C139,54.42,191,52,210.27,51.45c-13.35,26.72-29.68,64.81-45.51,100.44C67.78,155.35,0,212.25,0,286c0,45,29.69,72.72,68.77,72.72,28.7,0,50-11.37,68.28-38.09,18.31-27.21,41.06-80.65,59.37-123.2,47,4.95,90.54,21.28,129.13,42.06l10.89-49c-36.12-16.33-77.19-30.18-121.22-36.12C234.52,110.33,254.31,64.32,267.17,43ZM97.47,290.42c-9.89,12.86-17.32,16.82-27.71,16.82-12.86,0-24.24-10.88-24.24-28.2,0-37.1,35.62-74.71,98.95-82.13C128.64,232,112.31,269.64,97.47,290.42Z"/><path class="cls-1" d="M389.87,119.73c-1.48,34.14-4.45,64.81-9.89,93l-13.36,52.45c-20.78,59.86-58.38,104.89-126.66,140L198.4,371.07c76.19-32.16,110.83-82.13,127.15-131.61l10.89-49c1.48-9.4,2.47-18.8,3-27.71a396,396,0,0,0,0-48.48Z"/></g></g></svg>