<svg xmlns="http://www.w3.org/2000/svg" viewBox="0 0 436.38 405.21"><g id="Layer_2" data-name="Layer 2"><g id="Layer_1-2" data-name="Layer 1"><path d="M413.62,301.8a472,472,0,0,0-47-36.61c-20.78,59.87-58.39,104.89-126.66,140L198.4,371.07c76.19-32.16,110.82-82.13,127.15-131.6-38.59-20.79-82.13-37.11-129.13-42.06-18.31,42.55-41.07,96-59.37,123.2-18.31,26.71-39.58,38.09-68.28,38.09C29.68,358.7,0,331,0,286c0-73.72,67.78-130.62,164.75-134.08,15.84-35.62,32.16-73.71,45.52-100.43-19.29.49-71.24,3-93.51,4.45-10.39.49-25.72,2-38.09,3.46l-2-50.46c12.86,1,28.2,1.48,38.59,1.48,26.71,0,85.59-2.47,107.36-4.45A91.61,91.61,0,0,0,250.84,0l30.68,24.74c-5.44,5.94-10.39,11.38-14.35,18.31-12.87,21.27-32.66,67.29-52,111.32,44,5.94,85.1,19.78,121.22,36.11a277.88,277.88,0,0,0,3-27.7,396.19,396.19,0,0,0,0-48.49l50.47,5.44c-1.48,34.14-4.45,64.81-9.9,93C402.24,225.12,421,238,436.38,248.37ZM144.47,196.92c-63.33,7.42-98.95,45-98.95,82.13,0,17.31,11.38,28.2,24.24,28.2,10.39,0,17.81-4,27.71-16.83C112.31,269.64,128.64,232,144.47,196.92Z"/></g></g></svg>