<svg xmlns="http://www.w3.org/2000/svg" viewBox="0 0 375.92 405.2"><defs><style>.cls-1{fill:#7a7a7a;}</style></defs><g id="Layer_2" data-name="Layer 2"><g id="Layer_1-2" data-name="Layer 1"><path d="M160.35,83.54l-45.61-1.45c-35.52-2.88-72.49-8.64-101.3-18.24L11,108a591.83,591.83,0,0,0,98.42,16.81l46.09,2.4a910.63,910.63,0,0,0,95.54-4.81l1.44-45.13C227.57,81.61,195.88,83.54,160.35,83.54Z"/><path class="cls-1" d="M173.32,2.88C170,17.76,168,28.8,166.12,40.32l-5.77,43.22-45.61-1.45c1.93-17.28,3.37-32.64,4.33-44.64s1.91-24,.47-37.45Z"/><path class="cls-1" d="M375.92,287.1c0,71-64.33,118.1-162.27,118.1-69.14,0-121.95-30.72-121.95-109,0-12.48,1.44-30.25,3.36-51.37C60,241.49,26.89,236.21,0,228.05L2.4,182c30.73,11,64.81,16.32,97.46,19.2,2.88-25,6.24-51.37,9.6-76.33l46.09,2.4h-1c-3.36,24.48-6.72,50.89-9.6,75.85h6.72c30.73,0,64.82-1.44,97.46-5.76l-1.44,45.13a768.71,768.71,0,0,1-88.82,4.8H140.67c-1.44,16.8-2.4,31.21-2.4,41.29,0,42.73,25,68.17,75.85,68.17,69.62,0,111.39-30.24,111.39-75.37,0-32.17-17.28-65.78-50.41-95.06l52.81-11C360.08,213.16,375.92,246.29,375.92,287.1Z"/></g></g></svg>