<svg xmlns="http://www.w3.org/2000/svg" viewBox="0 0 404.72 405.2"><defs><style>.cls-1{fill:#7a7a7a;}</style></defs><g id="Layer_2" data-name="Layer 2"><g id="Layer_1-2" data-name="Layer 1"><path d="M359.86,260l-52.1-15.91c2.9,20.74,3.38,37.62,3.38,56.44,0,28.46-13,42.93-37.63,50.65-17.36,5.3-52.1,8.68-77.66,8.68-63.68,0-69.47-10.13-69.47-34.25,0-7.23,0-16.4.49-25.08C144.71,279.3,152,248,152,219.48c0-17.84-4.34-33.76-13-45.34V106.61a639.46,639.46,0,0,0,88.76-14V46.79a650.05,650.05,0,0,1-88.76,16.4V51.61A327.93,327.93,0,0,1,142.78,0H89.72c2.9,12.06,3.86,28,3.86,51.61v15c-5.79.48-11.58.48-16.88.48A492,492,0,0,1,0,60.78l2.89,44.86A671.75,671.75,0,0,0,79.59,110h14v40a41.66,41.66,0,0,0-7.72-.48c-49.2,0-83,43.89-83,96.48,0,57.88,35.22,80.07,65.61,80.07a94.47,94.47,0,0,0,12.06-1c-.49,5.79-.49,11.58-.49,17.36,0,34.25,10.13,62.71,112.4,62.71,31.84,0,80.08-3.86,101.3-9.64,48.24-14,63.68-37.63,66.09-82C360.83,293.77,360.34,286.54,359.86,260ZM73.32,280.75c-15.92,0-29.91-13.51-29.91-37.63,0-32.32,17.85-55,39.56-55,14.47,0,25.08,12.54,25.08,33.28C108.05,251.81,98.41,280.75,73.32,280.75Z"/><path class="cls-1" d="M404.72,135.55l-34.25,34.73c-24.12-30.87-68-72.84-95-92.62L307.28,46.3C335.74,65.12,383.5,109.5,404.72,135.55Z"/></g></g></svg>