<svg xmlns="http://www.w3.org/2000/svg" viewBox="0 0 404.73 405.21"><g id="Layer_2" data-name="Layer 2"><g id="Layer_1-2" data-name="Layer 1"><path d="M359.86,260c.49,26.53,1,33.77,0,53.55-2.41,44.37-17.85,68-66.08,82-21.23,5.79-69.47,9.65-101.3,9.65-102.27,0-112.4-28.46-112.4-62.71,0-5.79,0-11.58.48-17.37a92.64,92.64,0,0,1-12.06,1C38.11,326.1,2.9,303.91,2.9,246c0-52.58,33.76-96.48,83-96.48a41.66,41.66,0,0,1,7.72.48V110h-14A671.85,671.85,0,0,1,2.9,105.64L0,60.78a492.08,492.08,0,0,0,76.7,6.27c5.31,0,11.1,0,16.88-.48V51.62c0-23.64-1-39.56-3.85-51.62h53.06a326.86,326.86,0,0,0-3.86,51.62V63.2a650.66,650.66,0,0,0,88.76-16.41V92.62a638.16,638.16,0,0,1-88.76,14v67.54c8.68,11.57,13,27.49,13,45.34,0,28.46-7.23,59.82-25.08,81-.48,8.68-.48,17.85-.48,25.09,0,24.11,5.78,34.25,69.46,34.25,25.57,0,60.3-3.38,77.67-8.69,24.6-7.72,37.62-22.19,37.62-50.65,0-18.81-.48-35.69-3.37-56.44ZM73.32,280.75c25.09,0,34.74-28.94,34.74-59.33,0-20.75-10.62-33.29-25.09-33.29-21.7,0-39.55,22.67-39.55,55C43.42,267.25,57.41,280.75,73.32,280.75Zm234-234.44c28.46,18.81,76.22,63.2,97.45,89.25l-34.25,34.72c-24.12-30.87-68-72.83-95-92.61Z"/></g></g></svg>