<svg xmlns="http://www.w3.org/2000/svg" viewBox="0 0 426.05 405.21"><g id="Layer_2" data-name="Layer 2"><g id="Layer_1-2" data-name="Layer 1"><path d="M225.38,44.59C203.09,78.52,160.43,155.1,136.2,199.7c21.33-16,42.65-22.3,63.49-22.3,33.93,0,56.23,21.81,58.17,60.59,1,25.2,0,62.52,1.94,84.82,1.45,21.32,16.48,30.05,34.9,30.05,48.46,0,77.55-60.1,90.63-115.35l40.72,32.95c-25.21,80-67.38,133.78-139.11,133.78-51.86,0-72.22-32-74.16-63-1.45-27.14-1-65.43-2.42-88.7-1-18.9-12.12-30.53-32-30.53-35.87,0-67.86,36.83-85.79,75.12C79,325.24,60.1,380.49,53.31,405.21L0,387.28C35.38,290.33,140.56,88.22,166.25,42.17,172.07,30.05,179.82,17,186.61,0l53.8,21.81C236.05,27.63,230.71,36.35,225.38,44.59Z"/></g></g></svg>