<svg xmlns="http://www.w3.org/2000/svg" viewBox="0 0 403.97 407.3"><defs><style>.cls-1{fill:#7a7a7a;}</style></defs><g id="Layer_2" data-name="Layer 2"><g id="Layer_1-2" data-name="Layer 1"><path d="M230,57.51a498.18,498.18,0,0,1-68.43,16.16l-48.48,6.17c-16.64,1.43-32.79,1.91-48.48,1.91-19,0-41.35-1-59.88-2.86l3.33,43.73c19,1.42,38.49,1.9,56.55,1.9,11.41,0,22.34-.48,33.75-1l49.42-5.23a702.57,702.57,0,0,0,83.65-16.63Z"/><path class="cls-1" d="M178.7,4.75c-3.81,16.16-10,42.3-17.11,68.92l-48.48,6.17C120.24,53.71,125.94,24.71,126.89,0Z"/><path class="cls-1" d="M147.8,118.34C125,184.4,84.12,266.62,45.62,318.43L0,295.14C38.49,249,77.94,176.8,98.38,123.57Z"/><path class="cls-1" d="M404,129.75l-26.61,39c-26.14-21.39-77.95-51.33-109.79-65.59l23.76-36.59C325.08,81.27,380.68,112.64,404,129.75Z"/><path class="cls-1" d="M292.28,274.7c-1.42-26.61-2.85-53.7-3.32-68.91-.48-19-.95-35.17.47-55.13H241.9c1,30.89,3.33,75.09,5.23,112.16a214.3,214.3,0,0,0-39.44-3.33c-58.46,0-98.38,31.37-98.38,75.57,0,48.95,44.2,72.24,98.85,72.24,61.79,0,86-32.32,86-72.24V322.23c28.05,15.21,51.81,35.65,70.35,52.28l25.18-40.4C366,313.2,332.68,289.44,292.28,274.7ZM202,364.53c-32.32,0-48.47-13.79-48.47-33.75,0-19,20.43-32.79,51.8-32.79a158.24,158.24,0,0,1,43.25,5.71c.48,6.65.48,11.88.48,16.63C249,344.57,237.15,364.53,202,364.53Z"/></g></g></svg>