<svg xmlns="http://www.w3.org/2000/svg" viewBox="0 0 403.97 407.3"><defs><style>.cls-1{fill:#7a7a7a;}</style></defs><g id="Layer_2" data-name="Layer 2"><g id="Layer_1-2" data-name="Layer 1"><path d="M291.33,66.54l-23.76,36.59c31.84,14.26,83.65,44.2,109.79,65.59l26.61-39C380.68,112.64,325.08,81.27,291.33,66.54Zm-61.31-9a498.18,498.18,0,0,1-68.43,16.16c7.12-26.62,13.3-52.76,17.11-68.92L126.89,0c-1,24.71-6.65,53.71-13.78,79.84-16.64,1.43-32.79,1.91-48.48,1.91-19,0-41.35-1-59.88-2.86l3.33,43.73c19,1.42,38.49,1.9,56.55,1.9,11.41,0,22.34-.48,33.75-1C77.94,176.8,38.49,249,0,295.14l45.62,23.29c38.5-51.81,79.37-134,102.18-200.09a702.57,702.57,0,0,0,83.65-16.63Z"/><path class="cls-1" d="M292.28,274.7c-1.42-26.61-2.85-53.7-3.32-68.91-.48-19-.95-35.17.47-55.13H241.9c1,30.89,3.33,75.09,5.23,112.16a214.3,214.3,0,0,0-39.44-3.33c-58.46,0-98.38,31.37-98.38,75.57,0,48.95,44.2,72.24,98.85,72.24,61.79,0,86-32.32,86-72.24V322.23c28.05,15.21,51.81,35.65,70.35,52.28l25.18-40.4C366,313.2,332.68,289.44,292.28,274.7ZM202,364.53c-32.32,0-48.47-13.79-48.47-33.75,0-19,20.43-32.79,51.8-32.79a158.24,158.24,0,0,1,43.25,5.71c.48,6.65.48,11.88.48,16.63C249,344.57,237.15,364.53,202,364.53Z"/></g></g></svg>