<svg xmlns="http://www.w3.org/2000/svg" viewBox="0 0 403.97 407.3"><g id="Layer_2" data-name="Layer 2"><g id="Layer_1-2" data-name="Layer 1"><path d="M231.45,101.71a702,702,0,0,1-83.64,16.63C125,184.4,84.12,266.62,45.63,318.43L0,295.14C38.5,249,77.94,176.8,98.38,123.57c-11.41.47-22.34,1-33.74,1-18.06,0-37.55-.48-56.56-1.9L4.75,78.89c18.54,1.91,40.88,2.86,59.89,2.86,15.68,0,31.84-.48,48.47-1.91C120.24,53.71,126,24.72,126.9,0l51.8,4.75c-3.8,16.16-10,42.3-17.11,68.92A498.68,498.68,0,0,0,230,57.51Zm58,49c-1.43,20-.95,36.12-.48,55.13.48,15.21,1.9,42.3,3.33,68.91,40.4,14.74,73.66,38.5,97.43,59.41l-25.19,40.4c-18.54-16.63-42.3-37.07-70.34-52.28v12.83c0,39.92-24.24,72.24-86,72.24-54.66,0-98.86-23.29-98.86-72.24,0-44.2,39.92-75.57,98.38-75.57a214.41,214.41,0,0,1,39.45,3.33c-1.9-37.07-4.28-81.27-5.23-112.16Zm-40.88,153A158.19,158.19,0,0,0,205.31,298c-31.36,0-51.8,13.78-51.8,32.79,0,20,16.16,33.75,48.48,33.75,35.17,0,47-20,47-44.2C249,315.58,249,310.35,248.56,303.7Zm128.8-135c-26.14-21.39-77.94-51.33-109.79-65.59l23.77-36.59c33.74,14.73,89.35,46.1,112.63,63.21Z"/></g></g></svg>