<svg xmlns="http://www.w3.org/2000/svg" viewBox="0 0 448.24 406.88"><defs><style>.cls-1{fill:#7a7a7a;}</style></defs><g id="Layer_2" data-name="Layer 2"><g id="Layer_1-2" data-name="Layer 1"><path d="M111,0c2.44,13.14,2.44,26.77,2.44,38.94,0,5.35-1,20.92-2.44,41.85l-3.4,45.26-2.44,41.86-3.89,81.28c-1,53.54-1.46,81.28-2,126.05,0,7.79-1,23.37-1.46,31.64h52.56c-1-9.74-2.43-23.85-2.91-32.61-2.44-43.8-1.95-78.36-1.95-120.21,0-17,.49-35.53,1.46-55l3.89-57.43c.49-4.87,1-10.22,1.46-15.58l5.84-55c3.41-31.15,7.3-56.95,9.74-69.11Z"/><path class="cls-1" d="M105.12,167.91l-3.89,81.28c-22.39,33.1-50.62,74.95-71.06,102.69L0,309.54C26.76,276.44,79.33,206.85,105.12,167.91Z"/><path class="cls-1" d="M396.17,286.66C400.55,263.3,402,237,402,207.82c0-82.74-36.5-141.14-103.67-141.14-51.1,0-107.56,39.91-147.47,74.95L147,199.06C188.35,154.77,245.78,110,290.07,110c38.45,0,65.21,36,65.21,92.47,0,21.41-1,42.34-3.4,60.83a174.34,174.34,0,0,0-63.27-11.68c-53.05,0-89.07,29.69-89.07,70.09,0,51.59,40.4,73,89.55,73,48.19,0,77.39-22.39,94.42-61.81,13.15,11.68,26.28,25.31,39.42,39.91l25.31-39.91C432.67,316.35,415.64,300.29,396.17,286.66Zm-110,64.74c-24.33,0-44.77-8.77-44.77-31.64,0-17.52,20.44-29.69,43.31-29.69,20,0,39.43,5.36,57.92,15.09C332.41,333.87,314.89,351.4,286.17,351.4Z"/><path class="cls-1" d="M175.21,91.5c-6.33,8.76-15.09,22.39-22.88,34.55l5.84-55Z"/><path class="cls-1" d="M111,80.79l-3.4,45.26c-22.39,2.93-61.81,8.28-91,12.17L11.68,88.58a298.14,298.14,0,0,0,36-.49C62.78,87.12,87.6,84.2,111,80.79Z"/></g></g></svg>