<svg xmlns="http://www.w3.org/2000/svg" viewBox="0 0 448.25 406.88"><g id="Layer_2" data-name="Layer 2"><g id="Layer_1-2" data-name="Layer 1"><path d="M175.21,91.5c-6.33,8.76-15.09,22.39-22.87,34.55-.49,5.36-1,10.71-1.46,15.58,39.91-35,96.36-74.95,147.46-74.95,67.17,0,103.67,58.4,103.67,141.14,0,29.2-1.46,55.48-5.84,78.84,19.47,13.63,36.5,29.69,52.08,46.24l-25.31,39.91c-13.14-14.6-26.28-28.23-39.42-39.91-17,39.42-46.24,61.81-94.42,61.81-49.16,0-89.55-21.41-89.55-73,0-40.4,36-70.09,89.06-70.09a174.34,174.34,0,0,1,63.27,11.68c2.44-18.49,3.41-39.42,3.41-60.83,0-56.46-26.77-92.47-65.22-92.47-44.29,0-101.72,44.77-143.09,89.06-1,19.47-1.46,38-1.46,55,0,41.85-.49,76.41,1.95,120.21.49,8.76,1.95,22.87,2.92,32.61H97.83c.48-8.27,1.46-23.85,1.46-31.64.48-44.77,1-72.51,1.94-126-22.39,33.1-50.61,74.95-71.05,102.69L0,309.54c26.77-33.1,79.33-102.69,105.13-141.63l2.43-41.86c-22.39,2.93-61.81,8.28-91,12.17L11.68,88.58a298.31,298.31,0,0,0,36-.49c15.08-1,39.91-3.89,63.27-7.3,1.46-20.93,2.43-36.5,2.43-41.85,0-12.17,0-25.8-2.43-38.94l56.94,2c-2.43,12.16-6.33,38-9.73,69.11ZM342.63,305.16c-18.49-9.73-38-15.09-57.91-15.09-22.88,0-43.32,12.17-43.32,29.69,0,22.87,20.44,31.64,44.78,31.64C314.89,351.4,332.41,333.87,342.63,305.16Z"/><line x1="110.97" y1="80.79" x2="107.56" y2="126.05"/><line x1="158.18" y1="71.06" x2="152.34" y2="126.05"/><line x1="150.88" y1="141.63" x2="146.98" y2="199.06"/><line x1="105.13" y1="167.91" x2="101.23" y2="249.19"/></g></g></svg>