<svg xmlns="http://www.w3.org/2000/svg" viewBox="0 0 399.12 407.3"><defs><style>.cls-1{fill:#7a7a7a;}</style></defs><g id="Layer_2" data-name="Layer 2"><g id="Layer_1-2" data-name="Layer 1"><path d="M103.23,244.28,76.65,223.84C69,242.23,58.77,266.76,51.1,287.2a375.67,375.67,0,0,1-3.58-53.14c0-54.17,16.36-149.23,25-190.62,2-9.2,7.16-29.13,10.74-38.84L26.57,0C26.06,13.29,24,29.13,22,41.9,16.35,82.28,0,168.13,0,243.77,0,312.25,9.19,372,19.41,407.3l46-3.07c-.51-6.13-1-13.8-1-18.9-.51-5.63,1-16.36,2.55-23C71.54,336.78,89.43,282.6,103.23,244.28Z"/><path class="cls-1" d="M383.28,40.88V93C325.53,98.63,230,99.14,171.19,93V41.4C228.94,50.08,330.64,48,383.28,40.88Z"/><path class="cls-1" d="M399.12,378.68c-31.69,6.14-73.59,10.22-128.27,10.22-85.86,0-125.72-29.64-125.72-78.7,0-19.93,4.09-40.37,8.69-62.35l46,4.09c-4.09,17.38-6.13,31.18-6.13,45,0,23,16.86,40.88,78.19,40.88,45.48,0,83.81-4.09,126.23-13.29Z"/></g></g></svg>