<svg xmlns="http://www.w3.org/2000/svg" viewBox="0 0 399.12 407.3"><g id="Layer_2" data-name="Layer 2"><g id="Layer_1-2" data-name="Layer 1"><path d="M83.3,4.6c-3.58,9.71-8.69,29.64-10.73,38.84-8.69,41.39-25,136.45-25,190.62a377.37,377.37,0,0,0,3.57,53.15c7.67-20.45,17.89-45,25.55-63.37l26.58,20.44c-13.8,38.32-31.69,92.5-36.28,118-1.54,6.64-3.07,17.37-2.56,23,0,5.1.51,12.77,1,18.9l-46,3.07C9.2,372,0,312.25,0,243.77,0,168.13,16.35,82.28,22,41.9A375.7,375.7,0,0,0,26.57,0ZM199.82,251.94c-4.09,17.38-6.13,31.18-6.13,45,0,23,16.86,40.88,78.18,40.88,45.49,0,83.82-4.09,126.23-13.29l1,54.17c-31.68,6.14-73.59,10.22-128.27,10.22-85.85,0-125.72-29.64-125.72-78.7,0-19.93,4.09-40.37,8.69-62.34ZM383.28,40.88V93C325.53,98.63,230,99.14,171.2,93V41.4C229,50.08,330.64,48,383.28,40.88Z"/></g></g></svg>