<svg xmlns="http://www.w3.org/2000/svg" viewBox="0 0 446.01 406.88"><g id="Layer_2" data-name="Layer 2"><g id="Layer_1-2" data-name="Layer 1"><path d="M213.35,356.49A300.37,300.37,0,0,0,260.53,349c68.08-15.54,128.66-64.86,128.66-150.63,0-77.2-46.1-137.77-127.59-148-7.5,47.71-17.15,99.18-31.63,149-32.16,108.29-76.12,168.86-129.19,168.86C48.25,368.28,0,308.78,0,220.33,0,102.39,104.53,0,237.48,0,365.06,0,446,89,446,200.49c0,111-71.3,188.16-201,206.39ZM175.83,188.16c13.4-41.81,23.59-90.06,28.95-136.7C109.36,67,53.61,150.1,53.61,215.5c0,61.11,27.34,89,48.78,89C125.44,304.49,151.17,270.18,175.83,188.16Z"/></g></g></svg>