<svg xmlns="http://www.w3.org/2000/svg" viewBox="0 0 456.5 407.3"><defs><style>.cls-1{fill:#7a7a7a;}</style></defs><g id="Layer_2" data-name="Layer 2"><g id="Layer_1-2" data-name="Layer 1"><path d="M132.38,207.45c-5.58-10.65-11.66-24.85-17.75-40.58L97.89,123.76C88.76,97.39,80.65,69,75.57,43.62L27.9,63.4c10.65,24.35,14.2,37,19.78,55.29,4.06,11.66,8.62,25.36,14.2,39.56l18.77,49.2c6.08,14.71,12.17,28.92,18.26,40.58a465.43,465.43,0,0,0,31.45,54.27l29.41-44.63A386.43,386.43,0,0,1,132.38,207.45Z"/><path class="cls-1" d="M405.27,306.36c7.1-25.87,10.14-55.29,10.14-86.73,0-94.35-69-152.17-154.19-152.68l2.53-23.33c1-9.64,3.05-27.9,5.58-42.1L213,0c1.53,14.71,2,23.84,1,43.11-.51,8.63-1.52,18.26-2.54,28.41-45.14,8.11-83.18,27.89-113.62,52.24l16.74,43.11c24.35-22.82,54.27-41.59,90.79-50.72-5.07,28.91-11.66,59.35-20.79,85.22a438.94,438.94,0,0,1-24.86,56.3L130.36,302.3c-19.79,25.37-41.09,41.6-58.84,41.6-14.2,0-25.36-16.23-25.36-38.55,0-32.46,14.2-67.46,34.49-97.9l-18.77-49.2a252.58,252.58,0,0,0-18.26,22.32A223.82,223.82,0,0,0,0,313.46c0,52.25,31.45,82.17,69.49,82.17,67,0,129.85-89.77,160.79-180.57,11.16-32.46,19.27-69.49,24.85-105h1.52c68.48-.51,109.56,44.13,109.56,111.08a283.48,283.48,0,0,1-6.08,59.34,176.24,176.24,0,0,0-69-14.2c-48.7,0-81.67,36-81.67,72,0,43.62,32.46,69,82.17,69,44.64,0,75.58-21.31,95.87-56.3,15.72,14.2,28.4,29.92,38.55,42.1l30.43-38.55C443.31,339.33,426.07,321.58,405.27,306.36Zm-115.65,56.3c-23.33,0-36-11.16-36-28.91,0-14.71,13.19-28.4,39.56-28.4,19.28,0,37.54,6.09,53.77,15.21C334.77,345.93,315.49,362.66,289.62,362.66Z"/></g></g></svg>