<svg xmlns="http://www.w3.org/2000/svg" viewBox="0 0 456.5 407.3"><g id="Layer_2" data-name="Layer 2"><g id="Layer_1-2" data-name="Layer 1"><path d="M261.22,67c85.21.51,154.2,58.33,154.2,152.68,0,31.44-3.05,60.86-10.15,86.73,20.8,15.22,38,33,51.23,48.19L426.07,393.1c-10.15-12.18-22.83-27.9-38.55-42.1-20.29,35-51.23,56.3-95.87,56.3-49.7,0-82.17-25.36-82.17-69,0-36,33-72,81.67-72a176.24,176.24,0,0,1,69,14.2,283.48,283.48,0,0,0,6.08-59.34c0-67-41.08-111.59-109.56-111.08h-1.52c-5.57,35.5-13.69,72.53-24.85,105-30.94,90.8-93.84,180.57-160.79,180.57-38,0-69.49-29.92-69.49-82.17A223.82,223.82,0,0,1,43.62,180.57a252.58,252.58,0,0,1,18.26-22.32c-5.58-14.2-10.14-27.9-14.2-39.56C42.1,100.43,38.55,87.75,27.9,63.4L75.58,43.62C80.65,69,88.76,97.39,97.9,123.76c30.43-24.35,68.47-44.13,113.61-52.24,1-10.15,2-19.78,2.54-28.41,1-19.27.51-28.4-1-43.11l56.3,1.52c-2.54,14.2-4.57,32.46-5.58,42.1ZM130.36,302.3A465.43,465.43,0,0,1,98.91,248c-6.09-11.66-12.17-25.87-18.26-40.58-20.29,30.44-34.49,65.44-34.49,97.9,0,22.32,11.16,38.55,25.36,38.55C89.27,343.9,110.57,327.67,130.36,302.3Zm75.06-186.15c-36.52,9.13-66.44,27.9-90.79,50.72,6.09,15.73,12.18,29.93,17.75,40.58a385.24,385.24,0,0,0,27.4,50.22,440.31,440.31,0,0,0,24.85-56.3C193.76,175.5,200.35,145.06,205.42,116.15ZM346.94,320.56c-16.23-9.12-34.49-15.21-53.77-15.21-26.37,0-39.56,13.69-39.56,28.4,0,17.76,12.68,28.91,36,28.91C315.49,362.66,334.77,345.93,346.94,320.56Z"/></g></g></svg>