<svg xmlns="http://www.w3.org/2000/svg" viewBox="0 0 438.51 428.76"><defs><style>.cls-1{fill:#7a7a7a;}</style></defs><g id="Layer_2" data-name="Layer 2"><g id="Layer_1-2" data-name="Layer 1"><path class="cls-1" d="M438.51,128.73l-25.13,41c-24.62-22.57-85.65-58-117.45-74.88l22.57-39C355.94,74.87,412.87,108.72,438.51,128.73Z"/><path class="cls-1" d="M165.66,0c-1,9.74-2.56,26.66-3.07,39s-1,28.72-2.05,46.67l-47.7,5.13c0-23.08.51-41.54.51-50.77,0-10.77-1.54-30.77-3.08-40Z"/><path class="cls-1" d="M264.13,193.35c-30.77,0-68.72,5.13-105.65,15.9V191.81c0-17.95.52-37.95,1-58.47L112.32,138c-.51,19-.51,37.95-.51,55.9v31.8C51.8,251.82,0,296.44,0,339.52c0,49.23,67.71,89.24,111.81,89.24,29.75,0,49.75-15.39,49.75-69.24,0-20-1.54-62.57-2.05-104.63C193.36,244.12,227.72,238,263.62,238c46.16,0,81.55,21.54,81.55,60.52,0,43.08-37.44,65.64-80,73.34-19,3.59-40.52,3.59-61,3.59l18.46,51.29c18.47-.52,41-2.06,64.11-7.18,74.88-18,109.76-60,109.76-120.53C396.46,233.87,339.53,193.35,264.13,193.35ZM97.45,374.91c-17.44,0-47.18-17.44-47.18-37.44,0-20.52,25.64-46.16,62.57-64.11.51,32.82,1.54,62.06,1.54,77.95C114.38,368.24,108.22,374.91,97.45,374.91Z"/><path d="M261.57,116.42c-29.23,6.66-66.67,12.82-102.06,16.92L112.32,138C100,139,88.73,139.5,79,139.5c-22.57,0-46.67-.52-66.68-2.57L10.77,87.7A504.28,504.28,0,0,0,78,91.8c10.77,0,22.57-.51,34.88-1l47.7-5.13c35.9-4.1,72.31-11.28,100-19.49Z"/></g></g></svg>