<svg xmlns="http://www.w3.org/2000/svg" viewBox="0 0 438.5 428.76"><defs><style>.cls-1{fill:#7a7a7a;}</style></defs><g id="Layer_2" data-name="Layer 2"><g id="Layer_1-2" data-name="Layer 1"><path d="M264.13,193.35c-30.78,0-68.73,5.13-105.66,15.9V191.81c0-17.95.52-37.95,1-58.47,35.39-4.1,72.83-10.26,102.06-16.92l-1-50.27c-27.7,8.21-64.11,15.39-100,19.49,1-18,1.54-34.36,2.05-46.67s2-29.23,3.07-39H110.27a326.53,326.53,0,0,1,3.07,40c0,9.23-.51,27.69-.51,50.77-12.31.52-24.11,1-34.88,1a504.06,504.06,0,0,1-67.18-4.1l1.53,49.23c20,2,44.11,2.57,66.68,2.57,9.74,0,21-.52,33.34-1.54-.52,19-.52,37.95-.52,55.9v31.8C51.8,251.82,0,296.44,0,339.52c0,49.23,67.7,89.24,111.8,89.24,29.75,0,49.75-15.39,49.75-69.24,0-20-1.54-62.57-2.05-104.63C193.35,244.12,227.71,238,263.61,238c46.16,0,81.55,21.54,81.55,60.52,0,43.08-37.44,65.64-80,73.34-19,3.59-40.52,3.59-61,3.59l18.46,51.29c18.47-.52,41-2.06,64.11-7.18,74.88-18,109.76-60,109.76-120.53C396.45,233.87,339.52,193.35,264.13,193.35ZM97.44,374.91c-17.43,0-47.18-17.44-47.18-37.44,0-20.52,25.64-46.16,62.57-64.11.51,32.82,1.54,62.06,1.54,77.95C114.37,368.24,108.21,374.91,97.44,374.91Z"/><path class="cls-1" d="M438.5,128.73l-25.13,41c-24.62-22.57-85.65-58-117.45-74.88l22.57-39C355.93,74.87,412.86,108.72,438.5,128.73Z"/></g></g></svg>