<svg xmlns="http://www.w3.org/2000/svg" viewBox="0 0 438.51 428.76"><g id="Layer_2" data-name="Layer 2"><g id="Layer_1-2" data-name="Layer 1"><path d="M158.48,209.25c36.92-10.77,74.88-15.9,105.65-15.9,75.39,0,132.32,40.52,132.32,105.65,0,60.52-34.87,102.58-109.75,120.53-23.08,5.13-45.65,6.67-64.11,7.18l-18.47-51.29c20.52,0,42.06,0,61-3.59,42.56-7.69,80-30.26,80-73.34,0-39-35.39-60.52-81.55-60.52-35.9,0-70.27,6.16-104.11,16.93.51,42,2.05,84.62,2.05,104.62,0,53.85-20,69.24-49.75,69.24C67.7,428.76,0,388.76,0,339.52c0-43.08,51.8-87.7,111.81-113.86V193.87c0-18,0-36.93.51-55.91C100,139,88.73,139.5,79,139.5c-22.56,0-46.67-.51-66.67-2.56L10.77,87.7A504.1,504.1,0,0,0,78,91.8c10.77,0,22.56-.51,34.87-1,0-23.08.51-41.54.51-50.78,0-10.77-1.53-30.77-3.07-40h55.39c-1,9.74-2.57,26.67-3.08,39s-1,28.72-2.05,46.67c35.9-4.1,72.32-11.29,100-19.49l1,50.26c-29.24,6.67-66.68,12.82-102.06,16.93-.52,20.51-1,40.51-1,58.46ZM114.37,351.32c0-15.9-1-45.13-1.54-78C75.91,291.31,50.26,317,50.26,337.47c0,20,29.75,37.44,47.19,37.44C108.22,374.91,114.37,368.24,114.37,351.32ZM318.49,55.9c37.45,19,94.37,52.83,120,72.83l-25.13,41c-24.62-22.57-85.65-57.95-117.45-74.88Z"/></g></g></svg>