<svg xmlns="http://www.w3.org/2000/svg" viewBox="0 0 444.47 405.2"><defs><style>.cls-1{fill:#7a7a7a;}</style></defs><g id="Layer_2" data-name="Layer 2"><g id="Layer_1-2" data-name="Layer 1"><path d="M110.52,0c2.42,13.08,2.42,26.65,2.42,38.77,0,5.33-1,20.84-2.42,41.69l-2.91,45.07c-1,13.57-1.94,27.63-2.91,41.2l-3.88,81.43c-1,53.32-1.45,80.94-1.94,125.54,0,7.75-1,23.26-1.45,31.5h52.35c-1-9.69-2.43-23.75-2.91-32.47-2.43-43.63-1.94-78-1.94-119.72,0-15,.48-31.51,1.45-48.47l3.88-59.14c.49-6.78,1-13.09,1.46-19.87l5.81-54.77c3.39-31,7.27-56.71,9.7-68.83Z"/><path class="cls-1" d="M104.7,166.73l-3.88,81.43c-22.3,33-50.41,74.65-70.77,102.27L0,308.26C26.66,274.82,79,205.51,104.7,166.73Z"/><path class="cls-1" d="M110.52,80.46l-2.91,45.07c-22.3,2.91-62,8.24-91.13,12.12L11.64,88.21c12.11.48,22.29,0,35.86-.48C62.53,86.75,87.73,83.85,110.52,80.46Z"/><path class="cls-1" d="M444.47,352.86c-24.23,23.75-53.8,38.29-89.18,38.29-33.45,0-56.71-23.27-56.71-65.92,0-52.84,17.93-128,17.93-173.52,0-25.69-13.08-37.33-35.86-37.33-37.33,0-92.58,45.08-134.27,90.16l3.88-59.14c37.32-33.92,96-76.09,143-76.09,48,0,71.25,27.62,71.25,67.37,0,48.47-17,126-17,175,0,15,6.79,25.69,21.81,25.69,21.33,0,46.05-14.06,67.86-37.32Z"/><path class="cls-1" d="M174.5,91.12c-6.31,8.72-15,22.29-22.78,34.41l5.81-54.77Z"/></g></g></svg>