<svg xmlns="http://www.w3.org/2000/svg" viewBox="0 0 335.11 405.2"><defs><style>.cls-1{fill:#7a7a7a;}</style></defs><g id="Layer_2" data-name="Layer 2"><g id="Layer_1-2" data-name="Layer 1"><path d="M80.36,0,68.19,46.27c37,9.74,143.2,31.66,190.45,38L269.84,37C227.46,32.63,123.71,13.63,80.36,0Z"/><path class="cls-1" d="M335.11,268.87c0,87.18-74,149.53-262,133.94L58,352.64c149,19,224.54-20.94,224.54-84.75,0-35.56-33.12-60.4-79.39-60.4-59.91,0-109.6,21.92-142.23,60.4A110.1,110.1,0,0,0,44.81,293.7L0,283C9.25,237.69,21.43,139.3,24.35,84.75L76,91.57c-6.33,30.19-14.61,95-18.51,124.69,44.81-36,95.47-52.61,149.54-52.61C285.42,163.65,335.11,211.88,335.11,268.87Z"/></g></g></svg>