<svg xmlns="http://www.w3.org/2000/svg" viewBox="0 0 335.11 405.21"><g id="Layer_2" data-name="Layer 2"><g id="Layer_1-2" data-name="Layer 1"><path d="M57.48,216.27c44.81-36.05,95.46-52.61,149.53-52.61,78.42,0,128.1,48.22,128.1,105.21,0,87.19-74,149.53-262,134L58,352.64c149,19,224.55-20.94,224.55-84.75,0-35.55-33.12-60.39-79.4-60.39-59.91,0-109.59,21.92-142.23,60.39a110.68,110.68,0,0,0-16.07,25.82L0,283C9.25,237.7,21.43,139.31,24.35,84.75L76,91.57C69.65,121.77,61.37,186.55,57.48,216.27ZM80.37,0c43.35,13.64,147.1,32.64,189.47,37l-11.2,47.25C211.39,77.93,105.21,56,68.19,46.27Z"/></g></g></svg>