<svg xmlns="http://www.w3.org/2000/svg" viewBox="0 0 444.47 405.21"><g id="Layer_2" data-name="Layer 2"><g id="Layer_1-2" data-name="Layer 1"><path d="M444.47,352.86c-24.23,23.75-53.8,38.29-89.18,38.29-33.45,0-56.71-23.26-56.71-65.92,0-52.83,17.93-128,17.93-173.52,0-25.69-13.09-37.32-35.87-37.32-37.32,0-92.57,45.08-134.26,90.16-1,17-1.45,33.44-1.45,48.46,0,41.69-.49,76.1,1.93,119.72.49,8.73,1.94,22.79,2.91,32.48H97.43c.48-8.24,1.45-23.75,1.45-31.51.48-44.59,1-72.22,1.94-125.53-22.3,33-50.41,74.64-70.77,102.27L0,308.27c26.66-33.45,79-102.76,104.7-141.54,1-13.57,1.94-27.62,2.9-41.19-22.29,2.9-62,8.24-91.12,12.11L11.63,88.21c12.12.49,22.3,0,35.87-.48,15-1,40.23-3.88,63-7.27,1.46-20.84,2.43-36.35,2.43-41.68,0-12.13,0-25.69-2.43-38.78l56.71,1.94c-2.42,12.11-6.3,37.8-9.69,68.82l17,20.36c-6.3,8.73-15,22.3-22.78,34.42-.48,6.78-1,13.08-1.45,19.87,37.32-33.93,96-76.1,143-76.1,48,0,71.26,27.63,71.26,67.38,0,48.46-17,126-17,175,0,15,6.79,25.69,21.81,25.69,21.33,0,46.05-14.05,67.86-37.32Z"/></g></g></svg>