<svg xmlns="http://www.w3.org/2000/svg" viewBox="0 0 285.12 405.2"><defs><style>.cls-1{fill:#7a7a7a;}.cls-2{fill:none;}</style></defs><g id="Layer_2" data-name="Layer 2"><g id="Layer_1-2" data-name="Layer 1"><path d="M50.71,215.76c.08-1.34.19-2.68.32-4l-1.76-92.6C52.14,89,61.23,31.57,69.84,1.91L18.17,0c-.47,12.43-1.91,28.7-3.82,44.49C8.13,87.55,0,152.61,0,197.1c0,31.1,3.34,58.84,5.73,76.55l46.41-3.36C49.27,247.81,48.79,231.55,50.71,215.76Z"/><path class="cls-1" d="M285.12,190.4c0,132-82.76,192.8-203.32,214.8L53.1,362.15c103.81-16.26,181.31-54.54,181.31-171.75,0-73.67-24.39-122-69.85-122C108.39,68.41,56.79,149.94,51,211.72l-1.76-92.6c20.57-43.53,66.5-94.25,123.43-94.25C237.29,24.87,285.12,88.5,285.12,190.4Z"/><line class="cls-2" x1="52.14" y1="270.29" x2="51.03" y2="211.72"/></g></g></svg>