<svg xmlns="http://www.w3.org/2000/svg" viewBox="0 0 285.13 405.21"><g id="Layer_2" data-name="Layer 2"><g id="Layer_1-2" data-name="Layer 1"><path d="M69.85,1.92C61.24,31.58,52.15,89,49.27,119.13c20.58-43.54,66.5-94.25,123.43-94.25,64.59,0,112.43,63.63,112.43,165.53,0,132-82.76,192.8-203.32,214.8L53.1,362.15c103.81-16.26,181.32-54.53,181.32-171.74,0-73.68-24.4-122-69.85-122-57.41,0-110,85.16-113.86,147.35-1.91,15.79-1.44,32.06,1.44,54.54L5.74,273.65C3.35,256,0,228.2,0,197.11,0,152.61,8.13,87.55,14.35,44.49,16.27,28.71,17.7,12.44,18.18,0Z"/></g></g></svg>