<svg xmlns="http://www.w3.org/2000/svg" viewBox="0 0 384.58 405.21"><g id="Layer_2" data-name="Layer 2"><g id="Layer_1-2" data-name="Layer 1"><path d="M104.65,9.15c26.42,0,129-2.54,161.56-4.58,10.16-.5,23.37-2,31.5-4.57l28.45,35.56c-8.13,4.07-18.8,11.69-24.89,15.75-33.53,25.41-88.4,68.08-126,100.59,22.36-8.63,45.22-11.17,64.52-11.17,84.34,0,144.79,48.77,144.79,118.88,0,97.54-90.93,157-257.06,143.77l-15.24-51.82c132.08,16.26,218.45-19.3,218.45-92.46,0-44.2-39.62-75.19-101.1-75.19-89.41,0-141.74,52.84-192,107.71L0,252C66.55,190.52,191,86.37,232.68,49.28c-29.46,1-101.1,4.57-125.48,6.1-12.2,1-26.42,2.54-37.09,4.06l-2-52.32A327.27,327.27,0,0,0,104.65,9.15Z"/></g></g></svg>