<svg xmlns="http://www.w3.org/2000/svg" viewBox="0 0 381.11 405.21"><g id="Layer_2" data-name="Layer 2"><g id="Layer_1-2" data-name="Layer 1"><path d="M328.89,36.15c-10.05,6.53-21.6,14.06-30.63,20.59-25.61,18.08-85.87,70.8-121,99.92,20.08-6.53,39.16-8.53,58.75-8.53,83.35,0,145.11,51.21,145.11,120.5,0,79.84-63.77,136.58-175.24,136.58-68.79,0-115-31.13-115-75.82,0-36.65,33.64-70.8,82.35-70.8,61.76,0,97.41,39.66,104.44,87.37,33.64-15.07,52.22-41.68,52.22-77.83,0-46.7-47.2-79.83-108-79.83-79.33,0-126.53,37.15-185.27,99.41L0,250.55c38.66-31.63,100.93-83.85,130.05-108,27.61-23.1,84.86-70.8,110-92.39-26.11,1-111,4.52-137.08,6-12.55,1-25.6,2-36.65,3.51L64.77,8a357.35,357.35,0,0,0,39.67,2.51c26.11,0,138.58-3,165.7-5.52,17.07-2,26.11-3,31.63-5ZM232,358c-4-36.66-25.61-60.76-58.75-60.76-20.59,0-35.65,12.05-35.65,27.62,0,21.59,25.61,35.14,59.25,35.14A259.47,259.47,0,0,0,232,358Z"/></g></g></svg>