<svg xmlns="http://www.w3.org/2000/svg" viewBox="0 0 354.86 428.76"><defs><style>.cls-1{fill:#7a7a7a;}</style></defs><g id="Layer_2" data-name="Layer 2"><g id="Layer_1-2" data-name="Layer 1"><path class="cls-1" d="M293.61,364.47l-1,52.14c-29.86,5.57-66.82,12.15-133.13,12.15-96.18,0-149.33-38-149.33-103.77,0-21.77,6.07-51.13,14.17-79l51.63,4c-7.59,17.72-14.17,47.07-14.17,61.75,0,41,24.8,66.32,98.21,66.32C227.8,378.14,257.67,371.56,293.61,364.47Z"/><path class="cls-1" d="M330.56,260.19,301.7,290.06c-23.79-5.06-73.4-12.15-108.32-16.2l5.06-41c18.22,2,49.61,5.06,65.81,6.58-13.17-28.35-34.43-72.39-49.61-106.31l49.61-8.1C282.47,165.53,308.28,218.68,330.56,260.19Z"/><path class="cls-1" d="M244.5,79.47l-50.62,7.09L179.71,55.68c-8.61-19.74-13.16-29.36-22.78-45L213.62,0C223.75,29.87,233.37,53.66,244.5,79.47Z"/><path d="M354.86,104.79c-28.35,7.59-59.74,14.68-90.61,20.24l-49.61,8.1C150.85,140.22,80,140.22,2,133.64L0,83c72.9,9.11,138.2,9.11,193.88,3.54l50.62-7.09c34.93-6.07,67.33-13.66,100.74-24.8Z"/></g></g></svg>