<svg xmlns="http://www.w3.org/2000/svg" viewBox="0 0 354.86 428.76"><defs><style>.cls-1{fill:#7a7a7a;}</style></defs><g id="Layer_2" data-name="Layer 2"><g id="Layer_1-2" data-name="Layer 1"><path d="M354.86,104.79l-9.62-50.12C311.83,65.81,279.43,73.4,244.5,79.47,233.37,53.66,223.75,29.87,213.62,0L156.93,10.63c9.62,15.69,14.17,25.31,22.78,45.05l14.17,30.88C138.2,92.13,72.9,92.13,0,83l2,50.62c78,6.58,148.82,6.58,212.61-.51,15.18,33.92,36.44,78,49.61,106.31-16.2-1.52-47.59-4.56-65.81-6.58l-5.06,41c34.92,4.05,84.53,11.14,108.32,16.2l28.86-29.87c-22.28-41.51-48.09-94.66-66.31-135.16C295.12,119.47,326.51,112.38,354.86,104.79Z"/><path class="cls-1" d="M293.61,364.47l-1,52.14c-29.86,5.57-66.82,12.15-133.13,12.15-96.18,0-149.33-38-149.33-103.77,0-21.77,6.07-51.13,14.17-79l51.63,4c-7.59,17.72-14.17,47.07-14.17,61.75,0,41,24.8,66.32,98.21,66.32C227.8,378.14,257.67,371.56,293.61,364.47Z"/></g></g></svg>