<svg xmlns="http://www.w3.org/2000/svg" viewBox="0 0 354.86 428.76"><g id="Layer_2" data-name="Layer 2"><g id="Layer_1-2" data-name="Layer 1"><path d="M354.86,104.79c-28.36,7.59-59.74,14.68-90.62,20.24,18.23,40.5,44,93.65,66.32,135.16L301.7,290.06c-23.79-5.06-73.4-12.15-108.33-16.2l5.06-41c18.23,2,49.61,5.06,65.81,6.58-13.16-28.35-34.42-72.39-49.61-106.31C150.85,140.22,80,140.22,2,133.64L0,83c72.89,9.11,138.2,9.11,193.88,3.54L179.7,55.68c-8.6-19.74-13.16-29.36-22.77-45L213.62,0c10.13,29.87,19.74,53.66,30.88,79.47,34.93-6.07,67.32-13.66,100.74-24.8ZM75.93,250.07c-7.59,17.72-14.17,47.08-14.17,61.75,0,41,24.8,66.32,98.2,66.32,67.84,0,97.7-6.58,133.64-13.67l-1,52.14c-29.87,5.57-66.82,12.15-133.13,12.15-96.18,0-149.33-38-149.33-103.77,0-21.77,6.07-51.13,14.17-79Z"/></g></g></svg>