<svg xmlns="http://www.w3.org/2000/svg" viewBox="0 0 471.96 428.76"><g id="Layer_2" data-name="Layer 2"><g id="Layer_1-2" data-name="Layer 1"><path d="M379.62,0c-1.62,8.64-2.7,29.16-2.7,42.12-.54,22.68-1.08,45.9-1.62,67,18.36-1.62,35.64-2.7,50.76-3.78,14.58-.54,32.4-1.62,45.9-3.24V155c-8.64-.54-32.4.54-45.9.54-14,.54-31.86,1.08-51.84,2.7-1.08,40-3.24,86.4-8.1,110.16-4.86,25.38-17.28,32.4-43.2,32.4-18.9,0-58.32-5.4-74.52-8.1l1.08-47c17.28,3.24,40,6.48,51.3,6.48,11.88,0,17.28-1.62,18.9-13,2.7-16.74,4.32-47,4.86-77.22-51.3,3.78-109.62,9.72-159.3,14.58-.54,52.38-1.08,105.3,0,126.9C166.86,358.56,169,375.3,256,375.3c55.62,0,122.58-6.48,159.3-13l-1.62,57.78c-36.18,3.78-101.52,8.64-154.44,8.64-130.14,0-144.18-29.16-146.34-117.18-.54-22.68-.54-77.22-.54-129.6-20,2.16-36.18,3.78-48.06,5.4-16.74,2.16-44.28,5.94-58.32,8.1L0,140.94c16.2,0,38.34-1.08,60.48-3.24,11.88-1.08,29.7-2.7,51.84-4.86V67.5a396.39,396.39,0,0,0-3.24-51.3h59.4a423.8,423.8,0,0,0-2.7,48.6c0,15.12,0,37.8-.54,63.18,49.14-4.86,106.92-10.26,160.38-15.12V43.74c0-12.42-2.16-34-3.78-43.74Z"/></g></g></svg>