<svg xmlns="http://www.w3.org/2000/svg" viewBox="0 0 405.27 428.76"><g id="Layer_2" data-name="Layer 2"><g id="Layer_1-2" data-name="Layer 1"><path d="M126.75,14.08c21.9,0,124.13-4.69,154.91-8.34C295.74,4.7,306.17,2.61,313,0l32.86,38.08C337,43.29,321.3,53.72,312.43,61,274.88,91.8,210.72,145.52,171.6,176.3c74.59-7.83,164.3-14.09,233.15-14.09l.52,48.51c-50.07-3.13-100.66-2.61-132,1.56-48.5,7.31-93.88,45.38-93.88,91.28,0,46.95,37.55,63.64,84.49,69.89a415.94,415.94,0,0,0,75.63,1.05l-10.43,53.72C200.29,434,127.79,393.8,127.79,311.91c0-38.6,26.6-73.54,50.07-90.23-51.63,4.17-115.79,12-173.16,21.9L0,194c28.17-3.13,63.11-7.82,89.71-10.95,51.64-35,126.75-100.67,159.61-129.36-22.43,1.57-100.67,5.74-122,7.31-13.56,1-29.73,2.6-42.77,4.17L81.89,12A399.93,399.93,0,0,0,126.75,14.08Z"/></g></g></svg>