<svg xmlns="http://www.w3.org/2000/svg" viewBox="0 0 418.2 428.76"><defs><style>.cls-1{fill:#7a7a7a;}</style></defs><g id="Layer_2" data-name="Layer 2"><g id="Layer_1-2" data-name="Layer 1"><path class="cls-1" d="M272.26,0c-1,6.54-2.52,29.19-2.52,36.23-.5,6-.5,14.6-.5,24.66l-49.32.5c-.5-10.56-.5-19.62-1-25.16-1-12.58-2.51-29.18-4-36.23Z"/><path class="cls-1" d="M269.24,183.68c0-22.14,0-51.33-.5-78l-48.32.5.51,42.28a96.91,96.91,0,0,0-27.68-3.53c-50.32,0-93.1,37.24-93.1,89.58,0,56.87,43.78,87.06,84,87.06a83.8,83.8,0,0,0,34.72-7.05c-24.15,37.24-69.95,58.88-128.32,72l42.77,42.27c118.26-34.22,153.49-112.22,153.49-178.65C286.85,224.44,280.81,201.8,269.24,183.68Zm-76,94.11c-24.16,0-45.29-16.61-45.29-44.29,0-29.69,22.14-46.8,44.78-46.8,16.61,0,30.7,7.05,38.76,23.15C238,257.15,218.91,277.79,193.25,277.79Z"/><path d="M418.2,60.89l-.51,47.31c-29.69-1.51-76.49-2.52-148.95-2.52l-48.32.5c-75.48,1-157,4-218.91,8.06L0,65.92c56.37-.5,149-3.52,219.92-4.53l49.32-.5Z"/></g></g></svg>