<svg xmlns="http://www.w3.org/2000/svg" viewBox="0 0 418.19 428.76"><g id="Layer_2" data-name="Layer 2"><g id="Layer_1-2" data-name="Layer 1"><path d="M417.69,108.2c-29.69-1.51-76.49-2.52-149-2.52.5,26.67.5,55.86.5,78,11.58,18.12,17.62,40.77,17.62,66.43,0,66.43-35.23,144.43-153.49,178.65L90.58,386.49c58.38-13.09,104.17-34.73,128.33-72a84,84,0,0,1-34.72,7c-40.26,0-84-30.19-84-87.06,0-52.34,42.78-89.58,93.1-89.58a96.82,96.82,0,0,1,27.68,3.53l-.5-42.28c-75.49,1-157,4-218.91,8.06L0,65.92c56.36-.5,149-3.52,219.92-4.53-.51-10.56-.51-19.62-1-25.16-1-12.58-2.52-29.18-4-36.23h57.37c-1,6.54-2.51,29.19-2.51,36.23-.51,6-.51,14.6-.51,24.66h149ZM193.24,277.79c25.67,0,44.79-20.64,38.25-67.94-8.05-16.1-22.14-23.15-38.75-23.15-22.65,0-44.79,17.11-44.79,46.8C148,261.18,169.09,277.79,193.24,277.79Z"/></g></g></svg>