<svg xmlns="http://www.w3.org/2000/svg" viewBox="0 0 393.15 407.3"><defs><style>.cls-1{fill:#7a7a7a;}</style></defs><g id="Layer_2" data-name="Layer 2"><g id="Layer_1-2" data-name="Layer 1"><path class="cls-1" d="M385.84,150.72l-1.47,46.35c-24.38-2.93-53.16-5.86-81.94-5.86a793.14,793.14,0,0,0-91.22,4.88V151.21a848.38,848.38,0,0,1,90.24-4.87A809.76,809.76,0,0,1,385.84,150.72Z"/><path class="cls-1" d="M393.15,343.89l-1.46,49.26A663.67,663.67,0,0,1,296.08,400c-78.53,0-119-25.85-119-73.65,0-20,3.41-40.49,7.31-60.49l45.86,4.39c-3.91,15.12-6.83,30.25-6.83,41.95,0,21.95,11.7,41.46,73.16,41.46C328.28,353.64,361.45,349.74,393.15,343.89Z"/><path class="cls-1" d="M148.29,122c-4.39,21-9.76,42.43-15.13,62.92-17.55,68.29-49.75,167.8-76.09,222.43L3.41,389.25c29.27-49.26,63.9-148.77,82-216.57C89.75,158,93.66,142,97.07,126.34Z"/><path class="cls-1" d="M173.65,4.39c-3.41,12.2-7.32,31.71-9.27,41.46l-5.85,28.29-51.22,5.37c2.44-14.15,4.88-26.83,5.86-35.61,2-15.61,2.44-33.17,1.46-43.9Z"/><path d="M245.36,57.56v48.29c-30.25,6.83-63.9,12.2-97.07,16.1l-51.22,4.39c-13.66.49-26.34,1-38.54,1-22.43,0-40-1-57.55-2L0,77.56a448.58,448.58,0,0,0,59,3.9c15.12,0,31.22-.49,48.29-1.95l51.22-5.37A827,827,0,0,0,245.36,57.56Z"/></g></g></svg>