<svg xmlns="http://www.w3.org/2000/svg" viewBox="0 0 393.16 407.3"><defs><style>.cls-1{fill:#7a7a7a;}</style></defs><g id="Layer_2" data-name="Layer 2"><g id="Layer_1-2" data-name="Layer 1"><path d="M158.53,74.14l5.85-28.29c2-9.75,5.86-29.26,9.27-41.46L114.63,0c1,10.73.49,28.29-1.46,43.9-1,8.78-3.42,21.46-5.86,35.61C90.24,81,74.15,81.46,59,81.46a448.68,448.68,0,0,1-59-3.9l1,47.8c17.56,1,35.12,2,57.56,2,12.19,0,24.87-.48,38.53-1C93.66,142,89.76,158,85.36,172.68,67.32,240.48,32.68,340,3.42,389.25L57.07,407.3c26.34-54.63,58.54-154.14,76.1-222.43,5.36-20.49,10.73-42,15.12-62.92,33.17-3.9,66.82-9.27,97.07-16.1V57.56A826.48,826.48,0,0,1,158.53,74.14Z"/><path class="cls-1" d="M385.84,150.72l-1.46,46.35c-24.39-2.93-53.17-5.86-81.95-5.86a793.14,793.14,0,0,0-91.22,4.88V151.21a848.38,848.38,0,0,1,90.24-4.87A809.76,809.76,0,0,1,385.84,150.72Z"/><path class="cls-1" d="M393.16,343.89l-1.47,49.26a663.63,663.63,0,0,1-95.6,6.83c-78.53,0-119-25.85-119-73.65,0-20,3.41-40.49,7.31-60.49l45.86,4.39c-3.9,15.12-6.83,30.25-6.83,41.95,0,21.95,11.7,41.46,73.17,41.46C328.28,353.64,361.45,349.74,393.16,343.89Z"/></g></g></svg>