<svg xmlns="http://www.w3.org/2000/svg" viewBox="0 0 393.15 407.3"><defs><style>.cls-1{fill:#7a7a7a;}</style></defs><g id="Layer_2" data-name="Layer 2"><g id="Layer_1-2" data-name="Layer 1"><path d="M301.45,146.34a848.73,848.73,0,0,0-90.25,4.87v44.88a793.26,793.26,0,0,1,91.22-4.88c28.78,0,57.56,2.93,81.95,5.86l1.46-46.35A809.57,809.57,0,0,0,301.45,146.34ZM158.52,74.14l5.86-28.29c2-9.75,5.85-29.26,9.27-41.46L114.63,0c1,10.73.48,28.29-1.47,43.9-1,8.78-3.41,21.46-5.85,35.61C90.23,81,74.14,81.46,59,81.46a448.47,448.47,0,0,1-59-3.9l1,47.8c17.56,1,35.12,2,57.56,2,12.19,0,24.88-.48,38.53-1C93.65,142,89.75,158,85.36,172.68,67.31,240.48,32.68,340,3.41,389.25L57.07,407.3c26.34-54.63,58.53-154.14,76.09-222.43,5.36-20.49,10.73-42,15.12-62.92,33.17-3.9,66.83-9.27,97.07-16.1V57.56A826.48,826.48,0,0,1,158.52,74.14Z"/><path class="cls-1" d="M393.15,343.89l-1.46,49.26A663.78,663.78,0,0,1,296.08,400c-78.53,0-119-25.85-119-73.65,0-20,3.41-40.49,7.32-60.49l45.85,4.39c-3.9,15.12-6.83,30.25-6.83,41.95,0,21.95,11.71,41.46,73.17,41.46C328.27,353.64,361.44,349.74,393.15,343.89Z"/></g></g></svg>