<svg xmlns="http://www.w3.org/2000/svg" viewBox="0 0 393.15 407.3"><g id="Layer_2" data-name="Layer 2"><g id="Layer_1-2" data-name="Layer 1"><path d="M245.35,105.85c-30.24,6.83-63.9,12.2-97.06,16.1-4.39,21-9.76,42.43-15.13,62.92C115.6,253.16,83.41,352.67,57.07,407.3L3.41,389.25c29.27-49.26,63.9-148.77,82-216.57C89.75,158,93.65,142,97.07,126.34c-13.66.49-26.34,1-38.54,1-22.43,0-40-1-57.56-2L0,77.56a448.58,448.58,0,0,0,59,3.9c15.12,0,31.22-.49,48.29-1.95,2.44-14.15,4.88-26.83,5.86-35.61,2-15.61,2.43-33.17,1.46-43.9l59,4.39c-3.41,12.2-7.32,31.71-9.27,41.46l-5.85,28.29a826.3,826.3,0,0,0,86.82-16.58ZM230.23,270.23c-3.9,15.12-6.83,30.25-6.83,41.95,0,21.95,11.71,41.46,73.17,41.46,31.71,0,64.88-3.9,96.58-9.75l-1.46,49.27A665.24,665.24,0,0,1,296.08,400c-78.53,0-119-25.85-119-73.65,0-20,3.41-40.49,7.31-60.49Zm-19-119a848.38,848.38,0,0,1,90.24-4.87,807.17,807.17,0,0,1,84.39,4.39l-1.47,46.34c-24.39-2.93-53.17-5.86-81.94-5.86a793.14,793.14,0,0,0-91.22,4.88Z"/></g></g></svg>