<svg xmlns="http://www.w3.org/2000/svg" viewBox="0 0 423.25 407.3"><g id="Layer_2" data-name="Layer 2"><g id="Layer_1-2" data-name="Layer 1"><path d="M48.92,29.25C87.73,26.06,181.32,17,278.09,8.51c56.36-4.26,109-7.44,145.16-8.51V53.17c-29.24,0-74.44.53-102.09,8C251,81.88,204.71,156.86,204.71,219.07c0,95.71,89.33,127.61,176.53,131.34L362.1,407.3C259,402,150.48,346.68,150.48,230.24c0-79.23,46.26-143,89.33-170.69-46.26,5.32-175.47,18.08-234,30.31L0,31.9C20.74,31.37,38.82,30.31,48.92,29.25Z"/></g></g></svg>