<svg xmlns="http://www.w3.org/2000/svg" viewBox="0 0 324.64 407.3"><defs><style>.cls-1{fill:#7a7a7a;}</style></defs><g id="Layer_2" data-name="Layer 2"><g id="Layer_1-2" data-name="Layer 1"><path d="M63.13,0,13.53,20c23,53.1,48.09,108.71,70.64,150.8l43.58-28.06A1141.53,1141.53,0,0,1,63.13,0Z"/><path class="cls-1" d="M324.64,338.66l-.5,56.11c-39.08,7-94.69,12.53-157.81,12.53C70.64,407.3,0,379.25,0,300.09c0-52.61,33.57-93.18,84.17-129.25l43.58-28.06c43.59-26,92.68-50.6,118.23-65.13,16.54-9.52,28.56-16.53,40.08-26.05l27.05,45.59c-12.52,7.51-26.55,15-42.58,23-32.56,16.53-98.19,47.59-145.28,78.65-44.09,28.55-71.64,59.62-71.64,95.69,0,38.57,36.57,61.12,110.71,61.12C216.93,355.7,284.06,348.18,324.64,338.66Z"/></g></g></svg>