<svg xmlns="http://www.w3.org/2000/svg" viewBox="0 0 324.64 407.3"><g id="Layer_2" data-name="Layer 2"><g id="Layer_1-2" data-name="Layer 1"><path d="M313.11,97.19c-12.52,7.51-26.55,15-42.58,23-32.56,16.53-98.19,47.59-145.28,78.65-44.09,28.56-71.64,59.62-71.64,95.69,0,38.57,36.57,61.12,110.71,61.12,52.6,0,119.74-7.52,160.32-17l-.5,56.11c-39.08,7-94.69,12.53-157.81,12.53C70.64,407.3,0,379.25,0,300.09c0-52.61,33.57-93.18,84.17-129.25C61.62,128.75,36.57,73.14,13.53,20L63.12,0a1142.93,1142.93,0,0,0,64.63,142.78c43.58-26,92.68-50.6,118.23-65.13,16.53-9.52,28.56-16.53,40.08-26.05Z"/></g></g></svg>