<svg xmlns="http://www.w3.org/2000/svg" viewBox="0 0 314.5 406.29"><defs><style>.cls-1{fill:#7a7a7a;}</style></defs><g id="Layer_2" data-name="Layer 2"><g id="Layer_1-2" data-name="Layer 1"><path d="M66.66,0,59.42,45.89C114,55.56,213.53,64.73,267.64,68.6l7.73-46.86C227.06,21.25,120.77,11.59,66.66,0Z"/><path class="cls-1" d="M314.5,223.68c0,102.9-93.72,163.77-221.26,182.61l-28-46.86c117.4-14.49,196.63-57,196.63-137.69,0-36.71-29-63.76-76.33-63.76C131.4,158,84.54,174.4,58,182.13c-14.5,3.86-30.44,10.14-43,15L0,142c14.49-1,32.85-4.34,47.34-7.24,34.78-7.73,88.89-22.71,144-22.71C262.81,112.08,314.5,152.66,314.5,223.68Z"/></g></g></svg>