<svg xmlns="http://www.w3.org/2000/svg" viewBox="0 0 314.51 406.29"><g id="Layer_2" data-name="Layer 2"><g id="Layer_1-2" data-name="Layer 1"><path d="M185.51,158c-54.1,0-101,16.42-127.54,24.15-14.49,3.87-30.43,10.15-43,15L0,142c14.49-1,32.85-4.34,47.34-7.24,34.79-7.73,88.9-22.71,144-22.71,71.5,0,123.2,40.58,123.2,111.6,0,102.9-93.73,163.77-221.27,182.61l-28-46.86c117.39-14.49,196.63-57,196.63-137.68C261.85,185,232.86,158,185.51,158ZM275.37,21.74,267.64,68.6C213.53,64.73,114,55.56,59.42,45.89L66.67,0C120.78,11.59,227.06,21.26,275.37,21.74Z"/></g></g></svg>