<svg xmlns="http://www.w3.org/2000/svg" viewBox="0 0 426.06 405.2"><defs><style>.cls-1{fill:#7a7a7a;}</style></defs><g id="Layer_2" data-name="Layer 2"><g id="Layer_1-2" data-name="Layer 1"><path d="M110.51,0c2.43,13.08,2.43,26.65,2.43,38.77,0,5.33-1,20.84-2.43,41.69l-3.39,45.07-2.42,41.69-3.88,80.94c-1,53.32-1.46,80.94-1.94,125.54,0,7.75-1,23.26-1.45,31.5h52.34c-1-9.69-2.42-23.75-2.9-32.47-2.43-43.63-1.94-78-1.94-119.72,0-15,.48-32,1.45-49.44l3.39-54.29c.49-7.75,1.46-16,1.94-23.75l5.82-54.77c3.39-31,7.27-56.71,9.69-68.83Z"/><path class="cls-1" d="M104.7,167.22l-3.88,80.94c-22.3,33-50.41,74.65-70.77,102.27L0,308.26C26.66,275.3,79,206,104.7,167.22Z"/><path class="cls-1" d="M110.51,80.46l-3.39,45.07c-22.29,2.91-61.56,8.24-90.64,12.12L11.63,88.21c12.12.48,22.3,0,35.87-.48C62.53,86.75,87.25,83.85,110.51,80.46Z"/><path class="cls-1" d="M174.49,91.12c-6.3,8.72-15,22.29-22.78,34.41l5.82-54.77Z"/><path class="cls-1" d="M426.06,218.59c.48,97-65.93,150.75-177.41,172.56l-21.81-46c82.4-12.12,149.29-48,149.29-127.48,0-37.32-29.57-79-86.28-79-53.31,0-101.3,25.69-143.47,64.95l3.39-54.29C200.67,109.05,252.53,94,297.12,94,366.92,94,425.57,143,426.06,218.59Z"/></g></g></svg>