<svg xmlns="http://www.w3.org/2000/svg" viewBox="0 0 426.06 405.21"><g id="Layer_2" data-name="Layer 2"><g id="Layer_1-2" data-name="Layer 1"><path d="M174.49,91.12c-6.3,8.73-15,22.3-22.78,34.42-.48,7.75-1.45,16-1.94,23.75C200.67,109.05,252.53,94,297.12,94,366.92,94,425.57,143,426.06,218.6c.48,96.94-65.93,150.74-177.41,172.55l-21.81-46c82.4-12.12,149.29-48,149.29-127.48,0-37.32-29.57-79-86.28-79-53.32,0-101.3,25.69-143.47,64.95-1,17.45-1.45,34.42-1.45,49.44,0,41.69-.49,76.1,1.94,119.72.48,8.73,1.93,22.79,2.9,32.48H97.43c.48-8.24,1.45-23.75,1.45-31.51.48-44.59,1-72.22,1.94-125.53-22.3,33-50.41,74.64-70.77,102.27L0,308.27c26.66-33,79-102.27,104.7-141l2.42-41.68c-22.3,2.9-61.56,8.24-90.64,12.11L11.63,88.21c12.12.49,22.3,0,35.87-.48,15-1,39.75-3.88,63-7.27,1.46-20.84,2.43-36.35,2.43-41.68,0-12.13,0-25.69-2.43-38.78l56.71,1.94c-2.42,12.11-6.3,37.8-9.69,68.82Z"/></g></g></svg>