<svg xmlns="http://www.w3.org/2000/svg" viewBox="0 0 403.34 405.2"><defs><style>.cls-1{fill:#7a7a7a;}</style></defs><g id="Layer_2" data-name="Layer 2"><g id="Layer_1-2" data-name="Layer 1"><path d="M294.91,74.31c-47.67,0-107.5,23.83-163.11,48.6L90.2,141.14c-17.29,8-33.65,15-48.61,21A334.41,334.41,0,0,1,0,175.72l22,47.21c20.57-9.35,51.42-25.24,86-42.53l41.59-19.63c51.42-23.84,105.63-44.4,144-44.4,41.13,0,61.69,22,61.69,48.14,0,32.72-22.43,57-66.37,57-22.43,0-45.8-7-64.5-15.43l-1.4,45.81C239.76,258.45,267.33,265,293,265c71.51,0,110.3-40.67,110.3-98.62C403.34,114.5,362.21,74.31,294.91,74.31Z"/><path class="cls-1" d="M254.71,52.34,220.6,78c-17.3-16.82-41.13-40.19-60.29-54.21L194,0C209.85,12.15,237.89,35.05,254.71,52.34Z"/><path class="cls-1" d="M236.49,392.59l-51,12.61c-14.49-56.08-36.92-132.26-62.62-190.68L108,180.4l41.59-19.63c5.15,11.22,10.29,22.9,15.43,34.12C188.82,249.1,220.6,340.71,236.49,392.59Z"/><path class="cls-1" d="M131.8,122.91,90.2,141.14c-8.41-17.29-16.36-32.72-23.84-45.8-6.07-10.28-15.89-25.71-24.3-36L89.73,40.66C93.47,48.6,102.35,65.43,107,73.84,115,88.33,123.38,105.15,131.8,122.91Z"/></g></g></svg>