<svg xmlns="http://www.w3.org/2000/svg" viewBox="0 0 403.34 405.2"><defs><style>.cls-1{fill:#7a7a7a;}</style></defs><g id="Layer_2" data-name="Layer 2"><g id="Layer_1-2" data-name="Layer 1"><path d="M294.91,74.31c-47.67,0-107.5,23.83-163.11,48.6C123.38,105.15,115,88.33,107,73.84c-4.67-8.41-13.55-25.24-17.29-33.18L42.06,59.35c8.41,10.28,18.23,25.71,24.3,36,7.48,13.08,15.43,28.51,23.84,45.8-17.29,8-33.65,15-48.61,21A334.41,334.41,0,0,1,0,175.72l22,47.21c20.57-9.35,51.42-25.24,86-42.53l15,34.12c25.7,58.42,48.13,134.6,62.62,190.68l51-12.61C220.6,340.71,188.82,249.1,165,194.89c-5.14-11.22-10.28-22.9-15.43-34.12,51.42-23.84,105.63-44.4,144-44.4,41.13,0,61.69,22,61.69,48.14,0,32.72-22.43,57-66.37,57-22.43,0-45.8-7-64.5-15.43l-1.4,45.81C239.76,258.45,267.33,265,293,265c71.51,0,110.3-40.67,110.3-98.62C403.34,114.5,362.21,74.31,294.91,74.31Z"/><path class="cls-1" d="M254.71,52.34,220.6,78c-17.3-16.82-41.13-40.19-60.29-54.21L194,0C209.85,12.15,237.89,35.05,254.71,52.34Z"/></g></g></svg>