<svg xmlns="http://www.w3.org/2000/svg" viewBox="0 0 358.68 405.2"><defs><style>.cls-1{fill:#7a7a7a;}</style></defs><g id="Layer_2" data-name="Layer 2"><g id="Layer_1-2" data-name="Layer 1"><path d="M344.14,85.79c-41.68,4.84-100.33,7.27-138.63,7.75v45.08c38.78-1,98.4-3.39,140.57-7.27Z"/><path class="cls-1" d="M358.68,334.44c-33.93-31-86.28-64.47-148.32-81.92-1.94-39.26-4.85-83.36-4.85-113.9V93.54c0-15.51-.48-30.05,0-42.17,1-16.48,2.43-39.74,4.37-51.37H152.2c2.42,10.17,3.87,31,4.36,51.37,0,20.36.48,54.78.48,83.37,0,27.14,1.94,69.8,3.39,107.6-11.63-1-23.26-1.93-35.38-1.93-84.82,0-125,37.32-125,83.85C0,383.4,52.35,405.2,119.24,405.2c71.25,0,94.51-36.83,94.51-77.55,0-6.78,0-15.51-.48-25.69C259.8,320.87,300,350.43,329.6,380ZM114.87,359.16C74.64,359.16,49,347,49,321.83c0-23.74,25.68-38.77,69.79-38.77a215.43,215.43,0,0,1,43.63,4.36c.48,9.7.48,17.94.48,24.24C162.86,344.13,148.32,359.16,114.87,359.16Z"/></g></g></svg>