<svg xmlns="http://www.w3.org/2000/svg" viewBox="0 0 358.68 405.21"><g id="Layer_2" data-name="Layer 2"><g id="Layer_1-2" data-name="Layer 1"><path d="M329.6,380c-29.57-29.57-69.8-59.14-116.33-78,.48,10.18.48,18.9.48,25.69,0,40.71-23.26,77.55-94.52,77.55C52.35,405.21,0,383.4,0,324.27c0-46.53,40.23-83.86,125.05-83.86,12.12,0,23.75,1,35.38,1.94C159,204.55,157,161.89,157,134.75c0-28.6-.48-63-.48-83.37C156.07,31,154.62,10.18,152.2,0h57.67c-1.93,11.63-3.39,34.9-4.36,51.38-.48,12.11,0,26.66,0,42.17,38.29-.49,96.94-2.91,138.63-7.76l1.94,45.56c-42.17,3.88-101.79,6.31-140.57,7.27,0,30.54,2.91,74.65,4.85,113.91,62,17.45,114.39,50.9,148.32,81.92ZM162.37,287.43a214.55,214.55,0,0,0-43.62-4.37c-44.11,0-69.8,15-69.8,38.78,0,25.21,25.69,37.32,65.92,37.32,33.45,0,48-15,48-47.5C162.86,305.36,162.86,297.12,162.37,287.43Z"/></g></g></svg>