<svg xmlns="http://www.w3.org/2000/svg" viewBox="0 0 370.34 405.2"><defs><style>.cls-1{fill:#7a7a7a;}</style></defs><g id="Layer_2" data-name="Layer 2"><g id="Layer_1-2" data-name="Layer 1"><path d="M232.29,61.25l3.77,41c61.25,3.3,88.58,42.41,88.58,89.05,0,55.13-37.23,90-97.54,91.41l-16,44.76a115.07,115.07,0,0,0,12.72.47c98,0,146.54-60.31,146.54-138C370.34,118.73,318,62.66,232.29,61.25ZM43.82,182.34c-1.89-33.93,6.59-91.41,12.25-119.21,2.35-7.54,4.71-16.49,7.54-24.5L12.72,34.39a146.15,146.15,0,0,1-.47,24.5C9.42,85.28,0,147.48,0,199.3c0,44.76,6.59,93.77,16,124.39L57.48,318c-2.83-12.72-5.18-35.81-5.65-44.76-.47-9.43.94-17.91,2.82-26.39C66.43,192.24,114,122,191.29,105.54l-3.77-40.05C126.27,78.68,72.09,120.62,43.82,182.34Zm75.85,30.16L92.35,246c16,32.51,41.93,56.54,72.56,69.73l16.49-40.52C154.07,264.32,134.75,242.18,119.67,212.5Z"/><path class="cls-1" d="M238.88,173.39c0,38.16-2.82,74.91-11.78,109.31l-16,44.76a194.26,194.26,0,0,1-65.49,77.74l-43.82-26.38a159.52,159.52,0,0,0,63.14-63.14l16.49-40.52c9.42-31.57,12.72-66.44,12.72-101.77,0-23.56-.94-46.65-2.83-67.85l-3.77-40.05a328,328,0,0,0-5.18-33.92C180,21.2,177.16,8.48,174.33.94l49-.94c2.83,14.6,6.13,35.81,9,61.25l3.77,41C237.94,124.86,238.88,149.36,238.88,173.39Z"/></g></g></svg>