<svg xmlns="http://www.w3.org/2000/svg" viewBox="0 0 314.4 343.99"><defs><style>.cls-1{fill:#7a7a7a;}</style></defs><g id="Layer_2" data-name="Layer 2"><g id="Layer_1-2" data-name="Layer 1"><path d="M101.6,180.4,78.4,208.8C92,236.4,114,256.79,140,268l14-34.4C130.8,224.4,114.4,205.6,101.6,180.4Zm60.8-90.8-3.2-34c-52,11.2-98,46.8-122,99.2C35.6,126,42.8,77.2,47.6,53.6c2-6.4,4-14,6.4-20.8L10.8,29.2A123.79,123.79,0,0,1,10.4,50C8,72.4,0,125.2,0,169.2c0,38,5.6,79.59,13.6,105.59L48.8,270c-2.4-10.8-4.4-30.4-4.8-38-.4-8,.8-15.2,2.4-22.39C56.4,163.2,96.8,103.6,162.4,89.6ZM197.2,52l3.2,34.8c52,2.8,75.2,36,75.2,75.6,0,46.8-31.6,76.39-82.8,77.59l-13.6,38a97.47,97.47,0,0,0,10.8.4c83.2,0,124.4-51.2,124.4-117.19C314.4,100.8,270,53.2,197.2,52Z"/><path class="cls-1" d="M202.8,147.2c0,32.4-2.4,63.6-10,92.79l-13.6,38a165,165,0,0,1-55.6,66l-37.2-22.4A135.36,135.36,0,0,0,140,268l14-34.4c8-26.79,10.8-56.39,10.8-86.39,0-20-.8-39.6-2.4-57.6l-3.2-34a280.42,280.42,0,0,0-4.4-28.8c-2-8.8-4.4-19.6-6.8-26L189.6,0c2.4,12.4,5.2,30.4,7.6,52l3.2,34.8C202,106,202.8,126.8,202.8,147.2Z"/></g></g></svg>