<svg xmlns="http://www.w3.org/2000/svg" viewBox="0 0 370.34 405.21"><g id="Layer_2" data-name="Layer 2"><g id="Layer_1-2" data-name="Layer 1"><path d="M223.34,0c2.82,14.61,6.12,35.81,8.95,61.25,85.75,1.42,138,57.49,138,128.64,0,77.74-48.53,138.05-146.54,138.05a114.89,114.89,0,0,1-12.71-.47,194.5,194.5,0,0,1-65.5,77.74l-43.82-26.38a159.52,159.52,0,0,0,63.14-63.14c-30.63-13.2-56.54-37.23-72.56-69.74l27.33-33.45c15.07,29.68,34.39,51.83,61.72,62.67,9.42-31.57,12.72-66.44,12.72-101.78,0-23.55-.94-46.64-2.83-67.85C114,122,66.44,192.24,54.65,246.9c-1.88,8.48-3.29,17-2.82,26.38.47,9,2.82,32,5.65,44.76L16,323.69C6.59,293.07,0,244.07,0,199.31c0-51.83,9.42-114,12.25-140.41a146.18,146.18,0,0,0,.47-24.5l50.89,4.24c-2.83,8-5.19,17-7.54,24.5-5.66,27.8-14.14,85.28-12.25,119.21,28.27-61.73,82.45-103.66,143.7-116.86a328,328,0,0,0-5.18-33.92c-2.35-10.36-5.18-23.09-8-30.63Zm101.3,191.3c0-46.65-27.33-85.76-88.58-89.05,1.88,22.61,2.82,47.11,2.82,71.14,0,38.17-2.82,74.92-11.78,109.32C287.41,281.29,324.64,246.42,324.64,191.3Z"/></g></g></svg>