<svg xmlns="http://www.w3.org/2000/svg" viewBox="0 0 314.4 343.99"><g id="Layer_2" data-name="Layer 2"><g id="Layer_1-2" data-name="Layer 1"><path d="M189.6,0c2.4,12.4,5.2,30.4,7.6,52,72.8,1.2,117.2,48.8,117.2,109.2,0,66-41.2,117.2-124.4,117.2a97.47,97.47,0,0,1-10.8-.4,165,165,0,0,1-55.6,66l-37.2-22.4A135.28,135.28,0,0,0,140,268c-26-11.2-48-31.6-61.6-59.2l23.2-28.4c12.8,25.2,29.2,44,52.4,53.2,8-26.8,10.8-56.4,10.8-86.4,0-20-.8-39.6-2.4-57.6-65.6,14-106,73.6-116,120C44.8,216.8,43.6,224,44,232c.4,7.6,2.4,27.2,4.8,38l-35.2,4.8C5.6,248.8,0,207.2,0,169.2,0,125.2,8,72.4,10.4,50a123.79,123.79,0,0,0,.4-20.8L54,32.8c-2.4,6.8-4.4,14.4-6.4,20.8-4.8,23.6-12,72.4-10.4,101.2,24-52.4,70-88,122-99.2a280.42,280.42,0,0,0-4.4-28.8c-2-8.8-4.4-19.6-6.8-26Zm86,162.4c0-39.6-23.2-72.8-75.2-75.6,1.6,19.2,2.4,40,2.4,60.4,0,32.4-2.4,63.6-10,92.8C244,238.8,275.6,209.2,275.6,162.4Z"/></g></g></svg>