<?xml version="1.0" encoding="utf-8"?>
<!-- Generator: Adobe Illustrator 25.4.1, SVG Export Plug-In . SVG Version: 6.00 Build 0)  -->
<svg version="1.1" xmlns="http://www.w3.org/2000/svg" xmlns:xlink="http://www.w3.org/1999/xlink" x="0px" y="0px"
	 viewBox="0 0 198.4 134.9" style="enable-background:new 0 0 198.4 134.9;" xml:space="preserve">
<style type="text/css">
	.st0{fill:#8B2D1C;}
	.st1{fill:#5E6269;}
	.st2{fill:#CE2527;}
	.st3{fill:#FFFFFF;}
	.st4{fill:#661B07;}
	.st5{fill:#FFCD04;}
	.st6{fill:#010101;}
	.st7{fill:#231F20;}
	.st8{fill:#2B2B2B;}
	.st9{fill:#331111;}
	.st10{fill:#FFFFFF;stroke:#010101;stroke-width:0.5;stroke-miterlimit:10;}
	.st11{fill:none;stroke:#010101;stroke-width:0.5;stroke-miterlimit:10;}
</style>
<g id="illustration">
	<path class="st0" d="M0.2,21.9c0,0,18-0.5,23.5-2s20.4-2.9,20.4-2.9s11.2,1.5,16.3,1.7s12.8,0.7,12.8,0.7l47.6-1
		c1.7-1.6,4.4-1.4,6,0.3c3,3,6.2,13.8,2.5,23c-0.7,2.2-2.7,3.7-5,3.7c-3.3,0.1-6.5-0.3-9.7-1.1l-40.1,1c0,0-13.1-1-18.5-2.3
		s-10.5-2.1-15-1.4s-1.4,2.8-23.3,4.9S0.2,48.5,0.2,48.5V21.9z"/>
	<path class="st1" d="M71.1,9.9c0,0,7.2-4,18.9-5.3s24.8,1.1,29.9,4.8c0,0-9.2,45.8-2.5,61.4s3.5,13,13,25l0.6,0.5
		c0,0-6.5,14.3-36.9,15.1s-39.9-10.1-39.9-10.1l5.1-4.1c0,0,12.6-11.9,15.6-34.7C76.1,44.3,71.1,9.9,71.1,9.9z"/>
	<path class="st2" d="M54.8,101.4c0.4-0.1,0.7-0.3,1-0.6c0.3-0.2,0.6-0.4,0.9-0.7s-0.1-0.5-0.3-0.4s-0.7,0.5-1,0.8
		c-0.3,0.2-0.5,0.4-0.7,0.7C54.7,101.3,54.8,101.4,54.8,101.4L54.8,101.4z"/>
	<path class="st2" d="M55.4,101.4c3.1,2.7,8.2,4.1,12.1,5.3c4.4,1.4,8.9,2.5,13.5,3.2c4.3,0.6,8.8,0.8,13.1,0.6
		c2.2-0.1,4.5-0.4,6.7-0.8c1.9-0.3,4-0.5,5.5-1.8c0.4-0.3,0-0.9-0.4-1c-1.9-0.2-3.8,0.5-5.7,0.8c-2.3,0.4-4.7,0.7-7.1,0.8
		c-4.4,0.2-8.8-0.1-13.1-0.8c-4.1-0.7-8.1-1.7-12.1-3c-2-0.7-4.1-1.4-6.1-2.2s-4-1.8-6-2.1C55.5,100.3,55,100.9,55.4,101.4
		L55.4,101.4z"/>
	<path class="st2" d="M102.8,109.1c10.3,1.9,22.2-4,28.4-12.1c0.5-0.6-0.5-1.4-1-0.8c-3.3,3.9-7.3,7-11.9,9.1
		c-4.9,2.2-10,2.9-15.3,3.2C102.6,108.6,102.5,109.1,102.8,109.1L102.8,109.1z"/>
	<path class="st2" d="M130.4,96.4c0-0.6-0.3-1.2-0.7-1.7c-0.6-0.8-1.9,0.4-1.1,1.2c0.4,0.4,1,0.7,1.6,0.8
		C130.3,96.7,130.4,96.6,130.4,96.4z"/>
	<path class="st2" d="M128.4,94.9c-3.1,3-6,5.6-9.9,7.5c-4.3,1.9-8.8,3.5-13.3,4.6c-0.3,0.1-0.4,0.4-0.4,0.6
		c0.1,0.3,0.4,0.4,0.6,0.4c4.7-1.3,9.5-2.6,13.9-4.8c3.5-1.7,7.6-4.4,9.5-7.9c0.1-0.1,0.1-0.3-0.1-0.4S128.5,94.9,128.4,94.9
		L128.4,94.9z"/>
	<path class="st2" d="M105.8,108.4c4,1.1,9.3-1.2,12.9-3c2.2-1.1,4.4-2.4,6.3-4c1.6-1.3,3.7-2.8,4.6-4.8c0.2-0.3,0-0.7-0.3-0.8
		c-0.2-0.1-0.4-0.1-0.6,0c-1.8,1-3.2,2.8-4.8,4.1c-1.8,1.4-3.8,2.6-5.9,3.7c-2,1-4.1,1.9-6.3,2.5c-2,0.6-4.2,0.8-6.1,1.7
		c-0.1,0.1-0.2,0.3-0.1,0.4C105.7,108.2,105.8,108.3,105.8,108.4L105.8,108.4z"/>
	<path class="st2" d="M54.1,101.8c3.1,2.6,8.1,3.9,12,5.1c4.6,1.4,9.4,2.5,14.2,3.1c9.2,1.3,18.5,1.1,27.7-0.5
		c0.9-0.2,0.5-1.6-0.4-1.4c-9.2,1.5-18.5,1.5-27.7,0.3c-4.4-0.6-8.7-1.6-12.9-2.9c-2-0.6-3.9-1.2-5.9-1.9c-2.2-0.8-4.3-2-6.6-2.4
		C54.2,101.3,53.9,101.6,54.1,101.8L54.1,101.8z"/>
	<path class="st2" d="M64.2,103.8c2.6,1.8,6.3,2.4,9.3,3.2c3.2,0.8,6.5,1.4,9.8,1.8c7,1,14.1,1.1,21.1,0.2c1.1-0.2,1.2-1.9,0-1.8
		c-6.7,0.6-13.5,0.5-20.2-0.2c-3.6-0.4-7.1-1.1-10.6-1.9c-3-0.7-6-2.1-9.1-2.2C63.9,102.8,63.8,103.5,64.2,103.8L64.2,103.8z"/>
	<path class="st3" d="M77.9,10c2.8-0.4,5.4-1.5,8.1-2c3.2-0.6,6.4-0.9,9.6-1c3.1-0.1,6.2,0.1,9.3,0.5c3.2,0.5,6.1,1.6,9.2,2.4
		c0.1,0.1,0.3,0,0.3-0.1c0.1-0.1,0-0.3-0.1-0.3c-2.7-1.6-6-2.3-9.1-3c-3-0.7-6.1-1.1-9.2-1.3c-3.1-0.1-6.2,0.2-9.3,0.7
		c-3,0.5-6.6,1.1-9.2,2.8C77,9,77.2,10.1,77.9,10L77.9,10z"/>
	<path class="st3" d="M71.8,107.1c3.4,1.3,7.2,1.7,10.8,2c7.6,0.8,15.3,0.4,22.8-0.9c3.4-0.6,7.5-1.2,10.6-2.8
		c0.2-0.1,0.1-0.5-0.1-0.4c-3.3,0.4-6.5,1.7-9.8,2.4c-4,0.8-8,1.3-12.1,1.4c-3.6,0.2-7.3,0.1-10.9-0.3c-3.8-0.3-7.5-1.3-11.2-1.6
		C71.7,106.8,71.7,107.1,71.8,107.1L71.8,107.1z"/>
	<path class="st3" d="M119.5,103.7c3.7-0.9,6.8-3.2,9-6.3c0.1-0.1-0.1-0.2-0.2-0.1c-1.4,1.3-2.8,2.5-4.4,3.7c-1.4,1-3,1.6-4.5,2.5
		C119.4,103.5,119.4,103.6,119.5,103.7C119.5,103.7,119.5,103.7,119.5,103.7L119.5,103.7z"/>
	<path class="st3" d="M115.4,73.1c-0.1,3.1,1.3,6.4,2.3,9.3c1,2.7,2,5.7,3.8,7.9c0.2,0.2,0.5,0,0.4-0.2c-1-3-2.7-5.8-3.8-8.8
		c-1-2.7-1.4-5.7-2.6-8.3C115.6,73,115.4,73,115.4,73.1L115.4,73.1z"/>
	<path class="st3" d="M123.6,92.5c0.2,0,0.4-0.2,0.4-0.4s-0.2-0.4-0.4-0.4s-0.4,0.2-0.4,0.4S123.4,92.5,123.6,92.5L123.6,92.5z"/>
	<path class="st3" d="M125,94.4c0.3,0,0.4-0.3,0.4-0.5c0-0.2-0.2-0.4-0.4-0.4c-0.3,0-0.4,0.3-0.4,0.5
		C124.6,94.2,124.8,94.4,125,94.4z"/>
	<path class="st3" d="M126.3,96c0.2,0,0.4-0.3,0.4-0.5c0-0.2-0.2-0.3-0.4-0.4c-0.2,0-0.4,0.3-0.4,0.5C125.9,95.8,126.1,96,126.3,96z
		"/>
	<path class="st3" d="M76,38.9c0,2,0.2,3.9,0.3,5.9c0,1.7,0.1,3.4,0.3,5.1c0,0.1,0.1,0.2,0.2,0.1c0.1,0,0.1-0.1,0.1-0.1
		c0.4-3.7,0.2-7.4-0.7-11c0-0.1-0.1-0.2-0.2-0.1C76.1,38.8,76,38.8,76,38.9L76,38.9z"/>
	<path class="st3" d="M114.1,29.7c-2,8.9-3.5,18.5-3.1,27.6c0,0.1,0.1,0.2,0.3,0.2c0.1,0,0.1-0.1,0.2-0.2c1-9.2,1.7-18.4,3.2-27.5
		C114.5,29.6,114.1,29.4,114.1,29.7z"/>
	<path class="st3" d="M3.8,25c5.8,0.6,12.1-0.4,17.9-1.3s12.1-1.8,17.4-4.2c0.3-0.1,0.1-0.6-0.2-0.6c-5.7,1-11.2,2.9-17,3.8
		c-6.1,1-12.1,1-18.1,1.7c-0.1,0-0.2,0.2-0.2,0.3C3.6,24.9,3.7,25,3.8,25L3.8,25z"/>
	<path class="st3" d="M46.5,19.7c3.7,1,7.5,1.6,11.3,1.8c4,0.4,8.3,0.9,12.3,0.5c0.3,0,0.5-0.6,0.1-0.6c-3.8-0.5-7.6-0.5-11.5-0.8
		c-4.1-0.4-8.1-1.1-12.2-1.2c-0.1,0-0.2,0.1-0.2,0.2C46.4,19.6,46.4,19.7,46.5,19.7z"/>
	<path class="st3" d="M122.5,21.5c2.5-0.5,4.6,1.5,5.2,3.8c0.5,1.9,0,3.8,0.3,5.7c0,0.3,0.5,0.2,0.6,0c1.3-3.8-0.7-11.9-6.2-10
		c-0.1,0.1-0.2,0.2-0.1,0.4C122.2,21.5,122.3,21.5,122.5,21.5L122.5,21.5z"/>
	<path class="st3" d="M9.9,33.5c6.2,0.4,12.8-0.5,19-0.9c6-0.4,12.4-0.2,18.3-1.4c0.8-0.2,0.6-1.4-0.2-1.4c-6.2-0.5-12.8,0.5-19,0.9
		C22,31,15.6,30.9,9.7,32C8.8,32.1,9.1,33.4,9.9,33.5z"/>
	<path class="st4" d="M118.3,19.2c-1,4.1-1.7,8.4-2.1,12.6c-0.3,2.2-0.5,4.5-0.8,6.8c-0.2,1.9-0.7,4-0.2,5.9c0,0.2,0.2,0.3,0.4,0.2
		c0.1,0,0.1-0.1,0.2-0.1c0.7-1.6,0.7-3.3,0.8-5c0.2-2.3,0.5-4.5,0.7-6.8c0.5-4.5,1.3-9,1.5-13.5c0-0.2-0.2-0.3-0.3-0.3
		C118.4,19.1,118.3,19.1,118.3,19.2L118.3,19.2z"/>
	<path class="st4" d="M115.9,43.8c0.8,2.6,5.4,2.6,7.5,2.2c3-0.6,5.4-2.7,6.5-5.5c0.1-0.2-0.2-0.3-0.3-0.2c-1.9,2.2-3.9,3.9-6.8,4.3
		c-1.5,0.2-3,0.1-4.4-0.4c-0.7-0.4-1.5-0.5-2.3-0.5C115.9,43.7,115.9,43.7,115.9,43.8z"/>
	<path class="st4" d="M73.5,34c-0.3,3.4,1,8.3-3.7,9.4c-3.3,0.8-6.8-0.1-10.1-0.3c-0.4,0-0.4,0.5-0.1,0.6c3.3,1.3,9.2,2.2,12.4,0
		s3.4-6.8,2.1-9.9c-0.1-0.2-0.2-0.2-0.4-0.2C73.6,33.7,73.5,33.8,73.5,34L73.5,34z"/>
	<path class="st4" d="M70.7,44.7c1.2,0,2.3,0,3.5-0.1c0.2,0,0.4-0.2,0.3-0.5c0-0.2-0.2-0.3-0.3-0.3c-1.2-0.1-2.4,0.2-3.5,0.7
		c-0.1,0-0.1,0.1-0.1,0.1C70.6,44.7,70.6,44.7,70.7,44.7z"/>
	<path class="st4" d="M74.8,44c0.2-0.4,0.3-0.8,0.4-1.2c0.1-0.4,0.2-0.9,0.2-1.3c0-0.2-0.1-0.4-0.3-0.5c-0.2-0.1-0.4-0.1-0.6,0
		c-0.2,0.1-0.3,0.3-0.3,0.5c0,0.4,0,0.9,0,1.3c0,0.4,0,0.8,0.1,1.2c0,0.1,0.2,0.2,0.3,0.2C74.7,44.1,74.8,44.1,74.8,44L74.8,44z"/>
	<path class="st4" d="M74.2,41.2c-0.3,0.7-0.7,1.4-1.2,1.9c-0.4,0.6,0.6,1.2,1,0.6c0.4-0.7,0.7-1.5,0.9-2.3c0-0.2-0.1-0.4-0.2-0.4
		C74.5,41,74.3,41.1,74.2,41.2L74.2,41.2L74.2,41.2z"/>
	<path class="st4" d="M74.1,42.5c-0.9,0.1-1.7,0.4-2.4,0.9c-0.4,0.4,0,1.1,0.5,0.9c0.4-0.2,0.8-0.4,1.2-0.7c0.3-0.2,0.7-0.5,0.9-0.8
		c0.1-0.1,0.1-0.2,0-0.2C74.3,42.5,74.2,42.5,74.1,42.5z"/>
	<path class="st4" d="M59.8,122.5c5.6-2.4,10.7-5.5,16.7-7.2c17.8-5,36.9-0.7,50.9,11.4c0.9,0.7,2.1-0.5,1.2-1.2
		c-9.5-8.1-21.3-12.9-33.7-13.8c-6.4-0.4-12.7,0.3-18.8,2c-5.8,1.6-12.3,4-16.6,8.3C59.1,122.3,59.5,122.6,59.8,122.5L59.8,122.5z"
		/>
	<path class="st4" d="M60.9,123.6c4-1.4,8.1-2.7,12.1-4.1c1.9-0.7,3.9-1.3,5.9-1.9s3.9-0.9,5.5-2c0.3-0.2,0.4-0.5,0.2-0.8
		c-0.1-0.2-0.3-0.3-0.5-0.3c-3.9-0.2-8.4,2-12,3.3c-3.9,1.4-7.8,3-11.5,4.8C60,122.9,60.4,123.8,60.9,123.6L60.9,123.6z"/>
	<path class="st4" d="M60.9,124.4c11.7-5.1,22.8-9.6,35.8-8.7c6,0.5,11.9,1.9,17.4,4.3c5.5,2.4,9.9,6,15,9.1
		c1.6,0.9,2.9-1.1,1.9-2.4c-7.7-9.3-22.6-13.8-34.2-14.6c-12.7-0.9-27.4,2.2-36.6,11.4C59.6,124,60.3,124.7,60.9,124.4L60.9,124.4z"
		/>
	<path class="st4" d="M61.6,127.1c4.9-0.2,9.9-3.5,14.7-4.8c18.1-5,37.6-2.1,53.4,8.1c2.1,1.3,4-2,1.9-3.3
		c-10.9-7.1-23.7-10.9-36.7-11c-6.4-0.1-12.7,0.8-18.9,2.4c-4.8,1.3-12,3.2-15,7.6c-0.2,0.3-0.1,0.7,0.2,0.9
		C61.3,127.1,61.4,127.2,61.6,127.1L61.6,127.1z"/>
	<path class="st4" d="M69.6,123.8c5.6-2.3,11.4-4.1,17.4-5.4c6.3-1.3,11.4,0.1,17.5,0.8c1.4,0.1,1.5-1.7,0.6-2.3
		c-4.4-3.3-11.4-2.9-16.6-2.1c-7.3,1.2-13,4.5-19.4,7.9C68.6,123,69,124.1,69.6,123.8L69.6,123.8z"/>
	<path class="st4" d="M61.6,128.5c12-3,23.3-6.4,35.9-5.7c6.3,0.4,12.5,1.5,18.5,3.5c5.7,1.8,10.7,4.7,16.2,7
		c1.3,0.6,2.5-1.5,1.4-2.4c-9.4-7.7-23.4-10.8-35.3-11.6c-12.3-0.8-26.9,0.7-37.2,8c-0.3,0.2-0.4,0.6-0.2,0.9
		C61,128.4,61.3,128.5,61.6,128.5L61.6,128.5z"/>
	<path class="st5" d="M131.9,108c2.2-2.1,4.4-4.2,6.5-6.4c0.1-0.2,0.1-0.4-0.1-0.5c-0.1-0.1-0.3-0.1-0.4,0c-2.3,2-4.5,4.1-6.7,6.2
		C130.6,107.7,131.4,108.5,131.9,108L131.9,108z"/>
	<path class="st5" d="M140.6,107.1C140.6,107.1,140.6,107.1,140.6,107.1C140.6,107.1,140.6,107,140.6,107.1
		C140.6,107,140.5,107.1,140.6,107.1C140.5,107.1,140.6,107.1,140.6,107.1C140.6,107.1,140.6,107.1,140.6,107.1z"/>
	<path class="st5" d="M133.8,90.4l2.4-2.8c0.4-0.4-0.2-1.1-0.7-0.7l-2.6,2.7C132.5,90.2,133.3,90.9,133.8,90.4L133.8,90.4z"/>
	<path class="st5" d="M145,90.8l1.9-2.2c0.2-0.3-0.2-0.7-0.4-0.4l-2,2.2C144.2,90.7,144.7,91.2,145,90.8L145,90.8z"/>
	<path class="st5" d="M147.2,92C147.2,92,147.2,92,147.2,92C147.2,91.9,147.2,91.9,147.2,92C147.2,91.9,147.2,91.9,147.2,92
		C147.2,91.9,147.1,91.9,147.2,92C147.1,92,147.2,92,147.2,92z"/>
	<path class="st5" d="M143.4,104c1.7-1,3.3-1.9,5-3c1.4-0.9,3.3-1.7,4-3.2c0.3-0.6,0.1-1.3-0.5-1.6c-0.2-0.1-0.3-0.1-0.5-0.1
		c-1.8,0.1-3.3,1.6-4.7,2.7s-3.1,2.3-4.6,3.5C141.1,103.1,142.4,104.6,143.4,104L143.4,104z"/>
	<path class="st5" d="M129.8,115.4c3.9-1.4,8.6-2.4,12.1-4.7c0.4-0.3,0.5-0.8,0.3-1.2c-0.2-0.3-0.6-0.5-1-0.4
		c-4.1,0.9-8.1,3.6-11.8,5.4c-0.2,0.1-0.3,0.5-0.2,0.7C129.3,115.4,129.6,115.5,129.8,115.4z"/>
	<path class="st5" d="M63.4,111.3c-5.3-1.9-12.6-1.2-18,0.2c-0.5,0.1-0.7,0.6-0.6,1.1c0.1,0.3,0.4,0.6,0.8,0.6
		c3.2,0.2,6.3-0.1,9.5-0.1c2.8,0.1,5.6,0,8.3-0.5c0.4-0.1,0.6-0.5,0.5-0.8C63.9,111.6,63.7,111.4,63.4,111.3L63.4,111.3z"/>
	<path class="st5" d="M54.2,117.9c-2.9,0.1-6.5-0.2-9.2,1c-0.3,0.2-0.4,0.6-0.2,1c0.1,0.2,0.2,0.3,0.4,0.3c2.8,0.7,6.4-0.4,9.2-0.7
		C55.3,119.3,55.1,117.8,54.2,117.9z"/>
	<path class="st5" d="M45.4,101.6C45.4,101.6,45.4,101.6,45.4,101.6C45.4,101.6,45.4,101.5,45.4,101.6
		C45.4,101.5,45.4,101.5,45.4,101.6C45.3,101.5,45.3,101.6,45.4,101.6C45.3,101.6,45.3,101.6,45.4,101.6z"/>
	<path class="st5" d="M46,99.3l-4.2-1.4c-1.3-0.4-2.3,1.7-1,2.3l4,1.9c0.7,0.4,1.6,0.1,2-0.7c0.4-0.7,0.1-1.6-0.7-2
		C46.1,99.4,46.1,99.3,46,99.3L46,99.3z"/>
	<path class="st5" d="M48.2,91.1c-1.9-1.2-3.8-2.4-5.7-3.5c-0.9-0.6-2,0.8-1.2,1.5c1.7,1.4,3.5,2.8,5.2,4.1
		C48.2,94.4,49.9,92.1,48.2,91.1z"/>
	<path class="st5" d="M36.2,109.2c-4.9-0.7-10.6-2.3-15.5-1.4c-0.8,0.1-0.6,1.1,0,1.3c4.6,1.8,10.4,1.3,15.3,1.5
		C36.8,110.6,37,109.3,36.2,109.2z"/>
	<path class="st6" d="M71,10.2c1.9,8.4,3,16.9,3.2,25.5c0.5,8,0.5,16,0.1,24c-0.4,8-2.4,15.8-5.7,23.1c-1.5,3.2-3.3,6.2-5.4,9
		c-2.3,3-4.8,5.8-7.4,8.5c-0.1,0.1-0.1,0.2,0,0.2c0.1,0.1,0.2,0.1,0.2,0c5.6-4.4,10-11.1,13-17.5c3.1-6.8,5-14.1,5.6-21.5
		c0.8-8.6,0.4-17.2,0.1-25.8s-1-17.3-3.3-25.6c0-0.1-0.2-0.1-0.3-0.1C71,10,71,10.1,71,10.2L71,10.2z"/>
	<path class="st6" d="M120,9c-2.4,8-3.6,16.6-4.6,24.8c-1.1,8.2-1.2,16.5-0.4,24.7c1.4,13.7,6.1,27.1,15.3,37.5
		c0.2,0.2,0.6-0.1,0.4-0.3c-9.5-10.8-14.2-25-15.4-39.2c-0.6-7.9-0.3-15.8,0.7-23.7C117,24.8,119,17,120,9C120.1,9,120,9,120,9
		C120,9,120,9,120,9z"/>
	<path class="st6" d="M54.2,101.5c2.1,2.5,5.4,3.6,8.3,4.8c3.8,1.5,7.7,2.7,11.7,3.6c7.5,1.7,15.3,2.3,23,1.8
		c7.4-0.4,14.7-1.9,21.6-4.6c5.3-2.2,10.3-5.7,12.5-11.2c0.1-0.3-0.3-0.4-0.4-0.1c-2.6,6.3-8.7,9.8-14.9,11.9
		c-6.6,2.2-13.5,3.4-20.5,3.6c-7.1,0.3-14.2-0.3-21.2-1.8c-3.4-0.8-6.7-1.7-10-2.9c-3.5-1.3-7.2-2.6-9.9-5.1
		C54.2,101.2,54.1,101.3,54.2,101.5L54.2,101.5z"/>
	<path class="st6" d="M57.6,100.5c10.2,4.7,21.8,6.7,33,6.9c10.6,0.2,23-0.7,32-6.9c0.1-0.1,0-0.2-0.1-0.2
		c-9.2,6.1-21.5,7.1-32.3,6.8c-11.3-0.2-21.9-2.9-32.5-6.8C57.6,100.4,57.5,100.5,57.6,100.5L57.6,100.5z"/>
	<path class="st6" d="M69.7,85.7c0.5-0.8,1-1.6,1.4-2.4l0,0C70.7,84.1,70.2,84.9,69.7,85.7C69.7,85.7,69.7,85.8,69.7,85.7L69.7,85.7
		z"/>
	<path class="st6" d="M72.2,85c0.2-0.9,0.5-1.8,0.7-2.7c0,0,0,0-0.1,0C72.5,83.2,72.3,84.1,72.2,85C72.1,85,72.1,85,72.2,85
		C72.1,85,72.2,85,72.2,85L72.2,85z"/>
	<path class="st6" d="M73.2,85.8c0.5-1,1-2.1,1.3-3.1c0-0.1-0.1-0.1-0.1,0c-0.5,1-0.9,2.1-1.4,3.1C73,85.8,73.1,85.9,73.2,85.8
		L73.2,85.8z"/>
	<path class="st6" d="M75.5,85.7l0.3-0.7c0,0,0-0.1,0,0L75.5,85.7C75.5,85.7,75.5,85.8,75.5,85.7L75.5,85.7z"/>
	<path class="st6" d="M78.4,86.8c0.3-1.1,0.8-2.3,1-3.4c0-0.1-0.1-0.1-0.1,0c-0.5,1.1-0.7,2.3-1.1,3.4
		C78.2,86.9,78.3,86.9,78.4,86.8L78.4,86.8z"/>
	<path class="st6" d="M80.8,85.7c0.2-0.7,0.5-1.4,0.7-2.1c0-0.1-0.1-0.2-0.2-0.1c-0.3,0.7-0.5,1.4-0.7,2.1
		C80.5,85.8,80.7,85.9,80.8,85.7z"/>
	<path class="st6" d="M82.5,86.1c0.5-0.6,0.7-1.3,0.7-2.1c0-0.1-0.1-0.1-0.1,0c-0.1,0.7-0.4,1.4-0.7,2
		C82.2,86.1,82.4,86.2,82.5,86.1L82.5,86.1z"/>
	<path class="st6" d="M85.8,87.1L85.8,87.1L85.8,87.1z"/>
	<path class="st6" d="M88,86.4c0-0.5,0-0.9,0-1.4c0,0,0-0.1-0.1-0.1s-0.1,0-0.1,0.1c0,0.5,0,0.9,0,1.4C87.9,86.4,87.9,86.5,88,86.4
		C88,86.4,88,86.4,88,86.4L88,86.4z"/>
	<path class="st6" d="M90,87.1c0.1-0.5,0.1-0.9,0-1.4c0,0,0,0-0.1,0c0,0,0,0,0,0c-0.1,0.5-0.1,0.9,0,1.4
		C89.9,87.1,89.9,87.2,90,87.1C90,87.2,90.1,87.1,90,87.1L90,87.1z"/>
	<path class="st6" d="M93.2,86.3c-0.2-0.3-0.5-0.7-0.7-1c-0.1-0.1-0.2,0-0.2,0.1c0.2,0.3,0.4,0.7,0.7,1C93,86.6,93.3,86.4,93.2,86.3
		L93.2,86.3z"/>
	<path class="st6" d="M98.6,85c-0.2-0.4-0.3-0.9-0.3-1.4c0-0.3,0-0.5,0.4-0.5c0.3,0,0.6,0.1,0.8,0.3c0,0,0.1,0,0.1-0.1
		c-0.3-0.4-0.9-0.5-1.4-0.4c0,0-0.1,0-0.1,0.1c-0.2,0.7,0,1.5,0.3,2.1C98.5,85.2,98.7,85.1,98.6,85z"/>
	<path class="st6" d="M101,84.3v-0.7c0-0.1-0.1-0.1-0.1,0v0.7C100.9,84.4,100.9,84.4,101,84.3C101,84.4,101,84.4,101,84.3L101,84.3z
		"/>
	<path class="st6" d="M102.8,83.8c-0.3-0.3,0.1-0.8,0.5-0.8c0,0,0.1,0,0.1,0c0,0,0-0.1,0-0.1c-0.6-0.3-1.2,0.6-0.7,1.1
		C102.8,84.1,102.9,83.9,102.8,83.8z"/>
	<path class="st6" d="M105.5,84c-0.1-0.7,0-1.4,0.3-2c0-0.1-0.1-0.2-0.2-0.1c-0.4,0.6-0.5,1.4-0.2,2.2
		C105.4,84.2,105.5,84.1,105.5,84L105.5,84z"/>
	<path class="st6" d="M108.6,81.9c-0.1-0.5,0-0.9,0.2-1.3c0,0,0-0.1-0.1-0.1c0,0,0,0-0.1,0c-0.4,0.4-0.5,0.9-0.4,1.5
		C108.4,82.1,108.7,82.1,108.6,81.9z"/>
	<path class="st6" d="M111,80.5c-0.2-0.4-0.3-0.9-0.1-1.3c0-0.1-0.1-0.1-0.1-0.1c-0.3,0.4-0.3,1,0,1.5C110.8,80.7,111,80.6,111,80.5
		L111,80.5z"/>
	<path class="st6" d="M112.4,78.8c0-0.2,0-0.5,0-0.7c0,0,0-0.1-0.1-0.1c0,0-0.1,0-0.1,0.1c0,0.2,0,0.5,0,0.7S112.4,79,112.4,78.8
		L112.4,78.8z"/>
	<path class="st6" d="M114.8,78.5c0-0.6,0-1.1,0-1.7c0,0,0,0-0.1,0c0,0,0,0,0,0c0,0.6,0,1.1,0,1.7C114.6,78.5,114.7,78.6,114.8,78.5
		C114.8,78.6,114.8,78.5,114.8,78.5L114.8,78.5z"/>
	<path class="st6" d="M117.1,78.2L117.1,78.2L117.1,78.2z"/>
	<path class="st6" d="M118.5,78.5c0-0.4,0-0.9,0-1.4c0,0,0-0.1,0-0.1c0,0-0.1,0-0.1,0c0,0,0,0,0,0c0,0.5,0,0.9,0,1.4
		C118.4,78.5,118.4,78.6,118.5,78.5C118.5,78.6,118.5,78.6,118.5,78.5C118.5,78.5,118.5,78.5,118.5,78.5L118.5,78.5z"/>
	<path class="st6" d="M75.5,10.9c5.1-2.7,10.8-3.3,16.5-3.8c6-0.5,12,0.1,17.8,1.7c0,0,0.1,0,0.1,0c0,0,0-0.1,0-0.1c0,0,0,0-0.1,0
		C103.8,6.9,97.5,6.4,91.2,7C85.9,7.5,80.1,7.8,75.5,10.9C75.4,10.8,75.4,10.9,75.5,10.9L75.5,10.9z"/>
	<path class="st6" d="M71,10.2c7.6-3,15.6-4.7,23.7-5.2c7.8-0.3,16.5,0.2,23.4,4.2c0.1,0.1,0.3,0,0.3-0.1c0.1-0.1,0-0.3-0.1-0.3l0,0
		c-6.8-4-15.5-4.5-23.2-4.3c-8.4,0.2-16.6,2-24.2,5.3C70.7,9.9,70.9,10.2,71,10.2L71,10.2z"/>
	<path class="st6" d="M117.4,18.9c2.2,0,4.5-0.2,6.7-0.3c1.9-0.1,3.3,0,4.4,1.9c0.6,1.1,1,2.3,1.2,3.6c1.1,4.5,0.7,9.2-1,13.5
		c0,0.1,0.1,0.2,0.2,0.1c2-4.8,2.2-10.3,0.6-15.3c-0.5-1.5-1-3.7-2.7-4.1c-1.2-0.1-2.4,0-3.6,0.2C121.3,18.5,119.3,18.6,117.4,18.9
		L117.4,18.9z"/>
	<path class="st6" d="M73.1,18.8c-7.3,0.2-14.6-0.2-21.9-1.4c-6.3-1-12,0-18.2,1c-10.8,1.8-21.8,2.8-32.8,3.2c-0.3,0-0.3,0.5,0,0.5
		c10.5-0.3,20.9-1.3,31.2-3c3.5-0.6,7-1.3,10.5-1.7c3.5-0.3,7-0.1,10.4,0.5c6.8,1.1,13.8,1.5,20.7,1C73.2,19,73.2,18.8,73.1,18.8
		L73.1,18.8z"/>
	<path class="st6" d="M74,44.2c-3.7,0.2-7.4,0.2-11.1,0c-3.8-0.3-7.4-1.6-11.1-2.3c-6.5-1.2-13.1,0.9-19.4,2.2
		c-4.9,1-9.7,2.2-14.7,2.9c-5.8,0.7-11.6,1.2-17.4,1.2c-0.3,0-0.3,0.5,0,0.5c10.3-0.3,20.6-1.5,30.8-3.8c7.4-1.6,14.9-4,22.4-2.2
		c3,0.8,6,1.5,9,1.9c3.9,0.3,7.7,0.3,11.6-0.1C74.2,44.5,74.2,44.2,74,44.2z"/>
	<path class="st6" d="M11.4,22.2c0.6-0.3,2.3,0.9,2.7,1.4c0.5,0.8,0.8,1.6,1.1,2.4c0.6,1.4,1.1,2.7,1.6,4.1c0.8,2.5,1.4,5.2,1.7,7.8
		c0,0.1,0.1,0,0.1,0C18.3,35.8,15.5,20,11.4,22.2C11.4,22.2,11.4,22.3,11.4,22.2L11.4,22.2z"/>
	<path class="st6" d="M15.7,22.9c4.1,4.5,6.4,10.4,6.3,16.5c0,0,0,0.1,0.1,0.1c0,0,0.1,0,0.1-0.1C22.4,33.2,20.1,27.2,15.7,22.9
		C15.8,22.8,15.8,22.8,15.7,22.9C15.7,22.8,15.7,22.8,15.7,22.9C15.7,22.9,15.7,22.9,15.7,22.9z"/>
	<path class="st6" d="M17.7,22.6c6.3,3.4,6.5,10.5,6.4,16.8c0,0,0,0.1,0.1,0.1c0,0,0.1,0,0.1-0.1c0.4-6.2-0.2-13.8-6.5-16.9
		C17.7,22.5,17.6,22.6,17.7,22.6z"/>
	<path class="st6" d="M20.5,21.2c6.2,3.9,6.8,10.8,7.3,17.4c0,0.1,0.2,0.1,0.2,0C27.8,32.1,26.8,24.8,20.5,21.2L20.5,21.2z"/>
	<path class="st6" d="M25,21.5c5.5,3.9,6.4,10.4,7.5,16.5c0,0.1,0.2,0.1,0.2,0C32,31.9,30.5,25.1,25,21.5C25,21.4,24.9,21.5,25,21.5
		L25,21.5z"/>
	<path class="st6" d="M29.5,20.3c1.1,2.8,3.5,4.9,4.6,7.8c1.2,3.4,1.3,7,0.5,10.5c0,0,0,0.1,0.1,0.1c0,0,0.1,0,0.1,0
		c0.9-3,0.9-6.2,0.1-9.2c-0.4-1.5-1-2.9-1.8-4.3c-1-1.7-2.6-3.1-3.3-4.9C29.6,20.1,29.4,20.2,29.5,20.3L29.5,20.3z"/>
	<path class="st6" d="M33.8,19.6c3.8,5,5.5,11.2,4.8,17.4c0,0.1,0.2,0.2,0.2,0c0.9-6.3-0.9-12.6-4.9-17.5
		C33.9,19.4,33.7,19.5,33.8,19.6L33.8,19.6z"/>
	<path class="st6" d="M8.5,27.2c13.7-2.1,27.4-3.5,41.2-4c0.1,0,0.1-0.2,0-0.2C35.9,23.3,22.1,24.7,8.5,27.2
		C8.4,27.1,8.5,27.2,8.5,27.2L8.5,27.2z"/>
	<path class="st6" d="M13,29.3c12.2-1.3,24.5-1.5,36.8-1.7c0,0,0.1,0,0.1-0.1c0,0,0-0.1-0.1-0.1c-12.2-0.6-24.6,0.4-36.8,1.7
		C12.9,29.2,12.9,29.3,13,29.3z"/>
	<path class="st6" d="M9.2,33.3c12.4-1.6,24.8-2.6,37.1-4c0.1,0,0.1-0.2,0-0.1C33.9,29.7,21.5,31.4,9.2,33.3
		C9.1,33.2,9.1,33.3,9.2,33.3L9.2,33.3z"/>
	<path class="st6" d="M11.6,36.5c11.3-1.3,22.7-1.8,34-2.7c0.1,0,0.1-0.2,0-0.2C34.3,33.6,22.8,34.9,11.6,36.5
		C11.6,36.4,11.6,36.5,11.6,36.5z"/>
	<path class="st6" d="M11.6,24c9.7-1,19.4-2.2,29.2-2.5c0.1,0,0.1-0.1,0.1-0.2c0-0.1-0.1-0.1-0.1-0.1C31,21.3,21.3,22.2,11.6,24
		L11.6,24z"/>
	<path class="st6" d="M135.4,98.2c3.9-4.9,7.5-10.1,10.8-15.4c0.1-0.1-0.1-0.3-0.2-0.1c-3.4,5.3-7,10.4-10.7,15.4
		C135.1,98.1,135.3,98.2,135.4,98.2L135.4,98.2z"/>
	<path class="st6" d="M139.5,96.8c5.1-5.8,10.2-11.6,14.9-17.7c0.1-0.1,0-0.2-0.1-0.1c-5.2,5.7-10.1,11.7-14.9,17.7
		C139.4,96.8,139.4,96.9,139.5,96.8z"/>
	<path class="st6" d="M142.8,99c6.3-6.6,12.6-13.3,18.6-20.2c0.1-0.1-0.1-0.2-0.1-0.1C154.9,85.3,148.8,92.1,142.8,99
		C142.7,98.9,142.7,99,142.8,99z"/>
	<path class="st6" d="M44.7,82.6C44.4,82.2,44.3,82.2,44.7,82.6c0.2,0.4,0.6,0.9,0.9,1.4c0.8,1,1.5,2.1,2.3,3.2
		c1.4,2,2.7,4.1,4.1,6.1c0,0,0.1,0.1,0.1,0c0,0,0.1-0.1,0-0.1c-2.3-4-4.9-7.8-7.9-11.3c-0.1-0.1-0.2,0-0.2,0.1l0.5,0.8
		C44.6,82.7,44.6,82.7,44.7,82.6L44.7,82.6z"/>
	<path class="st6" d="M36.4,85c2.8,3.2,5.9,6.3,9.1,9.1c0.1,0,0.2,0,0.2-0.1c0,0,0-0.1,0-0.2C42.9,90.7,39.8,87.7,36.4,85
		C36.5,84.9,36.4,84.9,36.4,85C36.4,84.9,36.4,85,36.4,85z"/>
	<path class="st6" d="M32.5,91.7c4.3,2.4,9.9,4.8,12.5,9.2c0.1,0.1,0.3,0,0.2-0.1c-0.9-1.8-2.2-3.3-3.9-4.2
		c-2.8-1.9-5.7-3.5-8.7-4.9C32.4,91.6,32.4,91.6,32.5,91.7z"/>
	<path class="st6" d="M60.5,120.6c5.5-2,10.6-4.6,16.2-6.3c5.8-1.8,11.9-2.5,17.9-1.9c5.9,0.6,11.7,1.8,17.4,3.6
		c6.2,2,10.8,5.9,15.7,9.9c0.2,0.2,0.5-0.1,0.3-0.3c-4.2-3.7-8.6-7.2-13.8-9.3c-5.8-2.3-12.4-3.4-18.6-4.2
		c-12-1.6-24.7,2.7-35.2,8.3C60.4,120.5,60.4,120.5,60.5,120.6C60.4,120.6,60.5,120.6,60.5,120.6L60.5,120.6z"/>
	<path class="st7" d="M115.3,44.8c3.9,0.4,9.3,2.3,12.7-0.6c1.6-1.4,2-3.5,2.3-5.5c0.5-2.8,0.7-5.6,0.8-8.4c0-0.3-0.5-0.3-0.5,0
		c-0.1,2.5-0.3,4.9-0.7,7.3s-0.6,4.9-2.6,6.4c-3.6,2.7-8.2,0.1-12.1,0.4c-0.1,0-0.2,0.1-0.2,0.1C115.1,44.7,115.2,44.8,115.3,44.8
		C115.3,44.8,115.3,44.8,115.3,44.8z"/>
</g>
<g id="Layer_2">
	<path class="st3" d="M100.6,69.4c0,0,4.8,6.3,9.8,3.6c5-2.6,4.1-6.2,4.1-6.2l-0.2-3l-3.1-6.3l-6.8,7.3l-2.8,3.6L100.6,69.4z"/>
	<path class="st8" d="M102.6,67.1c0,0,1.3,5.2,4.9,3.4s1.3-5.8,1.3-5.8l-2.7-1.9L102.6,67.1z"/>
	<g>
		<path class="st6" d="M97.8,67c0.6,0.7,1.1,1.5,2,1.7c0.4,0.1,0.8,0.1,1.2-0.1c0.3-0.2,0.6-0.5,0.9-0.9c1-1.5,2.1-3,3.3-4.4
			c1.2-1.4,2.5-2.8,3.9-4c0.7-0.6,1.4-1.3,2.2-1.7c0.9-0.4,2.1-0.3,2.6,0.5c-0.7-0.7-1.7-0.6-2.5-0.2c-0.8,0.4-1.4,1.1-2,1.8
			c-1.3,1.3-2.5,2.7-3.7,4.1c-1.2,1.4-2.3,2.8-3.5,4.3c-0.3,0.4-0.6,0.8-1.1,1c-0.5,0.2-1.1,0.2-1.5,0C98.7,68.7,98.2,67.8,97.8,67z
			"/>
	</g>
	<g>
		<path class="st6" d="M111.9,58.7c1.3,1.9,2.5,4,3,6.4c0.2,1.2,0.2,2.4-0.1,3.6c-0.3,1.2-1,2.3-1.9,3.1c-1.8,1.7-4.4,2.4-6.8,1.8
			c-2.4-0.6-4.4-2.2-5.5-4.3c0.7,0.9,1.5,1.8,2.5,2.4c0.9,0.6,2,1.1,3.1,1.3c2.2,0.4,4.6-0.2,6.2-1.8c0.8-0.7,1.4-1.7,1.7-2.8
			c0.3-1.1,0.3-2.2,0.2-3.3C114,63,112.9,60.8,111.9,58.7z"/>
	</g>
	<g>
		<path class="st6" d="M102.4,67.6c0.6,1.2,1.6,2.4,2.8,2.8c1.2,0.4,2.6-0.1,3.4-1c0.8-1,1-2.4,0.5-3.6c-0.4-1.2-1.5-2.2-2.7-2.8
			c1.4,0.3,2.6,1.3,3.3,2.6c0.6,1.4,0.5,3.1-0.5,4.3c-1,1.2-2.7,1.7-4.2,1.1C103.6,70.2,102.8,68.9,102.4,67.6z"/>
	</g>
	<path class="st3" d="M89.1,69.4c0,0-4.8,6.3-9.8,3.6s-4.1-6.2-4.1-6.2l0.2-3l3.1-6.3l6.8,7.3l2.8,3.6L89.1,69.4z"/>
	<path class="st8" d="M87.1,67.1c0,0-1.3,5.2-4.9,3.4s-1.3-5.8-1.3-5.8l2.7-1.9L87.1,67.1z"/>
	<g>
		<path class="st6" d="M92,67c-0.4,0.8-0.9,1.7-1.9,2.1c-0.5,0.2-1,0.2-1.5,0c-0.5-0.2-0.8-0.6-1.1-1c-1.1-1.5-2.3-2.9-3.5-4.3
			c-1.2-1.4-2.4-2.7-3.7-4.1c-0.6-0.7-1.2-1.4-2-1.8c-0.7-0.4-1.8-0.5-2.5,0.2c0.5-0.8,1.7-0.9,2.6-0.5c0.9,0.4,1.6,1.1,2.2,1.7
			c1.4,1.2,2.6,2.6,3.9,4c1.2,1.4,2.3,2.9,3.3,4.4c0.3,0.4,0.5,0.7,0.9,0.9c0.3,0.2,0.8,0.2,1.2,0.1C90.8,68.5,91.4,67.7,92,67z"/>
	</g>
	<g>
		<path class="st6" d="M77.8,58.7c-1,2.1-2.1,4.2-2.4,6.5c-0.1,1.1-0.1,2.3,0.2,3.3c0.3,1.1,0.9,2,1.7,2.8c1.6,1.5,4,2.2,6.2,1.8
			c1.1-0.2,2.2-0.7,3.1-1.3c1-0.6,1.8-1.5,2.5-2.4c-1.1,2.1-3.1,3.7-5.5,4.3c-2.4,0.6-5-0.1-6.8-1.8c-0.9-0.8-1.6-1.9-1.9-3.1
			c-0.3-1.2-0.3-2.4-0.1-3.6C75.3,62.7,76.5,60.7,77.8,58.7z"/>
	</g>
	<g>
		<path class="st6" d="M87.3,67.6c-0.3,1.3-1.2,2.7-2.6,3.3c-1.4,0.6-3.2,0.1-4.2-1.1c-1-1.2-1.1-2.9-0.5-4.3
			c0.6-1.4,1.9-2.3,3.3-2.6c-1.3,0.6-2.3,1.6-2.7,2.8c-0.4,1.2-0.3,2.6,0.5,3.6c0.8,1,2.2,1.5,3.4,1C85.7,69.9,86.7,68.8,87.3,67.6z
			"/>
	</g>
	<path class="st9" d="M77,97.8c0,0-0.2-3.6,10.1-7.6c10.3-4,18.4,2.4,20.9,4.6c2.6,2.3,4.9,6.7-0.4,6.4s-7.3-2.4-10.9-3
		c-3.6-0.6-14,2-14,2S76.9,101.7,77,97.8z"/>
	<path class="st10" d="M82.5,92.6c0.4,1,1,2,1.6,2.9c0.2,0.3,0.5,0.7,0.9,0.8s0.9,0.2,1.1-0.1c0.3-0.3,0.3-0.9,0.2-1.3
		c-0.2-1.2-0.5-2.5-0.9-3.7"/>
	<path class="st10" d="M104.2,92c-0.4,1.1-0.7,2.3-0.8,3.4c0,0.5,0,1.1,0.4,1.4c0.4,0.3,1,0.2,1.4-0.1c0.4-0.3,0.6-0.8,0.8-1.3
		c0.2-0.5,0.4-1,0.8-1.3"/>
	<path class="st10" d="M85.6,91.1c0.6,0.9,1.8,1.3,2.8,0.9c1-0.4,1.7-1.5,1.5-2.5"/>
	<path class="st10" d="M90.6,89.5c0,1,1,1.9,2,1.8s1.8-1.2,1.5-2.2"/>
	<path class="st10" d="M94.3,89.4c0.4,0.9,1.3,1.6,2.3,1.7c1,0.1,2-0.4,2.6-1.2"/>
	<path class="st10" d="M99.2,89.9c0.2,1.1,1,2,2,2.3s2.3,0.7,2.9-0.2"/>
	<path class="st10" d="M88.2,99c-0.5-0.8-0.7-1.7-0.5-2.6c0.1-0.5,0.4-1,0.9-1c0.4,0,0.7,0.3,1,0.6c0.6,0.8,1.1,1.7,1.4,2.7"/>
	<path class="st10" d="M98.9,98.5c0-0.5,0-1.1,0.2-1.6c0.2-0.5,0.6-0.9,1.1-1c0.8-0.2,1.5,0.5,1.7,1.3c0.2,0.7,0,1.5-0.2,2.3"/>
	<path class="st11" d="M80.1,94c-0.8,0.6-1.7,1-2.3,1.8c-0.6,0.8-1,1.8-0.7,2.7c0.3,0.9,1.2,1.6,2.1,1.8s1.9,0.2,2.9,0
		c2.9-0.4,5.8-1.2,8.7-1.7s6-0.7,8.8,0.2c2.9,0.9,5.7,2.9,8.7,2.4c0.8-0.1,1.7-0.5,2.1-1.3c0.4-0.8,0-1.8-0.5-2.6
		c-2-3.3-5.2-5.9-8.8-7.2c-3.6-1.4-7.6-1.6-11.4-0.7C89.7,89.4,84.2,90.8,80.1,94z"/>
</g>
</svg>
