<svg id="Letter" xmlns="http://www.w3.org/2000/svg" viewBox="0 0 198.43 134.88"><defs><style>.cls-1{fill:none;stroke:#fff;stroke-miterlimit:10;stroke-width:0.5px;}.cls-2{opacity:0.86;}.cls-3{fill:#fff;}</style></defs><path class="cls-1" d="M74.22,56a5.06,5.06,0,0,1,2,.45,4.26,4.26,0,0,1,2.91,4.11q0,3.36-6,14.09Q63.84,91.42,51.41,102a5.82,5.82,0,0,1-3.54,1.6,2.8,2.8,0,0,1-2-.86,3.13,3.13,0,0,1-1-2.28,3.54,3.54,0,0,1,.68-2q.41-.57,3-3.31,8.61-9,16.31-24.64,2.52-5.07,4.91-11.4A4.42,4.42,0,0,1,74.22,56Zm37.47-2.86a5.61,5.61,0,0,1,3.65,1.94A140.41,140.41,0,0,1,133,76.25q9.42,13.52,9.42,18.54a4.76,4.76,0,0,1-2.23,4.28,4.84,4.84,0,0,1-2.68.85,4.52,4.52,0,0,1-3.82-2,33.84,33.84,0,0,1-1.77-3.37A192.48,192.48,0,0,0,110.1,59.2a5.49,5.49,0,0,1-1.37-3.31C108.73,54.07,109.72,53.15,111.69,53.15Z"/><g class="cls-2"><path class="cls-3" d="M74.22,56a5.06,5.06,0,0,1,2,.45,4.26,4.26,0,0,1,2.91,4.11q0,3.36-6,14.09Q63.84,91.42,51.41,102a5.82,5.82,0,0,1-3.54,1.6,2.8,2.8,0,0,1-2-.86,3.13,3.13,0,0,1-1-2.28,3.54,3.54,0,0,1,.68-2q.41-.57,3-3.31,8.61-9,16.31-24.64,2.52-5.07,4.91-11.4A4.42,4.42,0,0,1,74.22,56Zm37.47-2.86a5.61,5.61,0,0,1,3.65,1.94A140.41,140.41,0,0,1,133,76.25q9.42,13.52,9.42,18.54a4.76,4.76,0,0,1-2.23,4.28,4.84,4.84,0,0,1-2.68.85,4.52,4.52,0,0,1-3.82-2,33.84,33.84,0,0,1-1.77-3.37A192.48,192.48,0,0,0,110.1,59.2a5.49,5.49,0,0,1-1.37-3.31C108.73,54.07,109.72,53.15,111.69,53.15Z"/></g></svg>