<svg id="illustration" xmlns="http://www.w3.org/2000/svg" viewBox="0 0 198.43 100.67"><defs><style>.cls-1{fill:#3a51a3;}.cls-2{fill:#fff;}.cls-3{fill:#fdef32;}.cls-4{fill:#212f64;}</style></defs><path class="cls-1" d="M46.09,26.23l-1.8,4.5L42.73,35l-.52,5.73.52,4,.71,3.74L40.57,50l-1.18,2.26L39.77,55l1.68,2.9-.88,6.79.6,5.69,1.19,5.1,1.79,5,1.05,4.78,1.23,6.38.18,3.87,4.18,1.72,5.92-.33L58,89.6l1.38-8.31-.22-6.41-1.28-6-.09-3.25,2.6-2.33-.18-3.77L62,57.26l4.12,3,3.94,4.23,1.22,5.71L73.93,78l.2,4.9v2.81l54.17.1,1-9.13,2.4-8.34L136,61.57l3.24-4,1.95,5.36,2.64,3.36-2,6.69-.29,8.32v7.15l2.93,7.21L151,95l5.35-.54-.46-7.41,1.76-7,2.68-8.9.55-13.31.58-2-1.72-6.77-.92-5.47-.16-5.42-1.5-7.93L155.34,26,118.4,23.11s-14.6,4.17-15.14,4.12l-7.82-.82-5.92-2.34-4.58-2.26-2.38-1.42Z"/><polygon class="cls-2" points="164.42 11.61 169.69 11.34 173.48 11.34 175.57 12.81 176.5 14.9 174.99 16.66 167.4 20.91 160.8 23.95 157.34 25.33 149.65 27.91 141.56 29.95 132.61 31.45 130.98 31.64 130.98 31.05 164.42 11.61"/><polygon class="cls-3" points="118.64 21.49 119.36 17.66 121.35 14.41 123.25 12.41 125.51 11.34 127.04 11.15 129.53 11.8 138.38 11.52 158.8 11.61 166.86 11.61 171.8 12.38 172.59 13.75 171.93 16.18 169.29 17.5 161.44 21.07 153.98 24.12 145.48 27.23 141.56 28.26 135.36 30.43 131.73 31.1 125.18 30.69 122.38 29.71 120.19 27.96 118.91 25.86 118.4 23.11 118.64 21.49"/><polygon class="cls-2" points="32.8 11.63 29.67 11.44 26.77 11.82 25.43 13.59 25.27 15.2 26.54 17.18 31.23 19.57 37.36 22.8 43.5 25.26 51.78 28.1 60.94 30.4 70.8 31.93 49.18 11.85 32.8 11.63"/><polygon class="cls-3" points="33.61 12.23 72.48 12.1 73.93 11.44 76.86 11.82 79.39 13.59 81.66 16.95 82.56 20.39 83.28 24.07 82.56 27.14 80.76 28.79 78.78 30.31 74.7 31.11 67.84 30.81 65.85 30.31 47.79 24.61 41.06 21.67 35.8 19.34 30.74 16.95 28.99 15.84 29.3 13.24 30.35 12.58 33.61 12.23"/><polygon class="cls-4" points="101.12 40.71 104.34 38.36 108.91 36.67 114.38 35.06 117.88 32.98 120.77 28.79 118.91 25.86 116.99 24.07 108.91 26.31 97.99 27.16 89.52 24.07 82.56 20.39 83.28 24.07 82.56 27.14 80.76 28.79 83.98 32.73 92.2 36.01 97.27 37.72 101.12 40.71"/><polygon class="cls-2" points="63.06 30.73 62.26 33.28 61.83 36.73 62.07 42.36 64.93 48.61 68.78 53.04 74.13 57.27 80.76 63.28 84.16 70.97 84.46 77.15 84.75 83.41 83.94 86.31 73.47 86.06 71.63 87.28 72.24 89.97 76.64 93.37 83.94 94.36 91.17 93.89 99.11 92.91 112.25 93.37 122.27 93.37 127.64 92.3 129.48 90.24 130.14 87.65 128.82 85.83 123.69 85.93 123.31 79.16 122.83 72.15 126.34 56.97 131.43 49.83 137.25 40.34 138.56 34.03 137.51 30.73 130.01 31 125.18 30.69 122.87 29.88 120.77 28.79 119.57 31.1 117.28 33.38 111.85 35.84 107.53 37.03 103.96 38.59 101.12 40.71 97.27 38.41 91.47 35.34 84.94 33.53 82.37 30.77 80.76 28.79 79.35 29.88 75.99 31.19 71.61 31.31 64.93 31.19 63.06 30.73"/><polygon class="cls-3" points="106.79 42.05 115.72 38.99 126.81 35.34 131.69 33.8 131.81 37.67 129.96 42.36 127.64 45.89 122.38 50.75 116.02 53.74 110.58 53.74 106.79 51.48 105.07 46.56 105.95 43.66 106.79 42.05"/><polygon class="cls-3" points="70.08 34.32 68.89 38.14 69.36 43.77 72.48 49.48 77.68 53.41 84.5 55.9 92.64 55.49 96.44 52.91 97.27 48.64 96.59 44.73 95.44 41.58 93.57 40.63 84.94 38.22 70.08 34.32"/><polygon class="cls-3" points="89.98 86.06 88.99 81.29 88.72 72.15 91.45 64.05 95.47 60.78 100.42 59.51 104.34 60.63 107.79 62.72 111.03 66.73 113.34 72.97 113.79 78.87 112.98 82.86 112.67 85.83 89.98 86.06"/><path class="cls-2" d="M107.62,45.82c3.16,0,6.57-1.71,9.54-2.7s6.57-1.82,9.3-3.53c.22-.13.15-.54-.14-.52-3.21.27-6.49,1.71-9.53,2.71s-6.78,1.65-9.31,3.54a.27.27,0,0,0,.14.5Z"/><path class="cls-2" d="M127.19,38.57a.05.05,0,0,0,0-.1.05.05,0,1,0,0,.1Z"/><path class="cls-2" d="M93,44.89A70.7,70.7,0,0,0,84,42c-2.86-.81-6.21-2.34-9.2-2.24a.53.53,0,0,0-.27,1c2.39,1.55,5.82,1.94,8.57,2.69a76.65,76.65,0,0,0,9.57,2.2c.38,0,.74-.51.3-.7Z"/><path class="cls-2" d="M71.87,38.86h-.08a.54.54,0,1,0,.47.27l-.05-.08a.39.39,0,0,0-.34-.2Z"/><path class="cls-2" d="M71.67,39a.79.79,0,0,0-.78,1,.9.9,0,0,0,1.42.36,1.07,1.07,0,0,0-.12-1.73,1.13,1.13,0,0,0-1.72.66.48.48,0,0,0,.79.46.7.7,0,0,1,.21-.14l.1-.06c.06,0,.09,0,.11,0s0,.06,0,.07,0-.23.08-.24c.23-.06.16-.38,0-.4Z"/><path class="cls-2" d="M122.69,19.41c1.31-4.29,5.59-5,9.52-5,3.58.05,7.17.29,10.75.43,7.3.29,14.59.59,21.89.85,1,0,1-1.51,0-1.55q-13.42-.49-26.87-.91c-5.19-.17-15-1.3-16.08,6a.41.41,0,0,0,.79.21Z"/><path class="cls-2" d="M79.85,18.63c-1.12-6.43-7.54-5.75-12.63-5.54-7.43.31-14.86.58-22.29.86-.94,0-1,1.51,0,1.48l17.33-.54c2.81-.08,5.61-.18,8.42-.22,3.39-.06,6.89.57,8,4.3a.63.63,0,0,0,1.21-.34Z"/><path class="cls-2" d="M47.55,30.17c-2.34,2.3-3.19,5.93-3.35,9.12-.14,2.8,0,7.56,2.4,9.45a.42.42,0,0,0,.71-.3,15.13,15.13,0,0,0-.86-3.93,19.11,19.11,0,0,1-.5-4.83c.08-3.29,1.25-6.13,2-9.27a.26.26,0,0,0-.43-.24Z"/><path class="cls-2" d="M43.65,57.93c-2.35,2.43-2.18,6-1.57,9.13.41,2.09,1.06,4.13,1.66,6.17a29,29,0,0,0,2.19,6.26.38.38,0,0,0,.71-.19c-.1-3.37-1.47-6.81-2.35-10a19.22,19.22,0,0,1-.15-11,.29.29,0,0,0-.49-.28Z"/><path class="cls-2" d="M153,29a49.28,49.28,0,0,1,2.48,8,24.46,24.46,0,0,1-.48,9.6.79.79,0,0,0,1.53.42c1.88-5.78,1.36-13.79-3.09-18.33A.27.27,0,0,0,153,29Z"/><path class="cls-2" d="M156.53,58.63c-.83,3-.24,6.54-.44,9.64-.21,3.41-1.42,7.06-1.19,10.43a.51.51,0,0,0,.94.25c1.5-2.84,1.53-7,1.74-10.2s.69-7.2-.62-10.17a.24.24,0,0,0-.43.05Z"/><path class="cls-2" d="M142.69,42.54a60.37,60.37,0,0,1-2.84,5.9c-1,1.69-2.38,3.23-3,5.07a.23.23,0,0,0,.33.26c1.68-1.09,2.69-3.06,3.6-4.79a26,26,0,0,0,2.4-6.24c.06-.27-.35-.47-.47-.2Z"/><path d="M134.64,12c-1.33,0-6.22-.21-6.22-.21s4.74-.32,6.22-.33l14.91-.16,14.69-.16,8.25-.08a11.19,11.19,0,0,1,2.15.09,2.87,2.87,0,0,1,2,1.11,2.71,2.71,0,0,1,.29,2.28,4,4,0,0,1-1.23,1.88A23.74,23.74,0,0,1,172,18.75c-1.23.7-2.49,1.36-3.73,2-2.5,1.29-5,2.42-7.48,3.47A107.08,107.08,0,0,1,147,28.93c-4.16,1.11-7.7,1.78-10.22,2.2s-4,.57-4.12.58c-.89.11-1.63.13-1.65-.07s1-.39,1.58-.46l1.11-.14,2.92-.43c2.49-.42,6-1.08,10.14-2.17a106.77,106.77,0,0,0,13.8-4.68c2.45-1,5-2.16,7.45-3.45,1.25-.64,2.5-1.3,3.73-2a24.59,24.59,0,0,0,3.56-2.23,3.51,3.51,0,0,0,1.11-1.62,2.25,2.25,0,0,0-.18-1.84,2.34,2.34,0,0,0-1.61-.92,11.68,11.68,0,0,0-2.06-.08l-8.27.08-14.72.16Z"/><path d="M139.66,12c-1.1,0-5.14-.35-5.14-.35s3.92-.21,5.15-.19L152,11.6l12.16.18,3.37.05c1.15,0,2.27,0,3.48.11a4.49,4.49,0,0,1,1.76.57,1.9,1.9,0,0,1,1,1.67,2.31,2.31,0,0,1-.93,1.69,6.81,6.81,0,0,1-1.55,1,224.52,224.52,0,0,1-23.92,10c-3.35,1.19-6.19,2.09-8.2,2.72l-3.3,1c-.71.2-1.31.32-1.37.12s.75-.5,1.22-.64l3.23-1c2-.62,4.81-1.52,8.16-2.69a225.84,225.84,0,0,0,23.9-10,6.78,6.78,0,0,0,1.45-.89,1.89,1.89,0,0,0,.77-1.29,1.37,1.37,0,0,0-.69-1.22,3.88,3.88,0,0,0-1.55-.5c-1.09-.14-2.29-.08-3.42-.12l-3.38,0L152,12.14Z"/><path d="M138.68,12.46a7,7,0,0,1-.52-.94,6.52,6.52,0,0,1,.92.57c0,.06.73.78,1.6,2a23.73,23.73,0,0,1,4.2,9.7c.14.72.2,1.32.26,1.75l.06.71a.23.23,0,0,1-.24.29.27.27,0,0,1-.3-.25l0-.68c-.06-.41-.12-1-.26-1.7a23.05,23.05,0,0,0-4.11-9.51A22.73,22.73,0,0,0,138.68,12.46Z"/><path d="M145.51,12.32a4.46,4.46,0,0,1-.36-.79,3.89,3.89,0,0,1,.76.44s.57.64,1.26,1.6a23.21,23.21,0,0,1,2.17,3.69,22.49,22.49,0,0,1,1.45,4c.15.56.24,1,.32,1.38l.1.56c0,.12,0,.23-.23.26a.25.25,0,0,1-.31-.17l-.09-.53c-.07-.33-.16-.8-.31-1.35a22.22,22.22,0,0,0-3.54-7.54C146.06,13,145.53,12.36,145.51,12.32Z"/><path d="M152.86,13.5a3.08,3.08,0,0,1,.06-.69,2.56,2.56,0,0,1,.45.52c0,.14,2.93,8.85,3,8.94s0,.17-.21.24-.28,0-.3-.07Z"/><path d="M158.52,13.48a2,2,0,0,1,.12-.54s.36.28.4.39l2,6.84c0,.07,0,.14-.23.2s-.28,0-.29-.05Z"/><path d="M163.44,12.94a1.83,1.83,0,0,1,.16-.47s.34.25.37.34l1.49,6.07c0,.06,0,.12-.23.17s-.28,0-.29,0S163.47,13,163.44,12.94Z"/><path d="M167,13.29a1.65,1.65,0,0,1-.1-.38s.33-.12.4-.07a3.59,3.59,0,0,1,.57.48,3.53,3.53,0,0,1,.84,1.31,3.85,3.85,0,0,1,.26,1.53,3.34,3.34,0,0,1-.11.73s-.08.06-.28,0-.25-.12-.24-.14a3,3,0,0,0,.09-.61,3.32,3.32,0,0,0-.22-1.32,3.28,3.28,0,0,0-.72-1.13A3.11,3.11,0,0,0,167,13.29Z"/><path d="M134.23,13a6.55,6.55,0,0,1-.3-1.07,6.3,6.3,0,0,1,.77.81c0,.06.53.95,1.17,2.31a39.56,39.56,0,0,1,2,5.1,40.4,40.4,0,0,1,1.26,5.29c.13.74.2,1.36.26,1.8l.08.72c0,.15,0,.28-.24.3a.27.27,0,0,1-.3-.25l-.07-.69c-.06-.43-.13-1.05-.26-1.77a39.19,39.19,0,0,0-1.25-5.23,38.69,38.69,0,0,0-2-5C134.75,13.93,134.25,13.05,134.23,13Z"/><path d="M128.19,11a3.76,3.76,0,0,1,1.36.66,4.49,4.49,0,0,1,.76.74,4.87,4.87,0,0,0-.88-.5,6.08,6.08,0,0,0-1.35-.37,5.21,5.21,0,0,0-1.65-.08,6.22,6.22,0,0,0-3.61,1.67A12.05,12.05,0,0,0,119.88,18a14.15,14.15,0,0,0-1.06,6.42,6.89,6.89,0,0,0,3.62,5,11.27,11.27,0,0,0,5.47,1.4,25.41,25.41,0,0,0,4.11-.3l1.64-.25c.35-.05.65,0,.68.16s-.36.34-.59.38l-1.62.24a26,26,0,0,1-4.19.31,11.93,11.93,0,0,1-5.73-1.45,8.52,8.52,0,0,1-2.57-2.2,6.84,6.84,0,0,1-1.35-3.22,14.47,14.47,0,0,1,1.08-6.69,12.56,12.56,0,0,1,3.09-5.09,6.75,6.75,0,0,1,3.93-1.81A6.31,6.31,0,0,1,128.19,11Z"/><path d="M131.86,14.83a6.93,6.93,0,0,1-.17-1.08,6.41,6.41,0,0,1,.67.87c0,.07.41,1,.86,2.42a33,33,0,0,1,1.24,5.26,33.85,33.85,0,0,1,.41,5.37c0,.74,0,1.35,0,1.79l-.05.72a.24.24,0,0,1-.29.25.26.26,0,0,1-.25-.29l0-.69c0-.43.05-1,.05-1.76a34.23,34.23,0,0,0-.41-5.3,33.49,33.49,0,0,0-1.22-5.19C132.26,15.8,131.87,14.88,131.86,14.83Z"/><path d="M126.3,14.33a6,6,0,0,1,.09-1,5.53,5.53,0,0,1,.44.93c0,.23,2.65,14.37,2.68,14.51a.23.23,0,0,1-.22.3.25.25,0,0,1-.31-.2Z"/><path d="M122.24,17.16a3.56,3.56,0,0,1,.14-.78,3.43,3.43,0,0,1,.39.68L124.66,28c0,.1,0,.2-.24.24s-.28-.08-.29-.15S122.27,17.31,122.24,17.16Z"/><path d="M146.51,41.6c0-.37.29-1.75.29-1.75a14.82,14.82,0,0,1,.25,1.76s0,.5-.05,1.24l-.08,1.31-.22,1.68A15.25,15.25,0,0,1,143,53.9a59.1,59.1,0,0,1-6.66,5.87l-3.18,2.61c-.19.16-.39.24-.52.08s0-.39.18-.5L136,59.37a59.73,59.73,0,0,0,6.61-5.81,14.73,14.73,0,0,0,3.61-7.81l.21-1.65.09-1.29C146.52,42.08,146.51,41.64,146.51,41.6Z"/><path d="M133.29,60.38c.09-.35.66-1.59.66-1.59a15.81,15.81,0,0,1-.13,1.71c-.1.4-5.75,24.27-5.81,24.51s-.16.42-.37.37-.19-.34-.15-.5S133.21,60.73,133.29,60.38Z"/><path d="M155.86,27.8a15.49,15.49,0,0,1-.52-1.57,13.47,13.47,0,0,1,1,1.33,38,38,0,0,1,1.53,3.65,35.32,35.32,0,0,1,1.76,16.38c-.14,1.13-.34,2.06-.47,2.72l-.25,1.08c-.06.23-.16.4-.36.35s-.2-.33-.16-.48l.24-1c.12-.65.33-1.56.46-2.67a35,35,0,0,0-1.73-16.17C156.6,29.25,155.88,27.89,155.86,27.8Z"/><path d="M159.89,48.66a1.86,1.86,0,0,1,.14-.48s.35.23.38.32,1.8,5.92,1.82,6,0,.13-.23.19-.28,0-.29,0Z"/><path d="M160.15,55.21c-.1-.45-.18-2.2-.18-2.2s.6,1.59.71,2.11a49.06,49.06,0,0,1,.59,5.28,45.36,45.36,0,0,1-.76,11.14,44.76,44.76,0,0,1-3.42,10.6c-.63,1.39-1.27,2.5-1.7,3.3l-.76,1.27c-.17.27-.36.46-.53.35s0-.46.07-.64l.74-1.23c.42-.78,1.06-1.87,1.68-3.25A44.65,44.65,0,0,0,160,71.46a45.54,45.54,0,0,0,.76-11C160.56,57.37,160.14,55.33,160.15,55.21Z"/><path d="M139.5,57.72a3.8,3.8,0,0,1,.25-.75,3.18,3.18,0,0,1,.29.71,12.18,12.18,0,0,0,.24,1.7,12.16,12.16,0,0,0,3.44,6.2c.35.35.68.6.9.79l.39.28c.08.06.11.16,0,.33s-.26.15-.31.11l-.4-.29c-.23-.2-.58-.46-.94-.82a12.67,12.67,0,0,1-2.29-3,12.52,12.52,0,0,1-1.32-3.52A17.63,17.63,0,0,1,139.5,57.72Z"/><path d="M144.75,63.49c.19-.44,1.09-1.92,1.09-1.92s-.39,1.64-.58,2.11a47.35,47.35,0,0,0-1.57,4.95,46.48,46.48,0,0,0-.38,21.66c.3,1.46.68,2.66.92,3.51l.46,1.38c.09.29.12.55-.08.63s-.37-.26-.43-.46L143.72,94c-.24-.86-.62-2.07-.93-3.55a47,47,0,0,1,.38-22C143.93,65.53,144.74,63.6,144.75,63.49Z"/><path d="M155.72,84.44a2.18,2.18,0,0,1,.39-.46,1.79,1.79,0,0,1,.13.59l-1.91,7.67c0,.07-.09.12-.29.07s-.24-.16-.23-.2S155.69,84.55,155.72,84.44Z"/><path d="M145.69,96.74a3.35,3.35,0,0,1-.68-.2,2.86,2.86,0,0,1,.63-.34l9.67-1c.1,0,.18,0,.2.25s-.08.27-.14.28Z"/><path d="M157.23,80.88a4.76,4.76,0,0,1,.4-.77,4,4,0,0,1,.14.85l-1.88,12.1c0,.11-.09.2-.3.17a.24.24,0,0,1-.23-.26C155.37,92.9,157.21,81.06,157.23,80.88Z"/><path d="M128.36,84.06a1.5,1.5,0,0,1,.29-.06,1.67,1.67,0,0,1,.24.16l-.32,1.63s-.07,0-.27,0-.26-.07-.26-.08Z"/><path d="M128.37,85.74a17.6,17.6,0,0,1,1.77.28,17,17,0,0,1-1.77.26l-26.23-.08c-.25,0-.46-.06-.46-.27s.29-.27.46-.27Z"/><path d="M129.61,87.62a4.18,4.18,0,0,0-.31-1.08,3.58,3.58,0,0,0-.48-.71,3.23,3.23,0,0,1,.69.54,2.65,2.65,0,0,1,.62,1.14,4,4,0,0,1,0,1.54,5.17,5.17,0,0,1-1.85,3.12,8,8,0,0,1-4.75,1.45c-1.81.06-3.69-.07-5.59-.11L102.69,93c-.3,0-.54-.08-.53-.29s.35-.25.55-.25L118,93c1.89,0,3.8.17,5.56.11A7.47,7.47,0,0,0,128,91.74a4.6,4.6,0,0,0,1.65-2.8A3.67,3.67,0,0,0,129.61,87.62Z"/><path d="M67.13,11.77c1.34,0,6.22.34,6.22.34s-4.74.22-6.22.2l-14.91-.16L37.52,12l-8.24-.09a11.65,11.65,0,0,0-2.06.08,2.37,2.37,0,0,0-1.62.89,2.16,2.16,0,0,0-.22,1.83,3.45,3.45,0,0,0,1.08,1.63A24,24,0,0,0,30,18.57c1.22.7,2.47,1.36,3.71,2,2.48,1.29,5,2.41,7.44,3.45A107.33,107.33,0,0,0,55,28.71c4.13,1.09,7.65,1.76,10.16,2.18s4,.57,4.1.58c.88.11,1.61.26,1.59.46s-1.06.15-1.65.07L68,31.87l-2.93-.44c-2.5-.41-6-1.08-10.19-2.18A101.07,101.07,0,0,1,26.14,16.77a4,4,0,0,1-1.26-1.87,2.78,2.78,0,0,1,.24-2.28,2.84,2.84,0,0,1,2-1.15,12.2,12.2,0,0,1,2.16-.1l8.27.09,14.72.16Z"/><path d="M62.1,11.71c1.11,0,5.15.19,5.15.19s-3.91.33-5.14.35l-12.34.18-12.16.18-3.37.05c-1.13,0-2.32,0-3.41.11a4,4,0,0,0-1.55.49,1.37,1.37,0,0,0-.72,1.21,1.83,1.83,0,0,0,.74,1.29,6.56,6.56,0,0,0,1.44.89,224.82,224.82,0,0,0,23.87,10c3.34,1.18,6.16,2.08,8.17,2.71l3.3,1c.7.2,1.27.43,1.21.63s-.89,0-1.37-.12l-3.23-1c-2-.62-4.83-1.52-8.18-2.7a221.25,221.25,0,0,1-24-10A7.07,7.07,0,0,1,29,16.2a2.47,2.47,0,0,1-1-1.68,1.94,1.94,0,0,1,.95-1.7,4.42,4.42,0,0,1,1.75-.58c1.22-.15,2.34-.08,3.49-.12l3.38,0,12.19-.18Z"/><path d="M62.69,12.39a6.32,6.32,0,0,1,.93-.57,5.87,5.87,0,0,1-.53.93c0,.05-.71.76-1.56,1.92a23.36,23.36,0,0,0-4.11,9.48c-.14.7-.2,1.3-.25,1.71l-.06.69c0,.15-.09.27-.29.25a.26.26,0,0,1-.25-.29l.06-.69c.06-.43.12-1,.26-1.75A23.82,23.82,0,0,1,58.44,19a23.27,23.27,0,0,1,2.65-4.63C62,13.16,62.66,12.44,62.69,12.39Z"/><path d="M55.86,12.27a4.3,4.3,0,0,1,.76-.45,4.21,4.21,0,0,1-.35.8s-.56.62-1.23,1.56a22.09,22.09,0,0,0-2.12,3.6A23.13,23.13,0,0,0,51.5,21.7c-.15.55-.23,1-.31,1.35l-.09.54c0,.12-.1.21-.31.18s-.24-.18-.22-.26l.09-.55c.08-.34.17-.82.32-1.38a22.56,22.56,0,0,1,1.45-4,22.9,22.9,0,0,1,2.17-3.7C55.3,12.9,55.84,12.31,55.86,12.27Z"/><path d="M48.4,13.62a2.82,2.82,0,0,1,.46-.52,2.61,2.61,0,0,1,0,.69L46,22.73c0,.09-.12.14-.31.07s-.22-.18-.21-.24Z"/><path d="M42.74,13.62c0-.1.39-.38.39-.38a1.54,1.54,0,0,1,.12.53l-2,6.85c0,.07-.09.1-.29,0s-.24-.15-.22-.19Z"/><path d="M37.81,13.11c0-.09.36-.35.36-.35a1.67,1.67,0,0,1,.16.48l-1.5,6.06c0,.06-.09.09-.29,0s-.24-.13-.23-.17Z"/><path d="M34.51,13.13c.07,0,.4.08.4.08s0,.34-.1.37a2.88,2.88,0,0,0-.49.41,3.19,3.19,0,0,0-.72,1.13,3.25,3.25,0,0,0-.22,1.31,3,3,0,0,0,.09.61s0,.09-.24.15-.27,0-.28,0a3.17,3.17,0,0,1-.11-.72,3.85,3.85,0,0,1,.26-1.53,3.66,3.66,0,0,1,.84-1.32A3.59,3.59,0,0,1,34.51,13.13Z"/><path d="M67.07,13a7.69,7.69,0,0,1,.77-.8,6.8,6.8,0,0,1-.29,1.06c0,.06-.53.94-1.16,2.29a39.63,39.63,0,0,0-3.2,10.25c-.12.72-.19,1.33-.25,1.77l-.08.71a.25.25,0,0,1-.3.25.28.28,0,0,1-.24-.31l.08-.7c.06-.44.13-1.06.26-1.79A40,40,0,0,1,65.9,15.34C66.54,14,67.05,13.09,67.07,13Z"/><path d="M73.69,11.82a6.43,6.43,0,0,0-1.33.36,4.5,4.5,0,0,0-.9.52,4.19,4.19,0,0,1,.75-.74,3.66,3.66,0,0,1,1.37-.66,5.7,5.7,0,0,1,1.81-.09A6.7,6.7,0,0,1,79.31,13,12.52,12.52,0,0,1,82.4,18.1a14.38,14.38,0,0,1,1.08,6.67A6.71,6.71,0,0,1,82.15,28a8.33,8.33,0,0,1-2.55,2.2,11.8,11.8,0,0,1-5.73,1.47,26.14,26.14,0,0,1-4.19-.3L68,31.11c-.35-.06-.64-.17-.6-.37s.45-.2.68-.16l1.61.24a25.18,25.18,0,0,0,4.1.3,11.3,11.3,0,0,0,5.48-1.38,6.91,6.91,0,0,0,3.65-5,14.19,14.19,0,0,0-1-6.43,12.05,12.05,0,0,0-3-4.87,6.22,6.22,0,0,0-3.61-1.67A5.45,5.45,0,0,0,73.69,11.82Z"/><path d="M69.42,14.92a6.57,6.57,0,0,1,.66-.88,7,7,0,0,1-.16,1.08c0,.06-.41,1-.86,2.38a33.07,33.07,0,0,0-1.22,5.18,33.87,33.87,0,0,0-.4,5.28c0,.73,0,1.34,0,1.77l0,.7a.25.25,0,0,1-.25.3.27.27,0,0,1-.29-.26l0-.7c0-.43-.06-1.05,0-1.79a34.14,34.14,0,0,1,.41-5.38,33.11,33.11,0,0,1,1.24-5.27C69,15.91,69.4,15,69.42,14.92Z"/><path d="M74.94,14.52a6.44,6.44,0,0,1,.44-.93,5.8,5.8,0,0,1,.09,1c0,.23-2.65,14.37-2.68,14.51a.23.23,0,0,1-.31.21.27.27,0,0,1-.22-.31C72.28,28.94,74.9,14.73,74.94,14.52Z"/><path d="M79,17.36a3.91,3.91,0,0,1,.39-.69,3.34,3.34,0,0,1,.14.78c0,.17-1.87,10.78-1.88,10.89s-.1.18-.3.14-.25-.17-.23-.24S79,17.52,79,17.36Z"/><path d="M85.24,22.29c-.44-.27-1.87-1.49-1.87-1.49s1.67.73,2.13,1a37.78,37.78,0,0,0,5.09,2.34,33.86,33.86,0,0,0,11.59,2,34.37,34.37,0,0,0,6.25-.54,33.62,33.62,0,0,0,5.29-1.45,31.55,31.55,0,0,0,3.6-1.55l1.37-.75c.29-.16.56-.24.67-.07s-.21.43-.4.53l-1.37.76a31.9,31.9,0,0,1-3.65,1.57,34.75,34.75,0,0,1-5.38,1.48,35.5,35.5,0,0,1-6.36.56,34.27,34.27,0,0,1-11.8-2.06A34.46,34.46,0,0,1,85.24,22.29Z"/><path d="M81,30.32a4.32,4.32,0,0,1-.2-.88l0-.65.29.55c.15.29.36.59.43.75a7.4,7.4,0,0,0,2.2,2.63,18.8,18.8,0,0,0,6.78,3,26.62,26.62,0,0,1,7.12,2.61,10,10,0,0,1,2,1.61,5.25,5.25,0,0,1,.65.8c.13.18.18.36,0,.47s-.37-.05-.45-.16l-.15-.21c-.09-.13-.25-.3-.44-.52a8.88,8.88,0,0,0-1.89-1.52,25.87,25.87,0,0,0-7-2.55,19.27,19.27,0,0,1-7-3.07,8.15,8.15,0,0,1-1.81-1.89A8.42,8.42,0,0,1,81,30.32Z"/><path d="M138.1,34.77a16.25,16.25,0,0,0,0-2.07,8.1,8.1,0,0,0-.13-1.05l-.07-.46.15.42a7.75,7.75,0,0,1,.31,1,9.21,9.21,0,0,1,.3,2.16,14.08,14.08,0,0,1-.27,2.57,20.83,20.83,0,0,1-2.13,5.85,49.12,49.12,0,0,1-4.87,7.1,48.69,48.69,0,0,0-5.45,8,27.13,27.13,0,0,0-2.59,9.25,47.49,47.49,0,0,0-.08,8.48c.18,2.48.45,4.56.63,6l.34,2.4c.07.52.07,1-.14,1s-.35-.56-.4-.9l-.32-2.36c-.19-1.47-.46-3.55-.64-6.06a47.51,47.51,0,0,1,.07-8.57,27.83,27.83,0,0,1,2.63-9.46A49.53,49.53,0,0,1,130.94,50a48.67,48.67,0,0,0,4.83-7,20.21,20.21,0,0,0,2.08-5.7A14,14,0,0,0,138.1,34.77Z"/><path d="M77.09,57.25c-.45-.06-2.08-.55-2.08-.55s1.65-.05,2.15,0l5.08.67,5,.66a24.88,24.88,0,0,0,5.67.14,10.88,10.88,0,0,0,5.21-1.92,7.82,7.82,0,0,0,1.78-1.81,6.29,6.29,0,0,0,.9-2.08,5.94,5.94,0,0,0-.18-3.37,4.59,4.59,0,0,0-.66-1.18c-.18-.22-.3-.43-.15-.58s.45.08.58.26l.24.33a6.28,6.28,0,0,1,.48.95,6.43,6.43,0,0,1,.22,3.68,6.81,6.81,0,0,1-1,2.26,8,8,0,0,1-1.9,2,11.49,11.49,0,0,1-5.46,2,24.45,24.45,0,0,1-5.82-.14l-5-.66Z"/><path d="M100.48,50.32a6,6,0,0,1,.08-1.32,8.7,8.7,0,0,1,.22-.92s0,.43,0,.91.17,1,.19,1.26a9.75,9.75,0,0,0,.32,1.46,10.06,10.06,0,0,0,1.72,3.2,10.69,10.69,0,0,0,4,3.07,14.27,14.27,0,0,0,5.68,1.15,24.93,24.93,0,0,0,10.58-2.7c1.37-.64,2.5-1.23,3.3-1.65l1.3-.69c.28-.15.54-.22.63,0s-.19.41-.38.51l-1.28.68c-.8.42-1.92,1-3.31,1.67a25.76,25.76,0,0,1-10.82,2.76,14.76,14.76,0,0,1-5.91-1.2,11.09,11.09,0,0,1-4.21-3.23,10.41,10.41,0,0,1-1.82-3.38A11.59,11.59,0,0,1,100.48,50.32Z"/><path d="M97.71,59.74a7,7,0,0,1,1.13-.05l.81.08-.76.19c-.41.1-.84.27-1.06.31a9.79,9.79,0,0,0-3.92,2,14.23,14.23,0,0,0-4.74,7.94A28,28,0,0,0,89,79.61c.16,1.3.34,2.38.47,3.14L89.71,84c0,.27,0,.5-.18.54s-.32-.27-.35-.45L89,82.86c-.13-.76-.31-1.84-.47-3.15a28.71,28.71,0,0,1,.14-9.62,14.71,14.71,0,0,1,4.94-8.26,10.76,10.76,0,0,1,4.13-2.09Z"/><path d="M100.6,59.89l-1.18-.24-.86-.14.86-.13a6.7,6.7,0,0,1,1.25,0,14.05,14.05,0,0,1,4.82,1.52,14.39,14.39,0,0,1,4,3,14.85,14.85,0,0,1,2.92,4.87,27.07,27.07,0,0,1,1.17,10.46c-.08,1.44-.19,2.64-.28,3.49l-.15,1.39c0,.29-.12.53-.33.51s-.23-.38-.2-.57l.14-1.36c.09-.84.2-2,.28-3.46A26.62,26.62,0,0,0,111.87,69a14.31,14.31,0,0,0-2.81-4.7,14.05,14.05,0,0,0-3.82-2.93A14.38,14.38,0,0,0,102,60.14,14,14,0,0,0,100.6,59.89Z"/><path d="M89.23,39.14c1,.29,4.7,1.59,4.7,1.59s-3.71-.75-4.85-1.07l-11.43-3.2L72.31,35l-1.43-.4-.54-.15-.23.46a10.61,10.61,0,0,0-.89,2.93,14.3,14.3,0,0,0,3.94,12,20.07,20.07,0,0,0,11.63,5.56,21.87,21.87,0,0,0,6,.1,7.83,7.83,0,0,0,4.71-2.23A6.19,6.19,0,0,0,97,49.1a10.38,10.38,0,0,0-.63-3.46,24.45,24.45,0,0,0-1.35-3c-.33-.63-.56-1.17-.38-1.27s.63.59.85,1l.41.79a20.38,20.38,0,0,1,.95,2.19A11,11,0,0,1,97.54,49,6.79,6.79,0,0,1,96,53.52,8.23,8.23,0,0,1,91,56a21.82,21.82,0,0,1-6.19-.07,20.71,20.71,0,0,1-12-5.7,14.88,14.88,0,0,1-4.12-12.48,11.77,11.77,0,0,1,.94-3.07,7.65,7.65,0,0,1,.47-.87l.93.26,1.44.4L77.81,36Z"/><path d="M90.25,72a4.73,4.73,0,0,1-.8-.3l-.54-.29.6,0a5.92,5.92,0,0,1,.82,0,10.5,10.5,0,0,0,3.3,0,10.18,10.18,0,0,0,3.07-1,9.35,9.35,0,0,0,1.53-1,6.93,6.93,0,0,0,.72-.65c.13-.09.23-.31.38-.15l.32.17.42.23a17,17,0,0,0,6.74,1.79,15.43,15.43,0,0,0,2.34,0c.57-.05.9-.11.92-.11.2,0,.37,0,.41.21s-.19.3-.33.32l-.26,0c-.15,0-.39,0-.68.08a17.71,17.71,0,0,1-2.4,0,17.37,17.37,0,0,1-7-1.85l-.44-.23-.11-.06h0a7.86,7.86,0,0,1-.71.63A9.51,9.51,0,0,1,97,70.88,10.69,10.69,0,0,1,90.25,72Z"/><path d="M90.24,78.61a5.27,5.27,0,0,1-.89-.25l-.62-.26h.65a7.1,7.1,0,0,1,.91,0,12.47,12.47,0,0,0,3.65-.24,12.35,12.35,0,0,0,3.36-1.28A12,12,0,0,0,99,75.42c.13-.11.27-.22.39-.34l.52-.48c.06-.11.13,0,.2,0l.21.17.22.17c.14.11.27.22.42.32a12.23,12.23,0,0,0,7.26,2.14,11.79,11.79,0,0,0,2.53-.35c.61-.16,1-.29,1-.3.2-.07.4-.07.47.12s-.15.34-.29.39l-.27.09c-.17.07-.42.13-.74.22a12.6,12.6,0,0,1-2.64.37,12.76,12.76,0,0,1-7.6-2.23c-.15-.1-.29-.22-.44-.33l-.21-.17h0l-.25.24c-.13.13-.28.24-.41.36A14,14,0,0,1,97.57,77a13.32,13.32,0,0,1-3.52,1.34A12.35,12.35,0,0,1,90.24,78.61Z"/><path d="M91.44,84.7a4.58,4.58,0,0,1-.85-.14L90,84.38l.61-.09c.32-.06.67-.12.84-.13a11.61,11.61,0,0,0,3.36-.57,12,12,0,0,0,3-1.46c.26-.17.51-.36.75-.55l.37-.31.29-.25c.05-.09.14,0,.21,0l.2.1a17.06,17.06,0,0,0,1.79.8,19.8,19.8,0,0,0,7.07,1.34,18.59,18.59,0,0,0,2.4-.13c.58-.07.92-.14,1-.14.2,0,.38,0,.42.2s-.19.31-.33.33l-.26,0-.7.09a17.54,17.54,0,0,1-2.46.14,20.62,20.62,0,0,1-7.28-1.37,16.94,16.94,0,0,1-1.84-.83h0l-.07.06a3.89,3.89,0,0,1-.39.32,8.28,8.28,0,0,1-.78.58A12.89,12.89,0,0,1,95,84.11,12.3,12.3,0,0,1,91.44,84.7Z"/><path d="M54.72,41.9c0-.38.25-1.76.25-1.76s.28,1.34.29,1.75c0,0,0,.49.05,1.22l.08,1.29.22,1.65a14.55,14.55,0,0,0,3.6,7.79,59.81,59.81,0,0,0,6.59,5.81L69,62.26c.19.16.31.34.18.5s-.4,0-.53-.09l-3.16-2.59a60,60,0,0,1-6.67-5.87,15.25,15.25,0,0,1-3.74-8.08l-.21-1.68-.09-1.32C54.71,42.39,54.72,42,54.72,41.9Z"/><path d="M68,60.8a15.15,15.15,0,0,1-.13-1.71,14.5,14.5,0,0,1,.65,1.58c.09.4,5.75,24.27,5.81,24.51s0,.45-.16.49-.33-.21-.37-.37S68,61.15,68,60.8Z"/><path d="M45.43,27.86a15.94,15.94,0,0,1,1-1.33,15.58,15.58,0,0,1-.51,1.57,35.82,35.82,0,0,0-1.51,3.58,34.59,34.59,0,0,0-1.82,8,34.22,34.22,0,0,0,.09,8.16c.13,1.11.33,2,.46,2.68l.25,1c0,.23,0,.43-.17.48s-.32-.2-.36-.35l-.25-1c-.12-.66-.33-1.59-.46-2.72A35.28,35.28,0,0,1,43.9,31.5,39.14,39.14,0,0,1,45.43,27.86Z"/><path d="M41.36,48.8c0-.09.38-.33.38-.33a1.53,1.53,0,0,1,.14.48c0,.1-1.8,5.92-1.82,6s-.09.09-.29,0-.24-.14-.23-.18Z"/><path d="M41.09,55.41c.1-.47.71-2.11.71-2.11s-.07,1.7-.18,2.21c0,.13-.41,2.17-.58,5.21a44.83,44.83,0,0,0,.75,11A44.33,44.33,0,0,0,45.17,82.2c.62,1.38,1.26,2.48,1.68,3.27l.75,1.25c.17.27.25.52.07.64s-.41-.18-.52-.36l-.75-1.24c-.43-.79-1.07-1.9-1.7-3.29a45.94,45.94,0,0,1-4.2-21.78A51.41,51.41,0,0,1,41.09,55.41Z"/><path d="M61.73,58a4.22,4.22,0,0,1,.29-.72,3.58,3.58,0,0,1,.25.75A12.21,12.21,0,0,1,62,59.78,12.4,12.4,0,0,1,60.7,63.3a12.13,12.13,0,0,1-2.28,3,12.47,12.47,0,0,1-.94.83l-.4.29c-.09.06-.2.07-.31-.11s-.06-.29,0-.33l.38-.27c.22-.19.55-.44.9-.79A11.78,11.78,0,0,0,60.23,63a12.3,12.3,0,0,0,1.27-3.37A13.22,13.22,0,0,0,61.73,58Z"/><path d="M56.52,64c-.18-.43-.59-2.11-.59-2.11s.89,1.43,1.09,1.91c0,.13.82,2.06,1.59,5a47,47,0,0,1,1.48,10.95,46.75,46.75,0,0,1-1.1,11c-.31,1.48-.69,2.69-.93,3.55l-.46,1.4c-.1.29-.24.52-.44.45s-.14-.43-.07-.63l.44-1.35c.24-.85.62-2,.92-3.5a45.83,45.83,0,0,0,1.1-10.85,46.13,46.13,0,0,0-1.47-10.85C57.33,66,56.53,64.09,56.52,64Z"/><path d="M45.53,84.86a2.18,2.18,0,0,1,.13-.58s.36.33.39.45,1.89,7.6,1.91,7.67,0,.15-.22.2-.29,0-.3-.07S45.56,85,45.53,84.86Z"/><path d="M56.14,96.49a3.29,3.29,0,0,1,.62.34,2.55,2.55,0,0,1-.68.2c-.16,0-9.58-1-9.68-1s-.16-.08-.14-.29.14-.26.2-.25Z"/><path d="M44,81.26a4.24,4.24,0,0,1,.14-.86,4,4,0,0,1,.39.78c0,.19,1.86,12,1.87,12.09s0,.22-.23.25-.29-.09-.3-.17S44,81.43,44,81.26Z"/><path d="M72.88,84.46a1.75,1.75,0,0,1,.25-.16s.28,0,.28.06L73.73,86s-.06,0-.26.08-.27,0-.27,0Z"/><path d="M73.67,86.57c-.44,0-2-.26-2-.26s1.55-.27,2-.28l30.14-.09c.29,0,.53.06.54.27s-.34.27-.54.27Z"/><path d="M71.08,87.79a2.27,2.27,0,0,1,1-1.15c.23-.15.46-.28.62-.37l.27-.15-.7.71a2.6,2.6,0,0,0-.65,1.11,1.81,1.81,0,0,0,0,.41,2.1,2.1,0,0,0,.08.43,2.57,2.57,0,0,0,.11.27s.11.11.19.19l1.28,1.22c.51.44,1.17.84,1.84,1.32A15.85,15.85,0,0,0,80.3,93.7a26.13,26.13,0,0,0,6.42.32c4.4-.24,8.76-1.06,12.1-1.35.84-.06,1.61-.13,2.29-.17l1.79,0c1,0,1.59.07,1.63.06.35,0,.64.09.62.3s-.43.25-.65.24L102.93,93l-1.76,0c-.67,0-1.43.11-2.26.16-3.31.28-7.67,1.11-12.14,1.36a27,27,0,0,1-6.57-.33,16.64,16.64,0,0,1-5.44-2c-.69-.5-1.38-.91-1.9-1.38L71.53,89.6l-.14-.13a.44.44,0,0,1-.15-.21c0-.11-.1-.22-.13-.33a2.21,2.21,0,0,1-.1-.58A2.53,2.53,0,0,1,71.08,87.79Z"/><path d="M61.68,35c0-.2.09-.54.18-.94l.37-1.24c.3-.81.59-1.51.59-1.51l-.32,1.55-.18,1.25-.1,1a15.37,15.37,0,0,0-.17,2.63,20.53,20.53,0,0,0,1,6.32,20,20,0,0,0,4.56,7.59c2.27,2.36,5.42,4,8.31,6a19.48,19.48,0,0,1,3.93,3.54,19,19,0,0,1,2.66,4.39,29,29,0,0,1,2,8.82,62.67,62.67,0,0,1,.19,6.45l-.07,2.57c0,.55-.1,1-.31,1s-.25-.65-.23-1l.07-2.51A63.75,63.75,0,0,0,84,74.49a29,29,0,0,0-2-8.67,18.19,18.19,0,0,0-2.56-4.27,19.17,19.17,0,0,0-3.83-3.46c-2.85-2-6-3.65-8.4-6.09a20.43,20.43,0,0,1-4.71-7.81,21.43,21.43,0,0,1-1.05-6.49A19.07,19.07,0,0,1,61.68,35Z"/><path d="M45.49,27.62a15.48,15.48,0,0,1,1.11-1.31A15.37,15.37,0,0,1,46,27.88a28.21,28.21,0,0,0-1.67,3.63,26.73,26.73,0,0,0-1.64,8.23,26.21,26.21,0,0,0,1,8.31,27.32,27.32,0,0,0,.89,2.64l.45,1c.1.22.12.43-.07.52s-.35-.14-.42-.29l-.45-1a27.2,27.2,0,0,1-1.89-11.19,27.18,27.18,0,0,1,1.68-8.41A28.94,28.94,0,0,1,45.49,27.62Z"/><path d="M42.09,48.12a2.24,2.24,0,0,1,.64,0,2.22,2.22,0,0,1-.35.51,5.34,5.34,0,0,0-1,.84A6.24,6.24,0,0,0,40,51.79a6,6,0,0,0-.24,2.73,6.28,6.28,0,0,0,.2.9l.13.34c0,.07,0,.16-.19.24s-.29,0-.31,0l-.14-.37a6.73,6.73,0,0,1-.22-1,6.57,6.57,0,0,1,.26-3A6.72,6.72,0,0,1,41,49,7.29,7.29,0,0,1,42.09,48.12Z"/><path d="M41.24,57.63a13.05,13.05,0,0,1,.64-1.36l.55-.93-.29,1c-.16.53-.28,1.16-.39,1.44a21.42,21.42,0,0,0-.9,6,42.52,42.52,0,0,0,2.06,12.6c1.32,4.47,2.76,8.93,3.38,12.42A37.68,37.68,0,0,1,46.83,93c.06,1.06.05,1.68.05,1.72,0,.37-.06.68-.27.67s-.27-.42-.27-.67v-.45c0-.28,0-.69-.05-1.2a32.42,32.42,0,0,0-.53-4.2A127.28,127.28,0,0,0,42.4,76.52a43.22,43.22,0,0,1-2.09-12.79A21.71,21.71,0,0,1,41.24,57.63Z"/><path d="M47.75,96.27a3.12,3.12,0,0,1-.47-.58,3.36,3.36,0,0,1,.72.1,10.12,10.12,0,0,0,1.48.62,9.9,9.9,0,0,0,6.62-.24c.44-.17.77-.36,1-.48l.38-.23c.08,0,.18,0,.3.13s0,.29,0,.32l-.4.24a10.12,10.12,0,0,1-1.07.51,10,10,0,0,1-3.48.74,10.26,10.26,0,0,1-3.53-.48A9.53,9.53,0,0,1,47.75,96.27Z"/><path d="M57.67,94.76c-.15.46-1,2.06-1,2.06s.28-1.72.44-2.22c0-.13.69-2.16,1.28-5.24a52,52,0,0,0,.91-11.3,51,51,0,0,0-1.51-11.2c-.35-1.51-.76-2.74-1-3.62l-.49-1.42c-.11-.3-.14-.58.06-.65s.37.26.44.47L57.3,63c.27.89.69,2.13,1.05,3.65A52.73,52.73,0,0,1,59.88,78,53.31,53.31,0,0,1,59,89.47C58.36,92.58,57.68,94.63,57.67,94.76Z"/><path d="M57.48,66.09a2.51,2.51,0,0,1-.69,0,2.51,2.51,0,0,1,.44-.51,8.87,8.87,0,0,0,1.21-.83,8,8,0,0,0,2.81-5.31,7.6,7.6,0,0,0,0-1l0-.41c0-.09,0-.17.26-.19s.27.07.28.13l0,.43a8.83,8.83,0,0,1,0,1.1,8.12,8.12,0,0,1-.95,3.13,8.38,8.38,0,0,1-2.06,2.56A7.74,7.74,0,0,1,57.48,66.09Z"/><path d="M54.37,44.05a9.51,9.51,0,0,1,.16-1.85,9.15,9.15,0,0,1,.18-.91l.1-.39v.39c0,.24,0,.56,0,.91,0,.68.09,1.46.11,1.82a15.74,15.74,0,0,0,.25,2.15,15.86,15.86,0,0,0,6.7,10.23C64,58,66.59,59.5,68.29,62a24.81,24.81,0,0,1,3.19,7.88c.69,2.6,1.34,5,1.9,7.12,1.12,4.19,1.88,7,1.91,7.12.11.43.15.81-.05.86s-.4-.43-.47-.72l-1.89-7.07L71,70a24.12,24.12,0,0,0-3.1-7.72c-1.62-2.35-4.15-3.84-6.33-5.45a16.38,16.38,0,0,1-6.91-10.59A16,16,0,0,1,54.37,44.05Z"/><path d="M145.33,45c0-.31.16-1,.19-1.69,0-.33,0-.64,0-.86v-.38l.09.36a8.51,8.51,0,0,1,.15.85,8.26,8.26,0,0,1,.09,1.77,17.61,17.61,0,0,1-2.27,6.79,39.36,39.36,0,0,1-4,5.74c-1.61,2-3.38,4-4.89,6.27a33.13,33.13,0,0,0-5.23,13.69,33.64,33.64,0,0,0-.33,4.9c0,1.2.08,1.91.08,2,0,.42,0,.77-.21.79s-.3-.47-.32-.75l0-.54-.05-1.42a34.76,34.76,0,0,1,.33-5,33.6,33.6,0,0,1,5.31-13.94c1.54-2.27,3.32-4.34,4.93-6.32a39.61,39.61,0,0,0,4-5.68A19.16,19.16,0,0,0,145,47,13.39,13.39,0,0,0,145.33,45Z"/><path d="M138.59,57.37a2.88,2.88,0,0,1,0-.69,2.69,2.69,0,0,1,.52.46l4,8.45c0,.09,0,.18-.17.27s-.29,0-.32,0S138.65,57.49,138.59,57.37Z"/><path d="M145.46,62.11c.25-.43,1.4-1.84,1.4-1.84s-.65,1.64-.93,2.1a42.53,42.53,0,0,0-2.23,5,37.28,37.28,0,0,0-1,22.61,36.45,36.45,0,0,0,1.18,3.63l.59,1.4c.13.3.18.57,0,.66s-.39-.24-.48-.44l-.59-1.4c-.31-.89-.81-2.13-1.2-3.67a36.18,36.18,0,0,1-1.05-5.33,38.44,38.44,0,0,1-.23-6.21,37.86,37.86,0,0,1,2.25-11.44A41.4,41.4,0,0,1,145.46,62.11Z"/><path d="M145.31,96.36a3.27,3.27,0,0,1-.77-.16,3.19,3.19,0,0,1,.69-.37l10.87-1.59c.1,0,.2,0,.23.23s-.08.29-.15.3Z"/><path d="M156.45,92.43c0,.27.05.91.09,1.49l.1,1.09-.36-1a13.27,13.27,0,0,1-.37-1.5,28.76,28.76,0,0,1,0-6.25,92.17,92.17,0,0,1,2.62-12.84c.56-2.3,1.06-4.6,1.38-6.79a36.3,36.3,0,0,0,.39-6,23.19,23.19,0,0,0-.52-4.25c-.23-1-.43-1.6-.44-1.64-.11-.35-.14-.66,0-.73s.39.32.46.56L160,55c.09.28.18.7.31,1.21a23.21,23.21,0,0,1,.53,4.34,35.27,35.27,0,0,1-.38,6.11c-.32,2.22-.83,4.55-1.39,6.86a90.31,90.31,0,0,0-2.61,12.79A28.29,28.29,0,0,0,156.45,92.43Z"/><path d="M159.35,49.07a3.5,3.5,0,0,1-.17-.65,2.71,2.71,0,0,1,.61.33,12.11,12.11,0,0,1,.81,1.31,10,10,0,0,1,1,3.09,10.15,10.15,0,0,1,0,3.23,9.74,9.74,0,0,1-.25,1l-.13.41c0,.08-.12.14-.31.06s-.22-.19-.2-.24l.12-.38a8,8,0,0,0,.24-1,9.4,9.4,0,0,0,0-3.06,9.55,9.55,0,0,0-.93-2.92A9.39,9.39,0,0,0,159.35,49.07Z"/><path d="M156.25,28.43c-.13-.35-.38-1.75-.38-1.75a15.77,15.77,0,0,1,.89,1.57c0,.11.63,1.7,1.21,4.13a40.62,40.62,0,0,1,1.09,9,40.08,40.08,0,0,1-.9,9c-.25,1.21-.55,2.21-.74,2.91l-.37,1.15c-.07.24-.2.43-.39.36s-.17-.37-.12-.53l.36-1.11c.18-.69.48-1.67.72-2.86a39.21,39.21,0,0,0,.9-8.87,39.79,39.79,0,0,0-1.08-8.88A42.12,42.12,0,0,0,156.25,28.43Z"/><path d="M84.49,22.47c-.45-.29-1.93-1.56-1.93-1.56s1.72.78,2.21,1.09A38.83,38.83,0,0,0,90,24.52a36.36,36.36,0,0,0,12,2.4,37,37,0,0,0,6.54-.35,36.59,36.59,0,0,0,5.58-1.29A36.53,36.53,0,0,0,118,23.84l1.46-.72c.32-.15.61-.22.71,0s-.25.42-.46.52l-1.46.72a35.76,35.76,0,0,1-3.87,1.46,37.15,37.15,0,0,1-5.67,1.32,38.16,38.16,0,0,1-6.65.36A37,37,0,0,1,89.84,25,40,40,0,0,1,84.49,22.47Z"/><path d="M85.18,25.86c-.49-.22-2.17-1.25-2.17-1.25s1.84.52,2.38.75A49.43,49.43,0,0,0,91,27.22a46.49,46.49,0,0,0,12.35,1.5,47,47,0,0,0,6.61-.55,45.41,45.41,0,0,0,5.66-1.26c1.64-.45,3-1,3.92-1.32l1.52-.64c.32-.14.62-.19.7,0s-.27.41-.49.5l-1.51.64c-1,.35-2.29.88-4,1.34a48.41,48.41,0,0,1-5.73,1.28,46.83,46.83,0,0,1-6.7.55,46.59,46.59,0,0,1-12.53-1.51A52.12,52.12,0,0,1,85.18,25.86Z"/><path d="M81.44,30a4.24,4.24,0,0,1-.3-.87L81,28.45l.36.52c.19.28.44.56.52.71a8.52,8.52,0,0,0,2.47,2.51,22.75,22.75,0,0,0,7,2.85,23.81,23.81,0,0,1,7.18,2.87,10.19,10.19,0,0,1,2,1.73,6.14,6.14,0,0,1,.62.86c.12.19.17.38,0,.48s-.37-.08-.44-.19l-.15-.23a6.3,6.3,0,0,0-.42-.55,9.24,9.24,0,0,0-1.84-1.65,24,24,0,0,0-7-2.8,23.17,23.17,0,0,1-7.21-2.93,9.15,9.15,0,0,1-2-1.78A8.89,8.89,0,0,1,81.44,30Z"/><path d="M120.21,29.52c.06-.15.28-.48.44-.8l.3-.61,0,.68a4,4,0,0,1-.21.95,8.82,8.82,0,0,1-2.42,3.08A20.23,20.23,0,0,1,111,36.35a34,34,0,0,0-7.47,2.76,11.27,11.27,0,0,0-2.09,1.55,7.66,7.66,0,0,0-.71.77c-.14.17-.31.27-.47.15s0-.38.06-.5l.19-.23c.11-.14.31-.32.54-.56a11.24,11.24,0,0,1,2.19-1.63,33.92,33.92,0,0,1,7.59-2.82,19.62,19.62,0,0,0,7.15-3.44,8.14,8.14,0,0,0,1.75-1.95A7.09,7.09,0,0,0,120.21,29.52Z"/><path d="M90.67,28.78a1.83,1.83,0,0,1,.47-.27,1.65,1.65,0,0,1,0,.54l-3.62,6c0,.06-.11.08-.29,0s-.19-.21-.17-.25Z"/><path d="M95,30a2,2,0,0,1,.46-.26,1.55,1.55,0,0,1,0,.53c0,.1-3.42,5.84-3.46,5.9s-.11.07-.29,0-.19-.21-.17-.24Z"/><path d="M100.74,30.61a2.38,2.38,0,0,1,.55-.3,2.18,2.18,0,0,1-.11.62l-4.91,6.78c0,.07-.14.08-.31,0s-.16-.23-.13-.28Z"/><path d="M105.12,30.26a2.87,2.87,0,0,1,.53-.38,2.38,2.38,0,0,1-.06.65l-4.41,7.66c0,.07-.13.1-.31,0s-.18-.22-.16-.27Z"/><path d="M110.8,30.22a2.5,2.5,0,0,1,.52-.34,1.91,1.91,0,0,1-.07.62c-.07.12-4.4,7.16-4.45,7.23s-.13.1-.31,0-.17-.22-.15-.27Z"/><path d="M115.23,29.72a2,2,0,0,1,.5-.26,2,2,0,0,1,0,.56l-4,6c0,.06-.13.08-.3,0s-.18-.22-.15-.26S115.17,29.8,115.23,29.72Z"/><path d="M85.54,28.33c0-.07.37-.23.37-.23s.16.34.13.42l-1.78,4.77s-.08.06-.28,0-.23-.15-.22-.18Z"/><path d="M84.13,27.27c0-.05.37-.11.37-.11s.13.31.1.37l-2,3.65s-.09,0-.27-.07-.22-.17-.2-.19Z"/><path d="M105.17,44.9a5.78,5.78,0,0,1,.77-1.51,5.72,5.72,0,0,1,.77-.92,8,8,0,0,0-.53,1,11.67,11.67,0,0,0-.49,1.55,7.14,7.14,0,0,0-.27,1.89,6.74,6.74,0,0,0,1.51,4.29,7,7,0,0,0,2.36,1.9,7.65,7.65,0,0,0,3.31.73,16.68,16.68,0,0,0,7.2-1.93,23,23,0,0,0,6.06-4.42,23.31,23.31,0,0,0,3.87-5.31,21.16,21.16,0,0,0,1.75-4.35A17.17,17.17,0,0,0,131.9,36c.07-.39.19-.71.4-.68s.18.51.13.78l-.1.51c0,.32-.18.76-.32,1.33a21.53,21.53,0,0,1-1.78,4.45,23.82,23.82,0,0,1-4,5.44,23.07,23.07,0,0,1-6.21,4.55,17.15,17.15,0,0,1-7.46,2,8.24,8.24,0,0,1-3.55-.79,7.47,7.47,0,0,1-2.55-2,7.25,7.25,0,0,1-1.62-4.64A7.5,7.5,0,0,1,105.17,44.9Z"/><path d="M106.81,42.09c-.36.11-1.74.27-1.74.27a14.45,14.45,0,0,1,1.58-.78l24.57-7.78c.24-.08.45-.08.51.12s-.19.34-.35.39Z"/><path d="M82.73,62.32c-.06,0-.13-.4-.13-.4s.35-.1.42-.06l4,2.5s0,.1-.08.28-.19.2-.21.18Z"/><path d="M114.85,66.41a1.49,1.49,0,0,1-.47-.13s.2-.35.29-.38.37-.13.86-.35a11.54,11.54,0,0,0,1.7-1,10.4,10.4,0,0,0,1.48-1.27c.19-.19.34-.36.45-.48l.16-.2s.12,0,.28.1.16.22.14.25-.24.3-.64.7A11,11,0,0,1,117.54,65a11.84,11.84,0,0,1-1.79,1C115.24,66.27,114.87,66.4,114.85,66.41Z"/><path d="M116.58,75.13s-.34-.1-.34-.1,0-.33.06-.36l3-1.89s.09,0,.2.19.11.25.09.26Z"/><path d="M72.27,36a6,6,0,0,1,.5-.88,5.75,5.75,0,0,1,0,1,20.48,20.48,0,0,0-.38,2.26,21.44,21.44,0,0,0,0,4.82,21.09,21.09,0,0,0,1,4.68c.21.63.43,1.13.58,1.5l.27.58a.24.24,0,0,1-.14.34.25.25,0,0,1-.35-.11l-.27-.59c-.15-.37-.38-.88-.59-1.52a21.57,21.57,0,0,1-1.08-4.81,22,22,0,0,1,0-4.95C72,36.91,72.27,36,72.27,36Z"/><path d="M75.94,37.24a7.39,7.39,0,0,1,.62-1,6.32,6.32,0,0,1-.11,1.13,23.9,23.9,0,0,0-.62,2.53,20.83,20.83,0,0,0-.24,5.48,20.48,20.48,0,0,0,1.19,5.34c.25.71.52,1.27.7,1.68l.33.65a.25.25,0,0,1-.11.38.27.27,0,0,1-.37-.13L77,52.68c-.18-.41-.47-1-.72-1.72a20.94,20.94,0,0,1-1.23-5.48,21.59,21.59,0,0,1,.25-5.64A22.14,22.14,0,0,1,75.94,37.24Z"/><path d="M80.24,38.4a7.66,7.66,0,0,1,.49-1,6.92,6.92,0,0,1,0,1.12c0,.07-.22,1.08-.39,2.58A32.79,32.79,0,0,0,81,52c.16.73.33,1.33.45,1.76l.21.69a.26.26,0,0,1-.18.36.28.28,0,0,1-.34-.2l-.21-.69c-.11-.43-.29-1-.45-1.79a31.59,31.59,0,0,1-.78-5.5A32,32,0,0,1,79.85,41C80,39.49,80.23,38.46,80.24,38.4Z"/><path d="M83.59,39.43a7.09,7.09,0,0,1,.62-.92,5.87,5.87,0,0,1-.11,1.09c0,.06-.34,1-.64,2.45A22.49,22.49,0,0,0,83,47.37a22.2,22.2,0,0,0,.76,5.26c.18.71.39,1.28.52,1.7l.25.66a.25.25,0,0,1-.15.36.26.26,0,0,1-.35-.17l-.25-.66c-.14-.42-.35-1-.54-1.73a23.32,23.32,0,0,1-.78-5.4,23.07,23.07,0,0,1,.48-5.45C83.24,40.46,83.59,39.49,83.59,39.43Z"/><path d="M86.41,40.1a6.14,6.14,0,0,1,.5-.91,5.38,5.38,0,0,1,0,1c0,.06-.23,1-.41,2.35a25.89,25.89,0,0,0-.16,5,25.38,25.38,0,0,0,.8,4.93c.17.67.35,1.21.47,1.6l.22.63a.24.24,0,0,1-.16.34.26.26,0,0,1-.34-.16l-.22-.63c-.13-.39-.32-.94-.49-1.62a26.5,26.5,0,0,1-.82-5A26.16,26.16,0,0,1,86,42.5C86.17,41.1,86.4,40.16,86.41,40.1Z"/><path d="M89.17,41.84a5.27,5.27,0,0,1,.51-.78,4.43,4.43,0,0,1,0,.92A20.79,20.79,0,0,0,89.3,44a17.06,17.06,0,0,0,0,4.4,16.42,16.42,0,0,0,1.17,4.23c.23.56.47,1,.63,1.33l.29.5c.06.11.06.23-.12.34a.24.24,0,0,1-.35-.06l-.29-.52A13.9,13.9,0,0,1,90,52.89a17,17,0,0,1-1.21-4.37,17.4,17.4,0,0,1,0-4.56A19.59,19.59,0,0,1,89.17,41.84Z"/><path d="M92.05,41.73a3.64,3.64,0,0,1,.34-.77,4.29,4.29,0,0,1,.2.81s-.07.78-.08,1.86a25.71,25.71,0,0,0,.23,3.93,26.5,26.5,0,0,0,.77,3.84c.13.52.27,1,.37,1.25l.16.49c0,.11,0,.22-.18.29s-.3,0-.32-.11l-.17-.49c-.1-.31-.24-.75-.38-1.28a28.42,28.42,0,0,1-.79-3.92,28.11,28.11,0,0,1-.23-4C92,42.52,92.05,41.77,92.05,41.73Z"/><path d="M107.93,42.1a3.19,3.19,0,0,1,.22-.68,2.67,2.67,0,0,1,.32.64s0,.68.08,1.61,0,2.16-.08,3.39-.25,2.44-.4,3.35l-.21,1.11-.09.44c0,.09-.1.15-.3.11s-.24-.17-.23-.23l.09-.42.2-1.09a31.11,31.11,0,0,0,.4-3.3c.09-1.21.1-2.43.08-3.35S107.93,42.14,107.93,42.1Z"/><path d="M109.9,41.82a4,4,0,0,1,0-.85,3.88,3.88,0,0,1,.47.72c0,.05.21.81.4,2a24,24,0,0,1,.35,4.16,23.74,23.74,0,0,1-.35,4.15c-.08.57-.19,1-.26,1.37l-.13.53c0,.12-.11.2-.31.15s-.23-.2-.21-.28l.12-.51c.07-.33.17-.78.26-1.33a23.92,23.92,0,0,0,.34-4.07,24.26,24.26,0,0,0-.34-4.09C110.11,42.61,109.9,41.87,109.9,41.82Z"/><path d="M112.87,41.31a4.31,4.31,0,0,1-.05-.89,3.91,3.91,0,0,1,.55.71s.3.81.61,2a24.57,24.57,0,0,1,.7,8.59c-.05.59-.13,1.08-.18,1.43l-.1.56c0,.12-.1.21-.3.17a.25.25,0,0,1-.23-.27L114,53c0-.34.12-.81.17-1.39a23.56,23.56,0,0,0-.68-8.41C113.16,42.1,112.87,41.35,112.87,41.31Z"/><path d="M115.69,40.21a4.6,4.6,0,0,1-.17-.89,4.49,4.49,0,0,1,.65.66,20.52,20.52,0,0,1,.82,2,19.24,19.24,0,0,1,1,4.39,18.52,18.52,0,0,1-.12,4.48c-.08.61-.2,1.11-.28,1.47l-.14.58c0,.12-.12.21-.32.15a.25.25,0,0,1-.2-.29l.14-.55c.07-.35.19-.83.27-1.42a18.43,18.43,0,0,0-.81-8.63C116.08,41,115.7,40.26,115.69,40.21Z"/><path d="M118.91,39.21a5.16,5.16,0,0,1-.21-.89,5,5,0,0,1,.69.64,19.12,19.12,0,0,1,.88,2,15.59,15.59,0,0,1,.92,4.43,14.94,14.94,0,0,1-.38,4.5c-.13.6-.31,1.09-.42,1.45l-.21.56c0,.12-.14.2-.33.12a.25.25,0,0,1-.17-.32l.2-.53a12.12,12.12,0,0,0,.4-1.39,14.6,14.6,0,0,0,.38-4.35,15.08,15.08,0,0,0-.9-4.29A17.14,17.14,0,0,0,118.91,39.21Z"/><path d="M121.66,38.36a4.21,4.21,0,0,1,0-.85,3.92,3.92,0,0,1,.53.68c0,.05.27.78.53,1.89a20.62,20.62,0,0,1,.54,4.12,21.33,21.33,0,0,1-.28,4.12c-.09.56-.2,1-.28,1.36l-.13.53c0,.11-.12.19-.32.13s-.22-.2-.2-.27l.13-.51c.07-.32.18-.77.26-1.31a19,19,0,0,0,.28-4,20.48,20.48,0,0,0-.52-4C121.92,39.12,121.66,38.4,121.66,38.36Z"/><path d="M124.77,37.41a3.66,3.66,0,0,1,.09-.79,3.38,3.38,0,0,1,.43.68s.17.74.3,1.78a22.85,22.85,0,0,1,.13,3.81,21.72,21.72,0,0,1-.54,3.76c-.11.51-.24.92-.32,1.22l-.15.48c0,.11-.12.17-.31.11s-.22-.2-.2-.27l.14-.46c.08-.29.21-.7.32-1.19a21.86,21.86,0,0,0,.52-3.67,20.78,20.78,0,0,0-.13-3.72C124.92,38.13,124.77,37.45,124.77,37.41Z"/><path d="M127.76,36.43a2.44,2.44,0,0,1,.09-.64,2.53,2.53,0,0,1,.43.49s.17.58.31,1.4a13.72,13.72,0,0,1-.28,6c-.11.4-.22.73-.3,1l-.14.38c0,.08-.11.12-.3,0s-.22-.19-.2-.24l.13-.35c.07-.22.19-.54.29-.92a13.62,13.62,0,0,0,.45-2.86,13,13,0,0,0-.18-2.9C127.92,37,127.76,36.46,127.76,36.43Z"/></svg>