<svg id="illustration" xmlns="http://www.w3.org/2000/svg" viewBox="0 0 198.43 140.5"><defs><style>.cls-1{fill:#ee2c24;}.cls-2{fill:#fab074;}.cls-3{fill:#1885c8;}.cls-4{fill:#fff;}.cls-5{fill:#b82025;}.cls-6{fill:#fbaf5e;}.cls-7{fill:#ce2527;}.cls-8{fill:#ffd107;}.cls-9{fill:#118e9b;}.cls-10{fill:#003b45;}.cls-11{fill:#726f63;}.cls-12{fill:#49483f;}.cls-13{fill:#370d17;}.cls-14{fill:#471422;}.cls-15{fill:#810b00;}.cls-16{fill:#8d6440;}.cls-17{fill:#adafb2;}.cls-18{fill:#010101;}</style></defs><path class="cls-1" d="M80,71l8,3.06,2.4,1.63,6.41,2.64,6.37,2.47,3,.73,2.4-.19,2.1-1.17,1.11-1.57,1.1-1.72,1.21-1,1.65-.45.57.36.9,1.09,2.4,2.77,3.69,4.88,4.89,8.32,1.51,3.25a11,11,0,0,1,1,3.18c0,1,.75,2.77-.22,3.72a13.66,13.66,0,0,0-1.84,2.45l-2.24,5.19-1.66.43-2.91.11-2.73-.69-2.12-.89-.55-.26.11-2.52,1.55-3.62,2.11-3.2L117,96.49l-5.18-3.17-3.87-3.2-5.66-3.88-2.18-1.17-3-.88-3.59.65-2.69,1.31-4.14,5.07L70.26,97.36l-1.2-1.29-1.26-2.5L64.6,85.9l-1.25-3.4-.85-2.43-1-.8,0-.75,2.4.3,3.52-.2L70,78.13l2.17,4.28.91,2.24,2.27-4.14,1.84-3.71,2-3.89L80,71"/><path class="cls-2" d="M99.86,28.17l.13,1.22,1.64.86,2.26.7,3.66.86a18.41,18.41,0,0,0,2.27-.2l2-1.35,1.87-1.81,1.58-2.66.27-2.46V19.26l-.44-2.4-2.69.66-5-.73-4.11-1.6-1.59-1.08Z"/><path class="cls-1" d="M115.14,16.86s.48-9.46-10.94-12S90.39,15.51,91.51,18.54s2,5.29,2,5.29l-.39.11-.12.72.63.4h1.27l2.52,1,4.4.78-.19-7.9.13-4.78,1.59,1.08,2.33,1.13,3.82.77,2.59.28Z"/><polygon class="cls-3" points="93.66 25.06 94.93 25.06 96.63 25.91 99.22 26.47 101.21 26.79 103.1 26.79 104.07 26.89 103.94 28.33 103.46 29.35 101.69 29.35 99.56 28.71 97.86 28.17 95.68 27.61 94.4 27.21 93.21 26.36 93.66 25.06"/><polygon class="cls-2" points="96.37 27.86 96.57 30.53 97.78 31.57 99.22 33.01 100.83 35.05 101.99 35.79 103.56 36.71 105.5 36.66 106.64 35.32 106.44 34.47 106.33 33.27 106.46 32.2 106.54 31.57 101.63 30.25 99.99 29.39 99.56 28.71 96.37 27.86"/><path class="cls-4" d="M95.05,31.44H93.21l-1.88-.61L88.8,29.72H86.94l-1.36.55-1,2-1,3.27L82,38.17l-1.3,3.21-.86,3.94-.63,3.17-.4,2.44,1.89,1.19,3.85,1.76.5.43.43,4.25.14,3.74-.8,2.29L83.3,66.47l-1.47,1.65L80.66,69l-1.38.9-.1.7,2.51,1.06,3.69,1.43,3.19,1.24,2.14,1.44,3.89,1.66,5.1,2.19,4.43,1.56,2.46.48,3-.71,1.54-1.27,1-1,.36-1.21,1.2-1.28,1.07-.7s.61.66,1,.34,1.16.65,1.16.65l1.24-1-.14-1.13-.91-.5H115.5l-.18-1.7-.81-2.62-1-2-2.36-5-.87-2.49V58.07l.87-1.72,5,3.29,1,.71,2,1,5.91,3.66-.18,1.09.36,0,1.18-.48.45-1.77,1-1.24L129,61.52l1.36-.47,1-.61.52-1.92-.64-.15-1.58-.84-1.84-.74-1.91-1.11-1.18-.45-.84-.92L122.73,54l-2.55-1-1.84-1.43.37-1.76.67-2.61.48-3.22v-2.2L117.59,39l-1.32-.82-3.43-.48-2.36-.39-3-1.43L106,37.65l-1.27-.06-4.13-1.8L97.12,33Z"/><path class="cls-3" d="M96.1,30.47a3.59,3.59,0,0,0-.47,1.28l.8,1.14,2.22,1.7,2.6,2,3.93,1.59,1.67-.36,1-1.91-.56-.72-1.27.74-1.24.66h-1.22L102,35.66l-1.16-.73-1.56-1.5-1.49-2-1.21-1Z"/><path class="cls-1" d="M91.33,30.83l-1.89-1.48-2-.55L85,29l-1.77,1.12-1,1.35-.16,1.75.12,1.86.08,1.24L82,38.17a48.34,48.34,0,0,0,5.55-3.4A37.93,37.93,0,0,0,91.33,30.83Z"/><path class="cls-1" d="M114.2,37.32c.16-.06,2.29.08,2.29.08l2.43.73,1.63,1.66.8,2.23v1.7l-.47,1.93-.89,2-.8,1a5,5,0,0,0-.27-1.41,37.81,37.81,0,0,1-2.4-4.84A52.51,52.51,0,0,0,114.2,37.32Z"/><polygon class="cls-3" points="79.8 43.31 79.22 43.66 78.77 45.87 78.03 48.94 77.69 50.8 78.1 52.55 79.22 53.55 80.31 53.98 81.97 54.17 83.65 53.9 84.12 53.68 81.04 52.3 79.41 51.26 78.89 50.2 79.25 48.11 79.8 45.87 80.42 43.31 79.8 43.31"/><path class="cls-3" d="M100.83,44.8a44.22,44.22,0,0,0-5.64-.12.67.67,0,0,0-.66.66c0,1.06-.26,2.55.44,3.42a.3.3,0,0,0,.48-.06c.48-.89.18-2.18.37-3.19l-.63.49a9.48,9.48,0,0,0,5.68-.88c.12-.07.12-.3,0-.32Z"/><path class="cls-3" d="M96.08,45.67a6.75,6.75,0,0,0,2.29.16,11.34,11.34,0,0,0,2.33-.1c.3-.06.32-.57,0-.62a11.34,11.34,0,0,0-2.33,0,7,7,0,0,0-2.29.28.14.14,0,0,0,0,.27Z"/><path class="cls-3" d="M110.88,44.89c-1.34.21-2.69.44-4,.64-.92.14-.55,1.64.4,1.43a9.87,9.87,0,0,0,3.81-1.67.22.22,0,0,0-.17-.4Z"/><path class="cls-3" d="M106.42,46.47a6,6,0,0,0,.09,2.19,22.11,22.11,0,0,0,.41,2.69.51.51,0,0,0,1-.13,19,19,0,0,0-.34-2.48,7,7,0,0,0-.58-2.35.32.32,0,0,0-.57.08Z"/><path class="cls-3" d="M107.5,51.65a3.21,3.21,0,0,0,2-.33,14.86,14.86,0,0,0,2.26-.92.62.62,0,0,0-.47-1.12,15.22,15.22,0,0,0-2.25.93,3.2,3.2,0,0,0-1.68,1.19.18.18,0,0,0,.11.25Z"/><path class="cls-3" d="M111.65,50a3.33,3.33,0,0,0,.11-2.31c-.13-.77-.21-1.87-1-2.28a.58.58,0,0,0-.77.21c-.37.75.08,1.55.31,2.31a4.27,4.27,0,0,0,1,2.12.22.22,0,0,0,.34-.05Z"/><path class="cls-3" d="M110,46a28.54,28.54,0,0,0,.52,3.56c.22,1,.31,2.28,1.08,3a.5.5,0,0,0,.83-.22,6.87,6.87,0,0,0-.5-3c-.29-1.18-.55-2.38-.81-3.56-.14-.62-1.17-.5-1.12.15Z"/><path class="cls-3" d="M110.6,49.87a14.69,14.69,0,0,1-3.36.72l.89.5a52.13,52.13,0,0,1-1.29-5.1c-.2-1-1.61-.54-1.48.41a21.34,21.34,0,0,0,1.37,5.08.75.75,0,0,0,.89.5,9.77,9.77,0,0,0,3.23-1.52c.29-.19.1-.74-.25-.59Z"/><path class="cls-3" d="M105.65,46.38a3,3,0,0,0,2.18.24,24.1,24.1,0,0,0,2.54-.45.64.64,0,0,0,.46-.47.55.55,0,0,0-.06-.51.7.7,0,0,0-.75-.3c-.87.19-1.73.36-2.61.48a3.09,3.09,0,0,0-1.81.6.26.26,0,0,0,.05.41Z"/><path class="cls-3" d="M110.43,45.43c-.4.84,0,1.94.22,2.81s.34,2.4,1.14,3a.43.43,0,0,0,.71-.19c.25-.94-.38-2-.65-3s-.36-2.12-1.07-2.74a.22.22,0,0,0-.35,0Z"/><path class="cls-3" d="M110.42,45.38a4.77,4.77,0,0,0,.22,2.42c.24,1,.45,2,.69,2.93s1.51.51,1.36-.37a26.57,26.57,0,0,0-.7-2.93,4.14,4.14,0,0,0-1.15-2.16.25.25,0,0,0-.42.11Z"/><path class="cls-5" d="M105.45,45.83a15.19,15.19,0,0,0,2.43-.16,5.53,5.53,0,0,1,2.52-.08c.64.27.57.32.77.94l.41,1.29.82,2.58c.16.51,1,.29.81-.23l-1.11-3.61c-.2-.63-.31-1.61-.95-2a2.82,2.82,0,0,0-1.77,0,22.57,22.57,0,0,0-4,.85.19.19,0,0,0,0,.37Z"/><path class="cls-5" d="M107.07,52.22a2.51,2.51,0,0,0,1.53-.06,13.64,13.64,0,0,0,2.2-.56c.35-.14.34-.76-.09-.71a14.32,14.32,0,0,0-2,.46,3,3,0,0,0-1.62.71s0,.13,0,.16Z"/><path class="cls-5" d="M110.34,51.29a7.32,7.32,0,0,0,1.08,2.38c.28.46.91.06.71-.41A7.35,7.35,0,0,0,110.8,51a.28.28,0,0,0-.46.27Z"/><path class="cls-5" d="M107.15,52.05a27.27,27.27,0,0,0-1.35-4c-.14-.37-.72-.22-.6.17a27.37,27.37,0,0,0,1.42,4.05c.16.31.59.08.53-.22Z"/><path class="cls-5" d="M100.57,44.69a6.56,6.56,0,0,0-2.76-.07,12.69,12.69,0,0,0-3.26,0,.28.28,0,0,0-.07.51,6.36,6.36,0,0,0,3.33.3c.9-.06,2.09,0,2.77-.67a.06.06,0,0,0,0-.09Z"/><path class="cls-5" d="M94.16,45a6.45,6.45,0,0,0-.09,1.7c0,.47-.1,1,.25,1.37a.25.25,0,0,0,.36,0c.33-.4.18-.88.14-1.37a6.46,6.46,0,0,0-.24-1.7.22.22,0,0,0-.42,0Z"/><path class="cls-5" d="M99.57,45c.41-.08.81.22,1.16,0a.2.2,0,0,0,.09-.22l0-.09a.33.33,0,0,0-.31-.24,1.41,1.41,0,0,0-1,.3.14.14,0,0,0,.1.25Z"/><path class="cls-5" d="M107.14,47.27a13.47,13.47,0,0,0,.54,1.88,2.17,2.17,0,0,0,.51,1c.75.66,1.47-.25,2.23-.31a.29.29,0,0,0,.25-.43,9.71,9.71,0,0,1-.57-1.56c-.13-.48-.15-1-.3-1.46a.27.27,0,0,0-.52.07,7.33,7.33,0,0,0,.9,3.24l.24-.43c-.65,0-1.61.94-2,.15s-.48-1.59-.83-2.32c-.12-.25-.46-.07-.42.17Z"/><path class="cls-5" d="M107.45,47.49a6.32,6.32,0,0,0,1-.21,2.74,2.74,0,0,0,.94-.31.3.3,0,0,0-.15-.55,2.93,2.93,0,0,0-1,.23,7.92,7.92,0,0,0-.93.33c-.23.12-.13.54.14.51Z"/><path class="cls-5" d="M109.3,46.63a5.41,5.41,0,0,0,.31,1.53,2.71,2.71,0,0,0,.54,1.32.25.25,0,0,0,.42-.11,2.85,2.85,0,0,0-.27-1.4,5.43,5.43,0,0,0-.58-1.46.23.23,0,0,0-.42.12Z"/><path class="cls-5" d="M107.55,49.36a4.71,4.71,0,0,0,.33,1c.12.27.56.08.47-.19a5.78,5.78,0,0,0-.39-1c-.12-.23-.47-.06-.41.18Z"/><path class="cls-5" d="M108.12,50.41a1.22,1.22,0,0,0,.79-.24.18.18,0,0,0-.13-.3,1.11,1.11,0,0,0-.73.32c-.08.06-.07.23.07.22Z"/><path class="cls-5" d="M108.09,49.59a2.7,2.7,0,0,0-.1-1.09c-.09-.45-.18-.91-.28-1.36s-.65-.22-.58.15.19.85.29,1.27a2.7,2.7,0,0,0,.35,1.08.18.18,0,0,0,.32,0Z"/><path class="cls-5" d="M95.58,46.54c0,.66.15,1.33.17,2a.39.39,0,0,0,.18.31.32.32,0,0,0,.37,0,.36.36,0,0,0,.19-.31,4,4,0,0,0-.38-2.13.29.29,0,0,0-.53.14Z"/><path class="cls-5" d="M96.08,46.58a4.22,4.22,0,0,0,1.46,0,15.34,15.34,0,0,1,1.66,0c.47,0,.45-.68,0-.72-.91-.08-2.45-.14-3.18.51a.13.13,0,0,0,.06.22Z"/><path class="cls-5" d="M99,46.22a21,21,0,0,0,.44,4.08c0,.4.69.4.64,0a22,22,0,0,0-.65-4.14.22.22,0,0,0-.43.06Z"/><path class="cls-5" d="M99.78,50.13a1.56,1.56,0,0,0-1-.42c-.55,0-.69.9-.13,1a1.52,1.52,0,0,0,1.08-.2.23.23,0,0,0,0-.36Z"/><path class="cls-3" d="M95.84,46.33a2.72,2.72,0,0,0,.79-.21c.18-.08.08-.35-.1-.35a3.14,3.14,0,0,0-.8.15.21.21,0,0,0,.11.41Z"/><path class="cls-3" d="M100.12,46.25a0,0,0,0,0,0-.08,0,0,0,1,0,0,.08Z"/><path class="cls-3" d="M99.83,46.11a6.22,6.22,0,0,0,.1,2.35,7.82,7.82,0,0,0,.55,2.63.26.26,0,0,0,.46-.06,7,7,0,0,0-.22-2.4,6.73,6.73,0,0,0-.66-2.55.13.13,0,0,0-.23,0Z"/><path class="cls-3" d="M100,51.18a.79.79,0,0,0,.45-.11c.22-.13.21-.56-.08-.6a.72.72,0,0,0-.46,0c-.34.14-.33.68.09.68Z"/><path class="cls-3" d="M100.54,49.64a12.44,12.44,0,0,0-.1,1.36,3.88,3.88,0,0,0,.08,1.36.27.27,0,0,0,.52,0,3.88,3.88,0,0,0,.08-1.36,10.37,10.37,0,0,0-.1-1.36.25.25,0,0,0-.48,0Z"/><path class="cls-6" d="M101.5,49.71l-.3,6.55,3,53.09a3.24,3.24,0,0,1-1.59,2.78c-1.6.79-18.32-1.57-18.32-1.57l-7-.86-.4,2.59,0,6.84L77.7,121l2.92.67,1-.09,2.62-.28,1.39-.21L92,119.56l14.33-4.73-.54-23.21-.25-13.08-.44-16.05.19-13.39-1.66.38-2.22-.09Z"/><path class="cls-3" d="M100.11,47a1.51,1.51,0,0,0,.19-1.33.24.24,0,0,0-.33-.08c-.5.24-.42,1.17,0,1.44a.07.07,0,0,0,.1,0Z"/><path class="cls-3" d="M100.51,45.91a3.61,3.61,0,0,1-.57-.11.48.48,0,0,0-.71.47.48.48,0,0,0,.81.28s.42-.19.52-.24.12-.36,0-.4Z"/><path class="cls-3" d="M99.35,46a3.67,3.67,0,0,0,.1,1.19.48.48,0,0,0,.44.34.36.36,0,0,0,.24-.07.47.47,0,0,0,.21-.52,3.69,3.69,0,0,0-.55-1.06.24.24,0,0,0-.44.12Z"/><path class="cls-3" d="M95.39,48.34l.09.17c.15.29.58,0,.44-.26l-.08-.17c-.14-.3-.61,0-.45.26Z"/><path class="cls-3" d="M89.07,63.35a26.74,26.74,0,0,0,.41,4.82.47.47,0,0,0,.91-.13A25.56,25.56,0,0,0,90,63.35c-.07-.59-1-.62-1,0Z"/><path class="cls-3" d="M89.52,66.41a2.74,2.74,0,0,0,1.53.08c.52-.06,1.13,0,1.5-.44a.62.62,0,0,0-.13-1c-.48-.31-1-.1-1.57,0a2.8,2.8,0,0,0-1.44.5.53.53,0,0,0,.11.83Z"/><path class="cls-3" d="M91.59,63.52a10.88,10.88,0,0,0-.23,2.67,5,5,0,0,0,.44,2.46.55.55,0,0,0,1-.13A6.86,6.86,0,0,0,92.7,66c-.07-.85-.21-1.65-.36-2.49a.39.39,0,0,0-.75,0Z"/><path class="cls-3" d="M95.2,65.17h0a.36.36,0,0,0-.43,0,1.9,1.9,0,0,0-.39,2.35,1.69,1.69,0,0,0,2.39.52,1.91,1.91,0,0,0,.6-2.44,2.18,2.18,0,0,0-2.5-1.15c-.75.19-.52,1.2.17,1.27.43,0,1,.15,1.12.63.08.29-.09.68-.45.63s-.52-.71-.45-1.06.23-.63,0-.79Z"/><path class="cls-3" d="M100.54,65.47c-.23-.53-1-.53-1.47-.32a1.78,1.78,0,0,0-1,1.57,2.79,2.79,0,0,0,3,2.5.66.66,0,0,0,.61-.47.88.88,0,0,0,0-.17.66.66,0,0,0-.46-.61c-.63-.25-1.56-.28-1.73-1.11-.12-.6.53-.66.87-.87a.4.4,0,0,0,.13-.52Z"/><path class="cls-3" d="M105.65,66.07c-.3.54.08,1.23.33,1.73a10.09,10.09,0,0,0,1.13,2c.4.49,1.17,0,1-.59a10.76,10.76,0,0,0-1-2.07c-.28-.49-.62-1.13-1.23-1.19a.27.27,0,0,0-.23.12Z"/><path class="cls-3" d="M107.09,68c.38-.44,1-1,.71-1.58a.3.3,0,0,0-.28-.16c-.68,0-.84.85-1,1.39-.13.33.37.61.6.35Z"/><path class="cls-3" d="M106.88,67.72c.13.53.65.81,1.08,1.09a8.1,8.1,0,0,0,1.61.81.47.47,0,0,0,.45-.77,7.14,7.14,0,0,0-1.45-1.07,2,2,0,0,0-1.46-.46.33.33,0,0,0-.23.4Z"/><path class="cls-3" d="M109.62,65.83a4.47,4.47,0,0,0,1,1.62c.27.36.87,0,.61-.35a4.74,4.74,0,0,0-1.3-1.47.18.18,0,0,0-.27.2Z"/><path class="cls-3" d="M109.71,66c.18-.13.35-.25.53-.36.54-.33-.1-1.11-.51-.67-.14.17-.3.31-.45.46s.1.81.43.57Z"/><path class="cls-3" d="M110.43,66.63c.13-.07.31-.13.45-.19.43-.18,0-.91-.43-.56l-.31.26a.28.28,0,0,0,.29.49Z"/><path class="cls-3" d="M110.87,67.94a1.67,1.67,0,0,0,.87-.21c.46-.25.05-.92-.41-.71a1.53,1.53,0,0,0-.66.57.23.23,0,0,0,.2.35Z"/><path class="cls-3" d="M110.8,65.35a3,3,0,0,0,1.15.38c.35,0,.61-.5.31-.75a3,3,0,0,0-1.11-.46c-.48-.14-.83.63-.35.83Z"/><path class="cls-3" d="M100.37,52.69a3.56,3.56,0,0,0-.84,3.4,14,14,0,0,0,.79,2.53c.34.94.49,2,.87,2.88a.42.42,0,0,0,.79,0c.52-1.25-.09-2.57-.54-3.77a8.34,8.34,0,0,1-.66-4.8.25.25,0,0,0-.41-.24Z"/><path class="cls-3" d="M102.17,61.6c.72-2.33-.08-7.11,2.44-8.47a.63.63,0,0,0-.49-1.15c-1.6.51-2.05,2-2.37,3.51-.39,1.93-.74,4.24,0,6.11a.23.23,0,0,0,.44,0Z"/><path class="cls-3" d="M104.12,52.23a2.12,2.12,0,0,0-1.47,0,2.84,2.84,0,0,0-1.26,1.19c-.55.91-1.11,3-.43,3.88a.6.6,0,0,0,1,0c.53-.7.25-1.81.53-2.64a3.52,3.52,0,0,1,1.62-1.88c.23-.08.27-.46,0-.52Z"/><path class="cls-3" d="M101.84,56.65a3.3,3.3,0,0,1,1.06-3.38.7.7,0,0,0-.84-1.09c-.6.33-1.24.32-1.84.61a.62.62,0,0,0,.15,1.12,3.6,3.6,0,0,0,2.39-.53l-.7-1.2a3.37,3.37,0,0,0-1.56,2.23A3.14,3.14,0,0,0,101,57c.25.43,1,.15.83-.35Z"/><path class="cls-7" d="M105,53.07c-3.29,1.23-2.24,6.21-2.83,8.82-.09.41.51.72.71.3,1.45-2.89.34-6.11,2.34-8.83a.2.2,0,0,0-.22-.29Z"/><path class="cls-7" d="M102.56,61.88c1.15,1,2.52-.55,2.76-1.68s-.23-2.48-.1-3.72c.11-1,.83-1.8.35-2.79a.41.41,0,0,0-.77.21,8.83,8.83,0,0,1-.37,2,7.26,7.26,0,0,0,0,1.68,6.52,6.52,0,0,1,0,2.49c-.33,1.08-1,1.27-1.86,1.68a.11.11,0,0,0,0,.18Z"/><path class="cls-7" d="M104.85,54a9.06,9.06,0,0,1,.26,1.86c0,.57-.34,1.09-.22,1.65a.44.44,0,0,0,.65.26,2.33,2.33,0,0,0,.67-2,3.27,3.27,0,0,0-.71-2.12c-.29-.32-.7,0-.65.37Z"/><path class="cls-7" d="M105.82,56.46a4.56,4.56,0,0,0-.43-2.18.6.6,0,0,0-1.08.14c-.33,2.07-1,4.37-.9,6.48a.65.65,0,0,0,1.27.17c.69-2,.58-4.4.79-6.49l-1.1.3a2.71,2.71,0,0,1,.51,1.58.47.47,0,0,0,.94,0Z"/><path class="cls-7" d="M105.5,60a5.8,5.8,0,0,0,.67-2c.07-.56.12-1.31-.41-1.65a.3.3,0,0,0-.35,0c-.4.35-.33,1-.35,1.49,0,.66,0,1.31-.06,2a.27.27,0,0,0,.5.14Z"/><path class="cls-7" d="M105.13,53.77a1.91,1.91,0,0,0,0,1.39.5.5,0,0,0,1-.26,1.9,1.9,0,0,0-.74-1.19.2.2,0,0,0-.27.06Z"/><path class="cls-7" d="M105.11,54.25a.62.62,0,0,0,.49.5.39.39,0,0,0,.48-.48.63.63,0,0,0-.49-.5.4.4,0,0,0-.48.48Z"/><path class="cls-7" d="M103.48,61.74l.17,0a.5.5,0,1,0,.13-1h-.17a.49.49,0,0,0-.13,1Z"/><path class="cls-7" d="M134.68,62.47c-.44-3.82-7.35.6-7,3.31a2.15,2.15,0,0,0,3.06,1.49,6,6,0,0,0,2.18-2,9.68,9.68,0,0,0,1.74-2.73.54.54,0,0,0-.89-.52,37.51,37.51,0,0,1-3.7,3.31c-.43.37.25-.21.35-.28l.89-.65c.65-.48,1.31-1,1.95-1.44s0-1.69-.68-1.17c-1.09.82-2.26,1.61-3.29,2.52-.58.51-1.09,1.36-.41,2a1.41,1.41,0,0,0,1.89-.1c1.32-1,2.31-2.41,3.64-3.38l-.73-.73c-.59,1-2.45,4.55-4,4.13s.31-2.25.86-2.7c.75-.6,2.77-2.15,3.57-.93.17.26.7.19.66-.18Z"/><path class="cls-7" d="M131.85,61.22c-.33,0-.46-.14-.79,0a2.37,2.37,0,0,0-.73.48,3.47,3.47,0,0,0-.94,1.47.6.6,0,0,0,.16.61l0,.05a.5.5,0,0,0,.48.13c.54-.13.61-.79.91-1.19a4.18,4.18,0,0,1,.5-.53,2.76,2.76,0,0,0,.3-.29c.09-.11.11-.28.2-.37a.2.2,0,0,0-.14-.34Z"/><path class="cls-3" d="M132.22,59.23a4,4,0,0,0-.54,1.16c-.1.29.39.51.51.21a3.86,3.86,0,0,0,.39-1.22c0-.17-.25-.29-.36-.15Z"/><path class="cls-3" d="M132.79,59.7a.62.62,0,0,1,.48-.05c.18.08.28.38,0,.5h.41a2.06,2.06,0,0,0-1.18-.41.5.5,0,0,0-.25.92,1.67,1.67,0,0,0,1.47.15,1.18,1.18,0,0,0,.4-1.06.92.92,0,0,0-1.68-.35.22.22,0,0,0,.3.3Z"/><path class="cls-3" d="M133,60.17l.32.11a.36.36,0,0,0,.4-.16.24.24,0,0,0,0-.27.38.38,0,0,0-.34-.26H133a.29.29,0,0,0-.08.57Z"/><path class="cls-3" d="M133.17,59.8c-.43-.75-1.75-.1-1.51.69a.41.41,0,0,0,.59.24c.19-.12.25-.28.41-.42a1.89,1.89,0,0,1,.45-.28.18.18,0,0,0,.06-.23Z"/><path class="cls-3" d="M127.39,64.82a14.78,14.78,0,0,1,1.52-2.08,19.06,19.06,0,0,0,1.5-1.62.14.14,0,0,0-.16-.2c-1.47.53-2.66,2.29-3.34,3.62a.28.28,0,0,0,.48.28Z"/><path class="cls-3" d="M131.07,61a4.14,4.14,0,0,0,1.27-.61c.17-.13,0-.39-.2-.34a3.94,3.94,0,0,0-1.2.63c-.15.11-.06.38.13.32Z"/><path class="cls-8" d="M78.9,79.93a46.78,46.78,0,0,0-5.78,8.54c-1.23,2.14-3.27,4.85-2.83,7.49a5,5,0,0,0,4,3.88c2.51.38,4.46-1.24,6-3,3.25-3.59,11.16-7.73,8.35-13.62-1.67-3.5-7.16-6.15-10.36-3.13-.33.32.17.81.5.51,3.94-3.59,11.65,3.26,9,7.59-1,1.63-2.77,2.88-4.11,4.2a31.69,31.69,0,0,1-4.86,4.32C77,97.92,74.91,99,73,97.36c-2.47-2-.89-5,.3-7.18,1.83-3.41,4.16-6.57,5.9-10,.1-.18-.14-.39-.29-.23Z"/><path class="cls-8" d="M88.44,83.37a9.88,9.88,0,0,1,.5,2.23A5.64,5.64,0,0,1,88.29,88c-.17.38.31.87.64.49,1.15-1.33,1.37-4.11-.05-5.35a.27.27,0,0,0-.44.26Z"/><path class="cls-8" d="M113.74,82.43a3.19,3.19,0,0,0-2.36,3.43c.1,2.53,2.42,4.52,4,6.25,2.6,2.87,5.2,5.75,7.83,8.6,1.31,1.42,3.1,4,5.41,3.3,1.61-.5,1.78-2,1.31-3.41-1.07-3.24-3.1-6.42-4.61-9.49-2.25-4.6-5.29-10.31-11.33-9.4-.38.06-.22.65.16.59,5.17-.83,8.24,3.83,10.19,7.86.82,1.7,1.62,3.43,2.43,5.15.42.87.84,1.75,1.25,2.63s.7,1.51,1,2.28c.65,1.18.22,1.71-1.29,1.6-1.85.55-1.65.38-2.77-.82l-2.3-2.5-4-4.25c-2-2.17-9.91-8.67-4.76-11.34.27-.14.08-.55-.2-.48Z"/><path class="cls-8" d="M119.52,83.15a3.81,3.81,0,0,1,1.21.68c.26.23.44.61.77.75a.14.14,0,0,0,.22-.12c0-.44-.46-.81-.78-1.06a3.41,3.41,0,0,0-1.31-.64.2.2,0,0,0-.11.39Z"/><path class="cls-8" d="M112.93,83.3c.43-.13.74-.55,1.14-.77a7.13,7.13,0,0,0,1.27-.54c.12-.1,0-.28-.09-.33a2.07,2.07,0,0,0-1.46.4c-.39.24-1,.59-1,1.06a.15.15,0,0,0,.18.18Z"/><path class="cls-8" d="M113.25,83.44a2.54,2.54,0,0,1,1.24-.88,6,6,0,0,1,1.33-.15c.17,0,.28-.26.09-.35-1.07-.52-2.41.29-3,1.16-.16.23.21.43.37.22Z"/><path class="cls-9" d="M80.48,79.94c-1.45.2-2.21,2-2.88,3.19-1.11,1.85-2.24,3.7-3.37,5.54-.3.49.47.94.77.45q1.53-2.49,3.07-5c.79-1.27,2.18-2.62,2.6-4,0-.13-.08-.2-.19-.19Z"/><path class="cls-9" d="M74.49,88.77C72.81,90.63,71,93.38,72.17,96a3.28,3.28,0,0,0,4.34,1.66c2.67-1,5.21-3.5,7.35-5.35s4-3.65,4.13-6.63c0-.38-.57-.38-.59,0-.16,3.62-4.21,6.22-6.81,8.26-1.12.87-2.64,2.42-4,2.87-5.31,1.73-4.28-3.66-3.19-5.56.43-.75,1-1.44,1.48-2.16.16-.22-.19-.49-.37-.29Z"/><path class="cls-9" d="M87.65,87.89c1.72-.7.06-5.68-1.48-5.91a.47.47,0,0,0-.57.57c.14.48.36.57.71.92a3.68,3.68,0,0,1,1,1.63c.2.81-.29,2.06.19,2.71a.18.18,0,0,0,.2.08Z"/><path class="cls-9" d="M86.06,82.3c-1.09-2.19-3.6-2.58-5.83-2.22-.69.11-.4,1.16.29,1,1.83-.29,3.52.76,5,1.72.36.23.71-.21.54-.55Z"/><path class="cls-9" d="M79.34,81a3.2,3.2,0,0,1,4.07-.1c.3.24.73-.17.43-.43a3.32,3.32,0,0,0-4.72.24c-.12.15,0,.42.22.29Z"/><path class="cls-9" d="M74.43,88.76a6.48,6.48,0,0,0-1.89,4.75c-.06,1.19-.09,3.17,1.37,3.5.46.11,1-.44.69-.9-1.68-2.17-.28-4.79.27-7.09a.27.27,0,0,0-.44-.26Z"/><path class="cls-9" d="M75.53,96.6C74.21,91.44,79.3,86.24,81.64,82c.47-.86-.68-1.82-1.38-1.07-2.4,2.59-4.17,6.16-5.74,9.3-1.1,2.18-1.88,5,.06,6.92a.57.57,0,0,0,1-.55Z"/><path class="cls-9" d="M74.62,90.92a6,6,0,0,1,1-1c.34-.28.65-.62,1-.93.81-.77-.53-2-1.2-1.2a5.9,5.9,0,0,0-.9,1.37c-.2.47-.39,1-.59,1.43s.5.65.76.32Z"/><path class="cls-10" d="M74.18,96.87l-.3.14s0,.06,0,0l.31-.12a0,0,0,1,0,0-.07Z"/><path class="cls-9" d="M73.71,97.45c.41.35,1.28.59,1.5-.11a.26.26,0,0,0-.12-.3c-.24-.12-.55-.05-.76-.21-.44-.35-1.06.25-.62.62Z"/><path class="cls-9" d="M75.71,97.4A15.39,15.39,0,0,0,79,95.7c.73-.52,2.17-1.28,2-2.3a.49.49,0,0,0-.36-.47c-1-.18-1.69.84-2.41,1.4a32.75,32.75,0,0,1-3,2.1c-.5.3-.17,1.21.41,1Z"/><path class="cls-9" d="M80.4,93.7a10.92,10.92,0,0,0,6.86-6.53c1.18-3.6-2.36-5.32-5.3-5.84-1.2-.21-1.71,1.62-.51,1.83,1,.17,3,.35,3.62,1.24,1.22,1.65.21,3.25-.84,4.58a32.62,32.62,0,0,1-4.27,4,.46.46,0,0,0,.44.77Z"/><path class="cls-9" d="M81.79,82.38c.61.15,1.1.37,1.62-.08a.64.64,0,0,0,.17-.64c-.22-.64-.76-.71-1.35-.87a.83.83,0,0,0-.44,1.59Z"/><path class="cls-9" d="M81,83.82c1,.7,2.65,1.3,2.77,2.69.09,1-2,2.91-2.7,3.62a30.66,30.66,0,0,1-5.47,4.43l1.29,1A51.77,51.77,0,0,1,82.19,84.3a.87.87,0,0,0-1.51-.88,82.78,82.78,0,0,0-5.52,11.66c-.3.73.68,1.37,1.28,1,3.14-1.92,7.2-4.79,8.8-8.22A3.48,3.48,0,0,0,81.07,83a.48.48,0,0,0-.11.87Z"/><path class="cls-9" d="M81.08,84c-4.34,2.48-6.28,7.88-6.64,12.62,0,.57.54.84,1,.77l.46-.07c1-.14.58-1.68-.43-1.53L75,95.8l1,.77c.38-4.87,2.75-8.38,5.35-12.32a.22.22,0,0,0-.3-.3Z"/><path class="cls-9" d="M77.52,94.37c1.9-.93,2.76-2.53,4-4.2a16.19,16.19,0,0,1,2.79-2.58,1.86,1.86,0,0,0,.69-2c-.46-1.51-2.37-1.31-3.28-.42a13.94,13.94,0,0,0-1.91,3,26,26,0,0,0-2.09,3.84.79.79,0,0,0,1.31.76,27.11,27.11,0,0,0,2.47-4,22.41,22.41,0,0,0,1.19-2c-.12-.12-1,.78-1.09.82-1.85,1.83-2.62,4.45-4.36,6.35a.27.27,0,0,0,.33.42Z"/><path class="cls-9" d="M77.93,92.83c2.07-2.22,4.87-5.36,5.28-8.46a.68.68,0,0,0-1.14-.47A21.41,21.41,0,0,0,80,88.08c-.74,1.53-1.54,3-2.4,4.49a.21.21,0,0,0,.33.26Z"/><path class="cls-9" d="M113.67,83.06c-1,.24-1.24,1.52-1.15,2.42a5.65,5.65,0,0,0,1.69,3.36.66.66,0,0,0,1-.8A11.31,11.31,0,0,1,114,85.52c-.12-.72.25-1.33.22-2a.45.45,0,0,0-.56-.43Z"/><path class="cls-9" d="M112.7,86.51c.84,3.12,3.85,5.69,6,8l4.49,4.84c.94,1,1.92,2.48,3.18,3.1s2.94.26,2.93-1.36c0-1.13-.93-2.48-1.44-3.41a29,29,0,0,0-2.89-4.31c-.18-.23-.57.07-.4.31.63,1,1.27,1.88,1.85,2.86.35.59,1.69,2.33,1.6,3-.44,3.31-2.63,0-3.17-.53l-2.25-2.43c-3.14-3.37-6.14-7.16-9.5-10.3a.22.22,0,0,0-.37.22Z"/><path class="cls-10" d="M126.52,95.45v-.06c0-.31-.47.07-.12.12h.06s.06,0,.06-.07Z"/><path class="cls-9" d="M126.82,96.44a34.39,34.39,0,0,0-3.94-8.14c-1.3-2.16-2.71-5-5.18-6a3.42,3.42,0,0,0-4,.67c-.95,1.11-.89,3,.66,3.44a.37.37,0,0,0,.45-.45,1.24,1.24,0,0,1,.38-1.44c.13-1,.61-1.21,1.44-.76,1.15,0,1.83.79,2.59,1.51a21.45,21.45,0,0,1,3.18,3.81c1.53,2.41,2.47,5.16,4,7.54a.2.2,0,0,0,.36-.15Z"/><path class="cls-9" d="M115.31,83.93c0,1.23.61,1.65,1.43,2.59,1.33,1.52,2.65,3,3.88,4.62a109.79,109.79,0,0,1,6.25,9.42.86.86,0,0,0,1.49-.87A55.33,55.33,0,0,0,122.17,90q-1.65-2.15-3.46-4.16c-1-1.07-1.63-2.08-3.1-2.16a.29.29,0,0,0-.3.3Z"/><path class="cls-9" d="M127.74,99.29c-.26-2.75-2.19-4.68-4-6.62a18.86,18.86,0,0,1-3.14-4.82,11.07,11.07,0,0,0-2.06-3.32c-.93-.92-3-2.1-4-.55-1.28,2,1.8,5.52,2.94,6.9.69.84,1.88-.36,1.19-1.2A9.42,9.42,0,0,1,116.79,87c-.7-.67-.57-1.28.38-1.84l1,.87c1.16,1.28,1.72,3,2.69,4.38,2.21,3.17,5.34,5.09,6.63,8.92,0,.14.29.13.27,0Z"/><path class="cls-9" d="M114.4,86.59a8.72,8.72,0,0,0,2.91,5.75.78.78,0,0,0,1.1-1.1,30.83,30.83,0,0,1-3.35-4.83.36.36,0,0,0-.66.18Z"/><path class="cls-9" d="M116,87.18a79.81,79.81,0,0,0,5.49,8.41c1.44,1.9,3,4.77,5.25,5.66.34.13.62-.25.55-.55C126.73,98.24,124,96,122.46,94c-1.83-2.44-3.66-4.91-5.37-7.42-.46-.67-1.52-.08-1.1.64Z"/><path class="cls-9" d="M125.06,98.63a17.39,17.39,0,0,0-2.15-6.22,10.55,10.55,0,0,0-1.82-2.29c-.77-.77-1.33-1.74-2.13-2.45a.49.49,0,0,0-.81.22c-.54,1.77,1.42,2.88,2.47,4,1.83,2,2.52,4.79,4.37,6.75a0,0,0,0,0,.07,0Z"/><path class="cls-9" d="M118.09,91.93a4,4,0,0,0,1.27,1.95c.48.5,1.17,1.3,1.93,1.3a.43.43,0,0,0,.41-.54c-.21-.7-1.1-1.17-1.66-1.61a5.59,5.59,0,0,0-1.83-1.22.1.1,0,0,0-.12.12Z"/><path class="cls-9" d="M119.7,92.42l-1.37-1.79a.46.46,0,0,0-.5-.2.54.54,0,0,0-.27.2.45.45,0,0,0,.07.53L119,93c.3.38,1-.14.68-.53Z"/><path class="cls-9" d="M118,91.9a18.3,18.3,0,0,0,1.15,1.48c.33.36.8,1,1.34.93a.29.29,0,0,0,.29-.29c0-.49-.49-.87-.8-1.22a16.86,16.86,0,0,1-1.13-1.4c-.36-.51-1.21,0-.85.5Z"/><polyline class="cls-10" points="70.6 78.35 66.73 66.28 64.98 66.74 63.97 66.56 62.41 65.71 60.7 64.46 59.3 63.23 57.07 62.3 54.78 60.73 54.65 59.47 54.85 58.1 53.55 60.46 53.55 62.44 53.55 64.2 54.98 66.17 55.53 68.04 57.82 71.02 59.03 71.83 60.45 76.19 61.49 78.52 65.61 78.72 70.04 78.13"/><path class="cls-10" d="M116.43,109.35l1.86,1,3.54.88,3.8-.35-4,7.88-.72,1.67s2.42-1,3.76,0,3.6,3,3.6,3l1.07,3.82-.59,2.65-.81-1.36s-1-1.33-1.32-1.29a2.62,2.62,0,0,1-1-.41l-2,.1-1.25.67-3-.81-2.25-.54-2-1.06-1.74-1.28a9.85,9.85,0,0,1-1.33-1c-.24-.31-2-.12-2-.12l1.69-2.91,2.64-6.06,1.38-2.56Z"/><polygon class="cls-8" points="59.03 71.31 60.45 71.25 62.66 70.55 63.25 71.84 59.33 72.75 59.03 71.31"/><polygon class="cls-8" points="60.45 75.06 61.46 75.09 62.99 74.58 63.05 75.45 63.3 76.17 62.07 76.39 61.06 76.64 60.45 75.06"/><polygon class="cls-8" points="54.78 66.25 55.07 65.04 55.39 64.5 55.82 64.67 55.68 65.99 55.79 66.98 55.58 67.82 54.78 66.25"/><path class="cls-8" d="M123.55,114.69c-.1,0-1.54-.48-1.54-.48l-2.28-.39-1.64-.07-1.56.3.5.87,1.58.32,3.22,1,1,.47Z"/><polygon class="cls-8" points="121.83 117.75 118.61 117.11 114.86 117.11 115.24 118 118.61 118.4 121.83 118.73 122.22 117.92 121.83 117.75"/><path class="cls-8" d="M128.76,124.63a7.19,7.19,0,0,0-3.64-2.27,5.69,5.69,0,0,0-3.8.55l-.24,1.6a13.17,13.17,0,0,1,3.84,0,20,20,0,0,1,4.43,1.73Z"/><polygon class="cls-11" points="110.48 125.52 111.95 126.4 114.45 127.71 116.53 128.8 118.37 129.77 120.42 130.85 122.77 132.08 125.51 133.01 127.05 132.4 127.95 131.4 128.63 130.28 128.41 129.26 127.6 128.08 126.63 127.22 125.32 126.86 123.98 126.93 122.78 127.46 121.48 127.58 120.2 127.25 116.41 125.87 113.66 124.03 111.18 123.12 110.1 124.18 110.48 125.52"/><polygon class="cls-11" points="55.39 57.33 56.76 57.21 57.82 57.55 59.03 58.04 62.68 60.75 67.26 64.31 66.73 66.28 65.57 66.58 63.62 66.42 61.46 64.94 59.3 63.23 56.41 61.85 54.7 59.99 54.6 58.25 55.39 57.33"/><path class="cls-12" d="M56.53,57.55c-.12,0-.9.49-.9.49l-.24.88.69.79,1.3.66,1.23.25,2.56,1.61,2.29,2.26L66,66l1.51-.92-1.06-1.46L61.88,60l-4.56-2.75Z"/><polygon class="cls-3" points="101.11 38.17 100.62 39.42 100.62 40.59 100.8 41.96 100.97 43.01 102.41 43.03 103.68 42.79 104.79 42.35 104.96 41 104.71 39.35 103.98 38.13 102.58 37.65 101.11 38.17"/><path class="cls-1" d="M100.86,45.42c0,.12-.16,1.45-.16,1.45l.21,1.51.48,1,1.19,0,1.7-.27.78-.3.12-2.11-.22-2-.57.46-1.28.37-.94.2-.79-.26Z"/><path class="cls-4" d="M104.27,22.15l-.66-3.3a10.43,10.43,0,0,1,1-.48c.07,0,.89-.12.89-.12l.77.28.5.32.32.58,0,.93-.18.6-.25.52-.37.52-.77.33Z"/><polygon class="cls-4" points="113.25 20.38 113.41 21.21 113.62 22.15 113.84 22.84 113.97 23.29 114.75 23.25 115.12 23.25 115.47 20.72 115.25 19.26 114.36 20.02 113.62 20.23 113.25 20.38"/><path class="cls-13" d="M105.5,18.25,105,19l-.31.85-.12.56s-.1.63-.1.73a4.71,4.71,0,0,0,.15.58l.29.46.57.07L106,22l.51-.62.51-.8a1.36,1.36,0,0,0-.14-.31.57.57,0,0,0-.31,0c-.09,0-.39-.2-.39-.2l-.08-.34.07-.42.23-.33.29-.27-.6-.57-.44-.08Z"/><path class="cls-13" d="M113.88,20.72l.32.34.39.14.3-.12.09-.16.11.36-.11.66-.15.58-.28.37-.35.27a.65.65,0,0,1-.28-.19,3.53,3.53,0,0,1-.1-.82l-.37-.75-.2-.55v-.6l.37-.15.2.28,0,.25"/><path class="cls-4" d="M107.07,27s.78-1.12,1.51-1.06a5.24,5.24,0,0,1,1.84.72c.3.16.51,1.06.51,1.06L107,27.21Z"/><polygon class="cls-14" points="107.07 26.97 106.56 28.22 106.84 29.56 107.93 30.6 109.39 30.67 110.48 29.95 111.14 28.94 110.93 27.69 110.11 27.67 108.62 27.52 107.53 27.28 107.07 26.97"/><path class="cls-4" d="M101.56,19.43,100,19l-.63-1.15.15-1,.58-.62.84-.11.68.26s0,.73.07.82,0,1.39,0,1.39l0,.83Z"/><polygon class="cls-3" points="101.73 14.14 100.36 13.67 99.16 13.89 97.95 14.34 97.14 15.21 96.63 16.42 96.54 17.4 96.7 18.57 97.91 20.75 99.52 22.18 101.32 22.9 101.78 22.9 101.51 19.64 100.49 19.29 99.35 18.05 99.35 16.96 100.08 16.27 100.92 16.16 101.61 16.42 101.67 15.4 101.61 13.89 101.73 14.14"/><path class="cls-4" d="M80.71,73c-1.15.41-1.77,2-2.35,3a23.28,23.28,0,0,0-2.16,4.36c-.06.18.21.28.31.13.86-1.35,1.53-2.82,2.39-4.17.62-1,1.81-2.1,1.83-3.27a0,0,0,0,0,0,0Z"/><path class="cls-4" d="M85.61,75.24a26.87,26.87,0,0,0,7.09,3.63c.4.13.68-.5.29-.68-2.39-1.12-4.76-2.18-7-3.51a.33.33,0,0,0-.33.56Z"/><path class="cls-4" d="M91.38,84.88c.55-.58,1-1.25,1.57-1.82s1.31-.91,1.61-1.55a.14.14,0,0,0-.12-.21c-.75,0-1.43.82-1.92,1.32a6.61,6.61,0,0,0-1.51,2c-.08.2.23.36.37.21Z"/><path class="cls-4" d="M96.5,81.68a11.53,11.53,0,0,0,1.64,1.71,7.21,7.21,0,0,0,1.85,1.5.27.27,0,0,0,.36-.37,6.66,6.66,0,0,0-1.64-1.71,10.59,10.59,0,0,0-1.84-1.5c-.22-.12-.52.13-.37.37Z"/><path class="cls-4" d="M117.51,78.46c1.07,1.85,2.58,3.48,3.82,5.23,1.12,1.59,2.13,3.29,3.39,4.78.19.22.49-.07.38-.3a33.47,33.47,0,0,0-3.6-5.41,28.84,28.84,0,0,0-3.74-4.49.16.16,0,0,0-.25.19Z"/><path class="cls-4" d="M117.61,86.53a39.7,39.7,0,0,1,4,5.35c.88,1.6,1.21,3.68,2.42,5.05a.5.5,0,0,0,.82-.22c.45-2-1-4.31-2-5.94a13.79,13.79,0,0,0-4.74-4.83.38.38,0,0,0-.46.59Z"/><path class="cls-4" d="M82.08,83.23c-1.22,1.39-1.88,3.32-2.92,4.87a32.52,32.52,0,0,1-4.45,5.14c-.77.74.35,1.79,1.16,1.15,2.88-2.31,6.8-7.09,6.45-11.06,0-.11-.15-.2-.24-.1Z"/><path class="cls-4" d="M66.31,69.41a31.44,31.44,0,0,0,1,3.11,11.59,11.59,0,0,0,1.15,2.68c.12.17.45.13.42-.11a11.69,11.69,0,0,0-.92-3A30.61,30.61,0,0,0,66.8,69.2c-.14-.28-.56-.08-.49.21Z"/><path class="cls-4" d="M60.1,59.8a3.66,3.66,0,0,0,1.6,1.1.12.12,0,0,0,.14-.18,3.63,3.63,0,0,0-1.58-1.18c-.16-.07-.25.15-.16.26Z"/><path class="cls-4" d="M55,61.83c.78.68,1.8,1.09,2.64,1.69A29.4,29.4,0,0,1,60.55,66c.22.2.5-.1.32-.33a13.2,13.2,0,0,0-2.64-2.36,8,8,0,0,0-3.1-1.61c-.08,0-.16.08-.09.14Z"/><path class="cls-4" d="M124.43,126a4.49,4.49,0,0,1,2.18.3,3.61,3.61,0,0,1,.94.61c.22.21.32.36.64.33a.3.3,0,0,0,.26-.2c.33-.78-1.08-1.44-1.65-1.61a2.52,2.52,0,0,0-2.41.46.07.07,0,0,0,0,.11Z"/><path class="cls-4" d="M121.32,122.07a6.59,6.59,0,0,1,2.17,0c.52.11,1.11.59,1.64.39a.25.25,0,0,0,.16-.29c-.11-.69-1.19-.86-1.76-.93a3.64,3.64,0,0,0-2.34.37c-.2.12-.13.5.13.47Z"/><path class="cls-4" d="M119.71,100.85a10.39,10.39,0,0,0-2.76,8,.24.24,0,0,0,.48,0,19.48,19.48,0,0,1,.65-4.09,20.52,20.52,0,0,1,1.84-3.73c.08-.13-.1-.26-.21-.16Z"/><path class="cls-4" d="M117.24,111c1.66,1.27,4.74,2.2,6.8,1.61a.36.36,0,0,0,0-.69,23.45,23.45,0,0,0-3.56-.62c-1-.22-2.08-.49-3.15-.61-.19,0-.2.22-.09.31Z"/><path class="cls-4" d="M115.76,112.29c-.58,1-.9,2.2-1.4,3.27s-1.06,1.86-1.44,2.85c0,.14.15.23.24.14a10.27,10.27,0,0,0,1.84-3.11,9.47,9.47,0,0,0,1-3.1c0-.11-.15-.14-.2,0Z"/><path class="cls-4" d="M111.27,125.42a19.83,19.83,0,0,0,1.72,1,5.61,5.61,0,0,0,1.65.71c.16,0,.29-.15.16-.27a5.67,5.67,0,0,0-1.64-1q-.87-.42-1.77-.75c-.17-.06-.26.19-.12.28Z"/><path class="cls-4" d="M78.29,119c.9,3.14,5.5,2,7.79,1.53,4.75-1.09,9.53-2.27,14.18-3.74a.26.26,0,0,0-.14-.49c-3.58.57-7.16,1.31-10.7,2.11-1.69.38-3.36.85-5.06,1.2-2.22.44-3.84-.1-5.89-.79a.15.15,0,0,0-.18.18Z"/><path class="cls-4" d="M104.94,110.78a3.12,3.12,0,0,1,0,1.52c-.12.44-.43.8-.53,1.24a.22.22,0,0,0,.27.27c1.24-.38,1.23-2.3.76-3.22-.14-.27-.52-.08-.46.19Z"/><path class="cls-4" d="M77.62,111.67c2-.78,5.24.31,7.34.61a20.39,20.39,0,0,0,5.55.45.28.28,0,0,0,.06-.51c-2.73-1.2-6.22-1.21-9.17-1.6-1.46-.19-3.12-.69-4.05.7a.24.24,0,0,0,.27.35Z"/><path class="cls-4" d="M103.88,71.21a56.83,56.83,0,0,0,0,6.26,22.2,22.2,0,0,0,.35,5.41.16.16,0,0,0,.31,0,22.75,22.75,0,0,0,.12-5.41,56.8,56.8,0,0,0-.31-6.26.23.23,0,0,0-.45,0Z"/><path class="cls-4" d="M102.45,39.83c.74,0,.9.67,1.42,1a.29.29,0,0,0,.4-.11,1,1,0,0,0-.47-1.21,1.4,1.4,0,0,0-1.41-.12c-.22.09-.21.45.06.44Z"/><path class="cls-4" d="M97.28,32.43c.15.25.37.43.54.66a2.81,2.81,0,0,0,.45.67.25.25,0,0,0,.42-.11,1.4,1.4,0,0,0-1.24-1.51.19.19,0,0,0-.17.29Z"/><path class="cls-4" d="M105.72,15.05c1.6,2.12,6.25,2.51,8.61,1.78a.46.46,0,0,0-.12-.9,38.29,38.29,0,0,1-4.67-.32,17.43,17.43,0,0,0-3.65-.86c-.13,0-.26.17-.17.3Z"/><path class="cls-4" d="M131.68,61.53c.39.23.82.37,1.19.62a3.4,3.4,0,0,1,.95,1.05.48.48,0,0,0,.83-.48,3.27,3.27,0,0,0-2.8-1.82.34.34,0,0,0-.17.63Z"/><path class="cls-4" d="M132.23,59.66c.07.23.23.3.42.43s.45.36.69.53.89-.27.64-.65a1.53,1.53,0,0,0-1.14-.69c-.2,0-.72,0-.61.38Z"/><path class="cls-4" d="M65.45,79.67a4,4,0,0,0,2.78.58c.8-.06,1.78-.14,2.24-.87a.31.31,0,0,0-.18-.44c-.74-.19-1.48.22-2.22.28s-1.66-.07-2.49,0a.26.26,0,0,0-.13.48Z"/><path class="cls-15" d="M92,85a10.37,10.37,0,0,1,2.37-1.9,9.08,9.08,0,0,1,3-.65.27.27,0,0,0,0-.52,5.54,5.54,0,0,0-5.55,2.94c-.06.13.14.21.23.13Z"/><path class="cls-15" d="M99.13,83.8c-2.06-.84-4.71-.26-6.8.3l.6,1a11.09,11.09,0,0,1,4-2A.61.61,0,0,0,96.65,82a13.69,13.69,0,0,0-4.47,2.19c-.53.39-.24,1.34.48,1.13,2.13-.61,4.38-.54,6.47-1.16a.17.17,0,0,0,0-.33Z"/><path class="cls-15" d="M96.75,82.57c.33.43.82.74,1.19,1.15s1.21-.16.84-.65S97.6,82,96.89,82.24c-.12.05-.24.2-.14.33Z"/><path class="cls-15" d="M96.72,83c.27.37.41.78.88.91a.38.38,0,0,0,.48-.37c0-.49-.39-.69-.72-1s-.91.11-.64.49Z"/><path class="cls-15" d="M63.16,80.66C63,83.43,64.32,86.45,65.29,89A45.16,45.16,0,0,0,69,96.86a.59.59,0,0,0,1-.59c-1.35-2.8-2.76-5.52-3.84-8.44-.88-2.38-1.32-5.09-2.53-7.3a.26.26,0,0,0-.48.13Z"/><path class="cls-15" d="M62.45,79.63a.05.05,0,0,0,0-.1.05.05,0,1,0,0,.1Z"/><path class="cls-15" d="M62,79.82a1.6,1.6,0,0,0,.45,1,2.34,2.34,0,0,0,1,.54,2.45,2.45,0,0,0,2.29-.75.49.49,0,0,0,.13-.47L65.85,80a.31.31,0,0,0-.29-.22A.66.66,0,0,0,65,80a1.81,1.81,0,0,1-1,.47,2.51,2.51,0,0,1-1.69-.79.18.18,0,0,0-.29.17Z"/><path class="cls-15" d="M119.61,100.45a1.51,1.51,0,0,0,1.7,1.15.41.41,0,0,0,.17-.67c-.2-.23-.48-.26-.75-.4a2.82,2.82,0,0,0-.73-.38c-.17,0-.42.09-.39.3Z"/><path class="cls-15" d="M120.74,100.43a1.4,1.4,0,0,0-1.49.76c-.38.56.6,1.14.9.53.19-.37.49-.68.69-1.06a.16.16,0,0,0-.1-.23Z"/><path class="cls-15" d="M128.75,104a4.54,4.54,0,0,0-1.35.69,9.11,9.11,0,0,0-1.43.72.56.56,0,0,0,.39,1,3.38,3.38,0,0,0,1.62-.79,2.43,2.43,0,0,0,1.07-1.28.24.24,0,0,0-.3-.3Z"/><path class="cls-15" d="M127.75,105.5a11.4,11.4,0,0,0-1.8,2.74c-.51.78-1.47,1.64-1.49,2.6a.37.37,0,0,0,.46.35c1-.31,1.49-1.57,2-2.39a7.28,7.28,0,0,0,1.39-3.08c0-.29-.35-.38-.55-.22Z"/><path class="cls-15" d="M116.13,75.76c-1.3-1-4,1-3.87,2.46a.47.47,0,0,0,.79.32c.48-.48.7-1.11,1.29-1.5s1.23-.35,1.79-.67a.36.36,0,0,0,0-.61Z"/><path class="cls-15" d="M80.08,71.49c.45.88,1.72,1.29,2.63,1.57a10.83,10.83,0,0,0,3.74.57.08.08,0,0,0,0-.15c-1.19-.49-2.43-.81-3.62-1.34a6.21,6.21,0,0,0-2.62-.93.18.18,0,0,0-.15.28Z"/><path class="cls-15" d="M102.63,61.83c.7.34,2.27-.07,2.47-.91a.27.27,0,0,0-.33-.32c-.36.08-.61.39-.93.56s-.79.24-1.18.4a.15.15,0,0,0,0,.27Z"/><path class="cls-15" d="M127.41,66.08a2.33,2.33,0,0,0,1.31,1.34c.53.22,1.35.42,1.82,0a.32.32,0,0,0-.14-.52c-.44-.15-.92,0-1.38-.18a3.06,3.06,0,0,1-1.16-.89.27.27,0,0,0-.45.26Z"/><path class="cls-15" d="M115.09,39.65l.12,0a0,0,0,0,0,0-.09l-.12,0a.07.07,0,1,0,0,.13Z"/><path class="cls-15" d="M115,39.59a11.27,11.27,0,0,0,3.69,6.58c.17.13.44,0,.32-.25-.61-1.08-1.44-2-2-3.13s-1.06-2.24-1.66-3.33c-.1-.19-.34-.05-.31.13Z"/><path class="cls-15" d="M84.09,36.77A11.19,11.19,0,0,0,88,34.57a8.68,8.68,0,0,0,2.88-2.9.13.13,0,0,0-.18-.18,22.81,22.81,0,0,0-3.06,2.62c-1.14.91-2.47,1.58-3.57,2.54a.07.07,0,0,0,.07.12Z"/><path class="cls-15" d="M96,24.94a2.75,2.75,0,0,0,1.71.87c.57.1,1.4.24,1.84-.22a.33.33,0,0,0-.06-.5c-.45-.29-1.09-.14-1.6-.2a12.18,12.18,0,0,0-1.69-.29c-.16,0-.31.2-.2.34Z"/><path class="cls-15" d="M95.81,15.75a4,4,0,0,1,1.75-2.09,3.59,3.59,0,0,1,1.18-.4c.45-.06.88.06,1.32,0a.27.27,0,0,0,.14-.51c-.86-.56-2.27-.08-3.06.42a3.52,3.52,0,0,0-1.71,2.51c0,.24.31.24.38.06Z"/><path class="cls-15" d="M104,15.34c3,1.26,7.94,3,11,.91.12-.09,0-.3-.11-.25-3.85,1.25-7-.39-10.84-.81-.1,0-.1.12,0,.15Z"/><path class="cls-16" d="M96.48,28.23a15.34,15.34,0,0,0,2.51.92c.42.14.61-.54.18-.67a15.57,15.57,0,0,0-2.58-.68c-.23,0-.3.32-.11.43Z"/><path class="cls-16" d="M96.19,28.84a3.21,3.21,0,0,0,1.68.56c.69.11,1.38.22,2.08.3.54.05.67-.87.13-1s-1.39-.19-2.08-.28a3.22,3.22,0,0,0-1.77.09.19.19,0,0,0,0,.29Z"/><path class="cls-16" d="M99.11,29.2c.32,1.63,3.18,3.44,4.76,2.62a.35.35,0,0,0-.09-.63,4.92,4.92,0,0,0-1-.14,4.45,4.45,0,0,1-1.38-.44,8.31,8.31,0,0,1-1.83-1.67.27.27,0,0,0-.44.26Z"/><path class="cls-16" d="M103.3,31.24A7.82,7.82,0,0,0,106,35.07c.37.28.69-.29.45-.58-.49-.63-1.07-1.18-1.55-1.81a17.93,17.93,0,0,0-1.24-1.63.2.2,0,0,0-.33.19Z"/><path class="cls-16" d="M105.94,31.26a3.1,3.1,0,0,0-.42,2.37.19.19,0,0,0,.37-.05,4.89,4.89,0,0,1,.32-2.17.15.15,0,0,0-.27-.15Z"/><path class="cls-16" d="M105.33,31.18a11.94,11.94,0,0,0-.22,1.22,2.65,2.65,0,0,0,0,1.22.13.13,0,0,0,.23,0,2.38,2.38,0,0,0,.19-1.06,12.71,12.71,0,0,0,0-1.38c0-.11-.18-.15-.2,0Z"/><path class="cls-16" d="M106.42,31.74a3,3,0,0,0-.51,2.26.17.17,0,0,0,.33,0,8,8,0,0,0,.13-1,4.14,4.14,0,0,1,.35-1.08c.09-.2-.19-.38-.3-.18Z"/><path class="cls-16" d="M101.67,35.66a2.18,2.18,0,0,0,2.4.66c.16-.09.14-.38,0-.41-.35-.06-.69,0-1-.07a5.54,5.54,0,0,1-1-.45c-.17-.08-.41.09-.28.27Z"/><path class="cls-16" d="M103.94,35.18a.81.81,0,0,0,1.42-.07c.06-.15-.11-.25-.23-.23s-.37.13-.57.14a2.92,2.92,0,0,1-.51,0,.13.13,0,0,0-.11.2Z"/><path class="cls-16" d="M104.59,88.33a43.19,43.19,0,0,0,.77,8.64c0,.12.19.08.19,0a43.41,43.41,0,0,0-.6-8.67c0-.21-.36-.15-.36,0Z"/><path class="cls-17" d="M94.65,40.11a3.82,3.82,0,0,0-3,1.33A5.32,5.32,0,0,0,90.57,43c-.38.88-.57,1.91-1.6,2.27-.29.09-.17.54.12.45,1.17-.36,1.54-1.38,2-2.41a5.12,5.12,0,0,1,1.33-1.8,13.13,13.13,0,0,1,2.26-1.18c.08-.05.08-.22,0-.24Z"/><path class="cls-17" d="M91.8,41.34a2.21,2.21,0,0,0,.68-1c.19-.42.4-.84.57-1.28a.39.39,0,0,0-.1-.38.33.33,0,0,0-.28-.11.41.41,0,0,0-.33.19c-.23.44-.4.91-.59,1.37a2,2,0,0,0-.26,1.1.21.21,0,0,0,.31.12Z"/><path class="cls-17" d="M92.54,38.86a8.41,8.41,0,0,0,1.37,1.3c.39.3.92-.18.56-.55a8.77,8.77,0,0,0-1.53-1.26c-.34-.21-.61.24-.4.51Z"/><path class="cls-17" d="M94.06,39.68a2.22,2.22,0,0,0-1-.08A2.94,2.94,0,0,0,92,40a.48.48,0,1,0,.59.76,4.68,4.68,0,0,1,1.47-.92.1.1,0,0,0,0-.19Z"/><path class="cls-17" d="M92.72,38.77a3.75,3.75,0,0,0,1.12,1c.34.26.62.57,1.07.49a.23.23,0,0,0,.18-.24c0-.45-.4-.62-.76-.88A3.82,3.82,0,0,0,93,38.41a.25.25,0,0,0-.28.36Z"/><path class="cls-17" d="M115.76,45.2a20.35,20.35,0,0,0-4.54,11c0,.36.53.42.63.08A55.12,55.12,0,0,1,113.31,51a55.7,55.7,0,0,1,2.78-5.51c.11-.21-.16-.46-.33-.26Z"/><path class="cls-17" d="M115.21,45.27a4.65,4.65,0,0,0-.78.69c-.2.22-.3.29-.24.59a.15.15,0,0,0,.14.11c.52,0,.87-.85,1-1.28a.1.1,0,0,0-.14-.11Z"/><path class="cls-17" d="M115.37,45.15a2.13,2.13,0,0,0-1.48,1.32l.71.3a3.82,3.82,0,0,0,0-2.41.39.39,0,0,0-.7.09,4.76,4.76,0,0,0,0,1.07c0,.38,0,.76-.06,1.15s.62.48.77.1a15.91,15.91,0,0,1,.89-1.41c0-.08,0-.22-.12-.21Z"/><path class="cls-17" d="M118.06,53.12a16.35,16.35,0,0,1,1.5,4.4.24.24,0,0,0,.46-.06,8.53,8.53,0,0,0-1.62-4.54.2.2,0,0,0-.34.2Z"/><path class="cls-17" d="M122.77,54.55c.24.34.7.46,1,.77a2.55,2.55,0,0,1,.43.55c.13.23.18.48.32.69a.2.2,0,0,0,.36-.05,1.91,1.91,0,0,0-.61-1.49c-.31-.34-.92-.84-1.42-.66-.07,0-.13.12-.07.19Z"/><path class="cls-17" d="M114.9,57.56a3.45,3.45,0,0,0,.65,1.72c.17.21.44-.06.35-.27-.22-.51-.5-1-.71-1.49-.06-.14-.31-.14-.29,0Z"/><path class="cls-17" d="M115.24,58.38a4.88,4.88,0,0,0-1.46-1.4A4.77,4.77,0,0,0,112,55.85a.36.36,0,0,0-.4.51,4.52,4.52,0,0,0,1.59,1.27,5.15,5.15,0,0,0,1.89,1,.15.15,0,0,0,.16-.22Z"/><path class="cls-17" d="M86.71,47.55c2,1.76,6.17,2,8.62,1.43.17,0,.12-.28,0-.29a37.42,37.42,0,0,1-4.85-.36,32.5,32.5,0,0,0-3.69-.9.07.07,0,0,0,0,.12Z"/><path class="cls-17" d="M88.5,56.09a3.88,3.88,0,0,0,2-.2,3.82,3.82,0,0,0,1.78-.9c.13-.14,0-.32-.18-.3a13,13,0,0,0-1.89.61,9.08,9.08,0,0,0-1.71.5.16.16,0,0,0,0,.29Z"/><path class="cls-17" d="M81.55,40c-1.24,2.16-.74,5.37.21,7.54.11.26.54.07.45-.2a13.46,13.46,0,0,1-.73-3.82c0-1.17.27-2.3.31-3.45a.13.13,0,0,0-.24-.07Z"/><path class="cls-17" d="M81.34,42.63a11.27,11.27,0,0,0,.08,3.8c0,.17.35.19.38,0a11.49,11.49,0,0,0-.26-3.83c0-.13-.19-.08-.2,0Z"/><path class="cls-17" d="M82.78,38c1.68,0,3.49-1.38,4.77-2.37a16.63,16.63,0,0,0,3.76-4.46c.06-.09-.09-.18-.15-.09a17.79,17.79,0,0,1-4.36,4.38c-1.27.92-2.9,1.41-4.08,2.41,0,0,0,.13.06.13Z"/><path class="cls-17" d="M119.52,48.54a16.14,16.14,0,0,0-2.32-4.25A16.73,16.73,0,0,1,115,37.72c0-.26-.48-.2-.46.06A15.74,15.74,0,0,0,115.79,43c.85,2,2.44,3.65,3.19,5.73a.28.28,0,0,0,.54-.15Z"/><path class="cls-17" d="M85,55a50.33,50.33,0,0,0,6.61,3.41c2.22,1.1,4.4,2.28,6.63,3.36.41.2.78-.41.36-.63-2.34-1.23-4.74-2.34-7.08-3.56a48.34,48.34,0,0,0-6.3-3.09c-.32-.1-.46.34-.22.51Z"/><path class="cls-17" d="M98.28,61.55s0,0,0,0Z"/><path class="cls-17" d="M97.91,61.52a1.78,1.78,0,0,0,.39,1.78c.33.4,1,1,1.56.7a.19.19,0,0,0,0-.3,1.22,1.22,0,0,0-.44-.22,1.84,1.84,0,0,1-.7-.53,2.8,2.8,0,0,1-.43-1.38.23.23,0,0,0-.41,0Z"/><path class="cls-17" d="M98.16,62c0,.34-.11.65.11.93a.14.14,0,0,0,.19,0c.22-.28.14-.59.11-.93a.21.21,0,0,0-.41,0Z"/><path class="cls-17" d="M84.85,64.24a17.22,17.22,0,0,0-.3,3.22,17.32,17.32,0,0,0-.23,3.66c0,.18.27.3.37.1A8.91,8.91,0,0,0,85.33,68a10.67,10.67,0,0,0-.1-3.74.2.2,0,0,0-.38,0Z"/><path class="cls-17" d="M84.73,64.46c-.63,1.05-1,2.25-1.62,3.31a18.17,18.17,0,0,1-2.57,3.1c-.23.23.07.66.35.46,2-1.42,4.15-4.25,4.17-6.78a.18.18,0,0,0-.33-.09Z"/><path class="cls-17" d="M80.06,70.81A7.77,7.77,0,0,0,82.35,69a6.83,6.83,0,0,0,1.79-2.32.15.15,0,0,0-.22-.17,13.93,13.93,0,0,0-2,2.06,19.34,19.34,0,0,0-2,2,.12.12,0,0,0,.14.17Z"/><path class="cls-17" d="M83.42,67.15a38.37,38.37,0,0,0-3.86,3.25c-.28.24.13.65.4.4a38.1,38.1,0,0,0,3.61-3.46c.09-.1,0-.28-.15-.19Z"/><path class="cls-17" d="M80,70.21a3.91,3.91,0,0,0,.06.68.22.22,0,0,0,.28.16c.64-.22,1.8-.81,1.83-1.6a.11.11,0,0,0-.14-.11,2.28,2.28,0,0,0-.78.57,6.28,6.28,0,0,1-1.09.73l.32.08c-.11-.19-.22-.37-.34-.55s-.14,0-.14,0Z"/><path class="cls-17" d="M117.64,75.06c-.07-.77-.74-1.1-1.47-1.18s-1.93,0-2.22.77a.18.18,0,0,0,.09.21c.48.27,1-.06,1.54-.14a3.33,3.33,0,0,1,1.9.43.11.11,0,0,0,.16-.09Z"/><path class="cls-17" d="M112.48,72.43c0,.56.54,1.06.92,1.4a4.63,4.63,0,0,0,1.64,1,.31.31,0,0,0,.29-.08.27.27,0,0,0,.09-.22.31.31,0,0,0-.15-.26,7.64,7.64,0,0,1-1.57-.95c-.36-.3-.64-.79-1.11-.94a.08.08,0,0,0-.11.08Z"/><path class="cls-17" d="M112.67,72.15a7.26,7.26,0,0,0,1.29.9,5,5,0,0,0,1.42.72.24.24,0,0,0,.23-.39,5.17,5.17,0,0,0-1.34-.85,7.15,7.15,0,0,0-1.44-.65.16.16,0,0,0-.16.27Z"/><path class="cls-17" d="M114.58,73.45c.19.27.58.57.86.25a.11.11,0,0,0,0-.15c-.18-.19-.44-.17-.67-.29s-.28.07-.19.19Z"/><path class="cls-17" d="M113.94,73.64a1.39,1.39,0,0,0,1.22.48c.15,0,.16-.24,0-.31a3.87,3.87,0,0,1-.9-.53c-.25-.22-.6.13-.36.36Z"/><path class="cls-17" d="M116.31,76.34a.59.59,0,0,0,.71.47.28.28,0,0,0,.13-.47c-.15-.12-.31-.19-.45-.29a.26.26,0,0,0-.39.29Z"/><path class="cls-17" d="M116.74,76.46c.47-.17,1.49-.75,1.23-1.37,0-.08-.12-.16-.21-.12s-.27.22-.4.42a2.15,2.15,0,0,1-.76.74c-.17.1-.06.41.14.33Z"/><path class="cls-17" d="M100.11,79.93a10.31,10.31,0,0,0,1.32.46,2.42,2.42,0,0,0,1.23.22.17.17,0,0,0,.07-.27,2.48,2.48,0,0,0-1.15-.46,9.34,9.34,0,0,0-1.37-.31c-.19,0-.27.28-.1.36Z"/><path class="cls-17" d="M106,81.32c2.61.63,6.28-1.44,6.34-4.29a.12.12,0,0,0-.23-.06,6,6,0,0,1-2.54,2.65c-1.13.65-2.55.76-3.59,1.55,0,0-.06.13,0,.15Z"/><path class="cls-17" d="M87.24,73.57a7.53,7.53,0,0,0,3.07,1.94,9,9,0,0,0,3.52,1.2c.2,0,.35-.28.18-.42a16.35,16.35,0,0,0-3.5-1.6,11.43,11.43,0,0,0-3.15-1.33.14.14,0,0,0-.12.21Z"/><path class="cls-17" d="M80.47,71.28a19.05,19.05,0,0,1,4.68,2,6.47,6.47,0,0,0,3.51.84.2.2,0,0,0,0-.39c-3,.07-5.2-3.2-8.19-2.65-.12,0-.11.2,0,.23Z"/><path class="cls-17" d="M94.5,32c1.11,1.33,2.65,2.37,3.86,3.65a5.21,5.21,0,0,0,3.26,2c.25,0,.3-.39.06-.45-3-.65-4.21-4.32-7-5.45-.16-.06-.24.16-.15.26Z"/><path class="cls-17" d="M99,35.72a2,2,0,0,0,.93,1.06,2.54,2.54,0,0,0,1.47.62.23.23,0,0,0,.16-.4c-.31-.34-.86-.45-1.25-.7a4.76,4.76,0,0,0-1.2-.68.09.09,0,0,0-.11.1Z"/><path class="cls-17" d="M94.92,31.84c0-.06,0-.11,0-.17,0-.23-.41-.13-.35.09a1.28,1.28,0,0,0,.16.38A.19.19,0,0,0,95,32a1.3,1.3,0,0,0-.17-.38l-.15.27h.17s.05,0,0-.05Z"/><path class="cls-17" d="M94.81,31.66a.75.75,0,0,0,.16.94.29.29,0,0,0,.45-.35.65.65,0,0,1-.09-.45c0-.28-.4-.37-.52-.14Z"/><path class="cls-17" d="M98.14,34.88l0,.1a.29.29,0,0,0,.41.17l0,0a.2.2,0,0,0,.09-.16.37.37,0,0,0-.17-.32c-.18-.14-.49,0-.41.24Z"/><path class="cls-17" d="M98.45,35.14a1.7,1.7,0,0,0,1.23,1,.22.22,0,0,0,.22-.28,1.73,1.73,0,0,0-1.23-1c-.18,0-.28.12-.22.28Z"/><path class="cls-17" d="M104.43,38.53c.69.69,2.07.46,2.86,0a2.9,2.9,0,0,0,1.63-2.34.26.26,0,0,0-.49-.13c-.42.7-.6,1.39-1.38,1.83a3,3,0,0,1-1.33.38c-.4,0-.77-.11-1.16-.07a.18.18,0,0,0-.13.3Z"/><path class="cls-16" d="M101.88,18.42c4,2.37,9.12,3.07,13.67,2.8.19,0,.19-.32,0-.31-5,.3-9-.89-13.58-2.7-.13-.05-.2.15-.09.21Z"/><path class="cls-16" d="M102,21.6c3.83,1.61,9.4,2.35,13.45,1.27a.05.05,0,0,0,0-.1c-2.11-.11-4.21.16-6.33,0a58.84,58.84,0,0,1-7-1.36.12.12,0,0,0-.06.23Z"/><path class="cls-16" d="M102,24.23a20,20,0,0,0,13.45,1.11c.24-.06.13-.39-.09-.35a26.85,26.85,0,0,1-13.25-1c-.15-.05-.25.18-.11.25Z"/><path class="cls-16" d="M102.16,26.27a21.34,21.34,0,0,0,12.06,1,.07.07,0,0,0,0-.14,49.09,49.09,0,0,1-12-1.16.15.15,0,0,0-.08.29Z"/><path class="cls-16" d="M104,29a12.62,12.62,0,0,0,9.23.1.09.09,0,0,0-.05-.18,23.19,23.19,0,0,1-9.13-.05c-.07,0-.14.1,0,.13Z"/><path class="cls-16" d="M112.28,18.52a6.62,6.62,0,0,0,0,2.35,16.93,16.93,0,0,0,.18,2.36c0,.07.14.07.15,0a11.35,11.35,0,0,0,.09-2.54,5.21,5.21,0,0,0-.27-2.19c0-.06-.12,0-.13,0Z"/><path class="cls-16" d="M109.74,19.24a21.5,21.5,0,0,1,.7,4.22,0,0,0,1,0,0,0,12,12,0,0,0-.46-4.3.15.15,0,0,0-.28.08Z"/><path class="cls-16" d="M102.4,17.62a28.64,28.64,0,0,0-.24,5.92c0,.07.11.1.12,0a28.06,28.06,0,0,0,.33-5.94c0-.13-.2-.13-.21,0Z"/><path class="cls-16" d="M104.25,17.7c.12,1.95.31,3.89.41,5.84a.08.08,0,1,0,.15,0,26.3,26.3,0,0,0-.26-5.88.15.15,0,0,0-.3,0Z"/><path class="cls-16" d="M107.78,19a12.09,12.09,0,0,0,0,3.18,0,0,0,0,0,0,0,12.11,12.11,0,0,0,.06-3.18.05.05,0,0,0-.1,0Z"/><path class="cls-16" d="M107.73,22.47l.09.34c0,.06.11,0,.09,0l-.08-.33a.05.05,0,0,0-.1,0Z"/><path class="cls-18" d="M101.38,14c3.39,3.28,9.19,4.5,13.69,3.28.2-.06.17-.4,0-.38-5.19.68-9.07-.41-13.49-3.09a.12.12,0,0,0-.15.19Z"/><path class="cls-18" d="M114.76,17a3,3,0,0,0,.69-.25c.06,0,0-.14,0-.11a3.35,3.35,0,0,0-.66.32s0,0,0,0Z"/><path class="cls-18" d="M115.17,16.86v-.1c0-.31-.43.09-.12.12h.1a0,0,0,0,0,0,0Z"/><path class="cls-18" d="M114.93,16.76c.36,4.47.29,8.93.54,13.39a.17.17,0,0,0,.34,0,61.24,61.24,0,0,0-.49-13.39c0-.24-.41-.25-.39,0Z"/><path class="cls-18" d="M115.83,35.13c-6.06.46-10.65-1.75-13.49-7.2-.1-.2-.44-.06-.36.15,2,5.36,8.28,8.87,13.88,7.29.13,0,.11-.25,0-.24Z"/><path class="cls-18" d="M101.49,13.74c-.15,3.18,0,6.41.11,9.59a.24.24,0,1,0,.45-.12L102,23a.13.13,0,0,0-.23,0l-.09.2.44.12c0-3.18,0-6.42-.23-9.59a.18.18,0,0,0-.36,0Z"/><path class="cls-18" d="M101.47,17.53a0,0,0,1,0,0,0,0,0,0,0,0,0,0Z"/><path class="cls-18" d="M101.31,13.79c-2.7-1.47-5.21,1.41-4.93,4a5.93,5.93,0,0,0,2.51,4.07c.71.53,2.27,1.77,3.1.89.15-.17,0-.46-.25-.33-.74.49-2.46-.84-3-1.27A5.43,5.43,0,0,1,97,18.47c-.66-2.71,1.34-5.19,4.18-4.37a.17.17,0,0,0,.13-.31Z"/><path class="cls-18" d="M101.37,15.56s0-.05,0-.05a0,0,0,0,0,0,.05Z"/><path class="cls-18" d="M101.56,16s0,0,0,0Z"/><path class="cls-18" d="M101.57,16l-.06-.11c0-.07-.14,0-.07.06l.12.06s0,0,0,0Z"/><path class="cls-18" d="M101.5,16.28c-.9-.93-2.27.11-2.31,1.18A2,2,0,0,0,100,19.1a1.9,1.9,0,0,0,1.8.46.15.15,0,0,0,0-.26,7.62,7.62,0,0,0-.94-.24,1.74,1.74,0,0,1-1.13-1.14,1.22,1.22,0,0,1,1.71-1.47c.1,0,.16-.1.1-.17Z"/><path class="cls-18" d="M93.64,23.81c-1.27-3.5-2.56-7.22-1.51-11a11,11,0,0,1,7.25-7.36C107.17,3,114.27,9.52,115,17c0,.31.52.31.49,0C114.74,9.27,107.68,2.78,99.63,5A11.47,11.47,0,0,0,92,11.69c-1.59,4-.46,8.5,1.42,12.19a.1.1,0,0,0,.18-.07Z"/><path class="cls-18" d="M99.62,28.56c.23,2.45,4.32,2.55,6.17,3s4.48,1.6,5.55-.59c.14-.27-.27-.51-.41-.23l-2.65,1-1.09-.28-2.11-.55c-1.44-.38-4.69-.72-5.21-2.39,0-.13-.27-.12-.25,0Z"/><path class="cls-18" d="M108,26a2.55,2.55,0,0,0-1.43,3.54,2.5,2.5,0,0,0,3.72.83,2.62,2.62,0,0,0,.46-3.7,2.67,2.67,0,0,0-4-.23.21.21,0,0,0,.25.32c1-.63,2.27-.94,3.21.05a2.14,2.14,0,0,1-.14,3.08,2,2,0,0,1-3-.39c-.86-1.29,0-2.45,1-3.26.11-.08,0-.31-.11-.24Z"/><path class="cls-18" d="M105,17.64c.13.45.82.64,1.16.95a6,6,0,0,0,1.43,1.22c.68.33,1.9.28,2.07-.64,0-.17-.17-.32-.3-.18-1.47,1.53-2.69-1-4-1.51a.24.24,0,0,0-.23.06l-.09.09Z"/><path class="cls-18" d="M111.41,19.51c-.29.68.73,1.09,1.26,1.11a2.92,2.92,0,0,0,1.38-.35,6.76,6.76,0,0,0,1.62-.91.14.14,0,0,0-.09-.23c-.6-.07-1.15.4-1.66.65a2.11,2.11,0,0,1-1.52.29c-.4-.11-.56-.43-.91-.58a.07.07,0,0,0-.08,0Z"/><path class="cls-18" d="M105.83,18.15a19.19,19.19,0,0,0-1.73-1.52l-.2.34a3.63,3.63,0,0,1,1.81,1.19l.25-.32c-.71-.47-1.42-1-2.15-1.42-.22-.14-.41.21-.2.36.69.5,1.42.95,2.14,1.42.21.14.39-.16.25-.33a3.91,3.91,0,0,0-2-1.29c-.19,0-.37.21-.2.34a19.71,19.71,0,0,0,1.92,1.37c.08.05.17-.07.1-.14Z"/><path class="cls-18" d="M104.23,22.34a3.35,3.35,0,0,1,1.3.1c.29.08.48.24.77.19a.12.12,0,0,0,.07-.17c-.15-.34-.63-.42-1-.47a2.86,2.86,0,0,0-1.23.12c-.15,0-.08.25.06.23Z"/><path class="cls-18" d="M105.42,18.18c-.74.81-1.8,3.57-.29,4.2s2.3-2.32,2-3.3a.16.16,0,0,0-.31,0,4.27,4.27,0,0,1-.18,1.63c-.24.63-1.11,2-1.77.83-.57-1,.15-2.47.61-3.31,0-.07,0-.15-.1-.09Z"/><path class="cls-18" d="M113.19,20.53a12.06,12.06,0,0,0,.26,1.46,2,2,0,0,0,.33,1,.72.72,0,0,0,1.13-.32,2.57,2.57,0,0,0,0-2.2c-.25-.38-.83-.66-1.2-.31a.08.08,0,0,0,.08.14c1.27-.24,1.31,1.61.79,2.34s-.84-.41-.93-.79a9.2,9.2,0,0,0-.35-1.3c0-.06-.13-.06-.12,0Z"/><path class="cls-18" d="M113.65,23.53a1.92,1.92,0,0,1,.95-.1l0-.32a3.7,3.7,0,0,0-.94.16c-.08,0-.1.17,0,.18a3.3,3.3,0,0,0,.94,0,.16.16,0,0,0,0-.32,1.56,1.56,0,0,0-1.07.25.09.09,0,0,0,.08.17Z"/><path class="cls-18" d="M106.51,18.79c-.35.35-.81,1-.38,1.48a.48.48,0,0,0,.81-.06c0-.05,0-.09-.08-.07-.54.31-.76-.24-.63-.63a1.84,1.84,0,0,1,.41-.59c.08-.09,0-.22-.13-.13Z"/><path class="cls-18" d="M113.82,20.24c0,.38.05.91.49,1a.44.44,0,0,0,.62-.36c0-.06-.09-.09-.11,0-.22.43-.63.16-.77-.17a2,2,0,0,1-.12-.5c0-.06-.1,0-.11,0Z"/><path class="cls-18" d="M110.51,23.89a5.35,5.35,0,0,0,1.14,1l0-.37c-.31.14-.65.21-.82.51a.13.13,0,0,0,.07.19c.36.08.66-.15,1-.3.17-.08.12-.3,0-.4a5.5,5.5,0,0,0-1.28-.83.12.12,0,0,0-.14.17Z"/><path class="cls-18" d="M112.38,29c.58-1,1-2,1.54-3,0-.1-.1-.18-.15-.09l-.09.21c0,.05,0,.11.08.06l.14-.17-.13-.1c-.5,1-1,2-1.47,3.07a0,0,0,0,0,.08,0Z"/><path class="cls-18" d="M111.89,30.29a16.6,16.6,0,0,0,2.77-3c.11-.14-.12-.31-.23-.18-.38.41-.74.82-1.11,1.24l.21.16a20.81,20.81,0,0,0,1.54-2.09c.05-.1-.09-.22-.17-.13a20.15,20.15,0,0,0-1.6,2.08c-.09.13.11.28.21.17.38-.41.76-.81,1.13-1.22l-.24-.18a30,30,0,0,1-2.59,3c0,.05,0,.12.08.07Z"/><path class="cls-18" d="M114.15,27.44c.3-.46.6-.93.93-1.37.1-.12-.12-.26-.21-.12a41.8,41.8,0,0,0-2.3,3.72c-.07.13.1.22.19.11.85-1.16,1.59-2.47,2.32-3.71l-.21-.12c-.24.5-.52,1-.79,1.46,0,0,0,.07.07,0Z"/><path class="cls-18" d="M113.77,28.5a7.59,7.59,0,0,0,1.59-2.62c.06-.17-.18-.24-.26-.12-.21.3-.43.59-.63.89s.15.31.25.15a10.18,10.18,0,0,0,.63-1,.06.06,0,0,0-.09-.07c-.28.27-.52.58-.77.87l.23.18.63-.89-.27-.11a7.42,7.42,0,0,1-1.4,2.61.06.06,0,1,0,.09.09Z"/><path class="cls-18" d="M115,26c-.75,1.27-1.53,2.53-2.21,3.86l.36.09.07-.52c0-.08-.1-.15-.15-.06s-.18.33-.28.49.22.4.33.19c.72-1.31,1.32-2.66,2-4a0,0,0,0,0-.08,0Z"/><path class="cls-18" d="M113.28,28.55c-.34.49-.71,1-1,1.5a.17.17,0,0,0,.3.17c.3-.48.63-.93.94-1.4a.06.06,0,0,0-.1-.07,7.23,7.23,0,0,0-.77.89.08.08,0,0,0,.12.09,8.24,8.24,0,0,0,.75-.91l-.1-.07c-.37.42-.72.85-1.11,1.26l.25.25c.38-.49.72-1,1.07-1.52.14-.2-.18-.39-.32-.19Z"/><path class="cls-18" d="M94.71,24.18a15.25,15.25,0,0,0-1.5-.45.21.21,0,0,0-.24.1.9.9,0,0,0,.4,1.3,1.94,1.94,0,0,0,1,.16,4.85,4.85,0,0,1,.66,0,3.37,3.37,0,0,0,.61.1.14.14,0,0,0,.12-.21c-.18-.35-.62-.35-1-.35s-.49,0-.74,0-1-.32-.68-.79l-.24.1a14.17,14.17,0,0,0,1.57.34c.19,0,.19-.25,0-.31Z"/><path class="cls-18" d="M93.58,25a8.86,8.86,0,0,0-.17,1.15.18.18,0,0,0,.13.17,3.4,3.4,0,0,0,.95.18.15.15,0,0,0,.07-.28,3.65,3.65,0,0,0-.93-.25l.14.18a8.53,8.53,0,0,0,0-1.13c0-.09-.14-.12-.16,0Z"/><path class="cls-18" d="M93.14,26.43c1,1.13,2.24,1.34,3.68,1.72,2.27.6,4.55,1.18,6.83,1.76a.24.24,0,0,0,.3-.17c.13-.92.27-1.85.43-2.77a.22.22,0,0,0-.21-.27,22.28,22.28,0,0,1-8.57-1.62c-.29-.12-.42.36-.13.47A21.78,21.78,0,0,0,100.9,27c1.07.13,3.74-.27,2.77,1.59-.64,1.24-3.5-.07-4.71-.38-1.77-.45-4.27-.67-5.68-1.91a.1.1,0,0,0-.14.14Z"/><path class="cls-18" d="M102.15,26.39a3.29,3.29,0,0,0,0-1.76,5.58,5.58,0,0,0-.33-1.82.16.16,0,0,0-.29,0,5.54,5.54,0,0,0,.17,1.85,3.24,3.24,0,0,0,.45,1.69Z"/><path class="cls-18" d="M102,25.72a2.3,2.3,0,0,0,.18,1c0,.08.16,0,.17-.05a2.24,2.24,0,0,0-.24-1c0-.06-.12-.06-.11,0Z"/><path class="cls-18" d="M105.44,18.22a2.49,2.49,0,0,0-2,.6c-.08.07,0,.22.12.16a4,4,0,0,1,2.1-.7c.13,0,.13-.21,0-.21a4.14,4.14,0,0,0-2.2.74l.12.15a2.91,2.91,0,0,1,1.8-.62c.06,0,.08-.11,0-.12Z"/><path class="cls-18" d="M114.48,20.26c.33,0,.66,0,1,0,.09,0,.12-.15,0-.17a9.09,9.09,0,0,0-.91-.15c-.09,0-.1.12,0,.15a8.74,8.74,0,0,0,.89.17l0-.17c-.33,0-.66,0-1,0a.06.06,0,1,0,0,.12Z"/><path class="cls-18" d="M102.77,20.93a3.07,3.07,0,0,0-.26-.25.1.1,0,0,0-.13.14c.08.08.24.18.22.3s-.29.25-.34.3,0,.17.09.12a4.7,4.7,0,0,0,.5-.38.09.09,0,0,0,0-.13l-.34-.35-.13.14.29.23a.08.08,0,0,0,.1-.12Z"/><path class="cls-18" d="M102.79,21.06a4.26,4.26,0,0,0-.5.06c-.11,0-.06.2,0,.17a3.47,3.47,0,0,0,.46-.13s0-.11,0-.1Z"/><path class="cls-18" d="M107.27,27.28a6.93,6.93,0,0,0,1.81.43,5.16,5.16,0,0,0,1.66.09c.11,0,.09-.18,0-.22a8,8,0,0,0-1.62-.22,12.46,12.46,0,0,0-1.83-.18.05.05,0,0,0,0,.1Z"/><path class="cls-18" d="M108.09,26.85a1.15,1.15,0,0,0,.07.49c0,.06.11.06.11,0a1.17,1.17,0,0,0-.07-.49.06.06,0,0,0-.11,0Z"/><path class="cls-18" d="M109,26.94a1.61,1.61,0,0,0,0,.49.06.06,0,0,0,.12,0,1.61,1.61,0,0,0,0-.49.06.06,0,0,0-.12,0Z"/><path class="cls-18" d="M109.7,27a1.14,1.14,0,0,0,.06.49.06.06,0,0,0,.12,0,1.36,1.36,0,0,0-.08-.49.05.05,0,0,0-.1,0Z"/><path class="cls-18" d="M106.55,31.54a6.33,6.33,0,0,0-.4,1.61,3.58,3.58,0,0,0,0,1.66.13.13,0,0,0,.25,0,6.79,6.79,0,0,0,.1-1.43c.06-.6.17-1.19.27-1.78a.11.11,0,1,0-.22-.06Z"/><polygon class="cls-18" points="96.09 28.08 96.09 28.07 96.09 28.08 96.09 28.08"/><path class="cls-18" d="M96.28,28.08h.28s0,0,0,0h-.28s0,0,0,0Z"/><path class="cls-18" d="M96.35,28.16c-.15.3,0,.62,0,.93a6.93,6.93,0,0,1,0,1.44.19.19,0,0,0,.38,0,4.78,4.78,0,0,0,0-1.51c0-.33-.08-.75-.39-.92a0,0,0,0,0,0,0Z"/><path class="cls-18" d="M96.78,30.76c-.39-1.18-1.74-.82-1.77.42s1.61,2.16,2.37,2.8A28,28,0,0,0,101.66,37c1.79,1,5,2.35,6.51.19a1.83,1.83,0,0,0-1.78-2.95c-.23,0-.18.44.06.41.52,2.77-.17,3.77-2.1,3l-.7-.23a14.55,14.55,0,0,1-3.12-1.65c-.88-.58-1.71-1.22-2.53-1.88l-.93-.77c-.89-.46-1-1.23-.47-2.31a.1.1,0,0,0,.18-.08Z"/><path class="cls-18" d="M106.28,34.79q-1.25,2.82-3.58,1.4a6.9,6.9,0,0,1-1.51-1.07,16,16,0,0,1-1.7-1.89,10.79,10.79,0,0,0-3.21-3,.13.13,0,0,0-.13.22c2.51,1.93,4.22,5.85,7.57,6.47,1.36.25,3.64-.45,2.69-2.19,0-.07-.15,0-.13.06Z"/><path class="cls-18" d="M95.44,30.14a2.23,2.23,0,0,0,1.66,2c.09,0,.17-.12.07-.17a3.07,3.07,0,0,1-1.66-1.85s-.07,0-.07,0Z"/><path class="cls-18" d="M107.34,34.82a1.06,1.06,0,0,1,0,1,.09.09,0,0,0,.15.09.85.85,0,0,0-.06-1.15c0-.05-.13,0-.09.08Z"/><path class="cls-18" d="M108.41,35.93c1.74,1.71,4.27,1.76,6.53,2.31s4.24,1.62,4.83,4c.53,2.14-.33,4.26-.78,6.33,0,.11.14.2.2.08,1.25-2.69,2.07-6.45-.18-8.87-2.55-2.74-7.29-2.31-10.47-4a.11.11,0,0,0-.13.17Z"/><path class="cls-18" d="M119.19,49.54h-.09c-.36,0,.11.48.13.13v-.1a0,0,0,0,0,0,0Z"/><path class="cls-18" d="M118.35,48.08a19.31,19.31,0,0,0-2.53,4.2s.06.08.09,0c.85-1.4,1.65-2.81,2.56-4.17,0-.08-.07-.14-.12-.07Z"/><path class="cls-18" d="M118.85,49.44A8.25,8.25,0,0,0,118,54.8c0,.15.24.1.26,0,.12-.88,0-1.77.17-2.65s.35-1.74.54-2.6c0-.09-.11-.15-.15-.07Z"/><path class="cls-18" d="M112.12,37.44a.13.13,0,0,0,0-.25.13.13,0,0,0,0,.25Z"/><path class="cls-18" d="M112.16,37.55c3.29-.12,7.72-.25,8.84,3.73.84,3-.93,5.94-2.45,8.41-.12.2.19.38.32.18,1.7-2.72,3.67-6.12,2.27-9.4-1.48-3.51-5.76-3.6-9-3.25-.21,0-.22.34,0,.33Z"/><path class="cls-18" d="M95.06,31.39c-1.21-.3-2.44-.44-3.65-.77s-2.17-.89-3.3-1.12a2.44,2.44,0,0,0-2.83,1,.15.15,0,0,0,.23.18c1.66-1.57,3.67-.21,5.45.29a11.17,11.17,0,0,0,4.09.53.05.05,0,0,0,0-.1Z"/><path class="cls-18" d="M92.82,31.33c-2.12-2-5.57-3.75-8.47-2.33-3.08,1.5-2.34,5.52-2.27,8.32a.22.22,0,0,0,.43,0c0-2.75-.83-7,2.51-8.11,2.93-1,5.27,1,7.74,2.2,0,0,.1,0,.06-.08Z"/><path class="cls-18" d="M85.52,30.24a56.78,56.78,0,0,0-7.06,21.3c0,.11.16.13.19,0,1-3.61,1.72-7.27,2.89-10.84s2.69-7,4.11-10.43c0-.07-.09-.12-.13-.05Z"/><path class="cls-18" d="M78.73,51A41.75,41.75,0,0,0,85,54.42,9.67,9.67,0,0,0,90,55.77a.17.17,0,0,0,0-.34c-4.17-.55-7.27-3.3-11.17-4.56-.08,0-.11.08-.06.12Z"/><path class="cls-18" d="M88,55.85c3.39,2.18,7.32,3.45,10.79,5.53.25.15.46-.23.23-.39a45.53,45.53,0,0,0-5.64-2.91A49.68,49.68,0,0,0,88,55.69c-.09,0-.14.11-.06.16Z"/><path class="cls-18" d="M98.76,60.2c-.16.86-.67,5.3,1.43,3.84,1-.69,1.06-2.24.9-3.31-.41-2.65-2.66-5-.84-7.7.07-.1-.09-.23-.18-.14A4,4,0,0,0,99.42,57a27.72,27.72,0,0,1,1.27,3.83,3.41,3.41,0,0,1,0,1.82l-1.73-.34c-.23-.34,0-1.66,0-2,0-.1-.17-.13-.19,0Z"/><path class="cls-18" d="M99.49,54c.4-.64.86-1.25,1.23-1.91.19-.31.27-.63,0-.91a1.39,1.39,0,0,0-2.11.64.12.12,0,0,0,.2.11,1.56,1.56,0,0,1,.74-.55c.51-.17,1.12-.06.89.64a7.9,7.9,0,0,1-.48.91c-.18.34-.34.68-.51,1a0,0,0,0,0,.08,0Z"/><path class="cls-18" d="M99.91,51a11,11,0,0,0-9-1.89.15.15,0,0,0,0,.29,14.76,14.76,0,0,1,8.82,1.75c.1.06.18-.08.09-.15Z"/><path class="cls-18" d="M91,48.89a39.26,39.26,0,0,0-5.22-1.36.1.1,0,0,0-.05.19A39.33,39.33,0,0,0,91,49a0,0,0,1,0,0-.09Z"/><path class="cls-18" d="M96.87,49.56a19.28,19.28,0,0,0-11.21-4.68c-.14,0-.16.2,0,.24,1.94.61,3.9,1,5.79,1.75a47.12,47.12,0,0,1,5.35,2.83c.08,0,.18-.07.1-.14Z"/><path class="cls-18" d="M88.84,45.63a6.57,6.57,0,0,0-1.54-1.34,5.55,5.55,0,0,0-2-1c-.12,0-.25.13-.14.23a13.31,13.31,0,0,0,1.77,1c.64.38,1.22.86,1.87,1.22,0,0,.11,0,.07-.07Z"/><path class="cls-18" d="M88.42,45.56c.81-1.21,1.57-2.42,2.49-3.54s1.8-1.88,2.72-2.82c.07-.07,0-.2-.11-.14a16.28,16.28,0,0,0-5.17,6.45c0,.05,0,.09.07.05Z"/><path class="cls-18" d="M90.57,41.81a2.4,2.4,0,0,0,.61-.58c.06-.08-.06-.19-.14-.13a2.41,2.41,0,0,0-.58.61c0,.06.05.15.11.1Z"/><path class="cls-18" d="M91.08,41.7c.41-.58.76-1.21,1.12-1.82a9.09,9.09,0,0,0,.85-1.71.12.12,0,0,0-.2-.11,8.75,8.75,0,0,0-1,1.75c-.31.6-.62,1.21-.87,1.83,0,.08.08.12.13.06Z"/><path class="cls-18" d="M91.45,41.43c.61-.29,1.21-.59,1.83-.85a15.94,15.94,0,0,0,1.65-.69c.12-.07,0-.23-.09-.21a9.39,9.39,0,0,0-3.44,1.66.05.05,0,1,0,0,.09Z"/><path class="cls-18" d="M91.29,41.5c-.47.57-.78,1.27-1.24,1.86S89,44.43,88.47,45a.15.15,0,0,0,.18.23,6.09,6.09,0,0,0,1.66-1.62,4.78,4.78,0,0,0,1.07-2s0-.09-.09,0Z"/><path class="cls-18" d="M88.21,45.36a4.92,4.92,0,0,0,3.2-3.65c0-.24-.31-.34-.37-.1a5.49,5.49,0,0,1-2.87,3.65s0,.11,0,.1Z"/><path class="cls-18" d="M91,42a8.35,8.35,0,0,1-1.11,2.11,20.37,20.37,0,0,1-1.67,1.68c-.06.06,0,.21.1.17,1.46-.62,2.43-2.47,2.77-3.93,0-.06-.07-.09-.09,0Z"/><path class="cls-18" d="M101.22,52.53c.1-.57.15-1.15.21-1.73a7.73,7.73,0,0,0,.09-1.73c0-.14-.23-.11-.26,0a6.55,6.55,0,0,0-.19,1.6c0,.61-.09,1.22-.09,1.83,0,.13.22.17.24,0Z"/><path class="cls-18" d="M101.14,49.41a11.29,11.29,0,0,1-.24-2.24c0-.66.24-1.31.21-2a.12.12,0,0,0-.22-.06c-.76,1.14-.47,3.16,0,4.35,0,.13.23,0,.21-.09Z"/><path class="cls-18" d="M101.08,45.59a4.44,4.44,0,0,1,.29-2.52c.07-.18-.21-.28-.31-.13a2.67,2.67,0,0,0-.06,2.68,0,0,0,0,0,.08,0Z"/><path class="cls-18" d="M101.19,43.54c-.12-1-.61-2.44-.38-3.44l0-.87L104,38.6c1,.75.7,2.64.66,3.59,0,.39.74,7-.16,6.82-.24,0-.35.33-.1.38,1.52.33,1-2.76,1-3.46-.08-1.55-.21-3-.14-4.5a4.18,4.18,0,0,0-.4-2.29c-.59-1.13-2.33-2.33-3.65-1.55-1.68,1-.59,4.56-.17,6,0,.1.21.09.19,0Z"/><path class="cls-18" d="M100.88,49.4c1.17.81,3.24.29,4.49-.14a.25.25,0,0,0,0-.47,1.36,1.36,0,0,0-.49-.08c-.18,0-.2.21-.08.3a.93.93,0,0,0,.38.23l.06-.45a8.45,8.45,0,0,1-2.43.48,8.8,8.8,0,0,0-1.92,0,0,0,0,0,0,0,.08Z"/><path class="cls-18" d="M101,45.69a4.77,4.77,0,0,0,3.75-.52.16.16,0,0,0-.12-.26,11,11,0,0,0-1.57.34,16.81,16.81,0,0,1-2,.08.18.18,0,0,0,0,.36Z"/><path class="cls-18" d="M100.7,43c1,.77,2.73.46,3.85,0,.29-.1.17-.57-.13-.46a6.07,6.07,0,0,1-1.93.38,17.43,17.43,0,0,0-1.77,0,0,0,0,0,0,0,.08Z"/><path class="cls-18" d="M105.16,49.39c0,.39,0,.79,0,1.18a3,3,0,0,0,.09,1,.07.07,0,0,0,.13,0,3.38,3.38,0,0,0,0-1.1c0-.37,0-.74-.09-1.1,0-.08-.13,0-.13,0Z"/><path class="cls-18" d="M104.94,62.49c-.46,8.61.28,17.41.5,26s.39,17.35.68,26a.23.23,0,0,0,.46,0c-.15-8.68-.43-17.35-.65-26s.07-17.45-.82-26a.09.09,0,0,0-.17,0Z"/><path class="cls-18" d="M77.84,109.88c-.87.3-.74.32-.88,1.35a43.27,43.27,0,0,0-.16,6.54c.06,3.27.36,4.09,3.81,4,9-.36,17.32-4.09,25.73-6.77.15,0,.09-.29-.06-.24-5.75,1.83-11.38,4.09-17.25,5.51-2.84.68-6.38,1.68-9.31,1.28-3.19-.45-2.66-2.91-2.7-5.13,0-1.15-.38-5.82.89-6.25.15-.05.08-.29-.07-.24Z"/><path class="cls-18" d="M77.3,110.58c.14-1.67,3.69-.39,4.86-.19q2.69.44,5.37.79c3.28.46,6.57.84,9.86,1.17,1.87.19,4.63,1,6.12-.66s.81-3.86.63-5.67c-.66-7-.61-14.06-.93-21q-.51-11.14-1-22.29c0-.29-.46-.29-.45,0q.85,18.23,1.68,36.46c.12,2.7.16,5.38.43,8.07.12,1.14.34,2.77-.34,3.78-1.28,1.91-4.78,1.09-6.6.91-6.54-.65-13.08-1.43-19.56-2.48a.06.06,0,0,0-.08.06l-.09,1.1c0,.08.12.08.13,0Z"/><path class="cls-18" d="M84,110.62c-2.79,3.29-2.13,9,2,11,.14.06.31-.11.18-.22-3.49-2.88-4.57-6.62-2-10.66a.09.09,0,0,0-.14-.11Z"/><path class="cls-18" d="M79.63,112.47c-1.29,1.83-1.43,4.8.32,6.43a.18.18,0,0,0,.29-.22c-1.17-2-1.66-4-.52-6.16,0-.06,0-.1-.09,0Z"/><path class="cls-18" d="M85,54.31c0,4.82.16,9.6.07,14.43,0,.15.24.19.26,0A43.19,43.19,0,0,0,85,54.3s0,0,0,0Z"/><path class="cls-18" d="M85.38,63a22.08,22.08,0,0,1-2.63,3.81c-.94,1.07-2.11,1.9-3,2.94a.13.13,0,0,0,.15.21c2.54-1.26,4.53-4.4,5.64-6.89a.07.07,0,0,0-.12-.07Z"/><path class="cls-18" d="M81.21,69.7c-.5-.52-1.16-1.11-1.95-.86a1,1,0,0,0-.69,1.35c.4,1,2.24,1.34,3.08,1.66,2.27.88,4.54,1.91,6.89,2.59.14,0,.24-.18.1-.25-1.52-.74-3.13-1.29-4.71-1.9l-2.53-1c-.63-.24-1.24-.49-1.86-.75.48-1,1-1.26,1.52-.67.12.09.25-.09.15-.19Z"/><path class="cls-18" d="M105,81.61c2.4.41,4.93-.1,6.43-2.15.09-.13-.13-.26-.22-.13-1.43,2-3.86,2.43-6.14,2-.16,0-.23.22-.07.24Z"/><path class="cls-18" d="M89.91,75.55c4.27,1.83,8.49,3.79,12.84,5.43.15.06.22-.18.07-.24-4.33-1.63-8.53-3.58-12.78-5.41-.15-.06-.28.15-.13.22Z"/><path class="cls-18" d="M112.19,78.37a3.93,3.93,0,0,1,4.94-2.56c.15,0,.25-.19.11-.26-2.12-1-4.72.63-5.17,2.79a.06.06,0,0,0,.12,0Z"/><path class="cls-18" d="M114.45,75.9c.77-1,2,.92,2.9.76a1.34,1.34,0,0,0,1-1.29c.08-2.09-2.87-1.89-4.08-1.29-.14.07,0,.26.1.24.92-.14,1.88-.57,2.78-.12a1.26,1.26,0,0,1,.79,1.38.9.9,0,0,1-1.42.5c-.63-.34-1.65-1.19-2.22-.28,0,.08.07.18.13.1Z"/><path class="cls-18" d="M115.72,74.06a7.65,7.65,0,0,1-2.3-1.65,13.14,13.14,0,0,1-1.56-2.35.13.13,0,0,0-.24.1c.4,1.88,2.34,3.39,4.07,4,0,0,.08-.06,0-.08Z"/><path class="cls-18" d="M115.76,73.89c-.05-6.76-7.25-11.43-4.59-18.56,0-.13-.16-.21-.23-.09-1.47,2.55-.89,5.47.19,8.08,1.5,3.62,3.78,6.63,4.42,10.59,0,.13.21.09.21,0Z"/><path class="cls-18" d="M114.38,47a47.37,47.37,0,0,0-5.7,20c0,.13.21.17.23,0a74,74,0,0,1,5.57-20c0-.06-.06-.12-.1-.06Z"/><path class="cls-18" d="M114,48.08a15.63,15.63,0,0,0,0-2.56,14.78,14.78,0,0,0-.13-2.58c0-.11-.17-.07-.18,0a16.84,16.84,0,0,0,0,2.75,14.38,14.38,0,0,0,.18,2.37,0,0,0,0,0,.07,0Z"/><path class="cls-18" d="M114,47.87c.45-1.3.87-2.61,1.34-3.9l-.25-.07a12.74,12.74,0,0,0-.24,1.35c0,.09.11.09.14,0a9.58,9.58,0,0,0,.35-1.3.13.13,0,0,0-.25-.07c-.36,1.32-.78,2.64-1.17,4,0,.06.06.08.08,0Z"/><path class="cls-18" d="M114.64,47.25c.47-.71.94-1.43,1.43-2.13.11-.17-.15-.38-.28-.22s-.31.38-.45.57,0,.19.13.14.39-.3.57-.46l-.28-.22c-.45.73-.93,1.45-1.39,2.16-.11.17.16.33.27.16Z"/><path class="cls-18" d="M114.52,45.81a13,13,0,0,0,.25-2.55.13.13,0,0,0-.25,0,12.32,12.32,0,0,0-.33,2.58c0,.22.31.21.33,0Z"/><path class="cls-18" d="M118.37,51.29A4.8,4.8,0,0,0,121,53.61c1.58.68,3.49.55,3.82,2.68,0,.15.23.1.24,0a2.29,2.29,0,0,0-1.63-2.44c-.84-.32-1.73-.39-2.54-.79a13.83,13.83,0,0,1-2.43-1.81.06.06,0,0,0-.09.07Z"/><path class="cls-18" d="M125.39,55.73a29.44,29.44,0,0,0,3.33,1.77,22.8,22.8,0,0,0,3,1.4c.18.06.27-.2.12-.3a26.41,26.41,0,0,0-3.34-1.74,26.25,26.25,0,0,0-3-1.37c-.15-.05-.22.16-.11.24Z"/><path class="cls-18" d="M131.06,58.74a.39.39,0,0,1,.59-.13.5.5,0,0,1,.24.63,1.66,1.66,0,0,1-.66.82,2.65,2.65,0,0,0-1,.91.16.16,0,0,0,.25.19A13.75,13.75,0,0,0,131.87,60a1.28,1.28,0,0,0,.35-1.16c-.16-.59-1.15-.89-1.31-.15a.08.08,0,0,0,.15.06Z"/><path class="cls-18" d="M131.36,60.38c-2.05.25-4.55,2.31-4.78,4.46,0,.13.17.15.23.06a13.23,13.23,0,0,1,1.83-2.68,10.12,10.12,0,0,1,2.75-1.73c.05,0,0-.12,0-.11Z"/><path class="cls-18" d="M126.92,63.84c-.58-.22-.9.51-1,1a3.28,3.28,0,0,1-.1.7c-.12.33-.64.69-.71.11,0-.42.45-.71.68-1,.06-.08,0-.18-.13-.16a1.28,1.28,0,0,0-1,.92.83.83,0,0,0,.41.93.81.81,0,0,0,1-.4c.39-.64-.12-1.74.82-2a0,0,0,0,0,0-.07Z"/><path class="cls-18" d="M125.17,65a9.24,9.24,0,0,0-2.23-1.79,8.61,8.61,0,0,0-2.54-1.3c-.12,0-.25.14-.13.23a21.22,21.22,0,0,0,2.29,1.4c.83.52,1.61,1.18,2.49,1.62.1.06.19-.07.12-.16Z"/><path class="cls-18" d="M119.48,62.2h-.1s0,0,0,0h.1s0,0,0,0Z"/><path class="cls-18" d="M120.93,62.27a9.94,9.94,0,0,0-1.78-1.13,12.14,12.14,0,0,0-1.91-1c-.18-.06-.25.19-.12.29a12,12,0,0,0,1.95,1.09,9.73,9.73,0,0,0,1.81.79c.05,0,.09-.06.05-.09Z"/><path class="cls-18" d="M117.59,60.78h-.09s0,0,0,0h.09a0,0,0,0,0,0,0Z"/><path class="cls-18" d="M117.26,60.89a19.41,19.41,0,0,0-2.1-4.17c-.08-.1-.27,0-.22.1A19.12,19.12,0,0,0,117.1,61c.05.08.19,0,.16-.06Z"/><path class="cls-18" d="M116.22,59.58a22.74,22.74,0,0,0-2.47-1.78,12.74,12.74,0,0,0-2.59-1.58.13.13,0,0,0-.12.22,11.52,11.52,0,0,0,2.32,1.63,23.32,23.32,0,0,0,2.76,1.64c.08,0,.17-.06.1-.13Z"/><path class="cls-18" d="M100.67,52.78c.67-.16,3.67-1.36,3.91-.17,0,.19.37.2.4,0,.28-2-3.71-.57-4.44-.15a.17.17,0,0,0,.13.32Z"/><path class="cls-18" d="M103.34,53.53c3.35-2,2.52,2.6,2.35,4a19.51,19.51,0,0,1-.3,2.33c-.56,2-2.54,2.31-4.17,1.72-.18-.07-.27.19-.12.29a3.24,3.24,0,0,0,3.73.22c1.24-1,1.14-3.15,1.3-4.56.14-1.19,1-4.09-.35-4.91-.92-.57-1.87.16-2.51.79,0,.05,0,.12.07.09Z"/><path class="cls-18" d="M132.23,59.2a1.23,1.23,0,0,1,1.54.34,1.18,1.18,0,0,1,.14,1c-.07.24-.16.29-.12.53a.13.13,0,0,0,.15.09c.72-.14.46-1.46.16-1.86a1.52,1.52,0,0,0-2-.38c-.15.11-.06.4.14.33Z"/><path class="cls-18" d="M133,60.89c2.71,1.19.41,3.57-.69,5s-2.38,1.93-4,.64c-.57-.47-1.06-1-1.63-1.48-.24-.19-.59.15-.35.34,1.92,1.56,3.85,3.81,5.95,1.24.66-.82,1.29-1.69,1.92-2.54a3.32,3.32,0,0,0,.92-1.6c.09-1.16-1.1-1.71-2-2-.19,0-.34.25-.14.34Z"/><path class="cls-18" d="M133.53,61.28c-1.24-1.82-3.58,0-4.54,1.12-.77.9-3.09,3.4-1.09,4.21.22.09.38-.24.23-.39a5.32,5.32,0,0,1-1-1.53.14.14,0,0,0-.26.07,2.61,2.61,0,0,0,.93,1.79l.23-.39c-1.43-.58,1.35-3.52,1.72-3.91a3.07,3.07,0,0,1,3.72-.89s.09,0,.06-.08Z"/><path class="cls-18" d="M132.08,63a4.51,4.51,0,0,0-.92.88,3,3,0,0,0-.7.92c0,.11.1.2.2.15a3.28,3.28,0,0,0,.83-.87,4.51,4.51,0,0,0,.69-1c0-.06,0-.14-.1-.09Z"/><path class="cls-18" d="M132.89,63.18a14.72,14.72,0,0,0-2.47,2.39c-.09.13.08.29.21.21a15.15,15.15,0,0,0,2.46-2.41.14.14,0,0,0-.2-.19Z"/><path class="cls-18" d="M104.9,55.22c-.12.66-.2,1.33-.3,2a6.33,6.33,0,0,0-.17,1.78.11.11,0,0,0,.22,0,6.93,6.93,0,0,0,.23-1.77c.05-.67.11-1.35.14-2,0-.06-.11-.08-.12,0Z"/><path class="cls-18" d="M104.21,55.42a18.81,18.81,0,0,0-.1,3.82.17.17,0,0,0,.33,0,18,18,0,0,0,0-3.82.14.14,0,0,0-.28,0Z"/><path class="cls-18" d="M80.11,70.81C78.22,73.66,76.9,77,75.32,80S72,86,70.42,89.12a.2.2,0,0,0,.35.2C72.66,86.25,74.3,83,76,79.82a62.2,62.2,0,0,0,4.3-8.94.08.08,0,0,0-.15-.07Z"/><path class="cls-18" d="M71.58,87.7a3,3,0,0,1-1.06-.26c-.27-.12-.49-.33-.76-.45a.13.13,0,0,0-.17.17,1.93,1.93,0,0,0,2,.74c.12,0,.08-.19,0-.2Z"/><path class="cls-18" d="M92.86,83c-2.38,2.94-4.55,6-7.1,8.8S80,98.65,76,99.36a.18.18,0,0,0,.05.35c3.62,0,6.6-3.86,8.9-6.26A53.8,53.8,0,0,0,93,83.17c.06-.11-.1-.24-.18-.14Z"/><path class="cls-18" d="M67.66,93.07c.52,4.46,5.36,7.54,9.65,6.61a.2.2,0,0,0,0-.39c-4.7.31-7.75-1.93-9.36-6.26,0-.12-.26-.11-.24,0Z"/><path class="cls-18" d="M73.24,85c-1-2.38-2-4.77-3-7.15a.17.17,0,0,0-.31,0c-.12.58-4.23.66-4.62.68a28.43,28.43,0,0,1-3.92-.16c-.31,0-.3.45,0,.48a25.54,25.54,0,0,0,8.71-.61.16.16,0,0,0,.12-.12c-.19.94.94,2.6,1.3,3.39.53,1.17,1,2.34,1.58,3.52,0,.08.19,0,.15-.07Z"/><path class="cls-18" d="M61.38,78.49a2,2,0,0,0,.16,1.29.16.16,0,0,0,.27,0,2.15,2.15,0,0,1,.14-.26.09.09,0,0,0-.14-.12l-.22.17.22.05a2.3,2.3,0,0,1-.21-1.1.11.11,0,0,0-.22,0Z"/><path class="cls-18" d="M61.13,79.05c1,1.33,3.51,2.25,5,1.11a.11.11,0,0,0-.08-.2,6.81,6.81,0,0,1-2.54.2,4.65,4.65,0,0,1-2.26-1.23.09.09,0,0,0-.12.12Z"/><path class="cls-18" d="M62.47,80.08c1,4.71,3.21,9.4,5.15,13.79a.16.16,0,0,0,.3,0,9.79,9.79,0,0,1,.89-2.55.1.1,0,0,0-.18-.1c-.3.46-.78,1.81-1,1.72C67,92.7,66,88.85,65.7,88.21c-1.06-2.7-1.88-5.56-3.17-8.16a0,0,0,0,0-.06,0Z"/><path class="cls-18" d="M66.08,83.43a2.93,2.93,0,0,0,2.41-.55c.05,0,0-.13-.07-.1a3.6,3.6,0,0,1-2.32.54c-.07,0-.08.1,0,.11Z"/><path class="cls-18" d="M66.56,84.43a2.32,2.32,0,0,0,2.12-.51,0,0,0,0,0-.06-.07,3,3,0,0,1-2,.5c-.06,0-.08.07,0,.08Z"/><path class="cls-18" d="M67.62,84.56a2.17,2.17,0,0,0,1.21-.89s0-.06,0,0a3,3,0,0,1-1.19.83.05.05,0,1,0,0,.1Z"/><path class="cls-18" d="M66.78,84.64c-.22-.32.68-.52.91-.61a0,0,0,1,0,0-.09l-.45-.13s0,0,0,0,.18.16.34.22h.07a.2.2,0,0,0-.28,0,5,5,0,0,0-.72.3s0,0,0,.06l.16.23s.09,0,.06,0Z"/><path class="cls-18" d="M66.75,83c.24.66.46,1.33.73,2,0,0,.12,0,.1,0-.23-.67-.52-1.32-.78-2,0,0-.06,0,0,0Z"/><path class="cls-18" d="M67.73,83.73c.13.32.26.64.41,1,0,0,.11,0,.09,0-.1-.32-.23-.64-.35-1,0-.1-.19,0-.15,0Z"/><path class="cls-18" d="M67.85,83a13.33,13.33,0,0,0,.59,1.64s.11,0,.1,0A13.91,13.91,0,0,0,67.91,83s-.07,0-.06,0Z"/><path class="cls-18" d="M68,82.49c.12.63.22,1.27.35,1.9l.09,0c-.52-.47-1-1-1.51-1.45a0,0,0,1,0,0,0c.18.33.35.66.53,1a0,0,0,0,0,.09,0,.22.22,0,0,0-.14-.29s-.06,0-.07,0a.78.78,0,0,0,0,.77s.1,0,.08,0a1.29,1.29,0,0,1-.07-.56q.14-.08,0-.18l-.09-.16c-.07-.12-.45-.57-.1-.26s.81.81,1.19,1.23a.05.05,0,0,0,.09,0c-.12-.64-.28-1.26-.43-1.89,0,0,0,0,0,0Z"/><path class="cls-18" d="M61.6,78.28l.1.25a.09.09,0,1,0,.18,0C61,75,57.73,70.68,59,67c.05-.15-.15-.21-.23-.1-1,1.36-.6,2.93-.06,4.43.46,1.28,1,2.54,1.48,3.8.38,1,.63,2.36,1.42,3.09a0,0,0,0,0,0,0Z"/><path class="cls-18" d="M58.41,69.46A5.27,5.27,0,0,1,58.23,66c0-.12-.16-.21-.22-.09a3.31,3.31,0,0,0,.33,3.56s.09,0,.07,0Z"/><path class="cls-18" d="M58.69,71.48c-3.07-4.2-7.48-9.37-2.91-14.27a.17.17,0,0,0-.24-.25C50.37,61,55,68.3,58.54,71.59c.08.07.22,0,.15-.11Z"/><path class="cls-18" d="M70.05,77.82a2.71,2.71,0,0,1-.56-1.14c0-.22-.4-.13-.34.1A1.88,1.88,0,0,0,69.92,78c.07,0,.18,0,.13-.13Z"/><path class="cls-18" d="M70.06,77.93a59.86,59.86,0,0,0-2.94-11,.19.19,0,0,0-.36.11A60.45,60.45,0,0,0,70,78s.09,0,.08,0Z"/><path class="cls-18" d="M65.73,68.17a4.72,4.72,0,0,0,1.67-4.7.18.18,0,0,0-.36.05,10.32,10.32,0,0,1-.29,2.41,13.35,13.35,0,0,1-1.09,2.17c0,.05,0,.11.07.07Z"/><path class="cls-18" d="M67.05,64A44.77,44.77,0,0,0,59,57.92c-1.21-.78-3.11-2.05-3.93-.17,0,.11.09.25.19.14,2-2.26,10,5.15,11.75,6.19.06,0,.12,0,.07-.1Z"/><path class="cls-18" d="M56,58.33a.08.08,0,1,0,0-.16.08.08,0,1,0,0,.16Z"/><path class="cls-18" d="M55.85,57.21A2.47,2.47,0,0,0,56,58.29a.08.08,0,0,0,.13,0A2.47,2.47,0,0,0,56,57.19a.09.09,0,0,0-.17,0Z"/><path class="cls-18" d="M56.31,57.48a1,1,0,0,0-.93,1.25c.25,1.43,3,2,3.91,2.49A14.26,14.26,0,0,1,62.69,64a5.76,5.76,0,0,0,1.89,1.65,2.18,2.18,0,0,0,1.33.15c.26-.07.93-.38,1-.73,0,0,.81-1.25-.38-.44-.14.1-.06.35.12.29l.27-.08a.21.21,0,0,0,.15-.2l0-.29c0-.24-.37-.29-.41-.06-.65,3.08-3.71-.68-4.17-1.14a14.31,14.31,0,0,0-1.74-1.46,14.84,14.84,0,0,0-2.58-1.45c-.11-.05-4.32-1.65-1.85-2.59.07,0,.07-.14,0-.13Z"/><path class="cls-18" d="M55,66.18a1.34,1.34,0,0,0,.09-.53,3,3,0,0,1,.34-1.09l-.17.07.52.11-.11-.19a4.12,4.12,0,0,0,.06,2.62c.05.09.18,0,.19,0A11.52,11.52,0,0,0,55.83,66,5.86,5.86,0,0,1,56,64.63a.16.16,0,0,0-.11-.19l-.52-.1a.18.18,0,0,0-.18.07c-.23.46-.56,1.31-.19,1.77Z"/><path class="cls-18" d="M56.83,68.43a2.31,2.31,0,0,1,.55-1.59l-.25-.06a5.33,5.33,0,0,1,.09,1.13,6.71,6.71,0,0,0-.08,1,.1.1,0,0,0,.18,0,3.34,3.34,0,0,0,.09-2.25c0-.14-.2-.13-.26,0a2.48,2.48,0,0,0-.43,1.79c0,.06.11,0,.11,0Z"/><path class="cls-18" d="M55,57.87v-.09s-.06,0-.06,0v.09s0,0,0,0Z"/><path class="cls-18" d="M54.92,57.86a2.92,2.92,0,0,0-.36,1.63c0,.08.13.09.17,0a1.91,1.91,0,0,0,.16-.76,2.66,2.66,0,0,0,0-.89Z"/><path class="cls-18" d="M54.8,58.08a2.65,2.65,0,0,0,.87,3.56,16.23,16.23,0,0,0,2.82,1.43A26.67,26.67,0,0,1,62,65.68c1.18.9,2.75,1.71,4.27,1.14a2.32,2.32,0,0,0,1.36-3.15c-.12-.29-.59-.16-.47.13-1.42,2.37-2.86,3-4.3,1.9a17.32,17.32,0,0,1-1.64-1.33c-.39-.32-.75-.66-1.16-1-1.89-1.34-6.23-2-5.12-5.3,0-.06-.07-.09-.1,0Z"/><path class="cls-18" d="M58.26,59.25A23.14,23.14,0,0,0,60,57.15L59.6,57a6.65,6.65,0,0,1-1,2.07l.42.17.55-1.44c.1-.26-.29-.39-.43-.18a5.11,5.11,0,0,0-.64,1.17c-.05.14.13.21.22.13a5.11,5.11,0,0,0,.83-1.07l-.43-.18-.54,1.45c-.09.25.28.37.42.17a6.39,6.39,0,0,0,1-2.18.21.21,0,0,0-.38-.16,21.42,21.42,0,0,0-1.44,2.25c0,.05,0,.11.08.06Z"/><path class="cls-18" d="M63.49,62.52c.6-.63,1.13-1.31,1.66-2,.2-.24-.14-.58-.34-.34-.49.6-1,1.22-1.47,1.83-.2.24.14.58.34.34l1.38-1.65-.39-.3a4.11,4.11,0,0,0-.79,1.37c0,.13.11.28.24.19a4.11,4.11,0,0,0,1-1.31c.15-.23-.2-.52-.38-.3-.46.55-.92,1.1-1.37,1.66l.34.34c.49-.61,1-1.22,1.47-1.83l-.37-.29c-.53.68-1.06,1.36-1.52,2.08-.09.15.12.31.23.19Z"/><path class="cls-18" d="M59,71.47a6.25,6.25,0,0,0,3.83-.71l-.36-.15A2.64,2.64,0,0,0,63.13,72l.11-.41a17.8,17.8,0,0,1-3.15.65c-.36,0-.26.59.07.48l.23-.08c.11,0,.16-.21,0-.27l-.21-.1-.13.46a18.33,18.33,0,0,0,3.28-.66.25.25,0,0,0,.11-.41,2.16,2.16,0,0,1-.55-1.17c0-.16-.23-.2-.36-.14a11,11,0,0,1-3.54.81c-.17,0-.24.28,0,.32Z"/><path class="cls-18" d="M60.41,75.19a3,3,0,0,0,2.69-.46l-.36-.21a4.49,4.49,0,0,0,.27,1.7l.17-.31a17.39,17.39,0,0,0-1.76.27.22.22,0,0,0,.06.43c.61,0,1.23-.14,1.83-.22a.24.24,0,0,0,.17-.3,4.42,4.42,0,0,1-.26-1.57.24.24,0,0,0-.36-.21,4,4,0,0,1-1.25.52,11.68,11.68,0,0,0-1.18.22.08.08,0,0,0,0,.14Z"/><path class="cls-18" d="M91.46,85.82a19.54,19.54,0,0,1,3.33-1.06,23.59,23.59,0,0,1,3.94-.11.16.16,0,0,0,0-.31,9.34,9.34,0,0,0-7.41,1.25c-.11.07,0,.28.1.23Z"/><path class="cls-18" d="M96.9,82c1.42,2,3.77,3.49,5.79,4.77.26.17.5-.25.24-.42C100.86,85,99.07,83.27,97,81.93c-.06,0-.15,0-.1.1Z"/><path class="cls-18" d="M105.77,88.93c2.55,2,5.4,3.59,8,5.61a81.54,81.54,0,0,1,7.24,6.54c.21.22.55-.12.33-.34-4.28-4.45-9.66-9.47-15.38-12-.12,0-.28.1-.15.19Z"/><path class="cls-18" d="M116.93,76.57a.13.13,0,0,0,0-.25.13.13,0,0,0,0,.25Z"/><path class="cls-18" d="M117,76.42v0c0-.1,0-.2-.15-.2h-.14c-.06,0-.08,0-.06.1l.06.14c0,.08.15.09.22,0-.29.18.06,0,.06,0Z"/><path class="cls-18" d="M116.39,76.33a87.85,87.85,0,0,1,13.07,19.9c.11.23.53.06.42-.18a61.09,61.09,0,0,0-13.22-20c-.18-.18-.43.08-.27.27Z"/><path class="cls-18" d="M128.63,96.19c2.47,3.49,2.3,6.77-1.08,9.54-.17.14,0,.37.22.28,3.6-1.79,4.37-7.54,1-10-.1-.07-.23.07-.17.16Z"/><path class="cls-18" d="M128.87,105.42c-1.74,2-2.89,4.65-4.13,7a80.39,80.39,0,0,0-3.6,7.34c-.09.2.24.33.34.14,1.37-2.51,2.56-5.13,3.9-7.66,1.19-2.22,2.73-4.4,3.58-6.77,0,0-.05-.09-.09,0Z"/><path class="cls-18" d="M120.15,100a16.31,16.31,0,0,0-4.3,12.32.13.13,0,0,0,.26,0,25.08,25.08,0,0,1,4.15-12.23.07.07,0,0,0-.11-.09Z"/><path class="cls-18" d="M116.64,109.34l0,0a.23.23,0,0,0-.14-.33l-.06,0a.15.15,0,0,0-.16.07l0,0a.23.23,0,0,0,.13.33l.07,0a.13.13,0,0,0,.15-.07Z"/><path class="cls-18" d="M116.39,109.39c2.15,1.83,6.73,3,9.31,1.53.11,0,.07-.26-.07-.24a13,13,0,0,1-4.65.12c-1.58-.33-3-1.21-4.53-1.5,0,0-.1,0-.06.09Z"/><path class="cls-18" d="M115.53,111.52a55.07,55.07,0,0,0-3.1,6.31c-1,2.11-2.22,4.15-3.17,6.3a.17.17,0,0,0,.29.16,57.57,57.57,0,0,0,3.51-6.64,30.9,30.9,0,0,0,2.55-6.09c0-.06,0-.08-.08,0Z"/><path class="cls-18" d="M118.68,121.66c3.47-1.69,7.6-1.16,9.61,2.46,1.87,3.36.3,7-2.64,9a.21.21,0,0,0,.21.36,7.14,7.14,0,0,0,2.85-9.63,7,7,0,0,0-10.17-2.45.14.14,0,0,0,.14.24Z"/><path class="cls-18" d="M127.49,123.12l.09.28s0,0,0,0l-.09-.29s0,0,0,0Z"/><path class="cls-18" d="M128.11,124.08c-.13-.2-.2-.32-.45-.33a.15.15,0,0,0-.14.14c0,.25.13.32.33.45a.19.19,0,0,0,.26-.26Z"/><path class="cls-18" d="M128.44,124.41c-1.54-2.18-5.18-3.14-7.43-1.5-.11.09-.05.28.1.24a7.81,7.81,0,0,1,4-.38,6.86,6.86,0,0,1,3.06,1.87c.15.14.42,0,.29-.23Z"/><path class="cls-18" d="M121.27,122.81c-.18.58-.34,1.17-.49,1.76a.23.23,0,0,0,.28.27,12,12,0,0,1,8.42,1.74c.19.12.44-.18.25-.33a10.43,10.43,0,0,0-4.78-2,24.48,24.48,0,0,0-2.84-.07c-.46,0-.51.23-.8-.12a11.69,11.69,0,0,1,.15-1.24c0-.11-.16-.13-.19,0Z"/><path class="cls-18" d="M120.6,127.59a5.42,5.42,0,0,0,3.05-.32c2.54-.64,3.74.67,4.9,2.72.15.28.54,0,.42-.25-1.21-2.71-4.72-4.22-7.27-2.26-.12.1-.06.36.12.29,2.69-1.11,5.45-.65,6.73,2.22l.42-.25c-.73-1.28-1.58-2.71-3.1-3.11-1.78-.46-3.49.8-5.26.84a.06.06,0,0,0,0,.12Z"/><path class="cls-18" d="M121.91,117.63a9.61,9.61,0,0,0-4.28-.81c-.68,0-2.57-.53-3,.24s.58,1.19,1.14,1.29c1.93.33,4,.42,5.9.61.31,0,.31-.45,0-.48l-3.18-.34a13.81,13.81,0,0,1-1.59-.16.88.88,0,0,1-.94-.42c-.57-.36-.55-.47.06-.34a11,11,0,0,1,2.79.13,12.28,12.28,0,0,1,3,.54.14.14,0,0,0,.12-.26Z"/><path class="cls-18" d="M123.56,114.66a9.59,9.59,0,0,0-4.65-1.14c-.57,0-2.37-.27-2.69.55-.25.63.39,1,.9,1.14,1,.27,2.12.32,3.17.67s1.8.71,2.7,1.06c.23.09.38-.28.17-.39a17.83,17.83,0,0,0-2.74-1.15,13.55,13.55,0,0,0-1.63-.44,6.38,6.38,0,0,1-1.26-.19c-1.57-.9.1-.76.63-.77a13.4,13.4,0,0,1,2,.1c1.14.13,2.25.47,3.39.62,0,0,0,0,0-.06Z"/><path class="cls-18" d="M110.09,122.69c-2.88,2.3,3.28,4.73,4.52,5.38l7.35,3.86c1.48.77,2.93,1.68,4.6,1a.19.19,0,0,0-.1-.36c-2.81.59-6.6-2.34-9-3.6-1.44-.76-9-3.69-7.31-6.28,0,0,0-.06,0,0Z"/><path class="cls-18" d="M111.05,126.29a7.83,7.83,0,0,0-.88.94l.38.29.72-1-.44-.19a3.52,3.52,0,0,1-.69,1.06l.39.29.39-.59c.16-.22-.2-.51-.38-.29a2.43,2.43,0,0,0-.6.86c0,.14.12.24.24.18a2.37,2.37,0,0,0,.71-.7l-.39-.29-.39.59c-.16.23.19.5.38.29a4.23,4.23,0,0,0,.81-1.27c.11-.27-.3-.39-.45-.19l-.71,1c-.16.22.2.5.38.29a8.24,8.24,0,0,0,.82-1,.19.19,0,0,0-.29-.23Z"/><path class="cls-18" d="M119.19,130.4a2.62,2.62,0,0,0-1,1.55.24.24,0,0,0,.4.23,3.75,3.75,0,0,0,.94-1.25l-.44-.19-.3.82a.24.24,0,0,0,.44.19l.21-.39-.45-.19a2.19,2.19,0,0,1-.35.59.2.2,0,0,0,.22.29.94.94,0,0,0,.6-.75c.07-.26-.32-.44-.45-.19l-.2.4.45.18.3-.82c.09-.25-.33-.44-.45-.19a3.51,3.51,0,0,1-.86,1.16l.41.24a3,3,0,0,1,.82-1.36c.15-.17-.05-.46-.24-.32Z"/><path class="cls-18" d="M122.41,127.48a20.83,20.83,0,0,1-7.17-2.57c-1.23-.81-2.64-2.75-4.18-3-2.37-.41-2.13,2.28-1.1,3.51.19.23.51-.06.39-.29-.58-1.51-.23-2.6,1.07-3.29a.17.17,0,0,0-.14-.31,2.33,2.33,0,0,0-1.62,1.6,2.83,2.83,0,0,0-.12,1.19c.3,2,2-1.24,3.46-.49,1.57.84,2.8,2.12,4.52,2.83a12.38,12.38,0,0,0,4.86,1,.1.1,0,0,0,0-.19Z"/><path class="cls-18" d="M123.87,128.88a2.63,2.63,0,0,1,2.12.28c.59.4.67,1,1.07,1.47.07.09.25.11.28,0a2.16,2.16,0,0,0-1.13-1.83,2.67,2.67,0,0,0-2.47-.2c-.18.08,0,.35.13.31Z"/><path class="cls-18" d="M123.51,130.36a2.83,2.83,0,0,1,1.67,1c.14.18.42-.05.31-.23a2,2,0,0,0-2-.94c-.08,0-.08.14,0,.16Z"/><path class="cls-18" d="M122,129.86a9.31,9.31,0,0,1-2.29-.21c-.67-.17-1.28-.51-1.94-.65-.13,0-.27.14-.14.24,1.1.91,3,1,4.39.73.06,0,0-.11,0-.11Z"/><path class="cls-18" d="M108,126.62c2.1,2,5.12,3.27,7.62,4.73,2.68,1.57,5.33,3.24,8.06,4.72,1.18.63,2.83,1.34,4,.28a1.58,1.58,0,0,0,.22-2.27c-.1-.13-.36-.07-.29.12q-1.92,2.64-3.71,1.44c-.4-.22-.79-.45-1.18-.68l-1.72-1-4.73-2.77c-2.63-1.54-5.37-3.68-8.29-4.58,0,0,0,0,0,0Z"/><path class="cls-18" d="M66.26,61.39a36.92,36.92,0,0,0-4.63-3.81,25,25,0,0,0-3.74-2.83C56.64,54.14,55,54.4,55,56.07a.2.2,0,0,0,.4,0c.37-3,5.74,1.78,6.52,2.39a31.24,31.24,0,0,0,4.18,3.08.1.1,0,0,0,.12-.15Z"/><path class="cls-18" d="M97.88,84.31l5,1.37a.13.13,0,0,0,.07-.24l-5-1.38a.13.13,0,0,0-.06.25Z"/><path class="cls-18" d="M105.58,86.49A24.63,24.63,0,0,1,108.87,88a.12.12,0,1,0,.12-.21,24.2,24.2,0,0,0-3.34-1.57c-.15,0-.22.19-.07.24Z"/><path class="cls-18" d="M98.45,85.08a24.87,24.87,0,0,1,4.21.54.12.12,0,0,0,.06-.24,24.46,24.46,0,0,0-4.27-.55.13.13,0,0,0,0,.25Z"/><path class="cls-18" d="M105.41,87.13c.64,2.05,2.35,4.45,4.6,4.91a.13.13,0,0,0,.1-.23A13.92,13.92,0,0,1,107.48,90a8.14,8.14,0,0,1-1.84-2.91c0-.14-.27-.09-.23.06Z"/><path class="cls-18" d="M106.48,87.56c1.11,1.18,2.27,2.3,3.43,3.43a28.28,28.28,0,0,0,3.21,3c.13.09.32-.09.23-.22a29.36,29.36,0,0,0-3.1-3.11c-1.17-1.12-2.33-2.24-3.54-3.32-.16-.14-.38.08-.23.23Z"/><path class="cls-18" d="M106.13,87.81a13.3,13.3,0,0,0,7.31,6.72.17.17,0,0,0,.13-.31,30.25,30.25,0,0,1-4.07-2.75,22.08,22.08,0,0,1-3.16-3.79.12.12,0,0,0-.21.13Z"/><path class="cls-18" d="M105.57,87.61c1.31,1.33,2.71,2.59,4.1,3.84a34.07,34.07,0,0,0,3.82,3.28c.14.09.27-.11.17-.22a35,35,0,0,0-3.92-3.58c-1.33-1.16-2.68-2.33-4.08-3.42-.06-.05-.16,0-.09.1Z"/><path class="cls-18" d="M106.37,87.66a73.17,73.17,0,0,0,7.84,6.66c.17.12.37-.14.22-.29a72.39,72.39,0,0,0-7.89-6.6c-.13-.1-.29.11-.17.23Z"/><path class="cls-18" d="M107.69,88.9c2.55,2.25,5.22,4.41,7.88,6.54.21.17.51-.12.29-.3-2.64-2.17-5.3-4.36-8-6.41-.1-.07-.21.09-.13.17Z"/><path class="cls-18" d="M105.91,85.19a10,10,0,0,0,1.76,3.52A10.91,10.91,0,0,0,110,91.44c.11.08.24-.07.18-.17-.69-1-1.58-1.89-2.28-2.92s-1.16-2.21-1.9-3.19c0,0-.09,0-.08,0Z"/><path class="cls-18" d="M105.49,84.83c-.47,2.55,2.49,6.2,4.8,7a.16.16,0,0,0,.15-.26,14.84,14.84,0,0,1-3.24-3c-.8-1.16-1-2.52-1.64-3.71,0,0-.07,0-.07,0Z"/><path class="cls-18" d="M105.94,85.71c.06,2.46,2.44,5.35,4.62,6.29.12,0,.28-.1.16-.2a15.77,15.77,0,0,1-3-2.78A24.91,24.91,0,0,1,106,85.69s-.08,0-.08,0Z"/><path class="cls-18" d="M117.9,81.43A12.63,12.63,0,0,1,113.1,87a.11.11,0,0,0,.11.18A9.92,9.92,0,0,0,118,81.47c0-.09-.11-.13-.14,0Z"/><path class="cls-18" d="M121.51,87.88a9.83,9.83,0,0,1-2.27,2.5c-.77.59-1.75.88-2.48,1.47a.12.12,0,0,0,.09.21,5.18,5.18,0,0,0,2.64-1.39A9.18,9.18,0,0,0,121.74,88c.08-.14-.14-.26-.23-.12Z"/><path class="cls-18" d="M123.87,91A34.68,34.68,0,0,0,119,94.57c-.09.09,0,.23.14.18A34.6,34.6,0,0,0,124,91.16c.09-.07,0-.24-.1-.16Z"/><path class="cls-18" d="M123.63,94.47s0,0,0,0,0,0,0,0Z"/><path class="cls-18" d="M78.89,78.63c.79,3.84,5.21,7.51,9.1,7.7.16,0,.17-.21,0-.26a15.5,15.5,0,0,1-5.62-2.78A16.94,16.94,0,0,1,79,78.6s-.08,0-.07,0Z"/><path class="cls-18" d="M76.29,81.19c1.12,3.33,4.57,6.83,8.29,6.92a.13.13,0,0,0,0-.26,15.25,15.25,0,0,1-5.06-2.5,12.11,12.11,0,0,1-3.1-4.23c0-.1-.2,0-.17.07Z"/><path class="cls-18" d="M74.28,85.16c.59,3.27,3.89,7,7.48,6.86a.11.11,0,0,0,0-.22,13.19,13.19,0,0,1-4.62-2.3,9.82,9.82,0,0,1-2.76-4.38c0-.09-.15-.06-.13,0Z"/><path class="cls-18" d="M72.14,88.58c.56,3.3,3.72,7,7.36,6.89a.16.16,0,0,0,0-.32A11.26,11.26,0,0,1,74.91,93a8.89,8.89,0,0,1-2.63-4.42.07.07,0,0,0-.14,0Z"/><path class="cls-18" d="M76,79.62a13.09,13.09,0,0,0-4.88,8c0,.25.33.35.38.11a16.34,16.34,0,0,1,4.55-8s0-.09,0-.07Z"/><path class="cls-18" d="M124.79,102.45c-3-3.8-6.59-7.21-9.88-10.78-2-2.19-5.15-6-2.33-8.88,1.64-1.67,4.52-1.49,6.41-.41,3.9,2.23,5.88,8,7.87,11.72,1.07,2,2.57,4.15,3.16,6.36.94,3.48-2.6,4.56-4.89,2.41a19.76,19.76,0,0,1-1.72-2.13c-.14-.17-.41.05-.3.24,1,1.77,2.69,3.81,5,3.64,2-.15,2.83-1.76,2.57-3.59a15.1,15.1,0,0,0-2-4.55l-3-5.71c-1.53-2.9-3-6.36-5.73-8.35-3.24-2.36-9.1-1.51-8.86,3.41.13,2.83,2.37,5,4.17,6.89,3.09,3.32,6.07,6.82,9.4,9.89a.11.11,0,0,0,.16-.16Z"/><path class="cls-18" d="M80.24,77.35a44.25,44.25,0,0,0-6.49,9.11C72.33,89,70.45,92,70.08,95a4.21,4.21,0,0,0,3,4.89c2.3.65,4.52-.37,6.32-1.76A79,79,0,0,0,88,89.91c1.57-1.66,3-3.55,2-5.9-1.58-3.4-8.17-8.49-11.34-4.25-.14.19.17.43.32.25,2.55-2.93,6-.53,8.21,1.44A9.44,9.44,0,0,1,89.4,84c1,1.93.08,3.58-1.19,5-1.58,1.8-3.39,3.43-5.11,5.09a28.46,28.46,0,0,1-5.24,4.51c-2.77,1.57-7.3,1.38-7.35-2.85,0-2.46,1.55-5,2.64-7.14a97.69,97.69,0,0,1,7.22-11.14c0-.07-.07-.16-.13-.1Z"/><path class="cls-18" d="M82.39,82.42a87.4,87.4,0,0,1-9.16,12.46.17.17,0,0,0,.24.24A36.94,36.94,0,0,0,82.54,82.5c0-.09-.09-.18-.15-.08Z"/><path class="cls-18" d="M81.17,80.76a97.73,97.73,0,0,0-8.73,12.81c-.08.15.13.34.25.19a97.93,97.93,0,0,0,8.58-12.93c0-.06,0-.13-.1-.07Z"/><path class="cls-18" d="M115.51,83.23c1.57,2.19,3.22,4.31,4.66,6.6,1.3,2.07,2.26,5,3.94,6.68-.1-.1-.32,0-.26.16l.1.25c.1.26.52.14.42-.12a42.81,42.81,0,0,0-8.77-13.64.06.06,0,0,0-.09.07Z"/><path class="cls-18" d="M126,102a1.89,1.89,0,0,0,2,1.17c.65,0,1.78-.6,1.71-1.37,0-.07-.08-.13-.15-.08s-.25.25-.42.43a1.8,1.8,0,0,1-1.07.6,2.29,2.29,0,0,1-1.93-.81.06.06,0,0,0-.11.06Z"/><path class="cls-18" d="M71.58,95.12a2.81,2.81,0,0,0,1.15,2.15c.51.4,1.48.9,2.13.58.1,0,.11-.24,0-.28A4.85,4.85,0,0,0,74,97.4a2.75,2.75,0,0,1-1-.48,3.31,3.31,0,0,1-1.2-1.83.13.13,0,0,0-.25,0Z"/><path class="cls-18" d="M82.84,80.08a11.25,11.25,0,0,1,3.53,2.43,13.82,13.82,0,0,1,2,3.78c0,.08.17,0,.17-.05.06-2.78-2.88-6-5.57-6.45-.16,0-.29.2-.12.29Z"/><path class="cls-18" d="M87.71,87.3a5.94,5.94,0,0,1-2,1.41.25.25,0,0,0-.17.22,1.56,1.56,0,0,0,0,.57.16.16,0,0,0,.3,0,1.59,1.59,0,0,0,.1-.57l-.11.19a5.88,5.88,0,0,0,2-1.65c.1-.12-.06-.29-.17-.17Z"/><path class="cls-18" d="M114.07,88.8A4.79,4.79,0,0,1,112.79,87a9.33,9.33,0,0,1-.25-1.89.12.12,0,0,0-.22,0c-.71,1.3.45,3.32,1.72,3.81,0,0,.06,0,0-.06Z"/><path class="cls-18" d="M112.88,84.56a2.46,2.46,0,0,1,1.35-.92,2,2,0,0,1,.72-.08,1.31,1.31,0,0,0,.59,0,.13.13,0,0,0,.07-.18c-.33-.44-1.17-.27-1.62-.1a2.15,2.15,0,0,0-1.2,1.22c0,.06.06.09.09,0Z"/><path class="cls-18" d="M80,44.47c.43-.43,1-1.81-.12-1.84s-1.45,3.58-1.61,4.27c-.4,1.74-1.49,4.24-.29,5.89s3.88,1.91,5.72,1.28a.18.18,0,0,0-.1-.34c-1.29.2-3.28.52-4.38-.44l-1.3-2.53a21,21,0,0,1,.39-2.1c.18-.83.37-1.65.55-2.47.11-.55.23-1.1.35-1.65,0-1.07.26-1.11.74-.12,0,0,0,.08,0,0Z"/><path class="cls-18" d="M93.31,24.4a.86.86,0,0,0,0-.39s-.05,0-.06,0a1,1,0,0,0,0,.39,0,0,0,0,0,.09,0Z"/><path class="cls-18" d="M94.53,10a11.81,11.81,0,0,1,6.72-3.87c.3-.06.17-.52-.13-.47a10.2,10.2,0,0,0-6.81,4.17c-.09.13.12.29.22.17Z"/><path class="cls-18" d="M89.15,31.32a2.87,2.87,0,0,0-4.49,2.13c0,.14.22.17.24,0a2.86,2.86,0,0,1,4.16-2,.09.09,0,0,0,.09-.15Z"/><path class="cls-18" d="M89.51,37.62a37,37,0,0,0-4.25,3.85c-.08.08,0,.17.11.11a37.75,37.75,0,0,0,4.2-3.9,0,0,0,0,0-.06-.06Z"/><path class="cls-18" d="M81.91,38.17a28.71,28.71,0,0,0,.22,8.68c0,.07.12,0,.11,0-.2-2.9-.26-5.75-.22-8.66,0-.08-.1-.07-.11,0Z"/><path class="cls-18" d="M118,52.05a10.43,10.43,0,0,1,2.1,5.35c0,.06.1.06.1,0a8,8,0,0,0-2.15-5.4s-.08,0,0,0Z"/><path class="cls-18" d="M115.9,59.1a3.28,3.28,0,0,1-.76-.94,3.8,3.8,0,0,1-.29-1.16c0-.09-.15-.08-.17,0a1.78,1.78,0,0,0,.23,1.29,2.29,2.29,0,0,0,.42.55,1.44,1.44,0,0,0,.55.28s0,0,0,0Z"/><path class="cls-18" d="M115.08,59c-.27-.42-.54-.84-.82-1.25a5.38,5.38,0,0,0-.81-1.07s-.13,0-.11.06a6.19,6.19,0,0,0,.81,1.18c.29.38.59.75.88,1.12a0,0,0,0,0,0,0Z"/><path class="cls-18" d="M85.37,64c-.84,2.08-1.62,4.13-2.55,6.17,0,0,0,.1.07,0A19.5,19.5,0,0,0,85.4,64a0,0,0,1,0,0,0Z"/><path class="cls-18" d="M115.37,26.15c.27,3,.3,5.93.48,8.9a.15.15,0,0,0,.3,0,34.22,34.22,0,0,0-.71-8.91c0-.05-.07,0-.07,0Z"/><path class="cls-18" d="M101.7,25.57c.07,1.08.24,2.15.37,3.23a.15.15,0,0,0,.29,0,1,1,0,0,0,0-.39.1.1,0,0,0-.2,0,1,1,0,0,0-.1.38h.28c-.15-1.07-.27-2.16-.48-3.22a.09.09,0,0,0-.17,0Z"/><path class="cls-18" d="M102.92,15.82c.47,5.09.84,10.2,1.37,15.28,0,.08.14.09.14,0A120.52,120.52,0,0,0,103,15.81c0-.06-.11-.05-.1,0Z"/><path class="cls-18" d="M105.42,16.39a152.58,152.58,0,0,0,1.1,16.41c0,.14.23.15.23,0a152.69,152.69,0,0,0-1.18-16.41c0-.09-.15-.1-.15,0Z"/><path class="cls-18" d="M108.23,17.37A125.5,125.5,0,0,0,109.5,34.8c0,.08.16.06.16,0a124,124,0,0,0-1.29-17.42c0-.08-.14-.06-.14,0Z"/><path class="cls-18" d="M111.23,17.51a126.47,126.47,0,0,0,1.13,17.29c0,.1.18.07.18,0a124.76,124.76,0,0,0-1.21-17.26c0-.07-.1-.07-.1,0Z"/><path class="cls-18" d="M113.49,17.65a133.65,133.65,0,0,0,1.25,18c0,.14.24.1.24,0a132,132,0,0,0-1.41-18c0-.05-.08,0-.08,0Z"/><path class="cls-18" d="M101.7,17.24a17.33,17.33,0,0,0,13.21,2.94c.12,0,.09-.23,0-.22a22.53,22.53,0,0,1-13.13-2.8c-.06,0-.09,0,0,.08Z"/><path class="cls-18" d="M102,20.38a21.84,21.84,0,0,0,13.8,1.88c.19,0,.11-.33-.08-.3A26,26,0,0,1,102,20.24a.08.08,0,0,0-.06.14Z"/><path class="cls-18" d="M102,23.2a19.1,19.1,0,0,0,13.22,1.17c.16,0,.09-.25-.06-.23a28.51,28.51,0,0,1-13.13-1s-.08.06,0,.08Z"/><path class="cls-18" d="M101.82,25.19a21,21,0,0,0,14.1,1.08.15.15,0,0,0-.08-.29,28.46,28.46,0,0,1-14-.88s-.09.06,0,.09Z"/><path class="cls-18" d="M102,26.93a17.64,17.64,0,0,0,13.21,2.45c.22,0,.12-.35-.09-.32a22.08,22.08,0,0,1-13.07-2.21s-.1,0,0,.08Z"/><path class="cls-18" d="M102.64,28.89a16.33,16.33,0,0,0,12.3,2.87c.21,0,.16-.39,0-.37-4.47.58-8.25-.5-12.18-2.59-.06,0-.13.05-.07.09Z"/><path class="cls-18" d="M105.37,32.7a23.83,23.83,0,0,0,10.2,1.11c.16,0,.17-.26,0-.26a42.27,42.27,0,0,1-10.15-1,.1.1,0,0,0,0,.19Z"/><path class="cls-18" d="M109.51,17.63c.52,6.05,1.46,12.07,2,18.13,0,.13.21.13.2,0a128.57,128.57,0,0,0-2.11-18.14s-.06,0,0,0Z"/><path class="cls-18" d="M106.78,17.09c.52,5.75.88,11.48,1,17.26a.11.11,0,0,0,.22,0,132.74,132.74,0,0,0-1-17.26c0-.08-.14-.09-.13,0Z"/><path class="cls-18" d="M114.37,17.38a6.87,6.87,0,0,0,.14,1,0,0,0,0,0,.09,0,6.7,6.7,0,0,0-.15-1,0,0,0,0,0-.08,0Z"/><path class="cls-18" d="M104.24,14.7a12.29,12.29,0,0,0,10.39,1.46.14.14,0,0,0-.07-.27A15.38,15.38,0,0,1,104.3,14.6a.06.06,0,0,0-.06.1Z"/><path class="cls-18" d="M100.52,23.88a4.66,4.66,0,0,0,0,1.58.08.08,0,0,0,.16,0,4.66,4.66,0,0,0,0-1.58c0-.07-.09-.07-.1,0Z"/><path class="cls-18" d="M99.23,30.41a3.16,3.16,0,0,0,.28.72.06.06,0,0,0,.11,0,3.26,3.26,0,0,0-.31-.72s-.1,0-.08,0Z"/><path class="cls-18" d="M103.59,35.17a.86.86,0,0,0,.88.51.78.78,0,0,0,.78-.58c0-.09-.09-.18-.16-.09-.36.39-1,.68-1.43.12,0,0-.1,0-.07,0Z"/><path class="cls-18" d="M102.29,34.77a14.15,14.15,0,0,0-2.51-1.37c-.2-.1-.38.21-.18.31a14.35,14.35,0,0,0,2.63,1.17c.06,0,.12-.07.06-.11Z"/><path class="cls-18" d="M105.38,36a9.25,9.25,0,0,0,1.3-.1.1.1,0,0,0,0-.19,8,8,0,0,0-1.29.19c-.05,0,0,.1,0,.1Z"/><path class="cls-4" d="M94.24,11.59C96.85,10,98.69,8,102,7.73s5.39,1.35,8.22,2.66c.39.18.92-.21.64-.64-3.32-5.17-14.76-4.38-16.88,1.61a.21.21,0,0,0,.3.23Z"/><path class="cls-4" d="M100.83,5.37a15.06,15.06,0,0,1,2.51,0,22.85,22.85,0,0,1,2.45.56c.2,0,.35-.24.15-.35a7,7,0,0,0-5.12-.31s0,.06,0,0Z"/><path class="cls-4" d="M99.59,20.12c-.1-.33-.31-.43-.56-.67a2.8,2.8,0,0,1-.9-1.54,2.23,2.23,0,0,1,.5-1.77c.36-.44.9-.62,1.25-1.06a.28.28,0,0,0-.13-.46c-1.49-.43-2.62,1.76-2.59,3,0,.89,1.16,3.36,2.39,2.61a.08.08,0,0,0,0-.09Z"/><path class="cls-4" d="M94.91,21c-.38-1-.94-1.91-1.24-3s-.34-2.12-.6-3.16a.22.22,0,0,0-.43,0,7.09,7.09,0,0,0,2,6.3c.13.12.4,0,.32-.19Z"/><path class="cls-4" d="M95.85,27.16a5,5,0,0,0,2,.43,11.88,11.88,0,0,0,2.52.23.33.33,0,0,0,.09-.65,10.89,10.89,0,0,0-2.28-.31,5.59,5.59,0,0,0-2.23,0,.18.18,0,0,0-.05.32Z"/><path class="cls-4" d="M85.73,29.56c-.68-.67-1.85.19-2.31.73s-1.19,1.91-.34,2.42a.31.31,0,0,0,.35-.05,1.43,1.43,0,0,0,.33-.8,2.32,2.32,0,0,1,.42-.9,2.15,2.15,0,0,1,.78-.62,2.11,2.11,0,0,0,.77-.47.22.22,0,0,0,0-.31Z"/><path class="cls-4" d="M84.62,35.35a7.49,7.49,0,0,0,1.88-1.17,12.48,12.48,0,0,0,1.79-1.37.27.27,0,0,0-.32-.42,12.75,12.75,0,0,0-2,1.44,7.12,7.12,0,0,0-1.5,1.34c-.06.09,0,.22.14.18Z"/><path class="cls-4" d="M118,39a10.23,10.23,0,0,1,1,1.87,7.79,7.79,0,0,1,.31,2.1c0,.46.78.64.87.12a5.16,5.16,0,0,0-1.62-4.53c-.3-.25-.8.06-.57.44Z"/><path class="cls-4" d="M117,41.22a4,4,0,0,0,.37,1.87.25.25,0,0,0,.47-.13,4,4,0,0,0-.46-1.85c-.09-.19-.37-.09-.38.11Z"/><path class="cls-4" d="M79.23,52.76c.12.56,1.08,1.18,1.54.65a.28.28,0,0,0,0-.39c-.17-.18-.29-.15-.52-.21a4.56,4.56,0,0,1-.67-.32.24.24,0,0,0-.35.27Z"/><path class="cls-4" d="M100.69,53.54a3.53,3.53,0,0,0,1.14-.32,5.4,5.4,0,0,0,1.22-.37.46.46,0,0,0-.11-.82,2.25,2.25,0,0,0-1.48.32,1.79,1.79,0,0,0-1,.92.21.21,0,0,0,.2.27Z"/><path class="cls-4" d="M103.89,54.39c.35.09.2.1.48.38a.58.58,0,0,0,.82,0,.59.59,0,0,0,.09-.71c-.3-.53-1.43-.84-1.6,0a.3.3,0,0,0,.21.36Z"/><path class="cls-17" d="M94.45,40.22s0,0,0,0,0,0,0,0Z"/></svg>