<svg id="illustration" xmlns="http://www.w3.org/2000/svg" viewBox="0 0 198.43 132.84"><defs><style>.cls-1{fill:#767679;}.cls-2{fill:#e54126;}.cls-3{fill:#79c366;}.cls-4{fill:#00364b;}.cls-5{fill:#525355;}.cls-6{fill:#e42f27;}.cls-7{fill:#9ba2a6;}.cls-8{fill:#d2ca28;}.cls-9{fill:#23a249;}.cls-10{fill:#fff;}.cls-11{fill:#e31e26;}.cls-12{fill:#242628;}.cls-13{fill:#010101;}</style></defs><path class="cls-1" d="M140.44,83.09s-3.65,19.37-27.1,25.61c-20.41,4.25-30.25-1.34-31-2.17s-5.28-14-5.28-14,23.92-1,30.29-2S140.44,83.09,140.44,83.09Z"/><path class="cls-2" d="M140,64.29s23.91-3,25.53,2.65-5.15,14-54,22.8S43,87.86,43,87.86,41.71,87,44.66,84s22.2-8.63,27.62-9.56S140,64.29,140,64.29Z"/><path class="cls-3" d="M139.61,72s6.78-36.88-31.26-45.22L64.42,33.43l9.56,46s16,5.79,32.29,3.48S139.61,72,139.61,72Z"/><path class="cls-4" d="M133.82,68.09a34.71,34.71,0,0,0-3.26-21.47c-5.63-11.23-21.51-18.38-21.51-18.38S94.33,29.9,86.7,38.44l8,36.52s12.28,2.8,20.81,1S133.82,68.09,133.82,68.09Z"/><path class="cls-5" d="M93.13,28.59s-10-12.65-20.08-15.66l-.56-.13-.22,1.12a8.51,8.51,0,0,1,2.14.49c.64.33,5,3.76,5,3.76s9.42,8.94,9.29,10.41l2.45.79Z"/><path class="cls-6" d="M75.44,12.62s1.34-1.53,1.83-1.3S78,13,78.06,14s-1.38,4-2.28,4.18-1.75.23-2-.58a4,4,0,0,1-.21-1.67c0-.15.59.84.77.88a11.79,11.79,0,0,0,1.47-.09l1.07-1.29.49-2.31-1.1-.62Z"/><path class="cls-6" d="M80.73,16.15s1.81-.59,1.81-.59l1.36.7L83.69,18l-1.3,1.75-2,1.21-1.64-.6-.32-1.1.42-.34.61.61L81,18.89l1.39-1.37-.29-1.28-.42-.1Z"/><polygon class="cls-6" points="87.1 20.26 88.84 20.68 89.14 22.13 87.49 24.2 84.4 25.41 82.82 25.11 82.9 23.09 84.68 23.42 86.71 22.49 87.52 21.31 87.1 20.26"/><path class="cls-6" d="M68.6,6.84a7,7,0,0,1,3.89,6c.11,4.28-6.16,3.56-6.16,3.56s-2.85,0-3.49-3.75S64.28,6.55,68.6,6.84Z"/><path class="cls-5" d="M129.83,94.36,137.06,109l-1.78,1L124,96.79a3.32,3.32,0,0,1,2-2.64A4.85,4.85,0,0,1,129.83,94.36Z"/><polygon class="cls-5" points="115.51 108.76 114.96 114.32 112.99 114.39 111.57 109.07 115.51 108.76"/><path class="cls-5" d="M91.73,102.54,84.51,118.6l-3.06-.21,3.84-17.46a4.06,4.06,0,0,1,2.42-.34A13.84,13.84,0,0,1,91.73,102.54Z"/><path class="cls-7" d="M81.17,104.23l-8,2.45-7.66.92s-3.59-5-3.69-6.39-1.25-9.32-1.25-9.32l15.74.4Z"/><path class="cls-8" d="M60.42,94.35s-19.09-5.93-25.54-6.19l1.66,4.28s-12.89,1-16,2.6l5.48,2.26-9.38,2-4.17,1.36-2.21.83,2.76,2.08-4.45,1.9-2.87,1L5,107.78l1.79.45a24.89,24.89,0,0,0,5.47,1c2.58.09-2.39,2.33-2.39,2.33l5.63,1.93,4.11-.06-2,1.51,3.25,1,4.1.13,3.22-.81,3.22-.88L28.52,117l5.19-.43,4.73-.92L43.07,114l-4.64,4.92,4.65-.06,7.52-1.29,7.74-3.63,4.43-2.52,1.33-1.85,1.43-1.94-3.69-6.39Z"/><polygon class="cls-9" points="137.06 109.03 139.52 110.04 139.21 112.63 137.57 113.33 135.71 112.14 135.35 110.4 137.06 109.03"/><polygon class="cls-9" points="114.27 114.35 116.5 115.57 116.9 118.39 115.49 120.18 113.12 120.14 111.02 118.59 111.41 116.25 112.99 114.39 114.27 114.35"/><polygon class="cls-9" points="83.62 118.54 85.18 120.18 85.25 122.17 83.43 123.12 81.45 123.57 80.12 122.79 79.92 120.31 80.48 118.77 83.62 118.54"/><path class="cls-10" d="M126.58,47.18c.09-3.46-3.62-7.11-5.88-9.47A31.78,31.78,0,0,0,110.35,31a.65.65,0,0,0-.66,1.12,57,57,0,0,1,8.38,8.2c2.14,2.4,3.64,6.41,6.36,8.07a1.44,1.44,0,0,0,2.15-1.23Z"/><path class="cls-10" d="M127.48,53.05a2.36,2.36,0,0,0,0,1.09l.95-.72c-.21,0,0,.08.06.08s0,0,0,0,0,0,0,0,.05-.1-.08,0a.22.22,0,0,1-.14,0c-.11,0-.29-.17-.26-.13s0-.1,0,0,0,0,0,0-.3.12.18-.06a.91.91,0,1,0,.48,1.75c1.63-.47,1.31-3.2-.43-3.13-1.58.06-1.82,2.73-.24,3,.43.07,1-.19,1-.73a3,3,0,0,0-.28-1.25.66.66,0,0,0-1.19.16Z"/><path class="cls-10" d="M131.12,62.43c-.8.47-1,1.09-1.48,1.88a11.09,11.09,0,0,1-3,3.18,10.82,10.82,0,0,1-3.26,1.58c-1.23.36-2.54.26-3.72.76a.51.51,0,0,0-.12.91c2.39,1.3,5.95-.37,8-1.78,1.66-1.18,4.85-4.06,4-6.36a.28.28,0,0,0-.4-.17Z"/><path class="cls-10" d="M102.46,38.29a.44.44,0,0,1,.35.22,1.65,1.65,0,0,0,.1.19c0,.09.06.06.11-.09a.19.19,0,0,1,.2-.16s-.08-.11-.07-.17a.76.76,0,0,0-1.41-.38,1.45,1.45,0,0,0,2.08,1.79,1.21,1.21,0,0,0,.11-1.82,1.37,1.37,0,0,0-1.66-.3c-.37.17-.16.7.19.72Z"/><path class="cls-10" d="M118.17,52.47l.29.44-.11.38-.21.21c1.09-.52-.33-2.25-1.07-1.07a.93.93,0,0,0,.54,1.37c.76.15,1.33-.92.56-1.33Z"/><path class="cls-10" d="M96.12,51.43a1.41,1.41,0,0,0,1.69-1,.65.65,0,0,0-.43-.77,1.38,1.38,0,0,0-1.13.19,1.11,1.11,0,0,0-.61.94c0,.31.24.53.48.64Z"/><path class="cls-10" d="M109.46,46h.16a.73.73,0,0,0,.7-.7.59.59,0,0,0-.09-.36.73.73,0,0,0-.79-.32l-.16.06c-.69.22-.62,1.4.18,1.33Z"/><path class="cls-10" d="M106.17,60.36a1.24,1.24,0,0,0,.31-.1c.68-.24.64-1.39-.18-1.33a4.43,4.43,0,0,0-.51.06c-.89.14-.53,1.6.38,1.37Z"/><path class="cls-10" d="M120.44,62.42a1.68,1.68,0,0,0-.09-.32c-.2-.59-1.2-.54-1.14.15,0,.16,0,.32.07.49.14.75,1.34.44,1.16-.32Z"/><path class="cls-10" d="M107.54,52.09a.76.76,0,0,0,.5.38.69.69,0,0,0,.74-.3l.1-.21a.56.56,0,0,0-.63-.81l-.21.06.64.17.11.18c-.13-1-1.88-.29-1.25.53Z"/><path class="cls-10" d="M110.48,36.75l0,.1a.67.67,0,0,0,.11.79l.07.06a.79.79,0,0,0,1.33-.66c-.1-.66-1.13-1-1.46-.29Z"/><path class="cls-10" d="M98.59,67.84a1.17,1.17,0,0,0,0-.32.84.84,0,0,0-.95-.82.82.82,0,0,0-.69,1,1.63,1.63,0,0,0,.11.31.81.81,0,0,0,.87.57.79.79,0,0,0,.68-.78Z"/><path class="cls-10" d="M111.63,72.86a.74.74,0,0,0,0-1.48.74.74,0,0,0,0,1.48Z"/><path class="cls-10" d="M79.43,34.59a21.68,21.68,0,0,0-5.83.55c-1.44.22-3.32.23-4.45,1.33a3.47,3.47,0,0,0-.74,3.27c.32,2.26.77,4.51,1.16,6.77.12.68,1.29.53,1.21-.16-.2-1.71-.38-3.42-.6-5.12s-.79-3.33,1.28-3.68c2.72-.46,5.78-.62,8.28-1.81.62-.3.22-1.09-.31-1.15Z"/><path class="cls-10" d="M153.81,68.08c1.14-.18,3.18-.54,3.85.76s-1.29,2.15-2.27,2.41c-1.76.47-4.07.63-4.85,2.54-.31.75.59,1.52,1.3,1.3s1.45-.79,2.26-1.08,1.68-.43,2.48-.76a5.34,5.34,0,0,0,3.13-3,3.21,3.21,0,0,0-1.36-3.55c-1.52-1-3.35-.82-5.07-.54-1.27.21-.73,2.12.53,1.93Z"/><path class="cls-10" d="M53.69,81.07C51.4,79.9,48.26,82.8,49,85.18a3.93,3.93,0,0,0,2.84,2.44c1.71.49,3.65-.16,5.21.82,1.17.73,2.23-1.11,1.08-1.85-1.87-1.2-4-.43-5.91-1.23-2.88-1.19,1.09-2.44,1.74-3.42a.65.65,0,0,0-.23-.87Z"/><path class="cls-10" d="M118.65,84.26c-3.22.25-6.34,1.45-9.51,2.09-3.57.73-7.37.93-10.83,2.08-.35.12-.43.73,0,.8,3.28.5,6.65-.12,9.88-.76,3.57-.7,7.59-1.39,10.7-3.33.37-.23.25-.91-.24-.88Z"/><path class="cls-10" d="M138.61,111c-.17.35-.22.81.19,1a.28.28,0,0,0,.33,0c.3-.34.14-.72-.18-1a.22.22,0,0,0-.34,0Z"/><path class="cls-10" d="M115.22,116.67a2,2,0,0,1-.23.68c-.15.29-.39.43-.49.77a.78.78,0,0,0,.75,1c1.21-.13,1.66-1.77,1-2.71a.58.58,0,0,0-1.07.29Z"/><path class="cls-10" d="M82.87,121c-.47.65-1.13,1.68-.67,2.48a.73.73,0,0,0,1,.25c.79-.48.71-1.68.62-2.48a.5.5,0,0,0-.92-.25Z"/><path class="cls-10" d="M50,92.33c-3.18-1.3-7.72-2.4-11.11-1.44a.46.46,0,0,0,0,.89c1.59.3,3.23.16,4.84.31a53.82,53.82,0,0,1,6,1,.41.41,0,0,0,.22-.79Z"/><path class="cls-10" d="M35.18,93.28c-3-.2-6.74-.53-9.51.76-.85.4-.35,1.62.45,1.66a19.36,19.36,0,0,0,4.07-.56c1.66-.26,3.32-.48,5-.62a.62.62,0,0,0,0-1.24Z"/><path class="cls-10" d="M24,98.06c-3,.54-6,.91-8.87,1.71a1.42,1.42,0,0,0,.76,2.74c2.94-.68,5.73-1.77,8.59-2.7A.91.91,0,0,0,24,98.06Z"/><path class="cls-10" d="M11.25,105.3c-.66.17-1.33.31-2,.46s-1.31.28-1.57.89a.64.64,0,0,0,.22.86,1.93,1.93,0,0,0,1.8-.13l1.9-.77a.68.68,0,0,0-.36-1.31Z"/><path class="cls-10" d="M54,96.47a24.69,24.69,0,0,0-5.28-1.59c-1.24-.14-1.34,1.71-.28,2.07a24.35,24.35,0,0,0,5.39.78c.76.08.81-1,.17-1.26Z"/><path class="cls-10" d="M45.16,99.62a22.34,22.34,0,0,0-4.9-.43,1.16,1.16,0,0,0-1.1.84.76.76,0,0,0,0,.61,1.18,1.18,0,0,0,1.1.84,22.39,22.39,0,0,0,4.9-.49.72.72,0,0,0,0-1.37Z"/><path class="cls-11" d="M58,107A22.28,22.28,0,0,1,53,110.26l.81.22c-.49-1,.06-1.85.49-2.73a.35.35,0,0,0-.47-.47c-1.36.57-1.49,2.42-1.1,3.65a.59.59,0,0,0,.73.41,12.89,12.89,0,0,0,5.28-3.63A.47.47,0,0,0,58,107Z"/><path class="cls-11" d="M52.9,108.25a24.54,24.54,0,0,0-5.68.08c-1.64.13-3.5-.07-5,.75a.34.34,0,0,0,.08.62c1.61.59,3.59.06,5.28-.08a22.89,22.89,0,0,0,5.28-.76c.26-.09.33-.55,0-.61Z"/><path class="cls-11" d="M42.59,107.54c-2.2-.45-4.61-1.32-6.87-1.24a.42.42,0,0,0-.11.83c2,.85,4.58.88,6.76,1.22.52.09.76-.7.22-.81Z"/><path class="cls-11" d="M51.7,115.71c-3.51.33-7,.73-10.51,1.16l.73,1.26c.74-1.17,1.5-2.32,2.24-3.49.62-1-1-1.93-1.58-.93-.72,1.19-1.41,2.39-2.11,3.57a.85.85,0,0,0,1,1.24c3.48-.53,7-1.09,10.43-1.71a.56.56,0,0,0-.15-1.1Z"/><path class="cls-11" d="M36,114.78c-1.74-.57-3.92.11-5.69.36l1.3,1c0-.59.44-.82.75-1.27a.89.89,0,0,0-.76-1.33c-1.33,0-2.1,1.43-2,2.6a1,1,0,0,0,1.3,1c1.71-.27,3.84-.28,5.28-1.3a.58.58,0,0,0-.14-1Z"/><path class="cls-11" d="M24.73,114.46a31.16,31.16,0,0,0-6.32-.81l.51,1.89a4,4,0,0,1,1.8-.56,1.42,1.42,0,0,0,1-.45.67.67,0,0,0,.11-.79c-.73-1.41-3-.58-4,.05a1,1,0,0,0,.51,1.89,29.68,29.68,0,0,0,6.32,0c.67-.09.56-1.08,0-1.25Z"/><path class="cls-11" d="M16.67,112.26c-.8-.25-1.51-.56-2.36-.74L11.89,111l.18,1.39c.78-.4,1.55-.81,2.32-1.22a4,4,0,0,0,1.7-1.32.55.55,0,0,0-.47-.81,3.93,3.93,0,0,0-2,.74c-.76.43-1.52.86-2.27,1.3a.77.77,0,0,0,.18,1.39l2.64.44c.82.13,1.61.11,2.43.17.49,0,.55-.69.11-.83Z"/><path class="cls-11" d="M40.89,89.72c-.35-.22-.44-.41-.84-.54A7.13,7.13,0,0,0,39,89a9.57,9.57,0,0,0-2.12-.34.75.75,0,0,0-.2,1.46,9,9,0,0,0,2.13.28,7.17,7.17,0,0,0,1,.07,3.73,3.73,0,0,0,1-.27.24.24,0,0,0,0-.44Z"/><path class="cls-11" d="M26.91,93.88a15.15,15.15,0,0,0-3,.71.85.85,0,0,0,.46,1.64A16.74,16.74,0,0,0,27.39,95c.68-.32.16-1.24-.48-1.13Z"/><path class="cls-11" d="M15.8,100.42a4.67,4.67,0,0,0-2.84-.07c-.82.26-2.06.89-2.07,1.91s1.18,1,1.88.64a4.24,4.24,0,0,1,2.54-.69.93.93,0,0,0,.49-1.79Z"/><path class="cls-11" d="M9.43,104.83a8.71,8.71,0,0,0-2.8,1.42,1.06,1.06,0,0,0-.08,1.42,1.09,1.09,0,0,0,1.39.28,8.35,8.35,0,0,0,2.26-1.8.8.8,0,0,0-.77-1.32Z"/><path class="cls-11" d="M26.92,103.74c-1.39.4-2.74.76-4.1,1.27a1,1,0,0,0,0,1.82c.63.2,1.25.42,1.88.61a2.61,2.61,0,0,0,1.77.22.79.79,0,0,0,.46-1.15c-.69-1-2.49-1.18-3.61-1.5v1.82c1.41-.59,2.71-1.29,4.07-2a.61.61,0,0,0-.47-1.11Z"/><path class="cls-11" d="M60.12,97.84a0,0,0,0,0,0,0,0,0,0,0,0,0,0Z"/><path class="cls-11" d="M59.57,97.57c-1.14-.2-2.24-.53-3.41-.66a8.68,8.68,0,0,0-3.44-.09.5.5,0,0,0-.12.91,7.67,7.67,0,0,0,3,.58c1.29.12,2.53,0,3.81.08.46,0,.58-.73.11-.82Z"/><path class="cls-11" d="M44.12,98.9c-1.14-.08-2.22-.28-3.36-.31a5.62,5.62,0,0,0-2.68.24.43.43,0,0,0,0,.73,5.62,5.62,0,0,0,2.68.3c1.13,0,2.22-.17,3.36-.22a.37.37,0,0,0,0-.74Z"/><path class="cls-12" d="M123.7,100.4c-4.07-.47-8.4,2.21-12.38,3.14-4.69,1.1-9.69.73-14.25,2.07a.93.93,0,0,0,0,1.79c4.63,1.53,10.42.31,15.1-.77,4-.92,9.55-1.93,11.9-5.59a.43.43,0,0,0-.37-.64Z"/><path class="cls-12" d="M121.68,89.05c-7.22.81-14.33,2.44-21.58,3.16a160.84,160.84,0,0,1-21.84.62c-.7,0-.7,1,0,1.07,14.1.45,30,.3,43.49-4.3.28-.1.26-.59-.07-.55Z"/><path class="cls-12" d="M127.72,74.15c-2.42.61-4.56,2.17-7,3a70.08,70.08,0,0,1-7.44,1.66c-.87.18-.59,1.39.19,1.46,4.6.38,11.89-1.49,14.78-5.35.28-.36-.18-.83-.57-.73Z"/><path class="cls-12" d="M135.44,52.89c.45,2.67,1.4,5.08,1.41,7.83a22.59,22.59,0,0,1-1.54,7.78c-.29.83,1.06,1.42,1.45.6,2.25-4.78,2.85-12.23-.6-16.62-.29-.38-.78.05-.72.41Z"/><path class="cls-12" d="M69.4,90.74l-2.33-.63A8.11,8.11,0,0,0,65,89.66a.34.34,0,0,0-.17.63,8.18,8.18,0,0,0,2,.66l2.33.6a.42.42,0,0,0,.23-.81Z"/><path class="cls-12" d="M78.78,103.89c-1.31-.7-3-.06-4.33.23s-3.48.4-4.51,1.67a.64.64,0,0,0,.12,1c1.52.71,3.14,0,4.68-.37s3.29-.47,4.24-1.76a.56.56,0,0,0-.2-.75Z"/><path class="cls-12" d="M76.27,93.32a42.62,42.62,0,0,0-7-.79,54.66,54.66,0,0,0-8.18-.33c-.36,0-.49.59-.09.67a46.84,46.84,0,0,0,7.1.63,48.5,48.5,0,0,0,8.17.15c.17,0,.24-.28,0-.33Z"/><path class="cls-13" d="M108.22,27.24c9,2.89,17,6.85,22.9,14.54,6,7.87,8.41,17.66,7.61,27.45-.08,1.06,1.49,1,1.62,0a39.26,39.26,0,0,0-7.86-28.65c-5.65-7.31-14.75-13.52-24.14-14.34-.59,0-.65.83-.13,1Z"/><path class="cls-13" d="M107.75,25.85c-7.28,1-14.55,2.11-21.8,3.29s-14.71,1.78-21.71,3.65c-.7.19-.58,1.35.18,1.3,7.14-.43,14.4-2.21,21.46-3.35Q97,28.93,108,26.89c.69-.13.38-1.14-.29-1Z"/><path class="cls-13" d="M63.13,34.26c1.35,7.74,3.53,15.41,5.31,23.06s3.08,15.59,5.62,23c.16.45,1,.41.89-.12-1-7.64-3.28-15.27-5-22.76-1.81-7.81-3.27-15.82-5.52-23.52a.67.67,0,0,0-1.28.36Z"/><path class="cls-13" d="M139.28,71.23c-5.11,2.28-10.05,4.77-15.38,6.53a88.17,88.17,0,0,1-16.67,3.75,88.76,88.76,0,0,1-16,.54,80.15,80.15,0,0,1-8.6-.93c-2.53-.41-5.11-1.29-7.67-1.36a.59.59,0,0,0-.29,1.1c2.37,1.2,5.33,1.5,7.94,1.92s5.45.75,8.2.94a87.14,87.14,0,0,0,17.31-.59c10.8-1.44,22.71-4.65,31.75-11a.54.54,0,0,0-.54-.93Z"/><path class="cls-13" d="M108.25,28.91c7.88,2.94,14.78,7.26,19.53,14.38,4.9,7.34,6.42,15.85,5.4,24.52-.08.68,1.09.84,1.21.17,3.07-17.13-8.27-36.57-25.85-40.13a.55.55,0,0,0-.29,1.06Z"/><path class="cls-13" d="M133.13,69.3c-1.28-.06-2.18.61-3.32,1.17-1.46.72-2.94,1.37-4.46,2A53.81,53.81,0,0,1,116,75.07c-6.61,1.24-12.9.78-19.51.05-.72-.08-.84,1-.17,1.23,6.28,1.73,13.32,1.44,19.67.29a52.45,52.45,0,0,0,9.74-2.75c2.31-.9,6.35-2,7.52-4.34a.17.17,0,0,0-.15-.25Z"/><path class="cls-13" d="M109.17,28.81c-8.06-.48-17.79,3.67-23,9.9-.23.28.09.81.43.55,3.3-2.54,6.39-5,10.21-6.79a59.31,59.31,0,0,1,12.41-3.63s0,0,0,0Z"/><path class="cls-13" d="M86.16,38.57c.48,3.12,1.71,6.2,2.54,9.25S90.26,53.7,91,56.65s1.36,5.93,2,8.91.8,6.49,1.89,9.4a.33.33,0,0,0,.64-.09c.1-2.85-.81-5.85-1.36-8.64q-1-5-2.15-9.85c-.74-3.11-1.54-6.21-2.42-9.28a52,52,0,0,0-2.85-8.75c-.16-.3-.56-.07-.51.22Z"/><path class="cls-13" d="M109.89,30.54a50.08,50.08,0,0,1,9.63,6.69,42.63,42.63,0,0,1,3.86,4,31,31,0,0,1,2.33,3,10.12,10.12,0,0,1,.75,1.21c-1,2.51-2,3.21-2.92,2.08-1.46-1-2.61-3.22-3.77-4.6-1.31-1.54-2.63-3.07-4-4.54A68.06,68.06,0,0,0,107,30.49l-.17.63a17.8,17.8,0,0,0,3.72-.31c.71-.15.38-1.32-.3-1.07a8.3,8.3,0,0,1-3.42.7.34.34,0,0,0-.24.58,113.18,113.18,0,0,1,12.66,12.4c1.23,1.47,5.59,8.94,8.13,5,2-3.11-3-7.77-4.85-9.74A36.42,36.42,0,0,0,110.1,30c-.29-.12-.48.35-.21.5Z"/><path class="cls-13" d="M129.21,52.62a1.32,1.32,0,0,1,0,2,1.38,1.38,0,0,1-2-.7,1.49,1.49,0,0,1,1.09-1.85c1-.19,1.42.49,2.07,1,.24.2.7.1.68-.28-.09-1.5-2.18-2.16-3.38-1.6a2.44,2.44,0,0,0-1.08,3.49,2.22,2.22,0,0,0,3.23.44,2.06,2.06,0,0,0-.27-3.12c-.36-.24-.67.33-.34.58Z"/><path class="cls-13" d="M140,64.6a70.11,70.11,0,0,1,19.25.4c3,.53,6.93,1.35,6,5.38-.78,3.43-4.58,4.81-7.47,6A218.08,218.08,0,0,1,123.51,87a198.54,198.54,0,0,1-72.27,2.86c-1.53-.23-12-1.72-6.87-5.11a50.37,50.37,0,0,1,8.85-4.25,90.43,90.43,0,0,1,19.22-5.44c.75-.13.44-1.28-.31-1.15a86.88,86.88,0,0,0-20.14,6c-2.8,1.22-6.21,2.46-8.61,4.4-1.15.93-1.75,2.31-.9,3.67,1.15,1.84,3.89,2.14,5.8,2.47C51.9,91,55.54,91.57,59.19,92a185.26,185.26,0,0,0,21.71,1.1,203.07,203.07,0,0,0,42.48-4.86,215.92,215.92,0,0,0,21-5.79c3.17-1,6.3-2.18,9.42-3.37s6.64-2.24,9.36-4.21c3.77-2.73,4.7-8.57-.55-10.17-7.1-2.17-15.52-2.06-22.74-.68-.34.06-.27.65.08.61Z"/><path class="cls-13" d="M140.1,83.65a30.37,30.37,0,0,1-3.56,7.82c-1.45,2.24-3.59,3.94-5,6.14-.29.46.27.94.7.71,2.3-1.21,4.1-4,5.43-6.19a29.22,29.22,0,0,0,3.4-8.21.5.5,0,0,0-1-.27Z"/><path class="cls-13" d="M84,107c-2.54-1.38-3.21-4.76-4.13-7.28s-1.82-5.06-2.8-7.56c-.22-.56-1.13-.34-.93.25,1.19,3.44,2.49,6.84,3.76,10.24.77,2,1.56,4.12,3.69,5,.47.19.88-.44.41-.7Z"/><path class="cls-13" d="M127.36,101.58c-3,1.51-5.8,3.42-9,4.7a43.71,43.71,0,0,1-8.77,2.5,42.11,42.11,0,0,1-9.71.53c-3.44-.21-6.61-1.26-10-1.75-.49-.07-.91.61-.37.89,5.59,2.88,13.6,2.66,19.63,1.73,6.29-1,14-3.38,18.56-8.1a.32.32,0,0,0-.38-.5Z"/><path class="cls-13" d="M129.53,94c1,5.38,4.22,10.75,7.1,15.33.34.53,1.19,0,.85-.5a75.43,75.43,0,0,1-4.15-7.33c-1.22-2.51-2.11-5.19-3.42-7.66-.11-.22-.42-.06-.38.16Z"/><path class="cls-13" d="M135.5,109.92c-1.52-2.21-3.19-4.29-4.88-6.37-1.83-2.26-3.56-4.88-5.75-6.8a.36.36,0,0,0-.56.44,47.55,47.55,0,0,0,5,6.32c1.89,2.29,3.76,4.58,5.82,6.72.2.21.58-.07.41-.31Z"/><path class="cls-13" d="M129.7,93.52a4.51,4.51,0,0,0-6.32,3.13c-.14.75,1,1.08,1.16.32a3.42,3.42,0,0,1,4.62-2.53c.62.28,1.17-.62.54-.92Z"/><path class="cls-13" d="M136.93,108.82a2.54,2.54,0,0,0-1.93,2.92,2.58,2.58,0,0,0,2.83,2.15,2.66,2.66,0,0,0,2.58-2.61,3,3,0,0,0-2.74-2.88c-.85-.06-.84,1.26,0,1.32a1.64,1.64,0,0,1,1.41,1.73,1.43,1.43,0,0,1-1.5,1.2c-1.87,0-1.81-2.58-.39-3.21.36-.16.1-.72-.26-.62Z"/><path class="cls-13" d="M90.66,104.06a83.85,83.85,0,0,0-6.79,14.37c-.29.81,1,1.13,1.27.35a116.75,116.75,0,0,1,6.47-14.17.55.55,0,0,0-1-.55Z"/><path class="cls-13" d="M84.9,101.44a62.58,62.58,0,0,0-2.22,9.1c-.59,2.75-1.37,5.54-1.71,8.34-.07.54.78.62.93.12.88-3,1.29-6.14,1.88-9.18a56.28,56.28,0,0,0,1.4-8.34c0-.18-.23-.19-.28,0Z"/><path class="cls-13" d="M81.32,118.13c-1.82-.11-2.36,2.57-2,3.88a3.2,3.2,0,0,0,4.16,2.2,3.34,3.34,0,0,0,2.37-4.16,3.61,3.61,0,0,0-4.69-2.21c-.68.29-.19,1.35.49,1.17a2.38,2.38,0,0,1,3,1.75A2.11,2.11,0,0,1,82.78,123a1.86,1.86,0,0,1-2.27-1.55c-.21-1.23.52-1.89,1.08-2.84a.32.32,0,0,0-.27-.48Z"/><path class="cls-13" d="M92.12,102.61c-1.35-2-4.88-3.63-7.06-2-.35.28-.32,1,.26,1a9.78,9.78,0,0,1,3.19-.24,5.63,5.63,0,0,1,3,1.68c.3.32.87-.1.61-.47Z"/><path class="cls-13" d="M115.23,108.69a26.74,26.74,0,0,0-.67,5.63c0,.44.7.57.79.11a26.26,26.26,0,0,0,.45-5.67c0-.32-.5-.41-.57-.07Z"/><path class="cls-13" d="M111.55,109.93a42,42,0,0,0,1.13,4.55.32.32,0,0,0,.62-.17,43,43,0,0,0-1.38-4.48.19.19,0,0,0-.37.1Z"/><path class="cls-13" d="M112.4,115.33a3.16,3.16,0,0,1,3.48.36A2.4,2.4,0,1,1,114,115c.79-.1.8-1.36,0-1.26a3.79,3.79,0,0,0-3.32,4.69,3.7,3.7,0,0,0,5,2.2,3.65,3.65,0,0,0,1.4-5.13c-1-1.52-3.66-2.07-4.93-.55-.14.16,0,.51.24.41Z"/><path class="cls-13" d="M81,104.4c-2.53.25-5,1.15-7.47,1.63-2.76.53-5.66.56-8.37,1.28-.35.09-.4.71,0,.77a24.36,24.36,0,0,0,7.79-.59c2.76-.51,5.78-1,8.22-2.49.25-.15.17-.64-.17-.6Z"/><path class="cls-13" d="M65.76,107.46c-2.66-5.11-4.59-9.72-4.53-15.61a.49.49,0,0,0-1,0c-.16,5.48,1.3,11.79,5.09,15.94.21.23.55-.07.42-.33Z"/><path class="cls-13" d="M54.13,92.75C47.6,89.36,40,88,32.69,87.41c-.6,0-.71.77-.29,1.06a10.09,10.09,0,0,1,3.32,3.67c.32.59,1.2.07.89-.52A11,11,0,0,0,33,87.49l-.29,1.05c7.41.53,14.18,2.54,21.22,4.72a.28.28,0,0,0,.22-.51Z"/><path class="cls-13" d="M36.54,92.14a42.9,42.9,0,0,0-16.79,2.5.65.65,0,0,0,.17,1.27c2.42.18,4.13,1.1,6.3,2.08.46.21,1-.35.58-.75-1.83-1.73-4.44-2.37-6.88-2.62l.17,1.26a67.29,67.29,0,0,1,16.45-3.13.31.31,0,0,0,0-.61Z"/><path class="cls-13" d="M26.71,97.48C20.78,97.1,14.6,99,9.17,101.19c-.45.19-.73.93-.16,1.2a23.87,23.87,0,0,0,5,2c.38.07.81-.45.43-.74a23.1,23.1,0,0,0-4.72-2.42l-.15,1.19c5.63-2.33,11.34-3.28,17.25-4.56.24,0,.17-.39-.06-.41Z"/><path class="cls-13" d="M14.37,103.38c-3.57,0-7.35,1.83-10.32,3.68a.67.67,0,0,0,.16,1.21,20.78,20.78,0,0,0,2.58.55c.71.09.73-.94.15-1.16A19.39,19.39,0,0,0,4.57,107l.15,1.22c3.13-2,6.37-2.82,9.74-4.15a.35.35,0,0,0-.09-.68Z"/><path class="cls-13" d="M63.92,109.35c-7.52,5.88-15.88,9.14-25.49,8.8l.37,1.37a17.12,17.12,0,0,0,5.13-5.58c.47-.83-.81-1.57-1.27-.75a13.43,13.43,0,0,1-4.61,5.06.75.75,0,0,0,.38,1.38c9.33.54,19.46-3,25.85-9.91a.26.26,0,0,0-.36-.37Z"/><path class="cls-13" d="M44.27,113.4c-5.32,1.16-10.22,2.74-15.75,2.92l.46,1.11c1.15-1.09,2.34-2.15,3.51-3.22.61-.56-.29-1.47-.9-.91-1.17,1.08-2.34,2.16-3.53,3.21a.66.66,0,0,0,.46,1.11c5.29-.19,11.36-.93,16-3.67a.3.3,0,0,0-.23-.55Z"/><path class="cls-13" d="M32.31,113.34A27.72,27.72,0,0,1,17,114.62l.16,1.24c1.41-.75,2.87-1.4,4.3-2.11.76-.37.1-1.49-.66-1.13-1.44.69-2.86,1.43-4.32,2.07-.56.25-.35,1.09.16,1.24a21.56,21.56,0,0,0,16-1.92c.36-.19.11-.83-.29-.67Z"/><path class="cls-13" d="M22.19,113.27c-4.08-.41-8-.55-12-1.65A.7.7,0,0,0,9.85,113c3.88,1.21,8.42,1.92,12.42.87.34-.08.24-.54-.08-.57Z"/><path class="cls-13" d="M59.09,97.27a28.32,28.32,0,0,0-15-2.2c-.44.05-.87.53-.56,1l2.37,3.37.55-1c-2.53-.24-5.09-.61-7.64-.65-.61,0-.78,1-.15,1.1,2.57.45,5.2.57,7.79.82a.64.64,0,0,0,.55-1l-2.35-3.38-.56,1a35.8,35.8,0,0,1,14.75,1.49c.33.1.57-.43.24-.58Z"/><path class="cls-13" d="M59.4,106.85c-2.27,2.22-4.35,3.92-7.55,4.56l.83.83.6-2.7a.69.69,0,0,0-.84-.83c-4.23.75-8.47,1.47-12.7,2.24l.68,1.18c.84-.85,1.75-1.62,2.66-2.39a.62.62,0,0,0-.27-1c-2.72-.67-5.43-1.4-8.16-2a.62.62,0,0,0-.33,1.2c2.71.7,5.45,1.34,8.17,2l-.27-1c-.87.74-1.73,1.48-2.65,2.14a.71.71,0,0,0,.54,1.29c4.24-.74,8.46-1.53,12.69-2.29l-.83-.84-.59,2.7a.69.69,0,0,0,.83.84c3.1-.72,6.28-2.51,7.7-5.48a.33.33,0,0,0-.51-.39Z"/><path class="cls-13" d="M76,95.59a.05.05,0,0,0,0-.1.05.05,0,1,0,0,.1Z"/><path class="cls-13" d="M76.53,96.57a5.55,5.55,0,0,0-1,.22c-.19.07-.18.39,0,.38a6,6,0,0,0,1-.19c.27-.06.15-.46-.11-.41Z"/><path class="cls-13" d="M77.43,97.67a5,5,0,0,0-2,.53.22.22,0,0,0,.09.35,1.92,1.92,0,0,0,.92-.07l1.17-.27c.36-.08.21-.61-.15-.54Z"/><path class="cls-13" d="M77.78,99.33a6.54,6.54,0,0,0-2.3.57.18.18,0,0,0,0,.32,6.69,6.69,0,0,0,2.4-.4c.32-.07.18-.56-.14-.49Z"/><path class="cls-13" d="M78.13,101l-1.42.24a3,3,0,0,0-1.23.35.2.2,0,0,0,0,.36,2.86,2.86,0,0,0,1.23-.15l1.5-.37c.28-.07.15-.48-.12-.43Z"/><path class="cls-13" d="M77.4,94.25a9.63,9.63,0,0,0-3,.63.32.32,0,0,0,.16.59,9.58,9.58,0,0,0,3-.63.31.31,0,0,0-.16-.59Z"/><path class="cls-13" d="M64,93.3a10,10,0,0,0-3.13,0,.22.22,0,0,0,0,.42A10.24,10.24,0,0,0,64,93.9a.3.3,0,0,0,0-.6Z"/><path class="cls-13" d="M64.07,95.65a3.52,3.52,0,0,1-1.92.25c-.52-.09-.95-.42-1.46-.46a.21.21,0,0,0-.19.32,2.17,2.17,0,0,0,1.57.74,4,4,0,0,0,2.16-.28c.34-.14.19-.71-.16-.57Z"/><path class="cls-13" d="M64.64,98l-1.74.12a3.78,3.78,0,0,0-1.38.24.23.23,0,0,0,0,.41,4.16,4.16,0,0,0,1.45,0l1.62-.19c.33,0,.35-.57,0-.54Z"/><path class="cls-13" d="M65,100.31a5.1,5.1,0,0,1-1.7.57,6.73,6.73,0,0,0-1.5.09c-.16.07-.26.28-.11.41a2.13,2.13,0,0,0,1.75.19,4.23,4.23,0,0,0,1.85-.88c.23-.17-.06-.51-.29-.38Z"/><path class="cls-13" d="M65.65,103c-.57,0-1.15,0-1.73,0a2.73,2.73,0,0,0-1.39.27.24.24,0,0,0,0,.41,2.76,2.76,0,0,0,1.51,0c.56-.07,1.12-.17,1.68-.27.27,0,.2-.47-.07-.47Z"/><path class="cls-13" d="M66.45,105.1a9.79,9.79,0,0,0-3.42.45.18.18,0,0,0,0,.32,9.84,9.84,0,0,0,3.45-.27c.28,0,.22-.53-.07-.5Z"/><path class="cls-13" d="M66.79,93.48c-1.82,3.79-1.41,9,1.81,11.92.17.15.47-.05.33-.26-2.36-3.62-3.22-7.29-1.55-11.41.14-.34-.43-.58-.59-.25Z"/><path class="cls-13" d="M76.19,103.13c-.51.15-1,.28-1.56.42a4.19,4.19,0,0,0-1.39.49.3.3,0,0,0,.15.56,3.8,3.8,0,0,0,1.42-.41c.51-.19,1-.39,1.52-.57a.26.26,0,0,0-.14-.49Z"/><path class="cls-13" d="M93.38,28.45a14.89,14.89,0,0,0-4.63-5.12c-.08,0-.18.05-.13.12A31.5,31.5,0,0,0,90.72,26c.76.92,1.47,1.89,2.21,2.83.21.25.61-.08.45-.35Z"/><path class="cls-13" d="M89.13,29.16c-.38-1.61-1.39-3.67-3-4.33-.25-.1-.37.24-.24.4.53.65,1.21,1.13,1.7,1.82a8.64,8.64,0,0,1,1.12,2.23.23.23,0,0,0,.44-.12Z"/><path class="cls-13" d="M86.83,20.82c1.22-.78,2.12.68,1.59,1.79a4,4,0,0,1-2,1.69A5.77,5.77,0,0,1,84,25a1,1,0,0,1-1.09-1.07c0-.44.73-1,1-1.23s-.19-1-.62-.62c-1,.82-2.17,2.66-.54,3.55,1.45.8,3.66-.34,4.85-1.15s2.27-2.23,1.53-3.69a1.61,1.61,0,0,0-2.75-.35c-.17.23.16.53.39.38Z"/><path class="cls-13" d="M86.74,20.89c.45.34.49.66.11.94a4.23,4.23,0,0,1-.51.44,5.46,5.46,0,0,1-.77.47c-.48.24-1.55.8-1.65,0a.29.29,0,0,0-.36-.28l-.14,0a.39.39,0,0,0-.28.29c-.34,2.14,2.69.78,3.46.22.57-.4,1.31-1,1.26-1.78a.93.93,0,0,0-1.2-.89c-.29.12-.28.6.08.59Z"/><path class="cls-13" d="M87.47,21.26a5.67,5.67,0,0,0-1.88-1.65,4.51,4.51,0,0,0-2.21-1.13.17.17,0,0,0-.14.25c.42.63,1.3.92,1.92,1.33a10.22,10.22,0,0,0,2.12,1.45c.15,0,.25-.13.19-.25Z"/><path class="cls-13" d="M84.53,23.22a5.18,5.18,0,0,0-1.1-1.65c-.39-.45-.92-1.13-1.52-1.27a.19.19,0,0,0-.21.27c.27.51.9.88,1.29,1.3s.8,1,1.26,1.52a.17.17,0,0,0,.28-.17Z"/><path class="cls-13" d="M80.57,16.52c.68-.15,1.52-.6,2.23-.39,1.43.42.26,2.18-.32,2.86a4.38,4.38,0,0,1-1.86,1.47c-1,.32-2.28-.39-1.35-1.52a.24.24,0,0,0-.24-.4c-1.15.31-1,1.9-.2,2.53,1.26,1,2.87.06,3.84-.89S85.14,17.39,84.2,16s-2.85-.84-3.89.06c-.21.19,0,.5.26.44Z"/><path class="cls-13" d="M81.28,16.61c.47-.42.92.14.81.62a1.81,1.81,0,0,1-.74.92c-.25.19-.51.36-.78.53l-.45.28a4.29,4.29,0,0,0-.52.25c.2-.31-.2-.68-.5-.5-.68.41-.18,1.34.51,1.32A2.94,2.94,0,0,0,81,19.38a6.77,6.77,0,0,0,1.27-1,1.66,1.66,0,0,0,.29-2.18,1,1,0,0,0-1.66.18c-.1.23.23.36.39.22Z"/><path class="cls-13" d="M82,17.49a8.27,8.27,0,0,0-1.87-1.39,3.72,3.72,0,0,0-2-.81.21.21,0,0,0-.15.36c.4.48,1.24.68,1.79,1s1.24.85,1.86,1.26c.27.18.54-.21.33-.42Z"/><path class="cls-13" d="M80.09,18.71a4.8,4.8,0,0,0-1.3-1.24c-.4-.29-1-.76-1.51-.65a.24.24,0,0,0-.14.34c.24.38.81.52,1.19.77A14.08,14.08,0,0,1,79.67,19c.22.18.6-.06.42-.33Z"/><path class="cls-13" d="M75.47,13.41a1.31,1.31,0,0,0,.38-.47q.12-.24.27-.48l1.65.29c.25.37-.41,2.06-.57,2.51a5.21,5.21,0,0,1-1.08,2.07c-1.09,1.05-2.21.34-2.34-.89a4,4,0,0,1,.44-1.58c.1-.28-.33-.45-.47-.2-.73,1.21-.89,3.23.66,3.91,1.71.76,2.85-1.38,3.37-2.63s1.71-4.07,0-4.88c-1.34-.64-2.81.94-2.7,2.21a.2.2,0,0,0,.34.14Z"/><path class="cls-13" d="M75.72,13.63c.12-.12.23-.28.36-.39a1.06,1.06,0,0,1,.47-.33l.44.45c0,.31-.42.93-.54,1.26A5.72,5.72,0,0,1,75.83,16a1.27,1.27,0,0,1-.75.56c-.57.09-1-.43-.53-.93a.3.3,0,0,0-.28-.5c-.85.18-.85,1.37-.28,1.86.94.8,2.15,0,2.63-.91.37-.69.62-1.49.92-2.22a1.3,1.3,0,0,0,0-1.28c-.73-.92-1.84,0-2.16.76-.1.23.17.51.37.29Z"/><path class="cls-13" d="M76.69,14.05l-1.92-.73a6.69,6.69,0,0,0-1.72-.57c-.2,0-.22.25-.09.34a6.58,6.58,0,0,0,1.69.68l1.92.69c.26.09.37-.32.12-.41Z"/><path class="cls-13" d="M76.46,15.31c-1-.74-2.64-1.83-3.95-1.64-.17,0-.17.28,0,.36a10.53,10.53,0,0,0,1.77.6,11,11,0,0,1,2,1c.22.14.4-.2.2-.35Z"/><path class="cls-13" d="M68.46,7c1.75,1.58,4,3.19,3.64,5.88-.38,3-3.92,4.05-6.39,2.8A4.75,4.75,0,0,1,63.39,10a4.59,4.59,0,0,1,6.14-2.58.45.45,0,1,0,.35-.83,5.46,5.46,0,0,0-7.09,2.6,5.59,5.59,0,0,0,2.48,7.25c2.41,1.21,5.9.65,7.16-1.93,1.51-3.08-1.12-6.4-3.73-7.8-.19-.11-.41.15-.24.3Z"/></svg>