<svg id="carracters" xmlns="http://www.w3.org/2000/svg" viewBox="0 0 198.43 35.43"><defs><style>.cls-1{fill:#fff;}.cls-2{fill:#6e6e6e;opacity:0.5;}</style></defs><path d="M189.7,18.88c-.07.41-.12.83-.23,1.23A6.08,6.08,0,0,1,186.35,24a4.48,4.48,0,0,1-1.82.49l.3.68c-.1.11-.17.12-.24,0s-.23-.5-.33-.75a.23.23,0,0,1,.05-.23c.21-.19.43-.36.65-.53.13.07.17.14,0,.24l-.53.42a4.61,4.61,0,0,0,1.92-.54,6,6,0,0,0,3-4.14,4.85,4.85,0,0,0-3.72-5.8c-.11,0-.34,0-.23-.24a4.38,4.38,0,0,1,1.32.4,5,5,0,0,1,2.9,3.78l.06.4Z"/><path d="M130.73,10.42c.06-.1.14-.1.24,0l.72.4c-.19-.84-.38-1.64-.57-2.44l-.39-1.58v-.1h.21l.95,4.05.48-.84.18.09L132,11a.16.16,0,0,1-.26.06l-1-.53Z"/><path d="M176.75,25.3l1.54-.28a11.18,11.18,0,0,0,4-1.56,4.88,4.88,0,0,0,2.26-3.23,5.56,5.56,0,0,0-3.14-6.15,13.07,13.07,0,0,0-1.24-.45c-.16-.05-.32-.07-.51-.11A29.65,29.65,0,0,1,178,17.8a19.26,19.26,0,0,1-2.47,3.88l1,1.06L175.43,24l-1-1.13-.74.62a6.78,6.78,0,0,1-3,1.4,3.14,3.14,0,0,1-3.9-2.53,7.43,7.43,0,0,1,.85-5.58,8.72,8.72,0,0,1,2.79-2.94.29.29,0,0,0,.13-.34c-.38-1.81-.75-3.63-1.14-5.5h2.26c0,.28-.21.4-.48.51l.79,4.49a12.43,12.43,0,0,1,3.19-1,16.9,16.9,0,0,1,3.34-.2,45.44,45.44,0,0,0,.91-5l2.27.5a.39.39,0,0,1-.37.31c-.18,0-.22.12-.25.28-.27,1.4-.56,2.79-.84,4.19.36.1.76.19,1.14.32a6.84,6.84,0,0,1,4.91,5.6,6.39,6.39,0,0,1-1.8,5.94,9.34,9.34,0,0,1-3.61,2.08,16.82,16.82,0,0,1-3.21.75.24.24,0,0,1-.21-.1C177.18,26.16,177,25.74,176.75,25.3Zm-3.26-3.68c-.49-1.06-1-2.07-1.42-3.12s-.74-2.14-1.11-3.23a6.86,6.86,0,0,0-2.07,2.25,5.74,5.74,0,0,0-.66,4.36,1.78,1.78,0,0,0,2.31,1.43A6.14,6.14,0,0,0,173.49,21.62Zm4.58-8.45c-.76,0-1.46.06-2.17.13a9.57,9.57,0,0,0-3.42,1c-.14.07-.15.14-.12.27A25.76,25.76,0,0,0,174,19.26c.17.34.37.67.57,1A21,21,0,0,0,178.07,13.17Z"/><path class="cls-1" d="M25.8,28.3,27.34,28a11.18,11.18,0,0,0,4-1.56,4.91,4.91,0,0,0,2.26-3.23,5.56,5.56,0,0,0-3.14-6.15c-.4-.18-.83-.31-1.24-.45-.16-.05-.33-.07-.51-.11a29.65,29.65,0,0,1-1.67,4.28,19.76,19.76,0,0,1-2.48,3.88l1,1.06L24.48,27l-1-1.13c-.25.2-.49.42-.75.62a6.69,6.69,0,0,1-3,1.4,3.14,3.14,0,0,1-3.9-2.53,7.38,7.38,0,0,1,.85-5.58,8.79,8.79,0,0,1,2.78-2.94.27.27,0,0,0,.13-.34c-.37-1.81-.74-3.63-1.13-5.5h2.26c0,.28-.21.4-.48.51L21,16a12.69,12.69,0,0,1,3.19-1,16.9,16.9,0,0,1,3.34-.2,43.22,43.22,0,0,0,.92-5l2.27.5a.39.39,0,0,1-.37.31c-.18,0-.22.12-.25.28L29.24,15c.36.1.76.19,1.14.32a6.85,6.85,0,0,1,4.91,5.6,6.39,6.39,0,0,1-1.8,5.94,9.34,9.34,0,0,1-3.61,2.08,16.92,16.92,0,0,1-3.22.75.23.23,0,0,1-.2-.1C26.23,29.16,26,28.74,25.8,28.3Zm-3.26-3.68c-.49-1.06-1-2.07-1.42-3.12s-.75-2.14-1.12-3.23a6.94,6.94,0,0,0-2.06,2.25,5.7,5.7,0,0,0-.66,4.36,1.78,1.78,0,0,0,2.3,1.43A6.12,6.12,0,0,0,22.54,24.62Zm4.57-8.45c-.75,0-1.46.06-2.16.13a9.62,9.62,0,0,0-3.43,1,.19.19,0,0,0-.11.27,25.76,25.76,0,0,0,1.66,4.65c.17.34.37.67.56,1A20.59,20.59,0,0,0,27.11,16.17Z"/><path class="cls-2" d="M140.66,25.3,142.2,25a11.18,11.18,0,0,0,4-1.56,4.91,4.91,0,0,0,2.26-3.23,5.56,5.56,0,0,0-3.14-6.15c-.4-.18-.83-.31-1.24-.45-.16-.05-.33-.07-.51-.11a29.65,29.65,0,0,1-1.67,4.28,19.31,19.31,0,0,1-2.48,3.88l1,1.06L139.34,24l-1-1.13c-.24.2-.49.42-.75.62a6.69,6.69,0,0,1-3,1.4,3.14,3.14,0,0,1-3.9-2.53,7.43,7.43,0,0,1,.85-5.58,8.72,8.72,0,0,1,2.79-2.94.29.29,0,0,0,.13-.34c-.38-1.81-.75-3.63-1.14-5.5h2.26c0,.28-.21.4-.48.51l.79,4.49a12.49,12.49,0,0,1,3.18-1,16.9,16.9,0,0,1,3.34-.2,43.22,43.22,0,0,0,.92-5l2.27.5a.39.39,0,0,1-.37.31c-.18,0-.22.12-.25.28-.27,1.4-.56,2.79-.84,4.19.36.1.76.19,1.14.32a6.84,6.84,0,0,1,4.91,5.6,6.39,6.39,0,0,1-1.8,5.94,9.34,9.34,0,0,1-3.61,2.08,16.74,16.74,0,0,1-3.22.75.23.23,0,0,1-.2-.1C141.09,26.16,140.88,25.74,140.66,25.3Zm-3.26-3.68c-.49-1.06-1-2.07-1.42-3.12s-.75-2.14-1.12-3.23a6.94,6.94,0,0,0-2.06,2.25,5.7,5.7,0,0,0-.66,4.36,1.78,1.78,0,0,0,2.31,1.43A6.14,6.14,0,0,0,137.4,21.62ZM142,13.17c-.76,0-1.47.06-2.17.13a9.68,9.68,0,0,0-3.43,1,.19.19,0,0,0-.11.27,25.76,25.76,0,0,0,1.66,4.65c.17.34.37.67.57,1A21,21,0,0,0,142,13.17Z"/><path d="M133.23,7.93h2.2c0,.27-.21.4-.46.5.08.55.16,1.09.25,1.63a45.65,45.65,0,0,0,1.23,5.54,17.91,17.91,0,0,0,1.83,4.46,10.62,10.62,0,0,0,2,2.62s0,.05,0,0L139.23,24c-.37-.44-.71-.83-1-1.23A19.34,19.34,0,0,1,135,16.09a57.61,57.61,0,0,1-1.73-7.68Z"/><path d="M168.77,14.14l-.56-.53.13-.15c.25.23.5.45.73.68a.23.23,0,0,1,0,.21c-.17.32-.36.62-.55.93l-.17-.11.46-.77-.05-.05c-.33.25-.69.47-1,.75a7.76,7.76,0,0,0-2.58,5,5.86,5.86,0,0,0,.32,3,4,4,0,0,0,3,2.48,4.88,4.88,0,0,0,2.57-.12l.22,0,.06,0c0,.06-.06.16-.11.17a4.85,4.85,0,0,1-5.1-1.1,3.91,3.91,0,0,1-1.15-2.39,7.88,7.88,0,0,1,3.29-7.74A3.21,3.21,0,0,1,168.77,14.14Z"/><path d="M182.68,9l.12.16c-.35.2-.69.41-1,.59a.26.26,0,0,1-.21-.08c-.2-.32-.38-.65-.58-1,.1-.11.17-.14.26,0s.26.46.41.72l1.29-4,.19,0-1.28,4Z"/></svg>