<svg id="illustration" xmlns="http://www.w3.org/2000/svg" viewBox="0 0 198.43 135.9"><defs><style>.cls-1{fill:#5b5e60;}.cls-2{fill:#bcbec0;}.cls-3{fill:#fff;}.cls-4{fill:#b8babc;}.cls-5{fill:#afb1b4;}.cls-6{fill:#e01f26;}.cls-7{fill:#25140b;}.cls-8{fill:#72cac3;}.cls-9{opacity:0.4;}.cls-10{fill:#ee3724;}.cls-11{fill:#adafb2;}.cls-12{fill:#010101;}</style></defs><polygon class="cls-1" points="102.18 10.53 113.07 12.5 124.27 19.45 131.57 29.29 133.5 34.14 134.39 36.28 136.68 35.12 139.79 37.34 143.03 48.06 145.12 55.34 141.47 53.56 137.88 48.58 133.5 51.27 131.48 58 131.6 62.52 129.01 65.34 126.42 66.01 126.42 72.53 124.27 83.79 123.78 92.04 122.89 96.95 120.72 105.32 118.56 109.62 113.48 115.22 108.1 117.84 104.93 123.39 97.82 128.38 88.72 130.29 78.86 129.73 75.18 129.3 68.28 127.7 63.71 126.1 58.26 123.46 54.62 121.18 51.03 117.92 48.78 110.56 46.99 103.19 44.59 87.58 44.59 81.67 47.6 74.59 52.19 69.84 59.33 58.18 64.4 49.47 66.92 43.54 68.28 40.84 73.27 30.67 73.96 27.7 75.88 23.85 76.13 22.23 70.23 23.62 63.94 25.78 59.7 26.43 55.58 26.12 61.67 22.33 67.26 18.86 71.67 15.52 77.36 13.55 79.9 14.35 80.97 16.18 83.49 15.83 86.86 13.93 91.62 12.06 102.18 10.53"/><path class="cls-2" d="M77.65,27.48a12.35,12.35,0,0,0-7,3.05c-1.81,1.83-1.83,4.86-1.39,7.23.87,4.74,5.25,8.58,10.22,7.45,5.12-1.16,6.34-6.9,5.88-11.43C85.1,31.35,84,29,81.59,28.1s-4.94,0-7.16,1.08c-2.92,1.35-.38,5.66,2.52,4.31.78-.36,2.2-1.15,3-.57s.53,2.12.51,2.9c0,1.79-.28,4.46-2.55,4.59-2.08.12-3.39-1.82-3.73-3.65a5.05,5.05,0,0,1,0-2.7c.46-.74,2.71-1.48,3.48-1.58,3.14-.42,3.18-5.43,0-5Z"/><path class="cls-3" d="M79.25,31.1c-3-1.63-5.76,1-6.21,3.88a5.75,5.75,0,0,0,4.53,6.74,5,5,0,0,0,5.79-4.91c0-3.23-2.7-5.29-5.7-5.53a2.51,2.51,0,0,0-2.5,2.5,2.56,2.56,0,0,0,2.5,2.5.81.81,0,0,1,.67.36c.29.65-.12.29-.07.21.3-.52.25.56-.08-.14-.11-.24-.21-.18-.25-.57,0-.18.1-.49.07-.61-.08-.35-1.62-.3-1.28-.11,2.82,1.56,5.35-2.76,2.53-4.32Z"/><path class="cls-4" d="M128.51,44.44a9.65,9.65,0,0,0-7.11,9.85,9.1,9.1,0,0,0,2.66,6c1.61,1.47,4,1.76,6.12,1.79,10.74.16,8.48-18.24-1.69-16.2-3.15.64-1.82,5.46,1.33,4.83,2.12-.43,2.51,2.81,2.43,4.22-.14,2.25-1.45,2.33-3.48,2-1.85-.27-2.58-2-2.4-3.75a4.67,4.67,0,0,1,3.47-3.93c3.06-.94,1.76-5.77-1.33-4.82Z"/><path class="cls-5" d="M131.44,48.38a3.85,3.85,0,0,0-4.77.63,4.92,4.92,0,0,0-1.29,4.7c.78,3.2,4.26,5.33,7.38,4,2.87-1.25,4.37-5,2.5-7.7a5.31,5.31,0,0,0-8-.81c-2.31,2.25,1.23,5.78,3.53,3.53-.23.23.18-.06,0,0-.37.08-.15-.05,0,0-.27-.14.45.18.43.19s-.21-.27-.23-.32c.06.19,0,.31,0,.16.13-.35-.21.31,0,.07-.18.24-.07.14-.22.27s0,0,0,0c-.19.14-.35-.05-.13,0s-.3-.2-.35-.25-.26-.35-.11-.21l-.07-.29a.09.09,0,0,1,0,.11s-.07.14-.12.16a1.54,1.54,0,0,1-1.19.05,2.52,2.52,0,0,0,3.42-.9,2.55,2.55,0,0,0-.89-3.42Z"/><path class="cls-3" d="M51.22,106.88a17,17,0,0,0-2.11,7.74c-.07,2.22,1.78,2.7,3.6,3.41s4.4,1.72,6,.33,2.08-4.68,2.72-6.61c.36-1.07-1.33-1.53-1.69-.46-.48,1.43-.93,2.89-1.45,4.31-.83,2.28-3.4,1.5-5.2.94-1.13-.35-2.32-.5-2.58-1.92a9.45,9.45,0,0,1,.45-2.87c.31-1.51.85-3,1.1-4.5a.48.48,0,0,0-.87-.37Z"/><path class="cls-3" d="M50.88,108.47c1.15,1.54,3.68,2,5.42,2.6,1.34.49,3.43,1.85,4.66.57.78-.81-.37-1.89-1.2-1.21-.42.34-4.1-1.39-4.69-1.6-1.31-.45-2.64-1.14-4-.79a.3.3,0,0,0-.17.43Z"/><path class="cls-3" d="M59.1,111.8a7.13,7.13,0,0,0-1.63,2.5c-.43.8-1.2,1.65-1.17,2.59a.54.54,0,0,0,.8.46c.93-.45,1.34-1.77,1.76-2.66a5,5,0,0,0,.68-2.78c0-.22-.31-.22-.44-.11Z"/><path class="cls-3" d="M57,111a12.14,12.14,0,0,0-2.35,5.43c-.25,1.31,1.78,1.83,2,.55.28-1.87.72-3.72,1.08-5.58.06-.36-.41-.76-.7-.4Z"/><path class="cls-3" d="M54.91,111a14.6,14.6,0,0,0-2.21,5.94l1.9-.25a1.54,1.54,0,0,0-.58-.79.57.57,0,0,0-.79,0,2.11,2.11,0,0,0-.53,1,1,1,0,0,0,2,.56,14.53,14.53,0,0,0,.95-6.31.45.45,0,0,0-.75-.19Z"/><path class="cls-3" d="M53.49,110.7c-1.24,1.26-2.41,4.14-1.66,5.83.33.72,1.32.54,1.69,0a5.73,5.73,0,0,0,.5-2.7,13.6,13.6,0,0,0,.15-2.85.41.41,0,0,0-.68-.28Z"/><path class="cls-3" d="M51.78,110.09a7.76,7.76,0,0,0-.93,2.69,10.28,10.28,0,0,0-.48,3,1,1,0,0,0,2,.28,9.93,9.93,0,0,0,.26-3,7.58,7.58,0,0,0-.24-2.85.36.36,0,0,0-.64-.09Z"/><path class="cls-3" d="M51.35,110.81c1.91,2,5.43,2.44,8,2.68,1.63.16,2-2.56.39-2.87-2.5-.47-5.77-1.31-8.25-.54a.44.44,0,0,0-.19.73Z"/><path class="cls-3" d="M57.58,112.51a5.86,5.86,0,0,0-.9,1.48,3.79,3.79,0,0,0-.63,1.81c.07.67,1,1.31,1.54.63a3.58,3.58,0,0,0,.54-1.93,5.63,5.63,0,0,0,0-1.83.36.36,0,0,0-.59-.16Z"/><path class="cls-3" d="M51.84,110.46c.43.9-.08,1.92.39,2.79a.79.79,0,0,0,1.24.16c1-1.14-.08-2.66-1-3.43a.39.39,0,0,0-.61.48Z"/><path class="cls-3" d="M95,120.48a36.15,36.15,0,0,0-1.67,7.34c-.13.88,1.19,1.29,1.37.38a37.18,37.18,0,0,0,.91-7.64.31.31,0,0,0-.61-.08Z"/><path class="cls-3" d="M93.88,128.46c1,1.12,2.33,1.36,3.74,1.67a10.72,10.72,0,0,0,4.28.36,1,1,0,0,0,.23-1.77,14.63,14.63,0,0,0-4.08-1.13,7,7,0,0,0-3.88-.2.65.65,0,0,0-.29,1.07Z"/><path class="cls-3" d="M102.26,129.35a8.84,8.84,0,0,0,1-3.61c.26-1.43.54-2.85.88-4.27.21-.86-1.13-1.23-1.32-.36-.34,1.47-.64,3-.84,4.46a6.93,6.93,0,0,0,.07,3.78c0,.12.2.09.25,0Z"/><path class="cls-3" d="M103.61,120.25c-1.26,0-2.47.41-3.73.39s-2.48-.55-3.77-.65c-.94-.08-1.1,1.19-.44,1.64,2.08,1.44,6.4,1.07,8.25-.63a.45.45,0,0,0-.31-.75Z"/><path class="cls-3" d="M104,119.92a6.8,6.8,0,0,0-.87,2.08c-.2.64-.7,1.34-.3,2a.5.5,0,0,0,.56.22c.78-.2.88-1.15,1-1.84a3.73,3.73,0,0,0,0-2.38.23.23,0,0,0-.41-.06Z"/><path class="cls-3" d="M104.22,119.67c-.21.3-.51.5-.73.79a5,5,0,0,0-.49.8c-.22.42-.55,1.16.06,1.43s.92-.44,1.1-.86a4.82,4.82,0,0,0,.32-.9c.08-.37,0-.72.15-1.08a.23.23,0,0,0-.41-.18Z"/><path class="cls-3" d="M101.89,121.6a30.21,30.21,0,0,0-1.81,4.5c-.11.35-.2.71-.3,1.07a6.69,6.69,0,0,1-.39.9c-.06-.2.71.48.8.55a.87.87,0,0,0,1.34-.17c1.19-1.71-1.09-3.44-2.73-3.09a2.76,2.76,0,0,0-1.59,4.14,2.69,2.69,0,0,0,4.34,0,7.7,7.7,0,0,0,.83-3.33,29.78,29.78,0,0,0,.24-4.33c0-.37-.55-.56-.73-.2Z"/><path class="cls-3" d="M100.22,122.17a10.92,10.92,0,0,0-2.17,4.41,1.36,1.36,0,0,0,2.62.72,10.94,10.94,0,0,0,.35-4.92.48.48,0,0,0-.8-.21Z"/><path class="cls-3" d="M98.1,121.88A32.56,32.56,0,0,0,96.34,125c-.33.78-1,2-.53,2.84l.17-1.26a1.07,1.07,0,0,0,0,1.49,1.22,1.22,0,0,0,1.9-.24c.89-1.82.58-3.93.64-5.87a.23.23,0,0,0-.43-.12Z"/><path class="cls-3" d="M96.51,122.34a12.46,12.46,0,0,0-1.33,3c-.32.92-.76,2-.23,2.86a.77.77,0,0,0,1,.27c.85-.58.92-1.56,1-2.54a12.69,12.69,0,0,0,.1-3.37.34.34,0,0,0-.62-.17Z"/><path class="cls-3" d="M95.9,122a6.44,6.44,0,0,0-.86,2,1.79,1.79,0,0,0-.2,1.26.92.92,0,0,0,.83.68c1.65.14,1.59-3.19.72-4a.36.36,0,0,0-.49,0Z"/><path class="cls-3" d="M84,125.72a12.36,12.36,0,0,0,1.4-2.79,13.37,13.37,0,0,0,1.2-2.85c0-.18-.19-.36-.34-.2a13,13,0,0,0-1.47,2.75,13.27,13.27,0,0,0-1.33,2.86.3.3,0,0,0,.54.23Z"/><path class="cls-3" d="M86.48,119.44a6.9,6.9,0,0,0,.14,2.82,18.15,18.15,0,0,0,.7,3.43.61.61,0,0,0,1.2-.16,17.21,17.21,0,0,0-.48-3.18,7.69,7.69,0,0,0-.89-3,.37.37,0,0,0-.67.08Z"/><path class="cls-3" d="M84,125.58c.57.52,1.29.3,2,.07a3.34,3.34,0,0,0,1.87-1.08.53.53,0,0,0-.46-.8,7.21,7.21,0,0,0-1.83.75c-.61.22-1.22.28-1.57.87a.15.15,0,0,0,0,.19Z"/><path class="cls-3" d="M86,122.33a5.13,5.13,0,0,0-1.69,2.94.59.59,0,0,0,1.09.29,8.85,8.85,0,0,0,.44-1.41,8.52,8.52,0,0,1,.64-1.45.31.31,0,0,0-.48-.37Z"/><path class="cls-3" d="M85.77,122.07c-.78.25-2,1.37-1.21,2.21a.36.36,0,0,0,.51,0c.43-.35.4-1,1-1.23s.37-1.18-.27-1Z"/><path class="cls-3" d="M86,122.18a9.32,9.32,0,0,0-.33,1.57,2.73,2.73,0,0,0,.1,1.65.77.77,0,0,0,1.43-.39,6.15,6.15,0,0,0-.45-1.31,4.06,4.06,0,0,1-.12-1.43c0-.37-.53-.43-.63-.09Z"/><path class="cls-3" d="M86.1,121.78a5.85,5.85,0,0,1-.39,1.6c-.21.56-.57,1-.16,1.56a.79.79,0,0,0,1.07.28l.12-.06a.92.92,0,0,0,.46-.8,7.53,7.53,0,0,0-.56-2.65.28.28,0,0,0-.54.07Z"/><path class="cls-3" d="M86.37,122.1c-.64.4-1.77,1-1.76,1.9a.52.52,0,0,0,.5.5c.87,0,1.46-1.15,1.85-1.81a.43.43,0,0,0-.59-.59Z"/><path class="cls-3" d="M63.07,120.66a7.71,7.71,0,0,1,1.43-3.53c.38-.48-.23-1.15-.7-.69a5.29,5.29,0,0,0-1.67,4.09c.06.49.82.7.94.13Z"/><path class="cls-3" d="M64.69,116.28c-1.14,1.25-.45,4.25.53,5.44.41.5,1.19,0,1-.61a22.07,22.07,0,0,1-.75-2.39,9.59,9.59,0,0,0-.21-2.28.37.37,0,0,0-.61-.16Z"/><path class="cls-3" d="M63.18,119.67a1.38,1.38,0,0,0,0,.67,1.85,1.85,0,0,0,.35.7,1.9,1.9,0,0,0,1.41.75.79.79,0,0,0,.21-1.54,1.59,1.59,0,0,1-1.12-.69.45.45,0,0,0-.81.11Z"/><path class="cls-3" d="M63.52,117.67a1.35,1.35,0,0,0-.27.76,8,8,0,0,1-.33,1c-.24.74.91,1,1.16.32s.27-1.82-.37-2.15a.17.17,0,0,0-.19,0Z"/><path class="cls-3" d="M63.53,119a2.35,2.35,0,0,0,.1.58.28.28,0,0,0,.54,0,2.35,2.35,0,0,0,.1-.58c0-.47-.78-.47-.74,0Z"/><path class="cls-6" d="M66.49,116.4c-.53,2.51-.12,5.8,2.24,7.34,1.68,1.1,4.3,1.24,6.2,1.63a31,31,0,0,0,6.7.83.92.92,0,0,0,0-1.83c-3.16-.37-6.23-.94-9.35-1.56-1.45-.29-3.06-.36-4-1.7s-.72-3.08-.9-4.59c-.06-.46-.78-.67-.89-.12Z"/><path class="cls-6" d="M81.82,125.45a3.73,3.73,0,0,0,1.37-3.32c-.12-.57-.91-.48-1.07,0s-.13,1.06-.27,1.58-.3,1-.43,1.51c-.07.25.22.37.4.23Z"/><path class="cls-6" d="M83.23,123c-.93-3.82-7-5.53-10.1-3.47a.84.84,0,0,0,.42,1.55c1.75.23,3.36-.53,5.16,0a6.9,6.9,0,0,1,3.58,2.49c.38.45,1.07,0,.94-.55Z"/><path class="cls-6" d="M76,119.08c-1.78-2.86-5.5-3.66-8.66-3.1-1.25.22-1,2.4.31,2.24,2.87-.38,5.22.45,7.85,1.51.37.15.7-.34.5-.65Z"/><path class="cls-6" d="M67.79,117.56c-1.42,1.86.2,4.59,2,5.44,1.47.69,2.77-1.5,1.28-2.2a5.21,5.21,0,0,1-2.47-3.13.46.46,0,0,0-.83-.11Z"/><path class="cls-6" d="M69.77,117.68c-.81.33-1,1.65-.81,2.41a5.33,5.33,0,0,0,1.94,3.11,1.48,1.48,0,0,0,2,0,1.46,1.46,0,0,0,0-2,9,9,0,0,1-1.82-2.24,8.53,8.53,0,0,0-.72-.94c-.14-.15-.38-.4-.62-.3Z"/><path class="cls-6" d="M71.33,118.93a4.65,4.65,0,0,0,1,5.2c.94.86,2.93,0,2.36-1.38-.3-.74-.73-1.43-1.1-2.14a10.17,10.17,0,0,0-1.09-1.83.78.78,0,0,0-1.21.15Z"/><path class="cls-6" d="M73.89,120l-.07.15.28-.36h0a.78.78,0,0,0-.41.71c0,.31,0,.59,0,.9a3.15,3.15,0,0,0,.22.74,5.81,5.81,0,0,0,.88,1.67c.89,1,2.42-.09,2.15-1.26A4.75,4.75,0,0,0,76.2,121a3.86,3.86,0,0,0-.44-.62,6.8,6.8,0,0,0-.68-.52.82.82,0,0,0-.8-.22h.13a.43.43,0,0,0-.52.3Z"/><path class="cls-6" d="M77.48,120.46a2.42,2.42,0,0,0-.94,1.32,3,3,0,0,0,.16,2.42,1.3,1.3,0,0,0,2.4-.65,4.33,4.33,0,0,0-.45-1.82,4,4,0,0,0-.71-1.21.39.39,0,0,0-.46-.06Z"/><path class="cls-6" d="M79.55,120.69c-.88.62-1,2.14-1,3.13a1.33,1.33,0,0,0,2.66,0c0-1-.1-2.51-1-3.13a.68.68,0,0,0-.7,0Z"/><path class="cls-6" d="M81.41,122.53a5.39,5.39,0,0,0-1,1.38.9.9,0,1,0,1.64.21,4.56,4.56,0,0,1,0-1.33c0-.33-.41-.45-.61-.26Z"/><path class="cls-7" d="M58.47,80.71l-.14.07.47.06a2.89,2.89,0,0,0-1.86-.41,3.37,3.37,0,0,0-2.13.64,2.16,2.16,0,0,0-.71,2.08c.16.77.78,1.69,1.67,1.58.57-.06,1.21-.48.92-1.12s.05.4,0,0a1.5,1.5,0,0,0-.28-.6c0-.07-.16-.21-.15-.24.06-.21,1.29-.29,1.45-.36.64-.25,1.37-.54,1.23-1.36l-.1.38.11-.11a.37.37,0,0,0-.44-.57Z"/><path class="cls-7" d="M56.34,80.81l.11,0a.57.57,0,0,0-.67.08,2.07,2.07,0,0,0,.41,3.19A3.39,3.39,0,0,0,60.35,84a2.34,2.34,0,0,0-.49-3.57,2.72,2.72,0,0,0-2.26-.28c-.64.19-1.49.85-1.4,1.6a.68.68,0,0,0,.48.63c.68.1,1.28-.51,1.93-.38s.59.7,0,.89-1.67.17-2-.4.22-1,0-1.47v.39l.09-.12c.19-.25-.11-.54-.37-.48Z"/><path class="cls-7" d="M56.35,83.46c-.46,1.27,1.35,2,2.35,1.94a2.33,2.33,0,0,0,2.2-2.63.78.78,0,0,0-1.41-.19c-.31.47-.56,1.11-1.19,1.23s-1.09-.5-1.67-.57c-.13,0-.24.11-.28.22Z"/><path class="cls-7" d="M57.56,81.72c-.07.1-.24.15-.33.25a1.54,1.54,0,0,0-.22.3,1.45,1.45,0,0,0-.13,1.12v-.53a2,2,0,0,0,1.42,2.2c1.65.52,2.4-2.19.72-2.58l-.23,0c-.26,0,.16.1-.17-.05s.08,0-.12-.06a2.27,2.27,0,0,0-.39-.16l.45.26a2.25,2.25,0,0,0-.31-.32c-.12-.1-.12-.09,0,0a.74.74,0,0,0-.14-.22l0,.31,0-.11c.09-.34-.39-.68-.63-.37Z"/><path class="cls-7" d="M54.78,83.76c.73,2.47,3.85,2.63,5.55,1a3.48,3.48,0,0,0,1.18-3.09A2,2,0,0,0,59.13,80c-1.32.29-.77,2.36.56,2-.37.08-.1-.07-.21.33a2.2,2.2,0,0,1-.2.54,2,2,0,0,1-1.16.91,3.67,3.67,0,0,1-2.64-.62.48.48,0,0,0-.7.54Z"/><path class="cls-7" d="M59.22,81a3.41,3.41,0,0,0-.86.6,2.58,2.58,0,0,0-.56,1,1.13,1.13,0,1,0,2.06-.27c-.11-.17-.15-.36-.26-.55l.11.4a1.34,1.34,0,0,1,0-.69.36.36,0,0,0-.49-.5Z"/><path class="cls-7" d="M112.94,95.66a4.13,4.13,0,0,0-3.49,4.6c.34,2.55,3,3.5,5.29,2.94a4.61,4.61,0,0,0,3.53-5.34,4,4,0,0,0-2-2.56c-1-.53-2.53-.75-3.28.2a1,1,0,0,0,.44,1.69c1.05.31,2.34-.24,2.72,1.25a2.54,2.54,0,0,1-2.15,2.91c-1.37.31-2.78-.29-2.91-1.81s1.17-2.23,2.14-3.1a.46.46,0,0,0-.32-.78Z"/><path class="cls-7" d="M115,96.78c-1-1.44-2.86.38-3.21,1.51a3.41,3.41,0,0,0,2,4,1.17,1.17,0,0,0,1.16,0c1.42-1.06,2.75-2.77,1.76-4.59a2.24,2.24,0,0,0-4.08.4,1.34,1.34,0,0,0,.59,1.46l.15.09a1,1,0,0,0,1.21-.15l-.36.19.3-.13c.09-.07.51-.36.5-.54s0,0-.17,0a.2.2,0,0,1-.23,0c-.08-.08-.1-.07,0,0s-.11.45-.16.54a5.59,5.59,0,0,1-.85.9l1.12-.29a1.08,1.08,0,0,1-.67-1.84c.27-.32,1.43-1,1-1.57Z"/><path class="cls-7" d="M113.34,96.56a4.47,4.47,0,0,0-1,.52,3.31,3.31,0,0,0-.77,1,3.25,3.25,0,0,0-.09,3,1.14,1.14,0,0,0,1,.59c.79,0,1.88-.5,1.76-1.48a.87.87,0,0,0-.6-.78c-.28-.11-.56,0-.84-.09l.84.83a5.27,5.27,0,0,1-.37-1.65,3.11,3.11,0,0,1,.42-1.53c.18-.24-.17-.49-.39-.38Z"/><path class="cls-7" d="M112,96.78c-2-1-3.58,2.34-2.19,3.7.53.52,1.71.19,1.6-.66-.06-.5-.3-1-.11-1.48a4.8,4.8,0,0,1,.39-.7c.11-.2-.06.06,0-.08a4.59,4.59,0,0,1,.33-.44.22.22,0,0,0,0-.34Z"/><path class="cls-7" d="M116.52,98.62c-.31.45-.17,1-.6,1.44s-1,.61-.73,1.29a.68.68,0,0,0,.58.33,1.91,1.91,0,0,0,1.72-1.35c.25-.66.23-1.63-.55-1.89a.38.38,0,0,0-.42.18Z"/><path class="cls-8" d="M72.34,33c-2.82,4,1,9.75,5.86,8.32s4.82-8.91-.45-9.66a1.3,1.3,0,1,0-.34,2.56c3.28.39,2.08,5-.86,5-3.18,0-4.29-3.3-3.23-5.83.24-.59-.66-.87-1-.41Z"/><path class="cls-8" d="M73,34a2.84,2.84,0,0,0,2.3,1.53,3.27,3.27,0,0,0,2.84-1.29c.56-.76-.55-1.84-1.31-1.31a3.29,3.29,0,0,1-3.32.56A.37.37,0,0,0,73,34Z"/><path class="cls-8" d="M76.39,34.31A3.52,3.52,0,0,0,73.61,36a2.3,2.3,0,0,0,.67,3.2c2.23,1.38,5.87,0,5.33-2.94A3.29,3.29,0,0,0,73.72,35a2.22,2.22,0,0,0-.41,2.07,1.16,1.16,0,0,0,1.38.79,3.25,3.25,0,0,0,1.28-1,1.13,1.13,0,0,1,.43-.32s.3,0,.16,0a.29.29,0,0,1,.21.19c0-.08.06.19.07.22,0,.21,0,0,0,0a1.46,1.46,0,0,1-.79.16c-.4,0-.75-.06-.68-.57.1-.72.93-.94,1.33-1.41a.45.45,0,0,0-.31-.76Z"/><path class="cls-8" d="M73.6,35.12c-.78,1.53.59,3.29,1.87,4s4.42,1.42,4.81-.62a1,1,0,0,0-.42-1c-.87-.62-2.19,0-3.2-.42a9.57,9.57,0,0,1-2.56-2,.32.32,0,0,0-.5.06Z"/><path class="cls-8" d="M72.51,34.42c-.86,1.29.5,3.71,2,3.63a1,1,0,0,0,.81-1.42c-.32-.49-.84-.7-1.21-1.14s-.53-.81-.85-1.17a.51.51,0,0,0-.79.1Z"/><path class="cls-8" d="M124.73,50.28c-3.43,2.43.68,7.93,4,7.85a4.46,4.46,0,0,0,4-3.31c.46-1.8-.31-5.22-2.49-5.56a1.2,1.2,0,0,0-1.46,1.46c.26,1,1.13,1.5,1.36,2.48a2.08,2.08,0,0,1-1.24,2.49c-2.05.86-5.5-2.93-3.7-4.76.32-.32-.11-.93-.5-.65Z"/><path class="cls-8" d="M125,51.8c.38,2.92,4.72,3.12,6.47,1.38a1.36,1.36,0,0,0-1.64-2.12,3.24,3.24,0,0,1-2,.64,11.41,11.41,0,0,1-2-.52c-.36-.09-.88.19-.82.62Z"/><path class="cls-8" d="M129.48,50.66c-1.79.53-2.92,2.37-3.5,4.05s2.13,2.41,2.6.72a9.52,9.52,0,0,1,.76-2,15.09,15.09,0,0,0,.94-1.94.65.65,0,0,0-.8-.8Z"/><path class="cls-8" d="M125.66,53.93a1.64,1.64,0,0,0,.41,1.54,2.83,2.83,0,0,0,1.79,1c1.64.24,3.39-1,3-2.78a1.19,1.19,0,0,0-1.72-.7c-.53.26-.9.85-1.44,1s-1-.26-1.47-.39a.46.46,0,0,0-.56.32Z"/><path class="cls-8" d="M126.31,53a6.1,6.1,0,0,0,1.42-.48,4.33,4.33,0,0,0,1.45-.74c1-.9-.26-2.41-1.38-1.8a4.49,4.49,0,0,0-1.14,1.16,5.62,5.62,0,0,0-.87,1.18.47.47,0,0,0,.52.68Z"/><path class="cls-8" d="M126.74,53.74c-.36.76.36,1.52.91,2a2.91,2.91,0,0,0,2.83.6,1.11,1.11,0,0,0,.79-1.21,1.08,1.08,0,0,0-1.08-1,6.48,6.48,0,0,1-1.76,0c-.5-.11-.92-.52-1.45-.53a.29.29,0,0,0-.24.14Z"/><path class="cls-8" d="M128.31,53a3.54,3.54,0,0,0,1.07-.1l-1.09-1.42a4.86,4.86,0,0,0-.55,2.82,1,1,0,0,0,1,.72,1.15,1.15,0,0,0,.26,0,1,1,0,0,0,.73-.95,5.37,5.37,0,0,1,.28-1.59,1,1,0,0,0-.07-1.07,1,1,0,0,0-1-.35,3.46,3.46,0,0,0-1,.46.82.82,0,0,0,.41,1.51Z"/><path class="cls-3" d="M49.2,78.9c1.28-4.34,5-4.94,8.86-6a.2.2,0,0,0-.05-.4c-3.81,0-8.82,2-9.58,6.19a.4.4,0,0,0,.77.21Z"/><path class="cls-3" d="M118.34,92.77a11.73,11.73,0,0,1,2.35,4.52c.38,2.09-.39,4.07-1.28,5.93a.43.43,0,0,0,.67.51c3.26-2.91,2.78-9.39-1.37-11.34-.22-.1-.54.13-.37.38Z"/><g class="cls-9"><path class="cls-3" d="M92,14.39c6.35-.84,12.24-1.82,18.61-.26,5.91,1.44,10.14,4.56,14.72,8.38.32.27.92-.09.63-.48-7.27-9.68-23.21-12.29-34-8.15-.25.1-.24.55.07.51Z"/></g><path class="cls-3" d="M68.16,20.16A27.69,27.69,0,0,0,71.9,18.4c.91-.5,4-2.79,5-1.68a.58.58,0,0,0,.91-.7c-.76-1.18-2-1.06-3.17-.53A31.37,31.37,0,0,0,68,19.81a.21.21,0,0,0,.2.35Z"/><path class="cls-3" d="M140.87,42.57c0-1.67.32-3.83-1.05-5.1a2.07,2.07,0,0,0-3.36.6.77.77,0,0,0,1.27.74c.86-1,1.47.49,1.62,1.21a5,5,0,0,0,1,2.76.3.3,0,0,0,.51-.21Z"/><path class="cls-3" d="M97,22.3a13.59,13.59,0,0,0-1.9,9.87c.12.53.89.38.92-.13A37.67,37.67,0,0,1,96.29,27c.28-1.52.89-2.92,1.28-4.4A.32.32,0,0,0,97,22.3Z"/><path class="cls-3" d="M94.89,31.72a44.25,44.25,0,0,0,20.8,8.08c.81.1,1-1.32.19-1.44-7.56-1.1-13.6-5.06-20.71-7.31-.43-.14-.59.43-.28.67Z"/><path class="cls-3" d="M115.26,39a15.4,15.4,0,0,0,3.22-4.64c.48-1.37.89-3.38-.27-4.48a.5.5,0,0,0-.83.22c-.41,1.32,0,2.72-.5,4.12a25.8,25.8,0,0,1-1.95,4.52c-.12.2.17.45.33.26Z"/><path class="cls-3" d="M117.54,30.07a68.64,68.64,0,0,0-10.11-4.39,36.85,36.85,0,0,1-5.29-1.84,14.11,14.11,0,0,0-4.33-1.63c-.8-.13-1.17,1.07-.34,1.25,2,.43,3.62,1.55,5.45,2.42,1.47.71,3,.95,4.54,1.52,3.3,1.24,6.27,3.21,9.91,3.33a.36.36,0,0,0,.17-.66Z"/><path class="cls-3" d="M98,23.76a5.86,5.86,0,0,0-2.11,3.82c-.21,1.27-.31,3.19.71,4.13a.5.5,0,0,0,.84-.35c.12-1.12-.44-2.22-.33-3.39a10.34,10.34,0,0,1,1.36-3.74c.14-.27-.18-.69-.47-.47Z"/><path class="cls-3" d="M97.47,23.55c-2.54,1.47-2.53,5.34-1.91,7.85.42,1.72,2.91,1,2.62-.72-.4-2.32.19-4.73-.35-7a.25.25,0,0,0-.36-.14Z"/><path class="cls-3" d="M98.11,24.14c-2,1.67-1.87,5.5-2,7.88-.08,1.76,2.69,2.63,3.46.93l.17-.39c.65-1.43-.77-3.41-2.37-2.37l-.34.23L99.84,32c.22-2.37.83-6-.94-7.88a.56.56,0,0,0-.79,0Z"/><path class="cls-3" d="M99.31,24.46c-.3,1.55-.67,3.06-.83,4.64s-.63,3,.53,4.08a1.32,1.32,0,0,0,1.57.2c1.34-.93,1.17-2.19,1.26-3.7s0-3.25-.07-4.89c0-1.35-2.17-1.77-2.46-.33Z"/><path class="cls-3" d="M101.47,26.12c-1.79,1.29-1.71,4-1.54,5.95.19,2.14,3.57,2.13,3.35,0-.2-1.9,0-4.3-1.21-5.88a.5.5,0,0,0-.6-.07Z"/><path class="cls-3" d="M102.79,26.61c-1,.82-1.14,2.21-1.27,3.41a16.89,16.89,0,0,0-.09,4.49c.25,1.58,2.76,1.47,3.09,0a16.88,16.88,0,0,0,.19-4.49,4.79,4.79,0,0,0-1.07-3.41.61.61,0,0,0-.85,0Z"/><path class="cls-3" d="M103.92,27.26c-1.42,2.12-.8,5.53-.38,7.89.3,1.69,2.82,1.49,3.24,0l.1-.38a1.53,1.53,0,0,0-2.23-1.71l-.34.19,2.53,1.45c-.1-2.37-.27-5.8-2.08-7.55a.54.54,0,0,0-.84.11Z"/><path class="cls-3" d="M106,27.59c-2.42,1.32-1.11,6.35-.29,8.29s3.38.44,3.09-1.3c-.24-1.4-.67-2.78-.92-4.19-.19-1.07-.38-2.2-1.37-2.8a.49.49,0,0,0-.51,0Z"/><path class="cls-3" d="M106.75,29.06c-1.46,2.25-.17,5.92.84,8.14.84,1.87,4,.54,3.34-1.41-.44-1.26-.86-2.51-1.24-3.79a7.53,7.53,0,0,0-1.37-3.14,1,1,0,0,0-1.57.2Z"/><path class="cls-3" d="M109.1,29.32c-1.23.82-1.18,2.66-1,4,.21,1.5.76,3.92,2.48,4.25a1.49,1.49,0,0,0,1.65-.67c.7-1.52-.27-2.82-.8-4.27-.4-1.09-.73-2.63-1.8-3.27a.55.55,0,0,0-.54,0Z"/><path class="cls-3" d="M110.16,30.15c-1.48,2-.38,5.51.51,7.61.54,1.29,2.66,2.09,3.42.44l.2-.44a1.73,1.73,0,0,0-2.35-2.35l-.41.24,2.74,1.11c-.4-1.25-.81-2.51-1.24-3.76a6.14,6.14,0,0,0-1.66-3,.79.79,0,0,0-1.21.16Z"/><path class="cls-3" d="M113.07,30.93A4.63,4.63,0,0,0,112,33.64c-.19,1.25-.24,2.54-.33,3.8-.16,2.16,3,2.41,3.64.49l.08-.27a1.64,1.64,0,0,0-1.56-2.06h-.31l1.79,2.34c.29-2,.61-6-1.67-7.07a.5.5,0,0,0-.58.07Z"/><path class="cls-3" d="M116.22,31.13a5.81,5.81,0,0,0-1.74,2.1,4.08,4.08,0,0,0-.81,3,1.59,1.59,0,0,0,2.32.94,4.06,4.06,0,0,0,1.54-2.64,5.82,5.82,0,0,0,.28-2.74,1.08,1.08,0,0,0-1.59-.65Z"/><path class="cls-3" d="M116.93,32c-1.15-2.16-3.63-2.71-5.74-3.61-2.91-1.24-5.72-2.66-8.53-4.1-2.15-1.1-4.06,2.11-1.9,3.25a82.24,82.24,0,0,0,8.78,3.94c2.33.91,4.82,2.2,7.25,1.07a.4.4,0,0,0,.14-.55Z"/><path class="cls-3" d="M97.77,23.51a4.39,4.39,0,0,0,3.94,3.31,1.3,1.3,0,0,0,.65-2.4,16.41,16.41,0,0,0-2-.71c-.59-.24-1.2-.51-1.77-.8a.54.54,0,0,0-.78.6Z"/><path class="cls-3" d="M114.46,31.23c.91.31,1.89.77,2.83.3a1.16,1.16,0,0,0,0-2c-.94-.47-1.92,0-2.83.3a.73.73,0,0,0,0,1.4Z"/><path class="cls-3" d="M117,31.67c.05,0,.2.38.29.5a.67.67,0,0,0,1-.13c.58-1-.9-1.92-1.69-1.19a.49.49,0,0,0,.35.82Z"/><path class="cls-3" d="M118.15,30.36a3.46,3.46,0,0,0-1.47,1.58.91.91,0,0,0,.14,1.06l.05.06a.78.78,0,0,0,.73.19l.07,0a.84.84,0,0,0,.61-.61,4.29,4.29,0,0,1,.54-1.59.49.49,0,0,0-.67-.66Z"/><path class="cls-10" d="M106.41,27.34a2.91,2.91,0,0,0-3.19-.35,4.06,4.06,0,0,0-2.31,2.73,4.65,4.65,0,0,0,4.66,5.74c2.9-.06,5.64-2.94,4.51-5.9A4.36,4.36,0,0,0,107.2,27c-1.27-.37-3.07-.46-3.86.78a1.18,1.18,0,0,0,.42,1.6c1,.6,2.37-.12,3.36.71,1.17,1-.26,2.51-1.35,2.72a2.56,2.56,0,0,1-3.09-2.5c.11-2,1.94-2,3.41-2.23a.46.46,0,0,0,.32-.76Z"/><path class="cls-10" d="M105.68,28.29a1.79,1.79,0,0,0-2,.58A2.53,2.53,0,0,0,103,31a2.41,2.41,0,1,0,2.87-2.65,2.31,2.31,0,0,0-2.4,1.12c-.46.79-.2,2.16.81,2.35a.79.79,0,0,0,.84-.34c.09-.16.22-.39.3-.5s.29-.3.19-.25h0s-.24,0-.22,0,.15.19-.17.28-.73-.51-.68-.87a2.07,2.07,0,0,1,1.27-1.25c.35-.08.24-.55-.08-.58Z"/><path class="cls-10" d="M103.79,29.18c-.86.21-1.72.89-1.33,1.84s1,2.15,2.06,1.89a.6.6,0,0,0,.43-.57,1.42,1.42,0,0,0-.68-1.06,3.57,3.57,0,0,1-.86-1l.06.45a2,2,0,0,1,.58-1.06c.21-.18,0-.5-.26-.45Z"/><path class="cls-10" d="M105.44,29.85a1.64,1.64,0,0,1-.31,1.27.64.64,0,0,0,0,.81.61.61,0,0,0,.8.16,1.56,1.56,0,0,0,.69-1.35,1.35,1.35,0,0,0-.6-1.19.35.35,0,0,0-.53.3Z"/><path class="cls-10" d="M103.73,28.56c-.4-.29-.94.09-1.21.39a2.17,2.17,0,0,0-.61,1.62,1.91,1.91,0,0,0,2.46,1.8.44.44,0,0,0,.09-.69c-.58-.45-1.35-.85-1.21-1.72,0-.3.84-1.13.48-1.4Z"/><path class="cls-8" d="M76.52,39.28c3.22,0,3.23-5,0-5s-3.22,5,0,5Z"/><path class="cls-8" d="M125.59,52c-.19-.06-.3-.19-.52-.2a.77.77,0,0,0-.58.22,1.44,1.44,0,0,0-.35,1.05A2.2,2.2,0,0,0,125.29,55c1.07.59,2-1.08.95-1.62-.61-.31-.23-1-.72-1.38l.17.62a.31.31,0,0,1,.07-.2.28.28,0,0,0-.17-.41Z"/><path class="cls-8" d="M123.91,50.05A2.78,2.78,0,0,0,127,51.5c.92-.13,2.55-.89,2.45-2a.47.47,0,0,0-.58-.44c-.33.05-.42.19-.68.38a3.11,3.11,0,0,1-1.24.53,5.69,5.69,0,0,1-2.42-.51c-.32-.09-.75.24-.6.6Z"/><path class="cls-8" d="M125,50.64c-1.21.1-1.71,2.66-.36,2.85a.62.62,0,0,0,.67-.27c.22-.42.06-.69,0-1.11s.16-.68.12-1a.45.45,0,0,0-.45-.45Z"/><path class="cls-8" d="M124.3,50.23a1.6,1.6,0,0,0-1,1.48,1.46,1.46,0,0,0,.91,1.71.52.52,0,0,0,.63-.36,2.66,2.66,0,0,0,.06-.62c0-.24-.13-.45-.16-.69a10.1,10.1,0,0,1,0-1.23.3.3,0,0,0-.38-.29Z"/><path class="cls-8" d="M128.86,49.47c1.32,1,2.91,1.71,3.14,3.56A3.64,3.64,0,0,1,129,57c-1.11.27-.63,1.92.47,1.7a5.34,5.34,0,0,0,4.3-5.75c-.28-2.15-2.49-4.87-4.88-4a.33.33,0,0,0-.07.59Z"/><path class="cls-8" d="M72.32,32.4c0,1.07,1.62,2.16,2.51,1.33a.27.27,0,0,0,0-.37,4.84,4.84,0,0,0-1-.56c-.36-.19-.65-.49-1-.7a.35.35,0,0,0-.52.3Z"/><path class="cls-3" d="M73.89,28.56a11.47,11.47,0,0,0,1.92-.48,5.51,5.51,0,0,1,2.38.27c.44.14.6-.52.19-.68a5.28,5.28,0,0,0-2.67-.27c-.66.1-1.61.28-2,.91a.17.17,0,0,0,.14.25Z"/><path class="cls-11" d="M123,58c-.41-3.05-1.36-5.61.43-8.51,1.35-2.18,3.45-2.72,5.15-4.34a.32.32,0,0,0-.14-.53c-2.75-.41-5.45,2.58-6.56,4.83-1.28,2.61-1.66,6.65.46,8.93.29.32.7,0,.66-.38Z"/><polyline class="cls-8" points="119.6 29.54 118.4 34.53 115.81 40.3 121.87 42.19 123.86 42.52 128.38 41.02 132.39 41.59 133.6 42.34 134.21 40.39 134.39 36.28 132.39 34.08 129.66 32.4 124.58 31.14 121.17 30.21 119.6 29.54"/><polygon class="cls-8" points="75.88 23.85 76.4 21.41 78.86 18.23 80.97 16.18 84.96 15.68 91 17.82 97.09 21.28 95.5 24.06 94.71 26.43 94.08 29.29 94.05 32.4 90.39 30.89 86.74 29.78 84.27 26.43 80.68 24.1 77.22 23.62 75.88 23.85"/><path class="cls-12" d="M77.65,26.7c-5.36-1-9,5.47-9,10.12a9,9,0,0,0,9.86,9,9.4,9.4,0,0,0,8.17-10.88c-.77-5.39-5.85-8.72-11-8.59-.49,0-.49.79,0,.77,4.2-.12,8.45,2.05,9.9,6.18,1.58,4.52-.51,10.06-5.34,11.5a8.38,8.38,0,0,1-10.68-6.06c-1.31-5,2.35-12,8.07-11.71.19,0,.23-.3,0-.33Z"/><path class="cls-12" d="M129.07,44.57c-5.21-1.63-8.95,4.34-8.91,8.92a9.4,9.4,0,0,0,9.37,9.31,9,9,0,0,0,9-8.71c.32-6.22-5.64-9.65-11.05-10.48-.48-.07-.71.64-.21.75,4.17.89,9,2.58,10.27,7.19a8.44,8.44,0,0,1-6.32,10.35,8.81,8.81,0,0,1-10.14-6.15c-1.32-5,2.11-11.73,7.94-11,.12,0,.13-.16,0-.2Z"/><path class="cls-12" d="M68.34,39.17A7.3,7.3,0,0,0,68.13,47c.11.2.41,0,.3-.18a7.77,7.77,0,0,1,0-7.55.08.08,0,0,0-.14-.09Z"/><path class="cls-12" d="M66.79,43.5A115.21,115.21,0,0,1,52.37,68.74c-.28.37.34.73.62.37A104.47,104.47,0,0,0,67.05,43.57c.06-.16-.19-.22-.26-.07Z"/><path class="cls-12" d="M131.44,62.48a4.91,4.91,0,0,1-5,3.19c-.43,0-.46.68,0,.69a5.31,5.31,0,0,0,5.34-3.79.17.17,0,0,0-.32-.09Z"/><path class="cls-12" d="M128,66.25c-3.82,9-5,20-4.67,29.64a.37.37,0,0,0,.74,0c.23-10.27,2.11-19.54,4.17-29.53,0-.14-.18-.25-.24-.11Z"/><path class="cls-12" d="M61.33,69.52c-4.25-2.62-9.41-1.06-12.55,2.6C44.85,76.69,44.23,84,44.17,89.73c-.07,6.12,1.27,12.49,6.34,16.45C56,110.47,63.2,110.82,69.78,112c14,2.5,25.78,12.91,40.1,5.49a25.42,25.42,0,0,0,12-12.94,16.17,16.17,0,0,0,1.23-8.23c-.67-4.6-4.76-8.09-3.77-13,.1-.54-.72-.77-.82-.23-.93,4.61,2.21,7.53,3.41,11.76,1.86,6.59-2.19,13.76-7,18.07a25.55,25.55,0,0,1-15.81,6.54c-6.3.26-12-2.48-17.69-4.84A70.91,70.91,0,0,0,65,110.27c-6.18-1-13-2.48-16.79-8S44.67,90,45.47,83.71c1-7.47,6-18.55,15.57-13.69a.29.29,0,0,0,.29-.5Z"/><path class="cls-12" d="M58.16,80.58c-1.29-2.18-4.4-.6-4.75,1.46-.48,2.91,2.45,4.77,5.05,4.49s5.29-3,3.64-5.73C60.33,77.94,56,79,53.83,80.65c-.31.25-.15.87.3.71,1.68-.56,3.27-1.73,5.14-1.33a2.63,2.63,0,0,1,1,4.83c-1.76,1.25-4.75,1-5.78-1-1.2-2.43,1.23-4.26,3.4-3a.17.17,0,0,0,.23-.23Z"/><path class="cls-12" d="M113.73,95.79a3.8,3.8,0,0,0-5.32,4.1c.48,3.3,4.44,4.27,7.23,3.52,3-.79,4.6-3.75,2.94-6.54-1.84-3.06-6-2.92-8.57-1-.47.35-.05,1.13.46.8,2-1.24,4.75-2,6.64-.12a3.38,3.38,0,0,1-1.06,5.72c-1.82.76-4.65.69-6-.93a3.23,3.23,0,0,1,.18-4.36,4.16,4.16,0,0,1,3.44-.82c.2,0,.27-.28.1-.37Z"/><path class="cls-12" d="M49.86,105.8a29.82,29.82,0,0,0-1,5.64,17.68,17.68,0,0,0-.49,4.34c.28,2.32,2.44,2.55,4.35,3.06s5.22,2.17,7,.37A8.28,8.28,0,0,0,61,116.37a31.74,31.74,0,0,0,1.69-5.87.37.37,0,0,0-.71-.2c-.69,1.92-1.16,3.91-1.87,5.82-.23.64-.48,1.27-.76,1.9a3.71,3.71,0,0,1-3.75.62,24.79,24.79,0,0,1-2.66-.7c-1.54-.42-3.34-.57-3.65-2.84a14.59,14.59,0,0,1,.44-3.42,30.92,30.92,0,0,0,.53-5.83.19.19,0,0,0-.38,0Z"/><path class="cls-12" d="M93.76,119.9c-.43,1.87-.8,3.75-1.14,5.63a5.18,5.18,0,0,0-.14,2.84c.94,2.06,5,2,6.76,2.36,1.5.3,3.81,1.29,4.71-.48.73-1.46.81-3.7,1.14-5.28.39-1.87.81-3.74,1.15-5.62.09-.48-.63-.7-.75-.2-.49,2-.88,4-1.31,6.06a17.67,17.67,0,0,1-.7,3.26l-.2.94a3.6,3.6,0,0,1-3.35.57c-1.47-.17-4.12-.31-5.35-1.06-2.26-1.39-.48-6.85-.18-8.84.06-.42-.55-.61-.64-.18Z"/><path class="cls-12" d="M61.25,121.79c.6-1.31,1.13-2.65,1.81-3.93.15-.3.86-2,1.16-2,.89-.11.92,1.76,1,2.21a13,13,0,0,0,2.28,6.45.45.45,0,0,0,.81-.35l-.14-.6a.3.3,0,0,0-.57,0l-.14.6.81-.1A12.24,12.24,0,0,1,66,117.42c0-.93.21-2.43-1-2.83s-1.53.65-2,1.37a18.33,18.33,0,0,0-2.3,5.65c0,.24.31.44.43.18Z"/><path class="cls-12" d="M82.74,126.71c.73-1.17,1.37-2.4,2-3.64.15-.29,1.56-3.72,1.85-3.73,1.5-.07,1.9,7,2.11,7.93.08.4.64.27.66-.09a18.9,18.9,0,0,0-.87-6.05c-.19-.72-.46-2.94-1.57-3S85.33,120,85,120.65a63.79,63.79,0,0,0-2.58,5.94c-.06.18.21.28.31.12Z"/><path class="cls-12" d="M45.63,100.55c-.15,1.23.88,2.65,1.46,3.69a9.7,9.7,0,0,0,2.34,3.26.26.26,0,0,0,.39-.29,22.8,22.8,0,0,0-2.16-3.59c-.58-1-.95-2.44-1.88-3.16-.07,0-.15,0-.15.09Z"/><path class="cls-12" d="M59.86,119.38c8.45,7.26,21.46,9.39,32.06,6.49a.38.38,0,0,0-.21-.73c-11.72,2.33-21.45-.09-31.61-6.07-.19-.11-.42.17-.24.31Z"/><path class="cls-12" d="M105,123.48c2-1.88,3.73-4,5.54-6,.22-.24-.14-.59-.35-.35-1.82,2-3.7,4-5.36,6.16-.1.13.05.29.17.18Z"/><path class="cls-12" d="M52.05,119.53c10.4,9.74,28.08,13.06,41.62,9.49.45-.11.25-.75-.19-.68-7.55,1.24-14.77,1.53-22.28-.28-7-1.69-12.82-5.1-18.91-8.84-.19-.12-.41.16-.24.31Z"/><path class="cls-12" d="M126.47,46.63a1.85,1.85,0,0,0-2,2.6,2.42,2.42,0,0,0,3.77.83,2.33,2.33,0,0,0-.24-3.63,2.07,2.07,0,0,0-3.14,1.31c0,.25.33.32.44.12a1.76,1.76,0,0,1,2.19-.94,1.64,1.64,0,0,1,.52,2.41,1.81,1.81,0,0,1-2.64.16,1.41,1.41,0,0,1,1-2.47c.22,0,.27-.35,0-.39Z"/><path class="cls-12" d="M124.24,48.93c-1.92,1.8-1.68,5.46-.28,7.51a6,6,0,0,0,7.22,2.2c5.59-2.46,3.45-10.63-2.39-10.76a.38.38,0,0,0-.1.74c1.91.47,3.68,1.26,4.58,3.15A4.64,4.64,0,0,1,130.35,58a5.45,5.45,0,0,1-6.07-2.52c-1.32-2.25-.47-4.22.14-6.47a.11.11,0,0,0-.18-.11Z"/><path class="cls-12" d="M74.65,29.56a1.85,1.85,0,0,0-2,2.59,2.42,2.42,0,0,0,3.77.83,2.33,2.33,0,0,0-.24-3.63A2.07,2.07,0,0,0,73,30.67c0,.25.33.31.44.12a1.76,1.76,0,0,1,2.19-.95,1.66,1.66,0,0,1,.53,2.42,1.83,1.83,0,0,1-2.65.16,1.41,1.41,0,0,1,1-2.48c.22,0,.27-.34.06-.38Z"/><path class="cls-12" d="M72.41,31.85c-1.92,1.8-1.68,5.46-.28,7.51a6.05,6.05,0,0,0,7.22,2.21C84.94,39.11,82.8,30.94,77,30.81a.38.38,0,0,0-.1.74c1.91.47,3.68,1.25,4.58,3.15A4.63,4.63,0,0,1,78.52,41a5.42,5.42,0,0,1-6.07-2.52c-1.32-2.24-.47-4.22.14-6.47a.11.11,0,0,0-.18-.11Z"/><path class="cls-12" d="M80,49a36.16,36.16,0,0,1-2.27,6.19c-.86,1.76-2.11,3.34-2.92,5.11a.22.22,0,0,0,.34.26c2.93-2.73,4.46-7.64,5.22-11.46A.19.19,0,0,0,80,49Z"/><path class="cls-12" d="M109.71,56.63c-1.63,4.61-3.53,9.31-4.76,14-.06.24.28.32.37.1,1.85-4.52,3.13-9.42,4.6-14.08a.11.11,0,0,0-.21-.06Z"/><path class="cls-12" d="M70.62,47.19a0,0,0,0,0,0,0s0,0,0,0Z"/><path class="cls-12" d="M80.26,47.39c-2.54,0-5.11.51-7.63.81l.33.57.25-.54a.26.26,0,0,0-.4-.31l-.45.39c-.32.27,0,.69.37.63,2.51-.39,5.11-.63,7.57-1.26a.15.15,0,0,0,0-.29Z"/><path class="cls-12" d="M79,47.86c-2.59,2-5.2,2.55-8.38,2.91a.22.22,0,0,0,0,.43c3.05.37,6.32-1.19,8.56-3.15.13-.12,0-.29-.18-.19Z"/><path class="cls-12" d="M120.18,59.31a10.06,10.06,0,0,0,1.39,7c.89,1.24,2.67,2.74,4.31,2.17a.26.26,0,0,0,0-.49c-2-.82-3.52-1.37-4.37-3.61a30.4,30.4,0,0,1-1-5.13c0-.21-.32-.13-.34.05Z"/><path class="cls-12" d="M120.1,60.06c-2.15,3.15-2,8.23,1.16,10.73a.33.33,0,0,0,.46-.46c-2.48-3-3.36-6.54-1.43-10.16a.11.11,0,0,0-.19-.11Z"/><path class="cls-12" d="M55.05,96.9c-.13.33-.27.65.06.9a.19.19,0,0,0,.27,0c.32-.28.15-.61,0-.94-.08-.15-.28-.08-.33,0Z"/><path class="cls-12" d="M59.58,98.68a.59.59,0,0,0-.2,1l0-.41c-.14.07-.23-.32,0,0,0,0,0,.12.07.19a.33.33,0,0,0,.25.12.31.31,0,0,0,.31-.31c0-.61-.94-1-1.29-.41a.68.68,0,0,0,1,.87.27.27,0,0,0,0-.45l.08-.17c.25-.11.07-.53-.19-.44Z"/><path class="cls-12" d="M63.24,101.7a.2.2,0,0,0,0-.4.2.2,0,0,0,0,.4Z"/><path class="cls-12" d="M66.84,95a.22.22,0,0,0,0-.44.22.22,0,0,0,0,.44Z"/><path class="cls-12" d="M63.48,91.85l0-.16.28.08a2.26,2.26,0,0,0-.29-.25.25.25,0,0,0-.27,0l0,0a.31.31,0,0,0-.14.34.51.51,0,0,0,.19.33.38.38,0,0,0,.35.1c.25-.11.48-.21.49-.52a.55.55,0,0,0-.45-.55.32.32,0,1,0-.09.63Z"/><path class="cls-12" d="M55.73,92.55a.85.85,0,0,0,.26.33c.28.25.79-.08.54-.41a1.2,1.2,0,0,0-.36-.35c-.28-.18-.58.16-.44.43Z"/><path class="cls-12" d="M49.29,90.94v.12a.48.48,0,0,0,1,0v-.12a.49.49,0,0,0-1,0Z"/><path class="cls-12" d="M64.2,97.43a0,0,0,0,0,0,0,0,0,0,0,0,0,0Z"/><path class="cls-12" d="M63.84,98s.45-.21.37-.13a.35.35,0,0,0-.25-.59c-.77,0-.82,1.16-.13,1.39s1.29-.87.69-1.36-1.17.29-.68.69Z"/><path class="cls-12" d="M58.19,104.5a.64.64,0,0,0-.2-.38.4.4,0,0,0-.54,0,.64.64,0,0,0-.2.38.48.48,0,1,0,.94,0Z"/><path class="cls-12" d="M51.57,99.73a1,1,0,0,0-.48-.28.4.4,0,0,0-.49.49,1,1,0,0,0,.28.48.49.49,0,0,0,.69-.69Z"/><path class="cls-12" d="M60.72,94.38a1.89,1.89,0,0,0-.85.42.38.38,0,0,0,.26.64,1.76,1.76,0,0,0,.84-.17c.54-.21.34-1.06-.25-.89Z"/><path class="cls-12" d="M47.16,87.7l0,.11a.42.42,0,0,0,.81,0l0-.11c.25-.73-1.13-.73-.88,0Z"/><path class="cls-12" d="M48,94.33a.78.78,0,0,0-.24-.27.3.3,0,0,0-.29,0,.78.78,0,0,0-.24.27c-.47.83,1.24.83.77,0Z"/><path class="cls-12" d="M96.67,112a.9.9,0,0,0,.72-.23.36.36,0,0,0,0-.49.86.86,0,0,0-.72-.23.48.48,0,0,0,0,1Z"/><path class="cls-12" d="M103.58,113.71a2.58,2.58,0,0,0,.44-1.2.39.39,0,0,0-.58-.33,2.35,2.35,0,0,0-.7,1c-.28.56.56,1,.84.49Z"/><path class="cls-12" d="M111.33,112.33c-.27.18-.57,0-.84-.13a.29.29,0,0,0-.35.2c-.17.93,1.06,1.19,1.68.76s0-1.19-.49-.83Z"/><path class="cls-12" d="M103.34,105.25l-.08.07a.26.26,0,0,0,0,.44l.08.06a.4.4,0,1,0,0-.57Z"/><path class="cls-12" d="M103.13,94.07a.53.53,0,0,0-.5.26.32.32,0,0,0,0,.3.53.53,0,0,0,.5.26.41.41,0,0,0,0-.82Z"/><path class="cls-12" d="M94.44,99.13a1.23,1.23,0,0,0-.16.35.22.22,0,0,0,.26.27,1.46,1.46,0,0,0,.36-.16c.46-.29-.17-.93-.46-.46Z"/><path class="cls-12" d="M101,101s0,0,0,0a0,0,0,1,0,0,0Z"/><path class="cls-12" d="M95.46,105.31v-.12a.48.48,0,0,0-1,0v.12c0,.62,1,.62,1,0Z"/><path class="cls-12" d="M99.3,102.9v-.12a.48.48,0,0,0-1,0v.12c0,.62,1,.62,1,0Z"/><path class="cls-12" d="M102.7,99.49a.73.73,0,0,0-.44-.25.31.31,0,0,0-.37.37.7.7,0,0,0,.25.44c.34.38.94-.22.56-.56Z"/><path class="cls-12" d="M89.08,102.46a.8.8,0,0,0-.55.26.28.28,0,0,0,0,.38.76.76,0,0,0,.55.26.46.46,0,1,0,0-.9Z"/><path class="cls-12" d="M92.08,112a1.23,1.23,0,0,0-.24-.7.31.31,0,0,0-.44,0,1.15,1.15,0,0,0-.25.7c-.06.6,1,.6.93,0Z"/><path class="cls-12" d="M95.44,94h.12a.44.44,0,0,0,0-.88h-.12c-.58-.07-.58,1,0,.9Z"/><path class="cls-12" d="M81.78,111.86c-.33-.16-.55-.31-.89-.11a.33.33,0,0,0-.16.28c0,.39.22.49.56.66.55.29,1-.56.49-.83Z"/><path class="cls-12" d="M80.87,89.9c-.9,3.28-1.84,6.55-2.65,9.86a.08.08,0,0,0,.15,0c1-3.26,1.84-6.55,2.74-9.83,0-.16-.2-.23-.24-.07Z"/><path class="cls-12" d="M80.47,91.63a40.08,40.08,0,0,1-2.67,10.78c0,.09.12.15.15.07a35.16,35.16,0,0,0,2.71-10.85c0-.12-.18-.12-.19,0Z"/><path class="cls-12" d="M80.44,93.52c-1,3-2.2,6.06-3.06,9.15a.07.07,0,1,0,.14,0c1.2-3,2.12-6.09,3.15-9.12,0-.15-.18-.21-.23-.07Z"/><path class="cls-12" d="M81.53,92c-1.64,3.29-3.13,7.2-3,10.94a.11.11,0,0,0,.21,0c.8-3.8,1.32-7.24,3-10.8.09-.19-.19-.35-.28-.16Z"/><path class="cls-12" d="M80.91,91.36a62.15,62.15,0,0,0-2.31,9.53c0,.2.27.3.32.09.13-.62.26-1.24.38-1.85,0-.13-.17-.19-.21-.06-.19.67-.52,2,.08.53a17.87,17.87,0,0,0,.56-2.75c.41-1.83.9-3.63,1.44-5.42a.13.13,0,0,0-.26-.07Z"/><path class="cls-12" d="M80.83,93.08,81.58,91c0-.08-.1-.13-.13-.06a39.71,39.71,0,0,0-3.38,9.79.15.15,0,0,0,.29.08c.59-1.88,1-3.8,1.68-5.67.31-.91.77-1.83,1-2.76.5-1.83-.21.28-.34.66a.06.06,0,0,0,.11,0Z"/><path class="cls-12" d="M81.09,91.33c-1.24,3.83-2.6,7.65-3.66,11.53-.07.23.28.33.36.1,1.32-3.8,2.36-7.72,3.5-11.57,0-.13-.16-.18-.2-.06Z"/><path class="cls-12" d="M50.87,108.7a31.61,31.61,0,0,0-.9,4.83c0,.07.09.08.11,0a31.86,31.86,0,0,0,1-4.83c0-.12-.17-.14-.21,0Z"/><path class="cls-12" d="M94.86,122.07a21.11,21.11,0,0,0-1.38,4.61.1.1,0,0,0,.19,0A21.08,21.08,0,0,0,95,122.14c0-.1-.13-.18-.18-.07Z"/><path class="cls-12" d="M63.33,118.85a9.91,9.91,0,0,0,.47-1c0-.06-.07-.09-.1,0a8.6,8.6,0,0,0-.5,1c0,.09.09.16.13.08Z"/><path class="cls-12" d="M84.75,123.92a5.37,5.37,0,0,0,1-1.29.11.11,0,0,0-.15-.11,5,5,0,0,0-1,1.18c-.13.15.1.38.22.22Z"/><path class="cls-12" d="M51.66,115.2a24,24,0,0,0-.46,2.9,0,0,0,0,0,.09,0,25.11,25.11,0,0,0,.5-2.88c0-.08-.11-.11-.13,0Z"/><path class="cls-12" d="M53.78,115.91a11.69,11.69,0,0,0-.46,2.19c0,.08.13.13.17,0A10.62,10.62,0,0,0,54,116a.11.11,0,0,0-.21,0Z"/><path class="cls-12" d="M56.19,116.17a6.07,6.07,0,0,1-.45,2.86c0,.1.1.14.15.07a4.42,4.42,0,0,0,.51-3c0-.12-.23-.09-.21,0Z"/><path class="cls-12" d="M95.41,127.39a16.12,16.12,0,0,0-.23,2,.11.11,0,0,0,.22,0,16.14,16.14,0,0,0,.24-2c0-.12-.21-.15-.23,0Z"/><path class="cls-12" d="M98.65,127.65a9.27,9.27,0,0,0-.18,2.67.1.1,0,0,0,.19,0,4.36,4.36,0,0,0,.2-1.25c0-.47.08-.94.11-1.42,0-.21-.29-.2-.32,0Z"/><path class="cls-12" d="M100.83,129a9.28,9.28,0,0,0-.2,1.74.15.15,0,0,0,.29,0,8.32,8.32,0,0,0,.27-1.67c0-.23-.32-.33-.36-.1Z"/><path class="cls-12" d="M71,25.82C77.18,23,83,24,86.48,30.24c.24.41,1,.13.79-.33-2.62-6.21-11.21-9.19-16.58-4.5-.24.21.07.52.32.41Z"/><path class="cls-12" d="M123,43.55c5.88-3.53,11-2,14.64,3.56a.37.37,0,0,0,.68-.28c-1.95-6.41-11-8.29-15.59-3.63a.22.22,0,0,0,.27.35Z"/><path class="cls-12" d="M80.89,15.82a15.77,15.77,0,0,0-3.34,3.53A13.16,13.16,0,0,0,74.94,24c0,.21.25.45.42.24,1-1.24,1.59-2.8,2.48-4.11,1-1.46,2.2-2.74,3.26-4.14.1-.12-.09-.3-.21-.21Z"/><path class="cls-12" d="M75.78,23.68a4.28,4.28,0,0,0-1.71,1.91c-.26.56-.71,1.66-.29,2.22a.21.21,0,0,0,.35,0,1,1,0,0,0,.14-.67,4,4,0,0,1,.29-1.31A4.61,4.61,0,0,1,76,24c.18-.14,0-.42-.24-.31Z"/><path class="cls-12" d="M134.57,42.52a8.66,8.66,0,0,1-.79,3.92.34.34,0,0,0,.59.34,5.53,5.53,0,0,0,.64-4.32.23.23,0,0,0-.44.06Z"/><path class="cls-12" d="M134.1,36.2a40,40,0,0,0-.34,4.77,22.29,22.29,0,0,0,0,4.76.27.27,0,0,0,.51,0,20.22,20.22,0,0,0,.36-4.4,40.57,40.57,0,0,0,.09-5c0-.31-.53-.44-.59-.08Z"/><path class="cls-12" d="M79.69,17.59c4.24-4.44,14.93,3.07,19.1,4.93q5,2.24,10.09,4.15,5.9,2.2,11.94,4c4,1.2,12.34,1.81,13.67,6.78a.41.41,0,0,0,.79-.22c-.86-3.27-3.69-4.41-6.72-5.31-6.53-2-13-3.7-19.45-6.09C102.37,23.3,96,20.17,89.46,17.14c-3.45-1.6-7.16-3.12-10,.26-.11.13.07.32.2.19Z"/><path class="cls-12" d="M86.57,29.4c5.19,3.19,11.47,5.11,17.17,7.21q9.58,3.53,19.38,6.41a.44.44,0,0,0,.23-.84c-6.21-1.89-12.39-3.89-18.5-6.11s-12-5.25-18.18-6.91a.13.13,0,0,0-.1.24Z"/><path class="cls-12" d="M96.49,21.58c-2.31,2.78-2.91,7.11-3.12,10.61,0,.47.65.52.79.1l.24-.7a.25.25,0,0,0-.42-.25l-.49.56.68.29a27.74,27.74,0,0,1,.92-5.66c.45-1.64,1.22-3.19,1.59-4.84,0-.1-.11-.21-.19-.11Z"/><path class="cls-12" d="M119.28,30.46c-.71,1.58-1.08,3.29-1.69,4.92-.69,1.84-1.67,3.55-2.35,5.39-.12.32.35.46.53.22a21.91,21.91,0,0,0,3.78-10.46c0-.13-.21-.2-.27-.07Z"/><path class="cls-12" d="M83.6,16c18.94-10.51,42.53-2.93,49.48,18.24.17.52,1,.3.83-.22-6.8-20.75-31.85-30.94-50.52-18.38a.21.21,0,0,0,.21.36Z"/><path class="cls-12" d="M81.22,16.11c-.86-3.12-3.71-3.37-6.42-2.26-6.76,2.78-13.22,8-19.43,11.91a.42.42,0,0,0,.1.76c6.7,2.69,12.31-2.3,18.61-3.88a.45.45,0,0,0-.23-.86A40.74,40.74,0,0,0,67,24.41c-1.41.63-13.87,4.42-8,.12,2.44-1.81,5.25-3.27,7.84-4.87s11.59-8.78,14-3.35c.12.26.54.07.46-.2Z"/><path class="cls-12" d="M134.07,36.13c5.51-2.89,6.46,4.91,7.28,7.79l2.06,7.22a14.86,14.86,0,0,1,.83,2.88c-.68.68-2.14-.63-2.6-1a14.15,14.15,0,0,1-4.41-5.6.41.41,0,0,0-.75.31,13.26,13.26,0,0,0,8.51,8,.49.49,0,0,0,.59-.59c-1.62-5.66-2.64-12.42-5.26-17.71-1.29-2.63-4-3.57-6.46-1.73a.21.21,0,0,0,.21.36Z"/><path class="cls-12" d="M84.32,35.85a9.23,9.23,0,0,1-2.22,6.44c0,.07,0,.15.09.09a7,7,0,0,0,2.25-6.55c0-.07-.12,0-.12,0Z"/><path class="cls-12" d="M136.48,53.56a6.34,6.34,0,0,1-1,3.86,7.71,7.71,0,0,1-3.14,2.48c-.12.06,0,.22.09.2,2.88-.41,4.74-3.92,4.38-6.58,0-.19-.33-.14-.32,0Z"/><path class="cls-12" d="M89.61,52.66a13,13,0,0,1,4.32.85,34.44,34.44,0,0,1,3.71,2.32.35.35,0,0,0,.48-.48c-1.53-2.59-5.72-3.65-8.51-3.41a.36.36,0,0,0,0,.72Z"/><path class="cls-12" d="M87.7,57.24c2.9.35,10.27.7,10.82,4.37a.23.23,0,0,0,.44,0c.27-1.75-1-2.76-2.55-3.28a36.23,36.23,0,0,0-8.71-1.45c-.23,0-.22.33,0,.36Z"/><path class="cls-12" d="M85.41,63.13a11.48,11.48,0,0,1,6,.34c2,.69,3.37,2,5,3.34a.25.25,0,0,0,.39-.3c-2-3.89-7.73-4.94-11.57-3.79a.21.21,0,0,0,.12.41Z"/><path class="cls-12" d="M82.72,70.65a10.51,10.51,0,0,1,5.82.49c1.95.75,3.18,2.08,4.7,3.4a.28.28,0,0,0,.44-.34c-1.89-3.8-7.31-4.88-11.06-3.91a.19.19,0,0,0,.1.36Z"/><path class="cls-12" d="M99.12,57.15a4.41,4.41,0,0,1,.58.47,6.29,6.29,0,0,1,.41.64.16.16,0,0,0,.29-.08,1.25,1.25,0,0,0-1.18-1.26.14.14,0,0,0-.1.23Z"/><path class="cls-12" d="M65.59,50.54a28.3,28.3,0,0,0-1.93,4.58,0,0,0,0,0,.09,0,28,28,0,0,0,2-4.58c0-.06-.08-.1-.11,0Z"/><path class="cls-12" d="M62.09,57.63a.77.77,0,0,0-.22.34.13.13,0,0,0,.15.15,1,1,0,0,0,.34-.23c.17-.17-.1-.44-.27-.26Z"/><path class="cls-12" d="M60.43,59.57a2.39,2.39,0,0,0-.42.58.11.11,0,0,0,.15.15,2.44,2.44,0,0,0,.57-.43c.2-.19-.11-.49-.3-.3Z"/><path class="cls-12" d="M59,62.24a2.75,2.75,0,0,0-.22.26.1.1,0,0,0,.14.14l.26-.22c.12-.11-.07-.3-.18-.18Z"/><path class="cls-12" d="M123.1,76.38a63,63,0,0,0-1.34,6.78c0,.13.18.15.22,0a63.88,63.88,0,0,0,1.38-6.74c0-.16-.22-.24-.26-.07Z"/><path class="cls-12" d="M95.33,15c9.45-2.77,17.43-.54,24,6.69.27.31.82-.1.57-.44a20.17,20.17,0,0,0-24.72-6.59c-.19.09-.06.4.14.34Z"/><path class="cls-12" d="M65.63,22.33c2.71-1.39,5.33-3,8-4.5a.19.19,0,0,0-.19-.33c-2.64,1.52-5.33,3-7.89,4.64a.11.11,0,1,0,.11.19Z"/><path class="cls-12" d="M137.77,40.16c.89,2.48,1.81,5.08,2.87,7.49.08.18.33.05.29-.12a27.71,27.71,0,0,0-3-7.46c-.06-.1-.25,0-.21.09Z"/><path class="cls-12" d="M63.85,80a6.81,6.81,0,0,1,1.53,1.5,5.57,5.57,0,0,1,.64,2,.12.12,0,0,0,.23,0A3.55,3.55,0,0,0,64,79.75c-.11,0-.22.12-.12.2Z"/><path class="cls-12" d="M108.62,93.13c-1.69.59-3.65,2-3.74,4a.21.21,0,0,0,.38.1A12.66,12.66,0,0,1,106.49,95a5.4,5.4,0,0,1,2.2-1.61c.17-.06.1-.33-.07-.27Z"/><path class="cls-12" d="M66.41,115.7a11.5,11.5,0,0,1,6.09.61c2.13.94,3,2.55,4.52,4.12.21.21.51,0,.47-.28-.68-4.31-7.66-6.59-11.19-4.83a.21.21,0,0,0,.11.38Z"/><path class="cls-12" d="M75.13,118.61a7.45,7.45,0,0,1,5.06.6c1.48.78,2,2,3.15,3.11a.3.3,0,0,0,.51-.21c-.14-1.68-2-3.1-3.41-3.77a6.62,6.62,0,0,0-5.44-.22.25.25,0,0,0,.13.49Z"/><path class="cls-12" d="M63.85,111.28c-1.32,2.53-2.76,5.09-3.85,7.73,0,.14.17.23.25.1,1.44-2.45,2.61-5.13,3.82-7.7.07-.14-.14-.27-.22-.13Z"/><path class="cls-12" d="M64.62,112.51a28.94,28.94,0,0,0-1.19,2.67.07.07,0,0,0,.13.06,25.25,25.25,0,0,0,1.22-2.64c0-.1-.11-.2-.16-.09Z"/><path class="cls-12" d="M67.71,112.49c-.56,1-1.17,2.06-1.66,3.13,0,.09.08.16.13.08.6-1,1.11-2.09,1.66-3.14,0-.08-.09-.16-.13-.07Z"/><path class="cls-12" d="M70.15,112a33.85,33.85,0,0,0-1.92,3.36.09.09,0,0,0,.15.09,31.87,31.87,0,0,0,1.92-3.37.09.09,0,0,0-.15-.08Z"/><path class="cls-12" d="M71.55,113l-.78,1.4a5.28,5.28,0,0,0-.62,1.29.08.08,0,0,0,.14.08,4.57,4.57,0,0,0,.74-1.22l.76-1.41a.14.14,0,0,0-.24-.14Z"/><path class="cls-12" d="M73.69,114.14a16.15,16.15,0,0,0-.92,2c0,.13.14.19.2.09a18.18,18.18,0,0,0,1-1.9c.1-.2-.21-.37-.3-.17Z"/><path class="cls-12" d="M75.84,114.85c-.23.33-.46.65-.68,1-.09.13.11.29.22.17.26-.31.5-.62.75-.93a.19.19,0,1,0-.29-.23Z"/><path class="cls-12" d="M76.84,115.83A14.24,14.24,0,0,0,75.9,118a.1.1,0,0,0,.19.08,13.53,13.53,0,0,0,1-2.15c.07-.16-.17-.3-.24-.14Z"/><path class="cls-12" d="M78.28,116.55c-.23.5-.48,1-.67,1.5,0,.1.12.16.17.07.29-.45.53-.93.78-1.41.1-.18-.19-.35-.28-.16Z"/><path class="cls-12" d="M80.91,115.58a20,20,0,0,0-1.49,2.67c-.08.19.21.28.32.13a21.79,21.79,0,0,0,1.39-2.67c.08-.15-.14-.28-.22-.13Z"/><path class="cls-12" d="M82.38,116.31l-.85,1.34a2.6,2.6,0,0,0-.58,1.13.1.1,0,0,0,.15.09c.36-.21.52-.69.72-1l.78-1.39a.13.13,0,0,0-.22-.13Z"/><path class="cls-12" d="M83.75,117.71a13.15,13.15,0,0,0-1.13,2c0,.11.12.2.2.12a14.5,14.5,0,0,0,1.3-1.9.22.22,0,0,0-.37-.22Z"/><path class="cls-12" d="M84.72,118.91a11.05,11.05,0,0,0-1.17,2.23.16.16,0,0,0,.26.15,11.12,11.12,0,0,0,1.27-2.17c.13-.23-.23-.44-.36-.21Z"/><path class="cls-12" d="M89.83,119.18a20.7,20.7,0,0,0-2,4.36.17.17,0,0,0,.31.14,20.46,20.46,0,0,0,1.93-4.38c.07-.16-.21-.28-.29-.12Z"/><path class="cls-12" d="M91.49,119.65A51.91,51.91,0,0,0,88.81,125c-.08.21.24.32.34.15a51.29,51.29,0,0,0,2.62-5.31c.09-.18-.18-.35-.28-.16Z"/><path class="cls-12" d="M91.7,121.79a16.63,16.63,0,0,0-1.36,3.2.1.1,0,0,0,.18.08A16.91,16.91,0,0,0,92.05,122c.1-.24-.25-.44-.35-.21Z"/><path class="cls-12" d="M91.93,122.27a11.24,11.24,0,0,0-.67,1.23c-.08.18.15.41.3.23a11,11,0,0,0,.8-1.21c.17-.27-.26-.53-.43-.25Z"/><path class="cls-12" d="M122.5,60.7a24.61,24.61,0,0,0-6.3,6.53.09.09,0,0,0,.15.11c1-1.07,1.92-2.31,3-3.39a41.8,41.8,0,0,1,3.34-3c.12-.09,0-.3-.16-.21Z"/><path class="cls-12" d="M124.13,62.13c-2.17,2.16-4.38,4.28-6.49,6.49a.12.12,0,0,0,.17.18c2.2-2.13,4.31-4.35,6.46-6.53a.1.1,0,0,0-.14-.14Z"/><path class="cls-12" d="M127.1,63.66c-2.72,2.32-5.52,4.58-8.18,7-.13.12.06.31.2.2,2.76-2.28,5.41-4.7,8.11-7,.08-.08,0-.2-.13-.13Z"/><path class="cls-12" d="M125.24,68.52c-2.8,2.55-5.61,5.12-8.34,7.76-.15.14.07.36.22.22,2.81-2.55,5.55-5.18,8.29-7.82.1-.1-.06-.26-.17-.16Z"/><path class="cls-12" d="M125.05,72.42c-2.94,3-6,5.83-8.81,9a.15.15,0,0,0,.21.22c3.09-2.81,5.91-6,8.84-8.95.15-.15-.09-.39-.24-.23Z"/><path class="cls-12" d="M124.17,76.82a73.08,73.08,0,0,0-5.55,6.51c-.11.15.11.31.23.19A73,73,0,0,0,124.37,77c.11-.13-.08-.33-.2-.19Z"/><path class="cls-12" d="M123.69,82.1c-1.77,1.57-3.66,3.09-5.31,4.79-.13.14.07.33.22.21,1.85-1.48,3.53-3.22,5.26-4.83.12-.11,0-.28-.17-.17Z"/><path class="cls-12" d="M122.28,86.25A45.26,45.26,0,0,0,119.56,90c-.09.15.13.33.25.19,1-1.18,1.84-2.55,2.72-3.83.11-.16-.14-.3-.25-.15Z"/><path class="cls-12" d="M123.44,89.53l-1.36,1.6a5.7,5.7,0,0,0-1,1.37c0,.1.09.19.18.14a5.88,5.88,0,0,0,1.2-1.33l1.25-1.54c.14-.17-.09-.41-.23-.24Z"/><path class="cls-12" d="M119.16,88.1a10.72,10.72,0,0,0-4.35,3.9c-.06.12.09.24.18.14.63-.68,1.17-1.42,1.86-2a15,15,0,0,1,2.44-1.76.13.13,0,0,0-.13-.23Z"/><path class="cls-12" d="M119.66,92a44,44,0,0,0-4.11,2.9c-.1.08,0,.22.12.16a46.42,46.42,0,0,0,4.09-2.89c.1-.07,0-.25-.1-.17Z"/><path class="cls-12" d="M120.89,93.68a21,21,0,0,0-5.37,4.8c-.07.1.09.22.17.13a46.81,46.81,0,0,1,5.3-4.75c.11-.08,0-.26-.1-.18Z"/><path class="cls-12" d="M120.79,97.45c-1.92,1.82-4,3.58-5.75,5.55a.09.09,0,0,0,.13.13c2-1.71,3.87-3.69,5.76-5.54.09-.09-.05-.22-.14-.14Z"/><path class="cls-12" d="M120.58,101.55c-2.33,1.81-4.81,3.53-7,5.54-.1.09,0,.27.15.19,2.46-1.65,4.7-3.68,7-5.54.13-.11-.05-.29-.18-.19Z"/><path class="cls-12" d="M120.66,105.21a71,71,0,0,0-7.26,5.26c-.1.09,0,.25.14.19a72.12,72.12,0,0,0,7.27-5.25c.12-.09,0-.28-.15-.2Z"/><path class="cls-12" d="M114.12,112.64l-2.15,1.7c-.1.08,0,.26.14.18l2.17-1.67a.13.13,0,1,0-.16-.21Z"/><path class="cls-12" d="M111.81,115.15s0,0,0,0,0,0,0,0Z"/><path class="cls-12" d="M118.48,108.3c-3.15,2.37-6.43,4.65-9.39,7.25-.12.11,0,.33.18.24,3.27-2.21,6.31-4.8,9.39-7.25.13-.11,0-.34-.18-.24Z"/></svg>