<svg id="carracters" xmlns="http://www.w3.org/2000/svg" viewBox="0 0 198.43 35.43"><defs><style>.cls-1{fill:#fff;}</style></defs><path d="M165.48,10.11l1.4-.18,2.21-.25-.75-.63.13-.17,1,.85-.88,1.07-.17-.12.63-.78-.77.07-2.63.31a.75.75,0,0,1-.2,0Z"/><path d="M188.25,18.17l-.69,1.66a10.45,10.45,0,0,1-4.7-4c.1.66.21,1.33.3,2a27.72,27.72,0,0,1,.23,4.73,8.54,8.54,0,0,1-.21,1.75,6,6,0,0,1-4.87,4.73,10,10,0,0,1-5.84-.31,5.77,5.77,0,0,1-3.91-4.86,11.61,11.61,0,0,1,.77-5.86,17.43,17.43,0,0,1,3.44-5.57l.14-.18-1.29.31a29.12,29.12,0,0,1-4,.56.37.37,0,0,0-.2.11c-.11.09-.21.2-.32.3l-.07-.05-.21-1.93,1.14-.09a29.74,29.74,0,0,0,5.05-.75,6.5,6.5,0,0,0,2.12-.89.25.25,0,0,1,.22,0c.38.34.75.7,1.13,1.06-.24.19-.48.35-.7.54a17.53,17.53,0,0,0-5.26,8,9.78,9.78,0,0,0-.45,3.56,4.69,4.69,0,0,0,4.09,4.58,8.52,8.52,0,0,0,4.34-.25,4.45,4.45,0,0,0,3-3.49,13.69,13.69,0,0,0,.21-3.5c0-.84-.08-1.68-.16-2.52a17.59,17.59,0,0,0-1.35-5.52s0,0,0-.1l1.53-.73A12.74,12.74,0,0,0,188.25,18.17Z"/><path class="cls-1" d="M36.86,18.17l-.69,1.66a10.4,10.4,0,0,1-4.7-4c.1.66.21,1.33.3,2A27.72,27.72,0,0,1,32,22.57a8.55,8.55,0,0,1-.22,1.75,6,6,0,0,1-4.86,4.73,10,10,0,0,1-5.84-.31,5.76,5.76,0,0,1-3.91-4.86A11.5,11.5,0,0,1,17.94,18a17.23,17.23,0,0,1,3.43-5.57l.15-.18-1.3.31a29,29,0,0,1-3.94.56.37.37,0,0,0-.2.11c-.11.09-.21.2-.32.3l-.07-.05-.22-1.93,1.14-.09a29.7,29.7,0,0,0,5.06-.75,6.6,6.6,0,0,0,2.12-.89.25.25,0,0,1,.22,0c.38.34.74.7,1.13,1.06-.24.19-.48.35-.7.54a17.53,17.53,0,0,0-5.26,8,9.78,9.78,0,0,0-.45,3.56,4.69,4.69,0,0,0,4.09,4.58,8.53,8.53,0,0,0,4.34-.25,4.47,4.47,0,0,0,3-3.49,14.15,14.15,0,0,0,.21-3.5c0-.84-.08-1.68-.16-2.52a17.59,17.59,0,0,0-1.35-5.52s0,0,0-.1l1.52-.73A12.76,12.76,0,0,0,36.86,18.17Z"/><path d="M180.63,8.78l.26,2.75c-.14.07-.21.06-.23-.12-.08-.95-.18-1.89-.26-2.84,0-.08.06-.17.11-.3l2.55,2.65v-.87c0-.13,0-.2.19-.14v1.37H182l0-.07c.06,0,.12-.11.19-.12h.82l-2.24-2.34Z"/></svg>