<svg id="carracters" xmlns="http://www.w3.org/2000/svg" viewBox="0 0 198.43 35.43"><defs><style>.cls-1{fill:#fff;}.cls-2{fill:#6e6e6e;}</style></defs><path d="M173.13,31h-1.55v-9a22.36,22.36,0,0,1-1.86,2.74c-.7.86-1.43,1.69-2.18,2.57l-.83-1.45c.36-.38.73-.75,1.08-1.13A22.94,22.94,0,0,0,171.23,20c.13-.24.24-.5.35-.75a.34.34,0,0,0,0-.17c0-.58,0-1.17,0-1.76a.44.44,0,0,0,0-.1,25.3,25.3,0,0,1-4.1.36V16a22.58,22.58,0,0,0,4.16-.33l.16-4.12,2.29.18c0,.27-.14.35-.61.48-.07,1-.14,2-.2,3a.24.24,0,0,0,.12.19c.18.09.38.15.58.23a11.29,11.29,0,0,0-.87,3.15l.7-.61a18.44,18.44,0,0,1,3.53-2.46,7.16,7.16,0,0,1,2.25-.78,2.92,2.92,0,0,1,3.56,2.54,8.13,8.13,0,0,1,.09,2.31q-.21,2.66-.36,5.31c0,.71,0,1.43,0,2.14a1.77,1.77,0,0,0,.08.46.92.92,0,0,0,1.14.74,4.37,4.37,0,0,0,1.49-.58c.45-.27.87-.57,1.3-.85.1.52.21,1.05.31,1.58a.17.17,0,0,1-.07.14,7.07,7.07,0,0,1-3.05,1.36,3,3,0,0,1-1.42-.12,1.91,1.91,0,0,1-1.14-1.1,4.65,4.65,0,0,1-.32-1.92c.06-1.58.14-3.16.22-4.73.05-1,.16-1.91.18-2.86a5.54,5.54,0,0,0-.16-1.46,1.64,1.64,0,0,0-2.17-1.32,6.7,6.7,0,0,0-2,.8,18.4,18.4,0,0,0-4.18,3.33.41.41,0,0,0-.08.24c0,2.63,0,5.27,0,7.9,0,.65,0,1.3,0,1.94Z"/><path class="cls-1" d="M23.34,31H21.79v-9a21.36,21.36,0,0,1-1.87,2.74c-.69.86-1.42,1.69-2.17,2.57l-.83-1.45c.36-.38.73-.75,1.08-1.13A23.31,23.31,0,0,0,21.44,20c.12-.24.24-.5.35-.75a.34.34,0,0,0,.05-.17c0-.58,0-1.17,0-1.76a.44.44,0,0,0,0-.1,25.3,25.3,0,0,1-4.1.36V16a22.58,22.58,0,0,0,4.16-.33l.16-4.12,2.29.18c0,.27-.14.35-.61.48-.07,1-.14,2-.2,3a.24.24,0,0,0,.12.19c.18.09.37.15.58.23a11.66,11.66,0,0,0-.88,3.15l.7-.61a18.82,18.82,0,0,1,3.54-2.46,7.11,7.11,0,0,1,2.24-.78,2.93,2.93,0,0,1,3.57,2.54,8.13,8.13,0,0,1,.09,2.31q-.21,2.66-.36,5.31c0,.71,0,1.43,0,2.14a2.33,2.33,0,0,0,.08.46.93.93,0,0,0,1.15.74,4.37,4.37,0,0,0,1.49-.58c.44-.27.87-.57,1.3-.85.1.52.21,1.05.31,1.58a.17.17,0,0,1-.07.14,7.07,7.07,0,0,1-3.05,1.36A3,3,0,0,1,33,30a1.85,1.85,0,0,1-1.14-1.1,4.49,4.49,0,0,1-.32-1.92c.05-1.58.13-3.16.22-4.73.05-1,.15-1.91.18-2.86a6,6,0,0,0-.16-1.46,1.64,1.64,0,0,0-2.17-1.32,6.7,6.7,0,0,0-2,.8A18.4,18.4,0,0,0,23.4,20.7a.41.41,0,0,0-.08.24c0,2.63,0,5.27,0,7.9,0,.65,0,1.3,0,1.94Z"/><path class="cls-2" d="M136.48,31.21h-1.55v-9A22.36,22.36,0,0,1,133.07,25c-.7.86-1.43,1.69-2.18,2.57l-.83-1.45c.36-.38.73-.75,1.08-1.13a22.94,22.94,0,0,0,3.44-4.81c.13-.24.24-.5.35-.75a.34.34,0,0,0,0-.17c0-.58,0-1.17,0-1.76a.44.44,0,0,0,0-.1,25.3,25.3,0,0,1-4.1.36v-1.6a22.58,22.58,0,0,0,4.16-.33l.16-4.12,2.29.17c0,.28-.14.36-.61.48-.07,1-.14,2-.2,3a.24.24,0,0,0,.12.19,5,5,0,0,0,.58.22,11.36,11.36,0,0,0-.87,3.16l.7-.61a18,18,0,0,1,3.53-2.46A7.16,7.16,0,0,1,143,15.1a2.92,2.92,0,0,1,3.56,2.54,8.12,8.12,0,0,1,.09,2.31c-.13,1.77-.26,3.54-.35,5.31,0,.71,0,1.43,0,2.14a1.77,1.77,0,0,0,.08.46.92.92,0,0,0,1.14.74A4.37,4.37,0,0,0,149,28c.45-.27.87-.57,1.3-.85.11.52.21,1,.31,1.58a.17.17,0,0,1-.07.14,7.07,7.07,0,0,1-3.05,1.36,3,3,0,0,1-1.42-.12A1.86,1.86,0,0,1,145,29a4.53,4.53,0,0,1-.33-1.92c.06-1.58.14-3.16.22-4.74.05-.95.16-1.9.18-2.85a5.11,5.11,0,0,0-.16-1.46,1.64,1.64,0,0,0-2.17-1.32,6.7,6.7,0,0,0-2,.8,18.4,18.4,0,0,0-4.18,3.33.41.41,0,0,0-.08.24c0,2.63,0,5.27,0,7.9,0,.65,0,1.3,0,1.94Z"/><path d="M179.33,24c.16-.06.2,0,.19.14-.06.95-.14,1.89-.18,2.83a23.72,23.72,0,0,0,0,2.92,2.06,2.06,0,0,0,2,2,6.88,6.88,0,0,0,1.11.05,5.9,5.9,0,0,0,1.1-.13l-.42-.19.06-.17c.25.1.5.19.73.3a.24.24,0,0,1,.06.23c-.12.23-.27.44-.4.66-.18-.08-.18-.08-.06-.27l.21-.34c-.48,0-.91.11-1.34.11a6.46,6.46,0,0,1-1.46-.15,2.23,2.23,0,0,1-1.79-2.23c0-.95,0-1.9.05-2.85s.11-1.82.17-2.72A.92.92,0,0,0,179.33,24Z"/><path d="M170.69,27.06l-.58.49-.06-.31A6.74,6.74,0,0,0,166,30.16v-1c0-.26,0-.52,0-.78,0-.07.06-.14.09-.21s.09.13.09.2c0,.36,0,.73,0,1.16A6.2,6.2,0,0,1,168,27.94a8.16,8.16,0,0,1,2.14-.91l-.2-.22a1.5,1.5,0,0,1,.3,0,5.08,5.08,0,0,1,.51.17Z"/><path d="M138.68,13.19c0-.72.09-1.41.13-2.09s.07-1.2.1-1.81c0-.11,0-.23.21-.15l-.24,4.06.71-.67.11.12c-.28.29-.54.56-.81.81a.24.24,0,0,1-.22,0c-.3-.25-.57-.5-.88-.78l.17-.17Z"/><path d="M166.08,14.56l1.88-.17-.25-.22.1-.16a2.67,2.67,0,0,1,.4.32.3.3,0,0,1,0,.26,2.6,2.6,0,0,1-.31.41l-.15-.11.22-.31-1.49.13a1.83,1.83,0,0,1-.33,0c-.06,0-.11-.07-.16-.1Z"/><path d="M135.29,11.66l2,.19c-.06.36-.32.38-.55.45-.45,6.29-.36,12.58-.36,18.89H135C135,24.68,134.93,18.17,135.29,11.66Z"/></svg>