<?xml version="1.0" encoding="utf-8"?>
<!-- Generator: Adobe Illustrator 25.4.1, SVG Export Plug-In . SVG Version: 6.00 Build 0)  -->
<svg version="1.1" xmlns="http://www.w3.org/2000/svg" xmlns:xlink="http://www.w3.org/1999/xlink" x="0px" y="0px"
	 viewBox="0 0 198.4 136.4" style="enable-background:new 0 0 198.4 136.4;" xml:space="preserve">
<style type="text/css">
	.st0{display:none;}
	.st1{display:inline;fill:#FFE4B9;}
	.st2{fill:#93949E;}
	.st3{fill:#FFFFFF;}
	.st4{fill:none;stroke:#010101;stroke-width:0.5;stroke-miterlimit:10;}
	.st5{fill:#F04F4E;}
	.st6{fill:#F04F4E;stroke:#010101;stroke-width:0.5;stroke-miterlimit:10;}
	.st7{fill:#E02026;}
	.st8{fill:#48484A;}
	.st9{fill:#E0E31D;}
	.st10{fill:#D0232A;}
	.st11{fill:#FFE400;}
	.st12{fill:#010101;}
	.st13{fill:#231F20;}
</style>
<g id="Layer_2" class="st0">
	<rect x="-20" y="-12.1" class="st1" width="241.1" height="162.6"/>
</g>
<g id="illustration">
	<path class="st2" d="M75.5,30.7c0,0,50.2,5.3,72.3,29.1l6.8,8.2c0,0-25.1,0.9-48.2-6.8S71.3,42.2,71.3,42.2S68.9,38.1,75.5,30.7z"
		/>
	<path class="st2" d="M67.9,60.5c0,0-6.9,5.5-6.9,11.8c0.1,4.6,0.6,9.1,1.4,13.7l13.1,4.3c0,0,34.8,10.3,54.9,9.7s26.5-4.7,26.5-4.7
		c-10.7-10.3-23.5-18.1-37.6-23C96.5,64.7,94.1,62.5,67.9,60.5z"/>
	<path class="st2" d="M53.8,91.5c0,0,24.8,2.5,34.4,5.5s48.8,17.7,62.7,33.3c0,0-26.5,7.7-54.2,1.4c-29.6-6.8-44.9-17.2-44.3-17.7
		c0,0-3.5-9.1-2.1-12.8S53.8,91.5,53.8,91.5z"/>
	<path class="st3" d="M51.5,114.2c0,0-5.5,0.4-7.7-1.2s-0.6-10.3-0.6-10.3l4.3-2L45.6,99c0,0-1.3-5.7,1.5-9.9c2.4,0,4.8,0.8,6.7,2.4
		c0,0-4.8,9.4-2.7,9.8L51.5,114.2z"/>
	<path class="st3" d="M67.9,60.5c0,0-10.4,11.6-5.5,24.5c0,0-0.5,2-3.4,1.9c-1.3,0-2.7-0.1-4-0.4c0,0-3.4-4.5-1-14.2l3.3-0.3L54,69
		c0,0,0-6.6,3.8-10.7l5.6,0.4L67.9,60.5z"/>
	<polygon class="st3" points="75.5,30.7 72.3,35.1 71.3,42.2 70.6,43.2 68.2,43.7 65.6,43 65.3,40.8 65.2,37.8 65.6,35.7 67.3,34.8 
		66.2,33.7 65,32.2 66.7,29.8 68.7,27.3 71.9,27.6 73.8,29.4 	"/>
	<path class="st4" d="M138.8,82.1c0,0-4.5,3.8-5.8,9.2c-0.9,3-0.5,6.1,1,8.8c0,0,16.1-1.7,22.9-4.7C156.8,95.4,141.8,84,138.8,82.1z
		"/>
	<path class="st4" d="M137.4,51c-3,1.3-5.6,3.4-7.5,6c-1.8,2.8-2.9,5.9-3.2,9.2c0,0,18.1,3.6,27.9,1.8C154.5,68.1,143,54.4,137.4,51
		z"/>
	<path class="st4" d="M125.8,112.5c-2.9,2.9-5.2,6.4-6.7,10.2c-1.2,3.8-1.3,7.8-0.3,11.6c0,0,19.2,0.6,32.2-4.1
		C150.9,130.2,134.8,116.7,125.8,112.5z"/>
	<path class="st5" d="M149,61.4l-1.6,2.2l-0.9,2.7v2l8-0.1C154.5,68.1,152.2,62.8,149,61.4z"/>
	<path class="st5" d="M151.9,91.4c-1,1.7-1.3,3.8-1,5.8c2.1,0,4.2-0.6,5.9-1.8L151.9,91.4z"/>
	<path class="st6" d="M140.8,122.7c0,0-1.6,1.1-3.2,4.9c-1.6,3.8-0.7,5.7-0.7,5.7s9.4-1.1,14-3.1
		C150.9,130.2,144.6,124.2,140.8,122.7z"/>
	<path class="st7" d="M67,27.9c-1.1,0.8-2.4,2.5-2.2,3.9c0,0.2,0.2,0.3,0.3,0.3c0.1,0,0.2-0.1,0.2-0.2c0.2-0.7,0.4-1.3,0.7-1.9
		c0.3-0.6,0.8-1.1,1.3-1.6C67.6,28.1,67.3,27.6,67,27.9z"/>
	<path class="st7" d="M66.6,28.4c0.4,0.1,0.8,0.1,1.1-0.1c0.1,0,0.1-0.1,0.1-0.2c0,0-0.1-0.1-0.1-0.1c-0.4-0.1-0.8,0-1.1,0.2
		C66.6,28.2,66.6,28.3,66.6,28.4C66.6,28.3,66.6,28.4,66.6,28.4L66.6,28.4z"/>
	<path class="st7" d="M63.2,37.1c-0.3,0.6-0.4,1.4-0.3,2.1c0,0.9,0,1.9,0,2.8c0,0.2,0.2,0.4,0.4,0.4c0.2,0,0.4-0.2,0.4-0.4
		c0-0.9,0-1.9-0.1-2.8C63.7,38.5,63.6,37.7,63.2,37.1L63.2,37.1z"/>
	<path class="st7" d="M63.1,42.3c0.5,0.4,1,0.7,1.5,0.9c0.2,0.1,0.4,0.1,0.5-0.1c0.1-0.1,0.1-0.2,0.1-0.3c0-0.2-0.1-0.3-0.2-0.4
		c-0.5-0.3-1.1-0.5-1.6-0.7C63.2,41.8,62.9,42.1,63.1,42.3z"/>
	<path class="st7" d="M64.5,43.3c0.6-2.4,0.9-4.8,0.8-7.2c0-0.4-0.6-0.5-0.7-0.1c-0.5,2.4-0.6,4.9-0.5,7.3
		C64.2,43.5,64.5,43.5,64.5,43.3z"/>
	<path class="st7" d="M64.4,35.9c-1.5,1.1-1.7,3.6-1.3,5.3c0.1,0.6,1.1,0.4,1-0.3c-0.2-0.9-0.2-1.8,0-2.6c0.2-0.8,0.6-1.4,0.8-2.1
		C64.9,36,64.6,35.8,64.4,35.9L64.4,35.9z"/>
	<path class="st7" d="M64,38.4c-0.2,0.7-0.3,1.3-0.5,2c-0.2,0.6-0.3,1.2-0.2,1.7c0.1,0.3,0.4,0.4,0.6,0.3c0.1,0,0.2-0.1,0.3-0.2
		c0.2-0.6,0.3-1.2,0.2-1.7c0-0.7,0-1.3-0.1-2c0-0.1-0.1-0.2-0.2-0.2C64.1,38.3,64,38.4,64,38.4L64,38.4z"/>
	<path class="st3" d="M53.3,49.3l8.7-7l5.3-16.2l-2-5.9L62,14.3l-5.2-3.9L52.2,7l1.1,7.3L50,8l-4.5-3.4l-1-0.6
		c-0.7,0.4-1.4,0.8-2.2,1.1L44.2,8l0.6,1.5c-1-1.4-2.1-2.7-3.3-3.9C36.7,0.1,4.1-4.3,0.6-1.9C-1.1-0.7,0,26.5,0,30
		c0.2-0.3,0,13.5,0,13.5v11.6c0,0-0.4,17.9-0.3,26.8s-0.1,17.6,0.2,26.4c0.2,4.2,0.4,8.3,0.3,12.5c0,1.2,0,2.3-0.1,3.5l1.3-0.4
		l-1.3,1.9c0,1.5,0,3,0,4.5c6.6-2.1,19.3-6.3,22.6-9.2c4.5-3.9-3.8,7.8-3.8,7.8s15-5.8,19.3-13.8c0,0,12.1-28,5.9-26.5
		c-1.1,0.2-2.1,0.6-3.1,1c5-4.5,10.6-10.1,10.6-10.1s3.6-19,2.3-21.8s-11-7.5-11-7.5c1.5,0.5,3,0.9,4.5,1.2
		C49.3,51.7,53.3,49.3,53.3,49.3z"/>
	<path class="st7" d="M64,37.7c-0.8,1.4-1.1,3.1-0.8,4.7c0.1,0.2,0.3,0.3,0.4,0.2c0.1,0,0.2-0.2,0.2-0.3c0.1-0.7,0-1.4,0-2.1
		c0.1-0.8,0.3-1.6,0.5-2.3C64.4,37.6,64.1,37.5,64,37.7L64,37.7z"/>
	<path class="st7" d="M54.5,59.5c-1.9,1.7-2.9,5.5-2.3,8c0.1,0.4,0.8,0.4,0.8,0c0.2-1.3,0.1-2.7,0.5-4s1-2.5,1.4-3.8
		c0-0.1,0-0.2-0.2-0.2C54.6,59.5,54.5,59.5,54.5,59.5L54.5,59.5z"/>
	<path class="st7" d="M52.5,67.3c-0.2,0.5,0.4,1.4,1,0.9c0.1-0.1,0.1-0.3,0-0.4c0,0,0,0,0,0c-0.2-0.2-0.5-0.2-0.7-0.6
		C52.7,67.2,52.6,67.1,52.5,67.3C52.5,67.2,52.5,67.3,52.5,67.3L52.5,67.3z"/>
	<path class="st7" d="M53.5,67.7c0.5-3.1,1.9-6.1,3.8-8.6c0.3-0.4-0.2-1-0.6-0.6c-2.3,2.5-3.6,5.8-3.7,9.1
		C53,67.9,53.4,68,53.5,67.7z"/>
	<path class="st7" d="M56.8,58.4c-0.8,0-1.7,0.1-2.5,0.2c-0.7,0.1-0.4,1.3,0.3,1.1c0.8-0.2,1.5-0.5,2.2-0.8
		C57.1,58.8,57.1,58.4,56.8,58.4z"/>
	<path class="st7" d="M55.4,59.2c-0.6,0.2-1.1,0.7-1.4,1.2c-0.3,0.5-0.8,1.2-0.4,1.8c0.1,0.2,0.4,0.2,0.5,0.1c0,0,0,0,0.1,0
		c0.4-0.3,0.4-0.9,0.5-1.4c0.2-0.5,0.5-1,0.8-1.5C55.6,59.3,55.6,59.1,55.4,59.2z"/>
	<path class="st7" d="M54.7,60.5C54.7,60.5,54.7,60.5,54.7,60.5C54.7,60.5,54.7,60.4,54.7,60.5C54.7,60.4,54.7,60.4,54.7,60.5
		C54.6,60.4,54.6,60.5,54.7,60.5C54.6,60.5,54.6,60.5,54.7,60.5z"/>
	<path class="st7" d="M53.5,85.5c0.6-1.7-0.5-3.8-0.7-5.5c-0.2-2.2,0.2-4.3,0.1-6.4c0-0.2-0.2-0.3-0.3-0.3c-0.1,0-0.2,0.1-0.2,0.1
		c-1.2,2.1-1.2,4.6-1,7c0.2,1.7,0.3,4.3,1.9,5.2C53.4,85.6,53.5,85.6,53.5,85.5C53.5,85.6,53.5,85.5,53.5,85.5L53.5,85.5z"/>
	<path class="st7" d="M53,74.3c0.2-0.1,0.3-0.3,0.3-0.5c0-0.1,0-0.2-0.2-0.2c0,0-0.1,0-0.1,0c-0.2,0.1-0.3,0.2-0.5,0.3
		c-0.1,0.1-0.1,0.3,0,0.3C52.8,74.4,52.9,74.4,53,74.3z"/>
	<path class="st7" d="M52.9,84.8c0.3,0.6,0.7,1.1,1.2,1.4c0.3,0.2,0.5-0.2,0.4-0.4c-0.3-0.5-0.7-1-1.2-1.4
		C53.1,84.3,52.8,84.5,52.9,84.8z"/>
	<path class="st7" d="M45.1,98.7c-0.7-1.7-1.5-3.1-1.2-5c0.4-1.4,1.1-2.7,2-3.8c0.1-0.2,0-0.4-0.2-0.5c-0.1-0.1-0.2-0.1-0.4,0
		c-2.9,1.8-3.3,7.3-0.7,9.5c0.1,0.1,0.2,0.1,0.3,0C45.2,98.9,45.2,98.7,45.1,98.7L45.1,98.7z"/>
	<path class="st7" d="M45.1,89c-1.9,1.7-3.4,6.3-1.3,8.4c0.1,0.1,0.4,0,0.4-0.2C44,96,43.5,95,43.6,93.7c0.1-1.6,0.8-3.1,1.8-4.3
		c0.1-0.1,0.1-0.3-0.1-0.4C45.3,88.9,45.2,88.9,45.1,89L45.1,89z"/>
	<path class="st7" d="M45.2,99.1c-0.6-1.4-0.9-2.9-1-4.4c0.1-1.5,0.5-3,1.2-4.4c0-0.1,0-0.3-0.2-0.3c-0.1,0-0.2,0-0.2,0.1
		c-2,2.2-2,6.9,0.1,9.1C45.1,99.3,45.2,99.3,45.2,99.1C45.2,99.2,45.2,99.2,45.2,99.1L45.2,99.1z"/>
	<path class="st7" d="M44.5,95.6c0.2-0.8,0.2-1.6,0.3-2.4s0.5-1.5,0.6-2.3c0-0.1-0.1-0.3-0.2-0.3c-0.1,0-0.2,0-0.2,0.1
		c-0.9,1.4-1.3,3.2-1,4.9c0,0.1,0.2,0.2,0.3,0.2C44.4,95.7,44.5,95.7,44.5,95.6L44.5,95.6z"/>
	<path class="st7" d="M45.5,89.4c-0.2,0.4-0.4,0.7-0.6,1.1c-0.2,0.3-0.3,0.5-0.2,0.8c0,0.1,0.1,0.2,0.2,0.1c0.3-0.1,0.4-0.4,0.6-0.7
		s0.3-0.7,0.5-1.1S45.7,89.1,45.5,89.4z"/>
	<path class="st7" d="M44.1,95.3c-0.2,0.5-0.2,1.1-0.1,1.7c0,0.5,0.3,1.1,0.7,1.4c0.2,0.1,0.4,0,0.5-0.2c0,0,0-0.1,0-0.2
		c0-0.4-0.2-0.8-0.4-1.2c-0.1-0.5-0.2-1-0.2-1.4c0-0.1-0.1-0.2-0.3-0.2C44.2,95.2,44.1,95.3,44.1,95.3L44.1,95.3z"/>
	<path class="st7" d="M42.8,112.2c0-1.5-0.6-2.8-0.6-4.3c0.1-1.6,0.5-3.2,1.1-4.8c0.1-0.3-0.4-0.6-0.6-0.2c-1.5,2.4-2,7.1-0.2,9.4
		C42.6,112.4,42.8,112.3,42.8,112.2z"/>
	<path class="st7" d="M41.5,104.1c-0.8,1.8-0.9,4-0.1,5.8c0.1,0.2,0.3,0.2,0.5,0.1c0.1-0.1,0.2-0.2,0.2-0.3c0-0.9-0.3-1.8-0.3-2.8
		c0-0.9,0.1-1.8,0.3-2.8C42,104,41.7,103.9,41.5,104.1z"/>
	<path class="st7" d="M40.7,105c-0.5,0.9-0.7,2-0.5,3c0,0.9,0.3,1.8,0.9,2.4c0.2,0.1,0.4,0,0.4-0.1c0,0,0,0,0-0.1
		c0-0.7-0.2-1.5-0.4-2.2c-0.2-1-0.1-2-0.2-2.9C40.9,105,40.9,105,40.7,105C40.7,105,40.7,105,40.7,105L40.7,105z"/>
	<path class="st3" d="M55.2,60.6c-0.4,0.9-0.9,1.8-1.3,2.7c0,0,0.1,0.1,0.1,0c0.5-0.8,0.9-1.8,1.4-2.7
		C55.4,60.5,55.2,60.4,55.2,60.6L55.2,60.6z"/>
	<path class="st3" d="M52,75.8c-0.7,2.4-0.6,4.9,0.4,7.2c0,0,0,0.1,0.1,0.1c0,0,0.1,0,0.1-0.1c-0.4-2.4-0.5-4.8-0.1-7.2
		C52.4,75.7,52.1,75.6,52,75.8L52,75.8z"/>
	<path class="st3" d="M44.5,90.5c-0.9,1.5-1.2,3.2-0.8,4.9c0,0.1,0.1,0.1,0.2,0.1c0.1,0,0.1-0.1,0.1-0.1c0-1.6,0.3-3.1,1-4.6
		C45.2,90.5,44.7,90.2,44.5,90.5L44.5,90.5z"/>
	<path class="st3" d="M41.2,105.6c-0.2,1.3-0.2,2.7,0,4c0,0.2,0.2,0.1,0.2,0c0.2-1.3,0.2-2.7,0-4c0-0.1-0.1-0.1-0.2-0.1
		C41.2,105.5,41.1,105.5,41.2,105.6L41.2,105.6z"/>
	<path class="st3" d="M66.3,28.8c-0.4,0.5-0.8,1.1-1,1.7c0,0.1,0,0.2,0.1,0.2c0.1,0,0.1,0,0.2,0c0.4-0.5,0.8-1.1,1-1.7
		c0-0.1,0-0.2-0.1-0.2C66.5,28.7,66.4,28.8,66.3,28.8L66.3,28.8z"/>
	<path class="st3" d="M63.7,37.2c-0.3,0.6-0.5,1.3-0.4,2c-0.1,0.7,0,1.5,0.2,2.2c0,0.1,0.2,0.2,0.3,0.2c0.1,0,0.2-0.1,0.2-0.2
		c0-0.7-0.1-1.3,0-2c0.1-0.7,0.2-1.3,0.2-2c0-0.1-0.1-0.2-0.2-0.2C63.8,37.2,63.8,37.2,63.7,37.2L63.7,37.2z"/>
	<path class="st3" d="M75.2,32.2c5.3,1.3,10.9,1.8,16.3,2.8s10.8,2.1,16.1,3.6c10.1,2.7,19.6,7.2,28,13.4c0.5,0.4,0.9-0.4,0.5-0.8
		c-8.4-6.2-17.9-10.3-27.9-13.2c-5.4-1.6-10.9-2.8-16.4-3.8c-5.4-1-11-2.2-16.5-2.5c-0.2,0-0.3,0.2-0.3,0.3
		C75,32.1,75.1,32.2,75.2,32.2L75.2,32.2z"/>
	<path class="st3" d="M135.9,51.6c0.9,1.2,2,2.2,3.3,2.9c1.8,1.3,3.6,2.7,5.3,4.2c3,2.7,5.6,5.8,8.5,8.6c0.2,0.2,0.5,0,0.4-0.3
		c-2.3-3.3-5.1-6.4-8.2-9c-2.4-2.2-5.9-6.1-9.2-6.6C135.9,51.5,135.9,51.5,135.9,51.6C135.8,51.5,135.8,51.5,135.9,51.6L135.9,51.6z
		"/>
	<path class="st3" d="M72.6,41.3c-0.1-1,0-2,0.2-3c0.4-1,0.8-1.9,1.3-2.7c0.2-0.4-0.2-0.9-0.6-0.6c-2,1.3-2.3,4.4-1.5,6.5
		C72.2,41.7,72.7,41.7,72.6,41.3L72.6,41.3z"/>
	<path class="st3" d="M91.4,49.4c0.4-1.5,0.4-3,0.9-4.5c0.7-1.7,1.6-3.2,2.8-4.6c0.4-0.5-0.1-1.3-0.7-0.9c-2.8,1.9-5.1,6.7-3.4,10
		c0.1,0.1,0.2,0.2,0.3,0.1C91.3,49.5,91.4,49.5,91.4,49.4L91.4,49.4z"/>
	<path class="st3" d="M109.6,57.6c0.9-1.9,1.5-3.9,2.6-5.8s2.8-3.3,3.7-5.2c0.1-0.3-0.1-0.7-0.4-0.6c-3.8,1.4-6.6,7.5-6.3,11.4
		C109,57.8,109.4,57.9,109.6,57.6z"/>
	<path class="st3" d="M62.6,80.5c0.2-2.4,0-4.8,0.5-7.2c0.6-2.4,1.5-4.6,2.8-6.7c0.3-0.6-0.5-1.3-0.9-0.7c-3,3.7-4.9,10.2-2.7,14.7
		C62.4,80.8,62.6,80.7,62.6,80.5z"/>
	<path class="st3" d="M87.3,84c0.1-2.4,0.4-4.8,0.9-7.2c0.5-2.1,1.4-4,2.1-6.1c0.1-0.4-0.4-0.5-0.6-0.2c-2.6,3.7-3.3,9.1-2.8,13.5
		c0,0.1,0.1,0.2,0.2,0.2C87.2,84.1,87.2,84.1,87.3,84z"/>
	<path class="st3" d="M105.4,90.4c0.4-2.5,0.5-5.1,1.2-7.6c0.8-2.4,1.8-4.8,2.8-7.1c0-0.2-0.1-0.4-0.3-0.4c-0.1,0-0.2,0-0.3,0.1
		c-3.2,3.7-5,10.3-4,15c0.1,0.2,0.2,0.2,0.4,0.2C105.3,90.6,105.4,90.5,105.4,90.4L105.4,90.4z"/>
	<path class="st3" d="M123.5,93.4c0.1-1.7,0.3-3.4,0.8-5.1c0.6-1.7,1.7-2.9,2.5-4.5c0.2-0.4-0.2-0.9-0.6-0.6
		c-2.9,1.9-4.2,7.1-3.4,10.3C122.8,93.9,123.4,93.8,123.5,93.4z"/>
	<path class="st3" d="M52.5,96.6c-1.3,4.4-1.5,9-0.6,13.5c0,0.2,0.4,0.2,0.4-0.1c-0.2-4.4,0-8.9,0.7-13.3c0-0.1,0-0.3-0.2-0.3
		C52.7,96.4,52.5,96.5,52.5,96.6L52.5,96.6z"/>
	<path class="st3" d="M68.1,61.5c3.6,0.6,7.3,0.7,11,1.2c4.1,0.5,8.2,1.3,12.3,2.1c7.5,1.7,14.9,3.9,22.1,6.7
		c15,5.8,29,13.8,41.5,23.9c0.3,0.3,0.8-0.2,0.5-0.5c-12.2-10-25.9-18.1-40.6-23.9c-7.6-3-15.3-5.3-23.3-7.1
		c-7.5-1.7-15.7-3.4-23.4-3.1C67.8,60.8,67.7,61.4,68.1,61.5L68.1,61.5z"/>
	<path class="st3" d="M72.7,98.8c-2.2,1.7-2.9,5.8-3.4,8.4c-0.6,3-0.6,6.1,0.1,9.1c0.1,0.3,0.5,0.2,0.5-0.1c0.1-3.2,0.4-6.4,1-9.5
		c0.6-2.5,2.2-5.2,2.3-7.8c0-0.1-0.1-0.2-0.3-0.2C72.8,98.7,72.8,98.8,72.7,98.8L72.7,98.8z"/>
	<path class="st3" d="M95.6,104.5c-5.1,4.8-8.1,12.8-5.8,19.8c0.1,0.2,0.5,0.2,0.4-0.1c-0.3-3.3-0.1-6.7,0.7-9.9
		c1-3.4,2.7-6.6,5.1-9.3c0.1-0.2,0.1-0.4-0.1-0.5C96,104.4,95.8,104.4,95.6,104.5L95.6,104.5z"/>
	<path class="st3" d="M112,111.7c-4.7,3.3-8.7,12.4-6.6,18c0.1,0.2,0.4,0.2,0.4,0c0.7-3,0.5-6.1,1.6-9.1c1.1-3.3,3.1-5.7,5-8.4
		C112.6,111.9,112.2,111.5,112,111.7L112,111.7z"/>
	<path class="st3" d="M54.2,92.8c4.2,0.7,8.5,0.6,12.7,1.1c4.4,0.6,8.8,1.4,13.1,2.3c8.2,1.8,16.3,4.3,24.1,7.3
		c16.4,6.4,31.6,15.4,45.2,26.7c0.5,0.4,1.1-0.3,0.7-0.7c-20.1-16.9-44-28.7-69.7-34.2c-4.4-1-8.8-1.7-13.2-2.3
		c-4.2-0.6-8.5-1.4-12.7-1.2C53.8,91.9,53.6,92.8,54.2,92.8z"/>
	<path class="st8" d="M57.6,69c1-1.1,1-2.8,1.7-4.1c0.8-1.5,2.1-2.5,3-3.9c0.2-0.3,0.1-0.6-0.2-0.8c-0.1-0.1-0.3-0.1-0.4-0.1
		c-1.8,0.5-3,2.3-3.8,3.9c-0.7,1.3-1.6,3.5-0.6,4.9C57.3,69.1,57.4,69.1,57.6,69C57.5,69,57.6,69,57.6,69L57.6,69z"/>
	<path class="st8" d="M58.2,85.2c-0.4-1.2-0.7-2.4-0.8-3.6c-0.1-1.1,0-2.3,0-3.4c0-0.2-0.2-0.4-0.4-0.4c-0.1,0-0.2,0.1-0.3,0.2
		c-1.2,2.3-0.5,5.4,1.1,7.4C57.9,85.6,58.2,85.4,58.2,85.2L58.2,85.2z"/>
	<path class="st8" d="M69.4,33.5c0.1-0.9,0.5-1.7,1.2-2.4c0.2-0.2-0.1-0.4-0.3-0.3c-0.9,0.6-1.5,1.6-1.3,2.7c0,0.1,0.1,0.2,0.2,0.2
		S69.4,33.6,69.4,33.5z"/>
	<path class="st8" d="M68.3,41.4c-0.4-1.1,0-1.8,0.3-2.9c0-0.1,0-0.2-0.1-0.3c-0.1,0-0.1,0-0.2,0c-1,0.7-1.1,2.2-0.7,3.3
		C67.8,41.9,68.5,41.8,68.3,41.4z"/>
	<path class="st8" d="M48.5,98.5c-0.2-1-0.2-2.1-0.1-3.2c0.2-0.9,0.3-1.8,0.3-2.8c0-0.3-0.4-0.6-0.7-0.3c-1.5,1.7-0.8,4.5-0.2,6.4
		c0,0.2,0.2,0.3,0.4,0.2C48.4,98.8,48.5,98.6,48.5,98.5z"/>
	<path class="st8" d="M47.8,110.7c0-0.9-0.1-1.8-0.1-2.7c0.1-0.8,0.1-1.6-0.1-2.4c0-0.1-0.2-0.2-0.4-0.2c-0.1,0-0.1,0.1-0.1,0.1
		c-0.8,1.3-0.3,3.9,0.3,5.2C47.6,111,47.8,110.9,47.8,110.7z"/>
	<path class="st8" d="M69.1,96.2c-3.1,4.1-4.4,10.9-3.2,15.9c0,0.2,0.2,0.3,0.4,0.2c0.1,0,0.2-0.2,0.2-0.3c0-2.8,0.2-5.6,0.6-8.4
		c0.6-2.5,1.4-4.9,2.3-7.3C69.5,96.2,69.2,96.1,69.1,96.2z"/>
	<path class="st8" d="M66.6,111.3c0.4-1.9,0.4-3.9,0.7-5.9s0.9-3.9,1.2-5.8c0-0.2-0.3-0.4-0.4-0.2c-1.5,3.3-2.4,8.3-1.8,11.8
		c0,0.1,0,0.1,0.1,0.1S66.6,111.3,66.6,111.3z"/>
	<path class="st8" d="M90.8,105.8c-4.2,3-5.3,9.9-4.7,14.6c0,0.1,0,0.2,0.1,0.2c0.1,0,0.2,0,0.2-0.1c0,0,0-0.1,0-0.1
		c0.1-2.7,0.6-5.4,1.4-7.9c0.8-2.3,2.3-4.3,3.2-6.5C91,105.9,90.9,105.8,90.8,105.8z"/>
	<path class="st8" d="M107.6,110.6c-3.3,2.2-6.2,7.9-5.8,11.8c0,0.1,0.1,0.2,0.2,0.2c0.1,0,0.1-0.1,0.2-0.2c0.8-2.2,1.2-4.4,2.2-6.5
		c1-1.9,2.3-3.4,3.4-5.2C108,110.6,107.8,110.4,107.6,110.6L107.6,110.6z"/>
	<path class="st8" d="M122.4,115.5c-4.4,2-5.7,8.8-5.3,13.1c0,0.4,0.6,0.5,0.7,0.1c0.6-2.3,0.5-4.8,1.2-7.1c0.7-2.2,1.9-4.3,3.5-6
		C122.5,115.6,122.5,115.5,122.4,115.5C122.5,115.5,122.4,115.5,122.4,115.5L122.4,115.5z"/>
	<path class="st8" d="M88.8,68.1c-2.5,2.2-4,6.5-4.6,9.7c-0.8,3.6-0.5,7.3,0.7,10.8c0.1,0.2,0.4,0.2,0.4,0
		c-0.5-3.6-0.5-7.3,0.1-10.9c0.3-1.6,0.7-3.1,1.2-4.6C87.2,71.4,88.3,69.9,88.8,68.1C88.9,68.1,88.9,68.1,88.8,68.1L88.8,68.1z"/>
	<path class="st8" d="M108.2,71.6c-3,1.4-4.9,5.4-5.9,8.4c-1.2,3.6-1.2,7.4-0.2,11.1c0.1,0.4,0.6,0.2,0.6-0.2
		c-0.5-3.5-0.2-7.2,0.9-10.6c1.1-3.3,3.3-5.6,4.8-8.7C108.3,71.7,108.3,71.6,108.2,71.6z"/>
	<path class="st8" d="M126.2,80.1c-4,3-6.1,7.9-5.5,12.9c0.1,0.5,0.9,0.4,0.9-0.1c0.3-4.8,1.6-8.8,4.9-12.4
		C126.8,80.2,126.4,79.9,126.2,80.1L126.2,80.1z"/>
	<path class="st8" d="M92.9,36.5c-2.9,2.8-5.1,7.8-4.6,11.8c0,0.5,0.8,0.7,1,0.1c0.3-1.9,0.7-3.9,1.2-5.8c0.8-2,1.7-4,2.9-5.8
		c0.1-0.1,0-0.3-0.1-0.4C93.1,36.4,93,36.4,92.9,36.5L92.9,36.5z"/>
	<path class="st8" d="M112.9,43.5c-1.5,1.1-2.8,2.4-3.8,4c-0.8,1.2-2.2,3.2-1.9,4.7c0,0.2,0.3,0.3,0.5,0.1c1.1-1,1.4-2.8,2.2-4.1
		c1-1.6,2.1-3,3.3-4.4C113.4,43.7,113.1,43.3,112.9,43.5L112.9,43.5z"/>
	<path class="st8" d="M133.2,52c-3.4,1.2-5.9,5.2-6.6,8.5c0,0.2,0.1,0.4,0.3,0.4c0.2,0,0.3-0.1,0.4-0.2c0.7-1.7,1.5-3.3,2.6-4.7
		c1-1.3,2.4-2.3,3.5-3.6C133.6,52.3,133.4,51.9,133.2,52L133.2,52z"/>
	<path class="st8" d="M106.8,58.9c-2.6,4,14.9,6.9,17.2,7c0.5,0,0.5-0.7,0-0.8c-3.1-0.3-6.1-1-9-2c-2.6-0.9-6.5-1.8-8-4.3
		C107.1,58.8,107,58.8,106.8,58.9C106.9,58.8,106.9,58.8,106.8,58.9L106.8,58.9z"/>
	<path class="st8" d="M89.6,51.8c-0.2,2,1.3,3.2,3,4.1c2.6,1.4,5.9,3.1,8.9,3.6c0.2,0,0.3-0.1,0.3-0.2c0-0.1,0-0.2-0.1-0.3
		c-2-1.1-4.1-2.1-6.2-3c-2-1-4.8-1.9-5.3-4.3C90.2,51.4,89.7,51.5,89.6,51.8L89.6,51.8z"/>
	<path class="st8" d="M71.6,42.5c1.2,1.5,3.1,2.5,4.6,3.5c1.8,1.2,3.5,2.6,5.3,3.8c0.3,0.2,0.8-0.3,0.4-0.6c-1.6-1.3-3.3-2.6-5-3.7
		c-1.6-1.1-3.3-2.7-5.2-3.2c-0.1,0-0.1,0-0.1,0.1C71.6,42.5,71.6,42.5,71.6,42.5L71.6,42.5z"/>
	<path class="st8" d="M104.5,95.1c0.3,1.8,1.7,2.4,3.4,2.8c3,0.8,6.1,1.3,9.1,1.9c0.2,0,0.4-0.1,0.4-0.2s-0.1-0.4-0.2-0.4l0,0
		c-2-0.5-3.9-0.9-5.9-1.4s-5.4-0.7-6.2-2.8c0-0.2-0.2-0.3-0.4-0.2C104.6,94.8,104.5,95,104.5,95.1z"/>
	<path class="st8" d="M122.6,97.5c0,4.4,6.5,3,9.1,3.6c0.1,0,0.3-0.1,0.3-0.2c0-0.1,0-0.2-0.1-0.3c-2.6-1.7-8,0.8-8.8-3.2
		c-0.1-0.1-0.2-0.2-0.3-0.1C122.7,97.3,122.6,97.4,122.6,97.5L122.6,97.5z"/>
	<path class="st8" d="M86.3,90.1c-1.4,4.8,6.9,4.5,9.2,5.8c0.4,0.2,0.7-0.4,0.3-0.6c-2.8-1.9-8.8-0.6-9.1-5.2c0-0.1-0.1-0.2-0.2-0.2
		S86.3,90,86.3,90.1z"/>
	<path class="st8" d="M86.4,92.7c0.1,0.3,0,0.7,0.4,0.9c0.1,0,0.1,0,0.1-0.1c0,0,0,0,0,0c0.1-0.3-0.2-0.6-0.3-0.9
		c0-0.1-0.1-0.1-0.1,0C86.4,92.6,86.4,92.7,86.4,92.7z"/>
	<path class="st8" d="M104.9,96.6c-0.7,0.3-0.1,1.4,0.4,1.1c0.1,0,0.1-0.1,0-0.2c0,0,0,0,0,0c-0.1-0.1-0.2-0.2-0.3-0.3
		C105,97,104.9,96.8,104.9,96.6C104.9,96.7,104.9,96.7,104.9,96.6L104.9,96.6z"/>
	<path class="st8" d="M122.2,99.8L122.2,99.8c0.2,0.2,0.3,0.2,0.4,0.1l0.1-0.1c0.3-0.2,0-0.6-0.3-0.6S121.9,99.6,122.2,99.8z"/>
	<path class="st8" d="M67.6,117.4c-0.7,2.1-0.7,3.9,1.4,5.1c1.4,0.7,2.8,1.3,4.2,1.8c1.6,0.8,3.3,1.4,5.1,1.8c0.2,0,0.4-0.1,0.5-0.3
		c0-0.2,0-0.3-0.2-0.4c-1.7-1-3.5-1.8-5.4-2.4c-1-0.4-1.9-0.8-2.9-1.1c-0.8-0.2-1.5-0.7-1.8-1.5c-0.6-0.9-0.7-1.9-0.3-2.9
		c0-0.1,0-0.3-0.2-0.3C67.8,117.2,67.6,117.3,67.6,117.4L67.6,117.4L67.6,117.4z"/>
	<path class="st8" d="M88,126c-0.6,1.4,0.3,2.9,1.4,3.7c2,1.6,5,1.5,7.2,2.7c0.1,0.1,0.3,0.1,0.4-0.1c0.1-0.1,0.1-0.3-0.1-0.4
		c-2.6-2.9-8.2-1-8.8-5.9C88.2,126,88.1,125.9,88,126z"/>
	<path class="st8" d="M102.6,129.5c-1.3,1-0.4,2.7,0.8,3.4c1.2,0.5,2.6,0.8,3.9,0.9c1.8,0.2,3.6,0.4,5.4,0.5c0.1,0,0.2-0.1,0.2-0.2
		c0-0.1-0.1-0.2-0.1-0.2c-1.7-0.4-3.4-0.7-5.2-0.9c-2-0.3-5.3-0.3-4.8-3.3C102.8,129.5,102.8,129.5,102.6,129.5
		C102.7,129.5,102.7,129.5,102.6,129.5L102.6,129.5z"/>
	<path class="st8" d="M101.6,132.1c0.3,0.3,0.5,0.7,1,0.8c0.1,0,0.3-0.1,0.3-0.3c0,0,0,0,0-0.1c-0.2-0.4-0.6-0.6-1-0.8
		c-0.1-0.1-0.3,0-0.3,0.1C101.5,131.9,101.5,132,101.6,132.1L101.6,132.1z"/>
	<path class="st8" d="M88.1,129.1c0.1,0.1,0.2,0.2,0.3,0.2c0.2,0.1,0.4-0.2,0.2-0.3c-0.1-0.1-0.2-0.1-0.4-0.2
		C88.1,128.7,88,129,88.1,129.1z"/>
	<path class="st3" d="M137.8,55.3c-0.6-0.1-1,0.6-1.2,1c-0.2,0.6-0.2,1.3,0.2,1.8c0.4,0.5,0.9,0.9,1.6,0.9c0.5,0,1.5-0.1,1.6-0.8
		c0-0.1-0.1-0.3-0.2-0.3c-0.4,0-0.7,0.3-1.1,0.3c-0.5,0.1-1-0.1-1.3-0.5c-0.3-0.4-0.4-0.9-0.2-1.3c0.1-0.5,0.5-0.7,0.7-1.1
		C137.9,55.4,137.9,55.3,137.8,55.3L137.8,55.3z"/>
	<path class="st3" d="M140,58.3c-0.3-1.1-0.7-2.2-1.3-3.2c-0.3-0.6-1.1-0.1-0.9,0.5c0.5,1,1.1,2,1.8,2.9
		C139.8,58.7,140.1,58.5,140,58.3L140,58.3z"/>
	<path class="st3" d="M138.1,55.7c-0.6,0.3-0.8,1-0.6,1.7c0.2,0.6,1,1.2,1.6,0.7c0.1-0.1,0.1-0.3,0-0.4c-0.2-0.3-0.6-0.3-0.8-0.6
		c-0.3-0.3-0.3-0.8,0-1.2C138.3,55.8,138.1,55.6,138.1,55.7L138.1,55.7z"/>
	<path class="st3" d="M138.1,86c-1.4,0.5-0.9,2.8-0.2,3.7c0.9,1,2.9,1.6,3.9,0.4c0.1-0.1,0.1-0.3,0-0.4c-0.1-0.1-0.2-0.1-0.3-0.1
		c-1.1,0.2-2.1,0.5-3-0.4c-0.4-0.5-0.6-1.1-0.6-1.7c0-0.5,0.3-0.9,0.3-1.4C138.2,86.1,138.2,86,138.1,86C138.1,86,138.1,86,138.1,86
		L138.1,86z"/>
	<path class="st3" d="M141.8,89.6c-0.2-0.7-0.6-1.3-1.1-1.8c-0.6-0.6-1.1-1.2-1.8-1.8c-0.3-0.2-0.6-0.2-0.8,0.1
		c-0.2,0.2-0.2,0.5,0,0.7c0.6,0.6,1.2,1.2,1.8,1.8c0.5,0.5,1.1,0.9,1.8,1.1C141.7,89.8,141.8,89.8,141.8,89.6
		C141.8,89.7,141.8,89.6,141.8,89.6L141.8,89.6z"/>
	<path class="st3" d="M138.4,87.1c-0.2,1,0.3,2.1,1.1,2.6c0.5,0.3,1.1-0.4,0.6-0.8c-0.6-0.4-1-1-1-1.7
		C139.2,86.8,138.5,86.7,138.4,87.1L138.4,87.1z"/>
	<path class="st3" d="M139.5,88.6c-0.1-0.4-0.3-0.7-0.4-1c-0.4-0.4-0.9,0.1-0.7,0.6s0.5,0.5,0.7,0.8S139.6,88.9,139.5,88.6
		L139.5,88.6z"/>
	<path class="st3" d="M126.7,117.1c-1.9,0.9-1.9,4-0.6,5.4s4.5,1.7,5.4-0.3c0.1-0.3-0.2-0.7-0.5-0.5c-1.3,0.8-2.9,1.4-4.2,0.2
		s-0.6-3,0.3-4.2c0.1-0.2,0.1-0.4,0-0.5C127,117,126.9,117,126.7,117.1z"/>
	<path class="st3" d="M131.1,122c-0.5-1.1-1.2-2-2-2.9c-0.6-0.7-1.4-2-2.4-2.2c-0.3-0.1-0.6,0.1-0.6,0.4c0.1,1.1,1.2,1.8,2,2.6
		c0.8,0.9,1.8,1.7,2.8,2.3c0.1,0.1,0.2,0,0.2,0C131.2,122.1,131.2,122.1,131.1,122L131.1,122z"/>
	<path class="st3" d="M126.8,118.5c-0.6,1-0.5,2.2,0.3,3.1c0.6,0.7,2.3,1.6,3.1,0.7c0.2-0.2,0.2-0.6,0-0.8c0,0-0.1-0.1-0.1-0.1
		c-0.3-0.2-0.7-0.2-1-0.2c-0.4-0.1-0.7-0.2-1-0.5c-0.6-0.6-0.8-1.3-0.8-2.1c0-0.1-0.1-0.3-0.3-0.3
		C126.9,118.3,126.8,118.4,126.8,118.5L126.8,118.5z"/>
	<path class="st3" d="M137.4,55c-0.6,0.1-1,0.7-0.9,1.2c0,0.1,0.2,0.1,0.3,0s0.2-0.4,0.3-0.6c0.1-0.2,0.3-0.4,0.5-0.5
		C137.6,55.1,137.5,55,137.4,55L137.4,55z"/>
	<path class="st3" d="M136.4,56.2c-0.4,0.6-0.4,1.5,0.1,2c0.1,0.1,0.4,0,0.3-0.2c-0.1-0.3-0.2-0.5-0.3-0.8
		C136.5,56.8,136.5,56.5,136.4,56.2C136.5,56.2,136.5,56.1,136.4,56.2L136.4,56.2z"/>
	<path class="st3" d="M137.2,56.8c-0.1,0.5-0.2,1.1,0.2,1.5c0.3,0.2,0.8,0.4,1,0c0-0.1,0-0.2-0.1-0.2c0,0,0,0-0.1,0
		c-0.3,0-0.6,0-0.7-0.3c-0.1-0.3-0.1-0.6,0-0.8C137.6,56.7,137.3,56.7,137.2,56.8L137.2,56.8z"/>
	<path class="st3" d="M139.4,57.4c0.1,0.4,0.2,0.7,0.5,1c0.1,0.2,0.4,0,0.3-0.2C140,57.8,139.7,57.6,139.4,57.4
		C139.4,57.3,139.4,57.3,139.4,57.4C139.3,57.4,139.3,57.4,139.4,57.4L139.4,57.4z"/>
	<path class="st3" d="M139.6,57.4c0.1,0.3,0.3,0.5,0.6,0.7c0.1,0.1,0.4,0,0.3-0.2c-0.2-0.3-0.4-0.5-0.6-0.7
		C139.7,57.2,139.5,57.3,139.6,57.4z"/>
	<path class="st3" d="M141.8,89.1c0,0.3,0.3,0.5,0.6,0.6c0.1,0,0.2,0,0.2-0.1c0,0,0-0.1,0-0.1C142.4,89.2,142.2,88.9,141.8,89.1
		L141.8,89.1L141.8,89.1z"/>
	<path class="st3" d="M142.2,89.5c-0.3,0.1-0.6,0.3-0.9,0.5c-0.1,0.1-0.1,0.2-0.1,0.3c0.1,0.1,0.2,0.1,0.3,0.1l0,0
		c0.3-0.2,0.6-0.3,0.8-0.5c0.1,0,0.1-0.1,0.1-0.2C142.3,89.5,142.2,89.5,142.2,89.5L142.2,89.5L142.2,89.5z"/>
	<path class="st3" d="M142.2,89.7c-0.3-0.1-0.4-0.3-0.6-0.5s-0.2-0.1-0.3,0.1c-0.1,0.4,0.4,0.7,0.8,0.8
		C142.3,90,142.4,89.8,142.2,89.7L142.2,89.7z"/>
	<path class="st3" d="M136.6,89c0.3,2.9,4.1,3.4,6,1.7c0.1-0.1-0.1-0.3-0.2-0.2c-0.9,0.9-2.3,1.2-3.5,0.7c-1-0.4-1.7-1.2-2.2-2.2
		C136.8,88.9,136.6,89,136.6,89z"/>
	<path class="st3" d="M126.2,116.5c-2.6,1.9-2.8,7,1.2,7.3c0.1,0,0.1-0.2,0-0.2c-1.5-0.2-2.6-1.4-2.8-2.8
		C124.2,119.2,125.1,117.8,126.2,116.5C126.2,116.6,126.2,116.5,126.2,116.5L126.2,116.5z"/>
	<path class="st3" d="M136.5,55.2c-2.7,2.2,0.5,6.3,3.3,4.3c0,0,0.1-0.1,0-0.1s-0.1-0.1-0.1,0c-1.3,0.7-2.9,0.2-3.5-1.1
		C135.7,57.2,135.8,56.1,136.5,55.2C136.6,55.2,136.6,55.2,136.5,55.2C136.5,55.1,136.5,55.1,136.5,55.2L136.5,55.2L136.5,55.2z"/>
	<path class="st3" d="M140.1,63.2c-0.2,0.2-0.4,0.4-0.5,0.7c-0.2,0.4-0.3,0.7-0.5,1.1c-0.1,0.1,0,0.4,0.2,0.3c0.7,0,1.3-0.1,1.9-0.4
		c0.1-0.1,0.1-0.2,0-0.2c0,0,0,0-0.1,0c-0.6,0-1.2,0.1-1.8,0.2l0.2,0.3C139.8,64.6,140.3,63.8,140.1,63.2L140.1,63.2L140.1,63.2z"/>
	<path class="st3" d="M141.2,64.7c0-0.5-0.6-0.9-0.9-1.2c-0.1-0.1-0.2-0.1-0.3,0c-0.1,0.1-0.1,0.2,0,0.3
		C140.3,64.2,140.7,64.8,141.2,64.7C141.2,64.8,141.2,64.8,141.2,64.7L141.2,64.7z"/>
	<path class="st3" d="M140.3,63.9c-0.2,0.2-0.3,0.4-0.4,0.6c0,0.1,0,0.2,0.1,0.2c0.1,0,0.1,0,0.2-0.1c0.1-0.2,0.2-0.4,0.2-0.7
		c0-0.1,0-0.1-0.1-0.1C140.3,63.8,140.3,63.9,140.3,63.9z"/>
	<path class="st3" d="M141,64.6c-0.4,0.5-0.7,1.1-0.9,1.7c-0.1,0.1,0,0.3,0.1,0.3c0,0,0.1,0,0.1,0c0.6,0.1,1.3,0.1,1.9,0
		c0.1,0,0.1-0.1,0.1-0.2c0-0.1-0.1-0.1-0.1-0.1c-0.6-0.1-1.3-0.2-1.9-0.1l0.2,0.3c0.3-0.6,0.6-1.2,0.7-1.8
		C141.2,64.6,141.1,64.5,141,64.6L141,64.6z"/>
	<path class="st3" d="M142.2,66.3c-0.3-0.4-0.6-0.9-0.8-1.4c-0.1-0.3-0.6,0-0.4,0.2c0.1,0.3,0,0.6-0.3,0.8c0,0,0,0,0,0l0.3,0.4
		c0.1-0.1,0.2-0.3,0.2-0.5c0-0.1,0-0.2-0.1-0.2l-0.1-0.1c0,0-0.1,0-0.2,0c-0.2,0.1-0.1,0.2-0.3,0.4c-0.1,0.1-0.1,0.2,0,0.3
		c0.1,0.1,0.2,0.1,0.3,0l0,0c0.5-0.3,0.7-0.9,0.5-1.4c0,0,0,0,0,0l-0.4,0.2c0.2,0.5,0.6,1,1,1.4C142.1,66.6,142.3,66.5,142.2,66.3
		L142.2,66.3z"/>
	<path class="st3" d="M140.1,64.4c0.1,0.4,0.1,0.9,0.6,1.1c0.1,0,0.1,0,0.1,0c0,0,0,0,0,0c0.1-0.4-0.3-0.8-0.5-1.1
		C140.3,64.2,140.1,64.3,140.1,64.4L140.1,64.4z"/>
	<path class="st3" d="M140.9,64.6c0,0.5,0.1,1,0.4,1.4c0.2,0.3,0.5,0.9,0.9,0.9c0.1,0,0.1-0.1,0.1-0.1c0-0.4-0.4-0.7-0.6-1
		c-0.2-0.4-0.4-0.8-0.7-1.2C141,64.6,140.9,64.5,140.9,64.6C140.9,64.6,140.9,64.6,140.9,64.6z"/>
	<path class="st3" d="M141.9,66.3c0.4,0.7,1,1.2,1.6,1.7c0.3,0.2,0.5-0.3,0.2-0.4h-0.1c-0.1,0-0.1,0-0.2,0.1l0,0h0.4
		c-0.5-0.5-1.1-1-1.6-1.6C142,65.9,141.8,66.1,141.9,66.3L141.9,66.3z"/>
	<path class="st3" d="M143.7,67.8c-0.5-0.2-1-0.3-1.5-0.2c-0.1,0-0.1,0.1-0.1,0.2c0,0,0,0.1,0.1,0.1c0.5,0.2,1,0.3,1.5,0.2
		C143.9,68.1,143.9,67.8,143.7,67.8z"/>
	<path class="st3" d="M142.6,67.7c0.1-0.1,0.1-0.3-0.1-0.5c0-0.1-0.1-0.1-0.1-0.1c0,0-0.1,0-0.1,0.1c-0.1,0.2,0,0.3,0.1,0.5
		C142.4,67.7,142.5,67.8,142.6,67.7C142.6,67.7,142.6,67.7,142.6,67.7L142.6,67.7z"/>
	<path class="st3" d="M139.9,68c0.2-0.1,0.4-0.3,0.6-0.4c0.1,0,0.1-0.2,0.1-0.3c0-0.1-0.1-0.1-0.2-0.1c-0.8-0.1-1.6-0.1-2.5-0.1
		c-0.1,0-0.2,0.1-0.2,0.2c0,0.1,0.1,0.2,0.2,0.2c0.8,0,1.6,0,2.5,0l-0.1-0.3c-0.2,0.2-0.3,0.4-0.5,0.6S139.8,68,139.9,68L139.9,68z"
		/>
	<path class="st3" d="M137.9,67.4c0-0.3,0-0.5,0.1-0.8c0.1-0.1,0.1-0.2,0.1-0.4c0-0.1-0.1-0.1-0.1-0.1c0,0,0,0,0,0
		c-0.6,0.1-0.6,0.9-0.3,1.3c0,0.1,0.1,0.1,0.2,0.1C137.9,67.5,137.9,67.5,137.9,67.4L137.9,67.4z"/>
	<path class="st3" d="M138,66.6c0.5,0,0.9-0.1,1.3-0.3c0.3-0.1,0.2-0.5-0.1-0.4c-0.5,0.1-0.9,0.3-1.3,0.6
		C137.9,66.5,137.9,66.6,138,66.6L138,66.6z"/>
	<path class="st3" d="M139,66c-0.3,0.3-0.8,0.5-0.9,0.9c0,0.1,0.1,0.2,0.2,0.2c0.4-0.1,0.7-0.6,1-0.8S139.2,65.9,139,66L139,66z"/>
	<path class="st3" d="M138.1,66.8c-0.2,0.3,0,0.8,0.4,0.7c0.1,0,0.1-0.1,0.1-0.1c0,0,0,0-0.1-0.1c-0.2-0.1-0.3-0.2-0.3-0.4
		C138.2,66.8,138.1,66.8,138.1,66.8L138.1,66.8z"/>
	<path class="st3" d="M138.3,67.3c0.5,0.3,1.1,0.4,1.6,0.3c0.2,0,0.2-0.3,0-0.3s-0.5,0-0.7-0.1c-0.3,0-0.6-0.1-0.9-0.1
		C138.3,67.2,138.3,67.3,138.3,67.3C138.3,67.3,138.3,67.3,138.3,67.3L138.3,67.3z"/>
	<path class="st3" d="M139.4,67.8c0.3,0.2,0.7,0.2,1,0c0.1,0,0.1-0.1,0-0.2c0,0-0.1-0.1-0.1-0.1c-0.3,0-0.6,0-0.9,0
		c0,0-0.1,0-0.1,0.1C139.3,67.6,139.3,67.7,139.4,67.8L139.4,67.8z"/>
	<path class="st3" d="M144.7,94.4L144.7,94.4c-0.1,0-0.2,0-0.2,0.1c-0.2,0.3-0.4,0.7-0.6,1c-0.1,0.1,0,0.2,0.1,0.3c0,0,0.1,0,0.1,0
		c0.6,0,1.1-0.2,1.6-0.5c0.1-0.1,0.1-0.2,0.1-0.3c0,0,0,0-0.1-0.1c-0.3-0.2-0.5-0.5-0.9-0.4c-0.1,0-0.1,0.1-0.1,0.1c0,0,0,0,0,0
		c0.1,0.3,0.4,0.5,0.8,0.6V95c-0.4,0.2-0.9,0.4-1.4,0.4l0.2,0.3c0.2-0.4,0.4-0.7,0.5-1.1c0-0.1,0-0.1,0-0.2
		C144.8,94.5,144.8,94.5,144.7,94.4L144.7,94.4z"/>
	<path class="st3" d="M144.8,95l-0.2,0.3c-0.1,0.2,0.1,0.3,0.2,0.2c0.1-0.1,0.1-0.2,0.2-0.2C145.2,95,144.9,94.8,144.8,95z"/>
	<path class="st3" d="M145.9,95.6c-0.4,0.5-0.7,1-1,1.6c-0.1,0.1,0,0.2,0.1,0.3c0.1,0,0.1,0,0.2,0l1.8-0.4c0.1,0,0.2-0.2,0.1-0.3
		c0-0.1-0.1-0.1-0.1-0.1c-0.3-0.2-0.6-0.5-0.8-0.8c-0.2-0.2-0.5,0.1-0.3,0.3c0.3,0.3,0.6,0.6,0.9,0.8l0.1-0.4l-1.8,0.5l0.2,0.3
		c0.3-0.5,0.6-1.1,0.8-1.7C146,95.6,145.9,95.5,145.9,95.6L145.9,95.6z"/>
	<path class="st3" d="M146.2,96.2c-0.2,0.1-0.4,0.2-0.6,0.3s0.1,0.6,0.2,0.3c0.1-0.2,0.3-0.3,0.4-0.4
		C146.4,96.3,146.3,96.2,146.2,96.2L146.2,96.2z"/>
	<path class="st3" d="M146.6,98.4c0.6-0.1,1.2-0.3,1.7-0.5c0.1-0.1,0.1-0.2,0-0.3c0,0,0,0,0,0c-0.3-0.4-0.8-0.7-1.2-0.8
		c-0.2,0-0.3,0.2-0.2,0.3c0.4,0.3,0.8,0.5,1.1,0.8l0.1-0.3c-0.6,0.2-1.1,0.4-1.6,0.8c0,0,0,0.1,0,0.1
		C146.5,98.4,146.5,98.4,146.6,98.4L146.6,98.4z"/>
	<path class="st3" d="M147.1,97l-0.4,0.9c-0.1,0.1-0.1,0.2,0,0.3c0.1,0.1,0.2,0.1,0.3,0c0,0,0-0.1,0-0.1c0.1-0.3,0.2-0.6,0.3-0.9
		C147.4,97,147.2,96.9,147.1,97L147.1,97z"/>
	<path class="st3" d="M147.1,97.3c-0.1,0.1-0.3,0.3-0.4,0.4c-0.1,0.1,0.1,0.2,0.2,0.2c0.2-0.1,0.3-0.2,0.4-0.4
		c0.1-0.1,0.1-0.1,0-0.2S147.1,97.2,147.1,97.3z"/>
	<path class="st3" d="M147.4,97.7c0.1,0,0.2,0,0.3,0v-0.2c-0.2,0-0.4,0.1-0.5,0.2c-0.1,0.1,0.1,0.3,0.2,0.2l0.3-0.2
		c0.2,0,0.1-0.3-0.1-0.2h-0.3c-0.1,0-0.1,0-0.1,0.1C147.3,97.6,147.3,97.6,147.4,97.7C147.4,97.6,147.4,97.6,147.4,97.7L147.4,97.7z
		"/>
	<path class="st3" d="M143.1,97c0.4,0.1,0.7,0.1,1.1,0l-0.2-0.3l-0.8,1.3c-0.1,0.1,0,0.2,0.1,0.3c0.1,0.1,0.2,0,0.3-0.1l0.8-1.3
		c0.1-0.2-0.1-0.3-0.2-0.3C143.8,96.7,143.3,96.6,143.1,97C143.1,96.9,143.1,97,143.1,97C143.1,97,143.1,97,143.1,97L143.1,97z"/>
	<path class="st3" d="M143.1,97.1c0,0.3,0.1,0.6,0.3,0.9c0,0.1,0.1,0.1,0.2,0c0,0,0.1-0.1,0.1-0.1c0-0.3-0.1-0.6-0.2-0.9
		c0-0.1-0.1-0.1-0.2-0.1C143.2,96.9,143.1,97,143.1,97.1L143.1,97.1z"/>
	<path class="st3" d="M143.2,97.3c0,0.5,0.1,1.4,0.8,1.5c0.1,0,0.1-0.1,0.1-0.1c-0.1-0.2-0.2-0.3-0.3-0.5c-0.2-0.3-0.2-0.6-0.2-0.8
		c0-0.1-0.1-0.2-0.2-0.2C143.3,97.1,143.2,97.2,143.2,97.3z"/>
	<path class="st3" d="M143.7,98.6c0.4,0.3,1,0.2,1.4-0.1c0.2-0.1,0-0.4-0.2-0.3c-0.2,0.1-0.4,0.1-0.6,0.2c-0.2,0-0.4,0-0.6,0.1
		C143.7,98.5,143.7,98.5,143.7,98.6C143.7,98.6,143.8,98.6,143.7,98.6L143.7,98.6z"/>
	<path class="st3" d="M129.1,129.4c-0.6,0.5-1.2,1.1-1.7,1.7c-0.1,0.1-0.1,0.2,0,0.3c0.1,0.1,0.2,0.1,0.2,0.1
		c0.7-0.1,1.4-0.2,2.1-0.3c0.2,0,0.4-0.3,0.2-0.4s-0.4-0.4-0.7-0.6s-0.3-0.2-0.3-0.3s0-0.1,0-0.2s0.3-0.3,0.1-0.6s-0.5,0.1-0.4,0.3
		l0.6,1.2c0.1,0.3,0.6,0,0.4-0.2l-0.6-1.2l-0.4,0.3v0.1l-0.1-0.2c0,0.1-0.2,0.1-0.3,0.2c-0.1,0.1-0.1,0.3,0,0.5
		c0.3,0.5,0.7,0.9,1.2,1.2l0.2-0.4c-0.8,0-1.5,0.1-2.3,0.3l0.2,0.4C128.4,130.9,128.8,130.2,129.1,129.4
		C129.2,129.4,129.1,129.3,129.1,129.4L129.1,129.4z"/>
	<path class="st3" d="M129.2,130.1c-0.3,0-0.5,0.1-0.8,0.3c-0.2,0.1,0,0.5,0.2,0.4C128.9,130.7,129.1,130.5,129.2,130.1
		C129.3,130.2,129.3,130.2,129.2,130.1C129.2,130.2,129.2,130.2,129.2,130.1z"/>
	<path class="st3" d="M130.4,131.4c-0.4,0.4-0.7,0.8-0.9,1.4c-0.1,0.1,0,0.2,0.1,0.3c0,0,0.1,0,0.1,0c0.8,0.1,1.5,0.1,2.3,0
		c0.1,0,0.2-0.1,0.2-0.2c0-0.1-0.1-0.1-0.2-0.2c-0.8-0.1-1.5-0.1-2.3,0l0.2,0.3c0.3-0.5,0.5-1,0.6-1.5
		C130.5,131.4,130.4,131.4,130.4,131.4L130.4,131.4z"/>
	<path class="st3" d="M131.9,132.8c-0.2-0.3-0.4-0.5-0.7-0.6c-0.4-0.3-0.7-0.6-1-0.9s-0.6,0.3-0.2,0.4l0.1,0.1c0.1,0,0.1,0,0.1-0.1
		c0,0,0,0,0,0v-0.2l-0.4,0.2c0.3,0.3,0.6,0.6,1,0.9c0.3,0.3,0.7,0.4,1.1,0.4C131.9,132.9,132,132.9,131.9,132.8
		C132,132.9,132,132.8,131.9,132.8L131.9,132.8z"/>
	<path class="st3" d="M130.2,132.7c0.3-0.1,0.6-0.1,0.8-0.3c0,0,0-0.1,0-0.2c0,0,0,0-0.1,0c-0.3-0.1-0.6,0.1-0.9,0.1
		c-0.1,0-0.2,0.2-0.1,0.3C130,132.7,130.1,132.7,130.2,132.7z"/>
	<path class="st3" d="M130.2,131.4c0.3,0.4,0.6,1,1.1,1c0.1,0,0.1-0.1,0.1-0.1c0,0,0,0,0,0c-0.1-0.4-0.6-0.8-0.9-1.1
		S130.1,131.2,130.2,131.4L130.2,131.4z"/>
	<path class="st3" d="M130.9,134c0.3,0.1,0.6,0.1,0.9,0c0.4-0.1,0.9-0.1,1.3-0.1s0.3-0.6-0.1-0.5s-0.3,0.4,0,0.5l0.1-0.5
		c-0.8-0.1-1.5,0.1-2.2,0.4C130.8,133.9,130.8,134,130.9,134C130.8,134,130.9,134,130.9,134L130.9,134z"/>
	<path class="st3" d="M133,133.6c-0.4-0.5-0.9-0.8-1.5-1c-0.1,0-0.2,0-0.3,0.2c0,0.1,0,0.1,0.1,0.2c0.5,0.4,1,0.7,1.6,0.8
		C133,133.7,133,133.7,133,133.6L133,133.6z"/>
	<path class="st3" d="M131.9,133.2c-0.2-0.1-0.5,0-0.7,0.1c-0.1,0-0.1,0.1,0,0.2c0,0,0,0,0,0c0.2,0.1,0.4,0.1,0.7,0.1
		c0.1,0,0.2-0.1,0.2-0.3C132,133.3,132,133.2,131.9,133.2z"/>
	<path class="st3" d="M125.7,134.4c0.5,0.1,0.9,0.1,1.4,0.1c0.5,0,1-0.1,1.4-0.1c0.1,0,0.2-0.1,0.2-0.2c0-0.1-0.1-0.2-0.2-0.2
		c-0.5,0-1.1,0-1.6,0.1c-0.4,0-0.8,0.1-1.2,0.2C125.6,134.3,125.7,134.4,125.7,134.4L125.7,134.4z"/>
	<path class="st3" d="M126,134.4c0.1-0.4,0.1-0.7,0.3-1.1c0.2-0.3,0.3-0.7,0.5-1c0-0.1,0-0.2-0.1-0.2c0,0,0,0-0.1,0
		c-0.4,0.1-0.6,0.6-0.8,1c-0.1,0.4-0.1,0.9,0.1,1.3C125.9,134.5,126,134.4,126,134.4L126,134.4z"/>
	<path class="st3" d="M126.3,132.9c0.4,0.1,0.8,0.2,1.2,0.2c0.2,0,0.3-0.4,0.1-0.4c-0.4-0.1-0.8-0.1-1.3,0
		C126.1,132.6,126.2,132.8,126.3,132.9L126.3,132.9z"/>
	<path class="st3" d="M127.4,132.6c-0.5,0.2-1,0.6-1.2,1.2c-0.1,0.1,0,0.2,0.1,0.3c0.1,0,0.2,0,0.3-0.1c0.3-0.4,0.6-0.9,0.9-1.3
		C127.6,132.7,127.6,132.7,127.4,132.6C127.5,132.6,127.5,132.6,127.4,132.6z"/>
	<path class="st3" d="M126.4,133c-0.1,0.3-0.1,0.6-0.1,0.9c0,0.2,0.3,0.3,0.3,0.1c0-0.3,0-0.6,0-0.9
		C126.6,132.9,126.4,132.9,126.4,133L126.4,133z"/>
	<path class="st3" d="M126.4,133.9c0.5,0.2,1,0.2,1.5,0.1c0.2-0.1,0.1-0.3-0.1-0.3c-0.4,0.1-0.9,0-1.3-0.1
		C126.3,133.6,126.2,133.9,126.4,133.9L126.4,133.9z"/>
	<path class="st3" d="M126.6,133.2c0-0.1,0.1-0.2,0.1-0.4c0-0.1,0-0.1-0.1-0.1c-0.2,0.1-0.2,0.3-0.2,0.5
		C126.5,133.2,126.5,133.2,126.6,133.2C126.6,133.2,126.6,133.2,126.6,133.2L126.6,133.2z"/>
	<path class="st9" d="M67.7,27.4c0.6-1.4-0.3-3.1-0.9-4.3c-0.8-1.6-2-3-3.3-4.1c-1.1-0.9-2.4,0.9-1.2,1.5c0.3,0.2,0.6,0.8,0.8,1.1
		c0.2,0.1,0.4,0.1,0.6,0c0.1-0.1,0.1-0.2,0.1-0.3c0-0.4-0.2-1,0-1.4L62,20.4c1.2,1,2.2,2.1,3,3.5c0.6,1.1,0.7,2.8,1.6,3.7
		c0.3,0.3,0.7,0.3,1,0C67.6,27.5,67.7,27.4,67.7,27.4L67.7,27.4z"/>
	<path class="st9" d="M63,21.9c-0.6-0.2-1.2-0.5-1.8-0.7c-0.7-0.2-1.4-0.5-2-1c-0.3-0.2-0.6-0.2-0.9,0.1c-0.1,0.1-0.2,0.3-0.1,0.5
		c0.1,1,0.3,2.6,1.1,3.3c0.1,0.1,0.3,0.1,0.4,0c0,0,0.1-0.1,0.1-0.1c0.1-0.5,0-0.9-0.1-1.4c-0.1-0.7-0.2-1.3-0.2-2l-0.8,0.6
		c0.8,0.2,1.5,0.6,2.2,0.9c0.7,0.2,1.4,0.3,2.2,0.4C63.3,22.3,63.3,22,63,21.9L63,21.9z"/>
	<path class="st9" d="M59.3,24.5c-1.7-0.6-3.4-1-5.1-1.5c-0.4-0.1-0.7,0.1-0.8,0.5c-0.1,0.2,0,0.5,0.2,0.6c0.6,0.8,1.2,1.5,1.8,2.3
		c0.5,0.8,1.1,1.4,1.9,1.8c0.2,0.1,0.4,0,0.5-0.1c0-0.1,0.1-0.2,0-0.3c-0.2-0.8-0.7-1.6-1.3-2.2c-0.7-0.8-1.3-1.6-2-2.5l-0.7,1.1
		c1.8,0.3,3.5,0.6,5.3,0.7C59.5,25.1,59.5,24.6,59.3,24.5L59.3,24.5z"/>
	<path class="st9" d="M57.7,28.1c-2.1,0.5-4.3,1-6.4,1.5c-0.4,0.1-0.6,0.5-0.5,0.9c0.1,0.2,0.3,0.4,0.5,0.5l3.1,0.8
		c0.9,0.3,1.9,0.5,2.8,0.6c0.4,0,0.7-0.3,0.6-0.7c0-0.2-0.1-0.4-0.3-0.5c-1.7-0.9-4-1.1-5.9-1.5v1.4c2.1-0.7,4.1-1.5,6.2-2.1
		c0.2-0.1,0.3-0.2,0.2-0.4C58.1,28.2,57.9,28,57.7,28.1z"/>
	<path class="st9" d="M55.2,32.4c-1.4,1.1-3,2.1-4.6,2.9c-0.3,0.2-0.4,0.6-0.2,1c0.1,0.1,0.2,0.2,0.4,0.3c1.8,0.3,4.2,0.6,5.7-0.6
		c0.3-0.3,0-0.8-0.3-0.8c-0.8,0-1.6,0.1-2.4,0.2c-0.9,0.1-1.8,0-2.6-0.1l0.2,1.3c1.7-0.9,3.2-2.1,4.7-3.3
		C56.5,32.8,55.7,32,55.2,32.4z"/>
	<path class="st9" d="M56,36.8c-1.4,1-2.8,2.1-4,3.2c-0.7,0.6,0.1,1.4,0.8,1.3c1.1-0.2,2.2-0.3,3.2-0.5c0.9,0,1.7-0.3,2.4-0.9
		c0.2-0.2,0.2-0.4,0-0.6c0,0-0.1-0.1-0.1-0.1c-0.8-0.3-1.7-0.3-2.6,0c-1.1,0.2-2.3,0.4-3.4,0.6l0.8,1.3c1.2-1.2,2.4-2.5,3.4-3.8
		C56.7,37,56.3,36.7,56,36.8L56,36.8z"/>
	<path class="st9" d="M58,41.1c-1.4,0.6-2.6,1.4-3.8,2.4c-0.3,0.3-0.3,0.8,0,1.1c0.1,0.1,0.2,0.2,0.4,0.2c2,0.3,5.3,0.2,6.6-1.7
		c0.2-0.3,0.1-0.7-0.2-0.8c-0.1-0.1-0.2-0.1-0.3-0.1c-0.9,0.2-1.8,0.5-2.7,0.8c-1,0.3-2.1,0.3-3.2,0.1l0.6,1.4
		c1.1-0.9,2.2-1.9,3-3.1C58.5,41.3,58.3,41,58,41.1L58,41.1z"/>
	<path class="st9" d="M54.2,58.3c-0.9-1.2-1.9-2.3-3-3.3c-1-0.8-2.2-2-3.5-2.3c-0.5-0.1-0.9,0.6-0.4,0.9c0.9,0.5,1.3,1.5,2,2.2
		c0.1,0.1,0.2,0.1,0.3,0c0.1-0.1,0.1-0.1,0.1-0.2c-0.2-1.1-1.1-1.8-1.7-2.6l-0.9,0.5c0.7,1.1,2.1,1.7,3.1,2.5s2.3,1.8,3.4,2.7
		C53.9,58.9,54.4,58.6,54.2,58.3L54.2,58.3z"/>
	<path class="st9" d="M47.5,53.8c0.2,0.8,0.5,1.7,0.8,2.5c0.1,0.7,0.4,1.3,0.8,1.9c0.1,0.1,0.2,0.1,0.2,0c0,0,0,0,0-0.1
		c0-0.7-0.1-1.4-0.4-2c-0.3-0.8-0.6-1.6-0.8-2.5C48,53.3,47.4,53.4,47.5,53.8L47.5,53.8z"/>
	<path class="st9" d="M49.2,57.9c-2.7-0.3-5.3-0.3-8,0.1c-0.3,0.1-0.3,0.5,0,0.6c1.9,0.6,3.7,1.6,5.2,2.9c0.3,0.3,0.8-0.2,0.5-0.5
		c-1.6-1.5-3.5-2.5-5.5-3.1l-0.1,0.7c2.6-0.2,5.3-0.2,7.9-0.3c0.1,0,0.2-0.1,0.2-0.3C49.4,58,49.3,57.9,49.2,57.9L49.2,57.9z"/>
	<path class="st9" d="M46.2,61.3c-2.2,0.5-4.5,0.9-6.7,1.5c-0.2,0.1-0.4,0.3-0.3,0.6c0,0.1,0.1,0.2,0.2,0.3c1.8,1,4.1,2.4,6.2,2.2
		c0.2,0,0.4-0.2,0.4-0.4c0-0.2-0.1-0.3-0.3-0.4c-0.9-0.3-1.9-0.4-2.9-0.7c-1.1-0.3-2.1-0.8-3-1.5l-0.1,0.8c2.2-0.5,4.4-1.2,6.6-2
		c0.1,0,0.2-0.2,0.1-0.3C46.3,61.3,46.2,61.2,46.2,61.3L46.2,61.3z"/>
	<path class="st9" d="M45.6,66.1c-2,2-4.4,3.7-7,4.8c-0.5,0.2-0.2,1,0.3,1c1.8,0,4,0.4,5.7-0.3c0.1-0.1,0.2-0.3,0.1-0.4
		c0-0.1-0.1-0.1-0.2-0.1c-1.8-0.3-3.7,0.1-5.5-0.2v1c2.8-1.1,5.2-3,7-5.4C46.2,66.1,45.8,65.8,45.6,66.1L45.6,66.1z"/>
	<path class="st9" d="M43.6,71.3c-1.7,2.1-3.7,4-5.9,5.5c-0.3,0.2-0.4,0.6-0.2,0.8c0.1,0.2,0.3,0.3,0.5,0.3c2.5,0,5.7,0,7.9-1.3
		c0.4-0.2,0.3-1-0.3-1c-2.6,0.2-5,1.1-7.7,1.1l0.3,1.1c2.3-1.6,4.3-3.6,5.9-6C44.5,71.4,43.9,70.9,43.6,71.3z"/>
	<path class="st9" d="M45.3,76.3c-1.4,2.1-3.2,3.9-5.3,5.5c-0.3,0.2-0.4,0.6-0.2,0.9c0.1,0.2,0.3,0.3,0.5,0.3c2.7,0,5.9-0.4,8-2.2
		c0.3-0.3,0-0.7-0.4-0.7c-2.6,0.4-4.9,1.4-7.6,1.7l0.4,1c2.1-1.7,3.8-3.7,5.1-6.1c0.1-0.2,0-0.4-0.2-0.5
		C45.6,76.1,45.4,76.2,45.3,76.3L45.3,76.3z"/>
	<path class="st9" d="M46.7,80.5c-0.7,0.6-1.5,1.2-2.2,1.8c-0.3,0.2-0.4,0.6-0.2,0.9c0.1,0.2,0.3,0.3,0.5,0.3c1.1,0,2.2-0.3,3.3-0.7
		c0.8-0.4,1.9-0.8,2.2-1.7c0.1-0.2-0.1-0.4-0.3-0.5c0,0-0.1,0-0.1,0c-0.8,0-1.7,0.7-2.5,1c-0.9,0.3-1.9,0.6-2.8,0.8l0.7,0.9
		c0.6-0.7,1.2-1.5,1.8-2.2c0.1-0.1,0.1-0.3-0.1-0.4C46.9,80.4,46.8,80.4,46.7,80.5L46.7,80.5z"/>
	<path class="st9" d="M45.2,89.2c-1.5-0.8-3.2-1.2-4.9-1.3c-0.3,0-0.6,0.3-0.6,0.6c0,0.1,0,0.1,0,0.2c0.3,0.8,0.8,1.4,1.6,1.8
		c0.4,0.2,0.7-0.4,0.4-0.7c-0.4-0.4-0.7-0.8-0.9-1.3l-0.6,0.7c1.6,0,3.2,0.1,4.7,0.5C45.2,89.6,45.4,89.3,45.2,89.2z"/>
	<path class="st9" d="M41.2,90.6l-1.4,0.2c-0.4,0-0.9,0.1-1.3,0.3c-0.1,0.1-0.2,0.3-0.1,0.4c0.1,0.1,0.2,0.2,0.3,0.2
		c0.4,0,0.9-0.1,1.3-0.3c0.5-0.2,0.9-0.3,1.3-0.5c0.1,0,0.2-0.1,0.1-0.2C41.3,90.6,41.2,90.5,41.2,90.6L41.2,90.6z"/>
	<path class="st9" d="M39.8,110.1c-2.6,2.2-5.4,4.2-8.4,5.9l0.9,0.9c1.4-2.2,3.4-4,4.8-6.2c0.2-0.3-0.2-0.6-0.4-0.3
		c-2,1.8-3.4,4-5.4,5.8c-0.6,0.5,0.2,1.3,0.8,1c3.3-1.4,6.3-3.6,8.6-6.3C41,110.2,40.2,109.8,39.8,110.1L39.8,110.1z"/>
	<path class="st9" d="M34.1,110.5c-3,0.8-6.1,1.3-9.3,1.6l0.5,1.2c1.9-0.9,4.1-2,5.1-3.9c0.1-0.1,0-0.2-0.1-0.3c-0.1,0-0.1,0-0.2,0
		c-1.9,0.9-3.4,2.2-5.3,3c-0.6,0.2-0.6,1.3,0.2,1.3c3.2-0.3,6.3-0.9,9.3-2c0.2-0.1,0.3-0.4,0.3-0.6
		C34.6,110.6,34.3,110.5,34.1,110.5z"/>
	<path class="st9" d="M29.8,108.6c-1.9-0.9-3.7-2-5.4-3.1l-0.2,1.2c2.2-0.6,5.2-1.7,6.3-3.8c0.1-0.2-0.1-0.6-0.4-0.5
		c-1,0.5-1.9,1-2.8,1.6c-1.1,0.6-2.3,1.1-3.5,1.4c-0.4,0.1-0.6,0.5-0.5,0.8c0,0.2,0.2,0.3,0.3,0.4c1.8,1.1,3.8,2,5.8,2.7
		C29.9,109.5,30.2,108.8,29.8,108.6L29.8,108.6z"/>
	<path class="st9" d="M30,102.2c-0.7-0.4-1.3-1-1.8-1.7v0.7c0.2-0.2,0.3-0.5,0.3-0.8c0-0.1-0.1-0.3-0.2-0.3c-0.4-0.1-0.7,0-1,0.2
		c-0.3,0.2-0.4,0.6-0.2,0.9c0,0,0,0.1,0.1,0.1c0.6,0.8,1.5,1.3,2.5,1.7c0.2,0,0.4-0.1,0.5-0.3C30.2,102.4,30.1,102.2,30,102.2
		L30,102.2z"/>
	<path class="st9" d="M28.6,99.9l0.9-0.9c0.2-0.2,0.5-0.4,0.6-0.8c0-0.1,0-0.2-0.1-0.2c-0.4,0-0.5,0.2-0.8,0.5l-1,0.9
		C27.9,99.8,28.3,100.2,28.6,99.9L28.6,99.9z"/>
	<path class="st10" d="M53.9,58.9c-0.3-1.6-2.4-2.8-3.7-3.3c-0.6-0.3-1.1,0.8-0.5,1.1c0.7,0.3,1.4,0.8,2,1.2c0.5,0.5,1.1,1,1.7,1.4
		c0.2,0.1,0.4,0,0.5-0.1C53.9,59.1,53.9,59,53.9,58.9L53.9,58.9z"/>
	<path class="st10" d="M49.3,55.8c-0.1,1-0.2,2-0.1,2.9l0.4-0.4c-1.7-0.1-3.3-0.1-5,0.1c-0.2,0-0.2,0.2-0.2,0.3c0,0,0,0.1,0.1,0.1
		c0.7,0.5,1.3,1.1,1.9,1.7c0.5,0.6,1,1.1,1.5,1.5c0.1,0.1,0.3,0,0.4-0.1c0-0.1,0-0.1,0-0.2c-0.5-1.4-2.2-2.6-3.4-3.3L44.5,59
		c1.7,0.2,3.3,0.2,5,0.1c0.2,0,0.4-0.2,0.4-0.4c0-1,0-2-0.2-2.9c0-0.1-0.2-0.2-0.3-0.1C49.4,55.7,49.3,55.7,49.3,55.8z"/>
	<path class="st10" d="M47.9,61.6c-2.1-0.1-4.3,0.2-6.2,1.1c-0.2,0.1-0.3,0.4-0.1,0.5c0,0.1,0.1,0.1,0.1,0.1
		c1.5,0.8,2.8,1.8,4.2,2.7c0.5,0.3,0.8-0.4,0.4-0.7c-1.3-1-2.8-1.8-4.3-2.7l-0.1,0.7c2-0.4,4-0.8,6-1.4c0.1,0,0.2-0.2,0.2-0.3
		C48.1,61.7,48,61.6,47.9,61.6L47.9,61.6z"/>
	<path class="st10" d="M46.2,65.8c-1.7,1.5-3.3,3.2-5,4.7c-0.1,0.2-0.1,0.4,0,0.6c0,0,0.1,0.1,0.2,0.1c1.3,0.2,2.5,0.4,3.8,0.6
		c0.4,0,0.5-0.7,0.1-0.7c-1.2-0.2-2.5-0.4-3.7-0.6l0.2,0.6c1.8-1.4,3.5-3.1,4.8-5C46.8,65.9,46.4,65.6,46.2,65.8L46.2,65.8z"/>
	<path class="st10" d="M44.6,71c-1.6,1.5-3,3.1-4.3,4.9c-0.1,0.2,0,0.4,0.2,0.5c0.1,0,0.1,0,0.2,0c1.7,0,3.4-0.1,5.1-0.3
		c0.5-0.1,0.3-0.7-0.1-0.8c-1.7,0-3.3,0.1-5,0.3l0.3,0.7c1.5-1.6,2.9-3.2,4.2-5C45.2,71.1,44.8,70.8,44.6,71L44.6,71z"/>
	<path class="st10" d="M45.7,75.8c-0.9,1.4-1.7,2.9-2.5,4.4c-0.1,0.2,0,0.4,0.2,0.6c0.1,0,0.1,0.1,0.2,0.1c1.3,0,2.5-0.1,3.8-0.3
		c1,0,2-0.2,2.9-0.5c0.2-0.1,0.2-0.3,0.1-0.5c0-0.1-0.1-0.2-0.2-0.2c-1.1-0.1-2.3-0.1-3.3,0.2c-1.1,0.1-2.3,0.2-3.4,0.5l0.5,0.6
		c0.8-1.5,1.6-3,2.2-4.6C46.2,75.8,45.9,75.7,45.7,75.8L45.7,75.8z"/>
	<path class="st10" d="M43.8,89.7c-0.4-0.7-1.6-1-2-0.1c0,0.1-0.1,0.3-0.1,0.4c-0.1,0.6-0.1,0.6-0.8,0.8c-1.1,0.2-2.2,0.4-3.2,0.7
		c-0.2,0.1-0.2,0.5,0.1,0.4c0.8-0.1,1.5-0.3,2.2-0.4c0.7,0,1.4-0.2,2-0.5c0.4-0.3,0.2-0.3,0.3-0.6s-0.4,0,0.2-0.5
		c0.4-0.3,0.6-0.1,1-0.1C43.7,89.8,43.8,89.8,43.8,89.7C43.8,89.7,43.8,89.7,43.8,89.7L43.8,89.7z"/>
	<path class="st10" d="M30.1,97.7c-0.7,0.9-1.3,1.9-2,2.8c-0.1,0.1,0,0.3,0.1,0.4c0.8,0.7,1.3,1.6,2.1,2.2c0.1,0.1,0.3,0.1,0.4,0
		c0.1-0.1,0.1-0.2,0.1-0.2c-0.4-1-1.1-1.8-2-2.5l0,0.4c0.6-1,1.2-1.9,1.8-2.9C30.7,97.7,30.3,97.5,30.1,97.7L30.1,97.7z"/>
	<path class="st10" d="M30.2,103c-1.1,1.5-2.4,2.8-3.8,3.8c-0.2,0.1-0.2,0.3-0.1,0.5c0,0.1,0.1,0.1,0.2,0.1c1.1,0.5,2.3,0.9,3.5,1.2
		c0.4,0.1,0.7-0.5,0.3-0.7c-1.2-0.5-2.3-0.9-3.6-1.2l0.1,0.6c1.7-1,3-2.5,3.8-4.3C30.6,103,30.4,102.9,30.2,103L30.2,103z"/>
	<path class="st10" d="M29.9,108.3c-0.4,1-0.7,2-1.1,3c-0.1,0.2,0.1,0.5,0.4,0.5c2.1,0.1,4.2-0.1,6.3-0.6c0.6-0.1,0.4-1.1-0.3-1
		c-2,0.4-4.1,0.5-6.1,0.8l0.5,0.5c0.3-1,0.6-2,0.9-3c0-0.1,0-0.3-0.2-0.3C30.1,108.2,29.9,108.2,29.9,108.3L29.9,108.3z"/>
	<path class="st10" d="M36,110.4c-0.2,0.4-0.3,0.8-0.4,1.2c-0.1,0.4-0.4,0.6-0.2,1c0.1,0.1,0.2,0.1,0.3,0.1c0.4-0.1,0.5-0.6,0.6-1
		c0.2-0.4,0.2-0.9,0-1.3C36.3,110.3,36.2,110.3,36,110.4C36,110.4,36,110.4,36,110.4z"/>
	<path class="st10" d="M35.8,112.8c1.6-0.7,3-1.7,4.1-2.9c0.2-0.2,0-0.6-0.3-0.4c-1.4,0.9-2.6,2.1-4,3.1c-0.1,0-0.1,0.1-0.1,0.2
		c0,0.1,0.1,0.1,0.2,0.1C35.7,112.8,35.7,112.8,35.8,112.8L35.8,112.8z"/>
	<path class="st10" d="M66.1,27.7c-0.3-1.1-0.5-2.2-0.9-3.3c-0.2-0.9-0.6-1.8-1.2-2.5c-0.1-0.1-0.4-0.1-0.5,0
		c-0.1,0.1-0.1,0.2-0.1,0.3c-0.1,1,0.6,2,0.9,2.9s1,1.8,1.4,2.7C65.8,28,66.1,27.9,66.1,27.7L66.1,27.7z"/>
	<path class="st10" d="M63.5,22.5c-1.2-0.5-2.8-1.3-4.2-1c-0.3,0.1-0.3,0.5-0.1,0.7c0.6,0.3,1.3,0.5,2,0.5c0.7,0.1,1.5,0.1,2.2,0.1
		c0.1,0,0.1-0.1,0.1-0.1C63.5,22.6,63.5,22.6,63.5,22.5L63.5,22.5z"/>
	<path class="st10" d="M59,21.6c-0.2,1.1,0,2.2,0.4,3.2c0.2,0.4,0.9,0.2,0.7-0.2c-0.4-0.9-0.5-1.9-0.5-2.9
		C59.5,21.4,59,21.3,59,21.6z"/>
	<path class="st10" d="M59.5,24.7c-1-0.1-2.1-0.2-3.1-0.2c-0.8,0-0.4,1.4,0.2,0.9l0.1-0.1c0.2-0.1,0.3-0.4,0.1-0.6
		c0-0.1-0.1-0.1-0.1-0.1l-0.1-0.1c-0.7-0.5-1.1,0.9-0.2,0.9c1,0,2.1-0.1,3.1-0.2c0.2,0,0.3-0.2,0.3-0.4
		C59.8,24.9,59.7,24.8,59.5,24.7z"/>
	<path class="st10" d="M56.4,25.1c0.1,1.3,1,2.8,1.5,3.9c0.3,0.6,1.1,0.1,0.8-0.5c-0.6-1.1-1.1-2.7-2-3.6c-0.1-0.1-0.2-0.1-0.3,0
		C56.4,25,56.4,25.1,56.4,25.1L56.4,25.1z"/>
	<path class="st10" d="M58.2,29.1c-1.1,0.1-2.3,0.2-3.4,0.5c-0.6,0.1-0.3,0.9,0.2,0.9c1.1-0.2,2.2-0.5,3.3-0.9
		C58.5,29.4,58.4,29.1,58.2,29.1z"/>
	<path class="st10" d="M55.1,30.2c0.5,0.5,1,0.9,1.6,1.3c0.5,0.3,1.1,0.7,1.6,0.4c0.1-0.1,0.2-0.2,0.1-0.3c-0.1-0.5-0.8-0.7-1.2-0.9
		s-1.2-0.5-1.8-0.9c-0.1-0.1-0.3,0-0.4,0.1C55,30,55,30.1,55.1,30.2z"/>
	<path class="st10" d="M58,32c-0.9,0.3-1.8,0.6-2.7,1c-0.7,0.3-1.6,0.7-1.9,1.5c0,0.2,0,0.3,0.2,0.4c0,0,0.1,0,0.1,0
		c0.8,0,1.4-0.7,2-1.2c0.8-0.5,1.6-1,2.4-1.4C58.4,32.2,58.2,31.9,58,32L58,32z"/>
	<path class="st10" d="M53.7,35.1c1,0.7,2.1,1.2,3.3,1.3c0.6,0.1,1.2-0.8,0.5-1.2c-1.1-0.5-2.4-0.7-3.7-0.6c-0.1,0-0.2,0.2-0.2,0.3
		C53.6,35,53.6,35.1,53.7,35.1z"/>
	<path class="st10" d="M57,35.7c-0.8,0.3-1.5,0.9-2,1.6c-0.6,0.7-0.8,1.5-0.8,2.4c0.1,0.2,0.3,0.4,0.6,0.3c0.1,0,0.2-0.1,0.3-0.2
		c0.3-0.6,0.4-1.3,0.7-1.9c0.4-0.7,0.9-1.3,1.5-1.7c0.1-0.1,0.2-0.2,0.1-0.4C57.3,35.7,57.2,35.7,57,35.7L57,35.7L57,35.7z"/>
	<path class="st10" d="M54.9,39.4c0.8,0,1.6,0,2.3,0c0.7,0.1,1.4,0,2-0.2c0.2-0.1,0.3-0.4,0.2-0.6c0-0.1-0.1-0.1-0.2-0.2
		c-0.7-0.3-1.5-0.4-2.3-0.2c-0.8,0.1-1.5,0.3-2.2,0.7c-0.1,0.1-0.1,0.2-0.1,0.3C54.7,39.4,54.8,39.4,54.9,39.4L54.9,39.4z"/>
	<path class="st10" d="M58.9,39.3c-0.5,0.3-0.8,0.8-1.1,1.3c-0.4,0.5-0.7,1.1-0.9,1.7c-0.1,0.2,0.1,0.5,0.3,0.6c0.2,0,0.3,0,0.4-0.1
		c0.4-0.5,0.8-1.1,1-1.7c0.3-0.5,0.5-1,0.6-1.6c0-0.1-0.1-0.2-0.2-0.2C59,39.3,58.9,39.3,58.9,39.3L58.9,39.3z"/>
	<path class="st10" d="M57.6,42.7c1.3,0,2.7-0.1,4-0.4c0.6-0.1,0.5-1.2-0.2-1.2c-1.4,0.2-2.7,0.5-4,1c-0.1,0.1-0.2,0.2-0.2,0.3
		C57.3,42.6,57.4,42.7,57.6,42.7L57.6,42.7z"/>
	<path class="st10" d="M4.8,29.5l3.1,4.3c0.4,0.5,1.2,0,0.9-0.5L5.6,29C5.2,28.5,4.4,29,4.8,29.5L4.8,29.5z"/>
	<path class="st10" d="M14.8,32.2l-8.5-4.4c-0.6-0.3-1.1,0.6-0.5,0.9l8.5,4.4C14.9,33.4,15.4,32.5,14.8,32.2z"/>
	<path class="st10" d="M17.8,113.8c-2.2,1.6-4.1,3.6-6.4,5.3c-2.2,1.7-4.6,3.2-7,4.5l0.8,1c1.6-1.9,3.7-3.7,4.8-6
		c0.2-0.4-0.2-0.9-0.6-0.6c-2,1.4-3.5,3.8-5.1,5.6c-0.2,0.3-0.2,0.7,0.1,0.9c0.2,0.1,0.5,0.2,0.7,0.1c4.6-2.7,9.9-6.1,13-10.6
		c0.1-0.2-0.1-0.5-0.4-0.3L17.8,113.8z"/>
	<path class="st10" d="M21,79.6c-2.8,0.1-5.6,1.2-8.3,2c-3,0.8-6,1.7-9.1,2.6l0.6,1.4c2.8-1.2,5.5-2.7,7.9-4.6
		c0.7-0.5-0.2-1.7-0.9-1.2c-2.4,1.8-5,3.3-7.7,4.5c-0.8,0.3-0.2,1.6,0.6,1.4c3-0.9,6-1.8,9-2.7c2.6-0.8,5.6-1.4,8-2.8
		c0.1-0.1,0.2-0.2,0.1-0.4C21.1,79.7,21,79.6,21,79.6L21,79.6z"/>
	<path class="st10" d="M32.6,10.8l3.3,3.5c0.4,0.5,1.2-0.2,0.7-0.7l-3.3-3.5C32.9,9.6,32.2,10.3,32.6,10.8z"/>
	<path class="st10" d="M42.2,12.1c-2.6-1.3-5.4-2.1-8.3-2.5c-0.6-0.1-0.9,0.9-0.3,1c2.8,0.4,5.5,1.2,8.1,2.4
		C42.3,13.3,42.8,12.4,42.2,12.1L42.2,12.1z"/>
	<path class="st11" d="M40.8,23.4C37.7,22,34.4,21.2,31,21c-0.4,0-0.6,0.3-0.6,0.7c0,0.2,0.1,0.3,0.2,0.4c1.3,1.6,2.8,3.1,4.4,4.5
		c0.4,0.3,1-0.3,0.7-0.7c-1.3-1.7-2.7-3.2-4.2-4.6l-0.5,1c3.3-0.1,6.5,0.5,9.6,1.5C40.9,23.9,41,23.5,40.8,23.4L40.8,23.4z"/>
	<path class="st11" d="M13.1,48.1C10.4,46.7,7.4,46,4.4,46c-0.5,0-1,0.8-0.5,1.1l4.4,3.6l0.5-1.2c-2.2-0.2-4.4,0.4-6.2,1.5
		c-0.3,0.2-0.4,0.6-0.2,1c0.1,0.1,0.1,0.2,0.2,0.2c1.2,0.8,2.5,1.5,3.8,2.1c0.3,0.1,0.6-0.1,0.7-0.4c0-0.2,0-0.4-0.1-0.5
		c-1.1-0.9-2.4-1.7-3.6-2.4v1.2c1.7-1,3.6-1.5,5.5-1.4c0.6,0,1-0.8,0.5-1.2l-4.5-3.6l-0.5,1.1c2.8-0.4,5.7,0.1,8.3,1.2
		C13.1,48.7,13.4,48.2,13.1,48.1z"/>
	<path class="st11" d="M1,114.1c1.6-0.3,3.1-0.9,4.5-1.7c0.2-0.1,0.3-0.4,0.2-0.7c-0.1-0.2-0.4-0.3-0.7-0.2
		c-1.3,0.8-2.7,1.3-4.2,1.6C0.1,113.3,0.4,114.3,1,114.1L1,114.1z"/>
	<path class="st12" d="M75.9,30.4c0.1,0,0.1-0.1,0.1-0.2c0,0-0.1-0.1-0.1-0.1C75.8,30.1,75.8,30.2,75.9,30.4
		C75.8,30.3,75.9,30.4,75.9,30.4z"/>
	<path class="st12" d="M96.7,34.6c-6,3.9-8.7,12.7-7.1,19.5c0.1,0.2,0.4,0.1,0.3-0.1c-1.2-7,1-14.9,6.8-19.2
		C96.9,34.7,96.8,34.6,96.7,34.6z"/>
	<path class="st12" d="M117.1,40.6c-3.3,2.4-5.9,5.6-7.7,9.2c-1.8,3.3-3.6,7.6-3.2,11.5c0,0.1,0.1,0.1,0.2,0.1
		c0.1,0,0.1-0.1,0.1-0.1c1-8,4.3-15.2,10.7-20.5C117.4,40.8,117.2,40.5,117.1,40.6z"/>
	<path class="st12" d="M137.2,51c-3.2,0.9-5.9,3.5-7.7,6.2c-1.7,2.5-3.6,6.3-2.9,9.4c0,0.1,0.2,0.1,0.2,0c0.2-3.3,1.2-6.4,3-9.2
		c1.8-2.8,4.4-4.9,7.4-6.3C137.3,51.2,137.2,51,137.2,51L137.2,51z"/>
	<path class="st12" d="M91.9,63.5C85,71,83.7,84.1,86.1,93.6c0.1,0.2,0.4,0.2,0.4-0.1C84.3,83,86,72.5,92,63.6
		C92,63.5,92,63.5,91.9,63.5z"/>
	<path class="st12" d="M112,69c-8.8,6.2-11.4,19.3-7.3,29c0.1,0.3,0.5,0,0.4-0.2c-4.1-9.6-1.3-22.2,7-28.7
		C112.2,69.1,112.1,69,112,69L112,69z"/>
	<path class="st12" d="M128.8,78.5c-3.1,2.2-4.8,6-5.8,9.5s-1.7,8.5-0.3,12.1c0,0.1,0.2,0.1,0.2,0c-0.2-3.9-0.7-7.3,0.3-11.2
		C124.1,85,126.1,81.5,128.8,78.5C128.8,78.6,128.8,78.5,128.8,78.5L128.8,78.5z"/>
	<path class="st12" d="M139.2,81.6c-6,3.9-8.2,11.9-6,18.4c0.1,0.3,0.5,0.2,0.4-0.1c-2.3-6.8,0.2-13.8,5.7-18.2
		C139.4,81.7,139.3,81.6,139.2,81.6L139.2,81.6z"/>
	<path class="st12" d="M71.3,93.9c-2.4,3.9-3.4,8.8-3.9,13.4c-0.6,4.9-0.5,9.9,0.2,14.9c0,0.3,0.5,0.2,0.4-0.1
		c-1.4-9.5-0.2-19.2,3.4-28.1C71.4,93.9,71.4,93.8,71.3,93.9L71.3,93.9z"/>
	<path class="st12" d="M96.1,100.1c-4.2,3.3-6.6,8.5-7.8,13.5s-1.9,11.1-0.2,16c0,0.1,0.3,0.1,0.3,0c-0.5-5.4-1-10.2,0.3-15.5
		c1.2-5.2,3.8-10.1,7.6-13.9C96.2,100.1,96.2,100.1,96.1,100.1L96.1,100.1z"/>
	<path class="st12" d="M113,106.4c-8.6,5-12,17.2-11.4,26.4c0,0.3,0.5,0.3,0.5,0c-0.8-10,3.4-19.8,11.1-26.3
		C113.1,106.5,113.1,106.4,113,106.4z"/>
	<path class="st12" d="M126.2,112.7c-7.4,5-9.2,13.8-7.6,22.1c0.1,0.3,0.5,0.2,0.5-0.1c-1.6-8.5,0.4-16.3,7.2-21.9
		C126.3,112.8,126.3,112.7,126.2,112.7z"/>
	<path class="st12" d="M54.4,91.2c-3.8,7.1-4.9,15.3-3,23.1c0.1,0.3,0.5,0.2,0.4-0.1c-1.8-7.9-0.5-15.5,2.8-22.8
		C54.7,91.2,54.5,91,54.4,91.2L54.4,91.2z"/>
	<path class="st12" d="M67.2,61.4c-5.3,6.7-7.4,15.4-5.7,23.7c0,0.3,0.5,0.2,0.4-0.1C60.3,76.6,62.4,68.4,67.2,61.4L67.2,61.4
		L67.2,61.4z"/>
	<path class="st12" d="M68,60.4c-3.8-2.4-8.5-3-12.9-1.7c-0.1,0-0.2,0.2-0.1,0.3c0,0.1,0.1,0.1,0.2,0.1c4.2-1.2,8.8-0.6,12.5,1.7
		c0.1,0,0.2,0,0.3-0.1C68.1,60.5,68.1,60.4,68,60.4z"/>
	<path class="st12" d="M54.6,58.3c-1.8,2.5-2.7,5.6-2.4,8.7c0,0.3,0.4,0.3,0.4,0c-0.2-3,0.5-6,2.1-8.6
		C54.8,58.4,54.8,58.4,54.6,58.3C54.7,58.3,54.7,58.3,54.6,58.3L54.6,58.3z"/>
	<path class="st12" d="M52.1,67.1c1.9,3.7,5.6,6.3,9.8,6.8c0.3,0,0.4-0.4,0.1-0.4c-4.2-0.6-7.3-3-9.6-6.5c0-0.1-0.1-0.1-0.2,0
		C52.1,67,52.1,67.1,52.1,67.1z"/>
	<path class="st12" d="M56.5,72.3c-2.2-0.2-4.4,0.8-5.6,2.7c-0.2,0.2,0.2,0.4,0.4,0.2c1.2-1.7,3.1-2.8,5.2-2.8
		C56.6,72.5,56.6,72.3,56.5,72.3L56.5,72.3z"/>
	<path class="st12" d="M51,75.1c-1.2,3.6-0.6,7.5,1.6,10.6c0.2,0.2,0.5,0,0.4-0.2c-2-3-2.7-6.8-1.8-10.3
		C51.1,75.1,51.1,75.1,51,75.1C51,75.1,51,75.1,51,75.1L51,75.1z"/>
	<path class="st12" d="M53.2,86.2c2.9,1.4,6.3,1.4,9.3,0c0.3-0.1,0-0.5-0.2-0.4c-2.8,1.2-6.1,1.2-8.9,0C53.2,85.7,53,86,53.2,86.2
		L53.2,86.2z"/>
	<path class="st12" d="M74.7,29.4c-1.3-2.3-4.6-2.7-6.9-2c-0.1,0-0.2,0.2-0.1,0.3c0,0.1,0.1,0.1,0.2,0.1
		C70.5,26.9,72.5,28,74.7,29.4C74.6,29.4,74.7,29.4,74.7,29.4L74.7,29.4z"/>
	<path class="st12" d="M66.3,27.5c-0.8,1.6-1.6,3.3-2.3,4.9c-0.1,0.2,0.2,0.4,0.3,0.2c0.8-1.7,1.5-3.3,2.2-5
		C66.5,27.5,66.4,27.4,66.3,27.5L66.3,27.5z"/>
	<path class="st12" d="M64.9,32.2c1.6,2.7,4.3,4.6,7.4,5c0.2,0,0.3-0.3,0.1-0.4c-2.9-0.7-5.5-2.4-7.3-4.8C65,32,64.9,32.1,64.9,32.2
		L64.9,32.2z"/>
	<path class="st12" d="M69.2,35.2c-2.1-0.7-5.2-0.3-6.6,1.7c-0.1,0.1,0.1,0.3,0.2,0.2c0.8-0.7,1.8-1.2,2.8-1.6
		c1.1-0.3,2.4-0.3,3.5,0c0.1,0,0.2,0,0.2-0.1C69.3,35.3,69.3,35.2,69.2,35.2L69.2,35.2z"/>
	<path class="st12" d="M62.7,36.6c-0.2,1.7-0.2,3.3,0,5c0,0.1,0.1,0.1,0.1,0.1c0,0,0.1,0,0.1-0.1c0.2-1.7,0.2-3.3,0-5
		c0,0,0-0.1-0.1-0.1C62.7,36.5,62.7,36.6,62.7,36.6C62.7,36.6,62.7,36.6,62.7,36.6L62.7,36.6z"/>
	<path class="st12" d="M62.8,42.7c2.6,1.8,6.7,2,9.2-0.1c0.1-0.1,0-0.2-0.2-0.2c-3.1,1.3-5.8,1.7-9,0.2
		C62.8,42.5,62.7,42.6,62.8,42.7L62.8,42.7z"/>
	<path class="st12" d="M54.3,91.1c-2.2-1.9-5.1-2.7-8-2.3c-0.3,0-0.3,0.5,0,0.5c2.8-0.3,5.6,0.5,7.8,2.1
		C54.3,91.5,54.4,91.2,54.3,91.1L54.3,91.1z"/>
	<path class="st12" d="M45.5,88.4c-2.2,1.2-4.2,4.4-3.1,7c0,0.1,0.2,0,0.2-0.1c-0.1-1.2,0-2.5,0.4-3.7
		C43.5,90.4,44.4,89.3,45.5,88.4C45.5,88.5,45.5,88.5,45.5,88.4C45.5,88.4,45.5,88.4,45.5,88.4C45.4,88.4,45.4,88.4,45.5,88.4
		L45.5,88.4z"/>
	<path class="st12" d="M42.1,95.9c1.1,3.9,6.3,6.4,10.1,5.1c0.1,0,0.1-0.2,0-0.2c-4.4,0.5-7.6-1.2-9.9-4.9c0,0-0.1-0.1-0.1,0
		C42.1,95.8,42.1,95.9,42.1,95.9L42.1,95.9z"/>
	<path class="st12" d="M50.3,101.1c-3.8-0.6-7.6,0.9-10,3.9c-0.1,0.2,0.1,0.3,0.3,0.2C43.2,102.7,46.7,101.2,50.3,101.1
		C50.4,101.2,50.4,101.1,50.3,101.1L50.3,101.1z"/>
	<path class="st12" d="M40.4,105.5c-1,2.1-0.5,5.3,1.6,6.5c0.1,0.1,0.2-0.1,0.1-0.2c-1.5-1.9-2.3-3.7-1.6-6.2
		C40.6,105.5,40.5,105.4,40.4,105.5z"/>
	<path class="st12" d="M42.4,112.4c2.8,2.4,6.6,3,10,1.8c0.2-0.1,0.2-0.5-0.1-0.4c-3.3,1.1-6.9,0.5-9.7-1.7
		C42.5,111.9,42.2,112.3,42.4,112.4L42.4,112.4z"/>
	<path class="st12" d="M39.8,100L39.8,100L39.8,100z"/>
	<path class="st12" d="M47.1,89.1c-2.4,2.8-3,6.6-1.7,10c0.1,0.2,0.5,0.1,0.4-0.1c-1.2-3.3-0.7-7,1.4-9.8
		C47.2,89.2,47.2,89.1,47.1,89.1L47.1,89.1z"/>
	<path class="st12" d="M43.4,104.2c-1.6,2.6-1.1,6.2,0.2,8.9c0.1,0.2,0.5,0,0.4-0.2C42.6,109.9,42.8,107.3,43.4,104.2
		C43.5,104.2,43.5,104.2,43.4,104.2L43.4,104.2z"/>
	<path class="st12" d="M53.8,73.3c-1.4,3.9-1.2,8.9,1.1,12.4c0.1,0.1,0.2,0,0.2-0.1c-1.5-4.3-2.2-7.8-1.1-12.2c0,0,0-0.1-0.1-0.1
		C53.9,73.2,53.8,73.3,53.8,73.3z"/>
	<path class="st12" d="M57.2,59.1c-2.6,2.9-3.9,6.7-3.6,10.6c0,0.2,0.4,0.2,0.4,0c-0.2-3.8,0.9-7.5,3.3-10.5
		C57.4,59.1,57.3,59,57.2,59.1z"/>
	<path class="st12" d="M67.8,28.4c-1.4,1.2-2.2,2.8-2.3,4.6c0,0.2,0.2,0.2,0.3,0c0.2-1.7,1-3.3,2.2-4.5C68,28.4,67.8,28.3,67.8,28.4
		L67.8,28.4z"/>
	<path class="st12" d="M65.5,35.7c-0.7,2.4-0.7,4.9-0.1,7.3c0,0.1,0.1,0.1,0.2,0.1s0.1-0.1,0.1-0.2c-0.6-2.4-0.6-4.8-0.1-7.2
		C65.6,35.7,65.6,35.7,65.5,35.7C65.5,35.7,65.5,35.7,65.5,35.7L65.5,35.7z"/>
	<path class="st12" d="M67.4,61.1L67.4,61.1L67.4,61.1z"/>
	<path class="st12" d="M68.1,60.5c-7.3,5.9-9,17.2-5.5,25.6c0.1,0.3,0.6,0.2,0.5-0.1c-3.8-9-1.1-18.3,5.3-25.3
		c0.1-0.1,0.1-0.1,0-0.2C68.3,60.4,68.2,60.4,68.1,60.5C68.1,60.5,68.1,60.5,68.1,60.5z"/>
	<path class="st12" d="M53.6,91.4c-3.5,7.1-3.8,15.2-1,22.6c0.1,0.3,0.6,0.2,0.5-0.1c-2.7-7.2-2.4-15.2,0.9-22.2
		C54.1,91.4,53.7,91.2,53.6,91.4L53.6,91.4z"/>
	<path class="st12" d="M75.4,30.6c-3.6,2.7-5.3,7.3-4.4,11.7c0.1,0.3,0.5,0.2,0.5-0.1c-0.9-4.8,0.9-7.9,4.1-11.3
		C75.7,30.6,75.5,30.5,75.4,30.6L75.4,30.6z"/>
	<path class="st12" d="M68.3,60.5c24.2,1.5,47.7,8.7,68.7,21.1c5,3,9.9,6.3,14.5,9.8c1.4,0.9,2.7,1.9,3.9,3.1
		c0.7,0.9,0.8,0.5,0.1,1.2c-0.7,0.4-1.4,0.6-2.1,0.8c-3.1,1-6.3,1.9-9.5,2.5c-13,2.4-26.2,1.2-39.1-1.3
		c-14.4-2.8-28.5-6.7-42.3-11.8c-0.3-0.1-0.4,0.4-0.1,0.5c15.6,5.8,31.6,10.1,48,12.8c15.5,2.6,31.7,2.3,46.6-3.5
		c0.1-0.1,0.3-0.3,0.1-0.4c-24.8-20.7-56.3-33.4-88.7-34.9C68.2,60.2,68.2,60.5,68.3,60.5z"/>
	<path class="st12" d="M54.6,91.8c27,1.9,53,9.6,76.1,23.9c5.9,3.6,11.5,7.6,16.9,12c0.5,0.4,2.7,1.8,2.5,2.5
		c-0.1,0.5-4.2,1.2-4.9,1.4c-3.5,0.9-7.1,1.6-10.6,2c-13.7,1.6-27.5,0.6-40.9-2.9c-14.9-3.8-29.2-9.7-42.4-17.5
		c-0.1-0.1-0.3,0-0.3,0.1c-0.1,0.1,0,0.3,0.1,0.3c29.8,17.2,66.2,27.5,99.9,16.7c0.1,0,0.2-0.2,0.2-0.3c0,0,0-0.1-0.1-0.1
		c-21-18-46.2-30.3-73.3-35.8c-7.6-1.6-15.4-2.5-23.2-2.9C54.4,91.4,54.4,91.8,54.6,91.8L54.6,91.8z"/>
	<path class="st12" d="M75,30.9c23.4,4.3,48.1,8.6,67.1,24.1c2,1.7,4,3.4,5.8,5.3c1.9,1.9,4.3,4.2,5.5,6.6c0.5,1,0.6,0.6-0.1,1
		c-0.7,0.1-1.4,0.2-2.1,0.1c-1.2,0-2.5,0.1-3.8,0.1c-2.9,0-5.8-0.1-8.7-0.3c-11.3-0.8-22.5-3.2-33.2-7C93.2,56.3,81.7,50,71.4,42
		c-0.2-0.2-0.6,0.2-0.3,0.3c23.8,18.4,53.4,27.6,83.5,26c0.1,0,0.2-0.1,0.2-0.2c0,0,0-0.1,0-0.1C136.9,42,104.1,35.4,75.1,30.4
		C74.9,30.4,74.8,30.8,75,30.9L75,30.9z"/>
	<path class="st12" d="M136.8,53.7c1.7,2,3.4,3.8,4.9,5.9c0.2,0.2,0.6,0,0.4-0.2c-1.4-2.2-3.1-4.2-5.1-5.9c-0.1-0.1-0.2-0.1-0.3,0
		C136.7,53.5,136.7,53.6,136.8,53.7z"/>
	<path class="st12" d="M137.7,54.5c-1.4,0.4-2.1,1.9-1.7,3.2c0.1,0.4,0.3,0.8,0.6,1.1c1.2,1.2,3.7,1,4.2-0.8c0-0.1,0-0.2-0.1-0.2
		c-0.1,0-0.1,0-0.2,0c-0.9,1.1-2.3,1.9-3.6,0.7s-0.6-3.1,0.9-3.9C137.9,54.7,137.8,54.5,137.7,54.5z"/>
	<path class="st12" d="M144.4,68.1c-0.9-1.5-2.1-2.8-3.1-4.2c-0.4-0.5-1-1.8-1.8-1.7s-1.2,1.2-1.5,1.7c-0.6,1.2-0.9,2.5-0.8,3.9
		c0,0.1,0.1,0.2,0.2,0.2c0.1,0,0.2-0.1,0.2-0.2c0-1.2,0.2-2.4,0.7-3.5c0.2-0.4,0.4-0.8,0.7-1.1c0.3-0.6,0.7-0.5,1.4,0.1l0.5,0.6
		c1.1,1.5,2.2,3,3.5,4.4C144.3,68.3,144.5,68.2,144.4,68.1L144.4,68.1z"/>
	<path class="st12" d="M138.5,55.7c-0.7-0.6-1.5,0.4-1.2,1.1c0.4,0.8,1.3,1.1,2,0.7c0.2-0.1,0.3-0.2,0.4-0.3c0.1-0.1,0-0.3-0.2-0.2
		c-0.6,0.3-1.2,0.6-1.8,0S137.7,55.6,138.5,55.7C138.5,55.7,138.6,55.7,138.5,55.7L138.5,55.7z"/>
	<path class="st12" d="M148.9,61.1c-1.8,1.9-2.8,4.4-2.6,7c0,0.3,0.4,0.3,0.4,0c-0.1-2.5,0.7-5,2.3-6.9
		C149.1,61.1,149,61.1,148.9,61.1L148.9,61.1z"/>
	<path class="st12" d="M148.9,97.8c-1-1.2-2.1-2.3-3.2-3.3c-0.4-0.4-1.2-1.6-1.9-1.3s-0.9,1.8-1,2.3c-0.2,1.2,0.1,2.4,0.6,3.5
		c0.1,0.2,0.5,0,0.4-0.2c-0.4-0.9-0.6-1.9-0.6-2.9c0-0.7,0.2-1.3,0.5-1.9c0.4-0.5,0.5-0.3,0.9,0.1c1.3,1.4,2.7,2.6,4.2,3.8
		c0,0,0.1,0,0.1,0C148.9,97.9,148.9,97.9,148.9,97.8L148.9,97.8L148.9,97.8z"/>
	<path class="st12" d="M151.5,91.5c-0.9,1.8-1.1,3.8-0.5,5.7c0,0.1,0.2,0.2,0.3,0.1c0.1,0,0.1-0.1,0.1-0.2c-0.5-1.8-0.4-3.7,0.3-5.5
		C151.7,91.5,151.6,91.5,151.5,91.5z"/>
	<path class="st12" d="M125.9,115.4c2,3,4.6,5.7,7.6,7.8l0.1-0.4l-0.6,0.1c-0.1,0-0.1,0.1-0.1,0.2c0,0,0,0.1,0.1,0.1l0.6,0.1
		c0.1,0,0.3-0.1,0.3-0.2c0-0.1,0-0.2-0.1-0.3c-2.8-2.2-5.3-4.8-7.5-7.6C126.1,115.1,125.8,115.2,125.9,115.4z"/>
	<path class="st12" d="M126.5,116.6c-2,1-2.7,3.4-1.7,5.4c0.3,0.5,0.6,1,1.1,1.3c1.8,1.5,4.5,1.2,5.9-0.7c0.3-0.4,0.5-0.8,0.7-1.2
		c0.1-0.3-0.4-0.4-0.5-0.1c-0.7,1.9-2.9,2.9-4.8,2.2c-0.5-0.2-0.9-0.5-1.3-0.8C124.1,120.8,124.9,118.2,126.5,116.6
		C126.7,116.6,126.6,116.5,126.5,116.6L126.5,116.6z"/>
	<path class="st12" d="M127.3,117.8c-0.9,0.7-1.1,2.1-0.3,3c0.1,0.1,0.2,0.2,0.3,0.3c1,0.8,2.5,0.6,3.2-0.4c0-0.1,0.1-0.1,0.1-0.2
		c0.2-0.2-0.2-0.5-0.4-0.2c-0.6,0.9-1.7,1.1-2.6,0.6c-0.1,0-0.1-0.1-0.2-0.1c-0.7-0.8-0.7-2,0-2.8c0,0,0-0.1,0-0.1
		C127.3,117.8,127.3,117.8,127.3,117.8z"/>
	<path class="st12" d="M134,133.8c-1.3-1.5-2.9-2.5-4.1-4.2c-0.4-0.6-0.9-2.1-1.8-2.2s-1.1,0.9-1.3,1.5c-0.8,1.7-1.2,3.6-1.4,5.4
		c0,0.1,0.1,0.2,0.2,0.2c0.1,0,0.2-0.1,0.2-0.1c0.2-1.4,0.5-2.8,1-4.2c0.3-0.8,0.6-2.4,1.8-1.7c0.4,0.2,0.8,1.2,1,1.6
		c1.1,1.4,2.5,3.2,4.3,3.8c0,0,0.1-0.1,0-0.1L134,133.8z"/>
	<path class="st12" d="M137,133.8c0-4.3,0.9-7.7,4-11c0.1-0.1,0.1-0.2,0-0.3s-0.2-0.1-0.3,0c-2.9,2.7-4.8,7.3-3.9,11.3
		C136.8,133.9,136.8,133.9,137,133.8C137,133.9,137,133.9,137,133.8L137,133.8z"/>
	<path class="st12" d="M151.6,91.3c-1.2,1.7-1.4,4-0.6,5.9c0.1,0.1,0.2,0.1,0.2,0c0,0,0.1-0.1,0.1-0.1c-0.2-0.9-0.3-1.8-0.3-2.8
		c0.1-1,0.4-2.1,0.8-3C151.9,91.2,151.7,91.2,151.6,91.3L151.6,91.3z"/>
	<path class="st12" d="M137.5,85.1c0.8,0.8,1.7,1.5,2.6,2.2c0.8,0.7,1.5,1.3,2.4,1.9c0.2,0.1,0.4-0.2,0.2-0.3
		c-0.8-0.8-1.7-1.5-2.6-2.2c-0.8-0.7-1.6-1.3-2.4-2C137.6,84.6,137.3,84.9,137.5,85.1L137.5,85.1z"/>
	<path class="st12" d="M141.3,88c0.3,0.4,0.7,0.8,1.1,1.2c0.4,0.4,0.8,0.8,1.2,1.1c0.1,0,0.1,0,0.2,0c0,0,0-0.1,0-0.1
		c-0.3-0.4-0.7-0.8-1.2-1.1C142.2,88.6,141.8,88.2,141.3,88C141.3,87.9,141.3,87.9,141.3,88C141.3,88,141.3,88,141.3,88L141.3,88z"
		/>
	<path class="st12" d="M138.3,85.4c-2.2,0.9-2,4.1-0.3,5.4s4.9,0.6,5.2-1.8c0-0.2-0.2-0.3-0.3-0.1c-0.3,0.8-0.9,1.4-1.6,1.9
		c-0.9,0.4-2.1,0.3-2.9-0.3c-1.9-1.3-1.2-3.4,0.1-4.9C138.4,85.5,138.4,85.5,138.3,85.4C138.4,85.4,138.3,85.4,138.3,85.4
		L138.3,85.4z"/>
	<path class="st12" d="M139.3,86.5c-0.6,0.1-0.9,0.7-1,1.2c-0.1,0.6,0.1,1.2,0.5,1.6c0.8,0.7,2,0.5,2.6-0.2c0.1-0.1,0.2-0.3,0.3-0.5
		c0-0.1,0-0.2-0.1-0.3s-0.2,0-0.3,0.1c-0.2,0.4-0.5,0.7-0.9,0.8c-0.7,0.2-1.4-0.1-1.6-0.7c-0.1-0.2-0.1-0.5,0-0.7
		c0.1-0.4,0.3-0.8,0.6-1.1C139.4,86.6,139.4,86.5,139.3,86.5C139.3,86.5,139.3,86.5,139.3,86.5L139.3,86.5z"/>
	<path class="st12" d="M91.6,66c0,0.1,0,0.2,0.1,0.3c0,0.1,0.1,0.1,0.2,0c0,0,0,0,0,0c0.1-0.1,0.1-0.2,0.1-0.3c0-0.1,0-0.3-0.2-0.3
		c-0.1,0-0.3,0-0.3,0.2C91.6,65.9,91.6,66,91.6,66z"/>
	<path class="st12" d="M87.9,78.2L87.9,78.2L87.9,78.2z"/>
	<path class="st12" d="M87.8,78.3c0.2-0.2,0.1-0.6-0.2-0.4S87.6,78.5,87.8,78.3z"/>
	<path class="st12" d="M87.9,91.2c0.2-0.3,0.3-0.6,0.4-0.9c0-0.1-0.1-0.2-0.2-0.2c0,0-0.1,0-0.1,0c-0.3,0.2-0.4,0.5-0.6,0.8
		c0,0.1,0,0.3,0.2,0.3C87.8,91.3,87.9,91.3,87.9,91.2z"/>
	<path class="st12" d="M111.4,71.8c0,0.1-0.1,0.1-0.1,0.2c0,0.1,0,0.2,0.1,0.2c0,0,0.1,0,0.1,0c0.1,0,0.2-0.1,0.2-0.1
		C112,71.9,111.6,71.5,111.4,71.8z"/>
	<path class="st12" d="M107.2,79.7c0.1,0,0.2-0.1,0.2-0.2c0-0.1-0.1-0.2-0.2-0.2l0,0c-0.1,0-0.2,0.1-0.2,0.2
		C107,79.6,107.1,79.7,107.2,79.7z"/>
	<path class="st12" d="M105.4,92.9c0.2,0,0.4,0,0.6-0.1c0.2-0.1,0.2-0.5-0.1-0.5c-0.2,0-0.3,0-0.4,0.2c-0.1,0-0.1,0.1,0,0.2
		c0,0,0,0,0,0c0.1,0.1,0.3,0.1,0.4,0.1l-0.1-0.4c-0.2,0.1-0.3,0.2-0.5,0.3C105.3,92.7,105.3,92.8,105.4,92.9
		C105.4,92.9,105.4,92.9,105.4,92.9z"/>
	<path class="st12" d="M130.2,80.3c-0.2-0.1-0.5-0.1-0.7,0c-0.1,0,0,0.2,0,0.2c0.2,0.1,0.5,0.1,0.7,0
		C130.3,80.5,130.3,80.4,130.2,80.3C130.2,80.3,130.2,80.3,130.2,80.3L130.2,80.3z"/>
	<path class="st12" d="M125.2,88.5L125.2,88.5c0.1,0.1,0.1,0.1,0.2,0.1c0.1,0,0.2-0.1,0.2-0.2c0-0.1,0-0.2-0.2-0.3l0,0
		c-0.1,0-0.2,0-0.2,0.1l0,0c-0.1,0-0.2,0.1-0.2,0.2C125.1,88.4,125.1,88.5,125.2,88.5L125.2,88.5z"/>
	<path class="st12" d="M124.5,98.6h0.2c0.1,0,0.2-0.1,0.2-0.2c0-0.1-0.1-0.1-0.2-0.2h-0.2c-0.1,0-0.2,0.1-0.2,0.2
		S124.3,98.6,124.5,98.6L124.5,98.6z"/>
	<path class="st12" d="M64.9,84c-1.5-6.9,0.4-14.1,5.1-19.4c0.1-0.1-0.1-0.3-0.2-0.2c-4.8,5.3-6.7,12.7-5,19.7c0,0,0,0.1,0.1,0.1
		C64.9,84.1,64.9,84.1,64.9,84L64.9,84z"/>
	<path class="st12" d="M73.8,41.5c-0.3-3,0.7-5.1,2.6-7.2c0.1-0.1,0-0.2-0.1-0.2c-2.3,1.5-3.3,4.8-2.6,7.4
		C73.7,41.5,73.8,41.5,73.8,41.5L73.8,41.5z"/>
	<path class="st12" d="M96.5,38.1L96.4,38c-0.1-0.1-0.2-0.1-0.3-0.1C96,38,96,38.1,96,38.2s0.2,0.1,0.3,0.1c0,0,0.1,0,0.1-0.1
		L96.5,38.1L96.5,38.1L96.5,38.1z"/>
	<path class="st12" d="M92.5,44.2c0.6,0.5,0.9-0.8,0.1-0.7c-0.2,0-0.2,0.3,0,0.4l0.1-0.1c-0.1-0.1-0.2,0-0.3,0.1
		S92.4,44.1,92.5,44.2C92.5,44.2,92.5,44.2,92.5,44.2z"/>
	<path class="st12" d="M92.1,51.6c-0.2-0.2-0.4-0.2-0.6-0.1c-0.1,0-0.2,0.1-0.2,0.2c0,0.1,0.1,0.1,0.2,0.2c0.2,0.1,0.4,0.1,0.6-0.1
		C92.1,51.7,92.1,51.7,92.1,51.6z"/>
	<path class="st12" d="M117.4,43.7c-0.3,0.1-0.6,0.2-0.9,0.4c-0.2,0.1,0,0.3,0.1,0.3c0.3-0.1,0.6-0.1,0.9-0.2c0.1,0,0.2-0.2,0.2-0.3
		S117.5,43.6,117.4,43.7z"/>
	<path class="st12" d="M112.6,50.7c0,0,0.1,0.1,0.2,0.1c0.1,0.1,0.3,0,0.3-0.1c0.2-0.4-0.2-0.7-0.5-0.4c-0.1,0.1,0,0.2,0,0.2
		c0,0,0,0,0.1,0c0,0,0-0.1,0,0l0.2-0.1h-0.1C112.6,50.5,112.5,50.6,112.6,50.7L112.6,50.7z"/>
	<path class="st12" d="M110.2,59c0-0.1,0-0.2-0.1-0.3c0-0.1-0.1-0.2-0.2-0.1c-0.1,0-0.1,0.1-0.1,0.1c0,0.1,0,0.2,0,0.3
		c0,0.1,0.1,0.2,0.2,0.2C110.1,59.2,110.2,59.1,110.2,59L110.2,59L110.2,59z"/>
	<path class="st12" d="M54.5,112.5c-1.7-6.1-1-12.6,1.7-18.2c0.1-0.1-0.1-0.2-0.2-0.1C53.1,99.9,52.6,106.4,54.5,112.5
		C54.4,112.6,54.5,112.5,54.5,112.5L54.5,112.5z"/>
	<path class="st12" d="M72.4,97.6L72.4,97.6c-0.1-0.1-0.2-0.1-0.2,0c-0.1,0.1-0.1,0.2-0.1,0.3c0,0.1,0.1,0.1,0.2,0.1
		c0.3,0,0.5-0.2,0.5-0.5S72.7,97,72.4,97c-0.6,0-0.5,0.9,0,1C72.6,98,72.7,97.6,72.4,97.6L72.4,97.6z"/>
	<path class="st12" d="M70.3,107.1L70.3,107.1c0-0.1-0.2-0.2-0.3-0.2l0,0c-0.3,0.1-0.2,0.5,0.1,0.5c0,0,0.1,0,0.1,0
		C70.3,107.4,70.4,107.3,70.3,107.1L70.3,107.1z"/>
	<path class="st12" d="M69.6,115.3C69.6,115.3,69.5,115.3,69.6,115.3c0.1,0.1,0.2,0.2,0.3,0.1c0,0,0,0,0,0l0,0
		c0.1-0.1,0.1-0.2,0-0.3c-0.2-0.2-0.6-0.2-0.6,0.2C69.3,115.3,69.5,115.4,69.6,115.3L69.6,115.3z"/>
	<path class="st12" d="M96.4,104.7c-0.2-0.2-0.7-0.1-0.9,0s-0.1,0.3,0.1,0.4S96.6,104.9,96.4,104.7L96.4,104.7z"/>
	<path class="st12" d="M91.7,111.2c-0.1-0.1-0.3-0.1-0.4,0c-0.1,0-0.1,0.1-0.1,0.2c0,0,0,0.1,0.1,0.1c0.1,0.1,0.2,0.1,0.4,0.1
		C91.9,111.7,92,111.3,91.7,111.2L91.7,111.2z"/>
	<path class="st12" d="M89.6,123.5c0.2-0.1,0.3-0.4,0.2-0.6c0-0.1-0.2-0.1-0.2-0.1c0,0-0.1,0-0.1,0.1c-0.2,0.2-0.2,0.4,0,0.6
		C89.5,123.5,89.6,123.5,89.6,123.5L89.6,123.5z"/>
	<path class="st12" d="M112.5,111.9c-0.3-0.2-0.8,0.1-1,0.4c-0.1,0.1,0,0.3,0.1,0.2C112,112.6,112.5,112.4,112.5,111.9
		C112.6,112,112.6,111.9,112.5,111.9L112.5,111.9z"/>
	<path class="st12" d="M107.1,117.7l-0.2-0.1c-0.1-0.1-0.2-0.1-0.3,0c-0.1,0.1-0.1,0.2,0,0.3l0.1,0.2
		C106.9,118.3,107.3,118,107.1,117.7z"/>
	<path class="st12" d="M105.1,125.4L105.1,125.4c0.1,0,0.1-0.1,0.1-0.2v-0.1c0-0.1-0.1-0.2-0.2-0.2l0,0c-0.1,0-0.2,0.1-0.2,0.2
		c0,0,0,0,0,0l0,0l0.2-0.2h-0.1C104.6,125.1,104.8,125.6,105.1,125.4L105.1,125.4z"/>
	<path class="st12" d="M135.1,116.1c-1.5,0.5-3,1.3-4.3,2.3l0.4,0.1c-0.5-2.1-1-4.1-1.5-6.2c0-0.1-0.2-0.2-0.3-0.1
		c-0.1,0-0.2,0.2-0.2,0.3c0.5,2.1,1,4.1,1.6,6.2c0,0.1,0.2,0.2,0.3,0.2c0,0,0,0,0,0c1.3-1,2.8-1.7,4.1-2.6
		C135.3,116.2,135.2,116,135.1,116.1L135.1,116.1z"/>
	<path class="st12" d="M145.6,84.7c-0.6,0.2-1.2,0.5-1.9,0.8c-0.9,0.4-1.7,1.3-2.5,0.4c-0.9-1.3-1.5-2.8-1.7-4.4
		c-0.1-0.3-0.5-0.2-0.5,0.1c0.3,2,1.1,3.8,2.4,5.3c0.1,0.1,0.2,0.1,0.3,0c1.3-0.7,2.7-1.3,3.9-2.1C145.8,84.8,145.7,84.6,145.6,84.7
		L145.6,84.7z"/>
	<path class="st12" d="M144.7,54.7c-0.8,0.2-1.6,0.6-2.5,0.8c-0.5,0.1-0.6,0.3-0.9-0.3c-0.2-0.4-0.3-0.8-0.4-1.3
		c-0.5-1.7-0.6-3.5-1.1-5.2c0-0.1-0.1-0.2-0.2-0.2c-0.1,0-0.2,0.1-0.2,0.2c0.1,2.5,0.7,5,1.6,7.4c0,0.1,0.2,0.2,0.3,0.2
		c1.2-0.4,2.3-0.8,3.5-1.3C145,54.9,144.9,54.6,144.7,54.7L144.7,54.7z"/>
	<path class="st12" d="M43.5,6.3c0.6,1,1.2,2.1,1.7,3.3c0.1,0.1,0.3,0,0.2-0.1c-0.5-1.1-1-2.2-1.7-3.3c0-0.1-0.1-0.1-0.2,0
		C43.5,6.2,43.5,6.3,43.5,6.3L43.5,6.3z"/>
	<path class="st12" d="M66.3,22.5C64,15.4,58.1,11,52.3,6.9c-0.1,0-0.1,0-0.2,0c0,0,0,0.1,0,0.1l1.8,4.7c1,2.7-0.4,0.4-1.2-0.5
		c-2-2.4-4.2-4.5-6.7-6.5c-0.1-0.1-0.3,0.1-0.2,0.2c3.3,2.7,6.2,5.7,8.8,9c0.1,0.1,0.2,0,0.2-0.1c-0.3-0.8-2.7-5.9-2.1-6.3
		c0.3-0.2,5.1,3.8,5.5,4.1c3.6,2.8,6.3,6.6,7.9,10.9C66.2,22.7,66.4,22.6,66.3,22.5z"/>
	<path class="st12" d="M58.9,44.3c-2.8,2.8-6.1,4.9-9.8,6.2c-0.7,0.3-1.5,0.5-2.3,0.7c-1.2,0.1-0.6,0,0-0.7c1.5-1.7,3.1-3.3,4.6-4.9
		c0.1-0.1,0.1-0.3,0-0.4c-0.1-0.1-0.1-0.1-0.2-0.1c-3.2,0.8-6.6,1.4-9.8,2.5c-0.1,0-0.1,0.2-0.1,0.2c0,0.1,0.1,0.1,0.2,0.1
		c1.4-0.2,2.7-0.6,4-0.9c1-0.2,3.5-1.3,4.5-1.1c0.7,0.2,0.4-0.5,0.1,0.3c-0.2,0.6-1.2,1.2-1.6,1.7l-3.3,3.5c-0.1,0.1-0.1,0.2,0,0.3
		c0.1,0.1,0.2,0.1,0.2,0.1c5.3-0.9,10.1-3.5,13.7-7.5c0.1-0.1,0.1-0.1,0-0.2S59,44.2,58.9,44.3L58.9,44.3z"/>
	<path class="st12" d="M44.8,58.3c-5.3-10.2-12.8-19.2-21.9-26.1c-0.1-0.1-0.2,0.1-0.1,0.2c2.3,2.3,4,5.8,3.7,9.2l0,0.7
		c-0.2,0.8-0.4,0.8-0.5,0.3c-0.4-0.3-0.7-1.4-1-1.9c-0.7-1.4-1.5-2.7-2.3-4c-3.1-4.8-6.7-9.3-10.9-13.2c-0.1-0.1-0.3,0.1-0.2,0.2
		c6.1,5.7,11.1,12.6,14.7,20.1c0,0.1,0.1,0.1,0.1,0.1c0,0,0.1,0,0.1-0.1c0.6-2.9,0.2-6-1.2-8.6c-0.4-0.7-0.8-1.2-1.2-1.9
		c-0.7-0.8-0.6-0.7,0.1,0.1c0.4,0.3,0.9,0.7,1.3,1c1.5,1.2,2.9,2.5,4.3,3.8c6.1,5.9,11.1,12.7,15,20.2
		C44.7,58.6,44.9,58.4,44.8,58.3L44.8,58.3z"/>
	<path class="st12" d="M1.1,97.3l5.1-7C6.2,90.2,6,90,5.9,90.1c-1.7,1.3-3.4,2.5-5.3,3.5c-0.1,0-0.1,0.1,0,0.2s0.1,0.1,0.2,0
		c1-0.6,2-1.2,2.9-1.8c0.6-0.3,1.1-0.7,1.6-1.2c0.7-0.7,0.2-0.3,0.1-0.1C4,92.9,2.4,95,0.9,97.2C0.8,97.3,1,97.4,1.1,97.3z"/>
	<path class="st12" d="M45.7,80.6c-3.4,6.7-8.4,12.3-14.6,16.5c-1.4,0.9-2.8,1.8-4.3,2.5c-0.5,0.3-1.6,1.1-1.9,0.6
		c0-0.1,1.1-2.2,1.1-2.4c1.4-3.3,2.2-6.7,2.5-10.2c0-0.1-0.1-0.2-0.2-0.1c-7.7,6.8-17.3,11.2-27.4,12.6c-0.2,0-0.1,0.3,0.1,0.2
		c6.9-0.9,13.5-3.2,19.5-6.8c1.4-0.8,2.8-1.8,4.2-2.7c0.7-0.5,3.1-2.8,3.6-2.4s-1,5.1-1.2,6c-0.7,2.2-1.6,4.4-2.7,6.4
		c0,0.1,0,0.1,0.1,0.2c0,0,0.1,0,0.1,0c9.3-4.1,16.9-11.3,21.5-20.3C46,80.5,45.8,80.4,45.7,80.6z"/>
	<path class="st12" d="M38.8,114.3c-3.9,5.2-8.9,9.6-14.6,12.7c-1.4,0.7-2.8,1.4-4.2,2c-2.5,1-1,0.2,0-1.1c1.5-2,2.6-4.3,3-6.7
		c0-0.1-0.1-0.2-0.2-0.1c-6.7,3.6-13.8,6.6-21.1,8.9c-0.1,0-0.1,0.1-0.1,0.2c0,0.1,0.1,0.1,0.2,0.1c5.1-1.6,10.1-3.5,15-5.8
		c1.2-0.6,2.5-1.2,3.7-1.8s2.4-1.6,1.9,0.4c-0.8,2.7-2.4,5.2-4.6,7c-0.1,0-0.1,0.1,0,0.2c0,0.1,0.1,0.1,0.2,0l0,0
		c8.4-3.1,15.8-8.6,21.2-15.7C39.2,114.4,38.9,114.3,38.8,114.3L38.8,114.3z"/>
	<path class="st13" d="M139.7,62.9L139.7,62.9L139.7,62.9L139.7,62.9L139.7,62.9L139.7,62.9z"/>
	<path class="st13" d="M140,63.1c-0.4,0.7-0.8,1.5-1.2,2.2c0,0,0,0.1,0.1,0.1c0,0,0,0,0,0c0.8-0.1,1.6-0.2,2.4-0.4
		c0.1,0,0.1-0.2-0.1-0.2c-0.8,0.1-1.6,0.3-2.4,0.4l0.1,0.1C139.4,64.6,139.8,63.9,140,63.1C140.1,63.1,140,63,140,63.1L140,63.1z"/>
	<path class="st13" d="M141,65.2c-0.5,0.5-0.8,1-1.2,1.6c0,0-0.1,0.1,0,0.2c0,0,0.1,0.1,0.2,0l0,0c0.8-0.1,1.6,0,2.4-0.2
		c0.1,0,0.1-0.1,0.1-0.1c0,0,0-0.1-0.1-0.1c-0.8-0.1-1.6,0-2.4,0.2l0.1,0.2c0.3-0.6,0.6-1.2,1-1.7C141.1,65.3,141.1,65.1,141,65.2
		L141,65.2z"/>
	<path class="st13" d="M142.4,66.7c-0.2,0.3-0.3,0.7-0.4,1c-0.1,0.2,0.2,0.2,0.2,0.1c0.1-0.3,0.3-0.7,0.3-1
		C142.5,66.8,142.5,66.7,142.4,66.7C142.4,66.7,142.4,66.7,142.4,66.7L142.4,66.7z"/>
	<path class="st13" d="M137.4,66.3c0.9-0.1,1.7-0.3,2.6-0.5l-0.1-0.2c-0.5,0.4-0.9,0.9-1.3,1.4c-0.1,0.1,0.1,0.3,0.2,0.2
		c0.4-0.5,0.8-1,1.3-1.4c0.1-0.1,0-0.2-0.1-0.2C139,65.7,138.2,65.9,137.4,66.3C137.4,66.2,137.4,66.3,137.4,66.3L137.4,66.3z"/>
	<path class="st13" d="M138.7,67.2c0.6,0.2,1.3,0.2,1.9,0.1c0.1,0,0.1-0.2,0-0.2c-0.6,0-1.2,0-1.8,0C138.8,67,138.7,67.1,138.7,67.2
		L138.7,67.2z"/>
	<path class="st13" d="M140.6,67.3c-0.2,0.2-0.4,0.4-0.5,0.7c0,0.1,0.1,0.2,0.1,0.1c0.2-0.2,0.3-0.5,0.5-0.7
		C140.7,67.3,140.7,67.2,140.6,67.3z"/>
	<path class="st13" d="M144.5,94.2c-0.3,0.5-0.6,1-0.9,1.5c0,0.1,0,0.1,0,0.1c0,0,0,0,0.1,0c0.7-0.2,1.4-0.2,2-0.4
		c0.1,0,0.1-0.2,0-0.2c-0.7,0-1.4,0.1-2.1,0.3l0.1,0.2C144,95.4,144.3,94.9,144.5,94.2C144.6,94.2,144.6,94.2,144.5,94.2L144.5,94.2
		z"/>
	<path class="st13" d="M145.8,95.5c-0.4,0.6-0.8,1.3-1.1,2c-0.1,0.1,0.1,0.2,0.2,0.1C145.3,96.9,145.6,96.2,145.8,95.5
		C145.9,95.5,145.9,95.5,145.8,95.5L145.8,95.5z"/>
	<path class="st13" d="M144.9,97.6c0.8-0.1,1.5-0.3,2.3-0.5c0.1,0,0.1-0.1,0.1-0.1c0-0.1-0.1-0.1-0.1-0.1c-0.8,0.1-1.5,0.4-2.3,0.6
		C144.8,97.4,144.8,97.6,144.9,97.6L144.9,97.6z"/>
	<path class="st13" d="M147,96.9c-0.4,0.5-0.8,1-1,1.6c0,0,0,0.1,0.1,0.1c0,0,0.1,0,0.1,0c0.4-0.5,0.8-1,1-1.6c0,0,0-0.1,0-0.1
		C147.1,96.9,147.1,96.9,147,96.9L147,96.9z"/>
	<path class="st13" d="M143,96.6c0.5,0.1,1,0.1,1.5-0.2c0.1,0,0-0.1,0-0.1C144,96.4,143.5,96.4,143,96.6C143,96.6,143,96.6,143,96.6
		L143,96.6z"/>
	<path class="st13" d="M144.6,96.3c-0.4,0.6-0.7,1.3-0.9,2c-0.1,0.1,0.1,0.2,0.2,0.1C144.2,97.7,144.4,97.1,144.6,96.3L144.6,96.3z"
		/>
	<path class="st13" d="M143.7,98.3c0.5,0,1.1,0,1.6-0.1c0,0,0.1,0,0.1-0.1c0,0,0-0.1-0.1-0.1C144.8,98,144.3,98.1,143.7,98.3
		C143.8,98.2,143.8,98.3,143.7,98.3L143.7,98.3z"/>
	<path class="st13" d="M145.3,98.1c-0.1,0.2-0.2,0.4-0.3,0.7c0,0,0,0.1,0,0.1s0.1,0,0.1,0C145.2,98.6,145.3,98.4,145.3,98.1
		C145.3,98.1,145.3,98,145.3,98.1L145.3,98.1z"/>
	<path class="st13" d="M128.9,129.1c-0.6,0.7-1.2,1.4-1.8,2.1c-0.1,0.1,0,0.1,0,0.2c0,0,0,0,0.1,0c1.1,0.1,2.1,0,3.2-0.1
		c0.2,0,0.1-0.2,0-0.3c-1-0.1-2.1,0-3.1,0.1l0.1,0.2c0.6-0.7,1.1-1.5,1.7-2.2C129,129.2,129,129.1,128.9,129.1L128.9,129.1z"/>
	<path class="st13" d="M130.4,131.1c-0.6,0.6-1.1,1.3-1.6,1.9c-0.1,0.1,0.1,0.3,0.2,0.2c0.5-0.6,1.1-1.3,1.6-2
		C130.6,131.1,130.5,131,130.4,131.1L130.4,131.1z"/>
	<path class="st13" d="M128.8,133.3c0.5,0,1,0,1.6-0.1c0.5,0,0.9,0,1.4-0.2c0.1,0,0.1-0.1,0-0.1c-0.5,0-1,0-1.5,0.1
		c-0.5,0-1,0.1-1.5,0.2C128.7,133.1,128.7,133.2,128.8,133.3C128.7,133.2,128.7,133.3,128.8,133.3L128.8,133.3z"/>
	<path class="st13" d="M131.6,132.9c-0.4,0.3-0.8,0.7-1.1,1.1c-0.1,0.1,0.1,0.3,0.2,0.1c0.3-0.4,0.6-0.8,1-1.1
		C131.7,132.9,131.7,132.8,131.6,132.9L131.6,132.9z"/>
	<path class="st13" d="M126.2,132.4c0.7,0.2,1.4,0.2,2.1,0.1c0.1,0,0.1-0.2,0-0.2c-0.7-0.2-1.3-0.2-2-0.2
		C126.2,132.2,126.2,132.4,126.2,132.4L126.2,132.4z"/>
	<path class="st13" d="M128.2,132.3c-0.5,0.4-1,0.8-1.3,1.3c0,0.1,0,0.2,0.1,0.1C127.5,133.4,127.9,132.9,128.2,132.3
		C128.2,132.4,128.2,132.3,128.2,132.3z"/>
	<path class="st13" d="M126.9,133.8c0.6,0.2,1.2,0.3,1.9,0.3c0.1,0,0.1-0.1,0.1-0.1c0,0,0-0.1-0.1-0.1c-0.6-0.1-1.2-0.2-1.9-0.2
		C126.8,133.7,126.8,133.7,126.9,133.8C126.8,133.7,126.8,133.8,126.9,133.8L126.9,133.8z"/>
	<path class="st13" d="M128.8,128.7c-0.9,0.8-1.6,1.7-2.1,2.8c0,0.1,0.1,0.2,0.2,0.1c0.3-0.4,0.6-0.9,0.9-1.4
		S128.5,129.2,128.8,128.7C128.9,128.8,128.9,128.7,128.8,128.7z"/>
	<path class="st13" d="M127.5,130.5c0.7-0.3,1.3-0.9,1.6-1.6c0-0.1-0.1-0.1-0.1,0C128.6,129.6,128.1,130.1,127.5,130.5L127.5,130.5z
		"/>
	<path class="st13" d="M128.2,129.9c0.3-0.3,0.6-0.6,0.9-1c0.1-0.1-0.1-0.3-0.2-0.2C128.6,129.1,128.4,129.5,128.2,129.9
		C128.1,129.9,128.1,130,128.2,129.9L128.2,129.9z"/>
	<path class="st13" d="M128.9,129c-0.3-1.3-2.2-0.4-1.6,0.4c0,0.1,0.1,0.1,0.2,0c0,0,0,0,0,0c0.1-0.2,0.1-0.4,0.2-0.5
		c0.3-0.2,0.7-0.2,0.9,0.1c0,0,0,0.1,0.1,0.1C128.7,129.1,128.8,129.1,128.9,129C128.9,129.1,128.9,129,128.9,129L128.9,129z"/>
	<path class="st13" d="M128.6,128.9c-0.3-0.2-0.7-0.2-1.1,0c-0.3,0.2-0.4,0.6-0.3,0.9c0,0.1,0.1,0.1,0.2,0c0,0,0,0,0,0
		c0.2-0.4,0.4-0.9,1-0.7C128.6,129.1,128.7,129,128.6,128.9L128.6,128.9z"/>
	<path class="st13" d="M128.2,128.9c-0.5,0.2-1.1,0.6-1.1,1.2c0,0.1,0.2,0.2,0.3,0.1c0.2-0.5,0.3-0.9,0.8-1.1
		C128.5,129.1,128.4,128.9,128.2,128.9z"/>
	<path class="st13" d="M128.2,129c-0.6,0.3-1.4,1.1-1.2,1.8c0,0.1,0.1,0.1,0.2,0.1c0,0,0,0,0.1-0.1c0.1-0.3,0.2-0.6,0.3-0.9
		c0.2-0.3,0.5-0.6,0.8-0.7C128.6,129.1,128.4,128.9,128.2,129L128.2,129z"/>
	<path class="st13" d="M127.7,128.8c-0.7,0.7-1,1.6-1.1,2.6c0,0.2,0.3,0.2,0.3,0.1c0.1-0.4,0.1-0.8,0.3-1.1c0.2-0.5,0.4-0.9,0.7-1.2
		C128,128.9,127.8,128.7,127.7,128.8z"/>
	<path class="st13" d="M127.2,129.4c-0.5,0.8-0.8,1.7-0.9,2.6c0,0.2,0.2,0.2,0.3,0c0.2-0.9,0.5-1.7,0.9-2.5
		C127.5,129.3,127.3,129.1,127.2,129.4L127.2,129.4z"/>
	<path class="st13" d="M126.7,130.9c-0.2,0.3-0.3,0.7-0.2,1.1c0,0.1,0.2,0.1,0.2,0c0-0.3,0.1-0.7,0.2-1
		C126.9,130.9,126.8,130.8,126.7,130.9L126.7,130.9z"/>
	<path class="st13" d="M126.5,132c0.6,0.2,1.2,0.3,1.8,0.2c0.1,0,0.1-0.1,0.1-0.2c0,0,0-0.1-0.1-0.1c-0.6-0.2-1.2-0.3-1.8-0.2
		C126.4,131.8,126.4,131.9,126.5,132C126.4,132,126.5,132,126.5,132z"/>
	<path class="st13" d="M128.3,132.2c-0.2,0.2-0.3,0.5-0.4,0.7s-0.3,0.4-0.5,0.7c0,0.1,0.1,0.2,0.2,0.1c0.5-0.4,0.8-0.9,0.9-1.5
		C128.4,132.2,128.3,132.1,128.3,132.2z"/>
	<path class="st13" d="M126.3,132.3c0.5,0.2,1,0.3,1.6,0.2c0,0,0.1-0.1,0-0.1c0,0,0,0,0,0c-0.5-0.2-1-0.3-1.6-0.2
		C126.3,132.1,126.2,132.2,126.3,132.3C126.3,132.2,126.3,132.3,126.3,132.3z"/>
	<path class="st13" d="M127.5,133.2c-0.2,0.1-0.3,0.3-0.2,0.5c0,0.1,0.1,0,0.1,0C127.4,133.5,127.5,133.4,127.5,133.2
		C127.6,133.3,127.6,133.2,127.5,133.2C127.6,133.2,127.5,133.2,127.5,133.2L127.5,133.2z"/>
	<path class="st13" d="M127.8,130.2c0.1-0.2,0.3-0.4,0.3-0.7c0,0,0-0.1-0.1-0.1c0,0-0.1,0-0.1,0c-0.1,0.2-0.3,0.4-0.3,0.7
		C127.7,130.2,127.8,130.3,127.8,130.2z"/>
	<path class="st13" d="M128.1,130c0.2-0.2,0.4-0.4,0.5-0.7c0-0.1-0.1-0.1-0.1-0.1c-0.2,0.2-0.4,0.4-0.5,0.7
		C127.9,130,128,130.1,128.1,130L128.1,130z"/>
	<path class="st13" d="M126.6,131.8c0.4,0.4,0.9,0.2,1.4,0.1c0.7-0.1,1.3-0.2,2-0.3c0.1,0,0.1-0.1,0.1-0.2c0-0.1-0.1-0.1-0.1-0.1
		c-1.1,0-2.2,0.3-3.2,0.4C126.7,131.6,126.7,131.7,126.6,131.8C126.7,131.7,126.7,131.7,126.6,131.8L126.6,131.8z"/>
	<path class="st13" d="M126.6,131.6c0.5,0.2,1,0.3,1.6,0.2c0.1,0,0.1-0.1,0.1-0.2c0,0,0-0.1-0.1-0.1c-0.5,0-1,0-1.5-0.1
		C126.6,131.5,126.5,131.6,126.6,131.6L126.6,131.6z"/>
	<path class="st13" d="M128.3,131.7c0,0.3,0,0.6-0.1,0.9c-0.1,0.2-0.2,0.5-0.3,0.7c0,0.1,0.1,0.2,0.2,0.1c0.5-0.4,0.7-1.1,0.4-1.7
		C128.4,131.6,128.3,131.6,128.3,131.7L128.3,131.7z"/>
	<path class="st13" d="M129.8,131.6c-0.4,0.2-0.7,0.5-1,0.9l-1.1,1.1c-0.1,0.1,0.1,0.3,0.2,0.2c0.4-0.4,0.8-0.8,1.1-1.2
		C129.4,132.3,129.7,132,129.8,131.6L129.8,131.6L129.8,131.6z"/>
	<path class="st13" d="M128.5,132.8c0.4-0.3,0.8-0.7,1.1-1.1c0-0.1,0-0.2-0.1-0.2c-0.1,0-0.1,0-0.2,0c-0.3,0.1-0.6,0.3-0.9,0.6
		c0,0,0,0.1,0,0.2c0,0,0.1,0,0.1,0c0.3-0.1,0.6-0.3,0.9-0.4l-0.2-0.2c-0.2,0.4-0.5,0.8-0.9,1.1C128.3,132.7,128.4,132.9,128.5,132.8
		L128.5,132.8z"/>
	<path class="st13" d="M129.1,131.9c-0.2,0.2-0.4,0.4-0.5,0.6c0,0.1,0,0.1,0.1,0.1c0.2-0.1,0.4-0.3,0.5-0.5
		C129.3,132,129.2,131.8,129.1,131.9z"/>
	<path class="st13" d="M128.4,131.9c0,0.2,0.1,0.5,0.1,0.7s0.4,0.2,0.3-0.1s-0.2-0.5-0.3-0.7C128.6,131.8,128.4,131.8,128.4,131.9
		L128.4,131.9z"/>
	<path class="st13" d="M128,133.6c0.4,0.4,1,0.6,1.6,0.6c0.1,0,0.2-0.1,0.2-0.2c0-0.1,0-0.1-0.1-0.1c-0.5-0.3-1.1-0.4-1.6-0.4
		C128,133.5,128,133.5,128,133.6C128,133.6,128,133.6,128,133.6z"/>
	<path class="st13" d="M129.6,134.1c0.5-0.1,0.9-0.4,1.2-0.8c0-0.1,0-0.1-0.1-0.1c0,0-0.1,0-0.1,0c-0.4,0.2-0.7,0.6-1.1,0.8
		C129.5,134,129.5,134,129.6,134.1C129.5,134.1,129.5,134.1,129.6,134.1L129.6,134.1z"/>
	<path class="st13" d="M130.6,133.3c-0.7-0.1-1.4-0.1-2.2-0.2c-0.2,0-0.3,0.4-0.1,0.4c0.7,0.1,1.5,0.1,2.2-0.1
		C130.6,133.4,130.7,133.4,130.6,133.3C130.7,133.3,130.6,133.3,130.6,133.3L130.6,133.3z"/>
	<path class="st13" d="M128.7,133.5c0.4,0.3,0.8,0.5,1.3,0.5c0.1,0,0.1-0.1,0.1-0.2c0-0.1-0.1-0.1-0.1-0.1c-0.4-0.1-0.9-0.2-1.3-0.3
		c0,0-0.1,0-0.2,0C128.6,133.4,128.6,133.5,128.7,133.5C128.6,133.5,128.7,133.5,128.7,133.5L128.7,133.5z"/>
	<path class="st13" d="M129.8,133.9c0.4,0.1,0.9-0.1,1.1-0.5c0-0.1,0-0.2-0.1-0.2c-0.1,0-0.2,0-0.2,0.1c-0.2,0.3-0.5,0.5-0.8,0.5
		C129.7,133.7,129.7,133.8,129.8,133.9z"/>
	<path class="st13" d="M130.6,133.3c-0.3,0.2-0.5,0.4-0.6,0.7c0,0.1,0.1,0.1,0.1,0.1c0.3-0.2,0.5-0.4,0.6-0.7
		C130.8,133.4,130.7,133.2,130.6,133.3z"/>
	<path class="st13" d="M130.4,133.9c0.2-0.1,0.3-0.3,0.5-0.5c0-0.1,0-0.2-0.1-0.1C130.5,133.5,130.4,133.6,130.4,133.9
		C130.3,133.9,130.3,134,130.4,133.9z"/>
	<path class="st13" d="M130.7,133.4c0.1,0,0.2,0,0.2-0.1c0.1-0.1,0-0.2-0.1-0.2c-0.1,0-0.2,0.1-0.2,0.1
		C130.6,133.3,130.7,133.4,130.7,133.4L130.7,133.4z"/>
	<path class="st13" d="M130.1,133.3c-0.1,0.3-0.2,0.6-0.3,0.9c0,0.1,0.2,0.2,0.2,0.1C130.2,134,130.2,133.6,130.1,133.3
		C130.2,133.3,130.1,133.3,130.1,133.3L130.1,133.3z"/>
	<path class="st13" d="M144.4,94.1c0.1-0.5-0.6-0.4-0.8-0.1c-0.4,0.7-0.6,1.6-0.5,2.4c0,0.1,0.1,0.1,0.2,0.1c0,0,0.1-0.1,0.1-0.1
		c0-0.4,0.1-0.8,0.1-1.2c0-0.1,0.4-1.6,0.8-1.1C144.3,94.2,144.4,94.2,144.4,94.1z"/>
	<path class="st13" d="M143.2,96.4c0.4,0.2,0.9,0.2,1.4,0c0,0,0.1-0.1,0-0.1c0,0,0,0,0,0C144.1,96.2,143.7,96.2,143.2,96.4
		C143.2,96.3,143.2,96.4,143.2,96.4L143.2,96.4z"/>
	<path class="st13" d="M144.5,96.2c-0.3,0.5-0.4,1.1-0.6,1.6c0,0.1,0,0.1,0.1,0.1c0.1,0,0.1,0,0.1-0.1c0.2-0.5,0.4-1.1,0.5-1.6
		C144.6,96.2,144.6,96.2,144.5,96.2C144.5,96.2,144.5,96.2,144.5,96.2L144.5,96.2z"/>
	<path class="st13" d="M144.1,98c0.5,0.1,1,0.1,1.5,0c0,0,0.1-0.1,0-0.1c0,0,0,0,0,0c-0.5-0.1-1-0.1-1.5,0C144,97.8,144,98,144.1,98
		L144.1,98z"/>
	<path class="st13" d="M145.5,97.9c-0.1,0.2-0.2,0.4-0.2,0.7c0,0,0.1,0.1,0.1,0.1c0,0,0,0,0.1-0.1c0.1-0.2,0.1-0.4,0.2-0.7
		C145.6,97.9,145.5,97.8,145.5,97.9C145.5,97.9,145.5,97.9,145.5,97.9L145.5,97.9z"/>
	<path class="st13" d="M144,98.1c0.3,0,0.5-0.1,0.8-0.1c0,0,0.1,0,0.1-0.1c0,0,0-0.1-0.1-0.1c-0.3,0-0.5,0.1-0.8,0.2
		C144,98,143.9,98,144,98.1C143.9,98.1,144,98.1,144,98.1z"/>
	<path class="st13" d="M145.6,98.5c0.1,0,0.2,0,0.3-0.1c0,0,0.1-0.1,0-0.1c0,0-0.1,0-0.1,0c-0.1,0-0.2,0.1-0.3,0.1
		C145.4,98.4,145.4,98.5,145.6,98.5C145.5,98.5,145.5,98.5,145.6,98.5z"/>
	<path class="st13" d="M145.8,98.5c0.3-0.4,0.5-0.8,0.8-1.1c0.1-0.1-0.1-0.3-0.2-0.2c-0.4,0.3-0.6,0.8-0.7,1.3
		C145.6,98.5,145.7,98.5,145.8,98.5L145.8,98.5z"/>
	<path class="st13" d="M146.3,97.3c-0.2,0.3-0.4,0.6-0.6,1s0.2,0.4,0.3,0.1c0,0,0-0.1,0-0.1c0,0-0.1,0-0.1,0c0.1,0.1,0.2,0.1,0.2,0
		l0.1-0.3c0.1-0.2,0.1-0.4,0.2-0.5c0,0,0-0.1-0.1-0.1c0,0-0.1,0-0.1,0L146.3,97.3z"/>
	<path class="st13" d="M146.7,97.1c-0.4,0-0.8,0.1-1.1,0.2c-0.4,0.1-0.9,0.2-1.3,0.2c-0.2,0-0.1,0.3,0,0.3
		C145.1,97.9,146,97.7,146.7,97.1C146.7,97.2,146.7,97.1,146.7,97.1z"/>
	<path class="st13" d="M144.6,97.7c0.5-0.6,0.8-1.3,1.1-2.1c0-0.1-0.1-0.2-0.2-0.1C145.1,96.1,144.7,96.9,144.6,97.7
		C144.5,97.7,144.6,97.7,144.6,97.7L144.6,97.7z"/>
	<path class="st13" d="M145.5,95.6c-0.4,0.1-0.7,0.2-1.1,0.3c-0.3,0-0.7,0.1-1,0.2c-0.1,0-0.1,0.1,0,0.2c0,0,0,0,0,0
		c0.6,0.4,1.7-0.2,2.2-0.6C145.6,95.7,145.6,95.7,145.5,95.6C145.5,95.6,145.5,95.6,145.5,95.6L145.5,95.6z"/>
	<path class="st13" d="M143.3,96.1c0.3-0.3,0.5-0.6,0.7-1c0.2-0.4,0.4-0.7,0.6-1.1c0.1-0.2-0.2-0.2-0.3-0.1
		c-0.2,0.4-0.5,0.8-0.6,1.2C143.4,95.4,143.3,95.8,143.3,96.1L143.3,96.1L143.3,96.1z"/>
	<path class="st13" d="M144,94c-0.4,0.5-0.6,1.1-0.6,1.8c0,0.1,0.1,0.2,0.2,0.1C143.8,95.3,144,94.6,144,94L144,94z"/>
	<path class="st13" d="M143.7,95.3c-0.3,0.2-0.3,0.5-0.2,0.8c0,0,0.1,0.1,0.1,0c0,0,0,0,0,0C143.6,95.9,143.7,95.6,143.7,95.3
		C143.8,95.4,143.8,95.3,143.7,95.3L143.7,95.3z"/>
	<path class="st13" d="M143.7,96.1c0.5,0,0.9,0,1.4-0.2c0,0,0.1-0.1,0.1-0.1c0,0,0,0-0.1-0.1c-0.5,0-0.9,0-1.4,0.2
		C143.6,95.9,143.6,95.9,143.7,96.1C143.6,96,143.6,96.1,143.7,96.1z"/>
	<path class="st13" d="M145,96.1c-0.3,0.5-0.5,1-0.6,1.5c0,0.1,0.2,0.2,0.2,0.1c0.3-0.5,0.4-1,0.5-1.6C145.1,96.1,145,96.1,145,96.1
		L145,96.1z"/>
	<path class="st13" d="M144.7,96.1c-0.2,0.4-0.2,0.8-0.2,1.2c0,0,0.1,0.1,0.1,0c0,0,0,0,0,0C144.8,97,144.8,96.5,144.7,96.1
		C144.8,96.1,144.7,96.1,144.7,96.1z"/>
	<path class="st13" d="M145.6,97.7c-0.1,0.2-0.2,0.5-0.1,0.8c0,0.1,0.1,0.1,0.2,0.1c0,0,0.1,0,0.1-0.1c0.1-0.3,0.1-0.5,0-0.8
		C145.7,97.7,145.6,97.7,145.6,97.7L145.6,97.7z"/>
	<path class="st13" d="M144.5,97.6c0-0.3,0.1-0.5,0.3-0.8c0-0.1,0-0.1-0.1-0.2c0,0-0.1,0-0.1,0c-0.2,0.3-0.2,0.6-0.2,0.9
		C144.3,97.6,144.3,97.7,144.5,97.6C144.4,97.7,144.5,97.7,144.5,97.6C144.5,97.6,144.5,97.6,144.5,97.6z"/>
	<path class="st13" d="M146.5,97.4c-0.2,0.3-0.4,0.6-0.6,0.9c-0.1,0.1,0.1,0.3,0.2,0.2c0.2-0.3,0.4-0.6,0.5-1
		C146.6,97.3,146.5,97.2,146.5,97.4L146.5,97.4z"/>
	<path class="st13" d="M145.7,97.6c-0.1,0.2-0.1,0.5-0.2,0.7c0,0.2,0.2,0.2,0.2,0c0.1-0.2,0.1-0.4,0.2-0.7
		C145.9,97.5,145.7,97.4,145.7,97.6L145.7,97.6z"/>
	<path class="st13" d="M139.2,62.9c-0.9,0.8-1.4,1.8-1.4,3c0,0.2,0.3,0.2,0.3,0c0.1-0.6,0.2-1.2,0.5-1.7
		C138.8,63.7,139.1,63.3,139.2,62.9C139.2,62.9,139.2,62.8,139.2,62.9L139.2,62.9z"/>
	<path class="st13" d="M137.8,65.9c1-0.1,2-0.3,3-0.6c0.1,0,0.1-0.3,0-0.3c-1,0.1-2,0.3-3,0.7C137.8,65.8,137.8,65.9,137.8,65.9z"/>
	<path class="st13" d="M138.6,65.5c0.2-0.4,0.5-0.9,0.6-1.3c0.2-0.4,0.4-0.9,0.5-1.4c0-0.1,0-0.1-0.1-0.1c-0.1,0-0.1,0-0.1,0.1
		c-0.2,0.4-0.4,0.8-0.6,1.3C138.8,64.4,138.7,64.9,138.6,65.5C138.6,65.4,138.6,65.5,138.6,65.5L138.6,65.5z"/>
	<path class="st13" d="M139.8,62.9c-0.3,0.4-0.6,0.8-0.8,1.3c-0.2,0.3-0.3,0.7-0.3,1.2c0,0,0.1,0,0.1,0c0,0,0,0,0,0
		c0.2-0.3,0.3-0.6,0.4-1c0.2-0.5,0.4-0.9,0.6-1.4C139.9,62.8,139.8,62.7,139.8,62.9L139.8,62.9z"/>
	<path class="st13" d="M138.2,65.5c0.3-0.3,0.6-0.8,0.8-1.2c0.2-0.4,0.4-0.9,0.6-1.3c0.1-0.2-0.2-0.3-0.4-0.2
		c-0.3,0.5-0.5,1-0.7,1.5C138.4,64.6,138.2,65.1,138.2,65.5L138.2,65.5L138.2,65.5z"/>
	<path class="st13" d="M139.8,62.8c-0.1,0.2-0.1,0.5-0.2,0.7c0,0,0,0.1,0.1,0.1c0,0,0.1,0,0.1,0c0.2-0.2,0.3-0.5,0.2-0.8
		C140,62.7,139.8,62.7,139.8,62.8L139.8,62.8z"/>
	<path class="st13" d="M138.7,64.4c-0.3,0.3-0.6,0.8-0.3,1.2c0,0,0.1,0.1,0.2,0c0,0,0-0.1,0-0.1c0-0.4-0.1-0.7,0.2-1
		C138.9,64.5,138.8,64.4,138.7,64.4L138.7,64.4z"/>
	<path class="st13" d="M140.9,65c-0.4,0.7-0.8,1.3-1.3,1.9c-0.1,0.1,0.1,0.3,0.2,0.2C140.4,66.5,140.8,65.8,140.9,65L140.9,65z"/>
	<path class="st13" d="M140.5,65.4c-0.4,0.5-0.7,1-1.1,1.5c-0.1,0.2,0.1,0.4,0.2,0.2C140.1,66.6,140.4,66.1,140.5,65.4
		C140.6,65.5,140.6,65.4,140.5,65.4L140.5,65.4z"/>
	<path class="st13" d="M140.4,65.5c-0.3,0.2-0.5,0.5-0.7,0.8c-0.2,0.2-0.4,0.4-0.5,0.6c0,0.1,0.1,0.1,0.1,0.1
		C139.8,66.7,140.3,66.1,140.4,65.5L140.4,65.5z"/>
	<path class="st13" d="M139,67c0.3,0.1,0.6,0,0.8-0.3c0,0,0-0.1,0-0.1c0,0,0,0-0.1,0c-0.2,0-0.4,0.2-0.7,0.2S138.9,67,139,67z"/>
	<path class="st13" d="M140.1,66.1c0.1-0.2,0.2-0.5,0.4-0.7c0.1-0.1-0.1-0.2-0.1-0.1c-0.2,0.2-0.3,0.5-0.3,0.8
		C140,66.1,140.1,66.1,140.1,66.1L140.1,66.1z"/>
	<path class="st13" d="M139.2,66.9c0.2-0.1,0.3-0.2,0.5-0.4c0,0,0-0.1,0-0.1c0,0-0.1,0-0.1,0c-0.2,0.1-0.3,0.2-0.5,0.4
		C139.1,66.9,139.1,66.9,139.2,66.9z"/>
	<path class="st13" d="M138.2,65.7c0.1-0.2,0.3-0.3,0.3-0.5c0-0.1-0.1-0.1-0.1-0.1c-0.1,0.1-0.3,0.3-0.4,0.5
		C138.1,65.6,138.1,65.7,138.2,65.7L138.2,65.7z"/>
	<path class="st13" d="M140.9,65.3c0.2-0.2,0.3-0.4,0.5-0.6l0,0C141.2,64.9,141,65.1,140.9,65.3C140.7,65.4,140.9,65.4,140.9,65.3
		L140.9,65.3z"/>
	<path class="st13" d="M140.9,65.2L140.9,65.2L140.9,65.2L140.9,65.2C140.9,65.2,140.9,65.3,140.9,65.2L140.9,65.2z"/>
	<path class="st13" d="M140.9,65.2c0.1-0.1,0.3-0.2,0.4-0.3c0,0,0-0.1,0,0L140.9,65.2C140.8,65.2,140.9,65.3,140.9,65.2L140.9,65.2z
		"/>
	<path class="st13" d="M140.7,67.1c0,0.2-0.1,0.5-0.1,0.8c0,0,0,0.1,0,0.2s0.2,0.1,0.3,0.1c0,0,0.1,0,0.1-0.1V68c0,0,0-0.1,0-0.1
		h-0.1c0,0-0.1,0-0.1,0h-0.1 M140.7,68c0.2,0.1,0.1-0.8,0.1-0.8c0,0,0-0.1-0.1-0.1c0,0-0.1,0-0.1,0.1L140.7,68z"/>
	<path class="st13" d="M140.9,67.1c-0.1,0.2-0.1,0.5-0.1,0.7c0,0.1,0.1,0.1,0.1,0.1s0.1-0.1,0.1-0.1c0,0,0,0,0,0c0-0.2,0-0.5,0-0.7
		C141,67,140.9,67,140.9,67.1L140.9,67.1z"/>
	<path class="st13" d="M140.9,67.2c0,0.2,0,0.5,0.1,0.7c0,0.1,0.2,0.1,0.2,0c0-0.2,0-0.5,0-0.7C141.2,67,140.9,67,140.9,67.2
		L140.9,67.2z"/>
	<path class="st13" d="M141.3,67c-0.1,0.3-0.2,0.5-0.2,0.8c0,0.3,0.5,0.1,0.3-0.1c0,0,0-0.1,0-0.2C141.4,67.3,141.4,67.2,141.3,67
		C141.4,67,141.3,67,141.3,67L141.3,67z"/>
	<path class="st13" d="M141.4,67.1c-0.1,0.2-0.1,0.4,0,0.6c0,0.1,0.1,0.1,0.1,0.1c0,0,0,0,0.1-0.1c0.1-0.2,0.1-0.4,0.1-0.7
		C141.7,66.9,141.4,66.9,141.4,67.1L141.4,67.1z"/>
	<path class="st13" d="M142,67.1c-0.2,0.2-0.4,0.4-0.3,0.8c0,0,0.1,0,0.1,0c0,0,0,0,0,0c0.2-0.2,0.2-0.5,0.4-0.7S142.1,67,142,67.1
		L142,67.1z"/>
	<path class="st13" d="M141.8,67c-0.1,0.2-0.2,0.4-0.1,0.7c0,0,0.1,0,0.1,0c0,0,0,0,0,0c0.2-0.2,0.1-0.4,0.1-0.7
		C141.9,66.9,141.9,66.9,141.8,67C141.8,66.9,141.8,66.9,141.8,67L141.8,67z"/>
	<path class="st13" d="M142.1,66.9c-0.5-0.1-0.9,0-1.4,0.1c-0.1,0-0.2,0.1-0.1,0.3c0,0.1,0.1,0.1,0.2,0.1c0.5,0,0.9-0.1,1.4-0.3
		C142.2,67,142.1,66.9,142.1,66.9L142.1,66.9z"/>
	<path class="st13" d="M141.1,67c0.3,0,0.6,0,0.9,0c0.1,0,0.1-0.1,0.1-0.2c0,0,0-0.1-0.1-0.1c-0.3,0-0.6,0-0.9,0
		c-0.1,0-0.1,0.1-0.1,0.1C141,67,141,67,141.1,67L141.1,67z"/>
	<path class="st13" d="M141,67.6c0.2,0.2,0.4,0.3,0.6,0.2c0.1,0,0.1-0.2,0-0.2c-0.2,0-0.3-0.1-0.5-0.1C141.1,67.5,141,67.6,141,67.6
		L141,67.6z"/>
	<path class="st13" d="M140.8,67.9c0.2,0,0.4,0,0.7,0c0.1,0,0.2-0.2,0-0.2c-0.2-0.1-0.5-0.1-0.7-0.1
		C140.6,67.6,140.6,67.9,140.8,67.9L140.8,67.9z"/>
	<path class="st13" d="M140.8,67.8c0.3,0.1,0.7,0.1,0.9-0.2c0.1-0.1,0-0.2-0.1-0.1c-0.3,0.1-0.6,0.2-0.9,0.2
		C140.8,67.7,140.8,67.8,140.8,67.8L140.8,67.8z"/>
	<path class="st13" d="M142,67c-0.2,0.2-0.3,0.4-0.3,0.7c0,0.1,0.1,0.1,0.2,0C142,67.5,142.1,67.2,142,67L142,67z"/>
	<path class="st13" d="M141.6,67.6c-0.2,0.2-0.5,0.3-0.8,0.2V68c0.2-0.1,0.3-0.1,0.5-0.2c0.1-0.1,0-0.2-0.1-0.2
		c-0.2,0-0.3,0.1-0.5,0.2c-0.1,0-0.1,0.1-0.1,0.2c0,0,0,0.1,0.1,0.1c0.4,0.1,0.7-0.1,1-0.3C141.8,67.7,141.7,67.5,141.6,67.6
		L141.6,67.6z"/>
	<path class="st13" d="M140.7,67.9c0.1,0,0.3,0,0.4-0.1c0,0,0.1-0.1,0-0.1c0,0,0,0,0,0c-0.1-0.1-0.3-0.1-0.4,0c-0.1,0-0.1,0-0.1,0.1
		S140.7,67.9,140.7,67.9L140.7,67.9z"/>
	<path class="st13" d="M140.7,67.7c0.1,0.2,0.4,0.3,0.6,0.1c0.1,0,0.1-0.1,0.1-0.1c0,0,0-0.1,0-0.1c0,0,0,0-0.1,0
		c-0.2,0.1-0.4,0.1-0.6,0L140.7,67.7z"/>
	<path class="st13" d="M142,67c-0.1,0.3-0.2,0.7-0.3,1c0,0.1,0,0.1,0.1,0.2c0.1,0,0.1,0,0.2-0.1c0.1-0.3,0.1-0.7,0.1-1
		C142.1,67,142,67,142,67L142,67z"/>
	<path class="st13" d="M140.9,67.6L140.9,67.6c-0.1,0-0.2,0-0.2,0.1c0,0,0,0,0,0v0.1c0,0.1,0,0.1,0.1,0.1h0.1c0,0,0.1,0,0.1-0.1
		c0,0,0,0,0-0.1C141,67.8,140.9,67.6,140.9,67.6L140.9,67.6z"/>
	<path class="st12" d="M45.4,9.6c-5.2-4.9-12-8.2-19.1-9.3c-2-0.3-4.1-0.4-6.1-0.4c0,0,0-0.5,0-0.5c7.2-0.2,14.4,1.9,20.4,5.9
		c1.7,1.1,3.3,2.4,4.8,3.8C45.2,8.9,45.5,9.8,45.4,9.6z"/>
</g>
</svg>
