<svg id="illustration" xmlns="http://www.w3.org/2000/svg" viewBox="0 0 198.43 145.6"><defs><style>.cls-1{fill:#cbebf3;}.cls-2{fill:#223369;}.cls-3{fill:#8d5322;}.cls-4{fill:#ef3c23;}.cls-5{fill:#c3db67;}.cls-6{fill:#e58435;}.cls-7{fill:#efbd93;opacity:0.74;}.cls-8{fill:#f0e936;}.cls-9{fill:#fba919;stroke:#223369;stroke-miterlimit:10;}.cls-10{fill:#fff;}.cls-11{fill:#822319;}.cls-12{fill:#e8aa9a;}.cls-13{fill:#af766b;}.cls-14{fill:#010101;}</style></defs><path class="cls-1" d="M60.26,85l35-16.21,29.35,14.61,1.08,1.94-.91.7-4.92,49.56s-14.27,4.27-24.93,5-25.26-3.1-25.26-3.1L60.89,86.69l-2-.38Z"/><path class="cls-1" d="M124.79,86,124,92.18s10.11,4.87,9.51,14.71-8.89,14.13-10.92,14.24l-2,.1.17,5.17s9-.1,13.25-6.88,9-11.45,1.89-26.45C131.28,86.18,124.79,86,124.79,86Z"/><path class="cls-2" d="M97.81,108.53c3.09-.45,6-1.24,9.15-1a28,28,0,0,1,8.85,2.35c.53.22.87-.64.39-.91-5.1-2.82-13.29-3.76-18.48-.64a.12.12,0,0,0,.09.21Z"/><path class="cls-2" d="M110.62,106.88C106.81,105,95,105,95,111.23a.45.45,0,0,0,.89.12c1.51-5.91,10.17-4.31,14.68-4.41,0,0,0,0,0-.06Z"/><path class="cls-2" d="M111.06,107.17a28,28,0,0,1,3.29,1.28c1,.53,1.72,1.35,2.68,1.86a.43.43,0,0,0,.58-.58c-1-2-4.43-3.36-6.55-3-.21,0-.16.32,0,.39Z"/><path class="cls-2" d="M117,108.47c-1.07,2.71-.93,5.74-1.88,8.48-1.28,3.72-5.4,3.71-8.69,3.87-3.12.15-6.42-.14-8.46-2.8-1.88-2.44-1.7-5-1-7.82a.58.58,0,0,0-1-.45c-1.6,2.41-1,5.9.39,8.26,1.84,3,5.12,4.14,8.52,4.2,3,.05,7.38,0,9.78-2.15a7.61,7.61,0,0,0,2.1-4.32,32.32,32.32,0,0,0,1-7.17.37.37,0,0,0-.73-.1Z"/><path class="cls-2" d="M108.68,120.58c5.27,1.36,8.66-6.78,7.75-10.85-.13-.59-.9-.48-1.08,0-.81,2.14-.51,4.43-1.7,6.51a9,9,0,0,1-5,3.8c-.24.1-.29.47,0,.54Z"/><path class="cls-2" d="M115.29,118.48a2.73,2.73,0,0,1-.64,1.07c-.27.25-.62.36-.85.66a.35.35,0,0,0,.21.51c1,.15,1.92-1.26,1.93-2.15,0-.4-.52-.42-.65-.09Z"/><path class="cls-2" d="M109.32,120.36a3.12,3.12,0,0,1-1.51-.47c-.44-.31-.88.43-.42.72a1.94,1.94,0,0,0,2,.11c.13-.09.14-.33,0-.36Z"/><path class="cls-2" d="M97.42,119.08a5.61,5.61,0,0,1-.9-2.27c-.09-.33-.3-1-.77-.68s-.28,1.36-.08,1.84a2.67,2.67,0,0,0,1.52,1.41.19.19,0,0,0,.23-.3Z"/><path class="cls-2" d="M101.84,106.78a5.56,5.56,0,0,1,2.36-.35,6.72,6.72,0,0,1,2.37.84.46.46,0,0,0,.54-.72c-1.3-1.68-4-1.31-5.45-.09-.14.12,0,.4.18.32Z"/><path class="cls-2" d="M109.66,106.93a8.86,8.86,0,0,0,3.36,1.32c1.29.34,2.76,1,4.1.84a.42.42,0,0,0,.21-.77c-1.09-.8-2.69-.93-4-1.25a8.65,8.65,0,0,0-3.59-.47.2.2,0,0,0-.09.33Z"/><path class="cls-2" d="M95.78,108.41a4.82,4.82,0,0,0-.82,1.31c-.18.41.39.77.62.36a5.18,5.18,0,0,0,.58-1.45c0-.21-.22-.41-.38-.22Z"/><path class="cls-2" d="M95.53,112.49c-.26-2.19-3.62-2.48-4.87-1-.45.52.17,1.51.8,1,1.27-1,2.43-.6,3.65.24a.28.28,0,0,0,.42-.24Z"/><path class="cls-2" d="M96.37,108.91a8.34,8.34,0,0,0-3.1-.55c-1.07,0-2.32-.28-3.29.25a.58.58,0,0,0,0,1c1,.52,2.22.26,3.29.22a8.15,8.15,0,0,0,3.1-.56.2.2,0,0,0,0-.35Z"/><path class="cls-2" d="M95,109.15a2.84,2.84,0,0,0,1.88-.46c.72-.36.09-1.44-.63-1.08a2.79,2.79,0,0,0-1.44,1.22.26.26,0,0,0,.19.32Z"/><path class="cls-2" d="M94.59,109.27l-.45,1.23,1.13.3c-.07-.41-.14-.83-.23-1.24a.71.71,0,0,0-.67-.51l-.74,0a.72.72,0,0,0-.68.51l-.55.69,1,.25a3.14,3.14,0,0,0-1.58-1.45.76.76,0,0,0-1,.26,2.38,2.38,0,0,0-.34,1.8h1.47c-.46-3.47-6-4.31-8.78-4.82a32.37,32.37,0,0,0-13.85.52.92.92,0,0,0,.49,1.77,32.41,32.41,0,0,1,10.1-.89c2.08.14,10.2.86,10.6,3.61.12.82,1.53.63,1.44-.19l.13-1.06-1,.26,1.09.91a.71.71,0,0,0,1,.25A2,2,0,0,0,94.3,110l-.67.52.74,0-.67-.51.27,1.23c.14.63.91.58,1.24.16a1.9,1.9,0,0,0,.22-2.28c-.19-.43-.83-.19-.84.23Z"/><path class="cls-2" d="M75.84,106.2a6.72,6.72,0,0,0,2.28.35,17.77,17.77,0,0,1,3.15.64.62.62,0,0,0,.33-1.2c-1.56-.64-4.36-1.23-5.8-.09a.19.19,0,0,0,0,.3Z"/><path class="cls-2" d="M74.56,106.58c-2.38,1.27-2.94,4.6-2.43,7,.68,3.27,3.39,5.67,6.33,7s6.72,2,9.48-.06,3.2-6,3.36-9.27c0-1.1-1.61-1.07-1.7,0-.2,2.48-.42,5.42-2.29,7.29-2.22,2.22-5.85,1.44-8.39.28a9,9,0,0,1-5.16-5.32c-.74-2.47.1-4.32,1.31-6.4a.38.38,0,0,0-.51-.52Z"/><path class="cls-2" d="M90.87,112.32c-.27,1.87-.28,3.87-1.18,5.58-1,1.88-2.4,2.3-4.25,2.95a.42.42,0,0,0,0,.8c1.71.7,3.64-.78,4.58-2.12,1.42-2,1.6-4.75,1.41-7.13,0-.3-.51-.42-.56-.08Z"/><path class="cls-2" d="M79,120c-6.74-.35-6.25-7.41-5.25-12.23.16-.77-1-1.11-1.19-.33-.8,3.32-1.48,7.1.3,10.24,1.24,2.19,3.69,3.72,6.22,2.92A.31.31,0,0,0,79,120Z"/><path class="cls-2" d="M73.11,108.28c-.83-1-2.91-1.09-4-.61-.61.25-.64,1.39.17,1.29a14.66,14.66,0,0,1,2-.22,8.73,8.73,0,0,0,1.77,0,.29.29,0,0,0,.13-.47Z"/><path class="cls-2" d="M71.91,108.58a6.76,6.76,0,0,0,.36,3.34c.17.37.65.14.68-.18a6.65,6.65,0,0,0-.79-3.23c-.06-.14-.24-.05-.25.07Z"/><path class="cls-2" d="M77.79,120.56a1.21,1.21,0,0,0,1,.52,7.2,7.2,0,0,0,1.46.12c.7,0,.93-1.11.18-1.29a7.93,7.93,0,0,0-1.46-.13,1.28,1.28,0,0,0-1.14.34.39.39,0,0,0-.06.44Z"/><polygon class="cls-3" points="78.68 48.11 79.44 40.24 81.01 32.97 86.52 27.09 93.45 24.44 99.53 23.61 108.66 26.32 116.99 33.23 120.41 36.78 121.7 42.55 121.74 46.9 97.12 54.86 78.68 48.11"/><polygon class="cls-4" points="60.68 83.53 59.39 73.68 61.84 64.93 66.53 56.99 73.82 50.65 82.05 47.83 91.45 50.78 98.8 57.48 101.39 67.96 100.84 76.3 99.54 79.7 96.8 83.36 91.96 84.79 88.65 86.31 87.08 87.84 85.99 91.48 86.07 94.51 86.33 98.3 85.96 100.35 83.25 99.07 83.25 96.42 83.76 88.82 81.83 85.53 80.26 85.29 77.32 85.08 75.3 84.38 73.61 84.76 71.37 86.9 71.26 89.37 71.26 93.08 71.65 94.88 69.96 96.38 68.52 93.73 67.95 89.65 66.92 86.43 64.94 82.83 63.45 85.79 60.68 83.53"/><polygon class="cls-5" points="125.24 52.8 122.21 47.59 117.34 44.85 113.6 43.5 108.16 44.12 104.53 45.71 101.39 47.83 98.8 50.34 97.69 52.8 97.12 54.86 99.35 59.05 100.28 63.48 101.78 69.01 101.44 73.27 100.84 76.3 99.54 79.7 97.69 82.37 99.52 83.38 101.39 83.84 103.28 83.62 105.2 84.43 107.16 87.2 107.89 92.51 108.97 100.41 111.6 100.47 112.86 98.42 111.78 92.92 111.05 89.27 112.32 83.84 113.89 82.27 116.5 81.7 117.92 81.59 119.76 82.83 121.56 83.84 123.79 83.18 125.58 79.92 125.82 77.52 128.48 75.4 130.35 71.6 130.49 67.96 129.43 64.69 128.95 62.79 125.24 52.8"/><path class="cls-6" d="M80.92,36.86l.07.06a1.29,1.29,0,0,0,.49.26l.78.22a1.2,1.2,0,0,0,.42,0l1.66-.1,1.5-.1a1.24,1.24,0,0,1,.47.06l1,.33a1.2,1.2,0,0,1,.6.41l.37.44a1.35,1.35,0,0,1,.24.48l.27,1s0,.06,0,.09l.34,1.79a1.29,1.29,0,0,0,.08.28l.42.94a1.33,1.33,0,0,0,.42.52l.33.24a1.26,1.26,0,0,0,1.2.16l.25-.09a1.27,1.27,0,0,0,.77-.84l.3-1a1.28,1.28,0,0,0,0-.84l-.55-1.36,0-.08-.67-2-.4-1.33a1.57,1.57,0,0,1,0-.3l-.13-2.49a1.61,1.61,0,0,1,.06-.44l.24-.8a1.62,1.62,0,0,1,.17-.35l.36-.51a1.18,1.18,0,0,1,.44-.39l1-.54a.94.94,0,0,1,.23-.1l.61-.19a1.28,1.28,0,0,1,1.36.41l.4.49.11.15,1,1.59.2.87,1.22-.56.81,3.16.19.47c.33.81,1.26,2.81,2,.48h0a1.22,1.22,0,0,1,.59-.29l.33-.07c.7-.13.88-.13,1.87.58l.06.6-.09,1.88a1.24,1.24,0,0,0,.83,1l.8.29a1.33,1.33,0,0,0,.74,0l.5-.12a1.28,1.28,0,0,0,.83-.66l.36-.7a.92.92,0,0,0,.09-.23l.63-2.19a1.59,1.59,0,0,1,.12-.27L109.8,36a1.3,1.3,0,0,1,.83-.62L112,35l2.31-.43.1,0,1.11-.3a1.47,1.47,0,0,0,.4-.19l.45-.33a1.26,1.26,0,0,0,.54-1V31.38a1.28,1.28,0,0,0-.37-.9l-.69-.7a1.41,1.41,0,0,0-.46-.3l-1.43-.54a.89.89,0,0,1-.29-.15l-1.48-1a1.33,1.33,0,0,0-.42-.19l-15-3.89a1.75,1.75,0,0,0-.32,0H94.22a1.26,1.26,0,0,0-.33.05l-1.82.49-.08,0-2.82,1a1.36,1.36,0,0,0-.39.22l-1.64,1.32a1,1,0,0,1-.15.11L84.89,28a1.38,1.38,0,0,0-.46.47l-.8,1.42a1.88,1.88,0,0,1-.16.23l-1.24,1.38a1.36,1.36,0,0,0-.24.38l-.48,1.21-.94,2.28A1.3,1.3,0,0,0,80.92,36.86Z"/><polygon class="cls-6" points="64.22 60.9 67.88 54.86 73.82 50.65 78.68 48.11 85.34 48.11 90.41 49.99 95.78 54.06 99.35 59.05 99.67 60.58 90.62 57.9 89.5 62.79 88.32 65.61 86.54 64.93 85.68 63.14 86.05 60.56 86.19 58.57 84.4 57.23 82.58 57.07 80.39 57.57 78.23 58.82 76.04 60.49 75.19 62.79 74.94 66.32 76.18 70.41 75.35 72.8 72.11 72.46 70.82 70.23 70.82 66.6 70.97 64.93 70.22 62.29 68.83 61.05 66.7 61.34 64.22 60.9"/><polygon class="cls-6" points="97.2 54.55 97.69 52.8 98.43 51.34 99.67 49.63 100.48 48.7 101.39 47.83 104.53 45.71 110.44 43.73 113.6 43.5 115.47 44.35 118.21 45.34 120.33 46.59 122.41 48.96 125.24 52.8 128.95 62.79 120.42 56.26 118.45 54.87 116.14 54.12 113.14 54.72 111.42 56.99 111.09 59.05 111.46 62.79 111.69 66.16 110.93 67.96 107.78 66.1 108.44 62.29 108.48 60.45 107.62 57.74 104.89 54.72 101.39 53.66 98.66 54.13 97.2 54.55"/><path class="cls-7" d="M98.23,27.46l11.27,2.91,15-15.41A18.36,18.36,0,0,0,111.24,5.7,34,34,0,0,0,93.77,7.45Z"/><path class="cls-8" d="M122,55.09l16-10.28s2,5.5,1.18,9.78A48.27,48.27,0,0,1,135.92,64l-12.27-2.7S123,56.61,122,55.09Z"/><path class="cls-9" d="M97.19,109s5.09-1.34,8.53-1.86,9.42,2.34,9.42,2.34a5.92,5.92,0,0,1,.75,3.55c-.06,2.46-3.82,6.92-7.13,7.28s-10.25.92-12-3.24A10.08,10.08,0,0,1,97.19,109Z"/><path class="cls-9" d="M74.6,107.43s2.2-1.37,6.83-.84,9,3.81,9,3.81,2.19,6.42-1.79,8.42-10.75,3.33-15.08-3.59C72.05,111.26,74.6,107.43,74.6,107.43Z"/><path class="cls-10" d="M104.63,107.9V108a.27.27,0,0,0,.21.2,18.28,18.28,0,0,0,2,.16c.38,0,.37-.55,0-.58-.62-.06-1.26-.15-1.89-.15a.32.32,0,0,0-.28.22.13.13,0,0,0,0,.09Z"/><path class="cls-10" d="M104.9,107.66c-1,.89-2.23,2.52-2.16,3.94s1,2.32.85,3.74c-.17,1.62-1.43,3.15-2.11,4.61a.13.13,0,0,0,.23.13c1-1.68,2.57-3.37,2.62-5.43a5,5,0,0,0-.47-1.86c-.43-1.28-.55-1.73,0-2.86.38-.73.84-1.39,1.2-2.13a.12.12,0,0,0-.19-.14Z"/><path class="cls-10" d="M101.83,119.74h0a.07.07,0,0,0,0,.13h0c.13,0,.13-.18,0-.15Z"/><path class="cls-10" d="M101.72,119.89c.07.4.72.51,1.06.58a2.46,2.46,0,0,0,1.49.06.25.25,0,0,0,0-.43,1.86,1.86,0,0,0-.81-.19c-.35,0-.7-.13-1-.18-.1,0-.75-.15-.69.16Z"/><path class="cls-10" d="M104.35,120.41a31.51,31.51,0,0,0,1.8-3.91,5,5,0,0,0,.67-2.33,2.28,2.28,0,0,0-.51-1.24c-.1-.19-.48-.19-.57-.38-1.07-2-.28-3,1-4.28a.29.29,0,0,0-.42-.41c-1,.94-3.09,3-2.14,4.61.77,1.28,1.92,0,1.78,2.65-.09,1.68-1.58,3.42-2,5.11a.24.24,0,0,0,.44.18Z"/><path class="cls-10" d="M105.84,107.89a4,4,0,0,0-1.43,1.71c-.26.6-.67,1.5-.27,2.1a.44.44,0,0,0,.67.08c.45-.4.44-1.19.63-1.75s.49-1.25.75-1.87a.24.24,0,0,0-.35-.27Z"/><path class="cls-10" d="M105,108a4,4,0,0,0-1.85,2.89c-.11.85,0,3,1,3.39s.73-1.13.6-1.62a4.18,4.18,0,0,1,0-2.5,8.74,8.74,0,0,0,.52-2A.17.17,0,0,0,105,108Z"/><path class="cls-10" d="M104.13,112.41c-.18,1.09-.22,2.18-.46,3.25a7.22,7.22,0,0,0-.45,2.82.5.5,0,0,0,.83.22,5.62,5.62,0,0,0,1.16-3.16,4.62,4.62,0,0,0-.46-3.21c-.14-.22-.57-.22-.62.08Z"/><path class="cls-10" d="M102.28,119.87a4.93,4.93,0,0,0,2.19-2.34c.41-.76-.76-1.43-1.15-.67-.24.47-.45,1-.72,1.41a4.43,4.43,0,0,0-.6,1.31c0,.16.11.36.28.29Z"/><path class="cls-10" d="M102.88,119.87c.52.18,1.1-.38,1.39-.75a3.37,3.37,0,0,0,.86-1.8c.05-.72-.92-.86-1.27-.34a6.64,6.64,0,0,0-.4.9c-.14.3-.32.58-.47.87s-.57,1-.11,1.12Z"/><path class="cls-10" d="M103.75,120.16c1.28-.38,1.76-2,2.09-3.21s.89-3.11-.09-4a.47.47,0,0,0-.67,0c-.76.85-.42,2.28-.66,3.36s-1.17,2.36-1,3.55a.29.29,0,0,0,.35.27Z"/><path class="cls-10" d="M81.41,107.07a3.23,3.23,0,0,0-1.76,3.68c.39,1.8,1.66,2.54,1.11,4.7-.35,1.43-1.27,2.66-1.63,4.11-.08.29.33.39.44.12.73-1.84,2-3.53,2.2-5.55.27-2.4-2.76-4.71-.1-6.62a.26.26,0,0,0-.26-.44Z"/><path class="cls-10" d="M79.21,119.76c.1.41.67.57,1,.71a1.69,1.69,0,0,0,1.5.09.33.33,0,0,0,0-.56,2.92,2.92,0,0,0-1.25-.17c-.38,0-.83-.32-1.19-.2a.11.11,0,0,0-.08.13Z"/><path class="cls-10" d="M81.83,120.19A17.21,17.21,0,0,0,84,114.1a3.75,3.75,0,0,0-.31-1.56c-.42-1.5-.42.69-.59-2.07a3.31,3.31,0,0,1,.76-2.88.36.36,0,0,0-.56-.44c-1.1,1.14-2.21,2.74-1.6,4.39.48,1.29,1.6,1.61,1.38,3.26s-1.28,3.47-1.55,5.27c0,.16.19.28.28.12Z"/><path class="cls-10" d="M83.21,107c-.58-.19-1.54-.5-2.08-.11a.28.28,0,0,0,0,.49,1.67,1.67,0,0,0,.89.13,10.36,10.36,0,0,1,1.11.08c.35,0,.38-.49.08-.59Z"/><path class="cls-10" d="M81.07,107.14a.56.56,0,0,0-.55.55.13.13,0,0,0,.22.09,6.08,6.08,0,0,0,.39-.47c.05-.06,0-.17-.06-.17Z"/><path class="cls-10" d="M81,107a.73.73,0,0,0-.23.63.12.12,0,0,0,.23.06.74.74,0,0,0,.12-.66.07.07,0,0,0-.12,0Z"/><path class="cls-10" d="M81.52,107.43a2.18,2.18,0,0,0-1,1.64,3.71,3.71,0,0,0,.49,2.41.53.53,0,0,0,1-.13c.12-.64-.22-1.14-.36-1.77a3.45,3.45,0,0,1-.07-1.11,4.73,4.73,0,0,0,.18-.91.14.14,0,0,0-.18-.13Z"/><path class="cls-10" d="M82.5,107.71c-1.6.52-2,2.77-1.67,4.2.2.93,1.65.54,1.43-.4a4.4,4.4,0,0,1,0-1.91c.11-.58.39-1.09.52-1.66a.19.19,0,0,0-.24-.23Z"/><path class="cls-10" d="M82.54,107.2a3.28,3.28,0,0,0-1.87,1.5,3.07,3.07,0,0,0-.13,2.78.71.71,0,0,0,1.32-.36,6.5,6.5,0,0,1,0-1.92,3.48,3.48,0,0,1,.91-1.59c.18-.16,0-.5-.23-.41Z"/><path class="cls-10" d="M82.66,107.45c-3.24,1.48-2.07,5.81-1,8.28.24.55,1,.29,1.15-.16.47-1.18-.33-2.2-.58-3.36-.33-1.56.4-2.76,1.06-4.11a.48.48,0,0,0-.65-.65Z"/><path class="cls-10" d="M82,112.67c-.1.78.13,1.54,0,2.33s-.68,1.49-.49,2.22a.48.48,0,0,0,.58.33c1-.19,1.2-1.64,1.25-2.46a2.7,2.7,0,0,0-1-2.59.29.29,0,0,0-.41.17Z"/><path class="cls-10" d="M82.36,115.45a13.36,13.36,0,0,0-1.06,2.06,3.39,3.39,0,0,0-.39,2.14.5.5,0,0,0,.82.22,3.47,3.47,0,0,0,.84-2,13.57,13.57,0,0,0,.23-2.29.24.24,0,0,0-.44-.12Z"/><path class="cls-10" d="M81.12,119.63c-.36-.31-.91-.63-1.37-.38a.37.37,0,0,0-.16.41l0,.11a.51.51,0,0,0,.35.35,1.3,1.3,0,0,0,1.15-.2.21.21,0,0,0,0-.29Z"/><path class="cls-10" d="M80,119.46c.44-.71,1.07-1.26,1.46-2a3,3,0,0,0,.38-2c-.12-.68-1.32-.53-1.22.17a4.89,4.89,0,0,1-.36,2.32c-.18.48-.66,1.12-.14,1.58,1.06.93,1.75-1.3,1.46-2a.33.33,0,0,0-.54-.14,10.66,10.66,0,0,0-.61,1.24l.43,0-.12-.06.27.48c0-.21.27-.64.35-.84s.19-.56.27-.84a15.2,15.2,0,0,0,.23-1.78l-1.22.17a3.25,3.25,0,0,1-.5,1.67c-.22.57-.3,1.2-.54,1.76a.23.23,0,0,0,.4.23Z"/><path class="cls-10" d="M91.14,115.65A7.38,7.38,0,0,1,89.27,120c-.08.11,0,.31.17.21a5.86,5.86,0,0,0,2.11-4.59.21.21,0,0,0-.41,0Z"/><path class="cls-10" d="M72.13,111.3a5.47,5.47,0,0,1-.1-2.38A2.84,2.84,0,0,1,74,107c.16,0,.1-.31-.07-.26-1.68.56-3.43,3-2,4.65a.1.1,0,0,0,.18-.07Z"/><path class="cls-10" d="M96.19,117.86A3.19,3.19,0,0,0,98,120.72a6.54,6.54,0,0,0,2,.54c.75.11,1.49.34,2.24.42a.2.2,0,0,0,.14-.33,5.23,5.23,0,0,0-2.76-.83,3.66,3.66,0,0,1-3.14-2.71.18.18,0,0,0-.36,0Z"/><path class="cls-10" d="M113.16,120.7a4.05,4.05,0,0,0,2.62-3c0-.08-.1-.15-.14-.06a5.9,5.9,0,0,1-1.07,1.6,7.22,7.22,0,0,1-1.53,1.17.15.15,0,0,0,.12.28Z"/><path class="cls-10" d="M102.77,106.71a48.92,48.92,0,0,1,7,.5c.2,0,.29-.27.08-.32a15.29,15.29,0,0,0-7.14-.33.08.08,0,0,0,0,.15Z"/><path class="cls-10" d="M116.07,109c.29.11.43.23.45.55s-.06.38-.06.59.17.21.26.1a1.08,1.08,0,0,0,.08-1.26c-.18-.25-.53-.42-.78-.16a.11.11,0,0,0,0,.18Z"/><path class="cls-10" d="M92.18,109.84l0-.08s-.06,0,0,0l0,.09a0,0,0,0,0,.06,0Z"/><path class="cls-10" d="M92.05,109.74a2,2,0,0,0,0,.93.62.62,0,0,0,.69.48c.29,0,.58.26.82,0a.89.89,0,0,0,.13-.5,2.13,2.13,0,0,1,.44-1,.27.27,0,0,0-.32-.42,2.21,2.21,0,0,1-1.31.25c-.41,0-.42.7,0,.65a4.59,4.59,0,0,0,1.58-.43l-.37-.37a3.21,3.21,0,0,0-.39.7,8.21,8.21,0,0,1-.19.81h.27c-.14-.06-.21-.15-.37-.18s-.32.08-.44-.06,0-.39-.06-.5a.48.48,0,0,0-.17-.31.23.23,0,0,0-.26,0l-.07,0Z"/><path class="cls-10" d="M92.76,109.94a.45.45,0,0,0-.18.58.31.31,0,0,0,.28.22.44.44,0,0,0,.13-.87.49.49,0,0,0-.3.92.52.52,0,0,0,.6-.83c-.42-.45-1.19.08-.86.61a.3.3,0,0,0,.52,0c.1-.14,0-.28-.17-.4l.28.07-.06-.16c.06-.15-.14-.22-.24-.14Z"/><path class="cls-10" d="M93.47,110.07l.06,0-.29-.5a1,1,0,0,0-.51.52.29.29,0,0,0,.39.39,1.05,1.05,0,0,0,.51-.51.29.29,0,0,0-.45-.35.44.44,0,0,0-.19.3.26.26,0,0,0,.48.19Z"/><path class="cls-10" d="M92.59,109.55a.62.62,0,0,0-.53-.19.25.25,0,0,0,0,.5.63.63,0,0,0,.53-.19.09.09,0,0,0,0-.12Z"/><path class="cls-10" d="M91.73,109.57a1.85,1.85,0,0,0,.34,1.12.24.24,0,0,0,.36,0,1,1,0,0,0-.45-1.21.17.17,0,0,0-.25.14Z"/><path class="cls-10" d="M87.48,128.47c3.08,1.71,7.88.2,10.74-1.34.46-.25,0-.91-.41-.7a18,18,0,0,1-6,1.67c-1.44.12-2.91-.13-4.33.12a.14.14,0,0,0,0,.25Z"/><path class="cls-10" d="M97.71,126.49a2.3,2.3,0,0,0-.51,1.29,4,4,0,0,0-.09,1.49.4.4,0,0,0,.77,0A7.88,7.88,0,0,0,98,127.9a3.06,3.06,0,0,0,.06-1.31.24.24,0,0,0-.39-.1Z"/><path class="cls-10" d="M97.4,129.13c-2.68-1.57-6.79-.39-9.4.78-.59.26-.08,1.1.5.85a16.71,16.71,0,0,1,5.15-1.32,35.88,35.88,0,0,0,3.74-.17c.06,0,.07-.11,0-.14Z"/><path class="cls-10" d="M87.59,128.67a1.62,1.62,0,0,0,.11.65,2.12,2.12,0,0,0,.22.7.32.32,0,0,0,.58-.08,1.23,1.23,0,0,0-.77-1.38.12.12,0,0,0-.14.11Z"/><path class="cls-10" d="M87.73,129.5a18.84,18.84,0,0,0,6.18,0c1.35-.16,2.6-.32,3.46-1.46l-.93-.54a2.16,2.16,0,0,0-.25,1.73c.12.55,1,.44,1-.13l.19-1.06c.32-.56-.39-1-.85-.65-1.28,1-3.43.94-5,1.08a32.23,32.23,0,0,0-3.81.47.27.27,0,0,0,0,.52Z"/><path class="cls-10" d="M97.68,129.34a3,3,0,0,0-1.91-.71c-.61,0-1.6-.07-1.89.56a.42.42,0,0,0,.14.54c.48.34,1.19,0,1.75,0a12.26,12.26,0,0,0,1.82-.07.19.19,0,0,0,.09-.31Z"/><path class="cls-10" d="M97.17,129.4c-1.57-.3-3.78-.87-5.27-.06a.32.32,0,0,0,.08.57,7.2,7.2,0,0,0,2.41.06c.9,0,1.81-.1,2.71-.09.27,0,.34-.42.07-.48Z"/><path class="cls-10" d="M91.36,129.6a2.77,2.77,0,0,0-2.91.75c-.11.15.07.35.23.3.46-.13.84-.43,1.3-.57s.92-.17,1.36-.32c.06,0,.1-.13,0-.16Z"/><path class="cls-10" d="M89,129.12a4.34,4.34,0,0,0-1,.09.14.14,0,0,0,0,.27,4.41,4.41,0,0,0,1-.1c.15,0,.12-.27,0-.26Z"/><path class="cls-10" d="M88.27,129.12l.29-.07a.05.05,0,0,0,0-.1l-.3.05c-.08,0,0,.15,0,.12Z"/><path class="cls-10" d="M89.73,129.33a7.81,7.81,0,0,0,1.28,0c.15,0,.15-.27,0-.3a9.13,9.13,0,0,0-1.28-.05.18.18,0,0,0,0,.36Z"/><path class="cls-10" d="M92.58,129.37l.47-.11c.12,0,.07-.19,0-.18l-.48.07c-.14,0-.09.25.06.22Z"/><path class="cls-10" d="M91.79,129.41a9,9,0,0,0,3-.3c.15-.06.19-.3,0-.34a9.34,9.34,0,0,0-3,.11c-.33,0-.35.54,0,.53Z"/><path class="cls-10" d="M94.45,129.23l.39-.14a.14.14,0,0,0-.08-.27l-.4.09c-.22,0-.12.39.09.32Z"/><path class="cls-10" d="M135.16,98.76c0,1.56.46,3.09.56,4.65a19.45,19.45,0,0,1-.32,5.22c-.73,3.5-2.61,5.94-4.25,9-.3.55.33,1.31.91.91,5.14-3.54,8-15,4-20.12-.29-.38-.89,0-.9.37Z"/><path class="cls-10" d="M120.13,112.26a49.54,49.54,0,0,0-.86,6.07c-.25,2.24-.83,4.68-.59,6.92a.33.33,0,0,0,.64.09,25.35,25.35,0,0,0,.86-6.09,44.65,44.65,0,0,0,.36-6.93c0-.23-.35-.3-.41-.06Z"/><path class="cls-10" d="M122.55,88.77a46.68,46.68,0,0,0-1.2,7.65c-.37,2.85-.92,5.7-1.18,8.56,0,.56.9.69,1,.14.4-2.56.54-5.18.83-7.75.32-2.81.94-5.74.79-8.57,0-.12-.19-.15-.22,0Z"/><path class="cls-10" d="M110.56,46.65a1,1,0,0,0,0-1.92,1,1,0,0,0,0,1.92Z"/><path class="cls-10" d="M113.28,46c3.06.33,4.76,2.11,6.74,4.25.45.48,1.16-.24.72-.73-1.87-2.09-4.47-4.59-7.53-4.07-.33.06-.21.52.07.55Z"/><path class="cls-10" d="M78.57,51.43c2.56.59,5.29.15,7.9.61s4.74,1.72,7.07,3.08c.77.45,1.41-.54.9-1.17C91.26,50,83.07,49.11,78.57,50.58a.44.44,0,0,0,0,.85Z"/><path class="cls-10" d="M112.3,31a5.88,5.88,0,0,1,1.18,1.21c.42.61.33,1.49.69,2a10.38,10.38,0,0,0,1.64,1.44,10.6,10.6,0,0,1,2.09,2.66c.58,1,.77,2.21,1.4,3.21a.41.41,0,0,0,.75-.21c.3-2.31-1.76-5-3.41-6.5a4.84,4.84,0,0,1-1.73-2.17,3.94,3.94,0,0,0-2.16-2.26c-.35-.15-.81.29-.45.59Z"/><path class="cls-10" d="M107.45,7.51A18.9,18.9,0,0,1,113.68,10a17,17,0,0,1,4.64,5.45c.39.63,1.5.23,1.25-.53-1.51-4.61-7.14-8.57-12-8.23a.43.43,0,0,0-.11.84Z"/><path class="cls-10" d="M119.33,15.32a38.12,38.12,0,0,0-2.88,3.47,17.09,17.09,0,0,0-2.5,3.78c-.21.53.52.83.88.51a17.29,17.29,0,0,0,2.51-3.46,36.72,36.72,0,0,0,2.32-4c.1-.21-.15-.44-.33-.26Z"/><path class="cls-10" d="M126.52,53.32a66.94,66.94,0,0,0,8.38-4c.17-.1.07-.4-.14-.33a69,69,0,0,0-8.45,4c-.24.12,0,.46.21.35Z"/><path class="cls-10" d="M127.62,55.66l3.74-1.88A17.64,17.64,0,0,0,134.59,52c.18-.15,0-.45-.23-.39a18,18,0,0,0-3.29,1.71l-3.62,2.1c-.18.1,0,.37.17.28Z"/><path class="cls-10" d="M137.23,47a19.86,19.86,0,0,1,0,7.45c-.43,2.14-1.31,4.27-1.46,6.44,0,.48.63.59.86.23,1.56-2.44,2.09-6.12,2.4-9,.2-1.88.3-4.26-1.44-5.42-.2-.13-.39.09-.37.28Z"/><path class="cls-10" d="M128.43,60a13.27,13.27,0,0,0,2.74-.16,5.37,5.37,0,0,0,2.18-.47.32.32,0,0,0-.08-.58,5.4,5.4,0,0,0-2.22.16,13,13,0,0,0-2.68.62.22.22,0,0,0,.06.43Z"/><path class="cls-10" d="M128.93,57.08a9.86,9.86,0,0,0,2.64-.82,8.43,8.43,0,0,0,2.24-1.08.18.18,0,0,0-.13-.31,9.26,9.26,0,0,0-2.64.85,9,9,0,0,0-2.21,1.1.15.15,0,0,0,.1.26Z"/><path class="cls-10" d="M129.19,61.93a7.07,7.07,0,0,1,2,.12,10.37,10.37,0,0,0,1.63.37A.24.24,0,0,0,133,62c-1-.84-2.69-.72-3.86-.53-.26,0-.2.47.06.45Z"/><path class="cls-10" d="M109.22,64.47a1.59,1.59,0,0,0,.82,2c.63.28,1.18-.59.55-1a1.25,1.25,0,0,1-.66-.9.36.36,0,0,0-.71-.1Z"/><path class="cls-10" d="M71.74,69a2.05,2.05,0,0,0,.91,2.44c.7.41,2.17.57,2.62-.29a.46.46,0,0,0-.39-.68c-.58,0-1,.37-1.62.09a1.86,1.86,0,0,1-1-1.48.29.29,0,0,0-.57-.08Z"/><path class="cls-10" d="M90.66,40.84a1.68,1.68,0,0,0-.44,1,1.16,1.16,0,0,0,.6,1c.69.37,1.72-.26,1.3-1.06a.51.51,0,0,0-.67-.17.6.6,0,0,0-.15.09c-.15.09,0,.07,0,0a4.08,4.08,0,0,1-.11-.7.27.27,0,0,0-.5-.14Z"/><path class="cls-10" d="M86.39,63.45a1.18,1.18,0,0,0,2.29.39c.18-.46-.5-.83-.82-.48s-.52.43-.7,0a.39.39,0,0,0-.77.11Z"/><path class="cls-10" d="M105.55,39.33a1.07,1.07,0,0,0,.4,1.4,1.25,1.25,0,0,0,1.67-.38c.43-.56-.44-1.07-.9-.7s-.58.11-.74-.26a.24.24,0,0,0-.43-.06Z"/><path class="cls-10" d="M67.52,58.14c.93-1,1.66-2.25,2.69-3.24a29.42,29.42,0,0,1,3.69-2.68c.16-.11.07-.4-.14-.33a11.47,11.47,0,0,0-6.41,6.16.1.1,0,0,0,.17.09Z"/><path class="cls-10" d="M62.09,79.53c-.72-5,.56-8.77,3-13.07.19-.35-.29-.75-.57-.44-3.1,3.56-3.84,9.14-2.68,13.58,0,.18.29.1.27-.07Z"/><path class="cls-10" d="M98.07,63.13c.43,2.43,1.44,4.47,1.31,7S98.17,74.64,97.43,77a.29.29,0,0,0,.48.27c3.23-3,3.71-11.15.49-14.34a.2.2,0,0,0-.33.19Z"/><path class="cls-10" d="M125.8,64.57c.45,2.35,1.46,4.18.91,6.69-.48,2.19-2,3.53-3.13,5.33a.4.4,0,0,0,.44.58c4.45-1.55,6.14-9.94,2.37-12.94a.36.36,0,0,0-.59.34Z"/><path class="cls-10" d="M123.2,82.54c.84-.37,1.94-1.56,1.68-2.56a.34.34,0,0,0-.61-.08,10.81,10.81,0,0,0-.51,1.2,5.48,5.48,0,0,1-.85,1.07c-.2.21,0,.47.29.37Z"/><path class="cls-10" d="M110.73,84.76c.5-.59.92-1.24,1.46-1.8a17.41,17.41,0,0,0,1.6-1.49c.13-.17-.09-.4-.27-.34a4.25,4.25,0,0,0-1.83,1.48,5.73,5.73,0,0,0-1.17,2c0,.11.13.22.21.12Z"/><path class="cls-11" d="M88.29,131.31c1.47.14,3-.38,4.51-.49s3-.1,4.58-.07c.47,0,.46-.68,0-.72a27.72,27.72,0,0,0-5.23.19,9.56,9.56,0,0,0-3.89,1c-.06,0,0,.1,0,.11Z"/><path class="cls-11" d="M88.11,130.93a.05.05,0,0,0,0-.1.05.05,0,1,0,0,.1Z"/><path class="cls-11" d="M88.16,131.24a.26.26,0,0,0,0-.51.26.26,0,0,0,0,.51Z"/><path class="cls-11" d="M88.54,131.16A1.9,1.9,0,0,0,89.8,131a.27.27,0,0,0-.13-.5,1.94,1.94,0,0,0-1.18.48.12.12,0,0,0,.05.2Z"/><path class="cls-11" d="M88.66,131.08a.26.26,0,0,0,0-.52.26.26,0,0,0,0,.52Z"/><path class="cls-11" d="M88.18,131a8.2,8.2,0,0,0,.76,2.69,5.69,5.69,0,0,0,1.28,2.26.3.3,0,0,0,.5-.29,14.33,14.33,0,0,0-1.16-2.23c-.4-.82-.65-1.7-1.06-2.51a.17.17,0,0,0-.32.08Z"/><path class="cls-11" d="M90.88,135.63a.05.05,0,0,0,0-.1.05.05,0,1,0,0,.1Z"/><path class="cls-11" d="M90.45,135.94a3.52,3.52,0,0,0,4.9.36c1.82-1.37,2.42-3.78,2.7-5.93,0-.34-.4-.52-.66-.37l-.12.07a.38.38,0,0,0,.09.68l.14,0-.31-.53c-.38,1.59-.58,3.31-1.68,4.61a3.15,3.15,0,0,1-4.59.6.33.33,0,0,0-.47.47Z"/><path class="cls-11" d="M88.58,131.29l0,.18a.07.07,0,0,0,.13,0v-.19c0-.12-.2-.1-.17,0Z"/><path class="cls-11" d="M88.66,132.09a7.28,7.28,0,0,0,3.45.35c1.47,0,2.94,0,4.41-.08,1.14,0,1.14-1.81,0-1.76q-2.2.09-4.41.21a7.43,7.43,0,0,0-3.45.56.42.42,0,0,0,0,.72Z"/><path class="cls-11" d="M95.91,132c-1.14.91-1.13,2.68-2.7,3.24-2.18.78-2.13-1.8-3.08-2.92a.55.55,0,0,0-.91.25,3.67,3.67,0,0,0,3.68,4.2c2-.22,4-2.6,3.71-4.59-.06-.34-.49-.36-.7-.18Z"/><path class="cls-11" d="M89.52,132.83a8.24,8.24,0,0,0,3.25.49c1,.06,2.14.4,2.93-.3a.52.52,0,0,0,0-.71c-.69-.72-1.79-.5-2.72-.52a8.56,8.56,0,0,0-3.35.16.49.49,0,0,0-.11.88Z"/><path class="cls-11" d="M95.26,132.87c-.7-.13-1.16.48-1.57,1s-.82.91-1.39.48c-.39-.3-.41-.88-.78-1.22a.54.54,0,0,0-.91.38,2.3,2.3,0,0,0,2.33,2.14,2.16,2.16,0,0,0,1.35-.85,7.84,7.84,0,0,0,1.12-1.52.26.26,0,0,0-.15-.37Z"/><path class="cls-11" d="M90.92,133.67a6.64,6.64,0,0,0,2.61.67c.69,0,.88-1.08.17-1.23a6.57,6.57,0,0,0-2.72.12.24.24,0,0,0-.06.44Z"/><path class="cls-11" d="M91.92,134.73a3.82,3.82,0,0,0,2.61-.56.56.56,0,0,0-.54-.93,15.86,15.86,0,0,1-2.14,1c-.31.06-.22.52.07.53Z"/><path class="cls-11" d="M96.19,132.11a1.37,1.37,0,0,1,.13.2V132a4.07,4.07,0,0,0-.56,1.47.55.55,0,0,0,.94.39,1.61,1.61,0,0,0,.33-1.26c0-.42-.12-.63-.49-.82-.21-.1-.5.12-.35.35Z"/><path class="cls-11" d="M89.16,131.8c-.58.49,0,1.61.35,2.07s1.27-.24.8-.8a4.66,4.66,0,0,1-.5-.75,1.1,1.1,0,0,0-.38-.56.22.22,0,0,0-.27,0Z"/><path class="cls-12" d="M117.58,33l13.17-10.34a2,2,0,0,1,.56-2.26c1.13-1.18,5.22-.77,6.61,1s.09,3.8-1.16,3.74S121.47,39,121.47,39Z"/><path class="cls-13" d="M132.11,20.11c-.81,1.26.07,3.16,1.1,4a3.75,3.75,0,0,0,4.42.35A2.13,2.13,0,0,0,137.8,21a6.69,6.69,0,0,0-5.5-1.39.5.5,0,0,0,0,1c1.07.28,2.17.22,3.24.57a4.88,4.88,0,0,1,1.46.64,1.27,1.27,0,0,1-.41,2.32,3.22,3.22,0,0,1-3.39-1c-.81-.94-.67-1.92-.86-3,0-.11-.17-.11-.23,0Z"/><path class="cls-13" d="M132.59,20.2c-1.66,1.76,1.12,3.9,2.76,4.06a2,2,0,0,0,2.29-1.54A2.33,2.33,0,0,0,136,20.38c-.81-.32-2-.72-2.76,0s-.2,2,.63,2.5,2.06.89,2.48-.23-.82-1.67-1.72-1.61-.88,1.45,0,1.38c.29,0,.46-.09.52-.42a4.3,4.3,0,0,1-.48-.24c-.41-.33-.39-.43.11-.33s2,.53,1.46,1.32-1.77,0-2.28-.3a2.2,2.2,0,0,1-1-2.11.22.22,0,0,0-.36-.15Z"/><path class="cls-13" d="M131.77,20a1.19,1.19,0,0,0-.82.75c0,.11.13.21.21.12a1.44,1.44,0,0,1,.7-.56c.19-.07.11-.38-.09-.31Z"/><path class="cls-13" d="M132,20.22c-.59.12-1.37.54-1.46,1.2a.12.12,0,0,0,.19.11c.22-.18.34-.44.55-.62a3.7,3.7,0,0,1,.78-.53c.1,0,0-.17-.06-.16Z"/><path class="cls-13" d="M121.54,37.24A57.55,57.55,0,0,0,126.65,33a51.7,51.7,0,0,0,5.4-5.05c.24-.3-.08-.83-.45-.58a47.48,47.48,0,0,0-5,4.39,61.35,61.35,0,0,0-5.28,5.17c-.14.17,0,.46.25.32Z"/><path class="cls-10" d="M119.4,32.84c1.63-1.09,3.22-2.25,4.77-3.46s3.35-2.29,4.43-3.83c.11-.15-.09-.31-.23-.24a25.19,25.19,0,0,0-4.08,3.23c-1.67,1.35-3.39,2.64-5.1,4-.2.16,0,.5.21.35Z"/><path class="cls-10" d="M134.78,20.74a8.31,8.31,0,0,1,2,.74,3.61,3.61,0,0,1,.74.72,3.14,3.14,0,0,0,.57.77c.12.1.35.09.38-.1.26-1.51-2.42-3.09-3.68-2.38a.14.14,0,0,0,0,.25Z"/><path class="cls-14" d="M99.52,23.42c-8.32-.27-16.12,5.11-19.39,12.65-.12.28.29.52.41.24a21.08,21.08,0,0,1,19-12.52.19.19,0,0,0,0-.37Z"/><path class="cls-14" d="M80.23,36a3,3,0,0,0,3,1.57c.54,0,1.62-.26,2-.25a5,5,0,0,1,3.32,1.89c.51.9.19,2.24.61,3.22,1,2.33,3.86,2.65,3.93-.28.06-2.42-1.49-4.61-1.73-7a4.77,4.77,0,0,1,.45-3.18c1.1-1.46,2.68-1.92,3.89-.47.43.52.68,1.73,1.18,2.17s1.31-.22,1.54-.1a13.38,13.38,0,0,0,.68,2.54l1.69,4.62a.22.22,0,0,0,.43-.12q-1.22-2.85,2.83-2.48c0,.38,0,.77,0,1.15a5.2,5.2,0,0,0,.19,1.71,1.86,1.86,0,0,0,1.34,1.25A2.63,2.63,0,0,0,108,41c1.8-2.25.3-5.1,4.22-5.93,2.17-.47,5.18-.07,5.22-3.23,0-2.2-2.1-3.32-4-2.87-.3.07-.17.53.12.46,1.78-.47,2.93.34,3.46,2.41q-.78,2.84-3.29,2.7a15.25,15.25,0,0,0-2.24.17,3.3,3.3,0,0,0-2.22,1.63,8.43,8.43,0,0,0-.65,2l-.16.67c-.23,2-1.53,2.24-3.88.84-.34-1,.26-2.13-.39-3.06-1-1.39-2.75-.69-3.38.68a4,4,0,0,0-.22,1.64s.26,1.45.39.65-1-2.6-1.23-3.36L98.49,33a.23.23,0,0,0-.45.06c-.06.92-1.45-1.87-1.53-2a2.15,2.15,0,0,0-.85-.73,3.26,3.26,0,0,0-2.81,0c-2,1-2.18,3.58-1.8,5.52s2.44,5.17,1.56,7c-1.71,3.57-3.3-2-3.37-2.5a7.13,7.13,0,0,0-.45-1.93c-1.73-3.54-6.63.61-8.27-2.67-.1-.19-.37,0-.29.16Z"/><path class="cls-14" d="M80.5,36.07A16.63,16.63,0,0,0,78.5,49c0,.17.34.15.32,0a21.8,21.8,0,0,1,1.94-12.74c.08-.17-.16-.32-.26-.15Z"/><path class="cls-14" d="M117.85,32.28a28.71,28.71,0,0,0,1.58,3.8c.64,1.42,1.2,2.9,2,4.26.1.17.4.06.33-.14a40.69,40.69,0,0,0-1.64-3.78,31,31,0,0,0-2-4.23.12.12,0,0,0-.21.09Z"/><path class="cls-14" d="M80.89,48.43c-7.82.14-14.4,6.58-15.32,14.23,0,.26.41.32.47.06a2.08,2.08,0,0,1,3.12-1.16l1.35,1.92a7.47,7.47,0,0,1,.18,3.23,11.13,11.13,0,0,0,.17,4.19,3.53,3.53,0,0,0,3.3,2.61c1.69-.11,2.38-1.75,2.25-3.25s-1-2.66-1.24-4.05a7.1,7.1,0,0,1,2.3-6.46c1.48-1.39,4.37-2.86,6.47-2.28,3.9,1.08,1.39,4.06,1.42,6.29,0,1.13.67,2.61,2.06,2.53,2-.12,2-3.55,2.27-4.88.1-.5.13-2.3.52-2.69.83-.81,1.73-.18,2.64.09l6.44,1.91a.24.24,0,0,0,.29-.29,18.41,18.41,0,0,0-22.5-12.1.23.23,0,0,0,.13.45A17.65,17.65,0,0,1,96.94,56c.36.53,2.28,3.43,2,3.88-.52.71-7.69-2-8.67-2.33a.24.24,0,0,0-.29.17l-.7,3.58c-.14.72-.16,2.72-.65,3.25-2.14-.07-3-.68-2.55-1.85.1-.37.21-.75.34-1.11a5.14,5.14,0,0,0,.3-2.36c-.41-2-2.36-2.43-4.14-2.27a9.09,9.09,0,0,0-7.3,5.11,6.83,6.83,0,0,0-.64,3.53A11,11,0,0,0,75.27,68a12.57,12.57,0,0,1,.57,1.7c.5,1.32-.11,1.9-1.83,1.76q-2.4,1.83-2.82-1.11A9.29,9.29,0,0,1,71.08,68c0-1,.21-2.08.13-3.13A5.42,5.42,0,0,0,70.32,62c-1.19-1.55-2.69-1.31-4.19-.51-.23.12-.27.56-.45.65.75-.38.87-2.11,1.12-2.82A15.67,15.67,0,0,1,70,54.06a16.32,16.32,0,0,1,10.92-5.3c.21,0,.21-.34,0-.33Z"/><path class="cls-14" d="M98.91,50.49s0,0,0,0,0,0,0,0Z"/><path class="cls-14" d="M113.6,43.34A18.44,18.44,0,0,0,96.9,54.8c-.07.18.18.35.33.25,5.34-3.43,11.44,1.27,11.12,7.17-.09,1.7-2.13,6.41,1.06,6.94,2.5.41,2.55-3.4,2.43-5-.17-2.23-.91-4.44-.36-6.68,1-4.22,5.31-3.51,8.17-1.72.23.14.43-.21.21-.36-3.49-2.2-8.19-2.26-8.9,2.69a13.31,13.31,0,0,0,.13,3.62,22.57,22.57,0,0,1,.4,3.29A6.67,6.67,0,0,1,111,68l-2.8-2.54c-.23-.8.67-2.88.64-3.9A9.09,9.09,0,0,0,108,58a7.59,7.59,0,0,0-7.64-4.53,6.94,6.94,0,0,0-1.74.38c-.51.18-.85.74-.87.14,0-1,2.1-3.41,2.66-4a18.49,18.49,0,0,1,3.68-3.21,18.89,18.89,0,0,1,9.52-3.06.16.16,0,0,0,0-.32Z"/><path class="cls-14" d="M124.81,50.37a13.94,13.94,0,0,0-12.73-6.5c-.3,0-.3.49,0,.47a13.62,13.62,0,0,1,12.33,6.26c.16.25.56,0,.4-.23Z"/><path class="cls-14" d="M65.05,60.46c-4,5.59-5.32,13.38-4.91,20.1.09,1.52,0,5,1.86,5.64,2.07.69,2.92-1.87,3.17-3.35,0-.28-.38-.41-.44-.12q-.12,2.49-3.71,1.34a18.68,18.68,0,0,1-.31-2.23c-.08-.85-.13-1.71-.15-2.56A35.44,35.44,0,0,1,61,72.54c.71-4.29,2.39-8.06,4.1-12,0-.06,0-.11-.08-.06Z"/><path class="cls-14" d="M65.12,82.87a37.74,37.74,0,0,1,2.58,6.45c.49,1.84.39,3.85,1,5.64.37,1.14,1.65,2.27,2.73,1.15.82-.85.23-2.14,0-3.07a11,11,0,0,1,.62-7.25c.31-.66.91-2,1.83-2A16.3,16.3,0,0,1,75.59,85a6.35,6.35,0,0,0,3.43.55c.27,0,.27-.44,0-.42a6.08,6.08,0,0,1-5.32-2.12.19.19,0,0,0-.26,0A11.21,11.21,0,0,0,71,87.79c-.44,1.9,0,3.49.11,5.34l.26.89L69,94.87c-.24-.14-.24-1.81-.29-2.17a28.54,28.54,0,0,0-.57-3,23.34,23.34,0,0,0-2.87-6.87.08.08,0,0,0-.14.08Z"/><path class="cls-14" d="M80.64,85.51c5.9,2.31,1.67,9.42,2.21,13.77.22,1.78,2,3.2,3.28,1.2.79-1.24.38-3.24.26-4.57-.23-2.66-.62-5.66.89-8,1.25-2,4.74-3.89,7-4.27.72-.12,2,.26,2.62-.08a7.08,7.08,0,0,0,1.49-1.75c.09-.12-.1-.25-.2-.15-.83.78-1,1.16-2.26,1.4a19.94,19.94,0,0,0-2.6.45A16.13,16.13,0,0,0,88.45,86c-2.64,2.11-2.84,5.38-2.62,8.51.09,1.27.32,2.54.29,3.82q.43,2.91-2.88.71a12.7,12.7,0,0,1,.2-2.46,33.36,33.36,0,0,0,.84-5.7c-.07-2.43-1.11-4.88-3.54-5.68-.22-.07-.3.26-.1.34Z"/><path class="cls-14" d="M99.44,83.46a2.31,2.31,0,0,0,2,.81,9.85,9.85,0,0,0,1.93-.53c2.35-.57,4.09.24,4.63,2.51,1,4,.15,8.26.84,12.27.26,1.47,1.25,3,2.9,2,2.46-1.47.58-4.6,0-6.47-1.39-4.17.08-12.11,5.45-13,4.18-.74,1.86,3.39,4.61,3.91,1.43.27,2.35-1.47,2.88-2.49,1.49-2.87,2.29-6.06,3.75-9,.1-.2-.21-.39-.32-.18-1.28,2.54-2.08,5.27-3.24,7.86-.24.53-.48,1.07-.77,1.57-.68,1.16-.91,1.71-2.25,1.31-1.56-.45-1.11-1.58-1.88-2.67-2.59-3.72-7.63,2.89-8.43,5.11a11.76,11.76,0,0,0,0,8,20.72,20.72,0,0,1,.94,2.31c.75,2.92-.31,3.65-3.21,2.22a12.38,12.38,0,0,1-.18-1.72c-.16-2.1-.22-4.22-.34-6.32s.18-5.38-1.44-7.16c-2.28-2.53-5.47,1.73-7.71-.57-.1-.11-.25,0-.16.16Z"/><path class="cls-14" d="M98.12,59.47c3.28,6.22,3.78,11.8,2,18.56,0,.18.23.31.31.13,2.64-5.75,1.68-13.77-2.07-18.82a.13.13,0,0,0-.22.13Z"/><path class="cls-14" d="M120.39,53.18a20.19,20.19,0,0,1,2.55,5.61,18.34,18.34,0,0,1-.06,6.14c0,.15.2.15.25,0,1.48-3.66.28-9.19-2.68-11.83,0,0-.09,0-.06,0Z"/><path class="cls-14" d="M135.33,70.69s0,0,0,0,0,0,0,0Z"/><path class="cls-14" d="M93.05,6.61a141.88,141.88,0,0,1,5,20.72c0,.3.5.17.45-.13A86.05,86.05,0,0,0,93.31,6.54c-.06-.16-.31-.1-.26.07Z"/><path class="cls-14" d="M98.38,27.25a104.86,104.86,0,0,0,11.18,3.25.15.15,0,0,0,.08-.28,104.45,104.45,0,0,0-11.17-3.28.16.16,0,0,0-.09.31Z"/><path class="cls-14" d="M109,31.17c5.29-5.29,10.48-10.67,15.65-16.07.19-.19-.09-.45-.29-.29l-.77.63c-.1.09,0,.25.15.18-1.06.6-2.4,2.34-3.43,3.41l-3.71,3.87q-3.88,4.05-7.7,8.16c-.07.07,0,.17.1.11Z"/><path class="cls-14" d="M123.75,14.89C122.21,9.72,116.94,6.8,112,5.62c-6.41-1.51-14-1-19.94,2.05a.18.18,0,0,0,.13.33c6.25-2.21,12.38-3.45,19-2.07,5.33,1.11,10.14,3.93,12.4,9,0,.1.21,0,.18-.08Z"/><path class="cls-14" d="M115.22,7.05c-2.62,7.33-4.91,14.86-7.09,22.33a.15.15,0,0,0,.29.08c2.48-7.37,4.91-14.86,6.94-22.37a.07.07,0,0,0-.14,0Z"/><path class="cls-14" d="M109.43,8.44c-.88,3.22-1.57,6.51-2.31,9.77l-1.05,4.67c-.26,1.11-1.1,3.18-.93,4.31,0-.12-.21-.09-.22,0v.84a.18.18,0,0,0,.35.05c1.51-6.52,3.13-13,4.31-19.64a.07.07,0,1,0-.14,0Z"/><path class="cls-14" d="M103.82,7.27c-1.12,6.23-2.75,12.73-3.08,19.05,0,.11.16.13.19,0,1.67-6.09,2.16-12.77,3.06-19,0-.11-.15-.16-.17-.05Z"/><path class="cls-14" d="M99.12,7.32c-.63,4.67-1.53,9.39-1.8,14.09,0,.13.2.16.22,0,.9-4.63,1.17-9.43,1.71-14.12,0-.08-.12-.08-.13,0Z"/><path class="cls-14" d="M95.41,7.34A45.67,45.67,0,0,0,96,13.18c0,.13.23.1.22,0a48.06,48.06,0,0,0-.71-5.83c0-.06-.11,0-.1,0Z"/><path class="cls-14" d="M117.2,11c-1.33,4.79-2.73,9.57-4,14.38a.17.17,0,0,0,.32.09c1.39-4.77,2.63-9.6,3.93-14.39a.14.14,0,0,0-.27-.08Z"/><path class="cls-14" d="M119,12.51c-.26,1.32-.55,2.64-.81,4a13.26,13.26,0,0,0-.57,3.71c0-.08-.14-.12-.15,0l-.05.27c0,.15.2.21.23.07.56-2.64,1-5.3,1.49-7.95,0-.09-.12-.13-.14,0Z"/><path class="cls-14" d="M121.41,13.41c-.39,1.62-.92,3.26-1.16,4.91,0,.1.12.14.15.05.51-1.59.76-3.3,1.13-4.93,0-.07-.1-.1-.12,0Z"/><path class="cls-14" d="M129.26,70.37a15.79,15.79,0,0,1-5.74,9c-.2.16.09.45.29.29a15.25,15.25,0,0,0,5.69-9.21c0-.15-.2-.22-.24-.07Z"/><path class="cls-14" d="M125.49,78.17c-.06,1.24-.1,3.81-1.33,4.52a5.07,5.07,0,0,1-4.16-.15,10.19,10.19,0,0,0-2.67-1.36,5.2,5.2,0,0,0-4.49,1.66,7.92,7.92,0,0,0-2,6.11c.15,2.87,3.68,11.79-1.91,11.22-.31,0-.3.44,0,.47,2.15.22,3.52-1.5,3.71-3.52.45-4.68-3.59-9.82.5-14,2.28-2.3,4.45-1.49,6.85,0a4.21,4.21,0,0,0,2.5.85c2.86-.21,3.28-3.61,3.38-5.81,0-.27-.41-.27-.42,0Z"/><path class="cls-14" d="M108.74,101c-.11-2.88-.39-5.75-.64-8.63-.17-2-.15-4.28-1.06-6.13-1.58-3.23-5.38-3.29-8.51-3-.29,0-.3.48,0,.47a13.72,13.72,0,0,1,5.07.27c2.87.91,3.56,3.49,3.85,6.16.4,3.64.61,7.29,1.13,10.92,0,.09.16.07.16,0Z"/><path class="cls-14" d="M98.5,82.69a65.87,65.87,0,0,0-7.45,2.24,8.25,8.25,0,0,0-4.16,2.76c-2.7,3.91.8,9.5-3,12.93-.22.2.11.53.34.33,2.73-2.39,1.9-5.94,2.06-9.16.17-3.51,2.09-5.39,5.25-6.53,2.33-.85,4.73-1.48,7-2.41a.08.08,0,0,0,0-.16Z"/><path class="cls-14" d="M78.25,85.61c-2-1.16-4.76-2.17-6.37.17a5.71,5.71,0,0,0-.86,3,25.35,25.35,0,0,0,.2,2.89,12.89,12.89,0,0,1,.07,1.52q.36,2.46-2.54,2a.18.18,0,0,0-.36,0c-.26,2.11,2.29,1.58,3,.16.75-1.58.31-3.52.19-5.18A7.67,7.67,0,0,1,71.8,87c1-3.06,4.12-2.19,6.28-1.14.19.09.36-.18.17-.29Z"/><path class="cls-14" d="M123.09,83.91a.07.07,0,0,0,0-.14.07.07,0,0,0,0,.14Z"/><path class="cls-14" d="M103.44,84.72c-.81,1.23-1.64,2.45-2.42,3.69-.08.13.11.23.19.12.84-1.21,1.64-2.45,2.46-3.67.09-.15-.14-.28-.23-.14Z"/><path class="cls-14" d="M100.37,84.72a34.15,34.15,0,0,0-2.12,3.07c0,.1.08.2.15.12a31.46,31.46,0,0,0,2.2-3c.1-.15-.13-.28-.23-.14Z"/><path class="cls-14" d="M97.62,84.72a32.88,32.88,0,0,0-2.76,3.67c0,.08.07.17.13.1a32.3,32.3,0,0,0,2.77-3.69c0-.08-.08-.16-.14-.08Z"/><path class="cls-14" d="M94.7,84.51l-2,2.19a16.85,16.85,0,0,0-1.75,2c-.1.15.1.28.22.18A17,17,0,0,0,93,86.81c.61-.72,1.2-1.45,1.81-2.17.08-.09,0-.22-.13-.13Z"/><path class="cls-14" d="M90.56,85.29a49.19,49.19,0,0,0-4,4.92.12.12,0,0,0,.19.15,49.17,49.17,0,0,0,3.9-5c.06-.08,0-.19-.11-.11Z"/><path class="cls-14" d="M81.62,88a18.25,18.25,0,0,0-1.51,2.5c-.06.14.15.24.24.14a17.47,17.47,0,0,0,1.58-2.46c.13-.19-.19-.38-.31-.18Z"/><path class="cls-14" d="M79.53,87.1l-1.15,1.45a7.73,7.73,0,0,0-1,1.35.13.13,0,0,0,.2.15,7.82,7.82,0,0,0,1.06-1.3l1.12-1.47c.11-.13-.13-.32-.23-.18Z"/><path class="cls-14" d="M76.79,86.5l-1.64,1.77a12.27,12.27,0,0,0-1.43,1.63c-.08.12.08.22.18.14a12.19,12.19,0,0,0,1.55-1.66L77,86.68c.1-.12-.07-.29-.18-.18Z"/><path class="cls-14" d="M73.1,87.1,72,88.39a7.59,7.59,0,0,0-1,1.21c0,.09.06.22.15.15a7.17,7.17,0,0,0,1.06-1.14l1.13-1.3c.13-.14-.08-.36-.21-.21Z"/><path class="cls-14" d="M71.37,86.91s0,0,0,0,0,0,0,0Z"/><path class="cls-14" d="M65.48,86.88a12.51,12.51,0,0,0-.59,1.54.1.1,0,0,0,.18.08,14.12,14.12,0,0,0,.63-1.56c0-.14-.17-.2-.22-.06Z"/><path class="cls-14" d="M64.94,87.83a0,0,0,0,0,0,0s0,0,0,0Z"/><path class="cls-14" d="M93.74,7.55c9.51,3.18,19.16,6,28.76,8.92.22.07.31-.28.09-.35-9.57-3-19.14-6.05-28.8-8.76-.12,0-.17.15-.05.19Z"/><path class="cls-14" d="M94.48,9.76h-.16s0,0,0,0h.16a0,0,0,1,0,0,0Z"/><path class="cls-14" d="M94.47,9.77l-.16.13s0,.09,0,0l.13-.16s0,0,0,0Z"/><path class="cls-14" d="M95.08,11.35c8.25,3.06,16.8,6,25.28,8.32a.17.17,0,0,0,.09-.32c-8.23-3.11-16.86-5.78-25.32-8.17a.09.09,0,1,0,0,.17Z"/><path class="cls-14" d="M96.52,15.14q10.4,3.62,20.88,7c.21.07.3-.27.09-.34Q107.07,18.27,96.56,15c-.09,0-.13.11,0,.14Z"/><path class="cls-14" d="M96.89,19.52c5.37,2.15,11,4.62,16.56,6.06a.13.13,0,0,0,.09-.23c-5.22-2.5-11.1-4.2-16.6-6-.11,0-.15.14,0,.18Z"/><path class="cls-14" d="M97.84,23.64c4.45.87,8.76,1.89,13.11,3.15a.21.21,0,0,0,.11-.4,52.42,52.42,0,0,0-13.2-2.92.09.09,0,0,0,0,.17Z"/><path class="cls-14" d="M99.44,6.8c7.6,2.48,15.27,4.71,22.92,7,.21.07.3-.27.09-.33-7.64-2.31-15.27-4.7-23-6.83a.08.08,0,0,0,0,.15Z"/><path class="cls-14" d="M70,107.07A18.56,18.56,0,0,1,85.56,107c3,1.36,5.53,2.62,8.91,1.73,4.12-1.09,7.6-3.94,12.1-3.16,4,.7,7.52,3.3,11.7,2,.08,0,0-.15,0-.13-5,1.58-9.15-2.46-14.08-2.07-3.72.29-6.82,2.73-10.43,3.44-4.77.94-8.87-2.9-13.54-3.49A18.3,18.3,0,0,0,69.89,107c-.07,0,0,.14.06.11Z"/><path class="cls-14" d="M69.7,106.93A1.8,1.8,0,0,0,72.44,109c.1-.08,0-.22-.13-.17a1.69,1.69,0,0,1-1.89,0,1.72,1.72,0,0,1-.56-1.82c0-.11-.12-.14-.16,0Z"/><path class="cls-14" d="M117.29,108.06a1.83,1.83,0,0,1-.65,1.63,1.91,1.91,0,0,1-1.73.25c-.12,0-.21.15-.09.2a1.94,1.94,0,0,0,2.66-2.1c0-.1-.19-.08-.19,0Z"/><path class="cls-14" d="M72.17,109.07c.36,2.26.79,4.51,1.22,6.75a8.81,8.81,0,0,0,1.11,3.69c1.52,2.07,4.93,2.27,7.25,2.54,2.6.31,5.47.2,7.62-1.5,2.44-2,2.45-5,2.29-7.88,0-.16-.25-.16-.24,0,.21,3.06.16,6.28-2.76,8.11-2.61,1.62-5.81,1.28-8.69.81-3.12-.51-5.5-1.33-6.23-4.85-.54-2.56-.93-5.14-1.47-7.7,0-.06-.11,0-.1,0Z"/><path class="cls-14" d="M90.94,112.62a5.84,5.84,0,0,1,4.69.47c.1,0,.23-.09.13-.17a4.79,4.79,0,0,0-4.87-.42c-.07,0,0,.14,0,.12Z"/><path class="cls-14" d="M95.6,112c-.58,2.78-1,6.43,1.55,8.42s7.16,1.27,10,.9,5.77-.94,7.52-3.45c2.08-3,2.75-7.06,3.81-10.44,0-.13-.17-.19-.21-.06-1.59,5.21-2.38,11.89-8.56,13.34a28.77,28.77,0,0,1-8.53.71c-5.69-.4-6.08-4.73-5.42-9.37,0-.12-.17-.17-.19-.05Z"/><path class="cls-14" d="M74.55,107.38c-4.21,5.27.19,12.06,6.06,13.26,2.74.56,6.22.3,8.46-1.55,2.56-2.13,2.16-5.81,1.49-8.72,0-.16-.27-.09-.24.07.44,3,1.07,6.51-1.75,8.6-2.23,1.66-5.61,1.83-8.24,1.22-5.67-1.31-9.31-7.66-5.67-12.8,0-.06-.06-.14-.11-.08Z"/><path class="cls-14" d="M74.07,107.47c6-1.47,11.21-.29,16.26,3,.14.1.31-.12.18-.23A17.56,17.56,0,0,0,74,107.22a.13.13,0,0,0,.07.25Z"/><path class="cls-14" d="M80.78,107.07c-1,1-2.19,2.42-1.62,4,.35,1,1.42,1.53,1.52,2.62.16,1.57-1.05,3.65-1.42,5.16,0,.06.08.11.12,0A12.71,12.71,0,0,0,81,113.65a3.27,3.27,0,0,0-.37-1.34l0,0a1.74,1.74,0,0,1-.65-2c-.22-1.74-.1-1.86.94-3,.08-.08,0-.21-.13-.13Z"/><path class="cls-14" d="M83.71,107.89c-1.21,1.15-2.15,2.37-1.09,4,.12.19.44.21.59.36,1.16,1.2,1,1,.51,2.34-.62,1.88-1.25,3.76-1.86,5.64-.08.24.3.35.38.11l1.29-3.91c.24-.75,1.28-2.7,1.11-3.53,0-.19-.13-.41-.16-.6S84,112.09,84,112c-.4-.91-.85-3.16-.14-4a.08.08,0,0,0-.11-.11Z"/><path class="cls-14" d="M96.33,109.33c6.55-2.25,12.29-1.86,18.77.31a.16.16,0,0,0,.12-.29c-5.62-3-13.27-2.87-19-.28-.14.06,0,.31.11.26Z"/><path class="cls-14" d="M97.08,109c-1.09,2.74-2,6.26-.08,8.87s5.79,3.11,8.72,3.07c5.77-.09,12.15-4.84,9.61-11.2-.12-.29-.58-.17-.47.12,2.42,6.07-3.68,10.51-9.14,10.6-2.45,0-5.45-.34-7.42-1.94-3-2.46-1.83-6.25-1-9.46a.11.11,0,0,0-.22-.06Z"/><path class="cls-14" d="M104.42,107.49c-.6,1.09-2.55,3.34-2.26,4.66.2.9,1.48,1.29,1.45,2.42,0,1.35-1.65,3.65-2.22,4.88-.08.16.16.31.24.14.68-1.37,2.56-4,2.35-5.57-.08-.68-.26-.4-.54-1-1-2-.85-1.64,0-3.2.4-.74.8-1.48,1.19-2.22a.12.12,0,0,0-.21-.12Z"/><path class="cls-14" d="M107.31,107.5c-.59.83-3.23,3.36-2.64,4.55.08.16.39.26.47.41l.59.16a1.79,1.79,0,0,1,.65,2.43c-.21,1.69-1.51,3.75-2.1,5.33-.09.21.25.3.34.09.73-1.75,1.54-3.51,2.12-5.32.21-.63.57-1.4.21-2.07s-.67-.29-1.13-.8c-1.32-1.45.82-3.41,1.68-4.67.07-.11-.11-.21-.19-.11Z"/><path class="cls-14" d="M87.84,128.08a16.64,16.64,0,0,0,10.43-1.79c.24-.13,0-.5-.22-.37A16.25,16.25,0,0,1,88,127.68c-.26,0-.38.36-.11.4Z"/><path class="cls-14" d="M98.31,126.39c-.91,3.1-.07,8.45-3.63,10.06-4.84,2.19-6.56-4.93-7.4-8.24a.24.24,0,0,0-.47.13c.78,3.07,2.31,9.76,6.79,9,4.75-.81,4.52-7.36,4.94-10.92,0-.14-.19-.16-.23,0Z"/><path class="cls-14" d="M87.91,130.94a73.49,73.49,0,0,1,9.8-.92c.11,0,.15-.18,0-.2a22.33,22.33,0,0,0-9.86,1c-.08,0,0,.14,0,.13Z"/><path class="cls-14" d="M90,129.16a4.7,4.7,0,0,0,.21.9c0,.1.21.05.2-.05a3.54,3.54,0,0,0-.21-.91c0-.13-.22-.07-.2.06Z"/><path class="cls-14" d="M91.87,129.8s0,0,0,0,0,0,0,0Z"/><path class="cls-14" d="M93.83,129.21c-.06.25-.11.49-.17.74s.22.23.25.07l.12-.75c0-.13-.17-.19-.2-.06Z"/><path class="cls-14" d="M95.11,129.37a5.17,5.17,0,0,0,.11.54c0,.11.18.08.18,0s0-.37,0-.56-.31-.16-.28,0Z"/><path class="cls-14" d="M92.22,129.1a1.26,1.26,0,0,0-.32,1.05c0,.13.26.1.24,0a1.49,1.49,0,0,1,.15-1,0,0,0,0,0-.07-.06Z"/><path class="cls-14" d="M69.21,107.53c4.63-1.57,8.53-2.71,13.4-1.29,3.27,1,6.45,2.45,9.92,2.45,4,0,7.7-2.15,11.71-2.48,4.57-.38,9,1,13.35,2.2a.22.22,0,0,0,.12-.43c-4-1.27-8.3-2.45-12.57-2.31-4.48.16-8.53,2.66-13,2.54s-8.27-2.59-12.56-3.15c-3.65-.48-7.2.66-10.51,2.11-.2.09-.06.43.15.36Z"/><path class="cls-14" d="M68.71,106.8a6.67,6.67,0,0,0,0,1.34,6,6,0,0,0,.13,1.2.19.19,0,0,0,.37,0,6.76,6.76,0,0,0-.09-1.34,6.86,6.86,0,0,0-.19-1.19.13.13,0,0,0-.25,0Z"/><path class="cls-14" d="M69.82,109.41a20.36,20.36,0,0,0,2.06-.27.23.23,0,0,0-.06-.44c-.67,0-1.34.15-2,.23-.31,0-.31.52,0,.48Z"/><path class="cls-14" d="M71.07,108.86c.53,3.13-.24,7.07,1.7,9.84,1.75,2.48,5.57,2.81,8.32,3.2s6.41,1,8.78-1.05,2.4-5.28,2.29-8.06a.23.23,0,0,0-.45,0c0,3.69-.43,8-4.79,8.85-2.67.52-5.68-.11-8.3-.66-3.15-.66-5.69-1.65-6.46-5.11-.52-2.34-.11-4.77-.75-7.1a.18.18,0,0,0-.34.09Z"/><path class="cls-14" d="M91.4,112.73a3.19,3.19,0,0,1,3.6.46c.23.21.56-.12.34-.33a3.4,3.4,0,0,0-4.12-.44.18.18,0,0,0,.18.31Z"/><path class="cls-14" d="M95.32,113.29a5.66,5.66,0,0,0,2.1,6.6c2.59,2,6.25,2.13,9.37,2.14,2.48,0,6.92.37,8.78-1.79a5.76,5.76,0,0,0,1-3.3,28.2,28.2,0,0,1,2.06-8.33.25.25,0,0,0-.14-.36,19.8,19.8,0,0,0-2-.32c-.18,0-.2.25,0,.3,1.91.56,1.25,1.2.76,2.7a23.71,23.71,0,0,0-.9,3.92c-.16,1.12-.13,2.3-.39,3.4-.66,2.79-3.56,3-5.9,3.18a30.12,30.12,0,0,1-8.74-.36c-3.54-.81-6.94-3.7-5.58-7.66.09-.27-.31-.36-.41-.12Z"/><path class="cls-14" d="M87.66,128c-.28-.22-.53-.54-.88-.62-.08,0-.17.07-.12.15a2.66,2.66,0,0,0,.89.61c.09,0,.19-.08.11-.14Z"/><path class="cls-14" d="M64.31,84.56s0,0,0,0,0,0,0,0Z"/><path class="cls-14" d="M60.67,86.17h0s0,0,0,0Z"/><path class="cls-14" d="M60.67,84.83l-.37,0a.15.15,0,1,0,0,.29l.37,0a.13.13,0,0,0,0-.25Z"/><path class="cls-14" d="M59.83,84.91a4.61,4.61,0,0,0-1.09,1.3.2.2,0,0,0,.08.28,7.46,7.46,0,0,0,5.53.27c.32-.11.18-.61-.14-.5a7.31,7.31,0,0,1-3.18.42c-.32,0-1.58-.12-1.7-.61,0,0,.52-.9.58-1.1,0,0,0-.09-.08-.06Z"/><path class="cls-14" d="M78,137.57v1.21s0,0,0,0v-1.21a0,0,0,0,0,0,0Z"/><path class="cls-14" d="M120,135.59c1.17-7.74,1.78-15.57,2.54-23.36.82-8.3,2.35-16.92,2.24-25.26,0-.27-.43-.35-.49-.07-1.57,7.6-1.72,15.67-2.45,23.39-.79,8.41-1.78,16.83-2.12,25.26,0,.16.25.2.28,0Z"/><path class="cls-14" d="M123.79,83.37c1.18-.14,1.43,1.58.85,2.31-.86,1.08-2.47.72-3.66.81-.31,0-.42.51-.07.59,1.46.33,4,.12,4.53-1.62.34-1.14-.32-2.73-1.7-2.47-.22,0-.17.41.05.38Z"/><path class="cls-14" d="M73.61,87.44a56.63,56.63,0,0,0,5.67-.39c.16,0,.17-.27,0-.27-1.88,0-3.8.24-5.67.47-.11,0-.12.2,0,.19Z"/><path class="cls-14" d="M91.41,87c4.32-.2,8.66-.37,13-.76.2,0,.21-.33,0-.32-4.32.12-8.65.46-13,.78-.19,0-.19.31,0,.3Z"/><path class="cls-14" d="M112.46,85.85a42.56,42.56,0,0,0,5.3-.44c.14,0,.1-.24,0-.25a44.26,44.26,0,0,0-5.26.36c-.2,0-.21.34,0,.33Z"/><path class="cls-14" d="M60.7,87.47c2.5,16.33,4.41,33.3,8.43,49.32.09.34.66.28.62-.08-1.61-16.47-5.52-33.11-8.66-49.35-.05-.26-.43-.15-.39.11Z"/><path class="cls-14" d="M68.8,137.44c16.14,6.51,36.56,4.07,52.41-1.95.58-.22.33-1.17-.26-.94A82,82,0,0,1,95.16,140c-9,.38-17.4-1.44-26.22-3a.25.25,0,0,0-.14.48Z"/><path class="cls-14" d="M76,135.56a0,0,0,0,0,0,0s0,0,0,0Z"/><path class="cls-14" d="M73.62,135.57a0,0,0,0,0,0,0,0,0,0,0,0,0,0Z"/><path class="cls-14" d="M70.49,136c15.71,4.63,33.73,3.34,49-2.28.26-.1.15-.52-.12-.43-16.36,5.33-32,5.7-48.87,2.62-.06,0-.08.07,0,.09Z"/><path class="cls-14" d="M124.22,85.62c8.13,4.48,15.13,10.2,14.89,20.49s-8.08,17-17.32,19.72c-.35.11-.31.72.1.68,9.64-.82,17.65-10.27,18.18-19.69.5-8.91-6.23-20.38-15.81-21.37-.09,0-.12.13,0,.17Z"/><path class="cls-14" d="M123.72,92c5.19,3.81,9.55,7.9,9.34,14.92-.19,6.59-4.93,11.41-10.63,13.89-.43.18-.12.87.31.74A16.26,16.26,0,0,0,134,106.89c.24-6.15-3.84-13.75-10.19-15.2a.15.15,0,0,0-.12.28Z"/><path class="cls-14" d="M116.21,32.22c1.6,2.33,3.43,4.18,4.4,6.91s.91,5.33.91,8.17a.14.14,0,0,0,.28,0c1.31-4.81-1.08-12.58-5.56-15.15a0,0,0,0,0,0,0Z"/><path class="cls-14" d="M117.13,33.37c2.66-2,5.25-4.2,7.86-6.31s5.39-4.08,7.77-6.42c.11-.12,0-.33-.19-.23-2.66,1.76-5.07,4-7.55,6-2.73,2.22-5.49,4.4-8.17,6.68-.2.17.08.43.28.28Z"/><path class="cls-14" d="M131.6,21.38c.92,1.82,2.48,4.15,4.82,3.9,1.5-.16,3-1.45,2.44-3.08-.67-1.86-3.94-2.74-5.67-2.73s-3.54,1.5-2.61,3.26a.2.2,0,0,0,.36-.15c-1.37-4.35,8.36-2.53,7.53.72-.45,1.73-2.81,1.75-4,1a10.28,10.28,0,0,1-2.59-3.08.16.16,0,0,0-.28.16Z"/><path class="cls-14" d="M136.93,24.39a86.27,86.27,0,0,0-7.79,7.14,107.76,107.76,0,0,0-8.27,8c-.09.11,0,.33.17.22a99.46,99.46,0,0,0,7.75-7.21c2.74-2.62,5.79-5.13,8.2-8.06,0-.05,0-.13-.06-.09Z"/><path class="cls-14" d="M129.27,23.34a8.89,8.89,0,0,0,0,8.3c.09.17.39.05.32-.14a12.58,12.58,0,0,1-.26-8.13s-.05-.07-.07,0Z"/><path class="cls-14" d="M122.93,27.87a16.77,16.77,0,0,0,.55,10.24c.1.28.56.16.45-.13a21.45,21.45,0,0,1-.84-10.09c0-.09-.13-.1-.16,0Z"/><path class="cls-14" d="M78.78,48.14a68,68,0,0,0,.88-11c0-.28-.41-.27-.43,0a67.89,67.89,0,0,0-.65,10.93c0,.11.18.15.2,0Z"/><path class="cls-14" d="M80.18,37.64A18.32,18.32,0,0,1,86,27.82a18.69,18.69,0,0,1,4.6-2.95,17.28,17.28,0,0,1,3.21-1.07c.7-.16,2.23,0,2.73-.43-.14.12,0,.3.19.24l.55-.26c.22-.1.11-.44-.11-.44A18.46,18.46,0,0,0,79.8,37.53c0,.24.32.35.38.11Z"/><path class="cls-14" d="M78.36,48.49a19.14,19.14,0,0,0-14.18,13c-.08.26.29.34.39.11a20.45,20.45,0,0,1,13.9-12.7.19.19,0,0,0-.11-.37Z"/><path class="cls-14" d="M64.24,61.06C58.18,67.42,57.33,79,62.09,86.28a.2.2,0,0,0,.35-.2C58.16,77.59,59,69,64.51,61.27c.12-.16-.13-.35-.27-.21Z"/><path class="cls-14" d="M63.46,62.27a22.32,22.32,0,0,0-3.37,11.35c0,.21.3.2.32,0a37.12,37.12,0,0,1,3.13-11.31,0,0,0,0,0-.08,0Z"/><path class="cls-14" d="M59.79,71.6c0,1.75-.09,3.51,0,5.26a.07.07,0,0,0,.14,0c.08-1.75,0-3.51,0-5.26a.07.07,0,0,0-.13,0Z"/><path class="cls-14" d="M99.77,61.35c.6,3,1.79,5.61,1.81,8.79a21,21,0,0,1-2.25,9.44c-.14.28.28.53.42.25a21.47,21.47,0,0,0,2.31-9.69c0-2.87-.43-6.5-2.25-8.81,0,0,0,0,0,0Z"/><path class="cls-14" d="M100,60.88C98.48,53.65,89.68,48.61,82.8,48.32,75.25,48,66.87,52.81,64.21,60.07c-.08.2.23.33.33.15,3.79-6.79,10.12-11.75,18.26-11.41a19.13,19.13,0,0,1,10.12,3.53c3.25,2.29,5,5.31,7,8.58a0,0,0,0,0,.09,0Z"/><path class="cls-14" d="M97.47,53.91c2.22-5.4,6.88-9.66,12.91-10.09S121.62,46.9,124.6,52c.13.22.45,0,.35-.21-5.46-12-24.18-10.63-27.77,2-.05.19.22.25.29.08Z"/><path class="cls-14" d="M116.42,32.91a13.07,13.07,0,0,1,5.12,13.93.21.21,0,0,0,.4.11,12.45,12.45,0,0,0-5.36-14.31.16.16,0,0,0-.16.27Z"/><path class="cls-14" d="M124.61,53.39s0,0,0,0,0,0,0,0Z"/><path class="cls-14" d="M124.61,53.4a0,0,0,1,0,0,0,0,0,0,0,0,0,0Z"/><path class="cls-14" d="M128.41,63.36c1.78,3.1,2.7,6.55,1.09,10a9.94,9.94,0,0,1-7,5.37c-.31.07-.18.54.13.47,6.9-1.53,11.08-10.24,6-16-.1-.11-.29,0-.21.17Z"/><path class="cls-14" d="M121.08,56A167.11,167.11,0,0,1,138,45c.21-.12,0-.45-.2-.33a160.07,160.07,0,0,0-16.89,11.1c-.15.11,0,.36.15.25Z"/><path class="cls-14" d="M138.7,45.71c-.07,2.82.49,5.56.21,8.41a35,35,0,0,1-2.23,9,.18.18,0,0,0,.32.14c2.24-4.88,3.81-12.35,1.76-17.53a0,0,0,0,0-.06,0Z"/><path class="cls-14" d="M123.32,61.77c4.15.87,8.38,1.94,12.6,2.44.19,0,.21-.28,0-.33-4.06-1.15-8.37-1.77-12.52-2.55-.28,0-.41.38-.12.44Z"/><path class="cls-14" d="M124.16,55.74c3.93-2.26,7.82-4.59,11.72-6.91.06,0,0-.13-.06-.09-3.9,2.29-7.82,4.58-11.7,6.93,0,0,0,.1,0,.07Z"/><path class="cls-14" d="M124.62,60.16c3.63.36,7.28.7,10.92.94.07,0,.07-.1,0-.1-3.63-.38-7.28-.67-10.92-.93a0,0,0,0,0,0,.09Z"/><path class="cls-14" d="M125.83,59.08c3.22-.86,6.46-1.7,9.66-2.61.06,0,0-.1,0-.08-3.23.83-6.44,1.74-9.66,2.62,0,0,0,.09,0,.07Z"/><path class="cls-14" d="M125.82,57c3.67-1.56,7.34-3.13,11-4.78.07,0,0-.14-.06-.11-3.67,1.56-7.31,3.19-10.94,4.83a0,0,0,0,0,0,.06Z"/></svg>