<svg id="carracters" xmlns="http://www.w3.org/2000/svg" viewBox="0 0 198.43 36.18"><defs><style>.cls-1{fill:#fff;}</style></defs><path d="M178,8.24l2.58,1L180,10a70.2,70.2,0,0,1-5,5.65c-.88.91-1.79,1.79-2.69,2.68a.21.21,0,0,0,0,.34l1,1c.77.77,1.57,1.52,2.3,2.32a44.7,44.7,0,0,1,5.29,7.1c.16.27.17.27-.13.37l-2.18.7c-.13,0-.19,0-.26-.1a31.57,31.57,0,0,0-3.92-5.73c-1.45-1.75-3-3.44-4.46-5.16-.11-.14-.1-.38-.18-.56a1,1,0,0,1,.31-1.16c.59-.6,1.2-1.2,1.81-1.79a41.5,41.5,0,0,0,3.88-4.29c.54-.68,1.06-1.38,1.57-2.09C177.58,8.91,177.75,8.58,178,8.24Z"/><path d="M172.68,11.48c0-.39,0-.75,0-1.11,0,0,.06-.07.09-.1s.09.07.09.11c0,.24,0,.48,0,.79l3.88-4.26.08,0,.06.07-3.81,4.2.55-.09c.05,0,.11,0,.16.07s-.08.11-.13.11Z"/><path class="cls-1" d="M28.92,8.24l2.57,1L31,10a72.21,72.21,0,0,1-5,5.65c-.89.91-1.79,1.79-2.69,2.68a.21.21,0,0,0,0,.34c.32.33.67.64,1,1,.78.77,1.57,1.52,2.31,2.32A44.64,44.64,0,0,1,31.89,29c.17.27.17.27-.13.37l-2.17.7c-.13,0-.19,0-.26-.1a32.62,32.62,0,0,0-3.92-5.73c-1.46-1.75-3-3.44-4.46-5.16-.12-.14-.1-.38-.18-.56a1,1,0,0,1,.31-1.16c.59-.6,1.19-1.2,1.8-1.79a40.48,40.48,0,0,0,3.89-4.29c.54-.68,1.05-1.38,1.56-2.09C28.55,8.91,28.71,8.58,28.92,8.24Z"/></svg>