<svg id="illustration" xmlns="http://www.w3.org/2000/svg" viewBox="0 0 198.43 126.2"><defs><style>.cls-1{fill:#ed1d24;}.cls-2{fill:#42b7e9;}.cls-3{fill:#faef66;}.cls-4{fill:#687278;}.cls-5{fill:#ee1c50;}.cls-6{fill:#fef493;}.cls-7{fill:#103052;}.cls-8{fill:#010101;}.cls-9{fill:#fff;}.cls-10{fill:#613613;}.cls-11{fill:#ed1c26;}</style></defs><path class="cls-1" d="M41.88,80.89S31,86.82,31.23,96.52s5.34,17.9,16.18,18.67c3.24-1.85,8.27-12.31,7.26-18.76S48.26,82.51,41.88,80.89Z"/><path class="cls-2" d="M176.68,54.63c-7-2.3-13.07-2.15-18.84,6.38s.94,13.75.94,13.75L143.54,86.91H129.42L128.17,76l-30-18.4-12,.56L68,61.33,41.88,80.89s11.7,3.84,12.79,15.54a23.11,23.11,0,0,1-7.26,18.76l92.67-5.31L168,79.66s9.84,3.34,14.54-4.54S183.72,56.93,176.68,54.63Zm-16.24,8.85a11.09,11.09,0,0,1,6.63-6.42c.57-.19.86.48.6.88a.85.85,0,0,1,.06.17c.24,1.89.12,3.77.74,5.58a.52.52,0,0,1-.05.7,3.16,3.16,0,0,0-.67.87.55.55,0,0,1-.52.74,5.56,5.56,0,0,1-2.42-.87,18.12,18.12,0,0,0-3.25-.87.58.58,0,0,1-.28-.19C160.87,64.31,160.22,64,160.44,63.48Zm8.84,7.36c-1.13,1.36-1.49,3.18-2.2,4.76a.47.47,0,0,1-.52.29.52.52,0,0,1-.27,0,5,5,0,0,1-3.36-3,.58.58,0,0,1-.43-1l.17-.11a4.44,4.44,0,0,1-.52.15c-.72.17-1-.94-.31-1.1,2-.46,3.53-1.91,5.52-2.3a.57.57,0,0,1,.64.33h0a1.79,1.79,0,0,0,.8.74.56.56,0,0,1,.38.46A.59.59,0,0,1,169.28,70.84ZM177.86,74a14.25,14.25,0,0,1-2.33,1.58.69.69,0,0,1-1.26-.5c-.39-1.54-.72-3.65-2-4.59-.54-.41-.07-1.3.47-1a.85.85,0,0,1,.13-.22,5.43,5.43,0,0,0,.66-1c0-.37.25-.76.69-.6,1.88.7,3.22,2.23,4.94,3.21a.52.52,0,0,1,.27.39.59.59,0,0,1,.2.55C179.53,72.72,178.53,73.48,177.86,74Zm2.81-10.87a.58.58,0,0,1-.39.54c-1,.34-1.92.66-2.89.93a.54.54,0,0,1-.2.16,9.62,9.62,0,0,1-1.5.56.5.5,0,0,1-.5-.11,6.11,6.11,0,0,0-.58.27h0a.52.52,0,0,1-.9.19c-.25-.29-.49-.57-.73-.87-.41,0-.8-.4-.51-.82l.11-.16a1,1,0,0,1,.08-.11c1.25-1.77,2.54-3.51,3.61-5.39a.57.57,0,0,1,1,.57,1,1,0,0,1-.08.14.59.59,0,0,1,.45,0l.08,0a.81.81,0,0,1,.18.1,6.24,6.24,0,0,1,2.41,3.05C180.69,62.34,180.94,62.85,180.67,63.14Z"/><path class="cls-3" d="M84.28,60.64H95.73l9.78,2.08.76,49-59.08,3.4S56.8,107,54.45,96.34,45.18,82.61,41.67,80.81L64.49,66.27l9-3.9L80,60.92Z"/><path class="cls-4" d="M87.52,36.72S120.28,6,127.76,4.31s3.78,3.52,3.78,3.52L93.19,43.57l36.59,31.18a2.73,2.73,0,0,1,1.45,3.57c-.89,2.63-4,1.53-4,1.53S99.08,61,93.47,53.14L85.3,44.23,49.17,80.83a2.23,2.23,0,0,1-3.37,0c-1.89-1.75-1.16-2.55,0-4.82s35-33.59,35-33.59l-35-35S43.9,5.19,45.8,4s4.28-.64,4.14,0,36,34.49,36,34.49Z"/><path class="cls-5" d="M79.31,43.13s.57-5.67,6-6.16,9.73,2.27,9.08,4.69-4.13,5.46-8.19,5.49S79.27,46.59,79.31,43.13Z"/><path class="cls-6" d="M82,47.87s2.17,1.84,3.56,1.8a14.09,14.09,0,0,0,3.62-.9L87.82,47,83,46.76Z"/><path class="cls-4" d="M83.93,58.39,89.48,58l-.27-9.21a6.92,6.92,0,0,1-3,.94,11.91,11.91,0,0,1-2.78-.78Z"/><path class="cls-7" d="M62,67.29s15.12-5.45,20.35-5.41c0,0-1.24,6.94-1.52,10.54s.78,11,.78,11l-9,.84-13,.08s-7.35.25-9.73-3.36C52.72,76.82,62,67.29,62,67.29Z"/><path class="cls-7" d="M85.51,61.89s14.7-2.4,18.11,3.68l-.41.38,1.59,17.69-17.93.21Z"/><path class="cls-8" d="M84.25,87.13s-7.52.15-8.45.83-1.72,2.62,0,3.51,4.7.15,5.75-.12a5,5,0,0,1,2.7.55Z"/><path class="cls-8" d="M99.3,86.34S97.72,87,98,88.4s.18,1.78,1.33,2.11,6-.18,6-.18V86.11Z"/><path class="cls-9" d="M65.84,90.07s-7.58-.32-8.06,8c-.54,6,6.92,7.4,6.92,7.4s8.33-.36,8-7.4A8.23,8.23,0,0,0,65.84,90.07Z"/><path class="cls-10" d="M65.08,95.62a1.51,1.51,0,0,0-1.72.93,1.86,1.86,0,0,0,.33,2.11A1.93,1.93,0,0,0,67,97.4a.53.53,0,0,0-.28-.47,2.81,2.81,0,0,1-1.11-1,.57.57,0,0,0-1,.13c-.17.72-.56,2.34.44,2.65a.93.93,0,0,0,1-.43A1.39,1.39,0,0,0,66,96.87a.63.63,0,0,0-.69-.27,1.45,1.45,0,0,0-1.08.72,1,1,0,0,0,.3,1.21c1.07.75,1.63-.79,1.32-1.62a.7.7,0,0,0-1.16-.3,1.28,1.28,0,0,0-.35.84.72.72,0,0,0,.7.7l.36,0A.72.72,0,0,0,65.86,97a.84.84,0,0,0-1.45.58c-.08.8,1,.86,1.35.36l.06-.09c.39-.51-.25-1.09-.76-1l-.12,0,.89.89,0-.07-.34.43-.21,0-.51-.21,0,0,.51-1.22H65l.71.71-.08.13-1.08-.14a.5.5,0,0,1-.05.43l.45-.45c.16.36.38.47.64.34l-.68-.27c.09.14.46.35.63.25a2.46,2.46,0,0,0,0-.47,3.68,3.68,0,0,1,.15-.88l-1,.13a4.29,4.29,0,0,0,1.54,1.36l-.25-.62c-.12.7-.9,1.32-1.51.64s.18-1.27.74-1.63a.36.36,0,0,0-.09-.65Z"/><path class="cls-9" d="M66.64,83.93c1.67-2.71,3.72-5.61,4.76-8.64.94-2.74-1.4-4.35-1.5-7a.9.9,0,0,0-1.79,0c0,2.25,2.2,4.15,1.83,6.31-.48,2.91-2.76,6.2-4.21,8.74a.53.53,0,0,0,.91.54Z"/><path class="cls-9" d="M69.16,67.93a9.91,9.91,0,0,0,.72-1.17,7.39,7.39,0,0,1,1-1.17c.39-.39-.21-1-.6-.61a4.66,4.66,0,0,0-1.51,2.79.24.24,0,0,0,.4.16Z"/><path class="cls-9" d="M72.15,64.1a7.79,7.79,0,0,0-1.57.44,7.05,7.05,0,0,0-1.55.58c-.21.13-.15.54.14.51a6.83,6.83,0,0,0,1.58-.47,8,8,0,0,0,1.52-.61c.19-.11.13-.48-.12-.45Z"/><path class="cls-9" d="M69.17,65.42c-2.62,1.79-2.75,6.37.53,7.47.67.22,1-.65.64-1.11-.83-1-2.28-1.32-2.36-2.84-.07-1.31,1-2.23,1.34-3.4a.1.1,0,0,0-.15-.12Z"/><path class="cls-9" d="M69.2,65.52a3.72,3.72,0,0,0-1,2.24.56.56,0,0,0,1.1.15c.11-.33.14-.69.24-1s.23-.66.35-1-.39-.65-.64-.38Z"/><path class="cls-9" d="M72.23,64.53a4.57,4.57,0,0,0-2.63,3.08,4.33,4.33,0,0,0,0,2.26c.26,1,2.16,3,1.27,4-.52.58.14,1.57.86,1.12a2.39,2.39,0,0,0,.89-3c-.35-1-1.15-1.65-1.56-2.57-.84-1.9-.06-3.34,1.37-4.57.12-.1,0-.32-.15-.26Z"/><path class="cls-9" d="M69.58,72.42a21.34,21.34,0,0,1-1.81,6.07c-.9,1.8-1.82,3.6-2.71,5.41a.25.25,0,0,0,.15.36,2.23,2.23,0,0,0,1.84-.08.19.19,0,0,0,0-.37c-1.88-.24-.24-1.43.39-2.55s1.29-2.59,1.86-3.9c.69-1.58,1.57-3.4.57-5a.13.13,0,0,0-.24,0Z"/><path class="cls-9" d="M67.08,83.93a3.4,3.4,0,0,0,.67-1.19,3.62,3.62,0,0,0,.38-1.18.18.18,0,0,0-.3-.13,4,4,0,0,0-.66,1.19,3,3,0,0,0-.39,1.18.18.18,0,0,0,.3.13Z"/><path class="cls-9" d="M68.29,82.21a4,4,0,0,0,.47-1.92.13.13,0,0,0-.22-.06,3.84,3.84,0,0,0-.67,1.87.22.22,0,0,0,.42.11Z"/><path class="cls-9" d="M71.41,76.11a2.39,2.39,0,0,0,.87-1.87c0-.21-.33-.21-.44,0A11.38,11.38,0,0,0,71.25,76c0,.1.08.23.16.13Z"/><path class="cls-9" d="M72.15,64.92a1.75,1.75,0,0,0,.85-.65c.09-.12,0-.31-.17-.22a1.67,1.67,0,0,0-.79.76c0,.06,0,.12.11.11Z"/><path class="cls-9" d="M72.32,64.44a1.28,1.28,0,0,0,.26-.2c.08-.06,0-.19-.1-.13a1.64,1.64,0,0,0-.25.21.08.08,0,0,0,.09.12Z"/><path class="cls-9" d="M68.85,65.51a.7.7,0,0,0-.38.63.19.19,0,0,0,.35.09l.27-.48a.18.18,0,0,0-.24-.24Z"/><path class="cls-9" d="M71,64.73a1.86,1.86,0,0,0-.69.85.3.3,0,0,0,.08.3l.05.06a.17.17,0,0,0,.18,0c.36-.1.44-.6.68-.86s-.06-.56-.3-.39Z"/><path class="cls-9" d="M93.7,62.08a5.07,5.07,0,0,0,1.16.23c.42,0,.84.11,1.26.13s.33-.42.07-.51-.83-.22-1.23-.35a5.12,5.12,0,0,0-1.17-.2c-.42,0-.46.58-.09.7Z"/><path class="cls-9" d="M93.61,61.67a6.92,6.92,0,0,0-2.13,7.47c.3.83.87,1.52,1.18,2.35a7.21,7.21,0,0,1-.15,4.33,65.9,65.9,0,0,1-2.16,7.27c-.29.78.92,1.08,1.22.33,1.26-3.13,3.3-7.49,3-11-.16-1.59-1.18-2.72-1.83-4.11-1.13-2.42-.36-4.45,1.08-6.51a.13.13,0,0,0-.18-.17Z"/><path class="cls-9" d="M91.71,83.53a2.16,2.16,0,0,0,.84,0,.53.53,0,0,0,.48-.37.37.37,0,0,0,0-.39.53.53,0,0,0-.57-.23,2.28,2.28,0,0,0-.79.29.38.38,0,0,0,.09.69Z"/><path class="cls-9" d="M93,83.09a46.93,46.93,0,0,0,2-5.17c.62-1.52,1.34-2.93,1.09-4.61a12.69,12.69,0,0,0-1.49-3.57c-1.32-2.72-.34-4.84,1.54-7,.42-.48-.27-1.19-.71-.71-2.14,2.33-3.78,4.55-2.46,7.76,1,2.31,2,3.57,1.46,6.25-.49,2.33-1.73,4.44-2.18,6.76-.08.42.5.72.73.3Z"/><path class="cls-9" d="M94.36,62.59a5.28,5.28,0,0,0-2,1.93c-.38.67-1,1.64-.47,2.38a.48.48,0,0,0,.65.17.41.41,0,0,0,.22-.34c0-.15-.06-.27,0-.41a2.48,2.48,0,0,1,.35-1,12.79,12.79,0,0,1,1.58-2.47.19.19,0,0,0-.23-.3Z"/><path class="cls-9" d="M94.54,62.09a1.48,1.48,0,0,0-1.34.64c-.3.38-.71,1-.42,1.48a.31.31,0,0,0,.34.14c.38-.1.47-.42.65-.73s.51-.52.87-.77.28-.7-.1-.76Z"/><path class="cls-9" d="M93.55,62.23a.74.74,0,0,0-.53.55.35.35,0,0,0,.24.42h.18a.36.36,0,0,0,.24-.24.51.51,0,0,1,.14-.26.28.28,0,0,0-.27-.47Z"/><path class="cls-9" d="M93.83,62c-.33,0-.5.24-.65.52a.35.35,0,1,0,.64.26,1.62,1.62,0,0,0,.19-.6.18.18,0,0,0-.18-.18Z"/><path class="cls-9" d="M94.89,62.27c-.49.32-1.27,1.3-.91,1.89a.34.34,0,0,0,.37.15c.66-.13.86-1.38.78-1.94a.17.17,0,0,0-.24-.1Z"/><path class="cls-9" d="M92.47,82.49c.63-1.21,1-2.56,1.61-3.78a6.56,6.56,0,0,0,1-3.45c0-.62-1-.86-1.15-.16a17.7,17.7,0,0,1-1.36,4.19A4.59,4.59,0,0,0,92,82.42a.29.29,0,0,0,.52.07Z"/><polygon class="cls-4" points="168.42 64.39 172.04 64.25 176.68 58.02 172.36 56.64 167.53 56.85 168.42 64.39"/><polygon class="cls-4" points="167.23 66 159.84 64.25 160.92 71.16 167.36 68.45 167.23 66"/><path class="cls-4" d="M169.19,69.56l2.66,0L174.26,76s-.66,1.28-2.88,1.15a19.53,19.53,0,0,1-4.51-.92Z"/><polygon class="cls-4" points="173.7 65.69 181.06 63.77 181.53 67.34 180.12 71.51 173.74 67.34 173.7 65.69"/><path class="cls-11" d="M170.49,64.25s-3.35.12-3.06,2.8,3.24,2.85,3.24,2.85,3.11-.9,3.07-2.56S172.5,64.8,170.49,64.25Z"/><path class="cls-9" d="M166.34,56c4.89-1.76,9.92-.83,13.27,3.31.21.27.58-.11.37-.37-3.32-4.17-8.89-5.75-13.72-3.15-.11.06,0,.25.08.21Z"/><path class="cls-9" d="M169,58.31a7.17,7.17,0,0,1,2.17,0,19.5,19.5,0,0,1,1.87.62.15.15,0,0,0,.15-.25A4.88,4.88,0,0,0,169,58c-.19,0-.16.38.05.36Z"/><path class="cls-9" d="M169.49,61.79c.21.1.31,0,.56,0s.54.12.82.12a.08.08,0,0,0,.06-.14c-.28-.33-1.18-.49-1.45-.07a0,0,0,0,0,0,.06Z"/><path class="cls-9" d="M179.62,65.68a11.94,11.94,0,0,0-.35,1.37,6.28,6.28,0,0,1-.79,1.52.19.19,0,0,0,.3.23c.71-.66,1.46-2.17.94-3.12a.06.06,0,0,0-.1,0Z"/><path class="cls-9" d="M176.8,66.31a1.55,1.55,0,0,1-.35,1,.11.11,0,0,0,.15.14.94.94,0,0,0,.38-1.19c0-.12-.2-.07-.18,0Z"/><path class="cls-9" d="M168.28,75.32c.94.79,2.91,1,3.8.05.09-.11,0-.31-.12-.3-.57,0-1.1.27-1.68.29a6.85,6.85,0,0,1-1.86-.26c-.13,0-.25.13-.14.22Z"/><path class="cls-9" d="M169.54,73.19a1.56,1.56,0,0,0,1.18.18c.2,0,.17-.34,0-.39a1.51,1.51,0,0,0-1.18,0,.1.1,0,0,0,0,.17Z"/><path class="cls-9" d="M161.32,65.83a2.12,2.12,0,0,0-.25,1.63c.1.45.38,1.17.9,1.25a.16.16,0,0,0,.19-.19c-.09-.4-.47-.7-.58-1.12a2.78,2.78,0,0,1,0-1.46.14.14,0,0,0-.26-.11Z"/><path class="cls-9" d="M163.83,66.59a.76.76,0,0,0,.15,1.08c.15.1.31-.07.29-.22s-.19-.54-.24-.84c0-.1-.15-.09-.2,0Z"/><path class="cls-9" d="M169.27,65.77a2.12,2.12,0,0,1,1.69.15c.44.25.58.66.88,1,.14.17.42,0,.42-.17a1.89,1.89,0,0,0-1.15-1.43,2,2,0,0,0-1.94.17c-.12.08,0,.29.1.24Z"/><path class="cls-9" d="M146.52,87.07a104.23,104.23,0,0,0,12-9.18c.1-.09,0-.26-.15-.19a105.09,105.09,0,0,0-12,9.27c-.05,0,0,.14.08.1Z"/><path class="cls-9" d="M129.41,88.92c3.48,1.59,9.17,1.27,12.7-.12.31-.12.3-.65-.09-.63-2.1,0-4.15.52-6.26.57s-4.2-.31-6.29,0c-.1,0-.17.15-.06.21Z"/><path class="cls-9" d="M32.55,95.48c.57-2.63,1-5.07,2.49-7.39a16.7,16.7,0,0,1,6.34-5.54c.23-.12.08-.52-.18-.43C36.28,84,31.71,90,32.28,95.44c0,.15.24.21.27,0Z"/><path class="cls-9" d="M52.85,103.12a25.77,25.77,0,0,1-1,4.24,21.32,21.32,0,0,1-2.3,4.22c-.12.19.16.41.31.25a12.72,12.72,0,0,0,3.45-8.64c0-.27-.43-.36-.49-.07Z"/><path class="cls-9" d="M57.63,105c3.84,5,12.54,3.6,16.39-.54.15-.16,0-.46-.24-.31A13.66,13.66,0,0,1,66,107.24c-3.09.09-5.33-1.37-8.05-2.56-.15-.06-.41.1-.27.28Z"/><path class="cls-9" d="M79.32,80.21c-.17.71.18,1.56-.56,2.05-.54.35-1.21.24-1.76.5-.18.08-.1.32,0,.37a2.42,2.42,0,0,0,2.31-.54,2.21,2.21,0,0,0,.35-2.43.22.22,0,0,0-.39,0Z"/><path class="cls-9" d="M54.57,82.22a8.69,8.69,0,0,1-1.94-.94c-.49-.4-.79-1.14-1.37-1.37a.22.22,0,0,0-.27.15c-.3.76.69,1.6,1.25,2a2.56,2.56,0,0,0,2.33.41.12.12,0,0,0,0-.21Z"/><path class="cls-9" d="M102.77,80.45a2.49,2.49,0,0,1-1.38,1c-.34.09-.72.39-.33.7s1.13-.05,1.47-.32a1.38,1.38,0,0,0,.59-1.31.21.21,0,0,0-.35-.1Z"/><path class="cls-9" d="M86.77,65.17a1.83,1.83,0,0,0,.32-.64,2.37,2.37,0,0,1,.53-.82A3.1,3.1,0,0,1,89.69,63a.21.21,0,0,0,.1-.39,2.27,2.27,0,0,0-2.48.38c-.48.41-1.24,1.49-.78,2.12a.16.16,0,0,0,.24,0Z"/><path class="cls-9" d="M85,51.6a20.79,20.79,0,0,0,.09,2.23,11,11,0,0,0,.22,2,.25.25,0,0,0,.49-.07,11.27,11.27,0,0,0-.22-2.24,18.39,18.39,0,0,0-.31-1.95.14.14,0,0,0-.27,0Z"/><path class="cls-9" d="M82,41.69c2.57-2.85,5.83-2.75,9-1.09.47.24,1-.37.59-.75-3.06-2.82-7.77-1.61-10.05,1.49-.2.27.23.6.46.35Z"/><path class="cls-9" d="M93.48,33.79c5.31-4.15,10.36-8.62,15.68-12.77q8.43-6.59,17.25-12.63c.38-.26,0-.88-.36-.61C114.65,15.61,103.33,24,93.3,33.61c-.12.11.06.27.18.18Z"/><path class="cls-9" d="M49.18,8.56A3.68,3.68,0,0,1,49,7.68q.87-1.25,1.65-.39c.42.33.8.74,1.19,1.1.71.64,1.39,1.33,2.15,1.9.13.09.24-.1.16-.2a34.76,34.76,0,0,0-2.55-2.6c-.5-.49-1-1.25-1.76-1.37-1.57-.25-1.75,1.68-1,2.62.15.19.53.09.43-.18Z"/><path class="cls-9" d="M56.34,68.25c2.95-2.62,5.78-5.33,8.58-8.11a102.73,102.73,0,0,0,8.22-8.48.18.18,0,0,0-.26-.26C69.93,54,67.32,57,64.54,59.76s-5.61,5.51-8.39,8.3c-.12.12.06.3.19.19Z"/><path class="cls-9" d="M95.73,47.88c2.27,3.4,5.72,6.14,8.85,8.72,3.43,2.84,6.81,5.92,10.5,8.41.17.12.36-.14.22-.28-3.18-3.09-6.89-5.73-10.3-8.54-3.22-2.66-5.9-5.79-9-8.52-.14-.12-.39,0-.27.21Z"/><path class="cls-9" d="M74.38,61.67C78,61,81.55,60.06,85.25,59.61a80.47,80.47,0,0,1,10.18-.56.27.27,0,0,0,0-.53c-6.91-.07-14.58.52-21.11,2.95a.1.1,0,1,0,.06.2Z"/><path class="cls-9" d="M52.33,85.74a19.18,19.18,0,0,1,2.37,2.64c.61.92.92,2,1.46,2.93a.18.18,0,0,0,.34-.1c0-2.18-2-4.83-4-5.72a.16.16,0,0,0-.19.25Z"/><path class="cls-9" d="M87.3,87c.17,3.11.67,6.2.89,9.31.19,2.77-.08,5.73.49,8.44a.22.22,0,0,0,.42,0c.61-2.85.12-6-.1-8.93a52.07,52.07,0,0,0-1.2-8.89c-.07-.27-.52-.22-.5.07Z"/><path class="cls-8" d="M89.25,36.84c-3.76-.35-9.38.34-10.42,4.82s3.43,5.61,6.91,5.68,8.53-.89,8.8-5.3c.21-3.46-3.05-5.49-6.16-4.77-.31.07-.18.56.13.48a4.35,4.35,0,0,1,4,7.5c-2.44,2.18-5.82,1.84-8.78,1.29-4.39-.82-5.84-5.27-1.9-7.81,2.2-1.43,4.89-1.35,7.4-1.64a.13.13,0,0,0,0-.25Z"/><path class="cls-8" d="M81.36,46.8a5.43,5.43,0,0,0,7.87,2.07c.13-.09,0-.29-.12-.21a5.3,5.3,0,0,1-7.61-1.94c0-.1-.19,0-.14.08Z"/><path class="cls-8" d="M89.18,47.39a7.94,7.94,0,0,0,.2,1.37.08.08,0,0,0,.16,0,9,9,0,0,0-.2-1.37c0-.09-.17-.07-.16,0Z"/><path class="cls-8" d="M82.88,49.27c.28,0,.39.14.65,0a.23.23,0,0,0-.12-.44c-.29,0-.29.19-.54.35,0,0,0,.06,0,.06Z"/><path class="cls-8" d="M83.33,48.73c0,1.64,0,3.26,0,4.9a15.38,15.38,0,0,0,.37,4.24.19.19,0,0,0,.36,0,15,15,0,0,0,0-4.24c-.07-1.64-.18-3.26-.35-4.9a.23.23,0,0,0-.45,0Z"/><path class="cls-8" d="M89,48.88a15.67,15.67,0,0,0-.1,4.59,42.35,42.35,0,0,0,.25,4.65c.07.45.72.3.75-.1a47.21,47.21,0,0,0-.11-4.9,14.33,14.33,0,0,0-.43-4.24.19.19,0,0,0-.36,0Z"/><path class="cls-8" d="M98.23,58C88.44,56.5,78,58.31,68.64,61.4c-.49.16-.28.94.22.78C78.63,59,88,58.46,98.18,58.39c.21,0,.27-.33,0-.36Z"/><path class="cls-8" d="M43.15,80.11c-8.72,2.87-13.56,12.06-12.08,21,1.74,10.4,9.71,15.14,19.68,14.77,29.78-1.1,59.58-3.67,89.33-5.52.59,0,.6-1,0-.92l-69.14,4.27-16.79,1c-5.82.35-12.09.75-16.73-3.46-10.33-9.35-5.78-25.38,5.89-30.76.22-.1.07-.46-.16-.39Z"/><path class="cls-8" d="M140.47,110.17a227.81,227.81,0,0,0,27.85-30.31c.28-.36-.34-.85-.63-.49-8.85,10.55-18,20.56-27.79,30.23-.37.37.19.92.57.57Z"/><path class="cls-8" d="M159.05,74.66a150.06,150.06,0,0,0-15.78,11.85c-.33.28.11.84.47.6a151.68,151.68,0,0,0,15.61-12.06.25.25,0,0,0-.3-.39Z"/><path class="cls-8" d="M159.21,74.53c-3.08-5.58-3.11-12.35,1.7-17a13.76,13.76,0,0,1,17-1.66c12.22,7.85,4.64,28.49-10,23.13-.59-.22-.84.72-.26.93,14.86,5.45,23.71-14.89,11.92-24-12.43-9.61-30.47,5.53-20.79,18.85.17.23.54,0,.4-.23Z"/><path class="cls-8" d="M128.9,86.76c2.08.9,4.49.78,6.74.85,2.58.08,5.37.32,7.88-.33.24-.06.27-.46,0-.5-2.4-.37-4.89-.06-7.32-.12s-4.93-.61-7.27-.12a.12.12,0,0,0,0,.22Z"/><path class="cls-8" d="M129.38,87.11a10,10,0,0,0,0-5.81.41.41,0,0,0-.8.11c0,.93.16,1.87.18,2.81s-.09,1.87,0,2.81a.3.3,0,0,0,.59.08Z"/><path class="cls-8" d="M68.46,64.41a56.29,56.29,0,0,1,34-2.2.16.16,0,0,0,.09-.31A55.73,55.73,0,0,0,68.4,64.17c-.14.06-.08.29.06.24Z"/><path class="cls-8" d="M65.75,65.67a6.47,6.47,0,0,1,3.42-1.19.1.1,0,0,0,0-.2,5.64,5.64,0,0,0-3.52,1.2c-.11.08,0,.27.1.19Z"/><path class="cls-8" d="M84.36,60.73c-.22,17.47-.29,34.94-.34,52.41a.13.13,0,0,0,.26,0c.18-17.47.34-34.94.34-52.41a.13.13,0,0,0-.26,0Z"/><path class="cls-8" d="M49.85,81.1c2.47,3.18,6.27,3.35,10,3.43a171.16,171.16,0,0,0,21.84-.7c.22,0,.23-.36,0-.35-5.38.21-10.75.58-16.14.65-5,.06-12,1.06-15.55-3.22-.12-.14-.3,0-.19.19Z"/><path class="cls-8" d="M81.86,84.06a54.84,54.84,0,0,1,.82-22.13.22.22,0,0,0-.42-.11,50.72,50.72,0,0,0-.62,22.3c0,.15.25.08.22-.06Z"/><path class="cls-8" d="M85.36,61.89c.4,7.16.79,14.33,1.37,21.47,0,.18.29.19.28,0-.33-7.16-.84-14.32-1.35-21.47,0-.18-.31-.19-.3,0Z"/><path class="cls-8" d="M87.33,84c5.76-.33,11.47,0,17.22-.09.17,0,.22-.27,0-.3a70.21,70.21,0,0,0-17.26.15c-.15,0-.16.25,0,.24Z"/><path class="cls-8" d="M104.91,83.56c-.16-5.87-.76-11.76-1.29-17.61,0-.31-.52-.32-.5,0,.42,5.88.78,11.81,1.57,17.64,0,.13.23.1.22,0Z"/><path class="cls-8" d="M85.59,61.9c5-.58,15.32-1.5,17.93,4,.12.24.47,0,.36-.21-2.68-5.59-13.39-5-18.32-4-.11,0-.08.21,0,.2Z"/><path class="cls-8" d="M84.84,86.94a73.34,73.34,0,0,0-7.55.58c-1.17.18-2.59.63-2.71,2A2.54,2.54,0,0,0,76.41,92c2.3.82,4.7-.91,7.07-.25a.16.16,0,0,0,.08-.3A5.55,5.55,0,0,0,81,91.26c-.6.08-1.17.25-1.76.36a3.53,3.53,0,0,1-2.27,0q-2.56,0-.61-3.49c.86-.55,2.79-.37,3.8-.46,1.55-.14,3.1-.28,4.65-.47.18,0,.19-.3,0-.29Z"/><path class="cls-8" d="M105.48,64c-.34,15.65-.49,31.57.82,47.18,0,.23.37.24.37,0-.31-15.74-1-31.43-.92-47.18a.14.14,0,0,0-.27,0Z"/><path class="cls-8" d="M105.87,86.28c-2.14.37-8.1-1.57-8.31,2.29a2.51,2.51,0,0,0,1.82,2.37c2.14.78,4.47-.55,6.68,0,.24.06.32-.28.1-.37a5.16,5.16,0,0,0-2.7-.2,20.44,20.44,0,0,1-2.33.34,3.8,3.8,0,0,1-2-.36,1.18,1.18,0,0,1-.69-1.87,1.4,1.4,0,0,1,1.25-1.69,4.66,4.66,0,0,1,1.48-.18c.53,0,1.06.08,1.58.13a6.92,6.92,0,0,0,3.17-.19.13.13,0,0,0-.07-.24Z"/><path class="cls-8" d="M66.27,92.85c-1.68.21-2,2.2-1,3.36s3.3,1.93,4.72.88a2.79,2.79,0,0,0-.11-4.31c-1.67-1.4-4.22-1-5.79.35-.15.13,0,.34.2.26,1.29-.59,2.55-1.25,4-.87a2.64,2.64,0,0,1,2.09,3.24c-.53,1.59-2.47,1.61-3.73,1a3.22,3.22,0,0,1-1.44-1.29,1.59,1.59,0,0,1,1.07-2.4c.12,0,.09-.23,0-.22Z"/><path class="cls-8" d="M65.1,95a2.38,2.38,0,0,0-1.36,4.26A2.45,2.45,0,0,0,67.63,97c0-.26-.46-.19-.46.07,0,1.72-1.81,3.07-3.29,1.76a2.08,2.08,0,0,1,1.25-3.56c.13,0,.1-.23,0-.23Z"/><path class="cls-8" d="M64.31,89.82a8.29,8.29,0,0,0-6.51,9.87A7.76,7.76,0,0,0,68,105.22,8.24,8.24,0,0,0,72.34,94.4c-1.47-3.57-6.12-6.75-9.63-3.85-.2.16,0,.42.26.33,9.41-4.3,13.31,12.58,3.29,14.18A7.24,7.24,0,0,1,58,98.31c-.27-4.14,2.64-7.12,6.38-8.25a.13.13,0,0,0-.07-.24Z"/><path class="cls-8" d="M37,111.28c4.64,1.25,10-2.37,11.11-6.91.08-.32-.41-.57-.56-.24A11.29,11.29,0,0,1,44,109c-2.12,1.55-4.4,1.78-6.93,1.93a.16.16,0,0,0,0,.32Z"/><path class="cls-8" d="M45.89,102.7A2.93,2.93,0,0,1,50.32,105c0,.43.69.44.67,0a3.3,3.3,0,0,0-5.31-2.59c-.16.13,0,.36.21.27Z"/><path class="cls-8" d="M35.23,101.32a12.24,12.24,0,0,1,4.53-14.95c.19-.14,0-.46-.19-.33A11.93,11.93,0,0,0,35,101.43a.14.14,0,0,0,.25-.11Z"/><path class="cls-8" d="M41.84,81c5.9,3.17,10.61,7.39,12.27,14.16,1.82,7.39-1.34,15-7,19.82-.33.29.16.78.49.49,11.08-9.61,9.64-30-5.74-34.64a.09.09,0,0,0-.07.17Z"/><path class="cls-8" d="M170.71,55.88c-6.28.7-12.18,5-11.11,12a11.65,11.65,0,0,0,12.45,9.63,11,11,0,0,0,9.84-12.06c-.63-5.89-7-11-12.9-8.72-.21.08-.2.44.06.43,4.93-.24,9.67,1.07,11.47,6.19a10.12,10.12,0,0,1-9.69,13.38,10.94,10.94,0,0,1-10.59-10.16c-.32-6.21,5.24-9.24,10.52-10.34.18,0,.14-.36,0-.34Z"/><path class="cls-8" d="M169.49,64.08a3,3,0,0,0-2.21,4,3.68,3.68,0,0,0,4.81,1.76,3.1,3.1,0,0,0,1.46-4.59c-1.61-2.16-4.49-1.48-6.43-.3-.2.12-.07.48.17.39,1.37-.51,3.05-1.08,4.47-.49a2.28,2.28,0,0,1,.31,4.17,3.12,3.12,0,0,1-3.8-.51,2.55,2.55,0,0,1,1.31-4.14c.21,0,.12-.37-.09-.33Z"/><path class="cls-8" d="M167.39,56.85a71.48,71.48,0,0,0,1.08,8.37c0,.23.43.18.41,0a73.5,73.5,0,0,0-1.21-8.36.14.14,0,0,0-.28,0Z"/><path class="cls-8" d="M172,64.6c1.64-2.26,3.42-4.49,4.87-6.88.13-.2-.18-.46-.33-.26-1.76,2.2-3.25,4.64-4.83,7-.12.18.17.34.29.17Z"/><path class="cls-8" d="M168,71s0,0,0,0,0,0,0,0Z"/><path class="cls-8" d="M169.3,69.58a26.16,26.16,0,0,0-2.3,6.36c-.07.3.38.42.45.13a35.1,35.1,0,0,1,2.14-6.32c.08-.19-.19-.36-.29-.17Z"/><path class="cls-8" d="M171.72,70.1a23.25,23.25,0,0,1,2.15,6c.09.43.76.25.67-.19a16.74,16.74,0,0,0-2.5-6,.18.18,0,0,0-.32.18Z"/><path class="cls-8" d="M173.85,66.08c2.82-.85,5.66-1.68,8.47-2.58a.2.2,0,1,0-.16-.37l-.47.23c-.1,0-.06.23.06.21l.51-.07,0-.39c-2.82.86-5.62,1.81-8.43,2.72-.16,0-.09.3.07.25Z"/><path class="cls-8" d="M173.67,67.53c1.11.82,2.21,1.63,3.33,2.43a13.07,13.07,0,0,0,3.07,2c.19.06.28-.18.18-.31a13.15,13.15,0,0,0-2.95-2.21c-1.13-.78-2.27-1.53-3.41-2.29-.23-.16-.44.22-.22.38Z"/><path class="cls-8" d="M167.31,66.21c-2.2-1.09-5.1-2.42-7.6-2.34-.19,0-.31.31-.1.4a25,25,0,0,0,3.56,1c1.35.38,2.68.81,4,1.25a.17.17,0,0,0,.13-.31Z"/><path class="cls-8" d="M167.4,68.15a34.59,34.59,0,0,0-7.08,3.17.22.22,0,0,0,.23.38,34.75,34.75,0,0,1,6.92-3.27c.17-.06.1-.33-.07-.28Z"/><path class="cls-8" d="M142.05,100c6.17-5.89,12.17-11.94,18.27-17.89a.13.13,0,1,0-.19-.19c-6.08,6-12.26,11.84-18.29,17.88-.13.13.08.33.21.2Z"/><path class="cls-8" d="M128.74,92.91a137.86,137.86,0,0,0,13.76-1.38c.1,0,.08-.19,0-.18a137.86,137.86,0,0,0-13.73,1.38c-.11,0-.11.19,0,.18Z"/><path class="cls-8" d="M140.08,101.85a22.55,22.55,0,0,0-2.31,2.17A10.07,10.07,0,0,0,136,106.3a.08.08,0,0,0,.12.09c.72-.68,1.26-1.57,1.94-2.31a28.65,28.65,0,0,1,2.18-2.09c.11-.08,0-.23-.14-.14Z"/><path class="cls-8" d="M135.76,99.27a14.34,14.34,0,0,1,3.86-2.63l-.22-.12c0,.58,0,1.16,0,1.73a.13.13,0,0,0,.25,0,16.65,16.65,0,0,0,0-1.73.15.15,0,0,0-.22-.12,13.84,13.84,0,0,0-3.81,2.77c-.07.06,0,.16.1.1Z"/><path class="cls-8" d="M78.49,44.12C70,51.69,62.07,59.94,54,67.92c-3,2.94-7.36,6-9.43,9.61-.75,1.32-1.17,3.24.05,4.47s2.83.63,4.13-.2c3.84-2.48,7-7.51,10.16-10.85C66.68,62.73,74.92,55,83,47.11c.3-.29-.14-.71-.45-.45-5.92,5.15-11.49,10.73-17,16.29-2.89,2.9-5.73,5.82-8.54,8.79-1.3,1.37-2.59,2.74-3.87,4.13-.8.87-2.87,4.06-3.81,4.17q-5.13-1.64-2.86-3.5c.6-.63,1.22-1.24,1.85-1.84l4.17-4.12,8.33-8.24c6-5.94,12.17-11.78,17.89-18a.16.16,0,0,0-.22-.22Z"/><path class="cls-8" d="M87.62,36.82A248,248,0,0,1,106.46,20q5.58-4.48,11.43-8.64c2-1.39,3.94-2.76,5.94-4.09,1-.66,2-1.32,3-2q1.71-2.15,2.69.41,2.39,1.46-.13,2.74l-2.61,2.69c-1.53,1.56-3.07,3.12-4.62,4.66q-4.65,4.62-9.43,9.11c-6.6,6.2-13.41,12.16-20.37,18-.34.28.14.75.47.48Q106.51,32,119.33,19.6c4-3.89,9.19-7.92,12.34-12.53.73-1.06,1.69-2.43.58-3.66-1.58-1.76-4.41.43-5.77,1.28-4.83,3-9.5,6.35-14,9.78a222.87,222.87,0,0,0-25,22.15.14.14,0,0,0,.2.2Z"/><path class="cls-8" d="M87.86,48c8.22,7.91,16.86,15.65,25.68,22.9a99.55,99.55,0,0,0,11.83,8.58c1.62,1,4.61,3,6.51,1.36C136.46,76.77,124,69.2,122,67.47c-9.17-7.77-18.25-15.65-27.51-23.31-.45-.37-1.11.26-.65.66,6.36,5.54,12.86,10.94,19.29,16.41l9.66,8.19c1.74,1.47,3.48,2.94,5.2,4.41l1.49,1.26q3,1.86-2,4.47c-.94,0-3.83-2.37-4.61-2.89-1.5-1-3-2.07-4.42-3.16-3.83-2.9-7.46-6.05-11.07-9.22-6.33-5.58-12.51-11.37-19-16.75-.3-.25-.74.16-.44.45Z"/><path class="cls-8" d="M48.84,2.55a2.37,2.37,0,0,0-3.78-.2c-2.47,2.58,1,6.13,2.65,7.82C57.94,20.8,68.35,31.4,79,41.62a.44.44,0,0,0,.61-.62C74,35,68.06,29.31,62.28,23.48l-8.34-8.39L49.76,10.9c-.69-.7-1.39-1.39-2.09-2.08q-3-2.16.81-5.91a.25.25,0,0,0,.36-.36Z"/><path class="cls-8" d="M84.87,37.09c-5.2-6.49-12-12-18.11-17.66S54.42,7.89,48,2.41a.49.49,0,0,0-.54-.07l-.7.36c-.35.18-.09.68.26.61,2.07-.4,8.75,7.35,10.44,8.89q4.67,4.26,9.3,8.58c5.89,5.48,11.46,11.73,17.9,16.56.15.11.29-.12.19-.25Z"/><path class="cls-8" d="M82.53,61.78a60.84,60.84,0,0,0-21.44,6c-.13.07,0,.26.12.2a79.66,79.66,0,0,1,21.35-6c.08,0,.06-.16,0-.16Z"/><path class="cls-8" d="M69.07,64.69c-1.39,1.62-3.37,4.38-2.53,6.62.07.17,2,1.82.94.48,2,2.7,1.86,1.9.71,4.61S65.84,81.52,64.53,84c-.11.22.23.42.34.2,1.2-2.29,2.34-4.61,3.37-7,.49-1.11,1.45-2.58,1.34-3.81-.14-1.39-.35-.66-.87-1.69l-.06,0c-1-.42-1.56-1.4-1.6-2.92,0-1.26,1.51-3,2.22-3.93.09-.12-.11-.27-.2-.16Z"/><path class="cls-8" d="M73,64.42C71.3,65.7,69,68,70.53,70.31c-.63-.91,1.38,1.29,1.16.89,1.06,2,.83,2.77-.18,4.65-1.44,2.71-2.92,5.41-4.31,8.14a.23.23,0,0,0,.39.23c1.14-2.07,2.23-4.16,3.33-6.25.75-1.41,2-3,2.37-4.62.19-.91,0-.86-.11-1.72,0,0-.09-.08-.09-.11L72.34,71c-1.44-2.8-1.2-5,.72-6.45.06-.07,0-.2-.1-.14Z"/><path class="cls-8" d="M92.94,62.34c-1.85,2-3.33,4-2.2,6.7.78,1.86,2.19,2.89,1.83,5.25-.44,2.89-1.62,5.76-2.25,8.62a.25.25,0,0,0,.48.14c.6-1.89,1.09-3.81,1.6-5.73.41-1.54,1.55-3.95,1.37-5.54-.06-.45-.27-.89-.37-1.32-.05-.23-.65-.4-.75-.6a2.23,2.23,0,0,1-.59-2.57q-1.65-2.87,1.12-4.72c.14-.16-.09-.39-.24-.23Z"/><path class="cls-8" d="M96.31,62.39c-1,1.68-4.18,4.78-2.79,6.94.17.26.55.35.73.59a3.14,3.14,0,0,0,.82.46l1.06,3.81c-.08,2.4-2.25,5.86-3.06,8.12-.11.33.39.46.52.15.9-2.24,1.75-4.5,2.58-6.76.45-1.22,1.25-2.7.82-4-.25-.78-.87-.89-1.26-1.5-2.32-3.55-1-4.42.84-7.62a.15.15,0,0,0-.26-.15Z"/><path class="cls-8" d="M109.4,109.76c6.13.46,12.4-.28,18.47-1.17.49-.07.28-.81-.21-.74-6.09.9-12.14,1.05-18.26,1.5a.21.21,0,0,0,0,.41Z"/><path class="cls-8" d="M55.07,113.27c6.91-.42,13.8-1.51,20.66-2.36.5-.06.51-.85,0-.79-6.89.86-13.88,1.48-20.71,2.76a.2.2,0,0,0,0,.39Z"/><path class="cls-8" d="M89.68,111.24c3.8-.17,7.7-.26,11.47-.79.3,0,.23-.53-.07-.52-3.79,0-7.64.56-11.4,1a.17.17,0,0,0,0,.33Z"/><path class="cls-8" d="M102.88,93.27l-.1.1a.34.34,0,0,0,0,.48l.1.1a.48.48,0,1,0,0-.68Z"/><path class="cls-8" d="M103,97.24a.47.47,0,0,0,.74.57c.5-.49-.43-1.18-.74-.57Z"/><path class="cls-8" d="M103.6,101.84h-.11a.3.3,0,0,0-.37.37v.11a.47.47,0,1,0,.47-.47Z"/><path class="cls-8" d="M103.19,107.29l-.06.12a.44.44,0,0,0,.59.6l.12-.06c.71-.36-.29-1.37-.65-.66Z"/><path class="cls-8" d="M81.53,93.83l-.3.23c-.46.37.27,1.1.64.64l.23-.3c.24-.34-.23-.8-.57-.57Z"/><path class="cls-8" d="M81.14,100.59l-.14.09a.33.33,0,0,0,0,.56l.14.09a.44.44,0,0,0,.65-.37.43.43,0,0,0-.65-.37Z"/><path class="cls-8" d="M81.69,106.32l.1-.1a.33.33,0,0,0,0-.47l-.1-.09a.47.47,0,0,0-.8.33.48.48,0,0,0,.8.33Z"/><path class="cls-8" d="M81.93,109.44l-.07-.15a.36.36,0,0,0-.62,0l-.07.15c-.44.83,1.2.83.76,0Z"/><path class="cls-8" d="M80.77,97.64l0,.08a.26.26,0,0,0,0,.29l0,.08a.45.45,0,1,0,0-.45Z"/><path class="cls-8" d="M55.33,115.36c.33,2,.92,4,1.41,6,.14.61,1.08.35.93-.26-.48-2-.88-4-1.51-6a.43.43,0,0,0-.83.23Z"/><path class="cls-8" d="M60.33,115.45a24,24,0,0,0,.6,3.13,8.12,8.12,0,0,0,.87,3c.13.18.48.2.53-.07a6.82,6.82,0,0,0-.4-2.74,27.46,27.46,0,0,0-.86-3.44c-.13-.37-.78-.35-.74.1Z"/><path class="cls-8" d="M124.41,111.2c.21,2.71.83,5.4,1.3,8.07.1.57,1,.33.86-.23-.47-2.64-.83-5.34-1.55-7.92-.09-.33-.64-.28-.61.08Z"/><path class="cls-8" d="M128.29,113.34a17,17,0,0,0,1.43,5.83c.21.44,1,.13.8-.34a22.11,22.11,0,0,1-1.32-5.49c0-.58-1-.59-.91,0Z"/><path class="cls-8" d="M127.92,111.21c0,.48.18.94.21,1.42a12.16,12.16,0,0,1,0,1.48.43.43,0,0,0,.84.11,4.22,4.22,0,0,0-.56-3.14c-.13-.18-.49-.15-.47.13Z"/><path class="cls-8" d="M133.74,110.55a11.18,11.18,0,0,0,.07,3,7.65,7.65,0,0,0,.43,2.66.32.32,0,0,0,.59-.08,8,8,0,0,0-.1-2.79,10.51,10.51,0,0,0-.46-2.79c-.09-.22-.47-.29-.53,0Z"/><path class="cls-8" d="M135.82,111a15.3,15.3,0,0,0,.27,2.61,23.65,23.65,0,0,0,.46,2.9.34.34,0,0,0,.67-.09,21.1,21.1,0,0,0-.31-2.61,17.36,17.36,0,0,0-.51-2.88.3.3,0,0,0-.58.07Z"/><path class="cls-8" d="M65.39,115.28a31.39,31.39,0,0,0,.64,3.59c.13.5.88.29.78-.21a33.54,33.54,0,0,0-.93-3.44c-.09-.25-.53-.23-.49.06Z"/><path class="cls-8" d="M67.82,115.23a12,12,0,0,0-.08,1.69,5.92,5.92,0,0,0,.13,1.73c.09.28.57.33.62,0a5.59,5.59,0,0,0-.07-1.73,10.64,10.64,0,0,0-.28-1.69c0-.15-.3-.17-.32,0Z"/><path class="cls-8" d="M41.32,122.8h-.19a0,0,0,1,0,0,0h.19a0,0,0,0,0,0,0Z"/><path class="cls-8" d="M42.36,122.58c19.25.09,38.63-1.82,57.89-2.34s38.64-.09,57.94-.72a.34.34,0,0,0,0-.67c-19.24-.88-38.7-.08-57.94.46s-38.87.4-57.89,2.82c-.28,0-.3.45,0,.45Z"/><path class="cls-8" d="M128.88,117q14.94-.12,29.9,0a.25.25,0,0,0,0-.5q-15-.18-29.9,0a.25.25,0,0,0,0,.5Z"/><path class="cls-8" d="M61,119.23c21.61-1.35,43.26-1.77,64.9-2.16a.25.25,0,0,0,0-.5c-21.64.39-43.29.81-64.9,2.16-.32,0-.32.52,0,.5Z"/><path class="cls-8" d="M43,120.26q7-.44,14-.81c.32,0,.33-.52,0-.5q-7,.38-14,.81c-.32,0-.32.52,0,.5Z"/></svg>