<svg id="carracters" xmlns="http://www.w3.org/2000/svg" viewBox="0 0 198.43 35.43"><defs><style>.cls-1{fill:#fff;}</style></defs><path d="M187,27.77,185.7,29,185,28c-2.33-3-4.75-5.87-7.36-8.6-.66-.69-1.34-1.34-2-2a.52.52,0,0,0-.11-.1c-.49-.42-.8-.44-1.27,0s-1,1-1.44,1.49c-1.46,1.63-2.9,3.27-4.35,4.91a.87.87,0,0,0-.1.24c-.05.16-.09.32-.13.47L166.73,23l1.66-1.8,4.26-4.68a4.09,4.09,0,0,1,1.25-1,1.66,1.66,0,0,1,1.78.07A13.3,13.3,0,0,1,177.32,17a100.61,100.61,0,0,1,7.54,8.18c.69.81,1.36,1.64,2,2.47Z"/><path d="M176.92,14.65l-.27-.68c.11-.1.17-.11.23,0s.22.54.33.82a.18.18,0,0,1-.18.26h-1s-.1-.08-.16-.12l0-.08h.89a6.52,6.52,0,0,0-2.06-1.14.9.9,0,0,0-.6.09c-.59.34-1.17.7-1.74,1.07-.3.2-.59.44-.89.67l-.11-.12s0,0,0-.05a16.82,16.82,0,0,1,2.43-1.66,1.33,1.33,0,0,1,1.4,0l1.45.83a1.32,1.32,0,0,1,.2.12Z"/><path class="cls-1" d="M36.82,27.77,35.51,29l-.74-1c-2.32-3-4.75-5.87-7.35-8.6-.66-.69-1.35-1.34-2-2a.52.52,0,0,0-.11-.1c-.49-.42-.8-.44-1.27,0s-1,1-1.44,1.49c-1.46,1.63-2.9,3.27-4.35,4.91a.64.64,0,0,0-.1.24c-.05.16-.09.32-.13.47L16.55,23l1.66-1.8,4.26-4.68a4.17,4.17,0,0,1,1.24-1,1.68,1.68,0,0,1,1.79.07A13.3,13.3,0,0,1,27.14,17a100.61,100.61,0,0,1,7.54,8.18c.69.81,1.36,1.64,2,2.47Z"/><path class="cls-1" d="M26.74,14.65,26.47,14c.1-.1.17-.11.23,0s.22.54.32.82a.17.17,0,0,1-.17.26h-1s-.11-.08-.16-.12l0-.08h.89a6.63,6.63,0,0,0-2.06-1.14.9.9,0,0,0-.6.09c-.59.34-1.17.7-1.74,1.07-.31.2-.59.44-.89.67l-.11-.12s0,0,0-.05a16.82,16.82,0,0,1,2.43-1.66,1.32,1.32,0,0,1,1.39,0l1.46.83a2.12,2.12,0,0,1,.2.12Z"/></svg>