<svg id="illustration" xmlns="http://www.w3.org/2000/svg" viewBox="0 0 198.43 114.46"><defs><style>.cls-1{fill:#fff;}.cls-2{fill:#c0c2c4;}.cls-3{fill:#5b7c8e;}.cls-4{fill:#010101;}</style></defs><path class="cls-1" d="M75.41,108.33c9.11,3.34,22.38,0,27-.65s4-1.47,12.43-4.73S136.79,93,145,81.23s6.21-22.72,6.21-22.72c-7.61-.33-15.68-5.1-15.68-5.1a35.94,35.94,0,0,1-15,10.43.39.39,0,0,1-.24.3,10.76,10.76,0,0,0-2.49,1c-.48.41-1.19-.29-.7-.71l0,0c.42-4.41-6.29-26-19.19-38.33-13.34-12.71-30-15.48-37.16-17s-17.32-.95-17.32-.95c5,5,17,7.2,17,7.2l-.82.49c-.82.49-14.34,0-14.34,0s.52.31,6.46,3.68S71,27.67,69.66,27.67s-11.8.3-11.8.3l4.8,3.75c-1.3-.28-7.88-3-13.41-4.33S37.46,26.13,28.86,26.3c1.4,2,9.11,6.19,14.52,8.41s14.59,2,11.79,2.06a25.59,25.59,0,0,0-6.23,1.12c-14.19-.61-12.3,2-12.3,2,8.85,8.53,28.65,12,26.41,13.08s-14.57,1.82-14.57,1.82,5.63,3.46,10,5.57,18.27,6.16,16.89,5.81-9,.61-9,.61.76.75,1.86,1.64A25.55,25.55,0,0,0,74,71.11a74.79,74.79,0,0,0,8.76,1.67c3.18.45,9.27,3,9.27,3s-3.81,2.62-5.21,3.8a52.89,52.89,0,0,0-6.48,7.79C78.64,90,77.29,94.67,72.3,97.67m37.38-29.35c-1.29.19-2.7.45-4.13.65a.46.46,0,0,1-.21.14,34.44,34.44,0,0,1-4.3.72,2.84,2.84,0,0,1-1.63.07c-.46-.18-.74-.69-1.21-.83a.48.48,0,0,1-.3-.67c-.13-.35.12-.83.57-.67,3.31,1.12,7.6.14,10.94-.38C110,67.25,110.31,68.22,109.68,68.32Z"/><path class="cls-2" d="M150.53,59.18C148.9,66.9,144.37,75,140,81.5c-4.8,7-11.81,13.08-19,17.6-.43.28-.16,1.07.37.87A46.47,46.47,0,0,0,142.6,84.25c6-7.71,7.65-15.56,8.69-25,0-.43-.67-.52-.76-.1Z"/><path class="cls-2" d="M150.82,62.3c-.53,2.59-.66,5.21-1.5,7.73-.66,2-1.76,3.92-1.84,6.07,0,.19.25.19.31,0a43.89,43.89,0,0,0,3.15-13.82c0-.07-.11-.09-.12,0Z"/><path class="cls-2" d="M150.58,62.59a39,39,0,0,1-.74,5.48c-.34,1.59-1,3.12-1.24,4.71,0,.21.25.37.37.16,1.67-3,2.06-7,2.15-10.35a.27.27,0,0,0-.54,0Z"/><path class="cls-2" d="M89.12,22.86a3.08,3.08,0,0,0,.95,2.45,15.14,15.14,0,0,0,2.1,2.35,1.57,1.57,0,0,0,2.21-2.22,14.7,14.7,0,0,0-2.45-2.06,3,3,0,0,0-2.44-.88.52.52,0,0,0-.37.36Z"/><path class="cls-3" d="M87.39,22.54c1.54,3.06,5.79,5,8.29,7.28,3.06,2.78,5.35,5.93,8.09,9,.81.9,2-.25,1.58-1.22-1.76-3.69-5.12-7.38-8.1-10.11-2.39-2.18-6-5.76-9.46-5.62a.47.47,0,0,0-.4.69Z"/><path class="cls-3" d="M68.81,36.45c3.53,2.76,7.19,5,10.08,8.53,1.53,1.86,3.13,3.64,4.53,5.6,1.09,1.52,1.6,3,3.32,3.8a.66.66,0,0,0,1-.56c.3-3.54-4.78-8.33-7.24-10.43-3.33-2.86-7.2-6-11.35-7.48-.29-.11-.57.34-.32.54Z"/><path class="cls-3" d="M81,90.75c2.07-1.93,3.73-4.19,5.72-6.21S91,81.26,92.31,79a.54.54,0,0,0-.47-.81c-3.11-.12-5.68,2.25-7.67,4.39a13,13,0,0,0-3.89,7.94.41.41,0,0,0,.69.28Z"/><path class="cls-3" d="M100.73,70.93c10.07,3.74,22.06-3.35,28.82-10.38a.57.57,0,0,0-.7-.89c-4.17,2.09-7.86,4.74-11.9,7-5.21,3-10.28,3.49-16.13,3.58a.34.34,0,0,0-.09.66Z"/><path class="cls-3" d="M101.42,70.67c3.26.14,6.55-.77,9.66-1.65s6.51-1.77,9.14-3.64a.38.38,0,0,0-.29-.7c-3.12.64-6.11,2.19-9.19,3.09s-6.35,1.38-9.37,2.5a.2.2,0,0,0,0,.4Z"/><path class="cls-3" d="M110.57,69.18a10,10,0,0,0,3.57-.68,16.46,16.46,0,0,0,3.45-1.41.61.61,0,0,0-.47-1.11,35.65,35.65,0,0,0-3.57,1.33,13,13,0,0,0-3.1,1.42.24.24,0,0,0,.12.45Z"/><path class="cls-3" d="M100.22,70.62a4.53,4.53,0,0,0,2.53,0,.41.41,0,0,0-.1-.74,2.69,2.69,0,0,0-1.23,0,7.32,7.32,0,0,0-1.2.25c-.24.06-.27.49,0,.53Z"/><path class="cls-3" d="M94,77.12c-1.09-.18-2.34.81-3.17,1.43a6.07,6.07,0,0,0-2.33,2.69.28.28,0,0,0,.4.31c1-.62,1.69-1.46,2.58-2.16s2.11-1.06,2.66-1.91a.24.24,0,0,0-.14-.36Z"/><path class="cls-3" d="M92.68,76.84a5.88,5.88,0,0,0-2.85,1.37c-.68.55-1.8,1.44-1.82,2.39a.42.42,0,0,0,.54.41c.78-.29,1.3-1.23,1.9-1.79S92.1,78,92.9,77.37a.29.29,0,0,0-.22-.53Z"/><path class="cls-3" d="M91.68,76.64c-1.12-.22-2.4.83-3.2,1.49S86.31,80,86.29,81.3a.32.32,0,0,0,.49.28c1-.52,1.63-1.71,2.45-2.48s2.06-1.33,2.54-2.24a.15.15,0,0,0-.09-.22Z"/><path class="cls-3" d="M91.59,76.81c.52.37,1.55.81,2.1.28a.36.36,0,0,0,.09-.36c-.28-.77-1.42-.79-2.09-.68-.39.06-.36.58-.1.76Z"/><path class="cls-3" d="M91.18,76.64c-.38.2-.59.35-.61.82a.35.35,0,0,0,.53.3c.39-.24.42-.5.42-.93a.23.23,0,0,0-.34-.19Z"/><path class="cls-3" d="M91.34,76.66c-.64-.12-1.47.27-1.32,1a.41.41,0,0,0,.6.25c.38-.21.48-.69.8-1a.18.18,0,0,0-.08-.3Z"/><path class="cls-3" d="M91.25,78,90,79.45c-.16.18.1.46.28.27l1.27-1.35c.21-.22-.13-.55-.33-.33Z"/><path class="cls-3" d="M81.88,88.35c-.71.25-1.08.91-1.54,1.47a10.35,10.35,0,0,0-1.47,2,.33.33,0,0,0,.52.4A10.26,10.26,0,0,0,81,90.28a3.81,3.81,0,0,0,1-1.83.11.11,0,0,0-.12-.1Z"/><path class="cls-3" d="M80.22,90.15a24,24,0,0,1-3.13,3.76,39.31,39.31,0,0,1-4,2.8.19.19,0,0,0,.14.34c3.08-.75,6-3.91,7.28-6.73a.17.17,0,0,0-.29-.17Z"/><path class="cls-3" d="M73.7,96.71c2.81-1.19,6-5.3,6.43-8.33a.3.3,0,0,0-.54-.22c-.93,1.36-1.47,3-2.45,4.3s-2.47,2.6-3.58,4c-.07.1,0,.3.14.24Z"/><path class="cls-3" d="M79,92.13c.57-.89,1.16-1.76,1.71-2.67a4.83,4.83,0,0,0,1.1-2.37.36.36,0,0,0-.53-.31c-.76.43-1.08,1.41-1.47,2.15-.5.94-.94,1.9-1.42,2.85a.35.35,0,0,0,.61.35Z"/><path class="cls-3" d="M80.6,90.16a21,21,0,0,1,2.58-3.61c.75-.83,2-1.65,2.3-2.75a.31.31,0,0,0-.3-.39c-1.26.1-2.3,1.45-3.07,2.34a22.25,22.25,0,0,0-2.63,3.76.65.65,0,0,0,1.12.65Z"/><path class="cls-3" d="M85.22,85l1.11-1.18c.3-.32.68-.61.55-1.09a.37.37,0,0,0-.34-.25c-.47-.06-.7.39-1,.72l-1,1.2c-.33.41.22,1,.6.6Z"/><path class="cls-3" d="M74.06,97.35c7.12-5.75,13.6-12.72,19.74-19.49.63-.69-.37-1.7-1-1C86.35,83.4,79.61,90,73.73,97a.23.23,0,0,0,.33.33Z"/><path class="cls-3" d="M103.14,71.74c4.68,2.92,12.4-.9,16.19-3.88.06,0,0-.17-.09-.14-2.48.89-4.76,2.27-7.28,3.1-3,1-5.7.62-8.76.7a.12.12,0,0,0-.06.22Z"/><path class="cls-3" d="M128.73,60c1.49.15,3.2-1.33,4.23-2.27s2.71-2.54,2.74-4a.27.27,0,0,0-.4-.23,4.61,4.61,0,0,0-1.07,1.39,12.65,12.65,0,0,1-1.75,2,13.53,13.53,0,0,1-2.16,1.62,6.88,6.88,0,0,0-1.7,1.15.16.16,0,0,0,.11.27Z"/><path class="cls-3" d="M129.16,60.83c.6-.51,1.23-1,1.85-1.47s1.38-.78,1.69-1.37a.33.33,0,0,0-.29-.49c-.69,0-1.39.75-1.9,1.2a8,8,0,0,0-1.59,1.94c-.1.16.11.29.24.19Z"/><path class="cls-3" d="M62.47,11.64c1.71.93,3.82,1.15,5.68,1.69A36.28,36.28,0,0,0,73.86,15c.25,0,.27-.31.12-.42a17.38,17.38,0,0,0-5.54-2.23c-1.86-.53-3.94-1.25-5.88-1a.19.19,0,0,0-.09.35Z"/><path class="cls-3" d="M46.33,29.37c2.1.46,4.21.78,6.28,1.36s4,1.61,6.1,2c.24,0,.5-.27.26-.46-3.16-2.52-8.57-3.59-12.55-3.6a.35.35,0,0,0-.09.68Z"/><path class="cls-2" d="M66.88,67.57c2.86,2.11,7.39,4.43,11,4.36a.36.36,0,0,0,.18-.66,38.55,38.55,0,0,0-4.85-1.8c-2-.77-3.92-1.77-5.89-2.67a.45.45,0,0,0-.45.77Z"/><path class="cls-2" d="M48.92,55.59a35,35,0,0,0,7.19,4.09A46.61,46.61,0,0,0,63.74,63a.42.42,0,0,0,.32-.77c-2.46-1.51-5.25-2.56-7.84-3.85a52.66,52.66,0,0,0-7-3.38c-.31-.1-.59.35-.33.56Z"/><path class="cls-2" d="M36.5,39.62A33.23,33.23,0,0,0,42,43.47a48,48,0,0,0,6.5,3.71.5.5,0,0,0,.51-.87c-1.88-1.41-4-2.53-6-3.77a50.66,50.66,0,0,0-6-3.65c-.45-.19-1,.33-.56.73Z"/><path class="cls-2" d="M48,44c1.84,2.43,7,3,9.73,2.22a.36.36,0,0,0-.1-.71,26.73,26.73,0,0,1-5.05-.39c-1.49-.34-2.84-1.25-4.33-1.45-.16,0-.39.15-.25.33Z"/><path class="cls-2" d="M61.85,58.29a17.84,17.84,0,0,0,9.56,1.06c.52-.09.32-.79-.11-.84-1.55-.21-3.15-.15-4.71-.27A40.39,40.39,0,0,0,61.93,58c-.14,0-.22.22-.08.28Z"/><path class="cls-2" d="M29.15,26.86c2.11,2.5,5.51,4.18,8.43,5.54,2.7,1.27,5.68,2.62,8.68,2.7a.27.27,0,0,0,.14-.5c-2.81-1.38-5.91-2-8.75-3.41s-5.32-3.45-8.14-4.79a.3.3,0,0,0-.36.46Z"/><path class="cls-2" d="M40.52,31.2a13.19,13.19,0,0,0,9.66,1.55.49.49,0,0,0-.13-.95,34,34,0,0,1-4.94-.14,36.44,36.44,0,0,1-4.3-1.16.38.38,0,0,0-.29.7Z"/><path class="cls-2" d="M57,20.05c2.26,2.76,8.3,5.33,11.85,4.88.25,0,.44-.4.15-.54-1.91-.87-4.08-1.1-6-1.94s-3.68-2.15-5.64-2.95c-.34-.14-.5.33-.32.55Z"/><path class="cls-2" d="M61.26,22.11c1.57,1.25,4.25,2.92,6.35,2.3a.28.28,0,0,0,.07-.51,20.6,20.6,0,0,0-2.81-.82,11.16,11.16,0,0,1-3.08-1.65c-.4-.3-.92.37-.53.68Z"/><path class="cls-2" d="M61.09,21.46c.35.85,1.42,1.17,2.19,1.56s1.78,1.09,2.7.91a.32.32,0,0,0,.19-.46c-.44-.83-1.66-1.15-2.48-1.51S62,21,61.2,21.27a.16.16,0,0,0-.11.19Z"/><path class="cls-2" d="M60.47,21.66c2.31.93,4.68,2.19,7.16,2.58.14,0,.3-.16.16-.28-2-1.65-4.64-2.47-7-3.31-.65-.22-.89.77-.28,1Z"/><path class="cls-2" d="M69.19,33.32c1.26.24,2.54.4,3.8.61a8.24,8.24,0,0,0,3,.36c.25,0,.23-.36.07-.49a7.66,7.66,0,0,0-3.29-.91,23.66,23.66,0,0,0-3.45-.39c-.46,0-.58.73-.11.82Z"/><path class="cls-2" d="M81,41.4l0,.12a.23.23,0,1,0,.44,0l0-.12a.2.2,0,0,0-.39,0Z"/><path class="cls-2" d="M80.94,41.77c.41.46,1.21.28,1.78.27a4.46,4.46,0,0,0,2.09-.31.28.28,0,0,0,0-.48,4.66,4.66,0,0,0-2.23-.12c-.57,0-1.29-.05-1.67.45a.15.15,0,0,0,0,.19Z"/><path class="cls-2" d="M89.2,48.55c1.34,1,3.85.67,5.33.18.44-.14.4-.91-.12-.85-.91.1-1.82.26-2.74.28a9.84,9.84,0,0,0-2.43.11.15.15,0,0,0,0,.28Z"/><path class="cls-2" d="M97.35,58.88c1.2,1,3.41.3,4.22-.88a.45.45,0,0,0,0-.5.77.77,0,0,0-.18-.18.5.5,0,0,0-.5,0,10.91,10.91,0,0,1-1.7.79c-.57.14-1.15.13-1.72.3a.29.29,0,0,0-.12.47Z"/><path class="cls-2" d="M90.61,29.25c2.75,1.63,4.06,5.36,5.23,8.17.28.66,1.35.42,1.12-.31A26.39,26.39,0,0,0,94,30.84c-.78-1.2-1.68-2.35-3.21-2.32a.39.39,0,0,0-.2.73Z"/><path class="cls-2" d="M70.16,39.8c.31,1.08,1.43,2,2.18,2.79a36.35,36.35,0,0,0,3,3.09c.29.25.83-.08.57-.45a35.43,35.43,0,0,0-2.71-3.17c-.78-.87-1.62-2.14-2.73-2.57-.18-.07-.35.14-.3.31Z"/><path class="cls-2" d="M84.42,35.26a.05.05,0,0,0,0-.1.05.05,0,1,0,0,.1Z"/><path class="cls-3" d="M32.67,27.22a49.92,49.92,0,0,1,6.12.41.17.17,0,0,0,.09-.32,10.65,10.65,0,0,0-6.27-.57c-.27.05-.21.49.06.48Z"/><path class="cls-3" d="M39.42,38.7c1.17,0,2.33-.11,3.5-.07s2.33.29,3.5.35c.32,0,.33-.42.07-.52a11.51,11.51,0,0,0-7.11,0,.13.13,0,0,0,0,.26Z"/><path class="cls-3" d="M52.05,55.11c2.54.23,5.56-.79,7.89-1.69.11,0,.11-.22,0-.21-2.53.11-5.71.4-8,1.63-.14.07-.06.26.08.27Z"/><path class="cls-3" d="M70.29,67.43a9.59,9.59,0,0,0,1.93-.06A2.43,2.43,0,0,0,73.67,67a.36.36,0,0,0-.07-.55,2.39,2.39,0,0,0-1.52,0,10,10,0,0,0-1.88.39.35.35,0,0,0,.09.68Z"/><path class="cls-3" d="M45.61,8.65l0-.11a.17.17,0,0,0-.33,0l0,.11c-.08.33.48.33.39,0Z"/><path class="cls-3" d="M45.42,8.94c4.68,0,9.2.75,13.85,1,.31,0,.32-.41.07-.51-4.15-1.62-9.56-1.77-13.92-1.33a.42.42,0,0,0,0,.83Z"/><path class="cls-3" d="M50.17,17.11c2.56-.12,5.2-.2,7.75-.47.27,0,.38-.45.07-.5a21.16,21.16,0,0,0-7.93.19.4.4,0,0,0,.11.78Z"/><path class="cls-3" d="M61.11,28.72a14.63,14.63,0,0,0,4.18.17,20.3,20.3,0,0,0,4.2-.33.28.28,0,0,0,0-.53,20.3,20.3,0,0,0-4.2-.11,15,15,0,0,0-4.18.38.22.22,0,0,0,0,.42Z"/><path class="cls-3" d="M98.4,70.62c0,.52.62.73,1,1l.74.43a2.45,2.45,0,0,0,.9.33.34.34,0,0,0,.33-.57,2.85,2.85,0,0,0-.83-.63l-1-.54c-.2-.11-1.15-.59-1.14,0Z"/><path class="cls-4" d="M117.23,65.88c-.16-7.07-2.88-14.52-5.92-20.83A64.48,64.48,0,0,0,98.5,27.11a63.65,63.65,0,0,0-40-18,.1.1,0,0,0,0,.19c15,1.54,29.24,7.7,40,18.37a64.12,64.12,0,0,1,12.53,17.56c3.25,6.7,4.57,13.49,6.11,20.68a0,0,0,0,0,.07,0Z"/><path class="cls-4" d="M98,68.39c-2.21-8.49-7.85-16.54-13.82-22.82a59.21,59.21,0,0,0-22.11-15c-.15-.05-.25.19-.11.25a69.66,69.66,0,0,1,21.89,15A64,64,0,0,1,92,56.43a102.63,102.63,0,0,1,5.9,12s.1,0,.09,0Z"/><path class="cls-4" d="M66,34.21c-6.75-3.44-14-6.76-21.52-8.2a.12.12,0,0,0-.06.24c7.3,2.49,14.55,4.65,21.51,8.09.08,0,.15-.08.07-.13Z"/><path class="cls-4" d="M67.2,34c-7.8-4.72-17.5-8-26.71-7.75a.15.15,0,0,0,0,.29,77.15,77.15,0,0,1,13.77,2.19,62.1,62.1,0,0,1,12.88,5.38c.07,0,.13-.07.06-.11Z"/><path class="cls-4" d="M41.06,27.21c-4.05-.44-8.13-.7-12.2-1a.1.1,0,0,0-.07.18,41,41,0,0,0,30.3,10.35c.09,0,.09-.14,0-.13a42.29,42.29,0,0,1-20.92-4.12A40.86,40.86,0,0,1,34,30.11c-.77-.49-4.62-2.83-4.46-3.35.28-.87,10.26.44,11.53.49a0,0,0,1,0,0,0Z"/><path class="cls-4" d="M49,37.85a25.33,25.33,0,0,0-13.13,1.3c-.07,0-.13.13,0,.19A69.34,69.34,0,0,0,65.94,53.05c.13,0,.19-.17.06-.2a77.51,77.51,0,0,1-20.81-7.57Q42.94,44,40.78,42.64c-.76-.5-4.13-2.19-4.2-3C36.47,38.49,40.12,38.09,41,38a25.41,25.41,0,0,1,7.93,0s.07-.07,0-.08Z"/><path class="cls-4" d="M61.93,53.14c-4.49.46-9,1-13.45,1.5a.13.13,0,0,0-.07.24c9,6.22,20,10.12,31,10.07.13,0,.12-.19,0-.2a61,61,0,0,1-22-5.08c-1.27-.57-8.32-3.73-7.9-4.88.13-.38,5.23-.64,5.76-.71,2.24-.27,4.49-.54,6.73-.83.06,0,.07-.12,0-.11Z"/><path class="cls-4" d="M74.87,66.09l-8.49.52a.15.15,0,0,0-.1.25c3.4,3.51,8,4.7,12.69,5.56,5.44,1,10.7,1.79,15.29,5.11.14.11.32-.13.19-.25C90.21,73.52,84.07,73,78.74,72A29.54,29.54,0,0,1,70,69.33,14.72,14.72,0,0,1,67.9,68c-1.14-.91-1.09-1,.37-1.2,2.14-.38,4.44-.37,6.6-.54.08,0,.08-.13,0-.12Z"/><path class="cls-4" d="M60.75,11c-6-1.17-11.89-2.37-17.84-3.5-.15,0-.3.16-.16.29A29.6,29.6,0,0,0,67,15.25c.09,0,.07-.16,0-.16a31.36,31.36,0,0,1-19.62-4.27c-.66-.41-3.87-2.51-3.58-2.86s5,.93,5.65,1c3.77.69,7.54,1.35,11.31,2,.06,0,.09-.09,0-.1Z"/><path class="cls-4" d="M59.65,15.78c-4.78-.07-9.56-.07-14.34-.08a.16.16,0,0,0-.08.29c8.77,5.33,18.42,10,28.4,12.6.13,0,.18-.16.05-.21A157.49,157.49,0,0,1,53,20c-1.5-.77-3-1.57-4.43-2.4-.12-.07-2.39-1.3-2.37-1.38.09-.39,1.79-.21,2-.21,3.82,0,7.65,0,11.47-.11a.05.05,0,1,0,0-.1Z"/><path class="cls-4" d="M68.66,28c-3.6-.05-7.2-.12-10.8-.15a.16.16,0,0,0-.08.3c3.93,2.59,7.8,5.3,11.81,7.75a.13.13,0,1,0,.13-.22c-3.32-2.36-6.95-4.33-10.2-6.77-1-.76-1.11-.65.14-.73.89-.06,1.81,0,2.7,0l6.3,0a.08.08,0,0,0,0-.16Z"/><path class="cls-4" d="M88.37,52.06a98,98,0,0,0,10.14.53c.09,0,.08-.13,0-.14A98.24,98.24,0,0,0,88.37,52a0,0,0,0,0,0,0Z"/><path class="cls-4" d="M94.55,53.5l-4.22,1.1a.11.11,0,0,0,0,.17,29.88,29.88,0,0,0,13.24,6.9.09.09,0,1,0,0-.18,35.27,35.27,0,0,1-8.45-3.43c-1.1-.65-3.1-1.55-3.74-2.62-.56-.92,0-.72.68-1.11a13,13,0,0,1,2.52-.72c.07,0,0-.12,0-.11Z"/><path class="cls-4" d="M95.06,64.87a14.38,14.38,0,0,0,14.15,8c.13,0,.14-.21,0-.21a15.08,15.08,0,0,1-14-7.82c0-.08-.16,0-.12.07Z"/><path class="cls-4" d="M97.36,67.77c13.88,2.42,29.24-3.51,38.19-14.3.07-.08,0-.19-.11-.11a44,44,0,0,1-38.07,14.3c-.06,0-.07.1,0,.11Z"/><path class="cls-4" d="M100.21,70.07a64.24,64.24,0,0,0,32.63-13.74c.08-.06,0-.21-.12-.14a68.81,68.81,0,0,1-32.53,13.74c-.08,0-.06.15,0,.14Z"/><path class="cls-4" d="M91.69,76A33.17,33.17,0,0,0,78.27,91.32c0,.05.07.09.1,0A36.47,36.47,0,0,1,91.72,76.05s0-.09,0-.06Z"/><path class="cls-4" d="M79.68,89.43A68.93,68.93,0,0,1,94.1,75.11c.07-.06,0-.18-.08-.13A55.54,55.54,0,0,0,79.56,89.36c0,.07.07.14.12.07Z"/><path class="cls-4" d="M102.46,107.73c12.34-4.22,25.18-9,35.08-17.8,8.82-7.83,15.24-19.35,13.77-31.42,0-.16-.27-.17-.25,0,1.19,12.3-5.24,23.83-14.38,31.67-9.86,8.48-22.3,12.85-34.25,17.45a.05.05,0,0,0,0,.1Z"/><path class="cls-4" d="M81.06,9.21a23.39,23.39,0,0,1,15.19,5.5.11.11,0,0,0,.16-.15,18.88,18.88,0,0,0-15.35-5.5c-.09,0-.1.15,0,.15Z"/><path class="cls-4" d="M85.56,6.55A20.85,20.85,0,0,1,96.42,10c.11.07.2-.1.1-.17a18.3,18.3,0,0,0-11-3.63.18.18,0,0,0,0,.35Z"/><path class="cls-4" d="M25.83,23.1a5.15,5.15,0,0,0,.53,9.2c.12,0,.22-.12.1-.18a5.11,5.11,0,0,1-.59-8.95,0,0,0,1,0,0-.07Z"/><path class="cls-4" d="M20.68,24.21A5.3,5.3,0,0,0,22,31.56c.08.06.16-.07.08-.13a5.21,5.21,0,0,1-1.22-7.14.08.08,0,0,0-.14-.08Z"/><path class="cls-4" d="M40,5.78c-2.46,1.15-3.38,4.9-1.37,6.89,0,0,.12,0,.09-.07A4.52,4.52,0,0,1,40,5.89c.08,0,0-.14-.06-.11Z"/><path class="cls-4" d="M34.24,6.81a8.72,8.72,0,0,0,0,6.22c0,.06.1,0,.08,0a9,9,0,0,1,0-6.16.08.08,0,1,0-.15,0Z"/><path class="cls-4" d="M41.62,58.09c3.33,6.58,10.55,11.19,18,10.77a.08.08,0,1,0,0-.16c-7.54-.34-14.19-4-17.93-10.67a.06.06,0,1,0-.1.06Z"/><path class="cls-4" d="M38.23,60.89a7.81,7.81,0,0,0,5.63,8,.11.11,0,0,0,.06-.22,7.81,7.81,0,0,1-5.52-7.76c0-.11-.16-.11-.17,0Z"/><path class="cls-4" d="M56.81,56.49a43,43,0,0,0,19.75,2.32c.07,0,.07-.11,0-.11a53.73,53.73,0,0,1-19.72-2.32.06.06,0,0,0,0,.11Z"/><path class="cls-4" d="M43.36,41.13a26.89,26.89,0,0,0,19.7,4.13c.08,0,.07-.15,0-.14A29.76,29.76,0,0,1,43.4,41.05s-.08.05,0,.08Z"/><path class="cls-4" d="M40.49,30.53a25.28,25.28,0,0,0,11.28,1.7c.07,0,.08-.12,0-.12a29.49,29.49,0,0,1-11.25-1.68c-.06,0-.09.08,0,.1Z"/><path class="cls-4" d="M75.88,68.45a15.52,15.52,0,0,0,9.13.93c.13,0,.1-.23,0-.22a20.29,20.29,0,0,1-9-.84c-.07,0-.12.1-.05.13Z"/><path class="cls-4" d="M56.8,19.33q7.49,3.11,15.07,6c.1,0,.13-.11,0-.15-5-2-10-4-15.09-5.9,0,0-.06.06,0,.08Z"/><path class="cls-4" d="M55.66,11.66c2.25.37,4.5.74,6.77,1,.06,0,.09-.08,0-.09-2.25-.39-4.51-.72-6.77-1-.06,0-.09.08,0,.09Z"/><path class="cls-4" d="M66.93,31.76c3.57,1,7.13,1.92,10.71,2.79,0,0,.07-.07,0-.08-3.55-1-7.13-1.88-10.7-2.79-.06,0-.08.07,0,.08Z"/><path class="cls-4" d="M75.41,40.82c4.48.52,9,1,13.51,1.19.11,0,.1-.15,0-.16-4.47-.54-9-.86-13.51-1.1,0,0,0,.06,0,.07Z"/><path class="cls-4" d="M87.82,47.34a11.9,11.9,0,0,0,8.48.74c.09,0,.08-.19,0-.18a22.42,22.42,0,0,1-8.43-.61s0,0,0,.05Z"/><path class="cls-4" d="M96.8,58.16a5.11,5.11,0,0,0,4.63-1.1c.1-.1,0-.28-.15-.2a5.54,5.54,0,0,1-4.41,1c-.17,0-.24.22-.07.26Z"/><path class="cls-4" d="M65.17,36.31A47.15,47.15,0,0,1,82.6,53.65a.2.2,0,0,0,.35-.2A38.77,38.77,0,0,0,65.34,36c-.19-.1-.36.18-.17.28Z"/><path class="cls-4" d="M82.74,20.33A95.17,95.17,0,0,1,99.38,39.08c.15.24.53,0,.38-.22A68,68,0,0,0,82.89,20.13c-.12-.09-.26.1-.15.2Z"/></svg>