<svg xmlns="http://www.w3.org/2000/svg" viewBox="0 0 198.43 148.16"><defs><style>.cls-1{fill:#996632;}.cls-2{fill:#df1f26;}.cls-3{fill:#fff;}.cls-4{fill:#f7945f;}.cls-5{fill:#231f20;}.cls-6{fill:#010101;}</style></defs><g id="illustration"><path class="cls-1" d="M119.65,21.93l2-1.6,1-1.24,1.87-1.89L126.79,15l1.63-2.39,2.51-3.85-1.07,0L127.47,9l-1.89.12.31-1-3.29-.45-2.73,1.22L118,9.67,116.32,11l-1.65,1.27-2.19,2L111,16.61l-.72,2.2-2.19.1-2.67-.24-2.61,1.38-2.31,1.7-8.32,2.12-4.75.35-1.76.34-1.19,1,0,3.18L84.68,30l2,1.79,2.77.57,2.54-.5.21,2.08.14,1.87,2,.18.18,2.18.25,2.35L95,43s1.14,2.13.5,2.53-4.41.73-4.41.73H87l-5.45-.12-4-.17-4.13-.31L69,45.44l-.25,3.05,1.4.28,2.89.49,1.37.32,2.67.91,4.1,1.17,2.62.41,3.89,1.11,4.9-.1L94.91,53v.95l.52,2.6v2.42l-.86,2.29-2,1.84-1.48,2.63-1.43,2.71-.61,3.5.31,2.5L87.67,76.1l-1.36,3.69.32,3.26,1,1.92,1.61,1.76L87.58,89.1l-1.37,1.84-3,3-2.51.77-2.15.69L78,97.58l1,1.12.42.74,1.63.63-.66,1-1,1.11-.42,1.9,1.13.38.58,1.51.84.38,2.26.85-1.17,3-.27,4,1.3,3,2.57,2.56,2.4,1.27L93.23,122l6.22.12,6.27-.72-.52,2.67-1.63,3.25-2.89,3.12-3,1.78-3.5,1-3.8.17-3.69-1-2.19-.8-3.18-.83L78.53,130h-3.3l-3.54.75-1.56,1.5v3.16l2.28-1,3.44-.35,3.3.94,3,1.63,4,1.5,2.84,1.57,3.16.3,5.22-.87,3-1.23,3.45-2.23,1.86-1.69,2-2.24,2.19-3.31,1.62-3.24.91-2.31.89-2.77,2.41-1.11,4-2,2.61-2.14L125,111.1l1.75-3.4,1.25-6.91.16-4.64-.91-7.8-1.68-6.6-2.15-8.83-1.58-5-1.44-3.78-1.28-2.89-2.64-5.16-2.4-5.19.11-1.85-1.75-3.51L111,43l.24-3.24.38-2.19L112.84,35l1.84-1.6,2.13-2.62.68-2.66.63-3.23-.55-2,1.14-.42ZM98.83,35.81A.21.21,0,0,1,99,35.7a.23.23,0,0,1,.16-.2c1-.29.65-1.43,1.44-1.63a1.2,1.2,0,0,1,1.08.5c.43.73.3,2.06.39,2.87a5.9,5.9,0,0,1-.17,3,.27.27,0,0,1-.29.16c0,.08.05.17.07.26h0a.25.25,0,0,1-.43.25c-.43-.71-.84-1.44-1.31-2.12a23.32,23.32,0,0,0-1.28-2.17.23.23,0,0,1,0-.3l-.08-.11A.24.24,0,0,1,98.83,35.81Zm7.14,79a2.64,2.64,0,0,1-1,.64c-.67.35-1.33.7-2,1a9.29,9.29,0,0,1-3.49,1c-.54,0-1.34,0-1.57-.6s.53-1.47.91-2c.89-1.12,1.31-2.49,2.16-3.62a2,2,0,0,1,1.94-.76.24.24,0,0,1,.22.2.23.23,0,0,1,.16,0C104.17,111.32,106.83,113.57,106,114.84Zm5.31-13.09a12.26,12.26,0,0,1,.14,3.87c-.09.6-.15,1.66-.83,1.93a.17.17,0,0,1-.17,0c.09.09.18.19.28.28s-.11.57-.35.35c-1-.87-1.78-1.89-2.76-2.74a13.39,13.39,0,0,0-3.84-2.18,12.56,12.56,0,0,0-4.32-1.13,30,30,0,0,1-3.91-.07s0,0,0,0l-.15.15c-.22.24-.57-.11-.36-.35,1.81-2,3.92-3.58,5.87-5.42,1.46-1.37,2.81-3,4.87-3.4a.28.28,0,0,1,.22.07.24.24,0,0,1,.34,0,1.32,1.32,0,0,1,.17.17,21.94,21.94,0,0,1,1.7,1.64,13.64,13.64,0,0,1,1.27,2.1A16.18,16.18,0,0,1,111.28,101.75Z"/><polygon class="cls-2" points="92.13 29.99 90.14 27.13 87.66 22.91 87.12 20.4 88.04 16.6 89.66 14.35 91.27 13.3 93.48 12.81 95.59 13.16 97.98 14.49 99.35 17.26 99.69 20.13 99.64 21.96 100.18 21.4 101.18 23.31 101.61 25.14 101.31 26.94 101.02 28.59 100.47 29.9 99.55 31.08 98.7 30.42 97.82 30.42 92.13 30.95 92.13 29.99"/><path class="cls-3" d="M96.13,35.75l1.6-.14,1.41-.19.6-1.08.48-1.46-.48-1.44-1.13-1.1h-.88l-2.85.27s-1.61.17-1.91.27a2.81,2.81,0,0,1-.94,0l-.3,2,.18,1.63.34,1.24,1.55.2,1.7-.13Z"/><polygon class="cls-3" points="61.71 44.58 61.69 46.21 61.69 47.89 61.69 49.14 61.69 49.85 64.19 50.14 66.72 50.22 68.41 49.1 68.78 47.87 68.78 46.86 68.98 45.44 68.44 44.74 66.53 44.22 64.41 44.23 62.86 44.31 61.71 44.58"/><polygon class="cls-2" points="43.69 51.13 42.36 49.85 41.87 48.25 42.73 45.55 44.52 43.63 46.14 42.7 48.43 41.84 50.85 41.27 54.14 41.34 56.47 41.74 59.41 42.8 60.69 43.49 61.71 44.58 61.69 49.85 59.41 50.83 57.02 51.73 55.33 52.98 52.43 54.3 50.01 54.97 47.78 54.73 46.51 53.83 46.14 52.72 45.06 52.23 43.69 51.13"/><path class="cls-3" d="M103,23.21s-.95,1.42,0,1.23,4.77-.42,4.77-.42.13-1.93-1-2.41S103,23.21,103,23.21Z"/><path class="cls-4" d="M114.14,20.55l0,.06a.34.34,0,0,0,.31.18c1.44-.18,3.47-1.3,3.93-2.77.12-.35-.33-.54-.57-.33-.55.46-.91,1.07-1.52,1.49a8.52,8.52,0,0,1-1.93.91c-.11,0-.24.12-.25.25s0,.15,0,.21Z"/><path class="cls-4" d="M117.74,18.53c1.58-1.36,2.68-3.17,4.34-4.48s3.8-1.83,5.44-3.09a.29.29,0,0,0-.14-.53c-2.06-.17-4.47,1.5-6,2.72s-3.5,3.08-3.89,5.24a.15.15,0,0,0,.25.14Z"/><path class="cls-4" d="M128,10.37c-.41,0-.68.35-1,.63s-.69.6-.65,1a.24.24,0,0,0,.23.23c.45,0,.69-.41,1-.74s.58-.63.54-1a.11.11,0,0,0-.12-.12Z"/><path class="cls-4" d="M127.08,10.73c-1.62,2-2.73,4.35-4.47,6.32a26.61,26.61,0,0,1-6.46,5.41c-.46.26,0,1,.41.7,4.21-2.82,9.5-7.1,10.77-12.29,0-.13-.15-.26-.25-.14Z"/><path class="cls-4" d="M116.32,22.84A3.41,3.41,0,0,0,115,20a.64.64,0,0,0-.73-.09.59.59,0,0,0-.28.36.63.63,0,0,0,.15.6A14.16,14.16,0,0,1,115,22a4.22,4.22,0,0,0,.82,1,.33.33,0,0,0,.48-.2Z"/><path class="cls-4" d="M115.91,21.09c1.85-.92,3.29-2.83,4.82-4.2,1.73-1.56,3.69-2.88,5.4-4.46a.67.67,0,0,0-.81-1,33,33,0,0,0-5.59,4.5c-1.52,1.39-3.46,2.93-4.22,4.89-.1.24.21.41.4.31Z"/><path class="cls-4" d="M125.13,12.25c-1.64,1.2-2.7,3.17-4.09,4.67a44.09,44.09,0,0,1-5,4.51c-.65.51.19,1.58.88,1.14a27.57,27.57,0,0,0,5.3-4.52c1.35-1.47,3.14-3.35,3.51-5.38,0-.28-.27-.64-.56-.42Z"/><path class="cls-4" d="M116.1,21.53c1.41-.14,2.65-1.22,3.68-2.11s2.6-2,2.7-3.42a.51.51,0,0,0-.64-.49c-1.2.3-2.15,1.84-3,2.66s-2.3,1.8-2.92,3c-.07.14,0,.37.2.35Z"/><path class="cls-4" d="M90.62,67c-2.15,2.76-2.41,9.43.19,12a.42.42,0,0,0,.7-.29c-.1-1.95-1.06-3.74-1.16-5.74s.49-3.86.61-5.82a.2.2,0,0,0-.34-.14Z"/><path class="cls-4" d="M91.1,78.41c.62-1.78,1-3.62,1.58-5.41s1.56-3.43,2-5.25a.51.51,0,0,0-.93-.39,16.19,16.19,0,0,0-2.21,5.34,16.47,16.47,0,0,0-.79,5.66.17.17,0,0,0,.33,0Z"/><path class="cls-4" d="M94.17,67.64c-.22-.87-2.31-.66-3-.67a.75.75,0,0,0,0,1.49c.45,0,3.2.1,3-.82Z"/><path class="cls-4" d="M91,68c-1.73,1.77-1.45,5.18-.87,7.37A.63.63,0,0,0,91.34,75,11.06,11.06,0,0,1,91,71.41c.08-1.09.45-2.15.43-3.24A.26.26,0,0,0,91,68Z"/><path class="cls-4" d="M90.75,75.11c.7-1.32,1.31-2.67,2-4,.36-.75,1.27-1.92.68-2.79a1.3,1.3,0,0,0-2-.08,2.78,2.78,0,0,0-.32,3.06.59.59,0,0,0,1.06-.13c.09-.25.27-1.67.49-1.75L92,69.32c0-.49-.11-.45-.28.13l-.27.61c-.23.55-.47,1.12-.65,1.69a12.22,12.22,0,0,0-.5,3.23.26.26,0,0,0,.48.13Z"/><path class="cls-4" d="M91,78.93a1.21,1.21,0,0,0,.5,1,.26.26,0,0,0,.39-.22,1.25,1.25,0,0,0-.6-1,.2.2,0,0,0-.29.17Z"/><path class="cls-3" d="M90,23.52a13.84,13.84,0,0,1-.87-2.64,3.84,3.84,0,0,1,.69-2.5.17.17,0,0,0-.22-.23c-2.18,1-1.1,4.28.1,5.54a.18.18,0,0,0,.3-.17Z"/><path class="cls-3" d="M46.12,50.16a2.67,2.67,0,0,1-1.26-1.73c-.15-.54.1-1.31-.2-1.77a.24.24,0,0,0-.23-.1c-.89.17-.8,1.71-.57,2.34A2.71,2.71,0,0,0,46,50.51c.2.05.35-.26.15-.35Z"/><path class="cls-3" d="M85.85,28.64a1.5,1.5,0,0,0,.3.54c0,.05.15,0,.12-.07a1.59,1.59,0,0,0-.36-.51,0,0,0,0,0-.06,0Z"/><path class="cls-3" d="M85.63,28.19a.84.84,0,0,0,.48,1.16.18.18,0,0,0,.19-.26,4.63,4.63,0,0,1-.32-.42c-.08-.15-.11-.32-.18-.48a.1.1,0,0,0-.17,0Z"/><path class="cls-3" d="M117,16.63c.84-.61,1.54-1.44,2.34-2.11s1.86-1.34,2.75-2.07c.2-.16,0-.44-.26-.33a14.29,14.29,0,0,0-2.72,1.93,10.64,10.64,0,0,0-2.33,2.36.16.16,0,0,0,.22.22Z"/><path class="cls-3" d="M125.67,12.4c-.72.7-1.43,1.37-2.12,2.11a13.09,13.09,0,0,0-1.84,2,.13.13,0,0,0,.18.18A8.4,8.4,0,0,0,124,14.78a13.26,13.26,0,0,0,1.68-2.35,0,0,0,1,0,0,0Z"/><path class="cls-3" d="M116.16,25.39c-.58,1.25-.61,2.7-1.21,4a20.21,20.21,0,0,1-2.61,3.76.22.22,0,0,0,.26.34c2.38-1.18,5.05-5.26,4.17-8-.08-.25-.48-.36-.61-.08Z"/><path class="cls-3" d="M93.3,65.74a4.27,4.27,0,0,0,1.16-1.4,4.88,4.88,0,0,0,.83-1.77c0-.22-.23-.44-.41-.24a9,9,0,0,0-1,1.58A8.06,8.06,0,0,0,93,65.48a.23.23,0,0,0,.33.26Z"/><path class="cls-3" d="M90.64,70.13a6.92,6.92,0,0,0-.21,4.12c.07.19.41.25.45,0a12.31,12.31,0,0,0,0-1.92c0-.72.1-1.43.09-2.15a.17.17,0,0,0-.33-.05Z"/><path class="cls-3" d="M95.93,70.25c-3.44,4.25-2.56,12.21,1.11,16,.28.3.72-.08.54-.42-1.31-2.56-2.48-5-2.67-7.89-.18-2.68.6-5.06,1.21-7.63,0-.1-.12-.21-.19-.11Z"/><path class="cls-3" d="M88.28,77.75c-1.53,1.6-1,4.75.66,6,.18.14.38-.12.29-.3a9.23,9.23,0,0,1-1-2.62,10.05,10.05,0,0,1,.22-3c0-.08-.08-.15-.14-.08Z"/><path class="cls-3" d="M87.66,117.57c-1.37-2.56-3-5.08-.65-7.65a.22.22,0,0,0-.22-.37c-3.67,1.19-1.73,6.77.52,8.38.22.16.47-.14.35-.36Z"/><path class="cls-3" d="M73.34,131.05a1.28,1.28,0,0,0-1.27,1,1.31,1.31,0,0,0,.09.87.81.81,0,0,0,.63.5.22.22,0,0,0,.25-.32c-.29-.56-.42-1.36.35-1.63.21-.07.19-.42,0-.4Z"/><path class="cls-3" d="M80.8,101.77a3,3,0,0,0-.17.37.15.15,0,0,0,.25.15,2.51,2.51,0,0,0,.25-.32c.14-.21-.22-.42-.33-.2Z"/><path class="cls-3" d="M80.86,103.84a1.17,1.17,0,0,0,.22,1,.37.37,0,0,0,.61-.16,1.09,1.09,0,0,0-.16-1,.37.37,0,0,0-.67.09Z"/><path class="cls-3" d="M85.13,105.57c.11.55.44,1.19,1.11,1a.31.31,0,0,0,.18-.46c-.21-.32-.62-.43-.78-.79s-.57-.07-.51.22Z"/><path class="cls-5" d="M103.68,33.05c1.35.25,3.17-.75,4.16-1.59,0,0,0-.09-.06-.07a12,12,0,0,1-2.22,1.09,16.89,16.89,0,0,0-1.88.54s0,0,0,0Z"/><path class="cls-5" d="M102.25,21.67c.8-.34,1.48-.84,2.32-1.11a12.79,12.79,0,0,1,2.54-.39c.16,0,.24-.28,0-.32a6.13,6.13,0,0,0-5.08,1.59.15.15,0,0,0,.18.23Z"/><path class="cls-5" d="M121.06,14.25a14,14,0,0,0-.3,2.14,13.13,13.13,0,0,0-.16,2.42.14.14,0,0,0,.27,0,12.52,12.52,0,0,0,.36-2.12,14.16,14.16,0,0,0,.23-2.42.21.21,0,0,0-.4-.06Z"/><path class="cls-5" d="M116.11,19.53a4.79,4.79,0,0,0,.17,2.83c0,.09.17,0,.18-.05a7.83,7.83,0,0,0-.1-1.37c0-.46,0-.92-.08-1.38,0-.1-.15-.13-.17,0Z"/><path class="cls-5" d="M125.54,11.38c-.37.21-.33.74-.39,1.11a6.34,6.34,0,0,0-.08,1.57.13.13,0,0,0,.26,0,6.82,6.82,0,0,0,.4-1.66c0-.35.2-.76-.07-1a.11.11,0,0,0-.12,0Z"/><path class="cls-5" d="M106.7,54a5.11,5.11,0,0,0,2.07-.77,7.83,7.83,0,0,0,2-1.41.13.13,0,0,0-.15-.2c-.72.35-1.4.81-2.11,1.18a9.56,9.56,0,0,0-1.89,1,.1.1,0,0,0,.07.17Z"/><path class="cls-5" d="M114,73.74c-3.79,2-2.31,7.15-3.07,10.53a.17.17,0,0,0,.32.09c1.2-3.43-.44-7.85,2.9-10.36a.15.15,0,0,0-.15-.26Z"/><path class="cls-5" d="M124.37,88.33c2.28,8.38.23,15.73-5.44,22.14a.13.13,0,0,0,.18.18c6.27-5.3,8.34-14.81,5.46-22.37,0-.13-.24-.08-.2,0Z"/><path class="cls-5" d="M102.37,120.67a30,30,0,0,0,10.33-2.22c.19-.08,0-.37-.14-.32-3.42.84-6.73,1.73-10.22,2.27-.16,0-.12.28,0,.27Z"/><path class="cls-5" d="M100.85,105.23c2.29-.15,3.91.74,5.83,1.82.19.11.35-.13.22-.29-1.38-1.74-4-2.23-6.05-2-.27,0-.29.46,0,.45Z"/><path class="cls-5" d="M93.1,137.65a18.34,18.34,0,0,0,12.81-6.72c.07-.09,0-.22-.14-.13a23.74,23.74,0,0,1-12.72,6.48c-.21,0-.17.39,0,.37Z"/><path class="cls-5" d="M51.54,53.49c2.11-1.77,5.57-4.76,8.46-4.76a.3.3,0,0,0,.15-.55c-1.36-.84-2.81.13-4,.88a27,27,0,0,0-4.92,4.14c-.19.19.09.46.3.29Z"/><path class="cls-5" d="M99.63,21.25A4.63,4.63,0,0,0,99,22.54a4,4,0,0,0-.31,1.36.24.24,0,0,0,.41.17,4,4,0,0,0,.64-1.23,4.56,4.56,0,0,0,.37-1.45c0-.3-.36-.33-.5-.14Z"/><path class="cls-5" d="M99.92,24.06c-.39.88-.49,1.86-.88,2.75a16.3,16.3,0,0,1-1.72,2.63c-.16.22.13.44.34.34,1.78-.85,3.36-3.8,2.52-5.72a.15.15,0,0,0-.26,0Z"/><path class="cls-5" d="M104.72,23.2l0,0a.32.32,0,0,0-.38-.05.51.51,0,0,0-.1.82.73.73,0,0,0,1.13-.19.78.78,0,0,0-.22-1.2.65.65,0,0,0-.92.77c.14.67,1.19.39,1-.28l0-.09-.06.41,0-.07-.32.25.11,0-.41-.06c0-.24-.1-.29-.2-.13l-.12.18.24-.19-.1,0,.28,0c0,.18,0,.22.08.14a.26.26,0,0,0,0-.31Z"/><path class="cls-6" d="M114,19.74c-4.21-1.69-9.94-2.39-13.26,1.35a.25.25,0,0,0,.35.35c3.76-3.71,8.28-2.18,12.85-1.48a.11.11,0,0,0,.06-.22Z"/><path class="cls-6" d="M92.93,29.9c-3.63-3.74-7.79-9.27-3.83-14.44,2.06-2.69,5.92-3.37,8.4-.91,2,2,2,4.85,2,7.49,0,.25.36.24.37,0,.21-2.84.17-6.29-2.22-8.3a6.33,6.33,0,0,0-7.73.07c-5.8,4.46-2,13,2.9,16.3a.13.13,0,0,0,.16-.21Z"/><path class="cls-6" d="M99.61,21.3c3,2.61,1.69,6.37.27,9.45-.1.22.22.41.32.19,1.39-3,3.12-7.62-.46-9.82-.1-.07-.23.09-.13.18Z"/><path class="cls-6" d="M92.41,31.11c.7,0,1.39-.05,2.09-.11a4.78,4.78,0,0,0,1.6-.25.13.13,0,0,0,0-.24,5.79,5.79,0,0,0-1.85.11c-.62.07-1.22.18-1.84.28-.12,0-.09.22,0,.21Z"/><path class="cls-6" d="M97.58,30.87c2.06-1.17,2.35,1.63,2.38,2.55s0,1.08-.79,1.58c-1.12.67-2.54.59-3.84.7a9.21,9.21,0,0,1-1.56.13c-1-.11-1.32-.59-1.49-1.43a27.86,27.86,0,0,1-.23-3.77c0-.23-.37-.23-.35,0,0,.83.09,1.67.13,2.51a8.39,8.39,0,0,0,.14,2.3c.17.42.2.57.64.76,1,.46,2.9-.11,4-.2a8.72,8.72,0,0,0,2.84-.35c2.34-1.13.44-7-2-5-.12.1,0,.28.17.21Z"/><path class="cls-6" d="M88.1,24c-2.88,0-5.19,1.66-3.54,4.61a8,8,0,0,0,2.73,3.26c1.44.83,3.22.56,4.75.14.2-.05.12-.33-.08-.3-1.37.22-2.72.57-4.06,0a5.49,5.49,0,0,1-2.44-2.33c-.71-1.08-1.48-2.33-.94-3.67s2.48-1.39,3.6-1.58c.09,0,.06-.15,0-.15Z"/><path class="cls-6" d="M85,28.27a2,2,0,0,1,.56-1.84,2.5,2.5,0,0,1,1.64-.68c.2,0,.17-.32,0-.37a2.18,2.18,0,0,0-2.08.82,2.44,2.44,0,0,0-.56,2.19c.06.29.51.17.44-.12Z"/><path class="cls-6" d="M86.15,30.88a5.68,5.68,0,0,1,1.92-.18,11.15,11.15,0,0,0,1.53.4.14.14,0,0,0,.12-.22c-.29-.51-1.07-.63-1.61-.69a3.28,3.28,0,0,0-2.08.4.16.16,0,0,0,.12.29Z"/><path class="cls-6" d="M102.8,23.42a22.78,22.78,0,0,0,2.25-1,14.62,14.62,0,0,0,2.49-1.28c.14-.1.07-.35-.12-.29a12.68,12.68,0,0,0-2.24,1.05,25.42,25.42,0,0,0-2.47,1.32c-.11.07,0,.27.09.22Z"/><path class="cls-6" d="M103,24.59c1.93,0,3.86-.27,5.78-.48.31,0,.32-.53,0-.5-1.95.18-3.9.34-5.82.69-.17,0-.13.29,0,.29Z"/><path class="cls-6" d="M104.2,22.78a.81.81,0,0,0,1,1.23.85.85,0,0,0-.82-1.47.19.19,0,0,0,.1.36.64.64,0,0,1,.55.11.41.41,0,0,1-.1.67c-.49.27-.87-.33-.58-.75.07-.11-.11-.25-.19-.15Z"/><path class="cls-6" d="M106,21.79a1.46,1.46,0,0,1,1.55,1.67.23.23,0,0,0,.44.12,1.73,1.73,0,0,0-2.07-2.08c-.19,0-.1.32.08.29Z"/><path class="cls-6" d="M113.43,19.45a23.72,23.72,0,0,1,7.39-7.53,21.39,21.39,0,0,1,3.84-1.82c.9-.31,4.46-1.59,5.19-1.07,1.5,1.05-3.86,6.12-4.76,7.16-2.49,2.85-5,6.39-9.1,6.68-.27,0-.27.45,0,.42,3.34-.25,5.53-2.45,7.66-4.85,1.74-2,3.43-4,5.14-5.93.93-1.07,2.29-2.13,2.78-3.49a.2.2,0,0,0-.13-.24c-2.77-1.13-7.45,1-9.88,2.27a19.21,19.21,0,0,0-8.28,8.31.09.09,0,0,0,.15.09Z"/><path class="cls-6" d="M113.88,20.37c2.39-.48,3.46-2.18,4.8-4.05A14.59,14.59,0,0,1,129.86,10c.27,0,.27-.44,0-.42a14.88,14.88,0,0,0-8.19,3c-2.82,2.17-4.27,6.71-7.85,7.58a.12.12,0,0,0,.06.23Z"/><path class="cls-6" d="M128.17,10.24c-.95,1.43-1.84,2.89-2.84,4.29s-2.2,2.64-3.07,4.09c-.06.09.07.18.14.11,2.46-2.08,4.53-5.52,6-8.34a.15.15,0,0,0-.25-.15Z"/><path class="cls-6" d="M110.35,18.86a19.53,19.53,0,0,1,5.24-7.09,17.74,17.74,0,0,1,3.74-2.36,17.16,17.16,0,0,1,2.89-1c.22-.06,4.61-.69,3.26.65a.14.14,0,0,0,.17.21.83.83,0,0,0,.25-1.41c-1.07-1.21-4.47.24-5.52.64a17.22,17.22,0,0,0-10.25,10.31c0,.13.16.22.22.09Z"/><path class="cls-6" d="M117.41,23.23c1.88,5.42-1.68,8.78-5.29,12.14-.15.14,0,.4.21.28,3.92-2.54,7.91-7.76,5.3-12.52a.12.12,0,0,0-.22.1Z"/><path class="cls-6" d="M100.44,34c3.82,1.6,10.4.91,10.1-4.49a.29.29,0,1,0-.58.08c.47,2.81-2.22,4.5-4.65,4.7a27.22,27.22,0,0,1-4.84-.5c-.14,0-.13.17,0,.21Z"/><path class="cls-6" d="M101.6,34.44a8.32,8.32,0,0,1-.46,8c-.1.18.16.4.3.23a7.59,7.59,0,0,0,.41-8.34.15.15,0,0,0-.25.15Z"/><path class="cls-6" d="M112.71,34.94A10.29,10.29,0,0,0,111,42c.36,2.87,2.27,5,3.26,7.6.1.25.5.15.42-.12-.6-2-1.95-3.56-2.67-5.48a10.2,10.2,0,0,1,1-8.95c.09-.16-.15-.3-.26-.15Z"/><path class="cls-6" d="M111.05,109.23c-4.65-7.59-15.6-9.21-23.09-5.17S80,117.33,88.1,121c4.9,2.2,11,1.69,16.13,1,5.39-.77,11.73-1.84,16.25-5.12,9.73-7,8.72-21.63,6.29-31.88-.07-.31-.56-.18-.48.14,2,8.56,3,18.52-1.75,26.44-4.85,8.12-16.25,9.9-25,10.39-4.12.23-8.73.19-12.43-1.94-6.33-3.66-5.54-11.44.48-15.09,7.22-4.39,18.38-2.87,23,4.64.17.27.6,0,.43-.25Z"/><path class="cls-6" d="M113.24,50.06c3.15,6,6.36,11.94,8.55,18.34,2,5.75,2.94,11.75,4.76,17.53.1.31.58.18.49-.13-2-6.34-3-12.9-5.34-19.16a140.21,140.21,0,0,0-8-16.83c-.15-.29-.58,0-.43.25Z"/><path class="cls-6" d="M106.6,93.58c4.46,4.38,6.36,11.17,3.12,16.88a14.7,14.7,0,0,1-5.58,5.54l-2.43,1q-7.5,2-1.78-3.07,1.27-5.1,3.54-2.37a10.43,10.43,0,0,1,2.94,3.12c.25.32.79,0,.55-.31-2.46-3.31-7.84-7.86-11.71-3.71-3,3.18-.23,7,3.6,7.18,5.05.22,10-4,11.86-8.42a14.11,14.11,0,0,0-3.88-16.07c-.15-.14-.38.08-.23.23Z"/><path class="cls-6" d="M113.17,120c-3.25,9.86-10.3,20.53-22.17,19.62-6.92-.53-12.9-8.79-20-4.86-.34.18,0,.71.31.52,6.29-3.46,11.55,3.22,17.39,4.52a17.24,17.24,0,0,0,10-.92c8-3.11,12.59-10.92,14.76-18.82a.12.12,0,0,0-.23-.06Z"/><path class="cls-6" d="M70.84,135.17q-1-4.47,2.5-4.66a16,16,0,0,1,4.83-.34c2.89.21,5.23,1.31,7.91,2.23a16.34,16.34,0,0,0,8.79,1,14.09,14.09,0,0,0,11.06-11.21.22.22,0,0,0-.42-.12c-2.11,8-9.48,12.71-17.71,10.42C82.93,131.11,79.25,129,74,130c-1.69.3-5.62,1.07-5.46,3.58a1.77,1.77,0,0,0,2.29,1.83c.11,0,.09-.2,0-.19Z"/><path class="cls-6" d="M111.21,46.34c-2.54.08-6.3,1.87-7.32,4.34-.1.24.23.34.38.22a32.15,32.15,0,0,1,3.13-2.67,14.15,14.15,0,0,1,3.88-1.38.26.26,0,0,0-.07-.51Z"/><path class="cls-6" d="M112.84,50.53a15.7,15.7,0,0,1-9,5.18.31.31,0,0,0,.08.61,11.6,11.6,0,0,0,9.18-5.57c.11-.18-.15-.39-.29-.22Z"/><path class="cls-6" d="M103.78,55.44a3.43,3.43,0,0,1-.8,1.25.9.9,0,0,1-1.57-.45c-.16-.57-.48-1.27-1.17-1.08a.3.3,0,0,0-.08.54c.9.51.72,2,2.07,1.82,1-.11,1.46-1.11,1.8-2,.06-.15-.19-.26-.25-.11Z"/><path class="cls-6" d="M104.2,53.36a34.77,34.77,0,0,0-5.58-17.27c-.16-.24-.62-.1-.49.21,1.14,2.79,2.54,5.45,3.49,8.33s1.44,5.84,2.14,8.79a.22.22,0,0,0,.44-.06Z"/><path class="cls-6" d="M94.15,36.17c.18,7.19,1.58,14.92,6.89,20.15.34.34.88-.19.53-.53-5.54-5.44-5.92-12.46-7-19.67,0-.22-.38-.16-.37.05Z"/><path class="cls-6" d="M97.08,41.21a22.21,22.21,0,0,0,2.9,7.16.24.24,0,0,0,.42-.24,36.91,36.91,0,0,1-3.05-7,.14.14,0,0,0-.27.08Z"/><path class="cls-6" d="M107,52a12.07,12.07,0,0,0,1.63-1.12,3.91,3.91,0,0,0,1.27-1.32c.07-.17-.16-.31-.3-.23a7.85,7.85,0,0,0-1.22,1.16,11.93,11.93,0,0,1-1.57,1.18c-.2.13,0,.45.19.33Z"/><path class="cls-6" d="M95.7,46.51c-1.31,2-1.3,3.5-1.07,5.82.34,3.46,1.32,5.52-.68,9-.87,1.49-2.14,2.7-3,4.18a14.58,14.58,0,0,0-.57,14.18c.12.25.57.08.46-.19a15.47,15.47,0,0,1-1-9.76c.83-3.3,3-5.33,4.7-8.1,3-4.9-1.39-10.14,1.5-14.92a.16.16,0,0,0-.28-.16Z"/><path class="cls-6" d="M95.05,67.79c-5.38,6.6-4.63,16.74,2.26,22,.21.16.45-.18.28-.36-6-6.3-7.19-14.08-2.32-21.51.08-.13-.12-.29-.22-.16Z"/><path class="cls-6" d="M88.33,75c-4.25,4.57-2.23,12.66,4.35,13.61a.31.31,0,0,0,.17-.6c-5.74-1.75-8.32-7.8-4.29-12.78.13-.16-.09-.39-.23-.23Z"/><path class="cls-6" d="M90.3,78.53a6.18,6.18,0,0,0,2,2.65c.09,0,.2-.05.14-.13-.29-.44-.71-.78-1-1.2a9.61,9.61,0,0,1-.91-1.46c-.08-.17-.32,0-.25.14Z"/><path class="cls-6" d="M88.61,66.1a0,0,0,0,0,0,0s0,0,0,0Z"/><path class="cls-6" d="M90.36,67.05a18,18,0,0,0,4.64.28l-.18-.42a2.23,2.23,0,0,0-.57,2,.13.13,0,0,0,.24,0,3.62,3.62,0,0,1,.68-1.67c.14-.15.06-.44-.17-.42a41.33,41.33,0,0,1-4.59-.16.19.19,0,0,0,0,.37Z"/><path class="cls-6" d="M91.09,68.2c.47,0,.94,0,1.42,0a3.68,3.68,0,0,0,1.24-.07.1.1,0,0,0,0-.19,3.68,3.68,0,0,0-1.24-.07c-.48,0-1,0-1.42,0a.14.14,0,0,0,0,.27Z"/><path class="cls-6" d="M94.79,87.75c-1.54,3-3,6-5.31,8.46a14.52,14.52,0,0,1-3.94,3c-1.63.82-3.27.77-4.94,1.32-2.08.68-3.69,3.79-.59,4.21.4,0,.58-.54.17-.61-.35-2,.13-3.08,1.45-3.18l1.31-.23a12.26,12.26,0,0,0,2-.61,13.14,13.14,0,0,0,3.84-2.49c2.88-2.65,4.67-6.24,6.29-9.74.07-.17-.17-.32-.26-.15Z"/><path class="cls-6" d="M83.19,103.55a2,2,0,0,0-3.24.08,2.11,2.11,0,0,0,1.57,3.09c.42,0,.52-.66.1-.74a1.4,1.4,0,0,1-1.05-2,1.51,1.51,0,0,1,2.3-.2c.15.17.46-.06.32-.24Z"/><path class="cls-6" d="M84.38,104.93c-1.51-.79-2.94.6-1.87,2.19,2.13,3.14,8.14-1.31,9.84-2.69,2.54-2.07,4.65-4.58,7-6.85,3-2.86,5.76-4.1,9.5-5.63,2-.84,4.74-2.88,2-4.84-.43-.3-.83.41-.41.71,3,2.16-3.45,3.78-4.21,4.06A16.34,16.34,0,0,0,103.86,93a26.6,26.6,0,0,0-5.06,4c-1.89,1.82-3.61,3.81-5.55,5.58a24.18,24.18,0,0,1-3.42,2.7,12.47,12.47,0,0,1-1.63.93q-2.58,2.17-4-.92c.22.06.38-.28.16-.39Z"/><path class="cls-6" d="M109.92,87.87c2-.54,4.37-1.37,5-3.59.36-1.25-.17-2.22-.48-3.42-.73-2.77-.16-4.54,1.8-6.7a.18.18,0,0,0-.22-.28,5.32,5.32,0,0,0-2.7,4.32,8.46,8.46,0,0,0,.59,3.28c1,3.64-1,4.87-4.1,6.06a.17.17,0,0,0,.1.33Z"/><path class="cls-6" d="M89.29,86.43C87.84,88.25,86.54,90.2,85,92a6.78,6.78,0,0,1-3.22,2.23,21.8,21.8,0,0,0-2.88.65c-1.72.77-2.55,3.25-.3,3.92a.36.36,0,0,0,.19-.7c-.25-1.81.22-2.78,1.43-2.9.44-.1.87-.18,1.3-.25a7.06,7.06,0,0,0,.93-.25A6.73,6.73,0,0,0,85,92.9a52.26,52.26,0,0,0,4.67-6.19c.15-.21-.2-.49-.37-.28Z"/><path class="cls-6" d="M80,97.06a1.84,1.84,0,0,0-.09,3.48c.38.15.65-.48.28-.66a1.36,1.36,0,0,1,0-2.48.19.19,0,0,0-.14-.34Z"/><path class="cls-6" d="M81.24,97.9a1.85,1.85,0,0,0-.84,1.86c.13.66.79,1.41,1.51,1.31a.29.29,0,0,0,.14-.49c-.36-.29-.75-.37-1-.84a1.21,1.21,0,0,1,.38-1.45c.22-.17,0-.56-.23-.39Z"/><path class="cls-6" d="M83.74,100.47a13.47,13.47,0,0,1,5.11-3.61c.31-.12.17-.63-.14-.5a11.32,11.32,0,0,0-5.18,4c-.09.13.11.27.21.16Z"/><path class="cls-6" d="M69,45.57c7.69.53,15.4.8,23.09,1.16.36,0,.36-.54,0-.56-7.69-.31-15.39-.72-23.09-.87a.14.14,0,0,0,0,.27Z"/><path class="cls-6" d="M68.78,48.93c8.57.78,16.24,6,25,4.25.44-.09.26-.77-.18-.68-8.69,1.74-16.28-3.68-24.82-3.89-.21,0-.2.3,0,.32Z"/><path class="cls-6" d="M68.28,44.78c.23,1.47.87,3.22-.29,4.48a2,2,0,0,1-1.7.72c-1-.22-.63-2-.36-2.64a.26.26,0,1,0-.48-.2c-.27.76-.6,2.38.09,3.06a1.84,1.84,0,0,0,1.86.08c2.18-1,2-3.8,1.18-5.62-.09-.18-.32,0-.3.12Z"/><path class="cls-6" d="M65.18,50a14.07,14.07,0,0,1-2.33.18c-.9-.09-.71,0-.79-.76s.1-1.46.1-2.16a16.9,16.9,0,0,1-.09-1.88c.25-1.9,5.77-.52,7.08-.4a.1.1,0,0,0,0-.19c-2.22-1.17-5.17-.93-7.56-.46a.25.25,0,0,0-.18.25,30.71,30.71,0,0,1,0,5.91c0,.17.17.27.31.24,1.12-.23,2.3-.36,3.43-.51.13,0,.14-.23,0-.22Z"/><path class="cls-6" d="M61.67,44c-4.61-3.84-12.55-4.24-17.4-.56-3.64,2.76-3.93,9.69,1.86,9.47.49,0,.49-.78,0-.76q-6.32-3.55-2.21-7.54a9.35,9.35,0,0,1,2.51-1.68,14,14,0,0,1,5.31-1.31c3.55-.19,6.67,1,9.79,2.55.11,0,.24-.09.14-.17Z"/><path class="cls-6" d="M48.24,51c-2.66-.76-3.11,2.49-1.11,3.77,1.55,1,3.71.52,5.27-.1,3.46-1.39,5.93-3.81,9.81-4.26.26,0,.38-.45.07-.5a7.94,7.94,0,0,0-5.17,1.19c-1.24.66-2.36,1.52-3.59,2.19a10.25,10.25,0,0,1-2.79,1.14q-4.18,1.31-2.58-3.14c.2,0,.28-.24.09-.29Z"/><path class="cls-6" d="M46.91,51.22a4.36,4.36,0,0,1,1.56-.76c.52-.13,1-.07,1.56-.17.07,0,.1-.14,0-.17-1.06-.45-2.46.25-3.26.94-.09.08,0,.24.12.16Z"/><path class="cls-6" d="M41.76,41c-2,1.59-4,3.73-3.94,6.47a4.89,4.89,0,0,0,3,4.58c.42.17.62-.52.19-.69-5-2-1.67-7.79,1-10.13.15-.14-.07-.35-.23-.23Z"/><path class="cls-6" d="M36.09,41.48a5.61,5.61,0,0,0,.56,9.64.33.33,0,0,0,.33-.58c-3.39-2.09-3.65-6.18-.73-8.86.11-.09,0-.28-.16-.2Z"/><path class="cls-6" d="M36.47,39.88c13.58-.39,27-.29,40.59,0a.19.19,0,0,0,0-.38,237.15,237.15,0,0,0-40.59,0c-.19,0-.2.32,0,.31Z"/><path class="cls-6" d="M35.66,44.05c14.23-.14,28.51,0,42.73-.57a.19.19,0,0,0,0-.37c-14.24-.15-28.5.45-42.73.75a.1.1,0,0,0,0,.19Z"/><path class="cls-6" d="M35.17,46.28c16.07.8,32.4,1.65,48.49,1.38.17,0,.16-.25,0-.26-16-1.15-32.4-1.21-48.49-1.3a.09.09,0,0,0,0,.18Z"/><path class="cls-6" d="M36,50.59c15,0,30.05.27,45-.24a.21.21,0,0,0,0-.41c-15-.34-30,.12-45,.26a.2.2,0,0,0,0,.39Z"/><path class="cls-6" d="M36.81,53.3c14.54.2,29.19.09,43.72-.44a.14.14,0,0,0,0-.27c-14.54-.23-29.18,0-43.72.46a.13.13,0,0,0,0,.25Z"/><path class="cls-6" d="M36.32,42.06h-.16a0,0,0,0,0,0,0h.16s0-.06,0,0Z"/><path class="cls-6" d="M36.49,41.35c13.13-.08,26.28-.32,39.42-.62a.22.22,0,0,0,0-.44c-13.14.18-26.29.42-39.42.82a.12.12,0,1,0,0,.24Z"/><path class="cls-6" d="M107.59,30.91c-.08.52.27,1.12.85,1a.14.14,0,0,0,0-.25c-.32-.15-.59-.31-.57-.71,0-.18-.29-.23-.32,0Z"/><path class="cls-6" d="M106.62,31.85a3,3,0,0,0,.76,1.15.08.08,0,0,0,.12-.07,3.16,3.16,0,0,0-.61-1.23.15.15,0,0,0-.27.15Z"/><path class="cls-6" d="M105.52,32.42c-.18.45,0,1.11.57,1.15a.11.11,0,0,0,.07-.18c-.29-.25-.54-.49-.41-.91,0-.14-.17-.19-.23-.06Z"/><path class="cls-6" d="M103.54,33.16a2.36,2.36,0,0,0,.29.82c0,.06.16.07.18,0a2.47,2.47,0,0,0-.1-.9c0-.24-.43-.14-.37.1Z"/><path class="cls-6" d="M102.69,20a1.08,1.08,0,0,0,.06,1.27.08.08,0,0,0,.13-.08,1.76,1.76,0,0,1,0-1.11c0-.1-.12-.17-.18-.08Z"/><path class="cls-6" d="M104.66,19.9a1.11,1.11,0,0,0,.74,1.1c.09,0,.16-.09.09-.15a1.35,1.35,0,0,1-.56-1,.14.14,0,0,0-.27,0Z"/><path class="cls-6" d="M106.63,19.31a5.11,5.11,0,0,0,.7,1c.08.08.24,0,.2-.11a5.6,5.6,0,0,0-.64-1c-.11-.16-.37,0-.26.15Z"/><path class="cls-6" d="M108.42,19.49a6.3,6.3,0,0,0,.89,1.15c.08.07.24,0,.2-.11a6.06,6.06,0,0,0-.79-1.22c-.13-.18-.43,0-.3.18Z"/><path class="cls-6" d="M110.41,19.44a6.3,6.3,0,0,0,.34,1.36.15.15,0,0,0,.28-.08,5.81,5.81,0,0,0-.34-1.35.14.14,0,0,0-.28.07Z"/><path class="cls-6" d="M117.09,22.88a1.3,1.3,0,0,1-.35,1.09c-.06.08.05.16.12.13a.94.94,0,0,0,.37-1.26.07.07,0,0,0-.14,0Z"/><path class="cls-6" d="M116.39,22.81a6.47,6.47,0,0,0-.51,1c-.06.17.19.25.28.12a7.52,7.52,0,0,0,.48-1c.08-.18-.16-.33-.25-.15Z"/><path class="cls-6" d="M112.08,15.05a6.62,6.62,0,0,0-.64,4.75c0,.16.31.14.3,0a9.33,9.33,0,0,1,.6-4.56c.08-.18-.17-.33-.26-.15Z"/><path class="cls-6" d="M114,12.85a10.41,10.41,0,0,1,.09,2.73c-.1.93-.42,1.77-.59,2.67a.12.12,0,0,0,.21.09,8.66,8.66,0,0,0,.58-5.57c0-.19-.32-.11-.29.08Z"/><path class="cls-6" d="M117.17,11.45c-.19.68-.37,1.35-.55,2a6.31,6.31,0,0,0-.39,1.8.1.1,0,0,0,.18.05,6.54,6.54,0,0,0,.54-1.76l.51-2a.15.15,0,0,0-.29-.08Z"/><path class="cls-6" d="M120,10a14,14,0,0,0-.31,2.8.12.12,0,0,0,.24,0,13.55,13.55,0,0,0,.36-2.84c0-.19-.27-.19-.29,0Z"/><path class="cls-6" d="M121.9,9a17.11,17.11,0,0,0-.64,2.51c0,.14.2.2.25.07A16.52,16.52,0,0,0,122.2,9a.16.16,0,0,0-.3-.08Z"/><path class="cls-6" d="M125,8.33a13.76,13.76,0,0,0-.62,2c0,.14.17.26.24.11a14.06,14.06,0,0,0,.67-2c0-.18-.23-.25-.29-.07Z"/><path class="cls-6" d="M125.55,9.66l-.49.5s0,0,0,0l.5-.49s0,0,0,0Z"/><path class="cls-6" d="M89.56,14.79a1.67,1.67,0,0,1,1,1.82.12.12,0,0,0,.23.06,1.6,1.6,0,0,0-1.11-2.14c-.17,0-.23.2-.07.26Z"/><path class="cls-6" d="M90.88,13.29a2.76,2.76,0,0,1,1.19,1c.25.34.33.75.55,1.11,0,.09.23.09.25,0,.15-1.06-1-2-1.92-2.29-.18-.06-.23.2-.07.26Z"/><path class="cls-6" d="M92.66,13.11a2.59,2.59,0,0,1,1.08,1,11.54,11.54,0,0,1,.45,1.19.09.09,0,0,0,.17,0c.3-1-.76-2.06-1.56-2.44-.16-.08-.31.16-.14.25Z"/><path class="cls-6" d="M95.43,13.85a12.16,12.16,0,0,0,1.06,1.49c.12.12.29,0,.22-.17a10.34,10.34,0,0,0-.95-1.51c-.14-.2-.47,0-.33.19Z"/><path class="cls-6" d="M96.75,14.65a5.17,5.17,0,0,0,.54,1.5.11.11,0,0,0,.21-.06A5.25,5.25,0,0,0,97,14.57a.15.15,0,0,0-.28.08Z"/><path class="cls-6" d="M55.22,41.92A4.08,4.08,0,0,0,55.77,43a2.47,2.47,0,0,0,.64.83c.09.07.2,0,.18-.14a2.81,2.81,0,0,0-.5-1,3.69,3.69,0,0,0-.68-.89.12.12,0,0,0-.19.11Z"/><path class="cls-6" d="M52.71,41.27a3.74,3.74,0,0,1,1.45,2.15.12.12,0,0,0,.23,0A2.85,2.85,0,0,0,52.85,41c-.15-.09-.28.14-.14.23Z"/><path class="cls-6" d="M50.71,41.66a13.31,13.31,0,0,0,1.6,2.11.17.17,0,0,0,.26-.2A13,13,0,0,0,51,41.47c-.11-.15-.36,0-.25.19Z"/><path class="cls-6" d="M49.23,42.28a11.92,11.92,0,0,0,.83,2.51c.06.12.28.08.26-.07a12.14,12.14,0,0,0-.84-2.51c0-.15-.3-.09-.25.07Z"/><path class="cls-6" d="M47.12,42.67a4.52,4.52,0,0,1,.78,1.25c.16.39.19.82.38,1.18a.1.1,0,0,0,.18,0c.24-.89-.55-2-1.16-2.59-.12-.12-.29.06-.18.18Z"/><path class="cls-6" d="M45.58,44.31a5.77,5.77,0,0,0,.89,1.32.12.12,0,0,0,.19-.11,5.87,5.87,0,0,0-.79-1.37c-.12-.19-.4,0-.29.16Z"/><path class="cls-6" d="M43.94,44.8A9.22,9.22,0,0,0,45,46.59c.05.06.14,0,.13-.07a9.32,9.32,0,0,0-.93-1.87c-.1-.18-.36,0-.27.15Z"/><path class="cls-6" d="M103.44,57l-.49.16a0,0,0,0,0,0,.05l.49-.17s0,0,0,0Z"/><path class="cls-6" d="M103.09,56.9a25.79,25.79,0,0,0-1.29,2.37c-.06.15.18.23.26.1A20.94,20.94,0,0,0,103.34,57a.14.14,0,0,0-.25-.14Z"/><path class="cls-6" d="M104.57,56.47a18.18,18.18,0,0,0-.64,3.17c0,.16.21.17.26,0a18.44,18.44,0,0,0,.66-3.14c0-.18-.24-.25-.28-.07Z"/><path class="cls-6" d="M106.27,56.31a14,14,0,0,0-.59,2.85.09.09,0,0,0,.16,0,13.27,13.27,0,0,0,.74-2.8.16.16,0,0,0-.31-.09Z"/><path class="cls-6" d="M108.9,55.54s0,0,0,0,0,0,0,0Z"/><path class="cls-6" d="M110.52,53.66a13.67,13.67,0,0,0-.31,2.53.16.16,0,0,0,.32,0,13.19,13.19,0,0,0,.35-2.52c0-.2-.33-.25-.36-.05Z"/><path class="cls-6" d="M112.5,51.84c-.41,1-.91,2.57-.39,3.58a.12.12,0,0,0,.21,0,7.87,7.87,0,0,0,.08-1.54,8.92,8.92,0,0,1,.38-1.93c.06-.19-.21-.25-.28-.08Z"/><path class="cls-6" d="M85.3,94.46A338.52,338.52,0,0,1,88,132.23c0,.13.2.13.21,0a188.41,188.41,0,0,0-2.6-37.8c0-.16-.3-.12-.28,0Z"/><path class="cls-6" d="M90,93.47c.47,14.24.84,28.5,1.65,42.72a.14.14,0,0,0,.28,0c-.25-14.24-1-28.49-1.54-42.72,0-.24-.4-.25-.39,0Z"/><path class="cls-6" d="M95.06,90.35a443.35,443.35,0,0,1-.58,54.92c0,.11.18.14.2,0a210.17,210.17,0,0,0,.65-55c0-.17-.28-.18-.27,0Z"/><path class="cls-6" d="M102.51,85.6c1.64,19,1.44,37.67,1,56.73a.11.11,0,0,0,.22,0c2.26-18.59,1.42-38.19-.93-56.73,0-.17-.3-.18-.28,0Z"/><path class="cls-6" d="M110.81,83.93a312.81,312.81,0,0,1-1.09,46.52c0,.17.24.17.26,0a257.32,257.32,0,0,0,1.14-46.52c0-.2-.32-.2-.31,0Z"/><path class="cls-6" d="M82.48,93.3c-.12,13.06.59,26.21,1.2,39.26,0,.13.2.13.19,0-.16-13.06-.23-26.23-1.13-39.26a.13.13,0,0,0-.26,0Z"/><path class="cls-6" d="M92.07,82.92c.13,5.7.37,11.46.84,17.15a.08.08,0,0,0,.15,0c-.08-5.71-.41-11.46-.84-17.15a.08.08,0,1,0-.15,0Z"/><path class="cls-6" d="M98.35,86.58a40.33,40.33,0,0,1-.06,12.31c0,.11.13.15.15,0a35.14,35.14,0,0,0,.23-12.44c0-.21-.35-.13-.32.08Z"/><path class="cls-6" d="M81.35,110.28l-.33.17a0,0,0,1,0,0,0l.33-.17s0,0,0,0Z"/><path class="cls-6" d="M79.65,109.24c-1.05,3.15-.33,7.65,2.78,9.44a.17.17,0,0,0,.2-.26C80.42,115.66,79,113,80,109.32a.16.16,0,0,0-.3-.08Z"/><path class="cls-6" d="M75.8,111.05c-.53,3.31.85,7.75,4.26,9,.22.09.41-.25.23-.4a12.68,12.68,0,0,1-3.14-3.27,8.32,8.32,0,0,1-1-5.28c0-.23-.32-.33-.36-.1Z"/><path class="cls-6" d="M134.44,99c1.35,6.51-.32,12.53-4.18,17.86-.15.19.17.44.33.26A20.94,20.94,0,0,0,135,98.84c-.08-.39-.68-.22-.6.17Z"/><path class="cls-6" d="M137.83,102.22c1.6,7.2-1.5,13.38-4.28,19.82-.09.2.2.39.31.18,3.43-6.17,6.2-13,4.36-20.1a.2.2,0,0,0-.39.1Z"/><path class="cls-6" d="M67.23,133.31c-2.64-.65,1.3-5.07,1.84-5.84.1-.15-.1-.32-.24-.24-1.41.83-5,5.93-1.71,6.47.25,0,.37-.32.11-.39Z"/><path class="cls-6" d="M63.53,133.35c-1.15-3.26.52-5.92,3.44-7.31.25-.12.07-.51-.19-.45-3.44.84-4.86,4.77-3.67,7.88.1.26.52.15.42-.12Z"/><path class="cls-6" d="M87.09,49.86l-.46.11a.22.22,0,0,0,0,.42,11,11,0,0,0,6.56-.33c.23-.09.12-.49-.12-.46C92,49.7,91,50,89.9,50A22.91,22.91,0,0,1,86.69,50l.11.41.41-.22c.17-.08.05-.33-.12-.29Z"/><path class="cls-6" d="M126.52,11a35.85,35.85,0,0,0-.48,4.12.1.1,0,0,0,.19,0,38.52,38.52,0,0,0,.5-4.15c0-.14-.2-.14-.21,0Z"/><path class="cls-6" d="M124.29,12.64a16.59,16.59,0,0,0-.28,3,.08.08,0,0,0,.16,0,17.46,17.46,0,0,0,.37-3c0-.15-.23-.15-.25,0Z"/><path class="cls-6" d="M122.48,13.3c-.16,1.32-.38,2.64-.45,4,0,.1.15.13.17,0,.26-1.32.36-2.66.52-4,0-.15-.22-.15-.24,0Z"/><path class="cls-6" d="M120.18,15.25c-.28,2-.68,4.09-.8,6.13a.08.08,0,0,0,.15,0c.43-2,.59-4.09.86-6.12,0-.11-.19-.14-.21,0Z"/><path class="cls-6" d="M117.53,17.42c-.1,1.53-.29,3.09-.27,4.63,0,.09.16.11.17,0,.22-1.53.22-3.11.31-4.65,0-.13-.2-.13-.21,0Z"/><path class="cls-6" d="M115.66,20.57s0,0,0,0,0,0,0,0Z"/><path class="cls-6" d="M114.57,20.75a17.94,17.94,0,0,0,.37,1.8c0,.07.14.06.13,0,0-.62-.18-1.23-.29-1.85,0-.13-.24-.08-.21.06Z"/><path class="cls-6" d="M102.56,34.25a2.35,2.35,0,0,0,1.17,1.92.12.12,0,0,0,.14-.19,7.64,7.64,0,0,1-.73-.87c-.18-.28-.26-.62-.44-.9a.08.08,0,0,0-.14,0Z"/><path class="cls-6" d="M104.53,35a5.5,5.5,0,0,0,.55.81.07.07,0,0,0,.12-.07,5.19,5.19,0,0,0-.46-.87.12.12,0,0,0-.21.13Z"/><path class="cls-6" d="M106.1,34.59s0,0,0,0,0,0,0,0Z"/><path class="cls-6" d="M107.17,34.46c.17.23.33.46.52.67s.18,0,.13-.1a6.26,6.26,0,0,0-.49-.66c-.07-.1-.23,0-.16.09Z"/><path class="cls-6" d="M108.08,34.26s0,0,0,0,0,0,0,0Z"/><path class="cls-6" d="M108.83,33.5c.11.11.22.22.34.32a.09.09,0,0,0,.12-.13c-.1-.12-.2-.23-.31-.34a.11.11,0,1,0-.15.15Z"/><path class="cls-6" d="M109.73,32.61s0,0,0,0,0,0,0,0Z"/><path class="cls-6" d="M110,32.13c.11.29.22.57.35.85,0,.09.21,0,.18-.07-.09-.29-.21-.56-.32-.83s-.26-.08-.21.05Z"/><path class="cls-6" d="M105.38,34.61a9.77,9.77,0,0,0,.68,1c.06.06.15,0,.12-.09a9,9,0,0,0-.65-1c-.06-.09-.21,0-.15.09Z"/><path class="cls-6" d="M92.65,31.08a4.79,4.79,0,0,0-1.08-2.72c-.45-.71-1-1.71-1.84-2-.18-.07-.37.14-.32.32A11,11,0,0,0,91,28.9a9.69,9.69,0,0,0,1.38,2.31.19.19,0,0,0,.32-.13Z"/><path class="cls-6" d="M87.4,23.9a3.21,3.21,0,0,0-3,5.11c.24.3.7-.08.52-.4a2.74,2.74,0,0,1-.16-2.89,2.65,2.65,0,0,1,2.65-1.18c.41.05.4-.59,0-.64Z"/><path class="cls-6" d="M84.19,28.8c.87,3.34,4.89,4.53,7.87,3.54.48-.17.27-.94-.22-.78-3.15,1.06-5.43-.45-7.2-2.95a.25.25,0,0,0-.45.19Z"/><path class="cls-6" d="M100.13,33.84c2.36,1.08,5.34,1.47,7.72.23,2-1,3.34-3.34,2.44-5.53a.2.2,0,0,0-.39.05c-.06,2.62-1,4.65-3.78,5.29-2,.47-3.93-.16-5.9-.4-.18,0-.26.28-.09.36Z"/><path class="cls-6" d="M100.58,21.86a11.39,11.39,0,0,1,3.59-2.29,10.61,10.61,0,0,1,3.89-.21c.21,0,.32-.32.11-.41-2.51-1.07-6.62.2-7.83,2.72a.15.15,0,0,0,.24.19Z"/><path class="cls-6" d="M117.45,23c.81,5.71-1.35,10.32-6.65,12.77-.21.11-.06.48.17.4a10.88,10.88,0,0,0,6.83-13.27.18.18,0,0,0-.35.1Z"/><path class="cls-6" d="M113.46,19.8A29.39,29.39,0,0,1,128.4,8.93a.19.19,0,0,0-.1-.36,23.31,23.31,0,0,0-15.05,11.11c-.08.14.12.24.21.12Z"/><path class="cls-6" d="M101.57,34.48a10.42,10.42,0,0,1-.44,7.37c0,.11.12.16.18.08a8.14,8.14,0,0,0,.47-7.54c0-.12-.25,0-.21.09Z"/><path class="cls-6" d="M95.67,46.39c-2.29,4.25-.72,10.49.43,14.86a.13.13,0,0,0,.26,0c-.37-5-2.36-9.87-.51-14.74a.1.1,0,0,0-.18-.08Z"/><path class="cls-6" d="M95.35,58.35c-1.82,4.31-5.8,7.58-6.64,12.3a11.48,11.48,0,0,0,2.47,9.27c.13.16.39,0,.28-.22-2.82-4.4-3.14-8.89-.46-13.46,1.56-2.65,3.59-4.83,4.58-7.79,0-.13-.17-.23-.23-.1Z"/><path class="cls-6" d="M114.31,49c-.08.31,0,.62,0,.94s-.2.6-.24.92c0,.07.09.09.13,0a1.65,1.65,0,0,0,.25-1.94.06.06,0,0,0-.11,0Z"/><path class="cls-6" d="M114.16,49.29a4.21,4.21,0,0,1,.09,1.12c0,.33-.16.63-.2,1,0,.1.12.11.17,0a2.63,2.63,0,0,0,.14-2.18.1.1,0,0,0-.2.06Z"/><path class="cls-6" d="M114.06,50.25A4.07,4.07,0,0,0,115.64,54a.12.12,0,0,0,.16-.16,16.87,16.87,0,0,1-1-1.48,5.27,5.27,0,0,1-.46-2.11.13.13,0,0,0-.26,0Z"/><path class="cls-6" d="M115.53,53.5a8.51,8.51,0,0,1-.84-2.34c-.15-.73-.11-1.49-.3-2.19a.17.17,0,0,0-.32,0c-.42,1.52.48,3.38,1.23,4.66a.13.13,0,0,0,.23-.13Z"/><path class="cls-6" d="M114.39,49.47a11.58,11.58,0,0,0-1.81-4.07c-.11-.14-.29,0-.23.18a34.49,34.49,0,0,1,1.77,4,.14.14,0,0,0,.27-.08Z"/><path class="cls-6" d="M113.06,46.12a5.85,5.85,0,0,1-1.23-1.56c-.28-.54-.41-1.15-.72-1.67a.17.17,0,0,0-.31.08c0,1.27,1.16,2.59,2,3.36.14.13.36-.08.21-.21Z"/><path class="cls-6" d="M112.36,45c-.38-.47-.73-1-1.09-1.45a4.54,4.54,0,0,0-.92-1.08c-.26-.18-.5.16-.39.39A5.09,5.09,0,0,0,111,44c.38.4.77.8,1.14,1.21.16.17.38-.07.25-.24Z"/><path class="cls-6" d="M111,44.12c-.34-.39-.64-.8-1-1.2a3.94,3.94,0,0,0-1-1,.25.25,0,0,0-.34.33,3.8,3.8,0,0,0,.94,1.06c.36.36.74.7,1.1,1.08.15.15.37-.08.23-.24Z"/></g></svg>