<svg id="carracters" xmlns="http://www.w3.org/2000/svg" viewBox="0 0 198.43 35.43"><defs><style>.cls-1{fill:#fff;}</style></defs><path d="M181.48,12.31a.66.66,0,0,1-.17.1,2.46,2.46,0,0,0-1.13.74l-6.65,6.12a1,1,0,0,0-.24.27c.46-.18.91-.37,1.38-.52a13,13,0,0,1,4.68-.7,6.42,6.42,0,0,1,2.77.73,4.76,4.76,0,0,1,2.49,3.3,5.93,5.93,0,0,1-3.49,7,10.74,10.74,0,0,1-6.89.65,4.09,4.09,0,0,1-1.71-.84,2.64,2.64,0,0,1-.22-4A3.94,3.94,0,0,1,175.05,24a4.78,4.78,0,0,1,4.84,3.86c0,.08,0,.16.06.27a5.52,5.52,0,0,0,1.58-.91,4.34,4.34,0,0,0,1-5.49,4,4,0,0,0-2.8-1.81,9.15,9.15,0,0,0-3.46,0,13.58,13.58,0,0,0-5,1.86,13.2,13.2,0,0,0-2.49,2.23c-.32.34-.64.69-.94,1l-1.19-1.18c3.78-3.81,7.7-7.51,11.68-11.26l-.67.06q-2.21.13-4.41.24c-1.09.06-2.18.09-3.27.14-.07,0-.13.06-.19.1l-.42.28-.19-2h1c2.32-.08,4.64-.16,7-.26.85,0,1.7-.14,2.55-.21a.76.76,0,0,0,.16,0c.34-.12.34-.12.57.16Zm-3,16.28a8.61,8.61,0,0,0-.38-1.15A3.17,3.17,0,0,0,175,25.36a2.53,2.53,0,0,0-1.3.39,1.42,1.42,0,0,0,.1,2.57,4.23,4.23,0,0,0,1.71.46A9.57,9.57,0,0,0,178.43,28.59Z"/><path class="cls-1" d="M31.9,12.31a.53.53,0,0,1-.17.1,2.38,2.38,0,0,0-1.12.74L24,19.27a1,1,0,0,0-.24.27c.46-.18.91-.37,1.38-.52a13.08,13.08,0,0,1,4.68-.7,6.38,6.38,0,0,1,2.77.73A4.74,4.74,0,0,1,35,22.35a6,6,0,0,1-.78,4.77,6.12,6.12,0,0,1-2.7,2.23,10.78,10.78,0,0,1-6.9.65,4.09,4.09,0,0,1-1.71-.84,2.64,2.64,0,0,1-.22-4A4,4,0,0,1,25.48,24a4.78,4.78,0,0,1,4.83,3.86c0,.08,0,.16.06.27A5.39,5.39,0,0,0,32,27.22a4.34,4.34,0,0,0,1-5.49,4,4,0,0,0-2.79-1.81,9.15,9.15,0,0,0-3.46,0,13.63,13.63,0,0,0-5,1.86,13.2,13.2,0,0,0-2.49,2.23c-.32.34-.63.69-.94,1l-1.18-1.18c3.77-3.81,7.7-7.51,11.67-11.26l-.67.06q-2.2.13-4.41.24c-1.09.06-2.18.09-3.27.14-.06,0-.13.06-.19.1l-.42.28-.19-2H20.7c2.31-.08,4.63-.16,7-.26.85,0,1.7-.14,2.55-.21a.76.76,0,0,0,.16,0c.34-.12.34-.12.58.16Zm-3,16.28a10.31,10.31,0,0,0-.39-1.15,3.17,3.17,0,0,0-3.07-2.08,2.48,2.48,0,0,0-1.3.39,1.42,1.42,0,0,0,.09,2.57,4.23,4.23,0,0,0,1.71.46A9.65,9.65,0,0,0,28.86,28.59Z"/><path d="M171.77,25.08l-.13-.1A5.3,5.3,0,0,1,174,23.43a5.84,5.84,0,0,1,4.6.13A3.8,3.8,0,0,1,180.27,25a2.26,2.26,0,0,1,.22,2,1.54,1.54,0,0,0-.05.17s0,0,0,0l.58-.07c.08.14,0,.2-.11.21s-.43.05-.64.09a.23.23,0,0,1-.3-.19c0-.13-.1-.25-.15-.38.12-.07.12-.07.36.31a2.11,2.11,0,0,0-.29-2.42,4.29,4.29,0,0,0-2.72-1.47A6.08,6.08,0,0,0,171.77,25.08Z"/><path d="M176,18a9.24,9.24,0,0,1,6.8.16l-.16-.37c0-.11-.11-.21.1-.25l.43.93c-.35,0-.66.09-1,.11,0,0-.12-.06-.18-.09l0-.07.52-.08a7.78,7.78,0,0,0-3.68-.7,10.53,10.53,0,0,0-3.69.91l.86-.92,1.3-1.38c.08-.08.16-.19.27,0Z"/><path d="M170,11.05c-.05,0-.08-.09,0-.19s.36-.39.59-.62l-1.09,0-2.91-.07c-.12,0-.26,0-.18-.2l4.14.1-.68-.66,0-.09c.08,0,.17,0,.22,0,.24.22.48.47.73.69.1.1.09.18,0,.27Z"/></svg>