<svg id="illustration" xmlns="http://www.w3.org/2000/svg" viewBox="0 0 198.43 153.77"><defs><style>.cls-1{fill:#3f4159;}.cls-2{fill:#66cbe4;}.cls-3{fill:#ffd075;}.cls-4{fill:#e12626;}.cls-5{fill:#b7ae6d;}.cls-6{fill:#25252b;}.cls-7{fill:#fff;}.cls-8{fill:#010101;}</style></defs><path class="cls-1" d="M78.05,57.71V68.28l1.52,16.08,1,8.32,1.36,2.62s2.66,1.73,8,1.76,20.14.32,20.14.32,6.26-.79,6.9-2.35a24,24,0,0,0,1-3.87l-.43-20.41-.54-8-.82-13.37Z"/><polygon class="cls-2" points="110.05 97.38 88.6 97.02 85.61 102.93 84.19 106.09 83.21 109.06 81.73 116.1 81.37 120.96 81.37 125.58 82.14 130.07 83.22 134.54 84.97 139.41 87.3 144.11 90.04 147.85 91.46 150.26 94.62 147.53 97.4 144.32 98.16 142.19 98.69 140.88 99.66 137.26 99.94 134.85 99.79 131.28 100.68 135.42 102.02 138.74 104.23 142.19 106.45 144.24 108.87 145.96 111.59 147.28 112.22 147.51 113.31 145.23 116.14 138.74 117.26 133.16 117.82 127.73 117.82 121.11 116.78 115.67 115.71 111.16 113.61 104.9 111.81 100.14 110.05 97.38"/><path class="cls-3" d="M79.58,54.75s-3.15-4.7-2.84-12.53A19.55,19.55,0,0,1,87,26.12c4.65-2.36,11.68-3.43,17.16-1.27S115.54,33.32,117,39.21s0,8.1,0,8.1l21-3.61s3.65-.7,4.48.49S92.56,54.47,92.56,54.47L62,62.7s-.74-1.82,2-2.76S79.58,54.75,79.58,54.75Z"/><path class="cls-4" d="M77.1,49.33,117,41l.34,3.89s-17.09,4.34-17.57,4.4-4.65,1.27-4.65,1.27L78.83,53.87Z"/><path class="cls-4" d="M87,75.71s6.25-1.24,7.46-7-2.79-13.94-2.79-13.94L79.06,58.14s.65,3.93.77,6.53.19,7.39,3.28,9.9S87,75.71,87,75.71Z"/><path class="cls-4" d="M103.87,52.16,113.73,50s4.55,8.57,1.28,17.63-11.14,3.81-11.14,3.81-4.08-5-3.05-9.66A69.94,69.94,0,0,1,103.87,52.16Z"/><path class="cls-5" d="M89.33,96.91l19.72.45s2,5.74,2.29,7.51.64,8.5-.28,11.67c-.52,1.81-2.74,6.66-4.43,10.49-.75,1.7-.67,3.23-1.53,4.14-.39.41.17-2.52,0-3.44-.12-.47-.91.69-1.15.84l-3.42,2.51-1.53.18-2.23-1-.45,2.45-2.11-3.92-2.38-3-2.68-5.2-2-6.9-.43-5.42,1-5.77Z"/><path class="cls-6" d="M84.52,90.82l2.56-.29,1.89.91,1.51,1.79S88.55,95.36,88,95.89a11.25,11.25,0,0,0-1.8,3.77c-.1.85.09,5,.09,5l-2.47-3L82,97.38V93.84l1.43-2.23Z"/><path class="cls-6" d="M109.25,91.94l1,2.32-.08,2.65-.57,2.3-.88,1.9-.38,1.1,1.39-.72,2.66-2.28,1.17-2.15.51-2.59-.74-3.9-.39-.48S109.6,90.68,109.25,91.94Z"/><path class="cls-7" d="M80.18,39.39a21.43,21.43,0,0,1,3.76-6.58c1.67-1.82,3.75-2.76,5.7-4.16a.35.35,0,0,0-.27-.63c-4.81.69-9.3,6.68-9.72,11.3,0,.33.42.33.53.07Z"/><path class="cls-7" d="M80.61,73.23a24.86,24.86,0,0,0,1.23,12.2.09.09,0,0,0,.18-.05,50.89,50.89,0,0,1-1.18-12.11c0-.13-.2-.17-.23,0Z"/><path class="cls-7" d="M81.93,58.8c-1.86,4.27-.3,10.78,4,13.11.27.15.49-.18.31-.41-1.52-2-3-3.65-3.73-6.1a16.21,16.21,0,0,1-.33-6.54c0-.11-.16-.16-.21-.06Z"/><path class="cls-7" d="M105.38,55.3c-2.71,4.13-2.56,10.85,1.36,14.27.33.29.89-.08.63-.48-2.77-4.33-3.81-8.66-1.6-13.56a.23.23,0,0,0-.39-.23Z"/><path class="cls-7" d="M85.16,92.94c-1.88,1.24-2.42,4.76-.93,6.47a.13.13,0,0,0,.22-.13,6.8,6.8,0,0,1-.52-3.21,6.44,6.44,0,0,1,1.44-2.91c.09-.13-.09-.3-.21-.22Z"/><path class="cls-7" d="M111.85,93a11.59,11.59,0,0,1-.64,5,.16.16,0,0,0,.29.12,6.77,6.77,0,0,0,.59-5.18.12.12,0,0,0-.24,0Z"/><path class="cls-7" d="M93.53,95.11a43.34,43.34,0,0,0,11.77.26.19.19,0,0,0,0-.37,43.77,43.77,0,0,0-11.77-.1.11.11,0,0,0,0,.21Z"/><path class="cls-7" d="M89.41,101.56c-3.78,7-2.23,17.11,2.17,23.4.33.46,1.08.05.78-.46a27.14,27.14,0,0,1-4.09-11.4c-.46-4,.44-7.55,1.4-11.43,0-.15-.18-.26-.26-.11Z"/><path class="cls-7" d="M84.7,108.54c-2.7,4.45-3,10.54-2.68,15.6s1.22,11.4,4.27,15.46a.75.75,0,0,0,1.36-.57c-.59-2.45-1.79-4.75-2.45-7.2a41.18,41.18,0,0,1-1.3-8.11c-.29-5.14.91-10,1.31-15,0-.28-.38-.35-.51-.13Z"/><path class="cls-7" d="M100.77,132.34c-1,4.71,4.7,12.45,9.4,13.09a.54.54,0,0,0,.52-.89c-1.8-2-4.17-3.12-5.82-5.31s-2.22-4.77-3.68-6.94a.23.23,0,0,0-.42.05Z"/><path class="cls-7" d="M116.67,74c-.16,1.49-.1,3-.21,4.49A41.69,41.69,0,0,0,116.1,83a.18.18,0,0,0,.36,0,19.89,19.89,0,0,0,.6-9c0-.24-.37-.16-.39.05Z"/><path class="cls-7" d="M95.42,28.06c1.2,1.36,3.67,1.18,5.32,1.78,2.57.93,8,3.52,7,7.07-.2.7.81.94,1.06.3,1.42-3.6-1.3-6.07-4.19-7.74-2.12-1.23-7-3.74-9.15-1.79a.28.28,0,0,0,0,.38Z"/><path class="cls-7" d="M81.09,56c5.27-1.39,10.37-3.34,15.69-4.6s10.83-1.6,16.08-2.94a.32.32,0,0,0-.09-.62c-5.35-.17-11.08,1.38-16.24,2.63s-10.77,2.67-15.62,5.12c-.23.11-.07.47.18.41Z"/><path class="cls-7" d="M83.47,50.36A73.59,73.59,0,0,0,93.8,48.48c.26-.08.22-.52-.06-.49a73.88,73.88,0,0,0-10.31,2.1c-.14,0-.12.29,0,.27Z"/><path class="cls-8" d="M77.56,63.21,79,82.83c.33,4.58.33,9.76,3.54,13.39.09.1.23,0,.15-.15C79.11,91.6,79.43,85.39,79,80L77.81,63.21c0-.16-.26-.16-.25,0Z"/><path class="cls-8" d="M116.9,62.7c.1,5.51.63,11,.77,16.54q.09,3.9.09,7.8c0,3.09.62,8.15-3.31,9.09-.27.06-.15.46.11.41,5.18-.88,3.7-9.35,3.67-12.91a162.88,162.88,0,0,0-1.08-21c0-.15-.25-.11-.25,0Z"/><path class="cls-8" d="M86.69,97c7.78.38,15.58.43,23.36.61a.21.21,0,0,0,0-.41c-7.78-.14-15.57-.41-23.36-.34a.07.07,0,0,0,0,.14Z"/><path class="cls-8" d="M62.05,62.82a804,804,0,0,1,81-18.26c.15,0,.09-.26-.07-.24A804.58,804.58,0,0,0,62,62.58a.13.13,0,0,0,.07.24Z"/><path class="cls-8" d="M66.54,61.36s0,0,0,0,0,0,0,0Z"/><path class="cls-8" d="M62,62.67l1.66-2.85,1.5-.62,1.66-.61c1.26-.44,2.53-.84,3.81-1.21,2.43-.68,4.89-1.11,7.35-1.63.12,0,.1-.23,0-.21a49.15,49.15,0,0,0-12,3.08c-1.76.66-5,1.59-4.06,4.09a.07.07,0,0,0,.14,0Z"/><path class="cls-8" d="M142.08,44.58a.58.58,0,0,0,.21-1c-.81-1-4.72.34-5.64.48-6.66,1-13.32,2-20,3.08-.15,0-.08.25.07.23,4.06-.62,8.11-1.26,12.17-1.89l5.84-.91,2.92-.46,1.46-.23a2.94,2.94,0,0,1,2.9.62,0,0,0,1,0,0,.07Z"/><path class="cls-8" d="M78.4,55.45c-1-6.79-2.59-13.74-.08-20.42s8.52-10,15.44-10.34c12.47-.61,25.7,8.9,22.95,22.57,0,.26.35.37.4.11,2.8-13.91-10.58-23.71-23.35-23.06-6.45.32-12.35,3.12-15.19,9.16-3.22,6.87-2,14.91-.33,22,0,.11.18.06.16,0Z"/><path class="cls-8" d="M80.77,30c4-8.64-.86-20.22-8.54-25.06-.16-.1-.28.13-.14.24A23.46,23.46,0,0,1,80.3,15.75c1.8,4.9,1.18,9.21.37,14.2,0,.06.07.1.1,0Z"/><path class="cls-8" d="M113.66,33.41c0-11.25,6.37-20.41,17.09-24a.09.09,0,1,0-.05-.18,23.4,23.4,0,0,0-17.17,24.15.07.07,0,1,0,.13,0Z"/><path class="cls-8" d="M77.12,49.4C90.44,47,103.78,44.16,117,41.22c.19,0,.11-.32-.08-.29-13.29,2.55-26.66,5.22-39.83,8.34-.09,0,0,.15,0,.13Z"/><path class="cls-8" d="M77.33,54.15a253.86,253.86,0,0,0,40.11-9.09.17.17,0,0,0-.09-.32c-6.64,1.73-13.22,3.63-19.91,5.16S84,52.65,77.29,54c-.1,0-.05.16,0,.15Z"/><path class="cls-8" d="M82.09,31.91a39.17,39.17,0,0,0,18.57-1.72s0-.09,0-.08A43.44,43.44,0,0,1,82.1,31.79c-.06,0-.08.11,0,.12Z"/><path class="cls-8" d="M81.35,36.41a32.18,32.18,0,0,0,23-1.89c.09-.05,0-.18-.08-.14a33.54,33.54,0,0,1-22.87,1.94c-.06,0-.08.08,0,.09Z"/><path class="cls-8" d="M81.42,43.14A43.89,43.89,0,0,0,112,34.76c.08,0,0-.18-.07-.13A46.07,46.07,0,0,1,81.42,43c-.1,0-.1.14,0,.15Z"/><path class="cls-8" d="M84.14,30.28a27.34,27.34,0,0,0,17.2-3.75,0,0,0,0,0,0-.08A29.39,29.39,0,0,1,84.14,30.2c-.06,0,0,.08,0,.08Z"/><path class="cls-8" d="M80.7,34.67a35.66,35.66,0,0,0,25.48-3.29c.06,0,0-.12-.05-.09a37.14,37.14,0,0,1-25.39,3.27c-.08,0-.11.1,0,.11Z"/><path class="cls-8" d="M82.12,40.3a40.84,40.84,0,0,0,29-7.42c.07-.05,0-.17-.07-.12a42.23,42.23,0,0,1-28.89,7.41c-.09,0-.09.12,0,.13Z"/><path class="cls-8" d="M78.44,45.7a68.18,68.18,0,0,0,33.28-9.22c.06,0,0-.13-.06-.09a73.48,73.48,0,0,1-33.22,9.19c-.07,0-.07.12,0,.12Z"/><path class="cls-8" d="M84,30A26.52,26.52,0,0,0,78.88,50,0,0,0,0,0,79,50a27.42,27.42,0,0,1,5.1-19.91S84,30,84,30Z"/><path class="cls-8" d="M88.85,29.11A24.9,24.9,0,0,0,86.63,47a0,0,0,1,0,.08,0,25.43,25.43,0,0,1,2.23-17.81c0-.06,0-.11-.09-.05Z"/><path class="cls-8" d="M93.44,26.93a18.46,18.46,0,0,0-.78,14s.09,0,.08,0a18.82,18.82,0,0,1,.77-14s-.05-.09-.07,0Z"/><path class="cls-8" d="M96.33,28.11a16.6,16.6,0,0,1,2.92,17.42s0,.06.06,0A16.34,16.34,0,0,0,96.41,28c0-.05-.13,0-.08.08Z"/><path class="cls-8" d="M100.79,28.26c5.19,4.2,5.61,10.91,6,17.1a0,0,0,1,0,.06,0c-.15-6.22-.74-13-5.95-17.18-.06-.05-.14,0-.08.08Z"/><path class="cls-8" d="M106.2,29a15.17,15.17,0,0,1,4.92,16.77.06.06,0,0,0,.11,0c2.4-6,.09-13-5-16.9-.06,0-.13.06-.08.1Z"/><path class="cls-8" d="M93.8,30.65a10.28,10.28,0,0,1,2.41,10.28.05.05,0,0,0,.1,0,10,10,0,0,0-2.44-10.38s-.11,0-.07.07Z"/><path class="cls-8" d="M89.87,30.42a46,46,0,0,0-.12,15.84c0,.07.1,0,.09,0A51,51,0,0,1,90,30.44c0-.05-.08-.08-.08,0Z"/><path class="cls-8" d="M85.89,31.06a23.56,23.56,0,0,0-1.48,17.46.06.06,0,0,0,.11,0A24.74,24.74,0,0,1,86,31.11c0-.06-.07-.12-.1-.05Z"/><path class="cls-8" d="M93.43,34.79c.39,3.13.75,6.27,1.21,9.4,0,0,.09,0,.08,0-.34-3.14-.79-6.26-1.2-9.39,0,0-.09,0-.09,0Z"/><path class="cls-8" d="M100.69,31.45a25.94,25.94,0,0,1,2.63,12.25,0,0,0,0,0,.09,0,24.64,24.64,0,0,0-2.64-12.3c0-.06-.11,0-.08.05Z"/><path class="cls-8" d="M105.72,31.83a22.81,22.81,0,0,1,5,12.81c0,.07.12.08.12,0a21,21,0,0,0-5.07-12.89c0-.05-.12,0-.07.08Z"/><path class="cls-8" d="M86.67,27.74a20.26,20.26,0,0,0,14-1.42s0-.1-.05-.08A21.36,21.36,0,0,1,86.7,27.65c-.06,0-.09.08,0,.09Z"/><path class="cls-8" d="M89.88,26.51a9.45,9.45,0,0,0-4.12,7.13s.08,0,.09,0a9.6,9.6,0,0,1,4.07-7.06,0,0,0,1,0,0-.07Z"/><path class="cls-8" d="M95,25.74a8.3,8.3,0,0,1,6.56,4.5s.09,0,.07,0A8,8,0,0,0,95,25.65c-.06,0-.06.08,0,.09Z"/><path class="cls-8" d="M93.38,26a7,7,0,0,1,3.11,4.67s.07,0,.06,0a6.56,6.56,0,0,0-3.14-4.71,0,0,0,1,0,0,.06Z"/><path class="cls-8" d="M90.3,27.4a11.78,11.78,0,0,0-2.94,6.23s.06.06.07,0a12.23,12.23,0,0,1,2.92-6.2,0,0,0,0,0,0-.05Z"/><path class="cls-8" d="M79,58.64c1.17,4.32,0,9.07,1.89,13.22,1.42,3.09,4.46,4.81,7.79,3.58,8.16-3,6.66-15.3,3-21.08-.14-.22-.49,0-.35.21A18,18,0,0,1,94.22,65.5c-.28,4.12-2.16,9-6.7,9.88-9.06,1.75-6.84-11.8-8.41-16.77,0-.06-.13,0-.11,0Z"/><path class="cls-8" d="M103.53,52.44c-2,4.57-3.93,9.66-2.39,14.65,1.13,3.67,4.43,6.57,8.44,6.11,4.4-.5,5.73-5,6.39-8.77.86-4.91.58-10-2.12-14.33-.14-.23-.51,0-.36.22a18.39,18.39,0,0,1,2.4,11.6c-.37,4.12-1.45,10.61-6.65,10.93-5,.3-8-4.29-8.29-8.78-.27-4,1.32-7.87,2.74-11.56,0-.09-.12-.16-.16-.07Z"/><path class="cls-8" d="M91,85.22c1.54,1.68,4.73,2.07,6.43.39a.18.18,0,0,0-.22-.28c-2.06,1.13-4.09,1.25-6-.33a.16.16,0,0,0-.22.22Z"/><path class="cls-8" d="M96.7,86.17c1.89,1.65,5.65-.07,6.16-2.34a.18.18,0,0,0-.32-.13,4.66,4.66,0,0,1-2.5,2.4,5.61,5.61,0,0,1-3.27,0c-.06,0-.12.07-.07.12Z"/><path class="cls-8" d="M107.41,77.58c-.19.46-.35.93-.51,1.4a2.32,2.32,0,0,0-.26,1.14.1.1,0,0,0,.17,0,2.58,2.58,0,0,0,.45-1.09c.14-.48.27-1,.39-1.44a.12.12,0,0,0-.24-.06Z"/><path class="cls-8" d="M109.26,78.27c-.25.67-.51,1.34-.73,2a.21.21,0,0,0,.35.21,2.77,2.77,0,0,0,.38-.52.12.12,0,0,0-.16-.16,2.77,2.77,0,0,0-.52.38l.35.2c.21-.69.37-1.38.54-2.07a.11.11,0,0,0-.21-.06Z"/><path class="cls-8" d="M111.78,77.55c-.25.46-.5.93-.72,1.4a3,3,0,0,0-.43,1.18.11.11,0,0,0,.19.08,3.3,3.3,0,0,0,.66-1.24c.19-.43.36-.88.53-1.32,0-.14-.17-.23-.23-.1Z"/><path class="cls-8" d="M82.7,79.19a10.35,10.35,0,0,0-.35,1.56A3.53,3.53,0,0,0,82.23,82c0,.11.18.12.22,0a3.86,3.86,0,0,0,.31-1.39,9.64,9.64,0,0,0,.16-1.42.11.11,0,0,0-.22,0Z"/><path class="cls-8" d="M84.68,79.85c-.24.76-.54,1.52-.7,2.29a.2.2,0,0,0,.39.11c.29-.74.45-1.54.67-2.3a.19.19,0,0,0-.36-.1Z"/><path class="cls-8" d="M86.07,80.09c-.14.57-.28,1.14-.43,1.71a3.25,3.25,0,0,0-.21,1.34c0,.12.17.11.22,0a3.62,3.62,0,0,0,.41-1.38c.11-.54.22-1.08.34-1.61,0-.22-.28-.31-.33-.09Z"/><path class="cls-8" d="M84,91c-4.92,4-1.09,10.16,2.13,13.76a.21.21,0,0,0,.35-.2,10.46,10.46,0,0,1,4.15-10.94.21.21,0,0,0,.08-.28,5.08,5.08,0,0,0-6.93-2.41c-.24.12,0,.48.22.36,1.63-.8,4.83-.74,5.74,1.25.59,1.3-.61,1.64-1.45,2.64a10.89,10.89,0,0,0-2.47,5.88c-.08.75.06,1.49,0,2.22-.08,1,.49.68-.42,0a8.41,8.41,0,0,1-1.83-2.46c-1.82-3-2.38-7.12.66-9.61.16-.13-.07-.35-.23-.22Z"/><path class="cls-8" d="M108.51,91.51c3,3.1,1.09,7.47-.62,10.68-.08.15,0,.38.24.31A9,9,0,0,0,113.25,90a.19.19,0,0,0-.18-.1,5.6,5.6,0,0,0-4.38,2.5c-.16.22.21.43.36.21a5.06,5.06,0,0,1,2.66-2.06c1.73-.32,1.89,1.46,2,2.44a8.24,8.24,0,0,1-.77,4.91,8.57,8.57,0,0,1-2.61,3c-.17.13-1.09.92-1.41.76s.19-.86.47-1.49c1.35-3,1.8-6.33-.8-8.73a.07.07,0,1,0-.1.1Z"/><path class="cls-8" d="M89.2,97.46c-5.15,10.44-2.35,23.39,5.12,31.9.21.23.55-.11.35-.34a30.07,30.07,0,0,1-7-14.17c-1.15-6-.14-11.61,1.8-17.29,0-.14-.16-.23-.22-.1Z"/><path class="cls-8" d="M96.49,130.22l.75.63c.21.17.51-.12.3-.3l-.76-.62c-.2-.17-.5.12-.29.29Z"/><path class="cls-8" d="M96.58,130.44c2.84,2.71,6.33-.22,8.21-2.54.18-.22-.12-.54-.32-.32-1.8,2-4.87,5.13-7.59,2.55-.2-.19-.51.11-.3.31Z"/><path class="cls-8" d="M106.75,126.58c6.58-7.51,6.66-20.45,2.54-29-.13-.26-.5,0-.39.23a29.71,29.71,0,0,1,2.57,14.64c-.46,5.26-2.5,9.45-4.87,14.07,0,.09.08.19.15.11Z"/><path class="cls-8" d="M88.6,97.08c-10.93,15.61-9.38,37.49,2,52.37.17.23.56,0,.38-.23A45.86,45.86,0,0,1,81.64,124c-.48-9.63,2.35-18.55,7.15-26.8.07-.12-.11-.22-.19-.11Z"/><path class="cls-8" d="M91.54,150.4c5.95-3.92,9.63-11.75,8.34-18.85a.14.14,0,0,0-.27,0c.43,7.45-2.22,14-8.23,18.53-.17.12,0,.4.16.28Z"/><path class="cls-8" d="M99.84,131c-.28,7.76,6,15.28,13.42,17.09a.2.2,0,0,0,.11-.39,19.71,19.71,0,0,1-9.32-6.25c-2.48-3.12-3.4-6.62-4-10.48,0-.12-.2-.09-.2,0Z"/><path class="cls-8" d="M109.81,97.16c8,15.74,11.31,34.42,2.12,50.46-.13.22.21.41.34.2,9.22-15.57,6.54-35.65-2.13-50.86a.19.19,0,0,0-.33.2Z"/><path class="cls-8" d="M89.8,123.25a32.46,32.46,0,0,0,2.55,19c0,.08.15,0,.13-.05a41.3,41.3,0,0,1-2.55-18.9c0-.07-.12-.09-.13,0Z"/><path class="cls-8" d="M110.16,121A36.64,36.64,0,0,1,112,141.36a.06.06,0,0,0,.12,0,28.88,28.88,0,0,0-1.82-20.47c0-.08-.18,0-.14.06Z"/><path class="cls-8" d="M85.28,109a19.29,19.29,0,0,0-1.43,9.1c0,.06.08.06.09,0a26.32,26.32,0,0,1,1.53-9c0-.12-.14-.16-.19,0Z"/><path class="cls-8" d="M86.18,118.23a31.73,31.73,0,0,0,1.44,17.6c0,.09.18,0,.15,0a33.86,33.86,0,0,1-1.47-17.53.06.06,0,0,0-.12,0Z"/><path class="cls-8" d="M112.85,118.76a14.2,14.2,0,0,1,.7,4.53s.07,0,.07,0a10.05,10.05,0,0,0-.64-4.57c0-.08-.16,0-.13,0Z"/><path class="cls-8" d="M113.23,112.16a37.74,37.74,0,0,1,2.45,18.42c0,.08.12.1.14,0a31.27,31.27,0,0,0-2.44-18.51c0-.08-.19,0-.15.07Z"/><path class="cls-8" d="M109,128.19a31.26,31.26,0,0,1-.62,11.44c0,.05.06.07.07,0a25.37,25.37,0,0,0,.66-11.49c0-.07-.12,0-.11,0Z"/><path class="cls-8" d="M102.32,131.61a28.17,28.17,0,0,0,3.69,9.3.07.07,0,0,0,.12-.07,35.19,35.19,0,0,1-3.68-9.27c0-.09-.15,0-.13,0Z"/><path class="cls-8" d="M93.29,131a22,22,0,0,0,.55,7.8c0,.05.09,0,.08,0a26.07,26.07,0,0,1-.51-7.78c0-.07-.11-.07-.12,0Z"/><path class="cls-8" d="M97.17,137.24A13.11,13.11,0,0,1,92,144.67c-.1.07,0,.23.1.16a13,13,0,0,0,5.25-7.55c0-.09-.12-.13-.14,0Z"/><path class="cls-8" d="M89.55,105.32c-1,2.13-.73,4.91-.19,7.13a.2.2,0,0,0,.39,0,60.15,60.15,0,0,1,1.36-6.8c0-.14-.18-.26-.26-.11a19.9,19.9,0,0,0-1.49,6.91l.38-.06a14.12,14.12,0,0,1-.43-3.72c0-1.11.31-2.17.38-3.26,0-.07-.11-.11-.14,0Z"/><path class="cls-8" d="M104.94,104.76a9.76,9.76,0,0,1,1.19,6,.21.21,0,0,0,.38.16,9.68,9.68,0,0,0,1.1-7.17c-.06-.26-.44-.14-.39.11a9.63,9.63,0,0,1-1.07,6.85l.38.16a8.08,8.08,0,0,0-1.38-6.26c-.1-.13-.28,0-.21.17Z"/><path class="cls-8" d="M90.66,115.87a11.34,11.34,0,0,0,.89,5.69c.08.19.4.19.39,0A11.51,11.51,0,0,1,93,116.34c.09-.22-.2-.41-.33-.2a10,10,0,0,0-1.13,5.37l.38-.06a17.09,17.09,0,0,1-1.1-5.58.09.09,0,0,0-.17,0Z"/><path class="cls-8" d="M105.74,114.89a13.45,13.45,0,0,1-.17,6.18.18.18,0,0,0,.33.14,12.08,12.08,0,0,0,1.87-5.46c0-.17-.28-.22-.32,0a16.48,16.48,0,0,1-1.86,5.31l.33.14a10.49,10.49,0,0,0,0-6.32.08.08,0,0,0-.16,0Z"/><path class="cls-8" d="M94.49,125.05a12.9,12.9,0,0,0,2.16,8.59.17.17,0,0,0,.31-.13,19.43,19.43,0,0,1-.17-7.82c0-.18-.24-.26-.28-.08a16.39,16.39,0,0,0-.41,3.7c0,.18.05,3.62.39,3.69s-.31-.79-.41-1a14.52,14.52,0,0,1-1-2.57,16.69,16.69,0,0,1-.49-4.4c0-.07-.1-.07-.11,0Z"/><path class="cls-8" d="M104.8,124.67a17.31,17.31,0,0,1,0,7.48.13.13,0,0,0,.23.09,14.76,14.76,0,0,0,1.54-8.08.17.17,0,1,0-.34,0,12.61,12.61,0,0,1-.2,4.58,13.11,13.11,0,0,1-.55,1.85c-.14.36-.58,1.81-.18.43a12,12,0,0,0-.32-6.43c0-.09-.14,0-.13,0Z"/><path class="cls-8" d="M87.05,106.33a6,6,0,0,0,1.92.29.14.14,0,0,0,0-.28,6,6,0,0,0-1.93-.25.12.12,0,0,0,0,.24Z"/><path class="cls-8" d="M94.36,106.6a23,23,0,0,0,10.87-.87.09.09,0,0,0,0-.18,62.16,62.16,0,0,1-10.8.91c-.08,0-.11.13,0,.14Z"/><path class="cls-8" d="M107.48,104.78a26.74,26.74,0,0,0,4-1.74.08.08,0,0,0-.06-.14,26.77,26.77,0,0,0-4,1.77c-.06,0,0,.14,0,.11Z"/><path class="cls-8" d="M87.07,111.64a38.16,38.16,0,0,0,18.41-.88.1.1,0,0,0-.06-.2,54.84,54.84,0,0,1-18.33,1c-.07,0-.09.1,0,.12Z"/><path class="cls-8" d="M107.48,110.22a39.63,39.63,0,0,0,4.9-1.63c.07,0,.05-.13,0-.11a37.07,37.07,0,0,0-4.91,1.61.07.07,0,0,0,0,.13Z"/><path class="cls-8" d="M88.58,119.17a17.16,17.16,0,0,0,1.9.34.1.1,0,0,0,0-.2c-.62-.12-1.26-.21-1.9-.27a.07.07,0,0,0,0,.13Z"/><path class="cls-8" d="M92.11,119.72a47.12,47.12,0,0,0,13.74-1.43.14.14,0,0,0-.07-.27,59.89,59.89,0,0,1-13.67,1.54.08.08,0,0,0,0,.16Z"/><path class="cls-8" d="M107.35,118.14a14.12,14.12,0,0,0,1.83-.5,8.73,8.73,0,0,0,1.59-.53c.07,0,0-.19,0-.18a8.71,8.71,0,0,0-1.73.48,14.81,14.81,0,0,0-1.7.58c-.08,0,0,.16.06.15Z"/><path class="cls-8" d="M91.45,125.68c1,.29,2.08.55,3.14.78.15,0,.22-.2.06-.24-1-.28-2.09-.52-3.15-.73a.1.1,0,0,0,0,.19Z"/><path class="cls-8" d="M96.26,126.61a26,26,0,0,0,8.61-1.33c.15,0,.09-.28-.06-.24a60.33,60.33,0,0,1-8.55,1.44c-.08,0-.09.13,0,.13Z"/><path class="cls-8" d="M106,124.85c.5-.25,1-.46,1.52-.74.11-.06,0-.22-.1-.17-.52.22-1,.51-1.5.77-.09.05,0,.18.08.14Z"/><polygon class="cls-8" points="97.52 128.57 97.52 128.56 97.52 128.57 97.52 128.57"/><path class="cls-8" d="M97.14,128.58a0,0,0,1,0,0,0,0,0,0,1,0,0,0Z"/><path class="cls-8" d="M96.15,128.51a10,10,0,0,0,7.58-.73c.06,0,0-.13,0-.11a16.06,16.06,0,0,1-7.53.8s0,0,0,0Z"/><path class="cls-8" d="M97,129.61a8.54,8.54,0,0,0,5.58-.34,0,0,0,0,0,0-.09c-.93.11-1.81.37-2.75.43a17.32,17.32,0,0,1-2.79-.12.06.06,0,0,0,0,.12Z"/><path class="cls-8" d="M97.4,130.67a22.83,22.83,0,0,0,3.79-.1c.1,0,.06-.16,0-.17a20.57,20.57,0,0,0-3.76.14.07.07,0,1,0,0,.13Z"/><path class="cls-8" d="M93.12,102.79a18.8,18.8,0,0,0,10.56-1.08s0-.07,0-.06a24.61,24.61,0,0,1-10.54,1,0,0,0,0,0,0,.09Z"/><path class="cls-8" d="M94.86,110.14a14.81,14.81,0,0,0,8-.55c.1,0,.06-.19,0-.16a23.17,23.17,0,0,1-7.91.56c-.09,0-.1.14,0,.15Z"/><path class="cls-8" d="M94.86,116.17a15.08,15.08,0,0,0,9-.38c.14-.05.09-.27-.06-.23a21.35,21.35,0,0,1-8.89.49c-.08,0-.11.1,0,.12Z"/><path class="cls-8" d="M96.62,122.71a12.44,12.44,0,0,0,7.09-.55.11.11,0,0,0-.06-.22,37.5,37.5,0,0,1-7,.6.09.09,0,0,0,0,.17Z"/><path class="cls-8" d="M109.56,99.21A12.81,12.81,0,0,0,108,100c-.09,0,0,.18.08.14a11.85,11.85,0,0,0,1.51-.76c.07,0,0-.17-.06-.14Z"/><path class="cls-8" d="M110.06,100.1a5.94,5.94,0,0,0-1.53.6.09.09,0,0,0,.06.16,5.84,5.84,0,0,0,1.5-.69,0,0,0,0,0,0-.07Z"/><path class="cls-8" d="M110.32,101.24a11.9,11.9,0,0,0-2,.62c-.08,0,0,.15,0,.14a11.78,11.78,0,0,0,2-.65.06.06,0,0,0,0-.11Z"/><path class="cls-8" d="M110.55,102.52a3.83,3.83,0,0,1-1.87.71c-.09,0-.06.15,0,.15a2.86,2.86,0,0,0,1.94-.77c.06-.06,0-.14-.09-.09Z"/><path class="cls-8" d="M111.07,104a13.69,13.69,0,0,0-2.15.75c-.07,0,0,.13,0,.12a13.5,13.5,0,0,0,2.13-.76.06.06,0,0,0,0-.11Z"/><path class="cls-8" d="M111.3,105.12a13,13,0,0,0-2,1s0,.12,0,.1a12.75,12.75,0,0,0,2-1,.09.09,0,0,0-.08-.15Z"/><path class="cls-8" d="M111.31,106a20.07,20.07,0,0,0-1.89,1.13.08.08,0,0,0,.08.14,18.14,18.14,0,0,0,1.89-1.13.08.08,0,0,0-.08-.14Z"/><path class="cls-8" d="M111.3,107.26a16.35,16.35,0,0,0-2,1c-.07,0,0,.18.06.15a14.21,14.21,0,0,0,2-1c.09-.05,0-.18-.08-.14Z"/><path class="cls-8" d="M111.57,110.76a16,16,0,0,0-2,.63c-.11,0,0,.2.08.18a16,16,0,0,0,2-.64c.11,0,.07-.2,0-.17Z"/><path class="cls-8" d="M111.55,112.17a4.33,4.33,0,0,1-2,.5.06.06,0,1,0,0,.12,3.31,3.31,0,0,0,2-.5c.08,0,0-.17-.08-.12Z"/><path class="cls-8" d="M111.3,113.29a5,5,0,0,1-1.61.37c-.09,0-.07.13,0,.15a2.15,2.15,0,0,0,1.69-.38.08.08,0,0,0-.08-.14Z"/><path class="cls-8" d="M110.55,114.68c-.38.17-.76.33-1.12.52-.05,0,0,.12,0,.1.39-.14.77-.32,1.15-.49.09,0,0-.17-.07-.13Z"/><path class="cls-8" d="M121,79c.29.57.7,1,1,1.64a10.07,10.07,0,0,1,.59,2,.18.18,0,0,0,.35,0,5.31,5.31,0,0,0-1.78-3.74c-.09-.06-.17,0-.13.13Z"/><path class="cls-8" d="M121.28,79.11a.9.9,0,0,1,1.39-.21.88.88,0,0,1-.33,1.42l.13.23a1.24,1.24,0,0,1,1.94.18c.51,1-.72,1.8-1.56,1.46-.17-.08-.3.23-.13.31,1,.42,2.39-.53,2-1.68a1.49,1.49,0,0,0-2.48-.46.13.13,0,0,0,.16.21,1.19,1.19,0,0,0,.48-1.81,1.18,1.18,0,0,0-1.84.23.12.12,0,0,0,.2.12Z"/><path class="cls-8" d="M124.74,78.38c.79-.15,1.59-.28,2.38-.44l-.15-.26c-.74.93-1.71,2.35-.79,3.5.56.71,2,.67,2.13-.37a.15.15,0,0,0-.28-.08c-.47,1-1.65.62-1.85-.36a3.21,3.21,0,0,1,1-2.47.16.16,0,0,0-.15-.27c-.79.18-1.56.4-2.35.59-.1,0-.06.18,0,.16Z"/><path class="cls-8" d="M127.72,77.7l2.29-.62-.17-.17A14.27,14.27,0,0,1,128,80.68a.16.16,0,0,0,.18.23l2.72-.91c.22-.08.12-.43-.1-.35l-2.7.95.18.24A13.47,13.47,0,0,0,130.1,77a.14.14,0,0,0-.17-.17l-2.26.71a.09.09,0,1,0,0,.18Z"/><path class="cls-8" d="M130.25,76.77a6.39,6.39,0,0,1,2.95-.58l-.12-.22-1.82,3.61c0,.11,0,.28.18.23a20.39,20.39,0,0,0,2.95-1.18.12.12,0,0,0-.09-.22,20.19,20.19,0,0,0-3,1.1l.18.23c.59-1.21,1.2-2.42,1.8-3.62a.15.15,0,0,0-.13-.22,6.5,6.5,0,0,0-3,.72c-.1,0,0,.19.08.15Z"/><path class="cls-8" d="M134.78,75.07c1.18-.31,2.37-.62,3.55-.95l-.21-.2a6.77,6.77,0,0,1-2.24,3.76.18.18,0,0,0,.17.3,16.86,16.86,0,0,0,3.14-1c.1-.06.06-.24-.06-.23a16.76,16.76,0,0,0-3.17.88l.17.3A7.15,7.15,0,0,0,138.44,74a.16.16,0,0,0-.2-.2c-1.18.33-2.34.7-3.51,1-.14,0-.08.25.05.21Z"/><path class="cls-8" d="M139.55,72.87c.56.71,1.35.16,2.07.23,1.19.11,0,1.5-.32,1.92l-1.17,1.72c-.12.17.11.33.26.26a12.73,12.73,0,0,1,3.37-.85c.18,0,.11-.27,0-.29a6.59,6.59,0,0,0-3.52.81l.26.26L142,74.71c.28-.41.78-.95.55-1.49-.49-1.11-2.11.18-2.77-.53-.11-.12-.27.06-.18.18Z"/><path class="cls-8" d="M144.35,68.68a10.34,10.34,0,0,0,.29,2.7,13.05,13.05,0,0,0,.59,3.06.14.14,0,0,0,.27,0,12.57,12.57,0,0,0-.38-2.92,11.4,11.4,0,0,0-.61-2.85c0-.08-.16,0-.16.05Z"/><path class="cls-8" d="M146.47,77.07a.89.89,0,0,0-.33,1.61c.83.42,1.53-.82,1-1.44a.2.2,0,0,0-.31,0l-.37.52a.21.21,0,0,0,.12.3.86.86,0,0,0,.91-1.29.18.18,0,0,0-.25-.06.94.94,0,0,0-.32,1.39c.06.08.22,0,.21-.09a1,1,0,0,1,.3-1l-.26-.07a.49.49,0,0,1-.48.71l.12.3.36-.53-.31,0c.37.41-.31,1.19-.68.69a.57.57,0,0,1,.36-.88c.15,0,.11-.28,0-.26Z"/><path class="cls-8" d="M78,58.83a116.36,116.36,0,0,0,.61,18.66c.5,5.8,1,11.93,2.42,17.58,0,.13.26.11.25,0-.58-6-1.75-12-2.26-18s-.45-12.11-.84-18.17a.09.09,0,0,0-.18,0Z"/><path class="cls-8" d="M79.28,54.36c-2.84-6.1-3.5-12.79-.63-19a19.81,19.81,0,0,1,14.53-11.1c14.09-2.64,25.76,9.82,23.75,23.65,0,.17.22.24.26.07C120,34.06,107.6,21.48,93.76,23.65A20.34,20.34,0,0,0,78.28,35.11c-2.72,6-2.83,13.74.87,19.32a.07.07,0,0,0,.13-.07Z"/><path class="cls-8" d="M79.87,54.35c-4.26,1.1-8.42,2.77-12.58,4.2-2.13.72-5.78,1.22-5.54,4.14,0,.31.5.31.47,0-.23-3,7.48-4.46,9.68-5.21,2.7-.92,5.46-1.75,8.08-2.87.15-.07,0-.3-.11-.26Z"/><path class="cls-8" d="M115.81,47.9c4-.5,8.08-1.36,12.1-2.08,4.58-.82,9.85-2.57,14.45-1.41a.22.22,0,0,0,.12-.43c-4-1-8.31.27-12.28,1-4.81.86-9.68,1.54-14.43,2.66-.16,0-.13.31,0,.29Z"/><path class="cls-8" d="M81.71,57.88c-.57,3-1.15,6-1.53,9,0,.08.11.09.13,0,.64-2.94,1.1-6,1.55-8.94,0-.1-.13-.14-.15,0Z"/><path class="cls-8" d="M84.32,57.66c-1.15,4.66-2.31,9.31-3.45,14a.12.12,0,0,0,.23.06c1.13-4.66,2.23-9.33,3.34-14,0-.08-.1-.12-.12,0Z"/><path class="cls-8" d="M86.55,57.87c-1.45,5.11-3.08,10.2-4.3,15.36a.08.08,0,0,0,.16,0c1.63-5,2.87-10.25,4.28-15.37,0-.09-.12-.13-.14,0Z"/><path class="cls-8" d="M89.25,57.4c-1.68,5.32-3.67,10.63-5,16.05,0,.1.12.14.16,0,2-5.21,3.37-10.71,5-16,0-.12-.14-.16-.17-.05Z"/><path class="cls-8" d="M91.57,58.4c-1.65,5.29-3.41,10.59-4.82,16,0,.14.18.2.23.06,1.78-5.26,3.22-10.65,4.76-16,0-.11-.14-.15-.17,0Z"/><path class="cls-8" d="M93,61.33a49.55,49.55,0,0,1-3.69,12.56c0,.12.12.23.18.11A41.86,41.86,0,0,0,93.2,61.37c0-.1-.14-.14-.16,0Z"/><path class="cls-8" d="M105.5,52.36c-1.15,4-2.3,7.94-3.42,11.92,0,.13.17.19.21,0,1.14-4,2.23-7.95,3.33-11.94a.06.06,0,0,0-.12,0Z"/><path class="cls-8" d="M107.91,51.94q-2.91,8.14-5.76,16.31c-.05.14.15.2.23.09.2-.27.38-.55.56-.84,0-.08-.07-.17-.13-.1-.9,1.08.36-1.32.53-1.81l1.59-4.53L108.07,52c0-.1-.13-.14-.16,0Z"/><path class="cls-8" d="M109.75,54.46c-1.9,5.42-3.81,10.83-5.69,16.25a.15.15,0,0,0,.22.17l.35-.22a.12.12,0,0,0-.12-.2c.49-.21,1-3.12,1.26-3.73l1.42-4.06L110,54.54c.06-.18-.22-.25-.28-.08Z"/><path class="cls-8" d="M112.78,51.27c-1.87,6.37-3.85,12.74-5.47,19.18a.13.13,0,0,0,.24.07c2-6.34,3.63-12.81,5.37-19.22a.07.07,0,0,0-.14,0Z"/><path class="cls-8" d="M114.06,54.73c-1.35,5.53-2.69,11.1-3.77,16.69,0,.16.2.23.24.07,1.39-5.53,2.53-11.14,3.65-16.73a.06.06,0,1,0-.12,0Z"/><path class="cls-8" d="M115,58.14a52.27,52.27,0,0,1-2.1,9.92c0,.09.12.15.16.06a25.85,25.85,0,0,0,2.08-10c0-.08-.13-.08-.14,0Z"/><path class="cls-8" d="M88.26,56.81c-.67-.65-.1-.11.25.15l1.77,1.26c1.18.83,2.34,1.72,3.56,2.48.1.06.22-.09.13-.16a50.54,50.54,0,0,0-6.35-4.44c-.06,0-.14,0-.08.1a3.18,3.18,0,0,1,.7.62,0,0,0,1,0,0,0Z"/><path class="cls-8" d="M85,57.58c3.46,2.15,6.92,4.31,10.46,6.32a.11.11,0,0,0,.11-.18c-3.45-2.17-7-4.2-10.51-6.24-.06,0-.12.06-.06.1Z"/><path class="cls-8" d="M82.31,58.66A121.8,121.8,0,0,1,93,67.91a.09.09,0,0,0,.12-.13,62.61,62.61,0,0,0-10.7-9.26c-.09-.06-.16.08-.08.14Z"/><path class="cls-8" d="M80.4,59.39c2.14,2.2,4.34,4.34,6.53,6.49L90,68.93l1.38,1.35c-.11-.1,1.94,1.74,1.23,1.74-.11,0-.14.17,0,.19l1,.14c.16,0,.3-.15.17-.28C89.4,67.75,85,63.46,80.49,59.3a.06.06,0,1,0-.09.09Z"/><path class="cls-8" d="M80.52,63.63a39.79,39.79,0,0,1,9.85,8.9c.11.15.31,0,.2-.2a37.8,37.8,0,0,0-10-8.86c-.1-.06-.19.1-.09.16Z"/><path class="cls-8" d="M80.19,67.68a52,52,0,0,1,9,7c.12.12.31-.07.19-.19a41,41,0,0,0-9.1-6.93c-.08,0-.16.08-.08.13Z"/><path class="cls-8" d="M109.14,54.49s0,0,0,0,0,0,0,0Z"/><path class="cls-8" d="M103.12,54.61A78.15,78.15,0,0,1,116.55,62c.2.15.39-.18.19-.33a50.4,50.4,0,0,0-13.57-7.2c-.07,0-.11.08,0,.1Z"/><path class="cls-8" d="M102.85,57.53a58.3,58.3,0,0,1,12.93,6.81c.14.1.26-.12.13-.21a47.51,47.51,0,0,0-13-6.71.06.06,0,0,0,0,.11Z"/><path class="cls-8" d="M101,60c2.33,1.24,4.68,2.43,7,3.62s5,2.06,6.2,4.38a.11.11,0,0,0,.2-.09c-.62-1.9-2.49-2.67-4.16-3.51-3.05-1.53-6.11-3.06-9.2-4.53-.08,0-.16.09-.07.13Z"/><path class="cls-8" d="M102.19,63.89a38.81,38.81,0,0,1,11.08,6.19c.11.09.25-.09.15-.19a27,27,0,0,0-11.19-6.14.07.07,0,0,0,0,.14Z"/><path class="cls-8" d="M102.63,66.61a83.12,83.12,0,0,0,7.9,3.2.1.1,0,0,0,.07-.18,82.08,82.08,0,0,0-7.92-3.15c-.07,0-.13.1-.05.13Z"/><path class="cls-8" d="M105.67,53.2a44.59,44.59,0,0,1,8,4.57c.12.08.25-.1.15-.19a26.39,26.39,0,0,0-8.11-4.52c-.09,0-.13.11,0,.14Z"/></svg>