<svg id="carracters" xmlns="http://www.w3.org/2000/svg" viewBox="0 0 198.43 35.43"><defs><style>.cls-1{fill:#fff;}.cls-2{fill:#6e6e6e;opacity:0.5;}</style></defs><path d="M142.86,3.08c0,.61.06,1.22.1,1.82s.11,1.48.17,2.28l.75-.81.19.14-1,1.14L141.87,6.6l.15-.19.79.7h.07l-.29-4Z"/><path d="M91.67,13.91l3-.34,1-.13-.72-.6c-.13-.11-.13-.12,0-.28l1.16.95-1,1.22-.19-.15.73-.89c-.61.07-1.15.14-1.7.19l-2.41.25Z"/><path d="M165.15,17.76l-.3-1.81,5.5-.93V8.1l2.65.24a.48.48,0,0,1-.43.48.25.25,0,0,0-.23.29c0,.55,0,1.09,0,1.64,0,1.26,0,2.51,0,3.77a.93.93,0,0,0,0,.14l8.69-1.45c-.11-2.35-.22-4.69-.34-7.08l2.55.13c0,.29,0,.31-.54.55q.12,3,.24,6.07l5.75-.91.16,1.88-5.9.82V15c0,1.47,0,2.93-.12,4.39a4.78,4.78,0,0,1-.66,2.52,2.78,2.78,0,0,1-2.27,1.29A8.65,8.65,0,0,1,175.52,22l.31-1.59.59.27a7.67,7.67,0,0,0,2.81.75,1.3,1.3,0,0,0,1.53-1.08,10.42,10.42,0,0,0,.31-2.15c.05-1.05,0-2.11,0-3.23l-8.73,1.47c0,.74,0,1.45,0,2.15,0,1.47.09,3,.18,4.41a8.8,8.8,0,0,0,.3,1.69,3.13,3.13,0,0,0,2.63,2.39,15.06,15.06,0,0,0,3.35.21c1.78-.05,3.55-.13,5.32-.22.55,0,1.09-.11,1.68-.17v1.84c-.28,0-.6.09-.93.1-1.78.07-3.55.15-5.33.18-1.12,0-2.24,0-3.36-.07a6.23,6.23,0,0,1-3.48-1.12,4.77,4.77,0,0,1-1.79-3,14.78,14.78,0,0,1-.33-2.48c-.09-1.82-.13-3.65-.19-5.48a1,1,0,0,0,0-.12Z"/><path class="cls-1" d="M12.63,17.76,12.33,16l5.5-.93V8.1l2.65.24a.47.47,0,0,1-.43.48.25.25,0,0,0-.23.29c0,.55,0,1.09,0,1.64,0,1.26,0,2.51,0,3.77a.93.93,0,0,0,0,.14l8.7-1.45c-.12-2.35-.23-4.69-.34-7.08l2.54.13c0,.29,0,.31-.54.55q.12,3,.24,6.07L36.2,12l.16,1.88-5.9.82a3,3,0,0,1,0,.3c0,1.47,0,2.93-.12,4.39a4.86,4.86,0,0,1-.65,2.52,2.8,2.8,0,0,1-2.28,1.29A8.65,8.65,0,0,1,23,22l.32-1.59.58.27a7.67,7.67,0,0,0,2.81.75,1.29,1.29,0,0,0,1.53-1.08,10.42,10.42,0,0,0,.31-2.15c.06-1.05,0-2.11,0-3.23l-8.73,1.47c0,.74,0,1.45,0,2.15,0,1.47.08,3,.17,4.41a8.8,8.8,0,0,0,.3,1.69A3.13,3.13,0,0,0,23,27.07a15.06,15.06,0,0,0,3.35.21c1.78-.05,3.55-.13,5.33-.22.54,0,1.08-.11,1.67-.17v1.84c-.28,0-.6.09-.93.1C30.6,28.9,28.82,29,27,29c-1.11,0-2.24,0-3.36-.07a6.23,6.23,0,0,1-3.48-1.12,4.77,4.77,0,0,1-1.79-3,17.18,17.18,0,0,1-.33-2.48c-.09-1.82-.13-3.65-.19-5.48a1,1,0,0,0,0-.12Z"/><path class="cls-2" d="M128.82,17.76l-.3-1.81L134,15V8.1l2.65.24a.47.47,0,0,1-.43.48c-.19,0-.22.13-.23.29,0,.55,0,1.09,0,1.64,0,1.26,0,2.51,0,3.77a.93.93,0,0,0,0,.14l8.69-1.45c-.11-2.35-.23-4.69-.34-7.08l2.55.13c0,.29,0,.31-.54.55.08,2,.15,4,.23,6.07l5.76-.91.16,1.88-5.9.82V15c0,1.47-.05,2.93-.13,4.39a4.77,4.77,0,0,1-.65,2.52,2.8,2.8,0,0,1-2.28,1.29A8.65,8.65,0,0,1,139.18,22l.32-1.59.58.27a7.67,7.67,0,0,0,2.82.75,1.3,1.3,0,0,0,1.53-1.08,12,12,0,0,0,.31-2.15c0-1.05,0-2.11,0-3.23L136,16.43c0,.74,0,1.45,0,2.15,0,1.47.08,3,.17,4.41a8.82,8.82,0,0,0,.31,1.69,3.11,3.11,0,0,0,2.62,2.39,15.11,15.11,0,0,0,3.36.21c1.77-.05,3.55-.13,5.32-.22.54,0,1.09-.11,1.68-.17v1.84c-.28,0-.61.09-.94.1-1.77.07-3.55.15-5.32.18-1.12,0-2.25,0-3.36-.07a6.27,6.27,0,0,1-3.49-1.12,4.77,4.77,0,0,1-1.79-3,15.88,15.88,0,0,1-.32-2.48c-.1-1.82-.14-3.65-.2-5.48a1,1,0,0,0,0-.12Z"/><path class="cls-2" d="M92,17.76,91.68,16l5.5-.93V8.1l2.65.24a.48.48,0,0,1-.43.48.25.25,0,0,0-.23.29c0,.55,0,1.09,0,1.64,0,1.26,0,2.51,0,3.77a.93.93,0,0,0,0,.14l8.69-1.45c-.11-2.35-.22-4.69-.34-7.08l2.55.13c0,.29,0,.31-.54.55q.12,3,.24,6.07l5.75-.91.16,1.88-5.9.82V15c0,1.47,0,2.93-.12,4.39a4.87,4.87,0,0,1-.66,2.52,2.79,2.79,0,0,1-2.27,1.29A8.63,8.63,0,0,1,102.35,22l.31-1.59.59.27a7.67,7.67,0,0,0,2.81.75,1.3,1.3,0,0,0,1.53-1.08,10.42,10.42,0,0,0,.31-2.15c0-1.05,0-2.11,0-3.23l-8.73,1.47c0,.74,0,1.45,0,2.15,0,1.47.09,3,.18,4.41a8.1,8.1,0,0,0,.3,1.69,3.13,3.13,0,0,0,2.63,2.39,15.06,15.06,0,0,0,3.35.21c1.78-.05,3.55-.13,5.32-.22.55,0,1.09-.11,1.68-.17v1.84c-.28,0-.6.09-.93.1-1.78.07-3.55.15-5.33.18-1.12,0-2.24,0-3.36-.07a6.23,6.23,0,0,1-3.48-1.12,4.79,4.79,0,0,1-1.8-3,15.88,15.88,0,0,1-.32-2.48c-.1-1.82-.13-3.65-.19-5.48a1,1,0,0,0,0-.12Z"/><path d="M146.64,12.88l5.74-.91.17,1.91-1.62.19-4.12.59c-.2,0-.17.16-.17.28,0,1,0,2,0,2.93a20.39,20.39,0,0,1-.26,2.7,3,3,0,0,1-3.5,2.6,9.85,9.85,0,0,1-3.47-1.06c-.17-.08-.21-.16-.16-.35.11-.44.18-.89.28-1.36l.48.22a7.78,7.78,0,0,0,3,.8,1.26,1.26,0,0,0,1.42-1,9.43,9.43,0,0,0,.34-2c.05-1.12,0-2.24,0-3.36,0,0,0-.07,0-.16l-15.91,2.8-.29-1.81,2.43-.4,5.3-.89,5.91-1,2.33-.39c.18,0,.22-.11.21-.29-.11-2.18-.22-4.35-.32-6.53,0-.09,0-.18,0-.31l2.57.13c0,.41-.33.42-.55.55Z"/><path d="M168.55,7l.3,4.1.74-.82.19.15-1,1.14-1.17-1.05c.08-.17.16-.2.29-.08s.45.41.72.65c0-.46,0-.86-.08-1.26-.07-.86-.13-1.73-.19-2.6C168.32,7.1,168.3,7,168.55,7Z"/><path d="M91.67,16l1.83-.32,5.67-.94,5.65-.94,6-1,4.7-.78.08,0,.16,1.82L92,17.74c-.06-.4-.13-.81-.2-1.21,0-.15-.07-.31-.11-.46Z"/></svg>