<svg id="illustration" xmlns="http://www.w3.org/2000/svg" viewBox="0 0 198.43 141.01"><defs><style>.cls-1{fill:#bf9d2f;}.cls-2{fill:#87752d;}.cls-3{fill:#b4884e;}.cls-4{fill:#f5f6cf;}.cls-5{fill:#fcb01a;}.cls-6{fill:#fff3df;}.cls-7{fill:#fee7d9;}.cls-8{fill:#aa823a;}.cls-9{fill:#fff;}.cls-10{fill:#1b1e28;}.cls-11{fill:#bcbdc4;}.cls-12{fill:#695b4d;}.cls-13{fill:#c9a477;}.cls-14{fill:#c777ad;}.cls-15{fill:#3d393c;}.cls-16{fill:#9b9499;}.cls-17{fill:#010101;}</style></defs><path class="cls-1" d="M81.06,15.6A20.34,20.34,0,0,0,83.65,14c.73-.5,1.75-.94,2.16-1.74A.75.75,0,0,0,85,11.16c-.87.19-1.58,1.07-2.24,1.63a20.06,20.06,0,0,0-2.23,2.09.46.46,0,0,0,.56.72Z"/><path class="cls-1" d="M75,19c3.22-1.88,5.85-4.62,9.09-6.45,6.2-3.5,11.12-.13,15.62,4.18.93.89,2.35-.53,1.41-1.42C97.69,12.05,93.82,8.58,88.75,9c-5.92.43-10,5.51-14.77,8.33A1,1,0,0,0,75,19Z"/><path class="cls-1" d="M74.79,19.11A140.92,140.92,0,0,1,100,17.32a1,1,0,0,0,0-2,143.2,143.2,0,0,0-25.75,1.86c-1.26.21-.73,2.13.54,1.93Z"/><path class="cls-1" d="M99.8,15.62c-7.12-1.64-15.39-.3-22.51.91-1.16.2-.66,1.94.49,1.76,7.31-1.15,14.77-.81,22-2,.34-.06.31-.59,0-.67Z"/><path class="cls-1" d="M76.8,17.44a49.59,49.59,0,0,1,20.62-1.61c1.3.18,1.9-1.78.56-2A34.22,34.22,0,0,0,76.5,16.73a.39.39,0,0,0,.3.71Z"/><path class="cls-1" d="M98.13,15.31a25.64,25.64,0,0,0-8-.86c-2.42,0-5-.19-7.2.83a.89.89,0,0,0,.2,1.6c2.42.6,5.09,0,7.57-.17A42.15,42.15,0,0,0,98.13,16a.35.35,0,0,0,0-.66Z"/><path class="cls-1" d="M82,15c2.56-.11,5.07-.56,7.64-.54,2.29,0,4.73.69,7,.15a1,1,0,0,0,.23-1.74c-3.84-2.29-11.36-.67-15,1.38A.4.4,0,0,0,82,15Z"/><path class="cls-1" d="M94.17,12.61a12.55,12.55,0,0,0-8.87-1,1.23,1.23,0,0,0-.87.87c-.37,1.45,1.09,1.6,2.16,1.38A41.85,41.85,0,0,1,94,13.2a.32.32,0,0,0,.16-.59Z"/><path class="cls-1" d="M86.63,12.23a7.46,7.46,0,0,0,2.67.14c1,0,2,.17,3.07.22a1.17,1.17,0,0,0,.31-2.28c-1.75-.44-5.19-.31-6.24,1.47a.32.32,0,0,0,.19.45Z"/><path class="cls-1" d="M87,10.45a1.85,1.85,0,0,0-1.66.79c-.1.19,0,.52.23.55a1.81,1.81,0,0,0,1.7-.87.32.32,0,0,0-.27-.47Z"/><path class="cls-1" d="M95.37,15.7a.43.43,0,0,0,0-.86.43.43,0,0,0,0,.86Z"/><path class="cls-2" d="M75.34,19.09A12.08,12.08,0,0,0,79.13,19,30.87,30.87,0,0,0,83,18.55a.38.38,0,0,0-.1-.74,31.54,31.54,0,0,0-4.33.4,10.47,10.47,0,0,0-3.25.62c-.11.05-.07.23,0,.26Z"/><path class="cls-2" d="M76.65,19.46c1.73.35,4.3.49,5.87-.44a.3.3,0,0,0-.15-.55,16.93,16.93,0,0,0-2.81.38c-1,.11-1.9.14-2.85.21-.22,0-.3.35-.06.4Z"/><path class="cls-2" d="M74.84,18.84a1.18,1.18,0,0,0,1.24.28.17.17,0,0,0,0-.3,1.15,1.15,0,0,0-1.27,0,0,0,0,0,0,0,.06Z"/><path class="cls-2" d="M93.87,18.59c2.39-.22,4.78-.46,7.17-.7.58-.06.57-1,0-.91l-7.17.91c-.44.06-.46.74,0,.7Z"/><path class="cls-2" d="M94.5,17.68a11.71,11.71,0,0,0,2.29.15,12.08,12.08,0,0,0,2.33-.07c.26-.05.27-.5,0-.54a12.09,12.09,0,0,0-2.33,0,11,11,0,0,0-2.29.2.14.14,0,0,0,0,.27Z"/><path class="cls-2" d="M94.86,18.64a13.12,13.12,0,0,0,5.91-1.08c.09,0,0-.17-.06-.19a13.46,13.46,0,0,0-5.87,1.07c-.1,0-.1.2,0,.2Z"/><path class="cls-2" d="M99.71,17.75l.33,0a.11.11,0,0,0,0-.22l-.33,0c-.19,0-.19.32,0,.3Z"/><path class="cls-3" d="M84.2,18.16a46.13,46.13,0,0,0,4.85-.09,17.46,17.46,0,0,0,4.22-.38.25.25,0,0,0,0-.48,18.32,18.32,0,0,0-4.56,0,41.52,41.52,0,0,0-4.59.35c-.34.05-.23.56.08.58Z"/><path class="cls-3" d="M92.82,17.29a7,7,0,0,0-.65,1.79,5.69,5.69,0,0,0-.36,1.86.25.25,0,0,0,.47.12A5.7,5.7,0,0,0,93,19.3a7,7,0,0,0,.4-1.86.29.29,0,0,0-.54-.15Z"/><path class="cls-3" d="M92,20.42a3.08,3.08,0,0,0-1.63.67.26.26,0,0,0,.18.43,1.6,1.6,0,0,0,.81-.3,4,4,0,0,0,.82-.49c.16-.13,0-.34-.18-.31Z"/><path class="cls-3" d="M91.37,21.26a1.46,1.46,0,0,0,.26-1c0-.48,0-1,0-1.44,0-.72-1.18-.7-1.11,0,0,.48.1,1,.16,1.44a1.56,1.56,0,0,0,.38,1,.24.24,0,0,0,.33,0Z"/><path class="cls-3" d="M91.6,18.19a2.51,2.51,0,0,0-.46,2,.45.45,0,0,0,.81.11,2.58,2.58,0,0,0-.07-2.14c0-.13-.22-.09-.28,0Z"/><path class="cls-3" d="M92.08,18.28a13.12,13.12,0,0,0-3.81-.17c-1.46,0-2.93-.06-4.4-.17-.82-.06-.83,1.26,0,1.3,2.46.11,6,.53,8.24-.68a.15.15,0,0,0,0-.28Z"/><path class="cls-3" d="M83.56,19.69a7.22,7.22,0,0,0,.54,1.21c.17.34.27.69.68.8a.26.26,0,0,0,.31-.18c.14-.39-.11-.69-.31-1a6.61,6.61,0,0,0-.7-1.1c-.21-.25-.6,0-.52.3Z"/><path class="cls-3" d="M83.57,19.5c-.51.68.41,1.75,1.13,1.71a.26.26,0,0,0,.18-.44c-.19-.23-.44-.41-.61-.66a2.68,2.68,0,0,0-.41-.64.18.18,0,0,0-.29,0Z"/><path class="cls-3" d="M83.24,19.34c-.35.63.4,1.37,1,1.21a.28.28,0,0,0,.06-.5,1.82,1.82,0,0,1-.51-.32c-.11-.13-.2-.29-.31-.42a.17.17,0,0,0-.28,0Z"/><path class="cls-3" d="M83.82,20.44a4.8,4.8,0,0,0,.38,1.38c.16.39.24.83.63,1a.26.26,0,0,0,.38-.16c.12-.43-.14-.79-.31-1.17a4.55,4.55,0,0,0-.73-1.24.21.21,0,0,0-.35.15Z"/><path class="cls-3" d="M85.12,22.64a4.24,4.24,0,0,0,2,.32,8.74,8.74,0,0,0,2.34,0,.37.37,0,0,0,0-.7,8.7,8.7,0,0,0-2.34-.12,4,4,0,0,0-2,.2.16.16,0,0,0,0,.28Z"/><path class="cls-3" d="M89.61,22.23a2.17,2.17,0,0,0,.62-3.08c-.38-.61-1.35,0-1,.56A2.46,2.46,0,0,1,89.41,22c-.07.12.08.3.2.21Z"/><path class="cls-3" d="M89.17,19.43a4.41,4.41,0,0,0-.65,1.28A5.69,5.69,0,0,0,88,22.25c-.05.5.7.66.92.25A5.57,5.57,0,0,0,89.35,21a4.85,4.85,0,0,0,.2-1.46c0-.16-.25-.31-.38-.15Z"/><path class="cls-3" d="M89,19.62a2.77,2.77,0,0,0-1.54,1,2.34,2.34,0,0,0-.62,1.84.55.55,0,0,0,1,.13,8.62,8.62,0,0,0,.52-1.37,6.44,6.44,0,0,1,.81-1.3.16.16,0,0,0-.16-.26Z"/><path class="cls-3" d="M87.77,19.84a20.37,20.37,0,0,0-1.67,1.94c-.44.65.6,1.24,1,.61a19.34,19.34,0,0,0,1.14-2.16c.16-.31-.25-.68-.5-.39Z"/><path class="cls-3" d="M86.92,19.52a10.25,10.25,0,0,0-1.37,2.08c-.36.72.74,1.34,1.06.62a9.91,9.91,0,0,0,.78-2.42c0-.25-.27-.51-.47-.28Z"/><path class="cls-3" d="M86.13,19.2A3.42,3.42,0,0,0,85,22.25a.59.59,0,0,0,1.13,0c.12-.45.08-.94.18-1.4a9.82,9.82,0,0,1,.38-1.34c.12-.32-.32-.52-.54-.31Z"/><path class="cls-3" d="M84.89,19.24a2.58,2.58,0,0,0-.58,1.49,1.55,1.55,0,0,0,.52,1.42.46.46,0,0,0,.65-.27c.09-.4-.11-.74-.13-1.15a3,3,0,0,1,.15-1.23c.14-.39-.4-.53-.61-.26Z"/><path class="cls-3" d="M84.17,19.23a2,2,0,0,0,0,1.67,1.33,1.33,0,0,0,1.36.94.46.46,0,0,0,.27-.66c-.14-.31-.46-.49-.64-.77a1.59,1.59,0,0,1-.26-1c0-.36-.55-.53-.7-.19Z"/><path class="cls-3" d="M85.12,20.26a7.89,7.89,0,0,0,5.36-.05c.51-.23.23-1-.28-1-.83,0-1.65.23-2.49.3l-2.51.16a.31.31,0,0,0-.08.61Z"/><path class="cls-3" d="M85.37,20a4.88,4.88,0,0,0,2,.37c.65,0,1.45.13,1.9-.42a.52.52,0,0,0,0-.72c-.48-.51-1.2-.39-1.84-.31a5.25,5.25,0,0,0-2,.52.32.32,0,0,0,0,.56Z"/><path class="cls-3" d="M85.1,20.19a18.78,18.78,0,0,0,2.8.34,4.44,4.44,0,0,0,2.53-.29.44.44,0,0,0,0-.75,4.53,4.53,0,0,0-2.53-.33,18.85,18.85,0,0,0-2.8.29.39.39,0,0,0,0,.74Z"/><path class="cls-3" d="M86.81,21.32l1.64-.4a2.5,2.5,0,0,0,1.35-.55.35.35,0,0,0-.16-.58,2.47,2.47,0,0,0-1.43.25l-1.6.56a.37.37,0,0,0,.2.72Z"/><path class="cls-3" d="M91.76,17.91a1.88,1.88,0,0,0-.9,1.7.67.67,0,0,0,.66.65.33.33,0,0,0,.17,0,.66.66,0,0,0,.48-.63,8.5,8.5,0,0,1-.08-1.51.22.22,0,0,0-.33-.19Z"/><path class="cls-3" d="M92,18.32c-.28.48-.81,1.3-.6,1.86.06.17.28.32.45.19.53-.4.53-1.32.57-1.94,0-.23-.31-.3-.42-.11Z"/><path class="cls-3" d="M92.14,18a4.42,4.42,0,0,0-.38,1.4.28.28,0,0,0,.52.14,4.16,4.16,0,0,0,.33-1.41.24.24,0,0,0-.47-.13Z"/><path class="cls-4" d="M87.44,25.63a7.21,7.21,0,0,0,2.2-1,4.63,4.63,0,0,0,1.8-1.23.25.25,0,0,0-.21-.37,4.75,4.75,0,0,0-2,.91,7.17,7.17,0,0,0-1.95,1.4.16.16,0,0,0,.15.26Z"/><path class="cls-4" d="M87.74,25.59a6,6,0,0,0,2.54-1.09,6.79,6.79,0,0,0,2.31-1.58.24.24,0,0,0-.2-.36,6.94,6.94,0,0,0-2.54,1.22,6.06,6.06,0,0,0-2.21,1.65.11.11,0,0,0,.1.16Z"/><path class="cls-4" d="M89.1,24.37a17.43,17.43,0,0,0,1.57-1c.53-.33,1.2-.45,1.71-.81a.34.34,0,0,0-.17-.62,3.68,3.68,0,0,0-2,.84,2.85,2.85,0,0,0-1.28,1.46.12.12,0,0,0,.17.14Z"/><path class="cls-4" d="M91.2,22.84c.63-.05,1.69,0,2.06-.63a.27.27,0,0,0-.09-.37c-.63-.33-1.54.21-2.11.49a.28.28,0,0,0,.14.51Z"/><path class="cls-4" d="M92,22.9a1.42,1.42,0,0,0,.79.06.19.19,0,0,0,.09-.31,1.45,1.45,0,0,0-.72-.33.3.3,0,0,0-.16.58Z"/><path class="cls-4" d="M87.12,26.21c.72.06,3.49-.51,2.82-1.69-.36-.64-1.11-.27-1.57,0a4.76,4.76,0,0,0-1.52,1.22c-.15.21.05.46.27.48Z"/><path class="cls-4" d="M88.27,24.85A5.9,5.9,0,0,0,90,23.69a.47.47,0,0,0,.12-.49.5.5,0,0,0-.23-.3.51.51,0,0,0-.6.08A5.22,5.22,0,0,0,88,24.45a.28.28,0,0,0,.31.4Z"/><path class="cls-4" d="M89.7,23.66a5.61,5.61,0,0,1,1.72-1c.55-.26.15-1.07-.4-.95a3.11,3.11,0,0,0-1.91,1.53.38.38,0,0,0,.59.46Z"/><path class="cls-4" d="M91.21,22.45A2.47,2.47,0,0,1,92,22.3a1,1,0,0,0,.67-.15.38.38,0,0,0,.07-.59c-.52-.54-1.4,0-1.87.34a.33.33,0,0,0,.32.55Z"/><path class="cls-4" d="M92.3,23.4c.33-.15.78-.27.75-.7a.18.18,0,0,0-.13-.17c-.39-.15-.66.25-.89.51a.23.23,0,0,0,.27.36Z"/><path class="cls-4" d="M92.57,23.07l.09-.15a.19.19,0,0,0-.26-.25l-.14.09c-.31.2.11.62.31.31Z"/><path class="cls-3" d="M89.58,22c.18-.45.49-1.25.07-1.63a.3.3,0,0,0-.28-.07c-.58.23-.57,1.05-.56,1.59a.39.39,0,0,0,.77.11Z"/><path class="cls-3" d="M89.3,22.39c.67-.24.89-1.19.92-1.82a.56.56,0,0,0-1.09-.15A2.72,2.72,0,0,0,89,22.28a.25.25,0,0,0,.26.11Z"/><path class="cls-3" d="M85.19,19.87a2,2,0,0,0,2.2.08c.46-.27.3-1.15-.3-1.08a5.48,5.48,0,0,0-1.83.46.34.34,0,0,0-.07.54Z"/><path class="cls-3" d="M85.39,19.76c.5.37,1.39.6,1.74-.09a.45.45,0,0,0-.26-.65c-.51-.19-1,.21-1.43.37a.21.21,0,0,0,0,.37Z"/><path class="cls-3" d="M83.34,18.86c-.26.22-.41.65,0,.84a.15.15,0,0,0,.22-.09c0-.21,0-.42,0-.64s-.11-.18-.2-.11Z"/><path class="cls-3" d="M83.5,18.91a.69.69,0,0,0-.31.43.21.21,0,0,0,0,.2.4.4,0,0,0,.62,0,.16.16,0,0,0-.07-.27,1.4,1.4,0,0,1-.29-.09l.1.18.07-.31c0-.1-.06-.24-.17-.17Z"/><path class="cls-3" d="M83.16,19.41a5,5,0,0,0,.94,1.18c.37.45.58,1.05,1,1.47a.24.24,0,0,0,.41-.17,3.34,3.34,0,0,0-.87-1.58c-.33-.4-.81-1-1.36-1,0,0-.1.06-.09.11Z"/><path class="cls-3" d="M85,22.68a1.68,1.68,0,0,0,2.12.12.24.24,0,0,0,0-.37,1.9,1.9,0,0,0-1.06-.06,2.4,2.4,0,0,0-1,.13c-.07,0-.06.13,0,.18Z"/><path class="cls-3" d="M86.31,23c.8.74,2.91.2,3.33-.77a.24.24,0,0,0-.26-.34c-.53.07-1,.42-1.57.54a7,7,0,0,0-1.46.31.17.17,0,0,0,0,.26Z"/><path class="cls-3" d="M89.34,22.46c.59-.19,1.78-.5,1.94-1.18a.21.21,0,0,0-.15-.27c-.71-.16-1.49.76-1.92,1.21a.14.14,0,0,0,.13.24Z"/><path class="cls-3" d="M90.55,21.64c.53-.06,1.42-.05,1.7-.59a.23.23,0,0,0-.13-.32c-.54-.22-1.22.34-1.65.62-.12.08-.09.31.08.29Z"/><path class="cls-3" d="M89.92,18.36a2.9,2.9,0,0,0,1.59.29c.49,0,1.12.08,1.39-.4a.32.32,0,0,0,0-.33c-.35-.48-1-.33-1.49-.26a3,3,0,0,0-1.52.47.15.15,0,0,0,0,.23Z"/><path class="cls-3" d="M84,18.82c-1,.39-.34,1.9.65,1.74a.41.41,0,0,0,.3-.31.46.46,0,0,0-.2-.5c-.11-.08-.28-.11-.38-.21a.86.86,0,0,1-.2-.6.14.14,0,0,0-.17-.12Z"/><path class="cls-3" d="M83.55,19.05a.75.75,0,0,0,.17.88c.2.21.53.42.8.22a.18.18,0,0,0,.06-.23c-.09-.18-.21-.2-.36-.31a2.48,2.48,0,0,1-.49-.58.1.1,0,0,0-.18,0Z"/><path class="cls-2" d="M82.41,19.06a1.26,1.26,0,0,0,1-.82.12.12,0,0,0-.12-.16,1.23,1.23,0,0,0-1,.89.07.07,0,0,0,.07.09Z"/><path class="cls-2" d="M82.71,19.34a1.42,1.42,0,0,0,.79-1c.06-.21-.26-.34-.35-.15a8.3,8.3,0,0,0-.54,1,.08.08,0,0,0,.1.09Z"/><path class="cls-2" d="M82.1,19.29a1.52,1.52,0,0,0,1.33-.14.22.22,0,0,0-.12-.41,3.61,3.61,0,0,0-1.24.36.11.11,0,0,0,0,.19Z"/><path class="cls-2" d="M82.62,19.25a1.53,1.53,0,0,0,.56-.13.11.11,0,0,0,0-.19,1.35,1.35,0,0,0-.53,0c-.19,0-.2.34,0,.32Z"/><path class="cls-2" d="M74.33,18.83v0c0,.09.07.16.14.19a.93.93,0,0,0,1-.1.2.2,0,0,0-.09-.32,2.9,2.9,0,0,0-.83,0,.23.23,0,0,0-.2.15v0Z"/><path class="cls-2" d="M75,19.19a3.44,3.44,0,0,0,.85,0,.16.16,0,0,0,0-.31,3.44,3.44,0,0,0-.85,0,.18.18,0,0,0,0,.35Z"/><path class="cls-2" d="M93.62,17.51c-.27.25-.21.66-.22,1s.58.36.57,0,0-.76-.22-1a.11.11,0,0,0-.13,0Z"/><path class="cls-2" d="M93.46,18.6a4.53,4.53,0,0,0,1.22,0,1.4,1.4,0,0,0,.94-.3.18.18,0,0,0,0-.27,1.41,1.41,0,0,0-1-.05,4.68,4.68,0,0,0-1.18.32.16.16,0,0,0,0,.29Z"/><path class="cls-2" d="M93.75,17.88c.73.08,2.12.59,2.65-.14a.26.26,0,0,0,0-.3c-.28-.32-.74-.25-1.13-.19s-1,.23-1.52.34c-.18,0-.12.27,0,.29Z"/><path class="cls-1" d="M96.56,16.09A11.14,11.14,0,0,0,98.09,16a2.26,2.26,0,0,0,1.32-.48.31.31,0,0,0-.14-.51,2.31,2.31,0,0,0-1.41.17,12.08,12.08,0,0,0-1.4.57c-.18.08-.09.38.1.37Z"/><path class="cls-1" d="M99.2,15.16A15,15,0,0,0,97,13.76a4.43,4.43,0,0,0-2.08-.69c-.26,0-.47.37-.23.57a5.77,5.77,0,0,0,1.85.8c.83.31,1.68.67,2.48,1.05a.19.19,0,0,0,.19-.33Z"/><path class="cls-1" d="M94.57,11.74v0a.31.31,0,0,0-.22-.22,3.26,3.26,0,0,1-1.23-.33c-.89-.48-1.29,1.11-.31,1.12a5,5,0,0,0,1.54-.18.31.31,0,0,0,.23-.3v-.06Z"/><path class="cls-1" d="M93.71,11.89a6.9,6.9,0,0,0-5.17.69.27.27,0,0,0,.21.48,15.68,15.68,0,0,1,4.87-.49.35.35,0,0,0,.09-.68Z"/><path class="cls-1" d="M79.57,16c.72-.13,1.26-.76,1.86-1.15s1.43-.78,2.09-1.25.24-1.46-.49-1.18a7.61,7.61,0,0,0-2.2,1.44c-.57.52-1.37,1.09-1.5,1.9a.2.2,0,0,0,.24.24Z"/><path class="cls-1" d="M81,13.7c.67-.41,1.18-1,1.85-1.45.52-.34,1.47-.64,1.75-1.22a.29.29,0,0,0-.1-.39c-.71-.4-1.75.25-2.32.68a3.9,3.9,0,0,0-1.59,2.06.28.28,0,0,0,.41.32Z"/><path class="cls-1" d="M82.48,12.83a26,26,0,0,1,3.36-1.41,28.28,28.28,0,0,0,2.9-.82.38.38,0,0,0-.09-.68c-2.22-.31-4.84,1.12-6.46,2.54-.21.18.06.48.29.37Z"/><path class="cls-1" d="M88.31,14.49a15.72,15.72,0,0,1,3.48.51c1,.29,2,.81,3,1,.47.1,1-.54.52-.91-1.85-1.47-4.84-1.53-7.08-1.18-.32.06-.23.53.07.55Z"/><path class="cls-1" d="M101,16.76l.07.08a.3.3,0,0,0,.41,0l.06-.05a.2.2,0,0,0,0-.24l0-.07a.29.29,0,0,0-.4-.1l-.09,0a.22.22,0,0,0,0,.34Z"/><path class="cls-1" d="M101.16,16.7l0,.08a.31.31,0,0,0,.37.21l.07,0a.2.2,0,0,0,.15-.2V16.7a.28.28,0,0,0-.29-.29h-.1a.23.23,0,0,0-.21.29Z"/><path class="cls-5" d="M86.37,26.83c.65.87,1.94.19,2.73-.19a24.49,24.49,0,0,0,4.72-2.78c.34-.29,0-.94-.45-.77-1.42.57-2.61,1.56-4,2.27-.87.45-2.5.47-3,1.33a.14.14,0,0,0,0,.14Z"/><path class="cls-5" d="M86.39,26.85a46.34,46.34,0,0,0-5.88,14.49.38.38,0,0,0,.73.2,74.77,74.77,0,0,1,5.69-14.37.31.31,0,0,0-.54-.32Z"/><path class="cls-5" d="M81.07,41.7a10.59,10.59,0,0,0,4.24.41,15.91,15.91,0,0,1,5.09.82c.58.19,1.14-.67.63-1.07a6.68,6.68,0,0,0-4.15-1.1c-1.77-.06-4.06-.41-5.72.28-.25.1-.41.52-.09.66Z"/><path class="cls-5" d="M93.21,24.05c.43,1.91,1.8,3.62,2.61,5.41a35.14,35.14,0,0,1,2.32,7c.22,1,1.78.58,1.55-.43a35.18,35.18,0,0,0-2.35-7c-.88-1.86-1.94-4.19-3.71-5.32a.29.29,0,0,0-.42.31Z"/><path class="cls-5" d="M98.43,36.32c-.51,8.64,1.83,17,.22,25.63a.55.55,0,0,0,1,.29c1.52-4.11,1.23-8.44,1-12.76s-.15-9.1-1.65-13.24a.32.32,0,0,0-.62.08Z"/><path class="cls-5" d="M99.08,63.07c1.66.23,2.71-2.61,1.51-3.66-.3-.27-.92-.12-.88.36s.29,1,.06,1.57-.68.65-1,1a.47.47,0,0,0,.28.68Z"/><path class="cls-5" d="M78.46,70.25a2.53,2.53,0,0,0,.14-1.52A5.23,5.23,0,0,0,78.28,67c-.27-.59-1.09-.23-1.12.31A5.13,5.13,0,0,0,77.47,69a2.49,2.49,0,0,0,.63,1.3.23.23,0,0,0,.36,0Z"/><path class="cls-5" d="M77.07,66.07a1.79,1.79,0,0,0,.48,1.51.18.18,0,0,0,.31-.12c0-.48-.17-.92-.19-1.39a.3.3,0,0,0-.6,0Z"/><path class="cls-5" d="M77.25,65.78A2.41,2.41,0,0,0,77.62,68a.12.12,0,0,0,.19,0,2.63,2.63,0,0,0,0-1.08,4.66,4.66,0,0,0-.16-1.12.19.19,0,0,0-.36,0Z"/><path class="cls-5" d="M77.8,69.3A1.16,1.16,0,0,0,78,70.4a.18.18,0,0,0,.3-.08A1.17,1.17,0,0,0,78,69.24a.12.12,0,0,0-.2.06Z"/><path class="cls-5" d="M77.67,69.56a.92.92,0,0,0,.15.87.2.2,0,0,0,.34-.2c-.13-.22-.21-.47-.33-.7a.09.09,0,0,0-.16,0Z"/><path class="cls-5" d="M77.92,70.33c0,.49,1.11.35,1.33.32a1,1,0,0,0,.86-.47.29.29,0,0,0-.18-.42,1.24,1.24,0,0,0-.84.11c-.32.09-.67.12-1,.23-.07,0-.16.09-.17.18a.43.43,0,0,0,0,0Z"/><path class="cls-5" d="M78.1,71.2c7.05-1.43,16.54-3.74,22-8.71a.35.35,0,0,0-.43-.55c-6.89,4.32-14.38,5.46-21.79,8.46a.42.42,0,0,0,.22.8Z"/><path class="cls-5" d="M78.65,68.47a55.66,55.66,0,0,0,9-6.52c2.75-2.26,5.93-4.79,7.5-8.06a.58.58,0,0,0-.9-.7c-2.64,2.48-4.74,5.47-7.5,7.86s-5.94,4.27-8.61,6.74c-.37.34.1.9.52.68Z"/><path class="cls-5" d="M80,42a107.91,107.91,0,0,1-1.5,15.85,11.49,11.49,0,0,0,1.16,7.94.47.47,0,0,0,.81-.47c-2.68-4.45-.82-8.89-.13-13.6a27.82,27.82,0,0,0,0-9.76c0-.18-.3-.13-.3,0Z"/><path class="cls-5" d="M80.87,42.51l-.07-.13-.34.44c1.54.6,3.35.36,5,.54,1.89.2,3.67.82,5.54,1,.69.08.92-1,.35-1.28a14.87,14.87,0,0,0-5.51-1.34c-1.76-.19-3.87-.43-5.44.49-.34.2,0,.73.3.52l.13-.09a.13.13,0,0,0,.05-.19Z"/><path class="cls-5" d="M80.61,65.38c2.6.19,5.38-2.28,7.33-3.76a62.67,62.67,0,0,0,7-6.25c1.24-1.26-.71-3.22-1.94-1.94a75.23,75.23,0,0,1-6.66,6.09c-1.85,1.49-5,3.1-6,5.35a.34.34,0,0,0,.29.51Z"/><path class="cls-5" d="M80.35,65.06c3.18-.21,6.14-2.85,8.58-4.72s5.62-3.84,6.75-6.72a1.46,1.46,0,0,0-1.79-1.8c-2.76,1.07-4.83,3.88-7.1,5.75s-5.65,3.49-7.23,6.11a.93.93,0,0,0,.79,1.38Z"/><path class="cls-5" d="M80.89,63.66c1.78-2.12,1.92-5.84,2.44-8.51a47.18,47.18,0,0,0,.75-11.5c-.14-2.48-4-2.5-3.88,0a55.42,55.42,0,0,1-1,13.17c-.45,2.43-1.23,5,.69,6.84a.72.72,0,0,0,1,0Z"/><path class="cls-5" d="M84.94,42.28c-1.81,1.77-1,4.38-1,6.72a22.49,22.49,0,0,1-1.83,10c-1.07,2.24,2.27,4.22,3.35,2A24.26,24.26,0,0,0,87.8,50.87c.08-2.73.52-7-2-8.7a.68.68,0,0,0-.82.11Z"/><path class="cls-5" d="M83.63,60.34a30,30,0,0,0,1.88-7.6c.34-2.15,1.46-4.68.18-6.63a1.14,1.14,0,0,0-1.51-.39C82,47,82,49.94,81.69,52.21A17,17,0,0,0,82,60.13c.21.65,1.28,1,1.61.21Z"/><path class="cls-5" d="M86.53,42.85C84.9,44,85.43,46.18,85.45,48a40.33,40.33,0,0,1-1.18,9.54,1.84,1.84,0,0,0,3.54,1A27.45,27.45,0,0,0,89,46.89c-.07-.61-.87-5.22-2.51-4Z"/><path class="cls-5" d="M87.07,58.84c2.54-1.06,3.47-4.35,4-6.86a20.11,20.11,0,0,0-.85-10.2c-.78-2.39-4.58-1.36-3.78,1a20.83,20.83,0,0,1,.91,8.66c-.21,2.31-1.42,4.66-1,7a.57.57,0,0,0,.7.4Z"/><path class="cls-5" d="M90.55,42.69l.31-.3-1.11-.85c-1,1.48-.46,3.24-.38,4.92a29.44,29.44,0,0,1-.43,6.89c-.47,2.47,3.33,3.52,3.78,1,.6-3.32,1.79-11.21-2-13.1A.7.7,0,0,0,90,42.5l.34.22a.17.17,0,0,0,.2,0Z"/><path class="cls-5" d="M93.66,53.19c3.4-1.54,1-9.79-.39-12.19-2.1-3.68-7.89-4.34-11-1.54A1.56,1.56,0,0,0,83,42.05c1.82.26,3.94-.85,5.62-.13,1.89.81,2.16,3.67,2.49,5.47.17.89.39,6.77,2.54,5.8Z"/><path class="cls-5" d="M82.1,41c1.67-1.58,2.51-3.94,3.56-6A70.29,70.29,0,0,0,89,28.53c.62-1.58-1.69-2.23-2.54-1.07A28.6,28.6,0,0,0,83.16,34c-.85,2.11-1.91,4.42-1.69,6.74a.37.37,0,0,0,.63.26Z"/><path class="cls-5" d="M88.37,27.77a2.72,2.72,0,0,0,2.74-.3,4.76,4.76,0,0,0,2.43-2.11c.35-.84-.62-1.42-1.31-1.31-.88.13-1.68,1-2.43,1.44a3,3,0,0,0-1.62,1.8.45.45,0,0,0,.19.48Z"/><path class="cls-5" d="M92.32,27.42c1.16,3.95,5,12.12,1.2,15.37-1.89,1.6.81,4.2,2.69,2.69,5.46-4.39,1.91-14.35-.7-19.41-.91-1.76-3.75-.54-3.19,1.35Z"/><path class="cls-5" d="M93.28,44.09c2.44-.77,3.11-4.11,3.29-6.4a15.08,15.08,0,0,0-2.27-9.36C89.62,21.67,84.19,33.8,82.67,37a1.82,1.82,0,0,0,1.55,2.7,26.56,26.56,0,0,1,7.47.92,1.81,1.81,0,0,0,2.21-2.21A25,25,0,0,1,92.74,31c0-2.41-3.57-2.37-3.72,0l0,.3a1.49,1.49,0,0,0,1.1,1.44l.28,0L89,31a30.34,30.34,0,0,0,1.42,8.29l2.21-2.21a39.86,39.86,0,0,0-8.43-1l1.55,2.7c1.08-1.77,2.1-3.57,3.18-5.33.24-.4,1-2.24,1.54-2.37,1.3-.32,1.46,1.2,1.75,2.23a15,15,0,0,1,.39,5.39c-.14,1.67-.88,3.32-.23,4.91a.73.73,0,0,0,.88.5Z"/><path class="cls-5" d="M90.44,30.48c-1.28.4-2.1,1.69-2.84,2.74a7.71,7.71,0,0,0-1.65,4,1.79,1.79,0,1,0,3.57,0c.26-2.11,2.33-4.05,1.67-6.3a.61.61,0,0,0-.75-.42Z"/><path class="cls-5" d="M94.88,44c-1.76,2.38-1.1,5.6-1.17,8.43-.1,3.67-.46,7.33-.63,11a1.62,1.62,0,0,0,3.17.43A51.52,51.52,0,0,0,97.6,52.41c.06-2.9.48-6.35-1.65-8.57a.7.7,0,0,0-1.07.14Z"/><path class="cls-5" d="M97.17,42.71c-1.87,2.68-.91,6.39-1,9.52a31.79,31.79,0,0,1-1.3,10.19,1.06,1.06,0,0,0,.73,1.28l.62.24a1.69,1.69,0,0,0,1.63-.43c2.52-2.22,2.09-6.68,2.2-9.74.12-3.49.85-8.59-1.92-11.19a.65.65,0,0,0-1,.13Z"/><path class="cls-5" d="M78.71,69.69,79,70a1.67,1.67,0,0,0,1.65.44c4.86-2,9.69-4.18,14.48-6.34,1.81-.82.52-3.94-1.36-3.23a128.47,128.47,0,0,0-14.43,6.45,1.66,1.66,0,0,0-.84,1.47c0,.27-.05.73.2,1Z"/><path class="cls-5" d="M89.71,66l.07.06s.11,0,.07-.07l-.07-.06s-.11,0-.07.07Z"/><path class="cls-5" d="M90.24,66.8a6.84,6.84,0,0,0,3.89-1.46,1.06,1.06,0,0,0-1.5-1.5,8.43,8.43,0,0,1-2.57,1.61c-.69.23-.63,1.45.18,1.35Z"/><path class="cls-5" d="M85.42,65.73c2,.21,4-1.4,5.57-2.5A21.16,21.16,0,0,0,95.88,59c1.14-1.48-1.06-3.52-2.53-2.53-1.68,1.13-3.1,2.65-4.69,3.9-1.42,1.11-3.42,2-4.18,3.76a1.1,1.1,0,0,0,.94,1.62Z"/><path class="cls-6" d="M78,42c-1.49,7.75-3.68,18,.63,25.1,0,.1.19,0,.17-.07-.85-4.48-1.61-8.68-1.3-13.27.27-3.9,1.08-7.75,1.31-11.65,0-.46-.73-.57-.81-.11Z"/><path class="cls-6" d="M78.71,67.37A2.76,2.76,0,0,0,80,66.2a.54.54,0,0,0-.84-.64c-.36.34-.71.68-1,1a.49.49,0,0,0,.59.76Z"/><path class="cls-6" d="M78.58,66.45c0-.14,0-.27,0-.41.06-.88-1.47-.7-1.18.16a1.17,1.17,0,0,0,.36.59.48.48,0,0,0,.8-.34Z"/><path class="cls-6" d="M78.86,42.08c-.3,5-.79,9.92-1.34,14.93-.37,3.37-.41,6.43,1.54,9.32.19.29.73.12.6-.25-2.69-7.67.5-16,.12-24a.46.46,0,0,0-.92,0Z"/><path class="cls-6" d="M78.55,42.77a22.83,22.83,0,0,0-1.45,13.5c.19.84,1.33.56,1.41-.2.47-4.35.59-8.81.87-13.19,0-.52-.66-.51-.83-.11Z"/><path class="cls-6" d="M77.63,57.67a7.49,7.49,0,0,0,.82-2.31,2.92,2.92,0,0,0,0-2.1.42.42,0,0,0-.65-.09A3.23,3.23,0,0,0,77,55.3a7.39,7.39,0,0,0,0,2.3.33.33,0,0,0,.59.07Z"/><path class="cls-6" d="M78.56,55.7c.63-.09.74-1.14.84-1.65a5.26,5.26,0,0,0-.15-2.46.19.19,0,0,0-.35,0c-.23,1-.39,2-.56,3,0,.2-.27,1.13.22,1.06Z"/><path class="cls-6" d="M79.06,52.07a4.88,4.88,0,0,0,.61-2.24,7.08,7.08,0,0,0-.16-2.64c-.09-.21-.41-.31-.53-.07a6.51,6.51,0,0,0-.45,2.52,4.8,4.8,0,0,0,.36,2.43.1.1,0,0,0,.17,0Z"/><path class="cls-6" d="M78.74,56.49a2.15,2.15,0,0,0,.54-1.35,1.49,1.49,0,0,0-.19-1.29.33.33,0,0,0-.51.06,2.22,2.22,0,0,0-.24,1.2,3.56,3.56,0,0,0-.08,1.26.29.29,0,0,0,.48.12Z"/><path class="cls-6" d="M77.89,41.65c-.5.21-.48,1.17-.21,1.55a.37.37,0,0,0,.67-.09,2.48,2.48,0,0,0,0-.86.78.78,0,0,0-.2-.57.23.23,0,0,0-.26,0Z"/><path class="cls-6" d="M78,42.09a2.27,2.27,0,0,0-.2,1.18,1.52,1.52,0,0,0,.21,1c.07.1.21,0,.27,0a1.65,1.65,0,0,0,.13-1.12,2.12,2.12,0,0,0-.25-1.08.1.1,0,0,0-.16,0Z"/><path class="cls-7" d="M77.61,72c7.71-2,18.34-3.18,23.81-9.6.25-.29-.16-.71-.42-.42-5.72,6.11-15.84,7.15-23.53,9.52a.26.26,0,0,0,.14.5Z"/><path class="cls-7" d="M77.93,71.4a4.85,4.85,0,0,0,.92,4,.24.24,0,0,0,.4-.23c-.23-.63-.58-1.19-.76-1.85s-.15-1.31-.29-2a.14.14,0,0,0-.27,0Z"/><path class="cls-7" d="M77.69,71.82A3.38,3.38,0,0,0,78.8,75c.16.12.35-.1.26-.26a9.68,9.68,0,0,1-.83-1.43,8.33,8.33,0,0,1-.33-1.48.11.11,0,0,0-.21,0Z"/><path class="cls-7" d="M79.23,75.43a44,44,0,0,0,14.2-3.79c3.33-1.41,7.82-3,9.53-6.41a.19.19,0,0,0-.32-.19c-5.11,6.7-15.86,8.17-23.45,10.12a.14.14,0,0,0,0,.27Z"/><path class="cls-7" d="M102.79,65.09a.24.24,0,0,0,0-.48.24.24,0,0,0,0,.48Z"/><path class="cls-7" d="M103,64.78a3.25,3.25,0,0,0-1.07-2.4.51.51,0,0,0-.73.72c.48.58.85,1.22,1.3,1.82a.27.27,0,0,0,.5-.14Z"/><path class="cls-7" d="M101.16,63.18a4.34,4.34,0,0,0,.31,1.2,8.11,8.11,0,0,1,.13,1.47.34.34,0,0,0,.67.09c.22-.81,0-2.54-.94-2.89a.14.14,0,0,0-.17.13Z"/><path class="cls-7" d="M102.43,64.48a3.07,3.07,0,0,0-.21.79c0,.29.44.3.47,0a2.63,2.63,0,0,0,0-.79c0-.12-.19-.09-.22,0Z"/><path class="cls-7" d="M78.75,73.71c5.24.16,11-2.36,15.75-4.29,3-1.2,6.37-2.24,7.54-5.5.35-1-1.23-1.66-1.68-.71-1.84,3.81-8,5-11.7,6.28-3.36,1.12-7,1.67-10.17,3.24-.49.24-.23,1,.26,1Z"/><path class="cls-7" d="M100.73,63.73c-3.78,1.35-7.23,3.44-11,4.88a72.13,72.13,0,0,1-11.63,3.32c-.75.16-.43,1.32.32,1.16C86,71.56,95,69.15,100.88,64c.1-.1,0-.3-.15-.25Z"/><path class="cls-7" d="M78.84,74.24c7,1.49,17.75-3.52,23.13-7.88.47-.38-.13-1-.61-.78-4.13,1.89-8,4.1-12.31,5.52-3.35,1.1-7.09,1.36-10.23,3a.09.09,0,0,0,0,.17Z"/><path class="cls-7" d="M90.77,72.06l-.16.09a0,0,0,0,0,0,0l.17-.08a0,0,0,0,0,0-.06Z"/><path class="cls-7" d="M90.79,72.27a9.68,9.68,0,0,0,6.08-2.5.28.28,0,0,0-.33-.43,24.69,24.69,0,0,1-2.62,1.55,22.13,22.13,0,0,1-3.18,1,.19.19,0,0,0,.05.38Z"/><path class="cls-7" d="M101.14,66a2.84,2.84,0,0,0,.94-1c.09-.2-.11-.48-.33-.33a2.94,2.94,0,0,0-.84,1.13.15.15,0,0,0,.23.18Z"/><path class="cls-7" d="M78.62,73.9c-.13.52.3.94.72,1.18s.69-.39.32-.55a4.93,4.93,0,0,1-.89-.69.1.1,0,0,0-.15.06Z"/><path class="cls-7" d="M79.33,75.14a5.38,5.38,0,0,0,2,.18,2,2,0,0,0,1.58-.6.36.36,0,0,0-.13-.5,2.4,2.4,0,0,0-1.58.1,17.88,17.88,0,0,0-1.9.54.15.15,0,0,0,0,.28Z"/><path class="cls-7" d="M79.44,74.69a1.63,1.63,0,0,0,2.11-.24.36.36,0,0,0-.31-.53,3.28,3.28,0,0,0-.84.31c-.29.1-.61.12-.9.23-.08,0-.14.16-.06.23Z"/><path class="cls-7" d="M78.37,74.08c.62.36,2.45.58,2.76-.27a.15.15,0,0,0,0-.17c-.3-.34-.88-.22-1.28-.16a5.08,5.08,0,0,0-1.44.31.17.17,0,0,0,0,.29Z"/><path class="cls-5" d="M79.24,75.82a39.16,39.16,0,0,0,5,15c.25.41.82.05.63-.38a84.84,84.84,0,0,1-4.95-14.74c-.08-.34-.67-.28-.63.09Z"/><path class="cls-5" d="M85.06,90.9c3.19-2.89,4.73-6.09,9.24-7.5s9.23-.87,13.79-.53c.8.06.77-1.15,0-1.23-5.4-.58-11.13-1.07-16.23,1.18-3,1.34-7.31,4.29-6.88,8.05,0,0,0,.06.08,0Z"/><path class="cls-5" d="M108.15,82.58a2.27,2.27,0,0,0,.89,1.13c.58.36,1-.5.52-.89a2.13,2.13,0,0,0-1.29-.39c-.08,0-.15.08-.12.15Z"/><path class="cls-5" d="M108.23,82c.22-1.5-1-3.17-1.67-4.48-.84-1.72-1.47-4.09-2.9-5.4a.55.55,0,0,0-.92.39c-.23,1.89,1.09,4.09,2,5.68.74,1.31,1.85,3.49,3.43,3.84a0,0,0,0,0,.06,0Z"/><path class="cls-5" d="M102.46,66.14a8,8,0,0,0,.35,5.78c.06.12.24,0,.24-.06,0-1-.14-2-.15-3a18.28,18.28,0,0,0,0-2.67c0-.18-.34-.23-.41-.06Z"/><path class="cls-5" d="M103,68.05a10.25,10.25,0,0,0,0,2.71,4.51,4.51,0,0,0,.62,2.35.19.19,0,0,0,.34,0,5.57,5.57,0,0,0-.18-2.22c-.16-.94-.25-1.88-.5-2.8,0-.15-.3-.17-.33,0Z"/><path class="cls-5" d="M102.62,69.24a4,4,0,0,0-.32,2.61c.09.73.13,1.76.93,2a.34.34,0,0,0,.38-.15c.35-.62-.11-1.27-.25-1.92-.17-.81-.08-1.71-.33-2.5a.22.22,0,0,0-.41-.05Z"/><path class="cls-5" d="M102.5,67.91a5.71,5.71,0,0,0-.28,2.43,3.19,3.19,0,0,0,.41,2.22.43.43,0,0,0,.66-.08c.48-.63.28-1.56.23-2.3a5.28,5.28,0,0,0-.39-2.27.37.37,0,0,0-.63,0Z"/><path class="cls-5" d="M79.87,76.11c8.45,0,16.28-3.49,22.75-8.76.41-.33-.18-.93-.59-.58-6.42,5.4-13.89,7.85-22.16,8.59a.38.38,0,0,0,0,.75Z"/><path class="cls-5" d="M80.05,76.51c.21,2.13,1.17,4.18,1.83,6.22.76,2.38,1.58,4.73,2.36,7.1.23.72,1.35.42,1.13-.31-1.28-4.14-2.5-9.56-5.13-13.07-.06-.07-.2-.06-.19.06Z"/><path class="cls-5" d="M80,77a.34.34,0,0,0,0-.67A.34.34,0,0,0,80,77Z"/><path class="cls-5" d="M79.76,77.07c4.26,1,8.71.65,13,1.5s8.54,2.25,12.73,3.48c1.82.54,2.57-2.26.78-2.83a75.82,75.82,0,0,0-14.84-2.84c-3.9-.47-7.82-1-11.68-.17a.45.45,0,0,0,0,.86Z"/><path class="cls-5" d="M101.31,67.61c-5.58,6.52-14.67,9.89-17.45,18.77-.57,1.81,2,2.82,3,1.27a49.89,49.89,0,0,1,8.47-10.14,37.73,37.73,0,0,0,6.85-9.23c.3-.53-.45-1.16-.87-.67Z"/><path class="cls-5" d="M84.07,84.91A17.3,17.3,0,0,0,86.8,82.1c1-1.08,2-2.21,3-3.29a1,1,0,0,0-.7-1.67c-2.63.14-5.35-.18-8,.06-1,.09-1.46,1.75-.26,2a32.78,32.78,0,0,0,8.22-.06l-.69-1.68c-1.76,2-4.18,4.51-4.73,7.17,0,.22.19.46.41.32Z"/><path class="cls-5" d="M80.63,78.08c-.16,1,.69,2,1.2,2.85s1.1,2.4,2.11,2.88a.59.59,0,0,0,.88-.51c0-1.14-1.08-2.21-1.72-3.11S82,78.14,81,77.87a.29.29,0,0,0-.36.21Z"/><path class="cls-5" d="M84,82.92c.35-.49.68-1,1-1.46a7.64,7.64,0,0,0,1.11-1.38c.39-.87-.71-2-1.44-1.11a7.4,7.4,0,0,0-.86,1.68c-.28.56-.62,1.1-.93,1.64a.62.62,0,0,0,1.07.63Z"/><path class="cls-5" d="M85,79.05l-2.55.12a.93.93,0,0,0,0,1.85h.31a.94.94,0,0,0,.89-.68.82.82,0,0,0,0-.49.93.93,0,0,0-.89-.67h-.31L82.74,81l2.3-.34a.8.8,0,1,0,0-1.59Z"/><path class="cls-5" d="M82.74,79.48a3.2,3.2,0,0,0,.17,2.19c.27.93.5,1.86.7,2.81a1.06,1.06,0,0,0,.76.76.94.94,0,0,0,.83-.11,1.14,1.14,0,0,0,.5-1.22c-.3-1.34-.93-4.23-2.49-4.62a.4.4,0,0,0-.47.19Z"/><path class="cls-5" d="M83,82.86c.17.93.28,1.84.51,2.75a4,4,0,0,0,.88,2.24.61.61,0,0,0,1-.27,4.36,4.36,0,0,0-.56-2.52c-.31-.86-.73-1.67-1.09-2.51-.2-.46-.84-.11-.76.31Z"/><path class="cls-5" d="M84.81,90.39c1.42-1.63,1.77-3.89,2.12-6s1-4.55.42-6.65a.89.89,0,0,0-1.7,0c-.54,2-.19,4.21-.46,6.29s-1,4.09-.78,6.15c0,.18.26.33.4.17Z"/><path class="cls-5" d="M85.19,76.07c2.14,1.29,5.43.31,7.6-.48,2-.74,5.19-2,5.79-4.2.08-.28-.15-.67-.47-.63C96,71,94.19,73,92.17,73.8c-2.21.89-4.94.78-7,1.91a.21.21,0,0,0,0,.36Z"/><path class="cls-5" d="M89,75.07a.05.05,0,0,0,0-.1.05.05,0,0,0,0,.1Z"/><path class="cls-5" d="M89.78,75.34c1.1-.25,2.18-.55,3.27-.87a5,5,0,0,0,2.59-1.17.61.61,0,0,0-.42-1,6.6,6.6,0,0,0-2.75.89c-1,.38-2,.68-3,1a.62.62,0,0,0,.33,1.2Z"/><path class="cls-5" d="M90.44,74.59a8,8,0,0,0,4.93-1c1.56-.8,3.57-1.93,4.51-3.44a.59.59,0,0,0-.66-.86c-1.44.51-2.49,1.74-3.77,2.55a22.47,22.47,0,0,1-5,2.23c-.22.07-.28.47,0,.51Z"/><path class="cls-5" d="M89.68,77.68c.85-.33,1.74-.55,2.59-.88a5.7,5.7,0,0,0,2.4-1.15A1,1,0,0,0,94,73.94,4.79,4.79,0,0,0,91.35,75a17.79,17.79,0,0,0-2.17,1.79c-.38.33,0,1.05.5.86Z"/><path class="cls-5" d="M90.14,80.84c1.62.28,3.23-.21,4.84-.43s3.73-.06,4.93-1.27a1,1,0,0,0-.2-1.55c-1.49-.9-3.5-.12-5.06.37S91.16,79,90,80.34a.3.3,0,0,0,.13.5Z"/><path class="cls-5" d="M90,83a58.32,58.32,0,0,0,11.37-2,1.39,1.39,0,0,0-.37-2.71,19.89,19.89,0,0,0-11.22,3.85c-.31.24-.27.87.22.83Z"/><path class="cls-5" d="M89.23,84.91a16.3,16.3,0,0,0,3.65-2.15c.61-.56,0-1.82-.86-1.48a7.88,7.88,0,0,0-3.27,3.15.35.35,0,0,0,.48.48Z"/><path class="cls-5" d="M100.51,80.94a3.53,3.53,0,0,0,3.54,1.15.94.94,0,0,0,0-1.8,6,6,0,0,0-3.42.21.32.32,0,0,0-.12.44Z"/><path class="cls-5" d="M101,69.32a8.13,8.13,0,0,0,0,6.33c.59,1.66,1.82,4.36,3.88,4.27a1.09,1.09,0,0,0,1.07-1.07c.12-1.5-1.39-2.79-2-4.14a26.62,26.62,0,0,1-1.14-5.15,1,1,0,0,0-1.84-.24Z"/><path class="cls-5" d="M96.89,77.29c2.07.76,4.26,1.11,6.37,1.7s3-2.79.91-3.3a10.18,10.18,0,0,0-7.42.55.58.58,0,0,0,.14,1.05Z"/><path class="cls-5" d="M98.08,77.41c.72-.64,1.42-1.37,2.08-2.07a8.31,8.31,0,0,0,2.13-2.7c.56-1.47-1.29-2.56-2.48-1.91a8.16,8.16,0,0,0-2.58,2.94A4.54,4.54,0,0,0,96.62,77a.88.88,0,0,0,1.46.38Z"/><path class="cls-5" d="M100.06,71.61c-1.42,1.43-1.67,4-1.29,6a1.35,1.35,0,0,0,1,1,1.23,1.23,0,0,0,1.07-.14,1.36,1.36,0,0,0,.68-1.19c-.06-.95-.22-1.88-.31-2.82a7.89,7.89,0,0,1,0-1.19,4,4,0,0,0-.17-1.33.59.59,0,0,0-1-.26Z"/><path class="cls-5" d="M100.5,72.93A23.42,23.42,0,0,1,97,75c-1.19.5-2.52.75-3.28,1.85a1.25,1.25,0,0,0,.74,1.83c1.5.28,2.69-.67,3.85-1.52a23.21,23.21,0,0,0,3.26-2.84c.63-.68-.19-1.9-1-1.34Z"/><path class="cls-5" d="M98.63,74.89a20.37,20.37,0,0,0-4.55,1.55c-1.55.74,0,3.23,1.55,2a10.11,10.11,0,0,1,3.48-1.83.89.89,0,0,0-.48-1.72Z"/><path class="cls-8" d="M96,41.19c-.17,2.63.56,5.26.74,7.88s-.08,5.32.15,8c0,.51.81.69.93.13a29.76,29.76,0,0,0,.2-8.69c-.2-2.49-.34-5.17-1.48-7.41-.14-.28-.52-.12-.54.14Z"/><path class="cls-8" d="M87.88,30.59a7.31,7.31,0,0,0,.91,2.5c.37.76.74,1.85,1.49,2.29a.32.32,0,0,0,.47-.36,7.63,7.63,0,0,0-1.31-2.31A12.53,12.53,0,0,0,88,30.52c-.05-.05-.17,0-.16.07Z"/><path class="cls-8" d="M87.69,30.62a2.83,2.83,0,0,0-.14,2.32,3.81,3.81,0,0,0,1.29,2.29.33.33,0,0,0,.54-.32c-.22-.78-.61-1.46-.85-2.24a7.51,7.51,0,0,0-.63-2.05.12.12,0,0,0-.21,0Z"/><path class="cls-8" d="M87,31.51A17.54,17.54,0,0,0,87.1,34a11.35,11.35,0,0,0,.15,2.26.38.38,0,0,0,.73,0,8.1,8.1,0,0,0-.34-4.86.31.31,0,0,0-.61.09Z"/><path class="cls-8" d="M87.44,34c-.13.29-.27.47-.2.79a.21.21,0,0,0,.31.12c.25-.14.29-.35.41-.61s-.36-.65-.52-.3Z"/><path class="cls-8" d="M86.8,35.61c.59,1.27,1.09,2.58,1.6,3.88a23,23,0,0,0,1.21,3.11.21.21,0,0,0,.38-.11c-.12-2.44-1.61-5-2.77-7.12-.15-.28-.55,0-.42.24Z"/><path class="cls-8" d="M88.17,34.17a20.7,20.7,0,0,0,.92,4.53,14.5,14.5,0,0,0,1.5,4.4.36.36,0,0,0,.66-.17,14.64,14.64,0,0,0-1-4.54A20.23,20.23,0,0,0,88.65,34a.26.26,0,0,0-.48.13Z"/><path class="cls-8" d="M89,33.82c.28,1.47.79,2.87,1.11,4.33a42.15,42.15,0,0,0,.75,4.38.37.37,0,0,0,.72,0c.68-2.73-.5-6.67-2.14-8.89a.24.24,0,0,0-.44.18Z"/><path class="cls-8" d="M89.69,35.94a24.84,24.84,0,0,0,.76,6.44.4.4,0,0,0,.78-.11,25.53,25.53,0,0,0-1.08-6.4.24.24,0,0,0-.46.07Z"/><path class="cls-8" d="M89.12,42.06a5.23,5.23,0,0,1,1.25,1.36c.48.71,1.51-.13.91-.7a6,6,0,0,0-1.86-1.18.3.3,0,0,0-.3.52Z"/><path class="cls-8" d="M88.55,41.06c.7-.74.29-1.69.23-2.62a33.44,33.44,0,0,1,.3-3.88A.57.57,0,0,0,88,34.27c-1.23,2.14-.29,4.58.32,6.74a.12.12,0,0,0,.21.05Z"/><path class="cls-8" d="M88,37.23a.05.05,0,0,0,0-.1.05.05,0,1,0,0,.1Z"/><path class="cls-8" d="M88.92,41.38c0-1.39-.24-2.73-.21-4.12A32,32,0,0,0,89,33.13a.5.5,0,0,0-.92-.25c-1.42,2.28-.85,6.35.27,8.65a.31.31,0,0,0,.58-.15Z"/><path class="cls-8" d="M87.94,35.47a17.65,17.65,0,0,1,.68,2.39,18.14,18.14,0,0,0,.4,2.45c.14.4.84.5.92,0,.26-1.63-.53-3.6-1.14-5.08-.21-.51-1-.31-.86.24Z"/><path class="cls-8" d="M86.14,42.75c-.49.67-1.29,1.55-1.28,2.43a.43.43,0,0,0,.64.36A4.78,4.78,0,0,0,86.73,43c.11-.37-.39-.53-.59-.25Z"/><path class="cls-8" d="M85,42.53l-.71,1.2a2.82,2.82,0,0,0-.5,1.1c-.05.39.46.47.7.28a3.17,3.17,0,0,0,.66-1L85.74,43a.45.45,0,0,0-.77-.45Z"/><path class="cls-8" d="M83.5,42.66a10.26,10.26,0,0,0-.88,1.4,2.83,2.83,0,0,0-.51,1.46.43.43,0,0,0,.73.3,4.39,4.39,0,0,0,.72-1.31,10.19,10.19,0,0,1,.86-1.31c.41-.54-.52-1.08-.92-.54Z"/><path class="cls-8" d="M82.69,42.25a8.83,8.83,0,0,0-1.33,1.83c-.28.55-.7,1.28-.38,1.87a.36.36,0,0,0,.5.13c.52-.28.63-1,.85-1.56a12.58,12.58,0,0,1,.93-1.83c.22-.35-.29-.76-.57-.44Z"/><path class="cls-8" d="M81.2,43.68c-.07.89-.16,1.78-.18,2.67a.35.35,0,0,0,.69.09c.25-.86.44-1.73.65-2.6a.59.59,0,1,0-1.16-.16Z"/><path class="cls-8" d="M84.35,42c-.65-.37-1.57.3-2.07.69s-1.5,1.34-1,2,1.29-.32,1.63-.72a6.42,6.42,0,0,1,.88-.85c.26-.22.6-.45.69-.79a.33.33,0,0,0-.15-.36Z"/><path class="cls-8" d="M82.67,42a3.4,3.4,0,0,0-1.78.74c-.42.34-1.11,1.06-1,1.64a.43.43,0,0,0,.65.37c.28-.15.37-.39.54-.65a5.86,5.86,0,0,1,.54-.67,10,10,0,0,1,1.2-1.23c.11-.09,0-.21-.11-.2Z"/><path class="cls-8" d="M84.75,42a3.32,3.32,0,0,0-1.18,2.44c0,.25.34.45.53.22a7,7,0,0,0,1.06-2.42.25.25,0,0,0-.41-.24Z"/><path class="cls-8" d="M86.35,41.94c-.52.69-1,1.89-.54,2.72a.45.45,0,0,0,.78,0,2.72,2.72,0,0,0,.26-1.23c0-.45.07-.88.1-1.33s-.43-.39-.6-.16Z"/><path class="cls-8" d="M86.6,42.08a9.85,9.85,0,0,0,.17,4c.08.47.76.32.78-.11a9.47,9.47,0,0,0-.21-3.93.39.39,0,0,0-.74,0Z"/><path class="cls-8" d="M87.24,41.88a10.64,10.64,0,0,0-.13,2.46,8.87,8.87,0,0,0,.15,2.52.37.37,0,0,0,.71,0,6.91,6.91,0,0,0-.39-5,.19.19,0,0,0-.34.05Z"/><path class="cls-8" d="M85,50.1c-1.38,2.3-1.08,5.83-.44,8.33a.29.29,0,0,0,.57-.07,40.06,40.06,0,0,1-.06-4.1,31,31,0,0,0,.27-4.07A.19.19,0,0,0,85,50.1Z"/><path class="cls-8" d="M79.35,70.19c-.45-.33-.39-.82-.69-1.21a.23.23,0,0,0-.4,0c-.42.61.29,1.41.79,1.72.33.2.6-.29.3-.51Z"/><path class="cls-8" d="M81.86,70c.09-.36-.14-.49-.32-.78a6.58,6.58,0,0,0-.58-.87.23.23,0,0,0-.39.1,2.11,2.11,0,0,0,.66,1.64.38.38,0,0,0,.38.1h.07a.25.25,0,0,0,.18-.18Z"/><path class="cls-8" d="M84.73,69.55a4.4,4.4,0,0,0-.5-2,.36.36,0,0,0-.7,0,2.1,2.1,0,0,0,0,1.29,1.42,1.42,0,0,0,.67,1,.4.4,0,0,0,.58-.24Z"/><path class="cls-8" d="M86.78,68.8c.23-.12.26-.31.29-.56a2.65,2.65,0,0,0,0-1c-.07-.22-.43-.31-.53-.07a2.74,2.74,0,0,0-.14,1c0,.27,0,.49.23.65a.14.14,0,0,0,.15,0Z"/><path class="cls-8" d="M88.33,68.41c.45-.06.67-.71.8-1.09a3.47,3.47,0,0,0,.15-1.6.17.17,0,0,0-.3,0c-.21.47-.36,1-.55,1.45s-.44.81-.27,1.21a.15.15,0,0,0,.17.07Z"/><path class="cls-8" d="M93.54,66.41A4.18,4.18,0,0,0,93,65.26a2.81,2.81,0,0,0-.76-1,.39.39,0,0,0-.57.44,3,3,0,0,0,.66,1.13,3.84,3.84,0,0,0,.79.91c.24.17.53-.12.47-.36Z"/><path class="cls-8" d="M91.6,63.37h.06a.37.37,0,0,0,.32-.18,8,8,0,0,0,.6-2,2.5,2.5,0,0,0,0-1.64c-.07-.17-.3-.15-.41-.06a2.69,2.69,0,0,0-.64,1.57A8.47,8.47,0,0,0,91.3,63a.37.37,0,0,0,.27.36Z"/><path class="cls-8" d="M89.46,60.09a4.4,4.4,0,0,0,2.48-1.9c.54-.69,1.34-1.86,1.13-2.78a.44.44,0,0,0-.73-.19,3,3,0,0,0-.65,1.08,10.29,10.29,0,0,1-.77,1.21,27.66,27.66,0,0,0-1.86,2.06c-.18.29.11.56.4.52Z"/><path class="cls-8" d="M95.24,65.76a3,3,0,0,0,.33-1.41.29.29,0,0,0-.53-.14,2.92,2.92,0,0,0-.41,1.39.33.33,0,0,0,.61.16Z"/><path class="cls-8" d="M97,64.83A2.44,2.44,0,0,0,97.25,63a.22.22,0,0,0-.36-.09,2.43,2.43,0,0,0-.45,1.74c0,.26.4.42.54.14Z"/><path class="cls-8" d="M98.32,63.79a1.44,1.44,0,0,0,.35-1.52c-.06-.13-.23-.06-.27,0-.17.42-.19.9-.34,1.33-.06.14.16.27.26.15Z"/><path class="cls-8" d="M100,62.84a3.27,3.27,0,0,0,.16-1.54.18.18,0,0,0-.3-.08,3.22,3.22,0,0,0-.39,1.47c-.05.34.46.5.53.15Z"/><path class="cls-8" d="M78.57,42.85a6,6,0,0,0-.37,2.9c0,1.31-.08,2.62-.11,3.93,0,.06.08.07.09,0A22.91,22.91,0,0,0,78.79,46c.08-1,.35-2.27-.2-3.16Z"/><path class="cls-8" d="M78,50.23a.05.05,0,0,0,0-.1.05.05,0,0,0,0,.1Z"/><path class="cls-8" d="M83.37,74.15a29.82,29.82,0,0,0,11.76-3.74c.16-.09.05-.38-.14-.31-3.87,1.46-7.74,2.4-11.68,3.61-.23.07-.2.46.06.44Z"/><path class="cls-8" d="M101.17,63.12c-.29.29-.13.87-.08,1.25a5.4,5.4,0,0,0,.3,1.5.22.22,0,0,0,.4-.05,5.27,5.27,0,0,0-.11-1.53c-.05-.38-.05-1-.41-1.19a.1.1,0,0,0-.1,0Z"/><path class="cls-8" d="M78.2,71.91a2.55,2.55,0,0,0,.9,2.77.19.19,0,0,0,.27-.2,7.16,7.16,0,0,0-.51-1.22c-.15-.42-.11-.9-.28-1.3-.06-.15-.29-.23-.38,0Z"/><path class="cls-8" d="M91.71,68.86a11.84,11.84,0,0,0,5-1.93c.07-.06,0-.16-.07-.12a37.64,37.64,0,0,1-4.92,1.91.07.07,0,0,0,0,.14Z"/><path class="cls-8" d="M89.88,76.76c-.66,1.4.15,3.54.88,4.79.54,1,1.94,2.31,2.87,1a.42.42,0,0,0-.07-.5c-.29-.29-.67-.41-1-.67A4.18,4.18,0,0,1,91.65,80c-.47-1-.54-2.29-1.17-3.19a.36.36,0,0,0-.6,0Z"/><path class="cls-8" d="M84.9,76.3a8.07,8.07,0,0,0-.44,3.18A24.26,24.26,0,0,0,84,83.7a.33.33,0,0,0,.61.16,9.29,9.29,0,0,0,.79-3.81c.11-1.23.31-2.66-.34-3.75a.11.11,0,0,0-.19,0Z"/><path class="cls-8" d="M101.84,73.76a10,10,0,0,0,.67,4.34,2.74,2.74,0,0,0,2.12,2.16c.44.06.68-.6.37-.88a4.49,4.49,0,0,1-1.58-2.62,9,9,0,0,0-1.06-3.07c-.13-.17-.47-.2-.52.07Z"/><path class="cls-8" d="M98.39,70.41a2.21,2.21,0,0,0,.41,1.75.29.29,0,0,0,.53-.15,2.15,2.15,0,0,0-.75-1.68.13.13,0,0,0-.19.08Z"/><path class="cls-9" d="M82.84,36.46a20.7,20.7,0,0,0,1.42-2.87c.5-1,1.11-1.83,1.66-2.75.09-.14-.12-.32-.24-.19a16.17,16.17,0,0,0-1.85,2.92,7.56,7.56,0,0,0-1.06,2.87s0,.05.07,0Z"/><path class="cls-9" d="M80.86,51.47a22.45,22.45,0,0,0-1.26,8.59.2.2,0,0,0,.4,0c.33-2.84.91-5.7,1.15-8.55,0-.17-.24-.19-.29,0Z"/><path class="cls-9" d="M93.51,26.53a20.81,20.81,0,0,1,2,3.3c.5,1.23.49,2.57,1,3.77a.31.31,0,0,0,.59,0c.84-2.41-1.33-6.06-3.46-7.15,0,0-.11,0-.07.08Z"/><path class="cls-9" d="M78.16,16a19.94,19.94,0,0,0,2.07-1.59,10.6,10.6,0,0,0,1.92-1.74c.14-.19-.12-.39-.3-.3a10.43,10.43,0,0,0-1.94,1.51,20.07,20.07,0,0,0-2,1.8c-.15.17,0,.45.24.32Z"/><path class="cls-9" d="M92.13,11.29c.9.64,1.94,1,2.89,1.57a15.37,15.37,0,0,0,2.6,1.5A.25.25,0,0,0,97.9,14a6.55,6.55,0,0,0-2.6-2A7.61,7.61,0,0,0,92.22,11c-.19,0-.22.24-.09.34Z"/><path class="cls-9" d="M85.7,23c.23.26.59.19.91.21a3,3,0,0,0,1.26-.08.31.31,0,0,0,0-.59,2.82,2.82,0,0,0-1.26,0c-.34,0-.71,0-.93.3a.14.14,0,0,0,0,.15Z"/><path class="cls-9" d="M80.8,77.79a22,22,0,0,0,3.1,8.8.12.12,0,0,0,.23-.09c-.86-3-2.11-5.84-3-8.79a.15.15,0,0,0-.29.08Z"/><path class="cls-9" d="M90.68,74.32c-.13.12-.12.09-.11.27a0,0,0,0,0,0,0,4.89,4.89,0,0,0,2.49-.35,10.64,10.64,0,0,0,2.74-1,.22.22,0,0,0-.11-.41,10.45,10.45,0,0,0-2.85.66,5.48,5.48,0,0,0-2.12.89s0-.11-.07-.07Z"/><path class="cls-10" d="M92.57,85C87,86,84.45,92.68,84.21,97.69c-.32,6.82,2.41,14.28,7.57,18.8,1.39,1.23,3.44-.8,2-2-4.15-3.67-5.89-8.91-6.6-14.29-.85-6.45.93-10.43,5.64-14.64.24-.21,0-.54-.29-.49Z"/><path class="cls-10" d="M90.7,115.38c0,1.21,1.45,2.43,2.29,3.17s2.09,2,3.27,1.79a.23.23,0,0,0,.13-.34,2.66,2.66,0,0,0-1.12-1,15.14,15.14,0,0,1-1.83-1.35c-.82-.72-1.57-2-2.58-2.36a.13.13,0,0,0-.16.12Z"/><path class="cls-10" d="M92.63,115.89c1.39,5.77,7.56,9.41,13.11,10.27,6.72,1,12.79-2,16.79-7.34,9.17-12.24,2.81-29.28-11-34.41-1.9-.71-2.73,2.34-.84,3,11.49,4.24,17.83,18.29,10.62,29.09a15.68,15.68,0,0,1-14,7.1c-6.13-.4-9.59-4.65-14.07-8.12a.39.39,0,0,0-.64.37Z"/><path class="cls-10" d="M91.26,87a1.94,1.94,0,0,0,.91-.44,6.82,6.82,0,0,1,1.27-.84,6.42,6.42,0,0,1,1.28-.5A3.89,3.89,0,0,0,96,84.81.5.5,0,0,0,96,84c-.91-.42-2.13.11-3,.53a6.43,6.43,0,0,0-1.28.87A1.74,1.74,0,0,0,91,86.7a.23.23,0,0,0,.28.28Z"/><path class="cls-10" d="M91.29,86.23a27.21,27.21,0,0,1,2.53-1.1c.71-.18,1.65,0,2.11-.66a.35.35,0,0,0-.05-.43c-.54-.7-1.95-.2-2.64.06a4.49,4.49,0,0,0-2.31,1.67.32.32,0,0,0,.36.46Z"/><path class="cls-10" d="M94.32,84.72c.62.41,2.3-.22,3-.3a40.33,40.33,0,0,0,4.13-.31.47.47,0,0,0,0-.89,10.48,10.48,0,0,0-3.7.14,10.06,10.06,0,0,0-3.26.8.37.37,0,0,0-.17.42s0,.11,0,.14Z"/><path class="cls-10" d="M94.87,84.49c5.62-.38,10.16-.58,15.64,1.19.71.23,1.22-.92.51-1.23-4.86-2.13-11.38-2.89-16.32-.58a.33.33,0,0,0,.17.62Z"/><path class="cls-10" d="M88.52,104.42C88.78,97.3,89.83,89.7,98,87.54S112.67,91.46,114.67,99a16.57,16.57,0,0,1-.71,11.6c-2.3,5-7,6.08-12,5.14-4.75-.88-7.12-3.06-9-7.38a23.17,23.17,0,0,1-2-13.62c.24-1.63-2-3-2.9-1.22-2.83,5.42-.7,11.51,1.61,16.76,2.38,5.42,5.36,8,11.25,9.12,4.6.88,10.54,1.28,13.88-2.61A19.64,19.64,0,0,0,119,101.59c-1.48-10.33-9.21-19.84-20.55-17.93C89.68,85.14,81,96.35,87.05,104.82a.8.8,0,0,0,1.47-.4Z"/><path class="cls-10" d="M113.06,88.6v.08a.06.06,0,0,0,.11,0V88.6c0-.08-.14-.08-.13,0Z"/><path class="cls-10" d="M108.58,86.49c.61.61,1.3,1.1,1.92,1.69.86.81,1.45,1.7,2.8,1.38a1.56,1.56,0,0,0,1.09-1.09l0-.13a1.81,1.81,0,0,0-.46-1.75,6.78,6.78,0,0,0-4.6-2,1.13,1.13,0,0,0-.79,1.9Z"/><path class="cls-10" d="M96.17,119.13c6.2,6.07,19.22,5.88,23.1-2.74s3.06-22.65-4.86-28.66c-1.54-1.16-3.22,1.28-2,2.59,5.62,6,6.35,14.69,4.27,22.49-2.87,10.72-12.57,5.29-19.87,4.77a.92.92,0,0,0-.64,1.55Z"/><path class="cls-10" d="M113.21,89.37a13.79,13.79,0,0,0,2.08,4.12,22.77,22.77,0,0,1,2.76,8.23c1,6,2.06,11.63-3,16.08a1.76,1.76,0,0,0,1.22,3c5.2.14,6.88-8.29,7.68-12.09,1.22-5.81.31-11.17-4.09-15.38a1.68,1.68,0,0,0-2.38,2.38c3.32,3.51,4.11,7.4,3.18,12.09-.38,1.93-1.86,9.72-4.39,9.53l1.23,3c5.1-4.33,5.57-9.73,4.59-16-.85-5.43-1.91-13.69-8.07-15.76a.7.7,0,0,0-.86.86Z"/><path class="cls-10" d="M123.15,106.25a11,11,0,0,0-.84,2.79,9.69,9.69,0,0,0-.71,3,1.37,1.37,0,0,0,2.31.95c1.54-1.29,2-5,1-6.71a1,1,0,0,0-1.76,0Z"/><path class="cls-10" d="M105.4,123.67c4.25,2.62,12.78-.74,14.25-5.46a.71.71,0,0,0-1-.79c-2,1.45-3.49,3.33-5.92,4.31s-4.75.73-7.19,1.15c-.38.07-.39.61-.1.79Z"/><path class="cls-10" d="M105.72,124.88c4.16,2.19,12.28.05,14.5-4.24.15-.3-.1-.72-.46-.6-2.31.8-4.27,2.32-6.65,3s-4.84.47-7.27.92a.5.5,0,0,0-.12.91Z"/><path class="cls-10" d="M118.24,122.33a6.25,6.25,0,0,0,3.68-2.32c.88-1,2.21-2.46,2.21-3.86a.42.42,0,0,0-.7-.29,6.19,6.19,0,0,0-1.16,1.6,11.91,11.91,0,0,1-1.44,1.73,25.27,25.27,0,0,0-2.82,2.75.26.26,0,0,0,.23.39Z"/><path class="cls-10" d="M105.14,125.29a10.22,10.22,0,0,0,5.92.89c1.86-.28,4.42-.86,5.43-2.59a.82.82,0,0,0-.7-1.22c-1.64.07-3.06,1.11-4.67,1.48a23,23,0,0,1-5.73.52c-.46,0-.71.72-.25.92Z"/><path class="cls-11" d="M96,88c-9.47,4.13-7,19.69-1.21,25.85a15.4,15.4,0,0,0,12.56,4.82c6-.66,8.59-4.89,9.77-10.36.4-1.83-2.4-2.62-2.81-.78-1,4.57-3.69,8.5-8.89,8.27a13.27,13.27,0,0,1-10.17-6.2c-4-6.26-5-15.42,1.48-20.34A.73.73,0,0,0,96,88Z"/><path class="cls-11" d="M96.69,89.2a11.4,11.4,0,0,1,2.77-.53c.79,0,1.55.3,2.27-.08a.53.53,0,0,0,.11-.82c-.61-.72-1.86-.56-2.71-.46a6.28,6.28,0,0,0-2.83,1,.51.51,0,0,0,.39.93Z"/><path class="cls-11" d="M96.28,88.47c2.2.1,4.28-.26,6.47.26,2,.48,3.51,2.21,5.44,2.57a.63.63,0,0,0,.77-.77c-.59-2.23-4-3.37-6-3.79-2.3-.48-5-.41-6.9,1.19-.22.19,0,.53.23.54Z"/><path class="cls-11" d="M106,88.32c1.13,1.82,3.08,3.06,4.28,4.9s1.75,4,2.71,6c.23.47.91.21.93-.25.1-2.41-1.17-4.84-2.5-6.77-1.17-1.69-2.89-3.94-5-4.41a.39.39,0,0,0-.43.56Z"/><path class="cls-11" d="M108.55,89.29c1.31,2.48,3.38,4.46,4.67,7,2.06,4,2.3,7.78,1.67,12.18-.1.74,1,1.42,1.36.57,2.83-6.65-1.13-16.53-7.18-20.26-.34-.21-.69.2-.52.53Z"/><path class="cls-11" d="M116.51,109.13a12.59,12.59,0,0,0,1.76-5.74c0-1.13-1.79-1-1.58.22l0,.27c.12.62,1,.61,1.26.17l.16-.25-1.49-.41a17.52,17.52,0,0,1-1.13,5.17c-.29.64.63,1.22,1,.57Z"/><path class="cls-11" d="M117,107.38a21.57,21.57,0,0,1-.59,3.74,10.75,10.75,0,0,1-2.61,3.68c-.24.26.07.7.39.51,2.26-1.38,4.25-5.33,3.26-7.93-.07-.2-.4-.26-.45,0Z"/><path class="cls-11" d="M115.89,113.37c.69-1,1.5-2.6,1.14-3.82a.21.21,0,0,0-.37,0,5.1,5.1,0,0,0-.59,1.75c-.17.66-.37,1.31-.54,2a.2.2,0,0,0,.36.15Z"/><path class="cls-11" d="M112.8,98.05c-.55,2.22-.12,4.41-.11,6.66s-1,4.79-.18,6.88a1.21,1.21,0,0,0,2,.52c1.8-1.71,1.61-5.06,1.5-7.4-.12-2.51-.47-5-2.29-6.9a.55.55,0,0,0-.91.24Z"/><path class="cls-11" d="M116.35,99.25a16.48,16.48,0,0,0,.48,3c.22,1.13.28,2.29.55,3.41a.34.34,0,0,0,.66-.09,11.73,11.73,0,0,0-1.4-6.43.16.16,0,0,0-.29.08Z"/><path class="cls-11" d="M108.94,89.24c-.1-.52-.91-.68-1.35-.83a3.41,3.41,0,0,0-1.94-.2.21.21,0,0,0-.05.38,9,9,0,0,0,1.79.53c.46.13,1,.55,1.47.31a.18.18,0,0,0,.08-.19Z"/><path class="cls-11" d="M105.7,88a2,2,0,0,0,.81.42,5.13,5.13,0,0,1,1,.54c.31.19,1,.78,1.27.29a.39.39,0,0,0,0-.39,2.81,2.81,0,0,0-1.42-1.09,2,2,0,0,0-1.65-.17.26.26,0,0,0,0,.4Z"/><path class="cls-11" d="M109.62,91.57c-3.1-4.57-9.55-5.08-13.89-1.91-5.34,3.91-5.16,10.58-2.44,16,2.59,5.17,7.5,12.42,14.35,10.58,6.53-1.75,6.1-10.34,6-15.64-.18-7.23-3.77-10-10.95-10.39-6.48-.31-9.9,4-8.89,10.45.8,5.12,4.24,12.62,10.07,13.4,7.08,1,7.91-7,7.9-12.18,0-3.37-.33-6.61-3.54-8.42a11.77,11.77,0,0,0-8.66-.68c-7.13,2.8-.37,14.06,2.16,17.66,1.21,1.73,4.09.08,2.86-1.67a38.5,38.5,0,0,1-3.13-4.88c-.67-1.33-2.41-5.55-1.34-7.1,2.3-3.33,7.58.24,8.32,2.83a14.28,14.28,0,0,1,0,4.52c-.23,3.1-1.44,8.25-5.81,5.81-1.67-.93-2.73-3-3.56-4.66-1.23-2.46-2.73-6.07-1.7-8.85,1.23-3.26,3.84-2.82,6.51-2.52,3.22.37,5.41,1.52,6.25,4.8.51,2,.07,4.58,0,6.61-.12,2.84.11,7.16-4.24,7.62-2.84.3-5-2.2-6.47-4.18-2.7-3.62-5.89-8.76-3.88-13.31,2.49-5.62,8.11-4.66,12.47-2.23,1,.56,2.39-.62,1.68-1.68Z"/><path class="cls-11" d="M108,98.2c-.29-3.47-6.5-4-8.34-1.46-1.32,1.82-.08,4.22.63,6a53.07,53.07,0,0,0,3.89,7.94c.68,1.14,2.77,1.06,3-.39.58-3.29,1.15-6.58,1.64-9.88.3-2-2.8-2.9-3.1-.86-.48,3.31-1,6.59-1.74,9.86l3-.4a51.8,51.8,0,0,1-3.78-8.05c-.53-1.46-.78-2.53,1.18-2.58,1.16,0,1.92.65,3.09.4a.64.64,0,0,0,.47-.61Z"/><path class="cls-11" d="M107.48,99.66c-.32,1.87-.71,3.72-1,5.6-.22,1.4-.92,3,.34,4.07a.94.94,0,0,0,1.09.14l.38-.18A1.47,1.47,0,0,0,109,108a27.6,27.6,0,0,0-.79-8.35.39.39,0,0,0-.75,0Z"/><path class="cls-11" d="M104.84,98.81c-1.81,1.22-1.52,4.82-1.43,6.72a1.73,1.73,0,0,0,3.46,0c.07-1.89.32-5.52-1.5-6.72a.53.53,0,0,0-.53,0Z"/><path class="cls-11" d="M105,97.62c-2.79-1.77-2.75,6.52-2.63,7.57.26,2.25,3.8,2.33,3.59,0-.12-1.33-.29-2.67-.32-4a12.58,12.58,0,0,0-.12-1.73,5.78,5.78,0,0,1-.31-1.31.49.49,0,0,0-.21-.52Z"/><path class="cls-11" d="M105.23,96.63a4,4,0,0,0-3.27.87,3.72,3.72,0,0,0-1.11,3.49,1.55,1.55,0,0,0,3-.82c-.26-.81.09-1.62,1.13-1.54s1.4-1.83.27-2Z"/><path class="cls-11" d="M95.43,108.45c-1,1.29-.3,3.33.6,4.46a5.37,5.37,0,0,0,4.28,2.1c1.68-.11,2.27-2.73.42-3.11a3.52,3.52,0,0,1-2.53-1.28c-.61-.81-1-1.89-1.93-2.39a.63.63,0,0,0-.84.22Z"/><path class="cls-12" d="M122,124.91c5.32-1.88,10.44-4.45,15.6-6.75,5.91-2.64,11.93-4.74,17.93-7.1.69-.27.69-1.51-.19-1.41-5.32.59-10.27,3.16-15.05,5.42-6.21,2.94-12.68,5.64-18.61,9.08-.4.23-.14.92.32.76Z"/><path class="cls-12" d="M125.34,119.63c5.51-.84,11-4.49,16-6.71s11.57-3.58,15.8-7.14a.9.9,0,0,0-.63-1.52c-5.26.1-11.07,3.63-15.8,5.8-5.17,2.37-11.88,4.68-15.81,8.9a.41.41,0,0,0,.39.67Z"/><path class="cls-12" d="M152.5,107.13a9.33,9.33,0,0,0-1.16,2.45c-.21.81-.42,1.91.29,2.51a.83.83,0,0,0,1.27-.17c.44-.63.15-1.4.11-2.11a5.46,5.46,0,0,1,.29-2.34c.18-.48-.54-.75-.8-.34Z"/><path class="cls-12" d="M150.6,113.37c4.37-1.56,8.4-4.3,12.56-6.37s9.17-3.21,12.77-6.12a1.05,1.05,0,0,0-.74-1.78c-4.4.15-8.91,3-12.73,5-4.3,2.23-9.1,4.81-12.33,8.48-.3.33,0,1,.47.81Z"/><path class="cls-12" d="M170.57,102.1a7.79,7.79,0,0,0-.26,3.56c.25,1.44,2.72.71,2-.84a17.25,17.25,0,0,1-1.11-2.72.33.33,0,0,0-.63,0Z"/><path class="cls-12" d="M170.64,106.43c2.89,0,5.59-1.8,8.16-3,2.41-1.11,6.43-1.77,7.59-4.32a1.21,1.21,0,0,0-.7-1.73c-2.64-1-5.89,1.53-8.21,2.71-2.65,1.35-5.84,2.66-7.45,5.27a.71.71,0,0,0,.61,1.06Z"/><path class="cls-12" d="M128.91,113.4c4.89-1,9.38-4.11,13.84-6.26,4.93-2.39,10.76-4,15.17-7.26.74-.54.64-2.13-.53-2-5.08.67-10,3.49-14.52,5.74-4.88,2.42-10.8,4.79-14.4,9a.46.46,0,0,0,.44.76Z"/><path class="cls-12" d="M156.54,98.48a7.51,7.51,0,0,0-.8,4,1,1,0,0,0,.71.7.93.93,0,0,0,1-.26,1,1,0,0,0,.26-1,7,7,0,0,1-.29-3.27.45.45,0,0,0-.86-.24Z"/><path class="cls-12" d="M156.16,103c4.52-2.16,8.86-4.63,13.49-6.56,3.67-1.53,8-2.23,11.16-4.67.65-.51,0-1.4-.6-1.46-4.23-.41-8.83,2.16-12.59,3.93a52.61,52.61,0,0,0-12.3,7.66c-.64.55.17,1.42.84,1.1Z"/><path class="cls-12" d="M178.13,91.69a30,30,0,0,0-3.89,3.49,1.1,1.1,0,1,0,1.85,1.08,12.3,12.3,0,0,1,2.58-4c.35-.36-.17-.84-.54-.54Z"/><path class="cls-12" d="M172.55,98.87c3.44-.64,6.79-2.2,10.1-3.33s6.89-1.93,10.22-3.16a1.39,1.39,0,0,0-.73-2.67c-6.47,1.09-15,4-20.12,8.24-.46.38,0,1,.53.92Z"/><path class="cls-12" d="M91.87,127.15a.05.05,0,1,0,0-.1.05.05,0,0,0,0,.1Z"/><path class="cls-12" d="M91.53,128.28c9.08,1.45,19.21-.1,28.39-.45,10-.37,20.12-.18,30-1.4,2.2-.27,2.35-3.58,0-3.54-10,.15-20,1.51-30,2-9.24.48-19.34-.45-28.39,1.43a1,1,0,0,0,0,1.93Z"/><path class="cls-12" d="M95.78,131.29c7.9.55,16.23-.86,24.15-1.19s16.29.28,24.19-.73a1.7,1.7,0,0,0,0-3.39c-8.13-1.08-17-.12-25.16.31-7.67.4-16.1.26-23.55,2.22a1.42,1.42,0,0,0,.37,2.78Z"/><path class="cls-12" d="M98.22,132.06c2,2.16,4,1.29,6.94,1.07q6.28-.47,12.59-.83,5.82-.33,11.64-.51c4-.12,8.24.36,12-.84a1.4,1.4,0,0,0,0-2.68c-3.8-1.13-8.08-.51-12-.38q-6.31.22-12.61.6c-4.2.26-8.4.57-12.59,1-2.85.29-4.49-.12-6,2.28a.24.24,0,0,0,0,.28Z"/><path class="cls-12" d="M103.12,134.44c5.37,1.25,11.46,0,16.92-.36,5.66-.38,11.48-.45,17.08-1.45,1.78-.31,1.27-3-.42-3-5.84-.19-11.82.64-17.64,1.09-5.17.39-11.07.08-15.94,2-.79.3-1,1.58,0,1.8Z"/><path class="cls-12" d="M111.64,135.57c2.94,1.18,6.55.86,9.68.73,2.81-.11,6.23.11,8.6-1.52a1,1,0,0,0-.22-1.72c-2.74-1-6.19,0-9.06.28s-6.21.09-9,1.15a.56.56,0,0,0,0,1.08Z"/><path class="cls-13" d="M72.61,40.5c.13.41.48.71.61,1.13s0,.88.14,1.31a.51.51,0,0,0,.92.12c.56-.83-.11-2.9-1.18-3.05a.41.41,0,0,0-.49.49Z"/><path class="cls-13" d="M73.32,40.07c0,.51.55.79.94,1a8.67,8.67,0,0,0,1.68.81.49.49,0,0,0,.49-.12.45.45,0,0,0,.14-.36.52.52,0,0,0-.36-.48,14.64,14.64,0,0,1-1.57-.69c-.36-.19-.75-.49-1.17-.37a.2.2,0,0,0-.15.18Z"/><path class="cls-13" d="M73.49,39.94a4.31,4.31,0,0,0,1.56,1.31,13.78,13.78,0,0,0,2,1.15c.42.17.77-.46.44-.74a14.05,14.05,0,0,0-2-1.23,4.23,4.23,0,0,0-1.88-.76.18.18,0,0,0-.16.27Z"/><path class="cls-13" d="M77.08,41.79a1.1,1.1,0,0,0-.43.83c-.09.45-.18.89-.26,1.34s.7.75.8.22.15-.9.22-1.35a1.17,1.17,0,0,0-.08-1,.18.18,0,0,0-.25-.07Z"/><path class="cls-13" d="M76.5,43.81c-1.1-.35-2.39.06-3.51.18a19.41,19.41,0,0,0-3.58.37.33.33,0,0,0,0,.62,11.14,11.14,0,0,0,4.11,0,5.59,5.59,0,0,0,3.07-.82.2.2,0,0,0-.09-.34Z"/><path class="cls-13" d="M66.5,43.49a.17.17,0,0,0,0-.33.17.17,0,0,0,0,.33Z"/><path class="cls-13" d="M66.53,43.15l-.07,0a.23.23,0,0,0-.28,0l-.11.1a.26.26,0,0,0,0,.37,5.07,5.07,0,0,0,4.75,1.66.5.5,0,0,0-.14-1,11.43,11.43,0,0,1-2.26-.08,6,6,0,0,1-2-1l.09.36a.86.86,0,0,0,.11-.33.13.13,0,0,0-.06-.1Z"/><path class="cls-13" d="M67.25,43.8a1.19,1.19,0,0,0,.85.18.16.16,0,0,0,0-.29,1.12,1.12,0,0,0-.83-.1c-.1,0-.18.16-.06.21Z"/><path class="cls-13" d="M66.91,44c.31.16.63.29.93.07a.31.31,0,0,0,.06-.48c-.25-.29-.58-.23-.92-.13a.3.3,0,0,0-.07.54Z"/><path class="cls-13" d="M71.44,44.31a1.76,1.76,0,0,0,.44-.42.39.39,0,0,0,.06-.48.34.34,0,0,0-.24-.19.41.41,0,0,0-.45.19A2.13,2.13,0,0,0,71,44c0,.23.19.47.42.33Z"/><path class="cls-13" d="M71.45,43.74c.81.88,2.59,0,2.83-1a.61.61,0,0,0-1-.58,3.4,3.4,0,0,1-.8.71c-.31.17-.64.2-1,.34a.34.34,0,0,0-.07.53Z"/><path class="cls-13" d="M71.79,44.55A2.83,2.83,0,0,0,74.93,44a2.16,2.16,0,0,0,.22-3c-.56-.65-1.64.19-1.19.92.8,1.28-1.32,1.55-2.08,1.84-.28.11-.43.56-.09.72Z"/><path class="cls-13" d="M74.4,41.56c0,.4.4.63.6,1a1.39,1.39,0,0,1,.21,1.1.66.66,0,0,0,.18.68.71.71,0,0,0,.49.21.72.72,0,0,0,.68-.52,2.65,2.65,0,0,0-.35-2c-.3-.45-1.08-1.13-1.63-.73a.39.39,0,0,0-.18.31Z"/><path class="cls-13" d="M76,44.21c1,.12,1.64-1.19,1.45-2-.24-1-1.88-.6-1.61.44a1.43,1.43,0,0,1,.13.67,3,3,0,0,1-.21.6c-.07.17.1.3.24.32Z"/><path class="cls-13" d="M75.92,42.58A.77.77,0,0,0,76,43a.23.23,0,0,0,.45,0,.67.67,0,0,0,0-.37.27.27,0,0,0-.53,0Z"/><path class="cls-14" d="M66.49,40.21a1.67,1.67,0,0,0,.16,2.51c1.22,1.05,2.92.46,4.34.41,1,0,2.3-.13,2.14-1.46A1.61,1.61,0,0,0,71,40.37a.37.37,0,0,0-.13.5c.14.22.3.28.46.44s.73.31.16.71a2.93,2.93,0,0,1-.78,0c-.52.06-1,.22-1.52.31a3.75,3.75,0,0,1-1.25.06c-.66-.12-2-.73-1-1.79.24-.29-.15-.7-.42-.42Z"/><path class="cls-14" d="M66.36,40.81a16.23,16.23,0,0,0,2.79.2A10.06,10.06,0,0,0,72,41,.48.48,0,0,0,72,40a10.07,10.07,0,0,0-2.85,0,17.31,17.31,0,0,0-2.79.22.3.3,0,0,0,0,.58Z"/><path class="cls-14" d="M66.41,41.67a17.43,17.43,0,0,0,4.84.25c1,0,1-1.58,0-1.53a17.53,17.53,0,0,0-4.84.63.34.34,0,0,0,0,.65Z"/><path class="cls-14" d="M66.82,42.58c1.32.82,3.35.57,4.77.15,1.06-.3.59-1.76-.44-1.61-.83.12-1.64.29-2.46.39a6.36,6.36,0,0,0-1.87.48.35.35,0,0,0,0,.59Z"/><path class="cls-14" d="M68.23,44A5.33,5.33,0,0,0,70,44c.53-.1,1.22-.14,1.49-.67a.43.43,0,0,0-.16-.59c-.49-.27-.92,0-1.43.1s-1.14.23-1.68.41c-.35.12-.44.75,0,.81Z"/><path class="cls-14" d="M66.46,41.83a1.09,1.09,0,0,0,.93.94.53.53,0,1,0,.14-1,3.65,3.65,0,0,0-1,0c-.05,0-.08.06-.08.1Z"/><path class="cls-14" d="M67.49,41.81a3.07,3.07,0,0,0,2.31-.16c.37-.28.41-1-.14-1.1a3,3,0,0,0-2.28.83.26.26,0,0,0,.11.43Z"/><path class="cls-14" d="M68.68,41.88a1.52,1.52,0,0,0,.62-.24c.23-.17.25-.59-.08-.66a1.72,1.72,0,0,0-.78,0c-.56.12-.32,1,.24.86Z"/><path class="cls-15" d="M67.06,40c.64-.07,1.21-.36,1.87-.39A6.4,6.4,0,0,1,71,40c.39.09.81-.46.43-.75-1.12-.87-3.64-.88-4.53.36a.23.23,0,0,0,.2.35Z"/><path class="cls-15" d="M68.48,40a5.79,5.79,0,0,0,1.49.23A1.55,1.55,0,0,0,71.24,40a.34.34,0,0,0,0-.47A1.51,1.51,0,0,0,70,39.23a6.26,6.26,0,0,0-1.49.24.29.29,0,0,0,0,.55Z"/><path class="cls-16" d="M68.24,37.43a2.52,2.52,0,0,0,.84-2.85,29.29,29.29,0,0,0-1.18-3,6.1,6.1,0,0,1,.3-4.69.37.37,0,0,0-.57-.45A4.41,4.41,0,0,0,66,30.77c.29,2.15,2.81,4.52,2.15,6.6,0,0,0,.08.07.06Z"/><path class="cls-16" d="M72.14,36.82c-.49-2.91-2.91-5.91-1.49-8.9.11-.22-.19-.51-.37-.28-2.42,3,0,6.49,1.48,9.35.11.22.42.06.38-.17Z"/><path class="cls-16" d="M73.3,37.31c.88-1.18.07-2.6,0-3.9,0-2.52,2.8-2.41,4.27-3.65a.27.27,0,0,0-.26-.45c-1.54.52-3.93,1-4.68,2.65s.2,3.56,0,5.2c0,.33.41.37.57.15Z"/><path class="cls-17" d="M74.34,18.44a.06.06,0,1,0,0-.12.06.06,0,1,0,0,.12Z"/><path class="cls-17" d="M73.73,18.56Q76.49,16.31,79.2,14c3.15-2.65,3.78-3.4,8.22-3.91,4.09-.46,5.11-.26,8.4,1.67a21.89,21.89,0,0,1,5.93,4.93c0,.05.12,0,.08-.06-2.8-3.85-8.58-8-13.42-8.46C86.11,8,84.77,9,83,10.34c-3.27,2.52-6.37,5.33-9.48,8.05-.12.1,0,.27.17.17Z"/><path class="cls-17" d="M73.69,18.8s0,0,0,0,0,0,0,0Z"/><path class="cls-17" d="M73.68,18.78A260.56,260.56,0,0,1,102,17.31a.2.2,0,0,0,0-.4,186.83,186.83,0,0,0-28.37,1.73c-.08,0-.06.15,0,.14Z"/><path class="cls-17" d="M73.88,18.85c.9.77,2,.65,3.11.65,2.1,0,4.19,0,6.28,0a.1.1,0,0,0,0-.19c-1.47,0-3,0-4.43,0s-3.68.4-4.82-.55c-.09-.08-.23.05-.14.13Z"/><path class="cls-17" d="M92.77,18.84a19.12,19.12,0,0,0,9.41-1.46c.15-.06.08-.31-.07-.25a28.59,28.59,0,0,1-9.34,1.68s0,0,0,0Z"/><path class="cls-17" d="M83.59,17.8a1.93,1.93,0,0,0-.25.63,3.86,3.86,0,0,1-.64,1.09c-.09.11.07.27.16.16.35-.43,1-1.29.75-1.87Z"/><path class="cls-17" d="M82.72,19.56c.27.56.66,1.07,1,1.62s.51,1.16.77,1.73a.11.11,0,0,0,.2-.09,7.79,7.79,0,0,0-1.82-3.35.07.07,0,0,0-.11.09Z"/><path class="cls-17" d="M84.6,23a5.27,5.27,0,0,0,4.91-.15.12.12,0,0,0-.09-.22,11.82,11.82,0,0,1-2.36.51,10.65,10.65,0,0,1-2.39-.31.09.09,0,0,0-.07.17Z"/><path class="cls-17" d="M90.36,22a3.29,3.29,0,0,0,.07-3.32.12.12,0,0,0-.21.08c0,.53.18,1,.17,1.6s-.21,1-.27,1.57c0,.15.17.16.24.07Z"/><path class="cls-17" d="M84,21.59a4,4,0,0,0,1.72,0c.18,0,.19-.29,0-.29a4.19,4.19,0,0,0-1.73.2s0,.07,0,.08Z"/><path class="cls-17" d="M83.88,17.82a4.18,4.18,0,0,0,.72,1.1c.06.08.18,0,.13-.1A4.37,4.37,0,0,0,84,17.77s-.09,0-.08.05Z"/><path class="cls-17" d="M84.62,17.9a8.46,8.46,0,0,0,.7.86c.1.11.25,0,.16-.15a9.33,9.33,0,0,0-.75-.79c-.06-.06-.16,0-.11.08Z"/><path class="cls-17" d="M85.49,18a3.55,3.55,0,0,1,.48.79.07.07,0,0,0,.14,0,1.29,1.29,0,0,0-.51-.86.08.08,0,1,0-.11.11Z"/><path class="cls-17" d="M86.13,17.68a4.7,4.7,0,0,0,.67,1.07s.13,0,.1-.06a4.25,4.25,0,0,0-.65-1.08.07.07,0,0,0-.12.07Z"/><path class="cls-17" d="M86.83,17.67a1.36,1.36,0,0,0,.51.94c.1.08.24-.05.15-.14a1.59,1.59,0,0,1-.5-.84c0-.11-.18-.06-.16,0Z"/><path class="cls-17" d="M81.44,18.07A4.9,4.9,0,0,0,82,19.22c0,.06.14,0,.11,0A5.39,5.39,0,0,0,81.53,18s-.11,0-.09,0Z"/><path class="cls-17" d="M80.44,18.07a1.75,1.75,0,0,0,.61,1.17.06.06,0,0,0,.08-.08A4.58,4.58,0,0,1,80.55,18a.06.06,0,0,0-.11,0Z"/><path class="cls-17" d="M79.7,18.27c.22.3.43.61.67.9.06.07.18,0,.13-.1-.19-.31-.42-.6-.64-.9-.07-.1-.23,0-.16.1Z"/><path class="cls-17" d="M78.91,18.52a2,2,0,0,1,.5.78c0,.06.11,0,.11,0a1.18,1.18,0,0,0-.5-.87c-.08-.06-.19.05-.11.12Z"/><path class="cls-17" d="M78.47,18.79l.16.17s0,0,0,0l-.16-.16s0,0,0,0Z"/><path class="cls-17" d="M77.21,18.66a5.1,5.1,0,0,0,.58.74s.13,0,.09-.08a5.83,5.83,0,0,0-.57-.74c0-.06-.15,0-.1.08Z"/><path class="cls-17" d="M76.54,18.83a3,3,0,0,0,.44.56s.11,0,.08-.06a3.25,3.25,0,0,0-.37-.59c-.07-.08-.21,0-.15.09Z"/><path class="cls-17" d="M76,18.91a3,3,0,0,0,.41.32,0,0,0,0,0,0-.05,2.65,2.65,0,0,0-.42-.33s-.08,0,0,.06Z"/><path class="cls-17" d="M75.42,18.92c.11.14.22.27.34.4s.16,0,.11-.09a4.46,4.46,0,0,0-.33-.43c-.07-.08-.19,0-.12.12Z"/><path class="cls-17" d="M75.07,19.12s0,0,0,0,0,0,0,0Z"/><path class="cls-17" d="M74.36,18.94a5.3,5.3,0,0,0,.73.51c.07,0,.16-.06.09-.12a3.88,3.88,0,0,0-.75-.49c-.05,0-.12.05-.07.1Z"/><path class="cls-17" d="M93.13,17.5a3,3,0,0,0,1,1.35c.07,0,.14-.06.09-.12-.35-.41-.67-.82-1-1.27a0,0,0,0,0-.08,0Z"/><path class="cls-17" d="M93.68,17.39a13,13,0,0,1,1.14,1.21c.07.08.17,0,.14-.1a2.83,2.83,0,0,0-1.17-1.25.09.09,0,0,0-.11.14Z"/><path class="cls-17" d="M94.65,17.47a9.4,9.4,0,0,0,1.21,1.31c.06,0,.16,0,.11-.09a10.08,10.08,0,0,0-1.2-1.33.08.08,0,1,0-.12.11Z"/><path class="cls-17" d="M95.55,17.6a7.5,7.5,0,0,0,1.15.78c.08,0,.15-.05.09-.12a6.9,6.9,0,0,0-1.14-.85c-.11-.07-.21.11-.1.19Z"/><path class="cls-17" d="M96.27,17.47c.32.33.63.69,1,1a.09.09,0,0,0,.13-.13c-.3-.34-.66-.65-1-1a.08.08,0,0,0-.11.11Z"/><path class="cls-17" d="M97.4,17.73a5.26,5.26,0,0,0,.85.64.08.08,0,0,0,.09-.12,4.23,4.23,0,0,0-.78-.68c-.11-.09-.28.07-.16.16Z"/><path class="cls-17" d="M97.92,17.54a3.88,3.88,0,0,0,.74.66c.07.05.14-.06.09-.11a3.9,3.9,0,0,0-.75-.66c-.07-.05-.13.05-.08.11Z"/><path class="cls-17" d="M98.8,17.66a4.2,4.2,0,0,0,.67.46.06.06,0,0,0,.08-.1,4.62,4.62,0,0,0-.64-.53c-.11-.08-.21.1-.11.17Z"/><path class="cls-17" d="M100,17.74s0,0,0,0,0,0,0,0Z"/><path class="cls-17" d="M100.34,17.8a1.39,1.39,0,0,0,.19.15c.06.05.15,0,.1-.1a1.39,1.39,0,0,0-.15-.19c-.09-.1-.24.05-.14.14Z"/><path class="cls-17" d="M76.39,17c1.6-1.16,3.15-2.43,4.66-3.71,0,0,0-.07,0-.05-1.58,1.19-3.16,2.42-4.65,3.72a0,0,0,1,0,0,0Z"/><path class="cls-17" d="M82.14,12.05a4.26,4.26,0,0,1,.9-.79s0-.07,0,0a2.2,2.2,0,0,0-.88.83s0,0,0,0Z"/><path class="cls-17" d="M81.72,12.54A12.82,12.82,0,0,0,83.52,11c.65-.61,1.34-1.2,1.93-1.86,0,0,0,0,0,0-.68.5-1.29,1.1-1.92,1.66a12.14,12.14,0,0,0-1.84,1.74s0,.06,0,0Z"/><path class="cls-17" d="M87.14,10.09a13.55,13.55,0,0,0-.37,4.39.07.07,0,0,0,.14,0c.09-1.46.1-2.91.3-4.37,0,0-.06-.06-.07,0Z"/><path class="cls-17" d="M85.93,9.77a67.89,67.89,0,0,0-3.63,5.8.07.07,0,1,0,.12.07A64.74,64.74,0,0,0,86,9.8s0-.07-.07,0Z"/><path class="cls-17" d="M88.85,10.19c.6,1.71,1.32,3.4,2.07,5.06,0,.07.16,0,.13-.06-.64-1.7-1.34-3.39-2.14-5a0,0,0,0,0-.06,0Z"/><path class="cls-17" d="M90.2,10a20,20,0,0,0,5.44,3.47s.06,0,0-.05a52.94,52.94,0,0,1-5.35-3.57c-.08-.06-.18.07-.11.15Z"/><path class="cls-17" d="M87.8,11.07a24.21,24.21,0,0,0,.49,3.26c0,.08.15.06.14,0a22.53,22.53,0,0,0-.5-3.26c0-.08-.13-.06-.13,0Z"/><path class="cls-17" d="M83.28,11.82a37.14,37.14,0,0,0-3.2,3.89c-.06.08.07.17.13.1a37.44,37.44,0,0,0,3.17-3.92c0-.05,0-.12-.1-.07Z"/><path class="cls-17" d="M85.63,12.76c-.21.81-.45,1.62-.59,2.45,0,0,.06.06.07,0,.25-.8.41-1.64.59-2.45,0,0-.06-.06-.07,0Z"/><path class="cls-17" d="M90.68,12.27a32.41,32.41,0,0,0,3,3.07.07.07,0,0,0,.1-.1,30.21,30.21,0,0,0-3-3.09c-.08-.07-.18,0-.12.12Z"/><path class="cls-17" d="M88.49,8.92a1.93,1.93,0,0,1,.16.46c0,.07.1.06.12,0a.43.43,0,0,0-.18-.56c-.07-.05-.14,0-.1.1Z"/><path class="cls-17" d="M87.44,9a11,11,0,0,0,.16,1.15.06.06,0,0,0,.11,0A11,11,0,0,0,87.54,9a.05.05,0,0,0-.1,0Z"/><path class="cls-17" d="M86.56,8.94a1.37,1.37,0,0,0-.26.49.06.06,0,0,0,.1.05A1.33,1.33,0,0,0,86.64,9c0-.05,0-.07-.08,0Z"/><path class="cls-17" d="M95.58,12.24A13.64,13.64,0,0,0,100.27,15c.14,0,.19-.16.06-.21a18,18,0,0,1-4.6-2.66c-.11-.08-.26.06-.15.15Z"/><path class="cls-17" d="M94.6,13.94a6.6,6.6,0,0,0,3.27,2.24.07.07,0,0,0,0-.13c-.56-.35-1.16-.6-1.71-1s-1-.82-1.54-1.22a.05.05,0,0,0-.07.08Z"/><path class="cls-17" d="M96.47,14.14c.82.61,1.64,1.25,2.5,1.81.09.05.2-.08.12-.15-.81-.64-1.69-1.21-2.55-1.79-.08,0-.14.07-.07.13Z"/><path class="cls-17" d="M88.41,15.29a1.46,1.46,0,0,0,.25.93c0,.07.15,0,.11-.07a2,2,0,0,1-.24-.86c0-.07-.12-.07-.12,0Z"/><path class="cls-17" d="M86.44,15.7a5.54,5.54,0,0,0-.07.81c0,.06.09.08.1,0a4.7,4.7,0,0,0,.1-.83c0-.09-.13-.08-.13,0Z"/><path class="cls-17" d="M85.86,13.73a13.86,13.86,0,0,0-.54,2.62c0,.08.11.09.13,0a13,13,0,0,0,.5-2.63c0-.05-.07-.06-.09,0Z"/><path class="cls-17" d="M84.47,13.17c-.72,1.12-1.5,2.23-2.13,3.4a.08.08,0,0,0,.14.08c.75-1.1,1.38-2.29,2-3.44,0,0,0-.08-.06,0Z"/><path class="cls-17" d="M82.9,13.22a35.07,35.07,0,0,0-2.35,3.1s0,.08.06.05A34.11,34.11,0,0,0,83,13.29c.05,0,0-.13-.09-.07Z"/><path class="cls-17" d="M80.08,14.87A26.57,26.57,0,0,0,77.63,17a0,0,0,0,0,.07.07,24.11,24.11,0,0,0,2.42-2.21s0-.05,0,0Z"/><path class="cls-17" d="M84.47,10a18.6,18.6,0,0,0,4,.54c.07,0,.06-.08,0-.09-1.32-.18-2.64-.33-4-.54-.06,0-.09.08,0,.09Z"/><path class="cls-17" d="M83.67,10.94A13.33,13.33,0,0,0,90,11.1c.07,0,0-.12,0-.11a20,20,0,0,1-6.32-.12s-.07.06,0,.07Z"/><path class="cls-17" d="M82.61,12.44c3.44,1,7.59,1.69,10.83-.22.09-.05,0-.16-.07-.13-3.66,1.55-7,.84-10.73.26a0,0,0,0,0,0,.09Z"/><path class="cls-17" d="M80.3,14.24a23.3,23.3,0,0,0,15.8.17.05.05,0,0,0,0-.1A25,25,0,0,1,80.35,14c-.13,0-.18.16,0,.2Z"/><path class="cls-17" d="M78.38,15.24a3.4,3.4,0,0,0,3.2.75.08.08,0,0,0,0-.15,3.87,3.87,0,0,1-3.09-.69s-.12,0-.07.09Z"/><path class="cls-17" d="M89.69,14.57a12.15,12.15,0,0,0,6.5-1.86c.08-.05,0-.17-.08-.13a17,17,0,0,1-6.42,1.85c-.09,0-.1.14,0,.14Z"/><path class="cls-17" d="M93.91,16.25A9.11,9.11,0,0,0,99.3,14.7a.07.07,0,0,0-.07-.12,14.86,14.86,0,0,1-5.32,1.57.05.05,0,1,0,0,.1Z"/><path class="cls-17" d="M87.23,12.5a10,10,0,0,0,6.26-1,.1.1,0,0,0-.08-.17,18.93,18.93,0,0,1-6.16,1c-.08,0-.11.14,0,.15Z"/><path class="cls-17" d="M85.88,27.49c1.22-1.28,4.91-7.62,7.29-5.39.14.14.36-.08.22-.21-1-1-2.29-.6-3.31.25a15.77,15.77,0,0,0-4.29,5.28c0,.06,0,.12.09.07Z"/><path class="cls-17" d="M93.29,22a2.18,2.18,0,0,0-1.57.37c-.18.12,0,.4.16.29a3.55,3.55,0,0,1,1.41-.46.11.11,0,0,0,0-.2Z"/><path class="cls-17" d="M92.92,22.24c.54,1.1-1.46,1.49-2.08,1.81a8.85,8.85,0,0,0-1.6,1.12,5.72,5.72,0,0,1-2.42,1.09A2.15,2.15,0,0,0,85.6,27c-.13.17.1.41.24.25.75-.92,1.9-.67,2.84-1.2,1.14-.65,1.88-1.61,3.15-2.13.78-.33,2-.81,1.31-1.84a.13.13,0,0,0-.22.13Z"/><path class="cls-17" d="M86.21,26.9a35.37,35.37,0,0,0-6.16,14.65c0,.22.3.32.35.09a47.15,47.15,0,0,1,6-14.62c.08-.14-.13-.25-.22-.12Z"/><path class="cls-17" d="M93.2,17.05a24.65,24.65,0,0,1-.93,4.17c-.07.21.25.29.32.09a12,12,0,0,0,.84-4.23c0-.12-.21-.16-.23,0Z"/><path class="cls-17" d="M93.35,23A38.2,38.2,0,0,1,100,41a.13.13,0,0,0,.26,0,25.79,25.79,0,0,0-6.68-18.18c-.13-.13-.36,0-.26.19Z"/><path class="cls-17" d="M100,38.83c.33,7.67.61,15.23.59,22.91a.24.24,0,0,0,.48,0,98.94,98.94,0,0,0-.86-22.94c0-.12-.22-.09-.21,0Z"/><path class="cls-17" d="M77,41.53a20,20,0,0,0,5.23.7c1.89,0,5.87-.88,7.15,1,.21.29.7,0,.49-.29-.85-1.27-2.08-1.52-3.56-1.51-3.11,0-6.17-.07-9.27-.12a.12.12,0,0,0,0,.24Z"/><path class="cls-17" d="M82.38,40.42s0-.07,0-.07a0,0,0,1,0,0,.07Z"/><path class="cls-17" d="M77.62,41.36c-1.56,8.55-3.33,17.67.52,25.86,0,.07.14,0,.12,0-2.88-9.08-1.48-16.56-.37-25.78,0-.15-.24-.19-.27,0Z"/><path class="cls-17" d="M79.32,66.88c4.28-4,11.68-7,13.24-13.18,0-.05-.06-.08-.08,0-2.67,6.3-9,8.3-13.27,13.11a.07.07,0,0,0,.11.1Z"/><path class="cls-17" d="M91.56,40.4c.38,5.63.74,11.14.64,16.8,0,.11.17.11.18,0a62.7,62.7,0,0,0-.75-16.81s-.08,0-.07,0Z"/><path class="cls-17" d="M78.08,41.75c-1.27-.45-4.58-3.81-6-2.3-.27.28-.16.34-.11.69.1.75.37-.14.44,1.65,0,1.49.07,1.41-1.18,1.3a10.7,10.7,0,0,1-1.37-.27c-.14,0-.18.15-.06.2,1.09.43,4.25.8,4-1.27,0-.38-.3-.54-.46-.86,0-.11-.37-.25-.39-.36-.18-.14,0-.29.42-.46.23-.51.54-.58.93-.22,1.42.28,2.25,1.86,3.79,2.07a.09.09,0,1,0,0-.17Z"/><path class="cls-17" d="M66.71,40A28.44,28.44,0,0,0,72.09,40c.13,0,.08-.19,0-.2a28.24,28.24,0,0,0-5.36.09.08.08,0,0,0,0,.16Z"/><path class="cls-17" d="M72.09,39.8c-1-1.86-4.91-1.68-5.7.24-.06.14.14.19.22.1A3.73,3.73,0,0,1,72,39.88c.05,0,.14,0,.1-.08Z"/><path class="cls-17" d="M66.21,40a2.13,2.13,0,0,0-.3,2.57,2.34,2.34,0,0,0,2.45,1c.19,0,.11-.34-.08-.3a2,2,0,0,1-2.17-.95A2.32,2.32,0,0,1,66.27,40s0-.08-.06-.05Z"/><path class="cls-17" d="M67.8,43.46c-.08,1.06,2,.8,2.55.74s1.75-.52,1-1.24c-.08-.08-.23,0-.16.13.58.77-.72.85-1,.88s-.43,0-.64,0c-.54,0-1.48.11-1.7-.55,0,0-.08,0-.08,0Z"/><path class="cls-17" d="M66.19,42.8c-1.33,4.77,9.71,1.91,11.56,1.49.23,0,.13-.41-.1-.35-2,.49-11.61,3.07-11.37-1.12a0,0,0,0,0-.09,0Z"/><path class="cls-17" d="M69,37.51a3.64,3.64,0,0,0,.17-3.74,19.67,19.67,0,0,0-2-2.9,6.57,6.57,0,0,1-.57-7,.1.1,0,0,0-.17-.1,5.7,5.7,0,0,0-.8,5.37c1,2.87,4.56,4.86,3.18,8.32,0,.09.11.14.15.06Z"/><path class="cls-17" d="M70.18,37.3a4.87,4.87,0,0,0,.31-3.95c-.73-1.93-5.22-5.27-.73-6.9a.11.11,0,0,0-.06-.22,2.61,2.61,0,0,0-2.11,3,4.8,4.8,0,0,0,1.1,2.06c1.46,1.9,2.32,3.48,1.3,5.93,0,.11.14.19.19.09Z"/><path class="cls-17" d="M71.4,37.23A3.53,3.53,0,0,0,72,34.14c-.39-1.34-.43-2.72.76-3.66a9.75,9.75,0,0,0,1.44-1.2s0-.1,0-.07c-1,.7-2.37,1.31-2.83,2.5a2,2,0,0,0,0,1.4c.13.49.45.78.54,1.32a3.63,3.63,0,0,1-.61,2.7c-.07.11.1.2.18.1Z"/><path class="cls-17" d="M77.13,65.39a15.27,15.27,0,0,0,.53,6.16.13.13,0,0,0,.24-.07,40,40,0,0,1-.63-6.09.07.07,0,0,0-.14,0Z"/><path class="cls-17" d="M78.89,75.78c8.57-.28,16.9-4,23.58-9.24.18-.14-.08-.39-.26-.25-7.06,5.46-14.63,8-23.35,9.3-.1,0-.08.19,0,.19Z"/><path class="cls-17" d="M102.84,66.07a4.06,4.06,0,0,0-1.77-4.55.23.23,0,0,0-.28.36,5.66,5.66,0,0,1,1.41,1.85,6.91,6.91,0,0,1,.35,2.3.15.15,0,0,0,.29,0Z"/><path class="cls-17" d="M101.11,61.79C94.8,67.42,85.28,69.14,77.26,71c-.31.07-.18.54.13.47,7.87-1.84,18-3.51,23.84-9.57a.09.09,0,0,0-.12-.12Z"/><path class="cls-17" d="M77.37,70.88a6.46,6.46,0,0,0,1.12,4.88c.15.19.39-.05.31-.23a14.85,14.85,0,0,1-.9-2.23,12.77,12.77,0,0,1-.27-2.39c0-.14-.23-.19-.26,0Z"/><path class="cls-17" d="M78.94,75.6A37.56,37.56,0,0,0,84,91a.25.25,0,0,0,.44-.25A89.67,89.67,0,0,1,79.1,75.58a.08.08,0,0,0-.16,0Z"/><path class="cls-17" d="M103,66.11a29.15,29.15,0,0,0,7,17.38c.17.19.46,0,.34-.26a65.69,65.69,0,0,1-4.52-8.17,74.13,74.13,0,0,1-2.61-9,.09.09,0,0,0-.17,0Z"/><path class="cls-17" d="M110.62,83.8c-10.62-4-24.52-2.21-26.68,10.91-2,11.94,5.44,24.57,16.24,29.57s23.13,1,26.17-11.18c2.93-11.77-4.17-25.43-15.68-29.48-.57-.2-.81.7-.25.91,10.69,3.8,17.57,16.48,15.24,27.52-2.83,13.41-16.76,16.53-27.54,10.08A28.27,28.27,0,0,1,84.54,98.71c-.17-15.43,13.87-17.8,25.93-14.37.36.11.49-.42.15-.54Z"/><path class="cls-17" d="M101.13,86.66c-9.23-1.64-12.85,9.66-11.73,17,1.3,8.5,8.87,17,18.13,15.88,9-1.09,12.78-11.16,10.42-19.06-2-6.65-10.75-18.24-18.79-13.14-.29.18-.11.69.23.57,16.37-6,27.33,28.65,8,30.72-18.49,2-24.63-32.37-6.32-31.6.18,0,.22-.29,0-.32Z"/><path class="cls-17" d="M102.57,97.33c-3.13-.73-5.95,2.47-5.61,5.48a5.53,5.53,0,0,0,7.42,4.5,5.77,5.77,0,0,0,3.12-8c-1.5-2.93-6-4-8.21-1.25-.23.29.06.79.42.55,2.34-1.58,5.51-1.64,7,1.17a4.84,4.84,0,0,1-2.61,6.69,4.64,4.64,0,0,1-6.23-3.36c-.69-3.1,2.06-5,4.71-5.41a.18.18,0,0,0,0-.35Z"/><path class="cls-17" d="M81.53,96.15a19.77,19.77,0,0,0,5,19.45c.12.12.29-.06.18-.18a21.13,21.13,0,0,1-5-19.23c0-.09-.12-.13-.14,0Z"/><path class="cls-17" d="M79,96.6a21.41,21.41,0,0,0,11,26.11c.15.08.28-.14.13-.22C80.58,117,76.42,107.38,79.16,96.65A.09.09,0,0,0,79,96.6Z"/><path class="cls-17" d="M125.18,121.6a114,114,0,0,1,17.32-10.89c1.55-.77,8.52-4.92,9.76-3.86-.48-.41-1,4.59-1,4.6a.22.22,0,0,0,.32.19c3.66-1.56,7.31-3.16,10.91-4.84q2.51-1.15,5-2.36c2.12-1,3.69-2.1,2.87,1.19a.29.29,0,0,0,.43.32,119.67,119.67,0,0,1,24.59-9.1.35.35,0,0,0-.19-.67,117.53,117.53,0,0,0-14.23,4.5c-1.67.66-3.31,1.35-4.94,2.08-2.1.95-5.2,3.5-4.3-.5a.26.26,0,0,0-.37-.29q-4.9,2.5-9.89,4.85-2.49,1.16-5,2.27l-1.69.74c-2.59,1.7-3,.41-1.23-3.88.12-.14,0-.44-.21-.36A102.33,102.33,0,0,0,125,121.42c-.1.08,0,.25.14.18Z"/><path class="cls-17" d="M128,116.55A57.24,57.24,0,0,1,145.32,102c2.69-1.41,8.16-4.69,11.29-4.31.18,0,.77-2.26-.7.09-.74,1.18-.72.71-1.34,2a.33.33,0,0,0,.37.48c3.94-1.17,7.89-2.32,11.84-3.48l5.46-1.61c1.37-.4,4.26-2,2.83.26-.15.25.11.63.4.52a140.88,140.88,0,0,1,20.21-6.12c.52-.12.3-.93-.22-.81-3.72.86-7.41,1.83-11.05,3-1.69.53-3.35,1.1-5,1.7-1.3.47-3.79,2.2-2.39,0a.36.36,0,0,0-.4-.52l-10.92,3.25L160.23,98l-1.82.54c-2.37,1-2.47.65-.31-1.18a.34.34,0,0,0-.18-.65c-12,2.79-23,9.54-30.09,19.75-.06.08.07.18.13.11Z"/><path class="cls-17" d="M120.73,124.29c10.58-2.66,21-7,31.25-10.75.22-.08.13-.44-.11-.36-10.36,3.42-21.24,6.47-31.21,10.95-.09,0,0,.18.07.16Z"/><path class="cls-17" d="M123.26,120.35A320.47,320.47,0,0,1,161,105.09c.19-.06.11-.37-.09-.31a156.17,156.17,0,0,0-37.76,15.41c-.11.06,0,.21.09.16Z"/><path class="cls-17" d="M125.93,114c12.36-6,24.75-11.62,37.54-16.66.21-.08.13-.43-.1-.35a226.79,226.79,0,0,0-37.54,16.83.1.1,0,0,0,.1.18Z"/><path class="cls-17" d="M129.83,108.91c10.45-3.88,20.7-8.23,31.21-12,.32-.12.19-.62-.15-.52-10.49,3-21.55,7.08-31.1,12.47,0,0,0,.09,0,.07Z"/><path class="cls-17" d="M95.05,44.64c13.4-2,26.73-4.59,40.14-6.58.19,0,.15-.35,0-.34-13.27.9-27.44,2.78-40.18,6.62a.16.16,0,0,0,.08.3Z"/><path class="cls-17" d="M94.71,48.39c10.86-.58,21.82-1.57,32.63-2.87.31,0,.33-.52,0-.5-10.87.72-21.84,1.77-32.63,3.2a.09.09,0,0,0,0,.17Z"/><path class="cls-17" d="M93.5,54.8c20.89-1.45,41.82-4.11,62.61-6.65.18,0,.18-.31,0-.29-20.86,2-41.89,3.81-62.62,6.84-.06,0,0,.11,0,.1Z"/><path class="cls-17" d="M94,60.49a320.36,320.36,0,0,0,50.42-1.38c.22,0,.22-.36,0-.34C127.58,59.9,110.85,60.18,94,60.29a.1.1,0,0,0,0,.2Z"/><path class="cls-17" d="M98.86,71.64c15.6-1.14,31.37-3.85,46.82-6.24.26,0,.2-.5-.06-.47-15.53,1.85-31.45,3.47-46.78,6.56-.09,0-.07.16,0,.15Z"/><path class="cls-17" d="M99.58,78.78c20.23-.5,40.45-1.37,60.66-2.24.28,0,.28-.45,0-.44-20.22.68-40.45,1.38-60.66,2.43-.16,0-.16.26,0,.25Z"/><path class="cls-17" d="M107.39,85.63c19-1.69,38-3.84,57-5.93.15,0,.15-.26,0-.24-19,1.84-38,3.62-57,5.87-.19,0-.19.32,0,.3Z"/><path class="cls-17" d="M113.73,91.28c22.66-1.08,45.34-3.09,68-4.87.16,0,.16-.26,0-.25-22.64,1.49-45.37,2.76-67.95,4.94-.12,0-.12.19,0,.18Z"/><path class="cls-17" d="M120.28,98.73c14-.5,28-1.43,41.9-2.52.22,0,.23-.37,0-.36-14,.62-28,1.42-41.9,2.63-.16,0-.16.26,0,.25Z"/><path class="cls-17" d="M101.54,76.31c20.09-1.5,40-2.23,60.16-2.35a.19.19,0,0,0,0-.37,414.06,414.06,0,0,0-60.16,2.49c-.14,0-.15.24,0,.23Z"/><path class="cls-17" d="M88.38,35.64c9.5-.93,19-1.9,28.49-3.15.31,0,.32-.51,0-.48-9.5.9-19,2.09-28.49,3.32-.19,0-.2.33,0,.31Z"/><path class="cls-17" d="M93.75,26.4a135.73,135.73,0,0,0,15.59-1.26c.28,0,.29-.46,0-.44a140.8,140.8,0,0,0-15.61,1.56c-.08,0-.06.14,0,.14Z"/><path class="cls-17" d="M92.76,85.84c-7.1,4.46-9,15.09-4.77,22.11.17.27.67.09.54-.23-3.37-8.53-1.73-15,4.29-21.8a.05.05,0,0,0-.06-.08Z"/><path class="cls-17" d="M80,91.48c-7,3.63-6.63,12-5.87,18.8,0,.22.37.23.35,0-.59-6.71-.91-14.54,5.71-18.48a.19.19,0,0,0-.19-.32Z"/><path class="cls-17" d="M91.55,126.67c8.9.53,18.15-.71,27-1.23s18-1,27-1.58c.62,0,.62-1,0-1-9.34.56-18.68,1.15-28,1.72-8.59.53-17.62.41-26.09,1.94-.08,0-.05.12,0,.12Z"/><path class="cls-17" d="M94.9,28.43a53.7,53.7,0,0,0,2.2,7.74c0,.07.11,0,.1,0A55.88,55.88,0,0,0,95,28.4a.07.07,0,0,0-.13,0Z"/><path class="cls-17" d="M89.69,30.15c.16,2.44.53,4.92.92,7.33a.09.09,0,0,0,.18,0c-.25-2.43-.54-4.93-1-7.32,0,0-.08,0-.08,0Z"/><path class="cls-17" d="M87.82,30.05a19.13,19.13,0,0,0,2.46,6.1.11.11,0,0,0,.19-.1c-1-2-1.71-4-2.54-6a.06.06,0,0,0-.11,0Z"/><path class="cls-17" d="M96.47,41a83.44,83.44,0,0,1,1.19,15.21,0,0,0,0,0,.06,0A45.43,45.43,0,0,0,96.59,41a.06.06,0,0,0-.12,0Z"/><path class="cls-17" d="M81.77,70a5.39,5.39,0,0,0-.77-.74c-.1-.07-.23.07-.16.17a5.86,5.86,0,0,0,.73.77c.13.12.33-.07.2-.2Z"/><path class="cls-17" d="M79.3,70.54a1.36,1.36,0,0,1-.44-.83c0-.11-.18-.08-.19,0a1,1,0,0,0,.54.92c.07,0,.15-.05.09-.11Z"/><path class="cls-17" d="M84.54,69.45a2.55,2.55,0,0,1-.7-1.54c0-.06-.11-.09-.12,0a1.81,1.81,0,0,0,.68,1.7c.09.08.23,0,.14-.14Z"/><path class="cls-17" d="M86.65,69a18.1,18.1,0,0,0-.13-2.33c0-.08-.12,0-.13,0A17.88,17.88,0,0,0,86.51,69a.07.07,0,0,0,.14,0Z"/><path class="cls-17" d="M88.36,68.66c.22-.88.49-1.77.63-2.67a.07.07,0,0,0-.14,0c-.25.88-.4,1.79-.57,2.69,0,0,.07.08.08,0Z"/><path class="cls-17" d="M93.05,66.42A14.41,14.41,0,0,0,92,64.93a.08.08,0,0,0-.13.1A17.14,17.14,0,0,0,93,66.48s.1,0,.07-.06Z"/><path class="cls-17" d="M96.59,65.26a2.51,2.51,0,0,0,.4-1.64c0-.09-.16-.06-.16,0a3.61,3.61,0,0,1-.33,1.56c0,.06.06.12.09.06Z"/><path class="cls-17" d="M98.61,64.13a11.09,11.09,0,0,0,.08-1.82c0-.07-.1-.09-.11,0a12.57,12.57,0,0,0-.15,1.84c0,.12.17.11.18,0Z"/><path class="cls-17" d="M99.5,63.55a1.75,1.75,0,0,0,.3-1.76c0-.08-.17-.08-.16,0a3.15,3.15,0,0,1-.23,1.69.05.05,0,0,0,.09,0Z"/><path class="cls-17" d="M95,65.86a3.72,3.72,0,0,0,.15-1,.13.13,0,0,0-.25,0,3.43,3.43,0,0,0-.09,1,.1.1,0,0,0,.19,0Z"/><path class="cls-17" d="M92,59.1a28.69,28.69,0,0,0-.54,4.42.06.06,0,0,0,.12,0,28.37,28.37,0,0,0,.59-4.4.09.09,0,0,0-.17,0Z"/><path class="cls-17" d="M84.24,75.2a84.74,84.74,0,0,1,.88,9.27c0,.08.13.08.14,0a27.37,27.37,0,0,0-.91-9.28c0-.06-.12,0-.11,0Z"/><path class="cls-17" d="M90.17,76.8a6.65,6.65,0,0,0,2.7,5.27s.12,0,.07-.09a7.66,7.66,0,0,1-2.66-5.18.06.06,0,1,0-.11,0Z"/><path class="cls-17" d="M101.85,72.63a17.76,17.76,0,0,0,3,8.37.06.06,0,0,0,.11-.06,81.59,81.59,0,0,1-3-8.33c0-.07-.14-.06-.13,0Z"/><path class="cls-17" d="M98.31,69.12a7.27,7.27,0,0,0,.47,2c0,.08.17.08.16,0a7.35,7.35,0,0,0-.51-2c0-.06-.12-.06-.12,0Z"/><path class="cls-17" d="M79.76,42a104.22,104.22,0,0,1-1.42,17.46c-.35,2.53-.27,4.51,1.72,6.32.1.1.26-.06.15-.15-3.27-3.08-1-9.11-.59-12.84A64.85,64.85,0,0,0,79.94,42a.09.09,0,0,0-.18,0Z"/><path class="cls-17" d="M87.5,42.53c-.62,1.49-1.26,3-1.81,4.5,0,.08.1.14.13.06.69-1.47,1.29-3,1.91-4.5.06-.14-.17-.21-.23-.06Z"/><path class="cls-17" d="M88.64,43.06c-.28,1.14-.41,2.32-.58,3.48a5.28,5.28,0,0,0-.19,2.33c.23.6,1.07.88,1.31.15,0-.07-.09-.11-.13-.05-.9-.25-1.2-.74-.88-1.49l.06-.43c.07-.52.15-1,.22-1.54.11-.81.25-1.62.3-2.44a.06.06,0,0,0-.11,0Z"/><path class="cls-17" d="M86.13,42.17a9.75,9.75,0,0,0-.93,2,.05.05,0,0,0,.1,0,9.67,9.67,0,0,0,.93-2c0-.06-.07-.1-.1,0Z"/><path class="cls-17" d="M83.93,42.07a16.41,16.41,0,0,0-.48,1.83c0,.1.12.14.15,0,.2-.59.3-1.23.44-1.84a.06.06,0,0,0-.11,0Z"/><path class="cls-17" d="M81.33,42.2a27,27,0,0,0,1.49,6c0,.09.18.06.15,0-.53-2-1-4-1.52-6,0-.06-.13,0-.12,0Z"/><path class="cls-17" d="M85.41,50.23a26.83,26.83,0,0,0-.51,9.15c0,.11.17.11.16,0a42.19,42.19,0,0,1,.45-9.12c0-.06-.09-.1-.1,0Z"/><path class="cls-17" d="M100,97.85a86.58,86.58,0,0,0-2.77-10.52.19.19,0,0,0-.37.1,86.52,86.52,0,0,0,2.83,10.5.16.16,0,0,0,.31-.08Z"/><path class="cls-17" d="M104.91,97.52a79,79,0,0,0,2.87-9.72c0-.17-.23-.31-.3-.13a45.68,45.68,0,0,0-2.71,9.82.07.07,0,0,0,.14,0Z"/><path class="cls-17" d="M100.17,107.09A88.25,88.25,0,0,0,99,117.22c0,.19.3.24.33,0a88.88,88.88,0,0,0,1.07-10.15c0-.12-.2-.15-.22,0Z"/><path class="cls-17" d="M106,106.18a56.12,56.12,0,0,0,3.42,5.38c1.15,1.79,2.21,3.64,3.37,5.43a.22.22,0,0,0,.37-.22c-1.9-3.59-4.19-7.76-7-10.7-.07-.07-.17,0-.13.11Z"/><path class="cls-17" d="M107.24,99.61a63.52,63.52,0,0,1,8-4.21c.13-.07,0-.28-.1-.24a25.38,25.38,0,0,0-8.06,4.18c-.16.12,0,.39.16.27Z"/><path class="cls-17" d="M107.4,103a37.08,37.08,0,0,0,5.64,2.72,28.75,28.75,0,0,0,5.1,2.08.14.14,0,0,0,.11-.26,33.76,33.76,0,0,0-5.66-2.69,32.6,32.6,0,0,0-5.11-2,.1.1,0,0,0-.08.19Z"/><path class="cls-17" d="M97.73,100.69a20.69,20.69,0,0,0-4.14-2.11,13.3,13.3,0,0,0-3.86-1.53c-.16,0-.25.22-.13.33a14.29,14.29,0,0,0,3.91,1.94,19.88,19.88,0,0,0,4.1,1.59c.11,0,.24-.13.12-.22Z"/><path class="cls-17" d="M91,107.51a23.94,23.94,0,0,0,3.52-1.82,22.93,22.93,0,0,0,3.35-2.14c.17-.14,0-.37-.22-.28a38.34,38.34,0,0,0-3.38,2c-1.13.65-2.32,1.24-3.39,2-.12.09-.05.32.12.26Z"/><path class="cls-17" d="M90.4,100.06a27.84,27.84,0,0,0,4.66,1.69c.18.06.25-.22.08-.28a27.31,27.31,0,0,0-4.68-1.55c-.08,0-.14.1-.06.14Z"/><path class="cls-17" d="M110.29,102.39a22.74,22.74,0,0,0,6,2.2s.09-.06,0-.09a23.25,23.25,0,0,0-6-2.26.08.08,0,0,0-.06.15Z"/><path class="cls-17" d="M99.15,89.22a33.3,33.3,0,0,0,1,5.86c0,.07.14.06.13,0a32.35,32.35,0,0,0-1-5.86c0-.09-.17-.07-.16,0Z"/><path class="cls-17" d="M101.06,109.19a40.23,40.23,0,0,0,.26,6.21.09.09,0,0,0,.18,0,40.37,40.37,0,0,0-.3-6.21.07.07,0,0,0-.14,0Z"/><path class="cls-17" d="M105.91,110.61c1,1.41,2,2.82,3,4.22.1.14.33,0,.23-.13q-1.47-2.13-3-4.24c-.11-.16-.37,0-.26.15Z"/><path class="cls-17" d="M104.49,90a5,5,0,0,0-.73,1.77,6.48,6.48,0,0,0-.32,2.18c0,.08.13.11.15,0,.17-.65.2-1.34.37-2s.47-1.28.58-1.94c0,0,0,0-.05,0Z"/><path class="cls-17" d="M94.65,107.82a8.75,8.75,0,0,1-.83-8.94c.06-.12-.12-.23-.19-.11a7.89,7.89,0,0,0,.91,9.14c0,.06.16,0,.11-.09Z"/><path class="cls-17" d="M95.26,95.6c3.67-3.22,8-3.47,12.41-1.49a.1.1,0,0,0,.09-.17,10.27,10.27,0,0,0-12.62,1.54.08.08,0,1,0,.12.12Z"/><path class="cls-17" d="M109.92,95.94a12,12,0,0,1,2.84,10.3c0,.11.14.16.17.05a10.39,10.39,0,0,0-2.88-10.48.09.09,0,0,0-.13.13Z"/><path class="cls-17" d="M97.41,110.88a8,8,0,0,0,12.44-.06c.11-.13-.07-.32-.19-.19-3.5,3.62-8.56,3.79-12.13.13-.08-.09-.2,0-.12.12Z"/><path class="cls-17" d="M95.6,97.66a6.25,6.25,0,0,0,.87,8.81c.11.09.27-.06.16-.16a6.34,6.34,0,0,1-.91-8.56c0-.07-.07-.16-.12-.09Z"/><path class="cls-17" d="M96.44,97.1c1.76-.67,7.93-4.89,8.61-1.19,0,.1.19.08.18,0-.38-4.31-7.3.35-8.87,1-.11,0,0,.24.08.19Z"/><path class="cls-17" d="M108.36,96.89a11.06,11.06,0,0,1,2.9,8.66.08.08,0,0,0,.16,0,9.74,9.74,0,0,0-2.93-8.81.09.09,0,0,0-.13.13Z"/><path class="cls-17" d="M98,108.19c2.66,4,7.79,2.62,11.48,1.07.11-.05.07-.23,0-.18-3.7,1.31-8.44,2.82-11.26-1-.07-.1-.23,0-.17.09Z"/><path class="cls-17" d="M95,92.26A12.25,12.25,0,0,0,98,111.83a.1.1,0,0,0,.1-.18c-7-4.56-8.4-12.82-3-19.26.07-.09,0-.21-.13-.13Z"/><path class="cls-17" d="M105.43,114.75a10.87,10.87,0,0,0,9.72-15c-.05-.12-.24-.07-.2,0,2.36,7.13-2.17,13.87-9.52,14.75-.1,0-.1.16,0,.16Z"/><path class="cls-17" d="M113,122.18c7.42-1,12.64-9.75,10.69-16.78a.28.28,0,0,0-.54.07c.22,4,0,7.57-2.49,10.93-2,2.74-4.73,4.1-7.74,5.48-.14.07-.08.32.08.3Z"/><path class="cls-17" d="M109.65,84.18a6,6,0,0,0,1.7.93.12.12,0,0,0,.11-.19,6.06,6.06,0,0,0-1.68-1,.13.13,0,0,0-.13.22Z"/></svg>