<svg id="carracters" xmlns="http://www.w3.org/2000/svg" viewBox="0 0 198.43 35.43"><defs><style>.cls-1{fill:#fff;}.cls-2{fill:#6e6e6e;opacity:0.5;}</style></defs><path d="M187.12,26.56c-.05.3-.09.6-.16.89a3.57,3.57,0,0,1-2.12,2.5,6.67,6.67,0,0,1-5.08,0c0-.18.08-.19.22-.14a6.92,6.92,0,0,0,2.92.42,4.39,4.39,0,0,0,3.18-1.45,3.51,3.51,0,0,0,.81-2.25,6.25,6.25,0,0,0-3.22-5.64l0,0,0,0,.39.64c-.08.1-.15.16-.23,0s-.28-.46-.43-.69a.17.17,0,0,1,.07-.26l.82-.46.12.16-.6.35c.41.32.83.61,1.2.95a6.42,6.42,0,0,1,2.14,3.92c0,.13,0,.25.05.37Z"/><path d="M167.23,12.14A15,15,0,0,0,171,13.26l.76.1.5-4.07,2.37.3c-.11.37-.4.43-.73.48l-.52,3.47H178V15h-4.79L172.58,20a40.29,40.29,0,0,0,5.27-.3v1.53a50.48,50.48,0,0,1-5.38.26,12.43,12.43,0,0,0,0,3.28,2.93,2.93,0,0,0,2.61,2.58,10.83,10.83,0,0,0,4.9-.25,3.22,3.22,0,0,0,1.27-.66,2.49,2.49,0,0,0,.9-2.29,7,7,0,0,0-1.43-3.37l-.4-.53,1.47-.57a8.93,8.93,0,0,1,2,4.48,3.74,3.74,0,0,1-2.54,4.16,10.39,10.39,0,0,1-3.57.69,12,12,0,0,1-3.48-.24,4.27,4.27,0,0,1-3.33-3.65,12.78,12.78,0,0,1,0-3.44c0-.07,0-.14,0-.22l-1.16-.07a6.91,6.91,0,0,1-2.5-.53A2,2,0,0,1,166,19.15a2.63,2.63,0,0,1,.66-2,12.76,12.76,0,0,1,1.14-1.06.22.22,0,0,1,.19,0l1.11.64c-.32.27-.64.52-.94.8a1.87,1.87,0,0,0-.58,1,.85.85,0,0,0,.47,1,3.84,3.84,0,0,0,1.14.34c.58.08,1.17.08,1.75.11a.21.21,0,0,0,.11,0l.57-5a16.28,16.28,0,0,1-4.75-1.26Z"/><path class="cls-1" d="M16.45,12.14a15,15,0,0,0,3.76,1.12l.77.1.49-4.07,2.38.3c-.12.37-.4.43-.74.48l-.51,3.47h4.61V15h-4.8L21.81,20a40.24,40.24,0,0,0,5.26-.3v1.53a50.35,50.35,0,0,1-5.38.26,12.86,12.86,0,0,0,0,3.28,2.91,2.91,0,0,0,2.6,2.58,10.82,10.82,0,0,0,4.9-.25,3.33,3.33,0,0,0,1.28-.66,2.51,2.51,0,0,0,.89-2.29,6.86,6.86,0,0,0-1.43-3.37l-.4-.53L31,19.64a8.93,8.93,0,0,1,2,4.48,3.73,3.73,0,0,1-2.54,4.16,10.39,10.39,0,0,1-3.57.69,12,12,0,0,1-3.48-.24,4.27,4.27,0,0,1-3.33-3.65,13.2,13.2,0,0,1,0-3.44c0-.07,0-.14,0-.22L19,21.35a6.91,6.91,0,0,1-2.5-.53,2,2,0,0,1-1.28-1.67,2.55,2.55,0,0,1,.66-2A12.64,12.64,0,0,1,17,16.06a.23.23,0,0,1,.19,0l1.12.64c-.33.27-.65.52-.94.8a1.82,1.82,0,0,0-.59,1,.85.85,0,0,0,.47,1,3.84,3.84,0,0,0,1.14.34c.58.08,1.17.08,1.76.11a.22.22,0,0,0,.11,0l.56-5A16.45,16.45,0,0,1,16,13.63Z"/><path class="cls-2" d="M132.93,12.14a15,15,0,0,0,3.76,1.12l.76.1.5-4.07,2.37.3c-.11.37-.4.43-.73.48l-.52,3.47h4.61V15h-4.79L138.28,20a40.29,40.29,0,0,0,5.27-.3v1.53a50.48,50.48,0,0,1-5.38.26,12.43,12.43,0,0,0,0,3.28,2.93,2.93,0,0,0,2.61,2.58,10.83,10.83,0,0,0,4.9-.25,3.33,3.33,0,0,0,1.28-.66,2.51,2.51,0,0,0,.89-2.29,7,7,0,0,0-1.43-3.37l-.4-.53,1.47-.57a8.93,8.93,0,0,1,2,4.48A3.74,3.74,0,0,1,147,28.28a10.39,10.39,0,0,1-3.57.69,12,12,0,0,1-3.48-.24,4.27,4.27,0,0,1-3.33-3.65,12.78,12.78,0,0,1,0-3.44c0-.07,0-.14,0-.22l-1.16-.07a7,7,0,0,1-2.5-.53,2,2,0,0,1-1.28-1.67,2.63,2.63,0,0,1,.66-2,12.76,12.76,0,0,1,1.14-1.06.22.22,0,0,1,.19,0l1.11.64c-.32.27-.64.52-.94.8a1.87,1.87,0,0,0-.58,1,.85.85,0,0,0,.47,1,3.84,3.84,0,0,0,1.14.34c.58.08,1.17.08,1.75.11a.21.21,0,0,0,.11,0l.57-5a16.28,16.28,0,0,1-4.75-1.26Z"/><path class="cls-2" d="M96.05,12.14a15.09,15.09,0,0,0,3.77,1.12l.76.1.49-4.07,2.38.3c-.12.37-.4.43-.74.48l-.51,3.47h4.61V15H102l-.6,4.93a40.24,40.24,0,0,0,5.26-.3v1.53a50.35,50.35,0,0,1-5.38.26,12.86,12.86,0,0,0,0,3.28,2.91,2.91,0,0,0,2.6,2.58,10.82,10.82,0,0,0,4.9-.25,3.33,3.33,0,0,0,1.28-.66,2.54,2.54,0,0,0,.9-2.29,6.88,6.88,0,0,0-1.44-3.37l-.4-.53,1.47-.57a8.93,8.93,0,0,1,2,4.48,3.73,3.73,0,0,1-2.54,4.16,10.39,10.39,0,0,1-3.57.69,12,12,0,0,1-3.48-.24,4.27,4.27,0,0,1-3.33-3.65,13.2,13.2,0,0,1,0-3.44c0-.07,0-.14,0-.22l-1.15-.07a6.91,6.91,0,0,1-2.5-.53,2,2,0,0,1-1.28-1.67,2.55,2.55,0,0,1,.66-2,14.16,14.16,0,0,1,1.13-1.06.23.23,0,0,1,.19,0l1.12.64c-.33.27-.65.52-.94.8a1.89,1.89,0,0,0-.59,1,.85.85,0,0,0,.47,1A3.84,3.84,0,0,0,98,19.8c.58.08,1.17.08,1.76.11a.22.22,0,0,0,.11,0l.56-5a16.45,16.45,0,0,1-4.75-1.26Z"/><path d="M143.57,19.7v1.52c-.5,0-1,.1-1.49.12-1.37.06-2.73.14-4.09.13-1.19,0-2.37-.1-3.56-.22a5,5,0,0,1-1.4-.38,2.12,2.12,0,0,1-1.18-2.94,4.55,4.55,0,0,1,1.65-1.88.22.22,0,0,1,.18,0l1.11.65-.6.45a2.81,2.81,0,0,0-.87,1.06.93.93,0,0,0,.53,1.35,4.36,4.36,0,0,0,1.28.31c1.27.07,2.55.15,3.81.12,1.48,0,2.95-.19,4.42-.28Z"/><path d="M132.93,12.21c.72.24,1.41.49,2.12.7a15.59,15.59,0,0,0,3.53.58c1.12.06,2.24.1,3.36.11.58,0,1.17,0,1.75-.06V15a4.42,4.42,0,0,1-.49,0c-1.51,0-3,0-4.52-.05a17.55,17.55,0,0,1-5.36-1l-.79-.33Z"/><path d="M106.89,15.07c-1.12,0-2.2,0-3.28,0-.73,0-1.46-.07-2.19-.12a16.41,16.41,0,0,1-5.31-1.16l-.35-.16.41-1.47c3.47,1.49,7.11,1.52,10.79,1.36Z"/><path d="M131.19,17.49a2.79,2.79,0,0,0-1.19.77,1.58,1.58,0,0,0,.09,2.38,2.67,2.67,0,0,0,2,.73l.09-.23c.53.16.53.16.3.73l-.2-.3a2.94,2.94,0,0,1-1.54-.27,2.3,2.3,0,0,1-1.39-1.61,1.71,1.71,0,0,1,.42-1.47,2.9,2.9,0,0,1,1.22-.86C131.12,17.3,131.12,17.3,131.19,17.49Z"/><path d="M93.72,14.07l3.94,1.21-.48-.82.16-.12c.21.35.41.67.59,1a.21.21,0,0,1-.06.21c-.33.21-.66.4-1,.6l-.1-.18.84-.5-1.32-.41-2.48-.76C93.68,14.27,93.62,14.22,93.72,14.07Z"/><path d="M171.67,6.62c.19,0,.19.07.16.2-.27,1.24-.53,2.48-.8,3.72,0,0,0,.08,0,.16l.77-.55.13.16L171,11c-.12.09-.19,0-.26-.07-.21-.3-.42-.6-.65-.91l.16-.13.58.8Z"/></svg>