<svg id="illustration" xmlns="http://www.w3.org/2000/svg" viewBox="0 0 198.43 146.11"><defs><style>.cls-1{fill:#b8a99a;}.cls-2{fill:#ee3624;}.cls-3{fill:#7e868e;}.cls-4{fill:#fff;}.cls-5{fill:#b91e54;}.cls-6{fill:#4a4b4c;}.cls-7{fill:#f9a55d;}.cls-8{fill:#140b06;}.cls-9{fill:#c29a33;}.cls-10{fill:#964c20;}.cls-11{fill:#616264;}.cls-12{fill:#231f20;}.cls-13{fill:#fcc3a3;}.cls-14{fill:#c59b82;}.cls-15{fill:#967663;}.cls-16{fill:#968f8a;}.cls-17{fill:#010101;}</style></defs><path class="cls-1" d="M81.89,16.74l-7.08.71S65.62,19.29,61,30.25s-5.94,61.68-5.94,61.68,1,14.41,4.61,19.24l1.94,2.92L64.28,123l5.45-.35a3.27,3.27,0,0,1,1.59-2.83H94.06l27.51-1.86,2.86,4.64h7.44L134,112.9a32.86,32.86,0,0,0,8.19-16c1.62-9.41-.58-30.35-2.09-39.4,0,0-.52-31.92-17.43-40.07l-9.26-.66-5.8-.83L86.89,16Z"/><path class="cls-2" d="M64.43,111.41s-1-14.11,6.08-23.52,21.51-19.1,25-19.83S105,65,119.08,79.6s15,27.64,15,27.64-18.72,8.34-36,8.14A177.27,177.27,0,0,1,64.43,111.41Z"/><path class="cls-3" d="M95.89,86.41s-8.07-.22-7.49,9.67,4.39,10.33,8.53,11.16,9.83-3.71,10.06-9.6S102.05,86.84,95.89,86.41Z"/><path class="cls-4" d="M97,93.16s-4.43,1.15-4,4.48,2.55,4.27,4.65,4.47a3.72,3.72,0,0,0,4-3.64C101.65,96.36,101.24,93.61,97,93.16Z"/><path class="cls-4" d="M115.56,92.32s-2.77,1.54-2.48,3.56.94,3.45,3.31,3.59,3.16-1.57,3.34-3.59S117.74,92.71,115.56,92.32Z"/><path class="cls-4" d="M76.58,91.8c-2.71-.71-3.35,1.73-3.55,4.1A3.86,3.86,0,0,0,76.58,100c1.83.24,4.52-1.68,4.42-4.08S79,92.43,76.58,91.8Z"/><path class="cls-5" d="M87.81,110.28c.59-.09,7.82,0,7.82,0l12.51-1L107,110.83l-3.31,2.46-4.39,1-3.67-.16L92,113.25l-3.67-1.9Z"/><path class="cls-4" d="M110,65.8a3.49,3.49,0,0,1-4.16-3.92c.09-2.62,1-2.78,3.13-4.07,1.84-1.11,5.52.62,5.74,2.25C114.94,62,115,66.19,110,65.8Z"/><path class="cls-4" d="M86.51,65.8s4.15-.43,4.17-3.19S88,57.55,85.52,57.36s-3.8,4-3.8,4S82.13,66,86.51,65.8Z"/><path class="cls-6" d="M94.74,47.1,96,69v6.1l-.4,4.78,1.09,3.27,2.51-.29,1.18-2-.65-4.54-1-13.67-.15-10.06-.44-5.29a3.26,3.26,0,0,1-1.48.37A15,15,0,0,1,94.74,47.1Z"/><path class="cls-7" d="M95.72,39.64s-3.14,1.33-2.83,4,2.35,4.36,3.83,4,3.68-1.13,4-2.33a5.69,5.69,0,0,0-1.51-4.75A5.64,5.64,0,0,0,95.72,39.64Z"/><path class="cls-8" d="M76.29,18.17V28.43l16.1-1.28-.28-10.47S78.25,17,76.29,18.17Z"/><path class="cls-8" d="M103.45,16.42,105,27.5l11.62-.78,1-9.63A54.43,54.43,0,0,0,103.45,16.42Z"/><path class="cls-9" d="M81.67,7.47V23h4.72L86.25,8.2s-1.36-1.51-2-1.51A11.26,11.26,0,0,0,81.67,7.47Z"/><path class="cls-9" d="M107.7,8.2s1.89-1.15,2.32-1a12.59,12.59,0,0,1,2.07,1.71l-.47,2.9,0,10-3-.37Z"/><path class="cls-10" d="M81.67,7.47s-1.19-3.95,1.57-4.32,2.79,2.92,2.9,4-.55-.43-1.93-.44A4.85,4.85,0,0,0,81.67,7.47Z"/><path class="cls-10" d="M107.7,8.2s-2.41-2.94,1-4.25,3,3.72,3,3.72l-2.35-.54Z"/><path class="cls-4" d="M69.7,42.07A17.89,17.89,0,0,0,77,43.68c1.29.08,4.52.51,4.8-1.46.22-1.53-1.67-1.85-2.75-2A48.2,48.2,0,0,0,70.53,39a1.64,1.64,0,0,0-.83,3Z"/><path class="cls-4" d="M136.59,69.45c-.81,3.22.1,6.38.37,9.65a37.15,37.15,0,0,1-.65,12.31,20.7,20.7,0,0,1-5,9c-1.9,2-4.58,3-6.32,5.05a1,1,0,0,0,.7,1.68c6.06.74,10.91-7.48,12.71-12.27,2.67-7.09,3.81-19.12-.62-25.63a.67.67,0,0,0-1.21.16Z"/><path class="cls-4" d="M63.1,29.14c-3.76,8.55-4.65,18.6-4.25,27.83,0,.58.94.58.91,0-.44-9.7,1.47-18.31,3.88-27.6.09-.31-.4-.54-.54-.23Z"/><path class="cls-4" d="M131.26,31.25c1.22,4.19,2.89,8.17,3.81,12.45a86.91,86.91,0,0,1,1.55,14.57.24.24,0,0,0,.48,0c.7-8.83-.82-19.5-5.4-27.2a.24.24,0,0,0-.44.18Z"/><path class="cls-4" d="M119.33,35c5.8,1.08,10.75-5.85,8.46-11.1-.05-.12-.28-.06-.26.07.35,2.64.22,5.05-1.54,7.21s-4.07,2.65-6.66,3a.41.41,0,0,0,0,.78Z"/><path class="cls-4" d="M65.17,31.84c1.19,4.21,7.19,7.44,11.35,5.93.15-.05.2-.32,0-.34-2.18-.32-4.25-.43-6.26-1.47a18.77,18.77,0,0,1-4.92-4.22.1.1,0,0,0-.17.1Z"/><path class="cls-4" d="M58.79,104.38c5.39,4.65,14.3,7.67,21.39,6.38a.34.34,0,0,0,0-.66c-3.43-.62-6.87-.82-10.26-1.7-3.84-1-7.24-2.76-10.81-4.43-.25-.12-.57.2-.32.41Z"/><path class="cls-4" d="M92.24,88.43C87.13,90.86,86,100,91,103.16a.48.48,0,0,0,.65-.65c-1.3-2.22-2.71-3.93-2.65-6.68.06-3,1.69-4.91,3.55-7a.24.24,0,0,0-.29-.38Z"/><path class="cls-4" d="M80.92,55.18A16.2,16.2,0,0,1,83,53.51a15.32,15.32,0,0,1,2.79-.74.4.4,0,0,0,0-.78,5.45,5.45,0,0,0-5.31,2.86c-.08.23.22.48.42.33Z"/><path class="cls-4" d="M109.78,54a17.51,17.51,0,0,1,2.9-.09,12.14,12.14,0,0,1,2.66,1.23.44.44,0,0,0,.59-.59c-1-1.8-4.89-2.64-6.38-1.13a.34.34,0,0,0,.23.58Z"/><path class="cls-11" d="M76.29,18.17V28.43l16.1-1.28-.28-10.47,11.34-.26L105,27.5l11.62-.78,1-9.63s4.73,0,6,1.83,5.65,8.39-1.85,12.27-22.81,3.88-22.81,3.88L74,34.75s-11.71-2.92-7.65-11.54C66.37,23.21,68.6,18.43,76.29,18.17Z"/><path class="cls-11" d="M67.9,24.45a16.63,16.63,0,0,0,1.23-1.4,5.36,5.36,0,0,1,.73-.61,6.41,6.41,0,0,0,.81-.55.35.35,0,0,0-.34-.57,4.41,4.41,0,0,0-1.71,1.1A3.8,3.8,0,0,0,67.35,24c-.07.29.27.64.55.43Z"/><path class="cls-4" d="M67.15,24.44c.82-.69,1.55-1.5,2.38-2.19a11.06,11.06,0,0,1,3.28-1.76.26.26,0,0,0-.14-.5c-2.29.36-5.15,1.73-6.27,3.87a.48.48,0,0,0,.75.58Z"/><path class="cls-4" d="M122.72,23.68c-.14,5.05-3.37,9-8.48,9.51-.54.06-.57.88,0,.86a9.5,9.5,0,0,0,9.24-10.37.38.38,0,0,0-.76,0Z"/><path class="cls-4" d="M108.43,6A1.55,1.55,0,0,1,109.1,6a2.2,2.2,0,0,0,.67.08.56.56,0,0,0,.28-1,1.7,1.7,0,0,0-2,.4.37.37,0,0,0,.35.62Z"/><path class="cls-4" d="M82.56,5.24a4.45,4.45,0,0,0,.81.15A.6.6,0,0,0,83.94,5a.81.81,0,0,0,0-.31.59.59,0,0,0-.57-.43,3.71,3.71,0,0,0-.81.14.46.46,0,0,0,0,.88Z"/><path class="cls-12" d="M83,11.83A8.3,8.3,0,0,0,84.68,11c.13-.1,0-.32-.16-.27a8.55,8.55,0,0,0-1.6.93.11.11,0,0,0,.11.19Z"/><path class="cls-12" d="M82.94,14.48l.68-.37a.44.44,0,0,0-.34-.8l-.74.21c-.72.2-.28,1.32.4,1Z"/><path class="cls-12" d="M82.52,17.27a7.3,7.3,0,0,0,1.6-1.09c.14-.13,0-.41-.2-.33a7.05,7.05,0,0,0-1.65,1c-.26.19,0,.6.25.44Z"/><path class="cls-12" d="M82.89,19.28a4.5,4.5,0,0,0,1.59-1c.23-.31-.15-.62-.44-.58a4.48,4.48,0,0,0-1.54.91.38.38,0,0,0,.39.66Z"/><path class="cls-12" d="M82.52,21.43a15.2,15.2,0,0,0,3.55-1.74c.31-.24,0-.62-.33-.57a14.36,14.36,0,0,0-3.61,1.37c-.53.23-.14,1.17.39.94Z"/><path class="cls-12" d="M108.72,11.44a1.79,1.79,0,0,0,1.54-.39c.2-.17,0-.46-.2-.48a1.78,1.78,0,0,0-1.41.61.16.16,0,0,0,.07.26Z"/><path class="cls-12" d="M109.38,15.77a8.32,8.32,0,0,0,1.64-.72.19.19,0,0,0-.15-.34,8.16,8.16,0,0,0-1.61.76c-.17.08-.05.37.12.3Z"/><path class="cls-12" d="M108.71,19a7.61,7.61,0,0,0,2.23-1.05.23.23,0,0,0-.16-.38,7.14,7.14,0,0,0-2.26.74c-.42.17-.23.87.19.69Z"/><path class="cls-12" d="M108.73,20.77l1.17-.31a3.18,3.18,0,0,0,1.06-.37.35.35,0,0,0-.18-.65,2.83,2.83,0,0,0-1.1.21l-1.17.31a.42.42,0,0,0,.22.81Z"/><path class="cls-12" d="M108.72,13.75a2.26,2.26,0,0,0,2-.46.19.19,0,0,0-.08-.31,2.28,2.28,0,0,0-2,.5.16.16,0,0,0,.07.27Z"/><path class="cls-13" d="M53.13,91.11C42,94.37,37.64,107.46,39.77,117.9c.93,4.53,3.19,9.3,7.48,11.53,5.42,2.81,12.36.56,18.2,1.47.57.09,1.25-.66.66-1.12-2.7-2.09-5.29-2.08-8.61-1.88-6.4.38-11.31-.66-14-7.08A22,22,0,0,1,53.63,92.31a.66.66,0,0,0-.5-1.2Z"/><path class="cls-13" d="M50.52,92.63a2.6,2.6,0,0,0,.88-.11c.34-.14.66-.3,1-.47a5.68,5.68,0,0,0,1.83-1.15c.25-.3.13-1-.37-.9a5.57,5.57,0,0,0-2,.91,9.84,9.84,0,0,0-1,.61,2.46,2.46,0,0,0-.6.72.26.26,0,0,0,.22.39Z"/><path class="cls-13" d="M53.21,90.73a6.82,6.82,0,0,0-.11,2.07.57.57,0,0,0,1.13,0A6.85,6.85,0,0,0,54,90.73a.39.39,0,0,0-.75,0Z"/><path class="cls-13" d="M64.58,129.76l0,.08a.66.66,0,0,0,.71.29h0a.53.53,0,0,0,.37-.38v-.05a.66.66,0,0,0-.28-.7l-.09-.06a.61.61,0,0,0-.82.83Z"/><path class="cls-14" d="M66.91,128.75c-.87,2-1.55,5.52.08,7.34a.45.45,0,0,0,.75-.31c0-1.07-.5-2.08-.54-3.17a9.8,9.8,0,0,1,.52-3.52c.16-.47-.61-.81-.81-.34Z"/><path class="cls-14" d="M67,136.21a10.45,10.45,0,0,0,3.21.08c1.22,0,2.44.1,3.66.07.75,0,1-1.18.18-1.35a14.12,14.12,0,0,0-3.84-.19,6.38,6.38,0,0,0-3.29.78.34.34,0,0,0,.08.61Z"/><path class="cls-14" d="M74.31,135.91c.37-1.08.57-2.18,1-3.23.32-.71,1.09-1.53.78-2.33a.4.4,0,0,0-.37-.28c-1,.11-1.3,1.27-1.61,2.11a8.48,8.48,0,0,0-.64,3.62.41.41,0,0,0,.81.11Z"/><path class="cls-14" d="M76,130.1A7,7,0,0,0,72.46,129c-1.6-.26-3.2-.47-4.79-.8a1,1,0,1,0-.27,2c1.62.1,3.22.33,4.83.51a7.09,7.09,0,0,0,3.69-.13.3.3,0,0,0,.06-.47Z"/><path class="cls-14" d="M67.16,129.73a4.86,4.86,0,0,0,.11,5.3.94.94,0,0,0,1.7-.22c.47-1.25.88-2.53,1.32-3.79H68.57c.29,1.35.58,2.7.85,4.06a.91.91,0,0,0,1.65.21l2.08-3.74-1.76-.48.36,3.16a.93.93,0,0,0,1.82.25c.4-1,1.19-2.17,1.07-3.29a.75.75,0,0,0-1.25-.52c-.91.76-1.17,2.24-1.61,3.31l1.82.25-.32-3.16c-.09-.86-1.28-1.37-1.76-.47-.68,1.25-1.34,2.52-2,3.78l1.65.22c-.3-1.35-.59-2.71-.87-4.06-.2-.94-1.44-.75-1.72,0-.47,1.26-1,2.51-1.39,3.78l1.7-.22a8.32,8.32,0,0,1-1.08-4.2.35.35,0,0,0-.64-.17Z"/><path class="cls-14" d="M70.4,130.69a1.66,1.66,0,0,0-.13,1.34c.21.59.68,1.12,1.37.89a.79.79,0,0,0,.54-.94c-.12-.64-.85-.64-1-1.19-.1-.31-.6-.44-.76-.1Z"/><path class="cls-14" d="M78,127.84c-1.11.77-1.55,2.35-2,3.58a16.54,16.54,0,0,0-1.17,5.09.53.53,0,0,0,1,.14c.42-1.54.65-3.12,1.13-4.65.4-1.29,1.3-2.66,1.27-4,0-.12-.16-.23-.27-.15Z"/><path class="cls-14" d="M74.87,136.62a5.82,5.82,0,0,0,2.18,2.11,12.32,12.32,0,0,0,3,1.91c.7.26,1-.66.65-1.12a11.86,11.86,0,0,0-2.62-2.1A5.73,5.73,0,0,0,75.35,136a.5.5,0,0,0-.48.62Z"/><path class="cls-14" d="M79.52,140.32a5.91,5.91,0,0,0,2.53-1.14,11.7,11.7,0,0,0,2.63-1.66.56.56,0,0,0-.54-.93,11.15,11.15,0,0,0-2.7,1.54c-.74.47-1.79.9-2.2,1.69a.33.33,0,0,0,.28.5Z"/><path class="cls-14" d="M84.57,136.93c-.75-1.42-2.2-2.33-3.09-3.68a4.92,4.92,0,0,1-.87-2.7,7.74,7.74,0,0,0,.13-2.14.65.65,0,0,0-.8-.45c-1.93.78-1.55,3.59-.85,5.16a7.84,7.84,0,0,0,5.06,4.37.38.38,0,0,0,.42-.56Z"/><path class="cls-14" d="M80.34,128.23c-.1-.06-.15-.16-.25-.23a2,2,0,0,0-.47-.14c-.35-.11-.71-.19-1.06-.32-1.09-.41-1.37,1.76,0,1.47.34-.06.68-.09,1-.13a1.83,1.83,0,0,0,.4,0c.14-.05.23-.16.36-.22a.22.22,0,0,0,0-.38Z"/><path class="cls-14" d="M78.56,128.46c-2,2.19-4,5.13-2.54,8.19,1.1,2.3,4.71,3.07,6.18.74.67-1-.74-1.87-1.58-1.22-1.7,1.33-3.39-.35-3.38-2.18s1.08-3.5,2-5c.22-.4-.32-.84-.64-.5Z"/><path class="cls-14" d="M81.66,136.63a30,30,0,0,1-1.7-5.32c-.26-1.47-2.29-1.19-2.7,0a7.24,7.24,0,0,0,.27,5.41c.65,1.38,2.8.39,2.43-1a6,6,0,0,1,0-3.64h-2.7a7.65,7.65,0,0,0,3.52,5.26c.42.25,1.08-.17.88-.68Z"/><path class="cls-14" d="M81.68,128.43a5.32,5.32,0,0,0-.35,3.65c.2,1.06.71,2.8,1.91,3a.67.67,0,0,0,.83-.63c0-1-.94-1.89-1.28-2.81a15.55,15.55,0,0,1-.54-3.18.31.31,0,0,0-.57-.07Z"/><path class="cls-14" d="M81.1,128.92a4,4,0,0,0-.75,3.07,4.15,4.15,0,0,0,1.84,2.77,1,1,0,0,0,1.21-1.57,5.81,5.81,0,0,1-1.15-1.73,4.58,4.58,0,0,1-.32-2.19.46.46,0,0,0-.83-.35Z"/><path class="cls-14" d="M82.08,129.47c1.81-.2,3.65-.37,5.47-.44,1.62-.07,3.38.35,4.94-.11a.57.57,0,0,0,.13-1c-1.5-.8-3.42-.56-5.07-.45A18.7,18.7,0,0,0,82,128.71c-.37.14-.36.81.1.76Z"/><path class="cls-14" d="M92.33,127.43c-1.84,1.14-4.61,4.44-5,6.6-.49,2.64,2.27,3.53,3.34,5.48.64,1.17,2.37.14,1.78-1-.93-1.86-4-2.61-3-5,.84-2,2.68-3.53,3.4-5.62a.38.38,0,0,0-.56-.43Z"/><path class="cls-14" d="M92.05,138.68c-.85-.87-1.9-.87-3-1.25a4,4,0,0,1-2.36-2.34c-.78-1.52-2.39-2.63-3.92-1.43a1.1,1.1,0,0,0,.48,1.83c1.18.2,1.29,1,1.91,1.93a5.16,5.16,0,0,0,2,1.69c1.47.74,3.58,1.1,4.91-.08a.25.25,0,0,0,0-.35Z"/><path class="cls-14" d="M84.88,133c-.22-.33-.74-1-.58-1.44s.89-.37,1.42-.37c1.12,0,2.25,0,3.37,0l-.84-2a20.3,20.3,0,0,0-3.56,4.33l2-.26a3.4,3.4,0,0,1-.92-1.56l-1,1.66a3.7,3.7,0,0,0,2.52-1,.9.9,0,0,0-.18-1.39,3.8,3.8,0,0,0-2.7-.31,1.36,1.36,0,0,0-1.3,1.71A6.09,6.09,0,0,0,84.89,135a1.29,1.29,0,0,0,2-.25,19.08,19.08,0,0,1,3-3.93,1.21,1.21,0,0,0-.85-2l-3.37.11a4,4,0,0,0-2.83.64c-1.57,1.42-.49,3.26.58,4.55.65.78,2-.24,1.41-1.09Z"/><path class="cls-14" d="M82.65,129.2a15.72,15.72,0,0,1,3.53-.67A5.9,5.9,0,0,0,89,128.2a.55.55,0,0,0,.11-.86c-.86-.77-2.07-.61-3.14-.45a10.94,10.94,0,0,0-3.75,1.26.58.58,0,0,0,.44,1Z"/><path class="cls-14" d="M83.25,128.46c1.45.13,3,.54,4.28-.23a.49.49,0,0,0-.12-.88c-1.43-.47-2.84.26-4.22.68a.22.22,0,0,0,.06.43Z"/><path class="cls-15" d="M93.33,128a18.15,18.15,0,0,0-3.64,6.75c-.28.89,1.09,1.25,1.39.38a39.89,39.89,0,0,1,3.17-6.42c.32-.57-.45-1.21-.92-.71Z"/><path class="cls-15" d="M89.49,135.24a3.87,3.87,0,0,0,1.31,2.37,4.22,4.22,0,0,0,2.42,1.57.68.68,0,0,0,.58-1c-.39-.69-1.31-1.13-1.89-1.66A9.39,9.39,0,0,0,90,134.93a.36.36,0,0,0-.54.31Z"/><path class="cls-15" d="M93,138.92a10.66,10.66,0,0,0,2.11-10.34c-.37-1.24-2.36-.67-1.93.53a11.26,11.26,0,0,1-.83,9.31c-.22.4.33.87.65.5Z"/><path class="cls-15" d="M93.89,129.54a6.75,6.75,0,0,0-1.68,2.64c-.5,1.13-.92,2.32-1.31,3.5a1.07,1.07,0,0,0,1,1.35h.17c.52-.05,1.13-.46,1.06-1.07l0-.16a1,1,0,0,0-1.69-.7l-.1.11.75-.31h-.17l1,1.36a36.29,36.29,0,0,0,1.14-3.53,6.76,6.76,0,0,0,.3-3,.35.35,0,0,0-.51-.2Z"/><path class="cls-16" d="M94.11,129.45a6.08,6.08,0,0,0,3.16.72,11.69,11.69,0,0,0,3.59-.23.62.62,0,0,0-.16-1.21c-1.14-.12-2.29,0-3.43-.08a9.76,9.76,0,0,0-3-.06.48.48,0,0,0-.11.86Z"/><path class="cls-16" d="M92.65,134.58a21.35,21.35,0,0,0,2.24.51,4.44,4.44,0,0,0,2.11.06.74.74,0,0,0,.18-1.34c-1.24-.66-3.09-.23-4.41-.09-.46.05-.63.73-.12.86Z"/><path class="cls-16" d="M96.08,136.84a3.16,3.16,0,0,0,1.8-.08c.55-.15,1.16-.33,1.36-.93a.56.56,0,0,0-.15-.56c-.44-.43-1.12-.29-1.67-.17a3,3,0,0,0-1.6.76.6.6,0,0,0,.26,1Z"/><path class="cls-16" d="M95.46,136.7l.1.07a.47.47,0,0,0,.64-.16.42.42,0,0,0,0-.48.47.47,0,0,0-.64-.17l-.1.08a.38.38,0,0,0,0,.66Z"/><path class="cls-16" d="M92,134.64l.09.13c.31.45,1.17.19,1-.4l0-.14c-.29-.77-1.42-.2-1,.41Z"/><path class="cls-4" d="M65.14,114.59c2.06,1.93,6.39,2.67,9.06,1.94.07,0,.09-.15,0-.16-1.52-.24-3-.23-4.55-.57s-2.91-1.06-4.41-1.37c-.09,0-.17.09-.1.16Z"/><path class="cls-4" d="M41.72,102.91c-2.67,5.49-2.42,13.32,1.16,18.37.13.18.49.08.4-.17-2.44-6.4-3.12-11.4-1.39-18.13,0-.1-.12-.17-.17-.07Z"/><path class="cls-4" d="M68.61,129.93c.64.22,1.27.43,1.92.62a7.82,7.82,0,0,0,1.76.44.35.35,0,0,0,.18-.65,7.4,7.4,0,0,0-1.73-.54c-.65-.18-1.3-.34-2-.48a.32.32,0,0,0-.17.61Z"/><path class="cls-4" d="M81.2,131.08c-.82-2.1,6.48-1.94,7.53-2,.43,0,.59-.69.11-.8a13.07,13.07,0,0,0-7.45.94c-.76.38-1.82,1.65-.59,2.21.19.09.5-.06.4-.31Z"/><path class="cls-4" d="M95.94,129c1.34.17,2.69.27,4,.37.53.05.52-.77,0-.82-1.35-.15-2.69-.32-4-.41-.56,0-.54.8,0,.86Z"/><path class="cls-4" d="M93.63,134.05c.53,0,1.42.26,1.8-.2a.3.3,0,0,0,0-.43c-.38-.46-1.27-.23-1.8-.21a.42.42,0,0,0,0,.84Z"/><path class="cls-4" d="M90.21,132.47c-.3.43-.61.85-.91,1.27a4,4,0,0,0-.68,1.26c0,.2.19.44.38.29a8.14,8.14,0,0,0,1.71-2.52c.19-.33-.29-.59-.5-.3Z"/><path class="cls-4" d="M77.92,128.4a7.77,7.77,0,0,0,1.27.28c.72.06.76-1,.16-1.18a6.19,6.19,0,0,0-1.12-.23c-.73-.12-1,.94-.31,1.13Z"/><path class="cls-4" d="M78.09,138.75a4.67,4.67,0,0,0,2.08-.64A4.37,4.37,0,0,0,82,137.2a.21.21,0,0,0-.15-.36,4.6,4.6,0,0,0-1.91.61,4.73,4.73,0,0,0-1.92,1,.17.17,0,0,0,.12.29Z"/><path class="cls-17" d="M80.49,17.66C73,16.14,65.81,21.1,62,27.34c-5.52,9-5.21,20.71-5.85,30.9-.79,12.54-2.66,25.61-1.55,38.16.76,8.65,3.77,17.27,10.9,22.65.26.2.6-.24.35-.45C50.49,105.37,55.5,81.79,56.58,64c1-16.22,0-47.15,23.88-46.06a.14.14,0,0,0,0-.28Z"/><path class="cls-17" d="M87.68,16.9c6.51.36,13.13,0,19.66-.15a.4.4,0,0,0,0-.79c-6.53.11-13.16-.07-19.66.51a.22.22,0,0,0,0,.43Z"/><path class="cls-17" d="M113.14,17.49C136,15.83,138.2,47.91,140.22,63.94c2.08,16.54,6.7,41.58-10.6,51.69a.19.19,0,0,0,.19.34c7.83-3.64,11.62-11.65,12.75-19.88,1.57-11.44-.28-23.8-1.85-35.14C139.24,50.3,138,38.25,133,28.58c-3.79-7.23-11.32-13.32-19.89-11.68a.3.3,0,0,0,.08.59Z"/><path class="cls-17" d="M61,115.52a12.67,12.67,0,0,0,1.15,3.71c.52,1.4,1,2.8,1.58,4.19.12.32.64.19.52-.14-.55-1.5-1.12-3-1.69-4.47a11.59,11.59,0,0,0-1.5-3.32s-.06,0-.06,0Z"/><path class="cls-17" d="M64.43,123.29c1.58,0,3.54.41,5-.16a.13.13,0,0,0,0-.25c-1.55-.44-3.48.09-5,.26-.09,0-.1.15,0,.15Z"/><path class="cls-17" d="M70.28,123.32a7.47,7.47,0,0,1,.59-2.33,17.12,17.12,0,0,0,.87-1.56.16.16,0,0,0-.23-.18,3.23,3.23,0,0,0-1.1,1.68,5.58,5.58,0,0,0-.37,2.39.12.12,0,0,0,.24,0Z"/><path class="cls-17" d="M69.43,119.7a184.22,184.22,0,0,0,28.77.55c8.88-.39,18.07-.88,26.78-2.76a.21.21,0,0,0-.06-.4c-9.25.77-18.38,2.15-27.68,2.54s-18.52,0-27.81-.2c-.18,0-.17.26,0,.27Z"/><path class="cls-17" d="M121.25,118.32a8.22,8.22,0,0,0,1.19,2.27l1.51,2.48c.15.24.53,0,.38-.22l-1.53-2.47a8.26,8.26,0,0,0-1.49-2.09,0,0,0,0,0-.06,0Z"/><path class="cls-17" d="M124.15,123.17a54.08,54.08,0,0,0,8.63-.22c.24,0,.16-.37-.05-.39a54.68,54.68,0,0,0-8.58.31.15.15,0,0,0,0,.3Z"/><path class="cls-17" d="M131.69,123a84.13,84.13,0,0,0,2.23-9.64.2.2,0,0,0-.38-.1,86.18,86.18,0,0,0-2.07,9.67c0,.15.18.21.22.07Z"/><path class="cls-17" d="M57.86,109.38c25.38,10.72,58.59,7.84,82.83-4.47.22-.12,0-.42-.19-.33-13.35,5.88-27,9.7-41.65,10.4-14.23.67-27.32-2-40.95-5.69,0,0-.09.07,0,.09Z"/><path class="cls-17" d="M61.86,38.82c-1.4,8.31-2.78,17.47-1.7,25.86a.21.21,0,0,0,.41,0c1-8.54.88-17.06,2.19-25.61.09-.58-.8-.84-.9-.25Z"/><path class="cls-17" d="M119.15,36.42c4.66,1.29,9.72-4.66,12.12,2.46,1.9,5.63,2.84,11.57,4.36,17.3.06.25.4.14.37-.1a117.13,117.13,0,0,0-2.68-12.71c-.62-2.44-.9-6-2.64-8-3.16-3.49-7.81,1-11.49.78-.15,0-.17.21,0,.25Z"/><path class="cls-17" d="M138.38,75.05c.39,6,.71,11.86.65,17.88,0,.13.19.12.2,0A71.13,71.13,0,0,0,138.57,75c0-.1-.19-.08-.19,0Z"/><path class="cls-17" d="M94.23,47.1c.51,9.22,1.43,18.37,1.48,27.62,0,1.86-1.54,10.16,2.38,10.21,3.69,0,1.86-7.29,1.77-9.14-.46-9.3-.9-18.61-1.39-27.91,0-.55-.89-.55-.86,0q.44,9,.9,17.94c.16,3,.31,6,.47,9,.07,1.33.14,2.66.2,4,0,.93.69,6.89-2.64,1.88-.85-1.27,0-6.29,0-7.91q-.08-4.45-.3-8.9a141.12,141.12,0,0,0-1.64-16.8c0-.21-.39-.16-.38.05Z"/><path class="cls-17" d="M93.27,41.41a4.35,4.35,0,0,0,1.54,6.18,4.55,4.55,0,0,0,6.11-2.37,4.66,4.66,0,0,0-2.84-5.82c-2.34-.75-5.57.86-5.61,3.52a.23.23,0,0,0,.42.11c1-1.74,2.56-3.43,4.77-2.84A3.59,3.59,0,1,1,95.47,47c-2.16-.76-2.69-3.51-1.77-5.36a.25.25,0,0,0-.43-.26Z"/><path class="cls-17" d="M96,41.7a1.08,1.08,0,0,0-.82-.15,1.8,1.8,0,0,0-.9.55A1.66,1.66,0,0,0,94,44c.17.31.64,0,.48-.28A1.35,1.35,0,0,1,95.86,42c.14,0,.26-.19.11-.26Z"/><path class="cls-17" d="M85.15,57.53c2.41.21,4.82,1.38,5.13,4.07a4.08,4.08,0,0,1-3.42,4.27c-4.5,1-6.44-5.19-2.86-7.54.44-.3,0-1-.42-.73-4.52,2.92-1.83,10.54,3.69,9A4.78,4.78,0,0,0,91,61.46c-.38-2.48-3.25-5.16-5.85-4.11a.09.09,0,0,0,0,.18Z"/><path class="cls-17" d="M85.25,57.53c0-.19.16-.52.18-.74s0-.49,0-.74c0-.58,0-1.16.06-1.73s-.74-.46-.71,0,0,1.15.06,1.73c0,.25,0,.5,0,.74s.17.55.18.74a.08.08,0,1,0,.15,0Z"/><path class="cls-17" d="M87.72,59c.2-.18.45-.26.65-.46s.51-.54.76-.81c.44-.49.89-1,1.29-1.49.2-.26-.22-.56-.44-.34-.5.49-.94,1.05-1.4,1.59-.21.26-.44.51-.64.78s-.17.45-.31.65,0,.12.09.08Z"/><path class="cls-17" d="M82.73,60c-.47-.46-1-.92-1.47-1.34a4.43,4.43,0,0,0-1.39-1,.28.28,0,0,0-.32.41,4.49,4.49,0,0,0,1.34,1.06c.55.37,1.13.71,1.71,1a.11.11,0,0,0,.13-.18Z"/><path class="cls-17" d="M85,61.29a1.78,1.78,0,0,0-.15,2.62,1.57,1.57,0,0,0,2.58-.6,1.68,1.68,0,0,0-1.22-2.47,1.89,1.89,0,0,0-2.07,2.08.25.25,0,0,0,.49-.06,1.43,1.43,0,0,1,1.46-1.4c.86,0,1,1,.74,1.63a1,1,0,0,1-1.6.36,1.32,1.32,0,0,1,0-1.92c.13-.11,0-.34-.19-.24Z"/><path class="cls-17" d="M80.07,68.15c-.38.16-.45.64-.59,1s-.56.92-.29,1.3a.16.16,0,0,0,.18.07c.45-.12.46-.67.57-1.05s.42-.89.22-1.27a.09.09,0,0,0-.09,0Z"/><path class="cls-17" d="M82.88,68.88c-.3.56-.53,1.15-.85,1.71s.56.85.72.3.43-1.2.61-1.81a.26.26,0,0,0-.48-.2Z"/><path class="cls-17" d="M87.09,68.84c-.27.42-.53.86-.84,1.25s.48,1,.66.38a14.26,14.26,0,0,1,.56-1.41c.1-.25-.23-.46-.38-.22Z"/><path class="cls-17" d="M109.3,68.71a17.27,17.27,0,0,0,1.36,1.59c.36.37.94-.21.57-.56a15.94,15.94,0,0,0-1.59-1.37c-.19-.15-.48.14-.34.34Z"/><path class="cls-17" d="M112.85,69.1c.21.45.46.9.63,1.36s1,.12.71-.29-.59-.9-.87-1.34a.27.27,0,0,0-.47.27Z"/><path class="cls-17" d="M117.5,69.06c.07.2,0,.42.13.63s.21.4.31.6c.22.43.43.86.67,1.27a.42.42,0,0,0,.37.22.4.4,0,0,0,.38-.22.44.44,0,0,0,0-.43c-.26-.44-.55-.87-.84-1.3a4.81,4.81,0,0,0-.37-.55c-.13-.15-.3-.2-.43-.35s-.27,0-.22.13Z"/><path class="cls-17" d="M97,86.39C84.71,83.9,84.18,107,97,107.64a10.15,10.15,0,0,0,10.47-10.35c-.06-6.11-5-10.37-10.8-11-.55-.06-.54.79,0,.86,5.32.63,9.9,4.49,9.95,10.17a9.38,9.38,0,0,1-9.06,9.52c-12,.19-12.56-21.48-.59-20,.25,0,.31-.38.06-.43Z"/><path class="cls-17" d="M95.64,89.7c-3-.8-4.89,2.4-5.33,4.94a11,11,0,0,0,3.4,9.77c.35.34.88-.19.53-.52-3.68-3.52-5.68-12.92,1.4-14.09a.05.05,0,0,0,0-.1Z"/><path class="cls-17" d="M98.68,90.55c2.21,1.5,4,3.34,4.32,6.09s-1,4.83-2.59,7c-.15.2.14.47.35.34,5.17-3.26,3.58-11.9-1.92-13.81-.24-.08-.35.26-.16.39Z"/><path class="cls-17" d="M96.22,93.54c-2.77.11-4.22,3.79-3.27,6.1A5,5,0,0,0,99.67,102a5.08,5.08,0,0,0,1.59-7.2C99.72,92.64,96,92,94,93.91a.31.31,0,0,0,.38.49c2-1,4.36-1.33,6,.52a4.34,4.34,0,0,1-1,6.29,4.23,4.23,0,0,1-6-2.13c-.8-2.4.87-4.27,2.77-5.41,0,0,0-.14,0-.13Z"/><path class="cls-17" d="M115.68,92.77c-2-.52-3.4,2.59-3.08,4.19a3.91,3.91,0,0,0,5.09,2.66,4,4,0,0,0,2-5.22,4.11,4.11,0,0,0-5.5-1.89c-.28.14,0,.53.24.41a3.67,3.67,0,0,1,4.69,1.44,3.36,3.36,0,0,1-1.79,4.56,3.21,3.21,0,0,1-4.12-2.13,3,3,0,0,1,.57-2.46c.53-.74,1.23-.92,1.92-1.43a.08.08,0,0,0,0-.13Z"/><path class="cls-17" d="M75.4,92.21C73,92.72,72,96,73,98.05a4.55,4.55,0,0,0,6.55,1.56,4.79,4.79,0,0,0,.5-6.77c-1.6-1.62-5-1.83-6.45.17-.08.11.08.26.19.19,1.74-1.15,3.88-1.81,5.68-.26s1.74,4.68-.27,5.94a3.86,3.86,0,0,1-5.36-1.13c-1.09-2,.08-4,1.67-5.23a.17.17,0,0,0-.13-.31Z"/><path class="cls-17" d="M96.88,67.58A41.09,41.09,0,0,0,77.6,80.7c-.13.17.09.41.25.25A51.8,51.8,0,0,1,97,68c.26-.1.16-.51-.11-.42Z"/><path class="cls-17" d="M73.09,83.79a43.43,43.43,0,0,0-8.71,27,.25.25,0,0,0,.49,0,48.41,48.41,0,0,1,8.36-26.93c.06-.09-.08-.16-.14-.08Z"/><path class="cls-17" d="M100.89,68.22a28.48,28.48,0,0,1,19.22,13.32.09.09,0,1,0,.16-.09A24.58,24.58,0,0,0,100.93,67.9a.16.16,0,0,0,0,.32Z"/><path class="cls-17" d="M123.45,85.05c5.53,6.55,9.2,13.7,10.38,22.25,0,.28.53.22.49-.06a38.64,38.64,0,0,0-10.6-22.46c-.18-.18-.43.08-.27.27Z"/><path class="cls-17" d="M68.61,38.78c2.1.56,4.22,1,6.35,1.43,1.6.34,4.49.37,5.86,1.17,1.62,1-.84,2.32-2.12,2.5a13.77,13.77,0,0,1-3.7-.21A18.23,18.23,0,0,1,72.26,43l-.89-.32q-2.73-.33-1.11-3c.09.21.42.13.35-.09a1.3,1.3,0,0,0-2.55.41c-.19,3.19,6.19,4,8.29,4.14.88.08,8.14.31,6.25-2.55-.69-1-3.23-1.05-4.31-1.27-3.19-.65-6.39-1.34-9.62-1.79-.14,0-.2.18-.06.21Z"/><path class="cls-17" d="M66.5,22.78c-3,4.76.59,10,5.38,11.66,4,1.4,8.5,1,12.63,1,5.94,0,11.89-.06,17.82-.3,7-.29,17.43.5,22.13-5.91,3.16-4.32,1.16-11.22-4.87-10.7a.1.1,0,0,0,0,.2l6.19,5.85-1.22,3.88a12.15,12.15,0,0,1-4.19,3.7c-2.83,1.59-6.47,1.79-9.61,2-5.29.45-10.62.58-15.93.67C89.89,35,85,35,80,35a28,28,0,0,1-7.3-.77c-4.68-1.36-9-6.32-6-11.28a.14.14,0,0,0-.25-.14Z"/><path class="cls-17" d="M76.15,18.21c-.22,3.56-.18,7.15-.2,10.72a.34.34,0,0,0,.68,0c0-3.57.14-7.15,0-10.72a.24.24,0,0,0-.47,0Z"/><path class="cls-17" d="M75.51,28.55c5.4.4,11.08-.41,16.46-.91.51-.05.53-.84,0-.81-5.41.32-11.17.37-16.47,1.59a.07.07,0,0,0,0,.13Z"/><path class="cls-17" d="M92.64,26.79a45.11,45.11,0,0,0,0-5.2,16.62,16.62,0,0,0-.34-4.52.23.23,0,0,0-.44,0A18.18,18.18,0,0,0,91.83,22a42.11,42.11,0,0,0,.32,4.89c0,.3.47.2.49-.06Z"/><path class="cls-17" d="M103.58,17.13a45.22,45.22,0,0,0,1.06,9.72.25.25,0,0,0,.49-.07A44.88,44.88,0,0,0,104,17.07c-.05-.27-.47-.2-.46.06Z"/><path class="cls-17" d="M105.19,28a82.59,82.59,0,0,0,11.54-.91c.4-.06.31-.73-.1-.72a82.1,82.1,0,0,0-11.49,1.28c-.2,0-.15.36,0,.35Z"/><path class="cls-17" d="M116.84,27.19c.52-3.2.67-6.46.9-9.7,0-.47-.7-.46-.74,0-.24,3.21-.56,6.44-.51,9.66,0,.19.31.25.35,0Z"/><path class="cls-17" d="M81.4,24c1.52-5.17,1.25-11.19.67-16.5,0-.5-.84-.51-.8,0,.45,5.58-.16,10.91-.24,16.45a.19.19,0,0,0,.37,0Z"/><path class="cls-17" d="M80.54,8.56a3.46,3.46,0,0,1,3.57-1.49c1.12.27,1.45,1.16,2.33,1.66a.16.16,0,0,0,.24-.14c.06-1.25-1.77-2.1-2.82-2.19a3.46,3.46,0,0,0-3.43,2.1.06.06,0,0,0,.11.06Z"/><path class="cls-17" d="M86,8.2a147.78,147.78,0,0,0-.13,16.44.38.38,0,0,0,.75,0A147.78,147.78,0,0,0,86.5,8.2a.25.25,0,0,0-.5,0Z"/><path class="cls-17" d="M108.65,22.56c.8-4.72.22-9.79-.5-14.49-.09-.58-1-.34-.9.25.74,4.75.62,9.41.91,14.18,0,.26.44.36.49.06Z"/><path class="cls-17" d="M107.27,8.93c.75-.74,1.29-1.54,2.48-1.47s1.86,1.15,2.16,2.25a.3.3,0,0,0,.58-.08A2.84,2.84,0,0,0,110,6.82c-1.15-.12-2.91.72-2.88,2a.08.08,0,0,0,.13.06Z"/><path class="cls-17" d="M111.2,11.77c0,4.29,0,8.58.14,12.87a.4.4,0,0,0,.8,0c0-4.29-.06-8.58-.1-12.87a.42.42,0,0,0-.84,0Z"/><path class="cls-17" d="M79.38,18.13a9,9,0,0,0-2.95,4.68.17.17,0,0,0,.33.09,13.38,13.38,0,0,1,2.77-4.62c.09-.1,0-.23-.15-.15Z"/><path class="cls-17" d="M80.75,19.2a53.38,53.38,0,0,0-3.58,7.18.09.09,0,0,0,.16.07,53,53,0,0,0,3.6-7.14c.06-.12-.12-.23-.18-.11Z"/><path class="cls-17" d="M80.82,23.18c-.75,1.52-1.56,3-2.22,4.6-.08.19.18.36.28.16.76-1.52,1.39-3.12,2.07-4.69,0-.08-.09-.16-.13-.07Z"/><path class="cls-17" d="M83.24,23.13a34.07,34.07,0,0,0-1.8,4.33.17.17,0,0,0,.3.13,33.53,33.53,0,0,0,1.81-4.33c.07-.18-.23-.3-.31-.13Z"/><path class="cls-17" d="M85.77,23.9a39.29,39.29,0,0,0-1.49,3.91c0,.19.25.33.34.14A36.85,36.85,0,0,0,86,24c0-.15-.17-.2-.23-.06Z"/><path class="cls-17" d="M87.56,23.5c-.73,1.43-1.5,2.83-2.12,4.31,0,.12.11.23.18.1.81-1.38,1.47-2.84,2.17-4.27.07-.15-.15-.29-.23-.14Z"/><path class="cls-17" d="M89.25,23.87a20.06,20.06,0,0,0-1,2.87.18.18,0,0,0,.33.14A20.62,20.62,0,0,0,89.68,24c.09-.27-.33-.38-.43-.12Z"/><path class="cls-17" d="M91.82,21.3A35.76,35.76,0,0,0,88.27,26a.15.15,0,0,0,.23.18A34.77,34.77,0,0,0,92,21.4c0-.08-.07-.17-.13-.1Z"/><path class="cls-17" d="M91.88,18.83c-1.45,1.53-2.92,3.05-4.33,4.62-.15.16.09.41.25.24,1.46-1.52,2.85-3.11,4.26-4.68.11-.12-.07-.3-.18-.18Z"/><path class="cls-17" d="M89,19.5l-1,1a3.92,3.92,0,0,0-.77.91c0,.1,0,.19.14.14a3.55,3.55,0,0,0,.91-.77l1-1A.2.2,0,0,0,89,19.5Z"/><path class="cls-17" d="M89.37,17.79A17.75,17.75,0,0,0,88,19.94c-.06.1.08.22.16.13a19.39,19.39,0,0,0,1.45-2.16.11.11,0,0,0-.19-.12Z"/><path class="cls-17" d="M105.72,16.32a17.6,17.6,0,0,0-1.83,3.59c0,.13.15.27.25.15A18.19,18.19,0,0,0,106,16.47c.08-.18-.17-.33-.27-.15Z"/><path class="cls-17" d="M107.5,17.38a26.75,26.75,0,0,0-2.15,4.32c0,.12.12.16.18.08a26.33,26.33,0,0,0,2.25-4.23c.1-.19-.18-.36-.28-.17Z"/><path class="cls-17" d="M108.35,19.24A44.76,44.76,0,0,0,105.41,25c-.08.2.21.3.31.14a46.4,46.4,0,0,0,2.8-5.76c0-.11-.11-.22-.17-.1Z"/><path class="cls-17" d="M107.87,22.8l-.59,1.53a4.87,4.87,0,0,0-.43,1.39c0,.15.18.16.25.06a4.86,4.86,0,0,0,.58-1.34l.56-1.53c.09-.24-.28-.33-.37-.11Z"/><path class="cls-17" d="M109.73,23.5c-.34.63-.72,1.23-1.06,1.86a6,6,0,0,0-.77,1.74c0,.15.15.29.27.16a6,6,0,0,0,.93-1.65c.3-.65.56-1.32.86-2,.06-.15-.15-.29-.23-.14Z"/><path class="cls-17" d="M112.18,24.91a15.94,15.94,0,0,0-1.37,2.18c-.07.17.14.38.29.22a15.31,15.31,0,0,0,1.47-2.17c.16-.25-.23-.48-.39-.23Z"/><path class="cls-17" d="M115.86,23.51c-.33.41-.69.79-1,1.21A4.28,4.28,0,0,0,114,26a.18.18,0,0,0,.26.2,3.79,3.79,0,0,0,.88-1.14c.32-.48.59-1,.9-1.47.06-.09-.08-.2-.14-.11Z"/><path class="cls-17" d="M116.89,21.32,115.35,23A8.27,8.27,0,0,0,114,24.58c-.06.1.06.24.17.17a8.32,8.32,0,0,0,1.41-1.49c.49-.58,1-1.15,1.49-1.73.13-.14-.08-.35-.21-.21Z"/><path class="cls-17" d="M116.21,19.18c-.56.39-1.08.85-1.61,1.28l-.77.66c-.34.29-.53.62-.85.93-.08.08,0,.18.11.12.28-.22.59-.34.86-.57l.84-.77c.52-.49,1.06-1,1.54-1.5.07-.08,0-.22-.12-.15Z"/><path class="cls-17" d="M114,19.55A10.6,10.6,0,0,0,113,21a.12.12,0,0,0,.19.14,13.12,13.12,0,0,0,1.14-1.42c.14-.19-.18-.37-.31-.18Z"/><path class="cls-17" d="M88,55.46c-1.62-3.92-7.8-2-7.37,2.07,0,.2.35.29.39,0a3.85,3.85,0,0,1,2.58-3.2c1.55-.44,2.72.43,3.76,1.45.25.25.79,0,.64-.37Z"/><path class="cls-17" d="M54.32,92.69c-11.17,1.6-14.4,13.86-12.32,23.46,1,4.55,3,9.34,7.67,11.07a15.58,15.58,0,0,0,5.68.75c1.94,0,3.74-.51,5.68-.25s3.69,1,5.59,1.31c.37.07.52-.5.16-.55-3.81-.53-6.13-1.51-10-1.22-6.27.47-10.91-2-13.07-8.16-3.52-10.06-1-23.32,10.77-26,.29-.07.16-.47-.12-.43Z"/><path class="cls-17" d="M54.17,89.15A24,24,0,0,0,38.5,114.77c.66,5,3,10.66,7.17,13.78,5.87,4.37,13.46.78,19.81,3.73.33.15.63-.32.29-.51-3.22-1.78-6.47-1.59-10.07-1.54-7.73.1-12.93-3.67-15.42-11-4.21-12.3,2.4-24.69,14-29.6.3-.12.18-.62-.14-.5Z"/><path class="cls-17" d="M67.23,127.48a9.16,9.16,0,0,0-1.39,9.12c.18.49,1,.29.8-.22-1-3.08-.46-5.75,1-8.55.15-.28-.23-.61-.46-.35Z"/><path class="cls-17" d="M66.22,136.69a82,82,0,0,0,8.59,0,.14.14,0,0,0,0-.28,82.06,82.06,0,0,0-8.59.1.1.1,0,1,0,0,.2Z"/><path class="cls-17" d="M67.19,128c3.16.4,6.24,1,9.37,1.53a.1.1,0,0,0,0-.2,34.91,34.91,0,0,0-9.42-1.56c-.15,0-.14.21,0,.23Z"/><path class="cls-17" d="M78.09,127.16c-2.32,2.23-3.62,6.53-3.83,9.67a.26.26,0,0,0,.5.07,39.21,39.21,0,0,1,1.3-5c.6-1.61,1.55-3.06,2.13-4.67a.06.06,0,0,0-.1-.06Z"/><path class="cls-17" d="M74.41,136.57c1.65,1.59,3.41,3.09,5.17,4.57.17.14.42-.1.25-.26-1.69-1.54-3.42-3.09-5.21-4.51-.14-.11-.34.07-.21.2Z"/><path class="cls-17" d="M79,141.05a15.16,15.16,0,0,0,6.16-3.9c.15-.15-.07-.35-.23-.23-1,.79-2,1.6-3,2.3s-2,1.1-2.92,1.79a0,0,0,0,0,0,0Z"/><path class="cls-17" d="M75.3,136.25a28.25,28.25,0,0,0,6.53-.68c.19,0,.15-.36,0-.34a28.31,28.31,0,0,0-6.5.92.05.05,0,0,0,0,.1Z"/><path class="cls-17" d="M77.71,127.15a30,30,0,0,0,4.51,1.11.22.22,0,0,0,.11-.42,32.73,32.73,0,0,0-4.58-1c-.17,0-.18.23,0,.28Z"/><path class="cls-17" d="M93.83,127c-4.11-1.43-11.26-1.2-14.6,2a2.88,2.88,0,0,0-1,3c1,3.32,5.89,2.51,6.71,6.2.09.39.68.22.6-.17a3.92,3.92,0,0,0-1.39-2.39,10.15,10.15,0,0,0-2.31-1.26c-1.57-.74-5.46-2.26-1.68-5.43,1.62-1.35,5.37-1.73,7.35-1.87a44.75,44.75,0,0,1,6.23.3c.26,0,.29-.36.06-.44Z"/><path class="cls-17" d="M85.51,138.61A7.79,7.79,0,0,0,89.1,140a10.87,10.87,0,0,0,3.92.39c.2,0,.17-.33,0-.38-1.29-.39-2.7-.37-4-.65a15.18,15.18,0,0,0-3.48-.72s0,0,0,0Z"/><path class="cls-17" d="M93.21,139.87a7.49,7.49,0,0,0-1.8-2.36,14.47,14.47,0,0,0-2.3-2.39c-.13-.08-.26.08-.2.2a14.05,14.05,0,0,0,2,2.43,7.8,7.8,0,0,0,2.23,2.17,0,0,0,0,0,.07,0Z"/><path class="cls-17" d="M89.89,134.24c.7-1.06,1.26-2.2,1.85-3.31.39-.72,2.09-4.66,3.39-2.66.11.17.39,0,.28-.17-.59-1-1.82-.7-2.49.06A13.72,13.72,0,0,0,91.35,131a33.93,33.93,0,0,0-1.58,3.2c0,.07.08.11.12.05Z"/><path class="cls-17" d="M95.37,130.5c0,.49,0,1,0,1.48a4.7,4.7,0,0,0,0,1.3.1.1,0,0,0,.2,0,4.7,4.7,0,0,0,.06-1.3c0-.49,0-1,0-1.48a.12.12,0,1,0-.24,0Z"/><path class="cls-17" d="M95,136.12a45.94,45.94,0,0,0-2,4.19c-.08.18.19.34.27.16a45.22,45.22,0,0,0,1.89-4.28c0-.09-.11-.15-.16-.07Z"/><path class="cls-17" d="M92,135.24a22.81,22.81,0,0,0,5.21.88c.32,0,.4-.52.08-.57A23.38,23.38,0,0,0,92,135a.12.12,0,0,0,0,.23Z"/><path class="cls-17" d="M97.67,136a10.37,10.37,0,0,0,.19-3c0-.2-.35-.19-.39,0a10.2,10.2,0,0,0,.07,3c0,.07.12.1.13,0Z"/><path class="cls-17" d="M92.31,133a9.93,9.93,0,0,0,2.37.37,6.86,6.86,0,0,0,2.39,0,.17.17,0,0,0,0-.33,6.84,6.84,0,0,0-2.39-.25,9.87,9.87,0,0,0-2.37.08s0,.08,0,.09Z"/><path class="cls-17" d="M95.42,134.35c0,.15,0,.22,0,.37s.39.24.38,0a2.35,2.35,0,0,0-.05-.37.15.15,0,0,0-.29,0Z"/><path class="cls-17" d="M92.24,132.4a4.94,4.94,0,0,0-.55,3.33c0,.18.34.14.32,0a7.1,7.1,0,0,1,.38-3.23c0-.09-.11-.14-.15-.06Z"/><path class="cls-17" d="M94.76,128.63a21.57,21.57,0,0,0,3.41,0l1.55-.06.93,0c.62-.13.74.29.35,1.24-.35.33-2.51,0-3,0-1.29,0-2.59,0-3.88,0a.2.2,0,0,0,0,.39,41.71,41.71,0,0,0,6.89,0c.71-.08,1.6-.4,1.51-1.28s-.88-.88-1.55-.9a28.85,28.85,0,0,0-6.23.4c-.13,0-.08.19,0,.2Z"/><path class="cls-17" d="M94.27,128.36a1.48,1.48,0,0,0-.61,2.26c.13.16.35,0,.27-.2a1.55,1.55,0,0,1,.4-1.95.06.06,0,0,0-.06-.11Z"/><path class="cls-17" d="M97.35,134.85c.7,0,1.41.06,2.11,0a.16.16,0,0,0,0-.31c-.7,0-1.41,0-2.11,0a.14.14,0,0,0,0,.27Z"/><path class="cls-17" d="M99.18,134.88a11.85,11.85,0,0,0,0,1.46.12.12,0,0,0,.24,0,10.16,10.16,0,0,0,0-1.46.12.12,0,0,0-.23,0Z"/><path class="cls-17" d="M99.48,136.77a25.87,25.87,0,0,0-4.4-.14.2.2,0,0,0,0,.39,25.87,25.87,0,0,0,4.4-.14.06.06,0,0,0,0-.11Z"/><path class="cls-17" d="M98.31,135.32c-.06.16-.11.32-.16.48a.15.15,0,0,0,.28.08c0-.17.07-.33.1-.5a.11.11,0,0,0-.22-.06Z"/><path class="cls-17" d="M68.67,127.94c-.5.59-1.11,1.88-.61,2.62a.12.12,0,0,0,.22,0,3.36,3.36,0,0,0,.21-1.1,6.82,6.82,0,0,1,.44-1.32c.07-.16-.12-.36-.26-.2Z"/><path class="cls-17" d="M72.82,128.61c-.47.13-.78.68-1,1.11s-.42,1.11-.14,1.53a.2.2,0,0,0,.34,0c.2-.4.09-.88.23-1.3s.5-.79.65-1.23c0-.07,0-.13-.12-.11Z"/><path class="cls-17" d="M69.88,136.27a13.17,13.17,0,0,1,.21-4.6c0-.23-.27-.4-.4-.17a6.31,6.31,0,0,0-.28,4.9.24.24,0,0,0,.47-.13Z"/><path class="cls-17" d="M85.34,59.67a3.8,3.8,0,0,1,1.15.33,2.12,2.12,0,0,1,.81,1c.07.17.3,0,.27-.11-.15-.86-1.38-1.83-2.24-1.3,0,0,0,.07,0,.07Z"/><path class="cls-17" d="M81.86,8.35c.1-.88-.28-1.74-.21-2.63.09-1.12.82-2.39,2.1-2.25,2.34.25,2.11,3.27,2,4.91,0,.4.57.39.62,0,.26-2,0-5.82-2.94-5.56-2.5.21-2.93,3.93-1.73,5.59a.12.12,0,0,0,.21-.06Z"/><path class="cls-17" d="M107.44,8.42a6.63,6.63,0,0,1-.19-2.51,2.29,2.29,0,0,1,1.87-1.79c2.37-.27,2.33,2.89,2.19,4.41,0,.34.49.34.52,0a5.8,5.8,0,0,0-.48-3.74,2.39,2.39,0,0,0-2.3-1.19c-2.19.27-3.1,3.23-1.83,4.88.06.08.23.07.22-.06Z"/><path class="cls-17" d="M112,8.81a5.49,5.49,0,0,0-.52,1.49,15.4,15.4,0,0,0-.43,1.75.21.21,0,0,0,.41.11,14.41,14.41,0,0,0,.48-1.74,5.5,5.5,0,0,0,.28-1.55.12.12,0,0,0-.22-.06Z"/><path class="cls-17" d="M112.06,10a14.7,14.7,0,0,0-.65,2.94c0,.26.39.31.45.06a14.18,14.18,0,0,0,.42-3c0-.13-.18-.15-.22,0Z"/><path class="cls-17" d="M81.55,106.58c9.13,8.9,24,8.17,33-.42.24-.23-.12-.58-.37-.36-10,8.4-22.09,8-32.31.39-.23-.17-.5.2-.3.39Z"/><path class="cls-17" d="M81.33,103.22a2.63,2.63,0,0,0-3.07.41c-.58.58-1.28,2.15-.51,2.82a.27.27,0,0,0,.45-.12,3.93,3.93,0,0,0,0-1,2.1,2.1,0,0,1,.46-1.12,2.24,2.24,0,0,1,2.49-.62c.23.08.38-.29.16-.4Z"/><path class="cls-17" d="M115.14,104.4a2.55,2.55,0,0,1,2,2.26c0,.53.85.55.84,0a2.8,2.8,0,0,0-.89-2,2.64,2.64,0,0,0-1.93-.72c-.22,0-.29.37,0,.41Z"/><path class="cls-17" d="M87.78,109.94a69.22,69.22,0,0,0,22.52-.72c.36-.07.21-.6-.15-.54a102.49,102.49,0,0,1-22.34,1c-.12,0-.16.2,0,.22Z"/><path class="cls-17" d="M87,110.41c6.58,6,17.78,5.5,23.51-1.48a.18.18,0,0,0-.25-.25c-7.3,6.14-15.14,6.8-23.15,1.57a.1.1,0,0,0-.11.16Z"/><path class="cls-17" d="M83,67.83a7,7,0,0,1,7-.22.48.48,0,0,0,.48-.82,7.42,7.42,0,0,0-7.95.25c-.47.34-.06,1.09.46.79Z"/><path class="cls-17" d="M111.23,57.35c-2.6-1.06-5.46,1.63-5.85,4.11a4.79,4.79,0,0,0,3.72,5.18c5.51,1.5,8.21-6.12,3.69-9-.46-.29-.87.43-.42.73,3.59,2.37,1.63,8.53-2.87,7.54A4.2,4.2,0,0,1,106,62c0-2.88,2.69-4.24,5.18-4.46a.09.09,0,0,0,0-.18Z"/><path class="cls-17" d="M111.13,57.53c0-.19.17-.52.19-.74s0-.49,0-.74c0-.58,0-1.16.06-1.73s-.74-.46-.71,0,0,1.15.06,1.73c0,.25,0,.5,0,.74s.17.55.18.74a.07.07,0,1,0,.14,0Z"/><path class="cls-17" d="M108.74,58.93c-.14-.19-.16-.42-.3-.62s-.44-.54-.66-.81c-.45-.54-.9-1.1-1.4-1.59-.22-.22-.64.08-.44.34.4.52.85,1,1.29,1.49.23.24.45.5.68.73s.5.33.73.54c0,0,.14,0,.1-.08Z"/><path class="cls-17" d="M113.77,60.16c.58-.33,1.15-.66,1.7-1a4.37,4.37,0,0,0,1.34-1.06.28.28,0,0,0-.32-.41,4.43,4.43,0,0,0-1.39,1c-.51.42-1,.88-1.47,1.34a.12.12,0,0,0,.14.18Z"/><path class="cls-17" d="M111.15,61.53a1.32,1.32,0,0,1,0,1.88,1,1,0,0,1-1.64-.32c-.3-.63-.14-1.52.67-1.62a1.41,1.41,0,0,1,1.53,1.39.25.25,0,0,0,.49.06,1.89,1.89,0,0,0-2.07-2.08,1.69,1.69,0,0,0-1.22,2.47,1.57,1.57,0,0,0,2.58.6,1.77,1.77,0,0,0-.15-2.62c-.14-.09-.32.13-.19.24Z"/><path class="cls-17" d="M109,55.83c1-1,2.2-1.89,3.76-1.45a3.9,3.9,0,0,1,2.58,3.2c0,.24.37.15.39,0,.42-4.11-5.75-6-7.37-2.07-.16.37.38.62.64.37Z"/><path class="cls-17" d="M111,59.6c-.85-.53-2.09.44-2.24,1.3,0,.15.2.28.27.11a2.12,2.12,0,0,1,.81-1,4.11,4.11,0,0,1,1.15-.33s0-.05,0-.07Z"/><path class="cls-17" d="M113.82,67a7.42,7.42,0,0,0-7.95-.25.48.48,0,0,0,.48.82,7,7,0,0,1,7,.22c.52.3.93-.45.46-.79Z"/></svg>