<svg id="illustration" xmlns="http://www.w3.org/2000/svg" viewBox="0 0 198.43 135.9"><defs><style>.cls-1{fill:#808ebc;}.cls-2{fill:#202121;}.cls-2,.cls-3,.cls-4{stroke:#010101;stroke-miterlimit:10;stroke-width:0.25px;}.cls-3{fill:#808a88;}.cls-4{fill:#568f7a;}.cls-5{fill:#c7785a;}.cls-6{fill:#fff;}.cls-7{fill:#231f20;}.cls-8{opacity:0.21;}.cls-9{fill:#4f4c4a;}.cls-10{fill:#010101;}</style></defs><path class="cls-1" d="M96.34,33.28s-30.81,5.88-35,12.3a16.29,16.29,0,0,0-.5,16.27c1.56,2.48,4.73,4.92,5.5,6.16s3.21,6.11,4.77,6.52,4,.93,4.31,2.57.12,6.91.92,7.93,1.61.88,3.13,1.64c1.88,1-1.35,2.93-.25,5.36s3.16,2.62,3.3,4.26c.15,1.94.73,2.64,2.42,4S84.8,105,86.24,105c2.24.09,5.07,3.74,6.73,5.44,1.46,1.52,6.74,4.28,8.6,6.1a19.94,19.94,0,0,1,3.36,4c.57,1,3-3,3.41-4.11s.68-.34,1.5-1.4,1-.16,4-2.11,2.78-1.85,4.68-4.39,1.11-.7,3.53-4.66c.51-3.8-.67-4.21,1.91-6.68s4.26-3,4.82-5.88-1.67-7.41-.55-11.15,6.38-1.52,9.22-4.18,4-4.83,4.16-6.19.66-1.77.39-3.41-.82-8.83-2-10.13,3.09-8.84-1.87-13.78-13.15-9.56-24.84-10S96.34,33.28,96.34,33.28Z"/><path class="cls-2" d="M111.92,24.72s6.82-19.23,6-20.47a3.23,3.23,0,0,0-3.53-1.32c-1.19.32-7.61,18.21-8.25,19.75S111.47,26,111.92,24.72Z"/><path class="cls-3" d="M100.28,24.26c-.85,2.62,14.87,7.66,16.47,3.81S101.12,21.64,100.28,24.26Z"/><path class="cls-4" d="M111.26,26.48s-6,21.47-8.7,31.66-5,36.45,4.45,55.25c-4.32-.5-13.43-19.26-12.38-38.34s6.72-40.81,11.18-49.2C108,24.5,111.26,26.48,111.26,26.48Z"/><path class="cls-5" d="M125.14,120.65c2.07-2.71,11.23-4.57,15.36-4.52s7.41,4.56,7.41,4.56c2.94,4.47,10.45,9.65,17.05,6.27s8.54-10.57,8-12.45-1.18-.91-.91-4.07,3.12-3.09,3.84-4.91,5.07-2,8-2.53,4.46-3.54,4.34-4.67-2-1.53-3.05-2-1.15-2-1.11-3.15,1.83-2.38,1.81-3-1.22-.66-1.09-1.77c-.56-.32-1.38-2.23-3.49-3.42-4.74-3-15.9.85-15.9.85-.59.53-.21,1.87-.33,2.29.56-1.06-1.1-2.37-1.1-2.37s.35-3.07-6.13-.71-10,9.37-10,9.37,0-1.2-1.7-1.75-7.79,3.24-10.25,5.12-7.07,8.24-7.07,8.24a1.33,1.33,0,0,0-1-.9c-.76-.08-2.56,2-4.38,2.86s-5.58,9.54-5.58,9.54-4.51-.52-6.07,2.49c4.11-1.25,6.92,1.32,9.15,1.49S124.87,121,125.14,120.65Z"/><path class="cls-5" d="M102.2,121.42S92,117,88.66,111.71s-7.81-10.9-14.83-11.28-8.65,4.7-8.4,6.28-1.17,2.05-6.26,1.86c-3.88-.14-2.89-1.67-3-2.81A13.21,13.21,0,0,0,54.62,101c-1.13-2.2-10.69-8.31-17.13-5.6s-4.42,5.45-4.42,5.45A15,15,0,0,0,22.9,92.52c-7.41-1.57-11.38.74-11.15,3.18a5.08,5.08,0,0,0,2.52,3.65s-.13-.44.68-.7,2.05.93,3.48.49-8.54,15.75,6,19.4,14-3.82,20.51-.57,7.92,8.33,13.46,8.19,5.65-1.16,8.83-.28,3.13-.24,5.23,1,2.51,3.65,6.42,3.41,5.56-6.35,12-6.73,11,3.94,11.49,5.12"/><path class="cls-6" d="M113,12.09a7.39,7.39,0,0,0-1.31,1c-.14.12,0,.36.2.26a7.91,7.91,0,0,0,1.28-1,.14.14,0,0,0-.17-.22Z"/><path class="cls-6" d="M111.59,13.37a3.38,3.38,0,0,0,.24,1.08,2,2,0,0,0,.41.88.17.17,0,0,0,.28-.12,2.44,2.44,0,0,0-.31-1.07,2.7,2.7,0,0,0-.44-.84.11.11,0,0,0-.18.07Z"/><path class="cls-6" d="M112.39,15.23a4.45,4.45,0,0,0,.92-.58c.26-.18.44-.25.54-.54a.09.09,0,0,0-.09-.12c-.31,0-.48.2-.72.38a4.36,4.36,0,0,0-.78.64c-.07.09,0,.28.13.22Z"/><path class="cls-6" d="M113.88,14.16c-.08-.31-.21-.6-.28-.92a4.67,4.67,0,0,0-.2-.82c-.09-.19-.36-.11-.42.06a2.13,2.13,0,0,0,.56,1.88.21.21,0,0,0,.34-.2Z"/><path class="cls-6" d="M112.8,13a3.85,3.85,0,0,0,.24,1.57c.08.25.53.23.5-.07a4,4,0,0,0-.46-1.58.15.15,0,0,0-.28.08Z"/><path class="cls-6" d="M112.76,12.93a1.85,1.85,0,0,0-.36,1.27.29.29,0,0,0,.58,0c0-.39.07-.78,0-1.16a.15.15,0,0,0-.26-.11Z"/><path class="cls-6" d="M112.52,13.11a1.55,1.55,0,0,0-.43,1.18.28.28,0,0,0,.55,0,9.11,9.11,0,0,1,.11-1c0-.12-.13-.24-.23-.13Z"/><path class="cls-6" d="M112.62,12.74a2,2,0,0,0-.8.66.23.23,0,0,0,.31.32,1.93,1.93,0,0,0,.68-.79.14.14,0,0,0-.19-.19Z"/><path class="cls-6" d="M112,13.51c-.06.45,0,1.09.43,1.32a.19.19,0,0,0,.29-.17,3.44,3.44,0,0,0-.52-1.18c0-.08-.19-.07-.2,0Z"/><path class="cls-6" d="M112.53,14.6a1.36,1.36,0,0,0,.63-1.71.29.29,0,0,0-.28-.22h-.06a.21.21,0,0,0-.17.1c-.14.22,0,.37,0,.62a1.16,1.16,0,0,1-.35,1c-.13.13,0,.34.2.26Z"/><path class="cls-6" d="M115.36,5.35c-.6.08-1,.89-1.24,1.4a3.18,3.18,0,0,0-.23,2.08.17.17,0,0,0,.34-.05,4.62,4.62,0,0,1,.32-2c.24-.48.74-.81.91-1.29a.1.1,0,0,0-.1-.13Z"/><path class="cls-6" d="M114.08,8.58c.52.31,1.12-.14,1.37-.6a2.51,2.51,0,0,0-.15-2.35.16.16,0,0,0-.29.08c0,.59.33,1.14.19,1.75a1.44,1.44,0,0,1-1.11,1s0,.06,0,.07Z"/><path class="cls-6" d="M114.92,6.43c-.1.28-.1.57-.21.85s-.3.45-.34.71.08.27.21.22a1.43,1.43,0,0,0,.54-1.81.11.11,0,0,0-.2,0Z"/><path class="cls-6" d="M114.91,6.44c-.55.23-.94,1.41-.42,1.82a.2.2,0,0,0,.32,0c.12-.28,0-.52,0-.82s.14-.58.16-.87a.09.09,0,0,0-.11-.09Z"/><path class="cls-6" d="M114.89,6.22a10.9,10.9,0,0,0-.42,1.13A4.76,4.76,0,0,0,114,8.48a.22.22,0,0,0,.34.19,2.1,2.1,0,0,0,.61-1.1,2.59,2.59,0,0,0,.15-1.32.13.13,0,0,0-.23,0Z"/><path class="cls-6" d="M111.54,17.72c-1.33.14-1.7,1.83-1.14,2.82a.27.27,0,0,0,.3.12A1.71,1.71,0,0,0,111.82,18c-.21-.33-.74,0-.52.31a1.13,1.13,0,0,1-.74,1.81l.3.12a1.47,1.47,0,0,1-.14-1.39,2,2,0,0,1,.91-.84c.13-.08.09-.34-.09-.32Z"/><path class="cls-6" d="M111.26,18.6a2.49,2.49,0,0,0-.43,1c-.11.37.49.53.57.15a2.35,2.35,0,0,0,.11-1.11.15.15,0,0,0-.25-.07Z"/><path class="cls-6" d="M111.07,18.44c-.55.21-1,1.22-.34,1.58a.28.28,0,0,0,.39-.16c.07-.21,0-.34,0-.55a1.7,1.7,0,0,1,.18-.63.2.2,0,0,0-.24-.24Z"/><path class="cls-6" d="M111,18.27a2.55,2.55,0,0,0-.19.72c-.07.26-.18.44-.08.71a.29.29,0,0,0,.41.16c.52-.24.52-1.25.17-1.63a.21.21,0,0,0-.31,0Z"/><path class="cls-6" d="M103.36,36.41a59.63,59.63,0,0,0-3.49,10c-1.1,3.68-2,7.42-2.8,11.18,0,.27.36.38.41.11C98.2,54.12,99,50.53,100.06,47s2.5-7,3.44-10.51a.08.08,0,0,0-.14-.06Z"/><path class="cls-6" d="M62.94,45.21c-2.39,3.19-1.32,8.65,2.51,10.24.13,0,.23-.15.13-.24-3.19-2.78-4.23-5.8-2.33-9.82a.18.18,0,0,0-.31-.18Z"/><path class="cls-6" d="M60.24,53.22a2.79,2.79,0,0,0,.92,1.93,3.14,3.14,0,0,0,1.89,1.08c.15,0,.19-.21.07-.28a6.62,6.62,0,0,1-1.71-1.16c-.46-.5-.64-1.12-1-1.62,0-.06-.12,0-.12,0Z"/><path class="cls-6" d="M59.93,57.45c.75,2.16,3,3.94,5.34,3.34.29-.08.19-.46-.07-.5-1.27-.16-2.32,0-3.37-.95-.66-.59-1.11-1.37-1.74-2a.1.1,0,0,0-.16.1Z"/><path class="cls-6" d="M62.17,62.66a5.2,5.2,0,0,0,2.17,2.6c1.12.8,2.62,1,3.58,2,.19.19.44,0,.41-.24-.13-1-1.34-1.19-2.13-1.49-1.66-.64-2.57-1.84-3.88-2.91-.07,0-.17,0-.15.08Z"/><path class="cls-6" d="M70.06,72.48c1.45,2.16,4.93,3.83,7.43,4.22.1,0,.2-.13.08-.19-1.29-.59-2.63-1.06-3.87-1.76S71.41,73,70.16,72.39c-.06,0-.14,0-.1.09Z"/><path class="cls-6" d="M76.5,78.23a2.58,2.58,0,0,0,1.41,3.12.16.16,0,0,0,.15-.26,3.05,3.05,0,0,1-1.17-2.8c0-.24-.33-.26-.39-.06Z"/><path class="cls-6" d="M77,83.29c-.13,1.39,1,3.54,2.48,3.85a.24.24,0,0,0,.23-.4,14.76,14.76,0,0,1-1.58-1.49,7.5,7.5,0,0,1-.89-2,.12.12,0,0,0-.24,0Z"/><path class="cls-7" d="M140.26,65.47a7.58,7.58,0,0,0-.57,1.14,5.32,5.32,0,0,1-.93,1.18A30.34,30.34,0,0,1,136,69.7c-.2.16-.09.58.2.47A8.57,8.57,0,0,0,139.37,68c.57-.62,1.34-1.65,1.11-2.53a.12.12,0,0,0-.22,0Z"/><path class="cls-7" d="M140.31,71c-1.18.57-2.29,1.26-3.47,1.82s-2.42.93-3.61,1.45c-.3.13-.07.52.2.48a14,14,0,0,0,7.1-3.46c.16-.15,0-.37-.22-.29Z"/><path class="cls-7" d="M138.42,59.54a7.4,7.4,0,0,1-1.71,4.27c-1,1-2.18,1.37-3.37,2.06a.18.18,0,0,0,.09.34c3.32.35,5.78-3.84,5.33-6.72,0-.21-.32-.13-.34,0Z"/><path class="cls-7" d="M80,59.51a69.85,69.85,0,0,1,14.49-2.62.24.24,0,0,0,0-.48A30.14,30.14,0,0,0,80,59.29a.12.12,0,0,0,.09.22Z"/><path class="cls-7" d="M105,56.9c2.48,0,4.83,1.24,6.86,2.54.26.16.46-.19.3-.4a6.5,6.5,0,0,0-2.91-1.73,8.82,8.82,0,0,0-4.25-.8c-.24,0-.26.39,0,.39Z"/><path class="cls-7" d="M84.57,60.33c2.11,1.85,5.82,3.81,8.7,2.93a.19.19,0,0,0,0-.38,14.14,14.14,0,0,1-4.43-.73c-1.42-.56-2.66-1.45-4.05-2-.14-.05-.31.11-.17.23Z"/><path class="cls-7" d="M103,62.65a16.68,16.68,0,0,0,11.55-1.82.14.14,0,0,0-.11-.25c-1.77.41-3.48,1-5.28,1.36a39.18,39.18,0,0,1-6.12.42c-.17,0-.21.26,0,.29Z"/><path class="cls-7" d="M74.18,56.81a50.07,50.07,0,0,1,14.89-7.06.16.16,0,0,0-.08-.3,31.85,31.85,0,0,0-15,7.16.13.13,0,0,0,.15.2Z"/><path class="cls-7" d="M108.17,49.31a66.47,66.47,0,0,1,8.94,2c3.2,1.14,5.89,2.92,8.84,4.53a.13.13,0,0,0,.16-.21,27,27,0,0,0-17.91-6.55c-.11,0-.14.18,0,.2Z"/><g class="cls-8"><path class="cls-7" d="M130.94,46.52c-3.56-6.94-13.7-9.83-20.89-9.51-2.52.12-2.54,4.05,0,3.94A22.15,22.15,0,0,1,120.83,43c3,1.47,5.14,3.85,7.82,5.77,1.46,1,3-.93,2.29-2.29Z"/></g><g class="cls-8"><path class="cls-7" d="M100.45,37.59C92.78,36,83,41.27,78.33,47.2c-5.61,7.13,4.28,12.93,10.44,14.22,2,.43,2.9-2.72.86-3.12a17.17,17.17,0,0,1-5.13-1.68c-2.5-1.35-3.2-2-3.34-5-.13-2.81,0-3,1.8-4.57a25.55,25.55,0,0,1,4-2.91c4.3-2.55,9.2-3.26,13.61-5.43a.62.62,0,0,0-.14-1.13Z"/></g><g class="cls-8"><path class="cls-7" d="M94.42,47.18c-1.81-.5-4.3,1-5.74,2-1.76,1.27-3.66,3.27-4.11,5.46-.38,1.81.4,4,2.28,4.64,1.44.47,3.63-.21,3.43-2a1.06,1.06,0,0,0-1-1,7.42,7.42,0,0,1-1.11.07c-.6-.29-.34-1.21-.16-1.64a10.09,10.09,0,0,1,2.27-2.93,17.22,17.22,0,0,1,2.56-2.19A6.4,6.4,0,0,0,94.76,48a.58.58,0,0,0-.34-.85Z"/></g><g class="cls-8"><path class="cls-7" d="M123,52.58c.9,5.33-5.72,8.11-9.6,9.86-2,.9-.52,3.78,1.42,3.38,5.13-1,16.09-8.61,10.55-14.62-1-1.13-2.58.1-2.37,1.38Z"/></g><g class="cls-8"><path class="cls-7" d="M121.34,50.92a4.33,4.33,0,0,0-2.09,1.42,17,17,0,0,1-3.5,2.69c-2.29,1.3-5.21,1.71-7.19,3.47-.8.7-.09,1.83.8,1.92,2.92.27,6.57-1.67,8.91-3.29,1.73-1.2,4.53-3.36,3.86-5.76a.66.66,0,0,0-.79-.45Z"/></g><path class="cls-6" d="M113.08,7a33.67,33.67,0,0,0-4.1,9.36c0,.09.12.17.16.07a99.06,99.06,0,0,1,4.26-9.25.18.18,0,0,0-.32-.18Z"/><path class="cls-6" d="M114.54,4.41a1,1,0,0,1,1.33-.69c.41.09.76.37,1.17.44a.17.17,0,0,0,.16-.28c-.75-.81-2.73-.89-3,.45,0,.19.25.28.3.08Z"/><path class="cls-6" d="M102.94,26.33c-.27-.43-2-1.23-1-1.89a3.17,3.17,0,0,1,1.38-.19,3.27,3.27,0,0,0,1.28-.24.22.22,0,0,0,0-.39,5.26,5.26,0,0,0-2.37-.06,1.3,1.3,0,0,0-1.19.88,1.51,1.51,0,0,0,.37,1.42,1.9,1.9,0,0,0,1.57.61.1.1,0,0,0,0-.14Z"/><path class="cls-6" d="M34.67,102.79a3.29,3.29,0,0,1-.22-2.8c.41-.83,1.13-1.08,1.87-1.53.15-.09.14-.37,0-.4-2.51-.41-3.74,3.56-1.81,4.94.14.1.26-.09.21-.21Z"/><path class="cls-6" d="M46.11,97.33a2.58,2.58,0,0,1,2.14.82c.45.45.73,1,1.21,1.46a.16.16,0,0,0,.26-.16c-.39-1.5-2.08-2.9-3.65-2.47-.19,0-.16.37,0,.35Z"/><path class="cls-6" d="M31.71,101.58c-.45,1.45.57,3.17,1.71,4,.22.16.48-.19.29-.38a5.36,5.36,0,0,1-1.24-1.71,10.55,10.55,0,0,1-.47-1.9.15.15,0,0,0-.29,0Z"/><path class="cls-6" d="M53.76,102.79c.52,1.34.06,2.65.3,4a2.2,2.2,0,0,0,1.31,1.81.26.26,0,0,0,.25-.44c-1.76-1.54,0-4-1.6-5.55-.1-.11-.33,0-.26.16Z"/><path class="cls-6" d="M69.36,110.78c-1.11-1.4-1.79-3.06-.87-4.79.81-1.54,2.24-1.91,3.63-2.71.19-.11.09-.36-.11-.39-4-.46-7.09,6.55-2.82,8.19.19.07.27-.18.17-.3Z"/><path class="cls-9" d="M124.89,108c.46-.33.89-.9,1.47-1s.71.37,1.17.53a.29.29,0,0,0,.34-.14c.35-.73-.68-1.19-1.27-1.2a2.49,2.49,0,0,0-2.08,1.45c-.12.22.14.55.37.37Z"/><path class="cls-9" d="M139,96.79c2.2-.43,5.18-3.79,7-.84a.29.29,0,0,0,.52-.22A2.54,2.54,0,0,0,143.55,94c-1.73.21-3.28,1.61-4.71,2.48a.16.16,0,0,0,.12.29Z"/><path class="cls-9" d="M154.57,89.12A27.07,27.07,0,0,1,157.19,87a11.17,11.17,0,0,1,1.22-.68c.32-.15.65-.29,1-.41.91-.45,1.61,0,2.11,1.35-.14.16,0,.48.23.39,1.7-.62.47-2.59-.9-2.73-2.35-.23-5.46,2.08-6.54,4a.18.18,0,0,0,.28.21Z"/><path class="cls-9" d="M166.55,87.63a7,7,0,0,1,1.79-.56,5.21,5.21,0,0,0,1.53-.32.34.34,0,0,0-.08-.62c-1.09-.35-2.55.61-3.44,1.15a.2.2,0,0,0,.2.35Z"/><path class="cls-9" d="M155.45,91.61c0,2.7,2.94,3.29,5.08,3,.26,0,.19-.45-.07-.45-1.86,0-4.31-.34-4.64-2.59,0-.22-.37-.16-.37,0Z"/><path class="cls-9" d="M126.39,118a25.77,25.77,0,0,1,13.4-2.81.26.26,0,0,0,.07-.5,17.15,17.15,0,0,0-13.69,3c-.16.13,0,.35.22.27Z"/><path class="cls-7" d="M136.4,82.22l-.06,0a.23.23,0,0,0-.22-.06,1.51,1.51,0,0,0-.52,2.31,1.83,1.83,0,0,0,2.66.34A1.92,1.92,0,0,0,138.5,82a2,2,0,0,0-2.91-.08c-.45.44.24,1.13.69.69a1.07,1.07,0,1,1,1.35,1.63,1.19,1.19,0,0,1-1.64-.43.92.92,0,0,1,0-1c.13-.2.35-.23.47-.43a.11.11,0,0,0,0-.14Z"/><path class="cls-7" d="M136.65,82.14c-.54,0-.88.55-.93,1a1.32,1.32,0,0,0,.86,1.36,1.37,1.37,0,0,0,1.47-2.22,1.26,1.26,0,0,0-1.69-.11,1.07,1.07,0,0,0,0,1.57.86.86,0,0,0,1.45-.42.7.7,0,0,0-1.2-.6c-.48.42.23,1.12.71.7,0,0-.5-.48-.19-.51a.27.27,0,0,1,.26.12.43.43,0,0,1-.26.64.58.58,0,0,1-.68-.45c-.07-.36.17-.64.33-.95a.1.1,0,0,0-.1-.15Z"/><path class="cls-7" d="M165.87,72.14c-.89-.51-2,.4-2.13,1.29a1.93,1.93,0,0,0,1.92,2.13,2.12,2.12,0,0,0,2-2.24c-.08-1.06-1.27-2.14-2.3-1.43a.35.35,0,0,0,.18.64c.56,0,1.17.23,1.22.88a1.23,1.23,0,0,1-1.12,1.29,1.1,1.1,0,0,1-1.24-1.13c.05-.74.7-.91,1.3-1,.23,0,.36-.33.13-.46Z"/><path class="cls-7" d="M166.44,72.58c-.24.3-.32.68-.56,1a4,4,0,0,1-1,.78c-.25.19-.21.72.18.68.9-.09,2.12-1.42,1.78-2.36,0-.13-.25-.23-.35-.09Z"/><path class="cls-7" d="M166.67,72.73A2.23,2.23,0,0,0,164.49,74c-.31.6.57,1.12.9.53a5.65,5.65,0,0,1,.62-.89c.23-.26.51-.46.72-.71a.13.13,0,0,0-.06-.22Z"/><path class="cls-7" d="M166.61,72.7a1.63,1.63,0,0,0-2.24,1c-.25.68.81.94,1.08.3a1.59,1.59,0,0,1,1.11-.92.2.2,0,0,0,.05-.36Z"/><path class="cls-7" d="M166.09,72.43c-.67,0-1.19,0-1.68.56a1,1,0,0,0,.13,1.48.45.45,0,0,0,.67-.39,1.72,1.72,0,0,1,0-.71c.11-.26.71-.56,1-.65s.14-.3,0-.29Z"/><path class="cls-7" d="M165.61,74.6a1.18,1.18,0,0,0,1.54-.57.47.47,0,0,0-.07-.53l-.05-.06a.33.33,0,0,0-.4,0c-.23.1-.24.24-.35.44a.9.9,0,0,1-.62.43.19.19,0,0,0,0,.34Z"/><path class="cls-7" d="M164.14,74.43a2.08,2.08,0,0,0-.57.35c-.25.19.07.6.33.44a2.22,2.22,0,0,0,.47-.39c.14-.16,0-.49-.23-.4Z"/><path class="cls-7" d="M163.32,75.09A4.89,4.89,0,0,0,160,76.47c-.61.47.25,1.33.85.85a18.84,18.84,0,0,0,2.58-1.93.18.18,0,0,0-.12-.3Z"/><path class="cls-7" d="M160.15,76.73a11.89,11.89,0,0,0-1.74.5,3.46,3.46,0,0,0-1.38.57.25.25,0,0,0,.17.42,4.13,4.13,0,0,0,1.58-.48,12,12,0,0,0,1.53-.63c.23-.12.06-.42-.16-.38Z"/><path class="cls-7" d="M160.2,77c-.31.34-1.93,3.32-.69,3.19a.2.2,0,0,0,.19-.25c-.16-.45.16-.92.33-1.34a5,5,0,0,0,.46-1.48.17.17,0,0,0-.29-.12Z"/><path class="cls-7" d="M162.48,75.24a14.89,14.89,0,0,0-1.53-.39c-.42-.11-.79-.24-1.15.06a.31.31,0,0,0,0,.42c.28.35.74.25,1.15.24s1,0,1.5-.07a.13.13,0,0,0,0-.26Z"/><path class="cls-7" d="M162.92,75.59a4.53,4.53,0,0,0-.37,1.29c-.07.38-.19.66.09,1a.27.27,0,0,0,.32,0c.38-.21.34-.6.4-1a4.31,4.31,0,0,0,0-1.24.27.27,0,0,0-.48-.07Z"/><path class="cls-7" d="M163.17,75.51c.53-.09,1.3-.28,1.57-.79,0-.09,0-.17-.11-.19-.57-.07-1.17.45-1.54.84-.07.06,0,.15.08.14Z"/><path class="cls-7" d="M134.39,85.84a.05.05,0,0,0,0-.1.05.05,0,1,0,0,.1Z"/><path class="cls-7" d="M134.43,85.48a4.78,4.78,0,0,0-1.94,1.79c-.29.5.43,1.11.83.64a22.77,22.77,0,0,0,1.49-2c.17-.25-.15-.5-.38-.38Z"/><path class="cls-7" d="M132.5,87.55A8.15,8.15,0,0,0,130.18,89a.22.22,0,0,0,.26.34,8,8,0,0,0,2.18-1.67c.08-.07,0-.19-.12-.14Z"/><path class="cls-7" d="M132.93,87.81a3.44,3.44,0,0,0,0,1.32,5.46,5.46,0,0,0,.16,1.34c.08.21.44.26.48,0a5.38,5.38,0,0,0-.07-1.44,3.37,3.37,0,0,0-.25-1.26.17.17,0,0,0-.3,0Z"/><path class="cls-7" d="M134.32,85.47c-.62,0-1.23.1-1.84.18-.46,0-.95,0-1.28.37a.17.17,0,0,0,0,.27,1.91,1.91,0,0,0,1.33,0c.61-.12,1.21-.24,1.82-.38.23,0,.18-.44-.06-.42Z"/><path class="cls-7" d="M134.5,85.77a6,6,0,0,0,.33,1.33,3.8,3.8,0,0,0,.53,1.26.18.18,0,0,0,.34-.09,4,4,0,0,0-.26-1.33,6.44,6.44,0,0,0-.48-1.29.25.25,0,0,0-.46.12Z"/><path class="cls-7" d="M134.73,85.82a2.86,2.86,0,0,0,.75-.72,1.91,1.91,0,0,0,.53-.76c.05-.16-.13-.26-.26-.2a2.49,2.49,0,0,0-.75.73,2.6,2.6,0,0,0-.51.76c-.05.14.12.25.24.19Z"/><path class="cls-7" d="M50.64,75.86c-.42-.2-.75.38-.88.69a1.85,1.85,0,0,0,.07,1.61,1.9,1.9,0,0,0,2.89.34,2,2,0,0,0-.29-3,1.94,1.94,0,0,0-1.59-.23c-.54.16-1.14.57-1,1.2a.41.41,0,0,0,.49.28c.56-.08.94-.74,1.57-.33a.89.89,0,0,1-.09,1.48,1,1,0,0,1-1.42-.7,1.25,1.25,0,0,1,.24-.95c.05-.1.2-.34,0-.43Z"/><path class="cls-7" d="M50.89,76c-.92.19-1,1.49-.35,2a1.25,1.25,0,0,0,2.05-.67,1.15,1.15,0,0,0-1.74-1.23c-.87.63-.22,2.15.85,1.72a.61.61,0,0,0,.41-.72.54.54,0,0,0-.41-.41c-.23-.06-.32-.06-.28.21s.06.19,0,.25-.24,0-.33-.12,0-.52.09-.77a.23.23,0,0,0-.28-.28Z"/><path class="cls-7" d="M54,79.18c.18.95,1.44,1.45,2.2,1.87s1.76,1.16,2.74,1a.52.52,0,0,0,.37-.65c-.37-.91-1.44-1.36-2.25-1.85s-1.8-1.31-2.72-1a.49.49,0,0,0-.34.58Z"/><path class="cls-7" d="M59,82a6.11,6.11,0,0,0,.54,1.5,3.9,3.9,0,0,0,.79,1.37.33.33,0,0,0,.55-.32,4.71,4.71,0,0,0-.6-1.36,11.2,11.2,0,0,0-.73-1.42A.3.3,0,0,0,59,82Z"/><path class="cls-7" d="M59.34,81.77a3.46,3.46,0,0,0,1.88.8,4.52,4.52,0,0,0,2.14.25.36.36,0,0,0,.09-.66,6.57,6.57,0,0,0-2.12-.5,4.05,4.05,0,0,0-1.92-.14.16.16,0,0,0-.07.25Z"/><path class="cls-7" d="M55.59,79a8.55,8.55,0,0,0,2,.15,7.16,7.16,0,0,0,2,0,.22.22,0,0,0,.05-.41,4.06,4.06,0,0,0-2-.37,4.5,4.5,0,0,0-2,.27.19.19,0,0,0,0,.33Z"/><path class="cls-7" d="M54.36,80a5,5,0,0,0,.12,1.64A4,4,0,0,0,55,83.4a.24.24,0,0,0,.42-.06,3.62,3.62,0,0,0-.16-1.66A5.2,5.2,0,0,0,54.69,80c-.07-.12-.3-.13-.33,0Z"/><path class="cls-7" d="M41,80.93l0-.06a.31.31,0,0,0-.37-.21c-1.39.42-.66,2.12.07,2.84a2.32,2.32,0,0,0,3.36,0c.91-1.07.17-2.49-.91-3.09-.85-.47-3.1-.38-2.66,1.11a.41.41,0,0,0,.6.24c.57-.28.89-.68,1.59-.34s1,1.37.1,1.68A1.8,1.8,0,0,1,41,82.41a1.17,1.17,0,0,1-.07-1.27c0-.07.1-.13.07-.21Z"/><path class="cls-7" d="M41.37,81c-.86.12-.94,1.26-.48,1.82a1.67,1.67,0,0,0,2.54,0c.68-1-.22-2-1.21-2s-2.08.89-1.44,1.85a.65.65,0,0,0,.71.29.69.69,0,0,0,.45-.54,2,2,0,0,1,0-.24s0,0,0,0a.91.91,0,0,1,.32.06c.05-.21,0-.26-.08-.15l-.09,0A.81.81,0,0,1,41.7,82a.51.51,0,0,1-.09-.69.21.21,0,0,0-.24-.31Z"/><path class="cls-7" d="M43.12,85.73c0,1.06.87,2.19,1.4,3.06.64,1,2.28.08,1.64-1-.52-.86-1.12-2.2-2.06-2.66a.65.65,0,0,0-1,.56Z"/><path class="cls-7" d="M43.54,85.69a5.05,5.05,0,0,0-.88,1.63,3.29,3.29,0,0,0-.28,1.82.14.14,0,0,0,.26,0,5.69,5.69,0,0,0,.58-1.57c.19-.6.4-1.17.56-1.77,0-.13-.15-.26-.24-.14Z"/><path class="cls-7" d="M44.64,85.77a7.31,7.31,0,0,0,3.07.35.28.28,0,0,0,.07-.51,7.26,7.26,0,0,0-3.08-.31.24.24,0,0,0-.06.47Z"/><path class="cls-7" d="M44.8,89.37c-.52.18-.27,1-.2,1.44.11.62.25,1.56.86,1.89a.28.28,0,0,0,.39-.16c.14-.66-.35-1.4-.49-2,0-.2-.11-1.27-.56-1.13Z"/><path class="cls-7" d="M45.75,89.17a6.56,6.56,0,0,0,1.49,1.38c.48.43.91,1,1.56,1.2.14,0,.35-.08.33-.25a2.73,2.73,0,0,0-1.28-1.65,3.62,3.62,0,0,0-2-.95.18.18,0,0,0-.15.27Z"/><path class="cls-10" d="M113.08,11.62a18.84,18.84,0,0,1-1.88,1.57.08.08,0,0,0,0,.09c.29.78.62,1.55,1,2.31,0,.08.18.09.24,0l1.72-1.26a.07.07,0,0,0,0-.08c-.29-.77-.53-1.57-.89-2.31,0-.09-.28-.08-.24,0a11.43,11.43,0,0,0,.42,1.16,3.42,3.42,0,0,1,.34.86c0,.63-1.16,1.14-1.6,1.46l.25,0c-.15-.39-.3-.77-.46-1.16a2.3,2.3,0,0,1-.35-1.08c.09-.59,1.12-1.23,1.56-1.66,0,0,0,0-.06,0Z"/><path class="cls-10" d="M111.31,17.6a3,3,0,0,0-1.22,1.21,2.5,2.5,0,0,0,.32,2c0,.08.17.08.24,0,.51-.33,1-.69,1.49-1.05a0,0,0,0,0,0,0c-.15-.73-.27-1.47-.39-2.21,0-.12-.27-.1-.24,0,.07.33.14.65.22,1s.3.81.14,1.13-1,.75-1.45,1l.23,0a2.4,2.4,0,0,1-.32-1.91,3,3,0,0,1,1.12-1.14c.12-.09-.09-.16-.17-.11Z"/><path class="cls-10" d="M115.41,5.31a3.39,3.39,0,0,0-1.69,3.77c0,.05.11.06.16.05a2.38,2.38,0,0,0,1.76-.79,1.89,1.89,0,0,0,.19-1.13c0-.64,0-1.28-.08-1.93,0-.12-.3-.12-.29,0,.05.73.12,1.46.14,2.19,0,1.11-.88,1.38-1.79,1.51l.16.07a3.59,3.59,0,0,1,1.51-3.7s0-.06-.07,0Z"/><path class="cls-10" d="M101.45,25.25c.47-.44,1-.88,1.41-1.34,0,0-.06-.05-.08,0l-1.43,1.33s.07.07.1,0Z"/><path class="cls-10" d="M103,25.08s0,0,0,0,0,0,0,0Z"/><path class="cls-10" d="M102.15,26.13c1-.95,2.08-1.9,3.1-2.87.07-.06-.1-.1-.15-.05-1,.94-2,1.91-3.07,2.87-.06.05.08.09.12.05Z"/><path class="cls-10" d="M103.21,26.84l4.18-3.48c.06-.05-.09-.09-.14-.05l-4.14,3.48s.07.07.1.05Z"/><path class="cls-10" d="M107.17,25.33a20,20,0,0,0,1.88-1.41s0,0-.07,0a22.92,22.92,0,0,0-1.89,1.39s0,.08.08,0Z"/><path class="cls-10" d="M110,25.91c.68-.38,1.42-.71,2.07-1.15,0,0,0-.08-.07-.06a21.46,21.46,0,0,0-2.11,1.14c-.08,0,0,.1.11.07Z"/><path class="cls-10" d="M110.71,28.09c1.15-.73,2.39-1.42,3.48-2.25.09-.07-.07-.11-.13-.08-1.21.66-2.34,1.5-3.48,2.25-.1.06.07.13.13.08Z"/><path class="cls-10" d="M111.73,28.88c1.39-.75,2.81-1.49,4.16-2.32.06,0,0-.08-.09-.06-1.41.72-2.78,1.54-4.14,2.33,0,0,0,.07.07.05Z"/><path class="cls-10" d="M114.82,28.86c.65-.38,1.34-.73,2-1.15,0,0,0-.06-.07,0-.67.34-1.32.77-2,1.15,0,0,0,.06.07,0Z"/><path class="cls-10" d="M108,27.64c-2.21,6.6-4.18,13.25-5.84,20-1.56,6.38-3.27,13-3.9,19.52,0,.08.18.09.19,0,1.64-6.58,2.66-13.32,4.27-19.92s3.4-13.15,5.4-19.62c0-.06-.1-.07-.12,0Z"/><path class="cls-10" d="M97.54,72.75s0,0,0,0,0,0,0,0Z"/><path class="cls-10" d="M97.63,72.3a72.12,72.12,0,0,0,2.81,26.17s.1,0,.09,0A78.81,78.81,0,0,1,97.76,72.3c0-.06-.13-.06-.13,0Z"/><path class="cls-10" d="M106.75,112.88a3.93,3.93,0,0,1-1.59-2s-.11,0-.1,0a3.67,3.67,0,0,0,1.63,2s.11,0,.06,0Z"/><path class="cls-10" d="M106.25,112.88c-.78-.76-1.55-1.53-2.35-2.26,0,0-.11,0-.08,0,.77.77,1.57,1.51,2.36,2.26,0,0,.1,0,.07,0Z"/><path class="cls-10" d="M106.15,112.31c-.49-.91-1-1.83-1.48-2.73,0,0-.09,0-.07,0,.46.93,1,1.83,1.48,2.74,0,0,.09,0,.07,0Z"/><path class="cls-10" d="M98.59,43.16a46.27,46.27,0,0,0-21.52,9.28c-.07.05.06.1.11.07a48,48,0,0,1,21.46-9.22c.14,0,0-.14,0-.13Z"/><path class="cls-10" d="M98,41.43a21.9,21.9,0,0,0-13.51,3.76c-.07,0,0,.08.09.06A22.87,22.87,0,0,1,98,41.51c.07,0,.07-.08,0-.08Z"/><path class="cls-10" d="M83,44a14.69,14.69,0,0,0-8.57,8.28s.08.05.1,0A15.13,15.13,0,0,1,83.07,44c.05,0,0-.06,0,0Z"/><path class="cls-10" d="M78.3,37.27,68,41.89c-2.26,1-5.15,1.9-6.83,3.84-3.5,4.08.75,8.67,4.59,10.21.08,0,.22,0,.1-.11-2.41-1.11-4.78-2.64-5.51-5.37-.94-3.53,1.65-5.66,4.5-7,4.46-2.14,9-4.07,13.55-6.09.09,0,0-.1-.06-.08Z"/><path class="cls-10" d="M79.21,37.41a50.82,50.82,0,0,1,23.73-5.53c.1,0,.1-.11,0-.11a48.23,48.23,0,0,0-23.79,5.59c-.05,0,0,.06.06,0Z"/><path class="cls-10" d="M110,32.5a44.82,44.82,0,0,1,18.77,5.14,43.8,43.8,0,0,1,7.46,5A12.63,12.63,0,0,1,139.35,46c1.33,2.39.13,4.14-1.32,6.1-7.85,10.65-20.7,16.16-33.79,15.47-.11,0-.1.1,0,.11a38.89,38.89,0,0,0,20.5-4.08c5.67-2.88,11.9-7.7,14.93-13.44,1.38-2.61,0-4.65-2-6.49A40.61,40.61,0,0,0,129,37.52a44.26,44.26,0,0,0-19-5.1c-.08,0-.08.08,0,.08Z"/><path class="cls-10" d="M91.27,66.14a47.17,47.17,0,0,1-20.09-6c-.06,0-.22,0-.12.09a42.42,42.42,0,0,0,20.21,6c.08,0,.08-.07,0-.08Z"/><path class="cls-10" d="M104,61.53s0,0,0,0,0,0,0,0Z"/><path class="cls-10" d="M103.18,59.55a13.31,13.31,0,0,0,5.62-.18c.11,0,0-.13-.08-.12a15.89,15.89,0,0,1-5.5.22c-.07,0-.12.07,0,.08Z"/><path class="cls-10" d="M107.42,41.8a45.19,45.19,0,0,1,9.19,1.89c.07,0,.19-.06.08-.1a37.45,37.45,0,0,0-9.25-1.88c-.08,0-.11.08,0,.09Z"/><path class="cls-10" d="M111.36,39.66a21.64,21.64,0,0,1,7.32,2s.17,0,.09-.08a20.13,20.13,0,0,0-7.41-2c-.1,0-.1.1,0,.11Z"/><path class="cls-10" d="M108.92,35.74a34.2,34.2,0,0,1,20.2,5s.14,0,.08-.05a32.57,32.57,0,0,0-20.28-5s0,.05,0,.05Z"/><path class="cls-10" d="M102.28,34.82a42.09,42.09,0,0,0-27.07,12.1s.07.07.1,0a45.74,45.74,0,0,1,27-12.06c.08,0,0-.09,0-.08Z"/><path class="cls-10" d="M82.24,37.75a29.46,29.46,0,0,0-13,9.65c0,.05.09.08.12,0a30.49,30.49,0,0,1,12.91-9.66s0,0,0,0Z"/><path class="cls-10" d="M71.12,54.53s0,0,0,0,0,0,0,0Z"/><path class="cls-10" d="M72.69,47.76c1.88-2,3.79-4.06,5.65-6.12,0,0-.06-.06-.09,0-1.92,2-3.79,4.07-5.68,6.11,0,.06.08.09.12,0Z"/><path class="cls-10" d="M59.46,51.36c-1.81,2.47.94,4.77,2.87,6,.05,0,.18,0,.1-.06-1.86-1.21-4.64-3.41-2.86-5.87,0-.06-.08-.08-.11,0Z"/><path class="cls-10" d="M59.42,54.84a4.77,4.77,0,0,0,.84,5,6.48,6.48,0,0,0,5.1,1.76c.08,0,.08-.08,0-.08-2,0-4-.45-5.27-2.16a4.93,4.93,0,0,1-.58-4.48s-.07,0-.09,0Z"/><path class="cls-10" d="M58.85,58.71a12.91,12.91,0,0,0,8.43,8.15s.14,0,.06-.06a14.61,14.61,0,0,1-8.42-8.11s-.08,0-.07,0Z"/><path class="cls-10" d="M65.31,66a8.63,8.63,0,0,0,9.09,6.79c.1,0,.1-.1,0-.1a8.94,8.94,0,0,1-9-6.69s-.11,0-.11,0Z"/><path class="cls-10" d="M68.63,71.26c-.07,1.9,1.53,2.7,3,3.46,2.45,1.24,4.9,2.53,7.39,3.69.06,0,.2,0,.11-.09-1.83-1-3.71-1.9-5.58-2.84s-4.66-1.77-4.86-4.22c0,0-.09,0-.09,0Z"/><path class="cls-10" d="M75.56,77.15c-2,5.71,7.7,8.65,11.47,9.68.07,0,.2-.06.09-.1-3.79-1.23-13.39-3.85-11.41-9.55,0-.07-.13-.09-.15,0Z"/><path class="cls-10" d="M76.13,81.66c-.91,3.11,2.08,4.9,4.47,6.15a23.22,23.22,0,0,0,9.51,2.61c.08,0,.12-.1,0-.11-3.88-.36-15.51-2.73-13.85-8.62,0-.07-.13-.09-.15,0Z"/><path class="cls-10" d="M80,88c-.78,2.13-1.24,4.74,1,6.15a20.72,20.72,0,0,0,4.16,1.65c1.89.69,3.78,1.4,5.69,2,.08,0,.2-.06.09-.1-2.39-1-4.84-1.78-7.26-2.66-1.42-.51-2.94-1-3.77-2.37s-.16-3.3.2-4.68c0,0-.08-.06-.09,0Z"/><path class="cls-10" d="M82.53,96.41c.19,5,6.45,5.56,9.56,8,0,0,.17,0,.1-.07-3.11-2.55-9.28-3-9.51-8,0-.07-.16-.07-.15,0Z"/><path class="cls-10" d="M85.56,101.28A4.14,4.14,0,0,0,87.88,106a68.73,68.73,0,0,0,8,3.52c.08,0,.21,0,.1-.1-2-.93-4.1-1.8-6.15-2.68-2.43-1-4.7-2.46-4.16-5.43,0,0-.1,0-.12,0Z"/><path class="cls-10" d="M90.92,107.29a4.91,4.91,0,0,0,3,4,53.93,53.93,0,0,0,7.06,2.84c.07,0,.17-.05.08-.09-3.26-1.41-9.57-2.45-10-6.77,0-.05-.12,0-.12,0Z"/><path class="cls-10" d="M96.94,113.2c1.12,1.4,2.73,2,4.22,2.89a10,10,0,0,1,4.08,5.21s.15,0,.13,0a8.83,8.83,0,0,0-3-4.55c-1.68-1.35-3.88-1.85-5.27-3.57,0,0-.18,0-.13,0Z"/><path class="cls-10" d="M139.4,49.94c-1.13,5.12-2.92,9.26-8,11.51-.1,0,0,.12.08.09,5.18-1.92,7.12-6.5,8-11.59,0,0-.07,0-.08,0Z"/><path class="cls-10" d="M138.48,56.77c1.11,3.11,1.5,6-1.41,8.16a20.42,20.42,0,0,1-7.77,3.39c-.13,0-.05.15,0,.13a17.68,17.68,0,0,0,8.48-3.79c2.55-2.24,2-5,.86-7.93,0-.08-.24-.06-.21,0Z"/><path class="cls-10" d="M139.68,63.82c3.63,2.64.12,6.48-2.67,7.82a32.7,32.7,0,0,1-7.38,2.28c-.1,0,0,.11.05.1,3.34-.47,7.54-1.44,10.09-3.83,1.94-1.81,2.54-4.87.06-6.47-.07,0-.26,0-.15.1Z"/><path class="cls-10" d="M140.89,69.19c1.24,3.9-5.65,5.9-8.43,6.68-.07,0,0,.09.06.08a26.88,26.88,0,0,0,6.28-2.58c1.56-.9,2.88-2.3,2.21-4.21,0,0-.14,0-.12,0Z"/><path class="cls-10" d="M139.57,73c-1.63,3.55-5.84,4.45-9.22,5.61-3.75,1.3-7.51,2.55-11.24,3.9-.08,0,0,.09.07.08,4.71-1.55,9.41-3.18,14.08-4.85,2.59-.92,5.32-2,6.44-4.72,0-.06-.11-.07-.13,0Z"/><path class="cls-10" d="M127.67,79.88c-.63,3.73-4.49,4.77-7.65,5.47-.1,0,0,.1,0,.09,3.23-.66,7.14-1.78,7.76-5.56,0-.06-.14-.06-.15,0Z"/><path class="cls-10" d="M127,81.4c2.26,4.46-4,5.3-5.95,7.83,0,0,.07.07.1,0,2.07-2.42,8.3-3.44,6-7.9,0-.07-.21,0-.17,0Z"/><path class="cls-10" d="M126.94,84.59c3.63,4.63-6.39,8-9.14,9.49-.06,0,0,.07.08.06,2.59-1.2,13.27-5.06,9.19-9.6,0,0-.17,0-.13,0Z"/><path class="cls-10" d="M127.29,88.25c2.72,3.34-.72,6.83-3.77,8.14-2.28,1-4.7,1.48-6.83,2.81-.07,0,.06.1.11.07,3-1.81,7-2.09,9.71-4.51,1.9-1.71,2.64-4.49.94-6.57,0-.06-.22,0-.16.06Z"/><path class="cls-10" d="M124.2,96c-1.53,1.62-2.34,3.38-4.36,4.57-2.29,1.34-5,1.73-7.52,2.18-.11,0,0,.12,0,.11a22.69,22.69,0,0,0,7-1.84c2.37-1.19,3.28-3.1,5-4.94.09-.09-.14-.14-.21-.08Z"/><path class="cls-10" d="M121.16,100.55c.64,2.47.15,4.4-2.82,5.24a22.07,22.07,0,0,1-3.15.41c-2.26.28-4.51.54-6.76.88-.12,0,0,.12,0,.11,2.11-.22,4.22-.51,6.32-.78a24.22,24.22,0,0,0,5-.73c2.39-.88,2.15-3.11,1.39-5.14,0,0-.09,0-.08,0Z"/><path class="cls-10" d="M119.53,105.85c.43,2.55-2.41,3.45-4.34,3.88-.08,0,0,.09,0,.08,2-.4,4.92-1.34,4.47-4,0-.07-.18-.07-.17,0Z"/><path class="cls-10" d="M117.29,109.39c-2.34,5.35-10.44,5.1-11.85,11,0,0,.07,0,.08,0,1.82-5.89,9.64-5.5,11.87-11,0,0-.08-.06-.1,0Z"/><path class="cls-10" d="M86.59,65.53a54.49,54.49,0,0,0,25,1.25c.12,0,0-.13-.06-.12a60.06,60.06,0,0,1-24.89-1.2s-.12.05,0,.07Z"/><path class="cls-10" d="M72.05,64.41s0,0,0,0,0,0,0,0Z"/><path class="cls-10" d="M71.92,64.53a63.1,63.1,0,0,0,48.26,4.64c.11,0,0-.12-.09-.1A65.31,65.31,0,0,1,72,64.49s-.1,0,0,0Z"/><path class="cls-10" d="M78,70.89c12.7,6.29,27.77,8.15,41.5,4.29.1,0,0-.12-.06-.1C105.41,78.39,91,77.21,78,70.81c-.05,0-.16,0-.09.08Z"/><path class="cls-10" d="M78.35,74.89a53.33,53.33,0,0,0,41.85,3.55c.11,0,0-.12-.09-.1a55.46,55.46,0,0,1-41.68-3.5s-.14,0-.08,0Z"/><path class="cls-10" d="M83.58,81.59a49.14,49.14,0,0,0,33.88,2.12c.15,0,0-.16-.13-.13a49.38,49.38,0,0,1-33.64-2.11c-.09,0-.23.06-.11.12Z"/><path class="cls-10" d="M87.93,87.66a45,45,0,0,0,30.36-.1c.09,0,0-.11-.08-.09A47.9,47.9,0,0,1,88,87.62s-.1,0,0,0Z"/><path class="cls-10" d="M89,93.57A43.24,43.24,0,0,0,122,90.66c.09,0-.06-.12-.12-.09A46.38,46.38,0,0,1,89,93.5s-.13,0-.06.07Z"/><path class="cls-10" d="M93,99.82a46.47,46.47,0,0,0,25.53-4.13c.07,0,0-.08,0-.06a46.65,46.65,0,0,1-25.45,4.11c-.06,0-.11.07,0,.08Z"/><path class="cls-10" d="M93.32,102a31.84,31.84,0,0,0,23.6-1.59c.07,0,0-.09-.06-.07A33.09,33.09,0,0,1,93.35,102s-.06,0,0,0Z"/><path class="cls-10" d="M94.68,106.11A27.76,27.76,0,0,0,114.76,104s0,0,0,0a29.18,29.18,0,0,1-20,2.06s-.08,0,0,.06Z"/><path class="cls-10" d="M94.44,91.52a32.94,32.94,0,0,0,17.07-.15c.06,0,0-.07,0-.06a33.39,33.39,0,0,1-17,.13c-.07,0-.12.06,0,.08Z"/><path class="cls-10" d="M92.24,82.56a37.85,37.85,0,0,0,18.94.11c.06,0,0-.08,0-.07a40.17,40.17,0,0,1-18.88-.11c-.06,0-.11.05,0,.07Z"/><path class="cls-10" d="M92.8,77.87a39.91,39.91,0,0,0,16.61-.32s0,0,0,0a43.38,43.38,0,0,1-16.57.32s-.08,0,0,.05Z"/><path class="cls-10" d="M93,73.79a37.31,37.31,0,0,0,15.3,1.13c.06,0,0,0,0,0a40,40,0,0,1-15.24-1.12s-.08,0,0,0Z"/><path class="cls-10" d="M96.14,69.76A48,48,0,0,0,107,69.71c.09,0,0-.09,0-.08a51.11,51.11,0,0,1-10.78,0c-.07,0-.14.08,0,.09Z"/><path class="cls-10" d="M92.24,96.75a37.72,37.72,0,0,0,15.55-.19c.08,0,0-.08,0-.07a39.64,39.64,0,0,1-15.5.2s-.08,0,0,.06Z"/><path class="cls-10" d="M87.07,98.58a36.18,36.18,0,0,0,28,5.56s0,0,0,0a36.89,36.89,0,0,1-27.94-5.57s-.13,0-.08,0Z"/><path class="cls-10" d="M89.6,105.45A33,33,0,0,0,112.8,110c.06,0,0-.07,0-.06a33.82,33.82,0,0,1-23.12-4.54s-.1,0-.06,0Z"/><path class="cls-10" d="M101.47,78.71V78.6s0,0,0,0l0,.11s0,0,0,0Z"/><path class="cls-10" d="M88.54,67.89a87.6,87.6,0,0,0,21.83,2.31s0-.06,0-.06a96.9,96.9,0,0,1-21.81-2.3s-.08,0,0,0Z"/><path class="cls-10" d="M77.84,72.09s0,0,0,0,0,0,0,0Z"/><path class="cls-10" d="M70.08,68c2,.8,3.89,1.63,5.85,2.4,0,0,.08,0,0,0C74,69.55,72.08,68.77,70.13,68c0,0-.11,0,0,.06Z"/><path class="cls-10" d="M67,61.9c1.13.6,2.25,1.22,3.41,1.77,0,0,.09,0,0,0C69.32,63,68.17,62.44,67,61.87c0,0-.08,0,0,0Z"/><path class="cls-10" d="M126,68.25a27.3,27.3,0,0,1-8,3.65c-.08,0,0,.09,0,.08a21.67,21.67,0,0,0,8-3.66c.07-.06-.05-.1-.1-.07Z"/><path class="cls-10" d="M129.83,71.59c-2.11,1-4.24,2-6.32,3.12-.07,0,0,.09.08.06,2.12-1,4.22-2.07,6.31-3.12.06,0,0-.08-.07-.06Z"/><path class="cls-10" d="M129.8,77.16c-2.74.79-5.49,1.56-8.19,2.44,0,0,0,.05,0,0,2.75-.74,5.49-1.59,8.21-2.43.06,0,0-.06,0,0Z"/><path class="cls-10" d="M121.2,86.6c-.49.25-1,.49-1.45.76,0,0,0,0,0,0,.5-.24,1-.5,1.48-.75.07,0,0-.07-.08-.05Z"/><path class="cls-10" d="M114.27,90.87c1.79-.65,3.61-1.26,5.37-2,.08,0,0-.1-.07-.08-1.81.6-3.58,1.32-5.36,2-.08,0,0,.09.06.07Z"/><path class="cls-10" d="M127.41,91.49l.22-.32c.05-.07-.09-.1-.14-.06A23.14,23.14,0,0,1,120.36,95c-.08,0,0,.1,0,.08a17.31,17.31,0,0,0,3.66-1.41,19.61,19.61,0,0,0,1.86-1.13c.34-.23,1.18-.68,1.38-1.08,0,.05.08.06.1,0Z"/><path class="cls-10" d="M83.09,91.65a7.59,7.59,0,0,0,2.63,1.15,10.66,10.66,0,0,0,2.91.47c.07,0,.1-.08,0-.09a14.41,14.41,0,0,1-5.82-1.82s-.15,0-.1,0l.29.26s.11,0,.07,0Z"/><path class="cls-10" d="M164.52,74.26c-1.32.84-2.64,1.71-3.89,2.64-.11.08.08.14.15.1,1.31-.83,2.6-1.74,3.86-2.66.08-.06-.06-.11-.12-.08Z"/><path class="cls-10" d="M160.24,75.26a16.45,16.45,0,0,0,2.31.24c.11,0,.15-.11,0-.14a15.62,15.62,0,0,0-2.27-.26c-.13,0-.24.14-.07.16Z"/><path class="cls-10" d="M163,75.35c0,.45,0,.9,0,1.36a3.89,3.89,0,0,0,.07,1.18c0,.07.19.07.21,0a3.9,3.9,0,0,0,0-1.18c0-.46,0-.91,0-1.36,0-.11-.25-.11-.25,0Z"/><path class="cls-10" d="M159.65,77.12a29.66,29.66,0,0,0-3.23.75c-.13,0,0,.14.09.13a28,28,0,0,0,3.21-.72c.17,0,.07-.19-.07-.16Z"/><path class="cls-10" d="M160.28,77c-.22.54-.39,1.1-.56,1.66a3.54,3.54,0,0,0-.33,1.48c0,.07.13.08.17,0a4.15,4.15,0,0,0,.55-1.56c.14-.52.3-1,.39-1.59,0-.09-.19-.09-.22,0Z"/><path class="cls-10" d="M165.67,71.86a1.83,1.83,0,0,0-2.1,2.32,2.2,2.2,0,0,0,2.9,1.31,2.1,2.1,0,0,0,.92-3,2.19,2.19,0,0,0-3-.5c-.13.11.1.18.19.13a1.87,1.87,0,0,1,2.64.66,2,2,0,0,1-.56,2.34,1.8,1.8,0,0,1-2.56-.62,1.67,1.67,0,0,1,1.6-2.49c.1,0,.14-.11,0-.13Z"/><path class="cls-10" d="M136.87,81.58a1.83,1.83,0,0,0-1.68,2.68A2.11,2.11,0,0,0,138,85a2,2,0,0,0,.31-3.12,2.14,2.14,0,0,0-3.06.26c-.1.13.17.16.24.09a1.81,1.81,0,0,1,2.68,0,1.87,1.87,0,0,1-.11,2.36,1.67,1.67,0,0,1-2.55-.35,1.63,1.63,0,0,1,1.35-2.45c.16,0,.16-.17,0-.17Z"/><path class="cls-10" d="M135.63,84.32c-.52.58-1,1.22-1.46,1.85a7.76,7.76,0,0,0-1.2,1.67c0,.06.09.07.12,0a10.32,10.32,0,0,0,1.41-1.74c.44-.59.91-1.17,1.31-1.78,0-.08-.14-.1-.18-.05Z"/><path class="cls-10" d="M134.19,85.46a18.07,18.07,0,0,0-2.51.63c-.12,0,0,.13.08.12a21.68,21.68,0,0,0,2.5-.61c.15,0,.06-.17-.07-.14Z"/><path class="cls-10" d="M134.52,85.91c.26.85.61,1.7.94,2.53,0,.12.36.08.31-.06-.34-.84-.67-1.69-1.07-2.5,0-.07-.2-.06-.18,0Z"/><path class="cls-10" d="M133.07,87.41l-1.64,1a7.67,7.67,0,0,0-1.41.9c-.05.06.08.08.11.07a8.66,8.66,0,0,0,1.46-.87l1.59-1c.08,0-.05-.1-.11-.07Z"/><path class="cls-10" d="M133,87.54a15.85,15.85,0,0,0,.42,3.29c0,.08.24.07.24,0a15.72,15.72,0,0,0-.46-3.26c0-.09-.21-.09-.2,0Z"/><path class="cls-10" d="M51.45,75.32a2,2,0,0,0-2.08,2.26A2.05,2.05,0,0,0,52.15,79a2,2,0,0,0,.68-3,2.22,2.22,0,0,0-3.3,0c-.1.11.15.17.23.11.91-.76,2.33-.92,3,.27a1.78,1.78,0,0,1-.52,2.21,1.65,1.65,0,0,1-2.54-1.07,1.77,1.77,0,0,1,1.77-2c.17,0,.17-.17,0-.18Z"/><path class="cls-10" d="M41,80.59c-1.26,0-1.46,1.51-.76,2.32s2.65,1.73,3.71.88a1.9,1.9,0,0,0-.34-3.05,3.43,3.43,0,0,0-4,.53c-.08.08.12.12.17.09,1-.58,2.11-1.14,3.27-.64A1.83,1.83,0,0,1,44.15,83c-.49,1.36-2.15.94-3.09.32A2,2,0,0,1,40,82a1.07,1.07,0,0,1,1-1.25c.12,0,.12-.14,0-.13Z"/><path class="cls-10" d="M52.64,78a56.08,56.08,0,0,0,6.9,3.86c.07,0,.25,0,.14-.12a57.75,57.75,0,0,0-6.93-3.83c-.06,0-.19,0-.11.09Z"/><path class="cls-10" d="M56.12,78.69c1,.12,2,.25,3,.32.08,0,.11-.09,0-.11-1-.16-2-.25-2.94-.37-.13,0-.24.14-.07.16Z"/><path class="cls-10" d="M54.32,79a26.5,26.5,0,0,0,.77,3.31c0,.07.22.07.21,0A23.94,23.94,0,0,0,54.5,79c0-.07-.2-.06-.18,0Z"/><path class="cls-10" d="M59.11,81.71c.6.11,1.21.17,1.82.25a6.74,6.74,0,0,0,1.42.1.07.07,0,0,0,0-.13,6.58,6.58,0,0,0-1.6-.23c-.54-.06-1.09-.13-1.64-.15-.12,0-.17.13,0,.16Z"/><path class="cls-10" d="M59.11,82c.25.46.5.91.76,1.36a4.38,4.38,0,0,0,.78,1.19c.05,0,.22.06.21,0a3.51,3.51,0,0,0-.63-1.21c-.27-.45-.56-.9-.85-1.35-.05-.09-.33-.07-.27,0Z"/><path class="cls-10" d="M42.81,84.46c.93,1.35,1.83,2.74,2.82,4.06.06.08.33,0,.27-.07-.9-1.39-1.9-2.72-2.85-4.08-.07-.09-.33,0-.24.09Z"/><path class="cls-10" d="M45.23,88.81c-.1.47-.19.94-.28,1.41a6.84,6.84,0,0,0-.25,1.41c0,.07.16.07.18,0a14.79,14.79,0,0,0,.57-2.83c0-.09-.2-.09-.22,0Z"/><path class="cls-10" d="M45.18,88.91A16.84,16.84,0,0,0,48,90.1c.06,0,.21-.06.11-.12a15.44,15.44,0,0,0-2.9-1.13c-.05,0-.14,0-.06.06Z"/><path class="cls-10" d="M43.25,85.8a16.76,16.76,0,0,0-.8,2.1c0,.1.16.1.19,0a15.59,15.59,0,0,0,.84-2.08c0-.11-.2-.14-.23,0Z"/><path class="cls-10" d="M43.63,85.57c1.31,0,2.66,0,3.95-.13.13,0,.08-.13,0-.14-1.29-.06-2.62.09-3.92.14-.12,0-.12.13,0,.13Z"/><path class="cls-10" d="M78.14,95.32c-3.33-2.86-4.24-7.12-6.06-10.92a29.13,29.13,0,0,0-6.49-8.76,30.11,30.11,0,0,0-18.48-8c-.1,0-.09.09,0,.1A30.53,30.53,0,0,1,67.41,77.8,31.42,31.42,0,0,1,73,87.19c1.23,3,2.39,6,4.94,8.2.06.06.28,0,.19-.07Z"/><path class="cls-10" d="M129.61,98.79c6.17-3.65,9.29-8.91,11.67-15.49,3.18-8.81,10.83-11.5,19.15-13.92.1,0,0-.13-.07-.11-6.42,1.65-13.68,3.85-17.41,9.8-2.06,3.29-2.66,7.25-4.56,10.62a24.45,24.45,0,0,1-8.89,9c-.08,0,.06.1.11.07Z"/><path class="cls-10" d="M117.82,117.74a44.08,44.08,0,0,1,4-7.2,37.26,37.26,0,0,1,2.21-3.21,6,6,0,0,1,1.49-1.45c2.11-1.16,5.3.51,3.44,2.67-.05.06.09.09.13,0,2.3-2.12-1.09-4.1-3.18-3.24s-3.27,3.33-4.42,5.07a38.48,38.48,0,0,0-3.87,7.28c0,.08.16.1.19,0Z"/><path class="cls-10" d="M129.55,106c2.53-3.25,4.78-6.86,7.86-9.63,2.37-2.14,8.18-5.67,10.27-1a3.61,3.61,0,0,1,.08,2.74q-1.39,3.42-5.83.75a2.52,2.52,0,0,1,.27-2.75c3.19-.16,4.25.64,3.16,2.39-.05.09.17.12.22,0,1.73-2.82-2.6-4.78-4-2-1.77,3.61,3.82,5.15,5.83,2.55,2.86-3.66-1.76-6.81-5.2-5.89-5.76,1.54-9.63,8.17-12.82,12.69,0,.07.09.11.13.06Z"/><path class="cls-10" d="M147.36,94.28a42.27,42.27,0,0,1,8.37-7.6c2.39-1.6,7-4.41,8.7-.36a3.55,3.55,0,0,1-.37,3.84c-1,1.92-3,2-5.88.22q-1-2.47,1.8-.33c-.12,0,0,.14.05.12,2.65-.51,1-4.15-1.36-2.8-1.57.91-1.21,3.13.07,4.12a3.68,3.68,0,0,0,4.07.21c3.44-1.93,2.77-7.7-1.54-7.65-2.44,0-4.89,1.89-6.76,3.23a35.86,35.86,0,0,0-7.29,7c-.05.07.1.1.14,0Z"/><path class="cls-10" d="M165.2,86.3c4.1-1.21,8.49-2.47,12.79-1.62a11.25,11.25,0,0,1,5.71,2.81,6,6,0,0,1,1.65,2.24c1.07,4.28-.62,1-.88,2.79-.51,3.32,4.72,4,3.17,7.55-1.36,3.15-5.61,2.69-8.19,1.63a5.88,5.88,0,0,1-3.07-2.38,3.1,3.1,0,0,1-.67-2c.18-2.39,1-2.47,2.41-.24-.06-.07-.3,0-.21.08a1.37,1.37,0,0,0,2.43-.56c.43-1.93-2-2.54-3.35-1.9-2.47,1.18-1.68,4.4,0,5.91a9.5,9.5,0,0,0,8.23,2c2-.64,3.8-2.92,2.76-5.08a6.89,6.89,0,0,0-1.62-1.7c-1.76-1.73-1.58-1.52-.89-4.22a2.91,2.91,0,0,0-.55-3c-4.63-6.36-13.57-4.17-19.83-2.3-.15,0,0,.16.12.13Z"/><path class="cls-10" d="M172.91,86.65a15.68,15.68,0,0,1,6,.34c2.33.72,2.4,2.43,2.59,4.49,0,.11.24.11.25,0,.09-1.72-.22-3.7-2-4.46-2-.88-4.73-.74-6.88-.53-.17,0-.06.17.07.16Z"/><path class="cls-10" d="M184.89,98.22l-.21-.29-.18.07a1.59,1.59,0,0,1-.34,3c-.14.05,0,.16.09.14a1.68,1.68,0,0,0,.38-3.21c-.07,0-.25,0-.13.11l.34.23s.07,0,0,0Z"/><path class="cls-10" d="M161.07,92.74a1.1,1.1,0,0,1,.19,1.24c0,.07.1.07.13,0a1.05,1.05,0,0,0-.19-1.31s-.18,0-.13,0Z"/><path class="cls-10" d="M164.2,91.59l.18.48s.12,0,.1,0l-.16-.48s-.15,0-.12,0Z"/><path class="cls-10" d="M164.84,89c.46.39.92.81,1.42,1.16,0,0,.18,0,.12-.06A15.1,15.1,0,0,0,165,88.93c-.07-.06-.28,0-.19.07Z"/><path class="cls-10" d="M140.31,98.83s0,0,0,0,0,0,0,0Z"/><path class="cls-10" d="M141.67,100.23a1.18,1.18,0,0,0-.38,1.38s.13,0,.13,0a1.55,1.55,0,0,1,.44-1.3c.08-.07-.13-.13-.19-.07Z"/><path class="cls-10" d="M144.47,100.67a1.27,1.27,0,0,0,.22,1.56s.16,0,.13,0a1.4,1.4,0,0,1-.15-1.48c0-.08-.16-.11-.2,0Z"/><path class="cls-10" d="M147.13,99.35a1.86,1.86,0,0,1,1.35,1.45s.11,0,.12,0a1.69,1.69,0,0,0-1.43-1.53c-.08,0-.14.07,0,.09Z"/><path class="cls-10" d="M147.93,96.41a18.87,18.87,0,0,0,3.44.21c.09,0,.13-.09,0-.11a18.07,18.07,0,0,0-3.45-.2c-.08,0-.12.09,0,.1Z"/><path class="cls-10" d="M132.37,104.79a38.54,38.54,0,0,1,6-6.6s-.07-.08-.1,0a26.31,26.31,0,0,0-6.06,6.61s.1.08.13,0Z"/><path class="cls-10" d="M121.71,116.56a11.18,11.18,0,0,1,3.09-7.82c0-.06-.08-.08-.12,0a10,10,0,0,0-3.17,7.87c0,.09.2.09.2,0Z"/><path class="cls-10" d="M121.35,120.69a.55.55,0,0,0,0,.22c0,.07.14.08.15,0a.67.67,0,0,0,0-.24c0-.08-.17-.08-.18,0Z"/><path class="cls-10" d="M125.9,117.92a.7.7,0,0,0,.25,0s.09-.05,0-.07a.85.85,0,0,0-.23,0c-.09,0-.16.09,0,.1Z"/><path class="cls-10" d="M127.74,116.22A21.34,21.34,0,0,1,147,114.86c.1,0,.27-.08.12-.14a21.22,21.22,0,0,0-19.49,1.45c-.06,0,0,.07.08,0Z"/><path class="cls-10" d="M154.76,122.68a12.35,12.35,0,0,0,14.57-3.26c0-.07-.1-.09-.14,0a13,13,0,0,1-14.36,3.24c-.06,0-.15,0-.07.07Z"/><path class="cls-10" d="M170,114.09a6.71,6.71,0,0,0-.6,1.31c0,.07.11.09.15,0a6.32,6.32,0,0,0,.63-1.31c0-.09-.14-.1-.18,0Z"/><path class="cls-10" d="M150.9,119.12c0,.7.89.13.51-.13s-.57.44-.15.48c0,0,.11,0,.06-.06-.15-.24-.16-.32,0-.25s.05,0-.21,0c0-.08-.17-.08-.17,0Z"/><path class="cls-10" d="M152,121.32a3,3,0,0,1-.15.31c0,.05.06.07.09.07a.89.89,0,0,0,.8-.37c0-.06,0-.09-.08-.09a.64.64,0,0,0-.64.32c0,.06.08.08.12.08l.31-.07c.11,0,0-.13,0-.11a1.8,1.8,0,0,0-.32.06l.12.07.46-.23-.08-.09a.71.71,0,0,1-.64.32l.08.07.12-.31c0-.07-.11-.08-.14,0Z"/><path class="cls-10" d="M138.49,105.4a14.44,14.44,0,0,0,5.82-.08c.15,0,.06-.16-.06-.14a15.13,15.13,0,0,1-5.69.06c-.14,0-.24.13-.07.16Z"/><path class="cls-10" d="M134.77,108.83a13.3,13.3,0,0,1,10.39,1c.08.05.3,0,.17-.1a12.64,12.64,0,0,0-10.6-.93s0,0,0,0Z"/><path class="cls-10" d="M181.15,100.39c-.49.13-1,.25-1.45.39-.13,0,0,.14.1.11l1.41-.43c.08,0,0-.09-.06-.07Z"/><path class="cls-10" d="M124.83,121.33a18.36,18.36,0,0,1,23.92-.21c2.22,1.9,4,4.2,6.65,5.51a13.29,13.29,0,0,0,7.65,1.23c4.85-.67,9.82-4.39,10.64-9.43.68-4.14-2.65-8.36-7-7.21-.13,0,0,.16.06.13,4.27-1,7.25,3.19,6.65,7.07a11.31,11.31,0,0,1-5.86,7.72,12.92,12.92,0,0,1-10.78.74c-3.19-1.21-5.16-3.74-7.67-5.89a18.67,18.67,0,0,0-24.41.27c-.09.08.12.13.18.07Z"/><path class="cls-10" d="M130.05,122.72c1.36-3.06,5.33-3.46,8-1.93a8.24,8.24,0,0,1,3.17,3.71c0,.07.22.06.19,0a6.92,6.92,0,0,0-5.92-4.7c-2.25-.24-4.92.57-5.63,2.92,0,.08.13.09.16,0Z"/><path class="cls-10" d="M109.84,115.79s0,0,0,0,0,0,0,0Z"/><path class="cls-10" d="M107.34,118.77a17.28,17.28,0,0,0,6.94-2.34c.06,0,0-.07-.07-.05a18.66,18.66,0,0,1-6.92,2.29c-.12,0,0,.12,0,.1Z"/><path class="cls-10" d="M108.06,116.62a20.57,20.57,0,0,0,8.21-3.14c.06,0,0-.08-.09-.06a24.48,24.48,0,0,1-8.17,3.09c-.12,0,0,.13,0,.11Z"/><path class="cls-10" d="M104.5,118a14.05,14.05,0,0,0,9.39-2.11c.1-.06-.07-.12-.14-.08a17.27,17.27,0,0,1-9.23,2.1c-.07,0-.1.08,0,.09Z"/><path class="cls-10" d="M105,90.11a39.32,39.32,0,0,0,22.54-5.86s0-.06-.06,0A40.42,40.42,0,0,1,105,90c-.08,0-.08.08,0,.08Z"/><path class="cls-10" d="M103.21,88.5A40.36,40.36,0,0,0,127,81.83s0-.06-.07,0a41.73,41.73,0,0,1-23.76,6.63c-.08,0-.08.08,0,.08Z"/><path class="cls-10" d="M101.66,83.79c11.36,1.06,23.26-2.63,31.55-10.6,0,0,0,0-.06,0A42.18,42.18,0,0,1,101.7,83.71c-.07,0-.13.07,0,.08Z"/><path class="cls-10" d="M103.72,80.59a60.85,60.85,0,0,0,24.7-5.77c.08,0,0-.11-.07-.08a66.35,66.35,0,0,1-24.63,5.78c-.07,0-.08.08,0,.07Z"/><path class="cls-10" d="M91.8,79.44a51.61,51.61,0,0,0,30.9-1.56c.06,0,0-.07-.06-.06a53,53,0,0,1-30.81,1.55c-.06,0-.1,0,0,.07Z"/><path class="cls-10" d="M85.5,72.82a57.54,57.54,0,0,0,35.46,2c.07,0,0-.08,0-.07a59.47,59.47,0,0,1-35.33-2c-.07,0-.18,0-.08.09Z"/><path class="cls-10" d="M80.84,69.57a89.79,89.79,0,0,0,45.62,2.65c.11,0,0-.12,0-.11A94.22,94.22,0,0,1,80.9,69.5c-.05,0-.15,0-.06.07Z"/><path class="cls-10" d="M78.88,79.29a56.16,56.16,0,0,0,45.57,0c.09,0,0-.11-.08-.08a57.21,57.21,0,0,1-45.41,0c-.06,0-.17,0-.08.08Z"/><path class="cls-10" d="M85.07,84.05a59,59,0,0,0,38-.19c.08,0,0-.09-.07-.07A61.06,61.06,0,0,1,85.13,84s-.14,0-.06.07Z"/><path class="cls-10" d="M86.11,91.1a74.93,74.93,0,0,0,38.21-1.72c.07,0,0-.07,0-.06A79.25,79.25,0,0,1,86.15,91c-.07,0-.13.07,0,.09Z"/><path class="cls-10" d="M89.5,99a81.17,81.17,0,0,0,31.73-5.11c.1,0,0-.12-.08-.09A84.31,84.31,0,0,1,89.5,98.89c-.07,0-.07.07,0,.07Z"/><path class="cls-10" d="M88.83,100.08a29.52,29.52,0,0,0,32.77-2.89s0-.06-.06,0A30,30,0,0,1,88.92,100s-.16,0-.09.06Z"/><path class="cls-10" d="M90.87,105.25a35.83,35.83,0,0,0,26.17-2c.06,0,0-.09-.09-.07a37.34,37.34,0,0,1-26,2c-.07,0-.17,0-.08.08Z"/><path class="cls-10" d="M70.92,41.75c-2.3,1.39-5,3.77-4.14,6.82A3.17,3.17,0,0,0,71,50.71c.12-.05,0-.14-.11-.11-3.37,1-4.51-2.76-3.55-5.07A8.47,8.47,0,0,1,71,41.81c.07-.05-.05-.09-.09-.06Z"/><path class="cls-10" d="M65.07,44.86a5.84,5.84,0,0,0,2.05,9.76c.08,0,.21,0,.1-.1-3.92-1.75-5.12-6.47-2-9.62,0,0-.08-.08-.11,0Z"/><path class="cls-10" d="M70.54,56.81c16.69,10.56,37.36,7.2,55.61,3.5.06,0,0-.07,0-.06-18.42,3.37-38.62,7.09-55.51-3.49,0,0-.13,0-.07.05Z"/><path class="cls-10" d="M133.63,44.54A3.92,3.92,0,0,1,136,49.46c-.69,2-2.64,3-4.49,3.59-.06,0,0,.06,0,.05,2.12-.59,4.43-1.91,4.8-4.31a4.07,4.07,0,0,0-2.69-4.31c-.05,0-.12,0-.05.06Z"/><path class="cls-10" d="M74.9,56.92a56.68,56.68,0,0,1,17-7.12c.06,0,0-.06,0,0a54.27,54.27,0,0,0-17.06,7.13c-.06,0,0,.07.07,0Z"/><path class="cls-10" d="M106.86,47.67c8.75.31,16.23,4,22.43,10.06,0,0,.18,0,.13,0-5.59-6.38-14.19-9.86-22.56-10.09-.07,0-.07.07,0,.07Z"/><path class="cls-10" d="M74.53,59.31a32.93,32.93,0,0,1,18.21-6.75c.11,0,.12-.13,0-.12a32.7,32.7,0,0,0-18.29,6.82c-.06,0,0,.08.08.05Z"/><path class="cls-10" d="M105.86,53.2a34.49,34.49,0,0,1,18.54,7.59c0,.05.24,0,.16-.08a32.84,32.84,0,0,0-18.64-7.65c-.11,0-.21.13-.06.14Z"/><path class="cls-10" d="M80.69,52a33.33,33.33,0,0,1,16.92-4.86c.09,0,.09-.09,0-.09A30.12,30.12,0,0,0,80.6,52c-.06,0,.05.09.09.06Z"/><path class="cls-10" d="M108.21,45.32c9.3-.37,17.23,4.77,21.21,13.07,0,.07.2,0,.17,0A22.1,22.1,0,0,0,108.21,45.2c-.12,0-.12.13,0,.12Z"/><path class="cls-10" d="M114.23,38.28c8.55,2.67,17.57,6.2,19.91,15.79,0,.07.22.06.21,0-1.34-9.63-12.08-13.43-20-15.86-.07,0-.18.06-.08.09Z"/><path class="cls-10" d="M120.84,44a13.5,13.5,0,0,1,7.71,10.93c0,.07.16.07.16,0a13.33,13.33,0,0,0-7.79-11c-.06,0-.17,0-.08.09Z"/><path class="cls-10" d="M129,42c4.94.71,7.88,4.84,7.61,9.69,0,.07.16.07.16,0A8.79,8.79,0,0,0,129,42c-.07,0-.12.07,0,.08Z"/><path class="cls-10" d="M72,56.21q1.83-2.33,3.63-4.65c0-.05-.07-.07-.1,0-1.23,1.54-2.44,3.09-3.66,4.64,0,.06.1.09.13.05Z"/><path class="cls-10" d="M78.12,49.67A23,23,0,0,1,88.3,46.31s0-.06,0-.06A21.79,21.79,0,0,0,78,49.62c-.05,0,0,.07.08.05Z"/><path class="cls-10" d="M87.08,42.28a36.09,36.09,0,0,1,10.13-2.46c.07,0,0-.08,0-.08A34.48,34.48,0,0,0,87,42.18c-.11,0,0,.13.09.1Z"/><path class="cls-10" d="M82.73,39.12a32.36,32.36,0,0,1,13.61-4.83c.07,0,0-.08,0-.07a30.57,30.57,0,0,0-13.65,4.85c-.06,0,0,.07.07,0Z"/><path class="cls-10" d="M76.7,59.69A33.13,33.13,0,0,1,97,55s.1,0,0-.06a31.46,31.46,0,0,0-20.45,4.66c-.05,0,0,.07.08,0Z"/><path class="cls-10" d="M103.52,55.67a20.55,20.55,0,0,1,13,3.87s.1,0,.06,0a19.71,19.71,0,0,0-13-3.89c-.06,0-.06.07,0,.06Z"/><path class="cls-10" d="M79,61.42A26.68,26.68,0,0,1,91.5,58.29c.07,0,.07-.07,0-.07a26,26,0,0,0-12.59,3.15s0,.07.07.05Z"/><path class="cls-10" d="M102.15,57.53a30.84,30.84,0,0,1,12.36,2.4s.08,0,0,0a27.86,27.86,0,0,0-12.4-2.43c-.06,0-.06.07,0,.07Z"/><path class="cls-10" d="M88,61.8,96.38,61c.08,0,0-.08,0-.07L88,61.69c-.11,0,0,.11,0,.11Z"/><path class="cls-10" d="M101.53,61a55.31,55.31,0,0,1,16.18,1.17c.06,0,.11-.06,0-.07a50.23,50.23,0,0,0-16.21-1.19c-.09,0-.09.1,0,.09Z"/><path class="cls-10" d="M106.25,50.1a30.8,30.8,0,0,1,15,5c.06,0,.21,0,.12-.08a30,30,0,0,0-15.11-5c-.12,0-.12.11,0,.12Z"/><path class="cls-10" d="M104.79,51.63c3.54.62,7.06,1.25,10.6,1.83.07,0,.12-.06,0-.07-3.53-.65-7.06-1.25-10.59-1.86-.09,0-.15.08,0,.1Z"/><path class="cls-10" d="M106.59,43.94a41.75,41.75,0,0,1,7.33.29s.09,0,0-.06a32.37,32.37,0,0,0-7.36-.32c-.09,0-.09.09,0,.09Z"/><path class="cls-10" d="M96.72,50.46c-3.21.85-6.42,1.69-9.63,2.57-.07,0,0,.09,0,.08,3.21-.83,6.41-1.71,9.62-2.56.09,0,0-.11,0-.09Z"/><path class="cls-10" d="M96.45,48.24c-4.54,1.25-9.09,2.49-13.63,3.78,0,0,0,.06,0,0,4.56-1.22,9.1-2.5,13.66-3.76.08,0,0-.09-.07-.07Z"/><path class="cls-10" d="M68.45,58.4l2.73,1.34s.13,0,.07-.06l-2.7-1.36c-.07,0-.2,0-.1.08Z"/><path class="cls-10" d="M75.89,72.78a42.3,42.3,0,0,0,10.16,2.84s.1-.05,0-.07A71.88,71.88,0,0,1,76,72.7c-.06,0-.17,0-.08.08Z"/><path class="cls-10" d="M71.93,106.75l3.41.93q1,2.13-2,1.81c-1.34,1.21-2.19,1.26-2.57.14a2.5,2.5,0,0,1-.45-1.77c.23-3.56,4.85-3.85,7.19-2.15,1.65,1.19,2.49,3.62,1.28,5.39-1.49,2.19-4.5,2.31-6.92,1.85-3.62-.67-6.62-3.72-5.15-7.54s5.91-4.92,9.53-3.8c5.91,1.83,9.16,7.73,13.34,11.84a41.47,41.47,0,0,0,11.91,8.27c.1,0,.34-.08.19-.15a46.76,46.76,0,0,1-12.35-8.83c-3.28-3.37-5.93-7.53-10-10-2.74-1.61-6.17-2.34-9.18-1a6.24,6.24,0,0,0-3.79,7c1.24,5.08,13.27,7,13.2.54-.06-6-10.62-6.24-9.24-.42.53,2.26,3.67,3.38,5.08,1.16,1.54-2.44-1.37-4.22-3.44-3.27-.07,0,0,.08.05.06Z"/><path class="cls-10" d="M65.58,107.59l-.24.09s0,0,0,0l.25-.08s0,0,0,0Z"/><path class="cls-10" d="M65.83,107.05c-2.75,1.27-6.93,2.9-9-.34-1-1.61-.94-3.68-1.88-5.37a11.84,11.84,0,0,0-7.2-5.28c-4.27-1.2-16.58-1.59-15.23,5.84.85,4.67,8.18,7.49,10.66,2.5,2.15-4.33-4.79-8.21-6.21-3.61-.55,1.8,1.18,4,3.06,3.11a1.46,1.46,0,0,0-.61-2.83c-.12,0-.12.12,0,.12-1,0-2.54,2.83-2.38.24q.48-2.84,3-2.06a1.65,1.65,0,0,1,2.15.43,3.81,3.81,0,0,1,1,4.26c-2.11,5.23-9.54,2.4-10.4-2.18C31.2,93.66,46.2,95.1,50.44,97.49a10.3,10.3,0,0,1,4.82,5.57c.55,1.67.55,3.58,2,4.76,2.61,2.07,6.09.68,8.7-.59.19-.09,0-.24-.17-.18Z"/><path class="cls-10" d="M32.16,100.25a15.06,15.06,0,0,0-14.34-7.37c-1.86.18-4.2.69-5.39,2.29-1.77,2.38.68,4.42,2.56,5.61.07,0,.25,0,.22-.08-.62-2.48,2.78-1,3.94-1.85a1.1,1.1,0,0,0,0-1.89c-.9-.73-3.47.21-2.14.57.09,0,.2-.09.08-.13.17,1.23-.2,1.69-1.11,1.37h-.07c-2.3,1.24,1-.9-1.29.45,0,0,0,0,0,.08.45,1.82-.92.44-1.54-.27a2.91,2.91,0,0,1,.49-4.6c1.89-1.45,4.79-1.57,7.06-1.33A15.48,15.48,0,0,1,32,100.27s.17,0,.14,0Z"/><path class="cls-10" d="M13.83,96.23c.15-.33-.24-.47-.42-.21,0,0,0,0,0,.06.21.09.41.18.63.26,0,0,.11,0,0-.06l-.31-.14c-.18-.11-.2-.09-.07.07,0,.05.08.06.1,0Z"/><path class="cls-10" d="M15.62,95.43a15.44,15.44,0,0,1,11.88.36c.08,0,.22-.06.1-.11a15.16,15.16,0,0,0-12-.32c-.07,0,0,.09.07.07Z"/><path class="cls-10" d="M43.37,97.87A10.71,10.71,0,0,1,52,101.21s.2,0,.14,0a9.71,9.71,0,0,0-8.78-3.37c-.07,0,0,.08,0,.08Z"/><path class="cls-10" d="M36.62,97.55l-.33,0a.06.06,0,0,0-.08,0,.41.41,0,1,0,.79.18.06.06,0,0,0,0,0,.58.58,0,0,0-.88.17s0,.05,0,.06c.21.08.41.15.62.21,0,0,.11,0,0-.06l-.44-.18.46-.06q-.68-.27-.21-.21s.07,0,0-.06Z"/><path class="cls-10" d="M38.34,97.36a1.23,1.23,0,0,0,.9.24.51.51,0,0,0,.35-.65c-.16-.56-1-.39-1.07.1a.08.08,0,0,0,0,.08l.67.25s.15,0,.08-.06-.55-.19-.57-.35l.72.09v.1c-.21.36-.45.46-.72.29a.94.94,0,0,1-.32-.15s-.15,0-.09.06Z"/><path class="cls-10" d="M41.6,96.75l-.37.19a0,0,0,0,0,0,0,.6.6,0,0,0,1.08-.12s0-.06-.06-.06c-.31-.08-.72,0-.71.42,0,.06.11.06.13,0a.3.3,0,0,1,.26-.22c.27-.16.26-.12,0,.11l-.43-.2.24-.13c.06,0,0-.08-.09-.06Z"/><path class="cls-10" d="M44.14,104.09s0,0,0,0,0,0,0,0Z"/><path class="cls-10" d="M41.57,106.44s0,0,0,0,0,0,0,0Z"/><path class="cls-10" d="M39.13,107.66s0,0,0,0,0,0,0,0Z"/><path class="cls-10" d="M36.08,107.41a2,2,0,0,0,0,2s.13,0,.11,0a2.29,2.29,0,0,1,0-1.93c0-.07-.14-.1-.18,0Z"/><path class="cls-10" d="M69.3,114.47a10.16,10.16,0,0,0,13.92-2.34c0-.08-.11-.11-.15-.06a10.09,10.09,0,0,1-13.68,2.34s-.16,0-.09.06Z"/><path class="cls-10" d="M72.55,102.89c2.79.06,4.54,1.8,5.71,4.14,0,.08.22.07.2,0-.56-2.58-3.45-4.16-5.91-4.19-.07,0-.07.08,0,.08Z"/><path class="cls-10" d="M88.47,121.48A20.25,20.25,0,0,1,97.74,125c.05,0,.22,0,.15-.07a16.29,16.29,0,0,0-9.4-3.57c-.08,0-.11.09,0,.1Z"/><path class="cls-10" d="M101.66,129c-3-2.22-6.1-4.55-9.91-4.93-3.13-.32-5.48.93-7.86,2.84-2.57,2.06-5.48,4.2-9,1.93-1.25-.81-2.26-1.94-3.65-2.55a7.6,7.6,0,0,0-7.36.77c-.07.05,0,.09.09.06a7.61,7.61,0,0,1,8.39,0c1.22.8,2.22,2,3.59,2.5a5.69,5.69,0,0,0,4.55-.25c3.11-1.38,5.17-4.45,8.67-5.05,4.61-.79,8.75,2.19,12.26,4.74.09.07.31,0,.19-.11Z"/><path class="cls-10" d="M89.79,128.54A8,8,0,0,1,97,130.46s.19,0,.13-.07a7.53,7.53,0,0,0-7.41-1.94c-.1,0,0,.11,0,.09Z"/><path class="cls-10" d="M74.66,134.44c1.82-.54,3.65-1,5.44-1.64.05,0,0-.06,0-.05-1.84.48-3.65,1.06-5.47,1.61-.09,0,0,.1.07.08Z"/><path class="cls-10" d="M58.68,82.6c2.85,2.9,5.68,5.81,8.55,8.69,0,0,.18,0,.12-.05-2.82-2.91-5.68-5.8-8.53-8.69,0,0-.2,0-.14,0Z"/><path class="cls-10" d="M60.7,81.84a57.23,57.23,0,0,1,9.69,7.28s.16,0,.11-.05a51.07,51.07,0,0,0-9.69-7.3c-.06,0-.19,0-.11.07Z"/><path class="cls-10" d="M60.72,82.82C63.87,85.38,67,88,70.21,90.48c0,0,.12,0,.08,0-3.11-2.61-6.31-5.13-9.48-7.68,0,0-.16,0-.09.06Z"/><path class="cls-10" d="M44.09,85.77c4,3.37,7.94,6.79,12,10.09,0,0,.09,0,.06,0-3.93-3.43-8-6.74-12-10.1,0,0-.13,0-.09,0Z"/><path class="cls-10" d="M44,86c2.62,3.11,5.21,6.26,7.89,9.32,0,0,.1,0,.07,0-2.56-3.15-5.23-6.23-7.86-9.33,0,0-.14,0-.1,0Z"/><path class="cls-10" d="M43.71,88.21c2.19,2.73,4.33,5.5,6.58,8.18,0,0,.13,0,.1,0-2.13-2.78-4.37-5.47-6.57-8.19,0,0-.16,0-.11,0Z"/><path class="cls-10" d="M41.49,91.11a6.84,6.84,0,0,0-6.27,4.22c0,.07.12.08.15,0a6.85,6.85,0,0,1,6.12-4.12c.11,0,.11-.12,0-.12Z"/><path class="cls-10" d="M12.64,91.66A11.94,11.94,0,0,1,20,88.78c2.29-.06,8.29.74,7.48,4.4,0,.09.16.11.18,0,.86-3.17-3.83-4.34-6.16-4.53a12.16,12.16,0,0,0-9,2.94s.08.07.12,0Z"/><path class="cls-10" d="M72.14,107.12c1.91-.49,2.84,0,2.78,1.47.57,1.27,0,1.74-1.85,1.41-1.35.92-2.23.74-2.65-.57l-.2-1.24c.22-4,6.25-4,7.85-.86a4.17,4.17,0,0,1-.62,4.74c-1.57,1.6-4.34,1.64-6.38,1.2-3.85-.85-6.44-4.29-4-8,2.17-3.28,6.3-3.54,9.87-3.44.2,0,.19-.19,0-.2-4.48-.32-12.37,1.32-11.15,7.59.85,4.34,7.54,5.57,11,3.75,4.41-2.38,1.57-8.54-2.89-8.39-3.85.13-5.84,6.1-1.39,6.84,1.65.27,3.54-1.26,3.12-3A2.44,2.44,0,0,0,72,107c-.11.06.07.16.15.12Z"/></svg>