<svg id="illustration" xmlns="http://www.w3.org/2000/svg" viewBox="0 0 198.43 115.99"><defs><style>.cls-1{fill:#23b24b;}.cls-2{fill:#7e8c37;}.cls-3{fill:#22451f;}.cls-4{fill:#fff;}.cls-5{fill:#010101;}.cls-6{fill:#231f20;}</style></defs><path class="cls-1" d="M58.9,77.25l5.17-2.89L68.43,68l3-13.38L73.31,40l4.12-12.74,4.22-5.14,1.94-1.87,16.87-5.9,10.21-.73,10.61,1.9,7.07,4.26,5.5,5.59s1,4.44-1,7.66-8.43,4.64-8.43,4.64L113,42l-10.47,3.78,2.74,1.8,18.26,4.24a16.49,16.49,0,0,1,3.7,2.44c1.1,1.16-1.64,7.36-1.64,7.36l-4.76,4.67-5,1.43-5.06,1.18-10.85-2-6.47-.59L85.51,69l-4.07,3.39L78.6,76.67l-1.8,3.59,0,3.31s0,4.82,0,4.82l-9.69-2.31L60,81.44Z"/><polygon class="cls-2" points="65.3 72.56 61.05 71.27 56.34 73.91 54.15 78.37 55.05 86.08 59.34 91.04 65.3 94.79 72.72 96 78.22 94.14 80.82 91.33 81.65 87.5 80.54 84.96 78.16 88.39 74.05 88.39 65.92 86.08 59.54 80.85 58.27 77.09 59.16 73.87 61.49 72.35 65.3 72.56"/><polygon class="cls-3" points="6.03 115.36 9.6 104.61 15.47 96 22.96 89.39 29.56 85.8 36.94 83.57 44.38 82.1 50.11 80.27 54.15 78.37 55.05 86.08 59.34 91.04 67.28 96 74.05 95.77 76.8 94.93 75.37 98.38 72.36 100.61 67.9 102.03 64.28 103 61.9 104.47 58.9 106.4 57.5 109.01 56.15 111.64 55.72 113.5 55.17 115.36 6.03 115.36"/><polygon class="cls-2" points="55.17 115.36 56.78 110 59.98 106.4 62.95 103.82 69.11 101.72 72.36 100.61 75.37 98.38 76.8 94.93 79.17 93.4 78.99 96.86 77.02 101.06 74.78 103.24 71.33 104.47 67.9 104.94 65.3 106.37 63.16 108.37 61.9 111.18 61.49 113.62 61.49 115.36 55.17 115.36"/><path class="cls-1" d="M112.73,103.39l-2.45-.67-4,1.32-6.88,2.36-6.21,1,2-1.59s2-1.56,2.3-1.87,2-2.15,2-2.15l1.86-2.66,2-3.74-.09-2.53-1.89-2.46H98.41L95.31,92l-4.07,2.1L88.05,95.3,83,96.44l-3.78-.22-.72,2.16L77,101.06l-2.25,2.18-2.35.84-4,.79-3.13,1.5-2.14,2-1.85,2.81.18,4.17,42.8.8a.42.42,0,0,1,.12,0c1.26,0,2.59-.12,3.89-.09l1.28-1.22,2.45-3.12s1.36-2.58,1.5-3S114,106,114,106Z"/><path class="cls-4" d="M85.46,11.64l2.72-1,2.58.39,3.37,2.55,3.09,3.63,1.14,4.81-1.14,3.63a26.19,26.19,0,0,1-2.75,2c-.25,0-3.13.35-3.13.35l-4.68-2.67-3.71-6-.42-2.64L83,13.94Z"/><polygon class="cls-4" points="89.77 9.96 90.76 8.04 93.35 6.75 96.49 6.52 99.04 7.42 102.1 9.73 103.11 12.1 103.46 13.41 95.53 15.75 92.66 12.44 90.45 11.13 89.42 10.87 89.77 9.96"/><path class="cls-4" d="M11.39,113c.89-1.17,1.64-2.44,2.5-3.63s1.72-2.28,2.65-3.37a53.68,53.68,0,0,1,6.15-6.1,52,52,0,0,1,14.66-8.69c1.48-.57,3-1.08,4.51-1.51S45,89,46.56,88.45c.73-.24.18-.91-.37-.88a31.08,31.08,0,0,0-8.76,2.17,54.74,54.74,0,0,0-8,3.66,54,54,0,0,0-13.77,11c-1.1,1.23-2.13,2.52-3.11,3.85a23.7,23.7,0,0,0-2.7,4.3c-.3.71,1.19.83,1.52.41Z"/><path class="cls-4" d="M57.6,83.93c0,.19-.14.29-.15.49a4.64,4.64,0,0,0,0,.65,3.18,3.18,0,0,0,.48,1.1,15.38,15.38,0,0,0,1.59,2.18A17.85,17.85,0,0,0,73.9,94.4c.36,0,1-.15,1-.62s-.62-.63-1-.61a15.43,15.43,0,0,1-9.13-2.4,16.69,16.69,0,0,1-3.68-3.18,18.46,18.46,0,0,1-1.4-1.89,5.81,5.81,0,0,0-.76-1l-.44-.45c-.17-.15-.39-.22-.55-.37s-.32-.09-.34.06Z"/><path class="cls-4" d="M97.21,93.3s.08-.11,0-.07.08,0,.12-.09l.19-.2-.23.12a.73.73,0,0,0,.37-.16l.14-.13.17-.11s.08,0,0,0l.14-.06.09,0c.17-.07-.19.05.06,0s-.11,0,.06,0l.09,0s.1,0,.1,0-.16,0-.06,0h.12c.17,0-.08,0,0,0h.11c.07,0,.07,0,0,0l.19.07c.09,0-.14-.09,0,0l.07,0a.5.5,0,0,1,.19.13c-.08-.11,0,0,0,0l.08.08a1.58,1.58,0,0,1,.12.15c.1.11,0-.07,0,0l.06.1.12.21a1.39,1.39,0,0,0,.42.45.76.76,0,0,0,1-.17.77.77,0,0,0,.11-.49,1.32,1.32,0,0,0-.25-.52,2.47,2.47,0,0,0-2-1,2.19,2.19,0,0,0-1.26.33,2.28,2.28,0,0,0-.71.77c0,.07,0,.18,0,.24s0,0,0,0l0-.19a1.83,1.83,0,0,0-.06.25,2.12,2.12,0,0,0,0,.24c0,.16.31.17.4.06Z"/><path class="cls-4" d="M109.73,106.24l.2-.18-.31.11a.65.65,0,0,0,.41-.11c.11-.09,0,0,0,0l0,0c.06,0-.06,0,0,0l.06,0a.51.51,0,0,0,.15-.07l0,0,.12-.05.07,0-.06,0a.58.58,0,0,1,.14,0c.09,0-.08,0-.08,0h.06s.11,0,0,0,0,0,0,0h0c.1,0-.1,0-.13,0s.1,0,.11,0l.06,0,0,0s-.16-.09-.06,0,.09,0,.09.07-.11-.1,0,0l0,0a1.56,1.56,0,0,1,.16.2l-.08-.12a1.57,1.57,0,0,1,.18.42l0-.13a1.63,1.63,0,0,1,0,.54l0-.14c0,.1-.05.19-.07.29l0-.13,0,.1c-.12.35.25.58.55.62a1.15,1.15,0,0,0,.61,0,.78.78,0,0,0,.37-.3,1.26,1.26,0,0,0,.13-.81,1.69,1.69,0,0,0-.41-.85,2,2,0,0,0-2.12-.43,1.47,1.47,0,0,0-.45.23.77.77,0,0,0-.16.15s-.06.1,0,.1,0-.06,0,0l0,0-.09.14c-.07.11,0,.22.12.29h0l-.09-.22a.88.88,0,0,0,0,.15.5.5,0,0,0,0,.17c0,.08.16.12.22.12a.34.34,0,0,0,.27-.08Z"/><path class="cls-4" d="M63.22,105.37a6.18,6.18,0,0,0-2.08,1.3,15.21,15.21,0,0,0-1.78,1.72,10.37,10.37,0,0,0-1.3,2c-.17.36-.33.72-.47,1.1s-.37.82-.2,1.18.5.2.67.05a2.46,2.46,0,0,0,.49-1.06c.13-.36.29-.71.45-1a15,15,0,0,1,1.24-2A9.13,9.13,0,0,1,61.73,107a11.29,11.29,0,0,1,1-.75,6.37,6.37,0,0,0,.9-.64c.2-.21-.26-.27-.37-.24Z"/><path class="cls-4" d="M37.44,109.9c1.42-.51,2.79-1.17,4.17-1.81.67-.3,1.33-.62,2-.93a9.77,9.77,0,0,0,1.94-1c.16-.13-.07-.26-.21-.22a11.66,11.66,0,0,0-2.08.92l-2,1a43.58,43.58,0,0,0-3.91,2c-.07,0,0,.08.08.06Z"/><path class="cls-4" d="M51,114.93a37.1,37.1,0,0,0,4.8-3c.14-.12-.16-.2-.24-.16a40.75,40.75,0,0,0-4.76,3c-.15.1.1.19.2.13Z"/><path class="cls-4" d="M103.47,16.46a21.4,21.4,0,0,0,5,.75l2.61.21,1.31.1a1.74,1.74,0,0,0,1.32-.2.41.41,0,0,0,.12-.63c-.29-.39-.82-.37-1.26-.4l-1.3-.1L108.7,16a23.87,23.87,0,0,0-5.14,0c-.27.05-.42.37-.09.48Z"/><path class="cls-4" d="M80.16,26.89a18,18,0,0,0-2.59,3.76,29.63,29.63,0,0,0-1.75,4.19,36.63,36.63,0,0,0-1.18,4.25,17.06,17.06,0,0,0-.39,2.23,4.59,4.59,0,0,0,.13,2.18.69.69,0,0,0,1,.08,5.94,5.94,0,0,0,.68-2c.17-.72.28-1.45.44-2.17a36.59,36.59,0,0,1,1.17-4.25c.45-1.36,1-2.69,1.53-4,.29-.67.6-1.33.86-2s.51-1.39.76-2.08c.12-.34-.52-.36-.68-.19Z"/><path class="cls-5" d="M103.58,45.7c4-1.16,7.83-2.71,11.7-4.14s7.77-2.87,11.65-4.32A17.39,17.39,0,0,0,131.68,35,7,7,0,0,0,134,31.56a10,10,0,0,0-1.34-8.27c-2.14-3.21-5.5-5.25-8.75-7.18a.7.7,0,0,0-.71,1.21c2.74,1.6,5.57,3.25,7.64,5.71a9.4,9.4,0,0,1,2.26,7.85,5.79,5.79,0,0,1-2.11,3.4,17.7,17.7,0,0,1-4.7,2.14L115.5,40.51c-2,.76-4,1.53-6,2.32s-4.08,1.55-6.06,2.46c-.23.11-.07.48.18.41Z"/><path class="cls-5" d="M103.68,46.88a45.61,45.61,0,0,0,5.49,1.65l5.3,1.42,5.3,1.4a36.69,36.69,0,0,1,4.6,1.34,4,4,0,0,1,2.72,3A6.79,6.79,0,0,1,125.94,60a15.52,15.52,0,0,1-6,5.63,18.16,18.16,0,0,1-9,1.88.39.39,0,0,0-.1.76,14.42,14.42,0,0,0,8.8-1.28,16.57,16.57,0,0,0,6.77-5.64c1.67-2.44,3-6.15.39-8.47a9.31,9.31,0,0,0-4-1.87c-1.89-.51-3.78-1-5.66-1.47-2.25-.58-4.5-1.17-6.76-1.74a54.53,54.53,0,0,0-6.65-1.49c-.36,0-.36.47-.08.59Z"/><path class="cls-5" d="M125.49,17.05a35,35,0,0,0-12.11-3.93,39.23,39.23,0,0,0-12.79.46A33.37,33.37,0,0,0,97,14.5,7.2,7.2,0,0,0,93.87,16a.37.37,0,0,0,.26.62A8.2,8.2,0,0,0,97,16c1-.3,2-.56,3-.79a37.72,37.72,0,0,1,6.17-.87,38.52,38.52,0,0,1,12.23,1.3A41.44,41.44,0,0,1,125,18c.61.29,1.15-.59.54-.91Z"/><path class="cls-5" d="M94.85,16.37a6.29,6.29,0,0,0-7-6.32,6.81,6.81,0,0,0-4.45,2.61,7,7,0,0,0-1.13,5.56A15.53,15.53,0,0,0,84.89,24a11.24,11.24,0,0,0,4.33,4.19,7.12,7.12,0,0,0,9.34-4c1.74-4.29-.56-9-4.48-11.09-.92-.5-1.75.92-.82,1.41a7.57,7.57,0,0,1,4.22,7.7,5.76,5.76,0,0,1-6.54,4.93A6.94,6.94,0,0,1,87,24.52,18.75,18.75,0,0,1,84.21,20a7.5,7.5,0,0,1-.5-5.08,5.26,5.26,0,0,1,2.9-3.14c3.34-1.48,7.06,1.07,7.41,4.6a.42.42,0,0,0,.83,0Z"/><path class="cls-5" d="M90.27,11.5a3.41,3.41,0,0,1,.25-2.41,3.41,3.41,0,0,1,1.65-1.37A7.5,7.5,0,0,1,97,7.33a7.9,7.9,0,0,1,5.84,6.26c.2.87,1.44.48,1.31-.36A8.86,8.86,0,0,0,96.21,6a7.53,7.53,0,0,0-5.46,1.42c-1.1.91-2.14,3.17-.66,4.25.1.07.2-.05.18-.14Z"/><path class="cls-5" d="M82.75,20.05c-6,4.89-8.75,12.55-10.1,20-1.56,8.51-1.55,17.34-4.54,25.55a31.14,31.14,0,0,1-2.79,5.82,23.65,23.65,0,0,1-1.8,2.53c-.7.84-1.49,1.59-2.15,2.45-.38.5.35,1.16.83.84A14.75,14.75,0,0,0,66,73a29.67,29.67,0,0,0,2.72-5A48.39,48.39,0,0,0,71.8,56.68c1.39-8.53,1.44-17.32,4.44-25.51a26.91,26.91,0,0,1,6.91-10.72c.27-.25-.12-.62-.4-.4Z"/><path class="cls-5" d="M112.88,68.19c-3.34.7-6.85-.36-10-1.25a25.52,25.52,0,0,0-9.65-1.28A19,19,0,0,0,76.59,80.15a20.11,20.11,0,0,0-.43,2.56,6.68,6.68,0,0,0,0,2.56.62.62,0,0,0,1.19,0,14.32,14.32,0,0,0,.19-2.16,15.89,15.89,0,0,1,.35-2.28,18.13,18.13,0,0,1,1.46-4.15A17.37,17.37,0,0,1,85.17,70a18,18,0,0,1,8.21-3,25.72,25.72,0,0,1,9.21,1.2c3.47.93,7,1.79,10.44.49a.27.27,0,0,0-.15-.51Z"/><path class="cls-5" d="M77.1,82.06a7.29,7.29,0,0,1,2.68,2.55,2.1,2.1,0,0,1-1.25,2.85c-1.37.61-3.06.23-4.48,0a32.68,32.68,0,0,1-4.44-1.19,23.1,23.1,0,0,1-7.86-4.07c-1.92-1.7-3.42-4.44-2.31-7a3.54,3.54,0,0,1,2.87-2.24,3.34,3.34,0,0,1,1.65.32,11.48,11.48,0,0,1,1.47,1.13.58.58,0,0,0,.86-.5c-.15-1.41-1.66-2.24-3-2.45a4.74,4.74,0,0,0-4.07,1.26c-2.51,2.39-2.1,6.3-.17,8.9,2.16,2.91,5.8,4.58,9.15,5.74a33.18,33.18,0,0,0,5.57,1.41c1.72.28,3.62.59,5.25-.2A3.25,3.25,0,0,0,81,84.73c-.5-1.61-2.06-2.6-3.49-3.29a.36.36,0,0,0-.36.62Z"/><path class="cls-5" d="M66.07,71.83a6.18,6.18,0,0,0-5.56-1.14,9.05,9.05,0,0,0-5.08,3.22c-3.09,3.94-2.21,9.63.17,13.68a19.08,19.08,0,0,0,11.07,8.47c4.4,1.27,9.83,1,13.29-2.33,3.19-3.07,3.51-9.16-.55-11.68-.85-.52-1.63.82-.79,1.34,2.86,1.76,2.85,6.15.88,8.57-2.63,3.22-7.39,3.73-11.21,2.92A18,18,0,0,1,58,88.44c-2.61-3.31-4.15-8.14-2.34-12.18a7.61,7.61,0,0,1,4.24-4,7.25,7.25,0,0,1,5.67.21c.42.18.93-.32.53-.69Z"/><path class="cls-5" d="M54.26,76.89C50.4,80,45.63,81.38,40.86,82.3c-2.2.43-4.44.69-6.62,1.23a33.92,33.92,0,0,0-6,2.08,39.56,39.56,0,0,0-17.78,16.86,47.43,47.43,0,0,0-5,13.29c-.13.63.83.89,1,.26a44.66,44.66,0,0,1,11.5-21.91,36.25,36.25,0,0,1,10-7.26,32.55,32.55,0,0,1,6-2.2c2.12-.57,4.31-.84,6.47-1.24C45.58,82.45,50.75,81,55,77.6c.51-.4-.2-1.1-.7-.71Z"/><path class="cls-5" d="M79.43,92.71c-.74,3.88-1.94,8-5.59,10.11-2,1.14-4.28,1.27-6.39,2.09a11.48,11.48,0,0,0-5,3.62,9.54,9.54,0,0,0-1.8,7c.08.63,1.08.64,1,0a8.6,8.6,0,0,1,1.48-6.27,10.53,10.53,0,0,1,5.3-3.67c1.09-.35,2.22-.51,3.32-.84a12.34,12.34,0,0,0,2.79-1.21,10.27,10.27,0,0,0,3.75-4A22.42,22.42,0,0,0,80.39,93c.12-.63-.84-.9-1-.27Z"/><path class="cls-5" d="M73.79,104.58a40.49,40.49,0,0,0,24.31,2.61,27.56,27.56,0,0,0,5.06-1.43c1.26-.52,2.48-1.14,3.75-1.64a9.45,9.45,0,0,1,4-.88,2.82,2.82,0,0,1,2.58,2.31c.43,1.77-.4,3.64-1.29,5.13a21.23,21.23,0,0,1-3.36,4.2.5.5,0,0,0,.71.71c2.24-2.23,4.62-5.14,5-8.39a4.71,4.71,0,0,0-1.3-4,4.25,4.25,0,0,0-3.53-.86c-2.81.38-5.17,2-7.83,2.88a39.37,39.37,0,0,1-27.56-1.46c-.58-.26-1.09.6-.51.86Z"/><path class="cls-5" d="M79.17,96.91a23.3,23.3,0,0,0,8.3-.93,32.44,32.44,0,0,0,7.73-3.26,15.05,15.05,0,0,1,3.74-1.92A2.81,2.81,0,0,1,102.27,92c1.22,2.38-.65,5.47-1.93,7.44a21.5,21.5,0,0,1-2.75,3.41c-.52.52-1.07,1-1.64,1.49a7,7,0,0,0-1.53,1.45.44.44,0,0,0,.49.65c1.32-.31,2.45-1.53,3.39-2.45a22.56,22.56,0,0,0,2.7-3.23A21.55,21.55,0,0,0,103.11,97a7.29,7.29,0,0,0,.67-4.18,4,4,0,0,0-2.2-2.89,5,5,0,0,0-3.86.17,43.22,43.22,0,0,0-4,2.3,32,32,0,0,1-4.29,2,49,49,0,0,1-10.29,2.25c-.21,0-.14.32,0,.33Z"/><path class="cls-5" d="M76.27,94.39a4.85,4.85,0,0,1-2,4.53,16,16,0,0,1-5.14,2.25A48.59,48.59,0,0,0,64,102.75a15,15,0,0,0-5.88,4.54,16.63,16.63,0,0,0-3.46,8.19c-.08.64.92.63,1,0,.67-5.12,4.17-10.13,9.1-12,3.41-1.26,7.34-1.62,10.28-3.92a5.78,5.78,0,0,0,2.24-5.21c-.06-.63-1.06-.64-1,0Z"/><path class="cls-5" d="M45.43,81.81c-1.21,4-.59,8.59.87,12.43a22.74,22.74,0,0,0,6.88,9.46,25.07,25.07,0,0,0,2.6,1.86,9,9,0,0,0,3,1.37.56.56,0,0,0,.43-1,26.25,26.25,0,0,0-2.36-1.36,23.05,23.05,0,0,1-2.19-1.45,22.09,22.09,0,0,1-8.49-14.34A33.05,33.05,0,0,1,46,81.88a.27.27,0,0,0-.53-.07Z"/><path class="cls-5" d="M25.5,88.39a36.14,36.14,0,0,0,7.09,22.32,37.28,37.28,0,0,0,4.48,5.08c.47.44,1.18-.27.71-.71A36.19,36.19,0,0,1,26.94,95a33.15,33.15,0,0,1-.44-6.6.5.5,0,0,0-1,0Z"/><path class="cls-5" d="M13.49,98.38a26.38,26.38,0,0,0,5.37,17.32c.38.5,1.25,0,.86-.51a25.54,25.54,0,0,1-5.23-16.81c0-.64-1-.64-1,0Z"/><path class="cls-5" d="M7.41,112.09a31,31,0,0,0,4.93-1.16c1.63-.48,3.25-1,4.84-1.67a62.63,62.63,0,0,0,9.23-4.53A62.52,62.52,0,0,0,42,91.47,59.93,59.93,0,0,0,48.57,82c.37-.65-.64-1.25-1-.59A60,60,0,0,1,35,97a62.3,62.3,0,0,1-17,10.77q-2.59,1.1-5.3,2c-1.81.58-3.67,1-5.48,1.52-.46.14-.41,1,.11.88Z"/><path class="cls-5" d="M29.58,115.72A79,79,0,0,0,54.79,97.35a77.53,77.53,0,0,0,5.62-6.92c.38-.53-.49-1-.86-.51a77.23,77.23,0,0,1-22.71,20.83,78.86,78.86,0,0,1-7.77,4.1c-.58.27-.08,1.14.51.87Z"/><path class="cls-5" d="M51.52,115.89a40.82,40.82,0,0,0,4.56-4.36c.42-.48-.28-1.19-.71-.7a40.77,40.77,0,0,1-4.55,4.36c-.5.4.21,1.11.7.7Z"/><path class="cls-5" d="M89.43,16.5A2,2,0,0,0,88.23,18a3.08,3.08,0,0,0,.09,1.92,2.79,2.79,0,0,0,3.37,1.6A2.93,2.93,0,0,0,94,18.39a3.28,3.28,0,0,0-2.94-3,3.46,3.46,0,0,0-2.4.86,3.21,3.21,0,0,0-.79,1,1.51,1.51,0,0,0-.17,1.5.59.59,0,0,0,.92.12,1.06,1.06,0,0,0,.31-.49c0-.07,0-.13,0-.19a.3.3,0,0,1,0-.1c0-.1,0,.09,0,0a3.12,3.12,0,0,1,.2-.35s.1-.15.08-.11l0,0,.09-.1a2.61,2.61,0,0,1,.3-.27l.07-.05L90,17l.17-.09c.08,0,0,0,0,0l.13,0a3.25,3.25,0,0,1,.42-.11c.08,0,0,0,0,0h.1a1.34,1.34,0,0,1,.2,0s.19,0,.14,0h0l.13,0,.19.06c.11,0,0,0,.07,0a2.5,2.5,0,0,1,.35.21c.07,0,0,0,0,0l.08.06.13.14a.86.86,0,0,1,.13.14l.07.07s0,0,0,0a3.62,3.62,0,0,1,.2.33.89.89,0,0,1,.08.17l0,.11a2.62,2.62,0,0,1,.09.38c0,.07,0,0,0,0a.38.38,0,0,1,0,.1,1.62,1.62,0,0,1,0,.22,1.76,1.76,0,0,1-.12.58,1.82,1.82,0,0,1-.93.94,2.2,2.2,0,0,1-1.24.17,1.62,1.62,0,0,1-1.07-.67,2.14,2.14,0,0,1-.34-1.5,3.36,3.36,0,0,1,.72-1.42.28.28,0,0,0-.31-.4Z"/><path class="cls-5" d="M97.42,10.76a2.34,2.34,0,0,0-.09.24l.13-.13c-.43.13-.33.86-.22,1.19a1.91,1.91,0,0,0,3.56.15,2,2,0,0,0-.74-2.69,2.91,2.91,0,0,0-2.83-.14,3.36,3.36,0,0,0-1.41,1.23,3.13,3.13,0,0,0-.6,1.71c0,.21.26.42.47.27a4.66,4.66,0,0,0,.81-.85,8.83,8.83,0,0,1,.86-.87,2.19,2.19,0,0,1,.81-.44l.11,0h.07c-.08,0,0,0,.06,0h.35l.17,0,.21.06.06,0,.06,0a1.06,1.06,0,0,1,.2.12l.07.05,0,0a1.22,1.22,0,0,1,.15.17c-.07-.09,0,.05,0,.08a.94.94,0,0,1,.09.31,1,1,0,0,1-.32.73.91.91,0,0,1-.77.27,1,1,0,0,1-.71-.51,1.55,1.55,0,0,1-.24-.46c-.06-.19,0-.34-.23-.46l.1.16a.71.71,0,0,1,0-.2c.06-.21-.24-.28-.32-.09Z"/><path class="cls-5" d="M125.85,23.8c.18.13.4.07.6.12s.43,0,.64.08a3.62,3.62,0,0,1,.56.17c.09,0-.12-.06,0,0l.09,0,.09.06s.15.11,0,0a1.29,1.29,0,0,1,.17.16s.09.09,0,0,0,.07,0,.07a1.62,1.62,0,0,1,.1.18c-.06-.12,0,0,0,0s0,.18,0,.09v0s0,.14,0,0a1.05,1.05,0,0,1-.05.19c.07-.19-.09.14,0,0s0,0,0,.05-.14.11,0,0l-.08.05c-.11.07,0,0,0,0l-.05,0c.09,0,0,0,0,0h0s-.07,0-.09,0,.1,0,0,0,.07.08,0,0a.34.34,0,0,0-.08-.09c-.07,0,0,.1,0,0a2,2,0,0,0-.11-.2c-.06-.1,0,0,0,0a.73.73,0,0,1-.05-.12l-.06-.24a.5.5,0,0,1,0-.12s0,.15,0,0a2.45,2.45,0,0,1,0-.27c0-.23,0-.47-.08-.7a2.17,2.17,0,0,0-.51-1.13,1.73,1.73,0,0,0-1.17-.52c-.54,0-1.24.29-1.23.91a.73.73,0,0,0,.71.72.88.88,0,0,0,.58-.25l-.09.08c.05,0,0,0,0,0s0,0,0,0-.15,0-.06,0h.1c.11,0-.06,0-.07,0a.32.32,0,0,0,.14,0c.1,0,0,.06,0,0s.06,0,.07,0,0,.07,0,0l.06,0c.11.09-.09-.16,0,0s0,.06.06.1l0,.07c0-.08,0,.12,0,.14s0,.19.07.29,0,.14,0,0c0,.05,0,.1,0,.15,0,.24,0,.49.1.73a2.49,2.49,0,0,0,.53,1.11,1.52,1.52,0,0,0,1.19.54,1.6,1.6,0,0,0,1.21-.73,1.78,1.78,0,0,0-.41-2.34,2.56,2.56,0,0,0-1.45-.59,3.76,3.76,0,0,0-.75,0,1.77,1.77,0,0,0-.31.08c.12,0-.12,0-.15,0a.74.74,0,0,0-.42.17.38.38,0,0,0,.08.58Z"/><path class="cls-5" d="M104.53,44.53a15.2,15.2,0,0,0-2.15.84.38.38,0,0,0-.09.68c.21.16.41.34.63.49l.62.44c.43.3.85.6,1.29.89a.5.5,0,0,0,.68-.18.51.51,0,0,0-.18-.68c-.43-.29-.88-.55-1.32-.82l-.65-.41-.7-.38v.65a15.5,15.5,0,0,0,2-1.24c.14-.1,0-.31-.16-.28Z"/><path class="cls-5" d="M61.43,81.21c.4.11.9-.3,1.23-.5A12.24,12.24,0,0,0,64,79.83a17.5,17.5,0,0,0,2.29-2.1,19.23,19.23,0,0,0,1.91-2.48,10.09,10.09,0,0,0,1.42-2.77.48.48,0,0,0-.87-.37c-.54.83-.91,1.78-1.45,2.62a18.21,18.21,0,0,1-1.76,2.35,22.47,22.47,0,0,1-2.09,2c-.37.32-.76.63-1.15.94s-.87.49-1,.88a.22.22,0,0,0,.14.26Z"/><path class="cls-5" d="M65.69,85.05c1-1.35,2-2.69,3-4,.48-.65,1-1.3,1.45-2s1.08-1.36,1.53-2.1c.24-.39-.35-.88-.66-.5-.52.65-1,1.39-1.43,2.09l-1.4,2.08c-.94,1.42-1.87,2.84-2.82,4.25-.13.19.17.36.31.18Z"/><path class="cls-5" d="M73,86.15c.5-1.49.88-3,1.27-4.52a27.29,27.29,0,0,0,1-4.54c0-.57-.75-.58-.93-.12a28.34,28.34,0,0,0-1.06,4.57c-.3,1.51-.6,3-.79,4.54,0,.3.42.33.5.07Z"/><path class="cls-6" d="M59.16,77.62a4.81,4.81,0,0,0,4.3-2c.21-.3-.28-.69-.52-.4a4.8,4.8,0,0,1-3.78,1.81c-.36,0-.34.51,0,.54Z"/><path class="cls-6" d="M59.65,77.41a2.15,2.15,0,0,0,.2-.71,2.11,2.11,0,0,1,.09-.36,2.17,2.17,0,0,1,.1-.28,4,4,0,0,1,.37-.63l.05-.07.12-.15a3.19,3.19,0,0,1,.26-.26l.13-.13.07,0a3.21,3.21,0,0,1,.3-.21l.33-.17.07,0,.18-.06.35-.1.16,0h.09c-.06,0-.07,0,0,0a6.42,6.42,0,0,1,.76,0l-.46-1.11-1.54,1.62-.75.78-.37.39-.21.22a1.06,1.06,0,0,0-.24.39.61.61,0,0,0,.15.59l.12.09a.61.61,0,0,0,.61,0,1.6,1.6,0,0,0,.46-.4l.38-.39.78-.8c.51-.53,1-1.05,1.54-1.57a.66.66,0,0,0,.13-.71.67.67,0,0,0-.6-.4,4.15,4.15,0,0,0-3.32,1.19,3.68,3.68,0,0,0-.89,1.6,4.19,4.19,0,0,0-.15.86,1.28,1.28,0,0,0,.17.9.34.34,0,0,0,.58,0Z"/><path class="cls-6" d="M77.67,82.68A4,4,0,0,0,77,83.87a8.65,8.65,0,0,0-.34,1.33,9,9,0,0,0,0,2.83.57.57,0,0,0,.69.39.58.58,0,0,0,.39-.69,9.57,9.57,0,0,1-.17-2.45,9.74,9.74,0,0,1,.14-1.21c.09-.42.15-.84.21-1.27a.16.16,0,0,0-.3-.12Z"/><path class="cls-6" d="M77.21,87.84A2.23,2.23,0,0,0,79,87.46a3.3,3.3,0,0,0,1.18-1.64,2.6,2.6,0,0,0-.35-2.06,2.84,2.84,0,0,0-1.7-1.32.72.72,0,0,0-.38,1.39l.18.06c-.15,0,0,0,.05,0a1.65,1.65,0,0,1,.31.2l.05,0,.13.13.12.15c-.07-.1,0,0,0,0a2.68,2.68,0,0,1,.18.33c0-.11,0,0,0,.07s0,.09,0,.14a1.29,1.29,0,0,1,0,.19s0,0,0,0a.28.28,0,0,1,0,.09c0,.12,0,.25,0,.37a.76.76,0,0,1,0,.15c0-.11,0,.06,0,.09a2.12,2.12,0,0,1-.09.27,1.79,1.79,0,0,1-.42.53,2.54,2.54,0,0,1-1.22.59.29.29,0,0,0,0,.56Z"/><path class="cls-6" d="M78,83.47a6.83,6.83,0,0,0-.48,1.73c-.06.33-.1.66-.13,1a5.72,5.72,0,0,0-.08.92.7.7,0,0,0,.6.67.67.67,0,0,0,.75-.49,6.64,6.64,0,0,0,.09-1c0-.31,0-.62,0-.93a7.08,7.08,0,0,0-.2-1.83.31.31,0,0,0-.57-.07Z"/></svg>