<svg id="carracters" xmlns="http://www.w3.org/2000/svg" viewBox="0 0 198.43 35.43"><defs><style>.cls-1{fill:#fff;}.cls-2{fill:#6e6e6e;opacity:0.5;}</style></defs><path d="M174.27,19.15a9.44,9.44,0,0,1-.83-3.39,56.18,56.18,0,0,1-.24-5.94c0-.34,0-.33.33-.31l2.05.16.28,0c0,.35-.21.48-.74.59,0,.5,0,1,0,1.49,0,1,0,2,.1,3a12.28,12.28,0,0,0,.47,3.12c0,.12.09.24.14.36a1.72,1.72,0,0,1,.09.19,70.79,70.79,0,0,1,7.55-2.89l.65,2.08-.62-.11a.62.62,0,0,0-.27,0,49,49,0,0,0-8.2,3.14,16,16,0,0,0-3.72,2.46A5.22,5.22,0,0,0,170,24.85a2.49,2.49,0,0,0,1.21,3.35,6.58,6.58,0,0,0,2.59.7c1.17.09,2.34.14,3.5.13a56.33,56.33,0,0,0,7-.46l.51-.08c0,.57.11,1.12.14,1.67,0,0-.11.13-.17.14-.7.07-1.39.15-2.09.2q-3.53.24-7.05.2a13.71,13.71,0,0,1-4.79-.78,4.31,4.31,0,0,1-2.17-1.58,4.07,4.07,0,0,1-.12-4.41,8.06,8.06,0,0,1,2.58-2.74C172.12,20.48,173.2,19.84,174.27,19.15Z"/><path class="cls-1" d="M22.46,19.15a9.44,9.44,0,0,1-.83-3.39,56.18,56.18,0,0,1-.24-5.94c0-.34,0-.33.33-.31l2.05.16.28,0c0,.35-.21.48-.74.59,0,.5,0,1,0,1.49,0,1,.05,2,.1,3a12.28,12.28,0,0,0,.47,3.12c0,.12.09.24.14.36a1.72,1.72,0,0,1,.09.19,70.79,70.79,0,0,1,7.55-2.89l.65,2.08-.62-.11a.62.62,0,0,0-.27,0,49,49,0,0,0-8.2,3.14A16,16,0,0,0,19.5,23.1a5.22,5.22,0,0,0-1.34,1.75,2.49,2.49,0,0,0,1.21,3.35,6.58,6.58,0,0,0,2.59.7c1.17.09,2.34.14,3.5.13a56,56,0,0,0,7-.46l.52-.08c0,.57.11,1.12.14,1.67,0,0-.11.13-.17.14-.7.07-1.39.15-2.09.2q-3.53.24-7,.2A13.71,13.71,0,0,1,19,29.92a4.31,4.31,0,0,1-2.17-1.58,4.07,4.07,0,0,1-.12-4.41,8.06,8.06,0,0,1,2.58-2.74C20.31,20.48,21.39,19.84,22.46,19.15Z"/><path class="cls-2" d="M138.38,19.15a9.44,9.44,0,0,1-.83-3.39,56.18,56.18,0,0,1-.24-5.94c0-.34,0-.33.33-.31l2.05.16.28,0c0,.35-.21.48-.74.59,0,.5,0,1,0,1.49,0,1,.05,2,.1,3a11.86,11.86,0,0,0,.48,3.12l.13.36a1.72,1.72,0,0,1,.09.19,70.79,70.79,0,0,1,7.55-2.89l.65,2.08-.62-.11a.62.62,0,0,0-.27,0,49,49,0,0,0-8.2,3.14,16.45,16.45,0,0,0-3.72,2.46,5.06,5.06,0,0,0-1.33,1.75,2.48,2.48,0,0,0,1.2,3.35,6.63,6.63,0,0,0,2.6.7c1.16.09,2.33.14,3.49.13a56.33,56.33,0,0,0,7-.46l.52-.08c.05.57.1,1.12.13,1.67,0,0-.1.13-.17.14-.69.07-1.39.15-2.09.2q-3.52.24-7,.2a13.71,13.71,0,0,1-4.79-.78,4.31,4.31,0,0,1-2.17-1.58,4.07,4.07,0,0,1-.12-4.41,8.16,8.16,0,0,1,2.58-2.74C136.23,20.48,137.31,19.84,138.38,19.15Z"/><path d="M139.83,18.48l-1.61.78a6,6,0,0,1-.57-1.55,18.77,18.77,0,0,1-.44-3.66c-.05-1.46-.07-2.92-.11-4.39,0,0,0-.09,0-.17l2.66.22c-.06.44-.4.51-.74.61,0,.67,0,1.33,0,2,0,1,.05,1.92.11,2.87A9,9,0,0,0,139.83,18.48Z"/><path d="M183.32,15.31l-1.26-.46c.05-.13.09-.25.13-.38l.3-.81c0-.14.11-.17.25-.06l-.34,1L185.69,13l.11.19-3.33,1.63c.29.11.55.21.8.29S183.42,15.18,183.32,15.31Z"/><path d="M135,10.25c.07,0,.16,0,.22,0,.24.13.47.27.75.45-.1-.42-.2-.78-.29-1.14-.19-.74-.39-1.47-.58-2.21,0-.08,0-.16.05-.24s.13.11.15.18c.28,1,.55,2.07.82,3.1,0,.07,0,.15.08.26l.52-.84.18.11-.71,1.17L135,10.36Z"/></svg>