<svg xmlns="http://www.w3.org/2000/svg" viewBox="0 0 198.43 132.84"><defs><style>.cls-1{fill:#fff;}.cls-2{fill:#7b3d64;}.cls-3{fill:#010101;}.cls-4{fill:#818c86;}.cls-5{fill:#fab06c;}.cls-6{fill:#f4eca3;}</style></defs><g id="illustration"><path class="cls-1" d="M73.93,37.43c-5.16.9-4.42,7.25-1.37,10,4.19,3.84,9.22-.58,9.75-5.2S79.12,33.39,74.42,34s-7.31,6-4.36,9.89c1.44,1.89,4.7,0,3.24-1.89-2.82-3.7,3.55-6.18,5.08-2,.5,1.38.09,4.46-1.67,5-2.06.65-4.29-3.57-1.78-4s1.37-4-1-3.61Z"/><path class="cls-1" d="M75.16,39.78a7.86,7.86,0,0,1-.61,3.83,1.92,1.92,0,0,0,.67,2.56,1.9,1.9,0,0,0,2.57-.67,11.89,11.89,0,0,0,1.12-5.72,1.88,1.88,0,1,0-3.75,0Z"/><path class="cls-2" d="M105,121.35l1.74-.22a1.91,1.91,0,0,0,1.87-1.87c0-.91-.83-2-1.87-1.88l-1.74.22a1.92,1.92,0,0,0-1.88,1.87c0,.92.84,2,1.88,1.88Z"/><path class="cls-2" d="M104.85,121.17l-.21,2.6a1.9,1.9,0,0,0,1.88,1.88,1.92,1.92,0,0,0,1.87-1.88l.21-2.6a1.9,1.9,0,0,0-1.88-1.88,1.92,1.92,0,0,0-1.87,1.88Z"/><path class="cls-2" d="M103.38,121.82V122a1.88,1.88,0,0,0,3.75,0v-.22a1.88,1.88,0,0,0-3.75,0Z"/><path class="cls-3" d="M131.7,26.07c5.37-3.45,9.7-5.7,16.29-5.5.49,0,.47-.71,0-.75-5.69-.49-12.77,1.41-16.44,6.05-.09.1,0,.28.15.2Z"/><path class="cls-3" d="M145.17,44.76c-2.65,3.63-5.06,7.43-7.52,11.2-2.86,4.38-5.75,11.94-12.24,9.73-.34-.12-.57.23-.53.53q1.59,10.34,3.21,20.68c1.19,7.57,4.22,18.07-4.55,22.18-.39.18-.12.8.28.68,4.8-1.37,6.68-6.14,6.79-10.78.17-7.77-2.15-16-3.37-23.61-.29-1.84-.79-3.77-.9-5.63-.2-3.32-.67-2,1.44-2.68,1.85-.61,3.37-.52,4.91-2,2.36-2.33,3.9-5.86,5.7-8.62,2.45-3.76,5-7.49,7.21-11.38.17-.28-.24-.5-.43-.25Z"/><path class="cls-3" d="M125.87,65.31a103.92,103.92,0,0,0,1.57,15.85c.08.39.69.29.69-.09a102.75,102.75,0,0,0-1.81-15.82c0-.25-.46-.19-.45.06Z"/><path class="cls-3" d="M130.68,27.07c2-1,3.4-2.89,5.44-3.91,2.33-1.17,4.64-1.28,7.12-1.86a.33.33,0,0,0,0-.63c-3.9-.74-11.45,2.19-12.69,6.29,0,.08.06.14.13.11Z"/><path class="cls-3" d="M121.06,14.71c12.5-9.45,28.13-10.86,40.46,0,.47.41,1.16-.28.69-.69-11.56-10.14-30.36-11.39-41.53.25-.23.24.09.7.38.48Z"/><path class="cls-3" d="M32,21.5c-2.18,6.42.31,14,4.94,18.7,3.78,3.88,11,7.95,16.11,4.46a.38.38,0,0,0-.38-.66c-6.12,2.86-13.08-1.61-16.69-6.48s-3.9-10.15-3.58-16c0-.24-.32-.26-.4-.05Z"/><path class="cls-3" d="M33.69,21.23C25.86,34,38.53,50.56,53,45.58a.41.41,0,0,0-.21-.79c-14.2,3-25.06-10-18.85-23.42a.14.14,0,0,0-.24-.14Z"/><path class="cls-3" d="M49.82,43.47c-1,3.57.23,9.25,3.67,11.24a.32.32,0,0,0,.44-.43c-1-1.72-2.33-3-3-5a16.06,16.06,0,0,1-.61-5.77.26.26,0,0,0-.52-.07Z"/><path class="cls-3" d="M53,53.84a34.31,34.31,0,0,0,4.87-5.06c1.55-1.77,3.25-3.48,4.63-5.39.27-.39-.32-.8-.64-.49a73.8,73.8,0,0,0-4.94,5.51,32.89,32.89,0,0,0-4.15,5.2c-.07.13.09.33.23.23Z"/><path class="cls-3" d="M79.55,69.13c.25,11.93-2.54,25,1.74,36.46,2.89,7.75,10.17,14.73,19,13.66.5-.06.54-.82,0-.81-11.79.12-18.32-9.7-19.79-20.45-1.31-9.6.86-19.25-.16-28.86,0-.47-.77-.5-.76,0Z"/><path class="cls-3" d="M111,11.07a6.62,6.62,0,0,1,6.42-.63c1.61.81,2.16,2.21,3.18,3.53.17.22.53,0,.52-.21,0-2-2.09-3.75-3.84-4.42a6.19,6.19,0,0,0-6.6,1.33.26.26,0,0,0,.32.4Z"/><path class="cls-4" d="M179.89,27.69l-.32-2.35c-1.27-8.12-9.74-10.81-11.93-11.34s-7.76,1-7.76,1S161.49,12.7,149,8.56s-27.11,5.83-27.11,5.83l1.18,6.24,8.64,3.62c5.08-4.76,14.68-4.64,14.68-4.64-1,1.47-4.56,8.08-4.56,8.08-3.34,7.53,5.76,25.31,17.33,15.88S164.1,21,164.1,21C177.79,20.52,179.89,27.69,179.89,27.69Zm-26.7,10.42c-1.45.21-6.21-.82-5.41-6.7s7.65-7.87,7.65-7.87A12.06,12.06,0,0,1,159.31,32C159.35,36.45,154.64,37.89,153.19,38.11Z"/><path class="cls-4" d="M35.08,20.05S28.45,33.14,40,42.58s20.67-8.36,17.33-15.89c0,0-3.57-6.6-4.57-8.07,0,0,9.6-.13,14.69,4.64l8.64-3.63,4.6-3.17c.08-.94-17.9-14.59-30.53-8.89C38.18,13,39.29,14,39.29,14s-5.57-1.51-7.76-1S20.88,16.22,19.61,24.34l-.32,2.35S21.38,19.52,35.08,20.05Zm4.78,11a12.15,12.15,0,0,1,3.88-8.5s6.86,2,7.66,7.87-4,6.92-5.41,6.7S39.83,35.46,39.86,31Z"/><path class="cls-5" d="M64.61,28.81S51.82,31,50.72,44.31c0,0-.31,5.39,1.41,6.73A41.07,41.07,0,0,1,62.25,40.57Z"/><path class="cls-5" d="M134.89,29.24s5-5.39,14.11,7.88c0,0,.65,8.29-.78,11,0,0-1.18-4.67-3.54-5.57s-10-5.76-10-5.76Z"/><path class="cls-5" d="M81.29,42.53l-1,25.71s-2.07,28,1.5,34.3,7.73,16.43,24.38,14.79a29.34,29.34,0,0,0,23-15.07A106.61,106.61,0,0,0,127.83,80c-2-10.52-8.2-43.8-8.2-43.8L82,38.36Z"/><path class="cls-6" d="M73.27,36.21A5.8,5.8,0,0,0,69.85,39c-1.26,2.3,1.55,5.89,2.56,7.42a3.44,3.44,0,0,0,4.4,1c1.15-.75,4.48-4.94,4.48-4.94l-1,25.71a4.19,4.19,0,0,1-3.76,1.23c-2.23-.47-5.29-2.22-5.07-3.57s2.17-2.42,2.17-2.42a5.18,5.18,0,0,1-5.4-.57c-2.65-2-2-5.44-1.46-5.8a11.94,11.94,0,0,1,1.92-.78s-4.82-.09-5.58-2.18-2.09-3.26-.52-4.82c0,0-2.59-3.47-2.1-5.4s2.79-3.75,2.79-3.75-1.93-3.71.18-5.82,2.08-5,4.72-6.09l-2.53.15s.09-4.86,3.65-6.14,4.33-.83,4.33-.83-.19-3.27,2.22-4.5a7.16,7.16,0,0,1,4.87-.49L77.43,14.3s1.49-3.42,3.92-3.32a11.33,11.33,0,0,1,5,1.87S90.08,8.61,92.54,9a19,19,0,0,1,5.24,2.07s2.32-1.67,4-1.43a14,14,0,0,1,3.57,1.23,12.57,12.57,0,0,1,3.59-1.7c2-.54,4.26,2,4.26,2s1.44-2.11,3.22-1.54,5.5,4.71,5.5,4.71l.71.93s0-.42,1,.9,1,4.41,1,4.41,1.49-3,3.85-.62S130,26.8,130,26.8l-1.17,1.33s1.76-1.51,4.84.09,2.4,5.63,2.4,5.63a3.58,3.58,0,0,1,2.47,3.7c-.17,3,6.19,5,6.19,5s1.14,5.57-2.13,6.84l-3.28,1.27S137.89,54.75,137,55s.54,3.3.54,3.3.36.61-1,1.69-4.81,1.39-4.81,1.39a1.59,1.59,0,0,1,.73,2.47c-1.1,1.73-4.71,3.17-5.32,2.63s-1.7-1.34-1.7-1.34l-4.75-21.71,2.44-5.36s-4.12-1.86-4.61-1.34-2.78,5-5.49,5.25a11.63,11.63,0,0,1-4.53-.3s-1.57,3.45-4.39,4.55-5-2.8-5-2.8-.12,3-3.7,3.32-6-5.49-6-5.49-.68.87-3.37,0-5.55-6.56-5.55-6.56S78.36,37.35,73.27,36.21Z"/><path class="cls-1" d="M123.28,36.21c-.26.09-3.29,4.32-2.65,7.26s5.1,5.67,8.57,3,3.88-7,2.16-8.08S129.1,34.2,123.28,36.21Z"/><path class="cls-1" d="M43.53,14.26c7.12-4.81,15.32-6,23.14-2,.36.18.68-.36.32-.55C59.46,7.8,49.88,8.31,43.42,14.11c-.07.07,0,.21.11.15Z"/><path class="cls-1" d="M127.22,13.88c9.16-3.93,17.08-3.89,26.07.56a.23.23,0,0,0,.23-.4c-7.51-5.11-18.81-5.38-26.42-.36a.12.12,0,0,0,.12.2Z"/><path class="cls-1" d="M24.23,18.13A30.66,30.66,0,0,1,27.3,16.4a12,12,0,0,1,3.81-.77.29.29,0,0,0,0-.57c-2.4,0-5.49,1-7,3,0,.05,0,.1.08.08Z"/><path class="cls-1" d="M164.32,16.18a14,14,0,0,1,4.13.26c1.23.27,2.31,1,3.52,1.21a.23.23,0,0,0,.23-.39c-1.72-2-5.61-2-7.95-1.54a.24.24,0,0,0,.07.46Z"/><path class="cls-3" d="M75.74,41c-.54-.45-1.19.48-.69.89.26.21.63-.14.38-.38s0-.25.14-.21.32-.18.17-.3Z"/><path class="cls-3" d="M125.65,40.33c-.25,0-.1-.09-.23-.14a1,1,0,0,0-.35-.07.2.2,0,0,0-.25.19c0,.34-.13.79.21,1a.88.88,0,0,0,.82,0c.45-.19,1-1,.43-1.32a.26.26,0,0,0-.37.15c-.07.19,0,.35-.12.52a.42.42,0,0,1-.59.11l.12.22c0-.24-.07-.47-.1-.72l-.2.21a2.16,2.16,0,0,0,.36,0c.11,0,.07-.1.26-.08a.06.06,0,0,0,0-.11Z"/><path class="cls-3" d="M113.56,106.51a45.18,45.18,0,0,0-5.41-1.13c-.34,0-.5.45-.14.53a46.47,46.47,0,0,0,5.51.88c.17,0,.2-.24,0-.28Z"/><path class="cls-3" d="M108.54,105.29a3,3,0,0,1,3.6-1.7c.3.09.41-.36.13-.46a3,3,0,0,0-3.91,2.09c0,.1.13.18.18.07Z"/><path class="cls-3" d="M111.94,103.7c.37.61.76,1.21,1.13,1.82l.37-.29c-.34-.37-.7-.73-1-1.09a.26.26,0,0,0-.43.11,1.33,1.33,0,0,0,.85,1.8.26.26,0,0,0,.32-.18,1.66,1.66,0,0,0-.68-1.88.27.27,0,0,0-.32,0,1.41,1.41,0,0,0-.29,1.8.26.26,0,0,0,.36.1,1,1,0,0,0-.24-1.76c-.88-.12-1.24,1.07-.7,1.63a.27.27,0,0,0,.32,0,.88.88,0,0,0-.09-1.57c-.78-.27-1.23.69-.94,1.3a.26.26,0,0,0,.42.05,1,1,0,0,0,.22-1.36.29.29,0,0,0-.31-.12,1.37,1.37,0,0,0-.84,2c.14.24.58.15.55-.15,0-.46-.11-.91-.16-1.37a.27.27,0,0,0-.34-.26,1.16,1.16,0,0,0-.87,1.17.27.27,0,0,0,.53.07c.07-.19.13-.39.19-.58a.25.25,0,0,0-.18-.31.84.84,0,0,0-1.11.88c0,.32.52.32.5,0l.48-.39-.18-.31c-.08.19-.15.38-.22.57l.53.07.48-.65-.35-.26c0,.46.08.91.12,1.37l.54-.14a.78.78,0,0,1,.47-1.19l-.31-.13-.12.7.43.05.3.1.31,0c.51-.82.61-.81.31,0l.35.1a.92.92,0,0,1,.21-1.16l-.32,0a1.15,1.15,0,0,1,.45,1.28l.32-.18a.86.86,0,0,1-.5-1.17l-.42.12c.36.36.71.72,1.08,1.06a.23.23,0,0,0,.33-.33c-.44-.55-.87-1.12-1.32-1.67-.08-.1-.25,0-.18.14Z"/><path class="cls-3" d="M108.13,105.48a6.14,6.14,0,0,0,1.5-1.42c.08-.11-.09-.28-.21-.2a6.29,6.29,0,0,0-1.41,1.5c-.05.07,0,.16.12.12Z"/><path class="cls-3" d="M111.62,102.88a.79.79,0,0,0,.25.19c.08.05.18,0,.13-.14a.88.88,0,0,0-.19-.24c-.12-.13-.31.06-.19.19Z"/><path class="cls-3" d="M111.5,103a2.77,2.77,0,0,0,.65-.12.08.08,0,0,0,0-.16,2.32,2.32,0,0,0-.65.06c-.12,0-.1.23,0,.22Z"/><path class="cls-3" d="M111.33,102.87l1-.38c.17-.06.09-.34-.08-.27l-1,.41c-.14.06-.09.29.06.24Z"/><path class="cls-3" d="M111.75,102.65a1.94,1.94,0,0,0-2.35,1.12c0,.11.13.21.21.12a2.41,2.41,0,0,1,2.1-1,.15.15,0,0,0,0-.29Z"/><path class="cls-3" d="M109.38,104.28a8.93,8.93,0,0,0-1.62,1.63c-.05.07,0,.16.12.11a9.25,9.25,0,0,0,1.64-1.61.1.1,0,0,0-.14-.13Z"/><path class="cls-3" d="M108.41,104.35a5.58,5.58,0,0,0-.64,1.41.08.08,0,0,0,.15.07,5.77,5.77,0,0,0,.57-1.44s-.06-.08-.08,0Z"/><path class="cls-3" d="M108.63,104.58a4.43,4.43,0,0,0-.43,1.22c0,.09.12.11.16,0a4.5,4.5,0,0,0,.4-1.24c0-.08-.1-.11-.13,0Z"/><path class="cls-3" d="M96,105.81a17.78,17.78,0,0,0,3.28-.93c.17-.07,0-.3-.11-.27a17.28,17.28,0,0,0-3.2,1.1.05.05,0,0,0,0,.1Z"/><path class="cls-3" d="M100,105.31c-.61,0-1.22,0-1.82.12-.21,0-.22.37,0,.34.62-.06,1.23-.17,1.84-.28a.09.09,0,0,0,0-.18Z"/><path class="cls-3" d="M100.27,105.13c-.4-.19-.83-.53-1.28-.45a.12.12,0,0,0-.06.2c.3.32.87.31,1.28.39.08,0,.14-.1.06-.14Z"/><path class="cls-3" d="M99.65,105a2.52,2.52,0,0,0-3.38-.57c-.11.09,0,.23.12.21a5.16,5.16,0,0,1,1.7-.17,4.29,4.29,0,0,1,1.45.64c.07,0,.15,0,.11-.11Z"/><path class="cls-3" d="M98.14,104.21c-.57.23-1.12.48-1.67.76-.17.09,0,.36.16.27.54-.27,1.06-.57,1.57-.89.07,0,0-.17-.06-.14Z"/><path class="cls-3" d="M97.41,105.35a6.43,6.43,0,0,0,1.64-.23.09.09,0,0,0,0-.18,6.55,6.55,0,0,0-1.64.18c-.12,0-.1.24,0,.23Z"/><path class="cls-3" d="M100,105.73a.37.37,0,0,0,.23,0,.1.1,0,0,0,0-.19.37.37,0,0,0-.23,0,.13.13,0,0,0,0,.25Z"/><path class="cls-5" d="M91.83,114.21s7.16,7.58,14.33,7.14,13.58-5.8,13.33-7.14-9,2.75-13.33,3.12S91.9,115,90.62,113.94"/><path class="cls-3" d="M81.29,42.53s0,0,0,0,0,0,0,0Z"/><path class="cls-3" d="M82.27,41.59c-1.5,16.42-2.22,33-2.25,49.5,0,10.9,3.8,20.34,14.37,24.78,9.9,4.15,21.48,1.19,29.12-6.09,7.22-6.88,7-14.27,5.7-23.61-2.11-15.06-6.74-29.68-8.31-44.81-.05-.48-.8-.48-.75,0,1.36,13.64,5.26,26.9,7.61,40.39.93,5.36,2,11,1.42,16.49-.7,7.17-7.24,12.94-13.37,15.94a25.53,25.53,0,0,1-23,.13c-8.08-4.21-11.67-11.69-12.12-20.53-.88-17.26,1.14-34.94,1.87-52.19,0-.17-.25-.16-.26,0Z"/><path class="cls-3" d="M72.63,36.9c-3.64.07-4,4.44-2.61,7,1.63,3,5.5,4.69,8.62,2.84a5.83,5.83,0,0,0,1.7-8.5,5.89,5.89,0,0,0-8.69-.72c-.32.28.14.72.45.46,2.41-2,6.09-2,7.93.82a5.13,5.13,0,0,1-1.24,7c-6.32,4.75-12.69-7.25-6.12-8.6a.16.16,0,0,0,0-.31Z"/><path class="cls-3" d="M124.35,35a7.71,7.71,0,0,0-2.77,9.05,5.72,5.72,0,0,0,7.87,3,6.08,6.08,0,0,0,2.78-7.7c-1.32-3.43-5.34-4.78-8.66-3.64-.43.15-.25.82.18.68,2.75-.91,6-.25,7.59,2.41a5.6,5.6,0,0,1-2.13,7.78,5.29,5.29,0,0,1-7.43-3.38,7.61,7.61,0,0,1,2.78-8c.15-.12,0-.39-.21-.27Z"/><path class="cls-3" d="M68.17,28.14a3.37,3.37,0,0,0-2.76,1.6c-.7,1-.48,2.26-1.14,3.24-.92,1.37-1.94,2.11-2.23,3.87a6.58,6.58,0,0,0,1.42,5c.28.39.93,0,.64-.37a5.68,5.68,0,0,1,1.17-8.42.37.37,0,0,0,.15-.38c-.33-2.3,1-3.49,2.81-4.33a.13.13,0,0,0-.06-.24Z"/><path class="cls-3" d="M130.25,28.94c3.17-1.19,6.72,1.14,5.08,4.79a.33.33,0,0,0,.12.44c2.45,1.33,3.08,3.66,2.6,6.25-.05.29.37.53.51.22a5.24,5.24,0,0,0-.17-4.41,7.62,7.62,0,0,0-1.56-2c-.8-.82-.55-.52-.5-1.56.16-3.31-3.09-6.11-6.21-4.06-.14.1-.05.37.13.3Z"/><path class="cls-3" d="M95.78,47.82a78.35,78.35,0,0,1,2.54,17.82A67.14,67.14,0,0,1,98,72.87c-.2,2.07-.51,4.14-.9,6.19-.15.76-1,2.83-.76,3.53a.21.21,0,0,0-.4.11l.15.92a.29.29,0,0,0,.55,0A66.48,66.48,0,0,0,96,47.76a.13.13,0,0,0-.25.06Z"/><path class="cls-3" d="M105.14,49.37a74,74,0,0,0,2.21,30.68.25.25,0,0,0,.48-.14,107,107,0,0,1-2.52-30.54c0-.11-.16-.1-.17,0Z"/><path class="cls-3" d="M105,116.49c-.24-4.8-2-14.24-8.89-13.27-1.25.18-2.85,1.41-1.66,2.74a2.71,2.71,0,0,0,2.06.58,33.61,33.61,0,0,0,5.92-.47c.21,0,.15-.36,0-.37-1.76,0-3.87.62-5.58.31s.19-2.18,1.42-2.16c1,0,2.27,1.07,3,1.73,3,2.8,3.24,7.1,3.63,10.91a.1.1,0,0,0,.19,0Z"/><path class="cls-3" d="M107.29,116.69c-1-3.76-2.1-8,.18-11.52a6.53,6.53,0,0,1,2.21-2.13c2.25-1.45,3.08-.85,2.52,1.81q1.47,3-.47,2.35c-1.46.09-3.45-.91-4.86-1.21a.29.29,0,0,0-.16.55c2,.63,6.51,2.46,8.29.24,1.21-1.51.2-3.64-1.37-4.35-2.71-1.21-5.59,1-6.78,3.31-1.8,3.47-.91,7.48.27,11a.09.09,0,0,0,.17,0Z"/><path class="cls-3" d="M115.25,100.76a4,4,0,0,1,2.74,2c.61,1.26,0,2.2-.12,3.43a.18.18,0,0,0,.26.15c1-.8.94-2.64.45-3.73a3.67,3.67,0,0,0-3.3-2.17c-.15,0-.19.25,0,.28Z"/><path class="cls-3" d="M94.31,100.87a3.21,3.21,0,0,0-1.93,4.64c.16.28.57,0,.43-.25A3.17,3.17,0,0,1,94.36,101c.11,0,.07-.21,0-.17Z"/><path class="cls-3" d="M102.49,117.16a47.64,47.64,0,0,0,2.13,8.17c.37.92,1.12,2,2.26,1.78s1.56-1.32,1.79-2.26c.68-2.75,1-5.67,1.41-8.47,0-.31-.43-.45-.48-.13l-.79,4.79c-.17,1-.12,3-.69,3.92-2.43,3.74-3.71-2.09-4-3-.46-1.61-.87-3.23-1.43-4.81a.11.11,0,0,0-.22.06Z"/><path class="cls-3" d="M75,40.05a1.38,1.38,0,0,0-.73,2,1.46,1.46,0,0,0,2.25.17A1.43,1.43,0,0,0,76,40.07c-.76-.34-2.06.3-1.83,1.24a.2.2,0,0,0,.36,0c.21-.48.56-1,1.19-.86A.93.93,0,0,1,76.08,42a1,1,0,0,1-1.49-.2,1.21,1.21,0,0,1,.46-1.55c.09-.06,0-.22-.08-.18Z"/><path class="cls-3" d="M125,40.17c.74-.68,2.22-.23,1.78.92a.92.92,0,0,1-1.08.65,1.12,1.12,0,0,1-.75-1.21.25.25,0,0,0-.49-.07,1.51,1.51,0,0,0,1,1.75,1.4,1.4,0,0,0,1.71-.9,1.36,1.36,0,0,0-.65-1.75,1.45,1.45,0,0,0-1.78.44.14.14,0,0,0,.21.17Z"/><path class="cls-3" d="M65.59,28.23c-11.78,1.83-17,14.23-12,24.52.12.24.47,0,.36-.2-2-4.13,7.13-10,9.52-12.21.22-.19-.1-.51-.32-.32-2.89,2.57-6.86,5.15-9.1,8.32-.21.3-1.75,3.28-1,3.37-.38,0-1-5.72-1-6.62a16.92,16.92,0,0,1,1.67-7.47c2.38-4.87,6.89-7.68,12-9,.26-.06.14-.42-.1-.38Z"/><path class="cls-3" d="M135.5,27a.5.5,0,0,0-.21,0s0,0,0,0a.74.74,0,0,0,.21,0s0-.06,0-.06Z"/><path class="cls-3" d="M134.72,29.05c9.22-3.25,15.13,9.37,13.71,16.8-.35,1.87-.14,1,0,1s-1.26-2-1.18-1.88c-2.06-2.36-5.29-4.07-7.79-5.9-.33-.24-.65.3-.32.54,2.68,1.94,8.5,4.83,8.8,8.44a.32.32,0,0,0,.62.08,17.16,17.16,0,0,0-2.41-15.09c-2.64-3.66-7.1-6.62-11.56-4.45a.22.22,0,0,0,.17.41Z"/><path class="cls-3" d="M66.64,26.81c.31-3.7,2.79-6.34,6.78-5.38a.27.27,0,0,0,.34-.26c.46-3.8,3.52-5,6.95-4.57.13,0,.18-.2.07-.26a5.08,5.08,0,0,0-5,.35c-1.55,1-1.67,3.28-3,4-.58.31-2,0-2.75.28A5.54,5.54,0,0,0,68,22.19a5.2,5.2,0,0,0-1.54,4.64c0,.08.13.05.14,0Z"/><path class="cls-3" d="M120.05,15.65a8.54,8.54,0,0,1,1.71.12,1.39,1.39,0,0,1,1.75,1.3,1.8,1.8,0,0,1,.46,2.27.26.26,0,0,0,.32.32c4.46-1.12,7.2,3.13,5.46,7a.23.23,0,0,0,.4.23,5.23,5.23,0,0,0-4.13-8c-1.37-.07-1.11.43-1.34-.7a3.88,3.88,0,0,0-.64-1.88,2.89,2.89,0,0,0-4-.76,0,0,0,0,0,0,.07Z"/><path class="cls-3" d="M78.28,14.88C70.39,7.1,58.56,3.92,48,7.71c-9.56,3.42-16.22,12.45-15.22,22.8C33.57,38.73,41,48.14,50,44c10.52-4.77,8.49-17.53,2.67-25.15a.28.28,0,1,0-.44.34c3.53,4.53,6,10.47,4.25,16.24-1.61,5.3-7.25,9.86-13,8.49C34.18,41.73,32,29.47,34.66,21.74,37.6,13.22,45.82,8,54.53,7.07s17,2.4,23.54,8c.15.12.35-.08.21-.22Z"/><path class="cls-3" d="M38,13.34c-9.41-3.46-18.57,3.94-19.39,13.35,0,.37.5.47.67.18A13.4,13.4,0,0,1,32.3,20.42c.45,0,.45-.66,0-.71-5.15-.52-9,1.54-12.51,5.05-.86.86-.51,1-.23-.18a17.9,17.9,0,0,1,.63-2.13,15.17,15.17,0,0,1,3.53-5.37c3.86-3.78,9.08-4.38,14.16-3.52a.12.12,0,0,0,.07-.22Z"/><path class="cls-3" d="M43.28,22.64c2.5,1,7.13,3.57,7.27,6.79l-3.07,7.18c-2.53.8-4.35,0-5.45-2.28-2.44-2.71-2.89-5.48-1-8.71a13.15,13.15,0,0,1,5-4.56c6.71-3.78,15.12-2.18,21,2.38.25.19.61-.15.36-.36a19.49,19.49,0,0,0-19.66-3.53c-5.42,2.13-10.58,7.91-7.76,14,1.83,4,8,5.52,10.67,1.38,3.34-5.25-2.48-11.16-7.18-12.56-.15,0-.21.18-.07.24Z"/><path class="cls-3" d="M120.74,16.1c6.59-5.63,14.77-9,23.54-8s16.93,6.14,19.87,14.66c2.67,7.76.48,20-8.84,22.23-5.75,1.37-11.39-3.19-13-8.49-1.76-5.77.72-11.72,4.25-16.24a.28.28,0,1,0-.44-.34c-5.78,7.56-7.88,20.37,2.62,25.12,9.07,4.11,16.5-5.22,17.3-13.5,1-10-5.31-19-14.53-22.56-10.71-4.16-22.92-1-31,6.93-.14.14.06.34.21.22Z"/><path class="cls-3" d="M160.93,14.56c4.78-.81,9.47-.35,13.34,2.84a14.2,14.2,0,0,1,3.9,5.09,21.7,21.7,0,0,1,.94,2.55c.31.94,1.27,2.07-.09.72-3.53-3.51-7.37-5.57-12.51-5.05-.45,0-.45.76,0,.71a13.36,13.36,0,0,1,13.07,6.45c.17.29.7.19.67-.18-.82-9.41-10-16.81-19.39-13.36a.12.12,0,0,0,.07.23Z"/><path class="cls-3" d="M155.46,23.4c-4.7,1.4-10.5,7.28-7.2,12.54,2.63,4.18,8.84,2.61,10.69-1.36,2.71-5.8-2-11.53-7.1-13.77a19.49,19.49,0,0,0-20.32,3.27c-.25.21.11.55.36.35,5.88-4.58,14.21-6.09,21-2.37,3.7,2,7.39,6.47,5.93,11.05-2.2,6.93-13.56,5.5-10.52-2.68,1.25-3.38,4-5.53,7.27-6.79.14-.06.08-.28-.07-.24Z"/><path class="cls-3" d="M77.69,14.82a3.29,3.29,0,0,1,3.16-2.2q2.84-2.71,5.21.5a.39.39,0,0,0,.61-.08c2.92-4.58,8.69-4.52,11.82-.13.28.4.93,0,.66-.38a7.74,7.74,0,0,0-6-3.86,7.19,7.19,0,0,0-3,.38c-1.19.42-2.59,2.35-3.55,2.6-1.57.4-3.28-1.47-5.29-1a4.84,4.84,0,0,0-3.8,4.13c0,.08.1.14.14.06Z"/><path class="cls-3" d="M97.83,11.21c3.52-2.3,7.89-1.21,9.4,2.86.11.31.61.19.5-.14a6.22,6.22,0,0,0-10-2.9c-.1.09,0,.25.13.18Z"/><path class="cls-3" d="M105.94,11.61a4.5,4.5,0,0,1,4.14-1.8c1.8.23,2.56,1.42,3.52,2.76a.22.22,0,0,0,.4-.17c-.23-1.74-2.18-3.05-3.84-3.22a4.58,4.58,0,0,0-4.39,2.29c-.07.11.09.24.17.14Z"/><path class="cls-3" d="M71,34.13c1.86,3.48,7.32,4.26,9.56.7.08-.12-.09-.22-.18-.14-3,2.5-6.64,2.65-9.18-.68a.12.12,0,0,0-.2.12Z"/><path class="cls-3" d="M80.34,34.92a7.09,7.09,0,0,0,9.16,6.72.16.16,0,0,0-.09-.31,7,7,0,0,1-8.85-6.41c0-.13-.22-.14-.22,0Z"/><path class="cls-3" d="M89,40.35c.3,2.68,1.78,5.45,4.46,6.41a4.47,4.47,0,0,0,5.83-2.52.24.24,0,0,0-.43-.18,4.21,4.21,0,0,1-6.27,1.64c-2-1.2-2.73-3.3-3.39-5.38,0-.1-.21-.09-.2,0Z"/><path class="cls-3" d="M98.52,42.83a5.18,5.18,0,0,0,10.16-1.27c0-.26-.4-.33-.46-.07-.51,2-1.55,3.84-3.72,4.38a5.1,5.1,0,0,1-5.77-3.1c0-.13-.26-.08-.21.06Z"/><path class="cls-3" d="M106.62,39.37a4.44,4.44,0,0,0,5.06,3.33c2.94-.31,5.27-2.69,6.55-5.2a.28.28,0,0,0-.49-.29c-1.35,1.77-2.64,3.68-4.86,4.44a4.75,4.75,0,0,1-6-2.37c-.07-.12-.24,0-.22.09Z"/><path class="cls-3" d="M116.27,34.06c1.92,5.06,10.68,5.09,11.75-.62a.21.21,0,0,0-.38-.17c-1.34,2-2.7,3.79-5.32,3.93s-4.4-1.33-5.83-3.24c-.07-.1-.28-.05-.22.1Z"/><path class="cls-3" d="M60.85,42.57c-1.67,2.86,0,7.17,3.49,7.63a.29.29,0,0,0,.16-.56c-3.11-1.24-4.57-3.66-3.52-7a.07.07,0,0,0-.13,0Z"/><path class="cls-3" d="M62.5,49.3c-1.73,4.15,2,8.1,6.18,7.75l-.16-.6-.3.2a.25.25,0,0,0,.19.45l.36-.06c.41-.06.23-.68-.17-.63-4.19.57-6.73-3.26-5.93-7.06a.09.09,0,0,0-.17-.05Z"/><path class="cls-3" d="M66.67,57.09a5.24,5.24,0,0,0,1.68,6.28c1.64,1.19,4.37,1.48,6,.11a.25.25,0,0,0-.24-.41c-1.87.64-3.63,1-5.41-.16a5.26,5.26,0,0,1-1.85-5.77c0-.12-.13-.15-.18,0Z"/><path class="cls-3" d="M71.59,64.5c-1.39,2.57,1.78,4.81,4,5.21a6.45,6.45,0,0,0,4.25-.63c.72-.43,1.15-1.07.39-1.69-.12-.1-.37,0-.3.17.73,1.79-4.23,1.54-4.91,1.35-2-.55-3.72-2.14-3.24-4.33,0-.11-.13-.19-.19-.08Z"/><path class="cls-3" d="M144.31,42.93c-.15,1.72.33,3.1-.62,4.74A5.8,5.8,0,0,1,139,50.4c-.31,0-.32.5,0,.5a6.06,6.06,0,0,0,5-2.78c.85-1.35,1.51-3.86.35-5.21,0,0,0,0-.05,0Z"/><path class="cls-3" d="M139.15,48c-.06,2.82-.65,5.5-3.31,7-.4.23,0,.87.35.61,2.28-1.62,4.27-4.77,3.23-7.65a.14.14,0,0,0-.27,0Z"/><path class="cls-3" d="M136.81,55.08a4.75,4.75,0,0,1-.8,5c-1.32,1.32-2.69,1-4.34,1.11a.26.26,0,0,0-.14.48c1.53,1,4,0,5.07-1.25a4.49,4.49,0,0,0,.48-5.44.15.15,0,0,0-.27.12Z"/><path class="cls-3" d="M132.87,61.62c-.16,1.85-1,3.73-2.9,4.34-1.75.56-3-.24-4.47-1.07a.3.3,0,0,0-.41.41c1.08,1.71,3.8,2,5.5,1.15a4.59,4.59,0,0,0,2.59-4.88c0-.18-.29-.12-.31,0Z"/><path class="cls-3" d="M74,11.74l-.44-.21a.14.14,0,0,0-.16,0,44,44,0,0,0-3,3.54c-.09.12.11.27.21.16.54-.55,1-1.15,1.51-1.73s1.16-1.82,1.83-1.66a.06.06,0,0,0,0-.12Z"/><path class="cls-3" d="M70.67,9.91a3.66,3.66,0,0,0-2.92,3.26.13.13,0,0,0,.26,0,4.1,4.1,0,0,1,2.71-3.12.09.09,0,0,0,0-.17Z"/><path class="cls-3" d="M66.26,8.79a4.3,4.3,0,0,0-2.91,3.33.08.08,0,0,0,.15,0,5.11,5.11,0,0,1,2.8-3.27c.06,0,0-.12,0-.1Z"/><path class="cls-3" d="M61.18,6.8a4.75,4.75,0,0,0-3.32,4,.12.12,0,0,0,.23,0,5.27,5.27,0,0,1,3.13-3.88c.08,0,.05-.16,0-.13Z"/><path class="cls-3" d="M55.35,6.75a4.29,4.29,0,0,0-2.16,4.89c0,.09.2.08.19,0a4.67,4.67,0,0,1,2-4.73c.08,0,0-.17-.08-.13Z"/><path class="cls-3" d="M50.28,7.41a6.77,6.77,0,0,0-1,5.75c0,.09.15.05.14,0a8.64,8.64,0,0,1,.95-5.66c0-.06,0-.11-.09-.06Z"/><path class="cls-3" d="M44.44,9.88a5.64,5.64,0,0,0,.83,6.27c.07.08.21,0,.15-.1a6,6,0,0,1-.86-6.1c0-.08-.08-.15-.12-.07Z"/><path class="cls-3" d="M41.06,12.1a5.17,5.17,0,0,0,1,6.07c.07.06.16,0,.1-.11a5.56,5.56,0,0,1-1-5.92c0-.05-.05-.09-.07,0Z"/><path class="cls-3" d="M37.53,15.56c.11,1,.21,2,.37,3.07,0,.07.13.06.13,0-.09-1-.24-2-.39-3.07,0-.06-.12,0-.11,0Z"/><path class="cls-3" d="M35.78,18.15c.24,1.07.44,2.17.76,3.21a.07.07,0,0,0,.14,0c-.2-1.08-.52-2.14-.8-3.2,0-.07-.12,0-.1,0Z"/><path class="cls-3" d="M34.31,20.87c.41,1.35.78,2.73,1.25,4.06a.05.05,0,1,0,.1,0c-.37-1.36-.84-2.7-1.27-4a0,0,0,0,0-.08,0Z"/><path class="cls-3" d="M33.28,13a2.88,2.88,0,0,0-2.41,3.21c0,.09.15.06.15,0a3,3,0,0,1,2.3-3c.1,0,.06-.17,0-.15Z"/><path class="cls-3" d="M28.82,14.45a3.43,3.43,0,0,0-1,3.31c0,.07.14.06.13,0a3.86,3.86,0,0,1,.95-3.22s0-.13-.08-.08Z"/><path class="cls-3" d="M25.65,15.48c-.35,1-.75,1.92-1,2.9a.08.08,0,0,0,.16.05c.39-.94.64-1.95.94-2.92,0-.06-.08-.09-.1,0Z"/><path class="cls-3" d="M127.68,11.21a5.15,5.15,0,0,1,1.45,1.26,4.09,4.09,0,0,1,.6,1.83.12.12,0,0,0,.24,0,3.18,3.18,0,0,0-2.24-3.23.07.07,0,0,0,0,.14Z"/><path class="cls-3" d="M130.31,10.26a5.25,5.25,0,0,1,1.61,4.2.11.11,0,0,0,.22,0,4.1,4.1,0,0,0-1.75-4.31c-.06,0-.12,0-.08.09Z"/><path class="cls-3" d="M133.58,9.11a6.64,6.64,0,0,1,2.88,4.7c0,.1.17.07.17,0a6,6,0,0,0-3-4.82c-.09-.05-.16.08-.08.14Z"/><path class="cls-3" d="M137.88,8.13a5.25,5.25,0,0,1,3.18,5.63c0,.12.18.14.21,0A4.87,4.87,0,0,0,137.94,8a.08.08,0,0,0-.06.15Z"/><path class="cls-3" d="M145.47,8.07A6.62,6.62,0,0,1,147,13.46c0,.09.13.1.16,0A5.25,5.25,0,0,0,145.56,8a.06.06,0,0,0-.09.09Z"/><path class="cls-3" d="M152.43,9.92a6.7,6.7,0,0,1,1,5.55c0,.14.17.19.23.06a5.62,5.62,0,0,0-1.09-5.73c-.07-.07-.21,0-.15.12Z"/><path class="cls-3" d="M159.78,15a6.53,6.53,0,0,1-2.41,4.35c-.06,0,0,.14.08.1A5.8,5.8,0,0,0,160,15c0-.14-.2-.13-.21,0Z"/><path class="cls-3" d="M163.63,20.8c-.59.94-1.25,1.87-1.76,2.86a.09.09,0,0,0,.16.09c.65-.9,1.19-1.9,1.76-2.85.06-.1-.1-.2-.16-.1Z"/><path class="cls-3" d="M164.75,24.33c-.45.51-.94,1-1.36,1.54,0,0,0,.07.06,0,.48-.47.91-1,1.36-1.52,0,0,0-.1-.06-.06Z"/><path class="cls-3" d="M165,26.82a10.32,10.32,0,0,0-1,.86.08.08,0,0,0,.1.12,12.16,12.16,0,0,0,1-.86c.09-.07,0-.19-.12-.12Z"/><path class="cls-3" d="M165.19,14.58a7.36,7.36,0,0,0,.55,1.41,14.53,14.53,0,0,0,.72,1.55.13.13,0,0,0,.23-.1,12.21,12.21,0,0,0-.61-1.39,7.75,7.75,0,0,0-.77-1.52c-.05,0-.13,0-.12.05Z"/><path class="cls-3" d="M168.34,14.8a16.76,16.76,0,0,0,.31,3.08c0,.09.15.07.15,0a17.67,17.67,0,0,0-.31-3.08.08.08,0,0,0-.15,0Z"/><path class="cls-3" d="M171.14,15.56a2.75,2.75,0,0,1,.5,3c0,.11.13.18.19.08a2.57,2.57,0,0,0-.58-3.16c-.07-.06-.18,0-.11.11Z"/><path class="cls-3" d="M165.51,16.79a4,4,0,0,1,.07,2.83c0,.09.12.16.16.07a3.35,3.35,0,0,0-.09-3c-.05-.1-.18,0-.14.09Z"/><path class="cls-3" d="M113.2,11.27c1.59-1.14,3.16-1.75,5-.61,1.57,1,2.31,2.58,3.48,3.91.21.25.53-.06.41-.32-.86-2-2.72-4.15-4.89-4.65-1.38-.32-3.69,0-4.1,1.6,0,.05,0,.1.08.07Z"/><path class="cls-3" d="M85.62,23.65a2.31,2.31,0,0,0,.53,3.1,2.5,2.5,0,0,0,3.22-.33c.19-.2-.11-.5-.3-.3a2.08,2.08,0,0,1-2.81.21,2.32,2.32,0,0,1-.5-2.62c0-.09-.09-.13-.14-.06Z"/><path class="cls-3" d="M89.49,25a2.48,2.48,0,0,0,2.09,2.34,2.44,2.44,0,0,0,2.67-1.43.16.16,0,0,0-.27-.16c-.65.65-1.19,1.27-2.22,1.2a2.48,2.48,0,0,1-2.12-2c0-.07-.15-.06-.15,0Z"/><path class="cls-3" d="M101.88,23.27a2.71,2.71,0,0,0,2.87,1.42c.91-.17,2.22-1.07,2.12-2.11,0-.12-.17-.22-.27-.11-.59.66-.76,1.38-1.73,1.68a2.6,2.6,0,0,1-2.76-1c-.11-.13-.3,0-.23.17Z"/><path class="cls-3" d="M113.19,27.69a3,3,0,0,0,3.08,1.76,2.67,2.67,0,0,0,2.36-2.08.18.18,0,0,0-.3-.12c-.57.7-.93,1.42-1.89,1.7a2.73,2.73,0,0,1-3-1.39c-.08-.14-.28,0-.21.13Z"/><path class="cls-3" d="M117.28,26.83A2.86,2.86,0,0,0,123,26.4a.17.17,0,0,0-.34,0,2.9,2.9,0,0,1-2.12,2.39,2.8,2.8,0,0,1-3-2,.09.09,0,0,0-.18,0Z"/><path class="cls-3" d="M95.85,35.43a3.31,3.31,0,0,0,2.66,1.5c1.17,0,1.9-1.14,2.91-1.06.58,0,1.3.61,2,.68a4.17,4.17,0,0,0,4.4-2.88c.06-.2-.24-.32-.35-.14-1.42,2.4-3.89,3.24-6.29,1.58a.21.21,0,0,0-.27.07,3,3,0,0,1-4.88.15c-.06-.07-.18,0-.13.1Z"/><path class="cls-3" d="M83.69,32.85c.65,1.64,3.37,2.53,4.62,1,.1-.14,0-.37-.2-.26a2.92,2.92,0,0,1-2.31.63,2.74,2.74,0,0,1-2-1.42c0-.08-.18,0-.15.07Z"/><path class="cls-3" d="M72.38,25.39a2.62,2.62,0,0,0,1.13,2.93c.93.55,2.59.48,3.18-.54a.2.2,0,0,0-.27-.27c-.87.47-1.7,1-2.7.45a2.32,2.32,0,0,1-1.1-2.51c0-.15-.2-.22-.24-.06Z"/><path class="cls-3" d="M90.5,15.32c0,2.42,2.83,2.93,4.17,1.17h-.46c1.08,1.94,4,2.37,5,.06.09-.2-.16-.47-.34-.26-1.19,1.41-3.16,1.79-4.22-.07a.28.28,0,0,0-.46,0c-1.3,1.76-3.13.53-3.47-.94,0-.14-.24-.1-.24,0Z"/><path class="cls-3" d="M81.87,19.41a1.85,1.85,0,0,0,1.76,1.37,1.73,1.73,0,0,0,1.74-1.27c0-.13-.19-.21-.27-.11-.39.44-.6.91-1.25,1A1.66,1.66,0,0,1,82,19.37c0-.11-.21-.07-.17,0Z"/><path class="cls-3" d="M88.67,41.28c-.83.75-2.15,2.33-1,3.43a1.16,1.16,0,0,0,1.84-.25.14.14,0,0,0-.06-.19,1.78,1.78,0,1,0-.71,3.33.13.13,0,0,0,.07-.25,1.32,1.32,0,1,0-1.36,2.23.13.13,0,0,0,.12-.22,3.91,3.91,0,0,1,0-3.89,1.14,1.14,0,0,0-.08-1.87c-.12-.77.85-1.68,1.31-2.15a.12.12,0,0,0-.17-.17Z"/><path class="cls-3" d="M108.9,42.62l.67.34a10.19,10.19,0,0,1,1.7,4.36.13.13,0,0,0,.13.22q2.07-.85,2,1.86a1.83,1.83,0,0,1-1,.79c-.11,0,0,.21.08.19a1.74,1.74,0,0,0,1.25-2.31c-.28-.66-2.06-1.53-2.12-.7,0-.21.43-.6.47-.91a1.37,1.37,0,0,0-.43-1.21,1.45,1.45,0,0,0-2.2.79.14.14,0,0,0,.21.16c1.38-1,1.27-3.67-.8-3.63,0,0,0,0,0,0Z"/><path class="cls-3" d="M115.85,40.47a1.87,1.87,0,0,1,2.29,1.24,1.67,1.67,0,0,1-.73,1.88l-.56.25q-.54-.27-.06-.36c.53-.57,1.88,0,2.18.55a1.77,1.77,0,0,1-1.46,2.5l.09.32a1.77,1.77,0,0,1,2-.05.14.14,0,0,0,.14-.24,2.06,2.06,0,0,0-2.27,0c-.14.08-.09.33.08.32a2.09,2.09,0,0,0,1.68-3.12,2.11,2.11,0,0,0-3.41.16.18.18,0,0,0,.1.27A2.2,2.2,0,0,0,118.59,42a2.18,2.18,0,0,0-2.81-1.71.12.12,0,0,0,.07.23Z"/><path class="cls-3" d="M89,111.73c6.65,13.1,25.5,12.89,32.35.12a.28.28,0,0,0-.49-.29c-7.63,12.37-23.86,12.1-31.59,0a.16.16,0,0,0-.27.16Z"/><path class="cls-3" d="M62.32,32a8,8,0,0,0-2.27,1.78.09.09,0,0,0,.12.14,7.85,7.85,0,0,0,2.18-1.88s0,0,0,0Z"/><path class="cls-3" d="M138.29,31a1.87,1.87,0,0,0,.81.32,6,6,0,0,0,1,.22c.19,0,.2-.25,0-.31A5.89,5.89,0,0,0,139.1,31a1.78,1.78,0,0,0-.79,0,0,0,0,0,0,0,.09Z"/><path class="cls-3" d="M72.6,52.83a1.89,1.89,0,0,0-1.46,2.63c.46,1,2.26,1.64,3,.61.08-.11,0-.26-.17-.23-.84.24-1.81.45-2.35-.48a1.77,1.77,0,0,1,1-2.36c.08,0,.08-.18,0-.17Z"/><path class="cls-3" d="M74.07,55.78a2,2,0,0,0,.61,2.33,1.92,1.92,0,0,0,2.22.15c.12-.09,0-.24-.12-.22a2.12,2.12,0,0,1-2-.28,1.91,1.91,0,0,1-.54-1.93.1.1,0,0,0-.2,0Z"/><path class="cls-3" d="M134.35,50.26a3.21,3.21,0,0,1,.39,2.06,2.64,2.64,0,0,1-1.7,1.74c-.1,0-.1.21,0,.19,1.75-.23,3-2.84,1.39-4.07,0,0-.13,0-.1.08Z"/><path class="cls-3" d="M131.67,60a1.25,1.25,0,0,1-.83.74c-.37.09-.61-.11-1-.1a.12.12,0,0,0-.1.18c.21.36.83.29,1.18.16a1.29,1.29,0,0,0,.85-.92c0-.09-.11-.15-.15-.06Z"/><path class="cls-3" d="M83.06,61.68c.12.74.21,1.49.4,2.22,0,0,.09,0,.08,0-.07-.75-.26-1.49-.4-2.23,0,0-.09,0-.08,0Z"/><path class="cls-3" d="M122.53,63.48a21.71,21.71,0,0,0,0,2.42.07.07,0,1,0,.13,0,19.54,19.54,0,0,0,0-2.42c0-.08-.12-.08-.13,0Z"/><path class="cls-3" d="M89.53,99.69a4.1,4.1,0,0,0-1,7.18c.08,0,.16-.06.1-.13-2.19-2.34-1.75-5.28,1-6.95,0,0,0-.11,0-.1Z"/><path class="cls-3" d="M120.2,98.24a4.07,4.07,0,0,1,2.65,4.5.1.1,0,0,0,.19.05,3.66,3.66,0,0,0-2.83-4.66c-.07,0-.07.09,0,.11Z"/></g></svg>