<svg xmlns="http://www.w3.org/2000/svg" viewBox="0 0 198.43 35.43"><defs><style>.cls-1{fill:#fff;}</style></defs><g id="carracters"><path d="M170.57,10.38l2.48.21c-.06.32-.19.41-.69.52,0,.25-.05.49-.06.74-.06,1.51-.14,3-.19,4.52-.06,1.74-.11,3.48-.14,5.23a25.8,25.8,0,0,0,.07,2.78,4.17,4.17,0,0,0,1.42,2.89,4.12,4.12,0,0,0,2.39.92,9.33,9.33,0,0,0,6.37-2c.46-.34.89-.72,1.32-1.09s.83-.76,1.24-1.14l1,1.31c-.35.36-.71.75-1.1,1.11a12.69,12.69,0,0,1-5.11,3,9.76,9.76,0,0,1-5,.25,5.12,5.12,0,0,1-4.09-4.2,10.85,10.85,0,0,1-.23-2.13c0-1.63,0-3.26,0-4.89s.08-3,.14-4.52c0-1.14.1-2.29.15-3.44A1,1,0,0,1,170.57,10.38Z"/><path class="cls-1" d="M18.75,10.38l2.48.21c-.06.32-.19.41-.69.52,0,.25-.05.49-.06.74-.07,1.51-.14,3-.19,4.52-.06,1.74-.11,3.48-.14,5.23a25.8,25.8,0,0,0,.07,2.78,4.17,4.17,0,0,0,1.42,2.89,4.12,4.12,0,0,0,2.39.92,9.33,9.33,0,0,0,6.37-2c.46-.34.89-.72,1.32-1.09S32.55,24.35,33,24l1,1.31c-.36.36-.71.75-1.1,1.11a12.69,12.69,0,0,1-5.11,3,9.76,9.76,0,0,1-5,.25,5.12,5.12,0,0,1-4.09-4.2,10.85,10.85,0,0,1-.23-2.13c0-1.63,0-3.26.05-4.89s.08-3,.14-4.52c0-1.14.1-2.29.15-3.44A1,1,0,0,1,18.75,10.38Z"/><path d="M168.22,11.2l.13-.16.76.62-.37-3.43c.19-.09.21,0,.22.16l.33,3.13s0,.05,0,.12l.59-.69.16.12-.83,1Z"/></g></svg>