<svg id="illustration" xmlns="http://www.w3.org/2000/svg" viewBox="0 0 198.43 126.71"><defs><style>.cls-1{fill:#586569;}.cls-2{fill:#576f71;}.cls-3{fill:#f8bb70;}.cls-4{fill:#f79776;}.cls-5{fill:#85a6a9;}.cls-6{fill:#ee2d24;}.cls-7{fill:#941a1d;}.cls-8{fill:#404a4d;}.cls-9{opacity:0.46;}.cls-10{fill:#fff;}.cls-11{fill:#6b7cbc;}.cls-12{fill:#a17b48;}.cls-13{fill:#010101;}.cls-14{fill:#231f20;}</style></defs><polygon class="cls-1" points="100.82 46.35 117.66 35.32 133.33 27.67 148.44 44.03 163.53 67.28 129.22 93.05 81.59 125.79 52.54 80.51 65.54 69.93 76.17 61.44 100.82 46.35"/><path class="cls-2" d="M127.55,42,71.06,92.26l3.13,4.33s18.18,2.79,37.75-12.22,19.87-39.69,19.87-39.69Z"/><path class="cls-3" d="M.57,11.21S7,6.18,13,5.56a17.23,17.23,0,0,1,9.78,1.56S23,5.61,26.42,5.56s7.65,3.11,9.83,5.65S46.68,22,46.68,22,57.76,30.28,61,32.18s6.07,4.06,6.91,3.9,9.53-.74,9.53-.74l3.66.42,3.2,1,1.43,2.45-.54,2.13-2.79,2.9-3.82,2.56-4.42,1.32L70,49.42l-5.2-.14-6.21-2.07-4.41-2.82-3.41-2.85L45.6,36.66l-2.89-2.58L39,31.33l-3.87-2-2.71-.42-1.75,4.67-2.28,2.47-1.8,2-2.24,1.2-1.36,2.1L21,42.45H19.35l-1.24.21L16.18,44.6l-1.85.33L13,45.35s-7.88,2-12.44-3"/><path class="cls-4" d="M71.25,35l.43,6.07s3,.5,4.15.6S80,40.6,80,40.6a5.83,5.83,0,0,0,2.41-5.14S73.16,34.87,71.25,35Z"/><path class="cls-5" d="M102.22,50.77S116.93,42,127.55,42c0,0-2.61,26.28-15.06,35.78S85.34,96.68,71.06,92.26c0,0-2.24-16.44,10.58-28.89S102.22,50.77,102.22,50.77Z"/><path class="cls-6" d="M85,50.17S97.52,44,99.81,44.72s-2.89,7-2.89,7-7.26,5.52-13.72,7.94-8.49.65-6.73-1.56A61.5,61.5,0,0,1,85,50.17Z"/><path class="cls-7" d="M90.17,71.29a46.18,46.18,0,0,0,5.77-2.56,72.79,72.79,0,0,0,8-6.36c.91-1,4.35-5.84,4.35-5.84l-2.86-2.05-1.94-1.92-2-2.67-1.45-2L98,50.77l-3.19,2.48L92.4,54.84l-4.27,2.53-2.81,1.41-2.12.89-3,1.19-1.37.21s1.18,1,2.76,2.3a100,100,0,0,1,7.46,6.72"/><path class="cls-8" d="M152.18,52c3.83,4.74,4.48,11.12,9.07,15.41.36.34,1.05-.12.73-.56a42.54,42.54,0,0,1-5.36-9.26c-.92-2.31-1.86-4.74-4.17-5.94a.22.22,0,0,0-.27.35Z"/><path class="cls-8" d="M158,60.92a21.46,21.46,0,0,1,2,2.87c.46.81.69,2.05,1.39,2.65a.42.42,0,0,0,.69-.18c.25-1-.64-2.36-1.2-3.18a8.79,8.79,0,0,0-2.61-2.47c-.2-.13-.37.14-.24.31Z"/><path class="cls-8" d="M161.42,66c-.83.74-1.67,1.45-2.42,2.25-.58.62-1.57,1.36-1.72,2.23a.36.36,0,0,0,.44.43c.9-.24,1.55-1.36,2.13-2.05s1.3-1.71,1.92-2.59c.15-.21-.17-.43-.35-.27Z"/><path class="cls-8" d="M157.31,72a31.25,31.25,0,0,0,5.13-4c.59-.57-.27-1.4-.88-.88a31.21,31.21,0,0,0-4.46,4.66c-.1.14,0,.37.21.26Z"/><path class="cls-8" d="M73.69,97.58c3.34,1.36,7.63.8,11.12.34a51.41,51.41,0,0,0,10.93-2.71A57.32,57.32,0,0,0,114.66,83.9,65.32,65.32,0,0,0,128,67.06c3.7-6.63,6.35-14,5.24-21.68-.14-1-1.59-.55-1.46.41,1.09,7.88-2.15,15.58-6,22.29a60.66,60.66,0,0,1-12.63,15.49A51.82,51.82,0,0,1,84,96.53c-3.39.37-6.94-.11-10.27.59-.25,0-.19.38,0,.46Z"/><path class="cls-8" d="M132.28,49.74h-.19s0,.06,0,.06h.19c.06,0,.06-.09,0-.08Z"/><path class="cls-8" d="M132.12,49.58l-.19-.33a.09.09,0,0,0-.16,0c-1,2.76-1.39,5.79-2.23,8.61s-2,5.58-3,8.37c-.11.28.35.48.48.21A54.51,54.51,0,0,0,130.13,58c.45-1.5.84-3,1.18-4.53.06-.28,1-3.64.76-3.89,0,0,.07,0,.05,0Z"/><path class="cls-8" d="M78.31,97.92a.05.05,0,0,0,0-.1.05.05,0,1,0,0,.1Z"/><path class="cls-8" d="M90.54,71.77c3.8,0,7.91-2.54,10.87-4.76a27.39,27.39,0,0,0,8-9.7c.37-.72-.72-1.36-1.08-.63a28.39,28.39,0,0,1-7.65,9.42c-3.17,2.52-6.72,3.52-10.27,5.28-.19.09-.09.4.11.39Z"/><path class="cls-8" d="M108.21,57.74a2,2,0,0,0,.91-.44A5.1,5.1,0,0,0,110.56,54c0-.54-.88-.74-1-.13a7.65,7.65,0,0,1-.56,2.11,8,8,0,0,1-.54.84,7,7,0,0,0-.4.76c-.06.1,0,.25.16.2Z"/><path class="cls-8" d="M91.63,71.41a10.71,10.71,0,0,0-2.25.26c-.83.13-1.66.24-2.48.42s-.46,1.39.34,1.22A18.13,18.13,0,0,0,91.79,72c.31-.15.14-.59-.16-.6Z"/><path class="cls-8" d="M129.87,47.87c-.44.85-.29,2-.6,2.9s-1.13,1.91-1.55,2.95c-.06.15.15.29.28.21a5.11,5.11,0,0,0,1.76-2.83c.29-.92.7-2.38.14-3.23t0,0Z"/><path class="cls-8" d="M129.16,47.94a43.73,43.73,0,0,1-.55,4.42c-.34,1.32-1.13,2.52-1.24,3.87,0,.5.57.62.89.37,2-1.6,2.54-6.32,1.85-8.66-.13-.42-.87-.5-1,0Z"/><g class="cls-9"><path class="cls-10" d="M62.08,78.76c1.59-1.34,3-2.94,4.55-4.32,1.4-1.23,3.24-2.3,4.36-3.8a.47.47,0,0,0-.52-.68c-1.76.65-3.35,2.37-4.65,3.67a24,24,0,0,0-4.08,4.87.22.22,0,0,0,.34.26Z"/></g><g class="cls-9"><path class="cls-10" d="M120.25,39.73c1.66-.76,3.21-1.79,4.84-2.64,1.43-.74,3.15-1.26,4.37-2.31.27-.23,0-.57-.31-.53-1.67.24-3.34,1.41-4.78,2.26a23.75,23.75,0,0,0-4.31,3c-.14.13,0,.32.19.25Z"/></g><path class="cls-11" d="M119,49.51a50.31,50.31,0,0,1-1.69,8.25c-1,3-2.81,5.3-4.38,7.95-.27.46.33.84.7.54,4.39-3.56,7-11.22,5.92-16.74a.29.29,0,0,0-.55,0Z"/><path class="cls-11" d="M77.27,75.56c-1.64,3.65-1.47,9,3.35,9.89,2.69.47,5.68-.71,8.11-1.73s5-2.32,6.71-4.42a.43.43,0,0,0-.52-.67c-3.51,1.57-6.47,3.79-10.23,4.89-2.47.72-5.44,1.29-6.85-1.57-1-2-.19-4.18,0-6.23a.32.32,0,0,0-.59-.16Z"/><path class="cls-10" d="M125,63a15.52,15.52,0,0,0-1,2.25c-.28.67-.61,1.31-.83,2,0,.06.07.09.1,0,.43-.69.72-1.46,1.09-2.19a13,13,0,0,0,.93-2A.16.16,0,0,0,125,63Z"/><path class="cls-10" d="M122.59,69h0s0,0,0,0Z"/><g class="cls-9"><path class="cls-10" d="M87.29,109.07c10.88-6.46,21.21-14,31.63-21.21C124,84.33,128.94,80.55,134,77c5.36-3.72,10.76-7.38,16.13-11.09.4-.28,0-.94-.39-.67-5.47,3.53-10.89,7.17-16.31,10.78s-10.71,6.81-15.94,10.42c-10.33,7.11-20.9,14.22-30.5,22.29-.18.16.06.45.26.33Z"/></g><path class="cls-10" d="M73,37.35a11,11,0,0,0,4.85-.22.27.27,0,0,0-.07-.53,11.09,11.09,0,0,0-4.78.56c-.09,0-.11.17,0,.19Z"/><path class="cls-10" d="M81.32,35.34a8.63,8.63,0,0,1-1.54,5c-.17.25.24.57.43.33a6.8,6.8,0,0,0,1.53-5.38c0-.25-.41-.17-.42.06Z"/><path class="cls-10" d="M3.93,9.79c1.5-.39,2.84-1.2,4.3-1.73a20.84,20.84,0,0,1,5.57-1.2c3.4-.28,6.35.85,9.64,1.16a.38.38,0,0,0,.27-.64C19,3.69,7.49,4.69,3.71,9.43a.22.22,0,0,0,.22.36Z"/><path class="cls-10" d="M28,6.58c.75.75,2.05,1,3,1.5A18.83,18.83,0,0,0,33.75,10c.22.09.45-.17.38-.38-.34-1.16-1.61-1.91-2.62-2.46s-2.37-1.26-3.43-.86a.18.18,0,0,0-.08.3Z"/><path class="cls-10" d="M50.85,31.15A6.49,6.49,0,0,0,52.44,30,17,17,0,0,0,54,28.61.5.5,0,0,0,54,28a.55.55,0,0,0-.17-.17.46.46,0,0,0-.48,0,10.34,10.34,0,0,0-2.84,3,.23.23,0,0,0,.31.31Z"/><path class="cls-10" d="M50.49,29.38c.37-.31.75-.59,1.1-.92s.59-.5.56-.91a.26.26,0,0,0-.26-.27c-.42,0-.61.32-.85.64s-.55.83-.82,1.25c-.11.17.13.32.27.21Z"/><path class="cls-10" d="M48.33,28.4A3.61,3.61,0,0,0,50,26.88a.2.2,0,0,0-.27-.26,3.59,3.59,0,0,0-1.52,1.63.11.11,0,0,0,.15.15Z"/><path class="cls-10" d="M57,30.44c.8,1.45,2.51,2.19,4,2.87a10.15,10.15,0,0,0,4.86,1.34.28.28,0,0,0,.14-.52c-1.44-.86-3.21-1.16-4.74-1.86-1.37-.63-2.63-1.67-4.13-2a.08.08,0,0,0-.09.12Z"/><path class="cls-10" d="M82.5,36.8a3.09,3.09,0,0,1,1.25,1.62,11.54,11.54,0,0,1,0,1.76c0,.21.31.22.44.11.62-.51.45-1.68.19-2.34a2.61,2.61,0,0,0-1.71-1.68c-.34-.09-.47.33-.22.53Z"/><path class="cls-10" d="M83.34,36.38c-.15.41.48.91.64,1.26a2.28,2.28,0,0,1,.19.85c0,.3-.1.55.08.81a.36.36,0,0,0,.38.15c.82-.31.53-1.65.23-2.25a2,2,0,0,0-.82-.91c-.2-.1-.6-.19-.7.09Z"/><path class="cls-10" d="M18.44,10.07a9.48,9.48,0,0,1,2.32,0,18.61,18.61,0,0,0,1.86.54.22.22,0,0,0,.19-.32C22,9,19.54,9,18.34,9.71a.19.19,0,0,0,.1.36Z"/><path class="cls-10" d="M12.76,15.8a2,2,0,0,1,1.61-.69,2.73,2.73,0,0,1,1.44.61.47.47,0,0,0,.64-.65,2.24,2.24,0,0,0-2.22-.87,2.32,2.32,0,0,0-1.89,1.35.24.24,0,0,0,.42.25Z"/><path class="cls-10" d="M8.61,20.57a5.21,5.21,0,0,0,1.47,1.49c.44.37.93,1,1.55,1a.29.29,0,0,0,.27-.36c-.12-.6-.85-.94-1.31-1.29A5.34,5.34,0,0,0,8.82,20.3a.19.19,0,0,0-.21.27Z"/><path class="cls-12" d="M57.17,45.66c4.83,3.12,12.62,3.73,17.94,1.58A.15.15,0,0,0,75,47a39.46,39.46,0,0,1-9,.6,41.64,41.64,0,0,1-8.72-2.22c-.19-.06-.29.21-.13.32Z"/><path class="cls-12" d="M71,41.2c2.33,2.36,7.56,1.64,10.1.06.19-.12.07-.46-.16-.38A13.92,13.92,0,0,1,75.69,42C74,42,72.6,41.3,71,41.18a0,0,0,0,0,0,0Z"/><path class="cls-12" d="M70.51,35.78a.07.07,0,1,0,0-.13.07.07,0,0,0,0,.13Z"/><path class="cls-12" d="M70.28,35.66a8.78,8.78,0,0,0,.76,5.7c.14.3.57,0,.44-.25a11.44,11.44,0,0,1-.81-5.4c0-.22-.34-.27-.39-.05Z"/><path class="cls-12" d="M70.5,35.91A28.38,28.38,0,0,0,70.62,41a.31.31,0,0,0,.61,0,28.11,28.11,0,0,0-.3-5.19c0-.26-.41-.17-.43.06Z"/><path class="cls-12" d="M60.24,37.23c1.3-.14,2.57-.47,3.86-.67a35.09,35.09,0,0,0,4.37-.62c.17,0,.2-.33,0-.36a17.41,17.41,0,0,0-8.28,1.23c-.2.08-.21.44.05.42Z"/><path class="cls-12" d="M21.75,25.52C24.56,28.79,28,33,25.29,37.44a.28.28,0,0,0,.49.29c3-4.52-.52-9.29-3.63-12.61-.25-.27-.63.13-.4.4Z"/><path class="cls-12" d="M25.31,31.34c0,.86.12,1.71.2,2.56a8.45,8.45,0,0,0,.34,2.25c.06.15.34.21.37,0a9.48,9.48,0,0,0-.17-2.43c-.1-.81-.18-1.63-.34-2.43a.2.2,0,0,0-.4.05Z"/><path class="cls-12" d="M17.39,31.31c.53,1.67,2,2.88,2.55,4.58a5,5,0,0,1-1.33,5.75c-.22.17.08.56.31.39,3.5-2.63,2-8.68-1.47-10.77,0,0-.08,0-.06,0Z"/><path class="cls-12" d="M19.11,41.33A3.49,3.49,0,0,0,20.61,39c.12-.74.13-2-.55-2.43a.22.22,0,0,0-.33.19c0,.7.41,1.3.35,2.05A4,4,0,0,1,19,41.2c-.06.07,0,.18.09.13Z"/><path class="cls-12" d="M19.59,36.1c0,.61.07,1.22.05,1.83a4.72,4.72,0,0,0,0,1.63.18.18,0,0,0,.29.08,2.47,2.47,0,0,0,.38-1.71A4.49,4.49,0,0,0,19.92,36c-.08-.17-.32-.07-.33.09Z"/><path class="cls-12" d="M28.12,11.33c1.6,5.6,4.13,10.82,4.67,16.7,0,.3.48.31.47,0a42.45,42.45,0,0,0-4.63-16.92.28.28,0,0,0-.51.22Z"/><path class="cls-12" d="M9.45,19.38a4.31,4.31,0,0,1,1.23.79c.27.24.5.65.86.72a.19.19,0,0,0,.24-.13c.12-.47-.34-.88-.67-1.14A3.17,3.17,0,0,0,9.56,19a.21.21,0,0,0-.11.4Z"/><path class="cls-12" d="M14.23,12.94c.1.23.26.27.48.38a4.5,4.5,0,0,1,.87.57,3.86,3.86,0,0,1,.67.67c.18.24.28.49.59.54a.32.32,0,0,0,.37-.21c.26-.62-.73-1.41-1.19-1.7s-1.38-.72-1.79-.29c0,0,0,0,0,0Z"/><path class="cls-12" d="M17.45,8.58a3.74,3.74,0,0,0-.8.4c-.13.09-.06.34.12.28a4.27,4.27,0,0,0,.8-.4c.14-.08,0-.35-.12-.28Z"/><path class="cls-12" d="M51.06,27.1a8.09,8.09,0,0,0-1,1.11,5.94,5.94,0,0,0-.89,1.29c-.1.22.12.54.38.37a6.24,6.24,0,0,0,1.1-1.08,8.22,8.22,0,0,0,1-1.25.36.36,0,0,0-.57-.44Z"/><path class="cls-12" d="M50.63,31.42a19.78,19.78,0,0,0,3.17-3.1c.22-.29-.12-.66-.4-.41a20.09,20.09,0,0,0-2.94,3.38c-.07.11.09.21.17.13Z"/><path class="cls-12" d="M47.44,28.88a21.7,21.7,0,0,0,3.15-2.67c.77-.8-.38-1.9-1.21-1.2a21.56,21.56,0,0,0-2.76,2.81c-.44.55.14,1.54.82,1.06Z"/><path class="cls-12" d="M48,30.22a42.63,42.63,0,0,0,4.4-3,.83.83,0,0,0,.22-.82.84.84,0,0,0-1.4-.36,42.32,42.32,0,0,0-3.44,3.89c-.12.15,0,.4.22.29Z"/><path class="cls-12" d="M49.51,31.16c.66-.49,1.32-1,2-1.49s1.34-1.27,2.08-1.8a.84.84,0,1,0-1-1.33,1.34,1.34,0,0,0-.49.69.45.45,0,0,0,.11.43,1.53,1.53,0,0,0,1,.32l-.73-1.27c-.52.75-1.19,1.41-1.76,2.11s-1,1.31-1.47,2c-.16.22.15.53.36.37Z"/><path class="cls-13" d="M77.11,60.14c2.32,2,4.94,3.72,7.26,5.78s4.25,4.56,6.57,6.6c.18.15.47,0,.34-.27-1.6-2.6-4.17-4.8-6.45-6.79a32.85,32.85,0,0,0-7.65-5.41c-.05,0-.12,0-.07.09Z"/><path class="cls-13" d="M78,61.61a43.07,43.07,0,0,0,19.41-10c1.5-1.33,4.62-3.68,3.41-6.11-1-2.08-3.9-.86-5.51-.38A37.8,37.8,0,0,0,77.77,56c-1.26,1.42-3.18,3.83-1.66,5.76a1.88,1.88,0,0,0,3.26-.33c.1-.23-.23-.43-.34-.2q-4.16-.65-2.3-3.12a15.73,15.73,0,0,1,1.38-1.76,30.26,30.26,0,0,1,2.23-2.3A36,36,0,0,1,86,49.78a38.55,38.55,0,0,1,5.66-2.87c1.66-.68,4.29-2,6.11-2,6.6.31-.45,6.19-1.91,7.38A46.72,46.72,0,0,1,90.6,56a52.51,52.51,0,0,1-12.66,5.31.14.14,0,0,0,.07.26Z"/><path class="cls-13" d="M99.75,46.58a19.49,19.49,0,0,0,9.14,10.61c.34.19.65-.34.31-.53a21.25,21.25,0,0,1-9.14-10.22c-.08-.18-.38,0-.31.14Z"/><path class="cls-13" d="M110.05,52.82C105.27,62.55,97.22,69.56,86.53,72c-.37.08-.21.64.16.56,10.27-2.14,19.86-9.69,23.59-19.61a.13.13,0,0,0-.23-.1Z"/><path class="cls-13" d="M77.47,94.27c27.09-1.25,49.6-25.13,50.89-51.87,0-.39-.57-.39-.6,0a56.55,56.55,0,0,1-15.45,35.21C103,87.22,90.6,92.43,77.47,94.1c-.11,0-.12.18,0,.17Z"/><path class="cls-13" d="M127.74,41.91a44.32,44.32,0,0,0-27.53,9.91c-.15.11,0,.36.2.25a52.76,52.76,0,0,1,27.33-10c.11,0,.12-.18,0-.18Z"/><path class="cls-13" d="M82.62,64.53A33.84,33.84,0,0,0,73.4,77.41c-1.83,4.34-3.53,10.09-2.75,14.86a.16.16,0,0,0,.3,0c.34-2.35.27-4.73.7-7.08a36.26,36.26,0,0,1,2.23-7.58,42.34,42.34,0,0,1,8.81-13,0,0,0,0,0-.07-.07Z"/><path class="cls-13" d="M70,91.78A11.67,11.67,0,0,0,81.74,94.7a.16.16,0,0,0-.08-.3,15.36,15.36,0,0,1-11.52-2.77c-.1-.07-.19.07-.12.15Z"/><path class="cls-13" d="M70.42,93.08s0-.06,0-.06a0,0,0,0,0,0,.06Z"/><path class="cls-13" d="M70.5,93.13a1.26,1.26,0,0,0,.4-.46.07.07,0,0,0-.1-.1,1.26,1.26,0,0,0-.46.4.11.11,0,0,0,.16.16Z"/><path class="cls-13" d="M70.53,92.43a45,45,0,0,0,3.79,5,.21.21,0,0,0,.32-.25,45.88,45.88,0,0,0-3.86-4.94c-.12-.14-.36,0-.25.19Z"/><path class="cls-13" d="M74.19,96.84c14.61.5,29.13-4.23,40.05-14.11C124.94,73,131.18,59,132.06,44.68c0-.32-.48-.32-.5,0-.87,14.18-7.06,28.11-17.68,37.7-10.82,9.78-25.2,14.46-39.69,14-.32,0-.32.49,0,.5Z"/><path class="cls-13" d="M127.73,42.76c.15.24.24.23.52.34a6.34,6.34,0,0,1,2.29,1.5,3.89,3.89,0,0,0,.84.83.16.16,0,0,0,.23-.18c-.12-.77-1.11-1.46-1.74-1.85s-1.56-1-2.13-.66v0Z"/><path class="cls-13" d="M88.69,50.19c-2.75,0-5.77,1.75-6.41,4.6,0,.17.21.29.29.12,1.26-2.48,3.2-4.37,6.12-4.53a.1.1,0,0,0,0-.19Z"/><path class="cls-13" d="M91.54,51.48a9.18,9.18,0,0,1-6.21,4,.16.16,0,0,0,0,.32,7.87,7.87,0,0,0,6.34-4.24.1.1,0,0,0-.17-.1Z"/><path class="cls-13" d="M86.6,52.76c-.69.2,0,1.32.44.84a.09.09,0,0,0-.11-.14c-.25.14-.49-.37-.26-.45a.13.13,0,0,0-.07-.25Z"/><path class="cls-13" d="M84.58,61c-.11-.15-.21-.31-.31-.46s-.48.08-.23.23l.46.31a.06.06,0,1,0,.08-.08Z"/><path class="cls-13" d="M81,60.94a24.23,24.23,0,0,0,4.28,3.2.12.12,0,0,0,.15-.18,25,25,0,0,0-4.25-3.26c-.14-.09-.31.13-.18.24Z"/><path class="cls-13" d="M84.88,59.07a21.18,21.18,0,0,0,3.32,3,.15.15,0,0,0,.18-.23A20.72,20.72,0,0,0,85,58.9c-.1-.07-.21.08-.13.17Z"/><path class="cls-13" d="M88.24,57.37a73.77,73.77,0,0,0,6.6,6.27c.15.12.35-.07.21-.21a71.14,71.14,0,0,0-6.66-6.21.11.11,0,0,0-.15.15Z"/><path class="cls-13" d="M91.57,55.7a40,40,0,0,0,2.85,3,.13.13,0,0,0,.18-.18,40,40,0,0,0-3-2.85,0,0,0,0,0-.06.06Z"/><path class="cls-13" d="M94.07,54a62.65,62.65,0,0,0,6.66,5.85c.16.11.34-.14.21-.27a60.54,60.54,0,0,0-6.74-5.75c-.1-.08-.22.08-.13.17Z"/><path class="cls-13" d="M97.36,52a26.69,26.69,0,0,0,2.86,3,.15.15,0,0,0,.21-.2,25.79,25.79,0,0,0-3-2.86.07.07,0,0,0-.11.1Z"/><path class="cls-13" d="M98.6,51.62a19,19,0,0,0,2.92,2.05.09.09,0,0,0,.11-.14,17.28,17.28,0,0,0-2.91-2.11c-.13-.09-.23.11-.12.2Z"/><path class="cls-13" d="M81.61,63.47c-9.16,5.71-12.79,18.82-11,28.92.1.61,1,.35.94-.26A29.35,29.35,0,0,1,73,76.66c2-5.14,5.22-8.84,9-12.73a.3.3,0,0,0-.36-.46Z"/><path class="cls-13" d="M103,51.05a44.94,44.94,0,0,1,24.69-8.44.49.49,0,0,0,0-1,41.6,41.6,0,0,0-25.07,8.92c-.28.22.09.71.38.5Z"/><path class="cls-13" d="M40.62,16.09c3.31,3.91,7.8,7.07,11.94,10a114.53,114.53,0,0,0,14,8.64c.25.13.48-.25.22-.39a123.12,123.12,0,0,1-13.55-8.45C48.88,22.78,45.1,19,40.86,15.78c-.19-.14-.37.15-.24.31Z"/><path class="cls-13" d="M60.18,36.77a76.32,76.32,0,0,1,22.61-1.39c.32,0,.32-.47,0-.5a77.17,77.17,0,0,0-22.74,1.4c-.31.07-.18.55.13.49Z"/><path class="cls-13" d="M85.88,39.44A21.85,21.85,0,0,1,56.3,44.8c-8.29-5.43-13.9-14.93-24-17.31-.32-.07-.45.41-.14.48,11.74,2.76,17.36,15.15,28.22,19.56,9.23,3.73,20.17.07,26-7.84.19-.26-.25-.51-.43-.25Z"/><path class="cls-13" d="M71.14,35.32c.06,1.38.12,2.76.27,4.15,0,.32.54.33.51,0-.13-1.41-.35-2.79-.57-4.18,0-.12-.22-.09-.21,0Z"/><path class="cls-13" d="M71.63,41.27c2.81,1.1,7.21,1.17,9.7-.75a.16.16,0,0,0-.12-.29,36.28,36.28,0,0,1-4.68,1.13,16.91,16.91,0,0,1-4.8-.46.19.19,0,0,0-.1.37Z"/><path class="cls-13" d="M80.1,41.68c2-1.7,2.48-3.89,2.71-6.36,0-.53-.89-.49-.77.1.45,2.19-.7,4.51-2.08,6.12a.1.1,0,0,0,.14.14Z"/><path class="cls-13" d="M82.87,35.56A3.44,3.44,0,0,1,85,40.47c-.12.26.19.56.42.32,1.74-1.8,0-5.58-2.51-5.43-.11,0-.14.17,0,.2Z"/><path class="cls-13" d="M50.76,25.16a19,19,0,0,0-2.08,1.47,15,15,0,0,0-2.13,1.84.19.19,0,0,0,.23.29,12.69,12.69,0,0,0,2-1.54,19.57,19.57,0,0,0,2.06-1.9.1.1,0,0,0-.12-.16Z"/><path class="cls-13" d="M49.63,28a5.19,5.19,0,0,0-1,1.39c-.14.29.29.55.43.26A4.93,4.93,0,0,1,50,28.36c.23-.23-.13-.59-.35-.36Z"/><path class="cls-13" d="M52.47,26.61a5.1,5.1,0,0,0-1.62.51c-.29.14,0,.57.25.43a4.7,4.7,0,0,1,1.51-.45c.31-.05.18-.53-.14-.49Z"/><path class="cls-13" d="M54.55,27.34A38.35,38.35,0,0,0,49.92,31a.21.21,0,0,0,.26.33,39.26,39.26,0,0,0,4.55-3.83c.12-.11-.06-.28-.18-.18Z"/><path class="cls-13" d="M50.36,28l-2.13,2.14c-.23.22.12.58.35.35l2.13-2.13a.25.25,0,0,0-.35-.36Z"/><path class="cls-13" d="M28.39,10.8c.47,5.3,3.61,10.12,3.73,15.44a13.13,13.13,0,0,1-7.95,12.05c-.29.13,0,.56.26.43a13.7,13.7,0,0,0,8-10.38c.94-6-3-11.63-3.58-17.54,0-.32-.53-.32-.5,0Z"/><path class="cls-13" d="M38.59,12.91c-2.93-4.82-10.19-11-15.92-6.75a.23.23,0,0,0,.24.4,9.73,9.73,0,0,1,9.27.87c2.4,1.54,4,3.81,6.14,5.68.14.12.37,0,.27-.2Z"/><path class="cls-13" d="M25.6,10.39a6.52,6.52,0,0,0-8.15-1.63c-.35.2-.12.79.27.65a8,8,0,0,1,7.72,1.14.12.12,0,0,0,.16-.16Z"/><path class="cls-13" d="M21.76,24.77c1.84,2.91,3.63,6.09,3.64,9.64,0,4-2.91,7.84-7.22,7.24-.32,0-.45.44-.14.49a6.75,6.75,0,0,0,7.37-4.74c1.6-4.51-.87-9.16-3.21-12.89-.17-.27-.61,0-.44.26Z"/><path class="cls-13" d="M17.53,30.36c.65,2.85,1.86,5.69,1.29,8.67-.62,3.2-2.77,4.85-5.87,5.33-.25,0-.22.4,0,.46,2.72.78,5.26-1.74,6.2-4.09,1.35-3.36.19-7.39-1.32-10.5-.09-.17-.34-.05-.3.13Z"/><path class="cls-13" d="M17.76,17c.35-3.33-3.93-4.94-6.16-2.75-.24.24.07.67.37.48,2.34-1.45,4.74-.21,5.38,2.33.06.25.39.17.41-.06Z"/><path class="cls-13" d="M13.38,24.2c-.19-2.48-3.47-5.7-6.1-5.13a.28.28,0,0,0-.06.51,26.31,26.31,0,0,1,3.28,1.53,11.62,11.62,0,0,1,2.59,3.16c.08.12.3.09.29-.07Z"/><path class="cls-13" d="M18.94,4.9C16.27,4,11.94,4.23,9.62,6a.25.25,0,0,0,.19.46c1.44-.24,2.78-.86,4.23-1.09a33,33,0,0,1,4.87-.15.14.14,0,0,0,0-.28Z"/><path class="cls-13" d="M16.58,5.15A19.06,19.06,0,0,0,3.8,8.05c-.27.18,0,.61.25.44A18.59,18.59,0,0,1,16.58,5.65c.32,0,.32-.46,0-.5Z"/><path class="cls-13" d="M61,26.07a41.05,41.05,0,0,0,9,8.12c.19.12.41-.17.24-.31-3.11-2.6-6.13-5.18-9.07-8-.1-.1-.24.05-.15.16Z"/><path class="cls-13" d="M64.89,24.65c3.41,4.13,7,8.26,10.77,12.06.17.17.4-.07.25-.25-3.37-4.16-7.08-8.17-10.83-12-.13-.12-.3.06-.19.2Z"/><path class="cls-13" d="M68.49,23.54c4,4.28,8.15,8.54,12.51,12.41a.19.19,0,0,0,.27-.27C77.34,31.37,73,27.23,68.71,23.32a.16.16,0,0,0-.22.22Z"/><path class="cls-13" d="M59.9,28.34A122.74,122.74,0,0,0,69,39.21c.17.18.49-.06.34-.26a122.93,122.93,0,0,0-9.22-10.79c-.11-.11-.33,0-.23.18Z"/><path class="cls-13" d="M54,82c2.13,7.82,7.65,14.64,12.17,21.2l7.71,11.17c2.38,3.45,4.61,7.82,7.64,10.72a.23.23,0,0,0,.37-.28,34.33,34.33,0,0,0-3.68-5.69l-3.86-5.59L66.9,102.78c-4.68-6.79-9.1-13.39-12.46-21-.12-.26-.53-.07-.46.19Z"/><path class="cls-13" d="M53.81,80.59c4.07-3.57,8-7.26,12.19-10.74s8.62-6.56,12.74-10c.16-.14,0-.4-.22-.29A121.89,121.89,0,0,0,66,69.22a158.31,158.31,0,0,0-12.38,11.2.12.12,0,0,0,.17.17Z"/><path class="cls-13" d="M99.56,47.48a231.56,231.56,0,0,1,34.22-20c.28-.13.07-.62-.21-.5A140.71,140.71,0,0,0,99.42,47.3c-.1.08,0,.25.14.18Z"/><path class="cls-13" d="M133.16,27.84c2.65,3.33,6,6.17,8.88,9.35s5.54,6.48,8.08,9.9c5,6.74,8.81,14,13.11,21.18.21.35.84.12.68-.29-3.22-7.84-8.42-15.3-13.5-22.05q-3.66-4.86-7.72-9.39c-2.81-3.13-5.76-6.68-9.24-9.08-.24-.16-.44.18-.29.38Z"/><path class="cls-13" d="M163.36,67.1Q123.64,98,81.46,125.58c-.27.17,0,.61.25.43q42.21-27.56,82-58.56c.25-.19-.1-.54-.35-.35Z"/><path class="cls-14" d="M159,68.49a1.09,1.09,0,0,0,.66-.32.31.31,0,0,0-.3-.52,1.79,1.79,0,0,0-.45.19.31.31,0,0,0,.23.56,2,2,0,0,0,.46-.19l-.38-.48a1,1,0,0,0-.35.6c0,.07,0,.17.13.16Z"/><path class="cls-14" d="M150.72,73.84a.51.51,0,1,0,.08,1,.79.79,0,0,0,.27-1.45.41.41,0,0,0-.48.06c-.19.23-.62.65-.29,1s.68-.17.85-.39l-.48.06c0,.1,0,.19.18.25.22-.14.15-.53-.13-.51Z"/><path class="cls-14" d="M131.93,87.81a.43.43,0,0,0-.82-.16c-.26.53.42.83.82.66l-.48-.12c.53.69,1.79,0,1.32-.77s-1.89-.13-1.3.58a.32.32,0,0,0,.38,0,.5.5,0,0,0,.2-.15h.09c0-.11-.06-.15-.14-.13a.36.36,0,0,0-.43-.06c0,.16.1.22.22.21a.11.11,0,0,0,.14-.1Z"/><path class="cls-14" d="M114.32,100.2a1.13,1.13,0,0,0-.86.8.39.39,0,0,0,.1.4,1.27,1.27,0,0,0,1.17.32.47.47,0,0,0,.34-.33,1,1,0,0,0-.59-1.17,1,1,0,0,0-1.22.5.5.5,0,0,0,.07.6.47.47,0,0,0,.43.15,1.75,1.75,0,0,0,.37-.21l.35-.46a.38.38,0,0,1-.42,0l.18.46a.64.64,0,0,1,.35-.39c.37-.2.1-.7-.27-.63Z"/><path class="cls-14" d="M92.3,116.24a1,1,0,0,0,1.41-.92.46.46,0,0,0-.22-.38c-.58-.28-1.46,0-1.4.79,0,.42.64.68.87.24,0-.08.08-.25.2-.23l-.31-.3c.07.25-.23.35-.42.32s-.32.35-.13.48Z"/><path class="cls-14" d="M74.52,111.27a.81.81,0,0,0,1.44-.08.73.73,0,0,0-1.08-.93c-.54.31-.07,1,.47.8a.46.46,0,0,1,.26,0l-.36-.2-.32.1c-.21-.2-.59.07-.41.32Z"/><path class="cls-14" d="M62.4,92.91a.75.75,0,0,0,.84-1.2c-.53-.57-1.66,0-1.05.65.27.31.7,0,.63-.36v.08l-.24.18c.11-.05.1,0,0,.1-.36-.12-.5.42-.16.55Z"/><path class="cls-14" d="M56.28,81c-.06,1,1.53,1.27,2,.44a.56.56,0,0,0-.08-.64,1,1,0,0,0-1.54,0c-.43.56.33,1.36.8.8,0,0,0,0,0-.06L57.3,81c0,.18-.35,0-.39-.11a.32.32,0,0,0-.63.08Z"/><path class="cls-14" d="M131.78,30.54a1,1,0,0,0-.7.8.7.7,0,0,0,.46.81.78.78,0,0,0,.81-.18.7.7,0,0,0,0-.91.59.59,0,0,0-.66-.27l-.08,0a.62.62,0,0,0-.43.56.64.64,0,0,0,.5.67.45.45,0,0,0,.51-.21.33.33,0,0,0,.06-.22c0,.2-.48.4-.05.21l-.63-.08-.06-.08.05-.4c.28.22.49.21.62,0,.29-.28,0-.89-.42-.72Z"/><path class="cls-14" d="M145.63,45.74c-.49.27-.73,1.17-.08,1.42a1.06,1.06,0,0,0,1.35-1,1,1,0,0,0-1.47-.84.89.89,0,0,0,.42,1.63c.43,0,.6-.47.45-.8s-.45.12-.63.12l.32.13a.32.32,0,0,1,0-.33.25.25,0,0,0-.34-.34Z"/><path class="cls-14" d="M155.62,63.14q-.18.38-.33.75a.4.4,0,0,0,.27.49c.67.25,2.05-.5,1.42-1.28a1,1,0,0,0-1.69.56c-.07.62.91.71,1.07.14.07-.26,0,.08-.07,0l-.13-.47a.43.43,0,0,1-.49.28l.4.4c0-.24,0-.48,0-.72s-.38-.38-.49-.14Z"/></svg>