<svg id="illustration" xmlns="http://www.w3.org/2000/svg" viewBox="0 0 198.43 128.75"><defs><style>.cls-1{fill:#b57c3d;}.cls-2{fill:#7d5526;}.cls-3{fill:#621e10;}.cls-4{fill:#fff;}.cls-5{fill:#010101;}</style></defs><path class="cls-1" d="M118.85,4l.32,1.19,1,1.17,2.92,2.3L127,13.09l1.82,3.19,1.59,4,1.72,5.56,1,3.67.48,2.88-.2,1.82,0,1.37.43,1.93,1,4.78.22,9.44-.65,10.71L132.53,70l-2.35,7.28L126.78,84,124,90.09l-3.11,5.53-3.17,3.61-5,4.21-1.75,2.27-2.36,2.22-3.38,2.29-2.72,1.37-2.54,1.06-2.76.84-2.42.5-1.65.66-2,.82L88,116.55l-3.92.06L78,115.82l-5.17-1.62-2.71-2.12-.62-2.31,1.32-3.14L72,102l-.66-2-.67-1.91-.83-1.27L68.2,94.85,66.68,92l-.62-2.19-2.33-.88.29-.82-.56-1-1.74-1.85-.5-1V81.71l.69-2.32.81-.59,1.85-.4,3.53-1,1.77-1.19L71,74.83l.33-1.69.24-2.39.66-1.83.24-1.22-.83-4.11-.41-2.15-.45-1.81-.58-1.2-.37-1L71,56.25l2.15-1.39.62-1.17,1.5-.75,1.46-.65,1.61-.86,1.93-2,1.33-2.11,1.13-1.82,1.63-2.64.53-1.91.65-2.87.7-2.74.23-1.73-.26-1.72,0-1.92.64-1.56,1.3-1,2.31-.18.84.58,2.47,1,2.35.38,2.21.16,1.79-.91,1.61-1H103s1.07.09,1.25.09,1.44-.09,1.44-.09l1.83-.48,1.13-.33,1.33-.53,2.35-1.61,1.36-1.58.6-.94.45-1,.59-1.45,1.09-1,.45-.95.34-1.56.54-.94.71-1,.23-1.43L118,11.42l-.73-.63-.91-1.27.18-1.34,1.08-2,.83-1.47Z"/><path class="cls-2" d="M118.86,6.32c5.36,4,8.68,10,10.28,16.41,1.84,7.39,1,14.64,1.38,22.12a.34.34,0,0,0,.67,0A60.83,60.83,0,0,0,129.38,21c-1.82-6-5.14-11.42-10.31-15-.22-.15-.42.19-.21.35Z"/><path class="cls-2" d="M130,54.81c.11,5.52,0,10.53-1.59,15.89a.41.41,0,0,0,.78.22c1.65-5,2.4-11,1.13-16.15a.16.16,0,0,0-.32,0Z"/><path class="cls-2" d="M124.75,80.07c-1.52,3.22-2.63,6.67-3.88,10-.17.45.56.65.72.2,1.23-3.31,2.63-6.62,3.58-10,.07-.24-.3-.42-.42-.18Z"/><path class="cls-2" d="M113.44,97.74c-1.23,1.26-2.15,2.81-3.32,4.14a43.41,43.41,0,0,1-3.82,3.73c-.32.28.14.73.47.46,2.56-2.08,5.67-5.06,6.85-8.23,0-.1-.11-.17-.18-.1Z"/><path class="cls-2" d="M96.47,111a34.51,34.51,0,0,1-10.29,2.13.4.4,0,0,0,0,.79,22.15,22.15,0,0,0,10.42-2.62c.16-.09.05-.37-.13-.3Z"/><path class="cls-2" d="M77.57,113.15c-1.14-.61-2.37-.94-3.47-1.65A13.85,13.85,0,0,1,71,108.69c-.36-.44-1.15.16-.8.62,1.57,2.08,4.53,4.36,7.29,4.17a.18.18,0,0,0,.09-.33Z"/><path class="cls-2" d="M118.76,4.46c-.69.73.54,2.46,1.44,2.05a.22.22,0,0,0,0-.34c-.26-.24-.62-.27-.86-.56s-.23-.7-.38-1.08a.15.15,0,0,0-.25-.07Z"/><path class="cls-2" d="M119.14,6.3a35.11,35.11,0,0,1,10.11,15.1,56,56,0,0,1,2.39,9.88c.57,3.58.62,7.29,1.6,10.79a.55.55,0,0,0,1.07-.15c.34-3.82-.37-7.81-1-11.58a52.2,52.2,0,0,0-2.9-10.85c-2.19-5.49-5.74-10.58-11-13.57-.23-.13-.51.19-.3.38Z"/><path class="cls-2" d="M133.69,31.7a15,15,0,0,1-.15,1.89c-.07.3-.31,1,.23.95s.62-.95.63-1.33a2.21,2.21,0,0,0-.46-1.58.15.15,0,0,0-.25.07Z"/><path class="cls-2" d="M133,31.23a2.12,2.12,0,0,1,.63,1.22c0,.42-.16.81-.16,1.22a.21.21,0,0,0,.26.2c.64-.21.75-1,.66-1.61a1.81,1.81,0,0,0-1.12-1.49c-.28-.09-.44.26-.27.46Z"/><path class="cls-2" d="M133.52,32.31a47.88,47.88,0,0,0,1.35,14.45c.11.47.9.39.86-.12-.39-4.77-1-9.67-1.74-14.39,0-.28-.45-.19-.47.06Z"/><path class="cls-2" d="M135.22,46.89c0-.69-.87-1.22-1.39-1.59a7,7,0,0,0-2.52-1.12c-.64-.15-.9.85-.27,1a7.77,7.77,0,0,1,2.4.83c.54.3,1.05,1,1.67,1,.06,0,.11-.06.11-.11Z"/><path class="cls-2" d="M131.59,44.46c1.85-5.05,1.08-11.65,0-16.81-.18-.86-1.43-.48-1.29.35a70.38,70.38,0,0,1,.93,8.57c.09,2.6-.23,5.26,0,7.85a.16.16,0,0,0,.31,0Z"/><path class="cls-2" d="M131.63,33.48a21.54,21.54,0,0,0,.28,4.87c.18,1.66.79,3.65-.25,5.12-.32.45.28.87.69.69,1.47-.67,1.23-2.36,1-3.73-.32-2.27-.55-4.92-1.56-7,0-.1-.18,0-.19,0Z"/><path class="cls-2" d="M132,43.57a5.61,5.61,0,0,0,1.15,1.28,3.89,3.89,0,0,0,1.58.94c.5.07,1.05-.42.72-.94A3.84,3.84,0,0,0,134,43.76a5.51,5.51,0,0,0-1.72-.56c-.19,0-.41.17-.28.37Z"/><path class="cls-2" d="M134.22,44.63c-.77-.32-1.33-1-2.12-1.23l-.16,1.18a3.89,3.89,0,0,0,2.54-1c.63-.57-.35-1.56-.93-.93a2.34,2.34,0,0,1-1.61.78.61.61,0,0,0-.42,1A5.45,5.45,0,0,0,134,45.5c.57.17.75-.65.24-.87Z"/><path class="cls-2" d="M128.82,70.68a1.64,1.64,0,0,0-.46,1.14c0,.14.19.24.29.12a1.6,1.6,0,0,0,.33-1.2.1.1,0,0,0-.16-.06Z"/><path class="cls-2" d="M128.35,70.89a1.24,1.24,0,0,0-.24.88c0,.13.19.16.27.08a1.28,1.28,0,0,0,.32-.87c0-.19-.26-.24-.35-.09Z"/><path class="cls-2" d="M128.24,71.78a3.3,3.3,0,0,0,1.09,1.2c.38.33.79.87,1.32.88a.27.27,0,0,0,.26-.33c-.13-.51-.76-.8-1.17-1.09a3.21,3.21,0,0,0-1.41-.77.09.09,0,0,0-.09.11Z"/><path class="cls-2" d="M130.65,73.7c3.32-4.13,4.22-10.1,3.5-15.22-.08-.63-1.18-.49-1.12.16.48,5.4-.78,9.89-2.67,14.89-.06.16.19.3.29.17Z"/><path class="cls-2" d="M130.15,55.59a8,8,0,0,1,.84,1.14c.28.36.57.69.88,1,.49.52,1.08,1.37,1.82,1.43.2,0,.32-.2.29-.37-.15-.67-1-1.2-1.5-1.67a23.9,23.9,0,0,0-1.81-1.82.27.27,0,0,0-.33,0l-.16.07a.16.16,0,0,0,0,.24Z"/><path class="cls-2" d="M132.28,58.34c-.85,2-.84,4.33-1.21,6.46a65.1,65.1,0,0,1-1.79,7.32c-.36,1.18,1.44,1.65,1.83.51,1.35-4,3.23-10.08,1.7-14.23-.07-.2-.42-.32-.53-.06Z"/><path class="cls-2" d="M129.14,71.73a2.92,2.92,0,0,0,1-1.57c.19-.59.53-1.38.2-2a.38.38,0,0,0-.59-.08c-.4.41-.36,1.12-.5,1.67a6.39,6.39,0,0,0-.35,1.79c0,.11.15.23.26.14Z"/><path class="cls-2" d="M129.48,72c1.2-2.18,1.73-5.24,2.38-7.64a12,12,0,0,0,0-7.37c-.32-.91-1.81-.5-1.46.41,1.1,2.87.47,5.77-.35,8.62-.54,1.87-1.51,4-.95,5.92a.23.23,0,0,0,.42.06Z"/><path class="cls-2" d="M128.92,71.59a.84.84,0,0,0,.61.94.38.38,0,0,0,.47-.26.17.17,0,0,0,0-.1.39.39,0,0,0-.27-.36,1,1,0,0,1-.48-.31.2.2,0,0,0-.34.09Z"/><path class="cls-2" d="M121.05,89.7a6,6,0,0,0,1.09,1.78c.26.39.91,0,.63-.37a6.39,6.39,0,0,0-1.37-1.68.24.24,0,0,0-.35.27Z"/><path class="cls-2" d="M122.59,91.49a35.08,35.08,0,0,0,4.72-9.24c.17-.47-.58-.67-.75-.2-1.23,3.19-2.82,6.17-4.32,9.24a.2.2,0,0,0,.35.2Z"/><path class="cls-2" d="M127,82c-.27-.22-.57-.29-.81-.56a3.78,3.78,0,0,1-.53-1,.42.42,0,0,0-.72,0,1.42,1.42,0,0,0,.62,1.7c.38.24,1.15.38,1.46,0a.09.09,0,0,0,0-.11Z"/><path class="cls-2" d="M125.19,82.07c-1,.68-1.38,2.1-1.83,3.2-.6,1.45-1.13,2.93-1.67,4.4-.39,1.06,1.27,1.49,1.67.46.56-1.43,1.12-2.85,1.63-4.3.38-1.1,1-2.38.72-3.55a.37.37,0,0,0-.52-.21Z"/><path class="cls-2" d="M125.54,82.64a.54.54,0,0,1-.16.42c-.82.78,1,1.76,1.11.46a1.84,1.84,0,0,0-.2-1.08.41.41,0,0,0-.75.2Z"/><path class="cls-2" d="M125,81.6c-.64.25-1.32,1-1,1.71a.58.58,0,0,0,1,.25,2.31,2.31,0,0,0,.38-1.75.22.22,0,0,0-.29-.21Z"/><path class="cls-2" d="M124.76,81.11a1,1,0,0,0-.51.87.43.43,0,0,0,.73.31,1,1,0,0,0,.27-1,.34.34,0,0,0-.49-.2Z"/><path class="cls-2" d="M106.44,105.83c0,.44.37.68.72.9s.9.73,1.4.68c.21,0,.45-.22.35-.47-.21-.51-.74-.69-1.2-1a1.31,1.31,0,0,0-1.21-.25.1.1,0,0,0-.06.1Z"/><path class="cls-2" d="M108.65,107.17a16.93,16.93,0,0,0,4-3.18,25.62,25.62,0,0,0,3.54-3.75c.2-.29-.23-.59-.48-.37-1.24,1.14-2.33,2.46-3.56,3.61a43.51,43.51,0,0,0-3.76,3.4.19.19,0,0,0,.23.29Z"/><path class="cls-2" d="M115.57,100.53c.69-.08.64-1,.23-1.39a1.54,1.54,0,0,0-1.08-.34,4.58,4.58,0,0,1-.74,0c-.27,0-.23-.21-.37-.41a.47.47,0,0,0-.72-.09c-.46.57,0,1.27.63,1.47a3.46,3.46,0,0,0,1.2,0c.16,0,.44,0,.53.13s0,.25,0,.37a.29.29,0,0,0,.27.2Z"/><path class="cls-2" d="M112.93,99.39a19.19,19.19,0,0,0-2.87,2.53,39.61,39.61,0,0,0-2.92,3c-.38.48.13,1.39.73,1a23.09,23.09,0,0,0,3-2.88,15,15,0,0,0,2.42-3.29c.1-.2-.12-.47-.33-.33Z"/><path class="cls-2" d="M107.51,106.34c1.35,0,2.6-1.13,3.58-2a22.51,22.51,0,0,0,3.35-3.48.81.81,0,0,0,0-.8.54.54,0,0,0-.47-.36.81.81,0,0,0-.77.2,29.65,29.65,0,0,1-3,3.2c-.94.84-2.36,1.59-2.9,2.77a.28.28,0,0,0,.25.42Z"/><path class="cls-2" d="M108.36,106.56c1.4.11,2.79-1.27,3.76-2.13a17,17,0,0,0,3.39-3.79c.43-.73-.6-1.56-1.19-.92-1.12,1.2-2.1,2.48-3.31,3.6-.94.86-2.45,1.71-2.87,3a.23.23,0,0,0,.22.29Z"/><path class="cls-2" d="M112.69,99.9a1.37,1.37,0,0,1-.08.35.55.55,0,0,0,.38.68.54.54,0,0,0,.43-.06.56.56,0,0,0,.11-.86,1,1,0,0,1-.23-.28.33.33,0,0,0-.61.17Z"/><path class="cls-2" d="M109,105.43l.23-.19c.13-.1,0-.28-.16-.21l-.27.14c-.2.11,0,.42.2.26Z"/><path class="cls-2" d="M86.57,113.51a3.81,3.81,0,0,0,0,1.54,2.84,2.84,0,0,0,.45,1.49.3.3,0,0,0,.51-.14,3.73,3.73,0,0,0-.21-1.35,10.1,10.1,0,0,0-.35-1.54.21.21,0,0,0-.41,0Z"/><path class="cls-2" d="M87.11,116.48a5.75,5.75,0,0,0,3.8-.75c2.1-1,3.9-1.93,6.27-2,.56,0,.74-.93.14-1a7.62,7.62,0,0,0-4.57.89c-1.89.87-3.8,1.63-5.69,2.47a.22.22,0,0,0,0,.41Z"/><path class="cls-2" d="M97.72,112.77c-.18-.21-.41-.36-.6-.56a2.46,2.46,0,0,1-.42-.76.64.64,0,0,0-1.23.35c.18.8,1.37,1.85,2.21,1.23a.17.17,0,0,0,0-.26Z"/><path class="cls-2" d="M95.94,112.07c-1.19-.64-2.67,0-3.86.36a28.15,28.15,0,0,0-4.65,1.93c-.94.49-.11,1.85.83,1.41a45.35,45.35,0,0,1,4.78-2c1.06-.36,2.27-.53,3-1.47a.19.19,0,0,0-.06-.25Z"/><path class="cls-2" d="M87,114.14c.11.86,1.33,1.08,2,.83a.72.72,0,0,0-.39-1.38,4.1,4.1,0,0,1-.79.16,2.3,2.3,0,0,0-.69.1.24.24,0,0,0-.16.29Z"/><path class="cls-2" d="M70.4,108.7a1.92,1.92,0,0,0-.69,2.51.34.34,0,0,0,.3.18c.4,0,.34-.41.29-.71a1.72,1.72,0,0,1,.41-1.58c.19-.2-.07-.58-.31-.4Z"/><path class="cls-2" d="M69.42,110A6.47,6.47,0,0,0,72,114.25c.88.67,3.42,2.28,4.39,1.17a.46.46,0,0,0,.07-.53c-.28-.57-.68-.54-1.24-.69a7.73,7.73,0,0,1-2.12-.93,11.41,11.41,0,0,1-3.2-3.4c-.13-.19-.52-.15-.49.14Z"/><path class="cls-2" d="M76.05,115.27a2.33,2.33,0,0,0,.86-1.17.57.57,0,1,0-1-.44,2.34,2.34,0,0,0-.16,1.47.24.24,0,0,0,.35.14Z"/><path class="cls-2" d="M76.21,114a23.26,23.26,0,0,0-2.57-1.81,9.86,9.86,0,0,1-2.53-2.66c-.63-.91-2.1-.09-1.51.89,1.27,2.15,3.83,4.5,6.5,4a.26.26,0,0,0,.11-.43Z"/><path class="cls-2" d="M61.73,80.93a4.36,4.36,0,0,0-.14,4.32A12.28,12.28,0,0,0,62.84,87a16.33,16.33,0,0,0,1.34,2,.28.28,0,0,0,.46-.12c.4-.95-.53-1.91-1.11-2.61a8.73,8.73,0,0,1-1.45-1.92c-.49-1.1,0-2.2,0-3.34a.16.16,0,0,0-.3-.08Z"/><path class="cls-2" d="M64.4,89c2.22,1.11,2.43,3.79,3.75,5.71s2.63,3.6,3.21,6.11a.39.39,0,0,0,.75,0c1.06-3.14-2-5.41-3.51-7.76-.95-1.48-1.59-5.3-4.14-4.53a.26.26,0,0,0-.06.47Z"/><path class="cls-2" d="M61.59,81.62c3.78,4.65,9.66,8.58,9.17,15.36-.06.73,1.17.91,1.28.17.51-3.2-.8-6.16-2.66-8.73s-4.46-5.79-7.47-7.22a.27.27,0,0,0-.32.42Z"/><path class="cls-2" d="M71.51,95.82A17.57,17.57,0,0,0,69.58,91a.86.86,0,0,0-1.56.66l.71,2.41a.84.84,0,0,0,1.62-.44c-.85-4.81-5-7.47-7.39-11.42a.93.93,0,0,0-1.6.94c2,3.72,6.87,6.26,7.34,10.7l1.65-.22-.68-2.43-1.57.66a21.75,21.75,0,0,1,2.28,4.25c.25.7,1.34.43,1.13-.31Z"/><path class="cls-2" d="M63.64,87.49a7.45,7.45,0,0,0,1,.91c.38.36,1.19,0,1-.56a12.24,12.24,0,0,0-1.32-2.16c-.43-.64-.73-1.52-1.52-1.76a.62.62,0,0,0-.78.59c0,.79.72,1.39,1.16,2a12.54,12.54,0,0,0,1.5,1.9l.56-1a6.91,6.91,0,0,0-1.28-.35.27.27,0,0,0-.23.41Z"/><path class="cls-2" d="M72.68,55.27c-1.56-.32-2.47,1-2.56,2.44s.62,2.71,1.08,4a24.23,24.23,0,0,1,1.13,6.6.36.36,0,0,0,.72,0,15,15,0,0,0-.52-5.07c-.55-2.06-3.53-6.54.15-7.8.08,0,.1-.16,0-.18Z"/><path class="cls-2" d="M72.62,68.29a9.26,9.26,0,0,0,1.78-5.9c-.06-2.48-1.25-4.51-2-6.84a.27.27,0,0,0-.5-.07c-.86,1.53.22,2.64.85,4.16,1.23,3,.82,5.65-.39,8.53a.12.12,0,1,0,.21.12Z"/><path class="cls-2" d="M72,56c-1.25,0-1.83,1.19-1.74,2.33a7.83,7.83,0,0,0,.81,2.4c.55,1.36.62,2.73,1,4.11.13.44.86.5,1,0a7.29,7.29,0,0,0-.59-4c-.56-1.44-2-3.28-.37-4.57A.16.16,0,0,0,72,56Z"/><path class="cls-2" d="M73,64.87c1.61-2.45.06-5.48-.94-7.84-.31-.74-1.32-.27-1.38.37a5.82,5.82,0,0,0,.94,2.88,10.16,10.16,0,0,1,.86,4.45.28.28,0,0,0,.52.14Z"/><path class="cls-2" d="M71.52,57.81A50.89,50.89,0,0,1,72.41,65a.69.69,0,0,0,1.38,0,13.38,13.38,0,0,0-2-7.31.18.18,0,0,0-.32.14Z"/><path class="cls-2" d="M87.69,27.78A3.29,3.29,0,0,0,86,30.55c-.35,2.56-.1,5.1-.64,7.68a26,26,0,0,1-7.19,13c-.29.28.14.7.43.43a24.48,24.48,0,0,0,6.75-10.07A24.16,24.16,0,0,0,86.65,36c.27-2.7-.53-5.71,1.22-8,.08-.11-.07-.23-.18-.18Z"/><path class="cls-2" d="M79.42,50.58c1.33.13,2.5-1,3.17-2a12.87,12.87,0,0,0,1.06-2.4,7.27,7.27,0,0,1,2.12-2.7.47.47,0,0,0-.32-.79c-1.4.12-2.11,1.58-2.6,2.75a12.12,12.12,0,0,1-1.47,3.08c-.6.74-1.45,1.17-2.06,1.87a.14.14,0,0,0,.1.24Z"/><path class="cls-2" d="M85.84,42.72C85.73,38,89.42,33,87.56,28.32a.39.39,0,0,0-.76.1c-.13,1.34.07,2.68,0,4a21.55,21.55,0,0,1-1.24,5.14c-.56,1.77-1,3.53-.07,5.23a.21.21,0,0,0,.38-.1Z"/><path class="cls-2" d="M118.61,5.5c-1.12.78-2.19,1.68-2.33,3.12-.2,2.09,2.2,2.83,2,5-.13,1.25-1.24,2.81-1.8,3.94s-1,2.09-1.55,3.11c-1.45,2.74-3.19,5.15-6.42,5.72-.47.08-.26.78.2.71,4.56-.61,6.55-5,8.35-8.64.78-1.59,2.35-3.66,2.23-5.53a2.72,2.72,0,0,0-.58-1.52c-.23-.33-.66-.54-.87-.87-1.41-2.23-.18-3.51.89-4.9a.08.08,0,0,0-.1-.11Z"/><path class="cls-2" d="M109,26.77c2.38.77,4.13-1.5,5.72-2.91s3-1.52,5-1.81a4,4,0,0,0,2.69-1.32c1.45-1.7,1.36-4.34.86-6.38a10.26,10.26,0,0,0-1.6-3.53c-1-1.44-2.71-2.48-3-4.32-.09-.56-1-.43-1,.13.1,1.82,1.28,2.66,2.4,4,1.69,2,3.92,6.57,1.76,9-1.58,1.79-4.71,1.15-6.66,2.54-2.2,1.56-3.52,3.39-6.2,4.31a.16.16,0,0,0,0,.31Z"/><path class="cls-2" d="M118.18,5.44a2.88,2.88,0,0,0-.88,1.08,3.53,3.53,0,0,0-.51,1.3.17.17,0,0,0,.28.12,10.29,10.29,0,0,0,.69-1.15,5.78,5.78,0,0,0,.64-1.17.15.15,0,0,0-.22-.18Z"/><path class="cls-2" d="M117.81,6.85A2.84,2.84,0,0,0,117,9c.07.7.44,1.66,1.21,1.76a.36.36,0,0,0,.36-.35c0-.52-.46-.91-.57-1.42a2.52,2.52,0,0,1,.17-1.87c.13-.23-.19-.5-.38-.29Z"/><path class="cls-2" d="M117.31,8.1c.56,1.82,1,3.68,1.41,5.53a18.75,18.75,0,0,0,1.39,4.92c.35.64,1.19.28,1.26-.34.36-3.37-1.68-7.36-2.83-10.45-.28-.76-1.47-.46-1.23.34Z"/><path class="cls-2" d="M119,11.32a16.66,16.66,0,0,1,1.27,8.07c0,1,1.63,1.29,1.82.25a13.76,13.76,0,0,0-1.71-9.13c-.5-.92-1.81-.11-1.38.81Z"/><path class="cls-2" d="M120.84,20.77c1.31-.17,1.8-2,2-3.14a7,7,0,0,0-.94-4.79.85.85,0,0,0-1.47.85,6.89,6.89,0,0,1,.82,4c-.12.94-.77,2-.51,2.92a.14.14,0,0,0,.14.11Z"/><path class="cls-2" d="M120.6,19.73c-.43-.42-1.11-.28-1.65-.21-1.19.14-.92,1.9.21,1.6.51-.13,1.29-.26,1.52-.79a.51.51,0,0,0-.08-.6Z"/><path class="cls-2" d="M115.49,21.82l.05.11a.49.49,0,0,0,.42.25,4,4,0,0,0,3.75-1.65c.92-1.51.49-3.3,0-4.87a.87.87,0,0,0-1.45-.38c-1.32,1.59-.52,4.07-2.66,5l1.13,1.12a9.6,9.6,0,0,1,1.56-2.33c.7-.79-.47-2-1.17-1.17a14.59,14.59,0,0,0-1.81,2.67.83.83,0,0,0,.93,1.21,3.63,3.63,0,0,0,2.31-2c.44-1,.23-2.38.94-3.25L118,16.13c.66,1.69,1.23,3.71-.89,4.57-.33.13-1.93.44-1.63,1.12Z"/><path class="cls-2" d="M123.17,14.48a1.82,1.82,0,0,0,.12,1.22.29.29,0,0,0,.52-.06,1.89,1.89,0,0,0-.23-1.22.21.21,0,0,0-.41.06Z"/><path class="cls-3" d="M122,28.05a5.1,5.1,0,0,0-1,5.29c.36,1,2,.58,1.62-.45a7.94,7.94,0,0,1-.2-4.63c.06-.2-.22-.39-.37-.21Z"/><path class="cls-3" d="M121.57,27.9A6.59,6.59,0,0,0,121.1,34c.63,1.31,2.46,3,3.94,1.78a3.47,3.47,0,0,0,.88-2.51,23.12,23.12,0,0,0,.4-4.46c-.24-2.7-3.1-1-4.55-1a.63.63,0,0,0,0,1.25,4.92,4.92,0,0,0,1.65-.31c.75-.22,1.34-.44,1.63.57a7.75,7.75,0,0,1-.2,2.28,10.74,10.74,0,0,1-.22,2.12c-.82,2.57-2.77.06-3-1.36s.28-2.76.57-4.16a.33.33,0,0,0-.6-.25Z"/><path class="cls-3" d="M122.19,28a3.82,3.82,0,0,0,1.43,0,1.88,1.88,0,0,0,1.23-.33.36.36,0,0,0-.08-.56,1.91,1.91,0,0,0-1.27,0,4.12,4.12,0,0,0-1.38.39.27.27,0,0,0,.07.49Z"/><path class="cls-3" d="M120.57,31.86a2,2,0,0,0,.93,2.54.47.47,0,0,0,.54-.07.46.46,0,0,0-.09-.7,2,2,0,0,1-.72-.74,3.17,3.17,0,0,1-.21-1c0-.22-.34-.22-.45-.06Z"/><path class="cls-3" d="M123.39,34.78c.21-1.46-.3-2.91-.11-4.36a1.23,1.23,0,0,1,.16-.63l.49.21a3.67,3.67,0,0,1-.09,1.14c-.08.64-.16,2.23-.66,2.71l.6-.25h-.23l.74.42c-.2-.31.1-1.62.13-2,.07-.81.15-1.62.23-2.43.11-1.15-1.75-1.18-1.81,0-.07,1.4-.2,2.8-.26,4.2,0,.77.26,1.63,1.2,1.53s1.27-1.45,1.45-2.29a10.56,10.56,0,0,0,.35-3.44,1.88,1.88,0,0,0-3.5-.75,4.17,4.17,0,0,0-.38,2.91,5,5,0,0,0,1.14,3.18.33.33,0,0,0,.55-.14Z"/><path class="cls-3" d="M121.82,28.17c.31.22.64.33.94.06a.24.24,0,0,0,0-.28c-.23-.34-.58-.31-.93-.18a.23.23,0,0,0-.05.4Z"/><path class="cls-3" d="M107,30.35h0a.27.27,0,0,0-.24.18,2.34,2.34,0,0,1-3,1.58c-.73-.21-1,1-.3,1.11a3.42,3.42,0,0,0,3.82-2.55.26.26,0,0,0-.12-.28l-.08,0Z"/><path class="cls-3" d="M103.33,32.55c-1.42,1.14-1.49,3.81.37,4.51.65.24,1-.82.29-1.05-1.44-.5-.3-2.36-.22-3.28,0-.25-.28-.31-.44-.18Z"/><path class="cls-3" d="M104,36.21c-.28.9,1.27,1.57,1.93,1.72a2.8,2.8,0,0,0,3.06-1,.31.31,0,0,0-.35-.46c-.93.29-1.7.81-2.73.53-.61-.17-1.18-.91-1.79-.88a.13.13,0,0,0-.12.09Z"/><path class="cls-3" d="M108.66,37a1.44,1.44,0,0,0,1.74-1,3.9,3.9,0,0,0,.19-1.83c0-.77.15-1.58,0-2.34a2.05,2.05,0,0,0-1.72-1.64,4.1,4.1,0,0,0-3.26,1.31c-.67.55.29,1.47,1,1a3.58,3.58,0,0,1,1.84-1c1,0,.93.87.92,1.58,0,1.18,1,3.1-.69,3.59a.22.22,0,0,0,0,.43Z"/><path class="cls-3" d="M109.2,30.56c.55.11.58.59.49,1a.44.44,0,0,0,.73.43,1.18,1.18,0,0,0,.17-1.55,1.16,1.16,0,0,0-1.39-.41c-.22.08-.27.44,0,.49Z"/><path class="cls-3" d="M109.84,33.66a2.12,2.12,0,0,1-.12,1.29.45.45,0,1,0,.82.35,2.39,2.39,0,0,0-.05-1.82.34.34,0,0,0-.65.18Z"/><path class="cls-3" d="M106.76,30.57c-.4.35-.69.84-1.08,1.21a4.86,4.86,0,0,1-.66.54,3.23,3.23,0,0,0-.63.47.31.31,0,0,0,.3.51,3.21,3.21,0,0,0,1.47-1,3.51,3.51,0,0,0,.94-1.49.21.21,0,0,0-.34-.2Z"/><path class="cls-3" d="M103.81,33.11a2.27,2.27,0,0,0,.35,3.69,4.25,4.25,0,0,0,5.17-.35,2.83,2.83,0,0,0-.11-4.27,2.92,2.92,0,0,0-2.66-.32A4.52,4.52,0,0,0,104,33.32a.65.65,0,0,0,.56,1c.85,0,1.49-.53,2.28-.78.6-.19,1.32-.39,1.74.25a1.26,1.26,0,0,1-.17,1.43,2.7,2.7,0,0,1-2.92.69c-.84-.27-1.81-1.29-1.08-2.19a.41.41,0,0,0-.58-.58Z"/><path class="cls-3" d="M108.15,32.14c.28.34.63.84,1.06,1a.68.68,0,0,0,.84-.65c.1-.73-.87-1.3-1.52-1.22a.54.54,0,0,0-.38.91Z"/><path class="cls-3" d="M104.81,32.65a3.76,3.76,0,0,0,1.89-1.31.21.21,0,0,0-.24-.31,3.92,3.92,0,0,0-1.85,1.36.18.18,0,0,0,.2.26Z"/><path class="cls-3" d="M107.35,31.86a3.48,3.48,0,0,0,1.59-.55c.15-.09.11-.37-.09-.35a3.43,3.43,0,0,0-1.61.51c-.17.09-.11.42.11.39Z"/><path class="cls-3" d="M110.05,34.57a4.08,4.08,0,0,1-.12,1.1.36.36,0,0,0,.15.38l.08,0a.34.34,0,0,0,.41-.23,1.42,1.42,0,0,0-.17-1.43.21.21,0,0,0-.35.15Z"/><path class="cls-3" d="M104.08,34.67a3,3,0,0,0,.9,1.24,3.16,3.16,0,0,0,1.47.48A2.4,2.4,0,0,0,109.1,35a1.71,1.71,0,0,0-1.37-2.26,1.76,1.76,0,0,0-1.32.47c-.43.35-.77.82-1.38.53-1-.46-1.78,1-.83,1.41a2.59,2.59,0,0,0,1.75.25c.6-.14.87-.57,1.37-.83a2.29,2.29,0,0,1,.23-.21.3.3,0,0,1-.18.43,1.66,1.66,0,0,1-1.22.11,7.8,7.8,0,0,1-1.8-.46.2.2,0,0,0-.27.27Z"/><path class="cls-3" d="M106.73,35.17c.5.37,1.4-.24,1.77-.58.55-.53-.4-1.33-.85-.66a1.94,1.94,0,0,1-.57.57c-.18.11-.33.16-.44.35a.24.24,0,0,0,.09.32Z"/><path class="cls-3" d="M95.11,29.25c-1.78,2-1.92,4.83,1,5.71,1.41.42,2.12-.45,2.85-1.55a12.51,12.51,0,0,0,1.85-4.59c.14-.67-.9-.95-1-.28a11.31,11.31,0,0,1-.87,2.83,6.67,6.67,0,0,1-1.59,2.42,2.24,2.24,0,0,1-2.78-1.11c-.35-1.14.49-2.21,1-3.16.11-.22-.17-.47-.36-.27Z"/><path class="cls-3" d="M100,28.3A19.49,19.49,0,0,0,98,29a9.32,9.32,0,0,1-2.53,0,.44.44,0,0,0-.22.81c1.25.79,4.47.37,4.95-1.25a.19.19,0,0,0-.18-.24Z"/><path class="cls-3" d="M95.6,29.77c-1.76.73-2.16,3.49-.22,4.26,2.4.93,3.51-2.14,4.48-3.62.5-.75-.7-1.44-1.21-.7-.61.9-1.08,2.65-2.21,3a.86.86,0,0,1-1.26-.88c0-.67.55-1.21.67-1.86,0-.13-.09-.31-.25-.25Z"/><path class="cls-3" d="M99.39,29.86a9.19,9.19,0,0,0-2.51-.18c-.67,0-1.6-.11-1.92.64-.66,1.57,2.11,2,2,.31a.83.83,0,0,0-.59-.77l-.14,0c-.41-.06-.93.18-.89.68,0,.17,0,.33.06.49l.08-.61-.09.13.48-.37.11,0,.47.36,0,.09-.22.55.1-.12-.55.22a6.87,6.87,0,0,0,3.66-1.14.15.15,0,0,0,0-.27Z"/><path class="cls-3" d="M96.13,30.36A1.68,1.68,0,0,0,95,32,1.41,1.41,0,0,0,96.8,33.3a1.91,1.91,0,0,0,1.28-2.06A1.25,1.25,0,0,0,96,30.59c-.69.75.43,1.87,1.12,1.12l-.52-.2,0,.07a1.58,1.58,0,0,0-.16.22c0,.06,0,0,0,.06s-.06-.08-.06-.1c0-.41,0-.79.05-1.2a.21.21,0,0,0-.27-.2Z"/><path class="cls-3" d="M135.39,47.39c-1.74-2.83-6.68-2.86-7,1-.39,4.18,2.42,8.27,5.88,10.29a.65.65,0,0,0,.66-1.12,11.27,11.27,0,0,1-4.8-5.23,9.35,9.35,0,0,1-.53-1.57c-.37-1.55-.26-1.56.91-3,1.54-1.88,1.52-1.29,3.47-.56.81.3.09.17,1.25.45a.17.17,0,0,0,.19-.25Z"/><path class="cls-3" d="M134.63,58.27c2.24-.89,2.42-3.83,2.43-5.93,0-2.38-.83-4.8-3.37-5.42-.84-.2-1.19,1.12-.36,1.29,4.13.85,3,7.42,1.15,9.87-.07.09.05.23.15.19Z"/><path class="cls-3" d="M133.93,47.72c-.06-.73-1-.94-1.59-.95a3,3,0,0,0-2.27,1.16,3.18,3.18,0,0,0-.65,2.38c.09.81.49,1.83,1.45,1.8a.49.49,0,0,0,.47-.36c.15-1.09-.93-2.18.21-3.1a3,3,0,0,1,1.61-.52c.2,0,.79-.07.77-.41Z"/><path class="cls-3" d="M132.74,46.64c-.86-.85-2.2.51-2.56,1.27-.45.93-.58,2.85.75,3.13a.42.42,0,0,0,.52-.3c.2-.78-.31-1.52.08-2.29.31-.59,1.13-.83,1.31-1.47a.36.36,0,0,0-.1-.34Z"/><path class="cls-3" d="M131.13,48.48c-2.12,1.25-1.42,4.19-.36,5.93s3.1,4.28,5,2.63c.84-.71-.22-1.85-1.1-1.43s-2.64-2.44-2.91-3a7.28,7.28,0,0,1-.45-4c0-.11-.14-.18-.23-.13Z"/><path class="cls-3" d="M134.63,56.93c3-.76,2.51-5.5,1.06-7.39a3.56,3.56,0,0,0-3.4-1.55,2.11,2.11,0,0,0-1.8,2.46c.15.72,1.1.7,1.46.19,1.54-2.22,3.12,1.25,3.16,2.58s-.65,2.28-.78,3.48a.24.24,0,0,0,.3.23Z"/><path class="cls-3" d="M132.05,48.83c-1.74,1-1.34,3.66-.53,5.11a2.74,2.74,0,0,0,2,1.56,1.8,1.8,0,0,0,1.93-1.36,5.66,5.66,0,0,0-.6-3.22c-.33-.78-.74-1.83-1.74-1.89-2.57-.14-1.23,3.94-.69,5.11.45,1,2.16.27,1.75-.74a9.72,9.72,0,0,1-.7-2.56l-.75.1c.32.07.68,1.68.75,2a2.63,2.63,0,0,1,.12.69l-.1-.11c-.26,0-.54-.75-.63-1-.5-1.15-.19-2.36-.39-3.54a.29.29,0,0,0-.42-.17Z"/><path class="cls-3" d="M134.2,55.8a1.47,1.47,0,0,1,.73-.21c.65.08.95-.8.61-1.24a.78.78,0,0,0-1.36.26,1.37,1.37,0,0,1-.43.61.37.37,0,0,0,.45.58Z"/><path class="cls-3" d="M128.25,81.25A9.72,9.72,0,0,1,126.33,77c-.23-.94-1.75-5-.13-5.27.79-.11.61-1.46-.18-1.4-3.21.23-1.93,4-1.46,6,.29,1.23,1.14,7,3.64,5.27a.24.24,0,0,0,.05-.37Z"/><path class="cls-3" d="M124,72.3a2.88,2.88,0,0,0-.26,1.36,1.42,1.42,0,0,0,.36,1.21.22.22,0,0,0,.29,0,1.37,1.37,0,0,0,.29-1.21,2.89,2.89,0,0,0-.35-1.36.19.19,0,0,0-.33,0Z"/><path class="cls-3" d="M124.92,79.09a1.75,1.75,0,0,0,0,1.33.43.43,0,0,0,.78.1l.06-.08a.41.41,0,0,0-.56-.56l-.08.06.58.15a5.15,5.15,0,0,1-.26-.93.27.27,0,0,0-.48-.07Z"/><path class="cls-3" d="M125.71,79.72a12.17,12.17,0,0,0-.17-3.51c-.09-.8.19-1.95-.38-2.55a.29.29,0,0,0-.29-.08c-.93.37-.74,1.47-.63,2.32a11.61,11.61,0,0,0,1,3.88.25.25,0,0,0,.45-.06Z"/><path class="cls-3" d="M126,71.5c.87.19,1.5,1.1,2.07,1.74s1.39,1.49,2.09,2.23c.45.47,1.16-.25.71-.72-.88-.93-1.75-1.88-2.68-2.77a2.75,2.75,0,0,0-2.13-1c-.27,0-.35.43-.06.49Z"/><path class="cls-3" d="M130.29,74.22a16.69,16.69,0,0,0-1.19,3.16A17.51,17.51,0,0,1,127.37,81c-.38.59.57,1.15.94.55,1.26-2,2.5-4.8,2.47-7.23a.27.27,0,0,0-.49-.14Z"/><path class="cls-3" d="M128.54,80.74a12,12,0,0,0,2.07-5.18c.09-.69-.78-1.51-1.37-.79a12.87,12.87,0,0,0-2.57,5.08.8.8,0,0,0,1.54.43,11.09,11.09,0,0,1,2.19-4.36l-1.4-.58a13.74,13.74,0,0,1-1.37,4.87.53.53,0,0,0,.91.53Z"/><path class="cls-3" d="M127.33,79.3a39.11,39.11,0,0,0,2.2-4.33c.27-.63-.36-1.61-1.08-1.08a8.5,8.5,0,0,0-3,3.89c-.32.84,1.1,1.46,1.47.62a8.2,8.2,0,0,1,2.5-3.27l-1.32-.77A38.37,38.37,0,0,0,126.63,79a.39.39,0,0,0,.7.3Z"/><path class="cls-3" d="M127.44,73.54a6,6,0,0,1-1.91,1.8l1,1c.7-1.2,2.29-4.25.14-5a1.38,1.38,0,0,0-1.75,1,3,3,0,0,0,.62,2.45.6.6,0,0,0,.84,0,.89.89,0,0,0,.34-.88,4.61,4.61,0,0,0-.21-.75c0-.19,0-.44-.2-.34s-.28,1-.39,1.25a15.74,15.74,0,0,1-.7,1.43c-.33.63.37,1.5,1,1a4.88,4.88,0,0,0,2-2.75c.16-.51-.57-.78-.84-.36Z"/><path class="cls-3" d="M126.15,71.08a3,3,0,0,0,.95.85,2.58,2.58,0,0,0,1.15.56c.19,0,.3-.22.21-.36a2.34,2.34,0,0,0-.91-.77,3.39,3.39,0,0,0-1.19-.55c-.15,0-.3.12-.21.27Z"/><path class="cls-3" d="M126.94,72.79a6.06,6.06,0,0,0,1.18,2.08c.4.49,1.24-.15.88-.67a6,6,0,0,0-1.67-1.71.27.27,0,0,0-.39.3Z"/><path class="cls-3" d="M126.39,71.28a2.82,2.82,0,0,1,.75.48,1.59,1.59,0,0,0,.55.39c.21.07.35-.14.33-.32-.09-.61-.91-.91-1.44-1-.26,0-.47.34-.19.46Z"/><path class="cls-3" d="M115.35,98.28c-1.24-1.4.08-2.72.8-4a.62.62,0,0,0,0-.62l-.1-.15a.33.33,0,0,0-.28-.16c-.6,0-.72.41-1,.88a7.36,7.36,0,0,0-1.11,2c-.31,1.08,0,2.53,1.25,2.82a.48.48,0,0,0,.46-.79Z"/><path class="cls-3" d="M114.14,95.37A5.55,5.55,0,0,0,117,92c.3-1.18.47-2.69,2.14-2.54S120.88,91,121.62,92c.18.25.66.27.74-.1.47-2.26-2.33-4.1-4.34-3.45a2.81,2.81,0,0,0-1.92,2.14,6.11,6.11,0,0,1-.91,2.58A10.26,10.26,0,0,0,113.82,95a.24.24,0,0,0,.32.33Z"/><path class="cls-3" d="M122,91.81c-1.1.87-1.62,2.48-2.45,3.62a32.5,32.5,0,0,1-3.53,3.7.53.53,0,0,0,.64.82,12.71,12.71,0,0,0,3.81-3.71c.86-1.19,2-2.82,1.83-4.36,0-.14-.21-.15-.3-.07Z"/><path class="cls-3" d="M116.49,99.19a11.53,11.53,0,0,1,0-1.86,16.62,16.62,0,0,1,1.37-3c.67-1.37,1.64-2.87,1.65-4.42a.63.63,0,0,0-1.06-.44c-1,1-5.12,10.06-2.08,9.83a.14.14,0,0,0,.14-.14Z"/><path class="cls-3" d="M115.05,98a20.29,20.29,0,0,0,2.35-4.56,12.11,12.11,0,0,1,.95-2.14c.55-.75,1.33-.53,1.93.08.12.12.41.77.51.9.38.49,1.41.43,1.33-.36-.17-1.82-2.23-4-4.09-2.65-1.06.75-1.44,2.28-1.92,3.41a20.33,20.33,0,0,0-1.77,4.91c-.06.36.41.79.71.41Z"/><path class="cls-3" d="M120.85,91.7a9,9,0,0,0-2.06,2.51,37.5,37.5,0,0,1-2.56,3.07.83.83,0,0,0,1.17,1.17A17.77,17.77,0,0,0,120,95.37,6,6,0,0,0,121.44,92a.39.39,0,0,0-.59-.34Z"/><path class="cls-3" d="M116.82,97.79a9.27,9.27,0,0,0,2-2.89c.62-1.16,1.3-2.27,2-3.37s-1-2-1.65-1c-1.26,2-3,4.6-2.77,7.06a.24.24,0,0,0,.4.17Z"/><path class="cls-3" d="M114.7,97.91a1,1,0,0,0,1.87.14.63.63,0,0,0-.7-.91c-.17,0-.35.09-.52.15s-.23.07,0,0a1.73,1.73,0,0,1-.31.07.44.44,0,0,0-.29.53Z"/><path class="cls-3" d="M98.66,113a7.08,7.08,0,0,1-.74-4.47c.39-2.22,1.65-3.63,4-3.31s4.35,2.43,6.84,2.5a.36.36,0,0,0,.18-.67c-2.78-1.54-8.09-5.13-11-1.88-1.42,1.59-2.63,7.79.58,8.09a.17.17,0,0,0,.15-.26Z"/><path class="cls-3" d="M107.9,107.49a46.07,46.07,0,0,0-4.6,2.57c-1.73,1-3.57,1.56-5.35,2.39a.3.3,0,0,0,.15.56c3.39-.38,7.58-2.9,9.93-5.29.09-.09,0-.28-.13-.23Z"/><path class="cls-3" d="M98.7,112.57a7.94,7.94,0,0,0,.14-2.88,6.21,6.21,0,0,1,.87-3.2l-1.4-.19a27.42,27.42,0,0,1,.31,5.43c0,1,1.5,1,1.54,0a28.4,28.4,0,0,0-.38-5.83c-.11-.69-1.08-.7-1.39-.19-1.14,1.83-1.65,5.21-.19,7,.16.19.43.05.5-.14Z"/><path class="cls-3" d="M99.49,111.8a15.2,15.2,0,0,0,4.25-1.32,10.39,10.39,0,0,0,3.79-2.29.59.59,0,0,0-.56-1,15.88,15.88,0,0,0-3.74,1.85,45,45,0,0,0-4,2.21.29.29,0,0,0,.22.53Z"/><path class="cls-3" d="M107.18,107.66c-.8-1.14-2.16-1.53-3.4-2-1-.44-2.55-1.47-3.71-1a.9.9,0,0,0-.64.84l0,.23a.7.7,0,0,0,.87.67c1-.23,2.57.77,3.49,1.12a5.69,5.69,0,0,0,3.2.6.26.26,0,0,0,.16-.38Z"/><path class="cls-3" d="M100.08,105.42c-1,1.21-.68,3.23-.36,4.66a.82.82,0,0,0,.57.57l.16,0a.57.57,0,0,0,.53-.14c.65-.68.13-1.6,0-2.42a9.15,9.15,0,0,0-.44-2.66.31.31,0,0,0-.49-.06Z"/><path class="cls-3" d="M100.37,110.65c.9-.32,1.8-.57,2.68-1,.72-.32,1.72-.51,1.94-1.35a.5.5,0,0,0-.23-.56c-.78-.38-1.43.14-2.15.49-.92.44-1.74,1-2.62,1.48-.46.27-.15,1.08.38.89Z"/><path class="cls-3" d="M104.8,107.74a10.52,10.52,0,0,0-1.71-.77c-.67-.22-1.3-.52-2-.73a.87.87,0,0,0-.66,1.58,5.61,5.61,0,0,0,2.3.7,3.48,3.48,0,0,0,2-.38.24.24,0,0,0,0-.4Z"/><path class="cls-3" d="M101.07,106.22c-.15.17-.28.24-.35.47a4.09,4.09,0,0,0-.18.75,3.51,3.51,0,0,0,.25,1.57.85.85,0,0,0,1,.57.83.83,0,0,0,.57-1c-.17-.43-.3-.88-.46-1.31-.07-.21-.13-.45-.21-.65a2.93,2.93,0,0,0-.24-.34.25.25,0,0,0-.39,0Z"/><path class="cls-3" d="M103.8,108.83a11.15,11.15,0,0,0,1.92-.18.76.76,0,0,0-.4-1.46,10.67,10.67,0,0,0-1.65.65c-.49.19-.48,1,.13,1Z"/><path class="cls-3" d="M98.92,104.47c-.71.06-1.68.57-1.39,1.44a.34.34,0,0,0,.57.15c.39-.34.48-.88.93-1.17a.23.23,0,0,0-.11-.42Z"/><path class="cls-3" d="M77.16,115.65A23.6,23.6,0,0,0,78.43,113c.75-1.78,1.26-2.54,3.24-2.5,1.68,0,3.08.45,3.86,2.06a38,38,0,0,1,1,3.74.48.48,0,0,0,.93-.26c-.89-3.24-1.19-6.18-5.17-6.38-1.07-.06-2.6-.15-3.45.67-1.15,1.1-1.77,3.69-2.16,5.15a.27.27,0,0,0,.49.21Z"/><path class="cls-3" d="M86.84,116c-1.58-.35-3.22-.32-4.82-.53a38.57,38.57,0,0,0-4.82-.83.46.46,0,0,0-.23.85,11.57,11.57,0,0,0,4.62,1.18,13.07,13.07,0,0,0,5.25-.1.3.3,0,0,0,0-.57Z"/><path class="cls-3" d="M77.93,115.11c1-1.49,1.8-4.08,4.12-3.63s2.56,2.68,3.45,4.34c.29.56,1.3.33,1.23-.33-.26-2.49-2.11-5.34-4.81-5.56-2.89-.23-4.6,2.46-4.4,5.07a.22.22,0,0,0,.41.11Z"/><path class="cls-3" d="M86.28,115.58a7.23,7.23,0,0,0-3.28-1c-1.31-.23-2.62-.47-3.92-.73l.5,1.24c.48-.68,1.24-2.31,2.31-1.93.71.26,1.35,1.31,1.71,1.9a.8.8,0,0,0,1.39-.81c-.71-1.16-1.95-2.75-3.41-2.93s-2.68,1.81-3.46,2.92a.85.85,0,0,0,.51,1.24c1.37.28,2.76.52,4.15.69a6.2,6.2,0,0,0,3.5-.21.21.21,0,0,0,0-.35Z"/><path class="cls-3" d="M84.67,114.49c-.6-.22-1.14-.56-1.73-.8s-1.19-.42-1.8-.6l.2,1.5c.43-.26,1.58-1,1.18-1.65s-1.58,0-2,.23a.83.83,0,0,0,.2,1.5,10.65,10.65,0,0,0,1.94.42c.64.07,1.29,0,1.94,0,.37,0,.39-.5.08-.61Z"/><path class="cls-3" d="M82.75,112.85a1.85,1.85,0,0,1,.74.59.83.83,0,0,0,.71.44.5.5,0,0,0,.49-.36c.25-.83-.92-1.38-1.55-1.6a.51.51,0,0,0-.39.93Z"/><path class="cls-3" d="M84.61,110.8c.3.25.34.7.7.88a.24.24,0,0,0,.31-.08c.25-.55-.3-.93-.74-1.15-.22-.11-.49.18-.27.35Z"/><path class="cls-3" d="M98.36,68c1.27-.23,1.9-2,3.09-2.49,1-.43.92.17,1.3.8a2,2,0,0,0,1,.89c.88.38,1.68-.88.77-1.32-.59-.29-.68-1.28-1.15-1.74a1.9,1.9,0,0,0-2.14-.33c-1.18.51-3.5,2.6-3.09,4a.22.22,0,0,0,.26.15Z"/><path class="cls-3" d="M104.06,66.56A12.92,12.92,0,0,0,101,66.5c-.47,0-1.43-.38-1.79.07a.79.79,0,0,0-.11.9c.5.77,1.45.67,2.27.55a4.58,4.58,0,0,0,2.82-1.16.18.18,0,0,0-.08-.3Z"/><path class="cls-3" d="M100.3,67.07a2.79,2.79,0,0,0,1.15-.08,3.61,3.61,0,0,0,.64-.19c.16-.07.24-.06.47-.14a.8.8,0,0,0,.35-1.32,1.35,1.35,0,0,0-2.16.31c-.51.78.58,1.44,1.2.93.2-.16,0,.08-.16-.12V65.34c-.48.51-1.1.86-1.58,1.37-.1.11-.08.34.09.36Z"/><path class="cls-3" d="M101.76,65.59c-.6,0-1.29.2-1.36.88a.27.27,0,0,0,.34.27c.45-.15.63-.56,1.09-.7a.23.23,0,0,0-.07-.45Z"/><path class="cls-3" d="M104.3,78.67c-1.56,1.73-3.69,5-3.31,7.51.29,1.91,2.15,4,4.2,3.56a.41.41,0,0,0,.09-.74A7.62,7.62,0,0,1,103,87.67c-1.13-1.24-.94-2.56-.38-4,.65-1.63,1.72-3,2.17-4.77a.26.26,0,0,0-.44-.25Z"/><path class="cls-3" d="M105.49,89.33a3.4,3.4,0,0,0,1.19-.69,7,7,0,0,0,1-1.17c.35-.51-.49-1-.84-.49-.49.72-1,1.39-1.54,2.1a.17.17,0,0,0,.19.25Z"/><path class="cls-3" d="M105.21,89.91c1.68-1,2.8-2.89,3.9-4.45.92-1.31,1.75-2.56,1-4.15-.84-1.87-4.7-5.16-6.3-2.43a.63.63,0,0,0,.71.92c1.48-.48,2.47.12,3.48,1.14,1.36,1.37.82,2.41-.06,3.86-1,1.64-2.46,3-3.1,4.86a.22.22,0,0,0,.33.25Z"/><path class="cls-3" d="M105,79.06a7.35,7.35,0,0,0-2.66,3.31c-.58,1.16-1.33,2.61-1.09,3.92.1.54.8.49,1.06.14.75-1,.93-2.57,1.49-3.72a28,28,0,0,0,1.72-3.24.36.36,0,0,0-.52-.41Z"/><path class="cls-3" d="M102.18,87c1.17-.25,1.77-1.59,2.37-2.52.88-1.36,1.69-2.78,2.51-4.19a1,1,0,0,0-1.64-1c-.81,1.41-1.65,2.81-2.4,4.26-.51,1-1.38,2.16-1,3.3a.15.15,0,0,0,.18.11Z"/><path class="cls-3" d="M103,86.83a0,0,0,1,0,0,0s0,0,0,0Z"/><path class="cls-3" d="M102.85,87.6c1.33-.39,2.28-1.9,3.07-3s2.14-2.52,1.88-3.92a.67.67,0,0,0-.81-.46c-1.23.46-1.74,2-2.43,3.06s-2,2.41-2.24,3.77c0,.3.18.63.53.52Z"/><path class="cls-3" d="M103.24,88.19c1.22,0,2.2-1.25,2.91-2.12a17.49,17.49,0,0,0,2.35-3.65c.5-1-1-2-1.57-.92a22.62,22.62,0,0,1-2.2,3.58c-.66.86-1.65,1.69-1.79,2.8,0,.16.15.31.3.31Z"/><path class="cls-3" d="M103.8,88.67c1.64.56,3.31-2.12,4.08-3.19,1.07-1.5,1.84-3.66.37-5.18-.71-.73-1.7.2-1.33,1,.8,1.79-.5,3.25-1.57,4.61-.59.76-1.62,1.54-1.69,2.54a.19.19,0,0,0,.14.19Z"/><path class="cls-3" d="M104.43,88.06a1.46,1.46,0,0,0-.11.55.77.77,0,1,0,1.16-.67l-.17-.12a.54.54,0,0,0-.88.24Z"/><path class="cls-3" d="M82,91.56c-.93-.6.58-1.91.9-2.49s.12-2,.79-2.46a.42.42,0,0,0-.21-.78,1.16,1.16,0,0,0-1.13.85,2.59,2.59,0,0,0-.12.84,3.43,3.43,0,0,1-.86,2c-.7,1-1,2.2.13,2.94.54.35,1-.51.5-.86Z"/><path class="cls-3" d="M82.9,86.29c.22-.13.43,0,.64-.14a.21.21,0,0,0,.09-.23v-.08a.32.32,0,0,0-.21-.21.76.76,0,0,0-.82.27.25.25,0,0,0,.31.39Z"/><path class="cls-3" d="M83.71,86.52c1.24.33,2.56-.16,3.74.49a5.83,5.83,0,0,1,2.2,3.89c.16,4.14-6.23.07-7.88.49a.39.39,0,0,0-.23.56c.54.88,1.4,1,2.35,1.32a19.34,19.34,0,0,0,3.52.82c1.71.18,3.35-.5,3.52-2.39.34-3.65-3.61-8-7.27-5.56a.21.21,0,0,0,0,.38Z"/><path class="cls-3" d="M82.41,91.89a11,11,0,0,1,1.16-2.13,3.86,3.86,0,0,0,.35-.87c.06-.24-.07-.82,0-1s0-.18,0-.08h.47l1.31.08A3.72,3.72,0,0,0,88,87.73a.57.57,0,0,0,0-1c-.88-.63-2.33-.43-3.36-.49-.74,0-1.56-.09-2,.6a1.54,1.54,0,0,0-.23.89A3.49,3.49,0,0,1,82,89.52c-.38.83-.7,1.63-.09,2.44a.27.27,0,0,0,.48-.07Z"/><path class="cls-3" d="M87.25,88.32a5.56,5.56,0,0,1,1.49,3.4c.08,1.06,1.76,1,1.65,0a6.8,6.8,0,0,0-2.15-4.38.7.7,0,0,0-1,1Z"/><path class="cls-3" d="M89.29,92c-2-.64-4.15-1.09-6.2-1.65-.87-.23-1.48,1.08-.63,1.5a10.45,10.45,0,0,0,6.83,1,.43.43,0,0,0,0-.82Z"/><path class="cls-3" d="M82.79,90.88c.46.76,1.65.7,2.45.83a13.63,13.63,0,0,0,3.43.55A.75.75,0,0,0,89,90.88a7.9,7.9,0,0,0-3.58-.77c-.85-.07-2.12-.28-2.67.5a.24.24,0,0,0,0,.27Z"/><path class="cls-3" d="M89.22,90.68c-.34-1-1.52-1.17-2.41-1.32a5.88,5.88,0,0,0-3.43.08c-.64.3-.39,1.2.18,1.39a15.79,15.79,0,0,0,3.09.24c.79.09,1.73.42,2.44-.08a.28.28,0,0,0,.13-.31Z"/><path class="cls-3" d="M83.55,89.53A3.65,3.65,0,0,0,85,89.31a2.54,2.54,0,0,1,2.28.55c.81.73,2-.48,1.2-1.19a3.83,3.83,0,0,0-3.22-1c-.77.14-2,.78-1.82,1.72a.21.21,0,0,0,.15.15Z"/><path class="cls-3" d="M83.89,88.53a3.4,3.4,0,0,1,.82-.38c1-.4.07-1.69-.6-1a2.37,2.37,0,0,0-.58,1.12c-.06.19.18.41.36.28Z"/><path class="cls-3" d="M84.07,86.1a5.85,5.85,0,0,0-1.55-.37l.26,1,.1-.08a.6.6,0,0,0-.57-1l-.12,0c-.74.27-.41,1.46.33,1.18a6.13,6.13,0,0,0,1.55-.62.11.11,0,0,0,0-.19Z"/><path class="cls-3" d="M87.51,68.29A1.06,1.06,0,0,0,85.79,68a1.55,1.55,0,0,0-.58,1c-.06.31,0,.7-.26,1a5.93,5.93,0,0,1-.91.45,3.35,3.35,0,0,0-1.83,2.48A1.44,1.44,0,0,0,84,74.37c.9-.18.51-1.64-.38-1.38-.19.06.56-1,.61-1a3.91,3.91,0,0,1,.61-.43A4.32,4.32,0,0,0,86,70.8a1.66,1.66,0,0,0,.39-1.08c0-.71.16-1,1-1.13a.2.2,0,0,0,.17-.3Z"/><path class="cls-3" d="M83,73.85c0,1,1.18,2.07,1.87,2.67s1.86,1.7,2.89,1.54a.5.5,0,0,0,.29-.72c-.23-.46-.63-.6-1.06-.86a14.51,14.51,0,0,1-1.44-1c-.68-.54-1.37-1.62-2.23-1.84a.26.26,0,0,0-.32.24Z"/><path class="cls-3" d="M87.36,78.22c1.42-1.3,4.78-3.26,4-5.62-.13-.4-.79-.47-.88,0a5.33,5.33,0,0,1-1.79,3.19,4.6,4.6,0,0,0-1.6,2.29.14.14,0,0,0,.24.14Z"/><path class="cls-3" d="M91.15,72.76c.23-.54-.1-1.08-.32-1.57-.36-.75-.52-1.62-.92-2.35-.81-1.46-2.67-1.2-3.67-.09-.57.63.16,1.7.93,1.22.25-.16.6-.51.91-.52s.45.29.57.6a9.19,9.19,0,0,0,.73,1.67c.14.24,1.45,1.78,1.77,1Z"/><path class="cls-3" d="M88,68.86c-.94-.3-1.85,1-2.41,1.56s-1,1-1.41,1.56-.69.71-.51,1.26a.35.35,0,0,0,.23.23c1,.15,1.65-1.2,2.19-1.86.38-.45.73-.92,1.09-1.38a10.93,10.93,0,0,0,.93-1.11.18.18,0,0,0-.11-.26Z"/><path class="cls-3" d="M84.28,74.21c.7.24,1.63-.72,2.11-1.13a18.92,18.92,0,0,0,2.24-2.41c.65-.79-.49-1.93-1.13-1.13-.79,1-1.66,1.93-2.45,2.93-.13.16-1.42,1.51-.77,1.74Z"/><path class="cls-3" d="M84.57,75.23A4.45,4.45,0,0,0,86.9,74a16.28,16.28,0,0,0,2.39-2.23.79.79,0,0,0-1.12-1.12c-.79.67-1.49,1.45-2.24,2.17a5.4,5.4,0,0,0-1.64,2.07.29.29,0,0,0,.28.36Z"/><path class="cls-3" d="M85.68,75.76a10,10,0,0,0,1.16-.52,10.13,10.13,0,0,0,1-.72,9.24,9.24,0,0,0,1.73-1.86c.51-.79-.63-1.62-1.28-1s-1,1.18-1.55,1.75-.95,1.24-1.46,1.82a.33.33,0,0,0,.4.52Z"/><path class="cls-3" d="M86.29,76.17c.75.21,1.48-.4,2-.83a7.69,7.69,0,0,0,1.85-2c.46-.74-.66-1.65-1.22-1s-1,1.36-1.62,2-1.06,1-1.14,1.65c0,.06,0,.12.1.14Z"/><path class="cls-3" d="M87.06,77.13a8.71,8.71,0,0,0,2.64-2c.57-.67,1.53-1.64,1.13-2.55a.5.5,0,0,0-.56-.23c-.77.15-1.17,1.39-1.6,2a16,16,0,0,1-2,2.3c-.26.24.07.63.36.48Z"/><path class="cls-3" d="M84.16,74.09c-.36.73.61,1.44,1.09,1.82.66.53,1.57,1.56,2.46,1.51a.71.71,0,0,0,.67-.88c-.17-.54-.5-.73-.95-1s-.88-.6-1.31-.91-1.62-1.21-2-.5Z"/><path class="cls-3" d="M87,78.2a.77.77,0,0,0,.36.46.4.4,0,0,0,.55-.14.72.72,0,0,0,0-.59c-.18-.61-1.17-.33-1,.27Z"/><path class="cls-3" d="M74.83,61.38c1.47-.78,2.3,3.14,2.46,4.07.55,3.13-2,3.42-4,1.93-.71-.52-1.43.69-.69,1.2,2.51,1.75,6.7,1,6.13-2.75-.19-1.25-2-7.74-4.23-4.91a.3.3,0,0,0,.36.46Z"/><path class="cls-3" d="M73.11,68.27c1.94-1.49,2.32-4.49,2-6.75-.13-.89-1.62-.68-1.57.21A12.55,12.55,0,0,1,73.38,65c-.2,1-.58,1.94-.74,2.94,0,.23.22.55.47.36Z"/><path class="cls-3" d="M74.54,62.27c1,.33,1,1.77,1.15,2.68a9.35,9.35,0,0,1,.22,1.39c0,.87-.43.75-1.21.54l.51,1.25A7.2,7.2,0,0,0,76,63c-.24-1.14-2-.66-1.74.48a5.38,5.38,0,0,1-.55,3.81.86.86,0,0,0,.51,1.25,2.79,2.79,0,0,0,2.9-.45c.78-.85.46-2.09.28-3.11s-.27-2.55-1.07-3.37a1.27,1.27,0,0,0-2.07.08.42.42,0,0,0,.25.6Z"/><path class="cls-3" d="M75.23,68.3a1.28,1.28,0,0,0-.17.42s0,.07.07,0a1.49,1.49,0,0,0,.17-.43s0-.06-.07,0Z"/><path class="cls-3" d="M75.1,69.2a1,1,0,0,0,.75.88,1.31,1.31,0,0,0,1.35-.31.63.63,0,0,0-.45-1.07c-.45,0-.92.15-1.38.14a.28.28,0,0,0-.27.36Z"/><path class="cls-3" d="M74,62.59a2.08,2.08,0,0,0-1.85,1.9c-.13.89.09,2.86,1.14,3.11a.4.4,0,0,0,.44-.18c.39-.68-.16-1.31-.3-2a2.11,2.11,0,0,1,.82-2.25c.34-.17.08-.62-.25-.57Z"/><path class="cls-3" d="M89.89,54.57c-.81-.53-2.45-1.1-2.26-2.35.12-.78,1.36-1.17,1.82-1.81s-.56-1.43-1.13-.87c-1.07,1-2.52,1.5-2.18,3.32a3.73,3.73,0,0,0,3.46,2.77c.61.07.72-.78.29-1.06Z"/><path class="cls-3" d="M88.79,49.92a5,5,0,0,0,2.11.64c.66.13,1.42.54,2,.15a.53.53,0,0,0,.19-.71c-.35-.72-1.41-.72-2.12-.82a3.17,3.17,0,0,0-2.21.25.29.29,0,0,0,0,.49Z"/><path class="cls-3" d="M92.27,50c.28,1.76,1.26,3,.51,4.85-.12.3-1.11,2.18-1.55,1.86-.07-.05.18-1.72.14-2a2.4,2.4,0,0,0-.53-1.22c-.27-.32-.71-.36-1-.63-.46,0-.51-.21-.16-.62,0-.39.17-.6.52-.64.75-.29,1.62.69,1.63,1.4A5.62,5.62,0,0,1,91,56l1.29.35c.2-1.69.24-3.32-1.09-4.55-.75-.69-1.87.45-1.11,1.1,1,.89,1,2.2.82,3.45-.08.74.94.86,1.28.35,1.23-1.83,2.14-6.77-1.42-6.68a3.44,3.44,0,0,0-3,2c-.42,1.26.36,1.85,1.35,2.32s.79,1.2.77,2.26a2,2,0,0,0,.36,1.32c1,1.1,2.42-.19,3.07-1,1.5-1.82,2.12-6.19-.65-7.24-.25-.09-.41.17-.38.38Z"/><path class="cls-3" d="M89.05,52.59c.13.38.45.51.78.69a3,3,0,0,0,1.26.48.78.78,0,0,0,.55-1.32A2.18,2.18,0,0,0,90,51.89c-.34,0-1.06.19-.9.7Z"/><path class="cls-3" d="M89.27,51.73a2,2,0,0,0,1.31,1.73.67.67,0,0,0,.82-.82,2,2,0,0,0-1.8-1.23.33.33,0,0,0-.33.32Z"/><path class="cls-3" d="M103.2,55c-.84,4.13,4.63,9.07,7.79,4.8,1.18-1.59,1.49-4.62.17-6.24a2.4,2.4,0,0,0-2.53-.72,39.65,39.65,0,0,0-4.82,1.64c-1,.36-.59,1.92.44,1.6a45.16,45.16,0,0,1,4.29-1.46c1-.19,1.57,0,1.8,1a4.42,4.42,0,0,1-.31,2.91c-1,2-3.19,1.94-4.51.31a15.15,15.15,0,0,1-1.82-3.91c-.09-.21-.45-.15-.5.07Z"/><path class="cls-3" d="M103.84,55.35a4.85,4.85,0,0,0,1.86,4.31,2.77,2.77,0,0,0,4.07-.47c1-1.1,1.55-3,.47-4.29-1.26-1.45-3.91,0-5.34.45a.87.87,0,0,0-.51,1.25c.76,1.53,2.78,3.69,4.46,1.81a1.64,1.64,0,0,0,.12-2.15c-.73-.88-1.59-.21-2.43,0-1.07.23-.61,1.94.45,1.64a2,2,0,0,0,.49-.17c.51-.34,0-.2-.43-.4a3,3,0,0,1-1.19-1.57L105.35,57a15.21,15.21,0,0,1,3-.92.55.55,0,0,1,.79.17,1.72,1.72,0,0,1,0,.9,2.49,2.49,0,0,1-.9,1.34c-1.73,1.23-3.07-2.22-4-3.23a.22.22,0,0,0-.38.1Z"/><path class="cls-3" d="M98.69,44.87a1.56,1.56,0,0,0,1.24.35.93.93,0,0,0,.89-1.17,1,1,0,0,0-1.36-.55,1.41,1.41,0,0,0-.92.81.58.58,0,0,0,.15.56Z"/><path class="cls-3" d="M94.63,78.74a4.09,4.09,0,0,0,.42.2.92.92,0,1,0,.47-1.73,1.32,1.32,0,0,0-.89.21.77.77,0,0,0,0,1.32Z"/><path class="cls-3" d="M73.1,79a2.27,2.27,0,0,0,.89-.11.85.85,0,0,0-.45-1.63,2,2,0,0,0-.82.33A.76.76,0,0,0,73.1,79Z"/><path class="cls-3" d="M119,73.57a2,2,0,0,0,.82.65.84.84,0,0,0,1.24-1,.85.85,0,0,0-.81-.62,1.8,1.8,0,0,0-1,.09.61.61,0,0,0-.22.83Z"/><path class="cls-3" d="M122.83,44.38a4.77,4.77,0,0,0,1.41,0,1,1,0,1,0-.25-1.89,5.31,5.31,0,0,0-1.32.62c-.42.3-.45,1.12.16,1.23Z"/><path class="cls-3" d="M72.43,89a.71.71,0,0,0,.1.14.85.85,0,1,0,0-.86.71.71,0,0,0-.1.14.6.6,0,0,0,0,.58Z"/><path class="cls-2" d="M75.69,96.94c.29-.52,2.08,0,2.5.11.63.09,1.28.17,1.92.22.18,0,.22-.27,0-.31a25.46,25.46,0,0,0-3.68-.72c-.49-.06-1.07-.06-1.17.54a.21.21,0,0,0,.39.16Z"/><path class="cls-2" d="M72.81,96.29c1.09-.12,1.39,1.11,2,1.79a3.16,3.16,0,0,0,1.73,1.17.27.27,0,0,0,.21-.48,8.31,8.31,0,0,1-1.26-.87,10.57,10.57,0,0,1-.92-1.37,1.59,1.59,0,0,0-1.79-.8c-.28.1-.26.6.08.56Z"/><path class="cls-2" d="M70.45,86.55c.64-.91.38-1.79,0-2.79-.86-2.12-2.22-3.77-1.3-6.18.1-.27-.3-.4-.44-.18a4.07,4.07,0,0,0-.21,3.75c.5,1.41,2.53,3.79,1.79,5.3a.1.1,0,0,0,.18.1Z"/><path class="cls-2" d="M70,82.33c.83-.24,1.45-1,2.31-1.27a19.8,19.8,0,0,1,2.65-.34.24.24,0,0,0,0-.43,4.09,4.09,0,0,0-3,.21c-.76.3-1.92.84-2.13,1.7a.11.11,0,0,0,.13.13Z"/><path class="cls-2" d="M94,80.63c-.65,1,.65,2.21,1,3.11.6,1.32.63,2.77,1.64,3.88.3.33.81-.17.49-.48-1-1-1.07-2.36-1.63-3.57a7.32,7.32,0,0,0-.61-1,6.06,6.06,0,0,1-.82-1.92.07.07,0,0,0-.12,0Z"/><path class="cls-2" d="M100.06,72.68a2.63,2.63,0,0,0,1.63.81,16.12,16.12,0,0,1,3.11.93c1.12.46,2.39,1,3.41.13.16-.13,0-.35-.15-.37a10.82,10.82,0,0,1-2.46-.3c-.58-.19-1.13-.49-1.71-.7-1.17-.41-2.45-.49-3.65-.8a.18.18,0,0,0-.18.3Z"/><path class="cls-2" d="M112.89,67.16a3.17,3.17,0,0,0,2.27-.34c.4-.23.65-.63,1-.87.65-.42.55-.27,1,.21.88.87,2.18,1.6,3.27.58.2-.19,0-.48-.26-.44a3,3,0,0,1-1.6.08c-.56-.22-.79-.8-1.19-1.16-.21-.19-.34-.41-.67-.44a1.08,1.08,0,0,0-.85.38,4.6,4.6,0,0,1-3,1.53c-.24,0-.34.41-.06.47Z"/><path class="cls-2" d="M117,65.2a.54.54,0,0,1,.38.37l.07-.27a.78.78,0,0,0-.16.24c-.08.16,0,.4.25.33a.75.75,0,0,0,.25-.13.29.29,0,0,0,.1-.38,1.1,1.1,0,0,0-.78-.59.22.22,0,0,0-.11.43Z"/><path class="cls-2" d="M124.9,66c1.84-.69,4.45.09,5.7-1.89.2-.3-.17-.6-.46-.46-.51.25-.93.61-1.46.83a6.3,6.3,0,0,1-2.06.37,2.11,2.11,0,0,0-1.91.9c-.06.12.05.31.19.25Z"/><path class="cls-2" d="M95.37,61.06a7.76,7.76,0,0,1,1-.19,1.06,1.06,0,0,1,1,1.34.42.42,0,0,0,.39.52,1.93,1.93,0,0,1,1.66,1.43.37.37,0,0,0,.72-.2,2.68,2.68,0,0,0-2.38-2l.39.51a1.85,1.85,0,0,0-1-2.2c-.64-.24-1.68-.12-1.87.65,0,.08,0,.19.13.18Z"/><path class="cls-2" d="M98.11,68.29c1.9,1,5.62.83,7.06-.94a.24.24,0,0,0-.23-.39c-1.13.21-2.12.83-3.29,1a17.1,17.1,0,0,1-3.43-.07.22.22,0,0,0-.11.4Z"/><path class="cls-2" d="M82.61,74.27c-.24,1,.67,2.23,1.33,2.93A5.75,5.75,0,0,0,87.16,79c.56.09.81-.76.23-.87a5.07,5.07,0,0,1-3.93-2.79,5.82,5.82,0,0,0-.58-1.14.16.16,0,0,0-.27.07Z"/><path class="cls-2" d="M83.4,75.93A5.55,5.55,0,0,0,86,78.86a2.15,2.15,0,0,0,2.81-.53.24.24,0,0,0-.26-.34,3.5,3.5,0,0,1-2.85-.2,12,12,0,0,1-2.06-2c-.13-.13-.29,0-.23.17Z"/><path class="cls-2" d="M87.53,78.94a6.65,6.65,0,0,0,2.53-2,7.1,7.1,0,0,0,1.72-2.79c0-.18-.21-.36-.34-.19-.67.8-1.12,1.76-1.8,2.57S88.09,78,87.42,78.75c-.07.08,0,.23.11.19Z"/><path class="cls-2" d="M72,69.22a4,4,0,0,0,1.77,1.12,3.75,3.75,0,0,0,2.28.52.32.32,0,0,0,.14-.52,4.73,4.73,0,0,0-1.93-.75A7.35,7.35,0,0,0,72.1,69a.17.17,0,0,0-.14.25Z"/><path class="cls-2" d="M72.35,69.15c1.72,1.51,6.66,3,7.16-.47.09-.59-.81-.85-.9-.25-.52,3.35-4.4.17-6.11.35-.16,0-.3.23-.15.37Z"/><path class="cls-2" d="M85.24,52.74c.17,2,3.06,3.93,5,3a.38.38,0,0,0-.09-.68,7.93,7.93,0,0,1-2.69-.47,5.82,5.82,0,0,1-1.85-1.94c-.09-.12-.33-.1-.32.09Z"/><path class="cls-2" d="M89.39,55.52a2.06,2.06,0,0,0-.06,3c.62.61,2.31.79,2.4-.39a.36.36,0,0,0-.46-.35c-.25,0-.43.22-.68.25a.84.84,0,0,1-.79-.36,2.37,2.37,0,0,1-.06-1.9.21.21,0,0,0-.35-.21Z"/><path class="cls-2" d="M102.92,54.86A5.71,5.71,0,0,0,105.35,62a4.74,4.74,0,0,0,6.31-2,.2.2,0,0,0-.34-.2,4.12,4.12,0,0,1-6,.53c-1.77-1.4-2.19-3.26-2.18-5.41,0-.16-.21-.16-.26,0Z"/><path class="cls-2" d="M101.8,34.67a2.79,2.79,0,0,0,.7,2.64c.5.46,1.63.83,2.08.13a.32.32,0,0,0-.27-.47,2.71,2.71,0,0,1-.75.1,1.28,1.28,0,0,1-.8-.56c-.39-.58-.28-1.29-.58-1.89a.21.21,0,0,0-.38.05Z"/><path class="cls-2" d="M103.69,37.39c1.31,1.43,3.22,2.17,4.87.9.75-.58,1.89-.73,2.5-1.49a2.87,2.87,0,0,0,.07-2.84c-.06-.14-.29-.14-.29,0,.06,1.3.27,2.12-1.19,2.9-.37.2-.81.35-1.2.55-1.09.59-1.63,1-2.91.5A17.89,17.89,0,0,1,104,37a.23.23,0,0,0-.27.35Z"/><path class="cls-2" d="M120.2,30.11c-.86,2.32-.17,5.7,2.42,6.58a3.07,3.07,0,0,0,3.94-3.54c0-.27-.46-.15-.41.11.55,2.48-2.45,3.18-4.13,2.09s-1.78-3.28-1.5-5.15a.17.17,0,0,0-.32-.09Z"/><path class="cls-2" d="M93.65,31.08c-1.9,1.24-.11,3.67,1.36,4.33a3.92,3.92,0,0,0,3.18.13,3,3,0,0,0,1.36-2.65.17.17,0,0,0-.32-.08,3.36,3.36,0,0,1-1.08,1.72,3.36,3.36,0,0,1-2.34.1c-1.64-.37-3.14-1.61-2-3.35a.15.15,0,0,0-.2-.2Z"/><path class="cls-2" d="M93.5,31.84a1.34,1.34,0,0,0-.18,1.29.13.13,0,0,0,.23,0,8.91,8.91,0,0,0,.16-1.17c0-.12-.15-.2-.21-.09Z"/><path class="cls-2" d="M91.14,43c.24-.64.28-1.36.47-2a13.1,13.1,0,0,1,.88-2.13c.22-.42-.42-.8-.65-.37A7.86,7.86,0,0,0,90.71,43c0,.24.36.19.43,0Z"/><path class="cls-2" d="M92,38.92a4.44,4.44,0,0,0,1.14.23,2.52,2.52,0,0,0,1.19,0,.4.4,0,0,0,0-.76,2.39,2.39,0,0,0-1.19,0,4.43,4.43,0,0,0-1.14.22.2.2,0,0,0,0,.38Z"/><path class="cls-2" d="M93.88,38.74c-.54.71.27,1.39.94,1.52a5.26,5.26,0,0,0,3.61-.59.33.33,0,0,0-.17-.61c-.74,0-3.83,1-4-.27,0-.2-.29-.17-.38,0Z"/><path class="cls-2" d="M80.31,58.39a1.19,1.19,0,0,0,.5-1.35,4.85,4.85,0,0,0-.45-.95c-.21-.4-.13-.83-.33-1.19a.21.21,0,0,0-.23-.09l-.13,0a.37.37,0,0,0-.25.25,1.49,1.49,0,0,0,.18,1.23c.21.38,1.07,1.19.43,1.59-.31.19,0,.68.28.49Z"/><path class="cls-2" d="M78.82,54.18a29.4,29.4,0,0,0,4.92-3.9c.19-.19-.07-.55-.3-.39A29.64,29.64,0,0,0,78.69,54c-.08.09,0,.24.13.17Z"/><path class="cls-2" d="M111.19,46.82c.7.32,2,.9,2.59.17a.49.49,0,0,0,0-.7c-.63-.51-1.61-.19-2.37-.28-.42-.06-.6.64-.22.81Z"/><path class="cls-2" d="M113.06,46.66a1.09,1.09,0,0,0,.66,1.22,2.26,2.26,0,0,0,.93.13c.3,0,.33-.1.51.29.09.21.1.46.19.68.46,1.1,2,2.17,3.21,1.47a.42.42,0,0,0-.1-.76,3.68,3.68,0,0,1-1.56-.4c-.64-.45-.56-1.12-.87-1.75-.61-1.24-1.73-.26-2.63-1-.1-.08-.31-.08-.34.09Z"/><path class="cls-2" d="M116.66,47c.68-.15,1.32-.42,2-.61s1.26-.13,1.68-.55a.32.32,0,0,0-.07-.5c-.58-.34-1.38,0-2,.2a4.4,4.4,0,0,0-1.84,1.08.23.23,0,0,0,.22.38Z"/><path class="cls-2" d="M122.13,44.52a2.7,2.7,0,0,0,2,.54c.59-.05,1.42-.16,1.64-.77a.23.23,0,0,0-.15-.28c-.49-.2-1.09.12-1.6.17s-1.19,0-1.79,0c-.16,0-.29.23-.14.34Z"/><path class="cls-2" d="M98.2,44.62c-.17,1,1.81,1.63,2.31.81a.33.33,0,0,0-.28-.49c-.32,0-.58.15-.92.05s-.47-.38-.76-.51a.24.24,0,0,0-.35.14Z"/><path class="cls-2" d="M118.77,73.36c-.28.43.27,1,.6,1.17a1.39,1.39,0,0,0,1.57.12.15.15,0,0,0-.08-.28,2.16,2.16,0,0,1-1.27-.23c-.32-.2-.43-.61-.75-.79a.06.06,0,0,0-.07,0Z"/><path class="cls-2" d="M94,78.19c-.18,1,2.06,1.53,2.54.75a.26.26,0,0,0-.15-.37c-.4-.06-.76.16-1.17.05s-.65-.48-1-.54a.17.17,0,0,0-.2.11Z"/><path class="cls-2" d="M93.55,81.42a7.83,7.83,0,0,0,.84,1.38,13.1,13.1,0,0,1,.83,1.88c.34.89.61,2.13,1.42,2.7.23.16.47-.1.42-.32a6.78,6.78,0,0,0-.73-1.57c-.29-.6-.53-1.23-.81-1.83-.37-.8-.93-2.11-1.87-2.34a.08.08,0,0,0-.1.1Z"/><path class="cls-2" d="M84.09,68.31a1.58,1.58,0,0,1,.6-.35,1.44,1.44,0,0,0,.41-.15.37.37,0,0,0,.09-.49.38.38,0,0,0-.42-.17,1.61,1.61,0,0,0-1,.87.24.24,0,0,0,.37.29Z"/><path class="cls-4" d="M95.88,30.7a7,7,0,0,1,1.42-.34,3.47,3.47,0,0,0,1.12-.08.15.15,0,0,0,0-.24c-.64-.63-2.16-.1-2.71.43a.14.14,0,0,0,.13.23Z"/><path class="cls-4" d="M104.68,33.63a9.24,9.24,0,0,0,1.89-.12,4.12,4.12,0,0,0,1.47-.36c.15-.09.06-.3-.09-.32a6.06,6.06,0,0,0-1.58.16c-.58.09-1.17.11-1.75.24-.24.05-.16.39.06.4Z"/><path class="cls-4" d="M122.1,30.52c.46-.05.88-.24,1.35-.28s.87,0,1.29-.11c.23,0,.22-.33.06-.44a2.59,2.59,0,0,0-2.91.33c-.16.17-.06.53.21.5Z"/><path class="cls-4" d="M132.28,47.76c-.28.93-.52,1.88-.88,2.78-.3.72-1,1.45-.93,2.24a.27.27,0,0,0,.35.27c.86-.31,1.18-1.4,1.46-2.2a6.25,6.25,0,0,0,.31-3.09c0-.16-.27-.14-.31,0Z"/><path class="cls-4" d="M106.17,56.64a3.77,3.77,0,0,1,1-.21,2.93,2.93,0,0,1,1,.28.48.48,0,0,0,.48-.13.71.71,0,0,0,.13-.22.49.49,0,0,0-.23-.56,2.26,2.26,0,0,0-2.75.48c-.13.18.09.42.28.36Z"/><path class="cls-4" d="M89.43,52.29v0a.33.33,0,0,0,.3.17,3.83,3.83,0,0,1,1.17,0,1.3,1.3,0,0,0,.93,0A.35.35,0,0,0,92,52c-.35-.77-1.81-.47-2.39-.16a.33.33,0,0,0-.16.38.14.14,0,0,0,0,.06Z"/><path class="cls-4" d="M84.32,72.38c.49,0,1-.11,1.46-.06a5.73,5.73,0,0,0,1.36.2.27.27,0,0,0,.19-.45c-.66-.72-2.43-.52-3.12.06a.15.15,0,0,0,.11.25Z"/><path class="cls-4" d="M87.17,69.81a1.09,1.09,0,0,1,.83.07,1,1,0,0,0,.53.18.27.27,0,0,0,.26-.26c-.06-.85-1.28-.75-1.81-.43a.24.24,0,0,0,.19.44Z"/><path class="cls-4" d="M100.42,66.83a1.11,1.11,0,0,1,1.69-.37.3.3,0,0,0,.33,0,.32.32,0,0,0,.12-.11.35.35,0,0,0,0-.4,1.67,1.67,0,0,0-2.64.56c-.18.36.36.69.55.32Z"/><path class="cls-4" d="M125.51,73a3,3,0,0,1,1.44.61c.38.31.58.79,1,1a.39.39,0,0,0,.49-.28c.1-.63-.51-1.17-1-1.48a2.88,2.88,0,0,0-1.87-.43c-.32,0-.46.54-.09.6Z"/><path class="cls-4" d="M120.44,73.16c-.11-.26-.53-.26-.53.07s.67.28.53-.07Z"/><path class="cls-4" d="M95.05,77.83a.5.5,0,0,0,.43,0c.21-.07.18-.41,0-.4a.59.59,0,0,0-.44.16c-.09.07,0,.21.06.24Z"/><path class="cls-4" d="M104.17,82.14a3,3,0,0,1,1.79-.71c.76,0,1.12.55,1.7.91a.24.24,0,0,0,.35-.27c-.47-1.65-3.42-1.67-4.16-.25-.1.2.11.45.32.32Z"/><path class="cls-4" d="M104.25,86.31l.49-.12c.23-.06.19-.45-.06-.42l-.5,0a.25.25,0,1,0,.07.5Z"/><path class="cls-4" d="M85.38,88.47a3.19,3.19,0,0,1,1.9.24c.33.12.87.13.85-.36s-.84-.73-1.26-.8a4,4,0,0,0-1.72.09.43.43,0,0,0,.23.83Z"/><path class="cls-4" d="M80.78,111a12.6,12.6,0,0,0,1.77.35c.6.17,1.11.64,1.72.72a.29.29,0,0,0,.28-.37c-.44-1.07-2.9-1.7-3.8-.91a.13.13,0,0,0,0,.21Z"/><path class="cls-4" d="M98,108.14a4.53,4.53,0,0,1,1-1.62,2.42,2.42,0,0,1,1-.52,9.71,9.71,0,0,0,1.08-.17.26.26,0,0,0,.06-.48,2.71,2.71,0,0,0-3.42,2.75.14.14,0,0,0,.26,0Z"/><path class="cls-4" d="M117.48,92.56a4.45,4.45,0,0,1,1.16-1.71,10.48,10.48,0,0,0,1.41-1.14c.14-.2-.06-.43-.25-.44-.72-.07-1.44.61-1.87,1.11a5.32,5.32,0,0,0-1.09,2c-.13.41.5.57.64.17Z"/><path class="cls-4" d="M73.5,78l.15,0a.22.22,0,0,0,0-.42l-.15,0c-.42-.11-.42.62,0,.5Z"/><path class="cls-4" d="M73.12,88.72l.18.07c.29.13.55-.27.26-.44l-.16-.09c-.31-.19-.59.33-.28.46Z"/><path class="cls-4" d="M75,62.24a1.79,1.79,0,0,1,1.25,0c.57.18.82-.73.25-.89a1.61,1.61,0,0,0-1.75.49c-.15.18,0,.55.25.44Z"/><path class="cls-4" d="M76.06,68.61a3,3,0,0,0,1.41-1.23c.06-.16-.12-.27-.25-.25a3.15,3.15,0,0,0-1.43,1.13.22.22,0,0,0,.27.35Z"/><path class="cls-4" d="M99.46,44.2a.87.87,0,0,0,.77-.06.27.27,0,0,0-.06-.48.84.84,0,0,0-.76.16.21.21,0,0,0,0,.38Z"/><path class="cls-4" d="M123.76,43.47a2.72,2.72,0,0,0,.75,0,.29.29,0,0,0,0-.55,2.7,2.7,0,0,0-.75,0,.24.24,0,0,0,0,.48Z"/><path class="cls-4" d="M114.32,26.19a1.37,1.37,0,0,0,1.17-.62c.6-.65,1.05-1.38,2-1.41a.14.14,0,0,0,0-.27,1.69,1.69,0,0,0-1.65.63c-.27.26-.49.57-.75.84s-.58.48-.85.74a.06.06,0,0,0,0,.09Z"/><path class="cls-4" d="M90,29.33a8.9,8.9,0,0,1,1.46.12c.39.1.76.43,1.17.38a.18.18,0,0,0,.18-.23c-.14-.5-.83-.66-1.28-.75A2.43,2.43,0,0,0,89.9,29c-.19.1-.08.34.09.36Z"/><path class="cls-4" d="M104.18,28.57c.51,0,1,0,1.53,0a2.7,2.7,0,0,0,1.24-.12.21.21,0,0,0,0-.36,2.11,2.11,0,0,0-1.34-.12,6.09,6.09,0,0,0-1.47.3.16.16,0,0,0,0,.31Z"/><path class="cls-4" d="M119.13,6.9c0-.29-.08-.58-.07-.88a5.1,5.1,0,0,0,.07-.87c0-.19-.23-.4-.43-.25a1.62,1.62,0,0,0-.07,2.21.3.3,0,0,0,.5-.21Z"/><path class="cls-4" d="M89,62.81a5.58,5.58,0,0,1,1.4-.21c.45,0,.84.24,1.29.26a.23.23,0,0,0,.19-.34,2.46,2.46,0,0,0-3.13-.14c-.21.19,0,.46.25.43Z"/><path class="cls-4" d="M112.1,74.42a4,4,0,0,0,2.2-.23.23.23,0,0,0-.12-.43c-.35,0-.68.11-1,.13a5.27,5.27,0,0,1-1.05,0c-.36,0-.36.52,0,.56Z"/><path class="cls-4" d="M92,96.78a11.25,11.25,0,0,0,1.64.16,4.75,4.75,0,0,0,1.64,0,.23.23,0,0,0,0-.44,4.53,4.53,0,0,0-1.52-.17,13.78,13.78,0,0,0-1.7,0c-.24,0-.34.4-.06.46Z"/><path class="cls-4" d="M83.71,101.62a2.21,2.21,0,0,0,2.6-.42c.18-.18-.06-.53-.28-.37a1.91,1.91,0,0,1-2,.26c-.35-.17-.66.37-.31.53Z"/><path class="cls-4" d="M78.67,80.81a2.83,2.83,0,0,0,3.23.41.13.13,0,0,0-.07-.23,5.59,5.59,0,0,1-3-.43c-.16-.09-.28.14-.14.25Z"/><path class="cls-4" d="M62.15,80.14a8.94,8.94,0,0,1,4.53-1.32c.41,0,.41-.64,0-.65A5.81,5.81,0,0,0,62,80a.11.11,0,0,0,.13.17Z"/><path class="cls-4" d="M72.76,56.71a3.89,3.89,0,0,0,.74-1.16A8.27,8.27,0,0,1,74.67,54a7,7,0,0,1,1.41-1.13,10.57,10.57,0,0,0,1.32-.73.17.17,0,0,0-.12-.28c-1.12,0-2.38,1-3.14,1.8s-1.81,1.94-1.6,3a.13.13,0,0,0,.22.06Z"/><path class="cls-4" d="M71.32,106.31a5.22,5.22,0,0,0,1.1-3.15c0-.22-.37-.24-.46-.06a7.17,7.17,0,0,0-.4,1.39,13.77,13.77,0,0,1-.53,1.65.17.17,0,0,0,.29.17Z"/><path class="cls-1" d="M67.24,44.35v0a.58.58,0,0,0-.64-.26,1.44,1.44,0,0,0-.85,2,1.53,1.53,0,1,0,2.69-1.45,1.24,1.24,0,0,0-2.16,0,.75.75,0,0,0,.18.94.73.73,0,0,0,1-.06c.13-.16.06-.06,0-.11s-.07.15-.06.13c-.13.19-.41.35-.57.05s.11-.41.27-.57a.6.6,0,0,0,.14-.71Z"/><path class="cls-1" d="M69,29.08l0,0a.5.5,0,0,0,.41.24c.61,0,1.21-.11,1.82-.11s1,.13,1.53-.23a.37.37,0,0,0,.12-.48c-.72-1.09-2.75-.6-3.71-.06A.47.47,0,0,0,69,29a.19.19,0,0,0,0,.07Z"/><path class="cls-1" d="M82.94,18.33a1.22,1.22,0,0,0-.15,1.58,1.65,1.65,0,0,0,1.73.65c1.66-.35,1.74-2.29,1.39-3.6a.67.67,0,0,0-1.29.36c.13.53.28,1.32-.2,1.74s-.72.05-.68-.4a.47.47,0,0,0-.8-.33Z"/><path class="cls-1" d="M84.52,18c-.13.06-.49.41-.62.37a.53.53,0,1,0,.37.65c0-.12.25-.28.33-.4a.86.86,0,0,0,.15-.49.16.16,0,0,0-.23-.13Z"/><path class="cls-1" d="M83.86,19.5a1.89,1.89,0,0,0,1.42-1.6A.63.63,0,1,0,84,17.73a10.89,10.89,0,0,1-.49,1.35.34.34,0,0,0,.32.42Z"/><path class="cls-1" d="M106.32,8.66c-.63-.42-1.6.19-2,.66a2.56,2.56,0,0,0-.55,2.45c.17.48,1,.45,1-.13a2.12,2.12,0,0,1,.4-1.74c.36-.41.92-.45,1.28-.82a.27.27,0,0,0-.05-.42Z"/><path class="cls-1" d="M103.9,11.44c-.43.2-.34.78-.2,1.14a1.74,1.74,0,0,0,.93,1c.67.3,2.22.16,2.19-.85a.53.53,0,0,0-.5-.5c-.56,0-.93.66-1.48.13-.28-.27-.35-1.15-.94-.89Z"/><path class="cls-1" d="M106.64,12.72c.25-.42,0-1.14,0-1.61a9.87,9.87,0,0,0,0-2,.57.57,0,0,0-.94-.24,2.82,2.82,0,0,0-.3,2.43c.11.56.5,1.47,1.15,1.54a.17.17,0,0,0,.13-.08Z"/><path class="cls-1" d="M105.32,9.7c-.24.17-.49.23-.68.49a3.52,3.52,0,0,0-.38.78,2.22,2.22,0,0,0,.22,2,.82.82,0,0,0,1.5-.63c-.08-.42-.24-.82-.3-1.24a2.9,2.9,0,0,1,0-.59,2.8,2.8,0,0,1,0-.5c0-.19-.16-.39-.34-.27Z"/><path class="cls-1" d="M49.79,53.26a7.57,7.57,0,0,0,1.29-.52c.46-.22.94-.42,1.38-.67a.42.42,0,0,0-.42-.72c-.44.26-.85.57-1.27.86a6,6,0,0,0-1.1.84.13.13,0,0,0,.12.21Z"/><path class="cls-1" d="M49.63,53.38c1.14-.34,2.08-1.12,3.23-1.42a2.18,2.18,0,0,1,2.41.67c.42.66,0,1.36-.18,2a5.19,5.19,0,0,0-.15,1.3c0,.46.18.27-.2.77s-.49.36-1.06.24c-1.13-.24-2.23-.93-3.38-1a.57.57,0,0,0-.48.85c1,1.3,3.64,2,5.22,1.68a1.72,1.72,0,0,0,1.46-1.34A4.49,4.49,0,0,0,56.37,56a5.19,5.19,0,0,1,.36-1.84,2.71,2.71,0,0,0-2.09-3.35c-1.94-.45-4,.85-5.23,2.21-.15.17,0,.46.22.39Z"/><path class="cls-1" d="M50.2,56.78c.56-.37.55-1.23.58-1.84s.26-1.59-.4-2a.44.44,0,0,0-.52.06c-.55.43-.28,1.33-.28,1.94s-.12,1.37.31,1.8a.27.27,0,0,0,.31,0Z"/><path class="cls-1" d="M50.32,53.11c-.8.68-.31,2.24,0,3.06s1.93.52,1.54-.42c-.21-.52-.38-1-.55-1.58a1.9,1.9,0,0,0-.64-1.11.31.31,0,0,0-.35,0Z"/><path class="cls-1" d="M52.09,55.9c0-.9.07-1.79,0-2.69,0-1.17-1.89-1.16-1.81,0,.06.9.21,1.79.3,2.69a.73.73,0,0,0,1.46,0Z"/><path class="cls-1" d="M51,53.35l.58,2.8c.23,1.12,2,.65,1.72-.47l-.7-2.77a.83.83,0,0,0-1.6.44Z"/><path class="cls-1" d="M52.93,56.59a4,4,0,0,0,.69-1.9c.16-.76.27-1.53.36-2.3.15-1.2-1.74-1.19-1.89,0-.09.74-.14,1.48-.17,2.22a3.74,3.74,0,0,0,.22,1.88.51.51,0,0,0,.79.1Z"/><path class="cls-1" d="M52.9,52.4a12,12,0,0,1-.16,3.82c-.22,1.19,1.54,1.71,1.83.51A7.69,7.69,0,0,0,54.21,52a.68.68,0,0,0-1.31.36Z"/><path class="cls-1" d="M54.4,57.19A4.79,4.79,0,0,0,56,52.85a1,1,0,0,0-.72-.94.83.83,0,0,0-.76.1,1,1,0,0,0-.48.84,26.39,26.39,0,0,1-.26,4,.43.43,0,0,0,.65.37Z"/><path class="cls-1" d="M43.46,87.57c-.36-.68-1-1.29-1-2.13a1.8,1.8,0,0,1,1.16-1.39c.43-.16,1.24-.27,1.48.2.15.3,0,.83,0,1.17a9,9,0,0,0,.47,1.28c.11.34.31.6-.08.73s-.41-.14-.64-.36a2.58,2.58,0,0,0-1-.68.75.75,0,0,0-.74.19l-.11.1a.56.56,0,0,0-.09.66c.19.43.64.64,1,.94a3.3,3.3,0,0,0,1.17.75,1.55,1.55,0,0,0,1.88-.9c.43-1-.25-1.8-.5-2.74s.3-1.83-.76-2.49a3.23,3.23,0,0,0-4.37,1.58c-.52,1.22.13,4.09,2,3.42a.23.23,0,0,0,.13-.33Z"/><path class="cls-1" d="M44.32,84.17a1.15,1.15,0,0,0-1.56,0A2,2,0,0,0,42,85.78a2,2,0,0,0,.89,1.56,2.15,2.15,0,0,0,1,.29c.2,0,.41,0,.61,0s.23.17.09,0a.9.9,0,0,0,1.64-.7l-.51-2c-.15-.6-.28-1.22-1-1.41-1.54-.42-1.82,1.85-1,2.67a.74.74,0,0,0,.75.2l.08,0a.93.93,0,0,0,.67-.89,5.35,5.35,0,0,1-.12-.87l-.12.46.07-.11-.33.32h0L44,85.17l.11,0-.32-.33a6.81,6.81,0,0,1,.3,1.15l.36,1.38,1.64-.69a1.87,1.87,0,0,0-1.19-.8c-.28-.05-1,.07-1.16-.16-.35-.55,1-1.07.58-1.6Z"/><path class="cls-2" d="M41,86.57c-.29.27-.13.78,0,1.12a2.07,2.07,0,0,0,.65,1.17c.2.14.4-.09.37-.28a8.29,8.29,0,0,0-.49-1.21c-.09-.29-.1-.64-.37-.81a.1.1,0,0,0-.13,0Z"/><path class="cls-2" d="M41,87.13a4.68,4.68,0,0,0,2,1.76A5.86,5.86,0,0,0,45.2,90c.92.14,2.82-.56,2.07-1.77a.21.21,0,0,0-.29-.08c-.43.33-.65.67-1.22.75a2.72,2.72,0,0,1-1.9-.68c-.82-.52-1.72-1.3-2.73-1.29a.16.16,0,0,0-.13.23Z"/><path class="cls-2" d="M41.29,88.75c.66,1.37,2.56,1.86,4,1.84.74,0,3-.38,2.1-1.63a.36.36,0,0,0-.47-.12c-1.78,1.09-3.65-.08-5.47-.3-.11,0-.16.12-.12.21Z"/><path class="cls-2" d="M47.29,89.05a6.34,6.34,0,0,0,.41-.6c.31-.67-.78-.91-.8-.22A5.74,5.74,0,0,0,47,89a.16.16,0,0,0,.29.08Z"/><path class="cls-2" d="M41.68,88.74a3.3,3.3,0,0,0,.75.48c.73.38,1-.92.24-.91a3,3,0,0,0-.89.06.22.22,0,0,0-.1.37Z"/><path class="cls-2" d="M42.8,84.77a3.39,3.39,0,0,1,1.52-.68.47.47,0,0,0,0-.9,1.77,1.77,0,0,0-2,1.3.29.29,0,0,0,.48.28Z"/><path class="cls-2" d="M49.68,56.32c1,2,3.71,2,5.59,1.84.86-.06.88-1.39,0-1.35a8.1,8.1,0,0,1-5-1.07c-.38-.25-.75.22-.58.58Z"/><path class="cls-2" d="M66,45.45c-.47.44.05,1.07.5,1.24a1.34,1.34,0,0,0,1.67-.54c.2-.46-.13-1.15-.72-.94-.34.12-.43.26-.78.19s-.5-.11-.67.05Z"/><path class="cls-2" d="M69.34,29.51c.6,0,1.16-.27,1.77-.3s1.1.18,1.52-.1a.23.23,0,0,0,.08-.32c-.63-.89-2.88-.3-3.51.37-.12.12,0,.37.14.35Z"/><path class="cls-2" d="M82.8,19.57c-.35,1,1.19,1.34,1.84,1.1a2.1,2.1,0,0,0,1.06-.89A2,2,0,0,0,86,18.26a.23.23,0,0,0-.32-.13,1.12,1.12,0,0,0-.45.51,3.36,3.36,0,0,1-.66.84.87.87,0,0,1-.8.22c-.23-.07-.38-.27-.61-.36a.33.33,0,0,0-.39.23Z"/><path class="cls-2" d="M103.29,12.07c.11,1.48,2.21,2.1,3.32,1.28a.57.57,0,0,0-.44-1,1.88,1.88,0,0,1-1.3,0c-.34-.16-.62-.44-.94-.63a.43.43,0,0,0-.64.37Z"/><path class="cls-4" d="M51.49,52.52a6.1,6.1,0,0,1,1.72-.42,6.69,6.69,0,0,1,1.72.44.33.33,0,0,0,.32-.55c-.9-1.11-3.18-.81-4,.24-.1.14.08.35.23.29Z"/><path class="cls-4" d="M66,45a2.43,2.43,0,0,0,1.51-.15.24.24,0,0,0-.06-.44,2.41,2.41,0,0,0-1.49.23A.2.2,0,0,0,66,45Z"/><path class="cls-4" d="M69.68,28.63a2,2,0,0,0,1.71.07.25.25,0,0,0,0-.43,2,2,0,0,0-1.71.07.17.17,0,0,0,0,.29Z"/><path class="cls-4" d="M83.4,18.63c.72.28,1.7-.87,1.83-1.47a.28.28,0,0,0-.08-.3c-.32-.28-.59.19-.76.42-.29.4-.94.7-1.09,1.18,0,.07,0,.14.1.17Z"/><path class="cls-4" d="M104,10.35a3.89,3.89,0,0,0,.88-.27,3.42,3.42,0,0,0,.95-.25.34.34,0,0,0-.08-.6,1.77,1.77,0,0,0-1.94.87.2.2,0,0,0,.19.25Z"/><path class="cls-5" d="M62,81.79c.78-.44,3.13,1.88,3.72,2.47a21.67,21.67,0,0,1,5.63,9.63c1.46,5.38.48,10.49-1.66,15.51a.07.07,0,0,0,.12.07,21.11,21.11,0,0,0,1-17.87,22.09,22.09,0,0,0-4.41-6.94c-.7-.73-3.32-3.82-4.47-2.94,0,0,0,.1,0,.07Z"/><path class="cls-5" d="M62.63,81.66A1.59,1.59,0,0,1,63,78.88a5.38,5.38,0,0,1,1.2-.2A16.65,16.65,0,0,0,67,77.92c.23-.08,2.22-1.06,2.26-1,.26.2-.17,1.43-.22,1.85,0,.07.11.09.12,0a20.32,20.32,0,0,1,.56-2.17c0-.07-.06-.13-.12-.09a17.5,17.5,0,0,1-4.3,1.75c-.88.22-2.29.15-3,.77a1.71,1.71,0,0,0,.27,2.71c.06,0,.1,0,.05-.07Z"/><path class="cls-5" d="M69.44,76.56a3.9,3.9,0,0,0,1.9-3c.23-1.78.1-3.09,1-4.78A24.24,24.24,0,0,0,74,65.91c1.22-3.06.23-7.15-1.81-9.62-.07-.09-.23,0-.16.12a9.8,9.8,0,0,1,.95,11,13.83,13.83,0,0,0-1.54,2.89c-.69,2.29.47,4.4-2.07,6.14-.07,0,0,.16.06.11Z"/><path class="cls-5" d="M72.77,57.05c-1.16-3.83,7.19-5.9,9.16-7.64s1.76-5,4.19-6.08a.07.07,0,0,0,0-.11c-.67-.63.63-6.56,1-7.31a5.75,5.75,0,0,0,.74-4c-.06-.49-.14-1-.19-1.47-.12-1.39-.17-1,1.44-2,2-1.28,1.12-.93,2.87-.1a16.29,16.29,0,0,0,6.3,1.1.08.08,0,1,0,0-.15,19.7,19.7,0,0,1-4.78-.55c-1.32-.38-2.12-1.21-3.32-1.76-.2-.09-.41-.28-.62-.29A1.87,1.87,0,0,0,87.71,28a5.94,5.94,0,0,0-.12,2.81c.22,2.07.3,3.24-.75,5.22-.92,1.75-.9,3.45-1.31,5.49-.09.46.18,1,.11,1.4-.11.53-.4.62-.71,1-1.46,1.87-1.6,4.26-3.65,5.74-2.21,1.61-5,2.36-7.22,3.95-1.2.86-1.91,1.94-1.38,3.42,0,.06.1,0,.09,0Z"/><path class="cls-5" d="M99.82,28.54c1.84-.34-.83.17,1-.45,2.53-.86,2.49-.3,4.57-.49.6-.06,1.16-.37,1.75-.44,1.71-.2,1.49.32,2.58.16a6.24,6.24,0,0,0,5.13-3.79c0-.06-.07-.12-.1-.06a5.15,5.15,0,0,1-4,3.08,22.94,22.94,0,0,1-2.87.2c-.86.11-1.6.56-2.5.65s-1.82-.28-2.72-.21c-1.39.1-1.42.89-2.86,1.3a0,0,0,1,0,0,.05Z"/><path class="cls-5" d="M115.33,23.78c.18-.6,2.13-1.4,3-1.58s2,.27,2.58.1c.16,0,.36,0,.54-.08,1.36-.84,1.9-3.68,2.2-5.08a5.64,5.64,0,0,0,.24-2.53c-.31-.94-1.27-1.58-1.56-2.59a6.17,6.17,0,0,0-.65-2.19c-.78-1.08-4.25-2.58-2.59-4.31a.09.09,0,0,0-.07-.15l-.43,0a.06.06,0,0,0,0,.12,9.58,9.58,0,0,1-.13,1.41,2.37,2.37,0,0,0,.9,1.34c1.38,1.23,2.45,2,2.84,3.87.23,1.16.64,1.27,1.19,2.14.92,1.48-.08,4.85-1,6.32A1.77,1.77,0,0,1,120.59,22l-.34-.21c-.23,0-.57-.1-.8-.1-1,0-3.93.8-4.2,2.07a0,0,0,1,0,.08,0Z"/><path class="cls-5" d="M118.65,4.71c-.75,1.2-2.85,3.44-2.35,5,.17.53.64.76,1,1.15a4.3,4.3,0,0,1,1.07,3.35c-.12.49-.8,1.05-1,1.52-.46,1-.42,1.93-1.13,2.85A8.09,8.09,0,0,0,115,20.26c-1.6,3.47-3.83,5.91-7.75,6.63,0,0,0,.09,0,.08a10.13,10.13,0,0,0,6.12-3.54,10.94,10.94,0,0,0,1.45-2.5c.57-1.31,1.65-2.18,2.12-3.48a9.71,9.71,0,0,1,.76-2.26,8.18,8.18,0,0,0,1-1.5,1.86,1.86,0,0,0,0-1.58c-.28-.59-.92-.86-1.32-1.35-1.73-2.1.3-4.21,1.36-6,0,0,0,0,0,0Z"/><path class="cls-5" d="M61.88,79.38c-.22,1.42-1.06,3.71-.69,5.13.29,1.12,3.65,3.08,2.51,4.35,0,0,0,.06,0,.07.9.44,1.6.55,2.14,1.49.1.16.27.86.18.71.7,1.2,1.38,2.68,2.13,3.75,1.22,1.73,2.46,2.79,3.11,5s1.38,4.9,0,7c0,.06,0,.11.09.05,1.61-2.37.62-5.72-.31-8.19a9.67,9.67,0,0,0-2-3.07c-.53-.63-3-5.31-2.9-5.89,0,0,0,0,0,0-2.18-.59-1.6-1.09-2.4-2.43-.47-.78-1.56-1.27-1.92-2.08-.76-1.73-.06-4,.18-5.82,0,0,0-.06,0,0Z"/><path class="cls-5" d="M72.78,54.82c-.54.44-2.9,1.87-3,2.61s.16.5.37,1a25.75,25.75,0,0,1,2,11.77c0,.07.1.07.11,0,.33-2.94-.42-5.82-1-8.69a22.07,22.07,0,0,0-.86-2.83c-.42-1.27-.22-1.29.41-2.12a13.41,13.41,0,0,1,2-1.7c.05,0,0-.11-.07-.07Z"/><path class="cls-5" d="M85.18,42.87a0,0,0,0,0,0,0s0,0,0,0Z"/><path class="cls-5" d="M88.09,27.17A4.39,4.39,0,0,0,86,30.43a12.51,12.51,0,0,0,.25,2.35,16.22,16.22,0,0,1-.71,4.87,20.73,20.73,0,0,1-2.44,7c-1.52,2.42-2.53,4.68-4.83,6.54-.07.06,0,.16.09.1A14.34,14.34,0,0,0,82,47c1-1.74,2.28-3.24,2.72-5.16.55-2.41,1.29-4.85,1.66-7.29.42-2.75-1.1-5.31,1.81-7.29.07-.05,0-.17-.07-.12Z"/><path class="cls-5" d="M118.52,4.64h.21s0,0,0,0h-.21s0,0,0,0Z"/><path class="cls-5" d="M118.78,4c.24,2.32,2.78,3.45,4.33,4.86a25.1,25.1,0,0,1,6,8.65,75.69,75.69,0,0,1,2.84,8.46c.92,3,2,6.44,1.24,9.64-.06.24.32.35.38.1a15.17,15.17,0,0,0-.53-7.32c-.75-2.93-1.63-5.91-2.66-8.75a29.74,29.74,0,0,0-4.13-7.87,22.13,22.13,0,0,0-2.9-3.14c-1.49-1.33-4.12-2.5-4.42-4.65,0-.08-.15-.06-.14,0Z"/><path class="cls-5" d="M69.48,109.76c-.41,2.95,4.93,5.57,7.32,6.06,4.53.93,10.15,2.11,14.38-.23.13-.08,0-.31-.1-.25-3.86,1.54-7.23,1-11.21.52A15.73,15.73,0,0,1,74,114.43c-1.38-.75-4.49-2.8-4.43-4.66,0,0-.09-.07-.1,0Z"/><path class="cls-5" d="M90.94,114.94c2.26-1.2,5.3-.84,7.75-1.68a26.63,26.63,0,0,0,6-3.09,60.66,60.66,0,0,0,10.23-8.48,58.58,58.58,0,0,0,14-22.45c.07-.23-.27-.32-.36-.1-3.36,8.55-7.83,16.34-14.34,22.9a58.75,58.75,0,0,1-10.34,8.32,21.89,21.89,0,0,1-7.21,3.23c-2,.4-3.92.24-5.74,1.25-.07,0,0,.13.06.1Z"/><path class="cls-5" d="M129.51,77.34A61,61,0,0,0,135,57.17c.7-7,.67-14.93-1.52-21.66a.09.09,0,0,0-.18.05c1.06,7.16,2.12,13.9,1.44,21.18a71.25,71.25,0,0,1-5.35,20.53c0,.09.12.16.16.07Z"/><path class="cls-5" d="M132,22.36a2.56,2.56,0,0,0-2.21,0c-.07,0,0,.14,0,.11a3.45,3.45,0,0,1,2.13-.05c.06,0,.1-.07,0-.1Z"/><path class="cls-5" d="M131.28,26.07a1.37,1.37,0,0,0-2.06-.35.06.06,0,0,0,.07.09,1.38,1.38,0,0,1,1.85.34c.06.08.2,0,.14-.08Z"/><path class="cls-5" d="M131.94,29.65a1.37,1.37,0,0,0-1.12-.45s0,.08,0,.1a2.14,2.14,0,0,1,1,.45c.06.06.16,0,.1-.1Z"/><path class="cls-5" d="M135.31,46.86c-1.33-.88-4.63-2.68-6.05-1.06-1.18,1.35-.89,4.94-.36,6.43a22.83,22.83,0,0,0,1.81,3.37c.55,1,.67.7,1.29,1.28,1,.91,1.18,2.1,2.86,1.7.13,0,.07-.23-.06-.21l-2.23-1.76c0-.07-.07-.14-.14-.11-.57.22-2.12-2.16-2.53-2.84a7,7,0,0,1-1.16-4c0-2-.07-4.22,3-4.17A7.86,7.86,0,0,1,135.24,47a.07.07,0,0,0,.07-.12Z"/><path class="cls-5" d="M130.44,73.84c-1.32-1.27-6.42-6.82-7-1.71a12.23,12.23,0,0,0,.66,3.86,34.8,34.8,0,0,0,1.06,4.54c.58,1.53,1.72,1.66,3.25,1.57.16,0,.16-.26,0-.25a4.66,4.66,0,0,1-3.1-1.62,6.45,6.45,0,0,1-.4-1.72c-.31-1.29-.64-2.57-.92-3.87-.38-1.81-.67-1.86,1-3.16s1.33-1.15,2.59,0c.92.82,1.8,1.69,2.72,2.51.08.07.19,0,.11-.11Z"/><path class="cls-5" d="M115.81,100.83a2.05,2.05,0,0,0-.25-2.08.09.09,0,0,0-.11,0c-1.74.31-1.74-1.09-1.66-2,.2-2.17,0-1.46,1.1-2.87a7.42,7.42,0,0,0,.81-1.32,15.36,15.36,0,0,0,.62-2c.59-1.88,3.26-3.37,4.89-1.3.7.89.69,2,1.58,2.82.11.09.25-.06.15-.15-1.6-1.63-1.07-3.67-3.73-3.82-2.47-.13-2.67,1.34-3.36,3.34a11.4,11.4,0,0,1-2.15,3.37c-.26.36-.61.53-.7,1,0,.3.29,1,.32,1.23.07.46-.16,1.17.11,1.62.64,1.11,3-1,2.25,2.13,0,.08.1.11.13,0Z"/><path class="cls-5" d="M98.45,113.44c-1.48-1.24-2.06-2-1.84-4a12.87,12.87,0,0,1,.56-3c.84-2.16,1.49-2.34,4.27-2.52,2.63-.17,4.71,2.28,7,3.34.18.08.33-.18.15-.26a21.38,21.38,0,0,1-4-2.58,3.61,3.61,0,0,0-1.12-.73,10.27,10.27,0,0,0-2-.07,10.62,10.62,0,0,0-1.49-.17,2.89,2.89,0,0,0-1.43.5c-1.51,1-1.86,3-2.09,4.66-.39,2.82-.36,3.18,1.88,4.92.07,0,.18,0,.1-.1Z"/><path class="cls-5" d="M78.11,114.55c-.1-1.38-.31-3.94,1.34-4.58,1-.38,2.16,0,3.16,0a5,5,0,0,1,2.66.57,4.12,4.12,0,0,1,1,2.26c.24,1.1.31,2.23.5,3.34,0,.11.19.08.19,0,0-2.74-.45-6.7-3.88-6.52a17.6,17.6,0,0,1-2.32-.16,2.9,2.9,0,0,0-.51,0,2.41,2.41,0,0,0-1.3.63c-1.28,1.12-1.17,3-1.06,4.5,0,.15.26.16.25,0Z"/><path class="cls-5" d="M90.74,116c3.93-2.29,8.77-2.68,12.88-4.69a21.22,21.22,0,0,0,9.11-7.81c0-.07-.06-.13-.12-.07A26.58,26.58,0,0,1,101,112c-3.35,1.33-7.49,1.57-10.34,3.89-.06,0,0,.14.08.1Z"/><path class="cls-5" d="M116.27,100.33c4.41-2.44,6.71-7.52,8.82-11.91a.17.17,0,0,0-.3-.17c-1.41,2.17-2.58,4.52-3.86,6.77a18.51,18.51,0,0,1-4.77,5.17c-.08.07,0,.19.11.14Z"/><path class="cls-5" d="M126.3,85.58c3-3,4.1-7.64,5.22-11.52a.22.22,0,0,0-.42-.11,51.82,51.82,0,0,1-4.9,11.55c0,.06,0,.13.1.08Z"/><path class="cls-5" d="M129.54,77.67a10.1,10.1,0,0,1-.93,1.86c-.05.09.08.2.15.11a4.26,4.26,0,0,0,.84-2s0-.06-.06,0Z"/><path class="cls-5" d="M131.1,74.76c.61-.7.11-.39.4-1.14.42-1.07,1-2,1.48-3.12,1.47-3.49,1.49-7.61,2.16-11.29a.14.14,0,0,0-.26-.07c-1.62,4.7-.55,9.92-3.95,14a.18.18,0,0,0,0,.24l.08,1.33s.05.12.09.07Z"/><path class="cls-5" d="M135.44,59c-.05-1.47.93-2.33,1.22-3.63a16.58,16.58,0,0,0-.2-5.11c-.14-1.4-.37-2.79-1.78-3.36-.18-.07-.3.23-.13.33,1.92,1.08,2,5.4,1.81,7.33-.16,1.65-1.45,2.83-1.13,4.47a.11.11,0,0,0,.21,0Z"/><path class="cls-5" d="M135.75,47.51a38.9,38.9,0,0,0-.69-9.14,14.94,14.94,0,0,1-.38-2.82c0-.9.39-1.62.4-2.48a3.5,3.5,0,0,0-.82-2.12.18.18,0,0,0-.3.18c.75,1.56.23,2.56.1,4a10.77,10.77,0,0,0,.47,2.87,68.28,68.28,0,0,1,1.07,9.47c0,.09.15.09.15,0Z"/><path class="cls-5" d="M62.43,81.71c-.09.85-.19,1.7-.26,2.55,0,.07.11.07.12,0,.09-.85.17-1.7.25-2.55,0-.07-.1-.07-.11,0Z"/><path class="cls-5" d="M63.48,83.2a13.64,13.64,0,0,0,0,2.12,0,0,0,0,0,0,0,15,15,0,0,0,0-2.12,0,0,0,0,0-.09,0Z"/><path class="cls-5" d="M64.32,84.27c.13.85.22,1.71.39,2.56a0,0,0,0,0,.09,0c-.08-.86-.24-1.71-.36-2.57,0-.07-.13,0-.12,0Z"/><path class="cls-5" d="M66,85.32a30.91,30.91,0,0,0,.27,3.2s.07,0,.07,0c0-1.06-.14-2.13-.22-3.19,0-.07-.12-.07-.12,0Z"/><path class="cls-5" d="M67.64,87c.14,1.27.22,2.57.41,3.84,0,0,.11,0,.1,0-.07-1.27-.24-2.55-.38-3.82a.07.07,0,1,0-.13,0Z"/><path class="cls-5" d="M69.46,88.94a13.89,13.89,0,0,0,.22,5.14.06.06,0,0,0,.11,0,16.55,16.55,0,0,1-.2-5.11c0-.08-.12-.08-.13,0Z"/><path class="cls-5" d="M71.11,92.12c0,1.62,0,3.25,0,4.88a.07.07,0,0,0,.14,0c0-1.63,0-3.26,0-4.88a.06.06,0,0,0-.12,0Z"/><path class="cls-5" d="M71.74,96.79a6.07,6.07,0,0,0,0,1.28s0,0,.06,0a7.79,7.79,0,0,0,0-1.28.07.07,0,0,0-.14,0Z"/><path class="cls-5" d="M71.12,57.49a5,5,0,0,0-.42,2.14,0,0,0,1,0,.07,0,7.6,7.6,0,0,1,.47-2.11c0-.07-.09-.1-.12,0Z"/><path class="cls-5" d="M71.54,56.87c0,1.27-.06,2.55,0,3.82a0,0,0,1,0,.07,0c.08-1.27,0-2.55,0-3.82a.06.06,0,0,0-.11,0Z"/><path class="cls-5" d="M73.11,57.74c-.22,1.65-.42,3.31-.63,5-.08.66-.38,1.67.38,2a0,0,0,0,0,0,0c-.79-.67-.18-2.73-.08-3.55.13-1.13.26-2.26.38-3.4,0,0-.06,0-.07,0Z"/><path class="cls-5" d="M73.64,60.69c-.2,1.77-.45,3.54-.61,5.31,0,.07.12.09.13,0,.26-1.77.43-3.56.63-5.33,0-.1-.14-.1-.15,0Z"/><path class="cls-5" d="M87.16,28.33a4.81,4.81,0,0,0-.69,2.84c0,.07.11.07.11,0a5.16,5.16,0,0,1,.66-2.8c0-.05,0-.09-.08,0Z"/><path class="cls-5" d="M87.07,30.74c-.28,1.13-.6,2.26-.85,3.4,0,.06.08.08.09,0,.33-1.13.58-2.27.87-3.4a.06.06,0,0,0-.11,0Z"/><path class="cls-5" d="M87.43,33.27c-.22.63-.46,1.26-.65,1.91,0,.06.07.08.1,0,.24-.62.44-1.26.66-1.9,0-.07-.08-.1-.11,0Z"/><path class="cls-5" d="M87.08,34.36c-.29,1-.63,2-.85,3,0,.06.07.08.09,0,.34-1,.57-2,.85-3a0,0,0,1,0-.09,0Z"/><path class="cls-5" d="M85.34,40.3c-.13,1.06-.3,2.13-.35,3.2,0,0,.07,0,.08,0,.18-1.06.26-2.14.37-3.21,0-.06-.09-.06-.1,0Z"/><path class="cls-5" d="M84.71,43.68A8.37,8.37,0,0,0,83.8,46c0,.07.09.1.11,0a13.36,13.36,0,0,1,.92-2.29.07.07,0,1,0-.12-.07Z"/><path class="cls-5" d="M83.2,45.79a18.3,18.3,0,0,0-.87,1.91s0,0,.06,0a20.26,20.26,0,0,0,.92-1.87c0-.07-.07-.13-.11-.06Z"/><path class="cls-5" d="M82.13,47.69c-.42.56-.86,1.12-1.26,1.7,0,0,0,.11.08.07.45-.55.87-1.14,1.3-1.71,0-.07-.07-.13-.12-.06Z"/><path class="cls-5" d="M80.71,48.78c-.45.55-.92,1.09-1.34,1.66,0,0,0,.09.06.05.48-.53.91-1.09,1.35-1.64,0-.05,0-.12-.07-.07Z"/><path class="cls-5" d="M118.19,5.83a11.51,11.51,0,0,0-1.84,3.67c0,.06.07.1.09,0a31.3,31.3,0,0,1,1.82-3.67,0,0,0,1,0-.07,0Z"/><path class="cls-5" d="M119.1,7.36a11.89,11.89,0,0,0-1.48,4.06c0,.05.06.05.07,0a25.19,25.19,0,0,1,1.51-4,.06.06,0,1,0-.1-.06Z"/><path class="cls-5" d="M119.1,10.12a9.35,9.35,0,0,0-1.17,3s.06.08.08,0c.42-1,.72-2,1.23-2.91a.08.08,0,0,0-.14-.08Z"/><path class="cls-5" d="M120.17,10.76c-.58,1.27-1.23,2.52-1.73,3.82,0,.07.07.11.11.05.63-1.24,1.14-2.55,1.71-3.82,0-.06-.06-.11-.09-.05Z"/><path class="cls-5" d="M120.84,13.1a13.62,13.62,0,0,0-2.69,4.43c0,.06.08.11.11,0a19.17,19.17,0,0,1,2.7-4.35c.06-.08,0-.19-.12-.12Z"/><path class="cls-5" d="M121.63,15a42.36,42.36,0,0,0-4.45,6c-.05.08.06.17.12.1,1.62-1.85,3-4,4.5-5.91.1-.12-.07-.29-.17-.17Z"/><path class="cls-5" d="M122.68,16.23c-1,1.21-2,2.41-3,3.64-.39.47-1.57,1.4-1.43,2.08a.11.11,0,0,0,.1.07c.13,0,.13,0,.2-.12a.08.08,0,0,0,0-.1l0,0c-.06-.05-.16,0-.11.08A27.41,27.41,0,0,1,120.65,19c.72-.9,1.42-1.81,2.13-2.71,0-.07,0-.17-.1-.1Z"/><path class="cls-5" d="M122.09,19.05a18,18,0,0,1-2.81,3.11c-.08.08,0,.24.13.17a11.08,11.08,0,0,0,2.83-3.19c.07-.1-.09-.18-.15-.09Z"/><path class="cls-5" d="M119,16.11a45.88,45.88,0,0,0-3.83,5.94c0,.05,0,.11.08.06a45.13,45.13,0,0,0,3.83-6s-.05-.09-.08,0Z"/><path class="cls-5" d="M118.14,19.51a12.57,12.57,0,0,1-2.21,2.91c-.05,0,0,.13.06.09a7.29,7.29,0,0,0,2.22-3s0-.08-.07,0Z"/><path class="cls-5" d="M112.93,24.74a10.57,10.57,0,0,0-1.23,1.53s0,.06,0,0A10.61,10.61,0,0,0,113,24.85c.07-.08,0-.19-.11-.11Z"/><path class="cls-5" d="M111.26,26l-1.24.9c-.06.05,0,.15.06.11l1.24-.9a.06.06,0,0,0-.06-.11Z"/><path class="cls-5" d="M110.24,26.35a.06.06,0,1,0,0-.12.06.06,0,1,0,0,.12Z"/><path class="cls-5" d="M104.28,56.24l-.44-.63s0,0,0,0l.43.63s0,0,0,0Z"/><path class="cls-5" d="M103.47,54.89a5.31,5.31,0,0,0,1.71,5.82,4,4,0,0,0,5.91-.89,5.76,5.76,0,0,0,.85-3.69c-.07-1-.21-2.44-.93-3.14-1.8-1.75-5.38,1.28-7.16,1.54-.17,0-.1.27.06.25a13.38,13.38,0,0,0,3.65-1.45c1.59-.73,3.06-.76,3.77,1.08a6.65,6.65,0,0,1,.17,3.72c-.74,2.77-3.7,4.17-6.12,2.29A5,5,0,0,1,103.69,55c0-.14-.17-.19-.22-.06Z"/><path class="cls-5" d="M121.55,27.48c-.85,1.68-2.14,5.06-.84,6.81,1,1.31,3.83,2.72,5,.89.55-.88.41-2.37.49-3.33s.15-1.77.22-2.65c0-.47.3-1.38,0-1.82s-1.66-.5-2.17-.5A6.8,6.8,0,0,0,120.52,28a.11.11,0,0,0,.12.19c1.23-.57,4.92-2.13,5.49.35a9,9,0,0,1-.16,2c-.07.77-.13,1.55-.2,2.32-.15,1.89-1.23,3.43-3.24,2.46a3.24,3.24,0,0,1-2-2.56,10.23,10.23,0,0,1,1.14-5.17c0-.1-.09-.19-.15-.09Z"/><path class="cls-5" d="M107.12,29.62a5,5,0,0,1-3.5,2.65.09.09,0,0,0,0,.17,4.29,4.29,0,0,0,3.61-2.77c0-.07-.1-.13-.14-.05Z"/><path class="cls-5" d="M104.71,31.5c-1.5,0-2.29,1.54-2.48,2.85s.49,3.29,2.06,2.37c.18-.1,0-.37-.16-.27-1.74,1-1.77-1.9-1.48-2.82a2.49,2.49,0,0,1,2.06-2c.09,0,.09-.15,0-.15Z"/><path class="cls-5" d="M104.42,37c.84,1.33,3.43,2,4.36.37.06-.1-.06-.24-.16-.17a3.18,3.18,0,0,1-1.9.73,2.39,2.39,0,0,1-2-1.09c-.11-.18-.39,0-.28.16Z"/><path class="cls-5" d="M109.21,37.13a2.22,2.22,0,0,0,1.73-1.27c.54-1.17-.57-2.23-.09-3.34a.13.13,0,0,0-.23-.13c-.4.58-.12,1.18.06,1.81A2,2,0,0,1,109.16,37c-.11,0-.06.19,0,.17Z"/><path class="cls-5" d="M110.48,32.65c.53-.77.78-1.63,0-2.33s-2.14-.51-3.16-.22a.17.17,0,0,0,.09.33,3.47,3.47,0,0,1,2.55-.09c1,.51.82,1.42.42,2.24a.07.07,0,0,0,.12.07Z"/><path class="cls-5" d="M92.39,49.32c-.68-.1-1.36-.21-2-.3A3.21,3.21,0,0,0,88.94,49a.69.69,0,0,0-.37,1.13c.11.12.29-.06.18-.18.1-.55.35-.81.72-.76l.31,0,.86.09c.58.06,1.16.1,1.74.15.06,0,.08-.1,0-.11Z"/><path class="cls-5" d="M88.14,50a2.45,2.45,0,0,0-2.28,2.81c.37,2.09,2.38,1.75,3.75,2.73.2.14.39-.19.19-.33-.89-.63-2.15-.5-3-1.24a2.25,2.25,0,0,1,1.33-3.83c.08,0,.06-.15,0-.14Z"/><path class="cls-5" d="M90.11,55.35c-.19.65-.85,2.37,0,2.92s2.62-1,3.16-1.68A5.27,5.27,0,0,0,92.55,49c-.15-.11-.33.14-.2.25a5,5,0,0,1,1.34,6.08,5.06,5.06,0,0,1-1.92,2.15l-.43.26q-1.65-.06-1.23-1.17c0,.1.19-1.43.16-1.2,0-.1-.13-.11-.16,0Z"/><path class="cls-5" d="M74.78,61.22a.11.11,0,0,0,0-.21.11.11,0,0,0,0,.21Z"/><path class="cls-5" d="M74.59,60.76c1.48-.22,2.33-.27,2.73,1.34l.75,3a10.38,10.38,0,0,1,.34,1.33l.16.66-2.16,2.58c-1.13.32-2.89-.77-3.87-1.27-.19-.09-.36.19-.17.29,1.8.94,6.95,2.64,6.61-1.16A25.25,25.25,0,0,0,78.1,64c-.23-.88-.35-2.66-.9-3.35s-1.78-.23-2.65-.06c-.11,0-.06.17,0,.15Z"/><path class="cls-5" d="M74.24,60.63c-.38.57-.69,1.18-1.09,1.74s-.88,1.05-1.29,1.6c0,.08.07.15.13.1a8.87,8.87,0,0,0,2.34-3.4c0-.06-.06-.08-.09,0Z"/><path class="cls-5" d="M72.22,63.23c.16,1.5.06,3,.13,4.47a.07.07,0,0,0,.14,0,13.88,13.88,0,0,0-.13-4.5c0-.08-.15-.06-.14,0Z"/><path class="cls-5" d="M72.24,63.84a7.91,7.91,0,0,0,.28,4.29.07.07,0,0,0,.13,0,15,15,0,0,0-.22-2.1c-.06-.71-.05-1.42,0-2.13a.08.08,0,0,0-.15,0Z"/><path class="cls-5" d="M87,67.77a1.3,1.3,0,0,0-1.58.33,2.53,2.53,0,0,0-.49,2.18.11.11,0,0,0,.21,0c.18-.49,0-1.06.21-1.57a1.23,1.23,0,0,1,1.6-.85.05.05,0,0,0,0-.09Z"/><path class="cls-5" d="M85.15,69.86a3.9,3.9,0,0,0-1.77,1.19,5,5,0,0,0-1.27,1.84c-.23.85.66,2.09,1.5,1.32.14-.13,0-.35-.2-.26-.76.15-1.09-.17-1-1a2.31,2.31,0,0,1,.32-.65,8.67,8.67,0,0,1,.75-1A5,5,0,0,1,85.2,70c.08,0,0-.15,0-.13Z"/><path class="cls-5" d="M83.26,75.05a8.19,8.19,0,0,0,4.18,3.5.15.15,0,0,0,.12-.28,20.05,20.05,0,0,1-2.24-1.41,8.75,8.75,0,0,1-1.75-2c-.13-.19-.44,0-.31.18Z"/><path class="cls-5" d="M87.44,78.87A25.82,25.82,0,0,0,91.2,74.1c.82-1.34.88-1.43.09-2.54A11.9,11.9,0,0,1,90,68.9a2.2,2.2,0,0,0-.6-.93c-1.1-.86-2.52-.08-3.47.61a.09.09,0,0,0,.09.16c1.15-.6,3-.77,3.69.54a7,7,0,0,1,.24,1c.16.48.47.78.65,1.21.72,1.75.32,2.49-.64,3.91a31.14,31.14,0,0,1-2.64,3.31c-.08.09,0,.22.13.13Z"/><path class="cls-5" d="M83.37,85.39c-.63-.12-.92.18-1.16.76s-.16,1.18-.34,1.74a7.17,7.17,0,0,1-1.46,2.43c-.43.54-.8,1.09-.28,1.72.67.83,2,.52,2.89.65.12,0,.18-.17,0-.2a5.25,5.25,0,0,0-.69-.13c-.87-.1-.58.18-1.13-1-.82-1.73-.52-.41-.14-1.31.12-.3.41-.58.57-.88a6,6,0,0,0,.55-1.42c.16-.69,0-2.29,1.13-2.23.07,0,.09-.13,0-.14Z"/><path class="cls-5" d="M82.66,93.08c1.47.41,3,.76,4.45,1.09a3.57,3.57,0,0,0,2.19.06c1.48-.66,1.71-2.79,1.45-4.17-.65-3.36-4.33-5.73-7.56-4.24-.19.09,0,.37.17.29,2.83-1.33,6.21.6,7,3.53a4.91,4.91,0,0,1,0,2.41,2.32,2.32,0,0,1-2,1.93,13.82,13.82,0,0,1-1.43-.26c-1.4-.29-2.79-.59-4.21-.81a.09.09,0,1,0,0,.17Z"/><path class="cls-5" d="M104.22,77.68c-.63,2.28-2.35,3.82-3,5.95-.37,1.16-.82,2.07-.33,3.12s2.15,3.09,3.27,3.51,1.85-.26,2.55-1.11a22.41,22.41,0,0,0,3.63-6.26,2.32,2.32,0,0,0,0-2.31c-.35-.47-1.15-.68-1.6-1s-.63-.7-1-1a3.24,3.24,0,0,0-1.18-.86c-1.22-.36-2.34.43-3.19,1.21-.1.1,0,.28.15.2a3.37,3.37,0,0,1,4.18-.09,13.78,13.78,0,0,1,1.58,1.36c1.07,1.57.22,3.65-.67,5.24-.48.85-1.8,3.64-2.65,3.93s-2.62-.51-3.3-1.15a5.66,5.66,0,0,1-1-1.22,3.34,3.34,0,0,1-.18-2.46c.54-2.56,2.44-4.34,2.93-7a.08.08,0,0,0-.16,0Z"/><path class="cls-5" d="M69.22,76.19a6.49,6.49,0,0,1-1,3.18s0,0,0,0a5.22,5.22,0,0,0,1.1-3.21c0-.06-.09-.06-.1,0Z"/><path class="cls-5" d="M68.28,79.44a12.18,12.18,0,0,0,1.84,2.9c.06.06.14,0,.09-.09a12,12,0,0,1-1.85-2.86s-.1,0-.08,0Z"/><path class="cls-5" d="M70,82.3c-.86,1.39,1.57,3,.16,4.18a0,0,0,0,0,0,0,1,1,0,0,0,.52-1.11c-.09-1-1.25-2-.62-3.07a.05.05,0,1,0-.09,0Z"/><path class="cls-5" d="M72.66,82.57s0,0,0,0,0,0,0,0Z"/><path class="cls-5" d="M70.28,82.28c1-2,3.28-1.53,5.14-1.72a.05.05,0,0,0,0-.1c-1.94-.11-4.37-.35-5.25,1.77,0,.06.08.11.11,0Z"/><path class="cls-5" d="M72.46,96c.5-.2,1.21-.42,1.64.09a3.76,3.76,0,0,1,.36.79,2.53,2.53,0,0,0,.78,1.19,1.11,1.11,0,0,0,.74.09c.31,0,0-.16.32,0s.43,1,.53,1.2.17,0,.14-.06c-.2-.51-.42-1-.63-1.52,0-.06-.11-.1-.16,0L75,97.54a3.13,3.13,0,0,1-.19-.36c-.09-.18-.16-.35-.24-.53s-.26-.8-.45-.94c-.4-.29-1.32,0-1.69.17-.07,0,0,.15,0,.12Z"/><path class="cls-5" d="M75.65,96.61c.21-1,1.65.09,2.14.12s.17-.11.68-.14a2.38,2.38,0,0,1,2,.71c.07,0,.16-.07.09-.13a2.86,2.86,0,0,0-1.42-.81,2.23,2.23,0,0,0-.53,0,4.91,4.91,0,0,1-1,.13,5.42,5.42,0,0,1-.69-.32c-.51-.22-1.21-.3-1.36.37,0,.09.12.13.14,0Z"/><path class="cls-5" d="M95.63,60.73a1.51,1.51,0,0,1,2.56,1.42.12.12,0,0,0,.11.14,2,2,0,0,1,1.77,1.82c0,.1.19.08.19,0a2.07,2.07,0,0,0-.79-1.57c-.18-.14-.82-.29-.93-.42s-.06-.52-.13-.77a1.69,1.69,0,0,0-2.89-.69c-.07.07,0,.17.11.1Z"/><path class="cls-5" d="M99.81,67.25c-.56.7-1.07.61-1.52-.28l.22-.37a4.41,4.41,0,0,1,.93-1.18c.61-.6,1.91-1.67,2.87-1.41.58.16,1.17,1.21,1.33,1.68a4.63,4.63,0,0,0,.17.61.92.92,0,0,0,.69.56c.07,0,.13-.09,0-.13-1.08-.46-.44-1.87-1.16-2.56a2.34,2.34,0,0,0-2.36-.09c-1.49.59-3.21,2.35-3.18,4a.09.09,0,0,0,.1.09,3.86,3.86,0,0,0,1.94-.87c.06,0,0-.13-.08-.08Z"/><path class="cls-5" d="M112.84,66.93c.92-.6,3.48-.74,3.41-2.41,0-1.09-.7-.32-.25-1.84a27.37,27.37,0,0,1,.82-2.75c.06,0,.06-.1,0-.1a.64.64,0,0,0-.72.41c-.15.28-.07.35-.11.64a2.21,2.21,0,0,1-.36,2,.61.61,0,0,0-.09.18c-.08.41,0,.43.12.78.58,1.09.27,1.82-.94,2.19l-.81.25a4.83,4.83,0,0,0-1.15.54c-.08.06,0,.19.08.14Z"/><path class="cls-5" d="M116.82,64.74a1,1,0,0,1,1,1.37.09.09,0,0,0,0,.1,2.15,2.15,0,0,0,2.78-.06.06.06,0,0,0-.07-.09,2.53,2.53,0,0,1-1.91.35c-.67-.18-.52-.31-.6-.82a1.18,1.18,0,0,0-1.2-1c-.08,0-.08.12,0,.11Z"/><path class="cls-5" d="M124.39,55.47a3.3,3.3,0,0,1,1.16,1.81c.2.91-.21,1.32-.27,2.14,0,.35-.08.56.15.85a1.43,1.43,0,0,0,1.06.39c.91.07.76-.24,1.67.51.88.39,1.09,1.07.64,2-.12.35-.24.69-.39,1,0,.11.13.15.18.05.55-1.31,1.07-3.63-.92-3.94-.3-.05-.66.11-.94,0-.54-.13-.93-1-1-1.56,0-.35.14-.77.1-1.15a3.4,3.4,0,0,0-1.35-2.29c-.06,0-.15,0-.09.08Z"/><path class="cls-5" d="M124.82,65.91a4.77,4.77,0,0,1,.83-.72A1.7,1.7,0,0,1,127,65.1a1.3,1.3,0,0,0,.91,0,2.69,2.69,0,0,0,1.3-1.65c0-.07-.07-.1-.1-.05a4.15,4.15,0,0,1-1,1.28c-.61.47-.94.18-1.57.1a2.41,2.41,0,0,0-1.94,1c-.1.11.06.27.16.16Z"/><path class="cls-5" d="M129.4,64a2.5,2.5,0,0,1,2.13.25c.6.37.73.9,1.15,1.4s.83.54,1.15.1c0,0,0-.08-.07-.05-.73.67-1.3-.78-1.58-1.12a2.51,2.51,0,0,0-.87-.68,2.58,2.58,0,0,0-1.95-.07c-.11,0-.06.2,0,.17Z"/><path class="cls-5" d="M111.2,46.15c.87.48,2.33-.11,2.73.84a.24.24,0,0,0,.35.14c1.08-.64,1.41,1.57,2,2.1a3.51,3.51,0,0,0,2.27.68c.07,0,.07-.09,0-.1-1.36-.15-2.26-.5-2.76-1.9-.11-.31-.1-.73-.31-1a1.07,1.07,0,0,0-1.4-.2l.35.14-.34-.81a.24.24,0,0,0-.29-.16,17.86,17.86,0,0,1-2.52.12.08.08,0,0,0,0,.14Z"/><path class="cls-5" d="M116.5,46.73a5.14,5.14,0,0,1,3.6-1.4c.09,0,.11-.14,0-.16-1.39-.3-2.66.63-3.71,1.42-.08.07,0,.21.09.14Z"/><path class="cls-5" d="M88.22,27.88l-.75-.53a.07.07,0,0,0-.1.08c.31,1.09.79,1.35,1.45,2.19,1,1.26.91,3.49,1.42,5A10.27,10.27,0,0,1,90.73,41c-.21,1-.46,1.43.14,2.32a.08.08,0,0,0,.13-.08c-1-1.5.83-3.28.75-4.82A15.57,15.57,0,0,0,90.62,35c-.5-1.63-.43-3.6-1-5.16,0,.1-2.43-2.46-1.44-1.81.06,0,.11-.06,0-.1Z"/><path class="cls-5" d="M92,38.43c.47,0,1.86-.08,2.18.27.12.14.09.55.28.76a1.21,1.21,0,0,0,1,.39c1,0,1.83-.51,2.94-.3.1,0,.13-.12,0-.14A2.72,2.72,0,0,0,97,39.27a3.53,3.53,0,0,0-.56.14c-.47.12-2.76.86-2-.89a.1.1,0,0,0-.08-.15c-.8,0-1.59,0-2.39-.06a.06.06,0,1,0,0,.12Z"/><path class="cls-5" d="M94,80.27a2.41,2.41,0,0,0,.84,2.59C96,84.13,96,86,97,87.48c.11.16.38,0,.27-.16a8,8,0,0,1-1-2,14.62,14.62,0,0,0-.41-1.95c-.13-.28-.2-.29-.42-.52-.82-.84-1.48-1.15-1.24-2.54a.07.07,0,0,0-.14,0Z"/><path class="cls-5" d="M100.24,72.39c1.24,1.11,2.94,0,4.21,1.16a3.67,3.67,0,0,0,3.48,1c.16,0,.12-.27,0-.27a4.64,4.64,0,0,1-2.5-.41c-.53-.31-.79-.85-1.33-1.12-1.19-.61-2.59.39-3.71-.52-.08-.06-.2,0-.12.11Z"/><path class="cls-5" d="M83.93,68.14a2.28,2.28,0,0,1,1.28-1c.09,0,.05-.16,0-.15a1.85,1.85,0,0,0-1.33,1.1c0,.06.07.09.1,0Z"/><path class="cls-5" d="M80.6,86.6A1.42,1.42,0,0,1,82,85.07c.08,0,.12-.14,0-.16a1.51,1.51,0,0,0-1.58,1.69c0,.1.18.11.17,0Z"/><path class="cls-5" d="M76.66,59.42c1.69.28.65,2.76,2,3.4.05,0,.1,0,.06-.08-.67-.76-.54-1.61-.89-2.5a1.32,1.32,0,0,0-1.12-.94c-.07,0-.09.11,0,.12Z"/><path class="cls-5" d="M86.15,49.11A3.83,3.83,0,0,0,85,53.45s.07,0,.06,0a4.15,4.15,0,0,1,1.14-4.21c.06-.06,0-.15-.09-.1Z"/><path class="cls-5" d="M78.37,53.49c.24.89,1.22.55,1.66,0,.17-.2.28-.45.43-.66.36-.52.81-.55,1.31-.81a1.14,1.14,0,0,0,.57-.44c.26-.45.27-1.85,1.2-1.53.07,0,.12-.08,0-.11-.77-.36-1,.49-1.21,1.05-.34.92-1.15.81-1.72,1.34a2.65,2.65,0,0,0-.33.42l-.27.44c-.3.63-.83.71-1.6.24,0-.05-.1,0-.09,0Z"/><path class="cls-5" d="M80,54.3a1.91,1.91,0,0,0-.32,1.56,1.68,1.68,0,0,0,.33.46,1.63,1.63,0,0,1,.18,2,.07.07,0,1,0,.12.08,1.61,1.61,0,0,0,.23-1.47,1.8,1.8,0,0,0-.28-.53c-.14-.21-.41-.41-.48-.66a2,2,0,0,1,.33-1.35c0-.07-.07-.13-.11-.06Z"/><path class="cls-5" d="M94.74,51.2a14.21,14.21,0,0,1,.36,4.64.05.05,0,0,0,.1,0,8.49,8.49,0,0,0-.35-4.68.06.06,0,0,0-.11,0Z"/><path class="cls-5" d="M100.16,29c.81,1.14-.27,2.14-.79,3.11-.38.72-.51,1.64-1.12,2.2-1.07,1-3.83.14-4.29-1.19a4.23,4.23,0,0,1,.63-3c.07-.15-.15-.27-.22-.13-.49,1-1.09,2.38-.53,3.48a3.81,3.81,0,0,0,3.6,1.5c1.45-.29,1.61-1.82,2.21-2.91s1.48-2.08.61-3.15a.06.06,0,0,0-.1.08Z"/><path class="cls-5" d="M93.5,101c-.24,0-.16.39,0,.45s.43-.21.6-.29a1,1,0,0,1,1.21.43c.07.09.24,0,.2-.08a1,1,0,0,0-.78-.64,1.14,1.14,0,0,0-.55,0A1,1,0,0,0,94,101l-.06.05a.29.29,0,0,1-.39.06c.08,0,0-.14,0-.13Z"/><path class="cls-5" d="M42.05,84.34a2.63,2.63,0,0,1,3.46-1.22,2.63,2.63,0,0,1,.75,1.65c0-.26-.22.49-.21.45a.79.79,0,0,0,.12.66c.45.8,1.1,1.21.67,2.29-.66,1.64-2.11.17-2.87-.23-.49-.25-1-.21-1.55-.48a2.63,2.63,0,0,1-1.31-2.14c0-.15-.25-.15-.24,0a2.85,2.85,0,0,0,1,2.08,2.51,2.51,0,0,0,.85.46c.26.09.55.09.81.19.63.24.65.54,1.1.77a1.69,1.69,0,0,0,2.58-1.7,2.44,2.44,0,0,0-.46-.89c-.46-.77-.22-1.17-.17-1.85a1.72,1.72,0,0,0-1.23-1.55,2.77,2.77,0,0,0-3.49,1.41c0,.11.1.2.16.1Z"/><path class="cls-5" d="M40.53,84.49a22.58,22.58,0,0,1,.43,4,.07.07,0,0,0,.14,0,15.8,15.8,0,0,0-.48-4.05s-.1,0-.09,0Z"/><path class="cls-5" d="M46.72,88.5a2.34,2.34,0,0,0,.4,2c0,.06.13,0,.09,0a2.56,2.56,0,0,1-.4-1.88c0-.06-.08-.08-.09,0Z"/><path class="cls-5" d="M45.94,84.25c.15.51.31,1,.51,1.52,0,0,.09,0,.07,0-.15-.51-.33-1-.51-1.52,0,0-.09,0-.07,0Z"/><path class="cls-5" d="M47.38,90.44c-1.76-.15-5.54-.1-6-2.38a0,0,0,0,0-.06,0c.06,2.38,4.49,2.39,6.07,2.42,0,0,0,0,0,0Z"/><path class="cls-5" d="M47,90.45a2.84,2.84,0,0,0-.12-3.77s-.1,0-.07.06a2.89,2.89,0,0,1,.13,3.64c0,.05,0,.11.06.07Z"/><path class="cls-5" d="M42,87.82a1.7,1.7,0,0,0,.11,1.55s.06,0,0,0A2.47,2.47,0,0,1,42,87.83s0,0,0,0Z"/><path class="cls-5" d="M42.42,87.87a17.35,17.35,0,0,0,.23,1.92s.05,0,.05,0a17.58,17.58,0,0,0-.19-1.92c0-.05-.09-.05-.09,0Z"/><path class="cls-5" d="M43.15,88.5a13.92,13.92,0,0,0,.55,1.94s0,0,0,0a13.36,13.36,0,0,0-.52-2s-.08,0-.07,0Z"/><path class="cls-5" d="M44.4,89.36a9.52,9.52,0,0,0,.23,1.06s.08,0,.07,0a10.18,10.18,0,0,0-.19-1.08c0-.07-.12,0-.11,0Z"/><path class="cls-5" d="M44.8,89.8a1.11,1.11,0,0,1,.21.83s.05,0,.06,0a.92.92,0,0,0-.18-.88s-.13,0-.09,0Z"/><path class="cls-5" d="M45.45,89.37a4.48,4.48,0,0,1,.62,1.69s.06,0,.06,0a3.2,3.2,0,0,0-.6-1.74s-.11,0-.08.05Z"/><path class="cls-5" d="M46.3,89.56a1,1,0,0,0,.2.88s.09,0,.06,0a.92.92,0,0,1-.18-.82s-.07-.07-.08,0Z"/><path class="cls-5" d="M46.72,89.16l.22.42s.06,0,0,0l-.2-.43s-.07,0-.06,0Z"/><path class="cls-5" d="M66.49,44.37A1,1,0,0,0,65.7,46a1.64,1.64,0,0,0,2.16.55c.54-.33,1-1.36.55-1.93a1.66,1.66,0,0,0-1.15-.32A1.78,1.78,0,0,0,66,44.7a.05.05,0,0,0,.06.09,2.56,2.56,0,0,1,1.71-.29c.76.19.73,1.09.28,1.6a1.39,1.39,0,0,1-1.52.34,1.33,1.33,0,0,1-.8-.79.81.81,0,0,1,.74-1.16c.08,0,.07-.12,0-.12Z"/><path class="cls-5" d="M82.91,19.06c-.55-.61.86-.7,1.08-.77a.78.78,0,0,0,.48-.33,1.52,1.52,0,0,0,.19-.59,1.43,1.43,0,0,1,.09-.41c.52-.86,1,.1,1.16.43a2.71,2.71,0,0,1-.57,2.55c-.73.72-2.32.52-2.42-.66,0-.15-.26-.16-.24,0a1.6,1.6,0,0,0,2.15,1.25c1.19-.39,1.59-2,1.32-3.11-.21-.83-1.31-1.61-1.66-.44-.17.58-.19,1-.91,1.17a1.61,1.61,0,0,0-.61.15c-.32.2-.5.62-.19.9a.1.1,0,0,0,.13-.14Z"/><path class="cls-5" d="M69.17,28.72a2,2,0,0,1,1.94-.57c.28,0,.55.08.83.1.44,0,.52-.14.69.29.4,1-1.47.45-2,.51-.19,0-.34.1-.51.13a.79.79,0,0,0-.25.15c-1-.31-1.15-.63-.5-.95a.11.11,0,0,0-.08-.2.78.78,0,0,0-.17,1.46c.56.27,1-.25,1.53-.33s1.43.34,2.06,0c.44-.28.63-1.07.06-1.28-.12,0-.7,0-.92,0l-.69-.06a3.84,3.84,0,0,0-.83,0,1.76,1.76,0,0,0-1.2.69c0,.05,0,.13.09.07Z"/><path class="cls-5" d="M49.35,52.93c1.68-.93,3.87-3.2,5.91-2a2.78,2.78,0,0,1,1.24,3.12,5.45,5.45,0,0,0-.4,1.69,4.9,4.9,0,0,1,0,1.87c-.45.93-2.19.37-2.91.19-1.33-.34-3.38-.46-3.53-2.21-.1-1.14.55-2.21-.54-3-.14-.1-.27.13-.13.23,1.36,1-.26,2.92.77,4.11.69.79,2.42.94,3.36,1.18,1.69.44,3.82.37,3.55-1.85l-.24-.38.17-1.17c.15-.61.13-.09.26-.71a2.74,2.74,0,0,0,0-1.14,3.21,3.21,0,0,0-1.3-2c-2.18-1.5-4.5.91-6.28,1.93-.09,0,0,.21.09.15Z"/><path class="cls-5" d="M129.42,36a6.13,6.13,0,0,1,4.86-.21c.08,0,.13-.1.06-.13a5.74,5.74,0,0,0-5,.2c-.1.05,0,.19.08.14Z"/><path class="cls-5" d="M129.79,40.93a6.83,6.83,0,0,1,5,1.77c.06,0,.14,0,.08-.08a6.47,6.47,0,0,0-5.1-1.83c-.09,0-.09.15,0,.14Z"/><path class="cls-5" d="M131.92,37.41a7.21,7.21,0,0,1,1.89-.33s.06-.07,0-.07a4,4,0,0,0-1.93.28c-.07,0,0,.15,0,.12Z"/><path class="cls-5" d="M132.3,38.9c.71.14,1.42.31,2.13.42,0,0,.06-.06,0-.07-.7-.18-1.42-.3-2.12-.44-.06,0-.09.08,0,.09Z"/><path class="cls-5" d="M132.09,40.13l.85.63s.08,0,.05-.06l-.85-.65s-.1.05,0,.08Z"/><path class="cls-5" d="M133.6,44a1,1,0,0,1,.81.4s.1,0,.07,0a1,1,0,0,0-.88-.45.05.05,0,1,0,0,.1Z"/><path class="cls-5" d="M133.81,45.6c.64.29,1.27.61,1.92.87,0,0,.07-.06,0-.08-.62-.32-1.26-.59-1.9-.88-.06,0-.11.06-.05.09Z"/><path class="cls-5" d="M133,60.45a2.34,2.34,0,0,1,1.45.7,0,0,0,0,0,.07-.07,2.1,2.1,0,0,0-1.52-.74c-.07,0-.06.1,0,.11Z"/><path class="cls-5" d="M132.51,62.44a3.91,3.91,0,0,1,1.31,1s.06,0,0,0a3.08,3.08,0,0,0-1.31-1,0,0,0,0,0,0,.08Z"/><path class="cls-5" d="M132.3,64.34l.65.41s.09,0,0-.08l-.63-.43c-.06,0-.12.06-.06.1Z"/><path class="cls-5" d="M131.47,66.86s0,0,0,0,0,0,0,0Z"/><path class="cls-5" d="M130.16,68.3a3.16,3.16,0,0,1,2,1.49s.08,0,.07,0a2.62,2.62,0,0,0-2.06-1.56c-.07,0-.1.09,0,.1Z"/><path class="cls-5" d="M129.8,70.54a2.61,2.61,0,0,1,1.86.39.07.07,0,0,0,.07-.12,2.51,2.51,0,0,0-2-.41c-.1,0-.06.16,0,.14Z"/><path class="cls-5" d="M130.83,66.78a2,2,0,0,1,2,1.55c0,.06.12,0,.11,0a2,2,0,0,0-2.08-1.66.06.06,0,0,0,0,.12Z"/><path class="cls-5" d="M124.65,82.87a3.06,3.06,0,0,1,1.7,1.21s.11,0,.09,0a2.33,2.33,0,0,0-1.74-1.31c-.1,0-.14.13,0,.15Z"/><path class="cls-5" d="M124.21,84.94c.42.42.82.89,1.28,1.27.05.05.12,0,.08-.08-.38-.46-.85-.86-1.27-1.28a.06.06,0,0,0-.09.09Z"/><path class="cls-5" d="M123.35,86.66a5.56,5.56,0,0,1,1.12,1.64c0,.06.12,0,.11,0a3.87,3.87,0,0,0-1.15-1.69.06.06,0,1,0-.08.09Z"/><path class="cls-5" d="M122.34,89.37a0,0,0,0,0,0,0s0,0,0,0Z"/><path class="cls-5" d="M112,99a5.29,5.29,0,0,1,1.14,3.08.07.07,0,0,0,.14,0,4.64,4.64,0,0,0-1.18-3.19c-.06-.07-.16,0-.1.11Z"/><path class="cls-5" d="M111.09,102.11a0,0,0,0,0,0,0,0,0,0,0,0,0,0Z"/><path class="cls-5" d="M109.91,102.1c.07.78.11,1.58.23,2.36,0,.1.19.08.19,0,0-.78-.13-1.56-.2-2.33,0-.14-.23-.14-.22,0Z"/><path class="cls-5" d="M108.29,102.53a17.36,17.36,0,0,1,.18,3.6c0,.07.1.07.11,0a11.3,11.3,0,0,0-.21-3.62c0-.05-.08,0-.08,0Z"/><path class="cls-5" d="M94.85,112.08a5.41,5.41,0,0,1-.19,1.88.08.08,0,1,0,.16.05,3.85,3.85,0,0,0,.22-1.93c0-.13-.2-.13-.19,0Z"/><path class="cls-5" d="M92.92,112.29a6.23,6.23,0,0,1-.68,2.18s.05.07.07,0a3.41,3.41,0,0,0,.77-2.22.08.08,0,0,0-.16,0Z"/><path class="cls-5" d="M90.61,113.11a13.65,13.65,0,0,1-.75,2s0,.06.07,0a4.2,4.2,0,0,0,.83-2c0-.1-.13-.15-.15,0Z"/><path class="cls-5" d="M88.58,114.21s0,0,0,0,0,0,0,0Z"/><path class="cls-5" d="M75.81,113.54a6.2,6.2,0,0,0-.6,1.1s0,.06.06,0a5.45,5.45,0,0,0,.66-1c0-.08-.07-.16-.12-.08Z"/><path class="cls-5" d="M74.91,112.23l-1.27,1.71c-.07.09.08.17.14.08L75,112.29c0-.06,0-.11-.09-.06Z"/><path class="cls-5" d="M72.79,112.64a2.29,2.29,0,0,1-1,.46c-.05,0,0,.09,0,.1a1.6,1.6,0,0,0,1.12-.42c.1-.08,0-.23-.14-.14Z"/><path class="cls-5" d="M71.9,111.41a.78.78,0,0,1-.75.63s0,.09,0,.09a.79.79,0,0,0,.93-.67c0-.12-.16-.16-.18,0Z"/><path class="cls-5" d="M71.17,110a0,0,0,0,0,0,0,0,0,0,0,0,0,0Z"/><path class="cls-5" d="M71.81,109.54s0,0,0,0,0,0,0,0Z"/><path class="cls-5" d="M76.58,115.67a20.93,20.93,0,0,1,1.17-3,.05.05,0,1,0-.09,0,7,7,0,0,0-1.16,3s.07,0,.08,0Z"/><path class="cls-5" d="M70.15,111.05a9.76,9.76,0,0,0,2.14-2.76.06.06,0,0,0-.1-.06A25.46,25.46,0,0,1,70.06,111c-.06,0,0,.14.09.08Z"/><path class="cls-5" d="M114.36,102.3c-.1-1.4-1.78-2.46-3.06-2.48-.13,0-.16.21,0,.23a4.08,4.08,0,0,1,1.8.74,5.54,5.54,0,0,1,1.18,1.54s.11,0,.11,0Z"/><path class="cls-5" d="M112.17,103.15a4.55,4.55,0,0,0-2.74-1.85.08.08,0,0,0,0,.15,6.65,6.65,0,0,1,2.65,1.81c.06.07.19,0,.13-.11Z"/><path class="cls-5" d="M110.1,104.15a2.66,2.66,0,0,0-2.63-1,.05.05,0,0,0,0,.1,3.05,3.05,0,0,1,2.52,1c.06.07.16,0,.1-.11Z"/><path class="cls-5" d="M109.64,105.26a2.65,2.65,0,0,0-1.94-1.15.07.07,0,0,0,0,.14,2.88,2.88,0,0,1,1.85,1.08c0,.06.17,0,.11-.07Z"/><path class="cls-5" d="M131.69,66.78h-.64a.06.06,0,0,0,0,.11h.64a.07.07,0,0,0,0-.13Z"/><path class="cls-5" d="M128.77,22c1.64,2.32,1.76,6.63,2.06,9.4a33.37,33.37,0,0,1-.2,9.52c0,.06.07.08.08,0a35.26,35.26,0,0,0,.08-10.51c-.34-2.66-.34-6.25-2-8.47,0,0-.06,0,0,0Z"/><path class="cls-5" d="M131.45,59.2a29.58,29.58,0,0,1-1.88,9.35,0,0,0,0,0,.06,0,23.42,23.42,0,0,0,1.87-9.38,0,0,0,0,0-.05,0Z"/><path class="cls-5" d="M124.89,83.2a14,14,0,0,1-2.59,4.63,0,0,0,0,0,.06.06A10.1,10.1,0,0,0,125,83.23a.05.05,0,0,0-.1,0Z"/><path class="cls-5" d="M125.29,84.67c-.73,1.11-1.53,2.2-2.18,3.36,0,0,0,0,0,0,.81-1,1.49-2.22,2.23-3.33,0-.06-.06-.11-.09,0Z"/><path class="cls-5" d="M112.67,99.69a20.24,20.24,0,0,1-5.18,5s0,.11.05.08a16.29,16.29,0,0,0,5.21-5s0-.09-.08,0Z"/><path class="cls-5" d="M113.15,100.56a24.21,24.21,0,0,1-5.49,5.1c-.06,0,0,.14.06.1a24.17,24.17,0,0,0,5.51-5.12c0-.06,0-.14-.08-.08Z"/><path class="cls-5" d="M114.66,100.36c-1.67,1.72-3.41,3.39-5,5.17,0,0,0,.07,0,0,1.75-1.64,3.38-3.41,5.06-5.13.05,0,0-.13-.08-.08Z"/><path class="cls-5" d="M96,111.76q-3.63.87-7.28,1.68c-.07,0,0,.13,0,.12,2.43-.53,4.85-1.12,7.26-1.73,0,0,0-.08,0-.07Z"/><path class="cls-5" d="M95.78,112.24a36.28,36.28,0,0,1-4.88,1.91.05.05,0,1,0,0,.1,24.49,24.49,0,0,0,4.88-2s0-.08,0-.06Z"/><path class="cls-5" d="M76.73,113.2a11.42,11.42,0,0,1-5.34-3.68s-.07,0,0,0a10.45,10.45,0,0,0,5.37,3.73c.05,0,.07-.07,0-.09Z"/><path class="cls-5" d="M75.44,114l-2-1.13c-.35-.21-2.74-1.41-2-2,0,0,0-.12-.07-.08-.5.31-.22.8.16,1.09a14.28,14.28,0,0,0,1.9,1.08l2,1.12c.06,0,.12-.06.06-.09Z"/><path class="cls-5" d="M62.23,83.08c1.72.55,3.37,3,4.52,4.38,1.86,2.17,2.53,4.58,3.45,7.23,0,0,0,0,0,0-.81-2.53-1.43-4.91-3.16-7-1.22-1.46-2.95-4.1-4.82-4.69,0,0-.06,0,0,.06Z"/><path class="cls-5" d="M63.49,86.62c1.52,1.39,3.12,2.6,4.09,4.47s1.69,3.66,2.54,5.48c0,0,.09,0,.07,0a57.56,57.56,0,0,0-2.85-6,18.73,18.73,0,0,0-3.8-3.9s-.08,0,0,.05Z"/><path class="cls-5" d="M71.48,56.82a28.24,28.24,0,0,1,1.92,8.75,0,0,0,0,0,.08,0,26.17,26.17,0,0,0-1.91-8.77c0-.06-.12,0-.09,0Z"/><path class="cls-5" d="M117.21,7.49c1,.65,1.56,3.22,2.08,4.41,1.18,2.71.89,5.24.18,8,0,.05.06.07.07,0a11.49,11.49,0,0,0,.14-7.46c-.49-1.27-1-2.55-1.44-3.81a2.13,2.13,0,0,0-1-1.3c-.05,0-.1,0-.05.09Z"/><path class="cls-5" d="M103.91,12.23c.16.51.4,1.19,1,1.4.82.32,1.46-.72,2.28-.44a.12.12,0,0,0,.15-.15,17,17,0,0,1-.64-4.32.15.15,0,0,0-.11-.14,2.41,2.41,0,0,0-2.33.6c-.88.84-.42,2.25-1.27,3a.11.11,0,0,0,.14.17c.68-.43.61-1.14.77-1.86A2.06,2.06,0,0,1,105.11,9c.24-.1.64-.28.9-.17.47.18.35.64.38,1a14.81,14.81,0,0,0,.2,1.49c0,.28.47,1.44.36,1.57s-.62.15-.72.2c-.51.23-1,.72-1.65.16A2.47,2.47,0,0,1,104,12.2c0-.08-.15,0-.12,0Z"/></svg>