<svg id="illustration" xmlns="http://www.w3.org/2000/svg" viewBox="0 0 198.43 144.58"><defs><style>.cls-1{fill:#606161;}.cls-2{fill:#39c6f4;}.cls-3{fill:#7a7e8c;}.cls-4{fill:#1f5336;}.cls-5{fill:#0e1333;}.cls-6{fill:#3e424b;}.cls-7{fill:#1e1c57;}.cls-8{fill:#fff;}.cls-9{fill:#232a66;}.cls-10{fill:#3a3d46;}.cls-11{fill:#010101;}</style></defs><path class="cls-1" d="M44.48,132.09l-.83,1.77-.63.8c.74.27,1.49.54,2.24.79l2.24-.93,2.69-1.81,3.41-1.63,4.29-.71,4.28-.29.47,1.3,1.86.2L66,130.37v-.55l-1.07-18.75,7-2.9,15-4.07,9.09-1.1,13.74-1,21.4-1,20.12-3.44,10.39-5.06,5.91-7.23,4.49-9.88s4-5.07,7.21-7S196.06,62,196.06,62a47.1,47.1,0,0,0-6.54-2.27c-2.34-.49-9.55.63-9.55.63L62.64,65.12l-.58-.2-.34-4.85-.67-1.54-1.59-.25-1.05.32-.36,2.23,1.34,18.48,1,18.33.66,6.09v8.46l-9.71,1-7.2.2,1.46,4,.7,3.89-.46,6.35Z"/><path class="cls-2" d="M2.91,114.68A242.17,242.17,0,0,0,31.62,130a133.26,133.26,0,0,0,57.09,12.47c18.42,0,36.94-2.43,55-6.08,24.15-4.89,49.54-13.38,70.11-27.95l-.16-31s-4.42,5.61-10,5.52-10.47-7.33-13.89-6.62-4.54,2.29-5.07,3.88.82,3.71,1.95,3.79,3.45,1.54,4,0-.63-4,1.77-3.51,3.74,2.1,1.87,3.77-2.91,3.55-5.6,3.63-3.88-.62-6.68,1.31-4.17,2.15-5.62,4a54.78,54.78,0,0,0-3.09,4.7l-9.54-2.35-6.65-1.66-7.21-.65-5.63,1.33s-7.91,3.56-13.31,3.33-20.79-2.18-20.79-2.18-8.65-1.29-12.73,0-6.58,1.71-6.77,3.3-8.29,1.64-8.78,1.74a6.71,6.71,0,0,1-6.43-3.14l-3.85,2.45-8.88,1.83s-3.26.83-3.64.84-7.05-.45-7.05-.45l-10.83-1.94a41.64,41.64,0,0,0-8.94-8.56c-5.19-3.5-6.14-5-8.94-4.2s-11,6.33-15.95,6.85-12-3.1-12.35-3.39-2-4.15-6.93-3.46-5.34,3.46-5.34,3.46l.24,11C-10,105.58-3.69,110.44,2.91,114.68Z"/><path class="cls-3" d="M75.78,64.54,74.35,52.92s30-6.06,41.94-5.67,23.42,1,27.74,9.54l.21,4Z"/><path class="cls-3" d="M82.93,50.88l-.06-4.63,31.79-2.51,6,.4s2.55,1.56,3,2.52S104.09,48,104.09,48Z"/><path class="cls-3" d="M85.77,45.15l.38-5.29,25-.69s1.89,1.06,3.51,4.57S85.77,45.15,85.77,45.15Z"/><polygon class="cls-3" points="93.16 32.89 105.15 32.06 105.69 39.44 93.35 39.66 93.16 32.89"/><path class="cls-4" d="M75.78,52.8s-.49-8.5,7.15-7.38v5.46Z"/><path class="cls-4" d="M74.79,55a9.23,9.23,0,0,0-6.34,3,8.29,8.29,0,0,0-1.7,6.51h9Z"/><path class="cls-4" d="M111.15,39.17l12.35.12,0,4.8s4.33-1.33,5.8-.5,4.91,2.4,5.82,4.94-4.61-.6-4.61-.6l-6.71-.62s-.25-1.78-1.42-2-.33-1-1.75-1.22a36,36,0,0,0-6,.21S114.39,39.81,111.15,39.17Z"/><polygon class="cls-4" points="144.18 59.58 152.4 58.87 152.4 61.05 144.03 61.5 144.18 59.58"/><path class="cls-4" d="M162.74,60.44s3.16-4.34,5.58-4.56,4.79-.13,5.94.43a34.18,34.18,0,0,1,4.4,3.65Z"/><path class="cls-5" d="M170.08,55.64l11.57-7.11,3,4.08-4.35,7.18-1.64.17S175,55.8,170.08,55.64Z"/><polygon class="cls-5" points="150.03 58.55 149.64 56.22 158.09 55.38 158.09 57.15 150.62 57.5 151 59.26 150.03 58.55"/><polygon class="cls-5" points="145.27 59.26 144.78 51.48 146.65 51.95 147.21 58.91 145.27 59.26"/><polygon class="cls-5" points="132.1 44.47 138.64 40.84 138.99 42.71 133.83 46.79 131.31 44.91 132.1 44.47"/><polygon class="cls-5" points="129.35 43.59 130.91 39.15 132.33 39.85 131.31 44.91 129.35 43.59"/><polygon class="cls-5" points="123.5 39.29 130.55 33.86 131.26 35.27 123.55 44.09 123.5 39.29"/><polygon class="cls-5" points="120.41 38.83 123.56 32.47 125.92 33.47 122.53 39.13 120.41 38.83"/><polygon class="cls-5" points="117.87 38.77 119.27 32.44 120.68 32.44 119.62 38.79 117.87 38.77"/><path class="cls-5" d="M72,55.38l-8.48-4.21s-.26,1.74-1,2.06a13.81,13.81,0,0,1-2.32.58l6.45,8S67.53,56.62,72,55.38Z"/><path class="cls-5" d="M67.8,41.24s2.94-1,3.71-3l9.82,6.89s-6.46,1.36-5.55,7.65l-3.07-2.95-2-3.47Z"/><polygon class="cls-5" points="87.96 40.58 86.8 35.62 89.62 34.91 91.07 40.39 87.96 40.58"/><polygon class="cls-3" points="113.21 38.8 114.3 39.04 111.28 8.11 109.92 8.32 113.21 38.8"/><polygon class="cls-6" points="99.42 32.44 99.22 22.43 100.61 22.55 102.15 32.44 99.42 32.44"/><polygon class="cls-7" points="94.56 18.23 95.61 22.43 107.62 21.85 107.26 17.21 94.56 18.23"/><polygon class="cls-6" points="98.24 15.57 100.21 15.5 100.61 17.72 98.53 17.25 98.24 15.57"/><path class="cls-7" d="M108,54.67l.36-2.82,25-3s4.27.65,6.35,2.84S108,54.67,108,54.67Z"/><polygon class="cls-7" points="142.91 55.55 113.61 56.97 111.28 59.78 143.87 58.87 142.91 55.55"/><polygon class="cls-7" points="97.09 48.84 97.8 46.02 111.15 45.77 110.76 47.75 97.09 48.84"/><path class="cls-7" d="M102,53.76c.33.14.85.76.23.92a.39.39,0,1,1-.16-.75c.65-.08.66-1.12,0-1a1.46,1.46,0,0,0-1.33,1.45,1.33,1.33,0,0,0,1.39,1.29,1.29,1.29,0,0,0,1.32-1.26A1.31,1.31,0,0,0,102.17,53c-.36,0-.59.58-.2.75Z"/><path class="cls-7" d="M94.32,53.29c-.48-.1-.72.56-.73,1a1.24,1.24,0,0,0,.71,1.18,1.36,1.36,0,0,0,1.79-1.77A1.46,1.46,0,0,0,93.3,54,1.49,1.49,0,0,0,94,55.53c.48.31,1.35.45,1.7-.13a.46.46,0,0,0-.27-.66c-.35-.09-1,.15-1.08-.45s.79-.68,1-.19-.55,1-.95.64a.73.73,0,0,1-.17-.76c.06-.2.22-.31.22-.52a.16.16,0,0,0-.13-.17Z"/><path class="cls-7" d="M95.3,53.64a.51.51,0,0,0-.09.53.14.14,0,0,0,.22.06.54.54,0,0,0,.2-.5.18.18,0,0,0-.33-.09Z"/><path class="cls-7" d="M94.55,53.83c-.62.2-.68,1.16,0,1.21a.35.35,0,0,0,.35-.35c0-.15-.1-.37,0-.5s-.16-.41-.36-.36Z"/><path class="cls-7" d="M88,54.53c-.77,0-1,.94-.83,1.56a1.38,1.38,0,0,0,1.64.93A1.45,1.45,0,0,0,90,55.51a1.57,1.57,0,0,0-1.6-1.43.56.56,0,0,0,0,1.12c.56,0,.75.79.1.87a.42.42,0,0,1-.5-.39c0-.31.19-.55.23-.84a.25.25,0,0,0-.23-.31Z"/><path class="cls-7" d="M82.48,54.63c-.45-.71-1.47-.19-1.82.34a1.42,1.42,0,0,0,.43,2,1.48,1.48,0,0,0,2-.29,1.57,1.57,0,0,0-.16-2.07c-.45-.35-1.3.13-.88.68.14.19.3.41.18.66a.39.39,0,1,1-.61-.48c.2-.22.51-.17.73-.34a.37.37,0,0,0,.14-.5Z"/><path class="cls-7" d="M88.13,55.76v.13a.55.55,0,1,0,.55-.55h-.13a.44.44,0,0,0-.42.42Z"/><path class="cls-7" d="M87.73,47.36a1.28,1.28,0,0,1,0,.7.42.42,0,0,1-.67.15c-.51-.47.23-1,.62-.55L88.3,47c-.46-.48-1.63-.61-1.81.2a.48.48,0,0,0,.45.6c.31,0,.5-.23.79-.06A.47.47,0,0,0,88.3,47a1.4,1.4,0,0,0-1.85-.1,1.25,1.25,0,0,0-.1,1.81,1.2,1.2,0,0,0,1.74.1c.42-.41.64-1.31,0-1.66a.26.26,0,0,0-.39.22Z"/><path class="cls-7" d="M92.48,47c.13.19.35.29.44.51s.06.56-.24.61a.42.42,0,0,1-.49-.26c0-.24.2-.41.36-.52.35-.26.3-1-.25-.94A1.35,1.35,0,0,0,91.18,48,1.29,1.29,0,0,0,92.69,49a1.22,1.22,0,0,0,1.08-1.32c-.06-.54-.6-1.29-1.21-1a.23.23,0,0,0-.08.32Z"/><path class="cls-7" d="M95.48,34.2a1.32,1.32,0,0,0,.49,2,1.35,1.35,0,0,0,1.76-1.46,1.21,1.21,0,0,0-2.07-.62,1.09,1.09,0,0,0-.08,1.15.72.72,0,0,0,1,.4.32.32,0,0,0,.06-.5c-.1-.12-.51-.39-.21-.55s.57.31.46.56c-.35.79-1.24,0-.81-.61.25-.36-.32-.67-.57-.33Z"/><path class="cls-7" d="M100.81,34.53c.2,0,.76-.12.71.28s-.69.24-.43-.16-.44-.87-.71-.42c-.67,1.11.93,2.31,1.69,1.16s-1.24-2-1.43-1.08a.17.17,0,0,0,.17.22Z"/><path class="cls-7" d="M90.78,42.5c-.7-.41-1,.91-.72,1.34a1.27,1.27,0,0,0,2.07,0c.59-.77.15-2.12-.95-1.93A.89.89,0,0,0,91,43.65a.41.41,0,0,0,.45-.19c.12-.19,0-.32-.06-.49a.2.2,0,0,1-.09-.11q-.09,0,.09,0a.4.4,0,0,1-.07.54c-.23.24-.69.3-.78-.11s.19-.4.28-.64a.15.15,0,0,0-.07-.18Z"/><path class="cls-7" d="M96.71,34.09a6.25,6.25,0,0,0-.36,1.21.09.09,0,0,0,.17.07A8.34,8.34,0,0,0,97,34.16a.13.13,0,0,0-.26-.07Z"/><path class="cls-8" d="M97.1,33.91A18.5,18.5,0,0,0,96,36c-.08.2.18.37.3.17A19.2,19.2,0,0,0,97.4,34c.07-.17-.21-.28-.3-.12Z"/><path class="cls-8" d="M101.22,34.21a3.67,3.67,0,0,0-.29,1.38c0,.16.25.26.33.09a3.86,3.86,0,0,0,.28-1.42c0-.2-.26-.21-.32,0Z"/><path class="cls-8" d="M91.33,42.79a8.93,8.93,0,0,0-.45,1.32.09.09,0,0,0,.17,0,8.12,8.12,0,0,0,.35-1.35c0-.05-.05-.06-.07,0Z"/><path class="cls-8" d="M87.35,47.38a3.68,3.68,0,0,0-.52,1.12c0,.12.13.24.23.13a3.56,3.56,0,0,0,.6-1.12c.06-.18-.21-.28-.31-.13Z"/><path class="cls-8" d="M92.25,47.44a2.93,2.93,0,0,0-.45,1.36.1.1,0,0,0,.18.05,2.86,2.86,0,0,0,.38-1.38.06.06,0,0,0-.11,0Z"/><path class="cls-8" d="M101.17,46.2a2.73,2.73,0,0,0-.35.73,2.22,2.22,0,0,0-.21.94.1.1,0,0,0,.17.07,1.77,1.77,0,0,0,.35-.73,2.6,2.6,0,0,0,.2-.94.09.09,0,0,0-.16-.07Z"/><path class="cls-8" d="M105.93,45.94a3.06,3.06,0,0,0-.43.82.15.15,0,0,0,.27.12,3,3,0,0,0,.4-.85c0-.14-.16-.21-.24-.09Z"/><path class="cls-8" d="M131.21,49.71a8.1,8.1,0,0,1,2.43.86,14.24,14.24,0,0,1,2,1.63.17.17,0,0,0,.27-.21,5.74,5.74,0,0,0-4.65-2.64c-.2,0-.25.32,0,.36Z"/><path class="cls-8" d="M127,49.83a6,6,0,0,0,2.67,2.81c.11,0,.17-.11.1-.19-.39-.45-.9-.8-1.32-1.24a10.57,10.57,0,0,1-1.21-1.53.14.14,0,0,0-.24.15Z"/><path class="cls-8" d="M138.28,56.24a3,3,0,0,1,1.26.89c.26.34.32.81.6,1.12a.16.16,0,0,0,.26-.07c.18-.48-.24-1.09-.53-1.44a2.48,2.48,0,0,0-1.48-.92.22.22,0,0,0-.11.42Z"/><path class="cls-8" d="M132.94,56.86a7,7,0,0,0,1.1,1,3,3,0,0,0,1.22.77.11.11,0,0,0,.13-.16c-.19-.43-.7-.72-1.06-1a6.3,6.3,0,0,0-1.24-.81.12.12,0,0,0-.15.19Z"/><path class="cls-8" d="M94.25,53.66a.68.68,0,0,0,0,1.09.11.11,0,0,0,.18-.11,3.09,3.09,0,0,1,0-.91.08.08,0,0,0-.13-.07Z"/><path class="cls-8" d="M87.91,55.14a1.23,1.23,0,0,0,0,1.34.14.14,0,0,0,.25-.11,2.28,2.28,0,0,1,0-1.13.13.13,0,0,0-.24-.1Z"/><path class="cls-8" d="M81.31,55.57a1.88,1.88,0,0,0-.11.74.14.14,0,0,0,.25,0,1.67,1.67,0,0,0,.12-.74.13.13,0,0,0-.26,0Z"/><path class="cls-8" d="M101.69,54.08a4,4,0,0,0-.15,1.13.21.21,0,0,0,.42,0,3.83,3.83,0,0,0,.14-1.12.21.21,0,0,0-.41-.06Z"/><path class="cls-8" d="M174.49,54.85c1.08-.76,2-1.69,3.11-2.49s2.25-1.45,3.32-2.24a.25.25,0,0,0-.25-.44,19.18,19.18,0,0,0-6.4,4.89c-.12.14,0,.41.22.28Z"/><path class="cls-8" d="M180.75,50a3.5,3.5,0,0,0,1.17.84.36.36,0,0,0,.36-.62A3.56,3.56,0,0,0,181,49.7a.21.21,0,0,0-.2.34Z"/><path class="cls-8" d="M145.08,53.32c.38-.12.79-.18.92-.6a.19.19,0,0,0-.13-.23c-.39-.14-.68.15-1,.36s-.09.57.2.47Z"/><path class="cls-8" d="M151,56.79a30.24,30.24,0,0,0,3.16-.12,8.48,8.48,0,0,0,2.76-.36c.17-.07.22-.34,0-.39a8.79,8.79,0,0,0-3,.07,27.26,27.26,0,0,0-3,.34c-.26.06-.19.45.06.46Z"/><path class="cls-8" d="M133.64,45.11c.77-.48,1.44-1.13,2.19-1.64a24.2,24.2,0,0,0,2.1-1.35c.14-.11,0-.33-.17-.29a7.82,7.82,0,0,0-2.32,1.26,9.06,9.06,0,0,0-2.05,1.7c-.13.17,0,.45.25.32Z"/><path class="cls-8" d="M130.15,43A11.38,11.38,0,0,0,131,40.7c0-.16-.2-.29-.29-.12a12.42,12.42,0,0,0-.75,2.33c0,.11.13.15.17,0Z"/><path class="cls-8" d="M124.88,39.39c.67-.08,1.24-.91,1.71-1.36a16.66,16.66,0,0,0,1.92-1.93c.12-.15-.11-.37-.26-.27a18.7,18.7,0,0,0-1.91,1.76c-.48.46-1.4,1-1.51,1.74,0,0,0,.06,0,.06Z"/><path class="cls-8" d="M121.72,37.79a12.5,12.5,0,0,0,2.1-3c.09-.17-.14-.39-.28-.22a12.7,12.7,0,0,0-2,3.14c0,.09.07.21.16.12Z"/><path class="cls-8" d="M119.37,36.69a3.53,3.53,0,0,0,.33-2.21.18.18,0,0,0-.35,0,12.47,12.47,0,0,1-.21,2.11c0,.15.18.2.23.06Z"/><path class="cls-8" d="M115.79,40.8c1.93.2,4.71.29,6.49-.65.13-.07.06-.26-.08-.27a18.21,18.21,0,0,0-3.19.35c-1.07.1-2.15.15-3.22.22a.18.18,0,0,0,0,.35Z"/><path class="cls-8" d="M121.84,40.51a1.89,1.89,0,0,0,.4,2.11c.27.26.79-.1.54-.42a2.27,2.27,0,0,1-.49-1.57.24.24,0,0,0-.45-.12Z"/><path class="cls-8" d="M125.59,46.46a4.46,4.46,0,0,1,2.86-.19c.72.22,1.33,1,2.06,1a.27.27,0,0,0,.25-.25c0-1-1.48-1.4-2.24-1.53a4,4,0,0,0-3.06.64c-.15.11-.07.4.13.32Z"/><path class="cls-8" d="M167.15,58.87c2.38-.89,4.44-1.14,6.74.19a.5.5,0,0,0,.51-.87c-2.17-1.4-5.5-1.57-7.51.23-.19.18,0,.55.26.45Z"/><path class="cls-8" d="M68.63,63.59A34.59,34.59,0,0,1,70.37,60a8.67,8.67,0,0,1,1.37-1.53c.46-.4.9-.62,1.08-1.23a.36.36,0,0,0-.26-.46c-1.32-.18-2.53,1.44-3.2,2.42a5.72,5.72,0,0,0-1.18,4.31.25.25,0,0,0,.45.06Z"/><path class="cls-8" d="M64.22,53.12A14.07,14.07,0,0,0,66,54.22a4.08,4.08,0,0,0,1.67.79.22.22,0,0,0,.19-.33,4.2,4.2,0,0,0-1.51-1.07,15.61,15.61,0,0,0-1.8-1,.29.29,0,0,0-.28.48Z"/><path class="cls-8" d="M72,40a8.71,8.71,0,0,0,2,1.35A11,11,0,0,0,76,42.49a.34.34,0,0,0,.33-.56,11.13,11.13,0,0,0-2-1.28,9.11,9.11,0,0,0-2.12-1A.24.24,0,0,0,72,40Z"/><path class="cls-8" d="M78.45,50.67A2.63,2.63,0,0,1,79,49.51c.26-.38.7-.57.91-1a.68.68,0,0,0-.4-1A1.86,1.86,0,0,0,77.7,48.7a2.54,2.54,0,0,0-.09,2.09.43.43,0,0,0,.84-.12Z"/><path class="cls-8" d="M77.44,58.77c.39-1.07-1.42-5.14,1.11-4.39a.16.16,0,0,0,.12-.29,1.34,1.34,0,0,0-1.79.75c-.65,1.24-.19,2.65.15,3.93a.21.21,0,0,0,.41,0Z"/><path class="cls-8" d="M108.58,49.82c4.14-.3,8.27-.81,12.41-1.12a.17.17,0,0,0,0-.34,57.77,57.77,0,0,0-12.44,1.24c-.13,0-.1.23,0,.22Z"/><path class="cls-8" d="M116.43,45.85a10.61,10.61,0,0,0,3.81,0c.19,0,.12-.31,0-.32a10.34,10.34,0,0,0-3.76.18.09.09,0,0,0,0,.18Z"/><path class="cls-8" d="M106.05,40.88c.64,0,1.29,0,1.94,0a5.67,5.67,0,0,0,1.7-.11.18.18,0,0,0,0-.34,5.37,5.37,0,0,0-1.7-.07c-.65,0-1.3,0-1.94.08a.22.22,0,0,0,0,.43Z"/><path class="cls-8" d="M109.91,40.48a13.74,13.74,0,0,0,.76,1.27,5.78,5.78,0,0,0,.83,1.07c.15.12.44,0,.36-.21a5.61,5.61,0,0,0-.78-1.22,10.74,10.74,0,0,0-.91-1.11c-.13-.14-.35,0-.26.2Z"/><path class="cls-8" d="M103.27,34.28a13.82,13.82,0,0,1,.41,1.53c.09.52.09,1,.18,1.56a.18.18,0,0,0,.34,0,5.26,5.26,0,0,0-.69-3.19.13.13,0,0,0-.24.1Z"/><path class="cls-8" d="M96.34,19.43c3-.41,6-.73,9-1a.13.13,0,0,0,0-.26,33.37,33.37,0,0,0-9.12,1c-.19.05-.1.31.08.29Z"/><path class="cls-8" d="M97,21.13a60.05,60.05,0,0,0,7.47-.13.21.21,0,0,0,0-.41,60.26,60.26,0,0,0-7.47.35.1.1,0,0,0,0,.19Z"/><path class="cls-8" d="M99.31,18.78c0,.75,0,1.51.07,2.26a.09.09,0,1,0,.17,0c0-.75,0-1.51,0-2.26a.13.13,0,0,0-.25,0Z"/><path class="cls-8" d="M103,19.07a14.72,14.72,0,0,0,.37,1.87c0,.12.24.11.22,0a14,14,0,0,0-.44-1.89.08.08,0,0,0-.15.05Z"/><path class="cls-8" d="M99.54,25.9a39.61,39.61,0,0,0,1.12,5.84.09.09,0,0,0,.18,0,39.34,39.34,0,0,0-1-5.88c0-.17-.29-.1-.27.07Z"/><path class="cls-8" d="M98.9,16.64a3.84,3.84,0,0,0,0,.83c0,.13.22.09.22,0a2.79,2.79,0,0,0-.07-.82c0-.1-.16-.07-.17,0Z"/><path class="cls-8" d="M58.8,59.71c.56-.37.87,0,1.38.2a.29.29,0,0,0,.35-.36c-.2-.9-1.54-.73-2.06-.27-.23.2.07.59.33.43Z"/><path class="cls-8" d="M183,61.67a37.06,37.06,0,0,0,5.87.26,33.48,33.48,0,0,0,5.84-.14c.16,0,.13-.26,0-.31A22.9,22.9,0,0,0,183,61.23c-.21.06-.23.4,0,.44Z"/><path class="cls-8" d="M179.62,67.72c-4.48,2.25-7.6,7-10.53,10.92-3.55,4.71-7.29,9-12.66,11.63-.18.09-.06.39.13.32C161.49,89,165.07,85,168.18,81c1.76-2.25,3.41-4.58,5.24-6.78A57.67,57.67,0,0,1,179.84,68c.17-.14,0-.38-.22-.29Z"/><path class="cls-8" d="M167.51,84.48c-1.35,1.51-2.39,3.31-3.7,4.87s-2.86,2.92-4.24,4.44c-.18.2.05.54.29.38a22.93,22.93,0,0,0,4.68-4.55,18.48,18.48,0,0,0,3.27-5,.18.18,0,0,0-.3-.18Z"/><path class="cls-8" d="M90,87.51c7.14,1.4,14.73,1,21.93.25a92.43,92.43,0,0,0,21.58-4.52.47.47,0,0,0-.26-.91,151.08,151.08,0,0,1-21.78,4.38c-7.16.74-14.27.38-21.44.53-.15,0-.19.24,0,.27Z"/><path class="cls-8" d="M122.73,64.35a335.45,335.45,0,0,0,44.57-2.53c.6-.08.62-1,0-1-14.85,1.33-29.68,2.29-44.57,3.09a.2.2,0,0,0,0,.4Z"/><path class="cls-8" d="M111.25,65.38a.56.56,0,0,0,0-1.12.56.56,0,0,0,0,1.12Z"/><path class="cls-8" d="M106.18,65.9a.41.41,0,0,0,0-.82.41.41,0,0,0,0,.82Z"/><path class="cls-8" d="M101.77,66.1a.35.35,0,0,0,0-.7.35.35,0,0,0,0,.7Z"/><path class="cls-9" d="M141.55,81.56a95.11,95.11,0,0,0,10.27-.12.16.16,0,0,0,0-.31,95.09,95.09,0,0,0-10.27.19.12.12,0,0,0,0,.24Z"/><path class="cls-9" d="M142.35,73.22a50.58,50.58,0,0,0,13.11-.78c.15,0,.12-.29,0-.27-4.38.41-8.69.7-13.08.85a.1.1,0,1,0,0,.2Z"/><path class="cls-9" d="M145.81,66.47a68,68,0,0,0,12.68.28.21.21,0,0,0,0-.42,67.13,67.13,0,0,0-12.68-.08.11.11,0,0,0,0,.22Z"/><path class="cls-9" d="M168.83,69.49a11.05,11.05,0,0,0,6,0c.23-.08.21-.46-.06-.45a42.86,42.86,0,0,1-5.89,0c-.25,0-.29.37-.06.43Z"/><path class="cls-9" d="M169.71,72.11l1.72-.21a6.38,6.38,0,0,0,1.51-.27c.11,0,.15-.24,0-.26a13.61,13.61,0,0,0-3.23.31c-.28,0-.28.47,0,.43Z"/><path class="cls-9" d="M172,72.48a32.76,32.76,0,0,0-3.3,3.57c-.1.14.11.35.25.24a32.76,32.76,0,0,0,3.44-3.43c.24-.25-.15-.63-.39-.38Z"/><path class="cls-9" d="M78.81,65.54A103.24,103.24,0,0,0,94.44,65a.13.13,0,0,0,0-.25,103.3,103.3,0,0,0-15.63.49.17.17,0,0,0,0,.33Z"/><path class="cls-9" d="M60.22,71.89c.32,8.63.9,17.26,1.41,25.88,0,.64,1,.64,1,0C62,89.15,61.39,80.5,60.55,71.89c0-.21-.34-.22-.33,0Z"/><path class="cls-9" d="M79.09,70.92c4.57,0,9.34.36,13.88-.22a.16.16,0,0,0,0-.31c-4.55-.51-9.31-.1-13.88,0a.26.26,0,0,0,0,.52Z"/><path class="cls-9" d="M63.13,72a1.65,1.65,0,0,0,1,0,4.3,4.3,0,0,0,1.24-.28c.23-.12.1-.44-.13-.46a4.2,4.2,0,0,0-1.16.19,1.83,1.83,0,0,0-.94.35.14.14,0,0,0,0,.21Z"/><path class="cls-9" d="M62.42,74.64c.3.82,2,1.06,2.63.64a.23.23,0,0,0,0-.42,10.71,10.71,0,0,0-1.4-.15,3.35,3.35,0,0,0-1.12-.17s-.07.06-.06.1Z"/><path class="cls-9" d="M62.93,79.51c.59.6,1.85,1.21,2.67.74a.26.26,0,0,0-.06-.47c-.37-.12-.78,0-1.17-.13a5.62,5.62,0,0,1-1.2-.46.2.2,0,0,0-.24.32Z"/><path class="cls-9" d="M63.54,82.81a2.61,2.61,0,0,0,2.46,0,.36.36,0,0,0-.16-.6,3.6,3.6,0,0,0-1.08.07,5.53,5.53,0,0,1-1.15,0c-.31,0-.32.41-.07.5Z"/><path class="cls-9" d="M63.65,88a8.82,8.82,0,0,0,1.52.44.44.44,0,0,0,.42-.11.37.37,0,0,0,.11-.42.43.43,0,0,0-.3-.3,9.29,9.29,0,0,0-1.66-.28c-.41,0-.43.55-.09.67Z"/><path class="cls-9" d="M64.14,93a18.21,18.21,0,0,0,3.54,0,.28.28,0,0,0,0-.53,19,19,0,0,0-3.54-.09.3.3,0,0,0,0,.59Z"/><path class="cls-9" d="M64.13,96.81a4.13,4.13,0,0,0,3.51.26.29.29,0,0,0-.07-.52,7.9,7.9,0,0,0-1.46-.09,11.19,11.19,0,0,1-1.74-.22c-.32-.07-.58.41-.24.57Z"/><path class="cls-9" d="M64.73,101.24c1,.29,2.82.34,3.53-.59.12-.17-.06-.35-.22-.37a5.36,5.36,0,0,0-1.47.27,11.49,11.49,0,0,1-1.76.13.29.29,0,0,0-.08.56Z"/><path class="cls-9" d="M98.4,89.88a53.72,53.72,0,0,0,9.66.09c3.36-.11,6.73-.29,10.08-.6a155.46,155.46,0,0,0,19.58-2.71c.08,0,.06-.15,0-.14-6.69.75-13.32,1.72-20,2.19-3.2.23-6.4.43-9.6.55a94.2,94.2,0,0,0-9.66.38c-.12,0-.11.22,0,.24Z"/><path class="cls-9" d="M137.3,86.64c.85-.13,1.69-.24,2.52-.45a0,0,0,0,0,0,0,23.74,23.74,0,0,0-2.54.25.13.13,0,1,0,0,.25Z"/><path class="cls-9" d="M101.24,82.72a30.89,30.89,0,0,0,8.43-.11.09.09,0,0,0,0-.17,30.51,30.51,0,0,0-8.43,0,.17.17,0,0,0,0,.33Z"/><path class="cls-9" d="M96.7,80.42c3.83-.14,7.67-.27,11.48-.77.16,0,.17-.26,0-.26-3.83-.06-7.66.25-11.48.55-.31,0-.32.5,0,.48Z"/><path class="cls-9" d="M100.81,74.39a5.47,5.47,0,0,0,.31,3.44.14.14,0,0,0,.25-.07c0-.55-.2-1.1-.25-1.65a9.53,9.53,0,0,1,0-1.69.15.15,0,0,0-.29,0Z"/><path class="cls-9" d="M110.12,74.66A9,9,0,0,0,110,77.3a14.79,14.79,0,0,0,.15,2.66.23.23,0,0,0,.43,0,15.76,15.76,0,0,0,0-2.66,8.64,8.64,0,0,0-.23-2.64.14.14,0,0,0-.26,0Z"/><path class="cls-9" d="M113.67,74.79a48.47,48.47,0,0,0-.54,5.51c0,.35.5.34.54,0a45.47,45.47,0,0,0,.3-5.47c0-.17-.27-.22-.3,0Z"/><path class="cls-9" d="M122.93,74.29c-.15,1.56-.06,3.93.78,5.29a.2.2,0,0,0,.36-.1,13.11,13.11,0,0,0-.4-2.47c-.15-.92-.25-1.84-.42-2.76,0-.19-.3-.13-.32,0Z"/><path class="cls-9" d="M79.53,75.15a22.53,22.53,0,0,1,.64,2.67c.14.92.12,1.83.22,2.74,0,.25.43.37.49.07A10.58,10.58,0,0,0,80,75c-.11-.27-.55-.07-.47.2Z"/><path class="cls-9" d="M91.73,74.2a7.06,7.06,0,0,0-1.11,2.63A11.19,11.19,0,0,0,90,80.05a.18.18,0,0,0,.34,0c.39-1,.53-2.1.82-3.13a11.47,11.47,0,0,0,.72-2.73.06.06,0,0,0-.11,0Z"/><path class="cls-9" d="M101.24,71.78a74.94,74.94,0,0,0,8.74.12c2.91,0,5.84,0,8.74-.1a.25.25,0,0,0,0-.49c-2.9-.11-5.83,0-8.74,0a72.78,72.78,0,0,0-8.74.18.16.16,0,0,0,0,.31Z"/><path class="cls-9" d="M113.92,63.8a21.36,21.36,0,0,0,5.65-.22c.12,0,.14-.25,0-.27a21.42,21.42,0,0,0-5.65.22.14.14,0,0,0,0,.27Z"/><path class="cls-10" d="M76.07,61.83a2.1,2.1,0,0,0,.29,2,.21.21,0,0,0,.37-.21,3.53,3.53,0,0,1-.37-1c0-.27,0-.55-.1-.81a.1.1,0,0,0-.19,0Z"/><path class="cls-10" d="M76.29,64.29a30.32,30.32,0,0,0,3.8-.19A21.78,21.78,0,0,0,83.42,64c.19,0,.17-.33,0-.38a10.75,10.75,0,0,0-3.88-.13,10,10,0,0,0-3.3.65c-.11,0,0,.18.05.19Z"/><path class="cls-10" d="M73.44,64.4a1,1,0,0,0,1.79,0A1.89,1.89,0,0,0,75.4,63a6.55,6.55,0,0,0-.27-.89,5.24,5.24,0,0,0-.26-.88c-.09-.21-.39-.13-.45.06-.18.54.17,1.1.32,1.62a1.61,1.61,0,0,1,0,1c-.11.32-.64.67-.88.23s-.6,0-.46.27Z"/><path class="cls-10" d="M66.54,60.76a7.35,7.35,0,0,1,1.36-3,12.35,12.35,0,0,1,2.39-1.89.19.19,0,0,0-.13-.33c-2.23.28-4,3-4.23,5.1,0,.35.53.42.61.08Z"/><path class="cls-10" d="M75.44,50.93a18.33,18.33,0,0,1,1.3-2.72A30.91,30.91,0,0,1,79,45.93a.17.17,0,0,0-.16-.28C77,46.07,75,48.92,75,50.81a.24.24,0,0,0,.44.12Z"/><path class="cls-10" d="M81.84,48.62a14.79,14.79,0,0,0-.12,2.4l.21-.28a6.26,6.26,0,0,0-2,.52.25.25,0,0,0,.12.46,6.53,6.53,0,0,0,2.07-.42A.29.29,0,0,0,82.3,51a16,16,0,0,0-.09-2.4.19.19,0,0,0-.37,0Z"/><path class="cls-10" d="M86.28,44.09a1.81,1.81,0,0,0-.11,1.27c0,.08.16.12.2,0a1.77,1.77,0,0,0,.08-1.28.09.09,0,0,0-.17,0Z"/><path class="cls-10" d="M86.28,45.52c9.5-.73,18.91-1.46,28.44-1.63a.2.2,0,0,0,0-.39,198,198,0,0,0-28.48,1.72c-.17,0-.13.31,0,.3Z"/><path class="cls-10" d="M93.76,39.31c3.7.46,8.06-.1,11.75-.56.42,0,.45-.67,0-.67-3.73,0-8.17-.06-11.8.86-.22.05-.14.34.05.37Z"/><path class="cls-10" d="M76.94,63.64c5,.07,10-.32,15-.52s10,0,15-.61a.27.27,0,0,0,0-.53c-4.91-.38-10,.11-15,.3s-10,.32-15,1c-.23,0-.25.38,0,.38Z"/><path class="cls-10" d="M111.92,60.67a148.82,148.82,0,0,0,23.22-.81c.33,0,.35-.54,0-.53-7.73.13-15.49.73-23.22,1a.17.17,0,0,0,0,.34Z"/><path class="cls-10" d="M108,55l.15.11c.07.05.17,0,.12-.12l-.11-.14c-.11-.15-.31,0-.16.15Z"/><path class="cls-10" d="M108.05,55.61a52.52,52.52,0,0,0,5.47,0,.23.23,0,0,0,0-.46,52.56,52.56,0,0,0-5.47.24.11.11,0,0,0,0,.21Z"/><path class="cls-10" d="M108.18,55.37a132.89,132.89,0,0,0,32.76-2.57c.18,0,.14-.35-.05-.33A308.31,308.31,0,0,1,108.18,55a.21.21,0,0,0,0,.42Z"/><path class="cls-10" d="M145.55,60.34a17.39,17.39,0,0,0,3.52-.37c.2,0,.15-.35,0-.35a16.67,16.67,0,0,0-3.52.34.19.19,0,0,0,.05.38Z"/><path class="cls-10" d="M127.54,44.74a8.54,8.54,0,0,1,1.6.06c.5.09.94.32,1.43.41a.17.17,0,0,0,.16-.28,3.38,3.38,0,0,0-3.25-.56.19.19,0,0,0,.06.37Z"/><path class="cls-10" d="M133.8,45.93a7,7,0,0,0,1.82-1.31c.07-.09,0-.26-.12-.21a7.28,7.28,0,0,0-1.86,1.31c-.12.1,0,.29.16.21Z"/><path class="cls-8" d="M151.64,94.39c-2.65-1-7.08-.45-7.49,3a2.75,2.75,0,0,0,1.48,2.91,2,2,0,0,0,2.81-.71.4.4,0,0,0-.55-.54,1.77,1.77,0,0,1-2.56-.38,2.48,2.48,0,0,1,1-3c1.54-1.09,3.54-.79,5.31-1,.14,0,.11-.22,0-.26Z"/><path class="cls-8" d="M151.3,94.39c-2.26,1.06-4.59,3.92-3.18,6.49.89,1.62,4.22,2.21,4.45-.18,0-.4-.45-.48-.7-.29a1.66,1.66,0,0,1-2.77-1.6c.19-1.66,1.67-2.63,2.63-3.85a.36.36,0,0,0-.43-.57Z"/><path class="cls-8" d="M148.79,94.64a4.94,4.94,0,0,0-3.19,5.57.74.74,0,0,0,.71.54c.95-.06,1.82-.49,1.91-1.52,0-.35-.38-.49-.65-.37a2.71,2.71,0,0,1-1.26.43l.7.54a4.13,4.13,0,0,1,2-4.62c.31-.16.09-.7-.24-.57Z"/><path class="cls-8" d="M146.53,96.05A3.07,3.07,0,0,0,147.66,99a.29.29,0,0,0,.41-.32c-.12-.42-.36-.79-.47-1.22a3.78,3.78,0,0,1-.07-1.38c.08-.63-.93-.64-1,0Z"/><path class="cls-8" d="M149.76,102.19a7.71,7.71,0,0,0,2.55-.91A3.6,3.6,0,0,0,154,99.61c.1-.33-.27-.52-.53-.4a11.34,11.34,0,0,0-1.75,1.37,7.83,7.83,0,0,1-2.15,1.06.29.29,0,0,0,.15.55Z"/><path class="cls-8" d="M153.55,98.76c-.84-.15-1.4.54-1.61,1.28a2.32,2.32,0,0,0,.85,2.51c2,1.54,5,0,6-2a.5.5,0,0,0-.68-.68c-1.16.52-2.15,1.76-3.51,1.7a1.29,1.29,0,0,1-1.32-.94c-.13-.57.18-.91.45-1.36a.34.34,0,0,0-.2-.5Z"/><path class="cls-8" d="M156.81,101.69A11.13,11.13,0,0,0,159.89,99c.71-.88,1.68-2.05,1.73-3.22a.43.43,0,0,0-.73-.3c-.76.78-1.12,2-1.79,2.91a18.63,18.63,0,0,1-2.67,2.8c-.27.24.08.66.38.49Z"/><path class="cls-8" d="M158.9,96.9a11.51,11.51,0,0,0-4.92,4.58c-.44.73.63,1.29,1.11.65,1.36-1.8,2.71-3.6,4.1-5.37a.64.64,0,0,0-.77-1,11.75,11.75,0,0,0-5,4.3c-.4.62.36,1.16.91.91,1.43-.62,2.61-2.86,1.18-4.15-1.75-1.55-3.13,1-3.33,2.39a.65.65,0,0,0,1.19.5,14.89,14.89,0,0,0,2.1-3.83.65.65,0,0,0-.79-.79,6.49,6.49,0,0,0-3.86,3.56c-.27.6.33,1.45,1,1A4.63,4.63,0,0,0,154,95.83a.74.74,0,0,0-1.1-.63,7.52,7.52,0,0,0-3.49,3.38.74.74,0,0,0,1.16.9c1-.76,1.92-1.56,2.83-2.39.3-.28-.08-.7-.42-.54-1.12.54-2.23,1.14-3.3,1.77l1,1a6.07,6.07,0,0,1,2.94-2.87l-1.09-.63a3.07,3.07,0,0,1-1.42,2.56l1.08.82a5.11,5.11,0,0,1,2.86-2.89l-.79-.78a11.8,11.8,0,0,1-1.88,3.38l1.08.63c0-.31.1-.63.17-.94q2.34-1.53.22,1.14l.75,1a11.1,11.1,0,0,1,4.45-3.87L158.2,96c-1.35,1.8-2.74,3.58-4.12,5.36l1,.78a14.55,14.55,0,0,1,4.12-4.84c.24-.18-.07-.51-.31-.39Z"/><path class="cls-8" d="M150.21,95.39c1.61.19,3.26-.23,4.89-.14,1.45.09,3,.88,4.39.51a.64.64,0,0,0,.28-1.05c-1-1.3-3.44-1.31-5-1.32a7.62,7.62,0,0,0-4.88,1.26c-.33.27,0,.7.3.74Z"/><path class="cls-8" d="M155,95.23c.86.65,1.78,1.75,2.91,1.85a.67.67,0,0,0,.58-1,3.22,3.22,0,0,0-1.36-1c-.53-.28-1.09-.46-1.63-.71a.5.5,0,0,0-.5.86Z"/><path class="cls-8" d="M154.91,94.72c-2.91-1.47-7.43-1.51-9.28,1.68a.39.39,0,0,0,.53.52c2.71-1.59,5.34-2.94,8.52-1.65.31.12.53-.4.23-.55Z"/><path class="cls-8" d="M102.58,104.26c3-1.38,5.62-3.4,8.83-4.55a53.91,53.91,0,0,1,9-1.94c.27,0,.19-.44-.06-.45a25.54,25.54,0,0,0-9.89,2c-2.73,1.06-6.08,2.48-8,4.72a.15.15,0,0,0,.18.23Z"/><path class="cls-8" d="M115.81,97c-6.69-1-14-.08-20.52,1.52-1.72.41-4.36,1-4.6,3.21a1.83,1.83,0,0,0,2.44,2.11c.27-.1.34-.55,0-.62q-.67-3.09,1.57-3.35l.9-.23c.9-.23,1.81-.44,2.72-.63q3.12-.67,6.29-1.05c3.74-.45,7.43-.49,11.17-.76.11,0,.15-.18,0-.2Z"/><path class="cls-8" d="M100.82,95.47c-2.86.28-6.51,1.45-8,4.14a2.69,2.69,0,0,0,0,3,1.61,1.61,0,0,0,2.4.51.36.36,0,0,0-.19-.67,1.91,1.91,0,0,1-1.45-1.25c-.11-.45.46-1.24.74-1.56A9,9,0,0,1,96.36,98a13.65,13.65,0,0,1,4.57-1.74.41.41,0,0,0-.11-.8Z"/><path class="cls-8" d="M102.9,96.85a11.36,11.36,0,0,0-6.8,5.78.76.76,0,0,0,.11.88c2.22,1.86,4.62.72,6.85-.56l5.67-3.28c1.76-1,3.8-1.87,5.2-3.38a.47.47,0,0,0-.45-.77c-1.86.43-3.49,1.64-5.13,2.59l-5.26,3c-1,.56-6,3.48-4.76.23.69-1.8,3.14-3.32,4.78-4,.27-.12.08-.58-.21-.48Z"/><path class="cls-8" d="M110.64,97.09a24.49,24.49,0,0,0-12,5.36c-.83.67.36,1.87,1.18,1.18a34.43,34.43,0,0,1,10.9-6,.25.25,0,0,0-.13-.49Z"/><path class="cls-8" d="M100.2,102.62c1.39-2.44,2.85-4.46,5.61-5.45a.85.85,0,0,0-.45-1.63c-2.77.55-5.55,1-8.3,1.68-1.06.25-.59,1.79.45,1.61,2.78-.47,5.53-1.1,8.3-1.66l-.45-1.63c-2.94,1.09-5.7,3.57-6,6.84,0,.48.65.62.87.24Z"/><path class="cls-8" d="M107.23,96.26a15.36,15.36,0,0,0-7.5,1.54c-2.2,1-5,2.29-6.34,4.36-.37.56.33,1,.83.83,2.1-.9,3.84-2.62,6-3.63,2.3-1.09,4.75-1.79,7.11-2.73a.19.19,0,0,0,0-.37Z"/><path class="cls-8" d="M18.67,101.11a2.39,2.39,0,1,0,1.85,4c.22-.22-.08-.64-.34-.45a2.12,2.12,0,0,1-2.89-.46,2,2,0,0,1,1.42-2.83c.17,0,.13-.32,0-.3Z"/><path class="cls-8" d="M27.5,106.3a78,78,0,0,1,7.79-3.82A71.07,71.07,0,0,1,43,100.66a.37.37,0,0,0-.1-.73c-5.11-.08-11.92,2.57-15.53,6.22a.09.09,0,0,0,.11.15Z"/><path class="cls-8" d="M40.27,100.22c-4.7.32-9.38-.73-14.08-.07-2.78.39-7.28,1.4-8.44,4.34a.39.39,0,0,0,.48.47c1.64-.58,2.9-1.85,4.58-2.47a19.87,19.87,0,0,1,5.51-1.08c4-.27,8-.12,12-.75.25,0,.19-.45-.06-.44Z"/><path class="cls-8" d="M27.45,101.62c-2.39.26-5.77,1.51-6.31,4.18a.43.43,0,0,0,.72.42c.92-.71,1.56-1.68,2.53-2.37a8.06,8.06,0,0,1,3.16-1.48c.42-.08.33-.8-.1-.75Z"/><path class="cls-8" d="M32,101.53a6.49,6.49,0,0,0-3.75.8c-.88.43-2.46,1.39-2.37,2.51,0,.24.21.52.49.49,1-.09,1.71-1.22,2.48-1.81a14.71,14.71,0,0,1,3.22-1.74c.13-.06,0-.24-.07-.25Z"/><path class="cls-8" d="M32.12,101.79a8,8,0,0,1-5.55,1.76c-1.58-.08-2.86-1.07-4.38-1.12a.43.43,0,0,0-.37.64c.93,1.61,3.65,1.84,5.34,1.74a9.82,9.82,0,0,0,5.67-2.31c.5-.41-.21-1.1-.71-.71Z"/><path class="cls-8" d="M19.48,103.84c2.37-2.59,5.51-3.08,8.81-2.51a.64.64,0,0,0,.34-1.23c-3.51-1.42-7.57.25-9.86,3-.39.48.27,1.18.71.7Z"/><path class="cls-8" d="M22.44,101.51a8.88,8.88,0,0,1,3.48-.75,11.79,11.79,0,0,0,2.66-.09.33.33,0,0,0,.08-.59c-1.86-1.39-4.76,0-6.42,1.08a.2.2,0,0,0,.2.35Z"/><path class="cls-8" d="M17.31,92.13A14.2,14.2,0,0,1,23,89.38c2.21-.45,4.1.12,6.26.39.52.06.63-.69.25-.93-3.85-2.39-9.86-.33-12.45,3-.11.15.12.38.27.27Z"/><path class="cls-8" d="M17.32,91.74a29.56,29.56,0,0,0,6-.42,22,22,0,0,0,5.32-1,.61.61,0,0,0-.16-1.19,21.8,21.8,0,0,0-5.37.61,30.42,30.42,0,0,0-5.89,1.32.33.33,0,0,0,.09.65Z"/><path class="cls-8" d="M-5.46,102.09A10.5,10.5,0,0,1-2,101.61c1.19.07,2.21.64,3.36.81a.76.76,0,0,0,.73-1.26c-1.9-1.89-5.9-1.56-8.07-.37a.71.71,0,0,0,.55,1.3Z"/><path class="cls-8" d="M187.79,81.24c.52-.44.1-1.4.46-2a1.12,1.12,0,0,1,1.53-.29,1,1,0,0,0,1-1.66,3,3,0,0,0-4.08.85,2.78,2.78,0,0,0-.37,2.19c.16.59.85,1.42,1.49.88Z"/><path class="cls-8" d="M189.69,83.23a2.58,2.58,0,0,1,.83-2.49,1.9,1.9,0,0,1,2.44.57c.71.81,2.17-.27,1.52-1.17A3.78,3.78,0,0,0,189.64,79c-1.53.87-2.42,3.06-1.36,4.61.4.57,1.45.42,1.41-.38Z"/><path class="cls-8" d="M179.17,90.89c-2.94.4-4.85,3.6-5.35,6.26a.79.79,0,0,0,.75,1,1.17,1.17,0,0,0,1.06-.43.47.47,0,0,0,.07-.55,1.25,1.25,0,0,0-1.13-.57l.74,1c.48-2.79,2.19-4.44,4-6.43.11-.11,0-.26-.14-.24Z"/><path class="cls-8" d="M174.88,97.51c2.52,2.14,8.3.37,10.64-1.42.56-.43.28-1.55-.53-1.27a29.65,29.65,0,0,1-5.29,1.7c-1.6.25-3.28-.08-4.77.62a.24.24,0,0,0-.05.37Z"/><path class="cls-8" d="M185.07,96.19c1.59-1.32,3.16-2.71,4.85-3.9,1.09-.78,3.19-1.41,3.55-2.79a.44.44,0,0,0-.29-.52c-1.54-.53-3.62,1.5-4.77,2.38a17.39,17.39,0,0,0-4.07,4.27c-.31.46.35.87.73.56Z"/><path class="cls-8" d="M190.62,88.35c-4.35,2.22-8.69,4.42-13,6.7L179,96.13c1.23-3.88,5.31-4.87,8.83-5.68,1.2-.27.69-2.09-.5-1.83-4.26.94-8.78,2.41-10.18,7a1,1,0,0,0,1.41,1.09c4.31-2.33,8.45-4.8,12.61-7.39a.56.56,0,0,0-.57-1Z"/><path class="cls-8" d="M110.14,4.74a1.53,1.53,0,0,0,.09,2.52c1.14.68,2.52-.59,2.27-1.8a1.7,1.7,0,0,0-2.77-.71,1.71,1.71,0,0,0,1,2.86.77.77,0,0,0,.85-.35.72.72,0,0,0,0-.76.79.79,0,0,0-.45-.35c-.17,0-.17,0-.27-.07s-.18-.38.13-.3.15.44-.11.47-.29-.55-.12-.72a.51.51,0,0,0-.61-.79Z"/><path class="cls-11" d="M74.23,52.92c.35,4,.84,8,1.34,12,0,.27.45.27.42,0-.46-4-.93-8-1.53-12,0-.12-.24-.1-.23,0Z"/><path class="cls-11" d="M74.14,53.26c13-2.48,25.82-4.78,39.06-5.4,10.62-.49,29.7-1.88,30.84,13a.2.2,0,0,0,.4,0c.22-4.94-3.57-9.21-7.78-11.28-5.7-2.8-12.47-2.49-18.64-2.34-14.64.33-29.81,1.86-43.91,6a0,0,0,0,0,0,.09Z"/><path class="cls-11" d="M82.61,51.86a9.11,9.11,0,0,0,.24-2.61,25.72,25.72,0,0,0,0-3c0-.17-.3-.24-.33-.05a22.94,22.94,0,0,0-.1,2.87,9.92,9.92,0,0,0,.12,2.83s0,0,0,0Z"/><path class="cls-11" d="M82.87,46.33c6.3-.42,12.55-1.34,18.86-1.69s12.62-.29,19-.29a.22.22,0,0,0,0-.43,177.36,177.36,0,0,0-19.43.26,123.42,123.42,0,0,0-18.4,2c-.08,0-.06.15,0,.15Z"/><path class="cls-11" d="M120.64,44.6a4.63,4.63,0,0,1,3.16,2.72c.07.14.27,0,.25-.11a3.82,3.82,0,0,0-3.37-2.88c-.15,0-.19.24,0,.27Z"/><path class="cls-11" d="M86,45.15c.22-1.76.34-3.53.43-5.29,0-.31-.44-.3-.47,0-.15,1.75-.28,3.52-.31,5.29,0,.23.32.22.35,0Z"/><path class="cls-11" d="M85.38,40.79c4.26.2,8.63-.35,12.88-.6l12.89-.78c.31,0,.31-.5,0-.48l-13.38.82a116.75,116.75,0,0,0-12.41.93c-.06,0,0,.1,0,.11Z"/><path class="cls-11" d="M110.43,38.86a6.6,6.6,0,0,1,4,4.94c0,.27.47.16.42-.12a6.14,6.14,0,0,0-4.41-5c-.08,0-.11.1,0,.13Z"/><path class="cls-11" d="M93.76,39.85a66.44,66.44,0,0,0,.16-7.06.24.24,0,0,0-.48,0,69.19,69.19,0,0,0,.16,7.06.08.08,0,0,0,.16,0Z"/><path class="cls-11" d="M93.16,33c4-.08,8-.43,12-.72.29,0,.29-.47,0-.45-4,.26-8,.47-12,.93-.15,0-.16.24,0,.24Z"/><path class="cls-11" d="M104.35,32.44c.13,1,.62,1.91.83,2.89a25.86,25.86,0,0,1,.26,3.83.18.18,0,0,0,.35,0c.46-1.92.1-5.31-1.28-6.82-.05-.06-.17,0-.16.06Z"/><path class="cls-11" d="M99,22.91a61.88,61.88,0,0,0,0,9.53.17.17,0,0,0,.34,0,61.88,61.88,0,0,0,0-9.53.16.16,0,0,0-.32,0Z"/><path class="cls-11" d="M100.52,22.55c.3,3.44.77,6.88,1.31,10.29,0,.19.36.14.34-.05-.39-3.42-.85-6.87-1.47-10.26,0-.1-.19-.08-.18,0Z"/><path class="cls-11" d="M95.61,22.53c3.89-.09,7.78-.31,11.65-.59.26,0,.27-.43,0-.41-3.88.17-7.77.42-11.65.79-.13,0-.14.22,0,.21Z"/><path class="cls-11" d="M107.75,21.85a29.11,29.11,0,0,0-.67-5.34.17.17,0,0,0-.33,0,29,29,0,0,0,.75,5.33.13.13,0,0,0,.25,0Z"/><path class="cls-11" d="M94.84,18.33c.14,1.66.35,3.33.62,5,0,.16.31.12.29,0-.19-1.66-.46-3.32-.79-5,0-.07-.12,0-.12,0Z"/><path class="cls-11" d="M94.56,18.31c5,0,10.13-.54,15.18-.89.26,0,.26-.43,0-.41-5.06.32-10.16.51-15.18,1.14-.11,0-.11.17,0,.16Z"/><path class="cls-11" d="M98.63,17.22c-.08-.57-.12-1.13-.22-1.7l-.17.22,2-.08c.21,0,.21-.33,0-.32l-2,.05a.17.17,0,0,0-.17.22c.1.57.25,1.11.37,1.67,0,.13.21.07.19-.06Z"/><path class="cls-11" d="M100.11,15.5c0,.82,0,1.65,0,2.47a.15.15,0,0,0,.3,0c0-.82,0-1.65,0-2.47a.1.1,0,0,0-.2,0Z"/><path class="cls-11" d="M82.93,45.24a6.82,6.82,0,0,0-7.5,8c0,.28.47.16.43-.11a6.51,6.51,0,0,1,7.07-7.59c.23,0,.22-.32,0-.35Z"/><path class="cls-11" d="M73.37,55.15c-4.52.35-7.73,5.08-6.82,9.45,0,.26.45.15.4-.12a8,8,0,0,1,6.45-9.13.1.1,0,0,0,0-.2Z"/><path class="cls-11" d="M162.79,61.08c1.78-2.82,4.45-5.13,8-5.18a9.17,9.17,0,0,1,8.09,4.83c.15.27.57,0,.42-.25-3.56-6.39-13.83-6.92-16.57.56,0,.06.06.09.1,0Z"/><path class="cls-11" d="M169,61c1.69-3,5.46-2.36,6.43.79.07.23.39.13.36-.1-.54-3.61-5.56-4-6.89-.73,0,.05.07.09.1,0Z"/><path class="cls-11" d="M171.09,54.94c3.69-1.77,7.18-4.1,10.67-6.22a.22.22,0,0,0-.22-.37,123,123,0,0,0-10.5,6.5.05.05,0,0,0,.05.09Z"/><path class="cls-11" d="M184.56,52.56c-1.86,2.88-3.62,5.83-5.38,8.77-.1.17.16.32.27.16,1.79-2.92,3.59-5.85,5.29-8.83a.1.1,0,0,0-.18-.1Z"/><path class="cls-11" d="M112.56,39c3.74.63,7.86.41,11.65.43a.17.17,0,0,0,0-.34c-3.79-.17-7.88-.59-11.64-.16,0,0,0,.06,0,.07Z"/><path class="cls-11" d="M123.36,41.26c.12,1.3.23,2.59.36,3.89,0,.17.29.17.27,0-.1-1.3-.23-2.59-.35-3.89,0-.17-.29-.17-.28,0Z"/><path class="cls-11" d="M122.39,45.07c5.12-2.67,9.94-.8,12.67,4,.07.12.27,0,.23-.09-1.84-5.28-8.5-7-13-4.07a.09.09,0,0,0,.09.15Z"/><path class="cls-11" d="M110.28,8.45c.53,10.12,1.81,20.26,2.75,30.35,0,.22.37.22.35,0-1-10.1-1.63-20.31-3-30.36,0,0-.08,0-.08,0Z"/><path class="cls-11" d="M114.39,38.44q-1.45-15.16-3-30.33c0-.14-.23-.14-.22,0q1.48,15.17,3,30.33c0,.11.18.11.17,0Z"/><path class="cls-11" d="M109.37,4.94a2.23,2.23,0,0,0,.25,3.36,2.4,2.4,0,0,0,3.34-1,2.61,2.61,0,0,0-1.45-3.44,2.86,2.86,0,0,0-3.67,2c0,.13.17.23.22.09A2.86,2.86,0,0,1,110.69,4,2.33,2.33,0,0,1,112.77,7,2.11,2.11,0,0,1,110,8.17a2,2,0,0,1-.48-3.09.1.1,0,0,0-.14-.14Z"/><path class="cls-11" d="M88,39.81c-.2-1.41-.41-2.84-.7-4.24,0-.12-.2-.06-.19.06.2,1.41.46,2.83.74,4.22,0,.1.16.06.15,0Z"/><path class="cls-11" d="M86.81,35.66c1-.2,1.9-.4,2.84-.64a.11.11,0,0,0-.06-.22c-.94.23-1.87.5-2.8.77-.06,0,0,.11,0,.09Z"/><path class="cls-11" d="M89.5,34.59c.3,1.65.66,3.3,1,4.95,0,.13.23.07.2-.06-.34-1.64-.69-3.29-1.1-4.93,0-.07-.13,0-.12,0Z"/><path class="cls-11" d="M88,36c-.62-8.83-1.65-17.65-2.5-26.46,0-.15-.24-.15-.23,0,.86,8.81,1.53,17.67,2.61,26.46,0,.07.12.08.12,0Z"/><path class="cls-11" d="M135.15,49.5a.12.12,0,1,0,0-.24.12.12,0,0,0,0,.24Z"/><path class="cls-11" d="M135.15,49.39s0,0,0,0,0,0,0,0Z"/><path class="cls-11" d="M134.8,49a1.45,1.45,0,0,0-.36,0s0,.07,0,.07l.36,0c.07,0,.07-.12,0-.12Z"/><path class="cls-11" d="M133.72,48.77c-8.49.7-17,1.8-25.41,2.74-.22,0-.23.38,0,.35,8.47-.94,17-1.74,25.43-2.93.09,0,.07-.17,0-.16Z"/><path class="cls-11" d="M108.3,51.48a16.54,16.54,0,0,0-.38,3.2c0,.12.19.16.22,0a16.34,16.34,0,0,0,.34-3.21c0-.1-.17-.12-.18,0Z"/><path class="cls-11" d="M108,54.81c5.53-.13,11.07-.77,16.58-1.21l7.81-.62c2.69-.22,5.88,0,8.43-.9a.12.12,0,1,0,.06.24l.32-.08a.14.14,0,0,0,0-.27c-5.69.27-11.38.88-17.06,1.33-5.36.43-10.78.68-16.11,1.4a.06.06,0,0,0,0,.11Z"/><path class="cls-11" d="M141.85,55.61c-9.41.18-18.84.7-28.24,1.19-.21,0-.21.34,0,.33,9.41-.38,18.85-.75,28.24-1.44a0,0,0,0,0,0-.08Z"/><path class="cls-11" d="M113.21,57.11l-1.44,2.1c-.07.11.1.21.17.1.47-.71.93-1.42,1.39-2.13a.07.07,0,1,0-.12-.07Z"/><path class="cls-11" d="M111.86,60.08c5.23-.08,10.47-.38,15.7-.62s10.5-.26,15.71-.74c.16,0,.17-.26,0-.26-5.23,0-10.49.42-15.71.66s-10.48.39-15.7.78a.09.09,0,1,0,0,.18Z"/><path class="cls-11" d="M101.91,53a1.57,1.57,0,0,1,1.36,1.06,1.24,1.24,0,0,1-.9,1.45c-1.28.38-1.89-1.14-1.26-2.08a.06.06,0,0,0-.09-.07,1.42,1.42,0,0,0,1.54,2.31,1.4,1.4,0,0,0-.65-2.7s0,0,0,0Z"/><path class="cls-11" d="M93.52,53.4a.79.79,0,0,0-.62.7c-.06.41.15.6.36.89a1.55,1.55,0,1,0,2.31-1.92,1.59,1.59,0,0,0-2.37.71c0,.09.1.14.15.06a1.49,1.49,0,0,1,2-.66,1.36,1.36,0,1,1-1.77,2c-.11-.13-.16-.28-.26-.4s-.19-.13-.26-.25a.77.77,0,0,1,.46-1.11s0,0,0,0Z"/><path class="cls-11" d="M87.37,54.56c1.13-1.18,3.27.17,2.31,1.69a1.36,1.36,0,0,1-2,.46,1.61,1.61,0,0,1-.46-2,.09.09,0,0,0-.15-.08,1.73,1.73,0,0,0,.49,2.24,1.64,1.64,0,0,0,2-2.62,1.78,1.78,0,0,0-2.3.17.1.1,0,0,0,.14.13Z"/><path class="cls-11" d="M81.08,54.55c-.64.42-1.15,1.58-.55,2.24a2,2,0,0,0,2.65,0,2.14,2.14,0,0,0,.63-1.28,1.67,1.67,0,0,0-.22-1.16c-.26-.25-1-.22-1.3-.19a2.42,2.42,0,0,0-1.58.78c-.07.08,0,.22.11.15a2.83,2.83,0,0,1,2-.72.75.75,0,0,1,.77.8,1.91,1.91,0,0,1-.26,1.07,1.78,1.78,0,0,1-2.07.75c-1.15-.34-.91-1.71-.13-2.3.08-.06,0-.18-.07-.13Z"/><path class="cls-11" d="M82.57,60.44a92.85,92.85,0,0,0,21.59-.55c.22,0,.17-.41-.06-.4-7.21.41-14.32.54-21.53.64a.16.16,0,0,0,0,.31Z"/><path class="cls-11" d="M132.33,50.79c1.31-.57,2.6-1.16,3.89-1.75.11,0,0-.2-.09-.15-1.29.58-2.58,1.17-3.87,1.78-.08,0,0,.16.07.12Z"/><path class="cls-11" d="M139.38,57.51s0,0,0,0,0,0,0,0Z"/><path class="cls-11" d="M139.44,57.24c.95-.56,1.9-1.14,2.83-1.75a.2.2,0,0,0-.2-.34c-.95.57-1.88,1.18-2.8,1.79-.18.12,0,.41.17.3Z"/><path class="cls-11" d="M81.4,45.21c-2.74-2.82-6.44-5.11-9.77-7.14a.23.23,0,0,0-.23.39c3.3,2.23,6.47,4.85,9.88,6.9a.1.1,0,0,0,.12-.15Z"/><path class="cls-11" d="M71.24,38.42A9,9,0,0,1,70,40.32a10,10,0,0,1-1.93,1.22c-.07,0,0,.17,0,.16a4.22,4.22,0,0,0,3.23-3.26s-.06,0-.08,0Z"/><path class="cls-11" d="M67.71,41.26a33.86,33.86,0,0,0,7.53,11.2c.16.16.38-.07.24-.24a89.66,89.66,0,0,1-7.61-11c-.05-.08-.2,0-.16.07Z"/><path class="cls-11" d="M72.76,55.6c-2.92-1.75-6.1-3.14-9.15-4.63-.27-.14-.5.27-.23.4,3.06,1.5,6.12,3.16,9.3,4.4a.09.09,0,0,0,.08-.17Z"/><path class="cls-11" d="M63.42,51.81a3,3,0,0,1-1.49,1.51,4.41,4.41,0,0,1-2,.23c-.1,0-.16.16-.05.21,1.4.66,3.15-.63,3.64-1.9,0-.07-.09-.13-.13,0Z"/><path class="cls-11" d="M60,53.9a63.63,63.63,0,0,1,7.12,9.38.22.22,0,0,0,.38-.22,35.37,35.37,0,0,0-7.32-9.34.13.13,0,0,0-.18.18Z"/><path class="cls-11" d="M72.34,41.5a8.47,8.47,0,0,1,4.72,3.07c.15.2.48,0,.33-.2a7,7,0,0,0-5-3c-.1,0-.11.14,0,.16Z"/><path class="cls-11" d="M65.56,54.68a2.53,2.53,0,0,1-.46,1.24,4.38,4.38,0,0,1-.93.79c-.07,0,0,.16,0,.14a2.39,2.39,0,0,0,1.51-2.17.09.09,0,1,0-.17,0Z"/><path class="cls-11" d="M66.67,55.73a1.52,1.52,0,0,1-1.4,1.63c-.14,0-.14.23,0,.22a1.56,1.56,0,0,0,1.44-1.85s0,0,0,0Z"/><path class="cls-11" d="M65.59,54a18,18,0,0,0,2.48,1.42c.09,0,.13-.09.06-.14a18.09,18.09,0,0,0-2.47-1.4.07.07,0,0,0-.07.12Z"/><path class="cls-11" d="M64.89,54a21.45,21.45,0,0,0,3.18,2.12c.05,0,.11,0,.06-.08a21.55,21.55,0,0,0-3.19-2.12s-.1,0,0,.08Z"/><path class="cls-11" d="M63.81,55.08a33.28,33.28,0,0,0,2.85,2.46s.1,0,.06-.08A36.88,36.88,0,0,0,63.91,55c-.07-.06-.17,0-.1.1Z"/><path class="cls-11" d="M64.49,56.87a14.17,14.17,0,0,0,1.81,1.74s.12,0,.08-.08a13.59,13.59,0,0,0-1.74-1.82c-.1-.1-.25.06-.15.16Z"/><path class="cls-11" d="M143.68,60c.06.83.14,1.66.27,2.49,0,.09.17.07.16,0-.08-.83-.23-1.66-.38-2.48a0,0,0,0,0,0,0Z"/><path class="cls-11" d="M143.62,59.78c2-.07,4.06-.29,6.08-.47.65-.06,2-.47,2.45.15.27.39-.2,2.42-.2,3,0,.16.25.21.28,0,.2-1.19.26-2.4.37-3.6a.2.2,0,0,0-.2-.2c-2.93.26-5.89.45-8.81.87-.14,0-.11.25,0,.24Z"/><path class="cls-11" d="M149.78,59.62a24.24,24.24,0,0,0,.37-3.17c0-.13-.2-.17-.23,0a22.94,22.94,0,0,0-.3,3.21c0,.1.14.1.16,0Z"/><path class="cls-11" d="M149.64,56.28c3.05-.3,6.16-.61,9.18-1.13.1,0,.08-.19,0-.18-3.06.24-6.15.72-9.18,1.19a.06.06,0,0,0,0,.12Z"/><path class="cls-11" d="M158,55.38c0,.59,0,1.18-.05,1.77,0,.14.23.14.22,0,0-.59,0-1.18,0-1.77a.06.06,0,1,0-.12,0Z"/><path class="cls-11" d="M157.74,57.06l-7,.33a.15.15,0,0,0-.13.11,1.86,1.86,0,0,0,.35,1.84c.06.08.18,0,.14-.1a1.07,1.07,0,0,1,.18-1.6l1.08-.06,1.62-.1,3.77-.25c.1,0,.1-.17,0-.17Z"/><path class="cls-11" d="M158.3,58.92a19.19,19.19,0,0,0,.31,2.15c0,.13.25.11.24,0a17.11,17.11,0,0,0-.38-2.14c0-.1-.19-.08-.17,0Z"/><path class="cls-11" d="M158.44,58.6a17,17,0,0,0,2.47,0,.1.1,0,0,0,0-.2,20.35,20.35,0,0,0-2.47,0c-.13,0-.13.21,0,.21Z"/><path class="cls-11" d="M160,58.92c.12.95.19,1.92.37,2.85,0,.14.26.11.25,0-.05-.94-.22-1.89-.34-2.82,0-.18-.3-.18-.28,0Z"/><path class="cls-11" d="M159.26,58.55a79.22,79.22,0,0,1-.6-14.11c0-.26-.39-.26-.41,0a60.81,60.81,0,0,0,.85,14.13c0,.09.17.08.16,0Z"/><path class="cls-11" d="M145.34,59.62c0-1.25-.07-2.51-.13-3.76,0-.77-.57-3.47,0-3.91,1.43-1.21,1.53,2.33,1.58,2.85l.35,4.1c0,.15.23.15.22,0L146.8,52a.16.16,0,0,0-.11-.14l-1.87-.48a.17.17,0,0,0-.2.15c.16,2.71.28,5.45.63,8.14,0,.05.09.06.09,0Z"/><path class="cls-11" d="M97.38,46.08c4.71.05,9.42-.1,14.12-.18a.12.12,0,0,0,0-.23c-4.7.08-9.42.08-14.12.28-.08,0-.08.13,0,.13Z"/><path class="cls-11" d="M111.08,45.85c0,.35,0,.71,0,1.06a.09.09,0,0,0,.18,0c0-.35,0-.71,0-1.06a.08.08,0,1,0-.15,0Z"/><path class="cls-11" d="M97.69,46.54c-.27.82-.51,1.64-.75,2.46a.1.1,0,0,0,.19.06c.23-.83.46-1.66.66-2.49a.05.05,0,0,0-.1,0Z"/><path class="cls-11" d="M91.39,47.24a.43.43,0,0,0-.6.33c-.08.35.33.76.58,1a1.58,1.58,0,0,0,2.45-.34c.35-.73.08-1.89-.85-2s-1.73.83-1.29,1.63c0,.05.11,0,.09,0a1.15,1.15,0,0,1,1.08-1.44c.75,0,1.07.83.93,1.46a1.28,1.28,0,0,1-1.55,1,1.77,1.77,0,0,1-.86-.44,1.15,1.15,0,0,1-.31-.38c-.1-.22-.19-.85.28-.64.06,0,.11-.06,0-.09Z"/><path class="cls-11" d="M86,46.94a1.64,1.64,0,0,0,1.48,2.51,1.69,1.69,0,0,0,.84-2.74.1.1,0,0,0-.13,0c-.73.52-1.47,1-2.17,1.58,0,0,0,.13.07.09.41-.25.8-.52,1.2-.79l.5-.35.34-.23c.11-.1.19-.07.23.1.4.45.12,1.34-.22,1.73-1.1,1.27-2.82-.58-2-1.82,0-.08-.07-.14-.12-.07Z"/><path class="cls-11" d="M96.33,41.71c3.76.08,7.53,0,11.29,0a.12.12,0,0,0,0-.23c-3.76,0-7.53-.06-11.29,0a.1.1,0,0,0,0,.19Z"/><path class="cls-11" d="M90.4,41.84a1.6,1.6,0,0,0-.33,2.35,1.43,1.43,0,1,0,1.34-2.44c-.91-.08-2,.79-1.72,1.77a.06.06,0,0,0,.11,0,1.46,1.46,0,0,1,1.44-1.59c1.05,0,1.33,1.12.88,1.89a1.16,1.16,0,0,1-2.05.14,1.52,1.52,0,0,1,.35-2.07s0,0,0,0Z"/><path class="cls-11" d="M96.33,34.55a.73.73,0,0,0-.62,1.3,1.38,1.38,0,0,0,2.07-.41,1.41,1.41,0,0,0-1-1.89,1.39,1.39,0,0,0-1.5,1.7.07.07,0,0,0,.14,0,1.27,1.27,0,0,1,1.2-1.51A1.23,1.23,0,0,1,97.72,35a1.09,1.09,0,0,1-1.22,1,1.21,1.21,0,0,1-.77-.32.6.6,0,0,1-.13-.73.69.69,0,0,1,.72-.34,0,0,0,0,0,0-.05Z"/><path class="cls-11" d="M100.53,34.53a1.25,1.25,0,0,0,.66,1.79,1.11,1.11,0,0,0,1.52-1,1.32,1.32,0,0,0-1.25-1.53A1.51,1.51,0,0,0,100,35.51a0,0,0,0,0,.09,0A1.49,1.49,0,0,1,101.39,34a1.06,1.06,0,0,1,1.09,1.14c0,.61-.47,1.21-1.13,1a1.08,1.08,0,0,1-.66-1.52c.07-.1-.09-.19-.16-.09Z"/><path class="cls-11" d="M95.62,37.72a56.9,56.9,0,0,0,6.38-.61c.13,0,.1-.23,0-.22a56.61,56.61,0,0,0-6.36.77s0,.06,0,.06Z"/><path class="cls-11" d="M96.34,19a2.62,2.62,0,0,1,.26,3.14c-.06.08.08.16.13.07A2.5,2.5,0,0,0,96.36,19s0,0,0,0Z"/><path class="cls-11" d="M99,18.33c.08,1.06.18,2.12.31,3.18,0,.13.23.13.21,0-.1-1.07-.24-2.13-.4-3.2,0-.06-.12,0-.12,0Z"/><path class="cls-11" d="M101.21,18.34a15.92,15.92,0,0,0,1.07,3.54.06.06,0,0,0,.1,0,15.34,15.34,0,0,0-1.06-3.54c0-.07-.12,0-.11,0Z"/><path class="cls-11" d="M104,18.68a21.32,21.32,0,0,0,.35,3.19.08.08,0,0,0,.15,0,20.22,20.22,0,0,0-.35-3.19.08.08,0,0,0-.15,0Z"/><path class="cls-11" d="M105.78,18.32c.1,1.18.14,2.39.34,3.56,0,.1.18.07.18,0,0-1.17-.23-2.36-.37-3.53,0-.09-.15-.09-.15,0Z"/><path class="cls-11" d="M94.92,20.14c4.23-.12,8.49-.26,12.71-.59.12,0,.12-.2,0-.19-4.24.1-8.49.4-12.71.71,0,0,0,.07,0,.07Z"/><path class="cls-11" d="M96,21.23c4-.1,8-.13,12-.59.1,0,.11-.16,0-.16-4-.06-8,.33-12,.63-.07,0-.08.12,0,.12Z"/><path class="cls-11" d="M95.27,19.1c4.59,0,9.18-.12,13.76-.24.19,0,.19-.3,0-.29-4.58.1-9.18.22-13.76.46a0,0,0,1,0,0,.07Z"/><path class="cls-11" d="M129.44,44.43a37.57,37.57,0,0,0,1.88-5.63c.05-.17-.21-.24-.27-.07a38,38,0,0,0-1.68,5.67s0,.08.07,0Z"/><path class="cls-11" d="M130.87,39.22c.46.25.92.51,1.39.74.15.07.27-.14.13-.22L131,39.07c-.1,0-.19.1-.09.15Z"/><path class="cls-11" d="M132.6,39.47c-.75,1.86-1.55,3.73-2.15,5.64,0,.1.12.16.16.07.82-1.83,1.45-3.78,2.1-5.67a.06.06,0,1,0-.11,0Z"/><path class="cls-11" d="M130.94,45.19c2.6-1.39,5.16-2.86,7.78-4.22.17-.09,0-.36-.16-.26-2.53,1.5-5.13,2.9-7.69,4.36-.07,0,0,.16.07.12Z"/><path class="cls-11" d="M138.2,41.69c.22.37.45.72.68,1.08.09.13.31,0,.22-.13-.25-.34-.5-.69-.76-1-.06-.08-.19,0-.14.07Z"/><path class="cls-11" d="M139,42.93c-2,1.49-4,3-6.05,4.51a.12.12,0,1,0,.14.19c2-1.55,4-3.05,6-4.6,0,0,0-.14-.08-.1Z"/><path class="cls-11" d="M117.91,39.51c.62-2.19,1.07-4.44,1.56-6.66,0-.16-.2-.23-.24-.07-.49,2.23-1,4.46-1.4,6.71,0,0,.07.07.08,0Z"/><path class="cls-11" d="M119.23,32.5c.48.24.94.5,1.43.7.07,0,.1-.07,0-.1-.45-.27-.94-.49-1.41-.72-.07,0-.14.08-.07.12Z"/><path class="cls-11" d="M120.6,32.42c-.4,2.1-.81,4.24-1.06,6.37a.08.08,0,0,0,.16,0c.46-2.09.76-4.24,1.06-6.36,0-.1-.14-.15-.16,0Z"/><path class="cls-11" d="M120.47,38.87a61.14,61.14,0,0,0,3.18-6.38c0-.11-.12-.17-.18-.07a58.82,58.82,0,0,0-3.12,6.38.07.07,0,0,0,.12.07Z"/><path class="cls-11" d="M123.46,32.52c.8.39,1.62.75,2.44,1.11.17.07.33-.19.15-.26-.84-.35-1.67-.7-2.52-1a.09.09,0,0,0-.07.17Z"/><path class="cls-11" d="M125.87,33.44a63.26,63.26,0,0,0-3.58,6,.06.06,0,0,0,.11.06,65.36,65.36,0,0,0,3.57-6,.06.06,0,1,0-.1-.06Z"/><path class="cls-11" d="M123.93,39.61c2.53-1.94,5-4,7.49-5.94.16-.12-.06-.35-.21-.22-2.43,2-5,4-7.37,6-.07,0,0,.17.09.12Z"/><path class="cls-11" d="M130.48,33.9a5.61,5.61,0,0,0,.73,1.42.07.07,0,0,0,.12-.07,6.18,6.18,0,0,0-.7-1.44c-.06-.1-.2,0-.15.09Z"/><path class="cls-11" d="M131.9,34.83a41,41,0,0,0-8.51,9.54c-.1.15.15.3.24.15A47.29,47.29,0,0,1,132,34.91c.05,0,0-.12-.08-.08Z"/><path class="cls-11" d="M123.88,39.15a28.3,28.3,0,0,0-.4,4.94.07.07,0,0,0,.14,0,28.33,28.33,0,0,0,.33-5s-.06,0-.07,0Z"/><path class="cls-11" d="M62.64,65.25c40.35-1.17,80.68-3.67,121-5.3a42.36,42.36,0,0,1,5.52,0,17.63,17.63,0,0,1,3.37.59,6.91,6.91,0,0,1,2.08.8c.57.45.87.2.32.66a8.78,8.78,0,0,1-2.47.68c-.94.27-1.88.55-2.82.85-1.75.56-3.49,1.17-5.19,1.88C178,68.19,172.88,72.35,170,78.93c-1.72,4-3,8-6.11,11.22a27.67,27.67,0,0,1-10.69,6.46c-8.8,3.16-18.45,4-27.72,4.48-20,1.12-41,.1-59.34,9.41-.26.14,0,.54.24.4,19.41-9.64,41.41-8.09,62.43-9.59,9.15-.65,18.92-1.63,27.38-5.44a24.59,24.59,0,0,0,9.22-6.81c2.79-3.51,3.85-7.87,5.82-11.82,4.69-9.43,15.41-12.58,24.85-15.06a.22.22,0,0,0,0-.39c-6.07-3.9-14.6-2.17-21.37-1.87l-26.92,1.2L93.54,63.54c-10.3.46-20.61.84-30.9,1.45-.17,0-.17.27,0,.26Z"/><path class="cls-11" d="M57.91,59A3.4,3.4,0,0,1,61,58.59a.07.07,0,0,0,0-.12,3,3,0,0,0-3.26.41c-.06,0,0,.17.09.12Z"/><path class="cls-11" d="M61.4,58.91A12.33,12.33,0,0,0,61.74,61c0,.06.11.06.11,0a11,11,0,0,0-.36-2.13c0-.06-.09,0-.09,0Z"/><path class="cls-11" d="M58.54,59.26c0,.59-.07,1.18-.07,1.77a.1.1,0,0,0,.19,0c0-.59,0-1.18-.07-1.77a0,0,0,0,0-.05,0Z"/><path class="cls-11" d="M57.51,61.09a7.42,7.42,0,0,1,4.18-.56c.24,0,.35-.34.1-.38a6.12,6.12,0,0,0-4.35.76c-.09.05,0,.22.07.18Z"/><path class="cls-11" d="M61.72,60.65c.89,23.07,2.74,46.13,4.17,69.17,0,.25.41.26.4,0-1.43-23-2.45-46.17-4.42-69.17,0-.1-.16-.1-.15,0Z"/><path class="cls-11" d="M57.93,60.33c1.17,23.65,3,47.29,4.59,70.91,0,.24.39.24.37,0-1.49-23.63-2.79-47.31-4.71-70.91,0-.16-.26-.16-.25,0Z"/><path class="cls-11" d="M62.1,131.27c1.64,1.07,4.81.14,4.84-2.1,0-.12-.18-.18-.23-.07a3.59,3.59,0,0,1-1.62,2,3,3,0,0,1-2.84,0,.15.15,0,0,0-.15.25Z"/><path class="cls-11" d="M61,112.13c-5.25-.2-10.65.62-15.88,1-.31,0-.31.51,0,.49,5.25-.4,10.72-.4,15.89-1.39a.06.06,0,0,0,0-.12Z"/><path class="cls-11" d="M44,113.34a23.45,23.45,0,0,1,.25,19.1c-.06.15.18.21.25.06a23.64,23.64,0,0,0-.29-19.28c-.06-.15-.28,0-.21.12Z"/><path class="cls-11" d="M47.57,134.63c4.61-3.14,9.57-5,15.22-4.34.16,0,.16-.23,0-.25-5.69-.71-10.69,1.21-15.35,4.37-.13.09,0,.31.13.22Z"/><path class="cls-11" d="M47.6,113.26v.35s0,0,0,0v-.35a0,0,0,0,0,0,0Z"/><path class="cls-11" d="M48.05,113.25c.61,3,1.22,5.93,2,8.85,0,.07.12,0,.11,0-.57-3-1.31-5.91-2-8.84,0,0-.07,0-.06,0Z"/><path class="cls-11" d="M52.54,112.9c.32,2.83.58,5.68,1,8.5,0,.07.14.06.13,0-.25-2.83-.66-5.66-1-8.48,0-.07-.13-.07-.12,0Z"/><path class="cls-11" d="M56.82,113.6c.28,2.47.55,5,1,7.43,0,.06.12,0,.11,0-.2-2.48-.64-5-1.07-7.43,0,0-.09,0-.09,0Z"/><path class="cls-11" d="M59,113.6c.19,3.88.3,7.79.66,11.65,0,.07.11.07.11,0-.09-3.88-.42-7.77-.67-11.65,0-.06-.11-.06-.1,0Z"/><path class="cls-11" d="M55.75,118.55c.17,3.64.3,7.32.67,10.94a0,0,0,1,0,.09,0c-.1-3.64-.43-7.3-.73-10.94Z"/><path class="cls-11" d="M51.3,119.92a44.12,44.12,0,0,1,1.41,11.66.08.08,0,0,0,.15,0l.1-.32c0-.05-.06-.09-.09,0,.33-.64,0-2.32-.07-3s-.13-1.69-.24-2.53a43.78,43.78,0,0,0-1.2-5.77,0,0,0,1,0-.06,0Z"/><path class="cls-11" d="M47.92,121.39a123.41,123.41,0,0,1,.85,12.34.09.09,0,0,0-.17,0l0,.79a.1.1,0,0,0,.21,0,68.91,68.91,0,0,0-.8-13.15s-.07,0-.07,0Z"/><path class="cls-11" d="M45.84,113.62c.33,1.3.64,2.6,1,3.89,0,.09.16,0,.14,0-.34-1.3-.73-2.59-1.1-3.87a0,0,0,1,0,0,0Z"/><path class="cls-11" d="M50.07,112.92c.21,1.3.42,2.59.67,3.89,0,.11.18.06.16,0-.23-1.29-.48-2.58-.74-3.87,0-.06-.1,0-.09,0Z"/><path class="cls-11" d="M49.73,124.55c.19,1.64.35,3.34.68,5,0,.06.12,0,.11,0-.13-1.65-.45-3.32-.72-5,0,0-.08,0-.07,0Z"/><path class="cls-11" d="M53.6,123.15a14.46,14.46,0,0,1,.69,4.93,0,0,0,0,0,.08,0,9.06,9.06,0,0,0-.72-5s-.06,0,0,0Z"/><path class="cls-11" d="M57.87,122.79c.06,1.64.16,3.3.33,4.94,0,.08.14.09.14,0-.09-1.65-.24-3.31-.43-4.94a0,0,0,1,0,0,0Z"/><path class="cls-11" d="M60.31,128.08c0,.47-.05.95,0,1.41a.05.05,0,0,0,.1,0c0-.46,0-.94,0-1.41,0,0,0,0,0,0Z"/><path class="cls-11" d="M55.07,113.61c.09,1.29.12,2.61.33,3.89a.05.05,0,0,0,.1,0c0-1.29-.22-2.6-.35-3.88,0-.06-.09-.06-.08,0Z"/><path class="cls-11" d="M66,105.45l-.33-.06c-.17-.07-.17.28,0,.21l.33-.06s0-.09,0-.09Z"/><path class="cls-11" d="M65.74,106.47c15.81-7.8,33.36-7.35,50.54-7.61,15.44-.23,31.66-1.48,44.73-10.55A36.64,36.64,0,0,0,174.4,72.07c.12-.29-.35-.41-.46-.13-5.63,13.79-19.71,21.51-33.69,24.37-16.67,3.42-33.81,1.16-50.63,3-8.32.94-16.61,2.85-24,6.9a.13.13,0,0,0,.12.22Z"/><path class="cls-11" d="M63.39,86.59a256.29,256.29,0,0,0,42.27,2.2,279.51,279.51,0,0,0,42.12-4.25,234.08,234.08,0,0,0,23.44-5.25.09.09,0,1,0-.05-.17c-6.85,1.72-13.7,3.36-20.65,4.67s-14.05,2.37-21.13,3.15A281.78,281.78,0,0,1,87.1,88.39c-7.93-.32-15.81-1-23.69-1.94-.08,0-.1.13,0,.14Z"/><path class="cls-11" d="M62.8,71.36c2.24,0,4.47.06,6.71,0a.11.11,0,0,0,0-.22c-2.24,0-4.47,0-6.71,0a.1.1,0,0,0,0,.19Z"/><path class="cls-11" d="M61.69,73.82a10.94,10.94,0,0,0,6.77,1c.08,0,.06-.15,0-.14a13.11,13.11,0,0,1-6.69-1c-.08,0-.15.08-.07.12Z"/><path class="cls-11" d="M61.72,78a10.53,10.53,0,0,0,7.46.75c.1,0,0-.17-.05-.15a13.66,13.66,0,0,1-7.38-.67s-.06,0,0,.07Z"/><path class="cls-11" d="M62.45,81.54c2.46.28,4.93.6,7.41.74.11,0,.1-.15,0-.16-2.46-.33-4.94-.49-7.41-.67-.06,0-.06.08,0,.09Z"/><path class="cls-11" d="M63.15,91.86c2.93.18,5.89.37,8.82.36a.08.08,0,1,0,0-.16c-2.92-.22-5.88-.26-8.82-.29-.06,0-.06.08,0,.09Z"/><path class="cls-11" d="M63.14,96a22.15,22.15,0,0,0,9.91-.68.07.07,0,0,0,0-.14,26.08,26.08,0,0,1-9.87.73s-.06.08,0,.09Z"/><path class="cls-11" d="M62.8,99.9a25,25,0,0,0,9.57-1,.1.1,0,0,0-.05-.19,34.3,34.3,0,0,1-9.52,1c-.07,0-.07.1,0,.11Z"/><path class="cls-11" d="M90,71.75c2.85,0,5.72-.14,8.58-.24l8.58-.31L124,70.58c3.23-.12,6.47-.15,9.7-.37a.07.07,0,0,0,0-.14c-2.86,0-5.73.19-8.58.3l-8.58.31-16.91.61c-3.23.11-6.49.14-9.7.41,0,0,0,0,0,0Z"/><path class="cls-11" d="M90.68,76.4c13.17,0,26.36-.4,39.53-.62a.07.07,0,0,0,0-.13c-13.17.21-26.37.21-39.53.67-.05,0-.05.08,0,.08Z"/><path class="cls-11" d="M92.45,82.17q19.58,0,39.17,0a.06.06,0,0,0,0-.11q-19.59,0-39.17,0s0,.06,0,.07Z"/><path class="cls-11" d="M95.61,74.56c9.17-.17,18.38-.46,27.54-.94.06,0,.06-.1,0-.09-9.17.14-18.38.48-27.54.93-.06,0-.06.1,0,.1Z"/><path class="cls-11" d="M166.91,70.88c3.06-.17,6.12-.35,9.18-.6a.06.06,0,0,0,0-.11c-3.06.18-6.12.41-9.18.65a0,0,0,1,0,0,.06Z"/><path class="cls-11" d="M166.56,74c2.35-.32,4.72-.6,7.06-1,.07,0,.06-.13,0-.12-2.37.28-4.72.7-7.07,1.08,0,0,0,.07,0,.06Z"/><path class="cls-11" d="M163.73,76.82c2.35,0,4.71-.11,7.06-.27.08,0,.08-.13,0-.12-2.35,0-4.71.16-7.06.3a0,0,0,1,0,0,.09Z"/><path class="cls-11" d="M168.32,69.19c3.29,0,6.6.12,9.89,0a.06.06,0,0,0,0-.11c-3.29-.11-6.6,0-9.89,0,0,0,0,.09,0,.09Z"/><path class="cls-11" d="M157,86.72c-10.24,1.86-20.55,3.3-30.91,4.19A306.7,306.7,0,0,1,95.05,92c-5.82-.09-11.62-.38-17.42-.77-.08,0-.08.12,0,.13a287.28,287.28,0,0,0,31.19.69,305.4,305.4,0,0,0,31.11-2.49q8.59-1.12,17.09-2.8s0,0,0,0Z"/><path class="cls-11" d="M76.88,95.86a167.74,167.74,0,0,0,31,1.66,185.25,185.25,0,0,0,30.79-3.64,161.22,161.22,0,0,0,17.07-4.39s0,0,0,0c-5,1.44-10,2.79-15,3.88s-10.3,2-15.51,2.64a184,184,0,0,1-31,1.31c-5.79-.24-11.56-.78-17.31-1.48,0,0,0,0,0,0Z"/><path class="cls-11" d="M161.69,84.23c-3.08.84-6.18,1.66-9.23,2.61a.05.05,0,0,0,0,.1c3.09-.81,6.15-1.77,9.21-2.69,0,0,0,0,0,0Z"/><path class="cls-11" d="M93.15,79.35c13.41-.2,26.84-.69,40.24-1.23.11,0,.11-.18,0-.18-13.41.31-26.85.67-40.24,1.33a0,0,0,0,0,0,.08Z"/><path class="cls-11" d="M142.91,65.63c6.82-.23,13.68-.34,20.48-.87a0,0,0,1,0,0-.08c-6.82,0-13.67.48-20.48.82a.07.07,0,0,0,0,.13Z"/><path class="cls-11" d="M140.44,73c5.76-.19,11.55-.25,17.29-.7a.07.07,0,1,0,0-.13c-5.76,0-11.54.45-17.29.74a0,0,0,0,0,0,.09Z"/><path class="cls-11" d="M73.74,70.06c10.78.18,21.71-.22,32.47-.73a.07.07,0,0,0,0-.14c-10.77,0-21.71.1-32.47.77-.06,0-.06.1,0,.1Z"/><path class="cls-11" d="M75.51,86.1c8.22,0,16.47.13,24.7-.14.1,0,.1-.16,0-.16-8.23-.15-16.48.11-24.7.2a.05.05,0,1,0,0,.1Z"/><path class="cls-11" d="M139.74,81.48c4.93-.09,9.9,0,14.82-.31.11,0,.11-.18,0-.18-4.93-.06-9.89.25-14.82.4a0,0,0,0,0,0,.09Z"/><path class="cls-11" d="M80.45,74.06a12.31,12.31,0,0,0,.1,3,12.37,12.37,0,0,0,.4,3c0,.1.22.13.24,0a11.49,11.49,0,0,0-.16-3,11.88,11.88,0,0,0-.46-3s-.11-.07-.12,0Z"/><path class="cls-11" d="M80.32,74.16a11.42,11.42,0,0,0,1.45,1.58,4.91,4.91,0,0,0,1.46,1.31.15.15,0,0,0,.18-.18,5,5,0,0,0-1.3-1.46A10.9,10.9,0,0,0,80.52,74a.15.15,0,0,0-.2.2Z"/><path class="cls-11" d="M82.93,78c1.59-1.34,3.19-2.69,4.68-4.15.21-.21-.1-.51-.32-.32-1.58,1.35-3.07,2.82-4.53,4.29-.12.11,0,.28.17.18Z"/><path class="cls-11" d="M87.37,74.08a56.45,56.45,0,0,0,.77,6.75c0,.21.36.16.36,0a55.93,55.93,0,0,0-.69-6.7c0-.28-.47-.29-.44,0Z"/><path class="cls-11" d="M92.29,73a48.17,48.17,0,0,0-1.78,7.46c0,.21.28.22.35,0a48.2,48.2,0,0,0,1.75-7.42.17.17,0,0,0-.32-.09Z"/><path class="cls-11" d="M92.91,73.44c.55,2.57,2.1,5.7,4.41,7.12.18.11.32-.12.21-.27a27.65,27.65,0,0,1-2.63-3.17,15.2,15.2,0,0,1-1.58-3.79c-.07-.26-.46-.15-.41.11Z"/><path class="cls-11" d="M90.33,77.36c1.64.07,3.29.16,4.94.13a.23.23,0,0,0,0-.46c-1.65,0-3.3.06-4.94.13a.1.1,0,0,0,0,.2Z"/><path class="cls-11" d="M99.89,74.07a21.91,21.91,0,0,0,.19,3.62,23.63,23.63,0,0,0,.39,3.14.17.17,0,0,0,.34,0,27.46,27.46,0,0,0-.3-3.61,18,18,0,0,0-.48-3.11.07.07,0,0,0-.14,0Z"/><path class="cls-11" d="M100.31,74c1.26-1.64,3.91-1.64,4.52.58a2.29,2.29,0,0,1-.86,2.49,3.08,3.08,0,0,1-2.58.25c-.16,0-.33.18-.18.3a2.7,2.7,0,0,0,3.1-.21,2.75,2.75,0,0,0,1-3c-.63-2.36-4.09-2.91-5.13-.54a.09.09,0,0,0,.15.09Z"/><path class="cls-11" d="M101.53,77.06c.8.42,1.61.81,2.43,1.19a9,9,0,0,0,2.21.91c.12,0,.25-.13.14-.23A9.82,9.82,0,0,0,104,77.76c-.78-.35-1.56-.7-2.36-1-.19-.08-.32.23-.14.32Z"/><path class="cls-11" d="M110.69,74a12.25,12.25,0,0,0,.26,3.19l.42,3.18a.24.24,0,0,0,.41.17,7.27,7.27,0,0,0,.61-.74c.12-.17-.14-.32-.27-.2a3.9,3.9,0,0,0-.68.6l.41.17c-.15-1.14-.3-2.29-.46-3.43a11.82,11.82,0,0,0-.55-3c0-.08-.14-.07-.15,0Z"/><path class="cls-11" d="M109.33,72a3.09,3.09,0,0,0,.72.81c.15.11.37-.11.26-.26a3.09,3.09,0,0,0-.81-.72c-.1-.07-.25.07-.17.17Z"/><path class="cls-11" d="M114.06,73.39a10.75,10.75,0,0,0,0,3.1c.09,1.2.18,2.4.28,3.6,0,.3.5.31.48,0q-.14-1.8-.3-3.6a10.76,10.76,0,0,0-.44-3.1,0,0,0,0,0-.07,0Z"/><path class="cls-11" d="M113.9,74.16a46,46,0,0,0,6.72,5.33.19.19,0,0,0,.23-.3A46.72,46.72,0,0,0,114,74a.1.1,0,0,0-.12.16Z"/><path class="cls-11" d="M120.15,73.43q.66,3.48,1.35,7c0,.24.39.2.46,0a4.25,4.25,0,0,0,.24-1c0-.15-.18-.27-.26-.11a4.18,4.18,0,0,0-.44,1H122c-.48-2.31-1-4.62-1.46-6.93,0-.22-.39-.13-.35.1Z"/><path class="cls-11" d="M123.85,73a27.45,27.45,0,0,0,1,6.4.14.14,0,0,0,.28,0,27.92,27.92,0,0,0-1-6.4.15.15,0,0,0-.29,0Z"/><path class="cls-11" d="M123.5,73.86c2.34.06,4.73.22,7.06.07a.2.2,0,0,0,0-.39c-2.33-.16-4.72,0-7.06.07a.13.13,0,0,0,0,.25Z"/><path class="cls-11" d="M123.85,79.38c1,.05,2,0,3,0a10.08,10.08,0,0,0,2.64-.27c.11,0,.13-.22,0-.25a10.48,10.48,0,0,0-2.85.07,27.35,27.35,0,0,0-2.85.34c-.07,0,0,.13,0,.13Z"/><path class="cls-11" d="M124.21,76.48a25.47,25.47,0,0,0,6,.17c.15,0,.15-.27,0-.3a25.42,25.42,0,0,0-6,0,.09.09,0,0,0,0,.17Z"/><path class="cls-11" d="M181.7,48.7a25.09,25.09,0,0,0,3.43,4c.12.11.34,0,.24-.18a26.39,26.39,0,0,0-3.65-3.82s0,0,0,0Z"/><path class="cls-11" d="M190.56,93.16c-10.27,10-24.12,1.62-35.88.11-3.6-.46-9.73-.87-12.22,2.54-1.45,2-.07,6,2.76,4.88a.15.15,0,0,0-.08-.29q-4-.83-2.47-4.08a5.07,5.07,0,0,1,1.93-1.64A12,12,0,0,1,149,93.6a27.88,27.88,0,0,1,7.46.44c4.84.85,9.48,2.59,14.28,3.64,6.76,1.48,15.18,1.5,19.95-4.39.07-.09-.05-.22-.13-.13Z"/><path class="cls-11" d="M145.39,97.4a2.53,2.53,0,0,0-.47,3.24,2.37,2.37,0,0,0,3,.83.11.11,0,0,0-.08-.2,2.56,2.56,0,0,1-2.73-.88,2.32,2.32,0,0,1,.39-2.85c.09-.09,0-.23-.15-.14Z"/><path class="cls-11" d="M149.4,98.07a2.78,2.78,0,0,0-.79,4c.87,1.13,3.23,1.49,4.08.14.08-.13-.08-.27-.21-.2a3.62,3.62,0,0,1-1.68.63,2.43,2.43,0,0,1-1.79-.69,2.52,2.52,0,0,1,.47-3.7c.07,0,0-.18-.08-.13Z"/><path class="cls-11" d="M135.49,96.3a42.75,42.75,0,0,1-14.87.78c-5-.57-9.9-1.59-14.9-1.9A27.91,27.91,0,0,0,93.2,96.82c-1.93.81-4.82,3.7-1.81,5.29a.23.23,0,0,0,.23-.39c-2.83-1.61.86-4.13,2.5-4.73a20.87,20.87,0,0,1,2.93-.83,29.91,29.91,0,0,1,6-.58,82.31,82.31,0,0,1,12,1.23c6.56,1,14.16,2.33,20.48-.41.06,0,0-.12,0-.1Z"/><path class="cls-11" d="M93.12,99.41A2.28,2.28,0,0,0,91.66,102a2.39,2.39,0,0,0,2.6,1.92c.22,0,.13-.34-.05-.36-1.09-.13-2.17-.7-2.24-1.94a2.6,2.6,0,0,1,1.19-2.13s0-.07,0-.06Z"/><path class="cls-11" d="M97.69,100.66a2.25,2.25,0,0,0-1.3,3.8c1.87,2,5.27.76,7-.75.12-.09,0-.31-.15-.26-1.46.61-2.72,1.64-4.39,1.59a3.3,3.3,0,0,1-2.18-.88,2,2,0,0,1,1-3.35c.09,0,.1-.16,0-.15Z"/><path class="cls-11" d="M75.36,97.52c-10.7,7.39-23,4.75-34.92,2.46-6.71-1.29-20.55-4.63-24,4a.25.25,0,0,0,.12.27c.67.38,1.36.72,2,1.08a.17.17,0,0,0,.17-.3c-.79-.48-1.19-.52-1.33-1.4s.47-1.37,1-1.92a9.34,9.34,0,0,1,3.62-2A19.59,19.59,0,0,1,29.17,99c6.44.28,12.71,1.92,19,3,8.95,1.56,20,2.19,27.32-4.23.12-.11,0-.32-.17-.22Z"/><path class="cls-11" d="M21,102.79c-1.31-.36-1.78,1.53-1.16,2.38,1.08,1.5,3.32.92,4.62.09.14-.09.05-.34-.12-.28-1.05.31-2.08.91-3.2.57-1.39-.42-1.7-2.19-.14-2.64.06,0,.06-.1,0-.12Z"/><path class="cls-11" d="M26.06,101.85a1.78,1.78,0,0,0-2,2.54c.88,1.84,3.4,1.8,4.88.79.13-.09.05-.32-.11-.27-1.16.33-2.38.83-3.54.19a2.12,2.12,0,0,1-1.07-1.33A1.49,1.49,0,0,1,26,102a.09.09,0,0,0,0-.18Z"/><path class="cls-11" d="M13.33,101.6A11.85,11.85,0,0,1,5.47,103C3,102.48,1.3,100.83-.87,99.7c-2-1-4.86-1.19-5.94,1.16-.11.23.22.44.35.21,2.6-4.52,8.25,1.52,11.43,2.29a10,10,0,0,0,8.44-1.61c.09-.07,0-.2-.08-.15Z"/><path class="cls-11" d="M27.75,88.65c-5.18-3.66-10.19,1.82-14.64,4-6.61,3.21-14,1.51-19.51-3-.2-.16-.48.1-.29.29C-3,93.7,2.75,95.27,7.89,94.64a18.86,18.86,0,0,0,8.26-3.3c3.35-2.21,7.51-5.16,11.49-2.51.12.08.22-.1.11-.18Z"/><path class="cls-11" d="M213.59,77.37c-3.13,2.59-6.37,5.39-10.69,5.39-4.15,0-6.05-2.92-9.12-5s-9.13-2.55-10,2.32c-.53,3,3.81,6.15,5.84,3.14,1.63-2.41-2.46-4.61-2.4-1,0,.18.29.24.32,0,.34-2.18-.15,1.57-.18,1.59-1.17,1.13-3.16-2.18-3.16-3.15,0-3.29,3.81-4.58,6.43-3.92,3.53.88,5.36,4.29,8.57,5.69,5.29,2.31,11-1.17,14.48-5a.06.06,0,0,0-.09-.09Z"/><path class="cls-11" d="M179.29,91.22c10.39-10.52,24.5,8,35.77.54a.15.15,0,0,0-.16-.26c-7.58,3.76-14.55-.84-21.8-3-4.77-1.4-10.42-1.43-14,2.47-.13.15.08.36.22.22Z"/><path class="cls-11" d="M34.28,122.59c-3.74-1.08-7.31,0-10.87,1.25-.15,0-.09.29.07.24,3.5-1.23,7-2.32,10.73-1.25.16,0,.22-.19.07-.24Z"/><path class="cls-11" d="M174.05,54.82c1.16-.64,2.31-1.31,3.45-2a17.23,17.23,0,0,0,3-1.88c.08-.07,0-.23-.11-.19a17.29,17.29,0,0,0-3,1.72c-1.13.7-2.26,1.39-3.37,2.11a.13.13,0,0,0,.12.22Z"/><path class="cls-11" d="M180.16,50.79a1.72,1.72,0,0,0,.83,1.4c.42.25,1.15.47,1.53.07a.13.13,0,0,0-.06-.21c-.42-.08-.79,0-1.2-.18a1.6,1.6,0,0,1-.83-1.11.14.14,0,0,0-.27,0Z"/><path class="cls-11" d="M88.57,37.38c.1.59.16,1.19.31,1.78,0,.12.2.07.18,0-.11-.59-.3-1.16-.44-1.74a0,0,0,1,0-.05,0Z"/><path class="cls-11" d="M115.39,41.28c1.18.13,2.35.27,3.53.38.13,0,.12-.18,0-.2-1.17-.13-2.35-.23-3.53-.34-.1,0-.1.15,0,.16Z"/><path class="cls-11" d="M119.9,40.91c0,.82-.05,1.65,0,2.47a.09.09,0,0,0,.17,0c0-.82,0-1.65,0-2.47a.07.07,0,0,0-.15,0Z"/><path class="cls-11" d="M69.54,63.85a6.57,6.57,0,0,1,4.25-6.18c.21-.07.12-.41-.09-.34a6.35,6.35,0,0,0-4.28,6.52.06.06,0,1,0,.12,0Z"/></svg>