<svg id="carracters" xmlns="http://www.w3.org/2000/svg" viewBox="0 0 198.43 35.43"><defs><style>.cls-1{fill:#6e6e6e;opacity:0.5;}.cls-2{fill:#fff;}</style></defs><path d="M96.6,13.36l-.85.72L95,13.23l.06-.09.62.37L95.93,10H96v3.35l.17.13.92-1.64,1.83.32a11.41,11.41,0,0,0-.72,1.93,44.46,44.46,0,0,0-.75,10.8,1.61,1.61,0,0,0,.3.9l1.41-3.43c.81.44,1.11.92.64,1.78a18.07,18.07,0,0,0-1.18,2.75c-.26.73-.39,1.5-.61,2.38l-1.33.24C95.14,24.17,95.81,18.87,96.6,13.36Z"/><path d="M170.7,29.4l-1.34.22c-1.66-5.94-.76-11.79.21-17.75l2.49.42c-1.3.58-1.11,1.63-1.26,2.49a41.08,41.08,0,0,0-.6,10.79c0,.1.05.21.13.6l1.56-3.71a1.15,1.15,0,0,1,.61,1.85,19.89,19.89,0,0,0-1.09,2.5C171.13,27.59,171,28.42,170.7,29.4Z"/><path d="M135.47,22.44a1.15,1.15,0,0,1,.62,1.82,20.6,20.6,0,0,0-1.1,2.5c-.27.78-.43,1.61-.68,2.58L133,29.6c-1.64-6-.75-11.82.21-17.71.52.08,1,.13,1.38.21s.55.13.93.22c-1.24.79-1,2.06-1.18,3.14a35,35,0,0,0-.4,10.72Z"/><path d="M177.29,20l1.44.65c-.41.54-.81,1-1.14,1.51-1.27,2-.63,3.66,1.67,4a43.16,43.16,0,0,0,5.09.24c.35,0,.7,0,1.18,0a4.49,4.49,0,0,1,0,1c0,.19-.29.49-.44.48a47.42,47.42,0,0,1-6.75-.39c-2.86-.52-3.84-3.08-2.37-5.6C176.33,21.23,176.81,20.64,177.29,20Z"/><path class="cls-1" d="M140.74,20.75l1.44.64c-.4.54-.81,1-1.13,1.51-1.27,2-.64,3.67,1.67,4a45.3,45.3,0,0,0,5.09.23c.35,0,.7,0,1.18,0a5.12,5.12,0,0,1,0,1c-.05.19-.3.49-.44.48a45.83,45.83,0,0,1-6.75-.39c-2.87-.52-3.84-3.07-2.38-5.6C139.78,22,140.27,21.43,140.74,20.75Z"/><path d="M148.44,14.12l.1,1.56-9.35.74V14.91Z"/><path d="M175.66,16.41l-.11-1.52,9.33-.78.23,1.53Z"/><path class="cls-2" d="M19.48,29.4l-1.33.22c-1.66-5.94-.76-11.79.2-17.75l2.5.42c-1.31.58-1.11,1.63-1.26,2.49A40.65,40.65,0,0,0,19,25.57c0,.1.05.21.13.6l1.55-3.71a1.15,1.15,0,0,1,.62,1.85,17.35,17.35,0,0,0-1.09,2.5C19.92,27.59,19.75,28.42,19.48,29.4Z"/><path class="cls-2" d="M26.07,20l1.45.65c-.41.54-.82,1-1.14,1.51-1.27,2-.63,3.66,1.67,4a43.06,43.06,0,0,0,5.09.24c.35,0,.7,0,1.18,0a5.12,5.12,0,0,1,0,1c0,.19-.29.49-.44.48a47.25,47.25,0,0,1-6.75-.39c-2.86-.52-3.84-3.08-2.37-5.6C25.11,21.23,25.6,20.64,26.07,20Z"/><path class="cls-2" d="M24.45,16.41l-.11-1.52,9.33-.78.22,1.53Z"/><path class="cls-1" d="M105,20l1.44.65c-.41.54-.81,1-1.14,1.51-1.27,2-.63,3.66,1.67,4a43.23,43.23,0,0,0,5.1.24c.34,0,.7,0,1.17,0a4.49,4.49,0,0,1,0,1c0,.19-.29.49-.44.48a47.19,47.19,0,0,1-6.74-.39c-2.87-.52-3.85-3.08-2.38-5.6C104.07,21.23,104.55,20.64,105,20Z"/><path class="cls-1" d="M103.4,16.41l-.11-1.52,9.33-.78.23,1.53Z"/><path d="M174.57,21.79a4.35,4.35,0,0,0-.06,4.76,5.18,5.18,0,0,0,1.42,1.24.93.93,0,0,0,.75.11c.65-.18.64-.21.53.62a14.28,14.28,0,0,1-2.43-1.26,3.55,3.55,0,0,1-1.16-2.76A3.69,3.69,0,0,1,174.57,21.79Z"/><path d="M139.87,14.31l.45-.71h-3.6v-.21h3.47l-.32-.52.09-.09.82.78-.77.84Z"/></svg>