<?xml version="1.0" encoding="utf-8"?>
<!-- Generator: Adobe Illustrator 25.4.1, SVG Export Plug-In . SVG Version: 6.00 Build 0)  -->
<svg version="1.1" id="illustration" xmlns="http://www.w3.org/2000/svg" xmlns:xlink="http://www.w3.org/1999/xlink" x="0px"
	 y="0px" viewBox="0 0 198.4 143.6" style="enable-background:new 0 0 198.4 143.6;" xml:space="preserve">
<style type="text/css">
	.st0{fill:#493E36;}
	.st1{fill:#8C8B8C;}
	.st2{fill:#EF60A3;}
	.st3{fill:#F79B86;stroke:#FFF1A8;stroke-width:0.5;stroke-miterlimit:10;}
	.st4{fill:#FFF1A8;}
	.st5{fill:#F89932;}
	.st6{fill:#7C542C;}
	.st7{fill:#010101;}
</style>
<path class="st0" d="M149.7,38.6c0.3-10.4,9-18.5,19.3-18.2c4.5,0.1,8.7,1.9,12,4.8c7.8,7.1,8.3,19,8.3,29.5
	c-0.1,26.2-0.3,52.3-0.5,78.4L165.8,119"/>
<path class="st0" d="M152.2,38.6c0.3-7.8,6.5-14.8,14.3-15.5c4-0.4,8,0.6,11.4,2.9c3.1,2.3,5.4,5.4,6.6,9.1c3,8.3,2.3,17.6,2.3,26.3
	l-0.2,34l-0.2,38l3.8-2.2L167,116.8c-2.8-1.7-5.3,2.6-2.5,4.3l23.1,14.3c1.2,0.7,2.8,0.2,3.4-1c0.2-0.4,0.3-0.8,0.3-1.2
	c0.1-24.2,0.3-48.3,0.4-72.4c0-9.3,0.7-19.5-2.9-28.3c-1.7-4.3-4.6-8.1-8.3-10.8c-9.7-6.6-23-4.1-29.6,5.6
	c-2.3,3.3-3.5,7.2-3.7,11.3C147.1,41.9,152.1,41.8,152.2,38.6z"/>
<path class="st1" d="M170.1,59.6c-3.4-8.9-9.7-15.8-15.4-23.2l-0.9,0.5l-2.4,2l-1.9,1.5l-5.1,2.7l-5.2,5.1l-2.9-2.7l-3.3-1.6
	l2.7-3.5l3-3.5l2.3-8.6l-0.6-5l-2.1-7.1l-6.9-7.7l-8.7-3.5l-7-0.7l-8.3,2.3l-8.9,4.6l-1.4-0.1l-4.5,0.1l-5.6,2.2l-6.6,5.3l-4.4,7.7
	v11.4l5.3,9.4l7.8,5.2L89,55.8l-2.5,5.4l-1.9,5l-3.9,7.3L77.5,77l2,0.9l2.5,2.8l1.9,2.7l3.2-1.8l6.3-3.3l9.2-3L109,75l6.8-0.2
	l4.5,2.3l4.4,2.3l2.3,4.3l1.3,6.7l-0.7,5.8l-3.2,5.8l-5.6,4.6l-8.8,3.7l-8,1.1l-9.3-0.3l-4-2.2l-0.7,2.3l1.8,3.5l3.7,2.7l5,0.6
	l7-2.4l7.5-1.3l9.2-1.7l8.4-1.1l0.5,2.8l0.6,2.1l-2.8,3l-4,3.9l-5.9,1.7l4.6,1.2l-0.9,2.5l3.4-1.4l0.8,1.6l4.5-3.7l3.5-3.6l3.9-3.1
	l3.2-3.8l-0.6-3.2l4,2.7l-0.1,3.2l-3.2,4l-5.6,5.4l-6.9,4.7l5.1-1l-0.5,4.3l1.6-1.7l3.5-0.9l1.8,2.5l0.9-2.1l1.4-2.1l2.1-2l3.2-2.7
	l3.2-5l4.9-5.1l2.5,1.7l6.4-0.7l4.1-1.2c4.9-13.6,5.3-29.7,2.8-43.2C171.7,68,171,63.8,170.1,59.6z"/>
<polygon class="st2" points="77.5,77.1 74.2,79.1 73.5,84.1 75.5,87.3 78.4,88.6 82.2,87.2 83.9,83.5 82,80.8 79.5,78 "/>
<polygon class="st3" points="105.1,45.8 98.8,38.3 97.7,28.9 99.4,21.4 104.4,14.2 110,10.6 118.7,9.6 125.9,11.1 130.4,17.2 
	132.1,24 131.4,29.1 131.6,35.5 132.8,38.4 129.5,39.7 127.2,41.7 124.7,43.7 123.6,42.2 118.8,45.8 118.8,42.4 112.5,46.5 
	114.6,39 106.7,47 106.1,42.4 "/>
<path class="st4" d="M92.5,51.5c0.6-0.5,1.1-1,1.7-1.6c0.5-0.4,1-1,1.4-1.5c0-0.1,0-0.2-0.1-0.3c-0.1,0-0.1,0-0.2,0
	c-0.6,0.4-1.1,0.9-1.6,1.4c-0.5,0.5-1.1,1.1-1.6,1.6c-0.1,0.1-0.1,0.2,0,0.3C92.3,51.5,92.4,51.5,92.5,51.5z"/>
<path class="st4" d="M88.1,16.3c0.6,0.2,1.4-0.5,1.9-0.7c1-0.4,2.1-0.6,3.2-0.6c0.4,0,0.7-0.3,0.7-0.7c0-0.4-0.3-0.7-0.7-0.7
	c-1.4-0.1-2.8,0.3-4,1.1C89,14.9,87.5,16.1,88.1,16.3L88.1,16.3z"/>
<path class="st4" d="M109.1,7.6c2-0.5,4-0.8,6.1-1c1.9,0,3.7,0.6,5.5,0.5c0.2,0,0.4-0.2,0.4-0.4c0-0.1-0.1-0.3-0.2-0.4
	c-3.1-2.2-9.1-1.2-12,0.8c-0.1,0.1-0.2,0.2-0.1,0.3C108.9,7.6,109,7.7,109.1,7.6L109.1,7.6z"/>
<path class="st4" d="M96.6,36.7c-0.5-1.9-0.8-3.9-1-5.8c-0.1-1.8,0.4-3.5,0.3-5.3c0-0.2-0.2-0.3-0.4-0.3c-0.1,0-0.2,0.1-0.3,0.2
	c-2.1,3.1-1.3,8.6,0.9,11.5c0.1,0.1,0.2,0.1,0.3,0.1C96.6,36.9,96.6,36.8,96.6,36.7z"/>
<path class="st4" d="M76.6,78.6c-2.1,0.7-2,4.8,0.3,5.1c0.4,0,0.7-0.3,0.7-0.7c0-0.1,0-0.3-0.1-0.4c-0.4-0.5-0.8-0.8-0.9-1.5
	c-0.1-0.6,0.1-1.2,0.5-1.6C77.4,79.1,77.1,78.4,76.6,78.6z"/>
<path class="st4" d="M86,83c-0.2,3,1.4,5.8,4,7.2c0.3,0.1,0.5-0.3,0.2-0.4c-2.4-1.3-3.9-4-3.8-6.8C86.4,82.7,86,82.7,86,83L86,83z"
	/>
<path class="st4" d="M89.6,90.5c0.8-0.1,1.5-0.2,2.3-0.4c0.1,0,0.2-0.2,0.2-0.3s-0.2-0.2-0.3-0.2c-0.8,0.1-1.5,0.4-2.2,0.7
	C89.4,90.3,89.4,90.5,89.6,90.5L89.6,90.5z"/>
<path class="st4" d="M92.2,89.9c-1-1.3-1.7-2.7-2.3-4.3c-0.4-1.4-0.3-2.9-0.7-4.3c0-0.1-0.2-0.2-0.3-0.1c-0.1,0-0.1,0.1-0.1,0.1
	c-1,2.8,1,7,3.1,8.8C92.1,90.2,92.3,90.1,92.2,89.9z"/>
<path class="st4" d="M89.2,81.2c-0.6,0.2-1.1,0.6-1.6,1c-0.5,0.3-1,0.7-1.3,1.2c0,0.1,0,0.2,0.1,0.2c0,0,0.1,0,0.1,0
	c0.6-0.2,1.1-0.6,1.5-1c0.5-0.4,1-0.8,1.4-1.3C89.4,81.3,89.3,81.2,89.2,81.2C89.3,81.2,89.3,81.2,89.2,81.2L89.2,81.2z"/>
<path class="st4" d="M88,82.2c-0.5,2.5,0.2,5.1,1.9,7c0.2,0.3,0.7-0.1,0.5-0.4c-0.7-0.9-1.2-2-1.6-3.1c-0.3-1.1-0.5-2.3-0.5-3.4
	C88.3,82.1,88,82,88,82.2L88,82.2z"/>
<path class="st4" d="M87,83c-0.4,2.6,0.5,5.3,2.5,7.1c0.2,0.2,0.6,0.1,0.7-0.1c0.2-0.2,0.2-0.5,0-0.7c-0.8-0.9-1.5-1.9-2-2.9
	c-0.4-1.1-0.8-2.3-1-3.4C87.2,82.9,87.1,82.9,87,83C87,83,87,83,87,83z"/>
<path class="st4" d="M87.8,84.7c-0.5,2.4,0.7,4.9,2.9,6c0.2,0.1,0.4,0,0.6-0.2c0.1-0.2,0-0.4-0.1-0.6c-1.8-1.2-3-3.1-3.1-5.3
	C88.1,84.6,87.9,84.5,87.8,84.7L87.8,84.7z"/>
<path class="st4" d="M89.2,87.2c0.2,0.8,0.7,1.5,1.3,2.1c0.5,0.6,1.3,1,2.1,1.2c0.2,0,0.4-0.2,0.4-0.4c0-0.1,0-0.2-0.1-0.2
	c-0.3-0.2-0.6-0.4-0.9-0.5c-0.4-0.2-0.7-0.4-1-0.7c-0.6-0.5-1.1-1-1.5-1.6C89.3,86.9,89.1,87.1,89.2,87.2L89.2,87.2z"/>
<path class="st4" d="M88.5,82.6c-0.7-0.2-1.4-0.2-2.1,0c-0.2,0.1-0.3,0.2-0.4,0.4v0.1l0.2-0.2L86.1,83c-0.2,0.1-0.2,0.3-0.1,0.5
	c0.1,0.1,0.2,0.2,0.3,0.2h0.2l-0.3-0.1l0.1,0.1c0.1,0.1,0.4,0.2,0.6,0.2C87.5,83.6,88.1,83.3,88.5,82.6
	C88.6,82.7,88.6,82.6,88.5,82.6L88.5,82.6z"/>
<path class="st4" d="M85.5,83.3c0.1,0.8,0.3,1.5,0.7,2.2c0.4,0.5,1,1.3,1.7,1.3c0.2,0,0.4-0.2,0.4-0.4c0-0.1,0-0.1,0-0.2
	c-0.3-0.5-0.9-0.8-1.3-1.2c-0.5-0.5-0.8-1.1-1-1.8C85.9,83,85.5,83.1,85.5,83.3L85.5,83.3z"/>
<path class="st4" d="M87.2,83.3c-0.3,0.4,0,1.1,0,1.6c0,0.6,0.2,1.1,0.4,1.7c0.2,0.3,0.6,0.1,0.6-0.2c0-0.6-0.1-1.2-0.3-1.7
	c-0.1-0.5-0.1-1.1-0.5-1.4C87.3,83.2,87.2,83.2,87.2,83.3C87.2,83.2,87.2,83.3,87.2,83.3L87.2,83.3z"/>
<path class="st4" d="M84.7,84c0.2,0.5,0.5,0.9,0.8,1.4c0.2,0.4,0.5,0.8,0.9,1.2c0.1,0.1,0.3,0,0.3-0.2c-0.2-0.5-0.5-1-0.8-1.4
	c-0.3-0.4-0.6-0.8-0.9-1.2C84.8,83.6,84.6,83.8,84.7,84L84.7,84z"/>
<path class="st4" d="M93,110.3c0.2-0.9-0.6-1.7-0.8-2.6c-0.4-1.2-0.5-2.5-0.3-3.8c0-0.5-0.8-0.6-0.9-0.1c-0.2,1.3-0.1,2.7,0.3,4
	C91.5,108.6,92,110.1,93,110.3L93,110.3L93,110.3z"/>
<path class="st4" d="M91.8,103.9c0.6,0,1.2-0.1,1.7-0.4c0.1,0,0.1-0.1,0.1-0.2c0,0,0,0-0.1-0.1c-0.6-0.1-1.2-0.1-1.8,0.2
	c-0.1,0.1-0.2,0.2-0.1,0.3C91.7,103.9,91.7,103.9,91.8,103.9L91.8,103.9z"/>
<path class="st4" d="M93.1,103.7c0.4,2.2,1.5,5.3,3.5,6.6c0.2,0.1,0.4-0.1,0.4-0.3c-0.4-1-1.2-1.8-1.7-2.8c-0.6-1.2-1-2.4-1.3-3.7
	c-0.1-0.2-0.3-0.3-0.5-0.3C93.2,103.3,93.1,103.5,93.1,103.7L93.1,103.7z"/>
<path class="st4" d="M97.1,110c-0.5-0.4-1.1-0.6-1.8-0.8c-0.8-0.3-1.6-0.7-2.4-1.1c-0.7-0.4-1.3,0.7-0.6,1.1c0.8,0.5,1.7,0.8,2.6,1
	c0.7,0.3,1.5,0.3,2.2,0C97.2,110.1,97.2,110.1,97.1,110C97.2,110.1,97.2,110.1,97.1,110L97.1,110z"/>
<path class="st4" d="M95.8,109.4c-0.7-0.9-1.3-1.8-1.8-2.8c-0.4-0.8-0.5-1.9-1.2-2.5c-0.1-0.1-0.2-0.1-0.3,0c0,0,0,0,0,0
	c-0.5,0.9,0.2,2.2,0.7,3c0.6,1.1,1.5,1.9,2.5,2.6C95.8,109.7,95.9,109.4,95.8,109.4L95.8,109.4z"/>
<path class="st4" d="M92.5,103.9c-0.4,1.6-0.3,3.3,0.4,4.9c0.2,0.4,0.8,0.2,0.7-0.2c-0.5-1.5-0.8-3.1-0.6-4.7c0-0.1-0.1-0.2-0.2-0.2
	C92.6,103.7,92.5,103.8,92.5,103.9z"/>
<path class="st4" d="M94.2,107.6c0.2,0.7,0.6,1.4,1.2,1.8c0.5,0.5,1.3,0.7,2,0.7c0.1,0,0.2-0.2,0.2-0.3c0-0.1-0.1-0.1-0.1-0.2
	c-0.6-0.2-1.1-0.4-1.6-0.7c-0.5-0.4-1-0.9-1.3-1.5c0-0.1-0.2-0.1-0.2-0.1S94.1,107.5,94.2,107.6L94.2,107.6z"/>
<path class="st5" d="M73.1,92.2c0.2,3.4,1.2,6.8,1.6,10.2c0.4,3.5,0.6,6.9,0.6,10.4c0,0.3,0.3,0.6,0.6,0.6c0.3,0,0.6-0.3,0.6-0.6
	c0.2-3.8,0.1-7.6-0.4-11.4c-0.4-3.2-0.9-6.6-2.4-9.5c-0.1-0.2-0.3-0.2-0.5-0.1C73.1,91.9,73.1,92,73.1,92.2z"/>
<path class="st5" d="M75.4,112.9C75.4,112.9,75.4,112.8,75.4,112.9C75.4,112.8,75.4,112.8,75.4,112.9
	C75.4,112.8,75.3,112.8,75.4,112.9C75.3,112.8,75.4,112.9,75.4,112.9C75.4,112.9,75.4,112.9,75.4,112.9z"/>
<path class="st5" d="M75.4,113.2C75.4,113.1,75.4,113.1,75.4,113.2C75.4,113.1,75.4,113.1,75.4,113.2
	C75.4,113,75.3,113.1,75.4,113.2C75.3,113.1,75.4,113.1,75.4,113.2C75.4,113.2,75.4,113.2,75.4,113.2z"/>
<path class="st5" d="M75.3,114.1c1.5-2,3-4,4.5-6c1.5-1.7,2.9-3.5,4.1-5.4c0.2-0.3-0.2-0.6-0.4-0.4c-3.7,2.7-6.5,7.6-8.6,11.6
	c0,0.1,0,0.3,0.1,0.3C75.2,114.2,75.3,114.1,75.3,114.1L75.3,114.1z"/>
<path class="st5" d="M83.7,103.4c0.3-1.3,0.6-2.7,0.8-4.1c0.3-1.1,0.3-2.2,0.2-3.3c-0.1-0.5-0.8-0.4-0.9,0c-0.3,1.1-0.5,2.3-0.5,3.5
	c-0.1,1.3-0.2,2.6-0.1,3.9c0,0.2,0.1,0.3,0.3,0.3C83.5,103.6,83.6,103.6,83.7,103.4L83.7,103.4z"/>
<path class="st5" d="M84.6,96c-1.4-1.3-3.3-1.5-5.1-1.9c-2.1-0.6-4.2-1-6.4-1.2c-0.8,0-0.9,1.1-0.2,1.4c2.2,0.7,4.4,1.2,6.6,1.5
	c1.7,0.3,3.4,0.9,5.1,0.3C84.6,96.1,84.6,96.1,84.6,96C84.6,96,84.6,96,84.6,96L84.6,96z"/>
<path class="st5" d="M73.6,92.2c0.3,1.1,1.8,1.8,2.8,2.2c1.2,0.7,2.6,1.1,4,1.1c0.2,0,0.4-0.2,0.4-0.4c0-0.1-0.1-0.3-0.2-0.3
	c-1.2-0.6-2.5-1.1-3.7-1.6c-1-0.4-2-1.3-3.1-1.2C73.7,92,73.6,92.1,73.6,92.2C73.6,92.2,73.6,92.2,73.6,92.2L73.6,92.2z"/>
<path class="st5" d="M75.6,95c-0.8,4.5,0,9.4,0.9,13.9c0.2,0.9,1.5,0.5,1.4-0.4C77.1,104,77,99.4,76,95c0-0.1-0.1-0.1-0.2-0.1
	C75.7,94.9,75.7,94.9,75.6,95L75.6,95z"/>
<path class="st5" d="M76.1,108.2c5-1.5,7.7-6.7,7.6-11.8c0-0.4-0.4-0.8-0.8-0.8c-0.1,0-0.1,0-0.2,0C80.8,96,78.8,95.7,77,95
	c-1-0.4-1.5,1.3-0.5,1.7c2.1,0.7,4.4,0.9,6.6,0.5l-1-0.8c0.2,4.8-2.5,8.6-6.2,11.4C75.8,108,75.8,108.3,76.1,108.2L76.1,108.2z"/>
<path class="st5" d="M77.2,96c-0.4,3.1-0.6,6.2-0.6,9.2c0,0.4,0.4,0.8,0.8,0.8c0.2,0,0.4-0.1,0.5-0.2c1.6-1.4,3-3.2,4-5.1
	c0.2-0.4,0-0.9-0.4-1c-0.3-0.1-0.7,0-0.9,0.2c-1.1,1.7-2.3,3.3-3.8,4.7l1.4,0.6c0.2-3,0.2-6.1-0.1-9.1C78.1,95.6,77.3,95.4,77.2,96z
	"/>
<path class="st5" d="M81.5,100.9c0.2-0.8,0.3-1.5,0.2-2.3c0-0.7,0.2-1.4-0.6-1.8c-0.2-0.1-0.4-0.1-0.5,0.1c-0.6,0.5-0.3,1.2-0.2,1.9
	c0.1,0.8,0.3,1.5,0.6,2.2c0.1,0.1,0.2,0.1,0.4,0.1C81.5,101,81.5,101,81.5,100.9z"/>
<path class="st5" d="M80.8,98.2c-0.8-0.4-3-0.8-3.3,0.4c-0.1,0.3,0.1,0.6,0.3,0.7c0.4,0.3,0.8,0.1,1.2,0.1c0.4,0,0.8,0,1.2,0.2
	C81,100,81.6,98.6,80.8,98.2z"/>
<path class="st5" d="M79.5,98.6c0,0.6,0.1,1.1,0.2,1.7c0,0.6,0.2,1.1,0.5,1.5c0.2,0.2,0.6,0.3,0.8,0.1c0.1-0.1,0.2-0.2,0.2-0.3
	c0.1-0.5-0.1-1.1-0.4-1.5c-0.2-0.5-0.5-1-0.8-1.5c-0.1-0.1-0.2-0.1-0.4-0.1C79.6,98.5,79.5,98.6,79.5,98.6L79.5,98.6z"/>
<path class="st5" d="M79.3,100.4c-0.5,1-0.9,2.1-1.3,3.2c-0.1,0.3-0.1,0.6,0.1,0.8c0.2,0.2,0.4,0.3,0.6,0.2c0.2-0.1,0.4-0.2,0.5-0.5
	c0.2-1.2,0.5-2.3,0.7-3.5C79.8,100.3,79.5,100.1,79.3,100.4z"/>
<path class="st5" d="M78.9,103.1c1-1.9,1.6-3.9,1.8-6c0-0.3-0.1-0.5-0.4-0.7c-0.2-0.2-0.5-0.2-0.8,0c-0.2,0.1-0.4,0.4-0.4,0.7
	c0.1,1.9-0.3,3.8-1.1,5.5C77.7,103.1,78.6,103.6,78.9,103.1z"/>
<path class="st5" d="M76.6,110.4c0.7-1.2,1.3-2.5,2-3.8c0.5-1,1.3-2.1,1.2-3.2c0-0.3-0.2-0.5-0.5-0.5c-0.2,0-0.3,0-0.4,0.2
	c-0.9,0.8-1.1,2.1-1.5,3.1c-0.5,1.3-1,2.7-1.3,4c0,0.1,0.1,0.3,0.2,0.3C76.5,110.4,76.6,110.4,76.6,110.4L76.6,110.4z"/>
<path class="st5" d="M80.3,97.8c0-0.7,0-1.4,0.2-2.1c0.2-0.6-0.9-0.6-0.8,0c0.1,0.7,0.2,1.4,0.2,2.1c0,0.1,0.1,0.2,0.2,0.2
	C80.2,98,80.3,97.9,80.3,97.8z"/>
<path class="st6" d="M77.8,93.4c0.1,0,0.2-0.1,0.2-0.2c0-0.1-0.1-0.2-0.2-0.2s-0.2,0.1-0.2,0.2C77.6,93.3,77.7,93.4,77.8,93.4z"/>
<path class="st6" d="M77.8,93.2C77.8,93.2,77.8,93.2,77.8,93.2C77.8,93.1,77.8,93.1,77.8,93.2C77.8,93.1,77.7,93.1,77.8,93.2
	C77.7,93.2,77.8,93.2,77.8,93.2C77.8,93.2,77.8,93.2,77.8,93.2z"/>
<path class="st6" d="M77.3,93.1c-0.1,0.9,0.4,1.6,1.3,1.9c0.7,0.2,2,0.1,2.2-0.7c0-0.2,0-0.3-0.2-0.4c0,0-0.1,0-0.1,0
	c-0.6,0.1-1,0.6-1.6,0.4S78,93.6,77.6,93c0-0.1-0.2-0.1-0.2-0.1C77.4,93,77.3,93,77.3,93.1L77.3,93.1z"/>
<path class="st6" d="M77.8,93.8c0.5,0.6,1.2,1,2,1.1c0.7,0.1,0.8-1,0.2-1.1l-1-0.2c-0.3-0.1-0.6-0.2-0.9-0.2c-0.2,0-0.3,0.2-0.3,0.3
	C77.7,93.7,77.7,93.7,77.8,93.8L77.8,93.8z"/>
<path class="st6" d="M84.6,98.2c-0.1-0.4-0.5-0.7-0.9-0.7c-0.4,0-0.8,0.3-1,0.7c-0.3,0.7,0.1,1.5,0.9,1.8c0.2,0.1,0.4,0.1,0.5,0.1
	c0.4,0,0.6-0.7,0.1-0.8c-0.3-0.1-0.8-0.2-0.8-0.6s0.4-0.3,0.7-0.2c0.1,0.1,0.3,0,0.4-0.1C84.6,98.4,84.6,98.3,84.6,98.2L84.6,98.2z"
	/>
<path class="st6" d="M84.1,98.2c-0.2,0.3-0.4,0.7-0.5,1.1c0,0.2,0,0.3,0.1,0.4c0.1,0.1,0.3,0.2,0.4,0.1c0.2-0.1,0.3-0.2,0.3-0.4
	c0.1-0.4,0-0.8-0.1-1.2c0-0.1-0.2-0.2-0.3-0.1C84.1,98.2,84.1,98.2,84.1,98.2L84.1,98.2z"/>
<path class="st6" d="M83.4,98.5c-0.1,0.3-0.1,0.6-0.1,0.9c0,0.3,0.2,0.4,0.5,0.4c0.3,0,0.4-0.2,0.4-0.5c0,0,0,0,0-0.1
	c-0.1-0.3-0.2-0.6-0.3-0.8c-0.1-0.1-0.3-0.2-0.4-0.1C83.5,98.4,83.5,98.4,83.4,98.5z"/>
<path class="st6" d="M77.1,98.1c-0.3,0.6-0.2,1.3,0.2,1.8c0.5,0.6,1.3,0.8,2,0.6c0.7-0.1,0.4-1.2-0.3-1c-0.9,0.2-1.4-0.5-1.4-1.3
	c0-0.1-0.1-0.2-0.3-0.2C77.3,98,77.2,98.1,77.1,98.1L77.1,98.1z"/>
<path class="st6" d="M77.5,98.8c0,0.7,0.6,1.3,1,1.8s1.4-0.3,0.8-0.8s-0.8-1.1-1.4-1.2C77.7,98.5,77.5,98.6,77.5,98.8
	C77.5,98.8,77.5,98.8,77.5,98.8L77.5,98.8z"/>
<path class="st6" d="M74.2,101.5c0.3,0.2,0.7,0.4,0.7,0.8c0.1,0.4-0.2,0.7-0.5,0.9c-0.6,0.2-0.3,1.2,0.3,1c0.8-0.3,1.3-1,1.2-1.9
	c-0.1-0.8-0.8-1.3-1.5-1.2c0,0,0,0,0,0c-0.1,0-0.2,0.2-0.2,0.3C74.2,101.4,74.2,101.5,74.2,101.5L74.2,101.5z"/>
<path class="st6" d="M74.3,102.2c-0.2,0.5-0.3,1.2,0.2,1.5c0.1,0.1,0.3,0.1,0.4-0.1c0.4-0.4,0.2-1-0.1-1.4
	C74.6,102,74.4,102,74.3,102.2z"/>
<path class="st6" d="M74.3,101.8c0.1,0.3,0.1,0.6,0.4,0.7c0.1,0,0.2,0,0.2-0.1c0,0,0,0,0,0c0.1-0.3,0-0.6-0.2-0.8
	c-0.1-0.1-0.2-0.1-0.3-0.1C74.3,101.7,74.3,101.8,74.3,101.8z"/>
<path class="st6" d="M78.1,104.4c-0.9,0.4-1.3,1.6-0.9,2.5c0,0,0,0,0,0.1c0.5,0.6,1.4,0.7,2,0.2c0.1-0.1,0.3-0.3,0.3-0.4
	c0.6-0.7,0.4-1.8-0.3-2.3c-0.2-0.1-0.3-0.2-0.5-0.3c-1-0.2-2,0.8-1.2,1.7c0.1,0.1,0.3,0.1,0.4,0c0-0.1,0.1-0.1,0.1-0.2
	c0-0.5,0.6-0.8,0.9-0.4c0.2,0.5,0.1,1-0.4,1.3c-0.5,0.2-0.9-0.2-0.9-0.7c0.1-0.5,0.3-1,0.6-1.4C78.3,104.4,78.2,104.3,78.1,104.4z"
	/>
<path class="st6" d="M77.4,105l-0.2-0.1c-0.1-0.1-0.3,0-0.4,0.1c0,0,0,0,0,0c-0.1,0.5,0,1.6,0.6,1.7c0.1,0,0.2,0,0.2-0.1
	c0.1-0.2,0-0.4-0.1-0.7C77.4,105.7,77.3,105.3,77.4,105l-0.2,0.3l0.2-0.2C77.4,105.1,77.5,105.1,77.4,105
	C77.4,105,77.4,105,77.4,105L77.4,105z"/>
<path class="st6" d="M78.2,105c-0.6,0.2-1.1,0.8-0.8,1.5c0.2,0.4,0.8,0.6,1.2,0.4c0.2-0.1,0.3-0.2,0.4-0.3c0.4-0.6,0.3-1.6-0.5-1.7
	s-1.4,0.9-0.6,1.3c0.2,0.1,0.5,0,0.6-0.2c0.1-0.1,0.1-0.2,0-0.3c-0.2,0-0.3,0.1-0.3,0.2c0,0.1,0,0.1,0,0.2c-0.1,0.1,0,0.2-0.1,0
	s0.1-0.7,0.2-0.9C78.4,105.1,78.4,105,78.2,105C78.3,105,78.3,105,78.2,105L78.2,105z"/>
<path class="st5" d="M78.1,96.9c0.2,0.7,0.5,1.3,0.9,1.8c0.2,0.3,0.6,0.4,0.9,0.2c0.3-0.2,0.4-0.6,0.2-0.9c0-0.1-0.1-0.1-0.1-0.1
	c-0.4-0.6-1-1-1.7-1.3C78.2,96.5,78.1,96.8,78.1,96.9L78.1,96.9z"/>
<path class="st5" d="M82.3,100.7c-0.3,0.7-0.1,1.5,0.4,2.1c0.2,0.2,0.4,0.2,0.6,0.2c0.3-0.1,0.5-0.5,0.4-0.8c0-0.1-0.1-0.1-0.1-0.2
	c-0.1-0.2-0.3-0.3-0.4-0.5s-0.3-0.5-0.4-0.7C82.7,100.6,82.5,100.6,82.3,100.7C82.4,100.7,82.3,100.7,82.3,100.7L82.3,100.7z"/>
<path class="st5" d="M81.8,98.9c0.4-0.5,0.3-1.2,0.6-1.7c0.1-0.1,0.1-0.3,0-0.4c-0.1-0.1-0.3-0.1-0.4,0.1c-0.4,0.2-0.6,0.6-0.7,1.1
	c-0.1,0.4,0,0.8,0.3,1C81.7,99,81.7,99,81.8,98.9L81.8,98.9z"/>
<path class="st5" d="M84.1,96.6c0.5,0.1,1,0,1.4-0.3c0.2-0.2,0.2-0.5,0-0.6c-0.1-0.1-0.2-0.1-0.3-0.1c-0.5,0-0.9,0.3-1.2,0.7
	C83.9,96.4,83.9,96.5,84.1,96.6C84.1,96.6,84.1,96.6,84.1,96.6z"/>
<path class="st5" d="M84.9,96.1c-0.2,0.4-0.7,0.9-0.5,1.3c0,0.1,0.2,0.2,0.3,0.2c0,0,0,0,0.1,0c0.4-0.2,0.4-0.8,0.6-1.3
	c0.1-0.1,0-0.3-0.1-0.3C85.1,95.9,84.9,95.9,84.9,96.1z"/>
<path class="st5" d="M75,95.6c0.2,0.2,0,0.7,0,0.9c-0.3,0.9,1.2,1.3,1.4,0.4c0.1-0.4,0-0.9-0.2-1.2c-0.2-0.3-0.6-0.4-0.9-0.5
	c-0.1,0-0.2,0-0.3,0.2C74.9,95.4,75,95.5,75,95.6L75,95.6z"/>
<path class="st5" d="M77.4,108.6c0.4,0.4,1,0.5,1.5,0.3c0.8-0.3,0.1-1.6-0.7-1.2c-0.1,0.1-0.3,0.2-0.5,0.2c-0.2,0-0.4,0.2-0.4,0.5
	C77.3,108.4,77.3,108.5,77.4,108.6z"/>
<path class="st5" d="M76.9,108.7c-0.6,0.9-1,1.9-1.1,2.9c0,0.2,0.2,0.4,0.4,0.4c0.2,0,0.3-0.1,0.4-0.2c0.5-0.9,0.7-2,0.7-3
	c0-0.1-0.1-0.2-0.2-0.2C77,108.6,76.9,108.7,76.9,108.7L76.9,108.7z"/>
<path class="st5" d="M75.5,114.9c0.2-0.4,0.3-0.9,0.3-1.4c-0.1-0.2-0.2-0.2-0.4-0.2c-0.1,0-0.1,0.1-0.2,0.1
	c-0.2,0.4-0.2,0.9-0.1,1.4C75.1,114.9,75.4,115.1,75.5,114.9z"/>
<path class="st4" d="M85.2,83.3c1.5-0.4,3-1,4.5-1.7c0.7-0.3,0.4-1.4-0.3-1.2c-1.7,0.4-3.2,1.3-4.4,2.6
	C84.9,83.2,85.1,83.3,85.2,83.3L85.2,83.3z"/>
<path class="st4" d="M84.9,82.9c-0.7,1.2,0,3.1,0.7,4.3c0.7,1.5,2,2.8,3.6,3.5c0.2,0.1,0.5,0,0.7-0.2l0.2-0.2c0.2-0.2,0.2-0.5,0-0.6
	c0,0,0,0-0.1-0.1c-0.6-0.5-1.4-0.7-2-1.2c-0.6-0.5-1.1-1.1-1.5-1.8c-0.7-1.2-0.7-2.6-1.4-3.7C85.1,82.8,85,82.8,84.9,82.9
	C84.9,82.8,84.9,82.9,84.9,82.9L84.9,82.9z"/>
<path class="st4" d="M86.1,83.4c-0.4,2.3,0.6,4.6,2.5,6c0.6,0.4,1.2-0.4,1-1c-0.4-0.9-1.2-1.6-1.6-2.5c-0.4-0.9-0.8-1.8-1.3-2.6
	c-0.1-0.1-0.3-0.2-0.4-0.1C86.2,83.3,86.2,83.4,86.1,83.4L86.1,83.4z"/>
<path class="st4" d="M88.9,82.2c-0.7,1-1,2.3-0.7,3.5c0.2,1.1,0.6,2.6,1.7,3c0.3,0.1,0.7-0.1,0.8-0.5c0,0,0-0.1,0-0.2
	c0.1-1-0.7-1.9-0.9-2.8s-0.4-2-0.5-3C89.2,82.1,89,82.1,88.9,82.2L88.9,82.2z"/>
<path class="st4" d="M88.9,81.6c-0.7,0.5-1,1.4-1,2.2c0,0.8,0.1,1.9,1,2.2c0.3,0.1,0.7-0.1,0.8-0.4c0.2-0.7-0.3-1.2-0.4-1.9
	c-0.1-0.7-0.1-1.3-0.1-2C89.1,81.7,89,81.6,88.9,81.6C88.9,81.6,88.8,81.6,88.9,81.6L88.9,81.6z"/>
<path class="st4" d="M89.9,80.6c-1,0.9-1.5,2.2-1.3,3.6c0,0.3,0.1,0.5,0.4,0.6l0.1,0.1c0.2,0.1,0.4,0.1,0.6-0.1
	c0.5-0.4,0.3-1.3,0.3-1.9s0.2-1.5,0.1-2.2C90.1,80.6,90,80.6,89.9,80.6C89.9,80.6,89.9,80.6,89.9,80.6z"/>
<path class="st4" d="M87.7,82.2c-1.4,0.9-1.2,3.4-0.2,4.5c0.2,0.2,0.6,0.2,0.8,0.1c0,0,0.1-0.1,0.1-0.1c0.2-0.2,0.2-0.4,0.2-0.7
	c-0.3-0.7-0.4-1.3-0.6-2c-0.1-0.6,0-1.2-0.1-1.8C87.9,82.1,87.8,82.1,87.7,82.2C87.7,82.1,87.6,82.1,87.7,82.2L87.7,82.2z"/>
<path class="st4" d="M91,89.5c-0.4,0.4-0.4,1.1,0,1.5c0.8,1,2.1-0.4,1-1c-0.2-0.2-0.4-0.3-0.7-0.5C91.2,89.4,91.1,89.4,91,89.5
	L91,89.5z"/>
<path class="st4" d="M92.1,104.1v-0.2c0-0.1-0.1-0.1-0.2-0.1c0,0-0.1,0-0.1,0.1c-1.3,1.8-0.4,4.8,1,6.4c0.3,0.3,0.7,0.3,1,0.1
	c0.1-0.1,0.2-0.2,0.3-0.3c0.2-0.3,0.1-0.7-0.1-1c-1.3-1.6-0.8-3.7-1.9-5.2l-0.2,0.2l0.1,0.1C92.1,104.3,92.2,104.2,92.1,104.1
	L92.1,104.1z"/>
<path class="st4" d="M92.6,104c-0.1,2.9,1.2,5.7,3.5,7.5c0.8,0.6,1.6-0.6,1-1.3c-0.8-0.9-1.6-1.9-2.2-2.9c-0.5-1.1-0.9-2.3-1.1-3.5
	C93.7,103.1,92.7,103.3,92.6,104L92.6,104z"/>
<path class="st4" d="M93.5,109.3c0,0.3,0,0.5,0.1,0.8c0.1,0.3,0.2,0.5,0.4,0.7c0.3,0.5,0.8,0.9,1.4,1.1c0.5,0.1,0.8-0.6,0.6-1
	s-0.8-0.6-1.2-1c-0.2-0.1-0.3-0.3-0.5-0.4s-0.4-0.2-0.6-0.3c-0.1,0-0.1,0-0.2,0C93.5,109.2,93.5,109.2,93.5,109.3L93.5,109.3z"/>
<path class="st4" d="M81.3,75.4c3.2-3,5.7-6.8,7.2-10.9c0-0.2-0.1-0.4-0.2-0.4c-0.1,0-0.3,0-0.4,0.1c-1,1.9-1.9,3.9-3.1,5.7
	s-2.6,3.5-3.7,5.3C81,75.4,81.2,75.6,81.3,75.4z"/>
<path class="st4" d="M121.9,72.8c3,2.1,5.5,4.8,7.4,7.9c2.1,3.8,2.6,7.7,2.5,11.9c0,0.2,0.2,0.4,0.4,0.4c0.2,0,0.4-0.1,0.4-0.3
	c1.6-7.9-2.9-17.2-10.5-20.2C121.9,72.5,121.8,72.7,121.9,72.8L121.9,72.8z"/>
<path class="st4" d="M135.8,129.1c0.6-0.2,1.1-0.4,1.7-0.7c0.5-0.2,1-0.5,1.4-0.9c0.1-0.1,0-0.3-0.1-0.4c0,0-0.1,0-0.1,0
	c-0.5,0.1-1,0.3-1.4,0.6c-0.5,0.3-1,0.7-1.5,1C135.5,128.8,135.6,129.1,135.8,129.1L135.8,129.1z"/>
<path class="st4" d="M147,124.6c2.8-3.8,11.4-8,7.5-13.8c-0.5-0.8-1.8,0-1.2,0.7c3.7,5.1-4.2,9.2-6.5,12.9
	C146.6,124.6,146.9,124.8,147,124.6z"/>
<path class="st4" d="M143.6,108.3c-0.3,0.8-0.1,1.8,0.5,2.4c0.5,0.8,1.4,1.4,2.4,1.4c0.4,0,0.7-0.3,0.7-0.7c0-0.2-0.1-0.3-0.2-0.4
	c-0.5-0.5-1.1-0.7-1.6-1.2s-0.7-1.1-1.2-1.6C144,108.1,143.8,108.1,143.6,108.3C143.6,108.2,143.6,108.2,143.6,108.3L143.6,108.3z"
	/>
<path class="st4" d="M160.5,115.1c3.2,0.8,6-0.7,8.6-2.4c0.5-0.3,0-1.2-0.5-0.9c-2.4,1.6-4.9,3-7.8,2.3
	C160.1,114,159.8,115,160.5,115.1L160.5,115.1z"/>
<path class="st7" d="M99.5,46.7c-13.4-16-3.9-41.6,18-42c10.9-0.3,20.5,7.3,22.7,18c2.1,10.4-3.9,19.7-12.9,24.4
	c-0.4,0.2-0.1,0.9,0.3,0.7c9.5-4,15.1-13.7,13.9-23.9c-1.6-11-10.7-19.3-21.8-20c-23-1.6-36.4,26.5-20.6,43.2
	C99.4,47.4,99.8,47,99.5,46.7L99.5,46.7z"/>
<path class="st7" d="M103.5,45.4C99.7,39.1,97.1,32.5,99,25c1.9-7.8,8.2-14.4,16.4-15c7.4-0.6,14.5,4.2,15.9,11.7
	c1.1,5.8-1.9,11.3,0.5,16.9c0.2,0.5,1.2,0.2,1-0.4c-3.2-7.8,2.4-15.9-3.2-23.3c-4.4-5.8-12-7.5-18.8-5.3
	c-14.4,4.9-18.6,25.8-7.7,36.2c0.1,0.1,0.3,0.1,0.4,0C103.6,45.7,103.7,45.6,103.5,45.4L103.5,45.4z"/>
<path class="st7" d="M125.1,12.6c-8.3,0.4-15.5,5.9-17.2,14.2c0,0.1,0,0.3,0.2,0.3c0.1,0,0.3,0,0.3-0.2l0,0
	c2.5-7.6,8.5-12.9,16.7-13.7C125.5,13.1,125.5,12.5,125.1,12.6z"/>
<path class="st7" d="M98.5,30c4.1,0.2,6.6,2.9,8,6.4c0.1,0.2,0.5,0.1,0.5-0.1c-0.3-4.1-4.7-6.9-8.5-6.8c-0.1,0-0.2,0.2-0.2,0.3
	C98.3,30,98.3,30,98.5,30L98.5,30z"/>
<path class="st7" d="M98.7,10.9c-11.1-0.9-21.1,6.6-23.2,17.5c-2,10.4,3.8,20.8,13.7,24.6c0.6,0.2,1-0.7,0.4-1
	c-9.5-4.2-15.3-13.7-13-24.2s11.8-16.5,22.1-16.5c0.1,0,0.2-0.2,0.2-0.3C98.9,11,98.8,10.9,98.7,10.9z"/>
<path class="st7" d="M86.9,46c-1.5-1.2-2.9-2.7-4-4.3c-1-1.5-1.7-3.2-2.7-4.7c-0.2-0.3-0.7-0.2-0.7,0.2c0.3,4,4,7.3,7.1,9.3
	C86.8,46.6,87.2,46.2,86.9,46L86.9,46z"/>
<path class="st7" d="M79.1,30.8c0.5-2.5,1.4-4.9,2.8-7c1.4-2.2,3.4-3.5,5.2-5.4c0.2-0.2,0-0.6-0.3-0.5c-5,1.8-7.6,8.1-8.3,12.8
	C78.5,31,79,31.1,79.1,30.8L79.1,30.8z"/>
<path class="st7" d="M101.1,13.9c3.7-3.5,7.9-5.1,12.7-6.2c0.1,0,0.2-0.2,0.2-0.3c0-0.1-0.1-0.2-0.2-0.2c-4.9,0.2-9.6,3-13,6.4
	c-0.1,0.1-0.1,0.2,0,0.3S101,14,101.1,13.9L101.1,13.9L101.1,13.9z"/>
<path class="st7" d="M124.4,7.6c2.6,1.3,5,3,7,5.2c2.1,2.3,3.1,4.8,4.7,7.4c0.1,0.1,0.2,0.1,0.3,0.1c0.1-0.1,0.1-0.1,0.1-0.2
	c-0.8-5.9-6.6-10.9-11.7-13.2C124.3,6.7,123.8,7.4,124.4,7.6L124.4,7.6z"/>
<path class="st7" d="M136.1,27.2c-0.1,0.7-0.1,1.4-0.1,2c0,0.5-0.1,1,0.2,1.4c0.1,0.1,0.2,0.1,0.2,0c0,0,0,0,0,0
	c0.4-0.4,0.3-0.9,0.3-1.4c0-0.7,0-1.4,0-2c0-0.2-0.2-0.3-0.3-0.2C136.3,27,136.2,27.1,136.1,27.2L136.1,27.2z"/>
<path class="st7" d="M105.4,44.9l0.6-2.6l-0.6-0.1c-0.1,1.9,0,3.7,0.3,5.5c0,0.3,0.6,0.3,0.6,0s0.1-0.4,0.1-0.6c0-0.1,0-0.3-0.2-0.3
	c-0.1,0-0.3,0-0.3,0.2c-0.1,0.2-0.2,0.4-0.2,0.6h0.6c-0.3-1.8-0.4-3.6-0.3-5.4c0-0.2-0.2-0.3-0.3-0.3c-0.1,0-0.2,0.1-0.3,0.2
	l-0.6,2.6C104.7,45.1,105.3,45.3,105.4,44.9z"/>
<path class="st7" d="M106.8,47.3c2.8-3,5.7-5.9,8.8-8.6l-0.6-0.5c-1.7,2.9-2.8,6.2-3,9.5c0,0.3,0.4,0.3,0.5,0.1
	c1.2-3.1,1.4-6.2,3.2-9.2c0.1-0.2,0-0.4-0.2-0.6c-0.2-0.1-0.3-0.1-0.5,0.1c-3,2.8-5.9,5.8-8.5,8.9C106.3,47.2,106.6,47.5,106.8,47.3
	L106.8,47.3z"/>
<path class="st7" d="M113.1,46.7c1.9-1.3,3.9-2.7,5.8-4l-0.5-0.5c-0.7,1.2-0.8,2.7-0.4,4c0.2,0.3,0.7,0.2,0.7-0.2
	c-0.2-1.2-0.1-2.4,0.3-3.5c0.1-0.3-0.2-0.7-0.5-0.5c-1.9,1.3-3.8,2.7-5.7,4.1C112.5,46.4,112.8,46.9,113.1,46.7L113.1,46.7z"/>
<path class="st7" d="M119.7,46.1c1.4-1,2.6-2.4,3.4-3.9l-0.7-0.1c0.1,1.2,0.4,2.4,0.9,3.5c0.1,0.2,0.4,0.3,0.6,0.1
	c0.1-0.1,0.2-0.2,0.2-0.3c-0.1-1.2-0.4-2.4-0.9-3.5c-0.1-0.2-0.3-0.3-0.5-0.3c-0.1,0-0.2,0.1-0.3,0.3c-0.6,1.5-1.7,2.7-3,3.6
	C119,45.8,119.4,46.4,119.7,46.1L119.7,46.1z"/>
<path class="st7" d="M124.3,45.7c0.1-0.4,0.4-0.6,0.8-0.6c0.5,0.1,0.8,0.4,0.9,0.9c0.2,0.7-0.2,1.4,0,2.2c0,0.1,0.2,0.2,0.3,0.2
	c0,0,0.1,0,0.1-0.1c0.8-1.1,0.6-2.6-0.4-3.5c-0.6-0.5-1.5-0.4-2,0.2c-0.1,0.2-0.2,0.4-0.3,0.6C123.7,45.9,124.3,46.1,124.3,45.7
	L124.3,45.7z"/>
<path class="st7" d="M95.9,43c-9.8,9.2-9.2,24.3-18.7,33.8c-0.4,0.4,0.2,0.9,0.6,0.6c9.9-9.1,9.1-24.4,18.4-34
	c0.1-0.1,0.1-0.2,0-0.3C96.1,42.9,96,42.9,95.9,43L95.9,43z"/>
<path class="st7" d="M78.7,76.7c-8.8-1.4-6.7,15,1.8,12.1c4-1.3,3.6-6.1,1.6-8.9c-1-1.4-6-6.5-7-2.2c-0.1,0.5,0.6,0.8,0.8,0.3
	c1.3-3,5.6,2.8,6,3.6c1.5,3,0.1,6.9-3.7,6.4C72.4,87.4,72,77,78.6,77.4C78.9,77.4,79,76.8,78.7,76.7L78.7,76.7z"/>
<path class="st7" d="M84,83.7c11.6-7.2,42.7-17,43.6,5.8c0.7,19.6-25.1,24.6-39.3,19.3c-0.4-0.1-0.7,0.1-0.8,0.5c0,0.1,0,0.1,0,0.2
	c-0.3,6.1,5.5,9,10.9,8.5c4.9-0.5,9.6-2.5,14.4-3.6c5.9-1.2,11.8-2,17.8-2.2c0.9,0,0.9-1.5,0-1.4c-7.7,0.2-15.3,1.3-22.7,3.3
	c-4.7,1.3-11,4.3-15.8,1.6c-2.5-1-3.4-2.7-2.6-5l1.6,0.5c1.4-0.1,3.6,0.9,5,1c11.1,1.5,24.3-2.6,30.2-12.8
	c4.5-7.7,3.1-19.1-5.4-23.5c-11.2-5.8-27.9,0.7-37.2,7.3C83.4,83.4,83.7,83.9,84,83.7L84,83.7z"/>
<path class="st7" d="M130.6,111.7c8-4.3,13.2-14,10.3-23.1c0-0.3-0.3-0.5-0.6-0.4c-0.3,0-0.5,0.3-0.4,0.6c0.4,9.2-1.9,16.8-9.6,22.5
	c-0.1,0.1-0.1,0.3-0.1,0.4C130.3,111.7,130.4,111.8,130.6,111.7L130.6,111.7z"/>
<path class="st7" d="M133,44.2c1.8,0.7,3.3,1.9,4.5,3.4c1.2,1.4,1.6,3,2.3,4.7c0.2,0.4,0.8,0.2,0.8-0.2c0.2-4.1-3.9-7.4-7.4-8.4
	c-0.2,0-0.3,0.1-0.3,0.3C132.8,44,132.9,44.1,133,44.2L133,44.2z"/>
<path class="st7" d="M139.6,48.6c3.7-4.8,9.2-8.1,15.2-9c0.6-0.1,0.4-1.1-0.3-1c-6.2,1-11.8,4.3-15.6,9.2
	C138.5,48.3,139.2,49,139.6,48.6L139.6,48.6z"/>
<path class="st7" d="M156.5,116.6c3.4,2.2,7.3,2.2,11.1,1.2c0.3-0.1,0.4-0.4,0.4-0.6c-0.1-0.3-0.4-0.4-0.6-0.4c-3.5,1-7.2,1-10.3-1
	C156.4,115.4,156,116.3,156.5,116.6L156.5,116.6z"/>
<path class="st7" d="M139.4,108.5c1.3,1.7,3.1,3.4,4.2,5.2c1.8,3.1-0.4,5.1-2.6,7.7c-3.3,3.9-7.3,7.2-11.8,9.7
	c-0.2,0.1-0.3,0.4-0.2,0.7c0.1,0.2,0.4,0.3,0.6,0.2c0.6-0.1,3-1.1,3.5-0.9c1.2,0.6-0.1-0.8,0.4,0.6c0.2,0.7-0.1,2.4,0.1,3.2
	c0.1,0.2,0.3,0.4,0.5,0.3c0.1,0,0.1-0.1,0.2-0.1c1-1,2.1-2.8,3.6-2.8s1.8,1.4,2.7,2.6c0.1,0.2,0.4,0.3,0.6,0.1
	c0.1-0.1,0.1-0.1,0.2-0.2c1.6-4.2,5.1-5.8,7.6-9s5.4-6.4,7.9-9.7c3.6-4.8-2.2-6.1-4-10c-0.3-0.7-1.3-0.1-1,0.6
	c1.6,3.5,6.4,4.7,3.1,9.9c-1.6,2.5-4.1,5-5.9,7.4s-4.5,4.1-6.4,6.5c-2.1,2.8-1.6,3.8-4.2,0.2c-0.1-0.2-0.4-0.3-0.6-0.2
	c0,0-0.1,0-0.1,0.1c-0.7,0.7-1.4,1.3-2.1,2c-1.1,1.4-1.4,0.7-0.7-2.1c0.1-0.2,0-0.5-0.2-0.6c-0.1-0.1-0.2-0.1-0.3,0
	c-1,0.2-3.1,1.1-3.6,1.1c0.7-0.3,1.3-0.6,1.9-1c1.7-1.2,3.4-2.5,4.9-3.9c3.3-3,6.1-6.4,8.4-10.2c0.1-0.2,0.1-0.5-0.1-0.7
	c-2-2.4-4-4.8-6.2-7.1C139.8,107.6,139.1,108.1,139.4,108.5L139.4,108.5z"/>
<path class="st7" d="M130.4,111.9c-0.4,1.6-0.2,3.3,0.6,4.8c0.2,0.4,0.9,0.1,0.7-0.3c-0.6-1.4-0.8-2.9-0.7-4.4
	c0-0.1-0.1-0.2-0.3-0.2C130.6,111.8,130.5,111.8,130.4,111.9L130.4,111.9z"/>
<path class="st7" d="M130.5,116.7c-2.8,4.1-7,6.9-11.8,7.9c-0.6,0.1-0.4,1,0.1,1c1.1,0,3-0.4,3.8,0.3s-0.2,1.9-0.5,2.7
	c-0.2,0.5,0.5,0.7,0.8,0.5c1.7-1.5,2.3-2.3,3.4,0.1c0.1,0.2,0.4,0.3,0.7,0.2c0,0,0.1,0,0.1-0.1c4.8-3.6,9.2-7.6,13.4-11.9
	c1.8-1.9,2.8-3.8,1.2-6.1c-0.4-0.6-1.3,0-0.9,0.5c2.4,3.5-5.2,8.9-7.1,10.6s-6.1,7-7.8,3.7c-0.1-0.2-0.4-0.3-0.6-0.1
	c0,0-0.1,0-0.1,0.1c-2.3,1.9-1.8,2.1-0.8-0.8c0.1-0.3-0.1-0.5-0.4-0.6c0,0-0.1,0-0.1,0l-5-0.1l0.1,1c5-1.2,9.3-4.2,12-8.6
	C131.2,116.7,130.7,116.4,130.5,116.7L130.5,116.7z"/>
<path class="st7" d="M131.2,111.3c2.7-1.4,5.9-1.7,8.8-0.8c0.7,0.2,1.2-0.9,0.5-1.2c-3.3-1.3-6.9-0.7-9.7,1.5
	C130.6,111.1,131,111.5,131.2,111.3z"/>
<path class="st7" d="M140.5,108.3c-0.2-0.3-0.2-0.7,0-1c0.2-0.3,0.4-0.6,0.7-0.8c0.1-0.1,0.2-0.4,0-0.4c-0.6,0-1.2,0.3-1.4,0.9
	c-0.3,0.6-0.2,1.2,0.2,1.7c0.2,0.3,0.7-0.1,0.5-0.4L140.5,108.3z"/>
<path class="st7" d="M153.2,106.7c0.3-0.4,0.4-0.8,0.5-1.3c0-0.4,0-0.9-0.2-1.3c-0.3-0.7-0.9-1.7-1.7-1.7c-0.2,0-0.3,0.1-0.3,0.3
	c0,0,0,0.1,0,0.1c0.3,0.6,0.9,1,1.2,1.7c0.2,0.6,0.3,1.3,0.1,2c0,0.1,0,0.2,0.1,0.2C153.1,106.8,153.2,106.8,153.2,106.7
	L153.2,106.7z"/>
<path class="st7" d="M151.2,97.8c0.9,0.4,1.8,1,2.4,1.8c0.5,0.9,1,1.8,1.4,2.7c0.1,0.2,0.4,0.3,0.6,0.1c0.1-0.1,0.2-0.2,0.2-0.4
	c0.3-2.3-2.4-4.5-4.4-5C151,96.9,150.7,97.6,151.2,97.8L151.2,97.8z"/>
<path class="st7" d="M148.3,79.4c-0.6,0.7-1.1,1.5-1.5,2.3c-0.1,0.2-0.1,0.5,0.2,0.7c0.8,0.8,1.8,1.4,2.8,1.9
	c0.2,0.1,0.4-0.1,0.5-0.3c0-0.1,0-0.2,0-0.3c-0.8-0.9-1.8-1.6-2.8-2.2l0.2,0.7c0.5-0.8,0.9-1.6,1.2-2.5c0-0.2-0.1-0.4-0.3-0.4
	C148.5,79.3,148.4,79.4,148.3,79.4z"/>
<path class="st7" d="M131.3,56c0.2,0.8,0.4,1.5,0.7,2.3c0.1,0.2,0.3,0.4,0.6,0.3c0,0,0,0,0.1,0c0.5-0.3,1-0.5,1.4-0.8l-0.6-0.2
	c0.3,0.4,0.6,0.9,1,1.3s1-0.1,0.7-0.5c-0.3-0.4-0.6-0.8-0.9-1.2c-0.1-0.2-0.4-0.3-0.6-0.2c-0.5,0.3-1,0.5-1.4,0.8l0.7,0.3
	c-0.3-0.8-0.6-1.5-0.9-2.2C131.8,55.5,131.2,55.6,131.3,56L131.3,56z"/>
<path class="st7" d="M129,51.5c0.2,0.8,0,1.6-0.5,2.2c-0.6,0.6-1.5,0.7-2.2,0.3l-0.4,1c0.2,0,0.4,0,0.6-0.1c0.2-0.1,0.3-0.3,0.2-0.5
	c0-0.1,0-0.1-0.1-0.1c-0.1-0.2-0.3-0.3-0.4-0.4c-0.7-0.5-1.3,0.9-0.5,1.1c1.1,0.4,2.3,0.1,3.2-0.6c0.8-0.8,1.1-2,0.7-3
	C129.4,51,128.9,51.1,129,51.5L129,51.5z"/>
<path class="st7" d="M132.1,52.2c-0.5,0.5-0.5,1.3,0,1.8c0,0,0,0,0,0c0.4,0.4,1.1,0.5,1.6,0.1c0,0,0,0,0.1-0.1
	c0.2-0.2-0.1-0.5-0.3-0.5s-0.5,0-0.7-0.2c-0.1-0.2-0.1-0.5,0.1-0.7C133.1,52.3,132.5,51.8,132.1,52.2L132.1,52.2z"/>
<path class="st7" d="M127.7,56.5c0.8-0.3,1.7,0,2.1,0.8c0.4,0.7-0.1,1.4,0.1,2.1c0,0.1,0.2,0.2,0.3,0.2c1.2-0.3,0.8-2.1,0.3-2.8
	c-0.7-1-1.9-1.4-3.1-1C127,55.9,127.2,56.7,127.7,56.5L127.7,56.5z"/>
<path class="st7" d="M133.7,56.5c-0.8,0.2-1.6,0.6-2.2,1.2c-0.1,0.1-0.2,0.3-0.1,0.5c0.3,1.5,1.6,3.8,3.4,3.7c0.2,0,0.4-0.2,0.2-0.5
	c-0.4-0.6-1-0.9-1.4-1.5c-0.5-0.6-0.9-1.3-1.2-2.1l-0.1,0.5c0.5-0.5,1.1-0.8,1.8-1c0.3-0.1,0.4-0.4,0.4-0.6S134,56.4,133.7,56.5
	L133.7,56.5z"/>
<path class="st7" d="M84.4,83.2c0.6,4.5,4,10.2,9.3,7.8c0.2-0.1,0.3-0.4,0.2-0.7c0,0,0-0.1-0.1-0.1c-1.4-1.4-2.3-3.2-2.7-5.2
	c-0.3-1.9,0.2-3.5,0.3-5.3c0-0.2-0.2-0.4-0.4-0.4c-0.1,0-0.2,0.1-0.3,0.2c-2.3,3.4-0.1,8.8,2.4,11.4l0.1-0.8
	c-4.9,2.4-7.4-3.4-8.4-7.1C84.8,82.7,84.3,82.9,84.4,83.2L84.4,83.2z"/>
<path class="st7" d="M91.9,109.9c-0.3-1.4-0.6-2.8-0.7-4.2c0-0.6-0.2-1.7,0.4-2.2c0.3-0.3,1.8-0.2,2.2-0.3l-0.7-0.5
	c0.3,3.5,2.4,7.6,5.9,8.8c0.5,0.2,0.7-0.6,0.3-0.8c-1.4-0.9-2.6-2-3.6-3.3c-0.9-1.4-1.4-3-1.6-4.6c0-0.2-0.2-0.6-0.5-0.5l-2.8,0.4
	c-0.2,0-0.4,0.2-0.5,0.4c-0.4,2.3-0.4,5.2,1.1,7.1c0.1,0.1,0.3,0.1,0.4,0C91.9,110.1,91.9,110,91.9,109.9z"/>
<path class="st7" d="M89.1,89.6c0.3,0.4,0.6,0.8,0.8,1.2s0.4,0.7,0.8,0.8c0.2,0,0.3-0.1,0.4-0.2c0,0,0,0,0-0.1c0-0.4-0.3-0.7-0.6-1
	s-0.6-0.7-1-1.1S88.9,89.3,89.1,89.6L89.1,89.6z"/>
<path class="st7" d="M91.7,103.5v-0.2c0-0.2-0.3-0.2-0.2,0v0.2C91.5,103.6,91.7,103.6,91.7,103.5L91.7,103.5z"/>
<path class="st7" d="M91.8,102.7c0.1,0.6,0.2,1.2,0.3,1.7c0.1,0.6,0.2,1.1,0.4,1.7c0.1,0.2,0.4,0.1,0.4-0.1c0-0.5-0.1-1.1-0.2-1.6
	c-0.1-0.6-0.3-1.2-0.4-1.8C92.2,102.4,91.8,102.4,91.8,102.7z"/>
<path class="st7" d="M90.9,90.5c-0.6-0.4-1.1-1-1.5-1.6c-0.2-0.6-0.5-1.2-0.6-1.9c0-0.1-0.1-0.1-0.1-0.1c-0.1,0-0.1,0.1-0.1,0.1
	c-0.4,1.5,1,3.1,2.2,3.8C91,90.9,91.1,90.7,90.9,90.5L90.9,90.5z"/>
<path class="st7" d="M71.6,90.7c1.4,8.7,3,17,2.9,25.8c0,0.2,0.1,0.3,0.3,0.3s0.3-0.1,0.3-0.3c0.1-8.6-0.4-17.8-3.2-25.9
	c0-0.1-0.2-0.1-0.2-0.1C71.6,90.6,71.6,90.6,71.6,90.7z"/>
<path class="st7" d="M74.7,116.8c2.8-4.7,6.1-9,9.9-12.9c0.1-0.1,0.1-0.3,0-0.4s-0.3-0.1-0.4,0c-4,3.7-7.4,8.2-9.8,13.1
	C74.2,116.8,74.5,117,74.7,116.8z"/>
<path class="st7" d="M84.4,104.4c-4-4.7-8.2-9-12.1-13.8c-0.4-0.5-1,0.2-0.7,0.7c3.7,4.9,7.9,9.3,12.5,13.4c0.1,0.1,0.2,0.1,0.3,0
	S84.5,104.4,84.4,104.4C84.4,104.4,84.4,104.4,84.4,104.4z"/>
<path class="st7" d="M71.8,90.7c4.7,2.2,9.9,4.1,14.8,5.8c0.3,0.1,0.5-0.4,0.2-0.5c-4.7-2.6-9.7-4.5-14.9-5.6
	C71.7,90.4,71.6,90.6,71.8,90.7z"/>
<path class="st7" d="M85.7,96c-1.4,2.5-1.9,5.4-1.7,8.2c0,0.2,0.4,0.2,0.4,0c0-2.7,0.6-5.5,1.6-8C86.1,96,85.8,95.8,85.7,96L85.7,96
	z"/>
<path class="st7" d="M77.2,97.2c-0.8,1.1-0.7,2.6,0.4,3.5c0.8,0.7,2.6,0.9,3.3-0.1c0-0.1,0-0.2-0.1-0.2c0,0-0.1,0-0.1,0
	c-1,0.3-1.8,0.7-2.8,0c-0.8-0.7-1.1-2-0.5-2.9C77.5,97.2,77.3,97.1,77.2,97.2L77.2,97.2z"/>
<path class="st7" d="M78.2,104c-1.1,0.1-1.9,1.2-1.8,2.3c0,0.1,0,0.1,0,0.2c0.4,1.1,1.6,1.7,2.7,1.3c0.1,0,0.2-0.1,0.3-0.1
	c1.1-0.6,1.5-2,0.8-3.1c0-0.1-0.1-0.1-0.1-0.2c-0.7-1-2.1-1.2-3.1-0.4c-0.1,0.1-0.2,0.2-0.3,0.3c-0.1,0.2,0,0.5,0.2,0.3
	c0.7-0.5,1.7-0.5,2.4,0c0.6,0.6,0.6,1.7,0,2.3c0,0-0.1,0.1-0.1,0.1c-0.7,0.5-1.7,0.2-2.2-0.5c0,0-0.1-0.1-0.1-0.1
	c-0.3-0.8,0.2-1.7,1-1.9c0.1,0,0.2,0,0.3-0.1C78.5,104.4,78.5,104,78.2,104L78.2,104z"/>
<path class="st7" d="M73.9,101c1-0.1,1.8,0.5,2,1.5c0,0.1,0,0.3,0,0.4c-0.1,0.5-0.5,1-1,1.2c-0.4,0.1-0.8,0.2-1.2,0.2
	c-0.2,0-0.2,0.3,0,0.4c1.1,0.8,2.8-0.7,2.8-1.8c0-1.2-0.9-2.2-2.1-2.3c-0.2,0-0.3,0-0.5,0C73.6,100.6,73.7,101,73.9,101L73.9,101z"
	/>
<path class="st7" d="M77.6,97.4"/>
<path class="st7" d="M76.9,92.5c-0.4,1.3,0.4,2.6,1.7,3c0.1,0,0.1,0,0.2,0.1c1.4,0.2,2.6-0.7,2.9-2c0-0.1-0.1-0.2-0.2-0.2
	c-0.1,0-0.1,0-0.2,0.1c-0.5,1-1.3,1.9-2.5,1.7c-1.1-0.3-1.8-1.4-1.7-2.5C77,92.6,77,92.5,76.9,92.5C76.9,92.6,76.9,92.6,76.9,92.5
	L76.9,92.5z"/>
<path class="st7" d="M84.8,98c-0.2-1.3-2.2-1.1-2.5,0c-0.2,0.7,0,1.5,0.5,2c0.6,0.6,1.4,0.9,2.3,0.8c0.2,0,0.3-0.2,0.3-0.4
	c0-0.1-0.1-0.2-0.3-0.3c-1,0-2.2-0.4-2.2-1.6c0-0.5,0.3-0.9,0.8-0.9c0.4,0,0.7,0.2,0.8,0.5C84.6,98.4,84.9,98.2,84.8,98L84.8,98z"/>
<path class="st7" d="M67.2,85.6c-0.8-0.2-1.7-0.2-2.6,0.1c-0.6,0.3-1,0.9-1.1,1.6c0,0.6,0.4,1.2,1,1.4c0.8,0.3,1.7,0.2,2.5-0.2
	c0.4-0.2,0.2-0.8-0.2-0.6c-0.5,0.2-0.9,0.3-1.4,0.3c-0.5,0-1.1-0.3-1.1-0.8c0-1.2,1.8-1,2.6-0.9C67.5,86.4,67.8,85.6,67.2,85.6z"/>
<path class="st7" d="M66.6,96.9c-1.3,0.2-3,0.6-3.4,2c-0.3,1,0.5,2.4,1.7,2c0.2-0.1,0.2-0.4,0-0.4c-1.2-0.2-1.3-1.4-0.6-2.2
	c0.7-0.5,1.6-0.9,2.4-0.9C67.1,97.3,66.9,96.8,66.6,96.9L66.6,96.9z"/>
<path class="st7" d="M65.8,104.6c-1.2-0.3-2.4,0.4-2.7,1.6c-0.1,0.5-0.1,1,0.1,1.4c0.6,1.5,3.1,1.9,3.8,0.2c0.1-0.2-0.2-0.3-0.3-0.2
	c-0.9,0.7-2.3,1-2.9-0.3c-0.4-0.8,0-1.8,0.8-2.1c0.3-0.1,0.7-0.2,1-0.1C66,105.1,66.1,104.6,65.8,104.6L65.8,104.6z"/>
<path class="st7" d="M67.6,110.9c-0.8,0.4-1.2,1.3-0.9,2.2c0.3,0.7,1.2,1.4,1.9,1c0.2-0.1,0.1-0.3,0-0.4c-0.5-0.2-1-0.3-1.3-0.8
	c-0.2-0.6,0.1-1.2,0.6-1.5C68.3,111.2,68,110.7,67.6,110.9L67.6,110.9z"/>
<path class="st7" d="M73,119.7c-0.5,0.6-0.4,1.4,0.1,1.9c0.2,0.1,0.4,0.2,0.6,0.3c1.2,0.3,2.4-0.7,2.9-1.7c0.2-0.4-0.3-0.8-0.6-0.4
	c-0.4,0.5-0.7,1.1-1.3,1.4c-0.3,0.2-0.7,0.2-1,0c-0.3-0.2-0.4-0.6-0.3-0.9c0,0,0-0.1,0.1-0.1C73.8,119.8,73.3,119.3,73,119.7
	L73,119.7z"/>
<path class="st7" d="M97.2,94.5c0.4,0,0.8,0.2,1,0.6c0.2,0.3,0,0.7,0.2,1c0.1,0.1,0.2,0.1,0.3,0.1c0,0,0,0,0,0c0.4-0.3,0.2-1,0-1.4
	c-0.3-0.5-0.9-0.8-1.4-0.8c-0.2,0-0.3,0.2-0.2,0.3C97.1,94.4,97.2,94.5,97.2,94.5L97.2,94.5z"/>
<path class="st7" d="M101.9,91c0.6,0.1,1.1,0.5,1.3,1c0.1,0.2,0.3,0.2,0.4,0.2s0.2-0.3,0.2-0.4c-0.3-0.8-1-1.3-1.8-1.4
	C101.6,90.3,101.5,90.9,101.9,91L101.9,91z"/>
<path class="st7" d="M93,52.1c-1.4,3-2.6,6.2-3.8,9.3c-0.1,0.4,0.3,0.6,0.6,0.5c4-2,8.4-3.8,12.2-6.2c0.3-0.2,0.1-0.7-0.2-0.5
	c-4.2,1.5-8.3,4-12.3,6l0.6,0.5c1.2-3.1,2.5-6.2,3.5-9.3C93.5,52,93.1,51.8,93,52.1L93,52.1z"/>
<path class="st7" d="M89.3,61.8c2,0.6,4.2,0.9,6.3,1c0.8,0.1,0.8-1.1,0-1.2c-2-0.3-4.1-0.5-6.2-0.3c-0.2,0-0.3,0.1-0.3,0.3
	C89.1,61.6,89.2,61.7,89.3,61.8z"/>
<path class="st7" d="M90.8,61.3c3.4-0.4,6.7-1.1,9.8-2.3c0.3-0.1,0.3-0.7-0.1-0.7c-3.4,0.5-6.6,1.3-9.8,2.6
	C90.6,61,90.6,61.3,90.8,61.3L90.8,61.3z"/>
<path class="st7" d="M89.1,69.8c8.8-5.5,17.9-10.6,27.3-15.3c0.3-0.2,0.1-0.7-0.2-0.6c-9.8,3.9-19,9.1-27.3,15.5
	C88.7,69.7,88.9,70,89.1,69.8z"/>
<path class="st7" d="M90.5,71.2c12.6-5.1,25.7-8,39.1-10.2c0.4-0.1,0.3-0.7-0.1-0.6c-13.6,1-26.8,4.9-39.2,10.3
	C90.1,70.8,90.2,71.3,90.5,71.2z"/>
<path class="st7" d="M95.2,73c16.4-2.6,32.8-2.9,49.4-2.3c0.3,0,0.3-0.5,0-0.5c-16.5-2-33.3-0.7-49.5,2.3C94.7,72.5,94.8,73,95.2,73
	z"/>
<path class="st7" d="M111.6,11c-5,5.4-9.9,11.5-12.9,18.2c0,0.1,0,0.2,0.1,0.2c0.1,0,0.2,0,0.2-0.1c4-6.4,7.8-12.5,12.9-18.1
	C112.1,11.1,111.8,10.8,111.6,11z"/>
<path class="st7" d="M114.5,11.6c-5.1,6.2-9.9,12.7-14.3,19.4c-0.2,0.3,0.3,0.6,0.5,0.3c4.4-6.6,9.1-13.1,14-19.4
	C114.9,11.7,114.6,11.4,114.5,11.6L114.5,11.6z"/>
<path class="st7" d="M119.6,13.2c-5.9,6.3-11.4,13-16.6,19.9c-0.1,0.2,0.2,0.4,0.3,0.3c5.6-6.6,10.8-13.4,16.6-19.8
	C120.1,13.3,119.8,13,119.6,13.2L119.6,13.2z"/>
<path class="st7" d="M123.6,15.3c-5.3,5.3-10.3,11.1-14.8,17.2c-0.2,0.2,0.2,0.5,0.4,0.3c4.8-5.9,9.4-11.7,14.7-17.2
	C124,15.4,123.8,15.1,123.6,15.3z"/>
<path class="st7" d="M128.9,16.8c-4.6,6-9.9,11.9-13.8,18.4c0,0.1,0,0.2,0,0.2c0.1,0,0.1,0,0.2,0c5.2-5.5,9.5-12.2,14-18.2
	C129.4,16.8,129.1,16.6,128.9,16.8z"/>
<path class="st7" d="M130.4,21.6c-4,5-8.6,9.8-11.9,15.2c-0.1,0.1,0,0.2,0.1,0.3c0.1,0,0.2,0,0.2,0c4.5-4.5,8.2-10,12.1-15.1
	C131.2,21.7,130.7,21.3,130.4,21.6z"/>
<path class="st7" d="M131.4,27.2c-3,3.6-6,7.2-8.7,11c-0.1,0.2,0.2,0.5,0.3,0.3c3.1-3.5,5.9-7.3,8.7-11
	C131.8,27.3,131.5,27.1,131.4,27.2L131.4,27.2z"/>
<path class="st7" d="M130.8,35.6c-2.7,2.3-4.9,5-6.8,8c-0.1,0.2,0.2,0.5,0.3,0.3c2.3-2.6,4.4-5.4,6.7-8c0.1-0.1,0-0.2-0.1-0.3
	C131,35.5,130.9,35.5,130.8,35.6L130.8,35.6z"/>
<path class="st7" d="M129.1,40.7L129.1,40.7L129.1,40.7z"/>
<path class="st7" d="M126.1,122.3c-0.1,0.3-0.3,0.6-0.4,0.9c-0.2,0.4-0.3,0.9-0.5,1.3c-0.4,0.9-0.7,1.8-1,2.8c0,0.1,0,0.2,0.1,0.2
	s0.2,0,0.2-0.1c0.9-1.7,1.6-3.4,2.2-5.2c0-0.1,0-0.2-0.1-0.3c-0.2-0.1-0.4-0.1-0.6,0.1c0,0,0,0.1-0.1,0.1
	C125.8,122.2,126,122.4,126.1,122.3L126.1,122.3z"/>
<path class="st7" d="M128.8,119.6c-1,2.7-2.4,5.5-2.9,8.3c0,0.1,0.1,0.2,0.2,0.1c1.4-2.5,2.2-5.6,3.1-8.3
	C129.3,119.4,128.9,119.3,128.8,119.6L128.8,119.6z"/>
<path class="st7" d="M136.4,110.7c-2.1,5.1-4.5,10.2-6.1,15.5c0,0.1,0,0.1,0.1,0.2c0.1,0,0.1,0,0.2-0.1c2.4-4.9,4.2-10.3,6.2-15.5
	C136.8,110.6,136.5,110.5,136.4,110.7z"/>
<path class="st7" d="M139.1,110.3c-1.3,3.1-2.4,6.3-3.5,9.5c-0.1,0.2,0.2,0.2,0.2,0.1c1.3-3.1,2.5-6.3,3.5-9.5
	C139.5,110.2,139.2,110.2,139.1,110.3z"/>
<path class="st7" d="M133.6,111.1c-1.8,4.1-3.6,8.2-5.2,12.4c-0.1,0.1,0.2,0.2,0.2,0.1c1.9-4,3.6-8.2,5.2-12.3c0-0.1,0-0.2-0.1-0.2
	C133.7,111,133.6,111.1,133.6,111.1C133.6,111.1,133.6,111.1,133.6,111.1z"/>
<path class="st7" d="M147.3,46.5L147.3,46.5L147.3,46.5z"/>
<path class="st7" d="M147,47.2c3.7-2.1,8.1-2.7,12.2-1.5c0.1,0,0.3-0.1,0.3-0.2c0-0.1,0-0.2-0.1-0.3c-4.2-1.5-8.9-1-12.6,1.5
	C146.4,47,146.7,47.5,147,47.2z"/>
<path class="st7" d="M136.6,90.6c-0.3,1.8-0.2,3.7-0.7,5.5c-0.6,1.7-1.3,3.4-2.1,5.1c-0.1,0.3,0.3,0.4,0.4,0.3
	c2.5-2.3,4.1-7.6,3-10.8C137.1,90.3,136.6,90.2,136.6,90.6L136.6,90.6z"/>
<path class="st7" d="M133.3,104v-0.1c0-0.4-0.3-0.7-0.8-0.7c-0.2,0-0.3,0.1-0.5,0.2l-0.1,0.1c-0.3,0.3-0.3,0.8,0,1.1s0.8,0.3,1.1,0
	C133.2,104.4,133.3,104.2,133.3,104L133.3,104z"/>
<path class="st7" d="M130.8,106h-0.1c-0.3,0.1-0.5,0.5-0.4,0.8c0.1,0.2,0.2,0.3,0.4,0.4h0.1C131.8,107.6,131.8,105.5,130.8,106
	L130.8,106z"/>
<path class="st7" d="M125.9,109.6L125.9,109.6c0.2,0,0.4,0,0.5-0.1h0.1c0.1-0.1,0.2-0.3,0.1-0.5v-0.1c-0.1-0.2-0.4-0.5-0.7-0.3
	c-0.1,0.1-0.2,0.2-0.3,0.3C125.6,109.1,125.7,109.4,125.9,109.6C125.9,109.6,125.9,109.6,125.9,109.6L125.9,109.6z"/>
<path class="st7" d="M133.6,47.9c0.6,0.8,1.2,1.5,1.9,2.2c0.6,0.8,0.9,1.8,1.4,2.7c0.1,0.2,0.4,0.1,0.4-0.1c-0.2-1.1-0.6-2.1-1.4-3
	c-0.5-0.9-1.3-1.6-2.2-1.9C133.6,47.8,133.5,47.8,133.6,47.9C133.5,47.8,133.5,47.8,133.6,47.9L133.6,47.9z"/>
<path class="st7" d="M143.6,57.9c1.4,2.4,2.3,5.2,2.5,8c0.2,2.5-0.2,5-0.2,7.5c0,0.1,0.1,0.2,0.2,0.2c0.1,0,0.2-0.1,0.2-0.2
	c1-4.9,1.2-11.7-2.4-15.7C143.7,57.6,143.5,57.7,143.6,57.9L143.6,57.9z"/>
<path class="st7" d="M146.1,76c0.1-0.3-0.1-0.7-0.5-0.8c-0.3-0.1-0.6,0-0.7,0.3C144.5,76.3,145.9,76.9,146.1,76z"/>
<path class="st7" d="M144.3,80.5c0-0.3,0-0.4-0.1-0.2c-0.4,0.6,0.5,1.1,0.9,0.5c0.2-0.3,0.1-0.7-0.2-0.9c-0.1-0.1-0.2-0.1-0.3-0.1
	c-0.2,0-0.4,0.2-0.4,0.4C144.2,80.3,144.2,80.4,144.3,80.5L144.3,80.5z"/>
<path class="st7" d="M143.1,83.5c-0.1,0.3,0.1,0.5,0.4,0.6c0.2,0.1,0.4,0,0.6-0.2C144.4,83.3,143.3,82.8,143.1,83.5z"/>
<path class="st7" d="M74.9,82c0.2,0,0.3-0.2,0.3-0.4c0-0.2-0.2-0.3-0.3-0.3c-0.2,0-0.3,0.2-0.3,0.4C74.6,81.8,74.7,82,74.9,82z"/>
<path class="st7" d="M82.6,74.7c0.2,0,0.3-0.2,0.3-0.4c0-0.1-0.1-0.2-0.3-0.3c-0.2,0-0.3,0.2-0.3,0.4C82.3,74.6,82.4,74.7,82.6,74.7
	z"/>
<path class="st7" d="M84.9,71.9c-0.2-0.3-0.4-0.3-0.6,0C83.9,72.5,85.3,72.5,84.9,71.9z"/>
<path class="st7" d="M85.9,69.3c0.1,0,0.2-0.1,0.2-0.2c0-0.1-0.1-0.2-0.2-0.2c-0.1,0-0.2,0.1-0.2,0.2C85.7,69.3,85.8,69.3,85.9,69.3
	z"/>
<path class="st7" d="M89,47.8c-0.1,0-0.1,0-0.2,0c-0.2,0-0.3,0.1-0.3,0.3c0,0.1,0,0.1,0,0.2c0,0.3,0.2,0.5,0.5,0.5s0.5-0.2,0.5-0.5
	S89.3,47.8,89,47.8L89,47.8z"/>
<path class="st7" d="M79,33.9l-0.1-0.1c-0.2-0.2-0.4-0.2-0.6-0.1c-0.1,0-0.1,0.1-0.2,0.2c-0.1,0.2-0.1,0.4,0.1,0.6l0.1,0.1
	C78.7,35.1,79.5,34.3,79,33.9z"/>
</svg>
