<svg id="carracters" xmlns="http://www.w3.org/2000/svg" viewBox="0 0 198.43 35.43"><defs><style>.cls-1,.cls-2{fill:#fff;}.cls-1{opacity:0.74;}.cls-3,.cls-4{fill:#6e6e6e;}.cls-3{opacity:0.5;}</style></defs><rect class="cls-1" x="126.87" y="3.38" width="27.33" height="28.98" rx="5.08"/><rect class="cls-1" x="163.33" y="3.38" width="27.33" height="28.98" rx="5.08"/><path d="M136.05,8.53c.37.14.73.28,1.09.4l2.13.75.22.07-.4-.74c.08-.09.14-.12.21,0s.28.52.42.78c.06.11,0,.17-.07.22-.26.14-.53.28-.78.43s-.16,0-.19-.1l.77-.42-3.52-1.24C135.94,8.61,135.89,8.49,136.05,8.53Z"/><path d="M172.49,22.68l-1.28-.62a13.47,13.47,0,0,0,.84-3.95c.14-1.3.18-2.61.27-3.92a.54.54,0,0,1,0-.11l2,.24c-.08.26-.29.31-.5.36a32.55,32.55,0,0,1-.77,5.88l.16-.09A13.56,13.56,0,0,1,180,18.16a6.36,6.36,0,0,1,3,.46,3.81,3.81,0,0,1,2.41,3.54,4.74,4.74,0,0,1-.56,2.71,4.92,4.92,0,0,1-2.29,2,13.94,13.94,0,0,1-3.58,1,38.47,38.47,0,0,1-4.28.4,1.47,1.47,0,0,1-.21,0L174,26.91l1.35-.08a24.81,24.81,0,0,0,5.06-.73,6.68,6.68,0,0,0,2.23-1,3.22,3.22,0,0,0,.92-4,2.92,2.92,0,0,0-2-1.44,6.9,6.9,0,0,0-2.64-.07,11.79,11.79,0,0,0-5.46,2.2C173.15,22,172.84,22.36,172.49,22.68Z"/><path d="M182.52,12.18l-.51,1.4a34.48,34.48,0,0,0-7.77-1.84c.14-.42.26-.83.4-1.23a.21.21,0,0,1,.19-.08c.83.12,1.66.22,2.49.37A26.61,26.61,0,0,1,182,12Z"/><path class="cls-2" d="M21.33,22.68l-1.28-.62a13.8,13.8,0,0,0,.84-3.95c.14-1.3.18-2.61.27-3.92a.54.54,0,0,1,0-.11l2,.24c-.08.26-.29.31-.5.36a33.47,33.47,0,0,1-.77,5.88l.16-.09a13.56,13.56,0,0,1,6.79-2.31,6.38,6.38,0,0,1,3,.46,3.81,3.81,0,0,1,2.41,3.54,4.74,4.74,0,0,1-.56,2.71,4.89,4.89,0,0,1-2.3,2,13.83,13.83,0,0,1-3.58,1,38.07,38.07,0,0,1-4.27.4,1.47,1.47,0,0,1-.21,0l-.49-1.33,1.34-.08a24.8,24.8,0,0,0,5.07-.73,6.68,6.68,0,0,0,2.23-1,3.23,3.23,0,0,0,.92-4,2.92,2.92,0,0,0-2-1.44,7,7,0,0,0-2.65-.07,11.75,11.75,0,0,0-5.45,2.2C22,22,21.68,22.36,21.33,22.68Z"/><path class="cls-2" d="M31.36,12.18l-.51,1.4a34.48,34.48,0,0,0-7.77-1.84c.14-.42.26-.83.4-1.23a.21.21,0,0,1,.18-.08c.84.12,1.67.22,2.5.37A26.5,26.5,0,0,1,30.8,12Z"/><path class="cls-3" d="M135.63,22.68l-1.28-.62a13.47,13.47,0,0,0,.84-3.95c.14-1.3.18-2.61.27-3.92a.54.54,0,0,1,0-.11l2,.24c-.08.26-.29.31-.5.36a33.47,33.47,0,0,1-.77,5.88l.16-.09a13.56,13.56,0,0,1,6.79-2.31,6.36,6.36,0,0,1,3,.46,3.81,3.81,0,0,1,2.41,3.54,4.74,4.74,0,0,1-.56,2.71,4.89,4.89,0,0,1-2.3,2,13.75,13.75,0,0,1-3.57,1,38.47,38.47,0,0,1-4.28.4,1.47,1.47,0,0,1-.21,0l-.49-1.33,1.34-.08a24.8,24.8,0,0,0,5.07-.73,6.68,6.68,0,0,0,2.23-1,3.23,3.23,0,0,0,.92-4,2.92,2.92,0,0,0-2-1.44,6.9,6.9,0,0,0-2.64-.07,11.75,11.75,0,0,0-5.46,2.2C136.29,22,136,22.36,135.63,22.68Z"/><path class="cls-4" d="M145.66,12.18l-.51,1.4a34.48,34.48,0,0,0-7.77-1.84c.14-.42.26-.83.4-1.23a.21.21,0,0,1,.18-.08c.84.12,1.67.22,2.5.37A26.61,26.61,0,0,1,145.11,12Z"/><path d="M175.27,22.54a4,4,0,0,0-3.52,3c0-.22,0-.37,0-.52s0-.31,0-.47c0-.51-.06-1-.1-1.53,0-.12,0-.18.16-.13l.13,1.78a4.15,4.15,0,0,1,3.33-2.34l-.2-.15-.19-.13.11-.14.69.49-.49.53-.09-.14Z"/><path d="M137.34,11.76c.14-.42.27-.83.4-1.24,0-.15.14-.09.23-.08.71.1,1.42.2,2.13.32a31.15,31.15,0,0,1,4.56,1.08l.81.3c.09,0,.15.06.11.17-.16.42-.31.85-.47,1.29A34,34,0,0,0,137.34,11.76Z"/><path d="M171.43,15.94l.46-.5c.09-.1.14-.08.2,0-.25.25-.49.51-.75.76,0,0-.15,0-.19-.05-.25-.21-.5-.44-.74-.66.1-.14.15-.2.25-.09s.33.33.53.53c0-.42.05-.8.07-1.19.05-.78.09-1.57.14-2.35,0-.11,0-.19.18-.13l-.21,3.62Z"/></svg>