<svg id="illustration" xmlns="http://www.w3.org/2000/svg" viewBox="0 0 198.43 143.56"><defs><style>.cls-1{fill:#e6e515;}.cls-2{fill:#5a3e16;}.cls-3{fill:#68441a;}.cls-4{fill:#ee2d24;}.cls-5{fill:#333996;}.cls-6{fill:#88d4e7;}.cls-7{fill:#fffdee;}.cls-8{fill:#ef3e23;}.cls-9{fill:#2c318e;}.cls-10{fill:#05afe5;}.cls-11{fill:#ee2c27;}.cls-12{fill:#fff;}.cls-13{fill:#010101;}</style></defs><path class="cls-1" d="M74.13,27.78l2.16-1.62a2.78,2.78,0,0,0,1.15-1.5,2.53,2.53,0,0,0-.26-1.92c-.66-1-2.3-1.74-3.42-.9L71.6,23.46A2.78,2.78,0,0,0,70.45,25a2.53,2.53,0,0,0,.26,1.92c.66,1,2.3,1.74,3.42.9Z"/><path class="cls-1" d="M77.89,25.52l9.45-1.62c3.17-.54,1.83-5.36-1.33-4.82L76.56,20.7c-3.17.54-1.83,5.36,1.33,4.82Z"/><path class="cls-1" d="M80.14,21.47l2.17-3.24a2.53,2.53,0,0,0-.9-3.42A2.56,2.56,0,0,0,78,15.7L75.83,19a2.52,2.52,0,0,0,.89,3.42,2.57,2.57,0,0,0,3.42-.9Z"/><path class="cls-1" d="M83.94,17.58h.81a2.5,2.5,0,1,0,0-5h-.81a2.5,2.5,0,0,0,0,5Z"/><path class="cls-1" d="M79.55,17.41a7.39,7.39,0,0,1,8,1.6c2.27,2.28,5.81-1.26,3.53-3.54a12.34,12.34,0,0,0-12.9-2.88c-3,1.08-1.71,5.92,1.33,4.82Z"/><path class="cls-1" d="M86,21.2a184.81,184.81,0,0,1,7.89,25.37c.73,3.13,5.55,1.81,4.82-1.33a184.81,184.81,0,0,0-7.89-25.37c-1.16-3-6-1.67-4.82,1.33Z"/><path class="cls-1" d="M91,19.11c.88,4.2,2.59,8.24,3.52,12.46s1.16,8.55,2.09,12.75c.06.27.45.19.46-.07.24-4.23-.78-8.8-1.7-12.92s-1.84-8.74-3.88-12.42c-.15-.28-.54-.08-.49.2Z"/><path class="cls-1" d="M92.64,21.08a134.58,134.58,0,0,1,3.85,13.05,61.58,61.58,0,0,1,1.05,7c.2,2.15.06,4.34.47,6.46a.37.37,0,0,0,.71,0c.9-4.17-.1-9.23-.92-13.38a42,42,0,0,0-4.69-13.34.26.26,0,0,0-.47.19Z"/><path class="cls-1" d="M86.9,26a17.26,17.26,0,0,0,1,2.88,10.79,10.79,0,0,0,1.35,2.72c.25.3.64,0,.59-.34a10.23,10.23,0,0,0-1.09-2.63,17.26,17.26,0,0,0-1.56-2.75.16.16,0,0,0-.3.12Z"/><path class="cls-1" d="M88.37,27c1.45,5.7,2.85,12,5.37,17.28.13.28.5.07.46-.19-1-5.79-3.4-11.71-5.45-17.2a.2.2,0,0,0-.38.11Z"/><path class="cls-1" d="M82.32,19.53c1.55,0,3.83-.2,5-1.4a.13.13,0,0,0-.13-.21c-.76.17-1.45.63-2.2.87a13.57,13.57,0,0,1-2.62.56c-.11,0-.12.18,0,.18Z"/><path class="cls-1" d="M84.35,5.14a.78.78,0,0,0-.13,1.22.24.24,0,0,0,.34,0l1.15-1.1a.26.26,0,0,0,0-.36.82.82,0,0,0-1.3.93c.13.23.55.07.45-.19s.26-.61.49-.38V4.9L84.22,6h.34a.35.35,0,0,1,0-.55c.18-.15-.06-.47-.25-.33Z"/><path class="cls-1" d="M85,5.55A13.12,13.12,0,0,0,82,12.64c0,.29.41.33.49.07a35.94,35.94,0,0,1,1-3.64c.45-1.17,1.16-2.23,1.6-3.4,0-.12-.13-.21-.22-.12Z"/><path class="cls-1" d="M82,5c-.46.52-.63,2,.37,2.08a.13.13,0,0,0,.11-.18c-.12-.27-.36-.47-.44-.76a1.14,1.14,0,0,1,.14-1C82.21,5,82.05,4.9,82,5Z"/><path class="cls-1" d="M101,76.21a6.9,6.9,0,0,0-.8.82.3.3,0,0,0,.29.49l1.79-.4-.38-.21a1.92,1.92,0,0,1,0,1.54c-.22.47-.6.67-1,1s0,.48.26.44c1.32-.19,1.73-2.12,1.31-3.15a.31.31,0,0,0-.37-.22l-1.79.43.29.49a8.58,8.58,0,0,0,.69-1,.2.2,0,0,0-.31-.23Z"/><path class="cls-1" d="M102.23,76.58a6,6,0,0,0,4.78.72.35.35,0,0,0-.1-.69c-.73,0-1.44.11-2.18,0a18.78,18.78,0,0,1-2.36-.41.18.18,0,0,0-.14.33Z"/><path class="cls-1" d="M106.27,77.23a12.18,12.18,0,0,0,.39,1.69.33.33,0,0,0,.48.2c.29-.19.63-.34.78-.66a.21.21,0,0,0-.17-.31,1.91,1.91,0,0,0-.94.4l.45.12a11.84,11.84,0,0,0-.8-1.49c0-.07-.2-.06-.19,0Z"/><path class="cls-1" d="M104.09,76.58a2.36,2.36,0,0,0-.7,2.37.4.4,0,0,0,.65.18,9.62,9.62,0,0,0,1.23-1.32.4.4,0,0,0,0-.56c-.46-.57-1.81-.43-1.79.47a.56.56,0,0,0,.82.45.51.51,0,0,0-.08-.91.32.32,0,0,0-.33,0l-.08,0a.27.27,0,0,0,0,.46c.23.12.67-.32.83,0l.07-.48a10.65,10.65,0,0,0-1.29,1.4h.68a2,2,0,0,1,.22-1.9c.09-.14-.11-.27-.23-.17Z"/><path class="cls-1" d="M101.11,77.74a8.79,8.79,0,0,0-.06,1.85.3.3,0,0,0,.37.28,1.25,1.25,0,0,0,.89-1.57.32.32,0,0,0-.46-.19.71.71,0,0,0,0,1.2.29.29,0,0,0,.32,0,4.35,4.35,0,0,0,.87-.54c.21-.17,0-.52-.26-.45a5,5,0,0,0-.93.45h.32a.07.07,0,0,1,0-.12l-.45-.18a.63.63,0,0,1-.45.83l.38.29a8.79,8.79,0,0,0-.27-1.85c0-.12-.24-.14-.26,0Z"/><path class="cls-1" d="M100.71,75.54a1.26,1.26,0,0,0,.47,1.44c.4.32,1.15.54,1.54.08.13-.14.06-.45-.18-.43s-.66.16-1,0a1.08,1.08,0,0,1-.57-1c0-.15-.19-.15-.24,0Z"/><path class="cls-1" d="M106.34,54.8a2.17,2.17,0,0,1,0,.25c0,.12.17.13.14,0a2.17,2.17,0,0,1,0-.25,0,0,0,0,0-.06,0Z"/><path class="cls-1" d="M107.13,54.72a.73.73,0,0,0-.41.8c.1.4.54.42.89.35.62-.12,1.71-1.21.68-1.58a.8.8,0,0,0-.87,1.3c.78.88,1.8,0,1.89-.92a.38.38,0,0,0-.28-.37c-1-.35-2,1-1.23,1.78s2.19-.19,1.94-1.21a.51.51,0,0,0-.35-.35,1,1,0,0,0-.6,2,1.6,1.6,0,0,0,2-2.06.23.23,0,0,0-.31-.08c-.48.33-.65,1.26-1.32,1.11l-.35-.36c.06.19-.15.27-.26.24s.16-.38.32-.33l-.28-.37c0,.38-.14.44-.51.19a.38.38,0,0,1-.19.3.76.76,0,0,1-.38.19c-.36.12-.43,0-.18-.43.11-.1,0-.27-.16-.2Z"/><path class="cls-1" d="M110.15,54a23.21,23.21,0,0,0-3.91,0v1.2a19.2,19.2,0,0,0,5.39-.9.25.25,0,0,0-.06-.45,18,18,0,0,0-5.33.15c-.77.06-.77,1.27,0,1.2a25.38,25.38,0,0,0,4-.7.24.24,0,0,0-.06-.46Z"/><path class="cls-1" d="M107,55.27c.12.12.1.34.22.47a1.77,1.77,0,0,0,.35.26,2.31,2.31,0,0,0,.94.22,2.59,2.59,0,0,0,1.87-.64c.55-.47-.15-1.24-.73-.95a3.79,3.79,0,0,1-1.31.42c-.23,0-.45,0-.68,0a3.65,3.65,0,0,1-.6.11.06.06,0,0,0-.06.1Z"/><path class="cls-2" d="M93.2,22.65c-.18,1.43.72,3.72,2.38,3.89a.15.15,0,0,0,.11-.26,6.88,6.88,0,0,1-1.58-1.42,3.52,3.52,0,0,1-.53-2.21c0-.25-.35-.24-.38,0Z"/><path class="cls-2" d="M94.1,22.59a3.45,3.45,0,0,0,.78,4c.18.13.34-.1.27-.26a8.75,8.75,0,0,1-.83-1.78,8.48,8.48,0,0,1,0-1.95.1.1,0,0,0-.19-.05Z"/><path class="cls-2" d="M93.37,22.75A17,17,0,0,0,95,26.86c.15.28.64.08.53-.23a17.24,17.24,0,0,0-1.87-4,.17.17,0,0,0-.31.13Z"/><path class="cls-2" d="M93.57,21.84a4.63,4.63,0,0,0,.36,1.7,7.62,7.62,0,0,0,.59,1.68c.12.21.53.14.5-.14a7.77,7.77,0,0,0-.57-1.81,4.42,4.42,0,0,0-.71-1.5c-.06-.07-.16,0-.17.07Z"/><path class="cls-1" d="M81.6,19.34c1.45.74,3.58.38,5.09,0a1,1,0,0,0-.52-1.87c-.8.17-1.6.34-2.41.48a8.38,8.38,0,0,0-2.16.5.53.53,0,0,0,0,.91Z"/><path class="cls-1" d="M84,8.2a4.46,4.46,0,0,0-.92,1.89,3.19,3.19,0,0,0-.34,2.08.24.24,0,0,0,.39.11,4.09,4.09,0,0,0,.64-1.85,8.22,8.22,0,0,0,.54-2.1A.18.18,0,0,0,84,8.2Z"/><path class="cls-1" d="M83.65,9.21a3.46,3.46,0,0,0-.18,2.09c.1.68.18,1.63.84,2A.45.45,0,0,0,85,13c.22-.6-.19-1.31-.35-1.91A6.87,6.87,0,0,0,84,9.21a.23.23,0,0,0-.39,0Z"/><path class="cls-1" d="M82,5.87c-.67-.12-.84.84-.63,1.3a1.16,1.16,0,0,0,1.87.17,1.31,1.31,0,0,0-.57-2.06,1.47,1.47,0,0,0-1.94,1.39c0,.68,1,.65,1,0,.1-.84,1.18-.2.65.18a.31.31,0,0,1-.51-.27A1.22,1.22,0,0,1,82.09,6,.14.14,0,0,0,82,5.87Z"/><path class="cls-1" d="M81.69,6.84A17,17,0,0,0,80.85,12a.43.43,0,0,0,.85.12,16.87,16.87,0,0,0,.35-5.29c0-.21-.3-.15-.36,0Z"/><path class="cls-1" d="M90.9,18.21A22.16,22.16,0,0,1,92.54,22c.31.72,1.4.3,1.4-.38a4.58,4.58,0,0,0-.79-2.34,4,4,0,0,0-1.83-1.47c-.26-.13-.61.15-.42.42Z"/><path class="cls-1" d="M92.19,21.34c.13,1.46,1.1,2.73,1.64,4.07.69,1.72.76,3.55,1.36,5.26.2.57,1.15.7,1.29,0,.54-2.77-1.14-8.43-4-9.58a.25.25,0,0,0-.32.25Z"/><path class="cls-1" d="M93.52,24.06c.44,4.7,1.64,9.39,2.5,14a.76.76,0,0,0,1.49-.2c-.41-4.73-1.36-9.75-3.7-13.91a.16.16,0,0,0-.29.08Z"/><path class="cls-1" d="M86.27,24c-.6,1,.26,2.44.72,3.36s1.12,2.73,2.33,2.68a.51.51,0,0,0,.47-.36c.38-1-.93-2.27-1.4-3.14s-.83-2.27-1.84-2.66a.25.25,0,0,0-.28.12Z"/><path class="cls-1" d="M74,22.34a17.18,17.18,0,0,0,2.11-1.5,3.92,3.92,0,0,0,1.44-1.53c.09-.22-.17-.42-.38-.37a4.32,4.32,0,0,0-1.79,1.39,18.33,18.33,0,0,0-1.61,1.79c-.1.13.09.29.23.22Z"/><path class="cls-1" d="M98.33,42.58a13.48,13.48,0,0,0,.16,3.64A8.72,8.72,0,0,0,99,49.56a.51.51,0,0,0,.86,0,6,6,0,0,0,.07-3.28,8.35,8.35,0,0,0-1.15-3.76c-.12-.17-.45-.19-.49.06Z"/><path class="cls-1" d="M94.12,50.85a8.77,8.77,0,0,0,2.69-.28c1-.18,2-.33,3-.6.42-.12.35-.82-.1-.78-1,.11-1.95.32-2.91.5a9.46,9.46,0,0,0-2.79.76.22.22,0,0,0,.11.4Z"/><path class="cls-1" d="M99.73,49.2a8,8,0,0,0-2.28-.52,5.06,5.06,0,0,0-2.29,0,.51.51,0,0,0-.12.91,5.15,5.15,0,0,0,2.25.3,8.75,8.75,0,0,0,2.39-.24c.17-.06.24-.34,0-.43Z"/><path class="cls-1" d="M94.87,49.85a5.21,5.21,0,0,0,.35-2.18,3,3,0,0,0-.42-2.08.43.43,0,0,0-.66.08A3.17,3.17,0,0,0,94,47.82a5.1,5.1,0,0,0,.57,2,.18.18,0,0,0,.3,0Z"/><path class="cls-1" d="M97.73,49.47a13.87,13.87,0,0,0,.37-3.28c0-.91.31-2-.38-2.67a.43.43,0,0,0-.6,0c-.79.63-.56,2-.51,2.88a7.79,7.79,0,0,0,.72,3.12.22.22,0,0,0,.4-.05Z"/><path class="cls-1" d="M99.39,46a5.51,5.51,0,0,0,.31-3.24c-.11-.85-.12-1.94-1-2.29a.32.32,0,0,0-.35.15c-.5.65-.06,1.58.07,2.31a15.23,15.23,0,0,0,.59,3c.07.16.31.24.4.05Z"/><path class="cls-1" d="M76,23.56c2.49-3.1,5.47-4.7,9.13-6,.33-.12.32-.71-.09-.66-3.86.46-7.38,3.24-9.33,6.49-.11.17.15.38.29.22Z"/><path class="cls-1" d="M84.5,12.63a11.83,11.83,0,0,0,2.15.52c.79.25,1.37,1,2.15,1.12a.39.39,0,0,0,.47-.46c-.22-1.59-3.74-2.63-4.8-1.43a.16.16,0,0,0,0,.25Z"/><path class="cls-3" d="M87.69,22.7c0-.45-.5-.67-.89-.61A1,1,0,0,0,86,23a1,1,0,0,0,.71,1.06c.35.11,1,0,1-.49a.23.23,0,0,0-.15-.2c-.28-.1-.72.21-.84-.22-.15-.58.57-.38.85-.32a.13.13,0,0,0,.16-.12Z"/><path class="cls-3" d="M86.7,23.66c.61.16,1.32-.48,1.5-1a.29.29,0,0,0-.49-.28,7.81,7.81,0,0,1-.62.67,2.8,2.8,0,0,0-.46.45.12.12,0,0,0,.07.18Z"/><path class="cls-3" d="M87.19,22.4a.89.89,0,0,0-.87,1,.33.33,0,0,0,.33.32,1.14,1.14,0,0,0,.58-.08.27.27,0,0,0,0-.46,1.28,1.28,0,0,0-.58-.11l.31.24a.39.39,0,0,1,.27-.53c.18-.06.16-.35,0-.34Z"/><path class="cls-3" d="M81.56,24.65c.17-.13.31-.26.53-.17s.22.25.34.4a.31.31,0,0,0,.55-.07c.25-1-1.34-1.39-1.82-.56-.14.23.16.58.4.4Z"/><path class="cls-3" d="M81,24.71a1.79,1.79,0,0,0,1.87.35.56.56,0,0,0-.3-1.08,4.41,4.41,0,0,0-1.54.53.14.14,0,0,0,0,.2Z"/><path class="cls-3" d="M81.78,23.67a.8.8,0,0,0-1.13.24.86.86,0,0,0,.43,1.21.45.45,0,0,0,.6-.16.39.39,0,0,0,0-.39c-.06-.14-.52-.46,0-.44.27,0,.31-.33.12-.46Z"/><path class="cls-3" d="M87.07,22.47a.64.64,0,0,0-.5.21.51.51,0,0,0-.13.51l0,.12a.47.47,0,0,0,.84.11.82.82,0,0,0,.09-.7.35.35,0,0,0-.34-.25Z"/><path class="cls-3" d="M74.51,21.14a.57.57,0,0,0,.85.63c.64-.31.35-1,0-1.33a.45.45,0,0,0-.44-.11c-.48.18-.78.62-.42,1.08a.28.28,0,0,0,.4,0,1.51,1.51,0,0,1,.26-.2l-.44-.12a1.06,1.06,0,0,0,.23.19c.09-.08.09-.15,0-.19a.23.23,0,0,0-.41.05Z"/><path class="cls-3" d="M74.94,21.38a.26.26,0,0,0,0-.52.26.26,0,0,0,0,.52Z"/><path class="cls-3" d="M78.85,13.19c.6.75,1.9.12,2.43-.4a.34.34,0,0,0,0-.48,1.69,1.69,0,0,0-1.55-.47c-.49.13-1.07.56-1.07,1.11a.32.32,0,0,0,.54.22c.24-.2.34-.48.66-.6a.89.89,0,0,1,.94.22v-.48a2,2,0,0,1-1,.54,5.77,5.77,0,0,0-.94.16.11.11,0,0,0-.05.18Z"/><path class="cls-3" d="M79.68,12.93l.11,0c.17-.09,0-.35-.16-.26a.31.31,0,0,0,.06.57.14.14,0,0,0,.15,0c.16-.17.15-.44-.1-.49a.1.1,0,0,0-.06.19Z"/><path class="cls-3" d="M79.25,13.59a5.28,5.28,0,0,1,.76-.36,1.7,1.7,0,0,0,.83-.4.91.91,0,0,0-.12-1.41c-.39-.27-.94.27-.66.66.08.11,0,.06,0,0s-.19.11-.28.14a5.65,5.65,0,0,0-.57.23.76.76,0,0,0-.42.87.34.34,0,0,0,.42.24Z"/><path class="cls-3" d="M83.72,9.83a4.1,4.1,0,0,0,.92-2.13,8.33,8.33,0,0,0,.11-1.12c0-.24,0-.5,0-.74,0-.4,0,0-.39.12a.42.42,0,0,0,.22.82c.69-.2,1.49-.54,1.55-1.36a.93.93,0,0,0-1.07-1.06,1.4,1.4,0,0,0-1,1.43c0,.64,0,1.26-.07,1.9S83.6,9,83.5,9.7c0,.12.12.24.22.13Z"/><path class="cls-3" d="M85,5.05c-.77-.29-1.15.9-.42,1.23A.87.87,0,0,0,85.7,5a1.15,1.15,0,0,0-2,.24A1,1,0,0,0,84,6.44c.3.2.72.23.88-.14a.26.26,0,0,0,0-.29c-.11-.14-.3-.27-.19-.43s.15-.06.24-.08h.23a.24.24,0,0,0,0-.44Z"/><path class="cls-3" d="M81.68,10.17a9.23,9.23,0,0,0,.55-5.3c-.07-.53-1-.41-.93.13.13,1.7,0,3.44.25,5.13,0,.06.09.11.13,0Z"/><path class="cls-3" d="M81.49,5.23c.24.31.63.45.87.77s.25.86-.27.67-.7.43-.43.73c.65.71,1.75,0,1.8-.83a1.83,1.83,0,0,0-1.79-1.79.27.27,0,0,0-.18.45Z"/><path class="cls-3" d="M81.26,4.71c.29.45.87.6,1.22,1a.91.91,0,0,1,.26.6c0,.25-.17.42-.23.65a.41.41,0,0,0,.5.5c.83-.16.79-1.36.49-1.94a2,2,0,0,0-2.12-1.07.19.19,0,0,0-.12.27Z"/><path class="cls-3" d="M82.19,6.48c.31.32.87.67,1.23.24a.29.29,0,0,0,0-.45c-.33-.21-.64,0-1-.09a.18.18,0,0,0-.18.3Z"/><path class="cls-3" d="M85.23,11.72c-.28.35-.14.81-.1,1.22,0,.17.15.36.34.34l1.32-.11c.35,0,.67,0,.92-.25a.23.23,0,0,0,0-.35c-.29-.23-.61-.12-1-.08l-1.23.11.34.34c0-.4,0-.95-.33-1.22-.07-.06-.19-.09-.25,0Z"/><path class="cls-3" d="M85.45,12.28a3.44,3.44,0,0,0,2,.64c.53.06.65-.83.13-.93a3.35,3.35,0,0,0-2.1,0,.17.17,0,0,0,0,.26Z"/><path class="cls-3" d="M85.56,13.48a.29.29,0,0,0,0-.58.29.29,0,0,0,0,.58Z"/><path class="cls-3" d="M87.64,12.91a.26.26,0,0,0,0-.52.26.26,0,0,0,0,.52Z"/><path class="cls-3" d="M85.65,12.38a.18.18,0,0,0,0-.36.18.18,0,0,0,0,.36Z"/><path class="cls-3" d="M88,12.94a.29.29,0,0,0,0-.58.29.29,0,0,0,0,.58Z"/><path class="cls-3" d="M90,24.23a2.14,2.14,0,0,0-1.23,2.69c.29.56.88.72,1.39,1s1,.85,1.66.75c1.23-.18,1.3-1.67.88-2.57a3.09,3.09,0,0,0-2.88-1.78.5.5,0,0,0,0,1,2.31,2.31,0,0,1,1.74.78c.48.58.67,2.13-.48,1.38-.41-.27-1.41-.57-1.65-1-.44-.74.48-1.48.82-2.05.1-.17-.09-.32-.25-.25Z"/><path class="cls-3" d="M90,24.86c-.64.11-.7,1-.52,1.5a2.49,2.49,0,0,0,1.82,1.33.51.51,0,0,0,.62-.35,1.75,1.75,0,0,0-.43-1.77c-.43-.41-1.28-.69-1.74-.21a.48.48,0,0,0,.09.74c.28.14.57.06.83.2a.65.65,0,0,1,.28.77l.62-.35a2.39,2.39,0,0,1-1.26-.57c-.28-.35-.12-.61,0-1,.07-.2-.15-.35-.33-.32Z"/><path class="cls-3" d="M93.66,21.79a5.32,5.32,0,0,0,.42,2.35,5.66,5.66,0,0,0,1,2.19c.13.12.39,0,.37-.15A10.61,10.61,0,0,0,94.68,24a11.13,11.13,0,0,0-.74-2.22c-.06-.1-.26-.1-.28,0Z"/><path class="cls-3" d="M95.48,26a5.83,5.83,0,0,1-1.17-1.62,2.7,2.7,0,0,1,.26-2.28.46.46,0,0,0-.79-.46c-.94,1.47-.58,4.49,1.58,4.63a.16.16,0,0,0,.12-.27Z"/><path class="cls-3" d="M88.59,29.72a11.74,11.74,0,0,1,1.34.75,2.5,2.5,0,0,1,.75,1.6,6.84,6.84,0,0,1-.58,3.21c-.15.45.55.63.71.19.52-1.41,1-3,.4-4.48-.38-.86-1.64-2.13-2.62-1.38a.07.07,0,0,0,0,.11Z"/><path class="cls-3" d="M90.66,35.22a4.58,4.58,0,0,0-.33-2.9,11.21,11.21,0,0,0-1.28-3.07.46.46,0,0,0-.83.35c.29,1.08.82,2.11,1.15,3.19a5.94,5.94,0,0,0,1,2.51.18.18,0,0,0,.3-.08Z"/><path class="cls-3" d="M89.65,30.91a12,12,0,0,1,.52,2.15c.08.56.84.34.9-.12a2.54,2.54,0,0,0-1-2.31.25.25,0,0,0-.37.28Z"/><path class="cls-3" d="M89.45,30.39c.21.43.41,1,.9,1.12.19,0,.45-.1.42-.32-.06-.54-.58-.82-1-1.11-.2-.14-.4.12-.31.31Z"/><path class="cls-3" d="M96.55,29.67c-.61,0-1.7.67-1.68,1.36a.25.25,0,0,0,.37.21c.29-.12.43-.45.66-.66s.53-.38.78-.6a.18.18,0,0,0-.13-.31Z"/><path class="cls-3" d="M95.18,31.06a2.53,2.53,0,0,0,1.43.55.44.44,0,1,0,.12-.86,2.62,2.62,0,0,0-1.52.06.16.16,0,0,0,0,.25Z"/><path class="cls-3" d="M96.29,29.92a.65.65,0,0,0-.39.74,1,1,0,0,0,.71.91c.38.13.8-.37.55-.71l-.52-.72c-.08-.1-.19-.26-.35-.22Z"/><path class="cls-3" d="M96.08,30a1.5,1.5,0,0,0,.31.83.23.23,0,0,0,.39-.16,1.59,1.59,0,0,0-.31-.83.21.21,0,0,0-.39.16Z"/><path class="cls-3" d="M93.37,34.5a1,1,0,0,0,.92,1.33c.64,0,1.32-.74.87-1.33-.13-.17-.37-.07-.47.06s-.12.46-.36.54-.44-.26-.48-.54a.27.27,0,0,0-.48-.06Z"/><path class="cls-3" d="M93.77,35a1.1,1.1,0,0,0,1.33.3.46.46,0,0,0-.11-.83,3.12,3.12,0,0,0-1,0,.3.3,0,0,0-.21.5Z"/><path class="cls-3" d="M97.78,35.13l-.07.07a.21.21,0,0,0,0,.26c.06.08.09.11.19.11a.24.24,0,0,0,.22-.22v-.09a.18.18,0,0,0-.3-.13Z"/><path class="cls-3" d="M97.74,35.61c-.78.92-1.91,1.9-1.73,3.24s1.5,1.29,2.21,2.12c.48.55,1.31-.26.81-.8s-1.56-.64-1.91-1.28c-.55-1,.85-2,1.37-2.7.31-.44-.4-1-.75-.58Z"/><path class="cls-3" d="M98,36.5c-.36.38-.12.89,0,1.36A20.2,20.2,0,0,0,98.47,40c.13.38.8.35.75-.1a17.62,17.62,0,0,0-.45-2.16c-.12-.49-.11-1.11-.62-1.32a.17.17,0,0,0-.15,0Z"/><path class="cls-3" d="M97.57,37.54a1.16,1.16,0,0,0,.42,2c.42.16.61-.52.19-.67a.66.66,0,0,1-.26-1.07c.16-.23-.17-.42-.35-.27Z"/><path class="cls-3" d="M97.57,37A2.37,2.37,0,0,0,97,39.12a.47.47,0,0,0,.92-.13c0-.29-.1-.57-.11-.86a2.62,2.62,0,0,1,.17-.91c.06-.22-.25-.43-.41-.23Z"/><path class="cls-3" d="M97.46,38.08a4.87,4.87,0,0,0,1.07,1.35A.34.34,0,0,0,99,39a5.06,5.06,0,0,0-1.32-1.11c-.12-.09-.29.09-.21.21Z"/><path class="cls-3" d="M91.71,39.4c.18,0,.2.14.08.26a.34.34,0,0,0,.41.54.72.72,0,0,0-.49-1.34.28.28,0,0,0,0,.54Z"/><path class="cls-3" d="M91.64,39.17a1.21,1.21,0,0,0,.28,1.1.22.22,0,0,0,.37-.1,1.22,1.22,0,0,0-.38-1.07.16.16,0,0,0-.27.07Z"/><path class="cls-3" d="M97.4,37.38c-.32.32-.18.92-.14,1.32.12,1.15,1.78.54,1.24-.34-.12-.2-.71-1.36-1.1-1Z"/><path class="cls-3" d="M92.85,44c.51.46,2,.82,2.46.19a.28.28,0,0,0-.06-.43,1.74,1.74,0,0,0-1-.13,11.89,11.89,0,0,0-1.2-.11.28.28,0,0,0-.19.48Z"/><path class="cls-3" d="M94.72,44.18a8,8,0,0,0,.47,2.11c.12.66-.06,1.53.31,2.11a.33.33,0,0,0,.51.06c.5-.61.29-1.56.17-2.3a3.4,3.4,0,0,0-1-2.25c-.21-.14-.44.06-.46.27Z"/><path class="cls-3" d="M95.62,47.84a11.67,11.67,0,0,0-1.71,1.35.32.32,0,0,0-.08.31c0,.1,0,.15.14.19a.35.35,0,0,0,.39,0,11,11,0,0,0,1.56-1.49c.15-.19-.12-.4-.3-.31Z"/><path class="cls-3" d="M94.27,49a17.1,17.1,0,0,0-.35-4.62c-.09-.54-1-.42-1,.13a17.33,17.33,0,0,0,1,4.58c.08.19.32.07.34-.09Z"/><path class="cls-3" d="M93.89,44.62a14.53,14.53,0,0,0,.31,3.77c.12.65,1.27.51,1.18-.16a14.55,14.55,0,0,0-.91-3.69.3.3,0,0,0-.58.08Z"/><path class="cls-3" d="M94.69,44.05a5,5,0,0,0,0,2.79c.15.83,1.41.48,1.28-.35A4.72,4.72,0,0,0,95.06,44a.24.24,0,0,0-.37,0Z"/><path class="cls-3" d="M95,43.94a2.38,2.38,0,0,0,.19,1.62.25.25,0,0,0,.45-.06,2.38,2.38,0,0,0-.34-1.6.17.17,0,0,0-.3,0Z"/><path class="cls-3" d="M94.1,48.39a1,1,0,0,0-.29.65c0,.23.3.29.41.11a.94.94,0,0,0,.15-.65.16.16,0,0,0-.27-.11Z"/><path class="cls-3" d="M93.86,48.4a1.09,1.09,0,0,0-.21.64c0,.16.23.28.34.14a1.09,1.09,0,0,0,.24-.63c0-.21-.25-.37-.37-.15Z"/><path class="cls-3" d="M94.9,48.17c.42.07,1.07-.26,1-.75a.17.17,0,0,0-.21-.16.62.62,0,0,0-.37.27c-.15.16-.34.27-.48.43a.13.13,0,0,0,.05.21Z"/><path class="cls-3" d="M97.93,44.57c-.64.36-.45,1.42-.08,1.91s1.56,1,2.18.47a.45.45,0,0,0-.2-.74c-.47-.15-.86,0-1.27-.35s-.31-.79-.46-1.23a.11.11,0,0,0-.17-.06Z"/><path class="cls-3" d="M98,45c.26.21.54.37.8.57s.46.44.83.4a.45.45,0,0,0,.43-.43c0-.82-1.26-1.12-1.94-1A.26.26,0,0,0,98,45Z"/><path class="cls-3" d="M98.12,45.2a1.31,1.31,0,0,0,1.11,1.36.65.65,0,1,0,0-1.26c-.35.07-.49-.06-.76-.24a.24.24,0,0,0-.35.14Z"/><path class="cls-3" d="M97.74,44.53a1.79,1.79,0,0,0,1.55,1.57.44.44,0,0,0,.31-.75,3.17,3.17,0,0,0-.86-.53,4.74,4.74,0,0,0-.79-.45.16.16,0,0,0-.21.16Z"/><path class="cls-3" d="M98,44.76a9.79,9.79,0,0,1,.82,1c.36.43,1.11-.14.79-.61a2.65,2.65,0,0,0-1.29-.94c-.32-.12-.55.34-.32.56Z"/><path class="cls-3" d="M95.06,48.9c.6.22,1.63-.53,1.19-1.18a.28.28,0,0,0-.39-.1c-.19.11-.22.24-.33.41a1.86,1.86,0,0,1-.52.49.22.22,0,0,0,0,.38Z"/><path class="cls-3" d="M95.28,44.1a.91.91,0,0,1,.19.57c0,.16.26.16.33,0a.57.57,0,0,0-.39-.84.14.14,0,0,0-.13.23Z"/><path class="cls-3" d="M94.1,49.53A2.3,2.3,0,0,0,95,48.2c0-.16-.13-.33-.29-.23a2.27,2.27,0,0,0-.89,1.38c0,.12.12.27.24.18Z"/><path class="cls-3" d="M93.35,44.5c.4.45.85,1.19,1.45,1.38a.19.19,0,0,0,.24-.23c-.2-.6-.93-1-1.39-1.45a.21.21,0,0,0-.3.3Z"/><path class="cls-4" d="M78.89,15.8a16.4,16.4,0,0,1,2.91-.92,26.22,26.22,0,0,1,3.42-.18.2.2,0,0,0,0-.4,9.77,9.77,0,0,0-6.57,1c-.25.13-.08.57.19.46Z"/><path class="cls-4" d="M79,16.15a3.34,3.34,0,0,0,1.77-.64c.15-.13,0-.43-.16-.4a3.31,3.31,0,0,0-1.72.78.15.15,0,0,0,.11.26Z"/><path class="cls-4" d="M78.76,15.45c-1.19,1.82.08,6.06,2.79,5.35a.37.37,0,0,0-.09-.72,2.18,2.18,0,0,1-2.33-1.86c-.19-.9.13-1.88-.13-2.74a.13.13,0,0,0-.24,0Z"/><path class="cls-4" d="M80.76,20.78a7.23,7.23,0,0,0,2.87-.35,5.45,5.45,0,0,0,2.7-1.07A.19.19,0,0,0,86.2,19a8.29,8.29,0,0,0-2.76.72,13.23,13.23,0,0,0-2.71.81.12.12,0,0,0,0,.21Z"/><path class="cls-4" d="M83.9,20.47c1.66.58,3.32-1.28,3.5-2.79.15-1.19-.82-3.91-2.42-3.44a.34.34,0,0,0-.2.5c.23.44.58.5.94.81a2.83,2.83,0,0,1,.88,1.6c.31,1.83-1.36,2.47-2.7,3a.18.18,0,0,0,0,.34Z"/><path class="cls-4" d="M85.17,15.08c.16.72.41,1.4.59,2.11a9.15,9.15,0,0,0,.5,1.95.37.37,0,0,0,.67-.09,6,6,0,0,0-1.22-4.2.3.3,0,0,0-.54.23Z"/><path class="cls-4" d="M83,20.66A4.3,4.3,0,0,0,86.32,20c.69-.48,1.52-1.5,1.17-2.39-.09-.22-.43-.33-.56-.07s-.21.7-.4,1a2.74,2.74,0,0,1-1,.93c-.81.44-1.78.41-2.57.84a.19.19,0,0,0,0,.34Z"/><path class="cls-4" d="M86.22,18a2.91,2.91,0,0,0-1,1.62.23.23,0,0,0,.35.2,2.93,2.93,0,0,0,.91-1.7.13.13,0,0,0-.21-.12Z"/><path class="cls-4" d="M78.81,15.83a.3.3,0,0,0,0-.59.3.3,0,0,0,0,.59Z"/><path class="cls-4" d="M79.43,15.83a17,17,0,0,0,2-.49,11.92,11.92,0,0,0,2-.49c.22-.1.08-.37-.1-.4a5.75,5.75,0,0,0-2,.37,6.51,6.51,0,0,0-1.92.75c-.1.07-.08.28.07.26Z"/><path class="cls-5" d="M88,16.78a2.67,2.67,0,0,0,3.52-1.12.31.31,0,0,0-.45-.35,6.57,6.57,0,0,1-1.35.86,7.18,7.18,0,0,1-1.6.16.24.24,0,0,0-.12.45Z"/><path class="cls-5" d="M87.92,17a1.84,1.84,0,0,0,1.84.52c.57-.11,1.54-.53,1.52-1.22a.29.29,0,0,0-.37-.29,1.2,1.2,0,0,0-.53.32,2.09,2.09,0,0,1-.76.38,4.62,4.62,0,0,1-1.53,0,.2.2,0,0,0-.17.3Z"/><path class="cls-5" d="M87.82,16.66c.07.23.13.45.19.68.16.56,1,.08.6-.35l-.48-.51a.19.19,0,0,0-.31.18Z"/><path class="cls-5" d="M88.08,16.16a.71.71,0,0,0,0,.95.38.38,0,0,0,.4.17c.48-.07.18-.84,0-1.07a.27.27,0,0,0-.41-.05Z"/><path class="cls-5" d="M76.92,14.36a2.05,2.05,0,0,0,0,2.8c.27.28.79-.1.55-.42a1.67,1.67,0,0,1-.08-2,.29.29,0,0,0-.46-.35Z"/><path class="cls-5" d="M77,14.61a1.26,1.26,0,0,0,.6.86.35.35,0,0,0,.51-.39,1.24,1.24,0,0,0-.75-.75.25.25,0,0,0-.36.28Z"/><path class="cls-5" d="M77.51,15.1A2.78,2.78,0,0,0,77.37,17a.28.28,0,0,0,.54,0,2.77,2.77,0,0,0-.14-1.86.15.15,0,0,0-.26,0Z"/><path class="cls-5" d="M77.19,14.94a3,3,0,0,0,.08,2.25c.19.44.92.12.77-.33a11.5,11.5,0,0,1-.49-1.92c0-.2-.3-.15-.36,0Z"/><path class="cls-5" d="M77.8,15.21a8.48,8.48,0,0,0-.13.88,7.32,7.32,0,0,0-.15.79.3.3,0,0,0,.55.15,2.22,2.22,0,0,0,.11-1.87c-.07-.18-.34-.12-.38.05Z"/><path class="cls-6" d="M79.54,16.43c0,1.14-.5,2.92.93,3.45a3.2,3.2,0,0,0,1.81-.11c1-.25,2.08-.59,3.1-.94.44-.16.25-.87-.19-.71-1.15.39-2.31.76-3.49,1.07-.22.06-.6.24-.82.18a1.55,1.55,0,0,1-.95-1.3,10.45,10.45,0,0,0-.06-1.68.17.17,0,0,0-.33,0Z"/><path class="cls-6" d="M85.79,18.58A9.5,9.5,0,0,0,85,15.16a.38.38,0,0,0-.73.2,9.51,9.51,0,0,0,1.29,3.33c.1.12.27,0,.28-.11Z"/><path class="cls-6" d="M84.66,15.21a8,8,0,0,0-2.51.41,6.58,6.58,0,0,0-2.39.86c-.18.14-.15.48.13.47a10.67,10.67,0,0,0,2.45-.64,14.42,14.42,0,0,0,2.44-.67c.22-.11.08-.41-.12-.43Z"/><path class="cls-6" d="M80.2,16.71a1.75,1.75,0,0,0-.15,1.86,1.92,1.92,0,0,0,1.86.68,3.39,3.39,0,0,0,1.93-.65,1.94,1.94,0,0,0,.33-2.3.56.56,0,0,0-.68-.38,26.74,26.74,0,0,0-2.66.72.52.52,0,0,0,.28,1A24.82,24.82,0,0,0,83.78,17l-.68-.38c.18.47.37,1-.15,1.26a3.48,3.48,0,0,1-1,.32c-.33.07-.91.22-1.19-.05s-.21-.95-.23-1.33a.18.18,0,0,0-.34-.09Z"/><path class="cls-6" d="M81.16,17a1.42,1.42,0,0,0,.18,1.32.5.5,0,0,0,.56.23H82a.36.36,0,0,0,.26-.26v-.07a.51.51,0,0,0-.12-.49c-.26-.23-.41-.52-.65-.76a.19.19,0,0,0-.31,0Z"/><path class="cls-6" d="M81.09,18a5.49,5.49,0,0,0,2.38-.2.59.59,0,0,0-.31-1.13,5.48,5.48,0,0,0-2.17.94.24.24,0,0,0,.1.39Z"/><path class="cls-6" d="M83.64,16.44a3.38,3.38,0,0,1,.06.95c0,.35-.31.57-.36.91A.57.57,0,0,0,84,19c.64-.16.92-1,.88-1.58a1.38,1.38,0,0,0-.9-1.34c-.24-.08-.4.16-.37.37Z"/><path class="cls-6" d="M80.77,17.52a1.55,1.55,0,0,0,.5,1.37,1.71,1.71,0,0,0,1.69.34.63.63,0,0,0,.44-.59c0-.48-.42-.64-.85-.57a1.1,1.1,0,0,1-1.28-.62.26.26,0,0,0-.5.07Z"/><path class="cls-7" d="M81.94,15.79a5.15,5.15,0,0,0-1,2c-.16.63-.42,1.41,0,1.95a.36.36,0,0,0,.49,0c.48-.4.41-1.23.5-1.81a11.64,11.64,0,0,0,.19-2,.14.14,0,0,0-.24-.1Z"/><path class="cls-7" d="M82.32,16.07a.27.27,0,0,0,0-.53.27.27,0,0,0,0,.53Z"/><path class="cls-7" d="M82.33,15.84a5.39,5.39,0,0,0-1.09,2.32.21.21,0,0,0,.36.15,5.46,5.46,0,0,0,.92-2.38.11.11,0,0,0-.19-.09Z"/><path class="cls-7" d="M81.78,15.85c0,.27-.09.53-.13.79a.22.22,0,0,0,.37.22,1,1,0,0,0,.23-1.07.24.24,0,0,0-.47.06Z"/><path class="cls-7" d="M78.9,15.79a3.16,3.16,0,0,0,2.18-.52A.16.16,0,0,0,81,15c-.71.05-1.4.37-2.11.47-.18,0-.13.3,0,.31Z"/><path class="cls-7" d="M77.18,14.44A1.77,1.77,0,0,0,77,16.75a.18.18,0,0,0,.3-.13c0-.35-.08-.69-.07-1.05s.12-.68.15-1c0-.13-.16-.17-.24-.1Z"/><path class="cls-7" d="M88.35,17.09a2.08,2.08,0,0,0,2.45-.55.23.23,0,0,0-.26-.33c-.34.08-.63.31-1,.4a5.53,5.53,0,0,1-1.14.18c-.14,0-.24.23-.08.3Z"/><path class="cls-8" d="M93.65,52a9,9,0,0,0-.51,2.51c0,.56.77.63.93.13a9.08,9.08,0,0,0,.39-2.53.41.41,0,0,0-.81-.11Z"/><path class="cls-8" d="M93.5,54.62c1.07-.44,2-1.1,3-1.64s2.35-1.09,3.54-1.6c.4-.17.11-.84-.29-.7-2.21.76-4.86,2-6.43,3.73-.07.08,0,.26.13.21Z"/><path class="cls-8" d="M94.11,52.48a8.34,8.34,0,0,0,2.66-.37,27.42,27.42,0,0,0,3-.74.46.46,0,0,0-.25-.88,28.63,28.63,0,0,0-3,.77,8.08,8.08,0,0,0-2.49,1,.15.15,0,0,0,.07.27Z"/><path class="cls-8" d="M94.13,53.22a7.48,7.48,0,0,0,2.17-.48A7.79,7.79,0,0,0,98.53,52a.52.52,0,0,0-.26-1,4.88,4.88,0,0,0-2.39.7A4.42,4.42,0,0,0,94,53.05c-.06.07,0,.17.1.17Z"/><path class="cls-8" d="M94.14,52.34a7.23,7.23,0,0,0,2.54-.11,7.71,7.71,0,0,0,2.78-.71c.26-.16.25-.65-.09-.7a7.14,7.14,0,0,0-2.59.3,7.86,7.86,0,0,0-2.68.9c-.11.08-.11.29,0,.32Z"/><path class="cls-8" d="M93.88,54.64a23.26,23.26,0,0,0,2.64-1.43,15.33,15.33,0,0,0,2.59-1.53c.15-.12,0-.33-.17-.3a9.42,9.42,0,0,0-2.73,1.31,10.89,10.89,0,0,0-2.43,1.77c-.07.07,0,.22.1.18Z"/><path class="cls-8" d="M98.39,51.7a3,3,0,0,0,1.64-.87.16.16,0,0,0-.15-.25,3.16,3.16,0,0,0-1.63.88c-.12.09,0,.29.14.24Z"/><path class="cls-9" d="M93.23,55.31a3.37,3.37,0,0,0-.57,1.85,10,10,0,0,0-.27,2.24.32.32,0,0,0,.63.09,10.31,10.31,0,0,0,.49-2.41,3,3,0,0,0,0-1.73.18.18,0,0,0-.3,0Z"/><path class="cls-9" d="M92.76,59.59a17,17,0,0,1,8-5.9.42.42,0,0,0-.22-.8,12.1,12.1,0,0,0-8,6.56.13.13,0,0,0,.23.14Z"/><path class="cls-9" d="M101.14,52.82a3.31,3.31,0,0,0-.42-1.59c-.38-.74-1.57,0-1.12.66a3.25,3.25,0,0,0,1.14,1.16.27.27,0,0,0,.4-.23Z"/><path class="cls-9" d="M99.88,51.6a18.39,18.39,0,0,0-3.06,1.91c-1.14.72-2.37,1.27-3.51,2a.34.34,0,0,0,.27.62,16.42,16.42,0,0,0,3.66-1.87,9.23,9.23,0,0,0,2.86-2.36.19.19,0,0,0-.22-.28Z"/><path class="cls-9" d="M93.43,57.6a13.1,13.1,0,0,1,3.41-2.39,21.76,21.76,0,0,0,3.23-1.74c.46-.38-.06-1-.53-.91a11,11,0,0,0-3.83,1.94,10.9,10.9,0,0,0-2.63,2.83c-.14.21.18.45.35.27Z"/><path class="cls-9" d="M100.31,52.4a11.32,11.32,0,0,0-4.06,1.66c-1.15.66-2.83,1.61-3.41,2.85-.13.29.1.78.48.62,1.22-.5,2.19-1.66,3.27-2.42s2.64-1.38,3.85-2.22c.19-.13.15-.52-.13-.49Z"/><path class="cls-9" d="M94.31,55.73c-.33.54-.67,1.07-1,1.61a3.74,3.74,0,0,0-.69,1.52c0,.38.45.5.7.29a4.31,4.31,0,0,0,.83-1.57c.23-.54.45-1.09.67-1.63.12-.31-.36-.48-.52-.22Z"/><path class="cls-9" d="M94.28,56.94a9.12,9.12,0,0,1-1.46,1.64c-.35.33.16.82.51.52a5.65,5.65,0,0,0,1.36-1.92.24.24,0,0,0-.41-.24Z"/><path class="cls-9" d="M92.78,58.9c-.41,0-.5.48-.2.69a.24.24,0,0,0,.23,0l0,0a.18.18,0,0,0,.08-.2s-.11-.23-.07-.27a.12.12,0,0,0-.08-.2Z"/><path class="cls-9" d="M93.13,58.82a.05.05,0,0,0,0-.1.05.05,0,0,0,0,.1Z"/><path class="cls-9" d="M93.38,58.57a7.1,7.1,0,0,0-1.22,1.23c-.22.3.27.67.52.4a6.32,6.32,0,0,0,1-1.43.17.17,0,0,0-.27-.2Z"/><path class="cls-10" d="M92.24,61.56c3.51-1.69,5.1-5.78,9-7,.59-.19.34-1.13-.26-.93-3.85,1.26-5.76,5.24-8.93,7.54a.24.24,0,0,0,.24.41Z"/><path class="cls-10" d="M100.41,54.39a13.68,13.68,0,0,0,.77,2.48,16.59,16.59,0,0,1,.28,3.06.55.55,0,0,0,1.08.15c.59-1.67.13-5.08-1.58-6a.37.37,0,0,0-.55.31Z"/><path class="cls-10" d="M92.07,61.31c-.08.45-.11.9-.17,1.36s-.2.87-.23,1.32.75.59.93.13a4.43,4.43,0,0,0,0-2.81c-.08-.22-.45-.28-.5,0Z"/><path class="cls-10" d="M91.78,64.18a4.63,4.63,0,0,0,1.68-.28A4.28,4.28,0,0,0,95,63.3c.34-.26,0-.77-.33-.79a8.21,8.21,0,0,0-3.08,1.17c-.22.18,0,.49.21.5Z"/><path class="cls-10" d="M94,63c-.18,1.21.62,2.34,1.1,3.42.58,1.29.94,3,1.92,4a.49.49,0,0,0,.83-.34c0-1.3-.84-2.72-1.37-3.9s-1-2.75-2.11-3.35c-.13-.07-.35,0-.37.15Z"/><path class="cls-10" d="M91.67,71.94a23.42,23.42,0,0,0,3-1.44,14,14,0,0,0,3.06-1.43c.22-.19,0-.52-.23-.54a6.76,6.76,0,0,0-3.12,1.06,8.51,8.51,0,0,0-2.92,2.06c-.1.13,0,.35.17.29Z"/><path class="cls-10" d="M92.7,71c-1.13,1.24-.66,2.94-.21,4.41.66,2.12,1.22,4.92,2.57,6.7a.51.51,0,0,0,.94-.26c0-1.85-1-3.69-1.57-5.42s-.84-3.68-1.51-5.38a.13.13,0,0,0-.22,0Z"/><path class="cls-10" d="M94.91,82.62a14,14,0,0,0,2.91-.55,4.9,4.9,0,0,0,2.46-1,.32.32,0,0,0-.14-.53,4.82,4.82,0,0,0-2.62.49,13.5,13.5,0,0,0-2.74,1.16.25.25,0,0,0,.13.47Z"/><path class="cls-10" d="M100.43,81.29a4.08,4.08,0,0,0,1.79-.59c.11-.08.08-.31-.08-.29a4,4,0,0,0-1.76.7c-.07,0-.06.19.05.18Z"/><path class="cls-10" d="M102.28,80.7a1.4,1.4,0,0,0,.78-.73c.08-.17-.09-.38-.27-.27a1.38,1.38,0,0,0-.66.85c0,.08.06.18.15.15Z"/><path class="cls-10" d="M102.92,80.24a.93.93,0,0,0,1.4-.43.22.22,0,0,0-.26-.26c-.36.06-.72.2-1.09.26-.22,0-.2.33,0,.43Z"/><path class="cls-10" d="M105.71,79.42l0,0,0,.21c0-.07,0-.09,0,0a.15.15,0,0,0,.05-.2l0,0a.2.2,0,0,0-.22-.09l0,0a.23.23,0,0,0-.17.22v.07a.21.21,0,0,0,.11.19l0,0a.21.21,0,0,0,.25-.32Z"/><path class="cls-10" d="M107.56,74.62a3.47,3.47,0,0,0,0,1.86.29.29,0,0,0,.51,0,3.46,3.46,0,0,0,0-1.86.21.21,0,0,0-.42,0Z"/><path class="cls-10" d="M107.54,75.41a3.22,3.22,0,0,0,0,1,1.76,1.76,0,0,0,.24.9c.13.17.48.2.52-.06a1.88,1.88,0,0,0-.21-1,2.73,2.73,0,0,0-.43-.85.09.09,0,0,0-.14,0Z"/><path class="cls-10" d="M100.62,80.74a3,3,0,0,1-.73-1.3,3.54,3.54,0,0,1,.22-1.44.27.27,0,0,0-.45-.26,2,2,0,0,0-.37,1.87A1.88,1.88,0,0,0,100.45,81c.18.06.27-.16.17-.29Z"/><path class="cls-10" d="M100.05,77.86a1.33,1.33,0,0,1,0-2.14,1.89,1.89,0,0,1,1.43-.25,2.39,2.39,0,0,0,.94.16.2.2,0,0,0,.12-.3c-.31-.56-1.24-.63-1.82-.56a2.27,2.27,0,0,0-1.5.79c-.65.8-.58,2.39.63,2.56a.16.16,0,0,0,.15-.26Z"/><path class="cls-10" d="M102.47,75.29c2.11-1.85,2.61-5.31,1.63-7.88-.79-2-3.6-5.29-6-3.47a.46.46,0,0,0,.23.84,5.13,5.13,0,0,1,5.07,3.79c.88,2.49.12,4.42-1.07,6.63a.08.08,0,0,0,.13.09Z"/><path class="cls-10" d="M102.69,75.21a3.3,3.3,0,0,0,3.5.1.53.53,0,0,0,.27-.47c0-.68-.76-.56-1.24-.44-.8.19-1.64.16-2.42.4a.24.24,0,0,0-.11.41Z"/><path class="cls-10" d="M105.57,75.32c3.39-2.43,3.23-8,1-11.11-2.15-2.94-7.17-5.25-10.66-3.42-.75.39-.34,1.45.41,1.5,3.41.21,6.47,0,8.75,3.18s1.39,6.31.13,9.53a.29.29,0,0,0,.42.32Z"/><path class="cls-10" d="M96.14,63a6.45,6.45,0,0,0,2.33,1,8.12,8.12,0,0,1,3.68,2.37A7.66,7.66,0,0,1,103.83,70c.22,1.32-.23,2.56.1,3.83a.68.68,0,0,0,1.12.3c2-2.16.51-6.53-1-8.59s-5.32-4.9-7.8-3.28a.46.46,0,0,0-.09.71Z"/><path class="cls-10" d="M105.39,73.86c3.6-3.09.44-10.46-3.88-11-.7-.09-1.05.94-.57,1.37,1.39,1.28,2.9,2,3.63,3.88s.18,3.61.16,5.52a.39.39,0,0,0,.66.27Z"/><path class="cls-10" d="M100.15,55a5.43,5.43,0,0,0-.28,3,24.78,24.78,0,0,0,.32,3.55c.23,1,1.68.71,1.76-.24a18.44,18.44,0,0,0-.31-3.78,4.63,4.63,0,0,0-.9-2.63.37.37,0,0,0-.59.08Z"/><path class="cls-10" d="M100,54.93A6.38,6.38,0,0,0,98.39,58c-.34,1-1,2.3-.4,3.26a.64.64,0,0,0,.88.23c1-.63.93-2,1.18-3a8.19,8.19,0,0,0,.5-3.38c0-.26-.37-.28-.55-.14Z"/><path class="cls-10" d="M100,55.07a6.24,6.24,0,0,0-2.62,2.27,12.37,12.37,0,0,0-2.11,3.56c-.31,1,1,1.42,1.55.66.69-1,1.18-2.19,1.85-3.24a12.47,12.47,0,0,0,1.67-2.92.27.27,0,0,0-.34-.33Z"/><path class="cls-10" d="M97.74,57.12a8,8,0,0,0-2.86,1.93c-.73.62-2.23,1.39-2.2,2.45a.6.6,0,0,0,.43.55c1.1.27,2.07-1.06,2.8-1.73a6.77,6.77,0,0,0,2.23-2.81.32.32,0,0,0-.4-.39Z"/><path class="cls-10" d="M93.05,62.59a16.23,16.23,0,0,0,3.59-.38c1-.12,1.07-1.69,0-1.63-1.34.07-3,.45-3.77,1.7a.21.21,0,0,0,.18.31Z"/><path class="cls-10" d="M92.58,63.17a4.57,4.57,0,0,0,2,0,14.18,14.18,0,0,0,2.3-.53.8.8,0,0,0-.43-1.53,12.68,12.68,0,0,0-2.27.61,4.62,4.62,0,0,0-1.74.88.37.37,0,0,0,.16.61Z"/><path class="cls-10" d="M94.81,61.79c-.31,1.6.33,3.29.86,4.78a14,14,0,0,0,2.15,4.6c.51.58,1.25-.06,1.16-.67-.24-1.69-1.27-3.37-1.87-5a11.3,11.3,0,0,0-1.85-3.86.28.28,0,0,0-.45.12Z"/><path class="cls-10" d="M96.05,63.11a58.9,58.9,0,0,0,1.57,6c.5,1.56.78,3.41,1.95,4.6a.65.65,0,0,0,1.1-.46c.2-1.76-.89-3.73-1.5-5.37A55.24,55.24,0,0,0,97,62.73c-.25-.53-1-.14-.91.38Z"/><path class="cls-10" d="M97.37,63.42c.75,3.66,2.52,7.15,3.95,10.58.48,1.15,2.38.64,1.89-.52-1.46-3.5-2.74-7.3-4.86-10.47a.54.54,0,0,0-1,.41Z"/><path class="cls-10" d="M100,64.46a16.84,16.84,0,0,0,1.33,4.79c.47,1.27.71,2.92,1.9,3.67a.64.64,0,0,0,.92-.37c.41-1.38-.64-3.09-1.14-4.39a16.2,16.2,0,0,0-2-4.11c-.31-.4-1-.06-1,.41Z"/><path class="cls-10" d="M93.84,75.53a14.29,14.29,0,0,0,3-1.92,15.05,15.05,0,0,0,2.94-2.29c.44-.56.06-1.67-.79-1.36a11.31,11.31,0,0,0-3,2.16,11.12,11.12,0,0,0-2.61,2.78c-.18.29.12.78.48.63Z"/><path class="cls-10" d="M93.94,73.59a.05.05,0,1,0,0-.1.05.05,0,0,0,0,.1Z"/><path class="cls-10" d="M93.72,74.21a28.74,28.74,0,0,0,2.78-1.52c.7-.45,1.83-.91,2-1.81A.65.65,0,0,0,98,70.1c-1-.19-1.67.62-2.4,1.18a31.94,31.94,0,0,0-2.47,2.19c-.39.38.11,1,.57.74Z"/><path class="cls-10" d="M92.8,72.84c1-.43,2-.78,2.93-1.24.79-.38,2-.61,2.36-1.44a.64.64,0,0,0-.38-.94c-1-.25-1.93.56-2.73,1.09a13,13,0,0,0-2.43,2.2.21.21,0,0,0,.25.33Z"/><path class="cls-10" d="M92.87,72.18a7.13,7.13,0,0,0,1.68-.47c.61-.22,1.24-.43,1.85-.66.94-.34.57-1.81-.42-1.52a5.54,5.54,0,0,0-3.34,2.26.26.26,0,0,0,.23.39Z"/><path class="cls-10" d="M93.06,73.63a9.82,9.82,0,0,0,3.15-1.16c.85-.4.05-1.81-.75-1.27a9.54,9.54,0,0,0-2.6,2.08.23.23,0,0,0,.2.35Z"/><path class="cls-10" d="M94,76.42a20.28,20.28,0,0,0,4.19-1.48c1.39-.57,2.81-1.06,4.21-1.59,1-.38.63-2-.46-1.68-2.78.83-6.26,2-8.26,4.2a.33.33,0,0,0,.32.55Z"/><path class="cls-10" d="M95.29,76.47a.05.05,0,1,0,0-.1.05.05,0,0,0,0,.1Z"/><path class="cls-10" d="M94.32,77.23c2.57,0,5.38-1.44,7.69-2.44.86-.36.25-1.84-.63-1.51-2.36.88-5.4,1.78-7.22,3.57a.23.23,0,0,0,.16.38Z"/><path class="cls-10" d="M98.13,76.25a9.25,9.25,0,0,0-.22,2.57c.06.74,0,1.7.71,2.07a.62.62,0,0,0,.72-.09c.64-.54.3-1.47.18-2.19a8.78,8.78,0,0,0-.82-2.44.31.31,0,0,0-.57.08Z"/><path class="cls-10" d="M97.21,76.64A5.56,5.56,0,0,0,97,80.92a.85.85,0,0,0,1.64-.45,12.19,12.19,0,0,0-1-3.83.28.28,0,0,0-.47,0Z"/><path class="cls-10" d="M95.32,76.53A17.54,17.54,0,0,0,95.68,81c.2,1.07,1.9.63,1.64-.45a17.41,17.41,0,0,0-1.51-4.14c-.13-.24-.47-.11-.49.14Z"/><path class="cls-10" d="M93.79,76.51A7.48,7.48,0,0,0,94.6,79a5.12,5.12,0,0,0,1.48,2.3.64.64,0,0,0,1-.55,5.18,5.18,0,0,0-1.2-2.48,7.3,7.3,0,0,0-1.68-2,.24.24,0,0,0-.37.21Z"/><path class="cls-10" d="M98.1,74.72a11.46,11.46,0,0,0-1,2.47,5.33,5.33,0,0,0-.32,2.58.72.72,0,0,0,1.3.17,5,5,0,0,0,.58-2.35,11.7,11.7,0,0,0,0-2.71c0-.28-.42-.46-.58-.16Z"/><path class="cls-10" d="M95.56,75.9c-.45,1.42-.24,4,1,4.89a.73.73,0,0,0,1.09-.62,6,6,0,0,0-.78-2.24c-.28-.7-.5-1.42-.81-2.11a.31.31,0,0,0-.55.08Z"/><path class="cls-10" d="M106.17,64.14a17.76,17.76,0,0,1,1.5,3.14,9.48,9.48,0,0,1-.15,3.75c0,.35.4.61.6.25,1.18-2,.48-6.23-1.77-7.32a.13.13,0,0,0-.18.18Z"/><path class="cls-10" d="M106.86,65.12a6.67,6.67,0,0,1,.92,1.85c.15.52,0,1.19.4,1.61a.26.26,0,0,0,.33,0c.52-.47.22-1.47,0-2a3.52,3.52,0,0,0-1.32-1.76.25.25,0,0,0-.34.33Z"/><path class="cls-10" d="M106.57,64.14a5.67,5.67,0,0,1,1.08,1.69,13.29,13.29,0,0,1,.22,1.75.29.29,0,0,0,.53.07,2.77,2.77,0,0,0-.18-2.23,2.73,2.73,0,0,0-1.5-1.54c-.16-.06-.24.15-.15.26Z"/><path class="cls-10" d="M101.56,52.16a6.71,6.71,0,0,1,3.13-1.61,2.57,2.57,0,0,1,3,2.4c0,.36.66.35.72,0a3,3,0,0,0-2.57-3.35,4.43,4.43,0,0,0-4.55,2.26c-.1.18.12.44.31.3Z"/><path class="cls-10" d="M108.28,53.43c1.76-.92,1.46-3.28-.06-4.3-2-1.34-5.27-.23-6.5,1.69a.35.35,0,0,0,.39.5c1.29-.36,2.27-1.36,3.65-1.52,1.86-.21,4.27,1.69,2.38,3.44a.12.12,0,0,0,.14.19Z"/><path class="cls-10" d="M102.75,51.05c1.52-1,2.84-.82,4.53-.67a.29.29,0,0,0,.15-.54c-1.56-.8-3.6-.06-4.83,1a.13.13,0,0,0,.15.2Z"/><path class="cls-10" d="M107.85,50.48a1.67,1.67,0,0,0,.2.8.16.16,0,0,0,.29,0,1.5,1.5,0,0,0,0-.76c0-.31-.54-.31-.5,0Z"/><path class="cls-10" d="M102.37,51.17a1.47,1.47,0,0,0-.08.3c0,.18.22.24.34.14a.78.78,0,0,0,.16-.2c.16-.27-.3-.52-.42-.24Z"/><path class="cls-11" d="M92,67c-.62-.24-1.1.58-1.07,1.11a1.21,1.21,0,0,0,1.65.94,1.34,1.34,0,0,0,.63-1.9c-.39-.63-1.53-1-1.93-.17a.46.46,0,0,0,.27.66s1,.15.59.34c-.09,0-.21-.1-.22-.17s.18-.3.25-.41A.28.28,0,0,0,92,67Z"/><path class="cls-12" d="M91.94,65.51a4.68,4.68,0,0,0,1.77-.58.26.26,0,0,0-.13-.49,4.66,4.66,0,0,0-1.87.53c-.33.14-.08.59.23.54Z"/><path class="cls-12" d="M93.35,64.76A5.15,5.15,0,0,0,93.67,67a4.34,4.34,0,0,0,.89,2,.19.19,0,0,0,.32-.14,7.34,7.34,0,0,0-.57-2.07,11.08,11.08,0,0,0-.6-2.06.2.2,0,0,0-.36.05Z"/><path class="cls-12" d="M91.78,70.37a5,5,0,0,0,1.8-.44,3.73,3.73,0,0,0,1.51-.8.19.19,0,0,0-.13-.32,5.09,5.09,0,0,0-1.48.59,11.55,11.55,0,0,0-1.74.82.08.08,0,0,0,0,.15Z"/><path class="cls-12" d="M92.57,69.71a1,1,0,0,0,1.18-.35A2.07,2.07,0,0,0,94,67.27c-.28-.76-1.5-3-2.49-1.67-.14.18.1.37.27.35.95-.15,1.34.62,1.68,1.37a1.5,1.5,0,0,1-.85,2.26s-.08.1,0,.13Z"/><path class="cls-12" d="M92.72,65.71c.42.09,1,.15,1.19-.28a.18.18,0,0,0-.1-.26c-.37-.06-.67.14-1,.16-.21,0-.27.33,0,.38Z"/><path class="cls-12" d="M94.05,68.06a1.61,1.61,0,0,0-.15,1.22.23.23,0,0,0,.38.1c.32-.28.38-1.21-.13-1.34a.11.11,0,0,0-.1,0Z"/><path class="cls-10" d="M98.69,65c.26.6,1,1,1.39,1.52a9.72,9.72,0,0,1,1,1.76l.83-1.44h-.1a.86.86,0,0,0-.8.61l0,.09c-.36,1.47,2.1,1.61,1.83,0a5.08,5.08,0,0,0-1.28-2.32c-.5-.59-1.36-1.4-2.19-1.32a.74.74,0,0,0-.63,1.1Z"/><path class="cls-10" d="M101.34,66.72a4.79,4.79,0,0,0,.88,2.52c.43.79.74,1.75,1.74,1.82a.73.73,0,0,0,.65-.36c.42-.94-.25-1.65-.75-2.42a4.77,4.77,0,0,0-1.78-2,.5.5,0,0,0-.74.43Z"/><path class="cls-10" d="M102.8,75c.54.55,1.42.37,2.11.24a9.86,9.86,0,0,0,2.35-.85c1.14-.56.14-2.28-1-1.7a15.5,15.5,0,0,1-2,.78c-.59.19-1.23.26-1.57.82a.62.62,0,0,0,.09.71Z"/><path class="cls-10" d="M106.14,75.56A6.47,6.47,0,0,0,107.49,74c.53-.85-.91-1.65-1.32-.77a6.94,6.94,0,0,0-.59,2.09c0,.31.37.4.56.23Z"/><path class="cls-10" d="M101.62,75.32a2.31,2.31,0,0,0,2.23.4.9.9,0,0,0,.63-.84V74.8a.75.75,0,0,0-.54-.71l-.1,0a.87.87,0,0,0-.84.22,3.38,3.38,0,0,1-1.24.46.35.35,0,0,0-.15.59Z"/><path class="cls-10" d="M97.14,77.59c.44-.14.58-.45.75-.84s.51-.93.67-1.42a.79.79,0,0,0-1.3-.76,3.2,3.2,0,0,0-.75,2c0,.26.16,1.18.63,1Z"/><path class="cls-10" d="M102.65,74.41c1.44-.52,2-2.36,1.69-3.73-.24-1.12-2-.65-1.73.48a4.54,4.54,0,0,1-.43,2.78.38.38,0,0,0,.47.47Z"/><path class="cls-10" d="M101.51,53a25.5,25.5,0,0,0,2-1.79c.4-.54-.26-1.27-.84-1.1a2.53,2.53,0,0,0-1.3,1,2.73,2.73,0,0,0-.5,1.51c-.06.37.37.72.68.4Z"/><path class="cls-10" d="M108.16,50.84c-.15.33-.26.67-.4,1a11.84,11.84,0,0,0-.5,1.09.75.75,0,0,0,1.25.73,2.27,2.27,0,0,0,.27-2.82c-.14-.19-.5-.28-.62,0Z"/><path class="cls-10" d="M108.74,51a2.84,2.84,0,0,1-.49,1.76c-.22.38-.43,1.12.29,1.06s1-.84,1-1.37a2,2,0,0,0-.47-1.61.21.21,0,0,0-.36.16Z"/><path class="cls-10" d="M96.39,61.76,98,60a6.31,6.31,0,0,0,1.32-1.72.2.2,0,0,0-.27-.27,6.45,6.45,0,0,0-1.56,1.48L96,61.32c-.26.3.17.74.44.44Z"/><path class="cls-8" d="M94.3,53.51A5,5,0,0,0,95.74,53,4,4,0,0,0,97,52.39c.15-.15,0-.49-.19-.46a3.87,3.87,0,0,0-1.33.55,4.86,4.86,0,0,0-1.29.79.14.14,0,0,0,.09.24Z"/><path class="cls-8" d="M94.18,52.06A3.49,3.49,0,0,0,95.72,52a4.33,4.33,0,0,0,1.67-.42.23.23,0,0,0,0-.42,4.17,4.17,0,0,0-1.68.18,3.52,3.52,0,0,0-1.53.51c-.07.06,0,.17.05.2Z"/><path class="cls-8" d="M96.87,52.36a7.21,7.21,0,0,0,2.21-1c.09-.07,0-.26-.1-.24a7.11,7.11,0,0,0-2.22.94.15.15,0,0,0,.11.28Z"/><path class="cls-9" d="M94.27,58.12c.42-.16.71-.62,1-1s.63-.64.66-1.08a.15.15,0,0,0-.19-.14c-.44.13-.69.64-1,1A2.43,2.43,0,0,0,94.12,58c0,.07.09.14.15.12Z"/><path class="cls-9" d="M99.17,53a5.34,5.34,0,0,0,1.31-.65c.16-.13,0-.37-.2-.33a5.69,5.69,0,0,0-1.3.66c-.21.12,0,.41.19.32Z"/><path class="cls-1" d="M98.26,49.2a.89.89,0,0,0,0-1.78.89.89,0,0,0,0,1.78Z"/><path class="cls-1" d="M94,51a4.87,4.87,0,0,0,1.79-.45.16.16,0,0,0-.08-.29,5,5,0,0,0-1.78.48A.14.14,0,0,0,94,51Z"/><path class="cls-1" d="M94.12,51.09a4.23,4.23,0,0,0,2-.05,13.33,13.33,0,0,0,2.08-.37.21.21,0,0,0-.06-.4,13.15,13.15,0,0,0-2.25.26,3.71,3.71,0,0,0-1.82.5s0,0,0,.06Z"/><path class="cls-1" d="M98.18,50.58a4.56,4.56,0,0,0,1.88-.29.17.17,0,0,0,0-.31,4.7,4.7,0,0,0-1.88.3c-.16,0-.13.31,0,.3Z"/><path class="cls-1" d="M93.91,50.81A2.45,2.45,0,0,0,95.54,50a.18.18,0,0,0-.15-.26,2.47,2.47,0,0,0-1.57,1,.11.11,0,0,0,.09.16Z"/><path class="cls-1" d="M101.86,76.59a.69.69,0,0,0-.28-1,1.09,1.09,0,0,0-1.44.35,1.34,1.34,0,0,0,.09,1.56,1.51,1.51,0,0,0,1.56.45c.78-.18.45-1.38-.33-1.2a.3.3,0,0,1-.25,0c-.09-.06,0,0,.08,0s.4.15.57,0Z"/><path class="cls-1" d="M101.35,77c-1.11.51-1.71,3.13-.19,3.54.73.19,1.23-.42,1.49-1s.72-1.71.26-2.37a.4.4,0,0,0-.63-.08,2,2,0,0,0-.43,1.07,4.84,4.84,0,0,1-.19.65,4.22,4.22,0,0,0-.25.53c.14.12.18.1.1-.06v-.11a2.15,2.15,0,0,1,.09-.75,7.38,7.38,0,0,0,.21-1.14.3.3,0,0,0-.45-.26Z"/><path class="cls-1" d="M103.29,77.24a1,1,0,0,0-1,1.05,1.42,1.42,0,0,0,1.08,1.43,1.75,1.75,0,0,0,1.86-.7,2,2,0,0,0,0-2.15.69.69,0,0,0-.61-.35h-.09a.6.6,0,0,0-.57.44c-.11.43.15.6.2,1a.4.4,0,0,1-.27.47c-.45.13-.58-.55-.39-.83a.22.22,0,0,0-.19-.33Z"/><path class="cls-1" d="M105.07,76.88a4.64,4.64,0,0,0,.16.74,4.46,4.46,0,0,0,.15,1,1.3,1.3,0,0,0,1.74.84,1.59,1.59,0,0,0,.9-1.72c-.1-.63-.68-1.69-1.42-1.63a.61.61,0,0,0-.6.45.94.94,0,0,0,.18.79c.12.17.33.33.38.54,0,0,0,.15,0,.17.06.17-.24-.09,0,0s.1.08.09-.06,0-.22-.07-.33a1.64,1.64,0,0,0-.61-1.12c-.33-.23-.94-.19-1,.31Z"/><path class="cls-1" d="M106.25,76.47a4.18,4.18,0,0,0-.92-.32,5.86,5.86,0,0,0-.94-.07.66.66,0,0,0-.64.49.66.66,0,0,0,1,.75,5.87,5.87,0,0,1,1.47-.42.22.22,0,0,0,.06-.43Z"/><path class="cls-1" d="M107.12,55a1,1,0,0,0-1.44,1.17,1.35,1.35,0,0,0,2.09.67,1.48,1.48,0,0,0,0-2.32,1.45,1.45,0,0,0-2.36.86c0,.46.5.66.85.49.12-.06.5-.34.65-.3s.21.18.14.27a.22.22,0,0,1-.21,0c-.15-.15.14-.44.27-.47a.2.2,0,0,0,.05-.36Z"/><path class="cls-1" d="M107.46,54.74c0-1.07-1.56-1.13-2.17-.57s-.7,2.22.37,2.4a.58.58,0,0,0,.71-.71c0-.19-.35-.52-.18-.73s.65,0,.86,0a.41.41,0,0,0,.41-.41Z"/><path class="cls-1" d="M110.32,54.63c-1.07-.18-1.1,1.59,0,1.75a1.23,1.23,0,0,0,1.26-.7,1.54,1.54,0,0,0-.46-1.68.61.61,0,0,0-.59-.15l-.1,0a.5.5,0,0,0-.35.62.84.84,0,0,0,.31.45c.11.1.35.17.23.38s-.36-.06-.15-.29a.25.25,0,0,0-.11-.41Z"/><path class="cls-1" d="M109.89,53.53a4.57,4.57,0,0,1,.22,1.27.34.34,0,0,0,.48.2c.89-.38.43-1.73-.38-1.88a.28.28,0,0,0-.32.41Z"/><path class="cls-8" d="M95.33,83.91a40.52,40.52,0,0,0,6.8-1.94c2.53-.8,5.12-1.5,7.59-2.47a.31.31,0,0,0-.16-.59c-2.57.64-5.09,1.56-7.62,2.36a41.09,41.09,0,0,0-6.69,2.34c-.14.07-.08.32.08.3Z"/><path class="cls-8" d="M109.1,79.28a1.74,1.74,0,0,1,.18.9c0,.28-.19.49-.21.77s.27.35.46.26c.82-.39.53-1.77,0-2.24a.25.25,0,0,0-.39.31Z"/><path class="cls-8" d="M95.36,83.38c.12-.13,0,0,0,.06a.62.62,0,0,0-.12.3,2,2,0,0,0,.21,1,5.43,5.43,0,0,0,1.21,1.71.63.63,0,0,0,.89-.88A11.93,11.93,0,0,1,96.32,84c-.13-.21-.61-1-1-.62Z"/><path class="cls-8" d="M96.87,86.05A27.81,27.81,0,0,0,103,83.77c2.25-1,4.49-2,6.68-3.08.48-.24.06-.94-.42-.72-2.08,1-4.15,2-6.25,2.91a45.24,45.24,0,0,0-6.27,2.81.2.2,0,0,0,.15.36Z"/><path class="cls-8" d="M96.78,85.26c2.29.06,4.64-1.16,6.73-2,1.93-.79,4.19-1.43,5.73-2.85.34-.32.1-1.07-.41-1-2.11.26-4,1.49-6,2.32s-4.57,1.57-6.26,3.11a.25.25,0,0,0,.18.43Z"/><path class="cls-8" d="M96.74,84.66a13.75,13.75,0,0,0,2.38-.32,7.18,7.18,0,0,0,2.33-.67.78.78,0,0,0-.39-1.44,7.32,7.32,0,0,0-2.38.52,12.8,12.8,0,0,0-2.23.85.57.57,0,0,0,.29,1.06Z"/><path class="cls-10" d="M94.71,81.3a1.2,1.2,0,0,0-.07,1c.12.31.38.66.75.63a.19.19,0,0,0,.16-.29c-.24-.41-.7-.64-.59-1.21,0-.14-.18-.26-.25-.11Z"/><path class="cls-10" d="M94,80.93c0,.65.36,1.8,1.16,1.82a.2.2,0,0,0,.18-.25c-.08-.31-.35-.5-.54-.75a4.48,4.48,0,0,1-.52-.9c-.06-.15-.28-.06-.28.08Z"/><path class="cls-10" d="M95.25,85.71c-1.9.42-3.18,2.75-3.89,4.39a12.12,12.12,0,0,0-.9,6.51c.11.81,1.49.62,1.43-.19a12.06,12.06,0,0,1,1-6.22c.73-1.5,2.1-2.6,2.69-4.13.09-.22-.16-.4-.36-.36Z"/><path class="cls-10" d="M90.7,97.1a2.34,2.34,0,0,0,1.62.39,19.48,19.48,0,0,0,2.16-.06.71.71,0,0,0,0-1.41,19.48,19.48,0,0,0-2.16.06,2.36,2.36,0,0,0-1.62.48.39.39,0,0,0,0,.54Z"/><path class="cls-10" d="M94.55,97.16c.9-.94,1.66-2,2.51-2.93s2-1.57,2.37-2.65c.21-.55-.39-1-.87-.87-1.16.22-2.09,1.65-2.77,2.54a7.68,7.68,0,0,0-1.64,3.68.24.24,0,0,0,.4.23Z"/><path class="cls-10" d="M98,93c1,1,2.89,1.11,4.2,1.69a14.49,14.49,0,0,1,4.38,3.18c.88.91,2.2-.44,1.37-1.37a14.08,14.08,0,0,0-5-3.61c-1.38-.6-3.45-1.46-4.84-.57A.44.44,0,0,0,98,93Z"/><path class="cls-10" d="M105.21,95.61c-1.31,3.09-.89,7.12-.7,10.4s.27,7.39,1.66,10.44c.25.57,1.1.25,1.11-.3.06-3.49-1-7.08-1.2-10.61-.18-3.19.43-6.74-.3-9.85,0-.24-.46-.33-.57-.08Z"/><path class="cls-10" d="M105.49,115.48a2.36,2.36,0,0,0,.11,1,.45.45,0,0,0,.31.3.39.39,0,0,0,.42-.11.45.45,0,0,0,.11-.43,2.47,2.47,0,0,0-.38-.9.31.31,0,0,0-.57.16Z"/><path class="cls-10" d="M107,116.54a14.11,14.11,0,0,0,5.2-.94.57.57,0,0,0-.3-1.1,14.2,14.2,0,0,0-5,1.7.18.18,0,0,0,.09.34Z"/><path class="cls-10" d="M112.79,115.36c.55-3,.21-6.1.47-9.12.28-3.26.75-6.5.91-9.77.25-5.27-.32-11-3.48-15.36-.65-.9-2.13-.09-1.52.89,3.14,5.08,3.44,10.78,3,16.6-.25,3-.67,6-.84,9.07-.15,2.62-.3,5.37.9,7.77a.33.33,0,0,0,.61-.08Z"/><path class="cls-10" d="M96.63,87.31A5.53,5.53,0,0,0,98.29,87a6,6,0,0,0,1.63-.6.26.26,0,0,0-.13-.47,6.2,6.2,0,0,0-1.66.49,5.64,5.64,0,0,0-1.55.73.11.11,0,0,0,0,.2Z"/><path class="cls-10" d="M97,87.38a69.7,69.7,0,0,0,7.36-2.69,62.85,62.85,0,0,0,6.49-2.62c.52-.26.16-1.09-.39-.93A66.16,66.16,0,0,0,104,83.71a70.47,70.47,0,0,0-7.19,3.1.31.31,0,0,0,.24.57Z"/><path class="cls-10" d="M98.36,86.35a20.78,20.78,0,0,0,3.66-.64,16.41,16.41,0,0,0,3.59-1,.28.28,0,0,0-.14-.51,15.93,15.93,0,0,0-3.65.82,21.25,21.25,0,0,0-3.5,1.2.09.09,0,0,0,0,.16Z"/><path class="cls-10" d="M95.69,87.13c-3.58.81-4.31,5.93-3.58,8.85a.89.89,0,0,0,1.72-.47,7.13,7.13,0,0,1,.32-4.9c.5-1.09,1.38-1.92,1.92-3a.34.34,0,0,0-.38-.5Z"/><path class="cls-10" d="M94.12,96.72c1.24-.43,1.86-2.31,2.6-3.29a13,13,0,0,1,1.7-1.86c.61-.56,1.21-.82,1.44-1.64a.74.74,0,0,0-.71-.92c-1.52-.11-3.12,2.08-3.93,3.17s-2.24,3.08-1.45,4.4a.3.3,0,0,0,.35.14Z"/><path class="cls-10" d="M93.88,94.81c.57-.18.6-.55.86-1.06a8.94,8.94,0,0,1,1.65-2.25,11.33,11.33,0,0,1,2.22-1.69,8.89,8.89,0,0,0,2.23-1.44c.42-.48.19-1.51-.58-1.42-2.09.25-4.54,2.19-5.8,3.83a5.46,5.46,0,0,0-1.21,2.87c0,.29,0,1.36.63,1.16Z"/><path class="cls-10" d="M94.41,90.93a65.68,65.68,0,0,1,6.82-3.53c1.94-.74,4.48-.67,6.17-1.82a.43.43,0,0,0,0-.74c-2.19-1.07-5.3.24-7.39,1.12a12.72,12.72,0,0,0-5.94,4.63c-.15.22.13.45.34.34Z"/><path class="cls-10" d="M101.4,87.49a61.6,61.6,0,0,0,8.69-3.2c1-.45.14-2-.87-1.5a60.06,60.06,0,0,0-8,4.18.29.29,0,0,0,.22.52Z"/><path class="cls-10" d="M99.44,89.81c2.14.09,4.27-1.08,6.21-1.88s4.15-1.68,6.18-2.61c1-.44.27-2.1-.73-1.72-2.29.87-4.56,1.85-6.81,2.82-1.76.76-3.77,1.4-5.08,2.84a.33.33,0,0,0,.23.55Z"/><path class="cls-10" d="M99.12,91.35c1.94.27,3.74-.76,5.51-1.48q3.47-1.41,6.92-2.86c1.41-.59.28-2.6-.76-1.8l-.47.36c-.25.2-.43.64-.11.89l.38.3.43-1.64q-3.67,1.5-7.33,3c-1.7.72-3.61,1.26-4.74,2.77a.27.27,0,0,0,.17.41Z"/><path class="cls-10" d="M99.52,92.26c2.15.68,4.6-.18,6.64-.92a17.82,17.82,0,0,0,6.1-3.27c.57-.54,0-1.69-.8-1.38-2.13.84-4,2.1-6.21,2.88-1.91.69-4.1.91-5.82,2a.36.36,0,0,0,.09.66Z"/><path class="cls-10" d="M102.08,93c1.51,1.12,4.15.24,5.74-.34s3.92-1.33,4.57-3.05a.63.63,0,0,0-.6-.79c-1.75,0-3.42,1.61-5.1,2.16-1.49.5-3.47.49-4.66,1.57a.29.29,0,0,0,0,.45Z"/><path class="cls-10" d="M104.05,94.34c1.21,1.19,3.61.52,5-.06s3.66-1.8,3.67-3.45a.71.71,0,0,0-.88-.67c-.71.13-.92.5-1.45,1a8,8,0,0,1-2.1,1.35c-1.27.59-3,.5-4.16,1.3a.36.36,0,0,0-.07.55Z"/><path class="cls-10" d="M106,95.67c.65,1.1,2.68.48,3.64.15,1.27-.44,3.17-1.29,3.74-2.6.49-1.11-1.25-1.71-1.48-.62l0,.15a.63.63,0,0,0,.15.57l.09.07.36-1.35a10.5,10.5,0,0,0-1.79,1.19,9,9,0,0,1-2.47,1.11c-.35.11-2.74.43-2.21,1.33Z"/><path class="cls-10" d="M111.42,93.84a24.17,24.17,0,0,0-1.71,9.3c0,2.22,2.51,12-2.26,10.41-1-.33-1.53,1.12-.68,1.61,3.13,1.81,5.64-1.54,5.68-4.45,0-2.7-1-5.29-.88-8s.94-5.71.85-8.58c0-.49-.77-.78-1-.27Z"/><path class="cls-10" d="M107.26,115.81a3.44,3.44,0,0,0,2.75-.62c.71-.38,2.09-1,2-1.93a.71.71,0,0,0-.49-.64c-.83-.33-1.71.65-2.39,1a5,5,0,0,0-2.12,1.5.45.45,0,0,0,.27.66Z"/><path class="cls-10" d="M111,114.36a2.14,2.14,0,0,0,.13-1.93,52.16,52.16,0,0,1-.85-5.58,36.76,36.76,0,0,1,.4-10.1c.23-1.25-1.68-1.78-1.9-.53a35.45,35.45,0,0,0-.44,10.63c.27,2.15.52,6.42,2.63,7.52,0,0,0,0,0,0Z"/><path class="cls-10" d="M109.08,95.15c-2,2.08-2.32,5.83-2.39,8.61A26,26,0,0,0,108.56,114c.46,1.17,2.37.66,1.9-.52a24.62,24.62,0,0,1-1.8-9.32c0-2.94,1.27-5.87,1.12-8.75a.41.41,0,0,0-.7-.29Z"/><path class="cls-10" d="M109,113.88c-1.29-2.32-1.51-5.74-1.58-8.33-.08-3,.73-5.86,1-8.84a.83.83,0,0,0-1.54-.42c-1.76,3.54-1.74,8.37-1.24,12.2.13,1,.86,7.29,3.24,5.7a.24.24,0,0,0,.08-.31Z"/><path class="cls-10" d="M108,94.4c-1,.78-.76,2.56-.71,3.7s0,3,1,3.81a.65.65,0,0,0,1-.13c.63-1.15,0-2.67,0-3.94s.22-2.59-.62-3.44a.45.45,0,0,0-.61,0Z"/><path class="cls-10" d="M110.22,93.41c-1,.87-.78,2.66-.8,3.88a6.9,6.9,0,0,1-.34,2.67,2.86,2.86,0,0,0-.49,1.45.56.56,0,0,0,.4.52c1.57.34,2.15-1.55,2.31-2.78.18-1.5.6-4.63-.66-5.74a.3.3,0,0,0-.42,0Z"/><path class="cls-10" d="M106.29,95.19c-1,.76-1,2.16-1.11,3.34-.14,1.65-.47,3.63.07,5.21a.79.79,0,0,0,1.5,0c.5-1.51.26-3.32.33-4.89.06-1.22.37-2.64-.47-3.62a.26.26,0,0,0-.32,0Z"/><path class="cls-8" d="M90.65,98.62a8.45,8.45,0,0,0,3.19.69A.58.58,0,0,0,94,98.18a8.29,8.29,0,0,0-3.24-.31.41.41,0,0,0-.1.75Z"/><path class="cls-8" d="M90.62,98.07c-.42,2.82.28,6.27.84,9a.57.57,0,0,0,1.12-.15c-.18-2.82-.41-6.33-1.54-8.94a.23.23,0,0,0-.42,0Z"/><path class="cls-8" d="M93.51,99.07c-1.26,1.81-1.39,3.91-1.35,6.07.06,3-5,1.62-6.77,1.46-.86-.08-1,1.3-.2,1.49a23.09,23.09,0,0,0,4.76.55,3,3,0,0,0,3.79-3.75c-.07-1.91.24-3.78.23-5.69a.25.25,0,0,0-.46-.13Z"/><path class="cls-8" d="M84.9,107.52A7.65,7.65,0,0,1,87.25,106a3.28,3.28,0,0,1,3.37,1.12c.62.67,1.54-.3,1-1-1.75-2.14-6.79-2.31-7,1.2a.22.22,0,0,0,.34.19Z"/><path class="cls-8" d="M86.47,106.53c.39,1.45,3.53.85,4.52.55a.78.78,0,0,0-.42-1.5,28.41,28.41,0,0,1-3.06.38c-.23,0-1.16.12-1,.57Z"/><path class="cls-8" d="M92.31,99.21a3.28,3.28,0,0,0-.78,1.5,4,4,0,0,0,0,2,.79.79,0,0,0,1.54-.21,11.81,11.81,0,0,0-.37-3.13.25.25,0,0,0-.42-.11Z"/><path class="cls-8" d="M91.35,98.94c-.08,1,1.27,1.65,2.1,1.38a.73.73,0,0,0,0-1.4,5.46,5.46,0,0,0-1.07-.09,6.36,6.36,0,0,0-.87-.06.17.17,0,0,0-.16.17Z"/><path class="cls-8" d="M86.5,106.87c-.24.15-.48.29-.71.46s0,.21.09.15a7.85,7.85,0,0,0,.73-.44.1.1,0,0,0-.11-.17Z"/><path class="cls-8" d="M86.05,106.48a1.37,1.37,0,0,0,2.18.27.5.5,0,0,0-.17-.65c-.34-.24-.63-.1-1-.07a1.78,1.78,0,0,0-.88.17.25.25,0,0,0-.11.28Z"/><path class="cls-8" d="M106.33,117.9a7.54,7.54,0,0,0,2.79-.2,18.69,18.69,0,0,0,3.58-.67.4.4,0,0,0-.11-.79,15.37,15.37,0,0,0-3.22.54,8.71,8.71,0,0,0-3.08.85.15.15,0,0,0,0,.27Z"/><path class="cls-8" d="M106.07,117.54c-.41,2.15.4,4.52,1,6.59a31.73,31.73,0,0,0,2.62,7.17.57.57,0,0,0,1-.44c-.72-2.38-1.77-4.66-2.47-7.05-.61-2.07-.8-4.43-1.88-6.3a.15.15,0,0,0-.27,0Z"/><path class="cls-8" d="M111.87,117.21c-1.62,3.75-2,8.14-2.23,12.17,0,.93,1.4.93,1.44,0,.18-4,1-8,1.16-12.07,0-.18-.29-.28-.37-.1Z"/><path class="cls-8" d="M111.74,121.27a18.75,18.75,0,0,0-1.18,5.14c-.25,1.59-.78,3.22-.51,4.82a.54.54,0,0,0,1,.13c.82-1.39.84-3.16,1-4.74a13.75,13.75,0,0,0,0-5.31.19.19,0,0,0-.34,0Z"/><path class="cls-8" d="M111.43,117.34c-1.48,1.22-2,3.33-2.3,5.15-.26,1.48-.76,3.56.39,4.73a.5.5,0,0,0,.78-.1c.83-1.21.36-3.17.58-4.6.26-1.68,1-3.25,1.12-5a.34.34,0,0,0-.57-.23Z"/><path class="cls-8" d="M110.51,117.31c-2.13,1.81-3.46,5-2.28,7.8.33.77,1.43.31,1.47-.39a19.71,19.71,0,0,1,.08-3.6,15.23,15.23,0,0,1,1.13-3.5.26.26,0,0,0-.4-.31Z"/><path class="cls-8" d="M109.38,117.35a5.07,5.07,0,0,0-1.11.73,3.23,3.23,0,0,0-.68,1.16,4.37,4.37,0,0,0-.06,2.9.85.85,0,0,0,1.64-.46,5.09,5.09,0,0,1-.07-2,5.94,5.94,0,0,1,.59-2c.12-.18-.13-.43-.31-.31Z"/><path class="cls-8" d="M106.75,117.8c-.35.15-.42.71-.4,1a2,2,0,0,0,.56,1.34,1.8,1.8,0,0,0,2.45.12c.75-.64-.24-1.93-1.06-1.37-.09.06-.07.09-.17,0s-.28-.32-.35-.46c-.21-.36-.53-.93-1-.72Z"/><path class="cls-8" d="M106.9,118.77a6.51,6.51,0,0,0,2.74-.1,9.56,9.56,0,0,0,3-.54.7.7,0,0,0-.17-1.27,6.53,6.53,0,0,0-3.09.24,4.87,4.87,0,0,0-2.63,1.2.28.28,0,0,0,.12.47Z"/><path class="cls-8" d="M106,117.65c.63.11,1.88.36,2.36-.17a.35.35,0,0,0-.07-.54c-.6-.39-1.74.17-2.32.44a.15.15,0,0,0,0,.27Z"/><path class="cls-8" d="M109.63,126.26a2.94,2.94,0,0,0-.27,2.28c.09.68.09,1.82.82,2.13a.41.41,0,0,0,.52-.14c.43-.59,0-1.5-.15-2.16a3.94,3.94,0,0,0-.61-2.11.22.22,0,0,0-.31,0Z"/><path class="cls-8" d="M111.61,128.59a12.9,12.9,0,0,0,.37,1.95c.08.41.19,1-.13,1.35-.17.19-.46.25-.65.43a.43.43,0,0,0,.09.67c.93.7,1.81-.67,1.89-1.48a3.44,3.44,0,0,0-1.26-3.1.21.21,0,0,0-.31.18Z"/><path class="cls-8" d="M112.24,132.29a35.35,35.35,0,0,0-5,.11c-1.69,0-3.37-.09-5.06-.21-.87-.06-.83,1.24,0,1.34,3.15.36,7.27.59,10.21-.81.24-.11.09-.41-.11-.43Z"/><path class="cls-8" d="M101.6,133.23c1.13-.36,1.85-1.48,2.87-2.08a5.37,5.37,0,0,1,4.92-.47c.56.22,1-.7.41-1a5.76,5.76,0,0,0-4.9,0c-1.29.57-3.23,1.79-3.52,3.26,0,.13.08.27.22.22Z"/><path class="cls-8" d="M105.88,129.41a2.49,2.49,0,0,0-1.89.22c-.53.32-1.14,1-.93,1.66a.38.38,0,0,0,.55.23c.4-.19.68-.67,1-1a3,3,0,0,1,1.27-.77.19.19,0,0,0,0-.37Z"/><path class="cls-8" d="M103.61,131.89a5.12,5.12,0,0,0,3.35.35,16.87,16.87,0,0,0,3.86-.73.8.8,0,0,0-.43-1.54c-1.26.19-2.51.5-3.78.67a6.53,6.53,0,0,0-3,.74.3.3,0,0,0,0,.51Z"/><path class="cls-8" d="M103.77,132.09l0,.12a.71.71,0,0,0,.65.5,65.1,65.1,0,0,0,7.39-.25c1.08-.06,1.09-1.75,0-1.68a64,64,0,0,0-7.57.6.66.66,0,0,0-.47.47.72.72,0,0,0,0,.24Z"/><path class="cls-8" d="M105.56,131.27c.42,0,.86.11,1.28.13s.87.06,1.3.07a.75.75,0,0,0,0-1.5,5.57,5.57,0,0,0-1.46.24,8.33,8.33,0,0,0-1.24.6c-.22.11-.1.45.12.46Z"/><path class="cls-8" d="M102.71,132.55a5.19,5.19,0,0,0,1.35.31,1.47,1.47,0,0,0,1.29-.26.6.6,0,0,0-.12-.94c-.72-.43-1.92.12-2.56.52a.21.21,0,0,0,0,.37Z"/><path class="cls-8" d="M101.46,133.59l.11,0c.46-.13-.15-.75-.28-.28l0,.1a.16.16,0,0,0,.2.2Z"/><path class="cls-12" d="M102.75,132.61A9.46,9.46,0,0,1,104,131.4a15.75,15.75,0,0,0,1.5-.65.22.22,0,0,0,0-.4c-.58-.23-1.38.22-1.84.54a3,3,0,0,0-1.25,1.49.24.24,0,0,0,.4.23Z"/><path class="cls-12" d="M111.29,117.44a23.68,23.68,0,0,0-.85,6.26.3.3,0,0,0,.59.08,24.23,24.23,0,0,0,.64-6.29.2.2,0,0,0-.38,0Z"/><path class="cls-12" d="M86,106.59c.39-.12.64-.5,1-.63a8.89,8.89,0,0,1,1.25-.1.26.26,0,0,0,.11-.43c-.64-.67-2.71-.05-2.66,1a.21.21,0,0,0,.26.19Z"/><path class="cls-12" d="M92.89,99a7.75,7.75,0,0,0-.69,2.12,4.44,4.44,0,0,0-.25,2,.16.16,0,0,0,.28,0,6.86,6.86,0,0,0,.53-2,14.33,14.33,0,0,0,.42-2c0-.15-.22-.2-.29-.07Z"/><path class="cls-12" d="M110.32,82.16c.35,1.76,1.1,3.41,1.49,5.17a38.39,38.39,0,0,1,.75,6.24,72.67,72.67,0,0,1-.4,12.25c-.1.83,1.35,1,1.47.2a61.35,61.35,0,0,0,.62-13.87c-.26-3.4-.55-8-3.28-10.37a.39.39,0,0,0-.65.38Z"/><path class="cls-12" d="M90.7,94.58a.15.15,0,0,0,0-.29.15.15,0,0,0,0,.29Z"/><path class="cls-12" d="M95.84,90c-2.13.19-4.77,4-3.26,5.92a.36.36,0,0,0,.56-.07c.45-.88.3-2,.72-2.9A10.74,10.74,0,0,1,96,90.36c.1-.12,0-.35-.14-.33Z"/><path class="cls-12" d="M97.8,87.18A6.24,6.24,0,0,0,99.28,92c.83,1,2.61,2.32,3.85,1.28a.37.37,0,0,0,0-.52,7.28,7.28,0,0,0-1.52-.71A4.05,4.05,0,0,1,100,90.58c-.72-1.1-.87-2.52-1.71-3.52a.28.28,0,0,0-.47.12Z"/><path class="cls-12" d="M108.85,90.11a74.52,74.52,0,0,0-.21,9.09c0,.16.25.21.29,0a28.28,28.28,0,0,0,.39-9.13.24.24,0,0,0-.47,0Z"/><path class="cls-12" d="M96.17,55.18a13.39,13.39,0,0,1,1.68-1,8,8,0,0,0,1.63-.73.21.21,0,0,0-.09-.35,3,3,0,0,0-1.72.55A5.54,5.54,0,0,0,96,55c-.08.08,0,.24.13.17Z"/><path class="cls-12" d="M100.07,62.48c4.48,1.31,5.3,5.07,5,9.25,0,.42.56.44.69.09,1.38-3.83-.39-10.91-5.73-9.84a.26.26,0,0,0,0,.5Z"/><path class="cls-12" d="M104.34,49.91c1.18-.26,4-.18,3.74,1.56,0,.26.31.32.47.19.86-.67.12-1.7-.64-2.06a4.52,4.52,0,0,0-3.64,0,.13.13,0,0,0,.07.26Z"/><path class="cls-12" d="M93,71.85c-.59,3,1.19,7.14,3.33,9.18a.47.47,0,0,0,.73-.56,38.3,38.3,0,0,1-2.31-4.34c-.54-1.4-.74-2.9-1.3-4.28-.08-.19-.4-.25-.45,0Z"/><path class="cls-12" d="M78.78,13.56a14.06,14.06,0,0,0,1.94-1.07c.11-.09,0-.3-.15-.25a13,13,0,0,0-1.9,1.13.11.11,0,0,0,.11.19Z"/><path class="cls-12" d="M81.53,6.2c-.1-.29-.35-.56-.26-.9s.51-.37.73-.59a.18.18,0,0,0,0-.25c-.46-.55-1.27.15-1.4.66s.22,1.38.86,1.2a.09.09,0,0,0,.07-.12Z"/><path class="cls-12" d="M84.76,5.93a2.58,2.58,0,0,1,.42-.76.38.38,0,0,0-.26-.64c-.78,0-1.28,1.21-.47,1.52a.27.27,0,0,0,.31-.12Z"/><path class="cls-12" d="M73.58,23.05a.5.5,0,0,0,0-1,.5.5,0,0,0,0,1Z"/><path class="cls-12" d="M73.64,22.65a3,3,0,0,0,.92-.65c.06-.07,0-.21-.1-.17a3.09,3.09,0,0,0-.95.65.11.11,0,0,0,.13.17Z"/><path class="cls-12" d="M77.19,25.49a2.12,2.12,0,0,0,1.62-.67.21.21,0,0,0-.13-.3A2.09,2.09,0,0,0,77,25.1a.23.23,0,0,0,.16.39Z"/><path class="cls-12" d="M127.21,108.69c2.34-1.27,4-4.1,5.69-6.09,1.93-2.21,6.38-6,8.67-2a1,1,0,0,0,1.71-1c-1.7-3-5.29-3.29-8.11-1.7a18.85,18.85,0,0,0-4.83,4.64c-1.41,1.67-3.29,3.35-4,5.45a.59.59,0,0,0,.87.66Z"/><path class="cls-12" d="M144.2,100.29c1.71-2.55,2.81-5.22,5-7.44A36.13,36.13,0,0,1,157.56,87a44.51,44.51,0,0,1,9.54-4.12,23,23,0,0,1,5.46-.86c1.79-.06,3.52.38,5.29.34a.77.77,0,0,0,.39-1.42c-3-1.57-7.2-1-10.36-.29a43.34,43.34,0,0,0-11.32,4.64c-5.14,2.82-13.39,8-13.37,14.74a.55.55,0,0,0,1,.27Z"/><path class="cls-12" d="M123.5,132l.09,0a.85.85,0,0,0,.92-.38c2-3.19,4.24-6,7.9-7.39a13.85,13.85,0,0,1,5.48-.9c2.26.08,4.06,1,6.22,1.43.69.13,1.38-.75.75-1.29-3.36-2.9-9.44-2.56-13.31-1S124.29,127.1,123,131a.81.81,0,0,0,.37.92.3.3,0,0,0,.11.06Z"/><path class="cls-12" d="M142.74,123.23c1.52-1.2,2.47-3,3.93-4.37a18.68,18.68,0,0,1,4.74-3.11c3.33-1.5,7.41-1.19,10.44-3.34,1.52-1.08,2.44-2.67,3.61-4.08a12.23,12.23,0,0,1,5.33-3.71,17.48,17.48,0,0,1,6.42-.91c1.29,0,7.52.17,8,1.89a.72.72,0,0,0,1.3.17c2.25-3.57-7.48-4-9.28-4-4.73-.15-9.7,1.24-12.89,4.91-2,2.24-3.13,4.44-6.22,5.29-2.35.65-4.73.87-7,1.82-3.41,1.43-8.76,4.86-9.42,8.85a.65.65,0,0,0,1.07.62Z"/><path class="cls-12" d="M117.71,80.83a.71.71,0,0,0,.05.29.05.05,0,0,0,.1,0,.71.71,0,0,0,0-.29c0-.13-.21-.13-.2,0Z"/><path class="cls-13" d="M92.83,49.43c.07.88.15,1.76.23,2.64,0,.14.23.15.22,0-.06-.88-.13-1.76-.2-2.64,0-.16-.27-.16-.25,0Z"/><path class="cls-13" d="M93.87,51.71a27.36,27.36,0,0,0,5.53-1.1c.08,0,.08-.18,0-.17a27.43,27.43,0,0,0-5.52,1.11c-.09,0-.08.17,0,.16Z"/><path class="cls-13" d="M93.53,51.6c-.38,1.32-.68,2.67-1,4a.19.19,0,0,0,.27.21c2.66-1.57,5.34-3.11,8-4.73a.15.15,0,0,0,0-.23,6.05,6.05,0,0,0-.78-.74c-.07-.06-.2,0-.14.1.78,1-.59,1.37-1.41,1.84l-2.93,1.72c-.39.23-2.15,1.57-2.52,1.35-.09-.05.69-3.15.75-3.47a.12.12,0,0,0-.24-.06Z"/><path class="cls-13" d="M92.08,55c-4.68,9.45-1.33,19.68,2.33,28.88.11.29.59.17.48-.14-3.54-9.34-7-18.89-2.61-28.62.07-.14-.13-.26-.2-.12Z"/><path class="cls-13" d="M107.59,77.8a4.21,4.21,0,0,0,1.36-.71c.08-.08,0-.19-.1-.18a4,4,0,0,0-1.37.65c-.12.07,0,.3.11.24Z"/><path class="cls-13" d="M100.08,51.15c1.55,3.31,2.61,6.21,2.47,9.93,0,.38.57.38.59,0,.14-3.45-.56-7.33-2.69-10.14a.21.21,0,0,0-.37.21Z"/><path class="cls-13" d="M96.93,60.08c3.32.61,7.22.76,9.71,3.39,3.63,3.86,2.3,9.18-.54,13-.16.22.2.43.36.21,2.62-3.54,4.07-8.37,1.46-12.36-2.29-3.53-7-4.4-11-4.48-.13,0-.17.21,0,.24Z"/><path class="cls-13" d="M95.67,64.32c3.1-.94,6.45-.38,8.18,2.63s.35,6.46-1.84,8.9c-.19.22.12.54.33.33,2.55-2.6,3.84-6.49,1.75-9.78a6.54,6.54,0,0,0-8.52-2.33.14.14,0,0,0,.1.25Z"/><path class="cls-13" d="M102.46,76.11a19.91,19.91,0,0,0,4,0,.21.21,0,0,0,0-.4,19.91,19.91,0,0,0-4,0,.16.16,0,0,0,0,.31Z"/><path class="cls-13" d="M100.27,52.13c1.47-1.26,2.86-2.78,4.81-3.27a4,4,0,0,1,3.76.72,2.67,2.67,0,0,1,.21,3.69c-.15.17.09.42.25.25a3.19,3.19,0,0,0-1.48-5.06c-3-1.12-5.94,1.33-7.73,3.49a.13.13,0,0,0,.18.18Z"/><path class="cls-13" d="M102,53.65a3.07,3.07,0,0,1,3.5-2.63,3,3,0,0,1,2.15,3.31.18.18,0,0,0,.36.05,3.31,3.31,0,0,0-2.69-3.84,3.18,3.18,0,0,0-3.5,3.08c0,.1.16.13.18,0Z"/><path class="cls-13" d="M107.34,54.41a8.84,8.84,0,0,0,2.23-.9c.09-.07.08-.27-.07-.25a8.5,8.5,0,0,0-2.28.89c-.15.06,0,.32.12.26Z"/><path class="cls-13" d="M102,75.39c-.86-.1-2.13-.13-2.49.87-.17.48,0,1.67.78,1.4a.11.11,0,0,0,0-.2c-.21-.16-.37-.25-.43-.52a1,1,0,0,1,.17-.78c.43-.52,1.35-.46,1.94-.45.21,0,.2-.29,0-.32Z"/><path class="cls-13" d="M101.09,77.54a2.65,2.65,0,0,0-1.06,2,1.22,1.22,0,0,0,1,1.18,1.66,1.66,0,0,0,1.43-.64,3.48,3.48,0,0,0,.45-2.53c0-.19-.3-.19-.29,0,.06,1,.1,2.56-1.18,2.82-.76.15-1.17-.58-1-1.25a3.16,3.16,0,0,1,.83-1.39c.1-.12-.06-.29-.18-.18Z"/><path class="cls-13" d="M102.57,78.7a1.59,1.59,0,0,0,2.33,1.19c.76-.45,1.16-2.08.19-2.54a.14.14,0,0,0-.19.19,1.92,1.92,0,0,1,.32.95,1.21,1.21,0,0,1-.5,1,1.31,1.31,0,0,1-1.88-.81c0-.14-.29-.12-.27,0Z"/><path class="cls-13" d="M105.52,78.23c-.71,1.47,1.51,2.37,2.44,1.24a2.23,2.23,0,0,0,.3-2.2,3,3,0,0,0-1.8-1.78c-.11,0-.24.1-.16.21.56.8,1.56,1.12,1.65,2.26a1.64,1.64,0,0,1-.47,1.3,1,1,0,0,1-1.7-.92c0-.14-.18-.26-.26-.11Z"/><path class="cls-13" d="M95.29,83.23c4.52-1,9-2.6,13.42-4a.15.15,0,0,0-.08-.29c-4.47,1.25-9.06,2.4-13.42,4a.15.15,0,0,0,.08.29Z"/><path class="cls-13" d="M107.82,74.51a22.22,22.22,0,0,0,1.07,4.9c.06.16.33.15.31,0a22.34,22.34,0,0,0-1-4.91c-.06-.19-.39-.17-.36.05Z"/><path class="cls-13" d="M94.31,83.41A28,28,0,0,0,96.07,87a.18.18,0,0,0,.32-.18,25.18,25.18,0,0,0-1.83-3.49c-.08-.12-.3,0-.25.11Z"/><path class="cls-13" d="M96.33,86.75c4.91-2,9.76-4.13,14.63-6.21.1,0,.09-.18,0-.25-.57-.74-1.14-1.48-1.73-2.21-.1-.12-.32,0-.22.18.61.81,1.48,1.45.72,2.46-.64.84-3.74,1.6-4.68,2-3,1.26-5.91,2.5-8.83,3.83-.11,0,0,.24.08.19Z"/><path class="cls-13" d="M94.39,85.4c-2.08,2.49-4,5.2-4.49,8.48-.56,3.86.35,8.16,1,12,0,.17.3.13.29,0-.29-3.11-1-6.25-1.06-9.37,0-4.37,2-7.49,4.4-10.94.06-.08-.07-.19-.14-.11Z"/><path class="cls-13" d="M98.22,92.74A16,16,0,0,0,93.43,106c0,.27.44.29.44,0A19.37,19.37,0,0,1,98.5,93a.2.2,0,0,0-.28-.28Z"/><path class="cls-13" d="M90.57,104.66h-.22s0,0,0,0h.22a0,0,0,0,0,0,0Z"/><path class="cls-13" d="M90.57,104.9c-2.27-1.5-5.59-.19-6.71,2.14-.17.37.38.7.56.33a4.57,4.57,0,0,1,6-2.06c.25.09.37-.28.17-.41Z"/><path class="cls-13" d="M84,108.23c2,.24,4,.36,6,.44,1.2,0,2.85.28,3.81-.64s1-2.42-.2-2.93c-.25-.11-.47.23-.22.38.19,1.72-.29,2.54-1.46,2.48a5.1,5.1,0,0,1-1.17,0c-.75,0-1.51,0-2.26-.06-1.5,0-3,0-4.5,0a.13.13,0,0,0,0,.25Z"/><path class="cls-13" d="M89.64,97.55a20.73,20.73,0,0,0,5.11.77.25.25,0,0,0,.07-.49,20.92,20.92,0,0,0-5.12-.69.21.21,0,0,0-.06.41Z"/><path class="cls-13" d="M104.07,108.64a85.56,85.56,0,0,0,4.38,19.93c.08.22.42.13.35-.1a158.43,158.43,0,0,1-4.49-19.86c0-.13-.25-.1-.24,0Z"/><path class="cls-13" d="M114.79,99c.23-6.55-.24-13-3.64-18.75a.25.25,0,0,0-.44.25c3.37,5.69,3.8,12,3.58,18.5,0,.32.48.32.5,0Z"/><path class="cls-13" d="M112.26,128.76l1.11-12.12c0-.32-.47-.32-.5,0l-1.11,12.12c0,.32.47.32.5,0Z"/><path class="cls-13" d="M105.82,118l.1-.12c.43-.48-.76-.48-.33,0l.11.12a.09.09,0,0,0,.12,0Z"/><path class="cls-13" d="M105.63,117.39l7.45-1.19c.32,0,.19-.54-.13-.49l-7.46,1.19c-.31,0-.18.54.14.49Z"/><path class="cls-13" d="M108.41,129.14c-3.12-1.72-7.21,1-8.24,4-.11.31.36.43.48.14a6.28,6.28,0,0,1,3.43-3.54,8.2,8.2,0,0,1,4.28-.39c.1,0,.14-.15,0-.2Z"/><path class="cls-13" d="M101,133.9c2.49.25,5,.17,7.51.17,1.33,0,3.27.37,4.49-.3,2.25-1.22-.25-5.23-.79-6.85-.08-.25-.48-.14-.4.11a18.66,18.66,0,0,1,1.28,4c.17,2.62-1.68,2.41-3.64,2.42-2.81,0-5.65-.09-8.45.2a.15.15,0,0,0,0,.29Z"/><path class="cls-13" d="M96.51,93.61a11.67,11.67,0,0,1,4.52.92,20.56,20.56,0,0,1,3.13,2.13c.13.09.31-.1.22-.23-1.56-2.35-5.18-3.48-7.87-3.18a.18.18,0,0,0,0,.36Z"/><path class="cls-13" d="M96.68,88.2a17.85,17.85,0,0,0,1.53,2.22s.1,0,.07,0a16.8,16.8,0,0,0-1.54-2.21s-.08,0-.06,0Z"/><path class="cls-13" d="M99.43,91l.19,1.32s0,0,0,0L99.46,91s0,0,0,0Z"/><path class="cls-13" d="M98.84,91.5a12,12,0,0,0,.45,1.76c0,.08.18.08.17,0A11,11,0,0,0,99,91.45a.1.1,0,1,0-.19,0Z"/><path class="cls-13" d="M96.62,88.17a5.61,5.61,0,0,0,2.28,4A.1.1,0,0,0,99,92a7.26,7.26,0,0,1-2.21-3.9c0-.1-.2-.08-.19,0Z"/><path class="cls-13" d="M77.13,61.7a131.92,131.92,0,0,0,13.68-3.38.12.12,0,0,0-.06-.23A127.56,127.56,0,0,0,77.1,61.58a.06.06,0,0,0,0,.12Z"/><path class="cls-13" d="M103.55,56.21c13.16-2.68,26.2-6.23,39.25-9.38a.16.16,0,0,0-.08-.31c-13.06,3.15-26.27,5.94-39.21,9.56a.07.07,0,0,0,0,.13Z"/><path class="cls-13" d="M132.91,45A28.84,28.84,0,0,0,134,51.89a.16.16,0,0,0,.31,0,19.45,19.45,0,0,0-.42-3.22c-.2-1.22-.36-2.46-.66-3.66,0-.19-.37-.15-.35.05Z"/><path class="cls-13" d="M74.28,82.62c8.63-1.41,17.3-2.94,25.86-4.71.15,0,.08-.25-.06-.22-8.64,1.36-17.29,3-25.86,4.7-.15,0-.08.25.06.23Z"/><path class="cls-13" d="M108,76.63c13.56-2.12,27.09-4.78,40.56-7.42.15,0,.09-.27-.07-.24-13.52,2.31-27.12,4.63-40.54,7.46-.14,0-.08.22,0,.2Z"/><path class="cls-13" d="M137,67c-.16,3.59-.17,7.2-.18,10.79a.15.15,0,0,0,.3,0c.1-3.59.21-7.2.16-10.79a.14.14,0,0,0-.28,0Z"/><path class="cls-13" d="M106.2,55c-.75.21-.83,1.35-.36,1.86a1.25,1.25,0,0,0,2-.16,1.55,1.55,0,0,0-.38-2,1.83,1.83,0,0,0-2.43.32c-.09.12.07.24.18.18a2.29,2.29,0,0,1,1.68-.36,1.13,1.13,0,0,1,.77,1.26.89.89,0,0,1-1.78-.07,1.41,1.41,0,0,1,.44-.89c0-.07,0-.19-.1-.16Z"/><path class="cls-13" d="M108.3,55.13c.84-.38,1.62.79.67,1.23-.79.36-1.21-.72-.65-1.21.2-.18-.09-.47-.3-.3a1.11,1.11,0,0,0,1.3,1.79,1.09,1.09,0,0,0-1.21-1.82.18.18,0,0,0,.19.31Z"/><path class="cls-13" d="M109.21,55.15a1.94,1.94,0,0,0,2,1.78.22.22,0,0,0,.22-.16c.21-1.42-1.53-2.85-2.83-2a.22.22,0,0,0,.22.39A1.56,1.56,0,0,1,111,56.71l.23-.23a1.55,1.55,0,0,1-1.69-1.33c0-.22-.36-.23-.34,0Z"/><path class="cls-13" d="M110.45,55.07a.79.79,0,0,0,.79.94.91.91,0,0,0,.86-1.09c-.16-1.48-2.46-1.32-3.12-.33a.14.14,0,0,0,.12.2c.64,0,1.11-.56,1.79-.45a.8.8,0,0,1,.74.71c0,.56-.81.65-.78.07,0-.22-.36-.28-.4,0Z"/><path class="cls-13" d="M107.13,54a1.72,1.72,0,0,0-2.38.1c-.53.61-.61,1.95.24,2.34a.18.18,0,0,0,.24-.25c-.29-.56-.62-1.11-.23-1.73a1.31,1.31,0,0,1,1.92-.26c.14.11.35-.08.21-.2Z"/><path class="cls-13" d="M89.07,65.43c1.71-.34,3.41-.76,5.1-1.17a.31.31,0,0,0-.16-.6c-1.68.46-3.36.93-5,1.46a.16.16,0,0,0,.08.31Z"/><path class="cls-13" d="M93.76,63.84a28,28,0,0,0,1.85,5.52c.1.21.38.06.34-.14a28,28,0,0,0-1.89-5.51c-.07-.17-.34-.05-.3.13Z"/><path class="cls-13" d="M90.78,71.47c.79-.31,1.55-.69,2.32-1a17,17,0,0,0,2.59-1.3c.13-.09.06-.32-.11-.27a13.52,13.52,0,0,0-2.31,1.09c-.86.43-1.74.85-2.57,1.33-.1.06,0,.25.08.2Z"/><path class="cls-13" d="M91.46,66.71A1.58,1.58,0,0,0,90.68,69a1.72,1.72,0,0,0,2.66,0,1.91,1.91,0,0,0-.74-2.87,2.15,2.15,0,0,0-2.87,1.45.25.25,0,0,0,.49.14,1.69,1.69,0,0,1,2-1.15A1.38,1.38,0,0,1,93,68.68a1.18,1.18,0,1,1-1.4-1.77c.11,0,0-.24-.09-.2Z"/><path class="cls-13" d="M90.13,61.39l.23,0a.06.06,0,0,0,0-.11l-.23,0c-.1,0-.1.16,0,.15Z"/><path class="cls-13" d="M90.17,61.85c2.08-.5,3.45-1.94,4.8-3.54,2-2.38,3.61-3.93,6.68-4.77a.14.14,0,0,0,0-.28c-2-.43-3.8,1-5.12,2.34-2.13,2.15-3.57,4.72-6.47,6-.16.07,0,.31.11.27Z"/><path class="cls-13" d="M91.76,75.86a60.89,60.89,0,0,0,12.63-5.14.1.1,0,0,0-.08-.18A60.55,60.55,0,0,0,91.7,75.73a.07.07,0,0,0,.06.13Z"/><path class="cls-13" d="M97.61,93.52a.07.07,0,0,0,0-.14.07.07,0,0,0,0,.14Z"/><path class="cls-13" d="M97.79,93.3a23.33,23.33,0,0,0-2.86.94c-.07,0,0,.12,0,.11a20.91,20.91,0,0,0,2.86-.87.09.09,0,0,0,0-.18Z"/><path class="cls-13" d="M97.31,93.31a23.45,23.45,0,0,0-2.41,1.33c-.07,0,0,.18.06.14a23,23,0,0,0,2.45-1.3c.11-.06,0-.22-.1-.17Z"/><path class="cls-13" d="M97.32,93.56a12.17,12.17,0,0,0-2,1.57.09.09,0,0,0,.11.13,11.39,11.39,0,0,0,2-1.56c.07-.06,0-.2-.11-.14Z"/><path class="cls-13" d="M96.68,93.5a14,14,0,0,0-2.66.92c-.07,0,0,.18,0,.17a14.37,14.37,0,0,0,2.69-.82c.17,0,.1-.33-.08-.27Z"/><path class="cls-13" d="M95.13,85.49A15.82,15.82,0,0,0,94.25,87a.07.07,0,0,0,.12.06c.34-.48.6-1,.89-1.53,0-.09-.08-.16-.13-.08Z"/><path class="cls-13" d="M95.76,86.13c-.45.65-1,1.29-1.34,2,0,.08.07.18.13.1.49-.62.9-1.33,1.33-2,.06-.07-.07-.14-.12-.07Z"/><path class="cls-13" d="M95.57,87.47a6.07,6.07,0,0,0-.63.9c0,.06,0,.11.08.07a6.58,6.58,0,0,0,.71-.87c.07-.1-.09-.19-.16-.1Z"/><path class="cls-13" d="M94.7,86.57a12.78,12.78,0,0,0-1.08,1.13,0,0,0,0,0,.06.06,12.78,12.78,0,0,0,1.13-1.08.08.08,0,0,0-.11-.11Z"/><path class="cls-13" d="M94.09,87.08s0,0,0,0,0,0,0,0Z"/><path class="cls-13" d="M94.05,86.56a11.23,11.23,0,0,0-1.09.7s0,.08.05.06a12.23,12.23,0,0,0,1.12-.62.08.08,0,0,0-.08-.14Z"/><path class="cls-13" d="M93.77,87.45A28.79,28.79,0,0,0,92,90.08a.07.07,0,0,0,.11.08,28.43,28.43,0,0,0,1.79-2.64c.06-.08-.08-.15-.13-.07Z"/><path class="cls-13" d="M94,87.42c-1,1.31-2.12,2.61-3.09,4,0,0,0,.09.08,0,1.09-1.27,2.08-2.63,3.1-4,0,0,0-.12-.09-.07Z"/><path class="cls-13" d="M93.77,87.64c-1,1.32-2.12,2.61-3.1,4,0,.07.06.15.11.09,1.09-1.27,2.08-2.63,3.1-4,.07-.08,0-.19-.11-.11Z"/><path class="cls-13" d="M93.34,88.55c-1,1.24-2,2.46-2.84,3.76,0,0,0,.11.09.06,1-1.18,1.93-2.49,2.88-3.74.06-.08-.07-.16-.13-.08Z"/><path class="cls-13" d="M93.4,89.25l-.87,1.33s0,0,0,0l.89-1.31a0,0,0,0,0-.06,0Z"/><path class="cls-13" d="M94.41,88.53c-1.17,1.53-2.41,3-3.51,4.63,0,0,0,.12.09.07,1.25-1.49,2.38-3.08,3.55-4.63,0-.07-.07-.14-.13-.07Z"/><path class="cls-13" d="M94,89c-.88,1.16-1.83,2.3-2.62,3.53,0,.06,0,.13.09.07,1-1.1,1.79-2.35,2.67-3.52.07-.08-.08-.17-.14-.08Z"/><path class="cls-13" d="M110.4,83.75a23,23,0,0,1,2.46,8.82.11.11,0,0,0,.21,0,13.45,13.45,0,0,0-2.42-9,.14.14,0,0,0-.25.14Z"/><path class="cls-13" d="M113,97.65c-.47,4.83-.84,9.68-1.13,14.51,0,.14.2.14.21,0,.45-4.82.82-9.67,1.08-14.51,0-.11-.15-.1-.16,0Z"/><path class="cls-13" d="M105.25,99c-.47,4.15-.27,9,1.4,12.85.06.13.23,0,.21-.08-.83-4.34-1.61-8.31-1.4-12.77,0-.14-.19-.13-.21,0Z"/><path class="cls-13" d="M103.18,63.57c3.23,2.26,4.27,5.25,3.5,9.06-.05.22.27.39.39.16,1.76-3.31-.31-8.25-3.77-9.51-.17-.06-.25.19-.12.29Z"/><path class="cls-13" d="M106.79,49.78A3.57,3.57,0,0,1,108,50.84a10.41,10.41,0,0,1,.57,1.28c.06.13.23.05.24-.06.1-1.07-1-2.14-2-2.46a.1.1,0,0,0-.07.18Z"/><path class="cls-13" d="M109.57,53.08a.83.83,0,0,1,1.26.59c0,.27.47.2.47-.06a1.13,1.13,0,0,0-1.9-.76c-.12.11,0,.32.17.23Z"/><path class="cls-13" d="M102.43,56.13c.47.16,1.17-.17,1.63-.3a.24.24,0,0,0-.13-.47c-.46.13-1.23.22-1.55.6a.1.1,0,0,0,.05.17Z"/><path class="cls-13" d="M58.57,102.19c.45-.82,3.08,1.55,3.57,1.85a14.18,14.18,0,0,0,5.62,1.53A143.5,143.5,0,0,0,84.19,107a.1.1,0,0,0,0-.2c-3.55-.21-7.09-.42-10.63-.78-2.22-.23-4.47-.45-6.69-.82a14.62,14.62,0,0,1-2.06-.38,7.18,7.18,0,0,1-4.5-2.88c-1-.12-1.21-1.3-2,.14a.16.16,0,0,0,.28.16Z"/><path class="cls-13" d="M94.54,107.39a45.27,45.27,0,0,0,8.14.89c.22,0,.2-.3,0-.32a45.35,45.35,0,0,0-8.13-.66s-.07.08,0,.09Z"/><path class="cls-13" d="M115.18,109.26l8.57,1.26.07-.49-8.52-.19c-.32,0-.32.49,0,.5l8.52.19c.27,0,.35-.45.07-.49l-8.58-1.26c-.32,0-.45.44-.13.48Z"/><path class="cls-13" d="M103.34,109.48l-22.53-2.23c-6.39-.64-18.08.39-22.05-5.65a.18.18,0,0,0-.32.18c2.79,4.91,9.64,4.53,14.54,5,10.12,1,20.24,2,30.36,3,.17,0,.16-.24,0-.26Z"/><path class="cls-13" d="M101.13,133.14c-8.54.17-17.08.47-25.62.69-9.39.25-19.7,1.44-24.88-8.22a.26.26,0,0,0-.46.06c-.75,3.84,1.57,6.76,5.16,8,2.79,1,6,.67,8.84.65L77,134.18c16.72-.16,33.44-.2,50.16-.45a.18.18,0,0,0,0-.35c-11.48,0-23,.14-34.42.23l-17.7.13c-5.37,0-12.71,1.35-17.88-.27-2,0-3.32-1.07-3.94-3.3q-3.57-4.87-1.89-2.42c.57.72.32.51.91,1.21a14.57,14.57,0,0,0,3.89,3.32c3.42,2,7.24,2.16,11.09,2.09,11.32-.19,22.65-.62,34-1a.1.1,0,0,0,0-.19Z"/><path class="cls-12" d="M123.37,131.82c3.57-8.47,11.37-11.07,19.7-7.91.28.11.44-.31.2-.46-7.61-4.71-17.82-.06-20.09,8.31a.1.1,0,0,0,.19.06Z"/><path class="cls-12" d="M141,122.8a15,15,0,0,1,12.6-9.2c2.68-.23,5,.24,7.25-1.57,3-2.49,4-6.33,7.52-8.59,5.4-3.43,11.76-2.79,16.91.67.36.24.7-.35.34-.59-7.36-4.92-16.79-3.58-22.08,3.68a12.58,12.58,0,0,1-9.94,5.65,15.2,15.2,0,0,0-5.56,1.48,14.86,14.86,0,0,0-7.28,8.37c0,.14.18.24.24.1Z"/><path class="cls-12" d="M126.45,107.78c2.25-2.31,4.55-4.56,6.78-6.89,2.73-2.85,6.43-6.25,9.5-1.5.15.23.57.09.47-.2a4.55,4.55,0,0,0-6.32-2.57,13.46,13.46,0,0,0-3.72,3.3c-2.36,2.5-4.62,5.08-7,7.61-.15.16.09.41.25.25Z"/><path class="cls-12" d="M142.79,98.21c3.75-7.26,11.68-9.38,18.68-12.31,6.76-2.83,16.09-8.73,21.62-.54a.25.25,0,0,0,.43-.25c-3.23-7.08-12-4.33-17.4-1.94-8.35,3.71-19.26,5.93-23.58,14.89-.08.17.16.32.25.15Z"/><path class="cls-13" d="M104.17,96.07c.16,2.21.27,4.44.59,6.62,0,0,.07,0,.06,0,0-2.21-.28-4.42-.46-6.62,0-.12-.2-.12-.19,0Z"/><path class="cls-13" d="M104.69,96.55a142,142,0,0,0-.72,14.73.09.09,0,1,0,.18,0,139.34,139.34,0,0,0,.64-14.73c0-.07-.09-.06-.1,0Z"/><path class="cls-13" d="M104.74,97.41a21.68,21.68,0,0,0,.15-2.42c0-.09-.14-.11-.15,0-.11.81-.2,1.62-.23,2.44,0,.15.21.14.23,0Z"/><path class="cls-13" d="M104.68,97.65a21.81,21.81,0,0,0,.42-3.33c0-.07-.11-.08-.13,0a21.66,21.66,0,0,0-.49,3.31c0,.12.18.15.2,0Z"/><path class="cls-13" d="M104.91,97.63A21.3,21.3,0,0,0,105.1,95c0-.07-.11-.09-.12,0a21.51,21.51,0,0,0-.21,2.66.07.07,0,0,0,.14,0Z"/><path class="cls-13" d="M115,92.57c-.39,2.27-.84,4.55-1.08,6.84,0,.06.09.07.1,0,.51-2.25.8-4.55,1.16-6.82,0-.11-.16-.16-.18,0Z"/><path class="cls-13" d="M114.93,97c-.27.86-.51,1.74-.7,2.63a.11.11,0,0,0,.22.06c.25-.87.45-1.77.62-2.66a.07.07,0,0,0-.14,0Z"/><path class="cls-13" d="M113.75,100.89l-2.8,9.2c-.1.31.39.44.48.14l2.8-9.21c.1-.31-.39-.44-.48-.13Z"/><path class="cls-13" d="M112.68,105.55c-.16,3.65-.53,7.35-.42,11a.09.09,0,1,0,.17,0c.41-3.63.34-7.35.47-11,0-.14-.21-.14-.22,0Z"/><path class="cls-13" d="M112.08,111.5c.17,2.27.22,4.6.56,6.86,0,.13.23.09.22,0,0-2.27-.34-4.57-.53-6.83,0-.16-.26-.16-.25,0Z"/><path class="cls-13" d="M113.05,115.47c.06-3,.23-6,.1-9a.09.09,0,0,0-.18,0c-.22,3-.15,6-.19,9a.14.14,0,0,0,.27,0Z"/><path class="cls-13" d="M111.9,80.49c2.78,17.7.41,35.12-.68,52.88,0,.36.54.35.57,0,.77-9.38,1.48-18.8,1.95-28.2.41-8.18.59-16.78-1.56-24.75a.14.14,0,0,0-.28.07Z"/><path class="cls-13" d="M104.65,95.6c-2.23,11.32-.35,23.32,3.74,34,.18.47.94.27.76-.2-4.16-11.07-5-22-4.24-33.75,0-.15-.23-.19-.26,0Z"/><path class="cls-13" d="M108.66,129.3c-3.32-2-7.29.68-8.11,4.07-.13.54.71.77.83.23.82-3.56,3.87-4.56,7.13-3.95.21,0,.34-.24.15-.35Z"/><path class="cls-13" d="M95.39,85a11.69,11.69,0,0,0-5.81,8c-1,4.63,1.36,9.12,1.17,13.75,0,.56.85.56.88,0,.16-3.4-1-6.48-1.27-9.83C90,91.92,92,88.44,95.62,85.26c.17-.15-.05-.4-.23-.3Z"/><path class="cls-13" d="M93.7,106a32.89,32.89,0,0,1,5.18-12.35c.31-.43-.41-.84-.71-.41A26.24,26.24,0,0,0,93.32,106a.19.19,0,0,0,.38,0Z"/><path class="cls-13" d="M90.8,105c-2.84-2.21-6.6-.33-7.32,3a.45.45,0,0,0,.43.57l5.39.43c1.14.09,2.51.32,3.56-.28,2.09-1.19,1.84-4,1.24-5.92a.36.36,0,0,0-.7.19c.25,1.75,1,4.32-1.48,5.15a7.44,7.44,0,0,1-2.62,0l-5.39-.44.44.57c.71-3,3.53-3.85,6.21-2.82.22.09.43-.26.24-.41Z"/><path class="cls-13" d="M97.12,88.15c-5.52-11.06-7.19-21.32-3.81-33.36.14-.49-.58-.67-.76-.2-4.06,10.66-2.77,24.56,4.23,33.75a.19.19,0,0,0,.34-.19Z"/><path class="cls-13" d="M101.2,51.06a18.38,18.38,0,0,1,1.76,9.6.17.17,0,0,0,.33,0,13.59,13.59,0,0,0-1.8-9.81c-.11-.19-.38,0-.29.17Z"/><path class="cls-13" d="M103.07,60.88c4.84,3.77,6.53,9.42,3.17,14.93-.17.28.26.52.43.25,3.33-5.11,2.21-12.41-3.41-15.43-.15-.08-.34.13-.19.25Z"/><path class="cls-13" d="M108.16,74.39a19.62,19.62,0,0,0,1.56,3.76.12.12,0,0,0,.22-.09,20.21,20.21,0,0,0-1.55-3.77c-.06-.13-.28,0-.23.1Z"/><path class="cls-13" d="M109.17,77.89c.48.76,1,1.49,1.49,2.24a9.42,9.42,0,0,0,1.44,1.93c.08.07.25,0,.2-.12a9,9,0,0,0-1.32-2c-.53-.73-1-1.46-1.6-2.17-.09-.13-.3,0-.21.12Z"/><path class="cls-13" d="M82.15,11c-1.91.18-4.4,1.35-5.27,3.17a.13.13,0,0,0,.2.15,16.66,16.66,0,0,1,2.27-2,9.66,9.66,0,0,1,2.83-1.09c.12,0,.1-.24,0-.23Z"/><path class="cls-13" d="M78.46,14.76a3.45,3.45,0,0,0-1.22-1c-.14-.05-.24.12-.18.23a3.71,3.71,0,0,0,1.21,1c.16.1.31-.12.19-.25Z"/><path class="cls-13" d="M77.12,13.81a2.45,2.45,0,0,0-.88,1.59A1.91,1.91,0,0,0,76.6,17c.09.07.27,0,.25-.11a7,7,0,0,1-.21-1.37A2.55,2.55,0,0,1,77.31,14a.13.13,0,0,0-.19-.18Z"/><path class="cls-13" d="M76.47,17.3a1.8,1.8,0,0,0,1.6.37c.13-.05.16-.27,0-.31a8.15,8.15,0,0,1-1.45-.31.15.15,0,0,0-.15.25Z"/><path class="cls-13" d="M78.18,15.27A60.92,60.92,0,0,0,85,14c.29-.06.17-.5-.12-.44A57.23,57.23,0,0,0,78.14,15c-.13,0-.11.26,0,.25Z"/><path class="cls-13" d="M78.3,15c-.23,1.47-.24,4.85,1,5.94s4.83.08,6.29-.24c1.73-.38,2.66-1.28,2.4-3.1s-1-3.81-3-4c-.29,0-.29.43,0,.46,2.6.19,3.56,5.08,1,6a17.82,17.82,0,0,1-4,.67,2.23,2.23,0,0,1-2-.4c-.93-.58-.92-.69-1.09-1.64-.24-1.25-.28-2.53-.55-3.77,0,0-.06,0-.06,0Z"/><path class="cls-13" d="M87.07,16.13a4.22,4.22,0,0,0,4-.9.24.24,0,0,0,0-.29,1,1,0,0,0-1.28-.54.17.17,0,0,0,0,.3c.36.09.59.05.83.48l0-.29a5.49,5.49,0,0,1-3.63,1,.14.14,0,0,0,0,.28Z"/><path class="cls-13" d="M87.57,17.81a3.26,3.26,0,0,0,3.83-.94,1.65,1.65,0,0,0-.87-2.57c-.3-.07-.42.38-.13.45,1.35.34.84,1.94-.06,2.47s-1.87.17-2.76.51c0,0,0,.06,0,.08Z"/><path class="cls-13" d="M76.37,17.49c-.32,3.72-7.66,5.82-5.09,10a.15.15,0,0,0,.26-.15c-2.41-4,4.83-6.12,5-9.88,0-.12-.18-.12-.19,0Z"/><path class="cls-13" d="M71.42,27.62a3.6,3.6,0,0,0,3.46-2.83c0-.12-.16-.15-.22-.06a5.9,5.9,0,0,1-1.2,1.77,4.74,4.74,0,0,1-2.06,1,.07.07,0,0,0,0,.14Z"/><path class="cls-13" d="M72.05,27.68c1.68.56,4.11-.68,4.16-2.59,0-.07-.11-.11-.14,0-.75,1.68-2,2.79-4,2.52-.07,0-.1.09,0,.11Z"/><path class="cls-13" d="M75.7,26.56a37.41,37.41,0,0,1,7-1.36,10.68,10.68,0,0,0,4.12-.75c1.61-.82,2.6-2.65,1.37-4.21-.1-.12-.26,0-.2.16,1.76,3.75-2.65,4.19-4.54,4.38-.56.06-1.13.08-1.69.14a23.85,23.85,0,0,0-6,1.51c-.09,0-.06.16,0,.13Z"/><path class="cls-13" d="M71.89,25.14c.24-.57.43-1,1.09-1.13l-.2-.35a6.28,6.28,0,0,0-.8.91.15.15,0,0,0,.21.2,6.76,6.76,0,0,0,.88-.81.21.21,0,0,0-.15-.36c-.69.08-1.53.77-1.28,1.54a.13.13,0,0,0,.25,0Z"/><path class="cls-13" d="M81.36,11.45A7.19,7.19,0,0,0,83.6,8.32a4.28,4.28,0,0,0,.47-1.69c0-.2-.23-.33-.28-.55L83.93,5q3.79-1.18.71,1.92a.13.13,0,0,0-.17.13c0,1.45-.06,2.9-.07,4.35,0,.18.27.18.27,0,0-.72,0-1.45,0-2.17,0-.48-.21-1.65.19-2-.12.11.81-.19.72-.15a1.72,1.72,0,0,0,.59-.44,1.51,1.51,0,0,0-.69-2.4,1.48,1.48,0,0,0-2,1.28c-.1.85.31,1.42,0,2.33a11.91,11.91,0,0,1-2.2,3.56s0,.07,0,0Z"/><path class="cls-13" d="M81.16,11.09c.23-1.3.34-2.61.47-3.92A.17.17,0,0,0,81.47,7c.42,0-1.41-4.06,1.32-2a2.79,2.79,0,0,1,.82,1c.09.2.38,0,.29-.17-.68-1.4-3-2.49-3.87-.59a1.57,1.57,0,0,0,.7,2c.48.37.49.17.48.93,0,1-.19,1.95-.22,2.93,0,.09.16.12.17,0Z"/><path class="cls-13" d="M83.6,6.77a1.27,1.27,0,0,1-1.12.86c-.16,0-.16.28,0,.26A1.4,1.4,0,0,0,83.7,6.8a.05.05,0,0,0-.1,0Z"/><path class="cls-13" d="M82.56,7.75c-.24,1-.37,2-.54,3,0,.15.2.21.22.06.17-1,.36-2,.46-3,0-.08-.12-.1-.14,0Z"/><path class="cls-13" d="M84.14,11.6a7,7,0,0,1,6.15,3.34.17.17,0,0,0,.29-.17,6.33,6.33,0,0,0-6.48-3.43c-.15,0-.11.26,0,.26Z"/><path class="cls-13" d="M85.21,24.79c.56,2,1.83,3.76,2.69,5.63a64.16,64.16,0,0,1,2.71,7,66.14,66.14,0,0,1,2.83,14.29c0,.3.51.31.48,0A63.12,63.12,0,0,0,88.68,31c-.92-2.09-1.83-4.56-3.43-6.22,0,0,0,0,0,0Z"/><path class="cls-13" d="M91.45,16.18a88.21,88.21,0,0,1,8.7,34.18.23.23,0,0,0,.45,0,80.79,80.79,0,0,0-8.74-34.42c-.14-.27-.55,0-.41.24Z"/><path class="cls-13" d="M79.3,15.85a5.91,5.91,0,0,0,.6,4.2c.06.11.21,0,.17-.1a7.55,7.55,0,0,1-.64-4.08c0-.08-.11-.09-.13,0Z"/><path class="cls-13" d="M80,20a10.84,10.84,0,0,0,5.87-1,.12.12,0,0,0-.09-.22,26.26,26.26,0,0,1-2.85.8c-1,.19-2,.19-2.93.38A0,0,0,0,0,80,20Z"/><path class="cls-13" d="M86,18.83a7.51,7.51,0,0,0-.91-4.2c-.08-.14-.33-.05-.27.11a17.68,17.68,0,0,1,1.1,4.09,0,0,0,0,0,.08,0Z"/><path class="cls-13" d="M85.3,14.83a9.46,9.46,0,0,0-6.54,1.53c-.09.07,0,.25.08.2A28.29,28.29,0,0,1,82,15.38c1.09-.27,2.2-.29,3.31-.49,0,0,0-.06,0-.06Z"/><path class="cls-13" d="M81.42,15.51c-.44,1.45-.7,3-1,4.45,0,.13.17.19.2.06.34-1.48.75-3,1-4.46a.08.08,0,0,0-.16-.05Z"/><path class="cls-13" d="M82.75,15.68c-.53,1.38-.88,2.84-1.28,4.26a.11.11,0,0,0,.21.06c.41-1.42.88-2.85,1.16-4.3a0,0,0,1,0-.09,0Z"/><path class="cls-13" d="M77,15a1.81,1.81,0,0,0,.49,1.86s.1,0,.07-.06a2.41,2.41,0,0,1-.47-1.78A0,0,0,0,0,77,15Z"/><path class="cls-13" d="M93.81,20.92c-2.08,2.22-.16,5.9,2.71,6,.17,0,.22-.28,0-.31a3.68,3.68,0,0,1-3-2A3.87,3.87,0,0,1,93.92,21c0-.08-.06-.16-.11-.09Z"/><path class="cls-13" d="M87.61,29.46a3,3,0,0,1,4,2.84,6.23,6.23,0,0,1-1.32,3.92c-.12.18.16.33.27.16,1.14-1.61,1.91-3.72,1-5.61a2.94,2.94,0,0,0-4-1.49.1.1,0,0,0,.08.18Z"/><path class="cls-13" d="M97.91,34.64c-.57,1.22-2.58,2.61-2.22,4.18a1.91,1.91,0,0,0,.78,1.07,16.48,16.48,0,0,0,3.22,2c.12.06.27-.1.15-.2-1.09-.92-4-1.93-3.72-3.67.23-1.3,1.73-2,1.92-3.32,0-.08-.1-.14-.13-.06Z"/><path class="cls-13" d="M93,43.31a1.18,1.18,0,0,0,.87.32,7.38,7.38,0,0,1,.93-.06c1,.19,1,1,1.09,1.67s.65,2.17.36,2.83-1.86,1.36-2.5,1.78c-.24.15,0,.53.22.37l2.77-1.8a.23.23,0,0,0,.1-.24c-.19-.93-.35-1.87-.52-2.81-.11-.57-.11-1.4-.55-1.85-.69-.7-1.87-.08-2.7-.33a.07.07,0,0,0-.07.12Z"/><path class="cls-13" d="M89.34,24.37c-.58.5-1.58,1.82-1.13,2.61.19.34,1,.68,1.28.9s.85.6,1.29.88a1.45,1.45,0,0,0,1.47.28c1-.47,1.16-1.9.8-2.85a4.66,4.66,0,0,0-3.27-2.53c-.28-.09-.38.33-.12.43a6.21,6.21,0,0,1,2.41,1.33c.74.78,1.36,3.28-.36,3.19-.9,0-1.76-.9-2.51-1.39-.49-.34-.73-.58-.59-1.23a3.4,3.4,0,0,1,.89-1.46.11.11,0,0,0-.16-.16Z"/><path class="cls-13" d="M85,11.74c0,.71.1,1.42.17,2.12a.18.18,0,0,0,.26.16A7.67,7.67,0,0,1,87,13.41c.49-.12,1-.12,1.49-.27a.13.13,0,0,0,0-.25,5.11,5.11,0,0,0-3.25.82l.26.15c-.08-.72-.17-1.43-.3-2.15a.11.11,0,0,0-.22,0Z"/><path class="cls-13" d="M78.43,13.11a10.77,10.77,0,0,0,.65.86c.06.09.18,0,.23,0,.57-.74,1.89-.13,2.38-1,.38-.67-.34-1.23-.89-1.45-.15-.06-.21.16-.1.24.38.27,1.12.73.53,1.26a2,2,0,0,1-1.07.29,1.46,1.46,0,0,0-1.1.55l.23,0c-.23-.27-.45-.54-.7-.79-.08-.09-.24,0-.16.13Z"/><path class="cls-13" d="M81.19,24.9c-.69-.56,0-1.39.73-1.26s1.12.76,1.51,1.29c.14.2.47,0,.33-.19-.53-.82-1.49-1.88-2.59-1.39-.69.3-.94,1.47-.1,1.75.11,0,.21-.12.12-.2Z"/><path class="cls-13" d="M86.7,23.9a1,1,0,0,1-.49-1.3.92.92,0,0,1,1.3-.31.2.2,0,0,0,.2-.34,1.3,1.3,0,0,0-1.87.51,1.22,1.22,0,0,0,.78,1.65.11.11,0,0,0,.08-.21Z"/><path class="cls-13" d="M77,25.82a.76.76,0,0,0,.11-.33.2.2,0,1,0-.39,0,.92.92,0,0,0,.11.33.1.1,0,0,0,.17,0Z"/><path class="cls-13" d="M74.37,21.49a.92.92,0,0,0,1.48.14c.38-.47.21-1.39-.46-1.45a.13.13,0,0,0-.09.21c.25.26.56.6.35,1s-.9.34-1.17,0a.07.07,0,0,0-.11.09Z"/><path class="cls-13" d="M91.27,38.79a1,1,0,0,1,1.25.58.93.93,0,0,1-.7,1.14.18.18,0,0,0,.1.34,1.28,1.28,0,0,0,.91-1.63,1.2,1.2,0,0,0-1.65-.65c-.12.06,0,.25.09.22Z"/><path class="cls-13" d="M96.66,29.21c-.19.12-.37.11-.56.26a3.71,3.71,0,0,0-.55.5,4.8,4.8,0,0,0-.83,1.3.19.19,0,0,0,.16.29c.53.05,1.06.12,1.59.19a4.87,4.87,0,0,0,1.26.14c.12,0,.21-.19.07-.26a4.67,4.67,0,0,0-1.44-.29c-.49-.07-1-.12-1.48-.16l.19.24a4.58,4.58,0,0,1,.84-1.34l.44-.44.34-.38a0,0,0,1,0,0-.05Z"/><path class="cls-13" d="M97.89,43.93c-1.28,1.25.46,3.9,2.12,3.35a.17.17,0,0,0,0-.33,2.55,2.55,0,0,1-1.73-.76c-.56-.7-.36-1.38-.23-2.17a.1.1,0,0,0-.16-.09Z"/><path class="cls-13" d="M97.79,44a6.21,6.21,0,0,0,1,.66,2.3,2.3,0,0,0,1,.42c.1,0,.19-.13.12-.21a2.2,2.2,0,0,0-.92-.57,7,7,0,0,0-1.15-.45c-.09,0-.17.1-.09.15Z"/><path class="cls-13" d="M93.68,33.63A1.42,1.42,0,0,0,93.76,36c1,.57,2.21-.6,2-1.64a.22.22,0,0,0-.21-.17A4.88,4.88,0,0,1,94.2,34c-.39-.12-.74-.34-1.12-.47a.21.21,0,0,0-.2.34,3.91,3.91,0,0,0,2.64.75l-.22-.16c.17.76-.79,1.59-1.48,1.06a1.11,1.11,0,0,1,0-1.7c.11-.08,0-.26-.14-.19Z"/></svg>