<svg id="carracters" xmlns="http://www.w3.org/2000/svg" viewBox="0 0 198.43 35.16"><defs><style>.cls-1{fill:#6e6e6e;opacity:0.5;}.cls-2{fill:#fff;}</style></defs><path d="M184.42,23.77l-.95.74c-.2.15-.4.29-.59.45a.27.27,0,0,1-.32,0,35.18,35.18,0,0,0-6.74-2,6.9,6.9,0,0,0-2.79.12c-.27.06-.54.12-.81.2a1.36,1.36,0,0,0-1,1.34,1,1,0,0,0,.08.33,3.15,3.15,0,0,0,1.83,1.78,8.14,8.14,0,0,0,2.52.6,23.3,23.3,0,0,0,4.34,0c.63-.06,1.25-.15,1.88-.22l.19,0-.19,2.31h-1.65c-1,0-2.07.06-3.1.07a15.29,15.29,0,0,1-3.63-.45A7.51,7.51,0,0,1,170.83,28a3.89,3.89,0,0,1-1.77-2.88,3.32,3.32,0,0,1,1.66-3.22,5.09,5.09,0,0,1,2.28-.72,16.35,16.35,0,0,1,5.21.46c.68.16,1.36.35,2,.52l.18,0-1.83-3a17.51,17.51,0,0,1-4.62.29c-1.18,0-2.35-.12-3.52-.2a7.67,7.67,0,0,1-.93-.19v-2c2.66.7,5.35.44,8.06.28l-.08-.18c-.37-.73-.73-1.46-1.09-2.19a.24.24,0,0,0-.26-.16c-1.23,0-2.47-.06-3.7,0a13.37,13.37,0,0,1-2.89-.29l0,0V12.55a17.39,17.39,0,0,0,6.19.27l-.49-3.26,2.08.1a6,6,0,0,0,.06.75c.12.69.27,1.37.4,2.05,0,.12.08.17.2.15.61-.12,1.22-.2,1.82-.35.91-.23,1.82-.51,2.73-.76l.21-.06a.93.93,0,0,1,0,.14c0,.56,0,1.12,0,1.68,0,.12,0,.17-.15.2L179,14.4c-.19,0-.39.07-.61.11l.46,1c.21.45.42.9.62,1.36a.24.24,0,0,0,.32.16l3.18-.84c.37-.1.73-.22,1.09-.34l.34-.12c0,.62,0,1.23,0,1.85,0,.05-.09.12-.15.13-1.1.33-2.2.64-3.3,1l-.29.1A55.36,55.36,0,0,0,184.42,23.77Z"/><path class="cls-1" d="M149.79,23.26l-1,.74c-.19.15-.4.29-.58.45a.29.29,0,0,1-.33,0,35.18,35.18,0,0,0-6.74-2,6.92,6.92,0,0,0-2.79.12c-.27.06-.54.12-.81.2a1.38,1.38,0,0,0-1,1.34,1,1,0,0,0,.09.33,3.18,3.18,0,0,0,1.82,1.79,8.5,8.5,0,0,0,2.53.6,23.2,23.2,0,0,0,4.33,0c.63-.06,1.26-.15,1.88-.22l.2,0-.2,2.31h-1.64c-1,0-2.07.06-3.11.07a15.21,15.21,0,0,1-3.62-.45,7.44,7.44,0,0,1-2.65-1.09,3.9,3.9,0,0,1-1.78-2.88,3.32,3.32,0,0,1,1.67-3.22,5,5,0,0,1,2.27-.72,16.3,16.3,0,0,1,5.21.46c.69.16,1.36.35,2,.52l.19,0-1.84-3a17.45,17.45,0,0,1-4.62.29c-1.17,0-2.34-.12-3.52-.2a7.67,7.67,0,0,1-.93-.19v-2c2.66.7,5.35.44,8.06.28a1.05,1.05,0,0,0-.08-.18l-1.09-2.19a.24.24,0,0,0-.25-.16c-1.24,0-2.48-.05-3.71,0a13.22,13.22,0,0,1-2.88-.29l-.05,0V12a17.2,17.2,0,0,0,6.2.27l-.49-3.26,2.07.1c0,.26,0,.51.06.76.13.68.27,1.36.4,2,0,.13.09.17.21.15.6-.11,1.21-.2,1.81-.35.92-.23,1.82-.51,2.74-.76l.2-.06a.93.93,0,0,1,0,.14v1.68c0,.12,0,.17-.15.21l-3.58.93c-.19,0-.38.07-.6.11l.46,1c.2.45.42.9.61,1.36a.23.23,0,0,0,.32.16c1.06-.29,2.13-.56,3.19-.84.36-.1.72-.22,1.08-.34l.35-.12c0,.62,0,1.24,0,1.85,0,.05-.09.12-.15.14l-3.31,1-.28.09A52.26,52.26,0,0,0,149.79,23.26Z"/><path class="cls-1" d="M112.9,23.26,112,24c-.2.15-.4.29-.58.45a.29.29,0,0,1-.33,0,35.18,35.18,0,0,0-6.74-2,6.91,6.91,0,0,0-2.79.12c-.27.06-.54.12-.81.2a1.37,1.37,0,0,0-1,1.34,1,1,0,0,0,.09.33,3.15,3.15,0,0,0,1.82,1.79,8.5,8.5,0,0,0,2.53.6,23.2,23.2,0,0,0,4.33,0c.63-.06,1.25-.15,1.88-.22l.2,0-.2,2.31H108.7c-1,0-2.07.06-3.11.07a15.35,15.35,0,0,1-3.63-.45,7.46,7.46,0,0,1-2.64-1.09,3.9,3.9,0,0,1-1.78-2.88,3.33,3.33,0,0,1,1.66-3.22,5.09,5.09,0,0,1,2.28-.72,16.3,16.3,0,0,1,5.21.46c.69.16,1.36.35,2,.52l.19,0-1.84-3a17.48,17.48,0,0,1-4.62.29c-1.17,0-2.35-.12-3.52-.2a7.67,7.67,0,0,1-.93-.19v-2c2.66.7,5.35.44,8.06.28a1.05,1.05,0,0,0-.08-.18l-1.09-2.19a.24.24,0,0,0-.26-.16c-1.23,0-2.47-.05-3.7,0A13.22,13.22,0,0,1,98.06,14l0,0V12a17.2,17.2,0,0,0,6.2.27l-.49-3.26,2.07.1c0,.26,0,.51.06.76.13.68.27,1.36.4,2,0,.13.08.17.21.15.6-.11,1.21-.2,1.81-.35.92-.23,1.82-.51,2.74-.76l.2-.06a.93.93,0,0,1,0,.14v1.68a.18.18,0,0,1-.15.21l-3.58.93c-.19,0-.38.07-.6.11.16.35.31.67.45,1s.43.9.62,1.36a.23.23,0,0,0,.32.16c1.06-.29,2.13-.56,3.19-.84.36-.1.72-.22,1.08-.34l.35-.12c0,.62,0,1.24,0,1.85,0,.05-.09.12-.16.14l-3.3,1-.28.09A53.89,53.89,0,0,0,112.9,23.26Z"/><path d="M134.85,16.48a17.68,17.68,0,0,0,5.47.37,32.38,32.38,0,0,0,4.51-.48c1.45-.23,2.4-.51,3.84-.78.32-.05.75-.28,1.09-.36,0,.06.19.45.19.5,0,.55.21.91.21,1.46,0,.13,0,.18-.16.21-1.38.31-2.75.64-4.13.93-.63.13-1.24.35-1.88.43a15.12,15.12,0,0,1-1.65.17c-1.36.06-2.72,0-4.08,0a17,17,0,0,1-3.26-.29c-.09,0-.18,0-.17-.15V16.55A.25.25,0,0,1,134.85,16.48Z"/><path d="M134.85,12c.41.09.8.19,1.2.26a15,15,0,0,0,2.68.13,35.14,35.14,0,0,0,6.7-.88c.85-.17,1.69-.4,2.53-.6h.13c0,.66,0,1.32,0,2l-1.43.38c-.82.21-1.51.44-2.34.61a24.47,24.47,0,0,1-2.43.33,13.73,13.73,0,0,1-1.7.09c-1.08,0-2.17,0-3.25,0a12.69,12.69,0,0,1-2-.29.19.19,0,0,1-.1-.13C134.81,13.26,134.85,12.64,134.85,12Z"/><path d="M98,12.06c.43.09.82.19,1.22.26a13,13,0,0,0,2.64.12c.79,0,1.58,0,2.37-.13s1.76-.26,2.63-.41a38.68,38.68,0,0,0,4.27-.94h.11v1.5c0,.47,0,.47-.45.59-1.06.28-2.12.58-3.19.83-.65.15-1.32.19-2,.32a17.31,17.31,0,0,1-3.45.15c-.69,0-1.37,0-2.05,0s-1.34-.18-2-.28a.17.17,0,0,1-.1-.13C98,13.28,98,12.67,98,12.06Z"/><path d="M169.45,27.93l.14-.13.45.37-.55.39-.1-.15.24-.17a4,4,0,0,1-2.27-4.31A4,4,0,0,1,170,20.76l.06.14a3.88,3.88,0,0,0-.62,7Z"/><path d="M186,26.48l-1.1-2.15c-.06-.11-.1-.2.08-.23l.69,1.34.55,1.07a.56.56,0,0,1,0,.2l-3-.56.2.41c-.08.12-.15.1-.21,0s-.19-.38-.29-.56l.57-.6.14.11-.44.47Z"/><path d="M97,10.82c0-.17,0-.17.14-.17l2.62.08h.17l-.23-.28.14-.1.46.5-.49.56-.13-.11.31-.38Z"/><path d="M178.06,8.54l.86,2.51.15-.25.14.06v0c-.35.66-.09.59-.89.28,0-.14,0-.14.44,0-.11-.33-.21-.64-.32-.95-.16-.5-.33-1-.5-1.48C177.89,8.61,177.91,8.55,178.06,8.54Z"/><path d="M137.32,15.25V15l.06,0,.45.37-.54.37c-.12-.13-.12-.13.11-.31l-.8-.06-1.93-.13c-.11,0-.21,0-.13-.19Z"/><path class="cls-2" d="M33.86,23.2l-1,.74c-.19.15-.4.29-.58.45a.29.29,0,0,1-.33,0,35.18,35.18,0,0,0-6.74-2,6.92,6.92,0,0,0-2.79.12,8,8,0,0,0-.81.2,1.37,1.37,0,0,0-1,1.34,1,1,0,0,0,.09.33,3.13,3.13,0,0,0,1.82,1.78,8.2,8.2,0,0,0,2.53.6,23.2,23.2,0,0,0,4.33,0c.63-.06,1.26-.15,1.88-.22l.2,0-.2,2.31H29.65c-1,0-2.07.06-3.11.07a15.21,15.21,0,0,1-3.62-.45,7.44,7.44,0,0,1-2.65-1.09,3.92,3.92,0,0,1-1.78-2.88,3.32,3.32,0,0,1,1.67-3.22,4.9,4.9,0,0,1,2.27-.72,16.3,16.3,0,0,1,5.21.46c.69.16,1.36.35,2,.52l.19,0-1.84-3a17,17,0,0,1-4.62.28c-1.17,0-2.35-.11-3.52-.19a6.18,6.18,0,0,1-.93-.2v-2c2.66.7,5.35.44,8.06.28a1.05,1.05,0,0,0-.08-.18l-1.09-2.19a.24.24,0,0,0-.25-.16c-1.24,0-2.48-.06-3.71,0A13.22,13.22,0,0,1,19,14l-.05,0V12a17.43,17.43,0,0,0,6.2.27L24.67,9l2.07.1c0,.26,0,.51.06.75.13.69.27,1.37.4,2.05,0,.12.09.17.21.15.6-.12,1.21-.2,1.81-.35.92-.23,1.82-.51,2.74-.76l.2-.06a.93.93,0,0,1,0,.14v1.68c0,.12,0,.17-.15.2l-3.58.94c-.19.05-.38.07-.6.11l.46,1c.2.45.42.9.61,1.36a.24.24,0,0,0,.32.16l3.19-.85c.36-.09.72-.21,1.08-.33l.35-.12c0,.62,0,1.23,0,1.85,0,.05-.09.12-.15.13-1.1.33-2.21.64-3.31,1l-.28.1A53.54,53.54,0,0,0,33.86,23.2Z"/></svg>