<?xml version="1.0" encoding="utf-8"?>
<!-- Generator: Adobe Illustrator 24.1.2, SVG Export Plug-In . SVG Version: 6.00 Build 0)  -->
<svg version="1.1" id="Layer_1" xmlns="http://www.w3.org/2000/svg" xmlns:xlink="http://www.w3.org/1999/xlink" x="0px" y="0px"
	 viewBox="0 0 231.1 125.7" style="enable-background:new 0 0 231.1 125.7;" xml:space="preserve">
<style type="text/css">
	.st0{fill:#FFFFFF;}
	.st1{fill:#00ADB9;}
	.st2{fill:#231F20;}
</style>
<g id="Layer_1_1_">
	<g id="Layer_7">
		<path class="st0" d="M71.3,53.3c10.2-16.3,32.4-13.9,45.1-2.1c7.1,6.6,17.7-4,10.6-10.6C107.1,22.2,73.8,21,58.3,45.8
			C53.2,54,66.2,61.5,71.3,53.3L71.3,53.3z"/>
		<path class="st0" d="M123.2,79.7c0.6,0.6,1.2,1.3,1.8,2l-1.2-1.5c0.8,1,1.4,2.1,1.9,3.3l-0.7-1.8c0.1,0.2,0.2,0.5,0.3,0.7
			c0.6,1.9,1.8,3.4,3.4,4.5c3.6,2.1,8.2,0.9,10.3-2.7l0,0c0.9-1.7,1.5-3.9,0.8-5.8c-1.3-3.5-3.3-6.7-5.9-9.3c-2.9-2.7-7.8-3-10.6,0
			S120.2,76.9,123.2,79.7L123.2,79.7z"/>
		<path class="st0" d="M106.8,104.5l31.9-2c9.6-0.6,9.7-15.6,0-15l-31.9,2C97.2,90.1,97.1,105.1,106.8,104.5z"/>
		<path class="st0" d="M137.7,85.6c-0.4,2.6-1.1,5.2-2,7.6c-1.4,3.7,1.5,8.4,5.2,9.2c4.3,1,7.8-1.3,9.2-5.2c0.9-2.5,1.6-5,2-7.6
			c0.5-2,0.2-4-0.8-5.8c-1-1.7-2.6-2.9-4.5-3.4C143.4,79.5,138.3,81.4,137.7,85.6z"/>
	</g>
	<path class="st0" d="M61.2,89.3c0,0-12.9-45.2,8.9-56.2c22.5-11.3,57.4-12.7,75.9,37.4C164.1,119.6,61.2,89.3,61.2,89.3z"/>
	<path class="st0" d="M21.6,98.8c63.9,19.9,133.7,15.7,195.1-10.7c3.8-1.6,4.5-7,2.7-10.3c-2.2-3.9-6.6-4.3-10.3-2.7
		C151.5,100,85.4,103,25.6,84.3C16.4,81.5,12.4,95.9,21.6,98.8L21.6,98.8z"/>
	<path class="st0" d="M35.5,117.4c55.9,8,111.7-0.7,166.9-9.7c9.5-1.6,5.5-16-4-14.5c-52.3,8.5-106,17.2-159,9.7c-4-0.6-8,1-9.2,5.2
		C29.2,111.7,31.4,116.8,35.5,117.4L35.5,117.4z"/>
	<path class="st0" d="M167.8,93.7v-0.3c0-2-0.8-3.9-2.2-5.3c-1.5-1.3-3.3-2.1-5.3-2.2c-2,0-3.9,0.8-5.3,2.2
		c-1.4,1.4-2.2,3.3-2.2,5.3v0.3c0,2,0.8,3.9,2.2,5.3c0.7,0.7,1.5,1.3,2.4,1.6c0.9,0.5,1.9,0.7,2.9,0.7c2,0,3.9-0.8,5.3-2.2
		C167,97.6,167.8,95.7,167.8,93.7L167.8,93.7z"/>
	<path class="st0" d="M169.4,83.6h-0.3c-2,0-3.9,0.8-5.3,2.2c-0.7,0.7-1.3,1.5-1.6,2.4c-0.5,0.9-0.7,1.9-0.6,2.9
		c0,2,0.8,3.9,2.2,5.3s3.3,2.2,5.3,2.2h0.3c2,0,3.9-0.8,5.3-2.2c0.7-0.6,1.2-1.5,1.6-2.4c0.5-0.9,0.7-1.9,0.6-2.9
		c0-2-0.8-3.9-2.2-5.3C173.3,84.4,171.4,83.6,169.4,83.6L169.4,83.6z"/>
	<path class="st0" d="M161.6,89.5v0.3c0,2,0.8,3.9,2.2,5.3c1.4,1.3,3.3,2.1,5.3,2.2c2,0,3.9-0.8,5.3-2.2c1.4-1.4,2.2-3.3,2.2-5.3
		v-0.3c0-2-0.8-3.9-2.2-5.3c-0.6-0.7-1.5-1.2-2.4-1.6c-0.9-0.5-1.9-0.7-2.9-0.6c-2,0-3.9,0.8-5.3,2.2
		C162.4,85.6,161.6,87.5,161.6,89.5L161.6,89.5z"/>
	<path class="st0" d="M172.3,98.6h0.3c2,0,3.9-0.8,5.3-2.2c1.3-1.4,2.1-3.3,2.2-5.3c0-2-0.8-3.9-2.2-5.3s-3.3-2.2-5.3-2.2h-0.3
		c-2,0-3.9,0.8-5.3,2.2c-1.3,1.5-2.1,3.3-2.2,5.3c0,2,0.8,3.9,2.2,5.3S170.3,98.6,172.3,98.6L172.3,98.6z"/>
	<path class="st0" d="M52.2,93.4V93c0-2-0.8-3.9-2.2-5.3c-0.7-0.7-1.5-1.3-2.4-1.6c-0.9-0.5-1.9-0.7-2.9-0.7c-2,0-3.9,0.8-5.3,2.2
		C38,89.1,37.3,91,37.2,93v0.3c0,2,0.8,3.9,2.2,5.3c0.7,0.7,1.5,1.3,2.4,1.6c0.9,0.5,1.9,0.7,2.9,0.7c2,0,3.9-0.8,5.3-2.2
		C51.4,97.2,52.2,95.3,52.2,93.4L52.2,93.4z"/>
	<path class="st0" d="M54.2,101.5c9.6,0,9.7-15,0-15S44.5,101.5,54.2,101.5z"/>
	<path class="st0" d="M59.7,102.8c9.6,0,9.7-15,0-15S50,102.8,59.7,102.8z"/>
	<path class="st0" d="M71.7,95.7c24.1,1.8,48.4,0.7,72.3-3.4c9.5-1.6,5.5-16.1-4-14.5c-22.6,3.8-45.5,4.7-68.3,2.9
		C62.1,79.9,62.1,94.9,71.7,95.7L71.7,95.7z"/>
	<path class="st0" d="M147.6,74.8c-5-10.9-12.3-20.5-21.4-28.2c-9.4-7.8-21.2-15-34-14.2C66.8,34.2,52.5,63,66.5,84.2
		c5.3,8,18.3,0.5,13-7.6c-4.3-6.4-5.1-14.9-0.5-21.4c4.3-6,11.8-8.9,19.1-7.4c16.6,3.5,29.8,19.9,36.6,34.5
		C138.6,91.1,151.6,83.5,147.6,74.8L147.6,74.8z"/>
	<path class="st0" d="M75.2,50.8C69,67.3,74.4,88.1,94.3,90.3c4,0.4,7.5-3.8,7.5-7.5c0-4.4-3.4-7-7.5-7.5
		c-9.5-1.1-6.7-15.1-4.6-20.6C93.1,45.8,78.6,41.8,75.2,50.8L75.2,50.8z"/>
	<path class="st0" d="M82,50.4c0.8,9.3,3.1,18.3,6.7,26.9c3.4,7.9,7.2,17.6,17.4,16c4-0.6,6.2-5.6,5.2-9.2c-1.2-4.3-5.2-5.9-9.2-5.2
		L101,79l5.8,0.8c-2.3-1-5.2-9.9-6.2-13.1c-1.8-5.3-3-10.7-3.5-16.2c-0.4-4-3.2-7.5-7.5-7.5C85.8,42.9,81.6,46.4,82,50.4z"/>
	<path class="st0" d="M94.1,55.4c5.8,9.9,10.2,20.5,13.1,31.6c2.5,9.3,17,5.4,14.5-4c-3.3-12.3-8.2-24.1-14.6-35.1
		C102.2,39.5,89.2,47.1,94.1,55.4L94.1,55.4z"/>
	<path class="st0" d="M107.7,62.2c4.6,7.4,8,15.5,10,24c2.2,9.4,16.7,5.4,14.5-4c-2.3-9.8-6.2-19.1-11.5-27.6
		C115.6,46.5,102.6,54,107.7,62.2L107.7,62.2z"/>
	<path class="st1" d="M58.2,62.8c0.3-3.4,0.3-6.7,1.2-9.9c0.9-3.2,2.2-6.3,4-9c1.7-2.6,3.7-4.9,6.1-6.8c2.4-2,5.1-3.2,7.7-4.9
		c0.3-0.2,0.4-0.6,0.2-0.9C77.2,31.1,77,31,76.7,31c-5.8,1.3-11.4,7-14.5,12c-3.5,5.5-5.9,13.3-4.4,19.8
		C57.8,63.1,58.2,63,58.2,62.8z"/>
	<path class="st1" d="M62.3,51.5c1.5-4.7,4.3-8.9,7.9-12.2c3.7-3.5,8.2-5.8,12.1-9c0.6-0.5-0.2-1.2-0.8-1c-9,4-18.8,11.8-19.8,22.1
		C61.7,51.8,62.2,51.8,62.3,51.5L62.3,51.5z"/>
	<path class="st1" d="M61.5,44.1C66.9,34,79,28.7,90.1,28.8c13.3,0.1,25.5,6.8,36.1,14.2c1,0.7,2-1,1-1.7
		c-11.2-7.8-24.4-15-38.5-14.4C77.2,27.5,65.9,33,61,43.8C60.9,44.1,61.3,44.4,61.5,44.1L61.5,44.1z"/>
	<path class="st1" d="M61.6,49.9c8.2,1.9,17.8,1.1,26-0.4c8.9-1.4,17.5-4.4,25.4-8.8c0.4-0.3,0.5-0.8,0.2-1.2
		c-0.2-0.3-0.7-0.4-1-0.3c-7.8,4-15.8,7.5-24.4,9.2c-4.3,0.9-8.7,1.4-13.2,1.6c-4.3,0.1-8.6-0.3-13-0.4c-0.1,0-0.1,0-0.1,0.1
		S61.5,49.9,61.6,49.9L61.6,49.9z"/>
	<path class="st1" d="M62.8,60.8c4.3,1.4,9.4,0.9,13.8,0.6c4.8-0.3,9.6-0.9,14.3-1.9c4.8-1,9.5-2.3,14.1-3.9c4.2-1.5,8.8-3,12.3-5.8
		c0.3-0.2,0-0.7-0.4-0.6c-4.5,1.1-8.8,3.5-13.2,5c-4.3,1.5-8.8,2.7-13.3,3.6c-4.7,1-9.5,1.6-14.3,1.9c-4.4,0.3-9-0.3-13.4,0.6
		C62.6,60.4,62.7,60.8,62.8,60.8L62.8,60.8z"/>
	<path class="st1" d="M65,69.6c5.8,1.8,12.6,1.6,18.6,1.3c6.1-0.3,12.2-1.2,18.1-2.6c6-1.4,11.8-3.3,17.4-5.7c2.8-1.2,5.6-2.6,8.3-4
		s5.7-3,7.8-5.2c0.4-0.4,0-1.1-0.5-0.9c-2.6,1-5,2.8-7.5,4.2s-5.2,2.8-7.9,4c-5.7,2.5-11.6,4.5-17.7,6c-5.9,1.4-12,2.3-18.1,2.6
		C77.3,69.6,71.2,68.8,65,69c-0.2,0-0.4,0.2-0.4,0.4C64.7,69.4,64.8,69.6,65,69.6L65,69.6z"/>
	<path class="st1" d="M115.8,38.4c3.3,1.6,6.5,3.6,9.4,5.8c3,2.2,5.2,5.2,8.1,7.5c0.1,0.1,0.3,0.1,0.4,0s0.1-0.3,0-0.4
		c-1.5-3.3-4.7-5.9-7.4-8.1c-3.1-2.4-6.6-4.2-10.3-5.4c-0.1,0-0.3,0.1-0.3,0.2C115.6,38.2,115.7,38.4,115.8,38.4L115.8,38.4z"/>
	<path class="st1" d="M79.9,35.1c-2,3.5-2.9,7.7-3.7,11.6c-0.9,4.2-1.4,8.4-1.4,12.6c-0.1,8.2,1.1,16.9,4.5,24.4
		c0.1,0.3,0.6,0.1,0.5-0.2c-2.4-8-4.2-15.8-4.2-24.2c0-4.2,0.4-8.4,1.2-12.5c0.8-4,2.3-7.8,3.3-11.7V35C80,35,79.9,35.1,79.9,35.1z"
		/>
	<path class="st1" d="M62.7,51.4c-0.4,5.8,0,11.7,1,17.4c0.9,5.6,2,11.7,4.4,16.9c0.2,0.3,0.7,0.1,0.6-0.2c-1.3-5.5-3.1-10.8-4-16.4
		c-1-5.9-1.2-11.7-1.7-17.6C63,51.4,62.9,51.4,62.7,51.4C62.8,51.3,62.8,51.3,62.7,51.4L62.7,51.4z"/>
	<path class="st1" d="M103.9,75.1c2.9,0.8,7.3,1.9,10,0.3c0.2-0.1,0.2-0.3,0.1-0.5c0-0.1-0.1-0.1-0.2-0.2c-1.4-0.1-2.9,0-4.3,0.1
		c-1.8,0-3.7-0.1-5.5-0.4c-0.2,0-0.4,0.1-0.4,0.2C103.6,74.9,103.7,75.1,103.9,75.1L103.9,75.1z"/>
	<path class="st1" d="M103.1,83.2c2.3,1.4,7,1.6,9.3,0.1c0.3-0.2,0.4-0.5,0.2-0.8c-0.1-0.2-0.3-0.3-0.5-0.3
		c-1.5-0.1-2.9,0.4-4.4,0.5s-2.9-0.3-4.4-0.3c-0.2,0-0.4,0.2-0.4,0.4C102.9,83,103,83.2,103.1,83.2z"/>
	<path class="st1" d="M103.5,89.5c2.7,2.2,8.8,2.2,11.6,0.2c0.4-0.3,0.3-1.1-0.3-1c-1.9,0.1-3.6,0.8-5.6,0.9s-3.7-0.5-5.6-0.5
		C103.5,89,103.3,89.3,103.5,89.5L103.5,89.5z"/>
	<path class="st1" d="M112.3,68.4c-2.2,1.5-3.5,4-3.5,6.7c0,0.2,0.2,0.3,0.4,0.3c0.1,0,0.3-0.1,0.3-0.2c0.5-1.2,0.7-2.4,1.2-3.6
		s1.3-1.9,1.9-2.9C112.8,68.5,112.5,68.3,112.3,68.4z"/>
	<path class="st1" d="M107,84.4c-0.8,1-1.1,2.3-0.8,3.5c0.2,0.9,0.9,2.8,2.1,2.4c0.1,0,0.2-0.1,0.2-0.3c-0.1-0.8-1-1.4-1.3-2.2
		c-0.4-1.1-0.3-2.3,0.2-3.3C107.3,84.4,107.1,84.3,107,84.4z"/>
	<path class="st1" d="M111.5,77.4c-0.3,1-0.6,2.1-0.7,3.1c-0.1,0.8-0.4,1.6,0,2.3c0.1,0.1,0.2,0.2,0.4,0.1c0,0,0,0,0.1,0
		c0.6-0.6,0.5-1.4,0.6-2.2c0.1-1.1,0.1-2.1,0.1-3.2c0-0.1-0.1-0.2-0.2-0.2C111.6,77.2,111.6,77.3,111.5,77.4L111.5,77.4z"/>
	<path class="st1" d="M105.7,92.1c-0.2,1.6,0.8,4,2.7,4.1c0.1,0,0.3-0.1,0.2-0.3c0-0.1,0-0.1-0.1-0.2c-0.5-0.4-1-0.9-1.5-1.4
		c-0.5-0.6-0.8-1.4-0.8-2.2C106.3,91.7,105.8,91.7,105.7,92.1z"/>
	<path class="st1" d="M111.2,93.2l0.6,1.4c0.2,0.4,0.4,0.9,0.7,1.2c0.2,0.2,0.5,0,0.4-0.2c-0.1-0.5-0.3-0.9-0.6-1.3
		c-0.2-0.5-0.5-0.9-0.7-1.4C111.4,92.6,111,92.9,111.2,93.2z"/>
	<path class="st1" d="M114.3,87.9c1.9,1.7,5.5,1.9,7.2-0.2c0.2-0.1,0.2-0.3,0.1-0.5s-0.3-0.2-0.5-0.1l0,0c-2.2,1.1-4.2,1.5-6.6,0.5
		C114.3,87.6,114.1,87.8,114.3,87.9z"/>
	<path class="st1" d="M115.6,88c-1.2-7.3,1.4-13.8,8.2-17.2c0.5-0.2,0.2-1.1-0.4-0.9c-7,2.8-11.5,11-8.6,18.3
		c0.1,0.2,0.3,0.3,0.5,0.3S115.7,88.2,115.6,88z"/>
	<path class="st1" d="M115.2,87.8c-0.2,1.5,0.2,3.1,0.9,4.4c0.5,1,1.4,2.6,2.6,2.7c0.2,0,0.3-0.2,0.3-0.4c-0.2-1.1-1.4-1.9-1.9-2.9
		c-0.6-1.2-1.1-2.5-1.4-3.8c-0.1-0.1-0.2-0.2-0.4-0.2C115.3,87.6,115.2,87.7,115.2,87.8z"/>
	<path class="st1" d="M117,90.3c0.3,0,0.5-0.2,0.5-0.5s-0.2-0.5-0.5-0.5s-0.5,0.2-0.5,0.5S116.7,90.3,117,90.3z"/>
	<path class="st1" d="M116.8,76.8c-0.4,1.4-0.1,3,1,4.1c0.9,1,2.6,2.1,3.9,1.4c0.2-0.1,0.3-0.4,0.1-0.6c0-0.1-0.1-0.1-0.1-0.1
		c-1.1-0.5-2.2-0.5-3.1-1.4s-1.4-2-1.5-3.3C117.1,76.6,116.8,76.6,116.8,76.8L116.8,76.8z"/>
	<path class="st1" d="M125,70.1c-0.7,1.7-0.9,5.5,0.9,6.6c0.2,0.1,0.3,0,0.4-0.1c0,0,0-0.1,0-0.2c0.1-0.9-0.5-1.8-0.7-2.8
		c-0.2-1.1-0.2-2.3-0.1-3.5C125.5,70,125.1,69.9,125,70.1z"/>
	<path class="st1" d="M130.1,78.9c1-0.5,1.9-1.2,2.7-2c0.8-0.7,1.3-1.7,1.5-2.7c0.1-0.4-0.6-0.6-0.8-0.3c-0.6,0.8-1.1,1.6-1.6,2.4
		c-0.6,0.8-1.3,1.6-2.1,2.3C129.6,78.8,129.9,79.1,130.1,78.9L130.1,78.9z"/>
	<path class="st1" d="M134.9,85.1c1.8-0.5,3.4-1.3,4.9-2.4c0.2-0.2,0.2-0.6,0-0.8c-0.1-0.1-0.3-0.2-0.5-0.1c-1.7,0.7-3.2,1.7-4.6,3
		c-0.1,0.1-0.1,0.2,0,0.3C134.8,85.1,134.9,85.1,134.9,85.1L134.9,85.1z"/>
	<path class="st1" d="M136.4,89.3c0.9,0.4,1.9,0.4,2.8,0c1-0.2,2-0.7,2.6-1.5c0.3-0.5-0.2-0.9-0.6-0.8c-0.9,0.3-1.7,0.7-2.5,1.1
		c-0.8,0.2-1.6,0.5-2.3,0.8C136.3,89,136.3,89.1,136.4,89.3C136.3,89.2,136.4,89.3,136.4,89.3L136.4,89.3z"/>
	<path class="st1" d="M136.4,93.4c0.7,0.2,1.5,0.1,2.1-0.3c0.6-0.3,1.3-0.9,1.2-1.7c0-0.2-0.2-0.3-0.3-0.3s-0.1,0-0.2,0
		c-0.4,0.3-0.7,0.8-1.2,1.1c-0.5,0.3-1,0.5-1.6,0.5c-0.2,0-0.3,0.1-0.3,0.3C136.2,93.2,136.3,93.3,136.4,93.4z"/>
	<path class="st1" d="M141.3,93.5c1.5,0.7,3.3,0.8,4.9,0.2c1.4-0.5,3.2-1.3,3.7-2.9c0.1-0.2-0.1-0.4-0.3-0.4c-0.1,0-0.1,0-0.2,0
		c-1.3,0.4-2.3,1.5-3.6,2c-1.4,0.5-2.9,0.8-4.5,0.9C141.3,93.3,141.2,93.5,141.3,93.5z"/>
	<path class="st1" d="M144.3,89.8c0.7,0,1.4-0.1,2.1-0.4c0.2-0.1,0.2-0.5-0.1-0.6c-0.7,0-1.4,0.1-2.1,0.4
		C143.9,89.3,144,89.8,144.3,89.8z"/>
	<path class="st1" d="M154.2,89.3c1-1,2.4-1.7,3.9-1.8c1.1-0.1,2.1,0.6,3.2,0.4c0.2,0,0.3-0.3,0.2-0.5c-0.6-1.2-2.8-1.2-3.9-1
		c-1.6,0.3-2.9,1.2-3.7,2.6c-0.1,0.1,0,0.3,0.1,0.3C154,89.4,154.2,89.4,154.2,89.3L154.2,89.3z"/>
	<path class="st1" d="M166.2,83.1c0.2-0.5,0.7-0.9,1.2-1s1,0,1.5,0.2c0.2,0,0.4-0.1,0.4-0.3c0-0.1,0-0.2,0-0.3
		c-0.5-0.6-1.4-0.8-2.2-0.5c-0.7,0.2-1.3,0.9-1.4,1.7C165.8,83.2,166.1,83.3,166.2,83.1z"/>
	<path class="st1" d="M174.1,86.2c0.7-0.2,1.1,0.5,1.3,1.1c0.1,0.2,0.3,0.3,0.5,0.3c0.1,0,0.2-0.1,0.3-0.3c0.2-0.6-0.1-1.3-0.7-1.5
		c-0.5-0.3-1.1-0.3-1.6,0c-0.1,0.1-0.1,0.2-0.1,0.3C173.9,86.2,174,86.2,174.1,86.2L174.1,86.2z"/>
	<path class="st1" d="M61.2,89.3c0.6-0.5-0.5-1.5-0.9-1.7c-0.6-0.4-2-0.7-2.4,0.1c-0.2,0.3-0.1,0.6,0.2,0.7c0,0,0.1,0,0.1,0.1
		c0.4,0.1,0.8-0.1,1.2-0.1c0.4,0.1,0.8,0.3,1.1,0.7C60.8,89.2,61,89.5,61.2,89.3z"/>
	<path class="st1" d="M55.2,88.1c-0.5-0.2-1.1-0.3-1.7-0.4c-0.4-0.1-0.9-0.2-1.3,0.2c-0.1,0.1-0.1,0.3,0,0.4
		c0.2,0.4,0.7,0.4,1.2,0.5c0.6,0.1,1.1,0.1,1.7,0c0.2,0,0.3-0.2,0.3-0.3C55.4,88.3,55.3,88.2,55.2,88.1L55.2,88.1z"/>
	<path class="st1" d="M45.4,86.4c-0.3,0-0.6-0.1-0.9,0.2c-0.1,0.1-0.1,0.3,0,0.4c0.2,0.3,0.5,0.2,0.9,0.2c0.2,0,0.4-0.3,0.4-0.5
		C45.7,86.6,45.6,86.4,45.4,86.4z"/>
	<path class="st1" d="M134.5,35.1c5.8,1.1,12.4,0.3,18.3-0.3c6.1-0.6,12.1-1.9,17.9-3.8c0.1,0,0.2-0.1,0.1-0.2
		c0-0.1-0.1-0.2-0.2-0.1l0,0c-6,1.4-12.2,2.6-18.3,3.4c-2.8,0.3-5.6,0.5-8.4,0.7C140.8,34.9,137.6,34.7,134.5,35.1
		C134.4,34.9,134.4,35.1,134.5,35.1L134.5,35.1z"/>
	<path class="st1" d="M148.2,50.6c5.7,0.5,11.4,0.5,17.1,0.1c4.9-0.4,10.3-0.9,14.8-2.8c2.2-0.9,4.9-4,2.4-6.2
		c-1.1-0.9-2.8-0.8-3.8,0.4c-0.5,0.6-0.7,1.4-0.6,2.2c0.1,0.4,0.7,0.3,0.7-0.1l3.5-0.4l-0.9,2c-0.8,0.7-1.8,1.2-2.9,1.5
		c-1.3,0.4-2.7,0.7-4.1,1c-3,0.7-6.1,1.1-9.2,1.4c-5.7,0.5-11.4,0.6-17.1,0.5c-0.1,0-0.2,0.1-0.2,0.2S148.1,50.6,148.2,50.6
		L148.2,50.6L148.2,50.6z"/>
	<path class="st1" d="M153.4,63.6c12.1,1.4,25.5,2.1,37.1-2.3c1.6-0.6,3.3-1.4,3.8-3.1c0.4-1.4-0.3-2.9-1.6-3.4
		c-2.8-1.2-8.9-0.5-8.8,3.5c0,0.2,0.2,0.3,0.3,0.3s0.2-0.1,0.3-0.2c0.9-2.4,4.2-3.2,6.5-2.4c5,1.6-1.4,4.1-3,4.6
		c-3.8,1.2-7.8,1.9-11.7,2.3c-7.6,0.8-15.2,0.3-22.8,0.3C153.1,63.1,153.1,63.6,153.4,63.6L153.4,63.6z"/>
	<path class="st1" d="M31,54.2c7-0.3,13.9-1,20.9-1.6c6.6-0.5,13.3-0.8,19.9-1.7c0.3,0,0.2-0.6-0.1-0.5C65,50.6,58.2,51.5,51.4,52
		S37.8,53,31,53.9C30.9,53.9,30.9,54.2,31,54.2z"/>
	<path class="st1" d="M33.3,43.2c10.5,0.3,21.1-0.2,31.6-0.6c0.2,0,0.3-0.2,0.2-0.3c0-0.1-0.1-0.2-0.2-0.2c-10.5,0-21.1,0-31.6,0.8
		C33.2,42.9,33.1,43,33.3,43.2C33.2,43.1,33.3,43.2,33.3,43.2z"/>
	<path class="st0" d="M56.1,14.9c-0.5-0.1-0.9,0.3-1,0.8c0,0.1,0,0.1,0,0.2c0,0.6,0.4,1,1,1s1-0.4,1-1
		C57.1,15.4,56.7,14.9,56.1,14.9z"/>
	<path class="st0" d="M76.1,3.5c-0.2,0.8,0.2,1.7,1.1,2l0,0c0.5,0.1,1-0.2,1.2-0.7c0.3-0.9,0-1.9-0.8-2.5C77,2,76.3,2.3,75.9,3
		c-0.6,1.2,0.3,3,1.8,2.3c1.2-0.6,1.4-2.6,0-3C77,2.1,76.3,2.4,75.9,3c-0.4,0.4-0.3,1.1,0.1,1.5c0.1,0.1,0.2,0.1,0.2,0.2
		c0.2,0,0.3,0,0.4-0.2c0.1-0.1,0.1-0.2,0.2-0.4s0.2-0.2,0.3-0.3s0.1,0,0.1-0.1s-0.6,0.8-0.1,0C77,3.8,77.2,3.3,77,3.8
		C77,3.9,77,4,77.2,4s-0.1,0,0,0s0,0,0,0l0,0c0,0-0.4,0-0.3,0l-0.4-0.2c0.2,0.2,0,0.5-0.1,0.6l1.2-0.7C77.9,3.7,78,3.9,78,4
		c0.1-0.5-0.2-1-0.7-1.2C76.8,2.7,76.3,3,76.1,3.5L76.1,3.5z"/>
	<path class="st0" d="M98.8,5.5c-0.5-0.1-1.1,0.2-1.2,0.8c0,0.2,0,0.3,0,0.5c0.2,0.9,1.4,0.4,1.8-0.1c0.3-0.4,0.3-0.9-0.1-1.2
		c-0.1-0.1-0.3-0.2-0.5-0.2c-0.6-0.1-1.1,0.3-1.2,0.8c0,0.1,0,0.1,0,0.2c0,0.3,0.2,0.5,0.5,0.5c0.1,0,0.2-0.1,0.3-0.1
		c0.3-0.3,0.7-0.7,0.8-1.1c0-0.1,0-0.3-0.2-0.3l0,0c-0.4,0.1-0.9,0.3-1.2,0.6l0.7,0.4c0-0.1-0.1,0,0,0s0.1,0,0.2,0
		c0.3-0.3-0.4,0-0.2-0.1c-0.1,0-0.2,0.1-0.4,0.1l0.3,0.3c-0.1-0.2,0-0.4,0.3-0.5l0,0C99.1,6,99.1,5.6,98.8,5.5L98.8,5.5z"/>
	<path class="st0" d="M78.6,16.3C78.7,16.2,78.7,16.2,78.6,16.3c-0.2,0.1-0.1,0.1-0.2,0.1c-0.6,0.1-0.4,1,0.1,1
		c0.3,0,0.6-0.2,0.8-0.5c0.1-0.2,0.1-0.4,0-0.5S79.1,16.2,79,16c-0.1-0.1-0.3-0.1-0.4,0C78.6,16.1,78.6,16.2,78.6,16.3L78.6,16.3z"
		/>
	<path class="st0" d="M105.6,15c0.1-0.8-1.1-1-1.7-0.7c-0.6,0.5-0.8,1.3-0.4,2c0.1,0.1,0.2,0.3,0.4,0.4c0.7,0.6,1.8,0.4,2.4-0.4
		c0.1-0.1,0.2-0.3,0.2-0.4c0.3-0.5,0.2-1.1-0.2-1.5c-0.4-0.4-1-0.5-1.6-0.4c-0.4,0.1-0.6,0.4-0.5,0.8c0,0.1,0,0.1,0.1,0.2
		c0.3,0.5,0.9,0.7,1.5,0.6c0.5-0.1,1.1-0.7,0.7-1.2c-0.1-0.2-0.3-0.2-0.5-0.2c-0.2,0.1-0.3,0.1-0.4,0.2h-0.1l-0.4,0.9
		c0.2,0,0.2,0,0.3,0.1s-0.1,0,0-0.1c0,0.1-0.1,0.2-0.1,0.2c-0.1,0.2-0.4,0.3-0.6,0.2c0,0-0.1,0-0.1-0.1c-0.2-0.2-0.2-0.5,0.1-0.6
		C105,14.9,105.3,14.9,105.6,15C105.5,15.3,105.6,15.2,105.6,15L105.6,15z"/>
	<path class="st0" d="M118.7,16.4c-0.8,0.5-0.3,1.7,0.6,1.8c0.5,0,0.8-0.3,0.9-0.8c0.1-0.6,0-1.1-0.5-1.5c-0.2-0.2-0.4-0.2-0.6-0.2
		c-0.6,0.2-0.9,0.7-0.7,1.3c0,0.1,0.1,0.2,0.1,0.2c0.2,0.3,0.6,0.4,0.9,0.2c0.2-0.1,0.3-0.4,0.3-0.7c0-0.2-0.1-0.1-0.2,0.2l-0.6-0.2
		c0.1,0.1,0.1,0.1,0.2,0.2c0.2,0.2-0.4,0.2,0.3,0.1l0,0v-0.1c0-0.1-0.1,0,0,0.2c0.2-0.2,0.2-0.5,0-0.7
		C119.1,16.3,118.9,16.3,118.7,16.4L118.7,16.4z"/>
	<path class="st0" d="M141.9,16.4c-0.2-0.2-0.3-0.4-0.4-0.6c-0.1-0.1-0.3-0.2-0.4-0.2c-0.6,0.2-0.9,0.8-0.7,1.4s0.8,0.9,1.4,0.7
		c0.1,0,0.3-0.1,0.4-0.2c0.5-0.3,0.6-0.9,0.3-1.4c-0.1-0.1-0.2-0.2-0.3-0.3c-0.4-0.3-1-0.2-1.3,0.3c-0.1,0.1-0.1,0.3-0.2,0.5
		c0,0.3,0.4,0.6,0.6,0.4s0.4-0.1,0.1-0.3h-0.1l0.1-0.3H141c0.3,0.1,0.5,0.2,0.8,0.3C141.9,16.7,142.1,16.5,141.9,16.4L141.9,16.4z"
		/>
	<path class="st0" d="M146,31.1c-0.2-0.2-0.5-0.2-0.8-0.1c-0.3,0.2-0.5,0.5-0.6,0.8c-0.1,0.4,0,0.7,0.2,1c0.4,0.2,0.8,0.3,1.3,0.3
		c0.7,0,1.2-0.5,1.3-1.1c0-0.1,0-0.2,0-0.3c-0.2-0.6-1.2-1.3-1.5-0.4c-0.1,0.2,0,0.4,0.2,0.5c0,0,0.4,0.1,0.3,0.3
		c-0.1,0.1-0.9,0-1.1,0l0.3,0.2c-0.1-0.3,0.1-0.7,0.4-0.8C146.1,31.4,146.2,31.2,146,31.1L146,31.1z"/>
	<path class="st0" d="M151.4,40.5c-0.4-0.3-1-0.4-1.4-0.2c-0.5,0.2-0.9,0.6-1,1.2c-0.1,0.9,0.5,1.7,1.5,1.9c0.2,0,0.5,0,0.7-0.1
		c0.8-0.3,1.3-1.2,1-2s-1.2-1.3-2-1c-0.6,0.2-1,0.7-1.1,1.3c-0.1,0.4,0.4,0.6,0.7,0.6c0.4,0,0.9-0.2,1.2-0.6c0.1-0.1,0.1-0.3,0-0.5
		c0,0,0,0-0.1,0c-0.5-0.2-1-0.2-1.4,0l0.7,0.7c0.1-0.3,0.4-0.5,0.7-0.3s0,0.8-0.3,0.9c-0.5,0.2-0.9-0.6-0.8-1
		c0.3-0.5,0.8-0.8,1.4-0.6C151.4,40.8,151.5,40.6,151.4,40.5L151.4,40.5z"/>
	<path class="st0" d="M167,37.2c-0.1-0.1-0.1-0.1-0.2-0.2c-0.1-0.1-0.3-0.2-0.2,0c-0.1-0.1-0.3-0.2-0.5-0.1
		c-0.3,0.2-0.5,0.5-0.4,0.8c0.1,0.4,0.6,0.6,0.9,0.7c0.9,0.3,1.9-0.2,2.2-1.2l0,0c0.2-0.7-0.2-1.4-0.9-1.7c-0.2,0-0.3-0.1-0.5,0
		c-0.6,0-1.1,0.6-1.1,1.2c0,0.2,0.1,0.4,0.2,0.6c0.2,0.2,0.5,0.2,0.7,0c0.1-0.1,0.1-0.2,0.1-0.3c0-0.3,0.3-0.4,0.3,0
		c0,0.2-0.2,0.4-0.4,0.5c-0.1,0-0.3,0-0.4,0c-0.1,0-0.2,0-0.2,0c-0.1,0.1-0.1,0.1,0,0s0.1-0.2,0.1-0.4l0,0l-0.1,0.3
		c0.1-0.1,0.1-0.1,0.2-0.1S167.1,37.4,167,37.2L167,37.2z"/>
	<path class="st0" d="M159.8,55.5c0,0.6,0.8,0.8,1.3,0.7c0.6-0.1,1-0.5,1.2-1.1c0.4-1.3-2.5-1.1-1.9,0.4c0.1,0.3,0.3,0.4,0.6,0.3
		c0.3-0.1,0.4-0.3,0.3-0.6c0,0,0.1-0.1,0.1,0l-0.1-0.5c-0.1,0.3-0.3,0.5-0.6,0.5c-0.1,0-0.2,0.1-0.3,0.1c-0.2,0-0.3-0.1-0.5,0
		C159.8,55.4,159.8,55.5,159.8,55.5L159.8,55.5z"/>
	<path class="st0" d="M49.1,35c0.3,0.2,0.6,0.2,0.7,0.6c0.2,0.3,0.1,0.6-0.2,0.8c-0.1,0-0.1,0.1-0.2,0.1c-0.7,0.2-0.9-0.8-0.3-1.1
		l-0.6-0.5c-0.2,0.5,0.1,1.1,0.6,1.3h0.1c0.4,0.1,0.8-0.2,0.9-0.6c0-0.2,0-0.3-0.1-0.5C49.9,35,49.8,35,49.7,35c0,0,0,0-0.1,0.1
		s-0.5,0.4-0.4,0s-0.3-0.6-0.6-0.5c-0.6,0.3-0.9,1.1-0.7,1.8c0.3,0.7,1,1,1.7,0.7c0.7-0.2,1.1-0.9,0.8-1.6c-0.2-0.5-1-1.2-1.5-0.7
		C49,34.8,49,34.9,49.1,35C49.1,34.9,49.1,35,49.1,35L49.1,35z"/>
	<path class="st0" d="M32,27.7c-0.5,0.4-0.2,1.2,0.4,1.5c0.5,0.2,1,0,1.2-0.5c0.1-0.2,0.1-0.4,0-0.6c-0.1-0.7-0.7-1.1-1.4-1
		c-0.1,0-0.3,0.1-0.4,0.1c-0.7,0.5-0.9,1.4-0.5,2.1c0.1,0.2,0.3,0.3,0.5,0.2c0.8-0.2,1.4-0.7,1.8-1.4c0.1-0.2,0.1-0.4-0.1-0.6
		c-0.5-0.5-1.4-0.6-1.9-0.1c-0.2,0.2-0.3,0.4-0.4,0.6s0.1,0.4,0.3,0.5l0,0c0.4,0.1,0.9,0.2,1.4,0.2c0.2,0,0.3-0.3,0.1-0.4
		C32.7,28.1,32.3,27.9,32,27.7l0.1,0.6c0.1-0.3,0.4-0.4,0.7-0.3c0.1,0,0.1,0.1,0.2,0.1l-0.1-0.6c-0.2,0.5-0.7,0.8-1.2,0.9l0.5,0.2
		c-0.2-0.3,0-1.2,0.4-0.8c0.1,0.1,0.3,0.5,0.1,0.5s-0.5-0.4-0.3-0.5c0.1-0.1,0.1-0.3,0-0.4C32.3,27.6,32.2,27.6,32,27.7L32,27.7
		L32,27.7z"/>
	<path class="st0" d="M21.9,17.8c-0.5,0.1-0.9,0.6-0.9,1.1c0,0.1,0.1,0.3,0.1,0.4c0.3,0.6,0.9,0.9,1.5,0.6c0.2-0.1,0.3-0.2,0.5-0.4
		c0.5-0.6,0.5-1.5,0-2c-0.1-0.1-0.2-0.2-0.3-0.2c-0.7-0.4-2.2-0.2-2,0.8c0,0.1,0.1,0.2,0.2,0.2c0.4,0,0.7-0.3,1-0.3s0.6,0.2,0.6,0.5
		c0,0.1,0,0.2,0,0.2c-0.4,1-1.3-0.3-0.6-0.7C22.1,18,22.1,17.8,21.9,17.8z"/>
	<path class="st0" d="M33.8,45.3c-0.5,0.4-0.6,1-0.4,1.6c0,0.1,0.1,0.2,0.2,0.2c0.7,0.1,1.3-0.4,1.4-1c0.1-0.4,0-0.7-0.3-1
		C33.9,44.2,32,46.2,33,47c0.1,0.1,0.3,0.1,0.4,0c0,0,0-0.1,0.1-0.1c0.1-0.2,0.1-0.5,0.2-0.7s0.4-0.5,0.5-0.5s-0.2,0.7-0.5,0.7
		l0.3,0.2c-0.2-0.4,0-0.7,0.1-1.1c0-0.1,0-0.2-0.1-0.3C33.9,45.2,33.8,45.2,33.8,45.3L33.8,45.3z"/>
	<path class="st0" d="M39.8,65c-0.5,0.4-0.7,1.1-0.3,1.7c0.1,0.1,0.2,0.2,0.4,0.3c0.6,0.3,1.3,0,1.6-0.5c0.1-0.2,0.1-0.5,0.1-0.8
		c-0.2-0.6-0.9-1-1.5-0.8c-0.2,0.1-0.5,0.2-0.6,0.5c-0.5,0.9,0.8,2.3,1.5,1.4c0.2-0.2,0.2-0.4,0-0.6c0,0-0.1-0.1-0.2-0.1
		c-0.1,0-0.2-0.1-0.3-0.1v-0.1c0-0.1,0-0.1,0,0s0.2,0,0.2,0.2s-0.4,0.3-0.6,0.2c-0.4-0.2-0.2-0.8,0-1s0-0.4-0.2-0.3
		C39.9,65,39.8,65,39.8,65z"/>
	<path class="st0" d="M127.7,33.6c12.5-0.4,25-2,37.4-3s25-1.9,37.4-3.5c0.4-0.1,0.4-0.7,0-0.6c-12.7,0.6-25.3,2.1-37.9,3.3
		c-12.3,1.1-24.8,1.9-37,3.7C127.5,33.3,127.5,33.6,127.7,33.6L127.7,33.6z"/>
	<path class="st0" d="M138.1,44.1c13.5,0.6,27.1,0.5,40.7,0.3s27.3-0.1,40.7-1.5c0.2,0,0.3-0.1,0.3-0.3s-0.1-0.3-0.3-0.3
		c-6.8,0-13.6,0.5-20.3,0.8s-13.6,0.4-20.3,0.5c-13.6,0.2-27.1-0.1-40.7-0.1c-0.2,0-0.3,0.2-0.2,0.4C137.9,44,138,44.1,138.1,44.1z"
		/>
	<path class="st0" d="M141.4,53.9c14.5,0.1,29.1-0.7,43.6-1.2s29.2-0.2,43.6-1.4c0.1,0,0.2-0.1,0.2-0.3c0-0.1-0.1-0.2-0.2-0.2
		c-14.5-0.4-29.1,0.7-43.6,1.1s-29.1,0.4-43.6,1.4c-0.1,0-0.2,0.2-0.2,0.3C141.2,53.8,141.3,53.9,141.4,53.9z"/>
	<path class="st0" d="M149.8,63.3c12.7,1.5,25.9,1.2,38.7,0.6c12.6-0.5,25.2-1.9,37.5-4.3c0.2,0,0.2-0.5-0.1-0.4
		c-12.6,1.6-25.2,3.2-38,3.9s-25.4,0-38.2-0.2C149.5,62.9,149.6,63.2,149.8,63.3L149.8,63.3z"/>
	<path class="st0" d="M26.1,51.1c7.8-0.4,15.5-0.7,23.3-1.1s15.6-0.4,23.3-1.5c0.2,0,0.3-0.2,0.2-0.3c0-0.1-0.1-0.2-0.2-0.2
		c-7.7-0.2-15.6,0.7-23.3,1.1s-15.5,1-23.3,1.5C25.8,50.6,25.8,51.1,26.1,51.1z"/>
	<path class="st0" d="M27.1,65.3c9.6,0.2,19.3,0,28.9-0.8c9.2-0.7,18.8-1.5,27.8-3.8c0.2-0.1,0.2-0.5-0.1-0.5
		c-9.4,1-18.8,2.6-28.2,3.4c-9.5,0.8-18.9,1.1-28.4,1.1c-0.1,0-0.3,0.1-0.3,0.3C26.9,65.1,27,65.3,27.1,65.3z"/>
	<path class="st0" d="M32.3,71.9c9.3,1.6,19.1,1.3,28.5,0.9S80,72,89.1,69.7c0.5-0.1,0.4-0.9-0.1-0.8c-4.8,0.4-9.5,1.3-14.3,1.8
		c-4.6,0.5-9.3,0.8-13.9,1c-9.5,0.4-18.9-0.3-28.4-0.3C32.1,71.4,32,71.8,32.3,71.9L32.3,71.9z"/>
	<path class="st0" d="M30.3,41.3c8.3,1.1,17,0.8,25.4,1c8.7,0.2,17.7,1.1,26.4,0.5c0.2,0,0.3-0.2,0.3-0.4c0-0.1-0.1-0.3-0.3-0.3
		c-8.5-1-17.3-0.7-25.9-0.9L43.3,41c-4.3-0.2-8.6-0.3-12.9-0.1C30.1,40.9,30,41.3,30.3,41.3L30.3,41.3z"/>
	<path class="st1" d="M31.1,104.7c6-1.9,11.5,0.8,17.3,1.8c3.6,0.7,7.7,0.8,10.7-1.6c0.2-0.1,0-0.4-0.2-0.3c-9.3,4.9-18.6-4-28-0.4
		C30.6,104.3,30.7,104.8,31.1,104.7L31.1,104.7z"/>
	<path class="st1" d="M150.8,104c6.1-0.2,12.1-0.7,18.2-0.9s12.2-0.1,18.2-0.4c0.1,0,0.2-0.2,0.2-0.3c0-0.1-0.1-0.2-0.2-0.2
		c-6-0.3-12.2,0.1-18.2,0.3s-12.2,0.4-18.2,1.2C150.6,103.6,150.6,104,150.8,104z"/>
	<path class="st1" d="M93.9,109.1c10.5-0.2,21.1-0.2,31.6-0.9c0.2,0,0.3-0.1,0.3-0.3s-0.1-0.3-0.3-0.3c-10.5,0-21.1,0.6-31.6,1.1
		C93.6,108.7,93.6,109.1,93.9,109.1z"/>
	<path class="st0" d="M6.1,101.9c12.4,7.9,26.6,12.4,41.2,13.1c9.6,0.5,9.6-14.5,0-15c-12-0.7-23.6-4.5-33.7-11
		C5.5,83.8-2.1,96.8,6.1,101.9L6.1,101.9z"/>
	<path class="st2" d="M118.9,95.3c-2.9-6.7-5-15,0.9-20.8c2.5-2.6,6.4-3.6,9.8-2.4c3.4,1.2,5.6,4,7.5,6.8c0.2,0.3,0.8,0.1,0.6-0.3
		c-2.8-7-11.2-10.8-17.7-5.9c-7.2,5.6-6.3,15.9-1.6,22.8c0.1,0.1,0.2,0.1,0.3,0.1C118.9,95.6,118.9,95.4,118.9,95.3L118.9,95.3
		L118.9,95.3z"/>
	<path class="st2" d="M110,68.7c-8.6,3.9-11.7,14.6-7.6,22.8c0.1,0.2,0.6,0.1,0.4-0.2c-3.5-8.6-0.3-17.3,7.3-22.3
		c0.1,0,0.1-0.1,0-0.2C110.1,68.6,110.1,68.6,110,68.7z"/>
	<path class="st2" d="M110.4,69c4.5,0.7,9.1,1,13.7,1c0.3,0,0.4-0.5,0.1-0.6c-4.6-0.7-9.2-0.9-13.8-0.8
		C110.3,68.6,110.2,68.9,110.4,69L110.4,69z"/>
	<path class="st2" d="M123.7,94.4c-0.9-2.9-2.3-5.8-2.3-8.9s1.6-6.6,4.9-7.3c3.3-0.7,6.5,1.8,7.9,4.5c1.6,3,1.7,6.4,1.8,9.8
		c0,0.5,0.8,0.5,0.7,0c-0.2-5.9-1.9-16.4-10.3-15.1s-5.9,12.4-2.9,17.2c0,0.1,0.1,0.1,0.2,0C123.7,94.5,123.8,94.4,123.7,94.4
		L123.7,94.4z"/>
	<path class="st2" d="M136.6,93.9c0.8,0,1.7-0.1,2.5-0.2c0.8,0,1.5-0.2,2.2-0.5c0.1-0.1,0.2-0.3,0.1-0.4c0-0.1-0.1-0.1-0.2-0.1
		c-0.7-0.1-1.4-0.1-2.1,0.2c-0.9,0.2-1.7,0.4-2.6,0.6c-0.1,0-0.2,0.2-0.2,0.3C136.3,93.8,136.4,93.9,136.6,93.9z"/>
	<path class="st2" d="M118.3,95.5c0.9,0.2,1.9,0.2,2.8,0c1,0,1.9-0.1,2.8-0.4c0.2-0.1,0.3-0.6,0-0.6c-0.9-0.1-1.8,0-2.8,0.2
		c-1,0.1-2,0.3-2.9,0.7C118.2,95.4,118.2,95.4,118.3,95.5C118.2,95.5,118.2,95.5,118.3,95.5L118.3,95.5z"/>
	<path class="st2" d="M17.9,84.4C30.7,87,43.7,89,56.7,90.7s26.2,2.9,39.3,3.7c7.4,0.4,14.9,0.8,22.3,0.9c0.2,0,0.3-0.2,0.3-0.4
		c0-0.2-0.2-0.3-0.3-0.3c-13.1-0.4-26.2-1.1-39.3-2.2s-26.2-2.8-39.2-4.8c-7.3-1.1-14.5-2.4-21.8-3.7C17.6,83.7,17.5,84.3,17.9,84.4
		L17.9,84.4z"/>
	<path class="st2" d="M140.4,94.2c11-0.8,22.1-3.4,32.8-6.2c10.8-2.8,21.3-6.5,31.5-11c0.4-0.2,0.1-0.9-0.3-0.7
		c-10.2,4.2-20.7,7.9-31.4,10.9c-10.8,2.9-21.6,4.5-32.6,6.4C140,93.6,140.1,94.2,140.4,94.2L140.4,94.2z"/>
	<path class="st2" d="M66.2,40c6.2,2,13.3,1.8,19.7,1c6.3-0.8,12.4-2.6,18.1-5.4c0.2-0.1,0-0.4-0.2-0.3c-6.1,2.8-12.6,4.6-19.3,5.4
		C78.3,41.4,72.4,40.6,66.2,40L66.2,40L66.2,40z"/>
	<path class="st2" d="M60.8,50.9c8.6,3.1,18.5,3.6,27.5,2.7c9-0.8,17.8-3.4,25.8-7.6c0.2-0.1,0-0.4-0.2-0.3
		c-8.3,4.1-17.3,6.6-26.5,7.4c-9.1,0.8-17.7-0.5-26.6-2.5C60.8,50.7,60.8,50.8,60.8,50.9C60.8,50.8,60.9,50.9,60.8,50.9L60.8,50.9z"
		/>
	<g>
		<path class="st2" d="M133.5,58.1c-11.4,5.4-23.1,9.5-35.7,10.8c-5.9,0.6-11.9,0.7-17.8,0.3c-6.4-0.5-12.5-1.9-18.7-3.2
			c-0.1,0-0.1,0.1-0.1,0.1s0,0.1,0.1,0.1l0,0c11.6,4.2,25.2,4.6,37.3,3.2s24.5-4.7,35.1-11c0.1-0.1,0.1-0.2,0-0.3
			C133.7,58.1,133.6,58,133.5,58.1z"/>
		<path class="st2" d="M149.7,77.2c-1.3-5.1-3.1-10-5.4-14.7c-4.7-9.5-11.5-17.9-19.8-24.5c-8.4-6.5-18.5-11.4-29.3-12.2
			c-10-0.7-20.4,2.1-28,8.8c-6.6,5.8-10.2,14.3-10.6,23c-0.2,8.4,0.1,16.8,1.9,25c0.5,2.4,1.1,4.8,1.9,7.1c0.2,0.6,1.2,0.4,1-0.3
			c-2.5-8.2-3.8-26-3.8-26.4c0-0.3,0.2-6.2,0.2-6.3c0.3-7.5,3.3-14.6,8.7-20c7.2-7.2,17.8-10.3,27.8-9.8
			c20.8,1.1,38.4,16.9,47.7,34.6c2.6,4.9,4.6,10,6,15.3c1.5,5.4,1.8,10.9,2.6,16.4c0.1,0.6,0.9,0.4,0.9-0.1
			C152.1,87.8,150.9,82.2,149.7,77.2z"/>
	</g>
	<path class="st2" d="M75.2,34.1C64,48.3,61.8,70.7,69.3,87c0.1,0.1,0.3,0,0.2-0.1c-3.2-8.5-4.5-17.6-3.7-26.7
		c1-9.5,4.5-17.9,9.5-26C75.4,34.1,75.3,34,75.2,34.1L75.2,34.1z"/>
	<path class="st2" d="M83.9,33.6c-3.7,7.8-5.8,16.3-6.1,25c-0.4,8.2,0.3,17.8,3.7,25.4c0.1,0.2,0.3,0,0.3-0.1
		c-0.9-4-2.1-7.8-2.7-11.9c-0.6-4.4-0.9-8.9-0.7-13.4c0.5-8.5,2.5-16.9,5.7-24.9C84.1,33.6,84,33.5,83.9,33.6L83.9,33.6z"/>
	<path class="st2" d="M92.6,35.7c-1.9,8.9-2.3,18.1-1.4,27.2c0.7,8.8,2.7,17.5,6.1,25.7c0.1,0.2,0.4,0,0.3-0.1
		c-2.8-8.6-5.1-17-5.9-26s0-17.8,1.2-26.7C92.9,35.6,92.6,35.5,92.6,35.7L92.6,35.7z"/>
	<path class="st2" d="M109.3,32.6c5.9,5.1,11.3,10,15.5,16.6c4,6.5,6.9,13.6,8.5,21.1c0,0.1,0.2,0.1,0.2,0c-1.1-7.7-3.9-15-8.1-21.4
		c-4-6.3-9.4-12.7-16-16.4C109.3,32.4,109.2,32.6,109.3,32.6L109.3,32.6z"/>
	<path class="st2" d="M99.3,35.5c4.1,3.9,7.9,7.8,10.9,12.7c2.9,4.8,5.2,9.9,6.8,15.3c0,0.1,0.1,0.2,0.2,0.1s0.2-0.1,0.1-0.2
		c-2-10.6-9.1-21.8-17.9-28.1c-0.1,0-0.1,0-0.2,0.1C99.2,35.5,99.3,35.5,99.3,35.5L99.3,35.5z"/>
	<path class="st2" d="M137.5,61.8c3.9,6.9,6.7,14.4,8.2,22.2c0,0,0,0.1,0.1,0.1c0,0,0.1,0,0.1-0.1c-1.2-7.9-4-15.5-8.3-22.2
		C137.6,61.7,137.6,61.7,137.5,61.8L137.5,61.8L137.5,61.8z"/>
	<path class="st2" d="M138,79.3c2.1,4.5,3,9.4,2.8,14.4c0,0.1,0.2,0.2,0.2,0c0.8-5-0.2-10.2-2.9-14.5L138,79.3
		C138,79.2,138,79.2,138,79.3L138,79.3z"/>
	<path class="st2" d="M103.9,74.3c3.3,2.1,8.8,2.2,12.5,1.3c0.1,0,0.2-0.1,0.1-0.2c0-0.1-0.1-0.1-0.1-0.1c-2.1,0.2-4.2,0.2-6.3,0.1
		C108,75.1,106.1,74.4,103.9,74.3C104,74.2,103.9,74.2,103.9,74.3L103.9,74.3z"/>
	<path class="st2" d="M103.3,82.6c3.2,0.5,6.5,0.7,9.8,0.6c0.2,0,0.2-0.3,0-0.3C109.8,82.5,106.5,82.4,103.3,82.6
		C103.2,82.5,103.2,82.5,103.3,82.6C103.2,82.6,103.2,82.6,103.3,82.6L103.3,82.6z"/>
	<path class="st2" d="M103.3,89.8c3.2,0.3,6.5,0.3,9.8,0c0.1,0,0.2-0.1,0.2-0.2s-0.1-0.2-0.2-0.2c-3.2-0.3-6.5-0.2-9.8,0.1
		c-0.1,0-0.2,0.1-0.2,0.2C103.2,89.7,103.2,89.8,103.3,89.8z"/>
	<path class="st2" d="M107.9,75.2c0.2-0.4,0.4-0.8,0.5-1.3c0.2-0.7,0.6-1.3,1-1.9c0.8-1,1.7-1.9,2.8-2.6c0.1,0,0.1-0.1,0-0.2
		c0,0-0.1-0.1-0.1,0c-1.2,0.5-2.3,1.3-3,2.4C108.5,72.5,107.5,74,107.9,75.2C107.7,75.2,107.8,75.2,107.9,75.2L107.9,75.2z"/>
	<path class="st2" d="M110.4,82.3c1.1-2,2-4,2.6-6.2c0-0.1,0-0.1-0.1-0.1h-0.1c-1.1,1.9-2,4-2.7,6.2c0,0.1,0,0.1,0.1,0.2
		C110.4,82.4,110.4,82.3,110.4,82.3z"/>
	<path class="st2" d="M102,81c1-1.5,1.8-3.2,2.3-4.9c0-0.1,0-0.2-0.1-0.2s-0.2,0-0.2,0.1c-1,1.5-1.7,3.2-2.2,4.9
		C101.8,81,101.9,81.1,102,81z"/>
	<path class="st2" d="M106.4,89.8c0.2-2.5,0.2-5,0-7.5c0-0.1-0.1-0.2-0.2-0.2s-0.2,0.1-0.2,0.2c-0.2,2.5-0.1,5,0.1,7.5
		c0,0.1,0.1,0.1,0.1,0.1C106.3,89.9,106.3,89.9,106.4,89.8L106.4,89.8z"/>
	<path class="st2" d="M112.2,94.3c-0.3-1.4-0.7-2.7-1.3-4c-0.1-0.2-0.3,0-0.3,0.1c0.3,1.4,0.7,2.7,1.4,4
		C112.1,94.6,112.3,94.4,112.2,94.3L112.2,94.3z"/>
	<path class="st2" d="M104,94c0-1.2-0.1-2.4-0.3-3.6c0-0.2-0.3-0.1-0.3,0c0,1.2,0.1,2.4,0.3,3.6C103.7,94.1,104,94.1,104,94L104,94z
		"/>
	<path class="st2" d="M116.9,78.8c0.5,0.4,1,0.8,1.6,1.1c0.5,0.4,1.1,0.7,1.7,1c0.2,0.1,0.4-0.2,0.2-0.4c-0.5-0.4-1.1-0.7-1.7-1
		C118.2,79.2,117.6,78.9,116.9,78.8C117,78.7,116.9,78.7,116.9,78.8C116.9,78.7,116.9,78.8,116.9,78.8L116.9,78.8z"/>
	<path class="st2" d="M117.3,89.7c1.2-0.2,2.3-0.5,3.3-0.9c0.2-0.1,0-0.4-0.2-0.3c-1.1,0.2-2.2,0.5-3.3,1
		C117.2,89.5,117.2,89.7,117.3,89.7L117.3,89.7z"/>
	<path class="st2" d="M124.3,73.2c0,2,0.2,4,0.7,5.9c0,0.1,0.1,0.1,0.1,0.1c0.1,0,0.1-0.1,0.1-0.1c0-2-0.2-4-0.6-5.9
		C124.6,73,124.3,73,124.3,73.2L124.3,73.2z"/>
	<path class="st2" d="M130.1,78.8c0.5-0.5,1-0.9,1.5-1.5c0.5-0.4,0.9-0.9,1.2-1.5c0.1-0.1-0.1-0.3-0.2-0.2c-0.5,0.4-1,0.9-1.4,1.4
		s-0.8,1-1.2,1.6C129.8,78.8,130,78.9,130.1,78.8z"/>
	<path class="st2" d="M135.2,83.7c1.2-0.2,2.3-0.6,3.4-1.2c0.1-0.1,0.1-0.2,0.1-0.3c-0.1-0.1-0.2-0.1-0.3-0.1
		c-1.2,0.3-2.3,0.8-3.2,1.4V83.7L135.2,83.7z"/>
	<path class="st2" d="M136.9,89.4c0.6-0.3,1.3-0.6,1.9-0.9c0.6-0.3,1.2-0.6,1.8-1.1c0.1-0.1,0.1-0.2,0-0.3c0,0-0.1-0.1-0.2,0
		c-0.6,0.2-1.2,0.5-1.8,0.9c-0.6,0.3-1.3,0.7-1.9,1.1C136.7,89.2,136.8,89.4,136.9,89.4z"/>
	<path class="st2" d="M60.7,58.3C70.8,62,82.5,62.5,93,61.8c10.7-0.6,21.1-3,30.9-7.3c0.2-0.1,0-0.3-0.1-0.3
		c-10.2,3.7-20.4,6.4-31.2,7c-5.1,0.3-10.3,0.2-15.4-0.3c-5.6-0.5-10.9-1.8-16.4-2.9c0,0-0.1,0-0.1,0.1
		C60.7,58.2,60.7,58.3,60.7,58.3L60.7,58.3z"/>
	<path class="st2" d="M60.5,77.1c6.2,2.4,13.3,3.3,20,3.8c6.8,0.5,13.6,0.2,20.3-1c0.2,0,0.2-0.4-0.1-0.4
		c-6.6,0.9-13.2,1.2-19.8,0.9c-7-0.4-13.6-2.1-20.4-3.5C60.4,76.9,60.4,76.9,60.5,77.1C60.4,77,60.4,77.1,60.5,77.1L60.5,77.1z"/>
	<path class="st2" d="M123.1,94.5c4.2-0.3,8.3-0.7,12.5-1V93l-10.1,1.2c-0.3,0-0.3,0.5,0,0.5c1.3,0.1,2.6,0,3.8-0.1
		c2.2-0.4,0.1,0-0.6,0.3c-0.1,0.1-0.2,0.2-0.1,0.3c0,0.1,0.1,0.2,0.2,0.2c0,0,2,0.3,1.7,0c-0.9,0.2-1.7,0.4-2.5,0.7
		c-0.1,0-0.2,0.2-0.2,0.3c0,0.1,0.1,0.2,0.2,0.2c0.8,0,1.6,0.1,2.4,0.2c-0.4,0.3-0.7,0.5-1.1,0.8c-0.1,0.1-0.1,0.2-0.1,0.4l0.1,0.1
		c0.4,0.1,0.8,0.2,1.2,0.3c0.1,0,0.2-0.1,0.3-0.2c0-0.1,0-0.2-0.1-0.2c-1.2-0.4,0-0.6,0.6-1.1c0.1-0.1,0.1-0.2,0.1-0.4
		c0-0.1-0.1-0.1-0.2-0.1c-0.8-0.1-1.5-0.2-2.3-0.1c0.9-0.1,1.8-0.4,2.6-0.7c0.1,0,0.2-0.2,0.2-0.3c0-0.1-0.1-0.2-0.2-0.2
		c-1.9-0.2-2.2,0.1-0.1-0.6c0.3-0.1,0.2-0.5-0.1-0.5l-5.7,0.2v0.5l10.1-1.2c0.3,0,0.3-0.5,0-0.5c-4.2,0.3-8.3,0.7-12.5,1
		C122.8,94,122.8,94.5,123.1,94.5L123.1,94.5z"/>
	<path class="st2" d="M135.4,88c-2.1,1.5-4,3.2-5.9,5c-0.1,0.1,0,0.3,0.2,0.2c2.1-1.5,4.1-3.1,5.9-4.9
		C135.9,88.2,135.6,87.9,135.4,88L135.4,88z"/>
	<path class="st2" d="M135.1,83.8c-4.1,2.8-8,5.9-11.7,9.2c-0.1,0.1,0,0.2,0.1,0.2c4.1-2.8,8-5.8,11.7-9.2c0,0,0.1-0.1,0-0.1
		C135.2,83.8,135.2,83.8,135.1,83.8L135.1,83.8z"/>
	<path class="st2" d="M133.5,81.5c-3.7,2.8-7.6,5.4-11.2,8.4c-0.1,0.1,0,0.2,0,0.2s0.1,0,0.2,0c3.9-2.6,7.5-5.6,11.1-8.4
		C133.7,81.6,133.6,81.4,133.5,81.5z"/>
	<path class="st2" d="M131.2,79.5c-3,1.9-6,3.7-8.8,5.8c-0.2,0.1,0,0.4,0.2,0.3c3-1.8,5.9-3.9,8.8-5.9
		C131.5,79.7,131.4,79.4,131.2,79.5z"/>
	<path class="st2" d="M128.6,78.3c-2.8,1.7-5.5,3.6-8.2,5.5c-0.1,0.1,0,0.3,0.1,0.2C123.3,82.2,126,80.4,128.6,78.3
		C128.8,78.4,128.7,78.2,128.6,78.3z"/>
	<path class="st2" d="M133,93.2c1.5-0.5,2.9-1.2,4.3-2c0.1,0,0.1-0.2,0.1-0.3c0-0.1-0.1-0.1-0.2-0.1c-1.5,0.5-2.9,1.2-4.3,2
		C132.6,93,132.8,93.3,133,93.2L133,93.2z"/>
	<path class="st2" d="M131.9,88.7c-2.1,1.2-4.2,2.5-6.2,3.9c-0.1,0.1,0,0.3,0.1,0.2c2.1-1.2,4.2-2.5,6.2-3.9
		C132.1,88.8,132,88.7,131.9,88.7z"/>
	<path class="st2" d="M131.3,71c4.1-0.3,8-1.6,11.5-3.8c0.1-0.1,0.1-0.2,0-0.2c0,0-0.1-0.1-0.2,0C139.1,69,135.3,70.3,131.3,71
		C131.2,70.9,131.2,71,131.3,71L131.3,71z"/>
	<path class="st2" d="M79.7,28c3.8,4,11.4,4.4,16.2,2.2c0.1,0,0-0.2-0.1-0.2c-2.7,0.8-5.5,1.1-8.2,0.8c-2.9-0.4-5.2-1.7-7.8-3h-0.1
		C79.6,28,79.7,28,79.7,28L79.7,28z"/>
	<g>
		<path class="st2" d="M60.3,90.3"/>
	</g>
</g>
</svg>
