<?xml version="1.0" encoding="utf-8"?>
<!-- Generator: Adobe Illustrator 24.1.2, SVG Export Plug-In . SVG Version: 6.00 Build 0)  -->
<svg version="1.1" id="Layer_1" xmlns="http://www.w3.org/2000/svg" xmlns:xlink="http://www.w3.org/1999/xlink" x="0px" y="0px"
	 viewBox="0 0 21.2 21.9" style="enable-background:new 0 0 21.2 21.9;" xml:space="preserve">
<path d="M1.8,0.9l2.4,0.8L3.9,2.5c0.1,0-0.3,2.2-0.5,3.3S3.1,8.2,2.9,9.4C2.9,10,2.8,10.5,2.8,11c0,0.8,0,1.6,0.1,2.4
	c0,0.6,0.2,1.1,0.3,1.7c0.1,0.6,0.4,1.2,0.8,1.7l0.4,0.5c0.2,0.2,0.5,0.3,0.7,0.1c0,0,0.1-0.1,0.1-0.1c0.2-0.3,0.4-0.6,0.5-0.9
	c0.3-0.9,0.6-1.8,0.7-2.8v-0.2l0.2,0.1l2,1.2c0.1,0,0.2,0.2,0.1,0.3l-0.1,0.4c-0.3,1.5-0.8,2.9-1.4,4.3c-0.2,0.4-0.5,0.8-0.8,1.1
	C6,21,5.5,21.2,5,21.2c-0.7,0-1.4-0.3-1.8-0.8c-1.1-0.9-1.8-2.2-2.2-3.6c-0.3-1.1-0.5-2.2-0.6-3.4c0-1.4-0.1-2.8,0-4.2
	s0.3-3,0.5-4.4c0.2-1.2,0.5-2.5,0.7-3.7L1.8,0.9z"/>
<path d="M20.6,16L18,16.5c-0.4-4.1-4.2-11-4.1-11.1l-0.4-0.6l2.1-1.1c0.8,0.9,1.5,1.8,2.1,2.8c1.5,2.5,3,8.8,3,8.8s0,0.1,0,0.2
	C20.5,15.6,20.6,15.8,20.6,16z"/>
</svg>
