<svg xmlns="http://www.w3.org/2000/svg" viewBox="0 0 20.2 19.5"><defs><style>.cls-1{fill:#6e6e6e;opacity:0.5;isolation:isolate;}</style></defs><g id="Layer_2" data-name="Layer 2"><g id="Layer_1-2" data-name="Layer 1"><g id="Layer_2-2" data-name="Layer 2"><g id="Layer_1-2-2" data-name="Layer 1-2"><path d="M1.38,0,3.81.81c-.1.43-.21.84-.31,1.26a39.9,39.9,0,0,0-.81,4.85,17.6,17.6,0,0,0-.31,2.69,18,18,0,0,0,.06,2.32c.07.76.21,1.52.33,2.29a3.94,3.94,0,0,0,.9,1.8l.25.3a.5.5,0,0,0,.69.15.54.54,0,0,0,.15-.15,4.11,4.11,0,0,0,.62-1.17c.22-.8.35-1.63.52-2.44a.71.71,0,0,1,0-.29l1.92,1.15c.37.22.37.22.27.64a13.69,13.69,0,0,1-1.86,4.38,1.85,1.85,0,0,1-1.68.91,1.69,1.69,0,0,1-1-.26A6.73,6.73,0,0,1,.74,15.59a13.7,13.7,0,0,1-.69-3.47A28.78,28.78,0,0,1,.43,5.5C.67,3.67,1,1.86,1.38,0Z"/><path class="cls-1" d="M20.2,14.67l-2.63.46c-.43-4.06-4.19-11-4.1-11.07L13,3.41,15.08,2.3a19.31,19.31,0,0,1,2.06,2.79c1.51,2.47,3,8.75,3,8.75V14A3.68,3.68,0,0,0,20.2,14.67Z"/></g></g></g></g></svg>