<?xml version="1.0" encoding="utf-8"?>
<!-- Generator: Adobe Illustrator 24.1.2, SVG Export Plug-In . SVG Version: 6.00 Build 0)  -->
<svg version="1.1" id="Layer_1" xmlns="http://www.w3.org/2000/svg" xmlns:xlink="http://www.w3.org/1999/xlink" x="0px" y="0px"
	 viewBox="0 0 231.1 41.3" style="enable-background:new 0 0 231.1 41.3;" xml:space="preserve">
<style type="text/css">
	.st0{opacity:0.74;fill:#FFFFFF;enable-background:new    ;}
	.st1{opacity:0.5;fill:#6E6E6E;enable-background:new    ;}
	.st2{fill:#FFFFFF;}
</style>
<g id="card_base">
	<path class="st0" d="M180.2,5.8h17.2c2.8,0,5.1,2.3,5.1,5.1v18.8c0,2.8-2.3,5.1-5.1,5.1h-17.2c-2.8,0-5.1-2.3-5.1-5.1V10.9
		C175.1,8.1,177.3,5.8,180.2,5.8z"/>
	<path class="st0" d="M143.7,5.8h17.2c2.8,0,5.1,2.3,5.1,5.1v18.8c0,2.8-2.3,5.1-5.1,5.1h-17.2c-2.8,0-5.1-2.3-5.1-5.1V10.9
		C138.6,8.1,140.9,5.8,143.7,5.8z"/>
</g>
<g id="carracters">
	<path d="M179.5,10.4l2.4,0.8l-0.2,0.8c0.1,0-0.3,2.2-0.5,3.3s-0.3,2.4-0.5,3.6c-0.1,0.5-0.2,1.1-0.2,1.6c0,0.8,0,1.6,0.1,2.4
		c0,0.6,0.2,1.1,0.3,1.7c0.1,0.6,0.4,1.2,0.8,1.7l0.4,0.5c0.2,0.2,0.5,0.3,0.7,0.1c0,0,0.1-0.1,0.1-0.1c0.2-0.3,0.4-0.6,0.5-0.9
		c0.3-0.9,0.6-1.8,0.7-2.8v-0.2l0.2,0.1l2,1.2c0.1,0,0.2,0.2,0.1,0.3l-0.1,0.4c-0.3,1.5-0.8,2.9-1.4,4.3c-0.2,0.4-0.5,0.8-0.8,1.1
		c-0.3,0.4-0.8,0.6-1.3,0.6c-0.7,0-1.4-0.3-1.8-0.8c-1.1-0.9-1.8-2.2-2.2-3.6c-0.3-1.1-0.5-2.2-0.6-3.4c0-1.4-0.1-2.8,0-4.2
		s0.3-3,0.5-4.4c0.2-1.2,0.5-2.5,0.7-3.7L179.5,10.4z"/>
	<path d="M143.9,10.8l2.4,0.8c-0.1,0.4-0.2,0.8-0.3,1.3c-0.4,1.6-0.6,3.2-0.8,4.9c-0.1,0.9-0.2,1.8-0.3,2.7c0,0.8,0,1.5,0.1,2.3
		c0.1,0.8,0.2,1.5,0.3,2.3c0.1,0.7,0.4,1.3,0.9,1.8l0.3,0.3c0.1,0.2,0.5,0.3,0.7,0.1c0.1,0,0.1-0.1,0.1-0.1c0.3-0.4,0.5-0.8,0.6-1.2
		c0.2-0.8,0.4-1.6,0.5-2.4c0-0.1,0-0.2,0.1-0.3l1.9,1.1c0.4,0.2,0.4,0.2,0.3,0.6c-0.4,1.6-1,3-1.9,4.4c-0.4,0.6-1,0.9-1.7,0.9
		c-0.4,0-0.7-0.1-1-0.3c-1.3-0.8-2.3-2.1-2.8-3.6c-0.4-1.1-0.6-2.3-0.7-3.5c-0.1-2.2,0-4.4,0.4-6.6
		C143.2,14.5,143.6,12.7,143.9,10.8z"/>
	<path d="M198.3,25.5l-2.6,0.5c-0.4-4.1-4.2-11-4.1-11.1l-0.4-0.6l2.1-1.1c0.8,0.9,1.5,1.8,2.1,2.8c1.5,2.5,3,8.8,3,8.8s0,0.1,0,0.2
		C198.3,25,198.3,25.2,198.3,25.5z"/>
	<path class="st1" d="M162.8,25.5l-2.6,0.5c-0.4-4.1-4.2-11-4.1-11.1l-0.4-0.6l2.1-1.1c0.8,0.9,1.5,1.8,2.1,2.8c1.5,2.5,3,8.8,3,8.8
		s0,0.1,0,0.2C162.7,25,162.7,25.2,162.8,25.5z"/>
	<path class="st2" d="M29.1,9.3l2.4,0.8l-0.2,0.8c0.1,0-0.3,2.2-0.5,3.3s-0.3,2.4-0.5,3.6c-0.1,0.5-0.1,1.1-0.2,1.6
		c0,0.8,0,1.6,0.1,2.4c0,0.6,0.2,1.1,0.3,1.7c0.1,0.6,0.4,1.2,0.8,1.7c0.1,0.2,0.3,0.3,0.4,0.5c0.2,0.2,0.5,0.3,0.7,0.1
		c0,0,0.1-0.1,0.1-0.1c0.2-0.3,0.4-0.5,0.5-0.9c0.3-0.9,0.5-1.9,0.7-2.9c0,0,0-0.1,0-0.2l0.2,0.1l2,1.2c0.1,0,0.2,0.2,0.1,0.3
		l-0.1,0.4c-0.3,1.5-0.8,2.9-1.4,4.3c-0.2,0.4-0.5,0.8-0.7,1.1c-0.3,0.4-0.8,0.6-1.3,0.6c-0.7,0-1.4-0.3-1.8-0.8
		c-1.1-0.9-1.8-2.2-2.2-3.6c-0.3-1.1-0.5-2.2-0.5-3.4c0-1.4-0.1-2.8,0-4.2s0.3-3,0.5-4.4c0.2-1.2,0.5-2.5,0.7-3.7
		C29.1,9.5,29.1,9.4,29.1,9.3z"/>
	<path class="st2" d="M48,24.4l-2.6,0.5c-0.4-4.1-4.2-11-4.1-11.1l-0.5-0.6l2.1-1.1c0.8,0.9,1.5,1.8,2.1,2.8c1.5,2.5,3,8.8,3,8.8
		s0,0.1,0,0.2S48,24.2,48,24.4z"/>
	<path d="M195.2,12.4l0.2-0.1l3.3,5.1c0.1-0.3,0.1-0.5,0.2-0.7s0.1-0.2,0.2-0.1l-0.3,1.3c-0.4-0.1-0.9-0.1-1.3-0.2
		c0,0-0.1-0.1-0.1-0.1l0.1-0.1l1.1,0.1L195.2,12.4z"/>
	<path d="M144.1,30.1c0.1-0.2,0.2-0.1,0.3,0c0.6,0.9,1.7,1.4,2.8,1.4c1,0,2-0.6,2.6-1.4l-0.3,0.1c-0.1-0.1-0.1-0.2,0-0.2l0.6-0.2
		c0.1,0.2,0.2,0.4,0.3,0.6c0,0-0.1,0.1-0.1,0.2l-0.2-0.4c-0.8,1.2-2.1,1.8-3.5,1.5C145.5,31.5,144.6,30.9,144.1,30.1z"/>
	<path d="M141.7,13.5c0.2,0.1,0.3-0.3,0.4,0l-0.6,0.5l-0.6-0.6c0.1-0.1,0.1-0.1,0.5,0.2l0.4-3.4c0.2,0,0.2,0.1,0.2,0.2
		c-0.1,0.6-0.2,1.3-0.3,1.9C141.8,12.7,141.8,13.1,141.7,13.5z"/>
</g>
</svg>
