<svg id="illustration" xmlns="http://www.w3.org/2000/svg" viewBox="0 0 198.43 134.37"><defs><style>.cls-1{fill:#fff;}.cls-2{fill:#5292ce;}.cls-3{fill:#4574b9;}.cls-4{fill:#3e201f;}.cls-5{fill:#010101;}.cls-6{fill:#74d1f6;}</style></defs><path class="cls-1" d="M58.27,74.5,56,77.44l-1.27,2-2.06,1.71-1.59,1.41-1,1.89L48.9,85.69s-1.21,1.44-1.43,1.69l-1.29,1.45-1.44,1s-.56,1.23,0,1.07a1.19,1.19,0,0,1,1,.39l1.64-1,1.48-1.13,1.55-1.78L52,86.3,53.15,85,54.7,83.8l1.36-.18L57,85.79l.88,1.87.39.44c.49-.07,1.3-1.61,1.3-1.61l.26-.7V84.46l.44-.43,1.21,0,.7.38,12.37,23.18,31.2-10.72-7.51-5-2.49-2.59L94,87.6l-2.08-2.24-1.3-2.48-2.38-4-1.74-2.24-1.83-1-.58-.07-1.21-.81-1.13-.23-1.12-.82-.8-.42L79,72.43H77.6l-1.47.47-1,.69H73.66l-1.87.14-2.58,0-2-.07-2.57-.08-2.06,0-2.31.3-1.2.31Z"/><path class="cls-1" d="M160.15,10a2.22,2.22,0,0,0,.19-1.22,2.79,2.79,0,0,0-.4-1.32,3.87,3.87,0,0,0-2.08-1.69,2.28,2.28,0,0,0-2.44.46,1.65,1.65,0,0,0-.34,1.58,2.33,2.33,0,0,0,1,1.22,3.87,3.87,0,0,0,1.45.47l.65.13a1.93,1.93,0,0,1,.34.11c-.17-.09-.07,0,0,0l.2.12a.83.83,0,0,0,1-.12.7.7,0,0,0,.13-.17.84.84,0,0,0-.29-1.13,6.12,6.12,0,0,0-2.1-.61l-.23-.06c-.18,0,.11.06,0,0l-.11,0-.2-.12c-.1-.06.1.09,0,0a.52.52,0,0,0-.11-.1l-.08-.09c-.11-.12,0,0,0,0s-.06-.1-.07-.12,0,.15,0,0l0-.1c0-.1,0,.18,0,.07s0-.14,0,0,0-.05,0-.05-.09.16,0,.06.08-.15,0,0,0,0,0,0-.15.09-.06,0,.22-.11.08,0,.09,0,.13,0h0c-.13,0,0,0,0,0h.3c.11,0-.18,0-.07,0l.21,0,.13.05h0c-.12,0,.1,0,.13.06a3.87,3.87,0,0,1,.43.27l0,0,.09.08.16.15a1.21,1.21,0,0,1,.16.16l.08.08.06.07c-.08-.08,0,0,0,0l.08.12.16.23c.09.15.19.3.27.45s.12.23.08.12l.09.26c.07.19.13.38.21.56a.4.4,0,0,0,.69,0Z"/><path class="cls-1" d="M183.44,21.93c-.86-.68-2.34-.38-3.34-.24a15.25,15.25,0,0,0-1.76.36,6.5,6.5,0,0,0-1.55.55,1.54,1.54,0,0,0-.83,1.2,2.06,2.06,0,0,0,.77,1.45c.86.93,1.71,1.86,2.58,2.78a16.36,16.36,0,0,0,2.55,2.51,2.18,2.18,0,0,0,3-.26A3.19,3.19,0,0,0,185,27a13,13,0,0,0-1.4-2.85,4.31,4.31,0,0,0-2.74-1.83c-1-.17-2.61.05-2.89,1.25a.73.73,0,0,0,.88.88,2.14,2.14,0,0,0,.54-.23l.25-.14a1.58,1.58,0,0,1,.89-.1,2.56,2.56,0,0,1,1.47.85,7.25,7.25,0,0,1,1.13,1.94,3.65,3.65,0,0,1,.58,2.17c-.18.67-.74.49-1.19.16a16.84,16.84,0,0,1-1.94-1.93l-2-2-1-1a1.58,1.58,0,0,0-.22-.23l0,0c0-.07-.05-.06,0,0s-.24.13,0,0l.2-.13a6.94,6.94,0,0,1,1.27-.4q.78-.22,1.59-.39c.48-.09,1-.16,1.45-.21a3,3,0,0,0,1.48-.4c.12-.1.21-.31.06-.43Z"/><path class="cls-1" d="M179.13,24.84c.26.3.51.61.78.9s.55.56.83.84c.57.55,1.15,1.08,1.75,1.59a.91.91,0,0,0,1.28-1.28,9.55,9.55,0,0,0-1.05-1.06,5.87,5.87,0,0,0-1.51-1,.88.88,0,0,0-1,.41.89.89,0,0,0,.14,1.08c.22.19.48.34.72.51l.15.11c.1.08.06.06,0,0a3.22,3.22,0,0,0,.28.24,8.76,8.76,0,0,1,1,1l1.28-1.28c-.65-.55-1.31-1.08-2-1.6-.32-.23-.63-.47-.95-.69s-.69-.42-1-.64a.56.56,0,0,0-.72.15.55.55,0,0,0,0,.73Z"/><path class="cls-1" d="M182.64,23.54l.13.15-.12-.48a.61.61,0,0,0,.16.6l.07.08-.11-.19a.64.64,0,0,0,.16.29l.14.14.07.09c0,.05-.1-.15,0,0a6.65,6.65,0,0,1,.41.74l-.08-.19a3.68,3.68,0,0,1,.23.88l0-.22a1.45,1.45,0,0,0,0,.29,1,1,0,0,0,.23.38l-.13-.16.05.09a.76.76,0,0,0,.75.36.8.8,0,0,0,.63-.55l0-.09-.08.19a1.19,1.19,0,0,0,.06-.89,2.53,2.53,0,0,0-.12-.36,3.43,3.43,0,0,0-.43-.8,4.31,4.31,0,0,0-.32-.4l-.07-.07s-.34-.25-.09-.06l-.25-.2a1,1,0,0,0-.56-.24c.19,0,.29.09.15,0l-.19-.08a.62.62,0,0,0-.58.16l.48-.13-.32-.05a.41.41,0,0,0-.38.26.42.42,0,0,0,.09.46Z"/><path class="cls-1" d="M182.6,22.15l-.11,0h-.06a.61.61,0,0,0-.3,0h0a.5.5,0,0,0-.22.13.45.45,0,0,0-.13.22h0a.51.51,0,0,0,0,.3l0,.06,0,.11a.69.69,0,0,0,.45.45.65.65,0,0,0,.8-.8.61.61,0,0,0-.16-.28.62.62,0,0,0-.29-.17Z"/><path class="cls-1" d="M179.38,22.91a2.26,2.26,0,0,1,.62-.26,2.35,2.35,0,0,1,.65,0c.23,0,.45,0,.68,0h.07l.15,0a1.58,1.58,0,0,1,.37.11l.13.05,0,0a2,2,0,0,1,.29.15l.12.07.1.07c-.08-.06.09.08.08.07l.11.1c.17.16.29.36.47.51s.6.47.92.33l-.44-.05c.17.09.33.37.61.25s.27-.44.25-.69l-.07.27a1.56,1.56,0,0,0-.67-1.84,3.38,3.38,0,0,0-1.62-.82,3.25,3.25,0,0,0-1.8.15,4,4,0,0,0-1.36,1.09c-.16.19,0,.51.29.37Z"/><path class="cls-1" d="M178.75,24.52l0,.12.17-.23c-.36.25-.31.63-.28,1a3,3,0,0,0,.29,1.1A5.12,5.12,0,0,0,180,28a5.89,5.89,0,0,0,1.58,1,4.89,4.89,0,0,0,1,.33,2,2,0,0,0,.77.05,1,1,0,0,0,.69-.45l-.24.25,0,0a.66.66,0,0,0,0-1.13l0,0,.24.25a1,1,0,0,0-.66-.49l-.27-.05-.11,0a5.62,5.62,0,0,1-.77-.23c-.16-.06.14.07,0,0L182,27.4l-.33-.19a3.78,3.78,0,0,1-.33-.22c-.06,0-.14-.11,0,0l-.17-.15a5.12,5.12,0,0,1-.56-.58.86.86,0,0,1-.13-.14c-.11-.13.07.11,0,0l-.22-.32a1.65,1.65,0,0,0-.19-.27c-.12-.14.06.12,0,0a3.45,3.45,0,0,0-.2-.32c-.18-.28-.25-.62-.63-.73l.22.18-.06-.11a.33.33,0,0,0-.59.08Z"/><path class="cls-1" d="M182.88,28.19a5.86,5.86,0,0,0,.21-.9,7.83,7.83,0,0,0,.1-.83,5.39,5.39,0,0,0-.1-.9c0-.15-.05-.3-.07-.44a1.29,1.29,0,0,1,0-.19l0-.12c0-.13,0-.08,0,.14a.74.74,0,0,0-.34-.85l-.23-.14a.6.6,0,0,0-.85.35,1,1,0,0,0,0,.24s0,.18,0,0a.8.8,0,0,0,.53.93h0l-.31-.18c-.09-.09,0,0,0,.06l.1.2a.89.89,0,0,1,.08.17s0,0,0,0l0,.09c.08.25.14.51.2.77a4,4,0,0,1,.15.69,5.63,5.63,0,0,1,0,.82.27.27,0,0,0,.53.08Z"/><path class="cls-1" d="M71.46,10.53c.35-.37.12-1,0-1.46a5.11,5.11,0,0,0-.81-1.37,5.61,5.61,0,0,0-2.5-1.64c-1-.34-2.34-.47-3,.51a1.5,1.5,0,0,0,0,1.65,2.6,2.6,0,0,0,1.35.95c.61.22,1.28.33,1.91.49l1,.24a4.82,4.82,0,0,0,1.24.22A.85.85,0,0,0,71,8.54a6.81,6.81,0,0,0-1.67-.48l-1.58-.35c-.22,0-.45-.09-.66-.16l-.24-.08c-.12,0,.11.07,0,0l-.16-.09s-.06,0-.09,0,.08.09,0,0l-.07-.07s0-.11,0,0c0,0-.08-.07,0,0l0,.05c0-.07,0-.07,0,0s0,0,0,0a.21.21,0,0,1,0,.15s0,.06,0,0-.1.12,0,0-.05,0-.06.05,0,0,0,0l.13,0,.1,0c.1,0-.14,0,0,0a2.44,2.44,0,0,0,.27,0c.22,0-.07,0,.1,0l.26.06a3,3,0,0,1,.6.18l.11,0c-.14-.06,0,0,0,0l.24.12a4.27,4.27,0,0,1,.51.3l.25.19.11.09c.15.13.3.25.44.39a6.66,6.66,0,0,1,.8.92c.13.17.23.33.36.51s.53.41.75.17Z"/><path class="cls-1" d="M47.21,24.36c-2.08-.9-4.66.53-6.1,2a8.05,8.05,0,0,0-2.24,6.41A7.23,7.23,0,0,0,40,36.16a2.51,2.51,0,0,0,3.06,1.07,2.26,2.26,0,0,0,.88-3,8.51,8.51,0,0,1-.77-2.83A5.92,5.92,0,0,1,44,28.35a6.7,6.7,0,0,1,2.3-2.19c.8-.53.32-2-.69-1.63-3.45,1.16-5.08,5.84-3.87,9.09.12.32,1,1.89.46,2-.74.19-1.24-1.39-1.38-1.86a6.54,6.54,0,0,1,.92-5.64,6.64,6.64,0,0,1,2.47-2c1-.48,2-.67,3-1.09a.38.38,0,0,0,0-.65Z"/><path class="cls-1" d="M41.58,29a4.38,4.38,0,0,0-.83,1.45,5.39,5.39,0,0,0-.31,1.73,5.29,5.29,0,0,0,.24,1.73,3.5,3.5,0,0,0,1,1.78.8.8,0,0,0,1.17-.9,2.94,2.94,0,0,0-.4-.74l-.17-.33c0-.12-.06-.14-.09-.23a7.27,7.27,0,0,1-.41-1.45A6.67,6.67,0,0,1,42,29.24c.06-.21-.24-.41-.39-.23Z"/><path class="cls-1" d="M42.08,46.06a.75.75,0,0,1-.15.16,1.17,1.17,0,0,0-.15.27,1.84,1.84,0,0,0-.2.57,3.24,3.24,0,0,0,0,1.24,4.15,4.15,0,0,0,1.09,2.08.77.77,0,0,0,.94.12.79.79,0,0,0,.36-.87c-.34-1.49-.68-3-1-4.45a.82.82,0,0,0-1-.57.83.83,0,0,0-.57,1c.36,1.48.73,3,1.11,4.43l1.3-.76A2.77,2.77,0,0,1,43,47.92c0-.15-.07-.29-.11-.43a1.55,1.55,0,0,0,0-.23s0-.2,0-.1c0-.15,0-.37-.06-.48s0-.17,0-.26,0-.24-.06-.12c.06-.32-.41-.59-.58-.24Z"/><path class="cls-2" d="M63.79,33.7l-.07.1.13-.14-.05,0a.34.34,0,0,0-.12.12.35.35,0,0,0-.08.13,1.28,1.28,0,0,0-.11.33l-.11.5-.22,1a.53.53,0,0,0,.36.64.52.52,0,0,0,.64-.37l.2-1.05.09-.53a1.23,1.23,0,0,0,0-.33.71.71,0,0,0,0-.2.49.49,0,0,0-.14-.23l.09.17,0-.11a.34.34,0,0,0-.6-.08Z"/><path class="cls-2" d="M120.64,35.78a1.87,1.87,0,0,0,.26-.3s.12-.18,0-.07c0-.07.11-.14.16-.22s.12-.18.18-.28l.09-.12.05-.07c-.09.11,0,0,0,0a7.41,7.41,0,0,1,1-1l.06,0s.08,0,0,0a1.06,1.06,0,0,0,.2-.17.59.59,0,0,0,.13-.71.56.56,0,0,0-.66-.23,1.27,1.27,0,0,0-.41.23,4.8,4.8,0,0,0-.59.51,7.37,7.37,0,0,0-.5.61,2.74,2.74,0,0,0-.64,1.55.38.38,0,0,0,.65.27Z"/><polyline class="cls-2" points="88.53 90.83 197.18 86.02 199 86.02 199.14 134.53 148.32 134.53 88.53 90.83"/><path class="cls-3" d="M7.38,116.69l8.77-7.93,11.21-7.39.82-1.05,6.38-3.57,2.22-1.39,6.1-5.84,9.46-8L48.9,85.69s-5.08,3.84-4.1,4.71a1.59,1.59,0,0,0,1.83.38l5-3.53,3.1-2.92s.21-.8.7-.71S57.09,86,57.09,86l1.34,2.51S60.12,86.09,60,84.7s2.61.16,2.61.16L79,103.12a2,2,0,0,0,2,.74c1.49-.1.7-1.42.7-1.42L80.6,98.55l-1.17-10,2.29.3,1.33,1.52.85-1.22,7.32,6.29V93.63l3.09,1.79L96,93.63l.41-2.1.25-.66,20.64,13.78,17.1,9.41,11.7,5.29,10.68,4.09,10.41,5.62,4,3.35,1.94,2.12-76.23-.2-98.61.35-.55-11.54Z"/><path class="cls-1" d="M103.36,100a9,9,0,0,0,1.08.53c.38.19.77.36,1.14.56s.71.42,1.06.64a4.72,4.72,0,0,0,1.13.68.52.52,0,0,0,.58-.76,2.75,2.75,0,0,0-.94-1,7.66,7.66,0,0,0-1.18-.76,5.18,5.18,0,0,0-2.64-.76.46.46,0,0,0-.23.85Z"/><path class="cls-1" d="M45.69,108.74l-1.63,1.45-.8.72a7.18,7.18,0,0,0-.77.79c-.1.12,0,.34.18.23a7.77,7.77,0,0,0,.82-.7l.79-.77c.53-.51,1-1,1.57-1.56.1-.1-.05-.25-.16-.16Z"/><path class="cls-1" d="M24.33,110.35A9.1,9.1,0,0,0,19.11,112a9.4,9.4,0,0,0-3.56,4c-.06.14.15.21.23.1a13.16,13.16,0,0,1,3.69-3.78,14,14,0,0,1,4.9-1.75c.17,0,.12-.29,0-.3Z"/><path class="cls-1" d="M101.85,113.62a3.68,3.68,0,0,1,1.63,2.49,14.61,14.61,0,0,0,.92,3c.89,1.73,2.92,2.45,4.7,2.85a.14.14,0,0,0,.07-.28c-2-.66-4.15-1.28-4.76-3.55-.47-1.77-.44-4-2.42-4.88-.19-.08-.32.24-.14.33Z"/><path class="cls-1" d="M91.92,102.91a20.55,20.55,0,0,1-.42,8.26.12.12,0,0,0,.24.06,15.89,15.89,0,0,0,.55-8.43c-.05-.24-.41-.13-.37.11Z"/><path class="cls-1" d="M52.54,102.08l-.12,2.78c0,.92-.13,1.85-.11,2.78,0,.08.11.07.12,0,.11-.92.11-1.86.16-2.78l.16-2.78c0-.13-.2-.13-.21,0Z"/><path class="cls-1" d="M50.4,117a30.16,30.16,0,0,0-2.55,2.12c-.9.78-1.82,1.55-2.75,2.3-1.88,1.5-3.86,2.88-5.77,4.34-.14.11,0,.35.15.25A48.57,48.57,0,0,0,45.21,122c.9-.73,1.8-1.47,2.68-2.23a19.43,19.43,0,0,0,2.64-2.57c.07-.08,0-.24-.13-.16Z"/><path class="cls-1" d="M35.05,115.54a25.59,25.59,0,0,0-6.51,3.61c-.07.06,0,.17.09.13,2.15-1.22,4.29-2.44,6.55-3.45.16-.07,0-.36-.13-.29Z"/><path class="cls-1" d="M17.48,125a18.2,18.2,0,0,0-4.73,3.87c-.09.1.05.25.15.15a24.33,24.33,0,0,1,4.7-3.82.12.12,0,0,0-.12-.2Z"/><path class="cls-1" d="M81.86,111.84a.66.66,0,0,1,.58-.63l-.21-.12a9.35,9.35,0,0,0,3.51,5.1,11.87,11.87,0,0,0,2.65,1.59,8.29,8.29,0,0,0,1.43.48,6.37,6.37,0,0,1,.74.13c.17,0,.16,0,.21.19a2.73,2.73,0,0,1,0,.57s.08,0,.08,0c0-.27,0-.54,0-.82a.09.09,0,0,0-.07-.08,12,12,0,0,1-5.09-2.64,12.34,12.34,0,0,1-1.87-2.15,20,20,0,0,1-1.34-2.5.19.19,0,0,0-.2-.08,1,1,0,0,0-.72.93c0,.13.21.16.23,0Z"/><path class="cls-1" d="M111.31,107.58a4.88,4.88,0,0,1,2.34.82,4,4,0,0,1,.89.86c.25.33.43.71.7,1a.1.1,0,0,0,.17-.08,2.06,2.06,0,0,0-.52-1.21,5,5,0,0,0-1-.95,3.85,3.85,0,0,0-2.59-.77.16.16,0,0,0,0,.31Z"/><path class="cls-4" d="M60.19,76.57,59,78.09c-.39.5-.81,1-1.17,1.5,0,.07.06.15.12.09.42-.47.8-1,1.2-1.47l1.2-1.48c.09-.11-.07-.27-.15-.16Z"/><path class="cls-4" d="M84.18,78.88a8.75,8.75,0,0,0,1,1.7,13.12,13.12,0,0,0,1.32,1.56.12.12,0,0,0,.19-.15,11.62,11.62,0,0,0-1.08-1.7,8.56,8.56,0,0,0-1.31-1.51c-.07,0-.21,0-.17.1Z"/><path class="cls-4" d="M72.16,82.21a22.92,22.92,0,0,0,1.25,4c.23.65.47,1.3.71,2a10.15,10.15,0,0,0,.81,1.89c.11.18.35,0,.33-.14a10.59,10.59,0,0,0-.64-2c-.23-.65-.47-1.3-.71-2a23.4,23.4,0,0,0-1.6-3.79.08.08,0,0,0-.15.06Z"/><path class="cls-4" d="M65.14,81.19a16.15,16.15,0,0,0-.6,1.59c0,.11.14.18.19.08.24-.52.41-1.08.6-1.62,0-.12-.14-.16-.19,0Z"/><path class="cls-4" d="M76,94.84l.63.94.31.46.17.25c.07.07.12.15.22.17a.14.14,0,0,0,.18-.14.54.54,0,0,0-.09-.27,1.88,1.88,0,0,0-.16-.23l-.3-.46-.62-.91a.2.2,0,0,0-.27-.07.2.2,0,0,0-.07.26Z"/><path class="cls-4" d="M75,76.62a3,3,0,0,1,.18.36,3.08,3.08,0,0,0,.24.27c.15.18.32.36.47.55A11.39,11.39,0,0,1,76.76,79c.26.39.52.79.75,1.2s.45.9.72,1.31a.19.19,0,0,0,.34-.14A5.26,5.26,0,0,0,78,79.93a10.47,10.47,0,0,0-.79-1.32,14.75,14.75,0,0,0-.93-1.16c-.18-.2-.35-.38-.54-.56a3.47,3.47,0,0,0-.29-.25c-.12-.07-.25-.08-.37-.16s-.16.07-.11.14Z"/><path class="cls-4" d="M63.56,76.76c-.4.41-.8.81-1.16,1.26l-.55.65c-.18.22-.35.46-.51.69s.13.34.26.21A21.27,21.27,0,0,0,63.81,77c.11-.15-.12-.32-.25-.19Z"/><path class="cls-4" d="M54.22,81.53a14.26,14.26,0,0,0-2.07,2c-.29.37-.57.74-.83,1.13a6.15,6.15,0,0,0-.7,1.25c0,.14.14.19.22.09.27-.37.49-.79.75-1.18s.55-.78.85-1.15a16.19,16.19,0,0,1,2-2c.12-.1,0-.27-.18-.17Z"/><path class="cls-4" d="M70,77.48l.2.19a0,0,0,0,0,0,0s0,0,0,0L70,77.41H70a0,0,0,0,0,0,.07Z"/><path class="cls-4" d="M68.12,84.25a5.38,5.38,0,0,0,.53.75c.19.26.37.52.53.79s.15.26.22.4.18.26.26.4.27.58.41.86.3,0,.27-.11a4.3,4.3,0,0,0-.3-.94,4.22,4.22,0,0,0-.18-.45l-.26-.43a6.28,6.28,0,0,0-.59-.77,2.55,2.55,0,0,0-.74-.65.11.11,0,0,0-.15.15Z"/><path class="cls-4" d="M84.26,85.41c.2.33.38.67.61,1a.08.08,0,0,0,.14-.09c-.17-.34-.39-.67-.59-1a.09.09,0,0,0-.16.09Z"/><path class="cls-4" d="M69.24,76.5a3.88,3.88,0,0,0-.61.79l-.54.82c-.18.27-.36.54-.53.82a5.25,5.25,0,0,0-.5.85c-.06.16.16.26.27.16a5.9,5.9,0,0,0,.59-.8l.55-.81.55-.81a4.28,4.28,0,0,0,.48-.86c0-.16-.15-.25-.26-.16Z"/><path class="cls-4" d="M71.72,76.72a6.07,6.07,0,0,1,.94,1.2,5,5,0,0,1,.32.66c.1.24.17.49.28.72s.27.07.26-.07a2.3,2.3,0,0,0-.23-.76,5.3,5.3,0,0,0-1.43-1.89c-.1-.08-.23,0-.14.14Z"/><path class="cls-4" d="M88.8,90.78a0,0,0,0,0,0,0,0,0,0,0,0,0,0Z"/><path class="cls-2" d="M87.68,91.52s8.47-6.78,9.4-8.37,8.47-11.91,8.21-16.15-.53-13.64-4.24-16.81,15.76-18.41,15.76-18.41l63.95,15.49S203.13,81.43,200,88.19"/><path class="cls-5" d="M87.89,91.57q2.39-1.91,4.71-3.89c1.08-.92,2.14-1.84,3.17-2.81A10,10,0,0,0,97.44,83c1.37-2.19,2.87-4.29,4.2-6.5A49.76,49.76,0,0,0,104.09,72a15.6,15.6,0,0,0,1.37-3.9,16.94,16.94,0,0,0-.09-3.83c-.12-1.79-.27-3.57-.54-5.35a25.79,25.79,0,0,0-1.27-5.18,10.27,10.27,0,0,0-2.33-3.64c-1.08-1.12.22-3,.89-4a38.79,38.79,0,0,1,5-5.67c1.93-1.88,4-3.68,6-5.42,1.2-1,2.52-2,3.68-3l.18-.15-.34,0,4.3,1,10.81,2.62L146.17,39,161,42.6l12.36,3,6.77,1.64a4.21,4.21,0,0,1,.48.12c-.12-.05,0,0,.05.15.48.86,1.08,1.68,1.61,2.52,2.31,3.65,4.56,7.35,6.72,11.1,2.68,4.64,5.27,9.35,7.51,14.22a58.62,58.62,0,0,1,2.57,6.38,15.47,15.47,0,0,1,.95,4.84,3.83,3.83,0,0,1-.3,1.6c-.06.14.43.18.49,0a5.17,5.17,0,0,0,.25-2.73,20.61,20.61,0,0,0-1-4A75.69,75.69,0,0,0,195,71.23c-3.48-6.87-7.41-13.52-11.5-20-.58-.93-1.17-1.86-1.76-2.78a5,5,0,0,0-.75-1.15,1.46,1.46,0,0,0-.59-.19l-1.78-.43-16.6-4L138.86,37l-18.14-4.4c-1.22-.29-2.44-.65-3.68-.89-.38-.07-.52.07-.81.29-.83.66-1.65,1.34-2.46,2a110.48,110.48,0,0,0-8.26,7.49,38.83,38.83,0,0,0-3.49,4,7.78,7.78,0,0,0-1.67,3.27,1.74,1.74,0,0,0,.18,1.12,3.29,3.29,0,0,0,.55.57,6.81,6.81,0,0,1,1,1.3,19.13,19.13,0,0,1,2.23,7.16c.36,2.38.51,4.78.65,7.18a8.46,8.46,0,0,1-.12,2.51,17,17,0,0,1-1,2.89,81.12,81.12,0,0,1-6.53,10.93,15.07,15.07,0,0,1-2.47,2.83c-1.56,1.43-3.19,2.79-4.82,4.14-.84.69-1.68,1.38-2.53,2.06-.15.12.33.19.43.11Z"/><path class="cls-1" d="M118.26,68.06s-1.32,11.78-2.91,13-1.45.26-3.18.66-3.31,2.65-4.63,3-3.18-.92-3.84,0-2.25,5-5.17,5.17.67,1.76,2.52,1.61,2.65-1,3.84-1,3.71.79,7.28-1.59,6.62-5.56,6.75-8.08S119.45,70.05,118.26,68.06Z"/><path class="cls-5" d="M118,68.09c-.16,1.45-.36,2.89-.58,4.32a42.92,42.92,0,0,1-1.47,7,3,3,0,0,1-1.42,2c-.54.28-1.09.06-1.67.09a4.27,4.27,0,0,0-1.9.59,13.92,13.92,0,0,0-1.88,1.46,3.29,3.29,0,0,1-2.35,1.16c-.94-.1-2.51-.9-3.27,0s-1,1.83-1.59,2.67a7.52,7.52,0,0,1-1.43,1.6,3.78,3.78,0,0,1-2.18.82c-.67.07-1.56.4-.65,1a6,6,0,0,0,3.38.83,8,8,0,0,0,2.21-.51,4.52,4.52,0,0,1,1.94-.42,13.25,13.25,0,0,0,3.27,0,11.7,11.7,0,0,0,4.8-2.24,21.11,21.11,0,0,0,4.28-4,6.8,6.8,0,0,0,1.68-3.76c.06-1.14.11-2.28.13-3.41a32.54,32.54,0,0,0-.41-8.19,4.17,4.17,0,0,0-.4-1.12c-.07-.11-.55,0-.47.12a7.16,7.16,0,0,1,.65,2.86c.13,1.37.16,2.74.17,4.11s0,2.69-.09,4a9.37,9.37,0,0,1-.42,3.2,12,12,0,0,1-3.13,4.08A17.85,17.85,0,0,1,110,90a8.87,8.87,0,0,1-4.17.53,6.14,6.14,0,0,0-2.9.44,5.67,5.67,0,0,1-4.53-.13c-.25-.12-1.09-.53-.51-.76a4.71,4.71,0,0,1,1-.11,3.46,3.46,0,0,0,.78-.21,6,6,0,0,0,2.64-2.31c.59-.84,1-1.87,1.59-2.66.46-.59,1.64-.05,2.26.06a3.06,3.06,0,0,0,1.67-.1c1.35-.53,2.27-1.84,3.5-2.57a3.34,3.34,0,0,1,2.22-.43,2.15,2.15,0,0,0,1.2-.18,2.69,2.69,0,0,0,1.48-1.6,29.46,29.46,0,0,0,1.46-6.22q.45-2.7.77-5.4c0-.11,0-.21,0-.32S118,67.93,118,68.09Z"/><path class="cls-1" d="M184.2,96.92S180,95.47,179.56,94a21.83,21.83,0,0,1,0-5.16s-4.36,1-5.16,2.68-1.59,4.2-3.18,3.81-2.78-3-1.72-5.17,5.17-1.72,5-4.24-4.77-2.51-5.43-1.72-2.91,2.52-2.64,5.3-3.36-2.88-1.19-5.77c1.45-1.94,2.78-1.78,2.78-1.78s-.14-2.48-2-2.17-6.09,3.76-6,5.22,1.06,1.91.93,3.34-6-3.21-3.18-7.45,6.22-5.43,8.47-4.63,10.46,5.43,13.91,5.16,8.34-1.19,8.87-2.51,2.12-6,1.32-7-1.32,2-5.43,2.21S181.55,73,181.55,73s6.22-.27,6.09-2.78-3.71-2.91-8.08,0c-2.38,4.63-11.65,4.42-12.84,3.93s-5.43-2-5.16-5.12c0,0,5.29,4.63,6.49,1.06s-4.64-6.36-5.7-6.36-2.91,1.06-4,1.19-1.19-.26-2.78-.13-2.78,4.37-8.61,4-5.82-5-5.82-5,6.09,4.66,9-2c.4-4.71-13.64-3.12-11.65,1.38l-1.85,1.06a7.12,7.12,0,0,0,1.72,1.45c.66.27-4.24,2.65-4.11,3.84s-.13,1.33,1.19,2.39.53.45-1.19,2.34-2.38,3.65-5.16,5.68-7.28,1.51-7.28,1.51,2.91-3,3.17-5.43-1.19-6-1.19-6,3.31.67,3.45,2.39,2.51,1.32,2.38-1.59-.8-4.64-2.38-4.5-4.11-4-4.11-4,5,2.65,6.49,2.12,3-3.7-3.05-7.41-18.27,2.78-16.28,6.35l.66,1.33s-7.55-4.2-3.71-8.79c2.92-1.54,7.68,1.37,7.81-1.14s-3.17-4.11-6.09-4.5-7.76-2.65-11.56,2.11c0,0-2.74,2.52-.62,4.11-4.76-4-.75-8.74.62-9s3.22-1.33,2.69-3.31-1.59-3.18-3.57-3.18-6.81,2.55-4.37,6.49c-3.84-1.06-3.18-4.64-2-6.49s1.59-3.58-.93-4-6.75,2.25-6.09,5.16.93,5,2,6c-6.09-1.72-4.24-7.15-4.37-8.21S76.42,37.47,74,41.58s-2,9.53-.66,10.19a4.07,4.07,0,0,0,3.44,2.39c1.19,0-4.9,1.85-7.95-.27s-.66-5.29,0-7.15,0-4.9-3.42-3.44-6.87,10.2,0,15.09c-10.43-.77-5.56-13.38-6-14,0,0-2.78-2.25-4.89,2.12S55.5,53,55.5,53s-7.28-1.06-5.69-8.35,7-6.35,6.88-10.59S49.81,31.12,48.48,33c-1.85-5.29,4.37-8.34,7.42-8.34S60,27.68,62,27.41s6.62-2.12,4.9-4.9-4-5.29-6.89-3.7c-.26-4,2.25-6.23,15-3.58s15.49-4.63,28.59-5.69c4.37-.66,15.77,2,15.83-1.33s-4-4.1-6-2.91c3-5.3,11.65,3.84,15.76,4.9s7.15-.27,11.12,2,12.45,14.43,15.49,12.71,5.56-7-1.45-10.2c8.47-3.31,10.46,4.5,11.25,6.36s.39,12.53,3.84,13.77c5.43,2,7.73-3.68,4.63-6.76,0,0,4.64,1.46,5.3,4.37s-3.84,10.2,2.65,12.45,11.91.53,11.12-7.68c.08-3.84-1.72-3.57-1.72-3.57s9,.92,8.91,13.63-4.14,8.21-1.1,17.08c2,3.45,8.61-.21,13.77,9.76,0,2.56-1.72,2.29-1.32,3.22s3.57,1.59,4.63,3.57,0,4.24-.66,5.17-.4-2.78-1.85-4.24-3-2.65-3.84-2.25-.53,2.78.53,3.44,2,2.39,1.45,3.18-3.18,4-4,3.71a9.63,9.63,0,0,1-2-1.19s3.18-2.52,1.72-4.37-3.17-2.12-3.84-1.33-3.31,4-2.78,6a6.79,6.79,0,0,0,2.39,3.84c.79.53-6,.4-6.36-4.9-.26-2.91,1.72-4.37.8-5.82s-2.39.13-4.24,2.64-7.41,1.72-9,3.05S179.7,93.48,184.2,96.92Z"/><path class="cls-5" d="M184.37,96.85a18,18,0,0,1-1.76-.72A5.93,5.93,0,0,1,180,94.3a6.36,6.36,0,0,1-.3-3.13c0-.78.08-1.56.16-2.33,0-.13-.32-.09-.37-.07A15.25,15.25,0,0,0,176,90a4.38,4.38,0,0,0-1.7,1.3c-.55.8-.79,1.81-1.27,2.65a3,3,0,0,1-.93,1.16c-.75.44-1.47-.12-1.92-.69a4.08,4.08,0,0,1-.75-3.29c.43-2.09,2.43-2.34,4-3.21,1.12-.61,1.83-1.9.91-3a4.43,4.43,0,0,0-3.53-1.19,4.11,4.11,0,0,0-1.55.26,3.49,3.49,0,0,0-1,.94A8.44,8.44,0,0,0,166.67,87a5.06,5.06,0,0,0-.42,1.3c-.09.52,0,1,0,1.53a1.76,1.76,0,0,1-.07.33c0,.08.11,0,.16,0a.5.5,0,0,1-.17-.15c-.14-.26-.36-.48-.5-.75a7,7,0,0,1-.79-2.6,4.16,4.16,0,0,1,.61-2.8c.47-.7,1.54-1.88,2.52-1.78.06,0,.32,0,.32-.11-.09-1.34-.91-2.5-2.37-2.24-1.82.33-3.62,1.91-4.85,3.19a3.64,3.64,0,0,0-1.23,2,3.44,3.44,0,0,0,.49,1.62c.17.36.78,1.52.42,1.9s-1.58-1-1.76-1.22a6.49,6.49,0,0,1-1.51-2.77c-.68-2.82,1.68-5.47,3.82-7a6.27,6.27,0,0,1,3.76-1.32,6.19,6.19,0,0,1,2.29.72c2.07.94,4.09,2,6.18,2.85a19,19,0,0,0,6,1.82,16.59,16.59,0,0,0,3.3-.28,27.87,27.87,0,0,0,3.94-.83,5.32,5.32,0,0,0,2.36-1.15A6.49,6.49,0,0,0,190,77a20.89,20.89,0,0,0,.79-3.21c.08-.58.25-1.59-.27-2-.82-.68-1.94.91-2.49,1.29a6.91,6.91,0,0,1-4.47,1,3.13,3.13,0,0,1-1.48-.34c-.23-.15-.22-.27-.35-.46s.05-.18,0-.22c.16.28-.4,0-.16.08a2.83,2.83,0,0,0,.29,0,18.63,18.63,0,0,0,2-.26c1.26-.23,3.44-.64,3.92-2.06.59-1.73-1.32-2.66-2.71-2.68a8.43,8.43,0,0,0-3.31.76A14.4,14.4,0,0,0,179.63,70c-.44.29-.62.78-1,1.18-1.45,1.71-3.81,2.46-5.95,2.83a16.63,16.63,0,0,1-5.36.18,9,9,0,0,1-4.29-2.24A3.65,3.65,0,0,1,161.81,69l-.47.06c1.39,1.21,4,3.18,5.94,2.26,1.32-.62,1.38-2.48.84-3.64a7.85,7.85,0,0,0-3.58-3.3,4.05,4.05,0,0,0-3-.64,26.7,26.7,0,0,1-3.2,1.07c-.91.11-1.81-.27-2.75-.14s-1.57,1-2.22,1.63a7.77,7.77,0,0,1-4.89,2.34c-3.09.24-7-1.31-7-4.94l-.47.07a7.93,7.93,0,0,0,4.42,1.61,4.77,4.77,0,0,0,3.27-1.13c.89-.77,2.12-2.21,1.67-3.46-.62-1.73-3.14-2-4.69-2.07a11,11,0,0,0-6.21,1.46,2.53,2.53,0,0,0-1.33,2.1c0,.19.18.51.15.68s-.12.15-.33.27l-1.45.83s0,.06,0,.08a9,9,0,0,0,.68.7c.15.14.31.28.48.41a4.94,4.94,0,0,1,.61.39c.06.31-1.28,1-1.48,1.17a15,15,0,0,0-2.1,1.61,1.7,1.7,0,0,0-.53,1.72c.1,1,.89,1.36,1.56,2,.28.28.25.35-.06.59a11.94,11.94,0,0,0-1.33,1.12c-2,2-3.24,4.6-5.74,6.15a10.68,10.68,0,0,1-6.62,1.19l.18.12a11.29,11.29,0,0,0,3.14-5.17c.38-2-.4-4.4-1.16-6.27l-.36.12c1.23.26,3,.85,3.31,2.23.11.51.2,1,.75,1.14a1.5,1.5,0,0,0,1.22-.2,2.44,2.44,0,0,0,.91-1.87,9.14,9.14,0,0,0-.43-3.48,2.44,2.44,0,0,0-1.18-1.55c-.65-.3-1.3-.1-1.92-.54a12,12,0,0,1-3-3.53l-.45.09c.91.48,1.86.92,2.82,1.31a7.54,7.54,0,0,0,3.76.9,2.13,2.13,0,0,0,1.56-1.43,3.55,3.55,0,0,0-.7-3.14,10.29,10.29,0,0,0-9.09-4.17,17.33,17.33,0,0,0-8.87,3.17,6.1,6.1,0,0,0-2.49,3c-.28,1,.36,1.89.8,2.76l.45-.09c-1.86-1.05-3.91-2.75-4.57-4.85a3.72,3.72,0,0,1,0-2.31,2.42,2.42,0,0,1,2.14-1.9c1.73-.22,3.41.46,5.13.35,1.32-.08,1.73-1.07,1.26-2.29-.63-1.66-2.54-2.56-4.13-3a43.4,43.4,0,0,0-4.82-1,11.09,11.09,0,0,0-4.83,0,9.11,9.11,0,0,0-4.43,3.08c-1,1.15-1.76,2.77-.34,3.93.1.08.57,0,.43-.12-2.13-1.83-2.92-4.49-1.42-7a4.31,4.31,0,0,1,1.74-1.8,6.37,6.37,0,0,0,2.42-1.19c1.49-1.52.26-4.39-1.47-5.2a5,5,0,0,0-4.65.58c-2.12,1.28-3,3.46-1.71,5.69l.41-.11a3.61,3.61,0,0,1-2.69-4.58,10.21,10.21,0,0,1,1.18-2.5,2.82,2.82,0,0,0,.41-2.33c-.69-1.49-3.13-1.2-4.37-.78-1.71.59-3.64,2-4,3.86a5,5,0,0,0,.19,1.88c.17.76.32,1.52.5,2.28a5.75,5.75,0,0,0,1.33,2.94l.41-.11a5.42,5.42,0,0,1-4.45-5.77c0-.73.22-1.5.17-2.22s-.63-.91-1.16-1.09a5.21,5.21,0,0,0-6,2.42c-1.6,2.54-2.51,6.45-1.53,9.37a3,3,0,0,0,.55,1,12.62,12.62,0,0,0,1.42,1.68,4.12,4.12,0,0,0,1.77.83,5.13,5.13,0,0,1,.67.07c-.08-.13-.27,0-.38.06-2.64.58-6.85,1.21-8.45-1.66-1.48-2.64,1.67-5.08,1.35-7.75-.29-2.43-2.9-2.46-4.62-1.38-2.08,1.31-3.18,4-3.43,6.39a9.23,9.23,0,0,0,4,8.53l.28-.15c-2.82-.24-5.25-1.58-6.13-4.38a14.16,14.16,0,0,1-.15-6.41c.13-.79.3-1.57.44-2.36,0-.28.17-.63,0-.87a2.65,2.65,0,0,0-1.78-.6,3.56,3.56,0,0,0-3,1.8c-1.47,2.19-2.08,5.79.4,7.54l.34-.14a7.69,7.69,0,0,1-4-1.94c-2.45-2.31-2.06-6-.77-8.82a10.07,10.07,0,0,1,2.79-3.52,18.06,18.06,0,0,0,2.44-2.09A3.17,3.17,0,0,0,55,31.39c-2-.69-5.39-.21-6.74,1.56h.49c-.91-2.75.36-5.22,2.71-6.74a9.63,9.63,0,0,1,3.44-1.39,4.77,4.77,0,0,1,3.9,1.07,6.2,6.2,0,0,0,2.57,1.6A5.64,5.64,0,0,0,64,27c1.72-.64,4.4-2.16,3.26-4.36-1.4-2.71-4.21-5.54-7.41-3.91l.43.06a4,4,0,0,1,1.1-3.41c1.46-1.28,3.8-1.26,5.61-1.19,3.6.15,7.05,1.16,10.61,1.56a21.17,21.17,0,0,0,8.23-.66A73.12,73.12,0,0,0,93,12.29a35.5,35.5,0,0,1,9.55-2.55,41.16,41.16,0,0,1,7.69,0,31.15,31.15,0,0,0,7.09.09A3.38,3.38,0,0,0,119.34,9c.62-.74.25-2-.25-2.72-1.24-1.79-4.15-2-5.94-1l.45.06c2.2-3.66,7.24.16,9.62,1.72a39.12,39.12,0,0,0,4.54,2.78c2.06,1,4.42.92,6.65,1a11.15,11.15,0,0,1,6.85,2.29A43.51,43.51,0,0,1,145.19,17c1.43,1.51,2.83,3,4.31,4.5a19.11,19.11,0,0,0,3.74,3.09,2.92,2.92,0,0,0,2.6.42,6.07,6.07,0,0,0,2.83-3.14,4.61,4.61,0,0,0-.46-4.39,7.53,7.53,0,0,0-2.28-2.07c-.3-.18-.62-.34-.93-.51s-.49-.16.12-.37a11.29,11.29,0,0,1,1.91-.45c3.7-.51,6.17,2,7.52,5.15a13.18,13.18,0,0,1,.94,2.64c.28,1.54.34,3.13.51,4.69a26.08,26.08,0,0,0,1.06,5.54A4.1,4.1,0,0,0,169.43,35a5.14,5.14,0,0,0,4.74-.5,4.13,4.13,0,0,0,1.35-4.18A4.74,4.74,0,0,0,174.24,28l-.41.11c2.38.76,5.47,2.53,5.27,5.39s-1.7,5.8-.58,8.61a5.4,5.4,0,0,0,3.67,3,14.22,14.22,0,0,0,5,.79,6,6,0,0,0,6-4.76,11.85,11.85,0,0,0,.21-3.41,8.44,8.44,0,0,0-.45-3.16,1.65,1.65,0,0,0-1.63-1c-.22,0-.21.17,0,.19,2.89.31,5.63,2.76,7,5.32,1.71,3.23,1.86,7,1.67,10.55A21.45,21.45,0,0,1,198.41,57a6.82,6.82,0,0,0-.38,4.39c.25,1.12.47,2.65,1.26,3.52A4.46,4.46,0,0,0,201.36,66c2.34.68,4.64,1,6.69,2.42a13.86,13.86,0,0,1,3.77,4.15c.59,1,1.11,1.81.61,2.93a5,5,0,0,1-.92,1.11c-.65.79.55,1.38,1.13,1.69,1.57.85,3.34,1.69,3.72,3.62a5,5,0,0,1-.38,2.92c-.15.36-.39.68-.55,1l-.09.13c-.15.13-.09.15.18,0a2.75,2.75,0,0,0-.14-.4c-.35-1.29-.4-2.72-1.3-3.78s-2.39-2.51-3.79-2.52-1.24,1.45-1,2.35c.46,1.54,2.46,2.06,2.45,3.85A2.3,2.3,0,0,1,211,87a19.61,19.61,0,0,1-1.73,1.91c-.5.47-1,1.09-1.74.72a9.69,9.69,0,0,1-1.05-.66c-.07,0-.27-.15-.31-.23s-.07.15,0,0,.62-.57.8-.77a5.36,5.36,0,0,0,1.11-1.67c.56-1.52-.7-2.84-2-3.46a2.16,2.16,0,0,0-2.6.26,13.19,13.19,0,0,0-2.42,3.71,4.79,4.79,0,0,0,.73,4.61,18.89,18.89,0,0,0,1.26,1.41c.18.23,0,.13-.27.12a6.58,6.58,0,0,1-3-1,5.1,5.1,0,0,1-2.39-3.27c-.4-1.87.32-3.29.81-5,.25-.88,0-2.15-1.1-2.23-1.27-.09-2.3,1.41-3,2.27a6.65,6.65,0,0,1-2,2.05,8.91,8.91,0,0,1-2.47.74,33.43,33.43,0,0,0-4.23.75c-2.14.68-3.74,3.56-3.71,5.7A5.29,5.29,0,0,0,184,97c.1.08.57,0,.42-.11a5.3,5.3,0,0,1-2.21-3.56,5.57,5.57,0,0,1,.79-3.23,7.8,7.8,0,0,1,1.69-2.14,5.28,5.28,0,0,1,2.74-.89c1.91-.29,4.22-.39,5.81-1.66,1.08-.86,1.69-2.23,2.74-3.16.55-.49,1.23-.8,1.67,0a1.83,1.83,0,0,1,.08,1.45,20.05,20.05,0,0,0-.92,3.13,5.67,5.67,0,0,0,.6,3.29,6,6,0,0,0,3.78,2.79c.36.1,2.21.62,2.49.11.06-.1,0-.08,0-.18s-.43-.34-.49-.39A6.7,6.7,0,0,1,201.22,88a8.45,8.45,0,0,1,1.84-3.73,14,14,0,0,1,.89-1.14c.65-.73,1.59-.38,2.3.12,1.31.93,1.92,2.12,1.06,3.58a6.83,6.83,0,0,1-1.61,1.82s0,.07,0,.1c.92.71,2,1.67,3.15.93a10.45,10.45,0,0,0,1.9-1.8,8.41,8.41,0,0,0,1.4-1.75c.38-.77-.16-1.76-.64-2.37a11.3,11.3,0,0,0-1.1-1,2.67,2.67,0,0,1-.66-1.32,3,3,0,0,1,0-1.29c.26-.94,1.26-.36,1.82,0a7,7,0,0,1,2.61,2.72,15.17,15.17,0,0,1,.69,2.67c.08.33.13.73.54.72s.81-.81,1-1.19a5.18,5.18,0,0,0,.42-3.44c-.56-2.06-2.6-2.73-4.24-3.74-.54-.33-1-.76-.49-1.32a3.17,3.17,0,0,0,1-1.49,1.82,1.82,0,0,0-.18-1.59,19.44,19.44,0,0,0-1.18-1.9,13.88,13.88,0,0,0-2.15-2.44,11.65,11.65,0,0,0-4.38-2.45c-1.24-.39-2.55-.55-3.79-1a3.78,3.78,0,0,1-1.5-.84,5,5,0,0,1-1-2.29,9.64,9.64,0,0,1-.55-3.72,9.54,9.54,0,0,1,.83-2.5A25.39,25.39,0,0,0,200.42,45c-.32-3.4-1.5-6.84-4.14-9.13a8.72,8.72,0,0,0-4.56-2.25c-.1,0-.21,0-.31,0v.19c.73-.09,1.21,1.35,1.31,2a19.05,19.05,0,0,1,.17,3,10.31,10.31,0,0,1-.32,2.71c-.85,3.19-3.67,4.52-6.81,4.23A11,11,0,0,1,180.5,44a4.63,4.63,0,0,1-1.84-3.59,15.36,15.36,0,0,1,.47-4.16,12.16,12.16,0,0,0,.48-3.38c-.19-2.56-3.27-4.17-5.43-4.86-.05,0-.53,0-.42.11A4.53,4.53,0,0,1,175,32.28a3.81,3.81,0,0,1-7.16.61,16,16,0,0,1-1.12-4.36c-.23-1.53-.37-3.07-.52-4.61a11.55,11.55,0,0,0-.46-2.87A14.4,14.4,0,0,0,163,15.86c-2.39-2.52-5.83-2.38-8.87-1.22-.1,0-.08.1,0,.14,2.19,1,4.53,2.75,4.43,5.43a5.76,5.76,0,0,1-2.67,4.43c-1.31.86-2.87-.55-3.86-1.37a56,56,0,0,1-4.85-4.77c-2.83-3-5.6-6.69-9.88-7.57-2.84-.58-5.93.06-8.67-1a31.47,31.47,0,0,1-5.19-3.12c-2.57-1.68-7.93-5.42-10.29-1.49-.09.16.4.1.46.06,2.11-1.19,6,.09,5.56,3-.24,1.77-3.42,1.52-4.66,1.51-2.54,0-5.07-.35-7.61-.46a30.58,30.58,0,0,0-7.45.66,41.72,41.72,0,0,0-7.92,2.6,43.75,43.75,0,0,1-7.07,2.6,22.49,22.49,0,0,1-9.66-.14,41.17,41.17,0,0,0-9-1.09c-1.63,0-3.61.21-4.87,1.37a4.18,4.18,0,0,0-1.1,3.45c0,.14.36.1.43.06,2-1,3.65,0,4.95,1.56.76.88,2,2.26,1.87,3.53s-1.39,2-2.37,2.49-2.32,1.11-3.33.8-1.81-1.32-2.7-1.9a5,5,0,0,0-2.83-.82,9.58,9.58,0,0,0-5.21,1.91A5.68,5.68,0,0,0,48.23,33c.05.15.42.11.5,0,1.31-1.73,5.12-2.35,6.81-1a3.12,3.12,0,0,1,.71,3.39,5.31,5.31,0,0,1-1.91,2.21,16.69,16.69,0,0,0-2.52,2.23A10.41,10.41,0,0,0,49.71,44c-.69,2.6-.47,5.38,1.67,7.23a8.22,8.22,0,0,0,4,1.84s.51,0,.34-.15c-2.16-1.53-1.85-4.63-.77-6.68.68-1.29,1.89-2.76,3.52-2.23.44.15.77.25.77.66a9.71,9.71,0,0,1-.3,1.68c-.16.84-.3,1.68-.39,2.53a11.36,11.36,0,0,0,.68,6c1.13,2.44,3.6,3.44,6.16,3.65.06,0,.43,0,.27-.15a9.12,9.12,0,0,1-3.93-7.7,9.38,9.38,0,0,1,2.71-6.48c.93-.85,2.72-1.73,3.78-.66a3.17,3.17,0,0,1,.49,3c-.66,2.36-2.91,5-.47,7.15,1.86,1.63,4.83,1.56,7.12,1.16.27,0,1.73-.19,1.83-.54,0-.14,0-.12-.15-.18s-.46,0-.65-.06A3.52,3.52,0,0,1,75,53.38a9.74,9.74,0,0,1-1.46-1.7,2.83,2.83,0,0,1-.7-1.28,10.59,10.59,0,0,1-.1-4.27c.47-3,2.23-7.56,6-7.24.74.07,1.84.36,1.82,1.25s-.19,1.69-.16,2.55c.11,2.85,2,4.67,4.61,5.45,0,0,.53,0,.41-.11a4.78,4.78,0,0,1-1.16-2.32c-.32-1.18-.59-2.4-.82-3.61-.38-2.05,1.35-3.7,3-4.52a4.3,4.3,0,0,1,3.5-.32c1,.43,1,1.38.69,2.29S89.83,41,89.5,41.76a5.64,5.64,0,0,0-.48,2,3.7,3.7,0,0,0,3,3.74c.06,0,.51,0,.42-.11a3.74,3.74,0,0,1,1.23-5.25c1.68-1.18,4.13-1.72,5.48.25.63.93,1.16,2.34.58,3.42S98.14,47,97.16,47.36a5,5,0,0,0-2.49,2.89c-.93,2.39.07,4.61,1.93,6.22l.43-.12c-1.41-1.14-.54-2.72.43-3.81a8.27,8.27,0,0,1,4.27-2.94,11.82,11.82,0,0,1,5.22.29,22.88,22.88,0,0,1,5.23,1.36,5.79,5.79,0,0,1,2,1.53,2.47,2.47,0,0,1,.53,2.39c-.34.67-1.28.5-1.89.43-.78-.09-1.56-.24-2.34-.3-1.3-.11-3.06-.17-3.85,1a4,4,0,0,0-.43,3.65,10,10,0,0,0,4.56,4.7c.07,0,.53.06.45-.1a5,5,0,0,1-.87-2.21A3.82,3.82,0,0,1,111.68,60,15.46,15.46,0,0,1,119,56.29a12.51,12.51,0,0,1,4.64-.24,9.66,9.66,0,0,1,4.65,2.31C129.74,59.52,132,62.29,130,64c-1,.82-2.69-.07-3.68-.47s-2-.85-2.92-1.34c-.06,0-.54-.06-.45.09a16.68,16.68,0,0,0,1.93,2.58,5.2,5.2,0,0,0,1.51,1.25c.53.26,1.15.09,1.66.37a3.05,3.05,0,0,1,1.13,2.07,8.23,8.23,0,0,1,.18,3.2c-.12.6-.87,2.08-1.6,1.19-.22-.27-.18-.63-.27-.93a1.77,1.77,0,0,0-.44-.73A5.93,5.93,0,0,0,124,69.82c-.08,0-.43,0-.37.13.75,1.85,1.52,4.21,1.14,6.22a11.13,11.13,0,0,1-3.13,5.11c-.07.08.17.12.18.12a13.09,13.09,0,0,0,5.7-.6c3.16-1.12,4.75-4,6.81-6.4A10.79,10.79,0,0,1,136,72.83c.19-.14.4-.25.33-.51s-1-.83-1.23-1.1a2.1,2.1,0,0,1-.56-1.54c-.07-1,.9-1.59,1.64-2.13a11.81,11.81,0,0,0,2.33-1.68c.13-.15.2-.19.1-.36s-.54-.33-.69-.46c-.3-.24-.56-.51-.84-.78s-.16-.11-.1-.2.4-.23.54-.31l1.2-.69a.06.06,0,0,0,0-.08c-.62-1.48.59-2.57,1.83-3.16a11.22,11.22,0,0,1,5.4-.91c1.34.09,3.38.45,3.85,1.95.33,1-.59,2.19-1.25,2.9a4.16,4.16,0,0,1-3.31,1.39,7.49,7.49,0,0,1-3.9-1.53c-.07-.05-.46-.08-.46.07a5.14,5.14,0,0,0,2.92,4.36,8.88,8.88,0,0,0,9.32-1.13c.71-.6,1.46-1.8,2.38-2.06A9.25,9.25,0,0,1,158,65a6.77,6.77,0,0,0,2.33-.62,3.71,3.71,0,0,1,2.52-.47,9.08,9.08,0,0,1,1.91.92c1.34.83,2.85,2.06,3.15,3.71a2.59,2.59,0,0,1-.77,2.48c-.74.55-1.77.14-2.52-.21a12.83,12.83,0,0,1-2.85-1.89c-.07-.07-.45-.08-.46.07-.16,2.8,2.77,4.21,5,5.08a11.69,11.69,0,0,0,5.33.24c2.51-.28,5.35-.95,7.2-2.79a6.6,6.6,0,0,0,.64-.76,3.37,3.37,0,0,1,1.15-1.07,10.54,10.54,0,0,1,3.55-1.38c1.41-.23,3.46.25,3.22,2.11-.17,1.33-2,1.81-3.09,2a14.94,14.94,0,0,1-2.74.38c-.06,0-.21,0-.24.08-.67,1.41,3.26,1.29,3.69,1.27a6.62,6.62,0,0,0,3.74-1.27c.36-.27.66-.6,1-.89l.3-.25c.19,0,.28.46.31.6.26,1.35-.34,3-.73,4.26-.33,1.09-.55,2.41-1.62,3A16.14,16.14,0,0,1,182.8,81a11.61,11.61,0,0,1-4.66,0,47.47,47.47,0,0,1-8.84-3.62c-2-.94-3.75-1.91-6-1.28a9,9,0,0,0-3.92,2.47c-1.15,1.18-2.4,2.65-2.54,4.36a5.71,5.71,0,0,0,1.2,3.72,5.21,5.21,0,0,0,2.18,1.9c.84.29,1.16-.14,1-1s-.9-1.67-.9-2.62a2.69,2.69,0,0,1,.79-1.59,12.38,12.38,0,0,1,4.18-3.24c.89-.4,1.74-.34,2.19.62A3.47,3.47,0,0,1,167.8,82l.31-.11c-1.38-.13-2.79,1.2-3.36,2.31A5.66,5.66,0,0,0,165,89c.16.36,1,2,1.64,1.2a1,1,0,0,0,.08-.56,5.84,5.84,0,0,1,.19-2,7,7,0,0,1,1.65-2.58c.49-.52.85-1,1.59-1.15a5,5,0,0,1,2.68.27,2.06,2.06,0,0,1,1.46,1.93c0,1-.82,1.49-1.62,1.86-1.6.74-3.34,1.18-3.74,3.14-.33,1.65.54,4.34,2.57,4.37s2.35-3.08,3.41-4.34,3.2-1.85,4.78-2.21l-.37-.07c-.09.84-.15,1.68-.17,2.53s-.18,2.27.39,3.08c.94,1.31,3,2,4.48,2.53C184.14,97,184.62,96.93,184.37,96.85Z"/><path class="cls-5" d="M77.44,23.58A10.45,10.45,0,0,0,72.59,29c0,.14.31.12.37.1l2.83-.95-.38-.07a10.94,10.94,0,0,0-.07,5.15c0,.16.41.1.49,0a3.34,3.34,0,0,1,2.36-1.3l-.32-.08a5.53,5.53,0,0,0,1.25,4c.08.11.4.08.48,0A8.71,8.71,0,0,1,81,34.25c.23-.18.46-.36.71-.52a4.87,4.87,0,0,0,.89-.53l.42-.06-.07,0c-.12,0-.59.08-.35.16l.07,0a.45.45,0,0,0,.42-.06c.08-.09.07-.07.05-.19A.1.1,0,0,0,83.1,33c-.67-.18-1.34.37-1.87.73a9.17,9.17,0,0,0-2.12,2l.48,0a5.47,5.47,0,0,1-1.22-3.9c0-.11-.28-.09-.32-.09a3.91,3.91,0,0,0-2.71,1.46h.5A10.94,10.94,0,0,1,75.91,28c0-.12-.33-.09-.38-.07l-2.83.94.38.1A10.25,10.25,0,0,1,77.8,23.7c.23-.12-.25-.18-.36-.12Z"/><path class="cls-5" d="M103.63,16.49a7.26,7.26,0,0,0-6.76,2.07c-.11.11.31.15.35.14a7.92,7.92,0,0,1,2.79.14l-.16-.13a8,8,0,0,0-1.08,2.9c0,.33-.19.79.15,1a1.31,1.31,0,0,0,.78.08,3.64,3.64,0,0,1,2,.42c.17.09.47.28.48.5a1.34,1.34,0,0,1-.2.46c-.09.2-.18.39-.25.59a7.63,7.63,0,0,0-.47,3.41c0,.13.33.14.42.1a5.8,5.8,0,0,1,4-.09c.14.05.57,0,.26-.15a6.71,6.71,0,0,0-4.57.07l.42.11a7.65,7.65,0,0,1,.44-3.32c.12-.32.6-.94.46-1.32s-.72-.55-1-.67a4.78,4.78,0,0,0-1.11-.29,3.52,3.52,0,0,0-.56,0c-.32,0-.68.11-.77-.34a3.74,3.74,0,0,1,.3-1.56,7.73,7.73,0,0,1,.81-1.78c.06-.09-.11-.13-.16-.14A8.9,8.9,0,0,0,97,18.51l.35.14a6.67,6.67,0,0,1,6.15-2c.21,0,.48-.11.14-.18Z"/><path class="cls-5" d="M87.46,20.21A5.4,5.4,0,0,0,85.05,23c0,.14.38.17.45.14a16.62,16.62,0,0,1,4-1.63s.09,0,.08-.08c-.08-.43-.64-.53-1-.54s-1,.17-1-.31c0-.16-.49-.21-.49-.09,0,.46.57.6.93.63s1-.18,1,.28l.08-.09a16.21,16.21,0,0,0-4,1.65l.44.13a5.21,5.21,0,0,1,2.32-2.7c.17-.09-.28-.24-.4-.18Z"/><path class="cls-5" d="M64.65,32.9a3.27,3.27,0,0,0-2.11,2.47,1.22,1.22,0,0,0,0,.9,1,1,0,0,0,.62.46.71.71,0,0,0,.74-.12,2.26,2.26,0,0,0,.39-.83l.89-2.49c0-.13-.42-.29-.47-.15L64.08,35l-.33.91a1.07,1.07,0,0,1-.38.61c-.19.09-.33-.14-.38-.31a1.44,1.44,0,0,1,.09-.89,4.71,4.71,0,0,1,.67-1.3A2.2,2.2,0,0,1,65,33.13c.11,0,0-.13,0-.16a.51.51,0,0,0-.34-.07Z"/><path class="cls-5" d="M53.19,26.8a7.22,7.22,0,0,0-3.73,2c-.11.11.36.16.41.14a4.65,4.65,0,0,1,3.12.15c.08,0,.27.07.34,0s0-.11-.07-.14a5.68,5.68,0,0,0-3.73-.19l.41.15A6.85,6.85,0,0,1,53.52,27c.1,0,.09-.1,0-.14a.53.53,0,0,0-.35,0Z"/><path class="cls-5" d="M65.54,16.35A3.88,3.88,0,0,0,62,17c-.13.11.14.16.21.16a6.44,6.44,0,0,1,3.46,1.17.45.45,0,0,0,.34.05c.06,0,.19-.07.1-.13A7.26,7.26,0,0,0,62.19,17l.21.16a3,3,0,0,1,2.88-.61c.08,0,.27,0,.34,0s0-.11-.08-.14Z"/><path class="cls-5" d="M52,42.52a2.7,2.7,0,0,0,.45,3c.08.09.42.11.48,0a6,6,0,0,1,1.56-2.11c.08-.08,0-.12-.09-.14a.45.45,0,0,0-.34.06,6.12,6.12,0,0,0-1.61,2.16l.48,0a2.61,2.61,0,0,1-.45-2.9c.07-.13-.41-.16-.48,0Z"/><path class="cls-5" d="M42,44.19a7.94,7.94,0,0,0-.6,2.92,6.27,6.27,0,0,0,.49,2.78c.27.54,1.06,1.06,1.66.69.36-.22.33-.67.31-1,0-.55-.06-1.11-.12-1.66a32.37,32.37,0,0,0-.57-3.66c0-.14-.5-.24-.47-.1.24,1.12.42,2.26.55,3.41,0,.56.1,1.11.13,1.67,0,.37.09,1.46-.63,1.21-.46-.16-.6-1-.69-1.37a7.92,7.92,0,0,1,.41-4.69c.06-.13-.41-.3-.47-.16Z"/><path class="cls-5" d="M47.86,24.21a7,7,0,0,0-7.32,1.33,8.62,8.62,0,0,0-2.31,8,6.44,6.44,0,0,0,2,3.69c.79.68,2.28,1.46,3.37,1.11.62-.2.66-.91.71-1.47a11.61,11.61,0,0,0,0-2.5,16.6,16.6,0,0,0-.62-2.5,2.9,2.9,0,0,1,.53-2.42c.93-1.41,2.58-2.17,3.46-3.62.21-.34.33-.73.51-1.08.1-.18.17-.31.05-.49s-.71-.32-.62.07c0,.12.24.17.33.18H48c.32,0,0-.22-.18-.25h-.07l.33.18,0-.13-.38-.11c.18.15-.45,1.29-.56,1.47A6.59,6.59,0,0,1,46,27.07a10.9,10.9,0,0,0-2.4,2.49,3.06,3.06,0,0,0-.47,1.55,7.15,7.15,0,0,0,.43,1.74,11.05,11.05,0,0,1,.29,4.21,1.46,1.46,0,0,1-.3.9c-.3.3-.88.2-1.25.12a4.05,4.05,0,0,1-2.15-1.35,6.94,6.94,0,0,1-1.48-3.45,8.66,8.66,0,0,1,1.65-6.78,6.56,6.56,0,0,1,7.39-2.15c.19.08.5,0,.19-.14Z"/><path class="cls-5" d="M71.39,10.57a7.38,7.38,0,0,0-3-1.57c-.51-.12-1-.16-1.53-.26a1.72,1.72,0,0,1-1.22-.63A1.24,1.24,0,0,1,66,6.61,2.19,2.19,0,0,1,67.49,6a4.09,4.09,0,0,1,3,1.37c.82.88,1.34,2.53.14,3.35-.21.15.27.16.37.09a2.19,2.19,0,0,0,.33-3.1,4.5,4.5,0,0,0-3-1.88A3,3,0,0,0,65.2,7a1.16,1.16,0,0,0,.1,1.44A2.45,2.45,0,0,0,66.64,9a11,11,0,0,1,2.2.49,6.91,6.91,0,0,1,2.08,1.25c.11.1.56,0,.47-.13Z"/><path class="cls-5" d="M62.32,11.29c-2.25,0-3.65,2.31-4.4,4.14a11.26,11.26,0,0,0-.49,7c0,.16.42.09.49,0a4.08,4.08,0,0,1,4.95-.93c.12.06.58,0,.43-.13a4.9,4.9,0,0,0-5.86,1h.49a11.12,11.12,0,0,1,1.42-8.78c.62-1,1.58-2.18,2.85-2.15.21,0,.46-.2.12-.2Z"/><path class="cls-5" d="M109,10.82c-2.92.15-5.88.18-8.78.55a12.92,12.92,0,0,0-6.65,2.5c-.14.12.33.14.44.06a12.6,12.6,0,0,1,6.83-2.43c2.67-.28,5.37-.34,8-.47.21,0,.46-.23.12-.21Z"/><path class="cls-5" d="M92.35,15.07c.32,0-.07-.21-.22-.21-.32,0,.07.21.22.21Z"/><path class="cls-5" d="M90.1,16v-.2s0,0,0,0l0,0-.07,0-.09,0h-.23s0,0,0,0v.2a.06.06,0,0,0,0,0l0,0,.07,0,.1,0h.22s0,0,0,0Z"/><path class="cls-5" d="M86.83,17.05c.21,0,.45-.2.11-.2s-.46.2-.11.2Z"/><path class="cls-5" d="M122.46,11l-1.22-2.85-.38,0,3.69,2.1c.08,0,.26.1.34,0s0-.12,0-.15l-3.7-2.11s-.44-.12-.38,0L122,11c.06.14.53.19.48.07Z"/><path class="cls-5" d="M137.24,15.43a3.08,3.08,0,0,1,1.84,2.13h.39a3.5,3.5,0,0,0-3.15-.16c-.17.08.26.28.39.23a2.69,2.69,0,0,1,2.47,0s.42.15.38,0a3.48,3.48,0,0,0-2.14-2.37c-.07,0-.24-.09-.31,0s.09.15.13.17Z"/><path class="cls-5" d="M153.27,28.66l1.14,1.89.42-.07a11.35,11.35,0,0,0-8.25-.15c-.14.05-.05.13,0,.16a4.88,4.88,0,0,1,3,4.09,14.66,14.66,0,0,1,.12,2.81c0,1,0,2.27-1.44,2.18-.79,0-1.55-.28-2.34-.33a10.08,10.08,0,0,0-2.26.11,10.27,10.27,0,0,0-4.56,1.92c-.15.11.32.2.43.12a3.56,3.56,0,0,1,5.21,1.8,4.46,4.46,0,0,1-2.43,5.33l.42.06a3.92,3.92,0,0,0-4.3-2.51c-.09,0-.19.11-.06.16,1.31.47,1.62,2.13,1.17,3.31-.55,1.47-2.05,2.33-3.33,3.08-.16.09.31.19.42.12,1.37-.79,3-1.75,3.48-3.38a2.63,2.63,0,0,0-1.38-3.26l-.05.16a3.38,3.38,0,0,1,3.56,2.35c0,.11.34.1.42.07,2.24-1,3.65-4,2.22-6.21a4.29,4.29,0,0,0-5.78-1.2l.43.12a9.76,9.76,0,0,1,6.08-2c.89,0,1.75.29,2.64.34a1.92,1.92,0,0,0,1.57-.44c.57-.62.39-1.83.4-2.6a11,11,0,0,0-.31-2.92,4.83,4.83,0,0,0-3.07-3.48l.05.16a10.33,10.33,0,0,1,7.54.11c.05,0,.51.07.42-.08l-1.13-1.89c-.08-.12-.56-.08-.49,0Z"/><path class="cls-5" d="M185.28,55.24c-2.16,1.1-4.7.24-6.5-1.18a24.77,24.77,0,0,1-4.37-5.19c-2.12-2.88-5.18-6-9.11-5.17a6.23,6.23,0,0,0-4.47,3.57c-.07.16.4.16.48.06a3.31,3.31,0,0,1,3.48-1,4.5,4.5,0,0,1,2.74,2.44,7,7,0,0,1,.68,3.58,3.88,3.88,0,0,1-.56,1.85,1.89,1.89,0,0,1-2.21.91c-1-.47-1.49-1.75-2.37-2.44a5,5,0,0,0-2.55-1,4.12,4.12,0,0,0-4.35,2.22,3.83,3.83,0,0,0,1.62,4.89c.05,0,.46.06.43-.06a1.59,1.59,0,0,1,.81-1.8,2.48,2.48,0,0,1,2.89.3,20.37,20.37,0,0,1,2.09,2,9.82,9.82,0,0,0,2.07,1.55,10.72,10.72,0,0,0,9.68.22c2.07-.92,4.9-2.38,6.87-.46.11.11.56,0,.48-.05a4.84,4.84,0,0,0-4.67-.85c-2.28.61-4.2,2-6.61,2.21a9.61,9.61,0,0,1-6.44-1.9c-1.48-1.11-2.63-3.13-4.57-3.5-1.34-.26-3.56.62-3.1,2.31l.42-.07a3.64,3.64,0,0,1,2.41-6.76,4.77,4.77,0,0,1,3.2,2.12,2.79,2.79,0,0,0,2.34,1.42,2.66,2.66,0,0,0,2.28-1.61,6.31,6.31,0,0,0-1.6-6.73c-1.63-1.44-4.51-1.55-5.94.23l.48.06a6,6,0,0,1,4.62-3.52c2.28-.29,4.37,1.07,5.92,2.61,2.87,2.86,4.47,7.13,8.36,8.87a6.39,6.39,0,0,0,5.5.05c.15-.07-.31-.16-.43-.1Z"/><path class="cls-5" d="M125,28l-.39.2s-.07,0-.07.07,0,.06.07.07a.37.37,0,0,0,.18,0,.32.32,0,0,0,.17,0l.4-.2s.07,0,.07-.08,0-.05-.07-.06a.57.57,0,0,0-.18,0,.58.58,0,0,0-.18,0Z"/><path class="cls-5" d="M124.87,28.22c-1.79,0-3.58,0-5.36,0-.19,0,0,.16,0,.19l2.8,1.29,0-.19A6.71,6.71,0,0,0,117.83,32c-.09.13.24.22.31.23l3.53.29-.31-.22a14.07,14.07,0,0,0-4.47,4.58c-.06.09.23.19.26.2a14.81,14.81,0,0,0,2.81.36l-.33-.2a6.31,6.31,0,0,0,.3,7.72c.07.07.4.25.46.1a6.28,6.28,0,0,1,2.77-3,6.65,6.65,0,0,1,2-.71,6.3,6.3,0,0,1,1.15-.1,4.9,4.9,0,0,1,.54,0l.36,0c.19,0,.27.08.26.29l.27.17,0-.08c-.07-.13-.53-.2-.48-.1.26.5,1.15.17.58-.27a4.15,4.15,0,0,0-2.72-.28,6.63,6.63,0,0,0-5.13,3.82l.46.1a6.19,6.19,0,0,1-.28-7.6c.07-.09-.28-.2-.33-.2a13.48,13.48,0,0,1-2.68-.35l.27.19a14,14,0,0,1,4.43-4.54c.14-.08-.26-.22-.31-.22L118,32l.31.22a6.51,6.51,0,0,1,4.33-2.5c.18,0,0-.15,0-.2l-2.81-1.29.06.2c1.78,0,3.57.05,5.36,0,.25,0-.16-.25-.29-.25Z"/><path class="cls-5" d="M136.23,93.2c3.1-3,6.57-6.48,6.31-11.12,0-.15-.5-.18-.5-.06.26,4.63-3.2,8.11-6.28,11.07-.09.08.36.21.47.11Z"/><path class="cls-5" d="M145.47,89.69c.1.31.58.24.81.13a5.39,5.39,0,0,0,1.46-1.51,17.81,17.81,0,0,0,2.39-4,45.82,45.82,0,0,0,2.58-9.14c0-.12-.47-.17-.5,0a51.17,51.17,0,0,1-2.09,7.91,20,20,0,0,1-1.66,3.46,14.13,14.13,0,0,1-1.14,1.64c-.2.24-.4.49-.62.72a7.44,7.44,0,0,0-.74.77c0-.13-.54-.12-.49,0Z"/><path class="cls-5" d="M122.62,93.08A15.71,15.71,0,0,0,128.78,83c0-.15-.46-.28-.47-.16a15.65,15.65,0,0,1-6.13,10.08c-.1.08.32.29.44.2Z"/><path class="cls-5" d="M136.27,75.15a3.34,3.34,0,0,1,.42,2.94c0,.11.44.22.49.07a3.41,3.41,0,0,0-.42-3,.41.41,0,0,0-.3-.12s-.25,0-.19.1Z"/><path class="cls-5" d="M142.3,71.73a3,3,0,0,1,0,3c-.08.13.4.23.47.11a3.09,3.09,0,0,0,0-3.1c0-.09-.2-.11-.3-.11s-.24,0-.19.1Z"/><path class="cls-5" d="M113.14,61.26c1.63,4-.57,8.25-2.51,11.7a81.1,81.1,0,0,1-7.17,10.63c-.08.1.39.17.48,0a81.16,81.16,0,0,0,7.4-11c1.88-3.38,3.86-7.51,2.28-11.39-.05-.13-.54-.1-.48,0Z"/><path class="cls-5" d="M97.07,87.33c2.59-3.21,5.36-6.34,7.66-9.76a24,24,0,0,0,2.58-4.82A10.47,10.47,0,0,0,108.1,67c0-.14-.51-.21-.48-.06a10.44,10.44,0,0,1-.84,5.8,24.43,24.43,0,0,1-2.74,5c-2.27,3.29-4.92,6.32-7.43,9.41-.1.12.37.28.46.17Z"/><path class="cls-5" d="M107.19,64.11l-.58,0-.21,0s-.09,0-.09.09v.57s0,.06.08.06a.81.81,0,0,0,.41,0,.88.88,0,0,0,.27-.1.61.61,0,0,0,.28-.35.49.49,0,0,0,0-.24s0,0-.08-.06a.37.37,0,0,0-.18,0,.48.48,0,0,0-.17,0s-.08,0-.07.08a.44.44,0,0,1,0,.2v0a.53.53,0,0,1-.11.21l0,0a.6.6,0,0,1-.08.08h0s0,0,0,0h0c-.05,0,.06,0,0,0h0s.07,0,0,0h0s.08,0,0,0,.06,0,0,0h0l.08.07v-.57l-.31.13.58,0a.58.58,0,0,0,.19,0s.1,0,.11-.07-.13-.11-.19-.1Z"/><path class="cls-5" d="M105.8,53.9c0-.22-.31-.24-.47-.22a.71.71,0,0,0-.28.09.32.32,0,0,0-.11.12.15.15,0,0,0,0,.18.25.25,0,0,0,.14.06.45.45,0,0,0,.23,0,.5.5,0,0,0,.27-.16.43.43,0,0,0,.11-.21.44.44,0,0,0-.15-.43.42.42,0,0,0-.22,0,.36.36,0,0,0-.22,0,.76.76,0,0,0-.26.3.27.27,0,0,0,0,.18.42.42,0,0,0,.09.16.47.47,0,0,0,.27.12,1,1,0,0,0,.24,0,.35.35,0,0,0,.14-.06.17.17,0,0,0,0-.25.27.27,0,0,0-.18-.11.44.44,0,0,0-.43.08s0,.06,0,.08a.28.28,0,0,0,.15,0h.19a.34.34,0,0,0,.12-.06h0l0,0s0,0,0,0a.47.47,0,0,1-.31,0h0l0,0,0,0a.35.35,0,0,1,.05.08v0a.14.14,0,0,1,0,.09v0s0,0,0,0l0,0h0l.13,0h.13l0,0,0,0a.24.24,0,0,1-.06-.11v0a.19.19,0,0,1,0-.15v0a.51.51,0,0,1,.15-.21l0,0,.11-.09h-.44l0,0,0,0a.41.41,0,0,1,.08.13v0a.42.42,0,0,1,0,.27v0a.32.32,0,0,1-.1.17l0,0,0,0h0l.36.06,0-.05v0a.06.06,0,0,1,0-.06v0a.15.15,0,0,1,0-.06l0,0,.06,0h0s0,0,0,0h0s.05,0,0,0h0s-.08,0,0,0h-.05s-.07,0,0,0h0s0,0,0,0l0,0,0,.05v0a.11.11,0,0,0,.08.07.34.34,0,0,0,.17,0,.52.52,0,0,0,.18,0s.08,0,.07-.07Z"/><path class="cls-5" d="M108.63,52.4a4.8,4.8,0,0,1,1.08,1.9c0,.15.53.08.49,0a5,5,0,0,0-1.09-1.95.34.34,0,0,0-.31-.05s-.23.06-.17.14Z"/><path class="cls-5" d="M118.82,58.81c2.66,4.28,4.62,9.77,2,14.56-.08.14.41.22.47.1,2.63-4.83.68-10.35-2-14.67-.08-.13-.55-.1-.48,0Z"/><path class="cls-5" d="M120.89,76.35V76s0-.06-.07-.07a.33.33,0,0,0-.17,0,.55.55,0,0,0-.18,0s-.07,0-.07.07v.39a.1.1,0,0,0,.07.08l.17,0a.38.38,0,0,0,.18,0s.07,0,.07-.06Z"/><path class="cls-5" d="M120.44,77.68l-.22.17s0,0,0,0,0,0,0,0a.09.09,0,0,0,.06,0l.07,0a.69.69,0,0,0,.2,0,.19.19,0,0,0,.12,0l.22-.17s0,0,0,0a.05.05,0,0,0,0,0l-.06,0a.2.2,0,0,0-.08,0,.58.58,0,0,0-.19,0s-.09,0-.12,0Z"/><path class="cls-5" d="M116.36,60.49l0,0,.34,0h0l.11.06s0,0,0-.07l-.12.06h.06l-.3,0c.16.07.3.35.39.49a4.07,4.07,0,0,1,.31.53,5.75,5.75,0,0,1,.46,1.08,6.33,6.33,0,0,1,.26,2.41c0,.14.49.17.5,0a6.49,6.49,0,0,0-.68-3.44,5.73,5.73,0,0,0-.45-.75c-.14-.21-.28-.45-.54-.5s-.5,0-.39.21.4.16.52.07-.32-.21-.42-.13Z"/><path class="cls-5" d="M114.36,74.47l-1,2.08c-.07.14.42.2.48.07l1-2.08c.07-.14-.41-.2-.47-.07Z"/><path class="cls-5" d="M125.07,58.3a3.2,3.2,0,0,1,2.4,2.88c0,.17.49.24.48.13a3.62,3.62,0,0,0-3-3.23c-.06,0-.22,0-.2.08s.21.13.28.14Z"/><path class="cls-5" d="M185.76,30.89l-.25-4.14a10,10,0,0,0-.45-3.48c-.83-1.87-3.58-2-5.32-1.7a11.53,11.53,0,0,0-3.31,1.2c-.37.2-2.2,1-1.4,1.63.4.3.94.46,1.36.74a7.25,7.25,0,0,1,1.37,1.22c.75.88,1.19,2,1.93,2.88,1.52,1.82,4,1.64,6.16,1.35.26,0,0-.19-.11-.2a.9.9,0,0,0-1,.41c-.08.13.4.23.47.11s.23-.36.49-.32l-.1-.2c-2,.27-4.18.46-5.55-1.28-.55-.69-.92-1.51-1.44-2.24a7.28,7.28,0,0,0-1.83-1.8,7.19,7.19,0,0,0-1-.6c-.27-.12-.55-.3-.33-.63a2.11,2.11,0,0,1,.7-.51,13.19,13.19,0,0,1,2.8-1.3c1.83-.57,4.95-.78,5.73,1.47A12.82,12.82,0,0,1,185,27l.23,3.83c0,.16.5.18.5.06Z"/><path class="cls-5" d="M162.15,10.9c.29,0,.31-.2,0-.2s-.31.2,0,.2Z"/><path class="cls-5" d="M162.39,11c-1.47-.37-1.73-2.23-2.26-3.4A3.08,3.08,0,0,0,159,6.17a3.78,3.78,0,0,0-1.77-.48,5.33,5.33,0,0,0-1.87.21,1.32,1.32,0,0,0-.83,1.37A3,3,0,0,0,157,9.74c1.64.42,3.6.06,5,1.22.1.08.58.06.44-.06a5.84,5.84,0,0,0-3.37-1.07c-1.42-.13-3.08-.26-3.84-1.67a1.69,1.69,0,0,1,0-1.81c.4-.5,1.43-.49,2-.45a2.5,2.5,0,0,1,1.85.85A5.37,5.37,0,0,1,160,8.46c.42,1.19.92,2.41,2.27,2.75.21.06.48-.09.15-.18Z"/><path class="cls-1" d="M87.17,89.53a.67.67,0,0,0-.16.3l.13-.23A.74.74,0,0,0,87,90v.12a1.84,1.84,0,0,0,0,.41,2.89,2.89,0,0,0,.26.63L87.19,91a1.33,1.33,0,0,0,.15.32l.21.27a2.11,2.11,0,0,0,.25.27,2.89,2.89,0,0,0,.72.54.8.8,0,0,0,.79,0l0,0-.37.1a1.14,1.14,0,0,0,.48-.12.6.6,0,0,0,.28-.68c0-.1-.08-.19-.13-.29l.09.37a.79.79,0,0,0-.38-.7,1.29,1.29,0,0,0-.16-.09l-.27-.19.15.12a2.9,2.9,0,0,1-.52-.53l.12.16c-.08-.11-.17-.2-.25-.3l.12.15c-.1-.12-.18-.25-.27-.38l-.06-.09-.12-.16s0,0,0,0l0,0a.68.68,0,0,0-.37-.28l.23.14a.59.59,0,0,0-.29-.18.41.41,0,0,0-.43.11Z"/><path class="cls-1" d="M88.36,89c-.32.39,0,1,.16,1.4a3.36,3.36,0,0,0,.9,1,4.72,4.72,0,0,0,1,.62,2.37,2.37,0,0,0,1.57.32.79.79,0,0,0,.54-.54.74.74,0,0,0-.2-.75,1.44,1.44,0,0,0-.49-.29l-.26-.1-.26-.09-.11,0c-.08,0-.15-.1,0,0-.14-.09-.32-.15-.47-.23l-.45-.3-.1-.07c-.07-.05-.11-.13,0,0-.06-.06-.14-.11-.2-.16l-.26-.23-.15-.11c-.14-.1.13.11,0,0s-.92-.82-1.25-.43Z"/><path class="cls-1" d="M89.56,88.1a1.86,1.86,0,0,0,.11.58,1.42,1.42,0,0,0,.08.18s0,.1,0,0l.09.21s.05.08,0,0a3,3,0,0,0,.17.37l.13.23a4.39,4.39,0,0,0,.34.5c.25.35.52.69.78,1a4.85,4.85,0,0,0,.88,1,.85.85,0,0,0,1-.13,1.07,1.07,0,0,0,.22-.37,1,1,0,0,0-.09-.66,2.64,2.64,0,0,0-.43-.58l-.36-.44c-.25-.29-.48-.59-.74-.87-.12-.13-.24-.27-.37-.39a2.43,2.43,0,0,0-.52-.44c-.09,0,.11.09,0,0a1.24,1.24,0,0,0-.18-.14l-.2-.14a1.6,1.6,0,0,0-.54-.23.3.3,0,0,0-.38.28Z"/><path class="cls-1" d="M90.88,86.88c0,.05-.06.13-.08.22a.88.88,0,0,0,.06.36,5.48,5.48,0,0,0,.23.56,2.87,2.87,0,0,0,.26.49c.11.15.21.3.31.46s.38.61.56.92A4,4,0,0,0,92.88,91a.82.82,0,0,0,.87.16.78.78,0,0,0,.49-.73,3,3,0,0,0-.54-1.29c-.19-.32-.41-.64-.63-1s-.25-.33-.38-.5a2.78,2.78,0,0,0-.21-.27c-.1-.09-.22-.17-.32-.25l-.09-.07s0,0,0,0L92,87l-.09-.07-.13-.06,0,0-.05,0a.84.84,0,0,0-.2-.08.42.42,0,0,0-.27,0l-.12,0,0,0a.21.21,0,0,0-.21.16Z"/><path class="cls-1" d="M94.18,90.58l0,0,.11-.06a.32.32,0,0,0-.19.15s0,0,0,0,.1-.09,0,0l.19-.05a.42.42,0,0,0-.34.17,1.34,1.34,0,0,0-.11.14c0,.06,0,.13-.08.19s-.08.25-.13.37l.06-.13a2.56,2.56,0,0,0-.11.24,1.09,1.09,0,0,0,0,.26.59.59,0,0,0,.16.4.67.67,0,0,0,.33.15.49.49,0,0,0,.35-.07.61.61,0,0,0,.26-.33,1.2,1.2,0,0,0,0-.38,1.94,1.94,0,0,1,0-.24,1.29,1.29,0,0,0,0-.34.51.51,0,0,0-.23-.38l.13.13s0,0,0,0h0s0,0,0,0a.3.3,0,0,0-.08-.17l.06.12v0a.24.24,0,0,0-.39-.11Z"/><path class="cls-1" d="M91.48,93c0,.22.38.31.57.39a7,7,0,0,0,.69.22l1.4.41a.34.34,0,0,0,.18-.66L92.81,93c-.19,0-1.45-.41-1.33.05Z"/><path class="cls-1" d="M94.62,89.7a.22.22,0,0,0,0,.08l0,.07a.86.86,0,0,0,.1.16l.2.27a2.61,2.61,0,0,0,.19.27,2.09,2.09,0,0,0,.23.29.68.68,0,0,0,.12.12.21.21,0,0,0,.17,0c.13,0,.07-.22,0-.3a3.66,3.66,0,0,0-.4-.57l-.22-.29L95,89.69a.34.34,0,0,0-.06-.06l-.11-.06a.11.11,0,0,0-.16.13Z"/><path class="cls-1" d="M94.27,89.53a.58.58,0,0,0,0,.14,1.3,1.3,0,0,0,.1.15l.2.27.21.24a.63.63,0,0,0,.12.11l.07.06.09,0a.09.09,0,0,0,.11-.09.22.22,0,0,0,0-.08.3.3,0,0,0,0-.08,1.4,1.4,0,0,0-.1-.16l-.21-.24c-.07-.08-.15-.15-.22-.22l-.12-.12a.75.75,0,0,0-.15-.09.07.07,0,0,0-.1.08Z"/><path class="cls-1" d="M94.15,89.44a4,4,0,0,0,.6.57,2.25,2.25,0,0,0,.74.5.2.2,0,0,0,.23-.29,2.53,2.53,0,0,0-.69-.57,4,4,0,0,0-.73-.41.13.13,0,0,0-.15.2Z"/><path class="cls-1" d="M95.2,90.51s0,.11.06.15a.76.76,0,0,0,.11.14,1.21,1.21,0,0,0,.24.21,1.24,1.24,0,0,0,.27.17l.15.07c.07,0,.14.07.21,0s.15-.13.09-.22a.32.32,0,0,0-.18-.12h0s0,0,0,0l-.07,0-.25-.15-.11-.08s0,0,0,0l0,0,0,0a.69.69,0,0,0-.13-.11l-.1-.08a.11.11,0,0,0-.12,0,.09.09,0,0,0,0,.11Z"/><path class="cls-1" d="M95.58,90.63a2.27,2.27,0,0,1,.4.29,1.49,1.49,0,0,1,.17.18l0,.05,0,0h0l.07.11a.15.15,0,1,0,.25-.15,2,2,0,0,0-.41-.42,1.52,1.52,0,0,0-.49-.25c-.09,0-.15.11-.06.16Z"/><path class="cls-1" d="M95.18,90.49a7.34,7.34,0,0,1-.1,1.32,4.34,4.34,0,0,1-.16.62c-.07.2-.21.41-.16.61a.1.1,0,0,0,.15.06c.21-.09.27-.38.33-.58a5.06,5.06,0,0,0,.17-.67,3.42,3.42,0,0,0,0-1.39c0-.11-.19-.08-.2,0Z"/><path class="cls-1" d="M95.11,91.28a4.78,4.78,0,0,1-.23,1.35,4.11,4.11,0,0,1-.25.61,5.54,5.54,0,0,0-.36.62.23.23,0,0,0,.33.26,1.66,1.66,0,0,0,.45-.63,3.83,3.83,0,0,0,.29-.73,3.55,3.55,0,0,0,0-1.52c0-.16-.28-.12-.27,0Z"/><path class="cls-1" d="M95.54,91.41a3.76,3.76,0,0,1-.16.74,4.66,4.66,0,0,1-.26.71,4.21,4.21,0,0,1-.39.64l-.23.27a1.32,1.32,0,0,0-.28.3.23.23,0,0,0,0,.24l0,0a.24.24,0,0,0,.23.06,1.9,1.9,0,0,0,.64-.62,3.67,3.67,0,0,0,.42-.72,3.21,3.21,0,0,0,.24-.8,3.62,3.62,0,0,0,0-.87.12.12,0,0,0-.24,0Z"/><path class="cls-1" d="M95.58,92.42c-.35.33-.68.67-1,1-.15.17-.31.33-.47.5l-.23.27a1.18,1.18,0,0,0-.24.31c-.08.17.09.39.27.27a2.47,2.47,0,0,0,.49-.53c.16-.18.31-.38.47-.57.3-.37.6-.75.87-1.15.07-.09-.08-.19-.15-.12Z"/><path class="cls-1" d="M94.27,93.77l-.1.09-.11.1-.1.09a.4.4,0,0,0-.13.16.15.15,0,0,0,.19.18.35.35,0,0,0,.15-.12,1.09,1.09,0,0,0,.1-.11l.09-.1.1-.1a.14.14,0,0,0,0-.19.13.13,0,0,0-.19,0Z"/><path class="cls-1" d="M92.47,93.47a.77.77,0,0,0,.07.26,1.64,1.64,0,0,0,.14.22,2,2,0,0,0,.4.36,2.16,2.16,0,0,0,.48.24l.23.07a.69.69,0,0,0,.35,0,.27.27,0,0,0,.19-.21.26.26,0,0,0-.13-.26.37.37,0,0,0-.15,0l-.1,0s.06,0,0,0l-.22,0L93.51,94l0,0s0,0,0,0l-.1,0c-.28-.15-.46-.35-.73-.51-.06,0-.15,0-.14.08Z"/><path class="cls-1" d="M92.92,93.76c0,.07,0,.15.07.21l.1.17a2.2,2.2,0,0,0,.21.32,2.87,2.87,0,0,0,.29.31l.2.14.09.06,0,0,0,0a.25.25,0,0,0,.34-.09.25.25,0,0,0-.09-.34l-.31-.19-.16-.1-.08-.06s0,0,0,0l-.07-.06,0,0s0,0,0,0l-.07-.06a1.59,1.59,0,0,1-.13-.13l-.06-.07s0,0,0,0l0,0a.27.27,0,0,0-.07-.08l-.06-.06a.11.11,0,0,0-.14-.05.11.11,0,0,0-.07.13Z"/><path class="cls-1" d="M93.68,94.42a.86.86,0,0,0,.22.38.82.82,0,0,0,.41.24.19.19,0,0,0,.24-.14.07.07,0,0,0,0-.05v0a.15.15,0,0,0,0-.07.26.26,0,0,0-.11-.07l-.18,0h0l-.08,0s0,0,0,0h0l0,0-.07,0h0l-.06,0h0v0l0,0,0,0v0s0,0,0,0a.09.09,0,0,0-.17.08Z"/><path class="cls-1" d="M93.82,94.67a2,2,0,0,1,.08-1,2.35,2.35,0,0,1,.19-.43l.12-.22a.38.38,0,0,0,.1-.32.21.21,0,0,0-.21-.16c-.23,0-.37.28-.45.46a2.33,2.33,0,0,0-.17.57,2.61,2.61,0,0,0,.09,1.15.13.13,0,0,0,.25-.07Z"/><path class="cls-1" d="M94.12,93.35a1.23,1.23,0,0,0,.26-.33.72.72,0,0,0,.09-.2.31.31,0,0,0,0-.13.2.2,0,0,0,0-.11s-.06-.08,0,0a.16.16,0,0,0-.29,0s0,0,0,0l0,0,0,.05a.28.28,0,0,1-.1.09.77.77,0,0,1-.25.1,1.07,1.07,0,0,1-.25,0l-.11,0h0l-.1,0c-.14,0-.37,0-.33.21a.29.29,0,0,0,.35.18l.08,0h.06l.14,0,.26-.08.29-.13.14-.06.13-.07-.13-.29h0a.24.24,0,0,0-.08.06.61.61,0,0,0-.05.12l0,0s0,0,0,0a.3.3,0,0,1,0,.08.43.43,0,0,0,0,.07l0,0h0a.8.8,0,0,1-.13.13.22.22,0,0,0,0,.3.23.23,0,0,0,.31,0Z"/><path class="cls-1" d="M94.1,93.1a2.48,2.48,0,0,0,1.3-1.27,2.69,2.69,0,0,0,.16-.45c0-.07,0-.14,0-.21a.61.61,0,0,0,0-.19.36.36,0,0,0-.14-.18.76.76,0,0,0-1,0,.79.79,0,0,0-.24.54.59.59,0,0,0,.28.54.23.23,0,0,0,.34-.26.74.74,0,0,1,0-.14s0,0,0-.08,0,0,0,0,0-.08,0,0a.19.19,0,0,1,0-.07c0-.07,0,0,0,0s0,0,0,0l0,0,0,0h0l0,0,0,0h.16s0,0,0,0l.08,0-.13-.23a2.06,2.06,0,0,1-.36,1,2,2,0,0,1-.81.74.17.17,0,0,0-.06.24.18.18,0,0,0,.24.06Z"/><path class="cls-1" d="M94.76,91l-.37.31a2.26,2.26,0,0,0-.34.35,9.41,9.41,0,0,0-.6.81c-.11.17-.29.4-.18.6a.31.31,0,0,0,.34.14c.13,0,.19-.17.25-.28a5.32,5.32,0,0,1,.49-.83c.11-.15.23-.28.33-.43a3.36,3.36,0,0,1,.34-.41.18.18,0,0,0-.26-.26Z"/><path class="cls-1" d="M93.54,92.18h0l0,0a.05.05,0,0,1,0,0l.06,0h0a.17.17,0,0,0-.1,0h0l0,0-.06,0,.24,0,0,0,0,0,0,0,0,0a.05.05,0,0,1,0,0v0a.43.43,0,0,1,0,0v0a.15.15,0,0,1,0-.07v0a.43.43,0,0,1,0,0v0h0s0,0,0,0h0L93.41,92a1.22,1.22,0,0,1,0,.17l0-.06a.16.16,0,0,0,0,.1l.11-.11a.16.16,0,0,0-.1,0,.11.11,0,0,0,0,.06l0,0,0-.05a.12.12,0,0,0,0,.05.19.19,0,0,0,0,.07v.07a.15.15,0,0,0,0,.09l0,.05a.23.23,0,0,0,.07.07l.1,0h.18l.1,0,.09-.06a.26.26,0,0,0,.06-.22v.07a.15.15,0,0,0,0-.13s0,0,0-.06l0,0-.05,0h-.07l.12,0-.06,0-.08,0a.34.34,0,0,0-.1,0h.06a.06.06,0,0,1-.06,0h0l-.09,0h0l.17.17s0,0,0,0v0l0-.06,0,0,0,0a.19.19,0,0,0-.14-.1l.12.11s0-.08-.06-.1l0,.06,0-.17a.1.1,0,0,0-.07-.07.12.12,0,0,0-.1,0h0l0,0-.06,0,0,0,0,0,0,.06a.28.28,0,0,0,0,.13.34.34,0,0,0,0,.17l0-.15a.28.28,0,0,0,0,.2.22.22,0,0,0,.1.09l.06,0a.3.3,0,0,0,.13,0,.44.44,0,0,0,.25-.06.28.28,0,0,0,.09-.1l0-.06a.33.33,0,0,0,0-.14.14.14,0,0,0,0-.08.12.12,0,0,0-.07-.07.35.35,0,0,0-.2,0,.26.26,0,0,0-.11.07Z"/><path class="cls-5" d="M7.61,117.32l9.79-8.49c.09-.08-.35-.24-.47-.14l-9.78,8.49c-.1.08.34.24.46.14Z"/><path class="cls-5" d="M19.63,106a94.85,94.85,0,0,1,13.05-7c.18-.07-.26-.28-.38-.22a93,93,0,0,0-13.11,7c-.1.06.31.28.44.19Z"/><path class="cls-5" d="M41.07,90.91A67.36,67.36,0,0,0,58.68,74.27c.06-.09-.4-.1-.49,0A67.1,67.1,0,0,1,40.7,90.82c-.22.14.26.16.37.09Z"/><path class="cls-5" d="M82.65,74.65c-1.19.55-2-1.46-2.77-2a2.82,2.82,0,0,0-2-.4,30.53,30.53,0,0,0-3.09.94,16.5,16.5,0,0,1-3.28.45c-4.34.21-8.78-.76-13,.67-.25.09.21.23.33.19,4.34-1.48,9-.37,13.41-.68a16.66,16.66,0,0,0,3.07-.5c1.15-.32,2.54-1.19,3.74-.8,1,.33,1.33,1.45,2.16,2a1.86,1.86,0,0,0,1.87.26c.16-.08-.29-.22-.41-.16Z"/><path class="cls-5" d="M83.92,75.41c2.82,1.16,4.45,3.82,5.85,6.38,1.52,2.79,3,5.5,5.3,7.69A69.46,69.46,0,0,0,104,96c3.34,2.24,6.69,4.46,10.08,6.63a201.21,201.21,0,0,0,20.64,11.78c6.33,3.06,12.94,5.34,19.44,8,6.16,2.51,12.26,5.54,17,10.33.59.59,1.15,1.22,1.69,1.86.09.1.57.12.44,0-4.23-5-9.93-8.41-15.88-11-6.33-2.8-12.94-4.91-19.25-7.76a178.6,178.6,0,0,1-21.24-11.65c-3.41-2.14-6.77-4.34-10.11-6.57s-6.69-4.27-9.77-6.73a20.38,20.38,0,0,1-3.8-3.85A35.69,35.69,0,0,1,90.87,83c-1.3-2.43-2.63-5.06-4.92-6.73a8.27,8.27,0,0,0-1.75-1c-.14-.06-.57,0-.28.12Z"/><path class="cls-5" d="M54.48,84.23a38.39,38.39,0,0,1-7,5.81c-.61.39-1.24.8-1.9,1.14-.3.15-1,.35-.8-.27a3.45,3.45,0,0,1,.81-1L49,86l3.94-4.46c.1-.12-.36-.3-.45-.19l-4,4.53-2,2.27c-.65.74-1.37,1.45-2,2.23-.32.42-.35.9.19,1.11A1.6,1.6,0,0,0,46,91.36a30.36,30.36,0,0,0,4.44-2.92,38.93,38.93,0,0,0,4.49-4c.1-.11-.35-.29-.45-.19Z"/><path class="cls-5" d="M56.26,84.05a12.72,12.72,0,0,0,2,4.48c.06.09.37.18.45.08a6.73,6.73,0,0,0,1.6-4.35c0-.14-.46-.26-.49-.12a1.65,1.65,0,0,0,2,1.79c.25-.06-.19-.25-.31-.22-.8.19-1.4-.74-1.23-1.45l-.49-.12a6.64,6.64,0,0,1-1.56,4.31l.44.08a12.53,12.53,0,0,1-1.91-4.42c0-.14-.51-.21-.48-.06Z"/><path class="cls-5" d="M62,84.47a106.87,106.87,0,0,1,8.41,9.12l8.42,9.51c.09.1.56.17.44,0l-8.59-9.7a105.32,105.32,0,0,0-8.3-9c-.1-.09-.58-.16-.38,0Z"/><path class="cls-5" d="M80.84,99.19,80,92c0-.13-.5-.21-.48-.05l.8,7.15c0,.13.5.21.48,0Z"/><path class="cls-5" d="M81.58,88.89a2,2,0,0,1,1.23,1.44c0,.12.45.2.49.07a2.18,2.18,0,0,1,.83-1.2l-.45-.06L91,95.43c.1.09.58.1.45,0l-7.33-6.29a.41.41,0,0,0-.45-.06,2.26,2.26,0,0,0-.86,1.24l.48.07a2.24,2.24,0,0,0-1.43-1.6c-.14,0-.58,0-.28.12Z"/><path class="cls-5" d="M91.78,94l2.91,2c.06,0,.48.15.47,0l0-.89c0-.13,0-.28.06-.37l.26-.17a2.77,2.77,0,0,0,.78-.89,3,3,0,0,0,.27-2.34H96l.38.64c.07.13.55.11.48,0l-.37-.65c-.07-.1-.54-.15-.49,0a2.85,2.85,0,0,1-1.36,3.31.05.05,0,0,0,0,.05l0,1.24h.47l-2.91-2a.46.46,0,0,0-.34-.07s-.2.06-.1.12Z"/><path class="cls-5" d="M37,94.33,34.32,97c-.07.08.13.13.17.14a.34.34,0,0,0,.31,0l2.65-2.64c.07-.08-.13-.13-.17-.14a.34.34,0,0,0-.31,0Z"/><path class="cls-5" d="M46.35,101.28,33.64,111.6c-.1.08.33.29.44.2L46.8,101.47c.1-.08-.33-.29-.45-.19Z"/><path class="cls-5" d="M23.35,113.28a55.27,55.27,0,0,1-9.59,10c-.1.07.34.24.46.15a55.27,55.27,0,0,0,9.59-10c.09-.12-.37-.27-.46-.15Z"/><path class="cls-5" d="M105.4,110.76a46,46,0,0,1,9.42,5.26,28,28,0,0,1,6.59,7.42c.08.13.55.11.49,0a28.2,28.2,0,0,0-6.64-7.47,45.76,45.76,0,0,0-9.49-5.31c-.12-.06-.6,0-.37.1Z"/><path class="cls-5" d="M132.86,126a44.24,44.24,0,0,0,11.81,4.44c.21.05.48-.11.15-.18a44.11,44.11,0,0,1-11.59-4.36c-.12-.07-.6,0-.37.1Z"/><path class="cls-5" d="M76.41,115.52a29.94,29.94,0,0,0-3.11,6.69c0,.1.45.16.5,0a29.64,29.64,0,0,1,3.09-6.63c.07-.12-.41-.18-.48-.06Z"/><path class="cls-5" d="M51.63,115.33l-10.47,9.93c-.09.09.36.21.47.1l10.47-9.94c.09-.08-.36-.2-.47-.09Z"/><path class="cls-5" d="M51,108.63a4,4,0,0,1-2.31,2.13c-.11,0,0,.12,0,.15a.53.53,0,0,0,.35,0,4.18,4.18,0,0,0,2.39-2.22c0-.11-.42-.26-.48-.11Z"/><path class="cls-5" d="M38,119.4l-9.69,7c-.14.1.33.14.44.06l9.69-7c.14-.1-.33-.14-.44-.06Z"/><path class="cls-5" d="M49.39,85.16l.26-.27a.06.06,0,0,0,0,0l0,0-.07,0-.08,0h-.19l0,0a.1.1,0,0,0-.07,0l-.26.26s0,0,0,0,0,0,0,0l.06,0,.09,0a.41.41,0,0,0,.19,0h0l.07,0Z"/><path class="cls-5" d="M50.24,84A66.24,66.24,0,0,0,33.79,98.5c-.09.1.38.23.47.11a65.64,65.64,0,0,1,16.4-14.5c.16-.1-.3-.23-.42-.16Z"/><path class="cls-5" d="M36,95.87A108.35,108.35,0,0,0,12,112Q9,114.73,6.08,117.71c-.09.1.37.24.47.13A108.06,108.06,0,0,1,29.2,99.92c2.33-1.39,4.72-2.68,7.16-3.89.16-.08-.29-.22-.41-.16Z"/><path class="cls-2" d="M66.76,15.6a8.14,8.14,0,0,0,1.78,0c.61,0,1.22.08,1.83.16a14.13,14.13,0,0,1,1.81.36c.59.15,1.16.38,1.75.52a.38.38,0,0,0,.29-.7,10.71,10.71,0,0,0-3.74-1.05,15.66,15.66,0,0,0-1.94-.11,4.61,4.61,0,0,0-1.85.25.3.3,0,0,0,.07.53Z"/><path class="cls-2" d="M98.15,18.53a1.36,1.36,0,0,0,.53-.22l.53-.26a11.26,11.26,0,0,1,1.26-.48c.4-.14.8-.25,1.21-.35A10.36,10.36,0,0,0,103,17a.18.18,0,0,0,0-.36,4.14,4.14,0,0,0-1.3.19,12.11,12.11,0,0,0-1.3.39,12.89,12.89,0,0,0-1.21.51c-.21.1-.41.2-.6.31a1.24,1.24,0,0,0-.47.34.14.14,0,0,0,.12.2Z"/><path class="cls-2" d="M98,18.19a6.18,6.18,0,0,0,1-.45,10.07,10.07,0,0,1,1-.41c.32-.12.65-.23,1-.33s.36-.09.53-.15a.92.92,0,0,0,.45-.23.16.16,0,0,0,0-.25,1.58,1.58,0,0,0-1,.11,10.41,10.41,0,0,0-1.07.37,9.88,9.88,0,0,0-1,.45,2.9,2.9,0,0,0-.94.6.18.18,0,0,0,.18.29Z"/><path class="cls-2" d="M98.34,18.62a2,2,0,0,0,.59,0l.55,0a5.7,5.7,0,0,0,.58-.06,3.46,3.46,0,0,0,.54-.19.13.13,0,0,0,0-.23A2.8,2.8,0,0,0,100,18a5.11,5.11,0,0,0-.55.05l-.57.06a1.89,1.89,0,0,0-.58.14.18.18,0,0,0,0,.33Z"/><path class="cls-2" d="M111,11.18a4.52,4.52,0,0,0,1.51.2l1.57,0h1.58c.28,0,.56,0,.84,0a2.26,2.26,0,0,0,.78-.1.2.2,0,0,0,0-.38,2.54,2.54,0,0,0-.78-.11c-.24,0-.48,0-.72,0-.55,0-1.09,0-1.63,0l-1.58,0A4.71,4.71,0,0,0,111,11c-.08,0-.14.18,0,.22Z"/><path class="cls-2" d="M120.8,17.76a2,2,0,0,0-1.14-.45,5.91,5.91,0,0,0-1.33,0,6.28,6.28,0,0,0-1.28.24,3.16,3.16,0,0,0-1.21.58.35.35,0,0,0,.25.6,5.66,5.66,0,0,1,1.29.25c.42.1.85.21,1.28.29a.25.25,0,0,0,.13-.48c-.42-.14-.84-.24-1.26-.35a5.38,5.38,0,0,1-1.26-.37l-.08.65a4.49,4.49,0,0,0,.56-.24,5.17,5.17,0,0,1,.51-.18,5.74,5.74,0,0,1,1.15-.24,6.42,6.42,0,0,1,1.16,0,3.71,3.71,0,0,0,1.15,0,.18.18,0,0,0,.08-.3Z"/><path class="cls-2" d="M117.6,18.88c.38,0,.77,0,1.15,0l.58,0a1.91,1.91,0,0,0,.58-.1.21.21,0,0,0,.14-.19.2.2,0,0,0-.14-.19,1.62,1.62,0,0,0-.58,0l-.6.06c-.39,0-.78.14-1.17.2-.14,0-.1.26,0,.26Z"/><path class="cls-2" d="M117.7,18.49l.63.08a6,6,0,0,1,.61.07l.62.11a1.59,1.59,0,0,0,.68.06.27.27,0,0,0,.13-.45,1.3,1.3,0,0,0-.69-.24q-.34,0-.69-.06h-.66a4,4,0,0,0-.68.11c-.2,0-.12.31,0,.33Z"/><path class="cls-2" d="M118.73,18.28a5.78,5.78,0,0,1,1,.1l.51.12a1.06,1.06,0,0,0,.58.07.22.22,0,0,0,.13-.32c-.09-.19-.35-.28-.53-.34a3.59,3.59,0,0,0-.57-.11,4,4,0,0,0-1.2,0,.23.23,0,0,0-.17.26.24.24,0,0,0,.23.2Z"/><path class="cls-2" d="M69.73,33.15a7,7,0,0,0-1,1.32c-.28.48-.49,1-.76,1.47a.38.38,0,0,0,.52.52,3.73,3.73,0,0,1,.83-.4l.46-.13a2.14,2.14,0,0,0,.27-.09c.07,0,.13-.11.19-.15a.24.24,0,0,0,0-.38A1.13,1.13,0,0,0,70,35.2a.86.86,0,0,0-.32,0,1.81,1.81,0,0,0-.56.12,3.22,3.22,0,0,0-1,.49l.55.43a7.64,7.64,0,0,1,.6-1.45l.35-.71c.11-.24.21-.5.33-.75s-.11-.29-.22-.17Z"/><path class="cls-2" d="M70,35.78a3.5,3.5,0,0,0,.06,1.76.28.28,0,0,0,.4.16c.34-.18.67-.38,1-.57l.48-.3a1,1,0,0,0,.25-.2.61.61,0,0,0,.18-.21.14.14,0,0,0-.12-.2.69.69,0,0,0-.28.05,1.45,1.45,0,0,0-.29.11,4.82,4.82,0,0,0-.5.27c-.34.19-.68.38-1,.58l.39.16a5.6,5.6,0,0,1-.3-1.57.14.14,0,0,0-.28,0Z"/><path class="cls-2" d="M60.81,30.37A1.8,1.8,0,0,0,60,31a4,4,0,0,0-.61.91A3.49,3.49,0,0,0,59,33c0,.36-.14.93.24,1.14a.27.27,0,0,0,.32,0c.26-.23.15-.68.2-1a4.73,4.73,0,0,1,.22-.9,3.39,3.39,0,0,1,.42-.8c.19-.26.44-.47.6-.74a.18.18,0,0,0-.2-.26Z"/><path class="cls-2" d="M59.84,34.48c.22-.24.45-.46.67-.7a8.36,8.36,0,0,1,.67-.66c.23-.21.48-.4.73-.6l.35-.27c.11-.08.3-.22.34-.37a.16.16,0,0,0-.12-.19.78.78,0,0,0-.48.13,3.42,3.42,0,0,0-.4.26,6.91,6.91,0,0,0-.79.64c-.23.22-.46.46-.67.7a5.48,5.48,0,0,0-.57.85c-.1.17.14.37.27.21Z"/><path class="cls-2" d="M108.75,35a4.26,4.26,0,0,0-1.1,1.25,3.66,3.66,0,0,0-.33.79,1.94,1.94,0,0,0-.09,1,.43.43,0,0,0,.82,0,2,2,0,0,0,0-.42c0-.07,0-.13,0-.2s0,.06,0,0,0-.06,0-.09a5.65,5.65,0,0,1,.17-.71,3.49,3.49,0,0,1,.7-1.21.23.23,0,0,0,0-.28.22.22,0,0,0-.28-.06Z"/><path class="cls-2" d="M107.59,38.41l1.79-.47a8,8,0,0,0,.87-.26c.27-.1.63-.2.73-.5a.18.18,0,0,0-.08-.2c-.24-.17-.61,0-.86,0a6.24,6.24,0,0,0-.86.3l-1.71.65c-.27.1-.17.52.12.44Z"/><path class="cls-2" d="M162.25,35.35c-.33-.23-.9,0-1.25.09a4.5,4.5,0,0,0-1.17.61,3.54,3.54,0,0,0-1.61,2.11.34.34,0,0,0,.61.26,8.68,8.68,0,0,1,1.45-1.79,5.38,5.38,0,0,1,1-.58,4.34,4.34,0,0,1,.5-.2,1.17,1.17,0,0,0,.52-.29.13.13,0,0,0,0-.21Z"/><path class="cls-2" d="M158.64,39.09a5.61,5.61,0,0,1,1-.24,3.71,3.71,0,0,1,1,0,7.42,7.42,0,0,1,.94.18,2.79,2.79,0,0,0,1,.14c.21,0,.44-.26.28-.48a2.37,2.37,0,0,0-2.24-.62,8.21,8.21,0,0,0-1.1.21,4.46,4.46,0,0,0-1,.48c-.19.11-.07.45.15.37Z"/><path class="cls-2" d="M136.9,25.69l-.18,0c-.07,0,0,0,0,0h-.08a2.94,2.94,0,0,0-.42,0h-.35a3.81,3.81,0,0,0-.47.07.46.46,0,0,0-.35.35.5.5,0,0,0,.13.49l.28.31.13.14.08.08a.88.88,0,0,0,.29.18l-.13-.06a.62.62,0,0,0,.48.07l-.5-.13,0,0-.08-.31,0,.07a.29.29,0,0,0,.11.31.29.29,0,0,0,.33,0l.06,0-.25,0h0a.5.5,0,0,0,.44-.09.35.35,0,0,0,.13-.14.48.48,0,0,0,.07-.26.55.55,0,0,0-.08-.31.52.52,0,0,0-.14-.19l-.19-.15-.38-.29-.22.84.42-.16.32-.15c.1-.05.21-.09.31-.15l.06-.05s.07-.05,0,0l.19-.07a.24.24,0,0,0,.16-.26.23.23,0,0,0-.23-.2Z"/><path class="cls-2" d="M131.3,47.63h0l-.13.1,0,0v0l-.1.12h0l0,.08,0,.08v0h0c0,.05,0,.12,0,.17v0h0s0,.12,0,.18h0l.06.16a1,1,0,0,0,.13.16l.13.1a.46.46,0,0,0,.25.08.25.25,0,0,0,.17,0,.46.46,0,0,0,.25-.08l.1-.07a.34.34,0,0,0,.09-.08.5.5,0,0,0,.07-.08l.06-.08,0,0c0-.06,0-.12.07-.17v0a.09.09,0,0,0,0,0l0-.19v0l0-.2a.48.48,0,0,0-.12-.22.49.49,0,0,0-.18-.17.57.57,0,0,0-.25-.08.57.57,0,0,0-.26,0l-.16.07a.69.69,0,0,0-.24.24l-.06.15a.73.73,0,0,0,0,.36h0l0-.18a.11.11,0,0,1,0,.08l0-.18a.64.64,0,0,1,0,.07l.06-.15s0,0,0,.06l.1-.14a.08.08,0,0,1,0,0l.13-.1,0,0,.8.11h0l.11.13,0,0a.76.76,0,0,0-.11-.14l.1.13s0,0,0,0l.06.15a.43.43,0,0,1,0,0l0,.17,0-.21,0,.16a.13.13,0,0,1,0-.06.59.59,0,0,0-.07-.29.7.7,0,0,0-.21-.21.59.59,0,0,0-.59,0Z"/><path class="cls-2" d="M94.52,30.57l-.08-.1a.69.69,0,0,0-.3-.14,1.67,1.67,0,0,0-.39-.06,1.57,1.57,0,0,0-.68.11,2.37,2.37,0,0,0-.68.41,1.54,1.54,0,0,0-.43.64.47.47,0,0,0,.45.59A4.07,4.07,0,0,0,93,32a2.93,2.93,0,0,0,.57-.19,2.36,2.36,0,0,0,.89-.77.45.45,0,0,0,0-.45,1.42,1.42,0,0,0-.55-.48,1.35,1.35,0,0,0-.34-.11A.79.79,0,0,0,93,30a.43.43,0,0,0-.2.43.42.42,0,0,0,.31.35.58.58,0,0,0,.19,0h.06s0,0,0,0l.1,0,.06,0,0,0,.1.06.05,0s0,0,0,0,.07.06.08.08l0,0c0-.06,0-.07,0,0v-.45l0,.05,0,0-.07.08a1.29,1.29,0,0,1-.17.16l0,0,0,0-.09.06-.19.11,0,0h0L93,31l-.21.05-.06,0s0,0,0,0h-.22c.07,0,.08,0,0,0h0l.28.68,0-.06,0,.06.06-.07.06-.09c0-.08-.07.09,0,0l.17-.18s.09,0,0,0l0,0,.11-.07.11-.06s.1,0,0,0l0,0a1.14,1.14,0,0,1,.25-.06s.1,0,0,0-.05,0,0,0l.14,0s.11,0,0,0h.06a.76.76,0,0,1,.26,0s-.12,0,0,0a.76.76,0,0,0,.26,0l.12,0a.37.37,0,0,0,.26-.27.39.39,0,0,0-.1-.37Z"/><path class="cls-2" d="M108.81,36l.15-.08c.07,0,0,0,0,0l.08,0,0,0,.08,0,.08,0h.3l.13,0,.08,0c-.07,0,0,0,0,0l.13.08c.07.05,0,0,0,0L110,36l0,.05a.86.86,0,0,1,.1.16l0,0v0s0,.1.05.15l0,.13c0-.08,0,0,0,0v.1a.48.48,0,0,0,.16.45s0,0,0,0l.07,0a.35.35,0,0,0,.23,0c.27-.16.22-.57.17-.83a1.5,1.5,0,0,0-.91-1.06,1.53,1.53,0,0,0-.82-.07,1.2,1.2,0,0,0-.71.37.29.29,0,0,0,0,.36.27.27,0,0,0,.35.07Z"/><path class="cls-2" d="M109.89,36.19a2.8,2.8,0,0,0-.5,0,2,2,0,0,0-.52.16l-.21.1-.1.06c-.07,0,0,0,0,0l-.11.05A1.57,1.57,0,0,0,108,37a.36.36,0,0,0-.07.37.33.33,0,0,0,.31.2,2,2,0,0,0,1.62-1,.33.33,0,0,0-.56-.33l-.2.32a.54.54,0,0,0-.1.44.21.21,0,0,0,.21.16c.17,0,.32-.15.42-.28l.23-.31-.56-.33a.22.22,0,0,1,0,.08s-.07.11,0,0l-.13.14-.07.07s-.09.09,0,0a.53.53,0,0,1-.15.11.89.89,0,0,1-.17.08c.09,0,0,0,0,0l-.09,0-.19.05s0,0,0,0h-.14l.23.57.32-.32s0,0,0,0l0,0s0,0,0,0l0,0s0,0,0,0l.2-.13c.12-.08.26-.14.39-.21l.1-.05h0l.09,0h.07l.12,0a.14.14,0,0,0,0-.28Z"/><path class="cls-2" d="M108.83,36.06l.09.19,0-.08v0l0-.09a.91.91,0,0,0,.16.38l.15.25a5,5,0,0,0,.4.54.44.44,0,0,0,.31.13.44.44,0,0,0,.45-.45l0-.12a.45.45,0,0,0-.11-.19,5.2,5.2,0,0,0-.37-.43l-.21-.19a.88.88,0,0,0-.33-.25l.08,0a.7.7,0,0,1-.17-.13.28.28,0,0,0-.18,0,.3.3,0,0,0-.16.08.31.31,0,0,0,0,.33Z"/><path class="cls-2" d="M108.68,36.93a.18.18,0,0,0,.08.07l0,0a.2.2,0,0,0,.11,0h.18l.09,0a.22.22,0,0,0,.09-.1.2.2,0,0,0,0-.13.23.23,0,0,0,0-.14.28.28,0,0,0-.09-.1l-.09,0h-.26l-.07,0-.06,0h0a.16.16,0,0,0-.06.08.43.43,0,0,0,0,.11v.07a.19.19,0,0,0,.07.11Z"/><path class="cls-2" d="M162.19,35.55c.11.11.15.18.26.31s.05.06,0,0a.16.16,0,0,1,.06.08l.1.17a.36.36,0,0,1,0,.09l0,0,.06.21a1.16,1.16,0,0,1,0,.18c0-.08,0,0,0,0a.41.41,0,0,1,0,.11V37s0,.06,0,.09,0-.07,0,0-.06.26-.1.38-.05.11,0,0a.31.31,0,0,1,0,.1,1.19,1.19,0,0,1-.09.15l0,0-.07.08a.69.69,0,0,0-.15.28c-.08.26.16.44.4.4s.36-.23.48-.39a2,2,0,0,0,.24-.46,2.31,2.31,0,0,0,.14-1,2,2,0,0,0-1-1.71.3.3,0,0,0-.36.47Z"/><path class="cls-2" d="M162.51,36.38a1,1,0,0,0-.95.49,1.83,1.83,0,0,0-.13.24c-.05.12,0,0,0,0s0,.07,0,.11a.5.5,0,0,0,0,.13,1,1,0,0,0,0,.65.39.39,0,0,0,.48.27.89.89,0,0,0,.62-.91,1,1,0,0,0-.71-.93,1.4,1.4,0,0,0-1.22.2,2.92,2.92,0,0,0-.5.43,1.31,1.31,0,0,0-.41.73.45.45,0,0,0,.21.37.47.47,0,0,0,.43,0c.17-.08.28-.3.39-.45l.06-.1s.06-.07,0,0l.15-.18.09-.08c-.05,0,0,0,0,0l.07-.05,0,0h0l.19-.05c-.09,0,0,0,0,0h.1c.09,0-.06,0,0,0l.08,0s0,0,0,0l0,0s.06,0,0,0l0,0s0-.07,0,0,0-.08,0,0l0,.08s0-.11,0,0v.08c0,.05,0-.08,0,0l0,.07h0c0,.07,0,0,0,0s.07,0,0,0h0l.45.18c0,.09,0,0,0,0s0-.07,0-.11a.29.29,0,0,0,0-.09c0,.09,0,0,0,0s0-.08,0-.12,0-.1,0,0a1.05,1.05,0,0,1,.05-.19h0l0-.06,0-.12s0,0,0,0l.05-.06a1.74,1.74,0,0,1,.29-.25c.08-.06.09-.2,0-.22Z"/><path class="cls-2" d="M160.7,37.18a1,1,0,0,0-.62,0s-.06,0,0,0l-.13,0-.15.08a2.65,2.65,0,0,0-.26.21.34.34,0,0,0,.33.56,2.73,2.73,0,0,0,.59-.3l.5-.28c.16-.1.33-.19.5-.28a1.38,1.38,0,0,0,.25-.17,1,1,0,0,0,.28-.32.33.33,0,0,0,0-.38.35.35,0,0,0-.36-.12l-.14,0a.76.76,0,0,0-.21.08,1.09,1.09,0,0,0-.23.14l-.49.34-.47.33a3.31,3.31,0,0,0-.52.38l.56.33a.09.09,0,0,0,0,0s0,0,0,0h0l0,0,.08-.07s0-.07.06-.07-.08,0,0,0a.6.6,0,0,1,.33-.07.19.19,0,0,0,.11-.37Z"/><path class="cls-2" d="M160.39,38l.1,0,.11,0,.24,0h.07l.13,0,.19,0a1.79,1.79,0,0,1,.4,0,.51.51,0,0,0,.41-.14.43.43,0,0,0-.08-.67.46.46,0,0,0-.44,0,2.79,2.79,0,0,1-.39.1l-.19,0-.11,0h0l-.08,0-.18.07a.19.19,0,0,0-.09,0c-.06,0-.08.06,0,0l-.1.05a.2.2,0,0,0,0,.36Z"/><path class="cls-2" d="M161.86,37.21l0-.12a.36.36,0,0,1,0-.11l0,0,0-.05,0-.09,0-.12.14-.46-.09.15,0,0-.16.09a.4.4,0,0,0,.27-.25,1,1,0,0,0,.06-.16l-.19.25,0,0,.1-.08a.29.29,0,0,0,.09-.15.43.43,0,0,0,0-.25.48.48,0,0,0-.88-.18.48.48,0,0,0,.07.58l0,0-.12-.29a.48.48,0,0,0,.2.48l-.13-.13c-.05-.1,0-.15,0-.08v.52a.28.28,0,0,0,0,.09h0v0a1.92,1.92,0,0,1,0,.24.21.21,0,0,0,.17.19.2.2,0,0,0,.21-.14Z"/><path class="cls-2" d="M159,38.7c.18-.1.36-.2.53-.31a2.2,2.2,0,0,0,.28-.24,1.13,1.13,0,0,0,.23-.26.23.23,0,0,0-.2-.34.62.62,0,0,0-.19,0l-.13,0a2.2,2.2,0,0,0-.36.13l-.52.33a.38.38,0,0,0-.17.22.36.36,0,0,0,.53.4Z"/><path class="cls-2" d="M162.17,36.58a.78.78,0,0,0-.22.62,1,1,0,0,0,.1.37.68.68,0,0,0,.27.26.34.34,0,0,0,.44-.09.32.32,0,0,0,0-.44l-.06-.07.06.07a.42.42,0,0,1-.09-.14l0,.08a.57.57,0,0,1,0-.14l0,.09a.76.76,0,0,1,0-.15v.09a1.17,1.17,0,0,1,.05-.2l0,.08,0,0a.31.31,0,0,0-.08-.41.32.32,0,0,0-.42,0Z"/><path class="cls-1" d="M150.06,100.5a7.67,7.67,0,0,0,.58-1.31c.2-.45.41-.9.65-1.34a9.78,9.78,0,0,1,1.6-2.37c.29-.28.77-.51,1.13-.24s-.06,1-.27,1.38a16.9,16.9,0,0,1-1.7,2.26,16.7,16.7,0,0,1-2.39,2.21c-.24.19,0,.61.25.42a16.47,16.47,0,0,0,4.53-5.05,1.36,1.36,0,0,0,.1-1.41,1.16,1.16,0,0,0-1.09-.42,1.93,1.93,0,0,0-1.18.8,12.37,12.37,0,0,0-1,1.4,12.62,12.62,0,0,0-.89,1.76,4.88,4.88,0,0,0-.55,1.86.1.1,0,0,0,.19,0Z"/><path class="cls-1" d="M150.25,100.74a15.62,15.62,0,0,0,1.65-2.16,11.33,11.33,0,0,0,.65-1.18c.1-.2.18-.41.26-.62a1,1,0,0,0,.05-.7.21.21,0,0,0-.34-.09,1.07,1.07,0,0,0-.36.53l-.21.58c-.16.41-.32.82-.51,1.21a11.77,11.77,0,0,1-1.37,2.25c-.1.12.07.3.18.18Z"/><path class="cls-1" d="M153,96.21h.2a1.55,1.55,0,0,1,.21,0l-.13-.06c.13.12.27.07.43,0l-.3-.29a3.46,3.46,0,0,1-.49,1.27,2.74,2.74,0,0,1-.4.5,3,3,0,0,1-.52.42.35.35,0,0,0-.12.45.33.33,0,0,0,.45.12,3.38,3.38,0,0,0,1.55-2.7.23.23,0,0,0-.3-.23l-.18.07a.31.31,0,0,0-.1,0,.21.21,0,0,0-.06.1s0,0,0,0l-.08,0a.65.65,0,0,1-.15.1c-.07,0,0,.16,0,.15Z"/><path class="cls-1" d="M154,96.19a1,1,0,0,0-.21-1.16.22.22,0,0,0-.32,0A8.16,8.16,0,0,0,151,98.46a4.5,4.5,0,0,0-.16.48.83.83,0,0,0,0,.54.23.23,0,0,0,.31.11c.15-.06.25-.3.29-.44a10.31,10.31,0,0,1,.83-1.93,8,8,0,0,1,1.5-1.88h-.32a.63.63,0,0,1,.27.74c0,.15.2.26.26.11Z"/><path class="cls-1" d="M153.37,96.06c-.25.27-.52.53-.76.82l-.73.86c-.23.28-.47.56-.69.85a4.4,4.4,0,0,0-.69.93c-.08.2.2.41.36.28a4.29,4.29,0,0,0,.71-.87c.23-.3.45-.61.67-.91l.63-.9c.22-.31.41-.65.62-1a.08.08,0,0,0-.12-.09Z"/><path class="cls-1" d="M128.93,97.44a3.31,3.31,0,0,0-.9-4.38c-.22-.16-.54.16-.38.38a.88.88,0,0,0,1.24.22c.7-.44.48-1.82,1.31-2l-.4-.22a1.41,1.41,0,0,0,1.61,1,2.35,2.35,0,0,0,1.8-1.73c.47-1.24.74-2.59,1.09-3.88s.79-2.86,1.15-4.3l-.68-.09a76.91,76.91,0,0,1-1.51,10.48c-.33,1.49-.61,3.55-1.78,4.63a1.7,1.7,0,0,1-2.3.2,1.44,1.44,0,0,1,.25-2.28c.32-.2,0-.71-.3-.5a2,2,0,0,0,.26,3.58c1.64.66,3-.88,3.55-2.25a33.47,33.47,0,0,0,1.56-6.63c.4-2.37.62-4.76.95-7.14.05-.42-.54-.62-.67-.18-.61,2-1.13,4-1.68,6.07a10.56,10.56,0,0,1-.82,2.59,1.37,1.37,0,0,1-.87.73.8.8,0,0,1-1-.47A.33.33,0,0,0,130,91a1.33,1.33,0,0,0-.9.81c-.11.25-.53,2-1,1.31l-.38.38a2.86,2.86,0,0,1,.86,3.71.19.19,0,0,0,.32.19Z"/><path class="cls-1" d="M130.08,93s-.08,0-.12.08a.55.55,0,0,0-.16.18,2.94,2.94,0,0,0-.3.55,2.57,2.57,0,0,0-.25,1.15,1.77,1.77,0,0,0,1,1.59,1.64,1.64,0,0,0,1.83-.6,3.73,3.73,0,0,0,.63-2.29,4.88,4.88,0,0,1,.15-1.26,1.65,1.65,0,0,1,.21-.49c.1-.18.25-.32.35-.5a.32.32,0,0,0-.36-.47c-.79.2-1,1.34-1.08,2a4.66,4.66,0,0,1-.44,2.51,1,1,0,0,1-.87.47.9.9,0,0,1-.69-.56,1.78,1.78,0,0,1-.11-1.12c0-.23.12-.47.18-.7a1.67,1.67,0,0,0,.08-.3,1,1,0,0,1,0-.24s-.05-.06-.07,0Z"/><path class="cls-1" d="M132.38,92a15.4,15.4,0,0,1-.49,2.61c-.12.42-.26.84-.41,1.25s-.35.8-.51,1.2.42.58.61.26a8.88,8.88,0,0,0,.91-2.59c.08-.44.14-.88.18-1.33a9.35,9.35,0,0,0,0-1.4.13.13,0,0,0-.26,0Z"/><path class="cls-1" d="M132.1,96.45a16.35,16.35,0,0,0,1.11-3c.12-.52.23-1.05.31-1.59a2.65,2.65,0,0,0-.07-1.53.18.18,0,0,0-.32,0,3.33,3.33,0,0,0-.33,1.43c-.06.53-.14,1.05-.24,1.57a22.59,22.59,0,0,1-.78,3c-.07.18.23.31.32.13Z"/><path class="cls-1" d="M133.44,91c-.16.44-.34.87-.49,1.31s-.28.89-.42,1.34c-.27.88-.56,1.78-.76,2.68a.29.29,0,0,0,.56.16c.29-.88.5-1.8.73-2.7.11-.45.23-.9.33-1.36s.17-.91.26-1.37a.11.11,0,0,0-.21-.06Z"/><path class="cls-1" d="M132.23,93a2.68,2.68,0,0,0-1,1,2.33,2.33,0,0,0-.25.7,1.84,1.84,0,0,0-.05.41.82.82,0,0,0,0,.22.37.37,0,0,0,.27.26l-.1-.09a.35.35,0,0,0,.11.13.12.12,0,0,0,.14,0,.3.3,0,0,0,.07-.15l-.08.11c.19-.11.21-.24.22-.45s0-.21,0-.32a3.4,3.4,0,0,1,.13-.6,2.1,2.1,0,0,1,.69-1c.11-.1,0-.28-.16-.2Z"/><path class="cls-1" d="M131.26,94l-.31.57-.15.27a1.69,1.69,0,0,0-.17.29l.5.13c0-.27,0-.55.05-.82s0-.27,0-.4a2.83,2.83,0,0,1,.06-.42.17.17,0,0,0-.31-.13l-.48.63a7.26,7.26,0,0,0-.49.61l.52.14c0-.36-.05-.72-.05-1.08a.25.25,0,0,0-.38-.22c-.19.11-.39.21-.58.33a.26.26,0,0,0,.26.45c.2-.11.39-.23.58-.35l-.38-.21c0,.36,0,.72,0,1.08a.26.26,0,0,0,.2.27.31.31,0,0,0,.32-.12c.15-.21.25-.46.38-.68l.39-.68-.32-.08a1.31,1.31,0,0,1,0,.39l-.09.42c-.06.26-.11.54-.18.8a.27.27,0,0,0,.5.21c.05-.09.09-.19.13-.28l.15-.3.3-.57a.24.24,0,0,0-.42-.25Z"/><path class="cls-1" d="M130.89,92.83a1.37,1.37,0,0,0-.24-.18l0,0a.35.35,0,0,0-.17-.12l-.16-.06-.08,0h0a.66.66,0,0,0-.24,0,2.21,2.21,0,0,0-.37.08l-.2.08-.07,0s0,0,0,0h0a.34.34,0,0,0-.14.37.39.39,0,0,0,.2.25.3.3,0,0,0,.39-.08.24.24,0,0,0,0-.23.12.12,0,0,0-.19,0,.12.12,0,0,1,.13,0l0,0s0,0,0,0v0l-.07-.08h0s0,0,0,0v0s0,.06,0,0a.2.2,0,0,1,0,.13s0,.09-.08.09.07,0,.09,0l.1-.06s0,0,0,0l.06,0,.11,0,.11,0s0,0,0,0h.1l.06,0h.14a.88.88,0,0,0,.23,0h-.07a1.12,1.12,0,0,1,.26.08c.08,0,.15-.1.09-.15Z"/><path class="cls-1" d="M130,92.9l-.42.29-.2.14a1.8,1.8,0,0,1-.2.19.19.19,0,0,0,0,.32,3.76,3.76,0,0,1,.67.52,3.85,3.85,0,0,1,.51.69,3.12,3.12,0,0,1,.31.76,6.12,6.12,0,0,0,.2.87c.1.22.45.14.5-.07a1.73,1.73,0,0,0-.15-1,4.39,4.39,0,0,0-.45-.86,3.37,3.37,0,0,0-.61-.7,4,4,0,0,0-.79-.56l0,.29a2.1,2.1,0,0,1,.26-.13l.16-.12.38-.29c.22-.16,0-.52-.21-.37Z"/><path class="cls-1" d="M131,95.66a1.93,1.93,0,0,0,.59-.86,2.77,2.77,0,0,0,.1-.5.75.75,0,0,0-.11-.55.17.17,0,0,0-.26,0,.53.53,0,0,0,0,.25v.22a1.75,1.75,0,0,1-.57,1.11.2.2,0,0,0,0,.29.21.21,0,0,0,.29,0Z"/><path class="cls-1" d="M130.71,93.28l.3-.07a2.24,2.24,0,0,0,.37-.1.27.27,0,0,0,.13-.18.31.31,0,0,0,0-.19.33.33,0,0,0-.12-.14.31.31,0,0,0-.23,0l-.12.05-.05,0-.11,0-.22.1.06,0-.13,0a.26.26,0,0,0-.14.11.22.22,0,0,0,0,.19.24.24,0,0,0,.3.17Z"/><path class="cls-1" d="M131,92.89l.32-.16.06,0a.18.18,0,0,0,.07-.1.19.19,0,0,0,0-.08.17.17,0,0,0,0-.12v0s0,0,0-.09l0,0,0,0,0,0a.18.18,0,0,0-.05-.07l-.06,0a.28.28,0,0,0-.12,0h-.08a.28.28,0,0,0-.12,0l-.31.17a.23.23,0,0,0-.09.08.31.31,0,0,0,0,.1.29.29,0,0,0,0,.13.21.21,0,0,0,0,.11.31.31,0,0,0,.18.14h.09a.28.28,0,0,0,.15,0Z"/><path class="cls-1" d="M130.48,93.13l.63.33.31.16.15.07.09,0a.46.46,0,0,0,.22.06.34.34,0,0,0,.31-.2.36.36,0,0,0-.07-.37.86.86,0,0,0-.2-.13l-.15-.08-.32-.15-.64-.3a.36.36,0,0,0-.25,0,.32.32,0,0,0-.2.16.34.34,0,0,0,.12.45Z"/><path class="cls-1" d="M130.74,92.15c-.14.8-.28,1.58-.37,2.39-.05.4-.1.8-.14,1.2a7,7,0,0,0-.1,1.21c0,.48.78.63.89.12a8.53,8.53,0,0,0,.11-1.24c0-.4.05-.8.07-1.2.05-.81,0-1.61,0-2.41,0-.27-.44-.35-.49-.07Z"/><path class="cls-1" d="M132.39,91.34c-.09.15-.21.29-.3.44s-.18.3-.26.46c-.17.35-.33.69-.48,1l-.39,1-.19.51a.8.8,0,0,0-.09.3.72.72,0,0,0,.1.29.29.29,0,0,0,.42.18.84.84,0,0,0,.26-.15.54.54,0,0,0,.14-.27c.07-.17.12-.34.18-.51.13-.35.25-.7.37-1s.2-.69.29-1c0-.17.07-.34.11-.52s0-.39.07-.58-.16-.23-.23-.1Z"/><path class="cls-1" d="M130.4,91.93l-.11,0,.14,0c-.15,0-.28.08-.39.17a2.27,2.27,0,0,0-.26.28,2.08,2.08,0,0,0-.42.79,2.57,2.57,0,0,0-.12.83,1.8,1.8,0,0,0,0,.46.61.61,0,0,0,.37.45l-.14-.08,0,0a.3.3,0,0,0,.5-.13v0l-.08.14a.67.67,0,0,0,.14-.46.8.8,0,0,0,0-.15c0-.12,0,0,0,0a.91.91,0,0,1,0-.17,2.16,2.16,0,0,1,0-.36v-.08s0-.11,0-.07,0,0,0,0,0-.07,0-.1c.05-.23.13-.44.2-.66s.09-.19.13-.29.17-.24.12-.37l0,.14a.93.93,0,0,1,.05-.1.13.13,0,0,0-.18-.19Z"/><path class="cls-1" d="M128.44,93.55a1.88,1.88,0,0,1,.12.18,1.1,1.1,0,0,0,.09.14l.09.11c.12.12.22.25.34.37l.17.19.19.18.36.36.19.17a.45.45,0,0,0,.5.09.35.35,0,0,0,.16-.41.51.51,0,0,0-.21-.29,4.24,4.24,0,0,0-.39-.33c-.14-.12-.28-.25-.43-.36l-.47-.33-.21-.16-.14-.06-.14-.07c-.13-.08-.33.09-.22.22Z"/><path class="cls-1" d="M133.46,89.74c-.09.21-.18.42-.25.64s-.16.45-.22.68-.14.43-.2.65a1.66,1.66,0,0,0-.09.37.51.51,0,0,0,.06.22s0,0,0,0,0,.08,0,.11a.22.22,0,0,0,.36.09l.06-.08s0,0,0,0l.07,0,.07-.11a1.11,1.11,0,0,0,.09-.4c0-.23.05-.45.08-.68s0-.46.07-.69,0-.48,0-.73-.14-.1-.17,0Z"/><path class="cls-1" d="M149.4,92.29c2.53-2.37,4.24-5.87,5.39-9.09a30.24,30.24,0,0,0,1.77-10.7.22.22,0,0,0-.43,0,32.28,32.28,0,0,1-4.07,15.25c-.85,1.53-1.89,2.93-2.8,4.43a.09.09,0,0,0,.14.11Z"/><path class="cls-1" d="M156.75,116.59a7.86,7.86,0,0,0,2.77-1.28,27.1,27.1,0,0,0,2.76-1.85,30.1,30.1,0,0,0,5-4.81,28.6,28.6,0,0,0,5.89-12.12.14.14,0,0,0-.27-.07,32,32,0,0,1-6.16,11.86,30.93,30.93,0,0,1-4.59,4.49,31.51,31.51,0,0,1-2.86,2,14.84,14.84,0,0,0-2.56,1.59c-.06,0,0,.17.06.16Z"/><path class="cls-1" d="M169.27,125.09a34.93,34.93,0,0,0,16.57-23.34c0-.11-.15-.16-.18,0a37.22,37.22,0,0,1-16.5,23.21.11.11,0,0,0,.11.18Z"/><path class="cls-1" d="M137.27,111.59a16.25,16.25,0,0,0,2.74-4.15,16.42,16.42,0,0,0,1.61-4.71.06.06,0,0,0-.12,0,38.63,38.63,0,0,1-1.82,4.65,40.14,40.14,0,0,1-2.55,4.15c0,.08.07.17.14.1Z"/><path class="cls-1" d="M189.3,124.13a33.12,33.12,0,0,1,2.5-4.11c.47-.66,1-1.3,1.48-1.92.26-.31.53-.61.8-.9a6.47,6.47,0,0,0,.79-.87c.09-.12-.08-.28-.2-.2a5.41,5.41,0,0,0-.86.8l-.81.89c-.53.62-1.05,1.26-1.52,1.93a21.71,21.71,0,0,0-2.35,4.31c0,.09.12.16.17.07Z"/><path class="cls-1" d="M108.28,95.21a18.66,18.66,0,0,0,8.21-4.85,21.39,21.39,0,0,0,5.37-7.93c.11-.27-.35-.47-.47-.2A23.77,23.77,0,0,1,116.1,90a22.25,22.25,0,0,1-3.75,2.88A45.5,45.5,0,0,1,108.17,95c-.14.07,0,.28.11.25Z"/><path class="cls-1" d="M127.92,106.08c13.68-5.89,22.56-22.45,19.32-37.13-.07-.32-.62-.26-.58.08.88,7.79.07,15.62-3.87,22.55a37.68,37.68,0,0,1-15,14.22c-.19.1,0,.36.16.28Z"/><path class="cls-1" d="M147.88,113.93a21.25,21.25,0,0,0,10.39-6.19,25.5,25.5,0,0,0,3.7-4.88,23.79,23.79,0,0,0,1.41-2.81,7.72,7.72,0,0,0,.81-2.67.21.21,0,0,0-.39-.11,20.23,20.23,0,0,0-1.07,2.68,25.14,25.14,0,0,1-1.31,2.59,24.77,24.77,0,0,1-3.7,4.83,29.66,29.66,0,0,1-9.93,6.34c-.14.06,0,.25.09.22Z"/><path class="cls-6" d="M163.87,119.4c4.12-1.84,7.49-5.36,10-9.05s4.53-8.13,4.74-12.59c0-.17-.26-.2-.3,0-1.07,4.35-2.35,8.43-4.89,12.18s-6,6.58-9.71,9.2a.17.17,0,0,0,.17.3Z"/><path class="cls-6" d="M182.68,121A36.3,36.3,0,0,0,193,107.67a37.79,37.79,0,0,0,2.61-7.84,26,26,0,0,0,.66-8.42.23.23,0,0,0-.45,0,66.54,66.54,0,0,1-.89,8.44,37.23,37.23,0,0,1-2.6,7.89,38,38,0,0,1-9.89,13.07c-.15.13.06.33.21.21Z"/><path class="cls-6" d="M115.17,97.29a30.67,30.67,0,0,0,4.75-6.39,38.78,38.78,0,0,0,1.86-3.56,14,14,0,0,0,1.4-3.71c0-.17-.2-.3-.3-.13a32.4,32.4,0,0,0-1.56,3.57c-.56,1.21-1.19,2.4-1.86,3.56A69.06,69.06,0,0,1,115,97.15c-.08.11.1.23.19.14Z"/><path class="cls-6" d="M120.82,103.11a2.48,2.48,0,0,0-.52-1.6,2.85,2.85,0,0,1-.7-1.63.8.8,0,0,1,1-.78,1.38,1.38,0,0,1,1.06.94,2.72,2.72,0,0,1,.07,1.06,2.93,2.93,0,0,1-.11.59.72.72,0,0,0,0,.5.11.11,0,0,0,.18,0,.63.63,0,0,0,.18-.45c0-.18,0-.37.07-.55a3.24,3.24,0,0,0,0-1.12,1.68,1.68,0,0,0-1.06-1.22,1.14,1.14,0,0,0-1.34.3,1.62,1.62,0,0,0,.06,1.72c.38.71,1.16,1.32,1.07,2.19,0,.08.12.08.13,0Z"/><path class="cls-6" d="M120.13,99a3.43,3.43,0,0,0,1.13,2.53.25.25,0,0,0,.38-.05,1.54,1.54,0,0,0-.8-2.06.28.28,0,0,0-.3.12,2.35,2.35,0,0,0,.19,2.41.28.28,0,0,0,.52-.21c-.1-.42-.2-.83-.31-1.24a.29.29,0,0,0-.52-.07,1,1,0,0,0,0,1.06,1.17,1.17,0,0,0,.34.42.5.5,0,0,0,.28.12.69.69,0,0,0,.28-.08.19.19,0,0,0,0-.29l-.06,0s0,0,0,0a2.31,2.31,0,0,0-.19-.14.45.45,0,0,1-.16-.21.55.55,0,0,1-.05-.26.28.28,0,0,1,0-.11.88.88,0,0,1,.07-.13l-.52-.07c.11.42.21.83.32,1.24l.51-.22a1.83,1.83,0,0,1-.22-1.87l-.3.12a1,1,0,0,1,.52,1.31l.38,0a3,3,0,0,1-1-2.18.21.21,0,0,0-.42,0Z"/><path class="cls-6" d="M119.72,99.14a.72.72,0,0,0-.17.49,2.79,2.79,0,0,0,0,.5,3,3,0,0,0,.31,1.08,3.38,3.38,0,0,0,.63.88,1.89,1.89,0,0,0,.94.6c.23,0,.45-.24.25-.43s-.52-.36-.75-.58a2.76,2.76,0,0,1-.55-.72,3.66,3.66,0,0,1-.33-.85,3.35,3.35,0,0,1-.07-.44,1.3,1.3,0,0,0-.07-.48c0-.07-.12-.12-.18,0Z"/><path class="cls-6" d="M120.22,100.81a1.6,1.6,0,0,0,.1,1.16,1.54,1.54,0,0,0,.33.47.91.91,0,0,0,.24.2c.12.07.28.16.41.06a.22.22,0,0,0,.12-.19.3.3,0,0,0-.14-.23l-.1-.06-.11-.07,0,0c-.06,0,0,0,0,0a1.29,1.29,0,0,1-.17-.16l0,0s0,0,0,0l-.07-.11-.06-.1s0-.06,0-.08a2.17,2.17,0,0,1-.07-.24,1.36,1.36,0,0,1,0-.21.78.78,0,0,1,0-.22c0-.22-.28-.32-.34-.1Z"/><path class="cls-6" d="M121.5,102.6a2.63,2.63,0,0,0,.66-1.68,3.09,3.09,0,0,0-.07-.91,1.19,1.19,0,0,0-.49-.86.26.26,0,0,0-.39.23.87.87,0,0,0,.11.44c0,.1.09.21.13.32a2.76,2.76,0,0,1,.14.76,3.16,3.16,0,0,1-.36,1.5c-.07.16.13.35.27.2Z"/><path class="cls-6" d="M120.78,99.44s0,0,0,0a0,0,0,0,0,0,0Z"/></svg>