<svg id="carracters" xmlns="http://www.w3.org/2000/svg" viewBox="0 0 198.43 35.43"><defs><style>.cls-1{fill:#fff;}</style></defs><path d="M166.93,16.17l-.82-2.35,1.8-.5c2-.58,4-1.19,6-1.73a25.07,25.07,0,0,1,4.94-.87,9.69,9.69,0,0,1,5.32.94,6.07,6.07,0,0,1,3.21,4.49,8.4,8.4,0,0,1-.25,4.47,7.58,7.58,0,0,1-3.35,3.9,16.83,16.83,0,0,1-4.57,1.86A40,40,0,0,1,173,27.43l-.66-1.71,1.46-.17a25.47,25.47,0,0,0,7.54-1.89,8,8,0,0,0,3.12-2.32,5.27,5.27,0,0,0,1.07-3.67,5.6,5.6,0,0,0-.87-2.84,5.09,5.09,0,0,0-3.32-2.14,9.85,9.85,0,0,0-3.71,0,47.24,47.24,0,0,0-9.89,2.72c-.21.08-.4.15-.48.41S167.08,16,166.93,16.17Z"/><path class="cls-1" d="M13.77,16.17,13,13.82l1.79-.5c2-.58,4-1.19,6-1.73a25.07,25.07,0,0,1,4.94-.87,9.69,9.69,0,0,1,5.32.94,6.07,6.07,0,0,1,3.21,4.49A8.5,8.5,0,0,1,34,20.62a7.55,7.55,0,0,1-3.36,3.9A16.64,16.64,0,0,1,26,26.38a40.25,40.25,0,0,1-6.16,1.05l-.66-1.71,1.46-.17a25.54,25.54,0,0,0,7.54-1.89,8,8,0,0,0,3.12-2.32,5.32,5.32,0,0,0,1.07-3.67,5.6,5.6,0,0,0-.87-2.84,5.09,5.09,0,0,0-3.32-2.14,9.85,9.85,0,0,0-3.71,0,47.24,47.24,0,0,0-9.89,2.72c-.21.08-.4.15-.48.41S13.92,16,13.77,16.17Z"/><path d="M168.22,11.47l-.88-.53.11-.19,1.22.71-.74,1.25-.2-.09.54-.93-1,.27-2.46.7c-.14,0-.25.08-.26-.16Z"/></svg>