<svg id="carracters" xmlns="http://www.w3.org/2000/svg" viewBox="0 0 198.43 35.43"><defs><style>.cls-1{fill:#fff;}.cls-2{fill:#6e6e6e;opacity:0.5;}</style></defs><path d="M175.91,10.35l-1.63.11-3,.22c-.56,0-1.13.06-1.69.11a1.43,1.43,0,0,0-.38.17l-.38.2-.22-1.93.71,0L173.18,9c1-.07,2.09-.15,3.13-.24a2,2,0,0,0,.45-.16c.06,0,.15-.06.2,0,.46.26.91.53,1.42.84a4.32,4.32,0,0,0-.47.3c-.08.06-.18.14-.19.23-.35,2.37-.83,4.71-1.41,7.07a25.27,25.27,0,0,1,6.27,1.66c.19-.85.39-1.69.55-2.53s.29-1.68.44-2.55l2.26.49a.55.55,0,0,1-.51.42.22.22,0,0,0-.2.2c-.31,1.48-.63,3-1,4.43l0,.11L188.06,21l-.76,1.6-3.65-1.76c-1,3-2.5,5.66-5.19,7.44l-1.35-1a11,11,0,0,0,3.14-3.1,16,16,0,0,0,1.88-4l-.68-.26A25.21,25.21,0,0,0,177,18.63c-.29-.06-.57-.07-.85-.13s-.27.05-.33.23c-.37,1.13-.72,2.27-1.13,3.39a8,8,0,0,1-1.39,2.4,3.81,3.81,0,0,1-2.91,1.35,4.37,4.37,0,0,1-1.72-.2,2.94,2.94,0,0,1-1.84-2.26A4.54,4.54,0,0,1,169,18.29a8.58,8.58,0,0,1,3.46-1.21c.67-.1,1.36-.13,2-.18.12,0,.17,0,.19-.17.31-1.5.63-3,.93-4.48C175.74,11.63,175.81,11,175.91,10.35Zm-1.63,8c-.56.05-1.07.08-1.58.15a7.08,7.08,0,0,0-2.85,1,3.13,3.13,0,0,0-1.5,3.47,1.57,1.57,0,0,0,1.31,1.39,3.62,3.62,0,0,0,1.18-.05A2.56,2.56,0,0,0,172.53,23,18.47,18.47,0,0,0,174.28,18.36Z"/><path class="cls-1" d="M24.3,10.35l-1.64.11-3,.22c-.56,0-1.13.06-1.69.11a1.43,1.43,0,0,0-.38.17l-.38.2L17,9.23l.72,0L21.56,9c1.05-.07,2.09-.15,3.13-.24a1.86,1.86,0,0,0,.45-.16c.07,0,.16-.06.2,0,.46.26.91.53,1.42.84-.18.11-.34.2-.47.3a.47.47,0,0,0-.19.23A70.15,70.15,0,0,1,24.69,17,25.27,25.27,0,0,1,31,18.64c.19-.85.39-1.69.55-2.53s.3-1.68.44-2.55l2.26.49a.55.55,0,0,1-.5.42.22.22,0,0,0-.21.2c-.31,1.48-.63,3-1,4.43l0,.11L36.45,21l-.77,1.6L32,20.86c-1,3-2.5,5.66-5.18,7.44l-1.36-1a11.2,11.2,0,0,0,3.15-3.1,16.32,16.32,0,0,0,1.87-4l-.67-.26a25.57,25.57,0,0,0-4.43-1.31c-.28-.06-.57-.07-.85-.13s-.27.05-.33.23c-.37,1.13-.72,2.27-1.13,3.39a8,8,0,0,1-1.39,2.4,3.81,3.81,0,0,1-2.91,1.35,4.37,4.37,0,0,1-1.72-.2,3,3,0,0,1-1.84-2.26,4.54,4.54,0,0,1,2.14-5.12,8.58,8.58,0,0,1,3.46-1.21c.67-.1,1.36-.13,2-.18a.19.19,0,0,0,.2-.17c.3-1.5.62-3,.92-4.48C24.12,11.63,24.19,11,24.3,10.35Zm-1.63,8c-.57.05-1.08.08-1.58.15a7.08,7.08,0,0,0-2.86,1A3.15,3.15,0,0,0,16.73,23,1.58,1.58,0,0,0,18,24.36a3.62,3.62,0,0,0,1.18-.05A2.6,2.6,0,0,0,20.92,23,19.28,19.28,0,0,0,22.67,18.36Z"/><path class="cls-2" d="M140.52,10.35l-1.63.11-3,.22c-.56,0-1.13.06-1.69.11a1.43,1.43,0,0,0-.38.17l-.38.2-.22-1.93.71,0L137.79,9c1.05-.07,2.09-.15,3.13-.24a1.86,1.86,0,0,0,.45-.16c.06,0,.15-.06.2,0,.46.26.91.53,1.42.84-.18.11-.34.2-.47.3a.47.47,0,0,0-.19.23A70.15,70.15,0,0,1,140.92,17a25.27,25.27,0,0,1,6.27,1.66c.19-.85.39-1.69.55-2.53s.29-1.68.44-2.55l2.26.49a.55.55,0,0,1-.51.42.22.22,0,0,0-.2.2c-.31,1.48-.63,3-.95,4.43l0,.11L152.67,21l-.76,1.6-3.65-1.76c-1,3-2.5,5.66-5.19,7.44l-1.35-1a11.2,11.2,0,0,0,3.15-3.1,16.32,16.32,0,0,0,1.87-4l-.68-.26a25.21,25.21,0,0,0-4.42-1.31c-.28-.06-.57-.07-.85-.13s-.27.05-.33.23c-.37,1.13-.72,2.27-1.13,3.39a8,8,0,0,1-1.39,2.4A3.81,3.81,0,0,1,135,25.87a4.37,4.37,0,0,1-1.72-.2,3,3,0,0,1-1.84-2.26,4.54,4.54,0,0,1,2.14-5.12,8.58,8.58,0,0,1,3.46-1.21c.67-.1,1.36-.13,2-.18a.19.19,0,0,0,.2-.17c.3-1.5.62-3,.92-4.48C140.35,11.63,140.42,11,140.52,10.35Zm-1.62,8c-.57.05-1.08.08-1.58.15a7.08,7.08,0,0,0-2.86,1A3.15,3.15,0,0,0,133,23a1.57,1.57,0,0,0,1.31,1.39,3.62,3.62,0,0,0,1.18-.05A2.56,2.56,0,0,0,137.14,23,18.89,18.89,0,0,0,138.9,18.36Z"/><path d="M139.25,16.89a50,50,0,0,0,1.26-6.54h-.23l-3.55.27-2.34.15c-.23,0-.45,0-.61.21s-.2.1-.33.17l-.22-1.9a1,1,0,0,1,.21,0c1.3-.07,2.61-.13,3.91-.21s2.43-.18,3.64-.28a.55.55,0,0,0,.3-.11c.16-.14.28-.1.44,0,.4.25.81.49,1.27.76-.18.11-.31.22-.46.29a.27.27,0,0,0-.2.24q-.47,3.12-1.2,6.2c-.06.27-.13.54-.19.82v0c.63.11,1.26.2,1.88.33a36,36,0,0,1,4.82,1.53A47.83,47.83,0,0,1,152.52,21l.15.08-.75,1.58c-.73-.36-1.45-.72-2.17-1.06a36.72,36.72,0,0,0-6.8-2.65c-.78-.19-1.58-.33-2.38-.49-.17.59-.33,1.13-.5,1.66a15.65,15.65,0,0,1-1.56,3.67,4.15,4.15,0,0,1-2.13,1.87,4.89,4.89,0,0,1-2.68.15,2.75,2.75,0,0,1-2.13-2,4.5,4.5,0,0,1,1-4.62,6.45,6.45,0,0,1,2.6-1.58,12.82,12.82,0,0,1,3.84-.64A1.62,1.62,0,0,1,139.25,16.89Zm-.34,1.46c-.48,0-.89.07-1.31.12a7.59,7.59,0,0,0-2.89.88,3.19,3.19,0,0,0-1.77,3.49,1.66,1.66,0,0,0,1.4,1.53,2.53,2.53,0,0,0,2.36-.82,5.52,5.52,0,0,0,.56-.78,12.72,12.72,0,0,0,1.09-2.58C138.54,19.6,138.71,19,138.91,18.35Z"/><path d="M133.65,17.17l-.45-.38c.06-.14.12-.2.25-.08s.33.3.51.45.11.18,0,.29-.33.43-.51.67l-.17-.11.42-.58-.2.07a6,6,0,0,0-3.32,4.68,3.53,3.53,0,0,0,.86,3.05,4.1,4.1,0,0,0,2.36,1.2,5.46,5.46,0,0,0,2.24-.06c.14,0,.2,0,.19.18-.27.05-.55.11-.83.14A4.89,4.89,0,0,1,131,25.43a3.36,3.36,0,0,1-1-2.5,6.09,6.09,0,0,1,3.42-5.59l.22-.12Z"/><path d="M129.94,7.87c-.06-.23.07-.21.2-.21l3.56.17h.4l-.65-.61.18-.23c.29.29.59.57.86.86,0,0,0,.19,0,.25-.26.28-.53.55-.81.83l-.17-.15.68-.65,0-.07Z"/><path d="M186.09,16.28c.27-1,.54-2,.81-3,.09-.33.18-.67.28-1,0-.07.11-.11.16-.15l.07.06-1.12,4.1.83-.52c.14.11.12.18,0,.26l-.83.53c-.12.07-.2.08-.29-.06-.2-.33-.41-.65-.62-1l.17-.11Z"/></svg>