<svg id="illustration" xmlns="http://www.w3.org/2000/svg" viewBox="0 0 198.43 147.14"><defs><style>.cls-1{fill:#828487;}.cls-2{fill:#b19748;}.cls-3{fill:#231f20;}.cls-4{fill:#fff;}.cls-5{fill:#8593ca;}.cls-6{fill:#484f70;}.cls-7{fill:#00678e;}.cls-8{fill:#010101;}</style></defs><path class="cls-1" d="M98.77,57.18a5.43,5.43,0,0,0-2.62,1.45c-.64,1-2.8,5-3.9,5.74S86,66.14,84.44,67.7s-5,4.82-5.27,5.85S97.22,95,97.22,95l25.71-5.9-1.51-13.38S120,72.15,118.49,71s-4.27-2.78-5.65-4.4-4.9-7.15-6.85-8.43a5.15,5.15,0,0,0-4.14-.54l-3.08-.48"/><path class="cls-2" d="M88.55,69.87c-2.22.34-5.37,3.2-3.15,5.45,1.81,1.85,6.15.06,6.49-2.36a2.47,2.47,0,0,0-1.63-2.59,4.9,4.9,0,0,0-4.11.62c-1.05.56-2.11,1.42-2,2.73A2.72,2.72,0,0,0,86.83,76a5.3,5.3,0,0,0,3.84-1.68,2.15,2.15,0,0,0-.09-3.09c-1.93-1.53-5.15,1.18-3.46,3.23s4.59-1.19,2.33-2.73-4.57,2.22-2,3.15a1.59,1.59,0,0,0,2-1.87,1.82,1.82,0,0,0-2.76-1,1.79,1.79,0,0,0,.15,2.88,1.57,1.57,0,0,0,2.31-1.36c0-.41-.62-.59-.78-.22-.66.72-.75.54-.28-.54h.12a1.24,1.24,0,0,1,1-.54l.52.87c0,.63-1.82,1.26-2.28,1.33s-1.58,0-1.71-.82.49-1,.9-1.23a4.69,4.69,0,0,1,2.56-.87c1.53.11,1.63,1.61.44,2.38a4.26,4.26,0,0,1-2.46.72c-1.29-.19-1.22-1.49-.57-2.29A9.72,9.72,0,0,1,89,70.82a.52.52,0,0,0-.4-.95Z"/><path class="cls-2" d="M90.77,71.09a.05.05,0,0,0,0-.1.05.05,0,1,0,0,.1Z"/><path class="cls-2" d="M91.79,71.26a.05.05,0,0,0,0-.1.05.05,0,0,0,0,.1Z"/><path class="cls-2" d="M91.75,71.6a2,2,0,0,1,.18.9,1.77,1.77,0,0,1-.41.82.49.49,0,0,0,.67.67A1.56,1.56,0,0,0,92,71.32a.23.23,0,0,0-.28.28Z"/><path class="cls-2" d="M107.62,69.15c-2.16,3.07,1.44,8.58,5,5.94a3,3,0,0,0,.43-4.16c-1.22-1.7-3.38-1.83-5.29-1.54-1,.15-.59,1.71.43,1.53a4,4,0,0,1,3.37.56c.94.86.9,2.38-.5,2.67a2.33,2.33,0,0,1-2.47-1.59A15.18,15.18,0,0,1,108,69.2c0-.21-.32-.2-.42,0Z"/><path class="cls-2" d="M108.23,70.87a2.74,2.74,0,0,0,.81,3,1.88,1.88,0,0,0,2.76-.34,1.6,1.6,0,0,0-.78-2.44,2.76,2.76,0,0,0-.75-.14,1.63,1.63,0,0,1-.7-.07c-.19-.1-.21-.34-.36-.49a.78.78,0,0,0-1.29.34,1.48,1.48,0,0,0,1,1.62,2.51,2.51,0,0,0,.95.18c.1,0,.7,0,.72.06.11.35-.65.14-.78,0-.6-.44-.79-1.21-1.2-1.79a.2.2,0,0,0-.36.05Z"/><path class="cls-2" d="M79.93,74.5c1.4-.12,2.06-1.91,3-2.82a29.62,29.62,0,0,1,6.1-4.1c3.85-2.21,7-4.79,9.07-8.79.51-1-1-1.85-1.48-.87-2.59,5-6.87,7-11.38,9.84-1.56,1-6.92,4.44-5.34,6.72l0,0Z"/><path class="cls-2" d="M103.15,58.38l-.12.41a1,1,0,0,0,.24.92c5.74,5.46,12.27,9.91,17.48,15.92.51.59,1.4-.29.86-.86a207.16,207.16,0,0,0-17-16.39.93.93,0,0,0-.91-.24c-.11,0-.5.09-.54.24Z"/><path class="cls-2" d="M91.57,69.1c1.13,1,2.4,1.93,2.51,3.56a3.72,3.72,0,0,1-.6,2.33c-.34.51-.64.67-.6,1.31a.41.41,0,0,0,.29.38c1.86.32,2.53-2.86,2.39-4.22-.21-1.9-1.72-4-3.79-3.83-.22,0-.39.3-.2.47Z"/><path class="cls-2" d="M82.46,73.15a1.62,1.62,0,0,0-.15,1.54,2.89,2.89,0,0,0,1,1.51.39.39,0,0,0,.43,0c.6-.31-.15-.83-.38-1.07a2.39,2.39,0,0,1-.5-.91c-.1-.33-.07-.7-.2-1a.12.12,0,0,0-.2,0Z"/><path class="cls-2" d="M115.72,73.76a1.49,1.49,0,0,1-.45,1.07c-.27.26-.7.25-.93.54a.35.35,0,0,0,0,.5c.5.41,1.25,0,1.64-.43a2,2,0,0,0,.54-1.79c-.1-.46-.79-.34-.8.11Z"/><path class="cls-2" d="M106,66.92c-1.36.21-2.19,1.89-2.3,3.14s.34,3.4,1.72,3.64a.48.48,0,0,0,.58-.58c-.08-.47-.29-.62-.56-1a3.18,3.18,0,0,1-.56-1.86c0-1.27.82-2,1.37-3a.22.22,0,0,0-.25-.31Z"/><path class="cls-3" d="M109.86,71.44c-.13,0-.26,0-.39,0a.68.68,0,0,0-.36.31,1.24,1.24,0,0,0-.12,1,1.3,1.3,0,0,0,1.76.78,1.26,1.26,0,0,0,.35-1.89,1.3,1.3,0,0,0-2,.14c-.39.54.44,1.1.9.69s.5.35.07.2c-.26-.08-.26-.29-.2-.51a2.94,2.94,0,0,1,.13-.44.15.15,0,0,0-.11-.27Z"/><path class="cls-3" d="M87.66,72.44a.91.91,0,0,0-.6.93.89.89,0,0,0,.89.84,1.09,1.09,0,0,0,.51-2,1.06,1.06,0,0,0-1.35,1.57c.8,1.09,2.56-.35,1.61-1.17a.46.46,0,0,0-.47-.13.59.59,0,0,0-.35.34s-.1.19-.1.2c.21.2.32.24.35.11a.08.08,0,0,1,0,0c.09,0,.07-.21-.09,0s.17.15-.07.23a.16.16,0,0,1-.22-.09c0-.1.07-.2.16-.27s0-.54-.28-.47Z"/><path class="cls-3" d="M110.39,72.6h0a.38.38,0,1,0-.26-.26h0a.22.22,0,0,0,.26.26Z"/><path class="cls-3" d="M110.33,73.29a.9.9,0,0,0,0-1.79.9.9,0,0,0,0,1.79Z"/><path class="cls-4" d="M80.57,74.92c0-2.1,2.64-3.17,4.17-4.17,1.29-.83,2.63-1.62,3.84-2.57.22-.17-.06-.48-.28-.36a69.45,69.45,0,0,0-6.42,3.94c-1.17.76-2.23,1.73-1.89,3.24a.3.3,0,0,0,.58-.08Z"/><path class="cls-4" d="M103.18,58.37a50.5,50.5,0,0,1,5.93,4.89c1.85,1.87,3.63,3.81,5.49,5.67.12.12.27-.05.18-.18-2.93-3.75-6.51-9.53-11.42-10.8a.23.23,0,0,0-.18.42Z"/><path class="cls-4" d="M110,68.57c1.51.61,2.87.85,3.78,2.38s.53,3,0,4.43c-.06.18.21.34.33.19a4.53,4.53,0,0,0,.23-5c-.78-1.38-2.72-2.76-4.36-2.2a.09.09,0,0,0,0,.16Z"/><path class="cls-4" d="M85.66,70.37c-1.83.5-2.5,3.08-2,4.71s2.46,3.38,4.31,3a.23.23,0,0,0,0-.44c-1.75-.47-3.37-1.07-3.77-3.1-.33-1.73.65-2.79,1.59-4.08,0,0,0-.12-.09-.11Z"/><path class="cls-4" d="M81.44,112.86a2.83,2.83,0,0,1-.46-2.63c.08-.28-.36-.48-.48-.2a3.08,3.08,0,0,0,.57,3.2c.22.26.58-.11.37-.37Z"/><path class="cls-5" d="M60.94,55.41s0,.11,0,.31c0,3.15.4,29.92,5.9,44.18,6.09,15.81,18.88,21.34,18.74,27.14.66,5-1.7,5.32-.61,8.92a12.86,12.86,0,0,0,6.79,8.38C88.79,138.06,88,130.15,90,130s10.65,1,10.65,1l9.47-1.43s1.25-.76,2,.17a6.82,6.82,0,0,1,.92,2.77s-1.1,10.64-2.66,11.6a10.06,10.06,0,0,0,6.79-8.38s-1.22-6.37-.36-10.34,9.37-9.53,14-16.11c0,0,8.15-16.44,9.56-33s-.12-20.51-.12-20.51-13.49,18.12-22.82,22.5c-4.1,3-7,1.09-7,1.09a3.44,3.44,0,0,1-3,2.27,4.17,4.17,0,0,1-4.22-3c-.19-.75-1.25-2.88-1-24,.13-14.86-.08-31.39-.08-31.39l.34-2.48,2.8-.71L100,4.31a54.79,54.79,0,0,1-3.06,9.05c-1.34,3.24-2.6,6.22-2.6,6.22a.64.64,0,0,0,.38.88c.66.31,2.72-.44,3.13.15a17.68,17.68,0,0,1,.82,3.68l.16,49.34s-.15,5.93-2.68,7.1-4.42.21-4.89-1.18L91,78.84a5,5,0,0,1-3.44.57c-2-.36-6.28-2.68-10.89-6.67S62.07,58.8,60.94,55.41Z"/><path class="cls-2" d="M77.16,108.9a.1.1,0,0,0,0-.2.1.1,0,0,0,0,.2Z"/><path class="cls-2" d="M112.18,115.38c.6-2.53,1-4.94,3.39-6.5s4.66-1,7.29-.61c.28,0,.62-.33.32-.56-4.65-3.6-13.08,2-11.43,7.67a.23.23,0,0,0,.43,0Z"/><path class="cls-2" d="M90.45,114.66C90,108.1,81.63,104.57,76.66,109c-.26.23.07.64.37.47,5.48-3.09,11.1-.78,12.74,5.32.1.36.71.3.68-.1Z"/><path class="cls-2" d="M131.38,89.44c-.43-.11-.82.34-1,.72a1.31,1.31,0,0,0,.31,1.38,1.39,1.39,0,0,0,2.36-1A1.29,1.29,0,0,0,131,89.49a1.13,1.13,0,1,0,.64-.29.45.45,0,0,0,0,.9c.18,0,.44.21.29.4a.28.28,0,0,1-.46-.07c-.17-.52.75-.56.85,0a.67.67,0,0,1-1.13.57c-.49-.53.06-.93.29-1.38a.13.13,0,0,0-.08-.19Z"/><path class="cls-2" d="M129,84.17a1,1,0,0,0,.81,1.81c1.06-.2.69-1.81-.32-1.67-.86.12-1,1.72,0,1.7a.85.85,0,0,0,.74-1,.86.86,0,0,0-1.06-.7c-.4.06-.31.78.1.73.2-.06.24,0,.12.17l.3,0s-.1-.22,0-.22c.23,0,.1.21,0,.22-.47.06-.4-.73-.36-1a.14.14,0,0,0-.23-.14Z"/><path class="cls-2" d="M132.8,80a1,1,0,0,0-.43,1.93.38.38,0,0,0,.45-.06,1,1,0,0,0,.25-1.36.79.79,0,0,0-1.24-.11.72.72,0,0,0,.22,1.12.68.68,0,0,0,.88-.64.34.34,0,0,0-.34-.34.33.33,0,0,0-.25.1.38.38,0,0,0-.09.15c.21.1.28.21.2.36a.33.33,0,0,1-.15.2l.44,0a.52.52,0,0,1,.11-1c.16-.07.16-.35,0-.34Z"/><path class="cls-2" d="M136.07,72.15a1,1,0,0,0-.33,1.28.75.75,0,0,0,1.1.25c.92-.68-.49-1.73-.9-.83-.07.18,0,.44.2.48a.5.5,0,0,0,.6-.65.32.32,0,0,0-.22-.22h-.08c-.17,0-.41.12-.33.33l.2-.08.2.48s-.27-.12-.31-.24a.87.87,0,0,1,.09-.61.15.15,0,0,0-.22-.18Z"/><path class="cls-2" d="M124.5,78.75c-.33,1,1.44,1.56,1.6.52a.81.81,0,0,0-.86-.92.85.85,0,0,0-.7,1.06.35.35,0,0,0,.25.25.76.76,0,0,0,.93-.73c0-.42-.59-.4-.64,0l-.1,0,.25.25c.19-.07.23-.08.13,0a.14.14,0,0,1-.17,0,.38.38,0,0,1-.21-.34.24.24,0,0,0-.48-.06Z"/><path class="cls-2" d="M129.58,74.72a.63.63,0,0,0-1,.27.68.68,0,0,0,.8.83.72.72,0,0,0,.4-1.07.54.54,0,0,0-.95.21.32.32,0,0,0,.14.36l0,0a.25.25,0,0,0,.24,0c.05,0,.12-.06.13-.11s0-.07-.11,0-.18-.07.09-.17a.17.17,0,0,0,.18-.29Z"/><path class="cls-2" d="M137.25,66.6a.51.51,0,0,0-.92.07.69.69,0,0,0,.71,1,.33.33,0,0,0,.31-.32c.13-1.07-1.53-1.22-1.45-.1a.22.22,0,0,0,.44.06l.39,0L137,67c-.24,0,0-.23.11-.23s.15-.09.1-.16Z"/><path class="cls-2" d="M129.41,78.78a.49.49,0,0,0-.29.66.27.27,0,0,0,.26.2.59.59,0,0,0,.48-.94.55.55,0,0,0-.93.46c0,.23.4.34.45.06.05-.06,0-.1-.07-.12l.31.13a.44.44,0,0,1,0-.3.16.16,0,0,0-.2-.15Z"/><path class="cls-2" d="M117.43,82.48l-.36.34.39.1c-.12-.64.7-.28.39,0a.51.51,0,0,1-.45,0c-.15-.12-.43,0-.35.21a.79.79,0,1,0,1.44-.63.79.79,0,1,0-1.45.65c.07.18.31.13.39,0l.28-.4c.12-.17-.13-.34-.28-.21Z"/><path class="cls-2" d="M118.45,87.59a.63.63,0,0,0-.13,1.14.27.27,0,0,0,.37-.1.57.57,0,0,0-.56-.83.38.38,0,0,0-.35.35,1.57,1.57,0,0,0,.11.68c.07.17.33.25.42.06a1.59,1.59,0,0,0,.18-.74l-.18.3-.12,0,.4-.16c-.13-.1-.14-.23,0-.37s.06-.36-.13-.3Z"/><path class="cls-2" d="M121,93.07a.66.66,0,0,0,.59,1.18c.83-.33.43-1.61-.42-1.18-.38.19,0,.74.34.57-.2.16-.31,0-.32-.32.13-.13,0-.36-.19-.25Z"/><path class="cls-2" d="M122.76,88.16a.69.69,0,0,0,0,1.22.74.74,0,0,0,.89-1,.36.36,0,0,0-.66.18c0,.07,0,.14,0,.21s-.12-.11,0-.21-.07-.52-.31-.39Z"/><path class="cls-2" d="M122.84,84a.63.63,0,0,0-.11,1.25.75.75,0,0,0,.84-.36.87.87,0,0,0-.27-1l-.42.72a1.35,1.35,0,0,0,.66,0,.26.26,0,0,0,.16-.39,1.29,1.29,0,0,0-.48-.45c-.59-.35-1,.75-.22.8l-.07-.29a.17.17,0,0,0-.09-.32Z"/><path class="cls-2" d="M134.2,85.41c-.14,1,1.23,1,1.48.13a.36.36,0,0,0-.36-.46c-.33,0-.59,0-.83.24a.29.29,0,0,0,.06.46c.3.18.54.07.87,0l-.45-.45c-.21.15-.36.14-.45,0a.19.19,0,0,0-.32.08Z"/><path class="cls-2" d="M126.31,91.61a1.06,1.06,0,0,1-.33.26.27.27,0,0,0-.1.37c.51.9,1.78-.1,1-.86a.32.32,0,0,0-.37,0l-.31.2c-.34.21,0,.76.32.54l.3-.21-.37,0-.16.09.07.26a.84.84,0,0,1,.14-.4.13.13,0,0,0-.21-.16Z"/><path class="cls-2" d="M126.82,87.44c-.43-.15-.75.42-.67.79a.75.75,0,0,0,1.07.43.74.74,0,0,0,.11-1.15.7.7,0,0,0-1.13.43c-.1.48.63.68.73.2-.2-.08-.23-.2-.11-.38a.35.35,0,0,0,.08-.13.14.14,0,0,0-.08-.19Z"/><path class="cls-2" d="M134.64,94.66a.65.65,0,0,0-.81.49.39.39,0,0,0,.28.49,1,1,0,0,0,1.23-1,.4.4,0,0,0-.41-.4.8.8,0,0,0-.74.37.28.28,0,0,0,.1.39.74.74,0,0,0,.75,0l-.51-.39c0,.21-.15.25-.32.23l.39.3.09-.07a.23.23,0,0,0-.05-.42Z"/><path class="cls-2" d="M123.34,98.3a.81.81,0,0,0,.56,1.08c.55.09.7-.63.65-1a.35.35,0,0,0-.34-.25.77.77,0,0,0-.66.28.24.24,0,0,0,0,.37.75.75,0,0,0,.7,0l-.42-.25c.19.45-.26-.13-.3-.24a.13.13,0,0,0-.24,0Z"/><path class="cls-2" d="M114.68,100.46a.79.79,0,1,0,.22,1.55c1.21-.29.17-2-.64-1.21a.38.38,0,0,0-.06.46.39.39,0,0,0,.33.19c.2,0,.12,0,.12-.24a.47.47,0,0,1,.18-.4.21.21,0,0,0-.15-.35Z"/><path class="cls-2" d="M110.39,95.53a.74.74,0,0,0-.21,1,.31.31,0,0,0,.34.14.51.51,0,0,0-.18-1c-.52,0-.4.84.1.7l-.15-.27.36.05a.55.55,0,0,1-.05-.48.15.15,0,0,0-.21-.17Z"/><path class="cls-2" d="M108.14,89.26a.64.64,0,0,0,.51,1.06A.3.3,0,0,0,109,90a4.1,4.1,0,0,1,.11-.61A.41.41,0,0,0,109,89a.72.72,0,0,0-1,0,.49.49,0,0,0-.13.49v.06a.44.44,0,0,0,.54.31,2.68,2.68,0,0,0,.29-.14l-.41-.31a3.14,3.14,0,0,1,.12.61l.22-.28a.22.22,0,0,1-.16-.32.17.17,0,0,0-.28-.17Z"/><path class="cls-2" d="M111.15,87.3l-.3.35a.33.33,0,0,0,.06.51c.5.24,1.2-.22,1-.8s-.9-.27-.74.21c0,.12,0,.13.08,0l.15.37.15-.36c.11-.23-.19-.54-.39-.3Z"/><path class="cls-2" d="M62.91,66.43c-.52,1,1.17,1.56,1.32.45s-1.91-.58-1.12.23a.25.25,0,0,0,.42-.11s0-.07.07-.08a.29.29,0,0,1-.17-.35c0-.28-.4-.37-.52-.14Z"/><path class="cls-2" d="M64.12,69.93a.73.73,0,0,0-.48,1,.69.69,0,0,0,1.22,0,.76.76,0,0,0-.5-1.22c-.51-.08-1.16.39-.85.93a.22.22,0,0,0,.33,0c.12-.12.34-.38.49-.21s0,.3-.21.25-.08-.48.07-.54a.13.13,0,0,0-.07-.26Z"/><path class="cls-2" d="M63.93,73a.77.77,0,0,0,.17,1.16.69.69,0,0,0,1-.55.66.66,0,0,0-.87-.74A.61.61,0,0,0,64,73.93a.23.23,0,0,0,.33-.14c0-.07.11-.2.11-.23s0-.06,0-.06-.09,0-.05-.08c.23-.3-.17-.72-.42-.42Z"/><path class="cls-2" d="M71,72.41c.13-.27.41-.07.29.06s-.34-.2-.38-.27a.26.26,0,0,0-.43,0c-.49,1,1.2,1.48,1.5.44a.83.83,0,0,0-1.55-.56c-.18.38.39.72.57.33Z"/><path class="cls-2" d="M70.06,75.88a.6.6,0,0,0-.11,1,.66.66,0,0,0,1-.42.34.34,0,0,0-.15-.37c-.38-.19-.8-.18-1,.23a.23.23,0,0,0,.25.33.94.94,0,0,1,.41,0l-.15-.37c-.11.06-.12,0,0-.06s0-.46-.25-.33Z"/><path class="cls-2" d="M66.79,74.28a.64.64,0,0,0,.46,1c.56,0,.78-.6.59-1a.37.37,0,0,0-.4-.16,1.48,1.48,0,0,0-.69.39.26.26,0,0,0,.18.44,1.53,1.53,0,0,0,.78-.19l-.48-.13v-.07a.26.26,0,0,0-.45-.26Z"/><path class="cls-2" d="M63.89,78.68a1,1,0,0,0,1,.66.72.72,0,0,0,.56-.89c-.32-.89-1.62,0-.92.46a.23.23,0,0,0,.3-.08c.08-.15.17,0-.06-.07h-.14a.7.7,0,0,1-.36-.34.24.24,0,0,0-.42.25Z"/><path class="cls-2" d="M74.07,76.68a.64.64,0,0,0,.94.85c.65-.53-.09-1.52-.73-1a.35.35,0,0,0-.09.35.29.29,0,0,0,.2.23.58.58,0,0,0,.14,0c.44,0-.2-.17-.14-.36s-.21-.29-.32-.14Z"/><path class="cls-2" d="M68.6,82.25a.57.57,0,0,0,.74.54.56.56,0,1,0-.76-.74.5.5,0,0,0,.49.74.2.2,0,0,0,.14-.25,1,1,0,0,0-.06-.18.12.12,0,0,1,0-.1c0-.1,0-.1-.19,0,0-.22-.37-.23-.36,0Z"/><path class="cls-2" d="M74.2,82.27l-.46.2a.36.36,0,0,0-.24.43A.79.79,0,0,0,75,82.46c-.2-1-1.74-.72-1.43.23a.22.22,0,0,0,.4.06.28.28,0,0,1,.19-.19c.06,0,.11,0,.15,0s-.15,0-.24,0v.49l.44-.38c.24-.2-.07-.52-.32-.4Z"/><path class="cls-2" d="M68.07,86.33a1.33,1.33,0,0,0,.36,1.76,1.11,1.11,0,0,0,1.65-.64,1.16,1.16,0,0,0-1-1.4c-.69-.06-1.57.74-1.11,1.43.12.19.48.26.59,0s.11-.48.31-.57.46.15.38.38-.51.26-.71.1a.75.75,0,0,1-.15-.91c.08-.21-.26-.35-.36-.15Z"/><path class="cls-2" d="M73,87.12c-.59-.22-1,.58-.69,1A1,1,0,0,0,74,87.81a1.16,1.16,0,0,0-.84-1.51c-.65-.1-1.64.65-1.16,1.34a.27.27,0,0,0,.45,0c.13-.24.46-1,.81-.51a.48.48,0,0,1,0,.48c-.24.31-.54-.14-.25-.14a.18.18,0,0,0,0-.35Z"/><path class="cls-2" d="M75.9,86.73v.36a.4.4,0,0,0,.28.37A.87.87,0,0,0,77,86.09a.83.83,0,0,0-1.41.72c.07.38.57.28.68,0s.22-.07,0-.1l.38.38,0-.36c0-.47-.75-.49-.74,0Z"/><path class="cls-2" d="M78.72,84.74a1.28,1.28,0,0,0,1.27.9,1.11,1.11,0,0,0,1-1.16,1,1,0,0,0-2.07.15.46.46,0,0,0,.33.43l0,0a.33.33,0,0,0,.33-.08c.11-.11.2-.51.3-.51s.07.21-.06.24-.35-.17-.42-.3c-.21-.39-.91-.12-.73.31Z"/><path class="cls-2" d="M79.13,79.85a2.76,2.76,0,0,1-.28.39.31.31,0,0,0,.13.52.76.76,0,0,0,.87-1.14.75.75,0,0,0-1.3.56.33.33,0,0,0,.55.14c0-.06.1-.11.14-.17s.13.08-.09,0l.22.38a3.1,3.1,0,0,1,.15-.52c.09-.24-.26-.36-.39-.17Z"/><path class="cls-2" d="M71.36,79.93a4.56,4.56,0,0,1-.18.6.24.24,0,0,0,.17.29A1.06,1.06,0,0,0,72.68,80a.34.34,0,0,0-.15-.35c-.52-.27-1.39-.34-1.7.28a.24.24,0,0,0,.27.35c.44-.06.74-.24,1.2-.06l-.22-.38a.55.55,0,0,1-.67.47l.24.24A4.46,4.46,0,0,1,71.6,80c0-.13-.21-.17-.24,0Z"/><path class="cls-2" d="M64.48,82.76A1.12,1.12,0,0,0,65.16,84a.88.88,0,0,0,1.17-.63.76.76,0,0,0-.74-.92.61.61,0,0,0-.55.88c.07.17.33.11.37,0s.17-.23.28-.16.11.1,0,.2-.16.25-.36.17a.89.89,0,0,1-.54-.78c0-.18-.27-.12-.28,0Z"/><path class="cls-2" d="M68,93.17c.2-.08.71.07.5.37s-.47-.24-.6-.39a.29.29,0,0,0-.42,0,.84.84,0,0,0,.47,1.28,1.05,1.05,0,0,0,1.36-.55c.49-1.07-1-2-1.64-1-.14.22.13.4.33.32Z"/><path class="cls-2" d="M73.23,92.14a1,1,0,0,0,1,1.84,1,1,0,0,0,.52-1.43.74.74,0,0,0-1.29,0,.4.4,0,0,0,.13.53.35.35,0,0,0,.28,0c.11,0,.37-.26.18,0-.35.49-1-.25-.56-.73a.2.2,0,0,0-.24-.3Z"/><path class="cls-2" d="M79.63,93.11c.05.5,0,1,.58,1.19a.84.84,0,0,0,1-.49c.39-1.06-1.52-1.52-1.44-.58a.31.31,0,0,0,.22.28,1.11,1.11,0,0,0,.44,0c-.14.15-.41-.48-.43-.53a.21.21,0,0,0-.39.11Z"/><path class="cls-2" d="M83.82,92.52c.51,0-.1.6,0,.15s-.62-.68-.74-.2a.9.9,0,0,0,1.36,1A.84.84,0,0,0,83.82,92a.28.28,0,0,0,0,.55Z"/><path class="cls-2" d="M86,88.87l.06.2-.1-.72a2.34,2.34,0,0,0-.49.33.31.31,0,0,0,.22.53,2.45,2.45,0,0,0,.58-.14c.33-.13.41-.66,0-.76-.66-.15-1.24.79-.59,1.18s1.13-.47.73-.93c-.21-.25-.52.06-.41.31Z"/><path class="cls-2" d="M85.76,99.69A.74.74,0,0,0,87,99.2c0-.71-.83-.87-1.32-.57a.51.51,0,0,0-.23.57v.06a.45.45,0,0,0,.66.27.41.41,0,0,0,.21-.16c0-.12.05.06-.22-.12a.28.28,0,0,0-.34.44Z"/><path class="cls-2" d="M81.28,99.93c-.27.3-.54.58-.83.86a.33.33,0,0,0,.06.51,1.87,1.87,0,0,0,1.75,0A1.2,1.2,0,0,0,82.8,100a1,1,0,0,0-1-.67.64.64,0,0,0-.65.85c0,.14.22.16.35.14s.51-.26.49.08c0,.56-1,.36-1.27.3l.19.47c.2-.35.41-.68.63-1,.12-.18-.15-.39-.3-.23Z"/><path class="cls-2" d="M76.87,99.4c.84.51,1.42-.71.6-1.2a.44.44,0,0,0-.64.26l0,.14a.42.42,0,0,0,.76.32l.08-.12-.38.22,0-.23a.35.35,0,0,0-.35.61Z"/><path class="cls-2" d="M114.5,92.17c.24-.22.29.1.29.1s-.17-.17-.26-.26c-.28-.32-.75,0-.78.32-.07,1.13,1.63,1.11,1.83.08a.84.84,0,0,0-1.54-.6c-.2.29.22.57.46.36Z"/><path class="cls-2" d="M111.52,91.34c-.6.1-.48,1,.08,1.13a.81.81,0,0,0,.81-.52,1.5,1.5,0,0,0-.28-1.33c-.33-.53-1.1.13-.65.5.2.17.56.45.15.61a.2.2,0,0,0-.11-.39Z"/><path class="cls-2" d="M113.7,84.5a.7.7,0,0,1,.32.06c0,.26,0,.32-.08.19s-.08-.28-.1-.37a.28.28,0,0,0-.42-.17c-1,.49.32,2,1.16,1.1s-.47-1.87-1-1.08c-.08.11,0,.26.16.27Z"/><path class="cls-2" d="M108.3,85a.41.41,0,0,1,.49-.38c.14,0,.35.21.19.41s-.47.1-.61,0a.29.29,0,0,0-.32.42c.63,1,2,.07,1.56-.93a.88.88,0,0,0-1.69.48c0,.23.36.15.38,0Z"/><path class="cls-2" d="M125.48,82.26q.36,0,.21.15c0,.09,0,.08,0,0a2.6,2.6,0,0,1,.1-.25c.08-.2-.11-.37-.29-.39-1-.09-.76,1.88.41,1.5a.74.74,0,1,0-.52-1.37.21.21,0,0,0,.11.39Z"/><path class="cls-2" d="M119,85.84c0,.35,0,.77.54.62a.62.62,0,0,0,.41-.72c-.22-.83-1.61-.07-1,.55a.25.25,0,0,0,.41-.11.26.26,0,0,1,.14-.2c-.15,0-.22,0-.2-.18a.15.15,0,0,0-.3,0Z"/><path class="cls-2" d="M118.09,96.59a1,1,0,0,0-.18,1.6.94.94,0,0,0,1.51-.48,1,1,0,0,0-1.1-1.11c-.63.17-.94,1.28-.17,1.48a.32.32,0,0,0,.41-.31.88.88,0,0,1,0-.28c0-.16.17,0,.05.13s-.3,0-.36-.11,0-.39.16-.5-.08-.6-.33-.42Z"/><path class="cls-2" d="M117.84,103.23c0,1,1.33,1.57,1.76.51a.83.83,0,0,0-1.45-.76.41.41,0,0,0,.07.5c.2.19.32.08.54,0,0,0,.33-.26.15,0s-.54-.22-.57-.39-.49-.21-.5.07Z"/><path class="cls-2" d="M111,105.85c-.7.86.9,1.65,1.11.55a.67.67,0,0,0-.67-.85.74.74,0,0,0-.57,1,.32.32,0,0,0,.27.16h.06a.25.25,0,0,0,.22-.17,2.57,2.57,0,0,0,.08-.38c.18.06.13.12-.14.16a.31.31,0,0,1-.1-.37c.05-.14-.16-.28-.26-.15Z"/><path class="cls-2" d="M106.66,110.78a.94.94,0,0,0,1.17,1.22,1,1,0,0,0,.19-1.7.36.36,0,0,0-.44,0,.94.94,0,0,0-.49.63.31.31,0,0,0,.38.38.94.94,0,0,0,.6-.52l-.49.13a.31.31,0,0,1,.09.51c-.29.26-.63-.16-.53-.47s-.37-.41-.48-.13Z"/><path class="cls-2" d="M90.56,106.5a.68.68,0,0,0-.11,1.13.9.9,0,0,0,1.37-.34,1.05,1.05,0,0,0-.69-1.33.92.92,0,0,0-1.22,1,.26.26,0,0,0,.39.22,2.66,2.66,0,0,1,.64-.3s0,.23-.09,0a.38.38,0,0,1-.06-.23c0-.11-.14-.18-.23-.13Z"/><path class="cls-2" d="M85.7,104.57a.71.71,0,0,0,.57,1.06.8.8,0,0,0,.78-1,.73.73,0,0,0-1.3-.16.7.7,0,0,0,.61,1,.29.29,0,0,0,.14-.53c-.16-.12-.38.1-.36-.25a.24.24,0,0,0-.44-.12Z"/><path class="cls-2" d="M94.85,115.4a1,1,0,0,0-.83,1.33.38.38,0,0,0,.36.27,1.08,1.08,0,0,0,1.08-.87,1.21,1.21,0,0,0-.69-1.25.45.45,0,0,0-.67.38,1.29,1.29,0,0,0,.16.58.3.3,0,0,0,.51,0,1.28,1.28,0,0,0,.21-.46l-.55.32c.44.08.16.5-.15.57l.43.17a.66.66,0,0,1,.25-.77.15.15,0,0,0-.11-.27Z"/><path class="cls-2" d="M106.85,116.34a.74.74,0,0,0-.83,1,.79.79,0,1,0,1-1,.72.72,0,0,0-.94.93.24.24,0,0,0,.48-.06c0-.2.07-.25.2-.17s.14.08-.07.14c-.15-.19,0-.33.19-.41a.23.23,0,0,0-.05-.41Z"/><path class="cls-2" d="M105.54,127.1a.73.73,0,0,0-.46,1,.35.35,0,0,0,.43.24c.35-.14,1.1-.26,1.14-.73a.56.56,0,0,0-.6-.59c-.87,0-.39,1.36.24.91h-.15l-.28-.29,0,.07.18-.45-.82.43.48.13a.41.41,0,0,1,0-.46.18.18,0,0,0-.2-.25Z"/><path class="cls-2" d="M108.61,127.68a1.87,1.87,0,0,0,1.4.38,1,1,0,0,0,.82-.85c.08-.73-1.1-1.32-1.44-.55-.17.37.27.79.59.46.09-.09.13-.1.1.07s-.25.28-.45.27a2.73,2.73,0,0,1-.84-.21c-.25-.08-.39.29-.18.43Z"/><path class="cls-2" d="M110.49,123.41a.77.77,0,0,0,.78,1c.65-.06.69-.68.68-1.19a.49.49,0,1,0-.49.49c-.25,0-.63.2-.59-.27,0-.23-.31-.24-.38,0Z"/><path class="cls-2" d="M110.15,118.91a1.09,1.09,0,0,0-.6,1.29l.43-.43c-.17-.07-.25.09-.3.18a.32.32,0,0,0,.11.43c.73.47,1.21-1.06.31-1.24s-1,1-.31,1.3c.32.12.51-.27.4-.51a.69.69,0,0,1,.11-.82.13.13,0,0,0-.15-.2Z"/><path class="cls-2" d="M115.12,119.52a.83.83,0,0,0,1.6.33.32.32,0,0,0,0-.33.9.9,0,0,0-.85-.4.54.54,0,0,0-.39.78.28.28,0,0,0,.26.15A1.1,1.1,0,0,0,116,120a.34.34,0,0,0,.15-.06c.08-.07.1-.07,0,0l-.08-.33c-.3.2-.47.15-.49-.14s-.51-.22-.51.07Z"/><path class="cls-2" d="M119.8,117.68a1.5,1.5,0,0,0,1.38.28.92.92,0,0,0,.59-.89c-.06-.72-1.31-1-1.44-.19-.06.37.38.72.68.4.1-.11.36-.12-.07,0a.92.92,0,0,1-.81-.19c-.36-.22-.68.33-.33.56Z"/><path class="cls-2" d="M123.57,114.12a.7.7,0,0,0,.84.53c.44-.12.53-.57.49-1a.5.5,0,0,0-.63-.48.8.8,0,0,0-.46.32.35.35,0,0,0,.06.41.71.71,0,0,0,.21.17c.29.16.06,0,0-.18a.25.25,0,0,0-.46.19Z"/><path class="cls-2" d="M91.06,118.62a.65.65,0,0,0-.63.88.73.73,0,0,0,1.19.13.7.7,0,0,0-.6-1.11.69.69,0,0,0-.5,1.17c.14.12.41.1.45-.11,0,0,0-.35.15-.16l0-.28c0,.23-.53-.14,0-.25.17,0,.12-.26,0-.27Z"/><path class="cls-2" d="M91.23,123.51a.71.71,0,0,0-.64,1.08.83.83,0,0,0,1.37-.11.93.93,0,0,0-.83-1.3c-.64,0-1.15.85-.68,1.35a.25.25,0,0,0,.42-.11c0-.15.12-.45.33-.39s.16.2,0,.24-.27-.35,0-.38a.19.19,0,0,0,0-.38Z"/><path class="cls-2" d="M89.05,128.06a1.22,1.22,0,0,0,.89,1.05.76.76,0,0,0,.9-.59c.22-1.12-1.57-1.06-1.29,0a.38.38,0,0,0,.72,0c.06-.12,0-.11-.12,0a.28.28,0,0,1-.42,0,1.24,1.24,0,0,1-.38-.55.16.16,0,0,0-.3.08Z"/><path class="cls-2" d="M93.37,128.08c0,.3-.07.58.2.78a.79.79,0,0,0,.81.07.91.91,0,0,0,.27-1.44.48.48,0,0,0-.69,0,.86.86,0,0,0-.07.1.48.48,0,0,0,0,.49c.09.12.13.07,0,0l.28.28L94,128a.32.32,0,0,0-.62.09Z"/><path class="cls-2" d="M94.86,123a.86.86,0,0,0,.53,1.63c1.11-.29.55-1.9-.5-1.57-.5.16-.29,1,.22.8.16,0,0,.1-.1,0s-.06-.41.1-.56,0-.42-.25-.32Z"/><path class="cls-2" d="M96.06,118.87c-.66.84,1,1.61,1.19.52.28-1.34-2-1.34-1.78-.21a.28.28,0,0,0,.26.2.86.86,0,0,0,.4-.13c.06,0,.49-.15.41,0,.17-.29-.26-.65-.48-.37Z"/><path class="cls-2" d="M96.76,115.63c-.47.51.44,1.16.87.59.6-.78-.55-1.74-1.26-1.08a.26.26,0,0,0,0,.4c.07,0,.59.21.58.23.06-.14-.15-.24-.24-.14Z"/><path class="cls-2" d="M91.63,115.7c-.86.42.1,1.59.74.87a.69.69,0,0,0-.21-1.06c-.43-.19-1,.16-.83.65a.29.29,0,0,0,.35.19l.16-.06c.19,0,.19-.16,0-.35.14-.12,0-.32-.19-.24Z"/><path class="cls-2" d="M84.93,121.16a.94.94,0,0,0-.06.66.49.49,0,0,0,.72.29,1.15,1.15,0,0,0-1-2.07c-.47.21-1,1-.36,1.37.27.15.5,0,.71-.18.06,0,.11-.13.18-.15s0,.16,0,.18l.68.18a.94.94,0,0,0-.5-.42.24.24,0,0,0-.34.14Z"/><path class="cls-2" d="M82,118.75a1.65,1.65,0,0,0-.71-.36c-.15,0-.34.14-.23.3a2,2,0,0,0,.68.51.26.26,0,0,0,.26-.45Z"/><path class="cls-2" d="M78.61,115.19c-.88.24-.28,1.67.62,1.22,1.21-.6.06-2.6-1-1.93a.32.32,0,0,0,0,.54c.23.16.63.13.79.39s0,.62-.3.48a.32.32,0,0,1,0-.45c.13-.09.05-.3-.1-.25Z"/><path class="cls-2" d="M75.29,113.59a.92.92,0,0,0,1.58-.76,1,1,0,0,0-1.87-.27c-.11.29.28.55.52.4s.5-.21.66,0c.33.34-.44.58-.69.42s-.3.12-.2.25Z"/><path class="cls-2" d="M126.16,110.53l.13-.17c.16,0,.2,0,.11,0a1.07,1.07,0,0,0-.19-.07.29.29,0,0,0-.43.17c-.22,1,1.6,1,1.45-.08s-1.66-.75-1.32.12a.14.14,0,0,0,.25,0Z"/><path class="cls-6" d="M125.66,104.66a16.4,16.4,0,0,1,2.75,1.52,8.37,8.37,0,0,1,2,2.44c.25.47,1,.06.71-.41-1-1.87-3.1-3.91-5.34-3.95a.22.22,0,0,0-.11.4Z"/><path class="cls-6" d="M128,100.59c.83.6,1.81,1,2.64,1.58a12.22,12.22,0,0,1,2.2,2.17c.28.36.91-.11.64-.49-1.17-1.63-3.25-3.57-5.37-3.68-.24,0-.28.3-.11.42Z"/><path class="cls-6" d="M127.17,95.41a11,11,0,0,1,4.38.4,7.11,7.11,0,0,1,3.59,3.1.31.31,0,0,0,.54-.32c-1.51-2.65-5.55-5.08-8.59-3.47a.16.16,0,0,0,.08.29Z"/><path class="cls-6" d="M77.17,102.84a33.68,33.68,0,0,0-3.94,9l.75-.1c-.58-.85-1.21-1.66-1.85-2.47-.43-.53-1.21.23-.76.76.64.76,1.27,1.51,2,2.21A.41.41,0,0,0,74,112a32.45,32.45,0,0,1,3.56-8.94.24.24,0,0,0-.41-.24Z"/><path class="cls-6" d="M73.62,101.55c-1.35,1.93-2.06,4.55-2.92,6.73l.69-.09c-.73-1.25-1.39-2.54-2.13-3.78a.51.51,0,0,0-.88.52c.76,1.23,1.6,2.41,2.36,3.64a.39.39,0,0,0,.69-.09c.84-2.17,2.08-4.53,2.4-6.84a.12.12,0,0,0-.21-.09Z"/><path class="cls-6" d="M71,98.68a23.13,23.13,0,0,0-2.43,5.06l.68.09c-.41-1.22-.78-2.47-1.29-3.64-.17-.42-.83-.12-.71.3.34,1.2.85,2.37,1.28,3.54a.38.38,0,0,0,.72,0,23.2,23.2,0,0,0,1.91-5.28.09.09,0,0,0-.16-.07Z"/><path class="cls-6" d="M130.65,108.19a7.31,7.31,0,0,0,1.31-2c.32-.59.84-1.22.72-1.9a.27.27,0,0,0-.4-.16c-.63.29-.9,1.27-1.19,1.86a6.61,6.61,0,0,0-.79,2.07c0,.19.23.26.35.15Z"/><path class="cls-6" d="M133,103.83a18.4,18.4,0,0,0,1.06-2.4,14.5,14.5,0,0,0,1-2.76.31.31,0,0,0-.56-.24,12.42,12.42,0,0,0-1,2.44,19.8,19.8,0,0,0-.92,2.79.23.23,0,0,0,.42.17Z"/><path class="cls-6" d="M134.93,99a4,4,0,0,0-.66,1.22,2.62,2.62,0,0,0-.38,1.34c0,.18.25.18.36.09a2.56,2.56,0,0,0,.57-1.18,4.42,4.42,0,0,0,.33-1.38.13.13,0,0,0-.22-.09Z"/><path class="cls-6" d="M134.36,100.58a9.08,9.08,0,0,0-.5,1.15,4,4,0,0,0-.37,1.2c0,.21.26.25.36.1a3.9,3.9,0,0,0,.39-1.1,9,9,0,0,0,.3-1.27c0-.1-.12-.19-.18-.08Z"/><path class="cls-6" d="M134.88,99c.79-.37,1-1.61,1.27-2.37.38-1,1.09-2.29,1-3.4a.28.28,0,0,0-.47-.2,8.51,8.51,0,0,0-1.31,3.16c-.28.84-.94,2-.52,2.8Z"/><path class="cls-6" d="M112.42,115.22c.79-2,1.35-3.81,3.09-5.17,2-1.58,4.38-1.65,6.78-1.08a.47.47,0,0,0,.25-.9c-4.4-1.82-11.55,1.72-10.44,7.15,0,.18.27.14.32,0Z"/><path class="cls-6" d="M89.66,115.12c.6-3.22-1.81-6.35-4.8-7.39-2.72-1-7.28-.24-8.44,2.76-.13.35.31.58.59.45,2.44-1.15,4.15-2.76,7.11-1.9s4.16,3.43,5.06,6.08c.07.21.43.26.48,0Z"/><path class="cls-6" d="M88.84,113.31a3.59,3.59,0,0,0,.79,1.54.32.32,0,0,0,.53-.3,3.58,3.58,0,0,0-1-1.45.22.22,0,0,0-.36.21Z"/><path class="cls-6" d="M115.6,117.6c1.19,1,3.37-.25,4.39-1s2.59-2.51,2.22-4a.27.27,0,0,0-.44-.11,11.6,11.6,0,0,0-1.18,1.56,8.64,8.64,0,0,1-1.59,1.55,6.86,6.86,0,0,1-2,1,2.85,2.85,0,0,0-1.4.63.31.31,0,0,0,0,.44Z"/><path class="cls-6" d="M80.24,113.19c-.39,2.79,3.56,4.84,5.91,4.54a.72.72,0,0,0,0-1.44,5.58,5.58,0,0,1-3.2-.92A20.61,20.61,0,0,1,80.8,113c-.16-.15-.52-.11-.56.15Z"/><path class="cls-6" d="M81.3,114.37c-.23.58.53,1.3.94,1.61s1.3.73,1.83.29a.21.21,0,0,0,0-.26c-.29-.42-.93-.56-1.36-.8a4.2,4.2,0,0,1-.73-.52,1.25,1.25,0,0,0-.58-.39.1.1,0,0,0-.13.07Z"/><path class="cls-6" d="M81.88,115.33c.36.32.73.62,1.12.92s.59.48,1,.33c.09,0,.18-.12.17-.22,0-.43-.39-.58-.76-.75s-.89-.37-1.35-.54a.15.15,0,0,0-.14.26Z"/><path class="cls-6" d="M87.07,130.25c-1.26,2.73-1.42,8.33,1,10.49a.42.42,0,0,0,.7-.29c-.06-1.59-1-3.08-1.2-4.68a31.42,31.42,0,0,1-.08-5.4c0-.22-.34-.33-.44-.12Z"/><path class="cls-6" d="M114.71,131.66c0,1.3.42,2.55.29,3.87a15.12,15.12,0,0,1-1.24,4c-.16.41.42.66.7.41,2-1.82,2.91-6.49.77-8.54a.31.31,0,0,0-.52.22Z"/><path class="cls-6" d="M94.61,130.13c3,1.49,8.44,1.58,11.48.07.39-.19.16-.71-.2-.74-1.82-.16-3.72.28-5.56.28s-3.72-.34-5.57-.17c-.27,0-.45.42-.15.56Z"/><path class="cls-6" d="M95.4,129.7a.39.39,0,0,0-.31.06.11.11,0,0,0,0,.19.48.48,0,0,0,.31.06.16.16,0,0,0,0-.31Z"/><path class="cls-6" d="M108.17,82.16a2.5,2.5,0,0,0,1.88-.68c.42-.37,1.14-1.17.76-1.75a.44.44,0,0,0-.48-.2c-.5.17-.57.76-.91,1.12a3.7,3.7,0,0,1-1.35.8.36.36,0,0,0,.1.71Z"/><path class="cls-6" d="M135.24,63.48a5.89,5.89,0,0,0,2.89-1.93c.64-.66,1.85-1.77,1.79-2.76a.26.26,0,0,0-.37-.22,2.43,2.43,0,0,0-.91,1A14.73,14.73,0,0,1,137.4,61a19,19,0,0,0-2.28,2.29c-.06.08,0,.17.12.15Z"/><path class="cls-6" d="M139.51,56.88A56.57,56.57,0,0,0,140,73c.05.24.36.14.39,0a56.82,56.82,0,0,0-.26-16.16c-.07-.38-.59-.23-.63.09Z"/><path class="cls-6" d="M139.29,58.43s0,0,0,0a0,0,0,0,0,0,0Z"/><path class="cls-6" d="M139.62,57.06c-1,1-1.89,2-2.74,3.07a12.11,12.11,0,0,0-2,2.81.38.38,0,0,0,.55.42,12.46,12.46,0,0,0,2.2-2.64c.83-1.11,1.53-2.27,2.25-3.45a.18.18,0,0,0-.28-.21Z"/><path class="cls-6" d="M67.34,64.26c-.27-1.37-1.85-2.55-2.8-3.51L62.82,59c-.56-.55-1-1.11-1.74-1.26a.37.37,0,0,0-.45.45c.13.74.57,1,1.09,1.57l1.89,1.9c1,.94,2.14,2.52,3.51,2.8a.19.19,0,0,0,.22-.23Z"/><path class="cls-6" d="M60.73,56.88a17.75,17.75,0,0,0,1.17,1.79c.33.46.61,1.07,1.16,1.26a.3.3,0,0,0,.38-.29c0-.58-.56-1-.91-1.45a19.57,19.57,0,0,0-1.41-1.61.25.25,0,0,0-.39.3Z"/><path class="cls-6" d="M61.06,56.58a15.45,15.45,0,0,0,1.26,2.2,8.42,8.42,0,0,0,1.35,1.87c.18.16.52,0,.43-.25a8.66,8.66,0,0,0-1.3-2.07,14.84,14.84,0,0,0-1.51-1.92c-.12-.12-.29,0-.23.17Z"/><path class="cls-6" d="M61.8,59a18.67,18.67,0,0,0-.72,10.72c.09.38.65.28.67-.09,0-1.77-.14-3.54-.1-5.32s.36-3.52.29-5.27c0-.07-.11-.11-.14,0Z"/><path class="cls-6" d="M61,59.12c-.1.46-.16.93-.23,1.39a1.32,1.32,0,0,0,.13,1.05.19.19,0,0,0,.29,0,1.35,1.35,0,0,0,.24-1.09c0-.47,0-.92-.11-1.39,0-.16-.28-.14-.32,0Z"/><path class="cls-6" d="M61,59.4a2.15,2.15,0,0,0-.1,1.23.21.21,0,0,0,.41,0,2.15,2.15,0,0,0-.1-1.23.11.11,0,0,0-.21,0Z"/><path class="cls-6" d="M73.06,96.74l.09-.07a.15.15,0,0,0,0-.24l-.09-.06c-.4-.3-.4.67,0,.37Z"/><path class="cls-4" d="M125.4,106.59c.53.36,1.12.63,1.66,1s.95.89,1.5,1.2c.2.11.52-.08.42-.32a4.67,4.67,0,0,0-3.47-2.3c-.24,0-.28.3-.11.42Z"/><path class="cls-4" d="M126.67,102.59a10.17,10.17,0,0,0,1.47.66,1.68,1.68,0,0,0,1.38.11.31.31,0,0,0,.11-.42c-.24-.44-.77-.52-1.23-.63a9.52,9.52,0,0,0-1.59-.23.28.28,0,0,0-.14.51Z"/><path class="cls-4" d="M127.6,97.77a5.83,5.83,0,0,0,3.39.74c.29-.05.3-.46.08-.6a6.06,6.06,0,0,0-3.36-.56c-.2,0-.33.3-.11.42Z"/><path class="cls-4" d="M73.49,107.88a5.61,5.61,0,0,0,.6-1.48,4.28,4.28,0,0,0,.36-1.56c0-.17-.26-.34-.4-.16a4.22,4.22,0,0,0-.57,1.44,6.32,6.32,0,0,0-.36,1.66.2.2,0,0,0,.37.1Z"/><path class="cls-4" d="M70.67,104.65a4.1,4.1,0,0,0,.79-1.24,3.31,3.31,0,0,0,.5-1.27c0-.19-.23-.25-.36-.14a3.58,3.58,0,0,0-.75,1.28,4.08,4.08,0,0,0-.44,1.27c0,.13.17.18.26.1Z"/><path class="cls-4" d="M68.93,99.29l1.1-1a2,2,0,0,0,.72-.89.14.14,0,0,0-.17-.18,2,2,0,0,0-.9.72c-.33.35-.64.72-1,1.09a.15.15,0,1,0,.21.21Z"/><path class="cls-4" d="M83.42,110.29a10.45,10.45,0,0,0,1.33.69,4.23,4.23,0,0,0,1.26.49c.17,0,.35-.18.19-.32a3.91,3.91,0,0,0-1.16-.61,13.35,13.35,0,0,0-1.48-.58.18.18,0,0,0-.14.33Z"/><path class="cls-4" d="M82.61,106.52a17.18,17.18,0,0,1,2.47.4,12.23,12.23,0,0,1,2.4,1.33.21.21,0,0,0,.28-.28,4.52,4.52,0,0,0-5.18-1.63.1.1,0,0,0,0,.18Z"/><path class="cls-4" d="M115.23,112a10.26,10.26,0,0,0,1.42-.57,3,3,0,0,0,1.19-.76.22.22,0,0,0-.18-.33,3.2,3.2,0,0,0-1.28.63,10.74,10.74,0,0,0-1.22.91.07.07,0,0,0,.07.12Z"/><path class="cls-4" d="M113,109.31a7.23,7.23,0,0,0,1.79-.92c.47-.27,1.07-.52,1.27-1.06.05-.13-.08-.25-.2-.26-.56,0-1.11.43-1.55.73a6.85,6.85,0,0,0-1.53,1.12.23.23,0,0,0,.22.39Z"/><path class="cls-4" d="M111.74,142.93c2.57-.44,4.84-3.5,4.94-6.06,0-.19-.3-.29-.38-.1a12.8,12.8,0,0,1-1.9,3.48,25,25,0,0,1-2.79,2.46c-.11.1,0,.24.13.22Z"/><path class="cls-4" d="M91,143.45c-.83-.7-1.79-1.23-2.61-2S87,139.79,86.23,139a.22.22,0,0,0-.37.22,6.6,6.6,0,0,0,2,2.81,6.33,6.33,0,0,0,2.94,1.81c.22,0,.44-.24.24-.41Z"/><path class="cls-4" d="M79.66,76.27c1.5,2.94,6.75,5.56,10,4.51a.38.38,0,0,0,0-.73c-1.65-.49-3.37-.44-5-1.06-1.82-.68-3.13-1.91-4.74-2.93a.16.16,0,0,0-.22.21Z"/><path class="cls-4" d="M116.68,79.94c3.93.07,9.38-3,11.12-6.63.14-.28-.17-.7-.48-.48-1.74,1.26-3.13,2.88-5,4s-3.84,1.84-5.73,2.85c-.11,0-.05.22.06.22Z"/><path class="cls-4" d="M136.58,75.37c-1,2-.87,4.7-1,6.95-.2,2.9-.38,5.65-2.15,8.08-.2.28.2.69.48.48,1.86-1.39,2.52-3.34,2.78-5.6.34-3,1-7.07,0-9.9a0,0,0,0,0-.09,0Z"/><path class="cls-4" d="M64,78.77a21,21,0,0,0,3.11,13.47.26.26,0,0,0,.46-.2c-.43-2.23-1.32-4.38-1.84-6.6s-.74-4.52-1.46-6.67c0-.12-.25-.15-.27,0Z"/><path class="cls-4" d="M94.91,95.69c-.49,1.61.37,3.53.47,5.19s-.26,3.62,0,5.37a.52.52,0,0,0,.94.13c.8-1.79.61-4,.38-5.87-.19-1.59-.26-3.81-1.55-4.89a.16.16,0,0,0-.26.07Z"/><path class="cls-4" d="M105.28,95.88c-1.94,2.1-2.61,7.71-1.1,10.18a.4.4,0,0,0,.72-.1c.35-1.54,0-3.2,0-4.77,0-1.76.58-3.57.39-5.29,0,0,0,0,0,0Z"/><path class="cls-4" d="M99.6,8.16c-.55,1.53.25,3.44.75,4.91a10.73,10.73,0,0,0,2.37,4.5.59.59,0,0,0,1-.57c-.23-1.74-1.22-3.37-1.8-5-.47-1.34-.65-3-1.64-4a.4.4,0,0,0-.66.17Z"/><path class="cls-4" d="M100,22.66c-1,5-.23,10.39-.16,15.47.07,5.48.08,11,.45,16.45a.1.1,0,0,0,.19,0c.26-5.48.16-11,.13-16.45,0-5.08.58-10.46-.47-15.47,0-.06-.13-.06-.14,0Z"/><path class="cls-4" d="M99.55,56.5c-.06,3.35.36,6.73.5,10.08s.27,6.72.47,10.07c0,.21.33.21.32,0-.12-3.36-.32-6.71-.49-10.07s-.07-6.75-.45-10.08a.18.18,0,0,0-.35,0Z"/><path class="cls-4" d="M81.26,113.59a13.83,13.83,0,0,0-.16-1.93,6.5,6.5,0,0,0-.27-1.71c-.07-.17-.37-.23-.4,0a7.21,7.21,0,0,0,.12,1.85,14.77,14.77,0,0,0,.28,1.85.22.22,0,0,0,.43-.06Z"/><path class="cls-4" d="M80.54,110.5a4.26,4.26,0,0,0,1.53,3.72,8.6,8.6,0,0,0,4,2.2c.81.13,1.88-.21,2-1.16A1.14,1.14,0,0,0,86.63,114c-.49.09-.37.86.11.85-.38.73-.88.83-1.49.29l-.79-.41a15.05,15.05,0,0,1-1.34-.78,4.94,4.94,0,0,1-2.39-3.47c0-.12-.18-.07-.19,0Z"/><path class="cls-4" d="M86.32,114.19c-.09.32-.15.64-.22,1l.68-.09A2.83,2.83,0,0,0,85,113.65c-.24-.06-.57.13-.54.41l.12,1,.68-.28a45.89,45.89,0,0,0-3.78-4.1l-.64.82c.91.59,1.78,1.22,2.67,1.81A8.54,8.54,0,0,0,86,114.82a.48.48,0,0,0,.46-.8,8.58,8.58,0,0,0-2.38-1.69c-.91-.58-1.84-1.11-2.74-1.7-.53-.35-1,.4-.63.83a48.83,48.83,0,0,0,4,3.93.41.41,0,0,0,.69-.29c0-.35,0-.69-.07-1l-.54.41a2.35,2.35,0,0,1,1.42,1c.2.26.73.22.7-.19s-.07-.71-.13-1.07a.2.2,0,0,0-.39,0Z"/><path class="cls-4" d="M84.16,114.34a6.65,6.65,0,0,0,2.15,1.18c.6.16,1-.73.44-1a6.63,6.63,0,0,0-2.47-.56c-.25,0-.28.3-.12.41Z"/><path class="cls-4" d="M114.77,114.12a1.67,1.67,0,0,0,.61,2.13c1.06.72,2.49.27,3.48-.36a5.91,5.91,0,0,0,2.42-6.39.32.32,0,0,0-.61.17,5.1,5.1,0,0,1-.72,4.17,5,5,0,0,1-1.6,1.51c-.89.54-3.9,1.06-3.09-1,.11-.28-.37-.49-.49-.21Z"/><path class="cls-4" d="M114.91,114.37c2.66-.21,5.06-2.19,6.46-4.36.24-.36-.35-.7-.58-.34-1.46,2.29-3.48,3.36-5.93,4.3-.2.08-.2.42,0,.4Z"/><path class="cls-4" d="M115,114.91a6.15,6.15,0,0,0,5.09-2.27c.5-.56-.32-1.38-.83-.82a12.41,12.41,0,0,1-4.3,2.75.19.19,0,0,0,0,.34Z"/><path class="cls-4" d="M115.4,115.72c2.11.55,4.63-1.6,5.21-3.52a.57.57,0,0,0-1-.44,8.1,8.1,0,0,1-1.72,2.31,16.84,16.84,0,0,1-2.49,1.39.15.15,0,0,0,0,.26Z"/><path class="cls-4" d="M114.78,115.18c2.52,1.36,5.53-1,6.27-3.34.28-.91-1.13-1.29-1.42-.39-.72,2.2-2.69,2.92-4.78,3.22-.24,0-.26.4-.07.51Z"/><path class="cls-7" d="M103.94,102.24c-.87-.25-1.66.86-1.86,1.57a2.33,2.33,0,0,0,1,2.59,2.29,2.29,0,0,0,3.35-2.82c-.81-1.91-4-1.55-4.18.59a1.83,1.83,0,0,0,1.74,2.07,1.58,1.58,0,0,0,1.58-1.94c-.3-.94-2.09-1.66-2.52-.44a1.18,1.18,0,0,0,2.21.82.59.59,0,0,0-.73-.73l-.24.1c-.14,0-.11,0,.08,0l-.33.59c.22-.15.35.12.12.27a.38.38,0,0,1-.51-.13.74.74,0,0,1,.35-1.1,1,1,0,0,1,1.38,1.28A1.31,1.31,0,0,1,103,105a1.57,1.57,0,0,1,.13-1.63c.24-.38.64-.58.89-.94a.15.15,0,0,0-.08-.21Z"/><path class="cls-7" d="M94.21,108.24c-1.47-.5-2.68,1.3-2.77,2.56a3.25,3.25,0,0,0,2.81,3.3,3.17,3.17,0,0,0,.92-6.27,2.88,2.88,0,0,0-3.34,2.52,2.69,2.69,0,0,0,2.75,2.89,2.42,2.42,0,0,0,2.27-2.95,2.27,2.27,0,0,0-3.43-1.56,1.94,1.94,0,0,0,.92,3.58,1.67,1.67,0,0,0,.58-3.24c-.74-.27-1.16.85-.52,1.24.22.13.27.53-.06.56s-.4-.62-.23-.81a.79.79,0,0,1,1.19.17,1,1,0,0,1-.86,1.57c-2.21-.17-.75-3.67,1.22-2.32s.06,4-1.88,3.29a2,2,0,0,1-1.13-2.54c.31-.79,1-1.17,1.63-1.71a.17.17,0,0,0-.07-.28Z"/><path class="cls-7" d="M93.9,110c-.93.33-.42,1.66.35,1.85a.56.56,0,0,0,.3-1.08c-.24-.09-.27-.34-.31-.57a.29.29,0,0,0-.34-.2Z"/><path class="cls-7" d="M93.65,110.27a3.61,3.61,0,0,1,.12.57,1.88,1.88,0,0,0,.32.59.71.71,0,1,0,1-1,1.88,1.88,0,0,0-.59-.32,3.61,3.61,0,0,1-.57-.12.19.19,0,0,0-.26.26Z"/><path class="cls-7" d="M101.76,114.46a1,1,0,0,0,.45,1.61,1,1,0,0,0,.91-1.52,1,1,0,0,0-1.8.29c-.25.78.9,2,1.45,1.07a.35.35,0,0,0,0-.39,1.16,1.16,0,0,0-.25-.2c-.14-.11-.21-.08-.16-.22s.12,0,0,.08,0-.07,0-.12c.42-.37-.19-1-.6-.6Z"/><path class="cls-7" d="M103.55,121.31a1.75,1.75,0,0,0-.78,1.94,1.87,1.87,0,0,0,1.55,1.52,2,2,0,1,0-.61-3.89,1.8,1.8,0,0,0-.93,2.23,1.54,1.54,0,0,0,2.1.9,1.39,1.39,0,0,0,.49-2.21c-.71-.75-2.31-.54-1.93.75a1.14,1.14,0,0,0,2.17,0c.19-.64-.64-.87-1-.42-.12.15,0,.07,0,0l-.42.42c.37-.14.51.3.12.39s-.56-.47-.4-.76c.48-.9,1.73-.2,1.77.63a1.16,1.16,0,0,1-1.62,1c-.92-.41-.54-1.51-.12-2.11.18-.26-.15-.48-.38-.38Z"/><path class="cls-7" d="M94.58,121.05c-.83.64.16,1.74,1,1.15.35-.25,0-.84-.34-.59-.19.13-.37-.09-.22-.07s.15.12.17.3a.28.28,0,0,0,.42.24c1-.57-.32-2-1.18-1.18a.87.87,0,0,0,1.22,1.25l-.48-.49c-.26.28-.46-.18-.34-.38s-.09-.33-.22-.23Z"/><path class="cls-7" d="M96.3,126.06a1.55,1.55,0,0,0,.61,2.61,1.7,1.7,0,1,0-.71-2.83c-1,1.11.35,2.91,1.66,2.07a1.18,1.18,0,0,0,.15-1.85c-.46-.46-1.56-.42-1.51.42a.56.56,0,0,0,1.1.15l0-.07-.27.35.07,0-.45.06c.34.1,0-.19.29-.34s.67.28.65.58a.63.63,0,0,1-.86.49c-.45-.19-.44-.84-.25-1.2a.33.33,0,0,0-.51-.4Z"/><path class="cls-7" d="M99.5,122a1.5,1.5,0,0,1-.09-.18.22.22,0,0,0-.25-.1c-.56.12-.26.75.12.9a.71.71,0,0,0,1-.76.85.85,0,0,0-1.32-.53.72.72,0,0,0,.39,1.28c.34,0,.59-.48.3-.72s-.13.17-.14.17-.06,0-.1,0-.07,0,0,0,.18,0,.13-.11Z"/><path class="cls-7" d="M100,96.34a.91.91,0,0,0-1,.71,1.07,1.07,0,0,0,.55,1.26,1.16,1.16,0,1,0-.52-.58c.48,1.28,2.34.5,2.11-.74-.13-.63-1.1-.36-1,.27,0,.07-.26.24-.19,0s.29-.07.28.11-.41.24-.54.09.09-.79.38-.9a.12.12,0,0,0,0-.23Z"/><path class="cls-7" d="M91.76,97.29c-.5-.54-1.43.25-1.73.68a2.41,2.41,0,0,0-.22,2.44,2.48,2.48,0,0,0,4.2.38c1.09-1.51.17-4-1.87-3.91a2,2,0,0,0-.91,3.75,1.86,1.86,0,0,0,2.48-1,1.79,1.79,0,0,0-1.23-2.33c-.36-.1-.87.19-.81.62A4.48,4.48,0,0,0,92,99.7a.52.52,0,0,0,.93-.12A4.21,4.21,0,0,0,93,98l-.81.61c.86.25.22,1.33-.45.9s-.22-1.16.31-1.33c1.47-.47,1.8,1.68.79,2.39A1.44,1.44,0,0,1,90.64,99c.17-.58.63-.77,1-1.2.1-.11.29-.31.14-.47Z"/><path class="cls-7" d="M93.21,97.57a2.34,2.34,0,0,1,.51,1.25c0,.41-.31.85-.16,1.23a.3.3,0,0,0,.29.22c.66,0,.77-1,.73-1.51a2,2,0,0,0-.94-1.62c-.25-.15-.63.17-.43.43Z"/><path class="cls-7" d="M91.67,98.21a12.85,12.85,0,0,0-.21,2.23.48.48,0,0,0,.48.48.73.73,0,0,0,.78-.29.29.29,0,0,0,0-.31c-.17-.31-.45-.34-.78-.36l.46.35a12.55,12.55,0,0,0-.4-2.1c0-.14-.29-.17-.33,0Z"/><path class="cls-7" d="M95.93,89.67a2.52,2.52,0,0,0,1.73,4.66c2.74-.55,2.28-4.82-.57-4.68s-2.56,4.48.16,4.39a1.87,1.87,0,0,0,1.69-2.58,1.63,1.63,0,0,0-2.87-.18,1.5,1.5,0,0,0,2.07,2c1.16-.79.3-2.94-1.1-2.3a.54.54,0,0,0,0,.92c.07,0,.39.23.27.24s0-.25.08-.29a.3.3,0,0,1,.36.12c.51.61-.67,1-1.12.67a1.15,1.15,0,0,1-.23-1.37A1.24,1.24,0,0,1,98,90.91c1.46.72.16,2.79-1.21,2.47-1.62-.38-1.59-2.4-.64-3.45a.17.17,0,0,0-.2-.26Z"/><path class="cls-7" d="M91.61,98.17a4.18,4.18,0,0,0-.2,1.11c-.1,1,1.65.74,1.29-.17a4.14,4.14,0,0,0-.48-1,.34.34,0,0,0-.61.08Z"/><path class="cls-7" d="M90.74,84a1.73,1.73,0,0,0-1.07,2.1,2,2,0,0,0,2,1.64A2.18,2.18,0,0,0,93.86,86a2.38,2.38,0,0,0-1.13-2.54A2.29,2.29,0,0,0,90,84a2.21,2.21,0,0,0,0,2.85,2.09,2.09,0,0,0,2.88.34,2,2,0,0,0,.4-3,1.54,1.54,0,0,0-2.69.88,1.31,1.31,0,0,0,2.42.66.74.74,0,0,0-.26-1,1,1,0,0,0-.58-.15.74.74,0,0,0-.53,1.25.66.66,0,0,0,.26.14c.12,0,.42.18.12,0l-.26-1c.21-.37.2,0,.25,0s0,.18.06.11l0,0c.1.14.21.2.19.41a.7.7,0,0,1-1,.5c-.92-.51,0-1.82.82-1.38a.92.92,0,0,1-.46,1.73c-1.27,0-1.09-1.38-.64-2.13a.24.24,0,0,0-.26-.35Z"/><path class="cls-7" d="M100.05,82.05c-.73,0-1,.93-1,1.57a1.61,1.61,0,0,0,1.62,1.4,1.79,1.79,0,0,0,1.81-1.4,1.93,1.93,0,0,0-1.11-2.06,1.87,1.87,0,0,0-2.33.84,1.91,1.91,0,0,0,.63,2.51c1.79,1.26,4.16-1.23,2.69-2.92a1.55,1.55,0,0,0-2.51.19A1.3,1.3,0,0,0,101.5,84c.65-.32.27-1.2-.33-1.25-.09,0-.06.14-.06.15s.15,0,.17,0c.27.25,0,.71-.26.83-.78.41-1.18-1-.33-1,.67,0,.7,1,0,1.07a.61.61,0,0,1-.67-.51c-.1-.34.11-.67.23-1a.22.22,0,0,0-.21-.27Z"/><path class="cls-7" d="M74.24,123c.39.24.85.4.91.94a.56.56,0,0,1-.56.61c-.27,0-.54,0-.6-.34a.67.67,0,0,1,.33-.7l-.87-1.13c-.48,1-.42,2.54.92,2.91a1.4,1.4,0,0,0,1.59-2c-.52-.86-2.44-.58-2.1.59a.67.67,0,0,0,.46.49.81.81,0,0,0,.51,0,.61.61,0,0,0,.24-.15l-.08.06c-.18,0-.27,0-.28-.22s-.12-.16,0-.21.11-.05.12,0-.1-.15-.11-.23a.91.91,0,0,1,.11-.42c.26-.55-.17-1.38-.87-1.13a2.12,2.12,0,0,0-1.38,2.43A1.89,1.89,0,0,0,74.78,126a1.86,1.86,0,0,0,1.57-2c-.12-.86-1.18-1.94-2.11-1.43a.33.33,0,0,0,0,.56Z"/><path class="cls-7" d="M80.89,127.45a.66.66,0,0,1,.37,0c.12.07.27.23.08.33s-.19-.09-.1-.21l-.92.12a.91.91,0,0,0,.81.26.39.39,0,0,0,.29-.29.92.92,0,0,0-.27-.81.61.61,0,0,0-.93.12c-.78,1.16.76,2.66,1.82,1.6a1.11,1.11,0,0,0,0-1.58,1,1,0,0,0-1.39-.06c-.16.17-.05.53.21.5Z"/><path class="cls-7" d="M122.83,126.45a.81.81,0,0,0-1.38.64.94.94,0,1,0,.68-1c-.75.25-.85,1.46,0,1.64a.39.39,0,0,0,.38-.65c.11.13,0-.06,0,0-.15-.06-.25.13-.13-.11,0,0-.05,0,0,0a.5.5,0,0,1,.28-.14.19.19,0,0,0,.18-.31Z"/><path class="cls-7" d="M129.86,121.37c-.65-.1-1.1.51-1.27,1.08a2.15,2.15,0,0,0,.36,2,2.29,2.29,0,0,0,3.73-.72,2.25,2.25,0,0,0-2.47-3,1.83,1.83,0,0,0-1.47,1.75,1.59,1.59,0,0,0,1.35,1.65,1.51,1.51,0,0,0,1.78-1.37,1.37,1.37,0,0,0-1.82-1.32c-.5.22-.28.93.14,1.07.13,0,.25,0,.28.2s0,0,0,0c-.27.09-.35-.2-.24-.41s.68-.28.93-.07a.92.92,0,0,1,.27.86.88.88,0,0,1-1.43.43c-.72-.57-.2-1.28,0-2a.16.16,0,0,0-.11-.19Z"/><path class="cls-7" d="M145.75,96.37c-.74-.59-1.69.21-2,.94a2.94,2.94,0,0,0,1,3.19c1.91,1.53,5.1.1,4.77-2.48a2.6,2.6,0,0,0-5-.75c-1,2.46,2.73,4.51,3.78,1.87.43-1.09-.43-2.69-1.76-2.25-1,.33-1.22,2.12.06,2.14a.58.58,0,0,0,.57-.57c0-.35.06-.33-.24.07-.11.16-.2.37-.44.38-.81,0-.72-1.11-.35-1.48.95-1,2.31.29,1.92,1.4a1.77,1.77,0,0,1-3.33-1.07c.15-.53.58-.7.91-1.09a.21.21,0,0,0,0-.3Z"/><path class="cls-7" d="M55,91.65c-.71-.22-1.28.59-1.49,1.16A2.21,2.21,0,0,0,53.91,95,2.39,2.39,0,0,0,58,94.2a2.22,2.22,0,0,0-3.08-2.7c-1.65.89-1.11,3.76.87,3.72A1.51,1.51,0,0,0,57.11,93c-.6-1-2.45-.61-2.29.64a.74.74,0,0,0,1.36.37c.15-.23-.28-.16-.43-.24l0-.1a.14.14,0,0,1-.09,0c-.08-.07-.13-.06-.2-.17a.43.43,0,0,1,.11-.59c.71-.49,1.19.53.87,1.09a1.19,1.19,0,0,1-1.82.08,1.32,1.32,0,0,1-.14-1.11c.12-.41.46-.65.62-1a.18.18,0,0,0-.11-.27Z"/><path class="cls-7" d="M43,85.45c-2,.48-2.14,3.17-.61,4.27a2.45,2.45,0,0,0,3.87-2.12,2.35,2.35,0,0,0-4-1.42,2,2,0,0,0,0,2.66,1.69,1.69,0,0,0,2.51-.11A1.56,1.56,0,0,0,44,86.39c-1.3-.38-1.66,1.5-.7,2.11.65.41,1.23-.37,1-1l-.07.11-.75.2c.15,0-.15-.13-.17-.27-.07-.39.36-.61.67-.62a.83.83,0,0,1,.73,1.31,1.12,1.12,0,0,1-1.88,0c-.54-.76,0-1.72.52-2.3a.29.29,0,0,0-.28-.49Z"/><path class="cls-7" d="M52.23,58.05c-2-.3-2.91,2.61-1.72,4a2.4,2.4,0,0,0,4.2-1.19,2.34,2.34,0,0,0-3.53-2.31,2.08,2.08,0,0,0-.84,2.55,1.73,1.73,0,0,0,2.38.86,1.56,1.56,0,0,0,.14-2.58,1.43,1.43,0,0,0-2.16,1.21.78.78,0,0,0,1.56,0c0,.41-.48-.09-.51-.28s.33-.53.6-.57a.78.78,0,0,1,.79,1.21,1,1,0,0,1-1.78,0c-.61-.92.32-1.6,1-2.09.23-.18.29-.67-.09-.72Z"/><path class="cls-7" d="M146.4,47.44A4.09,4.09,0,0,0,144,53.11a4.59,4.59,0,0,0,6.06,2.27,4.5,4.5,0,0,0,2.28-6,3.91,3.91,0,0,0-5.66-1.76,3.65,3.65,0,0,0-.33,5.82,3.38,3.38,0,0,0,5.29-1.7,3.15,3.15,0,0,0-3.57-3.88c-2.15.48-3.08,3.63-.89,4.75,2.64,1.36,4.77-2.91,2.05-3.6-3-.75-2.1,4.19.27,2.6.88-.6.06-2-.85-1.44,0,1.2-.32,1.28-1,.25a1,1,0,0,1,1-.89,1.25,1.25,0,0,1,1.22,1A1.53,1.53,0,0,1,147.3,52c-2-2,2-4.72,3.41-2a2.93,2.93,0,0,1-3.42,4.09c-3.07-.85-2.63-4.5-.64-6.17.21-.17,0-.51-.25-.44Z"/><path class="cls-7" d="M145.38,49.82a.05.05,0,0,0,0-.1.05.05,0,1,0,0,.1Z"/><path class="cls-7" d="M145,49.55a2.55,2.55,0,0,0-.72,2.08,1.92,1.92,0,0,0,1.46,1.87c.56.06.79-.61.59-1s-.66-.64-.84-1.1a1.64,1.64,0,0,1,.05-1.42.34.34,0,0,0-.54-.41Z"/><path class="cls-7" d="M146.27,48.17c.31-.64.88-.69,1.5-.54a.4.4,0,0,0,.31-.72,1.48,1.48,0,0,0-2.15,1.17c0,.18.27.26.34.09Z"/><path class="cls-4" d="M147.6,49.12a6.46,6.46,0,0,1,.69,1.85,9.65,9.65,0,0,0,.14,1.8.31.31,0,0,0,.51.14c.55-.49.46-1.43.34-2.09a3.56,3.56,0,0,0-1.14-2.12.35.35,0,0,0-.54.42Z"/><path class="cls-4" d="M146.53,97.29a1.75,1.75,0,0,1,.44.84c0,.32-.13.62-.06.94a.4.4,0,0,0,.48.27c1.22-.27.56-2.43-.45-2.58-.27-.05-.62.24-.41.53Z"/><path class="cls-4" d="M130,122.51a1.05,1.05,0,0,1,.07,1.45c-.2.25.05.63.35.46a1.35,1.35,0,0,0-.1-2.33c-.26-.12-.55.2-.32.42Z"/><path class="cls-4" d="M122.39,126.61c-.09.3-.14.45.07.68a.18.18,0,0,0,.24,0c.21-.23.16-.38.07-.68a.2.2,0,0,0-.38,0Z"/><path class="cls-4" d="M104.56,121.55a1.18,1.18,0,0,1,.35.88,2.19,2.19,0,0,0,0,.72.21.21,0,0,0,.25.14c.42-.12.5-.63.44-1a1.48,1.48,0,0,0-.71-1.09.23.23,0,0,0-.28.36Z"/><path class="cls-4" d="M97.22,126.61a1.48,1.48,0,0,0-.11,1,.2.2,0,0,0,.36,0,1.49,1.49,0,0,0,.19-1,.22.22,0,0,0-.44-.06Z"/><path class="cls-4" d="M94.65,121.44l0,.16a.16.16,0,0,0,.3,0l0-.16c.11-.33-.5-.33-.4,0Z"/><path class="cls-4" d="M99.08,121.62a.51.51,0,0,0,.17.39c.12.16.42.08.35-.14a.73.73,0,0,0-.25-.41.16.16,0,0,0-.27.16Z"/><path class="cls-4" d="M102.15,114.93a.75.75,0,0,0,.07.57.13.13,0,0,0,.23,0,.75.75,0,0,0,.07-.57.19.19,0,1,0-.37,0Z"/><path class="cls-4" d="M104,103.65a3.46,3.46,0,0,1,.38,1.06c0,.36-.07.71,0,1.06a.26.26,0,0,0,.44.18c.74-.63.24-2.16-.54-2.55a.19.19,0,0,0-.25.25Z"/><path class="cls-4" d="M93.16,109.49c0,.52.06,1.05.08,1.57s0,.9.33,1.2a.3.3,0,0,0,.47-.07c.27-.38.09-.82,0-1.24s-.21-1-.35-1.53a.27.27,0,0,0-.53.07Z"/><path class="cls-4" d="M91.68,98.38a2.86,2.86,0,0,0,.25,1.91.3.3,0,0,0,.54-.07,2.88,2.88,0,0,0-.38-1.9.23.23,0,0,0-.41.06Z"/><path class="cls-4" d="M96.79,90.93c0,.5-.06,1.19.4,1.53a.2.2,0,0,0,.27-.07c.24-.51-.17-1-.36-1.51-.07-.14-.33-.15-.31.05Z"/><path class="cls-4" d="M100,97.11c-.17-.07-.25,0-.38.11s.15.62.35.36c.1-.11.26-.39,0-.47Z"/><path class="cls-4" d="M91.42,84.55c-.36.41-.06,1.42.25,1.79a.25.25,0,0,0,.42-.11,1.88,1.88,0,0,0-.11-1c-.09-.29-.13-.55-.41-.68a.12.12,0,0,0-.15,0Z"/><path class="cls-4" d="M100,82.92c.19.22,0,.55,0,.8a.3.3,0,0,0,.3.23h.06a.43.43,0,0,0,.38-.28.75.75,0,0,0-.64-1c-.17,0-.21.2-.13.31Z"/><path class="cls-4" d="M74.34,123.25c0,.38-.13,1.78.62,1.61s.13-1.41,0-1.77-.56-.11-.59.16Z"/><path class="cls-4" d="M81.19,127.73l.08.09a.19.19,0,0,0,.28,0l.08-.09a.31.31,0,0,0-.22-.52.31.31,0,0,0-.22.52Z"/><path class="cls-4" d="M55.48,92.75c.42.36.07.68.1,1.13a.36.36,0,0,0,.36.35c.54,0,.76-.57.69-1a1.14,1.14,0,0,0-.84-1c-.29-.07-.56.32-.31.54Z"/><path class="cls-4" d="M43.84,86a3,3,0,0,0,.53,1.68.3.3,0,0,0,.5-.21,3.28,3.28,0,0,0-.6-1.65c-.14-.25-.47-.06-.43.18Z"/><path class="cls-4" d="M51.94,59.59c.45.37.28.78.33,1.28a.28.28,0,0,0,.36.27c1-.37.39-1.82-.45-2-.22,0-.45.23-.24.41Z"/><path class="cls-4" d="M52.69,86.45a.93.93,0,0,0,.19,1.15,1,1,0,0,0,1.22,0c.34-.27.51-.69.18-1a.78.78,0,0,0-1.15,0c-.6.75.61,1.55,1,.67s-1.35-.75-.9.1a.21.21,0,0,0,.35,0l.48-.68a.21.21,0,0,0,0-.25c-.45-.47-1.46-.26-1.46.48s1.18,1.14,1.5.38-.55-1.52-1.17-1-.17,1.64.56,1.35c.2-.07.3-.38.07-.49s-.2-.08-.24-.21.22-.17.25,0c0,.42-.77.15-.44-.28a.46.46,0,0,1,.64,0l0-.25-.48.68h.35c-.3-.12-.23-.24.21-.38l.27.21c0,.2-.23.37-.38.43a.71.71,0,0,1-.87-.86s-.06-.08-.08,0Z"/><path class="cls-4" d="M100.66,110.43a1,1,0,0,0,.65,1.52.82.82,0,0,0,.81-1.24.72.72,0,0,0-1.32.16.8.8,0,0,0,.24.78c.33.27.6,0,.92-.13a.32.32,0,0,0,.15-.37.71.71,0,0,0-1.2-.38.29.29,0,0,0,.28.48.2.2,0,0,1,.28.08l.15-.38-.39.22.26,0q-.1-.22,0,.15a.18.18,0,0,1-.29-.06c-.2-.16-.15-.36-.06-.58s-.35-.47-.51-.21Z"/><path class="cls-4" d="M115.76,59.67c-.6-.15-1.07.57-.86,1.1a1,1,0,0,0,1.59.2.86.86,0,0,0-.42-1.45,1,1,0,0,0-1.27,1,.5.5,0,0,0,1,0c0,.08,0,0,0,0s0,0,0,0-.07,0-.07-.14c0,0-.15,0,.06-.12a.31.31,0,0,0-.07-.56Z"/><path class="cls-4" d="M67.71,122.32a1.11,1.11,0,0,0,.62,1.25.87.87,0,0,0,1.14-.42A.8.8,0,0,0,69,122a.76.76,0,0,0-1,.74.41.41,0,0,0,.28.38h0a.31.31,0,0,0,.29-.07.41.41,0,0,0,.12-.17c.09-.2-.22.11-.13.08-.37.12-.6-.47-.63-.73s-.29-.12-.3,0Z"/><path class="cls-4" d="M79.82,123.67c-.5-.38-1,.46-.32.72.81.3,1.25-.79.64-1.28a.37.37,0,0,0-.5,0,1.23,1.23,0,0,0-.37.58c-.08.24.2.39.39.3a1.25,1.25,0,0,0,.53-.46l-.48.13-.07.31c.16,0,.32-.18.18-.3Z"/><path class="cls-4" d="M77.17,129.81l-.25.46a.28.28,0,0,0,.31.4,2.74,2.74,0,0,0,.39-.09.31.31,0,0,0,.21-.38.52.52,0,0,0-.83-.36.43.43,0,0,0,.13.75.23.23,0,0,0,.24-.1c.09-.07,0-.11-.13-.12l.14-.35-.36.16.41.23c0-.17,0-.35,0-.52a.15.15,0,0,0-.28-.08Z"/><path class="cls-4" d="M96.76,135c-.19,0-.36-.09-.55-.11a.26.26,0,0,0-.26.19.78.78,0,0,0,1,1,.87.87,0,0,0,.52-.61c.09-.41-.23-.63-.52-.85s-.73.28-.44.57a3.17,3.17,0,0,0,.46.36l-.17-.29c-.28.19-.39.17-.33-.08l-.2.26c.18,0,.29-.09.48-.14s.14-.25,0-.27Z"/><path class="cls-4" d="M100.63,127.26a.73.73,0,0,0,.76.94.83.83,0,0,0,.63-.38c.22-.33.08-.53-.14-.82a.37.37,0,0,0-.57-.07,3,3,0,0,0-.36.49c-.13.25.16.63.43.43a2.51,2.51,0,0,0,.44-.42h-.51c.08.1.17.19.25.28l-.09-.33-.47-.07c0-.2-.32-.28-.37,0Z"/><path class="cls-4" d="M105,134a.36.36,0,0,1,.42.13c.15.3-.27.22-.24-.1s-.63-.5-.75-.1a.9.9,0,0,0,1.69.63.8.8,0,0,0-1.37-.81c-.12.16.1.33.25.25Z"/><path class="cls-4" d="M125.11,119.18a.74.74,0,0,0-.41.06c-.09,0-.2.14-.19.25a.72.72,0,1,0,1.44-.13.38.38,0,0,0-.27-.35c-.48-.16-1.14.16-1,.74a.26.26,0,0,0,.38.15c.13-.08.24-.23.41-.18l-.27-.36H125l0,.32a.66.66,0,0,0,.24-.33.11.11,0,0,0-.09-.17Z"/><path class="cls-4" d="M132,114.87c-.06.21-.14.41-.2.62a.29.29,0,0,0,.13.31.88.88,0,0,0,1-.15.69.69,0,0,0,.16-.94,1,1,0,0,0-1.63.54.38.38,0,0,0,.7.19c.1-.16.27-.37.48-.2l-.1-.24c0,.27-.2.37-.42.3l.2.26c0-.21,0-.43-.05-.65a.15.15,0,0,0-.29,0Z"/><path class="cls-4" d="M149,87.53a4.93,4.93,0,0,1-.53.22.29.29,0,0,0-.21.27.75.75,0,0,0,1.32.41c.53-.64-.37-1.42-.76-.69a.41.41,0,0,0,.35.61.45.45,0,0,0,.39-.27l-.24.18.07,0-.31,0,.07,0L149,88l0,.08,0-.31c0,.07-.14.31-.24.12l0,.34a3.75,3.75,0,0,1,.45-.44c.14-.12,0-.33-.2-.25Z"/><path class="cls-4" d="M50.82,77.66a1,1,0,0,1-.21.19l.32.24c.12-.2.26,0,.33,0s-.07-.05-.07-.06c-.3-.39-1.12-.18-.89.38.32.82,1.79.71,1.69-.28-.08-.72-1.26-.89-1.43-.14A.2.2,0,0,0,51,78l.09-.21a.14.14,0,0,0-.22-.17Z"/><path class="cls-4" d="M47.62,94.65a.68.68,0,0,0,1.25-.21c.18-.83-1.14-.85-1.18,0a.38.38,0,0,0,.28.36.36.36,0,0,0,.27,0,.43.43,0,0,0,.12-.11c.09-.13.1,0,0-.11l-.16-.21c0,.12-.18.18-.24.1s-.41,0-.31.23Z"/><path class="cls-4" d="M51,102.81a.56.56,0,0,0-.1,1,.34.34,0,0,0,.37,0A1.18,1.18,0,0,0,52,102.7a.34.34,0,0,0-.34-.34l-.82,0a.38.38,0,0,0-.39.39c0,.26,0,.51.07.77.08.55.92.32.83-.23,0-.22-.09-.43-.14-.65l-.37.5.82-.06-.34-.34a.54.54,0,0,1-.31.58h.31v-.11c.22-.18-.06-.47-.28-.36Z"/><path class="cls-4" d="M39.78,81.27a.93.93,0,0,0,1.27.72.85.85,0,0,0,.38-1.26.05.05,0,0,0-.1,0,.93.93,0,0,1-.3.92.74.74,0,0,1-1.1-.46.08.08,0,0,0-.15,0Z"/><path class="cls-4" d="M41.11,80.49c-.71-.15-1.57.5-1.26,1.28,0,.1.22.1.22,0a1.06,1.06,0,0,1,1-1.21s0,0,0,0Z"/><path class="cls-4" d="M46.12,70.54c.15-.46,1-.7,1,0s-.77.69-1,.14a.09.09,0,0,0-.17,0,.7.7,0,0,0,1.38-.2.68.68,0,0,0-1.35,0,0,0,0,0,0,.09,0Z"/><path class="cls-4" d="M43.46,95.88c.48,1,2.13.07,1.46-.94a.93.93,0,0,0-1.32-.31c-.36.25-.66.93-.26,1.27a.15.15,0,0,0,.25-.11c0-.24-.07-.45.08-.67a.49.49,0,0,1,.87.07c.35.69-.57.94-1,.64a0,0,0,0,0,0,0Z"/><path class="cls-4" d="M70.6,116.65c.07-.29.69-.47.79-.1,0,.2-.23.39-.39.39a2.81,2.81,0,0,1-.31-.08.16.16,0,0,0-.2.19c.19.75,1.55.11,1.26-.63a.69.69,0,0,0-1.31.21c0,.09.14.11.16,0Z"/><path class="cls-4" d="M88.25,61.1c.52-.16,1.15.61.51.92s-.62-.39-.67-.72a.19.19,0,0,0-.32-.08c-.72.78.71,1.82,1.46,1.09a.89.89,0,0,0-1.07-1.41.11.11,0,0,0,.09.2Z"/><path class="cls-4" d="M104.76,118.46c.28,0,.55.54.18.61s-.3-.25-.31-.48-.18-.28-.31-.18c-.66.49.32,1.52,1,1.1a.7.7,0,0,0-.55-1.25c-.11,0-.08.19,0,.2Z"/><path class="cls-4" d="M99.48,118.08c-.58-.18-1,.43-.84,1a.79.79,0,0,0,1.4.18.82.82,0,0,0-.5-1.36c-.43-.06-1.37.41-.94.93a.2.2,0,0,0,.23,0c.16-.08.2-.26.36-.34s.57,0,.4.31-.42.17-.36-.11a.5.5,0,0,1,.25-.34.15.15,0,0,0,0-.3Z"/><path class="cls-4" d="M88.47,125.08a.83.83,0,1,0,1.52.67c.51-1.2-1.53-1.61-1.55-.71a.16.16,0,0,0,.2.15c.33-.06.88-.45,1,.17a.47.47,0,0,1-.55.54.65.65,0,0,1-.42-.75c0-.1-.12-.17-.17-.07Z"/><path class="cls-4" d="M91.89,133.05c.51-.47,1.33.27.7.68s-.67-.35-.64-.72a.16.16,0,0,0-.24-.14c-.88.65.51,2.06,1.29,1.1a.83.83,0,0,0-1.26-1.07.11.11,0,1,0,.15.15Z"/><path class="cls-4" d="M108.79,102.93a.89.89,0,0,0,1.75-.11.86.86,0,0,0-1.68-.33c0,.2.23.4.38.22s.61-.48.75-.06-.55.6-.69.14a.26.26,0,0,0-.51.14Z"/><path class="cls-4" d="M102.18,90.73c.36,0,.9.77.36.94s-.54-.32-.63-.61a.22.22,0,0,0-.4,0c-.55.74.86,1.51,1.45,1s0-1.73-.8-1.43a.08.08,0,0,0,0,.16Z"/><path class="cls-4" d="M90.41,56.6c.43-.49,1.41-.07,1,.58a.42.42,0,0,1-.71,0c-.16-.19-.14-.43-.21-.65a.19.19,0,0,0-.31-.09c-.48.39-.06,1.12.36,1.37a1,1,0,0,0,1.39-.46,1,1,0,0,0-1.66-.92c-.06.1.08.22.16.13Z"/><path class="cls-4" d="M144.57,79.24a1.11,1.11,0,0,1,.84.21.61.61,0,0,1,0,.9.6.6,0,0,1-.92,0c-.22-.24-.17-.52-.19-.81s-.26-.34-.4-.17a1.09,1.09,0,0,0,.28,1.46,1.15,1.15,0,0,0,1.59-.11,1.14,1.14,0,0,0,.09-1.53,1.05,1.05,0,0,0-1.43-.24.15.15,0,0,0,.11.25Z"/><path class="cls-4" d="M137.37,109.69c.43-.31,1.25,0,.95.61a.42.42,0,0,1-.6.19c-.2-.11-.25-.35-.42-.48a.23.23,0,0,0-.35,0c-.31.5.31,1,.76,1.11a1,1,0,0,0,1.17-.69,1,1,0,0,0-1.64-.92c-.06.08.06.19.13.14Z"/><path class="cls-8" d="M102.05,24.5c-.39,13.84-.24,27.7.1,41.54.07,3.1,0,6.23.29,9.33a8.38,8.38,0,0,0,1.64,5c1.64,1.86,5.25,2,6-.73.05-.16-.2-.22-.24-.06-.56,1.79-2.52,2.2-4.07,1.65S103.41,79,103,77.44a37.09,37.09,0,0,1-.48-7.45q-.24-7.41-.35-14.83c-.15-10.22-.08-20.43,0-30.66a.07.07,0,0,0-.14,0Z"/><path class="cls-8" d="M110.43,79.36c2.62,1.24,5.19.17,7.51-1.27A65.6,65.6,0,0,0,126,72a76.19,76.19,0,0,0,14.44-16.23c.11-.16-.14-.29-.25-.14a96.84,96.84,0,0,1-12.24,14.2,84.29,84.29,0,0,1-7.38,6.09c-2.83,2.08-6.37,4.82-10,3.3-.07,0-.12.09,0,.12Z"/><path class="cls-8" d="M98.62,25.37c.06,10,.29,19.91.25,29.86,0,4.83-.08,9.65-.22,14.48-.07,2.42.1,5.05-.48,7.42-.38,1.58-1.13,3.19-2.78,3.78s-3.51.14-4.07-1.65c0-.16-.3-.09-.25.07.75,2.51,4.12,2.66,5.83,1a7.71,7.71,0,0,0,1.83-4.9c.3-3.18.24-6.42.3-9.61.25-13.47.11-27-.27-40.44a.07.07,0,0,0-.14,0Z"/><path class="cls-8" d="M90.73,78.94c-3.68,1.52-7.2-1.22-10-3.31a81.27,81.27,0,0,1-7.39-6.09,97.44,97.44,0,0,1-12.24-14.2c-.1-.15-.35,0-.25.15A76.48,76.48,0,0,0,75.26,71.72a67.24,67.24,0,0,0,8,6.06c2.32,1.45,4.9,2.51,7.52,1.28.06,0,0-.15,0-.12Z"/><path class="cls-8" d="M140.14,55.72c2.5,24.43-1.52,53.06-23.43,67.85-.13.09,0,.31.13.22,22-14.85,26.06-43.55,23.55-68.07,0-.16-.26-.16-.25,0Z"/><path class="cls-8" d="M140.07,55.72c-.13,18,.55,37.08-9.47,52.9a43.39,43.39,0,0,1-8.25,9.52c-2.43,2.1-5.14,4.29-5.85,7.58-.87,4,1.3,8,0,12-.65,2-2.48,4.84-4.61,5.5-1.54.47-.74-.73-.42-1.7a33.06,33.06,0,0,0,1-3.54c.44-2,2-7.06-.32-8.47-1.18-.72-3.35,0-4.58.18-2.32.36-4.64.75-7,1.07-.25,0-.14.42.11.39,1.7-.24,3.4-.51,5.1-.79,2.11-.34,6.44-1.88,7,1.47.34,1.89-.32,4.22-.71,6.05A37.32,37.32,0,0,1,110.2,144a.18.18,0,0,0,.21.22,10.3,10.3,0,0,0,6.24-5.74c1.58-3.81-.22-7.56.08-11.46.36-4.84,4.81-7.37,8-10.4a42.6,42.6,0,0,0,7.14-9.16c4.16-7.09,6.39-15.08,7.55-23.17a144.72,144.72,0,0,0,1.07-28.6.2.2,0,0,0-.39,0Z"/><path class="cls-8" d="M60.74,55.41A136.32,136.32,0,0,0,62.44,83c1.25,8.38,3.23,16.62,7.43,24.06a43.34,43.34,0,0,0,7,9.29c3.07,3.06,7.62,5.53,8.41,10.14.71,4.14-1.49,8.21.21,12.28a10.3,10.3,0,0,0,6.24,5.74.17.17,0,0,0,.21-.21,36.62,36.62,0,0,1-1.83-5.69c-.42-1.82-1.27-4.6-.82-6.49.78-3.26,4.24-1.93,6.38-1.63l5,.68c.25,0,.36-.35.11-.39l-5.29-.71c-1.42-.19-3.35-.82-4.79-.51-2.51.55-1.7,4.18-1.47,5.93a33.76,33.76,0,0,0,1.31,5.88c.24.75,1.34,2.37,0,2.3-1.11-.06-2.65-1.89-3.24-2.63-3.37-4.19-1.34-8.55-1.46-13.3-.09-3.31-2-5.72-4.34-7.85a56.18,56.18,0,0,1-8.62-9c-5-7-7.71-15.16-9.22-23.52-1.92-10.6-2.39-21.19-2.5-31.94a.2.2,0,0,0-.39,0Z"/><path class="cls-8" d="M98.75,25.37c0-1.13.62-3.9-.32-4.78-.57-.54-1.67-.19-2.33-.22-1.75-.07-1.85-.27-1.3-1.65s1.22-2.91,1.82-4.37c.31-.73,3.69-9.6,3.4-9.66.25.06,1.13,3.72,1.24,4.05.5,1.45,1,2.89,1.58,4.34s1,2.6,1.38,3.92c.17.52.78,1.64.67,2.2-.26,1.32-1.63,1.45-2.68,1.4a.18.18,0,0,0,0,.35,6.76,6.76,0,0,0,3.08-.78.15.15,0,0,0,0-.14c-1.49-5.34-3.83-10.39-5.26-15.74,0-.08-.15-.09-.16,0-.85,4.87-3.28,9.51-5.14,14.06-.33.79-1,1.46-.24,2.08.44.39,1.18.06,1.68.1,2.9.25,2.43,2.65,2.41,4.84a.06.06,0,1,0,.12,0Z"/><path class="cls-8" d="M92.92,20.81a7.11,7.11,0,0,1,.77,6.24c-.06.17.2.24.26.07A6.85,6.85,0,0,0,93,20.75c0-.06-.14,0-.1.06Z"/><path class="cls-8" d="M99.78,10.5c-.32,2.52-.6,5.11-.7,7.64,0,.11.15.1.16,0,.34-2.51.51-5.1.63-7.64,0-.05-.08-.05-.09,0Z"/><path class="cls-8" d="M79.21,74.13c.69-1,1.41-2.08,2-3.16,0,0,0-.1-.08,0-.73,1-1.38,2.1-2,3.16,0,.06,0,.1.09,0Z"/><path class="cls-8" d="M79.57,74.12A13.7,13.7,0,0,1,83.29,69c2-1.71,4.38-2.29,6.78-3.24a7.06,7.06,0,0,0,3.1-2.22c1.73-2.18,2.4-5.27,5.59-5.78.12,0,.09-.22,0-.21a4.75,4.75,0,0,0-3.49,2.17c-.78,1.06-1.26,2.32-2,3.38C91.79,65,90,65.52,87.88,66.24a13.5,13.5,0,0,0-8.39,7.84s.06.09.08,0Z"/><path class="cls-8" d="M121.12,75.47a8.44,8.44,0,0,0-3.31-5.13c-2.37-2-4.78-3.46-6.63-6-2.29-3.2-4.76-7.25-9.31-6.54-.23,0-.13.38.1.35,5.4-.8,7.48,5.13,10.48,8.31s7.34,4.49,8.51,9.07a.08.08,0,0,0,.16,0Z"/><path class="cls-8" d="M96.87,60.31c-2.3,7.28-11.53,7.07-15.39,13-.08.12.11.27.2.16,4.13-5.29,13.4-6,15.34-13.08a.08.08,0,0,0-.15,0Z"/><path class="cls-8" d="M87.45,71.4c-1.74.15-5,1.59-3,3.8,1.76,2,5.55,1.25,7.22-.47s1.21-4.28-1.29-4.83-5,1.15-4.56,3.72c0,.11.19.08.19,0a3.41,3.41,0,0,1,3.64-3.43,2.71,2.71,0,0,1,2.18,1.1c1,1.27.32,2.63-.79,3.56a5.73,5.73,0,0,1-4,1.23c-.82,0-2.4-.43-2.66-1.34l.88-2.59a5.62,5.62,0,0,1,2.23-.64s.06-.09,0-.08Z"/><path class="cls-8" d="M104.23,61.09c1.44,2.56,3.77,3.93,6.24,5.35a28.25,28.25,0,0,1,8.85,8c.13.17.41,0,.29-.17a22.69,22.69,0,0,0-6.38-6.57c-3-2.11-6.89-3.33-8.86-6.69a.08.08,0,0,0-.14.08Z"/><path class="cls-8" d="M107.5,69.06a4.45,4.45,0,0,0,.81,5.74c1.33,1.16,4,1.75,5.22.16s0-4-1.41-5a5.74,5.74,0,0,0-5.84-.54c-.25.11,0,.48.21.37a5.3,5.3,0,0,1,4.15-.17c1.52.59,3.38,2.3,3,4.13-.56,2.4-3.55,2-5,.77a4.38,4.38,0,0,1-1-5.38c0-.07-.06-.12-.09-.06Z"/><path class="cls-8" d="M80.83,112.56a8.7,8.7,0,0,0,6.22,4.36c.23,0,.33-.32.1-.36a9.35,9.35,0,0,1-6.21-4.07.07.07,0,1,0-.11.07Z"/><path class="cls-8" d="M115.62,117.28c2.61-.76,5.64-3.1,6.65-5.69,0-.11-.14-.21-.21-.12a24.15,24.15,0,0,1-2.67,3.22,16.71,16.71,0,0,1-3.85,2.41c-.1.05,0,.21.08.18Z"/><path class="cls-8" d="M88.65,112.53c.38,2.2-3-.2-3.19-.31l-1.59-1.07-3.71-2.48c-.22-.15-.42.16-.26.34.83.95,8.68,8.32,8.85,4,0-.26-.4-.26-.41,0-.12,2.26-4.36-1-4.85-1.35a21.34,21.34,0,0,1-3.29-3l-.26.34q1.86,1.24,3.73,2.46a21.15,21.15,0,0,0,3.19,2.06c.91.37,2.23.22,1.91-1.06,0-.07-.13,0-.12,0Z"/><path class="cls-8" d="M113.28,113.35c0,1.25,1.22,1.55,2.19,1.09a13.69,13.69,0,0,0,2.78-2.26l3.67-3.21-.31-.31c-1.18,1.15-5.94,6.65-7.72,4.87a.13.13,0,0,0-.2.16c.65,1.16,1.92.72,2.82.09a49.33,49.33,0,0,0,5.41-4.81c.2-.19-.1-.49-.31-.31l-3.16,2.8L117,112.75l-.72.65c-.76.95-1.7.94-2.81-.05a.09.09,0,0,0-.18,0Z"/><path class="cls-8" d="M83.32,113.66c-.49.68.1,1.79,1,1.42a.81.81,0,0,0-.3-1.57c-.82,0-.9,1.2-.2,1.47s1.21-.9.58-1.32a.15.15,0,0,0-.13,0,1.25,1.25,0,0,0-.58,1.21c0,.06,0,.13.13.12a.79.79,0,0,0,.27-1.53c-.13,0-.2.15-.09.22.48.28.49,1-.18,1.06l.12.13c0-.21,0-.74.25-.84s.29.13.28.29a.56.56,0,0,1-.12.3c-.23.3-.6.17-.76-.14a.52.52,0,0,1,.43-.78.65.65,0,0,1,.13,1.29c-.77.2-1.1-.76-.76-1.31,0,0,0-.05-.05,0Z"/><path class="cls-8" d="M118.47,112.94a.82.82,0,0,0,0,1.31.79.79,0,0,0,1.17-.5c0-.4-.46-1.08-.9-.81-.21.13-.25.57-.23.78a1.23,1.23,0,0,0,.39.83.15.15,0,0,0,.25-.06,2.36,2.36,0,0,0,0-1.77.17.17,0,0,0-.27-.07,1.3,1.3,0,0,0-.3,1.53.17.17,0,0,0,.31,0c.1-.35.19-.71.29-1.07a.17.17,0,0,0-.31-.13c-.12.23-.23.45-.33.69s.12.18.18.1a5.35,5.35,0,0,0,.44-.62l-.3-.13c-.1.36-.2.72-.29,1.07l.3,0a1,1,0,0,1,.23-1.14l-.27-.07a2.16,2.16,0,0,1,0,1.6l.25-.07a.89.89,0,0,1-.33-.68c0-.33.24-.79.54-.22s-.36.85-.75.64-.31-.78-.07-1.07c0-.05,0-.11-.07-.07Z"/><path class="cls-8" d="M90.16,114.78a7.91,7.91,0,0,0-12.72-6.08c-.15.11,0,.35.19.25,5.37-3.53,11.76-.58,12.47,5.83a0,0,0,0,0,.06,0Z"/><path class="cls-8" d="M112.24,115.22c.16-5.65,5.14-8.93,10.42-7,.18.07.31-.23.13-.32a7.45,7.45,0,0,0-10.61,7.31s.06,0,.06,0Z"/><path class="cls-8" d="M74,113.48A21.27,21.27,0,0,1,78.18,103c.06-.08-.08-.18-.14-.11a18.74,18.74,0,0,0-4.32,10.63c0,.15.22.14.24,0Z"/><path class="cls-8" d="M71.14,106.55s0,0,0,0,0,0,0,0Z"/><path class="cls-8" d="M71.58,109.3c.46-1.23.73-2.54,1.18-3.78.52-1.41,1.18-2.75,1.81-4.11a.15.15,0,0,0-.25-.15,19.37,19.37,0,0,0-2.85,8c0,.07.09.07.11,0Z"/><path class="cls-8" d="M68.93,104.64a51.14,51.14,0,0,1,3-6c.1-.16-.13-.28-.24-.14a20.66,20.66,0,0,0-3,6.1c0,.1.12.14.16,0Z"/><path class="cls-8" d="M130.87,109.25c-.08-1.26-1.31-2.57-2.25-3.32a7.72,7.72,0,0,0-4-1.72c-.14,0-.17.22,0,.25a8.55,8.55,0,0,1,3.94,1.88,27.76,27.76,0,0,1,2.31,2.93,0,0,0,0,0,.06,0Z"/><path class="cls-8" d="M133.25,104.75c-.71-2.36-3.65-4.42-6-4.76a.16.16,0,0,0-.09.3,11,11,0,0,1,3.68,1.87,17.54,17.54,0,0,1,2.25,2.69c.06.08.19,0,.17-.1Z"/><path class="cls-8" d="M135.76,99.21A7.48,7.48,0,0,0,127,95.28a.13.13,0,0,0,.07.26,7.77,7.77,0,0,1,8.48,3.8c.08.14.29,0,.22-.13Z"/><path class="cls-8" d="M66.9,72.17q-.11-16.92-.59-33.85a.09.09,0,0,0-.17,0c.06,11.28.29,22.58.62,33.85a.07.07,0,0,0,.14,0Z"/><path class="cls-8" d="M77.28,68.53c1.43-15.28.64-31.13-1.12-46.34,0-.07-.11-.07-.1,0,.74,7.7,1.3,15.41,1.49,23.14s-.16,15.46-.31,23.2a0,0,0,1,0,0,0Z"/><path class="cls-8" d="M133.69,76.85c-.49-15.28-1-30.55-1.64-45.82a0,0,0,0,0-.09,0c.47,15.27,1.06,30.55,1.66,45.82,0,0,.08,0,.07,0Z"/><path class="cls-8" d="M120.39,69c.2-11.27.34-22.56.35-33.84a.08.08,0,1,0-.16,0c-.2,11.27-.27,22.56-.28,33.84,0,.06.08.06.09,0Z"/><path class="cls-8" d="M110.84,85.2c.81-17.68,1.52-35.43,1.77-53.13,0-.08-.12-.08-.13,0-.91,17.68-1.36,35.43-1.72,53.13,0,0,.08,0,.08,0Z"/><path class="cls-8" d="M102.44,20.7c-.46-.06-.66.25-.69.7a10.8,10.8,0,0,0,.12,1.7c.06.69.08,1.38.17,2.07,0,.09.16.1.15,0,0-.69-.09-1.38-.14-2.07,0-.52-.37-2.05.39-2.27.06,0,.07-.12,0-.13Z"/><path class="cls-8" d="M98.71,25.49a6.3,6.3,0,0,0-1.66-5l-.14.15a4.76,4.76,0,0,1,1.51,2.52.09.09,0,0,0,.17,0,5.16,5.16,0,0,0-.63-2c0-.09-.19,0-.16.07a7,7,0,0,1,.8,2.27.1.1,0,0,0,.19,0,3.26,3.26,0,0,0-1.1-2.69c-.1-.09-.27,0-.19.15s.28.48.43.71a.12.12,0,0,0,.2-.12l-.42-.71-.19.15a3.12,3.12,0,0,1,1,1.38c.08.24.18,1.33.29.71a5.18,5.18,0,0,0-.67-1.61c-.22-.13.85,2.28.2.77a5.4,5.4,0,0,0-1.25-1.74c-.09-.09-.23,0-.14.15a6.69,6.69,0,0,1,1.72,4.81c0,.06.07.05.08,0Z"/><path class="cls-8" d="M98.57,22.8a3.35,3.35,0,0,0,.11,1.14c0,.06.1,0,.11,0a3.57,3.57,0,0,0-.16-1.12,0,0,0,0,0-.06,0Z"/><path class="cls-8" d="M102.23,24.65a10.27,10.27,0,0,1,.21-2,7.94,7.94,0,0,1,.89-1.8.05.05,0,0,0-.09-.06,4.16,4.16,0,0,0-1,3.86,0,0,0,0,0,0,0Z"/><path class="cls-8" d="M97.27,20.71c.16.22.28.45.57.46a.12.12,0,0,0,.1-.1c0-.27-.18-.41-.36-.59s-.45.05-.31.23Z"/><path class="cls-8" d="M102.15,23.27c.12-.37.34-.73.49-1.09a11.53,11.53,0,0,1,.52-1.06.21.21,0,0,0-.18-.31l-.77,0A.23.23,0,0,0,102,21a8.26,8.26,0,0,0-.17,1.78.16.16,0,0,0,.32.05,8.6,8.6,0,0,0,.27-1.83l-.21.21.77,0-.18-.31a10.11,10.11,0,0,0-.48,1.06,7.66,7.66,0,0,0-.28,1.26.06.06,0,0,0,.11,0Z"/><path class="cls-8" d="M102.09,23.16c.47-.32,1-1.5.57-2a.1.1,0,0,0-.14,0c-.22.26-.15.6-.23.92a6.33,6.33,0,0,0-.26,1s0,.05.06,0Z"/><path class="cls-8" d="M102.83,21.46a5.11,5.11,0,0,1,.93-.67.06.06,0,0,0,0-.1,1.48,1.48,0,0,0-.94.73s0,.06,0,0Z"/><path class="cls-8" d="M103.54,21a10.45,10.45,0,0,0,1-.44s0-.09,0-.07c-.33.13-.64.29-1,.45a0,0,0,1,0,0,.06Z"/><path class="cls-8" d="M104.1,20.73a5,5,0,0,0,1-.47s0-.09,0-.07a5.83,5.83,0,0,0-1,.48,0,0,0,0,0,0,.06Z"/><path class="cls-8" d="M104.65,20.42a.7.7,0,0,0,.16-.14s0-.08,0-.06a1.09,1.09,0,0,0-.17.13s0,.1.06.07Z"/><path class="cls-8" d="M97.2,20.77a2.49,2.49,0,0,1,.52.4c.06,0,.14,0,.11-.09a.73.73,0,0,0-.6-.39s-.08.06,0,.08Z"/><path class="cls-8" d="M102.3,21.2a1.58,1.58,0,0,0,0,.43c0,.07.12.09.14,0a1.29,1.29,0,0,0,0-.44.06.06,0,0,0-.11,0Z"/><path class="cls-8" d="M102.3,21.32l0,.09c.08.18.34.08.35-.09v-.19c0-.21-.34-.26-.37-.05a.7.7,0,0,0,0,.25c0,.07.09.08.14.06a.46.46,0,0,0,.18-.13l-.32-.13v.19l.24-.18-.1,0a.14.14,0,0,0-.16.21Z"/><path class="cls-8" d="M96.65,125.88a1.67,1.67,0,0,1,1.71.35,1.29,1.29,0,0,1-.07,1.87c-1.25,1.21-2.75-.41-2.09-1.77,0,0,0-.11-.08-.06a1.54,1.54,0,0,0,.19,2,1.41,1.41,0,0,0,2,.06,1.44,1.44,0,0,0,.32-2,1.52,1.52,0,0,0-2-.49s0,0,0,0Z"/><path class="cls-8" d="M104,122a1.34,1.34,0,0,0-.28,2.44,2,2,0,0,0,2.88-1.37,2,2,0,0,0-2.13-2.33,2,2,0,0,0-1.67,2.68c0,.06.09,0,.09,0a2,2,0,0,1,1.22-2.41,1.84,1.84,0,1,1,.59,3.61c-1.43,0-2.26-2-.69-2.55,0,0,0,0,0,0Z"/><path class="cls-8" d="M91.38,110.08a3.2,3.2,0,1,0,3-2.44,3.26,3.26,0,0,0-3,3.65.06.06,0,0,0,.11,0,3.27,3.27,0,0,1,2.93-3.43,3.13,3.13,0,0,1,3.07,3.54A3.17,3.17,0,0,1,94,113.88a3.27,3.27,0,0,1-2.55-3.79s0,0,0,0Z"/><path class="cls-8" d="M103.44,102.2a2.48,2.48,0,1,0,2.5,4.23,2.54,2.54,0,0,0,0-3.83,2.47,2.47,0,0,0-3.65.9c0,.08.07.14.11.07a2.38,2.38,0,0,1,3.57-.73,2.41,2.41,0,0,1,0,3.42,2.44,2.44,0,0,1-3.52-.55,2.54,2.54,0,0,1,1.08-3.45s0-.08,0-.06Z"/><path class="cls-8" d="M90.21,98.11c1.41-2.18,5.16-1,4.44,1.75A2.3,2.3,0,0,1,92,101.68a2.67,2.67,0,0,1-2-2.88.07.07,0,0,0-.13,0,2.72,2.72,0,0,0,2.1,3.08A2.47,2.47,0,0,0,94.78,100c.85-2.88-3.14-4.34-4.61-1.92,0,0,0,0,0,0Z"/><path class="cls-8" d="M99.76,96.2c1.09-.14,1.83,1.28.7,1.84a.89.89,0,0,1-1.22-.4,1.16,1.16,0,0,1,.09-1.14c0-.06,0-.11-.08-.07a1.12,1.12,0,0,0-.07,1.43,1,1,0,0,0,1.39.27,1.08,1.08,0,0,0-.82-2s0,.06,0,0Z"/><path class="cls-8" d="M96,90a2.31,2.31,0,0,0-.28,3.76,2.5,2.5,0,0,0,3.62-.62,2.57,2.57,0,0,0-1.07-3.44,2.53,2.53,0,0,0-3.41,1.87c0,.08.12.12.14,0a2.44,2.44,0,0,1,2.85-1.86,2.33,2.33,0,0,1,1.45,3.06A2.25,2.25,0,1,1,96,90s0,0,0,0Z"/><path class="cls-8" d="M101.61,114.62c-.07.08-.36.47-.38.34s.36-.51.51-.6a.91.91,0,0,1,1.36.54,1,1,0,0,1-1.85.61c0-.05-.11,0-.09,0a1.09,1.09,0,1,0,0-.35s0,0,.06,0c.15-.19.31-.37.47-.56,0,0,0-.06,0,0Z"/><path class="cls-8" d="M94.36,121l-.06.56c0,.12-.12.45-.07.56a.43.43,0,0,0,.23.19,1.08,1.08,0,0,0,1,0,1,1,0,0,0,0-1.73.07.07,0,0,0-.09,0c-.16.29-.31.58-.44.88,0,0,.06.08.08,0,.16-.25.4-1,.69-.52a.88.88,0,0,1-.19,1.12c-.22.17-.84.33-1.07,0s0-.9,0-1.15c0-.05-.07-.05-.08,0Z"/><path class="cls-8" d="M99.45,121.91a.43.43,0,1,0,.57,0,0,0,0,0,0-.07,0c.17.32.09.43-.24.32-.33.09-.4,0-.22-.34,0,0,0-.06,0,0Z"/><path class="cls-8" d="M80.46,126.64c.93-.59,2.14.59,1.24,1.44s-1.9-.42-1.34-1.31c0-.06,0-.12-.1-.07a1.07,1.07,0,0,0,1.48,1.52,1,1,0,0,0-1.32-1.63s0,.08,0,0Z"/><path class="cls-8" d="M73.63,122a2,2,0,0,0-.36,3.06,1.9,1.9,0,0,0,3-.3,1.71,1.71,0,0,0-.7-2.59,1.69,1.69,0,0,0-2.21,1.25c0,.07.11.09.12,0a1.59,1.59,0,0,1,1.91-1.15,1.52,1.52,0,0,1,.8,2.32,1.74,1.74,0,0,1-2.64.46,1.92,1.92,0,0,1,.14-3s0,0,0,0Z"/><path class="cls-8" d="M121.78,126.8c.33-.75,1.65-.84,1.67.15a.9.9,0,0,1-.55.89c-.63.2-1.13-.43-1.12-1a0,0,0,0,0-.09,0,1,1,0,1,0,0-.06,0,0,0,0,0,.06,0Z"/><path class="cls-8" d="M128.48,122a2.37,2.37,0,0,0,1.64,2.79,2.16,2.16,0,0,0,2.57-1.5,2.1,2.1,0,0,0-1.1-2.7,2.3,2.3,0,0,0-2.94.93c0,.06,0,.15.11.08,1.24-1.58,4.29-1,3.79,1.37a2.07,2.07,0,0,1-2,1.73,2.28,2.28,0,0,1-2-2.69s-.06-.06-.07,0Z"/><path class="cls-8" d="M144.63,96.1a3.25,3.25,0,0,0,.63,4.4,2.85,2.85,0,0,0,4.06-.64,2.62,2.62,0,0,0-1-3.8c-1.75-.86-3.71.06-4.9,1.41,0,.06,0,.15.09.09A4.8,4.8,0,0,1,147,95.91a2.54,2.54,0,0,1,2.42,3.33,2.65,2.65,0,0,1-3.85,1.31,3.18,3.18,0,0,1-.92-4.42s0,0,0,0Z"/><path class="cls-8" d="M50.51,58.91c1.74-1.85,5.14.23,3.6,2.59a2.07,2.07,0,0,1-3.16.56,2.47,2.47,0,0,1-.51-3c0-.08-.06-.13-.11-.06A2.49,2.49,0,0,0,51,62.32a2.34,2.34,0,0,0,2.78-3.76,2.46,2.46,0,0,0-3.24.34Z"/><path class="cls-8" d="M54.25,92c1.83-1.48,4.69.64,3.19,2.75s-4.46,0-3.57-2.22c0-.05-.06-.09-.08,0a2.34,2.34,0,0,0,.73,2.94,2.23,2.23,0,0,0,2.73-3.51,2.36,2.36,0,0,0-3,0s0,0,0,0Z"/><path class="cls-8" d="M145.48,47.31A4.69,4.69,0,0,0,144.4,54a4.6,4.6,0,1,0,6.5-6.43,4.7,4.7,0,0,0-6.63,1.08.07.07,0,0,0,.11.08,4.72,4.72,0,0,1,6.09-1.2,4.38,4.38,0,1,1-5.91,6.33,4.61,4.61,0,0,1,1-6.48s0-.11-.06-.08Z"/><path class="cls-8" d="M42.06,85.88a2.6,2.6,0,0,0,.21,3.8,2.63,2.63,0,0,0,3.84-1.08,2.59,2.59,0,1,0-5-.53c0,.11.18.12.17,0a2.52,2.52,0,0,1,2.76-2.78,2.46,2.46,0,0,1,1.78,3.43,2.38,2.38,0,1,1-3.76-2.8s0-.06,0,0Z"/><path class="cls-8" d="M89.2,84.72a2.66,2.66,0,0,0,2.06,3.22,2.59,2.59,0,0,0,2.93-2.63A2.46,2.46,0,0,0,91,83.22a2.36,2.36,0,0,0-1.19,3.26.09.09,0,0,0,.15-.09,2.24,2.24,0,0,1,1.2-3,2.29,2.29,0,0,1,2.82,2,2.46,2.46,0,0,1-2.51,2.51,2.62,2.62,0,0,1-2.27-3.1s0,0,0,0Z"/><path class="cls-8" d="M99.41,81.86a2.13,2.13,0,0,0,.39,3,1.89,1.89,0,0,0,2.86-1,2,2,0,0,0-1.52-2.71c-1.72-.32-2.92,1.09-3.17,2.64,0,.08.11.12.12,0a3,3,0,0,1,2.33-2.47,1.83,1.83,0,0,1,2.15,2.24A1.79,1.79,0,0,1,100,84.85a2,2,0,0,1-.56-2.92c0-.05,0-.12-.07-.07Z"/></svg>