<svg id="illustration" xmlns="http://www.w3.org/2000/svg" viewBox="0 0 198.43 151.56"><defs><style>.cls-1{fill:#5f9ec4;}.cls-2{fill:#fff;}.cls-3{fill:#215dab;}.cls-4{fill:#f2cc46;}.cls-5{fill:#fdf391;}.cls-6{fill:#ae9853;}.cls-7{fill:#467794;}.cls-8{fill:#f68b22;}.cls-9{fill:#010101;}</style></defs><path class="cls-1" d="M25.6,80.74l3.58-.64,4.25-.26h3.82l3.69.56,2.93,1.21,3.72,1.22,4.95,1.31,4.15.38,4-1.13,8-2.12L84.81,75,97.33,66.6l7-3.46,10.79-3.88,11.25-7.6L140.1,54l6.5,12.36,4.29,4.16a7.91,7.91,0,0,1,5.05,0,28.07,28.07,0,0,0,7,.86L183.2,41.94l-4.37,60.66c.81,25.83-29.81,46-55.65,46.25l-75.37.59a29.2,29.2,0,0,1-28.89-34.86Z"/><polygon class="cls-1" points="144.78 64.72 142.4 38.28 184.08 37.15 167.88 76.93 143.63 75.53 144.78 64.72"/><path class="cls-2" d="M167.33,30.47v0l-2-1.12-2.4.34-1.26.78s-1.58.71-1.54,1.11-1.66.31-1.66.31l-1.3-.31h-1.5l-.94.4,1.55,2.13-.73,1-1,.69-2.49-1a27.07,27.07,0,0,0-2.84-.07c-.36.08-2.71,1.39-2.71,1.39l-1.25-1-1.72-1.51-1.23,2.71-.9-1.06-.72-1.12-1.71-1L139,34.83l.14,1.77-1.4,0-1.47-.35h-2.1l-1.78.77-.17-2.66,1.73-2L137,29.69l.5-2.24V24.27l-1.88-2.13-2.38-1.5-2.41-.6L130.16,22l-2.48-.48h-1.33l-.83-.65V17.54l-.36-2.67-1.22-2-1.63-1.35-1.44-.6-3.19.07.79,5.57-1.89.95-1.77-.95-1.49-1.19-3.08-3.51-1.92-1.77-3.95-1.86h-2.31l-2.31.31L99,10.1l.18,4.26L97.33,14l-3.47-2-3.37-1.23-2.27-.39-2.71.39L83.27,11l-2.15.95-1.8,1.18-1.65,1.53-1.48,2v.95L78.28,16l2.11-.73,3,1.33.36,2.66-1.93.34-2.4.19-2.53-.56-2.29.1-3.85.46-2.06.86-2.37.86L65.93,23l-.36,1.31,2.16-2,2.63-.83,1.44.69L72,24.08l-1.11,1.55-2,1.18-2.6,2-.92,1-.69,1.31V33l.42,1.92L66,33l1-1.17,1.72-.66L67.59,33l-.72,1.67L66.51,36l-.15,1L80.73,63.79l1,.3L80.46,66.6l-.12,1.87.58,1.85-.08,1.1,1.55-2.22L83.73,68l1.78-1,3,0,1.62.57s7.58-2.52,9.29,1a11.27,11.27,0,0,1,1.4,5.85l1.19,2L104.37,78l1.85.63,1.25-.19,2-.77-3.28-1.2-2-2.11-.22-2,.14-1.74.91-1.79.84-.81,1.38-.89,1.7.38.44,2v2l-.83,1.66,2.16-.78,1.66-1.74L113.9,68l.95-3.24L116,62l1.22-1.66L118.76,58l2.11-.9L122.51,56l2.59-.23,1.69.25.28,1.49v2l-.72,1.68-.81,1.57-1.57.41-2.44.31-1.82,0,1.44,1.25,3.95.66,3.72-.38,2.86-.77,1.58-1.76,1.26-2.07-.83-1.61-.43-1.09V56.18l.13-.6,2.44-.21.6.36.38,1.15,1.09,1,1.22,1,1.48,1.93,1.71,2.08.38,3.12-.86,2.57-1.31,1.66-1.07.68-1.76.46h2.37l2.63-1.6L144.43,68l.92-3.23L145.17,62l-.29-2.16-.63-1.92-.75-2.34,1.26,1.8L146,58.56l.78.52.67.19-.67-1.36L146.56,56l-.72-1.34-.09-2.33.17-1.49.88-.72.72-.55L148.94,51l.56,1.31,1.22.44.63-.25.25-2.27V48.69l.55-1.22,1.6.28.91,1.67,1.06,1.06.61.32.87-.13-1.58-1.24-.5-.87.16-1.42-.62-3.46L156,41.32l1.6-1.86,3-1.78,3.83-.45,5.82-.23,2.39.68,1.56.8.54,1.62.91,2.17,1.79.17,2.09.12,2.12.18.7.94,2.18-1.41,1.69-2.42V36.67l-1.69-1.44a4.19,4.19,0,0,1-1.34-1.12c-.56-.74-1.19-.55-1.91-.53s-1.75,0-1.75,0l-1.83-1.14L176.33,31l-1.55-1.63-2.68-.53-2.36.87-.9,1.53Z"/><path class="cls-3" d="M45.58,30.61l1.11-1.79,1.69,1,2.62,2,2.4,2.89.93,2.47.93,1.77.2,1.37L57,40.5l1.5.22,1.33,1,1.48,1.48,1.44.39,1.58-.1,2.29.67,1,.54,1.19,1.94L89,46l1,.38,1.19,0,1-1.24,1.12-1,.81-.57,2-1V41l-.4-1.11V38.19l.41-2,.48-1.85.73-1.73.36-1,1,.71,1,.09.76,0,.6,2.16.42,3.6L101.41,41,101,43.85l-.67,1.77,0,.56.34.68-.27.93-.6.55h-.53l-.68,1.19-1.18,1-1.27,1-1.5.77-1.26.45-1.73.36L91,54l-1.57,1.07-1.11.71-1.3.71-1.09.59-.88.25-.65.05-.6,1.41-1,2.2-1.22,1.74-.8,1.56L79.4,65.78l-.21,1.67-.62,1.88,0,1.23s.25,1.34,0,1.74l-.25.39.2.76,1.31-1.6,1.12-1.53s.31-.72.66-.6a3.24,3.24,0,0,0,1.28-.18l1.74-.37L86,69h1.79l-1.23,1L85.2,72l-.51,2.08L85,75.59l.38,1.34L67.87,88.09,67,86.7l-.9-2.78,0-1.45v-.86L65.82,80l-.35-1.16-.78-1.73-.61-.64-.38-.64,2.35.64.94.64-.48-1.5-2.2-5.3-1.6-3.66-.94-3.73-.69-3.67-.26-3.08L60.52,54l.3-1-3-1.36-3.94-2.38L52.16,47l-.82-2.58-.71-1.49-1-.06,0-1.13L48.35,39.6l-1.32-3-.73-1.87L46,32.6Z"/><path class="cls-4" d="M83.14,30.12l-3.45-2.55-2.17-.77-2-.44-.25,1.95s.25,1.3,0,1.24-1.36.57-1.36.57H72.43l-.63.48.55,1-.82.88-1.47.87L68.78,34l.94.91-1.46,1.51L67,37.67l-1.19,1.09-1.07.87L65.38,41l2.21-.84-.64,2,.64,2,1.08,1.69L69.16,47l-.38,1.08-.2,1.64-1,1.23-1.31,1,1.61-.31,1.83-.1,1.57,1.67L73.06,55l1.52-.36,1.74-.83,1.57.65,1.79,1.74.33.9,1.11-.9.6,1.31.75-1.76.39-2.17.24-2.13,1.32-.69,1.09-.53L87,49.08l1.13-1,1-.24-.2-.84L89,46l-.32-1.1,1.68-.47,1.37-.78L91,42.4l0-.95L92,40.36l1-.08-.73-1.36-1.4-.29.07-.94-.82-.95-.33-.58.55-.75.75-.86-.69-1.08-.68-1.11.4-.9,1.41-.85.37-.45-1.78-.34-1.86-.27-2.09.27-1.79.3Z"/><polygon class="cls-4" points="98.34 31.58 97.69 30.63 97.22 29.74 96.81 29.13 96.66 28.27 96.41 27.21 96.29 26.36 96.29 25.86 96.91 26.77 97.33 27.6 97.71 28.06 98.06 27.69 98.34 26.8 98.73 25.47 99.19 24.28 99.5 23.72 99.72 23.07 99.93 22.51 100.11 22.02 100.3 21.5 100.59 21.76 100.7 22.52 101.2 22.63 101.59 23.07 102.44 23.11 102.53 23.94 102.42 24.9 102.53 25.35 102.49 27.21 102.15 28.57 101.8 29.48 101.54 30 101.19 30.61 100.79 31.18 99.75 32.34 98.72 32.25 98.34 31.58"/><polygon class="cls-4" points="45.75 30.26 46.7 28.82 47.13 27.88 47.39 26.43 46.57 24.57 45.58 24.07 44.56 23.78 43.87 23.81 43.43 24.09 42.2 23.73 41.34 23.37 40.31 23.37 39.57 23.01 39.06 23.51 39.71 24.09 40.69 24.57 41.97 25.16 43.22 25.56 42.3 25.77 42.05 26.02 42.68 26.31 42.54 26.73 42.13 26.9 41.76 27.05 42.05 27.57 42.3 27.91 41.76 28.1 41.34 28.26 40.94 28.28 41.5 28.96 42.3 29.63 42.92 29.55 43.65 30.14 44.74 30.6 45.58 30.61 45.75 30.26"/><polygon class="cls-4" points="63.7 75.84 60.93 74.91 58.87 74.45 56.98 74.07 55.38 74.91 54.41 75.84 54.59 77.64 55.45 80.02 56.69 82.79 58.48 85.1 60.45 87.32 62.06 88.77 64.57 90.57 67.87 88.09 66.76 85.59 65.96 83.2 66.03 82.47 65.82 80.02 65.21 78.41 64.36 76.84 63.7 75.84"/><polygon class="cls-4" points="87.82 68.99 88.95 69.54 90.1 69.8 90.9 70.56 92.46 71.85 93.24 72.84 90.84 74.07 88.11 75.53 85.94 76.72 85.16 76.44 84.81 75.02 84.86 73.37 85.2 71.99 86.25 70.44 87.04 69.54 87.82 68.99"/><path class="cls-5" d="M29.18,123.8S44.11,107,51.9,100.61,69.52,86.94,69.52,86.94l12.2-7.7,8.38-4.77,3.14-1.63,6.43-2.56.38,13-4.92,3.16-5.24,7.25L84.1,99.81l-5.61,6.67L66.05,113,58.86,116l-7.07,2.55-7,2.13-7.13,1.75Z"/><path class="cls-2" d="M91.18,90.92c.29-1,.1-2,.38-3a9.34,9.34,0,0,1,1.6-3c.3-.42-.39-1-.73-.56-1.25,1.48-2.65,4.79-1.5,6.64a.14.14,0,0,0,.25,0Z"/><path class="cls-2" d="M93.12,84.27v-.15c.16-.22-.21-.51-.38-.3-.93,1.13-1.85,3.57-1.16,5a.29.29,0,0,0,.52-.06,18.58,18.58,0,0,0,.28-2.39,14.22,14.22,0,0,1,.77-2.28h-.47a.86.86,0,0,0,.22.38c.1.11.3,0,.22-.17Z"/><path class="cls-2" d="M91.44,90.06c1.31-1,2.32-2.44,3.65-3.5a18,18,0,0,1,2.16-1.49,4,4,0,0,0,1.61-1.2.32.32,0,0,0-.27-.47c-1.46-.14-3.19,1.52-4.25,2.42a10.63,10.63,0,0,0-3.26,4c-.07.22.21.32.36.21Z"/><path class="cls-2" d="M98.92,83.41A1.35,1.35,0,0,1,98.7,82c.26-.42.83-.39,1.11-.8a.41.41,0,0,0,0-.45c-.69-1-2.09.13-2.36,1a1.59,1.59,0,0,0,1.31,2.1c.21,0,.26-.25.16-.38Z"/><path class="cls-2" d="M98.61,80.71a2.54,2.54,0,0,0-1.83,1.42c-.3.69-.49,1.87.25,2.32a.45.45,0,0,0,.67-.27c.09-.57-.3-1-.19-1.59a1.82,1.82,0,0,1,1.23-1.39.25.25,0,0,0-.13-.49Z"/><path class="cls-2" d="M96.94,82a4.54,4.54,0,0,0-1.38,2.45c-.1.59.83.84.91.25a5.15,5.15,0,0,1,.86-2.4c.16-.23-.2-.49-.39-.3Z"/><path class="cls-2" d="M95.7,84.7a3.74,3.74,0,0,1-2.11,1l.6.59c0-.9-.68-2.21-1.78-1.56s-.46,1.86.18,2.52a.55.55,0,0,0,.57.15,1.61,1.61,0,0,0,1.11-.92A1,1,0,0,0,94,85.32c-.84-.63-1.92.41-1.61,1.3a.27.27,0,0,0,.44.12,1.33,1.33,0,0,0,.34-.37c.23-.42,0-.23-.28-.12l.57.15c0-.05-.54-.54-.44-.62-.08.07,0,.39,0,.48a.6.6,0,0,0,.89.52A3.5,3.5,0,0,0,96,84.89a.17.17,0,0,0-.25-.19Z"/><path class="cls-2" d="M61.57,46.2a7.12,7.12,0,0,1,2.34-.28c.72,0,1.4.31,2.11.37.46,0,.52-.57.22-.79-1.35-1-3.52-.52-4.85.26a.24.24,0,0,0,.18.44Z"/><path class="cls-2" d="M55,42a5,5,0,0,0,1.45.23c.49.09,1,.41,1.46.28a.43.43,0,0,0,.25-.61c-.26-.53-1-.61-1.57-.68a2,2,0,0,0-1.65.35A.27.27,0,0,0,55,42Z"/><path class="cls-2" d="M49.93,33.13a22.73,22.73,0,0,1,1.72,1.68c.45.54.77,1.4,1.37,1.76a.23.23,0,0,0,.35-.2c.06-.74-.65-1.49-1.1-2a6,6,0,0,0-2-1.64c-.25-.12-.55.19-.32.42Z"/><path class="cls-2" d="M93.42,46.49c.42-.39.83-.79,1.26-1.17a5.22,5.22,0,0,0,1.19-1,.2.2,0,0,0-.18-.31,2.63,2.63,0,0,0-1.55.82,4.12,4.12,0,0,0-1.08,1.5c-.09.21.22.34.36.21Z"/><path class="cls-2" d="M96.87,35.68c-.62.77-1.26,2.14-.68,3.1a.28.28,0,0,0,.51-.06,7.82,7.82,0,0,0,.09-1.37,6.52,6.52,0,0,1,.36-1.51c.06-.15-.18-.29-.28-.16Z"/><path class="cls-2" d="M77.87,28.21a3.68,3.68,0,0,1,1.5.91,6.59,6.59,0,0,1,.84,1.45.2.2,0,0,0,.37,0c.31-1.42-1.37-2.78-2.66-2.71a.2.2,0,0,0,0,.39Z"/><path class="cls-2" d="M85.79,32.16a4,4,0,0,1,1.56-.37c.44,0,.89.07,1.33,0a.25.25,0,0,0,.12-.46c-1-.56-2.33-.06-3.23.44-.25.13,0,.48.22.37Z"/><path class="cls-2" d="M78.45,38.32a2.25,2.25,0,0,0-2.39.58,2.05,2.05,0,0,0-.42,2.39.24.24,0,0,0,.44-.12,2.8,2.8,0,0,1,.49-1.87,2.24,2.24,0,0,1,1.84-.68c.18,0,.2-.25,0-.3Z"/><path class="cls-2" d="M81.64,41.25c-.74-1.16-2.41-.26-2.41,1a1.67,1.67,0,0,0,2.85,1.15c1.12-1.21-.54-3.22-1.86-2.07a1.25,1.25,0,0,0-.11,1.83c.48.47,1.51.58,1.83-.12a.68.68,0,0,0-.75-1,1.21,1.21,0,0,0-.27.09s.17,0,.2,0,0,.25,0,.28a.3.3,0,0,1-.51.13c-.61-.52.41-1,.85-.93.16,0,.27-.2.19-.33Z"/><path class="cls-2" d="M87.1,42.57c-.49-.25-.95.27-1.13.68a1.7,1.7,0,0,0,3,1.52,1.64,1.64,0,0,0-1.69-2.39,1.59,1.59,0,0,0-1.21,1,1.07,1.07,0,0,0,.58,1.38.41.41,0,0,0,.5-.29c.08-.19.13-.72.37-.78s.46.45.26.66c-.35.36-.89,0-1-.41s.39-.78.37-1.22a.22.22,0,0,0-.11-.18Z"/><path class="cls-2" d="M87.64,43.79h0c-.15-.13-.46-.1-.5.13a1,1,0,0,0,.12.72.42.42,0,1,0,.58-.58l-.1.07a.18.18,0,0,0,0-.33Z"/><path class="cls-2" d="M77.11,49.6c.32,0,.41-.31.52-.57a.3.3,0,0,0,0-.35.22.22,0,0,0-.2-.08.27.27,0,0,0-.25.14c-.06.13-.44.85,0,.86Z"/><path class="cls-2" d="M77.54,49.25a1.41,1.41,0,0,0,.27-.37.15.15,0,0,0-.24-.18,1.68,1.68,0,0,0-.27.37.15.15,0,0,0,.24.18Z"/><path class="cls-2" d="M78.54,49.61a1,1,0,0,0,.84-.08c.12-.09.18-.32,0-.4a1,1,0,0,0-.89.09.21.21,0,0,0,.05.39Z"/><path class="cls-2" d="M78.48,49.54a.79.79,0,0,0,.62-.07c.17-.09.07-.3-.08-.32a.76.76,0,0,0-.58.14.14.14,0,0,0,0,.25Z"/><path class="cls-6" d="M73.19,34.82c-.56-.73-1.59-.43-2.18.12a2.26,2.26,0,0,0-.42,2.6.58.58,0,0,0,.66.27.49.49,0,0,0,.26-.15.61.61,0,0,0,.1-.71,1.08,1.08,0,0,1,.23-1.37,3.89,3.89,0,0,1,1.29-.5.15.15,0,0,0,.06-.26Z"/><path class="cls-6" d="M89.1,37.14a.94.94,0,0,1,.86.5c.12.34-.12.59-.36.8-.41.36.12,1,.58.74a1.5,1.5,0,0,0,.56-1.94A1.31,1.31,0,0,0,89,36.68a.25.25,0,0,0,.13.46Z"/><path class="cls-6" d="M65.94,41a10.12,10.12,0,0,0,1.53-1.66c.46-.47,1.27-.93,1.31-1.65a.43.43,0,0,0-.32-.41c-.81-.13-1.45.73-1.91,1.29a4.18,4.18,0,0,0-1.15,2.12.36.36,0,0,0,.54.31Z"/><path class="cls-6" d="M67.24,41c-1.27,1.91,0,4.45,1.91,5.34.66.32,1.24-.67.58-1-1.81-.85-2.2-2.37-2.11-4.24,0-.22-.27-.27-.38-.11Z"/><path class="cls-6" d="M69.34,45.94a12.77,12.77,0,0,1-.22,3,4.67,4.67,0,0,1-.66,1.32c-.28.4-.6.61-.73,1.08a.23.23,0,0,0,.28.28c1-.15,1.71-1.72,2-2.61a3.69,3.69,0,0,0-.29-3.24c-.12-.15-.33,0-.35.15Z"/><path class="cls-6" d="M67.78,51.39c.49.46,1.44.27,2,.19s.66-1,0-1-1.63,0-2,.49a.24.24,0,0,0,0,.3Z"/><path class="cls-6" d="M70,50.86c.14,1.62,1.75,3.18,2.91,4.19a.55.55,0,0,0,.76,0l.09-.11a.55.55,0,0,0-.09-.65,13,13,0,0,1-1.77-1.71,12.58,12.58,0,0,0-1.54-1.86c-.12-.11-.37-.06-.36.14Z"/><path class="cls-6" d="M73.24,54.62A11,11,0,0,0,74.57,54c.38-.21.8-.39,1-.81a.27.27,0,0,0-.25-.33c-.44,0-.81.31-1.15.55a10.28,10.28,0,0,0-1.11.86c-.17.15,0,.49.23.4Z"/><path class="cls-6" d="M74.47,53.45a28.68,28.68,0,0,1,2.81.68,5.47,5.47,0,0,1,2.3,2.09.44.44,0,0,0,.76-.44,5.31,5.31,0,0,0-2.63-2.49c-.91-.4-2.41-.77-3.28-.13a.16.16,0,0,0,0,.29Z"/><path class="cls-6" d="M80.13,56.58a2.45,2.45,0,0,0,1.14-1.11c.07-.17-.14-.37-.31-.31a2.5,2.5,0,0,0-1.11,1.14.21.21,0,0,0,.28.28Z"/><path class="cls-6" d="M80.6,55.54a3.81,3.81,0,0,0,1,2,.42.42,0,0,0,.69-.4A3.76,3.76,0,0,0,81,55.29a.26.26,0,0,0-.44.25Z"/><path class="cls-6" d="M81.94,57.08c1-1.36,1.7-3.58,1.07-5.22a.41.41,0,0,0-.81.11c-.1.79,0,1.6-.09,2.4a13.79,13.79,0,0,1-.55,2.55.21.21,0,0,0,.38.16Z"/><path class="cls-6" d="M82.26,50.66c-.23,1.14,1.43,1.34,2,.61s-.34-1.58-1-1c-.26.27-.63.06-.95.21l.26,0h-.08a.26.26,0,0,0-.32.18Z"/><path class="cls-6" d="M79.05,49.51A1.62,1.62,0,0,0,80,51c.5.27,1.35.51,1.81,0a.67.67,0,0,0,.12-.8.87.87,0,0,0-.85-.37c-.63,0-.91-.38-1.41-.71a.45.45,0,0,0-.66.39Z"/><path class="cls-6" d="M78.64,51.47c.15-1.14-1.46-2.1-2.21-2.74-.49-.43-1.92-2.12-2.67-1.2s1.15,2,1.64,2.46c.75.65,1.93,2.08,3,1.75a.28.28,0,0,0,.2-.27Z"/><path class="cls-6" d="M72.49,46.44l-.11,0,.17.18c0-.16-.13-.27-.18-.42a1.73,1.73,0,0,1,0-.6.7.7,0,0,0-1.29-.35,1.2,1.2,0,0,0,.31,1.49A1.33,1.33,0,0,0,72,47c.22,0,.34-.1.52-.13s.19-.36,0-.43Z"/><path class="cls-6" d="M72.3,44.42c-.13-.7.3-1.48.06-2.15a.41.41,0,0,0-.67-.18c-.69.67-.17,1.8.18,2.51.12.26.48.07.43-.18Z"/><path class="cls-6" d="M73.46,40.08a4.79,4.79,0,0,0,.4-.82,4.33,4.33,0,0,0,.52-.84.39.39,0,0,0-.26-.47c-.54-.19-1.11.34-1.29.8s-.17,1.16.31,1.37a.29.29,0,0,0,.32,0Z"/><path class="cls-6" d="M75.57,37.58A2.81,2.81,0,0,1,76,36.46a.24.24,0,0,0-.14-.35.93.93,0,0,0-.93.54.89.89,0,0,0,.19,1.13.28.28,0,0,0,.47-.2Z"/><path class="cls-6" d="M76.74,36.1c-.1-.34.18-.6.33-.87a.25.25,0,0,0-.09-.35.72.72,0,0,0-1,.44.87.87,0,0,0,.32,1.1c.2.15.46-.1.41-.32Z"/><path class="cls-6" d="M78.59,35.71a2.73,2.73,0,0,1,.34-.6c.11-.15.33-.29.41-.46a.31.31,0,0,0-.11-.44.35.35,0,0,0-.4,0,2,2,0,0,0-.74,1.31.26.26,0,0,0,.5.14Z"/><path class="cls-6" d="M80.59,34.7c.38-.55.85-.42,1.41-.52a.28.28,0,0,0,.12-.47c-.67-.54-1.67,0-2,.69a.3.3,0,0,0,.51.3Z"/><path class="cls-6" d="M83.24,35a6.61,6.61,0,0,1,1.53-.14A2.19,2.19,0,0,0,86,34.74a.21.21,0,0,0,.07-.29c-.56-.86-2.29-.42-3,.08a.23.23,0,0,0,.17.42Z"/><path class="cls-6" d="M84.64,34.9A7,7,0,0,1,86.25,36c.39.42.55,1.26,1.13,1.43a.47.47,0,0,0,.5-.2c.45-.68-.51-1.68-1-2.08a2.78,2.78,0,0,0-2.18-.74c-.22,0-.23.36-.06.46Z"/><path class="cls-6" d="M87.06,36.73a5.79,5.79,0,0,0-.35,1.6,6.09,6.09,0,0,0-.2,1.74.3.3,0,0,0,.5.21,3.17,3.17,0,0,0,.34-3.55.17.17,0,0,0-.29,0Z"/><path class="cls-6" d="M85.42,43a5.69,5.69,0,0,0,2-.48,3.84,3.84,0,0,0,1.75-.86.38.38,0,0,0-.27-.65,3.9,3.9,0,0,0-1.88.55,5.33,5.33,0,0,0-1.8,1,.27.27,0,0,0,.19.46Z"/><path class="cls-6" d="M81.26,39.6c.14.56.29,1.12.47,1.66a3.29,3.29,0,0,0,.61,1.31.25.25,0,0,0,.42-.18,4,4,0,0,0-.43-1.52q-.3-.73-.66-1.44c-.11-.24-.47-.07-.41.17Z"/><path class="cls-6" d="M77.76,41.41a2.43,2.43,0,0,0,1.35,2.5c.78.43,2.41.76,2.84-.27a.38.38,0,0,0-.17-.41,1.27,1.27,0,0,0-.88-.12,2.47,2.47,0,0,1-1.31-.26c-.69-.36-1-1-1.45-1.54a.23.23,0,0,0-.38.1Z"/><path class="cls-6" d="M85.27,45a2.54,2.54,0,0,0,1.81,1.57c.65.17,1.87.23,2.11-.57a.28.28,0,0,0-.19-.34c-.5-.2-1.13.12-1.67,0a3,3,0,0,1-1.63-.94.26.26,0,0,0-.43.26Z"/><path class="cls-6" d="M98.93,27.9a6.16,6.16,0,0,0,2.18.91c1.07.27,1.53-1.4.46-1.65A6.71,6.71,0,0,0,99.05,27c-.48.09-.42.69-.12.92Z"/><path class="cls-6" d="M44,26a1.59,1.59,0,0,1,.6.52.61.61,0,0,1-.29.85.41.41,0,1,0,.4.7,1.52,1.52,0,0,0,.53-1.6,1.08,1.08,0,0,0-1.19-.81A.19.19,0,0,0,44,26Z"/><path class="cls-6" d="M44,28c0,.1.07.35-.09.39-.59.13-.09,1.09.36.63s.57-1,0-1.26A.21.21,0,0,0,44,28Z"/><path class="cls-6" d="M43.75,28.78c0,.1,0,.45-.15.44-.75,0-.35,1.28.3.73a.88.88,0,0,0,.15-1.35.18.18,0,0,0-.3.18Z"/><path class="cls-6" d="M44.71,25.86c.4.49,2,.46,1.88-.38a.25.25,0,0,0-.23-.23c-.28,0-.42.19-.67.27a2,2,0,0,1-.84,0c-.19,0-.24.23-.14.35Z"/><path class="cls-6" d="M41.67,24.88a1,1,0,0,0,.35-.65.17.17,0,0,0-.25-.14,1,1,0,0,0-.44.53c-.1.21.17.46.34.26Z"/><path class="cls-2" d="M68.5,57.8a7,7,0,0,1,1.59-.15,2.48,2.48,0,0,0,1.24,0,.25.25,0,0,0,.09-.35c-.62-.85-2.37-.37-3.09.1a.22.22,0,0,0,.17.41Z"/><path class="cls-2" d="M77.85,58.71c.39.15.81.2,1.2.33s.73.45,1.13.4a.39.39,0,0,0,.37-.48c-.13-.53-.77-.73-1.24-.85a2,2,0,0,0-1.51.15.25.25,0,0,0,0,.45Z"/><path class="cls-2" d="M68.39,63.84c-1.56,1.27-2.13,5.09-.4,6.41.16.12.34,0,.36-.2.07-1-.37-1.9-.33-2.9a15.68,15.68,0,0,1,.72-3.1.21.21,0,0,0-.35-.21Z"/><path class="cls-2" d="M61.81,59.39a8.38,8.38,0,0,0,.42,3.33,6.3,6.3,0,0,0,1.27,2.73c.14.13.47,0,.44-.18A20,20,0,0,0,63,62.5c-.31-1-.43-2.13-.72-3.18a.25.25,0,0,0-.49.07Z"/><path class="cls-2" d="M77.78,64a6.62,6.62,0,0,1,0,3.19c0,.32.41.38.56.15a3.5,3.5,0,0,0-.23-3.5c-.1-.2-.46-.06-.38.16Z"/><path class="cls-2" d="M69.94,76.48c1.61-.27,3.65-.77,4.76-2.07a.25.25,0,0,0-.25-.41,13,13,0,0,0-2.12.88,18,18,0,0,1-2.57.94.34.34,0,0,0,.18.66Z"/><path class="cls-2" d="M66.72,78.78a8,8,0,0,1,1.86,1c.48.35.91.93,1.53,1a.43.43,0,0,0,.41-.41c.06-.73-.85-1.35-1.4-1.68a5.27,5.27,0,0,0-2.28-.76c-.57-.06-.58.75-.12.92Z"/><path class="cls-2" d="M79.31,76.33a17.05,17.05,0,0,0,1.22-2c.53-.74,1.2-1.34,1.78-2,.25-.29,0-.9-.42-.72a4.67,4.67,0,0,0-2.19,2,4,4,0,0,0-.83,2.71.27.27,0,0,0,.44.11Z"/><path class="cls-2" d="M63.22,76.59c-1.6-.91-4-2.24-6-1.91-1.68.29-1.78,2.26-1.06,3.46a.42.42,0,0,0,.78-.21c0-.75.19-1.54,1-1.83.37-.14,1.35.27,1.75.35,1.1.21,2.19.39,3.28.59a.25.25,0,0,0,.19-.45Z"/><path class="cls-2" d="M60.17,85.82a9.91,9.91,0,0,0,1.22,1,2.69,2.69,0,0,0,1.28.67c.21,0,.31-.23.22-.39a2.75,2.75,0,0,0-1.12-.93,7.92,7.92,0,0,0-1.37-.75c-.23-.09-.37.23-.23.39Z"/><path class="cls-2" d="M87.05,71.24c.26.22.57.17.88.23A4.51,4.51,0,0,1,89,72c.42.2,1-.23.69-.69a1.92,1.92,0,0,0-1.47-.75c-.43,0-1.07,0-1.21.51a.19.19,0,0,0,0,.19Z"/><path class="cls-2" d="M63.81,95.39c3.79-2,7.12-5,10.75-7.29C78,86,82,84.4,85.18,81.91c.57-.45-.06-1.28-.66-1.14-4,.92-7.9,3.78-11.29,5.94s-7.47,4.6-10.08,7.82a.55.55,0,0,0,.66.86Z"/><path class="cls-2" d="M80.69,95.88a12.45,12.45,0,0,0-1.2,3.21.65.65,0,0,0,1.26.35,11,11,0,0,0,.9-3c0-.4-.58-.7-.86-.35a11.19,11.19,0,0,0-1.3,3l1.26.35c.19-1.11.25-2.22.51-3.32.08-.33-.41-.57-.57-.24Z"/><path class="cls-2" d="M38.28,117.16c2-1.63,3.7-3.54,5.57-5.27s4.08-3.21,5.73-5.09a.33.33,0,0,0-.39-.52c-2.22,1.21-4.14,3.26-6,5A38.52,38.52,0,0,0,38,116.94c-.13.18.13.34.28.22Z"/><path class="cls-2" d="M32.77,83.29a12.54,12.54,0,0,1,4.44-.36c1.4.18,2.54,1,3.89,1.21.35,0,.73-.3.5-.66-1.71-2.64-6.79-2.34-9.09-.8a.34.34,0,0,0,.26.61Z"/><path class="cls-2" d="M66.76,126.86c3.11.39,6.54-1.54,9.06-3.17s5.79-3.75,7.43-6.27c.27-.41-.24-.81-.62-.62-2.73,1.34-4.92,4-7.49,5.73s-5.67,2.47-8.51,3.85c-.25.13-.09.45.13.48Z"/><path class="cls-2" d="M101.38,109.76c1.57-1.36,2.6-3.37,4-4.93,1.22-1.4,3.25-2.66,4.06-4.31a.51.51,0,0,0-.58-.75c-1.91.47-3.58,2.72-4.78,4.19s-2.83,3.45-3.14,5.52a.29.29,0,0,0,.48.28Z"/><path class="cls-2" d="M118.1,103.51c1.72-1.7,3.37-3.47,5-5.29a10.85,10.85,0,0,1,2-1.92c.83-.56,1.78-.55,2.47-1.26a.5.5,0,0,0,0-.7c-3-3.11-8.81,6.93-10,8.72-.23.35.28.73.58.45Z"/><path class="cls-2" d="M110.72,92.53a18.44,18.44,0,0,1,6-3.7c1.87-.69,3.9-.59,5.72-1.27a.59.59,0,0,0,0-1.12c-4.31-1.47-9.72,2.54-12.1,5.78-.18.24.2.5.4.31Z"/><path class="cls-2" d="M94.87,92.56a10.59,10.59,0,0,0,1.68-2.13,14,14,0,0,1,2.18-2.24c1.7-1.42,3.69-1.7,5.54-2.73a.82.82,0,0,0-.42-1.52c-2.13-.26-4.72,1.42-6.28,2.71S94,90.18,94.15,92.27a.42.42,0,0,0,.72.29Z"/><path class="cls-2" d="M82.2,108.39c1-1.77,1.79-3.69,3-5.41s2.91-3,3.85-4.77a.53.53,0,0,0-.59-.76c-2,.66-3.42,2.68-4.56,4.39a13.27,13.27,0,0,0-2.47,6.33.44.44,0,0,0,.81.22Z"/><path class="cls-2" d="M114.32,79.8c2.38-1.54,2.74-4.75,5-6.42,2.11-1.54,4.91-1.65,7-3.21.24-.19.29-.7-.1-.76-2.51-.35-5.45.89-7.45,2.33-2.56,1.85-3.36,5-4.82,7.68-.13.23.14.54.38.38Z"/><path class="cls-2" d="M154.67,74.86c2.51,3.68,10.35,6.33,14.31,3.67.37-.24.38-.94-.13-1-2.24-.4-4.5.13-6.78-.34-2.49-.52-4.59-1.81-6.9-2.8-.3-.13-.73.16-.5.5Z"/><path class="cls-2" d="M151.82,68.24c3,3.56,9.66-.38,11.5-3.35.15-.25-.11-.65-.41-.53-1.69.7-3,2-4.64,2.84-2.18,1.08-4,.72-6.24.54-.28,0-.36.32-.21.5Z"/><path class="cls-2" d="M154.07,61.09c2.11,1,5-2.25,6.21-3.65,1.61-1.88,4.57-4.89,3.66-7.57-.31-.89-1.78-.81-1.73.24.13,2.41-2.62,5.32-4.16,7a16.13,16.13,0,0,1-2.81,2.41c-.7.5-1,.58-1.26,1.35a.21.21,0,0,0,.09.23Z"/><path class="cls-2" d="M107.44,129.12c10.33,3,22.1-3.78,30.33-9.32,4.74-3.2,9.27-6.71,14-9.86a74.8,74.8,0,0,1,7.33-4.31c2.65-1.35,5.48-2.21,8.17-3.44.91-.42.2-1.61-.63-1.49-4.95.73-9.9,3.77-14.06,6.39-4.73,3-9.17,6.36-13.72,9.59a76.31,76.31,0,0,1-14.42,8.37c-5.54,2.32-11,2.91-16.94,3.24a.43.43,0,0,0-.11.83Z"/><path class="cls-2" d="M132.61,108.91a13.69,13.69,0,0,0,2.84-2.8,29.38,29.38,0,0,1,4.2-3.67,33,33,0,0,1,9.26-4.27.93.93,0,0,0-.49-1.8,25.56,25.56,0,0,0-10.08,4.6c-2.31,1.68-5.94,4.42-6.47,7.38a.51.51,0,0,0,.74.56Z"/><path class="cls-1" d="M148.94,59.47A12.42,12.42,0,0,0,155.11,54c0-.11-.1-.25-.18-.14a25.93,25.93,0,0,1-2.58,3,19.29,19.29,0,0,1-3.52,2.42c-.12.08,0,.3.11.25Z"/><path class="cls-7" d="M123.71,109.54a63.15,63.15,0,0,1,12.67-13.79s0-.12-.07-.08a43.82,43.82,0,0,0-12.78,13.77.1.1,0,0,0,.18.1Z"/><path class="cls-7" d="M138.35,94.73l.25-.25s0,0,0,0l-.25.25s0,0,0,0Z"/><path class="cls-7" d="M127.09,88.71a25.69,25.69,0,0,0,14.79-11.46.05.05,0,1,0-.09-.06,31.69,31.69,0,0,1-14.74,11.4.06.06,0,0,0,0,.12Z"/><path class="cls-7" d="M124.62,80.26a8.24,8.24,0,0,0,5.06-6c0-.1-.11-.14-.15,0a10.69,10.69,0,0,1-5,6c-.06,0,0,.12.06.09Z"/><path class="cls-7" d="M148.68,60.11a14.81,14.81,0,0,0,6.26-6.58c.06-.13-.11-.31-.22-.17-1,1.16-1.8,2.42-2.84,3.52s-2.24,2-3.35,3c-.1.1,0,.24.15.19Z"/><path class="cls-7" d="M97.14,97.83c4-4.9,7.9-9.81,11.77-14.78.14-.17-.1-.41-.24-.24-4,4.91-7.82,9.89-11.67,14.87-.09.11.06.26.14.15Z"/><path class="cls-7" d="M115.13,71.54a6.88,6.88,0,0,0,3.09-6.85c0-.13-.24-.1-.24,0a8.2,8.2,0,0,1-3,6.68.09.09,0,0,0,.1.14Z"/><path class="cls-7" d="M42.09,92.07c4.93-.77,10-1.28,14.87-2.5a.14.14,0,0,0,0-.28c-5,.43-10,1.61-14.91,2.49-.19,0-.11.32.08.29Z"/><path class="cls-7" d="M50.4,124.42c4.43-2.91,9.37-3.75,14.36-5.21,3.74-1.09,7.64-2.69,10-6,.1-.15-.13-.32-.26-.19-3.55,3.68-8,5.19-12.84,6.41-4,1-8.2,2-11.45,4.67-.17.14,0,.42.23.3Z"/><path class="cls-7" d="M80.46,131.77c3.11-4.54,9.07-5.59,13.11-9.08a20.28,20.28,0,0,0,6.81-12.31c0-.12-.16-.18-.19,0a21.7,21.7,0,0,1-9.32,13.76c-3.73,2.36-8.12,3.7-10.68,7.52-.11.17.16.32.27.16Z"/><path class="cls-7" d="M135.33,91.23c4.88-.38,10.64-4.66,11.65-9.63a.22.22,0,0,0-.4-.17c-1.26,2.18-2.26,4.27-4.23,6A18.12,18.12,0,0,1,135.29,91c-.14,0-.12.28,0,.26Z"/><path class="cls-8" d="M82.86,33.37c.07,0,.07-.12,0-.12a.06.06,0,1,0,0,.12Z"/><path class="cls-9" d="M83.13,33.43c-.28-.2-.57-.39-.87-.58-.05,0-.16,0-.17.07,0,.35-.11.7-.15,1,0,.11.16.13.19,0,.07-.34.13-.68.19-1l-.17.07.87.57c.12.08.24-.12.11-.2Z"/><path class="cls-9" d="M81.38,33.87l-1.26-.6a.11.11,0,0,0-.16.09c0,.26,0,.53-.07.79L80,34c-.35,0-.71,0-1.06,0-.14,0-.13.2,0,.21.35,0,.71,0,1.06,0a.12.12,0,0,0,.11-.11l.06-.79-.16.09L81.3,34a.09.09,0,0,0,.08-.15Z"/><path class="cls-9" d="M77.86,34.81c-.51-.3-1.45-.26-1.69.39a.1.1,0,0,0,.14.11,2.58,2.58,0,0,1,.64-.38,1.25,1.25,0,0,1,.83.07c.11,0,.18-.13.08-.19Z"/><path class="cls-9" d="M75.85,36l-1.24.37c-.09,0-.14.16-.06.22L75,37c.07.06.21,0,.23-.06.09-.51-.62-1-1-.52s.11,1.08.59.86c.09,0,.06-.18,0-.21s-.32-.1-.33-.27,0-.18.19-.14c.22-.12.31,0,.3.21l.22-.06-.44-.35-.06.22,1.24-.38a.13.13,0,0,0-.07-.24Z"/><path class="cls-9" d="M74.21,38.86a.69.69,0,1,0-.56,1.25l.08-.32a1.76,1.76,0,0,0-1.37.43c0,.06,0,.17.07.16.45,0,.84-.24,1.3-.25a.17.17,0,0,0,0-.33c-.31-.47-.29-.7,0-.7a.26.26,0,0,1,.27,0c.14.06.25-.2.11-.26Z"/><path class="cls-9" d="M72.81,41.7c-.33.08-.67.14-1,.23a.16.16,0,0,0,0,.31.61.61,0,0,1,.53.68c0,.17.27.21.3,0a.88.88,0,0,0-.75-1v.31c.33-.09.64-.22,1-.33a.11.11,0,0,0-.06-.21Z"/><path class="cls-9" d="M72.11,43.47a3.76,3.76,0,0,0-.84,2.22.14.14,0,0,0,.15.15l.76,0a.15.15,0,0,0,0-.3l-.76,0,.15.15a3.6,3.6,0,0,1,.71-2.09c.07-.1-.1-.22-.17-.13Z"/><path class="cls-9" d="M72.34,46.15a1.29,1.29,0,0,0,.47,1.55l.15-.25.11-.05a.14.14,0,0,0,.28,0,.39.39,0,1,0-.54.3c.16.11.3-.14.15-.25a1,1,0,0,1-.4-1.24c0-.14-.17-.19-.22-.06Z"/><path class="cls-9" d="M74.37,48.11a3.25,3.25,0,0,0-.06.87c0,.17.28.28.41.39a5.79,5.79,0,0,0,1.36,1c.07,0,.15-.07.11-.13a4.35,4.35,0,0,0-1-.85c-.19-.14-.48-.28-.59-.5a1.89,1.89,0,0,1-.06-.79c0-.1-.15-.1-.16,0Z"/><path class="cls-9" d="M78.5,50.53a0,0,0,0,0,0,0,0,0,0,0,0,0,0Z"/><path class="cls-9" d="M83,44a24.52,24.52,0,0,0,.56,2.68,10.65,10.65,0,0,0,.79,2.61.12.12,0,0,0,.22-.06,10,10,0,0,0-.46-2.48,24.72,24.72,0,0,0-.78-2.8c-.06-.16-.35-.15-.33,0Z"/><path class="cls-9" d="M84.26,49.33a6.09,6.09,0,0,0-1.58-1.15c-.12,0-.27.13-.18.24a5.81,5.81,0,0,0,1.59,1.13c.13.08.29-.12.17-.22Z"/><path class="cls-9" d="M82.59,48.53c-.1.66-.17,1.32-.25,2a.14.14,0,0,0,.2.12L83.8,50c.15-.08,0-.31-.14-.23-.42.2-.84.42-1.25.64l.2.11c.07-.64.15-1.29.2-1.94,0-.12-.2-.15-.22,0Z"/><path class="cls-9" d="M83.29,49.56c.58,0,.62-.6.42-1a.17.17,0,0,0-.29,0,11.21,11.21,0,0,0-.72,1.2c0,.12.1.27.2.15.3-.36.54-.79.81-1.18l-.19.07c.3.06-.09.5-.23.49a.13.13,0,0,0,0,.26Z"/><path class="cls-9" d="M82.94,48.77a2.08,2.08,0,0,0,.06.9.08.08,0,0,0,.15,0,2.09,2.09,0,0,0,.06-.9.14.14,0,0,0-.27,0Z"/><path class="cls-9" d="M82.33,50.28a1.78,1.78,0,0,1-2.4.22,1.86,1.86,0,0,1-.1-2.41c.06-.11-.07-.25-.18-.18a1.89,1.89,0,0,0,0,2.88,2,2,0,0,0,2.78-.41.08.08,0,0,0-.13-.1Z"/><path class="cls-9" d="M84.42,48.6a21.37,21.37,0,0,0,2.19-2.17.07.07,0,0,0-.1-.11,23.6,23.6,0,0,0-2.17,2.19c0,.06,0,.14.08.09Z"/><path class="cls-9" d="M85.33,47.76a11.17,11.17,0,0,0,1.73-2.21.08.08,0,0,0-.12-.1,11.7,11.7,0,0,0-1.78,2.18c-.07.1.09.23.17.13Z"/><path class="cls-9" d="M86.93,42.82a1.55,1.55,0,0,1,1.74,1,1.3,1.3,0,0,1-1,1.58,1.23,1.23,0,0,1-1.57-.8,1.58,1.58,0,0,1,.5-1.65.13.13,0,0,0-.15-.2,1.68,1.68,0,0,0-.59,2.08,1.55,1.55,0,0,0,2,.83A1.6,1.6,0,0,0,89,43.74a1.74,1.74,0,0,0-2.09-1.2c-.13.05-.13.3,0,.28Z"/><path class="cls-9" d="M86.78,43.86a.49.49,0,0,0-.24,0,.09.09,0,0,0,0,.17.63.63,0,0,0,.24,0,.12.12,0,0,0,0-.24Z"/><path class="cls-9" d="M85.33,43.24a10,10,0,0,1,2.11-.89c.65-.18,1.35-.19,2-.41.14,0,.18-.3,0-.32-1.4-.19-3.08.67-4.24,1.38a.14.14,0,0,0,.14.24Z"/><path class="cls-9" d="M80,40.8a1.32,1.32,0,0,0-.85,2.11,2,2,0,0,0,2.69.54,1.61,1.61,0,0,0,.33-2.38,1.32,1.32,0,0,0-2.08.3.12.12,0,0,0,.2.12A1.11,1.11,0,0,1,82,41.3a1.3,1.3,0,0,1-.32,1.94,1.71,1.71,0,0,1-1.9-.16A1.14,1.14,0,0,1,80.07,41a.1.1,0,0,0,0-.2Z"/><path class="cls-9" d="M80.57,42.24l0,.22c0,.16.27.16.25,0l0-.22a.11.11,0,1,0-.21,0Z"/><path class="cls-9" d="M83,43.07a36.21,36.21,0,0,0-1.47-3.79.25.25,0,0,0-.46.19,34.17,34.17,0,0,0,1.62,3.73c.07.18.38,0,.31-.13Z"/><path class="cls-9" d="M84.61,34.09c.57-.06,1.13-.12,1.7-.2l-.08-.2L85,34.45a.12.12,0,0,0,.09.22,4.13,4.13,0,0,0,1.05-.25c.07,0,0-.13,0-.13a4,4,0,0,0-1.08.15l.09.22,1.21-.78a.11.11,0,0,0-.09-.2c-.55.09-1.11.18-1.66.29-.06,0,0,.13,0,.12Z"/><path class="cls-9" d="M86.93,35.81l1.1.66v-.2c-.36.24-.74.46-1.07.72-.1.08,0,.22.12.17.37-.2.72-.46,1.07-.69a.12.12,0,0,0,0-.2l-1.09-.67a.12.12,0,0,0-.13.21Z"/><path class="cls-9" d="M87.11,38.42l.49.39,0-.22-.86.43a.14.14,0,0,0,.07.27,7.1,7.1,0,0,0,1,0c.14,0,.2-.25,0-.27A7.54,7.54,0,0,0,86.84,39l.07.27.87-.43a.15.15,0,0,0,0-.23l-.49-.39c-.14-.11-.34.09-.2.2Z"/><path class="cls-9" d="M86.72,40.17c.26.17.53.33.81.49l0-.22-.54.42c-.1.08,0,.25.11.25l.58,0c.19,0,.19-.3,0-.29l-.58,0,.1.26.53-.43a.14.14,0,0,0,0-.22c-.28-.15-.56-.3-.85-.43a.1.1,0,0,0-.1.18Z"/><path class="cls-9" d="M76.35,50.84c.72-.12,1.4-.35,2.1-.53l-.13-.1a.58.58,0,0,0,.62.61.07.07,0,0,0,0-.13l-.43-.48a.09.09,0,0,0-.12-.09c-.71.16-1.41.28-2.11.51a.11.11,0,0,0,.06.21Z"/><path class="cls-9" d="M79.34,50.64c.21.07.43.15.65.2s.13-.09.05-.12-.44-.16-.66-.24-.14.13,0,.16Z"/><path class="cls-9" d="M78.92,49.07a8.49,8.49,0,0,0-1.24.24.15.15,0,0,0,0,.28l1.64.27c.19,0,.28-.27.08-.3l-1.64-.25v.28A8.36,8.36,0,0,0,79,49.18s0-.11,0-.11Z"/><path class="cls-9" d="M81.85,51.09a1.56,1.56,0,0,0,2.18.16c.08-.09,0-.27-.13-.22a1.7,1.7,0,0,1-1.84-.15.15.15,0,0,0-.21.21Z"/><path class="cls-9" d="M84.27,51a5,5,0,0,0,.22-.47c0-.1-.12-.16-.17-.07a3.55,3.55,0,0,0-.23.43c-.06.12.12.23.18.11Z"/><path class="cls-9" d="M84.52,50.74c.08-.64.15-1.29.24-1.93a.13.13,0,1,0-.25,0c-.05.65-.13,1.31-.19,2,0,.13.18.12.2,0Z"/><path class="cls-9" d="M84.49,49.24s.05.36.07.42.07,0,.08,0l.07-.42c.05-.18-.27-.19-.22,0Z"/><path class="cls-9" d="M84.75,48.57a2.38,2.38,0,0,1-.91,2.7c-.12.09,0,.26.15.19a2.44,2.44,0,0,0,1-3c-.06-.14-.29-.09-.23.06Z"/><path class="cls-9" d="M85,50a13.51,13.51,0,0,0-1.3,1.1c-.06.07,0,.2.11.14.48-.32.9-.73,1.34-1.09.1-.09,0-.24-.15-.15Z"/><path class="cls-9" d="M83.45,51.37l-.17.53a.12.12,0,0,0,.14.15.64.64,0,0,0,.44-1c0-.06-.14,0-.13.07a.52.52,0,0,1-.37.69l.15.15.15-.54a.11.11,0,1,0-.21-.06Z"/><path class="cls-9" d="M89.31,45.24c-.08.14-.15.29-.22.43s.13.26.2.12.15-.28.22-.43-.13-.26-.2-.12Z"/><path class="cls-9" d="M89.41,45.35A1.86,1.86,0,0,0,89,47.91l.14-.25c-1.54.17-3.11,1.78-4,3-.1.14.1.33.24.24C86.61,50,87.48,48.2,89.12,48c.12,0,.23-.13.15-.25a1.65,1.65,0,0,1,.3-2.23c.11-.09,0-.24-.16-.16Z"/><path class="cls-9" d="M89,45.38c.94-.53,1.9-1,2.86-1.54a.25.25,0,0,0,0-.39A1.63,1.63,0,0,1,93,40.56a.27.27,0,0,0,.23-.41,4.52,4.52,0,0,0-2.73-2.27c-.26-.07-.45.32-.19.45a5.31,5.31,0,0,1,2.45,2.09L93,40a2.11,2.11,0,0,0-1.47,3.79l.05-.39c-.92.58-1.84,1.14-2.78,1.68a.17.17,0,0,0,.17.29Z"/><path class="cls-9" d="M90.81,38.26a2.48,2.48,0,0,1,.81-3.69c.21-.11.12-.5-.13-.47l-1.45-1a2.12,2.12,0,0,1,.9-2,5.22,5.22,0,0,1,1.14-.72.28.28,0,0,0-.06-.5,12.43,12.43,0,0,0-7.7.11c-.37.12-.22.7.16.58a12.83,12.83,0,0,1,7.39-.17l-.06-.49c-1.1.57-2.43,1.49-2.34,2.9a1.83,1.83,0,0,0,2.09,1.77l-.2-.46a2.69,2.69,0,0,0-.75,4.27c.1.1.29,0,.2-.15Z"/><path class="cls-9" d="M83.47,30.53A13,13,0,0,0,74.78,26c-.31,0-.33.37-.14.51L73.5,29.75l-1-.14c-.2.15-.19-.48-.59.11.11-.16-1.26,1.14-1.08.89A.26.26,0,0,0,71,31c2.72.72-3.45,3.08-3.09,2.93-.24.1-.13.42.06.49,3,1.08-3.37,3.35-3.86,5.32a2.09,2.09,0,0,0,1.05,2.5.28.28,0,0,0,.4-.16c1.36-3.8,1.54,2.91,1.46,2.48a8.07,8.07,0,0,0,1.19,3,.27.27,0,0,0,.43,0c.13,2-.86,3.49-3,4.34a.25.25,0,0,0,.2.45c2.3-.61,3.31-1,5,.64a15.37,15.37,0,0,0,2.63,2.44.28.28,0,0,0,.4-.17q4.77-1.25,5.75,2.19a.27.27,0,0,0,.47,0c.79-1.51.82-.4,1.14.92a.28.28,0,0,0,.51.06,11.86,11.86,0,0,0,1.54-6.22.31.31,0,0,0-.61,0c0,.08-.58,7.25-1.62,3.27a.26.26,0,0,0-.47-.07c-1,1.75-1.09-.11-1.94-.9s-1.24-1.36-2.35-1.49c-3-.33-3.48,4.87-5.81-2.15a.24.24,0,0,0-.29-.16s-3.24.62-3.25,1c0-.17.95-.77,1-.94.9-1.79,1.62-2.69,1.73-4.75a.25.25,0,0,0-.43-.18c-2.09-1.63-2.51-3.56-1.28-5.82a.27.27,0,0,0-.26-.34c.45,0-3.25.64-2.37,1.09-.88-.45,4.76-4.91,5.21-5.66a.28.28,0,0,0-.17-.4c-2.83-1,1.53-2,2.73-2.52.17-.07.15-.3.06-.42-2.2-2.58,2.21-.24,3.35-2,.59-.89-.11-.95.11-2,.27-1.31-2.88-1.18.72-.82,2.13.22,4.38,2.29,5.79,3.68a.15.15,0,0,0,.21-.21Z"/><path class="cls-9" d="M77.08,43.61a6.2,6.2,0,0,0,1.13,1.53c.07,0,.2,0,.17-.09a6.42,6.42,0,0,0-1.07-1.57c-.1-.13-.33,0-.23.13Z"/><path class="cls-9" d="M77.88,45.84c-1.09-.25-2,1.38-1,2,.14.1.29-.09.22-.22a1,1,0,0,1,.79-1.54.15.15,0,0,0,0-.29Z"/><path class="cls-9" d="M73.76,34.42a2.43,2.43,0,0,0-3.51,1A2.37,2.37,0,0,0,72,38.59c.28,0,.27-.36.06-.45a2,2,0,0,1-1.3-2.54,1.91,1.91,0,0,1,2.74-.74c.28.18.54-.26.26-.44Z"/><path class="cls-9" d="M88.29,37a1.62,1.62,0,0,1,2.29.38c.65,1-.47,2.25-1.53,2.07-.33-.06-.48.44-.14.51a2,2,0,0,0,2.24-2.56,1.92,1.92,0,0,0-3-.61c-.1.11,0,.31.17.21Z"/><path class="cls-9" d="M67.76,44.5a7.63,7.63,0,0,0-9-.28c-.14.11-.07.36.12.3a14.44,14.44,0,0,1,4.36-.77,13.73,13.73,0,0,1,4.26,1.14.24.24,0,0,0,.23-.39Z"/><path class="cls-9" d="M61.48,43.06c-1.4-2.15-4.61-4-7.23-3.19a.31.31,0,0,0,.08.6,12.78,12.78,0,0,1,3.87.71,9.68,9.68,0,0,1,2.94,2.13c.17.17.47-.05.34-.25Z"/><path class="cls-9" d="M55.52,39.21c-.35-4.22-4.58-9.49-8.76-10.49a.25.25,0,0,0-.19.46c1.91,1.34,3.85,2.31,5.39,4.15a24.29,24.29,0,0,1,3.21,6c.07.17.37.08.35-.1Z"/><path class="cls-9" d="M45.44,30.26a22.8,22.8,0,0,0,3.93,11.56c.18.26.6,0,.43-.25a31.16,31.16,0,0,1-4.08-11.34c0-.16-.29-.12-.28,0Z"/><path class="cls-9" d="M49.85,40.65a3.17,3.17,0,0,0-.46,2.28.26.26,0,0,0,.17.17l1,.21c.34.06.49-.46.14-.52l-1-.16.17.17a2.7,2.7,0,0,1,.23-2c.08-.16-.15-.3-.24-.14Z"/><path class="cls-9" d="M50.82,44.48c1.14,4,4.67,7.8,9,8.24.33,0,.37-.47.08-.56-4.08-1.21-7.3-3.58-8.51-7.83a.29.29,0,0,0-.56.15Z"/><path class="cls-9" d="M59.74,52.79a6.23,6.23,0,0,1,1.51.56,11.38,11.38,0,0,0,1.11.75c.09,0,.14-.08.11-.15a2.44,2.44,0,0,0-1.2-1,3.59,3.59,0,0,0-1.5-.39c-.11,0-.14.17,0,.19Z"/><path class="cls-9" d="M60.72,52.67a7.49,7.49,0,0,0,0,1.77,8.14,8.14,0,0,0,.16,1.78c0,.13.25.15.28,0a7.09,7.09,0,0,0-.05-1.78,8.06,8.06,0,0,0-.19-1.77c0-.1-.19-.11-.21,0Z"/><path class="cls-9" d="M62.3,53.54a11.19,11.19,0,0,0-.67,5.28c0,.11.2.08.2,0a19.44,19.44,0,0,1,.63-5.2c0-.1-.12-.14-.16-.05Z"/><path class="cls-9" d="M60.36,53.56a52.73,52.73,0,0,0,6.28,23.06c.21.42.85,0,.63-.36a58.93,58.93,0,0,1-6.71-22.7c0-.12-.21-.13-.2,0Z"/><path class="cls-9" d="M72.6,80.81c-2.55-3.1-6.44-4.63-10.19-5.76-1.83-.56-5.84-2.41-7.63-.62-2,2,.39,6.07,1.44,7.94a24.21,24.21,0,0,0,8.16,8.52c.4.25.76-.37.37-.63a24.66,24.66,0,0,1-6.14-5.65c-1.12-1.47-6.46-9.25-1.92-10.17,1.91-.39,5.38,1.21,7.15,1.82a26.53,26.53,0,0,1,8.48,4.84.2.2,0,0,0,.28-.29Z"/><path class="cls-9" d="M68,88.66c-.53-3.81-2.9-8.22-5.26-11.2-.17-.22-.51.07-.38.3,1,1.8,2.11,3.51,3,5.37s1.49,3.81,2.45,5.61c.06.12.21,0,.19-.08Z"/><path class="cls-9" d="M69.82,77a14.18,14.18,0,0,0,5.77-2.56c.12-.09,0-.26-.15-.2a26.22,26.22,0,0,1-5.7,2.47.15.15,0,0,0,.08.29Z"/><path class="cls-9" d="M85.89,52.65a8.26,8.26,0,0,0-.8,2.18,10.51,10.51,0,0,0-.59,2.25c0,.19.26.24.35.09A10.37,10.37,0,0,0,85.63,55a8.44,8.44,0,0,0,.56-2.25.16.16,0,0,0-.3-.08Z"/><path class="cls-9" d="M85.08,54.58c-1.29,6.68-9.08,12.67-6.5,19.91a.14.14,0,0,0,.27-.07c-1.58-7.76,5.56-12.57,6.47-19.8,0-.14-.21-.17-.24,0Z"/><path class="cls-9" d="M88.67,46a6.67,6.67,0,0,0,1.53.49,2.86,2.86,0,0,0,1.41.18.15.15,0,0,0,.07-.24A3,3,0,0,0,90.34,46a6.66,6.66,0,0,0-1.6-.24.15.15,0,0,0-.07.27Z"/><path class="cls-9" d="M90.61,47.76c1.24-2.46,3.21-3.81,5.61-5,.22-.1.06-.43-.16-.38a9.24,9.24,0,0,0-5.69,5.23c-.07.16.16.31.24.14Z"/><path class="cls-9" d="M84.63,57.61a14.35,14.35,0,0,0,7.88-5.09c.07-.09-.06-.16-.13-.1a48.87,48.87,0,0,1-3.9,3c-1.26.78-2.62,1.34-3.94,2a.13.13,0,0,0,.09.23Z"/><path class="cls-9" d="M90.7,53.35a10.76,10.76,0,0,0,8.44-4.26c.12-.17-.14-.35-.28-.22C96.46,51.1,94,52.66,90.7,53c-.21,0-.22.34,0,.33Z"/><path class="cls-9" d="M98.73,48.46a1.55,1.55,0,0,0,1.81-.54,1.38,1.38,0,0,0-.19-1.91.2.2,0,0,0-.29.23c.13.48.37.9.06,1.38a1.17,1.17,0,0,1-1.28.44.21.21,0,0,0-.11.4Z"/><path class="cls-9" d="M97.75,31.49a14.81,14.81,0,0,0-1.89,11c0,.18.34.15.32,0-.39-3.89-.1-7.31,1.83-10.8a.15.15,0,0,0-.26-.15Z"/><path class="cls-9" d="M100.25,32c1.31,5.32,1.3,10-.76,15.15a.16.16,0,0,0,.29.12,18.58,18.58,0,0,0,.65-15.35c-.05-.1-.21,0-.18.08Z"/><path class="cls-9" d="M98.85,32a13.88,13.88,0,0,1-2.08-3.91c-.14-.45-.5-1.33-.34-1.77s.35.37.49.61l.71,1.18a.09.09,0,0,0,.15-.09c-.49-.78-1-1.55-1.48-2.34,0,0-.11,0-.11,0a9.24,9.24,0,0,0,2.43,6.47c.11.11.33,0,.23-.18Z"/><path class="cls-9" d="M98.06,27.92c.5-1.23.93-2.49,1.39-3.74a7.77,7.77,0,0,1,.67-1.88q0-.8.51-.27a2.68,2.68,0,0,1,0,1.46s0,.06.06,0a2.77,2.77,0,0,0-.29-2.21.07.07,0,0,0-.12,0c-.87,2.15-1.68,4.35-2.39,6.56,0,.1.11.13.15,0Z"/><path class="cls-9" d="M100.7,22.61a.9.9,0,0,1,.71,1.41.11.11,0,0,0,.17.13,1.06,1.06,0,0,0-.88-1.72c-.11,0-.11.18,0,.18Z"/><path class="cls-9" d="M101.59,23.17a2.55,2.55,0,0,1,.68,0c.2.13.15.54.15.76a5.31,5.31,0,0,1-.28,1.48.11.11,0,0,0,.2.08,3.72,3.72,0,0,0,.2-2.44.1.1,0,0,0-.1-.08l-.85,0c-.12,0-.12.18,0,.19Z"/><path class="cls-9" d="M102.48,24.8a9.91,9.91,0,0,1-2.81,7.46.12.12,0,0,0,.17.16,8.86,8.86,0,0,0,2.81-7.62c0-.1-.17-.11-.17,0Z"/><path class="cls-9" d="M101.08,23.92a23.84,23.84,0,0,0-.9,2.83c0,.08.12.16.16.06a27.64,27.64,0,0,0,.84-2.86c0-.06-.08-.09-.1,0Z"/><path class="cls-9" d="M101.53,25.24a21.51,21.51,0,0,0-.87,2.18c0,.11.14.18.19.08a19.09,19.09,0,0,0,.89-2.2c.06-.13-.16-.19-.21-.06Z"/><path class="cls-9" d="M100,24.56a13.24,13.24,0,0,0-1,2.22.08.08,0,0,0,.15.07,13.39,13.39,0,0,0,1.12-2.16c.08-.15-.14-.28-.22-.13Z"/><path class="cls-9" d="M99.16,27.34a11.4,11.4,0,0,0,2.21.64.11.11,0,0,0,.06-.21,11.21,11.21,0,0,0-2.2-.68c-.16-.05-.23.19-.07.25Z"/><path class="cls-9" d="M47.07,28.69a3.31,3.31,0,0,0-3.24-5,.16.16,0,0,0-.12.16,1.82,1.82,0,0,0,2.14,1.73.12.12,0,0,0,0-.24c-.38,0-2.19-.46-1.7-1.2.27-.4,1.38.09,1.76.33a3.06,3.06,0,0,1,.92,4.1.16.16,0,0,0,.27.16Z"/><path class="cls-9" d="M43.68,24.06A26.49,26.49,0,0,0,40,22.89c-.41-.1-1-.16-1.1.36s.4.81.78,1c.53.27,1.12.46,1.67.69a11.36,11.36,0,0,0,2,.76.09.09,0,0,0,.07-.16,10.5,10.5,0,0,0-1.95-.91l-1-.43c-.1-.05-.84-.27-.89-.41l.31-.53.67.19,1,.28c.69.19,1.36.38,2.06.51a.1.1,0,0,0,0-.19Z"/><path class="cls-9" d="M43.9,26.12a1.17,1.17,0,0,0-2.06-.06.14.14,0,0,0,.16.21c1-.21,1.54,1.92,2.58,1.21a.9.9,0,0,0,.07-1.27c-.47-.58-1.38-.46-2-.26a.12.12,0,0,0,.06.23c.63-.09,1.94-.32,1.89.71,0,.79-.8.29-1.08,0-.44-.43-.9-1.07-1.59-.92l.16.21a1,1,0,0,1,1.64,0c.05.09.21,0,.17-.07Z"/><path class="cls-9" d="M42.51,26.59l-.79.33a.14.14,0,0,0-.08.2c.4.76,1.33,2,2.31,1.21.61-.49-.06-1.75-.67-1.22a.08.08,0,0,0,.06.14c.36,0,.62.2.58.57s-.57.51-.92.41c-.57-.17-.87-.77-1.12-1.25l-.08.21.78-.33c.17-.07.09-.34-.07-.27Z"/><path class="cls-9" d="M41.49,28.12h-.55a.14.14,0,0,0-.12.22,3,3,0,0,0,1.47,1.3,1.32,1.32,0,0,0,1.33-.37c.64-.79-.68-1.86-1.16-1a.13.13,0,0,0,.2.16.52.52,0,0,1,.85.37c0,.42-.53.62-.87.62-.71,0-1.19-.67-1.57-1.19l-.13.22.55,0c.18,0,.18-.29,0-.28Z"/><path class="cls-9" d="M42.67,29.73c1.06.87,3.24,1.62,4.53.84.12-.07,0-.23-.07-.25-.74-.08-1.46.12-2.22,0a7.24,7.24,0,0,1-2.09-.78c-.12-.06-.27.11-.15.21Z"/><path class="cls-9" d="M83.07,62.85a.61.61,0,0,0-.23,0,.05.05,0,0,0,0,.1.93.93,0,0,0,.23,0c.11,0,.11-.18,0-.17Z"/><path class="cls-9" d="M82.27,63.71a10.35,10.35,0,0,0-1.73,8.63c0,.18.31.1.28-.08a10.85,10.85,0,0,1,1.72-8.39c.12-.17-.16-.33-.27-.16Z"/><path class="cls-9" d="M81.15,66.37a23.39,23.39,0,0,0-.42,6.3.25.25,0,0,0,.49,0c.58-4.42,4.85-6.45,8.81-4.8.28.12.47-.35.21-.48a6.56,6.56,0,0,0-9.51,5.28h.49a20.1,20.1,0,0,1,.14-6.24c0-.14-.19-.2-.21-.06Z"/><path class="cls-9" d="M89.18,68.13c-3.39,1.32-5.86,5.38-4,8.9.11.22.42.06.37-.15-.36-1.89-.62-3.64.33-5.41a6.65,6.65,0,0,1,3.41-3c.19-.07.11-.39-.08-.31Z"/><path class="cls-9" d="M66.44,37.67a13.58,13.58,0,0,1,2.88-6.86c.13-.17-.15-.37-.3-.23a10.14,10.14,0,0,0-2.85,7.09c0,.18.25.16.27,0Z"/><path class="cls-9" d="M68.89,31.05a5,5,0,0,0-3,1.78c-.56.72-1.07,2.73-.92-.11s2.62-4.88,4.91-6.28c.89-.54,2.37-1.13,2.82-2.21.66-1.58-1-2.54-2.32-2.65a5.59,5.59,0,0,0-4.91,2.66c-.13.18.17.35.29.17a5.47,5.47,0,0,1,3.23-2.36c3.28-.76,2.77,2.38,1.08,3.86-1.23,1.08-2.66,1.61-3.79,2.88a5.75,5.75,0,0,0-1.3,6.14c.07.15.32.2.37,0A4.56,4.56,0,0,1,69,31.31c.17,0,.1-.3-.07-.26Z"/><path class="cls-9" d="M65.51,24.4c2.53-6.45,11-4.54,16.23-4.59,1.15,0,2.7-.17,3.1-1.51.46-1.53-1-2.74-2.33-3.14a5.7,5.7,0,0,0-5.77,1.95.13.13,0,0,0,.19.19q1.8-2.67,3.2.41c2.1,1.46,2.26,2,.48,1.51C79.69,19.51,78,19,77,19a24.82,24.82,0,0,0-6.13.66c-2.68.67-4.78,2-5.65,4.68-.06.18.21.25.27.08Z"/><path class="cls-9" d="M76.3,16.66C79,13,82.75,10.52,87.42,10.53c3.58,0,6,1.83,9.06,3.27,1.55.74,3.49,1.33,5,.15a2.62,2.62,0,0,0,.11-4.21C100,8.29,98,9,96.27,9.85c-.24.12,0,.44.2.34q.9,4-.84,2.54c-.54-.33-1.09-.67-1.64-1a16.44,16.44,0,0,0-2.38-1,13.19,13.19,0,0,0-15.52,5.79c-.09.14.12.25.21.13Z"/><path class="cls-9" d="M96.32,10.31c4.1-2.43,8.77-2.38,12.53.7,1.88,1.54,3.08,3.76,5,5.24s5.06,2.49,6.94.37c3.14-3.53-1.84-7.75-5.2-4.69-.18.16.06.49.26.34q.83,6.14-1.65,3.46a8.1,8.1,0,0,1-1.76-1.65c-.74-.79-1.35-1.72-2.11-2.5a11.25,11.25,0,0,0-4.24-2.89,10.72,10.72,0,0,0-9.92,1.38.14.14,0,0,0,.14.24Z"/><path class="cls-9" d="M115.25,12.2c3.17-1.93,7.3-1.49,9.25,1.93,1.39,2.45.24,4.93.83,7.48a3.85,3.85,0,0,0,3.24,3.25c3.94.32,3.92-5.72.22-4.75a.15.15,0,0,0,0,.3q-3.59,1.74-3-.86c0-.7.08-1.41.09-2.11a7.43,7.43,0,0,0-.22-2,7,7,0,0,0-2.39-3.62,6.8,6.8,0,0,0-8.2,0c-.18.13,0,.42.18.3Z"/><path class="cls-9" d="M128.82,20.2c3.45-.09,7.61,1.43,8.44,5.23a5.87,5.87,0,0,1-2.12,5.87,19.22,19.22,0,0,0-2.37,1.59c-1.75,1.89-1.1,4.47-.18,6.59.08.16.32,0,.29-.12-.74-3.1.36-5.1,2.6-7.51.6-.65,1-.75,1.49-1.51a6.57,6.57,0,0,0,.83-5.06c-1-4.06-5.18-5.75-9-5.41a.17.17,0,0,0,0,.33Z"/><path class="cls-9" d="M131.61,38.59c3.28,4.14,10,3.4,11.19-2.15.47-2.16-1.12-4.44,1.7-.6,2.12,2.89,1.47,3.25,0,6.14-.54,1.05-1.21,2-1.66,3.11-1.51,3.67-.78,7.35.67,10.92.09.21.43.12.35-.1-1.7-4.35-2-8.26.27-12.51,1-1.93,2.31-3.68,2.55-5.9.32-2.91-1.31-5.34-4.39-5.16-.1,0-.2.11-.16.21a6,6,0,0,1-10.35,5.89c-.08-.1-.22.05-.14.15Z"/><path class="cls-9" d="M143.07,55.63c2.6,5.63,3.38,13.23-3.66,15.83a.13.13,0,0,0,.07.24c7.68-1.53,6.59-11,3.78-16.18-.07-.12-.25,0-.19.11Z"/><path class="cls-9" d="M139.48,71.44l-3.87.66c-.13,0-.1.23,0,.22a7.24,7.24,0,0,0,7.15-5.95c.9-5.68-4.5-7-6.74-11.13a.25.25,0,0,0-.44.25c1.42,2.64,4.37,3.7,5.9,6.22a7.07,7.07,0,0,1-.71,8.05c-.52.64-3.51,2-3.55,2.18-.5.21-.39.21.35,0l1.93-.35c.11,0,.07-.19-.05-.17Z"/><path class="cls-9" d="M134.87,55.75c-.76-.63-1.62-.7-2.16.33a3.83,3.83,0,0,0,0,1.22c.26,3,2.39.19-.45,4.55-1.85,2.85-2.42,2.84-5.57,3.15-.53,0-6.25-.38-5.76-1.29.13-.24,4.76-.65,5.67-1.33a4.54,4.54,0,0,0,2-3.2,3.34,3.34,0,0,0-3.2-3.78c-3.69-.27-7.53,3.31-9.13,6.26-1.43,2.64-1.82,5.8-3.61,8.27a15,15,0,0,1-4,3.32,6.35,6.35,0,0,0,1.52-1c1-1.59,2.82-4.28.27-5.74-1.78-1-3.25.32-3.51,2,0,.16.22.23.26.06l.26,4.81a.17.17,0,0,0,.09.33c3.46-.56,5.34-2.94,6.75-6,1.51-3.27,2.11-6.68,5-9.12.65-.55,3.79-2.93,4.67-2.52l.2,7a18.38,18.38,0,0,1-4.91.22.19.19,0,0,0-.13.33c3.35,2.68,9,2.52,12.83.76a4.25,4.25,0,0,0,2.75-2.74,3.36,3.36,0,0,0,0-1.34,12.11,12.11,0,0,0-.51-1.1q-1.65-1.45.48-3.14c.16.11.36-.15.21-.27Z"/><path class="cls-9" d="M108.8,66.92c-4-.07-6.12,4.14-4.41,7.6a6.72,6.72,0,0,0,2.06,2.37A19.49,19.49,0,0,1,108.74,78a14,14,0,0,1-2.51.39,5.62,5.62,0,0,1-2.88-1,6.13,6.13,0,0,1-2.43-5.5c0-.21-.35-.28-.39,0-.74,5.09,4.53,8.36,9,6.33a.21.21,0,0,0,0-.38,6.6,6.6,0,0,1-4.93-4.06c-1.11-3.16.82-6.47,4.29-6.48a.15.15,0,0,0,0-.3Z"/><path class="cls-9" d="M100.77,72.08a3.85,3.85,0,1,0-7,1.86.28.28,0,0,0,.48-.28,3.3,3.3,0,1,1,6-1.58.26.26,0,0,0,.51,0Z"/><path class="cls-9" d="M98.35,70.18A194.83,194.83,0,0,0,29,123.61c-.22.27.15.64.37.38A216.38,216.38,0,0,1,98.51,70.46c.19-.1,0-.36-.16-.28Z"/><path class="cls-9" d="M145.06,65.49c11.1,14.1,32,9.75,47.4,13.34.2,0,.29-.26.09-.31-15.84-4.11-35.34.62-47.26-13.26-.14-.16-.36.07-.23.23Z"/><path class="cls-9" d="M28.86,124.25c17.42-2,34.72-8.66,49.76-17.55a.26.26,0,0,0-.26-.44c-15.67,8.89-31.95,14.14-49.55,17.64-.19,0-.15.37.05.35Z"/><path class="cls-9" d="M87.88,95.82a38.69,38.69,0,0,0-10.91,15c0,.08.1.13.14.06,3-5.62,6.22-10.61,10.94-14.94.11-.1-.06-.27-.17-.16Z"/><path class="cls-9" d="M79.47,100.4a6,6,0,0,1,2.21-4.85l-.32-.08a3.36,3.36,0,0,1-1,3.06c-.09.11,0,.3.17.22a3.25,3.25,0,0,0,1.22-3.38c0-.16-.22-.16-.32-.08a5.48,5.48,0,0,0-2.14,5.13c0,.12.2.09.2,0Z"/><path class="cls-9" d="M87.9,93.86v-.22a0,0,0,0,0-.06,0v.22a0,0,0,1,0,.07,0Z"/><path class="cls-9" d="M91.05,93c.3-3.31-1.22-6.18,1.44-9,2-2.14.3-.47.79.58a1.45,1.45,0,0,0,2,.59,1.84,1.84,0,0,0,.54-.57,4.11,4.11,0,0,0,.41-1.24,3.8,3.8,0,0,1,3.63-2.87c.22,0,.22-.33,0-.34a3.86,3.86,0,0,0-2.86,1,3.64,3.64,0,0,0-.92,1.41,2.36,2.36,0,0,0-.19.69c0,1.12-.6,1-1.62-.3.14-.1.05-.36-.13-.3a5.58,5.58,0,0,0-3.61,3.35c-.83,2.27.35,4.64.35,6.94a.1.1,0,0,0,.2,0Z"/><path class="cls-9" d="M100.05,80.83a1.49,1.49,0,0,0-.42,2.94c.13,0,.18-.19.06-.24a1.48,1.48,0,0,1-1-1.3A1.35,1.35,0,0,1,100.05,81c.13,0,.12-.17,0-.19Z"/><path class="cls-9" d="M90.68,92.89c1.58-2.32,3-4.83,5-6.75,2.84-2.64,6.44-3.26,10-4.32,3.38-1,6.18-2.43,7.78-5.68.06-.12-.11-.22-.17-.11-3.17,5.7-9.87,5.07-15,7.71-3.64,1.89-6.08,5.44-8,9a.18.18,0,0,0,.3.18Z"/><path class="cls-9" d="M79.64,48.94c.64-.61.06-1.8-.51-2.27a2,2,0,0,0-2.41,0,2,2,0,0,0-.59,2.46,2,2,0,0,0,.75.86,3.32,3.32,0,0,0,.76.29l.51.14c.71.13.6.42-.34.86-.09-.19-.38,0-.28.16a.89.89,0,1,0,1.42-1,3.11,3.11,0,0,0-1.22-.49,1.76,1.76,0,0,1-1.42-2,1.67,1.67,0,0,1,2.35-1c.87.5.65,1.26.86,2a.07.07,0,0,0,.12,0Z"/><path class="cls-9" d="M79.11,50.89c-1,1.83-2.54-.61-3.14-1.37a2.15,2.15,0,0,0-1.67-1c-.15,0-.24.24-.08.31a5.11,5.11,0,0,1,2,1.74,3.43,3.43,0,0,0,1.19,1,1.4,1.4,0,0,0,2-.64c0-.12-.14-.19-.2-.09Z"/><path class="cls-9" d="M76.84,49.72c.31-.39.61-.8.91-1.2l-.19-.06a2.15,2.15,0,0,1-.44,1.36c-.05.08.06.15.12.09a1.73,1.73,0,0,0,.53-1.45.11.11,0,0,0-.2-.05c-.29.4-.59.8-.87,1.21,0,.08.08.18.14.1Z"/><path class="cls-9" d="M107.31,92.21a17,17,0,0,1,7.44-5.7c2.58-1,5.08-.88,7.76-1a.22.22,0,0,0,.06-.44c-5.79-1.74-12.61,2.15-15.79,6.85-.23.34.3.62.53.31Z"/><path class="cls-9" d="M112.94,84.32a16.22,16.22,0,0,1,6.29-1.39.35.35,0,0,0,0-.7,13.41,13.41,0,0,0-6.43,1.85c-.16.08,0,.31.14.24Z"/><path class="cls-9" d="M146.68,74.48c3.44,3.32,8.67,5.51,13.5,5a.25.25,0,0,0,0-.5c-5.12-.47-9.13-1.64-13.3-4.75-.15-.11-.33.13-.2.26Z"/><path class="cls-9" d="M154.23,70c10.59,5.48,22.8-.11,34,1.88.35.06.5-.47.15-.54-11.44-2.19-22.89,2.85-34.06-1.61-.15-.06-.26.19-.11.27Z"/><path class="cls-9" d="M170.36,87.08c6.47-1.34,12.31-.25,18.41,2,.28.1.46-.35.2-.49-5.73-3.06-12.5-3.33-18.74-2-.29.06-.17.51.13.45Z"/><path class="cls-9" d="M20.58,94.36a60.84,60.84,0,0,1,14.57-.94c.18,0,.22-.29,0-.31a41.09,41.09,0,0,0-14.69.94c-.21,0-.12.35.08.31Z"/><path class="cls-9" d="M26.91,104.43a60.48,60.48,0,0,0,14.65-7.37.16.16,0,0,0-.16-.27,130,130,0,0,1-14.57,7.37c-.16.07-.1.33.08.27Z"/><path class="cls-9" d="M52.58,128.44C67,126,81.05,118.32,90.33,107c.12-.15-.08-.37-.23-.22-10.54,10.93-22.67,18.17-37.59,21.4-.19,0-.11.32.07.29Z"/><path class="cls-9" d="M78.25,124.25c14.07-4.71,20.09-19.94,31.87-27.94a.2.2,0,0,0-.2-.34c-12.3,7.45-17.6,23-31.79,27.84-.28.09-.16.53.12.44Z"/><path class="cls-9" d="M99,124.12c13.28-4,12.56-21.43,22.73-29,.31-.22,0-.74-.3-.51-10.5,7.48-9.19,25.13-22.5,29.27a.12.12,0,0,0,.07.23Z"/><path class="cls-9" d="M13.4,137.93a51.58,51.58,0,0,0,20.07-7.81c.09-.06,0-.2-.08-.15a56.71,56.71,0,0,1-20,7.78c-.12,0-.07.2.05.18Z"/><path class="cls-9" d="M21.22,140.19a227.57,227.57,0,0,0,53.22-9,.11.11,0,0,0-.06-.22,299,299,0,0,1-53.16,9c-.16,0-.16.25,0,.24Z"/><path class="cls-9" d="M154.48,91.34c2.14-1.09,4-.62,6.09.11a.25.25,0,0,0,.25-.41c-1.79-1.59-4.7-1.3-6.66-.24-.36.19,0,.73.32.54Z"/><path class="cls-9" d="M56.66,84.39C49,86,43.11,79.24,35.55,80c-.19,0-.19.3,0,.29,7.47-.18,13.64,6.28,21.18,4.4.17,0,.09-.29-.07-.25Z"/><path class="cls-9" d="M154.23,67.37c7.42-3.61,17-11.56,13.14-20.91-.13-.32-.63-.2-.53.14,3,10.14-5.69,15.5-12.76,20.51a.15.15,0,0,0,.15.26Z"/><path class="cls-9" d="M163.51,66.17c5.91-2.15,17-9.76,12.66-17.35-.15-.26-.6-.09-.49.2,3,8-6.06,14.06-12.27,16.92-.13.06,0,.28.1.23Z"/><path class="cls-9" d="M168.9,67.9c9.51-2,17-10.72,15.33-20.76-.06-.34-.59-.25-.59.08.1,9.77-4.87,18.09-14.83,20.34-.23,0-.13.39.09.34Z"/><path class="cls-9" d="M182.5,43.47c-.65-1-.51-1-1.72-1.38s-2.32.39-3.39.14q-3.1-1.38-3-4.21V38c-2.52-2.2-6.06-.84-9.74-.75-7.23.17-12.56,5.91-8.75,12.82-.76-1.38,4.34,4.54-.37-.37.74.78-3-2.72-2.17-2.29-1-.53-1.26-1-2.37-.49a2.71,2.71,0,0,0-1.32,1.77c-.42,1.58,1.32,2.47,1.19,3.59-.08.68-2.57-2.7-3.12-2.82a2,2,0,0,0-1.34.14c-1.26.69-.78,4.26-.68,5s.88,2.2.75,2.92c.09.25.19.49.29.73a3.58,3.58,0,0,1-2.9-2.85c-.14-.28-.56,0-.41.24a9.26,9.26,0,0,0,4.08,4,.19.19,0,0,0,.25-.25c-.57-1-2.78-5.62-1.85-7,3.86-5.77,2.6.21,3.75.43,3.08.6-.67,1.11,2.36.55a.25.25,0,0,0,.11-.42q1-6.72,2.3-2.82l0,0c1.34.77.27,1.32,1.79,1.51,1.06.13,1.08,0,1.78-.7a.2.2,0,0,0-.09-.35c-4.77-1.48-3.52-8.32-.44-10.8l3.91-2.08a10.74,10.74,0,0,1,6.13.7c2.45-.08,4.78-.71,6.52,1.25.67.74,0,1.76,1.1,2.56,2.22,1.55,4.82-1.12,7,1.43.14.16.42-.05.3-.23Z"/><path class="cls-9" d="M160,32.52a5.51,5.51,0,0,0-5.32-.77.24.24,0,0,0-.06.44l.68.32-.65,3.08c-.27.11-1.41-.68-1.87-.84a6.5,6.5,0,0,0-2.22-.44A5.69,5.69,0,0,0,146.5,36c-.12.11,0,.32.17.23a6.85,6.85,0,0,1,3.93-1.44c1.31,0,2.16.62,3.34,1,.9.28,2,.62,2.76-.22a2,2,0,0,0,0-2.32c.1.17-1.14-1.37-1.18-1,.15-1.15,3.75.33,4.3.69.19.12.36-.18.18-.31Z"/><path class="cls-9" d="M142.77,35.72a12.17,12.17,0,0,1-3.52-2.78.25.25,0,0,0-.35,0,1.23,1.23,0,0,0-.41,1c0,.44.36.84.37,1.24,0,1.4-1.19,1.29-2.14,1a4.72,4.72,0,0,0-4.47.77c-.08.08,0,.26.12.21a7.64,7.64,0,0,1,2.81-.77c1.06,0,1.87.64,2.86.68a1.28,1.28,0,0,0,1.24-.38c.61-.75-.66-2.53.05-2.92A25.36,25.36,0,0,0,142.66,36c.15.06.25-.18.11-.25Z"/><path class="cls-9" d="M159.07,33c5.69,1.55,5.21-4.6,2.07-3.16-.2.09-.06.44.16.36,5-1.83,6.19,1.22,9.45,3.66.75.56,1.49,1.25,2.55,1,2.41-.65,1.21-2.24.92-3.62a5.09,5.09,0,0,0-1.06-.47c1.26-.83,4.94,3.67,6,4.16a3.2,3.2,0,0,0,2.16.4c1.79-.52,1.87-2.1.77-3.27a.2.2,0,0,0-.32.24,12.19,12.19,0,0,0,4.46,4.53c.1.06.19-.1.09-.17a8.43,8.43,0,0,0-8-3l-1-1.15c-1.22-.89-.77-1.49-2.3-2a2.83,2.83,0,0,0-3,.4c-.15.1-.11.4.1.37q-1.81,2.55-2.8.22l-.91-.84a5.85,5.85,0,0,0-1.71-.92,6.51,6.51,0,0,0-2.46-.5c-1.32,0-7.44,3-5.12,3.55a.12.12,0,0,0-.06.23Z"/><path class="cls-9" d="M182.19,38c-.65-.06-1.3-.13-1.94-.14a.27.27,0,0,0-.23.39,2.78,2.78,0,0,0,2.37,1.41c.2,0,.26-.32.05-.36a2.76,2.76,0,0,1-2-1.31l-.22.39c.64.08,1.29.09,1.94.12.32,0,.31-.47,0-.5Z"/><path class="cls-9" d="M119.61,30.57a2.44,2.44,0,0,0-.4-3,.27.27,0,0,0-.37,0,.89.89,0,0,0-.13,1.23c.1.12.28,0,.29-.13a1,1,0,0,1,.21-.73h-.37a2,2,0,0,1,.41,2.38.21.21,0,0,0,.36.21Z"/><path class="cls-9" d="M118.47,38.2c-1.5-1.9-3.25-4-5.82-4.36a4.27,4.27,0,0,0-4.59,2.34.3.3,0,0,0,.42.41c2.11-1.21,4.22-.19,5.11,2a.26.26,0,0,0,.51-.14,3.88,3.88,0,0,0-5.93-2.34l.42.41c2.19-4.86,7.54-.33,9.56,2,.19.23.5-.09.32-.32Z"/><path class="cls-9" d="M111.85,48.63c-3-.33-6.47-.05-8.44,2.58a4.46,4.46,0,0,0,.88,6.4c.2.15.47-.09.4-.31-.79-2.78,2.13-4.2,4.22-2.68.24.17.5-.2.3-.4-2.38-2.4-6,.17-5,3.23l.41-.31c-2.71-1.83-1.75-5.5.69-7.08,2-1.27,4.34-1.32,6.59-1.1.21,0,.21-.31,0-.33Z"/><path class="cls-9" d="M96.74,58.2a4.1,4.1,0,0,0-5.42-.36,4.25,4.25,0,0,0-.83,5.45.28.28,0,0,0,.51-.07,2.29,2.29,0,0,1,2.61-1.84,2.51,2.51,0,0,1,1.76,2.27c0,.3.47.19.49-.07a2.73,2.73,0,0,0-2.44-2.81,2.84,2.84,0,0,0-3,2.3L91,63a3.7,3.7,0,0,1,.67-4.75,3.85,3.85,0,0,1,4.87.17c.16.14.39-.09.23-.23Z"/><path class="cls-9" d="M96.34,19.69a4.91,4.91,0,0,0-6.67-1,.32.32,0,0,0,.08.57c2.68.68,3.15,3.51,1.53,5.49a.24.24,0,0,0,.34.34c2.47-2,1.1-5.71-1.71-6.44l.08.57a4.82,4.82,0,0,1,6.07.7c.14.13.4,0,.28-.21Z"/><path class="cls-9" d="M124.62,49.14a4.89,4.89,0,0,0,1.21-3.89A8.11,8.11,0,0,0,124.71,43c-.11-.22-.57-.36-.64-.59a12.71,12.71,0,0,1,2,.9c1.18,1.51.09,4,1.64,5.22a2.54,2.54,0,0,0,3.12-.13c2.54-2,1.86-6.26-.1-8.34a6.36,6.36,0,0,0-4.34-2c-.5,0-1.73.34-2,0-1.32-1.66,4.44-4.1,5.45-4.27.26,0,.19-.45-.06-.46a6.25,6.25,0,0,0-6.12,5.41c0,.21.14.44.37.37,3.17-1,6.79.36,7.75,3.77l.23,1.6c.29,1.78-.5,2.31-2.36,1.61-3,0-1.86.38-2.14-1.25a3.72,3.72,0,0,0-4.23-2.94.27.27,0,0,0-.13.5A4.42,4.42,0,0,1,124.44,49c-.08.11.1.25.18.14Z"/><path class="cls-9" d="M65.27,63.25c4.94-2.35,9.52-2.44,14.75-1.13.16,0,.28-.2.12-.28a16.5,16.5,0,0,0-15,1.2.12.12,0,0,0,.12.21Z"/><path class="cls-9" d="M70.53,63.51a8.89,8.89,0,0,0-1.75,7.08.13.13,0,0,0,.26,0,9.57,9.57,0,0,1,1.74-6.9c.11-.16-.14-.3-.25-.15Z"/><path class="cls-9" d="M79.3,65.72A30.53,30.53,0,0,1,75,71.37c-.06.06,0,.15.09.1a18.17,18.17,0,0,0,4.45-5.63.12.12,0,0,0-.2-.12Z"/><path class="cls-9" d="M77.77,68c1-1.73,2-3.44,2.82-5.23.06-.13-.12-.25-.2-.12-1,1.67-1.9,3.49-2.82,5.23-.07.14.13.26.2.12Z"/><path class="cls-9" d="M78.22,67.81A58.33,58.33,0,0,0,82.32,61c.05-.09-.08-.22-.16-.12A59.84,59.84,0,0,0,78,67.68a.13.13,0,0,0,.23.13Z"/><path class="cls-9" d="M73.33,47.89c-.68-.1-.73-.73-.63-1.28a.11.11,0,0,0-.16-.12c-.74.52,0,1.67.68,1.78.25,0,.36-.35.11-.38Z"/><path class="cls-9" d="M72.33,46.85c-.56,0-1.8-.17-1.22-1,.19-.26.5-.36.56-.71s-.31-1-.65-.57c0,0,0,.16,0,.19.5.21-.23.71-.37.92a.75.75,0,0,0-.11.75c.29.73,1.12.73,1.77.66.14,0,.15-.24,0-.24Z"/><path class="cls-9" d="M72,43.69a1.27,1.27,0,0,1-1.23-1.06l-.21.27a3.8,3.8,0,0,0,1.26-.09.14.14,0,0,0,0-.27,4.08,4.08,0,0,0-1.26-.07.21.21,0,0,0-.2.27A1.76,1.76,0,0,0,72,44a.17.17,0,0,0,0-.33Z"/><path class="cls-9" d="M72.15,42.68c0-.78.07-1.55.1-2.32l-.39.22a7.89,7.89,0,0,0,.91.37A.25.25,0,0,0,73,40.5c-.29-.15-.6-.27-.9-.4a.26.26,0,0,0-.33.26c0,.77,0,1.54,0,2.32a.19.19,0,0,0,.37,0Z"/><path class="cls-9" d="M73.37,40.29c0-.7-.06-1.41-.1-2.1l-.27.2a11.66,11.66,0,0,0,1.54.53.17.17,0,0,0,.12-.31A10.44,10.44,0,0,0,73.11,38a.21.21,0,0,0-.26.2c.05.7.11,1.4.17,2.1,0,.21.36.22.35,0Z"/><path class="cls-9" d="M75,38.17a1.67,1.67,0,0,1-.15-1.91l-.28.07a4.07,4.07,0,0,0,1.33.81c.1,0,.22-.09.15-.19a4.29,4.29,0,0,0-1.27-1,.21.21,0,0,0-.28.07,2.12,2.12,0,0,0,.29,2.33c.12.15.33-.06.21-.21Z"/><path class="cls-9" d="M76.08,36.36a3.45,3.45,0,0,1,.52-1.79l-.29.08a5.22,5.22,0,0,0,1.5,1c.11,0,.23-.1.16-.2a5.58,5.58,0,0,0-1.45-1.14.22.22,0,0,0-.29.08,3.68,3.68,0,0,0-.53,2,.19.19,0,0,0,.38,0Z"/><path class="cls-9" d="M78.53,35.25a.87.87,0,0,1,.69-1c.47-.07.69.25,1,.56.11.11.35,0,.33-.14a1.19,1.19,0,0,0-1.45-.86,1.24,1.24,0,0,0-.88,1.49c0,.19.37.15.35,0Z"/><path class="cls-9" d="M81.08,34.1c0-.28.29-.43.5-.42a.71.71,0,0,1,.56.36c.19.26.24.57.41.84s.39.11.37-.1a1.63,1.63,0,0,0-1.19-1.51.87.87,0,0,0-1,.94c0,.25.42.14.38-.11Z"/><path class="cls-9" d="M83.1,34.73a5.77,5.77,0,0,1,2.73-.35L85.68,34l-.69.57a.22.22,0,0,0,.1.37c.66.13,1.44.13,1.85.71s.56,1.17.89,1.71c.09.15.37.06.3-.12-.13-.35-.29-.67-.45-1s-.36-1.05-.62-1.26a4.59,4.59,0,0,0-1.86-.45l.1.37.69-.58c.16-.14,0-.36-.16-.38a6,6,0,0,0-2.83.44c-.21.09-.13.44.1.35Z"/><path class="cls-9" d="M87.74,37.52a1.32,1.32,0,0,1,1.74,1,1.35,1.35,0,0,1-1.61,1.29c-.23,0-.25.32-.05.38a1.69,1.69,0,0,0,2.06-1.74,1.72,1.72,0,0,0-2.24-1.36c-.24.08-.14.46.1.38Z"/><path class="cls-9" d="M86.78,37.8a.75.75,0,0,1,.36,1.43c-.19.08-.25.4,0,.44a3.8,3.8,0,0,0,1.16.14c.16,0,.27-.25.09-.34a3.93,3.93,0,0,0-1.13-.24v.44a1.13,1.13,0,0,0-.48-2.2c-.21,0-.22.34,0,.33Z"/><path class="cls-9" d="M86.85,40.5a1.07,1.07,0,0,0,0,.25.12.12,0,0,0,.23,0,1.07,1.07,0,0,0,0-.25.15.15,0,0,0-.29,0Z"/><path class="cls-9" d="M73.48,34.94a1.17,1.17,0,0,0-1,.87.15.15,0,0,0,.15.19l1.23-.11-.12-.29a21.1,21.1,0,0,0-1.93,2.2c-.11.16.13.32.26.2A21.84,21.84,0,0,0,74,35.84c.09-.1,0-.31-.12-.29l-1.23.14.15.2a1.3,1.3,0,0,1,.73-.82.07.07,0,0,0,0-.13Z"/><path class="cls-9" d="M79.57,43.5c-.22-.51-.45-1-.71-1.52a4.33,4.33,0,0,0-.92-1.38c-.11-.09-.35-.05-.33.14a3.68,3.68,0,0,0,.56,1.4c.3.53.6,1,.94,1.56.15.22.57.08.46-.2Z"/><path class="cls-9" d="M85.85,45.82A2.48,2.48,0,0,0,87,46a8.8,8.8,0,0,0,1.36,0,.22.22,0,0,0,0-.43,8.8,8.8,0,0,0-1.36,0,2.48,2.48,0,0,0-1.15.15.11.11,0,0,0,0,.19Z"/><path class="cls-9" d="M86.89,46.32A27.23,27.23,0,0,0,84.52,50c0,.08.07.19.14.11a27.6,27.6,0,0,0,2.44-3.71c.09-.14-.12-.26-.21-.12Z"/><path class="cls-9" d="M80.62,42c-.55.11-.59.89-.25,1.25.68.71,1-.55.91-1.06a.2.2,0,0,0-.25-.14.69.69,0,0,0-.5.85c0,.15.3.17.33,0a.62.62,0,0,1,.28-.46l-.25-.14c0,.18,0,1.1-.32.56a.42.42,0,0,1,.17-.58.15.15,0,0,0-.12-.28Z"/><path class="cls-9" d="M86.61,44.32l-.4.64a.14.14,0,0,0,.08.21,1.14,1.14,0,0,0,1-.29c.2-.2.39-.48.13-.7-.56-.49-1.18.44-.54.85l.21-.35c-.1-.07-.09-.14,0-.19a.21.21,0,0,1-.19.19.19.19,0,0,0,0,.33c.53.33,1-.72.39-1s-.94.7-.41,1c.23.12.43-.22.21-.35l.07-.13a.56.56,0,0,1-.22.21.79.79,0,0,1-.58.13l.09.22.39-.65a.14.14,0,0,0-.24-.14Z"/><path class="cls-9" d="M49.14,34.23A5.92,5.92,0,0,0,51,37.39c.16.11.35-.1.26-.25-.29-.48-.69-.88-1-1.36a8.86,8.86,0,0,1-.77-1.65.18.18,0,0,0-.34.1Z"/><path class="cls-9" d="M46.25,29.54a2.55,2.55,0,0,0-.62.89,4.29,4.29,0,0,0-.56,1.11.14.14,0,0,0,.23.14A4.44,4.44,0,0,0,46,30.62a2.58,2.58,0,0,0,.44-1c0-.07-.09-.13-.14-.09Z"/><path class="cls-9" d="M97.56,31.68a2.77,2.77,0,0,0,3.31.8c.28-.15.08-.57-.22-.5a2.9,2.9,0,0,1-2.82-.57.19.19,0,0,0-.27.27Z"/><path class="cls-9" d="M63.53,90.27c.56-.43,1.06-.93,1.58-1.41a7.79,7.79,0,0,0,1.49-1.49.1.1,0,0,0-.14-.14,7.48,7.48,0,0,0-1.52,1.29c-.54.5-1.1,1-1.59,1.52-.1.12,0,.33.18.23Z"/><path class="cls-9" d="M66.68,80a6.94,6.94,0,0,0,1.7,1,7.68,7.68,0,0,0,1.83.81c.15,0,.3-.17.16-.28a7.57,7.57,0,0,0-1.73-1,7.26,7.26,0,0,0-1.85-.75c-.1,0-.2.11-.11.19Z"/><path class="cls-9" d="M57.58,78.41c.33,2.43,1.78,5,4.19,5.84a.12.12,0,0,0,.12-.2c-2-1.52-3.51-3.16-4-5.67,0-.15-.28-.12-.26,0Z"/><path class="cls-9" d="M79.73,71.78a11.29,11.29,0,0,0-3.27,6.4c0,.11.16.13.18,0a14.55,14.55,0,0,1,3.23-6.29c.08-.09-.05-.23-.14-.14Z"/><path class="cls-9" d="M79.27,71.62a51.09,51.09,0,0,0-2.17,5.45.13.13,0,0,0,.23.09,48,48,0,0,0,2.19-5.47c.07-.16-.18-.22-.25-.07Z"/><path class="cls-9" d="M77.68,75.57a17.05,17.05,0,0,1,4-5.77c.09-.09,0-.25-.14-.18a12.87,12.87,0,0,0-4.15,5.87c-.07.19.23.27.31.08Z"/><path class="cls-9" d="M80.38,73.78A13.13,13.13,0,0,0,79.47,76c0,.13.16.22.22.09a12.34,12.34,0,0,0,.86-2.21.09.09,0,0,0-.17-.07Z"/><path class="cls-9" d="M64,76.55a10.5,10.5,0,0,1,1.87,6.65.13.13,0,0,0,.26,0,8,8,0,0,0-1.91-6.86c-.11-.11-.31,0-.22.17Z"/><path class="cls-9" d="M80,71.65c-.18,2,.64,4.64,2.58,5.62a.17.17,0,0,0,.21-.27c-1.49-1.59-2.58-3-2.48-5.35,0-.2-.29-.19-.31,0Z"/><path class="cls-9" d="M84.19,68.7c.23-.08.45-.15.67-.25s0-.2-.07-.18-.44.13-.66.2-.08.28.06.23Z"/><path class="cls-9" d="M84.27,68.71A3.18,3.18,0,0,1,85.13,71a.13.13,0,0,0,.26,0,2.67,2.67,0,0,0-.91-2.53.15.15,0,1,0-.21.21Z"/><path class="cls-9" d="M74.74,55.7c-.1.44,0,.89-.18,1.34a4.25,4.25,0,0,1-.78,1.39.18.18,0,0,0,.26.26c.75-.63,1.46-2.06,1-3a.14.14,0,0,0-.26,0Z"/><path class="cls-9" d="M87.1,53.31a11.39,11.39,0,0,0,1.54-.92.14.14,0,0,0-.14-.24,11,11,0,0,0-1.57.87.17.17,0,0,0,.17.29Z"/><path class="cls-9" d="M92.93,50c1.79-1.06,3.66-2.91,4-5.05,0-.09-.1-.16-.15-.07a16.9,16.9,0,0,1-1.58,2.78,9,9,0,0,1-2.41,2.12.13.13,0,0,0,.13.22Z"/><path class="cls-9" d="M97.73,34.18a51.35,51.35,0,0,1-1,5.65c0,.08.1.14.14.06A14.1,14.1,0,0,0,98,34.18a.13.13,0,0,0-.25,0Z"/><path class="cls-9" d="M99.6,37.23A24.43,24.43,0,0,0,99.67,41c0,.08.15.08.17,0a25.8,25.8,0,0,0,0-3.73.12.12,0,0,0-.23,0Z"/><path class="cls-9" d="M78.5,29.15a1,1,0,0,1,1,.73c.06.14.26,0,.24-.1a1.18,1.18,0,0,0-1.25-.94.16.16,0,0,0,0,.31Z"/><path class="cls-9" d="M85.51,31.92a8.88,8.88,0,0,0,1.75-.7c.07,0,.06-.2-.05-.19a9,9,0,0,0-1.78.62c-.16.06-.09.33.08.27Z"/><path class="cls-9" d="M62.29,58a21.23,21.23,0,0,0,3,8.1c.09.13.3,0,.22-.13a29.67,29.67,0,0,1-3.06-8,.1.1,0,1,0-.19.05Z"/><path class="cls-9" d="M61.67,53.76a18.69,18.69,0,0,0,.92,11c.06.13.27.09.23-.06a25.16,25.16,0,0,1-.94-10.9c0-.12-.19-.15-.21,0Z"/><path class="cls-9" d="M43.28,110.92A140.06,140.06,0,0,1,67.62,90.4a.12.12,0,1,0-.13-.21,116.22,116.22,0,0,0-24.37,20.57c-.09.11.06.26.16.16Z"/><path class="cls-9" d="M39.35,117.81C55.16,107.43,71,96.81,86.3,85.75a.09.09,0,1,0-.1-.16C70.33,95.87,54.69,106.74,39.28,117.7c-.07,0,0,.16.07.11Z"/><path class="cls-9" d="M70.68,87.81c7.94-4.66,15.9-9.34,23.7-14.24.05,0,0-.12,0-.09-8,4.57-15.87,9.39-23.72,14.2-.07,0,0,.17.07.13Z"/><path class="cls-9" d="M43.08,101a1.34,1.34,0,0,0-1.89-.48,1.31,1.31,0,0,0-.23,1.9c.16.13.47,0,.38-.23-.15-.41-.31-.85.09-1.2a.84.84,0,0,1,1.25.25.23.23,0,0,0,.4-.24Z"/><path class="cls-9" d="M120.32,75.34h0s0,0,0,0Z"/><path class="cls-9" d="M108.09,71l.23.2a0,0,0,1,0,0,0,1.5,1.5,0,0,0-.2-.23,0,0,0,1,0-.07.07Z"/><path class="cls-9" d="M109.75,72.05c-.07-.29-.14-.58-.23-.86a0,0,0,1,0-.08,0c0,.29.12.59.19.88,0,.07.14,0,.12,0Z"/><path class="cls-9" d="M104.89,69.51c2-.92,4-1.8,5.87-2.84.08,0,0-.18-.06-.14-2,.83-4,1.85-5.92,2.8-.13.06,0,.24.11.18Z"/><path class="cls-9" d="M107.49,68.66l1.08-.45c.07,0,0-.13,0-.1l-1.09.42c-.07,0,0,.16,0,.13Z"/><path class="cls-9" d="M86.84,64.09c4.4-.18,9.32,0,11.73,4.35,2,3.59,1.67,7.7,1.47,11.66,0,.17.25.16.27,0,.51-4.35.82-9.38-2.08-13S91,63.6,86.84,63.9c-.12,0-.12.2,0,.19Z"/><path class="cls-9" d="M93.5,60.51a12.18,12.18,0,0,1,8.9,18.29.11.11,0,0,0,.18.11,12.29,12.29,0,0,0-9-18.73c-.21,0-.3.29-.09.33Z"/><path class="cls-9" d="M98.09,59.52c9-.78,10.23,12.28,9.71,18.45,0,.2.32.25.35,0,1-6.16-1-20.26-10.09-18.73-.14,0-.11.25,0,.23Z"/><path class="cls-9" d="M84.11,69.47c7.75-2,11,6.4,12.52,12.25.06.24.41.13.37-.11-1-6.26-5.3-14.55-13-12.45-.2,0-.11.36.09.31Z"/><path class="cls-9" d="M35.61,120c-6.17-2.94-9.29-9.11-7.08-15.8.08-.24-.29-.33-.37-.1-2.33,6.55.59,13.83,7.38,16.06.09,0,.16-.12.07-.16Z"/><path class="cls-9" d="M38.2,117.38a13.56,13.56,0,0,1-5.44-15.17.13.13,0,0,0-.25-.07,13.06,13.06,0,0,0,5.59,15.42.1.1,0,0,0,.1-.18Z"/><path class="cls-9" d="M40.33,115.25A13.37,13.37,0,0,1,36.14,100c0-.13-.17-.23-.23-.09a13.22,13.22,0,0,0,4.19,15.57c.16.13.39-.1.23-.22Z"/><path class="cls-9" d="M44.29,113.31c-3.65-1.17-4.14-7.29-4.17-10.38a23.06,23.06,0,0,1,2.2-9.83c.07-.14-.13-.27-.2-.12a21.54,21.54,0,0,0-2.24,12.74c.39,2.71,1.15,7.07,4.38,7.67.06,0,.08-.07,0-.08Z"/><path class="cls-9" d="M40.34,20.41c-1.3.69-2.85,1.55-3.23,3.11a2.36,2.36,0,0,0,1.19,2.8c.21.1.4-.2.19-.31a2.21,2.21,0,0,1-.65-3.11,7.13,7.13,0,0,1,2.69-2.17.19.19,0,0,0-.19-.32Z"/><path class="cls-9" d="M37.55,20a5.81,5.81,0,0,0-2,8.7c.1.12.29,0,.21-.17-1.76-3-1.19-6.5,1.94-8.28.16-.09,0-.34-.15-.25Z"/><path class="cls-9" d="M42.58,28.33a22.44,22.44,0,0,0-5.95,12.61c0,.13.21.16.23,0a23.89,23.89,0,0,1,5.91-12.46.13.13,0,0,0-.19-.18Z"/><path class="cls-9" d="M43.26,33.26c-.57,2.69-1.21,5.37-1.69,8.08,0,.14.19.2.22.06.69-2.66,1.22-5.36,1.8-8,0-.21-.28-.3-.33-.09Z"/><path class="cls-9" d="M100.51,27.8a2.88,2.88,0,0,0,.92-.22c.08,0,0-.15,0-.15a2.8,2.8,0,0,0-.91.15c-.12,0-.1.24,0,.22Z"/><path class="cls-9" d="M99.38,23.3c-2.81-3.36-8.65-4.09-12.64-3-.25.07-.14.42.11.38a15.53,15.53,0,0,1,6.85.09c2.06.54,3.69,1.72,5.56,2.66a.1.1,0,0,0,.12-.16Z"/><path class="cls-9" d="M94,24.64,90,24.45c-.18,0-.18.28,0,.29L94,25c.22,0,.22-.34,0-.35Z"/><path class="cls-9" d="M98.83,24.91a14.92,14.92,0,0,0-13-2.14.2.2,0,0,0,.11.39,16.83,16.83,0,0,1,12.71,2.06.18.18,0,0,0,.19-.31Z"/><path class="cls-9" d="M98.14,25.64a17.11,17.11,0,0,0-17.32,1.65c-.17.13,0,.41.17.3,5.54-3.28,11-3.68,17-1.7.15.05.25-.18.11-.25Z"/><path class="cls-9" d="M60,57.88a3,3,0,0,0-3.12,2.62,2.94,2.94,0,0,0,2.69,3.08.13.13,0,0,0,0-.26,2.77,2.77,0,0,1-2.44-2.8A2.72,2.72,0,0,1,60,58.1c.14,0,.14-.21,0-.22Z"/><path class="cls-9" d="M56.19,57.61a4.23,4.23,0,0,0-.8,5.5,4.12,4.12,0,0,0,5.2,1.24c.14-.08,0-.31-.1-.25a4.08,4.08,0,0,1-4.89-1.31,3.92,3.92,0,0,1,.76-5c.12-.1,0-.27-.17-.17Z"/><path class="cls-9" d="M54,57.4c-2.2,2.08-4.08,5.28-1.79,8,2.6,3.11,7.13,2.34,10.54,1.35a.14.14,0,0,0-.07-.26c-2.91.55-6.07,1.34-8.79-.29-3.67-2.21-2.28-6.17.28-8.66.11-.11-.06-.27-.17-.17Z"/><path class="cls-9" d="M103.39,37.45a50.89,50.89,0,0,1,7.9,8,.5.5,0,0,0,.9-.12,1.51,1.51,0,0,0,.15-.75.27.27,0,0,0-.4-.23,1.45,1.45,0,0,0-.57.5l.77.1a29.86,29.86,0,0,0-8.28-8.07c-.37-.22-.81.31-.47.6Z"/><path class="cls-9" d="M110.42,45.71c2.83-2.56,5.38-5.31,8.39-7.69.48-.38-.27-1.15-.68-.67l-.4.45a.27.27,0,0,0,.27.45l.59-.1-.37-.88A32.66,32.66,0,0,0,110,45.41c-.16.24.19.48.39.3Z"/><path class="cls-9" d="M114.42,40.22l2,2.58a10.08,10.08,0,0,0,1.74,2.1c.26.2.7-.14.58-.45a11.06,11.06,0,0,0-1.59-2.29l-1.84-2.43c-.38-.5-1.23,0-.85.49Z"/><path class="cls-9" d="M117.92,46.27c1.22-1.39,2.44-2.78,3.63-4.2a22.37,22.37,0,0,0,3.11-4,.35.35,0,0,0-.54-.42,24.37,24.37,0,0,0-3.62,4.21c-1.06,1.31-2.08,2.65-3.11,4-.23.3.28.7.53.41Z"/><path class="cls-9" d="M129.68,42.76a2.31,2.31,0,0,0,3.1,2.56,4.71,4.71,0,0,0,2.8-4.78c-.61-4.8-8.19-.68-8.19,2.68,0,.5.84.65.91.12a3.8,3.8,0,0,1,1.79-2.65c1-.72,2.72-1.94,3.87-1.09s.71,2.22.17,3.21a3.61,3.61,0,0,1-1.22,1.38c-.84.51-2.62.28-2.28-1.17.14-.62-.8-.88-.95-.26Z"/><path class="cls-9" d="M142.72,41a2.27,2.27,0,0,0-1.29,4c1.84,1.75,5.11.63,6.42-1.24a2.79,2.79,0,0,0-1.71-4.46c-2.28-.52-4.78,1.28-5.62,3.34-.08.22.21.41.39.3,1.59-1,3.94-4.34,6.09-2.15,1.26,1.29-.12,3-1.34,3.59a3.7,3.7,0,0,1-2.72.4c-1.2-.38-2.28-2.72-.22-2.84.61,0,.61-1,0-1Z"/><path class="cls-9" d="M158.14,42.28c-2,.58-5.38,2.42-3.41,5,1.67,2.16,5.13,1.15,6.82-.42s1.78-4.17-.5-5.21-5.21.63-6.49,2.69c-.26.42.31.77.65.5,1.13-.91,2-2.16,3.5-2.49,1.83-.41,4,1.09,2.79,3.09a4.91,4.91,0,0,1-4.78,2,1.86,1.86,0,0,1-.91-3.19A5.72,5.72,0,0,1,158.33,43c.44-.15.26-.83-.19-.7Z"/><path class="cls-9" d="M170,45.48c-3.74-.58-5.57,3.56-3.33,6.39,2.52,3.19,8,2.52,10.72-.12,2.18-2.14,3-7.07-.8-8s-10.71.28-11.51,4.8a.29.29,0,0,0,.53.22,7.66,7.66,0,0,1,6.37-4c2.78-.34,7.33-.26,6.16,3.89-.73,2.57-3.44,4.09-6,4.28a6.14,6.14,0,0,1-3.77-.82c-2.52-1.71-2.25-6.41,1.49-5.91.44.06.55-.72.11-.78Z"/><path class="cls-9" d="M188.42,41.4A26.77,26.77,0,0,0,180,52.47c-.16.46.52.72.76.32A47.52,47.52,0,0,1,189,42c.38-.36-.17-.87-.56-.56Z"/><path class="cls-9" d="M177.65,57.09A1.77,1.77,0,0,0,176.38,60a1.9,1.9,0,0,0,3.21-1A1.94,1.94,0,0,0,177,56.88,1.7,1.7,0,0,0,177,60c1.57.59,2.67-1.72,1.35-2.66-.44-.31-1,.41-.58.75.58.47-.2,1.49-.74.74s.68-1.53,1.33-.92a1,1,0,0,1-.82,1.69,1,1,0,0,1,.1-1.89c.42,0,.44-.67,0-.66Z"/><path class="cls-9" d="M104,40.2a187.94,187.94,0,0,1,26.93,1.71,183.91,183.91,0,0,1,25.38,6c.16,0,.22-.19.07-.25A135.44,135.44,0,0,0,104,40.13s0,.07,0,.07Z"/><path class="cls-9" d="M103.11,38.58c22.61-.43,44.67,2.53,66.61,7.87a.09.09,0,0,0,.05-.18c-21.48-6.15-44.37-8.47-66.66-7.78a0,0,0,0,0,0,.09Z"/><path class="cls-9" d="M105.49,43.75a323.44,323.44,0,0,1,33.9,5.37c10.92,2.37,21.55,5.56,32.21,8.88.11,0,.15-.13.05-.17-21.06-7.76-43.83-12.32-66.16-14.21-.09,0-.08.12,0,.13Z"/><path class="cls-9" d="M102,36.68c12.12-1.07,24.19-2.16,36.35-2.52s24.29-.1,36.44.32c.1,0,.1-.14,0-.15-12.27-.83-24.64-.83-36.93-.43A347,347,0,0,0,102,36.6s0,.08,0,.08Z"/><path class="cls-9" d="M127.07,36.94c17.85,0,35.58.85,53.36,2.29.12,0,.12-.17,0-.18a391.3,391.3,0,0,0-53.36-2.2c-.06,0-.06.1,0,.09Z"/><path class="cls-1" d="M107.47,73.48c3.22,0,3.22-5,0-5s-3.22,5,0,5Z"/><path class="cls-1" d="M108.72,68.64l.2-.76a.62.62,0,0,0-1.2-.33l-.2.75a.62.62,0,0,0,1.2.34Z"/><path class="cls-1" d="M108.34,68a1.45,1.45,0,0,1,1.17,1.87,4,4,0,0,1-1.23,1.92.62.62,0,0,0,.88.88,4.51,4.51,0,0,0,1.63-3.51,2.57,2.57,0,0,0-2.12-2.37c-.79-.11-1.13,1.09-.33,1.21Z"/><path class="cls-1" d="M108.43,68.8a1.11,1.11,0,0,1,.26.89c-.14.79,1.07,1.13,1.2.33a2.41,2.41,0,0,0-.57-2.1c-.53-.61-1.41.27-.89.88Z"/></svg>