<svg id="carracters" xmlns="http://www.w3.org/2000/svg" viewBox="0 0 198.43 35.43"><defs><style>.cls-1{fill:#fff;}.cls-2{fill:#6e6e6e;opacity:0.5;}</style></defs><path d="M137.51,5.63a2.46,2.46,0,0,1,0,.28c-.28,1.19-.56,2.37-.83,3.55a1,1,0,0,0,0,.22l.78-.53.12.16c-.32.22-.63.44-.94.64a.26.26,0,0,1-.24,0c-.22-.3-.43-.61-.64-.93.09-.11.15-.13.24,0s.29.43.47.69c.09-.39.17-.74.26-1.09.21-.92.43-1.84.64-2.76a1.1,1.1,0,0,0,0-.18Z"/><path d="M181.69,10.66c.09.47.16.91.25,1.35,0,.17-.06.19-.17.22a22.83,22.83,0,0,1-3.65.79c-1.53.19-3.06.32-4.63.49A18.15,18.15,0,0,1,172,17.14l.15-.08a6.24,6.24,0,0,1,3-1.27,2.66,2.66,0,0,1,3,2c.1.3.17.61.25.9l6.06-2.45.72,1.77a1.09,1.09,0,0,1-.34,0,.39.39,0,0,0-.38,0l-5.64,2.13c-.17.06-.2.15-.2.33,0,1.3,0,2.61,0,3.93l-1.67.09c.07-1.21.14-2.4.09-3.64l-1.41.76a9.64,9.64,0,0,0-2.45,1.85,3.49,3.49,0,0,0-.63.95A1.34,1.34,0,0,0,173,26a3.48,3.48,0,0,0,1.66.6,19.36,19.36,0,0,0,2.4.17c1.57,0,3.13-.07,4.7-.12.31,0,.61-.06.94-.09v1.54c-.7,0-1.39.09-2.09.11-1.37,0-2.73.05-4.1,0a10.43,10.43,0,0,1-3.55-.52,4.43,4.43,0,0,1-1.16-.61,2.72,2.72,0,0,1-.74-3.32A6.38,6.38,0,0,1,173,21.67a21.19,21.19,0,0,1,3.58-2.19c.18-.09.25-.17.21-.39a2.74,2.74,0,0,0-.6-1.41,1.67,1.67,0,0,0-1.58-.4,6.05,6.05,0,0,0-3.26,1.62c-.81.73-1.54,1.54-2.31,2.31l-1.71,1.66-1.12-1.12.14-.13a21.9,21.9,0,0,0,3.08-3.16,15.3,15.3,0,0,0,2.39-4.86.45.45,0,0,0,0-.12h-5V12h5.25c.15,0,.18-.07.2-.18.18-1,.37-1.93.55-2.9,0,0,0-.08,0-.15l2.2.27c0,.26-.21.33-.4.39s-.14.07-.15.12c-.18.79-.36,1.58-.54,2.4A31.35,31.35,0,0,0,181.69,10.66Z"/><path class="cls-1" d="M31,10.66c.08.47.16.91.25,1.35,0,.17-.06.19-.18.22a22.6,22.6,0,0,1-3.65.79c-1.52.19-3.05.32-4.62.49a18.75,18.75,0,0,1-1.53,3.63l.15-.08a6.16,6.16,0,0,1,3-1.27,2.64,2.64,0,0,1,3,2c.1.3.17.61.25.9l6.07-2.45L34.39,18a1.09,1.09,0,0,1-.34,0,.4.4,0,0,0-.38,0L28,20.06c-.18.06-.2.15-.2.33,0,1.3,0,2.61,0,3.93l-1.67.09a33.85,33.85,0,0,0,.08-3.64c-.5.27-1,.51-1.4.76a9.52,9.52,0,0,0-2.46,1.85,4,4,0,0,0-.63.95,1.33,1.33,0,0,0,.5,1.7,3.41,3.41,0,0,0,1.65.6,19.36,19.36,0,0,0,2.4.17c1.57,0,3.14-.07,4.71-.12.3,0,.61-.06.94-.09v1.54c-.7,0-1.4.09-2.1.11-1.36,0-2.73.05-4.1,0a10.38,10.38,0,0,1-3.54-.52,4.66,4.66,0,0,1-1.17-.61,2.71,2.71,0,0,1-.73-3.32,6.46,6.46,0,0,1,1.9-2.16,20.88,20.88,0,0,1,3.59-2.19c.18-.09.25-.17.21-.39a2.74,2.74,0,0,0-.6-1.41,1.69,1.69,0,0,0-1.59-.4,6.09,6.09,0,0,0-3.26,1.62c-.8.73-1.54,1.54-2.31,2.31-.57.56-1.14,1.12-1.71,1.66l-1.12-1.12s.09-.09.15-.13a22.37,22.37,0,0,0,3.07-3.16A15.3,15.3,0,0,0,21,13.6s0-.07,0-.12h-5V12h5.26c.14,0,.18-.07.2-.18l.54-2.9a1.3,1.3,0,0,0,0-.15l2.2.27c0,.26-.21.33-.4.39s-.15.07-.16.12c-.18.79-.35,1.58-.53,2.4A31.35,31.35,0,0,0,31,10.66Z"/><path class="cls-2" d="M109.63,10.66c.08.47.16.91.25,1.35,0,.17-.06.19-.18.22a22.6,22.6,0,0,1-3.65.79c-1.52.19-3,.32-4.62.49a18.75,18.75,0,0,1-1.53,3.63l.15-.08a6.2,6.2,0,0,1,3-1.27,2.64,2.64,0,0,1,3,2c.1.3.17.61.25.9l6.07-2.45.72,1.77a1.09,1.09,0,0,1-.34,0,.4.4,0,0,0-.38,0l-5.64,2.13c-.18.06-.2.15-.2.33,0,1.3,0,2.61,0,3.93l-1.67.09a33.85,33.85,0,0,0,.08-3.64c-.5.27-1,.51-1.4.76a9.52,9.52,0,0,0-2.46,1.85,4,4,0,0,0-.63.95,1.33,1.33,0,0,0,.5,1.7,3.41,3.41,0,0,0,1.65.6,19.36,19.36,0,0,0,2.4.17c1.57,0,3.14-.07,4.71-.12.3,0,.61-.06.94-.09v1.54c-.7,0-1.4.09-2.1.11-1.36,0-2.73.05-4.09,0a10.4,10.4,0,0,1-3.55-.52,4.66,4.66,0,0,1-1.17-.61A2.71,2.71,0,0,1,99,23.83a6.46,6.46,0,0,1,1.9-2.16,20.88,20.88,0,0,1,3.59-2.19c.18-.09.25-.17.21-.39a2.74,2.74,0,0,0-.6-1.41,1.69,1.69,0,0,0-1.59-.4,6.09,6.09,0,0,0-3.26,1.62c-.8.73-1.54,1.54-2.31,2.31-.57.56-1.14,1.12-1.71,1.66l-1.12-1.12s.09-.09.15-.13a22.37,22.37,0,0,0,3.07-3.16,15.3,15.3,0,0,0,2.39-4.86s0-.07,0-.12h-5V12H100c.14,0,.18-.07.2-.18l.54-2.9a1.3,1.3,0,0,0,0-.15l2.2.27c0,.26-.21.33-.4.39s-.15.07-.16.12c-.18.79-.35,1.58-.53,2.4A31.35,31.35,0,0,0,109.63,10.66Z"/><path class="cls-2" d="M146.58,10.59c.08.48.16.92.25,1.36,0,.16-.06.19-.18.22A21.56,21.56,0,0,1,143,13c-1.52.19-3.05.33-4.62.49a18.83,18.83,0,0,1-1.53,3.64L137,17a6.18,6.18,0,0,1,3-1.26,2.64,2.64,0,0,1,3,2c.1.29.17.6.25.9l6.07-2.46.72,1.78a1.09,1.09,0,0,1-.34,0,.4.4,0,0,0-.38,0L143.66,20c-.18.07-.2.16-.2.34,0,1.3,0,2.6,0,3.93l-1.67.09a33.85,33.85,0,0,0,.08-3.64c-.5.27-1,.51-1.4.76A9.3,9.3,0,0,0,138,23.32a3.83,3.83,0,0,0-.63.95,1.33,1.33,0,0,0,.5,1.7,3.44,3.44,0,0,0,1.66.6,21.17,21.17,0,0,0,2.39.17c1.57,0,3.14-.07,4.71-.12.3,0,.61-.06.94-.09v1.54c-.7,0-1.4.09-2.1.1-1.36,0-2.73.06-4.09,0a10.4,10.4,0,0,1-3.55-.52,4.38,4.38,0,0,1-1.17-.62,2.7,2.7,0,0,1-.73-3.31,6.27,6.27,0,0,1,1.9-2.16,20.88,20.88,0,0,1,3.59-2.19c.18-.09.25-.18.21-.39a2.7,2.7,0,0,0-.6-1.41,1.66,1.66,0,0,0-1.59-.4,6.09,6.09,0,0,0-3.26,1.62c-.8.73-1.54,1.54-2.31,2.3-.57.57-1.14,1.12-1.71,1.67l-1.12-1.12.15-.14a21.77,21.77,0,0,0,3.07-3.15,15.3,15.3,0,0,0,2.39-4.86s0-.08,0-.13h-5V12H137c.14,0,.18-.07.2-.18l.54-2.9,0-.15,2.2.27c0,.25-.21.33-.4.39s-.15.07-.16.11c-.18.79-.35,1.58-.53,2.41A31.36,31.36,0,0,0,146.58,10.59Z"/><path d="M91.72,10.86c0-.12.12-.13.24-.12l3.61.25h.29l-.66-.7.09-.07.85.77c.11.1,0,.18,0,.27l-.69.73.14,0c2.23,0,4.47,0,6.71-.08a28.63,28.63,0,0,0,7.1-1.22l.2-.06.28,1.53-1.51.39a31.86,31.86,0,0,1-6.37.83c-2.4.06-4.79,0-7.19.07h-.07V12h.46l0,0,.72-.75L95,11.14l-3-.2a2.3,2.3,0,0,1-.26,0Z"/><path d="M131,21.71a15.37,15.37,0,0,0,5.64-8.24h-5V12H137c.13,0,.18,0,.21-.17.17-.93.35-1.86.53-2.79,0-.08,0-.16,0-.27l2.2.27a.4.4,0,0,1-.33.37c-.19,0-.23.14-.27.31-.14.66-.29,1.32-.44,2a2.07,2.07,0,0,0-.06.26,31.83,31.83,0,0,0,7.74-1.31l.28,1.53-1.51.39a36.31,36.31,0,0,1-6.4.84c-.54,0-.54,0-.72.54A16.55,16.55,0,0,1,136.89,17s0,0,0,.09a6.42,6.42,0,0,1,1.91-1.06,4,4,0,0,1,2.28-.23,2.44,2.44,0,0,1,1.79,1.63,12.23,12.23,0,0,1,.45,1.83,23.92,23.92,0,0,1,.14,5l-1.66.09c0-.41.05-.81.07-1.2a15,15,0,0,0-.19-3.79,6.78,6.78,0,0,0-.29-1.2,1.44,1.44,0,0,0-1.63-1,6,6,0,0,0-3.38,1.49A24.92,24.92,0,0,0,134,21.08c-.6.61-1.22,1.2-1.81,1.78Z"/><path d="M175.5,29c-.13-.21-.48-.12-.5-.4l.06-.07c.23.11.47.2.7.33a.25.25,0,0,1,.07.22c-.08.24-.19.47-.29.7-.18-.05-.18-.05-.1-.25s.09-.22.14-.35a5.68,5.68,0,0,1-2.18-.24,5,5,0,0,1-3.08-2.57,3.28,3.28,0,0,1,.22-3.5,5.37,5.37,0,0,1,3.08-2.14l.06.17-.55.2A5.26,5.26,0,0,0,171,22.57a3.21,3.21,0,0,0-.28,4A5.06,5.06,0,0,0,175.15,29Z"/><path d="M144.15,20.15l.28-.3.16.11-.39.43c-.1.11-.19.1-.3,0l-.38-.32c.18-.26.27.06.42.05l-.17-1c-.15-.91-.29-1.82-.45-2.73a1.52,1.52,0,0,0-1.65-1.44c-.48,0-1,.08-1.43.11a.52.52,0,0,1-.16-.06s.07-.11.11-.12a4.39,4.39,0,0,1,2.07,0,1.52,1.52,0,0,1,1.2,1.26l.54,3.17C144,19.54,144.09,19.82,144.15,20.15Z"/><path d="M130,25.57l1.83-2.76.16.1-1.13,1.71a12.42,12.42,0,0,1,3.14-2c-.08-.23-.5-.15-.44-.54l.92.56-.47.7-.16-.11.29-.45a15.06,15.06,0,0,0-4.09,2.82Z"/><path d="M182.9,14.77l.18.08-.39.9.94-.32,2.81-1c.11,0,.2-.07.22.13l-3.89,1.35.88.38-.07.18c-.35-.15-.7-.29-1-.46a.25.25,0,0,1-.09-.22C182.59,15.47,182.74,15.13,182.9,14.77Z"/></svg>