<svg xmlns="http://www.w3.org/2000/svg" viewBox="0 0 198.43 35.43"><defs><style>.cls-1,.cls-2{fill:#fff;}.cls-1{opacity:0.74;}.cls-3{fill:#6e6e6e;opacity:0.5;}</style></defs><g id="card_base" data-name="card base"><rect class="cls-1" x="163.33" y="3.63" width="27.33" height="28.98" rx="5.08"/><rect class="cls-1" x="126.87" y="3.63" width="27.33" height="28.98" rx="5.08"/></g><g id="carracters"><path d="M176.28,6.56c0,.34,0,.68,0,1-.06,1.08-.13,2.15-.2,3.3.24-.22.44-.4.63-.59s.16-.08.22,0l-.81.84c-.12.11-.2.06-.3,0l-.85-.76.19-.22.71.76c0-.26,0-.46.05-.66.07-1.15.14-2.31.2-3.46,0-.08,0-.16,0-.23Z"/><path d="M186.54,28.16a24.08,24.08,0,0,0-7-3.92c0,.45,0,.88-.08,1.31a15.62,15.62,0,0,1-.36,1.93,2.6,2.6,0,0,1-2,1.88,7.39,7.39,0,0,1-5.5-.47,3.44,3.44,0,0,1-2-2.45,3.12,3.12,0,0,1,1.08-3.13,5.67,5.67,0,0,1,3-1.27,12.94,12.94,0,0,1,3.83.08h.18c-.38-4.36-.5-8.72-.58-13.11l1.25.07,1.22.07c0,.38-.33.44-.61.52v4.49c1.31-.1,2.61-.16,3.9-.29s2.58-.31,3.91-.48l.16,1.66a67.83,67.83,0,0,1-7.95.68c0,2.24.27,4.47.39,6.71a27.25,27.25,0,0,1,8.23,4.19ZM177.8,25h0c0-.34,0-.67,0-1s-.07-.31-.29-.36a10,10,0,0,0-3.66-.18,4.11,4.11,0,0,0-2.17.93,1.73,1.73,0,0,0-.59,1.64,2.08,2.08,0,0,0,1.06,1.48,4.89,4.89,0,0,0,2.42.64,4.45,4.45,0,0,0,2-.32,1.85,1.85,0,0,0,1.18-1.55C177.83,25.85,177.8,25.42,177.8,25Z"/><path class="cls-2" d="M34,27.87A24.31,24.31,0,0,0,27,24c0,.46,0,.89-.08,1.31a16.14,16.14,0,0,1-.36,1.94,2.63,2.63,0,0,1-2,1.88,7.42,7.42,0,0,1-5.51-.48,3.44,3.44,0,0,1-2-2.45A3.1,3.1,0,0,1,18.16,23a5.76,5.76,0,0,1,3-1.28,13,13,0,0,1,3.84.08h.17c-.38-4.36-.5-8.71-.58-13.1l1.25.07,1.22.06c0,.38-.33.45-.61.52v4.49c1.32-.09,2.61-.16,3.9-.29s2.58-.31,3.91-.47l.16,1.65a65.76,65.76,0,0,1-7.94.69c0,2.24.26,4.46.39,6.7a27.57,27.57,0,0,1,8.22,4.2Zm-8.74-3.16h0c0-.33,0-.67,0-1a.3.3,0,0,0-.28-.36,9.83,9.83,0,0,0-3.66-.18,4,4,0,0,0-2.18.92,1.74,1.74,0,0,0-.59,1.65,2.09,2.09,0,0,0,1.06,1.47,4.79,4.79,0,0,0,2.42.64,4.49,4.49,0,0,0,2.05-.32A1.85,1.85,0,0,0,25.28,26C25.32,25.56,25.29,25.14,25.29,24.71Z"/><path class="cls-3" d="M148.51,27.87a24.31,24.31,0,0,0-7-3.92c0,.46,0,.89-.08,1.31A16.14,16.14,0,0,1,141,27.2a2.63,2.63,0,0,1-2,1.88,7.42,7.42,0,0,1-5.51-.48,3.44,3.44,0,0,1-2-2.45A3.12,3.12,0,0,1,132.64,23a5.76,5.76,0,0,1,3-1.28,13,13,0,0,1,3.84.08h.17c-.38-4.36-.5-8.71-.58-13.1l1.25.07,1.22.06c0,.38-.33.45-.6.52v4.49c1.31-.09,2.6-.16,3.89-.29s2.58-.31,3.91-.47l.16,1.65a65.76,65.76,0,0,1-7.94.69c0,2.24.26,4.46.39,6.7a27.57,27.57,0,0,1,8.22,4.2Zm-8.74-3.16h0c0-.33,0-.67,0-1s-.06-.32-.28-.36a9.82,9.82,0,0,0-3.66-.18,4,4,0,0,0-2.18.92,1.74,1.74,0,0,0-.59,1.65,2.09,2.09,0,0,0,1.06,1.47,4.79,4.79,0,0,0,2.42.64,4.49,4.49,0,0,0,2.05-.32A1.85,1.85,0,0,0,139.76,26C139.8,25.56,139.77,25.14,139.77,24.71Z"/><path d="M148.78,13.08l.16,1.68a66.27,66.27,0,0,1-8,.69V13.84A58.67,58.67,0,0,0,148.78,13.08Z"/><path d="M174.57,21.28l-.16-.49.18-.07c.09.26.19.5.26.75a.27.27,0,0,1-.1.22,3.77,3.77,0,0,1-.64.23c-.05,0-.13-.05-.19-.08l0-.06.52-.2v-.06c-.3,0-.61-.05-.92,0a5.32,5.32,0,0,0-4.08,1.91A3.21,3.21,0,0,0,169.7,28a5.79,5.79,0,0,0,2.12,1.39l.11,0a1.71,1.71,0,0,1,.11.14c-.06,0-.13.06-.18,0a5.87,5.87,0,0,1-2-1.18,4.08,4.08,0,0,1-1.36-2.22,3.32,3.32,0,0,1,.83-2.92,5.49,5.49,0,0,1,4.18-2C173.85,21.27,174.21,21.28,174.57,21.28Z"/><path d="M143,13.09c-.27-.17.05-.24.06-.38L142,12.62a4.93,4.93,0,0,1-.54,0s-.1-.08-.14-.13l0-.06,1.76.12c0-.14-.28-.24,0-.35C143.66,12.7,143.55,12.6,143,13.09Z"/></g></svg>