<svg id="illustration" xmlns="http://www.w3.org/2000/svg" viewBox="0 0 198.43 137.43"><defs><style>.cls-1{fill:#4f321f;}.cls-2{fill:#3e0c49;}.cls-3{fill:#feda0c;}.cls-4{fill:#809091;}.cls-5{fill:#fdc892;}.cls-6{fill:#fff;}.cls-7{fill:#cea489;}.cls-8{fill:#e82625;}.cls-9{fill:#395037;}.cls-10{fill:#1c301d;}.cls-11{fill:#538a84;}.cls-12{fill:#36394c;}.cls-13{fill:#e82325;}.cls-14{fill:#010101;}</style></defs><path class="cls-1" d="M27.43,131.77v6.75H167.34l-.8-109-33.16.88s4.55,39.38-26.45,68.38S63.68,129.76,27.43,131.77Z"/><path class="cls-2" d="M81.57,37.12,83,48.35s.59,8.09,2.41,11.14l-4.66.14L78,47.58v6.91l-.87,2.08-4.65.07-.3-4.23L72.57,54s.44-11.4,1.12-13.06C72.57,39.24,72,38.56,72,38.56l-1.31-1.44-6-3.51L59.29,28.7l-3.66-5.1-.69-1.26-.24-.74-1.85-.92a18.48,18.48,0,0,1,2.51-1.83,31.37,31.37,0,0,1,3.7-1.18L62,17.06,64.45,17l2.61.77,1.48.77,2.09,1.72-.09.35-.89.1-.49,1.64,0,2.49.7,2.5L71,29.53,73,32l2.17,2,1,1,1.68.58Z"/><polygon class="cls-2" points="83.36 35.6 91.5 36.69 87.72 22.03 88.01 20.72 86.75 20.62 86.77 19.83 74.42 24.75 82.5 23.93 83.36 35.6"/><polygon class="cls-3" points="83.04 29.11 89.98 28.96 90.53 31.92 83.02 31.45 83.04 29.11"/><path class="cls-4" d="M83.15,35.84l-4.42,2.49,1.45-.26-2.33,1.79,1.65-.31L77,42l1.76-.45-.31.38L85,39.2l1.13.83,1.72,2.78L90,41.49s-.08,4.71-1.73,5.38v1l1.85,2.3.19-2.38,1.22,1-.06-3.65,1,1.13-.64-2.73.77-.38-.8-2.24.75.48-1-4.69Z"/><path class="cls-5" d="M78.73,42.16l-.55,4s-.28,3,1.2,4.46,1.68.59,1.68.59,0-2.17.42-2.5a5.47,5.47,0,0,1,1.89-.43s2.06,2.8,2.09,4.39c0,0,1.14-.1,1.14-2.73s-.57-3,0-3.78-.31.12.35.51A1.38,1.38,0,0,0,89,46.27,7.1,7.1,0,0,0,90,41.49L87.8,42.81l-2.5-3.7-2.15.73-1.58.8-1.39.85-.94.33Z"/><path class="cls-6" d="M83.43,42.47c-.4.72.65,1.87,1.33,1.26a.2.2,0,0,0,0-.32c-.19-.1-.38-.07-.57-.16s-.37-.44-.47-.75a.14.14,0,0,0-.25,0Z"/><path class="cls-6" d="M83.45,42.47c-.75.38,0,1.72.61,1.27a.14.14,0,0,0,0-.19,1.19,1.19,0,0,0-.2-.19c-.35-.36-.35-.39-.34-.82a.08.08,0,0,0-.12-.07Z"/><path class="cls-6" d="M86.9,45.86a1.24,1.24,0,0,0,1.41.79c.09,0,.16-.11.19-.19l0-.06a.14.14,0,0,0,0-.15c-.15-.16-.27-.12-.48-.14a1.26,1.26,0,0,1-.78-.44.19.19,0,0,0-.32.19Z"/><path class="cls-6" d="M87,46A1,1,0,0,0,88.07,47a.3.3,0,0,0,.26-.15l0-.08a.21.21,0,0,0,0-.25c-.32-.28-.84-.08-1-.64A.21.21,0,0,0,87,46Z"/><path class="cls-6" d="M84,30.46a5.62,5.62,0,0,0,2,.27,4.07,4.07,0,0,0,1.84-.16.28.28,0,0,0,0-.48A4.22,4.22,0,0,0,86,29.88a5.59,5.59,0,0,0-2,.21.19.19,0,0,0,0,.37Z"/><path class="cls-6" d="M79,23.33c1.1-.41,2.13-1,3.21-1.41s2-.64,3-1.1a.23.23,0,0,0-.12-.43,13.19,13.19,0,0,0-6.17,2.72.13.13,0,0,0,.12.22Z"/><path class="cls-6" d="M67.5,23.8a3.17,3.17,0,0,0,.81,3.3.25.25,0,0,0,.39-.3,5.89,5.89,0,0,1-.79-2.94.21.21,0,0,0-.41-.06Z"/><path class="cls-6" d="M67.69,29.44c.32.48.82.78,1.13,1.27s.36,1.05.7,1.47a.2.2,0,0,0,.32,0c.6-1-.86-3-2-2.93-.11,0-.21.13-.14.23Z"/><path class="cls-6" d="M71.92,34.22a2.75,2.75,0,0,0,1.07,1,2.42,2.42,0,0,0,1.38.47c.18,0,.34-.26.17-.4a6.93,6.93,0,0,0-1.15-.59c-.4-.22-.75-.54-1.17-.73a.22.22,0,0,0-.3.29Z"/><path class="cls-6" d="M57.09,25.42a11.84,11.84,0,0,0,2.31,3,10.94,10.94,0,0,0,3,2.31c.25.1.54-.19.31-.4-.89-.86-2-1.53-2.86-2.39s-1.7-1.8-2.57-2.69c-.11-.12-.28,0-.21.16Z"/><path class="cls-6" d="M57,19.41a16.26,16.26,0,0,1,4.6-1.1c1.45,0,2.77.49,4.19.51a.13.13,0,0,0,.09-.21c-2.22-1.89-6.89-1.12-9,.56-.12.09,0,.28.13.24Z"/><path class="cls-6" d="M61.12,20.35a7.87,7.87,0,0,0,1.79,5.16c.19.23.54-.06.4-.31a11.06,11.06,0,0,1-1.6-4.85.3.3,0,0,0-.59,0Z"/><path class="cls-6" d="M74.74,43.06a15.89,15.89,0,0,0-.47,4.17.24.24,0,0,0,.46.06,15.42,15.42,0,0,0,.35-4.18.17.17,0,0,0-.34,0Z"/><path class="cls-6" d="M80.75,53.59a6.65,6.65,0,0,0,.62,2.15c.13.23.54.14.51-.13a6.55,6.55,0,0,0-.74-2.18c-.12-.24-.42-.06-.39.16Z"/><path class="cls-6" d="M79.56,45.76a9.51,9.51,0,0,1,.26-1.29,4.61,4.61,0,0,0,.45-1.12.16.16,0,0,0-.2-.16c-.81.31-1,1.86-.77,2.57,0,.12.24.15.26,0Z"/><path class="cls-6" d="M85.78,49.29c0,.48.06,1,.07,1.46s-.17,1-.13,1.44a.07.07,0,0,0,.12.05,2.3,2.3,0,0,0,.53-1.39,2.54,2.54,0,0,0-.23-1.65.19.19,0,0,0-.36.09Z"/><path class="cls-6" d="M81.76,43.23a.77.77,0,0,0,1,.65c.09,0,.17-.18.07-.26a2.8,2.8,0,0,0-.95-.5.11.11,0,0,0-.14.11Z"/><path class="cls-6" d="M87.68,44.93a.77.77,0,0,0,.06,1,.68.68,0,0,0,1,0,.22.22,0,0,0-.15-.37c-.3,0-.7,0-.61-.48a.18.18,0,0,0-.32-.14Z"/><path class="cls-6" d="M84,42c.09.58.53,1.36,1.22,1.3a.22.22,0,0,0,.15-.38c-.33-.38-.74-.53-.92-1A.23.23,0,0,0,84,42Z"/><path class="cls-6" d="M81,38.28a5.19,5.19,0,0,0,.68-.56.08.08,0,0,0-.1-.13,4.79,4.79,0,0,0-.71.46c-.14.1,0,.32.13.23Z"/><path class="cls-6" d="M81,40.13a6,6,0,0,0,1-.55c.13-.11,0-.28-.17-.22a4.65,4.65,0,0,0-.92.59.1.1,0,0,0,.1.18Z"/><path class="cls-6" d="M91,41.92a5.57,5.57,0,0,0,.68,1.41.15.15,0,0,0,.25-.1,5.51,5.51,0,0,0-.47-1.51.25.25,0,1,0-.46.2Z"/><path class="cls-6" d="M90.47,46.94a2.32,2.32,0,0,0,.28.67c.09.14.34.06.28-.12a2.41,2.41,0,0,0-.38-.63c-.06-.08-.22,0-.18.08Z"/><path class="cls-6" d="M89.59,32.67a3.55,3.55,0,0,0,0,1.38,2.34,2.34,0,0,0,.32,1.22c.1.13.34.15.38-.05a3.9,3.9,0,0,0-.1-1.27A9.11,9.11,0,0,0,90,32.67a.22.22,0,0,0-.43,0Z"/><path class="cls-6" d="M87.68,35.68,89,35.8a2,2,0,0,0,1,0,.16.16,0,0,0,0-.27,1.86,1.86,0,0,0-1-.21l-1.31-.1c-.33,0-.33.48,0,.51Z"/><path class="cls-7" d="M83.74,44.11c-.33,0-.64.11-1,.1a4,4,0,0,0-.84,0c-.11,0-.16.19-.07.25a2,2,0,0,0,2,0,.16.16,0,0,0-.08-.3Z"/><path class="cls-7" d="M83.34,44.11a3.09,3.09,0,0,1-.85-.43.52.52,0,0,0-.47-.15.14.14,0,0,0-.1.13c0,.58,1,.73,1.38.72a.14.14,0,0,0,0-.27Z"/><path class="cls-7" d="M86.58,46.06a1.91,1.91,0,0,0,.54,1.79.18.18,0,0,0,.31-.18c-.08-.3-.26-.56-.35-.87a6.77,6.77,0,0,0-.22-.77c-.06-.13-.24-.08-.28,0Z"/><path class="cls-7" d="M86.9,46.6c-.05.42.24,1.14.69,1.23a.11.11,0,0,0,.13-.13c0-.23-.18-.32-.31-.52s-.21-.42-.34-.63a.09.09,0,0,0-.17.05Z"/><path class="cls-7" d="M86.68,46.47A1.2,1.2,0,0,0,86.62,48a.16.16,0,0,0,.27-.15,2.9,2.9,0,0,1,0-1.31c0-.09-.1-.18-.17-.1Z"/><path class="cls-7" d="M82.53,46.06a1.22,1.22,0,0,0,.28,2.24.26.26,0,0,0,.14-.51c-.66-.27-.62-.94-.12-1.34.22-.18-.06-.52-.3-.39Z"/><path class="cls-7" d="M83.79,47.24v0a.25.25,0,0,0-.17-.22c-.5-.14-1.12.32-.88.85a.24.24,0,0,0,.34.08c.19-.14.29-.32.49-.46s.23-.1.22-.23Z"/><path class="cls-7" d="M81.17,43.52l-.19.13s0,.05,0,0l.19-.12s0-.06,0,0Z"/><path class="cls-7" d="M80.54,44.57c-.29,1.15,0,3.47,1,4.23.08.06.16,0,.15-.12a17,17,0,0,0-.7-1.87,12.65,12.65,0,0,1-.23-2.21c0-.12-.19-.16-.22,0Z"/><path class="cls-7" d="M79,42.49A19.09,19.09,0,0,0,82.2,41a16,16,0,0,0,3.08-1.73c.12-.1,0-.3-.15-.26a16.2,16.2,0,0,0-3.23,1.47,19.68,19.68,0,0,0-3.06,1.75c-.1.08,0,.25.13.22Z"/><path class="cls-7" d="M84.92,39.49a11.64,11.64,0,0,0,1.21,2.11,5.7,5.7,0,0,0,1.38,1.73.21.21,0,0,0,.31-.24,6.91,6.91,0,0,0-1.22-1.93,17.63,17.63,0,0,0-1.35-1.86c-.12-.14-.4,0-.33.19Z"/><path class="cls-7" d="M87.43,43.14a3,3,0,0,0,1.41-.53c.44-.22,1-.38,1.25-.82a.11.11,0,0,0-.09-.16,2.76,2.76,0,0,0-1.41.54,2.86,2.86,0,0,0-1.23.83.09.09,0,0,0,.07.14Z"/><path class="cls-7" d="M83.22,40.86a1.21,1.21,0,0,0,0,1.28.2.2,0,0,0,.35-.2,1.79,1.79,0,0,1-.18-1,.11.11,0,0,0-.2-.06Z"/><path class="cls-7" d="M83.42,41.8c-.73-.09-1.27,1.49-.51,1.74a.15.15,0,0,0,.17-.1c0-.26-.09-.49,0-.76s.32-.43.49-.66,0-.21-.12-.22Z"/><path class="cls-7" d="M87,44.45A1.25,1.25,0,0,0,87.22,46c.16.12.32-.11.25-.26a1.43,1.43,0,0,1-.2-1.17.17.17,0,0,0-.31-.13Z"/><path class="cls-7" d="M81.28,41.7a2.09,2.09,0,0,0-.21,1.82.21.21,0,0,0,.37-.05,3.46,3.46,0,0,0,0-.79c0-.3.1-.59.1-.89a.17.17,0,0,0-.31-.09Z"/><path class="cls-7" d="M85.25,44.44c-.21.11-.17.32-.27.52s-.37.39-.49.64a.15.15,0,0,0,.09.22c.62.13,1-.63,1-1.13a.27.27,0,0,0-.12-.22.21.21,0,0,0-.19,0Z"/><path class="cls-7" d="M84.46,45.73c.44-.11,1-.45,1-.94a.2.2,0,0,0-.29-.16,4.54,4.54,0,0,0-.82.87.14.14,0,0,0,.13.23Z"/><path class="cls-7" d="M85.11,44.48a5.29,5.29,0,0,0-.91.56c-.22.18,0,.56.23.39a4.91,4.91,0,0,0,.87-.71.15.15,0,0,0-.19-.24Z"/><path class="cls-7" d="M84.08,45.21l-.21-.11-.05.41c.37-.11.74-.24,1.11-.37s.18-.6-.14-.49-.84.16-1.08.47a.17.17,0,0,0,.07.28c.38.12.79-.12,1.15-.26l-.14-.49c-.38.15-.77.29-1.14.45s-.09.41.11.42H84a.17.17,0,0,0,.09-.32Z"/><path class="cls-5" d="M81.58,59.75c.57,1.33,1.68,3,3.39,2.35A1.62,1.62,0,0,0,86,60.75c0-.51-.16-1.25-.77-1.23a.27.27,0,0,0-.27.27c0,.29.22.5.24.78,0,.63-.66.91-1.19.84-1-.13-1.66-1.07-2.16-1.84a.18.18,0,0,0-.31.18Z"/><path class="cls-5" d="M82.24,60.42a6.66,6.66,0,0,0,3.07.15c.41-.13.49-.84,0-.92-.93-.14-1.88,0-2.82-.13-.57-.08-.84.78-.25.9Z"/><path class="cls-5" d="M82.5,60.36c-.15.74.59,1.34,1.24,1.45s1.89-.26,2-1.09a.53.53,0,0,0-.77-.58c-.4.21-.57.59-1.09.59a2.72,2.72,0,0,1-1.16-.46.16.16,0,0,0-.23.09Z"/><path class="cls-5" d="M82.82,60.26a7.91,7.91,0,0,0,2.06.18.51.51,0,0,0,.48-.37.46.46,0,0,0,0-.38.5.5,0,0,0-.43-.25,6.67,6.67,0,0,1-1.84,0c-.53-.09-.77.71-.22.82Z"/><path class="cls-5" d="M72.15,56.71c-.46,2.15,1.71,2.92,3.43,3.09.87.09,1.73,0,2.1-.88a1.77,1.77,0,0,0-.6-2.13.35.35,0,0,0-.52.29c0,.44.27.82.17,1.25-.15.64-.9.48-1.46.41-1.08-.12-2.53-.62-2.5-2a.32.32,0,0,0-.62-.08Z"/><path class="cls-5" d="M72.72,57.4a7.78,7.78,0,0,0,2.44.38c.62,0,1.49,0,1.79-.59a.41.41,0,0,0-.06-.46c-.48-.49-1.11-.23-1.73-.17s-1.58.17-2.35.18a.34.34,0,0,0-.09.66Z"/><path class="cls-5" d="M73.4,58.34a8.33,8.33,0,0,0,3.35.47c1-.08,1-1.62,0-1.53a10.33,10.33,0,0,1-3-.07.59.59,0,0,0-.31,1.13Z"/><path class="cls-8" d="M77.9,61.85l0-.31s0,0,0,0l-.08.31c0,.06.08.07.09,0Z"/><path class="cls-8" d="M77.86,59a7.38,7.38,0,0,0-1.37,2.14c-.25.56-.73,1.35-.35,1.94a.26.26,0,0,0,.29.11c.65-.18.8-.94,1-1.5a14.83,14.83,0,0,0,.89-2.41.3.3,0,0,0-.49-.28Z"/><path class="cls-8" d="M76.48,61a5.3,5.3,0,0,0-1.34,1.9c-.22.57.73.84.93.26a6.69,6.69,0,0,1,.86-1.81c.2-.27-.23-.57-.45-.35Z"/><path class="cls-8" d="M75.38,62.88a3.49,3.49,0,0,0,2,1.78c.62.27,1.91.79,2.43.13a.41.41,0,0,0,.06-.46c-.38-.6-1.26-.48-1.88-.69a20.11,20.11,0,0,1-2.3-1.09.24.24,0,0,0-.33.33Z"/><path class="cls-8" d="M79.71,64.86a6.74,6.74,0,0,0,2.22-3.36.44.44,0,0,0-.12-.45.43.43,0,0,0-.32-.14.49.49,0,0,0-.4.23c-.32.56-.53,1.18-.84,1.75s-.6,1.13-.86,1.73a.2.2,0,0,0,.32.24Z"/><path class="cls-8" d="M78.19,59.67a3.08,3.08,0,0,0,1.12.9c.49.29,1,.58,1.48.85a.51.51,0,0,0,.52-.88,12.27,12.27,0,0,0-1.59-.87,2.44,2.44,0,0,0-1.39-.32.22.22,0,0,0-.14.32Z"/><path class="cls-8" d="M80.72,60.92a32.79,32.79,0,0,0-1.66,2.95l.76.32c.22-1,.58-2,.87-3,.17-.59-.63-.87-1-.4-.61.9-1.2,1.82-1.8,2.73l.95.4c.33-1,.69-2.07,1.05-3.1.22-.63-.66-.89-1-.42-.64.88-1.25,1.77-1.87,2.66l1,.41c.29-.77.6-1.53.88-2.29.19-.5.31-.93-.1-1.34a.58.58,0,0,0-.56-.14c-.59.17-.77.67-1.06,1.18a13.77,13.77,0,0,0-1,1.9.51.51,0,0,0,.85.49,8.59,8.59,0,0,0,.73-1.15c.15-.25.53-1.25.79-1.32L78,60.68s-.87,2.22-1,2.53c-.23.61.65.87,1,.42.63-.89,1.27-1.76,1.89-2.65l-1-.42c-.32,1-.65,2.08-1,3.11-.19.58.63.87.94.4.61-.9,1.23-1.8,1.82-2.72l-1-.4c-.22,1-.36,2-.66,3a.42.42,0,0,0,.76.31,33.06,33.06,0,0,0,1.41-3.16c.12-.28-.32-.44-.47-.2Z"/><path class="cls-8" d="M64.14,66.35c1.25.26,2.55,0,3.83.26a24,24,0,0,1,3.67,1.32c.27.1.49-.3.28-.49-1.68-1.59-5.74-2.62-7.81-1.29a.11.11,0,0,0,0,.2Z"/><path class="cls-8" d="M64.71,65.89c.94.45,2.05,0,3.07,0A11.07,11.07,0,0,1,72.44,67a.46.46,0,0,0,.47-.79,9.33,9.33,0,0,0-4.61-1.44c-1.11-.06-3-.11-3.63,1a.12.12,0,0,0,0,.15Z"/><path class="cls-8" d="M71.62,67.48h0s0,0,0,0Z"/><path class="cls-8" d="M71.61,67.67a2.31,2.31,0,0,0,.82-.46c.21-.14.31-.21.3-.48a.16.16,0,0,0-.13-.16c-.24-.09-.35,0-.55.16a2.27,2.27,0,0,0-.65.66.19.19,0,0,0,.21.28Z"/><path class="cls-8" d="M69.9,66.63a1.63,1.63,0,0,0,.66.28,7.1,7.1,0,0,1,1,.36c.49.22.92-.49.43-.73s-1.59-.6-2.06-.09a.14.14,0,0,0,0,.18Z"/><path class="cls-8" d="M69.72,66.63,71,67a.91.91,0,0,0,1-.11.46.46,0,0,0,.12-.46c-.13-.45-.42-.53-.83-.63L70,65.52a.58.58,0,0,0-.31,1.11Z"/><path class="cls-8" d="M73.19,69.27a3.91,3.91,0,0,0,1,.69,10.48,10.48,0,0,1,1.18.93A6.14,6.14,0,0,1,77,73.39c.13.33.66.2.54-.15A8.41,8.41,0,0,0,76,70.41a3.84,3.84,0,0,0-2.61-1.58.26.26,0,0,0-.18.44Z"/><path class="cls-8" d="M77.56,73.17a6,6,0,0,0-1.11-2.86c-.42-.7-1-1.91-1.9-2.11a.23.23,0,0,0-.28.28c.18.86,1.19,1.58,1.67,2.31a21,21,0,0,0,1.38,2.47.14.14,0,0,0,.24-.09Z"/><path class="cls-8" d="M73.34,69.5a3.93,3.93,0,0,0,.92-.6c.23-.18.41-.26.42-.57a.15.15,0,0,0-.1-.13c-.31-.06-.41.08-.64.28a3.65,3.65,0,0,0-.79.78.17.17,0,0,0,.19.24Z"/><path class="cls-8" d="M60.73,37.5c.8,1.26,2,2.2,2.74,3.54s.88,2.84,1.53,4.2a.14.14,0,0,0,.25,0c.63-2.56-1.85-7.06-4.38-7.88a.13.13,0,0,0-.14.18Z"/><path class="cls-8" d="M64.94,44.53a14.46,14.46,0,0,1-3.12,10.65c-.38.47.29,1.15.67.67A13.58,13.58,0,0,0,65.4,44.47a.23.23,0,0,0-.46.06Z"/><path class="cls-8" d="M61.57,55.79a.64.64,0,0,0,.8.69.26.26,0,0,0,.12-.43c-.16-.16-.35-.27-.52-.43a.24.24,0,0,0-.4.17Z"/><path class="cls-8" d="M62.48,56.27c3.9-3.68,4.74-9.68,3-14.59-.17-.47-.92-.26-.75.21,1.82,5.06.57,9.92-2.51,14.16-.13.17.15.37.3.22Z"/><path class="cls-8" d="M62,38.35a6.74,6.74,0,0,1,2.6,3.95c.06.32.54.18.48-.13a5.59,5.59,0,0,0-2.91-4.05c-.13-.06-.31.11-.17.23Z"/><path class="cls-8" d="M64.37,40.65A5,5,0,0,0,65,42.43c.14.29.65.09.53-.23a5.28,5.28,0,0,0-.91-1.66.16.16,0,0,0-.26.11Z"/><path class="cls-8" d="M60.78,37.32c.36.46.76,1.2,1.32,1.43a.19.19,0,0,0,.27-.2c-.15-.61-.83-1.14-1.24-1.58-.22-.24-.54.1-.35.35Z"/><path class="cls-6" d="M68.42,60.24c-.75-1.29-2.9-.61-3.64.34-1.09,1.41.31,2.8,1.69,3.15.47.12.81-.58.34-.82a4.44,4.44,0,0,1-1.2-.63c-.49-.49-.23-1.06.27-1.39.77-.5,1.61-.26,2.45-.43a.16.16,0,0,0,.09-.22Z"/><path class="cls-6" d="M64.31,61.65c-.35,1.48,1.25,2,2.4,2.49a20,20,0,0,0,6.86,1.75.33.33,0,0,0,.09-.65c-1.44-.35-2.9-.64-4.32-1.08s-4.14-.91-4.7-2.51a.17.17,0,0,0-.33,0Z"/><path class="cls-6" d="M73.25,66.38a3,3,0,0,0,1.59-.86,3.64,3.64,0,0,0,1.27-1.46.31.31,0,0,0-.46-.35,7.41,7.41,0,0,0-1.3,1.21,5.64,5.64,0,0,0-1.28,1.15.21.21,0,0,0,.18.31Z"/><path class="cls-6" d="M75.85,63.94c-.33-.22-.78-.51-.87-.93s.25-.79.5-1.12-.13-.58-.4-.52c-1.78.38-.76,3.63.77,2.73a.09.09,0,0,0,0-.16Z"/><path class="cls-6" d="M75,61.57c-2.19-.52-4.47-1.46-6.75-1.43-1,0-3,.25-3.16,1.6-.12,1.13,1.36,1.69,2.16,2a21,21,0,0,0,6.1,1.5c.52.06.63-.81.12-.92-1.21-.27-2.43-.44-3.63-.74-1-.26-5.26-1.29-2.21-2.41,1.16-.42,3.18.31,4.37.5a9.45,9.45,0,0,0,3,.13c.14,0,.12-.24,0-.27Z"/><path class="cls-6" d="M73.91,65.22c.41-.26,1-.54,1-1.12a.34.34,0,0,0-.52-.29c-.41.22-.43.74-.72,1.09-.14.16,0,.44.25.32Z"/><path class="cls-6" d="M74.56,63.92c-1.16-.43-2.45-.37-3.65-.72a17.55,17.55,0,0,1-3.74-1.64.78.78,0,0,0-.79,1.35c2.13,1.32,5.81,2.69,8.24,1.49.22-.11.13-.41-.06-.48Z"/><path class="cls-6" d="M66.71,62.15a21.81,21.81,0,0,0,3.71.17c1.22.1,2.47.71,3.67.46a.41.41,0,0,0,.18-.68c-.85-.94-2.39-1-3.59-1.1a6.3,6.3,0,0,0-4,.62.29.29,0,0,0,.07.53Z"/><path class="cls-6" d="M73.94,62.19c-.12.44.13,1,0,1.37l.34-.33c-.26.09-.83-.4-1.1-.51A6.92,6.92,0,0,0,72,62.38c-.72-.14-2,0-2.57-.29-1-.51-1.79,1-.84,1.44a6.55,6.55,0,0,0,2.58.31,17.3,17.3,0,0,0,3,.41c1.23-.15.65-1.54,0-2.13a.16.16,0,0,0-.27.07Z"/><path class="cls-6" d="M73.88,61.73A2.09,2.09,0,0,0,73.27,63a1.8,1.8,0,0,0,.49,1.45c.45.4,1.28,0,1.07-.63s-.56-1.12-.38-1.75c.09-.32-.34-.61-.57-.34Z"/><path class="cls-6" d="M74.93,64.06A2.25,2.25,0,0,0,73,65.13a.56.56,0,0,0,.77.76,2.56,2.56,0,0,0,.74-.76,3.49,3.49,0,0,0,.57-.81.18.18,0,0,0-.15-.26Z"/><path class="cls-6" d="M71.69,66.38a4.13,4.13,0,0,0-.25.38c0,.07.06.12.11.06s.17-.24.25-.37-.07-.14-.11-.07Z"/><path class="cls-8" d="M71.29,66.39A.75.75,0,0,0,72,67.46a.55.55,0,0,0,.38-.92c-.18-.17-1-.54-1.13-.15Z"/><path class="cls-8" d="M73.74,69a1,1,0,0,0,.62.92.71.71,0,1,0,.36-1.34c-.15,0-.31-.08-.47-.1a.53.53,0,0,0-.51.52Z"/><path class="cls-8" d="M71,66.72c0,.62.82.88,1.35.83a.61.61,0,1,0-.16-1.21,6.5,6.5,0,0,0-1.1.23.17.17,0,0,0-.09.15Z"/><path class="cls-8" d="M59.73,59.86a1.72,1.72,0,0,0-2.66.47,2.9,2.9,0,0,0,.16,3.23,3,3,0,0,0,5.24-1,2.54,2.54,0,0,0-4.29-2.31c-1.68,1.83.86,5,2.75,3.1a1.74,1.74,0,0,0-.64-2.89,1.26,1.26,0,0,0-1.24,2.11c.7.69,1.79-.39,1.08-1.08.32.31-.93,1.64-1.05.33a.92.92,0,0,1,.78-.9c1.12-.25,1.62,1.15,1,2a1.67,1.67,0,0,1-2.65,0,1.43,1.43,0,0,1,1.24-2.36.35.35,0,0,0,.24-.6Z"/><path class="cls-9" d="M67.2,73.21c1.91-.85,3.48-2.59,5-4s3.4-2.76,4.52-4.49c.16-.25-.15-.5-.38-.39-1.86.93-3.45,2.65-5,4s-3.43,2.7-4.49,4.51c-.13.23.12.43.34.34Z"/><path class="cls-9" d="M76.17,64.6c-.12.45.35,1,.83.89a.29.29,0,0,0,.17-.41,1.07,1.07,0,0,0-.25-.27c-.11-.1-.19-.23-.32-.33a.26.26,0,0,0-.43.12Z"/><path class="cls-9" d="M76.93,64.77a53.65,53.65,0,0,0-4.82,4.11c-1.75,1.53-3.53,3-5.29,4.55-.22.19.07.57.31.4,3.5-2.44,7.52-5.33,10.11-8.75.14-.18-.13-.44-.31-.31Z"/><path class="cls-9" d="M66.59,72.58a.53.53,0,0,0-.33.52c0,.3.48.3.46,0a.22.22,0,0,1,.08-.25c.16-.13,0-.37-.21-.27Z"/><path class="cls-9" d="M66,73.48a.84.84,0,0,0-1.23-.25,1.66,1.66,0,0,0,.8,2.8c.66,0,1.11-.57,1.32-1.12a1.38,1.38,0,0,0-.43-1.72,1.29,1.29,0,0,0-1.63.19c-1,1.05.45,2.88,1.58,1.88a.48.48,0,0,0-.33-.81c-.08,0-.68-.11-.35-.3s.21.56.15.68-.26.43-.5.2a1,1,0,0,1-.26-.49c-.11-.41.17-1,.69-.81.14.06.26-.13.19-.25Z"/><path class="cls-9" d="M66.43,73.58c.55-.16,1.53-.84,1.63-1.44a.4.4,0,0,0-.48-.48c-.6.1-1.28,1.08-1.44,1.63a.24.24,0,0,0,.29.29Z"/><path class="cls-9" d="M65.6,74.85a4.58,4.58,0,0,0,1.3-.67c.56-.39-.07-1.21-.57-.74a4.25,4.25,0,0,0-1,1.12.2.2,0,0,0,.22.29Z"/><path class="cls-9" d="M60.06,56.55a9.87,9.87,0,0,0-3.12,2,16.28,16.28,0,0,0-3,2.81c-.2.27.2.68.47.47,1-.77,1.92-1.75,2.91-2.59a18.18,18.18,0,0,0,2.91-2.47c.08-.11-.06-.26-.18-.23Z"/><path class="cls-9" d="M54,61.86a36.67,36.67,0,0,0,3.06,4.46c.28.36.87-.1.63-.48a37.92,37.92,0,0,0-3.25-4.33c-.21-.25-.6.07-.44.35Z"/><path class="cls-9" d="M57.2,66.19a8.52,8.52,0,0,0,3.39-.37,14.76,14.76,0,0,0,3.68-1.17c.37-.19.1-.68-.26-.62-1.24.2-2.44.64-3.66.93a13.87,13.87,0,0,0-3.2.86.21.21,0,0,0,.05.37Z"/><path class="cls-9" d="M64.18,64.73a.88.88,0,0,0,.76-.88c0-.21-.3-.37-.44-.18a1.93,1.93,0,0,0-.45.93c0,.07.07.13.13.13Z"/><path class="cls-9" d="M63.8,65.24c.44-.28,1.3-.94,1-1.53a.32.32,0,0,0-.38-.22c-.31.09-.39.26-.51.54a7,7,0,0,1-.47.9c-.1.19.12.43.31.31Z"/><path class="cls-9" d="M64.91,63.81c-.16-.6-.62-1-.79-1.63s.19-1.06.34-1.68c.1-.36-.22-.59-.55-.55-1,.13-1.2,1.49-1,2.27a2.21,2.21,0,0,0,1.81,1.88.23.23,0,0,0,.22-.29Z"/><path class="cls-9" d="M64.06,60.1a2.61,2.61,0,0,0-.73-1.35c-.43-.55-.84-1.12-1.27-1.67a1.62,1.62,0,0,0-2.45-.42.55.55,0,0,0-.15.57l0,.11a.41.41,0,0,0,.28.28c.41.07.81-.31,1.18-.08s.63.81.9,1.14c.51.62,1.21,1.53,2.08,1.55a.14.14,0,0,0,.13-.13Z"/><path class="cls-9" d="M61.35,57.44A12.23,12.23,0,0,1,62.72,59c.31.43.57,1.13,1.12,1.28a.34.34,0,0,0,.41-.23c.15-.6-.43-1.19-.78-1.63a10.53,10.53,0,0,0-1.57-1.56c-.38-.31-.92.2-.55.56Z"/><path class="cls-9" d="M61.24,59c-1.61-1.39-4.76-.25-5.63,1.53a3.69,3.69,0,0,0,2,4.88c5,2.08,8.66-5.82,3.39-7.66-.87-.31-1.26,1.1-.38,1.39,4.14,1.36-.25,7.37-3.28,4.66a2.26,2.26,0,0,1,.24-3.61c1.13-.76,2.49-.22,3.65-.78a.27.27,0,0,0,.05-.41Z"/><path class="cls-9" d="M59.46,58.53a3.23,3.23,0,0,1,1.66-.1.59.59,0,0,0,.29-1.09,2.83,2.83,0,0,0-2.51.22c-.64.34-.08,1.26.56,1Z"/><path class="cls-9" d="M60.86,57.39a6.57,6.57,0,0,0-2,.27c-.59.2-1.24.4-1.31,1.09a.46.46,0,0,0,.24.41c.56.27,1-.09,1.5-.31A9.41,9.41,0,0,1,61,58.24a.43.43,0,0,0-.12-.85Z"/><path class="cls-9" d="M55.41,60.31a1.84,1.84,0,0,0-.86,1.95c.1.65,1.21.38,1-.28a.86.86,0,0,1,.27-.95c.42-.31.05-1-.42-.72Z"/><path class="cls-9" d="M55,61.92l.1-.06c.09,0,0-.07-.16-.07a.24.24,0,0,0,.4.17c.49-.56-.52-1.19-.75-.43a.33.33,0,0,0,.22.39c.07,0,.13,0,.19,0Z"/><path class="cls-9" d="M61.79,64.92a9.22,9.22,0,0,1,1-.24,3,3,0,0,0,.5-.18l.16-.09q.55-.19-.39-.54a.68.68,0,0,0,1.35,0,.88.88,0,0,0-1.29-.8c-.71.31-1.06.93-1.65,1.38-.21.17,0,.57.28.47Z"/><path class="cls-9" d="M57.33,66.31a1.83,1.83,0,0,0,1.06.06c.34-.12.58-.63.23-.9a1.84,1.84,0,0,0-1.13-.34c-.67-.08-.81,1-.16,1.18Z"/><path class="cls-9" d="M53,46.37a1.57,1.57,0,0,0-1.34,2.82c1.23,1.12,3.55,1,4-.81s-1.52-2.81-3-2.4a1.57,1.57,0,0,0-1.19,2,2.14,2.14,0,0,0,2,1.37A1.44,1.44,0,0,0,55,47.61c-.3-1.11-1.6-1-2.35-.48s0,1.67.68,1.17c.12-.09.38-.27.35-.3a3.75,3.75,0,0,1-.61-.09c-.15-.09-.42-.33-.29-.56s.41-.14.51-.15c.7-.08,1.79.28,1.35,1.19s-1.72.7-2.34.16c-.45-.39-.63-.93-.08-1.34.28-.21.59-.32.85-.55a.17.17,0,0,0-.07-.29Z"/><path class="cls-9" d="M53.94,49.65A9.29,9.29,0,0,0,55.09,53c.66,1.54,1.23,3.1,1.74,4.7.22.66,1.27.37,1-.29-.51-1.48-1.08-2.95-1.7-4.38-.53-1.21-1-2.64-2.11-3.44-.05,0-.12,0-.12.07Z"/><path class="cls-9" d="M57.46,57.74a4.34,4.34,0,0,0,2.1-1.26c.43-.43-.14-1.25-.67-.87a4.49,4.49,0,0,0-1.63,1.93.17.17,0,0,0,.2.2Z"/><path class="cls-9" d="M59.46,55.78A11.78,11.78,0,0,0,57.4,52.7c-.93-1.12-1.81-2.27-2.72-3.4-.44-.54-1.31.15-1,.73,1.3,2.14,3,4.93,5.31,6.08.21.1.53-.08.43-.33Z"/><path class="cls-9" d="M56.4,54.71a20.34,20.34,0,0,1,1.07,2.2c.38.7,1.38.08,1.05-.62a7.86,7.86,0,0,0-1.61-2c-.25-.26-.73.09-.51.4Z"/><path class="cls-9" d="M58.16,56.72a1.21,1.21,0,0,0,.63-.46c.35-.47-.55-1-.82-.35l-.11.1a.39.39,0,0,0,.3.71Z"/><path class="cls-9" d="M58.64,56l0-.19c.07-.39-.45-.68-.68-.29l-.09.17c-.31.54.65.87.74.31Z"/><path class="cls-10" d="M66.05,50.22a41.29,41.29,0,0,1-3.52,6c-.19.23.14.56.33.33a17.9,17.9,0,0,0,3.44-6.21.14.14,0,0,0-.25-.1Z"/><path class="cls-10" d="M62.56,56.73c-.07.61.54,1.32.86,1.8a5.58,5.58,0,0,0,1.32,1.61.27.27,0,0,0,.39-.3,8.83,8.83,0,0,0-1.21-1.73c-.33-.46-.64-1.26-1.17-1.49a.13.13,0,0,0-.19.11Z"/><path class="cls-10" d="M64.88,59.87a11.28,11.28,0,0,0,2.39,0,8.76,8.76,0,0,1,3.19.71c.71.32,1.13-.75.41-1A12,12,0,0,0,67.46,59a4.17,4.17,0,0,0-2.65.56.16.16,0,0,0,.07.27Z"/><path class="cls-10" d="M70.73,59.68c-1.55-2.78-3.89-5.48-4.27-8.77,0-.31-.53-.32-.5,0a13.75,13.75,0,0,0,.94,5.21,8.78,8.78,0,0,0,3.36,4,.35.35,0,0,0,.47-.47Z"/><path class="cls-10" d="M68.62,58.7c-1-.24-2-.06-3-.3a2.27,2.27,0,0,1-1.53-.93c-.27-.59.09-1,.47-1.32.93-.87,2-2.21,1.78-3.57-.06-.29-.43-.28-.58-.07-.39.56-.49,1.24-.85,1.84a9.48,9.48,0,0,1-1.52,1.58A1.85,1.85,0,0,0,63,58.05c.95,2,4,2.24,5.75,1.24a.33.33,0,0,0-.08-.59Z"/><path class="cls-10" d="M65.73,51.64c-.47.75-.92,1.5-1.37,2.25A6.53,6.53,0,0,0,63.27,56a.17.17,0,0,0,.25.19A4.94,4.94,0,0,0,65,54.25a15,15,0,0,0,1.1-2.46c.07-.21-.23-.32-.34-.15Z"/><path class="cls-10" d="M63.1,56.15a1.79,1.79,0,0,0-.39.48c-.08.15.09.38.25.26a2,2,0,0,0,.46-.5c.14-.19-.16-.4-.32-.24Z"/><path class="cls-10" d="M65.89,51.49c-.6,2.23.25,6.42,2.33,7.71a.42.42,0,0,0,.61-.47c-.39-1.21-1.32-2.22-1.78-3.45a20.53,20.53,0,0,1-.76-3.79c0-.22-.35-.19-.4,0Z"/><path class="cls-10" d="M65.24,55.23a5.19,5.19,0,0,0,1.53,3.59.5.5,0,0,0,.78-.6c-.27-.54-.71-1-1-1.53s-.59-1-.85-1.59a.25.25,0,0,0-.46.13Z"/><path class="cls-10" d="M65.2,55.17a3.23,3.23,0,0,0,.4,3.76c.52.58,1.34-.27.85-.85a2.38,2.38,0,0,1-.39-2.4c.26-.58-.54-1.09-.86-.51Z"/><path class="cls-10" d="M64.71,55.75A1.91,1.91,0,0,0,64.05,57a2.75,2.75,0,0,0,.37,1.54c.35.64,1.38,0,1-.57A2.11,2.11,0,0,1,65,57,3.59,3.59,0,0,1,65,55.9c0-.14-.14-.26-.24-.15Z"/><path class="cls-10" d="M65.51,54.56a1.43,1.43,0,0,0-.32.92c-.09.73,1.27.68,1.06-.15a1.4,1.4,0,0,0-.4-.77.25.25,0,0,0-.34,0Z"/><path class="cls-10" d="M66.09,50.5a.78.78,0,0,0-.09.71.18.18,0,0,0,.34,0,.79.79,0,0,0-.12-.73.09.09,0,0,0-.13,0Z"/><path class="cls-10" d="M60,58a.87.87,0,0,1,1.13.1.27.27,0,0,0,.37-.38,1.24,1.24,0,0,0-1.75,0c-.17.15.06.45.25.31Z"/><path class="cls-10" d="M54.69,51a18.39,18.39,0,0,0,1.75,2.65,22.77,22.77,0,0,0,1.73,2.28c.09.09.28,0,.23-.13a14.94,14.94,0,0,0-1.53-2.62A12.34,12.34,0,0,0,55,50.75a.19.19,0,0,0-.29.23Z"/><path class="cls-10" d="M53.88,46.74a1.23,1.23,0,0,0-1.43-.11c-.39.21-.94.7-.66,1.17a.3.3,0,0,0,.35.14c.32-.1.35-.38.59-.57a1.54,1.54,0,0,1,1-.28.19.19,0,0,0,.15-.35Z"/><path class="cls-10" d="M71.33,69.83a13.1,13.1,0,0,0,3.91-3,.27.27,0,0,0-.38-.39c-1.19,1.13-2.48,2.15-3.61,3.33-.06,0,0,.13.08.1Z"/><path class="cls-11" d="M53.53,39.69a4.21,4.21,0,0,0-1.19-.37,3.21,3.21,0,0,0-1.3.26.94.94,0,0,0-.64,1.12.92.92,0,0,0,1.12.64l1-.38c.35-.14.61-.42,1-.54a.38.38,0,0,0,0-.73Z"/><path class="cls-12" d="M55.13,39.67c-3-1.05-7.24.53-9.46,2.61-2.38,2.24-2.9,5.51-2.2,8.61.64,2.87,2.46,5.73,5.31,6.82,2.15.82,6.08.73,6.95-1.85a.53.53,0,0,0-.65-.65c-2.26.66-3.8,1.94-6.25.63S45,51.4,44.88,48.71A6.59,6.59,0,0,1,49,42.18c2-.86,4.25-.66,6.22-1.54.46-.2.26-.84-.13-1Z"/><path class="cls-12" d="M54.59,40.77a12,12,0,0,1,4.13,2.67,7.79,7.79,0,0,1,1.38,2c.28.58.35,1,1,1.15a.6.6,0,0,0,.63-.25c.94-1.24-1.25-3.55-2.13-4.34a6.94,6.94,0,0,0-4.94-2,.37.37,0,0,0-.1.73Z"/><path class="cls-12" d="M61.1,47.26a6.7,6.7,0,0,1-.67,4.5c-.5.88-1.35,1.48-1.73,2.41a.43.43,0,0,0,.41.55c1.41-.14,2.37-1.61,2.91-2.82a6.62,6.62,0,0,0,.2-4.95.58.58,0,0,0-1.12.31Z"/><path class="cls-12" d="M62,48.25a3.67,3.67,0,0,0,.52-2.31c0-.53-.17-1.75-.93-1.74s-.58.76-.47,1.19a23.34,23.34,0,0,1,.53,2.77.19.19,0,0,0,.35.09Z"/><path class="cls-12" d="M61.23,43.46c-1.17-2.62-5.2-4.85-8-3.72-.29.12-.39.62,0,.69a18.39,18.39,0,0,1,3.89.65,11.57,11.57,0,0,1,3.74,2.68c.21.21.5,0,.39-.3Z"/><path class="cls-12" d="M56.18,39.71c-2.4-1.17-8.3-1.46-9.44,1.74a.2.2,0,0,0,.23.24c1.27-.45,2.22-1.34,3.59-1.65,1.88-.41,3.63.07,5.51.06.2,0,.3-.3.11-.39Z"/><path class="cls-12" d="M56,39.35a2.65,2.65,0,0,0-1.7-.55c-.44,0-1.32.22-1.42.75s.48.41.77.38a5,5,0,0,1,2.07.07c.41.13.59-.43.28-.65Z"/><path class="cls-12" d="M45.68,55.62c-1.42-2.21-2.84-3.93-2.55-6.75s2-4.36,3.87-6.1c.17-.16,0-.48-.23-.4-5.11,1.8-6.47,10.87-1.39,13.55a.22.22,0,0,0,.3-.3Z"/><path class="cls-12" d="M43.13,49a8.44,8.44,0,0,0,1.66,5.6c.91,1.28,2.52,2.92,4.17,3a.33.33,0,0,0,.23-.56c-1.15-1.11-2.62-1.7-3.67-3A10.42,10.42,0,0,1,43.47,49c0-.2-.32-.13-.34,0Z"/><path class="cls-12" d="M45.61,55.37c1.57,3.54,8.3,4.85,10.69,1.48.17-.24-.12-.56-.38-.49-1.86.5-3.22,1.5-5.28,1.25s-3.32-1.34-4.88-2.39c-.1-.07-.19.06-.15.15Z"/><path class="cls-12" d="M55,55.35c.26.66.49,1.67,1.2,2,.25.1.44-.15.47-.36,0-.4-.2-.67-.41-1a9.43,9.43,0,0,0-.72-.92.33.33,0,0,0-.54.31Z"/><path class="cls-12" d="M55.31,55.54a5.58,5.58,0,0,0,.35,1.07.47.47,0,0,0,.44.33.39.39,0,0,0,.32-.13.47.47,0,0,0,.07-.55,6.37,6.37,0,0,0-.74-1,.27.27,0,0,0-.44.25Z"/><path class="cls-12" d="M58.2,53.5c-.36.29.17,1.07.36,1.32A3.15,3.15,0,0,0,60,56c.46.15.67-.49.31-.73A7,7,0,0,1,58.88,54c-.09-.11-.46-.72-.68-.53Z"/><path class="cls-12" d="M60,55.43c.54-.08.91-.88,1.14-1.31a3.59,3.59,0,0,0,.68-1.89.36.36,0,0,0-.61-.25,5.65,5.65,0,0,0-.86,1.8c-.2.43-.66,1.07-.51,1.55a.13.13,0,0,0,.16.1Z"/><path class="cls-12" d="M59.55,55a4,4,0,0,0,.58-.3,3.87,3.87,0,0,0,.53-.61,2.64,2.64,0,0,0,.58-1.31c.06-.49-.66-.6-.88-.24-.42.69-.66,1.51-1.06,2.21-.1.16.09.33.25.25Z"/><path class="cls-12" d="M58.6,53.79c2.54-.45,4-5.39,3.14-7.5a.53.53,0,0,0-1,.14c-.16,1.4,0,2.64-.48,4-.44,1.14-1.43,2-1.76,3.21a.11.11,0,0,0,.13.13Z"/><path class="cls-12" d="M53.58,41.34c1,.49,2.14.67,3.17,1.14a25.25,25.25,0,0,1,2.87,1.93.5.5,0,0,0,.67-.68c-1.21-1.81-4.51-3.41-6.66-2.75a.2.2,0,0,0-.05.36Z"/><path class="cls-12" d="M59.53,41.83c.64,1.32,1.65,2.28,2.07,3.75a8,8,0,0,1-.12,4.63c-.19.61.74.85,1,.26,1-2.67.43-7.75-2.73-8.86-.13,0-.22.11-.17.22Z"/><path class="cls-12" d="M60.44,46.33a3.63,3.63,0,0,1,.44,1.74.36.36,0,0,0,.25.33h.18a.35.35,0,0,0,.25-.33,2.69,2.69,0,0,0-.8-2,.2.2,0,0,0-.32.24Z"/><path class="cls-12" d="M55.91,40.07l1.08.5a1.12,1.12,0,0,0,.86.18.33.33,0,0,0,.19-.48c-.27-.52-1.18-.71-1.7-.93s-.93.5-.43.73Z"/><path class="cls-12" d="M53.05,41.5a5.5,5.5,0,0,1,1.07.14.35.35,0,0,0,.39-.16.36.36,0,0,0,0-.09A.36.36,0,0,0,54.3,41a2.13,2.13,0,0,0-1.32,0c-.31.08-.25.58.07.56Z"/><path class="cls-12" d="M45.77,51.91c.08-2.44-.11-4.72,1.34-6.87s3.16-2.64,5.14-3.76a.37.37,0,0,0-.18-.69c-5,0-9.06,7.14-6.67,11.42a.2.2,0,0,0,.37-.1Z"/><path class="cls-12" d="M46.4,45.84c.35-.62.73-1.23,1-1.87a.47.47,0,0,0-.06-.53.44.44,0,0,0-.68.09c-.42.58-.76,1.21-1.12,1.82a.49.49,0,0,0,.84.49Z"/><path class="cls-12" d="M45.23,55.52a2.68,2.68,0,0,0,1,1.33c.4.31,1,.82,1.49.53a.39.39,0,0,0,.18-.31c0-.56-.62-.75-1-1a5.31,5.31,0,0,0-1.41-.79.22.22,0,0,0-.27.26Z"/><path class="cls-12" d="M58.58,53.72a1.17,1.17,0,0,0,.59.85c.51.32,1-.52.47-.8a5.18,5.18,0,0,0-.76-.34c-.2-.07-.32.13-.3.29Z"/><path class="cls-12" d="M71.27,67.78c-4.86-1.72-10.25-1.73-13.36,3-2.11,3.24-2.13,9.83,1.91,11.73a.2.2,0,0,0,.27-.27c-.89-1.62-2.07-2.86-2.54-4.71a8.08,8.08,0,0,1,1.05-6.35c3-4.55,7.88-4.08,12.49-2.81a.33.33,0,0,0,.18-.64Z"/><path class="cls-12" d="M64,67.13a7.19,7.19,0,0,0,1.47.05,5,5,0,0,0,1.49.13A.21.21,0,0,0,67,67a3,3,0,0,0-3.11,0,.11.11,0,0,0,.06.19Z"/><path class="cls-12" d="M72.4,70.07a3.33,3.33,0,0,1,.78,1.18c.14.4.78.21.63-.17a2.53,2.53,0,0,0-1.14-1.35.22.22,0,0,0-.27.34Z"/><path class="cls-12" d="M72.48,69.77c1.6,3.35,2.69,7,.75,10.52s-6.07,4.77-9.88,3.47a.39.39,0,0,0-.29.71,8,8,0,0,0,10.55-3.13,10.21,10.21,0,0,0-.81-11.82c-.16-.19-.42,0-.32.25Z"/><path class="cls-12" d="M59.06,82.09a7.8,7.8,0,0,0,2.73,2.3c.87.47,2.19,1.29,3.18,1a.27.27,0,0,0,.12-.44c-.65-.74-2-.89-2.82-1.33-1-.52-2-1.18-3-1.74-.15-.1-.38.1-.26.26Z"/><path class="cls-12" d="M71.15,68.06c-.51-.17-1.17.41-1.55.69a9.9,9.9,0,0,0-1.51,1.38c-.34.39.24,1,.56.56A10,10,0,0,1,70,69.29c.35-.3,1.1-.62,1.22-1.09a.11.11,0,0,0-.08-.14Z"/><path class="cls-12" d="M70.36,71.88c.44.05.89-.34,1.25-.57a10,10,0,0,0,1.25-.91c.28-.24-.1-.75-.41-.52s-.81.65-1.23,1-.83.42-1,.8a.17.17,0,0,0,.14.25Z"/><path class="cls-12" d="M68.31,70.1a7.19,7.19,0,0,0-9.11,5.82,6.26,6.26,0,0,0,6.5,7.21.51.51,0,0,0,0-1,5.54,5.54,0,0,1-5.29-7c1-3.62,4.46-4.67,7.84-4.56.28,0,.31-.39.06-.47Z"/><path class="cls-12" d="M65.91,82.62c1.92.87,4.52-1.45,5.52-2.92a7.29,7.29,0,0,0,.21-8c-.33-.47-1.23-.21-1,.42.85,2.41,1.32,4.73-.15,7.05a6.75,6.75,0,0,1-2.57,2.35,7.74,7.74,0,0,0-2,1,0,0,0,0,0,0,.07Z"/><path class="cls-12" d="M70.31,72a1.69,1.69,0,0,0,.41.77.3.3,0,0,0,.5-.29,1.76,1.76,0,0,0-.48-.73c-.17-.18-.52,0-.43.25Z"/><path class="cls-12" d="M65.49,82.52a2.45,2.45,0,0,0,1.19.31,1.48,1.48,0,0,0,1.2-.33.37.37,0,0,0,0-.53c-.64-.54-1.79-.12-2.39.32a.13.13,0,0,0,0,.23Z"/><path class="cls-12" d="M70.12,68.11a2,2,0,0,0-1.05.2,7.5,7.5,0,0,0-1.16.6c-.67.38,0,1.45.61,1a8.55,8.55,0,0,0,1.09-.72,2,2,0,0,0,.67-.82.24.24,0,0,0-.16-.3Z"/><path class="cls-12" d="M69.16,67.94a7.75,7.75,0,0,0-1.78.52c-.53.24-1.22.55-1.21,1.21a.61.61,0,0,0,.42.56c.54.19,1-.26,1.41-.52A7.26,7.26,0,0,1,69.45,69a.54.54,0,0,0-.29-1Z"/><path class="cls-12" d="M68.42,67.81a10.63,10.63,0,0,0-3,1.24c-.76.49,0,1.71.71,1.21a14.24,14.24,0,0,1,2.56-1.49c.58-.23.37-1.14-.27-1Z"/><path class="cls-12" d="M68,67.68c-.66.25-1.34.39-2,.68a18.58,18.58,0,0,0-1.83.94c-.77.46-.09,1.57.7,1.19a16.71,16.71,0,0,0,1.76-1c.58-.37,1-.85,1.61-1.24.27-.2.12-.74-.25-.6Z"/><path class="cls-12" d="M67.49,67.46A6.51,6.51,0,0,0,65,68.63c-.48.4.16,1.24.68.87a7.2,7.2,0,0,1,2.06-1.11.48.48,0,0,0-.26-.93Z"/><path class="cls-12" d="M68.36,70.19l.12-.14c.4-.44-.11-1.21-.66-.86l-.16.11c-.72.46.16,1.5.7.89Z"/><path class="cls-12" d="M66.93,67.48a3.79,3.79,0,0,0-2.51.82c-.67.45-1.84,1.13-1.83,2a.51.51,0,0,0,.5.5c.82-.08,1.39-1,2-1.5A8.29,8.29,0,0,0,67,67.72a.16.16,0,0,0-.09-.24Z"/><path class="cls-12" d="M65.6,67.45a6.18,6.18,0,0,0-2.74,1.31c-.72.59-1.71,1.46-1.79,2.42a.64.64,0,0,0,1,.55,2.81,2.81,0,0,0,.86-.92,10.68,10.68,0,0,1,1-1.07c.65-.64,1.35-1.22,2-1.82.23-.2,0-.51-.28-.47Z"/><path class="cls-12" d="M64.64,67.44c-2.55-.19-4.44,2.77-5.28,4.8a.84.84,0,0,0,.21.82c1,1.19,1.88-1.4,2.24-2,.84-1.28,2.17-2.14,3-3.43a.16.16,0,0,0-.14-.24Z"/><path class="cls-12" d="M61.92,68a6.53,6.53,0,0,0-3.3,7c.17.91,1.75.71,1.63-.22a6.29,6.29,0,0,1,2.16-5.91c.51-.37.06-1.19-.49-.85Z"/><path class="cls-12" d="M59,70a9.78,9.78,0,0,0-1,5.53c.15,1.29.37,3.54,1.84,3.9a.43.43,0,0,0,.48-.2c.51-1.13-.33-2.21-.55-3.37a13.67,13.67,0,0,1,.14-5.48c.12-.52-.66-.92-.91-.38Z"/><path class="cls-12" d="M57.82,72.15c-1.46,2.92-.52,7.1,1.45,9.6,1.68,2.13,5.55,4.27,8,2.19A.6.6,0,0,0,67,83c-1-.14-1.88,0-2.84-.15a6.07,6.07,0,0,1-4.07-3c-1.41-2.39-1.11-5-2-7.58a.17.17,0,0,0-.3,0Z"/><path class="cls-12" d="M67.74,83.65a3.49,3.49,0,0,0-.56,0,0,0,0,0,0,0,.09,3.56,3.56,0,0,0,.57.09c.11,0,.11-.16,0-.17Z"/><path class="cls-12" d="M65.93,83.32c.4.24.62.54,1.11.65a2.22,2.22,0,0,0,1.41-.2c.67-.28.33-1.42-.37-1.37a7,7,0,0,0-1.12.17,3.85,3.85,0,0,1-.91.29.25.25,0,0,0-.12.46Z"/><path class="cls-12" d="M66.76,84.58a7,7,0,0,0,5-2.4c1.07-1.07,2.61-2.89,1.86-4.48a.31.31,0,0,0-.41-.1C72,78.28,71.51,80,70.54,81a16.11,16.11,0,0,1-4,2.67.52.52,0,0,0,.26,1Z"/><path class="cls-12" d="M72.33,70.66c-.66,1.11.23,2.41.44,3.59.32,1.76-.34,3.47,0,5.16a.59.59,0,0,0,1,.25c2.08-2.32.55-6.77-.93-9a.27.27,0,0,0-.47,0Z"/><path class="cls-12" d="M71.21,71.55c.44,2.1,1.21,4,.61,6.14A7.94,7.94,0,0,1,68,82.28a.71.71,0,0,0,.72,1.23c4.15-1.91,7.12-8.83,3-12.26a.31.31,0,0,0-.51.3Z"/><path class="cls-12" d="M72,71.74a2.07,2.07,0,0,1,.8-.46c.62-.22.37-1.19-.27-1a2.78,2.78,0,0,0-1.19.81c-.38.45.23,1.07.66.65Z"/><path class="cls-12" d="M72.18,71.09c-.19.8.38,1.79.6,2.56a15.94,15.94,0,0,1,.44,3.58c0,.75,1.27,1,1.41.19a8.31,8.31,0,0,0-.43-4c-.29-.85-.9-2.28-1.87-2.46a.13.13,0,0,0-.15.08Z"/><path class="cls-6" d="M48.72,41.66a7.13,7.13,0,0,1,4-1,.16.16,0,0,0,0-.32,4.52,4.52,0,0,0-4.08,1.18c-.06,0,0,.14.08.1Z"/><path class="cls-6" d="M64.52,41.14c.29.92.64,1.8.88,2.73s.29,1.88.47,2.83c0,.13.21.08.22,0a8.63,8.63,0,0,0-1.52-5.55s-.06,0,0,0Z"/><path class="cls-6" d="M52.44,48.65a1.32,1.32,0,0,0,1.77-.45.16.16,0,0,0-.16-.2,3,3,0,0,0-.81.26c-.27.09-.54.1-.8.21-.08,0-.06.14,0,.18Z"/><path class="cls-6" d="M56.37,54.66A7.37,7.37,0,0,0,57,55.94c.2.36.37.83.75,1a.11.11,0,0,0,.17-.1c0-.43-.34-.79-.56-1.15a8,8,0,0,0-.81-1.18.13.13,0,0,0-.21.12Z"/><path class="cls-6" d="M55.8,60.87a4.56,4.56,0,0,0-.67.4.23.23,0,0,0-.09.25c.09.52.28,1.34.79,1.6.09,0,.23,0,.22-.13a1.48,1.48,0,0,0-.24-.62,4.19,4.19,0,0,1-.36-1l-.06.21a4.85,4.85,0,0,0,.57-.54.13.13,0,0,0-.16-.2Z"/><path class="cls-6" d="M58.18,63A1.59,1.59,0,0,1,58,61.55a1.76,1.76,0,0,1,1.25-.84c.14,0,.11-.2,0-.25-1.67-.67-2.72,1.87-1.33,2.82.15.11.33-.09.24-.24Z"/><path class="cls-6" d="M65.08,74.77c.11-.12.19-.27.3-.39s.31-.2.42-.34a.34.34,0,0,0,0-.47.33.33,0,0,0-.32-.09,1,1,0,0,0-.66,1.22.16.16,0,0,0,.26.07Z"/><path class="cls-6" d="M59,77.27a5.62,5.62,0,0,1,.62-4.94,7.88,7.88,0,0,1,3.47-2.46c.23-.11.11-.47-.13-.47-4,.12-5.76,4.74-4.63,8.06.15.41.8.24.67-.19Z"/><path class="cls-6" d="M68,72.64c.45,0,.78-.47,1.09-.75a6.42,6.42,0,0,0,1.15-1.24.15.15,0,0,0-.21-.21,6.12,6.12,0,0,0-1.29,1.1c-.3.3-.77.59-.8,1a.06.06,0,0,0,.06,0Z"/><path class="cls-6" d="M76.78,61.23c-.2.56-.84.86-1,1.47a.78.78,0,0,0,.55.92.28.28,0,0,0,.26-.07l0-.06a.2.2,0,0,0,0-.21c-.12-.17-.28-.21-.31-.42s.24-.53.41-.75a1,1,0,0,0,.22-.88c0-.15-.22-.12-.26,0Z"/><path class="cls-6" d="M65.79,53.4a9.45,9.45,0,0,0,.63,1.51,4.15,4.15,0,0,0,.9,1.35c.2.15.58,0,.47-.27A9.3,9.3,0,0,0,67,54.68a13.48,13.48,0,0,1-.76-1.46.24.24,0,0,0-.45.18Z"/><path class="cls-5" d="M52,16c-.17-.38,0-.7.43-1a1.72,1.72,0,0,1,.28.47c.18.36.33.74.49,1.1.33.74.64,1.48,1,2.2.13.26.57.08.46-.19-.32-.82-.7-1.61-1.05-2.42-.24-.53-.46-1.38-1-1.71a.77.77,0,0,0-1,.18,1.35,1.35,0,0,0,0,1.47c.1.22.43.06.37-.15Z"/><path class="cls-5" d="M54.34,19.07l.37-.38a.22.22,0,0,0-.31-.3l-.38.37c-.2.2.11.51.32.31Z"/><path class="cls-5" d="M51.63,16.32a10.36,10.36,0,0,0,1.1,1.2c.39.43.67,1,1.08,1.4a.2.2,0,0,0,.34-.2,4.56,4.56,0,0,0-1.06-1.45,3.39,3.39,0,0,0-1.4-1s-.09,0-.06.08Z"/><path class="cls-5" d="M53.92,18a13.3,13.3,0,0,0-1.44-2.87.34.34,0,0,0-.58,0c-.26.49-.18,1.37.48,1.5.23,0,.46-.19.32-.41s-.39-.43-.22-.76H51.9a13.19,13.19,0,0,0,1.79,2.68.14.14,0,0,0,.23-.14Z"/><path class="cls-5" d="M68.22,17.57a1.37,1.37,0,0,0,1.15-.63,8.39,8.39,0,0,0,.5-.81,1.84,1.84,0,0,1,.36-.47c.26-.23,1.12-.45.94.25a.27.27,0,0,0,.52.14c.28-.76-.58-1.34-1.27-1.11-1.16.4-1,2.09-2.23,2.39a.12.12,0,0,0,0,.24Z"/><path class="cls-5" d="M71.24,15.68c-.25.14-.54.21-.79.35s-.48.31-.72.46l-1.45.93c-.29.18,0,.65.27.45l1.41-1c.24-.16.48-.32.71-.49s.4-.42.64-.6c.07-.05,0-.17-.07-.12Z"/><path class="cls-5" d="M68.5,17a6.2,6.2,0,0,0-.81.52c-.27.19,0,.59.28.36a6.4,6.4,0,0,0,.66-.72A.1.1,0,0,0,68.5,17Z"/><path class="cls-5" d="M70,16.37a4.29,4.29,0,0,0,.9-.63c.29-.24-.16-.69-.4-.4a4.29,4.29,0,0,0-.63.9.1.1,0,0,0,.13.13Z"/><path class="cls-5" d="M68.4,17.57a7.19,7.19,0,0,0-.79.24c-.3.12-.1.57.17.4s.45-.32.68-.49c.07-.06,0-.18-.06-.15Z"/><path class="cls-13" d="M67.05,11.49c-.06.65.51,1.31.81,1.86a8.68,8.68,0,0,0,1.08,2,.27.27,0,0,0,.46-.18,5.53,5.53,0,0,0-1-2.18c-.31-.55-.65-1.38-1.29-1.59a.07.07,0,0,0-.1.07Z"/><path class="cls-13" d="M69.08,15.37c.19,0,.29-.19.39-.31a.8.8,0,0,1,.93-.26.32.32,0,1,0,.25-.59,1.38,1.38,0,0,0-1.46.31c-.12.12-.55.82-.11.85Z"/><path class="cls-13" d="M70.94,14.29a7.58,7.58,0,0,0-1.35-1.09,4.43,4.43,0,0,0-1.45-.93.26.26,0,0,0-.29.38,3.83,3.83,0,0,0,1.33,1,6.87,6.87,0,0,0,1.55,1c.22.09.33-.21.21-.36Z"/><path class="cls-13" d="M68.45,12.94A4.71,4.71,0,0,0,69,14.33a.32.32,0,0,0,.55-.33,4.43,4.43,0,0,0-1-1.16.11.11,0,0,0-.18.1Z"/><path class="cls-13" d="M69.37,14.18a3.18,3.18,0,0,0-.81-1.7,3.59,3.59,0,0,0-1.69-1.09c-.43-.12-.75.56-.32.76a4.86,4.86,0,0,1,1.39.85,4.1,4.1,0,0,1,.51.51c.2.24.3.54.49.78s.44.14.43-.11Z"/><path class="cls-13" d="M46.33,9.55a14.68,14.68,0,0,0,2,2.9A10.07,10.07,0,0,0,50.68,15a.28.28,0,0,0,.37-.38A15,15,0,0,0,49,12.07c-.76-.92-1.43-1.94-2.27-2.79-.19-.19-.45.05-.35.27Z"/><path class="cls-13" d="M50.88,14.66c0-.24,0-.51.28-.65a.5.5,0,0,1,.69.22c.2.34.75,0,.53-.31A1.09,1.09,0,0,0,51,13.46a.93.93,0,0,0-.45,1.29.19.19,0,0,0,.34-.09Z"/><path class="cls-13" d="M52.66,14a13.23,13.23,0,0,0-2.53-2.54,9.5,9.5,0,0,0-2.86-1.79c-.34-.11-.66.39-.36.63.78.66,1.75,1.09,2.59,1.7s1.86,1.52,2.78,2.3c.19.16.55-.06.38-.3Z"/><path class="cls-13" d="M47.8,11.53c.48.38,1,.72,1.49,1.07a7.64,7.64,0,0,0,1.55,1c.27.1.45-.28.27-.47a7,7,0,0,0-1.43-.95c-.54-.33-1.07-.66-1.62-1-.2-.11-.46.18-.26.33Z"/><path class="cls-13" d="M50.62,14.41a1.65,1.65,0,0,0,1.43-.15.24.24,0,0,0-.12-.45,1.6,1.6,0,0,0-1.36.43.12.12,0,0,0,0,.17Z"/><path class="cls-13" d="M49.5,13.39a1.82,1.82,0,0,0,1.43.73c.55,0,.46-.9-.1-.75a.94.94,0,0,1-1-.27c-.18-.18-.54.07-.37.29Z"/><path class="cls-6" d="M48.09,10.55a2.56,2.56,0,0,0,1.12,1.16c.39.27,1,.72,1.5.59a.14.14,0,0,0,.06-.22c-.28-.35-.88-.47-1.26-.72a12.36,12.36,0,0,0-1.24-.95.13.13,0,0,0-.18.14Z"/><path class="cls-6" d="M67.44,12.49a3.65,3.65,0,0,0,1.37,1.12.22.22,0,0,0,.27-.34,3.52,3.52,0,0,0-1.5-1,.12.12,0,0,0-.14.18Z"/><path class="cls-6" d="M86.68,21.52a1.27,1.27,0,0,0,.82-.11.14.14,0,0,0,0-.25,1.33,1.33,0,0,0-.82-.1.23.23,0,0,0,0,.46Z"/><path class="cls-6" d="M87.49,23.54a14.09,14.09,0,0,0,.35,2.33,10.38,10.38,0,0,0,.54,2.28c.1.22.44.1.44-.12a10,10,0,0,0-.37-2.15,13.91,13.91,0,0,0-.63-2.38c-.06-.16-.33-.16-.33,0Z"/><path class="cls-14" d="M73.92,56.7c3.55,2,7.17,3.95,10.7,6a.24.24,0,0,0,.24-.42c-3.49-2.09-7-4.2-10.73-6a.21.21,0,0,0-.21.36Z"/><path class="cls-14" d="M81.87,61.46a3.48,3.48,0,0,0,2.74,3c.14,0,.2-.17.06-.21A3.53,3.53,0,0,1,82,61.44c0-.1-.19-.07-.17,0Z"/><path class="cls-14" d="M78,58.78a3.29,3.29,0,0,1-2.79.88A4.71,4.71,0,0,1,73,58.53c-.09-.06-.18.06-.14.14,1,1.88,4,1.43,5.25.2.06-.06,0-.15-.1-.09Z"/><path class="cls-14" d="M77.7,59.07C77,60,76.23,61,75.5,62c-.06.09.08.17.15.09l2.13-2.94s0-.09-.08,0Z"/><path class="cls-14" d="M75.89,61.94a.9.9,0,0,0-.63,1.26c.34,1,1.95,1.43,2.76,1.83s1.52.87,2.26.23a4,4,0,0,0,.83-1.41c.45-1,.88-1.92,1.33-2.88.09-.2-.21-.38-.3-.18l-.9,1.92c-.15.32-.29.64-.45,1-.33.71-.29.77-1.15,1.08s-.76.27-1.44,0c-.3-.14-.59-.29-.89-.42s-.59-.24-.86-.39-2.28-1.29-.52-1.84a.06.06,0,0,0,0-.12Z"/><path class="cls-14" d="M76.05,64.1a0,0,0,0,0,0-.06s0,.06,0,.06Z"/><path class="cls-14" d="M76.24,64.12c-3.67,3-7.44,6-10.85,9.32a.09.09,0,0,0,.13.13c3.75-2.9,7.3-6.18,10.79-9.38,0,0,0-.1-.07-.07Z"/><path class="cls-14" d="M66.58,74a59.6,59.6,0,0,0,11.76-9.72c.09-.09,0-.24-.14-.14A85.27,85.27,0,0,1,66.55,74s0,.08,0,.06Z"/><path class="cls-14" d="M69.5,70.05a5.38,5.38,0,0,1,1.25.68.14.14,0,0,0,.21-.16,1.4,1.4,0,0,0-1.44-.67c-.08,0-.1.13,0,.15Z"/><path class="cls-14" d="M74.35,67a3.55,3.55,0,0,0,.94.4c.14,0,.28-.15.15-.27a3.31,3.31,0,0,0-.87-.51c-.25-.12-.47.25-.22.38Z"/><path class="cls-14" d="M65.15,73.94a.48.48,0,1,0-1,0,.15.15,0,0,0,.3,0h.41c0,.16.24.16.25,0Z"/><path class="cls-14" d="M64.65,74.13a1,1,0,0,0-.16,1.71,1.67,1.67,0,0,0,2.19-.1,1.77,1.77,0,0,0-1.7-3,.19.19,0,0,0,.1.36A1.44,1.44,0,0,1,66.81,75a1.6,1.6,0,0,1-1.27.85c-.75,0-1.7-1-.73-1.47.18-.09,0-.36-.16-.28Z"/><path class="cls-14" d="M69,70.62c-3.09-.74-6.56.12-8.23,3a5.58,5.58,0,0,0,1.6,7.4,5.91,5.91,0,0,0,7.87-1.14,6.61,6.61,0,0,0-.07-8.35c-.1-.12-.31,0-.22.17a6.63,6.63,0,0,1,.61,7.2,5.65,5.65,0,0,1-8,1.85,5.24,5.24,0,0,1-1.16-7.51c1.73-2.46,4.78-3,7.55-2.44a.11.11,0,1,0,.06-.22Z"/><path class="cls-14" d="M75.62,61.35a45.46,45.46,0,0,0-8.52-1.78c-1.33-.1-2.73.18-3.1,1.65a2.35,2.35,0,0,0,1.59,2.71c2.36,1.12,5.19,1.64,7.69,2.38a.16.16,0,0,0,.09-.31l-4.93-1.46c-.64-.18-1.3-.34-1.93-.56a6.38,6.38,0,0,1-1.3-.54c-1.43-1.09-1.4-2,.07-2.62a1.7,1.7,0,0,1,2.47-.75l.87.17,2.6.5c1.46.28,2.91.57,4.38.73.07,0,.08-.1,0-.12Z"/><path class="cls-14" d="M68.62,65.55a3.7,3.7,0,0,0-5,.72.13.13,0,0,0,.09.21,21.92,21.92,0,0,1,7.88,1.58.12.12,0,0,0,.09-.21,15.69,15.69,0,0,0-5.36-1.52c-.63-.07-3.16.24-1.61-.67a3.79,3.79,0,0,1,3.8,0,.09.09,0,0,0,.09-.15Z"/><path class="cls-14" d="M73.56,69.64a8.68,8.68,0,0,1,3.24,3.78c.17.32.47.82.87.41s-.27-2.1-.48-2.61a10.47,10.47,0,0,0-2.47-3.49c-.15-.14-.38.09-.23.23a10.34,10.34,0,0,1,2.12,2.71,9.64,9.64,0,0,1,.73,1.75c.12.42.6,1.71-.43.53-.47-.53-.69-1.35-1.19-1.91a6.24,6.24,0,0,0-2.06-1.58.1.1,0,0,0-.1.18Z"/><path class="cls-14" d="M64.69,60.32c-.63-1.06-2.22-4.9-3.91-4.74-1,.09-2,1.49-2.67,2l-4.06,3.48c-.12.1.05.27.17.17a43.74,43.74,0,0,1,4.66-4A2.55,2.55,0,0,1,62,56.77c.27.41.55.81.83,1.22.57.8,1.13,1.61,1.73,2.39,0,.06.16,0,.11-.06Z"/><path class="cls-14" d="M53.77,61.36c1,1.86,2.2,3.71,3.41,5.46a.12.12,0,0,0,.21-.12c-1.08-1.84-2.27-3.67-3.51-5.41a.07.07,0,0,0-.11.07Z"/><path class="cls-14" d="M57.2,66.58a63.83,63.83,0,0,0,7.26-1.44c.13,0,.11-.26,0-.24a64.86,64.86,0,0,0-7.28,1.51c-.12,0-.07.19.05.17Z"/><path class="cls-14" d="M64.52,64.87a2.39,2.39,0,0,0,.88-1.67c0-.08-.12-.13-.17-.05-.12.23-.16.49-.27.73a2.93,2.93,0,0,1-.6.84.11.11,0,0,0,.16.15Z"/><path class="cls-14" d="M60.25,60a2.32,2.32,0,0,0-3.61.78,2.87,2.87,0,0,0,2.23,3.88,3.4,3.4,0,0,0,3.93-2.61c.28-1.6-1.29-3.22-2.88-2.5-.14.06,0,.27.1.24a2,2,0,0,1,2.29,2.79,3.17,3.17,0,0,1-3.68,1.75,2.65,2.65,0,0,1-1.9-3.23,2.27,2.27,0,0,1,3.47-1s.08,0,0-.06Z"/><path class="cls-14" d="M59.87,57.89c.26-.61.89-.39,1.27-.09.07.05.16,0,.14-.11-.23-.75-1.38-.42-1.61.15-.05.12.15.18.2,0Z"/><path class="cls-14" d="M62.43,59.2a7.87,7.87,0,0,0,.44.87c.07.11.26,0,.21-.08a9.44,9.44,0,0,0-.45-.9c-.07-.14-.26,0-.2.11Z"/><path class="cls-14" d="M61.07,56.07c4.08-3.55,4.88-9.25,3.07-14.2-1.27-3.48-5-7.51-9-5.21-.1.06,0,.23.08.19,5-1.69,8.18,2.8,9.2,7.15A12.11,12.11,0,0,1,61,56a.06.06,0,0,0,.08.08Z"/><path class="cls-14" d="M54.71,36.38C60.18,35.25,65,38.85,66.15,44.2c1.07,5.11-1.32,9.79-4.73,13.43a.08.08,0,0,0,.12.12c4-3.88,6.38-9.66,4.45-15.14-1.63-4.63-6.43-7.7-11.31-6.34-.07,0,0,.12,0,.11Z"/><path class="cls-14" d="M66.21,50a20.08,20.08,0,0,0,4.9,10c.15.17.39-.08.25-.25a25,25,0,0,1-5-9.8c0-.09-.13-.05-.12,0Z"/><path class="cls-14" d="M70.66,59c-.25.28-.51.57-.74.87a.06.06,0,0,0,.09.07c.26-.27.49-.58.73-.87,0,0,0-.13-.08-.07Z"/><path class="cls-14" d="M69.49,58.23a12.05,12.05,0,0,0-.85.9.05.05,0,0,0,.08.07c.31-.26.59-.57.88-.86a.08.08,0,0,0-.11-.11Z"/><path class="cls-14" d="M69,57.35a5.8,5.8,0,0,1-.79,1.22c-.29.34-.64.62-.93,1a.08.08,0,0,0,.09.12,4.92,4.92,0,0,0,1.78-2.2c0-.1-.1-.19-.15-.09Z"/><path class="cls-14" d="M68.29,56.75l-1,1.08a4,4,0,0,0-.82,1,.07.07,0,0,0,.09.09,4,4,0,0,0,.91-.93l1-1.13a.1.1,0,0,0-.14-.13Z"/><path class="cls-14" d="M67.55,55.86a23.17,23.17,0,0,0-2.43,3.08.06.06,0,0,0,.1.07,21.72,21.72,0,0,0,2.48-3c.09-.1-.06-.25-.15-.15Z"/><path class="cls-14" d="M66.72,55.31a27.08,27.08,0,0,0-3,3.85.07.07,0,0,0,.12.08,26.7,26.7,0,0,0,3.06-3.79c.07-.1-.1-.23-.18-.14Z"/><path class="cls-14" d="M66.1,54.44a36.08,36.08,0,0,0-2.64,3.9c-.07.13.1.29.2.16a36.09,36.09,0,0,0,2.61-4c.07-.11-.1-.2-.17-.1Z"/><path class="cls-14" d="M65.19,54.13a17.37,17.37,0,0,0-1.62,2.63c0,.09.11.16.17.09a15.55,15.55,0,0,0,1.7-2.58c.1-.15-.15-.29-.25-.14Z"/><path class="cls-14" d="M65.46,53.78s0,0,0,0a0,0,0,0,0,0,0Z"/><path class="cls-14" d="M54.41,41.5c-5.12-1.1-9.14,3.43-9,8.35a7.25,7.25,0,0,0,2.37,5.5c2.24,1.82,5.21,1.08,7.63.08.12,0,.07-.24-.06-.19-2.18.72-4.71,1.57-6.87.27-1.9-1.15-2.74-3.55-2.79-5.66-.13-4.91,3.73-9,8.73-8.25.06,0,.09-.09,0-.1Z"/><path class="cls-14" d="M57.75,53.92a6.45,6.45,0,0,0,2.8-7.58,7.78,7.78,0,0,0-6.76-4.91c-.23,0-.23.34,0,.36,6.07.61,9.58,8.16,3.89,12-.07.05,0,.16.07.12Z"/><path class="cls-14" d="M54.24,53.63c0,.12,0,.13.15.19a.07.07,0,0,0,.09-.09c-.06-.11-.07-.12-.19-.15a0,0,0,0,0,0,.05Z"/><path class="cls-14" d="M53.22,49a61.67,61.67,0,0,0,4.24,9.37c.09.17.34,0,.26-.15-1.56-3.05-2.84-6.22-4.36-9.28a.08.08,0,0,0-.14.06Z"/><path class="cls-14" d="M54.51,48.94a25.05,25.05,0,0,0,5.64,7.37c.15.13.36-.08.22-.22a54.55,54.55,0,0,1-5.73-7.22c-.06-.07-.17,0-.13.07Z"/><path class="cls-14" d="M54.09,46.27a2.08,2.08,0,0,0-3.11,1A2.13,2.13,0,0,0,53.29,50a.12.12,0,0,0,0-.24c-1.23-.05-2.59-1.13-2-2.5a2.06,2.06,0,0,1,2.77-.88s.07,0,0-.06Z"/><path class="cls-14" d="M53,46.09a2.29,2.29,0,0,1,2.34.95,2.25,2.25,0,0,1-.23,2.5c-.08.11.1.25.2.15A2.27,2.27,0,0,0,53,46a.05.05,0,1,0,0,.1Z"/><path class="cls-14" d="M52.22,38.77C46,39.85,41.2,45.69,43,52.11c1.57,5.6,8.59,8.79,13.48,5,.12-.1,0-.3-.13-.22-5.27,3.15-11.93.61-13.22-5.59s3.4-11.19,9.14-12.4c.1,0,0-.17-.05-.15Z"/><path class="cls-14" d="M60.16,55.29a9.62,9.62,0,0,0-9.77-16.1.08.08,0,0,0,0,.15c4.15-.94,8.72.33,11,4.14a10,10,0,0,1-1.42,11.71.07.07,0,0,0,.1.1Z"/><path class="cls-14" d="M65.3,66.29a9.63,9.63,0,1,0,7.37,2.76.13.13,0,1,0-.18.18c2.74,3.29,3.73,7.92,1.29,11.71a9.36,9.36,0,0,1-17.21-5.77c.33-4.67,4.29-8,8.73-8.63.16,0,.17-.27,0-.25Z"/><path class="cls-14" d="M55.45,41.49a18.72,18.72,0,0,0-1.14,2.23,11,11,0,0,0-.88,2,.15.15,0,0,0,.27.11,11.93,11.93,0,0,0,1.12-2.23,15.19,15.19,0,0,0,.86-2,.13.13,0,0,0-.23-.1Z"/><path class="cls-14" d="M52.24,46.13c-.35-.66-.74-1.28-1.15-1.9a9.46,9.46,0,0,0-1.15-1.64c-.11-.11-.34,0-.28.16a9.94,9.94,0,0,0,1.14,1.8,19.5,19.5,0,0,0,1.25,1.73c.09.11.26,0,.19-.15Z"/><path class="cls-14" d="M50.65,47.33c-1.46,0-2.91.11-4.36.22-.28,0-.28.46,0,.45,1.47-.09,2.94-.19,4.39-.39.16,0,.12-.28,0-.28Z"/><path class="cls-14" d="M50.86,49.15a59.8,59.8,0,0,0-4.93,3.75c-.2.15.1.47.28.28s.19-.21.32-.38-.06-.18-.14-.14a1.65,1.65,0,0,0-.42.21l.24.31A61.21,61.21,0,0,0,51,49.26a.07.07,0,0,0-.09-.11Z"/><path class="cls-14" d="M52.48,49.83a30,30,0,0,0-.87,2.94,15.81,15.81,0,0,0-.61,2.6.13.13,0,0,0,.24.07A16.35,16.35,0,0,0,52,52.88a25.92,25.92,0,0,0,.7-3,.11.11,0,0,0-.22-.06Z"/><path class="cls-14" d="M55.56,46.92a28.61,28.61,0,0,0,3.87-2.53c.11-.1,0-.25-.15-.19a29.23,29.23,0,0,0-3.78,2.61c-.06,0,0,.15.06.11Z"/><path class="cls-14" d="M55.83,48.55a34.52,34.52,0,0,0,4.64,1.33.21.21,0,0,0,.11-.4,35.12,35.12,0,0,0-4.65-1.28.18.18,0,0,0-.1.35Z"/><path class="cls-14" d="M65.59,72.55a3.35,3.35,0,0,1-.37-.87,7.68,7.68,0,0,0-.11-.82.12.12,0,0,0-.21,0,1.67,1.67,0,0,0,.47,1.9.14.14,0,0,0,.22-.18Z"/><path class="cls-14" d="M63.91,73.92c-1-.21-2-.47-3.07-.62-.21,0-.37.25-.15.37l.18.11c.09,0,.23,0,.19-.14l-.08-.2-.25.25c1,.25,2.06.38,3.08.57.23,0,.32-.3.1-.34Z"/><path class="cls-14" d="M63.9,76.16c-1,1-2,1.87-2.92,2.88a.18.18,0,0,0,.25.25c1-.91,1.92-2,2.88-2.92a.15.15,0,0,0-.21-.21Z"/><path class="cls-14" d="M65.51,76.44c.25.9.73,1.72,1,2.6s.42,1.63.77,2.38c.06.13.26.06.26-.07a8.42,8.42,0,0,0-.76-2.75,7.54,7.54,0,0,0-1.17-2.25c-.06-.07-.18,0-.15.09Z"/><path class="cls-14" d="M67.34,75.41a0,0,0,0,0,0,0s0,0,0,0Z"/><path class="cls-14" d="M67,75.49c1.07,1.06,2.18,2.07,3.3,3.08.23.21.57-.13.34-.34-1.12-1-2.24-2-3.41-3-.16-.13-.38.08-.23.23Z"/><path class="cls-14" d="M67.24,74.37c1.31-.35,2.63-.69,3.94-1.07a.21.21,0,0,0-.11-.41c-1.32.37-2.61.78-3.92,1.18a.16.16,0,0,0,.09.3Z"/><path class="cls-14" d="M77.83,61.12a14.91,14.91,0,0,0,2.32,1.43v-.41a1,1,0,0,0-.39.29.13.13,0,0,0,.09.23,1.13,1.13,0,0,0,.48-.08.24.24,0,0,0,.06-.44A15.75,15.75,0,0,0,78,60.85c-.16-.06-.29.17-.17.27Z"/><path class="cls-14" d="M80.12,62.52a4.21,4.21,0,0,0-2.73,1.14.17.17,0,0,0,.2.27c.4-.23.74-.53,1.15-.74a5.34,5.34,0,0,1,1.41-.48c.1,0,.08-.2,0-.19Z"/><path class="cls-14" d="M133.79,33.24c.93,20.95-6.64,40.84-19.55,57.16C101.91,106,84.82,119.53,66.06,126.35c-12.27,4.46-25.46,3.76-38.24,5.29-.16,0-.16.27,0,.25,11.55-1.38,23.4-.9,34.68-4.13,9.74-2.79,19-8,27.16-13.85,16.38-11.73,30.7-27.57,38.4-46.35a80.79,80.79,0,0,0,6-34.32.13.13,0,0,0-.25,0Z"/><path class="cls-14" d="M133.38,30.57c11.65-.34,23.19-.79,34.86-.55.28,0,.28-.42,0-.44a217,217,0,0,0-34.86.67c-.2,0-.21.32,0,.32Z"/><path class="cls-14" d="M132.69,31.26c-.11,1.05-.28,2.13-.3,3.19,0,.1.16.13.18,0,.16-1.06.18-2.16.24-3.22,0-.08-.11-.08-.12,0Z"/><path class="cls-14" d="M166.37,29.53c-.09,18,.46,36,.72,54s.52,36,.8,54a.24.24,0,0,0,.48,0q-.37-27-.79-54c-.27-18-.25-36-.87-54a.17.17,0,0,0-.34,0Z"/><path class="cls-14" d="M108.38,84.33a41.11,41.11,0,0,0,10.33-23.48c0-.09-.13-.09-.14,0a43.93,43.93,0,0,1-10.26,23.4s0,.12.07.08Z"/><path class="cls-14" d="M109.72,86.87A55.23,55.23,0,0,0,124,65.2c.06-.16-.18-.22-.24-.07a63.44,63.44,0,0,1-14.2,21.62c-.07.07,0,.19.12.12Z"/><path class="cls-14" d="M125.65,64.41A29.81,29.81,0,0,0,130.91,49c0-.18-.25-.17-.27,0a34.87,34.87,0,0,1-5.14,15.36c-.06.09.09.18.15.08Z"/><path class="cls-14" d="M122.28,55.78A40.47,40.47,0,0,0,129,31.56c0-.09-.15-.09-.14,0a43.28,43.28,0,0,1-6.62,24.18,0,0,0,1,0,.07,0Z"/><path class="cls-14" d="M84.35,47.59s0,0,0,0,0,0,0,0Z"/><path class="cls-14" d="M67.36,52.24s0,0,0,0,0,0,0,0Z"/><path class="cls-14" d="M74.85,65.2a0,0,0,1,0,0,0s0,0,0,0Z"/><path class="cls-14" d="M75.43,64.91a0,0,0,1,0,0,0s0,0,0,0Z"/><path class="cls-14" d="M74.17,38.9a43.92,43.92,0,0,0-1.59,15c0,.12.2.12.2,0a49.47,49.47,0,0,1,1.47-14.94c0-.05-.07-.07-.08,0Z"/><path class="cls-14" d="M72,52.13a19.29,19.29,0,0,0,.79,2.72c0,.06.09,0,.09,0a20.29,20.29,0,0,0-.77-2.71.06.06,0,0,0-.11,0Z"/><path class="cls-14" d="M72,52.7A6.71,6.71,0,0,0,72.38,56c0,.06.12,0,.11-.05a9.3,9.3,0,0,1-.39-3.27c0-.08-.11-.08-.11,0Z"/><path class="cls-14" d="M72.43,56.71c1.55,0,3.1,0,4.65-.05a.07.07,0,0,0,0-.14c-1.55,0-3.1,0-4.65.06a.07.07,0,0,0,0,.13Z"/><path class="cls-14" d="M77.93,55.41a52.51,52.51,0,0,1,1-13.53c0-.11-.15-.16-.18-.05a46.58,46.58,0,0,0-1,13.58c0,.12.2.12.19,0Z"/><path class="cls-14" d="M74.77,36.88A2.92,2.92,0,0,1,78.19,38c0,.07.16,0,.12-.07a2.86,2.86,0,0,0-3.57-1.17c-.06,0,0,.13,0,.1Z"/><path class="cls-14" d="M76.29,35c-4.06-3.69-8.6-8.28-6.53-14.24,0-.13-.16-.18-.22-.05-2.43,5.88,2.55,10.89,6.62,14.41.09.07.21-.05.13-.12Z"/><path class="cls-14" d="M69.54,20.81l1.37-.2a.06.06,0,0,0,0-.11,10.15,10.15,0,0,0-13-2.17c-.09.05,0,.16.07.13a11.22,11.22,0,0,1,7.54-1c1,.25,6.48,2.87,3.94,3.29-.07,0,0,.11,0,.1Z"/><path class="cls-14" d="M59.85,17.56a10.33,10.33,0,0,0-7.13,3,.18.18,0,0,0,0,.28c1.45.71,2.89,1.47,4.39,2.08.1,0,.16-.12.07-.18-.92-.54-1.89-1-2.85-1.49-.27-.13-1-.32-1-.61s.75-.83,1.08-1.06a10.3,10.3,0,0,1,5.42-1.79c.14,0,.14-.23,0-.23Z"/><path class="cls-14" d="M59.46,26a0,0,0,0,0,0,0s0,0,0,0Z"/><path class="cls-14" d="M54.83,22.41C58.22,29,64.19,35.09,71.32,37.52a.12.12,0,0,0,.09-.22c-6.92-3.63-12.49-8.08-16.36-15-.08-.14-.29,0-.22.13Z"/><path class="cls-14" d="M68.71,36.14a9.72,9.72,0,0,1,4.5,4.37c.05.09.21,0,.17-.07A7.92,7.92,0,0,0,68.77,36c-.09,0-.15.12-.06.16Z"/><path class="cls-14" d="M68.63,18.31a8.58,8.58,0,0,1,1.81-1.22c.6-.28,1.26-.4,1.86-.68.1-.05,0-.2-.06-.2a5.91,5.91,0,0,0-3.78,1.93c-.11.11.05.27.17.17Z"/><path class="cls-14" d="M55.47,18.78a21.17,21.17,0,0,0-1.93-3.53.14.14,0,0,0-.24.14,21.2,21.2,0,0,0,1.94,3.52.13.13,0,0,0,.23-.13Z"/><path class="cls-14" d="M68.24,17.19A7.89,7.89,0,0,0,69.77,16c0-.05,0-.14-.07-.11A7.83,7.83,0,0,0,68.11,17c-.13.1,0,.32.13.22Z"/><path class="cls-14" d="M54.31,19.55c-.36-.52-.71-1-1.09-1.56a9.93,9.93,0,0,0-1.06-1.36.13.13,0,0,0-.21.16,8.77,8.77,0,0,0,1,1.39c.39.5.8,1,1.21,1.47.05.07.17,0,.12-.1Z"/><path class="cls-14" d="M75.85,34.83a35.44,35.44,0,0,0,5.69,2.38.1.1,0,0,0,.08-.18,35,35,0,0,0-5.72-2.32.07.07,0,0,0-.05.12Z"/><path class="cls-14" d="M82.29,48.65a24.61,24.61,0,0,0,3,10.87.07.07,0,0,0,.12-.05,46.35,46.35,0,0,1-3-10.84c0-.06-.11,0-.1,0Z"/><path class="cls-14" d="M77.71,47.31c.89,4.12,1.74,8.3,2.93,12.34,0,.09.16.05.14,0-.76-4.14-1.88-8.26-3-12.33,0-.07-.13,0-.12,0Z"/><path class="cls-14" d="M81,59.53a42.3,42.3,0,0,0,5,.13c.07,0,.11-.12,0-.14a40.46,40.46,0,0,0-5-.17c-.12,0-.12.17,0,.18Z"/><path class="cls-14" d="M85.06,58.69c-.2-.58-.39-1.17-.59-1.74,0,0-.08,0-.07,0,.18.58.38,1.16.57,1.74,0,.06.11,0,.09,0Z"/><path class="cls-14" d="M85.31,59.58a1.36,1.36,0,0,1-.51,2.2s0,.1,0,.1c1.12-.08,1.33-1.77.58-2.41a.07.07,0,0,0-.1.11Z"/><path class="cls-14" d="M76.69,57a0,0,0,1,0,0,0,0,0,0,1,0,0,0Z"/><path class="cls-14" d="M77.35,56.83a3.87,3.87,0,0,1,.54,1.27A12.59,12.59,0,0,1,78,59.47a.08.08,0,0,0,.15,0,3.28,3.28,0,0,0-.54-2.8c-.09-.14-.33,0-.23.14Z"/><path class="cls-14" d="M77.22,54.44c-.08.71-.18,1.42-.2,2.13a.06.06,0,0,0,.11,0c.12-.71.14-1.42.2-2.14a.06.06,0,0,0-.11,0Z"/><path class="cls-14" d="M76.11,59.08a2.54,2.54,0,0,1-4-1.76c0-.08-.16-.06-.15,0a2.56,2.56,0,0,0,4.2,1.81s0-.1-.06-.07Z"/><path class="cls-14" d="M85.64,61.89a2.6,2.6,0,0,1-3.4-1.5c0-.07-.12,0-.11,0A2.53,2.53,0,0,0,85.71,62c.08,0,0-.15-.07-.12Z"/><path class="cls-14" d="M80.37,35.86a108.13,108.13,0,0,1,13.3,1.55.2.2,0,1,0,.1-.38,43,43,0,0,0-13.4-1.42.13.13,0,1,0,0,.25Z"/><path class="cls-14" d="M83.45,35.67c-.14-3.94-.4-7.88-.62-11.82a.1.1,0,0,0-.08-.09c-1.64.21-3.29.37-4.92.63-.08,0-.06.16,0,.15,1.16-.11,2.56-.62,3.67-.46,1.62.23,1.27,2.05,1.34,3.4.15,2.73.29,5.46.49,8.19a.05.05,0,1,0,.1,0Z"/><path class="cls-14" d="M76.88,23.84a94.9,94.9,0,0,1,9.91-3.92.09.09,0,1,0-.05-.18,33,33,0,0,0-9.92,4c-.06,0,0,.12.06.09Z"/><path class="cls-14" d="M86.71,20.15a11.08,11.08,0,0,0-.95,1.76s0,.06,0,0a11.38,11.38,0,0,0,1-1.73c0-.06-.06-.12-.09-.06Z"/><path class="cls-14" d="M86.54,20.68c.5.08,1,.14,1.51.21L88,20.75c-.44.63-.87,1.26-1.32,1.89-.08.12.12.24.21.12.41-.65.84-1.28,1.27-1.92a.09.09,0,0,0-.08-.14c-.5-.05-1-.11-1.49-.15-.08,0-.09.12,0,.13Z"/><path class="cls-14" d="M87.67,22.13c1.45,4.53,2.35,9.1,3.38,13.73,0,.09.17.07.16,0a64,64,0,0,0-3.37-13.76.09.09,0,0,0-.17.05Z"/><path class="cls-14" d="M82.5,29.2c2.38,0,4.79.09,7.16-.11a.13.13,0,0,0,0-.25c-2.38-.1-4.78.12-7.16.2a.08.08,0,1,0,0,.16Z"/><path class="cls-14" d="M83.46,31.55c2.24.22,4.52.51,6.77.53.21,0,.2-.3,0-.32-2.23-.28-4.52-.31-6.77-.4-.13,0-.12.18,0,.19Z"/><path class="cls-14" d="M69.51,15.73A1.08,1.08,0,0,1,71,15a1.12,1.12,0,0,1,.47,1.43c0,.09.11.15.15.07a1.21,1.21,0,1,0-2.25-.79.08.08,0,0,0,.16,0Z"/><path class="cls-14" d="M69.29,15.83c-.94-1.77-2-3.49-3-5.2l-.25.24a14.3,14.3,0,0,1,3.45,2.24A26.8,26.8,0,0,1,72,16c.1.11.26,0,.2-.16-1.11-2.35-3.64-4.18-5.93-5.25-.16-.07-.35.08-.25.25,1,1.71,2.09,3.42,3.22,5.08a.06.06,0,0,0,.1-.06Z"/><path class="cls-14" d="M53.07,15.18a.94.94,0,0,0-1.62-.68,1.83,1.83,0,0,0,.45,2.63c.1.07.21,0,.13-.13-.42-.52-.9-1.07-.72-1.8a1,1,0,0,1,.64-.76.78.78,0,0,1,1,.74c0,.08.11.07.12,0Z"/><path class="cls-14" d="M51.77,16.48c-.81-1.08-1.66-2.13-2.5-3.17a31.07,31.07,0,0,0-2.9-3.46c-.06,0-.17,0-.12.1a28.08,28.08,0,0,0,2.5,3.17c1,1.16,1.9,2.33,2.9,3.45.05.06.17,0,.12-.09Z"/><path class="cls-14" d="M46.26,9a19.38,19.38,0,0,1,7.14,6c.07.09.21,0,.16-.12a14,14,0,0,0-7.24-6c-.08,0-.15.11-.06.15Z"/><path class="cls-14" d="M50.89,15c.64.87,2.26.31,1.84-.81a.05.05,0,0,0-.1,0,1,1,0,0,1-.54,1A1,1,0,0,1,51,14.92s-.11,0-.08.06Z"/><path class="cls-14" d="M48.4,11.88c.34.27.72.51,1.08.75a10.34,10.34,0,0,0,1.25.82c.06,0,.14,0,.08-.1a10,10,0,0,0-1.08-.76,14.91,14.91,0,0,0-1.26-.8s-.12,0-.07.09Z"/><path class="cls-14" d="M67.51,23.26a6.82,6.82,0,0,0,.43,4.3.06.06,0,0,0,.11,0c-.12-.71-.37-1.37-.45-2.09a8.07,8.07,0,0,1,0-2.14c0-.08-.11-.12-.12,0Z"/><path class="cls-14" d="M63.6,22.92c.27,1.29.52,2.58.81,3.86a.09.09,0,1,0,.17,0c-.23-1.3-.49-2.59-.74-3.88,0-.16-.27-.1-.24.06Z"/><path class="cls-14" d="M66.17,29.73a15,15,0,0,0,1.2,1.32s.1,0,.07-.05a15.46,15.46,0,0,0-1.14-1.4c-.07-.09-.21,0-.13.13Z"/><path class="cls-14" d="M59.17,24.3A21.48,21.48,0,0,0,65,31.68c.07,0,.13-.05.08-.11a35,35,0,0,1-5.7-7.4c-.08-.16-.31,0-.23.13Z"/><path class="cls-14" d="M73,33.81c.46.32.9.66,1.38.94.06,0,.13,0,.07-.1a14.72,14.72,0,0,0-1.35-1c-.1-.07-.19.09-.1.16Z"/><path class="cls-14" d="M51.84,19.62c17.57-9,36.76-12.78,56.41-12.18a.07.07,0,1,0,0-.13C88.83,6.06,69,10.65,51.76,19.48c-.1.05,0,.19.08.14Z"/><path class="cls-14" d="M72.86,26.36a249.08,249.08,0,0,1,39.25-4.64.07.07,0,1,0,0-.13A208,208,0,0,0,72.8,26.13c-.14,0-.08.26.06.23Z"/><path class="cls-14" d="M67.33,35.2a105.19,105.19,0,0,1,53,.33.06.06,0,1,0,0-.12,98.78,98.78,0,0,0-53-.32.06.06,0,0,0,0,.11Z"/><path class="cls-14" d="M63,69.64c-2.22-.31-5,1.69-5.21,4a.09.09,0,0,0,.17,0A6.44,6.44,0,0,1,59.61,71,6.18,6.18,0,0,1,63,69.69s0,0,0,0Z"/><path class="cls-14" d="M73,75.1a8.6,8.6,0,0,1-1.4,4.16.09.09,0,0,0,.14.1,5.74,5.74,0,0,0,1.39-4.26c0-.08-.12-.08-.13,0Z"/><path class="cls-14" d="M75.94,79.17A3.69,3.69,0,0,1,75.46,81a10.53,10.53,0,0,1-1.16,1.33s0,.1,0,.09c1.26-.36,1.84-2.12,1.81-3.28a.11.11,0,1,0-.22,0Z"/><path class="cls-14" d="M78.32,79.28a6.5,6.5,0,0,1-1.24,1.9,10.56,10.56,0,0,1-1.81,1.38c-.1.07,0,.26.1.22a5,5,0,0,0,3.06-3.45c0-.06-.08-.11-.11,0Z"/><path class="cls-14" d="M54.51,71.29a5.81,5.81,0,0,0-1.34,4.42c0,.12.19.08.2,0a7.3,7.3,0,0,1,1.24-4.33c0-.06-.06-.11-.1-.06Z"/><path class="cls-14" d="M52.33,72A4.37,4.37,0,0,0,52,76.2a.12.12,0,0,0,.22-.1,8.26,8.26,0,0,1-.3-1.91,4.49,4.49,0,0,1,.64-2,.11.11,0,0,0-.19-.12Z"/><path class="cls-14" d="M45.92,39.2a6.1,6.1,0,0,1,1.83-.8c.58-.15,1.18-.13,1.76-.24a.09.09,0,0,0,0-.18,5.5,5.5,0,0,0-3.7,1c-.12.08,0,.27.11.19Z"/><path class="cls-14" d="M46.87,37.19a21.69,21.69,0,0,0,3.23-.33.12.12,0,0,0,0-.24,21.61,21.61,0,0,0-3.2.28c-.18,0-.18.3,0,.29Z"/><path class="cls-14" d="M61.36,35.66a10.36,10.36,0,0,1,2.13,1.47,23.76,23.76,0,0,1,1.42,1.92c.08.1.21,0,.19-.11a4.55,4.55,0,0,0-1.46-2.12,5.14,5.14,0,0,0-2.23-1.27c-.07,0-.11.08,0,.11Z"/><path class="cls-14" d="M63.89,36c.34.46.68.91,1,1.37a3.63,3.63,0,0,0,.89,1,.1.1,0,0,0,.15-.11,3.67,3.67,0,0,0-.78-1.14c-.36-.44-.71-.88-1.06-1.33-.09-.12-.3,0-.21.16Z"/><path class="cls-14" d="M45.43,12c-1.1-.28-1-1.54-.54-2.27a4.31,4.31,0,0,1,1.5-1.24c1-.62,2.1-1.11,3.14-1.69a.1.1,0,0,0-.08-.19A15.55,15.55,0,0,0,46.54,8,5.84,5.84,0,0,0,44.6,9.5a1.6,1.6,0,0,0,.79,2.58c.08,0,.12-.1,0-.12Z"/><path class="cls-14" d="M42.35,9.6c.78-2.88,3.49-4,6.22-3a.08.08,0,0,0,.06-.15,4.49,4.49,0,0,0-6.46,3.14.09.09,0,0,0,.18,0Z"/><path class="cls-14" d="M89.82,43.31A6.41,6.41,0,0,1,89,46.07c0,.08.08.16.13.08a4.59,4.59,0,0,0,.8-2.84c0-.05-.07-.05-.08,0Z"/><path class="cls-14" d="M87.21,44.42a1.4,1.4,0,0,0,.58,1.7,3.34,3.34,0,0,0,2.58.16c.18,0,.1-.31-.08-.28a4.52,4.52,0,0,1-1.9.08,1.25,1.25,0,0,1-1-1.61c0-.12-.15-.17-.19,0Z"/><path class="cls-14" d="M87,45.47a1.1,1.1,0,0,0,.3,1.6,1.08,1.08,0,0,0,1.52-.62.05.05,0,0,0-.1,0,.94.94,0,1,1-1.63-.89c0-.06,0-.11-.09-.05Z"/><path class="cls-14" d="M87,45.42c-1.66,1.77,0,4-.52,6a1,1,0,0,1-1,1.07,7.54,7.54,0,0,0-.22-.94,9.74,9.74,0,0,0-.54-1.35,9.14,9.14,0,0,0-1-1.63c-.1-.13-.21-.26-.32-.38-.67-.47-.44-.94.68-1.39a.08.08,0,0,0,.11-.11c-.55-.58-1.91-.9-1.85.3,0,.77,1.11,1.51,1.51,2a9,9,0,0,1,1.61,4,0,0,0,0,0,.07,0c2.69-1.68-.34-5.39,1.58-7.51a.06.06,0,0,0-.09-.09Z"/><path class="cls-14" d="M83.93,41.89c-.73,0-1.12.87-.91,1.47a1.09,1.09,0,0,0,1.64.57s0-.12,0-.1a1.06,1.06,0,0,1-1.49-.58c-.2-.69.31-1,.82-1.29,0,0,0-.06,0-.07Z"/><path class="cls-14" d="M86,43.94a2.83,2.83,0,0,1-2.2-3.3c0-.09-.12-.09-.15,0A2.57,2.57,0,0,0,86,44.05a.06.06,0,0,0,0-.11Z"/><path class="cls-14" d="M83,48.3a5.69,5.69,0,0,0-1.15.36c-.1,0,0,.2.07.18A6.35,6.35,0,0,0,83,48.4c.05,0,0-.11,0-.1Z"/><path class="cls-14" d="M82.07,48.59a8,8,0,0,1-.86-2.05,9.19,9.19,0,0,1-.1-2.22.08.08,0,0,0-.15,0,4.66,4.66,0,0,0,1,4.36.06.06,0,0,0,.09-.07Z"/><path class="cls-14" d="M81.75,48.53a2.21,2.21,0,0,0-.63,1,2.4,2.4,0,0,0-.12.58c0,.49.33,2-1.33.79a4.78,4.78,0,0,1-1-2,10.77,10.77,0,0,1-.37-2.26.08.08,0,0,0-.15,0,5.93,5.93,0,0,0,1.83,4.91c.34.25.75.39,1.07.05a1,1,0,0,0,.18-.66,2.9,2.9,0,0,1,.66-2.23.07.07,0,0,0-.1-.1Z"/><path class="cls-14" d="M82.14,36.33a21.06,21.06,0,0,0-3.78,2.15.09.09,0,1,0,.08.15c.61-.27,1.23-.51,1.81-.83.1,0,0-.22-.07-.18-.63.25-1.22.57-1.82.86l.08.15a26.16,26.16,0,0,1,3.75-2.21c.06,0,0-.11,0-.09Z"/><path class="cls-14" d="M80.29,37.8A9.58,9.58,0,0,0,77.62,40a.11.11,0,0,0,.11.19,8.27,8.27,0,0,0,2-.57.1.1,0,0,0-.05-.18,7.79,7.79,0,0,0-2,.54l.11.18a11.34,11.34,0,0,1,2.56-2.22c.06,0,0-.12,0-.09Z"/><path class="cls-14" d="M79.33,39.57c-.88.82-1.76,1.64-2.63,2.47-.1.1,0,.31.15.26a9.81,9.81,0,0,0,2.07-.82c.07,0,0-.2,0-.19a10,10,0,0,0-2.1.71l.15.26c.87-.83,1.73-1.67,2.59-2.51.12-.12-.06-.29-.18-.18Z"/><path class="cls-14" d="M78.81,41.38c-.23.22-.45.45-.67.68a.13.13,0,0,0,.13.22,11.51,11.51,0,0,0,2.56-.86c.14-.08,0-.27-.11-.25A11.9,11.9,0,0,0,78.2,42l.15.19c.18-.26.36-.52.53-.79a0,0,0,0,0-.07,0Z"/><path class="cls-14" d="M80.18,41.48a5.1,5.1,0,0,0,1.24-.39.09.09,0,0,0,0-.18,5,5,0,0,0-.94.25c-.05,0-.05.11,0,.1a5.59,5.59,0,0,0,1-.17l0-.18a5.17,5.17,0,0,0-1.21.51s0,.07,0,.06Z"/><path class="cls-14" d="M81.08,41.1A26.58,26.58,0,0,1,85,39.24a0,0,0,0,0,0-.08A8.33,8.33,0,0,0,81,41s0,.09,0,.07Z"/><path class="cls-14" d="M89.2,42a2.62,2.62,0,0,0,.38.09c.14,0,.17-.19,0-.19a2.54,2.54,0,0,0-.39,0c-.07,0-.08.1,0,.11Z"/><path class="cls-14" d="M91.46,37.54c.24,1.3.63,2.58,1,3.86l.14-.11-.82-.42c-.11-.06-.22.12-.1.17l.82.43a.11.11,0,0,0,.15-.12c-.33-1.28-.61-2.59-1-3.85,0-.08-.14,0-.13,0Z"/><path class="cls-14" d="M91.7,40.92c.14.45.29.89.45,1.33l.21.62.11.3c.1.18,0,.29-.26.34-.09-.12-.3,0-.22.13a.39.39,0,0,0,.74-.1c.07-.32-.18-.74-.29-1-.2-.55-.39-1.09-.61-1.63a.07.07,0,0,0-.13,0Z"/><path class="cls-14" d="M91.71,43.54a17,17,0,0,1,.56,2c0,.09.14.44.1.5-.23.3-.42-.2-.5-.29s-.16-.2-.35-.24-.23.13-.13.22.92,1.28,1.24.52c.13-.3-.07-.8-.15-1.09a9.2,9.2,0,0,0-.61-1.66c0-.09-.19,0-.16.07Z"/><path class="cls-14" d="M91.3,45.83c0,1,.06,2,.11,2.94l.24-.1a10.28,10.28,0,0,0-1.06-.92c-.12-.09-.24.09-.15.19a10.89,10.89,0,0,0,1,.92c.08.08.25,0,.24-.09-.07-1-.1-2-.26-3a.07.07,0,0,0-.13,0Z"/><path class="cls-14" d="M90.15,48.2q-.09,1-.15,1.92l.24-.1a17.22,17.22,0,0,0-1.86-2.29.13.13,0,0,0-.21.16A18.89,18.89,0,0,0,90,50.22c.08.1.23,0,.24-.1,0-.64.06-1.28.09-1.92,0-.15-.21-.14-.22,0Z"/><path class="cls-14" d="M89.8,40.84a13.25,13.25,0,0,1,.1,2.95.11.11,0,0,0,.22,0,6.27,6.27,0,0,0-.18-3c0-.09-.15-.05-.14,0Z"/><path class="cls-14" d="M85.27,39.26c.42.61.92,1.15,1.34,1.77s.75,1.27,1.12,1.92c0,.07.17,0,.14-.06a9.41,9.41,0,0,0-2.54-3.68s-.09,0-.06,0Z"/><path class="cls-14" d="M87.82,42.84a17.07,17.07,0,0,0,2.23-1.3.06.06,0,0,0-.06-.11,19.11,19.11,0,0,0-2.21,1.34,0,0,0,0,0,0,.07Z"/><path class="cls-14" d="M87.86,43.66s0,0,0,0,0,0,0,0Z"/><path class="cls-14" d="M83.64,43c-.29.11-.45.47-.14.69a.38.38,0,0,0,.59-.37s0-.05-.06,0L83.66,43s0-.06,0,0Z"/><path class="cls-14" d="M87.66,46.23a.38.38,0,0,0-.07.65c.31.2.61-.14.56-.43,0-.07-.11-.05-.11,0l-.34-.16s0-.08,0-.07Z"/><path class="cls-14" d="M86.88,46.7a2.17,2.17,0,0,0,.77,1.23s.06,0,0,0a2.46,2.46,0,0,1-.76-1.21s0,0,0,0Z"/><path class="cls-14" d="M86.64,46.49a2.24,2.24,0,0,0,.12,1.63s.09,0,.07,0a3.29,3.29,0,0,1-.13-1.59s0,0-.06,0Z"/><path class="cls-14" d="M84,44.14a3.75,3.75,0,0,1-2-.74s-.11,0-.07.08a2.66,2.66,0,0,0,2.11.71s0,0,0,0Z"/><path class="cls-14" d="M84.14,44.12a7,7,0,0,1-1,.31c-.34.07-.68.07-1,.11a.05.05,0,0,0,0,.1,2.94,2.94,0,0,0,2-.46s0-.07,0-.06Z"/><path class="cls-14" d="M83.82,46.36a2.67,2.67,0,0,1-1.92-1.28c-.05-.08-.16,0-.13.07a2.53,2.53,0,0,0,2,1.35c.08,0,.1-.13,0-.14Z"/></svg>