<svg id="illustration" xmlns="http://www.w3.org/2000/svg" viewBox="0 0 198.43 157.35"><defs><style>.cls-1,.cls-5{fill:#fff;}.cls-2{fill:#632617;}.cls-2,.cls-3,.cls-5,.cls-6{stroke:#000;stroke-miterlimit:10;stroke-width:0.5px;}.cls-3{fill:#d3954a;}.cls-4{fill:#231f20;}.cls-6{fill:#ee3460;}</style></defs><path class="cls-1" d="M88.66,132.25s2.4-9.83,2.42-11,3.32,7.65,2.65,10.11-3.9,1.66-3.9,1.66l-1.39-.13Z"/><path class="cls-1" d="M72.59,125.91s-.68-2.7-.31-3.47,4,3.24,4,3.24Z"/><path class="cls-2" d="M64.35,84.1,62,77.33,64.18,77s-5.6-3-6.69-9l2,.83L57.33,57.12,59,58s.23-6.71.07-7.38-1-4.25-1-4.25l2.21,1.19.92-6.76,2.8-.14L63.51,38l2.36-4.48-.55-3.27L63.16,28l2-.43L61,15.33s6,1.45,8.16,1.26,7.24-1.15,7.24-1.15L79.26,15l2.74.3,3.57-2,2.21-1.1.78-1L89,13.33l1.79,1L92.07,14l1.19-2.55s1.38,2.93,2.5,3.26S98.65,13,98.65,13s2.1,3.09,4.73,4.07S112,13.56,112,13.56l5.28-5.06-1.16,4.11.58.87,7.15-1.26-1.41,3.23,5.4-.92-1.72,4.68,10.5-1.81a5.85,5.85,0,0,0-2.16,6.67C135.84,28.43,149.1,21,149.1,21s-4.38,7.59-7.09,9.57l3.59-.68-1.34,2.85,7.7-1.15-2.24,5L162,35.73l-8.48,9.08v1.77l2.3,2.28.82,4.38-7.3,24.39,4.79,21.67,3,4.33a3.17,3.17,0,0,0-3.66.34c-2.14,1.46-.69,6.4-1.68,9s-1.79,2-1.79,2l4,2.84s-3-.76-4.16.9,1.54,3.84.59,5.37-2.24,7.67-2.24,7.67l-35,2.68,3.54-31.67Z"/><path class="cls-3" d="M69,51.94s3.89-12.1,16.59-12.39,17.64,4.12,18,7.63c5,3.72,11.29,10.36,10.74,17.25a18.71,18.71,0,0,1-4.61,11l2.79.14L109,80.23l1.15.83L109,83.28s4.44-1.75,5.41-2.67.15,1.62.15,1.62,5.59-2.4,9.43.8l-1.5,2,4.13,1.49-1,2,2.89,2.27-1.32.8,2.44,2.59-1.28,1.08,1.94,1.32-1.63,2.76,1.12,3.58s1,2.73-1.57,3.45c5.17,6-2,18.26-6.06,21.44s-30,17.85-36.13,18.59-6.35-4.54-6.35-4.54-6.23.87-7.71-3.77,3-5.25,14.54-5.15,18.59-3.69,19.46-4.35-11-25.47-11-25.47-10.56,2.15-16.48,5.41-15.07,7.12-16.92-2.16c-1.24-6.21,6.16-8.42,6.16-8.42S62.55,95.83,62.45,92s.29-7.3,4.27-9.1,4.37-6,2.43-6.64-3-4.13-2.14-6.18-1.56-1.56-1.19-3.85-3.57-1-1.8-4.89c3.4-.5,2.62-4.76,2.62-4.76L68.93,54Z"/><path class="cls-3" d="M132.2,73.37S131,55.2,150,54.48s19.08,22.41,12.65,31.34-15.24,21.05-22.07,22.06a11.06,11.06,0,0,1-5.34-.71l5.34-2.37s-2.62-.91-3.29-2.18,1.57-2.09,1.57-2.09l-3.27-2L139,94.74l-3.67-1.38,3.08-3.56-3.08-.38,2-1.93-3.77-1.65,1.75-1.66-2.81-2,2.41-1.62-4.76-2.06Z"/><path class="cls-4" d="M93.82,103.25s16.09-.37,17.58,11.67c0,0-.31,10.69-7.27,14.09L92.46,123a51.12,51.12,0,0,0,4.23-6.82c1.1-2.52-.66-7.61-1-8.71S93.82,103.25,93.82,103.25Z"/><path class="cls-5" d="M88.33,70.9s.18,5.58,4.52,6.73,7.81-1.08,8.42-3.36-.41-6.73-1.58-7.39-7.5,3.29-7.5,3.29S89,71.36,88.33,70.9Z"/><path class="cls-5" d="M69.87,68.16s-3.15,1.39-3.21,4.17a4.38,4.38,0,0,0,3.21,4.49A5.1,5.1,0,0,0,73,76.31l0-.9,1.77-3.68Z"/><path class="cls-6" d="M88,124.29l-17.72,2.1a4.36,4.36,0,0,0-1.94,2.52c-.25,1.5,2.37,2.88,3,3.34s7,1,7,1,15.22-.38,17.24-1,7.91-3,7.91-3-6-6.66-9.1-6.84c-2.57-.15,0,10.35-1.38,10.44-.38,0-4.4.32-4.29,0,3.21-9.75,0-8.66,0-8.66"/><path d="M110,113.44a20.33,20.33,0,0,0,.4,3.07c0,1.06-.26,2.06-.28,3.11a.38.38,0,0,0,.71.19c.89-1.54,1-5.25-.41-6.54a.25.25,0,0,0-.42.17Z"/><path d="M99.64,104.49c.3.69,1.3.73,2,1a20.14,20.14,0,0,1,3,1.42l-.22-.55-.07.16a.32.32,0,0,0,.23.39l.18.05a.49.49,0,0,0,.37-.89,21.59,21.59,0,0,0-2.91-1.39c-.69-.27-1.8-.92-2.47-.41a.19.19,0,0,0-.07.25Z"/><path d="M101.84,107.28a10.68,10.68,0,0,0,1,2.17c.26.65.26,1.62.76,2.1a.33.33,0,0,0,.51-.06c.4-.72-.12-1.77-.41-2.47a3.71,3.71,0,0,0-1.57-2.06c-.2-.08-.34.15-.31.32Z"/><path d="M94.28,123.49a22.21,22.21,0,0,0,3.65,1.27c1.38.47,2.66,1.16,4,1.66.46.17.68-.51.32-.76-2-1.41-5.41-2.77-7.9-2.48-.16,0-.25.23-.09.31Z"/><path d="M99.94,125c.23.26.36.68.58,1a6.86,6.86,0,0,0,.56.65c.35.36.75.93,1.29.94a.31.31,0,0,0,.3-.3c0-.57-.67-.93-1.09-1.27-.22-.18-.45-.36-.69-.52s-.66-.26-.93-.47c0,0,0,0,0,0Z"/><path d="M101.81,126.52a20.81,20.81,0,0,0,1.5,2.12c.38.46,1-.2.66-.66a18.3,18.3,0,0,0-1.71-1.81.29.29,0,0,0-.45.35Z"/><path d="M102.67,127.8a3.28,3.28,0,0,0,.36.84c.24.45.94-.07.56-.43a3,3,0,0,0-.7-.58.15.15,0,0,0-.22.17Z"/><path d="M102.4,127.67a9.52,9.52,0,0,0,.73,1.42c.26.38.88,0,.62-.37a10,10,0,0,0-1.08-1.26c-.14-.15-.34,0-.27.21Z"/><path d="M104.18,128.16a4.17,4.17,0,0,0,2.91-2.29.5.5,0,0,0-.07-.58.47.47,0,0,0-.34-.13.45.45,0,0,0-.41.23,6.66,6.66,0,0,1-2.22,2.32c-.16.12-.14.48.13.45Z"/><path d="M96,122.91a6.77,6.77,0,0,0,1.22-1,3.14,3.14,0,0,0,1-1.24.4.4,0,0,0-.58-.45c-.44.19-.74.71-1,1.08a7.68,7.68,0,0,0-.88,1.38c-.07.17.09.41.29.28Z"/><path d="M82.05,88.47A1.12,1.12,0,0,0,81.6,90a1.46,1.46,0,0,0,1.42.84.47.47,0,0,0,0-.94c-.69,0-.7-.65-.66-1.2a.21.21,0,0,0-.31-.18Z"/><path d="M68.05,89.71c-.13.48,0,1-.55,1.24s-.33,1.12.25.91a1.59,1.59,0,0,0,1-1,1.1,1.1,0,0,0-.29-1.28.31.31,0,0,0-.44.18Z"/><path d="M71,69.77c.15.33.24.28.5.52a2.14,2.14,0,0,1,.81,1.53,9.72,9.72,0,0,1-.57,3.28l.88-.11-.14-.21a.33.33,0,0,0-.56,0l-.13.21c-.39.58.71,1.07.88.37.35-1.44,1-3,.43-4.48-.27-.73-1.14-1.92-2-1.42a.22.22,0,0,0-.08.31Z"/><path d="M94.11,72.44a3.15,3.15,0,0,1-.42.65,4.26,4.26,0,0,1-.63.49c-.35.31,0,.77.41.71A1.57,1.57,0,0,0,94.6,72.5a.27.27,0,0,0-.49-.06Z"/><path d="M88.61,71.31c-.8.94.29,2.69,1,3.41a.49.49,0,0,0,.57.08.35.35,0,0,0,.17-.17.52.52,0,0,0-.07-.58,4,4,0,0,1-.93-1.5,3.92,3.92,0,0,0-.46-1.24.17.17,0,0,0-.23,0Z"/><path d="M90.22,74.68a6.75,6.75,0,0,0,0-2.37c-.06-.51-.06-1.17-.57-1.46a.8.8,0,0,0-1.09.32,1.18,1.18,0,0,0,.28,1.38.47.47,0,0,0,.48.12.5.5,0,0,0,.34-.34.51.51,0,0,0-.13-.47c-.52-.63-.26.46-.24.58s.08.51.13.77a5.1,5.1,0,0,0,.49,1.52.19.19,0,0,0,.35,0Z"/><path d="M90.06,75.1a5.69,5.69,0,0,0,1.23.17c.58,0,.58-.94,0-.9a5.69,5.69,0,0,0-1.23.17.29.29,0,0,0,0,.56Z"/><path d="M67.2,60.4a7.67,7.67,0,0,1,1-3.81c.68-1,1.7-1.38,2.59-2.12a.38.38,0,0,0-.26-.64,4.69,4.69,0,0,0-3.16,2.27,4.82,4.82,0,0,0-.62,4.36.23.23,0,0,0,.44-.06Z"/><path d="M69.91,52.81c3.54-5.44,7.42-10,14.14-11.28,6.4-1.22,14.82.64,17.71,7.11.25.57,1.09.08.84-.48-2.87-6.45-11.06-8.66-17.55-7.77S71.29,46,69.53,52.64a.21.21,0,0,0,.38.17Z"/><path d="M92.54,41.22a10.78,10.78,0,0,1,5.84,2.27c.43.33,1-.41.58-.76a9.53,9.53,0,0,0-6.42-2.13.31.31,0,0,0,0,.62Z"/><path d="M101.85,49.19c3.35,2,6.34,3.79,8.41,7.21a15.54,15.54,0,0,1,2,11.15,17.8,17.8,0,0,1-2.3,5.64c-.52.87-1.5,2-1.16,3.08a1.19,1.19,0,0,0,2.27.27c.28-.56-.56-1.05-.84-.49a1.82,1.82,0,0,1,.36-2l.42-.69a22.49,22.49,0,0,0,1.13-2.18,16.52,16.52,0,0,0,1.2-4.18,16.1,16.1,0,0,0-.83-8.05c-1.66-4.48-5.61-9.23-10.51-10.19a.25.25,0,0,0-.19.45Z"/><path d="M94.88,79.25c2.31,1.59,6.42,1,8.68-.45.4-.24.15-1-.33-.79A14,14,0,0,1,99,79.12c-1.35.07-2.63-.31-4-.34a.25.25,0,0,0-.13.47Z"/><path d="M96.28,78.74a13.3,13.3,0,0,0,3.51,0,9.14,9.14,0,0,0,3.13-.46c.26-.11.17-.52-.08-.58a9.65,9.65,0,0,0-3.3.1,12,12,0,0,0-3.26.6c-.14,0-.17.28,0,.31Z"/><path d="M97.35,80.63c2.12,1.16,6.12.72,7.82-1.06a.36.36,0,0,0-.35-.6,31.33,31.33,0,0,1-3.58,1.2,23.73,23.73,0,0,1-3.77,0,.24.24,0,0,0-.12.44Z"/><path d="M70.84,77.53a11,11,0,0,0-1.23,2,6.42,6.42,0,0,0-1,2.24c0,.23.28.31.42.17a6.58,6.58,0,0,0,1.2-2.21,9.73,9.73,0,0,0,.79-2.06c0-.12-.13-.24-.22-.13Z"/><path d="M70.43,78c-.07.22-.13.44-.18.67l.48.06c0-.42-.08-.83-.13-1.25h-.4a4.54,4.54,0,0,1-1.36,3.61c-.36.36.19.91.56.56a4.44,4.44,0,0,0,1.19-4.22.2.2,0,0,0-.39,0c0,.42,0,.83,0,1.25a.25.25,0,0,0,.49,0c0-.23,0-.46,0-.69a.16.16,0,0,0-.32,0Z"/><path d="M70,81.18c.25-1,.67-2,.88-3,.11-.5-.64-.71-.76-.21-.25,1-.31,2.08-.52,3.11a.21.21,0,0,0,.4.11Z"/><path d="M67.08,61.5c-1.23-.78-2.84.33-3.06,1.64a2.4,2.4,0,0,0,.63,2c.41.45,1.24,1,1.83.61a.36.36,0,0,0,.08-.56c-.28-.28-.63-.27-1-.48A1.53,1.53,0,0,1,65,63.41c.06-1,1.15-1.36,2-1.41a.27.27,0,0,0,.14-.5Z"/><path d="M66.37,66c-.61.31-.57,1.28-.31,1.81a2.07,2.07,0,0,0,1.7,1.08.48.48,0,0,0,.46-.61l0-.12c-.12-.54-.87-.36-.91.13v.12l.48-.48a1.13,1.13,0,0,1-.94-.66c-.18-.38-.07-.77-.17-1.16a.19.19,0,0,0-.28-.11Z"/><path d="M67.21,68.65a23.38,23.38,0,0,0,2.48-.43c.6-.13.34-1.07-.25-.92a20.71,20.71,0,0,0-2.32.71c-.31.12-.3.68.09.64Z"/><path d="M68.73,82.14c-7.82,1.89-6.85,13,.06,15.39.58.2.78-.68.25-.9a7.5,7.5,0,0,1-4.93-7.45c.26-3.06,2.32-5,4.86-6.47a.31.31,0,0,0-.24-.57Z"/><path d="M72.24,85.58l-.15-.07L72,86a23.39,23.39,0,0,1,4-.88,20.17,20.17,0,0,1,3.73.39c.4.06.55-.58.2-.75a8.55,8.55,0,0,0-8.22.8c-.32.25.31.72.45.26l.05-.18a0,0,0,0,0,0,0Z"/><path d="M69.73,97.63c-3,1.47-6.09,4.13-6.45,7.65a5.22,5.22,0,0,0,4.64,6c10.54,1.71,18.54-10.23,29.3-6.86.6.19.85-.75.26-.94-7-2.18-13.15,1.84-19.27,4.63-3.36,1.53-11,4.57-13.49.16s2.55-7.8,5.17-10.37a.14.14,0,0,0-.16-.22Z"/><path d="M77,134.05c-3.19-2-5.59,2.41-4.05,5.07,2.34,4,8.38,2.93,11.8,1.26.56-.28.07-1.11-.49-.84a10.94,10.94,0,0,1-7.53,1.13,4.66,4.66,0,0,1-2.94-2,2.57,2.57,0,0,1,2.93-3.91.37.37,0,0,0,.28-.67Z"/><path d="M83.62,141.54c-1.61-.39-3,1.53-3.22,2.91a.48.48,0,1,0,.94.13,2.88,2.88,0,0,1,.84-1.65,8.32,8.32,0,0,1,1.5-.93.25.25,0,0,0-.06-.46Z"/><path d="M80.22,142.4c-.2.46-.54,1.16-.16,1.58a.24.24,0,0,0,.28,0c.48-.34.3-1.07.2-1.58a.18.18,0,0,0-.32,0Z"/><path d="M80.55,142.85a.85.85,0,0,0,.89-.33.33.33,0,0,0-.32-.55.85.85,0,0,0-.68.73.17.17,0,0,0,.11.15Z"/><path class="cls-1" d="M62,109.22a10.88,10.88,0,0,0,2.79,9.17s.09-4.21,1.51-5.49S62,109.22,62,109.22Z"/><path class="cls-1" d="M78.66,108.79s4,6.82,2.32,12.47a14.23,14.23,0,0,0,4-15.5C84.87,105.38,78.66,108.79,78.66,108.79Z"/><path d="M151.25,58.5c-9.21,2-16.26,11.43-18.34,20.19l.93.25a29.37,29.37,0,0,1,9.56-15.88c.42-.36-.12-1.05-.59-.76a20.24,20.24,0,0,0-9.59,15.56c-.06.62.91.62,1,0a19.22,19.22,0,0,1,9.11-14.72l-.59-.77a30.3,30.3,0,0,0-9.8,16.32c-.14.6.79.86.93.25a27.8,27.8,0,0,1,6.53-12.37c3.18-3.46,7-5.48,11.1-7.56.29-.15.08-.58-.22-.51Z"/><path d="M134.16,79.08c1.84-4.22,3.47-8.19,6.64-11.63S147.75,62,152,60.07c.45-.2.13-.9-.33-.78-8.26,2.16-17,11-17.87,19.69a.2.2,0,0,0,.37.1Z"/><path d="M149.56,68.23a8,8,0,0,0-1.63,1.56c-.4.46-1.13,1-1.11,1.68a.31.31,0,0,0,.39.29c.61-.11,1-1,1.4-1.45a7.72,7.72,0,0,0,1.17-1.92.15.15,0,0,0-.22-.16Z"/><path d="M149,68.81c.47.65,1.3.94,1.75,1.64a3.21,3.21,0,0,1,.48,1.4c0,.49-.08.94,0,1.43a.37.37,0,0,0,.61.16c.73-.89.36-2.45-.2-3.36S150,68.24,149,68.61a.13.13,0,0,0-.08.2Z"/><path d="M133.19,82.5a14.71,14.71,0,0,0,3.48-.94c.58-.19.34-1.1-.25-.92A15.06,15.06,0,0,0,133,81.86a.35.35,0,0,0,.18.64Z"/><path d="M136.67,80.29A11.91,11.91,0,0,0,135.05,79c-.48-.32-1-.85-1.59-.72a.32.32,0,0,0-.22.39c.11.56.79.81,1.23,1.1a11.59,11.59,0,0,0,1.83,1c.29.13.64-.22.37-.48Z"/><path d="M133.51,82.56c.52.22.93.82,1.48,1.07a7.56,7.56,0,0,0,1.68.5l-.11-.88c-.72.37-4,1.45-2.93,2.78.41.5,1.25.47,1.83.55.37,0,1.6,0,1.86.25.57.51-.15.88-.38,1.15a.33.33,0,0,0,.14.54c1.25.29,2.43-1.38,1.28-2.28a4.65,4.65,0,0,0-2.27-.55,3.33,3.33,0,0,1-1.05-.14c-.49-.28-.29-.15,0-.43a11.61,11.61,0,0,1,2-1,.49.49,0,0,0-.12-.88,11.87,11.87,0,0,1-2.23-.73c-.46-.18-.75-.39-1.19-.19a.16.16,0,0,0,0,.28Z"/><path d="M137.12,88.73c.75.32,1.5.61,2.27.87l-.19-.73c-1.14,1.28-2.25,2.58-3.37,3.89a.45.45,0,0,0,.31.75c1.27.14,2.53.3,3.79.45l-.37-.65-3.38,4.54a.45.45,0,0,0,.16.61l3.34,2v-.82a2.67,2.67,0,1,0,2.74,4.59l-.58-.75-3.62,3.6a.47.47,0,0,0,.46.78A26.07,26.07,0,0,0,149.14,102c.4-.39-.18-.93-.6-.6A30.46,30.46,0,0,1,138.43,107l.45.79q1.83-1.78,3.64-3.59c.4-.39-.11-1-.58-.75l-1.78-2.94a.48.48,0,0,0,0-.82c-1.11-.65-2.92-1.11-2.37-2.48a18.84,18.84,0,0,1,2.52-3.42c.22-.3-.09-.62-.38-.66l-3.79-.46.32.75c1.12-1.29,2.25-2.58,3.35-3.89a.44.44,0,0,0-.19-.73c-.76-.22-1.5-.41-2.27-.57-.31-.06-.56.4-.23.54Z"/><path d="M137.53,101.33a7,7,0,0,0,.71,1.75c.21.4.82,0,.6-.35a6.83,6.83,0,0,0-1.05-1.55.16.16,0,0,0-.26.15Z"/><path d="M146.69,94c1.68,1.15,5.06-.54,5.38-2.49.07-.36-.39-.74-.68-.4-.64.73-1,1.47-2,1.91a8.34,8.34,0,0,1-2.67.43c-.28,0-.26.42-.07.55Z"/><path d="M141,87.74c1.76.11,3.4-.1,4.81,1.22a4.72,4.72,0,0,1,1.26,4.61H148a6.74,6.74,0,0,0-6.54-5.76l.24.9a2.93,2.93,0,0,1,3.12.34.45.45,0,0,0,.54-.7,3.58,3.58,0,0,0-4.14-.48.49.49,0,0,0,.24.91,5.81,5.81,0,0,1,5.61,5c.08.49.83.44.93,0a5.67,5.67,0,0,0-1.65-5.68c-1.39-1.22-3.89-2-5.48-.74-.14.11,0,.32.13.33Z"/><path d="M152.92,58.41c-.81,2.62.2,5.53,1.08,8a71,71,0,0,0,3.51,8.88c.2.39.79.12.69-.28a79.25,79.25,0,0,0-2.95-8,37.1,37.1,0,0,1-1.84-8.53.25.25,0,0,0-.49-.07Z"/><path d="M99.28,71.38c.1.61-.27,1-.57,1.49a.2.2,0,0,0,.23.3,1.56,1.56,0,0,0,.73-1.9c-.06-.26-.44-.14-.39.11Z"/><path d="M67.47,72.21a1.57,1.57,0,0,0,.41,2.06.1.1,0,0,0,.13-.13,2.25,2.25,0,0,1-.4-1.87.08.08,0,0,0-.14-.06Z"/><path d="M74.51,126.68a4.85,4.85,0,0,0-4.34.79c-.92.73-1.71,2.2-1,3.33a.42.42,0,0,0,.77-.21,2.58,2.58,0,0,1,1.5-2.77c1-.46,2.17-.27,3.1-.78a.21.21,0,0,0,0-.36Z"/><path d="M73.61,132.86c4.38.68,9.3-.05,13.72-.24.56,0,.56-.88,0-.86-4.42.16-9.4-.2-13.72.83-.13,0-.14.25,0,.27Z"/><path d="M93.41,132.13c3.16.76,8.13-1.12,10.25-3.52a.31.31,0,0,0-.38-.49,40.24,40.24,0,0,1-5,2.55c-1.6.54-3.29.61-4.89,1.12a.18.18,0,0,0,0,.34Z"/><path d="M88.17,131.56c-.5.05-1,.77-.82,1.26a.24.24,0,0,0,.21.12c.5,0,1-.77.83-1.22a.22.22,0,0,0-.22-.16Z"/><path d="M69.2,87.76c0,.48.38.9.51,1.36a2.84,2.84,0,0,1-.09,1.68c-.2.6.69.8.92.25a3.33,3.33,0,0,0,.09-2.18c-.17-.58-.49-1.32-1.16-1.38a.27.27,0,0,0-.27.27Z"/><path d="M84.5,83c1.66,1,2,2.43,2.25,4.21a6.73,6.73,0,0,1-1,5c-.09.18.07.47.29.38,2.1-.88,1.93-3.75,1.61-5.61-.3-1.68-.83-4.6-3.1-4.24-.14,0-.14.21,0,.27Z"/><path d="M116.8,92.91c.65,1,1.92,1.77,2.76,2.69A15.56,15.56,0,0,1,122,99.34c.28.56,1.1.07.84-.48a15.63,15.63,0,0,0-2.49-3.79c-.83-.93-2-2.27-3.33-2.48a.22.22,0,0,0-.25.32Z"/><path d="M76,96.39c-.3.73-.58,1.46-.83,2.2a5.33,5.33,0,0,0-.51,2,.24.24,0,0,0,.44.12,5.34,5.34,0,0,0,.67-2c.19-.75.35-1.52.49-2.29a.13.13,0,0,0-.26-.07Z"/><path d="M100.74,66.61c.32.55.71,1,1,1.6s.36,1.24.68,1.78a.37.37,0,0,0,.68-.09,3.36,3.36,0,0,0-.56-2,3.29,3.29,0,0,0-1.51-1.55.22.22,0,0,0-.31.3Z"/><path d="M102.21,74.83A5,5,0,0,0,101,76.48c-.1.3.28.47.49.29a5.23,5.23,0,0,0,1-1.72c.07-.18-.14-.38-.29-.22Z"/><path d="M67.06,59.88c1,.59,2.19.93,3.21,1.55a14.19,14.19,0,0,1,3,2.51c.26.28.67-.13.42-.41-1.55-1.77-4.11-3.81-6.57-3.89a.13.13,0,0,0-.06.24Z"/><path d="M110.26,59.19c-.34-3.64-5.06-2-7.24-1.33a31.47,31.47,0,0,0-11.25,6c-.06.06,0,.16.1.12,2.9-1.53,15.83-9.43,18-4.75.07.17.36.09.35-.09Z"/><path d="M89.19,26.94c.81,1.07,3.33,1.23,4-.05a.25.25,0,0,0-.28-.37,8.27,8.27,0,0,1-1.77.55,5.43,5.43,0,0,1-1.81-.38c-.13,0-.29.13-.19.25Z"/><path d="M111.93,28.39a2.77,2.77,0,0,0-1.11,1c-.14.2.16.41.33.25a2.73,2.73,0,0,0,.86-1.21.07.07,0,0,0-.08-.08Z"/><path d="M112.88,14c.91-.75,1.79-1.54,2.65-2.36l-.58-.33c-1.73,5.27,5.33,2.62,7.93,2.1l-.3-.72c-.92.47-2.37,1.41-1.78,2.7.75,1.68,3.83.65,5.13.5.49-.05.5-.83,0-.78a15.18,15.18,0,0,1-2.41.26l-.8.08c-.76-1.13-.67-1.82.26-2.08.41-.21.11-.8-.3-.72l-3.27.68c-1,.21-4.81,1.56-3.8-1.84a.34.34,0,0,0-.57-.33q-1.25,1.26-2.4,2.61a.17.17,0,0,0,.24.23Z"/><path d="M135.23,26.24c4.53.12,9.17-1.71,13.06-3.91l-.49-.64c-2.65,2.92-5.32,5.82-7.94,8.77a.39.39,0,0,0,.47.6,21.2,21.2,0,0,0,8.48-8.62c.26-.5-.49-.94-.76-.44a20.2,20.2,0,0,1-8.11,8.4l.46.6c2.68-2.89,5.32-5.82,8-8.73a.41.41,0,0,0-.49-.64c-4.1,2.33-8.18,3.19-12.72,4.15-.26,0-.19.45.07.46Z"/><path d="M157.74,58.17c.44,1.52,1.69,2.76,2.42,4.18a26.6,26.6,0,0,1,2.05,5.55A63,63,0,0,1,163.59,81c0,.62,1,.63,1,0a61.87,61.87,0,0,0-1.51-13.71c-.76-2.85-2.22-7.86-5.09-9.24a.15.15,0,0,0-.22.16Z"/><path d="M161.37,60.68l-.11-.28a.22.22,0,0,0-.43.12c.93,5.35,2.51,10.47,3.12,15.89,0,.43.66.73.9.25,3-6.17-.52-12.21-4.13-17.21-.36-.5-1.19-.05-.84.49a25,25,0,0,1,4,14.35c0,.62.94.62,1,0a25.9,25.9,0,0,0-4.14-14.84l-.84.49c3.36,4.66,7,10.41,4.13,16.23l.9.24a81.07,81.07,0,0,0-1.29-8.19c-.28-1.33-.59-2.66-1-4-.25-.89-.54-2.94-1.46-3.45.08,0,.2,0,.17-.13Z"/><path d="M159,88.29a7.77,7.77,0,0,0-2.43,2.6,10,10,0,0,0-1.92,3.44.36.36,0,0,0,.6.35,20,20,0,0,0,2-3.14,15.1,15.1,0,0,0,2-3.06.17.17,0,0,0-.24-.19Z"/><path d="M141.39,91.42a3.11,3.11,0,0,1,2.54,2.67,7.29,7.29,0,0,1-.43,3.43.39.39,0,0,0,.65.37c1.12-1.2,1-3.39.47-4.84-.44-1.12-1.91-3.18-3.29-2.13-.16.13-.2.46.06.5Z"/><path d="M190.77,99.33s0,0,0,0a0,0,0,0,0,0,0Z"/><path d="M94.79,63.85c2.21-1,4.4-2.08,6.59-3.13,1.92-.93,7.58-4.67,8.57-1.14a.17.17,0,0,0,.33-.09c-.58-2.12-2.72-2-4.42-1.31-3.82,1.54-7.53,3.59-11.22,5.42-.17.09,0,.33.15.25Z"/><path d="M73.45,63.19A40.28,40.28,0,0,0,68,60.31c-1.09-.48-2.44-1-3.65-.63-1.45.49-2.37,2.47-1,3.51.2.15.41-.13.32-.31-1.36-2.69,2-2.49,3.12-2.14a23.39,23.39,0,0,1,2.47,1.08,40.57,40.57,0,0,0,4.13,1.61.13.13,0,0,0,.1-.24Z"/><path d="M79.88,63.67c2,.16,4.09.5,6.11.47.24,0,.31-.38.06-.42-2-.35-4.13-.33-6.17-.48-.28,0-.28.41,0,.43Z"/><path d="M79.87,52.62c4,.11,8-.23,12-.44.32,0,.32-.51,0-.49-4,.19-8,.25-12,.76a.09.09,0,0,0,0,.17Z"/><path d="M71.75,52.7a4,4,0,0,0-4.43,1.54C65.89,56.06,66,58.58,66,60.76c0,.24.39.24.38,0a12.72,12.72,0,0,1,.55-5.1A4,4,0,0,1,71.67,53c.19.06.26-.22.08-.29Z"/><path d="M71.31,53.16A4.88,4.88,0,0,0,67,55.34c-.73,1.14-1.26,3.37-.19,4.46a.2.2,0,0,0,.34-.14c0-.57-.18-1.08-.2-1.65a4.26,4.26,0,0,1,.52-2.18,4.37,4.37,0,0,1,3.8-2.16.26.26,0,0,0,0-.51Z"/><path d="M70,53.35c.69-8,8.35-12.44,15.61-13.05,4.82-.41,21.77.22,18.5,8.85-.18.48.59.68.77.21,3.5-9.22-13.17-10.17-18.39-9.92-8,.38-16.66,5.07-17,13.91,0,.32.47.31.5,0Z"/><path d="M102.91,49.24a15.6,15.6,0,0,1,11.48,10.39A15.22,15.22,0,0,1,110,75a.44.44,0,0,0,.19.73l2.67.53-.21-.76L108,80.63a.46.46,0,0,0,.45.77l2.81-.62-.54-.69-2.1,3a.48.48,0,0,0,.54.7l6.06-2.37-.61-.47-.09,1.93a.49.49,0,0,0,.82.34,6.6,6.6,0,0,1,5.52-1.31c.59.13,2,.39,2.22.94.38.93-.45,1.15-1.14,1.72-.31.25-.1.69.21.8L126.53,87l-.29-.71L125.12,88a.48.48,0,0,0,.07.59l3.05,2.45.1-.75-1.75.93a.49.49,0,0,0-.09.76c.26.22,2.1,1.46,2.17,1.79.16.73-.45.91-1,1.39a.48.48,0,0,0,.22.8l2.36.94-.29-.7-2,2.69a.48.48,0,0,0,.29.7l2.71,1-.21-.8L129,101.72a.48.48,0,0,0,.1.75l1.72,1.06.12-.88a2.13,2.13,0,0,0-1.22,3.6l.1-.76-2.13,1.3a.5.5,0,0,0-.17.66c5.76,11.15-4.69,21.34-13.74,26.09-4.93,2.58-10.1,4.72-15.17,7l-8,3.58a22,22,0,0,1-4.83,1.8c-2.53.46-6.25-.88-5.49-4.18.14-.6-.8-.86-.94-.25a4.5,4.5,0,0,0,3.12,5.22c2.6.93,5.37-.31,7.74-1.36,7.53-3.32,15.17-6.55,22.54-10.21,5.93-2.95,11.85-6.79,15-12.82a19.3,19.3,0,0,0,2.24-8.1,14.47,14.47,0,0,0-.5-4.44c-.14-.47-.42-1-.52-1.49-.27-1.31.11-1.23,1.31-2a.49.49,0,0,0,.1-.76l.79-2c.44-.06.44-.68.12-.88l-1.73-1.06.1.76,1.75-1.87a.48.48,0,0,0-.21-.8l-2.72-1,.29.71,2-2.69c.21-.27,0-.6-.29-.71l-2.36-.94.22.81,1.74-1.47a.49.49,0,0,0,0-.69l-2.89-2.38-.1.75,1.74-.93a.48.48,0,0,0,.1-.76c-.43-.35-2-1.34-2.29-1.84-.39-.84,0-1,.44-1.82a.48.48,0,0,0-.29-.71l-4.41-1.59.22.81,2-1.66a.48.48,0,0,0,0-.68,7.55,7.55,0,0,0-10-.37l.82.34.1-1.93a.49.49,0,0,0-.61-.46l-6.06,2.38.54.7,2.09-3c.25-.36-.16-.78-.53-.69l-2.81.63.45.77,4.66-5.13a.47.47,0,0,0-.2-.77l-2.68-.5.2.73c9.25-8.65,5.1-24.51-7.55-26.87-.33-.06-.47.42-.14.5Z"/><path d="M69.8,96.9c-3.64,1.95-7.59,4.08-8.53,8.49a6.22,6.22,0,0,0,4.81,7.49c4.34,1.08,8.54-1.51,12.26-3.38,5.2-2.62,10.72-5.25,16.65-5.49,4.72-.2,9.83,1.38,13.09,4.93,4,4.42,3.54,10.8.22,15.48s-9.21,7-14.78,8c-5.93.95-11.94-.08-17.84.69-3.38.44-5.38,3.23-3.67,6.44,2.42,4.54,8,3.24,12,2,.59-.19.34-1.13-.26-.94-2.7.87-6.07,2-8.79.62a5,5,0,0,1-2.4-2.83c-.76-2.54,1.13-4.07,3.51-4.34,5.08-.56,10.27.17,15.38-.37,7.68-.82,15.95-4,19.28-11.49,3-6.74.2-13.79-6.27-17.07-7.22-3.66-15.23-1.66-22.23,1.5-4.84,2.19-11,7.13-16.57,5.29-4-1.32-4.52-5.76-2.48-9,1.56-2.47,4.38-4.18,6.86-5.61a.21.21,0,0,0-.22-.36Z"/><path d="M61.26,110.63a10.84,10.84,0,0,0,4,9.47.47.47,0,0,0,.77-.45,8.08,8.08,0,0,1,1.47-6.6c.36-.5-.47-1-.83-.48a8.79,8.79,0,0,0-1.53,7.32l.77-.44a11.48,11.48,0,0,1-4.26-8.82.18.18,0,0,0-.36,0Z"/><path d="M78.21,108.63c2.16,4.17,3.39,8,2.25,12.71a.49.49,0,0,0,.81.47,14.4,14.4,0,0,0,4.83-7.41c.65-2.42,1-6-.42-8.21a.29.29,0,0,0-.54.14c.08,2.74.78,5,0,7.81a13.5,13.5,0,0,1-4.59,7l.81.47c1.07-4.46.49-9.83-2.76-13.3-.21-.22-.55.07-.42.33Z"/><path d="M103.14,128.81c-1.9-2.63-6.08-5.56-9.49-5.26-.28,0-.47.45-.16.6,1.53.72,3.22.93,4.76,1.7a26.36,26.36,0,0,1,4.6,3.18c.15.12.42,0,.29-.22Z"/><path d="M90.26,123.94c-3.79.09-7.6.72-11.36,1.18-2.8.34-6.6.14-9.19,1.44a2.89,2.89,0,0,0-1.61,3.65c.73,2.16,3.13,2.75,5.11,3.14.6.12.86-.8.26-.92-1.16-.23-3.9-.59-4.2-2l1.27-3.16a7.56,7.56,0,0,1,1.25-.29c2.18-.41,4.44-.56,6.64-.83,3.95-.48,8-.8,11.9-1.67a.27.27,0,0,0-.07-.53Z"/><path d="M75,128.7c3.59-.18,7.21-.27,10.78-.64l-.45-.45-.06.27a.28.28,0,0,0,.27.47l.3,0a.39.39,0,0,0,.27-.27l.11-.3a.46.46,0,0,0-.44-.57c-3.59.1-7.19.47-10.78.76-.5,0-.51.81,0,.78Z"/><path d="M72.89,125.74a4.21,4.21,0,0,1,0-3.54l-.74.1,1.62,1.6a3.69,3.69,0,0,0,1.43,1.15.34.34,0,0,0,.42-.41,3.74,3.74,0,0,0-1.18-1.42l-1.63-1.59a.47.47,0,0,0-.74.1,4.65,4.65,0,0,0,.24,4.36c.22.38.77,0,.59-.35Z"/><path d="M114.88,93.62c2,1.36,3.75,2.6,4.93,4.78s1.11,4.31,1.38,6.72a.33.33,0,0,0,.64.08c1.68-4.42-2.36-11-6.71-12.17-.36-.11-.54.38-.24.59Z"/><path d="M88.69,133a38.26,38.26,0,0,0,2.63-12.72l-.9.24c2.62,3.6,3,7.29,2.51,11.58-.05.47.66.52.79.11,1.36-4.09,0-8.8-2.46-12.18a.49.49,0,0,0-.9.25,61.7,61.7,0,0,1-2.17,12.58c-.09.33.38.44.5.14Z"/><path d="M68.76,82c-3.78,0-6.85,4.1-7.06,7.63s2.39,8.15,6.14,8.42c.32,0,.37-.39.15-.54-2.87-2-5.53-3.87-5.33-7.88.18-3.84,3.12-5.73,6.21-7.2.21-.1.1-.43-.11-.43Z"/><path d="M82.39,83.29C83.78,80.57,87,82,88.28,84a8.23,8.23,0,0,1,1.2,4,10.15,10.15,0,0,1-2.38,6.7c-.3.4.34.85.68.52a9.82,9.82,0,0,0,1.52-11.4C87.75,81.11,83.19,79,81.72,83c-.14.39.49.65.67.28Z"/><path d="M65.36,88.38a2.23,2.23,0,1,0,.12-.25c-1.39,1.26-.67,3.89,1.41,3.66,1.57-.18,2.15-2.73.5-3.26s-3,1.73-1.38,2.56a1.53,1.53,0,0,0,1.83-.31,1.24,1.24,0,0,0,.18-.3,1.63,1.63,0,0,0,.26-.25,1.27,1.27,0,0,0,.12-1.15c-.71-1.8-3.39.45-1.6,1.44a1.28,1.28,0,0,0,1.86-.94.9.9,0,0,0-1.54-.75c-.51.51-.22,1.57.61,1.38.63-.15,1-1.21.16-1.36a.32.32,0,0,0-.36.47c0-.2,0-.17,0,.1s0,.26-.1.25-.22,0-.22-.21l.29.07a3.7,3.7,0,0,1-.46.68.63.63,0,0,1-.75-.08c-.23-.35.31-.72.62-.7.87.07.47,1.49-.37,1.38-1.13-.14-1.06-1.56-.27-2.09,1.6-1.08,3.34,1.55,1.59,2.61a1.61,1.61,0,0,1-2-2.45c.28-.35-.2-.85-.51-.5Z"/><path d="M83.13,86.25a3,3,0,0,0-2,4.57,3.08,3.08,0,0,0,4.95-.08c1-1.74-.15-4.41-2.28-4.42S80,89,81.43,90.71c1.26,1.49,4,1.38,4.65-.61s-1.49-4.1-3.36-2.68.31,4.43,2.08,3c1.39-1.08.16-3.93-1.54-2.8A1.7,1.7,0,0,0,82.79,90a1.47,1.47,0,1,0,.85-2.47,1.51,1.51,0,0,0-.93,2.4.51.51,0,0,0,.54.22A2.71,2.71,0,0,0,85,88.54c.21-.49-.65-.86-.87-.36a1.83,1.83,0,0,1-1.11,1l.54.22c-.25-.34-.19-1.26.54-.87s-.27,1.27-.57.77.46-1.35.87-.68c.29.48,0,1.25-.67,1.13A.93.93,0,0,1,83.65,88c1.59-.54,2.16,1.83.89,2.56a1.87,1.87,0,0,1-2.69-1.24c-.15-1.49,1.85-2.7,3-1.61a2,2,0,0,1-.13,3.07,2.2,2.2,0,0,1-3-.78,2.46,2.46,0,0,1,1.54-3.27.25.25,0,0,0-.13-.49Z"/><path d="M73.05,84.1a28.17,28.17,0,0,0,3-.27,8.73,8.73,0,0,1,3.76.82l.37-.88a8.43,8.43,0,0,0-8.14.85c-.45.34-.06,1.07.46.78A8.1,8.1,0,0,1,80,84.7c.51.21.87-.65.38-.88-2-.91-5.59-1.75-7.39,0-.11.1,0,.25.11.27Z"/><path d="M74.37,77.78c2.27.09,4.54.14,6.81.17V77c-1.86,0-3.73,0-5.6.07a.48.48,0,0,0,0,1c1.87,0,3.74,0,5.6-.07a.48.48,0,0,0,0-1q-3.41,0-6.81,0a.39.39,0,0,0,0,.77Z"/><path d="M76.56,75.37a5.83,5.83,0,0,1,5.09.19.48.48,0,0,0,.48-.83,5.23,5.23,0,0,0-6.82.4c-.42.44.21,1,.66.66a4.41,4.41,0,0,1,5.68-.23l.48-.83a6.19,6.19,0,0,0-5.85,0c-.37.19-.11.84.28.68Z"/><path d="M63.42,61.26A4.66,4.66,0,0,0,66,66.86l.37-.88-1.06-.2a.49.49,0,0,0-.61.46,3.64,3.64,0,0,0,2.09,3.43.46.46,0,0,0,.46-.79,2.94,2.94,0,0,1-1.58-2.64l-.61.47,1.06.2c.49.1.89-.63.37-.88a4.08,4.08,0,0,1-2.31-4.57.39.39,0,0,0-.75-.2Z"/><path d="M75.76,72.17C74.74,71,73.62,70,72.5,69a29.45,29.45,0,0,0-3.14-2.78c-.41-.27-.77.31-.5.65A30.2,30.2,0,0,0,72.21,70c1,.93,2.08,1.85,3.19,2.68.29.22.58-.23.36-.47Z"/><path d="M70.4,67.88c-3-.13-4.91,3.8-3.91,6.35s5,4.06,7.18,2.13c.31-.26,0-.84-.4-.69-2.07.77-4.66.75-5.8-1.57-1.26-2.59.9-4.75,3.07-5.71.26-.11.1-.5-.14-.51Z"/><path d="M74.65,71.13a20,20,0,0,0-4.09,10.71c0,.62.91.62,1,0a23.29,23.29,0,0,1,3.59-10.35c.18-.28-.26-.64-.47-.36Z"/><path d="M71.61,68.79c-2,0-3.42,2.35-3.06,4.19s2.75,3.81,4.53,2.73a.36.36,0,0,0-.08-.64,15.07,15.07,0,0,1-1.66-.23,3,3,0,0,1-1.88-1.93c-.5-1.78.85-3,2.26-3.73a.21.21,0,0,0-.11-.39Z"/><path d="M89.29,68.46c-1.86,0-1.57,2.37,0,2.81s3.13-.84,4.35-1.5l7.14-3.86-.66-.66a5.06,5.06,0,0,0-.62,1.2c-.12.29.29.44.48.28a3.62,3.62,0,0,0,.89-.9.48.48,0,0,0-.58-.75l-5.15,2.79-2.37,1.3-1.19.65c-1,.9-1.75.61-2.24-.87.25-.09.24-.5-.06-.49Z"/><path d="M88,70.8c-.64,5.29,5,9.59,9.91,7.37,4.66-2.13,5.69-9,1.22-11.91-.4-.27-.84.32-.51.65,3.2,3.23,3.42,8.64-1.45,10.5s-8-2.45-8.72-6.67c0-.28-.42-.17-.45.06Z"/><path d="M89.26,74.49a3.29,3.29,0,0,0,5.31.22c1.16-1.6.59-4.33-1.44-4.9C91.28,69.3,88.93,71,89.41,73c.37,1.56,3.31,3.21,4.34,1.36a.35.35,0,0,0-.39-.51,2.71,2.71,0,0,1-1.7.24,1.94,1.94,0,0,1-1.34-1.24c-.42-1.5,1.57-2.61,2.81-2.06a2.37,2.37,0,0,1,.62,3.56c-1,1.2-3.13.91-4.23,0-.13-.11-.37,0-.26.2Z"/><path d="M91.92,71.41a1.56,1.56,0,0,0-.48,2.25,1.47,1.47,0,0,0,2.23,0,1.41,1.41,0,0,0-.94-2.18,1.28,1.28,0,0,0-1.34,1.62,1.08,1.08,0,0,0,1.86.51,1.53,1.53,0,0,0,.13-2.16,1.43,1.43,0,0,0-2.17.53c-.48.85,0,1.91,1.09,1.62.88-.24,1.81-1.9.54-2.27A1.51,1.51,0,0,0,91,73a.44.44,0,0,0,.31.31,1.6,1.6,0,0,0,1.9-1.46.45.45,0,0,0-.56-.43l-1.16.25.43.74a1.12,1.12,0,0,0-.21-1.77.42.42,0,0,0-.5.06,1,1,0,1,0,1.33,1.44.41.41,0,0,0,.07-.5c-.64-.89-2.33-.45-2.16.75.16,1,2,1.34,2.14.15,0-.3-.34-.36-.52-.22s-.67.29-.78,0,.45-.46.6-.25l.06-.51c-.21.19-.34-.09-.15-.25l-.51.06a.26.26,0,0,1,0,.42.44.44,0,0,0,.43.74l1.15-.25-.55-.42a.71.71,0,0,1-.79.61l.31.31a.62.62,0,0,1,.88-.61l-.2-.26a.6.6,0,0,1-.81.74l.26.2c-.34-.55.7-1.31.92-.67s-.74,1.28-.69.5c.07-1,1.59.16.6.62s-1.41-1-.63-1.48c.27-.18,0-.61-.25-.44Z"/><path d="M92.9,71.38a8.18,8.18,0,0,0-.16,1.21,1.65,1.65,0,0,0,.13,1.08.21.21,0,0,0,.36,0,1.65,1.65,0,0,0,.13-1.08,7,7,0,0,0-.16-1.21.16.16,0,0,0-.3,0Z"/><path d="M96.67,71.23a4.4,4.4,0,0,1,0,2c-.15.57-.55,1-.68,1.6a.34.34,0,0,0,.5.38,2.57,2.57,0,0,0,1-2,3.57,3.57,0,0,0-.4-2.2c-.12-.25-.49-.07-.43.18Z"/><path d="M72,72.22l-.63,1.41a.25.25,0,0,0,.21.37,1.35,1.35,0,0,0,1.37-1.79.31.31,0,0,0-.55-.07c-.28.38-.6.73-.88,1.1a.38.38,0,0,0,.23.55c1.11.2,2-1.4,1-2.11s-2.25.81-1.57,1.75a.44.44,0,0,0,.45.18A1.41,1.41,0,0,0,71.87,71c-1.31-.45-2.25,1.57-1.21,2.39a.41.41,0,0,0,.57,0A3,3,0,0,0,71.78,70a.43.43,0,0,0-.57-.15,2.66,2.66,0,0,0-1.47,2.54.43.43,0,0,0,.3.4,1.24,1.24,0,0,0,1.63-1.32c-.17-1.07-1.19-1.18-1.82-.41-1.44,1.76,1.29,3.62,2.58,1.85.23-.32-.15-.72-.48-.63a1.28,1.28,0,0,0-.48,2.19c1,.71,2.2-.51,1.79-1.52-.17-.4-.89-.41-.84.12l.08.91c0,.38.59.64.79.22l.87-1.81a.42.42,0,0,0-.26-.62A1.58,1.58,0,0,1,72.57,70l-.72.19c.63.59,1.26,1.17,1.9,1.74a.44.44,0,0,0,.62-.62l-1.24-1.41c-.31-.35-.83,0-.74.43a4,4,0,0,1-.93,3.53l.51-.07-1.1-.54c-.49-.24-.92.49-.43.73l1.11.54a.44.44,0,0,0,.51-.06,4.8,4.8,0,0,0,1.18-4.37l-.73.43L73.75,72l.62-.62c-.63-.58-1.27-1.16-1.91-1.72-.21-.19-.67-.16-.72.18a2.44,2.44,0,0,0,1.94,2.81L73.42,72l-.87,1.81.8.21-.08-.91-.84.11c.39,1-1.21.18-.25-.08l-.48-.62a.79.79,0,0,1-1.3,0,.66.66,0,0,1,0-.64.41.41,0,0,1,.18-.27c.28-.3.18-.16-.3.44l.31.4a1.84,1.84,0,0,1,1.06-1.83l-.56-.15a2.19,2.19,0,0,1-.41,2.37h.57c-.42-.33-.08-1.31.46-1s.11,1-.29,1l.44.18c-.13-.18-.07-.76.29-.74s.28.86-.19.78l.22.55c.26-.38.48-.79.75-1.18l-.55-.07a.83.83,0,0,1-.79,1.14l.24.31.5-1.46c.07-.19-.24-.32-.32-.14Z"/><path d="M90.18,77.43c1.16,1.75,3.69,2.37,5.68,2.61a21.71,21.71,0,0,0,9.49-1.38c.11,0,.1-.24,0-.22a53.74,53.74,0,0,1-7.57.82,13.52,13.52,0,0,1-4.37-.71,20.1,20.1,0,0,0-3.15-1.19s-.07,0,0,.07Z"/><path d="M91.17,77.9c3.12,3,8.5,5,12.7,3.11.24-.1.12-.5-.13-.49-4.63.26-8.33.07-12-3.17-.38-.34-.93.2-.56.55Z"/><path d="M102.17,72.33a4.2,4.2,0,0,0,3-.47c.75-.37,1.89-1.06,1.95-2a.28.28,0,0,0-.35-.26c-.74.22-1.24,1-1.94,1.38a10.08,10.08,0,0,1-2.64.8.28.28,0,0,0,0,.53Z"/><path d="M102.85,72.92a13.1,13.1,0,0,0,2,0,10.77,10.77,0,0,0,1.8-.19.4.4,0,0,0-.1-.79,26.05,26.05,0,0,0-3.77.36c-.4.09-.28.64.09.67Z"/><path d="M102.05,72.51a14.77,14.77,0,0,0,2.28,1.89A8.09,8.09,0,0,0,106.75,76a.31.31,0,0,0,.35-.46,7.78,7.78,0,0,0-2-1.77A16.78,16.78,0,0,0,102.48,72a.35.35,0,0,0-.43.55Z"/><path d="M71,96.38c-.42.84-.78,1.7-1.15,2.57a4.76,4.76,0,0,0-.71,2.19.31.31,0,0,0,.52.21,4.73,4.73,0,0,0,1-2.06c.32-.88.67-1.76.94-2.66a.33.33,0,0,0-.6-.25Z"/><path d="M75.14,95.5c-.78,2.12-1.48,4.27-2.21,6.41-.19.58.73.83.92.25.7-2.14,1.42-4.29,2.07-6.45.14-.5-.6-.69-.78-.21Z"/><path d="M64.34,76.93c-.83-1.35-2-2.42-2.9-3.75a18.2,18.2,0,0,1-2.21-5l-.58.58,2.76,1.1a.49.49,0,0,0,.59-.6l-3.91-11-.71.54,1.46.93c.45.28.84-.26.66-.66-1.75-3.94,2.14-8.29-.66-12l-.55.72,2.37.85-.11-.87-.8.58a.37.37,0,0,0,.37.64l.91-.4c.42-.18.22-.74-.11-.87l-2.37-.87c-.38-.14-.8.38-.55.71,2.64,3.52-1.08,8.1.67,12l.66-.66L57.87,58a.49.49,0,0,0-.71.54l3.91,11,.6-.59L58.9,67.86c-.34-.14-.67.25-.58.57.92,3.12,2.72,7.21,5.77,8.75.16.08.36-.09.25-.25Z"/><path d="M157,53c-1-1.59-1.38-2.31-.69-4.06a.48.48,0,0,0-.34-.58l-2.48-.82.29.71,1.45-2.06a.49.49,0,0,0-.28-.71l-2.52-.81.21.81L163,35.39a.49.49,0,0,0-.47-.81l-13.81,2.51.47.81,4.84-6.26a.48.48,0,0,0-.47-.8l-9.46,1.41.55.71,2.1-3.05a.49.49,0,0,0-.55-.71l-5,1.34.37.89a19.59,19.59,0,0,0,8-10.32.49.49,0,0,0-.6-.6c-3.07,1.21-6.12,2.48-9.22,3.63-1.88.7-4.28,1.05-5.11-1.18-.73-2,1.12-3.9,2.32-5.22a.48.48,0,0,0-.47-.8L126,18.74l.6.6,1.72-4.68c.14-.38-.27-.65-.6-.6l-5.4.92.54.71,1.41-3.22a.49.49,0,0,0-.54-.71L116.58,13l.59.59L118.65,8c.1-.38-.35-.8-.71-.55-2.78,2-4.8,4.69-7.45,6.8a9.6,9.6,0,0,1-5.88,2.47,4.81,4.81,0,0,1-5-4.64c0-.63-.91-.61-1,0-.34,3.86-5.4,2.79-5-.64.06-.45-.54-.58-.82-.34l-3.79,3.24.81.22L89,11.07a.49.49,0,0,0-.88-.11,8.66,8.66,0,0,1-10.67,3,.5.5,0,0,0-.58.08c-.71.82-1.33,2.39-2.24,1.3a.48.48,0,0,0-.47-.13,13.16,13.16,0,0,1-12-1.45.49.49,0,0,0-.71.55l3.21,14.07.47-.61-2-.25a.49.49,0,0,0-.34.83A6.26,6.26,0,0,1,65.19,33c0,1.09-.43,4.46-1.68,4.53a.48.48,0,0,0-.46.61l.42,3,.71-.55L62.1,39.31a.49.49,0,0,0-.73.41l-1,8.12c-.07.61.9.61,1,0l1-8.12-.72.42,2.08,1.27c.4.24.76-.16.71-.55l-.42-3-.47.61c2.13-.12,2.68-1.7,2.63-3.52-.08-2.94-.22-5.3-2.63-7.36l-.35.83,2,.24c.33,0,.52-.34.46-.61L62.36,14l-.71.55a14.06,14.06,0,0,0,6.26,2.35,13.75,13.75,0,0,0,3.51,0c1.25-.18,2.49-1,3.43.15a.48.48,0,0,0,.68,0c.48-.55,1.25-1.92,2-2,.3,0,1,.35,1.34.43a9.29,9.29,0,0,0,3.75.08A9.6,9.6,0,0,0,89,11.44l-.88-.11.9,3.46a.48.48,0,0,0,.8.22l3.79-3.25-.82-.34c-.63,5,6.46,5.6,6.89.64h-1c-.07,3.6,3.42,5.92,6.81,5.54,5.59-.62,8.69-6.36,12.93-9.33l-.71-.55-1.48,5.63a.49.49,0,0,0,.59.59L124,12.69l-.55-.71L122,15.2a.49.49,0,0,0,.55.71L128,15l-.6-.59-1.71,4.68c-.14.38.26.65.59.6l10.5-1.81-.47-.81c-1.83,2-4.58,6.05-1.31,8.22,1.42.95,3.23.45,4.71-.08,3.21-1.16,6.37-2.5,9.55-3.75l-.6-.6a18.42,18.42,0,0,1-7.57,9.74.49.49,0,0,0,.37.89l5.06-1.35-.55-.71-2.1,3c-.27.39.17.77.55.71l9.45-1.41-.47-.81-4.84,6.26a.48.48,0,0,0,.47.8l13.82-2.51-.47-.81L151.92,44.83a.49.49,0,0,0,.21.81l2.52.82-.29-.72L152.9,47.8a.49.49,0,0,0,.29.71c.48.16,1.68.31,1.89.89.09.26-.54,1.18-.53,1.4,0,.87,1.26,2,1.73,2.64.29.4,1,0,.68-.4Z"/><path d="M132.22,73.93c.67-1.86.84-3.84,1.47-5.72a22,22,0,0,1,2.95-5.84A18.14,18.14,0,0,1,147.46,55c8.67-1.83,17.36,3.13,19.19,12,1.9,9.19-3,17.74-8.78,24.44-3.06,3.52-6.41,6.78-9.68,10.11s-8.2,8.88-13.32,5.35c-.51-.35-1,.49-.48.84,7.1,4.9,14.54-5.56,18.76-9.85,5.77-5.89,11.83-12.32,14-20.5,1.78-6.71.9-14.74-4.56-19.55a17.9,17.9,0,0,0-18.73-2.61,19.86,19.86,0,0,0-8.6,7.63c-1.94,3.05-3.91,7.4-3.17,11.08,0,.07.1.06.12,0Z"/><path d="M128.74,78.12c2.06-1.32,4.08-2.71,6.09-4.09l-.57-.75-4.78,5.26a.49.49,0,0,0,.21.8l5.77,1.41-.11-.89-3.9,2.07a.5.5,0,0,0,.12.89l3.89,1.5-.21-.81-3,2.51a.49.49,0,0,0,.22.81l5.05,1.06-.11-.89-3.21,1.91a.49.49,0,0,0,.24.9,8.28,8.28,0,0,0,7.06-2.49c.44-.44-.25-1.12-.69-.68l-6.32,6.3a.49.49,0,0,0,.22.81l4.6.89-.21-.81-4.07,4.46a.5.5,0,0,0,.1.76l3.5,1.87.24-.9a2.07,2.07,0,0,0-2.17,2.75c.61,1.89,2.81,2.22,4.48,2.38l-.24-.9-5.71,3.22a.48.48,0,0,0,.48.83c1.91-1.06,3.81-2.14,5.72-3.21a.49.49,0,0,0-.25-.91,6.17,6.17,0,0,1-1.55-.22c-1.15-.17-1.41-1.16-.76-3a.49.49,0,0,0,.25-.9l-3.5-1.88.1.76,4.06-4.46a.49.49,0,0,0-.21-.81L135,92.82l.22.81,6.32-6.31-.69-.68a7.34,7.34,0,0,1-6.37,2.21l.24.9,3.22-1.91a.49.49,0,0,0-.12-.89l-5.06-1.06.22.81,3-2.5a.49.49,0,0,0-.21-.81l-3.89-1.51.11.89,3.89-2.07a.49.49,0,0,0-.11-.89L130,78.41l.21.81L134.93,74c.34-.38-.11-1.07-.58-.75-2,1.42-4,2.83-6,4.3-.36.27,0,.88.37.62Z"/><path d="M92.07,103c4.7,6,5.65,13,.51,19.11-.38.45.23,1.08.64.65,5.22-5.41,5.5-15.4-.94-20-.18-.12-.33.14-.21.28Z"/><path d="M158,56.76c-13.13-1.61-24.6,9.83-26.28,22.22-.08.61.85.88.94.26a25.29,25.29,0,0,1,7.87-15.37c4.91-4.5,11-6.13,17.47-6.69a.21.21,0,0,0,0-.42Z"/><path d="M152.51,58.12c1.91.93,1.43,3.19,1.91,4.85A12,12,0,0,0,156,66.12c1.28,2,5.59,7.42,2.46,9.63a.32.32,0,0,0,.17.6l.42,0a.46.46,0,0,0,.4-.24c1.93-3.16.09-6.51-1.76-9.23a15.84,15.84,0,0,1-2.7-6.57c-.26-1.37-.67-2.42-2-3-.53-.23-1,.52-.46.78Z"/><path d="M159.29,79.5c-2.44.84-3.81,3.09-4.76,5.37-1.89,4.5-2.53,8.51-7.75,10-.29.08-.34.58,0,.63,2.74.41,5-2,6.23-4.2,2.19-4,2.44-8.52,6.49-11.34.23-.17.1-.6-.21-.5Z"/><path d="M139.86,90.75c2.08-.18,4.44.73,5.11,2.91s-.81,4.19-2.73,5.08l.62.17-.28-.38a.29.29,0,0,0-.54.14l0,.46a.46.46,0,0,0,.57.44,5.11,5.11,0,0,0,3.3-6.17,4.81,4.81,0,0,0-6.1-3.13c-.23.09-.23.51.07.48Z"/><path d="M146.76,65.15c.84,2.84,7,4.28,5.5,7.68l.64-.16c-.22-.11-.41-.19-.64-.28s-.35.19-.27.35a5,5,0,0,0,.27.57.47.47,0,0,0,.81,0c2-3.92-4.13-5.9-5.71-8.41a.33.33,0,0,0-.6.25Z"/><path d="M148.83,67.8A26.24,26.24,0,0,0,147,70a5,5,0,0,0-1.37,2.21c0,.23.26.32.43.24.72-.33,1.13-1.26,1.56-1.9a26.13,26.13,0,0,0,1.57-2.5c.12-.22-.17-.47-.35-.28Z"/><path d="M59.63,81.34c-2,3.19-2.78,7.68-.94,11.12.2.38.77.11.67-.29-.92-3.74-1.11-7,1-10.43.27-.44-.42-.84-.69-.4Z"/><path d="M55.08,96.51l-.33,2.76a11.71,11.71,0,0,0-.24,2.76.3.3,0,0,0,.58.08,11,11,0,0,0,.37-2.63c.11-1,.22-2,.32-3,0-.44-.64-.43-.7,0Z"/><path d="M58.19,100.37c-.22.76-.45,1.53-.68,2.29a6.44,6.44,0,0,0-.5,2.1.31.31,0,0,0,.58.15,6.71,6.71,0,0,0,.71-2c.21-.77.43-1.53.65-2.3a.39.39,0,0,0-.76-.21Z"/><path d="M55,110.37c-3.66,5-4.88,14.25.09,19a.33.33,0,0,0,.51-.4c-1.46-3.1-2.86-5.56-2.88-9.11a15.35,15.35,0,0,1,2.9-9.09c.27-.38-.35-.73-.62-.36Z"/><path d="M49.32,105.26a19,19,0,0,0-4.66,11c-.31,3.77.28,8.73,2.84,11.7a.34.34,0,0,0,.57-.33c-1.38-3.78-2.81-6.85-2.59-11a20.36,20.36,0,0,1,4.1-11.21c.11-.15-.14-.34-.26-.2Z"/><path d="M38.49,102.51a24.1,24.1,0,0,0-5,14.89A23.51,23.51,0,0,0,34.94,125a23.24,23.24,0,0,0,1.37,3.06c.52,1,2.8,3.44,2.58,4.49a.35.35,0,0,0-.63-.27c-.74,1,.59,2,1.43,1.05.51-.56.31-1.13.08-1.75-.56-1.49-2.07-2.89-2.83-4.36a23,23,0,0,1,2.25-24.33c.32-.43-.39-.83-.7-.42Z"/><path d="M63.43,127.15a3.46,3.46,0,0,0-1.64,3.59c.17,1.09,1,2.6,2.23,2.67a.26.26,0,0,0,.22-.39c-.57-.76-1.38-1.12-1.7-2.11a3.52,3.52,0,0,1,1.09-3.5.17.17,0,0,0-.2-.26Z"/><path d="M59.31,128.07c-1.29,2-2.18,6.33.13,8,.18.13.36-.08.33-.26-.16-1.22-.9-2.22-1-3.52a7.67,7.67,0,0,1,.83-4,.18.18,0,0,0-.3-.18Z"/><path d="M65.74,140.56a3.9,3.9,0,0,0,1,3.88c.87.85,2.65,1.61,3.77.83a.27.27,0,0,0-.07-.48c-1-.21-2,0-2.91-.71a3.58,3.58,0,0,1-1.37-3.41c0-.25-.32-.36-.38-.11Z"/><path d="M64.1,148.47c2,2.17,6.76,3.87,9.31,1.76a.29.29,0,0,0-.2-.49c-1.57,0-3,.53-4.59.24a10.94,10.94,0,0,1-4.24-1.88c-.23-.16-.46.18-.28.37Z"/><path d="M152.45,98a64.73,64.73,0,0,0,4.29,5.9l.55-.71a4.12,4.12,0,0,0-4.61,2.26,9,9,0,0,0-.89,3.17c-.14,1-.09,6.14-1.63,5.86a.48.48,0,0,0-.37.88l4,2.85.25-.9a4.45,4.45,0,0,0-3.86,2,4.15,4.15,0,0,0-.69,2.07c0,1,1.07,3.2-.23,3.79a.48.48,0,0,0-.24.41c-.19,2-.4,4-.54,5.93-.05.6.85.58.92,0,.18-1.51,0-3.51.49-4.94.2-.58.6-.89.82-1.42a3.16,3.16,0,0,0,.17-1.55c-.07-.86-.55-1.8-.36-2.69a3.55,3.55,0,0,1,3.52-2.65.49.49,0,0,0,.24-.9l-4-2.84-.38.88c1.64.3,2.15-.88,2.39-2.33.46-2.76,0-10,4.74-9,.37.08.82-.35.55-.71a66.47,66.47,0,0,0-4.63-5.8.32.32,0,0,0-.5.39Z"/><path d="M154,125.16a2.21,2.21,0,0,1,.22,1.16,1.12,1.12,0,0,1-.88.94.48.48,0,0,0-.21.8l1.08,1-.12-.47c-.09.3-.18.6-.26.9a.48.48,0,0,0,.92.25c.09-.29.18-.59.26-.9a.46.46,0,0,0-.12-.46l-1.08-1-.21.8a2,2,0,0,0,1.5-1.61c.1-.61-.11-1.55-.79-1.72a.26.26,0,0,0-.31.31Z"/><path d="M156.43,114.83a7.6,7.6,0,0,0,1.06,2.18.39.39,0,0,0,.66-.28,8.1,8.1,0,0,0-.9-2.38c-.24-.56-1.06-.08-.82.48Z"/><path d="M159.52,100.23c.49.4,1.11,1.13,1.76,1.23.22,0,.51-.15.41-.41-.25-.64-1-1-1.54-1.45s-1.08.26-.63.63Z"/><path d="M168.67,81.74c-1,3.24-3,5.52-5.37,7.86a.29.29,0,0,0,.35.45c2.89-1.74,4.78-5,5.74-8.11a.37.37,0,0,0-.72-.2Z"/><path d="M171.64,80a9.12,9.12,0,0,1,.33,5.32c-.54,1.92-1.77,3-3.13,4.3-.23.22,0,.67.32.55,3.61-1.35,5.11-7.32,2.84-10.32a.2.2,0,0,0-.36.15Z"/><path d="M165.67,58.48c1,1.92,2.46,3.39,3.27,5.45a16.16,16.16,0,0,1,1,6.28c0,.6.9.6.93,0,.23-3.89-1.14-10-5-12a.18.18,0,0,0-.24.24Z"/><path d="M168.36,56.8a15.37,15.37,0,0,1,3.72,6.44c.59,2.42-.06,4.44-.06,6.83a.28.28,0,0,0,.51.14c2.78-4-.17-11.34-3.83-13.85-.27-.19-.53.21-.34.44Z"/><path d="M164.6,42.18a70.85,70.85,0,0,0-5,5.09.39.39,0,0,0,.55.55,69.24,69.24,0,0,0,4.8-5.31c.2-.22-.12-.54-.33-.33Z"/><path d="M158,33.42c2.66.17,5.32.35,8,.47l-.33-.81c-1.41,1.4-3.22,2.78-4.24,4.48a.31.31,0,0,0,.42.43c1.7-1,3.09-2.84,4.49-4.24A.47.47,0,0,0,166,33c-2.66,0-5.32.06-8,.11-.23,0-.22.34,0,.36Z"/><path d="M149.47,23.49c-.35.66-.66,1.36-1,2.05a5.42,5.42,0,0,0-.62,1.77.3.3,0,0,0,.51.21,5.18,5.18,0,0,0,.83-1.68c.27-.7.55-1.41.77-2.13a.29.29,0,0,0-.53-.22Z"/><path d="M140.33,16.64c.29,1.67-.46,2.77-1.18,4.16-.1.21.13.51.34.35,1.37-1,1.53-3.07,1.2-4.6-.05-.24-.4-.14-.36.09Z"/><path d="M67.53,13.39l.63.28c.18.08.35-.18.16-.29l-.6-.33c-.22-.12-.42.24-.19.34Z"/><path d="M63.5,8.78c2.34.86,4.7,1.66,7,2.55.5.19.75-.65.23-.81C68.37,9.82,66,9,63.64,8.29c-.32-.09-.43.38-.14.49Z"/><path d="M83.45,11.74l3.25-1.55A11.52,11.52,0,0,0,89.52,8.7c.23-.2,0-.53-.28-.48a12.29,12.29,0,0,0-2.89,1.36l-3.2,1.65c-.34.17,0,.67.3.51Z"/><path d="M101.09,12.71a4.42,4.42,0,0,0,4,1.9c1.29,0,3.34-.67,3.7-2.08a.31.31,0,0,0-.45-.34c-1.12.58-1.75,1.42-3.13,1.57a5.08,5.08,0,0,1-3.86-1.22c-.11-.1-.32,0-.22.17Z"/><path d="M115.44,6c.91-1.18,2.7-3.32,4.33-1.92,1.14,1,.43,2.45.72,3.68a.36.36,0,0,0,.65.08c.77-1.41.26-4-1.26-4.75-2.1-1-3.91.94-5.06,2.43-.27.35.34.83.62.48Z"/><path d="M108.44,28.35c.8-.42.44-.07,1-.49.31-.22.6-.46.9-.69l-.62-.25c.23.55.45,1.11.68,1.67a.48.48,0,0,0,.69.28l2.28-1.38-.65-.65c-.47,1.1-1,2.19-1.39,3.31-.19.49.64.85.87.36.5-1.08.93-2.2,1.39-3.3.17-.4-.37-.74-.7-.54l-2.27,1.38.64.17c-.25-.54-.51-1.08-.76-1.63a.43.43,0,0,0-.67-.09c-.29.25-.59.48-.87.74a6.73,6.73,0,0,0-.7.89.14.14,0,0,0,.17.22Z"/><path d="M120.87,29.26l3.41-2.6-.71-.54a22.1,22.1,0,0,0-1.25,4.55.41.41,0,0,0,.76.21,10.57,10.57,0,0,0,.72-2.14l.7-2.37c.11-.37-.37-.8-.71-.54l-3.41,2.59c-.49.38,0,1.22.49.84Z"/><path d="M131.82,43.55c1.39-.32,2.76-.68,4.14-1.06l-.41-.7c-.7.62-1.34,1.3-2,2a.46.46,0,0,0,.45.77l2.7-.49-.47-.8c-.49.52-1,1.05-1.47,1.58s.25,1.12.67.68,1-1.06,1.48-1.58a.49.49,0,0,0-.46-.81l-2.69.53.45.77c.65-.66,1.32-1.32,1.93-2,.26-.3,0-.84-.4-.7-1.37.44-2.71.89-4.05,1.4a.24.24,0,0,0,.13.47Z"/><path d="M134.46,51.84c1.94-.21,3.87-.53,5.81-.82l-.37-.86c-1.13.7-2.25,1.42-3.38,2.13a.48.48,0,0,0,.24.89l1.94-.09-.24-.9a20.43,20.43,0,0,0-3.35,2.21c-.28.26,0,.81.39.66a21,21,0,0,0,3.44-2,.49.49,0,0,0-.24-.9l-1.94.1.24.89c1.13-.71,2.26-1.41,3.38-2.14a.47.47,0,0,0-.36-.85c-1.89.34-3.78.67-5.65,1.08-.35.08-.28.68.09.64Z"/><path d="M116.05,47.86,118,45.73l-.79-.45-.34,2.33a8.44,8.44,0,0,0-.22,2.12.4.4,0,0,0,.77.11,8.24,8.24,0,0,0,.39-2.15l.31-2.16c.06-.42-.44-.85-.79-.46l-1.93,2.13c-.4.44.25,1.1.66.66Z"/><path d="M103.52,41a33.14,33.14,0,0,0,3.11-2.45l-.75-.44c-.11.52-.21,1-.32,1.56a.48.48,0,0,0,.69.53c1-.51,2-1,3-1.56l-.7-.54-.66,2.77a8.41,8.41,0,0,0-.45,2.47.36.36,0,0,0,.66.18,8.53,8.53,0,0,0,.71-2.4l.66-2.77a.48.48,0,0,0-.7-.54l-2.94,1.58.69.53.27-1.57a.45.45,0,0,0-.75-.43,30.57,30.57,0,0,0-2.79,2.67c-.19.21,0,.58.32.41Z"/><path d="M82.27,36.63a8.58,8.58,0,0,0-.46-3l-.69.53,2.25,1.15c.29.14.76,0,.72-.42l-.23-2.37-.61.47,4.4,1.38c.59.19.85-.74.26-.93a3.7,3.7,0,0,0-1-.21c-.37,0-.44.49-.18.66a3.69,3.69,0,0,0,1,.48l.26-.93L83.5,32a.49.49,0,0,0-.61.46l.24,2.37.72-.41-2.26-1.13a.48.48,0,0,0-.69.53,8.78,8.78,0,0,0,.94,2.85c.1.14.4.16.43-.06Z"/><path d="M74.28,32.85a11.48,11.48,0,0,0,1-3.81l-.84-.11a3.91,3.91,0,0,0,1.86,3,.48.48,0,0,0,.72-.41l.31-2.66-.72.42A21.07,21.07,0,0,0,79.36,31c.41.2.89-.31.51-.66a21.48,21.48,0,0,0-2.77-1.94.48.48,0,0,0-.72.41l-.31,2.66.71-.41a3.22,3.22,0,0,1-1.5-2.28.43.43,0,0,0-.83,0,12.1,12.1,0,0,0-.38,4,.11.11,0,0,0,.21,0Z"/><path d="M89.13,28a10.84,10.84,0,0,0,.57-3.41h-.88A2.4,2.4,0,0,0,91.09,27a2.43,2.43,0,0,0,2.37-2.36h-1c.11,1.54.12,3.13.37,4.66.08.51.88.37.89-.13,0-1.5-.19-3-.3-4.53a.48.48,0,0,0-1,0,1.4,1.4,0,0,1-2.8-.06.44.44,0,0,0-.88,0A10.35,10.35,0,0,0,88.87,28c0,.11.21.15.26,0Z"/><path d="M139.33,38.11a24.09,24.09,0,0,0,4.78-.44l-.4-.69c-.35.66-.69,1.34-1,2a.48.48,0,0,0,.53.7l1.4-.42-.53-.7-1.83,3.07a.49.49,0,0,0,.55.71,2.59,2.59,0,0,0,.93-.41.27.27,0,0,0-.06-.49,2.8,2.8,0,0,0-1-.05l.42.73,1.81-3.08a.48.48,0,0,0-.54-.7l-1.4.43.54.69c.34-.67.68-1.34,1-2a.47.47,0,0,0-.52-.68,24.76,24.76,0,0,0-4.72.9.23.23,0,0,0,.06.45Z"/><path d="M144.64,46.44c1.61-.38,3.2-.81,4.8-1.22L149,44.5c-.74.69-1.48,1.39-2.2,2.1a6.31,6.31,0,0,0-1.6,1.86c-.09.21.18.47.39.39a6,6,0,0,0,1.88-1.57c.72-.72,1.44-1.44,2.14-2.17a.43.43,0,0,0-.42-.72c-1.58.49-3.16,1-4.73,1.46a.31.31,0,0,0,.16.59Z"/><path d="M63,52.75l-1.83-.19a.39.39,0,0,0-.36.48,5.52,5.52,0,0,0,.69,1.8c.2.24.59,0,.6-.25a5.36,5.36,0,0,0-.57-1.75l-.36.47L63,53.18a.22.22,0,0,0,0-.43Z"/><path d="M63.64,46.71a16.37,16.37,0,0,0,2.53-.11c.29-.05.29-.55,0-.59a16.37,16.37,0,0,0-2.53-.11.41.41,0,0,0,0,.81Z"/><path d="M81.72,49.83a48.31,48.31,0,0,0,5.51-.29.18.18,0,0,0,0-.35,48.35,48.35,0,0,0-5.51.33c-.19,0-.2.31,0,.31Z"/><path d="M86.6,47.74a86.71,86.71,0,0,0,9.25-.91c.11,0,.08-.2,0-.2a86.67,86.67,0,0,0-9.22.91c-.13,0-.13.21,0,.2Z"/><path d="M77.74,48.09a29.77,29.77,0,0,0-3.41.28c-.15,0-.11.27,0,.27a29.31,29.31,0,0,0,3.37-.31c.15,0,.15-.25,0-.24Z"/><path d="M91.45,65a67.93,67.93,0,0,0,8-3.39c2.67-1.23,7.44-4.72,9.9-1.91.23.26.58,0,.53-.31-.44-2.6-3.68-1.9-5.39-1.16a99.25,99.25,0,0,0-13.18,6.35c-.21.13-.08.51.18.42Z"/><path d="M103.17,48.61c1.26,1.18,2.88,1.93,4.2,3.07a17.64,17.64,0,0,1,3.76,4.53,18.15,18.15,0,0,1,1.72,13.48.48.48,0,0,0,.92.25,18.87,18.87,0,0,0-1.44-13.56c-1.68-3.2-5.2-7.5-9-8-.13,0-.27.14-.14.25Z"/><path d="M110.59,53.88a19.45,19.45,0,0,1,3,7.27c.49,2.73,0,5.13-.31,7.83a.29.29,0,0,0,.53.14c2.4-4.88.37-11.57-3.06-15.4a.13.13,0,0,0-.2.16Z"/><path d="M114.3,64c-.63,4.5-2,8.42-5.29,11.72a.45.45,0,0,0,.43.74c1-.16,2.09-.33,3.14-.52l-.54-.7L107.93,81a.48.48,0,0,0,.42.72l2.38-.3-.42-.72L109,83a.49.49,0,0,0,.54.71,15.48,15.48,0,0,0,5.83-3.32l-.81-.48L114,82.63c-.13.61.81.87.93.26l.56-2.69a.49.49,0,0,0-.81-.47,14.47,14.47,0,0,1-5.4,3.08l.54.71,1.3-2.3c.16-.28,0-.77-.42-.72l-2.38.3.41.72,4.1-5.78c.27-.38-.17-.77-.54-.71-1,.19-2.08.38-3.11.59l.43.74a16.91,16.91,0,0,0,5-12.3c0-.2-.34-.27-.37,0Z"/><path d="M132.1,79.45c1.17-2.33,1.43-5.07,2.55-7.47a26,26,0,0,1,5.2-7.39c4.4-4.33,9.83-6.34,15.83-7.27.49-.07.37-.88-.12-.86a25.65,25.65,0,0,0-16.39,7.45,26,26,0,0,0-5.34,7.59c-1.08,2.31-2.38,5.33-1.92,7.92a.1.1,0,0,0,.19,0Z"/><path d="M151.58,58c2,5.68,4.6,11.2,6.93,16.77.23.57,1.17.32.93-.26-2.35-5.6-4.52-11.33-7.14-16.81a.39.39,0,0,0-.72.3Z"/><path d="M158.79,72.56a2.74,2.74,0,0,1-.31-3.11l-.82-.11.65,1.91.87-.24c-.34-.89-.68-1.78-1-2.67-.21-.53-1-.33-.88.25l1.15,4.14.9-.25q-2.53-6.78-5.06-13.58l-.71.54c1.79,1.13,3.15-1.08,1.4-2.21-.47-.3-.89.44-.43.75l-.48.63a.49.49,0,0,0-.71.55q2.55,6.78,5.09,13.57a.47.47,0,0,0,.9-.25l-1.17-4.14-.88.25c.35.88.69,1.77,1,2.66.21.53,1.07.31.87-.24l-.65-1.9a.45.45,0,0,0-.82-.11,2.82,2.82,0,0,0,.76,3.88c.19.13.45-.14.32-.32Z"/><path d="M133.17,72.85c-.29-7.95,4.82-16,12.9-17.63a16.61,16.61,0,0,1,19,11.7c2.5,9.31-2.36,18.38-7.76,25.62-4.78,6.41-11,15.76-19.94,15.58a.45.45,0,0,0,0,.9c7.55.38,12.91-6.06,17.19-11.41C159.73,91.19,165,84.32,166.34,76c1.12-6.88-.72-14.06-6.47-18.37a17.31,17.31,0,0,0-17.38-2.12,17.11,17.11,0,0,0-9.68,17.39c0,.2.37.15.36-.05Z"/><path d="M156.76,56.38c-.17-2.57-.18-5.15-.35-7.73a.45.45,0,0,0-.43-.43l-2.6-.31.38.66,1.37-2.15a.44.44,0,0,0-.38-.66,1.67,1.67,0,0,1,.81-2.09l.72-.7,2.51-2.41,4.66-4.49a.47.47,0,0,0-.21-.78,33.88,33.88,0,0,0-14.64,1.06l.47.81,4.48-5.45a.49.49,0,0,0-.47-.81,82.75,82.75,0,0,0-9.28,1.54.38.38,0,0,0,.1.74,86.46,86.46,0,0,0,9.44-1.34l-.47-.81-4.48,5.44c-.28.35,0,1,.47.81A33.11,33.11,0,0,1,163,36.19l-.21-.78-5,4.85c-1.28,1.24-3,2.46-4,3.91-.71,1-.68,2.68,1,2.47l-.39-.66L153,48.13a.44.44,0,0,0,.38.66c2.2.25,2.21.65,2.42,2.76.16,1.61.42,3.22.55,4.83,0,.26.43.27.41,0Z"/><path d="M135.53,25.29A4.75,4.75,0,0,1,134,21.54a4.26,4.26,0,0,1,.58-2c.28-.47.66-.74.75-1.28,0-.15-.06-.34-.24-.32-1.43.12-2,2.44-2,3.6a5,5,0,0,0,2,4.3c.32.24.71-.28.43-.55Z"/><path d="M116,9.45c-.1.58-.16,1.16-.22,1.75a2.48,2.48,0,0,0,.08,1.55.26.26,0,0,0,.42.05,2.15,2.15,0,0,0,.34-1.37c0-.62.09-1.25.09-1.88,0-.4-.64-.51-.71-.1Z"/><path d="M99.32,15.68c-.09-.81-.25-2-.32-2.72,0-.44-.71-.46-.69,0,0,2.28-3,1.11-3.91-.11a9.47,9.47,0,0,1-.78-1.6c-.17-.38-.8-.19-.78.21l-3.69-.18a.44.44,0,0,0-.81-.33,10.19,10.19,0,0,1-5.55,3.76c-1.94.52-3.69,0-5.62.16a4.27,4.27,0,0,0-4.06,4.46c0,.35.57.47.65.09.66-3,2.43-3.65,5.38-3.58a12.89,12.89,0,0,0,4.24-.37,11.11,11.11,0,0,0,5.72-4.08l-.8-.34a2.76,2.76,0,1,0,5.38.41l-.78.21c.72,1.6,1.82,3.72,3.89,3.58A2.21,2.21,0,0,0,99,13l-.68.09c.23.89.42,1.78.65,2.67,0,.19.37.16.35,0Z"/><path d="M66.83,17.29A51.9,51.9,0,0,0,61,14.13c-.34-.17-.83.11-.69.53l2.51,7.43A31.11,31.11,0,0,1,64,25.8c.34,1.62.17,1.41-1.45,1.7-.44.08-.42.66-.11.88a6.19,6.19,0,0,1,.06,10.37.49.49,0,0,0,.12.88l1,1.08a.39.39,0,0,0,.76-.1A1.71,1.71,0,0,0,62.9,38.7l.11.88a7.16,7.16,0,0,0-.06-12l-.12.88L65.24,28a.48.48,0,0,0,.34-.59c-1.47-4.33-2.93-8.66-4.41-13l-.69.53a54.87,54.87,0,0,0,6.17,2.77c.26.09.39-.28.18-.42Z"/><path d="M69.68,53.13c1.06-7.8,8.24-11.93,15.37-13.26,3.9-.72,8.18-.72,11.8,1.07,3.31,1.63,5,4.18,6.28,7.5.14.37.79.37.75-.1-.7-8.07-10.9-10.5-17.4-9.66-7.89,1-16.84,5.45-17.41,14.37,0,.34.56.43.61.08Z"/><path d="M69.35,54.06a5.21,5.21,0,0,0-2.63,2.42c-.45.85-.93,2.21-.46,3.11a.25.25,0,0,0,.46-.06c.32-.94.17-1.9.65-2.84a5.44,5.44,0,0,1,2.19-2.27c.24-.13,0-.46-.21-.36Z"/><path d="M66.34,65.67a2.11,2.11,0,0,1-2.27-3.27,3.46,3.46,0,0,1,2.81-1.22c2.08.09,3.72,2,5,3.41.26.29.69-.15.43-.44-2-2.24-5.53-5.27-8.46-2.47A2.56,2.56,0,0,0,66.43,66a.18.18,0,0,0-.09-.34Z"/><path d="M109,59.66a22.25,22.25,0,0,0-15,4.08c-.16.12,0,.38.16.27A24.52,24.52,0,0,1,109,59.9c.15,0,.15-.22,0-.24Z"/><path d="M93.78,63.34c4-2.58,8-3,12.5-3.88.27-.05.17-.42-.06-.45-4.4-.47-9,1.73-12.56,4.11-.13.09,0,.3.12.22Z"/><path d="M106.15,59.48a8.23,8.23,0,0,0,2.26.23.19.19,0,0,0,0-.35,8.36,8.36,0,0,0-2.18-.36c-.31,0-.45.43-.13.48Z"/><path d="M106.5,59.29a3.53,3.53,0,0,0,1.28.23.12.12,0,0,0,.06-.23,3.56,3.56,0,0,0-1.24-.37c-.24-.06-.35.31-.1.37Z"/><path d="M79.32,64.86c1.42-.22,2.83-.38,4.24-.66.43-.09.23-.69-.17-.64l-2,.27c-.35.05-.27.66.08.61a1,1,0,0,1,1,.64c.09.18.34.08.35-.09a1.16,1.16,0,0,0-1.38-1.17v.62l2-.23-.09-.65c-1.42.25-2.78.61-4.18.91-.26.06-.14.43.11.39Z"/><path d="M69.14,97.11c-4.48,2-9.37,6.14-7,11.56,1.86,4.21,7.8,5.65,11,2,.08-.09,0-.24-.13-.17-4,2.48-9.68,1.54-10.47-3.87-.66-4.54,3.53-7,6.79-9.17a.18.18,0,0,0-.18-.31Z"/><path d="M64.24,84c-3.88,4.1-2.86,13.2,3.65,14.26a.24.24,0,0,0,.18-.44c-2.22-1.54-4.32-2.73-5.14-5.56a9.54,9.54,0,0,1,1.55-8.07c.1-.15-.12-.31-.24-.19Z"/><path d="M94,104.15a14.26,14.26,0,0,1-1.2,18.65.43.43,0,0,0,.52.67c7.48-3.77,5.46-13.08,3.41-19.48l-.78.33a16.34,16.34,0,0,1-.61,20.13.43.43,0,0,0,.61.6,14.73,14.73,0,0,0,2.59-20.58l-.58.58c7.92,4.15,3.8,14,.37,19.67-.27.44.32.83.67.52A14.45,14.45,0,0,0,101.53,106l-.28.68,1.1-.19-.54-.69a3.12,3.12,0,0,0-.57,2.67c.08.47.8.43.91,0l.62-2.52-.87.11a19.84,19.84,0,0,1-1.47,18.72c-.29.45.4,1,.76.59a20.55,20.55,0,0,0,4.18-18.69l-.85.36a17.94,17.94,0,0,1-2.29,19.39l.78.21-.24-1.4a.47.47,0,0,0-.85-.11l-.33.58a.45.45,0,0,0,.07.56l2.19,1.75a.49.49,0,0,0,.64,0,14.55,14.55,0,0,0,3-19.8.46.46,0,0,0-.83.35c1,3.82,1.56,7.21-.17,10.92-.95,2-1.94,3.85-1.85,6.14a.46.46,0,0,0,.78.32,6.17,6.17,0,0,0,.81-7.89.46.46,0,0,0-.79,0,7.89,7.89,0,0,0-1.56,5.69c.06.57.93.59.9,0a74.26,74.26,0,0,0-3-18.43l-.52.53,1.23.19c.54.09.77-.72.23-.81l-1.24-.21a.43.43,0,0,0-.52.53,75.83,75.83,0,0,1,2.93,18.2h.9a7.32,7.32,0,0,1,1.45-5.23h-.79a5.25,5.25,0,0,1-.67,6.79l.78.32c-.13-3.21,2.18-5.64,2.84-8.66s-.11-5.83-.85-8.64l-.83.35a13.83,13.83,0,0,1,2.13,11.38,13.39,13.39,0,0,1-2.73,5.21,5.3,5.3,0,0,1-1.34,1.37c-.46.23-2.52-.19-2-1l-.84-.11c.07.46.15.93.23,1.39a.47.47,0,0,0,.78.21,19,19,0,0,0,2.43-20.52c-.24-.48-1-.14-.85.36a19.55,19.55,0,0,1-4,17.75l.76.59a20.82,20.82,0,0,0,1.46-19.69.48.48,0,0,0-.87.11l-.61,2.53h.91l.48-1.95c.26-.37-.17-.76-.54-.69l-1.09.2a.47.47,0,0,0-.28.69,13.59,13.59,0,0,1-2.37,18.18l.68.52c3.65-6.08,7.67-16.46-.68-20.84-.34-.18-.85.21-.58.58a13.92,13.92,0,0,1-2.47,19.55l.61.6a17.19,17.19,0,0,0,.74-21.16c-.27-.36-.94-.17-.78.33,1.93,6,4.12,14.92-3,18.51l.51.67a14.79,14.79,0,0,0,1.17-19.69c-.25-.32-.81.11-.57.44Z"/><path d="M104.83,128.18a12,12,0,0,0,.91-1.54c.06-.14-.12-.33-.23-.18a12.46,12.46,0,0,0-1,1.55.16.16,0,0,0,.28.17Z"/><path d="M104.19,126.83a.48.48,0,0,0,.12.82c.46.23,1-.32,1-.74a.11.11,0,0,0-.18-.1c-.14.13-.08.1-.2.25l-.15.19c-.42.17-.58.1-.49-.19.14-.1,0-.33-.13-.23Z"/><path d="M103.66,128c.39-.32.77-.64,1.14-1a5.28,5.28,0,0,0,1-.94c.06-.08,0-.18-.13-.13a5.66,5.66,0,0,0-1,.87c-.37.35-.73.69-1.08,1.06-.08.09,0,.21.14.13Z"/><path d="M108.91,118.25c-.36.82-.73,1.65-1.07,2.49a9.57,9.57,0,0,0-.87,2.56c0,.15.19.16.26.07a9,9,0,0,0,1-2.32c.33-.9.63-1.8.92-2.71,0-.13-.18-.23-.24-.09Z"/><path d="M108.38,118.6l-1.68,2.76a12.17,12.17,0,0,0-1.37,2.5c0,.1.11.19.19.11a12.58,12.58,0,0,0,1.51-2.42l1.58-2.81a.13.13,0,0,0-.23-.14Z"/><path d="M100.1,121.62c-1.45.47-2.85,1.13-4.25,1.71-.2.09-.2.42.06.41a4.55,4.55,0,0,0,1.47-.11.14.14,0,0,0,0-.26,4.83,4.83,0,0,0-1.47,0l.11.39c1.38-.62,2.82-1.19,4.15-1.92a.1.1,0,0,0-.07-.18Z"/><path d="M94.55,122.6c.8.38,1.63.72,2.45,1.06.26.1.37-.32.11-.42-.8-.34-1.61-.67-2.43-.95-.18-.07-.31.23-.13.31Z"/><path d="M94.58,122.9l1.15.4a2.32,2.32,0,0,0,1,.28c.11,0,.2-.15.1-.23a2.16,2.16,0,0,0-.94-.33l-1.26-.33a.11.11,0,0,0-.06.21Z"/><path d="M102.49,110.39l1.76,1.8a7.91,7.91,0,0,0,1.66,1.56.13.13,0,0,0,.17-.17,8.5,8.5,0,0,0-1.57-1.66c-.61-.58-1.2-1.16-1.8-1.75a.16.16,0,0,0-.22.22Z"/><path d="M91.2,71.73c-.91-.06-1.2,1.31-1.1,2a.3.3,0,0,0,.19.19c1.39.38,3.32-.09,3.51-1.77.16-1.36-1.17-2.74-2.5-1.87a1.62,1.62,0,0,0,.73,3,1.67,1.67,0,0,0,1.24-2.87.41.41,0,0,0-.47-.06,4,4,0,0,0-2.14,2.2,2.08,2.08,0,0,0,.69,2.2c1.33,1,3.11-1.14,1.63-2a.25.25,0,0,0-.3.39c.24.25,0,.77-.2,1-.59.46-1.06-.38-1.09-.88-.07-1.07,1-1.73,1.8-2.19L92.72,71a1,1,0,0,1-.11,1.46.91.91,0,1,1-.23-1.67,1.15,1.15,0,0,1,.73.94,1.6,1.6,0,0,1-1.47,1.75c-.5.09-1.2.13-1-.59.11-.43.47-.64.64-1,0,0,0-.1-.06-.1Z"/><path d="M71.23,69.16a3.64,3.64,0,0,0-1.66,3.39c.06,1.09.72,2.92,2,3.1.19,0,.42-.17.28-.37a8.94,8.94,0,0,0-.8-.83,3.48,3.48,0,0,1-.76-1.81,3.83,3.83,0,0,1,1.09-3.32.1.1,0,0,0-.12-.16Z"/><path d="M81.55,82.55c1.56-2.66,4.65-1.37,6.07.63A9.28,9.28,0,0,1,89.17,87,10.64,10.64,0,0,1,87,95.29c-.33.43.25,1,.61.6A11.08,11.08,0,0,0,88.9,83.65c-1.44-2.65-6.15-5.4-7.68-1.24a.18.18,0,0,0,.33.14Z"/><path d="M151.25,59.33c-8.89,0-18.1,7-19.12,16.18,0,.39.55.43.67.09,1.34-4,2.77-7.6,6-10.58a21.88,21.88,0,0,1,12.48-5.45c.15,0,.16-.24,0-.24Z"/><path d="M60.45,47.22c-.73-.4-1.46-.82-2.19-1.23-.27-.15-.67.1-.55.43a17.76,17.76,0,0,1,.57,8.26c0,.29.4.31.49.06a12.79,12.79,0,0,0-.34-8.52l-.55.42c.75.38,1.49.77,2.23,1.16.38.2.72-.37.34-.58Z"/><path d="M57.15,57.17c.68,3.9,1.21,7.92,2.26,11.75,0,.1.21.09.2,0-.39-4-1.34-7.92-2.11-11.82,0-.23-.39-.13-.35.1Z"/><path d="M59.13,68.38l-1.59-.53a.21.21,0,0,0-.27.21,11.28,11.28,0,0,0,2.35,6.11,11.83,11.83,0,0,0,2.16,2.14c.6.45,2.44,1,2.07,1.8a.16.16,0,0,0,.25.19,2.59,2.59,0,0,0,.58-.61.27.27,0,0,0-.12-.45,11.1,11.1,0,0,1-5.2-4.32,11.46,11.46,0,0,1-1.21-2.61c-.14-.44-.44-1.08-.24-1.52s.44-.27,1.13-.08a.17.17,0,0,0,.09-.33Z"/><path d="M63,76.71l-1,.38a.25.25,0,0,0-.17.3,74.89,74.89,0,0,0,2.5,8.51.22.22,0,0,0,.42-.12,39.26,39.26,0,0,0-1.28-4.6c-.32-1.07-1.62-3.5-.34-4,.28-.11.16-.57-.12-.46Z"/><path d="M79.6,141.78a3,3,0,0,0,1,4.1c2.32,1.67,5.5.1,7.75-.85,7.3-3.06,14.71-5.94,21.87-9.32,6-2.83,12-6.38,15.86-11.88,3.22-4.54,5.7-11.39,3.35-16.84-.17-.37-.68-.08-.62.27.88,5.58.39,10.35-2.7,15.25s-7.79,8.28-12.77,11-10.06,4.66-15.12,6.88l-8.19,3.58A32.79,32.79,0,0,1,85,146a7.55,7.55,0,0,1-3.2.2,3.09,3.09,0,0,1-2-4.34c.06-.1-.09-.18-.15-.09Z"/><path d="M128.08,106.75c-.25-.18-.5-.36-.76-.53l-.12.48a2.76,2.76,0,0,0,3-2.69A5.69,5.69,0,0,0,128,99.2c-.11-.08-.3,0-.21.16a7.89,7.89,0,0,1,1.52,3c.33,1.59,0,3.88-2.14,3.78-.31,0-.32.4-.07.5l.84.32c.16,0,.23-.17.11-.26Z"/><path d="M137.43,90.24c2.9-1.45,6.55-1,8,2.23,1.3,3-.62,5.38-3.27,6.55a.3.3,0,0,0,.15.55c3.49-.3,5.2-4.44,3.89-7.42a5.89,5.89,0,0,0-8.95-2.26.2.2,0,0,0,.21.35Z"/><path d="M150.14,131.28a2.94,2.94,0,0,0-.67-.27c-.12,0-.23.12-.13.21a3.47,3.47,0,0,0,.61.38c.21.11.4-.21.19-.32Z"/><path d="M148.33,131.74c.85-3.73,1.87-7.48,2.44-11.27,0-.17-.23-.25-.28-.07-1.05,3.68-1.67,7.52-2.43,11.27,0,.17.23.25.27.07Z"/><circle class="cls-5" cx="92.54" cy="74.52" r="0.95"/><circle class="cls-5" cx="71.71" cy="74.26" r="0.95"/><path d="M153.82,62.56c-2.37,1.69-4.77,3.34-7.15,5-2.1,1.49-4.49,2.84-6.29,4.68a.2.2,0,0,0,.24.32c2.42-1.2,4.57-3.18,6.73-4.79s4.4-3.34,6.61-5c.15-.1,0-.34-.14-.24Z"/><path d="M154.72,67.53A97.92,97.92,0,0,0,141.89,75c-.19.14,0,.46.2.33a138.81,138.81,0,0,1,12.71-7.68.09.09,0,0,0-.08-.15Z"/><path d="M156,70.15c-5.05,2.74-10.05,5.6-15.19,8.18-.38.19,0,.79.34.57l.63-.36c.14-.09.09-.35-.09-.33l-.71.07.17.62c4.91-3,10-5.69,15-8.51.15-.09,0-.32-.14-.24Z"/><path d="M158.5,71.54c-5.39,2.76-11.05,5.37-16.21,8.55a.3.3,0,0,0,.3.52c5.49-2.55,10.79-5.83,16.07-8.8.17-.1,0-.36-.16-.27Z"/><path d="M152.81,59.28q-7.5,4.61-15,9.31c-.34.21,0,.76.32.54,5-3.12,9.92-6.3,14.85-9.49a.21.21,0,0,0-.21-.36Z"/><path d="M153.19,61c-5.69,3.5-11.42,7-17,10.68-.26.17,0,.6.26.43,5.71-3.48,11.3-7.18,16.9-10.84.17-.11,0-.38-.16-.27Z"/><path d="M151.8,66.75c-4.94,3.13-9.9,6.21-14.82,9.38-.23.15,0,.53.23.38,4.93-3.13,9.82-6.35,14.73-9.52.15-.09,0-.34-.14-.24Z"/><path d="M158.42,73.58c-5.92,3.89-11.86,7.76-17.78,11.66-.23.16,0,.53.22.38,5.91-3.92,11.8-7.87,17.71-11.79.15-.11,0-.36-.15-.25Z"/><path d="M159.05,75.09q-9.37,6.19-18.76,12.38c-.26.18,0,.6.25.42,6.22-4.17,12.43-8.39,18.65-12.57.14-.1,0-.33-.14-.23Z"/><path d="M156.88,81.93c-4,2.45-7.82,5.13-11.71,7.71-.28.19,0,.65.27.45,3.87-2.61,7.8-5.16,11.58-7.9.15-.11,0-.36-.14-.26Z"/><path d="M134.69,83.4c2.46-1.52,4.82-3.23,7.21-4.85.21-.15,0-.49-.2-.34-2.39,1.63-4.84,3.2-7.16,4.94-.14.11,0,.35.15.25Z"/><path d="M132.78,79.77c2.05-1.31,4.07-2.68,6.13-4,.23-.15.08-.58-.2-.47a6.32,6.32,0,0,0-.6.25c-.13.06-.06.25.07.26a4,4,0,0,0,.6,0l-.13-.48c-2,1.41-4,2.76-6,4.17-.16.11,0,.38.16.27Z"/><path d="M91.33,81.54c.79,1.81,2.78,2.44,4.6,2.79a45.5,45.5,0,0,0,8.28,1.17.35.35,0,0,0,.09-.69c-4.3-1.32-8.92-.57-12.58-3.57a.25.25,0,0,0-.39.3Z"/><path d="M92.45,67.67a8.53,8.53,0,0,0,2.38-.83,16.19,16.19,0,0,0,2.38-1,.34.34,0,0,0-.26-.61,16.18,16.18,0,0,0-2.36,1.08,9,9,0,0,0-2.21,1.23.1.1,0,0,0,.07.17Z"/></svg>