<svg id="carracters" xmlns="http://www.w3.org/2000/svg" viewBox="0 0 198.43 35.43"><defs><style>.cls-1{fill:#fff;}.cls-2{fill:#6e6e6e;opacity:0.5;}</style></defs><path d="M173.86,28.61l-.44-1.5c.49,0,1,0,1.47-.05a30.74,30.74,0,0,0,4.38-.49,10,10,0,0,0,3.1-1.08,3.54,3.54,0,0,0,1.78-2.07A3.36,3.36,0,0,0,181.53,19a7.2,7.2,0,0,0-3.51.23,9.65,9.65,0,0,0-4.1,2.27c-.28.27-.53.58-.81.9l-1.56-.73a18,18,0,0,0,1.59-6.1c.09-.6.15-1.21.23-1.84H168V12.06h5.55l.14-4.18,2.42.23c0,.33-.06.36-.7.55l-.2,3.39a45.24,45.24,0,0,0,9.45-1.41l.3,1.68A53.68,53.68,0,0,1,175,13.67a36.82,36.82,0,0,1-1,6l.12-.07a11.7,11.7,0,0,1,5.55-2.24,6.37,6.37,0,0,1,4.36.86A4.26,4.26,0,0,1,186,21.42a5.65,5.65,0,0,1-.29,2.88,5.05,5.05,0,0,1-2.39,2.58,12.16,12.16,0,0,1-3.54,1.21,29.65,29.65,0,0,1-4.7.52C174.64,28.63,174.25,28.61,173.86,28.61Z"/><path class="cls-1" d="M22.49,28.61l-.43-1.5c.48,0,1,0,1.46-.05a30.58,30.58,0,0,0,4.38-.49A10,10,0,0,0,31,25.49a3.54,3.54,0,0,0,1.78-2.07A3.36,3.36,0,0,0,30.16,19a7.2,7.2,0,0,0-3.51.23,9.71,9.71,0,0,0-4.1,2.27c-.28.27-.52.58-.8.9l-1.57-.73a18.24,18.24,0,0,0,1.6-6.1c.09-.6.14-1.21.22-1.84H16.61V12.06h5.54l.14-4.18,2.43.23c0,.33-.06.36-.71.55l-.2,3.39a45.15,45.15,0,0,0,9.45-1.41l.3,1.68a53.68,53.68,0,0,1-9.92,1.35,36.82,36.82,0,0,1-1,6l.13-.07a11.66,11.66,0,0,1,5.55-2.24,6.35,6.35,0,0,1,4.35.86,4.23,4.23,0,0,1,1.95,3.18,5.65,5.65,0,0,1-.28,2.88,5.14,5.14,0,0,1-2.39,2.58,12.32,12.32,0,0,1-3.55,1.21,29.65,29.65,0,0,1-4.7.52C23.27,28.63,22.88,28.61,22.49,28.61Z"/><path class="cls-2" d="M137.7,28.61l-.43-1.5c.48,0,1,0,1.46-.05a30.58,30.58,0,0,0,4.38-.49,10,10,0,0,0,3.1-1.08A3.54,3.54,0,0,0,148,23.42,3.36,3.36,0,0,0,145.37,19a7.2,7.2,0,0,0-3.51.23,9.71,9.71,0,0,0-4.1,2.27c-.28.27-.52.58-.8.9l-1.57-.73a18.24,18.24,0,0,0,1.6-6.1c.09-.6.14-1.21.22-1.84h-5.4V12.06h5.55l.14-4.18,2.43.23c0,.33-.06.36-.71.55l-.2,3.39a45.15,45.15,0,0,0,9.45-1.41l.3,1.68a53.68,53.68,0,0,1-9.92,1.35,36.82,36.82,0,0,1-1,6l.13-.07a11.66,11.66,0,0,1,5.54-2.24,6.37,6.37,0,0,1,4.36.86,4.23,4.23,0,0,1,1.95,3.18,5.65,5.65,0,0,1-.28,2.88,5.14,5.14,0,0,1-2.39,2.58,12.32,12.32,0,0,1-3.55,1.21,29.65,29.65,0,0,1-4.7.52C138.48,28.63,138.09,28.61,137.7,28.61Z"/><path d="M172,22.64c.19,0,.19.09.15.22-.27.75-.52,1.5-.77,2.25l-.09.25L174,23.62l-.76-.19c-.15,0-.19-.08-.11-.24l1.26.3c-.1.43-.19.84-.3,1.24,0,0-.11.06-.23.11l.23-1-3,1.91c0-.1-.09-.2-.07-.26C171.34,24.52,171.67,23.58,172,22.64Z"/><path d="M171.86,6l.59,3.5.57-.77.17.12-.78,1.05-1.09-.81.12-.17.8.59-.58-3.47Z"/><path d="M132.85,9.73l.92.86-.91,1c-.19-.08-.18-.15-.07-.26s.36-.36.58-.58h-.3l-3,0H130l-.17-.1s.11-.09.16-.09l2.33,0h1l0-.07-.62-.65Z"/><path d="M137.2,13.71h-5.4V12.07H139a45.15,45.15,0,0,0,9.45-1.41l.3,1.68a54.54,54.54,0,0,1-9.92,1.35Z"/></svg>