<svg id="illustration" xmlns="http://www.w3.org/2000/svg" viewBox="0 0 198.43 136.92"><defs><style>.cls-1{fill:#e55257;}.cls-2{fill:#eda46d;}.cls-3{fill:#ade0f0;}.cls-4{fill:#fff;}.cls-5{fill:#42170c;}.cls-6{fill:#a55e5f;}.cls-7{fill:#010101;}</style></defs><path class="cls-1" d="M68.35,45.43s1-9.34,15.45-11,28.41,7.77,28.41,7.77,5.72,4.05,6,5.42,2.91,10.89,4.27,12.45a6.54,6.54,0,0,0,2.25,1.87l4.29-.27s.51,1.25.38,1.38a5.05,5.05,0,0,0-.21,1.2l-1.21.37.25.52.73,1.07-.41,1.19-1.27.44-1.3-.17-1-.9-.51-.49s-.71,1.8-.43,2.54,1.29,2.79,3.5,2.82S138.87,69,138.87,69l7-1.82,3.87-1.46,2.41-1.65,1.72-2.23,1-3.87-.31-3.13-.91-2.65-1.83-3.45.24-1.1,1.26-1.17,1.28.06.92,1,1.1,1.44L158,51.52l1.1,3,.41,2.22.12,2.71-.34,2.79-.56,2-1,2.2-1.32,2.11-1.76,2.05L151.83,73l-2.46,1.34-2.32.84-3,.46h-6l-1.28.08-1.29,1.49-.79,2.15,0,1.81.4,1.8,1.27,2,1.42,2,1.48,2.66.63,1.36.91,2.39s2.83,7.8.5,14.89-3.4,8.63-5.83,11.74a30.75,30.75,0,0,1-6.79,5.85l.12-2.4a13.84,13.84,0,0,1,1.62-4.23c1.19-1.89,3.25-5.77,3.25-5.77l.84-1.77,1.37-4.21.27-4.62-.23-2.34-.1-.79-.67-2.46-1.12-3-1.55-2.7-2-2.52-.66-.73-3.38,1.23-2.18,2-1.08,1.87-.26.53.9,2.47.93,2.94.46,2.11.18,3.72-.43,3.59-1.12,2.94-1.1,2.11-2.29,2.85-2.11,1.51-4.3,2.42-3.13,1.09-8.64,2.5-3.42,1-3.45,1-3.23.93-4.58,1.61-1.69-1,.06-1.42.5-2,.72-.67,1.7-1L92,121.45l2.73-.67,4.09-.62,3.75-.6,2.81-.61,2.85-.92,2.17-1,2-1.45,2.19-2,1.27-1.75,1.12-2.19.92-2.71.67-4.46-.19-4-.4-2.62L117.5,94,112,92.52l-5,.08-2.9.52L101,95.53l-2,1.63-2.52,1.51-4.31,2-1.12.5-3.37,1-2.51.91-3.19.6-2.83.67-4.32.49-6.76.8-3.4-.06-3.14-.78v-1.14l1.12-.88L65,102.2l3.2-.52,3.5-.23,1.78-.27,2.43-.25,2.77-.65,2.4-.62,2.62-.75,1.92-.69,1.88-.6,1.7-.69,4.59-2,2-.94,3.64-2,2-1.3L104.81,88l1.29-2.63.54-1.55.1-2.39-1.14-2.26-1.54-1.54-4.75.2-4.44.84-3.61.82-6,2.48-3.4,2-2.79,2-2,1.62-1.51,1.58L73.2,91.74l-1.83,1.32-1-1-.31-1.66.48-1.07L71.22,88l1-1.41L73.37,85l1.29-1.9L76,81.26,78.25,79,80.79,77l2.1-1.21,2.17-1,3.19-1.09,2.52-.52,2.5-.33,2.87-.13,3.48,0,2.92.17,2.89.35,3.54.34L111,72.28l0-1.93-.47-2.29-1.16-2.84L107.75,63l-2.17-1.64-4-1.27-3.17.22-1.6-.66-3.12-1.17-1.36.07-1.7-.44-.76-.42-.14-.13-.55-.17L82,57.48l-3.13-.4-4.24-1.41-3-2.05L70.54,52.4,69.16,50l-.75-1.91,0-2.55Z"/><path class="cls-2" d="M123.88,68.2l.31,1.14.75,1.13,1.38.93,1.52.32-1.59.52-.88.12s-1.68.33-1.93,0S123.88,68.2,123.88,68.2Z"/><polygon class="cls-2" points="130.04 78.46 131.75 77.02 133.03 76.4 134.61 75.92 136.06 75.74 136.8 75.67 135.75 77.07 134.94 78.71 134.61 80.03 134.87 81.96 135.53 84.02 131.45 79.92 130.04 78.89 129.62 78.62 130.04 78.46"/><polygon class="cls-2" points="122.87 93.92 123.87 92.02 125.34 90.5 127.06 89.31 128.53 88.62 129.77 88.33 128.74 87.4 127.22 86.23 126.32 85.85 124.56 85.96 123.37 86.49 122.53 86.99 121.87 87.9 121.36 88.84 121.06 89.68 121.06 90.24 121.06 90.75 121.73 92.23 122.87 93.92"/><path class="cls-2" d="M104.75,93.09l4.68-.63,2.19.07,2.5.4,2,.66,1.51.54-.42-1.51-.37-1.19S117,89,115.4,88.66s-4.21.9-4.21.9l-2.66,1-2.66,1.53Z"/><path class="cls-2" d="M104.36,77.69l1,1L106.56,81l.22,2.22-.68,2.2L105,87.58l1.94-2.2,1.63-2,.87-1.78.5-1.53a3.42,3.42,0,0,0,0-1.53c-.21-.44-3.09-.69-3.09-.69l-2-.16Z"/><path class="cls-3" d="M98.32,35.76l.51-.48,8,3.07.37.07-.42,3-.62,2.83-1.42,4.38-1.54,3.14-1.83,3.54-1.56,2.28-2,2.28-1.68-.45-2.49-.88a5.15,5.15,0,0,1-4.11-1.24,25.35,25.35,0,0,0,6.35-6.81l1.93-3,1.28-3.2,1-3.39.43-2.15-.25-1.81-.86-.81Z"/><path class="cls-4" d="M116.25,51.87l.75-1.19,1.43-1,1.5,0,1.51.54L123,52.12l.44,1.8-.23,1.89-.76,1.39-1,.92-1.5.22-1.16-.42-.85-.49-.56,1.5L116,60.22l-1.64.57a6.26,6.26,0,0,1-5.73-3.49c-1.89-3.74.17-6.49,1.61-7.24S114.31,48.49,116.25,51.87Z"/><path class="cls-5" d="M110.47,54.48c-1.32.49-1.15,2.6-.06,3.27a1.51,1.51,0,0,0,2-.26,2.17,2.17,0,0,0,.37-1.8c-.13-.68-.55-1.44-1.31-1.5a1.33,1.33,0,0,0-1.3,1.54c0,.71.59,1.48,1.39,1.27a.91.91,0,0,0,.19-1.69c-.77-.33-1.46.8-.67,1.15l.46-.64,0-.09c0-.07,0-.16,0-.23,0,.11,0-.06,0,0a1,1,0,0,1,.13.3c.08.29.06.76-.24.92-.81.45-1.31-1.31-.72-1.74.24-.19.11-.69-.23-.55Z"/><path class="cls-5" d="M120,54.09c-.35-.33-.8-.08-1,.28a1.66,1.66,0,0,0-.09,1.44,1.27,1.27,0,0,0,2.39-.59c0-1.25-1.63-2.26-2.53-1.16A1.18,1.18,0,0,0,119,55.7a1.12,1.12,0,0,0,1.69-.35.74.74,0,0,0-.43-1.08.68.68,0,0,0-.2,0,.76.76,0,0,0-.71.53l.64-.05,0,.22s.1,0,.12.08.12.28-.07.3c-.34,0-.23-.79,0-.88a.22.22,0,0,0,.1-.36Z"/><path class="cls-4" d="M111.81,57.91a.92.92,0,0,0,0-1.83.92.92,0,0,0,0,1.83Z"/><path class="cls-4" d="M120.25,55.84a.35.35,0,0,0,0-.7.35.35,0,0,0,0,.7Z"/><path class="cls-4" d="M120.25,55.88a.39.39,0,0,0,0-.78.39.39,0,0,0,0,.78Z"/><path class="cls-4" d="M120.25,55.86a.37.37,0,0,0,0-.73.37.37,0,0,0,0,.73Z"/><path class="cls-4" d="M120.37,56a.5.5,0,0,0,0-1,.5.5,0,0,0,0,1Z"/><path class="cls-4" d="M70.84,43.06c1.45-1.62,2.56-3.38,4.4-4.64s3.93-1.56,6-2.4c.25-.1.33-.53,0-.6-4.1-.84-10,3.41-10.76,7.42,0,.21.22.41.39.22Z"/><path class="cls-4" d="M108.74,42.74a8.56,8.56,0,0,0,1.49.46,7.83,7.83,0,0,1,2,1c1,.74,1.8,2,2.94,2.59.31.15.79-.1.64-.49-.74-2-4.89-5.24-7.1-4a.22.22,0,0,0,0,.37Z"/><path class="cls-4" d="M103.08,38.56a28.69,28.69,0,0,1-.21,5.24,42.86,42.86,0,0,1-1.28,4.46.18.18,0,0,0,.32.14,15.23,15.23,0,0,0,1.47-9.88.15.15,0,0,0-.3,0Z"/><path class="cls-4" d="M103.05,48.59c-.89,1.58-1.38,3.37-2.23,5s-2.08,3-2.9,4.63a.11.11,0,0,0,.18.14,15.34,15.34,0,0,0,3.38-4.76,13.86,13.86,0,0,0,1.84-4.92.14.14,0,0,0-.27-.07Z"/><path class="cls-4" d="M93.32,56.48c3-2,6-6,6.46-9.6,0-.06-.08-.08-.11,0-.9,1.61-1.49,3.33-2.5,4.89a29.24,29.24,0,0,1-4,4.55c-.1.09,0,.26.14.19Z"/><path class="cls-4" d="M125.07,62.31a6.21,6.21,0,0,1,2.31-.17c1.33.2.82,1.39.24,2.1-.22.26.16.64.38.38.6-.72,1.3-1.86.41-2.66s-2.49-.43-3.49-.2a.29.29,0,0,0,.15.55Z"/><path class="cls-4" d="M108,51.42a.05.05,0,0,0,0-.1.05.05,0,1,0,0,.1Z"/><path class="cls-4" d="M108.21,51.56c1.59-1.32,3.64-3.36,5.78-1.64.45.36,1.1-.28.64-.64-2.31-1.81-5.5-.37-6.64,2.11a.14.14,0,0,0,.22.17Z"/><path class="cls-4" d="M117.06,50.23a5.24,5.24,0,0,0,.64-.29c.25-.11.51-.15.75-.28a.41.41,0,0,0-.2-.76,1.79,1.79,0,0,0-1.5,1,.26.26,0,0,0,.31.31Z"/><path class="cls-4" d="M80.68,78.52c1.78-.37,3.41-1.48,5.1-2.12,1.41-.54,3.11-.74,4.29-1.71a.47.47,0,0,0-.2-.77c-1.66-.32-3.44.62-4.93,1.29s-3.44,1.51-4.53,3c-.14.18.09.39.27.35Z"/><path class="cls-4" d="M82.28,101.15c3.89-.67,8.47-1.81,11.61-4.34a.31.31,0,0,0-.3-.52C91.67,97,89.9,98,88,98.71a43.62,43.62,0,0,1-5.9,1.7c-.49.11-.28.82.2.74Z"/><path class="cls-4" d="M119.19,91.85c.62,1,1.49,1.84,2.07,2.89s.85,2.22,1.42,3.25c.07.14.26.06.27-.07a7.87,7.87,0,0,0-3.51-6.32c-.15-.08-.35.09-.25.25Z"/><path class="cls-4" d="M134.1,84.8a20.22,20.22,0,0,1,4.38,7c.77,2.22.77,4.5,1.19,6.78,0,.19.31.16.36,0,1.59-5-1.77-11.16-5.66-14.09-.21-.16-.43.17-.27.35Z"/><path class="cls-4" d="M136.57,71.05c2.78-1.16,5.87-1.37,8.73-2.28a34.64,34.64,0,0,0,7.7-3.4.45.45,0,0,0-.45-.79,71.83,71.83,0,0,1-8.76,3.63c-2.49.78-5.07,1.18-7.36,2.5-.18.1-.06.43.14.34Z"/><path class="cls-4" d="M153.8,50.38a1.35,1.35,0,0,1-.33-.9c.06-.34.38-.49.52-.79a.35.35,0,0,0-.21-.5c-1.39-.41-1.78,2.45-.16,2.51a.21.21,0,0,0,.18-.32Z"/><path class="cls-4" d="M122.6,89.35a3,3,0,0,1,1.06-1.23c.43-.27,1-.3,1.35-.61a.37.37,0,0,0-.17-.62c-.57-.18-1.28.31-1.71.65A3.8,3.8,0,0,0,122,89.09c-.14.35.45.6.61.26Z"/><path class="cls-4" d="M112.57,90.35a3.21,3.21,0,0,1,2.4-.07c.47.15.81-.61.34-.81a3,3,0,0,0-3,.37.3.3,0,0,0,.3.51Z"/><path class="cls-4" d="M107.06,79.13a3,3,0,0,1,1.66.5.52.52,0,0,0,.62-.81,2.11,2.11,0,0,0-2.37-.4c-.35.13-.35.75.09.71Z"/><path class="cls-4" d="M131.55,79a1,1,0,0,1,.34-1c.5-.35,0-1.18-.48-.82a1.36,1.36,0,0,0-.22,2.15c.2.2.47-.06.36-.29Z"/><path class="cls-6" d="M124.22,76.26a7.5,7.5,0,0,0,.91,1.92A12.22,12.22,0,0,0,126.19,80c.12.16.41,0,.34-.21a12.65,12.65,0,0,0-1-1.9,8,8,0,0,0-1.12-1.79.13.13,0,0,0-.21.12Z"/><path class="cls-6" d="M123.49,69.43a11.72,11.72,0,0,0,.34,2.89c.08.35.62.2.53-.14a14.22,14.22,0,0,1-.38-2.75.25.25,0,0,0-.49,0Z"/><path class="cls-6" d="M124,69.83a.09.09,0,0,0,0-.18.09.09,0,1,0,0,.18Z"/><path class="cls-6" d="M104.57,75.18a3.73,3.73,0,0,0,1.85-.33,5.8,5.8,0,0,0,1.75-.8c.2-.16,0-.45-.23-.4-.62.15-1.19.48-1.79.69a6.35,6.35,0,0,0-1.61.6.13.13,0,0,0,0,.24Z"/><path class="cls-6" d="M108.05,92.3c1.11.11,2.24,0,3.37.08,1.28.12,2.48.46,3.74.69.2,0,.35-.23.15-.34A9.66,9.66,0,0,0,108,92a.13.13,0,0,0,0,.26Z"/><path class="cls-6" d="M123.62,92.26a8.75,8.75,0,0,1,5.08-3.9c.24-.08.22-.5-.06-.46a7.19,7.19,0,0,0-5.37,4.15c-.1.24.21.44.35.21Z"/><path class="cls-6" d="M134.79,81.54a5.59,5.59,0,0,1,.6-4.32.28.28,0,0,0-.48-.29,5.39,5.39,0,0,0-.66,4.76.28.28,0,0,0,.54-.15Z"/><path class="cls-6" d="M105.89,79.69c.2.6.55,1.12.7,1.75a7.65,7.65,0,0,0,.23,1.68.14.14,0,0,0,.24,0c.35-.47.15-1.28,0-1.81a3.32,3.32,0,0,0-.93-1.76c-.1-.09-.3,0-.25.14Z"/><path class="cls-6" d="M70.93,90.19c-.2,1.09.64,2.69,1.95,2,.71-.37,1.05-1.34,1.52-1.93.71-.87,1.69-1.5,2.37-2.37a.3.3,0,0,0-.36-.46,8.31,8.31,0,0,0-2.58,2.26c-.31.36-.62.71-.92,1.08-.11.16-.24.31-.36.46l-.86-.32a3.39,3.39,0,0,1-.36-.77.22.22,0,0,0-.4,0Z"/><path class="cls-6" d="M66,105.49c3.85.61,8.22-.52,12-1.07.24,0,.18-.44-.06-.43-3.82.15-8.33-.18-12,1.11-.17.06-.21.35,0,.39Z"/><path class="cls-6" d="M87.38,126.52c-.42,1,.36,1.64,1.31,1.61a8.09,8.09,0,0,0,2.39-.74,16.86,16.86,0,0,0,2.66-1.13.23.23,0,0,0-.18-.42,15.68,15.68,0,0,0-2.66.89c-.37.14-3.35,1.6-3.15-.1,0-.2-.3-.29-.37-.11Z"/><path class="cls-6" d="M119.68,117.05a12.28,12.28,0,0,0,4.77-7.6c.07-.34-.45-.48-.52-.14a14.9,14.9,0,0,1-4.44,7.49c-.12.12,0,.35.19.25Z"/><path class="cls-6" d="M129.31,121.75c-.2.72-.55,3.25.91,2.86a6.37,6.37,0,0,0,2-1.39,20.51,20.51,0,0,0,2.32-2.34c.35-.4-.25-1-.59-.59a26.9,26.9,0,0,1-2.4,2.49,5.26,5.26,0,0,1-1.24,1.08c-1.07.42-.71-1.53-.59-2,.06-.25-.32-.36-.38-.11Z"/><path class="cls-6" d="M145.42,75.28A15.19,15.19,0,0,0,158,66.1c.06-.16-.19-.31-.3-.17-1.7,2-3.14,3.95-5.39,5.41a36.23,36.23,0,0,1-7,3.27c-.33.13-.32.69.09.67Z"/><path class="cls-6" d="M120,65.21a3,3,0,0,1,2.32.31c.57.32,1,.82,1.63,1.09a.23.23,0,0,0,.32-.31c-.72-1.55-3.09-2.9-4.56-1.6-.24.21,0,.57.29.51Z"/><path class="cls-6" d="M125.12,66.88a0,0,0,0,0,0,0,0,0,0,0,0,0,0Z"/><path class="cls-6" d="M125,66.82c.25,1,1.66,1.1,2.45.78s1.77-1.31,1.18-2.07a.32.32,0,0,0-.38,0c-.24.13-.26.25-.36.49a1.59,1.59,0,0,1-.67.8c-.71.41-1.28,0-2-.18a.2.2,0,0,0-.24.23Z"/><path class="cls-6" d="M98.2,60.2a14.24,14.24,0,0,0,3.65-5.11c.1-.26-.28-.38-.42-.18-.59.84-1.05,1.78-1.65,2.62S98.52,59.15,97.9,60c-.13.18.15.36.3.23Z"/><path class="cls-6" d="M101.8,55.25c1.51-2,2.45-4.57,3.57-6.77.14-.28-.28-.53-.43-.25-1.14,2.23-2.7,4.5-3.41,6.91-.06.17.18.24.27.11Z"/><path class="cls-6" d="M105.28,48.33a40.6,40.6,0,0,0,2.4-8,.23.23,0,0,0-.44-.12c-.71,2.64-1.77,5.27-2.3,7.94,0,.19.24.34.34.14Z"/><path class="cls-4" d="M71.06,20.4a3.39,3.39,0,0,0,1.5,6.15,3.35,3.35,0,0,0,3.56-1.91,3.7,3.7,0,0,0-.71-4,3.31,3.31,0,0,0-4.2-.46,2.92,2.92,0,0,0-.71,3.9,2.37,2.37,0,0,0,3.82.18c.79-1.13.26-3.05-1.3-3.1-1.39,0-2.8,1.86-1.18,2.7s2.74-1.44,1.36-2.49l-.34,1.26a1,1,0,0,1,.46,2,.66.66,0,0,0,.51,1.21A2.19,2.19,0,0,0,74.27,22c-.54-.31-1.32.35-.91.91A1.29,1.29,0,0,1,73,24.83a1.25,1.25,0,0,1-1.65-1c-.16-.85-1.53-.5-1.32.37A2.62,2.62,0,0,0,73.5,26a2.58,2.58,0,0,0,1-3.76l-.91.91a.86.86,0,0,1-.12,1.48L74,25.82a2.39,2.39,0,0,0-1.13-4.51.68.68,0,0,0-.35,1.26l-.14-.06.07.52c.16-1,1.48.14.49.69-1.14.63-1.75-1-1.4-1.83A1.89,1.89,0,0,1,73.8,21a2.23,2.23,0,0,1,1.52,2.06A2.42,2.42,0,0,1,72,25.46c-1.91-.72-1.75-3.21-.43-4.39.35-.32-.11-.93-.51-.67Z"/><path class="cls-4" d="M75.3,22.74a2.12,2.12,0,0,0-2.09-2.07,2.32,2.32,0,0,0-2.34,2c0,.44.2,1.13.72,1.2s.62-.34.76-.69.26-.94.78-1a1.37,1.37,0,0,1,1.07.65c.21.53,1.15.54,1.1-.15Z"/><path class="cls-4" d="M67.7,9.47A1.69,1.69,0,0,0,67,11.69a1.48,1.48,0,0,0,2.22.35A1.25,1.25,0,0,0,69.09,10a1.41,1.41,0,0,0-2,.77.65.65,0,0,0,1.26.35c0,.11-.15,0,0,0h.12l.14.09c-.07-.17-.11-.2-.1-.1s-.12.13-.16.15c-.55.31-.45-.62-.13-.86a.52.52,0,0,0-.53-.9Z"/><path class="cls-4" d="M78.37,6.25a3.25,3.25,0,0,0-1.64,5.59,3,3,0,0,0,4.92-2.41A2.84,2.84,0,0,0,76.58,8a2.12,2.12,0,0,0,.78,3.19,1.65,1.65,0,0,0,2.31-1.6c-.08-1.22-1.77-2-2.47-.77a1.18,1.18,0,0,0,1.86,1.38A.73.73,0,0,0,78.54,9c-.55,0-.1,1.12-.65.47-.3-.36-.11-.65.26-.88a1.52,1.52,0,0,1,1.3-.07,1.43,1.43,0,0,1,.15,2.44,1.87,1.87,0,0,1-2.77-.75c-.71-1.37.48-2.77,1.75-3.19a.38.38,0,0,0-.21-.74Z"/><path class="cls-4" d="M79.09,9a1.42,1.42,0,0,1,0,1.33c-.18.31-.66.88-.09,1.13a.59.59,0,0,0,.67-.09,2,2,0,0,0,.1-2.89.43.43,0,0,0-.67.52Z"/><path class="cls-4" d="M96.53,9c-1.14-.85-2.55.91-1.88,2a1.62,1.62,0,0,0,2.87-.45A1.67,1.67,0,0,0,95,8.82a1.8,1.8,0,0,0,.16,2.93c1.55.79,3.12-1.34,2.06-2.64-.52-.62-1.42.18-1.08.83.1.19-.12.69-.35.54s0-.55.11-.57.53.6,0,.55c-.17,0-.32-.11-.27-.3s.47-.32.69-.29c.49.06.53-.6.23-.83Z"/><path class="cls-4" d="M95.66,8.94a1.26,1.26,0,0,0-.89,1.33c.08.55.71,1.19,1.3,1a.3.3,0,0,0,.07-.54c-.23-.12-.48-.13-.64-.37a.6.6,0,0,1,.29-.91c.29-.12.18-.59-.13-.48Z"/><path class="cls-4" d="M108.75,10.7a1,1,0,0,0,0-1.91,1,1,0,0,0,0,1.91Z"/><path class="cls-4" d="M89.41,18.45c-1.17-.19-1.31,1.76-.28,2,1.45.36,1.49-2.1.2-2.35-1.63-.31-1.6,2.33-.17,2.59,1.65.31,1.76-2.4.31-2.75a1.36,1.36,0,0,0-1.59,1.33c-.06.75.5,1.85,1.39,1.47a.48.48,0,0,0,.17-.65c-.15-.26-.43-.31-.46-.63,0-.16,0-.46.24-.45.41,0,.3,1.1-.07.53-.07-.12-.16-.46,0-.47s.3.39.27.54-.27.16-.35-.05-.06-.7.28-.7.3-.38.06-.42Z"/><path class="cls-4" d="M105.07,17.11c-1.47.69-1.52,3.05-.46,4.09a2.6,2.6,0,0,0,4-.52,2.49,2.49,0,0,0-2.1-3.54c-1.87,0-3,2.72-1,3.51a1.39,1.39,0,0,0,2-1A1.43,1.43,0,0,0,106.08,18a.65.65,0,0,0-.61.47,1.56,1.56,0,0,0,2.12,1.92c.62-.27.18-1.31-.46-1.09-.16,0-.61-.09-.5-.35l-.55.32c.13,0,.21.39-.16.21-.55-.26,0-.92.42-1a1.17,1.17,0,0,1,1,1.77,1.51,1.51,0,0,1-2.12.13c-.79-.8-.28-1.89.31-2.61a.4.4,0,0,0-.49-.63Z"/><path class="cls-4" d="M100.84,24.36a2.57,2.57,0,0,0-1.34,3.72,2.52,2.52,0,0,0,3.87.27A2.31,2.31,0,0,0,102,24.74c-1.75-.35-3.21,2.11-1.45,3.12a1.33,1.33,0,0,0,2-.9c.13-.77-.5-1.83-1.38-1.36a.55.55,0,0,0-.2.76c.07.11.21.2.26.29s.06.1,0,.08c-.39-.26,0-.68.38-.7a1,1,0,0,1,.66,1.57,1.29,1.29,0,0,1-1.93-.3,2,2,0,0,1,.78-2.36c.28-.23,0-.66-.33-.58Z"/><path class="cls-4" d="M117.55,18.9c-2.19.4-2.41,3.42-1,4.74a3,3,0,0,0,4.91-1.44c.56-2.05-1.51-4.34-3.62-3.49-1.91.77-2.35,4,0,4.48a1.47,1.47,0,0,0,1.87-1.6c-.12-.86-1.26-1.9-2-1a.65.65,0,0,0,.28,1.07c.39.15-.23-.22-.26-.52a1.17,1.17,0,0,1,.83-1.13c1.31-.33,1.89,1.4,1.33,2.32a1.73,1.73,0,0,1-2.92,0c-.74-1.12.15-2.11,1-2.81.33-.27,0-.71-.37-.65Z"/><path class="cls-4" d="M118.6,20.5a1.66,1.66,0,0,1,.68.86c.11.33,0,.66.11,1a.37.37,0,0,0,.66.08,1.53,1.53,0,0,0-.1-1.49,2.09,2.09,0,0,0-1.12-1c-.33-.13-.51.38-.23.56Z"/><path class="cls-4" d="M130.79,24.41c-1.51-.29-2.61,1.53-2.23,2.88a2.51,2.51,0,0,0,3.71,1.25,2.55,2.55,0,0,0,0-4.07c-1.4-1.1-3.8-.2-3.71,1.71a1.94,1.94,0,0,0,1.7,1.88,1.85,1.85,0,0,0,2-1.88l-1.39.37c.42-.29.65-.32.67-.06a.42.42,0,0,1,.1-.17.62.62,0,0,0-.37-.9c-1.18-.36-1.61,1.38-.74,2,1.05.74,2.12-.61,1.62-1.61a.75.75,0,0,0-1.39.38c0,.48-.49.61-.69.17a.7.7,0,0,1,.54-.94,1.21,1.21,0,0,1,1.31,1.65,1.35,1.35,0,0,1-2.11.19c-.74-.87.22-2,1-2.32.22-.09.3-.47,0-.52Z"/><path class="cls-4" d="M110.39,31.32a.94.94,0,0,0,.07,1.78c1,.26,1.82-1.09,1.3-1.92a1.24,1.24,0,0,0-2.2.28,1.2,1.2,0,0,0,.62,1.29.85.85,0,0,0,1.29-.46.59.59,0,0,0-.4-.7.69.69,0,0,0-.24-.05c-.14,0-.14,0,0,0,0,.08-.1.38-.1.37s-.07-.1-.07.05-.07.13.2.14q0-.13-.09.09c.46-.28.17-1.08-.37-.89Z"/><path class="cls-4" d="M118.59,27.72a1.67,1.67,0,0,0-.9,2.22,1.57,1.57,0,0,0,2.56.46,1.74,1.74,0,0,0-.33-2.88,1.44,1.44,0,0,0-2,1.87c.74,1.53,3.06.13,2.15-1.2-.53-.78-1.81,0-1.27.74a.21.21,0,0,1,.11-.29c.41-.16.29.16.3.16s0,0,.07,0c.32.17.2.54-.06.73-.6.43-.89-.78-.37-1.09s.13-.88-.3-.72Z"/><path class="cls-4" d="M118.26,35.36c-.51-1.25-2.31-.48-2.87.34a3.61,3.61,0,0,0,.27,4.09c1.9,2.49,6.29,1.23,6-2.1a3.06,3.06,0,0,0-2.85-2.78,2.73,2.73,0,0,0-3,2.3,2,2,0,0,0,2.66,2.11,1.75,1.75,0,0,0,.39-3,1.64,1.64,0,1,0,.57,2c.41-.95-1-1.78-1.41-.82-.06.15-.45.73-.65,0s.92-1.14,1.46-1.05a1.59,1.59,0,0,1,.58,2.87,2.05,2.05,0,0,1-3-.93,2.26,2.26,0,0,1,0-2c.39-.72,1-.63,1.7-.83a.17.17,0,0,0,.12-.21Z"/><path class="cls-4" d="M117.94,39.46a1.94,1.94,0,0,0,2.28-2.5c-.31-.65-1.14-.14-1.06.45a1.5,1.5,0,0,1-.11,1,1.27,1.27,0,0,1-1,.58.23.23,0,0,0-.06.45Z"/><path class="cls-4" d="M130.93,36.52a1.15,1.15,0,0,0-.85,1.32,1.26,1.26,0,0,0,1.44,1,.6.6,0,0,0,.59-.58c0-.39-.08-.78-.13-1.17a.63.63,0,0,0-.47-.61,1.49,1.49,0,0,0-1.65,2.1c.45.8,2.39,1.24,2.41-.08a.56.56,0,0,0-.41-.54,1.25,1.25,0,0,0-.51,0c-.11,0-.21.11-.32,0s.17-.28.32-.26l-.62-.46c.07.38.13.77.23,1.15l.27-.66a.3.3,0,0,1-.38-.14c-.09-.23.12-.45.3-.54s.08-.58-.22-.51Z"/><path class="cls-4" d="M125.58,44.9a1.08,1.08,0,0,0-1.16,0,1.54,1.54,0,0,0-.71,1.15,1.41,1.41,0,0,0,2,1.36,1.6,1.6,0,0,0,.85-2.43,1.87,1.87,0,0,0-2.71-.29.74.74,0,0,0,0,1,.76.76,0,0,0,1.05,0c.17-.15.71.11.36.34-.14.1-.25.12-.28,0a.49.49,0,0,1,.11-.31c0-.05.1-.07.14-.12s.19-.06.09-.07c.38.05.71-.5.29-.68Z"/><path class="cls-4" d="M130.84,50.11a2.75,2.75,0,1,0,3.63-.36c-1.31-1-3.58-.46-3.65,1.4a1.69,1.69,0,0,0,2.56,1.55,1.19,1.19,0,0,0,.53-1.08.68.68,0,0,0-1.14-.47c.26-.27-.1.09-.23.09s0,0,0,0c0-.32.34-.38.59-.33a1.16,1.16,0,0,1,.74,1.48,1.18,1.18,0,0,1-1.51.59,1.2,1.2,0,0,1-.36-1.78c.65-.78-.46-1.92-1.13-1.13Z"/><path class="cls-4" d="M115.74,117.74c3.5-1.95,7-5.31,8-9.36a.32.32,0,0,0-.59-.25,31.36,31.36,0,0,1-3,5.22,21.33,21.33,0,0,1-4.48,4.11.16.16,0,0,0,.16.28Z"/><path class="cls-4" d="M131.5,122c4.47-3.33,7.7-9.67,9-15a.18.18,0,0,0-.35-.09,58.1,58.1,0,0,1-3.91,8.2c-1.44,2.38-3.35,4.39-4.89,6.69-.07.11.08.27.19.19Z"/><path class="cls-4" d="M145.5,74.35c2.67,0,6.32-2.19,7.85-4.32.09-.13-.09-.3-.23-.22-1.26.78-2.36,1.77-3.66,2.51s-2.75,1.11-4,1.88a.08.08,0,0,0,0,.15Z"/><path class="cls-4" d="M100.55,59.33c1.08.71,3.11,1.47,4.26.53a.42.42,0,0,0-.19-.7,9.44,9.44,0,0,0-1.68,0,4.81,4.81,0,0,1-2-.56.42.42,0,0,0-.42.72Z"/><path class="cls-4" d="M112.2,67.82a21.77,21.77,0,0,1,.85,3.72c.1,1,0,2,.19,3,0,.29.44.23.52,0,.72-2.17,0-5-1-7a.31.31,0,0,0-.56.23Z"/><path class="cls-4" d="M121,69.1c-1.16,1.92-1.82,5.27.21,6.91a.32.32,0,0,0,.53-.31c-.18-1-.63-1.92-.73-3a7.11,7.11,0,0,1,.5-3.35.29.29,0,0,0-.51-.29Z"/><path class="cls-4" d="M73.07,52.4c.05,2.51,3.29,4.05,5.4,4.53,2.6.59,6.13.13,7.83-2.11.35-.47-.23-1.07-.72-.94-2.58.7-4.5,1.92-7.31,1.11-1.92-.54-3.12-2.18-5-2.78a.19.19,0,0,0-.24.19Z"/><path class="cls-7" d="M118.47,49c-1.5-4.82-6.9-8.15-11.57-9.2-.33-.07-.47.44-.14.51a17.46,17.46,0,0,1,6.72,3.12c2.06,1.57,3.35,3.59,4.9,5.61,0,0,.11,0,.09,0Z"/><path class="cls-7" d="M99.8,36.05c-9-2.81-27.7-3.67-31.34,7.94-1.23,3.95.59,7.81,3.69,10.33,4.75,3.87,11.28,3.6,17,3.34.31,0,.31-.5,0-.48-4.73.21-10.13.57-14.47-1.75-5.33-2.85-8.13-8.94-4.16-14.24C76.73,33,91,34,99.72,36.32a.14.14,0,0,0,.08-.27Z"/><path class="cls-7" d="M98.32,60.5c4.26.09,8.31,1.16,10.82,4.92a11.19,11.19,0,0,1,.29,11.89.17.17,0,0,0,.3.17c4.51-7.89-1.47-19.76-11.45-17.27a.15.15,0,0,0,0,.29Z"/><path class="cls-7" d="M89.2,57.66a28.87,28.87,0,0,0,9.74-12.45c1.2-2.86,3.54-8.07,0-10.15-.28-.16-.54.28-.26.44,4.14,2.36-.68,11.28-2.15,13.7a35.47,35.47,0,0,1-7.45,8.34.08.08,0,0,0,.1.12Z"/><path class="cls-7" d="M98.81,35.53c2.64,1.09,5.33,2,8,3,.28.1.4-.35.12-.45-2.67-1-5.34-2-8-2.9-.19-.06-.26.22-.08.3Z"/><path class="cls-7" d="M107.1,38.42A41.06,41.06,0,0,1,97.77,60c-.11.13.08.33.19.19a40.35,40.35,0,0,0,9.45-21.73c0-.2-.29-.2-.31,0Z"/><path class="cls-7" d="M89.52,57.58c2.68,2.05,7,1.22,7.94-2.28a.08.08,0,0,0-.14-.06c-1.56,3-4.77,4.24-7.68,2.14-.12-.09-.23.11-.12.2Z"/><path class="cls-7" d="M94,58.73c1.36.6,2.78,1.07,4.18,1.55.2.07.28-.24.09-.32-1.37-.51-2.77-1-4.18-1.44-.12,0-.21.16-.09.21Z"/><path class="cls-7" d="M116.68,53a4.24,4.24,0,0,0-5.78-3.43c-2.88,1.18-3.81,4.63-2.66,7.35s4.59,5.12,7.56,3.67c3.44-1.67,2.79-6.38,1.31-9.13-.06-.12-.27,0-.22.1.83,2.29,1.78,4.76.43,7.1-2,3.43-6.37,1.9-8.17-.79a5.46,5.46,0,0,1,.5-7.08A4,4,0,0,1,116.43,53c0,.14.26.11.25,0Z"/><path class="cls-7" d="M116.3,52.08c1.35-3.38,5.78-2.49,6.75.66a4.79,4.79,0,0,1-.4,3.88,2.86,2.86,0,0,1-5,.31c-.07-.09-.26,0-.21.08a2.84,2.84,0,0,0,3.73,1.36c1.91-.78,2.68-3.16,2.35-5A4.38,4.38,0,0,0,120,49.59a3.6,3.6,0,0,0-4,2.42c0,.16.18.22.24.07Z"/><path class="cls-7" d="M120.66,62.78c1.47-.21,2.93-.47,4.4-.72.62-.1,1.25-.23,1.88-.32,1.59-.52,2,.39,1.34,2.71a1.92,1.92,0,0,1-1.43-.84c-.11-.14-.29,0-.23.18a1.75,1.75,0,0,0,3.29-1.15c-.29-1.21-1.37-1.45-2.48-1.37a58.82,58.82,0,0,0-6.85,1.22c-.19,0-.1.31.08.29Z"/><path class="cls-7" d="M127.9,65.24c1.21.84,1.15,1.42-.18,1.73a1.2,1.2,0,0,1-1.88.25,6.72,6.72,0,0,1-1.17-1,12.85,12.85,0,0,0-1.82-1.64,2.68,2.68,0,0,0-3-.13.15.15,0,0,0,.15.26c3.26-1.71,5.37,5.18,8.47,2.91a1.53,1.53,0,0,0-.54-2.73c-.18,0-.22.27,0,.31Z"/><path class="cls-7" d="M121.64,58.36a6.18,6.18,0,0,0,2.08,3.34c.13.1.3-.08.18-.18a6.51,6.51,0,0,1-2.08-3.21.09.09,0,0,0-.18,0Z"/><path class="cls-7" d="M124.63,65.72c-2.15,4.87-1.79,10.87,1.75,15,.07.09.23,0,.16-.13-3-4.57-3.9-9.61-1.64-14.74.07-.18-.19-.34-.27-.16Z"/><path class="cls-7" d="M123.76,68.15c.32,3,3.93,4.86,6.37,2.75.12-.1,0-.28-.15-.2-2.51,1.49-5.53.47-6-2.59,0-.13-.25-.1-.24,0Z"/><path class="cls-7" d="M125.4,72.52c5.26-1.23,10.49-2.61,15.73-3.94,3.69-.94,8.11-1.63,11-4.29A8.76,8.76,0,0,0,155,58.51a11.74,11.74,0,0,0-.43-4.33c-.29-1-2.25-3.88-2.25-4.64L154.85,47l1.81,2.28a17.69,17.69,0,0,1,2.57,12.61,17,17,0,0,1-10,12.3c-6.34,2.76-16.13-1.36-20.38,5.54a.15.15,0,0,0,.26.16c3.9-6.26,11.75-3,17.64-4.5a18,18,0,0,0,9.18-5.83,17.39,17.39,0,0,0,.63-21.05c-.8-1.11-2.67-3.66-4.47-3.09s-1.12,2.48-.44,3.74c2,3.68,3.7,6.28,2.61,10.66-1.21,4.88-5.33,6.38-9.67,7.56-6.38,1.74-12.83,3.21-19.21,5a.11.11,0,0,0,.06.21Z"/><path class="cls-7" d="M129.49,78.68c8.16,5.77,13.26,15.32,12.45,25.43a28.18,28.18,0,0,1-5,13.76,27.77,27.77,0,0,1-5,5.46c-1.39,1.17-2.94,2.68-2.94-.22,0-1.45,1.47-3.57,2.16-4.8,3.29-5.86,6-10.9,4.92-17.85a21.79,21.79,0,0,0-8.79-14.41c-.19-.14-.37.17-.18.31a21.71,21.71,0,0,1,8.41,22c-1.43,6.4-6.78,11-7.27,17.72a.16.16,0,0,0,.25.14,28.46,28.46,0,0,0,1.15-47.73c-.15-.1-.28.14-.14.24Z"/><path class="cls-7" d="M127.09,86a4.7,4.7,0,0,0-5.84,3c0,.12.15.21.2.09A4.75,4.75,0,0,1,127,86.15a.1.1,0,0,0,0-.2Z"/><path class="cls-7" d="M113.39,88.62c-5.28.94-10.32,4.61-14.08,8.27-.17.17.1.44.27.27,4.15-4,8.72-6.06,13.84-8.46a0,0,0,0,0,0-.08Z"/><path class="cls-7" d="M99.2,96.87c-7.6,5-17.58,7.3-26.58,8-2.86.21-6.92.84-9.76.06-3.25-.89,2.85-2.41,4-2.68,1.75-.4,3.77-.32,5.56-.58,8.73-1.25,16.65-4.27,24.54-8.1,6.22-3,10.78-6.84,13.29-13.45.09-.23-.28-.33-.37-.1-4.49,11.18-17.62,16.34-28.5,19.47C76,101,70.59,101.32,65,101.91c-2.35.24-3.8.36-4.25,2.89a.2.2,0,0,0,.13.24c4.42,1.63,11.51.33,16-.28,7.7-1.07,15.93-3.28,22.45-7.66.14-.1,0-.33-.13-.23Z"/><path class="cls-7" d="M104.5,75.37a13.38,13.38,0,0,0,7.19-3.58.1.1,0,0,0-.14-.14,15.3,15.3,0,0,1-7.09,3.56c-.11,0-.06.18,0,.16Z"/><path class="cls-7" d="M101.83,76.88c5,1.37,6.12,6.73,2.77,10.41-.13.14.06.32.21.21,4.19-3.36,2.14-9.93-2.91-10.89a.14.14,0,0,0-.07.27Z"/><path class="cls-7" d="M104.54,93.34a19.29,19.29,0,0,1,13,1.07c.29.13.55-.29.26-.43a17.78,17.78,0,0,0-13.3-.93.15.15,0,0,0,.08.29Z"/><path class="cls-7" d="M123.28,93.49a9.09,9.09,0,0,1,6.83-4.95c.25,0,.19-.43-.06-.43a8.06,8.06,0,0,0-7.1,5.24.18.18,0,0,0,.33.14Z"/><path class="cls-7" d="M136.2,84.38c-1.72-2.9-1.81-6.22.88-8.61.25-.22-.11-.56-.36-.36-2.61,2-3.44,6.8-.8,9.19.15.13.39,0,.28-.22Z"/><path class="cls-7" d="M116.67,90.78a0,0,0,0,0,0,0s0,0,0,0Z"/><path class="cls-7" d="M116.75,91.55c2.36,8,2.83,17.43-3.86,23.53-4.94,4.5-12.2,4.35-18.37,5.62-3,.62-8.6,1.86-9.88,5.23-.64,1.67-.1,2.59,1.61,2.88,2.08.35,6.66-1.82,8.64-2.38l10.39-3c5.06-1.45,10.79-2.66,14.82-6.31,8.45-7.67,5.66-20.12-.11-28.4-.12-.18-.4,0-.28.16,3.68,5.52,6.42,12,5.14,18.75-1.41,7.49-6.79,11.46-13.64,13.72-5.4,1.77-10.94,3.16-16.4,4.73L91,127.2c-2.52.73-3.8,2.46-3.74-1.24,0-2.83.21-2.56,2.55-3.53a25,25,0,0,1,4.05-1.27c7.23-1.64,15.58-1.25,20.74-7.47S119.3,98.85,117,91.48a.13.13,0,0,0-.24.07Z"/><path class="cls-7" d="M109.12,73.53c-9-1.1-18.9-2.22-27.08,2.51a25.3,25.3,0,0,0-7.87,7.44c-1.38,1.93-4.94,6-4.39,8.67.91,4.35,6.58-3.76,7.6-4.64,8.29-7.24,18.9-10.22,29.75-9.47.19,0,.18-.26,0-.28A39,39,0,0,0,75,89.33c-1.1,1.14-4.29,6.2-3.75-.38.1-1.19,1.72-3.11,2.34-4a25.77,25.77,0,0,1,9.34-9c8.09-4.24,17.53-3.12,26.23-2.09.18,0,.17-.26,0-.28Z"/><path class="cls-7" d="M109.88,55.07a1.92,1.92,0,0,0,.71,2.79,1.75,1.75,0,0,0,2.5-1.27,1.91,1.91,0,0,0-1.5-2.48A2.24,2.24,0,0,0,109.07,56a.14.14,0,0,0,.27,0,2,2,0,0,1,1.94-1.61,1.5,1.5,0,0,1,1.5,1.85,1.46,1.46,0,0,1-1.93,1.33,1.75,1.75,0,0,1-.84-2.48c0-.07-.07-.17-.13-.1Z"/><path class="cls-7" d="M119,54.46a1,1,0,0,1,1.87.7.94.94,0,0,1-1.13.75,1.28,1.28,0,0,1-.9-1.13c0-.08-.14-.07-.17,0-.2.66.44,1.3,1,1.43a1.26,1.26,0,0,0,1.43-1,1.29,1.29,0,0,0-2.39-.9.14.14,0,0,0,.24.13Z"/><path class="cls-7" d="M162.25,54.61a10.47,10.47,0,0,1,.92,9.74c0,.13.17.23.23.1a10.18,10.18,0,0,0-.83-10c-.13-.2-.45,0-.32.18Z"/><path class="cls-7" d="M167,55.19a9,9,0,0,1-1,10c-.09.11.1.25.19.14a8.91,8.91,0,0,0,1.08-10.25c-.09-.17-.34,0-.25.14Z"/><path class="cls-7" d="M140.36,121a77.52,77.52,0,0,1-12.44,7.76c-.12.07,0,.29.1.23a52.49,52.49,0,0,0,12.52-7.82c.12-.1-.06-.27-.18-.17Z"/><path class="cls-7" d="M125.3,128.54a0,0,0,1,0,0,0,0,0,0,0,0,0,0Z"/><path class="cls-7" d="M83.83,121.51c-5.34,1.71-6.15,9.15-.77,11.45.14.06.26-.13.12-.2-4.73-2.54-4.63-9.19.74-10.94.19-.07.11-.38-.09-.31Z"/><path class="cls-7" d="M76,123.47a6,6,0,0,0,7.14,9.24c.13-.05,0-.29-.1-.23a5.72,5.72,0,0,1-6.81-8.78c.13-.16-.1-.4-.23-.23Z"/><path class="cls-7" d="M61.63,98.5c-4.82.79-6.09,7.39-1.42,9.46.12.06.23-.11.11-.18-4-2.34-3.38-8.18,1.39-9,.18,0,.1-.3-.08-.27Z"/><path class="cls-7" d="M56,97.3A7.61,7.61,0,0,0,56.77,110a.15.15,0,0,0,.15-.25,7.43,7.43,0,0,1-.74-12.26c.14-.11-.06-.31-.2-.2Z"/><path class="cls-7" d="M89.31,69.56a8.36,8.36,0,0,0-11.15,5.09c-.06.19.25.33.33.14,1.86-4.38,6.07-6.62,10.72-4.85.24.09.34-.29.1-.38Z"/><path class="cls-7" d="M84.84,66c-5.23-.25-10.53,3.35-11.55,8.65a.17.17,0,0,0,.32.09c1.52-5,5.83-8.62,11.23-8.37.25,0,.25-.36,0-.37Z"/><path class="cls-7" d="M90.2,47.44A256,256,0,0,0,38.73,53.2c-.14,0-.08.24.06.22A340.14,340.14,0,0,1,90.2,47.79c.23,0,.23-.36,0-.35Z"/><path class="cls-7" d="M111.32,61.7a562,562,0,0,0-66,2.8c-.17,0-.17.28,0,.26,22-1.72,44-2.74,66-2.7a.18.18,0,1,0,0-.36Z"/><path class="cls-7" d="M117,79.67A663.5,663.5,0,0,0,18.8,89c-.21,0-.12.36.09.32A790.22,790.22,0,0,1,117,80.17c.32,0,.32-.51,0-.5Z"/><path class="cls-7" d="M119.65,95a750.87,750.87,0,0,0-100.26,7.57c-.15,0-.11.28,0,.26,33.38-3.88,66.66-6.1,100.23-7.44a.2.2,0,0,0,0-.39Z"/><path class="cls-7" d="M122,110.49c-22.61,2.41-45.23,4.79-67.81,7.43-.14,0-.14.24,0,.22,22.62-2.32,45.21-4.91,67.81-7.46.12,0,.12-.2,0-.19Z"/><path class="cls-7" d="M155.93,52.41a94.46,94.46,0,0,0-18.16,1.4c-.12,0-.09.23,0,.21a126.42,126.42,0,0,1,18.13-1.27.17.17,0,0,0,0-.34Z"/><path class="cls-7" d="M157.72,55.49c-1.87-.06-3.79-.11-5.65,0a.16.16,0,0,0,0,.32c1.86.12,3.78.07,5.65,0a.17.17,0,0,0,0-.34Z"/><path class="cls-7" d="M158.31,59.25c-6.74.16-13.5.5-20.23.91-.15,0-.16.25,0,.25,6.74-.19,13.5-.45,20.23-.89.16,0,.17-.27,0-.27Z"/><path class="cls-7" d="M158,63.29c-7,.52-14.08,1.11-21.12,1.73-.14,0-.14.23,0,.22q10.58-.8,21.12-1.74c.14,0,.14-.22,0-.21Z"/><path class="cls-7" d="M113.7,68.92l-10.11.62c-.12,0-.13.2,0,.19l10.11-.56c.16,0,.16-.26,0-.25Z"/><path class="cls-7" d="M112.21,85.12a0,0,0,0,0,0,0s0,0,0,0Z"/><path class="cls-7" d="M111.62,85.24c-3.77.07-7.56.52-11.31.88-.14,0-.15.24,0,.23,3.76-.21,7.58-.33,11.31-.82.17,0,.19-.29,0-.29Z"/><path class="cls-7" d="M122,104c-4.86.27-9.73.53-14.58.92-.12,0-.12.2,0,.19,4.86-.2,9.72-.54,14.58-.86.15,0,.15-.26,0-.25Z"/><path class="cls-7" d="M117.52,115.54c-10.41,1.35-20.82,2.74-31.2,4.31-.13,0-.1.24,0,.22,10.41-1.28,20.82-2.74,31.21-4.24.17,0,.13-.32,0-.29Z"/><path class="cls-7" d="M120.84,99.37a59.82,59.82,0,0,0-14,1.47.08.08,0,0,0,0,.16,71.81,71.81,0,0,1,14-1.31c.21,0,.21-.32,0-.32Z"/><path class="cls-7" d="M130.65,92.07q-5.94.75-11.89,1.53c-.16,0-.16.27,0,.25l11.89-1.45c.21,0,.22-.36,0-.33Z"/><path class="cls-7" d="M131.55,100.88s0,0,0,0a0,0,0,1,0,0,0Z"/><path class="cls-7" d="M141.05,98.25c-6.46.73-12.92,1.52-19.36,2.45-.15,0-.12.28,0,.27,6.46-.7,12.92-1.54,19.36-2.44.16,0,.12-.29,0-.28Z"/><path class="cls-7" d="M130.36,107.12s0,0,0,0,0,0,0,0Z"/><path class="cls-7" d="M131.84,120.56a156.16,156.16,0,0,0-28.58,4.57.15.15,0,0,0,.08.29,222.71,222.71,0,0,1,28.5-4.41c.28,0,.29-.47,0-.45Z"/><path class="cls-7" d="M132.91,49.24a2.78,2.78,0,0,0-2.3,3.69,2.92,2.92,0,0,0,4.31,1,3.13,3.13,0,0,0,0-4.71,3.33,3.33,0,0,0-4.91,1c-.07.12.11.28.21.16a3.25,3.25,0,0,1,4.18-1.09,2.82,2.82,0,0,1,.69,4.08,2.62,2.62,0,0,1-3.77,0,2.34,2.34,0,0,1,1.63-3.72c.25,0,.25-.41,0-.39Z"/><path class="cls-7" d="M115.27,37A3.2,3.2,0,0,0,118.51,41a3.37,3.37,0,1,0-3.16-1.61.13.13,0,0,0,.23-.13,3.3,3.3,0,0,1,1.18-4.28A3.21,3.21,0,0,1,121,36.25a3.18,3.18,0,0,1-2,4.37,2.94,2.94,0,0,1-3.45-3.53c0-.16-.2-.22-.24-.07Z"/><path class="cls-7" d="M130.61,24.37a2.69,2.69,0,0,0-1.92,3.54,2.87,2.87,0,0,0,4.26,1,3.19,3.19,0,0,0,.3-4.54,3.53,3.53,0,0,0-5,0c-.14.14.07.34.22.22a3.35,3.35,0,0,1,4.36-.15,2.85,2.85,0,0,1,.12,4,2.56,2.56,0,0,1-3.86-.55,2.36,2.36,0,0,1,1.62-3.28c.2,0,.12-.34-.08-.3Z"/><path class="cls-7" d="M99.6,25.71a2.47,2.47,0,0,0,1.46,3.58,2.36,2.36,0,0,0,3-2.2,3,3,0,0,0-2.41-3,4,4,0,0,0-4.07,2.59c-.06.14.19.24.25.1a4,4,0,0,1,2.61-2.39A2.58,2.58,0,0,1,103.54,26a2.09,2.09,0,1,1-3.67-.16c.09-.18-.18-.34-.27-.16Z"/><path class="cls-7" d="M69.48,21.15c-.76,2.11-.09,4.89,2.17,5.79a4.09,4.09,0,0,0,5.15-2.18,3.95,3.95,0,1,0-7.57-2.1.24.24,0,0,0,.46.13A3.68,3.68,0,0,1,74.07,20a3.64,3.64,0,0,1,2.2,5,3.68,3.68,0,0,1-5.09,1.36,4.36,4.36,0,0,1-1.4-5.07c.06-.19-.23-.27-.3-.08Z"/><path class="cls-7" d="M88.87,17.91a1.42,1.42,0,0,1,1.78.64,1.22,1.22,0,0,1-.72,1.64,1.13,1.13,0,0,1-1.58-.66,1.55,1.55,0,0,1,.44-1.6c.09-.12,0-.35-.17-.28-.79.3-.89,1.47-.6,2.15a1.55,1.55,0,0,0,2.15.74,1.61,1.61,0,0,0,.84-2.2,1.78,1.78,0,0,0-2.33-.76c-.22.12,0,.42.19.33Z"/><path class="cls-7" d="M94.47,9.14a1.86,1.86,0,0,1,2.29-.58,1.57,1.57,0,0,1,.67,2.16,1.53,1.53,0,0,1-2.12.8,2,2,0,0,1-1-2.11c0-.16-.22-.22-.3-.09A2.12,2.12,0,0,0,95.25,12a2,2,0,0,0,2.54-1.14,1.94,1.94,0,0,0-.85-2.6A2.19,2.19,0,0,0,94.2,9c-.11.16.16.32.27.15Z"/><path class="cls-7" d="M69.6,18.64a5.38,5.38,0,0,0-2.68,3.68c0,.13.16.19.2.06a6,6,0,0,1,2.62-3.5.14.14,0,0,0-.14-.24Z"/><path class="cls-7" d="M79,22.58a2.25,2.25,0,0,1-.5,2.89c-.1.09,0,.27.15.19a2.26,2.26,0,0,0,.55-3.19c-.08-.12-.28,0-.2.11Z"/><path class="cls-7" d="M87.12,17.18a2.6,2.6,0,0,0-.57,2.52c0,.11.23.11.23,0a3.21,3.21,0,0,1,.57-2.31c.11-.13-.12-.3-.23-.18Z"/><path class="cls-7" d="M85.69,17.54A2.58,2.58,0,0,0,85.32,21c.08.1.22,0,.17-.12a2.6,2.6,0,0,1,.36-3.15c.11-.1,0-.26-.16-.16Z"/><path class="cls-7" d="M91.24,18.06a2,2,0,0,1,.34,2.74.14.14,0,0,0,.22.17c.93-.84.5-2.46-.38-3.14-.13-.1-.32.13-.18.23Z"/><path class="cls-7" d="M106.27,5.71s0,0,0,0a0,0,0,0,0,0,0Z"/><path class="cls-7" d="M106.76,5.42a17.94,17.94,0,0,0,.52,1.81c.08.22.42.13.35-.1-.18-.6-.44-1.18-.67-1.76,0-.11-.23-.07-.2,0Z"/><path class="cls-7" d="M110,5.4a7.32,7.32,0,0,0,0,1.81.11.11,0,0,0,.21,0,7.83,7.83,0,0,0,0-1.81.15.15,0,0,0-.3,0Z"/><path class="cls-7" d="M112.54,7.6a17.19,17.19,0,0,0,1.84-.87c.18-.11,0-.36-.17-.28a14.72,14.72,0,0,0-1.76.92c-.12.07,0,.29.09.23Z"/><path class="cls-7" d="M112.78,10a6.11,6.11,0,0,0,1.52.3.13.13,0,0,0,0-.26,5.8,5.8,0,0,0-1.49-.3c-.17,0-.25.22-.07.26Z"/><path class="cls-7" d="M110.63,12a6.62,6.62,0,0,0,.61,1.22c.07.1.25,0,.21-.09a6.28,6.28,0,0,0-.6-1.22c-.07-.11-.27,0-.22.09Z"/><path class="cls-7" d="M108,12.5a3.09,3.09,0,0,0-.55.94.09.09,0,0,0,.13.1,3.34,3.34,0,0,0,.68-.89c.12-.16-.15-.32-.26-.15Z"/><path class="cls-7" d="M105.93,11.21a23.2,23.2,0,0,0-2.7.92c-.14.06,0,.26.09.23a22.69,22.69,0,0,0,2.68-.88c.17-.06.1-.32-.07-.27Z"/><path class="cls-7" d="M106,9.41l-1.28-.33a4.05,4.05,0,0,0-1.14-.23.12.12,0,0,0-.06.22,4.32,4.32,0,0,0,1.11.34l1.29.3a.16.16,0,0,0,.08-.3Z"/><path class="cls-7" d="M116.69,19.82a2.51,2.51,0,0,0,.08,4.06,2.94,2.94,0,0,0,4.41-1.37,2.94,2.94,0,1,0-5.66-.8.11.11,0,0,0,.21,0,2.85,2.85,0,0,1,2.78-2.91A2.72,2.72,0,0,1,121,22.12a2.68,2.68,0,0,1-3.53,1.8,2.34,2.34,0,0,1-.66-4c.07-.07,0-.21-.12-.15Z"/><path class="cls-7" d="M130.34,36.92A1.27,1.27,0,0,1,132,38.83c-1.1,1.14-2.49-.28-2.06-1.53,0,0-.06-.08-.08,0a1.47,1.47,0,0,0,.41,1.88,1.38,1.38,0,0,0,1.91-.22,1.47,1.47,0,0,0-1.93-2.19.11.11,0,0,0,.11.19Z"/><path class="cls-7" d="M124.05,45.55c.42-1.62,3-1.55,2.94.27a1.4,1.4,0,0,1-1.33,1.46A1.72,1.72,0,0,1,124,45.82c0-.09-.15-.07-.15,0a1.8,1.8,0,0,0,1.81,1.73,1.69,1.69,0,0,0,1.63-1.69,1.66,1.66,0,0,0-1.44-1.79,1.86,1.86,0,0,0-2,1.4c0,.13.17.19.2.06Z"/><path class="cls-7" d="M110.27,31.47c-.17.37-.44.64-.16,1a1.39,1.39,0,0,0,1,.51,1.24,1.24,0,0,0,1.41-1.08,1.34,1.34,0,0,0-1.1-1.54,1.39,1.39,0,0,0-1.52,1.23c0,.11.18.14.2,0a1.29,1.29,0,0,1,1.19-1,1.09,1.09,0,0,1,1.05,1.19,1,1,0,0,1-1.19,1,1.25,1.25,0,0,1-.73-.32c-.29-.29-.05-.55.1-.87.06-.13-.14-.24-.2-.11Z"/><path class="cls-7" d="M118.06,27.91c1.21-1.12,3.33.24,2.43,1.79-1,1.72-3.3.25-2.67-1.44,0-.07-.08-.11-.12-.05a1.79,1.79,0,0,0,.71,2.3,1.64,1.64,0,0,0,2.24-.62A1.7,1.7,0,0,0,118,27.83c0,.05,0,.13.08.08Z"/><path class="cls-7" d="M106.24,16.86a2.66,2.66,0,0,0-2.2,3.6A2.61,2.61,0,1,0,108,17.31a2.66,2.66,0,0,0-3.86,1c0,.1.11.15.17.07a2.54,2.54,0,0,1,3.65-.72,2.32,2.32,0,1,1-3.69,2.54,2.48,2.48,0,0,1,2-3.12c.12,0,.09-.22,0-.2Z"/><path class="cls-7" d="M78.11,6.64A3.22,3.22,0,0,0,75.8,11a3.39,3.39,0,0,0,4.52,1.49,3.47,3.47,0,0,0,1-5A3.6,3.6,0,0,0,76,7.3a.16.16,0,0,0,.23.23,3.24,3.24,0,0,1,4.91.35,3.15,3.15,0,0,1-.92,4.25,3.09,3.09,0,0,1-4-1c-1-1.73.27-3.61,1.92-4.22.12,0,.12-.26,0-.24Z"/><path class="cls-7" d="M67,10.44a1.51,1.51,0,0,1,1.68-.93,1.27,1.27,0,0,1,1,1.42,1.31,1.31,0,0,1-1.33,1.26,1.63,1.63,0,0,1-1.43-1.46c0-.06-.12-.06-.13,0a1.63,1.63,0,0,0,1.44,1.67A1.54,1.54,0,0,0,69.86,11,1.51,1.51,0,0,0,68.6,9.24a1.7,1.7,0,0,0-1.88,1.13c0,.16.19.22.24.07Z"/></svg>