<?xml version="1.0" encoding="utf-8"?>
<!-- Generator: Adobe Illustrator 24.1.2, SVG Export Plug-In . SVG Version: 6.00 Build 0)  -->
<svg version="1.1" id="illustration" xmlns="http://www.w3.org/2000/svg" xmlns:xlink="http://www.w3.org/1999/xlink" x="0px"
	 y="0px" viewBox="0 0 198.4 136.9" style="enable-background:new 0 0 198.4 136.9;" xml:space="preserve">
<style type="text/css">
	.st0{fill:#E55257;}
	.st1{fill:#EDA46D;}
	.st2{fill:#ADE0F0;}
	.st3{fill:#FFFFFF;}
	.st4{fill:#42170C;}
	.st5{fill:#A55E5F;}
	.st6{fill:#010101;}
	.st7{opacity:0.15;fill:#010101;}
</style>
<path class="st0" d="M68.3,45.4c0,0,1-9.3,15.4-11s28.4,7.8,28.4,7.8s5.7,4,6,5.4s2.9,10.9,4.3,12.5c0.6,0.8,1.4,1.4,2.3,1.9
	l4.3-0.3c0,0,0.5,1.3,0.4,1.4c-0.1,0.4-0.2,0.8-0.2,1.2l-1.2,0.4l0.2,0.5l0.7,1.1l-0.4,1.2l-1.3,0.4l-1.3-0.2l-1-0.9l-0.5-0.5
	c0,0-0.7,1.8-0.4,2.5s1.3,2.8,3.5,2.8s11.3-2.6,11.3-2.6l7-1.8l3.9-1.5l2.4-1.7l1.7-2.2l1-3.9l-0.3-3.1l-0.9-2.7l-1.8-3.5l0.2-1.1
	l1.3-1.2l1.3,0.1l0.9,1l1.1,1.4l1.4,2.5l1.1,3l0.4,2.2l0.1,2.7l-0.3,2.8l-0.6,2l-1,2.2l-1.3,2.1l-1.8,2.1l-2.8,2.4l-2.5,1.3
	l-2.3,0.8l-3,0.5h-6l-1.3,0.1l-1.3,1.5l-0.8,2.2v1.8l0.4,1.8l1.3,2l1.4,2l1.5,2.7l0.6,1.4l0.9,2.4c0,0,2.8,7.8,0.5,14.9
	s-3.4,8.6-5.8,11.7c-2,2.3-4.3,4.2-6.8,5.8l0.1-2.4c0.3-1.5,0.9-2.9,1.6-4.2c1.2-1.9,3.3-5.8,3.3-5.8l0.8-1.8l1.4-4.2l0.3-4.6
	l-0.2-2.3l-0.1-0.8l-0.7-2.5l-1.1-3l-1.6-2.7l-2-2.5l-0.7-0.7l-3.4,1.2l-2.2,2l-1.1,1.9l-0.3,0.5l0.9,2.5l0.9,2.9l0.5,2.1l0.2,3.7
	l-0.4,3.6l-1.1,2.9l-1.1,2.1l-2.3,2.8l-2.1,1.5l-4.3,2.4l-3.1,1.1l-8.6,2.5l-3.4,1l-3.4,1l-3.2,0.9l-4.6,1.6l-1.7-1l0.1-1.4l0.5-2
	l0.7-0.7l1.7-1l3.1-1.2l2.7-0.7l4.1-0.6l3.8-0.6l2.8-0.6l2.8-0.9l2.2-1l2-1.4l2.2-2l1.3-1.8l1.1-2.2l0.9-2.7l0.7-4.5l-0.2-4
	l-0.4-2.6l-0.5-1.8l-5.5-1.5l-5,0.1l-2.9,0.5l-3.1,2.4l-2,1.6l-2.5,1.5l-4.3,2l-1.1,0.5l-3.4,1l-2.5,0.9l-3.2,0.6l-2.8,0.7l-4.3,0.5
	l-6.8,0.8l-3.4-0.1l-3.1-0.8v-1.1l1.1-0.9l2.4-0.6l3.2-0.5l3.5-0.2l1.8-0.3l2.4-0.3l2.8-0.7l2.4-0.6l2.6-0.8l1.9-0.7l1.9-0.6
	l1.7-0.7l4.6-2l2-0.9l3.6-2l2-1.3l3.4-2.7l1.3-2.6l0.5-1.6l0.1-2.4l-1.1-2.3l-1.5-1.5l-4.8,0.2l-4.4,0.8l-3.6,0.8l-6,2.5l-3.4,2
	l-2.8,2l-2,1.6l-1.5,1.6l-2.4,2.6l-1.8,1.3l-1-1l-0.3-1.7l0.5-1.1l0.7-1.3l1-1.4l1.2-1.6l1.3-1.9l1.3-1.8l2.3-2.3l2.5-2l2.1-1.2
	l2.2-1l3.2-1.1l2.5-0.5l2.5-0.3l2.9-0.1h3.5l2.9,0.2l2.9,0.3l3.5,0.3l2-1.3v-1.9l-0.5-2.3l-1.2-2.8l-1.6-2.2l-2.2-1.6l-4-1.3
	l-3.2,0.2l-1.6-0.7l-3.1-1.2l-1.4,0.1l-1.7-0.4l-0.8-0.4l-0.1-0.1l-0.6-0.2L82,57.5l-3.1-0.4l-4.2-1.4l-3-2l-1.1-1.2L69.2,50
	l-0.8-1.9v-2.5L68.3,45.4z"/>
<path class="st1" d="M123.9,68.2l0.3,1.1l0.8,1.1l1.4,0.9l1.5,0.3l-1.6,0.5l-0.9,0.1c0,0-1.7,0.3-1.9,0S123.9,68.2,123.9,68.2z"/>
<polygon class="st1" points="130,78.5 131.8,77 133,76.4 134.6,75.9 136.1,75.7 136.8,75.7 135.8,77.1 134.9,78.7 134.6,80 
	134.9,82 135.5,84 131.4,79.9 130,78.9 129.6,78.6 "/>
<polygon class="st1" points="122.9,93.9 123.9,92 125.3,90.5 127.1,89.3 128.5,88.6 129.8,88.3 128.7,87.4 127.2,86.2 126.3,85.8 
	124.6,86 123.4,86.5 122.5,87 121.9,87.9 121.4,88.8 121.1,89.7 121.1,90.2 121.1,90.8 121.7,92.2 "/>
<path class="st1" d="M104.8,93.1l4.7-0.6l2.2,0.1l2.5,0.4l2,0.7l1.5,0.5l-0.4-1.5l-0.4-1.2c0,0,0.2-2.4-1.4-2.8s-4.2,0.9-4.2,0.9
	l-2.7,1l-2.7,1.5L104.8,93.1z"/>
<path class="st1" d="M104.4,77.7l1,1l1.2,2.3l0.2,2.2l-0.7,2.2l-1.1,2.2l1.9-2.2l1.6-2l0.9-1.8l0.5-1.5c0.1-0.5,0.1-1,0-1.5
	c-0.2-0.4-3.1-0.7-3.1-0.7l-2-0.2H104.4z"/>
<path class="st2" d="M98.3,35.8l0.5-0.5l8,3.1l0.4,0.1l-0.4,3l-0.6,2.8l-1.4,4.4l-1.5,3.1l-1.8,3.5l-1.6,2.3l-2,2.3l-1.7-0.5
	l-2.5-0.9c-1.5,0.2-3-0.2-4.1-1.2c2.5-1.9,4.7-4.2,6.3-6.8l1.9-3l1.3-3.2l1-3.4l0.4-2.2l-0.3-1.8l-0.9-0.8L98.3,35.8z"/>
<path class="st3" d="M116.3,51.9l0.8-1.2l1.4-1h1.5l1.5,0.5l1.6,1.9l0.4,1.8l-0.2,1.9l-0.8,1.4l-1,0.9l-1.5,0.2l-1.2-0.4l-0.8-0.5
	l-0.6,1.5l-1.4,1.3l-1.6,0.6c-2.4,0-4.7-1.3-5.7-3.5c-1.9-3.7,0.2-6.5,1.6-7.2S114.3,48.5,116.3,51.9z"/>
<path class="st4" d="M110.5,54.5c-1.3,0.5-1.2,2.6-0.1,3.3c0.6,0.4,1.5,0.3,2-0.3c0.4-0.5,0.5-1.2,0.4-1.8c-0.1-0.7-0.6-1.4-1.3-1.5
	c-0.7,0-1.3,0.6-1.3,1.3c0,0.1,0,0.1,0,0.2c0,0.7,0.6,1.5,1.4,1.3c0.5-0.1,0.8-0.6,0.7-1.1c-0.1-0.3-0.2-0.5-0.5-0.6
	c-0.8-0.3-1.5,0.8-0.7,1.2l0.5-0.6v-0.1c0-0.1,0-0.2,0-0.2c0,0.1,0-0.1,0,0c0.1,0.1,0.1,0.2,0.1,0.3c0.1,0.3,0.1,0.8-0.2,0.9
	c-0.8,0.5-1.3-1.3-0.7-1.7C111,54.8,110.8,54.3,110.5,54.5L110.5,54.5z"/>
<path class="st4" d="M120,54.1c-0.3-0.3-0.8-0.1-1,0.3c-0.2,0.4-0.3,1-0.1,1.4c0.3,0.6,1.1,0.9,1.7,0.5c0.4-0.2,0.7-0.6,0.7-1.1
	c0-1.3-1.6-2.3-2.5-1.2c-0.4,0.5-0.3,1.2,0.2,1.6c0.5,0.4,1.2,0.3,1.6-0.2c0-0.1,0.1-0.1,0.1-0.2c0.2-0.4,0.1-0.8-0.3-1
	c-0.1,0-0.1-0.1-0.2-0.1c-0.1,0-0.1,0-0.2,0c-0.3,0-0.6,0.2-0.7,0.5l0.6,0V55c0,0,0.1,0,0.1,0.1s0.1,0.3-0.1,0.3
	c-0.3,0-0.2-0.8,0-0.9c0.1,0,0.2-0.2,0.1-0.3c0,0,0-0.1,0-0.1L120,54.1z"/>
<path class="st3" d="M111.8,57.9c0.5-0.1,0.9-0.5,0.8-1c0-0.4-0.4-0.8-0.8-0.8c-0.5,0.1-0.9,0.5-0.8,1
	C111,57.5,111.4,57.9,111.8,57.9z"/>
<path class="st3" d="M120.3,55.8c0.2,0,0.3-0.2,0.3-0.4c0-0.2-0.2-0.3-0.3-0.3s-0.3,0.2-0.3,0.3C119.9,55.7,120.1,55.8,120.3,55.8z"
	/>
<path class="st3" d="M120.3,55.9c0.2,0,0.4-0.2,0.4-0.4c0-0.2-0.2-0.4-0.4-0.4c-0.2,0-0.4,0.2-0.4,0.4
	C119.9,55.7,120,55.9,120.3,55.9z"/>
<path class="st3" d="M120.3,55.9c0.2,0,0.3-0.2,0.3-0.4c0-0.2-0.1-0.3-0.3-0.3c-0.2,0-0.3,0.2-0.3,0.4
	C120,55.7,120.1,55.8,120.3,55.9z"/>
<path class="st3" d="M120.4,56c0.3,0,0.5-0.2,0.5-0.5s-0.2-0.5-0.5-0.5s-0.5,0.2-0.5,0.5S120.1,56,120.4,56z"/>
<path class="st3" d="M70.8,43.1c1.4-1.6,2.6-3.4,4.4-4.6s3.9-1.6,6-2.4c0.3-0.1,0.3-0.5,0-0.6c-4.1-0.8-10,3.4-10.8,7.4
	C70.5,43.1,70.7,43.3,70.8,43.1L70.8,43.1z"/>
<path class="st3" d="M108.7,42.7c0.5,0.2,1,0.4,1.5,0.5c0.7,0.2,1.4,0.6,2,1c1,0.7,1.8,2,2.9,2.6c0.3,0.2,0.8-0.1,0.6-0.5
	c-0.7-2-4.9-5.2-7.1-4c-0.1,0.1-0.1,0.2-0.1,0.3C108.7,42.6,108.7,42.7,108.7,42.7L108.7,42.7z"/>
<path class="st3" d="M103.1,38.6c0.1,1.7,0,3.5-0.2,5.2c-0.3,1.5-0.8,3-1.3,4.5c0,0.1,0,0.2,0.1,0.2c0.1,0,0.1,0,0.2-0.1
	c1.6-3,2.1-6.5,1.5-9.9c0-0.1-0.1-0.2-0.2-0.2S103.1,38.4,103.1,38.6L103.1,38.6z"/>
<path class="st3" d="M103.1,48.6c-0.9,1.6-1.4,3.4-2.2,5s-2.1,3-2.9,4.6c0,0,0,0.1,0,0.2c0,0,0.1,0,0.2,0c1.4-1.4,2.6-3,3.4-4.8
	c0.9-1.5,1.5-3.2,1.8-4.9c0-0.1,0-0.1-0.1-0.2C103.1,48.5,103.1,48.5,103.1,48.6L103.1,48.6z"/>
<path class="st3" d="M93.3,56.5c3-2,6-6,6.5-9.6c0-0.1-0.1-0.1-0.1,0c-0.9,1.6-1.5,3.3-2.5,4.9c-1.2,1.7-2.5,3.2-4,4.5
	C93.1,56.4,93.2,56.6,93.3,56.5L93.3,56.5z"/>
<path class="st3" d="M125.1,62.3c0.8-0.2,1.5-0.3,2.3-0.2c1.3,0.2,0.8,1.4,0.2,2.1c-0.2,0.3,0.2,0.6,0.4,0.4
	c0.6-0.7,1.3-1.9,0.4-2.7s-2.5-0.4-3.5-0.2c-0.1,0.1-0.2,0.2-0.1,0.4C124.8,62.3,125,62.3,125.1,62.3z"/>
<path class="st3" d="M108,51.4C108,51.4,108,51.4,108,51.4C108,51.3,108,51.3,108,51.4C108,51.3,107.9,51.3,108,51.4
	C107.9,51.4,108,51.4,108,51.4C108,51.4,108,51.4,108,51.4z"/>
<path class="st3" d="M108.2,51.6c1.6-1.3,3.6-3.4,5.8-1.6c0.4,0.4,1.1-0.3,0.6-0.6c-2.3-1.8-5.5-0.4-6.6,2.1c0,0.1,0,0.2,0,0.2
	C108.1,51.6,108.2,51.6,108.2,51.6z"/>
<path class="st3" d="M117.1,50.2c0.2-0.1,0.4-0.2,0.6-0.3c0.3-0.1,0.5-0.2,0.8-0.3c0.2-0.1,0.3-0.4,0.1-0.6
	c-0.1-0.1-0.2-0.2-0.3-0.2c-0.6,0-1.2,0.4-1.5,1c0,0.1,0.1,0.3,0.2,0.3C117,50.2,117,50.2,117.1,50.2L117.1,50.2z"/>
<path class="st3" d="M80.7,78.5c1.8-0.4,3.4-1.5,5.1-2.1c1.4-0.5,3.1-0.7,4.3-1.7c0.2-0.2,0.2-0.5,0-0.7c-0.1,0-0.1-0.1-0.2-0.1
	c-1.7-0.3-3.4,0.6-4.9,1.3s-3.4,1.5-4.5,3C80.3,78.4,80.5,78.6,80.7,78.5L80.7,78.5z"/>
<path class="st3" d="M82.3,101.2c3.9-0.7,8.5-1.8,11.6-4.3c0.1-0.1,0.1-0.3,0-0.4c-0.1-0.1-0.2-0.1-0.3-0.1C91.7,97,89.9,98,88,98.7
	c-1.9,0.7-3.9,1.3-5.9,1.7C81.6,100.5,81.8,101.2,82.3,101.2L82.3,101.2z"/>
<path class="st3" d="M119.2,91.8c0.6,1,1.5,1.8,2.1,2.9s0.8,2.2,1.4,3.3c0.1,0.1,0.3,0.1,0.3-0.1c-0.1-2.6-1.4-4.9-3.5-6.3
	C119.3,91.5,119.1,91.7,119.2,91.8z"/>
<path class="st3" d="M134.1,84.8c1.9,2,3.4,4.4,4.4,7c0.8,2.2,0.8,4.5,1.2,6.8c0,0.2,0.3,0.2,0.4,0c1.6-5-1.8-11.2-5.7-14.1
	C134.2,84.3,133.9,84.7,134.1,84.8L134.1,84.8z"/>
<path class="st3" d="M136.6,71.1c2.8-1.2,5.9-1.4,8.7-2.3c2.7-0.8,5.3-2,7.7-3.4c0.2-0.1,0.3-0.4,0.2-0.6c-0.1-0.2-0.4-0.3-0.6-0.2
	c-2.8,1.4-5.8,2.6-8.8,3.6c-2.5,0.8-5.1,1.2-7.4,2.5C136.3,70.8,136.4,71.1,136.6,71.1z"/>
<path class="st3" d="M153.8,50.4c-0.2-0.2-0.3-0.6-0.3-0.9c0.1-0.3,0.4-0.5,0.5-0.8c0.1-0.2,0-0.4-0.1-0.5c0,0,0,0-0.1,0
	c-1.4-0.4-1.8,2.5-0.2,2.5c0.1,0,0.2-0.1,0.2-0.2C153.8,50.5,153.8,50.4,153.8,50.4L153.8,50.4z"/>
<path class="st3" d="M122.6,89.3c0.2-0.5,0.6-0.9,1.1-1.2c0.4-0.3,1-0.3,1.3-0.6c0.1-0.1,0.1-0.4,0-0.5c0,0-0.1-0.1-0.2-0.1
	c-0.6-0.2-1.3,0.3-1.7,0.7c-0.5,0.4-0.9,0.9-1.1,1.6C121.9,89.4,122.4,89.7,122.6,89.3L122.6,89.3z"/>
<path class="st3" d="M112.6,90.3c0.8-0.3,1.6-0.4,2.4-0.1c0.5,0.2,0.8-0.6,0.3-0.8c-1-0.4-2.1-0.3-3,0.4c-0.1,0.1-0.1,0.3,0,0.4
	C112.4,90.4,112.5,90.4,112.6,90.3L112.6,90.3z"/>
<path class="st3" d="M107.1,79.1c0.6,0,1.2,0.2,1.7,0.5c0.3,0.1,0.6,0,0.7-0.2c0.1-0.2,0.1-0.4-0.1-0.6c-0.6-0.6-1.6-0.8-2.4-0.4
	C106.6,78.5,106.6,79.2,107.1,79.1z"/>
<path class="st3" d="M131.6,79c-0.1-0.4,0-0.8,0.3-1c0.5-0.3,0-1.2-0.5-0.8c-0.6,0.4-0.8,1.2-0.4,1.9c0.1,0.1,0.1,0.2,0.2,0.3
	C131.4,79.5,131.7,79.3,131.6,79L131.6,79z"/>
<path class="st5" d="M124.2,76.3c0.2,0.7,0.5,1.3,0.9,1.9c0.3,0.6,0.7,1.2,1.1,1.8c0.1,0.2,0.4,0,0.3-0.2c-0.3-0.7-0.6-1.3-1-1.9
	c-0.3-0.6-0.7-1.2-1.1-1.8c-0.1,0-0.1,0-0.2,0C124.2,76.1,124.2,76.2,124.2,76.3L124.2,76.3z"/>
<path class="st5" d="M123.5,69.4c0,1,0.1,1.9,0.3,2.9c0.1,0.3,0.6,0.2,0.5-0.1c-0.2-0.9-0.3-1.8-0.4-2.8c0-0.1-0.2-0.2-0.3-0.2
	C123.6,69.3,123.5,69.3,123.5,69.4z"/>
<path class="st5" d="M124,69.8C124,69.8,124.1,69.8,124,69.8c0.1-0.1,0-0.2,0-0.2S123.9,69.7,124,69.8C123.9,69.8,124,69.8,124,69.8
	L124,69.8z"/>
<path class="st5" d="M104.6,75.2c0.6,0,1.3-0.1,1.8-0.3c0.6-0.2,1.2-0.4,1.8-0.8c0.2-0.2,0-0.4-0.2-0.4c-0.6,0.2-1.2,0.5-1.8,0.7
	c-0.6,0.1-1.1,0.3-1.6,0.6c-0.1,0-0.1,0.1-0.1,0.2C104.5,75.1,104.5,75.2,104.6,75.2L104.6,75.2z"/>
<path class="st5" d="M108.1,92.3c1.1,0.1,2.2,0,3.4,0.1c1.3,0.1,2.5,0.5,3.7,0.7c0.2,0,0.3-0.2,0.2-0.3c-2.2-1.2-4.9-1.5-7.3-0.7
	c-0.1,0-0.1,0.1-0.1,0.1C107.9,92.2,107.9,92.3,108.1,92.3L108.1,92.3z"/>
<path class="st5" d="M123.6,92.3c1.1-1.9,3-3.3,5.1-3.9c0.2-0.1,0.2-0.5-0.1-0.5c-2.4,0.4-4.4,2-5.4,4.2
	C123.2,92.3,123.5,92.5,123.6,92.3z"/>
<path class="st5" d="M134.8,81.5c-0.4-1.5-0.2-3,0.6-4.3c0.1-0.1,0-0.3-0.1-0.4c-0.1-0.1-0.3,0-0.4,0.1c-1,1.4-1.2,3.2-0.7,4.8
	c0,0.1,0.2,0.2,0.3,0.2C134.7,81.8,134.8,81.7,134.8,81.5L134.8,81.5z"/>
<path class="st5" d="M105.9,79.7c0.2,0.6,0.6,1.1,0.7,1.8c0,0.6,0.1,1.1,0.2,1.7c0,0.1,0.1,0.1,0.2,0c0,0,0,0,0,0
	c0.3-0.5,0.2-1.3,0-1.8c-0.1-0.7-0.4-1.3-0.9-1.8C106,79.5,105.8,79.6,105.9,79.7L105.9,79.7z"/>
<path class="st5" d="M70.9,90.2c-0.2,1.1,0.6,2.7,1.9,2c0.7-0.4,1.1-1.3,1.5-1.9c0.7-0.9,1.7-1.5,2.4-2.4c0.1-0.1,0.1-0.3,0-0.4
	c-0.1-0.1-0.2-0.1-0.3,0c-1,0.6-1.9,1.3-2.6,2.3c-0.3,0.4-0.6,0.7-0.9,1.1c-0.1,0.2-0.2,0.3-0.4,0.5l-0.9-0.3
	c-0.2-0.2-0.3-0.5-0.4-0.8C71.3,90,71.1,90,71,90C71,90.1,71,90.1,70.9,90.2L70.9,90.2z"/>
<path class="st5" d="M66,105.5c3.8,0.6,8.2-0.5,12-1.1c0.2,0,0.2-0.4-0.1-0.4c-3.8,0.2-8.3-0.2-12,1.1
	C65.8,105.2,65.7,105.4,66,105.5L66,105.5z"/>
<path class="st5" d="M87.4,126.5c-0.4,1,0.4,1.6,1.3,1.6c0.8-0.1,1.6-0.4,2.4-0.7c0.9-0.3,1.8-0.7,2.7-1.1c0.1-0.1,0.1-0.2,0.1-0.3
	c-0.1-0.1-0.2-0.1-0.3-0.1c-0.9,0.2-1.8,0.5-2.7,0.9c-0.4,0.1-3.3,1.6-3.2-0.1C87.7,126.4,87.4,126.3,87.4,126.5z"/>
<path class="st5" d="M119.7,117.1c2.5-1.8,4.2-4.6,4.8-7.6c0.1-0.3-0.4-0.5-0.5-0.1c-0.7,2.9-2.2,5.5-4.4,7.5
	C119.4,116.9,119.5,117.2,119.7,117.1z"/>
<path class="st5" d="M129.3,121.8c-0.2,0.7-0.6,3.3,0.9,2.9c0.7-0.3,1.4-0.8,2-1.4c0.8-0.7,1.6-1.5,2.3-2.3c0.4-0.4-0.3-1-0.6-0.6
	c-0.7,0.9-1.5,1.7-2.4,2.5c-0.4,0.4-0.8,0.8-1.2,1.1c-1.1,0.4-0.7-1.5-0.6-2C129.8,121.6,129.4,121.5,129.3,121.8L129.3,121.8z"/>
<path class="st5" d="M145.4,75.3c5.6-0.5,10.4-4,12.6-9.2c0.1-0.2-0.2-0.3-0.3-0.2c-1.7,2-3.1,3.9-5.4,5.4c-2.2,1.3-4.6,2.4-7,3.3
	C145,74.7,145,75.3,145.4,75.3L145.4,75.3z"/>
<path class="st5" d="M120,65.2c0.8-0.2,1.6-0.1,2.3,0.3c0.6,0.3,1,0.8,1.6,1.1c0.1,0.1,0.2,0,0.3-0.1c0-0.1,0-0.2,0-0.2
	c-0.7-1.6-3.1-2.9-4.6-1.6C119.5,64.9,119.7,65.3,120,65.2z"/>
<path class="st5" d="M125.1,66.9L125.1,66.9L125.1,66.9z"/>
<path class="st5" d="M125,66.8c0.3,1,1.7,1.1,2.4,0.8s1.8-1.3,1.2-2.1c-0.1-0.1-0.3-0.1-0.4,0c-0.2,0.1-0.3,0.3-0.4,0.5
	c-0.1,0.3-0.4,0.6-0.7,0.8c-0.7,0.4-1.3,0-2-0.2C125.1,66.6,125,66.7,125,66.8C125,66.8,125,66.8,125,66.8L125,66.8z"/>
<path class="st5" d="M98.2,60.2c1.6-1.4,2.8-3.2,3.7-5.1c0.1-0.3-0.3-0.4-0.4-0.2c-0.6,0.8-1.1,1.8-1.7,2.6s-1.3,1.6-1.9,2.5
	C97.8,60.2,98.1,60.4,98.2,60.2L98.2,60.2z"/>
<path class="st5" d="M101.8,55.3c1.5-2,2.4-4.6,3.6-6.8c0.1-0.3-0.3-0.5-0.4-0.3c-1.1,2.2-2.7,4.5-3.4,6.9
	C101.5,55.3,101.7,55.4,101.8,55.3z"/>
<path class="st5" d="M105.3,48.3c1.1-2.6,1.9-5.3,2.4-8c0-0.1-0.1-0.2-0.2-0.3c-0.1,0-0.2,0-0.2,0.1c-0.7,2.6-1.8,5.3-2.3,7.9
	C104.9,48.3,105.2,48.5,105.3,48.3L105.3,48.3z"/>
<path class="st3" d="M71.1,20.4c-1.5,1.1-1.9,3.2-0.9,4.7c0.5,0.8,1.4,1.3,2.4,1.4c1.5,0.2,2.9-0.5,3.6-1.9c0.6-1.4,0.3-2.9-0.7-4
	c-1.1-1.1-2.9-1.3-4.2-0.5c-1.2,0.9-1.5,2.6-0.7,3.9c0.7,1.1,2.2,1.4,3.3,0.7c0.2-0.1,0.4-0.3,0.5-0.5c0.8-1.1,0.3-3-1.3-3.1
	c-1.4,0-2.8,1.9-1.2,2.7s2.7-1.4,1.4-2.5l-0.3,1.3c0.6-0.1,1.1,0.2,1.2,0.8c0.1,0.6-0.2,1.1-0.8,1.2c-0.3,0.2-0.4,0.6-0.3,0.9
	c0.2,0.3,0.5,0.4,0.8,0.3c1.1-0.4,1.7-1.7,1.2-2.8c-0.2-0.4-0.4-0.8-0.8-1c-0.5-0.3-1.3,0.4-0.9,0.9c0.4,0.6,0.4,1.4-0.2,1.8
	c0,0-0.1,0.1-0.2,0.1c-0.7,0.2-1.4-0.1-1.6-0.8c0-0.1,0-0.2-0.1-0.2c-0.2-0.9-1.5-0.5-1.3,0.4c0.4,1.4,1.8,2.2,3.2,1.9
	c0.1,0,0.2-0.1,0.3-0.1c1.3-0.6,1.8-2.2,1.2-3.5c-0.1-0.1-0.1-0.2-0.2-0.3l-0.9,0.9c0.4,0.3,0.5,0.8,0.2,1.2
	c-0.1,0.1-0.2,0.2-0.3,0.3l0.5,1.2c1.2-0.6,1.6-2.1,1-3.2c-0.4-0.8-1.2-1.3-2.1-1.3c-0.4,0-0.7,0.3-0.7,0.7c0,0.2,0.1,0.5,0.3,0.6
	l-0.1-0.1l0.1,0.5c0.2-1,1.5,0.1,0.5,0.7c-1.1,0.6-1.8-1-1.4-1.8c0.4-0.8,1.4-1.2,2.3-0.9c0.9,0.3,1.5,1.1,1.5,2.1
	c0.1,1.3-0.9,2.5-2.3,2.6c-0.4,0-0.7,0-1.1-0.2c-1.9-0.7-1.8-3.2-0.4-4.4C71.9,20.8,71.5,20.1,71.1,20.4z"/>
<path class="st3" d="M75.3,22.7c0-1.1-1-2.1-2.1-2.1c-1.2,0-2.2,0.8-2.3,2c0,0.4,0.2,1.1,0.7,1.2s0.6-0.3,0.8-0.7s0.3-0.9,0.8-1
	c0.4,0,0.8,0.3,1.1,0.6C74.4,23.4,75.4,23.4,75.3,22.7L75.3,22.7z"/>
<path class="st3" d="M67.7,9.5c-0.8,0.4-1.1,1.4-0.7,2.2c0.4,0.7,1.3,0.9,2,0.5c0.1,0,0.1-0.1,0.2-0.1c0.5-0.4,0.6-1.2,0.2-1.8
	c-0.1-0.1-0.2-0.2-0.3-0.3c-0.7-0.4-1.5-0.1-1.9,0.6c0,0.1-0.1,0.1-0.1,0.2c-0.1,0.3,0.1,0.7,0.5,0.8s0.7-0.1,0.8-0.5l0,0
	c0,0.1-0.2,0,0,0h0.1l0.1,0.1c-0.1-0.2-0.1-0.2-0.1-0.1s-0.1,0.1-0.2,0.1c-0.6,0.3-0.4-0.6-0.1-0.9c0.2-0.1,0.3-0.5,0.2-0.7
	S67.9,9.4,67.7,9.5L67.7,9.5z"/>
<path class="st3" d="M78.4,6.3c-1.8,0.3-2.9,2-2.6,3.8c0.1,0.7,0.5,1.3,1,1.8c1.3,1.1,3.2,0.9,4.2-0.4c0.5-0.6,0.7-1.3,0.7-2
	c-0.2-1.6-1.6-2.7-3.1-2.5C77.8,7,77.1,7.4,76.6,8c-0.7,0.9-0.5,2.3,0.4,3c0.1,0.1,0.2,0.2,0.4,0.2c0.8,0.4,1.8,0,2.2-0.8
	c0.1-0.2,0.2-0.5,0.1-0.8c-0.1-1.2-1.8-2-2.5-0.8c-0.3,0.6,0,1.3,0.6,1.6c0.4,0.2,0.9,0.1,1.3-0.2c0.3-0.3,0.2-0.8-0.1-1
	C78.9,9.1,78.7,9,78.5,9c-0.6,0-0.1,1.1-0.7,0.5c-0.3-0.4-0.1-0.6,0.3-0.9c0.4-0.2,0.9-0.2,1.3-0.1c0.7,0.4,1,1.2,0.6,1.9
	c-0.1,0.2-0.3,0.4-0.4,0.5c-0.8,0.6-2,0.4-2.6-0.5c-0.1-0.1-0.1-0.2-0.2-0.3c-0.7-1.4,0.5-2.8,1.8-3.2c0.2-0.1,0.3-0.3,0.3-0.5
	C78.8,6.3,78.6,6.2,78.4,6.3L78.4,6.3L78.4,6.3z"/>
<path class="st3" d="M79.1,9c0.2,0.4,0.2,0.9,0,1.3c-0.2,0.3-0.7,0.9-0.1,1.1c0.2,0.1,0.5,0.1,0.7-0.1c0.8-0.7,0.9-2,0.2-2.8
	c0,0,0,0-0.1-0.1c-0.2-0.2-0.4-0.1-0.6,0C79,8.6,79,8.8,79.1,9L79.1,9z"/>
<path class="st3" d="M96.5,9c-1.1-0.9-2.6,0.9-1.9,2c0.5,0.7,1.5,0.9,2.3,0.4c0.3-0.2,0.5-0.5,0.6-0.8c0.2-0.9-0.4-1.8-1.3-2
	c-0.4-0.1-0.8,0-1.2,0.2c-0.8,0.6-0.9,1.8-0.3,2.5c0.1,0.2,0.3,0.3,0.4,0.4c1.6,0.8,3.1-1.3,2.1-2.6c-0.5-0.6-1.4,0.2-1.1,0.8
	c0.1,0.2-0.1,0.7-0.3,0.5s0-0.6,0.1-0.6s0.5,0.6,0,0.6c-0.2,0-0.3-0.1-0.3-0.3s0.5-0.3,0.7-0.3C96.8,9.9,96.9,9.3,96.5,9L96.5,9z"/>
<path class="st3" d="M95.7,8.9c-0.6,0.2-0.9,0.7-0.9,1.3c0.1,0.6,0.7,1.2,1.3,1c0.2,0,0.2-0.2,0.2-0.4c0-0.1-0.1-0.1-0.1-0.2
	c-0.2-0.1-0.5-0.1-0.6-0.4c-0.2-0.3-0.1-0.6,0.1-0.8c0,0,0.1-0.1,0.1-0.1C96.1,9.3,96,8.9,95.7,8.9L95.7,8.9z"/>
<path class="st3" d="M108.8,10.7c0.5-0.2,0.8-0.7,0.7-1.3c-0.1-0.3-0.3-0.6-0.7-0.7c-0.5,0.2-0.8,0.7-0.7,1.3
	C108.2,10.4,108.4,10.6,108.8,10.7z"/>
<path class="st3" d="M89.4,18.5c-1.2-0.2-1.3,1.8-0.3,2c1.4,0.4,1.5-2.1,0.2-2.4c-1.6-0.3-1.6,2.3-0.2,2.6c1.7,0.3,1.8-2.4,0.3-2.8
	c-0.7-0.1-1.4,0.4-1.6,1.1c0,0.1,0,0.1,0,0.2c-0.1,0.8,0.5,1.9,1.4,1.5c0.2-0.1,0.3-0.4,0.2-0.6c-0.2-0.3-0.4-0.3-0.5-0.6
	c0-0.2,0-0.5,0.2-0.5c0.4,0,0.3,1.1-0.1,0.5c-0.1-0.1-0.2-0.5,0-0.5s0.3,0.4,0.3,0.5s-0.3,0.2-0.3,0s-0.1-0.7,0.3-0.7
	S89.7,18.5,89.4,18.5L89.4,18.5z"/>
<path class="st3" d="M105.1,17.1c-1.5,0.7-1.5,3-0.5,4.1c1,1,2.7,0.9,3.7-0.1c0.1-0.1,0.2-0.3,0.3-0.4c0.6-1.2,0-2.7-1.2-3.3
	c-0.3-0.1-0.6-0.2-0.9-0.2c-1.9,0-3,2.7-1,3.5c0.7,0.3,1.5,0.1,1.9-0.6c0.1-0.1,0.1-0.3,0.1-0.4c0.1-0.8-0.4-1.5-1.2-1.6
	c-0.1,0-0.2,0-0.2,0c-0.3,0-0.5,0.2-0.6,0.5c-0.3,0.8,0.2,1.7,1,2c0.4,0.1,0.8,0.1,1.1-0.1c0.6-0.3,0.2-1.3-0.5-1.1
	c-0.2,0-0.6-0.1-0.5-0.4l-0.6,0.3c0.1,0,0.2,0.4-0.2,0.2c-0.6-0.3,0-0.9,0.4-1c0.6,0,1.2,0.5,1.2,1.2c0,0.2-0.1,0.4-0.2,0.6
	c-0.6,0.6-1.5,0.7-2.1,0.1c-0.8-0.8-0.3-1.9,0.3-2.6c0.2-0.1,0.2-0.4,0-0.6C105.4,17.1,105.2,17,105.1,17.1L105.1,17.1z"/>
<path class="st3" d="M100.8,24.4c-1.3,0.5-2,2-1.5,3.3c0.1,0.1,0.1,0.3,0.2,0.4c0.8,1.1,2.4,1.4,3.5,0.6c0.1-0.1,0.2-0.2,0.4-0.3
	c0.7-1,0.5-2.5-0.5-3.2c-0.3-0.2-0.5-0.3-0.9-0.4c-1.8-0.4-3.2,2.1-1.4,3.1c0.6,0.4,1.4,0.2,1.8-0.4c0.1-0.1,0.1-0.3,0.2-0.5
	c0.1-0.8-0.5-1.8-1.4-1.4c-0.3,0.2-0.4,0.5-0.2,0.8c0,0,0,0,0,0c0.1,0.1,0.2,0.2,0.3,0.3s0.1,0.1,0,0.1c-0.4-0.3,0-0.7,0.4-0.7
	c0.5,0.1,0.9,0.6,0.8,1.1c0,0.2-0.1,0.3-0.2,0.4c-0.5,0.5-1.4,0.4-1.8-0.1c0,0-0.1-0.1-0.1-0.2c-0.3-0.9,0-1.9,0.8-2.4
	C101.4,24.7,101.1,24.3,100.8,24.4L100.8,24.4z"/>
<path class="st3" d="M117.6,18.9c-2.2,0.4-2.4,3.4-1,4.7c1.2,1.1,3.1,1,4.2-0.2c0.3-0.4,0.5-0.8,0.7-1.2c0.6-2-1.5-4.3-3.6-3.5
	c-1.9,0.8-2.3,4,0,4.5c0.8,0.2,1.6-0.2,1.8-1c0.1-0.2,0.1-0.4,0-0.6c-0.1-0.9-1.3-1.9-2-1c-0.2,0.3-0.2,0.7,0,0.9
	c0.1,0.1,0.2,0.1,0.3,0.2c0.4,0.1-0.2-0.2-0.3-0.5c0-0.5,0.3-1,0.8-1.1c1.3-0.3,1.9,1.4,1.3,2.3c-0.5,0.8-1.6,1-2.4,0.5
	c-0.2-0.1-0.4-0.3-0.5-0.5c-0.7-1.1,0.2-2.1,1-2.8C118.3,19.2,118,18.8,117.6,18.9L117.6,18.9z"/>
<path class="st3" d="M118.6,20.5c0.3,0.2,0.6,0.5,0.7,0.9c0.1,0.3,0,0.7,0.1,1c0.1,0.2,0.3,0.3,0.5,0.2c0.1,0,0.1-0.1,0.2-0.1
	c0.2-0.5,0.2-1-0.1-1.5c-0.2-0.5-0.6-0.8-1.1-1C118.5,19.8,118.3,20.3,118.6,20.5L118.6,20.5z"/>
<path class="st3" d="M130.8,24.4c-1.5-0.3-2.6,1.5-2.2,2.9c0.5,1.3,1.9,2,3.2,1.5c0.2-0.1,0.3-0.1,0.5-0.2c1.1-0.8,1.3-2.4,0.5-3.6
	c-0.1-0.2-0.3-0.4-0.5-0.5c-1.4-1.1-3.8-0.2-3.7,1.7c0,1,0.7,1.8,1.7,1.9c1,0.1,1.9-0.7,2-1.7c0-0.1,0-0.1,0-0.2l-1.4,0.4
	c0.4-0.3,0.6-0.3,0.7-0.1c0-0.1,0.1-0.1,0.1-0.2c0.2-0.3,0.1-0.7-0.2-0.8c0,0-0.1,0-0.1-0.1c-1.2-0.4-1.6,1.4-0.7,2
	c1.1,0.7,2.1-0.6,1.6-1.6c-0.2-0.4-0.7-0.5-1-0.2c-0.2,0.1-0.4,0.4-0.4,0.6c0,0.5-0.5,0.6-0.7,0.2c-0.1-0.4,0-0.8,0.4-0.9
	c0,0,0.1,0,0.1,0c0.7-0.1,1.3,0.3,1.4,1c0,0.2,0,0.4-0.1,0.6c-0.4,0.6-1.2,0.8-1.9,0.4c-0.1-0.1-0.2-0.1-0.2-0.2
	c-0.7-0.9,0.2-2,1-2.3C131,24.9,131.1,24.5,130.8,24.4L130.8,24.4z"/>
<path class="st3" d="M110.4,31.3c-0.5,0.2-0.7,0.7-0.5,1.2c0.1,0.3,0.3,0.5,0.6,0.6c1,0.3,1.8-1.1,1.3-1.9c-0.4-0.6-1.2-0.7-1.7-0.3
	c-0.2,0.1-0.4,0.4-0.5,0.6c-0.1,0.5,0.2,1,0.6,1.3c0.4,0.3,0.9,0.2,1.2-0.2c0-0.1,0.1-0.1,0.1-0.2c0.1-0.3-0.1-0.6-0.4-0.7
	c-0.1,0-0.2,0-0.2,0c-0.1,0-0.1,0,0,0c0,0.1-0.1,0.4-0.1,0.4s-0.1-0.1-0.1,0s-0.1,0.1,0.2,0.1c0-0.1,0-0.1-0.1,0.1
	C111.2,31.9,110.9,31.1,110.4,31.3L110.4,31.3z"/>
<path class="st3" d="M118.6,27.7c-0.9,0.3-1.3,1.3-0.9,2.2c0,0,0,0,0,0c0.4,0.8,1.3,1.2,2.1,0.8c0.2-0.1,0.3-0.2,0.5-0.3
	c0.7-0.6,0.8-1.7,0.2-2.5c-0.1-0.2-0.3-0.3-0.5-0.4c-0.7-0.4-1.6-0.1-2,0.6c-0.2,0.4-0.2,0.9,0,1.3c0.7,1.5,3.1,0.1,2.2-1.2
	c-0.5-0.8-1.8,0-1.3,0.7c-0.1-0.1,0-0.2,0.1-0.3c0,0,0,0,0,0c0.4-0.2,0.3,0.2,0.3,0.2s0,0,0.1,0c0.3,0.2,0.2,0.5-0.1,0.7
	c-0.6,0.4-0.9-0.8-0.4-1.1S119,27.6,118.6,27.7L118.6,27.7z"/>
<path class="st3" d="M118.3,35.4c-0.5-1.3-2.3-0.5-2.9,0.3c-0.8,1.3-0.7,2.9,0.3,4.1c1.9,2.5,6.3,1.2,6-2.1
	c-0.1-1.5-1.3-2.7-2.8-2.8c-1.5-0.2-2.8,0.9-3,2.3c-0.1,1.1,0.7,2.1,1.8,2.2c0.3,0,0.6,0,0.9-0.1c0.9-0.4,1.3-1.4,0.9-2.3
	c-0.1-0.3-0.3-0.5-0.5-0.7c-0.7-0.5-1.8-0.3-2.3,0.4c-0.5,0.7-0.3,1.8,0.4,2.3c0.7,0.5,1.8,0.3,2.3-0.4c0.1-0.1,0.1-0.2,0.2-0.3
	c0.4-1-1-1.8-1.4-0.8c-0.1,0.2-0.4,0.7-0.7,0s0.9-1.1,1.5-1c0.9,0.2,1.4,1,1.2,1.9c-0.1,0.4-0.3,0.8-0.7,1c-1,0.6-2.2,0.3-2.8-0.6
	c-0.1-0.1-0.1-0.2-0.2-0.3c-0.3-0.6-0.3-1.4,0-2c0.4-0.7,1-0.6,1.7-0.8C118.2,35.5,118.3,35.4,118.3,35.4
	C118.2,35.4,118.2,35.4,118.3,35.4L118.3,35.4z"/>
<path class="st3" d="M117.9,39.5c1,0.2,2.1-0.4,2.3-1.5c0.1-0.3,0.1-0.7,0-1c-0.3-0.7-1.1-0.1-1.1,0.5c0.1,0.3,0,0.7-0.1,1
	c-0.2,0.3-0.6,0.6-1,0.6c-0.1,0-0.2,0.1-0.2,0.2C117.8,39.3,117.9,39.4,117.9,39.5L117.9,39.5z"/>
<path class="st3" d="M130.9,36.5c-0.6,0.1-1,0.7-0.9,1.3c0.1,0.7,0.8,1.1,1.4,1c0.3,0,0.6-0.3,0.6-0.6c0-0.4-0.1-0.8-0.1-1.2
	c0-0.3-0.2-0.5-0.5-0.6c-0.8-0.2-1.6,0.3-1.8,1.2c-0.1,0.3,0,0.7,0.1,0.9c0.4,0.8,2.4,1.2,2.4-0.1c0-0.3-0.2-0.5-0.4-0.5
	c-0.2,0-0.3,0-0.5,0c-0.1,0-0.2,0.1-0.3,0s0.2-0.3,0.3-0.3l-0.6-0.5c0.1,0.4,0.1,0.8,0.2,1.2l0.3-0.7c-0.1,0.1-0.3,0-0.4-0.1
	c-0.1-0.2,0.1-0.5,0.3-0.5S131.2,36.5,130.9,36.5L130.9,36.5z"/>
<path class="st3" d="M125.6,44.9c-0.4-0.2-0.8-0.2-1.2,0c-0.4,0.3-0.7,0.7-0.7,1.2c0,0.8,0.5,1.4,1.3,1.5c0.2,0,0.5,0,0.7-0.1
	c0.8-0.3,1.3-1.2,1.1-2c0-0.2-0.1-0.3-0.2-0.4c-0.6-0.8-1.8-1-2.6-0.4c0,0-0.1,0-0.1,0.1c-0.3,0.3-0.3,0.7,0,1
	c0.3,0.3,0.8,0.3,1.1,0c0.2-0.2,0.7,0.1,0.4,0.3c-0.1,0.1-0.3,0.1-0.3,0c0-0.1,0-0.2,0.1-0.3c0,0,0.1-0.1,0.1-0.1s0.2-0.1,0.1-0.1
	C125.7,45.6,126,45,125.6,44.9L125.6,44.9z"/>
<path class="st3" d="M130.8,50.1c-1,1.1-1,2.9,0.2,3.9s2.9,1,3.9-0.2s1-2.9-0.2-3.9c-0.1-0.1-0.2-0.1-0.3-0.2
	c-1.3-1-3.6-0.5-3.6,1.4c-0.1,0.9,0.7,1.7,1.6,1.8c0.3,0,0.7-0.1,1-0.2c0.4-0.2,0.6-0.7,0.5-1.1c0-0.4-0.3-0.7-0.7-0.6
	c-0.2,0-0.3,0.1-0.4,0.2c0.3-0.3-0.1,0.1-0.2,0.1s0,0,0,0c0-0.3,0.3-0.4,0.6-0.3c0.6,0.2,0.9,0.9,0.7,1.5c0,0,0,0,0,0
	c-0.3,0.6-0.9,0.8-1.5,0.6c-0.6-0.3-0.8-1.1-0.5-1.6c0-0.1,0.1-0.1,0.1-0.1C132.7,50.4,131.5,49.3,130.8,50.1L130.8,50.1z"/>
<path class="st3" d="M115.7,117.7c3.5-1.9,7-5.3,8-9.4c0.1-0.2,0-0.4-0.2-0.4s-0.4,0-0.4,0.2c-0.8,1.8-1.8,3.6-3,5.2
	c-1.3,1.6-2.8,3-4.5,4.1c-0.1,0-0.1,0.1-0.1,0.2S115.8,117.8,115.7,117.7L115.7,117.7L115.7,117.7z"/>
<path class="st3" d="M131.5,122c4.5-3.3,7.7-9.7,9-15c0-0.1,0-0.2-0.1-0.2s-0.2,0-0.2,0.1l0,0c-1.1,2.8-2.4,5.6-3.9,8.2
	c-1.4,2.4-3.4,4.4-4.9,6.7C131.3,121.9,131.4,122.1,131.5,122L131.5,122z"/>
<path class="st3" d="M145.5,74.3c2.7,0,6.3-2.2,7.9-4.3c0.1-0.1-0.1-0.3-0.2-0.2c-1.3,0.8-2.4,1.8-3.7,2.5s-2.8,1.1-4,1.9
	C145.4,74.2,145.4,74.3,145.5,74.3C145.4,74.3,145.4,74.3,145.5,74.3L145.5,74.3z"/>
<path class="st3" d="M100.6,59.3c1.1,0.7,3.1,1.5,4.3,0.5c0.2-0.2,0.2-0.4,0-0.6c-0.1-0.1-0.1-0.1-0.2-0.1c-0.6,0-1.1,0-1.7,0
	c-0.7,0-1.4-0.2-2-0.6c-0.2-0.1-0.5,0-0.6,0.2C100.3,59,100.4,59.2,100.6,59.3L100.6,59.3z"/>
<path class="st3" d="M112.2,67.8c0.4,1.2,0.7,2.5,0.8,3.7c0.1,1,0,2,0.2,3c0,0.3,0.4,0.2,0.5,0c0.7-2.2,0-5-1-7
	c-0.1-0.1-0.3-0.2-0.4-0.1C112.2,67.5,112.2,67.7,112.2,67.8L112.2,67.8z"/>
<path class="st3" d="M121,69.1c-1.2,1.9-1.8,5.3,0.2,6.9c0.1,0.1,0.3,0.1,0.5,0c0.1-0.1,0.1-0.2,0.1-0.3c-0.2-1-0.6-1.9-0.7-3
	c-0.1-1.1,0.1-2.3,0.5-3.3c0.1-0.1,0-0.3-0.1-0.4S121.1,68.9,121,69.1L121,69.1z"/>
<path class="st3" d="M73.1,52.4c0.1,2.5,3.3,4,5.4,4.5c2.6,0.6,6.1,0.1,7.8-2.1c0.3-0.5-0.2-1.1-0.7-0.9c-2.6,0.7-4.5,1.9-7.3,1.1
	c-1.9-0.5-3.1-2.2-5-2.8C73.2,52.2,73.1,52.2,73.1,52.4C73,52.4,73,52.4,73.1,52.4L73.1,52.4z"/>
<path class="st6" d="M118.5,49c-1.5-4.8-6.9-8.2-11.6-9.2c-0.3-0.1-0.5,0.4-0.1,0.5c2.4,0.5,4.7,1.6,6.7,3.1
	C115.5,45,116.8,47,118.5,49C118.4,49,118.5,49,118.5,49L118.5,49z"/>
<path class="st6" d="M99.8,36c-9-2.8-27.7-3.7-31.3,7.9c-1.2,4,0.6,7.8,3.7,10.3c4.8,3.9,11.3,3.6,17,3.3c0.3,0,0.3-0.5,0-0.5
	c-4.7,0.2-10.1,0.6-14.5-1.8c-5.3-2.8-8.1-8.9-4.2-14.2C76.7,33,91,34,99.7,36.3c0.1,0,0.2,0,0.2-0.1C99.9,36.2,99.9,36.1,99.8,36
	L99.8,36z"/>
<path class="st6" d="M98.3,60.5c4.3,0.1,8.3,1.2,10.8,4.9c2.4,3.6,2.5,8.2,0.3,11.9c0,0.1,0,0.2,0.1,0.2s0.2,0,0.2-0.1
	c4.5-7.9-1.5-19.8-11.4-17.3c-0.1,0-0.1,0.1-0.1,0.2C98.2,60.4,98.2,60.5,98.3,60.5L98.3,60.5z"/>
<path class="st6" d="M89.2,57.7c4.3-3.2,7.7-7.5,9.7-12.5c1.2-2.9,3.5-8.1,0-10.2c-0.3-0.2-0.5,0.3-0.3,0.4
	c4.1,2.4-0.7,11.3-2.2,13.7c-2,3.2-4.5,6-7.4,8.3c0,0,0,0.1,0,0.1C89.1,57.7,89.2,57.7,89.2,57.7L89.2,57.7z"/>
<path class="st6" d="M98.8,35.5c2.6,1.1,5.3,2,8,3c0.3,0.1,0.4-0.3,0.1-0.5c-2.7-1-5.3-2-8-2.9C98.7,35.1,98.7,35.4,98.8,35.5
	L98.8,35.5z"/>
<path class="st6" d="M107.1,38.4c-0.9,7.9-4.2,15.4-9.3,21.6c-0.1,0.1,0.1,0.3,0.2,0.2c5.3-6.1,8.5-13.7,9.4-21.7
	C107.4,38.3,107.1,38.3,107.1,38.4L107.1,38.4z"/>
<path class="st6" d="M89.5,57.6c2.7,2,7,1.2,7.9-2.3c0,0,0-0.1-0.1-0.1c0,0-0.1,0-0.1,0c-1.6,3-4.8,4.2-7.7,2.1
	C89.5,57.3,89.4,57.5,89.5,57.6z"/>
<path class="st6" d="M94,58.7c1.4,0.6,2.8,1.1,4.2,1.5c0.2,0.1,0.3-0.2,0.1-0.3c-1.4-0.5-2.8-1-4.2-1.4C94,58.5,93.9,58.7,94,58.7z"
	/>
<path class="st6" d="M116.7,53c-0.3-2.3-2.4-4-4.7-3.7c-0.4,0-0.7,0.1-1.1,0.3c-2.9,1.2-3.8,4.6-2.7,7.3s4.6,5.1,7.6,3.7
	c3.4-1.7,2.8-6.4,1.3-9.1c-0.1-0.1-0.3,0-0.2,0.1c0.8,2.3,1.8,4.8,0.4,7.1c-2,3.4-6.4,1.9-8.2-0.8c-1.6-2.2-1.4-5.2,0.5-7.1
	c1.6-1.6,4.1-1.6,5.7,0c0.6,0.6,1,1.4,1.1,2.2C116.4,53.1,116.7,53.1,116.7,53z"/>
<path class="st6" d="M116.3,52.1c1.3-3.4,5.8-2.5,6.8,0.7c0.4,1.3,0.3,2.7-0.4,3.9c-0.7,1.4-2.4,2-3.8,1.4c-0.5-0.2-0.9-0.6-1.2-1.1
	c-0.1-0.1-0.3,0-0.2,0.1c0.7,1.4,2.3,2,3.7,1.4c1.9-0.8,2.7-3.2,2.3-5c-0.2-1.9-1.6-3.4-3.5-3.8c-1.7-0.3-3.4,0.7-4,2.4
	C116,52.2,116.2,52.2,116.3,52.1L116.3,52.1z"/>
<path class="st6" d="M120.7,62.8c1.5-0.2,2.9-0.5,4.4-0.7c0.6-0.1,1.3-0.2,1.9-0.3c1.6-0.5,2,0.4,1.3,2.7c-0.6,0-1.1-0.4-1.4-0.8
	c-0.1-0.1-0.3,0-0.2,0.2c0.4,0.9,1.4,1.3,2.3,0.9c0.8-0.4,1.2-1.2,1-2c-0.3-1.2-1.4-1.5-2.5-1.4c-2.3,0.3-4.6,0.7-6.8,1.2
	C120.4,62.5,120.5,62.8,120.7,62.8L120.7,62.8z"/>
<path class="st6" d="M127.9,65.2c1.2,0.8,1.2,1.4-0.2,1.7c-0.3,0.6-1.1,0.8-1.6,0.4c-0.1-0.1-0.2-0.1-0.2-0.2
	c-0.4-0.3-0.8-0.6-1.2-1c-0.6-0.6-1.2-1.2-1.8-1.6c-0.9-0.7-2.1-0.7-3-0.1c-0.1,0-0.1,0.1-0.1,0.2s0.1,0.1,0.2,0.1l0,0
	c3.3-1.7,5.4,5.2,8.5,2.9c0.7-0.5,0.8-1.4,0.3-2.1c-0.2-0.3-0.5-0.5-0.9-0.6C127.8,64.9,127.7,65.2,127.9,65.2L127.9,65.2z"/>
<path class="st6" d="M121.6,58.4c0.3,1.3,1,2.5,2.1,3.3c0.1,0.1,0.3-0.1,0.2-0.2c-1-0.8-1.7-2-2.1-3.2c0,0,0-0.1-0.1-0.1
	C121.7,58.2,121.6,58.3,121.6,58.4L121.6,58.4L121.6,58.4z"/>
<path class="st6" d="M124.6,65.7c-2.2,4.9-1.8,10.9,1.8,15c0.1,0.1,0.2,0,0.2-0.1c-3-4.6-3.9-9.6-1.6-14.7
	C125,65.7,124.7,65.5,124.6,65.7L124.6,65.7z"/>
<path class="st6" d="M123.8,68.2c0.3,3,3.9,4.9,6.4,2.8c0.1-0.1,0-0.3-0.1-0.2c-2.5,1.5-5.5,0.5-6-2.6C124,68,123.7,68,123.8,68.2
	L123.8,68.2z"/>
<path class="st6" d="M125.4,72.5c5.3-1.2,10.5-2.6,15.7-3.9c3.7-0.9,8.1-1.6,11-4.3c1.7-1.5,2.7-3.6,2.9-5.8c0.1-1.5,0-2.9-0.4-4.3
	c-0.3-1-2.3-3.9-2.3-4.6l2.5-2.5l1.8,2.3c2.4,3.7,3.3,8.2,2.6,12.6c-1.1,5.5-4.8,10.1-10,12.3c-6.3,2.8-16.1-1.4-20.4,5.5
	c0,0.1,0,0.2,0,0.2c0.1,0,0.2,0,0.2,0l0,0c3.9-6.3,11.8-3,17.6-4.5c3.6-1,6.8-3,9.2-5.8c4.9-6.1,5.2-14.7,0.6-21
	c-0.8-1.1-2.7-3.7-4.5-3.1s-1.1,2.5-0.4,3.7c2,3.7,3.7,6.3,2.6,10.7c-1.2,4.9-5.3,6.4-9.7,7.6c-6.4,1.7-12.8,3.2-19.2,5
	C125.3,72.4,125.3,72.5,125.4,72.5C125.3,72.6,125.4,72.6,125.4,72.5L125.4,72.5z"/>
<path class="st6" d="M129.5,78.7c8.2,5.8,13.3,15.3,12.4,25.4c-0.4,4.9-2.2,9.7-5,13.8c-1.4,2-3.1,3.9-5,5.5
	c-1.4,1.2-2.9,2.7-2.9-0.2c0-1.4,1.5-3.6,2.2-4.8c3.3-5.9,6-10.9,4.9-17.8c-0.9-5.8-4-11-8.8-14.4c-0.2-0.1-0.4,0.2-0.2,0.3
	c6.9,5,10.2,13.7,8.4,22c-1.4,6.4-6.8,11-7.3,17.7c0,0.1,0.1,0.2,0.2,0.2c0,0,0.1,0,0.1,0c13.4-8.2,17.6-25.8,9.3-39.2
	c-2.1-3.4-4.9-6.3-8.2-8.6C129.5,78.4,129.4,78.6,129.5,78.7L129.5,78.7z"/>
<path class="st6" d="M127.1,86c-2.4-0.8-5,0.6-5.8,3c0,0.1,0.2,0.2,0.2,0.1c0.8-2.2,3.2-3.5,5.6-2.9C127.1,86.1,127.1,86.1,127.1,86
	C127.1,86,127.1,86,127.1,86L127.1,86z"/>
<path class="st6" d="M113.4,88.6c-5.3,0.9-10.3,4.6-14.1,8.3c-0.2,0.2,0.1,0.4,0.3,0.3C103.7,93.2,108.3,91.1,113.4,88.6L113.4,88.6
	z"/>
<path class="st6" d="M99.2,96.9c-7.6,5-17.6,7.3-26.6,8c-2.9,0.2-6.9,0.8-9.8,0.1c-3.3-0.9,2.8-2.4,4-2.7c1.8-0.4,3.8-0.3,5.6-0.6
	c8.7-1.3,16.7-4.3,24.5-8.1c6.2-3,10.8-6.8,13.3-13.4c0.1-0.2-0.3-0.3-0.4-0.1c-4.5,11.2-17.6,16.3-28.5,19.5
	c-5.4,1.5-10.8,1.8-16.4,2.4c-2.3,0.2-3.8,0.4-4.3,2.9c0,0.1,0,0.2,0.1,0.2c4.4,1.6,11.5,0.3,16-0.3c7.7-1.1,15.9-3.3,22.4-7.7
	C99.5,97,99.3,96.8,99.2,96.9z"/>
<path class="st6" d="M104.5,75.4c2.7-0.4,5.2-1.7,7.2-3.6c0,0,0-0.1,0-0.1c0,0-0.1,0-0.1,0c-2,1.8-4.5,3-7.1,3.6
	C104.4,75.2,104.4,75.4,104.5,75.4L104.5,75.4z"/>
<path class="st6" d="M101.8,76.9c5,1.4,6.1,6.7,2.8,10.4c-0.1,0.1,0.1,0.3,0.2,0.2c4.2-3.4,2.1-9.9-2.9-10.9c-0.1,0-0.1,0-0.2,0.1
	C101.7,76.8,101.8,76.9,101.8,76.9z"/>
<path class="st6" d="M104.5,93.3c4.3-1.2,8.9-0.8,13,1.1c0.3,0.1,0.6-0.3,0.3-0.4c-4.1-2-8.9-2.4-13.3-0.9c-0.1,0-0.1,0.1-0.1,0.2
	C104.4,93.3,104.5,93.4,104.5,93.3L104.5,93.3z"/>
<path class="st6" d="M123.3,93.5c1.3-2.7,3.9-4.5,6.8-4.9c0.3,0,0.2-0.4-0.1-0.4c-3.2,0.2-6,2.2-7.1,5.2c0,0.1,0,0.2,0.1,0.2
	C123.1,93.6,123.2,93.6,123.3,93.5z"/>
<path class="st6" d="M136.2,84.4c-1.7-2.9-1.8-6.2,0.9-8.6c0.3-0.2-0.1-0.6-0.4-0.4c-2.6,2-3.4,6.8-0.8,9.2
	C136.1,84.7,136.3,84.6,136.2,84.4z"/>
<path class="st6" d="M116.7,90.8L116.7,90.8L116.7,90.8z"/>
<path class="st6" d="M116.8,91.6c2.4,8,2.8,17.4-3.9,23.5c-4.9,4.5-12.2,4.3-18.4,5.6c-3,0.6-8.6,1.9-9.9,5.2
	c-0.6,1.7-0.1,2.6,1.6,2.9c2.1,0.4,6.7-1.8,8.6-2.4l10.4-3c5.1-1.4,10.8-2.7,14.8-6.3c8.5-7.7,5.7-20.1-0.1-28.4
	c-0.1-0.2-0.4,0-0.3,0.2c3.7,5.5,6.4,12,5.1,18.8c-1.4,7.5-6.8,11.5-13.6,13.7c-5.4,1.8-10.9,3.2-16.4,4.7l-3.8,1.1
	c-2.5,0.7-3.8,2.5-3.7-1.2c0-2.8,0.2-2.6,2.6-3.5c1.3-0.5,2.7-1,4.1-1.3c7.2-1.6,15.6-1.3,20.7-7.5s4.7-14.8,2.4-22.2
	c0-0.1-0.1-0.1-0.2,0C116.8,91.5,116.8,91.5,116.8,91.6L116.8,91.6z"/>
<path class="st6" d="M109.1,73.5c-9-1.1-18.9-2.2-27.1,2.5c-3.1,1.9-5.8,4.4-7.9,7.4c-1.4,1.9-4.9,6-4.4,8.7
	c0.9,4.3,6.6-3.8,7.6-4.6c8.3-7.2,18.9-10.2,29.8-9.5c0.2,0,0.2-0.3,0-0.3c-11.9-1.3-23.8,3-32.1,11.6c-1.1,1.1-4.3,6.2-3.8-0.4
	c0.1-1.2,1.7-3.1,2.3-4c2.3-3.7,5.5-6.8,9.3-9c8.1-4.2,17.5-3.1,26.2-2.1C109.3,73.9,109.3,73.6,109.1,73.5L109.1,73.5z"/>
<path class="st6" d="M109.9,55.1c-0.6,0.9-0.4,2.1,0.5,2.7c0.1,0,0.1,0.1,0.2,0.1c0.9,0.4,1.9,0.1,2.3-0.8c0.1-0.2,0.1-0.3,0.2-0.5
	c0.3-1-0.2-2.1-1.2-2.4c-0.1,0-0.2-0.1-0.3-0.1c-1.2-0.2-2.3,0.7-2.5,1.9c0,0.1,0.1,0.1,0.2,0.1c0,0,0.1-0.1,0.1-0.1
	c0.2-0.9,1-1.6,1.9-1.6c0.8,0,1.5,0.6,1.5,1.5c0,0.1,0,0.3,0,0.4c0,0.8-0.7,1.4-1.5,1.4c-0.1,0-0.3,0-0.4-0.1
	c-0.9-0.4-1.3-1.4-0.9-2.3c0-0.1,0.1-0.1,0.1-0.2C110,55,109.9,54.9,109.9,55.1L109.9,55.1z"/>
<path class="st6" d="M119,54.5c0.2-0.5,0.8-0.7,1.3-0.5c0.5,0.2,0.7,0.7,0.6,1.2c-0.1,0.5-0.6,0.9-1.1,0.8c0,0,0,0,0,0
	c-0.5-0.2-0.9-0.6-0.9-1.1c0-0.1-0.1-0.1-0.2,0c-0.2,0.7,0.4,1.3,1,1.4c0.7,0.1,1.3-0.3,1.4-1c0.2-0.7-0.3-1.4-1-1.5
	c-0.6-0.1-1.1,0.1-1.4,0.6c0,0.1,0,0.2,0.1,0.2C118.9,54.5,118.9,54.5,119,54.5L119,54.5z"/>
<path class="st6" d="M162.3,54.6c1.9,2.9,2.2,6.5,0.9,9.7c0,0.1,0.2,0.2,0.2,0.1c1.5-3.2,1.2-7-0.8-10
	C162.4,54.2,162.1,54.4,162.3,54.6L162.3,54.6z"/>
<path class="st6" d="M167,55.2c1.7,3.2,1.3,7.2-1,10c-0.1,0.1,0.1,0.3,0.2,0.1c2.5-2.8,2.9-7,1.1-10.3
	C167.2,54.9,166.9,55.1,167,55.2L167,55.2z"/>
<path class="st6" d="M140.4,121c-3.9,3-8.1,5.6-12.4,7.8c-0.1,0.1,0,0.3,0.1,0.2c4.5-2,8.7-4.6,12.5-7.8
	C140.7,121.1,140.5,120.9,140.4,121L140.4,121z"/>
<path class="st6" d="M125.3,128.5L125.3,128.5L125.3,128.5z"/>
<path class="st6" d="M83.8,121.5c-5.3,1.7-6.2,9.2-0.8,11.5c0.1,0.1,0.3-0.1,0.1-0.2c-4.7-2.5-4.6-9.2,0.7-10.9
	C84.1,121.8,84,121.4,83.8,121.5z"/>
<path class="st6" d="M76,123.5c-2.1,2.6-1.7,6.4,0.9,8.4c1.8,1.4,4.2,1.7,6.3,0.8c0.1-0.1,0-0.3-0.1-0.2c-2.9,1.3-6.3,0-7.6-2.9
	c-0.9-1.9-0.6-4.2,0.7-5.9C76.4,123.5,76.1,123.3,76,123.5z"/>
<path class="st6" d="M61.6,98.5c-4.8,0.8-6.1,7.4-1.4,9.5c0.1,0.1,0.2-0.1,0.1-0.2c-4-2.3-3.4-8.2,1.4-9
	C61.9,98.8,61.8,98.5,61.6,98.5L61.6,98.5z"/>
<path class="st6" d="M56,97.3c-3.4,2.5-4.1,7.3-1.5,10.7c0.6,0.8,1.4,1.5,2.3,2c0.1,0,0.2,0,0.2-0.1c0-0.1,0-0.1,0-0.2
	c-3.5-2.1-4.7-6.7-2.6-10.2c0.5-0.8,1.1-1.5,1.8-2.1C56.3,97.4,56.1,97.2,56,97.3L56,97.3z"/>
<path class="st6" d="M89.3,69.6c-4.3-1.8-9.2,0.2-10.9,4.5c-0.1,0.2-0.2,0.4-0.2,0.6c-0.1,0.2,0.3,0.3,0.3,0.1
	c1.9-4.4,6.1-6.6,10.7-4.8C89.4,70,89.5,69.6,89.3,69.6z"/>
<path class="st6" d="M84.8,66c-5.2-0.3-10.5,3.3-11.6,8.7c0,0.1,0.1,0.2,0.2,0.2c0.1,0,0.1,0,0.2-0.1c1.5-5,5.8-8.6,11.2-8.4
	C85.1,66.4,85.1,66,84.8,66z"/>
<path class="st7" d="M90.2,47.4c-17.3,0.2-34.6,2.1-51.5,5.8c-0.1,0-0.1,0.2,0.1,0.2c17-3.2,34.2-5.1,51.4-5.6
	C90.4,47.8,90.4,47.4,90.2,47.4z"/>
<path class="st7" d="M111.3,61.7c-22-0.4-44.1,0.6-66,2.8c-0.2,0-0.2,0.3,0,0.3c22-1.7,44-2.7,66-2.7c0.1,0,0.2-0.1,0.2-0.2
	S111.4,61.7,111.3,61.7z"/>
<path class="st7" d="M117,79.7c-32.9,0.7-65.7,3.8-98.2,9.3c-0.2,0-0.1,0.4,0.1,0.3c32.5-5.1,65.2-8.1,98.1-9.2
	C117.3,80.2,117.3,79.7,117,79.7z"/>
<path class="st7" d="M119.7,95c-33.6,0.3-67,2.8-100.3,7.6c-0.1,0-0.1,0.3,0,0.3c33.4-3.9,66.7-6.1,100.2-7.4c0.1,0,0.2-0.1,0.2-0.2
	C119.8,95.1,119.7,95,119.7,95L119.7,95z"/>
<path class="st7" d="M122,110.5c-22.6,2.4-45.2,4.8-67.8,7.4c-0.1,0-0.1,0.2,0,0.2c22.6-2.3,45.2-4.9,67.8-7.5
	C122.1,110.7,122.1,110.5,122,110.5z"/>
<path class="st6" d="M155.9,52.4c-6.1-0.1-12.2,0.3-18.2,1.4c-0.1,0-0.1,0.2,0,0.2c6-0.9,12.1-1.3,18.1-1.3c0.1,0,0.2-0.1,0.2-0.2
	C156.1,52.5,156,52.4,155.9,52.4L155.9,52.4z"/>
<path class="st6" d="M157.7,55.5c-1.9-0.1-3.8-0.1-5.6,0c-0.1,0-0.2,0.1-0.2,0.2c0,0.1,0.1,0.2,0.2,0.2c1.9,0.1,3.8,0.1,5.6,0
	c0.1,0,0.2-0.1,0.2-0.2C157.9,55.5,157.8,55.5,157.7,55.5L157.7,55.5z"/>
<path class="st6" d="M158.3,59.3c-6.7,0.2-13.5,0.5-20.2,0.9c-0.1,0-0.2,0.3,0,0.3c6.7-0.2,13.5-0.5,20.2-0.9
	C158.5,59.5,158.5,59.3,158.3,59.3z"/>
<path class="st6" d="M158,63.3c-7,0.5-14.1,1.1-21.1,1.7c-0.1,0-0.1,0.2,0,0.2c7.1-0.5,14.1-1.1,21.1-1.7
	C158.1,63.5,158.1,63.3,158,63.3z"/>
<path class="st6" d="M113.7,68.9l-10.1,0.6c-0.1,0-0.1,0.2,0,0.2l10.1-0.6C113.9,69.2,113.9,68.9,113.7,68.9z"/>
<path class="st6" d="M112.2,85.1L112.2,85.1L112.2,85.1z"/>
<path class="st6" d="M111.6,85.2c-3.8,0.1-7.6,0.5-11.3,0.9c-0.1,0-0.2,0.2,0,0.2c3.8-0.2,7.6-0.3,11.3-0.8
	C111.8,85.5,111.8,85.2,111.6,85.2z"/>
<path class="st6" d="M122,104c-4.9,0.3-9.7,0.5-14.6,0.9c-0.1,0-0.1,0.2,0,0.2c4.9-0.2,9.7-0.5,14.6-0.9
	C122.2,104.3,122.2,104,122,104z"/>
<path class="st6" d="M117.5,115.5c-10.4,1.3-20.8,2.7-31.2,4.3c-0.1,0-0.1,0.2,0,0.2c10.4-1.3,20.8-2.7,31.2-4.2
	C117.7,115.8,117.7,115.5,117.5,115.5L117.5,115.5z"/>
<path class="st6" d="M120.8,99.4c-4.7-0.1-9.4,0.4-14,1.5c0,0-0.1,0-0.1,0.1s0,0.1,0.1,0.1l0,0c4.6-0.9,9.3-1.3,14-1.3
	C121,99.7,121,99.4,120.8,99.4z"/>
<path class="st6" d="M130.6,92.1c-4,0.5-7.9,1-11.9,1.5c-0.2,0-0.2,0.3,0,0.3l11.9-1.4C130.9,92.4,130.9,92,130.6,92.1z"/>
<path class="st6" d="M131.6,100.9L131.6,100.9L131.6,100.9z"/>
<path class="st6" d="M141.1,98.3c-6.5,0.7-12.9,1.5-19.4,2.4c-0.2,0-0.1,0.3,0,0.3c6.5-0.7,12.9-1.5,19.4-2.4
	C141.2,98.5,141.2,98.2,141.1,98.3z"/>
<path class="st6" d="M130.4,107.1L130.4,107.1L130.4,107.1z"/>
<path class="st6" d="M131.8,120.6c-9.6,0.6-19.2,2.2-28.6,4.6c-0.1,0-0.1,0.1-0.1,0.2c0,0.1,0.1,0.1,0.2,0.1l0,0
	c9.4-2.1,18.9-3.6,28.5-4.4C132.1,121,132.1,120.5,131.8,120.6z"/>
<path class="st6" d="M132.9,49.2c-1.5,0.2-2.6,1.6-2.4,3.1c0,0.2,0.1,0.4,0.1,0.6c0.7,1.4,2.5,2,3.9,1.2c0.1-0.1,0.3-0.1,0.4-0.2
	c1.3-1.1,1.4-3.1,0.3-4.4c-0.1-0.1-0.2-0.2-0.3-0.3c-1.5-1.1-3.6-0.8-4.7,0.6c-0.1,0.1-0.2,0.2-0.2,0.4c-0.1,0.1,0.1,0.3,0.2,0.2
	c0.9-1.4,2.7-1.8,4.2-1.1c1.3,0.9,1.7,2.6,0.8,3.9c0,0.1-0.1,0.1-0.1,0.2c-1,1-2.7,1.1-3.7,0.1c0,0,0,0-0.1-0.1
	c-0.8-1-0.6-2.5,0.5-3.3c0.3-0.2,0.7-0.4,1.1-0.4C133.2,49.7,133.2,49.2,132.9,49.2L132.9,49.2z"/>
<path class="st6" d="M115.3,37c-0.4,1.7,0.6,3.5,2.3,3.9c0.3,0.1,0.6,0.1,0.9,0.1c1.9-0.2,3.2-1.8,3.1-3.6s-1.8-3.2-3.6-3.1
	c-1.9,0.2-3.2,1.8-3.1,3.6c0,0.5,0.2,1,0.5,1.5c0,0.1,0.1,0.1,0.2,0c0.1,0,0.1-0.1,0.1-0.2c-0.8-1.5-0.3-3.4,1.2-4.3
	c1.5-0.8,3.4-0.2,4.2,1.3c0.7,1.6,0,3.5-1.6,4.2c-0.1,0.1-0.3,0.1-0.4,0.2c-1.6,0.3-3.1-0.7-3.5-2.3c-0.1-0.4-0.1-0.8,0-1.2
	C115.6,36.9,115.4,36.9,115.3,37L115.3,37z"/>
<path class="st6" d="M130.6,24.4c-1.4,0.3-2.3,1.8-2,3.2c0,0.1,0.1,0.2,0.1,0.3c0.7,1.4,2.5,2,3.9,1.2c0.1-0.1,0.3-0.2,0.4-0.2
	c1.3-1.1,1.5-3.2,0.3-4.5c0,0,0,0,0,0c-1.4-1.4-3.6-1.4-5,0c0,0,0,0,0,0c-0.1,0.1,0.1,0.3,0.2,0.2c1.2-1.1,3.1-1.2,4.4-0.1
	c1.1,1.1,1.2,2.9,0.1,4c-1.1,0.9-2.7,0.8-3.6-0.2c-0.1-0.1-0.2-0.2-0.2-0.3c-0.5-1.2,0-2.6,1.2-3.1c0.1-0.1,0.3-0.1,0.5-0.2
	C130.9,24.6,130.8,24.3,130.6,24.4L130.6,24.4z"/>
<path class="st6" d="M99.6,25.7c-0.7,1.2-0.2,2.7,0.9,3.4c0.2,0.1,0.3,0.2,0.5,0.2c1.3,0.4,2.6-0.4,2.9-1.6c0.1-0.2,0.1-0.4,0.1-0.6
	c0-1.5-1-2.7-2.4-3c-1.8-0.1-3.4,0.9-4.1,2.6c-0.1,0.1,0.2,0.2,0.3,0.1c0.5-1.2,1.4-2,2.6-2.4c1.3-0.4,2.6,0.3,3.1,1.6
	c0.5,1,0.1,2.3-1,2.8c-1,0.5-2.3,0.1-2.8-1c-0.3-0.6-0.3-1.4,0.1-2C100,25.7,99.7,25.5,99.6,25.7L99.6,25.7z"/>
<path class="st6" d="M69.5,21.1c-0.8,2.1-0.1,4.9,2.2,5.8c2,0.7,4.3-0.2,5.2-2.2c0.8-2-0.2-4.3-2.2-5.1s-4.3,0.2-5.1,2.2
	c-0.1,0.3-0.2,0.5-0.2,0.8c0,0.1,0.1,0.3,0.2,0.3c0.1,0,0.2,0,0.3-0.1c0.4-2,2.4-3.2,4.4-2.8c1.9,0.6,3,2.7,2.4,4.6
	c0,0.1-0.1,0.3-0.2,0.4c-1,1.8-3.2,2.4-5,1.4c0,0-0.1,0-0.1,0c-1.5-1.2-2.1-3.3-1.4-5.1C69.8,21.1,69.5,21,69.5,21.1L69.5,21.1z"/>
<path class="st6" d="M88.9,17.9c0.7-0.3,1.4,0,1.8,0.6c0.3,0.6,0,1.3-0.6,1.6c0,0-0.1,0-0.1,0c-0.6,0.3-1.2,0.1-1.5-0.5
	c0-0.1,0-0.1-0.1-0.2C88.2,19,88.3,18.3,88.9,17.9c0-0.1-0.1-0.3-0.3-0.3c-0.8,0.3-0.9,1.5-0.6,2.1c0.3,0.8,1.3,1.1,2,0.8
	c0,0,0.1,0,0.1-0.1c0.8-0.3,1.2-1.3,0.9-2.1c0,0,0-0.1,0-0.1c-0.5-0.8-1.5-1.2-2.3-0.8C88.5,17.7,88.7,18,88.9,17.9z"/>
<path class="st6" d="M94.5,9.1c0.5-0.7,1.5-1,2.3-0.6c0.8,0.4,1.1,1.3,0.7,2.1c0,0,0,0,0,0.1c-0.3,0.8-1.2,1.2-2,0.9
	c0,0-0.1,0-0.1-0.1c-0.8-0.4-1.2-1.3-1-2.1c0-0.2-0.2-0.2-0.3-0.1c-0.4,1.1,0.2,2.3,1.2,2.7c1,0.4,2.1-0.1,2.5-1.1
	c0.5-1,0.1-2.1-0.8-2.6c-1-0.5-2.1-0.1-2.7,0.7C94.1,9.2,94.4,9.3,94.5,9.1L94.5,9.1z"/>
<path class="st6" d="M69.6,18.6c-1.4,0.8-2.4,2.1-2.7,3.7c0,0.1,0.2,0.2,0.2,0.1c0.4-1.5,1.3-2.7,2.6-3.5c0.1,0,0.1-0.1,0-0.2
	C69.7,18.6,69.7,18.6,69.6,18.6z"/>
<path class="st6" d="M79,22.6c0.6,1,0.4,2.2-0.5,2.9c-0.1,0.1,0,0.3,0.2,0.2c1-0.7,1.3-2.1,0.6-3.1c0,0,0,0,0,0
	C79.1,22.3,78.9,22.5,79,22.6z"/>
<path class="st6" d="M87.1,17.2c-0.6,0.7-0.8,1.6-0.6,2.5c0,0.1,0.2,0.1,0.2,0c-0.1-0.8,0.1-1.6,0.6-2.3
	C87.5,17.3,87.2,17.1,87.1,17.2L87.1,17.2z"/>
<path class="st6" d="M85.7,17.5c-1,0.9-1.2,2.4-0.4,3.5c0.1,0.1,0.2,0,0.2-0.1c-0.6-1-0.5-2.3,0.4-3.1C86,17.6,85.8,17.5,85.7,17.5
	L85.7,17.5z"/>
<path class="st6" d="M91.2,18.1c0.8,0.7,1,1.9,0.3,2.7c0,0.1,0,0.2,0,0.2c0.1,0,0.1,0,0.2,0c0.9-0.8,0.5-2.5-0.4-3.1
	C91.3,17.7,91.1,18,91.2,18.1z"/>
<path class="st6" d="M106.3,5.7L106.3,5.7L106.3,5.7z"/>
<path class="st6" d="M106.8,5.4c0.1,0.6,0.3,1.2,0.5,1.8c0.1,0.2,0.4,0.1,0.3-0.1c-0.2-0.6-0.4-1.2-0.7-1.8
	C107,5.3,106.7,5.3,106.8,5.4L106.8,5.4z"/>
<path class="st6" d="M110,5.4c-0.1,0.6-0.1,1.2,0,1.8c0,0.1,0.1,0.1,0.1,0.1c0,0,0.1,0,0.1-0.1c0.1-0.6,0.1-1.2,0-1.8
	c0-0.1-0.1-0.2-0.2-0.2S109.9,5.3,110,5.4L110,5.4z"/>
<path class="st6" d="M112.5,7.6c0.6-0.3,1.2-0.5,1.8-0.9c0.2-0.1,0-0.4-0.2-0.3c-0.6,0.3-1.2,0.6-1.8,0.9
	C112.3,7.4,112.4,7.7,112.5,7.6z"/>
<path class="st6" d="M112.8,10c0.5,0.2,1,0.3,1.5,0.3c0.1,0,0.1-0.1,0.1-0.1s-0.1-0.1-0.1-0.1c-0.5-0.2-1-0.3-1.5-0.3
	C112.6,9.7,112.6,10,112.8,10L112.8,10z"/>
<path class="st6" d="M110.6,12c0.2,0.4,0.4,0.8,0.6,1.2c0.1,0.1,0.3,0,0.2-0.1c-0.2-0.4-0.4-0.8-0.6-1.2
	C110.8,11.8,110.6,11.9,110.6,12z"/>
<path class="st6" d="M108,12.5c-0.2,0.3-0.4,0.6-0.6,0.9c0,0,0,0.1,0.1,0.1c0,0,0,0,0.1,0c0.3-0.3,0.5-0.6,0.7-0.9
	C108.4,12.5,108.1,12.3,108,12.5z"/>
<path class="st6" d="M105.9,11.2c-0.9,0.3-1.8,0.6-2.7,0.9c-0.1,0.1,0,0.3,0.1,0.2c0.9-0.2,1.8-0.5,2.7-0.9
	C106.2,11.4,106.1,11.2,105.9,11.2z"/>
<path class="st6" d="M106,9.4l-1.3-0.3c-0.4-0.1-0.8-0.2-1.1-0.2c-0.1,0-0.1,0.1-0.1,0.1c0,0,0,0.1,0.1,0.1c0.4,0.2,0.7,0.3,1.1,0.3
	l1.3,0.3c0.1,0,0.2-0.1,0.2-0.2C106.1,9.5,106.1,9.4,106,9.4z"/>
<path class="st6" d="M116.7,19.8c-1.1,0.8-1.3,2.4-0.5,3.5c0.2,0.2,0.3,0.4,0.6,0.5c1.3,0.9,3.2,0.6,4.1-0.8
	c0.1-0.2,0.2-0.4,0.3-0.6c0.6-1.5-0.1-3.2-1.7-3.8s-3.2,0.1-3.8,1.7c-0.2,0.4-0.2,0.9-0.2,1.4c0,0.1,0.1,0.1,0.1,0.1
	c0,0,0.1,0,0.1-0.1c0-1.6,1.2-2.9,2.8-2.9c1.5,0.1,2.6,1.4,2.6,2.9c0,0.1,0,0.3-0.1,0.4c-0.4,1.4-1.9,2.3-3.3,1.9
	c-0.1,0-0.2,0-0.2-0.1c-1.2-0.5-1.8-1.8-1.4-3c0.1-0.4,0.4-0.7,0.7-1C116.9,19.9,116.8,19.7,116.7,19.8L116.7,19.8z"/>
<path class="st6" d="M130.3,36.9c0.6-0.4,1.4-0.3,1.8,0.3c0.4,0.5,0.3,1.2-0.1,1.6c-1.1,1.1-2.5-0.3-2.1-1.5c0,0-0.1-0.1-0.1,0
	c-0.3,0.6-0.2,1.4,0.4,1.9c0.6,0.5,1.4,0.4,1.9-0.2c0.5-0.6,0.5-1.5-0.1-2.1c-0.5-0.5-1.3-0.5-1.8-0.1c-0.1,0-0.1,0.1,0,0.2
	C130.3,37,130.3,37,130.3,36.9L130.3,36.9z"/>
<path class="st6" d="M124.1,45.5c0.4-1.6,3-1.5,2.9,0.3c0,0.8-0.6,1.4-1.3,1.5c-0.8,0-1.5-0.6-1.7-1.5c0-0.1-0.2-0.1-0.2,0
	c0,1,0.8,1.7,1.8,1.7c0.9,0,1.6-0.8,1.6-1.7c0.1-0.9-0.6-1.7-1.4-1.8c-0.9-0.1-1.8,0.5-2,1.4C123.8,45.6,124,45.7,124.1,45.5
	L124.1,45.5z"/>
<path class="st6" d="M110.3,31.5c-0.2,0.4-0.4,0.6-0.2,1c0.2,0.3,0.6,0.5,1,0.5c0.7,0.1,1.3-0.4,1.4-1c0,0,0,0,0,0
	c0.1-0.7-0.4-1.4-1.1-1.5c-0.8-0.1-1.4,0.5-1.5,1.2c0,0.1,0.2,0.1,0.2,0c0.1-0.6,0.6-1,1.2-1c0.6,0,1.1,0.5,1.1,1.1c0,0,0,0,0,0.1
	c0,0.6-0.4,1-1,1c-0.1,0-0.1,0-0.2,0c-0.3,0-0.5-0.1-0.7-0.3c-0.3-0.3-0.1-0.5,0.1-0.9C110.6,31.5,110.4,31.3,110.3,31.5L110.3,31.5
	z"/>
<path class="st6" d="M118.1,27.9c1.2-1.1,3.3,0.2,2.4,1.8c-1,1.7-3.3,0.3-2.7-1.4c0-0.1-0.1-0.1-0.1,0c-0.4,0.8-0.1,1.8,0.7,2.3
	c0.8,0.4,1.8,0.2,2.2-0.6c0,0,0,0,0,0c0.5-0.8,0.1-1.9-0.7-2.3C119.3,27.2,118.5,27.3,118.1,27.9C118,27.9,118,28,118.1,27.9
	L118.1,27.9z"/>
<path class="st6" d="M106.2,16.9c-1.5,0.2-2.5,1.5-2.4,2.9c0,0.2,0.1,0.5,0.2,0.7c0.6,1.3,2.1,1.9,3.5,1.3s1.9-2.1,1.3-3.5
	c-0.2-0.4-0.5-0.7-0.8-1c-1.2-0.8-2.9-0.5-3.7,0.7c-0.1,0.1-0.1,0.2-0.2,0.3c0,0.1,0.1,0.1,0.2,0.1c0.7-1.2,2.3-1.6,3.5-0.8
	c0.1,0,0.1,0.1,0.2,0.1c1,0.8,1.1,2.3,0.3,3.3c-0.8,1-2.3,1.1-3.3,0.3c-0.3-0.3-0.5-0.6-0.7-1c-0.4-1.3,0.4-2.7,1.7-3.1
	c0.1,0,0.2,0,0.3-0.1C106.4,17.1,106.4,16.9,106.2,16.9L106.2,16.9z"/>
<path class="st6" d="M78.1,6.6c-1.7,0.4-2.8,2.1-2.5,3.8c0,0.2,0.1,0.4,0.2,0.5c0.8,1.6,2.9,2.3,4.5,1.5c1.6-1,2.2-3.1,1.2-4.8
	c0-0.1-0.1-0.2-0.2-0.2C80,6,77.8,5.8,76.2,7.1c-0.1,0.1-0.2,0.1-0.2,0.2c-0.1,0.1-0.1,0.2,0,0.2c0.1,0.1,0.2,0.1,0.2,0l0,0
	c1.3-1.3,3.3-1.3,4.6,0c0.1,0.1,0.2,0.2,0.3,0.4c0.9,1.4,0.5,3.3-0.9,4.3c-1.4,0.7-3.1,0.3-4-1c-1-1.7,0.3-3.6,1.9-4.2
	C78.3,6.9,78.3,6.7,78.1,6.6L78.1,6.6z"/>
<path class="st6" d="M67,10.4c0.3-0.7,1-1.1,1.7-0.9c0.7,0.1,1.1,0.8,1,1.4c0,0.7-0.6,1.3-1.3,1.3c-0.8-0.1-1.4-0.7-1.4-1.5
	c0-0.1-0.1-0.1-0.1,0c0,0.8,0.6,1.6,1.4,1.7c0.8,0.1,1.6-0.6,1.6-1.4c0.1-0.8-0.4-1.6-1.2-1.8c0,0,0,0,0,0c-0.8-0.1-1.6,0.3-1.9,1.1
	C66.7,10.5,66.9,10.6,67,10.4L67,10.4z"/>
</svg>
