<svg id="illustration" xmlns="http://www.w3.org/2000/svg" viewBox="0 0 198.43 137.43"><defs><style>.cls-1{fill:#1689ca;}.cls-2{fill:#d8779e;}.cls-3{fill:#db9aa1;}.cls-4{fill:#a96686;}.cls-5{fill:#fff;}.cls-6{fill:#7b405a;}.cls-7{fill:#79d1f6;}.cls-8{fill:#904e6b;}.cls-9{fill:#010101;}</style></defs><path class="cls-1" d="M65.78,94.31l-1.09-.16-1.22.38-.79,1.15-.09,1.24-.48.83L60.73,98,60,99l-1.11,1-1.36.41-3.12,1-1.8,1.21-2.19,2.61s-2.52,5-.52,8.12,6.09,5.84,8.41,9.66,3.77,4.66,10.25,5.39,8,1.41,10.6,2.8,4.56,2.52,12.85,1.44c6.28-.5,4.47,1.18,9.8,1.31s12-3.13,13.57-4.5,6.31-1.51,9.39-2.16,6.6-2.1,8.72-4.8a18.37,18.37,0,0,1,7.09-5.38c1.78-.64,5-1.08,5.1-3.93s-3.21-3-3.74-6.14,1.82-3.46.83-5.1-11.59-2.91-11.59-2.91L118.44,98l-11.09.32Z"/><path class="cls-2" d="M100,47l6.93-1.49,7.46-1.77,4.61-.34a8,8,0,0,0,4.16.81c2.15-.27,6.78-2.73,6.78-2.73l3.88-3.79L135,35.41V29.6l-.63-5-1.73-3.44L129.9,18.5l-4.34-.89-3.72-.12-5.22.19-4.12-.19-2.36-.76-1.84-.3-2-3.75-2.86-1.77L98.89,9.23l-3.22-.64L93,8.27l-3.49,1-1.36.68-3.49-2.7L83.05,6.4l-1.79-1-1.71-.18.77,1.36L81,8.25l.5,1.82-1.42-.84L78,8,76.72,7.4l-1.18.08,0,1.11.29,2.32L76,12.68l.28,2.44.42,1.61.93,1.58,1,.77-1.36,2.39-1.41,3.07L75,26.68l-.57,2.12-.19,1.85.38,2.21.89,1.57.74,1v2.23L75.92,40l-.51,1.47-1.36,2.75s-2.84,4-3.11,7.48.88,4.33.88,4.33-3.06,5.28-3.12,10.15a64.09,64.09,0,0,0,.62,9.31s-3.91,7.64-4,11.08a32.84,32.84,0,0,0,5.45,18.6c4.93,7.22,3.41,4.62,3.41,4.62l1.82.07,2.67.93,3.28,1.19,2.59.75,2.36.28,4.82-.49,2.86-.29h3.16l1.21.66,3.55,1.1,2.6.55h3l2.74-.74L113,113l3.2-1,2.22-.29,2.45.26,4.32,1.06H127l1.35-1.64,1.56-.78,1.7-1.73-2.3-.94-1.55-1.55-2.46-3.3-2.32-.94-2.08-.21-1.43-1.53-2.18-.6-2.46.1-2.74.22-3.23-.72-1.5-1-.45-1,1.21-3.06,1.07-4.48.35-2.7V82.16l-.74-2.62-.57-2-1.87-3.07,3.79-1.16,3-.4h1.65l1.8-.46-.4-1.18-1.4-1-1.65-.76,1.65-1,1.11-1.21.29-.6-1.86-.36-1.86-.14.94-1.76L114,63l-.36-1.18H112.5l.15-1.16-.15-1-2,.65-1.27.63-.71.24-1.1.63-1.09.28-.61.23-1.15-2.48-1.44-2.4-1.34-2L100,52.27l-.63-1.66.28-2.13Z"/><polygon class="cls-3" points="99.33 50.61 97.9 53.07 96.62 57.24 96.39 60.68 96 64.12 96.39 66.72 98.17 66.9 100.67 66.14 104.54 64.95 105.73 64.33 105.09 61.21 103.16 57.47 101.34 54.65 99.71 51.66 99.33 50.61"/><path class="cls-3" d="M97.29,76.26a11.8,11.8,0,0,0,.17,4.27,15.23,15.23,0,0,1,7.09,7.24l1.78,6.76L106.09,98l.81-.73,1.32-3.49,1-4,.35-5.26-.74-5-1.44-3.38-1-1.65Z"/><polygon class="cls-4" points="106.14 97.31 108 98.93 110.14 99.6 112.08 100.03 114.82 99.81 117.28 99.71 118.68 99.93 119.98 100.58 120.89 101.84 119.46 102.33 116.62 102.61 112.34 102.99 109.59 102.99 108.22 102.7 106.35 102.36 104.93 101.84 105.31 100.15 106.09 98.04 106.14 97.31"/><polygon class="cls-4" points="105.74 62.35 107.44 61.84 109.25 60.97 112.5 59.69 112.5 61.44 110.47 62.8 108.63 63.52 106.35 64.33 105.74 63.4 105.74 62.35"/><path class="cls-5" d="M92.9,21.56a40.94,40.94,0,0,0-1.21-3.95l1.47-3.67,2.3-1.26,1.39-.16,1.82.45,1.53,1,1.52,1.86.45,1.81v2.68l-1.86-.43-1.84-.27-2.1.27-1.48.43Z"/><path class="cls-6" d="M126.06,20.38A3.6,3.6,0,0,0,122.49,24c.1,1.74,1.29,3.74,4.46,3.66s4.68-2.22,4.45-3.61S130.21,20.19,126.06,20.38Z"/><polygon class="cls-7" points="97.35 19.59 96.16 18.35 95.65 16.73 95.8 15.31 97.14 14.12 98.83 13.94 101.3 15.48 102.17 17.61 102.17 20.29 100.31 19.86 98.47 19.59 97.35 19.59"/><path class="cls-2" d="M69.61,110.62l.39,1.16-.41,1.15-1.23.32-.3,1-.77,1.06-1.15.6-1.45,1v1.92h.62l1.32-1.11,1.14-1,2-1.27.83-.91L72,112.93l.74-.86,1.46-.78.27.91.08,1.8-.25,1.5-.1,1.84.69,1.51-.16,1-.3,1s-.1-.19-.71.16a2,2,0,0,0-.8.73l.8.87.48,1.74s.26,1.45.26,1.74a2.72,2.72,0,0,1-.26.86c-.13.39-.8,1.72-.8,1.72l2.62,1,3.17,1.43,3.18,1.71,3.57.58,3.85-.6,2.91-.3h2.92l3.57.83,3.92.48,4.27-.86,4.73-2.07,4-2,2-.63V127l1-1.63,1.21-2,1.28-1,1.57-1.27,3-.14,2.05-.5.44-1.52-.84-1.11V114l-.76-1.07h-1.78l-2.77-.74-3-.41h-2.65L113,113l-43.24-3.52Z"/><path class="cls-5" d="M92.92,112.59a30.58,30.58,0,0,0-1.8,9c-.09,3.33,1,6.53.29,9.83a.66.66,0,0,0,1.28.35c1-3.24-.17-5.54.1-8.76.29-3.5,1.08-6.8.81-10.37a.35.35,0,0,0-.68-.09Z"/><path class="cls-5" d="M94.4,132.34c.82-2.83.18-5.89.14-8.8,0-3.38.51-6.77.32-10.12a.79.79,0,0,0-1.55-.21c-.93,3.31-.84,6.91-.89,10.33,0,3-.29,6.19,1.09,8.92a.49.49,0,0,0,.89-.12Z"/><path class="cls-5" d="M92.6,131.73l-.1.05c-.58.28-.06,1.2.51.87l.1-.05c.57-.32.07-1.16-.51-.87Z"/><path class="cls-5" d="M52.51,105.23c-1.92,2.56-1.26,7.38,1.21,9.39.18.15.54,0,.44-.26a20.29,20.29,0,0,1-1.5-4.6,27.45,27.45,0,0,1,.18-4.44c0-.19-.24-.22-.33-.09Z"/><path class="cls-5" d="M58,106a8.49,8.49,0,0,0-.28,4.3c.28,1.16.87,2.68,2.17,2.85a.61.61,0,0,0,.59-.44c.19-1-.56-1.85-1-2.74a9.58,9.58,0,0,1-1-3.89A.29.29,0,0,0,58,106Z"/><path class="cls-5" d="M76.21,119.46c2.26,1.47,7.14,4.47,9.64,2a.53.53,0,0,0-.51-.88,8,8,0,0,1-5.28-.62,8.1,8.1,0,0,0-3.7-1.06.3.3,0,0,0-.15.56Z"/><path class="cls-5" d="M103.57,121.92c2.57,0,6.51-1.25,8.16-3.34a.21.21,0,0,0-.2-.34,18.68,18.68,0,0,0-4,1.44c-1.35.51-2.76.81-4.09,1.36-.43.18-.43.88.12.88Z"/><path class="cls-5" d="M132.6,105.24a10.5,10.5,0,0,1,2.23,2.77,32,32,0,0,0,1.42,3,.43.43,0,0,0,.78-.1c.45-1.14-.1-2.79-.62-3.84a9.24,9.24,0,0,0-2.79-3.17c-.76-.57-1.74.7-1,1.33Z"/><path class="cls-5" d="M139.19,107.38a.05.05,0,0,0,0-.1.05.05,0,1,0,0,.1Z"/><path class="cls-5" d="M115.9,98.9c2.07.86,4.52.83,6.75,1a43,43,0,0,0,7.85.34c.33,0,.46-.55.08-.63a51.82,51.82,0,0,0-7.37-.72c-2.39-.19-4.94-.75-7.31-.3-.16,0-.12.24,0,.29Z"/><path class="cls-5" d="M76.59,9.2a24.32,24.32,0,0,1,3.51,1.13c.92.43,1.7,1.11,2.64,1.48a.16.16,0,0,0,.18-.23c-1.16-1.73-4.25-2.87-6.26-2.92a.28.28,0,0,0-.07.54Z"/><path class="cls-5" d="M80.83,6.84a7.18,7.18,0,0,1,2.55,1.07c.69.47,1.2,1.3,1.92,1.68a.16.16,0,0,0,.23-.18c-.14-.82-1.08-1.51-1.73-1.95A7,7,0,0,0,81,6.33c-.33-.06-.48.44-.14.51Z"/><path class="cls-5" d="M76.78,11.92c-.27,1.66.26,5.08,1.84,6,.12.07.32-.05.26-.2A25.71,25.71,0,0,1,77.52,15c-.29-1-.29-2.1-.65-3.09,0,0-.09-.05-.09,0Z"/><path class="cls-5" d="M90.49,11v.29s.05,0,.06,0V11s-.07,0-.07,0Z"/><path class="cls-5" d="M91.23,12.76c1.53-.26,2.78-1,4.41-1s2.86.8,4.38,1.12a.22.22,0,0,0,.2-.36c-1.74-2.23-7.39-2.29-9.17-.08a.18.18,0,0,0,.18.29Z"/><path class="cls-5" d="M100.78,11.3a7.32,7.32,0,0,1,2.53.79c.69.36,1.23.91,1.9,1.29a.37.37,0,0,0,.49-.5c-1-1.5-3.25-2.16-4.92-2.33-.49-.05-.47.69,0,.75Z"/><path class="cls-5" d="M120,24a4.66,4.66,0,0,1,.22-1.48,5.91,5.91,0,0,1,1-1.14.2.2,0,0,0-.14-.34c-1.18,0-2.13,2.07-1.42,3,.09.12.34.15.36,0Z"/><path class="cls-5" d="M122.19,18.77c4.28.44,7.86.69,10.89,4.12,0,.05.11,0,.09-.07-1.93-3.92-7-5.05-11-4.43-.23,0-.15.36,0,.38Z"/><path class="cls-5" d="M128.6,22a3.65,3.65,0,0,1,1.06,3.4s0,.05.05,0c.59-1.19.45-3-.94-3.64a.14.14,0,0,0-.17.22Z"/><path class="cls-5" d="M133.89,34.1a22.29,22.29,0,0,1-1.8,3.63A19.22,19.22,0,0,1,129,40.82a.13.13,0,0,0,.13.22,9.3,9.3,0,0,0,5.29-6.79.29.29,0,0,0-.53-.15Z"/><path class="cls-5" d="M96,34.93a3.55,3.55,0,0,0-1.13,5.3c.17.21.49-.06.36-.28a3.13,3.13,0,0,1,1.08-4.5c.34-.19,0-.72-.31-.52Z"/><path class="cls-5" d="M89.5,34.74c-1.75,1.39-1.78,4-.85,5.87A8.56,8.56,0,0,0,95,44.89a.3.3,0,0,0,.16-.57C90.79,43,87,39.76,89.8,35c.11-.2-.14-.36-.3-.24Z"/><path class="cls-5" d="M77.74,33.9a5.24,5.24,0,0,1-1.84-2.41,25.93,25.93,0,0,1-.55-2.62.4.4,0,0,0-.73-.09c-1.13,2.16.88,4.84,2.63,5.95.53.34,1-.48.49-.83Z"/><path class="cls-5" d="M118.55,40.82a5.05,5.05,0,0,0,2.6,1.29c.65.11,1.89.23,2.21-.52a.22.22,0,0,0-.07-.29c-.47-.36-1.24-.14-1.8-.21a4.06,4.06,0,0,1-2.21-1c-.5-.43-1.22.28-.73.72Z"/><path class="cls-5" d="M75.49,44.31c-2,3-3.53,8.77,0,11.27.26.18.64-.19.44-.45a7,7,0,0,1-1.62-5.79c.3-1.71,1.17-3.2,1.6-4.86a.22.22,0,0,0-.4-.17Z"/><path class="cls-5" d="M71.47,59.61c-2.21,3.77-1.75,10,.61,13.6a.26.26,0,0,0,.48-.2,38,38,0,0,1-1.38-7,54,54,0,0,1,.52-6.34c0-.12-.17-.16-.23-.06Z"/><path class="cls-5" d="M67.18,84.72A10.21,10.21,0,0,0,68,94.86c.13.18.45.09.38-.16a30.37,30.37,0,0,1-1.18-5.16,31.47,31.47,0,0,1,.2-4.75.14.14,0,0,0-.26-.07Z"/><path class="cls-5" d="M57.59,96.31c-.54.52-.23,1.59,0,2.18a2.6,2.6,0,0,0,1.79,1.65.28.28,0,0,0,.27-.47,7,7,0,0,1-1.34-1.54c-.29-.56-.21-1.28-.54-1.79a.13.13,0,0,0-.21,0Z"/><path class="cls-5" d="M94.81,69a2.49,2.49,0,0,1,2-.85c.37,0,1.14.38,1.3-.18a.43.43,0,0,0-.11-.42c-1-1-3.42-.25-3.8,1.1a.36.36,0,0,0,.59.35Z"/><path class="cls-5" d="M110.3,63.92a9,9,0,0,0,1.43-.35c.41-.13.84-.19,1.08-.58a.31.31,0,0,0-.18-.45,1.84,1.84,0,0,0-1.23.2,8,8,0,0,0-1.28.52c-.29.16-.18.7.18.66Z"/><path class="cls-5" d="M109.86,61.68a2.79,2.79,0,0,1,1.13-.33,1,1,0,0,0,.65-.19.23.23,0,0,0,0-.3c-.52-.57-1.6.1-2,.48-.19.17.05.45.26.34Z"/><path class="cls-5" d="M113.13,67.2a3,3,0,0,0,1.77-.34.18.18,0,0,0,0-.29,3,3,0,0,0-1.8.09.28.28,0,0,0,.07.54Z"/><path class="cls-5" d="M113.54,71a3.45,3.45,0,0,1,.81.36,1.9,1.9,0,0,0,.63.33.29.29,0,0,0,.36-.35c-.17-.74-1.14-1-1.8-.85-.27.06-.22.43,0,.51Z"/><path class="cls-8" d="M97.32,77.45a8.77,8.77,0,0,0,2.27-.65c.3-.11.16-.59-.13-.48a8.94,8.94,0,0,0-2.19,1c-.07,0-.06.18,0,.17Z"/><path class="cls-8" d="M97.3,77.2A15.4,15.4,0,0,1,99,77.1L98.7,77l.08,0c.41.3.81-.53.27-.65a2.35,2.35,0,0,0-1.88.3c-.2.14-.16.53.13.5Z"/><path class="cls-8" d="M92.38,77.67a14.33,14.33,0,0,0,6.06-.55,56.47,56.47,0,0,0,8.06-2c.14,0,.14-.29,0-.28-4.74.3-9.22,2.58-14,2.35-.27,0-.34.42-.07.47Z"/><path class="cls-8" d="M97.75,81c2.51,1.79,4.86,3,6.61,5.72,2.09,3.17,2.35,6.29,1.85,10,0,.11.13.15.16,0,1.89-6-1.55-15.23-8.52-16.12-.23,0-.25.28-.1.38Z"/><path class="cls-8" d="M72.49,99.75c2.62,4.49,8.49,9.9,14.07,7.24a.31.31,0,0,0-.16-.58,11.46,11.46,0,0,1-7.89-1.79c-2.12-1.45-3.79-3.44-5.75-5.07-.15-.12-.38,0-.27.2Z"/><path class="cls-8" d="M90.45,47.26a10.17,10.17,0,0,0,1.1,0c.38,0,.75.13,1.12.1a.31.31,0,0,0,.15-.57,2.39,2.39,0,0,0-2.48.24c-.11.1,0,.25.11.26Z"/><path class="cls-8" d="M87.31,46.19c3.39,3.29,8.72,3.05,12.78,1.26.21-.09.06-.45-.16-.37-4.38,1.61-8.21.47-12.32-1.27-.24-.11-.52.17-.3.38Z"/><path class="cls-8" d="M76,35.91c1.55,1.88,5.36,1.84,7.21.49a.17.17,0,0,0-.13-.31,10,10,0,0,1-3.69.5,20.22,20.22,0,0,1-3.22-1,.18.18,0,0,0-.17.29Z"/><path class="cls-8" d="M71.42,56.39c.56.58,1.28,1,1.89,1.57s1.21,1.12,1.78,1.72c.25.26.64-.13.39-.4a19.86,19.86,0,0,0-1.85-1.82A9,9,0,0,0,71.68,56c-.22-.09-.45.16-.26.35Z"/><path class="cls-8" d="M71.6,56.45a5,5,0,0,0,1.37,2c.5.49,1.21,1.27,1.94,1.36.22,0,.33-.26.24-.43a2.67,2.67,0,0,0-.84-.76,11,11,0,0,1-.88-.79,17.5,17.5,0,0,0-1.66-1.56c-.08-.06-.2,0-.17.13Z"/><path class="cls-8" d="M68.8,76.16a2.89,2.89,0,0,0,.31,1.25,2.33,2.33,0,0,0,.59,1,.23.23,0,0,0,.38-.16,2.42,2.42,0,0,0-.36-1.15A2.86,2.86,0,0,0,69,76.07a.13.13,0,0,0-.23.09Z"/><path class="cls-8" d="M99,47.64a5.28,5.28,0,0,0,0,1.43c0,.54-.05,1.08-.11,1.62,0,.35.56.43.62.08a5.34,5.34,0,0,0-.13-3.17.19.19,0,0,0-.33,0Z"/><path class="cls-8" d="M98.9,48.37a15.56,15.56,0,0,1-2.33,5.9.2.2,0,0,0,.32.24,11.35,11.35,0,0,0,2.46-6.14c0-.29-.42-.29-.45,0Z"/><path class="cls-8" d="M97,53.44a31.76,31.76,0,0,0-1.1,11.92.22.22,0,0,0,.44,0c.16-4,.6-7.91.92-11.88a.13.13,0,0,0-.26,0Z"/><path class="cls-8" d="M95.9,65.67a2.94,2.94,0,0,0,3.28.72c1.89-.7,3.88-1.34,5.75-2.09a.26.26,0,0,0-.14-.51,19.41,19.41,0,0,0-3.88,1.14c-.42.16-.82.34-1.22.51a3.65,3.65,0,0,1-3.55-.07c-.19-.08-.41.15-.24.3Z"/><path class="cls-8" d="M96.72,53.3A20.07,20.07,0,0,0,96,65.1c.08.33.55.18.5-.14a29.92,29.92,0,0,1,.43-11.62.08.08,0,1,0-.16,0Z"/><path class="cls-8" d="M98.86,55.89c-1.25,1.26-1.78,4.49-.32,5.78a.36.36,0,0,0,.61-.25c0-.85-.31-1.69-.34-2.55a13.78,13.78,0,0,1,.38-2.79.2.2,0,0,0-.33-.19Z"/><path class="cls-8" d="M100.62,57.69a7.74,7.74,0,0,1,1.23,1.9c.29.63.38,1.32.71,1.94a.26.26,0,0,0,.44,0c.73-1.61-.38-3.58-1.49-4.73-.56-.59-1.44.3-.89.89Z"/><path class="cls-8" d="M105.43,78.22a28.06,28.06,0,0,1,2.39,4.7,44.69,44.69,0,0,1,.75,4.75c.09.45.71.36.84,0,1.14-3.21-.65-8.12-3.4-10-.37-.25-.76.23-.58.58Z"/><path class="cls-8" d="M77.69,11.6a7.81,7.81,0,0,0,2,5.6c.23.27.61-.12.39-.39a13.36,13.36,0,0,1-2.26-5.23.09.09,0,0,0-.18,0Z"/><path class="cls-8" d="M80.12,17.1c.85-1,3.11-2.73,2.14-4.22-.75-1.17-3.08-2.72-4.49-2.32a.26.26,0,0,0-.12.43,3.2,3.2,0,0,0,1.24.57A8.28,8.28,0,0,1,81,12.64c.83.58,1.16,1.2.47,2.12-.53.71-1,1.41-1.57,2.13-.11.16.14.35.27.21Z"/><path class="cls-8" d="M77.59,11.12a8.27,8.27,0,0,0,.73,2.61A5,5,0,0,0,79.79,16c.21.14.45-.09.4-.31A11.74,11.74,0,0,0,79,13.5c-.4-.81-.68-1.66-1-2.49-.08-.2-.42-.1-.4.11Z"/><path class="cls-8" d="M79.86,16.16c.71-.62,2.42-1.66,1.9-2.79a4.86,4.86,0,0,0-2.85-2.23.69.69,0,0,0-.84.84,35.94,35.94,0,0,0,1.43,3.6c.36.74,1.48.09,1.1-.65a12.24,12.24,0,0,1-1.21-3.32l-1,.77a8.57,8.57,0,0,1,2.28,1.15c.55.53,0,.82-.34,1.29s-.54.72-.8,1.08c-.15.21.16.41.33.26Z"/><path class="cls-8" d="M80.06,16.21a1.74,1.74,0,0,0,1.36-1.49.55.55,0,0,0-.27-.48c-.33-.17-.4-.64-.58-.93a.65.65,0,0,0-1.19.5,1.67,1.67,0,0,0,1.28,1.12l-.29-.52a2.44,2.44,0,0,1-.67.94c-.39.29-.19,1,.36.86Z"/><path class="cls-8" d="M79.93,16.93a4.18,4.18,0,0,0,1.43-1.31c.55-.81-.74-1.53-1.3-.76a4.05,4.05,0,0,0-.64,1.68.35.35,0,0,0,.51.39Z"/><path class="cls-8" d="M81.24,15.58a.8.8,0,0,1,.25-.4.48.48,0,0,0-.68-.68,1.22,1.22,0,0,0-.43,1,.44.44,0,0,0,.86.12Z"/><path class="cls-8" d="M93.39,22.12c3-1.55,5.9-1.06,8.74.42.35.18.75-.28.44-.57-2.59-2.37-6.65-2.1-9.36-.18a.19.19,0,0,0,.18.33Z"/><path class="cls-9" d="M79.45,17.57c-2.75,3.8-7,10.72-5,15.62a5.9,5.9,0,0,0,9.17,2.26c.12-.1,0-.29-.17-.21C78,38.32,73.36,33.75,74.8,28a35.69,35.69,0,0,1,4.77-10.31.07.07,0,1,0-.12-.07Z"/><path class="cls-9" d="M78.69,19c-1.85-1.2-2.21-3.3-2.43-5.32-.07-.71-1-5.29-.54-5.75,1.42-1.51,9.39,4.78,10.58,5.63.19.14.37-.18.18-.32A65.12,65.12,0,0,0,78.26,8c-.72-.38-2.21-1.56-2.92-.57-.39.55.2,3.13.26,3.76.12,1.23.18,2.47.38,3.69.29,1.8.85,3.48,2.6,4.28a.11.11,0,0,0,.11-.19Z"/><path class="cls-9" d="M81.91,10.89a18.6,18.6,0,0,0-1-3.53c-.56-1.32-1.87-2.88,1-1.5,2.48,1.19,4.66,3.22,7,4.69.15.1.28-.14.14-.25C87.28,9,85.48,7.86,83.72,6.66,82.4,5.76,81.21,4.9,79.55,5a.19.19,0,0,0-.16.28,22,22,0,0,1,2.35,5.62.09.09,0,0,0,.17,0Z"/><path class="cls-9" d="M84.77,13.05c4-4.14,8.34-5.32,13.9-3.64,2.39.73,4.85,1.44,6.69,3.21a19.57,19.57,0,0,1,3.75,6c.13.26.51,0,.39-.23-1.11-2.38-2.3-4.92-4.38-6.63s-4.74-2.39-7.19-3.07C92.72,7.25,88,8.6,84.59,12.87c-.1.13.06.3.18.18Z"/><path class="cls-9" d="M108.56,16.55c8.7,4.14,22.75-3.48,26,9.45.75,3,1.46,6.18.34,9.18A13.51,13.51,0,0,1,129,41.62c-2.69,1.63-5.66,2.92-8.83,2-3.52-1.09-5.8-4.29-7.93-7.07-.16-.22-.54,0-.37.21,3.45,4.82,8,9.42,14.32,6.85,5-2,9.82-6.08,9.79-11.9,0-5.28-1.68-11.26-7-13.3-6.54-2.52-13.67.33-20.28-2.06-.14-.05-.24.18-.1.25Z"/><path class="cls-9" d="M121.77,19.81a4.67,4.67,0,0,0-3,4.73c0,.28.46.28.43,0a4.57,4.57,0,0,1,2.59-4.63c.06,0,0-.13,0-.1Z"/><path class="cls-9" d="M125,20.82a3.42,3.42,0,0,0-2.25,5c1.46,2.34,5.37,2.6,7.46,1s1.54-4.76-.7-6-6.22-.91-6.82,2a.12.12,0,0,0,.24.06c.77-2.28,3.63-2.78,5.67-2.06,2.89,1,3.48,4.85.54,6.14a5.27,5.27,0,0,1-5.43-.67,3.15,3.15,0,0,1,1.32-5.37.05.05,0,1,0,0-.1Z"/><path class="cls-9" d="M125.63,44.16a1,1,0,0,0,0,1.47c.75.82,2.17.3,3.09.17.72-.11,1.41-.29,1.56-1.1.21-1.1-.63-2.13-.18-3.22l-.37,0c0,1.15.46,3.46-.87,4s-3.48.26-3.45-1.5c0-.13-.23-.17-.25,0-.29,1.74,1.7,2.24,3,2,.66-.1,1.6-.18,1.87-.9a4.79,4.79,0,0,0,.05-1.56v-2a.19.19,0,0,0-.37,0c-.42,1,.23,1.92.23,2.95s-1.05,1.11-1.88,1.27a3.77,3.77,0,0,1-1.82.16c-.61-.21-1.1-1-.59-1.55,0,0,0-.08,0-.05Z"/><path class="cls-9" d="M117.73,43.46c-7.71,0-15,3.82-22.69,4.17C90.35,47.85,86,45.35,86,40.2c0-4.22,2.88-7,5.84-9.53.15-.12,0-.37-.21-.27-5.49,3.32-9.39,12.94-2.07,16.68,3.65,1.86,7.86.8,11.61-.1,2.76-.65,5.52-1.26,8.3-1.82a79.86,79.86,0,0,0,8.31-1.67s0,0,0,0Z"/><path class="cls-9" d="M76.14,36.78c.18,5.3-4.22,9-5.25,14-.86,4.14,1.42,6,4,8.79.12.12.35,0,.24-.19-1.19-1.67-3.13-2.77-3.8-4.8-.87-2.61.26-5.51,1.46-7.81,1.7-3.25,3.76-6.13,3.41-10,0-.06-.1-.06-.1,0Z"/><path class="cls-9" d="M72.16,55.12c-3.86,6.27-5.39,15.62-2.28,22.52.05.12.22,0,.2-.08-.76-3.72-1.54-7.18-1.22-11a29.92,29.92,0,0,1,3.45-11.33c0-.1-.09-.19-.15-.09Z"/><path class="cls-9" d="M69.23,75.4c-3.22,5.72-5.31,12.48-3.65,19s5.67,12.62,10.25,17.5c.2.22.52-.11.32-.32a42.34,42.34,0,0,1-9.91-16.48c-2-6.75.15-13.57,3.16-19.64a.1.1,0,1,0-.17-.1Z"/><path class="cls-9" d="M64.69,112.29c2.9.39,5.15-1.75,7.91-2.18,3.38-.54,6.55,1.17,9.66,2.19a16.28,16.28,0,0,0,7.43.72,30.88,30.88,0,0,1,6-.55,22.53,22.53,0,0,1,5.17,1.24c2.4.76,4.79,1.45,7.33,1,3-.49,5.72-2.22,8.76-2.74,4.85-.83,11.6,4.15,15.46-.76.1-.13-.07-.3-.18-.18-2.68,3-6.77,1.65-10.1.84a12.75,12.75,0,0,0-6.85,0c-3.06.9-5.87,2.59-9.15,2.5s-6.06-1.73-9.15-2.25c-2.79-.47-5.43.23-8.2.49-3.24.29-6-.67-9-1.76-2.29-.83-4.71-1.66-7.18-1.26-2.8.46-4.94,2.55-7.88,2.48-.13,0-.12.18,0,.19Z"/><path class="cls-9" d="M99.85,46.92c-.16,1-.29,2-.43,3a.2.2,0,1,0,.4,0c.1-1,.2-2,.27-3.06,0-.13-.22-.17-.24,0Z"/><path class="cls-9" d="M99.26,50.64c.45,2.36,1.93,4.33,3.25,6.29a18.23,18.23,0,0,1,3.09,7.44.14.14,0,0,0,.26,0c.32-2.21-.82-4.37-2-6.19a59.88,59.88,0,0,1-4.45-7.62c0-.11-.21,0-.19.08Z"/><path class="cls-9" d="M106.78,75.82c4,6.33,2.8,14.8,0,21.37-.12.27.29.52.41.24,2.71-6.24,4.64-16-.13-21.79-.11-.13-.32,0-.23.18Z"/><path class="cls-9" d="M97.18,80.84c4.79,2.94,8.33,7.06,8.86,12.87a16.53,16.53,0,0,1-1,7.27c-.9,2.39-2.25,4.58-2.8,7.09a.21.21,0,0,0,.4.11c1.77-5.55,4.85-10.09,3.66-16.17a15.94,15.94,0,0,0-8.92-11.47c-.2-.08-.37.18-.18.3Z"/><path class="cls-9" d="M105.09,102.06c4,1.89,9.88,1.55,14,.2a.18.18,0,0,0-.1-.35,37.34,37.34,0,0,1-7.38.83c-2.21,0-4.34-.57-6.54-.7,0,0,0,0,0,0Z"/><path class="cls-9" d="M119.5,102.39c5.13-2.22,7.93,5.56,12.09,7,.28.09.39-.34.12-.45-4.07-1.49-7.07-9.46-12.28-6.68-.09,0,0,.16.07.13Z"/><path class="cls-9" d="M131.52,108.73a6.66,6.66,0,0,1-1.3,1.4,3.71,3.71,0,0,1-1.66.9c-.59,0-1.09-.86-1.26-1.34a1.44,1.44,0,0,1,1.25-2,.13.13,0,0,0,0-.26,1.42,1.42,0,0,0-1.64.93,2.2,2.2,0,0,0,.43,2.23c.18.23.62.77.92.83s.91-.37,1.15-.5a6.21,6.21,0,0,0,2.24-2.14c.06-.1-.09-.18-.16-.09Z"/><path class="cls-9" d="M128.5,111.12l-.93.9a3,3,0,0,0-.74.86.11.11,0,0,0,.14.15,3.45,3.45,0,0,0,.84-.78l.86-1a.12.12,0,0,0-.17-.17Z"/><path class="cls-9" d="M128.23,111.16a3.31,3.31,0,0,0-6,1,.19.19,0,0,0,.36.1,3.13,3.13,0,0,1,5.46-1c.07.08.21,0,.15-.12Z"/><path class="cls-9" d="M107,98.38a8,8,0,0,0,4.74,1.83c3.41.3,6-1.27,9,1.41a.17.17,0,0,0,.25-.24,5.61,5.61,0,0,0-5.23-1.93,18.66,18.66,0,0,1-4.41.27A18.54,18.54,0,0,1,107,98.33a0,0,0,0,0,0,0Z"/><path class="cls-9" d="M91.05,80.47,89.78,81.9a7,7,0,0,0-1.08,1.35.13.13,0,0,0,.2.16A6.32,6.32,0,0,0,90,82.17c.4-.53.79-1.06,1.2-1.58.06-.08,0-.2-.11-.12Z"/><path class="cls-9" d="M91.11,81.19a17,17,0,0,0-1.72,2.08c-.09.15.11.28.23.18a16.52,16.52,0,0,0,1.74-2c.15-.18-.1-.43-.25-.26Z"/><path class="cls-9" d="M90.07,80.84a20.22,20.22,0,0,0-2.41,2c-.09.11,0,.29.16.21A21.45,21.45,0,0,0,90.2,81c.09-.08,0-.21-.13-.13Z"/><path class="cls-9" d="M89.05,80.85c-.59.51-1.18,1-1.79,1.52l.24.24a9.33,9.33,0,0,0,.69-1c.06-.09-.07-.19-.15-.11a10.21,10.21,0,0,0-.78.83c-.14.16.08.4.24.24.56-.55,1.13-1.08,1.71-1.61.1-.1,0-.24-.16-.15Z"/><path class="cls-9" d="M88.79,80.88a3.32,3.32,0,0,0-1.85,1.22c-.09.14.13.27.22.13s.46-.74,0-.87c-.2-.06-.42.07-.33.27,0,0,.09,0,.08,0l0,.44.15.2A6.2,6.2,0,0,1,88.82,81c.08,0,.05-.15,0-.13Z"/><path class="cls-9" d="M96.75,56.07a21,21,0,0,0-.87,10.28c0,.15.28.12.28,0A32,32,0,0,1,97,56.13a.11.11,0,0,0-.21-.06Z"/><path class="cls-9" d="M94.9,78.9A12.38,12.38,0,0,0,95,83.36c0,.08.16.07.15,0A23.59,23.59,0,0,1,95,78.9c0-.06-.08-.06-.09,0Z"/><path class="cls-9" d="M96.62,82.89a13.93,13.93,0,0,0-2-.09c-.08,0-.11.13,0,.15a14.14,14.14,0,0,0,2.06,0,.05.05,0,0,0,0-.1Z"/><path class="cls-9" d="M96.29,82.94a5.64,5.64,0,0,0-5.18,1.66c-.07.07,0,.17.11.11a6.39,6.39,0,0,1,5-1.66c.06,0,.08-.1,0-.11Z"/><path class="cls-9" d="M100.34,88.09c.59-1.06,2.4,3.38,2.41,3.44a13.53,13.53,0,0,1,.42,2.61,40.82,40.82,0,0,1-.09,4.82.08.08,0,0,0,.15,0,17.82,17.82,0,0,0-.24-7.86c-.35-1.17-1.14-3.64-2.69-3.43-.07,0-.1.1-.09.16l.05.23a0,0,0,0,0,.08,0Z"/><path class="cls-9" d="M98.86,87.81a14.85,14.85,0,0,1,1.87,11.48.07.07,0,0,0,.14,0A13.39,13.39,0,0,0,99,87.72c-.07-.1-.22,0-.16.09Z"/><path class="cls-9" d="M97.29,89.78a0,0,0,0,0,0,0s0,0,0,0Z"/><path class="cls-9" d="M97,89.71A18.53,18.53,0,0,1,98.33,99c0,.11.16.13.19,0a12.47,12.47,0,0,0-1.36-9.33c0-.07-.16,0-.13,0Z"/><path class="cls-9" d="M95.36,89.38a19.25,19.25,0,0,1,1.78,9.89c0,.14.19.13.21,0a17.23,17.23,0,0,0-1.87-10c0-.08-.16,0-.12.07Z"/><path class="cls-9" d="M94.27,92.05c3.26-.4,6.6-.69,9.82-1.38a.1.1,0,0,0,0-.2c-3.28.26-6.57.94-9.81,1.49a0,0,0,0,0,0,.09Z"/><path class="cls-9" d="M94.64,94.41A71.86,71.86,0,0,1,104.08,93a.13.13,0,0,0,0-.25,30,30,0,0,0-9.53,1.33c-.19.05-.11.36.09.31Z"/><path class="cls-9" d="M94.59,96.56a22,22,0,0,0,8.57-1.89.17.17,0,0,0-.13-.3,33.07,33.07,0,0,1-8.44,2c-.13,0-.13.2,0,.19Z"/><path class="cls-9" d="M95.64,99.09a24.12,24.12,0,0,0,7.5-2.41c.11-.07,0-.27-.1-.22a49.12,49.12,0,0,1-7.49,2.31c-.21,0-.12.36.09.32Z"/><path class="cls-9" d="M91.74,18.87c.47-1.34.11-2.77.92-4a5,5,0,0,1,4-2.1c3.34,0,5.29,3.34,5.3,6.33a.24.24,0,0,0,.47,0c0-3.16-2.06-6.66-5.51-6.78A5.49,5.49,0,0,0,93,13.81c-1.47,1.42-1.43,3.13-1.33,5a.05.05,0,0,0,.1,0Z"/><path class="cls-9" d="M92.59,21.92a9.61,9.61,0,0,1,4.41-2,7.73,7.73,0,0,1,2.67,0c.35.06,3.3,1.23,2.72,1.58-.19.12,0,.38.17.3,1.8-.77-2.35-2.27-2.76-2.35a7.7,7.7,0,0,0-7.27,2.36s0,.11.06.07Z"/><path class="cls-9" d="M99.49,14.44a2.69,2.69,0,1,0-2.65,4.64c.2.07.28-.21.13-.32-1-.77-1.76-2.06-1-3.32a2.56,2.56,0,0,1,3.43-.79.12.12,0,0,0,.12-.21Z"/><path class="cls-9" d="M97.2,14.18c-1,.64-.5,2.22.49,2.62,1.52.6,2.73-1.23,2.68-2.54a.18.18,0,0,0-.35,0c0,1-.74,2.45-2,2.29-1-.12-1.67-1.6-.8-2.27.06,0,0-.14-.06-.1Z"/><path class="cls-9" d="M119.62,30.65l0-.34a.2.2,0,0,0-.4,0l0,.34c0,.31.51.31.48,0Z"/><path class="cls-9" d="M120.4,33.61a.24.24,0,0,0,0-.48.24.24,0,0,0,0,.48Z"/><path class="cls-9" d="M124.65,35.75l0-.28c.11-.38-.56-.38-.46,0l.05.28a.18.18,0,0,0,.36,0Z"/><path class="cls-9" d="M125.32,32.52l-.32.42c-.1.14.1.34.24.24s.28-.21.42-.32-.14-.58-.34-.34Z"/><path class="cls-9" d="M132.4,29.6c.24,3.38-.31,5.79-2.67,8.32,0,0,0,.13.07.09,2.33-1.78,3.74-5.6,2.65-8.42,0,0-.06,0,0,0Z"/><path class="cls-9" d="M94.32,22.86a6.77,6.77,0,0,0-.81,1.64,17.22,17.22,0,0,0-.73,1.71.13.13,0,0,0,.23.1,15.28,15.28,0,0,0,.75-1.71,6.64,6.64,0,0,0,.63-1.71,0,0,0,0,0-.07,0Z"/><path class="cls-9" d="M96.21,23.5c-.26,1.11-.59,2.24-.76,3.37,0,.25.32.36.39.11.29-1.11.43-2.28.62-3.41,0-.17-.21-.24-.25-.07Z"/><path class="cls-9" d="M99.23,23.49a16.08,16.08,0,0,0-1,3.42c0,.12.16.15.22.06a16,16,0,0,0,1.09-3.41c.05-.16-.2-.23-.26-.07Z"/><path class="cls-9" d="M98.66,35.77a3.24,3.24,0,0,0-2,4.93c.17.25.57,0,.41-.24a3.3,3.3,0,0,1,1.63-4.61,0,0,0,0,0,0-.08Z"/><path class="cls-9" d="M65.34,94.19a2.13,2.13,0,0,0-2.49.7,2.61,2.61,0,0,0-.39,1.41c-.18,1.49-1,1.93-2.43,1.74-.09,0-.19.09-.1.17a1.84,1.84,0,0,0,2.46-.49,2.31,2.31,0,0,0,.42-1.42,2,2,0,0,1,.83-1.72,1.94,1.94,0,0,1,1.64-.18c.14,0,.19-.16.06-.21Z"/><path class="cls-9" d="M57.5,100.24a9.68,9.68,0,0,0-8.45,10.08,10,10,0,0,0,2.71,6.21c1.15,1.21,2.63,2,3.83,3.17a30,30,0,0,1,3.4,4.67c3.29,4.69,8.14,3.81,13.19,4.35,3.79.41,6.36,2.75,9.76,4.09,2.75,1.09,5.48.65,8.31.23a17.92,17.92,0,0,1,6.69,0,44.44,44.44,0,0,0,4.51,1,16.67,16.67,0,0,0,8.36-1.81c2.91-1.29,5.69-2.92,8.78-3.75,3.39-.91,7-.77,10.31-2a14.51,14.51,0,0,0,5.7-4.42,29.25,29.25,0,0,1,2.82-3,16.58,16.58,0,0,1,5.07-2.47c1.38-.55,3.06-1.27,3.39-2.89.41-2-1.57-3.21-2.64-4.6a4.52,4.52,0,0,1-1-4c.14-.61,1.15-1.75,1.21-2.22a2.09,2.09,0,0,0-.85-1.58,6.1,6.1,0,0,0-2.8-1.09c-2.19-.47-4.44-.75-6.66-1a157.06,157.06,0,0,0-26-1.27c-.29,0-.29.46,0,.45a158.59,158.59,0,0,1,20.21.63q5,.49,10,1.3a12.82,12.82,0,0,1,4,.89c1.91,1,1.12,1.87.62,3.19a5.06,5.06,0,0,0,.49,4.49,21.14,21.14,0,0,0,1.92,2.1,3.53,3.53,0,0,1,.4,3.81c-.57.83-2.14,1.24-3,1.57a15.51,15.51,0,0,0-4.16,2c-2,1.52-3.38,3.69-5.22,5.4-4.49,4.16-11.16,3-16.55,5.21-5.76,2.33-10.5,5.73-17,4.1a18.43,18.43,0,0,0-7-.68c-3.6.43-6.86,1.36-10.34-.24-2.17-1-4.07-2.54-6.36-3.28s-4.9-.65-7.36-.76c-3.87-.19-6.55-1.21-8.76-4.49a26.46,26.46,0,0,0-5.69-6.21,9.5,9.5,0,0,1,4.26-16.91c.13,0,.08-.21,0-.19Z"/><path class="cls-9" d="M66.56,117.4c2.24,2.66,6.07,4,9.29,5.11a43.14,43.14,0,0,0,11.58,2.2.09.09,0,0,0,0-.17,46.63,46.63,0,0,1-10.68-2c-3.39-1.11-7.66-2.49-10.06-5.26-.07-.08-.2,0-.13.13Z"/><path class="cls-9" d="M98.28,124.84c3.19.73,6.23-.62,9.24-1.58s6.48-1.52,9-3.42c.1-.08,0-.26-.11-.18-2.21,1.66-5.35,2.25-8,3.09-3.23,1-6.65,2.62-10.1,2a0,0,0,0,0,0,.09Z"/><path class="cls-9" d="M84.93,118.24a13.72,13.72,0,0,0,9.66.78,0,0,0,0,0,0-.09,15.85,15.85,0,0,1-9.6-.74s-.06,0,0,0Z"/><path class="cls-9" d="M57.3,105.11a6.16,6.16,0,0,0,1.9,8.17s.08,0,0-.06a6.28,6.28,0,0,1-1.87-8.06,0,0,0,0,0-.07,0Z"/><path class="cls-9" d="M54.41,104.33a10.9,10.9,0,0,0,.81,10.2,0,0,0,1,0,.07,0,11.77,11.77,0,0,1-.81-10.12c0-.05,0-.08-.07,0Z"/><path class="cls-9" d="M136.15,105.19c1.43,1.82,3.09,4.26,1.3,6.45,0,.06,0,.14.08.09,2-2.09.15-4.84-1.31-6.61,0-.05-.11,0-.07.07Z"/><path class="cls-9" d="M125.58,92.52a25.07,25.07,0,0,1,3.93-6,9.63,9.63,0,0,1,1-1c.82-1,1.64-1.11,2.46-.17.92.16,1.3.65,1.17,1.47-.11,1.55-1.5,2.56-2.61,3.45-.06,0,0,.16.09.11,1.21-.85,2.63-2,2.73-3.56a2.26,2.26,0,0,0-1.43-2.39c-1.7-.48-3.23,1.47-4.15,2.58a20.56,20.56,0,0,0-3.25,5.46s0,.06.06,0Z"/><path class="cls-9" d="M60.68,81.57a10.13,10.13,0,0,0-3-3.18c-.75-.51-2.55-1.81-3.51-1.13a1.53,1.53,0,0,0-.3,1.93c.56,1,2,1.13,3,1.07a.13.13,0,0,0,0-.26c-.79-.08-1.89,0-2.48-.68s-.52-1.13.36-1.32a.88.88,0,0,1,1.42-.14c.3.15.59.3.87.47a12.12,12.12,0,0,1,3.52,3.32c.06.07.19,0,.14-.08Z"/><path class="cls-9" d="M69.82,108c-4.93-2.26-7.23-5.9-9.17-10.76-.46-1.16-2.28-5.65-4-3.16-1.32,2,1.2,5.68,2.31,7.1,2.65,3.39,6.28,6.09,9.49,8.91.18.16.45-.11.27-.27-2.5-2.21-5.1-4.33-7.49-6.65a19.73,19.73,0,0,1-3.08-3.68A5.89,5.89,0,0,1,57,96.9c-.41-1,.3-1.67,2.12-1.91a9.28,9.28,0,0,1,.8,1.57c1.14,2.53,1.81,5,3.64,7.21a15.6,15.6,0,0,0,6.18,4.4c.1,0,.16-.12.07-.16Z"/><path class="cls-9" d="M55.53,91.55a4.22,4.22,0,0,1,1.16-.3c.4,0,.8,0,1.19,0a.07.07,0,0,0,0-.14,3.42,3.42,0,0,0-2.44.32c-.09,0,0,.2.07.16Z"/><path class="cls-9" d="M55.88,90.85l.68-.35c.07,0,0-.14-.07-.11l-.68.33c-.09,0,0,.17.07.13Z"/><path class="cls-9" d="M52.63,95.88a13.93,13.93,0,0,0,.09,2.74.07.07,0,0,0,.14,0A13.93,13.93,0,0,0,53,95.88a.16.16,0,0,0-.32,0Z"/><path class="cls-9" d="M51.77,96.91s0,0,0,0,0,0,0,0Z"/><path class="cls-9" d="M98.45,51.61A21.33,21.33,0,0,0,96.18,65c0,.24.45.18.42-.06a26.34,26.34,0,0,1,2.05-13.26c0-.11-.14-.18-.2-.08Z"/><path class="cls-9" d="M77.59,10.69a4.84,4.84,0,0,1,4.2,2.08c.14.2.47,0,.33-.19a4.57,4.57,0,0,0-4.56-2.09c-.11,0-.09.2,0,.2Z"/><path class="cls-9" d="M82,8a4.09,4.09,0,0,1,1.6.46c.41.22.71.57,1.1.81a.07.07,0,0,0,.1-.1A3.08,3.08,0,0,0,82,7.89.07.07,0,1,0,82,8Z"/><path class="cls-9" d="M89.57,13.4c3.63-3.52,8.92-3.41,12.11.66.12.15.38-.05.27-.2a7.94,7.94,0,0,0-12.45-.52,0,0,0,1,0,.07.06Z"/><path class="cls-9" d="M113.94,40.53a15.68,15.68,0,0,0-7.21-.09c-1.87.37-3.54.79-5.38,0a13.5,13.5,0,0,1-4-3c-.22-.21-.55.13-.33.34,1.69,1.6,3.56,3.35,6,3.58a15.4,15.4,0,0,0,4.31-.64,23.45,23.45,0,0,1,6.64,0c.11,0,.12-.16,0-.18Z"/><path class="cls-9" d="M93.65,67.67a.35.35,0,0,0,.2-.18.07.07,0,0,0-.1-.1.35.35,0,0,0-.18.2.06.06,0,0,0,.08.08Z"/><path class="cls-9" d="M93.52,67.91a5.29,5.29,0,0,1,2.55-1,6.84,6.84,0,0,1,2.45.47c.18.06.25-.19.12-.29a4.42,4.42,0,0,0-5.3.56.15.15,0,0,0,.18.23Z"/><path class="cls-9" d="M97.76,67.45c3.75-1.42,7.58-2.59,11.35-4a.1.1,0,0,0,0-.19,47.86,47.86,0,0,0-11.38,4c-.11,0,0,.23.08.19Z"/><path class="cls-9" d="M92.57,76.9a5.69,5.69,0,0,0,4.71-.46c.24-.13,0-.49-.21-.36a7.12,7.12,0,0,1-4.47.71.06.06,0,0,0,0,.11Z"/><path class="cls-9" d="M97.36,76.61a136.31,136.31,0,0,0,15.85-3.53c.17,0,.09-.29-.08-.27a138.22,138.22,0,0,0-15.8,3.7.05.05,0,0,0,0,.1Z"/><path class="cls-9" d="M109,63.77a12.67,12.67,0,0,1,4-1.69c1.44-.28.63,1.61.37,2.26s-.62,1.33-.86,2c0,.16.18.24.26.11a15.43,15.43,0,0,0,1.36-3c.18-.52.48-1.27-.13-1.64s-1.63.09-2.22.31a11.63,11.63,0,0,0-2.85,1.56.07.07,0,0,0,.08.12Z"/><path class="cls-9" d="M112.17,66.14a3,3,0,0,1-1.87-1.34,3.86,3.86,0,0,1-.49-2.1.18.18,0,0,0-.36-.05c-.57,1.69,1.11,3.46,2.64,3.78a.15.15,0,0,0,.08-.29Z"/><path class="cls-9" d="M112.53,66.6a6,6,0,0,1,3.59.34l-.1-.24a4.06,4.06,0,0,1-1,1.47c-.38.33-.85.49-1.23.8a.14.14,0,0,0,.1.24c1.18-.06,2.16-1.41,2.56-2.4a.21.21,0,0,0-.1-.24,4.62,4.62,0,0,0-3.88-.15c-.11,0,0,.19.08.18Z"/><path class="cls-9" d="M113.69,69.48a2.1,2.1,0,0,1-1.37-1.57c-.11-.7.28-1.12.5-1.73.05-.12-.1-.19-.19-.15-.74.32-.89,1.47-.69,2.16a2.07,2.07,0,0,0,1.71,1.44c.08,0,.11-.12,0-.15Z"/><path class="cls-9" d="M113.64,69.91a4.61,4.61,0,0,1,2.76,2.64l.16-.28-1.94.48a5.59,5.59,0,0,0-1.67.51.15.15,0,0,0,.07.27,5.76,5.76,0,0,0,1.73-.33l1.93-.48a.24.24,0,0,0,.17-.29,4.13,4.13,0,0,0-3.16-2.7.09.09,0,0,0,0,.18Z"/><path class="cls-9" d="M113.24,73.3a2.79,2.79,0,0,1,.21-3.87c.22-.21-.11-.52-.33-.33a2.82,2.82,0,0,0,0,4.3.07.07,0,0,0,.09-.1Z"/><path class="cls-9" d="M105.34,62.89a19.71,19.71,0,0,0,1.87-.66,4.67,4.67,0,0,0,1.44-.69.16.16,0,0,0-.11-.26,4.57,4.57,0,0,0-1.49.56,18.39,18.39,0,0,0-1.78.88.09.09,0,0,0,.07.17Z"/><path class="cls-9" d="M108.86,61.5a5.36,5.36,0,0,0,.57,1.79.18.18,0,0,0,.33-.13,5.34,5.34,0,0,0-.81-1.68s-.1,0-.09,0Z"/><path class="cls-9" d="M108.44,61.57a21,21,0,0,1,4.11-1.68l-.26-.15a5,5,0,0,1,0,1.93.17.17,0,0,0,.31.09,2.9,2.9,0,0,0,.08-2.13.21.21,0,0,0-.26-.15,9.62,9.62,0,0,0-4.09,2c-.07.06,0,.15.09.12Z"/><path class="cls-9" d="M118,103.82a.13.13,0,0,0,0-.25.13.13,0,0,0,0,.25Z"/></svg>