<svg id="Letter" xmlns="http://www.w3.org/2000/svg" viewBox="0 0 198.43 137.43"><defs><style>.cls-1{fill:none;stroke:#010101;stroke-miterlimit:10;stroke-width:0.5px;}.cls-2{opacity:0.87;}.cls-3{fill:#010101;}</style></defs><path class="cls-1" d="M77.3,68.11q29.1-4,48-8.71a12.49,12.49,0,0,1,3.11-.47q4.4,0,4.39,4.22c0,1.88-1.06,3.14-3.17,3.76s-9.21,1.85-21.66,3.86Q91.4,73.44,77.3,75.1V96.34q0,7.72,7.14,9.29,3.54.78,16.23.78,13,0,33.92-1.56c.45,0,.82-.06,1.1-.06a4.64,4.64,0,0,1,3.42,1.36,4.46,4.46,0,0,1,1.28,3.24q0,3.12-4.15,3.65c-.45.07-1.5.14-3.17.21q-18.12.93-33.07.94-14.16,0-19.22-1.1-8.73-1.83-11.41-7.93a20.39,20.39,0,0,1-1.47-8.3V44.21q0-4,4.76-4t4.64,4Z"/><g class="cls-2"><path class="cls-3" d="M77.3,68.11q29.1-4,48-8.71a12.56,12.56,0,0,1,3.11-.47q4.4,0,4.39,4.22c0,1.88-1,3.14-3.17,3.76s-9.21,1.85-21.66,3.86Q91.4,73.44,77.3,75.1V96.34q0,7.72,7.14,9.29,3.54.78,16.23.78,13,0,33.92-1.56c.45,0,.82-.06,1.1-.06a4.63,4.63,0,0,1,3.42,1.36,4.46,4.46,0,0,1,1.28,3.24q0,3.12-4.15,3.65c-.45.07-1.5.14-3.17.21q-18.12.93-33.07.94-14.16,0-19.22-1.1-8.73-1.83-11.41-7.93a20.39,20.39,0,0,1-1.47-8.3V44.21q0-4,4.76-4t4.64,4Z"/></g></svg>