<svg id="illustration" xmlns="http://www.w3.org/2000/svg" viewBox="0 0 198.43 116.67"><defs><style>.cls-1{fill:#fff;}.cls-2{fill:#cb9449;}.cls-3{fill:#231f20;}.cls-4{fill:#f1cf24;}.cls-5{fill:#243e8d;}.cls-6{fill:#c6eafa;}.cls-7{fill:#2a160b;}.cls-8{fill:#28b9ec;}.cls-9{fill:#010101;}</style></defs><path class="cls-1" d="M129.45,26.33c.13.24.19.56.3.82s.29.6.44.89a12.51,12.51,0,0,1,1.41,5.76,12,12,0,0,1-.7,3.92,16.2,16.2,0,0,1-.72,1.73c-.16.32-.25.67-.41,1a3.48,3.48,0,0,0-.42.92c-.06.34.22.76.62.62a2.53,2.53,0,0,0,.91-.69,7,7,0,0,0,.75-.79,8.36,8.36,0,0,0,1.08-2.1,13.1,13.1,0,0,0,.79-4.51,12.85,12.85,0,0,0-.75-4.52,11.49,11.49,0,0,0-1-2.11,4.64,4.64,0,0,0-.66-.87,8.2,8.2,0,0,0-.86-.63.47.47,0,0,0-.74.57Z"/><path class="cls-1" d="M131,23.28a8.53,8.53,0,0,1,2.08,9.41c-.11.28.33.45.48.2a7.81,7.81,0,0,0-2.22-10c-.26-.19-.57.22-.34.43Z"/><path class="cls-1" d="M136,36.22A31.63,31.63,0,0,1,123.9,50.46a.24.24,0,0,0,.23.41,26.49,26.49,0,0,0,12.3-14.48c.08-.23-.3-.4-.4-.17Z"/><path class="cls-2" d="M123.32,30.88h0s-.06,0-.05.05a0,0,0,0,0,.05.05h0a.05.05,0,0,0,.05-.05.06.06,0,0,0-.05-.05Z"/><path class="cls-2" d="M123,30.88c-.12.53-.17,1.07-.25,1.6a.29.29,0,0,0,.23.35.28.28,0,0,0,.31-.27c0-.54.1-1.09.1-1.63a.2.2,0,0,0-.39-.05Z"/><path class="cls-2" d="M123.08,30.92a.67.67,0,0,0-.14.11,1.59,1.59,0,0,0-.15.21,2.18,2.18,0,0,0-.2.5,4,4,0,0,0-.18,1,4.88,4.88,0,0,0,0,1,3.69,3.69,0,0,0,.11.56.94.94,0,0,0,.22.51.34.34,0,0,0,.56-.15,1,1,0,0,0,0-.52c0-.15,0-.31,0-.47s0-.6,0-.91,0-.6.07-.91c0-.14,0-.29.05-.44a2.08,2.08,0,0,0,0-.25,1.06,1.06,0,0,0,0-.19.15.15,0,0,0-.25-.1Z"/><path class="cls-2" d="M122.85,34.84a.18.18,0,0,0,.1,0l.08,0a.22.22,0,0,0,0-.08.18.18,0,0,0,0-.1v-.07a.24.24,0,0,0-.06-.11l0,0a.33.33,0,0,0-.13,0,.17.17,0,0,0-.1,0,.21.21,0,0,0-.13.13.17.17,0,0,0,0,.1v.07a.41.41,0,0,0,.07.11l0,0a.28.28,0,0,0,.13,0Z"/><path class="cls-2" d="M122.65,34.87l.19.05.27,0h.09l.19,0,.1,0,.13-.06a.43.43,0,0,0,.2-.26.46.46,0,0,0,0-.26.42.42,0,0,0-.17-.2.79.79,0,0,0-.22-.06.51.51,0,0,0-.23.07l-.07,0,.1,0-.21.09.09,0-.23.09.09,0a.79.79,0,0,1-.22.06l.08,0h-.09a.3.3,0,0,0-.28.26.28.28,0,0,0,0,.18l0,.06a.29.29,0,0,0,.13.08Z"/><path class="cls-2" d="M123.63,34.81a4.44,4.44,0,0,0,.81-.55,1.93,1.93,0,0,1,.85-.37,1.72,1.72,0,0,1,.88.16c.17.08.35.16.52.26l.26.14a.64.64,0,0,0,.41,0,.34.34,0,0,0,.26-.34.64.64,0,0,0-.16-.41,3.08,3.08,0,0,0-.27-.24,2.56,2.56,0,0,0-.58-.39,2.23,2.23,0,0,0-1.5-.22,2.44,2.44,0,0,0-1.13.63,2,2,0,0,0-.41.51,1.28,1.28,0,0,0-.19.6.2.2,0,0,0,.25.19Z"/><path class="cls-2" d="M127.52,34.46s0,0,0,0a.47.47,0,0,0,.25.19,1.59,1.59,0,0,0,.38.07,1.87,1.87,0,0,0,.83-.25,2.4,2.4,0,0,0,.64-3.84.49.49,0,0,0-.66,0,.49.49,0,0,0-.13.64l.15.22.07.12s.05.11,0,0a1.12,1.12,0,0,1,.08.26.75.75,0,0,1,0,.16c0-.06,0,0,0,0a1.22,1.22,0,0,1,0,.27c0,.15,0-.08,0,0l0,.1a1.83,1.83,0,0,1-.08.25l0,0-.06.11-.07.11s-.09.12,0,.06l-.05.06-.09.09-.1.09c.07-.06,0,0,0,0a2,2,0,0,1-.25.14c-.35.18-.95.44-.86.92v-.19c0,.11,0,.21,0,.29Z"/><path class="cls-2" d="M129.42,30.63a1.73,1.73,0,0,0-.65-.22c-.21,0-.44,0-.65,0-.5,0-1,.07-1.49.12s-.95.1-1.43.13-1,0-1.49,0a.5.5,0,0,0,0,1,19.75,19.75,0,0,0,3,.08,10.48,10.48,0,0,0,1.48-.17,6.14,6.14,0,0,0,.73-.22,1.56,1.56,0,0,0,.56-.42.21.21,0,0,0,0-.32Z"/><path class="cls-2" d="M123.35,31.05a4.05,4.05,0,0,0-.19,1.43,4,4,0,0,0,0,.69c0,.14,0,.28,0,.42a1.26,1.26,0,0,0,.15.38.4.4,0,0,0,.45.18.41.41,0,0,0,.29-.38,1.48,1.48,0,0,0,0-.42c0-.1,0-.2,0-.3a2.89,2.89,0,0,1,0-.29c0-.13,0-.26-.05-.4-.06-.4-.06-.88-.16-1.31a.25.25,0,0,0-.48,0Z"/><path class="cls-2" d="M123.6,34.09a2.25,2.25,0,0,1,1-.06l1.14.11a4.42,4.42,0,0,0,2.47-.21,1.85,1.85,0,0,0,1.13-2,1.2,1.2,0,0,0-.94-.87,7.17,7.17,0,0,0-1.31,0c-1,0-2,.09-3.05.18a.72.72,0,0,0-.7.7.7.7,0,0,0,.7.69c1,0,1.93-.08,2.9-.16a7.7,7.7,0,0,1,1.37-.11c-.05-.14-.1,0-.11,0s-.18.21-.32.29a2.09,2.09,0,0,1-.91.21,10.62,10.62,0,0,1-1.38-.06,2.56,2.56,0,0,0-2.26.86c-.14.17,0,.5.24.42Z"/><path class="cls-2" d="M123.71,32a.57.57,0,0,0,0,.13,1.38,1.38,0,0,0,0,.2l0,.25,0,.26,0,.13a.49.49,0,0,0,0,.16.54.54,0,0,0,.28.21.45.45,0,0,0,.34,0,.45.45,0,0,0-.22-.84h0l.38.22-.22-.42-.11-.21-.1-.15-.08-.09a.24.24,0,0,0-.28,0,.25.25,0,0,0-.16.24Z"/><path class="cls-2" d="M123.93,33a4.19,4.19,0,0,0,.83.32c.31.06.63,0,.95.07s.55,0,.83,0a4,4,0,0,0,1,0,.77.77,0,0,0,0-1.48,3.6,3.6,0,0,0-1-.06,7.69,7.69,0,0,0-.83,0c-.31,0-.65,0-.95.11a.58.58,0,0,0-.22.08h0l-.23.11-.35.2a.33.33,0,0,0,0,.56Z"/><path class="cls-3" d="M126.72,23.61a3.54,3.54,0,0,1,3,1,3.94,3.94,0,0,1,1.24,2.9c0,.16.26.2.29,0a3.56,3.56,0,0,0-1.3-3.2,3.86,3.86,0,0,0-3.32-.95c-.15,0-.08.25.06.23Z"/><path class="cls-3" d="M133.18,36.32A29.34,29.34,0,0,1,131.49,39a15.56,15.56,0,0,1-2.17,2.27,13.47,13.47,0,0,1-5.7,2.88c-.22.05-.12.38.09.34a13.38,13.38,0,0,0,6-2.76,12.49,12.49,0,0,0,2.27-2.38,8.72,8.72,0,0,0,1.54-2.94.17.17,0,0,0-.3-.13Z"/><path class="cls-3" d="M135.11,36.79a17.58,17.58,0,0,1-10.52,9.34.16.16,0,0,0,.08.31,15.76,15.76,0,0,0,10.76-9.52c.07-.18-.24-.31-.32-.13Z"/><path class="cls-3" d="M134.56,27.56c.34-.22.22-1,.16-1.31a7.69,7.69,0,0,0-.52-1.69,10.49,10.49,0,0,0-1.9-3,10,10,0,0,0-6.11-3.26c-.28,0-.33.43-.07.49a10.88,10.88,0,0,1,5.66,3.57,10.55,10.55,0,0,1,1.73,2.83c.1.24.77,2.61,1.05,2.42Z"/><path class="cls-4" d="M85.76,21.15l-6.13-1.46,0-.51-3.52-6,1.64.73-.36-2.36a21,21,0,0,0-2.76-2.78c-.54-.19,1.43-.15,2.29.24a11.31,11.31,0,0,1,1.84,1.13s-.3-3.41,1.56-4.94.68-.5.68-.5a2.72,2.72,0,0,0,.91,2.08,11.14,11.14,0,0,1,8.49-5.35c-1.81,1.91-.26,2.94-.26,2.94a17.7,17.7,0,0,1,3.33-1,3.28,3.28,0,0,1,2.65.36s-1.17.43-1.27.86a8.59,8.59,0,0,1-.44,1.22s2.95.22,3.88,1,3.24,3.35,3.24,3.35a4,4,0,0,0-1.86-.27,10.31,10.31,0,0,0-1.83.47,4.13,4.13,0,0,1,1,1.27c.31.7,1.11,2,.46,3.34-2.71-1.76-3.82-1.34-3.82-1.34s.92,1.39.84,1.89-2-.54-2-.54-.43.11-.11,1A18.48,18.48,0,0,0,90,15l.53,4-.85-.34-1-2.66a5.59,5.59,0,0,0-1.56,1.3,7.63,7.63,0,0,0,0,2.6Z"/><path class="cls-4" d="M96,18.32l-3.44-1.47a4.91,4.91,0,0,1,1.12,1.24,1.47,1.47,0,0,0,1.75.72C96,18.65,96,18.32,96,18.32Z"/><path class="cls-2" d="M80.26,19.88l5.08,1.17,1.81-1.17s-.41-2.13,0-2.6A13.24,13.24,0,0,1,88.71,16l1,2.66.85.34L90,15.49l3.69.81L94,15s1.74.24,2,.61A2.09,2.09,0,0,1,96.37,18a20.43,20.43,0,0,0-1,3.06,5.2,5.2,0,0,1,.75,1.29c.28.74-1.21,1-1.21,1L94.39,25a1,1,0,0,0-1.57-.18c-1,.74.31,1.55.31,1.55a2.14,2.14,0,0,1-1.89,1.24c-1.38,0-1.18-2.39-2.61-3.43s-8.37-2.31-8.37-2.31Z"/><path class="cls-5" d="M80.26,21.89l-.84,2.51s5.83,1.12,6.22,1.23,5.6,2,5.6,2-.89-2.69-2.61-3.43S80.26,21.89,80.26,21.89Z"/><path class="cls-6" d="M79.42,24.4a75.6,75.6,0,0,0-7.12,3.85c-1.5,1.13-5.49,4.42-6.45,7.72s-2.32,8.22,1,14.21c2.25,3.75,2.78,3.36,2.78,3.36S74.58,52.85,75,52s1.23.35,1.23.35l.45,2.27-1.54-.18a7.26,7.26,0,0,0-1.31,3c-.17,1.51.17,7.62.14,8.35a18.28,18.28,0,0,1-.88,4c-.3.51,1.55,1.31,1.55,1.31S80,73.13,83.53,73.2s3.71.41,4,0l4.21-6,.42,4.9a11.41,11.41,0,0,0,5.78,0c2.49-.89,3.5-1.17,3.5-1.17S96.54,63.15,96,61.7s-2.09-8.45-2.09-8.45.7-2.93.31-4.09.58-.95.58-.95A6.87,6.87,0,0,0,96,44.43c1.54-.64,3.32-1.55,3.32-1.55l4.4-1.17,3-1.37.75-.49v.49l5.29-.24,1.91-.83,1.13.35,1.42-.55,5-2.64.38-5.69a61,61,0,0,0-10.26-1.17A38.34,38.34,0,0,0,103,30.94c.36-.3-6.45-2.56-11.18-3.27C88.28,27.13,79.88,23.72,79.42,24.4Z"/><path class="cls-6" d="M73.8,70.62s5.38,1.91,6.39,2.12,7.33.46,7.33.46l3.26-7.79,7.19.45s3.75,6.93,5.48,8.28,2.62,6.94,2.62,6.94l1,6.57,1.82,9.48a11.62,11.62,0,0,1-4.37,2.45,40.6,40.6,0,0,1-6.81.71s-2.54-10-3.67-11.7-2-4.46-2.67-4.94-3.46-6-3.46-6L80.19,92.21,65.34,109.39s-6.82-.7-7.56-1.57-2.7-2.94-3-5.13C57.32,99,65.34,87.4,65.34,87.4L71,83.12a2.7,2.7,0,0,1,.1-2.37,2.73,2.73,0,0,1,1.9-1S72.57,72.83,73.8,70.62Z"/><path class="cls-7" d="M98.17,102.69l.94,1.26a2.72,2.72,0,0,0,1.42.34c.8-.05,3.75-.45,4.41-.46s6,.8,7.5.93S114.3,103,114.3,103l-.59-.35-3.73-1L105.75,99a22,22,0,0,1-6.31,1.39C97.66,102.1,98.17,102.69,98.17,102.69Z"/><path class="cls-7" d="M55.53,105.08s2.42,3.18,5.25,3.81c.57,1.94,5.65,2.55,6,3.49s.07,1.69-.87,1.93-2.8,1.26-4.13,1-2.37-1.56-3.74-2-4.78-.61-5.34-1.31-1.77-2.05.45-3.74S55.53,105.08,55.53,105.08Z"/><path class="cls-3" d="M76.25,52.46a7.41,7.41,0,0,0,.45,2.12,67.47,67.47,0,0,0,12,1.46c3.44,0,5.83-.22,5.83-.22l2.05,0,2.42.63,2.21,1.46L103,59.61l1.45.67h1.74l1.44-.5-2.78-.57-2.78-2-2.55-2.24-2.21-1.17-1.55-.18L94,53.9l-.12-.4-9.58-.14Z"/><path class="cls-3" d="M94.91,56.25S97.78,61.73,98,62s5.39,6,7.34,6.74c-1.09,1.2-5.12,1-5.12,1L96.1,62.06l-1.61-6Z"/><path class="cls-8" d="M71.69,41.4c-.55,0-1.1,0-1.65,0h-.8c-.25,0-.62-.06-.82.12a.22.22,0,0,0,0,.3c.2.18.57.12.82.12H70c.55,0,1.1,0,1.65,0a.22.22,0,0,0,0-.44Z"/><path class="cls-8" d="M71.58,41.68a12.24,12.24,0,0,1-1,.7c-.17.1-.35.19-.53.28a3,3,0,0,0-.57.28.21.21,0,0,0,.11.39,1,1,0,0,0,.34-.06l.32-.13a6.36,6.36,0,0,0,.58-.3,4.33,4.33,0,0,0,1-.82.21.21,0,0,0,0-.28.22.22,0,0,0-.28-.06Z"/><path class="cls-8" d="M71.6,42.21a4.11,4.11,0,0,0-1.22,1.43,9.12,9.12,0,0,0-.41.83c-.06.15-.12.3-.17.44a2.25,2.25,0,0,0-.08.24.88.88,0,0,0,0,.28.22.22,0,0,0,.38.1,2.88,2.88,0,0,0,.36-.82,5.79,5.79,0,0,1,.39-.79c.29-.52.69-1,1-1.46a.18.18,0,0,0-.25-.25Z"/><path class="cls-8" d="M71.78,42.62c0,.28,0,.56,0,.84a6.31,6.31,0,0,1-.1.76q-.07.39-.18.78a1.65,1.65,0,0,0-.1.44.31.31,0,0,0,.34.32c.33,0,.4-.48.46-.73a4.75,4.75,0,0,0,.12-.83,4.47,4.47,0,0,0-.17-1.63.18.18,0,0,0-.35,0Z"/><path class="cls-8" d="M75.75,51.8A8.55,8.55,0,0,0,77.53,51c.6-.35,1.19-.73,1.76-1.13s1.08-.79,1.6-1.21a6.75,6.75,0,0,0,1.48-1.39c.13-.21-.12-.41-.31-.31a4,4,0,0,0-.75.56l-.77.62c-.55.43-1.1.85-1.66,1.25s-1.09.75-1.64,1.12a14,14,0,0,0-1.62,1.11c-.11.09,0,.26.13.23Z"/><path class="cls-8" d="M77.87,51.68c1-.37,2.06-.77,3.07-1.2.49-.21,1-.4,1.49-.62a8.7,8.7,0,0,0,1.44-.78.16.16,0,0,0-.12-.29,9.8,9.8,0,0,0-1.56.51c-.5.2-1,.43-1.48.64-1,.43-2,.9-3,1.39-.19.09-.06.42.15.35Z"/><path class="cls-8" d="M79.2,52.49l3.85-1.76c.65-.29,1.31-.57,2-.83l.94-.37a2.88,2.88,0,0,0,.9-.43.27.27,0,0,0-.19-.46,3,3,0,0,0-1,.3c-.31.11-.62.24-.93.36-.64.27-1.28.54-1.92.83a30.42,30.42,0,0,0-3.77,2,.19.19,0,0,0,.19.33Z"/><path class="cls-8" d="M84,53.36a13.71,13.71,0,0,1,2.6-1.15,10.28,10.28,0,0,1,1.34-.39c.51-.11,1.08-.11,1.4-.58a.41.41,0,0,0-.07-.49,1.66,1.66,0,0,0-1.59,0,11.39,11.39,0,0,0-1.47.56,9.3,9.3,0,0,0-2.43,1.8c-.14.14,0,.39.22.28Z"/><path class="cls-8" d="M90.32,41.24a.5.5,0,0,0,0-1,.5.5,0,0,0,0,1Z"/><path class="cls-8" d="M88.92,41.5c1.42-1.34,3.49-1.67,5.27-2.27a9.14,9.14,0,0,0,2.35-1.09,3,3,0,0,0,1.5-1.9.24.24,0,0,0-.36-.2,9.94,9.94,0,0,0-.89.83,6.55,6.55,0,0,1-1,.73,12.46,12.46,0,0,1-2.44,1c-1.75.56-3.52,1.09-4.76,2.53a.25.25,0,0,0,.35.35Z"/><path class="cls-8" d="M108.15,40c.23.06.35-.09.5-.22l-.15.09a.7.7,0,0,0,.32-.25l.2-.2.44-.41.21-.19,0,0s.08-.06,0,0l0,0,.06-.05.29-.22s0,0,0,0l.11-.09a.46.46,0,0,0,.12-.23.34.34,0,0,0-.22-.39.91.91,0,0,0-.73.23c-.19.13-.37.27-.55.42a3.35,3.35,0,0,0-.41.43l-.23.3a.69.69,0,0,0-.17.39l0-.17a2.18,2.18,0,0,0-.11.27.31.31,0,0,0,.16.37Z"/><path class="cls-8" d="M114.81,39.43a2.12,2.12,0,0,0,.9-.32,5.22,5.22,0,0,0,.8-.52l.34-.27.16-.15a.42.42,0,0,0,.11-.15c0-.09-.05,0,0-.06l.27-.36a.92.92,0,0,0,.19-.47c0-.18-.19-.3-.35-.26a.93.93,0,0,0-.37.2l-.32.23c-.09.08.1,0,0,0a.51.51,0,0,0-.2.12l-.16.14-.31.26,0,0s0,0,0,0l-.1.08-.16.13-.07.06,0,0-.06,0-.08.06c-.13.1-.28.18-.39.28a2.68,2.68,0,0,0-.3.28.33.33,0,0,0-.07.36.31.31,0,0,0,.3.2Z"/><path class="cls-8" d="M103.8,31.2a2.39,2.39,0,0,0-1.34-.31,6.83,6.83,0,0,0-1.49.19,6.73,6.73,0,0,0-1.37.41,5.58,5.58,0,0,0-.63.35,1.42,1.42,0,0,0-.55.48.3.3,0,0,0,.26.45,1.69,1.69,0,0,0,.66-.16l.59-.18c.43-.14.86-.29,1.31-.39s.86-.14,1.3-.2l.62-.08a1.77,1.77,0,0,0,.64-.2.21.21,0,0,0,0-.36Z"/><path class="cls-8" d="M93.74,71.32a24.05,24.05,0,0,1-.29-3.88c0-.63,0-1.26,0-1.89,0-.31,0-.62.06-.94a2.53,2.53,0,0,0,0-1c-.07-.21-.38-.36-.55-.15a3.45,3.45,0,0,0-.46,1.82,16.51,16.51,0,0,0,0,2.11,15.65,15.65,0,0,0,.83,4,.22.22,0,0,0,.42-.12Z"/><path class="cls-8" d="M86.33,75.27A4.42,4.42,0,0,0,86,76.53a10.27,10.27,0,0,1-.42,1.33,11.84,11.84,0,0,1-1.37,2.49,10.65,10.65,0,0,1-1.93,2.09,10,10,0,0,1-1.15.81c-.41.25-.89.43-1.28.71a.15.15,0,0,0,.12.27,4.29,4.29,0,0,0,1.31-.59,10.63,10.63,0,0,0,1.21-.81,10.58,10.58,0,0,0,3.57-4.71,11.17,11.17,0,0,0,.43-1.39,2.8,2.8,0,0,0,.13-1.43.16.16,0,0,0-.29,0Z"/><path class="cls-8" d="M79.27,84.13A21.71,21.71,0,0,0,83.63,81a23.82,23.82,0,0,0,1.89-1.87A7.68,7.68,0,0,0,87.1,77a.18.18,0,0,0-.27-.21,5.5,5.5,0,0,0-.86.88c-.3.33-.59.67-.89,1-.59.63-1.21,1.23-1.84,1.82a50.57,50.57,0,0,1-4.15,3.31.18.18,0,0,0,.18.31Z"/><path class="cls-8" d="M89.65,74.28a4.28,4.28,0,0,0,2.09.77,13.32,13.32,0,0,0,2.27.22,12.52,12.52,0,0,0,2.28-.18,9.87,9.87,0,0,0,1.17-.27,2.17,2.17,0,0,0,1-.43.35.35,0,0,0-.24-.58,3.36,3.36,0,0,0-1,.2c-.34.09-.68.16-1,.22a12.12,12.12,0,0,1-4.33,0,9.85,9.85,0,0,0-2.06-.39.25.25,0,0,0-.17.43Z"/><path class="cls-8" d="M89.73,74.6a8.27,8.27,0,0,0,2.11,1.14,11.64,11.64,0,0,0,2.29.7,15.72,15.72,0,0,0,2.37.33c.41,0,.83,0,1.25,0a2.06,2.06,0,0,0,1.13-.16.38.38,0,0,0,0-.65,2.39,2.39,0,0,0-1.13-.1l-1.1,0a19.54,19.54,0,0,1-2.28-.32c-.74-.15-1.46-.38-2.19-.59-.35-.11-.7-.2-1-.33A9.51,9.51,0,0,0,90,74.16c-.24-.06-.46.26-.26.44Z"/><path class="cls-8" d="M103.59,77.7a8.63,8.63,0,0,0-2.19,2.39,15.19,15.19,0,0,0-.85,1.39c-.12.24-.25.48-.36.73A1.79,1.79,0,0,0,100,83a.19.19,0,0,0,.32.14,2.08,2.08,0,0,0,.4-.61c.13-.24.24-.49.36-.73a14.43,14.43,0,0,1,.82-1.36c.29-.43.6-.84.93-1.24s.72-.79,1-1.21c.13-.17-.11-.39-.28-.28Z"/><path class="cls-8" d="M91.74,85.08c.28.29.83.19,1.2.14a5.55,5.55,0,0,0,1.28-.3,7,7,0,0,0,1.17-.56,3.87,3.87,0,0,0,.53-.37,1.18,1.18,0,0,0,.46-.53c.1-.24-.18-.47-.4-.41a1.56,1.56,0,0,0-.52.32l-.46.32a6.84,6.84,0,0,1-1,.54,8.42,8.42,0,0,1-1.11.35c-.35.08-.86.07-1.11.34a.1.1,0,0,0,0,.16Z"/><path class="cls-8" d="M106.58,87.91a3,3,0,0,0-.12,1.33c0,.47,0,.94-.06,1.4s-.07.94-.13,1.4c0,.25-.06.5-.1.75a1.58,1.58,0,0,0,0,.65.22.22,0,0,0,.4,0,1.34,1.34,0,0,0,.2-.65c0-.24.08-.48.11-.72.07-.47.12-1,.15-1.42s0-1,0-1.46a2.4,2.4,0,0,0-.19-1.33.16.16,0,0,0-.27,0Z"/><path class="cls-8" d="M74.57,92a1.28,1.28,0,0,0,1,.1,7.81,7.81,0,0,0,1.07-.22,10,10,0,0,0,2-.79,9.32,9.32,0,0,0,1.76-1.24,8.13,8.13,0,0,0,.76-.79,1.57,1.57,0,0,0,.47-1,.28.28,0,0,0-.35-.27,1.81,1.81,0,0,0-.76.61c-.22.25-.46.48-.7.71a8.34,8.34,0,0,1-1.62,1.21,9.18,9.18,0,0,1-1.81.81,7.16,7.16,0,0,1-1,.23,1.51,1.51,0,0,0-.87.31.2.2,0,0,0,0,.31Z"/><path class="cls-8" d="M68.15,90A9.78,9.78,0,0,0,70,89.65a17,17,0,0,1,1.85-.42,11.69,11.69,0,0,1,1.87-.15,7.57,7.57,0,0,0,2-.08.49.49,0,0,0,.12-.89,3.8,3.8,0,0,0-2.08-.31,14.25,14.25,0,0,0-2.06.22,10.21,10.21,0,0,0-2,.52A4.08,4.08,0,0,0,68,89.66c-.09.11,0,.32.13.31Z"/><path class="cls-8" d="M69.77,53.39a12.1,12.1,0,0,0,1.09-1.06c.18-.17.35-.35.52-.53l.26-.28a.53.53,0,0,0,.19-.47.26.26,0,0,0-.19-.19.46.46,0,0,0-.45.18l-.28.26c-.18.17-.36.36-.53.54a13.79,13.79,0,0,0-1,1.12.31.31,0,0,0,.44.43Z"/><path class="cls-8" d="M69.87,53.48c.47-.31.91-.65,1.36-1l.65-.53a1.72,1.72,0,0,0,.56-.64c0-.12,0-.25-.16-.22a1.83,1.83,0,0,0-.74.42l-.64.55c-.41.38-.83.75-1.22,1.16-.12.12,0,.34.19.25Z"/><path class="cls-8" d="M70.78,53.39c.51-.25,1-.5,1.52-.79l.74-.42A1.65,1.65,0,0,0,73.4,52c.12-.09.22-.19.33-.29s0-.45-.21-.37a3.29,3.29,0,0,0-.44.16,2.33,2.33,0,0,0-.34.2l-.73.45c-.48.31-1,.64-1.41,1a.18.18,0,0,0,.18.31Z"/><path class="cls-8" d="M70.57,95.91a4.83,4.83,0,0,0,1.31-.1,9.83,9.83,0,0,0,1.19-.29,12.19,12.19,0,0,0,1.15-.42c.21-.08.41-.19.61-.29a1,1,0,0,0,.52-.4.33.33,0,0,0-.2-.48,1,1,0,0,0-.63.14l-.55.22a11.75,11.75,0,0,1-1.13.41c-.38.12-.78.23-1.17.33s-.8.17-1.18.31a.29.29,0,0,0,.08.57Z"/><path class="cls-8" d="M55.71,104.3c-.8-1.52.07-2.85,1.06-4S58.69,98,59.6,96.8s1.8-2.46,2.63-3.74a21.19,21.19,0,0,0,2.2-3.91c.07-.16-.16-.22-.25-.1-1,1.33-1.8,2.83-2.72,4.22s-2,2.92-3.1,4.3a39.77,39.77,0,0,0-3,3.65c-.59,1-.91,2.44.08,3.26.13.1.32,0,.24-.18Z"/><path class="cls-8" d="M72.29,80a3.64,3.64,0,0,0-.86,2.09,3.85,3.85,0,0,0,.4,2.24.39.39,0,0,0,.42.17.34.34,0,0,0,.16-.1.37.37,0,0,0,.1-.36,4.35,4.35,0,0,1-.36-1.88,4.71,4.71,0,0,1,.57-1.83c.12-.26-.21-.56-.43-.33Z"/><path class="cls-1" d="M80.15,23.44a.89.89,0,0,0,.48.19c.22.05.45.07.67.11l1.39.29c.45.1.89.21,1.33.34a6.74,6.74,0,0,0,1.32.34c.16,0,.19-.2.07-.28a4.7,4.7,0,0,0-1.32-.51c-.44-.12-.88-.23-1.33-.33s-.9-.17-1.35-.24l-.64-.08a1,1,0,0,0-.61.08.06.06,0,0,0,0,.09Z"/><path class="cls-1" d="M78.29,26.51a5.17,5.17,0,0,0-1.75.77A13.56,13.56,0,0,0,75,28.34a13.14,13.14,0,0,0-2.64,2.73c0,.08.07.17.13.1a21.63,21.63,0,0,1,2.82-2.51c.49-.35,1-.69,1.51-1a12.1,12.1,0,0,0,1.58-1c.1-.08,0-.21-.11-.19Z"/><path class="cls-1" d="M84.41,27.11c.55.17,1.08.39,1.61.61.26.11.51.23.76.36a2,2,0,0,0,.79.36.19.19,0,0,0,.16-.29c-.13-.25-.5-.37-.74-.48s-.53-.24-.8-.35a7.9,7.9,0,0,0-1.72-.44.12.12,0,0,0-.06.23Z"/><path class="cls-1" d="M91.56,29.89a8.41,8.41,0,0,1,4.1.55,1.47,1.47,0,0,0,.7.19.41.41,0,0,0,.4-.39c0-.52-.73-.64-1.11-.73a9.35,9.35,0,0,0-1.39-.22,8.44,8.44,0,0,0-2.74.28c-.17.05-.14.34,0,.32Z"/><path class="cls-1" d="M85.26,5.19c.47-.41.9-.87,1.38-1.27s1-.71,1.49-1.11A.1.1,0,0,0,88,2.65a5.58,5.58,0,0,0-1.6,1,6.45,6.45,0,0,0-1.32,1.39c-.06.09.07.17.14.11Z"/><path class="cls-1" d="M91.39,5.24A6.58,6.58,0,0,1,92.05,5a5.46,5.46,0,0,1,.61-.21,3.61,3.61,0,0,1,.65-.15A1.47,1.47,0,0,0,94,4.42a.21.21,0,0,0,0-.35A1,1,0,0,0,93.22,4a4.73,4.73,0,0,0-.74.19,3.32,3.32,0,0,0-.68.34,3.42,3.42,0,0,0-.58.49.14.14,0,0,0,.17.22Z"/><path class="cls-1" d="M94.07,4.24l-.28.17a1,1,0,0,0-.15.13.86.86,0,0,0-.14.13L93.27,5l-.13.17a.76.76,0,0,0-.08.21.19.19,0,0,0,.27.21.83.83,0,0,0,.29-.3l.22-.31a.4.4,0,0,0,.08-.16A1.42,1.42,0,0,0,94,4.59c0-.11.06-.22.09-.33s0,0,0,0Z"/><path class="cls-1" d="M95.82,8a7.62,7.62,0,0,1,1.66.2,2.85,2.85,0,0,1,.73.34,4.15,4.15,0,0,1,.34.24A.82.82,0,0,0,99,9a.26.26,0,0,0,.26-.26c0-.34-.44-.62-.7-.77a3.24,3.24,0,0,0-.89-.4,2.51,2.51,0,0,0-1.94.07.2.2,0,0,0,.1.37Z"/><path class="cls-1" d="M96.22,11.54l.09.06-.06-.06c0,.08.13.13.2.19l.2.16.41.35a4.59,4.59,0,0,1,.37.39l.08.09,0,.06s0,.05,0,0a.72.72,0,0,0,.28.24.26.26,0,0,0,.38-.29,1.1,1.1,0,0,0-.38-.55,5.08,5.08,0,0,0-.43-.38,3.54,3.54,0,0,0-.51-.35,2.44,2.44,0,0,0-.28-.14l-.28-.1a.17.17,0,0,0-.2.1.19.19,0,0,0,.07.22Z"/><path class="cls-1" d="M80.27,17.69a1.49,1.49,0,0,0-.12-.62c0-.1-.09-.21-.14-.31s-.05-.09-.07-.13l0-.07c0-.06,0,0,0,0a.75.75,0,0,0-.06-.13l0-.06a1.09,1.09,0,0,1-.13-.17L79.45,16a1.22,1.22,0,0,0-.27-.24.65.65,0,0,0-.41-.15.35.35,0,0,0-.27.14.32.32,0,0,0-.06.3.74.74,0,0,0,.23.33l.1.08c-.08-.06,0,0,0,0l.12.09.19.19.2.22.07,0,0,0,0,.06h0l0,.05.16.23a3.88,3.88,0,0,0,.3.48.22.22,0,0,0,.41-.11Z"/><path class="cls-1" d="M84.48,19.08a1.51,1.51,0,0,0,.35-.2l.27-.25a5.8,5.8,0,0,0,.52-.58,6.2,6.2,0,0,0,.77-1.29c.07-.16,0-.42-.23-.4l-.57.06c-.18,0-.45,0-.55.19a.18.18,0,0,0,0,.21c.11.14.38.11.54.1l.55,0-.23-.4a6.76,6.76,0,0,1-.75,1.26,5.25,5.25,0,0,1-.43.53l-.25.27a1.81,1.81,0,0,0-.22.32c-.09.13.08.25.2.2Z"/><path class="cls-1" d="M78,10.41l0,.06v-.11a.46.46,0,0,0,.11.48l.18.33s.08.12.08.16,0,0,0,0l0,0,0,.09c0,.12.06.25.1.37a.74.74,0,0,0,.07.21.3.3,0,0,0,.32.15c.21,0,.24-.29.24-.47a2,2,0,0,0-.27-.83,1.42,1.42,0,0,0-.29-.39c-.12-.14-.35-.31-.54-.18l.11,0h-.07c-.07,0-.15,0-.12.12Z"/><path class="cls-1" d="M79.75,8.82a4.69,4.69,0,0,0,.18-.61c0-.06,0-.11,0-.16S80,8,80,8L80,8a1.56,1.56,0,0,1,.16-.28h0l.09-.12c-.05.08,0,0,0,0l.06-.06.11-.11.06-.06c.07,0-.06,0,0,0l.27-.17.13-.07L81,7h0l0,0A.26.26,0,0,0,81,6.5a1,1,0,0,0-.29,0l-.18,0a1.44,1.44,0,0,0-.37.19,2,2,0,0,0-.58.6,2.06,2.06,0,0,0-.26.73.91.91,0,0,0,.19.81.17.17,0,0,0,.25,0Z"/><path class="cls-1" d="M88.76,21.82a2.15,2.15,0,0,0,.29,1.6,2.34,2.34,0,0,0,.52.61,1.91,1.91,0,0,0,.34.24.66.66,0,0,0,.47.09.18.18,0,0,0,.11-.26,1,1,0,0,0-.3-.23c-.1-.07-.21-.12-.3-.19a2.08,2.08,0,0,1-.45-.49,2.18,2.18,0,0,1-.32-1.32c0-.21-.31-.25-.36-.05Z"/><path class="cls-1" d="M87.94,17.29l-.09,0h0a.14.14,0,0,0-.11,0h0a.15.15,0,0,0-.13,0,.67.67,0,0,0-.28.32.46.46,0,0,0,0,.23.59.59,0,0,0,0,.13.18.18,0,0,0,.15.12.12.12,0,0,0,.13-.05s0,0,0,0h0a.19.19,0,0,0,0-.16v0h0V17.8s0-.06,0-.09a.24.24,0,0,1,0-.08h0s0,0,0,0,0,0,0,0l0,0h0l0,0a.14.14,0,0,0,0-.15l0,.08a.18.18,0,0,0,0-.07l0,0,.06,0s0-.08,0-.08Z"/><path class="cls-1" d="M88.07,17.07a.87.87,0,0,0-.39.1,1.18,1.18,0,0,0-.3.29,1.26,1.26,0,0,0-.16.33.75.75,0,0,0,0,.21s0,.08,0,.12a.35.35,0,0,0,.08.13.18.18,0,0,0,.16.05.18.18,0,0,0,.13-.09.26.26,0,0,0,0-.09.64.64,0,0,1,0-.07v0s0,0,0,0,0,0,0-.06v0l0-.07s0,.06,0,0l0,0a.35.35,0,0,1,.07-.12s0,0,0,0,0,0,0,0l.05-.05,0,0s0,0,0,0,0,0,0,0,0,0,.06-.06l0,0h0l.13-.07a.22.22,0,0,0,.09-.22.19.19,0,0,0-.19-.14Z"/><path class="cls-1" d="M87.93,17c-.13.13-.25.27-.37.4a1.5,1.5,0,0,0-.19.25.75.75,0,0,0-.07.12.58.58,0,0,0-.06.17.19.19,0,0,0,.07.2.2.2,0,0,0,.21,0,1.5,1.5,0,0,0,.13-.11.48.48,0,0,0,.09-.11,1.51,1.51,0,0,0,.18-.26c.08-.16.17-.33.25-.5a.16.16,0,0,0,0-.19.17.17,0,0,0-.2,0Z"/><path class="cls-1" d="M81.34,21.21a1.55,1.55,0,0,0,.71.39,4.67,4.67,0,0,0,.74.17,3.94,3.94,0,0,0,.77.07,2.28,2.28,0,0,0,.81-.15.17.17,0,0,0-.05-.33l-.76-.05c-.23,0-.46,0-.68,0a5.47,5.47,0,0,1-.7-.16,3,3,0,0,0-.73-.16.16.16,0,0,0-.11.27Z"/><path class="cls-1" d="M94.49,17.18a1.15,1.15,0,0,0,1,.17,1.4,1.4,0,0,0,.44-.22.84.84,0,0,0,.23-.23c.06-.09.14-.21.09-.33a.24.24,0,0,0-.22-.16c-.11,0-.19.08-.27.15s0,0,0,0l0,0-.08.05,0,0h0s-.06,0-.08.05l-.08.05,0,0h0l-.09,0-.19,0h0s0,0,0,0h-.26a.91.91,0,0,0-.23,0,.21.21,0,0,0-.15.35Z"/><path class="cls-1" d="M95.3,15.83l.11.26a.75.75,0,0,0,.07.12l0,.06.07.07a.12.12,0,0,0,.14,0,.12.12,0,0,0,.08-.12.34.34,0,0,0,0-.1.19.19,0,0,0,0-.07c0-.06,0-.1-.07-.16l-.15-.25a.15.15,0,0,0-.21-.05.16.16,0,0,0-.07.09.25.25,0,0,0,0,.12Z"/><path class="cls-1" d="M84.63,10.67c.05-.13.1-.26.14-.4l.1-.4q.12-.4.21-.81l-.39.1a2.45,2.45,0,0,0,.44.47.18.18,0,0,0,.26-.2,2,2,0,0,0-.34-.55.23.23,0,0,0-.42,0c-.08.28-.15.55-.21.83l-.1.41c0,.15,0,.3-.07.45a.19.19,0,0,0,.17.19.2.2,0,0,0,.21-.14Z"/><path class="cls-1" d="M89.37,10.44a3.86,3.86,0,0,1,.48-.51,2.61,2.61,0,0,1,.27-.19l.29-.21A4.23,4.23,0,0,1,91.66,9l-.32-.32-.21.61a1.6,1.6,0,0,0-.1.31.58.58,0,0,0,0,.32.17.17,0,0,0,.24.1.54.54,0,0,0,.22-.23c.05-.11.08-.23.13-.34l.22-.63c.07-.19-.14-.36-.32-.32a3.91,3.91,0,0,0-1.36.66,3.85,3.85,0,0,0-1,1.13c-.07.12.11.27.2.16Z"/><path class="cls-1" d="M85.3,13.94l.06-.1,0,0h0s.06-.07,0,0a.39.39,0,0,1,.08-.1l0,0,0-.05a3.08,3.08,0,0,1,.3-.33,1.29,1.29,0,0,1,.17-.16l.08-.06c0-.05,0,0,0,0l0,0a2.55,2.55,0,0,1,.39-.24l-.39-.22v.26a.46.46,0,0,0,0,.21.58.58,0,0,0,.1.12.19.19,0,0,0,.26,0,.87.87,0,0,0,.09-.11.4.4,0,0,0,0-.22v-.26a.26.26,0,0,0-.39-.23,3.14,3.14,0,0,0-.79.62,2.45,2.45,0,0,0-.31.41,1.63,1.63,0,0,0-.2.47.15.15,0,0,0,.09.19.19.19,0,0,0,.21-.06Z"/><path class="cls-1" d="M81.56,13a1,1,0,0,0-.25-.51,1.28,1.28,0,0,0-.53-.33.28.28,0,0,0-.34.2,1.26,1.26,0,0,0,0,.61.79.79,0,0,0,.17.31.48.48,0,0,0,.26.18.18.18,0,0,0,.16,0,.19.19,0,0,0,.08-.15s0-.07,0-.11l0-.1v0l0,0s0,0,0,0a.14.14,0,0,0,0-.07l0-.14a.83.83,0,0,1,0-.15v.07a1,1,0,0,1,0-.25v.07s0,0,0-.07l-.34.19.22.08-.06,0a.83.83,0,0,1,.16.09l.07,0,0,0,.06,0,0,0,.07,0h0l0,0a1.36,1.36,0,0,1,.12.12.14.14,0,0,0,.23-.14Z"/><path class="cls-1" d="M81,54.25c.42.4,1.34.37,1.89.41.78.07,1.57.15,2.35.19a19.48,19.48,0,0,0,4.58-.07c.1,0,.07-.16,0-.17-1.52-.09-3,0-4.56-.08a22.42,22.42,0,0,1-2.3-.24L81.8,54.1a1.31,1.31,0,0,0-.76,0,.08.08,0,0,0,0,.12Z"/><path class="cls-1" d="M93,54.59a1,1,0,0,0,.42-.08l.37-.1.39-.08h.32s0,0,0,0h0l.06,0c.06,0,0,0,0,0s.06,0,0,0,0,0,0,0,0,0,0,0,0,0,0,0,0,.06,0,0,0,.09,0,0,0,.05,0,.08,0,0,0,0h0l0,0a.45.45,0,0,1-.23.14.26.26,0,0,0-.18.32.26.26,0,0,0,.32.19.9.9,0,0,0,.69-.65.66.66,0,0,0-.48-.77,1.8,1.8,0,0,0-.89.06,3.5,3.5,0,0,0-.46.14,1.12,1.12,0,0,0-.5.3.21.21,0,0,0,.13.3Z"/><path class="cls-1" d="M94.69,56.09h0a.35.35,0,0,0,.14,0H95a1,1,0,0,0,.25-.08,1.61,1.61,0,0,0,.52-.34.75.75,0,0,0,.26-.59c0-.27-.25-.58-.56-.49a.29.29,0,0,0-.18.19.22.22,0,0,0,0,.14l0,.06a.28.28,0,0,0,.1.09c-.07-.06,0,0,0,0a.35.35,0,0,0,.09.06l0,0,0,0s0-.06,0,0l0,0s0,0,0,0v0h0s0,0,0,0,0,.07,0,0,0,0,0,0l0,0,0,0,0,0,0,.05,0,0-.09.08h0l0,0a1,1,0,0,1-.19.12l-.11.06h0l-.05,0-.14.08a.18.18,0,0,0-.07.05l0,0a.17.17,0,0,0-.08.16.16.16,0,0,0,.12.13Z"/><path class="cls-1" d="M98,63.5c-.13.13,0,.39.1.52a5.31,5.31,0,0,0,.42.63c.28.4.58.78.88,1.17a5.38,5.38,0,0,0,.83.89c.26.2.79.62,1.12.4a.18.18,0,0,0,.09-.22c-.07-.18-.25-.26-.42-.36a2.75,2.75,0,0,1-.44-.32,7.57,7.57,0,0,1-.8-.89c-.29-.37-.56-.74-.86-1.1a4.11,4.11,0,0,0-.48-.55c-.09-.08-.31-.31-.44-.17Z"/><path class="cls-1" d="M97.94,55.33c.31.16.65.27,1,.44a8.33,8.33,0,0,1,1,.55c.29.19.58.4.87.61l.41.3c.15.11.25.28.41.38s.15,0,.12-.09a2.42,2.42,0,0,0-.29-.42c-.12-.15-.23-.31-.35-.47a4.66,4.66,0,0,0-.84-.76,6.38,6.38,0,0,0-1-.58,4,4,0,0,0-1.1-.4c-.25,0-.45.3-.18.44Z"/><path class="cls-1" d="M100.18,72.64a1.13,1.13,0,0,0,.4.82c.26.29.53.57.82.84.53.5,1.15.89,1.67,1.4a3.5,3.5,0,0,1,.91,1.77c.14.68.12,1.41.31,2.08a.22.22,0,0,0,.43,0,5.29,5.29,0,0,0,0-2.17,4.18,4.18,0,0,0-.89-2,14.36,14.36,0,0,0-1.72-1.49c-.31-.27-.62-.55-.91-.84s-.49-.58-.87-.6a.16.16,0,0,0-.16.15Z"/><path class="cls-1" d="M95.11,87.66c.31.74.75,1.42,1.11,2.14a21,21,0,0,1,1,2.27c.29.75.55,1.52.77,2.3.11.4.23.8.34,1.2a3.61,3.61,0,0,0,.39,1.07.16.16,0,0,0,.28,0,5.13,5.13,0,0,0-.3-2.35,19.57,19.57,0,0,0-.82-2.45,23.19,23.19,0,0,0-1-2.21,9.53,9.53,0,0,0-1.42-2.13c-.13-.14-.43,0-.35.2Z"/><path class="cls-1" d="M58.23,102a18.18,18.18,0,0,0,1.34-2.2l1.36-2.33c.45-.78.9-1.56,1.36-2.34a8.44,8.44,0,0,0,1.18-2.29.19.19,0,0,0-.31-.18,8.17,8.17,0,0,0-1.38,2.17l-1.34,2.35-1.33,2.35a17.69,17.69,0,0,0-1.22,2.27c-.08.18.21.35.34.2Z"/><path class="cls-1" d="M76.15,67.29a2.62,2.62,0,0,0-.36,2.27c.34.92,1.23,1.19,2.11,1.4,1.07.27,2.15.54,3.22.79.55.13,1.09.23,1.63.34a4.22,4.22,0,0,0,1.61.17c.3-.07.28-.44.08-.6a3.83,3.83,0,0,0-1.28-.45c-.46-.12-.91-.26-1.37-.36L79,70.2l-1.29-.31a2.12,2.12,0,0,1-1-.41,1.28,1.28,0,0,1-.28-1c0-.38,0-.75.06-1.12a.17.17,0,0,0-.32-.09Z"/><path class="cls-1" d="M93.25,57.9a7.73,7.73,0,0,0,.21,1.52c.09.55.22,1.08.34,1.61.24,1,.48,2,.76,2.94a8.48,8.48,0,0,0,.89,2.15c.36.58,1,1.38,1.74,1.36a.32.32,0,0,0,.28-.48,5.49,5.49,0,0,0-.65-.72,4.23,4.23,0,0,1-.63-.89,9.55,9.55,0,0,1-.77-2.07c-.24-.91-.48-1.82-.73-2.72-.15-.5-.3-1-.47-1.48a7,7,0,0,0-.54-1.33.23.23,0,0,0-.43.11Z"/><path class="cls-1" d="M106.56,101.27a4.92,4.92,0,0,0,1.31.67c.5.2,1,.37,1.52.53a14.93,14.93,0,0,0,1.5.37,2.78,2.78,0,0,0,1.51.09c.1,0,.18-.19.07-.28a3.3,3.3,0,0,0-1.35-.43c-.49-.1-1-.22-1.46-.36s-1-.28-1.43-.45a9.63,9.63,0,0,0-1.46-.49c-.19,0-.39.21-.21.35Z"/><path class="cls-1" d="M60.08,109.46c-.13.15,0,.38.06.53a2.46,2.46,0,0,0,.44.66,5.11,5.11,0,0,0,1.2,1,8.14,8.14,0,0,0,1.58.74l.84.28a1.83,1.83,0,0,0,.91.18.24.24,0,0,0,.1-.4,1.59,1.59,0,0,0-.77-.31l-.85-.27a8.84,8.84,0,0,1-1.53-.71,5.35,5.35,0,0,1-1.17-1c-.09-.11-.66-.94-.81-.77Z"/><path class="cls-9" d="M95.34,13.8a5.22,5.22,0,0,1,3.81,1.49.2.2,0,0,0,.33-.09,4.72,4.72,0,0,0-.1-3.06,4.91,4.91,0,0,0-.74-1.32,4.29,4.29,0,0,0-.54-.59,1.44,1.44,0,0,0-.62-.41c-.15,0-.32.13-.22.28a3.8,3.8,0,0,0,.52.46,4.45,4.45,0,0,1,.48.49A4.54,4.54,0,0,1,99,12.3a4.44,4.44,0,0,1,.13,2.79l.33-.08a4.63,4.63,0,0,0-4.11-1.38c-.09,0-.07.16,0,.17Z"/><path class="cls-9" d="M97.78,10.52a6.82,6.82,0,0,1,1.84-.47,4.65,4.65,0,0,1,1.88.28c.17.06.31-.16.23-.3A9.43,9.43,0,0,0,98.6,6.82a10.11,10.11,0,0,0-2-.94,6,6,0,0,0-2.25-.38c-.21,0-.28.33-.06.38.69.16,1.39.22,2.08.43a9.44,9.44,0,0,1,2,.89,9.08,9.08,0,0,1,3.07,3l.23-.3a4.42,4.42,0,0,0-3.91.39c-.09.07,0,.24.08.2Z"/><path class="cls-9" d="M94.69,5.83a7.42,7.42,0,0,1,.55-1.09,2.67,2.67,0,0,1,1-.86.22.22,0,0,0,0-.38,7.08,7.08,0,0,0-3.48-.27,7.5,7.5,0,0,0-1.66.48,3.64,3.64,0,0,0-1.46,1c-.07.09,0,.27.12.21.48-.2.91-.5,1.38-.71a6.78,6.78,0,0,1,1.64-.51,7,7,0,0,1,3.35.23l0-.37a2.69,2.69,0,0,0-1.52,2.25c0,.09.14.15.18,0Z"/><path class="cls-9" d="M90.23,4.35a4.2,4.2,0,0,1,.35-2.83.19.19,0,0,0-.16-.28A10.94,10.94,0,0,0,85.6,3,11.51,11.51,0,0,0,82,6.68a.2.2,0,0,0,.34.2,11.33,11.33,0,0,1,3.51-3.55,12.68,12.68,0,0,1,4.61-1.72l-.21-.27a3.94,3.94,0,0,0-.18,3.05.08.08,0,1,0,.15,0Z"/><path class="cls-9" d="M82.37,7A3,3,0,0,1,81.22,4.7a.2.2,0,0,0-.3-.17,5.52,5.52,0,0,0-2.16,2.61,4.61,4.61,0,0,0,.12,3.71c.06.12.24,0,.21-.09a5.74,5.74,0,0,1,0-3.48,4.66,4.66,0,0,1,2-2.41l-.3-.17a3,3,0,0,0,1.41,2.5c.16.1.29-.13.14-.24Z"/><path class="cls-9" d="M78.85,10.07a4.72,4.72,0,0,0-4.2-1.5c-.18,0-.31.28-.1.38a5.65,5.65,0,0,1,2.24,1.93,5.89,5.89,0,0,1,.68,1.32c.17.47.21,1,.38,1.44.05.11.24.14.27,0a3.19,3.19,0,0,0-.25-1.55,6.32,6.32,0,0,0-.72-1.42,6.16,6.16,0,0,0-2.4-2.07l-.1.38a5,5,0,0,1,2.17.19,6.18,6.18,0,0,1,1.91,1.06c.09.07.18-.08.12-.16Z"/><path class="cls-9" d="M78.32,13.8a2.6,2.6,0,0,1-2-.76c-.15-.15-.44.06-.3.24a41.79,41.79,0,0,1,3.89,6.19.22.22,0,0,0,.41-.11c0-.7-1.06-.51-.93.19.06.36.39.54.7.67a9.37,9.37,0,0,0,1.55.51.22.22,0,0,0,.12-.43,9.71,9.71,0,0,1-1-.31,4.2,4.2,0,0,1-.55-.22,1,1,0,0,1-.24-.15c-.13-.1-.14-.19,0-.26l.41-.11a37.39,37.39,0,0,0-4-6.21l-.27.27a2.3,2.3,0,0,0,2.34.62c.06,0,.06-.13,0-.13Z"/><path class="cls-9" d="M82.1,20.59a6.4,6.4,0,0,0,1,.33l1,.27,1,.25a5.18,5.18,0,0,0,1,.23.17.17,0,0,0,.09-.32,5,5,0,0,0-1-.27l-1-.23-1-.23a6.85,6.85,0,0,0-1-.16.07.07,0,0,0,0,.13Z"/><path class="cls-9" d="M85.8,21.19c.49-.4,1-.82,1.44-1.22l-.18-.18-.28.27-.13.14-.07.07a.47.47,0,0,0-.06.09c-.07.09.06.21.14.15l.09-.06.06-.06.15-.14.28-.28c.12-.12-.07-.3-.18-.18-.44.44-.9.87-1.34,1.32,0,.06,0,.12.08.08Z"/><path class="cls-9" d="M95.41,14.17a3.13,3.13,0,0,1,.7,1.81l.3-.12a4.8,4.8,0,0,0-2.13-1.17c-.28-.08-.4.37-.12.43a4.65,4.65,0,0,1,2,1,.18.18,0,0,0,.3-.17,5.31,5.31,0,0,0-.31-1,4,4,0,0,0-.57-.9c-.1-.12-.26.05-.17.16Z"/><path class="cls-9" d="M94,15a2.26,2.26,0,0,0,.1,1.45l.24-.23c-1.42-.49-2.86-.9-4.29-1.33a.24.24,0,0,0-.3.29A23.83,23.83,0,0,1,90.38,19l.22-.17-1.08-.24c-.24-.06-.34.31-.1.36l1.09.22a.18.18,0,0,0,.22-.17,24.07,24.07,0,0,0-.57-4l-.29.29c1.43.43,2.87.88,4.32,1.25a.19.19,0,0,0,.21-.28,2.81,2.81,0,0,1-.21-.66c0-.22,0-.43-.06-.65S94,14.9,94,15Z"/><path class="cls-9" d="M89.72,18.8a5.65,5.65,0,0,0-.24-.8c-.08-.26-.18-.52-.28-.78s-.19-.52-.29-.78-.17-.62-.42-.51,0,.49,0,.64.21.51.32.77l.33.76a6.8,6.8,0,0,0,.39.76.08.08,0,0,0,.15-.06Z"/><path class="cls-9" d="M88.65,16.22a1.44,1.44,0,0,0-1.31.6,2.62,2.62,0,0,0-.49,1.7,2.53,2.53,0,0,0,1.54,2.6,1.35,1.35,0,0,0,1.47-.4c.08-.14-.09-.32-.23-.23a1.42,1.42,0,0,1-.67.31,1.39,1.39,0,0,1-.7-.13,1.94,1.94,0,0,1-.93-1.34,3.2,3.2,0,0,1,.06-1.84,1.72,1.72,0,0,1,1.26-1.12.08.08,0,0,0,0-.15Z"/><path class="cls-9" d="M87.73,17.59a10.41,10.41,0,0,1,.93,1.05,5.72,5.72,0,0,1,.37.58c.06.1.12.2.17.3s.08.23.2.27a.09.09,0,0,0,.13-.05.44.44,0,0,0-.07-.33l-.18-.32a6,6,0,0,0-.41-.62,4.58,4.58,0,0,0-1.05-1c-.07-.05-.16.06-.09.13Z"/><path class="cls-9" d="M89.3,19.22a.58.58,0,0,0-.55.09l0,0h0l0,0-.05.05a.51.51,0,0,0-.09.16s0,0,0,.06v.06a.13.13,0,0,0,0,.06s0,0,0,0a.26.26,0,0,0,0,.15.07.07,0,0,0,.08,0s0,0,.06-.07,0,0,0,0v-.06h0s0,0,0,0a0,0,0,0,0,0,0l0,0v0a.06.06,0,0,1,0,0v0a.53.53,0,0,1,.06-.1v0s0,0,0,0,0,0,0,0l0,0,.05,0h0l.06,0s0,0,0,0l0,0h.14l.06,0a.09.09,0,0,0,.1-.06.08.08,0,0,0-.06-.09Z"/><path class="cls-9" d="M88.1,21.77a3.31,3.31,0,0,0-.08.55,2.67,2.67,0,0,0,0,.56,2.71,2.71,0,0,0,.12.55,2.67,2.67,0,0,0,.09.26c0,.06.11.14.18.14s.08-.29,0-.38a3.68,3.68,0,0,1-.16-.54,3.83,3.83,0,0,1-.08-1.12.08.08,0,0,0-.15,0Z"/><path class="cls-9" d="M88.12,22.06a2.32,2.32,0,0,0-.07,1.28,2.68,2.68,0,0,0,.21.6.86.86,0,0,0,.42.51.13.13,0,0,0,.16-.13,1.46,1.46,0,0,0-.26-.53,2.74,2.74,0,0,1-.21-.54,3.12,3.12,0,0,1-.11-1.18c0-.08-.12-.08-.14,0Z"/><path class="cls-9" d="M80.86,21.94c2.06.67,4.19.94,6.14,1.93a10,10,0,0,1,2.29,1.56A10.24,10.24,0,0,1,91,27.68c.13.2.47.08.39-.16-.58-1.77-2.39-3.16-4-4A17.65,17.65,0,0,0,80.9,21.7a.12.12,0,0,0,0,.24Z"/><path class="cls-9" d="M91.24,27.69a1.91,1.91,0,0,0,1.25-.33,2.11,2.11,0,0,0,.5-.44,1.35,1.35,0,0,0,.2-.27s0-.11.08-.16a1,1,0,0,0,0-.17c0-.13-.13-.19-.21-.09l-.09.1-.1.13-.18.23a2.66,2.66,0,0,1-.43.39,3.37,3.37,0,0,1-1.07.49c-.07,0,0,.11,0,.12Z"/><path class="cls-9" d="M93.18,26.32a.94.94,0,0,1-.38-.5,1.06,1.06,0,0,1,0-.31.79.79,0,0,1,0-.3.64.64,0,0,1,.37-.4.83.83,0,0,1,.58,0l.15,0,.15.09.12.12.06.06a.18.18,0,0,0,.15.06.12.12,0,0,0,.12-.07.24.24,0,0,0,0-.26.84.84,0,0,0-.15-.18,1.5,1.5,0,0,0-.39-.22,1.31,1.31,0,0,0-.83,0,1.07,1.07,0,0,0-.63.6,1.13,1.13,0,0,0,0,.81,1.47,1.47,0,0,0,.24.4.76.76,0,0,0,.39.24c.1,0,.15-.1.07-.15Z"/><path class="cls-9" d="M94.4,25.1c.15-.25.29-.51.43-.76L95,24c.07-.12.2-.28.15-.43a.14.14,0,0,0-.16-.09c-.15.06-.2.23-.26.36s-.11.28-.18.42l-.35.81c0,.09.11.15.16.07Z"/><path class="cls-9" d="M94.87,23.45a1.9,1.9,0,0,0,.53-.09,1.4,1.4,0,0,0,.44-.22,1,1,0,0,0,.43-.83,1.35,1.35,0,0,0-.38-.75,2.86,2.86,0,0,1-.22-.3c-.08-.12-.12-.29-.24-.37a.19.19,0,0,0-.26.06c-.12.26.14.55.29.73a1.69,1.69,0,0,1,.39.54.59.59,0,0,1-.22.64,1.56,1.56,0,0,1-.36.23,2.92,2.92,0,0,0-.44.19.09.09,0,0,0,0,.17Z"/><path class="cls-9" d="M95.44,21.35a8.1,8.1,0,0,1,.41-1.75,14.25,14.25,0,0,0,.59-1.66,3.89,3.89,0,0,0,.1-1.44c-.06-.41-.23-1-.65-1.14a.13.13,0,0,0-.16.16,6,6,0,0,0,.28.57,2,2,0,0,1,.15.72,3.72,3.72,0,0,1-.23,1.44c-.31,1-1,2.07-.67,3.1,0,.08.16.1.18,0Z"/><path class="cls-9" d="M95.92,18.27a.79.79,0,0,1-.71.4,1.46,1.46,0,0,1-.89-.4c-.55-.49-.95-1.14-1.69-1.36-.29-.09-.42.37-.13.46.82.24,1.21,1.15,2,1.52a1.33,1.33,0,0,0,1.05.06.78.78,0,0,0,.58-.63c0-.1-.12-.12-.17-.05Z"/><path class="cls-9" d="M93.62,18a1.8,1.8,0,0,0-.72,2.51.21.21,0,0,0,.36-.21,1.63,1.63,0,0,1-.13-1.13,1.87,1.87,0,0,1,.63-1c.1-.09,0-.22-.14-.17Z"/><path class="cls-9" d="M94.77,18.88A3.67,3.67,0,0,1,94.29,20a2.12,2.12,0,0,1-.89.73.2.2,0,0,0-.07.27.21.21,0,0,0,.28.07,2.47,2.47,0,0,0,1-.87A1.82,1.82,0,0,0,95,18.88c0-.12-.19-.1-.22,0Z"/><path class="cls-9" d="M92.63,21a1.37,1.37,0,0,1,.71-.18,1.51,1.51,0,0,1,.71.14.35.35,0,0,0,.3,0,.21.21,0,0,0,.14-.17c0-.2-.17-.28-.33-.34a1.74,1.74,0,0,0-.85-.1,1.25,1.25,0,0,0-.43.12,2.3,2.3,0,0,0-.4.23c-.15.11,0,.36.15.26Z"/><path class="cls-9" d="M94.41,18.73a.57.57,0,0,0-.13,0l-.13,0a.86.86,0,0,0-.22.15.79.79,0,0,0-.24.49.69.69,0,0,0,.22.53.59.59,0,0,0,.25.17h.11c-.07,0-.07,0,0,0h.06a.25.25,0,0,0,.17-.06.14.14,0,0,0,0-.18l-.09-.06-.05,0,0,0a.16.16,0,0,0-.07-.07l-.08-.05h0l0,0-.07-.08h0l0,0,0,0s0-.05,0,0,0,0,0-.05a.07.07,0,0,1,0-.05s0-.05,0,0v-.06a.29.29,0,0,1,0-.09.23.23,0,0,1,.08-.14.53.53,0,0,1,.14-.12l.07,0,.06,0s0,0,0,0,.07-.14,0-.15Z"/><path class="cls-9" d="M93.84,17.31l.08.1,0-.05c0,.16.19.28.32.37a3.68,3.68,0,0,0,.44.23,2.42,2.42,0,0,0,.46.13c.14,0,.36.06.48,0a.09.09,0,0,0,0-.12.36.36,0,0,0-.2-.06l-.21,0a1.71,1.71,0,0,1-.44-.13,1.65,1.65,0,0,1-.37-.2c-.13-.08-.25-.22-.4-.23l0,0a.46.46,0,0,1-.07-.07c-.06,0-.16,0-.11.08Z"/><path class="cls-9" d="M92.32,18.31a1.51,1.51,0,0,0-.41.74,1.55,1.55,0,0,0,0,.43.6.6,0,0,0,.14.41.07.07,0,0,0,.13-.05,2.57,2.57,0,0,0-.08-.38,1.21,1.21,0,0,1,0-.38,1.36,1.36,0,0,1,.32-.7s0-.12-.08-.07Z"/><path class="cls-9" d="M91.77,17.94a1.56,1.56,0,0,0-.51.8,1.41,1.41,0,0,0,.08,1,.12.12,0,0,0,.21-.09,1.56,1.56,0,0,1-.11-.41,1.24,1.24,0,0,1,0-.43,1.44,1.44,0,0,1,.38-.77,0,0,0,1,0-.06-.07Z"/><path class="cls-9" d="M80.2,22.26a6.31,6.31,0,0,0-.64,1.13,6.44,6.44,0,0,0-.24.61c0,.1-.07.19-.09.29a.69.69,0,0,0,0,.2s0,.05,0,.08,0,.09,0,0a.12.12,0,0,0,.21.05h0a.13.13,0,0,0,.06-.07.44.44,0,0,0,.08-.15c0-.1,0-.2.08-.3a5.89,5.89,0,0,1,.21-.59,7,7,0,0,1,.61-1.1c.14-.2-.19-.38-.32-.19Z"/><path class="cls-9" d="M79.64,23.36c-.16.42-.33.85-.52,1.26a.14.14,0,0,0,.09.21,26.74,26.74,0,0,0,2.82.32,29.41,29.41,0,0,1,3.11.59,31.14,31.14,0,0,1,5.79,2.13c.28.13.51-.26.24-.4a27,27,0,0,0-5.9-2.19,28.18,28.18,0,0,0-3-.57,10,10,0,0,0-3-.16l.18.18c.1-.45.23-.9.37-1.34,0-.08-.09-.1-.12,0Z"/><path class="cls-9" d="M79.39,24.26A18.27,18.27,0,0,0,76,25.8a33.55,33.55,0,0,0-3.38,2,19.45,19.45,0,0,0-5.25,5A16.35,16.35,0,0,0,65.2,47.07a16.65,16.65,0,0,0,4.33,6.85c.23.21.57-.13.34-.34A16,16,0,0,1,65,40.63a16.79,16.79,0,0,1,7.52-12.21,32.42,32.42,0,0,1,3.36-2,40.88,40.88,0,0,0,3.66-1.9.14.14,0,0,0-.1-.25Z"/><path class="cls-9" d="M71.25,38.36a12.75,12.75,0,0,0,1.12,3.87,15.54,15.54,0,0,0,1,1.84c.17.28.34.56.5.84s.19.27.26.41a3.43,3.43,0,0,0,.19.44.12.12,0,0,0,.23-.06,2,2,0,0,0-.19-.86,4.83,4.83,0,0,0-.45-.8,20,20,0,0,1-1-1.75,21.63,21.63,0,0,1-1.43-4,.13.13,0,0,0-.25,0Z"/><path class="cls-9" d="M73.05,44.12a13.54,13.54,0,0,0,.62,1.93c.21.62.39,1.25.54,1.88a22.88,22.88,0,0,1,.57,4c0,.31.5.31.48,0a22.41,22.41,0,0,0-.58-4.08c-.15-.66-.34-1.31-.55-2A6.85,6.85,0,0,0,73.28,44a.12.12,0,0,0-.23.09Z"/><path class="cls-9" d="M74.57,50.87a2.66,2.66,0,0,0,.68,1,4.57,4.57,0,0,0,.49.38l.24.15.1.05a.29.29,0,0,0,.13,0h.12a.12.12,0,0,0,.08-.14l0-.06,0,0s0,0,0-.06a.31.31,0,0,0-.11-.09L76,51.89a4.25,4.25,0,0,1-.43-.31,10.19,10.19,0,0,1-.81-.8c-.06-.07-.2,0-.16.09Z"/><path class="cls-9" d="M95.66,43.77a8.84,8.84,0,0,0,0,1.63,4.41,4.41,0,0,1-.32,1.72,3.36,3.36,0,0,1-1,1.28,7.49,7.49,0,0,0-1.34.94c-.07.08,0,.26.1.24a3.38,3.38,0,0,0,1.55-.82,3.79,3.79,0,0,0,1.15-1.39,5.43,5.43,0,0,0,.1-3.62.08.08,0,0,0-.15,0Z"/><path class="cls-9" d="M94.14,48.58A4.6,4.6,0,0,0,94,49.91l0,1.39a3.65,3.65,0,0,1-.45,2.28c-.16.22.2.49.37.29a3.55,3.55,0,0,0,.56-2.32l0-1.49a5.25,5.25,0,0,0-.09-1.48.13.13,0,0,0-.24,0Z"/><path class="cls-9" d="M92.42,46.29a43.18,43.18,0,0,1,7.33-3.41c.3-.09.17-.56-.13-.46a22.16,22.16,0,0,0-7.3,3.73c-.08.07,0,.18.1.14Z"/><path class="cls-9" d="M99.31,42.62a6.73,6.73,0,0,0,2.6-.18,15.22,15.22,0,0,0,5.1-2c.4-.26.79-.53,1.16-.81a4.21,4.21,0,0,0,1-.87c.12-.18-.11-.36-.27-.27a6.12,6.12,0,0,0-1,.77c-.36.27-.73.52-1.11.76a13.84,13.84,0,0,1-2.4,1.21,14.34,14.34,0,0,1-2.42.72c-.86.19-1.78.17-2.63.39a.14.14,0,0,0,0,.28Z"/><path class="cls-9" d="M107.42,40.43a6.4,6.4,0,0,0,1,.11h1c.68,0,1.36,0,2,0a.24.24,0,0,0,0-.48c-.68,0-1.36,0-2,0l-1,0a6.3,6.3,0,0,0-1,.14.09.09,0,0,0,0,.18Z"/><path class="cls-9" d="M111.16,40c.12.39.64.52,1,.51a2.54,2.54,0,0,0,1.31-.52l1.39-.94a16.11,16.11,0,0,0,1.45-1c.2-.18-.06-.48-.28-.36-.44.23-.85.56-1.26.83l-1.21.83a4.28,4.28,0,0,1-1.14.64,1.35,1.35,0,0,1-.6,0,2.75,2.75,0,0,1-.5-.2.13.13,0,0,0-.16.16Z"/><path class="cls-9" d="M114.56,39.35c1.13,1.06,2.48.11,3.51-.6a14.69,14.69,0,0,1,2.06-1.22c.38-.19.77-.37,1.16-.53a3.58,3.58,0,0,0,1-.44c.13-.1,0-.3-.12-.3a2.4,2.4,0,0,0-.94.26c-.31.12-.62.25-.92.39a14.78,14.78,0,0,0-1.87,1c-.59.37-1.12.84-1.73,1.17a1.89,1.89,0,0,1-2,.07c-.12-.09-.29.06-.17.17Z"/><path class="cls-9" d="M122.46,36.73a5.58,5.58,0,0,0,0-1.58,13.2,13.2,0,0,1,0-1.54A13.94,13.94,0,0,1,122.7,32c.11-.55.28-1.07.41-1.62a.23.23,0,0,0-.44-.12,11.39,11.39,0,0,0-.66,3.26,15.33,15.33,0,0,0,0,1.66,3.27,3.27,0,0,0,.25,1.55.13.13,0,0,0,.23,0Z"/><path class="cls-9" d="M122.17,30.34a35.93,35.93,0,0,0-10.75-.81,43.1,43.1,0,0,0-10.62,2c-.29.1-.17.56.13.47a42.54,42.54,0,0,1,10.49-2,53.74,53.74,0,0,1,10.67.64c.2,0,.29-.26.08-.31Z"/><path class="cls-9" d="M103.12,30.63a15.33,15.33,0,0,0-3.3-1.27c-1.1-.36-2.22-.68-3.35-1a31.58,31.58,0,0,0-3.35-.69,4.61,4.61,0,0,0-3,.3c-.14.09-.11.38.09.35a14.74,14.74,0,0,1,1.48-.25,8.79,8.79,0,0,1,1.7.13c1.09.18,2.18.44,3.25.71s2.09.57,3.13.9A33.13,33.13,0,0,0,103,30.94a.17.17,0,0,0,.13-.31Z"/><path class="cls-9" d="M76.26,52.09A2.17,2.17,0,0,0,76,53.41a2.91,2.91,0,0,0,.49,1.29.24.24,0,0,0,.32.09.25.25,0,0,0,.09-.33,3.07,3.07,0,0,1-.43-2.27c0-.13-.15-.23-.22-.1Z"/><path class="cls-9" d="M76.73,54.76a7.78,7.78,0,0,0,2,.53c.75.14,1.51.26,2.26.36,1.45.21,2.91.36,4.37.47a61.83,61.83,0,0,0,9.13-.06c.31,0,.31-.5,0-.47a61.35,61.35,0,0,1-8.89.06c-1.5-.1-3-.25-4.48-.46-.76-.1-1.51-.23-2.26-.36a9.71,9.71,0,0,0-2.07-.27c-.1,0-.16.15-.06.2Z"/><path class="cls-9" d="M76.29,52.59a18.72,18.72,0,0,0,4.22.79c1.48.19,3,.32,4.47.39a54.75,54.75,0,0,0,9-.29c.3,0,.31-.5,0-.47a60.66,60.66,0,0,1-8.84.28c-1.45-.06-2.9-.19-4.35-.36s-3-.57-4.43-.61c-.16,0-.17.21,0,.27Z"/><path class="cls-9" d="M94,54.07a5.43,5.43,0,0,1,4.4.41,18.45,18.45,0,0,1,3.48,2.82,11.53,11.53,0,0,0,3.24,2.26c1,.4,2.65.83,3.61.16.13-.1.1-.34-.09-.34a9.66,9.66,0,0,1-2.15.09,6.35,6.35,0,0,1-2.09-.81,22.41,22.41,0,0,1-3.52-2.94c-1.71-1.53-4.71-3.5-7-1.93-.14.09-.06.34.12.28Z"/><path class="cls-9" d="M108.89,59.63c-1.34-.23-2.51.7-3.84.64-1.53-.06-2.55-1.56-3.6-2.48-2-1.76-5-3.07-7.5-1.64-.11.06,0,.25.09.2a6.51,6.51,0,0,1,4.5.14,11.4,11.4,0,0,1,3.57,2.59A4.7,4.7,0,0,0,105,60.74c1.34.09,2.55-.75,3.89-.8.17,0,.22-.28,0-.31Z"/><path class="cls-9" d="M94.77,56.06a18,18,0,0,0,4.06,7.44,24.22,24.22,0,0,0,3.07,3.09,17,17,0,0,0,3.54,2.47.22.22,0,0,0,.22-.38c-1.18-.83-2.39-1.55-3.5-2.49a24.45,24.45,0,0,1-5.33-6.4c-.72-1.23-1.27-2.54-1.94-3.78,0-.07-.13,0-.12.05Z"/><path class="cls-9" d="M94.42,56.41a23.11,23.11,0,0,0,2.44,7.8,32.26,32.26,0,0,0,2,3.68c.39.59.79,1.17,1.21,1.73a6.5,6.5,0,0,0,1.23,1.43c.14.11.28-.09.22-.22a12.24,12.24,0,0,0-1.17-1.61q-.6-.81-1.14-1.65a33.22,33.22,0,0,1-2-3.5,56.93,56.93,0,0,1-2.71-7.68c0-.1-.19-.09-.18,0Z"/><path class="cls-9" d="M101.5,70.54a17.13,17.13,0,0,1-9.69,1.74c-.31,0-.31.44,0,.47a16.28,16.28,0,0,0,5.07-.2,14.54,14.54,0,0,0,4.71-1.86c.1,0,0-.2-.09-.15Z"/><path class="cls-9" d="M92.22,72.08c-.09-1-.17-2-.2-2.94,0-.49,0-1,0-1.48a9.09,9.09,0,0,0,0-1.38c0-.06-.12-.06-.13,0a12.31,12.31,0,0,0,0,2.91c0,1,.13,2,.27,2.91,0,.07.14.06.14,0Z"/><path class="cls-9" d="M91.68,67.13c-.77,1-1.5,2-2.23,3l-1.09,1.55a9.83,9.83,0,0,0-1.07,1.64.1.1,0,0,0,.16.12A10.18,10.18,0,0,0,88.57,72l1.09-1.56c.73-1.06,1.46-2.12,2.14-3.21,0-.07-.07-.16-.12-.09Z"/><path class="cls-9" d="M88.11,72.47a22.68,22.68,0,0,1,1.56-2.42q.43-.58.9-1.14l.49-.56a3,3,0,0,0,.44-.52.09.09,0,0,0-.12-.12,2.18,2.18,0,0,0-.48.48l-.48.56c-.3.37-.6.74-.88,1.13A24.94,24.94,0,0,0,88,72.38c0,.1.09.18.14.09Z"/><path class="cls-9" d="M75.09,54.33c-1.87,1.78-1.75,5-1.57,7.36a40,40,0,0,1,.24,4.23,10.68,10.68,0,0,1-.29,2.26,15.8,15.8,0,0,1-.79,2,.13.13,0,0,0,.22.13,6,6,0,0,0,1.25-3.51,22.45,22.45,0,0,0-.1-4.26,23.2,23.2,0,0,1-.13-4.08,9.81,9.81,0,0,1,1.32-4.07c.06-.09-.07-.19-.15-.11Z"/><path class="cls-9" d="M72.87,70.35a12.36,12.36,0,0,0,3.57,1.55,33.21,33.21,0,0,0,4.07,1,36.1,36.1,0,0,0,3.88.5c.68,0,1.36.07,2,.08a6.12,6.12,0,0,0,2-.15.14.14,0,0,0,0-.26A7.15,7.15,0,0,0,86.66,73c-.68,0-1.36,0-2-.07a33.3,33.3,0,0,1-4.1-.52,33.88,33.88,0,0,1-3.73-.93c-1.29-.4-2.54-1-3.86-1.31a.08.08,0,0,0-.06.15Z"/><path class="cls-9" d="M73.38,71.4a19.48,19.48,0,0,0-.22,10.44c.06.27.48.16.41-.12a22,22,0,0,1,0-10.27.09.09,0,0,0-.18,0Z"/><path class="cls-9" d="M72.61,79.71c-.2,0-.39,0-.59.08a2.7,2.7,0,0,0-.53.22,1.33,1.33,0,0,0-.68.84A2.62,2.62,0,0,0,70.87,82c0,.2.09.4.11.6s0,.39,0,.59.19.24.28.12a.72.72,0,0,0,.17-.51,3.55,3.55,0,0,0-.06-.56,5.05,5.05,0,0,1-.18-1.1,1,1,0,0,1,.5-.83,3.68,3.68,0,0,1,.44-.23c.17-.08.35-.18.52-.24a.08.08,0,0,0,0-.16Z"/><path class="cls-9" d="M71.24,81.84v0h0a.07.07,0,0,0,0-.06v0s0,0,0,0h0a.05.05,0,0,0-.08,0,.06.06,0,0,0,0,.08v0l0,0a.08.08,0,0,0,0,0h.06a0,0,0,0,0,0,0Z"/><path class="cls-9" d="M70.79,83c-.89.86-1.83,1.67-2.79,2.44-.49.39-1,.77-1.5,1.13l-.75.52c-.2.14-.53.26-.58.52a.15.15,0,0,0,.1.19c.28.06.49-.17.71-.32l.75-.52c.51-.37,1-.75,1.49-1.15A32.54,32.54,0,0,0,71,83.24a.17.17,0,0,0-.24-.24Z"/><path class="cls-9" d="M64.57,88.22c-3.56,4.6-6.7,9.55-10,14.35-.18.25.24.49.41.24,3.27-4.79,6.73-9.5,9.71-14.47,0-.09-.09-.2-.15-.12Z"/><path class="cls-9" d="M54.6,102.77a6.53,6.53,0,0,0,3.22,5.07,11.64,11.64,0,0,0,3.35,1.41,19,19,0,0,0,2,.43A8.53,8.53,0,0,0,65,110a.21.21,0,0,0,0-.4,10.62,10.62,0,0,0-1.7-.31c-.57-.1-1.14-.22-1.7-.36a12.29,12.29,0,0,1-3.26-1.25,6.76,6.76,0,0,1-3.49-4.86c0-.18-.31-.19-.3,0Z"/><path class="cls-9" d="M65.38,109.46a33.33,33.33,0,0,0,4-4q1.95-2.12,3.82-4.28c2.5-2.88,4.89-5.85,7.2-8.87.18-.24-.22-.47-.4-.24-2.33,3.06-4.77,6-7.29,8.94q-1.83,2.13-3.74,4.2a46.39,46.39,0,0,0-3.68,4.13c0,.06,0,.14.1.1Z"/><path class="cls-9" d="M81.19,90.84C82,89.4,82.82,88,83.57,86.52s1.55-3,2.32-4.51l2.26-4.4,1.13-2.2a11.78,11.78,0,0,0,1-2.17c0-.12-.13-.24-.22-.13a10.53,10.53,0,0,0-1.13,2l-1.13,2.2-2.31,4.51q-1.14,2.19-2.26,4.4c-.77,1.51-1.45,3-2.2,4.58,0,.11.11.21.17.09Z"/><path class="cls-9" d="M87.92,78.24a5.66,5.66,0,0,0,.71,1.88,20,20,0,0,0,1.05,1.79,18.64,18.64,0,0,0,1.19,1.58c.22.27.45.53.68.79s.4.52.71.51a.13.13,0,0,0,.13-.13c0-.28-.25-.46-.42-.64s-.45-.49-.66-.74a18.36,18.36,0,0,1-1.24-1.66,18,18,0,0,1-1-1.69,15.85,15.85,0,0,0-1-1.77.1.1,0,0,0-.18.08Z"/><path class="cls-9" d="M92.92,84.53l.13,0a.85.85,0,0,0,.16,0c.1,0,.2,0,.31,0a2.77,2.77,0,0,0,.62-.19,3.92,3.92,0,0,0,.58-.29,1,1,0,0,0,.48-.45c0-.11-.08-.19-.17-.17a1.48,1.48,0,0,0-.53.27A3.84,3.84,0,0,1,94,84a3.49,3.49,0,0,1-.53.22l-.29.1-.14,0a.6.6,0,0,1-.11.06.08.08,0,0,0,0,.15Z"/><path class="cls-9" d="M92.15,85.42c.4,1.19,1,2.31,1.56,3.45.58,1.3,1.11,2.61,1.59,3.95s.85,2.51,1.21,3.78c.17.62.34,1.25.49,1.87a6,6,0,0,0,.53,1.89.15.15,0,0,0,.27,0,4,4,0,0,0-.26-1.66c-.15-.66-.32-1.32-.51-2-.37-1.35-.79-2.69-1.27-4s-.92-2.44-1.45-3.64a17.82,17.82,0,0,0-1.93-3.73c-.08-.1-.27,0-.23.1Z"/><path class="cls-9" d="M97.94,100.39a11,11,0,0,0,5.93-.37,15.26,15.26,0,0,0,2.75-1.12,14,14,0,0,0,1.28-.77,3.28,3.28,0,0,0,1.08-.91.17.17,0,0,0-.19-.25,4.64,4.64,0,0,0-1.06.7c-.39.26-.79.51-1.2.73a14.17,14.17,0,0,1-2.79,1.16,14,14,0,0,1-2.87.55c-1,.08-1.93,0-2.9.09a.1.1,0,0,0,0,.19Z"/><path class="cls-9" d="M100.65,71.16c.54.77,1.19,1.47,1.8,2.18s1.24,1.44,1.86,2.16c.2.23.54-.11.34-.34L102.81,73A24.67,24.67,0,0,0,100.93,71c-.14-.13-.39,0-.28.21Z"/><path class="cls-9" d="M104.33,75.28c.3,1.49.87,2.93,1.21,4.42a35.66,35.66,0,0,1,.76,4.7,36.75,36.75,0,0,1-.35,9.31c-.06.3.41.43.46.13a36.45,36.45,0,0,0,.35-9.56,35.64,35.64,0,0,0-.73-4.59,17,17,0,0,0-1.45-4.52c-.07-.14-.28,0-.25.11Z"/><path class="cls-9" d="M106.61,85.11c-.23.25,0,1,0,1.29.06.5.12,1,.19,1.49.15,1.07.32,2.13.51,3.19s.39,2.12.62,3.18a12.14,12.14,0,0,0,.76,3.06.18.18,0,0,0,.34-.09,7.38,7.38,0,0,0-.28-1.46c-.13-.54-.25-1.09-.36-1.64-.22-1-.42-2-.6-3s-.35-2-.5-3.08c-.09-.55-.17-1.1-.25-1.65a3.19,3.19,0,0,0-.35-1.4,0,0,0,0,0-.08,0l0,.15s0,0,0,0Z"/><path class="cls-9" d="M105.64,99.12a11.63,11.63,0,0,0,4.12,2.74,12.88,12.88,0,0,0,2.52.77c.71.13,2.41.24,2,1.39s-1.91,1-2.84.65a25.71,25.71,0,0,0-2.86-.78,17.85,17.85,0,0,0-5.65-.14c-1.1.14-2.29.53-3.38.15a1.72,1.72,0,0,1-1.17-1.07,1.14,1.14,0,0,1,.6-1.37c.29-.11.17-.57-.12-.46a1.56,1.56,0,0,0-1,1.6,2.05,2.05,0,0,0,1.39,1.7,5.93,5.93,0,0,0,3.21,0,17.47,17.47,0,0,1,4-.19,16.74,16.74,0,0,1,3.85.7c1,.31,2.26.92,3.34.46a1.71,1.71,0,0,0,1.11-1.72c-.15-.89-1.09-1.15-1.85-1.29a15.37,15.37,0,0,1-7.12-3.37c-.16-.12-.37.07-.22.23Z"/><path class="cls-9" d="M55.48,104.79a8.38,8.38,0,0,1-1.93,3.53c-.19.21.12.53.32.32a6.44,6.44,0,0,0,1.84-3.82c0-.13-.2-.15-.23,0Z"/><path class="cls-9" d="M53.88,107.72c-.44-.08-1,.4-1.26.69a3,3,0,0,0-.84,1.4,2.25,2.25,0,0,0,1,2.54,4.52,4.52,0,0,0,1.74.36,10.78,10.78,0,0,1,2,.35,11.14,11.14,0,0,1,3.74,1.87c.25.19.49-.23.24-.42a11.76,11.76,0,0,0-6.22-2.3,2.57,2.57,0,0,1-1.68-.55,1.81,1.81,0,0,1-.47-1.39,2.42,2.42,0,0,1,.67-1.43,4.53,4.53,0,0,1,.62-.54,1.24,1.24,0,0,0,.46-.42.11.11,0,0,0-.06-.16Z"/><path class="cls-9" d="M61.25,109a1.19,1.19,0,0,0,.52,1.38,9.08,9.08,0,0,0,1.9.94c.66.28,1.32.54,2,.77a2.85,2.85,0,0,1,1,.46.77.77,0,0,1,.25.37,2.05,2.05,0,0,1,.13.37c0,.15.19.15.23,0s.15-.19.15-.35a1.15,1.15,0,0,0-.11-.36,1.46,1.46,0,0,0-.54-.59,9.76,9.76,0,0,0-1.88-.73c-.68-.26-1.34-.55-2-.86s-1.32-.59-1.35-1.37c0-.12-.21-.21-.27-.07Z"/><path class="cls-9" d="M67,113.59c-.18.08-.35.19-.54.28s-.33.15-.51.22a4.26,4.26,0,0,1-1.12.27.23.23,0,0,0-.21.22.21.21,0,0,0,.21.21,4.16,4.16,0,0,0,1.26-.31,3.65,3.65,0,0,0,.55-.3,2.49,2.49,0,0,0,.5-.41.12.12,0,0,0-.14-.18Z"/><path class="cls-9" d="M64.48,114.71a5.77,5.77,0,0,1-.93.24,6.33,6.33,0,0,1-1,.16,5.13,5.13,0,0,1-1,0l-.46,0a.66.66,0,0,0-.46,0,.16.16,0,0,0-.06.23c.18.26.62.24.91.25a5.47,5.47,0,0,0,1.07,0,5.79,5.79,0,0,0,1-.23,5.32,5.32,0,0,0,.91-.49c.07,0,0-.15,0-.12Z"/><path class="cls-9" d="M86.73,74.65c-.75,1.22-1.33,2.51-2.17,3.67a19.13,19.13,0,0,1-6.68,5.79,27.4,27.4,0,0,1-4.2,1.62c-.16,0-.09.28.07.26a17.17,17.17,0,0,0,8-4,19.58,19.58,0,0,0,3.07-3.3,11.76,11.76,0,0,0,2.1-4,.09.09,0,0,0-.16-.07Z"/><path class="cls-9" d="M76,85.28a11.39,11.39,0,0,0,2.52-.51,13.61,13.61,0,0,0,2.3-1,10.43,10.43,0,0,0,3.79-3.37c0-.09-.07-.17-.13-.1a22.72,22.72,0,0,1-3.85,3.13A15.22,15.22,0,0,1,76,85.14c-.08,0-.06.15,0,.14Z"/><path class="cls-9" d="M71.31,92.36A16.89,16.89,0,0,0,76.63,91a14.31,14.31,0,0,0,4.59-2.76.1.1,0,0,0-.12-.16c-.77.45-1.5,1-2.28,1.42a20.5,20.5,0,0,1-2.44,1.21,27.38,27.38,0,0,1-5.1,1.42c-.12,0-.1.24,0,.23Z"/><path class="cls-9" d="M73.46,92.09a11.68,11.68,0,0,0,3.43-.36,9.24,9.24,0,0,0,3.19-1.33c.11-.08,0-.31-.11-.25-.54.2-1,.47-1.59.68a11.61,11.61,0,0,1-1.54.52,16.87,16.87,0,0,1-3.38.6.07.07,0,1,0,0,.14Z"/><path class="cls-9" d="M68.41,89.62a21.1,21.1,0,0,1,3.93-.81,24.34,24.34,0,0,1,3.91.12c.16,0,.19-.24,0-.28a11.42,11.42,0,0,0-4.08-.12,12.28,12.28,0,0,0-3.82,1s0,.08,0,.07Z"/><path class="cls-9" d="M70.74,87.41c-.64.47-1.28.94-1.91,1.43l-.94.71-.45.34a3.39,3.39,0,0,0-.46.39.08.08,0,0,0,.1.11,2.55,2.55,0,0,0,.47-.34l.43-.33,1-.75q.94-.73,1.86-1.5s0-.09-.05-.06Z"/><path class="cls-9" d="M70.2,95.58a7.59,7.59,0,0,0,2.35-.45,11.3,11.3,0,0,0,1.07-.48,2.83,2.83,0,0,0,.94-.65c0-.06,0-.15-.1-.13a2.16,2.16,0,0,0-.47.26l-.51.29a10.27,10.27,0,0,1-1.07.48,11.36,11.36,0,0,1-2.22.59,0,0,0,0,0,0,.09Z"/><path class="cls-9" d="M103.57,77.61a18.6,18.6,0,0,0-2.11,2.87c-.3.51-.59,1-.84,1.57-.14.28-.27.57-.39.86a2.09,2.09,0,0,0-.24.73.05.05,0,0,0,.09,0,2.93,2.93,0,0,0,.35-.71c.11-.25.22-.51.34-.76.25-.54.53-1.06.83-1.57a23.86,23.86,0,0,1,2-3s0-.11-.06-.06Z"/><path class="cls-9" d="M90.34,74.55A16.42,16.42,0,0,0,95.09,76a15.74,15.74,0,0,0,4.84.22c.1,0,.06-.16,0-.17-1.65-.12-3.27-.11-4.9-.39a46.27,46.27,0,0,1-4.63-1.2.05.05,0,0,0,0,.1Z"/><path class="cls-9" d="M90,74a14.61,14.61,0,0,0,3.79.44c.63,0,1.26,0,1.89,0a9.42,9.42,0,0,0,1.91-.24.09.09,0,0,0,0-.17c-.62,0-1.26.09-1.88.13s-1.26,0-1.89,0-1.27,0-1.89-.09-1.26-.16-1.88-.18A.06.06,0,0,0,90,74Z"/><path class="cls-9" d="M93.51,71.39c-.23-1.46-.37-2.93-.5-4.41q-.09-1-.15-2.1a14.18,14.18,0,0,0-.16-2.06c0-.1-.2-.11-.22,0a10.91,10.91,0,0,0,0,2.06c0,.76.11,1.51.2,2.27.16,1.44.4,2.86.66,4.29,0,.1.17,0,.15,0Z"/><path class="cls-9" d="M98.27,35.58a21,21,0,0,1-5.76,3.08c-1.44.48-4,.86-4.25,2.79,0,.15.2.15.25,0a3.29,3.29,0,0,1,2.17-1.91c1-.34,1.95-.56,2.89-.94a16,16,0,0,0,4.8-2.91c.07-.07,0-.19-.1-.14Z"/><path class="cls-9" d="M77.57,41.44c.52.63,1.06,1.47.37,2.19A16.08,16.08,0,0,0,76.54,45a5.33,5.33,0,0,0-1.19,3.73.09.09,0,0,0,.18,0,6.3,6.3,0,0,1,1.91-4.2c.44-.4,1-.74,1.13-1.38a2.24,2.24,0,0,0-.88-1.8c-.08-.09-.19,0-.12.12Z"/><path class="cls-9" d="M75.31,51.38a15.76,15.76,0,0,1,2.88-2.89,17.42,17.42,0,0,1,3.64-1.88,0,0,0,0,0,0-.09A9,9,0,0,0,78,48.26a9.19,9.19,0,0,0-2.77,3.05s0,.12.08.07Z"/><path class="cls-9" d="M75.21,51.75A55,55,0,0,0,80,49l2.37-1.41L83.46,47a5.43,5.43,0,0,0,1.08-.74.07.07,0,0,0-.07-.11,5.28,5.28,0,0,0-1.16.59l-1.11.65-2.36,1.41a53.73,53.73,0,0,0-4.67,2.93s0,.08,0,.06Z"/><path class="cls-9" d="M76.24,52.34a2,2,0,0,0,1.1-.18c.46-.14.93-.29,1.39-.45.86-.29,1.71-.62,2.56-1s1.6-.68,2.38-1a11.45,11.45,0,0,0,2.44-1.31c.11-.09,0-.27-.13-.23a16.69,16.69,0,0,0-2.35,1.1c-.87.4-1.74.79-2.62,1.15s-1.7.67-2.56,1l-1.21.42c-.33.11-.79.18-1,.47,0,0,0,0,0,.05Z"/><path class="cls-9" d="M76.9,52.53a18,18,0,0,0,5.28-1.05c.82-.27,1.63-.58,2.43-.92a12.33,12.33,0,0,0,2.49-1.31c.09-.07,0-.24-.08-.2-.8.31-1.56.74-2.34,1.09s-1.71.7-2.59,1c-1.71.56-3.47.84-5.21,1.28-.07,0,0,.12,0,.12Z"/><path class="cls-9" d="M83.06,53.27a6,6,0,0,1,3.4-1.86,5.56,5.56,0,0,1,2.15.07,12.73,12.73,0,0,1,1.87.69c.06,0,.1-.07.06-.11a5,5,0,0,0-4.05-1,5.7,5.7,0,0,0-3.59,2c-.08.1.06.25.16.15Z"/><path class="cls-9" d="M92.62,46a4.17,4.17,0,0,0-1.5.79,8.14,8.14,0,0,0-.63.54A2.21,2.21,0,0,0,90,48a.06.06,0,0,0,.09.07,6,6,0,0,0,.56-.57,8.39,8.39,0,0,1,.63-.56,5.82,5.82,0,0,1,.66-.44c.25-.15.5-.26.74-.41a0,0,0,0,0,0-.09Z"/><path class="cls-9" d="M93.06,49.28a2,2,0,0,0-.76.75,2.41,2.41,0,0,0-.21.5,1.26,1.26,0,0,0,0,.27.46.46,0,0,0,0,.26.06.06,0,0,0,.11,0,.54.54,0,0,0,0-.22,1.84,1.84,0,0,1,0-.25,1.66,1.66,0,0,1,.17-.47,1.91,1.91,0,0,1,.66-.75c.06,0,0-.13,0-.09Z"/><path class="cls-9" d="M93.17,49.51a1,1,0,0,0-.25.7,1.21,1.21,0,0,0,.06.38,1.42,1.42,0,0,0,.08.18s.06.11.12.12a0,0,0,0,0,.06,0,.23.23,0,0,0,0-.14l0-.17a1.14,1.14,0,0,1-.05-.33,1.35,1.35,0,0,1,.15-.65s0-.11-.08-.06Z"/><path class="cls-9" d="M92.05,46.44a4.81,4.81,0,0,0-.74,1.15,4.73,4.73,0,0,0-.25.62,2,2,0,0,0-.14.68,0,0,0,0,0,.08,0,4.18,4.18,0,0,0,.19-.6,6.44,6.44,0,0,1,.25-.66,7.49,7.49,0,0,1,.68-1.16s0-.09-.07-.05Z"/><path class="cls-9" d="M72.19,41.26c0-.12-.13-.13-.24-.15a5.59,5.59,0,0,0-.56-.12l-1.16-.19-1.12-.18A3.15,3.15,0,0,0,68,40.5a.14.14,0,0,0,0,.25,1.59,1.59,0,0,0,.58.14l.56.09,1.21.18,1.17.17c.09,0,.73.12.68-.07Z"/><path class="cls-9" d="M72.31,41.66a18.77,18.77,0,0,0-2,1.16l-1,.59a4.56,4.56,0,0,0-.91.65.09.09,0,0,0,.09.15,4.52,4.52,0,0,0,1-.57c.32-.2.64-.4.95-.61a17.28,17.28,0,0,0,1.88-1.28.05.05,0,0,0-.06-.09Z"/><path class="cls-9" d="M72.3,42.14l-.33.34-.32.34a6.87,6.87,0,0,0-.63.69c-.09.12.09.24.19.15a8.17,8.17,0,0,0,.6-.72l.28-.36.29-.37c0-.05,0-.11-.08-.07Z"/><path class="cls-9" d="M72.25,42.18A13.56,13.56,0,0,0,71.34,44c-.15.3-.29.61-.43.91l-.2.46a1.23,1.23,0,0,0-.16.44c0,.1.14.15.2.08a1.2,1.2,0,0,0,.22-.4l.21-.46.43-1a13.51,13.51,0,0,0,.75-1.85.06.06,0,0,0-.11,0Z"/><path class="cls-9" d="M71.75,41.05c-.28-.21-.58-.38-.88-.57l-.9-.54c-.18-.11-.39.15-.23.29a1.11,1.11,0,0,0,.32.21c.08,0,.16-.06.14-.13A.9.9,0,0,0,70,40l-.25.25,1,.48c.32.15.63.31,1,.44.08,0,.11-.09,0-.13Z"/><path class="cls-9" d="M71.82,41.59c-.32.14-.66.25-1,.39l-.48.21a2.23,2.23,0,0,0-.49.24.17.17,0,0,0-.07.22.18.18,0,0,0,.2.1l.18-.06a1,1,0,0,0,.16,0,.1.1,0,0,0,0-.17.76.76,0,0,0-.16,0l-.16,0v.34a2.69,2.69,0,0,0,.48-.24l.47-.27.46-.26.45-.29s0-.12,0-.1Z"/><path class="cls-9" d="M129.7,31.21c-2.77-.16-5.56-.12-8.33-.06a59,59,0,0,0-8.08.51c-.06,0,0,.11,0,.11,2.73-.05,5.46-.37,8.19-.45s5.46,0,8.2,0a.07.07,0,0,0,0-.14Z"/><path class="cls-9" d="M129.7,32.85a81.65,81.65,0,0,0-8.85.2,77.18,77.18,0,0,0-8.58.86c-.07,0-.06.14,0,.13,2.89-.29,5.78-.67,8.68-.85s5.82-.15,8.73-.21a.07.07,0,0,0,0-.13Z"/><path class="cls-9" d="M130.72,34c-3.77-.07-7.55.07-11.32.31s-7.38.54-11,1.12c-.06,0,0,.12,0,.12,3.71-.41,7.42-.84,11.15-1.09s7.46-.32,11.19-.36a.05.05,0,1,0,0-.1Z"/><path class="cls-9" d="M130,30c-3.54-.19-7.11-.16-10.66-.09a88.33,88.33,0,0,0-10.41.56c-.09,0-.07.15,0,.15,3.51,0,7-.37,10.52-.45s7,0,10.53,0c.11,0,.11-.17,0-.18Z"/><path class="cls-9" d="M129,35.65a78,78,0,0,0-13.32.11,56.78,56.78,0,0,0-12.87,2.48.07.07,0,1,0,0,.14c2.17-.5,4.31-1.07,6.5-1.49s4.36-.76,6.56-1A72.46,72.46,0,0,1,129,35.77c.07,0,.07-.11,0-.12Z"/><path class="cls-9" d="M126.07,37a109.66,109.66,0,0,0-11-.09,79.29,79.29,0,0,0-10.78.77c-.13,0-.1.23,0,.23,1.81-.08,3.62-.29,5.43-.42s3.63-.23,5.45-.31c3.63-.17,7.26,0,10.9-.07.07,0,.07-.1,0-.11Z"/><path class="cls-9" d="M129.14,29.09a59.62,59.62,0,0,0-9.26-.17,54.37,54.37,0,0,0-9,.8.09.09,0,0,0,0,.18c1.5-.08,3-.29,4.49-.42s3.08-.23,4.62-.29c3-.12,6.09.06,9.14,0a.07.07,0,1,0,0-.13Z"/><path class="cls-9" d="M142.34,37.44l0,0h0v0l0,0,0,0v0a.06.06,0,0,0,0,0l0,0a0,0,0,0,0-.07,0,.06.06,0,0,0,0,.07l0,0h0l0,0,0,0s0,0,0,0h0l.05,0s0,0,0,0Z"/><path class="cls-9" d="M142.06,37.86h0s0,0,0,0Z"/><path class="cls-9" d="M80.21,20.37a2.31,2.31,0,0,0-.16,1.44,1.58,1.58,0,0,0,.15.48.06.06,0,0,0,.11-.05c0-.15-.09-.28-.12-.43a2.49,2.49,0,0,1,.12-1.4c0-.06-.08-.1-.1,0Z"/><path class="cls-9" d="M80.29,21.89a5.26,5.26,0,0,0-.06-.89c0-.14,0-.29,0-.43l0-.23a.34.34,0,0,0,0-.17s-.07,0-.09,0a.41.41,0,0,0,0,.19l0,.23c0,.15,0,.29,0,.43a4.82,4.82,0,0,0,.13.86s.07,0,.07,0Z"/><path class="cls-9" d="M80.18,20.4l0,.36,0,.33c0,.11,0,.22,0,.33a.66.66,0,0,0,.07.32,0,0,0,0,0,.08,0,.62.62,0,0,0,0-.33c0-.11,0-.22,0-.33l0-.33c0-.12,0-.23-.07-.35s-.1,0-.09,0Z"/><path class="cls-9" d="M80.32,21.14c0-.35,0-.71,0-1.06,0-.09-.13-.11-.15,0a3.82,3.82,0,0,0,.17,1.81.1.1,0,0,0,.2,0V20.67a.11.11,0,0,0-.21,0,4.91,4.91,0,0,0,0,.86.08.08,0,0,0,.15,0,6.13,6.13,0,0,0,0-.86h-.21v1.16l.21,0a3.65,3.65,0,0,1-.22-1.73h-.15c0,.35,0,.71,0,1.06a.07.07,0,1,0,.13,0Z"/><path class="cls-9" d="M88.26,21.67h-.18a0,0,0,1,0,0,0h.18s0,0,0,0Z"/><path class="cls-9" d="M85.64,21.89l.17.56c0,.08.15,0,.12,0l-.19-.56a.05.05,0,1,0-.1,0Z"/><path class="cls-9" d="M70.58,54.1l-.1-.2,0-.09a.16.16,0,0,0-.05-.09s0,0,0,0a.08.08,0,0,0,0,0l0,.05,0,.09.09.2s.07,0,0,0Z"/><path class="cls-9" d="M69.64,53.67a9.38,9.38,0,0,0,2.93-.4A6.75,6.75,0,0,0,75.15,52c.1-.09,0-.23-.14-.18-.43.21-.83.46-1.25.67a10.58,10.58,0,0,1-1.32.51,9.86,9.86,0,0,1-2.8.44.13.13,0,0,0,0,.25Z"/><path class="cls-9" d="M69.12,53.4l1.14-.91.55-.45c.19-.16.39-.31.56-.48s0-.07,0-.05a5.89,5.89,0,0,0-.55.44l-.57.47c-.38.31-.75.63-1.12,1,0,0,0,0,0,0Z"/><path class="cls-9" d="M69.85,53.4l1.05-.74.51-.37a2.34,2.34,0,0,0,.49-.39s0-.08,0-.07a2.33,2.33,0,0,0-.52.34l-.51.38-1,.76s0,.13,0,.09Z"/><path class="cls-9" d="M70.79,53l1-.67.48-.34.24-.17a.58.58,0,0,0,.19-.16.05.05,0,0,0,0-.06.68.68,0,0,0-.23.14l-.24.16-.47.33-.94.66c-.06,0,0,.15.06.11Z"/><path class="cls-9" d="M124.14,34.5a.08.08,0,1,0,0-.15.08.08,0,1,0,0,.15Z"/><path class="cls-9" d="M122.46,35a1.83,1.83,0,0,0,.93,0,2.13,2.13,0,0,0,.43-.13,1,1,0,0,0,.39-.26.06.06,0,0,0-.07-.09c-.14,0-.27.12-.41.17a1.79,1.79,0,0,1-.39.13,2,2,0,0,1-.42.07c-.15,0-.3,0-.45,0a0,0,0,0,0,0,.09Z"/><path class="cls-9" d="M124.24,34.61a1,1,0,0,1,.06-.38.89.89,0,0,1,.08-.17.57.57,0,0,1,.11-.16s0-.1-.07-.07a1.14,1.14,0,0,0-.15.16l-.09.2a.76.76,0,0,0,0,.21v.11l0,.11a0,0,0,0,0,.06,0Z"/><path class="cls-9" d="M128.26,34.65s0,0,0,0,0,0,0,0Z"/><path class="cls-9" d="M123,30.43a1.05,1.05,0,0,0,.69.24c.3,0,.61.08.92.1.59.06,1.18.09,1.78.1s1.19,0,1.78-.05l.89-.07c.25,0,.56,0,.72-.23a.13.13,0,0,0,0-.19.93.93,0,0,0-.7-.06l-.89.07c-.59,0-1.19.05-1.78.05s-1.19,0-1.78-.1c-.3,0-.6-.06-.89-.09a1.08,1.08,0,0,0-.69,0,.13.13,0,0,0,0,.19Z"/><path class="cls-9" d="M129.69,30.38a1,1,0,0,0,.14.56c.09.16.22.29.22.48s0,.36-.05.54a1.22,1.22,0,0,0,0,.27.41.41,0,0,0,.18.26.16.16,0,0,0,.25-.14,3.85,3.85,0,0,1,0-.48,1.51,1.51,0,0,0,0-.56,1.34,1.34,0,0,0-.28-.47,4.26,4.26,0,0,1-.32-.5.07.07,0,0,0-.12,0Z"/><path class="cls-9" d="M130.3,32.42c-.13.19,0,.4,0,.6s-.06.09-.13.11-.19,0-.28.09a1.64,1.64,0,0,0-.46.41.65.65,0,0,1-.2.17c-.08.05-.21.05-.28.13a.17.17,0,0,0,0,.19c.18.26.54,0,.7-.15s.26-.37.46-.45.19-.06.27-.1a.43.43,0,0,0,.24-.27.56.56,0,0,0-.05-.36,2.09,2.09,0,0,1-.13-.35.07.07,0,0,0-.13,0Z"/><path class="cls-9" d="M129,34.21a.61.61,0,0,0-.29.06l-.31.11a1.28,1.28,0,0,1-.67,0,1.49,1.49,0,0,1-.94-.76c-.14-.27-.56,0-.42.25a1.8,1.8,0,0,0,1.27.92,1.89,1.89,0,0,0,.82,0,1.41,1.41,0,0,0,.39-.19.46.46,0,0,0,.21-.3s0-.08-.06-.08Z"/><path class="cls-9" d="M125.53,33.61c-.21-.09-.41-.19-.62-.27a3.79,3.79,0,0,0-.66-.18,3.1,3.1,0,0,0-.68,0,1.07,1.07,0,0,0-.68.18c-.2.2.14.52.31.31,0,0,0,0,.06-.08a.37.37,0,0,0,0-.08l-.28.21a.79.79,0,0,0,.34,0l.28,0a4,4,0,0,1,.6,0l.61.08.63.09c.1,0,.18-.13.08-.17Z"/><path class="cls-9" d="M129.26,31.35h0s0,0,0,0v-.07s0,0,0,0,0,0,0,0a.17.17,0,0,0,0,.1l0,.08v0s0,.08,0,.12l0-.05a1.17,1.17,0,0,0,0,.11l0-.05a.27.27,0,0,1,0,.12v0a.15.15,0,0,1,0,.07.25.25,0,0,0,0,.17.26.26,0,0,0,.14.11.23.23,0,0,0,.27-.16.44.44,0,0,0,0-.2,1.42,1.42,0,0,0,0-.2s0-.07-.06-.11a.29.29,0,0,0-.11-.11l-.06,0a.45.45,0,0,0-.11,0,.11.11,0,0,0-.08,0s-.07.05,0,0l.07,0h0s0,0,0,0a.15.15,0,0,0-.12.05.11.11,0,0,0,0,.12Z"/><path class="cls-9" d="M129.47,32.35a.14.14,0,0,0,0,.07s0,0,0,.06V32.4a.11.11,0,0,0,0,.08.08.08,0,0,0,0,0v0l0,.05,0,.07,0,0h0a.11.11,0,0,0,.08,0,.17.17,0,0,0,.21-.21s0,0,0-.05l0,0h0l0,0-.07,0-.05,0h0l-.06,0h0a.09.09,0,0,0-.1,0l-.06,0Z"/><path class="cls-9" d="M127.47,31.85l-6.57.25c-2.18.09-4.39.09-6.56.3-.07,0-.08.11,0,.11,2.18,0,4.38-.14,6.56-.22l6.57-.27c.1,0,.1-.17,0-.17Z"/><path class="cls-9" d="M126.63,34.8c-1.68,0-3.36,0-5,.06s-3.35.07-5,.14a.08.08,0,0,0,0,.16c1.68,0,3.35,0,5-.09s3.36,0,5-.15c.07,0,.08-.12,0-.12Z"/><path class="cls-9" d="M125.65,30.46a17.92,17.92,0,0,0-2.54.07l-2.44.1c-1.66.06-3.32.13-5,.22a.1.1,0,0,0,0,.19c1.69-.05,3.38-.14,5.07-.22l2.54-.12a15.5,15.5,0,0,0,2.36-.14c.06,0,0-.09,0-.1Z"/><path class="cls-9" d="M126.12,29.35a50.38,50.38,0,0,0-6.84-.09,55.89,55.89,0,0,0-6.59.51c-.07,0-.06.13,0,.13,2.23-.14,4.45-.35,6.69-.43s4.48,0,6.72,0a0,0,0,0,0,0-.08Z"/><path class="cls-9" d="M130.26,33.17a32.42,32.42,0,0,0-3.69-.08q-1.72,0-3.45.09a61.06,61.06,0,0,0-6.89.51.08.08,0,0,0,0,.15c2.34-.13,4.66-.39,7-.49,1.14-.05,2.29-.07,3.44-.08s2.39.07,3.57,0c.06,0,.05-.07,0-.08Z"/><path class="cls-9" d="M127.89,35.92c-1.77-.15-3.56-.17-5.33-.24s-3.57-.21-5.34-.14a.09.09,0,0,0,0,.17c1.76.19,3.57.16,5.34.2s3.56.15,5.33.12a.06.06,0,0,0,0-.11Z"/><path class="cls-9" d="M129.1,34.28a46.76,46.76,0,0,0-6.8-.05,43.43,43.43,0,0,0-6.54.58.1.1,0,0,0,0,.2c2.22-.13,4.43-.45,6.65-.55s4.44,0,6.67-.06c.07,0,.07-.11,0-.12Z"/><path class="cls-9" d="M129.89,32.07a91.9,91.9,0,0,0-15.72,1.23c-.11,0-.08.21,0,.19,2.61-.29,5.21-.63,7.82-.85s5.24-.34,7.87-.43c.08,0,.09-.14,0-.14Z"/><path class="cls-9" d="M125.7,30.55c-3.22,0-6.43,0-9.64.08a.13.13,0,0,0,0,.25c3.21,0,6.42,0,9.64,0a.17.17,0,0,0,0-.34Z"/><path class="cls-9" d="M128.42,31.53a31.32,31.32,0,0,0-3.75-.22c-1.37,0-2.74-.07-4.11-.08-2.68,0-5.41-.08-8.08.15a.09.09,0,1,0,0,.17c2.65.05,5.31-.07,8-.05,1.33,0,2.65,0,4,.07s2.66.18,4,.1c.07,0,.1-.13,0-.14Z"/></svg>