<svg id="illustration" xmlns="http://www.w3.org/2000/svg" viewBox="0 0 198.43 147.14"><defs><style>.cls-1{fill:#37b771;}.cls-2{fill:#e4eb9e;}.cls-3{fill:#fff;}.cls-4{fill:#04643b;}.cls-5{fill:#248e57;}.cls-6{fill:#d5b8ae;}.cls-7{fill:#e56b70;}.cls-8{fill:#92d2bf;}.cls-9{fill:#231f20;}.cls-10{fill:#d7df23;}.cls-11{fill:#eae722;}.cls-12{fill:#b4bb80;}.cls-13{fill:#147547;}</style></defs><path class="cls-1" d="M1.86,58.26l0,55.35S10.17,87.3,26.63,70.38C40.79,55.82,54.8,56.49,59.69,54.21S94.83,38.83,94.83,38.83l26.1-10.62,15.67-4.37S136.08,14,121.28,8.53C109,4,85.45,11.58,85.45,11.58S58.13,21.06,51,24.49,15.89,42.51,1.86,58.26Z"/><path class="cls-1" d="M65.79,95S44.07,115.66,45,147.64c1.82,0,15.55-.28,15.55-.28S50.39,120.05,65.79,95Z"/><path class="cls-2" d="M42.45,59.11c-1.22-.57-33.75,17.82-40.56,54.5-1.06,1.82,0,33.74,0,33.74l43.12.29c-.76,0-1.69-33.63,26.59-58.94-17.7-13.94-28.41-17.13-33-20.53C34.16,64.91,42.45,59.11,42.45,59.11Z"/><path class="cls-3" d="M82.25,16s6.33-.36,8,5.19-1.17,8.08-4.82,8.94-8-1.05-8.62-5.36S78.31,17.45,82.25,16Z"/><path class="cls-4" d="M105.54,22.5s2.1-.85,3.31-.17,1.51,2.22.34,2.88-2.52-1.64-2.52-1.64l-.52-.6Z"/><path class="cls-5" d="M42.45,59.11s-4.84.26-12.17,7.83C41.34,66.54,65.77,85.11,65,84.66s9.74,5,9.74,5l9.54,5.54,20.1,8.85,12.92,5.12,8.82,2.45,5.11-.45,2.8-1.25,1-3.08V99.48l-.73,5.91-2.17,1.49-2.81,1-.5.29-2.92-.1-3.16-.62-10.46-5-15-8.2L76.51,82,56.15,69.29Z"/><path class="cls-6" d="M120.33,106.34s4.93-2.08-1.73-7.27a56.47,56.47,0,0,0-15.34-7.94l-6.79-2.31-2-.62-5.19-4.84-4.56-4.25-5.65-5.27L74.2,69.28s-9.65-8.07-4-16.92c2.54-3.9,11-7.61,11-7.61l10.53-4.53,8.39-3.72L108.3,33l2.3,11.35a11.51,11.51,0,0,0-7.13,10.14c-.68,8,7,16.75,7,16.75s20,21,22.28,24.84,2.91,6.7,2,7.58-3,4.61-5.91,4.51a40.29,40.29,0,0,1-5.59-.62Z"/><path class="cls-7" d="M42.45,59.11l24.63-8.2,9.31-4.07s-8.19,5-8.14,10.93S72.8,68,75.59,70.6l18,16.79.87.81,6.63,2,6.16,2.55,4.17,2.41L116,97.4l3.73,2.28s4.68,6.87,7.64,8.44c-2.34.56-7-1.78-7-1.78L103.26,97.6,91.78,91.35l-21.4-13.2L51,65.19Z"/><path class="cls-3" d="M102.11,35.64s5.79,2.2,7.14,5.47,2.84,9.16-1.13,14.38c7.71-4.93,11.64-14.38,11.64-14.38s2.45-7.35,1.17-12.9C117.89,29.37,102.11,35.64,102.11,35.64Z"/><path class="cls-3" d="M135.34,24.07s3.47,4.21,4.49,7.5,2.94,11.36.65,16.45c-2.94-6.91-6.2-9.32-6.2-9.32a48.3,48.3,0,0,0-7.93-4.32,10.13,10.13,0,0,0-5-.62l-.37-5.55Z"/><path class="cls-8" d="M82.25,16s-2.07,5.46-1.48,8.21a18,18,0,0,0,3,5.82l2.06-1.24a4.87,4.87,0,0,0,.78-5.06A40.93,40.93,0,0,0,82.25,16Z"/><path class="cls-9" d="M82.31,21.09a41,41,0,0,0,1.92,6.76.09.09,0,1,0,.17-.05,40.51,40.51,0,0,0-2.05-6.73s0,0,0,0Z"/><path class="cls-9" d="M82.66,20.24a16.93,16.93,0,0,0,1.53,7.94c.07.13.28,0,.23-.09a23.46,23.46,0,0,1-1.5-7.85.13.13,0,0,0-.26,0Z"/><path class="cls-3" d="M83.8,21.81a10.19,10.19,0,0,1,.83,2.38c.16.74.14,1.5.29,2.23a.19.19,0,0,0,.37,0,8,8,0,0,0-1.1-4.84c-.13-.26-.51,0-.39.23Z"/><path class="cls-3" d="M81.47,22.87a5.56,5.56,0,0,0,.87,3.91c.15.21.49,0,.36-.21a6,6,0,0,1-.87-3.7c0-.23-.33-.23-.36,0Z"/><path class="cls-3" d="M22.15,45.75c-1.17.66-.89,2.73-.23,3.64.54.75,2.41,1.92,3.22,1a.22.22,0,0,0-.05-.33,2.32,2.32,0,0,0-1-.17,2.52,2.52,0,0,1-1.45-.73A2.34,2.34,0,0,1,22,47.56a9.54,9.54,0,0,1,.37-1.62.17.17,0,0,0-.24-.19Z"/><path class="cls-3" d="M24.2,51.62c-1.13,2.22,1.12,6.16,3.79,5.72a.41.41,0,0,0,.1-.75c-1.07-.49-2-.68-2.75-1.7a4.73,4.73,0,0,1-.77-3.17.2.2,0,0,0-.37-.1Z"/><path class="cls-3" d="M32.61,47.44a2.75,2.75,0,0,0-1.4,3.77c.56,1.08,2.79,2.44,3.72,1.07a.25.25,0,0,0-.14-.36c-1-.37-2-.06-2.65-1.12a2.45,2.45,0,0,1,.67-3,.2.2,0,0,0-.2-.34Z"/><path class="cls-3" d="M34.46,41.07a2.74,2.74,0,0,0,.62,4.68.44.44,0,0,0,.34-.81,2.34,2.34,0,0,1-.7-3.53c.15-.18,0-.49-.26-.34Z"/><path class="cls-3" d="M10,64.13a.05.05,0,1,0,0-.1.05.05,0,0,0,0,.1Z"/><path class="cls-3" d="M10.45,63.78a2.41,2.41,0,0,0,.43,2.83c.55.65,2,1.69,2.88,1a.42.42,0,0,0,0-.7,3.31,3.31,0,0,0-1-.28A2.72,2.72,0,0,1,11.66,66a4.79,4.79,0,0,1-1.08-2.17.07.07,0,0,0-.13,0Z"/><path class="cls-3" d="M14.48,68.31a2.73,2.73,0,0,0,.58,2.86c.59.69,1.9,1.53,2.78.92a.38.38,0,0,0,0-.65c-.67-.35-1.34-.3-1.93-.87a3,3,0,0,1-.82-2.1c0-.29-.47-.48-.61-.16Z"/><path class="cls-3" d="M8.6,69.77a2.56,2.56,0,0,0,.87,2.8c.63.56,2.18,1.32,2.89.52a.39.39,0,0,0-.17-.64c-.33-.14-.7,0-1-.09a2.51,2.51,0,0,1-1.06-.52,3,3,0,0,1-.93-2,.31.31,0,0,0-.55-.07Z"/><path class="cls-3" d="M3.79,82.38a3.27,3.27,0,0,0,1.3,3.93c.89.57,3.34,1.1,3.79-.27a.34.34,0,0,0-.23-.4c-.44-.14-.77.08-1.2.15a2.66,2.66,0,0,1-1.73-.3,3.13,3.13,0,0,1-1.35-3c0-.35-.47-.37-.58-.07Z"/><path class="cls-3" d="M47.33,39.27a3,3,0,0,0-1.81,2.86c0,1,.49,2.85,1.73,2.86a.32.32,0,0,0,.3-.4,2.83,2.83,0,0,0-.53-.88,3.17,3.17,0,0,1-.49-1.46,4,4,0,0,1,.92-2.77c.07-.09,0-.25-.12-.21Z"/><path class="cls-3" d="M50.49,35.62A3,3,0,0,0,52,40c.62.24.9-.77.27-1a2.55,2.55,0,0,1-1.38-3.25c.09-.24-.26-.35-.39-.17Z"/><path class="cls-3" d="M50.33,41.82a4.12,4.12,0,0,0-1.28,4.37c.36,1.26,1.55,2.85,3,2.7a.33.33,0,0,0,.23-.57c-.67-.81-1.6-1.21-2.06-2.22a4.15,4.15,0,0,1,.54-4c.17-.27-.2-.51-.42-.32Z"/><path class="cls-3" d="M59.84,27.73a4.15,4.15,0,0,0,.82,4.73c.29.23.75-.06.54-.42a5.7,5.7,0,0,1-1-4.16c0-.19-.26-.36-.35-.15Z"/><path class="cls-3" d="M60.88,34.22a3.7,3.7,0,0,0-1.77,4.72c.65,1.64,2.92,3.15,4.64,2.22a.4.4,0,0,0-.09-.72c-1.36-.3-2.7-.36-3.47-1.73a3.73,3.73,0,0,1,.87-4.25.15.15,0,0,0-.18-.24Z"/><path class="cls-3" d="M101.12,10.29c4.46-.75,8.59-1.71,13.16-1.3a29.82,29.82,0,0,1,6.42,1.28c2.09.65,4.15,1.81,6.3,2.17.4.06.79-.42.43-.75-3.07-2.81-8.74-3.35-12.73-3.62C110.27,7.76,105,8,101,10c-.2.09,0,.36.14.33Z"/><path class="cls-3" d="M65.21,20.28c-5.61,1-11.16,3.64-16.29,6.07a138.56,138.56,0,0,0-15.8,8.8,128.09,128.09,0,0,0-27,22.91c-.6.69.38,1.7,1,1A146.57,146.57,0,0,1,34.09,36a135.43,135.43,0,0,1,15.06-8.44c5.3-2.54,11-4.31,16.22-6.89.22-.12.06-.42-.16-.38Z"/><path class="cls-3" d="M82.71,34.46c2.13,1.07,5.08-.39,6.75-1.74,1.84-1.48,3.56-3.89,3.24-6.35a.33.33,0,0,0-.64-.09c-.77,2.15-1.43,4.09-3.24,5.6S85,33.4,82.76,34.1a.2.2,0,0,0-.05.36Z"/><path class="cls-3" d="M79.61,16.63a5.43,5.43,0,0,0-4.22,2.44c-.91,1.26-1.86,3.41-.88,4.86a.32.32,0,0,0,.58-.08c.45-1.4.28-2.78,1.08-4.1a7.56,7.56,0,0,1,3.52-2.84c.14-.06.06-.28-.08-.28Z"/><path class="cls-3" d="M103.62,19.25a16.33,16.33,0,0,1,4.53-1.05A9.9,9.9,0,0,1,113,19.76c.43.23.91-.35.53-.7-2.4-2.22-7.75-2.79-10.05-.09a.17.17,0,0,0,.16.28Z"/><path class="cls-3" d="M105.63,21.47A5.91,5.91,0,0,1,111.35,23c.12.1.33,0,.23-.18a4.8,4.8,0,0,0-6-1.41s0,.09,0,.08Z"/><path class="cls-3" d="M132.16,20.21a4.06,4.06,0,0,1,1,1.53,1,1,0,0,1-1,1.31c-.15,0-.28.21-.14.33.71.61,1.58-.15,1.79-.88.31-1.11-.6-2-1.39-2.6a.22.22,0,0,0-.31.31Z"/><path class="cls-3" d="M64,55.23c-2.92,5.08-.14,15.6,6.12,17.06a.22.22,0,0,0,.22-.36c-2.09-2.59-4.44-4.37-5.56-7.67-1-3-.74-5.86-.35-8.92,0-.23-.32-.3-.43-.11Z"/><path class="cls-3" d="M73.42,56.89C74.54,60.58,77,64,79.39,67c2.21,2.72,5.44,6.62,9,7.62.31.09.68-.31.46-.6a22.33,22.33,0,0,0-3.65-3.2,49.52,49.52,0,0,1-4.34-4.11c-2.85-3.06-4.75-6.49-7.07-9.92-.1-.16-.38-.07-.32.13Z"/><path class="cls-3" d="M114.39,84.67A11.1,11.1,0,0,1,120,86.05c1.84,1.07,2.71,2.6,3.8,4.33.29.46,1.22.34,1.14-.3-.62-4.64-6.46-7.66-10.68-6.18a.39.39,0,0,0,.1.77Z"/><path class="cls-3" d="M94.85,68.81a10.1,10.1,0,0,0,1.22,2.87A5.65,5.65,0,0,0,98,73.89c.3.16.78-.12.63-.49a11.55,11.55,0,0,0-1.57-2.3c-.58-.82-1.12-1.68-1.68-2.51a.29.29,0,0,0-.53.22Z"/><path class="cls-3" d="M88.23,55.28c4.19-1.94,9.09-5.18,11.83-9,.37-.5-.36-1.22-.87-.86-1.9,1.35-3.51,3.14-5.34,4.61s-4,3.09-6.06,4.65c-.34.27.1.73.44.57Z"/><path class="cls-3" d="M52,72.31c3,4.15,7.95,7.33,12.17,10.1,4.44,2.92,9.59,6.29,14.75,7.74a.58.58,0,0,0,.45-1.06c-2.22-1.33-4.72-2.25-7-3.46S67.57,83,65.25,81.46c-4.48-2.87-8.39-6.72-13-9.41-.15-.09-.37.1-.26.26Z"/><path class="cls-3" d="M124.28,110.94c3.07.63,7.31.25,9.4-2.41a.29.29,0,0,0-.35-.45,30.83,30.83,0,0,1-4.28,2,13.14,13.14,0,0,1-4.71.44c-.24,0-.29.37-.06.42Z"/><path class="cls-3" d="M34.3,67.25l1.42,0A3.85,3.85,0,0,0,37,67.22a.23.23,0,0,0,0-.44,3.85,3.85,0,0,0-1.27-.06l-1.42,0a.25.25,0,0,0,0,.5Z"/><path class="cls-3" d="M19.83,81.78c2.09,6.22,8.56,12.52,14.53,15,.34.14.64-.39.36-.62-2.67-2.21-5.53-4.16-8-6.62s-4.33-5.36-6.64-7.94a.16.16,0,0,0-.26.15Z"/><path class="cls-3" d="M8.39,102.2a40.33,40.33,0,0,0,3.7,4.26,25.57,25.57,0,0,0,4.07,3.92c.26.18.58-.17.42-.42a25.19,25.19,0,0,0-3.81-4.19A40.47,40.47,0,0,0,8.63,102c-.14-.1-.34.11-.24.25Z"/><path class="cls-3" d="M5.63,127.18c2.55,4.33,6.72,7.7,11,10.3s9.21,4.87,14.19,5.32c.74.06.81-1,.17-1.24-4.68-1.59-9.24-2.92-13.53-5.5S9.7,130.14,6,126.88c-.2-.18-.54.05-.39.3Z"/><path class="cls-3" d="M41.05,72.42a13,13,0,0,0,2.66,3.74c1,.92,2.26,2.14,3.62,2.38a.45.45,0,0,0,.44-.75c-.91-1-2.24-1.56-3.24-2.46a21.55,21.55,0,0,1-3-3.23.31.31,0,0,0-.53.32Z"/><path class="cls-10" d="M109.65,53.56a.61.61,0,0,0,.11.43.28.28,0,0,0,.47,0,.62.62,0,0,0,.12-.43.35.35,0,0,0-.7,0Z"/><path class="cls-10" d="M109.5,53.46a57.24,57.24,0,0,0-1,8.67,70.33,70.33,0,0,0-.35,9.51c0,.23.37.3.42.06a69.2,69.2,0,0,0,1.16-8.62,59.42,59.42,0,0,0,.53-9.51c0-.43-.67-.57-.78-.11Z"/><path class="cls-10" d="M107.79,56.47a23.34,23.34,0,0,0,.12,4.42,20.27,20.27,0,0,0,.46,3.89.41.41,0,0,0,.81-.11,23.39,23.39,0,0,0-.32-4.41,19.89,19.89,0,0,0-.65-3.84.21.21,0,0,0-.42,0Z"/><path class="cls-10" d="M108.29,62.63c0,1.13.22,2.23.19,3.37s-.23,2.23-.32,3.35c0,.13.18.13.22,0a11,11,0,0,0,.25-6.8.17.17,0,0,0-.34.05Z"/><path class="cls-10" d="M139.62,45a3.22,3.22,0,0,0-.11.5c0,.21,0,.43,0,.63,0,.4.67.55.74.11.12-.76.23-1.5.3-2.27l-.9.13a3.47,3.47,0,0,0,.4,1.13.35.35,0,0,0,.65-.18,3.52,3.52,0,0,0-.17-1.2c-.12-.53-.85-.36-.9.12-.06.73-.1,1.44-.12,2.16l.74-.1a4.44,4.44,0,0,0-.1-.62A3.13,3.13,0,0,0,140,45a.2.2,0,0,0-.36.05Z"/><path class="cls-10" d="M140,44.73c-.73,4-.54,8.4-.51,12.42,0,4.45.13,8.9.09,13.36a.42.42,0,0,0,.83,0c0-4.46.21-8.91.32-13.36.1-4,.37-8.44-.3-12.42a.22.22,0,0,0-.43,0Z"/><path class="cls-10" d="M140.66,70.51c1-8.37.57-17,.51-25.43a.32.32,0,0,0-.64,0c.06,8.45-.53,17-.09,25.43a.11.11,0,0,0,.22,0Z"/><path class="cls-10" d="M138.2,45.37a27.59,27.59,0,0,0,.91,6.76.16.16,0,0,0,.31,0,27.19,27.19,0,0,0-.83-6.78.2.2,0,0,0-.39.06Z"/><path class="cls-10" d="M140.9,50.92a53.63,53.63,0,0,0,.24,9.65.18.18,0,0,0,.35,0,54.65,54.65,0,0,0-.37-9.65.11.11,0,0,0-.22,0Z"/><path class="cls-9" d="M78.35,21.4a5.81,5.81,0,0,0,0,2.2,13.7,13.7,0,0,0,.23,2.22.1.1,0,0,0,.19,0,14.16,14.16,0,0,0-.07-2.52,4.93,4.93,0,0,0-.27-1.88,0,0,0,0,0-.07,0Z"/><path class="cls-9" d="M86.45,19.17A10.92,10.92,0,0,1,88,22.23c.3,1,.35,2,.59,3,0,.1.2.11.22,0,.37-2.15-.77-4.57-2-6.27-.14-.21-.49,0-.34.2Z"/><path class="cls-11" d="M53,40.88c-1-.07-2.41.43-2.53,1.56,0,.15.19.21.29.12a9.38,9.38,0,0,1,.86-.93,2.37,2.37,0,0,1,1.38-.5c.16,0,.15-.23,0-.25Z"/><path class="cls-11" d="M17.84,76.25c-2.3,2.13-4.62,5.14-5.35,8.24a.19.19,0,0,0,.35.14c.73-1.36,1.28-2.79,2.09-4.12A27.76,27.76,0,0,1,18,76.45a.14.14,0,0,0-.19-.2Z"/><path class="cls-11" d="M5.66,81.66a0,0,0,1,0,0-.09s0,.09,0,.09Z"/><path class="cls-11" d="M4.78,80.79a.05.05,0,1,0,0-.1.05.05,0,0,0,0,.1Z"/><path class="cls-11" d="M5.28,81.7a1.38,1.38,0,0,0,.29.3.13.13,0,0,0,.18-.19,2,2,0,0,0-.29-.29.13.13,0,0,0-.18.18Z"/><path class="cls-11" d="M10.68,63.54a6.53,6.53,0,0,0,.93-.89c.11-.14-.1-.33-.24-.24a6,6,0,0,0-.95.86c-.18.17.08.42.26.27Z"/><path class="cls-11" d="M17.69,72.26a7.75,7.75,0,0,0,5-3.21c.07-.12-.08-.29-.21-.2-.8.54-1.48,1.23-2.29,1.76s-1.73.86-2.56,1.37c-.11.07-.08.29.08.28Z"/><path class="cls-11" d="M28.18,57.25a13.29,13.29,0,0,0,4.46-1.46c.17-.09,0-.32-.12-.29a13.42,13.42,0,0,0-4.4,1.5c-.11.07-.07.26.06.25Z"/><path class="cls-11" d="M34.37,52.29a3.48,3.48,0,0,0,2.7-3.13.19.19,0,0,0-.35-.09,9.47,9.47,0,0,1-1,1.79,10.36,10.36,0,0,1-1.43,1.3c-.06.05,0,.14.07.13Z"/><path class="cls-11" d="M36.61,45.53c1.65.23,4.17-.42,5.21-1.8.13-.17-.09-.44-.29-.37-.83.28-1.54.86-2.37,1.18s-1.7.49-2.55.74c-.11,0-.14.23,0,.25Z"/><path class="cls-11" d="M51.53,48.88c1.52.79,4.65.88,5.49-1,0-.12,0-.31-.19-.25a21.14,21.14,0,0,1-2.22,1.15,5.34,5.34,0,0,1-3-.08c-.12,0-.2.14-.09.2Z"/><path class="cls-11" d="M52.29,39.76c1.19.66,3.4.64,4.19-.67.13-.22-.09-.55-.35-.45a12.31,12.31,0,0,1-1.61.72,4.27,4.27,0,0,1-2-.06.25.25,0,0,0-.19.46Z"/><path class="cls-11" d="M64.11,41.54c1.8.23,4.36-.77,5.14-2.5.07-.18-.09-.41-.29-.29-.74.48-1.37,1.11-2.16,1.53a10.14,10.14,0,0,1-2.75.82c-.27,0-.17.41.06.44Z"/><path class="cls-11" d="M60.76,32.4c1.33,1.17,4.93.74,5.22-1.34a.19.19,0,0,0-.27-.21,16.25,16.25,0,0,1-2.12,1.3,5.56,5.56,0,0,1-2.69,0c-.13,0-.26.13-.14.24Z"/><path class="cls-11" d="M7.49,86.42a4.58,4.58,0,0,0,2.66-4.52.37.37,0,0,0-.73,0,5.19,5.19,0,0,1-2.11,4.22.18.18,0,0,0,.18.3Z"/><path class="cls-11" d="M50.21,122.69a3.78,3.78,0,0,0,4.27,1,3.43,3.43,0,0,0,2.24-3.2.25.25,0,0,0-.46-.13,4.77,4.77,0,0,1-2.08,2.49,3.7,3.7,0,0,1-3.7-.49c-.21-.15-.43.17-.27.34Z"/><path class="cls-11" d="M49.43,131.3a2.07,2.07,0,0,0,2,2.07c1,0,2.27-1.05,2-2.17-.06-.26-.51-.36-.62-.08-.28.63-.42,1.29-1.19,1.51a1.6,1.6,0,0,1-1.92-1.33c0-.18-.28-.18-.27,0Z"/><path class="cls-11" d="M53.47,131.33a1.37,1.37,0,0,0,.46.81,2,2,0,0,0,1.07.46,2,2,0,0,0,2-1,.37.37,0,0,0-.06-.42.35.35,0,0,0-.48,0,2.71,2.71,0,0,1-.87.58,1.92,1.92,0,0,1-1.92-.53c-.09-.12-.3-.06-.25.1Z"/><path class="cls-11" d="M53.46,112.31a2.46,2.46,0,0,0,2.12,2.35c1.06.17,2.59-.35,2.9-1.48.08-.3-.29-.65-.57-.44-.69.51-1.14,1.12-2.09,1.09a2.79,2.79,0,0,1-2.16-1.58c0-.1-.21,0-.2.06Z"/><path class="cls-11" d="M48.45,139.47a3.2,3.2,0,0,0,2.66,3.87c1.78.21,3.79-1.45,3.27-3.33-.06-.22-.32-.18-.4,0-.48,1.14-1.4,2.33-2.79,2.22a2.57,2.57,0,0,1-2.13-2.67c0-.35-.54-.43-.61-.09Z"/><path class="cls-11" d="M53.87,142c1,1.77,4.48,2.11,5.24-.1a.25.25,0,0,0-.36-.28c-1.41.89-3,1.21-4.3-.07a.37.37,0,0,0-.58.45Z"/><path class="cls-12" d="M32.23,70.56c1.37,3.4,4.42,6.45,6.88,9.1,2.63,2.84,5.87,6.17,9.42,7.83.45.21.93-.33.55-.71-2.69-2.77-6-5-8.83-7.66s-5-6.1-7.8-8.69c-.09-.08-.27,0-.22.13Z"/><path class="cls-12" d="M48.92,87.22a.05.05,0,0,0,0-.1.05.05,0,1,0,0,.1Z"/><path class="cls-12" d="M49,87.23c4-2.11,7.61-4,12.24-4.52,1-.1,1-1.62,0-1.57-4.61.2-9.71,2-12.34,6-.05.06,0,.14.1.1Z"/><path class="cls-12" d="M64.78,95.29c-2.32-1-4.74-1.6-7.08-2.5-2-.76-4.12-2.33-6.26-2.38a.46.46,0,0,0-.32.78c1.29,1.68,4.23,2.39,6.18,3.06a24.3,24.3,0,0,0,7.42,1.53c.3,0,.3-.39.06-.49Z"/><path class="cls-12" d="M48.14,101.44c-3.44-3.39-7.91-5.72-11.47-9s-6.48-7.31-9.84-10.88c-.4-.44-1,.11-.77.6,2.17,4.61,5.92,8.42,9.69,11.79,3.42,3,7.62,6.8,12.15,7.94a.24.24,0,0,0,.24-.4Z"/><path class="cls-12" d="M20.39,94.88c1.51,4,4.71,7.38,7.66,10.35a61.17,61.17,0,0,0,10.7,8.54c.89.56,1.71-.85.82-1.41a58.7,58.7,0,0,1-10.41-8.24c-3-3-5.29-6.56-8.26-9.54-.2-.2-.62,0-.51.3Z"/><path class="cls-12" d="M29,112a70.49,70.49,0,0,0,11.75,9.92c.84.55,1.52-.73.77-1.31-4-3.06-8-6.06-11.74-9.4A.56.56,0,0,0,29,112Z"/><path class="cls-12" d="M31.56,66.58a10.9,10.9,0,0,0-4.89,3.58c-1.1,1.39-2.48,3.43-2.29,5.29a.46.46,0,0,0,.85.23c1-1.42,1.41-3.17,2.5-4.59a17.53,17.53,0,0,1,4.17-3.7c.39-.27.16-1-.34-.81Z"/><path class="cls-12" d="M23.88,74.79c-2.54.48-4.66,2.83-6.16,4.78s-2.86,4.13-2.8,6.73a.15.15,0,0,0,.27.08c1.52-2,2.42-4.42,4-6.44,1.43-1.82,3.43-3.13,4.8-5,.07-.09,0-.19-.13-.18Z"/><path class="cls-12" d="M23.72,75a19.2,19.2,0,0,0,1.18-1.66L24.18,73A13.74,13.74,0,0,0,23,75.41a.25.25,0,0,0,.41.24,14.19,14.19,0,0,0,1.53-2.28c.28-.45-.42-.86-.72-.42a19.11,19.11,0,0,0-.93,1.8.27.27,0,0,0,.47.28Z"/><path class="cls-12" d="M15.35,85.34c-3.49,1.33-5.46,5.31-5.7,8.84-.06.89,1.33.89,1.38,0,.23-3.58,2.19-5.85,4.75-8.1.33-.28,0-.9-.43-.74Z"/><path class="cls-12" d="M10,94.05c-1.87-.27-3.28,2.83-3.9,4.23-1,2.16-1.74,5.14-.8,7.41.15.37.79.5.88,0,.41-2.31.26-4.54,1.21-6.77a18,18,0,0,1,2.07-3.38c.44-.6.62-.74.56-1.47l0,0Z"/><path class="cls-12" d="M5.07,104.71c-2.95,2.51-3.41,7.33-2.13,10.81.3.81,1.57.49,1.32-.36-1.13-3.76-.25-6.6,1.35-10a.34.34,0,0,0-.54-.41Z"/><path class="cls-12" d="M14.45,86a27.1,27.1,0,0,0,11.92,14.34c.43.24,1-.39.56-.72a51.36,51.36,0,0,1-6.68-5.9,53.63,53.63,0,0,1-5.36-7.91c-.14-.22-.53-.08-.44.19Z"/><path class="cls-12" d="M9.27,93.64c1.24,4.55,4.31,8.69,7.3,12.26,3.14,3.76,6.89,7.55,11.31,9.78.34.17.74-.27.43-.55-3.5-3.16-7.19-6-10.29-9.54-3.27-3.77-5.5-8.08-8.35-12.11a.22.22,0,0,0-.4.16Z"/><path class="cls-12" d="M5.2,104.18c1,3.9,4.48,7.66,7.18,10.56,2.94,3.16,6.58,6.73,10.6,8.46.38.16.85-.3.48-.63-3.26-2.9-6.9-5.21-10-8.38a55.41,55.41,0,0,1-4.65-5.5A39.33,39.33,0,0,0,5.42,104a.14.14,0,0,0-.22.14Z"/><path class="cls-12" d="M2.11,114.08A48.33,48.33,0,0,0,9.74,125c2.93,3.2,6.26,6.62,10.16,8.63.41.21.87-.32.51-.66-3.08-3-6.55-5.43-9.51-8.55a96.15,96.15,0,0,1-8.46-10.54.19.19,0,0,0-.33.19Z"/><path class="cls-12" d="M32.41,114.88c3,4.45,8.7,9.62,14.44,9.41.41,0,.67-.66.23-.85-2.4-1.07-4.9-1.58-7.18-3a20.83,20.83,0,0,1-6.45-6.19c-.43-.64-1.47,0-1,.6Z"/><path class="cls-12" d="M42.1,122.32c2,.51,4.11,1.3,6.2,1.25.29,0,.46-.45.16-.58-1.92-.85-4.15-.94-6.21-1.24-.36,0-.53.47-.15.57Z"/><path class="cls-12" d="M38.94,102.65a17,17,0,0,0,5.58,7.44c2.15,1.77,4.95,3.81,7.82,4,.37,0,.43-.45.17-.63-2.47-1.77-5.36-2.66-7.74-4.67a52,52,0,0,1-5.67-6.19c-.06-.08-.19,0-.16.09Z"/><path class="cls-12" d="M45.38,110.22c2.08.9,4.15,1.91,6.28,2.69a.6.6,0,0,0,.47-1.1c-2-1-4.09-1.78-6.13-2.66-.72-.31-1.35.75-.62,1.07Z"/><path class="cls-12" d="M46.82,95.1C48.11,96.75,50.28,97.79,52,99s3.3,3,5.26,3.69a.24.24,0,0,0,.27-.35c-1-1.75-3.07-3-4.66-4.09-1.76-1.24-3.76-3-5.91-3.36a.11.11,0,0,0-.1.18Z"/><path class="cls-12" d="M57.94,82.17c1.56,1.78,3.73,2.9,5.72,4.12,2.25,1.39,4.49,2.87,6.84,4.09a.68.68,0,0,0,.69-1.18C69,87.68,66.67,86.38,64.39,85c-2-1.19-4-2.59-6.28-3.14a.17.17,0,0,0-.17.28Z"/><path class="cls-12" d="M69.66,89.28A15.21,15.21,0,0,0,59.89,83c-3.79-.72-8.61-.3-11.52,2.47a.3.3,0,0,0,.29.49c3.82-1,7.17-2.27,11.21-1.46a18.82,18.82,0,0,1,9.31,5.19c.24.23.68-.08.48-.36Z"/><path class="cls-12" d="M58,82.94a33.24,33.24,0,0,0-8,.92.47.47,0,0,0,.12.91,33.61,33.61,0,0,0,8-1.31.27.27,0,0,0-.07-.52Z"/><path class="cls-12" d="M30.22,68a12.93,12.93,0,0,0,2.87,4.72c1.1,1.34,2.38,3.13,4,3.75.34.13.57-.3.43-.57-.73-1.48-2.32-2.6-3.39-3.86a40.49,40.49,0,0,0-3.47-4.32.29.29,0,0,0-.48.28Z"/><path class="cls-13" d="M82.14,33.63c3.88,1.68,8.62-2.21,9.44-5.93a.55.55,0,0,0-1.07-.29A8.38,8.38,0,0,1,87,31.88a14.92,14.92,0,0,1-4.82,1.48.15.15,0,0,0,0,.27Z"/><path class="cls-13" d="M104.22,20.51a9.09,9.09,0,0,1,9.18,2.16.5.5,0,0,0,.71-.7A8.44,8.44,0,0,0,104,20a.31.31,0,0,0,.23.56Z"/><path class="cls-13" d="M20.57,46.29a0,0,0,0,0,0-.08,0,0,0,0,0,0,.08Z"/><path class="cls-13" d="M20.29,46.38a3.65,3.65,0,0,0,0,3.58c.58,1,1.75,2.09,3,1.75a.3.3,0,0,0,.07-.55,5,5,0,0,1-2.26-1.52,3.16,3.16,0,0,1-.4-3c.12-.27-.25-.5-.4-.24Z"/><path class="cls-13" d="M23,51.39c-2.44,3.73,3.07,9.17,6.82,7a.36.36,0,0,0-.18-.67c-1.76-.16-3.39-.15-4.74-1.49s-1.39-3-1.57-4.77a.18.18,0,0,0-.33-.09Z"/><path class="cls-13" d="M31,47.49a4.48,4.48,0,0,0,.83,6c1.59,1.26,4.93,1.48,6-.6.1-.2-.08-.53-.33-.43-1.59.67-3.08,1.43-4.75.43a4,4,0,0,1-1.3-5.14.27.27,0,0,0-.46-.27Z"/><path class="cls-13" d="M33.79,39.91a4.56,4.56,0,0,0-.2,5.89c1.08,1.31,4.13,2.69,5.5,1.05.11-.13.09-.39-.11-.42-1.56-.28-2.94.21-4.29-1a4.25,4.25,0,0,1-.59-5.29c.11-.19-.16-.41-.31-.24Z"/><path class="cls-13" d="M49.31,38.27a4.27,4.27,0,0,0-5.55,3.44c-.33,2.53,2,5.41,4.66,4.81a.32.32,0,0,0,0-.62c-1.91-.58-4-2-3.5-4.36a4.12,4.12,0,0,1,4.35-2.93c.2,0,.21-.28,0-.34Z"/><path class="cls-13" d="M48.71,35.23a3.12,3.12,0,0,0-.54,3c.31.89,1.15,2.08,2.21,2a.37.37,0,0,0,.26-.63c-.55-.57-1.18-.84-1.5-1.62a2.8,2.8,0,0,1,0-2.35c.14-.29-.24-.64-.46-.36Z"/><path class="cls-13" d="M51.05,40.44c-2.35.29-3.5,3.42-3.24,5.49.33,2.58,2.78,5.1,5.48,4.92a.55.55,0,0,0,.14-1.08c-2.12-.62-4.07-1.64-4.38-4.09-.28-2.2,1-3.38,2.11-5,.05-.08,0-.21-.11-.19Z"/><path class="cls-13" d="M61.48,33c-3.49.16-4.86,4.25-3.22,7,1.87,3.12,6.79,4.12,9.38,1.33a.4.4,0,0,0-.39-.67c-2.58.61-5.31,1.46-7.31-.91-1.84-2.17-.8-5.11,1.68-6.22.26-.11.13-.54-.14-.53Z"/><path class="cls-13" d="M60.31,26.41s0-.07,0-.07,0,.07,0,.07Z"/><path class="cls-13" d="M60.18,26.12c-1.58.09-2.44,2.39-2.46,3.73,0,1.74,1,3.89,2.7,4.46.62.2.92-.58.58-1-1-1.19-1.93-2-1.9-3.68,0-1.35.91-2.19,1.16-3.41a.08.08,0,0,0-.08-.1Z"/><path class="cls-13" d="M12.43,60.37c-2.22,1.29-4.17,3.8-3.23,6.48.66,1.88,3.32,3.19,4.85,1.51.24-.28,0-.81-.39-.67A2.49,2.49,0,0,1,10.13,65c.16-1.79,1.46-3,2.76-4.05.33-.27-.1-.79-.46-.59Z"/><path class="cls-13" d="M14,68.59c-1.69,2,.78,4.63,2.76,5,3.26.7,6.65-1.74,8.13-4.5.14-.26-.15-.59-.42-.42-1.79,1.12-3.14,3-5.24,3.54-3,.81-4.57-.89-5-3.61a.11.11,0,0,0-.19-.06Z"/><path class="cls-13" d="M9.94,67.93C7.39,69,8,73.07,10,74.38s6.64.17,6.21-2.84a.41.41,0,0,0-.69-.18,6.6,6.6,0,0,1-1.79,2,3,3,0,0,1-3,.08A3.11,3.11,0,0,1,9.28,71a4.74,4.74,0,0,1,.85-2.8c.07-.12,0-.31-.19-.25Z"/><path class="cls-13" d="M6,82.5s0,0,0,0,0,0,0,0Z"/><path class="cls-13" d="M5.85,82c-.61-.46-1-.74-1.74-.41a2.27,2.27,0,0,0-1.22,1.51A3.67,3.67,0,0,0,5,87.19a3.94,3.94,0,0,0,4.41-.49c1.15-1,2-3,1.13-4.38a.5.5,0,0,0-.93.25A5.05,5.05,0,0,1,9,85.14,2.61,2.61,0,0,1,6.5,86.35a3.21,3.21,0,0,1-2.31-1.46,2.35,2.35,0,0,1-.37-1.48c.11-.69,1.12-1.72,1.95-1.29A.08.08,0,0,0,5.85,82Z"/><path class="cls-13" d="M48,131.27A3,3,0,0,0,50.67,135c1.6.12,4.1-1.77,3-3.54a.3.3,0,0,0-.5,0c-.61,1-.93,2.2-2.32,2.35a2.52,2.52,0,0,1-2.47-2.48.21.21,0,0,0-.42,0Z"/><path class="cls-13" d="M52.67,133.26a2.71,2.71,0,0,0,3.27,1.16c1-.37,2.18-1.49,1.89-2.67a.48.48,0,0,0-.8-.21c-.47.55-.67,1.26-1.37,1.6a2.73,2.73,0,0,1-2.53-.34.34.34,0,0,0-.46.46Z"/><path class="cls-13" d="M50.18,124.28c-.09,3.14,5.83,4.59,7.44,2.1a.55.55,0,0,0-.61-.8c-1.27.33-2.1.92-3.5.58a7.2,7.2,0,0,1-3-2,.2.2,0,0,0-.34.14Z"/><path class="cls-13" d="M49.54,122.54a3.57,3.57,0,0,0,3.55,3c1.47,0,3.73-1.09,3.5-2.81a.32.32,0,0,0-.46-.19c-1,.61-1.49,1.7-2.86,1.82a3.77,3.77,0,0,1-3.31-2c-.11-.16-.44-.13-.42.12Z"/><path class="cls-13" d="M52.69,113.18a3.24,3.24,0,0,0,2.67,2.56c.9.17,3.22,0,3-1.44a.29.29,0,0,0-.22-.22c-.72-.2-1.56.48-2.35.44A3,3,0,0,1,53.26,113c-.15-.23-.61-.17-.57.15Z"/><path class="cls-13" d="M47.56,140c-.52,1.51.91,3.28,2.2,3.91a4.43,4.43,0,0,0,4.68-.62c.51-.41-.17-1.31-.71-.92a3.42,3.42,0,0,1-3.73.43c-1.19-.66-1.37-1.76-1.94-2.86a.28.28,0,0,0-.5.06Z"/><path class="cls-13" d="M53.94,143.22a3.77,3.77,0,0,0,5.12.6c.49-.42,0-1.22-.61-1a6.76,6.76,0,0,1-2,.44,4.55,4.55,0,0,1-2.06-.6.39.39,0,0,0-.47.61Z"/><path class="cls-13" d="M89.31,29.12c1.18-.67,2.23-2.36,1.63-3.75-.12-.26-.46-.09-.48.13a6.15,6.15,0,0,1-.24,1.85,4.06,4.06,0,0,1-1.09,1.54c-.13.11,0,.31.18.23Z"/><path class="cls-13" d="M90.6,24.39a4.06,4.06,0,0,1-.43,4.17c-.13.22.14.54.37.38,1.51-1.1,1.39-3.43.31-4.74-.12-.15-.33,0-.25.19Z"/><path class="cls-13" d="M91.05,27.11a19.39,19.39,0,0,1-3.74,4.34,32.42,32.42,0,0,1-4.86,3,.21.21,0,0,0,.16.39c3.76-.9,7-4.23,8.83-7.5a.23.23,0,0,0-.39-.23Z"/><path class="cls-13" d="M87.91,30.48a24.51,24.51,0,0,0-4.33,2.13.23.23,0,0,0,.18.42,25.18,25.18,0,0,0,4.48-2c.39-.18.05-.74-.33-.56Z"/><path class="cls-13" d="M87.32,30.19l-1.9.88a9,9,0,0,0-1.86.93.34.34,0,0,0,.26.62,9.62,9.62,0,0,0,1.88-.79l2-.93c.48-.22.07-.92-.41-.71Z"/><path class="cls-13" d="M87.93,29.62a21.43,21.43,0,0,1-3.7,1.8c-1.17.42-2.39.63-3.55,1-.35.13-.33.73.09.69,2.58-.22,5.29-1.68,7.46-3,.34-.21,0-.73-.3-.53Z"/><path class="cls-13" d="M86,31.21l-2.52-.29a8.12,8.12,0,0,0-2.25-.14c-.35.07-.3.57,0,.66a8.07,8.07,0,0,0,2.25.12l2.52,0c.24,0,.23-.35,0-.37Z"/><path class="cls-13" d="M86,30.83c-.89,0-1.78-.06-2.67-.13a6,6,0,0,0-2.38,0,.33.33,0,0,0,0,.62,6,6,0,0,0,2.38,0c.89-.06,1.78-.1,2.67-.13a.22.22,0,0,0,0-.44Z"/><path class="cls-13" d="M86.73,30.74a9.25,9.25,0,0,1-3.08.94c-1,.1-1.92-.12-2.89-.06a.39.39,0,0,0-.11.76c1.95.7,4.65-.2,6.38-1.12.34-.18,0-.68-.3-.52Z"/><path class="cls-13" d="M84.75,32.4l-1.9.28A8.45,8.45,0,0,0,81,33a.37.37,0,0,0,.09.72,7.91,7.91,0,0,0,1.87-.23l2-.32c.54-.09.31-.89-.22-.81Z"/><path class="cls-13" d="M83.83,32.65a3.43,3.43,0,0,1-2,.77c-.57,0-1.08-.19-1.65-.18a.2.2,0,0,0-.14.33c1.1,1,3.12.21,4.08-.64.2-.17-.08-.44-.28-.28Z"/><path class="cls-13" d="M89.5,28.33c-.54.41-1.08.8-1.6,1.23A5.65,5.65,0,0,0,86.41,31c-.14.25.13.46.37.36a5.42,5.42,0,0,0,1.46-1.25c.49-.48,1-1,1.44-1.49.11-.12,0-.34-.18-.24Z"/><path d="M-.22,62.93c12.81-15.81,29.33-27.75,47.6-36.54A215.09,215.09,0,0,1,75.94,15.21c10.36-3.28,21.31-6.74,32.17-7.62,11.76-1,26.74,3.86,28.54,17.39,0,.15.27.16.25,0-1.16-8.88-9-15.21-17.39-17.11C108,5.26,95.69,9.15,84.65,12.23c-20.89,5.83-41.42,14-59.29,26.51A116.68,116.68,0,0,0-.32,62.85c0,.06,0,.13.1.08Z"/><path d="M137.52,23.5C103.69,30.69,74.6,51.38,41,59.2c-.23,0-.13.4.1.35C74.7,51.7,103.86,31.4,137.56,23.64c.09,0,.05-.15,0-.14Z"/><path d="M135.81,102.7c-1.52,5.39-7.69,6.31-12.34,4.89-4.46-1.36-8.67-4-12.76-6.21q-12.18-6.5-24.07-13.55T63.22,73.18q-5.86-3.87-11.63-7.88c-1.79-1.25-3.58-2.5-5.36-3.77l-3-2.18c-.61-.44-2.56-1.2-.93-1.24.31,0,.31-.49,0-.48l-1.47,0a.25.25,0,0,0-.12.46q19.47,14.21,40.1,26.76,10.2,6.21,20.66,12c6.49,3.57,13.08,7.58,20,10.31,5.11,2,12.76,2,14.56-4.43a.08.08,0,0,0-.16,0Z"/><path d="M74.47,48.71a10.94,10.94,0,0,0-6.1,7.95c-.63,3.61.83,7,3,9.74,3.24,4.08,7.49,7.46,11.28,11,4.46,4.16,8.87,8.39,13.4,12.48.11.1.28-.06.16-.17-6.84-6.58-13.94-12.91-20.84-19.43-3-2.81-6.17-6-6.91-10.19a10.7,10.7,0,0,1,6-11.27.07.07,0,0,0-.07-.12Z"/><path d="M133.8,104.61s0,0,0,0a0,0,0,1,0,0,0Z"/><path d="M134.29,104.47a5.27,5.27,0,0,1-2.39,6c-2.14,1.38-4.77,1.25-7.16.75a70.85,70.85,0,0,1-10-3.35q-10.42-3.83-20.52-8.5c-13-6-25-13.41-37.24-20.85-.2-.12-.36.17-.18.3A190.34,190.34,0,0,0,78.54,92q11.19,6,22.93,11,5.46,2.33,11,4.4a89,89,0,0,0,12.17,4c2.71.57,5.7.63,7.94-1.24a5.22,5.22,0,0,0,1.89-5.85c0-.13-.25-.07-.2.06Z"/><path d="M63.28,82.35a8.16,8.16,0,0,0-7.19-.27.12.12,0,0,0,.09.21c2.43-.66,4.65-.9,7,.2.09,0,.17-.09.08-.14Z"/><path d="M57.08,81.8A9.81,9.81,0,0,0,49.17,85c-.06.08,0,.17.1.11a11.34,11.34,0,0,1,7.81-3.21c.06,0,.05-.08,0-.09Z"/><path d="M58.48,82.14C56,84.6,53.38,87,51,89.61c0,0,0,.13.08.08,2.59-2.39,5-5,7.5-7.47.05,0,0-.12-.07-.08Z"/><path d="M58,81.47a23.32,23.32,0,0,0-11.2,5.34c-.06,0,0,.11.07.07A26.63,26.63,0,0,1,58,81.58c.07,0,0-.12,0-.11Z"/><path d="M72.72,87.91a76.54,76.54,0,0,0-27.87,59.73c0,.16.26.16.26,0A77.06,77.06,0,0,1,72.8,88c.06,0,0-.13-.08-.09Z"/><path d="M65.77,94.93c-9.63,14.78-10.85,35-5.47,51.47.06.2.39.11.32-.09a63.44,63.44,0,0,1-2.87-25.81c.89-9.19,3.93-17.37,8.06-25.54,0,0,0,0,0,0Z"/><path d="M30.66,66.9C15.25,78.66,4.54,96.46.64,115.38a.2.2,0,0,0,.38.1A86.88,86.88,0,0,1,30.73,67s0-.12-.07-.08Z"/><path d="M81.43,17.08C77.3,18.49,75.31,24,77.86,27.67s8.27,3.81,11.19.71,2.13-8.82-1.4-11.22A7.77,7.77,0,0,0,76.39,21a.13.13,0,0,0,.24.11c1.88-3.61,6.36-6,10.27-3.86a7.24,7.24,0,0,1,2,10.59c-2.67,3.13-8.26,3-10.66-.42-2.51-3.57-.55-8.59,3.26-10.22.07,0,0-.15-.06-.12Z"/><path d="M81.78,17.52A12.43,12.43,0,0,0,83.59,30.8c.16.19.41-.07.27-.26a12.91,12.91,0,0,1-1.94-13c0-.08-.1-.13-.14-.06Z"/><path d="M82,17.42A11.89,11.89,0,0,1,85.44,30a.19.19,0,0,0,0,.18c.34.32.68.64,1,.94a.11.11,0,0,0,.16-.16c-1.05-1.22-.34-2.57-.26-4A11.79,11.79,0,0,0,86,23.11a11.12,11.12,0,0,0-3.91-5.84c-.08-.06-.19.08-.11.15Z"/><path d="M104.64,23c1.38-.61,3.33-1.41,4.62-.17a1.46,1.46,0,0,1-.14,2.3c-.93.6-1.56-.36-2-1-.54-.87-1.7-2.43-2.78-1.31-.11.12.06.28.18.18,1.48-1.24,2.42,2.19,3.59,2.6a1.49,1.49,0,0,0,1.86-1.1,1.94,1.94,0,0,0-1.31-2.32c-1.41-.59-2.86.08-4.12.71-.1.05,0,.19.08.15Z"/><path d="M104,20.06a8.18,8.18,0,0,1,9.71,1.27A.21.21,0,0,0,114,21a8.07,8.07,0,0,0-10.09-1.14.09.09,0,0,0,.09.16Z"/><path d="M61.19,26.72a3.31,3.31,0,0,0,2.67,6.06.13.13,0,0,0-.07-.24c-3.19.47-5.53,4.23-3.77,7.2a5,5,0,0,0,7.79.65.13.13,0,0,0-.19-.18c-2.71,2.62-8.38,1.37-7.89-3.09a5.16,5.16,0,0,1,.76-2.22c.56-.88,1.64-1.16,2.23-1.82.76-.22.72-.29-.14-.24l-1.79-.46-1.5-2.56a3.24,3.24,0,0,1,2-3c.06,0,0-.13-.06-.1Z"/><path d="M49.42,35.52a3.71,3.71,0,0,0,4.76,4.92.14.14,0,0,0,0-.28c-2.93.15-5.54,2.83-4.94,5.89A5.13,5.13,0,0,0,56,49.56a.15.15,0,0,0,0-.27l-.81-.53c-.09-.06-.21.09-.12.16,1.06.86-2.6.43-3.15.14a4.36,4.36,0,0,1-2.48-4.32c.25-2.12,1.56-2.55,2.84-3.86.62-.64,1.08-.15-.83-.91a1.67,1.67,0,0,1-1.73-1.77,2.34,2.34,0,0,1-.15-2.63c0-.12-.15-.18-.2,0Z"/><path d="M49.09,38.73a3.67,3.67,0,1,0,.52,7,.13.13,0,0,0-.07-.26A3.73,3.73,0,0,1,45,43c-.61-2.38,1.79-4.46,4-4.14.09,0,.14-.13,0-.15Z"/><path d="M36.75,40.75c-1.91-1.19-4.09.9-3.52,2.92.9,3.19,4.79,2.84,7,1.4.12-.08,0-.27-.11-.2-1.8,1-4.24,1.63-5.87,0a2.53,2.53,0,0,1-.56-3,2.18,2.18,0,0,1,3-.93.09.09,0,0,0,.09-.16Z"/><path d="M33.7,46.4a3.44,3.44,0,0,0-2.22,5.16c1.31,1.83,4.71,1.64,5.61-.49,0-.14-.15-.19-.22-.1-1.17,1.61-3.84,2.2-5.16.39a3.19,3.19,0,0,1,2-4.78c.11,0,.06-.2,0-.18Z"/><path d="M23.84,45.12c-2.28.1-3.93,3.12-2.38,5,1.33,1.61,4.64,1.26,5.27-.87a.1.1,0,0,0-.19-.08c-.92,1.57-3.27,2.39-4.74,1-1.69-1.68-.16-4.7,2-4.85.08,0,.08-.13,0-.13Z"/><path d="M25.74,50.58a3,3,0,0,0-2.2,4.21c1.17,2.7,4.74,3.3,7.34,3.09a.11.11,0,0,0,0-.22c-2.05-.26-4.13-.11-5.85-1.47s-2.24-5,.73-5.48c.08,0,.06-.14,0-.13Z"/><path d="M12.6,61.51a3.9,3.9,0,0,0-2.67,5.23C11,69,13.9,69.27,15.73,68c.14-.09.06-.36-.12-.29a2.73,2.73,0,0,0-.52,4.7c2.78,2.11,6.19-.47,8.14-2.44a.15.15,0,0,0-.21-.21,16.23,16.23,0,0,1-3.17,2.44,4.87,4.87,0,0,1-3.37.49l-2.1-1.86a3,3,0,0,1,.47-2.35c.46-.55.27-.61-.56-.19a1.85,1.85,0,0,1-1.38.15A2.87,2.87,0,0,1,10.63,67a3.43,3.43,0,0,1,2-5.32c.09,0,0-.18-.05-.16Z"/><path d="M9.82,68.11a3.27,3.27,0,0,0-.05,5.2c1.66,1.12,4.6.07,4.82-2,0-.13-.17-.13-.21,0-.67,1.67-2.61,3-4.37,1.89a3.07,3.07,0,0,1-.12-4.91c.07,0,0-.17-.07-.12Z"/><path d="M4.67,81.22A3.62,3.62,0,0,0,5.43,87a3.56,3.56,0,0,0,4.79-3.8c0-.14-.26-.11-.25,0,.11,2.36-2.5,4.86-4.8,3.27a3.42,3.42,0,0,1-.38-5.12c.08-.07,0-.19-.12-.12Z"/><path d="M53.79,113c1,1.12,3.06,1.62,4.28.54,0,0,0-.15-.07-.12-1.43.58-2.91.63-4-.59-.11-.11-.28.06-.18.17Z"/><path d="M49.88,121.41a3.08,3.08,0,0,0,2.88,2.74,3,3,0,0,0,3-2.66.12.12,0,0,0-.23,0,3,3,0,0,1-2.77,2.45A2.91,2.91,0,0,1,50,121.39a.07.07,0,0,0-.14,0Z"/><path d="M51,124.23c1.23,2.28,4.74,3,6.59,1a.11.11,0,1,0-.15-.15,4.2,4.2,0,0,1-6.32-1,.07.07,0,1,0-.12.07Z"/><path d="M48.7,129.9c-1.26,2.57,2.06,5,3.92,2.61.72-.92,0-.78.57-.29s.91,1,1.8,1.12a2.41,2.41,0,0,0,2.52-2.55.12.12,0,1,0-.24,0,2.11,2.11,0,0,1-4.17.52c0-.12-.23-.13-.25,0a2.16,2.16,0,1,1-4-1.34c0-.08-.08-.15-.12-.07Z"/><path d="M102,38.63s0,0,0,0,0,0,0,0Z"/><path d="M102.51,36c3.68,1.72,6.73,4.22,7.81,8.33,1.15,4.35-.47,8.25-3.21,11.57a.11.11,0,0,0,.16.16c6.75-5.72,4-18.13-4.69-20.22-.09,0-.16.12-.07.16Z"/><path d="M106.26,56.54C116.83,52,123,39.35,121.08,28.16c0-.21-.34-.11-.31.09,1.72,11.69-4.34,22.61-14.57,28.18-.07,0,0,.14.06.11Z"/><path d="M122.58,33.83A20.53,20.53,0,0,1,140.15,48.5a.16.16,0,0,0,.3-.08c-1.91-8-9.56-14.52-17.87-14.72-.09,0-.08.12,0,.13Z"/><path d="M140.55,48a25.25,25.25,0,0,0-5.16-24.11c-.17-.2-.47.09-.29.29A25.66,25.66,0,0,1,140.42,48c0,.07.1.11.13,0Z"/><path d="M99.56,41.35C93.25,48.63,85.65,53.81,77,58c-.12.06,0,.28.1.23,8.72-3.46,16.48-9.66,22.5-16.77,0-.06,0-.14-.08-.09Z"/><path d="M107.13,44.7q-7.77,5.07-15.5,10.19c-.22.14,0,.49.2.35q7.69-5.19,15.35-10.45c.06,0,0-.13-.05-.09Z"/><path d="M96.69,58.23c-.89,2.7.1,6.41,2.91,7.6a.12.12,0,0,0,.12-.21c-2.36-1.78-3.77-4.34-2.79-7.32,0-.15-.19-.22-.24-.07Z"/><path d="M94.81,88.28a92.86,92.86,0,0,1,12.63,4.78c3.86,1.8,7.39,4,11.1,6.12a.12.12,0,0,0,.13-.21c-6.89-5.19-15.58-8.56-23.81-10.85a.08.08,0,0,0,0,.16Z"/><path d="M112.23,85.57a28.39,28.39,0,0,1,14,8.81c.17.19.43-.08.28-.27a25.33,25.33,0,0,0-14.24-8.71c-.11,0-.16.14,0,.17Z"/><path d="M98.86,72.92a10.33,10.33,0,0,0,6.4,5.93.1.1,0,0,0,.06-.19A11.36,11.36,0,0,1,99,72.84c0-.1-.18,0-.14.08Z"/><path d="M93.52,73.25a20.76,20.76,0,0,0,8.39,10.87.12.12,0,0,0,.12-.2,21.24,21.24,0,0,1-8.38-10.7c0-.08-.16,0-.13,0Z"/><path d="M100.8,68.23a27.33,27.33,0,0,0,12.78,12.22c.13.06.25-.13.11-.2a29.58,29.58,0,0,1-12.77-12.09.07.07,0,1,0-.12.07Z"/><path d="M131.09,106.89c4.52-2.35,3.7-8,1.26-11.64a67.81,67.81,0,0,0-6.57-7.51l-8.37-9.09C112.55,73.36,106.66,68,104.31,61c-2-6.05-.25-14.13,6.33-16.47.21-.07.12-.4-.09-.33-4.21,1.42-6.66,5.3-7.32,9.58-.88,5.69,1.8,11,5.19,15.35,4.66,6,10.26,11.44,15.43,17,2.76,3,5.92,5.87,8.21,9.24s3.42,9-1,11.36c-.06,0,0,.14.07.11Z"/><path d="M32.53,70.63c5,5.32,10,10.56,15.09,15.8.05.06.14,0,.09-.09-5-5.28-10-10.56-15.12-15.77,0,0-.1,0-.06.06Z"/><path d="M49.54,85.45a4.55,4.55,0,0,0,3.78,1.42c.07,0,.07-.11,0-.11a5,5,0,0,1-3.71-1.39s-.11,0-.07.08Z"/><path d="M52.33,89.78c4.2,1.74,8.41,3.47,12.65,5.11.08,0,.12-.1,0-.14-4.19-1.75-8.42-3.43-12.65-5.09-.08,0-.11.09,0,.12Z"/><path d="M22.22,73.86a96.39,96.39,0,0,0,35.72,32.8s.08,0,0-.07A114.42,114.42,0,0,1,38.2,92.32,117.82,117.82,0,0,1,22.28,73.83s-.09,0-.06,0Z"/><path d="M13.64,83.77a91,91,0,0,0,32.49,32.34c.06,0,.11-.06.06-.09a98,98,0,0,1-32.48-32.3s-.1,0-.07,0Z"/><path d="M8.32,92.47a84.06,84.06,0,0,0,33,32.91c.07,0,.13-.07.06-.11A92.68,92.68,0,0,1,8.42,92.42c0-.06-.13,0-.1,0Z"/><path d="M4,104.24a107,107,0,0,0,27.88,25.45c.09.05.16-.08.08-.14A118.54,118.54,0,0,1,4.1,104.19s-.1,0-.07,0Z"/><path d="M1.85,113.64A65.6,65.6,0,0,0,39.2,140.46a.06.06,0,0,0,0-.11A67.54,67.54,0,0,1,1.94,113.59c0-.06-.13,0-.09,0Z"/><path d="M28.49,109.3A44.48,44.48,0,0,0,48.6,123c.07,0,.1-.09,0-.12a45.6,45.6,0,0,1-20.08-13.62,0,0,0,1,0-.06,0Z"/><path d="M30.06,124.12a45.7,45.7,0,0,0,16.17,10.61c.09,0,.13-.1,0-.14A51.8,51.8,0,0,1,30.14,124c-.05-.06-.14,0-.08.09Z"/><path d="M42,90.72c5.54,3.83,11,7.76,16.74,11.37.06,0,.11,0,.05-.09C53.33,98,47.65,94.36,42,90.62c-.06,0-.11.06,0,.1Z"/><path d="M36.51,98.49a34.11,34.11,0,0,0,17.16,13.93c.12,0,.17-.14,0-.18A34.47,34.47,0,0,1,36.64,98.42a.07.07,0,0,0-.13.07Z"/><path d="M73.91,14.81A73.18,73.18,0,0,1,88.7,16.94c.72.23.58.17-.44-.19-.61-.09-1.22-.2-1.82-.32-1.21-.24-2.42-.52-3.61-.85-2.39-.65-4.66-1.57-7-2.45-.17-.07-.28.2-.13.28a46,46,0,0,0,14.32,3.95c.21,0,.23-.3,0-.36a47.27,47.27,0,0,0-16.18-2.39.1.1,0,0,0,0,.2Z"/><path d="M71.58,13.3a155.29,155.29,0,0,0,16.78,4.45.16.16,0,0,0,.09-.31,154.77,154.77,0,0,0-16.83-4.28.07.07,0,1,0,0,.14Z"/><path d="M73.33,12.8q7.74,2.29,15.48,4.54c.25.08.36-.32.11-.39q-7.77-2.19-15.54-4.33a.09.09,0,0,0,0,.18Z"/><path d="M36.34,32l.07-.14c.12-.23-.34-.23-.22,0l.07.14a.06.06,0,0,0,.08,0Z"/><path d="M117.2,12.1a10.48,10.48,0,0,1,6.2,1.07A9,9,0,0,1,125.65,15s2.07,2.62,1.5,2.84a.12.12,0,0,0,0,.24h.43a.21.21,0,0,0,.2-.26c-1.6-4.24-6.12-7.08-10.65-5.91-.1,0-.08.2,0,.19Z"/><path d="M135.53,30.8a12.47,12.47,0,0,1,1.82,2.57,11.72,11.72,0,0,1,.8,3c0,.21.35.16.36,0a7.46,7.46,0,0,0-2.82-5.76c-.13-.09-.25.11-.16.21Z"/><path d="M116.05,35.13a7,7,0,0,1,.54,3.1,12.58,12.58,0,0,1-.86,3,.11.11,0,0,0,.18.11c1.45-1.63,1.19-4.47.31-6.3,0-.09-.21,0-.17.07Z"/><path d="M92.13,26.3c-1.5,5.27-6,7.74-11.25,7.06-.12,0-.14.18,0,.21a9.56,9.56,0,0,0,11.51-7.21.12.12,0,0,0-.23-.06Z"/><path d="M3.37,64.08A136.67,136.67,0,0,1,40.21,33.43a.2.2,0,0,0-.21-.35A127.25,127.25,0,0,0,3.32,64s0,.08.05,0Z"/><path d="M95.27,12.88a27.37,27.37,0,0,1,7.53-1.15.13.13,0,0,0,0-.26,16,16,0,0,0-7.56,1.29.06.06,0,1,0,0,.12Z"/><path d="M65.37,80.31c10.93,6.77,22.3,13,33.5,19.31a.1.1,0,1,0,.1-.17C87.87,93,76.78,86.25,65.43,80.21a.06.06,0,1,0-.06.1Z"/><path d="M39.28,66a18.62,18.62,0,0,1,5.77,2.67.08.08,0,0,0,.09-.12,13.68,13.68,0,0,0-5.82-2.69c-.1,0-.14.12,0,.14Z"/><path d="M126.68,110.63c1.76-.61,3.59-1.14,5.3-1.89.07,0,0-.14,0-.12-1.8.48-3.55,1.2-5.3,1.82-.12,0-.07.23.05.19Z"/><path d="M130.53,107.57c5.3-.77,6.75-8.12,2.54-11.16-.17-.12-.35.14-.22.28,3.66,3.86,2.44,8.73-2.37,10.72a.08.08,0,0,0,.05.16Z"/><path d="M134.22,99.14a8.56,8.56,0,0,1,0,2.72,8.1,8.1,0,0,1-1.14,2.48.07.07,0,0,0,.11.08,5.42,5.42,0,0,0,1.19-5.3.06.06,0,0,0-.12,0Z"/><path d="M135.46,101.79a21.43,21.43,0,0,1-1.14,7.7.09.09,0,0,0,.17.05,18.8,18.8,0,0,0,1.21-7.75.12.12,0,1,0-.24,0Z"/><path d="M136,104.21a15.13,15.13,0,0,1-4.13,6.68.08.08,0,0,0,.11.11,12.7,12.7,0,0,0,4.15-6.75c0-.08-.1-.12-.13,0Z"/><path d="M134.51,109.11a8,8,0,0,1-3.66,2.44.07.07,0,0,0,0,.13,6.77,6.77,0,0,0,3.72-2.48c0-.06-.05-.16-.1-.09Z"/><path d="M134.69,109.43a16.8,16.8,0,0,1-4.7,2,.06.06,0,0,0,0,.12,11.66,11.66,0,0,0,4.72-2s0-.12-.05-.09Z"/><path d="M132.1,110.89a11.65,11.65,0,0,1-4,.26c-.11,0-.14.17,0,.19a9.3,9.3,0,0,0,4.09-.33.06.06,0,1,0,0-.12Z"/><path d="M138.24,43a162.65,162.65,0,0,1,1.12,29.51c0,.05.06.09.1.06,3.12-2.17,2.12-7.83,2.2-11,.17-6.09.36-12.18.43-18.27a0,0,0,0,0,0,0c-.19,4.81-.3,9.62-.42,14.42-.06,2.56-.12,5.13-.19,7.69,0,1,.11,7.09-1.91,6.16-.35-.16.19-6,.19-6.9,0-2.63,0-5.26-.16-7.88-.21-4.6-.61-9.2-1.27-13.75,0,0-.07,0-.06,0Z"/><path d="M141.93,41.27s0,0,0,0a0,0,0,1,0,0,0Z"/><path d="M107.19,56.13H107s-.05.07,0,.07h.18s0-.07,0-.07Z"/><path d="M107,56.53a113.47,113.47,0,0,0,2.58,18.91c0,.09.15,0,.13,0a45.72,45.72,0,0,1,.34-16.12c.24-1.18.54-2.34.86-3.51.17-.65.7-1.7.47-2.43a1.23,1.23,0,0,0-1.1-1s0,0,0,0c1.79.4-.74,9-.91,10.45a46.24,46.24,0,0,0-.12,9.91c.08.81.44,2.94,0,.81-.36-1.88-.75-3.74-1-5.63-.55-3.78-.86-7.58-1.16-11.39,0-.05-.09-.05-.08,0Z"/><path d="M138.93,44.4c.13-.16.3-.53.49-.63s.41.23.53.36a.07.07,0,0,0,.09,0,15.68,15.68,0,0,0,1.22-1.08s0-.13-.06-.09c-.27.2-.52.43-.78.65s-.25.31-.42.31-.35-.25-.47-.37a.05.05,0,0,0-.08,0c-.19.27-.37.55-.55.82,0,0,0,0,0,0Z"/></svg>