<svg id="illustration" xmlns="http://www.w3.org/2000/svg" viewBox="0 0 198.43 139.99"><defs><style>.cls-1{fill:#decd86;}.cls-2{fill:#7c764c;}.cls-3{fill:#231f20;}.cls-4{fill:#fff;}.cls-5{fill:#ee2c24;}.cls-6{fill:#f47721;}.cls-7{fill:#fee829;}.cls-8{fill:#6cbe45;}.cls-9{fill:#64cbe6;}.cls-10{fill:#496ab3;}.cls-11{fill:#b5519f;}.cls-12{fill:#4f83c3;}.cls-13{fill:#5f6469;}.cls-14{fill:#010101;}</style></defs><path class="cls-1" d="M78.37,29.88s3.82-2,6.54-2,29.9-1.31,35.9-.52,7.62,2.95,8.94,13l.67,13.7.18,6.65s.26,9.08-7.45,9.87l-5.09.25a7.82,7.82,0,0,1-5.6,3.87c-4.16.78-5.09.54-5.09.54S105.72,88,106.15,92.63s1.72,13,3.1,16.48,5.35,12.09,11.14,15.06,9.22,1.91,10.37,6.21v1.75s-12.64,4.69-25.73,4.69A149.74,149.74,0,0,1,80,134.51s-.41-3.74,1.69-4.9,10.18-3.49,14.83-10.15a36.67,36.67,0,0,0,7-24.47,84.9,84.9,0,0,0-3.63-19.07l-5.26-.48a8.38,8.38,0,0,1-5.84-3.14l-3.46.25s-5.91.13-7.4-5.3-3.4-29.18-3.4-29.18A9,9,0,0,1,78.37,29.88Z"/><path class="cls-2" d="M120.81,27.38A3.06,3.06,0,0,1,123.9,24c3.42-.28,3.52,3.74,2.65,4.7s-1.52-.35-1.52-.35l-2-.56-1.32-.13Z"/><path class="cls-3" d="M100.62,42.39S95,42.44,95,48.66a6.09,6.09,0,0,0,6,5.5C101.78,54.22,100.62,42.39,100.62,42.39Z"/><path class="cls-4" d="M100.62,42.39s5.73-.56,6.48,5.38c.62,5.07-6.08,6.39-6.08,6.39Z"/><path class="cls-5" d="M76.83,47.27s.25,16.87,3.73,20.42a6.87,6.87,0,0,0,7.22,2.06s-1-17.85-2-20.28C85.75,49.47,78.18,48.29,76.83,47.27Z"/><path class="cls-6" d="M85.75,49.47s5.77.38,7.35.57l.49,19.44-5.81.27S86.6,51.32,85.75,49.47Z"/><path class="cls-7" d="M93.1,50,95,49.78a6.37,6.37,0,0,0,6,4.38l.26.41.32,15.24-8-.33Z"/><path class="cls-8" d="M101,54.16s5.41-.39,6-4.76l2.57-.07s.46,19.42.29,20l-8.3.5Z"/><path class="cls-9" d="M109.61,49.33s6.25-.5,7.07-.74c0,0-.11,19.8-.52,20.54l-6.26.18Z"/><path class="cls-10" d="M116.68,48.59l6.55-1.45c.49.92-.33,21.21-.33,21.21l-6.74.78S117,49.77,116.68,48.59Z"/><path class="cls-11" d="M123.23,47.14,128,45.53l.43,14.65s.11,4.68-3,7.07l-2.53.84A125.37,125.37,0,0,0,123.23,47.14Z"/><path class="cls-12" d="M98.77,71.72a47.74,47.74,0,0,0,7.93-.09.25.25,0,0,0,0-.5,48.29,48.29,0,0,0-8,.19c-.25,0-.16.38,0,.4Z"/><path class="cls-12" d="M106.4,71.1a2.69,2.69,0,0,0,.07,1.26.28.28,0,0,0,.55-.07,2.72,2.72,0,0,0-.19-1.24.24.24,0,0,0-.43,0Z"/><path class="cls-12" d="M106.68,72.23a25.17,25.17,0,0,0-7.88.39c-.17,0-.13.3,0,.3a42.7,42.7,0,0,0,7.84-.32c.18,0,.19-.34,0-.37Z"/><path class="cls-12" d="M99.07,72.84c.4-.19.3-.87.07-1.17a.22.22,0,0,0-.4.11c0,.24,0,.48,0,.71a.5.5,0,0,0,.12.33.15.15,0,0,0,.17,0Z"/><path class="cls-12" d="M99.14,72.23c2.16.62,5,.1,7.24,0a.31.31,0,0,0,0-.61c-1.3,0-2.59,0-3.89.05a11.37,11.37,0,0,0-3.35.34.13.13,0,0,0,0,.24Z"/><path class="cls-12" d="M99.3,71.82a.61.61,0,0,0,.29,1,.32.32,0,0,0,.37,0l.05,0a.23.23,0,0,0,0-.27,2.09,2.09,0,0,0-.22-.2,1.19,1.19,0,0,1-.2-.35.21.21,0,0,0-.33,0Z"/><path class="cls-12" d="M106.09,71.16l.19.06c.1,0,.17-.13.07-.17l-.17-.09a.11.11,0,1,0-.09.2Z"/><path class="cls-12" d="M106.74,72l0,0c-.48.32.39.73.38.22v-.07a.23.23,0,0,0-.33-.19Z"/><path class="cls-12" d="M98.86,72.77l-.08.1c-.14.17.13.36.23.18l.06-.12c.07-.12-.11-.28-.21-.16Z"/><path class="cls-13" d="M76.25,59.91a6.72,6.72,0,0,0-2.92,7c.59,2.26,2.93,4,5.22,3a.39.39,0,0,0-.21-.74,3.59,3.59,0,0,1-4.23-3.69c0-2.12,1.44-3.36,2.67-4.88a.44.44,0,0,0-.53-.69Z"/><path class="cls-13" d="M83.55,28.28a2.46,2.46,0,0,0,.1-1.61.39.39,0,0,0-.75,0,1.65,1.65,0,0,0,.38,1.68.19.19,0,0,0,.27-.07Z"/><path class="cls-13" d="M83.16,26.82A3.87,3.87,0,0,0,85.67,26c.66-.4,1.7-1,1.88-1.82a.16.16,0,0,0-.19-.2c-.71.28-1.22,1-1.89,1.41s-1.69.56-2.36,1a.19.19,0,0,0,0,.35Z"/><path class="cls-13" d="M81.11,28.54a3.52,3.52,0,0,0,.3-1.84c-.07-.89-1.44-.91-1.4,0a3.49,3.49,0,0,0,.48,1.84.36.36,0,0,0,.62,0Z"/><path class="cls-13" d="M80.26,25.83c-3.18-.52-6.33-.78-8.19-3.9-2.58-4.32,2.1-8.17,5.92-9a19.22,19.22,0,0,1,5.13-.43,4.78,4.78,0,0,1,5,4.14c.91,4-.86,7.2-4.44,9.09-.84.45-.09,1.74.75,1.28,4.68-2.51,6.44-6.45,5.09-11.6-1.42-5.41-8-5-12.34-3.78S68.4,17,70.41,21.87c1.39,3.36,6.4,6.67,9.94,4.64.26-.15.24-.63-.09-.68Z"/><polygon class="cls-5" points="76.83 47.27 76.83 41.98 77.11 37.67 77.66 34.74 78.77 32.7 80.11 31.7 81.9 31.39 83.55 31.39 84.36 36.26 85.05 40.64 86.05 50.14 76.92 49.78 76.83 47.27"/><polygon class="cls-6" points="85.97 49.47 83.55 31.39 86.46 31.33 92.3 30.81 92.95 50.45 86.05 50.14 85.97 49.47"/><polygon class="cls-7" points="93.13 51.43 92.3 30.81 101.22 30.46 101.59 63.34 93.38 62.87 93.13 51.43"/><polygon class="cls-8" points="101.22 30.46 101.5 55.01 109.87 51.43 109.39 30.46 101.22 30.46"/><polygon class="cls-9" points="109.39 30.46 109.83 49.78 116.78 49.62 116.78 37.78 116.68 30.63 109.39 30.46"/><polygon class="cls-10" points="116.68 30.63 116.78 49.62 123.35 48.27 123.15 31.08 121.62 30.78 119.09 30.63 116.68 30.63"/><polygon class="cls-11" points="124.95 31.97 126.25 33.34 127.01 34.74 127.81 37.2 128.07 39.95 128.07 46.36 123.36 47.66 123.15 31.08 124.95 31.97"/><path class="cls-14" d="M121.76,27.46a175.58,175.58,0,0,0-25-.33c-4.24.21-8.49.52-12.7,1a13.13,13.13,0,0,0-7,2.47,7.84,7.84,0,0,0-2.74,5.88c-.23,3.81.57,7.81,1,11.59l1.29,12.44c.28,2.67.42,5.53,1.56,8,3.25,7.13,11.35,2.44,17.09,3.93a.16.16,0,0,0,.08-.3c-3.27-.89-6.45.12-9.75.22-5.09.15-7.42-3.35-8.15-8-.65-4.13-.91-8.36-1.35-12.52-.45-4.35-1-8.7-1.36-13-.35-4.91,1.59-8.6,6.49-9.94,4.14-1.14,8.84-1.14,13.11-1.4,9.17-.54,18.3-.27,27.47,0,.07,0,.07-.1,0-.1Z"/><path class="cls-14" d="M88.66,72.33c2.85,4.46,9.48,3.51,14,3.25a.11.11,0,0,0,0-.22c-4.65,0-10.69,1.27-13.86-3.09,0-.07-.16,0-.11.06Z"/><path class="cls-14" d="M104.38,75.53c4.34-.18,11.54,0,13.8-4.6.07-.15-.16-.29-.24-.14-2.32,4.68-9.21,3.85-13.56,4.68,0,0,0,.06,0,.06Z"/><path class="cls-14" d="M114.61,71.38c4.48-.61,10.72.64,13.79-3.61,2.66-3.71,2.62-10.32,2-14.6,0-.12-.21-.13-.2,0,.21,4.52.81,11.36-2.51,15s-8.91,2.14-13.16,3.06c-.09,0,0,.14,0,.13Z"/><path class="cls-14" d="M130.69,51.93c-.15-3.16-.41-6.32-.63-9.48a52.21,52.21,0,0,0-.89-8.56c-.82-3.38-3.62-7.2-7.57-6.27-.09,0-.07.17,0,.16,6.26-.37,7.46,6,7.85,10.87.35,4.43.59,8.86,1,13.28,0,.12.2.13.19,0Z"/><path class="cls-14" d="M120.93,27.38a3,3,0,1,1,5,1.9.12.12,0,0,0,.17.17,3.23,3.23,0,1,0-5.44-2.07.12.12,0,0,0,.24,0Z"/><path class="cls-14" d="M125.9,25.7c5-6.08,9.74-12.5,14.29-18.92.06-.1-.1-.23-.17-.13-4.9,6.15-9.74,12.51-14.19,19,0,0,0,.09.07.05Z"/><path class="cls-14" d="M122.27,25a111,111,0,0,1-10-18.3c-.1-.25-.51-.15-.41.11A69.74,69.74,0,0,0,122.12,25.1c.07.08.21,0,.15-.12Z"/><path class="cls-14" d="M110.91,6.92c.64-.23,1.29-.44,1.93-.68.12,0,.07-.25-.06-.2-.64.22-1.28.48-1.92.72-.1,0-.06.2,0,.16Z"/><path class="cls-14" d="M139.06,6.38a11.38,11.38,0,0,0,1.41,1.45c.1.07.26-.08.18-.18a11.38,11.38,0,0,0-1.45-1.41.1.1,0,0,0-.14.14Z"/><path class="cls-14" d="M81,28.77c0-.44,0-.88,0-1.32a4.05,4.05,0,0,0-.13-1.16c0-.09-.17-.11-.19,0a8.3,8.3,0,0,0,.14,2.48c0,.15.24.16.23,0Z"/><path class="cls-14" d="M80.15,26.15a7.07,7.07,0,0,1-9.25-5.56c-.64-4.43,2.83-7.54,6.82-8.54s9.93-.76,11.12,4c1,4.11-.91,9.29-5.37,10.18-.23.05-.13.39.1.35,4.62-.88,6.5-6,5.71-10.25C88.29,11,82,10.66,77.62,11.7c-4.16,1-7.78,4.41-7.1,9a7.19,7.19,0,0,0,9.67,5.6.06.06,0,1,0,0-.12Z"/><path class="cls-14" d="M83.22,26.49a13.2,13.2,0,0,0,0,1.41c0,.19.3.19.31,0a13.19,13.19,0,0,0,0-1.41.11.11,0,0,0-.22,0Z"/><path class="cls-14" d="M78.34,69.54c-3,.82-5.15-1.89-4.7-4.78.33-2.08,1.75-3.55,3.3-4.86.06,0,0-.14-.09-.09-2.13,1.65-4.07,4.23-3.44,7.09a3.74,3.74,0,0,0,5,2.84c.12,0,.08-.24-.06-.2Z"/><path class="cls-14" d="M99.74,75.94c3.5,12.72,6,26.4-.4,38.68a27.72,27.72,0,0,1-11.15,11.75c-2.94,1.58-9.58,2.63-8.33,7.4a.18.18,0,0,0,.34-.09c-1.11-4.31,4.76-5.27,7.54-6.66a24.84,24.84,0,0,0,5.59-3.88,31.26,31.26,0,0,0,7.88-11.69c4.43-11.27,2.53-24.4-1.33-35.55a.07.07,0,1,0-.14,0Z"/><path class="cls-14" d="M107.37,75.28s0,0,0,0,0,0,0,0Z"/><path class="cls-14" d="M107.43,75.27V75.1c0-.07-.09-.07-.1,0v.17c0,.08.11.08.11,0Z"/><path class="cls-14" d="M107.57,74.88a62.75,62.75,0,0,0,1.61,34.49,29.44,29.44,0,0,0,7.72,12.48,19,19,0,0,0,5.59,3.55c3,1.19,8.61,1.29,8.13,5.87,0,0,.08.06.09,0,.83-4.25-4.54-5-7.37-6-5.76-2-9.94-7-12.42-12.38-5.36-11.76-5.76-25.53-3.16-38,0-.12-.16-.18-.19-.05Z"/><path class="cls-14" d="M79.54,134.49c16.59,4.45,35.19,3.17,51.38-2.24.15-.05.09-.29-.06-.24a98.61,98.61,0,0,1-25.48,4.64,111.24,111.24,0,0,1-25.8-2.29c-.09,0-.12.11,0,.13Z"/><path class="cls-14" d="M96.85,127.9a17.32,17.32,0,0,0,11.94.07,0,0,0,0,0,0-.08,19.8,19.8,0,0,1-11.9,0s-.05,0,0,.06Z"/><path class="cls-14" d="M93.66,134.46a2.43,2.43,0,0,0,2.16.19s0-.09,0-.09a4,4,0,0,1-2.07-.22c-.08,0-.16.08-.07.12Z"/><path class="cls-14" d="M80.87,132.3A136.82,136.82,0,0,0,128.43,130a.06.06,0,0,0,0-.11,160.28,160.28,0,0,1-47.53,2.3s0,.07,0,.08Z"/><path class="cls-14" d="M82.51,130.61c6.62-1.64,15.07-5.78,17.83-12.47,0-.07-.09-.12-.12,0-3.31,6.78-10.89,10.27-17.74,12.38a.07.07,0,0,0,0,.14Z"/><path class="cls-14" d="M100.84,116.44a.39.39,0,0,0-.19.21c0,.07,0,.18.11.12a.36.36,0,0,0,.2-.22.08.08,0,0,0-.12-.11Z"/><path class="cls-14" d="M101.41,115.42a.15.15,0,0,0,0-.29.15.15,0,0,0,0,.29Z"/><path class="cls-14" d="M101.76,114a.17.17,0,0,0,0-.33.17.17,0,0,0,0,.33Z"/><path class="cls-14" d="M102.46,86.27a19.15,19.15,0,0,0,3.71-.18c.1,0,.06-.15,0-.16a19.8,19.8,0,0,0-3.69.16c-.11,0-.12.18,0,.18Z"/><path class="cls-14" d="M105.58,77a9.4,9.4,0,0,0-1.43,5.11.07.07,0,0,0,.13,0,12.25,12.25,0,0,1,1.37-5.07,0,0,0,1,0-.07,0Z"/><path class="cls-14" d="M109.55,114.05c.09,4.31,3.77,9,7.44,10.94.15.08.26-.13.13-.23a20.6,20.6,0,0,1-4.86-4.91,30.46,30.46,0,0,1-2.47-5.83c-.05-.13-.25-.12-.24,0Z"/><path class="cls-14" d="M98.25,71.22c2.8,0,5.62-.15,8.42-.24a.11.11,0,0,0,0-.22c-2.8.09-5.62.11-8.42.3a.08.08,0,1,0,0,.16Z"/><path class="cls-14" d="M98.51,70.89c0,.64.07,1.29.13,1.93,0,.11.18.11.17,0,0-.65-.1-1.29-.18-1.93a.06.06,0,1,0-.12,0Z"/><path class="cls-14" d="M98.77,73.16c2.86,0,5.75-.24,8.6-.46.16,0,.17-.27,0-.26-2.86.14-5.77.24-8.61.63-.06,0,0,.09,0,.09Z"/><path class="cls-14" d="M106.76,70.89c0,.58.06,1.17.12,1.75,0,.18.3.19.29,0-.06-.6-.13-1.19-.24-1.78,0-.09-.17-.07-.17,0Z"/><path class="cls-14" d="M78.38,33.07c-1.22,2-1.39,4.11-1.53,6.36a81.59,81.59,0,0,0,.07,10.49c.21,3.29.5,6.58.86,9.85a17.6,17.6,0,0,0,1.63,6.54c2.49,4.65,7,3.48,11.49,3.52,6.79,0,13.54.16,20.33-.23,3.17-.19,6.35-.38,9.5-.76,2-.24,4-.63,5.45-2.07,3.5-3.49,2.16-10,2.09-14.41q-.09-4.72-.13-9.47c0-2.72.09-5.63-1-8.19-1.78-4.15-5.58-4.1-9.53-4.18-7.65-.15-15.26-.32-22.91,0-3.71.17-7.43.78-11.14.73-2.2,0-3.74-.09-5.2,1.73-.11.13.09.33.2.19,1.77-2.22,4.33-1.56,6.81-1.68,2.79-.14,5.56-.53,8.35-.67,5.32-.26,10.65-.42,16-.31,2.48,0,5,.16,7.46.22,2.33.05,5.09-.26,7.21.95,4.85,2.8,3.52,11.23,3.58,15.91,0,2.52.08,5,.13,7.57s.4,5.44-.26,8c-1.63,6.33-9.4,5.68-14.62,6s-10.74.52-16.11.48c-2.53,0-5-.15-7.58-.12s-5.22.68-7.49-.73c-2.91-1.81-3.58-5.56-3.93-8.69-.34-2.92-.6-5.87-.81-8.8s-.34-5.73-.29-8.59c0-3.17,0-6.79,1.56-9.61C78.58,33.06,78.43,33,78.38,33.07Z"/><path class="cls-14" d="M83.52,31.43c.66,6.33,1.76,12.64,2.47,19s1.3,12.7,1.73,19.07a.07.07,0,1,0,.13,0c.06-6.42-1-13-1.72-19.38-.69-6.1-.92-12.74-2.55-18.68,0,0-.07,0-.06,0Z"/><path class="cls-14" d="M92.26,30.81c.07,13.12.81,26.26,1.23,39.38,0,.13.21.13.2,0-.43-13.12-.55-26.28-1.34-39.38a0,0,0,0,0-.09,0Z"/><path class="cls-14" d="M101.16,30.46c-.14,12.94.21,25.91.34,38.85a.1.1,0,0,0,.19,0c-.12-13,0-25.91-.42-38.85a.06.06,0,0,0-.11,0Z"/><path class="cls-14" d="M109.31,34.11c.52,10.61.36,21.25.43,31.86a.09.09,0,0,0,.17,0c.32-5.28,0-10.65,0-15.93s-.1-10.63-.42-15.93c0-.11-.17-.11-.16,0Z"/><path class="cls-14" d="M116.61,31.43c.18,12.46.38,25.09-.55,37.53,0,.13.2.13.21,0,.46-6.24.47-12.52.55-18.76s.29-12.54-.07-18.77a.07.07,0,0,0-.14,0Z"/><path class="cls-14" d="M123,33.34c.11,5.8.27,11.58.26,17.38,0,3.29,0,6.57-.11,9.86-.06,2.47-.41,5-.27,7.51,0,.08.13.11.14,0a37.5,37.5,0,0,0,.36-7c.07-3.37.08-6.74.08-10.11,0-5.87.16-11.84-.32-17.71,0-.08-.14-.09-.14,0Z"/><path class="cls-14" d="M120.86,34.76q4-.4,3.68,2.68c0,.63.09,1.26.14,1.89l.21,2.83c.17,2.2.29,4.41.51,6.61,0,.1.16.1.16,0-.12-2.68-.37-5.35-.57-8-.14-1.73.05-4-.69-5.6s-2.75-2.25-3.52-.41c0,0,.06.08.08,0Z"/><path class="cls-14" d="M78.49,44.57a106.33,106.33,0,0,0,.91,17.29c.5,3.19,2.48,5.48,5.85,5.5a.12.12,0,0,0,0-.24c-6,0-5.85-6.33-6.16-10.69-.28-4-.38-7.91-.49-11.86a.06.06,0,0,0-.11,0Z"/><path class="cls-14" d="M78.34,38.07a7.32,7.32,0,0,1,2.6-4.68c.06,0,0-.16-.09-.11a6.88,6.88,0,0,0-2.71,4.79c0,.12.18.12.2,0Z"/><path class="cls-14" d="M119.16,66.83A6.84,6.84,0,0,0,126,57.09c0-.08-.18,0-.14.06,1.79,4.86-1.38,9.75-6.7,9.57a.06.06,0,1,0,0,.11Z"/><path class="cls-14" d="M121.69,26.38a3,3,0,0,1,2.82-1.27c.26,0,.38-.36.11-.4a3,3,0,0,0-3.13,1.55.12.12,0,0,0,.2.12Z"/><path class="cls-14" d="M84.91,29.4c4.2-.11,8.46-.23,12.64-.63a.06.06,0,1,0,0-.12c-4.2,0-8.45.26-12.64.54-.13,0-.13.21,0,.21Z"/><path class="cls-14" d="M79.92,69A8.55,8.55,0,0,0,87,70.74c.07,0,.06-.15,0-.14a9.72,9.72,0,0,1-7-1.67c-.07-.05-.15.06-.09.11Z"/><path class="cls-14" d="M104.43,88.08c0,2.16.11,4.35.3,6.5,0,.06.1.07.1,0,0-2.16-.12-4.34-.26-6.5,0-.08-.14-.08-.14,0Z"/><path class="cls-14" d="M109.82,73.56a7.35,7.35,0,0,0,5.31-1.2.07.07,0,0,0-.07-.12,10.58,10.58,0,0,1-5.23,1.22.05.05,0,0,0,0,.1Z"/><path class="cls-14" d="M117,71.37a5.85,5.85,0,0,0-2.32,2.46.05.05,0,0,0,.09.06,8.8,8.8,0,0,1,2.29-2.42s0-.13-.06-.1Z"/><path class="cls-14" d="M115.41,71.37c-1,.86-2,1.71-3,2.62-.08.06,0,.16.1.1,1-.84,2-1.75,3-2.65,0,0,0-.11-.07-.07Z"/><path class="cls-14" d="M112.57,72.22c-.94.86-2,1.68-2.81,2.63a.06.06,0,1,0,.09.09c1-.79,1.88-1.76,2.8-2.64.06,0,0-.14-.08-.08Z"/><path class="cls-14" d="M109.6,72.24c-.77.8-1.58,1.58-2.31,2.42a.09.09,0,0,0,.13.13c.79-.79,1.51-1.65,2.26-2.48a.05.05,0,0,0-.08-.07Z"/><path class="cls-14" d="M107.2,72.63c-.66.75-1.38,1.47-2,2.27,0,.06,0,.13.1.08.7-.7,1.3-1.51,2-2.27,0,0,0-.13-.08-.08Z"/><path class="cls-14" d="M104.88,72.6a28,28,0,0,0-2.46,2.65s0,.09.08.06A29,29,0,0,0,105,72.68c0-.05,0-.13-.07-.08Z"/><path class="cls-14" d="M102.23,73.29a22,22,0,0,0-2.1,2.11c-.06.07,0,.15.1.1a20.91,20.91,0,0,0,2.1-2.11c.07-.06,0-.16-.1-.1Z"/><path class="cls-14" d="M98.7,72.94c-.54.7-1.1,1.38-1.62,2.09-.06.08.08.18.14.1.55-.69,1.06-1.42,1.59-2.12,0-.07-.06-.13-.11-.07Z"/><path class="cls-14" d="M96.25,73.28a25.36,25.36,0,0,0-1.76,2.12c0,.07.05.13.11.08a23.8,23.8,0,0,0,1.77-2.09c.07-.08-.05-.19-.12-.11Z"/><path class="cls-14" d="M93.8,73.48c-.29.41-.62.8-.87,1.24,0,0,0,.12.1.07.33-.38.6-.82.9-1.23,0-.08-.08-.16-.13-.08Z"/><path class="cls-14" d="M92.76,72.94c-.47.52-1,1-1.41,1.6,0,.06.05.13.1.08.51-.48,1-1.05,1.41-1.58.06-.07,0-.16-.1-.1Z"/><path class="cls-14" d="M91.38,73l-.17.18s0,.06,0,0l.18-.17s0-.07-.05,0Z"/><path class="cls-4" d="M112.52,34.32c2,.42,4.07.25,6.07.65,2.94.59,4.2,2.36,4.7,5.17a52.75,52.75,0,0,1,.74,7.21c.08,2.1-.19,4.26.34,6.3a.51.51,0,0,0,1,0c1-2.64.5-5.92.27-8.67-.2-2.5-.31-5.4-1.28-7.74-1.92-4.66-7.47-4.15-11.62-4.37a.74.74,0,0,0-.2,1.45Z"/><path class="cls-4" d="M78.9,56.78c-.38,7,6.56,12.51,13.26,10.1a.51.51,0,0,0,0-1c-2.8-.68-5.7.14-8.33-1.44-2.93-1.77-3-5.11-4.44-7.83a.27.27,0,0,0-.49.14Z"/><path class="cls-4" d="M94.26,39.14a23.47,23.47,0,0,0-.33,9.66c.47,3,1.22,6.7,3.17,9.12.32.4.93,0,.82-.47-.75-2.92-2.21-5.52-2.73-8.55a44.69,44.69,0,0,1-.31-9.67.32.32,0,0,0-.62-.09Z"/><path class="cls-4" d="M100.32,28.81a34.48,34.48,0,0,0,9.3.09.33.33,0,0,0,0-.66,34.47,34.47,0,0,0-9.3.34.12.12,0,0,0,0,.23Z"/><path class="cls-4" d="M123.28,25.15a2.81,2.81,0,0,1,1.63.89,2,2,0,0,1,.43.78c.08.31.06.54.36.72a.33.33,0,0,0,.4-.05c.63-.5-.21-1.72-.62-2.12a2.29,2.29,0,0,0-2.2-.63c-.19.05-.22.37,0,.41Z"/><path class="cls-4" d="M89.49,130.34c2.15.9,4.76.86,7.07,1a74.07,74.07,0,0,0,8.43-.07c5.06-.31,10.67-.71,15.41-2.59.45-.18.45-1-.12-.93-5.28.43-10.44,1.73-15.75,2q-3.75.23-7.5.19c-2.47,0-5.11-.47-7.54,0-.23,0-.17.33,0,.4Z"/><path class="cls-4" d="M101.91,135a11.12,11.12,0,0,0,8.85.11c.32-.15.09-.63-.23-.55a15.42,15.42,0,0,1-8.52.07c-.24-.08-.32.28-.1.37Z"/><path class="cls-4" d="M104.87,101.61a27.71,27.71,0,0,0,1.33,12.45c.08.21.47.21.44-.06-.2-2.07-.75-4.08-1-6.15s-.21-4.16-.41-6.24a.19.19,0,0,0-.37,0Z"/><path class="cls-4" d="M112,117.66c1,2.51,3.41,5.64,6,6.6.21.08.37-.22.22-.37-1-1-2.24-1.68-3.23-2.7a24.2,24.2,0,0,1-2.72-3.65c-.09-.14-.35-.06-.29.12Z"/><path class="cls-4" d="M100,115.41c-.81,1.21-1.58,2.46-2.49,3.61-.74.94-1.65,1.77-2.33,2.76a.2.2,0,0,0,.27.27,16.2,16.2,0,0,0,4.78-6.51.13.13,0,0,0-.23-.13Z"/></svg>