<svg id="illustration" xmlns="http://www.w3.org/2000/svg" viewBox="0 0 198.43 154.29"><defs><style>.cls-1{fill:#677d74;}.cls-2{fill:#405569;}.cls-3{fill:#ef3f5d;}.cls-4{fill:#fefbdf;}.cls-5{fill:#ee9c4f;}.cls-6{fill:#dfdb9b;}.cls-7{fill:#dec050;}.cls-8{fill:#fff;}.cls-9{fill:#fbee2d;}.cls-10{fill:#44564f;}.cls-11{fill:#010101;}</style></defs><path class="cls-1" d="M103.38,59s-16.11.49-21.14,20.31c-.11.86,6.44-.91,6.44-.91l7.6-1.55,5.24-.64,6.68-.41,4,0,5.09.22,4.72.44,4,.55,2.62.69-.76-4.27-2.41-5.22-6.05-5.07-5.73-2.86-6.32-1.59Z"/><path class="cls-1" d="M74.21,83.14l22.46-9,22.21-.42,16.52,5.78s-1.18,31.44-4.35,38.65C126,124.16,94,129,81,121.44,78.2,114.13,74.21,83.14,74.21,83.14Z"/><path class="cls-1" d="M83.43,125.4s-3.08,3.39.61,7.91,9.69,3.14,9.69,3.14A16.62,16.62,0,0,0,99.08,133l-5.92-2-4.48-2.19-3.61-2.46Z"/><path class="cls-1" d="M115.05,131.49a15,15,0,0,0,9.77,3.21c5.5-.41,6.23-8.32,6.23-8.32l-1-2.59-1-1.17-4.17,3.54-3.6,2.52-3.67,1.48Z"/><path class="cls-2" d="M74.21,85.17S67,82.56,63.84,87s4.36,8.57,1.59,16.19-14.76,2.27-14.76,2.27l-1.13,4.44a14.58,14.58,0,0,0,14.76,0c8.25-4.46,5.41-9,5.08-11.49s-1.89-8,1.14-8.72a3.09,3.09,0,0,1,3.9,1.81Z"/><path class="cls-2" d="M135.22,83.48v7.8s4.2-5.58,7.73-4.68c7.94,3.64-1.56,13.09,8.83,18.59,8.27,6.3,17.53-7.35,17.53-7.35s2-8.49.6-12.67l-3.23-.25s2.47,12.11-5.75,15.76-10.56-2.29-11.32-4.16S152.26,83.3,148,81.06s-8.53.24-8.53.24Z"/><path class="cls-2" d="M83.07,131.89s-4.48,3.19-4.79,7.06a10.18,10.18,0,0,0,2,6.7l2,.87.3-.87s-1.12-3.63,0-5.56a24,24,0,0,1,4.2-4.52l-2.08-1.48Z"/><path class="cls-2" d="M127.37,133.82s3.07.53,3.59,2.89.19,7.84-.94,8.77l3-.9s2.71-4.43,2-7.17-1.18-5.19-5.09-5.51l-.61-.11L128.06,133Z"/><polygon class="cls-3" points="49.09 103.62 49.61 102.29 49.3 100.69 48.28 99.55 47.18 99.27 45.86 99.55 44.82 100.73 43.78 99.49 41.9 98.81 40.31 98.95 38.65 99.94 37.98 100.73 37.44 101.81 37.12 103.47 37.27 104.66 38.13 106.52 39.24 107.71 41.14 108.36 43.05 109.1 44.82 108.96 47.02 108.31 47.85 105.8 48.16 103.62 49.09 103.62"/><path class="cls-3" d="M166.42,83.13c-.44,0-3.3-.06-3.54-1.93s1.77-2.27,1.77-2.27-1-4.49,1.47-6.13,4.28-1,5.29.34,3.1,3.39,0,8.29l-1,1.48-.74.57-.34-.57Z"/><path class="cls-3" d="M82.33,146.52a14.14,14.14,0,0,0-5.21-.87c-2.48.18-4.76,2.48-5,3.38a8,8,0,0,0-.15,2l10.63-.76Z"/><path class="cls-3" d="M129.65,145.91v4.72l10.24-1a5.94,5.94,0,0,0-1.26-4.12c-1.49-1.65-5.62-.9-5.62-.9Z"/><path class="cls-3" d="M126.18,51.78a1.81,1.81,0,0,1,2.42-.29c1.2,1,1.11,2.08.36,2.64s-2.5,1.13-3,.39A3.32,3.32,0,0,1,126.18,51.78Z"/><path class="cls-3" d="M78.7,56.4A1.6,1.6,0,0,1,81,55.85c1.67.73.48,2.42.48,2.42a2.12,2.12,0,0,1-3.09-.18A1.56,1.56,0,0,1,78.7,56.4Z"/><polygon class="cls-2" points="88.68 123.39 82.56 95.82 101.79 94.7 125.98 94.28 125.18 121.44 114.67 124.32 108.8 124.89 100.23 125.4 96 125.05 89.99 124.12 88.68 123.39"/><path class="cls-4" d="M92.32,104.3l22.22-.68.72,13.76s-.48.12-.72.16-11.16-.16-11.16-.16l-9.42.73Z"/><polygon class="cls-5" points="102.81 115.44 106.37 113.49 107.55 111.9 107.93 110.16 107.33 108.45 106.37 107.64 105.22 107.56 103.85 107.95 103.15 109.13 102.81 108.1 101.58 107.41 99.97 107.82 98.92 108.64 98.47 110.19 98.86 111.9 99.71 113.17 100.82 114.13 102.09 114.91 102.81 115.44"/><path class="cls-6" d="M81,121.44a69.74,69.74,0,0,0,21.85,3.85c11.73,0,28.24-5.84,28.24-5.84s-7.86,10.44-18.31,12.82-15.57.37-19.59-1.24S81.93,124.66,81,121.44Z"/><polygon class="cls-7" points="100.22 71.17 110.39 70.74 110.73 72.37 100.22 74.1 100.22 71.17"/><polygon class="cls-7" points="93.25 63.92 94.98 63.92 96.14 64.97 96.67 66.4 96.92 68.2 96.28 69.56 94.45 70.74 92.66 70.82 91.21 70.47 90.05 69.44 89.54 68.2 89.54 66.83 90.78 65.9 91.43 64.72 92.36 63.92 93.25 63.92"/><polygon class="cls-7" points="117.31 63.48 118.14 63.66 119.38 64.14 120.3 65.74 120.14 67.37 119.14 68.79 117.8 69.33 116.11 69.12 115.3 68.2 114.48 67.37 114.27 65.91 114.83 64.72 116.19 63.92 117.31 63.48"/><path class="cls-7" d="M114.27,65.91l6.31-62.86S143.93,8.13,155,13.88L120.14,67.37Z"/><path class="cls-7" d="M90.05,69.44,37.12,16.23C43.37,11.86,64.78,5.61,64.78,5.61L96.67,66.4Z"/><path class="cls-6" d="M83.74,83.88c-3.42-.38-4.1,4.7-2.77,6.89a5,5,0,0,0,3.53,2.35c1.24.19,3.55,0,3.85-1.49a.6.6,0,0,0-.41-.72c-.87-.18-1.41.34-2.27.45a3.25,3.25,0,0,1-3.19-1.46c-1.47-2.31.33-3.78,1.54-5.53a.33.33,0,0,0-.28-.49Z"/><path class="cls-6" d="M124.46,81.73c-1-.75-2.39.09-3.18.84a5.1,5.1,0,0,0,.72,7.9c1.12.73,2.9,1.27,4.08.45a.71.71,0,0,0-.17-1.28,18.13,18.13,0,0,1-2.51-.46,3.31,3.31,0,0,1-2-3A3.41,3.41,0,0,1,123,83.33c.57-.4,1.17-.56,1.56-1.16a.33.33,0,0,0-.12-.44Z"/><path class="cls-6" d="M92,88.07c1.58.6,3.18.3,4.85.16,2.07-.18,4.14-.4,6.21-.62,3.52-.38,7.81-.13,11.12-1.37.37-.14.48-.78,0-.87-3.63-.65-7.92.42-11.6.69-1.91.15-3.82.3-5.73.49-1.7.17-3.44.16-4.91,1.06a.25.25,0,0,0,.06.46Z"/><path class="cls-8" d="M89,80.81c5.16-.78,10.22-1.82,15.46-2a121.31,121.31,0,0,1,14.76.64.71.71,0,0,0,.19-1.39A58.12,58.12,0,0,0,104,77.5a51.84,51.84,0,0,0-15,3.08.12.12,0,0,0,.06.23Z"/><path class="cls-8" d="M95.18,98.57c6.37.27,12.76.07,19.13-.1a.5.5,0,0,0,0-1c-6.38.12-12.77.21-19.13.77a.17.17,0,0,0,0,.33Z"/><path class="cls-8" d="M76.88,89.63c-.2,4,1.11,8.31,1.85,12.23s1,8.46,2.77,12c.19.38.7.16.73-.2.36-3.89-1.07-8.41-1.78-12.23s-1.08-8.32-2.7-12c-.2-.45-.85-.18-.87.23Z"/><path class="cls-8" d="M131.59,95.8a47.35,47.35,0,0,0-1,8.66,89.74,89.74,0,0,0-.55,9.54c0,.64,1,.85,1.17.16a82.13,82.13,0,0,0,.69-8.74c.2-3.12.64-6.43.27-9.54,0-.33-.53-.46-.62-.08Z"/><path class="cls-8" d="M85,77.43a15.48,15.48,0,0,1,1.25-2.75c.4-.68,1.13-1.37,1.14-2.18A.5.5,0,0,0,86.8,72c-.89.23-1.35,1.37-1.67,2.17a8.24,8.24,0,0,0-.59,3.18.26.26,0,0,0,.5.06Z"/><path class="cls-8" d="M98.75,62.26a25.14,25.14,0,0,1,5.7-1c1.78,0,3.48.64,5.21.55.42,0,.76-.59.38-.9-3-2.4-8.69-1.23-11.5.84a.28.28,0,0,0,.21.51Z"/><path class="cls-8" d="M71.86,86.61a3.77,3.77,0,0,0-5.24-.86A4.44,4.44,0,0,0,64.87,88a3.18,3.18,0,0,0,.36,3,.56.56,0,0,0,1-.28,4,4,0,0,1,1.4-3.48,4.27,4.27,0,0,1,3.68,0,.45.45,0,0,0,.5-.65Z"/><path class="cls-8" d="M55.84,109.84c2.61,1.53,6.34.82,8.55-1.09a.56.56,0,0,0-.54-.93,27.93,27.93,0,0,1-3.7,1.18c-1.39.28-2.8.27-4.2.44a.22.22,0,0,0-.11.4Z"/><path class="cls-8" d="M48.32,104.08a32.06,32.06,0,0,0-1,4c-.09.4.52.58.62.17a36.05,36.05,0,0,0,.85-4.08c0-.3-.42-.33-.5-.07Z"/><path class="cls-8" d="M47.51,108.29c.4.39,1.25.93,1.81.69a.28.28,0,0,0,.13-.31c-.22-.57-1.22-.78-1.77-.79a.24.24,0,0,0-.17.41Z"/><path class="cls-8" d="M49.12,109a13.83,13.83,0,0,0,.71-3.74c.05-.41-.65-.51-.72-.1a13.93,13.93,0,0,0-.36,3.74c0,.17.28.31.37.1Z"/><path class="cls-8" d="M49.93,105.09a2.33,2.33,0,0,0-.84-.78c-.34-.23-.57-.36-1-.17a.37.37,0,0,0-.19.33c0,.46.25.55.64.73a2.14,2.14,0,0,0,1.11.33.29.29,0,0,0,.25-.44Z"/><path class="cls-8" d="M48.51,104.92c-.24.81-.35,1.63-.58,2.44s1,.85,1,.13S49,105.82,49,105a.24.24,0,0,0-.46-.06Z"/><path class="cls-8" d="M49,106a2.46,2.46,0,0,0,.58-.8.53.53,0,0,0,0-.52l-.08-.11a.38.38,0,0,0-.51-.13l-.11.06a.5.5,0,0,0-.25.44,2.45,2.45,0,0,0,.18,1,.14.14,0,0,0,.19,0Z"/><path class="cls-8" d="M49.36,105.4a.41.41,0,0,1,.27.27c.2.44.92,0,.64-.37a.87.87,0,0,0-.84-.41.26.26,0,0,0-.07.51Z"/><path class="cls-8" d="M49.76,105.28a9.87,9.87,0,0,0-.87,3.21c0,.46.65.51.78.1a9.76,9.76,0,0,0,.42-3.23c0-.16-.25-.25-.33-.08Z"/><path class="cls-8" d="M166.93,83.93a10.93,10.93,0,0,0,1.28,0,4.23,4.23,0,0,0,1.18-.13c.29-.09.34-.57,0-.64a4.52,4.52,0,0,0-1.27,0,8.81,8.81,0,0,0-1.27.15c-.36.07-.24.57.08.6Z"/><path class="cls-8" d="M169,83.55a2.33,2.33,0,0,0,.41,1.25.26.26,0,0,0,.44-.18,2.38,2.38,0,0,0-.43-1.24c-.13-.25-.47-.07-.42.17Z"/><path class="cls-8" d="M169.47,84.36a5,5,0,0,0-1.72-.11.53.53,0,0,0-.49.37.47.47,0,0,0,.06.38.5.5,0,0,0,.56.23,5.19,5.19,0,0,0,1.63-.57.17.17,0,0,0,0-.3Z"/><path class="cls-8" d="M167.78,84.7a1.39,1.39,0,0,0,.06-.64.43.43,0,0,0-.2-.36l-.11,0a.27.27,0,0,0-.3,0l-.09.08a.41.41,0,0,0-.11.4,1.55,1.55,0,0,0,.25.59.28.28,0,0,0,.5-.06Z"/><path class="cls-8" d="M167.33,84.33a2.92,2.92,0,0,0,1.54.33.5.5,0,0,0,.44-.25.44.44,0,0,0,0-.51.52.52,0,0,0-.44-.25,2.93,2.93,0,0,0-1.54.34.2.2,0,0,0,0,.34Z"/><path class="cls-8" d="M167,83.64c-.55.1-.36,1.1.11,1.21a.25.25,0,0,0,.31-.24,1.38,1.38,0,0,0-.16-.47c-.07-.16,0-.31-.14-.45a.11.11,0,0,0-.12,0Z"/><path class="cls-8" d="M166.56,74.48a2.48,2.48,0,0,1,2-.21c.64.25.82.74,1.21,1.22.64.78,1.61.13,1.29-.79a2.91,2.91,0,0,0-4.94-.63c-.19.27.16.52.4.41Z"/><path class="cls-8" d="M39.91,101A3.75,3.75,0,0,1,41,101a2.67,2.67,0,0,1,1,.44.65.65,0,0,0,.79-1,2.3,2.3,0,0,0-3.24,0,.39.39,0,0,0,.37.64Z"/><path class="cls-8" d="M83.58,129.11c-.54,1.78.85,3.83,2.15,4.94,1.51,1.28,3.83,2.2,5.75,1.39.51-.21.69-1.07,0-1.21-1.67-.33-3.31-.38-4.67-1.56s-1.46-2.43-2.32-3.68a.5.5,0,0,0-.91.12Z"/><path class="cls-8" d="M123.57,132.79c2.46,1.2,5.55-1.49,6-3.81a.4.4,0,0,0-.72-.31,7.54,7.54,0,0,1-2.38,2.61,20.88,20.88,0,0,1-2.9,1.16.21.21,0,0,0,0,.35Z"/><path class="cls-8" d="M80,141.17a7.24,7.24,0,0,0,.5-2.26,24.1,24.1,0,0,1,.92-2.45c.12-.35-.35-.57-.59-.34a4.82,4.82,0,0,0-1.29,2.69c-.14.73-.28,1.81.27,2.38a.12.12,0,0,0,.19,0Z"/><path class="cls-8" d="M131.4,134a18.88,18.88,0,0,0,1.17,1.69c.28.52.29,1.51.83,1.8a.31.31,0,0,0,.36-.05c.61-.5,0-1.72-.34-2.24s-1.08-1.45-1.85-1.42a.18.18,0,0,0-.17.22Z"/><path class="cls-9" d="M135.86,73.12a3.89,3.89,0,0,1-3.27,3.59.34.34,0,0,0-.08.61,4.76,4.76,0,0,1,2.64,5.75l.7.19A8.42,8.42,0,0,1,140,77.59a.36.36,0,0,0,0-.61,5.18,5.18,0,0,1-3.05-4c-.1-.55-.93-.31-.83.23a5.75,5.75,0,0,0,3.52,4.37V77a9.13,9.13,0,0,0-4.45,6.09.36.36,0,0,0,.7.19,5.4,5.4,0,0,0-3-6.52l-.08.61a4.18,4.18,0,0,0,3.58-4.23.25.25,0,0,0-.49,0Z"/><path class="cls-9" d="M135.86,74.87a4.08,4.08,0,0,1-2.18,1.83.5.5,0,0,0,.27,1A3.13,3.13,0,0,0,136.34,75a.26.26,0,0,0-.48-.13Z"/><path class="cls-9" d="M133.78,77.23a7.22,7.22,0,0,0,1.65,2.92c.49.69,1.63,0,1.13-.66-.7-.9-1.33-2.06-2.39-2.55a.27.27,0,0,0-.39.29Z"/><path class="cls-9" d="M136,80.26a9.1,9.1,0,0,0,1.6-1.68c.37-.46,1.05-1,.82-1.65a.44.44,0,0,0-.39-.3c-.7,0-1.08.83-1.43,1.32a9.16,9.16,0,0,0-1.14,2c-.14.35.32.49.54.32Z"/><path class="cls-9" d="M138.3,77.13a2.17,2.17,0,0,1-.22-.46c-.09-.17-.2-.34-.28-.52a6.94,6.94,0,0,1-.35-1.12c-.22-1-1.79-.57-1.52.42a2.68,2.68,0,0,0,.83,1.41,2.29,2.29,0,0,0,.61.42,3.26,3.26,0,0,0,.75.17.19.19,0,0,0,.18-.32Z"/><path class="cls-9" d="M136.46,74.76a7.88,7.88,0,0,0-2,2.68c-.47.78.78,1.5,1.2.71A7.8,7.8,0,0,0,136.92,75a.31.31,0,0,0-.46-.27Z"/><path class="cls-9" d="M134.91,77.72c.14.3.22.63.36.93.36.78,1.64,0,1-.78-.21-.25-.45-.45-.66-.7-.35-.42-.9.12-.71.55Z"/><path class="cls-9" d="M136.28,78.58a14.77,14.77,0,0,0,1.39-1.35c.49-.72-.7-1.43-1.17-.69a12.64,12.64,0,0,0-.64,1.72c-.12.25.2.56.42.32Z"/><path class="cls-9" d="M136.46,77.64a10.05,10.05,0,0,0,1.65.2.52.52,0,0,0,.45-.26.47.47,0,0,0,.05-.4.53.53,0,0,0-.5-.38,9.11,9.11,0,0,0-1.65.14.36.36,0,0,0,0,.7Z"/><path class="cls-9" d="M138.2,77.72c.24-.51,0-1-.2-1.53a12.25,12.25,0,0,0-.74-1.79c-.4-.73-1.71-.22-1.38.58a12.86,12.86,0,0,0,.91,1.72c.27.43.52,1,1.05,1.16a.33.33,0,0,0,.36-.14Z"/><path class="cls-9" d="M136.07,74.7a3.63,3.63,0,0,0,2.3,3.54.61.61,0,0,0,.59-1c-.44-.44-1-.75-1.37-1.24s-.67-1-1.06-1.42a.28.28,0,0,0-.46.13Z"/><path class="cls-9" d="M79.92,113.23a3.89,3.89,0,0,0-.1,1.32,4,4,0,0,1-1,2.46.5.5,0,0,0,.22.83,2.71,2.71,0,0,1,2.27,2.82l1.17-.32a2.08,2.08,0,0,1,1.27-3.25c.32-.07.34-.62,0-.67a3.21,3.21,0,0,1-2.84-3.17.43.43,0,0,0-.85,0,3.83,3.83,0,0,0,3.59,3.85l-.09-.68A3.17,3.17,0,0,0,81.39,121a.63.63,0,0,0,1.17-.32,3.6,3.6,0,0,0-3.4-3.8l.36.86c.83-1.07,1.91-3.47.55-4.53a.1.1,0,0,0-.15,0Z"/><path class="cls-9" d="M80.78,116c-.47.32-.31,1.24.31,1.26a.77.77,0,0,0,.5-1.32.83.83,0,0,0-1.35.59.87.87,0,0,0,1.46.64.93.93,0,0,0-.51-1.58,1,1,0,0,0-1.1,1.28,1,1,0,1,0,1.09-1.26,1,1,0,0,0-.89,1.57c.47.56,1.65.35,1.56-.49a.29.29,0,0,0-.49-.2c-.06.06-.31.22-.39.14s.06-.17.14-.11,0,.19-.15.16a.16.16,0,0,1,0-.27l.16,0c.14.12.14.18,0,.15,0,.12-.16-.15,0,0s-.1-.29-.07-.41-.11-.25-.23-.17Z"/><path class="cls-9" d="M81.18,116.52h-.7a.48.48,0,0,0,0,1h.7a.48.48,0,0,0,0-1Z"/><path class="cls-9" d="M81.18,117.17a.05.05,0,0,0,0-.1.05.05,0,1,0,0,.1Z"/><path class="cls-9" d="M81,116.87V117a0,0,0,1,0,.09,0v-.12c0-.05-.07-.05-.08,0Z"/><path class="cls-9" d="M81.46,117a.93.93,0,0,0-.56.91.35.35,0,0,0,.35.35.35.35,0,0,0,.26-.1.37.37,0,0,0,.09-.35.49.49,0,0,1,.08-.53.18.18,0,0,0-.22-.28Z"/><path class="cls-9" d="M81.9,117.13a8.24,8.24,0,0,0-1-1.83.54.54,0,0,0-.46-.27l-.12,0a.38.38,0,0,0-.37.28l0,.1a.53.53,0,0,0,.13.53,8.81,8.81,0,0,0,1.56,1.37.18.18,0,0,0,.26-.2Z"/><path class="cls-9" d="M81.27,116.9a5.75,5.75,0,0,0,.64.46l-.07-.48c-.31.32-.69.57-.75,1,0,.17.17.28.31.24.41-.1.63-.52.88-.83.11-.14.14-.4-.06-.49a6.59,6.59,0,0,0-.73-.3.22.22,0,0,0-.22.37Z"/><path class="cls-9" d="M77.16,78a5.34,5.34,0,0,1-.75,4.54.36.36,0,0,0,.31.54,3.48,3.48,0,0,1,3.51,3.7l.54-.15a4.09,4.09,0,0,1,1.33-5.09c.18-.14.2-.49-.07-.54a5.19,5.19,0,0,1-4-3.21c-.17-.41-.84-.23-.67.18a5.71,5.71,0,0,0,4.46,3.6l-.13-.49a5.1,5.1,0,0,0-1.5,5.78.29.29,0,0,0,.57-.08,4.25,4.25,0,0,0-4-4.4l.09.65c1.65-1,2.25-3.89.76-5.32a.3.3,0,0,0-.5.29Z"/><path class="cls-9" d="M78.25,80.19a22.26,22.26,0,0,0-.3,2.3c0,.49.75.5.76,0a21.12,21.12,0,0,0,0-2.25c0-.21-.37-.3-.41,0Z"/><path class="cls-9" d="M78.17,82.4c.09.61,1.09,1.12,1.55,1.46s.89-.44.43-.74-1.26-1-1.88-.89a.15.15,0,0,0-.1.17Z"/><path class="cls-9" d="M79.85,83.47a12.56,12.56,0,0,0,.78-1.76c.17-.4-.53-.62-.66-.18a13.48,13.48,0,0,0-.48,1.79.2.2,0,0,0,.36.15Z"/><path class="cls-9" d="M80.7,81.85a3.34,3.34,0,0,0-.7-.48,2.56,2.56,0,0,1-.68-.71c-.52-.8-1.68.19-1,.78s1.6,1.16,2.34.73a.21.21,0,0,0,0-.32Z"/><path class="cls-9" d="M78.75,80.27a16.5,16.5,0,0,0-.93,1.42c-.36.61.69,1.06.89.38s.27-1.1.37-1.66a.18.18,0,0,0-.33-.14Z"/><path class="cls-9" d="M78.23,80.48A5.82,5.82,0,0,0,80.51,82a.51.51,0,0,0,.5-.85,5.92,5.92,0,0,0-2.56-1.09c-.21-.06-.4.23-.22.38Z"/><path class="cls-9" d="M80.44,81.55c-.3.43-.77.91-.77,1.44a.39.39,0,0,0,.66.28,3.06,3.06,0,0,0,.36-1.65c0-.15-.19-.17-.25-.07Z"/><path class="cls-9" d="M79.88,82.38a4.72,4.72,0,0,1-1.08-.85.72.72,0,0,0-1.2.31.73.73,0,0,0,.88.89,4.72,4.72,0,0,1,1.3,0c.21,0,.26-.28.1-.38Z"/><path class="cls-9" d="M78,82.34a6.4,6.4,0,0,0,.55-1.44,1.72,1.72,0,0,0,.13-1.29.28.28,0,0,0-.42-.06,1.85,1.85,0,0,0-.46,1.25,5.86,5.86,0,0,0-.18,1.44.2.2,0,0,0,.38.1Z"/><path class="cls-9" d="M77.56,82.31v0a.31.31,0,0,0,.14.26,2.18,2.18,0,0,0,1.44.29.39.39,0,0,0,.1-.71A2.11,2.11,0,0,0,77.87,82a.32.32,0,0,0-.29.23.08.08,0,0,0,0,0Z"/><path class="cls-9" d="M130.82,122a2.74,2.74,0,0,1-1.79,2.44c-.3.11-.44.59-.1.75a3.6,3.6,0,0,1,2.15,3.57l.65-.09a3.32,3.32,0,0,1,1.29-3.88.33.33,0,0,0-.08-.59,1.86,1.86,0,0,1-1.49-1.71c0-.36-.66-.28-.64.09a2.42,2.42,0,0,0,2,2.24l-.07-.58a4.1,4.1,0,0,0-1.61,4.6.33.33,0,0,0,.65-.08,4.46,4.46,0,0,0-2.4-4.28l-.1.75a3,3,0,0,0,2.13-3.23.29.29,0,0,0-.55,0Z"/><path class="cls-9" d="M130.93,124.15a.78.78,0,0,0-.59,1.19.92.92,0,0,0,1.55-.11,1,1,0,0,0-1-1.31c-.64.13-1.09,1.08-.44,1.48a.32.32,0,0,0,.48-.19c0-.1,0-.21,0-.3s.13-.42.23-.07-.27.22-.36.06,0-.39.17-.48.08-.28-.07-.27Z"/><path class="cls-9" d="M131,123.84a4.73,4.73,0,0,0-.23,1.19,1.79,1.79,0,0,0,.11,1.1.27.27,0,0,0,.48,0,1.87,1.87,0,0,0,.1-1.1,4,4,0,0,0-.23-1.19.12.12,0,0,0-.23,0Z"/><path class="cls-9" d="M131.2,124a.76.76,0,0,0,.73,1,.3.3,0,0,0,.29-.22c.07-.53-.69-.25-.8-.75a.12.12,0,0,0-.22,0Z"/><path class="cls-8" d="M139.89,82.93a5.41,5.41,0,0,1,4.38-.91,2.72,2.72,0,0,1,1.56,4.12c-.17.28.2.53.44.33,1.6-1.35,1-3.77-.66-4.83-2-1.27-4.32-.48-5.9,1a.15.15,0,0,0,.18.24Z"/><path class="cls-8" d="M153.29,104.49c3.36,2.5,8.71.78,11.07-2.29.2-.27-.21-.5-.43-.33a12,12,0,0,1-5.27,2.49,18.21,18.21,0,0,1-5.26-.25c-.23,0-.25.28-.11.38Z"/><path class="cls-10" d="M83.1,79.68a95.58,95.58,0,0,1,40.28-3c.28,0,.4-.38.12-.43a84.86,84.86,0,0,0-40.51,3c-.26.08-.15.49.11.41Z"/><path class="cls-10" d="M83.6,125.45c.64,2.2,4.22,3.94,6.08,5a36.19,36.19,0,0,0,8.8,3.45.65.65,0,0,0,.34-1.25,32.85,32.85,0,0,1-11.92-5.46c-1.1-.79-1.8-1.68-3.11-1.9a.16.16,0,0,0-.19.19Z"/><path class="cls-10" d="M115.39,131.76c2.43.58,5.75-1.3,7.78-2.51a20.15,20.15,0,0,0,6.58-6.11c.29-.45-.38-1-.73-.57a27.44,27.44,0,0,1-6.39,5.77,22.72,22.72,0,0,1-4,1.92,12.75,12.75,0,0,0-3.27,1.23.15.15,0,0,0,0,.27Z"/><path class="cls-10" d="M128.54,123c-1.59,1.23-2.92,2.74-4.55,3.94-1.48,1.1-3.15,1.85-4.67,2.88a.23.23,0,0,0,.17.41,18,18,0,0,0,9.22-7.1.11.11,0,0,0-.17-.13Z"/><path class="cls-10" d="M82.06,96.55c-.26,1.9,0,4.78,1.22,6.36a.34.34,0,0,0,.61-.26c-.14-1-.63-2-.86-3s-.31-2-.49-3.08c-.05-.23-.45-.24-.48,0Z"/><path class="cls-10" d="M82.64,97.49a12,12,0,0,0,.07,2.08,4.24,4.24,0,0,0,.3,1.7.33.33,0,0,0,.6-.08,4.2,4.2,0,0,0-.15-1.72,12.72,12.72,0,0,0-.47-2,.18.18,0,0,0-.35,0Z"/><path class="cls-10" d="M90.7,90.88c4.76.37,9.78-.37,14.54-.68,4.47-.29,9.28-.12,13.66-1,.42-.09.29-.67-.09-.7-4.73-.37-9.8.47-14.54.77-4.49.28-9.23.22-13.64,1.13-.31.06-.21.5.07.52Z"/><path class="cls-10" d="M81.59,93c2.74,2.51,8.72.79,9.61-2.88a.24.24,0,0,0-.39-.23C89.7,91.08,88.94,92.3,87.32,93c-2,.81-3.65.25-5.62-.19-.11,0-.2.11-.11.19Z"/><path class="cls-10" d="M119.11,88.61c1.64,3.48,6.71,4.58,9.85,2.53a.27.27,0,0,0-.21-.49c-3.82,1.15-6.37.34-9.33-2.28a.2.2,0,0,0-.31.24Z"/><path class="cls-10" d="M122.71,67.24c.92,1.47,2.23,2.63,3.12,4.14a16.91,16.91,0,0,1,2,5.27c.16.74,1.27.42,1.13-.31-.62-3.37-2.49-8-5.86-9.52-.26-.11-.59.14-.42.42Z"/><path class="cls-10" d="M100.07,74.72a67.57,67.57,0,0,0,11-1.56.39.39,0,0,0-.11-.77A66.66,66.66,0,0,0,100,74.2c-.29.06-.23.55.07.52Z"/><path class="cls-10" d="M93,128.59c8.73,3.62,20,2.79,27.88-2.54a.26.26,0,0,0-.26-.45c-9,4.27-17.9,5.3-27.49,2.52-.31-.09-.41.35-.13.47Z"/><path class="cls-10" d="M90.3,125.92a5.44,5.44,0,0,0,2,0,.19.19,0,0,0,0-.36,5.44,5.44,0,0,0-2,0,.18.18,0,0,0,0,.35Z"/><path class="cls-10" d="M121.34,123.61a10.24,10.24,0,0,0,2.3-.72c.19-.1,0-.34-.13-.31a10.24,10.24,0,0,0-2.27.81c-.13,0,0,.25.1.22Z"/><path class="cls-11" d="M82.24,80.22c2.16-10.85,10.25-20.17,21.81-21.1,11.06-.9,21.72,7,24.67,17.56a.24.24,0,0,0,.47-.13c-3-10.89-14.09-18.95-25.49-17.89C93,59.65,82.51,69.15,82,80.19c0,.13.2.16.22,0Z"/><path class="cls-11" d="M73.62,83.32c20-7.54,41.18-9.56,62-4a.24.24,0,0,0,.13-.47c-20.22-5.41-43-4.49-62.23,4.28-.1,0,0,.21.07.17Z"/><path class="cls-11" d="M74,83.14a216.22,216.22,0,0,0,6.71,38.36c.07.29.52.16.44-.13a343.77,343.77,0,0,1-6.81-38.23c0-.21-.35-.22-.34,0Z"/><path class="cls-11" d="M135.24,79.46c-.29,6.6-.35,13.16-1.07,19.74a171.23,171.23,0,0,1-3.52,20.36.24.24,0,0,0,.47.13c3-13,5.22-26.9,4.43-40.23a.16.16,0,0,0-.31,0Z"/><path class="cls-11" d="M81.06,121.77c16.2,6.36,35.27,4.73,50.7-2.93.28-.14,0-.56-.25-.42-15.9,7.89-33.62,8.43-50.37,3.06-.19-.06-.26.22-.08.29Z"/><path class="cls-11" d="M80.23,122c6.21,7.9,16.9,12.2,26.83,11.5a32.74,32.74,0,0,0,24.21-13.91c.18-.26-.24-.5-.42-.25A32.19,32.19,0,0,1,106.31,133c-10.07.47-19.08-4.08-25.79-11.34-.18-.2-.45.09-.29.29Z"/><path class="cls-11" d="M83.82,124.9c-4.42,3.08-.68,9,2.91,10.88,4.44,2.37,10.51,1,13.09-3.46.1-.17-.15-.38-.28-.22-2.66,3.19-6.28,5.22-10.54,4.06s-9.69-7.11-5-11c.15-.12,0-.37-.2-.26Z"/><path class="cls-11" d="M128.93,122.65c2.62,3.68,2.47,8.34-1.87,10.73-4.18,2.3-8.41.48-11.91-2-.18-.12-.37.14-.23.29,3.54,3.47,9.55,4.63,13.61,1.36,3-2.39,4.17-8,.49-10.42-.05,0-.13,0-.09.09Z"/><path class="cls-11" d="M82.49,132.52a8.76,8.76,0,0,0-2.76,12.85c.14.2.47,0,.34-.2-2.75-4.54-1.7-9.36,2.56-12.42a.13.13,0,0,0-.14-.23Z"/><path class="cls-11" d="M86,136.26c-3.48,1.37-5.17,6.18-3.52,9.49.1.2.43.06.36-.16a7.7,7.7,0,0,1,3.24-9.14c.09-.07,0-.24-.08-.19Z"/><path class="cls-11" d="M82.37,146.37c-2.55-.84-5.78-1.45-8.22,0-1.6,1-2.88,2.8-2.32,4.71a.17.17,0,0,0,.34-.05,4.71,4.71,0,0,1,3.48-4.8c2.19-.65,4.47.05,6.64.4a.15.15,0,0,0,.08-.29Z"/><path class="cls-11" d="M72.4,151.42c3.41-.23,6.82-.57,10.23-.87.31,0,.32-.52,0-.49-3.41.3-6.83.56-10.23.94-.27,0-.28.44,0,.42Z"/><path class="cls-11" d="M82,146.69a30,30,0,0,0,.49,3.47.19.19,0,0,0,.38,0,10.1,10.1,0,0,0-.22-1.64,13.92,13.92,0,0,0-.35-1.82.16.16,0,0,0-.3,0Z"/><path class="cls-11" d="M126.9,133.92c6.17,1,4.2,7.5,2.94,11.51-.07.2.25.34.34.15,1.19-2.49,2.28-5.72,1.29-8.46a4.88,4.88,0,0,0-4.53-3.54c-.18,0-.24.31,0,.34Z"/><path class="cls-11" d="M129.88,132a5.56,5.56,0,0,1,4.85,5.83c0,2.4-1.16,4.46-1.86,6.69-.05.16.19.25.27.11,1.55-2.64,2.79-6.35,1.62-9.36-.8-2.08-2.56-3.71-4.88-3.52a.13.13,0,0,0,0,.25Z"/><path class="cls-11" d="M130.75,146a3.82,3.82,0,0,1,1.08-.51c.28-.07.59,0,.8-.24a.14.14,0,0,0,0-.18c-.52-.47-1.68.3-2.06.71a.14.14,0,0,0,.18.22Z"/><path class="cls-11" d="M133,144.83c1.62-.45,3.1-.79,4.64.16s1.87,2.45,2.08,4.07c0,.18.3.26.35.05.79-3.61-4.29-6.93-7.16-4.43-.07.06,0,.18.09.15Z"/><path class="cls-11" d="M139.89,149.47a48.71,48.71,0,0,0-11,.88c-.15,0-.11.23,0,.24a49.55,49.55,0,0,0,11.06-.87c.14,0,.1-.25,0-.25Z"/><path class="cls-11" d="M129.53,145.91a32.35,32.35,0,0,0-.05,4.72.17.17,0,0,0,.34,0,33.82,33.82,0,0,0,0-4.72.12.12,0,1,0-.24,0Z"/><path class="cls-11" d="M131.21,142.81a2.12,2.12,0,0,0,2.2-.79c0-.06,0-.15-.1-.1a2.93,2.93,0,0,1-2.08.77c-.07,0-.09.11,0,.12Z"/><path class="cls-11" d="M131.54,141q1.35-.73,2.67-1.5c.13-.08,0-.28-.11-.2-.88.52-1.75,1.06-2.61,1.61-.05,0,0,.12,0,.09Z"/><path class="cls-11" d="M131.51,139.12c1.05-.77,2-1.7,3-2.57.13-.12-.07-.32-.2-.2-.95.88-2,1.73-2.83,2.69,0,0,0,.12.06.08Z"/><path class="cls-11" d="M131,136.74c.81-.94,1.61-1.89,2.41-2.84.09-.11-.07-.26-.15-.15-.77,1-1.55,1.95-2.31,2.94,0,0,0,.08.05.05Z"/><path class="cls-11" d="M129.69,134.92c.71-.61,1.43-1.21,2.15-1.8.12-.1-.06-.28-.18-.17-.68.63-1.36,1.26-2,1.88-.06,0,0,.13.08.09Z"/><path class="cls-11" d="M81.49,134.14a30.93,30.93,0,0,0,2.39,3.17.09.09,0,0,0,.14-.11A30.08,30.08,0,0,0,81.67,134c-.08-.1-.25,0-.18.1Z"/><path class="cls-11" d="M79.16,136a44,44,0,0,0,3.41,3.68c.08.07.18,0,.11-.12a43.82,43.82,0,0,0-3.42-3.66c-.06-.07-.16,0-.1.1Z"/><path class="cls-11" d="M77.6,138.6c1.2.93,2.4,1.85,3.65,2.71.13.09.24-.12.12-.21-1.21-.9-2.46-1.74-3.72-2.56,0,0-.08,0-.05.06Z"/><path class="cls-11" d="M78.7,143a19,19,0,0,0,3.15.61.09.09,0,0,0,0-.18,17.87,17.87,0,0,0-3.17-.49,0,0,0,0,0,0,.06Z"/><path class="cls-11" d="M115.87,61.17c1.39-1.15,2.85-2.17,4.72-1.27s2.24,3.18,1.48,5a.18.18,0,0,0,.32.18,4,4,0,0,0-1.46-5.49c-1.58-.85-4.55-.4-5.13,1.56,0,0,0,.06.07,0Z"/><path class="cls-11" d="M92.76,62.24a4.38,4.38,0,0,0-6.06,0,4.55,4.55,0,0,0-.06,6.12c.19.22.5-.1.31-.31a4.09,4.09,0,0,1,.18-5.6c1.59-1.46,3.81-1.13,5.46,0,.14.09.27-.11.17-.22Z"/><path class="cls-11" d="M120.56,59.08c1.77-1.63,3.41-3.44,5-5.21.13-.13-.07-.34-.2-.2-1.68,1.72-3.41,3.45-5,5.3-.06.07,0,.18.11.11Z"/><path class="cls-11" d="M122.53,60.55a23.16,23.16,0,0,1,3.58-5.91c.15-.17-.1-.43-.25-.25a15.65,15.65,0,0,0-3.42,6.12c0,.05.07.09.09,0Z"/><path class="cls-11" d="M125.5,52a2.13,2.13,0,1,0,4,1.31,2.14,2.14,0,0,0-2-2.41,2,2,0,0,0-1.85,2.55c0,.15.32.15.3,0a1.67,1.67,0,1,1,3.2,0,1.88,1.88,0,0,1-2.35,1.23,2.1,2.1,0,0,1-1.14-2.57c0-.09-.12-.16-.16-.07Z"/><path class="cls-11" d="M87.4,61a57.37,57.37,0,0,0-5.7-3.29c-.26-.14-.49.26-.23.4a57.2,57.2,0,0,0,5.88,3c.07,0,.11-.08.05-.13Z"/><path class="cls-11" d="M80.21,58.77c.93.83,1.92,1.61,2.89,2.39a28.09,28.09,0,0,0,2.66,2.09c.13.08.26-.11.16-.21A29,29,0,0,0,83,60.65c-.87-.71-1.74-1.42-2.66-2.08-.12-.09-.26.1-.15.2Z"/><path class="cls-11" d="M79.05,55.92A1.85,1.85,0,0,0,79,58.81a2,2,0,0,0,2.9-1,2,2,0,0,0-2.2-2.47,2,2,0,0,0-1.43,2.81c.06.11.24,0,.21-.09a1.9,1.9,0,0,1,1.14-2.3,1.63,1.63,0,0,1,1.92,2,1.6,1.6,0,0,1-2.44.71,1.7,1.7,0,0,1,0-2.46c0-.05,0-.14-.09-.1Z"/><path class="cls-11" d="M102.87,58.19c-.61-.88.15-2,.63-2.55a10.42,10.42,0,0,1,1.3-1.06,5.57,5.57,0,0,0,1-1,4,4,0,0,0,.66-2.12,3.7,3.7,0,0,0-2.51-3.76c-3.38-.88-3.49,4.47.08,3.27s3.1-7.65-1-7.75c-3.21-.07-1.48,4.15,1.31,2.22,3.48-2.4-.19-7.66-3.64-5.28a.18.18,0,0,0,.18.3c2.32-1.05,5.64.67,4.09,3.6-.94,1.65-1.43,1.55-1.44-.3a3.72,3.72,0,0,1,2.4,2.42,2.61,2.61,0,0,1-.77,3c-.87,1.76-1.32,1.41-1.38-1.06a3.21,3.21,0,0,1,2.18,3,3.46,3.46,0,0,1-.9,2.55c-1.16,1.31-4.21,2.44-2.44,4.64.11.13.34-.05.24-.19Z"/><path class="cls-11" d="M100.3,34.33c.29,2,.67,4,1,6.05,0,.26.44.15.39-.1-.35-2-.68-4-1.1-6,0-.21-.34-.12-.31.08Z"/><path class="cls-11" d="M100.5,32.19a6.24,6.24,0,0,0-1.37-.11l.17.22a1.28,1.28,0,0,1,2.47.62A1.19,1.19,0,0,1,100.45,34c-.78-.12-1.1-.75-1.25-1.45,0-.15-.24-.13-.29,0-.29.9.69,1.77,1.51,1.87A1.62,1.62,0,0,0,102.17,33,1.56,1.56,0,0,0,101,31.15a1.77,1.77,0,0,0-2,1.06c0,.1.06.22.16.21a6.93,6.93,0,0,0,1.37-.15s0-.08,0-.08Z"/><path class="cls-11" d="M136.24,83.47c2.84-1.83,6.06-3.82,9.59-2.86,4.71,1.28,4.39,6,3.76,9.82-.72,4.32-.68,8.75,3.9,10.77a9.11,9.11,0,0,0,10-2.07c3.86-3.66,4.52-9.16,3.92-14.19,0-.3-.51-.31-.48,0,.64,5.84-.47,12.72-6.28,15.62a8,8,0,0,1-9-1.18c-2.9-2.8-1.88-6.6-1.34-10.1s.26-7.18-3.27-8.78c-3.83-1.73-7.92.41-10.94,2.75-.12.09,0,.3.17.22Z"/><path class="cls-11" d="M136.3,90.56c1.26-1.39,2.68-3.22,4.6-3.7,2.95-.73,4.71,1.84,5.14,4.36.51,3-.43,6.1.71,9a10.82,10.82,0,0,0,9.49,6.53c4.39.2,8.56-2.32,11.11-5.78,3.37-4.56,3.8-10.47,2.8-15.89-.06-.31-.53-.17-.47.14,1.19,6.45.14,13.65-5.17,18.06-4.83,4-12.26,4.11-16.19-1.25-2.2-3-1.47-6.25-1.66-9.71a7.4,7.4,0,0,0-1.88-4.94c-3.07-3-6.9.31-8.71,3-.09.13.12.3.23.17Z"/><path class="cls-11" d="M167.21,85.45c.89-.07,1.77-.22,2.66-.34.12,0,.2-.18.17-.3-.12-.39-.25-.78-.37-1.18a1.85,1.85,0,0,0-.37-.83.15.15,0,0,0-.25.07,2,2,0,0,0,.15.89c.12.4.25.79.37,1.18l.17-.29c-.86.12-1.73.22-2.59.38-.23,0-.18.44.06.42Z"/><path class="cls-11" d="M165.63,83.25a23.78,23.78,0,0,0,3.68-.08c.31,0,.31-.5,0-.48a24,24,0,0,0-3.69.42.07.07,0,0,0,0,.14Z"/><path class="cls-11" d="M166.32,83.13a10.18,10.18,0,0,0,.18,1.47,2.7,2.7,0,0,0,.35,1.26.13.13,0,0,0,.22-.06,2.42,2.42,0,0,0-.15-1.21,9.55,9.55,0,0,0-.41-1.48.1.1,0,0,0-.19,0Z"/><path class="cls-11" d="M169.73,83.56c2-1.76,3.65-4.32,3.42-7.11a5.08,5.08,0,0,0-3.63-4.65,4.23,4.23,0,0,0-4.88,2.63c-1.12,2.52-.16,5.23.88,7.59.13.29.55,0,.42-.25-.81-1.86-1.59-3.89-1.19-6,.5-2.53,3.27-4.83,5.8-3,4.1,2.92,1.46,7.71-1,10.62a.12.12,0,0,0,.16.17Z"/><path class="cls-11" d="M165.68,79.47c-.87-1.39-2.86-.38-3,1-.27,2.26,2.19,3.2,4,3.12.31,0,.31-.5,0-.48-1.33.06-2.89-.28-3.41-1.68a1.54,1.54,0,0,1,2.31-1.89c.06,0,.15,0,.1-.08Z"/><path class="cls-11" d="M74.36,85.34c-2.7-1.28-6.48-1.79-9.12-.06-2.42,1.6-2.64,4.18-1.56,6.68.79,1.85,2.08,3.48,2.45,5.5a8.77,8.77,0,0,1-1.37,6.41c-3.11,4.62-9.29,4.33-13.08.81-.19-.18-.46.1-.29.29A8.85,8.85,0,0,0,66,102.64a9.46,9.46,0,0,0-.58-8.43c-1.51-2.91-3.3-6.48.4-8.68,2.74-1.63,5.66-.36,8.52,0,.08,0,.12-.13,0-.16Z"/><path class="cls-11" d="M74.57,91.55a2.68,2.68,0,0,0-3.67-2.24c-2.61.88-2.7,4.3-2.32,6.51.46,2.66,1.17,5.07.29,7.74a11.85,11.85,0,0,1-4.71,6.19c-4.68,3.13-10.16,1.93-14.79-.49a.17.17,0,0,0-.18.3c5,3.73,12.82,3.47,17.26-1.07a11.7,11.7,0,0,0,3.38-7.37,20.65,20.65,0,0,0-.7-5,7.22,7.22,0,0,1,.29-4.81c1.09-2,4.38-2.38,4.85.28,0,.17.31.13.3,0Z"/><path class="cls-11" d="M49.68,110a23.59,23.59,0,0,0,1.16-4.44.18.18,0,0,0-.35-.09,23,23,0,0,0-1,4.51c0,.09.12.09.14,0Z"/><path class="cls-11" d="M50.7,105.39A3.35,3.35,0,0,0,49.55,104c-.41-.3-1.07-.71-1.6-.54a.13.13,0,0,0-.06.22,13.2,13.2,0,0,0,1.31.63,4.09,4.09,0,0,1,1.24,1.28c.1.17.34,0,.26-.16Z"/><path class="cls-11" d="M48.12,103.6a26.54,26.54,0,0,1-1.26,4.62.19.19,0,0,0,.11.27A4,4,0,0,1,49.44,110c.12.14.31,0,.24-.18a2.85,2.85,0,0,0-1-1.1c-.24-.17-1.27-.51-1.32-.68-.14-.48.51-1.7.63-2.23a8.27,8.27,0,0,0,.19-2.22c0-.06-.08-.07-.09,0Z"/><path class="cls-11" d="M46.64,108.23c-3.71,1.19-9.24.33-9.27-4.71a4.08,4.08,0,0,1,7.79-2,.19.19,0,0,0,.35-.15,4.2,4.2,0,0,0-4.26-2.87A4.82,4.82,0,0,0,37,102.42c-1.19,5.46,5.54,8.3,9.74,6,.13-.07,0-.29-.1-.24Z"/><path class="cls-11" d="M44.82,100.75s0,0,0,0a0,0,0,1,0,0,0Z"/><path class="cls-11" d="M45.41,103a2.11,2.11,0,0,1,2.07-3.39,2.37,2.37,0,0,1,1.85,2.13,3.46,3.46,0,0,1-1,2.5c-.12.16,0,.45.24.31a3,3,0,0,0-1.2-5.45c-2.17-.32-3.86,2.44-2,3.94,0,0,.09,0,.06,0Z"/><path class="cls-11" d="M44.76,101.27c.14.47.25,1,.38,1.42a4.84,4.84,0,0,0,.39,1.24.09.09,0,0,0,.16-.05,5,5,0,0,0-.35-1.24c-.16-.47-.32-.93-.47-1.4a.06.06,0,0,0-.11,0Z"/><path class="cls-11" d="M91.88,66a1.79,1.79,0,0,0-2.29.8,2.65,2.65,0,0,0,.52,3.06,4.31,4.31,0,0,0,6.42-.26,3.87,3.87,0,0,0-1.48-5.74,3.47,3.47,0,0,0-4.63,2.73c0,.19.3.24.34,0A3.25,3.25,0,0,1,94,64.17c1.89,0,3,2,2.71,3.74a3.45,3.45,0,0,1-3.66,2.81,3.67,3.67,0,0,1-2.47-1c-1.18-1.17-1.11-3.81,1.21-3.47.11,0,.22-.15.09-.2Z"/><path class="cls-11" d="M118.35,63.43a3.22,3.22,0,0,0-4.28,2.66,3.29,3.29,0,1,0,6.28-1c-.81-1.87-3.68-2.66-4.85-.69-.1.17.13.33.27.21a2.47,2.47,0,0,1,2.83-.64,2.59,2.59,0,0,1,1.51,2.31,2.81,2.81,0,1,1-5.5-.64,3.33,3.33,0,0,1,3.7-2,.07.07,0,0,0,0-.13Z"/><path class="cls-11" d="M99.7,71.28a76.56,76.56,0,0,0,10.81-.38.19.19,0,0,0,.16-.28l-.09-.2a.16.16,0,0,0-.19-.08l-.21.06a.13.13,0,0,0,0,.26,59.14,59.14,0,0,0-10.55.4c-.12,0-.08.21,0,.22Z"/><path class="cls-11" d="M100.11,71.58c0,.7-.06,1.4,0,2.1a.15.15,0,0,0,.3,0c0-.7,0-1.4,0-2.1a.13.13,0,0,0-.25,0Z"/><path class="cls-11" d="M100.22,74.22A91.24,91.24,0,0,0,111,72.72a.15.15,0,0,0,0-.29A91.5,91.5,0,0,0,100.19,74c-.14,0-.11.25,0,.23Z"/><path class="cls-11" d="M110.67,70.79a6.91,6.91,0,0,0,0,1.87.12.12,0,0,0,.23,0,6.91,6.91,0,0,0,0-1.87.07.07,0,0,0-.13,0Z"/><path class="cls-11" d="M102.49,71.85c.06.62.1,1.25.19,1.87,0,.14.26.11.24,0-.08-.62-.2-1.24-.3-1.86,0-.07-.14-.06-.13,0Z"/><path class="cls-11" d="M103.85,71.86a14.88,14.88,0,0,0,.51,1.6c0,.1.18,0,.16-.07a14.43,14.43,0,0,0-.55-1.56.06.06,0,1,0-.12,0Z"/><path class="cls-11" d="M106,71.59a9.54,9.54,0,0,0,.52,1.59c0,.07.11,0,.1,0a8.83,8.83,0,0,0-.54-1.57,0,0,0,0,0-.08,0Z"/><path class="cls-11" d="M108,71.06a12.92,12.92,0,0,0,.24,1.87c0,.12.23.1.22,0a11.84,11.84,0,0,0-.31-1.86.08.08,0,0,0-.15,0Z"/><path class="cls-11" d="M88.84,123.82c-.29-4.39-1.78-8.94-2.71-13.24-1-4.7-1.92-9.48-3.14-14.14-.06-.26-.44-.15-.39.11.81,4.58,2,9.13,3,13.67s1.53,9.37,3.16,13.62a.07.07,0,0,0,.13,0Z"/><path class="cls-11" d="M82.91,95.88c3.52.35,7.34-.35,10.88-.55s7.26-.37,10.9-.5c7.26-.25,14.54-.33,21.81-.3a.25.25,0,0,0,0-.49c-7.44-.07-14.88,0-22.31.32-3.63.13-7.27.3-10.9.51-3.39.2-7.11,0-10.4.89-.07,0,0,.11,0,.12Z"/><path class="cls-11" d="M125.59,94.7c.12,9-.21,17.82-.72,26.8,0,.22.38.28.41,0A130.29,130.29,0,0,0,126,94.7c0-.25-.41-.26-.4,0Z"/><path class="cls-11" d="M92.08,104.42c3.76-.17,7.52-.49,11.28-.61s7.56.14,11.31-.09a.16.16,0,0,0,0-.31,77.46,77.46,0,0,0-11.8-.08,100.26,100.26,0,0,0-10.82.85c-.14,0-.1.25,0,.24Z"/><path class="cls-11" d="M92.18,104.45c.64,4.45,1.3,8.86,1.56,13.35,0,.27.45.28.43,0a78.73,78.73,0,0,0-1.72-13.42c0-.18-.29-.1-.27.07Z"/><path class="cls-11" d="M94.43,118.33a111.16,111.16,0,0,1,20.23-.37c.32,0,.32-.47,0-.49a99.87,99.87,0,0,0-20.23.43c-.27,0-.28.46,0,.43Z"/><path class="cls-11" d="M114.45,103.88a89.15,89.15,0,0,0,.63,13.66.19.19,0,0,0,.37,0,90.76,90.76,0,0,0-.81-13.69c0-.11-.19-.08-.19,0Z"/><path class="cls-11" d="M103,115.21c-1.53-.9-3.24-1.78-4-3.52a3.12,3.12,0,0,1,.19-3.06c1-1.4,3.53-1.34,3.68.78,0,.3.5.31.48,0-.14-2.77-3.63-2.91-4.79-.72-1.63,3.08,1.77,5.82,4.29,6.78.16.06.25-.18.11-.26Z"/><path class="cls-11" d="M103.5,109.41a1.93,1.93,0,0,1,2.94-1.39,2.81,2.81,0,0,1,.89,3.72c-.89,1.94-2.84,2.78-4.63,3.7-.21.11-.06.5.17.4,2.58-1.07,6.53-3.56,5-6.94-1-2.14-4.73-2.34-4.69.47,0,.17.28.22.32,0Z"/><path class="cls-11" d="M77.45,106a36.81,36.81,0,0,0,6.28-1.18c.17-.06.15-.34,0-.33a36,36,0,0,0-6.33,1.12c-.26,0-.15.43.1.39Z"/><path class="cls-11" d="M83.84,82.8a5.53,5.53,0,1,0,6,2.28,5.54,5.54,0,0,0-8.12-.78c-.16.16.06.47.25.33,2.12-1.62,5.3-1.8,7.19.36a5.15,5.15,0,0,1-1.32,7.48,5.28,5.28,0,0,1-7-2.13c-1.47-2.78.41-6.2,3.14-7.26.17-.07.1-.34-.08-.28Z"/><path class="cls-11" d="M122.7,81.61c-3.26.84-4.12,5.17-2.33,7.7a5.41,5.41,0,1,0,7.91-7.25c-2.54-2.19-6.29-1.26-8.1,1.34-.18.25.24.5.42.24a5,5,0,0,1,7.34-1.2,4.92,4.92,0,1,1-6.85,7c-2.41-2.67-.9-6,1.63-7.78,0,0,0-.07,0-.06Z"/><path class="cls-11" d="M84.1,85.67c-1.76.38-2.17,3-1.25,4.28a3.09,3.09,0,0,0,4.6.25,3.15,3.15,0,0,0-.64-4.6A3.05,3.05,0,0,0,82.46,87c-.07.16.18.26.26.12A2.88,2.88,0,0,1,86.56,86a2.53,2.53,0,1,1-3.46,3.51c-.86-1.41,0-2.8,1.08-3.73.07-.06,0-.15-.08-.14Z"/><path class="cls-11" d="M124.76,84.12c-2-.63-3.24,2-2.47,3.58A3,3,0,0,0,127,88.85a3.12,3.12,0,0,0,0-4.63c-1.3-1-4-.8-4.57,1a.17.17,0,0,0,.28.17c1-1,2.26-1.71,3.66-1a2.53,2.53,0,0,1,.75,3.56,2.42,2.42,0,0,1-3.86.32,2.27,2.27,0,0,1,1.5-4,.1.1,0,0,0,0-.19Z"/><path class="cls-11" d="M89.18,85.45c5,.84,10.65.13,15.69-.19a151.88,151.88,0,0,0,15.64-1.67c.24,0,.19-.45-.06-.43-5.35.63-10.68,1.31-16.07,1.64-5,.3-10.25-.19-15.2.49a.08.08,0,0,0,0,.16Z"/><path class="cls-11" d="M90.76,89.82c4.46.63,9.36.05,13.85-.19,4.93-.26,9.86-.68,14.77-1.23.31,0,.31-.52,0-.49-4.91.55-9.84,1-14.77,1.23-4.57.25-9.34-.11-13.85.53-.07,0-.07.14,0,.15Z"/><path class="cls-11" d="M96.18,86.05A26.09,26.09,0,0,0,97,89.47c0,.13.21.07.2,0A25.28,25.28,0,0,0,96.37,86c0-.12-.21-.07-.19,0Z"/><path class="cls-11" d="M99.63,86c.1,1.24.31,2.48.5,3.71,0,.12.22.09.21,0-.16-1.23-.3-2.48-.55-3.7,0-.08-.17-.07-.16,0Z"/><path class="cls-11" d="M103.52,85.76a22.47,22.47,0,0,0,.25,3.18c0,.1.17.07.17,0a24,24,0,0,0-.25-3.16c0-.1-.18-.11-.17,0Z"/><path class="cls-11" d="M106.75,85.76a18.69,18.69,0,0,0,.5,3.17c0,.09.17.08.16,0a18.83,18.83,0,0,0-.55-3.16c0-.06-.12,0-.11,0Z"/><path class="cls-11" d="M110.69,85.48a5.56,5.56,0,0,0,.46,3.76.1.1,0,0,0,.18-.08,8.13,8.13,0,0,1-.51-3.66c0-.07-.12-.09-.13,0Z"/><path class="cls-11" d="M90.91,78.45a23.65,23.65,0,0,1,.86,5.74.09.09,0,0,0,.17,0,17,17,0,0,0-.86-5.79.09.09,0,1,0-.17,0Z"/><path class="cls-11" d="M127.29,100.76c2,.14,4.34.54,6.32.19a.08.08,0,0,0,0-.15,27.23,27.23,0,0,0-6.32-.2c-.11,0-.1.15,0,.16Z"/><path class="cls-11" d="M126.52,112.9a23.44,23.44,0,0,1,6.54-1,.13.13,0,0,0,0-.25,13.14,13.14,0,0,0-6.59,1.15c-.07,0,0,.16,0,.13Z"/><path class="cls-11" d="M127.15,99.19l0-.13c.4-.49-.74-.49-.34,0l0,.13c0,.13.25.13.26,0Z"/><path class="cls-11" d="M129.35,98.83c0-.09-.07-.18-.11-.27a.13.13,0,0,0-.23,0c0,.09-.08.18-.12.27-.15.38.61.38.46,0Z"/><path class="cls-11" d="M131.75,99.38a.87.87,0,0,0,.32,0,.2.2,0,0,0,0-.39.87.87,0,0,0-.32,0,.23.23,0,0,0,0,.45Z"/><path class="cls-11" d="M127.34,114.93l0-.09a.23.23,0,0,0-.06-.22l-.13-.14c-.21-.22-.56.13-.33.34l.13.13a.24.24,0,0,0,.23.06s.1,0,.12-.08Z"/><path class="cls-11" d="M128.34,114.82l.14,0c.45.19.45-.61,0-.42l-.14,0a.17.17,0,0,0,0,.34Z"/><path class="cls-11" d="M130.63,113.89l-.49.1a.14.14,0,0,0,0,.27,2.84,2.84,0,0,0,.49.1.24.24,0,1,0,0-.47Z"/><path class="cls-11" d="M79,107.74c-.22,0-.26,0-.43.18s.14.56.33.33.19-.21.18-.43a.09.09,0,0,0-.08-.08Z"/><path class="cls-11" d="M80.85,107.44a3,3,0,0,1-.2.29c-.1.14.1.35.24.24l.29-.2c.34-.21-.11-.67-.33-.33Z"/><path class="cls-11" d="M82.48,107.45l-.07-.06a.25.25,0,0,0-.34,0l-.07.06a.16.16,0,0,0,0,.22l.07.06a.25.25,0,0,0,.34,0l.07-.06a.16.16,0,0,0,0-.22Z"/><path class="cls-11" d="M92.78,79.39a1.33,1.33,0,0,1-.49.45.14.14,0,0,0,0,.23c.44.28.85-.21.73-.65a.13.13,0,0,0-.24,0Z"/><path class="cls-11" d="M93.14,82.59a.24.24,0,0,0,0-.48.24.24,0,0,0,0,.48Z"/><path class="cls-11" d="M94.17,91.37c.15,0,.52.32.52-.09s-.38-.13-.52-.1-.1.18,0,.19Z"/><path class="cls-11" d="M95,92.76c-.28-.05-.31-.13-.58,0a.14.14,0,0,0,0,.27c.29.09.27,0,.58,0a.09.09,0,0,0,0-.18Z"/><path class="cls-11" d="M90.52,121.77a.85.85,0,0,0-.32,0,.2.2,0,0,0,0,.39.69.69,0,0,0,.32,0,.24.24,0,0,0,0-.47Z"/><path class="cls-11" d="M88.66,116.51l.12.14a.23.23,0,0,0,.38-.16.23.23,0,0,0-.38-.16l-.12.14a0,0,0,0,0,0,0Z"/><path class="cls-11" d="M87.36,111.47a.24.24,0,0,0,0-.47.24.24,0,0,0,0,.47Z"/><path class="cls-11" d="M86.24,106.79c0,.1.07.21.11.31.16.46.76-.13.29-.29l-.31-.11a.07.07,0,0,0-.09.09Z"/><path class="cls-11" d="M85.79,102.24l.2,0a.23.23,0,1,0,0-.45l-.2,0a.19.19,0,1,0,0,.39Z"/><path class="cls-11" d="M85.26,98.06h.17c.34,0,.26-.61-.12-.43l-.13.07a.16.16,0,0,0,0,.27l.13.06c.38.18.46-.46.12-.43l-.17,0a.22.22,0,0,0,0,.43Z"/><path class="cls-11" d="M90,98.08a.24.24,0,0,0,0-.48.24.24,0,0,0,0,.48Z"/><path class="cls-11" d="M97.61,97.27l-.16-.07c0-.1-.16-.11-.25-.1l-.17,0a.2.2,0,0,0,0,.39l.17,0a.23.23,0,0,0,.25-.11l.16-.06c.06,0,.06-.1,0-.1Z"/><path class="cls-11" d="M105,96.86l0,.25a.2.2,0,0,0,.39,0l0-.25a.24.24,0,1,0-.46,0Z"/><path class="cls-11" d="M113.59,96.7c.36.09.51-.34.28-.58a.24.24,0,0,0-.33,0l0,0a.19.19,0,0,0,0,.31l0-.08.2-.11h-.06a.21.21,0,0,0-.06.42Z"/><path class="cls-11" d="M118.85,96.56l.12.14a.24.24,0,1,0,0-.34l-.12.14a.06.06,0,0,0,0,.06Z"/><path class="cls-11" d="M122.49,96.56l-.23.09a.15.15,0,0,0,0,.29l.23.08c.38.14.39-.6,0-.46Z"/><path class="cls-11" d="M122.73,101.88l-.29-.24a.2.2,0,0,0-.29.28l.24.29c.19.24.58-.14.34-.33Z"/><path class="cls-11" d="M122.3,107a.24.24,0,0,0,0-.48.24.24,0,0,0,0,.48Z"/><path class="cls-11" d="M122.79,110.45a.66.66,0,0,0-.8-.69.17.17,0,0,0,0,.33l.32.36c0,.31.5.31.48,0Z"/><path class="cls-11" d="M121.88,115.5c.06.37.66.34.61-.06a.2.2,0,0,0-.37-.1s.06,0,0,0l.15.15,0-.06a.21.21,0,0,0-.4.11Z"/><path class="cls-11" d="M122,119.88a.24.24,0,0,0,0-.48.24.24,0,0,0,0,.48Z"/><path class="cls-11" d="M140.43,81.82c-.29,1.48-.63,3-.85,4.45a.07.07,0,0,0,.14,0c.34-1.47.58-3,.87-4.45,0-.1-.14-.15-.16,0Z"/><path class="cls-11" d="M142.31,86.58a25.45,25.45,0,0,1,3.94-5.23.08.08,0,0,0-.11-.11,20.62,20.62,0,0,0-3.94,5.28c0,.07.07.13.11.06Z"/><path class="cls-11" d="M145.16,88.42c1.82-1,3.54-2.23,5.27-3.39.13-.09,0-.3-.13-.21-1.75,1.13-3.55,2.24-5.2,3.52,0,0,0,.1.06.08Z"/><path class="cls-11" d="M146.39,94.38a.45.45,0,0,0,.34.67,2.38,2.38,0,0,0,.68-.23l.78-.28a12.87,12.87,0,0,0,1.44-.6c.05,0,0-.1,0-.08a12.51,12.51,0,0,0-1.46.49l-.66.26-.33.13c-.28.19-.5.08-.68-.32,0,0-.05-.08-.08,0Z"/><path class="cls-11" d="M147.83,100.84A11.82,11.82,0,0,0,150,99.53c.06-.06,0-.17-.08-.14a11.35,11.35,0,0,0-2.13,1.3c-.09.06,0,.2.08.15Z"/><path class="cls-11" d="M150.18,104.72c.52-.56,1-1.18,1.44-1.78a14,14,0,0,0,1.21-1.65.08.08,0,0,0-.12-.09,13.2,13.2,0,0,0-1.28,1.6,22.28,22.28,0,0,0-1.35,1.84c-.05.06,0,.14.1.08Z"/><path class="cls-11" d="M155.12,105.22a4.56,4.56,0,0,0,.22-1.47c0-.66.09-1.32.12-2,0-.19-.27-.19-.29,0,0,.61-.09,1.22-.13,1.84a4.47,4.47,0,0,0,0,1.59,0,0,0,0,0,.08,0Z"/><path class="cls-11" d="M160.29,105.41c-.26-1.5-.66-3-1-4.47-.05-.21-.37-.12-.32.09.34,1.48.65,3,1.08,4.45a.13.13,0,0,0,.25-.07Z"/><path class="cls-11" d="M165.15,102.55c-.65-1-1.29-2-2-3-.14-.18-.46,0-.32.19.7,1,1.46,1.9,2.22,2.83,0,0,.13,0,.1-.07Z"/><path class="cls-11" d="M167.83,99.35c-.32-.47-.69-.91-1.05-1.35a6.61,6.61,0,0,0-1.15-1.27c-.11-.08-.23.08-.18.19a6.41,6.41,0,0,0,1,1.25c.39.44.78.9,1.21,1.3.08.07.22,0,.15-.12Z"/><path class="cls-11" d="M168.55,95.37a5.65,5.65,0,0,0-1.87-.54.12.12,0,0,0-.06.23,5.36,5.36,0,0,0,1.87.52.11.11,0,0,0,.06-.21Z"/><path class="cls-11" d="M169.87,91.68a8,8,0,0,0-2.12-.6.14.14,0,0,0-.07.26,7.76,7.76,0,0,0,2.14.5.08.08,0,0,0,.05-.16Z"/><path class="cls-11" d="M169.06,87.81a7.33,7.33,0,0,0-1-.31.12.12,0,0,0-.06.24A9.06,9.06,0,0,0,169,88a.08.08,0,0,0,0-.16Z"/><path class="cls-11" d="M71.79,85.5c.07,1.22.16,2.45.25,3.68,0,.12.19.12.18,0-.08-1.23-.17-2.46-.27-3.68,0-.11-.17-.11-.16,0Z"/><path class="cls-11" d="M68.42,85.76c.53,1.32,1.09,2.63,1.67,3.93,0,.13.27,0,.22-.09-.55-1.31-1.11-2.63-1.7-3.92,0-.1-.23,0-.19.08Z"/><path class="cls-11" d="M64.23,87.09C65.55,88.56,67,90,68.4,91.33a.13.13,0,0,0,.19-.19c-1.34-1.44-2.76-2.86-4.22-4.18-.09-.08-.22,0-.14.13Z"/><path class="cls-11" d="M64.78,92.38a8.83,8.83,0,0,1,3.61,1.1.12.12,0,1,0,.12-.21,7.39,7.39,0,0,0-3.73-1,.06.06,0,1,0,0,.11Z"/><path class="cls-11" d="M66.08,96.56c.42.09.84.16,1.26.22a4.21,4.21,0,0,0,1.11.1.09.09,0,0,0,0-.18,4.56,4.56,0,0,0-1.11-.14c-.43,0-.85-.06-1.28-.07,0,0,0,.07,0,.07Z"/><path class="cls-11" d="M66.59,99.23l1.4.46a5.14,5.14,0,0,0,1.25.33.08.08,0,0,0,0-.14,4.81,4.81,0,0,0-1.23-.41c-.47-.14-.94-.26-1.41-.39a.08.08,0,0,0,0,.15Z"/><path class="cls-11" d="M66.31,101.82c.85.67,1.7,1.32,2.6,1.92.15.09.27-.13.14-.24-.86-.63-1.76-1.2-2.67-1.77,0,0-.12,0-.07.09Z"/><path class="cls-11" d="M65.49,103.66c.3.45.63.88,1,1.3a7.45,7.45,0,0,0,1.16,1.34.08.08,0,0,0,.12-.09,6.38,6.38,0,0,0-1-1.3c-.37-.46-.75-.92-1.16-1.35-.06-.06-.18,0-.13.1Z"/><path class="cls-11" d="M63.86,105.81a22.74,22.74,0,0,0,1.84,2.92c.08.11.26,0,.19-.15a23,23,0,0,0-2-2.81s-.06,0,0,0Z"/><path class="cls-11" d="M61.33,107.57a30.88,30.88,0,0,0,.75,3.16.1.1,0,0,0,.2,0,30.91,30.91,0,0,0-.84-3.14.06.06,0,1,0-.11,0Z"/><path class="cls-11" d="M58.62,108.34a21,21,0,0,0-.27,3.16c0,.08.14.11.16,0a22.46,22.46,0,0,0,.23-3.18c0-.07-.11-.07-.12,0Z"/><path class="cls-11" d="M56.63,108.35a19.87,19.87,0,0,0-.93,3.46c0,.08.1.08.13,0a20.62,20.62,0,0,0,.87-3.46c0-.05-.06-.07-.07,0Z"/><path class="cls-11" d="M53.7,107.84a5.48,5.48,0,0,1-.55,3.11c0,.07.08.14.12.08a4,4,0,0,0,.52-3.22c0-.06-.1,0-.09,0Z"/><path class="cls-11" d="M52.19,106.51a17.85,17.85,0,0,0-.58,3.68.08.08,0,0,0,.15,0,17.53,17.53,0,0,0,.5-3.69s-.06,0-.07,0Z"/></svg>