<svg id="illustration" xmlns="http://www.w3.org/2000/svg" viewBox="0 0 198.43 128.75"><defs><style>.cls-1{fill:#fef07b;}.cls-2{fill:#ed3024;}.cls-3{fill:#00514c;}.cls-4{fill:#0d0e22;}.cls-5{fill:#f9c29d;}.cls-6{fill:#fff;}.cls-7{fill:#003532;}.cls-8{fill:#9b1a0e;}.cls-9{fill:#aaa355;}.cls-10{fill:#a17f67;}.cls-11{fill:#010101;}</style></defs><path class="cls-1" d="M70,97.58l1.73,6.64,3.92,1.58L77,111.47l-19.28,4.85.19,2.15c-1.12-.45-4.18,1.07-3.62,2.17.41.79,1.74,3.82,1.74,3.82l44.33-1.75L98,116.46l-6.67-12.3,11-2-.4-4.67-1-3.81-1-3.52-1.15-1.78-14.49,2.5-5-.06-4.62,1.51-3.58,1.8Z"/><path class="cls-2" d="M98.84,88.36s5.13,7.07,3.57,13.78A92.88,92.88,0,0,0,117,100.46l.83-6.28-2.58-5.33-3.71-3.72Z"/><path class="cls-2" d="M95.72,88.9l-4.94-5.51,9.61-5.58s7.4-4.21,9.17-3,3.49,5.56,3.49,5.56l-1.48,4.81Z"/><polygon class="cls-3" points="113.42 78.69 115.11 76.09 117.36 72.84 118.85 67.09 117.74 63.12 109.55 58.71 101.92 56.3 95.37 55.32 89.7 55.78 86.7 58.71 82.29 62.09 84.89 42.48 88.8 35.41 89.76 30.89 106.4 11.33 107.61 6.84 110.7 11.86 113.38 16.47 117.11 20.9 120.03 22.48 123.2 28.75 127.37 37.05 131.8 42.7 135.34 47.48 138.5 50.46 141.43 56.59 139.86 64.88 134.74 86.8 130.7 94.79 127.37 97.79 122.99 99.96 118.31 99.47 117.86 95.91 115.54 90.14 113.06 86.63 111.57 85.14 113.05 80.32 113.29 77.42 113.42 78.69"/><path class="cls-4" d="M41.21,88.72S30.05,77,34.34,66.4s25.73-4.66,25.73-4.66c-.29-1.92,21.75,6.6,18.57,23.27-1.5,16.92-23.11,17.87-23.27,17.53L54.16,102l.21-4.65L56,95.72l.9-1.82-.26-2.31-2.27-.12-1.6,1.71-.23,1.58.08,3.4-3.27.51.45-7.08H46.57l-1.93-1L42.3,89.1Z"/><polygon class="cls-5" points="42.3 89.1 42.03 91.79 41.31 94.69 40.38 96.82 39.19 98.66 38.13 99.89 45.06 109.7 49.37 107.87 53.2 105.66 55.2 104.02 55.1 99.96 55.03 96.77 57.37 95.44 57.72 93.45 56.64 91.59 55.37 91.46 53.7 92.01 52.69 93.18 52.54 94.76 52.54 96.71 52.62 98.16 50.19 98.34 50.33 91.79 48.6 91.36 45.63 90.8 44.53 90.14 43.47 89.1 43.03 88.47 42.3 89.1"/><path class="cls-6" d="M42.56,95a1.82,1.82,0,0,0,0,2.12c.2.28.68,0,.48-.28a1.35,1.35,0,0,1,0-1.56c.2-.3-.27-.56-.47-.28Z"/><path class="cls-6" d="M43.16,97a25.81,25.81,0,0,0,3,.36c.3,0,.29-.43,0-.46a23,23,0,0,0-3-.19c-.16,0-.21.25,0,.29Z"/><path class="cls-6" d="M46.23,97.37c1-.38.67-1.86.15-2.46-.23-.27-.62.12-.38.38a1.42,1.42,0,0,1,.37,1,5.25,5.25,0,0,1-.26.94.1.1,0,0,0,.12.12Z"/><path class="cls-6" d="M46.08,95.25a2.4,2.4,0,0,0-1.75-.2c-.48.07-1.26.15-1.48.66,0,.11,0,.23.11.26.46.13.94-.22,1.39-.31s1.16,0,1.7-.21a.11.11,0,0,0,0-.2Z"/><path class="cls-6" d="M43.56,95.32c-.51,0-.5.66-.26,1,.49.65,1.43.17,2.06.52a.27.27,0,0,0,.33-.42,1.17,1.17,0,0,0-1-.31c-.46,0-1.24.12-1-.58a.15.15,0,0,0-.15-.19Z"/><path class="cls-6" d="M45.37,95.38a2.73,2.73,0,0,1,.21.84c0,.22-.11.35,0,.55a.19.19,0,0,0,.21.08l.08,0a.28.28,0,0,0,.21-.21c.1-.5,0-1.2-.49-1.43-.13-.06-.3,0-.25.19Z"/><path class="cls-6" d="M45.33,95.46a4.94,4.94,0,0,0-.12.77l.39-.3a2.2,2.2,0,0,0-1.2-.35.23.23,0,0,0-.14.34c.27.37.76.45,1.18.61a.31.31,0,0,0,.39-.3,4.92,4.92,0,0,0-.11-.77.2.2,0,0,0-.39,0Z"/><path class="cls-6" d="M45.58,95.54a1.32,1.32,0,0,1,.09,1.11c-.09.33.36.65.6.36a1.15,1.15,0,0,0-.44-1.79c-.19-.06-.32.16-.25.32Z"/><path class="cls-6" d="M46.08,96.35a.67.67,0,0,0-.69-.51c-.56,0-.86.49-1.38.52l.12.86c.42-.08.92,0,1.23-.36a.23.23,0,0,0,0-.36c-.36-.28-.87-.13-1.3-.14s-.55.92,0,.87a1.92,1.92,0,0,0,1-.4c.23-.16.59-.49.9-.34a.13.13,0,0,0,.18-.14Z"/><path class="cls-6" d="M44.8,96c.37.11.73.22,1-.12a.27.27,0,0,0,0-.37c-.36-.29-.67-.14-1,.07a.23.23,0,0,0,.06.42Z"/><path class="cls-6" d="M43.69,95c-.77-.32-1.15,1.45-.34,1.73a.23.23,0,0,0,.29-.22c0-.27-.14-.5-.06-.78s.23-.36.22-.59a.16.16,0,0,0-.11-.14Z"/><path class="cls-6" d="M45.38,95.35c.24.21.16.51.28.78a.23.23,0,0,0,.26.11c.73-.26.23-1.15-.3-1.31-.23-.06-.44.26-.24.42Z"/><polygon class="cls-5" points="70.69 103.02 66.18 103.02 59.61 103.14 55.2 104.02 54.89 102.75 58.25 101.96 62.35 100.96 65.12 99.8 67.7 99.09 70.01 97.58 70.69 103.02"/><path class="cls-5" d="M57.72,116.32,49,118.79s-1.65.8-1.73,2,2.41.12,2.41.12l-.18.73-6.36,2.5v.69l.4,1.14L56,124.46l-1.41-2.17-.33-1.65.74-.85.74-1.21,1.89-.56Z"/><path class="cls-6" d="M40,73.66a5.35,5.35,0,0,1,.48-7.58c2-1.88,4.84-2.29,7.49-2.34a38.94,38.94,0,0,1,7.62.62c2.34.42,4.51,1.3,6.81,1.81a.46.46,0,0,0,.35-.83c-3-1.94-7-2.5-10.49-2.82-3.29-.31-6.87-.46-10,.9-3.89,1.71-7.5,7.79-2.66,10.72.32.19.58-.22.37-.48Z"/><path class="cls-6" d="M67.06,93.64c3.09-1.28,6.11-3.13,7.71-6.18,1.33-2.53,1.75-6.21-.45-8.36a.32.32,0,0,0-.53.32c.91,3,1.15,5.65-.69,8.36a19.8,19.8,0,0,1-6.25,5.36c-.25.16-.09.62.21.5Z"/><path class="cls-6" d="M38.6,100.24a3.81,3.81,0,0,0,.8-1.35.18.18,0,0,0-.26-.2,4.22,4.22,0,0,0-1,1.26c-.2.3.28.57.49.29Z"/><path class="cls-6" d="M38.91,100.44a10.88,10.88,0,0,0,.72-1.64c.12-.31-.37-.44-.49-.14a12.25,12.25,0,0,0-.57,1.64.19.19,0,0,0,.34.14Z"/><path class="cls-6" d="M43.92,98.06a11.84,11.84,0,0,0,1.68.1c.48,0,1.07.14,1.48-.15a.2.2,0,0,0,0-.33c-.41-.29-1-.16-1.48-.15a11.84,11.84,0,0,0-1.68.1c-.21,0-.21.39,0,.43Z"/><path class="cls-6" d="M46.64,105.69l-.09.06a.12.12,0,0,0,0,.19l.09.06c.33.24.33-.55,0-.31Z"/><path class="cls-6" d="M46.45,106.07c.12.09.16.23.26.32a4.09,4.09,0,0,0,.64.37c.26.14.58.33.87.14a.54.54,0,0,0,.2-.58c-.07-.36-.58-.62-.56-1s-.41-.32-.46-.06a.71.71,0,0,0,0,.43c.1.21.39.36.45.57s.09.12,0,.1a.25.25,0,0,1-.24-.08c-.15-.06-.28-.14-.42-.2a1.77,1.77,0,0,0-.31-.15c-.12,0-.22,0-.36,0s-.14.08-.08.13Z"/><path class="cls-6" d="M47.07,105.68a.7.7,0,0,0,.59.81.28.28,0,0,0,.3-.13l0-.06a.18.18,0,0,0,0-.2c-.2-.21-.47-.16-.62-.46a.16.16,0,0,0-.29,0Z"/><path class="cls-6" d="M46.87,106.08a1.68,1.68,0,0,0,.55.34c.22.07.31-.23.15-.35a1.7,1.7,0,0,0-.55-.24c-.14,0-.27.16-.15.25Z"/><path class="cls-6" d="M46.38,124a10.07,10.07,0,0,0,2.69-.65c.69-.25,1.64-.48,2-1.15a.27.27,0,0,0-.23-.41c-.73-.07-1.46.49-2.1.78-.82.37-1.68.64-2.48,1a.22.22,0,0,0,.11.41Z"/><path class="cls-6" d="M50.61,119.63a4.22,4.22,0,0,0,1.47-.39c.41-.14.91-.22,1.13-.62a.27.27,0,0,0-.15-.39c-.45-.12-.86.18-1.25.37a4.52,4.52,0,0,0-1.31.77.16.16,0,0,0,.11.26Z"/><path class="cls-6" d="M67.44,115.75a40.33,40.33,0,0,0,4.46-1,8.64,8.64,0,0,0,3.31-1.18c.24-.19,0-.51-.22-.54-1.32-.16-2.69.52-3.95.9a34.36,34.36,0,0,0-3.81,1.33c-.29.12-.06.51.21.47Z"/><path class="cls-6" d="M64.83,119c2.13.5,4.4,0,6.53-.36,2.36-.38,5.14-.54,7.24-1.73a.47.47,0,0,0-.24-.86c-2.27-.19-4.68.67-6.91,1.07s-4.63.53-6.66,1.58a.16.16,0,0,0,0,.3Z"/><path class="cls-6" d="M78,92a34,34,0,0,0,10.61-.22c3.19-.41,6.78-.73,9.7-2.17a.49.49,0,0,0-.25-.91c-3.45,0-7,1.11-10.4,1.53A94.71,94.71,0,0,0,78,91.37.3.3,0,0,0,78,92Z"/><path class="cls-6" d="M103,93.11c1.19.82,2.84.5,4.19.32,1.15-.15,2.86-.09,3.45-1.24a.62.62,0,0,0-.22-.83c-1-.71-2.59,0-3.72.18s-2.65,0-3.7.76a.47.47,0,0,0,0,.81Z"/><path class="cls-6" d="M95.19,84a72.3,72.3,0,0,1,11.64-4.31c1.19-.28.42-2.2-.65-1.54l-.19.12a.57.57,0,0,0-.26.63l.06.2.59-1a21.82,21.82,0,0,0-11.46,5.57c-.2.2,0,.45.27.36Z"/><path class="cls-6" d="M108.51,14c2.48,4.46,5.68,8.59,8.51,12.83s5.28,8.63,8.62,12.41c.31.34.82-.1.62-.48-2.46-4.72-6-8.85-9-13.18-2.77-3.93-5.34-8.12-8.43-11.81-.14-.17-.4,0-.3.23Z"/><path class="cls-6" d="M130.89,48.85c5.38,5,7.6,10.86,5.59,18.17-.08.28.34.48.48.21,3.21-6.43.88-15.49-5.83-18.69-.19-.09-.41.15-.24.31Z"/><path class="cls-6" d="M89.09,39.74c1.33-2.33,2.26-4.87,3.63-7.19a53.31,53.31,0,0,1,5.36-7,.16.16,0,0,0-.22-.22c-4.1,3.17-8.33,9.07-9,14.29,0,.15.18.27.27.11Z"/><path class="cls-6" d="M105.92,36.76c1.6,3.78,4.78,7.63,8.75,9.06.25.09.35-.27.17-.41a42.28,42.28,0,0,1-4.91-3.83,25.22,25.22,0,0,1-3.76-5,.14.14,0,0,0-.25.14Z"/><path class="cls-6" d="M90.2,54.7c.64-.61,1.15-1.32,1.84-1.89s1.43-1,2.1-1.55c.18-.15,0-.42-.21-.38a6.72,6.72,0,0,0-4.07,3.62c-.08.2.2.33.34.2Z"/><path class="cls-6" d="M117.56,62.75c3.28,2.26,6.81,4.19,8,8.29a.25.25,0,0,0,.48-.07c0-2.22-1.38-3.94-3-5.35-1.38-1.23-3.5-3.34-5.47-3.09a.12.12,0,0,0-.06.22Z"/><path class="cls-6" d="M115.79,75.9a10.6,10.6,0,0,1,2.59,2.67,9.42,9.42,0,0,1,1.1,3.89c0,.18.3.25.34.05.53-2.65-1.25-6-3.92-6.8-.11,0-.21.12-.11.19Z"/><path class="cls-6" d="M133.33,45c-.78-.52-1.64-.9-2.43-1.41-.6-.38-1.34-1.18-2.08-1.12a.27.27,0,0,0-.26.34c.16.83,1.35,1.27,2,1.6a7.94,7.94,0,0,0,2.67.85c.15,0,.17-.19.07-.26Z"/><path class="cls-6" d="M138.91,67a32.77,32.77,0,0,0-2.26,4.32c-.76,1.44-1.65,2.82-2.37,4.28-.11.22.19.5.36.28a28.1,28.1,0,0,0,2.56-4.24,16.85,16.85,0,0,0,1.93-4.55.12.12,0,0,0-.22-.09Z"/><path class="cls-6" d="M135.43,77.91a50.24,50.24,0,0,1-5.84,9.89c-.17.23.19.46.38.29a19.78,19.78,0,0,0,5.8-10c0-.19-.25-.34-.34-.14Z"/><polygon class="cls-6" points="107.61 8.9 104.23 8.9 99.99 9.2 97.69 9.65 93.98 10.85 91.37 12.09 91.37 12.65 94.99 13.63 97.97 13.88 99.84 14.5 103.49 14.76 106.4 11.33 107.61 8.9"/><path class="cls-6" d="M84.36,49.5,81,51.79a27.75,27.75,0,0,1-3.28,1,32.36,32.36,0,0,0-3.35,1l-3.17.34-1.93.43-1.87.63-1.66,1.16,3.58.58a12.69,12.69,0,0,0,2.68.16,32.45,32.45,0,0,1,4.45.41l2.83-.57,4-.2,1.06-3.27.22-2.62Z"/><path class="cls-7" d="M119.08,65.71c.25.41.74.52,1.15.76A9.66,9.66,0,0,1,122,67.79c1.06,1,1.42,2.34,2.17,3.56a.38.38,0,0,0,.71-.19c0-1.54-1.21-3-2.3-3.94-.74-.66-2.46-2-3.5-1.55a.06.06,0,0,0,0,0Z"/><path class="cls-7" d="M114.72,77.07A10.11,10.11,0,0,1,116,78.62c.32.55.5,1.17.83,1.72a.33.33,0,0,0,.6-.17A4.09,4.09,0,0,0,115,76.56c-.31-.13-.48.3-.3.51Z"/><path class="cls-7" d="M83.3,56.83a6.74,6.74,0,0,0-.81,3c0,.43.51.58.79.33,1.14-1,2.26-2.06,3.38-3.1a17.27,17.27,0,0,0,3-3c.26-.4-.25-.86-.65-.64a17.52,17.52,0,0,0-3.12,2.85c-1.09,1.06-2.19,2.13-3.27,3.21l.8.33a11.33,11.33,0,0,1,.53-2.7.36.36,0,0,0-.65-.28Z"/><path class="cls-7" d="M82.93,59.36a2.18,2.18,0,0,1-.21.22.35.35,0,0,0-.06.43l.06.1a.21.21,0,0,0,.3.08l.13,0a.37.37,0,0,0,.16-.4l0-.24a.21.21,0,0,0-.35-.14Z"/><path class="cls-7" d="M139.57,67.67a17.32,17.32,0,0,0-3,5,5.52,5.52,0,0,0-.31,4.54c.19.44.85.12.75-.31-.87-3.64,1.91-5.9,2.59-9.2,0,0,0,0-.05,0Z"/><path class="cls-7" d="M138.15,72.18a12.52,12.52,0,0,1-.87,3.57.34.34,0,0,0,.56.33,3.13,3.13,0,0,0,.89-1.89,7.32,7.32,0,0,0,0-2.09c0-.33-.58-.24-.58.08Z"/><path class="cls-7" d="M134.67,81.79c-1.41,2.62-2.42,5.39-4.07,7.88-1.79,2.68-4.09,4.77-6.26,7.11a.57.57,0,0,0,.69.9c5.07-2.9,9.87-9.82,10.33-15.7a.37.37,0,0,0-.69-.19Z"/><path class="cls-8" d="M103.73,100.88c1.85.59,4,0,5.87-.31,2.43-.36,5.19-.47,7.48-1.37a.53.53,0,0,0-.14-1c-2.23-.14-4.57.51-6.78.87s-4.69.36-6.46,1.63a.12.12,0,0,0,0,.21Z"/><path class="cls-8" d="M96.28,88.17c2.58.09,5.18-.78,7.66-1.4s5.31-1,7.48-2.26a.5.5,0,0,0-.25-.93c-2.52,0-5.19,1.11-7.62,1.75s-5.16,1-7.42,2.28a.3.3,0,0,0,.15.56Z"/><path class="cls-8" d="M100.61,78.24a4.21,4.21,0,0,0-.43,3.38c.27,1,1,2.37,2.1,2.53a.42.42,0,0,0,.48-.61c-.41-.76-1.14-1.24-1.51-2.06a4.8,4.8,0,0,1-.18-3,.25.25,0,0,0-.46-.2Z"/><path class="cls-8" d="M104.52,88.05c1.19,2,2.48,3.63,3.14,5.91s.42,4.38.48,6.68a.28.28,0,0,0,.55.08c1.44-4-.53-10.35-3.93-12.91-.15-.11-.33.1-.24.24Z"/><path class="cls-9" d="M75.9,107.19a7.4,7.4,0,0,0,3,.52c.87.05,2.11.4,2.73-.35a.52.52,0,0,0,.08-.6c-.58-.81-1.51-.59-2.41-.6a8.28,8.28,0,0,0-3.29.29c-.29.12-.45.58-.1.74Z"/><path class="cls-9" d="M70.63,99.07c1.48,0,2.86-1.15,3.93-2.07a15.4,15.4,0,0,0,3.23-3.92.75.75,0,0,0-1.29-.76,14.53,14.53,0,0,1-2.8,3.53c-1,.94-2.44,1.56-3.31,2.63a.35.35,0,0,0,.24.59Z"/><path class="cls-9" d="M56.61,124.71c7.08.37,14.41-.65,21.49-1.07,6.74-.4,14-.07,20.56-1.65.23-.06.15-.37-.06-.4a61.2,61.2,0,0,0-10.74.16l-10.74.62c-6.81.38-13.92.23-20.64,1.36-.58.1-.41,1,.13,1Z"/><path class="cls-9" d="M99.12,122.2c-.29-4.17-2.94-7.88-4.43-11.65-.14-.36-.71-.2-.57.15,1.54,3.79,2.18,8.32,4.86,11.56a.08.08,0,0,0,.14-.06Z"/><path class="cls-9" d="M98.17,119.69a8.05,8.05,0,0,0,.62,1.91c.19.47.25,1.08.77,1.27a.22.22,0,0,0,.24-.09c.24-.49-.15-1-.35-1.48a7.69,7.69,0,0,0-.84-1.73c-.12-.16-.47-.15-.44.12Z"/><path class="cls-9" d="M97.09,119.2a5,5,0,0,1-.79,2.47c-.25.41.38.77.65.37a4.84,4.84,0,0,0,.8-2.84.33.33,0,0,0-.66,0Z"/><path class="cls-9" d="M97.44,120.63a1.22,1.22,0,0,1-.45.73.33.33,0,0,0,0,.41l0,.07a.34.34,0,0,0,.53-.07,1.21,1.21,0,0,0,.23-1.14.16.16,0,0,0-.31,0Z"/><path class="cls-9" d="M97.78,121.44a.62.62,0,0,0,1.07,0,.3.3,0,0,0-.11-.4c-.23-.12-.54.3-.65.19s-.42,0-.31.24Z"/><path class="cls-9" d="M97.69,120.78a3.58,3.58,0,0,1-.33.84c-.42.7,1,.93.8.1a3.73,3.73,0,0,1-.06-.88.21.21,0,0,0-.41-.06Z"/><path class="cls-9" d="M80,107.64a12.42,12.42,0,0,0,1.71,2.91c.66,1,1.29,2.1,1.86,3.2.48.94,1.93.1,1.43-.84a28.33,28.33,0,0,0-2-3.33,7.2,7.2,0,0,0-2.34-2.41.42.42,0,0,0-.61.47Z"/><path class="cls-9" d="M90.94,103.77c1.8.14,3.58-.62,5.32-1s3.76-.4,5.34-1.24a.63.63,0,0,0-.15-1.13c-1.8-.44-3.88.27-5.64.72s-3.75.9-5.06,2.21a.27.27,0,0,0,.19.46Z"/><path class="cls-9" d="M71.47,104.17a7.47,7.47,0,0,0,3.86,1.39,10.57,10.57,0,0,0,4.3.1.71.71,0,0,0,0-1.36c-1.29-.3-2.65-.17-4-.35a16.67,16.67,0,0,0-3.9-.49c-.32,0-.58.45-.29.71Z"/><path class="cls-10" d="M42.39,98.28a15.9,15.9,0,0,0,4.72.18c.23,0,.34-.41.06-.45a16,16,0,0,0-4.78-.11c-.19,0-.18.34,0,.38Z"/><path class="cls-10" d="M43.68,107.47l1.35-.6a4.46,4.46,0,0,0,1.17-.6c.1-.1,0-.23-.13-.21a4.27,4.27,0,0,0-1.21.51l-1.33.65c-.17.08,0,.33.15.25Z"/><path class="cls-10" d="M44.75,109.43c4.57-.54,11.78-4.64,9.85-10.29a.16.16,0,0,0-.3,0c-.72,2.84-1.31,5.23-3.88,7-1.79,1.24-3.9,1.8-5.78,2.86-.18.1-.11.44.11.41Z"/><path class="cls-10" d="M54.09,101.48a5.64,5.64,0,0,0,0,1.74,3.08,3.08,0,0,0,.27,1.57.21.21,0,0,0,.35,0,3.34,3.34,0,0,0,0-1.69,5.78,5.78,0,0,0-.35-1.65c0-.1-.2-.07-.23,0Z"/><path class="cls-10" d="M54.36,104.1a6.09,6.09,0,0,0-1.11,1c-.14.2.14.47.33.33a5.44,5.44,0,0,0,1-1.1.14.14,0,0,0-.2-.2Z"/><path class="cls-10" d="M55.31,92.87a2,2,0,0,0-2,1c-.44.63-.75,1.73,0,2.27a.32.32,0,0,0,.47-.2c.2-.55,0-1.1.3-1.64a3,3,0,0,1,1.32-1.15.15.15,0,0,0,0-.27Z"/><path class="cls-10" d="M54.23,93.45a1.34,1.34,0,0,1,.18,1.24c-.16.45-.53.57-.77.93a.32.32,0,0,0,.27.48c.61.06,1.1-.77,1.23-1.27a1.91,1.91,0,0,0-.42-1.76c-.23-.26-.69.08-.49.38Z"/><path class="cls-10" d="M54,93.73a.9.9,0,0,1,.87,0c.3.18.27.46.33.77s.7.37.83,0a1.3,1.3,0,0,0-2.3-1.1c-.09.16.07.41.27.34Z"/><path class="cls-10" d="M55.46,94.1a1.52,1.52,0,0,1-1.54,1.14l.2.74a1.7,1.7,0,0,0,.75-1c.09-.39.09-.93-.32-1.12A.34.34,0,0,0,54,94c-.18.45.19.88-.32,1.25-.29.22-.22.75.2.74A2.14,2.14,0,0,0,56,94.17c0-.33-.48-.38-.57-.07Z"/><path class="cls-10" d="M54.44,93.83a.77.77,0,0,0-.78.87.7.7,0,0,0,1.06.49.23.23,0,0,0-.06-.41c-.19,0-.77-.41-.16-.54.23,0,.18-.43-.06-.41Z"/><path class="cls-10" d="M54.1,94.51a1.47,1.47,0,0,0,.51-.57.2.2,0,0,0-.27-.27,1.52,1.52,0,0,0-.56.51.23.23,0,0,0,.32.33Z"/><path class="cls-10" d="M53.68,94.43a2.94,2.94,0,0,0,.93-1.22.21.21,0,0,0-.3-.23,3.07,3.07,0,0,0-.88,1.3c-.06.16.15.24.25.15Z"/><path class="cls-10" d="M42.53,89.17c-.15,1.29,1.83,2.44,2.8,3,1.27.7,3.06,1.46,4.5.88a.22.22,0,0,0,.05-.4c-1.29-.73-2.86-.82-4.18-1.55-1-.55-1.94-1.92-3.08-2,0,0-.09,0-.09.09Z"/><path class="cls-10" d="M48.38,92.42a5.39,5.39,0,0,0,2.15.17c.33,0,.32-.6,0-.66a5.37,5.37,0,0,0-2.15.07.22.22,0,0,0,0,.42Z"/><path class="cls-10" d="M49.11,92.4a1.6,1.6,0,0,0,1.14-.23c.13-.1,0-.28-.09-.33a1.65,1.65,0,0,0-1.1.18.2.2,0,0,0,0,.38Z"/><path class="cls-10" d="M42.72,89.67c-.39.2-.31,1.22-.17,1.56a.2.2,0,0,0,.38,0c.06-.16.08-1.71-.21-1.56Z"/><path class="cls-10" d="M42.32,90.14A3.34,3.34,0,0,0,42,91.51a.16.16,0,0,0,.29.08,3.25,3.25,0,0,0,.33-1.41c0-.16-.2-.16-.25,0Z"/><path class="cls-10" d="M70.22,56.34c3.66,1,9.27,1,12.74-.65.34-.16.12-.6-.18-.64-2.18-.25-4.51.3-6.71.45a49.77,49.77,0,0,0-5.85.47c-.19,0-.17.32,0,.37Z"/><path class="cls-10" d="M94.66,13.43a10.37,10.37,0,0,0,8.75,1.28.5.5,0,0,0-.13-1c-1.42-.15-2.86.06-4.3-.07s-2.78-.55-4.19-.57a.19.19,0,0,0-.13.33Z"/><path class="cls-11" d="M42.81,88.59c1.16,2.34,4.55,4,7,2.78a.25.25,0,0,0-.12-.47c-2.67.14-4.77-.33-6.46-2.57a.26.26,0,0,0-.44.26Z"/><path class="cls-11" d="M49,91.59c.49.07,1.06,0,1.33.45s-.17,1.73-.2,2.13l-.38,4.25a.31.31,0,0,0,.24.31l1.65.24c.4.06.58-.56.17-.62l-1.1-.17a.58.58,0,0,1-.22-.82,10.53,10.53,0,0,1,.15-1.86c.1-1.33.22-2.66.28-4a.27.27,0,0,0-.26-.27c-.55,0-1.08,0-1.63.09-.13,0-.19.23,0,.26Z"/><path class="cls-11" d="M52.77,98.16c0-2.28-.76-6,2.45-6.43A1.74,1.74,0,0,1,57,94.38c-.54,1.13-1.75,1.52-2.44,2.5-.09.12.06.25.18.23A4.26,4.26,0,0,0,58,93.66,2.3,2.3,0,0,0,56,91c-3.95-.53-4.48,4.47-3.53,7.16a.15.15,0,0,0,.29,0Z"/><path class="cls-11" d="M55,97.08a49.61,49.61,0,0,0-.25,7.71.32.32,0,0,0,.64,0,50.22,50.22,0,0,0,0-7.66c0-.18-.32-.26-.35,0Z"/><path class="cls-11" d="M41.66,88.47C42.11,93,40.39,96.16,38,99.78c-.14.21.16.39.33.25,3.3-2.57,4.4-7.6,3.94-11.56,0-.35-.6-.36-.56,0Z"/><path class="cls-11" d="M37.87,99.66c.62,1.93,2.05,3.64,3.2,5.28a42.42,42.42,0,0,0,3.82,4.93.24.24,0,0,0,.37-.29c-1.16-1.83-2.55-3.51-3.81-5.28A29.41,29.41,0,0,0,38,99.6s-.14,0-.11.06Z"/><path class="cls-11" d="M45.41,110A60.3,60.3,0,0,0,53.83,106c.23-.14.08-.56-.2-.46a59.8,59.8,0,0,0-8.35,4.1c-.15.09-.05.37.13.3Z"/><path class="cls-11" d="M51.88,107l2.06-1.61a11.8,11.8,0,0,0,2-1.69.2.2,0,0,0-.24-.31,12.17,12.17,0,0,0-2,1.53l-2.08,1.8c-.2.17.08.43.27.28Z"/><path class="cls-11" d="M42.73,107.22c2.33-.52,5.09-1.49,6.78-3.28a.21.21,0,0,0-.25-.33c-1,.51-2,1.24-3,1.79A32.85,32.85,0,0,1,42.67,107a.1.1,0,0,0,.06.19Z"/><path class="cls-11" d="M56.37,103.93c4.11-.13,8.2-.45,12.33-.52a.29.29,0,0,0,0-.57,30.91,30.91,0,0,0-12.37.82.14.14,0,0,0,0,.27Z"/><path class="cls-11" d="M60.37,103.71c2.26,0,4.84.41,7.06,0a.24.24,0,0,0,0-.46c-2.22-.43-4.8,0-7.06,0a.25.25,0,0,0,0,.5Z"/><path class="cls-11" d="M62.32,96A29.42,29.42,0,0,0,70,97.84c.31,0,.33-.42.07-.52a29.15,29.15,0,0,0-7.73-1.6c-.15,0-.15.2,0,.25Z"/><path class="cls-11" d="M65.7,97a14.61,14.61,0,0,0,3-.08.14.14,0,0,0,0-.26,15.33,15.33,0,0,0-3-.07.21.21,0,0,0,0,.41Z"/><path class="cls-11" d="M69.18,96.9a8.08,8.08,0,0,1,.89,5.81c0,.32.41.61.58.25a6.13,6.13,0,0,0-1.15-6.31c-.15-.17-.43.06-.32.25Z"/><path class="cls-11" d="M42,95.19c1.82,0,4,.21,5.74-.4.24-.09.28-.47,0-.53-1.81-.42-3.93,0-5.74.25-.43,0-.45.68,0,.68Z"/><path class="cls-11" d="M42.61,95.44a.92.92,0,0,0,.77,1.19,1,1,0,0,0,.87-1.27.28.28,0,0,0-.27-.21c-.52.06-1,.55-.77,1.09a.25.25,0,0,0,.46-.06c.07-.22.1-.43.38-.46l-.35-.21c.24.73-1,.82-.84,0a.13.13,0,0,0-.25-.07Z"/><path class="cls-11" d="M42.49,94.87a6.68,6.68,0,0,0,.73-1.37c.07-.25-.26-.35-.4-.16a6.4,6.4,0,0,0-.63,1.35c-.09.2.18.38.3.18Z"/><path class="cls-11" d="M41.94,91.94c1.42.91,3.48,1.73,5.17,1.13.24-.09.3-.49,0-.55-.8-.17-1.62-.11-2.43-.24a13,13,0,0,1-2.6-.66c-.19-.07-.3.22-.14.32Z"/><path class="cls-11" d="M42.32,97.31a16,16,0,0,0,4.71.44.24.24,0,0,0,.06-.47A15.94,15.94,0,0,0,42.36,97c-.17,0-.22.29,0,.32Z"/><path class="cls-11" d="M69.37,96.81s0,0,0,0a0,0,0,1,0,0,0Z"/><path class="cls-11" d="M69.21,96.84a38.14,38.14,0,0,0,2.24,7.46.3.3,0,0,0,.58-.16,37.71,37.71,0,0,0-2.66-7.37c-.05-.09-.17,0-.16.07Z"/><path class="cls-11" d="M70.63,104.42a41.86,41.86,0,0,0,8.72,2.18c.45,0,.48-.62.1-.75a42.13,42.13,0,0,0-8.78-1.73c-.18,0-.19.25,0,.3Z"/><path class="cls-11" d="M76.67,100.83c.16.12.12.2.22.31a3.43,3.43,0,0,0,.43.32,3.22,3.22,0,0,0,1,.57.25.25,0,0,0,.24-.41,3.38,3.38,0,0,0-1-.6,2.57,2.57,0,0,0-.41-.19c-.13,0-.33,0-.45-.08s-.1,0,0,.08Z"/><path class="cls-11" d="M77.55,101.28l.89.91a2.82,2.82,0,0,0,.85.73.15.15,0,0,0,.2-.2,3,3,0,0,0-.72-.86l-.92-.89c-.2-.2-.5.11-.3.31Z"/><path class="cls-11" d="M77.47,100.94c2.94,4.38,5.46,8.9,8.16,13.42.24.39,1,.13.77-.33a42.51,42.51,0,0,0-8.6-13.35.21.21,0,0,0-.33.26Z"/><path class="cls-11" d="M87.69,100.05c1.7,2.67,3.71,5.12,5.31,7.87a60,60,0,0,1,4.34,9.3c.18.5,1,.29.81-.22-2.1-6.08-5.31-12.81-10.18-17.17-.15-.12-.39,0-.28.22Z"/><path class="cls-11" d="M86.7,114c-4.61.41-9.22,1.3-13.79,2-4.82.79-9.91,1.23-14.62,2.55-.34.1-.29.67.09.65,4.59-.26,9.26-1.41,13.79-2.19,4.86-.83,9.8-1.51,14.58-2.7.19,0,.16-.37,0-.35Z"/><path class="cls-11" d="M60.83,118.2c-2-.55-4.62-1-6.11.78a2.82,2.82,0,0,0,.17,4.08c.32.24.73-.3.43-.56-1.2-1-.55-2.89.68-3.61s3.28-.58,4.8-.46c.13,0,.15-.19,0-.23Z"/><path class="cls-11" d="M54.25,120.13c0,1.4.46,3.67,1.66,4.54.18.13.42-.08.36-.28a14.63,14.63,0,0,0-1-1.86,13,13,0,0,1-.78-2.43.12.12,0,0,0-.23,0Z"/><path class="cls-11" d="M55.38,125c7.46.54,15,0,22.51-.3s15-.78,22.47-1.38c.72-.06.72-1.18,0-1.12-7.49.56-15,1.06-22.47,1.43s-15.06.33-22.51,1.11a.13.13,0,0,0,0,.26Z"/><path class="cls-11" d="M100.2,122.68a34.18,34.18,0,0,0-1.72-8.61.59.59,0,0,0-1.14.32A33.8,33.8,0,0,0,98.88,121c.17.39.75.17.75-.2,0-2.23-.71-4.57-1.15-6.75l-1.14.32a60.35,60.35,0,0,1,2.37,8.36.25.25,0,0,0,.49-.07Z"/><path class="cls-11" d="M75.52,105.84c.31,1.92.61,3.85,1.07,5.74.13.54,1,.31.83-.23-.44-1.89-1-3.74-1.62-5.59a.15.15,0,0,0-.28.08Z"/><path class="cls-11" d="M77.61,111.17c-3.32.82-6.6,1.85-9.93,2.66s-6.78,1.15-10.09,2a.51.51,0,0,0-.35.61c.12.54.24,1.5.35,2.11.06.38.65.28.65-.09,0-.88-.3-1.26.49-1.7a9.71,9.71,0,0,1,2.39-.38c2-.34,4-.77,5.95-1.25a55.92,55.92,0,0,0,10.72-3.55c.25-.11.07-.48-.18-.42Z"/><path class="cls-11" d="M69.41,95.84c4.5-3.93,9.16-4.82,14.94-4.78a.2.2,0,0,0,.06-.39c-5.29-1.5-11.59,1.09-15.23,4.94a.16.16,0,0,0,.23.23Z"/><path class="cls-11" d="M80.7,91a65.91,65.91,0,0,0,11.55-1.14,60.05,60.05,0,0,0,12.15-2.89.17.17,0,0,0-.09-.32c-3.94.71-7.79,1.87-11.75,2.54s-7.93,1-11.9,1.51c-.17,0-.13.3,0,.3Z"/><path class="cls-11" d="M100.49,88.58c.11-.13.22-.25.32-.39s-.08-.25-.18-.18l-.38.33c-.16.15.09.4.24.24Z"/><path class="cls-11" d="M102.51,87a20.8,20.8,0,0,1,3.92,5.26c1,2.06,1.19,4.14,1.81,6.28.06.21.41.24.45,0,.7-4.34-2.45-9.5-5.91-11.89-.22-.15-.44.17-.27.35Z"/><path class="cls-11" d="M105.41,88.9a28,28,0,0,1,1.73,5.32,37.8,37.8,0,0,1,.27,6.29.3.3,0,0,0,.59.08c1.09-3.81,0-8.61-2.24-11.84-.11-.16-.43-.06-.35.15Z"/><path class="cls-11" d="M111.08,84c1.14,2.49,3.21,4.57,4.46,7.07s1.74,5.27,2.91,7.8c.15.34.64.14.65-.18.13-2.82-1.23-5.78-2.52-8.24-1.2-2.28-3-5.38-5.31-6.64a.14.14,0,0,0-.19.19Z"/><path class="cls-11" d="M113.8,88.6A22.86,22.86,0,0,1,116,93.84c.45,1.66.5,3.35.87,5,0,.23.46.25.49,0,.51-3.54-1.32-7.59-3.34-10.4-.11-.15-.36,0-.26.15Z"/><path class="cls-11" d="M110.66,85c-3.12.82-6.9,1.39-9.77,2.89-.24.12-.15.57.14.53,3.23-.39,6.66-2,9.71-3.15a.14.14,0,0,0-.08-.27Z"/><path class="cls-11" d="M107,102.37a32.33,32.33,0,0,0,12.83-1.68.52.52,0,0,0-.28-1c-4.2.92-8.27,1.63-12.55,2.14a.28.28,0,0,0,0,.55Z"/><path class="cls-11" d="M106.37,101.68a49.36,49.36,0,0,0-8.33-.15.41.41,0,0,0,0,.82,49.51,49.51,0,0,0,8.33-.39.14.14,0,0,0,0-.28Z"/><path class="cls-11" d="M103.39,102a18.08,18.08,0,0,0-9.51,1.14c-.29.12-.07.55.21.49,3.11-.63,6.11-1.11,9.28-1.47.08,0,.12-.14,0-.16Z"/><path class="cls-11" d="M98.29,102.32a30.92,30.92,0,0,0-3,1.39.1.1,0,0,0,.07.18c1-.35,2-.85,3.06-1.29.19-.09,0-.36-.16-.28Z"/><path class="cls-11" d="M96,102.88A23.87,23.87,0,0,0,91.3,104c-.13.06-.06.27.07.27a24.9,24.9,0,0,0,4.74-.89c.34-.08.2-.6-.15-.53Z"/><path class="cls-11" d="M92,104.35c4.76-.3,9.68-.52,14.39-1.28a.24.24,0,0,0-.06-.47c-4.75.12-9.62.81-14.33,1.39-.23,0-.24.37,0,.36Z"/><path class="cls-11" d="M123.36,67.49c-1.17-2.49-4.47-4.42-6.71-5.9a43.91,43.91,0,0,0-8.38-4.23A43,43,0,0,0,88.8,54.71c-.75.07-.78,1.23,0,1.2a50.07,50.07,0,0,1,18.67,2.84,49.54,49.54,0,0,1,8.49,4c2.44,1.44,4.66,3.88,7.28,4.88.09,0,.15-.08.12-.16Z"/><path class="cls-11" d="M89.66,55.65c-3.25,1.08-6.3,3.43-7.45,6.77-.06.18.21.29.31.13,1.78-2.94,3.94-5.36,7.21-6.63.17-.06.1-.33-.07-.27Z"/><path class="cls-11" d="M84.2,60.08c-1.57,1.81-2,1.75-1.43-.19.09-.5.2-1,.32-1.49a21,21,0,0,1,.69-2.17,39.93,39.93,0,0,1,2.81-5.29.2.2,0,0,0-.31-.24c-2.78,2.88-4.12,7.46-4.18,11.39,0,.11.13.24.24.19a3.38,3.38,0,0,0,2.09-2.13c.06-.15-.17-.21-.23-.07Z"/><path class="cls-11" d="M90.69,55.23A6,6,0,0,0,87,57.06l.45.45a42.94,42.94,0,0,0,4.2-5.23.31.31,0,0,0-.48-.37A41.52,41.52,0,0,0,87,57.06c-.25.31.16.76.45.45a6.7,6.7,0,0,1,3.31-1.92c.2,0,.16-.38,0-.36Z"/><path class="cls-11" d="M82.77,57a20.46,20.46,0,0,0,2.42-14.59.32.32,0,0,0-.62.09c-.11,2.32,0,4.62-.24,6.94a53.12,53.12,0,0,1-1.76,7.48.11.11,0,0,0,.2.08Z"/><path class="cls-11" d="M83.13,45.68A161.21,161.21,0,0,0,92,28.62c.14-.33-.31-.63-.51-.29a160.56,160.56,0,0,0-8.56,17.23c-.06.14.13.26.21.12Z"/><path class="cls-11" d="M89.88,31c4.87-5.35,9.59-10.83,14.3-16.33,1.37-1.59,4.18-3.86,4.26-6.19A2.4,2.4,0,0,0,106,5.91a.51.51,0,0,0,0,1c3.59.07-.81,5.05-1.24,5.56l-1.92,2.27c-1.48,1.76-3,3.51-4.46,5.28Q94,25.37,89.65,30.78c-.13.16.08.39.23.23Z"/><path class="cls-11" d="M106,6.81c3,1,3.63,4,4.83,6.59a19.65,19.65,0,0,0,2.68,4.23c2.12,2.54,5.18,5.05,8.52,5.62a.38.38,0,0,0,.29-.69c-3.86-2.39-7.38-4.37-9.75-8.45-1.7-2.94-2.57-7.07-6.47-7.67a.19.19,0,0,0-.1.37Z"/><path class="cls-11" d="M116.56,19.68a20.51,20.51,0,0,1,4.79,6c1.2,2.52,1.92,5.23,3.05,7.77a25.69,25.69,0,0,0,9.08,11.28.3.3,0,0,0,.36-.46A41.06,41.06,0,0,1,124,29.34c-1.3-3.55-3.16-8.85-7.35-9.84a.11.11,0,0,0-.11.18Z"/><path class="cls-11" d="M131.17,44.8c5,4.13,11,7.89,9.6,15.4-1.08,5.7-4.35,10.79-6.16,16.26-.07.23.26.34.38.16a49.57,49.57,0,0,0,4.36-9.08c1.27-3.16,2.77-6.53,2.65-10-.2-6.05-5.69-10.46-10.69-12.92-.11-.06-.26.1-.14.19Z"/><path class="cls-11" d="M84.28,49.31c-2.27,1-4.51,2.11-6.85,3-1.84.67-3.81,1-5.58,1.87a.35.35,0,0,0,.18.64c4.17-.23,9.06-2.77,12.47-5.1a.22.22,0,0,0-.22-.37Z"/><path class="cls-11" d="M81,51.55a32.28,32.28,0,0,1-5.12,1.3,49.8,49.8,0,0,0-5.23.65.31.31,0,0,0,0,.59c3.3.64,7.44-.9,10.48-2.06.29-.11.18-.58-.13-.48Z"/><path class="cls-11" d="M74.87,52.19c-1.56.44-3.11.9-4.68,1.31a.65.65,0,0,0,.35,1.25c1.54-.48,3.11-.91,4.66-1.36a.62.62,0,0,0-.33-1.2Z"/><path class="cls-11" d="M70,54.16a8.47,8.47,0,0,0-4.48,2,.32.32,0,0,0,.14.53,83.25,83.25,0,0,0,9,.89c2.88.11,6.28.52,9.07-.3a.32.32,0,0,0,0-.61c-2.75-.53-5.8,0-8.6-.11q-4.72-.12-9.44-.49l.23.54a7.08,7.08,0,0,1,4-1.82c.38,0,.39-.65,0-.6Z"/><path class="cls-11" d="M68.34,56.9c4.62,1.34,9.87,1.57,14.3-.58.43-.21.13-.88-.32-.76-4.7,1.25-9,2-13.86.91a.22.22,0,0,0-.12.43Z"/><path class="cls-11" d="M55,119.53a57.09,57.09,0,0,0-9,3.14c-.16.07,0,.29.11.26a56.44,56.44,0,0,0,9-2.88c.32-.12.2-.62-.14-.52Z"/><path class="cls-11" d="M52.94,120.49c-2.8.69-5.51,1.78-8.22,2.74-.78.28-3,.64-2.95,1.86,0,2.6,6.56.57,7.63.16a.27.27,0,0,0-.14-.53,29,29,0,0,1-4.23.83c-.91.08-1.57.55-1.21-.66.31-1,.93-1,1.89-1.31,2.46-.88,5-1.68,7.35-2.8.17-.08,0-.33-.12-.29Z"/><path class="cls-11" d="M44.06,126.43a41,41,0,0,0,10-1.72.2.2,0,0,0-.06-.39,40.66,40.66,0,0,0-10,1.86c-.13,0-.12.26,0,.25Z"/><path class="cls-11" d="M49.7,125.93a34.2,34.2,0,0,0,5.73-.9.23.23,0,0,0-.06-.45,33.82,33.82,0,0,0-5.7,1.13c-.12,0-.09.24,0,.22Z"/><path class="cls-11" d="M57.32,116.3a42.63,42.63,0,0,0-8.4,2.3c-.2.08-.11.45.11.42a41.77,41.77,0,0,0,8.38-2.41.16.16,0,0,0-.09-.31Z"/><path class="cls-11" d="M53.67,117.68c-1.45.39-3,.72-4.36,1.23-.26.1-.16.5.11.43,1.46-.38,2.89-.94,4.31-1.43.14,0,.09-.27-.06-.23Z"/><path class="cls-11" d="M50.7,118.8a3.31,3.31,0,0,0-3.57,1.88.2.2,0,0,0,.12.3,12.89,12.89,0,0,0,6.17-.34c.21-.08.2-.45-.06-.42a36.07,36.07,0,0,1-6.06.36l.2.25A2.8,2.8,0,0,1,50.64,119c.15,0,.21-.2.06-.22Z"/><path class="cls-11" d="M98.64,88.48a31.58,31.58,0,0,1,3,7c.63,2.55.49,5,.72,7.6a.31.31,0,0,0,.61.08c1.31-4.85-.78-11.26-3.93-15-.18-.21-.49.06-.37.29Z"/><path class="cls-11" d="M101.77,97.54a7.81,7.81,0,0,1,.52,2.39c0,.74-.1,1.47-.05,2.21,0,.15.24.24.32.08.73-1.42.26-3.42-.31-4.82-.12-.29-.59-.17-.48.14Z"/><path class="cls-11" d="M102,102c4.81-.33,10.1-.65,14.74-2a.38.38,0,0,0-.1-.75c-4.85.09-10,1.31-14.68,2.39-.18,0-.15.35,0,.33Z"/><path class="cls-11" d="M111.37,101c2.92,0,6.26-.71,8.57-2.6.33-.27-.09-.69-.41-.54-2.76,1.24-5.15,2.46-8.2,2.88-.14,0-.1.26,0,.26Z"/><path class="cls-11" d="M118.56,99.4c-.75-5.23-3.3-11.26-7.19-14.94-.34-.33-1,.1-.67.52a72,72,0,0,1,4.36,6.53,40.4,40.4,0,0,1,3,8,.26.26,0,0,0,.51-.14Z"/><path class="cls-11" d="M112.73,86.77A3.26,3.26,0,0,0,111,85.33a2.21,2.21,0,0,0-2.15.13.19.19,0,0,0,.13.32,9.22,9.22,0,0,1,1.82-.08,2.77,2.77,0,0,1,1.71,1.22c.1.15.35,0,.25-.15Z"/><path class="cls-11" d="M108.94,86.45a28.93,28.93,0,0,0-4.66.69.33.33,0,0,0,.09.65,30.94,30.94,0,0,0,4.76-.65c.45-.07.25-.75-.19-.69Z"/><path class="cls-11" d="M105.41,89.87l.38,1c.11.3.58.19.49-.13l-.29-1c-.11-.37-.72-.19-.58.16Z"/><path class="cls-11" d="M96.37,85.84a.05.05,0,0,0,0-.1.05.05,0,1,0,0,.1Z"/><path class="cls-11" d="M96.5,90.05c-1.71-2.37-3.42-4.82-5.34-7-.46-.52-1.16.22-.75.74,1.78,2.28,3.84,4.39,5.82,6.5.13.14.39-.05.27-.21Z"/><path class="cls-11" d="M91,83.73a85.87,85.87,0,0,1,8.38-4.83c3.16-1.55,6.49-2.54,9.74-3.87a.24.24,0,0,0-.13-.46c-6.41,1.29-13,5-18.09,9-.07.06,0,.18.1.13Z"/><path class="cls-11" d="M98.09,79.91A36,36,0,0,1,105.71,76c1.57-.58,3.49-1.23,5.05-.1.89.65,1.19,2.16,1.63,3.14.18.39.75.1.67-.28-.47-2.18-1.85-4.48-4.33-4.39-3.69.14-8,3.16-10.82,5.26-.18.13,0,.44.18.31Z"/><path class="cls-11" d="M104.63,75.66c-3.29,1.65-6.63,3.25-9.81,5.09a.34.34,0,0,0,.34.59c3.28-1.66,6.44-3.58,9.61-5.43a.14.14,0,0,0-.14-.25Z"/><path class="cls-11" d="M101.75,77a6.71,6.71,0,0,0-.46,3.83c.19,1.08.62,2.58,1.65,3.12a.28.28,0,0,0,.41-.31c-.27-1-1-1.79-1.28-2.82a7,7,0,0,1,.09-3.71c.08-.27-.31-.36-.41-.11Z"/><path class="cls-11" d="M100.28,77.7c-1.39,1.7-1.35,5.19,1,6.14.39.16.59-.38.37-.63a5.25,5.25,0,0,1-1.53-2.32,4,4,0,0,1,.44-3c.1-.16-.13-.35-.25-.2Z"/><path class="cls-11" d="M100.07,79c-.22,1.39.06,3.64,1.44,4.4A.36.36,0,0,0,102,83a17.75,17.75,0,0,1-1.09-1.76,4.52,4.52,0,0,1-.23-2.06c0-.36-.57-.44-.62-.09Z"/><path class="cls-11" d="M99,81l.54,1.25a3.46,3.46,0,0,0,.58,1.11.34.34,0,0,0,.58-.24,3.6,3.6,0,0,0-.38-1.19l-.52-1.27A.44.44,0,1,0,99,81Z"/><path class="cls-11" d="M90.24,84a26.21,26.21,0,0,1,5.07,4.51c.42.44,1.22-.15.87-.67a12.73,12.73,0,0,0-5.75-4.3c-.27-.11-.42.31-.19.46Z"/><path class="cls-11" d="M90.17,83.37c5.23-2.63,10.39-5.54,15.41-8.54a.53.53,0,0,0-.54-.92C99.94,76.77,94.85,79.8,90,83a.19.19,0,0,0,.19.34Z"/><path class="cls-11" d="M129.59,41.83c.63,1,2,1.78,2.81,2.66s1.68,2.28,2.66,3.26a.4.4,0,0,0,.66-.38,10.16,10.16,0,0,0-2.53-3.4c-.86-.84-2.18-2.2-3.42-2.37-.13,0-.25.1-.18.23Z"/><path class="cls-11" d="M131.65,42.79c1.06,1.64,2.24,3.19,3.2,4.89s1.55,3.61,2.58,5.25c.11.19.47.13.44-.12-.37-3.64-3.2-7.89-6-10.23-.14-.12-.38,0-.27.21Z"/><path class="cls-11" d="M140.58,55a.71.71,0,0,0-.46.3.27.27,0,0,0,0,.3.7.7,0,0,0,.46.3c.74.19.75-1.1,0-.9Z"/><path class="cls-11" d="M140.15,51.72c.15,3.19,1,6.17.78,9.41a31.09,31.09,0,0,1-2.75,9.8c-.14.34.4.54.58.24a22.19,22.19,0,0,0,2.94-9.63c.28-3.09.27-7.13-1.36-9.87a.1.1,0,0,0-.19,0Z"/><path class="cls-11" d="M141.06,61.71c-.74,3.36-1.48,6.74-2.39,10.07s-2.24,6.57-3,9.93c-.1.42.5.72.72.31,3.23-5.92,4.6-13.59,5.3-20.22,0-.39-.59-.47-.67-.09Z"/><path class="cls-11" d="M140.62,66.11c-2.65,6.52-5.5,13.64-6.22,20.69,0,.4.56.45.68.09,2.17-6.83,3.44-13.9,5.84-20.7.07-.19-.23-.26-.3-.08Z"/><path class="cls-11" d="M138.33,76.09c-2.47,5.21-5.45,10.48-7.29,16a.41.41,0,0,0,.75.31c2.81-5,4.7-10.79,6.89-16.13.08-.19-.25-.33-.35-.14Z"/><path class="cls-11" d="M135.47,85.66c-1.88,3.12-4.13,6.17-5.68,9.47a.5.5,0,0,0,.87.5c2-3,3.42-6.57,5.1-9.8a.17.17,0,0,0-.29-.17Z"/><path class="cls-11" d="M133.14,90c-.78,1.25-1.58,2.48-2.38,3.71a8.2,8.2,0,0,0-1.67,3.11.3.3,0,0,0,.45.25,7.89,7.89,0,0,0,2-2.93c.71-1.28,1.42-2.57,2.16-3.84a.3.3,0,0,0-.51-.3Z"/><path class="cls-11" d="M130.43,94.52a26.11,26.11,0,0,1-6,4.86.48.48,0,0,0,.48.82,20.92,20.92,0,0,0,6-5.13c.32-.38-.22-.93-.54-.55Z"/><path class="cls-11" d="M127.18,97.61a5.43,5.43,0,0,1-1.66,1.09c-.53.22-1.12.25-1.65.48a.33.33,0,0,0,.08.59c1.3.18,2.76-.9,3.6-1.79a.26.26,0,0,0-.37-.37Z"/><path class="cls-11" d="M126.27,98.63A16.69,16.69,0,0,1,123,99.84a22.09,22.09,0,0,0-3.06.61c-.29.11-.39.62,0,.69,2.16.37,4.76-1,6.52-2.19a.19.19,0,0,0-.19-.32Z"/><path class="cls-11" d="M121.26,99.42a27.22,27.22,0,0,0-4.32.71.34.34,0,0,0,.09.67,27.78,27.78,0,0,0,4.44-.64c.49-.08.27-.8-.21-.74Z"/><path class="cls-11" d="M112.37,101.18a.05.05,0,0,0,0-.1.05.05,0,1,0,0,.1Z"/><path class="cls-11" d="M114.37,101.53c5.15.38,10.73-.88,14.58-4.48a.33.33,0,0,0-.39-.51c-4.46,2.67-8.9,4.41-14.19,4.06-.6,0-.59.88,0,.93Z"/><path class="cls-11" d="M125,99.29c4.74-3.64,10.44-9.59,11.09-15.87,0-.2-.27-.25-.37-.1-1.63,2.63-2.61,5.58-4.37,8.17a33,33,0,0,1-6.74,7.3c-.28.23.1.73.39.5Z"/><path class="cls-11" d="M130.92,89.59c2.32-4,4.63-8.42,5.43-13a.31.31,0,0,0-.59-.17c-1.73,4.38-3,8.77-5.31,12.93a.27.27,0,0,0,.47.28Z"/><path class="cls-11" d="M108.74,8.42c-.44-.5-.93-1-1.38-1.44a5.5,5.5,0,0,0-1.28-1.31.18.18,0,0,0-.25.25,5.55,5.55,0,0,0,1.37,1.22c.51.43,1,.89,1.5,1.32,0,0,.07,0,0,0Z"/><path class="cls-11" d="M107.53,6.56a8.34,8.34,0,0,0,1.39,2c.15.13.43,0,.36-.2a8.48,8.48,0,0,0-1.34-2.06c-.18-.24-.58,0-.41.24Z"/><path class="cls-11" d="M42.53,88.28c-5.3-5.07-9.39-13.69-7.25-21.13,1.39-4.86,5.63-6,10.16-6.35a47.27,47.27,0,0,1,11.46.36C64.12,62.33,71.2,65.65,75.28,72c3.68,5.7,4.88,13.44,1,19.35C71.86,98,63.32,100.19,56,101.81c-.62.14-.36,1.09.27,1,7.31-1.61,15.56-3.8,20.28-10.1,4.48-6,3.81-14.09.18-20.32C72.58,65.3,65,61.48,57.16,60.2a49,49,0,0,0-12.91-.29c-3.51.37-7.06,1.25-8.94,4.52-4.5,7.86.66,19,6.52,24.55.46.44,1.16-.26.7-.7Z"/><path class="cls-11" d="M111.74,85.18c.28-1.73.81-10.57,4.37-8,.27.19.54-.27.26-.46a2.55,2.55,0,0,0-3.67,1.18c-1.09,2-1,5-1.32,7.23,0,.21.33.26.36.05Z"/><path class="cls-11" d="M114.55,76.65a8.14,8.14,0,0,0,2.28-13.28.28.28,0,0,0-.39.39c3.53,4.22,2.76,9.74-2.12,12.5-.26.15,0,.51.23.39Z"/><path class="cls-11" d="M116.55,62.59a13.27,13.27,0,0,1,1.91,3,7.46,7.46,0,0,1,.28,3.89c-.07.4.54.58.63.17.56-2.47-.21-6-2.65-7.25-.1-.05-.25.06-.17.17Z"/><path class="cls-11" d="M118.63,67.09a10.1,10.1,0,0,1-.53,3.41,22.45,22.45,0,0,1-1.66,3c-.09.17.11.42.29.29,1.94-1.39,2.59-4.46,2.35-6.7,0-.28-.46-.29-.45,0Z"/><path class="cls-11" d="M118.43,71a12.84,12.84,0,0,1-1,1.72,12,12,0,0,0-1.25,1.53c-.07.15,0,.36.23.3a3.39,3.39,0,0,0,1.4-1.36,6.86,6.86,0,0,0,1-2c.06-.22-.28-.37-.38-.16Z"/><path class="cls-11" d="M117.23,72.63c-.65.38-1.54,1.13-1.53,2a.15.15,0,0,0,.26.11,8.5,8.5,0,0,0,.6-.84,3.49,3.49,0,0,1,.92-.8.25.25,0,0,0-.25-.43Z"/><path class="cls-11" d="M117,74.22a7.1,7.1,0,0,0-2,1.83c0,.06,0,.15.1.13a6.91,6.91,0,0,0,2.1-1.71c.18-.16-.07-.39-.25-.25Z"/><path class="cls-11" d="M117.11,77.41a.07.07,0,0,0,0-.14.07.07,0,0,0,0,.14Z"/><path class="cls-11" d="M117.86,78.35h0s0,0,0,0Z"/><path class="cls-11" d="M117.81,78.14c0-.73-.78-1.47-1.36-1.84a2.12,2.12,0,0,0-2.21-.14c-1.66,1-1.19,3.53-1.67,5.09a.26.26,0,0,0,.43.25c1-1,.64-2.36,1-3.56a1.35,1.35,0,0,1,2.16-.87c.54.33.92,1,1.54,1.14a.07.07,0,0,0,.09-.07Z"/><path class="cls-11" d="M113.66,76.79a32.55,32.55,0,0,0-2.46,7.26c0,.19.22.33.33.14a32,32,0,0,0,2.56-7.28c.08-.29-.32-.38-.43-.12Z"/><path class="cls-11" d="M112.81,80.26c-.41,1-.82,2.08-1.27,3.1-.16.37.36.69.55.32a18.34,18.34,0,0,0,2.08-7.09.33.33,0,0,0-.64-.08,36.43,36.43,0,0,1-2,6.93l.61.17c.36-1.09.77-2.15,1.17-3.22.12-.3-.36-.43-.48-.13Z"/><path class="cls-11" d="M114.33,77.66c.1-.59.13-1.18.21-1.77l-.29.37c.71-.17,1.17.21,1.72.58.21.15.48-.1.42-.33a1.86,1.86,0,0,0-2.35-1,.41.41,0,0,0-.28.38c0,.57,0,1.14.11,1.7,0,.24.42.35.46.07Z"/><path class="cls-11" d="M116.15,75.65a9.62,9.62,0,0,0,1.42-10.41c-.07-.13-.26,0-.23.1a13.69,13.69,0,0,1-1.43,10.13.15.15,0,0,0,.24.18Z"/><path class="cls-11" d="M118.11,65.64a.05.05,0,0,0,0-.1.05.05,0,1,0,0,.1Z"/><path class="cls-11" d="M103.11,15a.17.17,0,0,0,0-.33.17.17,0,0,0,0,.33Z"/><path class="cls-11" d="M107.61,6.88s0-.07,0-.07,0,.07,0,.07Z"/><path class="cls-11" d="M106.61,10.45h-.25a.15.15,0,0,0,0,.29h.25a.14.14,0,0,0,0-.28Z"/><path class="cls-11" d="M107.16,9c-2.44-1-5.65-.53-8.19,0a26.66,26.66,0,0,0-8.41,3.2.33.33,0,0,0,.07.59,44.64,44.64,0,0,0,12.48,2.29c.25,0,.32-.41.06-.45A74.41,74.41,0,0,1,90.8,12.14l.08.59a27.68,27.68,0,0,1,8.3-3c2.65-.47,5.38-.08,8-.57.11,0,.08-.15,0-.18Z"/></svg>