<svg xmlns="http://www.w3.org/2000/svg" viewBox="0 0 3777.93 2365.34"><defs><style>.cls-1{isolation:isolate;}.cls-2{fill:#b5d3eb;}.cls-3{fill:#bec9ec;}.cls-4{fill:#e2e8f6;}.cls-10,.cls-5{fill:#fff;}.cls-10,.cls-26,.cls-43,.cls-49,.cls-6{mix-blend-mode:soft-light;}.cls-7{fill:#8c8029;}.cls-8{fill:#bc9969;}.cls-9{fill:#fd6041;}.cls-11{fill:#a5a5a5;}.cls-12{fill:#b5b5b5;}.cls-13{fill:#dbb889;}.cls-14{fill:#ccb676;}.cls-15{fill:#c19e74;}.cls-16{fill:#a59365;}.cls-17{fill:#ddb372;}.cls-18{fill:#b29b86;}.cls-19{fill:#ddd;}.cls-20{fill:#9fb6bf;}.cls-21{fill:#a4baaf;}.cls-22{fill:#a4b2a9;}.cls-23{fill:#bdd1c6;}.cls-24{fill:#444;}.cls-25{fill:#e2585e;}.cls-27{fill:#4c3a3a;}.cls-28{fill:#281e1e;}.cls-29{fill:#eaaf75;}.cls-30{fill:#564313;}.cls-31,.cls-38{fill:#d32a2a;}.cls-32{fill:#4f4838;}.cls-33{fill:#604942;}.cls-34{fill:#af8f3e;}.cls-35{fill:#baab80;}.cls-36{fill:#333;}.cls-37{fill:#cadadd;}.cls-38{stroke:#d32a2a;}.cls-38,.cls-45{stroke-miterlimit:10;}.cls-39{fill:#493d3d;}.cls-40{fill:#756a6a;}.cls-41{fill:#211c1c;}.cls-42{fill:#424242;}.cls-43{fill:#e1fffd;}.cls-44{fill:#3a3a3a;}.cls-45{fill:none;stroke:#000;}.cls-46{fill:#3f3535;}.cls-47{fill:#828282;}.cls-48{fill:#353535;}.cls-49{fill:#bae5e1;}.cls-50{fill:#8e8e8e;}.cls-51{fill:#ccc;}</style></defs><g class="cls-1"><g id="Layer_2" data-name="Layer 2"><g id="Layer_11" data-name="Layer 11"><path class="cls-2" d="M3523.7,1274.06h-1.17A159.58,159.58,0,0,1,3363,1114.48h0a159.59,159.59,0,0,1,159.58-159.59h3.18A145.25,145.25,0,0,0,3671,809.64h0a145.25,145.25,0,0,0-145.26-145.25H3425.44a127.17,127.17,0,0,1-127.16-127.17h0a127.18,127.18,0,0,0-127.17-127.17h-1053a85.73,85.73,0,0,1-85.73-85.73h0a85.74,85.74,0,0,0-85.74-85.74H1128.94a165.21,165.21,0,0,0-165.2,165.21h0A165.2,165.2,0,0,0,1128.94,569h160.38a136.59,136.59,0,0,1,136.59,136.59h0a136.58,136.58,0,0,1-136.59,136.58H628.16a136.7,136.7,0,0,0-136.7,136.69h0a136.7,136.7,0,0,0,136.7,136.7H2380.38v219.83H672.83c-143.2,0-259.29,116.09-259.29,259.3h0c0,143.2,116.09,259.29,259.29,259.29H1951.45v-71.44H3523.7c140.41,0,254.23-113.82,254.23-254.23h0C3777.93,1387.89,3664.11,1274.06,3523.7,1274.06Z"/></g><g id="Layer_10" data-name="Layer 10"><path class="cls-3" d="M3322.14,2053.06,3377,2107.9c6.84,6.84,17.45-3.77,10.61-10.6l-54.85-54.85c-6.83-6.83-17.44,3.77-10.6,10.61Z"/><path class="cls-3" d="M3332.74,2107.9l54.85-54.84c6.83-6.84-3.77-17.45-10.61-10.61l-54.84,54.85c-6.84,6.83,3.77,17.44,10.6,10.6Z"/><path class="cls-3" d="M3435.56,2053.06l54.85,54.84c6.83,6.84,17.44-3.77,10.6-10.6l-54.84-54.85c-6.84-6.83-17.45,3.77-10.61,10.61Z"/><path class="cls-3" d="M3446.17,2107.9l54.84-54.84c6.84-6.84-3.76-17.45-10.6-10.61l-54.85,54.85c-6.83,6.83,3.77,17.44,10.61,10.6Z"/><path class="cls-3" d="M3544.38,2053.06l54.85,54.84c6.83,6.84,17.44-3.77,10.61-10.6L3555,2042.45c-6.83-6.83-17.44,3.77-10.61,10.61Z"/><path class="cls-3" d="M3555,2107.9l54.85-54.84c6.83-6.84-3.77-17.45-10.61-10.61l-54.85,54.85c-6.83,6.83,3.77,17.44,10.61,10.6Z"/><rect class="cls-4" x="103.58" y="728.46" width="547.1" height="224.43" rx="108.51"/><path class="cls-5" d="M1186.9,375.23l54.85,54.84c6.83,6.84,17.44-3.77,10.61-10.6l-54.85-54.85c-6.83-6.83-17.44,3.77-10.61,10.61Z"/><path class="cls-5" d="M1197.51,430.07l54.85-54.84c6.83-6.84-3.77-17.45-10.61-10.61l-54.85,54.85c-6.83,6.83,3.77,17.44,10.61,10.6Z"/><path class="cls-4" d="M1103.75,334.16,1055,382.92a17.5,17.5,0,0,0,0,24.76l48.76,48.77c11,11,29.89,3.22,29.89-12.38V346.54C1133.64,330.94,1114.78,323.13,1103.75,334.16Z"/><circle class="cls-4" cx="2413.13" cy="218.16" r="149.76"/><path class="cls-3" d="M2555.39,321.21l54.85,54.85c6.83,6.83,17.44-3.77,10.61-10.61L2566,310.61c-6.83-6.84-17.44,3.77-10.61,10.6Z"/><path class="cls-3" d="M2566,376.06l54.85-54.85c6.83-6.83-3.77-17.44-10.61-10.6l-54.85,54.84c-6.83,6.84,3.77,17.45,10.61,10.61Z"/><path class="cls-3" d="M2716.72,321.21q27.44,27.42,54.85,54.85c6.83,6.83,17.44-3.77,10.61-10.61l-54.85-54.84c-6.83-6.84-17.44,3.77-10.61,10.6Z"/><path class="cls-3" d="M2727.33,376.06l54.85-54.85c6.83-6.83-3.77-17.44-10.61-10.6l-54.85,54.84c-6.83,6.84,3.77,17.45,10.61,10.61Z"/><path class="cls-4" d="M53.89,1210.22,5.13,1259a17.5,17.5,0,0,0,0,24.76l48.76,48.77c11,11,29.89,3.21,29.89-12.38V1222.6C83.78,1207,64.92,1199.19,53.89,1210.22Z"/><path class="cls-3" d="M3495.24,531.25c-.24,26.64-16.82,51.83-42.22,61a66,66,0,0,1-73.27-19.8c-17.41-20.86-19.2-51.65-5.3-74.77s41.72-35.7,68.2-30.3a65.81,65.81,0,0,1,52.59,63.89c.12,12.87,20.12,12.9,20,0a86.19,86.19,0,0,0-56.28-80c-32.92-12.22-72-1.46-94.18,25.72-22.52,27.64-26.12,67.22-7.6,98s54.94,46.49,90.12,39.62c39.35-7.67,67.58-43.69,67.94-83.31C3515.36,518.38,3495.36,518.37,3495.24,531.25Z"/></g><g id="Layer_12" data-name="Layer 12"><g class="cls-6"><path class="cls-5" d="M1978.8,947.35h-89.15c-32.81,0-65.63.08-98.44,0-3.49,0-7-.2-10.43-.53-.58-.05-2.92-.47-.09,0-.9-.15-1.8-.29-2.69-.46q-2.67-.5-5.3-1.16a92.08,92.08,0,0,1-11.45-3.71c2.85,1.12-1.83-.87-2.47-1.18q-2.37-1.17-4.66-2.46a86.1,86.1,0,0,1-9.87-6.49c2.42,1.85-1.52-1.33-2-1.78q-2-1.73-3.83-3.56c-1.24-1.23-2.45-2.49-3.61-3.78-.59-.65-1.16-1.3-1.73-2-.2-.23-2.87-3.6-.93-1a84.89,84.89,0,0,1-5.82-8.73c-.89-1.52-1.74-3.06-2.53-4.62-.4-.79-.79-1.58-1.17-2.38-.14-.3-1.79-4.28-.6-1.27a92.88,92.88,0,0,1-3.38-10.15c-.46-1.74-.88-3.5-1.23-5.27-.18-.89-.33-1.78-.5-2.67-.84-4.36.21,3-.23-1.45-.52-5.3-.52-10.57-.52-15.88V732.17c0-1.12,0-2.24,0-3.37,0-2.59.11-5.17.33-7.75.07-.92.17-1.84.27-2.75.27-2.4-.39,2.27,0-.09s.81-4.45,1.34-6.65a95.61,95.61,0,0,1,3.16-10.25c.14-.39,1.17-3,.47-1.29s.4-.87.58-1.25c.94-2,1.92-3.95,3-5.88A94.08,94.08,0,0,1,1731,684c.23-.34,1.91-2.52.79-1.1s.61-.72.88-1c1.43-1.65,2.86-3.28,4.38-4.85,2.44-2.51,5-4.8,7.71-7.06,1.75-1.49-1.79,1.29.06-.07.88-.65,1.77-1.29,2.67-1.91q2.43-1.68,5-3.19a92.28,92.28,0,0,1,9.37-4.85c2.33-1.05-3.29,1.13.71-.27.84-.3,1.66-.63,2.5-.92q2.85-1,5.76-1.79c1.73-.48,3.48-.9,5.25-1.28.68-.14,6.65-1.12,3.41-.7a89.84,89.84,0,0,1,11.12-.68H1974c4.87,0,9.69,0,14.55.52,3,.3.71.11.1,0l2.69.46c1.78.34,3.54.72,5.29,1.16a94.49,94.49,0,0,1,11.46,3.71c-2.71-1.06,1.62.77,2.46,1.19q2.37,1.15,4.67,2.46a88.28,88.28,0,0,1,9.87,6.48c-2.3-1.75,1.34,1.18,2,1.79,1.31,1.15,2.59,2.33,3.83,3.56,1.4,1.37,2.75,2.8,4,4.26.49.55,4,4.92,2.22,2.53a85.91,85.91,0,0,1,6.16,9.29c.87,1.53,1.71,3.08,2.49,4.65.34.68,2.59,5.88,1.48,3.06a92.72,92.72,0,0,1,3.54,10.8c.46,1.74.85,3.5,1.2,5.28.17.89.32,1.79.48,2.68.31,1.75-.17-2.14.11.77q.51,5.31.53,10.63c.07,35.86,0,71.71,0,107.56,0,11.92.08,23.83,0,35.75,0,2.8-.13,5.6-.39,8.4-.08.91-.18,1.83-.3,2.74.08-.63.49-2.83-.06.08-.43,2.22-.85,4.44-1.4,6.64-.87,3.48-2,6.83-3.23,10.21-.18.52-1.1,2.66,0,.1-.35.81-.72,1.62-1.1,2.41-.94,2-2,4-3,5.86-1.73,3.06-3.68,5.95-5.7,8.82-.32.45-1.77,2.19,0,.08-.55.67-1.1,1.35-1.67,2q-2.12,2.49-4.41,4.82a95.3,95.3,0,0,1-7.76,7c2.25-1.83-1.42,1-2.22,1.57q-2.7,1.86-5.54,3.52a87.56,87.56,0,0,1-9.41,4.79c2.71-1.18-1.68.59-2.61.91-1.68.59-3.39,1.13-5.1,1.62a98.45,98.45,0,0,1-10.59,2.31c3.19-.53-2.82.26-3.55.31-2.09.14-4.19.2-6.29.22-7.84.06-15.36,6.85-15,15s6.59,15.06,15,15A105.93,105.93,0,0,0,2066.88,929c12.45-19.27,16.32-41,16.32-63.55v-120c0-17.68.13-35.19-6.21-52.09-12.2-32.48-39.6-58.11-73.7-66.11-14.15-3.31-28.37-2.89-42.75-2.89h-59.49q-54.29,0-108.57,0c-27.51,0-53.8,9.77-73.9,28.75-21.19,20-32.42,48.18-32.45,77.13q-.08,56.67,0,113.33c0,12.92-.87,26.28.52,39.15,3.79,34.9,24.17,66.83,55.81,82.93,18,9.18,37,11.73,56.88,11.73H1978.8c7.85,0,15.36-6.9,15-15S1987.21,947.35,1978.8,947.35Z"/></g><g class="cls-6"><path class="cls-5" d="M3158.85,820.43H3069.7c-32.81,0-65.63.09-98.44,0-3.49,0-7-.19-10.43-.52-.58-.06-2.92-.47-.1,0-.89-.14-1.79-.29-2.69-.46-1.77-.33-3.54-.72-5.29-1.15a92.13,92.13,0,0,1-11.45-3.72c2.85,1.13-1.83-.86-2.47-1.18q-2.37-1.15-4.67-2.46a88.16,88.16,0,0,1-9.86-6.48c2.42,1.84-1.52-1.33-2-1.79q-2-1.73-3.83-3.56t-3.62-3.78c-.58-.64-1.15-1.3-1.72-2-.2-.24-2.88-3.6-.93-1.05a86.64,86.64,0,0,1-5.83-8.73c-.88-1.51-1.73-3.05-2.52-4.62-.4-.78-.79-1.58-1.17-2.37-.14-.3-1.79-4.29-.61-1.28a95,95,0,0,1-3.37-10.15q-.7-2.61-1.24-5.26c-.18-.89-.33-1.79-.5-2.68-.83-4.35.22,3-.22-1.44-.52-5.31-.52-10.57-.52-15.89V605.25c0-1.12,0-2.24,0-3.36,0-2.59.11-5.18.32-7.76.08-.92.18-1.83.28-2.75.27-2.4-.39,2.28,0-.09s.82-4.45,1.35-6.65a97,97,0,0,1,3.15-10.25c.15-.39,1.18-3,.48-1.29s.39-.87.57-1.25c.95-2,1.93-4,3-5.88a95.29,95.29,0,0,1,5.63-8.86c.24-.33,1.92-2.51.8-1.09s.61-.72.88-1c1.43-1.65,2.86-3.28,4.38-4.85,2.44-2.51,5-4.8,7.71-7.06,1.75-1.48-1.79,1.29.06-.07.88-.64,1.76-1.29,2.66-1.91q2.45-1.68,5-3.19a92.2,92.2,0,0,1,9.37-4.85c2.33-1-3.29,1.13.71-.27.83-.29,1.66-.62,2.5-.92q2.85-1,5.76-1.79,2.6-.72,5.25-1.27c.68-.15,6.65-1.12,3.41-.71a91.78,91.78,0,0,1,11.11-.68H3154c4.86,0,9.69.05,14.55.53,3,.29.71.1.1,0,.9.15,1.79.29,2.69.46,1.77.33,3.54.71,5.29,1.15a95.59,95.59,0,0,1,11.45,3.72c-2.7-1.07,1.63.77,2.47,1.18,1.58.77,3.14,1.6,4.67,2.46a89.21,89.21,0,0,1,9.87,6.48c-2.3-1.74,1.34,1.19,2,1.79q2,1.73,3.83,3.56,2.1,2.07,4.05,4.27c.49.55,4.05,4.92,2.22,2.52a88.58,88.58,0,0,1,6.16,9.3q1.3,2.28,2.49,4.64c.34.68,2.59,5.89,1.48,3.06a92.72,92.72,0,0,1,3.54,10.8q.68,2.63,1.2,5.28c.17.89.32,1.79.48,2.68.31,1.76-.17-2.14.11.77.34,3.55.52,7.08.52,10.64.08,35.85,0,71.7,0,107.56,0,11.91.09,23.83,0,35.74,0,2.81-.12,5.61-.38,8.4-.09.92-.18,1.83-.3,2.74.08-.62.49-2.83-.06.08-.43,2.23-.85,4.44-1.4,6.64-.87,3.48-2,6.83-3.23,10.21-.18.52-1.1,2.66,0,.11-.35.81-.71,1.61-1.09,2.41q-1.41,3-3,5.85a103.59,103.59,0,0,1-5.7,8.82c-.32.45-1.77,2.2,0,.08-.55.68-1.1,1.35-1.67,2-1.41,1.66-2.89,3.26-4.41,4.82a98.82,98.82,0,0,1-7.76,7c2.24-1.83-1.42,1-2.22,1.57-1.8,1.24-3.65,2.42-5.54,3.52a87.56,87.56,0,0,1-9.41,4.79c2.7-1.17-1.68.59-2.61.92-1.68.59-3.39,1.13-5.11,1.61a95.42,95.42,0,0,1-10.58,2.31c3.19-.52-2.82.26-3.55.31-2.09.15-4.19.2-6.29.22-7.84.06-15.36,6.86-15,15s6.59,15.07,15,15a105.85,105.85,0,0,0,88.07-48.35c12.46-19.26,16.32-41,16.32-63.55v-120c0-17.68.14-35.19-6.2-52.08-12.2-32.49-39.61-58.11-73.7-66.11-14.15-3.32-28.37-2.9-42.75-2.9H3081.1q-54.29,0-108.57,0c-27.51,0-53.8,9.78-73.9,28.76-21.19,20-32.42,48.17-32.45,77.13q-.07,56.66,0,113.32c0,12.92-.87,26.28.52,39.16,3.78,34.9,24.17,66.82,55.81,82.93,18,9.17,37,11.72,56.87,11.72h179.47c7.85,0,15.36-6.9,15-15S3167.26,820.43,3158.85,820.43Z"/></g></g><g id="Layer_9" data-name="Layer 9"><path class="cls-7" d="M3513.93,1770.46s31.39,24.58,45.54,13.1,1.74-17.28-5.32-22.59-6.2-9,15.22-9.41,83.85-7,100.1-41.64-3.6-59.64-15.72-66.67-8.79-10.14.47-15.23,77.55-28.76,70.82-69.63-67.87-38.66-73.25-36.81-14.65-2.94-2.73-11.57,48.35-73.64,21.5-98.71-77.89,2.67-85.79,8.6-18.34,22.94-21.72,5.13-13.46-85.23-77.71-34.59C3484.65,1422,3513.93,1770.46,3513.93,1770.46Z"/><path d="M3502.11,1532.12l-.61-.8c15.37-11.79,14.63-35.18,14.62-35.41l1,0C3517.13,1496.11,3517.89,1520,3502.11,1532.12Z"/><path class="cls-8" d="M3610.59,1459.63c-19,31.73-39.92,63.22-64.34,91-7.56,8.61-15.63,17.34-25.25,23.67-4.82,3.17-.32,11,4.54,7.78,19-12.49,33.58-32,47.09-49.92s26.22-36.83,38.26-55.94c2.53-4,5-8,7.47-12.08,3-5-4.8-9.51-7.77-4.54Z"/><path class="cls-8" d="M3564.62,1471.42q-.09,11.58.29,23.16c.3,9.25-.38,20.8,3.19,29.53,2.17,5.29,10.88,3,8.68-2.39-3.43-8.37-2.64-19.38-2.9-28.23-.22-7.35-.32-14.71-.26-22.07.05-5.79-8.95-5.8-9,0Z"/><path class="cls-8" d="M3607.2,1525.64c-17.26,9-36.2,15.38-55,20-5.63,1.37-3.25,10.05,2.39,8.68,19.59-4.76,39.27-11.52,57.2-20.87,5.14-2.68.59-10.45-4.54-7.77Z"/><path class="cls-8" d="M3508.21,1632c19.56-11.85,40-23.64,61.9-30.49,25.59-8,51.41-15.69,76.21-26,9.51-4,22.2-8.19,28.53-16.89,3.42-4.69-4.39-9.19-7.77-4.54-1.16,1.59-5.33,4.15-7.91,5.58a154.3,154.3,0,0,1-15.74,7.37c-13.08,5.4-26.49,10-39.92,14.43-11.66,3.84-23.39,7.46-35.1,11.12a213.54,213.54,0,0,0-35,14.91q-15.12,7.88-29.75,16.7c-4.94,3-.43,10.78,4.55,7.77Z"/><path d="M3576.69,1594.91c-.13-13,22.74-32.91,23.72-33.75l.65.76c-.23.2-23.49,20.48-23.37,33Z"/><path class="cls-8" d="M3647.24,1667.84a69.66,69.66,0,0,1-49.6-2.15c-9.08-3.92-17.92-9-27.48-11.67a39.45,39.45,0,0,0-26.46,1.85c-5.27,2.18-3,10.9,2.4,8.67,8.91-3.69,16.91-3.75,25.93-.43,10.48,3.86,20.12,9.84,30.81,13.17a78,78,0,0,0,46.8-.77c5.44-1.87,3.1-10.56-2.4-8.67Z"/><path d="M3515.38,1698.2l-1-.18c2.66-14.78,53.85-32.78,54.36-32.9l.22,1C3566.31,1666.72,3517.83,1684.65,3515.38,1698.2Z"/><path d="M3586.2,1709.36c-20.14,0-48.88-2-64.43-12.52l.56-.83c25.14,16.93,85.55,11.56,86.16,11.5l.09,1C3608.34,1708.53,3599,1709.36,3586.2,1709.36Z"/><g class="cls-6"><path class="cls-5" d="M3651.79,1521.58c-5.38,1.85-14.65-2.94-2.73-11.57s48.35-73.64,21.5-98.71-77.89,2.67-85.79,8.6-18.34,22.94-21.72,5.13c-2.78-14.66-10.1-62.87-48.38-51.33,40.75,49.87,112.08,162.17,135.52,357.16,8.38-5.48,15.25-12.35,19.28-20.94,16.25-34.66-3.6-59.64-15.72-66.67s-8.79-10.14.47-15.23,77.55-28.76,70.82-69.63S3657.17,1519.73,3651.79,1521.58Z"/></g></g><g id="Layer_8" data-name="Layer 8"><path class="cls-9" d="M1683.53,0c-107.06,0-193.85,86.79-193.85,193.85s91,242.31,193.85,434.46c119.23-210.85,193.85-327.4,193.85-434.46S1790.59,0,1683.53,0Zm0,296.73a102.88,102.88,0,1,1,102.88-102.88A102.88,102.88,0,0,1,1683.53,296.73Z"/><path class="cls-10" d="M1786.41,193.85a102.88,102.88,0,0,1-102.88,102.88,104.83,104.83,0,0,1-14.49-1c-36.4,39.79-70.26,80.93-101.31,121.62,32.86,62,73.31,131.62,115.8,211,119.23-210.85,193.85-327.4,193.85-434.46a193.41,193.41,0,0,0-14-72.37c-26.69,18.75-52.6,39.06-77.68,60.55A104.81,104.81,0,0,1,1786.41,193.85Z"/></g><g id="Layer_7" data-name="Layer 7"><path class="cls-11" d="M2158.29,343.51c48.71-4.62,69.79,82.26,78.92,109s20.14,94.61,26.38,114.82,4.32,40.56,15.16,4,26.47-64.87,37.07-26.12,8,70.52,38.7,50.84,58.93-34.24,47.84,38.19-1.3,92.4,19.92,91.07,34.91,30.12,28.2,81.68-.47,71.75,8,87.91,12.06-45.5,31.51,21.11,45.25,87.35,18.53,131.28-85.83,52.61-169.13,3.86-168.2-139.65-203.84-175.76-64-86.54-24.73-77.28,73.44,16,38.37-22.29-100.29-155.28-67.85-142,108.82,70.58,84.84,16.69S2081,350.84,2158.29,343.51Z"/><g class="cls-6"><path d="M2224.8,963.36c34.9,31.86,74.92,64.63,114.59,87.84,83.3,48.75,142.41,40.07,169.13-3.86,6.43-10.57,9.81-19.8,11-28.65q-.42-9.62-.79-19.79c-4.13-21.18-17.49-44.36-28.72-82.84-19.45-66.61-23-4.95-31.51-21.11s-14.71-36.36-8-87.91-7-83-28.2-81.68c-11.18.7-19.18-4.52-22.63-20.2C2318.74,739.75,2257.26,875.23,2224.8,963.36Z"/></g><path class="cls-12" d="M2166.61,418c2.37,16.06,5.3,32,8.3,48q11.43,60.66,26.4,120.59c13.21,53,28.42,105.5,46.38,157.07,19.28,55.37,41.64,109.94,69.45,161.61,25.31,47,55.5,92.78,94.39,129.76q6.43,6.12,13.21,11.86c7.32,6.22,18-4.34,10.6-10.6-39.58-33.62-70.13-76.67-95.77-121.49-28.6-50-51.43-103.16-71.06-157.25-18.92-52.13-34.86-105.33-48.7-159q-16.08-62.4-28.36-125.69-3.84-19.77-7.25-39.61c-1-6.09-1.64-12.39-3-18.41-.06-.26-.08-.53-.12-.79-.59-4-5.67-6.23-9.23-5.23-4.29,1.2-5.83,5.18-5.24,9.22Z"/><path class="cls-12" d="M2121.56,700.69Q2146,723.12,2170.94,745c28.46,25.16,57.1,50.29,87.19,73.5,9.84,7.6,20.34,16.72,32.17,21.11,5.43,2,7.78-6.68,2.39-8.68a5,5,0,0,1-1.3-.56c-.95-.47-1.89-1-2.81-1.48-2.08-1.17-4.1-2.44-6.09-3.75-5.43-3.57-10.67-7.44-15.85-11.36-14.08-10.69-27.68-22-41.18-33.42-27.11-22.9-53.7-46.43-80.05-70.21q-8.77-7.91-17.48-15.87c-4.27-3.9-10.65,2.44-6.37,6.37Z"/><path class="cls-12" d="M2168.33,860.79c37.92,19.47,77.81,36.81,118.63,49.12,14.39,4.34,29.07,7.94,44.05,9.52,5.75.6,5.71-8.4,0-9-27.15-2.86-53.78-12.43-79.1-22.18-22.49-8.66-44.56-18.43-66.26-28.92-4.28-2.06-8.55-4.14-12.77-6.31-5.15-2.64-9.71,5.12-4.55,7.77Z"/><path class="cls-12" d="M2355.51,649.89c-3.56,2.28-6.27,6.45-8.86,9.68-5.91,7.36-11.52,15-16.93,22.7-15.72,22.43-30,46.07-41.44,71-6.67,14.53-12.4,29.52-16.11,45.09-1.35,5.63,7.33,8,8.67,2.39,6.43-27,18.69-52.29,32.52-76.19a486,486,0,0,1,37.28-55.62c2.16-2.77,4.36-5.52,6.66-8.18.72-.83,1.45-1.64,2.2-2.45s1.61-1.32.55-.64c4.86-3.12.35-10.92-4.54-7.77Z"/><path class="cls-12" d="M2405.81,805.55a390.55,390.55,0,0,0-17.3,41.35c-10.26,28.28-18.23,57.85-20.48,87.94-1.26,17-.47,34.32,4.1,50.8,1.54,5.58,10.23,3.21,8.68-2.39-8.06-29.07-4-60.49,2.89-89.37a422,422,0,0,1,23.61-70.12c2-4.59,4-9.19,6.27-13.67,2.58-5.17-5.18-9.73-7.77-4.54Z"/></g><g id="Layer_6" data-name="Layer 6"><path class="cls-7" d="M3129.23,1178.12s70.12-266.7,92.48-266.7,25.56,131.16,25.56,131.16,15.56-146,48.19-218.36,79.42-109.53,73-58.49S3363,909.3,3363,909.3s141.68-221.2,184.21-187.17S3418.49,976.3,3418.49,976.3s79.75-25.53,92.52-2.13-112.73,117.39-112.73,117.39,50-19.55,60.62,6-179.14,165.9-179.14,165.9l-161.17,10.63Z"/><path class="cls-7" d="M3129.23,1178.12s70.12-266.7,92.48-266.7,25.56,131.16,25.56,131.16,15.56-146,48.19-218.36,79.42-109.53,73-58.49S3363,909.3,3363,909.3s141.68-221.2,184.21-187.17S3418.49,976.3,3418.49,976.3s79.75-25.53,92.52-2.13-112.73,117.39-112.73,117.39,50-19.55,60.62,6-179.14,165.9-179.14,165.9l-161.17,10.63Z"/><rect class="cls-13" x="3341.92" y="1559.39" width="272.24" height="421.86"/><rect class="cls-14" x="3430.18" y="1559.39" width="102.09" height="421.86"/><rect class="cls-15" x="3017.56" y="1559.39" width="324.35" height="421.86" transform="translate(6359.48 3540.65) rotate(180)"/><rect class="cls-16" x="3101.05" y="1559.39" width="83.48" height="421.86" transform="translate(6285.57 3540.65) rotate(180)"/><path class="cls-17" d="M3194.67,1259q30.43-50.8,61.77-101.06c43.93-70.89,88.61-141.33,134.87-210.72,25.89-38.84,52.25-77.38,79.86-115,4.57-6.23-5.84-12.22-10.36-6.05-50.28,68.54-96.89,139.8-142.73,211.36q-57.23,89.34-112.34,180-10.75,17.67-21.43,35.41c-4,6.65,6.39,12.69,10.36,6.06Z"/><path class="cls-17" d="M3323.4,902.78c-10.78,46.08-20.72,92.55-28,139.32-2.2,14.19-4.29,28.51-4.91,42.87-.25,5.8,8.75,5.78,9,0,1.19-27.71,6.78-55.4,12-82.58,5.12-26.94,10.8-53.78,16.8-80.53q1.88-8.36,3.81-16.68c1.32-5.64-7.36-8-8.68-2.4Z"/><path class="cls-17" d="M3202,1005c5.23,47.23,11.13,94.8,21.06,141.29,2.44,11.47,4.89,23.45,10,34.09,2.5,5.22,10.26.66,7.77-4.54-4-8.41-6.19-18.88-8.28-28.27-3.16-14.24-5.69-28.62-8-43-4.43-27.2-8.11-54.52-11.42-81.87q-1.08-8.85-2.08-17.69c-.63-5.7-9.63-5.76-9,0Z"/><path class="cls-17" d="M3219.38,1214.32a998.49,998.49,0,0,1,109.75-58.22A449.54,449.54,0,0,1,3375,1138c5.48-1.79,3.13-10.48-2.4-8.68-51.08,16.6-99.4,43-145.64,70-4.07,2.38-8.13,4.76-12.15,7.22-4.93,3-.41,10.8,4.55,7.77Z"/><path class="cls-17" d="M3282,1113.09c39.7-30.28,81-59.48,124.37-84.18,13.09-7.46,26.58-14.81,40.93-19.56,5.47-1.81,3.13-10.51-2.39-8.68-28.46,9.42-54.72,26.7-79.69,42.88-24.79,16.06-49,33.06-72.77,50.58-5,3.69-10,7.4-15,11.18-4.54,3.47-.07,11.29,4.54,7.78Z"/><path class="cls-4" d="M3468,341.28c2.68-9.56-39.7-16.3-67.35-16.3s-92.17,6.38-102.8-44-18.44-103.51-65.94-103.51-53.88,48.21-59.55,58.14-10.64.7-14.18-6.38-24.1-45.38-56-1.42-34,17.72-52.46,31.55-2.13,34.38-15.6,41.47-75.86,42.54,43.25,40.41,151-9.92,216.23,3.55S3463,359,3468,341.28Z"/><path class="cls-4" d="M279.44,601.38c-4.94-30.8,92.87-48.21,131.86-54.59s92.88-7.8,109.18-6.38,22.69-2.13,12.77-13.47S465.18,458.88,495,421.31s105.64-12.77,122.65-3.55,73,65.23,83.66,75.86,19.14,12.05,31.9-4.25S782.8,449,805.49,452.5s5.67,29.07,16.31,36.87,46.79-9.93,54.59,16.3-37.58,43.25-21.27,54.59,103.51,8.51,145.34,21.27,85.07,29.78,38.28,58.14-156.68,21.27-204.18,19.85-126.2-28.36-186.46-26.94S291.49,676.53,279.44,601.38Z"/><g class="cls-6"><path d="M3392,1174.32c-75.9-49.75-108.61-172.19-122.67-265-14.83,65.88-22,133.24-22,133.24s-3.19-131.16-25.56-131.16-92.48,266.7-92.48,266.7l-10.64,95.94,161.17-10.63S3341,1218.13,3392,1174.32Z"/></g><rect class="cls-13" x="3206.5" y="1240.39" width="311.95" height="319.01" transform="translate(6724.95 2799.78) rotate(180)"/><rect class="cls-15" x="3064.71" y="1240.39" width="141.79" height="319.01"/><rect class="cls-18" x="3307.18" y="1240.39" width="99.26" height="113.43" transform="translate(6713.61 2594.21) rotate(180)"/><rect class="cls-18" x="3307.18" y="1453.08" width="99.26" height="106.32" transform="translate(6713.61 3012.47) rotate(180)"/><g class="cls-6"><polygon class="cls-5" points="3518.45 1401.34 3268.37 1559.39 3518.45 1559.39 3518.45 1401.34"/></g><g class="cls-6"><polygon class="cls-5" points="3614.16 1637.86 3341.92 1798.47 3341.92 1981.26 3614.16 1981.26 3614.16 1637.86"/></g></g><g id="Layer_5" data-name="Layer 5"><path class="cls-19" d="M3052.84,1924.4H2549.69a89.08,89.08,0,0,1-89.08-88.68l-5.61-1244A95.71,95.71,0,0,1,2550.71,496h489.9a95.71,95.71,0,0,1,95.71,95.71l5.6,1243.24A89.08,89.08,0,0,1,3052.84,1924.4Z"/><polygon class="cls-20" points="2631.64 856.9 2644.86 1178.12 2849.28 1160.07 2836.99 1041.61 2795.66 881.65 2631.64 856.9"/><polygon class="cls-21" points="2447.91 1805.96 3149.79 1861.11 3124.02 1924.4 3077.95 1949.15 2531.57 1949.15 2435.24 1877.55 2447.91 1805.96"/><polygon class="cls-22" points="2644.86 1178.12 2653.51 1456.41 2868.42 1351.49 3118.59 1307.9 3080.69 1131.55 2849.28 1160.07 2644.86 1178.12"/><polygon class="cls-22" points="2526.69 1467.76 2526.69 1621.51 2435.24 1646.42 2435.24 1710.64 2722.99 1694.48 2684.19 1637.86 2653.51 1456.41 2526.69 1467.76"/><polygon class="cls-23" points="2868.42 1351.49 3118.59 1307.9 3144.11 1383.6 3144.11 1539.54 2893.16 1579.27 2868.42 1351.49"/><polygon class="cls-23" points="2447.91 980.4 2542.29 955.88 2597.59 850.96 2631.64 856.9 2646.42 1215.93 2447.91 1210.19 2447.91 980.4"/><path class="cls-23" d="M2795.66,541.85V752.62s123.8-2.34,244.33-88.83c-1.42-59.56-12.15-189.09-12.15-189.09Z"/><path class="cls-5" d="M2911.9,1684.2l-11.16-91.91q-.78-6.51-1.58-13l-4.4,5.79,86.56-13.4,138.13-21.39,31.93-4.94c7.61-1.18,4.38-12.75-3.19-11.57l-86.56,13.4-138.13,21.38-31.93,5c-2.32.36-4.69,3.41-4.41,5.78l11.16,91.92q.79,6.49,1.58,13c.92,7.57,12.93,7.66,12,0Z"/><path class="cls-5" d="M2447.91,1812l18.69,1.47,51.21,4,75.39,5.92,92,7.23,101.24,8,101.71,8L2983,1854l80.56,6.33,57.66,4.53c9.09.71,18.27,1.85,27.39,2.15.4,0,.81.07,1.21.1,7.7.6,7.66-11.4,0-12l-18.7-1.47-51.2-4-75.39-5.92-92-7.22-101.23-8-101.71-8-94.86-7.45-80.57-6.33-57.65-4.53c-9.1-.72-18.27-1.85-27.39-2.16-.41,0-.81-.06-1.21-.09-7.7-.61-7.66,11.4,0,12Z"/><path class="cls-5" d="M3021.84,474.7q2.11,29.06,4.21,58.1,3.64,50.12,7.27,100.22c1,13.64,1.73,27.32,3,40.93,2.24,24.19,8.13,48.33,18.24,70.45,14.33,31.34,39.79,56.88,75.12,61.56a104.11,104.11,0,0,0,14.45.87c7.71-.08,7.73-12.08,0-12-17.33.16-34.06-4.47-48-15-12.26-9.21-21.39-22-28.3-35.54a180.92,180.92,0,0,1-14.36-40.22q-2-8.49-3.45-17.13c-.81-5-1-6.15-1.5-11.13-1.26-12-1.83-24.17-2.71-36.25l-7-97c-1.62-22.26-2.92-44.57-4.85-66.81,0-.37-.05-.74-.08-1.11-.55-7.66-12.55-7.72-12,0Z"/><path class="cls-5" d="M3146.76,592.88c-15.18,10.54-30.79,20.49-46.46,30.28-35.8,22.37-72.44,43.46-110.09,62.57-41.41,21-84.39,40.3-129.42,52.16-18.92,5-38.32,8.62-57.94,8.72q-44.14.24-88.32-1.24c-15.22-.52-30.46-1.17-45.63-2.52-3.49-.32-7-.68-10.45-1.12,1.62.2-.13,0-1.34-.21a10.13,10.13,0,0,0-1.54-.27,2,2,0,0,1-.47-.09l4.41,5.78-2.4-87.31q-1.91-69.51-3.82-139l-.87-31.73c-.21-7.71-12.21-7.74-12,0l2.4,87.31q1.91,69.51,3.82,139l.87,31.72a6.12,6.12,0,0,0,4.4,5.79,89.41,89.41,0,0,0,10.56,1.48c12.14,1.34,24.36,2,36.56,2.55,25.69,1.17,51.41,1.58,77.13,1.77,24.05.17,47.18-.14,70.8-5,45.36-9.41,88.83-27.94,130.39-48,40.1-19.37,79-41.23,117-64.49,19.46-11.92,39-24,57.67-37.15l.84-.58c6.3-4.37.3-14.78-6.06-10.36Z"/><path class="cls-5" d="M2534.29,473.11q-4.23,19.81-8.47,39.64-10.16,47.6-20.32,95.19-12.3,57.57-24.59,115.15-10.62,49.76-21.25,99.52c-3.43,16.06-7.27,32.09-10.3,48.23,0,.24-.1.47-.15.71-1.61,7.53,10,10.75,11.57,3.19q4.24-19.83,8.47-39.65,10.15-47.6,20.32-95.19l24.59-115.15q10.62-49.75,21.25-99.51c3.43-16.06,7.27-32.1,10.3-48.24,0-.23.1-.47.15-.7,1.61-7.54-10-10.75-11.57-3.19Z"/><path class="cls-5" d="M2436.74,769.75,2510,743.41l116.7-42,26.77-9.63c7.21-2.59,4.1-14.19-3.19-11.57L2577,706.57l-116.7,42-26.77,9.63c-7.21,2.6-4.1,14.2,3.19,11.58Z"/><path class="cls-5" d="M2651.84,563H2447.91c-7.72,0-7.74,12,0,12h203.93c7.72,0,7.73-12,0-12Z"/><path class="cls-5" d="M3151.38,918.4l-71.69-28.3-34-13.4c-3.54-1.4-7-1.05-10.8-1.05H2816.67c-6.51,0-13.64-.82-20.12,0a8.81,8.81,0,0,1-.89,0l6,6V559.78c0-7.72-12-7.74-12,0V881.65a6.09,6.09,0,0,0,6,6h243c.83,0,1.7.08,2.53,0,1.56-.15,0,.36-.73-.2,1.88,1.49,5.48,2.16,7.69,3l17.76,7c26.81,10.58,53.42,22.1,80.56,31.8.57.2,1.14.45,1.71.67,7.19,2.84,10.3-8.76,3.19-11.57Z"/><path class="cls-5" d="M2446.31,835l34.54,5.21,83,12.52,100.4,15.14L2751.08,881l28.68,4.33c4.3.64,9.32,2.2,13.68,2.06a3.31,3.31,0,0,1,.62.09l-4.19-4.19q7.35,28.41,14.68,56.81,11.77,45.56,23.54,91.11l5.38,20.82c1.93,7.47,13.51,4.3,11.57-3.19q-7.34-28.41-14.68-56.81-11.76-45.56-23.54-91.11-2.68-10.41-5.38-20.82c-.47-1.83-2.21-3.89-4.19-4.19l-34.53-5.21-83-12.51L2579.35,843l-86.87-13.11c-14.12-2.13-28.22-4.33-42.35-6.39l-.63-.09c-7.55-1.14-10.81,10.42-3.19,11.57Z"/><path class="cls-5" d="M2871.76,745.7l47.16,120.4,6.72,17.14c2.78,7.11,14.39,4,11.57-3.19l-47.16-120.39-6.72-17.15c-2.79-7.11-14.4-4-11.57,3.19Z"/><path class="cls-5" d="M2648.33,743.92,2610,815.34q-30.54,56.89-61.1,113.79l-14,26.06,3.59-2.76-91.69,22.07-13.24,3.19c-7.5,1.81-4.32,13.38,3.19,11.57l72.86-17.54c10.37-2.49,21-4.53,31.23-7.52,4.65-1.35,6.2-6.25,8.32-10.2l35.36-65.86q23.41-43.64,46.85-87.26c8.95-16.68,18.37-33.2,26.9-50.1.13-.27.29-.54.43-.81,3.65-6.8-6.7-12.87-10.36-6.05Z"/><path class="cls-5" d="M3067.33,892.33q-13.12,53.37-26.24,106.74c-.9,3.65-2.73,8.1-2.1,11.9.31,1.85,1,3.7,1.46,5.51l8.9,33.53q16.4,61.73,32.78,123.45,18.13,68.37,36.29,136.74c6.53,24.59,12.26,49.58,19.63,73.94.1.34.19.7.28,1,2,7.46,13.56,4.3,11.57-3.19q-8-30.24-16.06-60.49l-35.16-132.46L3064.42,1060l-10.68-40.21-2.64-10a7.5,7.5,0,0,0-.51-1.94c.9,1.34-.59,4.57.38,1.29,5.22-17.54,8.79-35.76,13.16-53.53q7-28.43,14-56.84l.8-3.26c1.84-7.5-9.73-10.7-11.57-3.19Z"/><path class="cls-5" d="M2435.24,1216.43h208.34a6.06,6.06,0,0,0,6-6q-.73-17.64-1.49-35.29l-3.57-84.26q-2.17-51.21-4.34-102.41-1.87-44.1-3.74-88.19c-.61-14.38-.78-28.86-1.83-43.21,0-.21,0-.42,0-.63-.33-7.69-12.33-7.73-12,0l1.5,35.3,3.57,84.25q2.16,51.21,4.34,102.42,1.86,44.08,3.74,88.19.61,14.64,1.24,29.27c.19,4.45-.28,9.55.59,13.94a3.19,3.19,0,0,1,0,.62l6-6H2435.24c-7.72,0-7.74,12,0,12Z"/><path class="cls-5" d="M2436.83,1353.93l46.29-16.35c16.52-5.83,33.71-10.8,49.85-17.61,3.43-1.44,6.09-4.62,8.79-7.12l18.74-17.34,52.83-48.9,34.5-31.94-10.25-4.24,3.36,82.08q2.67,65.35,5.35,130.71.61,14.92,1.22,29.86l6-6-73.88,7.2-117.26,11.42-27.13,2.65c-7.62.74-7.7,12.74,0,12l73.88-7.2,117.26-11.43,27.13-2.64c3.12-.31,6.14-2.51,6-6l-3.36-82.08-5.34-130.71-1.23-29.86a6.07,6.07,0,0,0-10.24-4.24l-80.55,74.56-21.32,19.74-6.71,6.21c-.94.86-2.63,1.91-3.28,3s3.71-1.43,2.25-1.31a9.18,9.18,0,0,0-2,.71l-9.13,3.22L2488.36,1323l-54.72,19.33c-7.23,2.56-4.11,14.16,3.19,11.57Z"/><path class="cls-5" d="M3141.09,1079.79l-44.22,32.47-13.22,9.71c-2.5,1.83-5.57,3.54-7.79,5.72s1.78,0,1.58,0a12.86,12.86,0,0,0-2.22.23L2996,1136l-141.49,14.43-139.16,14.2c-24,2.45-48.08,4.72-72.08,7.35l-1.08.11c-7.6.78-7.68,12.79,0,12l59.87-6.11,135.58-13.83,144.86-14.78,89.28-9.1c1.92-.2,3.9-.28,5.81-.6,4.72-.77,8.61-4.81,12.38-7.58l53-38.88,4.19-3.08c6.16-4.53.18-15-6-10.37Z"/><path class="cls-5" d="M2833.26,1050.38q3.43,34.41,6.88,68.8,7.31,72.94,14.59,145.9l13.2,131.91c1.75,17.5,3.49,35,5.36,52.48q6.78,63.38,13.55,126.75c.11,1,.22,2,.32,3,.82,7.6,12.83,7.68,12,0L2886.8,1463.6q-3-28-5.81-56-6.22-62.15-12.44-124.31-7.43-74.29-14.86-148.6c-2.77-27.67-5.33-55.38-8.31-83l-.12-1.22c-.76-7.61-12.77-7.69-12,0Z"/><path class="cls-5" d="M3122.43,1302.12l-81,14.61-133.7,24.13-36.95,6.67c-5.27,1-10.07,3.79-14.91,6l-111,51-59.49,27.33c-11.11,5.1-22.44,9.87-33.38,15.32-.52.26-1.06.49-1.59.74-7,3.21-.92,13.56,6.06,10.36l78.43-36,118-54.18,15.38-7.06c1.2-.55,2.42-1.08,3.6-1.66,1.66-.81-1,.18-.47.23,2.59.25,6.11-1.1,8.63-1.56l19.11-3.44,129.45-23.37,61.91-11.17c11.13-2,22.43-3.62,33.48-6,.52-.12,1.06-.19,1.59-.29,7.59-1.37,4.37-12.94-3.19-11.57Z"/><path class="cls-5" d="M2525.57,1314.12,2524.16,1418q-1.12,82.73-2.24,165.46l-.51,37.77q2.19-2.9,4.4-5.78l-81.89,29-11.74,4.16c-7.23,2.56-4.11,14.16,3.19,11.57l81.89-29,11.74-4.16a6.22,6.22,0,0,0,4.41-5.79q.71-52,1.4-103.91l2.25-165.46.51-37.77c.1-7.73-11.9-7.73-12,0Z"/><path class="cls-5" d="M3156.88,1672.53l-84.72,1.91L2937,1677.5l-31.14.7c-7.71.17-7.74,12.17,0,12l84.72-1.91,135.12-3.06,31.14-.7c7.71-.18,7.73-12.18,0-12Z"/><path class="cls-5" d="M2435.24,1782c7.72,0,7.73-12,0-12s-7.74,12,0,12Z"/><path class="cls-5" d="M2905.9,1678.2l-46.67,2.62-112.61,6.33-135.79,7.63L2493,1701.4c-19,1.06-38.05,1.67-57,3.2l-.8,0c-7.68.43-7.73,12.44,0,12l46.67-2.62,112.61-6.33,135.79-7.63,117.79-6.61c19-1.07,38.05-1.68,57-3.21l.8,0c7.68-.43,7.73-12.43,0-12Z"/><path class="cls-5" d="M2647.72,1454.67l17.07,102.8,10.8,65q1.44,8.71,2.89,17.42c.55,3.32,1.92,5.35,3.83,8.17q17.74,26.17,35.5,52.36c4.31,6.36,14.71.36,10.36-6.06l-31.77-46.86c-1.93-2.84-3.7-6-5.86-8.64-1.5-1.87-.14,1.66-.21-.5-.15-4.58-1.57-9.45-2.32-14q-11-66.51-22.09-133-3.32-20-6.62-39.92c-1.27-7.6-12.83-4.38-11.58,3.19Z"/><path class="cls-24" d="M3066.84,450.6H2524.48a100,100,0,0,0-100,100v1307a123.72,123.72,0,0,0,123.72,123.72h494.86a123.72,123.72,0,0,0,123.71-123.72v-1307A100,100,0,0,0,3066.84,450.6Zm-14,1473.8H2549.69a89.08,89.08,0,0,1-89.08-88.68l-5.61-1244A95.71,95.71,0,0,1,2550.71,496h82.59a36.52,36.52,0,0,1,36.52,36.51h0A36.5,36.5,0,0,0,2706.33,569h208.43a36.51,36.51,0,0,0,36.52-36.51h0A36.51,36.51,0,0,1,2987.79,496h52.82a95.71,95.71,0,0,1,95.71,95.71l5.6,1243.24A89.08,89.08,0,0,1,3052.84,1924.4Z"/><path class="cls-5" d="M2717.2,1699,2748,1815.16l4.45,16.78c2,7.45,13.55,4.29,11.57-3.19l-30.78-116.15q-2.22-8.38-4.45-16.77c-2-7.46-13.55-4.3-11.57,3.19Z"/><path class="cls-5" d="M3070.5,1854.31q4.47-28.95,8.95-57.9l14.21-91.89q1.66-10.71,3.32-21.42c1.16-7.56-10.4-10.81-11.58-3.19q-4.47,29-9,57.9-7.11,45.95-14.21,91.89-1.66,10.71-3.31,21.42c-1.17,7.56,10.39,10.81,11.57,3.19Z"/><path class="cls-25" d="M3034.92,1856.32q-3.24-23-6.47-45.92-7.93-56.36-15.88-112.7-9.87-70-19.75-140.11l-18.24-129.49-11.37-80.65q-.54-3.9-1.1-7.81c-.67-4.76.48,2.07.36,2.44.6-1.9,0-5,.05-6.93l.12-15.64q.46-58.42.91-116.85.54-68.12,1.06-136.21l.36-46.77.11-13c0-3.68.76-7-.6.4,2.69-14.69,4.17-29.71,6.24-44.49l9-64.25q.84-5.92,1.66-11.86c1.59-11.34-4.46-22.78-17.35-22.78H2795.66l18,18q2.94-56.52,5.9-113,.42-8,.83-16c.49-9.42-8.63-18.42-18-18-10.17.45-17.47,7.91-18,18q-2.94,56.52-5.9,113-.42,8-.83,16c-.51,9.72,8.66,18,18,18H2964l-17.36-22.79-15,107.09c-1,7.48-2.52,15-2.58,22.55l-.26,33.23-1,127.12q-.51,65.33-1,130.66c-.14,17-1.82,34.64.55,51.48q4.32,30.85,8.69,61.72,8.54,60.52,17.06,121.06l20,141.58L2990.5,1797l9.27,65.8c.15,1,.29,2,.44,3.07,1.32,9.36,13.72,15.3,22.14,12.57,10.26-3.32,14-12.11,12.57-22.14Z"/><path class="cls-25" d="M2821.26,709.58c0,.94,0,1.87-.12,2.8q.59-3.75,0-.72c-.26.91-1.58,6.82-.26,2.06-.46,1.65-1.72,3.15-2.54,4.62-1.14,1.61-1,1.45.45-.5-.57.67-1.16,1.31-1.78,1.92s-1.26,1.21-1.92,1.78q2.91-2.16.5-.45c-1.47.83-3,2.08-4.62,2.54,4.76-1.32-1.15,0-2.06.27q-3,.54.72,0c-.93.08-1.87.12-2.8.12s-1.86,0-2.79-.12q3.73.58.71,0c-.9-.27-6.81-1.59-2.05-.27-1.65-.46-3.16-1.71-4.63-2.54q-2.42-1.71.5.45c-.66-.57-1.3-1.16-1.92-1.78s-1.21-1.25-1.78-1.92c1.44,1.95,1.59,2.11.46.5-.83-1.47-2.09-3-2.54-4.62,1.31,4.76,0-1.15-.27-2.06q-.56-3,0,.72c-.08-.93-.12-1.86-.12-2.8s0-1.86.12-2.79q-.59,3.75,0,.72c.27-.91,1.58-6.82.27-2.06.45-1.65,1.71-3.16,2.54-4.62q1.69-2.43-.46.5c.57-.67,1.16-1.31,1.78-1.93s1.26-1.21,1.92-1.77c-1.94,1.43-2.11,1.59-.5.45,1.47-.83,3-2.09,4.63-2.54-4.76,1.31,1.15,0,2.05-.27q3-.56-.71,0,1.39-.12,2.79-.12c.93,0,1.87,0,2.8.12q-3.75-.59-.72,0c.91.27,6.82,1.58,2.06.27,1.64.45,3.15,1.71,4.62,2.54,1.61,1.14,1.44,1-.5-.45q1,.84,1.92,1.77c.62.62,1.21,1.26,1.78,1.93q-2.16-2.93-.45-.5c.82,1.46,2.08,3,2.54,4.62-1.32-4.76,0,1.15.26,2.06q.55,3,0-.72.12,1.4.12,2.79c.2,9.41,8.13,18.44,18,18,9.58-.43,18.21-7.91,18-18A51.34,51.34,0,0,0,2823,661.89c-18.71-6.78-41.87-.52-54.4,15-13.4,16.58-16.33,39.84-5,58.51s32.55,27.36,53.6,23.47c23.42-4.33,39.6-26.1,40.09-49.29.2-9.42-8.42-18.43-18-18C2829.33,692,2821.47,699.49,2821.26,709.58Z"/><path class="cls-25" d="M1022.18,2344.8l1995.38-483.69L55.65,2037,952.5,2341.67A125,125,0,0,0,1022.18,2344.8Z"/><path class="cls-25" d="M1027,2362.16l53.31-12.93,145.09-35.17,214.6-52,261.87-63.47L1988.69,2129l289.6-70.2,270.09-65.47L2776.69,1938,2941,1898.19c25.93-6.28,52.28-11.7,78-18.9,1.12-.32,2.27-.55,3.4-.83,19.43-4.71,15.71-36.57-4.79-35.35l-79.45,4.72-216.2,12.83-317.24,18.84-389.57,23.14L1588.33,1928,1159,1953.47l-400.32,23.77L419.28,1997.4l-243.23,14.44c-38.45,2.28-77,4.16-115.38,6.85-1.68.12-3.35.2-5,.3-20.39,1.21-24.28,28.73-4.79,35.36l318.39,108.16,488.75,166c53.77,18.27,111.25,46.27,169,33.61,22.62-5,13-39.68-9.57-34.72-44.32,9.73-93-14.3-134.51-28.4l-212-72L176.21,2059,60.43,2019.63Q58,2037.32,55.65,2055l79.45-4.72,216.21-12.84,317.24-18.83,389.56-23.14,426.78-25.34,429.3-25.49,400.31-23.77,339.43-20.16,243.23-14.44c38.19-2.27,77.39-2.21,115.39-6.86,1.65-.2,3.35-.19,5-.29q-2.39-17.68-4.78-35.36l-53.31,12.92-145.08,35.17-214.61,52-261.86,63.48-286.87,69.54-289.6,70.2-270.09,65.47-228.31,55.34-164.27,39.82c-25.94,6.29-52.29,11.7-78,18.91-1.12.31-2.27.55-3.41.82C994.89,2332.9,1004.42,2367.62,1027,2362.16Z"/></g><g id="Layer_4" data-name="Layer 4"><polygon class="cls-9" points="746.71 358.86 585.57 430.42 447.58 239.85 746.71 358.86"/><polygon class="cls-9" points="772.17 541.53 746.71 358.86 890.7 243.61 447.58 239.85 772.17 541.53"/><polygon class="cls-26" points="447.58 239.85 772.17 541.53 746.71 358.86 447.58 239.85"/></g><g id="Layer_3" data-name="Layer 3"><path class="cls-9" d="M258.13,1155.88l-57.34-57.35-91.36-91.35L88.51,986.26v42.42l57.34-57.34L237.21,880l20.92-20.92c11.11-11.11,11.94-31.46,0-42.42s-30.57-11.86-42.42,0L158.36,874,67,965.34q-10.47,10.45-20.92,20.92c-11.46,11.45-11.49,30.94,0,42.42L103.43,1086l91.36,91.36,20.92,20.92c11.11,11.11,31.46,11.94,42.42,0s11.86-30.57,0-42.42Z"/><path class="cls-9" d="M120.68,1044.34H353.16c15.69,0,30.72-13.79,30-30s-13.19-30-30-30H120.68c-15.69,0-30.72,13.8-30,30s13.18,30,30,30Z"/></g><g id="Layer_2-2" data-name="Layer 2"><path class="cls-27" d="M1869.24,820.17s-394.19-12.06-540.62-24.37S798,822.39,798,822.39,759.19,842.74,655,962.54s-163.56,224-163.56,224l290.68,46.8L1893,1253.44Zm-830.33,66c-5.1,15.12-63.82,230-81,325.73-49.92,5.84-304.43-16.55-304.43-16.55S620.15,1132,661,1057.21,845.85,866.27,863.37,858.67s15.23-12.86,48.49-11l128.76,7C1053.41,855.32,1044,871.06,1038.91,886.17Z"/><polygon class="cls-28" points="1237.33 792.26 1167.7 1230.74 1904.49 1199.64 1916.25 814.57 1237.33 792.26"/><path class="cls-29" d="M838.26,1098.7s-1.11-7.54,2.23-10,3.07,6.47,4,7.91S838.26,1098.7,838.26,1098.7Z"/><path class="cls-10" d="M842.56,1088.86c-.48-.69-1.13-.89-2.07-.19-3.34,2.49-2.23,10-2.23,10s1-.09,2.11-.28C839.66,1095,841.46,1090.9,842.56,1088.86Z"/><path class="cls-30" d="M1423.34,1004.31c-14.78-27-111.16-35.93-147.8-20.71s-49.76,106.59-22,119.79,52.32,95.81,52.32,95.81Z"/><path class="cls-10" d="M1275.54,983.6c-21.49,8.93-34.88,44-36.69,74.21l11.2-4.62s4.48-46.13,33.46-56.48,109.1-3.79,133.41,18.24l6.42-10.64C1408.56,977.26,1312.18,968.38,1275.54,983.6Z"/><path class="cls-31" d="M1112.18,1033.47a92.25,92.25,0,0,1,21.58-9.57s43.79-29.27,70.58-23.82c14.2,2.89,19.26,11.77,20.12,21,0,0,19,13.66,30.81,17.43s50.42,27,58.36,53.92,5.51,77-24.79,104.71c-42.68,9.08-251.56-5.7-251.56-5.7s-66.26-9-77.19-17.59,4.23-53.66,4.23-53.66,26-32.22,34.71-40.59,46.62-34.19,63.28-36.59S1094.5,1044.4,1112.18,1033.47Z"/><path class="cls-29" d="M973.29,1123.09c-1.93-7.09-21.28-7.15-55.84-.76-23.33,4.31-50,8-59.91-1.2-3.66-3.41-9.57-8.86-9.57-8.86s-24,22.64-23.7,32.92c6.75,1.65,109.55,22.21,122.43,21.2S981,1151.47,973.29,1123.09Z"/><path class="cls-10" d="M917.45,1122.33c-23.33,4.31-50,8-59.91-1.2-3.66-3.41-9.57-8.86-9.57-8.86s-3.59,3.39-8,8.14c3.84,5.36,11.93,13.74,24.93,13.7,19.1-.06,86.21-9,95.94-8.14,4.24.36,3.18-3.59.64-8.15C952.12,1117.12,937.3,1118.66,917.45,1122.33Z"/><path class="cls-32" d="M974.67,1112c-61.93-38.09-132.61-35.69-157.85,5.36s4.48,105.21,66.41,143.3,132.61,35.69,157.86-5.36S1036.6,1150.05,974.67,1112Zm45.08,132.58c-20.89,34-79.37,36-130.62,4.43s-75.85-84.6-55-118.57,79.37-36,130.61-4.44S1040.64,1210.57,1019.75,1244.54Z"/><path class="cls-26" d="M812.69,1137.51s3.67,1.69,5.71-1.4c3.23-1.32,3.19-1.87,3.34-4.95,3.22.83,6.61-2.42,6-6,3.33-2.27,7.93-4.37,6.46-8.73s-4-9.63-.48-16.92c-7.45,1.52-23.54,24.17-23.54,24.17Z"/><path class="cls-10" d="M833.69,1099.52s1,3.58,2.1,4.82c3.54-2.16,45.82-30.65,121.32,4.24a40.78,40.78,0,0,0,7.51-2.39C916.11,1080.08,864.11,1078.14,833.69,1099.52Z"/><path class="cls-26" d="M964.79,1126a152.57,152.57,0,0,1,41.92,37.55l6.46-.56s-7.74-11.11-35.13-34.31-85.64-37.17-116.64-25.47-42.27,40-42.27,40l8.8,2.93a49.39,49.39,0,0,1,6.25-15.73C855.07,1096.43,913.55,1094.45,964.79,1126Z"/><path class="cls-29" d="M833.69,1099.52c-3.59-2.55-11-3.65-15.5.2s-1.84,5.49-3.84,7.3-7.62,2.9-8.27,7,1.5,7.88-.47,8.71-2.82,4.56-1.73,8.08,5,10.32,9.62,8,1.58-5.45,1.58-5.45,5.71,1.17,4.72-4.23c2,.46,6.44-2.59,4.2-6.54,2.14,0,7.36-1.7,6.15-6.95S824.42,1105,833.69,1099.52Z"/><path d="M823.27,1119.4c-3.92-2.06-5.44-7.27-5.89-11.29-.14-1.23-2-.81-1.88.41.51,4.47,2.38,10.21,6.71,12.48,1.09.57,2.15-1,1.06-1.6Z"/><path d="M818.31,1126.61a22.74,22.74,0,0,1-7-9.23c-.48-1.13-2.19-.25-1.71.88a24.57,24.57,0,0,0,7.65,10c1,.74,2-.87,1-1.61Z"/><path d="M813.4,1131.49c.43.21-.37-.22-.51-.31a12.36,12.36,0,0,1-1.5-1.11,9.2,9.2,0,0,1-3-4.76c-.29-1.19-2.17-.79-1.87.41a11.69,11.69,0,0,0,6.24,7.59c1.11.54,1.71-1.29.61-1.82Z"/><path class="cls-10" d="M818.19,1099.72c-4.49,3.85-1.84,5.49-3.84,7.3s-7.62,2.9-8.27,7,1.5,7.88-.47,8.71-2.82,4.56-1.73,8.08,4.7,9.79,9.08,8.25c-2.64-2.17-6.9-3.75-7.3-9.4-.31-4.27.22-6.08,2-7.37s-1-7.43,1-8.61,8.1-3.41,8.34-7.78c.13-2.45,2.29-5.63,4.6-8A9.77,9.77,0,0,0,818.19,1099.72Z"/><path class="cls-10" d="M1132.91,1024.15a93.25,93.25,0,0,0-20.73,9.32c-17.68,10.93-33.2,7.12-49.87,9.51s-54.56,28.23-63.28,36.59c-3.76,3.61-10.73,11.66-17.45,19.64l7.14,4s19.08-22.49,55.68-42.74,39.81-.82,52.21-12.15,38.54-18.4,38.54-18.4Z"/><path d="M1066.74,1054.49a160.45,160.45,0,0,0-4.85,41.32c.31,12.37-1.43,25.65-11.27,34.36a1,1,0,0,0,1.28,1.43c9-8,12.38-20.88,12-32.58a166.2,166.2,0,0,1,4.64-43.92c.29-1.19-1.53-1.81-1.83-.61Z"/><path class="cls-33" d="M1011.84,1038.3c8.55,13.7,49,78.7,57.43,97,13.7-.4,31.25-7.43,31.25-7.43s-59.89-95-81.94-114.21c-1.05-.88-7.36-7.52-8.25,19A10,10,0,0,0,1011.84,1038.3Z"/><path class="cls-10" d="M1100.52,1127.85s-43.07-68.35-69.61-100.81a13.79,13.79,0,0,0-3.62,5c7.1,10.22,45.43,79.2,57.39,100.8A135,135,0,0,0,1100.52,1127.85Z"/><path class="cls-10" d="M1308.81,1081.62c-13.17-22.13-43.37-39.88-53.54-43.14-11.77-3.77-30.81-17.43-30.81-17.43-.86-9.2-5.92-18.08-20.12-21a37.45,37.45,0,0,0-8.3-.66c.28,4.44,1.46,11.13,5.94,10.65,6.68-.7,19.26,6.79,19.7,22.33,7.7,7.81,22.46,13.68,31.88,16.36s31.17,9,42,24.21C1299.91,1079,1304.65,1081.17,1308.81,1081.62Z"/><path class="cls-10" d="M1145.62,1130.88s2.47-8.71,7.79-12.12,1.44-11.65,11-13.72,17.26-2.41,31,2c9.38-4,20.54-8.67,25.35-11.25s19.76-14.17,26.76-16.06,21.56-5.62,38.69-1.19,17.34,7.59,17.34,7.59,3.55,6.46-6.33,4.49-35.11-9.6-57.88,5.41-28.4,16-28.4,16l-5.45-1.57s-7.14.18-8,6.12-15.67,5.06-18.41,8.23-3.65,9.59-3.65,9.59Z"/><path class="cls-29" d="M1118.82,1020.8s10.93,8.86,14,20.43,9.87,23.06,22.45,22.32c4.68-7.44,11.74-16.75,26-17.68s27.28-8.78,32.75-25.59c-4.3-4.8-11.48-24.86-10.86-46.77-12.37,2.17-18.49,9.82-18.49,9.82Z"/><path class="cls-26" d="M1196.89,975.23a30,30,0,0,0-12.17,8.1l-65.9,37.47s10.93,8.86,14,20.43a54.71,54.71,0,0,0,1.85,5.69C1192.63,1037.62,1197.11,991.3,1196.89,975.23Z"/><path class="cls-34" d="M1217.79,915.14c2.58-.88,11,1.67,13.78,6.1s-2.68,6-3.22,8.16,8.67,5.6,6.29,10.18-5.12,7.63-3.92,9.19,6,4.39,3.42,5.75-6,1.6-3.75,4.18,8,7.59,3.56,11.84-11.11,6.24-6.88,10.53,7.72,10.69.45,10.72-11.18,16.35-24.64,1.87-6.79-29.45-6.79-29.45l-13.34-10.13,6.15-46.71Z"/><path class="cls-29" d="M1086.72,924.41c-.08,11.67-.56,99.46,44.85,103.07s67.1-49.09,67.1-49.09,29.87-4.08,29.93-26-27.89-11.49-29.4-4.73-6.86,16.16-10,5.16.41-28.49,3.38-36c-6.54-5.49-73.09-29.35-73.09-29.35S1087,888.5,1086.72,924.41Z"/><path d="M1153.86,1088.48q3.51-5,7.48-9.71c3.15-3.73,6.77-8.27,11.7-9.58,12.67-3.37,21.63,12.68,26.09,21.75a1,1,0,0,0,1.77-.13c4-11.11,8.52-22.07,13.23-32.91,4.37-10.06,10.19-19.6,11.29-30.7.13-1.23-1.79-1.34-1.91-.11-1.11,11.14-7.2,20.94-11.57,31.05-4.57,10.56-8.93,21.24-12.86,32l1.76-.13c-4.84-9.86-14-25.66-27.48-22.92-4.93,1-8.5,4.76-11.72,8.38a128.06,128.06,0,0,0-9.38,11.9c-.71,1,.89,2.07,1.6,1.06Z"/><path d="M1102.29,1039.86c-4.47,4.37-8.16,9.56-9.81,15.67-1.88,6.93-.81,14,1.69,20.58.32.83,1.5.56,1.77-.13a21.55,21.55,0,0,1,12.33-12.65c3.82-1.43,6.29-1.65,8.45,2,1.6,2.67,2.88,5.48,4.82,7.94a25.16,25.16,0,0,0,10.58,7.67c1.15.46,1.75-1.36.61-1.83a24.09,24.09,0,0,1-12.17-10.78c-1.37-2.4-2.52-5.73-5-7.26-3.06-1.88-7.61.12-10.43,1.6a23.84,23.84,0,0,0-11,12.74l1.76-.14c-4.75-12.59-1.85-24.61,7.7-33.94.88-.87-.4-2.3-1.29-1.43Z"/><path d="M1153.54,1077.1A12.57,12.57,0,0,1,1155,1067c.66-1-.94-2.1-1.6-1a14.41,14.41,0,0,0-1.77,11.55c.34,1.18,2.22.78,1.88-.41Z"/><path class="cls-29" d="M1188,1195.61c6.85-.74,16.32-6.52,18.84-10.94s3.86-13.19,1.12-20.47-9.41-22.75-23.42-28.93-28.27-7.52-34.53-7-20.37-2.24-40.76-.5-41.66,1.73-55.3-4.43-37.09-26.08-53.51-27.71-33.81,3-42.18,10.25-8.14,23.79-4,26.58,7.34,1.25,7.34,1.25-1.67,15,10.19,11.92c-.63,7.56,6.36,14.07,13.11,10.44,1,3.48,3,7,11.39,5.47S1021,1152,1021,1152s9.07,11.4,13.8,19.4c10.77,5.88,18.89-.52,24.68-2.2s25.82,7.39,34.69,12.15S1147.85,1200,1188,1195.61Z"/><path d="M980.75,1113.21c-8.24,3-17.41,9.38-19.3,18.45-.25,1.19,1.57,1.81,1.82.61,1.79-8.62,10.54-14.49,18.36-17.35,1.16-.43.27-2.13-.88-1.71Z"/><path d="M973.12,1144c1.28-8.07,12.11-14.16,19.19-17.06,1.14-.47.26-2.18-.88-1.71-7.71,3.16-18.75,9.33-20.23,18.66-.19,1.22,1.73,1.32,1.92.11Z"/><path d="M986.93,1154c0-1.61,1.45-3.43,2.46-4.58,4.58-5.22,11.48-8.36,17.72-11,1.14-.48.26-2.19-.88-1.71-6.58,2.81-13.87,6.21-18.57,11.83-1.18,1.4-2.69,3.43-2.65,5.38,0,1.23,1.94,1.35,1.92.11Z"/><path d="M1004.74,1099c3.15,1.46,7.19,3.36,8.07,6.86,1,3.84,5.18,6.76,8.1,9.1,3.73,3,10.4,6.25,11.74,11.07,1.22,4.42,2.85,9,7.07,11.55,1.06.65,2.12-1,1.06-1.6a15.37,15.37,0,0,1-5.65-7.41c-.8-2.13-.68-4-2.12-5.89-3-4-7.78-6.65-11.63-9.8a29.15,29.15,0,0,1-5.87-5.71c-1-1.38-.73-3-1.76-4.32-2-2.62-5.49-4.32-8.4-5.67-1.12-.52-1.72,1.31-.61,1.82Z"/><path d="M1214.35,946.92c-3.5.13-9.48,1-10.15,5.29-.37,2.45,1.49,3.74,3.28,5,2.07,1.43,3.39,2.58,2,5.15a8,8,0,0,1-5.37,3.94,1,1,0,0,0,.41,1.88c3.76-.78,9.86-6,6.87-10.22-1.61-2.3-8.22-4.36-3.69-7.51,1.74-1.21,4.47-1.51,6.55-1.59,1.22,0,1.34-2,.1-1.92Z"/><path class="cls-34" d="M1094,903.92s6.92,6.51,13.54,6.58,11.63-6.07,14-6.58,5.65,2.54,9.14,5.14,6.1,1.89,9.44-.5,3.55-2.37,7.67.42,11.37,4.35,13.19,1.73,4.2-3,6.37.35,11.92,3.93,12.27-.72-24.42-15.71-32.67-17.44-30.85,1.25-37.09,1.91S1094,903.92,1094,903.92Z"/><path class="cls-26" d="M1099.16,884.32c55.23-3.84,62.95,16.82,89.33,30.59-71.82-20.37-101.77,9.5-101.77,9.5S1066.65,889.68,1099.16,884.32Z"/><path class="cls-31" d="M1170.2,907.37q8.54,3.21,18.29,7.54c2.65,1.16,4.12,1.86,4.12,1.86s-41.17-43.62-97.21-39.34c-28.94,2.21-41.08,16.06-40.49,28.22C1069.27,873.65,1135,893.8,1170.2,907.37Z"/><path class="cls-31" d="M1170.2,907.37c-35.21-13.57-100.93-33.72-115.29-1.72.56,11.38,12.27,21.28,31.81,18.76C1088.74,915,1093.79,878.66,1170.2,907.37Z"/><path class="cls-26" d="M1170.2,907.37c-35.21-13.57-100.93-33.72-115.29-1.72.56,11.38,12.27,21.28,31.81,18.76C1088.74,915,1093.79,878.66,1170.2,907.37Z"/><path class="cls-31" d="M1209.75,867.24c-11.92-13.69-31.67-27.81-62.67-28a51.78,51.78,0,0,0-12.58,1.46c13.14,1.42,44.63,6.15,54.64,19.43,12.76,17,3.48,56.64,3.47,56.64h0c10.54,4.21,22.93,8.3,22.93,8.3a50.93,50.93,0,0,0,6.22-16.13C1223.79,899.22,1221.67,880.93,1209.75,867.24Z"/><path class="cls-35" d="M1134.5,840.7c13.14,1.42,44.63,6.15,54.64,19.43,12.76,17,3.48,56.64,3.47,56.64h0s-34.72-37.79-97.21-39.34c1-17.78,32.4-37.57,39.1-36.73"/><path class="cls-34" d="M1134.64,923.88c-.74-2.7,3.49-9.36,17.47-6.75s20,9.92,18.42,12.62-12.53-5.6-21.37-5.51S1135.71,927.79,1134.64,923.88Z"/><path class="cls-34" d="M1091.33,928.65c-1.59-1.55,2-7.16,8.92-9.85s15-2.39,15.57-.08-6.68,3.77-12.43,5.31S1094.45,931.67,1091.33,928.65Z"/><path d="M1141.34,934.33c7.48-.35,18.79,1.21,21.66,9.31.41,1.15,2.29.75,1.88-.41-3.22-9.07-14.9-11.22-23.43-10.82-1.23.06-1.34,2-.11,1.92Z"/><path d="M1096.65,935.28c6.27-.64,13.91,1.22,16.46,7.58.46,1.15,2.16.27,1.71-.87-2.89-7.22-11.49-9.31-18.58-8.58-1.23.12-.81,2,.41,1.87Z"/><path d="M1115.41,955.76a53.67,53.67,0,0,1-2,10.29c-.62,1.78-1.14,3.38-.46,5.26,1.41,3.87,5.69,3,9,2.87,1.22,0,1.34-2,.1-1.92-3,.15-8.14,1-7.47-3.66.29-2,1.32-4,1.72-6,.44-2.23.74-4.49,1-6.74.17-1.22-1.75-1.32-1.92-.1Z"/><path d="M1102.47,979.69c14.14,9.86,33.75,5.2,46.92-3.69,1-.68.15-2.4-.88-1.71-12.6,8.5-31.39,13.27-45,3.8-1-.71-2.07.9-1.06,1.6Z"/><path d="M1111.12,945.89a6.31,6.31,0,1,1-6-6.65A6.32,6.32,0,0,1,1111.12,945.89Z"/><path d="M1158.64,944.85a6.31,6.31,0,1,1-6-6.64A6.31,6.31,0,0,1,1158.64,944.85Z"/><path d="M1150.38,1123.26c.27-2.58,3.08-2.88,4.57-4.41,1-1.08,1.14-2.7,1.48-4.08,1.72-7,9.4-10.3,16-10.76,12.78-.9,24.9,5.23,36.92,8.56,14.23,4,27.41,15.5,33.27,28.93,6.25,14.33,4,30.29-1.44,44.49-.44,1.16,1.39,1.77,1.83.61,5.06-13.34,7.47-28.18,2.84-42a51.48,51.48,0,0,0-17.35-23.92,55.06,55.06,0,0,0-18-9.77c-12.06-3.55-24.47-9.43-37.3-8.87-6.83.3-15.42,3.41-18.07,10.32-.71,1.83-.52,4.34-2.18,5.54-2,1.47-4.21,2.43-4.51,5.26-.13,1.23,1.79,1.33,1.92.1Z"/><path d="M1201.79,1105.23c10.24-3.93,21.42-8.23,30.14-15,1.76-1.37,3.13-3.13,5-4.42a37.11,37.11,0,0,1,7.82-4,66.3,66.3,0,0,1,25-4.49,64.62,64.62,0,0,1,36.19,11.63c1,.7,2.07-.9,1-1.61a67.87,67.87,0,0,0-57.9-9.06c-5.32,1.59-11.27,3.75-15.36,7.66-4.93,4.71-10.74,7.82-16.87,10.75-5.22,2.49-10.54,4.79-15.94,6.86-1.16.44-.27,2.15.88,1.71Z"/><path d="M1269.66,1067.58c-15.68-1.19-35,3.82-42.62,18.77-.56,1.1,1,2.16,1.6,1.06,7.33-14.36,25.86-19.06,40.91-17.91a1,1,0,0,0,.11-1.92Z"/><path class="cls-26" d="M1092.55,1060.35s-5.06,12.39,3.52,22.39c4.54-4.77,10.59-11.19,14.53-10.31s5,11.11,18.59,6c-4.24-3-10.17-11.85-11.83-14s-6.18-5.94-12.39-.67a49.64,49.64,0,0,0-9.94,11.86Z"/><path class="cls-26" d="M1155.49,1084.62s13-8.23,21.77-6,17.08,8,23.53,20.17c6.13-9.93,16.15-49.56,16.15-49.56l-17.51,40.11s-12.32-24.08-22.86-21.66S1155.49,1084.62,1155.49,1084.62Z"/><path class="cls-10" d="M1156.1,1019.6a3.26,3.26,0,0,0-3.89-1.43c-22.35,7.71-35,.37-44.89-15.38-10-15.93-15-57.61-16.21-69.26a2.16,2.16,0,0,0-3.09-1.71h0a2.17,2.17,0,0,0-1.22,2c.67,26,6,90.58,44.77,93.66a53.07,53.07,0,0,0,22.9-3.13,3.26,3.26,0,0,0,1.66-4.7Z"/><path class="cls-10" d="M1147.08,839.24a51.78,51.78,0,0,0-12.58,1.46c-23.36,5.68-37.08,26.54-39.1,36.73.57.36,1.35.77,2.3,1.24l4.81-1.53s14.84-31.49,51.15-33.44c10.3-.55,22.32,1.27,36.22,6.86C1178.87,844,1164.82,839.35,1147.08,839.24Z"/><path class="cls-10" d="M1102.18,877.14c-2.24,0-4.49.11-6.78.29-28.94,2.21-41.08,16.06-40.49,28.22a24.89,24.89,0,0,1,5.87-8.17v0C1070.37,878.53,1098.77,877.23,1102.18,877.14Z"/><path class="cls-10" d="M1187.8,1137a32.34,32.34,0,0,0-3.26-1.69c-14-6.17-28.27-7.52-34.53-7s-20.37-2.24-40.76-.5-41.66,1.73-55.3-4.43-37.09-26.08-53.51-27.71-33.81,3-42.18,10.25-8.14,23.79-4,26.58a10.3,10.3,0,0,0,2.28,1.17c-.38-3.72-1-15,4.48-20.66,6.64-6.87,41-19.83,65.34-1.11s58.5,25.13,93.35,23.89C1145.84,1134.81,1171.48,1134.33,1187.8,1137Z"/><path class="cls-26" d="M1317.42,1126.86c-4.61,8.86-11,19.77-18.3,28-14.59,16.6-53.63,13.19-53.63,13.19s1.78-3.75,1.81-10.93c-18.84,9.19-47-8.05-50.36-12.45.13,16.76-16.15,22-16.15,22l-18.28,20.68,49,12.42c34.36.64,63.94.13,77.28-2.7C1308.64,1179,1316.54,1151.36,1317.42,1126.86Z"/><path d="M957.62,1105.15c-5.68,5.18-7.86,13.72-6.94,21.2.28,2.33.89,5.08,2.76,6.68a8.78,8.78,0,0,0,8.59,1.53l-1.4-.91a17.65,17.65,0,0,0,1,8.25c1.8,4.48,5.89,5.68,10.36,4.66l-1.16-1c-.34,7.88,6.59,15.13,14.51,11.35l-1.38-.65c1.77,6.07,6.74,7.14,12.54,6.2,1.22-.2.81-2.08-.41-1.88-4.7.76-8.8.26-10.25-4.73a1,1,0,0,0-1.38-.65c-6.6,3.15-12-3.18-11.71-9.54a1,1,0,0,0-1.17-1c-4.48,1-7.66-.7-8.7-5.22a17.65,17.65,0,0,1-.32-5.71,1,1,0,0,0-1.4-.9,6.54,6.54,0,0,1-7.32-2.34c-1.23-2-1.4-4.82-1.41-7.06,0-6.12,1.85-12.65,6.48-16.87.91-.83-.37-2.26-1.28-1.43Z"/></g><g id="Layer_1-2" data-name="Layer 1"><ellipse class="cls-36" cx="438.63" cy="1902.77" rx="123.57" ry="169.73" transform="translate(-1485.15 2237.45) rotate(-86.89)"/><path d="M608.11,1912c-3.71,68.15-87.14,119-165.32,114.77s-121.49-62-117.79-130.16,70.08-119.94,148.26-115.69S611.81,1843.84,608.11,1912Z"/><path class="cls-37" d="M311.42,1359.78s-39,8.78-49.39,23.61-37.57,42.22-45,61-8,52.81-8,52.81,76,29.15,93.57,25,49.51-132,46.73-139.86S311.42,1359.78,311.42,1359.78Z"/><path class="cls-38" d="M1528.53,799.85l91.13-1.4s-151.78,236.3-152.86,271.75-9.79,134.56-2.54,220.51,2.09,138.93,2.09,138.93l-370.78-.69s56.14-197.58,81.65-208.12,141.45-16.49,141.45-16.49l189.12-345.6Z"/><path class="cls-39" d="M2410.1,1778.77s14.07.77,25.79-2.44,25.7-79.45,25.7-79.45l-7.27-94.45-23.47-40.19-88.9-8.68-91.31,98.52,6.39,118.37Z"/><path d="M2419.25,1820.63c-9.77,92.64-49.63,165.91-128.27,156.06-84.35-10.56-102.65-86.75-92.87-179.39s67-152,128.26-156.06C2414.9,1635.35,2429,1728,2419.25,1820.63Z"/><ellipse class="cls-36" cx="2355.13" cy="1808.01" rx="155.41" ry="65.09" transform="translate(310 3960.45) rotate(-83.98)"/><ellipse class="cls-40" cx="2355.13" cy="1808.01" rx="114.33" ry="47.88" transform="translate(310 3960.45) rotate(-83.98)"/><ellipse class="cls-41" cx="2355.13" cy="1808.01" rx="43.23" ry="18.1" transform="translate(310 3960.45) rotate(-83.98)"/><path class="cls-39" d="M1476.48,2028.64s14.14-.52,25.63,12.29c.84-39.08-.8-64-.8-64l28.1-13.44,27.22-146.69-18-141.45-93.2-67.29-191.13,23.16-94.95,165.48-20.06,121.21Z"/><path d="M1487.06,2024.17c-31.8,141.37-126.62,248.77-255.58,211.44-134.89-39-172.23-159.14-140.44-300.51s146.38-236.73,255.58-211.44C1464,1750.85,1518.85,1882.8,1487.06,2024.17Z"/><ellipse class="cls-36" cx="1344.39" cy="1996.32" rx="238.72" ry="145.31" transform="translate(-898.27 2869.9) rotate(-77.32)"/><ellipse class="cls-40" cx="1344.39" cy="1996.32" rx="163.45" ry="99.49" transform="translate(-898.27 2869.9) rotate(-77.32)"/><ellipse class="cls-41" cx="1344.39" cy="1996.32" rx="82.7" ry="50.34" transform="translate(-898.27 2869.9) rotate(-77.32)"/><path class="cls-31" d="M2492.76,915.18c-7.57-29.91-31.65-43.2-74.58-55.79s-505.45-148.93-922.35-145.94-578.18,19.88-708.4,102.61c181.39-12.87,823.87-4.89,823.87-4.89s75.72-12.9,109.45-13.64,756.6,129.65,756.6,129.65Z"/><path class="cls-10" d="M2492.76,915.18c-7.57-29.91-31.65-43.2-74.58-55.79s-505.45-148.93-922.35-145.94-578.18,19.88-708.4,102.61c292.66-33.77,753.4-8.72,753.4-8.72s36-63,78.37-24.56c25,22.67,858.15,144.4,858.15,144.4Z"/><path d="M290.92,1364.91c-9.59,3.49-20.22,7.71-27.43,15.23-2.5,2.61-4.46,5.77-6.71,8.61-2.61,3.29-5.31,6.52-8,9.74-6.24,7.44-12.54,14.83-18.42,22.56-5.18,6.81-10.32,13.94-13.72,21.83-4.69,10.89-6.18,23.29-7.36,35-.13,1.23,1.79,1.33,1.92.1,1.06-10.58,2.49-21.4,6.08-31.46,2.84-8,7.77-15.08,12.76-21.82,10.25-13.88,22.32-26.32,32.45-40.27,6.76-9.3,18.88-14,29.32-17.8,1.15-.42.27-2.12-.88-1.7Z"/><path class="cls-10" d="M339.72,1373.9c-11.28-7-28.3-14.12-28.3-14.12s-31.61,7.13-45.5,19.38c21.8,17.18,49.66,36,75.79,44.58,5.35-21.46,8.58-38.65,7.61-41.38l0-.09c-5.52-5-9.57-8.37-9.57-8.37Z"/><path class="cls-42" d="M504.76,1178s239.16-57.24,353.19-31,200.78,6.22,258.25,9.77c45.17,2.79,138.45,10.19,203.15,39.12,17.63,7.88-111.56-.88-99.73,10.55-58.39,4.41-557,9.06-612.4,6S504.76,1178,504.76,1178Z"/><path class="cls-10" d="M875.65,1159.75c61.09,16.79,175.27,8.82,204.11,5.29s165.64,5.26,217,28.33a52.33,52.33,0,0,0,6.45-4c-63.26-23.51-145.46-30-187-32.54C1058.73,1153.24,972,1173.32,858,1147c-51.14-11.79-127.44-6.78-196.06,2.33,16.68.91,34.56,2.48,42.14,5.13C727.69,1151.92,814.55,1143,875.65,1159.75Z"/><path class="cls-30" d="M1873.64,1012.34c-14.78-27.05-111.16-35.93-147.8-20.71s-49.76,106.59-22,119.79c-33.32,47.95-34.29,105.06-34.29,105.06l214.76-22.94Z"/><path d="M1713.17,1113c8.23-2.38,16.95-3.51,25.44-4.42a276.63,276.63,0,0,1,67.85,1.47,313.4,313.4,0,0,1,52,12,1,1,0,0,0,.61-1.82c-43.76-14-92-19.79-137.53-11.1-2.92.56-5.87,1.15-8.73,2-1.18.34-.78,2.22.41,1.87Z"/><path class="cls-31" d="M301.59,1458s13.79-29.4,26.24-46,5-33.08-6.44-35-23.47-16.67-23.47-16.67,2.93-18.44,6.79-30.42,54.62-108,70.73-121.23,47.88-42.94,104.3-42.44c45.08,8.37,622.88,44.49,767.81,46.1-29.31,21-45.74,40-50.06,48.73s-74.26,150.55-75.14,155-1.33,20.53-1.33,20.53-180.54,1.58-206,3.05-30.6,7.17-39.63,15.81-50.92,66.22-50.92,66.22S473,1502,301.59,1458Z"/><path class="cls-26" d="M1122.84,1414.74c-102.07,1-332.41.57-551.66-19-189.47-16.94-249-44.79-267.51-62.35-3.33,11.76-5.75,27-5.75,27s12,14.77,23.47,16.67,18.89,18.35,6.44,35-26.24,46-26.24,46c171.44,44,522.88,63.64,522.88,63.64s41.9-57.59,50.92-66.22,14.18-14.34,39.63-15.81,206-3.05,206-3.05.45-16.09,1.33-20.53A10.58,10.58,0,0,1,1122.84,1414.74Z"/><path class="cls-37" d="M1225.8,1436.43c-43.1,2.14-104.78.15-104.78.15s-180.54,1.58-206,3.05-30.6,7.17-39.63,15.81-50.92,66.22-50.92,66.22-11.68,43-13.62,55.13,3.54,17.52,19.49,19,104.75,8.26,199.54,10.85,203.33.15,203.33.15S1249.93,1500,1254,1484.14,1268.89,1434.28,1225.8,1436.43Z"/><path class="cls-31" d="M1880.33,1880c98.94-569.35,9.52-1048.24,6.16-1068.95,0,0-8.59-19.07,25.17-14.66s493.92,94.2,581.1,118.82c14.44,41.2,53.82,272.52,46.31,457.82-.69,28.31-4.15,60.62,3.12,84.11s2.6,78,1.07,106.11-15.37,141.14-20.6,158.81-11.77,27.58-31.08,36.8-43.89,20.7-55.69,17.5c12.11-18.16,47.54-213.8-44.88-212.84s-96.12,194.91-137.25,259.38c-46.93,13.7-752.45,154.09-752.45,154.09s18-13.64,21.72-26C1548.57,1946.49,1754.71,1909.49,1880.33,1880Z"/><path class="cls-10" d="M1776.86,821.74c-30.66-2.31-110.19-14.33-136.52,9.9-20.76,19.09-65.27,72-106.78,157.55L1546,1131.86c58.78-42.59,163.26-137.18,306.6-176.81-.84-48.11-3.54-104.06-11.31-115.69C1830.65,823.38,1807.52,824.05,1776.86,821.74Z"/><path class="cls-10" d="M1447.36,1443.34a256.2,256.2,0,0,0,2.53,44.62l-2.4-62.57Z"/><path class="cls-10" d="M1449.89,1488l5.42,141c1.21-19.65,4-65.39,4.39-82.3C1460.07,1532,1453.66,1514.08,1449.89,1488Z"/><path class="cls-26" d="M1880.33,1880c-125.62,29.52-331.76,66.52-357.3,71-3.72,12.31-21.72,26-21.72,26s705.52-140.39,752.45-154.09c41.13-64.47,44.83-258.41,137.25-259.38s57,194.68,44.88,212.84c11.8,3.2,36.37-8.29,55.69-17.5s25.84-19.12,31.08-36.8,19.07-130.67,20.6-158.81,6.21-82.62-1.07-106.11-3.81-55.8-3.12-84.11L2290,1381.63"/><path class="cls-31" d="M2243.94,860.66c-150.26-30.58-312.74-61.76-332.28-64.3C1877.9,792,1886.49,811,1886.49,811c3.36,20.71,92.78,499.6-6.16,1069l357.73-67.36s22.13,2.06,32.56-111.12S2321.13,1216.41,2243.94,860.66Z"/><path d="M1853,1002.92c.15-48.06-1-147.59-11.63-163.56s-33.81-15.31-64.47-17.62-110.19-14.33-136.52,9.9-90.91,102.82-139.07,233.62-16.53,138.93-2.43,139.06,284.21-12.77,303.18-19.44,39.36-4.27,44-54.69S1852.81,1052.76,1853,1002.92ZM1793.31,1168c-54.65,6.38-257.2,11.62-257.2,11.62l-43.79-36.17,41.18-141.51s26.46-56.65,51.93-92.47,53.63-74.05,76.65-80.5,153.15-1.08,164.48,10.65,13.35,147.69,12.51,178.93S1848,1161.62,1793.31,1168Z"/><path class="cls-43" d="M1533.5,1001.94s26.46-56.65,51.93-92.47,53.63-74.05,76.65-80.5,153.15-1.08,164.48,10.65,13.35,147.69,12.51,178.93,8.9,143.07-45.76,149.45-257.2,11.62-257.2,11.62l-43.79-36.17Z"/><path class="cls-31" d="M1886.49,811s-2-22.55-31.89-26.75-208.08-42.74-243.48,6.65-118.29,190.42-148.48,261.91-25.49,111.79-27.85,161.21c0,0,6.07,18.56,8.32,31.57s4.49,165.19,4.49,165.19l-.24,32.54c-1.57,52.51,12.89,81.52,12.34,103.3s-5,91.46-5,91.46,136.72,33.77,68.3,312.91c25.54-4.52,231.68-41.52,357.3-71C1979.27,1310.62,1889.85,831.73,1886.49,811ZM1846,1130.19c-4.66,50.42-25.06,48-44,54.69s-289.07,19.56-303.18,19.44-45.73-8.26,2.43-139.06S1614,855.86,1640.34,831.64s105.86-12.21,136.52-9.9,53.79,1.64,64.47,17.62,11.78,115.5,11.63,163.56C1852.81,1052.76,1850.71,1079.77,1846,1130.19Z"/><path class="cls-31" d="M1887.43,810.82c-1.41-14.61-15.8-24.12-28.93-26.84-12.1-2.51-24.49-4.17-36.68-6.23C1781,770.88,1739.59,765,1698.12,765c-30.91,0-70.93,1.24-90.44,29.07-27,38.59-51,79.55-74.39,120.4-25,43.54-49.75,87.72-69.76,133.81-11.78,27.15-20.87,55.48-25.11,84.83-3.51,24.34-3.39,48.9-4.28,73.42-.14,3.83-.5,6.94.62,10.55,1.93,6.18,3.72,12.41,5.27,18.7a98,98,0,0,1,2.82,18c.9,15.64,1.23,31.32,1.64,47,.89,34.67,1.51,69.35,2,104,.16,9.68,0,19.36-.07,29-.18,24.17.71,47.71,5.45,71.5,2,10.21,4.69,20.35,6.11,30.68,1.15,8.36.54,16.75.15,25.14-1,21.36-2.29,42.7-3.6,64-.27,4.3-.53,8.6-.81,12.9a1,1,0,0,0,.66,1c15.93,4,30.74,16,41.65,27.64,33.37,35.7,43.79,87.19,45,134.52,1.33,50.38-7.09,100.73-19,149.53a1,1,0,0,0,1.12,1.25q48.27-8.55,96.45-17.68c56.45-10.59,112.83-21.53,169.06-33.23,30.66-6.38,61.29-13,91.78-20.13a1,1,0,0,0,.76-.89,3144.14,3144.14,0,0,0,38.52-321.31q9.69-141.29,7.55-283-1.65-114.69-10.93-229.09c-4.37-53.42-10-106.75-17.26-159.86-3.37-24.58-7-49.17-11.35-73.59q-.21-1.15-.39-2.31c-.2-1.22-2.08-.81-1.88.41,5.77,35.35,11.27,70.69,15.71,106.25,10.7,85.68,17.56,171.86,21.3,258.12a3430.35,3430.35,0,0,1-3.77,369.4q-6.87,106.47-20.73,212.35-7.33,55.7-16.72,111.08c-.66,3.88-.3,9.56-4.06,11.27-2.54,1.14-6,1.39-8.7,2q-9.8,2.25-19.59,4.43-19.11,4.26-38.27,8.32c-91.91,19.54-184.28,37-276.76,53.62l-11.13,2,1.11,1.24c16.29-66.8,27.78-139.65,12.27-207.77-7.58-33.28-22.84-66.06-49.43-88.34a102.31,102.31,0,0,0-23.12-14.77,36.61,36.61,0,0,0-6.72-2.67,7.6,7.6,0,0,1-1.62-.5c.23.12-.06,1.32.46-.53,1-3.71.54-8.64.78-12.47q.62-10.14,1.22-20.3c.88-15,1.75-30,2.42-45,.53-11.66.17-22.42-2.16-33.91-3.46-17-7.29-33.87-8.85-51.21-1.92-21.48-.41-43.13-.66-64.66-.22-19.06-.62-38.12-1-57.18-.52-26.55-1-53.1-2-79.64-.28-7.94-.46-15.91-1.16-23.83a96,96,0,0,0-2.92-14.81c-1.62-6.4-4.87-13.24-5.72-19.78-.48-3.66.33-8,.45-11.65q.19-6.51.34-13c.21-8.16.41-16.32.83-24.47a315.26,315.26,0,0,1,7.37-55c8.51-36.62,24.33-70.86,41.25-104.24a2042,2042,0,0,1,107.26-186.44c6.48-10,12.7-20.93,20.49-30,6.92-8,17.14-12.61,27.09-15.59,26.45-7.92,55.44-7.35,82.73-5.82,28.76,1.61,57.39,5.37,85.82,9.92,10.4,1.67,20.78,3.47,31.15,5.28s21.48,2.42,30.57,7.77c7.16,4.22,13.61,11.95,14.44,20.54C1885.67,812.45,1887.54,812,1887.43,810.82Z"/><path class="cls-31" d="M1845.08,1130.13c-1.26,13.21-3.38,28.38-12.16,39-5.38,6.49-13,9.5-20.85,11.76-4.64,1.33-9.25,3.08-14,4-4.42.8-8.9,1.3-13.36,1.78-36.2,4-72.67,5.85-109,8q-63.18,3.77-126.4,6.7c-13.4.63-26.81,1.25-40.22,1.75-5.22.2-10.87.88-16-.35-7-1.68-11.66-7.09-14-13.77-5.19-14.93-2.23-32.69.67-47.73,6.45-33.61,18.35-66.32,31-98a798.62,798.62,0,0,1,45.55-95.45,649.67,649.67,0,0,1,44.27-68.67c10.67-14.37,22-28.41,34.6-41.14,5.87-5.92,11.83-10.75,19.75-13.73,11.7-4.4,24.52-5.74,36.92-6.29,25.2-1.14,50.36,1.53,75.41,3.92,14,1.33,28.1,1.63,42.06,3.39,11.47,1.45,25.82,4.48,31.82,15.68,3.55,6.63,4.36,15.14,5.36,22.46,1.68,12.25,2.58,24.61,3.29,37,1.58,27.5,2.06,55.08,2.2,82.63.15,31.53-.3,63.06-2.47,94.53-1.22,17.56-2.82,35.1-4.44,52.62-.11,1.24,1.81,1.34,1.92.11,3.3-35.68,6.15-71.33,6.73-107.17q.7-43-.53-86.06c-.71-26-1.38-52.43-5.43-78.19-1-6.73-2-14.74-6-20.49-7-10.1-19.52-13.26-31-14.82-14.28-1.94-28.75-2.18-43.09-3.54-12-1.15-24.08-2.38-36.16-3.19a344.77,344.77,0,0,0-41.54-.66c-12,.64-24.27,2.07-35.59,6.29-15,5.58-25.67,19.06-35.78,30.92a532.53,532.53,0,0,0-41.28,56,740.11,740.11,0,0,0-46.56,83.53A789.91,789.91,0,0,0,1488,1101.41c-7,22.61-13.8,46.81-13.37,70.69.18,9.66,1.66,21.22,9.33,28,4.22,3.75,9.7,5.13,15.24,5.14,8.73,0,17.48-.58,26.2-1q26.34-1.14,52.66-2.47,33.24-1.66,66.46-3.52,33.79-1.89,67.58-4.06c18.54-1.22,37.09-2.5,55.6-4.11,10.7-.92,21.74-1.48,32.26-3.74a171.46,171.46,0,0,0,16.73-4.94c7.75-2.53,14.58-6.53,19.37-13.29,7.67-10.83,9.74-25.08,11-38C1847.12,1129,1845.2,1128.9,1845.08,1130.13Z"/><path class="cls-10" d="M1861.45,877.87c-1.17-21.45-.64-54.77-39.3-59.44s-153.9-16.49-177.65,3.38-81.86,88.49-113.36,163.82-43.66,136.64-42.33,222.24c-25,3.34-160.42,5.14-160.42,5.14l-80.84-.68c-144.93-1.61-722.73-37.73-767.81-46.1-56.42-.5-88.18,29.2-104.3,42.44a43.7,43.7,0,0,0-5.89,6.42c46.11,15.14,306.87,37.47,525.41,41.71,144.88,2.81,247.34,1.18,305.43-.53,0,0,40.14,2.34,242.72-10.66s353-26.63,376.27-30.07,48.88-26,50.92-63.51S1862.61,899.31,1861.45,877.87ZM1846,1130.19c-4.66,50.42-25.06,48-44,54.69s-289.07,19.56-303.18,19.44-45.73-8.26,2.43-139.06S1614,855.86,1640.34,831.64s105.86-12.21,136.52-9.9,53.79,1.64,64.47,17.62,11.78,115.5,11.63,163.56C1852.81,1052.76,1850.71,1079.77,1846,1130.19Z"/><path class="cls-44" d="M1686.29,1083.66c3.06-30.6,9.54-69.4-13.84-75.81s-93.61-.85-105.23.57-27.87,26.19-36.72,48.8-13.8,42.87-14.59,69.13-1.27,35.21,23.43,41,108.44,11,126.54-3.38S1683.48,1111.77,1686.29,1083.66Z"/><path class="cls-44" d="M1556.06,1166.59c0,6.85,4.33,38.37-9,40.38s-45,2.44-50.6,2.56-22.39-5.06-24.33-24.41-.49-40.23,6-63.4,40.55-112,53.1-136.09c7,7.22,9.87,17.22,6.26,67.91S1556.06,1166.59,1556.06,1166.59Z"/><path class="cls-26" d="M1686.29,1083.66c2.83-28.39,8.62-63.82-9.22-73.91-30.7,13.82-30.56,126.91-28.9,137.9,1.89,12.5-6.57,10.76-42.1,11.4-31,.55-77.56-5.6-89-7.18,2.34,7.9,8.25,12.21,22.26,15.52,24.69,5.83,108.44,11,126.54-3.38S1683.48,1111.77,1686.29,1083.66Z"/><path class="cls-45" d="M1517.45,1153a16.48,16.48,0,0,0,4.22,6.59h0A16.61,16.61,0,0,1,1517.45,1153Z"/><path class="cls-10" d="M1606.07,1159.05c35.53-.64,44,1.1,42.1-11.4-.74-4.9-1.18-30.11,1.29-57.77-60.8-10.77-111.82.11-130.2,5a196.39,196.39,0,0,0-3.35,31.44c-.36,12.08-.66,20.49,1.53,26.63q-.2-.54-.36-1.11C1528.51,1153.45,1575.09,1159.6,1606.07,1159.05Z"/><path class="cls-26" d="M1871.75,1292.83c15-.23,28.29,2.42,28.62,11.39s8.76,41.12-22.82,42.27-34.19-12-35-33.76S1867.91,1292.89,1871.75,1292.83Z"/><path class="cls-44" d="M1900.37,1304.22c-.33-9-13.67-11.62-28.61-11.39-3.85.06-30-1.87-29.19,19.9a101.8,101.8,0,0,0,1.17,13.63l57.73-2.1C1902.14,1316.16,1900.51,1308.06,1900.37,1304.22Z"/><path class="cls-26" d="M1447.36,1443.34c-1.57,52.51,12.89,81.52,12.34,103.3s-5,91.46-5,91.46c121.45,43.16,86.57,260,68.3,312.91,160-27.85,357.3-71,357.3-71,30.25-174.06,42.89-339.66,45.77-486.3-211.89,7.12-408.73,14-478.5,17.13C1447.68,1423.27,1447.63,1434.44,1447.36,1443.34Z"/><path class="cls-31" d="M1459.7,1546.64c.55-21.78-13.91-50.79-12.34-103.3l.24-32.54c-175.59,7.94-324.76,3.94-324.76,3.94a10.58,10.58,0,0,0-.49,1.31c-.88,4.44-1.33,20.53-1.33,20.53s61.68,2,104.78-.15,32.26,31.9,28.19,47.71-20.78,122.67-20.78,122.67-108.53,2.44-203.33-.15-183.58-9.34-199.54-10.85-21.43-6.93-19.49-19,13.62-55.13,13.62-55.13S509.2,1504,330.21,1464.79c-9.18,29.31-19.82,55.57-27.62,57.43-17.54,4.18-93.57-25-93.57-25-18.56,22.72-29.17,64.48-36.22,135.3s-5.25,190.86-5.25,190.86,907.24,231.49,937.79,224.18,47.12-111.62,52.55-140.83,29.34-126.69,92.13-208,182.78-70.24,204.71-60.71C1454.73,1638.1,1459.16,1568.42,1459.7,1546.64Z"/><path class="cls-26" d="M1459.7,1546.64c.55-21.78-13.91-50.79-12.34-103.3l.24-32.54c-175.59,7.94-324.76,3.94-324.76,3.94a10.58,10.58,0,0,0-.49,1.31c-.88,4.44-1.33,20.53-1.33,20.53s61.68,2,104.78-.15,32.26,31.9,28.19,47.71-20.78,122.67-20.78,122.67-108.53,2.44-203.33-.15-183.58-9.34-199.54-10.85-21.43-6.93-19.49-19,13.62-55.13,13.62-55.13S509.2,1504,330.21,1464.79c-9.18,29.31-19.82,55.57-27.62,57.43-17.54,4.18-93.57-25-93.57-25-18.56,22.72-29.17,64.48-36.22,135.3s-5.25,190.86-5.25,190.86,907.24,231.49,937.79,224.18,47.12-111.62,52.55-140.83,29.34-126.69,92.13-208,182.78-70.24,204.71-60.71C1454.73,1638.1,1459.16,1568.42,1459.7,1546.64Z"/><path class="cls-31" d="M965.72,1666c-85.63-5.94-190.59-10.37-189.79-25.08s48.54-119.3,48.54-119.3S473,1502,301.59,1458c-6.69,17-19.38,73.36-23.76,94.93s-22.58,14.19-34,12.27c-9.51-1.59-39.88-10.51-55.09-25.92-6.93,23.18-12,53.67-15.92,93.25-7.06,70.81-5.25,190.86-5.25,190.86s907.24,231.49,937.79,224.18,47.12-111.62,52.55-140.83,29.34-126.69,92.13-208A157.19,157.19,0,0,1,1293.9,1660C1243.41,1662.37,1040.44,1671.22,965.72,1666Z"/><path class="cls-26" d="M2498.41,1413.73c-11.56.49-209.22,9.1-209.22,9.1l.82-41.2c79.7-2.6,150.67-4.9,204.83-6.65,10-.32,26.62-.67,27.47,15.19S2519.77,1412.82,2498.41,1413.73Z"/><path class="cls-46" d="M2496.13,1374.94c-2.73,3.8-4.2,9.42-3.46,17.71.89,10,3.57,16.66,7.11,21,20.12-1.14,23.36-8,22.53-23.49C2521.5,1375,2506.18,1374.66,2496.13,1374.94Z"/><path class="cls-26" d="M1880.33,1880l357.73-67.36s22.13,2.06,32.56-111.12c5.1-55.39,17.31-172.75,19.39-319.86-111.6,3.65-240.32,7.89-363.91,12C1923.22,1540.31,1910.58,1705.91,1880.33,1880Z"/><path class="cls-47" d="M2497.58,1389.71c-42.06,1.76-177.53,7.37-207.85,8.62q-.11,5.68-.24,11.3c39.56-2.6,183.25-9.73,208.48-11a4.42,4.42,0,0,0,4.19-4.11v-.11A4.4,4.4,0,0,0,2497.58,1389.71Z"/><path class="cls-10" d="M1613.1,1493.78c-54.38-18.38-269-28.25-355.07-29.13-.65,7.18-2.71,14.32-4,19.49-1.48,5.76-4.64,23.59-8,43.94,41.21,8.91,189.69,13,255.06,11.84C1572.18,1538.65,1670.21,1513.08,1613.1,1493.78Z"/><path class="cls-39" d="M1616.62,1822.44c10-21.77,103.81-69,161.43-77.38,31.16-4.55,357.33-57.34,386.66-62s79.32,4.1,78.34,22-7,19.29-21.76,22.76-549.91,94.12-565.45,96.69S1613.28,1829.69,1616.62,1822.44Z"/><path class="cls-26" d="M2193.59,1682.36c-7.94,13.53-31.7,24.39-56,28.14-32.77,5.06-368,68.08-443.34,84.52-40.75,8.89-60.49,21.93-70,32,8.54.65,22.22-.9,31.66-2.47,15.54-2.57,550.72-93.21,565.45-96.69s20.79-4.85,21.76-22.76C2243.75,1692.39,2218.68,1684.31,2193.59,1682.36Z"/><path d="M2484.38,904.82c-7.58-2.13-15.18-4.19-22.78-6.26q-31-8.4-62-16.46-46.09-12-92.34-23.37-56.94-14-114.12-27.06-62.66-14.26-125.63-27.12c-43-8.73-86-16.89-129.29-24.17-41.18-6.93-82.52-13.1-124-17.87-36.39-4.19-73-7.38-109.58-8.23-28.71-.67-57.81-.15-86.18,4.7-18.64,3.19-39.08,8.22-53.88,20.72a46.54,46.54,0,0,0-7.37,7.8c-.73,1,.87,2,1.61,1.06,10.65-14.36,29.47-20.84,46.15-24.86,26.12-6.3,53.41-7.6,80.17-7.7,35-.13,70,2.33,104.78,5.82,40.59,4.06,81,9.67,121.3,16.07,43.09,6.86,86,14.67,128.84,23.1q63.48,12.51,126.61,26.68,58.47,13,116.7,27.19,48.64,11.8,97.13,24.27,34.7,8.93,69.27,18.21c10.9,2.93,21.74,6.2,32.68,8.92l1.37.38c1.19.34,1.8-1.48.61-1.82Z"/><path class="cls-26" d="M1993.49,1287.94c4.71.48,12.08-.61,13.33,21s7.7,72.1-8.62,73.9C1990.15,1367,1986.91,1300.62,1993.49,1287.94Z"/><path d="M343.4,1479c-2.92,16.64-7.61,60.33,22.05,66.86,34.92,7.69,278.72,45.81,376.23,50,7.72-15.63,16.32-33.31,31.25-60.54C593.47,1528.41,406.49,1492.23,343.4,1479Z"/><path class="cls-44" d="M627.24,1001.7s-9.55-13.22-24.2-15S575.38,988,567,1013.18s-7.39,65-3.9,71.63C583.82,1057.07,627.24,1001.7,627.24,1001.7Z"/><path d="M1489,784.28c-32.61-1.77-282.92-10.89-386.41-6.9S815,791.9,787.43,816.06,591.85,1003.63,492.29,1171.4c52.87,6.73,532.05,41.76,836.1,41.61,0,0,174.52-319.57,205-372.44S1521.58,786.05,1489,784.28Zm8.79,67.83c-7.52,13.7-72,127.52-92,165.62-20.74,39.37-77.54,128.56-94.92,153.27s-28.43,27.32-49.51,25.78-221.38-10.36-321.22-14.5C851.5,1178.6,614,1166.82,535.66,1161A12.75,12.75,0,0,1,526,1141.2C639.47,971.73,721.2,894.49,780.18,840.87a30,30,0,0,1,14.71-7.27c178.79-33,629.42-25.84,676.36-20C1519,819.62,1505.27,838.41,1497.75,852.11Z"/><path class="cls-26" d="M349.85,1577.39c21.83,3.75,311.17,53.48,334.2,54.73s41.34-5.45,46.29-13.83,17-36.23,42.59-83c-203-9-416-53.49-446.15-60-2.5,7.46-5.07,14.52-7.62,20.79-3.84,21.45-5.94,36.61-5.7,50.37C313.76,1564.52,328,1573.64,349.85,1577.39Z"/><path d="M318.2,1496.12c-2.54,14.23-5.06,28.6-5.62,43.07-.4,10.45.69,20.25,8.91,27.6,9.9,8.84,23.5,10.73,36.12,12.9q38,6.51,75.93,13,56.16,9.54,112.35,18.91c33.35,5.54,66.71,11.07,100.13,16.24,24.38,3.78,52.76,10.79,75.9-1.19,3.59-1.86,7.06-4.31,9.22-7.8.65-1.06-.95-2.11-1.6-1.06-5.92,9.55-20.85,12.15-31,13.13a88.54,88.54,0,0,1-18.91-.16c-8.71-1-17.38-2.37-26-3.69-31.35-4.77-62.64-10-93.93-15.13q-55.65-9.21-111.27-18.67-41.4-7-82.8-14.12c-8.2-1.41-16.65-2.45-24.66-4.69-10.62-3-21.74-8.7-25.26-19.94-1.7-5.41-1.35-11.27-1.08-16.86.32-6.25,1-12.48,1.86-18.67,1-7.61,2.34-15.18,3.69-22.74.21-1.21-1.71-1.3-1.92-.1Z"/><path class="cls-48" d="M759.59,1560.23c-39.62-3.84-234.6-23.26-387.23-47-47.3-7.36-42.68-.13-36.09,3.17s244.09,43.21,418,54.11Q756.8,1565.59,759.59,1560.23Z"/><path class="cls-49" d="M1328.39,1213s174.52-319.57,205-372.44-11.79-54.52-44.41-56.29-282.92-10.89-386.41-6.9S815,791.9,787.43,816.06,591.85,1003.63,492.29,1171.4C545.16,1178.13,1024.34,1213.16,1328.39,1213Z"/><path class="cls-10" d="M1489,784.28c-32.61-1.77-282.92-10.89-386.41-6.9S815,791.9,787.43,816.06,591.85,1003.63,492.29,1171.4c8.74,1.11,29.13,3,58.45,5.37,93.79-79,407.58-300.06,936.44-253.31,21.25-38.51,38.42-69.39,46.19-82.89C1563.83,787.71,1521.58,786.05,1489,784.28Z"/><path class="cls-39" d="M1106.82,1939s19.54-.94,18.61,10.27.2,102.65-48.44,100.64-187.86-13.42-229.22-19.52-620.95-140.88-635.56-143.59-62.51-41.89-63.23-52.19,5.29-61.93,7.06-70.82,11.49-9.67,11.49-9.67,14.69,35.47,73.4,52.77,369.74,89.38,546,116.28S1078.68,1937.45,1106.82,1939Z"/><path class="cls-10" d="M1106.82,1939c-28.14-1.53-143.71,11.07-319.93-15.83s-487.24-99-546-116.28-73.4-52.77-73.4-52.77-8.58.7-11.08,8.14c8,11.87,29.69,39.27,68,52.72,49.72,17.46,436,97.47,516.6,113.4s323.67,28.5,362.35,24.83c10.33-1,16.86-4.32,20.89-8.69C1120.23,1938.34,1106.82,1939,1106.82,1939Z"/><path class="cls-26" d="M970.57,2013.32C837.55,2006.09,220,1860.9,186.9,1845c-18.73-9-30.6-12.08-38-11.13,0,.26,0,.51,0,.73.72,10.3,48.63,49.47,63.23,52.19s594.2,137.5,635.56,143.59,180.58,17.52,229.22,19.52c14.69.61,24.84-7.31,31.88-19C1089,2020.17,1046.21,2017.43,970.57,2013.32Z"/><polygon class="cls-50" points="366.62 1689.47 592.51 1730.86 584.97 1869.64 580.33 1872.35 350.61 1818.81 360.03 1692.71 366.62 1689.47"/><polygon class="cls-51" points="360.03 1692.71 587.8 1734.85 580.33 1872.35 350.61 1818.81 360.03 1692.71"/><path d="M1567,1007.48c-4.26.64-7.91,3.44-11,6.3a79.56,79.56,0,0,0-11.84,14.66c-8.1,12.33-14,25.87-18.78,39.8a193.24,193.24,0,0,0-9.51,43c-.74,7.33-1,14.7-1.16,22.06a91.11,91.11,0,0,0,.46,14.4c1,7.51,4.74,13.15,11.59,16.55,7.15,3.54,15.32,4.94,23.15,6.1a398.52,398.52,0,0,0,61.36,4,233,233,0,0,0,33.38-2.25c7.35-1.13,15.79-2.6,21.82-7.29,1-.76-.31-2.18-1.28-1.43-5.12,4-12.26,5.35-18.5,6.44a195.47,195.47,0,0,1-28,2.48,420.15,420.15,0,0,1-59.45-2.62,157.7,157.7,0,0,1-21.39-3.53c-7.75-2-16.42-5-19.49-13.1-3.21-8.48-1.86-18.93-1.54-27.77a196.23,196.23,0,0,1,24.55-88.6,104.69,104.69,0,0,1,12.73-18.16c3.48-3.85,7.86-8.27,13.24-9.07,1.22-.18.81-2.06-.41-1.88Z"/><path d="M1907.11,1875.9l49.77-9.37,110-20.71L2180,1824.51c19.23-3.62,38.43-7.41,57.69-10.86,10-1.79,15.5-17,18.58-26,8.23-24,11.5-49.89,14.17-75,1.79-17,3.26-34,4.82-51,4-43.77,7.51-87.58,10.13-131.45q5.34-89.65,5.83-179.51c.28-70.06-1.88-140.16-7.05-210-5.56-75.28-14.59-150.36-28.21-224.63q-5.11-27.9-11.12-55.64a.92.92,0,0,0-.63-.7c-100-20.34-200-40.4-300.36-58.79-10.69-2-21.4-4.14-32.18-5.56-1.23-.17-1.32,1.75-.1,1.91,16.9,2.25,33.7,5.82,50.46,9q51.3,9.59,102.51,19.65,64.08,12.5,128.08,25.35L2226,858l7.84,1.59c2.22.45,5.88.48,7.82,1.59,2.69,1.54,2.66,5.94,3.23,8.62q.95,4.47,1.86,8.94,6.93,33.67,12.56,67.6c14.67,88.14,23.21,177.24,27.24,266.48,3.54,78.5,3.59,157.15.81,235.67-2.12,60.08-5.93,120.08-11.06,180-1.73,20.26-3.62,40.51-5.53,60.77-2.78,29.58-5.41,59.51-13.36,88.25-2.26,8.16-4.91,16.44-9.06,23.86-1.84,3.28-4.07,6.9-7.25,9.06-2.23,1.51-4.11,1.44-6.9,2l-90.16,17-139.71,26.31-93,17.51-4.67.88c-1.22.22-.81,2.1.41,1.87Z"/><path d="M1446.53,1425.34c-.07,10.47-.41,21-.19,31.44a282.19,282.19,0,0,0,6,50.33c2.37,11.65,5.76,23.41,6.39,35.34.65,12.44-.8,25.22-1.47,37.63q-1.34,24.4-2.86,48.8a1,1,0,0,0,1.91.11c1.71-27.53,4.09-55.21,4.41-82.8.13-11.07-2.81-22.07-5.11-32.81-3.44-16.11-6.17-32.32-7-48.8-.67-13-.18-26.11-.09-39.14,0-1.23-1.91-1.34-1.92-.1Z"/><path d="M1542.46,1948.5c86.55-15.63,173-32,259.07-50.13,26.39-5.56,52.74-11.3,79-17.46a1,1,0,0,0,.76-.89,3149,3149,0,0,0,39.61-337.8q9.33-146.54,6-293.52-2.58-116.23-13-232.12c-4.66-51.16-10.5-102.24-18-153.08q-3-20.25-6.36-40.43c-1.16-6.87-1.7-14.64-4.9-20.91-6.41-12.59-19.35-17.18-32.5-19.22-9.11-1.42-18.17-3.13-27.26-4.67-30.45-5.18-61.06-9.64-91.88-11.87-30.11-2.18-62.44-3.51-91.76,5-10.13,3-20.45,7.4-27.81,15.22-8.51,9-14.94,20.87-21.65,31.24-42.86,66.19-82.86,135.22-117.1,206.27-18.21,37.78-32.89,77.08-37.51,119-2.05,18.62-2.24,37.36-2.78,56.07-.19,7-1,13.24,1,19.91,2.7,8.83,5.55,17.94,6.85,27.11,1.11,7.85,1,16,1.33,23.9.51,14,.87,28,1.2,42.06q1,42,1.64,83.94.12,7.29.23,14.58c0,1.23,1.93,1.34,1.92.1-.77-52.1-.83-104.4-3.76-156.43-.78-13.66-5.72-26-8.64-39.26-.81-3.64-.12-7.67,0-11.43.18-5.55.31-11.1.45-16.65.26-10.37.56-20.74,1.31-31.09,3.48-48.25,19.78-92.84,40.87-136,20.27-41.46,42.83-81.83,66.08-121.68,20.09-34.43,40.57-68.87,63.34-101.62,7.91-11.38,17.31-18.25,30.58-22.54,15.61-5,32.31-6.55,48.62-7,36.77-1.14,73.7,3.19,110,8.66,13.95,2.1,27.84,4.48,41.73,6.89,13.58,2.36,29.14,3,39.11,13.7,7.3,7.86,8,18.51,9.64,28.55,7.09,42.32,12.72,84.88,17.51,127.51,9,79.8,14.77,160,17.85,240.2q6.15,160.24-2.56,320.59-5,91.54-15.16,182.72-5.4,48.39-12.31,96.6-3.49,24.33-7.38,48.6-1.81,11.38-3.74,22.77c-.38,2.29-.77,4.57-1.16,6.86-.29,1.69-.27,5.42-1.18,6.86-1.77,2.8-5.54,2.78-8.68,3.51-94.07,21.72-189,39.7-284,57.25q-22.52,4.15-45.06,8.23c-1.22.22-.81,2.1.41,1.88Z"/><path d="M1534.48,989.49c19.42-40,42-78.59,68.85-114.07a402.5,402.5,0,0,1,27.22-32.66c3.32-3.53,6.71-7,10.29-10.28,4.9-4.47,11-7.34,17.25-9.34,15.75-5,32.84-5.62,49.24-5.44,16.74.19,33.44,1.6,50.1,3.21,17,1.63,34.08,2.2,51,4.23,13.36,1.61,29.7,5.43,34.37,19.86,3.82,11.84,4.68,24.87,5.72,37.18,1.51,17.91,2.23,35.9,2.74,53.86,1,37.82,1.36,75.79-.2,113.59-.9,22-2.67,44-4.64,65.92-1.06,11.76-1.69,23.71-4.78,35.16-1.9,7-4.75,14.17-9.78,19.6-7.27,7.86-17.61,9.69-27.37,12.75-6.51,2-13.1,2.82-19.88,3.56-30.34,3.3-60.87,5-91.32,6.93q-56.54,3.51-113.11,6.27-12.14.62-24.28,1.19c-1.22.06-1.34,2-.1,1.92q56.29-2.68,112.56-6c34.2-2,68.43-4,102.56-7.09,9.27-.83,18.69-1.51,27.86-3.23,3.39-.64,6.61-1.9,9.92-2.84,4.78-1.36,9.64-2.61,14.17-4.72,12.11-5.65,18.09-17.35,21.13-29.86,2.8-11.55,3.44-23.52,4.49-35.31,1-11.6,2-23.21,2.84-34.82,2.82-40,3-80.22,2.33-120.34-.29-18.76-.8-37.52-1.84-56.26-.85-15.42-1.84-31-4.46-46.2a70.75,70.75,0,0,0-3.55-14.14c-2.08-5.22-6.37-9.38-11.16-12.18-7.15-4.17-15.56-5.7-23.67-6.7-10.88-1.34-21.86-1.7-32.78-2.55-32.27-2.53-64.66-7.32-97.06-3.74-13.64,1.5-28.92,4.44-39.45,13.93-8.35,7.54-15.86,16.12-23.08,24.73-25.78,30.71-47.64,64.76-66.82,99.92q-9,16.44-17.14,33.31c-.54,1.11,1.29,1.71,1.83.61Z"/><path d="M377.78,1218.34c32.8,7.68,66.91,10.8,100.34,14.36,54.48,5.8,109.12,10.13,163.78,13.8q95.37,6.39,190.93,9.62c65.61,2.16,131.28,3,196.93,3.14,47.71.11,95.42-.24,143.12-1.32l12.86-.31c1.23,0,1.34-2,.1-1.92-44.87,1.15-89.76,1.61-134.65,1.65-64.41.05-128.85-.61-193.24-2.4q-96-2.67-191.81-8.81c-56.35-3.54-112.66-7.8-168.84-13.4-37.06-3.7-74.52-7.23-111.08-14.54-2.62-.53-5.23-1.09-7.83-1.7-1.2-.28-1.81,1.54-.61,1.83Z"/><path d="M1091.61,1414q-75.22.36-150.45-1-97-1.68-194-6.33c-70.3-3.47-140.66-8-210.67-15.35-50.29-5.3-100.83-11.95-150-24.14-23.68-5.88-48.37-12.75-69.53-25.31q-2.31-1.38-4.53-2.86a1,1,0,0,0-1.06,1.6c18.34,12.31,40.44,19.17,61.52,25,44.71,12.34,91,19.15,137,24.66,69.45,8.32,139.39,13,209.22,16.87q99.14,5.43,198.43,7.34,79.31,1.65,158.64,1.46l15.37,0c1.24,0,1.35-1.93.11-1.92Z"/><path d="M2260.44,865c61.77,12.64,123.56,25.33,185,39.48,11.24,2.59,22.47,5.24,33.65,8.07,1.19.31,1.81-1.51.61-1.82-52.72-13.38-106.14-24.2-159.37-35.31q-29.64-6.18-59.29-12.24c-1.2-.24-1.82,1.58-.61,1.82Z"/><path class="cls-44" d="M1993.49,1287.94s5.09,53,4.71,94.89c-8.07,1.54-22.18,5.16-27.12-20.07-3.91-20-6.39-62.39.39-70.12C1977.33,1285.94,1993.49,1287.94,1993.49,1287.94Z"/><path d="M1998,1381.89c-6,1.15-12.44,2.18-17.6-2-7.94-6.38-8.91-18.93-10.1-28.33a256.12,256.12,0,0,1-2.11-32.15,128.32,128.32,0,0,1,.67-14.54c.38-3.36.82-7.05,2.35-10.11,3.53-7,15.56-6.7,22.22-5.9,1.23.15,1.33-1.77.11-1.92-7-.83-17-.81-22.28,4.48-2.17,2.16-3,5.35-3.54,8.26a83.81,83.81,0,0,0-1.37,14,243.88,243.88,0,0,0,1.74,35.53c1.18,10.15,2.05,23,9.57,30.71,5.73,5.9,13.36,5.18,20.75,3.76,1.21-.23.8-2.11-.41-1.88Z"/><path d="M1902.42,1324.31a92.3,92.3,0,0,0-.79-16.69c-.38-3.43-.27-6.6-2.73-9.3-5.74-6.27-17.15-6.43-24.92-6.46-9.6,0-21.29-.23-28.18,7.66-6.27,7.15-4.42,18.47-3,27,.2,1.22,2.08.81,1.87-.41-1.24-7.5-3.09-17.89,1.85-24.51,3.19-4.26,8.46-6.24,13.53-7.16a61.77,61.77,0,0,1,11.12-.69c7.72,0,16.7-.21,23.63,3.76,3.7,2.11,4.39,4.91,4.77,8.87.57,5.95,1.34,11.79.93,17.79a1,1,0,0,0,1.91.1Z"/><path d="M2304.18,1382.13l137.57-4.48c18.35-.59,36.7-1.35,55.05-1.77,6.35-.15,13.79-.17,19.19,3.66,6.15,4.36,6.19,13.36,5.1,20.13-2,12.18-15,12.77-25.05,13.2l-22.53,1-82.57,3.59L2310.3,1421l-6.62.29c-1.23,0-1.34,2-.11,1.92l79.49-3.46,87.64-3.81,24.6-1.07c8.8-.38,21.26-.29,26-9.32,2.65-5.08,2.65-12.12,1.77-17.63-1.07-6.71-5.89-11-12.29-12.74-6.58-1.74-13.55-1.19-20.28-1l-29,.94-138.22,4.49-18.93.62c-1.23,0-1.35,2-.11,1.92Z"/><path d="M2276.41,1381.12l-128.59,4.22-135,4.48-76.88,2.57c-1.22,0-1.34,2-.1,1.92l135.83-4.53q66.51-2.21,133-4.39l71.64-2.35c1.23,0,1.34-2,.11-1.92Z"/><path d="M1916.59,1393q-110.27,3.7-220.54,7.53-86.86,3-173.74,6.26-32.25,1.22-64.5,2.57c-1.23,0-1.34,2-.11,1.91,44.32-1.9,88.65-3.49,133-5.09q99.19-3.59,198.41-7,63.69-2.18,127.4-4.31c1.22,0,1.34-2,.1-1.92Z"/><path d="M294.92,1476.09c-6.5,23.63-11.94,47.59-17,71.57-1,4.88-1.69,10.13-4.81,14.2-2.75,3.59-7,5.07-11.37,5.17-7.35.16-15.27-2-22.39-3.72a132.11,132.11,0,0,1-39.55-16.4c-1-.67-2.1.94-1.06,1.6a134.83,134.83,0,0,0,37,15.84c4,1.08,8,1.78,12,2.63a73,73,0,0,0,12.1,2c9,.37,15.62-4.23,18.19-13,1.44-4.91,2.19-10.09,3.27-15.08q2-9.34,4.15-18.65c3.48-15.24,7.1-30.45,11.24-45.51.33-1.19-1.49-1.81-1.82-.61Z"/><path d="M313.63,1462c33.07,7.87,66.57,13.92,100.13,19.25,37.82,6,75.78,11,113.81,15.5q56.16,6.6,112.48,11.76,48.11,4.46,96.28,8.12,33.15,2.52,66.35,4.68l5.35.34a1,1,0,0,0,.11-1.92q-30.66-1.93-61.3-4.23-46.65-3.48-93.24-7.68-55.46-5-110.81-11.24c-38.09-4.34-76.12-9.19-114-14.94-34.61-5.25-69.17-11.19-103.33-18.87q-5.61-1.26-11.2-2.59c-1.19-.28-1.81,1.54-.61,1.82Z"/><path d="M1036.81,1595.92c.18-12.27,2.1-24.7,4.59-36.69,5.19-25,14.33-49.73,29.78-70.23a108.69,108.69,0,0,1,37.92-32,1,1,0,0,0-.88-1.71c-25.84,13-44.15,36-55.67,62.1-9,20.46-14.32,42.62-16.69,64.81-.48,4.52-.9,9.07-1,13.62,0,1.23,1.9,1.34,1.91.1Z"/><path d="M1147.73,1459.23c9.58.27,20.68,4.69,25,13.74,3.51,7.34,3,17.88-2.92,23.9-4.55,4.67-11.37,6.32-17.68,6.75a50.09,50.09,0,0,1-11.92-.54c-1.21-.21-1.31,1.71-.1,1.92,9.92,1.76,23,1,30.6-6.32,6-5.78,7.29-15.32,5-23.09-2-7.12-7.46-12.19-14.12-15.09a38.2,38.2,0,0,0-13.81-3.19c-1.23,0-1.34,1.89-.1,1.92Z"/><path d="M1138.91,1531.7c9-2.16,19.91-3.44,28.8-.36,7.14,2.48,9.73,8.44,8.46,15.68-1.52,8.71-7.49,14.25-16.22,15.22-7.57.84-15.44-1-22.5-3.68-1.16-.44-1.77,1.39-.61,1.82,12.87,4.8,33.37,8,39.8-7.92,2.75-6.82,3-15.72-3.47-20.48-5.44-4-13.07-4.39-19.56-4.14a77.82,77.82,0,0,0-15.11,2,1,1,0,0,0,.41,1.88Z"/><path d="M1242.24,1218.83a142.87,142.87,0,0,0-33.18,25.37c-10.58,10.91-17.37,24.3-24.46,37.57-17.73,33.15-34.71,66.91-49.22,101.6-3.44,8.21-6.73,16.49-9.49,25-2.92,9-3.75,18.47-6,27.65-.29,1.19,1.53,1.81,1.82.61,2-8.24,2.63-16.94,5.11-25,2.17-7,4.8-14,7.55-20.81,7-17.48,14.95-34.58,23.13-51.54s16.58-33.58,25.32-50.13c6.39-12.11,12.43-25.25,20.94-36,10.4-13.19,24.6-24.44,39.31-32.52,1.08-.6.21-2.31-.88-1.71Z"/><path class="cls-10" d="M1225.8,1436.43c-43.1,2.14-104.78.15-104.78.15s-180.54,1.58-206,3.05-30.6,7.17-39.63,15.81c-4.12,3.94-15.13,18.13-25.86,32.37h0s127.2,9.72,215.51,8.31c65.58-1,149.63-7.22,188.56-10.32.14-.63.27-1.18.39-1.66C1258.06,1468.33,1268.89,1434.28,1225.8,1436.43Z"/><path class="cls-44" d="M1503.12,1169.26c-8-.44-14.45,1.9-14.86,9.5s-.63,11.63-1,17.89,5.32,9.25,17.84,9.93,44.94-10.11,52.21-11.95,13.86-24,3.13-24.53S1503.12,1169.26,1503.12,1169.26Z"/><path class="cls-10" d="M1488.26,1178.76c-.08,1.43-.15,2.72-.22,3.94,15.58-2.21,63.31-8.58,78-6.09-.27-3.58-1.92-6.31-5.6-6.51-10.73-.59-57.35-.84-57.35-.84C1495.08,1168.82,1488.67,1171.16,1488.26,1178.76Z"/><path d="M1552.25,1189.4c-4.1,1.1-37.08,5.62-57.39,8.11-3.63.44-5.79,1.45-6.91,2.81,1.83,3.79,7.42,5.73,17.18,6.26,12.52.68,44.94-10.11,52.21-11.95a7.44,7.44,0,0,0,3.54-2.47C1558.74,1190,1554.55,1188.78,1552.25,1189.4Z"/><path d="M1503.18,1168.3c-3.93-.16-8.23.08-11.59,2.34-3.88,2.62-4.22,6.73-4.45,11-.28,5.19-1,10.56-.82,15.75a8,8,0,0,0,3.54,6.46c6.15,4.33,15.7,4.15,22.85,3.16,8.71-1.21,17.27-3.56,25.72-5.94,6.37-1.79,12.82-3.51,19.12-5.55,5.41-1.75,8.12-8.71,9.1-13.79.95-4.88.49-11.7-5.6-12.59-5.72-.83-11.88-.39-17.65-.48q-20.1-.32-40.22-.4c-1.24,0-1.35,1.91-.11,1.92q13.76.08,27.5.23,10,.1,20.06.3c3.6.08,11.33-1.11,13.53,2.46,3,4.82-.15,13-3.09,17.16s-8.17,4.51-12.62,5.83c-7.34,2.18-14.7,4.32-22.15,6.14-6.59,1.61-13.57,3.43-20.4,3.31-4.61-.08-10.19-.49-14.25-2.89s-3.39-6.27-3.17-10.43q.21-3.69.4-7.39c.16-2.89-.13-6.27.89-9,2-5.36,8.41-5.91,13.3-5.71A1,1,0,0,0,1503.18,1168.3Z"/></g></g></g></svg>