<svg xmlns="http://www.w3.org/2000/svg" xmlns:xlink="http://www.w3.org/1999/xlink" viewBox="0 0 2195.47 1431.05"><defs><style>.cls-1{isolation:isolate;}.cls-2{fill:url(#linear-gradient);}.cls-3{fill:#bdd0fb;}.cls-4{fill:url(#linear-gradient-2);}.cls-5{fill:#91b3fa;}.cls-6{fill:url(#linear-gradient-3);}.cls-7{fill:url(#linear-gradient-4);}.cls-8{opacity:0.18;}.cls-9{opacity:0.68;}.cls-10,.cls-37,.cls-48,.cls-51{fill:#fff;}.cls-10{mix-blend-mode:soft-light;}.cls-11{fill:url(#linear-gradient-5);}.cls-12{fill:url(#linear-gradient-6);}.cls-13{fill:url(#linear-gradient-7);}.cls-14{fill:#7d97f4;}.cls-15{fill:url(#linear-gradient-8);}.cls-16{fill:url(#linear-gradient-9);}.cls-17{fill:url(#linear-gradient-10);}.cls-18{fill:url(#linear-gradient-11);}.cls-19{fill:url(#linear-gradient-12);}.cls-20{fill:url(#linear-gradient-13);}.cls-21{fill:url(#linear-gradient-14);}.cls-22{fill:url(#linear-gradient-15);}.cls-23{fill:url(#linear-gradient-16);}.cls-24{fill:url(#linear-gradient-17);}.cls-25{fill:url(#linear-gradient-18);}.cls-26{fill:url(#linear-gradient-19);}.cls-27{fill:url(#linear-gradient-20);}.cls-28{fill:url(#linear-gradient-21);}.cls-29{fill:url(#linear-gradient-22);}.cls-30{fill:url(#linear-gradient-23);}.cls-31{fill:url(#linear-gradient-24);}.cls-32{fill:url(#linear-gradient-25);}.cls-33{fill:url(#linear-gradient-26);}.cls-34{fill:url(#linear-gradient-27);}.cls-35{fill:url(#linear-gradient-28);}.cls-36{fill:url(#linear-gradient-29);}.cls-38{fill:url(#linear-gradient-30);}.cls-39{fill:url(#linear-gradient-31);}.cls-40{fill:url(#linear-gradient-32);}.cls-41{fill:url(#linear-gradient-33);}.cls-42{fill:url(#linear-gradient-34);}.cls-43{fill:url(#linear-gradient-35);}.cls-44{fill:url(#linear-gradient-36);}.cls-45{fill:url(#linear-gradient-37);}.cls-46{fill:url(#linear-gradient-38);}.cls-47{fill:url(#linear-gradient-39);}.cls-48{opacity:0.8;}.cls-49{fill:url(#linear-gradient-40);}.cls-50{fill:url(#linear-gradient-41);}.cls-51{opacity:0.37;}.cls-52{fill:url(#linear-gradient-42);}.cls-53{fill:url(#linear-gradient-43);}.cls-54{fill:url(#linear-gradient-44);}.cls-55{fill:url(#linear-gradient-45);}.cls-56{fill:url(#linear-gradient-46);}.cls-57{fill:url(#linear-gradient-47);}.cls-58{fill:url(#linear-gradient-48);}.cls-59{fill:url(#linear-gradient-49);}.cls-60{fill:url(#linear-gradient-50);}.cls-61{fill:url(#linear-gradient-51);}.cls-62{fill:url(#linear-gradient-52);}.cls-63{fill:url(#linear-gradient-53);}.cls-64{fill:url(#linear-gradient-54);}.cls-65{fill:url(#linear-gradient-55);}.cls-66{fill:url(#linear-gradient-56);}.cls-67{fill:url(#linear-gradient-57);}.cls-68{fill:url(#linear-gradient-58);}.cls-69{fill:url(#linear-gradient-59);}.cls-70{fill:url(#linear-gradient-60);}.cls-71{fill:url(#linear-gradient-61);}.cls-72{fill:url(#linear-gradient-62);}.cls-73{fill:url(#linear-gradient-63);}.cls-74{fill:url(#linear-gradient-64);}.cls-75{fill:url(#linear-gradient-65);}.cls-76{fill:url(#linear-gradient-66);}.cls-77{fill:url(#linear-gradient-67);}.cls-78{fill:url(#linear-gradient-68);}.cls-79{fill:url(#linear-gradient-69);}.cls-80{fill:url(#linear-gradient-70);}.cls-81{fill:url(#linear-gradient-71);}.cls-82{fill:url(#linear-gradient-72);}.cls-83{fill:url(#linear-gradient-73);}.cls-84{fill:url(#linear-gradient-74);}.cls-85{fill:url(#linear-gradient-75);}.cls-86{fill:url(#linear-gradient-76);}.cls-87{fill:url(#linear-gradient-77);}.cls-88{fill:url(#linear-gradient-78);}.cls-89{fill:url(#linear-gradient-79);}.cls-90{fill:url(#linear-gradient-80);}.cls-91{fill:url(#linear-gradient-81);}.cls-92{fill:url(#linear-gradient-82);}.cls-93{fill:url(#linear-gradient-83);}.cls-94{fill:url(#linear-gradient-84);}.cls-95{fill:url(#linear-gradient-85);}.cls-96{fill:url(#linear-gradient-86);}.cls-97{fill:url(#linear-gradient-87);}.cls-98{fill:url(#linear-gradient-88);}.cls-99{fill:url(#linear-gradient-89);}.cls-100{fill:url(#linear-gradient-90);}.cls-101{fill:url(#linear-gradient-91);}.cls-102{fill:url(#linear-gradient-92);}.cls-103{fill:url(#linear-gradient-93);}.cls-104{fill:url(#linear-gradient-94);}.cls-105{fill:url(#linear-gradient-95);}.cls-106{fill:url(#linear-gradient-96);}.cls-107{fill:url(#linear-gradient-97);}.cls-108{fill:url(#linear-gradient-98);}.cls-109{fill:url(#linear-gradient-99);}.cls-110{fill:url(#linear-gradient-100);}.cls-111{fill:url(#linear-gradient-101);}.cls-112{fill:url(#linear-gradient-102);}.cls-113{fill:url(#linear-gradient-103);}.cls-114{fill:url(#linear-gradient-104);}.cls-115{fill:url(#linear-gradient-105);}.cls-116{fill:url(#_9);}.cls-117{fill:url(#linear-gradient-106);}.cls-118{fill:url(#linear-gradient-107);}.cls-119{fill:url(#linear-gradient-108);}.cls-120{fill:url(#linear-gradient-109);}.cls-121{fill:url(#linear-gradient-110);}.cls-122{fill:url(#linear-gradient-111);}.cls-123{fill:url(#linear-gradient-112);}.cls-124{fill:url(#linear-gradient-113);}.cls-125{fill:url(#linear-gradient-114);}.cls-126{fill:url(#linear-gradient-115);}.cls-127{fill:url(#linear-gradient-116);}.cls-128{fill:url(#linear-gradient-117);}.cls-129{fill:url(#linear-gradient-118);}.cls-130{fill:url(#linear-gradient-119);}.cls-131{fill:url(#linear-gradient-120);}</style><linearGradient id="linear-gradient" x1="-1557.81" y1="794.54" x2="405.61" y2="794.54" gradientTransform="matrix(-1, 0, 0, 1, 702.65, 0)" gradientUnits="userSpaceOnUse"><stop offset="0" stop-color="#dae3fe"/><stop offset="1" stop-color="#e9effd"/></linearGradient><linearGradient id="linear-gradient-2" x1="1664.41" y1="619.47" x2="2016.56" y2="619.47" gradientTransform="matrix(1, 0, 0, 1, 0, 0)" xlink:href="#linear-gradient"/><linearGradient id="linear-gradient-3" x1="348.59" y1="758.48" x2="1120.34" y2="758.48" gradientTransform="matrix(1, 0, 0, 1, 0, 0)" xlink:href="#linear-gradient"/><linearGradient id="linear-gradient-4" x1="1192.87" y1="510.35" x2="1294.26" y2="1560.11" gradientTransform="translate(2102.5 -347.66) rotate(87.49)" gradientUnits="userSpaceOnUse"><stop offset="0" stop-color="#4042e2"/><stop offset="1" stop-color="#4f52ff"/></linearGradient><linearGradient id="linear-gradient-5" x1="911.15" y1="1157.2" x2="1009.99" y2="1157.2" gradientTransform="matrix(1, 0, 0, 1, 0, 0)" xlink:href="#linear-gradient"/><linearGradient id="linear-gradient-6" x1="1004.28" y1="890.87" x2="1511.43" y2="890.87" gradientTransform="matrix(1, 0, 0, 1, 0, 0)" xlink:href="#linear-gradient"/><linearGradient id="linear-gradient-7" x1="1029.63" y1="757.41" x2="1381.19" y2="757.41" gradientTransform="matrix(1, 0, 0, 1, 0, 0)" xlink:href="#linear-gradient"/><linearGradient id="linear-gradient-8" x1="1289.06" y1="653.08" x2="1264.35" y2="571.57" gradientUnits="userSpaceOnUse"><stop offset="0" stop-color="#a22b25"/><stop offset="1" stop-color="#c0423c"/></linearGradient><linearGradient id="linear-gradient-9" x1="1734.91" y1="335.73" x2="1305.93" y2="697.21" gradientUnits="userSpaceOnUse"><stop offset="0" stop-color="#fe7062"/><stop offset="1" stop-color="#ff928e"/></linearGradient><linearGradient id="linear-gradient-10" x1="889.52" y1="556.72" x2="499.48" y2="844.75" xlink:href="#linear-gradient-9"/><linearGradient id="linear-gradient-11" x1="1203.72" y1="293.84" x2="1047.73" y2="644.82" gradientUnits="userSpaceOnUse"><stop offset="0" stop-color="#ff928e"/><stop offset="1" stop-color="#feb3b1"/></linearGradient><linearGradient id="linear-gradient-12" x1="1303.43" y1="374.62" x2="1256.09" y2="424.06" xlink:href="#linear-gradient-11"/><linearGradient id="linear-gradient-13" x1="1318.93" y1="345.04" x2="1162.93" y2="696.02" xlink:href="#linear-gradient-11"/><linearGradient id="linear-gradient-14" x1="953.31" y1="489.49" x2="611.27" y2="927.53" xlink:href="#linear-gradient-9"/><linearGradient id="linear-gradient-15" x1="973.48" y1="325.32" x2="848.99" y2="476.81" xlink:href="#linear-gradient-11"/><linearGradient id="linear-gradient-16" x1="1227.69" y1="367.54" x2="1169.19" y2="477.03" xlink:href="#linear-gradient-11"/><linearGradient id="linear-gradient-17" x1="1174.12" y1="83.44" x2="964.1" y2="410.48" gradientUnits="userSpaceOnUse"><stop offset="0" stop-color="#e1473d"/><stop offset="1" stop-color="#e9605a"/></linearGradient><linearGradient id="linear-gradient-18" x1="1169.93" y1="80.76" x2="959.91" y2="407.79" xlink:href="#linear-gradient-17"/><linearGradient id="linear-gradient-19" x1="895.82" y1="174.43" x2="946.82" y2="295.92" xlink:href="#linear-gradient-11"/><linearGradient id="linear-gradient-20" x1="818.06" y1="87.74" x2="869.06" y2="165.73" gradientUnits="userSpaceOnUse"><stop offset="0" stop-color="#09005d"/><stop offset="1" stop-color="#1a0f91"/></linearGradient><linearGradient id="linear-gradient-21" x1="855.74" y1="191.25" x2="906.74" y2="312.74" xlink:href="#linear-gradient-11"/><linearGradient id="linear-gradient-22" x1="1207.96" y1="679.76" x2="1194.27" y2="634.61" xlink:href="#linear-gradient-8"/><linearGradient id="linear-gradient-23" x1="1864.73" y1="489.79" x2="1435.75" y2="851.27" xlink:href="#linear-gradient-9"/><linearGradient id="linear-gradient-24" x1="1639.27" y1="410.36" x2="1613.07" y2="323.95" xlink:href="#linear-gradient-8"/><linearGradient id="linear-gradient-25" x1="1958.95" y1="350.82" x2="1814.94" y2="659.85" xlink:href="#linear-gradient-20"/><linearGradient id="linear-gradient-26" x1="1877.49" y1="504.93" x2="1448.51" y2="866.41" xlink:href="#linear-gradient-9"/><linearGradient id="linear-gradient-27" x1="1689.71" y1="551.2" x2="1830.04" y2="625.91" xlink:href="#linear-gradient-17"/><linearGradient id="linear-gradient-28" x1="1821.71" y1="799.56" x2="1780.81" y2="664.66" xlink:href="#linear-gradient-8"/><linearGradient id="linear-gradient-29" x1="-969.75" y1="-2782.23" x2="-1003.77" y2="-2894.41" gradientTransform="matrix(-0.76, -0.66, -0.66, 0.76, -992.83, 1800.16)" xlink:href="#linear-gradient-8"/><linearGradient id="linear-gradient-30" x1="-1036.25" y1="-2816.16" x2="-1048.23" y2="-2855.67" gradientTransform="matrix(-0.76, -0.66, -0.66, 0.76, -992.83, 1800.16)" xlink:href="#linear-gradient-8"/><linearGradient id="linear-gradient-31" x1="2621.17" y1="-800.09" x2="2559.67" y2="-681.59" gradientTransform="translate(-925.92 -32.5) rotate(19.9)" xlink:href="#linear-gradient-20"/><linearGradient id="linear-gradient-32" x1="1707.9" y1="26.37" x2="1646.4" y2="144.86" xlink:href="#linear-gradient-20"/><linearGradient id="linear-gradient-33" x1="2422.29" y1="1128.56" x2="1837.23" y2="1557.6" gradientTransform="matrix(1, 0, 0, 1, 0, 0)" xlink:href="#linear-gradient-4"/><linearGradient id="linear-gradient-34" x1="3740.48" y1="3182.97" x2="3994.48" y2="2990.97" gradientTransform="translate(-4138.03)" xlink:href="#linear-gradient-20"/><linearGradient id="linear-gradient-35" x1="3769.35" y1="3221.17" x2="4023.35" y2="3029.17" gradientTransform="translate(-4138.03)" xlink:href="#linear-gradient-20"/><linearGradient id="linear-gradient-36" x1="2268.75" y1="1025.76" x2="2217.76" y2="1243.25" gradientTransform="translate(267.24 -332.11) rotate(9.35)" xlink:href="#linear-gradient-20"/><linearGradient id="linear-gradient-37" x1="1685.37" y1="1124.59" x2="1563.88" y2="1283.59" gradientTransform="matrix(1, 0.08, -0.08, 1, 126.14, -112.19)" xlink:href="#linear-gradient-20"/><linearGradient id="linear-gradient-38" x1="1993.68" y1="1160.82" x2="1920.19" y2="1333.31" gradientTransform="translate(174.35 -197.15) rotate(6.36)" xlink:href="#linear-gradient-20"/><linearGradient id="linear-gradient-39" x1="1595.29" y1="984.9" x2="1499.28" y2="1116.91" gradientTransform="translate(137.09 -105.6) rotate(5.15)" xlink:href="#linear-gradient-20"/><linearGradient id="linear-gradient-40" x1="2069.64" y1="1121.62" x2="2145.3" y2="1121.62" gradientTransform="matrix(1, 0, 0, 1, 0, 0)" xlink:href="#linear-gradient"/><linearGradient id="linear-gradient-41" x1="1638.07" y1="1346.51" x2="2060.07" y2="1046.51" xlink:href="#linear-gradient-9"/><linearGradient id="linear-gradient-42" x1="-1586.13" y1="1158.6" x2="-1697.03" y2="1319.75" gradientTransform="matrix(-1, 0, 0, 1, 327.55, 0)" xlink:href="#linear-gradient-20"/><linearGradient id="linear-gradient-43" x1="-1582.14" y1="1161.34" x2="-1693.04" y2="1322.5" gradientTransform="matrix(-1, 0, 0, 1, 327.55, 0)" xlink:href="#linear-gradient-20"/><linearGradient id="linear-gradient-44" x1="-1577.33" y1="1164.65" x2="-1688.23" y2="1325.81" gradientTransform="matrix(-1, 0, 0, 1, 327.55, 0)" xlink:href="#linear-gradient-20"/><linearGradient id="linear-gradient-45" x1="-1569.01" y1="1170.38" x2="-1679.91" y2="1331.53" gradientTransform="matrix(-1, 0, 0, 1, 327.55, 0)" xlink:href="#linear-gradient-20"/><linearGradient id="linear-gradient-46" x1="-1563.52" y1="1174.16" x2="-1674.42" y2="1335.31" gradientTransform="matrix(-1, 0, 0, 1, 327.55, 0)" xlink:href="#linear-gradient-20"/><linearGradient id="linear-gradient-47" x1="-1560.12" y1="1176.5" x2="-1671.01" y2="1337.65" gradientTransform="matrix(-1, 0, 0, 1, 327.55, 0)" xlink:href="#linear-gradient-20"/><linearGradient id="linear-gradient-48" x1="-1591.84" y1="1154.67" x2="-1702.74" y2="1315.82" gradientTransform="matrix(-1, 0, 0, 1, 327.55, 0)" xlink:href="#linear-gradient-20"/><linearGradient id="linear-gradient-49" x1="1130.07" y1="768.32" x2="1625.12" y2="1620.41" xlink:href="#linear-gradient-9"/><linearGradient id="linear-gradient-50" x1="1422.7" y1="555.15" x2="1131.67" y2="1146.21" xlink:href="#linear-gradient-11"/><linearGradient id="linear-gradient-51" x1="1423.03" y1="555.31" x2="1132" y2="1146.37" xlink:href="#linear-gradient-11"/><linearGradient id="linear-gradient-52" x1="1178.31" y1="740.29" x2="1673.36" y2="1592.37" xlink:href="#linear-gradient-9"/><linearGradient id="linear-gradient-53" x1="1609.61" y1="647.18" x2="1318.58" y2="1238.24" xlink:href="#linear-gradient-11"/><linearGradient id="linear-gradient-54" x1="1609.48" y1="647.11" x2="1318.45" y2="1238.17" xlink:href="#linear-gradient-11"/><linearGradient id="linear-gradient-55" x1="1455.17" y1="571.14" x2="1164.15" y2="1162.2" xlink:href="#linear-gradient-9"/><linearGradient id="linear-gradient-56" x1="1455.17" y1="571.14" x2="1164.14" y2="1162.2" xlink:href="#linear-gradient-11"/><linearGradient id="linear-gradient-57" x1="1455.37" y1="571.24" x2="1164.34" y2="1162.29" xlink:href="#linear-gradient-11"/><linearGradient id="linear-gradient-58" x1="385.55" y1="1109.71" x2="374.75" y2="1259.53" xlink:href="#linear-gradient-17"/><linearGradient id="linear-gradient-59" x1="337.93" y1="1154.37" x2="190.81" y2="1259.65" xlink:href="#linear-gradient-9"/><linearGradient id="linear-gradient-60" x1="-132.43" y1="1602.91" x2="761.26" y2="1103.42" xlink:href="#linear-gradient-11"/><linearGradient id="linear-gradient-61" x1="3988.33" y1="1147.95" x2="4128.06" y2="1693.92" gradientTransform="translate(-3520)" xlink:href="#linear-gradient-17"/><linearGradient id="linear-gradient-62" x1="896.66" y1="1317.62" x2="611.86" y2="1705.01" xlink:href="#linear-gradient-9"/><linearGradient id="linear-gradient-63" x1="4395.51" y1="1439.44" x2="4606.47" y2="1444.76" gradientTransform="translate(-3520)" xlink:href="#linear-gradient-17"/><linearGradient id="linear-gradient-64" x1="1416.18" y1="821.86" x2="1139.01" y2="1055.84" xlink:href="#linear-gradient-20"/><linearGradient id="linear-gradient-65" x1="1197.66" y1="1152.46" x2="1040.16" y2="1227.46" xlink:href="#linear-gradient-20"/><linearGradient id="linear-gradient-66" x1="4437.65" y1="1294.36" x2="4331.59" y2="1349.1" gradientTransform="translate(-3663.53 -103.13)" xlink:href="#linear-gradient-17"/><linearGradient id="linear-gradient-67" x1="4494.23" y1="1095.55" x2="4256.27" y2="1218.36" gradientTransform="translate(-3520)" xlink:href="#linear-gradient-11"/><linearGradient id="linear-gradient-68" x1="1276.89" y1="848.46" x2="1024.87" y2="1238.5" gradientTransform="translate(245.78 -121.98) rotate(9.22)" xlink:href="#linear-gradient-20"/><linearGradient id="linear-gradient-69" x1="999.85" y1="1313.4" x2="819.57" y2="1538.22" gradientTransform="translate(92.64 -51.82) rotate(3.56)" xlink:href="#linear-gradient-17"/><linearGradient id="linear-gradient-70" x1="979.99" y1="1351.5" x2="824.76" y2="1526.97" xlink:href="#linear-gradient-11"/><linearGradient id="linear-gradient-71" x1="951.01" y1="1043.76" x2="843.02" y2="1202.75" xlink:href="#linear-gradient-20"/><linearGradient id="linear-gradient-72" x1="832.2" y1="817.58" x2="586.18" y2="1255.62" gradientTransform="translate(182.33 -46.39) rotate(7.02)" xlink:href="#linear-gradient-20"/><linearGradient id="linear-gradient-73" x1="594.72" y1="1355.4" x2="378.38" y2="1542.04" gradientTransform="translate(104.93 -29.6) rotate(4.07)" xlink:href="#linear-gradient-17"/><linearGradient id="linear-gradient-74" x1="446.35" y1="1448.89" x2="519.59" y2="1448.89" xlink:href="#linear-gradient-11"/><linearGradient id="linear-gradient-75" x1="3830.53" y1="2124.15" x2="3881.83" y2="1910.88" gradientTransform="translate(-3663.53 -103.13)" xlink:href="#linear-gradient-20"/><linearGradient id="linear-gradient-76" x1="716.54" y1="752.61" x2="470.51" y2="1190.66" gradientTransform="translate(121.79 -21.18) rotate(4.73)" xlink:href="#linear-gradient-20"/><linearGradient id="linear-gradient-77" x1="473.27" y1="1356.96" x2="212.39" y2="1535.12" gradientTransform="translate(91.55 -16.89) rotate(3.56)" xlink:href="#linear-gradient-17"/><linearGradient id="linear-gradient-78" x1="294.2" y1="1448.89" x2="367.44" y2="1448.89" xlink:href="#linear-gradient-11"/><linearGradient id="linear-gradient-79" x1="3686.7" y1="2089.56" x2="3738" y2="1876.29" gradientTransform="translate(-3663.53 -103.13)" xlink:href="#linear-gradient-20"/><linearGradient id="linear-gradient-80" x1="4477.81" y1="1420.2" x2="4499.05" y2="1369.45" gradientTransform="translate(-3663.53 -103.13)" xlink:href="#linear-gradient-11"/><linearGradient id="linear-gradient-81" x1="997.02" y1="1190.59" x2="771.6" y2="1312.07" xlink:href="#linear-gradient-11"/><linearGradient id="linear-gradient-82" x1="144.28" y1="1488.43" x2="364.69" y2="1312.1" xlink:href="#linear-gradient-9"/><linearGradient id="linear-gradient-83" x1="-114.3" y1="1264.02" x2="-178.82" y2="1357.79" gradientTransform="matrix(-1, 0, 0, 1, 327.55, 0)" xlink:href="#linear-gradient-20"/><linearGradient id="linear-gradient-84" x1="-111.84" y1="1265.6" x2="-176.42" y2="1359.44" gradientTransform="matrix(-1, 0, 0, 1, 327.55, 0)" xlink:href="#linear-gradient-20"/><linearGradient id="linear-gradient-85" x1="-108.9" y1="1267.54" x2="-173.45" y2="1361.34" gradientTransform="matrix(-1, 0, 0, 1, 327.55, 0)" xlink:href="#linear-gradient-20"/><linearGradient id="linear-gradient-86" x1="-103.81" y1="1270.86" x2="-168.45" y2="1364.79" gradientTransform="matrix(-1, 0, 0, 1, 327.55, 0)" xlink:href="#linear-gradient-20"/><linearGradient id="linear-gradient-87" x1="-100.45" y1="1273.06" x2="-165.07" y2="1366.96" gradientTransform="matrix(-1, 0, 0, 1, 327.55, 0)" xlink:href="#linear-gradient-20"/><linearGradient id="linear-gradient-88" x1="-98.37" y1="1274.43" x2="-162.93" y2="1368.24" gradientTransform="matrix(-1, 0, 0, 1, 327.55, 0)" xlink:href="#linear-gradient-20"/><linearGradient id="linear-gradient-89" x1="-117.79" y1="1261.71" x2="-182.39" y2="1355.59" gradientTransform="matrix(-1, 0, 0, 1, 327.55, 0)" xlink:href="#linear-gradient-20"/><linearGradient id="linear-gradient-90" x1="361.46" y1="1458.7" x2="680.94" y2="1298.96" xlink:href="#linear-gradient-9"/><linearGradient id="linear-gradient-91" x1="-380.67" y1="1275.5" x2="-444.27" y2="1367.92" gradientTransform="matrix(-1, 0, 0, 1, 327.55, 0)" xlink:href="#linear-gradient-20"/><linearGradient id="linear-gradient-92" x1="-378.29" y1="1277.06" x2="-441.93" y2="1369.53" gradientTransform="matrix(-1, 0, 0, 1, 327.55, 0)" xlink:href="#linear-gradient-20"/><linearGradient id="linear-gradient-93" x1="-375.44" y1="1278.97" x2="-439.06" y2="1371.41" gradientTransform="matrix(-1, 0, 0, 1, 327.55, 0)" xlink:href="#linear-gradient-20"/><linearGradient id="linear-gradient-94" x1="-370.5" y1="1282.24" x2="-434.18" y2="1374.77" gradientTransform="matrix(-1, 0, 0, 1, 327.55, 0)" xlink:href="#linear-gradient-20"/><linearGradient id="linear-gradient-95" x1="-367.25" y1="1284.41" x2="-430.91" y2="1376.92" gradientTransform="matrix(-1, 0, 0, 1, 327.55, 0)" xlink:href="#linear-gradient-20"/><linearGradient id="linear-gradient-96" x1="-365.23" y1="1285.76" x2="-428.85" y2="1378.21" gradientTransform="matrix(-1, 0, 0, 1, 327.55, 0)" xlink:href="#linear-gradient-20"/><linearGradient id="linear-gradient-97" x1="-384.05" y1="1273.23" x2="-447.7" y2="1365.72" gradientTransform="matrix(-1, 0, 0, 1, 327.55, 0)" xlink:href="#linear-gradient-20"/><linearGradient id="linear-gradient-98" x1="237.09" y1="1245.29" x2="417.96" y2="1103.56" xlink:href="#linear-gradient-9"/><linearGradient id="linear-gradient-99" x1="-62.03" y1="1133.09" x2="-108.94" y2="1201.25" gradientTransform="matrix(-1, 0, 0, 1, 327.55, 0)" xlink:href="#linear-gradient-20"/><linearGradient id="linear-gradient-100" x1="-60.35" y1="1134.25" x2="-107.25" y2="1202.41" gradientTransform="matrix(-1, 0, 0, 1, 327.55, 0)" xlink:href="#linear-gradient-20"/><linearGradient id="linear-gradient-101" x1="-58.31" y1="1135.65" x2="-105.22" y2="1203.81" gradientTransform="matrix(-1, 0, 0, 1, 327.55, 0)" xlink:href="#linear-gradient-20"/><linearGradient id="linear-gradient-102" x1="-54.79" y1="1138.07" x2="-101.7" y2="1206.23" gradientTransform="matrix(-1, 0, 0, 1, 327.55, 0)" xlink:href="#linear-gradient-20"/><linearGradient id="linear-gradient-103" x1="-52.47" y1="1139.67" x2="-99.38" y2="1207.83" gradientTransform="matrix(-1, 0, 0, 1, 327.55, 0)" xlink:href="#linear-gradient-20"/><linearGradient id="linear-gradient-104" x1="-51.03" y1="1140.66" x2="-97.93" y2="1208.82" gradientTransform="matrix(-1, 0, 0, 1, 327.55, 0)" xlink:href="#linear-gradient-20"/><linearGradient id="linear-gradient-105" x1="-64.45" y1="1131.43" x2="-111.35" y2="1199.59" gradientTransform="matrix(-1, 0, 0, 1, 327.55, 0)" xlink:href="#linear-gradient-20"/><linearGradient id="_9" x1="248.43" y1="1386.79" x2="502.35" y2="1179.64" gradientUnits="userSpaceOnUse"><stop offset="0" stop-color="#fe7062"/><stop offset="0.53" stop-color="#fe7164"/><stop offset="0.72" stop-color="#fe776b"/><stop offset="0.86" stop-color="#fe8076"/><stop offset="0.97" stop-color="#ff8d87"/><stop offset="1" stop-color="#ff928e"/></linearGradient><linearGradient id="linear-gradient-106" x1="-230.64" y1="1135.47" x2="-277.63" y2="1203.76" gradientTransform="matrix(-1, 0, 0, 1, 327.55, 0)" xlink:href="#linear-gradient-20"/><linearGradient id="linear-gradient-107" x1="-229.37" y1="1136.67" x2="-276.22" y2="1204.75" gradientTransform="matrix(-1, 0, 0, 1, 327.55, 0)" xlink:href="#linear-gradient-20"/><linearGradient id="linear-gradient-108" x1="-227.77" y1="1138.05" x2="-274.69" y2="1206.24" gradientTransform="matrix(-1, 0, 0, 1, 327.55, 0)" xlink:href="#linear-gradient-20"/><linearGradient id="linear-gradient-109" x1="-225.03" y1="1140.52" x2="-271.69" y2="1208.32" gradientTransform="matrix(-1, 0, 0, 1, 327.55, 0)" xlink:href="#linear-gradient-20"/><linearGradient id="linear-gradient-110" x1="-223.21" y1="1142.1" x2="-269.92" y2="1209.98" gradientTransform="matrix(-1, 0, 0, 1, 327.55, 0)" xlink:href="#linear-gradient-20"/><linearGradient id="linear-gradient-111" x1="-222.07" y1="1143.07" x2="-268.99" y2="1211.25" gradientTransform="matrix(-1, 0, 0, 1, 327.55, 0)" xlink:href="#linear-gradient-20"/><linearGradient id="linear-gradient-112" x1="-232.52" y1="1133.88" x2="-279.3" y2="1201.85" gradientTransform="matrix(-1, 0, 0, 1, 327.55, 0)" xlink:href="#linear-gradient-20"/><linearGradient id="linear-gradient-113" x1="474.27" y1="1292.9" x2="714.98" y2="1154.79" xlink:href="#linear-gradient-9"/><linearGradient id="linear-gradient-114" x1="-394.98" y1="1140.45" x2="-441.98" y2="1208.75" gradientTransform="matrix(-1, 0, 0, 1, 327.55, 0)" xlink:href="#linear-gradient-20"/><linearGradient id="linear-gradient-115" x1="-393.76" y1="1141.65" x2="-440.6" y2="1209.73" gradientTransform="matrix(-1, 0, 0, 1, 327.55, 0)" xlink:href="#linear-gradient-20"/><linearGradient id="linear-gradient-116" x1="-392.2" y1="1143.04" x2="-439.13" y2="1211.22" gradientTransform="matrix(-1, 0, 0, 1, 327.55, 0)" xlink:href="#linear-gradient-20"/><linearGradient id="linear-gradient-117" x1="-389.56" y1="1145.51" x2="-436.19" y2="1213.27" gradientTransform="matrix(-1, 0, 0, 1, 327.55, 0)" xlink:href="#linear-gradient-20"/><linearGradient id="linear-gradient-118" x1="-387.79" y1="1147.09" x2="-434.49" y2="1214.94" gradientTransform="matrix(-1, 0, 0, 1, 327.55, 0)" xlink:href="#linear-gradient-20"/><linearGradient id="linear-gradient-119" x1="-386.69" y1="1148.05" x2="-433.61" y2="1216.23" gradientTransform="matrix(-1, 0, 0, 1, 327.55, 0)" xlink:href="#linear-gradient-20"/><linearGradient id="linear-gradient-120" x1="-396.8" y1="1138.86" x2="-443.57" y2="1206.82" gradientTransform="matrix(-1, 0, 0, 1, 327.55, 0)" xlink:href="#linear-gradient-20"/></defs><g class="cls-1"><g id="Illustration"><path class="cls-2" d="M1749,224.27c115.35,134,515.64-14.87,511.43,232.21-4.93,289.32-398.34,374.44-270.95,577.77s-13.29,431.27-525.19,427-1335.41-259.49-1137-536.66,66.21-291.4,56.53-413.9S474.5,119.46,871,343.54,1456.91-115.1,1749,224.27Z" transform="translate(-143.53 -103.13)"/><path class="cls-3" d="M2037.65,110c-1.44-8.41-13.23-9.31-15.89-1.2-25.73,78.47-99.64,282.1-204.34,387.32-170.49,171.33-291.35,456.29-193.6,610.83C1623.82,1106.9,2194.15,1027.31,2037.65,110Z" transform="translate(-143.53 -103.13)"/><path class="cls-4" d="M2016.55,222.6c0,.32-.07.67-.12,1l-.14.86-.3,1.7-.64,3.37-1.36,6.72q-1.4,6.71-2.87,13.39c-2,8.91-4,17.8-6.17,26.68q-6.37,26.63-13.38,53.1c-9.34,35.29-19.54,70.35-30.34,105.23q-8.12,26.16-16.76,52.15t-18,51.74q-9.23,25.8-19.08,51.35t-20.24,50.92c-7,16.88-14.08,33.71-21.56,50.37s-15.08,33.28-23,49.73-16,32.83-24.5,49-17.06,32.32-26.17,48.16-18.37,31.6-28.11,47.06-19.68,30.8-30.14,45.79a904.35,904.35,0,0,1-67.67,86.15.93.93,0,0,1-1.4-1.21h0l8.78-10.47,2.19-2.62,2.14-2.66,4.28-5.33,4.3-5.31,4.19-5.4c2.77-3.61,5.62-7.16,8.32-10.82,11-14.51,21.47-29.43,31.7-44.49s20-30.42,29.56-45.94,18.64-31.28,27.52-47.18q26.66-47.68,50.11-97.08c15.68-32.88,30.3-66.27,44.3-99.9q10.5-25.23,20.35-50.73t19.18-51.18q9.3-25.71,18.08-51.6t17.17-51.9q16.68-52.08,31.29-104.79,7.37-26.32,14.14-52.83,3.38-13.25,6.56-26.54,1.61-6.65,3.13-13.3l1.48-6.67.71-3.33.33-1.67.15-.82.11-.73,0-.19a.91.91,0,0,1,1-.76A.92.92,0,0,1,2016.55,222.6Z" transform="translate(-143.53 -103.13)"/><path class="cls-5" d="M151.29,711.88c91.31.09,622.66,22.25,691.42,524.6,0,0-353.56,75.45-698.11-513A7.73,7.73,0,0,1,151.29,711.88Z" transform="translate(-143.53 -103.13)"/><path class="cls-3" d="M225,766.4c26.87,11.41,53.48,23.35,80,35.53s52.86,24.69,79.08,37.49,52.28,25.91,78.19,39.33,51.6,27.26,77.12,41.42c51,28.4,101.19,58.3,149.69,90.92q36.45,24.33,71.07,51.35c23,18,45.39,37,66.19,57.78a3.7,3.7,0,1,1-5.23,5.24v0h0c-20.38-20.58-42.43-39.54-65.18-57.59s-46.28-35.2-70.37-51.51c-48.1-32.77-98-62.91-148.72-91.57Q498.72,903.34,460.05,883T382.2,843.19q-39.15-19.43-78.76-37.93c-26.41-12.33-52.94-24.43-79.67-36h0A1.57,1.57,0,0,1,225,766.4Z" transform="translate(-143.53 -103.13)"/><path class="cls-3" d="M261.77,290.26c138.43,33.94,935.34,262,838.12,995.6,0,0-566.44-24.6-852.93-981.71C244.45,295.78,252.72,288.05,261.77,290.26Z" transform="translate(-143.53 -103.13)"/><path class="cls-6" d="M351.07,395c35.8,25.81,71.05,52.3,106.07,79.1s69.72,54.05,104.12,81.65q103.17,82.83,202.19,170.72,49.37,44.08,97.2,89.85,23.91,22.88,47.27,46.35t46.14,47.49c7.61,8,15.08,16.11,22.59,24.21s14.87,16.32,22.16,24.61c14.63,16.54,29,33.29,43,50.42,27.89,34.27,54.46,69.74,78,107.3a3.7,3.7,0,1,1-6.27,3.93h0c-23.13-37.3-49.39-72.66-77-106.87-13.81-17.11-28.1-33.85-42.61-50.39-7.24-8.29-14.63-16.44-22-24.62S957,922.45,949.45,914.45q-22.59-24.09-45.84-47.56t-47-46.44q-47.49-46-96.69-90.1Q661.68,641.91,558.62,559q-51.39-41.58-103.71-82C420,450,384.87,423.4,349.25,397.49h0a1.57,1.57,0,0,1,1.84-2.54Z" transform="translate(-143.53 -103.13)"/><path class="cls-5" d="M2224.56,572.1c.91-7.49-8.84-11.21-13.14-5-41.5,59.9-155.23,213.56-270.27,276.23-187.3,102-361.21,312.67-317.4,468C1623.75,1311.3,2126.2,1387.43,2224.56,572.1Z" transform="translate(-143.53 -103.13)"/><path class="cls-3" d="M2178.48,662.1c-.89,2-1.83,3.73-2.75,5.55L2172.9,673l-5.79,10.61c-3.9,7-7.9,14-11.9,21q-12.09,20.93-24.64,41.58c-16.75,27.52-34.21,54.62-52.09,81.42l-13.52,20-13.76,19.87c-9.31,13.15-18.64,26.29-28.23,39.25l-7.14,9.75-7.27,9.65-7.28,9.66-3.64,4.82-3.7,4.78-14.82,19.1L1964,983.44c-40.55,50.12-83.78,98.15-130.25,142.92-1.45,1.4-2.88,2.82-4.35,4.2l-4.44,4.1-8.9,8.2-8.89,8.2c-3,2.7-6.06,5.32-9.09,8l-9.12,8-4.56,4-2.28,2-2.34,1.92-18.71,15.34c-3.08,2.61-6.33,5-9.54,7.45l-9.63,7.32c-3.22,2.43-6.4,4.9-9.64,7.29l-9.9,7-9.88,7-5,3.47-5.08,3.28L1682.1,1246a.91.91,0,0,1-1.27-.28.92.92,0,0,1,.25-1.26l0,0,20-13.54,5-3.37,4.87-3.56,9.71-7.12,9.72-7.13c3.19-2.44,6.31-5,9.47-7.45l9.45-7.48c3.15-2.5,6.34-4.94,9.38-7.56l18.45-15.5,2.31-1.94,2.25-2,4.49-4,9-8c3-2.68,6-5.33,9-8l8.76-8.27,8.76-8.27L1826,1127c1.45-1.39,2.85-2.83,4.28-4.24l17.13-17c1.44-1.39,2.85-2.83,4.24-4.28l4.18-4.33,8.38-8.67c2.79-2.89,5.61-5.75,8.36-8.68l8.19-8.84,8.19-8.84,4.09-4.43,4-4.49,16-18c5.3-6,10.47-12.19,15.72-18.28,2.6-3.06,5.25-6.08,7.81-9.18l7.69-9.28,7.72-9.26,3.84-4.64,3.79-4.69c40.59-49.87,78.59-101.83,115-154.88q27.21-39.84,52.87-80.72,12.86-20.42,25.29-41.1,6.18-10.37,12.25-20.79l6-10.46,2.94-5.25c.94-1.75,2-3.57,2.75-5.2l.09-.18a.91.91,0,0,1,1.66.76Z" transform="translate(-143.53 -103.13)"/><path class="cls-3" d="M2282.21,938.75H2072.64a8.11,8.11,0,0,1-8.11-8.11h0a8.11,8.11,0,0,1,8.11-8.1h209.57a8.11,8.11,0,0,1,8.11,8.1h0A8.11,8.11,0,0,1,2282.21,938.75Z" transform="translate(-143.53 -103.13)"/><path class="cls-3" d="M2307.39,970.52H2097.82a8.11,8.11,0,0,1-8.11-8.11h0a8.11,8.11,0,0,1,8.11-8.11h209.57a8.11,8.11,0,0,1,8.11,8.11h0A8.11,8.11,0,0,1,2307.39,970.52Z" transform="translate(-143.53 -103.13)"/><path class="cls-3" d="M2247.8,1034.05h-150a8.11,8.11,0,0,1-8.11-8.11h0a8.11,8.11,0,0,1,8.11-8.11h150a8.11,8.11,0,0,1,8.1,8.11h0A8.11,8.11,0,0,1,2247.8,1034.05Z" transform="translate(-143.53 -103.13)"/><path class="cls-3" d="M2330.89,1002.28H2121.33a8.11,8.11,0,0,1-8.11-8.11h0a8.11,8.11,0,0,1,8.11-8.1h209.56a8.11,8.11,0,0,1,8.11,8.1h0A8.11,8.11,0,0,1,2330.89,1002.28Z" transform="translate(-143.53 -103.13)"/><ellipse class="cls-7" cx="1232.88" cy="924.59" rx="536.43" ry="579.02" transform="translate(111.58 2012.6) rotate(-87.49)"/><g class="cls-8"><ellipse class="cls-5" cx="1058.01" cy="782.76" rx="454.35" ry="429.22"/></g><g class="cls-9"><path class="cls-10" d="M1380.8,927.18c0,47.32-1.77,94.65-5.44,141.84s-9.51,94.23-17.86,140.85c-4.23,23.29-9.13,46.48-15,69.44a673.74,673.74,0,0,1-20.89,68c-4.14,11.12-8.67,22.11-13.76,32.85a255.17,255.17,0,0,1-17.35,31.21,157.34,157.34,0,0,1-10.68,14.41,103.89,103.89,0,0,1-12.67,12.85,66.43,66.43,0,0,1-15.29,9.86,45.75,45.75,0,0,1-17.85,4.21,43.71,43.71,0,0,1-9.21-.73,47.44,47.44,0,0,1-8.84-2.59,62.38,62.38,0,0,1-15.65-9.31,98.14,98.14,0,0,1-13-12.57,149.86,149.86,0,0,1-10.91-14.26,246.1,246.1,0,0,1-17.64-31.06c-5.16-10.71-9.76-21.67-13.95-32.78a654,654,0,0,1-21.09-67.9c-5.89-23-10.83-46.12-15.08-69.42-8.5-46.59-14.29-93.63-18.2-140.8s-5.83-94.5-6.07-141.84c0-.74-.11-1.48-.1-2.22l0-2.22,0-4.43.1-8.88.29-17.74q.38-17.74,1-35.48,1.32-35.48,3.92-70.87c3.5-47.2,8.73-94.28,16.5-141,3.9-23.35,8.45-46.59,13.92-69.63a670.51,670.51,0,0,1,19.76-68.24c4-11.16,8.32-22.21,13.27-33a241.67,241.67,0,0,1,17-31.31c6.52-9.93,14-19.41,23.35-27a59.25,59.25,0,0,1,15.44-9.25,46.06,46.06,0,0,1,8.7-2.51,43.59,43.59,0,0,1,9-.65,47.15,47.15,0,0,1,17.54,4.12,68.85,68.85,0,0,1,15.24,9.52c9.3,7.56,17,16.82,23.84,26.53a254,254,0,0,1,18.1,30.66c5.38,10.58,10.16,21.44,14.58,32.44a650,650,0,0,1,22.44,67.4c6.33,22.82,11.68,45.9,16.32,69.11a1348,1348,0,0,1,19.79,140.57C1378.76,832.51,1380.73,879.84,1380.8,927.18Zm-7,0q0-35.35-1.36-70.7c-.94-23.55-2.32-47.09-4.27-70.58a1356,1356,0,0,0-18.43-140.14c-4.34-23.16-9.4-46.19-15.42-69a639,639,0,0,0-21.54-67.24c-4.27-11-8.91-21.79-14.13-32.32a251.15,251.15,0,0,0-17.58-30.49c-6.64-9.64-14.12-18.8-23.09-26.25a66.59,66.59,0,0,0-14.63-9.35,43.84,43.84,0,0,0-16.7-4.06,40.76,40.76,0,0,0-16.84,3.17,57.3,57.3,0,0,0-14.74,9.05c-9,7.44-16.21,16.8-22.51,26.64a237.89,237.89,0,0,0-16.44,31.1c-4.78,10.73-9,21.74-12.79,32.86a663.57,663.57,0,0,0-18.9,68c-5.19,23-9.47,46.17-13.09,69.46C1104.1,694,1099.41,741,1096.43,788q-2.21,35.29-3.14,70.66-.48,17.67-.64,35.36l-.1,17.68v15.47c0,.74-.09,1.47-.09,2.21q-.2,70.71,5,141.31c3.53,47,8.94,93.89,17,140.32,4.06,23.2,8.79,46.29,14.47,69.14a647.62,647.62,0,0,0,20.41,67.54c4.06,11,8.52,21.9,13.53,32.5a243.56,243.56,0,0,0,17.08,30.64,147.82,147.82,0,0,0,10.5,14A95.75,95.75,0,0,0,1202.8,1437a58.89,58.89,0,0,0,14.61,8.86,40.37,40.37,0,0,0,16.53,3.14,42.06,42.06,0,0,0,16.36-4,62.3,62.3,0,0,0,14.31-9.4,99.45,99.45,0,0,0,12.09-12.44A152.49,152.49,0,0,0,1287,1409a252,252,0,0,0,16.82-30.8c5-10.63,9.35-21.54,13.37-32.58a662.28,662.28,0,0,0,20.15-67.62c5.6-22.87,10.27-46,14.28-69.18,8-46.44,13.38-93.33,16.93-140.33S1373.82,974.33,1373.8,927.18Z" transform="translate(-143.53 -103.13)"/><path class="cls-10" d="M1619.48,927.18a703.6,703.6,0,0,1-6.06,91.16,660.51,660.51,0,0,1-18.4,89.48,609.68,609.68,0,0,1-31.23,85.84,548,548,0,0,1-44.28,79.86,476,476,0,0,1-57.75,70.68,404.1,404.1,0,0,1-71.11,57.15,344.3,344.3,0,0,1-82.88,38,311.76,311.76,0,0,1-180.31.08,344.7,344.7,0,0,1-82.94-37.91,404.15,404.15,0,0,1-71.21-57.1,476.06,476.06,0,0,1-57.87-70.67c-34.09-50.62-59.11-107.09-75.7-165.76a660.4,660.4,0,0,1-18.44-89.55A684.62,684.62,0,0,1,821.35,836a659.38,659.38,0,0,1,18.51-89.53c16.63-58.65,41.69-115.08,75.8-165.65a476.16,476.16,0,0,1,57.87-70.59,405,405,0,0,1,71.18-57,344.35,344.35,0,0,1,82.87-37.84,311.51,311.51,0,0,1,180.07.07,344.69,344.69,0,0,1,82.8,37.91,404.22,404.22,0,0,1,71.08,57.06,474.89,474.89,0,0,1,57.76,70.6,550,550,0,0,1,44.33,79.79,610.58,610.58,0,0,1,31.29,85.79A660.51,660.51,0,0,1,1613.36,836,703.39,703.39,0,0,1,1619.48,927.18Zm-8,0A679.78,679.78,0,0,0,1588,748.49c-15.9-58.08-40-114.15-73.08-164.57a470.36,470.36,0,0,0-56.45-70.47,394.87,394.87,0,0,0-69.84-57.18,337.47,337.47,0,0,0-81.81-38,303.7,303.7,0,0,0-178.27.07,337.42,337.42,0,0,0-81.74,38A394.13,394.13,0,0,0,977,513.63a469.68,469.68,0,0,0-56.34,70.49,544.62,544.62,0,0,0-42.87,79.41,613.48,613.48,0,0,0-30,85.1,690.22,690.22,0,0,0,.12,357.07,614.83,614.83,0,0,0,30.08,85,544.61,544.61,0,0,0,42.92,79.34,470.42,470.42,0,0,0,56.34,70.41,394.51,394.51,0,0,0,69.71,57.13,337.18,337.18,0,0,0,81.66,38,303.62,303.62,0,0,0,178.05.07,337,337,0,0,0,81.72-37.9,394.53,394.53,0,0,0,69.81-57.09,470,470,0,0,0,56.46-70.4c33.15-50.36,57.24-106.39,73.18-164.45A679.13,679.13,0,0,0,1611.45,927.18Z" transform="translate(-143.53 -103.13)"/><path class="cls-10" d="M748.7,719.23,809,718.7l60.34-.44,120.68-.55c40.23-.24,80.45-.21,120.68-.29l120.68-.16,120.68.19,60.34.1,30.17.06,30.17.14,120.68.6,60.34.49,30.17.24,30.17.33a.34.34,0,0,1,.35.35.36.36,0,0,1-.35.36l-30.17.32-30.17.24-60.34.49-120.68.6-30.17.15-30.17.05-60.34.11-120.68.18-120.68-.16c-40.23-.07-80.45-.05-120.68-.28l-120.68-.56L809,720.82l-60.34-.53a.53.53,0,0,1-.53-.53A.55.55,0,0,1,748.7,719.23Z" transform="translate(-143.53 -103.13)"/><path class="cls-10" d="M888.7,517.1l21.42-.3,21.42-.23,42.84-.44,85.68-.55c57.12-.37,114.24-.42,171.36-.46l85.68.11,42.84.16,21.42.08,21.42.15,85.68.6,42.84.49,21.42.24,21.42.33a.35.35,0,0,1,.35.36.36.36,0,0,1-.35.35l-21.42.32-21.42.24-42.84.49-85.68.6-21.42.15-21.42.08-42.84.16-85.68.11c-57.12,0-114.24-.08-171.36-.45l-85.68-.56-42.84-.44-21.42-.23-21.42-.3a.53.53,0,0,1,0-1.06Z" transform="translate(-143.53 -103.13)"/><path class="cls-10" d="M706.76,921.36l65.58-.53,65.58-.44,131.17-.55c43.72-.24,87.44-.21,131.17-.29l131.16-.16,131.17.19,65.58.1,32.79.06,32.79.14,131.17.6,65.58.49,32.79.24,32.79.33a.35.35,0,0,1,.35.35.36.36,0,0,1-.35.36l-32.79.32-32.79.24-65.58.49-131.17.6-32.79.15-32.79.05-65.58.11-131.17.18-131.16-.16c-43.73-.07-87.45-.05-131.17-.28l-131.17-.56L772.34,923l-65.58-.53a.52.52,0,0,1-.52-.53A.53.53,0,0,1,706.76,921.36Z" transform="translate(-143.53 -103.13)"/><path class="cls-10" d="M748.7,1123.49,809,1123l60.34-.44,120.68-.55c40.23-.24,80.45-.21,120.68-.29l120.68-.16,120.68.19,60.34.1,30.17.06,30.17.14,120.68.6,60.34.49,30.17.24,30.17.33a.34.34,0,0,1,.35.35.36.36,0,0,1-.35.36l-30.17.32-30.17.24-60.34.49-120.68.6-30.17.15-30.17,0-60.34.11-120.68.18-120.68-.16c-40.23-.07-80.45,0-120.68-.28l-120.68-.56-60.34-.44-60.34-.53a.53.53,0,0,1-.53-.53A.55.55,0,0,1,748.7,1123.49Z" transform="translate(-143.53 -103.13)"/><path class="cls-10" d="M1591.41,1328H906a1.85,1.85,0,0,1,0-3.7h685.44a1.85,1.85,0,0,1,0,3.7Z" transform="translate(-143.53 -103.13)"/></g><circle class="cls-5" cx="1418.04" cy="896.15" r="30.19"/><path class="cls-11" d="M913,1251a1.85,1.85,0,0,1-.44-3.65c1.78-.44,3.56-.92,5.29-1.41a1.85,1.85,0,1,1,1,3.55c-1.77.51-3.6,1-5.42,1.45A1.74,1.74,0,0,1,913,1251Zm17.59-5.62a1.85,1.85,0,0,1-.68-3.57c1.69-.67,3.38-1.39,5-2.13a1.85,1.85,0,1,1,1.53,3.37c-1.69.76-3.43,1.5-5.18,2.2A1.87,1.87,0,0,1,930.59,1245.42Zm16.57-8.14a1.85,1.85,0,0,1-.95-3.44c1.56-.93,3.11-1.91,4.61-2.91a1.86,1.86,0,0,1,2.57.52,1.84,1.84,0,0,1-.52,2.56c-1.55,1-3.15,2-4.77,3A1.78,1.78,0,0,1,947.16,1237.28Zm15-10.75a1.85,1.85,0,0,1-1.21-3.25c1.38-1.18,2.74-2.4,4.06-3.65a1.85,1.85,0,0,1,2.54,2.69c-1.36,1.29-2.77,2.56-4.19,3.77A1.84,1.84,0,0,1,962.17,1226.53Zm13-13.14a1.86,1.86,0,0,1-1.42-3c1.16-1.38,2.3-2.82,3.39-4.27a1.85,1.85,0,1,1,3,2.22c-1.13,1.5-2.31,3-3.5,4.42A1.87,1.87,0,0,1,975.13,1213.39Zm10.65-15.1a1.78,1.78,0,0,1-.94-.26,1.84,1.84,0,0,1-.64-2.53c.91-1.54,1.82-3.15,2.69-4.76a1.85,1.85,0,0,1,3.26,1.75c-.9,1.67-1.83,3.31-2.78,4.9A1.84,1.84,0,0,1,985.78,1198.29Zm8.32-16.51a1.81,1.81,0,0,1-.72-.14,1.86,1.86,0,0,1-1-2.43c.71-1.66,1.39-3.37,2-5.09a1.85,1.85,0,0,1,3.46,1.31c-.67,1.76-1.37,3.51-2.09,5.22A1.83,1.83,0,0,1,994.1,1181.78Zm6.14-17.44a1.79,1.79,0,0,1-.51-.07,1.87,1.87,0,0,1-1.27-2.3c.51-1.74,1-3.53,1.45-5.3a1.85,1.85,0,0,1,3.58.92c-.46,1.81-1,3.63-1.47,5.41A1.85,1.85,0,0,1,1000.24,1164.34Zm4.23-18a1.87,1.87,0,0,1-.34,0,1.85,1.85,0,0,1-1.49-2.15c.33-1.78.64-3.61.92-5.43a1.85,1.85,0,0,1,3.66.57c-.29,1.85-.6,3.71-.94,5.53A1.84,1.84,0,0,1,1004.47,1146.32ZM1007,1128h-.18a1.84,1.84,0,0,1-1.66-2c.17-1.82.33-3.67.46-5.49a1.85,1.85,0,1,1,3.69.27c-.13,1.85-.29,3.73-.47,5.58A1.85,1.85,0,0,1,1007,1128Zm1.07-18.48h0a1.86,1.86,0,0,1-1.81-1.89c0-1.87.06-3.69.06-5.47a1.88,1.88,0,0,1,1.85-1.88,1.84,1.84,0,0,1,1.85,1.83v.05c0,1.81,0,3.65-.06,5.54A1.85,1.85,0,0,1,1008.08,1109.51Zm-.26-18.51a1.85,1.85,0,0,1-1.85-1.76c-.09-1.93-.2-3.77-.32-5.5a1.85,1.85,0,1,1,3.69-.26q.18,2.64.33,5.58a1.85,1.85,0,0,1-1.76,1.94Zm-1.58-18.44a1.84,1.84,0,0,1-1.83-1.62c-.44-3.43-.78-5.39-.78-5.41a1.85,1.85,0,1,1,3.64-.64c0,.08.36,2,.81,5.59a1.85,1.85,0,0,1-1.6,2.07Z" transform="translate(-143.53 -103.13)"/><path class="cls-12" d="M1509.58,971.93a1.84,1.84,0,0,1-1.49-.75q-1.65-2.25-3.29-4.45a1.85,1.85,0,1,1,3-2.21c1.1,1.47,2.21,3,3.31,4.47a1.84,1.84,0,0,1-1.49,2.94Zm-11.17-14.74a1.85,1.85,0,0,1-1.46-.71c-1.14-1.46-2.28-2.9-3.43-4.34a1.85,1.85,0,0,1,2.89-2.31c1.15,1.45,2.31,2.9,3.46,4.37a1.85,1.85,0,0,1-.32,2.6A1.87,1.87,0,0,1,1498.41,957.19Zm-11.65-14.37a1.84,1.84,0,0,1-1.42-.66q-1.78-2.13-3.57-4.21a1.85,1.85,0,1,1,2.8-2.41q1.82,2.1,3.61,4.24a1.85,1.85,0,0,1-1.42,3Zm-12.15-13.94a1.87,1.87,0,0,1-1.37-.61c-1.24-1.38-2.49-2.74-3.73-4.08a1.85,1.85,0,1,1,2.71-2.51c1.26,1.35,2.51,2.72,3.77,4.11a1.85,1.85,0,0,1-.14,2.61A1.82,1.82,0,0,1,1474.61,928.88Zm-12.67-13.48a1.83,1.83,0,0,1-1.32-.55c-1.29-1.33-2.59-2.63-3.89-3.93a1.85,1.85,0,0,1,2.61-2.62q2,2,3.93,4a1.84,1.84,0,0,1-1.33,3.14Zm-13.21-12.94a1.85,1.85,0,0,1-1.26-.5q-2-1.9-4.06-3.75a1.85,1.85,0,0,1,2.5-2.74c1.36,1.25,2.73,2.51,4.09,3.79a1.85,1.85,0,0,1-1.27,3.2Zm-442.59-1.89a1.85,1.85,0,0,1-1.21-3.26c.06,0,1.55-1.32,4.4-3.56a1.85,1.85,0,1,1,2.29,2.9c-2.78,2.19-4.27,3.46-4.28,3.48A1.89,1.89,0,0,1,1006.14,900.57ZM1435,890.11a1.85,1.85,0,0,1-1.21-.45q-2.1-1.8-4.22-3.56a1.85,1.85,0,1,1,2.37-2.84q2.13,1.77,4.26,3.59a1.84,1.84,0,0,1,.2,2.61A1.82,1.82,0,0,1,1435,890.11Zm-414.11-.86a1.85,1.85,0,0,1-1.08-3.35q2.13-1.54,4.55-3.24a1.85,1.85,0,1,1,2.12,3q-2.4,1.66-4.51,3.2A1.83,1.83,0,0,1,1020.86,889.25Zm15.28-10.48a1.85,1.85,0,0,1-1-3.4c1.51-1,3.08-2,4.69-3a1.85,1.85,0,0,1,2,3.12q-2.4,1.53-4.65,3A1.86,1.86,0,0,1,1036.14,878.77Zm384.5-.35a1.87,1.87,0,0,1-1.14-.39q-2.19-1.69-4.39-3.35a1.85,1.85,0,0,1,2.23-3c1.48,1.11,3,2.24,4.43,3.39a1.85,1.85,0,0,1-1.13,3.31ZM1051.86,869a1.85,1.85,0,0,1-.94-3.45q2.36-1.39,4.81-2.81a1.85,1.85,0,1,1,1.85,3.2q-2.44,1.41-4.77,2.8A1.94,1.94,0,0,1,1051.86,869Zm353.88-1.51a1.81,1.81,0,0,1-1.06-.34q-2.28-1.57-4.56-3.11a1.85,1.85,0,0,1,2.07-3.07c1.53,1,3.07,2.08,4.6,3.15a1.85,1.85,0,0,1-1,3.37ZM1068,859.85a1.85,1.85,0,0,1-.88-3.48c1.61-.87,3.26-1.74,4.92-2.62a1.85,1.85,0,1,1,1.72,3.28c-1.66.87-3.28,1.73-4.89,2.6A1.84,1.84,0,0,1,1068,859.85Zm322.29-2.53a1.8,1.8,0,0,1-1-.27c-1.57-1-3.15-1.92-4.72-2.86a1.85,1.85,0,1,1,1.89-3.18c1.59.94,3.18,1.91,4.77,2.89a1.84,1.84,0,0,1-1,3.42Zm-305.81-5.91a1.85,1.85,0,0,1-.81-3.52c1.65-.8,3.33-1.61,5-2.4a1.85,1.85,0,1,1,1.57,3.34l-5,2.39A1.77,1.77,0,0,1,1084.46,851.41Zm289.8-3.33a1.86,1.86,0,0,1-.88-.23q-2.43-1.3-4.88-2.57a1.85,1.85,0,0,1,1.7-3.29c1.65.85,3.29,1.72,4.94,2.61a1.85,1.85,0,0,1-.88,3.48Zm-273-4.4a1.85,1.85,0,0,1-.74-3.55c1.7-.74,3.41-1.46,5.13-2.19a1.85,1.85,0,1,1,1.43,3.42c-1.71.71-3.41,1.44-5.09,2.16A1.75,1.75,0,0,1,1101.28,843.68Zm256.45-3.89a1.8,1.8,0,0,1-.78-.17c-1.68-.77-3.35-1.53-5-2.27a1.85,1.85,0,0,1,1.5-3.39c1.69.75,3.39,1.52,5.08,2.3a1.85,1.85,0,0,1-.77,3.53Zm-239.31-3.09a1.85,1.85,0,0,1-.65-3.58c1.72-.66,3.47-1.3,5.22-2a1.86,1.86,0,0,1,2.37,1.11,1.84,1.84,0,0,1-1.1,2.37q-2.61,1-5.18,1.93A1.88,1.88,0,0,1,1118.42,836.7Zm222.29-4.15a2,2,0,0,1-.67-.12q-2.58-1-5.16-1.95a1.85,1.85,0,1,1,1.28-3.47c1.73.63,3.48,1.29,5.22,2a1.85,1.85,0,0,1-.67,3.57Zm-204.84-2a1.85,1.85,0,0,1-.57-3.61c1.76-.58,3.53-1.14,5.31-1.7a1.85,1.85,0,0,1,1.1,3.54q-2.65.82-5.26,1.68A2,2,0,0,1,1135.87,830.53Zm187.4-4.11a1.77,1.77,0,0,1-.56-.09c-1.76-.55-3.52-1.09-5.28-1.6a1.85,1.85,0,0,1,1-3.55q2.67.78,5.34,1.62a1.85,1.85,0,0,1-.55,3.62Zm-169.67-1.21a1.85,1.85,0,0,1-.49-3.63q2.69-.74,5.4-1.43a1.85,1.85,0,1,1,.92,3.58c-1.8.46-3.57.93-5.34,1.42A2.12,2.12,0,0,1,1153.6,825.21Zm151.86-3.77a2.12,2.12,0,0,1-.44-.05q-2.7-.66-5.37-1.26a1.85,1.85,0,1,1,.8-3.61c1.81.41,3.63.83,5.44,1.27a1.85,1.85,0,0,1-.43,3.65Zm-133.89-.63a1.85,1.85,0,0,1-.39-3.66q2.71-.58,5.46-1.14a1.85,1.85,0,0,1,.73,3.63q-2.71.54-5.41,1.13A1.72,1.72,0,0,1,1171.57,820.81Zm115.79-3.16a1.83,1.83,0,0,1-.33,0c-1.81-.32-3.63-.62-5.44-.9a1.85,1.85,0,0,1,.57-3.66q2.74.43,5.51.91a1.85,1.85,0,0,1-.31,3.67Zm-97.61-.27a1.85,1.85,0,0,1-.29-3.67q2.74-.45,5.52-.84a1.85,1.85,0,0,1,.52,3.66c-1.82.27-3.64.54-5.45.83A1.51,1.51,0,0,1,1189.75,817.38Zm79.29-2.31h-.2q-2.74-.28-5.49-.53a1.85,1.85,0,0,1,.33-3.69l5.56.54a1.85,1.85,0,0,1-.2,3.69ZM1208.1,815a1.85,1.85,0,0,1-.19-3.69q2.77-.28,5.56-.51a1.85,1.85,0,0,1,.31,3.69q-2.76.22-5.5.5Zm42.5-1.29h-.08c-1.85-.08-3.68-.14-5.51-.18a1.85,1.85,0,0,1,.08-3.7c1.85,0,3.72.11,5.58.18a1.85,1.85,0,0,1-.07,3.7Zm-24,0a1.85,1.85,0,0,1-.07-3.7c1.85-.08,3.71-.13,5.58-.17a1.84,1.84,0,0,1,1.89,1.81,1.86,1.86,0,0,1-1.81,1.89c-1.85,0-3.68.09-5.52.17Z" transform="translate(-143.53 -103.13)"/><circle class="cls-5" cx="998.7" cy="948.39" r="30.19" transform="translate(-430.44 351.25) rotate(-22.5)"/><path class="cls-13" d="M1379.34,827a1.86,1.86,0,0,1-1.7-1.1c-.74-1.67-1.51-3.35-2.29-5a1.85,1.85,0,1,1,3.34-1.59c.8,1.68,1.58,3.39,2.34,5.09a1.85,1.85,0,0,1-1,2.44A1.76,1.76,0,0,1,1379.34,827Zm-8.22-16.57a1.86,1.86,0,0,1-1.62-1c-.87-1.6-1.79-3.21-2.71-4.79a1.85,1.85,0,0,1,3.2-1.87c.94,1.61,1.86,3.25,2.75,4.87a1.85,1.85,0,0,1-.73,2.52A1.87,1.87,0,0,1,1371.12,810.44Zm-9.57-15.83a1.86,1.86,0,0,1-1.55-.83c-1-1.52-2-3-3.09-4.55a1.85,1.85,0,0,1,3-2.12c1.07,1.53,2.12,3.08,3.15,4.63a1.85,1.85,0,0,1-1.54,2.87Zm-10.84-15a1.87,1.87,0,0,1-1.46-.7c-1.12-1.43-2.28-2.87-3.45-4.29a1.85,1.85,0,0,1,2.85-2.36c1.19,1.45,2.37,2.91,3.51,4.36a1.84,1.84,0,0,1-1.45,3Zm-12-14.06a1.82,1.82,0,0,1-1.36-.6c-1.24-1.34-2.51-2.68-3.79-4a1.85,1.85,0,0,1,2.66-2.57c1.29,1.33,2.59,2.7,3.85,4.06a1.85,1.85,0,0,1-.11,2.61A1.82,1.82,0,0,1,1338.7,765.56Zm-13.09-13.08a1.81,1.81,0,0,1-1.25-.49c-1.35-1.25-2.73-2.49-4.09-3.69a1.85,1.85,0,1,1,2.44-2.78c1.39,1.22,2.79,2.49,4.16,3.75a1.85,1.85,0,0,1-1.26,3.21Zm-14.07-12a1.82,1.82,0,0,1-1.14-.4c-1.44-1.13-2.91-2.26-4.37-3.35a1.85,1.85,0,0,1,2.23-3c1.48,1.11,3,2.25,4.43,3.41a1.85,1.85,0,0,1-1.15,3.3Zm-280.06-1.75a1.85,1.85,0,0,1-1.13-3.32c1.47-1.12,3-2.25,4.49-3.34a1.85,1.85,0,1,1,2.17,3c-1.48,1.08-3,2.18-4.41,3.29A1.81,1.81,0,0,1,1031.48,738.72Zm265.1-9.12a1.85,1.85,0,0,1-1-.31c-1.52-1-3.08-2-4.61-3a1.85,1.85,0,1,1,2-3.12c1.56,1,3.14,2,4.69,3.05a1.85,1.85,0,0,1-1,3.39Zm-250-1.5a1.85,1.85,0,0,1-1-3.41c1.56-1,3.15-2,4.75-3a1.85,1.85,0,0,1,1.92,3.17c-1.57,1-3.14,1.93-4.67,2.91A1.84,1.84,0,0,1,1046.62,728.1Zm234.18-8.16a1.85,1.85,0,0,1-.9-.23c-1.6-.9-3.23-1.78-4.84-2.63a1.85,1.85,0,0,1,1.73-3.28c1.64.87,3.29,1.77,4.92,2.68a1.85,1.85,0,0,1-.91,3.46Zm-218.21-1.17a1.85,1.85,0,0,1-.87-3.48c1.63-.87,3.31-1.73,5-2.57a1.86,1.86,0,0,1,2.48.83,1.84,1.84,0,0,1-.83,2.48c-1.64.82-3.29,1.67-4.89,2.52A1.84,1.84,0,0,1,1062.59,718.77Zm201.72-7.2a1.76,1.76,0,0,1-.77-.17c-1.67-.76-3.36-1.51-5-2.23a1.85,1.85,0,1,1,1.45-3.4c1.7.73,3.42,1.49,5.12,2.27a1.85,1.85,0,0,1-.77,3.53Zm-185-.81a1.85,1.85,0,0,1-.74-3.54c1.71-.74,3.44-1.47,5.16-2.16a1.85,1.85,0,0,1,1.39,3.43c-1.69.68-3.4,1.4-5.08,2.12A1.74,1.74,0,0,1,1079.27,710.76Zm167.92-6.19a2,2,0,0,1-.63-.11c-1.73-.63-3.48-1.24-5.2-1.81a1.85,1.85,0,1,1,1.17-3.51c1.75.58,3.53,1.2,5.29,1.84a1.85,1.85,0,0,1-.63,3.59Zm-150.66-.46a1.85,1.85,0,0,1-.6-3.6c1.74-.6,3.53-1.18,5.31-1.74a1.85,1.85,0,0,1,1.12,3.53c-1.76.55-3.52,1.12-5.24,1.71A1.78,1.78,0,0,1,1096.53,704.11Zm133-5.1a2,2,0,0,1-.48-.06c-1.76-.48-3.56-.93-5.33-1.36a1.85,1.85,0,1,1,.87-3.6c1.8.44,3.63.9,5.42,1.38a1.85,1.85,0,0,1-.48,3.64Zm-115.3-.18a1.85,1.85,0,0,1-.45-3.64c1.79-.46,3.62-.9,5.43-1.32a1.85,1.85,0,0,1,.83,3.61c-1.78.41-3.58.84-5.35,1.3A1.8,1.8,0,0,1,1114.25,698.83ZM1211.5,695l-.33,0c-1.8-.32-3.63-.63-5.43-.9a1.85,1.85,0,1,1,.56-3.66c1.83.28,3.69.59,5.52.92a1.85,1.85,0,0,1-.32,3.67Zm-79.16,0a1.85,1.85,0,0,1-.31-3.67c1.82-.32,3.68-.62,5.52-.89a1.85,1.85,0,1,1,.54,3.66c-1.8.27-3.63.56-5.43.87Zm18.33-2.44a1.85,1.85,0,0,1-.17-3.69c1.85-.17,3.72-.33,5.58-.46a1.85,1.85,0,0,1,.26,3.7c-1.83.12-3.68.27-5.49.44Zm42.5,0H1193c-1.81-.16-3.65-.31-5.49-.44a1.85,1.85,0,1,1,.25-3.69c1.87.13,3.75.28,5.58.45a1.85,1.85,0,0,1-.17,3.69Zm-24-1a1.85,1.85,0,0,1,0-3.7c1.87,0,3.73,0,5.6,0a1.85,1.85,0,0,1,1.83,1.87,1.83,1.83,0,0,1-1.87,1.83c-1.84,0-3.67,0-5.51,0Z" transform="translate(-143.53 -103.13)"/><circle class="cls-5" cx="1722.53" cy="649.18" r="274.17" transform="translate(-98.05 1305.03) rotate(-45)"/><circle class="cls-14" cx="1722.53" cy="649.18" r="265.06" transform="translate(-98.05 1305.03) rotate(-45)"/><circle class="cls-3" cx="1728.31" cy="654.95" r="224.34" transform="translate(-100.44 1310.8) rotate(-45)"/><circle class="cls-5" cx="815.85" cy="649.18" r="274.18" transform="translate(-363.61 663.91) rotate(-45)"/><circle class="cls-14" cx="672.32" cy="546.05" r="265.06"/><path class="cls-3" d="M571.52,637.92h-.1a1.85,1.85,0,0,1-1.75-1.94,248.65,248.65,0,0,1,3.6-31,1.85,1.85,0,0,1,3.64.66,244.88,244.88,0,0,0-3.54,30.5A1.85,1.85,0,0,1,571.52,637.92Z" transform="translate(-143.53 -103.13)"/><path class="cls-3" d="M597.34,540.82a1.91,1.91,0,0,1-.83-.2,1.86,1.86,0,0,1-.82-2.49A246.54,246.54,0,0,1,815.85,402.65H816a249.17,249.17,0,0,1,44.47,4,1.85,1.85,0,0,1-.66,3.64,245.49,245.49,0,0,0-43.81-4h-.12A242.81,242.81,0,0,0,599,539.8,1.85,1.85,0,0,1,597.34,540.82Z" transform="translate(-143.53 -103.13)"/><circle class="cls-3" cx="821.62" cy="654.96" r="224.34" transform="translate(-366.01 669.68) rotate(-45)"/><path class="cls-15" d="M1250,617.27s-10.6-27.91-23-25.36S1201.06,604,1201.06,604l-19.89,26.91s55.85,22,75.49,9.39c0,0,57,9.86,129.09-2a282.32,282.32,0,0,1-20.29-61.17C1329,597.8,1289.67,613.23,1250,617.27Z" transform="translate(-143.53 -103.13)"/><path class="cls-16" d="M1552.17,414.82s-81.68,102.88-186.71,162.33a282.32,282.32,0,0,0,20.29,61.17c54.49-8.94,117.55-30.28,171-77.69Z" transform="translate(-143.53 -103.13)"/><path class="cls-17" d="M940,428.43l5.07,136.18a371.18,371.18,0,0,0,41.17,11.69c8.17-26.29,26.15-58.56,40.88-82.56C973,474.61,940,428.43,940,428.43Z" transform="translate(-143.53 -103.13)"/><path class="cls-18" d="M1210.14,426.11c-74.22,80.13-134.3,84.85-183,67.63-14.73,24-32.71,56.27-40.88,82.56,198.21,43.7,244.88-138.51,244.88-138.51Z" transform="translate(-143.53 -103.13)"/><path class="cls-19" d="M1225.19,417.6s8.55-9.18,24.38-6.3,29.9,8.38,39.76,0,13.33,2.87,13.33,2.87l-29.52,22.44Z" transform="translate(-143.53 -103.13)"/><path class="cls-20" d="M1207.53,433.29s5.86-24.49,23.52-21.14,57.73,25.16,68.06,21.14,23.53-13.62,30.31-10.23l-11.93,14.84s30.68-17.7,36-6.82l-51,28.73S1227.7,452.33,1207.53,433.29Z" transform="translate(-143.53 -103.13)"/><path class="cls-21" d="M947.92,634c54-64.25,74.69-132.81,10.37-198.8S842.36,403.3,842.36,403.3C698.74,490.76,682.18,729,681.9,830.47A223.43,223.43,0,0,0,821.51,879.3a226.77,226.77,0,0,0,25.68-1.47C843.32,810.45,897.46,694.08,947.92,634Z" transform="translate(-143.53 -103.13)"/><path class="cls-22" d="M935.41,304.81c0,4.32-61.53,91.64-61.53,91.64s11,21.73,63.72,39.37l45.47-93.49Z" transform="translate(-143.53 -103.13)"/><path class="cls-23" d="M911.23,604.62s116.64,97.68,242.59,55.06a30,30,0,0,1,23.65,1.78l36.21,19.12a32.31,32.31,0,0,0,42.83-12c5-8.42,9.33-18,10.18-27.24l-70.85-28.68,5.22-8.69s-34.59-2.93-43.64,21.87c0,0-65.89,27.4-177-94.82C980.41,531,930,573.91,911.23,604.62Z" transform="translate(-143.53 -103.13)"/><path class="cls-24" d="M905,604.19a2.56,2.56,0,0,1-1.44-.44c-49.25-33.28-72.42-87-72.65-87.54a2.58,2.58,0,0,1,4.75-2c.22.52,22.84,52.87,70.79,85.27a2.58,2.58,0,0,1-1.45,4.72Z" transform="translate(-143.53 -103.13)"/><path class="cls-25" d="M978.11,530a2.61,2.61,0,0,1-2.18-1.18c-.14-.23-15.16-23.61-43.74-74.8-8.71-15.58-20.14-25.45-34-29.33-22.94-6.41-45.07,5.89-45.29,6a2.58,2.58,0,0,1-2.55-4.49c1-.55,24.15-13.49,49.18-6.51,15.22,4.25,27.71,14.95,37.12,31.8,28.51,51,43.44,74.28,43.58,74.51a2.58,2.58,0,0,1-.77,3.57A2.53,2.53,0,0,1,978.11,530Z" transform="translate(-143.53 -103.13)"/><path class="cls-26" d="M983.81,254.78s21.88,50.25,23.35,76.62,7.15,43.49-23.35,48.8-56.18-9.88-70.1-36.15c0,0-21.81-40.48-16.92-57.06S983.81,254.78,983.81,254.78Z" transform="translate(-143.53 -103.13)"/><path class="cls-27" d="M924.13,325.16l1.73-.77a4.18,4.18,0,0,0,2-5.75c-4.3-8.3-12.68-27.34-1.85-31.79,14-5.72,69.24-17,81.17-36.61,11.46-18.86,1.31-43.19-14-50.12a2.11,2.11,0,0,0-2.75.9l-1.27,2.41a2.08,2.08,0,0,1-3.83-.4h0a2.06,2.06,0,0,0-3.73-.53c-3.66,5.87-13.56,15.38-40,20.27-37.63,6.94-62.5,22.17-63.12,48.16a2.08,2.08,0,0,1-3.21,1.72c-2.77-1.7-7.22-2.49-13.16,2.5-10.33,8.69-6.11,31.23,16.55,49.77a2.06,2.06,0,0,1-.1,3.31c-4.11,2.68-10.23,9,5.63,17.52,16.41,8.77,28.66,8.05,33.37,7.27a2.07,2.07,0,0,0,1.68-2.49l-5-22.85a2.07,2.07,0,0,1,2-2.52Z" transform="translate(-143.53 -103.13)"/><path class="cls-28" d="M925.08,330s-8.35-32.1-22.74-23.1,7.47,36,19,37.17Z" transform="translate(-143.53 -103.13)"/><path class="cls-29" d="M1177.47,661.46s29.64,29,35.36,24.77c2-1.5,7.17-7,12.15-13a12.72,12.72,0,0,0,.86-15l-7-10.79a20.21,20.21,0,0,0-30.16-4.39A36.58,36.58,0,0,0,1177.47,661.46Z" transform="translate(-143.53 -103.13)"/><path class="cls-30" d="M1771.32,413.34c-115.21-33.69-219.15,1.48-219.15,1.48l-8.3,53.59a215.65,215.65,0,0,0,24.73,138.77c64,113.62,74.05,224.21,75.64,255.82a224.81,224.81,0,0,0,193.68-12.27C1912.37,551.12,1771.32,413.34,1771.32,413.34Z" transform="translate(-143.53 -103.13)"/><path class="cls-31" d="M1569.86,346.42l27,64.75a12.94,12.94,0,0,0,9.75,7.76c15.54,2.66,53.12,6.82,77.81-9.41a6.26,6.26,0,0,0,1.67-8.82l-49.79-71.48Z" transform="translate(-143.53 -103.13)"/><path class="cls-3" d="M1617.41,655.88a6,6,0,0,0-3.78,8.55l78,149.51a6,6,0,0,0,7,3l255-73.64a6,6,0,0,0,4.09-7.41l-43.94-152.09a6,6,0,0,0-7.27-4.13Z" transform="translate(-143.53 -103.13)"/><path class="cls-5" d="M1633.86,638.31a6.26,6.26,0,0,0-4.42,8.26l62.41,169.54a6.26,6.26,0,0,0,7.62,3.85l254.28-73.41a6.28,6.28,0,0,0,4.39-7.34L1922.9,576a6.27,6.27,0,0,0-7.58-4.77Z" transform="translate(-143.53 -103.13)"/><path class="cls-32" d="M1656,621.19a7.75,7.75,0,0,0-6.38,9.41l42.39,183a7.75,7.75,0,0,0,9.69,5.69L1952.14,747a7.73,7.73,0,0,0,5.35-9.37L1919,588.24a7.73,7.73,0,0,0-8.66-5.72Z" transform="translate(-143.53 -103.13)"/><path class="cls-33" d="M1877.66,685.83c19.43-146.82-93.72-259.72-93.72-259.72l-12.62-12.77-54.7,91.25c51.11,63.71,75.41,122.08,86.51,167.94C1817.85,668.24,1853.28,661.47,1877.66,685.83Z" transform="translate(-143.53 -103.13)"/><path class="cls-34" d="M1803.13,674.38a1.85,1.85,0,0,1-1.8-1.42c-13.76-56.85-42.75-113.11-86.15-167.21a1.85,1.85,0,0,1,2.89-2.32c43.74,54.53,73,111.27,86.86,168.66a1.85,1.85,0,0,1-1.37,2.23A1.59,1.59,0,0,1,1803.13,674.38Z" transform="translate(-143.53 -103.13)"/><path class="cls-35" d="M1803.13,672.53c10.31,42.61,9.23,74.41,7.66,89.59a11.82,11.82,0,0,1-10.93,10.59c-6.52.46-15.39,1-23.32,1.51-8.72.5-18.39-5-24.86-9.61a3.89,3.89,0,0,0-5.73,4.92c4.82,9.45,17.08,17.86,25.52,22.8a4,4,0,0,1-.92,7.36l-36.13,10.24c59.36,55.92,98.54-6.64,98.54-6.64,26.2-40.49,39.75-80.07,44.7-117.46C1853.28,661.47,1817.85,668.24,1803.13,672.53Z" transform="translate(-143.53 -103.13)"/><path class="cls-36" d="M1590.18,253.25c-1,1.2-38.81,98.51-38.81,98.51l56,20.38,49.5-86.91S1607.5,233.29,1590.18,253.25Z" transform="translate(-143.53 -103.13)"/><path class="cls-37" d="M1633.49,289.87a8.57,8.57,0,0,1,.11,7.54l-22.15,47.1a8.34,8.34,0,0,1-1.28,2c-2.87,3.27-12.85,12.95-22.42,2.11C1579.59,339.35,1572,331,1564.4,328a8.56,8.56,0,0,0-11.11,4.94c-3.51,9.14-10.22,27.74-13.86,45.09a8.52,8.52,0,0,0,6,9.9c11.26,3.29,33.43,9.06,52.67,9.76a8.59,8.59,0,0,0,7.71-4.24c7-12,26.87-45.58,33.93-54.19,6.56-8,20.3-6.62,26.54-5.49a8.6,8.6,0,0,0,6.71-1.59c5.78-4.32,15.59-14.64,4.19-29.28a8.57,8.57,0,0,1,1.46-11.85c6.42-5.21,13-14.45,4.52-27.47-8.59-13.18-21.56-13.13-30.2-11.18a8.87,8.87,0,0,1-9.8-4.22,5.68,5.68,0,0,0-4.75-3c-12.6-1.25-4.77-16.64-8.88-23.82-5.76-10.06-18.47-3.05-24.56,3.3-3.39,3.52-6.31,7.48-9.84,10.85a42.74,42.74,0,0,1-20,10.73,6.83,6.83,0,0,0-3.23,1.29,4.23,4.23,0,0,0-.72,4.65,11.52,11.52,0,0,0,3.07,3.89,53.44,53.44,0,0,0,36,14.68C1622.33,271,1630.17,283.34,1633.49,289.87Z" transform="translate(-143.53 -103.13)"/><path class="cls-38" d="M1629.12,354.82s9.47-29.29,22.7-29.52,24.87,11.8,10.1,28.14C1643.55,373.75,1629.12,354.82,1629.12,354.82Z" transform="translate(-143.53 -103.13)"/><path class="cls-39" d="M1573.06,244.61c50.26-84.74,165.78.06,106.69,70.63C1639.78,285.78,1595.1,242.71,1573.06,244.61Z" transform="translate(-143.53 -103.13)"/><path class="cls-40" d="M1643.2,284.94l-82.56-6.56a6,6,0,0,1-4.89-3.31A56,56,0,0,0,1525.24,247a1.67,1.67,0,0,1,.61-3.22l50.86-1h.17c25.17,3.16,46.8,19.45,67.16,40.39A1.06,1.06,0,0,1,1643.2,284.94Z" transform="translate(-143.53 -103.13)"/><path class="cls-37" d="M1632.83,1265a1.84,1.84,0,0,1-.9-.24q-2.4-1.35-4.83-2.66a1.85,1.85,0,0,1,1.75-3.26q2.46,1.32,4.89,2.7a1.85,1.85,0,0,1-.91,3.46Zm-16.39-8.58a1.9,1.9,0,0,1-.8-.18q-2.49-1.2-5-2.36a1.85,1.85,0,0,1,1.55-3.36c1.69.78,3.38,1.58,5,2.39a1.85,1.85,0,0,1-.81,3.51Zm-273.91-1.27a1.85,1.85,0,0,1-.8-3.52q2.52-1.2,5.06-2.36a1.85,1.85,0,0,1,1.54,3.36q-2.5,1.16-5,2.34A1.9,1.9,0,0,1,1342.53,1255.14Zm257-6.28a1.68,1.68,0,0,1-.7-.14c-1.71-.7-3.41-1.38-5.13-2a1.85,1.85,0,0,1,1.35-3.45q2.6,1,5.18,2.08a1.85,1.85,0,0,1-.7,3.56Zm-240.1-1.18a1.85,1.85,0,0,1-.69-3.57c1.72-.69,3.46-1.38,5.19-2a1.85,1.85,0,0,1,1.33,3.45q-2.58,1-5.14,2A1.67,1.67,0,0,1,1359.46,1247.68Zm222.79-5.34a1.8,1.8,0,0,1-.6-.1q-2.61-.88-5.24-1.74a1.85,1.85,0,0,1,1.14-3.52q2.65.86,5.3,1.76a1.85,1.85,0,0,1-.6,3.6Zm-205.43-1.06a1.85,1.85,0,0,1-.59-3.61q2.65-.89,5.31-1.72a1.85,1.85,0,1,1,1.11,3.53q-2.62.82-5.25,1.7A1.69,1.69,0,0,1,1376.82,1241.28Zm187.76-4.42a1.73,1.73,0,0,1-.5-.07q-2.65-.74-5.33-1.43a1.85,1.85,0,0,1,.93-3.58q2.7.71,5.39,1.45a1.85,1.85,0,0,1-.49,3.63Zm-170-.92a1.85,1.85,0,0,1-.48-3.64q2.7-.72,5.4-1.4a1.85,1.85,0,1,1,.9,3.59c-1.78.45-3.57.91-5.34,1.39A2,2,0,0,1,1394.53,1235.94Zm152.09-3.52a1.72,1.72,0,0,1-.39,0c-1.8-.39-3.6-.77-5.41-1.12a1.85,1.85,0,0,1,.73-3.63q2.73.54,5.46,1.13a1.85,1.85,0,0,1-.39,3.66Zm-134.09-.75a1.85,1.85,0,0,1-.38-3.66c1.83-.38,3.65-.74,5.48-1.08a1.85,1.85,0,1,1,.69,3.63q-2.71.51-5.42,1.07A1.55,1.55,0,0,1,1412.53,1231.67Zm115.91-2.65-.29,0q-2.73-.43-5.46-.82a1.85,1.85,0,1,1,.51-3.66c1.84.26,3.69.53,5.52.82a1.85,1.85,0,0,1-.28,3.68Zm-97.7-.56a1.85,1.85,0,0,1-.26-3.68c1.84-.27,3.68-.53,5.53-.76a1.84,1.84,0,0,1,2.07,1.59,1.86,1.86,0,0,1-1.6,2.08c-1.82.23-3.65.48-5.47.75Zm79.35-1.8h-.19c-1.83-.18-3.66-.35-5.49-.5a1.85,1.85,0,1,1,.3-3.69c1.85.16,3.71.33,5.56.51a1.85,1.85,0,0,1-.18,3.69Zm-61-.35a1.85,1.85,0,0,1-.16-3.7c1.85-.16,3.71-.31,5.56-.44a1.85,1.85,0,1,1,.26,3.69c-1.83.13-3.67.28-5.5.44Zm42.51-1h-.08c-1.83-.08-3.67-.14-5.51-.19a1.85,1.85,0,0,1-1.8-1.9,1.81,1.81,0,0,1,1.89-1.8c1.86,0,3.72.11,5.58.19a1.85,1.85,0,0,1-.08,3.7Zm-24.05-.14a1.85,1.85,0,0,1,0-3.7c1.86-.06,3.72-.1,5.58-.13h0a1.85,1.85,0,0,1,0,3.7c-1.84,0-3.68.07-5.52.13Z" transform="translate(-143.53 -103.13)"/><path class="cls-37" d="M1843.54,1113.49a1.88,1.88,0,0,1-.62-.11,1.85,1.85,0,0,1-1.13-2.36c.63-1.77,1.32-3.55,2.07-5.28a1.85,1.85,0,0,1,3.4,1.46c-.72,1.66-1.38,3.36-2,5A1.85,1.85,0,0,1,1843.54,1113.49Zm8-16.64a1.82,1.82,0,0,1-1-.28,1.84,1.84,0,0,1-.6-2.54c1-1.6,2-3.18,3.15-4.72a1.85,1.85,0,1,1,3,2.15c-1.05,1.47-2.06,3-3,4.52A1.86,1.86,0,0,1,1851.55,1096.85Zm11.34-14.58a1.86,1.86,0,0,1-1.34-3.13c1.3-1.36,2.66-2.69,4-4a1.85,1.85,0,0,1,2.5,2.73c-1.32,1.22-2.63,2.5-3.88,3.8A1.83,1.83,0,0,1,1862.89,1082.27Zm14.11-11.92a1.85,1.85,0,0,1-1-3.38c1.56-1.06,3.18-2.08,4.8-3a1.85,1.85,0,1,1,1.87,3.19c-1.55.91-3.1,1.88-4.6,2.89A1.81,1.81,0,0,1,1877,1070.35Zm21.19-8.26a1.83,1.83,0,0,1-1.71-1.15,3.29,3.29,0,0,0-1.18.19l-1.3.49a1.85,1.85,0,1,1-1.34-3.44l1.36-.52a6.81,6.81,0,0,1,2.34-.43c2,0,3.45,1.09,3.67,2.78a1.85,1.85,0,0,1-1.6,2.07Z" transform="translate(-143.53 -103.13)"/><path class="cls-37" d="M562.35,1216.81h-.14c-1.86-.14-3.75-.33-5.61-.56a1.83,1.83,0,0,1-1.61-2.06,1.85,1.85,0,0,1,2.06-1.61c1.8.22,3.63.4,5.43.54a1.85,1.85,0,0,1-.13,3.69ZM544.09,1214a1.58,1.58,0,0,1-.43,0c-1.81-.43-3.65-.92-5.45-1.44a1.85,1.85,0,0,1,1-3.55c1.75.5,3.52,1,5.28,1.39a1.85,1.85,0,0,1-.43,3.65Zm-17.58-5.71a1.76,1.76,0,0,1-.71-.14c-1.73-.72-3.46-1.48-5.15-2.28a1.85,1.85,0,1,1,1.57-3.35c1.64.77,3.32,1.52,5,2.21a1.85,1.85,0,0,1-.71,3.56Zm-16.46-8.41a1.82,1.82,0,0,1-1-.28c-1.6-1-3.19-2-4.72-3.08a1.85,1.85,0,0,1,2.09-3c1.49,1,3,2,4.57,3a1.85,1.85,0,0,1-1,3.43Zm-14.88-11a1.81,1.81,0,0,1-1.21-.46c-1.41-1.23-2.81-2.51-4.16-3.82a1.85,1.85,0,0,1,2.57-2.66c1.31,1.26,2.66,2.5,4,3.69a1.85,1.85,0,0,1-1.22,3.25Zm-12.85-13.28a1.84,1.84,0,0,1-1.43-.67c-1.19-1.45-2.36-3-3.48-4.45a1.85,1.85,0,1,1,3-2.21c1.08,1.46,2.21,2.91,3.37,4.31a1.85,1.85,0,0,1-1.43,3Zm-10.55-15.17a1.84,1.84,0,0,1-1.6-.92c-.94-1.62-1.86-3.28-2.73-4.94a1.85,1.85,0,0,1,3.29-1.71c.83,1.61,1.72,3.22,2.63,4.78a1.84,1.84,0,0,1-.66,2.53A1.77,1.77,0,0,1,471.77,1160.43Zm-8-16.65a1.84,1.84,0,0,1-1.73-1.19c-.68-1.74-1.32-3.52-1.91-5.3a1.85,1.85,0,1,1,3.51-1.17c.57,1.72,1.2,3.45,1.85,5.14a1.84,1.84,0,0,1-1.06,2.39A1.94,1.94,0,0,1,463.75,1143.78Zm-5.28-17.72a1.84,1.84,0,0,1-1.81-1.46c-.39-1.84-.74-3.71-1-5.55a1.85,1.85,0,0,1,3.66-.59c.29,1.79.62,3.59,1,5.37a1.85,1.85,0,0,1-1.43,2.19A1.69,1.69,0,0,1,458.47,1126.06Zm-1.72-18.32a1.72,1.72,0,0,1-.39,0,1.86,1.86,0,0,1-1.42-2.2,9.09,9.09,0,0,1,3.54-5.76,1.85,1.85,0,1,1,2.13,3,5.45,5.45,0,0,0-2.05,3.51A1.86,1.86,0,0,1,456.75,1107.74Z" transform="translate(-143.53 -103.13)"/><path class="cls-37" d="M1152.33,1365.83h0c-1.85,0-3.74,0-5.59-.08a1.85,1.85,0,0,1,.1-3.7c1.82,0,3.68.07,5.5.08a1.85,1.85,0,1,1,0,3.7Zm12.94-.36a1.85,1.85,0,0,1-.1-3.7c1.81-.1,3.66-.23,5.49-.38a1.85,1.85,0,0,1,.3,3.69c-1.86.15-3.73.28-5.58.39Zm-31.42-.46h-.16c-1.86-.16-3.73-.35-5.57-.56a1.85,1.85,0,1,1,.42-3.68c1.8.21,3.65.39,5.47.55a1.85,1.85,0,0,1-.16,3.7Zm49.83-1.35a1.85,1.85,0,0,1-.26-3.68c1.82-.25,3.65-.53,5.45-.83a1.85,1.85,0,0,1,.6,3.66c-1.83.3-3.69.58-5.53.84Zm-68.17-1.05-.32,0c-1.81-.31-3.66-.66-5.5-1a1.85,1.85,0,0,1,.73-3.63c1.8.36,3.62.7,5.41,1a1.85,1.85,0,0,1-.32,3.67Zm86.37-2.24a1.85,1.85,0,0,1-.4-3.65c1.79-.4,3.59-.82,5.36-1.26a1.85,1.85,0,1,1,.89,3.59c-1.8.44-3.63.88-5.45,1.28A1.81,1.81,0,0,1,1201.88,1360.37Zm-104.44-1.68a1.89,1.89,0,0,1-.47-.06c-1.79-.47-3.6-1-5.4-1.48a1.85,1.85,0,1,1,1-3.56c1.77.51,3.55,1,5.31,1.46a1.85,1.85,0,0,1-.46,3.64Zm122.32-3a1.87,1.87,0,0,1-1.77-1.31,1.85,1.85,0,0,1,1.23-2.31c1.75-.54,3.51-1.1,5.24-1.68a1.85,1.85,0,1,1,1.18,3.51c-1.76.58-3.56,1.16-5.33,1.7A1.76,1.76,0,0,1,1219.76,1355.65Zm-140-2.35a1.87,1.87,0,0,1-.61-.11c-1.75-.61-3.52-1.25-5.26-1.9a1.85,1.85,0,1,1,1.31-3.47c1.71.65,3.45,1.28,5.17,1.88a1.85,1.85,0,0,1-.61,3.6Zm157.48-3.77a1.85,1.85,0,0,1-.68-3.57c1.71-.68,3.42-1.38,5.1-2.09a1.85,1.85,0,0,1,1.44,3.41c-1.7.72-3.44,1.43-5.18,2.12A1.79,1.79,0,0,1,1237.22,1349.53Zm-174.69-3a1.8,1.8,0,0,1-.74-.16c-1.69-.75-3.4-1.53-5.09-2.32a1.85,1.85,0,1,1,1.57-3.35c1.67.78,3.35,1.55,5,2.28a1.85,1.85,0,0,1-.75,3.55Zm191.61-4.45a1.85,1.85,0,0,1-.81-3.51c1.64-.8,3.3-1.64,4.92-2.48a1.85,1.85,0,0,1,1.7,3.29c-1.65.85-3.33,1.7-5,2.51A1.86,1.86,0,0,1,1254.14,1342.06Zm-208.22-3.68a1.85,1.85,0,0,1-.88-.22c-1.64-.88-3.28-1.8-4.89-2.71a1.85,1.85,0,0,1,1.83-3.22c1.58.9,3.2,1.8,4.82,2.67a1.85,1.85,0,0,1-.88,3.48Zm224.51-5.09a1.85,1.85,0,0,1-.94-3.44c1.57-.94,3.16-1.9,4.71-2.86a1.85,1.85,0,1,1,2,3.14c-1.57,1-3.18,2-4.78,2.9A1.81,1.81,0,0,1,1270.43,1333.29ZM1030,1329a1.84,1.84,0,0,1-1-.29c-1.57-1-3.14-2-4.67-3.09a1.85,1.85,0,0,1,2.08-3.06c1.51,1,3,2,4.59,3a1.84,1.84,0,0,1-1,3.4Zm256-5.71a1.86,1.86,0,0,1-1.07-3.37c1.5-1.05,3-2.14,4.47-3.22a1.85,1.85,0,1,1,2.2,3c-1.49,1.1-3,2.21-4.54,3.28A1.81,1.81,0,0,1,1286,1323.26Zm-271.12-4.91a1.79,1.79,0,0,1-1.12-.38c-1.47-1.11-3-2.27-4.41-3.44a1.85,1.85,0,0,1,2.31-2.89c1.43,1.15,2.89,2.29,4.34,3.39a1.85,1.85,0,0,1-1.12,3.32Zm285.8-6.35a1.82,1.82,0,0,1-1.42-.66,1.85,1.85,0,0,1,.23-2.61c1.41-1.17,2.82-2.38,4.19-3.57a1.85,1.85,0,1,1,2.44,2.78c-1.39,1.22-2.82,2.44-4.26,3.63A1.81,1.81,0,0,1,1300.65,1312Zm-300.06-5.43a1.9,1.9,0,0,1-1.24-.47c-1.38-1.24-2.76-2.51-4.12-3.78a1.85,1.85,0,0,1,2.54-2.7c1.33,1.25,2.69,2.5,4.05,3.72a1.85,1.85,0,0,1-1.23,3.23Zm313.76-7a1.82,1.82,0,0,1-1.31-.55,1.86,1.86,0,0,1,0-2.62c1.3-1.28,2.61-2.59,3.87-3.91a1.85,1.85,0,0,1,2.67,2.57c-1.29,1.34-2.62,2.68-3.94,4A1.86,1.86,0,0,1,1314.35,1299.58Zm-327-5.89a1.85,1.85,0,0,1-1.34-.58c-1.28-1.35-2.56-2.73-3.81-4.1a1.85,1.85,0,0,1,2.75-2.49c1.22,1.36,2.48,2.72,3.74,4a1.86,1.86,0,0,1-1.34,3.13Zm-12.18-13.92a1.83,1.83,0,0,1-1.44-.7c-1.17-1.44-2.33-2.92-3.46-4.4a1.85,1.85,0,0,1,2.94-2.25c1.11,1.46,2.26,2.91,3.4,4.33a1.85,1.85,0,0,1-1.44,3Zm-11-14.89a1.85,1.85,0,0,1-1.53-.82c-1-1.55-2.08-3.12-3.07-4.68a1.85,1.85,0,1,1,3.12-2c1,1.53,2,3.08,3,4.6a1.86,1.86,0,0,1-.5,2.57A1.82,1.82,0,0,1,964.16,1264.88Z" transform="translate(-143.53 -103.13)"/><rect class="cls-14" x="1019.99" y="1303.59" width="904.89" height="53.23"/><rect class="cls-5" x="999.52" y="1291.31" width="20.47" height="72.34"/><path class="cls-3" d="M2053.4,1073.21c0-13.73-14.7-22.71-36.8-22.71H1183.9c-22.1,0-40.85,9-40.85,22.71v312.18c0,13.72,18.75,25.42,40.85,25.42h832.7c22.1,0,36.8-11.7,36.8-25.42Z" transform="translate(-143.53 -103.13)"/><path class="cls-14" d="M2031.56,1085.79c0-12.56-16.83-24.38-37.68-24.38H1208.34c-20.84,0-36.63,11.82-36.63,24.38v285.36c0,12.56,15.79,23.29,36.63,23.29h785.54c20.85,0,37.68-10.73,37.68-23.29Z" transform="translate(-143.53 -103.13)"/><path class="cls-41" d="M2275.2,1293.05,2234.14,1167c-1-3.18-4-4.54-7.34-4.54H2061.59V1460h223.33Z" transform="translate(-143.53 -103.13)"/><path class="cls-14" d="M2287.09,1417.09a15.37,15.37,0,0,0-8.44-2.18l-172.23,3.31-.88,48.87,172.72,4.23c6.3,0,12.62-3,12.62-7.3v-41.4C2290.88,1420.54,2289.3,1418.54,2287.09,1417.09Z" transform="translate(-143.53 -103.13)"/><path class="cls-42" d="M2243.15,1285.82l-24.82-98.25a7.9,7.9,0,0,0-7.47-6H2113.8a8.1,8.1,0,0,0-7.71,8.28l2.33,78.77a7.73,7.73,0,0,0,6.47,7.41l119.55,19.33a7.71,7.71,0,0,0,8.71-9.49Z" transform="translate(-143.53 -103.13)"/><path class="cls-43" d="M2238.19,1180.37l-1.27.21a7.7,7.7,0,0,0-6.18,9.61l27.05,100.6a7.71,7.71,0,0,0,8.87,5.58l8.54-1.61Z" transform="translate(-143.53 -103.13)"/><rect class="cls-14" x="1964.46" y="1197.13" width="45.04" height="17.74" rx="7"/><path class="cls-3" d="M2073.26,1074a11.36,11.36,0,0,0-7.86,2.5c-1.9,1.77-3.81,4.28-3.81,6.87v79h100.82S2157,1080.13,2073.26,1074Z" transform="translate(-143.53 -103.13)"/><circle class="cls-44" cx="2164.95" cy="1468.48" r="63.51" transform="translate(-353.28 267.97) rotate(-9.35)"/><path class="cls-14" d="M2218.3,1491.73a1.31,1.31,0,0,1-.54-.11,1.37,1.37,0,0,1-.72-1.79,54.89,54.89,0,0,0-77.34-69.25,1.37,1.37,0,0,1-1.86-.53,1.35,1.35,0,0,1,.52-1.85,57.62,57.62,0,0,1,81.19,72.7A1.35,1.35,0,0,1,2218.3,1491.73Z" transform="translate(-143.53 -103.13)"/><circle class="cls-14" cx="2164.95" cy="1468.48" r="29.13" transform="translate(-38.45 2977.92) rotate(-72.2)"/><circle class="cls-45" cx="1420.93" cy="1470.66" r="63.51" transform="translate(-259.99 19.08) rotate(-4.73)"/><path class="cls-14" d="M1474.28,1493.91a1.23,1.23,0,0,1-.53-.11,1.36,1.36,0,0,1-.73-1.78,54.89,54.89,0,0,0-77.34-69.26,1.37,1.37,0,0,1-1.34-2.38,57.62,57.62,0,0,1,81.19,72.7A1.35,1.35,0,0,1,1474.28,1493.91Z" transform="translate(-143.53 -103.13)"/><circle class="cls-14" cx="1420.93" cy="1470.66" r="29.13" transform="translate(-480.38 2412.56) rotate(-76.72)"/><circle class="cls-46" cx="1861.67" cy="1470.66" r="63.51" transform="translate(-294.97 112.12) rotate(-6.36)"/><path class="cls-14" d="M1915,1493.91a1.31,1.31,0,0,1-.54-.11,1.36,1.36,0,0,1-.72-1.78,54.89,54.89,0,0,0-77.34-69.26,1.37,1.37,0,0,1-1.34-2.38,57.62,57.62,0,0,1,81.19,72.7A1.35,1.35,0,0,1,1915,1493.91Z" transform="translate(-143.53 -103.13)"/><circle class="cls-14" cx="1861.67" cy="1470.66" r="29.13" transform="translate(-225.85 2727.52) rotate(-73.28)"/><circle class="cls-47" cx="1242.01" cy="1470.66" r="63.51" transform="translate(-270.59 14.36) rotate(-5.15)"/><path class="cls-14" d="M1295.36,1493.91a1.29,1.29,0,0,1-.53-.11,1.35,1.35,0,0,1-.72-1.78,54.9,54.9,0,0,0-77.35-69.26,1.36,1.36,0,0,1-1.33-2.38,57.62,57.62,0,0,1,81.19,72.7A1.36,1.36,0,0,1,1295.36,1493.91Z" transform="translate(-143.53 -103.13)"/><circle class="cls-14" cx="1242.01" cy="1470.66" r="29.13" transform="translate(-805.5 1650.88) rotate(-58.28)"/><rect class="cls-3" x="2106.4" y="1262.65" width="36.85" height="40.95" rx="7.72"/><path class="cls-48" d="M2265,1365.77v45h-5.37c-4.26,0-9.65-4.77-9.65-9v-25.4c0-4.26,5.39-10.61,9.65-10.61Z" transform="translate(-143.53 -103.13)"/><path class="cls-3" d="M2075.24,1365.77a1.36,1.36,0,0,1-1.37-1.36V1181.52a1.37,1.37,0,0,1,2.73,0v182.89A1.36,1.36,0,0,1,2075.24,1365.77Z" transform="translate(-143.53 -103.13)"/><path class="cls-49" d="M2143.93,1154.65a1.37,1.37,0,0,1-1.29-.92c-6.7-19.43-19.9-45-44.68-56.7-14.73-6.92-26.67-5.6-26.79-5.59a1.36,1.36,0,1,1-.32-2.71c.51-.06,12.84-1.42,28.27,5.83,14.15,6.66,33.64,22.17,46.1,58.28a1.36,1.36,0,0,1-.84,1.74A1.41,1.41,0,0,1,2143.93,1154.65Z" transform="translate(-143.53 -103.13)"/><path class="cls-50" d="M1961.82,1376.65a42.91,42.91,0,0,0,43.72-42.9V1142.82a45.75,45.75,0,0,0-45.24-45.77c-75.28-.82-230.55-.86-357.58,9.85a34.39,34.39,0,0,0-31.45,33l-11.88,184.59a43.71,43.71,0,0,0,42.85,45.27Z" transform="translate(-143.53 -103.13)"/><path class="cls-37" d="M1961.94,1163.48c.32,16.24-.16,42-.56,58.67a14.7,14.7,0,0,1-16.42,14.26l-62-7.26a14.71,14.71,0,0,1-12.84-16.79l7.61-50.73a14.71,14.71,0,0,1,14.54-12.53h54.91A14.69,14.69,0,0,1,1961.94,1163.48Z" transform="translate(-143.53 -103.13)"/><path class="cls-51" d="M1800,1259.62l-51.68,5.57a11.65,11.65,0,0,1-12.87-12.43l11.3-153.74c21.67-.68,43-1.19,63.65-1.54V1248A11.65,11.65,0,0,1,1800,1259.62Z" transform="translate(-143.53 -103.13)"/><path class="cls-37" d="M1778.85,1233a5.19,5.19,0,0,1-5.18,4.9h-.31a5.21,5.21,0,0,1-4.89-5.49l7.8-134.17,10.42-.24Z" transform="translate(-143.53 -103.13)"/><path class="cls-52" d="M1933.29,1211.91a1.75,1.75,0,0,0,1.73-1.63l2.68-42.26a1.74,1.74,0,0,0-1.62-1.84,1.69,1.69,0,0,0-1.84,1.62l-2.68,42.27a1.72,1.72,0,0,0,1.62,1.83Z" transform="translate(-143.53 -103.13)"/><path class="cls-53" d="M1927.77,1211.91a1.73,1.73,0,0,0,1.73-1.68l1.41-43.07a1.73,1.73,0,0,0-1.68-1.79,1.65,1.65,0,0,0-1.79,1.68l-1.4,43.07a1.74,1.74,0,0,0,1.67,1.79Z" transform="translate(-143.53 -103.13)"/><path class="cls-54" d="M1920.29,1211.9a1.73,1.73,0,0,1-1.65-1.81c.69-14.47,2-42.06,2-43a1.74,1.74,0,0,1,3.47,0c0,.72-1.69,36.07-2,43.15a1.73,1.73,0,0,1-1.73,1.66Zm.34-44.8h0Z" transform="translate(-143.53 -103.13)"/><path class="cls-55" d="M1908.82,1213.64a3.46,3.46,0,0,0,3.46-3.34c1.47-41.73,1.21-42.68,1-43.3a3.47,3.47,0,0,0-6.78,1.37c.11,2.51-.66,26.79-1.18,41.68a3.47,3.47,0,0,0,3.34,3.59Z" transform="translate(-143.53 -103.13)"/><path class="cls-56" d="M1901.31,1211.91a1.73,1.73,0,0,0,1.73-1.74v-42.26a1.73,1.73,0,0,0-3.46,0v42.26A1.73,1.73,0,0,0,1901.31,1211.91Z" transform="translate(-143.53 -103.13)"/><path class="cls-57" d="M1895.25,1211.91a1.74,1.74,0,0,0,1.73-1.7c.33-14.68,1.11-38.67,1.8-41.55a1.76,1.76,0,0,0-.06-1.8,1.73,1.73,0,0,0-2.4-.49c-1,.61-1.85,1.2-2.81,43.76a1.75,1.75,0,0,0,1.7,1.78Z" transform="translate(-143.53 -103.13)"/><path class="cls-58" d="M1942.61,1215.75a3.47,3.47,0,0,0,3.46-3.28l2.31-44.38a3.46,3.46,0,0,0-6.92-.36l-2.31,44.38a3.47,3.47,0,0,0,3.28,3.64Z" transform="translate(-143.53 -103.13)"/><path class="cls-3" d="M1502.58,1369.69h-19.22a5.29,5.29,0,1,1,0-10.57h19.56a5.29,5.29,0,0,1,0,10.57Zm-43.24,0h-19.22a5.29,5.29,0,1,1,0-10.57h19.22a5.29,5.29,0,0,1,0,10.57Zm-43.24,0h-19.22a5.29,5.29,0,1,1,0-10.57h19.22a5.29,5.29,0,0,1,0,10.57Zm-43.24,0h-19.22a5.29,5.29,0,1,1,0-10.57h19.22a5.29,5.29,0,0,1,0,10.57Zm-43.24,0H1310.4a5.29,5.29,0,1,1,0-10.57h19.22a5.29,5.29,0,0,1,0,10.57Zm-43.25,0h-19.21a5.29,5.29,0,1,1,0-10.57h19.21a5.29,5.29,0,1,1,0,10.57Zm-43.24,0h-19.21a5.29,5.29,0,1,1,0-10.57h19.21a5.29,5.29,0,1,1,0,10.57Zm-42.22-5.55a5.26,5.26,0,0,1-2.73-.77A44.23,44.23,0,0,1,1183,1348a5.29,5.29,0,1,1,9.11-5.37,33.66,33.66,0,0,0,11.55,11.69,5.29,5.29,0,0,1-2.74,9.81Zm324.45-1.86a5.28,5.28,0,0,1-3.12-9.55,33.62,33.62,0,0,0,10.51-12.64,5.29,5.29,0,0,1,9.54,4.56,44.25,44.25,0,0,1-13.82,16.62A5.29,5.29,0,0,1,1525.36,1362.28Zm-343.15-34.73a5.28,5.28,0,0,1-5.28-5.29V1303a5.29,5.29,0,0,1,10.57,0v19.22A5.29,5.29,0,0,1,1182.21,1327.55Zm359.07-3.35a5.29,5.29,0,0,1-5.29-5.29V1299.7a5.29,5.29,0,1,1,10.57,0v19.21A5.28,5.28,0,0,1,1541.28,1324.2Zm-359.07-39.89a5.28,5.28,0,0,1-5.28-5.29V1259.8a5.29,5.29,0,0,1,10.57,0V1279A5.29,5.29,0,0,1,1182.21,1284.31Zm359.07-3.35a5.29,5.29,0,0,1-5.29-5.29v-19.22a5.29,5.29,0,0,1,10.57,0v19.22A5.28,5.28,0,0,1,1541.28,1281Zm-359.07-39.89a5.28,5.28,0,0,1-5.28-5.29v-19.22a5.29,5.29,0,0,1,10.57,0v19.22A5.29,5.29,0,0,1,1182.21,1241.07Zm359.07-3.35a5.29,5.29,0,0,1-5.29-5.29v-19.22a5.29,5.29,0,0,1,10.57,0v19.22A5.28,5.28,0,0,1,1541.28,1237.72Zm-359.07-39.89a5.28,5.28,0,0,1-5.28-5.29v-19.22a5.29,5.29,0,0,1,10.57,0v19.22A5.29,5.29,0,0,1,1182.21,1197.83Zm359.07-3.35a5.29,5.29,0,0,1-5.29-5.29V1170a5.29,5.29,0,0,1,10.57,0v19.22A5.28,5.28,0,0,1,1541.28,1194.48Zm-359.07-39.89a5.28,5.28,0,0,1-5.28-5.29v-4.22a43.67,43.67,0,0,1,3.25-16.62,5.28,5.28,0,1,1,9.78,4,33.3,33.3,0,0,0-2.46,12.62v4.22A5.29,5.29,0,0,1,1182.21,1154.59Zm359.07-3.35A5.29,5.29,0,0,1,1536,1146v-.87a33.05,33.05,0,0,0-3.67-15.25,5.28,5.28,0,0,1,9.4-4.83,44.11,44.11,0,0,1,4.84,20.08v.87A5.28,5.28,0,0,1,1541.28,1151.24Zm-341-33.61a5.28,5.28,0,0,1-2.83-9.75,44,44,0,0,1,20.56-6.69,5.29,5.29,0,0,1,.7,10.55,33.45,33.45,0,0,0-15.61,5.07A5.19,5.19,0,0,1,1200.26,1117.63Zm320.06-1.66a5.3,5.3,0,0,1-2.42-.59,32.94,32.94,0,0,0-15.32-3.71h-.78a5.29,5.29,0,0,1,0-10.57h.78a44.13,44.13,0,0,1,20.18,4.89,5.29,5.29,0,0,1-2.44,10Zm-42.54-4.3h-19.22a5.29,5.29,0,0,1,0-10.57h19.22a5.29,5.29,0,1,1,0,10.57Zm-43.24,0h-19.22a5.29,5.29,0,0,1,0-10.57h19.22a5.29,5.29,0,1,1,0,10.57Zm-43.24,0h-19.22a5.29,5.29,0,0,1,0-10.57h19.22a5.29,5.29,0,0,1,0,10.57Zm-43.24,0h-19.22a5.29,5.29,0,0,1,0-10.57h19.22a5.29,5.29,0,0,1,0,10.57Zm-43.24,0H1285.6a5.29,5.29,0,0,1,0-10.57h19.22a5.29,5.29,0,0,1,0,10.57Zm-43.24,0h-19.22a5.29,5.29,0,0,1,0-10.57h19.22a5.29,5.29,0,0,1,0,10.57Z" transform="translate(-143.53 -103.13)"/><path class="cls-59" d="M1120.71,1010.39a2,2,0,0,0,2,1.16l24.35-2.43a106.68,106.68,0,0,0,25.34,23.47l-.54,24.45a2,2,0,0,0,1.31,1.93l27.53,10.18a2,2,0,0,0,2.26-.61l15.49-18.93a106.57,106.57,0,0,0,34.51-1.34l16.92,17.68a2,2,0,0,0,2.29.44l26.67-12.28a2,2,0,0,0,1.16-2l-2.43-24.35a106.68,106.68,0,0,0,23.47-25.34l24.45.54a2,2,0,0,0,1.93-1.31l10.18-27.54a2,2,0,0,0-.61-2.25l-18.92-15.49a106.84,106.84,0,0,0-1.35-34.51l17.68-16.92a2,2,0,0,0,.44-2.29L1342.6,876a2,2,0,0,0-2-1.16l-24.35,2.43a106.48,106.48,0,0,0-25.34-23.47l.54-24.45a2,2,0,0,0-1.31-1.93l-27.53-10.18a2,2,0,0,0-2.26.61l-15.49,18.92a106.57,106.57,0,0,0-34.51,1.35L1193.4,820.4a2,2,0,0,0-2.29-.44l-26.67,12.27a2,2,0,0,0-1.16,2l2.43,24.35A106.48,106.48,0,0,0,1142.24,884l-24.45-.54a2,2,0,0,0-1.93,1.31l-10.18,27.53a2,2,0,0,0,.61,2.26L1125.22,930a106.57,106.57,0,0,0,1.34,34.51l-17.68,16.92a2,2,0,0,0-.44,2.29Z" transform="translate(-143.53 -103.13)"/><path class="cls-60" d="M1223.36,975.15a33,33,0,1,1,4.77.87A34,34,0,0,1,1223.36,975.15Zm13.12-50.46a19.86,19.86,0,0,0-2.79-.5,18.89,18.89,0,1,0,2.79.5Z" transform="translate(-143.53 -103.13)"/><path class="cls-61" d="M1213.93,1013.7a71.61,71.61,0,0,1-7.09-2.22l-1.12-.42a74.33,74.33,0,0,1-12.84-6.49,2.33,2.33,0,0,1-1-2.54,2.23,2.23,0,0,1,.3-.67,2.31,2.31,0,0,1,3.2-.71,68.62,68.62,0,0,0,13.08,6.47h0A68.52,68.52,0,0,0,1295.53,969c.32-.78.63-1.56.92-2.36a68.51,68.51,0,0,0-128.51-47.51c-.8,2.19-1.5,4.4-2.08,6.65a68.49,68.49,0,0,0-1,29.71,2.28,2.28,0,0,1,0,1,2.32,2.32,0,0,1-4.53-.15,73,73,0,0,1,1.07-31.74c.62-2.39,1.36-4.76,2.22-7.09A73.16,73.16,0,0,1,1303,961.12c-.62,2.38-1.36,4.76-2.23,7.11A73.25,73.25,0,0,1,1213.93,1013.7Z" transform="translate(-143.53 -103.13)"/><path class="cls-62" d="M1392.14,1164.1a1,1,0,0,0,1-.64l4.38-11.44a53.47,53.47,0,0,0,16.18-6.07l10.82,5.72a1,1,0,0,0,1.16-.16l10.73-10a1,1,0,0,0,.23-1.15l-5-11.17a53.62,53.62,0,0,0,7.13-15.74l11.71-3.61a1,1,0,0,0,.71-.92l.49-14.69a1,1,0,0,0-.65-1l-11.44-4.38a53.57,53.57,0,0,0-6.07-16.18l5.72-10.82a1,1,0,0,0-.15-1.15L1429,1050a1,1,0,0,0-1.14-.23l-11.18,5a53.28,53.28,0,0,0-15.74-7.14l-3.6-11.7a1,1,0,0,0-.93-.71l-14.68-.49a1,1,0,0,0-1,.64l-4.37,11.44a53.47,53.47,0,0,0-16.18,6.07l-10.82-5.72a1,1,0,0,0-1.16.15l-10.73,10a1,1,0,0,0-.23,1.15l5,11.17a53.4,53.4,0,0,0-7.14,15.74l-11.7,3.61a1,1,0,0,0-.71.92l-.49,14.69a1,1,0,0,0,.65,1l11.44,4.38a53,53,0,0,0,6.07,16.18l-5.73,10.82a1,1,0,0,0,.16,1.15l10,10.73a1,1,0,0,0,1.15.23l11.17-5a53.33,53.33,0,0,0,15.75,7.14l3.6,11.7a1,1,0,0,0,.93.71Z" transform="translate(-143.53 -103.13)"/><path class="cls-63" d="M1399.4,1110.28a16.58,16.58,0,1,1,1.45-1.94A16.56,16.56,0,0,1,1399.4,1110.28Zm-19.64-17.19a10.54,10.54,0,0,0-.85,1.14,9.41,9.41,0,1,0,.85-1.14Z" transform="translate(-143.53 -103.13)"/><path class="cls-64" d="M1414.53,1123.14a36.27,36.27,0,0,1-2.59,2.68l-.44.4a36.52,36.52,0,0,1-5.78,4.29,1.16,1.16,0,0,1-1.36-.12,1,1,0,0,1-.23-.28,1.16,1.16,0,0,1,.4-1.59,34.49,34.49,0,0,0,5.82-4.4h0a34.3,34.3,0,0,0,2.47-47.52c-.28-.31-.56-.63-.85-.94a31.74,31.74,0,0,0-2.51-2.42,34.28,34.28,0,0,0-47.56,49.26,33.57,33.57,0,0,0,2.5,2.42,34.15,34.15,0,0,0,13.07,7.12,1.22,1.22,0,0,1,.45.24,1.17,1.17,0,0,1-1.09,2,36.62,36.62,0,0,1-14-7.6c-.93-.82-1.82-1.68-2.67-2.59a36.61,36.61,0,0,1,50.79-52.61c.92.81,1.82,1.68,2.68,2.59A36.67,36.67,0,0,1,1414.53,1123.14Z" transform="translate(-143.53 -103.13)"/><path class="cls-65" d="M1290,806.6a1.29,1.29,0,0,0,1.29.74l15.4-1.54a67.35,67.35,0,0,0,16,14.85l-.34,15.46a1.27,1.27,0,0,0,.83,1.22l17.42,6.44a1.26,1.26,0,0,0,1.42-.39l9.8-12a67.56,67.56,0,0,0,21.83-.85l10.7,11.18a1.27,1.27,0,0,0,1.45.27l16.87-7.76a1.26,1.26,0,0,0,.73-1.28l-1.53-15.4a67.41,67.41,0,0,0,14.85-16l15.46.34a1.28,1.28,0,0,0,1.22-.83l6.44-17.41a1.28,1.28,0,0,0-.39-1.43l-12-9.8a67.3,67.3,0,0,0-.85-21.83l11.19-10.7a1.26,1.26,0,0,0,.27-1.45l-7.76-16.86a1.27,1.27,0,0,0-1.28-.74l-15.4,1.54a67.21,67.21,0,0,0-16-14.85l.34-15.46a1.26,1.26,0,0,0-.83-1.22l-17.41-6.44a1.28,1.28,0,0,0-1.43.39l-9.8,12a67.57,67.57,0,0,0-21.83.85L1336,686.43a1.27,1.27,0,0,0-1.45-.27l-16.87,7.76a1.27,1.27,0,0,0-.73,1.28l1.53,15.4a67.37,67.37,0,0,0-14.84,16l-15.47-.34a1.26,1.26,0,0,0-1.22.83l-6.43,17.41a1.28,1.28,0,0,0,.38,1.43l12,9.8a67.58,67.58,0,0,0,.85,21.83l-11.18,10.7a1.28,1.28,0,0,0-.28,1.45Z" transform="translate(-143.53 -103.13)"/><path class="cls-66" d="M1354.92,784.32a20.9,20.9,0,1,1,3,.55A23,23,0,0,1,1354.92,784.32Zm8.3-31.92a13.12,13.12,0,0,0-1.77-.32,12,12,0,1,0,1.77.32Z" transform="translate(-143.53 -103.13)"/><path class="cls-67" d="M1349,808.7a46.49,46.49,0,0,1-4.49-1.4l-.71-.27a46.52,46.52,0,0,1-8.12-4.11,1.45,1.45,0,0,1-.63-1.6,1.12,1.12,0,0,1,.18-.42,1.47,1.47,0,0,1,2-.46,43,43,0,0,0,8.27,4.1h0a43.35,43.35,0,0,0,55.08-24.13c.2-.49.4-1,.58-1.49a41.71,41.71,0,0,0,1.32-4.21,43.33,43.33,0,0,0-82.6-25.84q-.76,2.07-1.32,4.2a43.38,43.38,0,0,0-.64,18.8,1.38,1.38,0,0,1,0,.64,1.47,1.47,0,0,1-2.87-.1,46.09,46.09,0,0,1,.69-20.07c.39-1.51.86-3,1.4-4.49A46.27,46.27,0,1,1,1349,808.7Z" transform="translate(-143.53 -103.13)"/><rect class="cls-68" x="88.04" y="1304.11" width="563.26" height="51.68"/><rect class="cls-69" x="75.64" y="1304.11" width="16.54" height="64.08"/><path class="cls-70" d="M788.63,1111.54c0-12.32-13-22.63-27.12-22.63H230c-14.11,0-25.29,10.31-25.29,22.63v280.12c0,12.31,11.18,22.81,25.29,22.81H761.51c14.11,0,27.12-10.5,27.12-22.81Z" transform="translate(-143.53 -103.13)"/><path class="cls-71" d="M770,1122.83c0-11.27-9.71-20.48-23-20.48H245.59c-13.3,0-26.42,9.21-26.42,20.48v256.05c0,11.27,13.12,22.15,26.42,22.15H747c13.31,0,23-10.88,23-22.15Z" transform="translate(-143.53 -103.13)"/><path class="cls-72" d="M973.25,1315.64l-34.92-107.7a6.36,6.36,0,0,0-6.24-4.31H791.73v255.28H981.52Z" transform="translate(-143.53 -103.13)"/><path class="cls-73" d="M982.57,1419.79a11.8,11.8,0,0,0-6.79-1.85l-146.26,2.81-.65,41.56L975,1465.9c5.35,0,10-2.58,10-6.2v-35.21A5.21,5.21,0,0,0,982.57,1419.79Z" transform="translate(-143.53 -103.13)"/><path class="cls-74" d="M946,1308.16l-21.1-83.72a6.9,6.9,0,0,0-6.36-5.31H836a7.2,7.2,0,0,0-6.56,7.29l2,67a6.61,6.61,0,0,0,5.51,6.32l101.67,16.45a6.55,6.55,0,0,0,7.4-8.06Z" transform="translate(-143.53 -103.13)"/><path class="cls-75" d="M941.77,1218.48l-1.07.18a6.56,6.56,0,0,0-5.26,8.17l23,85.55a6.56,6.56,0,0,0,7.54,4.75l7.27-1.37Z" transform="translate(-143.53 -103.13)"/><rect class="cls-76" x="687.48" y="1218.32" width="38.24" height="15.5" rx="6.2"/><path class="cls-77" d="M801.52,1128.25a9.42,9.42,0,0,0-6.62,2c-1.61,1.51-3.17,3.53-3.17,5.74v67.62h85.6S872.73,1133.45,801.52,1128.25Z" transform="translate(-143.53 -103.13)"/><circle class="cls-78" cx="879.49" cy="1463.49" r="66.51" transform="matrix(0.99, -0.16, 0.16, 0.99, -366.6, 56.65)"/><circle class="cls-79" cx="879.49" cy="1463.49" r="54.01" transform="translate(-232.77 -45.65) rotate(-3.56)"/><path class="cls-80" d="M924.86,1483.14a1.19,1.19,0,0,1-.41-.08,1,1,0,0,1-.54-1.36,46.81,46.81,0,0,0-66-59.06,1,1,0,0,1-1-1.8,48.88,48.88,0,0,1,68.87,61.67A1,1,0,0,1,924.86,1483.14Z" transform="translate(-143.53 -103.13)"/><circle class="cls-81" cx="735.96" cy="1360.36" r="24.77"/><circle class="cls-82" cx="469.43" cy="1463.49" r="66.51" transform="translate(-318.83 -34.81) rotate(-7.02)"/><circle class="cls-83" cx="469.43" cy="1463.49" r="54.01" transform="translate(-246.1 -66.17) rotate(-4.07)"/><path class="cls-84" d="M514.8,1483.14a1.19,1.19,0,0,1-.41-.08,1,1,0,0,1-.55-1.36,46.81,46.81,0,0,0-43.11-65,46.91,46.91,0,0,0-22.84,5.94,1,1,0,0,1-1.4-.39,1,1,0,0,1,.39-1.41,48.88,48.88,0,0,1,68.87,61.67A1,1,0,0,1,514.8,1483.14Z" transform="translate(-143.53 -103.13)"/><circle class="cls-85" cx="325.9" cy="1360.36" r="24.77"/><circle class="cls-86" cx="317.28" cy="1463.49" r="66.51" transform="translate(-263.16 -71.97) rotate(-4.73)"/><circle class="cls-87" cx="317.28" cy="1463.49" r="54.01" transform="translate(-233.86 -80.58) rotate(-3.56)"/><path class="cls-88" d="M362.65,1483.14a1.19,1.19,0,0,1-.41-.08,1,1,0,0,1-.54-1.36,46.81,46.81,0,0,0-66-59.06,1,1,0,0,1-1-1.8,48.88,48.88,0,0,1,68.87,61.67A1,1,0,0,1,362.65,1483.14Z" transform="translate(-143.53 -103.13)"/><circle class="cls-89" cx="173.75" cy="1360.36" r="24.77"/><rect class="cls-90" x="808.4" y="1277.23" width="29.97" height="36.17" rx="6.57"/><path class="cls-48" d="M965.36,1380.36v34.11H960c-3.62,0-8-4.08-8-7.7v-21.6c0-3.62,4.42-4.81,8-4.81Z" transform="translate(-143.53 -103.13)"/><path class="cls-91" d="M803.1,1372.09a1,1,0,0,1-1-1V1219.13a1,1,0,0,1,2.07,0v151.93A1,1,0,0,1,803.1,1372.09Z" transform="translate(-143.53 -103.13)"/><path class="cls-37" d="M861.62,1196.49a1,1,0,0,1-1-.7c-5.71-16.55-16.95-38.37-38.07-48.29-12.55-5.91-22.75-4.78-22.85-4.77a1,1,0,1,1-.24-2c.44,0,10.88-1.21,24,5,21.77,10.23,33.3,32.56,39.14,49.48a1,1,0,0,1-.64,1.32A1,1,0,0,1,861.62,1196.49Z" transform="translate(-143.53 -103.13)"/><path class="cls-92" d="M470.41,1390.93c14.46.27,26.33-11,26.33-25V1254.83c0-14.6-12.14-26.48-27.25-26.64-45.33-.48-138.84-.5-215.35,5.73a20.33,20.33,0,0,0-18.94,19.24l-7.15,107.44c-.53,14.21,11.1,26.09,25.81,26.36Z" transform="translate(-143.53 -103.13)"/><path class="cls-37" d="M470.48,1266.85c.19,9.46-.1,24.46-.34,34.16a8.76,8.76,0,0,1-9.88,8.3l-37.32-4.23a8.62,8.62,0,0,1-7.73-9.78l4.58-29.52a8.77,8.77,0,0,1,8.77-7.3h33.06A8.71,8.71,0,0,1,470.48,1266.85Z" transform="translate(-143.53 -103.13)"/><path class="cls-51" d="M373,1322.81l-31.12,3.25a6.91,6.91,0,0,1-7.75-7.24l6.8-89.49c13.05-.4,25.92-.69,38.34-.89v87.63A6.86,6.86,0,0,1,373,1322.81Z" transform="translate(-143.53 -103.13)"/><path class="cls-37" d="M360.22,1307.3a3.1,3.1,0,0,1-3.12,2.86h-.19A3.07,3.07,0,0,1,354,1307l4.69-78.1,6.28-.14Z" transform="translate(-143.53 -103.13)"/><path class="cls-93" d="M453.23,1295a1,1,0,0,0,1-.94l1.61-24.6a1,1,0,0,0-1-1.07,1,1,0,0,0-1.1.94l-1.62,24.6a1,1,0,0,0,1,1.07Z" transform="translate(-143.53 -103.13)"/><path class="cls-94" d="M449.9,1295a1,1,0,0,0,1.05-1l.84-25.07a1,1,0,0,0-1-1,1,1,0,0,0-1.07,1l-.85,25.07a1,1,0,0,0,1,1Z" transform="translate(-143.53 -103.13)"/><path class="cls-95" d="M445.4,1295a1,1,0,0,1-1-1c.41-8.43,1.2-24.49,1.21-25a1,1,0,0,1,1-1,1,1,0,0,1,1,1c0,.42-1,21-1.22,25.12a1,1,0,0,1-1,1Zm.2-26.08h0Z" transform="translate(-143.53 -103.13)"/><path class="cls-96" d="M438.49,1296.05a2,2,0,0,0,2.08-2c.89-24.29.73-24.83.63-25.2a2.09,2.09,0,0,0-2.56-1.41,2,2,0,0,0-1.52,2.21c.06,1.46-.4,15.59-.72,24.26a2.05,2.05,0,0,0,2,2.09Z" transform="translate(-143.53 -103.13)"/><path class="cls-97" d="M434,1295a1,1,0,0,0,1-1v-24.6a1,1,0,0,0-2.09,0V1294A1,1,0,0,0,434,1295Z" transform="translate(-143.53 -103.13)"/><path class="cls-98" d="M430.32,1295a1,1,0,0,0,1-1c.2-8.55.67-22.51,1.08-24.19a1,1,0,0,0,0-1,1.06,1.06,0,0,0-1.44-.29c-.57.36-1.11.7-1.69,25.48a1,1,0,0,0,1,1Z" transform="translate(-143.53 -103.13)"/><path class="cls-99" d="M458.84,1297.28a2.05,2.05,0,0,0,2.08-1.91l1.4-25.83a2.05,2.05,0,0,0-2-2.12,2.08,2.08,0,0,0-2.19,1.91l-1.4,25.83a2.05,2.05,0,0,0,2,2.12Z" transform="translate(-143.53 -103.13)"/><path class="cls-100" d="M736.18,1400.58c14.1.26,25.67-10.83,25.67-24.61V1266.44c0-14.39-11.84-26.1-26.56-26.26-44.18-.47-135.29-.49-209.85,5.65a19.93,19.93,0,0,0-18.45,19l-7,105.89c-.52,14,10.81,25.7,25.14,26Z" transform="translate(-143.53 -103.13)"/><path class="cls-37" d="M736.26,1278.29c.18,9.32-.1,24.11-.33,33.66a8.57,8.57,0,0,1-9.64,8.18L689.94,1316a8.49,8.49,0,0,1-7.54-9.64l4.46-29.1a8.59,8.59,0,0,1,8.54-7.19h32.23A8.54,8.54,0,0,1,736.26,1278.29Z" transform="translate(-143.53 -103.13)"/><path class="cls-51" d="M641.24,1333.44l-30.33,3.2a6.76,6.76,0,0,1-7.55-7.13l6.63-88.19c12.71-.4,25.25-.69,37.35-.89v86.37A6.73,6.73,0,0,1,641.24,1333.44Z" transform="translate(-143.53 -103.13)"/><path class="cls-37" d="M628.81,1318.16a3,3,0,0,1-3,2.81h-.18a3,3,0,0,1-2.87-3.15l4.57-77,6.12-.14Z" transform="translate(-143.53 -103.13)"/><path class="cls-101" d="M719.44,1306.07a1,1,0,0,0,1-.93L722,1280.9a1,1,0,0,0-2-.13L718.43,1305a1,1,0,0,0,1,1Z" transform="translate(-143.53 -103.13)"/><path class="cls-102" d="M716.2,1306.07a1,1,0,0,0,1-1l.83-24.71a1,1,0,0,0-1-1,1,1,0,0,0-1,1l-.82,24.71a1,1,0,0,0,1,1Z" transform="translate(-143.53 -103.13)"/><path class="cls-103" d="M711.82,1306.07a1,1,0,0,1-1-1c.4-8.3,1.17-24.13,1.18-24.67a1,1,0,0,1,2,0c0,.41-1,20.69-1.19,24.76a1,1,0,0,1-1,.94Zm.19-25.7h0Z" transform="translate(-143.53 -103.13)"/><path class="cls-104" d="M705.08,1307.07a2,2,0,0,0,2-1.92c.86-23.94.71-24.48.61-24.84a2,2,0,0,0-2.49-1.39,2,2,0,0,0-1.48,2.18c.06,1.44-.39,15.37-.7,23.91a2,2,0,0,0,2,2.06Z" transform="translate(-143.53 -103.13)"/><path class="cls-105" d="M700.68,1306.07a1,1,0,0,0,1-1v-24.24a1,1,0,0,0-2,0v24.24A1,1,0,0,0,700.68,1306.07Z" transform="translate(-143.53 -103.13)"/><path class="cls-106" d="M697.12,1306.07a1,1,0,0,0,1-1c.2-8.42.65-22.18,1.06-23.84a1,1,0,0,0,0-1,1,1,0,0,0-1.4-.28c-.56.35-1.09.69-1.65,25.11a1,1,0,0,0,1,1Z" transform="translate(-143.53 -103.13)"/><path class="cls-107" d="M724.91,1308.28a2,2,0,0,0,2-1.88l1.36-25.46a2,2,0,0,0-1.93-2.09,2,2,0,0,0-2.13,1.88l-1.36,25.46a2,2,0,0,0,1.93,2.09Z" transform="translate(-143.53 -103.13)"/><path class="cls-108" d="M428.43,1207.16v-80.74a19.34,19.34,0,0,0-19.13-19.36c-31.84-.35-97.51-.37-151.24,4.16a14.55,14.55,0,0,0-13.3,14l-5,78.07a18.49,18.49,0,0,0,18.12,19.15l152.08,2.89A18.15,18.15,0,0,0,428.43,1207.16Z" transform="translate(-143.53 -103.13)"/><path class="cls-37" d="M410,1135.15c.14,6.87-.07,17.77-.23,24.82a6.23,6.23,0,0,1-6.95,6l-26.2-3.07a6.23,6.23,0,0,1-5.43-7.1l3.22-21.46a6.21,6.21,0,0,1,6.15-5.3h23.22A6.21,6.21,0,0,1,410,1135.15Z" transform="translate(-143.53 -103.13)"/><path class="cls-51" d="M341.52,1175.81l-21.86,2.36a4.92,4.92,0,0,1-5.44-5.26l4.77-65c9.17-.29,18.2-.5,26.92-.65v63.67A4.92,4.92,0,0,1,341.52,1175.81Z" transform="translate(-143.53 -103.13)"/><path class="cls-37" d="M332.56,1164.54a2.21,2.21,0,0,1-2.2,2.08h-.12a2.19,2.19,0,0,1-2.07-2.32l3.29-56.75,4.41-.1Z" transform="translate(-143.53 -103.13)"/><path class="cls-109" d="M397.87,1155.63a.73.73,0,0,0,.74-.68l1.13-17.88a.73.73,0,0,0-.69-.77.7.7,0,0,0-.77.68l-1.14,17.88a.73.73,0,0,0,.69.77Z" transform="translate(-143.53 -103.13)"/><path class="cls-110" d="M395.54,1155.63a.73.73,0,0,0,.73-.7l.6-18.22a.74.74,0,0,0-.71-.76.7.7,0,0,0-.76.71l-.59,18.22a.73.73,0,0,0,.71.75Z" transform="translate(-143.53 -103.13)"/><path class="cls-111" d="M392.38,1155.63a.73.73,0,0,1-.7-.76c.29-6.12.84-17.79.85-18.19a.74.74,0,0,1,1.47,0c0,.3-.71,15.25-.86,18.25a.73.73,0,0,1-.73.69Zm.14-18.94h0Z" transform="translate(-143.53 -103.13)"/><path class="cls-112" d="M387.53,1156.37A1.47,1.47,0,0,0,389,1155c.62-17.65.51-18,.44-18.31a1.47,1.47,0,0,0-2.87.58c.05,1.06-.28,11.33-.5,17.63a1.46,1.46,0,0,0,1.41,1.52Z" transform="translate(-143.53 -103.13)"/><path class="cls-113" d="M384.35,1155.63a.72.72,0,0,0,.73-.73V1137a.73.73,0,1,0-1.46,0v17.87A.73.73,0,0,0,384.35,1155.63Z" transform="translate(-143.53 -103.13)"/><path class="cls-114" d="M381.79,1155.63a.73.73,0,0,0,.73-.71c.14-6.21.47-16.36.76-17.58a.73.73,0,0,0-1-1c-.4.27-.78.51-1.19,18.51a.73.73,0,0,0,.72.75Z" transform="translate(-143.53 -103.13)"/><path class="cls-115" d="M401.82,1157.26a1.47,1.47,0,0,0,1.46-1.39l1-18.77a1.47,1.47,0,0,0-2.93-.15l-1,18.77a1.47,1.47,0,0,0,1.39,1.54Z" transform="translate(-143.53 -103.13)"/><path class="cls-116" d="M592.59,1209.57v-80.75c0-10.61-7.26-19.24-16.29-19.35-27.09-.35-83-.37-128.7,4.16-6.24.62-11.09,6.63-11.32,14L432,1205.68c-.32,10.32,6.63,19,15.42,19.15l129.42,2.89C585.49,1227.91,592.59,1219.73,592.59,1209.57Z" transform="translate(-143.53 -103.13)"/><path class="cls-37" d="M576.89,1137.56c.12,6.87,0,17.77-.2,24.82-.07,3.66-2.81,6.45-5.91,6l-22.29-3.07c-3-.41-5.07-3.63-4.62-7.11l2.73-21.45c.39-3,2.62-5.3,5.24-5.3H571.6C574.48,1131.48,576.84,1134.18,576.89,1137.56Z" transform="translate(-143.53 -103.13)"/><path class="cls-51" d="M518.62,1178.22l-18.6,2.36c-2.6.33-4.82-2.19-4.63-5.26l4.06-65c7.8-.29,15.49-.5,22.91-.65v63.67C522.36,1175.84,520.75,1178,518.62,1178.22Z" transform="translate(-143.53 -103.13)"/><path class="cls-37" d="M511,1167a2,2,0,0,1-1.87,2.07H509a2.1,2.1,0,0,1-1.76-2.32l2.81-56.75,3.75-.1Z" transform="translate(-143.53 -103.13)"/><path class="cls-117" d="M566.58,1158a.67.67,0,0,0,.62-.68l1-17.88a.71.71,0,0,0-.58-.78.67.67,0,0,0-.67.69l-1,17.87a.7.7,0,0,0,.58.78Z" transform="translate(-143.53 -103.13)"/><path class="cls-118" d="M564.6,1158a.68.68,0,0,0,.62-.71l.51-18.21a.69.69,0,0,0-.61-.76c-.39,0-.63.31-.64.71l-.51,18.22a.69.69,0,0,0,.61.75Z" transform="translate(-143.53 -103.13)"/><path class="cls-119" d="M561.9,1158a.69.69,0,0,1-.59-.76c.25-6.12.72-17.8.73-18.19a.63.63,0,1,1,1.24,0c0,.31-.6,15.26-.72,18.25a.68.68,0,0,1-.63.7Zm.12-19h0Z" transform="translate(-143.53 -103.13)"/><path class="cls-120" d="M557.78,1158.78a1.37,1.37,0,0,0,1.24-1.42c.53-17.65.44-18,.37-18.31a1.24,1.24,0,0,0-1.53-1,1.47,1.47,0,0,0-.9,1.61c0,1.06-.24,11.33-.43,17.63a1.37,1.37,0,0,0,1.2,1.51Z" transform="translate(-143.53 -103.13)"/><path class="cls-121" d="M555.07,1158a.69.69,0,0,0,.63-.73v-17.87a.63.63,0,1,0-1.25,0v17.87A.69.69,0,0,0,555.07,1158Z" transform="translate(-143.53 -103.13)"/><path class="cls-122" d="M552.89,1158a.67.67,0,0,0,.62-.71c.12-6.21.4-16.36.65-17.58a.85.85,0,0,0,0-.76.57.57,0,0,0-.86-.21c-.34.26-.67.51-1,18.51a.68.68,0,0,0,.61.75Z" transform="translate(-143.53 -103.13)"/><path class="cls-123" d="M569.94,1159.67a1.35,1.35,0,0,0,1.24-1.39l.83-18.77a1.39,1.39,0,0,0-1.18-1.54,1.36,1.36,0,0,0-1.31,1.39l-.83,18.77a1.4,1.4,0,0,0,1.18,1.54Z" transform="translate(-143.53 -103.13)"/><path class="cls-124" d="M756.43,1214.56v-80.75c0-10.61-7.11-19.25-16-19.36-26.57-.35-81.35-.37-126.17,4.16-6.12.62-10.88,6.63-11.1,14L599,1210.66c-.31,10.33,6.5,18.95,15.12,19.15L741,1232.7C749.47,1232.89,756.43,1224.71,756.43,1214.56Z" transform="translate(-143.53 -103.13)"/><path class="cls-37" d="M741,1142.54c.12,6.87,0,17.78-.19,24.82-.07,3.66-2.76,6.46-5.8,6l-21.86-3.07c-2.91-.41-5-3.63-4.52-7.1l2.68-21.46c.38-3,2.56-5.3,5.13-5.3h19.37C738.68,1136.46,741,1139.16,741,1142.54Z" transform="translate(-143.53 -103.13)"/><path class="cls-51" d="M683.92,1183.2l-18.24,2.36c-2.55.33-4.73-2.19-4.54-5.26l4-65c7.64-.29,15.18-.5,22.46-.65v63.67C687.59,1180.82,686,1182.93,683.92,1183.2Z" transform="translate(-143.53 -103.13)"/><path class="cls-37" d="M676.44,1171.93a2,2,0,0,1-1.83,2.08h-.1a2.1,2.1,0,0,1-1.73-2.32l2.75-56.75,3.68-.1Z" transform="translate(-143.53 -103.13)"/><path class="cls-125" d="M730.9,1163h0a.67.67,0,0,0,.62-.68l.94-17.88a.69.69,0,0,0-.57-.77c-.36,0-.63.28-.65.68l-.95,17.88A.69.69,0,0,0,730.9,1163Z" transform="translate(-143.53 -103.13)"/><path class="cls-126" d="M729,1163a.67.67,0,0,0,.61-.7l.5-18.22a.7.7,0,0,0-.6-.76c-.39,0-.62.31-.63.71l-.49,18.22a.68.68,0,0,0,.59.75Z" transform="translate(-143.53 -103.13)"/><path class="cls-127" d="M726.35,1163a.68.68,0,0,1-.58-.76c.24-6.12.7-17.79.71-18.19a.62.62,0,1,1,1.22,0c0,.3-.59,15.25-.71,18.25a.67.67,0,0,1-.61.69Zm.12-18.94h0Z" transform="translate(-143.53 -103.13)"/><path class="cls-128" d="M722.26,1163.76h0a1.35,1.35,0,0,0,1.22-1.42c.52-17.65.43-18,.37-18.31a1.22,1.22,0,0,0-1.5-1,1.5,1.5,0,0,0-.89,1.61c0,1.06-.24,11.33-.42,17.63A1.39,1.39,0,0,0,722.26,1163.76Z" transform="translate(-143.53 -103.13)"/><path class="cls-129" d="M719.65,1163a.67.67,0,0,0,.61-.73v-17.87a.62.62,0,1,0-1.22,0v17.87A.67.67,0,0,0,719.65,1163Z" transform="translate(-143.53 -103.13)"/><path class="cls-130" d="M717.51,1163a.67.67,0,0,0,.61-.71c.12-6.21.39-16.36.64-17.58a.85.85,0,0,0,0-.76.56.56,0,0,0-.85-.21c-.33.27-.65.51-1,18.51a.68.68,0,0,0,.6.75Z" transform="translate(-143.53 -103.13)"/><path class="cls-131" d="M734.16,1164.65h.06a1.35,1.35,0,0,0,1.23-1.39l.81-18.77a1.39,1.39,0,0,0-1.16-1.54,1.34,1.34,0,0,0-1.28,1.39l-.82,18.77A1.4,1.4,0,0,0,734.16,1164.65Z" transform="translate(-143.53 -103.13)"/></g></g></svg>