<svg id="illustration" xmlns="http://www.w3.org/2000/svg" viewBox="0 0 198.43 129.77"><defs><style>.cls-1{fill:#f8ef67;}.cls-2{fill:#f9ab92;}.cls-3{fill:#aee0f0;}.cls-4{fill:#c4b73d;}.cls-5{fill:#b7725f;}.cls-6{fill:#71c1d3;}.cls-7{fill:#fff;}.cls-8{fill:#98dbf6;}.cls-9{fill:#ef3e23;}.cls-10{fill:#010101;}</style></defs><path class="cls-1" d="M70.43,33.79C68.32,21.44,79.26,12.7,90,9.74c9.77-2.71,29.89-4.8,31.66,9.46.39,3.16,5.4,3.2,5,0-2.18-17.57-23-17.94-36.44-14.68C76,8,62.9,19.28,65.61,35.12c.54,3.17,5.36,1.83,4.82-1.33Z"/><path class="cls-1" d="M68.51,36.18a53.74,53.74,0,0,0,59.57-14c2.15-2.38-1.37-5.93-3.54-3.54a48.89,48.89,0,0,1-54.7,12.77c-3-1.17-4.3,3.66-1.33,4.82Z"/><path class="cls-1" d="M66.6,38c12.84,5.35,26.29,1.59,38.93-2.43,3-1,1.75-5.81-1.33-4.83C92.36,34.56,80,38.24,67.93,33.21,65,32,63.67,36.81,66.6,38Z"/><path class="cls-1" d="M75,32.19c-.13-10.5,10.93-15.93,19.56-18.62s18.82-2,23.23,6.85c1.43,2.89,5.74.36,4.32-2.52C116.74,7.06,103.77,5.48,93.24,8.75,82.32,12.14,69.85,19.25,70,32.19c0,3.21,5,3.22,5,0Z"/><path class="cls-1" d="M73.76,27.63A35,35,0,0,1,94.28,12.92c6.88-1.8,21-2.67,23.48,6.23.87,3.09,5.69,1.78,4.82-1.33-3-10.51-16.34-11.9-25.45-10.56A40.12,40.12,0,0,0,69.45,25.1c-1.77,2.7,2.56,5.21,4.31,2.53Z"/><path class="cls-1" d="M117.89,19A42,42,0,0,1,75,30c-3.08-1-4.39,3.86-1.33,4.82a47.09,47.09,0,0,0,47.72-12.24c2.23-2.32-1.3-5.86-3.54-3.54Z"/><path class="cls-1" d="M77.9,33.21C84.3,19,100.56,12.88,114.6,20.09c2.86,1.47,5.39-2.85,2.52-4.32-16.26-8.35-36-1.91-43.54,14.92-1.3,2.91,3,5.46,4.32,2.52Z"/><path class="cls-1" d="M79.09,34a47.37,47.37,0,0,0,37.43-12.6c2.36-2.2-1.18-5.73-3.54-3.54A42.54,42.54,0,0,1,79.09,29c-3.19-.34-3.17,4.66,0,5Z"/><path class="cls-1" d="M114,18.1A38.45,38.45,0,0,0,76.76,30.63c-2.07,2.44,1.45,6,3.54,3.54a33.42,33.42,0,0,1,32.37-11.24c3.14.65,4.48-4.16,1.33-4.83Z"/><path class="cls-1" d="M81.1,32.54a69.06,69.06,0,0,0,29.89-9c2.79-1.59.28-5.91-2.52-4.32A63.07,63.07,0,0,1,81.1,27.54c-3.19.22-3.22,5.22,0,5Z"/><path class="cls-1" d="M88.56,26.15a30.55,30.55,0,0,1,18.54-6.63c3.21-.08,3.22-5.08,0-5A36.29,36.29,0,0,0,85,22.61c-2.52,2,1,5.52,3.54,3.54Z"/><path class="cls-1" d="M92,29.05a46.77,46.77,0,0,0,15.44-5.29c2.83-1.54.31-5.86-2.52-4.32a43,43,0,0,1-14.25,4.79c-3.17.5-1.82,5.32,1.33,4.82Z"/><path class="cls-1" d="M67.46,45.37C69.22,53,76.94,54.42,83.6,55.44c7.93,1.22,16,1.66,23.93-.1C120.31,52.5,131.25,43.11,133,29.75c.42-3.18-4.58-3.15-5,0C126.65,40.13,117.6,47.49,108,50.09a50.76,50.76,0,0,1-17.33,1.2C85.21,50.84,73.8,50.6,72.28,44c-.72-3.14-5.55-1.81-4.82,1.33Z"/><path class="cls-1" d="M127.66,26.5a54.08,54.08,0,0,1-52.84,19c-3.14-.66-4.48,4.16-1.33,4.82A59,59,0,0,0,131.19,30c2-2.48-1.51-6-3.53-3.53Z"/><path class="cls-1" d="M90.89,54.38A68.22,68.22,0,0,0,126.67,39c2.48-2.06-1.07-5.58-3.53-3.54A62.06,62.06,0,0,1,90.89,49.38c-3.15.39-3.19,5.39,0,5Z"/><path class="cls-1" d="M111,49.58a22.3,22.3,0,0,0,12.65-6.32c2.29-2.26-1.24-5.8-3.54-3.53a18,18,0,0,1-10.44,5c-3.17.44-1.82,5.25,1.33,4.82Z"/><path class="cls-2" d="M68.32,71.15c9.05,27,57.05,22.48,65-3.07,1-3.07-3.86-4.39-4.82-1.33-6.46,20.64-48,25.31-55.4,3.07-1-3-5.84-1.74-4.82,1.33Z"/><path class="cls-2" d="M73.85,74.2c3.21,0,3.22-5,0-5s-3.22,5,0,5Z"/><path class="cls-2" d="M71.91,74.73a57.13,57.13,0,0,0,57.46-2c2.71-1.72.21-6.05-2.52-4.32a52.07,52.07,0,0,1-52.42,2c-2.83-1.53-5.36,2.79-2.52,4.31Z"/><path class="cls-2" d="M78.9,81.69A55.86,55.86,0,0,0,120,80.24c3-1.26.41-5.57-2.52-4.32a50.76,50.76,0,0,1-37.28,1c-3-1.09-4.34,3.74-1.33,4.82Z"/><path class="cls-2" d="M67.65,48.74a9.48,9.48,0,0,0,.92,13c2.41,2.1,6-1.42,3.53-3.54-1.62-1.41-2.35-4.07-.92-5.92a2.58,2.58,0,0,0,0-3.54,2.51,2.51,0,0,0-3.53,0Z"/><path class="cls-2" d="M68.14,61.76a52.83,52.83,0,0,0,61.06,3.49c2.73-1.7.22-6-2.52-4.32a47.7,47.7,0,0,1-55-2.71c-2.5-2-6.07,1.55-3.54,3.54Z"/><path class="cls-2" d="M131.07,61.57a19.29,19.29,0,0,0-3-15.87c-1.86-2.59-6.2-.1-4.32,2.52a14.36,14.36,0,0,1,2.5,12c-.75,3.13,4.07,4.46,4.82,1.33Z"/><path class="cls-2" d="M123.66,45.49a58.75,58.75,0,0,1-53.42,7.36c-3-1.07-4.35,3.76-1.33,4.82a63.48,63.48,0,0,0,57.28-7.86c2.61-1.83.11-6.17-2.53-4.32Z"/><path class="cls-2" d="M73.72,60.68c3.64,2.59,8.88,3.13,13.23,3.08,4.79-.06,10.63-.58,15.07-2.38.79-.32.78-1.64-.22-1.61-4.67.18-9.23,1.83-14,2-4.88.17-8.94-1-13.5-2.56-.92-.31-1.32,1-.62,1.48Z"/><path class="cls-2" d="M80.19,61.18c6.3,1.63,13.78.43,20.13-.49a101.78,101.78,0,0,0,10.38-2c3.11-.78,7.14-1.39,9.77-3.28.51-.37.4-1.34-.35-1.3-3,.16-6.13,1.69-9.06,2.45q-5.11,1.32-10.36,2.13A104,104,0,0,1,90,59.72c-3.27.16-6.55,0-9.79.5-.5.08-.45.85,0,1Z"/><path class="cls-2" d="M102.85,60a38.13,38.13,0,0,0,12.23-2.26c1.92-.63,3.82-1.33,5.68-2.12s3.75-1.34,5.07-2.72c.37-.38.14-1.25-.48-1.17a17.66,17.66,0,0,0-4.63,1.78c-2,.88-4.07,1.66-6.16,2.36-3.88,1.3-7.93,2.17-11.78,3.55a.3.3,0,0,0,.07.58Z"/><path class="cls-2" d="M81,65.7c6.24,3.12,15.83.77,22.44-.51,8.22-1.6,17-4,24.31-8.25,1.72-1,.59-4-1.39-3.32-7.72,2.81-15,5.93-23.09,7.58a105.16,105.16,0,0,1-12.88,1.74c-3.24.24-6.39.11-9.39,1.46a.75.75,0,0,0,0,1.3Z"/><path class="cls-2" d="M125.2,50.77c-4.42,0-9,3.25-13,4.86-4.38,1.78-9.12,2.84-13.35,4.94a1.48,1.48,0,0,0,.75,2.74c5-.51,10-2.73,14.61-4.67,4-1.66,9-3.18,11.53-6.87a.67.67,0,0,0-.58-1Z"/><path class="cls-2" d="M109,61.79A54,54,0,0,0,119.83,59c2.48-1,6.12-2.22,7.26-4.79a1.16,1.16,0,0,0-1-1.72c-2.68-.12-5.31,2.13-7.61,3.36a91,91,0,0,1-9.79,4.87.57.57,0,0,0,.3,1.09Z"/><path class="cls-2" d="M71,58.91c3.5,4.71,14.5,5.16,18.91,1.7,1.18-.93,0-2.45-1.07-2.59-3.05-.4-6.2.79-9.36.58-2.75-.18-5.43-1-8.17-.45a.52.52,0,0,0-.31.76Z"/><path class="cls-2" d="M76.88,64.92C78.7,67,82.42,67,85,67s6.16.43,7.63-1.94a1.19,1.19,0,0,0-.18-1.43c-2.15-1.68-4.9-.47-7.45-.4s-5.72-.58-8,.64a.67.67,0,0,0-.13,1Z"/><path class="cls-2" d="M87,67.34c5.36,3,13.71,1.12,19.45-.08,6.43-1.34,14.66-3.35,19.7-7.79,1.19-1-.08-2.9-1.48-2.55-6.58,1.63-12.5,5.14-19.27,6.55-5.83,1.21-13,.26-18.4,2.65a.72.72,0,0,0,0,1.22Z"/><path class="cls-2" d="M101.67,68.46c7.76,3.11,22.74-.78,27.4-7.95a1.28,1.28,0,0,0-1.43-1.87c-4.4,1.18-8.11,4.25-12.54,5.61s-9,1.49-13.43,2.87a.7.7,0,0,0,0,1.34Z"/><path class="cls-2" d="M103.09,69.84c4.67-.5,11.66-1.32,14.57-5.54.34-.49-.22-1-.71-.92-2.44.41-4.56,2-6.85,2.92a38.52,38.52,0,0,1-7.18,2.23c-.73.14-.57,1.39.17,1.31Z"/><path class="cls-3" d="M71.79,81.85c16.11,15.24,40.81,9.54,58.15-.41,1.13-.65.14-2.25-1-1.72C111,87.86,89.78,95.15,72.63,81c-.58-.47-1.41.31-.84.84Z"/><path class="cls-3" d="M127.81,78.91a9.07,9.07,0,0,1-1.24,1.39,11.71,11.71,0,0,0-1.58,1,.5.5,0,0,0,.22.83c1.5.49,3.43-1.52,3.31-3a.42.42,0,0,0-.71-.29Z"/><path class="cls-3" d="M128.12,79.32a8.31,8.31,0,0,0-3.27,1.81,10.64,10.64,0,0,0-2.57,2.39.38.38,0,0,0,.43.56A11.33,11.33,0,0,0,126,82.16a7.81,7.81,0,0,0,2.47-2.45.27.27,0,0,0-.3-.39Z"/><path class="cls-3" d="M71.73,80.89c-3,4.27-2.51,11.08-.16,15.54.56,1.06,2.38.33,2-.84A23.73,23.73,0,0,1,71.79,88a62,62,0,0,1,.67-6.93c0-.42-.53-.48-.73-.2Z"/><path class="cls-3" d="M69.82,93.91c1.89,4.1,7.71,5.88,11.69,7.35A58.39,58.39,0,0,0,130.09,97a1.53,1.53,0,0,0-1.55-2.64,56.42,56.42,0,0,1-30.63,6.84,57.36,57.36,0,0,1-14.78-2.95c-4.18-1.42-8.51-4.94-12.95-5a.43.43,0,0,0-.36.63Z"/><path class="cls-3" d="M129.48,95.08c1.2-1.57.74-4.27.5-6.11a69.46,69.46,0,0,0-1.33-7.19c-.41-1.78-3.21-1-2.74.75.64,2.4,1.11,4.81,1.55,7.24.31,1.75.34,4,1.64,5.36a.25.25,0,0,0,.38,0Z"/><path class="cls-3" d="M127.57,82.93c.25,1.58.65,3.13.86,4.72a12.16,12.16,0,0,0,.67,3.91.71.71,0,0,0,1.23,0,7.07,7.07,0,0,0,.14-4.32,13.68,13.68,0,0,0-1.62-4.86c-.42-.73-1.4-.2-1.28.55Z"/><path class="cls-3" d="M125.76,84.34c-1.13.88-1,2.42-1,3.74,0,1.87.19,3.75.33,5.62a1.74,1.74,0,0,0,.84,1.48l.39.19a1.12,1.12,0,0,0,1.08,0l.26-.19a1.72,1.72,0,0,0,.85-1.48c-.18-2-.34-4-.62-6-.17-1.3-.3-2.76-1.56-3.44a.53.53,0,0,0-.61.08Z"/><path class="cls-3" d="M124.63,84.5c-1.59,1.39-1.72,3.71-2,5.7s-1.1,4.26-.13,6.14a1.27,1.27,0,0,0,2,.25c1.37-1.62,1.13-3.92,1.29-6s.57-4.34-.67-6.06a.29.29,0,0,0-.45-.06Z"/><path class="cls-3" d="M122.35,86.33c-2.1,3.34-3.14,7.31-4.12,11.1l2.58-1.05-.22-.15a1.4,1.4,0,0,0-1.68.21l-.23.21c-2.1,2,2.17,4.6,2.94,1.71,1-3.78,2.08-7.76,1.9-11.71a.64.64,0,0,0-1.17-.32Z"/><path class="cls-3" d="M120,97.27c1,.7,2.82.23,4,0a12.72,12.72,0,0,0,4.49-1.93c1.25-.87,1-3.41-.87-3.21l-1.33.17a1.29,1.29,0,0,0-.57,2.15c.22.21.45.42.69.62l.35-2.7c-1.35.6-2.68,1.35-4,2.08-1,.54-2.46,1.09-3,2.09a.56.56,0,0,0,.19.75Z"/><path class="cls-3" d="M123.18,84.84c-3.43,1.49-6.47,3.42-10.16,4.3-3,.72-6.78.28-9.23,2.33a1.1,1.1,0,0,0,.22,1.72c3.29,1.91,9,.18,12.37-1.06s6.5-3.31,7.42-6.81a.43.43,0,0,0-.62-.48Z"/><path class="cls-3" d="M104.77,96c2.28,2.16,6.21,1.5,9,.94a22.66,22.66,0,0,0,10.47-4.69c1.64-1.46-.45-3.6-2.18-2.82-3.12,1.39-5.93,3-9.3,3.84-2.55.61-5.78.41-7.93,2a.47.47,0,0,0-.1.73Z"/><path class="cls-3" d="M105.44,98.1c3.59,3.57,14.43.31,16.53-3.8a1.55,1.55,0,0,0-1.72-2.24c-2.61.4-5,2.46-7.6,3.18-2.22.61-5.22.6-7.09,2a.58.58,0,0,0-.12.89Z"/><path class="cls-3" d="M104.65,101c2.91,1.85,6.71,1.14,9.83.15,2.86-.91,6.94-2.23,8-5.25a1.34,1.34,0,0,0-1.28-1.68c-2.8,0-5.57,2.54-8.25,3.45s-5.77,1.16-8.3,2.67a.39.39,0,0,0,0,.66Z"/><path class="cls-3" d="M104.34,91.9c-2,.5-2.88,3.15-3,5a8.64,8.64,0,0,0,2.58,6.53,1.92,1.92,0,0,0,3.19-1.85,3.34,3.34,0,0,0-.36-1.12,1.06,1.06,0,0,0-1.19-.48,3.85,3.85,0,0,0-1.25.46l2.31.3a7.27,7.27,0,0,1-1.76-4.37c-.08-1.35.32-2.73.12-4.06a.57.57,0,0,0-.69-.39Z"/><path class="cls-3" d="M102.29,91.59c-2.08-.76-3.32,2.8-3.48,4.23a7.3,7.3,0,0,0,2.62,6.72c1.54,1.1,3.48-1,2.54-2.55-1-1.69-1.9-3-1.61-5.09.09-.69,1-2.93-.07-3.31Z"/><path class="cls-3" d="M100.23,91.41a4.56,4.56,0,0,0-3.67,4.2,6.12,6.12,0,0,0,2.77,5.75c1.83,1.16,3.82-1.47,2.3-3a3.94,3.94,0,0,1-1.56-2.78,6.86,6.86,0,0,1,.89-3.25.65.65,0,0,0-.73-1Z"/><path class="cls-3" d="M105.27,91.32c-2.66,2.23-1.75,6.44-.3,9.09,1.21,2.22,4.66.21,3.39-2s-1-4.41-1.54-6.69a.94.94,0,0,0-1.55-.41Z"/><path class="cls-3" d="M113.36,89.48a15.31,15.31,0,0,0,3.69-.42,12,12,0,0,0,3.67-1,1.31,1.31,0,0,0,.65-1.13,1.29,1.29,0,0,0-.18-.67,1.31,1.31,0,0,0-1.14-.65,12,12,0,0,0-3.69,1A15.55,15.55,0,0,0,113,88.1a.75.75,0,0,0,.38,1.38Z"/><path class="cls-3" d="M103,91c-4.85-1.38-10-.44-15-.95C82.23,89.45,76.93,87.3,73,83c-1.7-1.87-4.44.9-2.77,2.78C77.66,94.09,93.08,97.1,103.13,92a.53.53,0,0,0-.13-1Z"/><path class="cls-3" d="M72.17,83.21c-3,2-1.93,7.56-.38,10.15a1.76,1.76,0,0,0,3-1.77,10.53,10.53,0,0,1-1.31-4.12c-.09-1.25.28-2.53-.07-3.74a.86.86,0,0,0-1.27-.52Z"/><path class="cls-3" d="M72.2,91.71c2.86,4.51,9,6.51,14,7.59,4.66,1,12.13,2.29,16.16-.77a1.26,1.26,0,0,0-.29-2.27c-2.08-.59-3.68-.18-5.85-.06a33,33,0,0,1-9-.71c-4.94-1.06-9.11-4-14-5.16a1,1,0,0,0-1.06,1.38Z"/><path class="cls-3" d="M73.3,91.1C78.07,98,93.48,99.48,100.81,97a1.66,1.66,0,0,0-.44-3.25c-5-.22-9.72.46-14.76-.63-3.9-.84-7.67-3-11.66-3.1a.76.76,0,0,0-.65,1.13Z"/><path class="cls-3" d="M86.34,99.43c4.24,2.68,13.68,3.36,16.86-1.34a1.3,1.3,0,0,0-1.11-1.93c-2.39-.08-4.68,1.39-7,1.86a49.82,49.82,0,0,1-8.46.52.48.48,0,0,0-.24.89Z"/><path class="cls-3" d="M69.09,100.44c15.52,18.63,42.91,12,62,3.59,1.8-.79.25-3.4-1.53-2.63-19.41,8.38-42,13-59.64-1.75a.56.56,0,0,0-.79.79Z"/><path class="cls-3" d="M128.1,102c.23,2.57.76,5-.12,7.53-1.38,3.94-5.16,6.26-8.84,7.72a42,42,0,0,1-18.24,2.6c-10.83-.69-29.7-5.79-30.17-18.89a1.1,1.1,0,0,0-2-.55c-4,6.13,3.2,12.13,7.86,15.12a48.71,48.71,0,0,0,25.15,7.7c8,.16,17.69-1.25,24.15-6.34,4.25-3.34,8.41-10.84,3.88-15.56a1,1,0,0,0-1.63.67Z"/><path class="cls-3" d="M70.45,106.73c2.25,5.28,9,8.81,14.08,10.94a46.89,46.89,0,0,0,18,3.69c9.65,0,26.94-3.53,27.78-15.65.13-1.91-2.57-2-3.15-.43-3.85,10.66-18.29,12.87-28.25,12a43.24,43.24,0,0,1-15-4.19c-4.33-2.11-7.79-5.71-12.13-7.65a1,1,0,0,0-1.3,1.31Z"/><path class="cls-3" d="M75.35,107.5a.05.05,0,0,0,0-.1.05.05,0,1,0,0,.1Z"/><path class="cls-3" d="M74.67,107.36a.14.14,0,0,1-.23,0,.11.11,0,0,0-.18.07c0,.4.56.41.7.08s-.2-.37-.29-.17Z"/><path class="cls-3" d="M72,105.49c3.87,8.22,18.4,7.84,26,8,9.43.17,22.88,1.11,30.69-5.21,1.28-1-.12-2.88-1.49-2.57-5.08,1.17-9.57,3.1-14.88,3.58a134.15,134.15,0,0,1-14.32.28,73.46,73.46,0,0,1-13.82-1.13c-4.06-.84-7.74-3-11.84-3.52-.33,0-.46.36-.34.6Z"/><path class="cls-3" d="M83.68,113.35c3.45,4.25,13.39,3.63,18.39,3.53A71.56,71.56,0,0,0,123.81,113c2.4-.82,1.37-4.64-1-3.82a67.66,67.66,0,0,1-21.6,3.8A70.71,70.71,0,0,1,90,112.09c-2.53-.38-3.89-.87-6.18.13a.73.73,0,0,0-.14,1.13Z"/><path class="cls-3" d="M100.08,115.39l-1,.27c-.06,0,0,.1,0,.09l1-.24a.06.06,0,1,0,0-.12Z"/><path class="cls-3" d="M96.37,117c4.6,5.64,19.25,3.62,23.51-1.61.57-.69.29-2.15-.84-2-4,.44-7.56,2.45-11.66,2.79-3.58.3-7.33-.92-10.8,0a.49.49,0,0,0-.21.8Z"/><path class="cls-4" d="M66.35,38.25a.05.05,0,0,0,0-.1.05.05,0,1,0,0,.1Z"/><path class="cls-4" d="M64.77,36.47c-.53,4.87,6.62,6.85,10.25,7.39A55.45,55.45,0,0,0,94.86,42.8a63.84,63.84,0,0,0,35.47-21.63c1.46-1.79-1-4.36-2.57-2.57A62.93,62.93,0,0,1,97.55,38.18a60.41,60.41,0,0,1-17.63,2.35,25.6,25.6,0,0,1-8.25-1.19c-2.32-.86-3.72-2.69-5.94-3.6-.5-.21-.91.3-1,.73Z"/><path class="cls-4" d="M65.58,38.21c5.81,13.33,28,9.56,38.54,5.87a61.45,61.45,0,0,0,20-11.49c4.32-3.74,10.14-9.58,6-15.5-1.22-1.72-4.05-.15-2.88,1.68,3.92,6.1-8.08,13.51-12.29,16.16A59.13,59.13,0,0,1,98.59,42C87,45,76,44.8,66.13,37.66c-.37-.26-.69.23-.55.55Z"/><path class="cls-4" d="M129.17,16.9a13.51,13.51,0,0,0-1.55-.39,2.45,2.45,0,0,0-1.47.06.39.39,0,0,0-.08.62,2.2,2.2,0,0,0,1.34.32,11.89,11.89,0,0,0,1.69-.09c.29,0,.38-.45.07-.52Z"/><path class="cls-4" d="M129,17.34c-.91-.77-2.68-1.37-3.69-.46a.44.44,0,0,0,.31.74c.53,0,1-.24,1.55-.26a4.44,4.44,0,0,1,1.66.26.17.17,0,0,0,.17-.28Z"/><path class="cls-5" d="M67.6,64.73c2.48,4.36,8.78,6.87,13.3,8.63a52.79,52.79,0,0,0,17.57,3.46c10.64.31,25.41-2.49,33-10.63.79-.84,0-2.65-1.24-2.12-4.86,2-9.11,5-14.19,6.68A51,51,0,0,1,99.3,73.31a51.32,51.32,0,0,1-15.85-2.94,56.52,56.52,0,0,1-8.74-3.81c-2.08-1.15-3.8-2.55-6.15-3.08a.86.86,0,0,0-1,1.25Z"/><path class="cls-6" d="M69.6,95.75a.05.05,0,0,0,0-.1.05.05,0,1,0,0,.1Z"/><path class="cls-6" d="M68.73,96.68c14.6,17.28,43,15.93,60.71,4.71,1.75-1.11.14-3.9-1.63-2.8a50,50,0,0,1-29.58,7.76c-10.64-.65-19.77-5.41-29-10.37a.45.45,0,0,0-.54.7Z"/><path class="cls-6" d="M71.87,98.86l-.19-.06c-.32-.14-.32.45,0,.3l.19-.06a.09.09,0,0,0,0-.18Z"/><path class="cls-6" d="M71.15,99.29a15.54,15.54,0,0,0,4.35,4.24c1.61,1.08,3.61,2.49,5.61,2.52a.63.63,0,0,0,.44-1.06c-1.36-1.25-3.33-1.81-4.9-2.78-1.72-1.07-3.37-2.26-5.07-3.36a.32.32,0,0,0-.43.44Z"/><path class="cls-6" d="M80.53,102.94c7.38,2.89,16.09,3.31,23.93,2.8,7.2-.47,15.83-1.45,21.88-5.63a.47.47,0,0,0-.37-.86c-7.6,1.26-14.53,4.25-22.37,4.82s-15.17-.75-22.87-1.84a.37.37,0,0,0-.2.71Z"/><path class="cls-6" d="M81.38,103.65c2.25,1.4,6.26,2.12,8.8,1.28.3-.1.37-.62,0-.68-1.43-.27-2.92-.13-4.37-.31s-2.85-.61-4.29-.79c-.28,0-.34.37-.14.5Z"/><path class="cls-6" d="M82.53,101.74a2.3,2.3,0,0,0,1,1.06.12.12,0,0,0,.16-.16,2.38,2.38,0,0,0-1.06-1,.08.08,0,0,0-.11.1Z"/><path class="cls-6" d="M83.49,102a6.54,6.54,0,0,0,0,1.25.16.16,0,0,0,.31,0,7.47,7.47,0,0,0,0-1.25.11.11,0,0,0-.22,0Z"/><path class="cls-6" d="M70.13,99.24a1.93,1.93,0,0,0,.33,3c1,.56,2.87,0,2.66-1.32a.46.46,0,0,0-.68-.27c-.45.28-.78.9-1.41.68a1,1,0,0,1-.29-1.46.43.43,0,0,0-.61-.61Z"/><path class="cls-6" d="M73,101.24a2.42,2.42,0,0,0,.19,2.93,2.64,2.64,0,0,0,3.29.43c.91-.59.09-2-.85-1.46a1.25,1.25,0,0,1-1.53,0,1.48,1.48,0,0,1-.39-1.57c.14-.44-.47-.65-.71-.3Z"/><path class="cls-6" d="M77.1,104.4h-.25a.05.05,0,1,0,0,.1h.25a.05.05,0,0,0,0-.1Z"/><path class="cls-6" d="M75.58,104.06a2.74,2.74,0,0,0,1.54,3.55c1.33.48,3.38-.2,3.6-1.76.1-.73-.72-1.4-1.34-.77-.43.43-.91,1-1.6.86a1.49,1.49,0,0,1-1.11-1.58.57.57,0,0,0-1.09-.3Z"/><path class="cls-6" d="M79.57,105.59a2.91,2.91,0,0,0,2.22,3.89c1.53.34,4.09-.57,3.71-2.5a.57.57,0,0,0-.7-.4c-.88.32-1.51,1.2-2.51,1.16-1.15,0-2-1.19-2.36-2.15a.21.21,0,0,0-.36,0Z"/><path class="cls-6" d="M84.51,107c-.51,1.52.71,3.24,2.12,3.77A3.68,3.68,0,0,0,91,109.17a1.05,1.05,0,0,0,0-1.07l-.07-.13a.83.83,0,0,0-.71-.4c-1,.05-1.33,1.15-2.34,1.28-1.2.15-1.77-.87-2.15-1.81a.63.63,0,0,0-1.21,0Z"/><path class="cls-6" d="M90,109c-.07,1.79,2.45,2.7,3.9,2.65,1.6,0,4.13-1.28,3.77-3.18a.75.75,0,0,0-.91-.51c-1.14.3-1.67,1.48-2.92,1.73-1.41.29-2.25-.67-3.51-.94A.26.26,0,0,0,90,109Z"/><path class="cls-6" d="M96,109.83a5,5,0,0,0,5.61,1.75c1.62-.52,3.62-2,3.21-3.86a.64.64,0,0,0-.93-.38c-1.08.57-1.6,1.72-2.76,2.21a5,5,0,0,1-4.44-.61c-.59-.38-1.06.42-.69.89Z"/><path class="cls-6" d="M103,109.54c1.41,3.87,7.49,2.46,8.47-1,.29-1-1.15-2-1.89-1.11s-1.37,1.85-2.67,2.08a8.24,8.24,0,0,1-3.36-.48.45.45,0,0,0-.55.55Z"/><path class="cls-6" d="M109.73,108.38c.43,1.81,2.61,2.39,4.24,2.16a5,5,0,0,0,4.1-3.57c.27-1.17-1.39-2-2-.84a3.84,3.84,0,0,1-2.63,2.4c-1.16.23-2.24-.29-3.37-.49a.28.28,0,0,0-.34.34Z"/><path class="cls-6" d="M116.6,107.57c1.06,1.6,3.25,2.62,5,1.56,1.27-.75,2.46-3.48.44-4.09a.94.94,0,0,0-1.17.89c0,.34.17.63.12.95a1.16,1.16,0,0,1-.87.79c-1,.23-2.2-.45-3.18-.59-.26,0-.56.22-.38.49Z"/><path class="cls-6" d="M121.75,106c-.06.82.85,1.47,1.51,1.75a3.48,3.48,0,0,0,2.89-.15c1.75-.87,2.76-3.47,1.68-5.2a1.07,1.07,0,0,0-1.94.82c.22,1,.26,2.15-.9,2.64a3,3,0,0,1-1.51.13,8.64,8.64,0,0,0-1.38-.33.35.35,0,0,0-.35.34Z"/><path class="cls-6" d="M127,104a3,3,0,0,0,4.8-.3c1-1.68,0-5-2.32-4.54a1,1,0,0,0-.6,1.47c.38.54,1.41,1.15,1,1.94a1.37,1.37,0,0,1-1.81.33A.78.78,0,0,0,127,104Z"/><path class="cls-6" d="M129.89,101.09a11.64,11.64,0,0,0-1.42,1.12,2.8,2.8,0,0,0-1,1.4.46.46,0,0,0,.56.56,2.78,2.78,0,0,0,1.39-1,10.22,10.22,0,0,0,1.12-1.43.45.45,0,0,0-.62-.62Z"/><path class="cls-6" d="M126.77,103.37c-.57.19-1.12.42-1.67.66s-1.21.37-1.49.9a.59.59,0,0,0,.5.88c.59.06,1.12-.46,1.58-.77s1-.66,1.45-1c.3-.24,0-.76-.37-.64Z"/><path class="cls-6" d="M122.35,105.73a22.42,22.42,0,0,0-4.41.62c-.55.2-.51,1.13.14,1.08a22.21,22.21,0,0,0,4.34-1.2c.27-.08.23-.54-.07-.5Z"/><path class="cls-6" d="M118.35,107.16c-.49,0-1-.12-1.32.36a.35.35,0,0,0,0,.37c.28.47.83.35,1.32.35a.54.54,0,0,0,0-1.08Z"/><path class="cls-6" d="M79.59,105.54c0,.95,1,1.78,1.82,2.14a4.45,4.45,0,0,0,3.34.24.76.76,0,0,0,.52-.69c.14-1.13-1.71-.52-2.2-.52a4.66,4.66,0,0,1-1.93-.48,11.43,11.43,0,0,0-1.39-.81.12.12,0,0,0-.16.12Z"/><path class="cls-6" d="M84.21,107.55c1,.22,1.91.43,2.88.57.73.11,1.56.39,2.21-.05a.41.41,0,0,0,.08-.63c-.52-.58-1.39-.51-2.12-.59-1-.1-2-.12-2.94-.13a.43.43,0,0,0-.11.83Z"/><path class="cls-6" d="M85.69,107.76c1.31.46,4.27,1.39,5.39.17a.33.33,0,0,0-.07-.51,4,4,0,0,0-2.15-.29,11.12,11.12,0,0,1-2.86-.48c-.72-.22-1,.87-.31,1.11Z"/><path class="cls-5" d="M69.71,63.91c-2.38,2.57-1.56,5.51,1.59,6.74.91.36,1.46,0,2.32.48.59.33,1.19,1.43,1.8,1.86,1.61,1.11,3.47.32,4.83,1s1.68,2.76,3.53,3.42,2.89-.83,4.37-.65,2.4,1.54,3.89,2c1.82.57,3.27,0,5.06-.07,2-.12,2.31.48,4.38.86s3.27-.55,5.15-1.13.53-.76,2.77-.35a9.82,9.82,0,0,0,3,.29c2.19-.22,3.21-1.89,5-2.5,1.13-.39,2.3.2,3.61,0,1.94-.39,2.88-1.88,4.5-2.78s3.42-1.1,4.8-2.77a8.14,8.14,0,0,0,1.81-6.44.92.92,0,1,0-1.82.24c.94,5.06-2.55,6.29-6.25,7.43-2.53.78,5.17,7.38-6.18,2.19a.82.82,0,0,0-1.08.29c-2.09,3.1-5.77,3.49-8.72,1.54a.76.76,0,0,0-.93.12,5.4,5.4,0,0,1-7.89.41,1,1,0,0,0-1.4,0c-2.87,2.58-6.4,1.8-8.76-1a.57.57,0,0,0-.79,0l-6.56-2.19a.59.59,0,0,0-.71-.41,5.51,5.51,0,0,1-6.76-3.08.65.65,0,0,0-.73-.3l-3.18-4.74c.28-.37-.33-.83-.64-.5Z"/><path class="cls-5" d="M91,77c1.21,1,3.73,2.29,5.24,1.24a.84.84,0,0,0-.19-1.51,9.43,9.43,0,0,0-2.12.07,5.68,5.68,0,0,1-2.32-.58c-.48-.24-1.06.39-.61.78Z"/><path class="cls-5" d="M90.76,75.85a4.32,4.32,0,0,0,3.64,2.4c1.46.15,3.61-.28,4-1.9a.64.64,0,0,0-.44-.78c-1.1-.2-2.16.3-3.25.36a14.37,14.37,0,0,1-3.63-.44c-.19,0-.45.13-.36.36Z"/><path class="cls-5" d="M99.73,77.65a9.44,9.44,0,0,0,3.89.11c1.12-.16,2.54-.32,3-1.49a.67.67,0,0,0-.39-1c-1.06-.39-2,.28-3,.61-1.16.39-2.34.56-3.51.87a.45.45,0,0,0,0,.86Z"/><path class="cls-5" d="M113.07,76.63c.86.34,1.89-.19,2.7-.5.56-.21,1.92-.68,1.56-1.55s-1.53-.28-2.08,0c-.82.37-2,.74-2.36,1.63a.31.31,0,0,0,.18.45Z"/><path class="cls-5" d="M119.66,73.53l0,0a.62.62,0,0,0,.1.72,2.25,2.25,0,0,0,2.69.25,2.67,2.67,0,0,0,1.35-2.45.78.78,0,0,0-.77-.77.76.76,0,0,0-.21,0,.75.75,0,0,0-.56.74,1.21,1.21,0,0,1-1,1.28c-.45.06-1.28-.36-1.56.17Z"/><path class="cls-5" d="M121.37,74c-.07.07-.2.09-.29.14a3.29,3.29,0,0,0-.41.33.59.59,0,0,0,.26,1,2.41,2.41,0,0,0,2.35-.7c.56-.55,1.24-1.62.81-2.42a.66.66,0,0,0-.9-.33c-.4.21-.47.64-.62,1a2.67,2.67,0,0,1-1.64,1.33l.71.71a3.19,3.19,0,0,0,.07-.54,1.26,1.26,0,0,1,0-.33.18.18,0,0,0-.29-.17Z"/><path class="cls-5" d="M122.66,73.74c-2-.62-6.2-1.26-7.54.92a.54.54,0,0,0,.47.82,8.11,8.11,0,0,0,2.91-.92,7,7,0,0,1,4-.22.31.31,0,0,0,.17-.6Z"/><path class="cls-5" d="M118,73.91c-1.29.17-2.59.37-3.86.62a6.16,6.16,0,0,0-2.93,1,.52.52,0,0,0,.22.86,6.1,6.1,0,0,0,3.07-.59c1.23-.42,2.44-.91,3.64-1.4a.27.27,0,0,0-.14-.53Z"/><path class="cls-5" d="M125.93,70.49c.73.39,1.9-.09,2.61-.38s2.05-.93,2-1.91a.68.68,0,0,0-.66-.66c-.79-.06-1.38.82-2,1.25a6.85,6.85,0,0,1-1,.63,2.58,2.58,0,0,0-1,.55.34.34,0,0,0,.06.52Z"/><path class="cls-5" d="M71.69,69.94a8.37,8.37,0,0,0,3.77,2.92c1.23.52,3.22,1.45,4.45.57a.62.62,0,0,0,.12-1c-.8-.92-2.38-.88-3.49-1.27-1.46-.51-2.8-1.29-4.22-1.9-.37-.16-.92.21-.63.63Z"/><path class="cls-5" d="M81.86,74.69c-.45,0-.73.36-1.13.52a1.94,1.94,0,0,1-1.55,0,1.85,1.85,0,0,1-.67-2.59c.63-.85-1-1.76-1.44-.61a3.18,3.18,0,0,0,1.49,4.26,3.29,3.29,0,0,0,2.27.1c.62-.21,1.46-.66,1.34-1.41a.33.33,0,0,0-.31-.24Z"/><path class="cls-5" d="M78.82,73.56a1,1,0,0,0,.09,1.35,1.36,1.36,0,0,0,1.64.38c.72-.31.2-1.45-.52-1.25a.54.54,0,0,1-.52-.06.82.82,0,0,1-.19-.22c-.16-.19,0,0-.08-.14a.24.24,0,0,0-.42-.06Z"/><path class="cls-5" d="M76.82,73.44a1.54,1.54,0,0,1-2.37.26,1.44,1.44,0,0,1-.21-1.16c.1-.47.58-.71.56-1.23a.61.61,0,0,0-.45-.59c-.94-.2-1.43.93-1.52,1.71a2.49,2.49,0,0,0,.86,2.23,2.36,2.36,0,0,0,3.62-1c.11-.29-.33-.45-.49-.2Z"/><path class="cls-5" d="M74.85,73.07c.15-.07.4.21.37.25s-.2,0-.19-.11c0-.64-1-.81-1.15-.15a1.2,1.2,0,0,0,.84,1.44,1,1,0,0,0,1.22-1.07.39.39,0,0,0-.72-.2s-.22.18-.21.14l-1.15-.16a1.27,1.27,0,0,0,2.31.69,1.13,1.13,0,0,0-1.73-1.35c-.3.27.09.68.41.52Z"/><path class="cls-5" d="M73.83,71.73a2.16,2.16,0,0,1-2.43-1c-.43-1,.31-1.79.16-2.72a.75.75,0,0,0-.9-.51c-.85.13-1.23,1.18-1.3,1.93a3.31,3.31,0,0,0,.73,2.32,3.11,3.11,0,0,0,4,.78c.31-.21.24-.86-.22-.8Z"/><path class="cls-5" d="M71.27,69.86c-.21.69.24,1.75,1.11,1.59a.78.78,0,0,0,.63-.83.84.84,0,0,0-.9-.74c-.91,0-.65,1.48.16,1.18.33-.12-.32-.88-.33-1.11a.34.34,0,0,0-.67-.09Z"/><path class="cls-4" d="M65.53,37.68c-.89.08-1,1.45-1,2.15a5.07,5.07,0,0,0,1.36,3.49c1.3,1.37,5.61,3,6.34.23a.52.52,0,0,0-.35-.62c-.89-.26-1.59.12-2.48.17a3.31,3.31,0,0,1-3.06-1.45,4.67,4.67,0,0,1-.57-3.15c0-.13.12-.85-.23-.82Z"/><path class="cls-4" d="M66,41a2.76,2.76,0,0,0,1.66,2.38c.85.48,2.42.77,3-.28a.6.6,0,0,0-.22-.83c-.64-.28-1.4-.07-2.09-.22a3.65,3.65,0,0,1-1.77-1.28A.33.33,0,0,0,66,41Z"/><path class="cls-4" d="M70.21,44.2a3.73,3.73,0,0,0,2.59,3.55c1.5.55,4.13.34,4.88-1.32A1,1,0,0,0,76.58,45c-1.18.27-1.9,1.1-3.23.74a5.54,5.54,0,0,1-2.45-1.83.41.41,0,0,0-.69.29Z"/><path class="cls-4" d="M77.43,44.93c.35,3.68,8,5.22,9.32,1.59a.86.86,0,0,0-.83-1.09c-1.35,0-2.45.9-3.89.75s-2.56-1-3.92-1.64c-.28-.12-.72,0-.68.39Z"/><path class="cls-4" d="M85.54,46.49c-.13,1.79,2.15,2.88,3.66,2.88a4.38,4.38,0,0,0,4.19-3.08,1,1,0,0,0-.26-1c-1.14-1-1.75.79-2.43,1.39-1.63,1.43-2.94,0-4.43-.64a.5.5,0,0,0-.73.42Z"/><path class="cls-4" d="M93.35,46.09c1.2,2.34,4.45,2.95,6.76,2.16,1.81-.63,4.67-2.71,3.73-4.91a.66.66,0,0,0-.74-.3c-1.44.57-1.93,2.25-3.35,3-2.12,1.08-4,.33-6.06-.37a.31.31,0,0,0-.34.44Z"/><path class="cls-4" d="M102.17,44.88c1.74,1.67,4.63,1.42,6.66.4,1.61-.8,4.17-3,3.43-5a.55.55,0,0,0-.79-.33c-1.35.83-1.76,2.51-3.2,3.36-1.85,1.1-3.66.59-5.67.51a.63.63,0,0,0-.43,1.06Z"/><path class="cls-4" d="M110.7,41.23c1.09,2,4.07,1.75,5.65.55,1.42-1.09,2.71-4.37,1-5.76a.81.81,0,0,0-1.37.56c-.06.63.23,1.2.17,1.84a3.09,3.09,0,0,1-.9,1.84c-1.18,1.17-2.72.73-4.15.41a.38.38,0,0,0-.43.56Z"/><path class="cls-4" d="M117.14,37.58c3.88,2.49,9.37-1.85,9-6.13-.09-1-1.58-1.34-1.83-.25-.38,1.69-.76,3.18-2.21,4.3a8.94,8.94,0,0,1-4.75,1.34.4.4,0,0,0-.2.74Z"/><path class="cls-4" d="M124.46,32.61c6,1.47,10.73-7,6.24-11.29a.69.69,0,0,0-1.07.83c1,2.22,1.54,4.55.16,6.76-1.19,1.9-3.26,2.49-5.33,2.81-.47.07-.42.79,0,.89Z"/><path class="cls-4" d="M129.89,26.83A5.73,5.73,0,0,1,128,28.69c-.58.36-1.46.43-1.66,1.17a.32.32,0,0,0,.14.35c.75.51,1.63-.36,2.18-.84a7.21,7.21,0,0,0,1.66-2.31.23.23,0,0,0-.39-.23Z"/><path class="cls-4" d="M129.59,27.27c-1.28.78-2.93,1.5-3.86,2.72-.25.32.15.73.49.64,1.44-.37,2.72-1.61,3.89-2.47.53-.38.06-1.24-.52-.89Z"/><path class="cls-4" d="M128,28.83l-1.13,1.59a.66.66,0,0,0,0,.68c.12.25.31.3.58.33a.67.67,0,0,0,.58-.33l1.13-1.59c.5-.71-.67-1.38-1.16-.68Z"/><path class="cls-4" d="M126.85,31c1.39.08,3.28-1.07,3.19-2.63a1,1,0,0,0-.68-.89.92.92,0,0,0-1,.43c-.33.74-.5,1.55-1.47,1.56a.77.77,0,0,0,0,1.53Z"/><path class="cls-4" d="M118.85,36.68c2.4.17,5.27-1,6-3.48.23-.82-.9-1.58-1.5-.87-1.32,1.55-2.42,3.12-4.56,3.54-.48.09-.33.78.11.81Z"/><path class="cls-4" d="M112,41.29a4.53,4.53,0,0,0,3.31-.5c1-.51,2.2-1.35,2.07-2.6,0-.33-.35-.72-.73-.56-.87.36-1.26,1.12-2,1.71A8.38,8.38,0,0,1,112,40.7a.31.31,0,0,0,0,.59Z"/><path class="cls-4" d="M104.61,45a10.54,10.54,0,0,0,3.47-.77c1-.43,2.32-1,2.62-2.1a.64.64,0,0,0-.61-.81c-1,.11-1.66.9-2.48,1.39a13.19,13.19,0,0,1-3.13,1.36c-.5.14-.42,1,.13.93Z"/><path class="cls-4" d="M98,46.65c1.12-.42,2.62-.7,3.42-1.65a.42.42,0,0,0-.29-.71c-1.26,0-2.42.93-3.48,1.51-.45.25-.15,1,.35.85Z"/><path class="cls-7" d="M67,27.14c-1.44,2.37,1,7.56,3.75,8a.45.45,0,0,0,.43-.75c-1-1.09-2.22-1.69-3-3s-.61-2.68-1-4.14a.13.13,0,0,0-.23,0Z"/><path class="cls-7" d="M100.42,6.5c2.67.65,5.47.43,8.18.88,2.48.42,5,1.94,7.49,1.74a1.17,1.17,0,0,0,.81-2c-1.7-2.17-5.27-2.6-7.87-3-3-.41-6.1-.53-8.79,1a.74.74,0,0,0,.18,1.34Z"/><path class="cls-7" d="M122.5,15.05c-.54.51-1.17,1.84-.71,2.53a.74.74,0,0,0,1,.25c.75-.32.91-1.81.75-2.52a.62.62,0,0,0-1-.26Z"/><path class="cls-7" d="M104.26,14.68a3,3,0,0,0,.5,4.47A3,3,0,0,0,109,17.7a2.94,2.94,0,0,0-2.39-3.8c-1.69-.12-3.72,2-2.71,3.66a.52.52,0,0,0,1-.26,2.38,2.38,0,0,1,.26-1.53,1.63,1.63,0,0,1,1.55-.77A1.88,1.88,0,0,1,108,17.59a2.1,2.1,0,0,1-2.9.66,2.37,2.37,0,0,1-.47-3.33c.13-.19-.17-.42-.32-.24Z"/><path class="cls-7" d="M105.69,15.13A3.12,3.12,0,0,0,105,15a.45.45,0,0,0-.41.23,2.13,2.13,0,0,0,1.42,3.2,1.85,1.85,0,0,0,2-2.64,1.71,1.71,0,0,0-3.09.24c-.44,1.35,1.3,2.66,2.38,1.63a.61.61,0,0,0-.58-1,.47.47,0,0,1-.41-.09c-.09-.08-.06-.06,0-.11.21-.31.53,0,.55.21,0,.5-.51.65-.9.49-.64-.26-.61-1-.43-1.56l-.33.33a2.85,2.85,0,0,0,.7-.22.34.34,0,0,0-.08-.61Z"/><path class="cls-7" d="M82.6,22.31c-1.57.16-2.09,2.27-1.29,3.47a2.58,2.58,0,0,0,4.12,0,2.64,2.64,0,0,0-1.29-3.86,2.53,2.53,0,0,0-2.31.43c-.61.46-1.23,1.33-.83,2.1a.54.54,0,0,0,.83.11c.3-.31.37-.75.7-1a1.38,1.38,0,0,1,1-.33A1.28,1.28,0,0,1,84.41,25a1.36,1.36,0,0,1-2.14.15c-.65-.77-.09-1.79.51-2.39.14-.14,0-.45-.18-.43Z"/><path class="cls-7" d="M82.81,22.64c-.86,0-1.16,1.17-1,1.83a1.51,1.51,0,0,0,2.42.64c.74-.59,1.18-2.35-.08-2.65a1.9,1.9,0,0,0-2.27,1.86c0,.73,1.17,1,1.35.19.07-.32.28-.7.66-.61l-.44-.34c.17.27-.13.74-.42.56S82.85,23.34,83,23a.25.25,0,0,0-.2-.36Z"/><path class="cls-7" d="M85.81,93.69a1.92,1.92,0,0,0,1.58,2.46,1.73,1.73,0,0,0,1.8-2.26,1.58,1.58,0,0,0-2.79-.43c-.57,1,0,2.46,1.3,2.23a.64.64,0,0,0,.15-1.17c-.1-.06-.2-.2-.13-.28-.09.1.19.11.18.31s-.5.37-.72.32a1.14,1.14,0,0,1-.68-1.08.35.35,0,0,0-.69-.1Z"/><path class="cls-7" d="M115,93.12c-1.09-.39-1.92,1-1.73,1.95a1.58,1.58,0,0,0,2.53.84,1.56,1.56,0,0,0-.41-2.77,2,2,0,0,0-1.44.19,1.71,1.71,0,0,0-.54.53,1.26,1.26,0,0,0-.1.89c.1.58.94.6,1.21.16l0-.08-.41.32a2,2,0,0,0,.47-.34.7.7,0,0,1,.19-.09s.12,0,.14,0-.08,0-.06-.06a0,0,0,0,0-.05,0c-.14.08-.31.34-.27,0s.3-.41.56-.53c.49-.22.28-.89-.13-1Z"/><path class="cls-7" d="M84.08,91.79a5.2,5.2,0,0,1,1-1.08c.42-.33,1-.45,1.27-.91a.73.73,0,0,0-.43-1.06c-.69-.19-1.44.39-1.92.84a3.72,3.72,0,0,0-1.09,1.7.67.67,0,0,0,1.21.51Z"/><path class="cls-7" d="M92.25,92.09c-.62.69-.55,1.89-1,2.73a6.56,6.56,0,0,1-.85,1.25c-.33.38-.62.58-.6,1.13a.54.54,0,0,0,.38.5c1.12.2,2-1.24,2.38-2.12s1.13-2.52.47-3.38a.52.52,0,0,0-.8-.11Z"/><path class="cls-7" d="M110.91,93.28a5.3,5.3,0,0,1,1-2.29c.55-.62,1.4-1,1.79-1.69a.77.77,0,0,0-.44-1.11c-1.2-.41-2.49.84-2.94,1.86a3.37,3.37,0,0,0,0,3.3.31.31,0,0,0,.56-.07Z"/><path class="cls-7" d="M119.08,92.15a9.62,9.62,0,0,1-.4,3.24c-.51,1.15-1.4,1.57-2.21,2.41-.27.28-.1.9.35.85,2.49-.28,4.61-4.65,3.06-6.72a.44.44,0,0,0-.8.22Z"/><path class="cls-7" d="M69.43,58.55a3,3,0,0,0,.39-1.65A15.86,15.86,0,0,1,70.21,55c.15-.7.31-2.08-.76-2.08s-1.62,1.85-1.74,2.74c-.15,1.12-.17,2.43.79,3.17a.69.69,0,0,0,.93-.24Z"/><path class="cls-7" d="M90.26,75.09c3.42,2.09,9.88,2.67,13.55,1,.42-.2.15-.74-.21-.78-2.18-.24-4.46.18-6.67.09s-4.37-.63-6.58-.64a.18.18,0,0,0-.09.34Z"/><path class="cls-7" d="M94.85,43.87c6,.26,15.5-2.21,19-7.51a.3.3,0,0,0-.34-.44c-3,1-5.54,3.18-8.5,4.39a66,66,0,0,1-10.26,2.9c-.38.08-.27.64.09.66Z"/><path class="cls-7" d="M87.62,107.36c4.33,2.69,12.82,3.89,17.23.75a.52.52,0,0,0-.26-1c-2.78-.32-5.61.56-8.43.44s-5.55-.72-8.33-1c-.44,0-.55.59-.21.8Z"/><path class="cls-7" d="M71,91.65c.75-1.1.45-2.81.88-4.07.49-1.48,1.79-2.51,2.22-4a.82.82,0,0,0-1-1c-2.76.54-5.34,7.4-2.65,9.16a.41.41,0,0,0,.55-.14Z"/><path class="cls-7" d="M127.9,109.21a14.54,14.54,0,0,1-4.59,3.54c-.71.31-3.33.87-2.28,2.18.89,1.09,3.4-.43,4.26-.94a10.91,10.91,0,0,0,4-3.74.86.86,0,0,0-1.34-1Z"/><path class="cls-7" d="M84.88,84.57c7.88,5,19.77,4.78,27.68,0,.34-.21.12-.81-.29-.67-9.78,3.21-17.29,2.93-27-.15a.45.45,0,0,0-.35.82Z"/><path class="cls-7" d="M77.36,18.5c3.1-3.46,6.6-5.4,10.71-7.39.44-.21.11-.82-.31-.74-4.39.81-8.37,4.22-10.7,7.89-.12.19.15.41.3.24Z"/><path class="cls-8" d="M82.6,22.62a.17.17,0,0,0,0-.33.17.17,0,0,0,0,.33Z"/><path class="cls-8" d="M82.59,21.84a.72.72,0,0,0-.3,1.35A.7.7,0,0,0,83,22a.43.43,0,0,0-.67.51c0-.15,0-.16,0,0,.48-.1.61,0,.4.2.48-.08.37-.92-.12-.86Z"/><path class="cls-8" d="M83.78,22l.06-.06a.36.36,0,0,0,0-.49l-.06-.06a.43.43,0,0,0-.74.3.44.44,0,0,0,.74.31Z"/><path class="cls-8" d="M104.51,15.18c-.06.29-.22.69,0,.93a.87.87,0,0,0,.81.23,1.19,1.19,0,0,0,.92-1.47.44.44,0,0,0-.33-.34,1.54,1.54,0,0,0-1.87,1.4.54.54,0,0,0,.54.55,1.38,1.38,0,0,0,1.33-1.21.89.89,0,0,0-1.1-1,1.18,1.18,0,0,0-.88,1.3,1.08,1.08,0,0,0,1.4.75,1.2,1.2,0,0,0-.51-2.34,1.3,1.3,0,0,0-.15,2.57c.38,0,.59-.44.42-.73a1.38,1.38,0,0,1-.15-.4.41.41,0,0,1,0-.19s0,.09,0,0,0,.07,0,0,0-.19,0-.13a.06.06,0,0,1-.06,0l.18.27c-.1-.19.3.27-.06,0l-.27-.34a.25.25,0,0,1-.18.33l.54.54a.52.52,0,0,1,.66-.45l-.46-.36c.1.32-.31.6-.6.52l.18.18c-.06-.22-.13-.43-.21-.64s-.16-.1-.18,0Z"/><path class="cls-8" d="M105.33,14.58a1,1,0,0,0-.15,1.48,1,1,0,0,0,1.75-.29,1.33,1.33,0,0,0-.74-1.71.79.79,0,0,0-1,.26.73.73,0,0,0,.28,1c.38.2.94-.13.78-.6l-.16.42-.48.06c.17,0,.31,0,.25.19,0,0,.06,0,.05,0a.49.49,0,0,1-.15-.1c-.09-.1-.18-.26-.13-.37a.24.24,0,0,0-.32-.32Z"/><path class="cls-8" d="M87,94.67a1.37,1.37,0,0,0,0,.28c0,.22.37.22.34,0a1.37,1.37,0,0,0,0-.28.13.13,0,0,0-.24,0Z"/><path class="cls-8" d="M87.1,96.19a1,1,0,0,0,0-2,1,1,0,0,0,0,2Z"/><path class="cls-8" d="M115.1,96.39a1.19,1.19,0,0,0,0-2.38,1.19,1.19,0,0,0,0,2.38Z"/><path class="cls-9" d="M88.62,66.49c-.4.46-1,1.06-1.08,1.69a.27.27,0,0,0,.4.23c.53-.27.84-1.1,1.09-1.61.12-.24-.2-.54-.41-.31Z"/><path class="cls-9" d="M90.57,66.46a2.66,2.66,0,0,1-.45,1.36c-.09.19.06.47.3.39a1.39,1.39,0,0,0,.67-1.83c-.09-.26-.54-.24-.52.08Z"/><path class="cls-9" d="M92.87,66.71a2,2,0,0,1-.46,1.14.23.23,0,0,0,.25.33,1.09,1.09,0,0,0,.61-1.58c-.09-.21-.41-.1-.4.11Z"/><path class="cls-9" d="M115.42,63.75a1.37,1.37,0,0,0,1.47,1.17c.17,0,.17-.27,0-.35a2.51,2.51,0,0,1-1.12-1c-.11-.22-.47-.06-.4.17Z"/><path class="cls-9" d="M117.53,63.39c.34.44.67,1,1.21,1.2a.4.4,0,0,0,.49-.49c-.2-.55-.75-.87-1.2-1.21-.28-.22-.72.21-.5.5Z"/><path class="cls-9" d="M119.47,62.82c.31.34,1.42,1.95,2,1s-1.3-1.22-1.76-1.39c-.21-.08-.33.21-.2.35Z"/><path class="cls-10" d="M66.6,34.94C62.13,20,75.3,9.07,88.41,5.69,100.55,2.56,122.46.52,125.35,17.2c.07.38.63.21.57-.16C123.23-.1,100.58,1.94,88.26,5.12,75.33,8.45,60.79,20,66.22,35.05a.2.2,0,0,0,.38-.11Z"/><path class="cls-10" d="M68.73,43.84s0,0,0,0,0,0,0,0Z"/><path class="cls-10" d="M68.71,43.86c-1.63,17.87,29.44,12.34,38.84,9.91,12.09-3.13,30.83-13.34,22.31-28.68-.22-.4-.84,0-.62.36,8.35,15-10.18,24.71-21.86,27.7C97.11,55.77,69.41,61,69,43.86a.14.14,0,0,0-.28,0Z"/><path class="cls-10" d="M82.6,21.59A3,3,0,0,1,86.29,23a2.58,2.58,0,0,1-1.57,3.6,2.41,2.41,0,0,1-3.2-1.38,3.09,3.09,0,0,1,.9-3.38.28.28,0,0,0-.34-.44c-1.49.77-1.75,2.9-1.08,4.3A3,3,0,0,0,85.17,27a3.06,3.06,0,0,0,1.58-4.12,3.36,3.36,0,0,0-4.28-1.57c-.18.07,0,.38.13.31Z"/><path class="cls-10" d="M105,13.59a3.33,3.33,0,0,0-1.87,4.27,3.51,3.51,0,0,0,4.39,1.89,3.57,3.57,0,0,0,2-4.42,3.6,3.6,0,0,0-4.45-2c-.43.14-.24.82.19.68a3,3,0,0,1,3.53,1.3,2.82,2.82,0,1,1-5.11,2.37,3.18,3.18,0,0,1,1.45-3.86c.11-.07,0-.28-.09-.23Z"/><path class="cls-10" d="M98.2,25.52c-1.06-.73-2.36.48-2.06,1.62a2.17,2.17,0,0,0,1.31,1.38,3.24,3.24,0,0,0,2.61-.06A.25.25,0,0,0,100,28c-.83-.28-1.7.24-2.54-.28-.4-.25-.81-.74-.61-1.24a.67.67,0,0,1,1-.36c.38.26.73-.35.36-.61Z"/><path class="cls-10" d="M98.43,28.07a2.3,2.3,0,0,0,0,4,2.4,2.4,0,0,0,2.38-.21c.63-.41,1.25-1.21.88-2a.24.24,0,0,0-.4,0,3.74,3.74,0,0,1-.86,1.29,1.59,1.59,0,0,1-1.67.19,1.84,1.84,0,0,1-.08-2.9c.19-.17-.05-.43-.25-.33Z"/><path class="cls-10" d="M82.25,30.37a6.77,6.77,0,0,1-.3,1.35c-.16.42.4.61.67.39l.32-.27c.39-.34-.17-.88-.57-.56a2.61,2.61,0,0,0-.31.27l.67.28a7.85,7.85,0,0,1,.13-1.37c0-.35-.55-.43-.61-.09Z"/><path class="cls-10" d="M83.93,31.9a.39.39,0,0,0,0-.77.39.39,0,0,0,0,.77Z"/><path class="cls-10" d="M85.12,30.67a.53.53,0,0,1,.31.65l.6-.16a.23.23,0,0,1-.11-.29l-.49.28a4.1,4.1,0,0,0,.86.05.21.21,0,0,0,.1-.39,3.34,3.34,0,0,0-.65-.4c-.22-.09-.55,0-.59.24a1,1,0,0,0,.44,1.08.37.37,0,0,0,.54-.31,1.16,1.16,0,0,0-.82-1.2c-.26-.1-.45.33-.19.45Z"/><path class="cls-10" d="M109,21.25a.72.72,0,0,0,.79,1,.77.77,0,0,0,.29-1.29.46.46,0,0,0-.76.45,1.41,1.41,0,0,0,.52.89.25.25,0,0,0,.34-.09,1.39,1.39,0,0,0,0-1l-.76.44c0-.13,0-.2.24-.2,0-.34-.52-.53-.68-.18Z"/><path class="cls-10" d="M110,20.59c.44.13.87.28,1.31.42a1.24,1.24,0,0,0,1,0,.31.31,0,0,0,.11-.42,1.15,1.15,0,0,0-.91-.46l-1.35-.26a.36.36,0,0,0-.19.69Z"/><path class="cls-10" d="M111.91,19.16c.57.21,1.15.41,1.73.6s.69-.5.32-.75l-.75-.52c-.39-.26-.87.36-.51.66a3.78,3.78,0,0,0,1.59,1c.15,0,.34-.1.28-.27a3.55,3.55,0,0,0-1.27-1.34l-.51.66.75.5.32-.75c-.59-.16-1.18-.32-1.77-.46a.34.34,0,0,0-.18.65Z"/><path class="cls-10" d="M66.9,35.82a2.12,2.12,0,0,1,1.32.48A3.52,3.52,0,0,1,69,37.4a.14.14,0,0,0,.26-.07c0-1.06-1.38-1.77-2.31-1.75a.12.12,0,1,0,0,.24Z"/><path class="cls-10" d="M71,38.71a17.17,17.17,0,0,0,7.15,1.82c.21,0,.27-.35,0-.38a24.94,24.94,0,0,1-7-1.75c-.21-.09-.4.21-.18.31Z"/><path class="cls-10" d="M82.63,40.34a32.25,32.25,0,0,0,6.58.25c.16,0,.15-.28,0-.31a32.13,32.13,0,0,0-6.58-.3.18.18,0,0,0,0,.36Z"/><path class="cls-10" d="M96.3,38.81c2.81-.55,6-1.18,8.4-2.72a.16.16,0,0,0-.12-.3c-2.84.74-5.51,2-8.39,2.61-.27.06-.15.46.11.41Z"/><path class="cls-10" d="M108.27,33.12l.27.25s.08,0,0,0l-.26-.26a0,0,0,0,0-.06.06Z"/><path class="cls-10" d="M109.88,33.66a20.75,20.75,0,0,0,8-4.07c.21-.18-.09-.47-.3-.3a23.22,23.22,0,0,1-7.77,4.18c-.11,0-.07.22,0,.19Z"/><path class="cls-10" d="M120.68,26.35c2.14-2.57,4.49-5.08,6.38-7.84.09-.13-.11-.28-.22-.16-2.32,2.38-4.31,5.17-6.4,7.76-.13.17.1.41.24.24Z"/><path class="cls-10" d="M66,37.22c2,4.47,8,4.69,12.35,5a57.65,57.65,0,0,0,19-1.79,59.06,59.06,0,0,0,31.39-20.68.25.25,0,1,0-.4-.31A57.15,57.15,0,0,1,100.75,39,57.18,57.18,0,0,1,85,41.91c-5.47.23-15.65.67-18.76-4.8-.06-.12-.23,0-.18.11Z"/><path class="cls-10" d="M68.15,41.14c22,7.62,46.39-.11,61.28-17.59.17-.2-.12-.49-.3-.29-15.24,18.05-38.45,24-60.89,17.58a.16.16,0,0,0-.09.3Z"/><path class="cls-10" d="M129.05,23.57c-.25-.88-.46-1.77-.72-2.64-.12-.4-.75-.23-.63.17.26.88.57,1.74.83,2.61a.27.27,0,0,0,.52-.14Z"/><path class="cls-10" d="M68,40.66c-1,2.22,1.94,3.26,3.54,3.94a29.88,29.88,0,0,0,11.38,2.33c.19,0,.19-.29,0-.3-2.19-.08-16.07-1.48-14.72-5.88,0-.12-.15-.2-.2-.09Z"/><path class="cls-10" d="M82.89,46.72a46.94,46.94,0,0,0,26.3-4.53c.17-.07,0-.31-.14-.24a54.41,54.41,0,0,1-26.16,4.56c-.13,0-.13.19,0,.21Z"/><path class="cls-10" d="M112,40.7s0,0,0,0a0,0,0,1,0,0,0Z"/><path class="cls-10" d="M112.12,41a90.24,90.24,0,0,0,12.19-8.61c2.61-2.21,5.47-4.57,5.85-8.16a.13.13,0,0,0-.25,0c-.9,4.1-4.24,6.68-7.34,9.2A91.85,91.85,0,0,1,112,40.72c-.15.09,0,.32.13.23Z"/><path class="cls-10" d="M67.82,39a2.12,2.12,0,0,0,0,2.33.23.23,0,0,0,.39-.22,5.19,5.19,0,0,1-.31-.86,1.76,1.76,0,0,1,.21-1.1.15.15,0,0,0-.25-.15Z"/><path class="cls-10" d="M69.17,21.26c-1.6,2.24-1.54,5.72.66,7.58a.22.22,0,0,0,.31-.3,5.78,5.78,0,0,1-.66-7.11c.12-.19-.18-.36-.31-.17Z"/><path class="cls-10" d="M119.64,10.66a6.47,6.47,0,0,1-.35,7.06c-.2.29.26.64.48.37a6.25,6.25,0,0,0,.26-7.66.23.23,0,0,0-.39.23Z"/><path class="cls-10" d="M127.39,32.52c-.37.79-.7,1.57-1,2.38a4.76,4.76,0,0,0-.6,2.17c0,.12.16.13.23.07a4.52,4.52,0,0,0,.86-1.93c.29-.86.53-1.71.75-2.59,0-.13-.17-.23-.23-.1Z"/><path class="cls-10" d="M124.28,39.75c-.3.4-.79.78-.7,1.31,0,.14.19.2.31.18.49-.09.73-.76,1-1.15s-.33-.68-.59-.34Z"/><path class="cls-10" d="M106.2,45.68a0,0,0,0,0,0,0s0,0,0,0Z"/><path class="cls-10" d="M71.56,48.73a7.08,7.08,0,0,0,5.3,3.8c.38,0,.46-.58.09-.67A7.27,7.27,0,0,1,72,48.45a.28.28,0,0,0-.48.28Z"/><path class="cls-10" d="M76.82,14.44a33.56,33.56,0,0,1,20-7.57.47.47,0,0,0,0-.93,31.52,31.52,0,0,0-20.52,7.93c-.39.35.17.88.57.57Z"/><path class="cls-10" d="M81.35,21.43a1.72,1.72,0,0,0,1,2.41,1.55,1.55,0,0,0,1.42-.4,1.87,1.87,0,0,0,.57-1.6.25.25,0,1,0-.47.13c.38.84-.78,1.74-1.54,1.49a1.37,1.37,0,0,1-.73-1.87.16.16,0,0,0-.28-.16Z"/><path class="cls-10" d="M103.84,15.92a.13.13,0,1,0,0-.25.13.13,0,0,0,0,.25Z"/><path class="cls-10" d="M103.41,15.62a2.06,2.06,0,0,0,3.1,1.27c.92-.69,1.21-2.91-.15-3.31a.24.24,0,0,0-.26.35,3.14,3.14,0,0,1,.63,1.09,1.55,1.55,0,0,1-.48,1.48,1.63,1.63,0,0,1-2.5-1c0-.22-.38-.13-.34.09Z"/><path class="cls-10" d="M68.92,49a10.74,10.74,0,0,0-1.85,10.54c.11.26.5.17.42-.11a11,11,0,0,1,1.79-10.07c.19-.25-.16-.61-.36-.36Z"/><path class="cls-10" d="M126,44.44a23.23,23.23,0,0,1,4.52,16.91.14.14,0,0,0,.28,0,18,18,0,0,0-4.57-17.13c-.11-.11-.33,0-.23.18Z"/><path class="cls-10" d="M68.92,68.44c-1.23,17.15,19.42,21.74,32.47,20.78,14-1,30.52-7.29,32-23.37,0-.34-.51-.34-.54,0-1.37,15.81-17.73,21.79-31.41,22.79-14,1-31.44-3.36-32.17-20.2a.15.15,0,0,0-.3,0Z"/><path class="cls-10" d="M90.07,64.56a1.74,1.74,0,0,1,.48-2.46c1.11-.62,2.3.56,2.22,1.66,0,.57.82.55.88,0A2.39,2.39,0,1,0,89.47,65c.27.33.86-.11.6-.47Z"/><path class="cls-10" d="M115,61.12a2.19,2.19,0,0,1,.21-.4,2.26,2.26,0,0,1,.5-.79,1.49,1.49,0,0,1,1.76-.32,1.52,1.52,0,0,1,.65,1.31,2.62,2.62,0,0,1-.51,1.4c-.12.13,0,.41.19.33.37-.14.61-.2.82-.56a2.39,2.39,0,0,0,.29-1.17,2.32,2.32,0,0,0-1-2,2.19,2.19,0,0,0-2.34.2,2.28,2.28,0,0,0-.79,1,1.54,1.54,0,0,0-.14.55c0,.24.14.3.19.51s.21.09.22,0Z"/><path class="cls-10" d="M98,67.36a10.72,10.72,0,0,0,12.15-2.07c.32-.31-.17-.8-.5-.49-3.25,3-7.37,3.52-11.48,2.16a.22.22,0,0,0-.17.4Z"/><path class="cls-10" d="M67.35,59.87a27.65,27.65,0,0,0,4.9,3.33c.13.08.29-.11.16-.21a28.36,28.36,0,0,0-4.91-3.31c-.12-.06-.26.09-.15.19Z"/><path class="cls-10" d="M73.31,65a33,33,0,0,0,20.31,5.85.14.14,0,0,0,0-.28,39.58,39.58,0,0,1-20.17-5.82c-.15-.09-.29.14-.14.25Z"/><path class="cls-10" d="M98.07,70.52a65.62,65.62,0,0,0,20.27-3.62c.09,0,.06-.18,0-.15A93.71,93.71,0,0,1,98.07,70.2c-.2,0-.21.33,0,.32Z"/><path class="cls-10" d="M121.23,66c3.23-1.46,6.54-2.82,9.7-4.44.12-.07,0-.29-.1-.24-3.3,1.34-6.5,3-9.72,4.48-.14.07,0,.27.12.2Z"/><path class="cls-10" d="M66.85,60.6c10.36,12,28.07,15.25,42.63,10.08.24-.09.13-.49-.11-.39-15.06,5.73-31,1-42.34-9.87-.12-.11-.28.06-.18.18Z"/><path class="cls-10" d="M107,71.58c4.91.12,9.5-1.37,14-3.33,3.41-1.5,8.38-3,10.34-6.41a.23.23,0,0,0-.4-.24c-1.9,3.31-7.66,5.22-10.92,6.6a38.55,38.55,0,0,1-13,3.06.16.16,0,0,0,0,.32Z"/><path class="cls-10" d="M68.55,62.38a8.19,8.19,0,0,0,0,4.31.23.23,0,0,0,.44-.12,8.93,8.93,0,0,1,0-4.08.19.19,0,0,0-.36-.11Z"/><path class="cls-10" d="M69.65,67c.42-1.79-2.26-1.47-1.68.6.68,2.46,6.25,4.65,8.21,5.62A46.83,46.83,0,0,0,89.65,77.5c.27,0,.4-.37.12-.42a50.92,50.92,0,0,1-10-2.79c-2.47-1-10.6-3.94-10.36-7.31,0,.14.22.17.25,0Z"/><path class="cls-10" d="M92.57,77.83a64.09,64.09,0,0,0,22.31-2.18.16.16,0,0,0-.08-.3,80.77,80.77,0,0,1-22.23,2.16c-.2,0-.2.31,0,.32Z"/><path class="cls-10" d="M117.49,74.55a27.41,27.41,0,0,0,14.23-10.1c.12-.15-.11-.36-.26-.26a60.92,60.92,0,0,1-62.72,2.44c-.3-.17-.57.29-.27.45a61.1,61.1,0,0,0,37.37,7.11,60.22,60.22,0,0,0,17.78-5.1q2.1-1,4.11-2.12,1.33-.77,2.64-1.59a9.09,9.09,0,0,1-1.79,2.21,26.73,26.73,0,0,1-11.18,6.66.16.16,0,0,0,.09.3Z"/><path class="cls-10" d="M131.73,67a.78.78,0,0,0-.21-1.44.24.24,0,0,0-.2.12h0a.12.12,0,0,0,0,.2c0-.09,0-.11,0,0l0,.09a.74.74,0,0,1,.12.13c.1.15.23.36,0,.47s0,.64.29.48Z"/><path class="cls-10" d="M70.14,53.43a4.73,4.73,0,0,0-.22,3.39c.26.78.94,2.29,1.9,2.24a.23.23,0,0,0,.22-.28,1.25,1.25,0,0,0-.48-.71,4,4,0,0,1-.92-1.45,4.6,4.6,0,0,1-.09-3c.08-.24-.31-.41-.41-.17Z"/><path class="cls-10" d="M126.18,48.74a4,4,0,0,1,1.46,2.82,6.44,6.44,0,0,1-.69,2.71c-.09.26.25.38.42.24,1.92-1.53.89-4.93-.74-6.22-.32-.25-.77.19-.45.45Z"/><path class="cls-10" d="M72.44,79.45c-4.31,3.63-4,9.11-3.26,14.21,0,.18.34.14.32,0C69.2,88.82,69,83.36,73,80c.35-.3-.16-.81-.51-.51Z"/><path class="cls-10" d="M128,78.66c3.11,6.12,3.3,11.63,2.46,18.3,0,.23.31.24.38.05,2.23-6,.82-13.26-2.32-18.65a.3.3,0,0,0-.52.3Z"/><path class="cls-10" d="M68.87,93.64a20.92,20.92,0,0,0,13.8,8.22c.21,0,.23-.3,0-.36a39,39,0,0,1-7.5-2.89,37.6,37.6,0,0,1-6.28-5s-.1,0-.07,0Z"/><path class="cls-10" d="M84.76,102.49c7.53,1.85,15.85,2.64,23.5,1.16a.15.15,0,0,0,0-.3c-8,.15-15.43.15-23.35-1.26-.26,0-.37.34-.11.4Z"/><path class="cls-10" d="M110.74,103.53c6.47-1.4,13.29-3.24,19.09-6.53.18-.1.06-.41-.14-.34C123.3,99,117.28,101.54,110.6,103c-.33.08-.19.58.14.51Z"/><path class="cls-10" d="M68,95.4c8.36,7.76,19.87,11.09,31.1,11.23,10.61.12,23.45-1.54,31.45-9.16.28-.26-.14-.68-.42-.42-7.8,7.53-20.64,9.17-31,9a49.46,49.46,0,0,1-30.88-10.9c-.16-.12-.38.08-.22.22Z"/><path class="cls-10" d="M69.29,96.57c.15,5,5.82,8,9.74,10a42.41,42.41,0,0,0,18,4.17A69.71,69.71,0,0,0,119.54,107c5-1.63,10-3.52,11.41-9.14.07-.31-.42-.44-.48-.13-1.08,6.54-9.08,8.38-14.55,9.93a66.55,66.55,0,0,1-17,2.72,43.43,43.43,0,0,1-14.49-2.11c-4.9-1.63-14.13-5.52-14.6-11.65,0-.32-.51-.33-.5,0Z"/><path class="cls-10" d="M69.46,98.68c0-.11,0-.23,0-.35s-.12-.07-.11,0a2,2,0,0,0,0,.35,0,0,0,1,0,.06,0Z"/><path class="cls-10" d="M69.13,98.76c1.16,5,5.67,9.73,11,10.13.11,0,.13-.17,0-.2-5.27-1.46-9.28-4.52-10.76-10a.12.12,0,0,0-.23.07Z"/><path class="cls-10" d="M81.81,110.3A62.3,62.3,0,0,0,104,112.1a.1.1,0,0,0,0-.19,144.11,144.11,0,0,1-22.14-1.86c-.17,0-.24.21-.07.25Z"/><path class="cls-10" d="M106.62,111.64c3.7-.4,28.81-3.47,23.8-11.3-.11-.17-.38,0-.28.16,4.17,7.39-20.18,10.44-23.55,10.9-.14,0-.11.25,0,.24Z"/><path class="cls-10" d="M69.31,98.82a20,20,0,0,0-.31,7.44c0,.31.51.18.46-.12a23.44,23.44,0,0,1,.14-7.24c0-.18-.24-.27-.29-.08Z"/><path class="cls-10" d="M130.11,103.53a8.35,8.35,0,0,1-1.36,9,.15.15,0,0,0,.21.21,7.47,7.47,0,0,0,1.37-9.35c-.07-.11-.27,0-.22.09Z"/><path class="cls-10" d="M68.3,106.61c14.36,20.65,44.25,22.48,62.16,5.6.21-.2-.1-.51-.31-.31-18.62,17.21-46.12,13.91-61.62-5.46-.1-.13-.32,0-.23.17Z"/><path class="cls-10" d="M95.17,121.31c6.92,1.41,14.68,1.41,21.19-1.66.25-.12.07-.49-.18-.43-7.14,1.64-13.49,2.68-20.79,1.28-.53-.1-.75.7-.22.81Z"/><path class="cls-10" d="M84.65,87.65C79.28,90.5,80.38,98.49,86,100.32c6.6,2.15,11.44-5,9.22-10.82-.19-.48-1-.27-.77.21,1.92,5-1.67,11.29-7.54,10.08-6-1.24-6.81-8.55-2.08-11.82a.19.19,0,0,0-.19-.32Z"/><path class="cls-10" d="M111.46,87.73c-2.88,1.42-3.43,5.54-2.35,8.31A6.53,6.53,0,0,0,116,100a6.81,6.81,0,0,0,5.61-6.48,7.35,7.35,0,0,0-5.93-7.2c-.47-.11-.67.62-.2.74a6.63,6.63,0,0,1,5.41,6.11,6.2,6.2,0,0,1-4.43,6c-6.24,1.59-10.37-7.93-4.88-11.19.16-.09,0-.33-.15-.25Z"/><path class="cls-10" d="M95.43,94.21a19.24,19.24,0,0,1,13.26-.9c.37.09.65-.49.27-.65a15.69,15.69,0,0,0-13.8,1.1c-.29.18,0,.58.27.45Z"/><path class="cls-10" d="M95.81,100.65a1.06,1.06,0,0,0,1.18.92c.66,0,.59-.3,1.21-.42,2.78-.54,2,.31,3.64.44a5.81,5.81,0,0,0,1.18,0c.25-.09.5-.18.75-.29a3.84,3.84,0,0,1,3.67.09c1.13.08,1.45.33,2.36-.4.36-.28-.15-.79-.51-.5-1.16.93-2.5-.46-3.66-.48-2-.05-1.68,1.28-4.45.67-.57-.12-1-.54-1.63-.55-1,0-2.86,1.38-3.56.44a.1.1,0,0,0-.18.08Z"/><path class="cls-10" d="M87,93c-1.54-.54-2.22,1.51-1.57,2.63a2.42,2.42,0,0,0,3.64.71,2.49,2.49,0,0,0,0-3.68c-.95-.77-3.16-.78-3.6.61a.31.31,0,0,0,.45.35c.38-.25.61-.57,1.07-.69a2,2,0,0,1,1.2,0,1.68,1.68,0,0,1,.76,2.4,1.64,1.64,0,0,1-2.48.5,1.77,1.77,0,0,1-.77-1.26c0-.62.5-1.46,1.21-1.31A.16.16,0,0,0,87,93Z"/><path class="cls-10" d="M114.66,92.5A2.26,2.26,0,0,0,112.45,95a2.36,2.36,0,0,0,2.91,2A2.41,2.41,0,0,0,117,93.89a2.27,2.27,0,0,0-3.36-1.06c-.42.28,0,1,.4.68a1.49,1.49,0,0,1,2.28.8,1.68,1.68,0,0,1-1.27,2.08A1.74,1.74,0,0,1,113,94.93a2,2,0,0,1,1.75-2.09.17.17,0,0,0,0-.34Z"/><path class="cls-10" d="M119.68,89.08c3.47-2.56,6.73-5.41,10-8.19.32-.26-.14-.71-.45-.45-3.3,2.73-6.67,5.42-9.78,8.36-.15.14,0,.41.21.28Z"/><path class="cls-10" d="M82.36,90.47a78.06,78.06,0,0,0-11.48-7.71c-.39-.23-.7.34-.35.6a78.26,78.26,0,0,0,11.53,7.5c.24.12.53-.19.3-.39Z"/><path class="cls-10" d="M84.78,88.86a5.74,5.74,0,0,0-1.54,8c.08.11.26,0,.19-.11a5.6,5.6,0,0,1,1.46-7.71c.11-.08,0-.27-.11-.19Z"/><path class="cls-10" d="M112.48,88.2c-2.06,1.12-3.72,4-2.78,6.31,0,.14.3.14.28,0-.24-2.48.3-4.73,2.64-6,.16-.08,0-.32-.14-.24Z"/><path class="cls-10" d="M73.65,87.56c0,1.67-.88,3.29-.68,4.94a2.24,2.24,0,0,0,1.93,2.06A1.73,1.73,0,0,0,76.64,93c.29-1.57-.73-3-.75-4.59a.32.32,0,0,0-.63-.08,3.42,3.42,0,0,0,.22,2.37,7.26,7.26,0,0,1,.44,1.44c.09.76-.18,2.66-1.78,1.36s.62-4.27-.22-6a.15.15,0,0,0-.27.07Z"/></svg>