<svg id="carracters" xmlns="http://www.w3.org/2000/svg" viewBox="0 0 198.43 35.43"><defs><style>.cls-1{fill:#fff;}.cls-2{fill:#6e6e6e;opacity:0.5;}</style></defs><path d="M176,7l.28,3.72.46-.57c.08-.11.14-.11.22,0-.21.27-.42.55-.64.81a.19.19,0,0,1-.19,0c-.26-.19-.52-.39-.77-.6,0,0,0-.11,0-.17l.06,0,.68.53L175.87,7Z"/><path d="M184.5,16.53c0,.24.07.45.09.67s0,.43.08.67a38.48,38.48,0,0,1-5.85.72c0,.33,0,.65,0,1,0,.75.08,1.49.1,2.24,0,.15.06.19.19.24a23,23,0,0,1,5.8,3.09s0,0,0,.05l-.9,1.25a20.07,20.07,0,0,0-5-3c0,.41,0,.8,0,1.18a2.65,2.65,0,0,1-1.83,2.56,5.29,5.29,0,0,1-1.17.24,7,7,0,0,1-3.3-.44A2.86,2.86,0,0,1,171,25.41a2.48,2.48,0,0,1,.87-3,5.15,5.15,0,0,1,2.46-1,8.76,8.76,0,0,1,3.14.16l-.08-3h-.6c-1,0-2,0-3.06,0a5.63,5.63,0,0,1-1.85-.36,1.41,1.41,0,0,1-.66-2.19,5.18,5.18,0,0,1,1.56-1.35.14.14,0,0,1,.14,0c.3.18.6.38.92.59l-.21.14-.87.63a1.16,1.16,0,0,0-.2.24.5.5,0,0,0,.27.84,3.84,3.84,0,0,0,1,.19c1.14,0,2.28,0,3.42.05l.07,0-.12-3.75h-7.18V12.29h7.14V9.47l2.05.1c0,.35-.3.39-.54.46v2.24c1.14-.1,2.27-.16,3.39-.29s2.23-.31,3.36-.47l.18,1.3a41.54,41.54,0,0,1-7,.78l.08,3.73A33.57,33.57,0,0,0,184.5,16.53Zm-6.88,6.41-.09,0a7.35,7.35,0,0,0-3.16-.23,3.31,3.31,0,0,0-1.64.68,1.35,1.35,0,0,0-.45,1.58,1.7,1.7,0,0,0,1,.91,5.22,5.22,0,0,0,2.84.32,1.52,1.52,0,0,0,1.43-1.39A16.11,16.11,0,0,0,177.62,22.94Z"/><path class="cls-1" d="M32.5,16.53c0,.24.07.45.09.67s0,.43.08.67a38.48,38.48,0,0,1-5.85.72c0,.33,0,.65,0,1,0,.75.08,1.49.1,2.24,0,.15.06.19.19.24a23,23,0,0,1,5.8,3.09s0,0,0,.05l-.9,1.25a20.07,20.07,0,0,0-5-3c0,.41,0,.8,0,1.18a2.65,2.65,0,0,1-1.83,2.56,5.29,5.29,0,0,1-1.17.24,7,7,0,0,1-3.3-.44A2.86,2.86,0,0,1,19,25.41a2.48,2.48,0,0,1,.87-3,5.15,5.15,0,0,1,2.46-1,8.76,8.76,0,0,1,3.14.16l-.08-3h-.6c-1,0-2,0-3.06,0a5.63,5.63,0,0,1-1.85-.36,1.41,1.41,0,0,1-.66-2.19,5.18,5.18,0,0,1,1.56-1.35.14.14,0,0,1,.14,0c.3.18.6.38.92.59l-.21.14-.87.63a1.16,1.16,0,0,0-.2.24.5.5,0,0,0,.27.84,3.84,3.84,0,0,0,1,.19c1.14,0,2.28,0,3.42.05l.07,0-.12-3.75H18.05V12.29h7.14V9.47l2,.1c0,.35-.3.39-.54.46v2.24c1.14-.1,2.27-.16,3.39-.29s2.23-.31,3.36-.47l.18,1.3a41.54,41.54,0,0,1-7,.78l.08,3.73A33.57,33.57,0,0,0,32.5,16.53Zm-6.88,6.41-.09,0a7.35,7.35,0,0,0-3.16-.23,3.31,3.31,0,0,0-1.64.68,1.35,1.35,0,0,0-.45,1.58,1.7,1.7,0,0,0,1,.91,5.22,5.22,0,0,0,2.84.32,1.52,1.52,0,0,0,1.43-1.39A16.11,16.11,0,0,0,25.62,22.94Z"/><path class="cls-2" d="M148.35,16.53c0,.24.06.45.09.67s.05.43.08.67a38.76,38.76,0,0,1-5.86.72c0,.33,0,.65,0,1,0,.75.07,1.49.1,2.24,0,.15.06.19.18.24a23,23,0,0,1,5.8,3.09l.05.05-.9,1.25a20.25,20.25,0,0,0-5-3c0,.41,0,.8,0,1.18A2.64,2.64,0,0,1,141,27.17a5.07,5.07,0,0,1-1.17.24,7,7,0,0,1-3.3-.44,2.81,2.81,0,0,1-1.68-1.56,2.48,2.48,0,0,1,.87-3,5.08,5.08,0,0,1,2.46-1,8.78,8.78,0,0,1,3.14.16l-.08-3h-.6c-1,0-2,0-3.06,0a5.63,5.63,0,0,1-1.85-.36,1.41,1.41,0,0,1-.66-2.19,5.18,5.18,0,0,1,1.56-1.35s.1,0,.14,0c.3.18.59.38.92.59a1.4,1.4,0,0,0-.22.14l-.87.63a.88.88,0,0,0-.19.24.5.5,0,0,0,.26.84,3.91,3.91,0,0,0,1,.19c1.14,0,2.28,0,3.42.05l.06,0-.12-3.75H133.9V12.29H141V9.47l2.06.1c-.05.35-.31.39-.55.46v2.24c1.14-.1,2.27-.16,3.39-.29s2.23-.31,3.37-.47l.18,1.3a41.54,41.54,0,0,1-7,.78l.07,3.73A33.82,33.82,0,0,0,148.35,16.53Zm-6.88,6.41-.1,0a7.35,7.35,0,0,0-3.16-.23,3.28,3.28,0,0,0-1.63.68,1.35,1.35,0,0,0-.45,1.58,1.68,1.68,0,0,0,1,.91,5.2,5.2,0,0,0,2.84.32,1.52,1.52,0,0,0,1.43-1.39C141.47,24.16,141.45,23.54,141.47,22.94Z"/><path class="cls-2" d="M110.18,16.53c0,.24.07.45.09.67s0,.43.08.67a38.48,38.48,0,0,1-5.85.72c0,.33,0,.65,0,1,0,.75.08,1.49.1,2.24,0,.15.06.19.19.24a23,23,0,0,1,5.8,3.09s0,0,0,.05l-.9,1.25a20.07,20.07,0,0,0-5-3c0,.41,0,.8,0,1.18a2.65,2.65,0,0,1-1.83,2.56,5.29,5.29,0,0,1-1.17.24,7,7,0,0,1-3.3-.44,2.86,2.86,0,0,1-1.69-1.56,2.48,2.48,0,0,1,.87-3,5.15,5.15,0,0,1,2.46-1,8.76,8.76,0,0,1,3.14.16l-.08-3h-.6c-1,0-2,0-3.06,0a5.63,5.63,0,0,1-1.85-.36,1.41,1.41,0,0,1-.66-2.19,5.18,5.18,0,0,1,1.56-1.35.14.14,0,0,1,.14,0c.3.18.6.38.92.59l-.21.14-.87.63a1.16,1.16,0,0,0-.2.24.5.5,0,0,0,.27.84,3.84,3.84,0,0,0,1,.19c1.14,0,2.28,0,3.42.05l.07,0-.12-3.75H95.73V12.29h7.14V9.47l2,.1c0,.35-.3.39-.54.46v2.24c1.14-.1,2.27-.16,3.39-.29s2.23-.31,3.36-.47l.18,1.3a41.54,41.54,0,0,1-7,.78l.08,3.73A33.57,33.57,0,0,0,110.18,16.53Zm-6.88,6.41-.09,0a7.35,7.35,0,0,0-3.16-.23,3.31,3.31,0,0,0-1.64.68A1.35,1.35,0,0,0,98,24.93a1.7,1.7,0,0,0,1,.91,5.22,5.22,0,0,0,2.84.32,1.52,1.52,0,0,0,1.43-1.39A16.11,16.11,0,0,0,103.3,22.94Z"/><path d="M149.32,11.47l.18,1.35-1.37.25a46.14,46.14,0,0,1-5.39.5c-.87,0-1.75.07-2.62.08-1.17,0-2.34,0-3.51,0-.85,0-1.7,0-2.55,0h-.15V12.29A73.73,73.73,0,0,0,149.32,11.47Z"/><path d="M95.72,12.27c.66,0,1.29.06,1.91.06h3.94c.9,0,1.81,0,2.72-.09a44.77,44.77,0,0,0,4.91-.44c.64-.09,1.27-.22,1.94-.34l.19,1.35-1.12.22a46.42,46.42,0,0,1-5.63.54c-.88,0-1.75.07-2.63.08-1.17,0-2.34,0-3.51,0l-2.5,0c-.16,0-.23,0-.22-.22C95.73,13,95.72,12.66,95.72,12.27Z"/><path d="M137.72,15.3c-.29.19-.56.35-.81.55a2.37,2.37,0,0,0-.5.55.44.44,0,0,0,.24.71,4.85,4.85,0,0,0,1.18.24c1.12,0,2.23.08,3.34,0,1.49-.07,3-.19,4.47-.35.86-.09,1.71-.3,2.56-.46l.18,0,.16,1.34c-.57.1-1.12.22-1.67.28-1.28.15-2.56.29-3.85.4-.67.06-1.34.06-2,.07-.91,0-1.81,0-2.71,0a7.84,7.84,0,0,1-2.49-.38,1.42,1.42,0,0,1-.64-2.29,5.85,5.85,0,0,1,1.5-1.26.18.18,0,0,1,.16,0C137.13,14.91,137.42,15.1,137.72,15.3Z"/><path d="M174.9,20.41l-.14-.44.05-.06c.05,0,.13.06.15.11s.12.34.18.5a.16.16,0,0,1-.1.24l-.62.22c-.14-.16,0-.19.09-.23a.92.92,0,0,0,.28-.14,4.38,4.38,0,0,0-.51,0,4.63,4.63,0,0,0-3.78,1.61,2.79,2.79,0,0,0-.75,2.15,3.12,3.12,0,0,0,.92,1.84,5.08,5.08,0,0,0,2.06,1.29l0,.14-.05,0a5,5,0,0,1-2.3-1.55,3,3,0,0,1,.18-4.2,4.92,4.92,0,0,1,4.08-1.46h.3Z"/><path d="M135,15.24c.08.12,0,.18-.07.22a2.51,2.51,0,0,0-1.08.77,1.44,1.44,0,0,0,0,2,2.45,2.45,0,0,0,2,.84l0-.19c.48.06.51.13.32.6-.2,0-.14-.11-.13-.17a11.36,11.36,0,0,1-1.19-.18,2.34,2.34,0,0,1-1.39-1,1.65,1.65,0,0,1,.16-2.07A2.87,2.87,0,0,1,135,15.24Z"/><path d="M94.42,10.54l3.69.13-.66-.6.18-.12h0l.69.69c.08.07.1.14,0,.22-.25.24-.49.49-.74.74l-.18-.16.65-.51,0-.08c-.17,0-.35,0-.53,0l-3-.09C94.45,10.73,94.36,10.73,94.42,10.54Z"/></svg>