<svg id="illustration" xmlns="http://www.w3.org/2000/svg" viewBox="0 0 222.94 128.24"><defs><style>.cls-1{fill:#231f20;}.cls-2{fill:#217b3d;}.cls-3{fill:none;}.cls-4{fill:#3e6932;}.cls-5{fill:#fff;}.cls-6{opacity:0.6;}.cls-7{fill:#e1e31b;}.cls-8{fill:#010101;}</style></defs><path class="cls-1" d="M92.79,95.22l-.34-.33s-.1,0-.06.07.21.23.32.34.14,0,.08-.08Z"/><path class="cls-2" d="M164,38.68,149,22.07S131.88,6.89,123.59,3.14c19.77-4,33.78,12.74,33.78,12.74S166.17,27.55,164,38.68Z"/><path class="cls-2" d="M140.11,41.09s-9.11-11.41-17.89-14-21.84-4.32-30.07-3-12,4.26-12,4.26l-2.06.45s14.71,11.65,26.73,12.68S122.84,47.23,140.11,41.09Z"/><path class="cls-2" d="M97.61,48.35s-28-18.9-34.15-19.58S35.75,16.64,25.31,17c7.53,13.29,20.21,21.69,20.21,21.69S65.1,48.86,73.28,49.61C81.29,50.35,97.61,48.35,97.61,48.35Z"/><path class="cls-2" d="M89.7,56.49c.24-1.16-20.25-3.41-31.53-1.85S27,63.71,26,67L4.7,83.8C5,84.52,30.45,82,47.06,73.22,71.24,64.19,89.7,56.49,89.7,56.49Z"/><path class="cls-2" d="M85.48,67c.17-.61-39.23,25.19-39.23,25.19l-13.41,9.72s6.78,3.82,21-1.51c12.53-4.69,20.93-18.51,21.79-18.21l8-11.55Z"/><path class="cls-3" d="M25.17,86.66l.25-1"/><path class="cls-2" d="M109.3,62.3a.31.31,0,0,0,0-.61.31.31,0,0,0,0,.61Z"/><path class="cls-2" d="M108.81,62.24V62l-6.91,8s3.32,7.7,3.41,12.2S100,96,94.53,96.7s-4.12-.9-4-.23-.47,10.76,2.17,20.35,3.91,10.84,3.91,10.84a69.89,69.89,0,0,0,11.56-27.3c1.93-10.92,2.35-14.57,2.76-15.56a2.79,2.79,0,0,0,0-2c-1.17-3.33-3.06-10.38-.37-15.36l-1.83-5.19"/><path class="cls-4" d="M92.42,66.3S80.74,74,81.29,83.59,87.58,96.11,91.5,96.85s13.32-5.76,13.08-12.55-2.19-13.07-4.26-14.59S92.42,66.3,92.42,66.3Z"/><path class="cls-4" d="M119,57.1s-8.75,7.1-9.41,14.13S111.15,88.44,119,89.6s15-9.25,15-9.25,2.68-7.25,1.79-9.75-4.7-10.12-6.44-10.76l-7.6-2.74Z"/><path class="cls-4" d="M149.08,57.73s9.32.27,12.2,1.82,6.63,7.62,6.13,10.91-4,12.63-8,15-9,4.68-12.22,3-8-7.87-8.32-10.48-.16-12.25,1-14,4-5.59,5.41-6.24S149.08,57.73,149.08,57.73Z"/><path class="cls-5" d="M129.69,69.59c-1.33,0-1.71,1.74-1.09,2.67a2,2,0,0,0,3,.27,1.93,1.93,0,0,0-.72-3,1.85,1.85,0,0,0-1.83.38,1.21,1.21,0,0,0-.16,1.65.49.49,0,0,0,.67,0c.21-.17.56-.7.89-.59s.32.63.1.83a.78.78,0,0,1-1.16-.15c-.42-.61,0-1.17.42-1.63a.23.23,0,0,0-.16-.38Z"/><path class="cls-5" d="M129.91,70.75a.68.68,0,0,0-.65.85,1,1,0,0,0,1.25.68,1,1,0,0,0,.69-1.42.88.88,0,0,0-1.51,0c-.48.67.67,1.36,1.12.65a.91.91,0,0,0-.8-.31q-.18,0,0,0a.25.25,0,0,0-.07-.48Z"/><path class="cls-5" d="M144.82,72.33a4.29,4.29,0,0,0,2.62-1.47c.42-.47-.16-1.36-.72-.93-.41.3-.77.66-1.19,1a4.74,4.74,0,0,0-1,1,.33.33,0,0,0,.29.49Z"/><path class="cls-5" d="M146.64,70.56c0,.39.23.77.13,1.16a.81.81,0,0,1-.31.44c-.07,0-.19.07-.26.12s0,0-.1.23a.73.73,0,0,0-.88-.89.73.73,0,0,0-.32,1.21,1.64,1.64,0,0,0,2.56-.24c.48-.66.51-2.23-.59-2.26a.24.24,0,0,0-.23.23Z"/><path class="cls-5" d="M145.79,72.76a5.28,5.28,0,0,0,1.37-.67.53.53,0,0,0,.27-.47v-.11a.43.43,0,0,0-.31-.41.74.74,0,0,0-.77.3,3.22,3.22,0,0,1-.89.57c-.45.2-.13.94.34.79Z"/><path class="cls-5" d="M161,70c-1.07.62-1.59,2.58-.1,3.07s2.72-.88,3-2.13c.15-.7-.92-1-1.06-.3a1.83,1.83,0,0,1-1.34,1.46c-1.25.32-.32-1.4-.19-1.86A.21.21,0,0,0,161,70Z"/><path class="cls-5" d="M163.17,70.5a4.79,4.79,0,0,1-1.31-.43.65.65,0,0,0-.66.17.68.68,0,0,0-.17.67.7.7,0,0,0,.65.5,5,5,0,0,0,1.58-.24c.39-.09.28-.64-.09-.67Z"/><path class="cls-5" d="M161,71.18c-.12.23-.28.43-.4.66a.5.5,0,0,0,.42.74,1.09,1.09,0,0,0,1.17-.89.58.58,0,0,0-.15-.56.74.74,0,0,0-1.18.86c.41.85,1.53.36,1.68-.4a.55.55,0,1,0-.87.4c.26.16.52,0,.73-.16l-.76-.76a.77.77,0,0,0-.06,1l-.41-.17.06,0-.15-.56c0,.15,0,.18-.19.22l.63.47c0-.25,0-.5,0-.75s-.43-.4-.56-.15Z"/><path class="cls-1" d="M129.92,72.09a.83.83,0,0,0,0-1.66.83.83,0,0,0,0,1.66Z"/><path class="cls-5" d="M113.66,69.32c-1.34,0-1.72,1.74-1.1,2.67a2,2,0,0,0,3,.27,1.93,1.93,0,0,0-.72-3.05,1.88,1.88,0,0,0-1.83.38,1.22,1.22,0,0,0-.16,1.65.49.49,0,0,0,.67,0c.21-.17.57-.7.9-.59s.31.63.1.84a.79.79,0,0,1-1.16-.16c-.43-.61,0-1.17.42-1.62a.23.23,0,0,0-.16-.39Z"/><path class="cls-1" d="M113.88,71.82a.83.83,0,0,0,0-1.66.83.83,0,0,0,0,1.66Z"/><path class="cls-1" d="M146.36,71.46c-.59-.42-1,.81-.19.91s.87-1.36,0-1.3-.87,1.57.11,1.41a.7.7,0,0,0,.61-.83.86.86,0,0,0-1-.5.5.5,0,0,0-.34.34v.08a.42.42,0,0,0,.28.5c.09,0,.3,0,.33.05l-.14-.34c.2.11.34.1.44,0a.17.17,0,0,0,0-.29Z"/><path class="cls-1" d="M161.36,71a1.34,1.34,0,0,0-.32.64.37.37,0,0,0,.17.4c.6.27,1.35-.28,1-.95a.76.76,0,0,0-1.4.16.71.71,0,0,0,1.16.69.66.66,0,0,0-.81-1,.45.45,0,0,0,.34.81l-.1-.34.34.26.09-.28c.17-.28-.24-.62-.46-.36Z"/><path class="cls-1" d="M96.19,94.18a7.06,7.06,0,0,0,2.62-1.83,4.57,4.57,0,0,0,1.39-2.52.3.3,0,0,0-.51-.21A15.37,15.37,0,0,0,98,91.87a22.64,22.64,0,0,1-2,2c-.15.13,0,.33.21.26Z"/><path class="cls-1" d="M122.93,87.36c1.23.45,2.57-.53,3.53-1.2a9.91,9.91,0,0,0,3.18-3.26c.09-.16-.1-.4-.27-.27-2,1.48-3.87,4-6.44,4.37-.2,0-.15.3,0,.36Z"/><path class="cls-1" d="M149.67,87.68c1.7-.09,3.79-.42,5-1.8.25-.29,0-.83-.41-.69-1.59.51-3,1.41-4.66,1.67-.47.07-.36.85.11.82Z"/><g class="cls-6"><path class="cls-5" d="M86.86,74.89c.51-.29.71-.73,1.11-1.16a7.81,7.81,0,0,1,1.78-1.22,12.8,12.8,0,0,1,3.68-1.64,1,1,0,0,0-.52-1.9,9.41,9.41,0,0,0-4.25,2.13A12.73,12.73,0,0,0,87.25,73a3,3,0,0,0-.81,1.64.28.28,0,0,0,.42.24Z"/></g><g class="cls-6"><path class="cls-5" d="M115,64.87c1-.65,1.58-1.74,2.59-2.41a9.94,9.94,0,0,1,3.5-1.3,1,1,0,0,0-.25-1.86c-2.52.09-6.59,2.19-6.86,5a.68.68,0,0,0,1,.58Z"/></g><g class="cls-6"><path class="cls-5" d="M148.78,60.57c2,1,4.66.23,6.89.75A12.18,12.18,0,0,1,162,65c.86.94,2.25-.46,1.39-1.39a14,14,0,0,0-6.69-4.08c-2.33-.63-6-1.35-8,.37a.43.43,0,0,0,.09.67Z"/></g><g class="cls-6"><path class="cls-5" d="M142.47,77.7a4.5,4.5,0,0,0,.94,3.84c.52.53,1.62,0,1.32-.77-.21-.52-.52-1-.75-1.5a14.72,14.72,0,0,1-.57-1.57c-.13-.43-.85-.5-.94,0Z"/></g><g class="cls-6"><path class="cls-5" d="M113.48,81.89a3.55,3.55,0,0,0,1,2.18c.46.57,1.27,1.57,2.1,1.32a.61.61,0,0,0,.43-.58c-.07-.79-1-1.16-1.49-1.64a10.3,10.3,0,0,0-1.66-1.51.27.27,0,0,0-.4.23Z"/></g><g class="cls-6"><path class="cls-5" d="M87.66,91.66a3.64,3.64,0,0,0,2.5,2.16.67.67,0,0,0,.36-1.3,4.88,4.88,0,0,1-2.36-1.25c-.23-.29-.67.08-.5.39Z"/></g><path class="cls-5" d="M96.78,26.78c3.8-.22,7.37-.5,11.13.36a34.32,34.32,0,0,1,10.16,4.57c.23.14.51-.19.3-.38-5.38-4.7-14.75-7.06-21.62-4.81-.13.05-.12.27,0,.26Z"/><path class="cls-5" d="M51.15,27.69c3.4,1.68,7,3,10.5,4.47,3.78,1.57,7.55,3.31,11.43,4.62a.3.3,0,0,0,.23-.55c-3.42-1.66-7-3-10.55-4.39C59,30.3,55.19,28.59,51.31,27.31c-.22-.08-.37.27-.16.38Z"/><path class="cls-5" d="M32.74,67a87.18,87.18,0,0,1,27.77-7.91c.21,0,.22-.34,0-.33a56,56,0,0,0-27.93,8c-.18.11,0,.36.16.28Z"/><path class="cls-5" d="M49.6,94.18A35.31,35.31,0,0,0,61.69,85a.28.28,0,0,0-.39-.39,80.89,80.89,0,0,1-11.89,9.29.19.19,0,0,0,.19.33Z"/><path class="cls-5" d="M141.5,9a0,0,0,1,0,0-.06s0,.06,0,.06Z"/><path class="cls-5" d="M146.3,9.1c1.94,1.81,4.22,3.17,6.07,5.11a45,45,0,0,1,5.06,7c.15.22.57.08.45-.19-1.93-4.65-6.61-10.33-11.43-12.15-.14,0-.25.15-.15.25Z"/><path class="cls-7" d="M136.58,39.69a43.52,43.52,0,0,0-7.06-4.46.16.16,0,1,0-.16.27,43,43,0,0,0,7.07,4.39c.12,0,.27-.1.15-.2Z"/><path class="cls-7" d="M131.76,41.18c-3.5.09-7,.07-10.51.36-.23,0-.24.37,0,.37,3.5,0,7-.24,10.51-.4.2,0,.2-.33,0-.33Z"/><path class="cls-7" d="M120.76,40.32c-4.33-.3-8.67-.68-13-.85-.11,0-.1.15,0,.16,4.33.42,8.67.64,13,.94.16,0,.16-.24,0-.25Z"/><path class="cls-7" d="M80.5,47.86c-3-.61-6.14-.79-9.18-1.41s-6-1.73-9-2.41c-.2,0-.35.24-.15.35a36.73,36.73,0,0,0,9,2.67,34.17,34.17,0,0,0,9.33.93c.07,0,.09-.11,0-.13Z"/><path class="cls-7" d="M85.76,48.68a32.41,32.41,0,0,0,5.55-.7.21.21,0,0,0,0-.42,31.25,31.25,0,0,0-5.54.82.15.15,0,0,0,0,.3Z"/><path class="cls-7" d="M86.2,45c.83.33,1.66.66,2.52.92.22.06.36-.27.16-.36-.83-.4-1.69-.72-2.54-1.06-.31-.12-.45.38-.14.5Z"/><path class="cls-7" d="M82.25,57.51c-6.9,3.57-13.91,6.84-20.87,10.28-.25.12-.08.54.18.44A122.39,122.39,0,0,0,82.39,57.74a.13.13,0,0,0-.14-.23Z"/><path class="cls-7" d="M77.25,56.82a44.66,44.66,0,0,0-14.78,1.55.13.13,0,0,0,.06.25,74.31,74.31,0,0,1,14.72-1.4c.26,0,.26-.39,0-.4Z"/><path class="cls-7" d="M78.15,73.72c-3.28,3.57-6.26,7.35-9.75,10.73s-7.29,6.32-11.06,9.38c-.13.11,0,.34.19.25a75,75,0,0,0,11.23-9.27,64.32,64.32,0,0,0,9.56-11c.07-.1-.09-.22-.17-.13Z"/><path class="cls-7" d="M106,94.19a57.48,57.48,0,0,1-4.6,10.84c-1.79,3.24-4.14,6-6,9.2a.22.22,0,0,0,.34.27c5.55-5,8.81-13.19,10.76-20.18a.24.24,0,0,0-.46-.13Z"/><path class="cls-7" d="M92.6,101a76.84,76.84,0,0,0,.6,8c0,.17.29.12.29,0a79.08,79.08,0,0,0-.59-8c0-.19-.31-.2-.3,0Z"/><path class="cls-7" d="M154.09,23.65a14.32,14.32,0,0,0,8.79,8.85.15.15,0,0,0,.12-.27,20.69,20.69,0,0,1-8.55-8.73.2.2,0,0,0-.36.15Z"/><path class="cls-7" d="M162,76.47a9.84,9.84,0,0,0-1,1.7c-.14.25.2.53.4.31.43-.47.86-1,1.28-1.43l-.47-.36-.74,1.21.53.31c.34-.6.69-1.21,1-1.83a.3.3,0,0,0-.52-.31c-.36.6-.68,1.22-1,1.83a.31.31,0,0,0,.53.31l.72-1.22c.17-.28-.24-.62-.46-.36-.41.49-.82,1-1.22,1.49l.4.31a9.79,9.79,0,0,0,.83-1.84.13.13,0,0,0-.22-.12Z"/><path class="cls-7" d="M132.05,77.39a9,9,0,0,1-1.9,2.23.37.37,0,0,0,.38.64,4.14,4.14,0,0,0,2.07-3c0-.33-.37-.71-.65-.38a11,11,0,0,0-2,2.57c-.1.23.21.44.4.32a11,11,0,0,0,2.11-2.34l-.65-.38a3.47,3.47,0,0,1-1.7,2.59l.38.64a4.34,4.34,0,0,0,1.92-2.76c0-.24-.29-.26-.4-.11Z"/><path class="cls-7" d="M101.88,86.26c.09-.93.19-1.87.29-2.81l-.78.11a2.8,2.8,0,0,1-.06,2.25l.72.09a6,6,0,0,0-.35-.78c-.14-.25-.62-.16-.59.16a7.17,7.17,0,0,0,.18.83.4.4,0,0,0,.72.1,3.48,3.48,0,0,0,.14-2.86.39.39,0,0,0-.77.1c0,.94,0,1.88,0,2.81a.28.28,0,0,0,.55,0Z"/><path class="cls-8" d="M167.31,47.13c-29.1-5-60.61,5.25-84.71,21.23-.43.28,0,1,.41.7a124.69,124.69,0,0,1,40.35-17.33c14.59-3.5,28.88-3.57,43.75-3.1.84,0,1.06-1.35.2-1.5Z"/><path class="cls-8" d="M152.4,45.9A52,52,0,0,1,140,39.81c-.37-.26-.71.34-.35.61,4,3,7.59,5.34,12.39,6.79.85.25,1.17-1,.36-1.31Z"/><path class="cls-8" d="M151.94,46.89a16.24,16.24,0,0,0-2.71,4.45,19,19,0,0,0-.75,5.63c0,.45.65.44.69,0,.23-3.14,1.88-6.82,3.5-9.51.27-.45-.39-1-.73-.57Z"/><path class="cls-8" d="M123.74,50.7a6,6,0,0,0-1.9,2.58c-.12.51-.15,1.08-.24,1.6a12.09,12.09,0,0,0-.17,1.7c0,.35.57.44.63.08a8.42,8.42,0,0,1,.34-1.38,5.24,5.24,0,0,1,.83-1.41c.54-.77.92-1.65,1.48-2.42.44-.6-.47-1.19-1-.75Z"/><path class="cls-8" d="M112.54,53.53a21.16,21.16,0,0,0-2.39,3.71c-.62,1.06-1.75,2.33-1.64,3.6a.38.38,0,0,0,.55.32c1.15-.54,1.69-2.16,2.3-3.21a22.89,22.89,0,0,0,2-3.94.5.5,0,0,0-.84-.48Z"/><path class="cls-8" d="M92,63a5.28,5.28,0,0,0,.24,1.13,2.42,2.42,0,0,1,.35,1.14,13.78,13.78,0,0,1-.53,2.63.1.1,0,0,0,.17.1,4.53,4.53,0,0,0,1-2.57c.06-.49.18-1,.25-1.45A2.66,2.66,0,0,0,93,62.54c-.26-.6-1.17-.16-1,.43Z"/><path class="cls-8" d="M112.18,53c-4.69-1.89-9.6-2.66-14.53-3.57a.17.17,0,0,0-.09.33c4.78,1.61,9.48,3.31,14.52,3.94.44.05.44-.56.1-.7Z"/><path class="cls-8" d="M101.69,57.89a25.91,25.91,0,0,0-5.43-1.83A23,23,0,0,0,90.58,55a.5.5,0,0,0-.25.93,22.81,22.81,0,0,0,5.5,1.71,25.59,25.59,0,0,0,5.68,1,.36.36,0,0,0,.18-.67Z"/><path class="cls-8" d="M164.55,47.34a35.26,35.26,0,0,0,.53-4.22c.08-1.41-.5-2.66-.55-4.1a.1.1,0,0,0-.19,0c-.17,1.46-.83,2.65-.86,4.1a33.11,33.11,0,0,0,.2,4.1c0,.45.77.65.87.12Z"/><path class="cls-8" d="M164,39.45a0,0,0,0,0,0-.08,0,0,0,0,0,0,.08Z"/><path class="cls-8" d="M164.62,38.49C154.55,23.65,139,11.87,123.77,2.83a.36.36,0,0,0-.36.62A149.2,149.2,0,0,1,145.86,20c6.62,5.88,12.18,12.52,18.17,19,.29.31.83-.1.59-.45Z"/><path class="cls-8" d="M122.28,3.39C145.16.18,164.38,15.55,164.55,39a.28.28,0,0,0,.55,0C166.59,16.46,144.43-3,122.17,3c-.28.07-.16.46.11.42Z"/><path class="cls-8" d="M140.43,40C125.55,22.27,100.46,17.82,80,28c-.36.19,0,.73.32.55,20.66-9.88,44.15-4.66,59.39,12.09.44.49,1.13-.23.71-.72Z"/><path class="cls-8" d="M78.59,28.92c16.7,13.58,42.11,19.57,62.84,12.8a.49.49,0,0,0-.26-.94C118.71,45.31,97.72,42,78.86,28.57c-.21-.14-.47.19-.27.35Z"/><path class="cls-8" d="M98.22,48.43A189.09,189.09,0,0,0,25.63,16.32c-.73-.15-1,1-.31,1.11A207.35,207.35,0,0,1,97.93,48.92c.31.21.58-.27.29-.49Z"/><path class="cls-8" d="M24.88,17.25c14.56,25.24,44.75,38.61,73.27,32,.63-.14.36-1.07-.26-1-28.78,5.35-56.67-6.65-72.15-31.59a.5.5,0,0,0-.86.51Z"/><path class="cls-8" d="M91.06,55.53C73.13,50.24,51,53,34.46,61.47c-.45.22-.13,1,.35.82,8.93-3.74,17.83-6.64,27.51-7.67s18.94.1,28.54,1.65a.38.38,0,0,0,.2-.74Z"/><path class="cls-8" d="M89.23,56.24c-18.09,7.84-35.86,15.08-55,19.86-.72.18-.41,1.29.31,1.12,18.83-4.62,38.07-10.94,55-20.47.33-.19,0-.65-.3-.51Z"/><path class="cls-8" d="M36.13,60.5A110.41,110.41,0,0,0,5.73,82.56.33.33,0,0,0,6.2,83,189.57,189.57,0,0,1,36.36,60.88c.25-.14,0-.5-.23-.38Z"/><path class="cls-8" d="M5.56,84.52c11.85-1,25.12-3.65,36.1-8.32.38-.16.1-.72-.28-.65-6,1.28-11.85,3.33-17.84,4.73s-12,2.37-18.06,3.66a.3.3,0,0,0,.08.58Z"/><path class="cls-8" d="M83.35,67.53C74.3,72,65.8,78.07,57.47,83.72S40.75,95.35,32.59,101.44c-.51.38,0,1.25.51.87q12.27-9.09,24.95-17.59c8.44-5.63,17.44-10.66,25.61-16.66a.31.31,0,0,0-.31-.53Z"/><path class="cls-8" d="M32.86,102.8c10.42,3.23,22-1,30.39-7.31C73.18,88,80,77.33,86.55,67c.34-.54-.52-1-.87-.5C73.56,85.57,58.37,105.93,33,102.31a.25.25,0,0,0-.14.49Z"/><path class="cls-8" d="M92.82,65.24c-6.6,4.79-12.63,11.47-12,20.2.48,6.5,5.79,12.55,12.7,12,15.18-1.28,16.12-29.67.19-31.3-1-.1-1,1.44,0,1.55,15.71,1.67,11.48,30.92-2.86,28.06-7.46-1.49-10.28-9.34-8.47-16.15,1.55-5.85,6-10.32,10.71-13.85.27-.21,0-.67-.28-.47Z"/><path class="cls-8" d="M119.23,56.53c-7.34,4.18-11.48,12.94-10.71,21.27.78,8.48,6.77,14.56,15.56,12,8-2.28,13.68-10.88,12.37-19.1-1.22-7.72-8.18-14.48-16.17-14.33a.46.46,0,0,0-.12.89c6.58,1.49,12.54,5.43,14.32,12.31,1.92,7.43-2.7,15.36-9.67,18.12-9.49,3.76-15.33-4.54-14.92-13.31.34-7.15,4.06-13.06,9.7-17.27a.35.35,0,0,0-.36-.61Z"/><path class="cls-8" d="M148.62,56.08c-17.07,3.46-12.35,40,6.92,32.47,7.6-3,13.28-12.89,12.41-21-1.09-10-12.26-12.06-20.48-10.27-.47.1-.34.77.1.79,7,.37,16.71-.54,18.64,8.46,1.43,6.67-3,15.49-8.59,19.14-18.27,11.92-25.3-24.81-8.76-28.79.56-.13.32-1-.24-.85Z"/><path class="cls-8" d="M84.82,79.29c.29-.12.26-.24.37-.52a2.46,2.46,0,0,1,1.19-1.42,2.08,2.08,0,0,1,2.9,1.87c0,.55.9.52.84,0a3,3,0,0,0-2.74-2.82A2.89,2.89,0,0,0,84.47,79a.31.31,0,0,0,.17.28c.06,0,.11.09.18.06Z"/><path class="cls-8" d="M94.91,79.33a1.83,1.83,0,0,1,2.21-1.48,1.85,1.85,0,0,1,1,.86,5.33,5.33,0,0,1,.3,1.3.32.32,0,0,0,.59.08c.69-1.2-.69-2.77-1.83-3a2.62,2.62,0,0,0-3.07,2.07c-.11.49.65.7.76.21Z"/><path class="cls-8" d="M86.83,87.17C89,90.81,96.76,90.05,98,86c.09-.32-.31-.68-.6-.46-1.51,1.11-2.67,2.28-4.63,2.57-2.18.32-3.63-.46-5.53-1.32-.27-.12-.59.13-.42.42Z"/><path class="cls-8" d="M129.67,69a2.43,2.43,0,0,0-1.94,2.91,2.2,2.2,0,0,0,3.33,1.42,2.41,2.41,0,0,0,.78-3.8c-1-1-3-1.23-3.82.12a.26.26,0,0,0,.35.35,2.27,2.27,0,0,1,2.67.1,1.46,1.46,0,0,1-.35,2.41,1.43,1.43,0,0,1-2.27-.79,1.83,1.83,0,0,1,1.32-2.19c.29-.06.23-.57-.07-.53Z"/><path class="cls-8" d="M113.63,68.76a2.43,2.43,0,0,0-1.94,2.91A2.21,2.21,0,0,0,115,73.09a2.4,2.4,0,0,0,.77-3.8c-1-1-3-1.22-3.81.12a.25.25,0,0,0,.34.35,2.28,2.28,0,0,1,2.67.1,1.46,1.46,0,0,1-.35,2.41,1.43,1.43,0,0,1-2.27-.79,1.85,1.85,0,0,1,1.32-2.19c.3-.06.24-.57-.07-.53Z"/><path class="cls-8" d="M148.15,67.38a12.59,12.59,0,0,1-2.48,2.82,11.31,11.31,0,0,1-1.58,1.08,4.83,4.83,0,0,0-1.33.79.19.19,0,0,0,.14.32c1.08,0,2.28-1,3.09-1.64a10.33,10.33,0,0,0,2.56-3.13.23.23,0,0,0-.4-.24Z"/><path class="cls-8" d="M143.71,71.89a2.46,2.46,0,0,0,3.49,1.75,2.61,2.61,0,0,0,.57-4c-.36-.4-.94.19-.58.58a1.78,1.78,0,0,1-.4,2.69,2,2,0,0,1-2.59-1.17.25.25,0,0,0-.49.13Z"/><path class="cls-8" d="M160.07,67.91a2.79,2.79,0,0,0,1.42,2.39,2.42,2.42,0,0,0,2.71.12.35.35,0,0,0-.16-.59,5.87,5.87,0,0,1-2-.31,2.9,2.9,0,0,1-1.4-1.69.3.3,0,0,0-.58.08Z"/><path class="cls-8" d="M160.65,69.5a2.6,2.6,0,0,0-1.43,2.16,1.52,1.52,0,0,0,1.28,1.82,3.23,3.23,0,0,0,3.76-2.86c.05-.57-.86-.57-.9,0a2.35,2.35,0,0,1-2.3,2c-.71,0-1.12-.24-1.07-1a2,2,0,0,1,1-1.57c.38-.22,0-.79-.35-.59Z"/><path class="cls-8" d="M149.5,82.53l1.57-.33.41.37A6.41,6.41,0,0,1,152,83a2.23,2.23,0,0,0,1.23.38c.48,0,.53-.25.89-.4a.74.74,0,0,0,.23-.2c.23-.33.62-.4,1.15-.22,1.49-.23,1-.08,2.08.43s3.5-.19,2.34-1.77a.37.37,0,0,0-.64.37l-1.79.44-.47-.3c-.37-.13-.51-.3-.86-.4a1.91,1.91,0,0,0-1.25,0c-.39.14-.5.48-.84.64a2,2,0,0,1-2.52-.17,5.14,5.14,0,0,0-.74-.51c-1.18-.55-2.94.63-1.71,1.72a.29.29,0,0,0,.4-.41Z"/><path class="cls-8" d="M144.09,62c0,1.17-.06,2.35,0,3.52a.4.4,0,0,0,.79,0c0-1.17,0-2.35,0-3.52a.37.37,0,0,0-.73,0Z"/><path class="cls-8" d="M145.72,62A34,34,0,0,0,145.6,66a.42.42,0,0,0,.83,0,34,34,0,0,0-.12-3.91.3.3,0,0,0-.59,0Z"/><path class="cls-8" d="M147.28,62.35c-.19.67-.38,1.33-.56,2a2.72,2.72,0,0,0-.15,1.66.23.23,0,0,0,.39.1,2.62,2.62,0,0,0,.57-1.54c.12-.68.23-1.37.35-2,.06-.39-.49-.56-.6-.17Z"/><path class="cls-8" d="M112.35,67.68a2.31,2.31,0,0,1,3.8-.05.33.33,0,0,0,.56-.33c-1-1.78-3.85-1.52-4.81.11a.26.26,0,0,0,.45.27Z"/><path class="cls-8" d="M128.05,68.09a1.63,1.63,0,0,1,1.38-.85c.6,0,.84.36,1.34.55a.36.36,0,0,0,.45-.44c-.24-.72-1.31-.87-2-.77a2.06,2.06,0,0,0-1.68,1.31c-.11.27.33.46.47.2Z"/><path class="cls-8" d="M161,28.13C157.83,19,149.06,11,140,8c-.43-.14-.74.55-.32.74,9.62,4.33,15.67,10.51,20.75,19.65.19.34.77.11.63-.26Z"/><path class="cls-8" d="M131.72,39.16c-13.18-7.94-29.21-12.3-44.63-10.47-.29,0-.31.48,0,.47,15.88-.64,30.6,2.21,44.35,10.48.3.18.58-.29.28-.48Z"/><path class="cls-8" d="M88.51,47.08C72.4,40.57,56.93,32.7,41,25.82c-.34-.15-.64.32-.3.5C55.92,34.65,72.36,41,88.4,47.5c.26.1.37-.32.11-.42Z"/><path class="cls-8" d="M78.11,58.05c-20.26,0-40.59,5.76-57.36,17.27-.27.19,0,.63.27.45,17.3-11,36.53-17.07,57.09-17a.34.34,0,0,0,0-.67Z"/><path class="cls-8" d="M78.7,73.19A185.26,185.26,0,0,1,47.91,97.71c-.32.2,0,.7.29.5A162.7,162.7,0,0,0,79,73.51a.23.23,0,0,0-.32-.32Z"/><path class="cls-8" d="M108.74,61.06a87.23,87.23,0,0,0-7.1,8.63c-.19.29.24.6.48.37a89.07,89.07,0,0,0,7-8.66c.18-.25-.23-.57-.43-.34Z"/><path class="cls-8" d="M90.22,97.58A59.23,59.23,0,0,0,96.08,128c.31.64,1.24.08,1-.55a69.28,69.28,0,0,1-6.3-29.9.26.26,0,0,0-.51,0Z"/><path class="cls-8" d="M96.83,127.84c7.4-12.52,14-28.71,13.27-43.54,0-.32-.52-.43-.59-.08-1.46,7.22-2,14.42-4.13,21.54a107.67,107.67,0,0,1-9.16,21.72.35.35,0,0,0,.61.36Z"/><path class="cls-8" d="M110.06,66.42a5.53,5.53,0,0,0-1.41-6.05c-.57-.55-1.45.34-.87.86a4.74,4.74,0,0,1,1.41,5c-.16.57.66.77.87.24Z"/><path class="cls-8" d="M106.24,70.6a220.11,220.11,0,0,1-8,43,.29.29,0,0,0,.55.16,196.56,196.56,0,0,0,8-43.19c0-.33-.48-.33-.51,0Z"/><path class="cls-8" d="M120.45,76.07c-.74.28-2.53-.47-2.45,1s2.11.9,2.93,1.33c.29,1.56,0,2.15-1,1.76a1.06,1.06,0,0,0-.35-.09c-.26,0-.39-.08-.64,0a.91.91,0,0,0-.47.94c.15,1.15,1.65,1.13,2.45.8.18-.07.18-.39-.05-.36s-1.33.13-1.34.09l.31-1.06.33.07a3.49,3.49,0,0,0,1-.1,1.38,1.38,0,0,0,.88-1.55,1.5,1.5,0,0,0-1.33-1,10.36,10.36,0,0,1-1.11-.08q-.93.08-.45-1.29l.29,0c.47-.08.73.08,1.18-.16.18-.1.05-.42-.15-.35Z"/><path class="cls-8" d="M127.79,73.93a4.4,4.4,0,0,0,1.85.94c.15,0,.28-.15.15-.27a4.3,4.3,0,0,0-1.83-1c-.16,0-.31.18-.17.29Z"/><path class="cls-8" d="M116.63,73.31a5.13,5.13,0,0,0-1.21.31,6.69,6.69,0,0,0-1.18.45c-.14.08-.09.34.08.31a6.65,6.65,0,0,0,1.22-.32,5.93,5.93,0,0,0,1.17-.46c.12-.08.08-.3-.08-.29Z"/></svg>