<svg id="carracters" xmlns="http://www.w3.org/2000/svg" viewBox="0 0 222.94 35.67"><defs><style>.cls-1,.cls-2{fill:#6e6e6e;}.cls-1{opacity:0.49;}.cls-2{opacity:0.5;}.cls-3{fill:#fff;}</style></defs><path d="M187.76,14.29a42.06,42.06,0,0,1-4.35.16v-1.9a20.5,20.5,0,0,0,4.36.07V8.72l1.92.09v3.52a14,14,0,0,0,3.8-1.23v2c-.52.16-1.05.32-1.58.46l-2.07.55c-.09,0-.15.06-.15.17,0,1.06,0,2.13,0,3.19a.25.25,0,0,0,0,.07c.36-.1.72-.2,1.09-.28a9.37,9.37,0,0,1,5.17.13,7.61,7.61,0,0,1,2.42,1.28,3.93,3.93,0,0,1,1.14,1.64,5,5,0,0,1-.44,4.76,3.79,3.79,0,0,1-1.94,1.45,6,6,0,0,1-4.81-.23l-.1-.06.75-1.68c.36.11.71.25,1.06.32a4.35,4.35,0,0,0,2.06,0,2.64,2.64,0,0,0,1.5-1.25,2.24,2.24,0,0,0,.21-2.07,3.94,3.94,0,0,0-3.25-2.68,9.42,9.42,0,0,0-3.39.06,8.78,8.78,0,0,0-1.4.45c-.06,0-.1.14-.1.22,0,.42,0,.85,0,1.27,0,1.4,0,2.8-.07,4.19A2.48,2.48,0,0,1,188.48,27a2.43,2.43,0,0,1-.57.35,1.27,1.27,0,0,1-1,0,6.16,6.16,0,0,1-3.65-4.44,1.66,1.66,0,0,1,.07-.73A4.65,4.65,0,0,1,185,19.87a12,12,0,0,1,2.67-1.65c.09,0,.15-.09.15-.21V14.37S187.76,14.32,187.76,14.29Zm0,5.86c-.37.25-.7.46-1,.69a5.33,5.33,0,0,0-1.39,1.37,1.34,1.34,0,0,0-.26.94,3,3,0,0,0,1.86,2.2c.35.17.62,0,.69-.39a10.3,10.3,0,0,0,.14-1.47c0-1,0-2.1,0-3.15A1.67,1.67,0,0,0,187.76,20.15Z"/><path d="M155.79,26.26l.75-1.68c.34.11.67.24,1,.32a4.7,4.7,0,0,0,1.83,0,2.48,2.48,0,0,0,1.74-1.24l0-.05a2.24,2.24,0,0,0,.19-2.17,3.9,3.9,0,0,0-3.07-2.57,9.5,9.5,0,0,0-3-.06,12.6,12.6,0,0,0-2.07.58c0,.79,0,1.58,0,2.36,0,1.05,0,2.09-.05,3.14a2.72,2.72,0,0,1-1.38,2.26,1.94,1.94,0,0,1-1.2.23l-.1,0a6.23,6.23,0,0,1-3.69-4.55,1.2,1.2,0,0,1,.06-.56,4.4,4.4,0,0,1,1.39-2.15,11.48,11.48,0,0,1,2.9-1.86.28.28,0,0,0,.2-.3c0-1.15,0-2.31,0-3.46v-.2c-1.46.2-2.91.12-4.37.18V12.57a21.15,21.15,0,0,0,4.36.07V8.73l1.92.1v3.51A13.7,13.7,0,0,0,157,11.11v2l-3.79,1.07v3.36l.39-.1a11.29,11.29,0,0,1,3.56-.47,8.05,8.05,0,0,1,4.69,1.66,4,4,0,0,1,1.34,2.07,5,5,0,0,1-.8,4.67,3.86,3.86,0,0,1-1.79,1.18,6,6,0,0,1-4.74-.26Zm-4.48-6.07a9.14,9.14,0,0,0-1.66,1.17,4,4,0,0,0-.87,1.05,1.36,1.36,0,0,0-.14.93,3,3,0,0,0,1,1.53,2.15,2.15,0,0,0,.88.53.43.43,0,0,0,.59-.33,3.22,3.22,0,0,0,.12-.69c0-.77,0-1.54,0-2.31S151.31,20.84,151.31,20.19Z"/><path d="M195.51,11.88,197,10.43a32.2,32.2,0,0,1,4,3.43l-1.44,1.35A28.08,28.08,0,0,0,195.51,11.88Z"/><path class="cls-1" d="M159.52,11.88,161,10.43a32.2,32.2,0,0,1,4,3.43l-1.45,1.35A27.45,27.45,0,0,0,159.52,11.88Z"/><path class="cls-2" d="M116.48,14.29a42.06,42.06,0,0,1-4.35.16v-1.9a20.5,20.5,0,0,0,4.36.07V8.72l1.92.09v3.52a14,14,0,0,0,3.8-1.23v2c-.52.16-1,.32-1.57.46l-2.08.55c-.09,0-.14.06-.14.17v3.19a.25.25,0,0,0,0,.07c.36-.1.72-.2,1.09-.28a9.37,9.37,0,0,1,5.17.13,7.61,7.61,0,0,1,2.42,1.28,3.93,3.93,0,0,1,1.14,1.64,5,5,0,0,1-.44,4.76,3.75,3.75,0,0,1-1.94,1.45,6,6,0,0,1-4.81-.23l-.1-.06.75-1.68a10.86,10.86,0,0,0,1.07.32,4.31,4.31,0,0,0,2,0,2.7,2.7,0,0,0,1.51-1.25,2.27,2.27,0,0,0,.2-2.07,3.93,3.93,0,0,0-3.25-2.68,9.42,9.42,0,0,0-3.39.06,8.78,8.78,0,0,0-1.4.45.29.29,0,0,0-.1.22c0,.42,0,.85,0,1.27,0,1.4,0,2.8-.08,4.19A2.48,2.48,0,0,1,117.2,27a2.43,2.43,0,0,1-.57.35,1.27,1.27,0,0,1-1,0A6.16,6.16,0,0,1,112,22.89a1.53,1.53,0,0,1,.08-.73,4.57,4.57,0,0,1,1.62-2.29,12.25,12.25,0,0,1,2.67-1.65c.1,0,.16-.09.16-.21,0-1.21,0-2.42,0-3.64A.25.25,0,0,0,116.48,14.29Zm0,5.86c-.37.25-.7.46-1,.69a5.33,5.33,0,0,0-1.39,1.37,1.34,1.34,0,0,0-.26.94,3,3,0,0,0,1.86,2.2c.36.17.63,0,.69-.39a9,9,0,0,0,.14-1.47c0-1,0-2.1,0-3.15A1.67,1.67,0,0,0,116.48,20.15Z"/><path class="cls-2" d="M124.23,11.88l1.45-1.45a32.2,32.2,0,0,1,4,3.43l-1.44,1.35A28.08,28.08,0,0,0,124.23,11.88Z"/><path d="M122.58,11.11a.82.82,0,0,1,0,.14V13c0,.09,0,.16-.11.19-.94.27-1.88.58-2.84.81a10.28,10.28,0,0,1-1.68.17c-.93.08-1.86.16-2.79.22s-1.78.08-2.68.12v-1.9a20.57,20.57,0,0,0,5.14-.06A14.87,14.87,0,0,0,122.58,11.11Z"/><path d="M161.31,28.19l.28.3-.1.08-.49-.43.46-.55.14.09-.22.3.25-.06a4.19,4.19,0,0,0,3.14-3.23,4.62,4.62,0,0,0-.46-3.2c-.07-.16-.08-.16.05-.23A4.57,4.57,0,0,1,161.31,28.19Z"/><path d="M146.55,19.82l-.29-.24.1-.14.53.4-.39.62c-.24-.2.09-.3.05-.47a2.69,2.69,0,0,0-2.71,3.26,2.74,2.74,0,0,0,2.29,2c.24,0,.24,0,.24.17a2.85,2.85,0,0,1-2.72-2.27,2.71,2.71,0,0,1,.64-2.36A2.83,2.83,0,0,1,146.55,19.82Z"/><path d="M154.36,7V9.84l.23-.18.09.08-.44.5-.55-.47.1-.14.38.31V9.28c0-.69,0-1.38,0-2.08C154.21,7.1,154.2,7,154.36,7Z"/><path d="M113.5,11.57l-.18-.21c.05-.09.09-.14.19,0s.27.24.42.37l-.5.56c-.13-.05-.15-.11-.05-.2s.12-.15.21-.25l-.33,0-2.42,0a.4.4,0,0,1-.15,0,.11.11,0,0,1,0-.08.14.14,0,0,1,.1-.07h2.72Z"/><path d="M197.4,9.38l1.17.81.21-.08c.1.38.1.41-.09.45s-.24.17-.29-.08l.16-.08-1.15-.8C197.31,9.53,197.26,9.47,197.4,9.38Z"/><path class="cls-3" d="M34.87,13.44a37,37,0,0,1-4.34.16V11.7a21.16,21.16,0,0,0,4.36.08V7.87L36.8,8v3.51a14,14,0,0,0,3.8-1.22v2L39,12.73,37,13.28c-.09,0-.14.05-.14.16v3.2s0,0,0,.06c.36-.09.73-.2,1.09-.28a9.6,9.6,0,0,1,5.18.13,7.56,7.56,0,0,1,2.41,1.28,3.81,3.81,0,0,1,1.14,1.65,5,5,0,0,1-.44,4.76,3.69,3.69,0,0,1-1.94,1.44,6,6,0,0,1-4.81-.23.35.35,0,0,1-.09-.06l.74-1.68c.37.11.71.25,1.07.33a4.31,4.31,0,0,0,2,0,2.66,2.66,0,0,0,1.51-1.25,2.27,2.27,0,0,0,.2-2.07A3.94,3.94,0,0,0,41.69,18a9.37,9.37,0,0,0-3.38.06,8.93,8.93,0,0,0-1.41.46s-.09.14-.1.21c0,.43,0,.85,0,1.27,0,1.4,0,2.8-.08,4.2a2.49,2.49,0,0,1-1.11,1.93,2.59,2.59,0,0,1-.58.34,1.27,1.27,0,0,1-1,0A6.13,6.13,0,0,1,30.37,22a1.52,1.52,0,0,1,.07-.73A4.65,4.65,0,0,1,32.06,19a12.29,12.29,0,0,1,2.67-1.66c.1,0,.16-.08.16-.2,0-1.22,0-2.43,0-3.64A.31.31,0,0,0,34.87,13.44Zm0,5.87c-.36.24-.7.45-1,.68a5.33,5.33,0,0,0-1.38,1.38,1.28,1.28,0,0,0-.27.94,3,3,0,0,0,1.86,2.19.44.44,0,0,0,.69-.38,10.46,10.46,0,0,0,.15-1.47c0-1,0-2.1,0-3.16A1.55,1.55,0,0,1,34.87,19.31Z"/><path class="cls-3" d="M42.62,11l1.46-1.45a31.46,31.46,0,0,1,4,3.44l-1.45,1.34A27,27,0,0,0,42.62,11Z"/></svg>