<svg id="illustration" xmlns="http://www.w3.org/2000/svg" viewBox="0 0 198.43 136.07"><defs><style>.cls-1{fill:#999648;}.cls-2{fill:#f8c785;}.cls-3{fill:#feda0a;}.cls-4{fill:#7a3f46;}.cls-5{fill:#fff;}.cls-6{fill:#574c4d;}.cls-7{fill:#5d5d5c;}.cls-8{fill:#010101;}.cls-9{fill:#231f20;}</style></defs><path class="cls-1" d="M74.55,82.37s-9.64-6.9-14.26-21A44.43,44.43,0,0,0,45.91,40.23S56.53,29,63.1,15.47,84.21,2.37,84.21,2.37H99.75s13.42-1.38,16.33-1a36.29,36.29,0,0,1,20.34,11.19c7.17,8.17,7.32,12.47,12.74,16.24s8.26,6.07,15.51,6.16c0,0-7,10.7-11.14,28.23S145,86.72,145,86.72,138.12,94.89,131.27,98c0,0-1.54,17.19-3.3,20.59s-5.31,10.07-14.18,10.78S74.55,82.37,74.55,82.37Z"/><path class="cls-2" d="M67.42,26.87,83.6,25.79S91.19,25,92,28.37l1.44-2,36.3-1.74s-2.45,15.12-14,20.43c0,0,4.65,6.35,5.2,9.33S119,67,117.77,68.84c0,0,2.84,24.37,2.08,35.53s-3.3,20.79-7.11,25.31-11.24,6-19.7.18-13.39-32.1-13.39-32.1-6.86-22.42-6.71-25.82.69-10,7-18.1C79.94,53.84,63.26,46.71,67.42,26.87Z"/><path class="cls-3" d="M104.62,30.56,112.74,29s2.13,4.87-2.47,6.41S104.32,32,104.62,30.56Z"/><path class="cls-3" d="M86.35,30.54a36.34,36.34,0,0,1-9.26-1.41c-.12.16-3.14,6.06,3.39,8.47C82.11,38.35,88.48,36.32,86.35,30.54Z"/><path class="cls-4" d="M79.94,78s7,26.18,6.57,28.82,8.37,9.7,8.37,9.7l2.8.49,3.12-.29,2.35-.46,2.57-.76,5.81-.29s1.12-.79,2.26-3.67a27.54,27.54,0,0,0,1.87-10c-.4-6.5-1.73-20.27-3.56-28.38s-34-1.7-34-1.7Z"/><path class="cls-5" d="M79.1,71S93,53.23,110.46,71c.75.2-.48,8.73-3.26,11.4,0,0-1.65-7.43-5.46-11.21L101.07,73,88.41,75.23A9.39,9.39,0,0,1,85.07,74c-1.31-.91-1.47,9.43-1.47,9.43S78.2,78,79.1,71Z"/><path class="cls-5" d="M111.53,106.86s0,9.43-1.79,10.93-3.82,4.44-7.11,5.47a12.35,12.35,0,0,1-7.08-.05c-1.21-.52-3.33-3.36-3.75-3.63-2.38-1.53-6.52-9.21-5.91-11.42l9,8.89s.76-.42,2.34.74c.4.16.5-.74.5-.74h2.66l.46.24,1.67-.62,2.53-.92.59.22A13.72,13.72,0,0,0,111.53,106.86Z"/><path class="cls-6" d="M78.71,32.9h0a1.35,1.35,0,0,0,.91.91,1.38,1.38,0,0,0,.7,0,1.2,1.2,0,0,0,.57-.34,1.38,1.38,0,0,0,.34-.57,1.3,1.3,0,0,0-.34-1.27,1.38,1.38,0,0,0-.57-.34h0a1.35,1.35,0,0,0-.69,0,1.26,1.26,0,0,0-.57.33,1.35,1.35,0,0,0-.33.58,1.16,1.16,0,0,0,0,.69Z"/><path class="cls-6" d="M108,34.13a1.08,1.08,0,0,0,.5-.11,1,1,0,0,0,.41-.27,1.43,1.43,0,0,0,.38-.92l0-.34a1.28,1.28,0,0,0-.34-.58l-.26-.2a1.25,1.25,0,0,0-.65-.18,1,1,0,0,0-.5.12,1,1,0,0,0-.42.26,1,1,0,0,0-.27.42,1,1,0,0,0-.11.5l0,.35a1.26,1.26,0,0,0,.33.57l.26.2a1.26,1.26,0,0,0,.66.18Z"/><path class="cls-6" d="M89.84,36.17c.38-.06.75-.2,1.14-.29a4.33,4.33,0,0,1,1.14-.1,5.1,5.1,0,0,1,1.1.14c.39.11.75.31,1.14.42a.55.55,0,0,0,.53-.91,3.23,3.23,0,0,0-1.32-.63,5.11,5.11,0,0,0-1.45-.19,3.77,3.77,0,0,0-2.67.89.4.4,0,0,0,.39.67Z"/><path class="cls-6" d="M89.07,39.15C90,39.09,91,39,92,39a9.22,9.22,0,0,1,1.39.14c.5.1,1.24.21,1.3-.48a.56.56,0,0,0-.27-.48A3.24,3.24,0,0,0,93,37.78a8.92,8.92,0,0,0-1.37-.07,6,6,0,0,0-2.73.63.44.44,0,0,0,.21.81Z"/><path class="cls-6" d="M89.58,41.9a.71.71,0,0,0,.35.13,2.79,2.79,0,0,0,.4-.07c.21,0,.42,0,.63-.05s.4,0,.61,0a3.15,3.15,0,0,1,.58.09,11.61,11.61,0,0,1,1.28.28,2.62,2.62,0,0,0,1.53.25.64.64,0,0,0,.38-.93,2,2,0,0,0-1.43-.92,6.1,6.1,0,0,0-1.6-.2c-.24,0-.48.08-.7.1s-.55.07-.82.12a5.2,5.2,0,0,0-.67.21c-.29.12-.54.19-.68.49a.39.39,0,0,0,.14.52Z"/><path class="cls-6" d="M86.8,52.62c-.43-.43-1.11,0-1.41.37a1.5,1.5,0,0,0-.23,1.36,2.78,2.78,0,0,0,.75,1.08,4.89,4.89,0,0,0,.55.45,2.49,2.49,0,0,0,.58.31,4.45,4.45,0,0,1,.48.26s.3.21.09,0a2.15,2.15,0,0,0,.24.18.57.57,0,0,0,.22.11c.08,0,.06,0,0,0a.91.91,0,0,0,.5.17l.2,0c-.16,0-.18,0,0,0a.49.49,0,0,0,.25-.08.81.81,0,0,0,.2-1.1c-.11-.17.11.28,0,0a.75.75,0,0,0-.2-.31,1.8,1.8,0,0,0-.34-.26,5,5,0,0,0-.52-.26l-.7-.28a1.31,1.31,0,0,0-.28-.09l-.17,0s-.2-.07,0,0l-.15-.07c-.13-.05.06.07,0,0a1.14,1.14,0,0,1-.11-.11s-.11-.15,0,0a.61.61,0,0,1-.07-.1s-.09-.2,0-.05l0-.12c0-.16,0,.07,0-.06a.33.33,0,0,1,0-.1q0,.14,0,0l0-.09c0,.11,0,0,0,0s.13-.17,0-.07l.06-.07c-.06,0-.06,0,0,0l.08,0s-.1,0,0,0a.66.66,0,0,0,.35-.29.53.53,0,0,0-.09-.64Z"/><path class="cls-6" d="M89.48,56.55a1,1,0,0,0,0-.88c-.07-.17-.15-.33-.23-.49a6.47,6.47,0,0,0-.58-.89c-.23-.32-.52-.58-.77-.88l-.19-.23-.07-.08c0-.05-.13-.19,0,0s0,0,0-.05a1.76,1.76,0,0,0-.09-.2,1,1,0,0,0-.56-.43.75.75,0,0,0-.76.2.81.81,0,0,0-.2.76.94.94,0,0,0,.41.55.86.86,0,0,0,.2.13c-.06,0-.07-.06,0,0l.1.11a1.56,1.56,0,0,0,.16.2l.07.09,0,.05,0,0s0,0,0,0l0,.05a.75.75,0,0,0,.07.12,4,4,0,0,0,.28.43c.22.31.44.62.69.91s.54.76,1,.78a.55.55,0,0,0,.49-.28Z"/><path class="cls-6" d="M96,55.52l0-.15a1.06,1.06,0,0,1,0-.28c0,.09,0,.1,0,0v0c0-.06,0-.11,0-.16s0,.09,0,0l.12-.27c-.07.16,0,0,0,0a1.09,1.09,0,0,1,.08-.15,4.16,4.16,0,0,1,.28-.51l.16-.23c-.08.14,0,0,0,0a.94.94,0,0,1,.1-.1l0,0c0-.05,0,0,0,0s.1-.07.1-.07l0,0c.07,0,0,0,0,0l.12,0c.12,0-.13,0,0,0s.19,0,0,0a.47.47,0,0,1,.16,0h0c.07,0,.06,0,0,0s.11.06.14.07.16.12,0,0l.22.21a2.4,2.4,0,0,0,.27.28,1.16,1.16,0,0,0,.44.19.51.51,0,0,0,.64-.49,1,1,0,0,0-.21-.69,2.35,2.35,0,0,0-.26-.29,2.49,2.49,0,0,0-.7-.5,1.8,1.8,0,0,0-1.12-.14,1.78,1.78,0,0,0-.76.39,3.82,3.82,0,0,0-.9,1.17,2,2,0,0,0-.24,2,.61.61,0,0,0,.6.29.59.59,0,0,0,.5-.43Z"/><path class="cls-6" d="M95.67,55.7a1.88,1.88,0,0,0,1.15,0,2.39,2.39,0,0,0,.46-.12,2.62,2.62,0,0,0,.52-.22,4.46,4.46,0,0,0,.43-.33l.08,0c-.07.06,0,0,0,0l.26-.2a4.06,4.06,0,0,0,.65-.66.49.49,0,1,0-.7-.7c-.09.11-.19.21-.29.31l-.15.13L98,54c-.06.06.06,0,0,0a1.69,1.69,0,0,1-.36.23l0,0c.06,0,0,0-.07,0l-.2.07-.27.12c-.07,0-.08,0,0,0l-.09,0-.41.13-.38.12a1.4,1.4,0,0,0-.5.16.48.48,0,0,0,0,.82Z"/><path class="cls-6" d="M97.86,53.64h-.3l.24.07a.5.5,0,0,0-.34-.08h-.37c-.22,0-.44.06-.66.1l.87.5v0l-.08.59.09-.14-.12.17c.07-.1.13-.18.19-.28l.09-.13-.13.17a1.36,1.36,0,0,1,.24-.24l-.17.13a1.11,1.11,0,0,1,.3-.17l-.21.08.18,0a.89.89,0,0,0,.51-.4.84.84,0,0,0-.3-1.16.85.85,0,0,0-.66-.09,2.27,2.27,0,0,0-.5.23,2.07,2.07,0,0,0-.44.34,2.75,2.75,0,0,0-.32.44s0,0,0,.08a.87.87,0,0,0-.1.25,2.65,2.65,0,0,0,0,.38l0,.21a.51.51,0,0,0,.14.26.72.72,0,0,0,.4.28.94.94,0,0,0,.41,0,.83.83,0,0,0,.46-.36v0L97,55c.15-.07.3-.14.44-.22l.2-.13c.14-.1.28-.16.36-.32l-.18.17.26-.17a.38.38,0,0,0-.2-.71Z"/><path class="cls-6" d="M97.54,52.37a.62.62,0,0,0-.51-.56,2.69,2.69,0,0,0-.49,0,1.89,1.89,0,0,0-1,.32,2.25,2.25,0,0,0-.7.74,1.92,1.92,0,0,0-.21.46.89.89,0,0,0,0,.78l-.08-.32a1.31,1.31,0,0,0,.3,1,.51.51,0,0,0,.83-.22,3.68,3.68,0,0,0,.07-.58l0,.16a1.16,1.16,0,0,1,0-.18l-.28.37a.82.82,0,0,0,.29-.35,1.52,1.52,0,0,0,.06-.2l.09-.27-.06.16a1.31,1.31,0,0,1,.21-.36l-.1.13a1.6,1.6,0,0,1,.26-.26l-.13.1a1.45,1.45,0,0,1,.38-.22l-.15.06.32-.13-.15.06.21-.07.09,0h0l.18,0a1.07,1.07,0,0,0,.27-.16.46.46,0,0,0,.18-.37Z"/><path class="cls-6" d="M82.73,50a.93.93,0,0,0,.19-.4s0-.1,0,0l0-.07.08-.16a4.54,4.54,0,0,1,.36-.6s0,0,0,0l.06-.08.11-.12a.86.86,0,0,0,.13-.2s0,0,0,0l.06-.08A1.78,1.78,0,0,0,84,48a1.5,1.5,0,0,0,.2-.24.12.12,0,0,0-.1-.18,1.16,1.16,0,0,0-.37.07,1,1,0,0,0-.37.15l-.16.1A.7.7,0,0,0,83,48a3.44,3.44,0,0,0-.28.36,2.46,2.46,0,0,0-.37.72,1.31,1.31,0,0,0-.08.89.28.28,0,0,0,.45.06Z"/><path class="cls-6" d="M100.71,51.54a1.6,1.6,0,0,0,1-1c0-.1,0-.2.07-.3a2,2,0,0,1,.07-.31,2.09,2.09,0,0,0,.06-.66,2.42,2.42,0,0,0-.4-1.22,2.53,2.53,0,0,0-.42-.5.6.6,0,0,0-.25-.13l-.12,0s0,0,0,0a.67.67,0,0,0-.37,0,.29.29,0,0,0-.15.25.63.63,0,0,0,.1.27.56.56,0,0,1,0,.08.44.44,0,0,0,.12.18c0,.06.11.1.17.16l.12.14a1.65,1.65,0,0,1,.32.8,2,2,0,0,1,0,.43.59.59,0,0,1-.17.31c-.08.09-.14.18-.21.27l0,.08-.06.06c0,.06-.11.11-.17.17a1.44,1.44,0,0,0-.22.27.46.46,0,0,0,0,.5.48.48,0,0,0,.48.17Z"/><path class="cls-6" d="M84.69,62c1.12-.38,2.15-1,3.29-1.32a24.31,24.31,0,0,1,3.48-.78,23.68,23.68,0,0,1,3.66-.31,12.87,12.87,0,0,0,3.34,0,.13.13,0,0,0,0-.23A3,3,0,0,0,97,58.87c-.63-.08-1.27-.12-1.9-.15a19.41,19.41,0,0,0-3.81.22,18.58,18.58,0,0,0-3.66,1,12.42,12.42,0,0,0-3.25,1.59c-.23.18,0,.59.29.49Z"/><path class="cls-6" d="M106.5,54.35a1.46,1.46,0,0,0,.59.28l.42.15c.32.1.64.2.95.32l.45.18,0,0,.12.05.2.09c.34.16.8.38,1.16.18a.41.41,0,0,0,.2-.35.71.71,0,0,0-.3-.53,2,2,0,0,0-.5-.32c-.32-.16-.66-.3-1-.43s-.62-.23-.94-.33a2.8,2.8,0,0,0-.5-.12,1.48,1.48,0,0,0-.66,0,.51.51,0,0,0-.23.85Z"/><path class="cls-6" d="M109.29,50.4a.79.79,0,0,0,.29.18l.23.1.47.27.46.28a1.64,1.64,0,0,1,.22.14.85.85,0,0,0,.32.18.47.47,0,0,0,.48-.16.45.45,0,0,0,0-.5.87.87,0,0,0-.32-.31l-.24-.15a3.5,3.5,0,0,0-.49-.29c-.2-.08-.4-.17-.6-.24a1.27,1.27,0,0,0-.68-.13.36.36,0,0,0-.27.26.39.39,0,0,0,.1.37Z"/><path class="cls-6" d="M111.79,49.16l.92,1.46a.59.59,0,0,0,.35.27.61.61,0,0,0,.44-.06.56.56,0,0,0,.27-.35.56.56,0,0,0-.06-.44l-1-1.41a.57.57,0,0,0-.31-.24.52.52,0,0,0-.59.77Z"/><path class="cls-6" d="M75.77,61.4c-.41.17-.47.53-.62.93a8.7,8.7,0,0,1-.7,1.52,10.13,10.13,0,0,0-1,3.19c-.11.52-.19,1-.26,1.57A7.7,7.7,0,0,0,73,70.46a2.77,2.77,0,0,0,.22.63,2.22,2.22,0,0,1,.1.73c0,.61,0,1.22,0,1.82a.42.42,0,0,0,.83,0A13.57,13.57,0,0,1,74.26,72c.08-.57.44-.93.57-1.47a30.28,30.28,0,0,0,.47-3.15,16.06,16.06,0,0,0,.39-3.15,5.07,5.07,0,0,1,.22-1.64c.1-.38.26-.71,0-1.06a.17.17,0,0,0-.19-.08Z"/><path class="cls-6" d="M73.54,71.44a4.67,4.67,0,0,0,0,1c0,.33,0,.66,0,1,0,.68.07,1.35.15,2a.1.1,0,0,0,.19,0c0-.68,0-1.35,0-2l0-1a4.67,4.67,0,0,0-.08-1,.14.14,0,0,0-.27,0Z"/><path class="cls-6" d="M81.49,34.29l0,.11a.42.42,0,0,0,.06.14.94.94,0,0,0,.09.12l0,.05,0,0a.16.16,0,0,0,.12.06.18.18,0,0,0,.1,0s0,0,0-.08,0,0,0,0a.13.13,0,0,0,0-.1l0,0,0,0,0-.05,0,0,0,0-.05,0,0,0-.11-.06a.06.06,0,0,0-.07,0,.06.06,0,0,0,0,.07Z"/><path class="cls-6" d="M79.46,34.87l-.1.09.06,0h0l-.07,0,0,0a.12.12,0,0,0,0,.07v0a.19.19,0,0,0,0,.08.14.14,0,0,0,0,.06l0,0a.1.1,0,0,0,.09,0l.07,0,0,0,0,0a.3.3,0,0,0,0-.08.17.17,0,0,0,0-.17v0h0v0l0-.14s0-.07-.08,0Z"/><path class="cls-6" d="M77.33,31.49l.18.08h0a.24.24,0,0,0,.12,0h0a.32.32,0,0,0,.14,0l.07,0,0-.05a.16.16,0,0,0,0-.15.35.35,0,0,0-.13-.11.31.31,0,0,0-.13-.06l-.2,0a.18.18,0,0,0-.14,0,.27.27,0,0,0-.07.08.25.25,0,0,0,0,.12.23.23,0,0,0,.08.11Z"/><path class="cls-6" d="M80.78,31.29l.1-.08.05,0h0l0,0s0,0,0-.05v0A.07.07,0,0,0,81,31h-.12l0,0-.1.06a.15.15,0,0,0-.05.06.19.19,0,0,0,0,.08l.06.05Z"/><path class="cls-6" d="M82,32.33l.09,0a.35.35,0,0,0,.17,0l.09,0a.43.43,0,0,0,.12,0,.13.13,0,0,0,.07-.14s0,0,0-.06a.18.18,0,0,0-.07,0h-.17l-.1,0a.21.21,0,0,0-.13,0l-.09.07a.13.13,0,0,0,0,.12.11.11,0,0,0,.08.08Z"/><path class="cls-6" d="M78.07,33.38h0s-.05,0-.08,0l-.06,0a.1.1,0,0,0-.06.05l0,0,0,.06,0,0a.07.07,0,0,0,0,0,.14.14,0,0,0,0,.09l.05,0a.2.2,0,0,0,.11,0l.08,0h0l.08,0,.06,0,.07,0,0,0,0,0s0,0,0-.07a.15.15,0,0,0,0-.11.12.12,0,0,0-.06-.06.17.17,0,0,0-.14,0Z"/><path class="cls-6" d="M78.79,30.5l-.06.07a.27.27,0,0,0,0,.12.24.24,0,0,0,0,.08.18.18,0,0,0,0,.07.21.21,0,0,0,.1.06h0l-.11-.08,0,0a.16.16,0,0,0,.14.09.16.16,0,0,0,.15-.09l0,0L79,30.9h0a.21.21,0,0,0,.1-.06.18.18,0,0,0,0-.07.24.24,0,0,0,0-.08.27.27,0,0,0,0-.12l-.06-.07a.09.09,0,0,0-.06-.06l-.08,0-.08,0a.1.1,0,0,0,0,.06Z"/><path class="cls-6" d="M107.38,30.91s0,0,0,.06V31a.08.08,0,0,0,0,.07s0,0,0,.05a.1.1,0,0,0,0,0h0l-.08-.1v0a.06.06,0,0,0,0,0l.06.06,0,0a.11.11,0,0,0,.11,0l0,0a.34.34,0,0,0,.06-.06s0,0,0,0v0l-.08.1h0l0,0a.1.1,0,0,0,0-.07.08.08,0,0,0,0,0,.19.19,0,0,0,0-.08s0,0,0-.06l0,0,0-.05,0,0-.07,0h0l0,0,0,0,0,.06Z"/><path class="cls-6" d="M105.77,32l.07.11.1.14,0,0a.13.13,0,0,0,.08,0h0a.09.09,0,0,0,.07,0,.1.1,0,0,0,.06,0l0,0s0,0,0,0,0-.06,0-.08a.24.24,0,0,0,0-.08l0,0-.09-.05-.12,0-.13,0a.11.11,0,0,0-.11,0,.09.09,0,0,0,0,.12Z"/><path class="cls-6" d="M109.7,32.18l.2-.08.1,0,.07,0a.2.2,0,0,0,.08-.08.13.13,0,0,0,0-.12.13.13,0,0,0-.11-.06H110l-.08,0-.09.06-.18.11a.11.11,0,0,0,0,.13.1.1,0,0,0,.12.06Z"/><path class="cls-6" d="M109.57,33.16l.2,0h.15l.14,0a.17.17,0,0,0,0-.32l-.14,0a.38.38,0,0,0-.15,0l-.2,0s0,0-.07,0a.16.16,0,0,0,0,.09.19.19,0,0,0,0,.07.14.14,0,0,0,.08.07Z"/><path class="cls-6" d="M106,33.08l-.16,0h-.09a.14.14,0,0,0-.09,0,.26.26,0,0,0-.11.14h0l.08-.1h0a.1.1,0,0,0-.05.06.12.12,0,0,0,0,.16.1.1,0,0,0,.05.06h0l-.08-.11v0a.14.14,0,0,0,0,.08.17.17,0,0,0,.06.06l0,0h.13l.16,0,0,0,0,0,0,0a.15.15,0,0,0,0-.07v-.05l0,0,0-.05-.07,0Z"/><path class="cls-6" d="M106.6,34.26h0l0,0h0l.08-.05h0a.28.28,0,0,0-.15.15,0,0,0,0,1,0,0l0,0,0,0,0,0,0,0,0,0h0l.06,0h0s-.08,0-.1.06l0,.06,0,0h0a.26.26,0,0,0,0,.09.11.11,0,0,0,0,.08.19.19,0,0,0,0,.07l0,0,0,0a.28.28,0,0,0,.13,0h.06l.05,0h0l0,0,0,0,0-.06,0,0s0,0,0-.06h0s0-.06,0-.09v0a.1.1,0,0,0,0-.07s0,0,0,0l-.07,0h0l0,0-.06,0h-.1l0,0a.1.1,0,0,0,0,0Z"/><path class="cls-6" d="M108.89,34.44a.58.58,0,0,0,.08.18l.09.07.08.08,0,0,.08.06,0,0h.08a.16.16,0,0,0,.1-.05.22.22,0,0,0,.05-.08.19.19,0,0,0,0-.13l-.06-.08,0,0-.07-.09s0-.06-.08-.08l0,0,0,0h-.06l0,0a.19.19,0,0,0-.16,0,.17.17,0,0,0,0,.17Z"/><path class="cls-6" d="M107.76,34.77l0,.14s0,.05,0,.07,0,.05,0,.07,0,0,0,0a.13.13,0,0,0,.11.09l.06,0s0,0,0-.07a0,0,0,0,0,0,0,.09.09,0,0,0,0-.07v-.07l0-.14a.26.26,0,0,0,0-.08.19.19,0,0,0-.08,0,.09.09,0,0,0-.07,0l0,0a.07.07,0,0,0,0,.05Z"/><path class="cls-5" d="M112.38,30.38c-.12.07-.11.23-.12.36s0,.36-.06.54a4.42,4.42,0,0,1-1.15,2.33,1.3,1.3,0,0,0-.32.38c0,.11.08.21.18.19s.3-.22.41-.34.24-.28.35-.43a4.69,4.69,0,0,0,.54-1,4.79,4.79,0,0,0,.31-1.06,4.86,4.86,0,0,0,.07-.55c0-.14,0-.36-.12-.44a.07.07,0,0,0-.09,0Z"/><path class="cls-5" d="M84.35,32.27a4,4,0,0,1-1,2.57,3.43,3.43,0,0,1-1.07.78,3.81,3.81,0,0,1-.64.24l-.65.19c-.12,0-.14.24,0,.26a1.79,1.79,0,0,0,.73,0,4.19,4.19,0,0,0,1.95-1.12,3.85,3.85,0,0,0,1.08-2.89.18.18,0,0,0-.36,0Z"/><path class="cls-5" d="M90.09,34.66a1,1,0,0,0,.43-.15A3.66,3.66,0,0,1,92.21,34a4.59,4.59,0,0,1,1.11.1,3.62,3.62,0,0,1,.56.17,1.42,1.42,0,0,0,.56.18.24.24,0,0,0,.2-.36,1,1,0,0,0-.55-.34,3.25,3.25,0,0,0-.63-.17,3.93,3.93,0,0,0-1.28,0,4.53,4.53,0,0,0-1.21.34c-.3.13-.84.34-.92.69,0,0,0,0,0,.06Z"/><path class="cls-5" d="M89.81,37.93a.88.88,0,0,0,.43-.14,4.11,4.11,0,0,1,.46-.15,4.75,4.75,0,0,1,1-.16,5.14,5.14,0,0,1,1.94.29c.17.06.62.3.66,0s-.45-.44-.65-.52a4.19,4.19,0,0,0-2-.3,4.06,4.06,0,0,0-1.09.22,5.49,5.49,0,0,0-.51.21c-.15.08-.36.16-.44.32a.18.18,0,0,0,.16.27Z"/><path class="cls-5" d="M90.17,40.89a3.65,3.65,0,0,0,.55-.13l.5-.1a5.33,5.33,0,0,1,1.13,0,5.71,5.71,0,0,1,2.1.65.27.27,0,0,0,.28-.47,5,5,0,0,0-2.35-.7,5.85,5.85,0,0,0-1.18.07,2.61,2.61,0,0,0-1.16.38c-.13.1,0,.33.13.32Z"/><path class="cls-5" d="M84.51,50.35c0-.14,0-.28,0-.41s0-.08,0-.12,0,0,0,0a1.39,1.39,0,0,1,.06-.19.08.08,0,0,1,0,0s0,0,0,0a1.22,1.22,0,0,1,.07-.17c0,.09,0,0,0,0l.06-.1a.21.21,0,0,1,.06-.1c0,.05,0,.05,0,0l0,0,.07-.07a.08.08,0,0,1,0,0s0,0,0,0,.13-.08.18-.11l0,0c-.06,0-.07,0,0,0l.11,0,.12,0h.23s.2,0,.21,0-.08,0,0,0h0l.12,0a1.89,1.89,0,0,0,.47.11.32.32,0,0,0,.29-.38.84.84,0,0,0-.36-.45,1.34,1.34,0,0,0-.44-.19,1.66,1.66,0,0,0-2,1.59,1.1,1.1,0,0,0,.39.91.18.18,0,0,0,.27-.15Z"/><path class="cls-5" d="M97.55,48.83h.15l.29,0c.07,0,0,0,0,0H98l.1,0,.12,0,0,0c-.12,0,0,0,0,0l.19.11.09.06s.08,0,0,0h0c.06,0,.11.11.16.16s-.07-.1,0,0l0,0a.21.21,0,0,1,.06.1.47.47,0,0,0,.52.21h0l-.3,0h0a.38.38,0,0,0,.55-.22v0l-.1.18v0a.44.44,0,0,0,.07-.55,1.69,1.69,0,0,0-1-.79,1.67,1.67,0,0,0-.59-.05.81.81,0,0,0-.37.12,1.3,1.3,0,0,0-.23.18.24.24,0,0,0,.16.41Z"/><path class="cls-5" d="M83.3,55.21a1.24,1.24,0,0,0,0,.27c0,.09.07.18.11.27a2.51,2.51,0,0,0,.24.46,2.06,2.06,0,0,0,.35.43,2.11,2.11,0,0,0,.23.19l.11.07a.39.39,0,0,0,.24,0,.23.23,0,0,0,.17-.22.43.43,0,0,0-.14-.32l0,0h0l-.06-.09c-.06-.08-.14-.15-.2-.23l-.07-.09s0,0,0,0a.1.1,0,0,0,0-.05l-.1-.14,0,0s0,.05,0,0a2.43,2.43,0,0,1-.14-.2c-.05-.06-.08-.13-.13-.2a1.16,1.16,0,0,0-.18-.2.19.19,0,0,0-.32.13Z"/><path class="cls-5" d="M98.93,55.83a11.3,11.3,0,0,0,1.07-.48l.49-.26a1.36,1.36,0,0,0,.53-.42.33.33,0,0,0,0-.38.33.33,0,0,0-.36-.12.8.8,0,0,0-.29.15l-.23.16-.44.31c-.31.2-.62.38-1,.55a.27.27,0,0,0-.11.34.27.27,0,0,0,.32.15Z"/><path class="cls-5" d="M88.47,4.68a14.43,14.43,0,0,0,2.7,1.1c1,.25,1.9.45,2.87.61a28.4,28.4,0,0,0,5.89.42c4-.13,8-1,12-1.39a29.52,29.52,0,0,1,3.26-.14c.59,0,1.17,0,1.75.08a8.48,8.48,0,0,0,1.74.11c.56-.07.94-.87.32-1.17a7,7,0,0,0-2.76-.5,25.53,25.53,0,0,0-3,0c-2,.11-3.89.39-5.82.69a47.54,47.54,0,0,1-11.9.84A28.53,28.53,0,0,1,92,4.83c-.54-.12-1.07-.26-1.6-.37s-1.17-.19-1.74-.31c-.31-.06-.53.37-.23.53Z"/><path class="cls-5" d="M138.48,22.21c.68,1.84,2.33,3.26,3.74,4.57A39.73,39.73,0,0,0,147,30.53a43.3,43.3,0,0,0,10.91,5.38c1,.34,1.46-1.27.44-1.6a43.08,43.08,0,0,1-10.44-5.12,48.21,48.21,0,0,1-4.55-3.5c-1.44-1.25-2.72-2.88-4.39-3.82a.3.3,0,0,0-.44.34Z"/><path class="cls-5" d="M125.64,28.25c-.29.86-.68,1.7-1,2.55a21.33,21.33,0,0,1-1.17,2.46,23.58,23.58,0,0,1-1.39,2.26q-.39.55-.81,1.08c-.3.38-.76.75-.71,1.26a.62.62,0,0,0,.61.62c.57,0,.8-.43,1.13-.85s.59-.78.87-1.19a23.89,23.89,0,0,0,1.5-2.47,25,25,0,0,0,1.18-2.58,17,17,0,0,0,.76-2.88.49.49,0,0,0-1-.26Z"/><path class="cls-5" d="M104.13,28.24l-.18.26s0,0,0,0a0,0,0,0,0,.05,0l.19-.24a0,0,0,0,0,0-.07,0,0,0,0,0-.07,0Z"/><path class="cls-5" d="M103.84,29.11a2.69,2.69,0,0,0,.56.21,4.07,4.07,0,0,0,.61.06c.36,0,.71,0,1.07-.05.78,0,1.55-.14,2.32-.26s1.52-.27,2.27-.44c.44-.1,1.74-.41,1.61-1.07s-1.33-.34-1.73-.25c-.75.17-1.5.34-2.27.47s-1.51.23-2.27.3l-1.16.11a4.25,4.25,0,0,0-.6.12c-.18.06-.31.16-.48.23s-.14.48.07.57Z"/><path class="cls-5" d="M80,28.05a1.32,1.32,0,0,0,.71.58c.27.13.54.25.82.36a10.37,10.37,0,0,0,1.8.47,12.37,12.37,0,0,0,3.84.11.64.64,0,0,0,.47-.47.66.66,0,0,0-.06-.53.68.68,0,0,0-.59-.33,17,17,0,0,1-3.42-.1c-.58-.09-1.15-.21-1.71-.35-.28-.07-.57-.12-.85-.2a1.32,1.32,0,0,0-.81-.05.35.35,0,0,0-.2.51Z"/><path class="cls-5" d="M71.93,31.33a3.69,3.69,0,0,0-1.17,2.84,3.84,3.84,0,0,0,.35,1.53c.18.4.51,1,1,1.14a.21.21,0,0,0,.26-.21,1.87,1.87,0,0,0-.22-.58,5.32,5.32,0,0,1-.26-.61,5.09,5.09,0,0,1-.29-1.27,5.38,5.38,0,0,1,.55-2.7.12.12,0,0,0-.18-.14Z"/><path class="cls-5" d="M81.48,43.17a1.2,1.2,0,0,0,.77-.22,4.83,4.83,0,0,0,.62-.37,6.87,6.87,0,0,0,1.18-1,6.5,6.5,0,0,0,.9-1.25l.18-.36a2.26,2.26,0,0,0,.11-.37c.07-.23.2-.55.08-.77a.21.21,0,0,0-.3-.08c-.2.1-.27.41-.37.6s-.13.19-.19.31l-.15.29a6,6,0,0,1-.79,1.15,6.23,6.23,0,0,1-1,.93l-.61.4c-.19.12-.46.22-.58.43a.24.24,0,0,0,.14.35Z"/><path class="cls-5" d="M107.33,36.71c-.25.14-.17.53-.11.76a3.86,3.86,0,0,0,.35.87,4.21,4.21,0,0,0,1.3,1.42,6.07,6.07,0,0,0,1.82.81c.34.09.69.17,1,.23a1.86,1.86,0,0,0,1,0c.13,0,.22-.24.09-.34a1.72,1.72,0,0,0-.84-.31c-.32-.06-.63-.13-.95-.21a5.87,5.87,0,0,1-1.74-.76,4,4,0,0,1-1.18-1.32,5.51,5.51,0,0,1-.36-.78c-.06-.13-.22-.52-.43-.39Z"/><path class="cls-7" d="M107.78,36.69a2.17,2.17,0,0,0,1.16.8,5.16,5.16,0,0,0,1.5.37,5.1,5.1,0,0,0,1.51,0c.42-.07,1.19-.17,1.35-.63a.28.28,0,0,0-.2-.34,1,1,0,0,0-.64.11,4.84,4.84,0,0,1-.65.19,4.6,4.6,0,0,1-1.33.1A5,5,0,0,1,109.2,37a9.1,9.1,0,0,0-1.27-.51.14.14,0,0,0-.15.2Z"/><path class="cls-7" d="M109,38a3.38,3.38,0,0,0,4,1.36.35.35,0,0,0,.24-.32v0l-.13.24.13-.1a.23.23,0,0,0-.18-.42H113l.19.08,0,0a.33.33,0,0,0-.32-.08,3.6,3.6,0,0,1-1.9,0,4.94,4.94,0,0,1-1.72-.92A.13.13,0,0,0,109,38Z"/><path class="cls-7" d="M79.12,41.07a.8.8,0,0,0,.59,0,4.88,4.88,0,0,0,.66-.16,5.94,5.94,0,0,0,2.37-1.29,3.77,3.77,0,0,0,.91-1,.06.06,0,0,0-.08-.08c-.38.2-.71.48-1.07.71a12.74,12.74,0,0,1-1.15.62,9.89,9.89,0,0,1-1.16.5c-.2.08-.41.14-.62.21s-.38.1-.5.28a.12.12,0,0,0,.05.17Z"/><path class="cls-7" d="M81.77,41.67a7.39,7.39,0,0,0,1.14-.81,3.55,3.55,0,0,0,.47-.48,1.8,1.8,0,0,0,.36-.59c0-.06,0-.12-.1-.08a10.1,10.1,0,0,0-1,.87,6.23,6.23,0,0,1-1.07.78.18.18,0,0,0,.19.31Z"/><path class="cls-7" d="M71.82,42.66c-.24.19-.07.54,0,.78a7.35,7.35,0,0,0,.34.76,8.35,8.35,0,0,0,2,2.58,5.71,5.71,0,0,0,.72.49l.37.2a3.93,3.93,0,0,1,.41.14.23.23,0,0,0,.23-.4c-.13-.07-.2-.2-.32-.29l-.29-.22c-.21-.18-.4-.36-.61-.53A8.28,8.28,0,0,1,73.59,45a7.75,7.75,0,0,1-.86-1.33c-.12-.23-.23-.46-.34-.7s-.1-.27-.24-.34a.29.29,0,0,0-.33,0Z"/><path class="cls-7" d="M116.23,41.29a7.81,7.81,0,0,0,2.55-.66,4.7,4.7,0,0,0,1-.59,2.71,2.71,0,0,0,.41-.42,1.27,1.27,0,0,0,.28-.44.1.1,0,0,0-.14-.1,2.32,2.32,0,0,0-.4.3l-.44.28a5.55,5.55,0,0,1-.94.48c-.76.28-1.56.44-2.34.67-.25.08-.22.51.07.48Z"/><path class="cls-5" d="M139.36,87.84a7.28,7.28,0,0,1-1,.63c-.35.19-.68.4-1,.56s-.76.26-1.14.4a8.63,8.63,0,0,1-1.13.33c-.4.08-1.08.2-1,.75s.85.43,1.22.3.77-.28,1.15-.44a7.33,7.33,0,0,0,1.06-.59c.38-.25.75-.5,1.11-.77a9.85,9.85,0,0,0,1-.94c.11-.12,0-.34-.18-.23Z"/><path class="cls-5" d="M126.88,98.12a14.4,14.4,0,0,0-.13,2.71c0,.91,0,1.82-.1,2.73a46.12,46.12,0,0,1-.69,5.62,48.32,48.32,0,0,1-1.29,5.31c-.26.88-.57,1.74-.85,2.6a15.09,15.09,0,0,0-.77,2.7.32.32,0,0,0,.54.23,14.73,14.73,0,0,0,2.16-5,46.06,46.06,0,0,0,1.34-5.66,47.41,47.41,0,0,0,.64-5.58c.06-1,.08-1.9.07-2.85a9.53,9.53,0,0,0-.29-2.82.33.33,0,0,0-.63,0Z"/><path class="cls-5" d="M52,41.26c.24.78,1.2,1.13,1.83,1.57a14.73,14.73,0,0,1,1.9,1.63,19.66,19.66,0,0,1,3,4.11A61.09,61.09,0,0,1,63,59.26a51.06,51.06,0,0,0,2.64,6.56c.57,1.13,2.27.13,1.7-1-3.54-7-4.26-15.49-10-21.31a16.55,16.55,0,0,0-2.26-1.91c-.67-.47-1.84-1.37-2.7-1a.56.56,0,0,0-.38.68Z"/><path class="cls-5" d="M69.18,28.72a3.34,3.34,0,0,0-1.07,1.9A4.39,4.39,0,0,0,68,31.7a5.42,5.42,0,0,0,.06.58,1.67,1.67,0,0,0,.21.52.2.2,0,0,0,.37-.1c0-.17,0-.34,0-.5a3.71,3.71,0,0,1,0-.47,4.57,4.57,0,0,1,.1-1A6.51,6.51,0,0,1,69.51,29c.13-.22-.15-.4-.33-.26Z"/><path class="cls-5" d="M120.13,27.37l1.44.46.7.23.37.11a.54.54,0,0,0,.43,0,.27.27,0,0,0,.1-.37c-.16-.24-.47-.27-.73-.33l-.72-.17-1.47-.34a.22.22,0,0,0-.12.43Z"/><path class="cls-5" d="M85,63.63a7.66,7.66,0,0,0,2.2-.43c.77-.18,1.54-.41,2.32-.58a24.64,24.64,0,0,1,4.77-.54,25.39,25.39,0,0,1,4.77.4c.75.14,1.49.31,2.22.52s1.64.74,2.37.52a.7.7,0,0,0,.42-1c-.44-.7-1.49-.85-2.25-1.06a22.11,22.11,0,0,0-2.44-.55,24.77,24.77,0,0,0-5.09-.35,25.72,25.72,0,0,0-4.94.65A14.8,14.8,0,0,0,86.9,62a5.53,5.53,0,0,0-2.09,1.24.26.26,0,0,0,.19.44Z"/><path class="cls-5" d="M94.75,126.45A6.55,6.55,0,0,0,98.57,129a10.65,10.65,0,0,0,4.76.33,11,11,0,0,0,4.15-1.55c1.24-.78,2.58-2,2.81-3.48a.43.43,0,0,0-.62-.48,37.09,37.09,0,0,0-3.09,2.22,9.47,9.47,0,0,1-3.57,1.39,9.57,9.57,0,0,1-3.84-.23,11.26,11.26,0,0,1-2-.68,13.55,13.55,0,0,0-1.87-.84.54.54,0,0,0-.6.78Z"/><path class="cls-5" d="M100.88,77.46a7,7,0,0,0,.63,1.62c.24.55.48,1.1.71,1.65.45,1,.87,2.06,1.26,3.11a54.48,54.48,0,0,1,2,6.64,58.07,58.07,0,0,1,1.35,13.73.91.91,0,0,0,1.81,0A49,49,0,0,0,107.27,90a52.44,52.44,0,0,0-2.13-6.83c-.44-1.11-.9-2.21-1.42-3.29-.26-.54-.54-1.06-.84-1.58a5.34,5.34,0,0,0-1-1.42.62.62,0,0,0-1,.6Z"/><path class="cls-5" d="M88.67,80.76a.05.05,0,1,0,0-.1.05.05,0,0,0,0,.1Z"/><path class="cls-5" d="M88.18,80.42l-.34-.13-.17-.07-.09,0a.2.2,0,0,1-.08,0,.09.09,0,0,0-.14,0,.09.09,0,0,0,.08.12.39.39,0,0,1,.18,0l.18,0,.37.1s.06,0,0-.07Z"/><path class="cls-5" d="M87.06,80.3c.12.59.15,1.16.29,1.74s.29,1.14.44,1.71c.28,1,.54,2.12.78,3.18a66.56,66.56,0,0,1,1.15,6.58,64.44,64.44,0,0,1,.49,6.66c0,1.09,0,2.19,0,3.28,0,.54-.1,1.1-.07,1.64s.26,1.17.36,1.75.72.37.84,0a10,10,0,0,0,.58-1.75,15,15,0,0,0,.06-1.64c0-1.17,0-2.34,0-3.52a66.87,66.87,0,0,0-.54-6.77,63.18,63.18,0,0,0-1.26-6.67c-.28-1.13-.6-2.26-1-3.38-.17-.52-.37-1-.57-1.54s-.55-1-.83-1.58-.82-.11-.74.31Z"/><path class="cls-7" d="M119.19,32.33a.24.24,0,0,0,0,.12l0,.06,0-.08,0,.06a.36.36,0,0,0,.08.12l0,0,.09.09,0-.06a1.38,1.38,0,0,1,.14.24l0-.08a.48.48,0,0,0,.08.16l.08.06,0,0-.06,0h0a.33.33,0,0,0,.13.07h.15a.27.27,0,0,0,.19-.2.4.4,0,0,0,0-.15.39.39,0,0,0-.07-.23l-.09-.16a1.63,1.63,0,0,0-.17-.2.63.63,0,0,0-.12-.11l-.11,0h-.19l-.07,0a.16.16,0,0,0-.08.08.29.29,0,0,0-.07.18Z"/><path class="cls-7" d="M121.84,32.81l0,0s0,0,0,0H122a.49.49,0,0,0,.2-.11l.19-.19.19-.16.2-.17a.37.37,0,0,0,.15-.4c-.08-.19-.33-.17-.48-.08a2,2,0,0,0-.45.36l-.2.2a1,1,0,0,0-.1.17.43.43,0,0,0,0,.11.37.37,0,0,0,0,.11s0,.1,0,0l0,.05a.12.12,0,0,0,.1.07Z"/><path class="cls-7" d="M121.7,30.11a1.33,1.33,0,0,0,.3.53l.09.08.09.08.11,0a1.5,1.5,0,0,0,.29.06.24.24,0,0,0,.13,0,.28.28,0,0,0,.08-.11.22.22,0,0,0-.1-.24l-.06,0,.05,0-.1-.09s0,0-.07-.07l-.09-.06.06,0a.77.77,0,0,1-.18-.18l0,.06a1.59,1.59,0,0,1-.13-.22l0,.06a.14.14,0,0,1,0-.06.28.28,0,0,0-.12-.16.31.31,0,0,0-.21,0,.29.29,0,0,0-.19.33Z"/><path class="cls-7" d="M119.67,31a1.38,1.38,0,0,0,.29,0,.72.72,0,0,0,.37-.18,1,1,0,0,0,.27-.26,1.18,1.18,0,0,0,.13-.18s0-.07,0-.12v-.06a.25.25,0,0,0,0-.08.2.2,0,0,0-.11-.19.21.21,0,0,0-.23,0l-.07.05s0,0,0,0l-.08,0-.06.09,0-.06-.17.24,0-.06a2.06,2.06,0,0,1-.28.31l-.1.11,0,.07v0h0l0,0a.23.23,0,0,0-.07.07.09.09,0,0,0,.06.15Z"/><path class="cls-5" d="M121,29.85a.55.55,0,0,0-.32.26l.08-.11a2.79,2.79,0,0,0-.33.58l.06-.13,0,.07a.71.71,0,0,0-.07.16.88.88,0,0,0,0,.17l0-.14v.06a.68.68,0,0,0,0,.14.55.55,0,0,0,.07.25l-.06-.22V31s0,.11,0,0,0,0,0,0l0,0a.36.36,0,0,0,0,.11.13.13,0,0,0,.06.15.3.3,0,0,0,.16.05h.1s-.07,0,0,0h.05l.18,0-.22-.06a.56.56,0,0,0,.26.07.45.45,0,0,0,.16,0,.81.81,0,0,0,.3-.17l.08-.09a1,1,0,0,0,.11-.15l.07-.18a1,1,0,0,0,.06-.35,1.27,1.27,0,0,0-.06-.28.65.65,0,0,0-.16-.21l-.11-.06a.39.39,0,0,0-.3,0Z"/><path class="cls-5" d="M120.22,31.24H120a1.37,1.37,0,0,0-.28,0,.15.15,0,0,0-.16.17.16.16,0,0,0,.2.13,1.19,1.19,0,0,0,.26-.11l.1,0,.14,0s0-.11,0-.1Z"/><path class="cls-5" d="M119.76,32V32a.49.49,0,0,0,0,.17v-.07s0,.06,0,.09a.22.22,0,0,0,.08.13l0,0,0-.06a1.37,1.37,0,0,1,.13.2l.06.11,0,0a.86.86,0,0,0,.07.1l0-.06.08.09.09,0a.27.27,0,0,0,.26-.07.28.28,0,0,0,.06-.09.43.43,0,0,0,0-.11v0a.47.47,0,0,0,0-.16.72.72,0,0,0-.1-.22,1.57,1.57,0,0,0-.15-.19.63.63,0,0,0-.12-.11.38.38,0,0,0-.16,0,.37.37,0,0,0-.15,0l.18,0h0a.24.24,0,0,0-.2,0,.19.19,0,0,0,0,.2Z"/><path class="cls-5" d="M121.4,32.66h.12a.51.51,0,0,0,.16-.09l.12-.11c.08-.06.15-.14.23-.21a1.23,1.23,0,0,0,.23-.28l.08-.13a.4.4,0,0,0,.06-.22.19.19,0,0,0-.18-.19.48.48,0,0,0-.21.07l-.14.07a1.27,1.27,0,0,0-.28.24,2.18,2.18,0,0,0-.21.22l-.1.12a.39.39,0,0,0-.1.16.5.5,0,0,0,0,.12.24.24,0,0,0,.24.24Z"/><path class="cls-5" d="M121.25,30.48l0,.1v-.14a.33.33,0,0,0,0,.17.49.49,0,0,0,.1.15.81.81,0,0,0,.14.12l.19.11.28.11.18,0a.36.36,0,0,0,.23-.06.3.3,0,0,0,.11-.39.55.55,0,0,0-.17-.17l-.16-.06-.21-.07.08,0c-.2-.09-.42-.27-.64-.15l.14,0h-.11c-.13,0-.23.14-.2.25Z"/><path class="cls-8" d="M67.3,26.4c-1.19,2.52-1.32,5.8-1.14,8.53a23.29,23.29,0,0,0,6.49,14.7,24.46,24.46,0,0,0,3,2.61A8.8,8.8,0,0,0,79,54.14a.31.31,0,0,0,.3-.52,18.79,18.79,0,0,0-2.75-1.88,23.19,23.19,0,0,1-7.23-8.46,22.21,22.21,0,0,1-2.24-8.13,23.21,23.21,0,0,1,0-3.91c.13-1.56.56-3,.77-4.6,0-.31-.41-.6-.57-.24Z"/><path class="cls-8" d="M81.88,51.5c-3.59,3.83-6.95,8.41-8.43,13.51-1.72,5.92-.12,11.9,1.49,17.64,1.72,6.16,3.47,12.31,5.21,18.46,1.66,5.89,3.09,11.92,5.26,17.64,1.84,4.83,4.46,9.44,8.72,12.51,3.75,2.71,8.64,4.08,13.13,2.52,11-3.82,11.89-17.55,12.33-27.28.67-14.65-.61-29.46-2.37-44,0-.11-.19-.12-.18,0,1,12.19,2.42,24.32,2.41,36.57a100,100,0,0,1-1.3,18.13c-.94,5.06-3,10.11-7,13.45A12.7,12.7,0,0,1,97,132c-4.65-2.34-7.77-6.57-9.85-11.24-2.29-5.14-3.58-10.73-5.11-16.13q-2.48-8.75-5-17.5c-1.8-6.33-4.61-13.26-3.34-19.94,1.14-6,5.17-10.57,8.48-15.46.14-.2-.17-.44-.34-.26Z"/><path class="cls-8" d="M104.2,53.41a31.74,31.74,0,0,1,4.35,1.82,21.49,21.49,0,0,1,1.93,1.21c.64.45,1.23,1,1.89,1.39.1.06.25-.07.17-.17a7.6,7.6,0,0,0-1.65-1.5,19.15,19.15,0,0,0-2.1-1.34,14.43,14.43,0,0,0-4.52-1.68.14.14,0,0,0-.07.27Z"/><path class="cls-8" d="M88.56,55.59a.07.07,0,0,0,0-.13.07.07,0,0,0,0,.13Z"/><path class="cls-8" d="M89.69,56.22c-.72-.84-.84-2-1.39-2.92a2.13,2.13,0,0,0-2.38-1.22,1.83,1.83,0,0,0-1.1,1.78A2.45,2.45,0,0,0,85.94,56a4.39,4.39,0,0,0,1.61.62,7.91,7.91,0,0,0,.85.13,2.1,2.1,0,0,0,.9,0,.17.17,0,0,0,0-.31,1.8,1.8,0,0,0-.65-.14L88,56.15a5,5,0,0,1-1.31-.36,2.09,2.09,0,0,1-1.33-1.65A1.5,1.5,0,0,1,86,52.59c.81-.38,1.62.4,2,1,.56.9.73,2,1.54,2.74a.1.1,0,0,0,.14-.14Z"/><path class="cls-8" d="M99.4,54.22a2,2,0,0,0,0-.48,1.68,1.68,0,0,0-.13-.5,2.68,2.68,0,0,0-.54-.84A2.72,2.72,0,0,0,97,51.54a2.52,2.52,0,0,0-2.51,2.35,2.49,2.49,0,0,0,.58,2c.18.2.45-.09.29-.29a2.33,2.33,0,0,1,.08-2.85A1.88,1.88,0,0,1,96.74,52a2.5,2.5,0,0,1,1.59.53,2.56,2.56,0,0,1,.63.72,2.46,2.46,0,0,1,.32,1,.06.06,0,0,0,.12,0Z"/><path class="cls-8" d="M95.31,55.84a3.82,3.82,0,0,0,2.51-.32,4.23,4.23,0,0,0,1.08-.74,2,2,0,0,0,.7-1.05.09.09,0,0,0-.15-.08c-.3.26-.5.61-.8.88a4.17,4.17,0,0,1-1,.69,4.6,4.6,0,0,1-2.34.46c-.1,0-.12.14,0,.16Z"/><path class="cls-8" d="M91.79,49.6a2.07,2.07,0,0,0-.34.44,2.22,2.22,0,0,0-.2.48,3,3,0,0,0-.08,1.15,3.26,3.26,0,0,0,.35,1.08,2.43,2.43,0,0,0,.33.46,1.07,1.07,0,0,0,.46.26.14.14,0,0,0,.15-.2l-.06-.09s0,0,0,0v-.06a1.06,1.06,0,0,0-.16-.21c-.1-.12-.19-.25-.28-.38a2.53,2.53,0,0,1-.36-.92,2.88,2.88,0,0,1,0-1,4.21,4.21,0,0,1,.12-.48,2.44,2.44,0,0,1,.1-.24,1.3,1.3,0,0,1,.1-.25.06.06,0,0,0-.09-.07Z"/><path class="cls-8" d="M83.16,50.32a3,3,0,0,1,1.58-3,2.73,2.73,0,0,1,1.78-.17,2.94,2.94,0,0,1,.8.33c.27.16.49.37.74.55s.33-.1.25-.25a2.57,2.57,0,0,0-1.74-1.1,3.22,3.22,0,0,0-2,.23,3,3,0,0,0-1.61,3.48.12.12,0,0,0,.23,0Z"/><path class="cls-8" d="M96.79,47.87a2.62,2.62,0,0,1,2.7-.34,2.17,2.17,0,0,1,1.12,2.35,2.45,2.45,0,0,1-.26.73c-.13.24-.33.44-.45.69a.17.17,0,0,0,.19.24c.54-.16.84-.84,1-1.34a2.89,2.89,0,0,0-.08-1.7,2.62,2.62,0,0,0-2.74-1.66,2.37,2.37,0,0,0-1.65.87c-.1.13.1.24.21.16Z"/><path class="cls-8" d="M89.35,41.59c.22.06.43-.1.63-.18a6.34,6.34,0,0,1,.74-.23A6.66,6.66,0,0,1,92.38,41a6,6,0,0,1,3.1.93c.37.23.68-.34.33-.57a5.86,5.86,0,0,0-3.43-1,5.5,5.5,0,0,0-1.75.3,5.75,5.75,0,0,0-.77.33c-.21.11-.51.22-.58.47a.09.09,0,0,0,.07.11Z"/><path class="cls-8" d="M88.94,38.79a11.64,11.64,0,0,1,1.49-.66A5.72,5.72,0,0,1,92,37.89a6.75,6.75,0,0,1,1.55.16,5.44,5.44,0,0,1,.78.25,2,2,0,0,0,.76.22.26.26,0,0,0,.21-.38c-.27-.47-1-.64-1.52-.75A6.24,6.24,0,0,0,92,37.24a5.44,5.44,0,0,0-3.26,1.25.19.19,0,0,0,.23.3Z"/><path class="cls-8" d="M89.25,36.13a4.29,4.29,0,0,1,2.92-1.49,3.76,3.76,0,0,1,1.63.23,4.63,4.63,0,0,1,.7.36,1.36,1.36,0,0,0,.78.29c.1,0,.15-.12.16-.21,0-.28-.33-.62-.54-.77a3.77,3.77,0,0,0-.89-.41,4.45,4.45,0,0,0-2-.18,3.74,3.74,0,0,0-3,2c-.05.13.15.24.24.14Z"/><path class="cls-8" d="M74.73,28.44c2,1.38,4.74,1.9,7.1,2.23a27.29,27.29,0,0,0,3.61.28,10.59,10.59,0,0,0,3.73-.3c.24-.1.33-.53,0-.58a23.74,23.74,0,0,0-3.47.09,29.65,29.65,0,0,1-3.64-.23,31.61,31.61,0,0,1-3.74-.71c-1.18-.3-2.34-.71-3.53-.93a.08.08,0,0,0-.06.15Z"/><path class="cls-8" d="M100.52,30.37a22.64,22.64,0,0,0,7.83-.11,31.7,31.7,0,0,0,4-.91,13.77,13.77,0,0,0,3.75-1.45.29.29,0,0,0-.23-.53A14,14,0,0,0,114,28c-.62.22-1.24.43-1.87.62a31.41,31.41,0,0,1-3.69.88,61.57,61.57,0,0,1-7.9.65c-.1,0-.13.16,0,.18Z"/><path class="cls-8" d="M76.73,29.24a5.6,5.6,0,0,0,1.85,7.9,5.66,5.66,0,0,0,7.77-2.28A6.35,6.35,0,0,0,87,32.44a3.68,3.68,0,0,0-.51-2.39.21.21,0,0,0-.35.15c0,.65.3,1.25.3,1.92A5.5,5.5,0,0,1,86.1,34,5,5,0,0,1,83.35,37a5.18,5.18,0,0,1-6.82-3A5.55,5.55,0,0,1,77,29.39a.15.15,0,0,0-.26-.15Z"/><path class="cls-8" d="M104.38,30.71c-.63,2.4,1.34,5,3.67,5.42a4.91,4.91,0,0,0,5.71-3.44,5.05,5.05,0,0,0-.63-4c-.18-.26-.61,0-.43.26a4.45,4.45,0,0,1-1,6,4.4,4.4,0,0,1-5.88-.67,5.29,5.29,0,0,1-1.16-3.47.13.13,0,0,0-.26,0Z"/><path class="cls-8" d="M79.16,32.08a.92.92,0,0,0,.34,1.17.79.79,0,0,0,.63.16.76.76,0,0,0,.49-.31,1,1,0,0,0,0-1.07.75.75,0,0,0-.45-.35.79.79,0,0,0-.62.1,1.09,1.09,0,0,0-.44.55.57.57,0,0,0,.18.68.12.12,0,0,0,.18-.11s0-.09,0-.13v0s0,0,0,0v0s0-.07,0,0,0,0,0,0v-.05s0-.06,0,0a.15.15,0,0,0,0-.07l0-.1s0,0,0,0a.16.16,0,0,1,0-.07l0,0v0h0l.09-.09,0,0,0,0,.11-.06s0,0,0,0l0,0H80s.06,0,0,0l.06,0h0l0,0,0,0,0,0s0,0,0,0l.07.08s0,0,0,0,0,0,0,0a.08.08,0,0,1,0,0s0,0,0,0,0,0,0,0l0,.09a.43.43,0,0,0,0,0s0,0,0,0a.34.34,0,0,1,0,.1v.08h0a.29.29,0,0,0,0,.09.14.14,0,0,0,0,.06v0l0,.09,0,0h0l0,0,0,0h0l-.1,0s0,0,0,0l-.05,0h-.28s0,0,0,0a.8.8,0,0,1-.21-.15.77.77,0,0,1-.14-.21.61.61,0,0,1,0-.46.14.14,0,1,0-.25-.14Z"/><path class="cls-8" d="M107.87,31.52a.56.56,0,0,0-.38.09,1.29,1.29,0,0,0-.3.27,1.44,1.44,0,0,0-.29.79,1.07,1.07,0,0,0,1,1.16,1.3,1.3,0,0,0,1.32-.86.89.89,0,0,0-.13-.76,1.08,1.08,0,0,0-.63-.41,1.31,1.31,0,0,0-.85.07,1,1,0,0,0-.32.27.76.76,0,0,0-.09.18.27.27,0,0,0,0,.26.15.15,0,0,0,.2.06l.07,0,0-.05s0-.08,0,0a.75.75,0,0,1,.07-.12s0,0,0,0l0,0h0l0,0,.06,0,.06,0h0l.14,0h.28s0,0,0,0h.07l.15,0,0,0,.06,0,.06,0,0,0s0,0,0,0a.45.45,0,0,1,.15.19s0,0,0,0a.19.19,0,0,1,0,.07.11.11,0,0,1,0,0,.22.22,0,0,1,0,.08.67.67,0,0,1-.26.48,1.12,1.12,0,0,1-.54.25.75.75,0,0,1-.56-.15.78.78,0,0,1-.27-.53,1.25,1.25,0,0,1,.15-.71,1.3,1.3,0,0,1,.21-.31,1.43,1.43,0,0,1,.15-.11l.15-.14s0,0,0,0Z"/><path class="cls-8" d="M67.19,26.83A118.18,118.18,0,0,0,80,26.51l6.38-.25C88,26.19,92.7,26,91.52,29c-.16.4.5.67.7.29.55-1,1.13-2,1.63-3,.19-.42-.38-.77-.62-.37-.6,1-1.12,2-1.67,3l.7.29a2.78,2.78,0,0,0-1.81-3.5,7.7,7.7,0,0,0-3.13-.32c-1.4.05-2.79.12-4.18.18l-8.09.34a74.5,74.5,0,0,0-7.91.52c-.23,0-.15.36,0,.38Z"/><path class="cls-8" d="M93.21,26.55c2.83.41,5.81,0,8.66-.1l9.36-.45,9.12-.46c3.12-.16,6.28-.18,9.37-.56a.36.36,0,0,0,0-.71c-3-.07-6.09.22-9.12.37l-9.37.47c-3,.16-6.08.3-9.12.48s-6,.06-8.9.78c-.08,0-.09.17,0,.18Z"/><path class="cls-8" d="M129.39,25.29c-.71,2-1,4.14-1.78,6.15a29.59,29.59,0,0,1-7.27,10.78A61.5,61.5,0,0,1,115,46.36c-.21.15-.1.57.19.45,4-1.66,7.46-5.34,9.89-8.84a30,30,0,0,0,3.22-6,16.86,16.86,0,0,0,1.58-6.59.23.23,0,0,0-.45-.07Z"/><path class="cls-8" d="M112.63,44.9a16.27,16.27,0,0,1,5.16,4.23A12.67,12.67,0,0,1,119.43,52a12.5,12.5,0,0,1,.51,1.57,5,5,0,0,0,.44,1.59.35.35,0,0,0,.63-.08,3.07,3.07,0,0,0-.15-1.69,11.27,11.27,0,0,0-.56-1.7,13.94,13.94,0,0,0-1.79-3.14,10.7,10.7,0,0,0-5.71-4.05.21.21,0,0,0-.17.39Z"/><path class="cls-8" d="M107.44,49.68a1.47,1.47,0,0,0,.66.49l.9.44c.6.32,1.2.66,1.79,1s1.12.71,1.67,1.09c.27.19.54.39.82.56a3.29,3.29,0,0,0,.85.49.18.18,0,0,0,.21-.27,2.82,2.82,0,0,0-.68-.7c-.25-.21-.5-.4-.77-.59-.58-.41-1.17-.79-1.78-1.14s-1.2-.66-1.82-1c-.3-.14-.6-.29-.91-.42a1.41,1.41,0,0,0-.87-.18.12.12,0,0,0-.07.17Z"/><path class="cls-8" d="M110.9,47.42a7.48,7.48,0,0,0,1.73,1.82,11.52,11.52,0,0,0,1,.7,7.13,7.13,0,0,0,1.2.52c.23.08.39-.3.17-.41s-.7-.38-1-.58a11,11,0,0,1-1-.65,14.31,14.31,0,0,1-1.8-1.6c-.12-.12-.35,0-.25.2Z"/><path class="cls-8" d="M111.13,47.88a4.61,4.61,0,0,1,1.83,1.7,4.54,4.54,0,0,1,.51,1.12,4.12,4.12,0,0,1,.15.58,3.58,3.58,0,0,0,.14.65.19.19,0,0,0,.36,0,2.42,2.42,0,0,0-.11-1.38,4.48,4.48,0,0,0-.62-1.26,4.71,4.71,0,0,0-2.14-1.7c-.16-.06-.27.21-.12.29Z"/><path class="cls-8" d="M120.26,59.2A4.82,4.82,0,0,1,119.8,62a.07.07,0,0,0,.11.07,3.86,3.86,0,0,0,.5-2.93c0-.1-.17-.06-.15,0Z"/><path class="cls-8" d="M120.23,61.56l.4-1.06.19-.52a1.36,1.36,0,0,0,.17-.54.12.12,0,0,0-.21-.09,1.69,1.69,0,0,0-.23.51l-.2.54-.4,1.08c-.07.18.21.25.28.08Z"/><path class="cls-8" d="M46,40.48a28.42,28.42,0,0,1,7.39,7.4,51.66,51.66,0,0,1,4.81,9.39c2.57,6.27,4.59,12.86,8.55,18.45a26.67,26.67,0,0,0,3.38,4,12.86,12.86,0,0,0,4.34,3,.38.38,0,0,0,.37-.64c-1.28-1.11-2.77-1.92-4-3.1a26,26,0,0,1-3.33-3.92,49.78,49.78,0,0,1-4.92-9.33C60,59.49,58,52.89,54.1,47.24A20.31,20.31,0,0,0,46.27,40a.29.29,0,0,0-.29.5Z"/><path class="cls-8" d="M46.11,40.57C53.94,36,57.38,27,61.43,19.38A40.2,40.2,0,0,1,69.2,8.48,22,22,0,0,1,82.74,2.93c5-.4,10,.11,14.93,0,5.32-.12,10.59-1.06,15.92-1.1A24.56,24.56,0,0,1,128.39,6c4.09,2.88,7.26,6.86,10.21,10.85,6.11,8.24,13.27,18.46,24.74,18.37a.49.49,0,0,0,0-1c-11.09.08-18-10-23.91-17.89a52,52,0,0,0-9.59-10.45,24,24,0,0,0-13.12-5c-5.31-.4-10.61.47-15.9.85-5.1.35-10.19-.1-15.3,0C80.78,2,76,2.69,71.88,5.23a28.81,28.81,0,0,0-8.77,9.31C57.64,23.2,54.71,34,45.71,39.88a.4.4,0,0,0,.4.69Z"/><path class="cls-8" d="M164.48,35.22c-3.31,3.24-5.37,7.75-7,12a111.08,111.08,0,0,0-4.11,14.44c-2.24,9.56-4.45,19.61-10.77,27.42a25.69,25.69,0,0,1-12,8.59c-.59.18-.34,1.12.26.93,8.33-2.64,14.27-9.79,17.74-17.55,4.3-9.61,5.45-20.18,8.64-30.14a56.15,56.15,0,0,1,3.27-8.19,70.57,70.57,0,0,1,4.42-7.18.28.28,0,0,0-.44-.34Z"/><path class="cls-8" d="M131.92,92.52c-2,7.55-1.15,15.54-3.35,23-2,6.85-7.12,13.22-14.78,13.31a.46.46,0,0,0,0,.92c7.15.28,12.63-5.77,14.93-12,3-8,2.26-16.87,3.57-25.22,0-.23-.31-.34-.37-.1Z"/><path class="cls-8" d="M77.11,74.6c2.08-3.06,4.15-5.82,7.32-7.84a18.65,18.65,0,0,1,19.78-.52,22.09,22.09,0,0,1,7.53,7.57.41.41,0,0,0,.71-.42c-3-6.74-11.19-11-18.39-10.69a20.17,20.17,0,0,0-10.43,3.43c-2.92,2-5.8,4.87-6.86,8.32a.19.19,0,0,0,.34.15Z"/><path class="cls-8" d="M79.79,68.61a8.54,8.54,0,0,0-1,3.91A14.18,14.18,0,0,0,83.49,84a.49.49,0,0,0,.81-.47A14.85,14.85,0,0,1,84.24,78a15.69,15.69,0,0,1,.66-2.44A25.63,25.63,0,0,0,86,73a.41.41,0,0,0-.68-.39,6.36,6.36,0,0,0-1.27,2.43A15.66,15.66,0,0,0,83.26,78a16.1,16.1,0,0,0,.1,5.79l.82-.48a13.11,13.11,0,0,1-4.07-6.66,13.64,13.64,0,0,1-.45-3.82,32.4,32.4,0,0,1,.61-4,.26.26,0,0,0-.48-.2Z"/><path class="cls-8" d="M82.84,67.69a9,9,0,0,0,1.82,6.22,5.22,5.22,0,0,0,2.41,1.58,4.07,4.07,0,0,0,1.39.2,2.61,2.61,0,0,0,1.37-.37.43.43,0,0,0-.34-.78,6.51,6.51,0,0,1-1.18.25,3.48,3.48,0,0,1-1.15-.2,4.43,4.43,0,0,1-2-1.44c-1.25-1.58-1.41-3.65-2-5.5a.15.15,0,0,0-.3,0Z"/><path class="cls-8" d="M90,75.33c0-.59,0-1.17,0-1.76,0-.29,0-.58,0-.87s0-.28,0-.43a.77.77,0,0,0-.24-.51.35.35,0,0,0-.55.07,1.19,1.19,0,0,0-.09.91c0,.3.06.6.1.89.07.6.14,1.19.23,1.78.06.37.63.27.63-.08Z"/><path class="cls-8" d="M89.61,75.66c.11,0,.22,0,.33,0l.24,0,.57-.13c.37-.1.73-.21,1.1-.33l1.09-.37c.34-.11.9-.2,1.07-.56a.4.4,0,0,0-.14-.53c-.41-.2-.86.07-1.25.22s-.72.27-1.08.42-.73.29-1.09.45L90,75a1.64,1.64,0,0,0-.29.16c-.07,0-.11.1-.19.15s-.06.37.14.33Z"/><path class="cls-8" d="M93.56,74.81,93.5,73c0-.29,0-.59,0-.89v-.43a4.19,4.19,0,0,0,0-.5.48.48,0,0,0-1,0c0,.32.11.64.16,1s.08.57.11.86c.06.61.11,1.22.17,1.83,0,.34.57.36.55,0Z"/><path class="cls-8" d="M93.82,74.75a19.6,19.6,0,0,0,3.38-.82A.46.46,0,1,0,97,73c-.57.16-1.13.36-1.68.57-.28.1-.55.19-.82.3s-.56.25-.83.38a.24.24,0,0,0-.1.31.25.25,0,0,0,.29.15Z"/><path class="cls-8" d="M98.19,74c0-.74.1-1.48.15-2.22,0-.36,0-.72,0-1.08a1.06,1.06,0,0,0-.06-.61.42.42,0,0,0-.77,0,1.15,1.15,0,0,0-.06.61c0,.36,0,.72.05,1.08,0,.74.12,1.48.15,2.22a.25.25,0,0,0,.5,0Z"/><path class="cls-8" d="M97.89,73.49a6,6,0,0,0,.85.11,7.22,7.22,0,0,0,.8,0c.26,0,.53,0,.79,0l.43,0a.85.85,0,0,0,.49-.22.35.35,0,0,0-.07-.55.89.89,0,0,0-.48-.11l-.37,0-.83.1a7.86,7.86,0,0,0-.83.11,5,5,0,0,0-.78.24c-.18.07-.22.36,0,.4Z"/><path class="cls-8" d="M101.2,73c.29-.79.61-1.57.9-2.37.14-.38.25-.77.36-1.16a2.15,2.15,0,0,0,.17-1.29.32.32,0,0,0-.52-.14,2.12,2.12,0,0,0-.52,1.19c-.1.39-.21.78-.29,1.18-.16.83-.29,1.67-.45,2.5a.18.18,0,0,0,.35.09Z"/><path class="cls-8" d="M101,71.51a17.63,17.63,0,0,1,5.69,11.56c0,.37.54.71.83.34a14.47,14.47,0,0,0,2.62-5.1,12.74,12.74,0,0,0,.4-5.72.47.47,0,0,0-.92.12,16.56,16.56,0,0,1-.39,5.25,13.45,13.45,0,0,1-2.4,4.76l.83.35a18.56,18.56,0,0,0-6-12.24c-.46-.41-1.14.27-.68.68Z"/><path class="cls-8" d="M79.27,80.67c.92,2.21,2,4.33,2.87,6.56a61.07,61.07,0,0,1,2.15,6.85,61.59,61.59,0,0,1,1.35,7.37c.27,2.23.14,4.59.61,6.79a.29.29,0,0,0,.55,0,22.93,22.93,0,0,0-.22-7A60.53,60.53,0,0,0,85.28,94c-1.14-4.62-2.7-9.63-5.29-13.67-.23-.35-.9-.13-.72.3Z"/><path class="cls-8" d="M94.81,120.93c0-.19.09-.37.11-.57s0-.33,0-.49c0-.37,0-.74,0-1.1l0-1.07a1.47,1.47,0,0,0-.07-.59,1.25,1.25,0,0,0-.31-.45.14.14,0,0,0-.2,0,1.15,1.15,0,0,0-.27.48,1.73,1.73,0,0,0,0,.6l.06,1.07c0,.35,0,.71.07,1.06,0,.19,0,.4.07.59s.12.35.15.54.45.18.47-.07Z"/><path class="cls-8" d="M94.49,117.79l.06,0-.12,0c.17,0,.32-.08.45-.13l.22-.07a1.39,1.39,0,0,1,.19-.06,1.94,1.94,0,0,1,.43,0h.1l.08,0,.22,0,.12,0,0,0,.21.11.09.05.06,0,.08.06h0l.09.08a1.21,1.21,0,0,1,.16.16h0l0,0,.06.09a.41.41,0,0,0,0,.09s0,0,0,0,0,0,0,.06l.08.23a.38.38,0,0,0,.75-.1A2,2,0,0,0,96.6,117a2.38,2.38,0,0,0-1-.14,1.43,1.43,0,0,0-1,.39l.1-.11c-.16.13-.42.32-.36.56l0-.12,0,.06a.14.14,0,0,0,.18.19Z"/><path class="cls-8" d="M97.68,117.52l.31,0,.34,0,.65,0c.44,0,.87,0,1.31,0l-.38-.28c.17.6.31,1.2.49,1.8a.42.42,0,0,0,.8-.22c-.16-.6-.36-1.2-.54-1.79a.4.4,0,0,0-.37-.29c-.45,0-.9.13-1.35.2l-.64.08L98,117c-.13,0-.25.06-.38.09s-.19.45.07.46Z"/><path class="cls-8" d="M100.35,117.79c.38-.14.76-.28,1.14-.44l.52-.23.58-.25-.54-.14.38.77a3.11,3.11,0,0,0,.45.77.41.41,0,0,0,.48.07.43.43,0,0,0,.18-.45,3.18,3.18,0,0,0-.39-.81l-.41-.76a.4.4,0,0,0-.55-.14c-.09,0-.16.1-.25.14l-.25.14-.53.28c-.34.18-.67.38-1,.59s-.09.56.19.46Z"/><path class="cls-8" d="M102.69,117c.22-.09.45-.16.67-.26l.66-.29c.43-.19.86-.35,1.3-.53l-.49-.27.18,1.18.09.58a1,1,0,0,0,.22.65.39.39,0,0,0,.61-.08,1,1,0,0,0,0-.73l-.11-.61c-.08-.4-.15-.8-.23-1.2a.4.4,0,0,0-.58-.24c-.41.23-.82.47-1.25.68l-.62.32-.31.16-.32.2c-.24.13-.08.54.18.44Z"/><path class="cls-8" d="M105.05,116.48a9.44,9.44,0,0,0,4.62-3.7,12.44,12.44,0,0,0,1.46-2.68,8.29,8.29,0,0,0,.75-3,.44.44,0,0,0-.21-.37l0,0a.24.24,0,0,0-.44-.06h.06a.43.43,0,0,0-.3.3c-.13.44-.17.92-.29,1.37a10.84,10.84,0,0,1-.43,1.33,11.41,11.41,0,0,1-1.37,2.55,18.84,18.84,0,0,1-4.08,3.89c-.14.12,0,.35.18.31Z"/><path class="cls-8" d="M111.24,107.38a34.14,34.14,0,0,1-.6,5.54,26.5,26.5,0,0,1-.71,2.61c-.14.42-.3.85-.46,1.27a3.79,3.79,0,0,0-.4,1.26.32.32,0,0,0,.54.22,6,6,0,0,0,1.12-2.43,24.54,24.54,0,0,0,.74-2.8,18.62,18.62,0,0,0,.31-5.67.27.27,0,0,0-.54,0Z"/><path class="cls-8" d="M112.34,78c.37,2.93,1.21,5.77,1.69,8.68A72.76,72.76,0,0,1,115,96.5a71.45,71.45,0,0,1-.33,9.25c-.32,3.27-1,6.48-1.5,9.73a.27.27,0,0,0,.52.14c2-6,2.39-12.81,2.21-19.12a71.32,71.32,0,0,0-.89-9.33A32.64,32.64,0,0,0,112.53,78c0-.08-.2,0-.19.05Z"/><path class="cls-8" d="M92.63,122.13a10,10,0,0,0,6.24,2.16,12.16,12.16,0,0,0,6.58-1.83c3.75-2.32,6.71-6.53,8.33-10.56.08-.19-.23-.37-.36-.21-2.54,3.25-4.33,7.08-7.81,9.52a12.53,12.53,0,0,1-12.8.69c-.14-.07-.33.12-.18.23Z"/><path class="cls-8" d="M111.15,116.68a13,13,0,0,0,1.68-2.72,11,11,0,0,0,.56-1.44,3.29,3.29,0,0,0,.27-1.54.16.16,0,0,0-.28,0,5.66,5.66,0,0,0-.45,1.41,15.07,15.07,0,0,1-.52,1.47,13.9,13.9,0,0,1-1.52,2.65c-.11.15.14.35.26.21Z"/><path class="cls-8" d="M156.15,44.91c-9.34,11-4,29.07-16,38.6-.49.39.2,1.08.69.69,5.39-4.3,7.61-11.14,9-17.65,1.55-7.4,2.52-14.84,6.63-21.38.13-.2-.19-.46-.35-.26Z"/><path class="cls-8" d="M65,19.67a21.86,21.86,0,0,1,6.06-9.13,19.55,19.55,0,0,1,4.51-3,16.87,16.87,0,0,1,2.63-1c.86-.26,1.8-.35,2.63-.68a.4.4,0,0,0-.1-.78,7.67,7.67,0,0,0-2.79.52,18.28,18.28,0,0,0-2.66,1,19.62,19.62,0,0,0-4.81,3.21,19.06,19.06,0,0,0-3.71,4.44,15.72,15.72,0,0,0-1.92,5.4.08.08,0,0,0,.16,0Z"/><path class="cls-8" d="M70.72,39.66a15.92,15.92,0,0,0,3,5.86,16.94,16.94,0,0,0,2.39,2.4,9.54,9.54,0,0,0,2.74,1.75c.19.07.27-.19.13-.3-.87-.65-1.82-1.17-2.67-1.87a17.48,17.48,0,0,1-2.25-2.22,18.47,18.47,0,0,1-3.23-5.65c0-.09-.17-.06-.14,0Z"/><path class="cls-8" d="M115.66,41.06a6.64,6.64,0,0,0,3-1,7.38,7.38,0,0,0,1.27-1,5.76,5.76,0,0,0,.59-.62,2.19,2.19,0,0,0,.42-.62c0-.08-.08-.18-.16-.12a4.85,4.85,0,0,0-.49.52c-.17.18-.36.36-.55.54a8.39,8.39,0,0,1-1.25.95,10.44,10.44,0,0,1-2.9,1.12.11.11,0,0,0,0,.21Z"/><path class="cls-8" d="M86,35.19a6.68,6.68,0,0,1-7.79,3.7.22.22,0,0,0-.11.42,7,7,0,0,0,8.16-4c.05-.15-.19-.26-.26-.11Z"/><path class="cls-8" d="M85.29,36.69a9.43,9.43,0,0,1-2.54,3,8,8,0,0,1-1.72.94,11.22,11.22,0,0,1-1.9.47c-.22,0-.17.4.06.39a6,6,0,0,0,2-.5A8.44,8.44,0,0,0,83,40a6.85,6.85,0,0,0,2.48-3.19.11.11,0,0,0-.2-.08Z"/><path class="cls-8" d="M84.53,37.51a6.41,6.41,0,0,1-2.59,4.29c-.2.15,0,.49.2.34a6.24,6.24,0,0,0,2.65-4.59c0-.15-.24-.19-.26,0Z"/><path class="cls-8" d="M106.17,35a3.87,3.87,0,0,0,1.45,1.27,5.81,5.81,0,0,0,1.95.64,6.17,6.17,0,0,0,2-.05,3.33,3.33,0,0,0,1.82-.81.14.14,0,0,0-.14-.24c-.59.15-1.12.43-1.72.55a5.57,5.57,0,0,1-1.91.06,6,6,0,0,1-1.8-.52,14.14,14.14,0,0,1-1.56-1c-.06,0-.13,0-.1.09Z"/><path class="cls-8" d="M107.11,36.07a3.69,3.69,0,0,0,2.72,2.14,4.69,4.69,0,0,0,1.83,0,2.37,2.37,0,0,0,1.55-.84c.08-.11,0-.25-.17-.22s-.48.21-.72.3a5.23,5.23,0,0,1-.77.23,3.82,3.82,0,0,1-1.58,0,4.48,4.48,0,0,1-2.68-1.7c-.06-.09-.23,0-.18.07Z"/><path class="cls-8" d="M107.41,36.26a3.71,3.71,0,0,0,2.14,2.86,4.36,4.36,0,0,0,1.79.49,2.45,2.45,0,0,0,1.79-.45.13.13,0,0,0-.1-.22,7.09,7.09,0,0,0-.78.14,3.94,3.94,0,0,1-.84,0,4.24,4.24,0,0,1-1.64-.43,4.31,4.31,0,0,1-1.34-1,5.5,5.5,0,0,1-.84-1.47c0-.09-.18,0-.18,0Z"/><path class="cls-8" d="M115,30.29a4.18,4.18,0,0,1,0,1.76,5.19,5.19,0,0,1-.72,1.59c0,.08.06.15.13.1a2.8,2.8,0,0,0,.87-1.67,3.69,3.69,0,0,0,.06-.94,3.16,3.16,0,0,0-.24-.9.07.07,0,0,0-.13.06Z"/><path class="cls-8" d="M116.07,30.57a3.29,3.29,0,0,1,.26,1.88,3.84,3.84,0,0,1-.75,1.67c-.07.11.09.22.18.14a3,3,0,0,0,.81-1.81,3.32,3.32,0,0,0-.39-2c0-.07-.14,0-.11.07Z"/><path class="cls-8" d="M76.31,31.81h-.52s0,0,0,0h.52s0,0,0,0Z"/><path class="cls-8" d="M74.2,31a.37.37,0,0,1-.1.17c-.07,0-.1.06-.14.15a3.48,3.48,0,0,0-.12.56A5.17,5.17,0,0,0,73.78,33,5.53,5.53,0,0,0,74,34.09q.08.27.18.54a.94.94,0,0,0,.27.45c.1.07.23,0,.24-.14a1.51,1.51,0,0,0-.16-.48,3.26,3.26,0,0,1-.15-.44,4.63,4.63,0,0,1-.18-1,5,5,0,0,1,0-1c0-.17.06-.33.09-.49a.28.28,0,0,0,0-.2.33.33,0,0,1,0-.22c0-.05-.06-.08-.08,0Z"/><path class="cls-8" d="M72.86,31a4.08,4.08,0,0,0-.81,1.4,5.06,5.06,0,0,0-.28,1.68A5.18,5.18,0,0,0,72,35.72a2.57,2.57,0,0,0,.85,1.4.13.13,0,0,0,.2-.14,2.46,2.46,0,0,0-.31-.63,5,5,0,0,1-.33-.75,5.37,5.37,0,0,1-.28-1.54,5.43,5.43,0,0,1,.81-3c0-.06,0-.13-.1-.07Z"/><path class="cls-8" d="M86.49,81.31c.84,2.18,1.8,4.26,2.44,6.51a45.81,45.81,0,0,1,1.35,7.06c0,.05.08.05.07,0a35.25,35.25,0,0,0-1.25-7,27.35,27.35,0,0,0-2.58-6.6s0,0,0,0Z"/><path class="cls-8" d="M94.93,116.91a17.35,17.35,0,0,0-2.27-2.18c-.8-.74-1.58-1.51-2.32-2.31a43.71,43.71,0,0,1-4.23-5.36c-.13-.18-.48-.13-.46.13a18.78,18.78,0,0,0,2.43,8,16.21,16.21,0,0,0,5.74,6.06c.21.12.36-.17.18-.31a24.18,24.18,0,0,1-3.09-2.62A18.43,18.43,0,0,1,88.43,115a17.1,17.1,0,0,1-2.29-7.81l-.46.12a40.69,40.69,0,0,0,4.15,5.28c.76.83,1.56,1.63,2.39,2.4a10.83,10.83,0,0,0,2.63,2c.05,0,.12,0,.08-.08Z"/><path class="cls-8" d="M93.53,122.22l-.27-.28a.8.8,0,0,1-.13-.13l-.08-.07a.1.1,0,0,0-.08,0s0,0,0,0,0,0,0,.08l.07.07.14.13.27.27s.11,0,.07-.06Z"/><path class="cls-8" d="M103.34,82.37c.4,1,.94,2,1.38,3a30.83,30.83,0,0,1,1.21,3.33,33.46,33.46,0,0,1,.78,3.29c.21,1.14.25,2.31.45,3.45,0,.21.34.14.35,0a15.62,15.62,0,0,0-.33-3.54,28,28,0,0,0-.79-3.4,18.66,18.66,0,0,0-2.84-6.21.12.12,0,0,0-.21.12Z"/><path class="cls-8" d="M86.73,83.17a0,0,0,1,0,0,0,0,0,0,1,0,0,0Z"/><path class="cls-8" d="M83.61,62.31a23.06,23.06,0,0,1,3.48-1.55c.58-.19,1.16-.38,1.74-.53s1.25-.23,1.84-.43a.1.1,0,0,0,0-.2,8.13,8.13,0,0,0-1.88.37c-.6.17-1.2.36-1.79.59a18.17,18.17,0,0,0-3.37,1.73s0,0,0,0Z"/><path class="cls-8" d="M84.52,62.08a26.88,26.88,0,0,1,10.85-2.4,24.48,24.48,0,0,1,5.52.7,38.24,38.24,0,0,1,5.26,2c.15.07.23-.16.1-.25-3.09-2-7.24-2.79-10.88-2.82A20.94,20.94,0,0,0,84.47,62s0,.13,0,.11Z"/><path class="cls-8" d="M78.05,57.24c.3.17.62.32.93.47l.48.21A1,1,0,0,0,80,58a.14.14,0,0,0,.08-.21,1,1,0,0,0-.45-.29l-.48-.2c-.32-.12-.64-.25-1-.35-.15-.05-.25.18-.11.25Z"/><path class="cls-8" d="M77.09,59.52l.91,0h.45c.15,0,.31,0,.46,0a.16.16,0,0,0,0-.31c-.15,0-.31,0-.46,0H78l-.91.05a.09.09,0,0,0,0,.17Z"/><path class="cls-8" d="M79.18,56.69l.7,0h.34c.12,0,.28,0,.35-.08a.09.09,0,0,0,0-.12c-.07-.11-.23-.08-.35-.08h-1a.13.13,0,1,0,0,.25Z"/><path class="cls-8" d="M83,55.79a1.78,1.78,0,0,0,.86,1.41,1.67,1.67,0,0,0,1.65.22.12.12,0,0,0-.06-.21,3.06,3.06,0,0,1-.74,0A1.82,1.82,0,0,1,84,57a1.92,1.92,0,0,1-.85-1.19.08.08,0,0,0-.16,0Z"/><path class="cls-8" d="M98.2,56.32a5.5,5.5,0,0,0,2-.78A5,5,0,0,0,101.67,54c0-.07-.06-.15-.11-.09a6.69,6.69,0,0,1-3.37,2.33s0,.07,0,.06Z"/><path class="cls-9" d="M87.24,65.14a.9.9,0,0,0,.17.26l.15.26a1.34,1.34,0,0,1,.2.58l.18,0a1.33,1.33,0,0,1,0-.79,2.39,2.39,0,0,1,.15-.37.93.93,0,0,1,.22-.3.17.17,0,1,0-.23-.23,3,3,0,0,0-.22.39,2.13,2.13,0,0,0-.13.45,2,2,0,0,0,.07.9c0,.09.18.08.17,0a2.27,2.27,0,0,0-.12-.69,1.34,1.34,0,0,0-.17-.31.57.57,0,0,0-.26-.25.12.12,0,0,0-.15.15Z"/><path class="cls-9" d="M87.72,64.94l0,0v0h0l0,0,0,0,.06,0a.12.12,0,0,0-.08.06s0,0,0,.06,0,0,0,.06l.06-.07a.12.12,0,0,0-.07.11.09.09,0,0,0,0,0l.15-.16h0l0,0h0v0l0,0h0l0,0h.06l0,0a.09.09,0,0,0,0-.1l-.06-.06a.15.15,0,0,0-.13,0h0l-.06,0a.1.1,0,0,0,0,.08.2.2,0,0,0,.09.22.15.15,0,0,0,.13,0l0,0a.14.14,0,0,0,0-.06v0a.13.13,0,0,0-.07-.09l.06.07v0a.12.12,0,0,0,0-.1v.08s0,0,0-.07h0l0,0a.07.07,0,0,0,0-.09.07.07,0,0,0-.09,0Z"/><path class="cls-9" d="M91.42,63.89a.84.84,0,0,0,.08.41c0,.15.08.29.11.44a3.65,3.65,0,0,1,.07.87H92a5.25,5.25,0,0,1,0-1,1.58,1.58,0,0,1,.15-.48c.07-.15.21-.28.19-.46a.1.1,0,0,0-.1-.07c-.2,0-.31.21-.38.36a2.25,2.25,0,0,0-.17.54,5.66,5.66,0,0,0,0,1.16.16.16,0,0,0,.32,0,3.73,3.73,0,0,0-.07-.94,3.28,3.28,0,0,0-.11-.45.69.69,0,0,0-.22-.4.12.12,0,0,0-.18.07Z"/><path class="cls-9" d="M91.86,63.88l-.06.1,0,0,0,0s0,0,0,0l0,0,.17.07L92,64l0,.06h0l0,0h0a.1.1,0,0,0,.11-.11h0a.11.11,0,0,0,0-.06.08.08,0,0,0,0,0,.09.09,0,0,0-.11.05h0a.08.08,0,0,0,0,.08.09.09,0,0,0,0,.06h0l0,0h0v-.07l0,.12a.1.1,0,0,0,.17.07v0a.05.05,0,0,0,0,0v0L92,64a0,0,0,0,0,0-.05.09.09,0,0,0,0,0,.08.08,0,0,0-.11,0Z"/><path class="cls-9" d="M91.7,63.85a.16.16,0,0,0-.07.07v0a.11.11,0,0,0,0,.07.14.14,0,0,0,0,.09.15.15,0,0,0,0,.07h.07a.09.09,0,0,0,.07,0,.11.11,0,0,0,0-.08V63.9a.09.09,0,0,0,0-.08h0a.09.09,0,0,0-.13,0h0a.2.2,0,0,0,0,.08V64l.23,0,0,0v0l0,0V64s0,0,0,0v0h0a.09.09,0,0,0,0-.11l0,0a.06.06,0,0,0-.06,0Z"/><path class="cls-9" d="M97,63.72a2,2,0,0,0,.1.54,4.59,4.59,0,0,1,.1.51,5.76,5.76,0,0,1,.06,1.1h.28a2.71,2.71,0,0,1,.1-1,4.07,4.07,0,0,1,.18-.44,1.26,1.26,0,0,0,.24-.44c0-.1-.11-.14-.19-.1s-.24.3-.3.44a2.72,2.72,0,0,0-.19.47,3.12,3.12,0,0,0-.12,1.05.14.14,0,0,0,.28,0,5.51,5.51,0,0,0-.06-1.15,3.39,3.39,0,0,0-.13-.55,1,1,0,0,0-.23-.5c0-.05-.11,0-.12,0Z"/><path class="cls-9" d="M97.52,63.86a.52.52,0,0,0-.11.1.31.31,0,0,0-.06.13.48.48,0,0,0,0,.29.11.11,0,0,0,.2,0,.87.87,0,0,0,.09-.55.12.12,0,0,0-.24,0l-.12.38.25,0v0h0s0,0,0,0,0,0,0,0,0,0,0,0,0,0,0,0h0l0,0a.72.72,0,0,0,.2-.14.26.26,0,0,0,0-.32.26.26,0,0,0-.29-.1.59.59,0,0,0-.14.06l-.07.06a.13.13,0,0,0,0,.09s0,0,0,.06.07.08.11.09a.26.26,0,0,0,.15-.07h0l0,0h0s0,0,0,0,0,0,0,0,0,0,0,0h0s0,0,0,0h0s0,0,0,0v0h0s0,0,0,0h0l0,0h0l0,0-.09,0a.34.34,0,0,0-.14.26.13.13,0,0,0,.11.13.14.14,0,0,0,.14-.1l.11-.38h-.24v0s0,0,0,0v.16h0v0a.13.13,0,0,1,0,.06s0,0,0,.05v0h0l.2,0s0,0,0,0v0s0,0,0,0,0,0,0,0v0h0a.13.13,0,0,1,0-.06v0h0a.36.36,0,0,1,0-.09s0-.11-.07-.08Z"/><path class="cls-9" d="M102.21,68.67a.92.92,0,0,0,.23-.25c.06-.11.11-.23.16-.34s.19-.45.28-.68a13.38,13.38,0,0,0,.4-1.41c0-.17.19-.5,0-.64s-.31.14-.35.28-.12.47-.21.7-.18.46-.26.69-.19.51-.3.76-.1.25-.16.38a1,1,0,0,0-.07.41c0,.13.15.17.24.1Z"/><path class="cls-9" d="M97.85,123.29a2.08,2.08,0,0,0,.22-.68,3.54,3.54,0,0,0,.06-.73.08.08,0,0,0-.16,0,2.62,2.62,0,0,0,.38,1.44c.09.15.32,0,.2-.16a1.75,1.75,0,0,1-.42-1.28H98c0,.24,0,.47-.09.7s-.1.45-.13.68a.05.05,0,0,0,.1,0Z"/><path class="cls-9" d="M98,122.83c0,.12,0,.24,0,.36a.1.1,0,0,0,.1.1.09.09,0,0,0,.09-.1v-.28l-.2,0v0s0,.07,0,.1,0,.08,0,.12l.21-.06-.09-.28a.09.09,0,0,0-.11-.07.1.1,0,0,0-.07.11.23.23,0,0,0,.09.14l.07,0h0a.13.13,0,0,0,.07,0,.08.08,0,0,0,0-.12h-.07s0,0,0,0h0s0,0,0,0h0l-.18,0,.06.3s0,0,0,.06a.08.08,0,0,0,.07,0s.1-.06.09-.11a.68.68,0,0,0,0-.14.36.36,0,0,1,0-.11.15.15,0,0,0,0-.06.08.08,0,0,0-.07,0,.09.09,0,0,0-.08.1v.28l.19,0-.06-.36a.09.09,0,0,0-.08,0,.09.09,0,0,0-.06.07Z"/><path class="cls-9" d="M98,122.65v.08a.64.64,0,0,0,0,.07s0,.1,0,.15l0,.14a.44.44,0,0,0,.09.18.14.14,0,0,0,.12,0,.14.14,0,0,0,.09-.09.3.3,0,0,0,0-.21s0,0,0,0v0l0-.07a1.11,1.11,0,0,0-.07-.16s0-.12-.1-.14l0,0,0,0a.09.09,0,0,0-.12,0,.09.09,0,0,0-.05.11Z"/><path class="cls-9" d="M98,122.65a2,2,0,0,1-.1.21.47.47,0,0,1-.05.1h0s0,0,0,0l0,0a.08.08,0,0,1,0,0v.06a.1.1,0,0,0,.07.1.11.11,0,0,0,.12,0,.2.2,0,0,0,0-.08v0s0,0,0,0v0l0-.11.06-.23a.07.07,0,0,0,0-.09.07.07,0,0,0-.09.05Z"/><path class="cls-9" d="M101.79,123a3.09,3.09,0,0,0,0-.68c0-.22,0-.45-.07-.67l-.24.14a1.21,1.21,0,0,1,.22.23,2.33,2.33,0,0,1,.17.26,3,3,0,0,1,.28.57c0,.12.09.34.26.29s.11-.26.06-.37a2.69,2.69,0,0,0-.31-.61,3.55,3.55,0,0,0-.23-.31c-.07-.1-.17-.18-.23-.28s-.32-.09-.3.08,0,.46.07.69a3.18,3.18,0,0,0,.15.68.09.09,0,0,0,.17,0Z"/><path class="cls-9" d="M101.68,122.18a1,1,0,0,0,0,.17.6.6,0,0,0,0,.19v-.08a.49.49,0,0,0,0,.12s0,0,0,.06,0,.09,0,.13a.83.83,0,0,0,.16.29.19.19,0,0,0,.25,0,.2.2,0,0,0,0-.25l-.11-.16-.09-.17s0-.06,0,0a.14.14,0,0,0,0-.08s0,0,0,0a.08.08,0,0,1,0,0,.3.3,0,0,1,0-.08l0-.08a.08.08,0,0,0-.15,0Z"/><path class="cls-9" d="M101.75,122.31c0,.09,0,.17,0,.25v.07h0v0s0,.11,0,.16a.15.15,0,0,0,.19.1.15.15,0,0,0,.11-.19,2.18,2.18,0,0,0-.09-.23,2.25,2.25,0,0,1-.08-.24.13.13,0,0,0-.13-.08.12.12,0,0,0-.08.13Z"/><path class="cls-9" d="M104.77,122a.16.16,0,0,0,0-.17,1.49,1.49,0,0,0,0-.21,2.83,2.83,0,0,0-.09-.37c-.06-.24-.11-.49-.19-.73l-.31.18a1.58,1.58,0,0,1,.15.12l.11.12.24.27.49.54a.15.15,0,0,0,.2,0,.15.15,0,0,0,0-.21c-.16-.17-.31-.35-.47-.53l-.23-.27-.11-.12-.09-.15a.19.19,0,0,0-.34.15c.06.26.15.52.22.78s.08.27.13.4.14.32.27.2Z"/><path class="cls-9" d="M104.6,121.26a1.34,1.34,0,0,0,.09.26l.12.24a.14.14,0,0,0,.19,0,.16.16,0,0,0,.06-.08.21.21,0,0,0,0-.11,1.63,1.63,0,0,0-.11-.17l-.1-.17a.16.16,0,0,0-.08-.06.15.15,0,0,0-.13,0,.2.2,0,0,0,0,.09.16.16,0,0,0,0,.12l0,0,0,0a.77.77,0,0,0,.18.18l.11,0a.28.28,0,0,0,.13,0,.13.13,0,0,0,.11-.09.12.12,0,0,0-.05-.13l-.07,0h0l-.08,0s0,0,0,0h0l0,0v0s0,0,0,0l0,0,0,0h0l-.25.1a1.74,1.74,0,0,0,.11.18l.12.19.19-.19-.16-.21-.1-.08-.1-.09s-.08,0-.06,0Z"/><path class="cls-9" d="M106.59,120.75c0-.1,0-.2,0-.3s0-.2,0-.29a4.2,4.2,0,0,0-.08-.62l-.28.17.68.82a.17.17,0,0,0,.21,0l0,0a.18.18,0,0,0,0-.24l-.68-.82a.17.17,0,0,0-.29.12,1.87,1.87,0,0,0,0,.32l0,.29c0,.1,0,.2,0,.3a1.28,1.28,0,0,0,.07.28.13.13,0,0,0,.26,0Z"/><path class="cls-9" d="M106.28,119.81a.19.19,0,0,1,0,.07l0,0s0,0,0,0a.09.09,0,0,0,0,0V120l0,.07a1,1,0,0,1,.07.15s0,.09.08.14a.13.13,0,0,0,.16,0,.12.12,0,0,0,.08-.15l-.09-.22,0-.09v0h0s0,0,0-.06a.12.12,0,0,0-.13-.08s-.11.06-.1.12a.8.8,0,0,0,.09.3.39.39,0,0,0,.24.23.1.1,0,0,0,.11,0s0-.07,0-.11h0l0,0v0l-.06-.07,0,0s0,0,0,0a.1.1,0,0,1,0,0l0-.05v0h0a.14.14,0,0,1,0-.06v0h0l-.23,0c0,.13.09.26.14.4l.24-.1-.1-.14-.09-.13,0-.06,0,0a.12.12,0,0,0,0,0s0,0,0,0l-.06,0a.05.05,0,0,0-.09,0Z"/><path class="cls-9" d="M94.42,117.25a2.75,2.75,0,0,0-.25,1.33,13.55,13.55,0,0,0,0,1.56c0,.49.09,1,.17,1.46,0,.25.09.49.14.74a2,2,0,0,0,.22.72.21.21,0,0,0,.38-.1,2.39,2.39,0,0,0-.12-.7c-.05-.24-.1-.49-.14-.74-.08-.47-.13-1-.17-1.43s0-.94,0-1.4a4,4,0,0,0-.11-1.42.07.07,0,0,0-.12,0Z"/><path class="cls-9" d="M93.82,121.05a3.49,3.49,0,0,0,.32.25l.17.11a.37.37,0,0,0,.2.09.07.07,0,0,0,.06-.1c0-.07-.11-.1-.17-.13l-.17-.1a2.48,2.48,0,0,0-.37-.17s-.07,0,0,0Z"/><path class="cls-9" d="M92.51,120.29h0s0,0,0,0Z"/><path class="cls-9" d="M92.18,120.07a2.18,2.18,0,0,0,.14.48c.05.15.09.32.13.48a4.1,4.1,0,0,1,.1.48,1.65,1.65,0,0,0,.11.5.1.1,0,0,0,.19,0,1.06,1.06,0,0,0,0-.5c0-.18-.08-.35-.13-.52a4.59,4.59,0,0,0-.17-.48,1.53,1.53,0,0,0-.25-.45.05.05,0,0,0-.09,0Z"/><path class="cls-9" d="M92.62,120.48a.82.82,0,0,0,0,.49,2.23,2.23,0,0,0,.22.47,2.18,2.18,0,0,0,.34.4c.14.11.32.28.51.27a.17.17,0,0,0,.14-.25.38.38,0,0,0-.11-.11l-.11-.06-.17-.11a3.51,3.51,0,0,1-.34-.33,2.25,2.25,0,0,1-.24-.36,3.23,3.23,0,0,0-.2-.42s-.08,0-.09,0Z"/><path class="cls-9" d="M92.52,120.57c.12.12.23.24.36.35s.29.22.44.33l.86.58a.23.23,0,0,0,.32-.09.23.23,0,0,0-.09-.31l-.87-.57a3.83,3.83,0,0,0-.44-.25c-.16-.08-.32-.13-.49-.2s-.15.1-.09.16Z"/><path class="cls-9" d="M94.12,121.62a1.15,1.15,0,0,0,0,.19h0a.13.13,0,0,0,0,.06v0a.28.28,0,0,0,0,.09l0,.19c0,.12,0,.25.13.31a.2.2,0,0,0,.23,0,.16.16,0,0,0,.06-.12.2.2,0,0,0,0-.11v-.09l0-.2,0-.09v0l0-.06h0s0,0,0,0v0s0,0,0,0l0-.1a.14.14,0,0,0-.27,0Z"/><path class="cls-9" d="M93.94,121.92a2.68,2.68,0,0,0,.07.27l.3-.13-.25-.45a.16.16,0,0,0-.29.08.9.9,0,0,0,.09.51.17.17,0,0,0,.31-.13l-.1-.34a.17.17,0,0,0-.33,0,1.45,1.45,0,0,0,.1.62.2.2,0,0,0,.2.13.2.2,0,0,0,.15-.18,1,1,0,0,0-.35-.78.17.17,0,0,0-.19,0,.16.16,0,0,0-.1.16c0,.13,0,.26,0,.39a.17.17,0,0,0,.32.08.61.61,0,0,0,.11-.52.37.37,0,0,0-.37-.25.32.32,0,0,0-.28.39.93.93,0,0,0,.21.5.18.18,0,0,0,.31-.13,1,1,0,0,0-.43-.8.19.19,0,0,0-.28.16,1.42,1.42,0,0,0,.15.57.19.19,0,0,0,.23.08.2.2,0,0,0,.11-.22,2.48,2.48,0,0,0-.28-.76.18.18,0,0,0-.34.09,2,2,0,0,0,.1.68.18.18,0,0,0,.21.13.18.18,0,0,0,.16-.18c0-.28,0-.55-.08-.83a.19.19,0,0,0-.14-.18.18.18,0,0,0-.21.09,1.4,1.4,0,0,0-.12.9.19.19,0,0,0,.36,0,.77.77,0,0,0-.18-.68.19.19,0,0,0-.32.14,2.11,2.11,0,0,0,0,.25l.35,0c0-.13-.08-.25-.13-.38s-.25-.11-.24,0,0,.25,0,.38a.18.18,0,0,0,.35,0,1.87,1.87,0,0,0,0-.25l-.32.08,0,0,0,0s0,0,0,0,0,0,0,.06a.07.07,0,0,1,0,0s0,0,0,0v.06s0,.06,0,0h.36a1.13,1.13,0,0,1,.08-.6l-.35-.1c0,.28,0,.55.09.83l.36-.05a1.44,1.44,0,0,1-.09-.58l-.35.09a2,2,0,0,1,.24.68l.34-.14a.9.9,0,0,1-.1-.39l-.28.16a.21.21,0,0,1,.1.09l0,0s0,0,0,0l.05.08a.5.5,0,0,1,.07.27l.31-.13a.51.51,0,0,1-.11-.22s0-.06,0,0,0-.07,0,0,0,0,0,0a.05.05,0,0,1,0,0s0,0,0,0,0,0,0,0,0,0,0,0h0s0,0,0,0a.43.43,0,0,1-.08.23l.32.09c0-.13,0-.26,0-.39l-.29.12a.67.67,0,0,1,.24.54l.32-.08a1,1,0,0,1-.08-.49l-.33,0,.09.34.31-.13a.65.65,0,0,1-.07-.34l-.29.08.24.46a.17.17,0,0,0,.3-.13,1.43,1.43,0,0,0-.09-.27.16.16,0,0,0-.3.09Z"/><path class="cls-9" d="M93.08,121.79a1.38,1.38,0,0,1,0-.2v-.17c0-.13,0-.25,0-.38s0-.27,0-.4a1.12,1.12,0,0,0-.1-.4.19.19,0,0,0-.23-.09c-.1,0-.14.1-.16.2a.83.83,0,0,0,0,.22l0,.17c0,.12,0,.25.07.37s0,.24.06.36l0,.17c0,.06,0,.12.07.19s.25.1.26,0Z"/><path class="cls-9" d="M92.46,120.32h0v0a.06.06,0,0,0,0,0s0,0,0,.05,0,.07,0,.1,0,0,0,0v0s0,0,0,.07l0,.12.08.15,0,0a.16.16,0,0,0,.13.07h.07a.13.13,0,0,0,.12-.09.13.13,0,0,0,0-.06h0v0s0,0,0-.06a.25.25,0,0,0-.06-.14l0,0c-.06-.07-.1-.15-.15-.22l-.06-.07s0,0,0,0v0l0-.05,0,0,0,0h0a.1.1,0,0,0-.17,0Z"/><path class="cls-9" d="M93.47,121.52l.18.26a3.15,3.15,0,0,0,.22.29,4.89,4.89,0,0,0,.47.44.23.23,0,0,0,.29,0c.06-.08.09-.22,0-.29a4.81,4.81,0,0,1-.48-.42,2.29,2.29,0,0,0-.23-.21l-.22-.24a.14.14,0,0,0-.23.17Z"/><path class="cls-9" d="M94.41,122.29a1.24,1.24,0,0,1-.33-.09,1.51,1.51,0,0,1-.18-.09l-.12-.06a3.38,3.38,0,0,1-.6-.38l-.17.43a.61.61,0,0,0,.27,0,.19.19,0,0,0,.11-.26.55.55,0,0,0-.21-.19.24.24,0,0,0-.29.06.23.23,0,0,0,0,.31,2.19,2.19,0,0,0,.73.37l.17,0a.75.75,0,0,0,.21,0l.37,0c.12,0,.15-.19,0-.21Z"/><path class="cls-9" d="M104.79,124.17a14.45,14.45,0,0,0,4.07-2.24,17,17,0,0,0,1.69-1.48,9.25,9.25,0,0,0,1.51-1.8.08.08,0,0,0-.12-.09c-.55.51-1,1.11-1.56,1.63a21.33,21.33,0,0,1-1.78,1.52,26.2,26.2,0,0,1-3.87,2.34c-.07,0,0,.15.06.12Z"/><path class="cls-9" d="M86.17,116.13a13.52,13.52,0,0,0,1.92,3.23,12.18,12.18,0,0,0,2.72,2.69s.09,0,0-.07c-.44-.44-.91-.84-1.35-1.28a16.31,16.31,0,0,1-1.22-1.4,21.38,21.38,0,0,1-2-3.21s-.12,0-.1,0Z"/><path class="cls-9" d="M87.77,112.32a10.51,10.51,0,0,0,1,2.29,11.22,11.22,0,0,0,.63,1l.36.53a3,3,0,0,0,.39.48.08.08,0,0,0,.12-.1,3.91,3.91,0,0,0-.35-.48l-.35-.48c-.23-.34-.44-.69-.64-1a21,21,0,0,1-1-2.26c0-.06-.11,0-.09,0Z"/><path class="cls-9" d="M91,117.72a.07.07,0,0,0,.06,0,.07.07,0,0,0,.06,0,.21.21,0,0,0,0-.06.13.13,0,0,0,0-.06.21.21,0,0,0,0-.13.18.18,0,0,0-.12,0l-.07,0-.06,0,0,.06a.14.14,0,0,0,0,.07.26.26,0,0,0,0,.12.21.21,0,0,0,.13,0Z"/><path class="cls-9" d="M91.5,118.35h0l0,0h0l0,0h0l0,0h0l0,0h0v0h0a.11.11,0,0,0,0,.08.09.09,0,0,0,.06.06.15.15,0,0,0,.17,0h0l0,0s0,0,0,0,0-.1,0,0,0,0,0,0v-.12l0,0,0,0,0,0h-.1a.07.07,0,0,0-.06,0l0,0a.08.08,0,0,0,0,0,.09.09,0,0,0,0,.05,0,0,0,0,0,0,0,.06.06,0,0,0,0,0,.05.05,0,0,0,0,0,.08.08,0,0,0,0,0l.06,0Z"/><path class="cls-9" d="M92.51,119.16a.16.16,0,0,0,.11,0,.1.1,0,0,0,0,0,.13.13,0,0,0,0-.06.15.15,0,0,0,0-.12.16.16,0,0,0-.11,0,.18.18,0,0,0-.12,0l0,.05a.09.09,0,0,0,0,.07.15.15,0,0,0,0,.11.17.17,0,0,0,.12,0Z"/><path class="cls-9" d="M108.43,117.29a6,6,0,0,0,.84-1.15,4.6,4.6,0,0,0,.31-.63,1.62,1.62,0,0,0,.2-.68c0-.06-.07-.07-.11,0a3.22,3.22,0,0,0-.24.61c-.09.22-.2.43-.31.64a6.44,6.44,0,0,1-.79,1.14c-.06.07,0,.17.1.1Z"/><path class="cls-9" d="M95.9,118.12H96l.09.06,0,0,0,0,0,0,0,0a.09.09,0,0,0,.1,0l0,0a.11.11,0,0,0,0-.13.18.18,0,0,0-.07-.08.21.21,0,0,0-.1-.06.34.34,0,0,0-.2,0,.07.07,0,0,0,0,.09.07.07,0,0,0,.07.07Z"/><path class="cls-9" d="M98.49,118a1.17,1.17,0,0,0,.41.06l.21,0a.62.62,0,0,0,.19-.12s0-.11,0-.1l-.1,0h-.1l-.18,0a1.09,1.09,0,0,1-.36,0c-.07,0-.1.09,0,.11Z"/><path class="cls-9" d="M101.51,117.85a.6.6,0,0,0,.26,0l.1,0,.06,0,0-.06s0-.05,0-.07a.06.06,0,0,0-.07,0h0s0,0,0,0h0l0,0,0,0h0l0,0s0,0,0,0l0,0-.06,0h0s0,0,0,0-.07,0-.07.07a.06.06,0,0,0,.07.06Z"/><path class="cls-9" d="M104.11,117l.09,0,.06,0,0,0,0,0s0,0,0,0,0,0,0,0h-.12l-.09,0a.1.1,0,0,0,0,0,.06.06,0,0,0,0,.06.05.05,0,0,0,0,0Z"/><path class="cls-9" d="M99.15,122.5a1.07,1.07,0,0,0,.59.22.72.72,0,0,0,.6-.18s0-.08,0-.07a1.27,1.27,0,0,0-.28.06.86.86,0,0,1-.28,0,1.06,1.06,0,0,1-.55-.15c-.06,0-.1,0,0,.08Z"/><path class="cls-9" d="M95.51,122.09a1,1,0,0,0,.74.48,1.48,1.48,0,0,0,.47,0,.6.6,0,0,0,.39-.24.08.08,0,0,0-.07-.12c-.12,0-.24.08-.37.1a1.15,1.15,0,0,1-.37,0,1.26,1.26,0,0,1-.66-.33.08.08,0,0,0-.13.1Z"/><path class="cls-9" d="M102.88,121.89H103l.09,0,.18,0,.17,0a.46.46,0,0,0,.18-.1.08.08,0,0,0,0-.13.37.37,0,0,0-.21,0l-.17,0-.17,0-.09,0-.1,0a.1.1,0,0,0,0,.18Z"/><path class="cls-9" d="M105.07,120.65h.07l.08,0,.06,0,0,0,0,0v0h0l0,0,.1-.08a.08.08,0,0,0,0-.05s0,0,0,0a.07.07,0,0,0-.09,0l-.12.05h0l0,0c-.07,0-.14,0-.19.06l-.08,0s0,0,0,0v0h0s0,.06,0,.08,0,0,.07,0Z"/><path class="cls-9" d="M84.62,67.4a2.47,2.47,0,0,1,.56-.51l.32-.22.16-.1s.13-.06.16-.12a.06.06,0,0,0,0-.09.31.31,0,0,0-.21,0l-.17.08a2.71,2.71,0,0,0-.35.24,3.05,3.05,0,0,0-.52.61c0,.06,0,.12.09.07Z"/><path class="cls-9" d="M88.82,65.47a1.28,1.28,0,0,1,.48-.24,1.07,1.07,0,0,1,.25,0h.29s.1,0,.11-.09a.12.12,0,0,0-.08-.12l-.14,0a.54.54,0,0,0-.18,0,1,1,0,0,0-.33.06,1.21,1.21,0,0,0-.54.35.1.1,0,0,0,.14.13Z"/><path class="cls-9" d="M93.74,65c.14,0,.27-.09.41-.12a1.74,1.74,0,0,1,.39,0,1.29,1.29,0,0,1,.39,0,1.52,1.52,0,0,1,.21,0l.21,0c.09,0,.19-.09.1-.16a1.27,1.27,0,0,0-.91-.24,1.45,1.45,0,0,0-.89.32.09.09,0,0,0,.09.15Z"/><path class="cls-9" d="M99.57,65.57a14.86,14.86,0,0,1,1.49.22.2.2,0,0,0,.2-.09s0-.08,0-.13-.07-.11-.12-.12a3.25,3.25,0,0,0-1.58,0c-.06,0-.07.13,0,.14Z"/><path class="cls-9" d="M94.57,72.83l.06,0,.08,0,.2,0a1.7,1.7,0,0,0,.39,0,1.55,1.55,0,0,0,.75-.27c.08-.06,0-.21-.07-.17l-.35.12-.36.07a2.23,2.23,0,0,1-.36,0h-.27l-.06,0s0,.06,0,.07Z"/><path class="cls-9" d="M90.3,73.11a.41.41,0,0,0-.13.44.51.51,0,0,0,.34.36.9.9,0,0,0,.54,0,1.78,1.78,0,0,0,.29-.12l.12-.07c.05,0,.1-.06.11-.12s0-.08,0-.09-.16,0-.23.08l-.22.1a.7.7,0,0,1-.43,0,.39.39,0,0,1-.28-.22.33.33,0,0,1,0-.32.07.07,0,0,0-.09-.1Z"/><path class="cls-9" d="M86.93,73.85a1.88,1.88,0,0,0,.64.19,1.22,1.22,0,0,0,.33,0,.57.57,0,0,0,.18,0,.25.25,0,0,0,.14-.08.07.07,0,0,0,0-.12.57.57,0,0,0-.29,0,1.72,1.72,0,0,1-.32,0,2.53,2.53,0,0,1-.61-.06s-.09.06,0,.09Z"/><path class="cls-9" d="M99.3,72.35l.28,0h.15l.08,0h0l.07,0a.12.12,0,0,0,0-.17l-.06,0h-.11l-.16,0-.28,0a.12.12,0,0,0-.08.12s.06.1.11.09Z"/><path class="cls-9" d="M80.54,71a6.85,6.85,0,0,0-.16,1.51,14.23,14.23,0,0,0,0,1.6c0,.51.08,1,.16,1.52a5.59,5.59,0,0,0,.37,1.46s.11,0,.11,0a13.24,13.24,0,0,0-.23-1.38,14.86,14.86,0,0,1-.18-1.62q0-.75,0-1.5c0-.51.11-1,.1-1.54a.08.08,0,0,0-.15,0Z"/><path class="cls-9" d="M81.19,78.08l0,0,0,0a.08.08,0,0,0,0,0,.11.11,0,0,0,0,0l0,0s0,0,0,0a.18.18,0,0,0,.1,0,.11.11,0,0,0,.07-.06.16.16,0,0,0,0-.1.15.15,0,0,0-.15-.09Z"/><path class="cls-9" d="M81.47,79.12a.12.12,0,0,0,0-.24.12.12,0,0,0,0,.24Z"/><path class="cls-9" d="M82,79.9h0v0h0v0h0v0h0l0,0h0l0,0,0,0h0v0h0v0h0l0,0h0a.1.1,0,0,0,0,.1l0,0s0,0,.06,0h.08a.14.14,0,0,0,0-.07.14.14,0,0,0,0-.06h0l0,0a.08.08,0,0,0-.12,0,.08.08,0,0,0,0,.07s0,.05,0,.05Z"/><path class="cls-9" d="M108.58,70.93a7.16,7.16,0,0,0,0,1.46c0,.5,0,1-.07,1.5a10,10,0,0,1-.25,1.55c-.12.51-.29,1-.41,1.5-.05.18.21.24.27.08a11.18,11.18,0,0,0,.63-3.08,13.3,13.3,0,0,0,.06-1.55,3.88,3.88,0,0,0-.15-1.48.07.07,0,0,0-.13,0Z"/><path class="cls-9" d="M107.92,78a.21.21,0,0,0,0-.42.21.21,0,0,0,0,.42Z"/><path class="cls-9" d="M107.72,78.59a.18.18,0,0,0,0-.35.18.18,0,0,0,0,.35Z"/><path class="cls-9" d="M107.63,79.33a.17.17,0,0,0,0-.33.17.17,0,0,0,0,.33Z"/><path class="cls-9" d="M103.51,67.11a.45.45,0,0,1,.36-.25.45.45,0,0,1,.37.19s.05.09.09.1a.07.07,0,0,0,.09-.09.35.35,0,0,0-.12-.23.58.58,0,0,0-.5-.14.55.55,0,0,0-.41.37c0,.07.09.12.12,0Z"/><path class="cls-9" d="M82,69.23l-.06,0,0,0h0l0,0h0a.11.11,0,0,0-.11,0h0l.15.15s0,0,0,0h0l0,0h0l0,0,0,0h0l.09,0h0l.06,0c.06,0,.05-.12,0-.15a.19.19,0,0,0-.1,0h-.08l-.14,0a.52.52,0,0,0-.2.19.11.11,0,0,0,0,.14.12.12,0,0,0,.14,0h0a.12.12,0,0,0,0-.13h0l0,0h0l0,.05h0l0,0,0,0,0,0a.08.08,0,0,0,0-.09.06.06,0,0,0-.08,0Z"/><path class="cls-9" d="M78.53,56.63a3.25,3.25,0,0,0,1.08.07h.55a2,2,0,0,0,.56-.06.19.19,0,0,0,0-.37,1.75,1.75,0,0,0-.56,0l-.55,0-.55.06-.25,0a1.29,1.29,0,0,0-.28.08c-.07,0-.09.14,0,.16Z"/><path class="cls-9" d="M78.21,57.35a5.11,5.11,0,0,1,.94.29c.31.13.59.29.89.45a.23.23,0,0,0,.23-.4,3.86,3.86,0,0,0-1-.46,5.63,5.63,0,0,0-1-.25.21.21,0,0,0-.24.14.2.2,0,0,0,.14.23Z"/><path class="cls-9" d="M76.88,59.66h1.67c.18,0,.45,0,.58-.12a.18.18,0,0,0,0-.24c-.14-.16-.39-.11-.58-.11l-.54,0-1.13.05a.2.2,0,0,0,0,.39Z"/><path class="cls-9" d="M110.26,59.74a2.9,2.9,0,0,0,.93,0l1-.1,1-.09c.24,0,.63,0,.78-.26a.11.11,0,0,0,0-.14c-.19-.19-.59-.11-.83-.09l-1,.11-1,.11a2.45,2.45,0,0,0-.89.19.15.15,0,0,0,0,.27Z"/><path class="cls-9" d="M110.77,61.35c.57,0,1.14,0,1.71-.08l.86-.07a7.9,7.9,0,0,0,.85-.07c.28-.05.19-.44-.06-.46a6.2,6.2,0,0,0-.86,0l-.86.09a13.81,13.81,0,0,0-1.67.36.09.09,0,0,0,0,.18Z"/><path class="cls-9" d="M111.65,63.3c.49-.09,1-.17,1.48-.21a6.12,6.12,0,0,1,.74,0h.38a.39.39,0,0,0,.36-.09.19.19,0,0,0,0-.28c-.09-.12-.22-.11-.36-.11h-.38c-.27,0-.53,0-.79,0a6.63,6.63,0,0,0-1.53.33.19.19,0,0,0,.1.36Z"/><path class="cls-9" d="M120.21,28.89c.06.15.08.31.13.47a2.62,2.62,0,0,1,.13.48.76.76,0,0,1-.24.71c-.48.45-1.18.25-1.76.15a.21.21,0,1,0,0,.42h0a.2.2,0,0,0,.17-.3l0,0-.24.31a2.25,2.25,0,0,0,2.19-.27,1.17,1.17,0,0,0,.35-1,2,2,0,0,0-.17-.57,1.16,1.16,0,0,0-.14-.24c-.07-.08-.14-.15-.2-.23s-.22,0-.18.08Z"/><path class="cls-9" d="M121.53,29a1.27,1.27,0,0,0,.13,1.46,1.49,1.49,0,0,0,1.45.53c.29-.05.65-.19.74-.49,0-.09-.06-.16-.15-.15s-.13,0-.06,0a.23.23,0,0,0-.12,0l-.19.09a1.21,1.21,0,0,1-.36.1,1.16,1.16,0,0,1-.75-.17,1.44,1.44,0,0,1-.54-1.38c0-.09-.11-.1-.15,0Z"/><path class="cls-9" d="M118.82,32.13a.87.87,0,0,1,.48,0,1.06,1.06,0,0,1,.44.21,1.52,1.52,0,0,1,.47,1c0,.09,0,.19.08.28a.17.17,0,0,0,.29,0,.5.5,0,0,0,0-.32c0-.11,0-.23,0-.34a1.6,1.6,0,0,0-.67-1,1.19,1.19,0,0,0-.61-.17.78.78,0,0,0-.55.23s0,.15.07.12Z"/><path class="cls-9" d="M123.39,31.6a.43.43,0,0,0-.17-.13l-.2,0a1.36,1.36,0,0,0-.4,0,1.47,1.47,0,0,0-.69.43,1.43,1.43,0,0,0-.35.73c0,.25-.07.75.24.84a.2.2,0,0,0,.2-.08.32.32,0,0,0,0-.21v-.07c0,.05,0-.14,0-.08s0-.12,0-.17a.22.22,0,0,0,0-.08s0-.07,0,0a1.36,1.36,0,0,1,0-.17s0,0,0-.07,0-.07,0,0a1.09,1.09,0,0,1,.08-.15l0-.06s0,0,0,0a1,1,0,0,1,.47-.31,1.77,1.77,0,0,1,.3-.06l.17,0,.06,0,.06,0a.11.11,0,0,0,0-.18Z"/></svg>