<svg id="illustration" xmlns="http://www.w3.org/2000/svg" viewBox="0 0 198.43 121.6"><defs><style>.cls-1{fill:#ad754e;}.cls-2{fill:#ee2424;}.cls-3{fill:#fff;}.cls-4{fill:#852100;}.cls-5{fill:#e71d2f;}.cls-6{fill:#939598;}.cls-7{fill:#9ac14c;}.cls-8{fill:#454b54;}.cls-9{fill:#735745;}.cls-10{fill:#010101;}.cls-11{fill:#231f20;}</style></defs><polygon class="cls-1" points="131.72 12.78 135.17 11.39 140.26 10.64 143.04 10.4 148.36 11.25 151.77 15.45 153.38 17.06 157.56 17.02 160.61 16.94 160.61 21.06 160.12 24.79 159 26.25 156.05 27.52 150.5 28.13 148.69 29.47 145.04 31.19 143.72 31.3 142.92 33.78 141.94 38.68 140.26 40.45 139.44 43.23 139.73 51.85 140.74 59.06 143.67 59.54 148.9 60.98 154.73 60.98 159.97 59.54 164.69 57.85 167.13 54.77 169.76 53.44 173.89 53.48 176.37 54.67 178.69 57.52 177.88 58.96 173.46 62.03 170 64.45 166.93 65.6 163.23 67.41 157.85 68.81 153.85 70.67 149.74 72.38 144.53 73.17 139.8 73.17 136.04 73.17 132.57 71.91 128.61 71.38 126.98 70.25 123.45 70.35 120.56 71.91 121.83 75.87 122.54 82.53 120.56 85.08 118.41 88.02 116.04 90.51 113.09 92.8 109.05 94.95 105.14 96.33 100.73 98.09 98.8 99.37 96.6 103.11 95.47 104.81 94.91 108.86 92.1 110.07 90.19 111.4 85.75 111.79 84.42 111.4 81.64 111.58 78.25 110.02 79.11 106.71 83.11 105.31 85.02 105.25 87.44 100.89 94.59 86.85 95.18 85.08 94.91 82.09 94.13 77.53 93.42 73.82 93.79 71.22 90.19 68.44 85.75 65.6 81.52 61.46 79.73 57.84 78.04 54.77 78.04 51.19 78.04 47.97 78.98 46 82.2 42.94 83.63 44.8 83.47 50.12 84.37 54.77 85.95 58.02 89.12 61.6 93.07 63.93 96.6 64.94 98.8 64.85 100.42 62.53 103.9 60.98 109.46 58.9 113.09 56.55 116.32 53.48 119.03 49.12 121.43 45.46 124.45 42.43 127.25 40.45 129.82 39.65 130.82 33.78 130.82 29.95 130 27.73 128.37 24.41 128.36 21.85 128.37 20.09 124.31 18.59 120.87 16.83 118.41 14.91 115.28 12.15 120.39 11.71 123.45 12.16 121.17 9.8 126.42 9.47 129.6 10.14 132.57 10.64 131.72 12.78"/><path class="cls-2" d="M34.23,42.44S46.83,35,48.67,32.26c0,0,13.6-2.07,26.36,3.77s31.42,15.15,31.42,15.15l12,2.3,8,1.27,7.16-1,8.71-5.15,1.43-3.21-.28-4.53-1.62-.84.12-1.38,4,5.14,1,5.3L145,53.18l-2.87,4.09-4.73,2.52-5.3,1.47-9.4.35H116l-8.27-2.07-7-2.84-5.4-3.22L89.12,50l-5.49-2.85L82.2,42.94l-1.71.43L79,46l-5.07-2.18-7-1-8-.75-7.09,0-6.71.81a62.87,62.87,0,0,1-6.61.71A14.14,14.14,0,0,1,34.23,42.44Z"/><path class="cls-2" d="M130.82,31.87,127,33.78l-5.55-.29-6.15-1.82-12-5.67-7.78-5.11L86.31,15l-8.81-3.6L65.78,10.05,60.07,15l-2.45,1.84s-3.16,1.82-2.49,2.49,3.77.56,3.77.56l6.88-1.52s3.34-2.75,11.5.43S90.75,28.11,98.8,31.67s15,6,23,7l8,1,.69-4.16Z"/><path class="cls-3" d="M146.42,13.26c1.58,1.14,3.27,2.2,3.4,4.37A4.27,4.27,0,0,1,145.59,22a4.35,4.35,0,0,1-4.06-4.19c0-2.48,2.38-4,4.65-4,1.28,0,1.29-2,0-2a6.16,6.16,0,0,0-6.24,5.42,5.84,5.84,0,0,0,11.58,1.48c.45-2.74-1.7-6.69-4.88-6.27a.44.44,0,0,0-.22.81Z"/><path class="cls-3" d="M147.37,13.62a3.69,3.69,0,0,0-3.79.51A4,4,0,0,0,142,17.66c.24,2.65,3.09,4.68,5.57,3.27s2.82-5.45-.26-6.37c-2.65-.8-4.87,3.19-2,4.21.63.23,1-.53.79-1-.14-.3-.11-1,.25-1.13.7-.33,1.28.75,1.22,1.26a1.78,1.78,0,0,1-2.69,1.29c-2.54-1.77.2-4.65,2.45-4.64a.46.46,0,0,0,.12-.9Z"/><path class="cls-3" d="M142.51,15.78a4.62,4.62,0,0,0-.28,4.43,4,4,0,0,0,3.27,2.12,3,3,0,0,0,2.9-2c.39-1,.35-2.51-1-2.67A.46.46,0,0,0,147,18c-.17.56.07,1.1-.12,1.65a1.52,1.52,0,0,1-1.93.95c-2-.5-2.22-3.05-2-4.73,0-.23-.32-.3-.42-.12Z"/><path class="cls-3" d="M146.28,18.62c.45-.65,1.37-1.6,1.2-2.44a.41.41,0,0,0-.5-.29c-.81.29-1.14,1.56-1.47,2.28a.45.45,0,0,0,.77.45Z"/><path class="cls-3" d="M149.67,12.12c.08.05.16.22.24.3s.38.32.54.5a2.46,2.46,0,0,1,.47,1.38c.1.6,1,.53,1.15,0a2.3,2.3,0,0,0-.66-2,2,2,0,0,0-.87-.56,1.1,1.1,0,0,0-.51,0c-.12,0-.21.11-.32.13s-.16.24,0,.31Z"/><path class="cls-3" d="M147,18.17c-.8.32-2,.35-2.49,1.1a.49.49,0,0,0,.42.74c.92-.07,1.53-1.06,2.21-1.59.12-.09,0-.3-.14-.25Z"/><path class="cls-4" d="M144.44,16.25a1.07,1.07,0,0,0-.45,1.39,1.19,1.19,0,0,0,1.39.77,1.4,1.4,0,0,0,1.06-1.71,1.29,1.29,0,0,0-1.85-.87.57.57,0,0,0,.13,1c.37.09.68.18.31.49-.15.14-.11,0,0,.06a.22.22,0,0,1-.1-.11c0-.09-.11-.18,0-.23.54-.3.07-1.07-.47-.81Z"/><path class="cls-5" d="M153.33,28.68a3,3,0,0,0,.92,1.22l1.22,1.26a.52.52,0,0,0,.8-.1,2.08,2.08,0,0,0,.13-2c-.26-.56-1-1.38-1.69-1.11a.5.5,0,0,0-.22.83c.31.3.72.29.94.72a1,1,0,0,1,0,1.09l.8-.1-1.26-1.22a3,3,0,0,0-1.22-.91.31.31,0,0,0-.38.37Z"/><path class="cls-5" d="M155.12,28.77a3.82,3.82,0,0,0,1,1.67.43.43,0,0,0,.64-.36,3.86,3.86,0,0,0-1.06-1.77c-.29-.37-.76.1-.6.46Z"/><path class="cls-5" d="M155.47,28.73c.26.46.54,1,1.09,1.14a.44.44,0,0,0,.53-.53c-.12-.55-.68-.83-1.13-1.09a.36.36,0,0,0-.49.48Z"/><path class="cls-6" d="M23.19,114.23c.24-5.4.07-10.83.07-16.23a.25.25,0,0,0-.5,0c0,5.4-.07,10.84.23,16.23a.1.1,0,0,0,.2,0Z"/><path class="cls-6" d="M25.72,114.07c1.17-5.93-.09-12.46-.27-18.48-.17-5.68,1.35-13.28-.82-18.55-.23-.58-1.11-.87-1.45-.19C20.54,82,21.86,90,22.06,95.59c.21,6.07,0,13,2.39,18.65a.7.7,0,0,0,1.27-.17Z"/><path class="cls-6" d="M22.67,113.28a5.86,5.86,0,0,0,1.64.82,19.32,19.32,0,0,0,2.05.74.63.63,0,0,0,.34-1.22,14.65,14.65,0,0,0-1.95-.6,5.78,5.78,0,0,0-1.83-.36c-.28,0-.51.41-.25.62Z"/><path class="cls-6" d="M22.81,113.44a2.5,2.5,0,0,0,1.41,1.49c.61.27,1.58.54,2.09,0a.55.55,0,0,0-.11-.86c-.43-.26-.95-.11-1.42-.25A3.63,3.63,0,0,1,23.5,113c-.28-.25-.85,0-.69.4Z"/><path class="cls-6" d="M22.6,113.53a4.08,4.08,0,0,0,3.78,1.81c.55-.08.56-1,0-1.11a9.27,9.27,0,0,1-1.74-.27,6.27,6.27,0,0,1-1.62-.85c-.25-.17-.58.17-.42.42Z"/><path class="cls-6" d="M25.2,115c.5.28,1.28.77,1.83.43a.39.39,0,0,0,.14-.54c-.4-.56-1.23-.42-1.84-.35-.23,0-.37.33-.13.46Z"/><path class="cls-6" d="M25.81,114.9a15.13,15.13,0,0,0-1.38-1.1,7,7,0,0,1-1.12-1.41c-.68-1.09-2.41-.09-1.73,1a5.14,5.14,0,0,0,1.81,1.75,3.27,3.27,0,0,0,2.22.5.46.46,0,0,0,.2-.75Z"/><path class="cls-6" d="M46,25.52c-.4,1,.05,2.17.22,3.22A25.19,25.19,0,0,0,47,32.88a.45.45,0,0,0,.88-.12,23.79,23.79,0,0,0-.66-4c-.22-1.09-.2-2.44-1-3.29a.15.15,0,0,0-.25.06Z"/><path class="cls-6" d="M47.48,33.3c.4-.35.78-.71,1.14-1.09a3.18,3.18,0,0,0,.85-1.12c.12-.36-.31-.62-.61-.47a3.16,3.16,0,0,0-1,1c-.32.42-.61.84-.9,1.28s.23.59.48.37Z"/><path class="cls-6" d="M48.77,31.73a2.42,2.42,0,0,0,1.7-.11.4.4,0,0,0,0-.68,2.42,2.42,0,0,0-1.7-.1.45.45,0,0,0,0,.89Z"/><path class="cls-6" d="M50.2,31.13c.78-1.18.22-3.07-.36-4.23a6.61,6.61,0,0,0-3.53-3.11c-1.13-.45-1.68,1.63-.5,1.8a4.26,4.26,0,0,1,3.1,2.05c.7,1.13.52,2.2.73,3.41,0,.28.43.27.56.08Z"/><path class="cls-6" d="M46.58,26.17c.15,1.25.1,3,.87,4,.36.5,1.41.59,1.52-.2.2-1.38-.56-2.75-1-4-.25-.66-1.45-.65-1.35.18Z"/><path class="cls-6" d="M46.48,27.68c0,.53,0,1,.05,1.56a3,3,0,0,0,.26,1.39.5.5,0,0,0,.9-.11,3.3,3.3,0,0,0-.07-1.43c-.07-.51-.17-1-.29-1.52a.43.43,0,0,0-.85.11Z"/><path class="cls-6" d="M48.66,65.38C50.07,58.35,50,51,49.75,43.9c-.06-1.61-2.6-1.62-2.52,0,.34,7.11,0,14.24.38,21.34,0,.58.93.77,1,.14Z"/><path class="cls-6" d="M47.34,63.32c-.73,1-.38,3.06,1.08,3.19a.56.56,0,0,0,.39-.94c-.27-.26-.6-.41-.76-.76a1.12,1.12,0,0,1,0-1.08.41.41,0,0,0-.7-.41Z"/><path class="cls-6" d="M46.79,65.09c.13.51.31,1,.47,1.51A.59.59,0,0,0,48,67a.93.93,0,0,0,.76-1c-.05-.56-.94-.78-1.05-.14,0,0,0,.06,0,.07l.63.26c-.25-.46-.5-.93-.79-1.38a.39.39,0,0,0-.7.3Z"/><path class="cls-6" d="M47.3,66l.35.23a.44.44,0,0,0,.59-.6L48,65.28c-.47-.72-1.44.24-.72.71Z"/><path class="cls-6" d="M47.35,66.66c.34.41,1.2.47,1.31-.18a.23.23,0,0,0-.28-.28c-.18.06-.44.18-.6,0a.3.3,0,0,0-.43.43Z"/><path class="cls-7" d="M39.91,115.3A44.45,44.45,0,0,1,54,118.19c2,.78,3.4-2.54,1.46-3.47a29.55,29.55,0,0,0-15.51-3,1.81,1.81,0,0,0,0,3.61Z"/><path class="cls-7" d="M38.9,114.62a56.53,56.53,0,0,0,4.71-12c.54-2.07-2.42-2.8-3.15-.87a56.19,56.19,0,0,0-3,12.28c-.11.8,1,1.48,1.44.61Z"/><path class="cls-7" d="M44.81,114.78a29.5,29.5,0,0,0,5-6.11c1-1.73-1.51-3.11-2.66-1.55A29.83,29.83,0,0,0,43.45,114c-.3.8.81,1.31,1.36.79Z"/><path class="cls-7" d="M44.49,102.49c1.07,2,3.49,3,5.43,3.93,1.62.76,4.28,2.5,5.94,1.26a1.17,1.17,0,0,0,.51-1.27c-.59-2-3.27-2.23-5-3-2-.83-4-2.23-6.13-2.32a.91.91,0,0,0-.78,1.35Z"/><path class="cls-7" d="M46.81,98.85c1.49.62,3,1.08,4.48,1.75s2.86,1.75,4.34,2c1,.14,2.19-.86,1.48-1.91-1.87-2.74-7.26-3.58-10.3-2.9-.61.13-.46.9,0,1.1Z"/><path class="cls-7" d="M46.64,97.87c3,.1,6.86,0,9.62-1.3,1.13-.54.46-2.08-.59-2.17-3-.24-6.59,1.17-9.34,2.34-.59.25-.24,1.11.31,1.13Z"/><path class="cls-7" d="M57,96.56c-.11-1.47-1.82-2.51-2.86-3.42a24.4,24.4,0,0,0-4.46-3.47,1.37,1.37,0,0,0-1.65,2.14,24,24,0,0,0,4.53,3.38c1.15.76,2.62,2.14,4.07,1.86a.52.52,0,0,0,.37-.49Z"/><path class="cls-7" d="M51.1,87.74a13.68,13.68,0,0,0,4,1.63,16.87,16.87,0,0,0,4.23,1,1.16,1.16,0,0,0,.58-2.15,17,17,0,0,0-4.14-1.33,13.57,13.57,0,0,0-4.23-.68.81.81,0,0,0-.41,1.5Z"/><path class="cls-7" d="M53.21,79.53c-.88,2.16,1.38,3.56,3.18,4,1.3.3,2.6.23,3.45,1.43s.27,2.2.66,3.36a1.12,1.12,0,0,0,1.84.49c1.7-1.38.53-4.47-.67-5.81a5.4,5.4,0,0,0-2.92-1.67c-1.51-.33-4.15.34-4.45-1.79-.09-.62-.91-.44-1.09,0Z"/><path class="cls-7" d="M55,77.3c1.09.84,2.72,1.12,4,1.6,1.54.57,2.89,1.41,4.35,2.11a1.46,1.46,0,0,0,1.47-2.51c-2.19-1.67-6.83-3.78-9.61-2.83A.9.9,0,0,0,55,77.3Z"/><path class="cls-7" d="M60.76,78.5c.88-1.75,2.39-3.66,2.57-5.64.12-1.28-1.61-1.46-2.22-.6-1.06,1.51-1.14,4-1.56,5.73-.17.7.86,1.2,1.21.51Z"/><path class="cls-7" d="M58.63,70.7a21.15,21.15,0,0,0,5,3.29c1.75.93,3.58,2.22,5.53,2.65,1.21.27,2.29-1.26,1.28-2.19-1.48-1.36-3.54-2.12-5.31-3a21.13,21.13,0,0,0-5.62-2.3,1,1,0,0,0-.92,1.58Z"/><path class="cls-7" d="M47.87,87.48a1.5,1.5,0,1,0-1.5-1.5,1.52,1.52,0,0,0,1.5,1.5Z"/><path class="cls-7" d="M48.28,84c-1.43,3.82-3.19,8-3.77,12.06-.06.43.54.8.77.32C47.1,92.71,48,88.23,49,84.22a.35.35,0,0,0-.68-.18Z"/><path class="cls-8" d="M23.83,76.33c-3.43,4.33-2.63,10.34-2.6,15.55,0,7.42-.05,15.13,1.16,22.47.08.49.85.36.85-.12,0-6.14-.65-12.31-.76-18.46-.1-5.67-1.36-14,2.22-18.77.38-.5-.48-1.17-.87-.67Z"/><path class="cls-8" d="M45.87,24.86c-.6.94-.21,2.23-.13,3.3A19.91,19.91,0,0,0,46.15,32a.54.54,0,0,0,1.05-.14,22.53,22.53,0,0,0-.31-4.25c-.1-1,0-2.06-.67-2.81a.23.23,0,0,0-.35,0Z"/><path class="cls-8" d="M47,42.93c-1.32,7.94-.74,16.43-.24,24.41,0,.74,1.21.75,1.16,0-.57-8.12,0-16.24-.45-24.34,0-.26-.43-.35-.47-.07Z"/><path class="cls-9" d="M144,10.52c-4.27-.52-9.64.25-13.17,2.89-.38.29-.18,1,.35.83a55.1,55.1,0,0,1,5.89-2A29.83,29.83,0,0,1,144,11.8c.85,0,.8-1.19,0-1.28Z"/><path class="cls-9" d="M131.85,19.72c-4.85-2.57-9.78-4.51-14.24-7.8-1.07-.8-2.12,1-1,1.79,4.4,3.18,9.6,6.19,15.11,6.68a.36.36,0,0,0,.18-.67Z"/><path class="cls-9" d="M144.12,31.9c-.51-.41-.85-.26-1.5-.28a5.5,5.5,0,0,1-3.24-1.25c-1.88-1.51-1.87-3.58-2.09-5.77a.38.38,0,0,0-.71-.19c-1.51,2.11-.31,5.26,1.43,6.84a6.42,6.42,0,0,0,3.33,1.53c.9.14,2.32.37,2.82-.56a.27.27,0,0,0,0-.32Z"/><path class="cls-9" d="M137.85,66c2.45-.69,3.57-3.89,3.61-6.15,0-1-1.61-.94-1.5,0a5.49,5.49,0,0,1-.57,3.11,11.15,11.15,0,0,1-2,2.3.45.45,0,0,0,.44.74Z"/><path class="cls-9" d="M140.13,61.06a0,0,0,0,0,0-.05,0,0,0,0,0,0,.05Z"/><path class="cls-9" d="M140.17,60.77c2.62,4.14,10.17,4.13,14.45,3.51a22.5,22.5,0,0,0,8.8-3.16c4.21-2.7,7.21-7.1,12.91-4.9.67.26.95-.72.45-1.08-4.75-3.54-9.93.84-14,3.35A22.86,22.86,0,0,1,150.5,62c-3.48,0-6.79-1.83-10.16-1.55a.2.2,0,0,0-.17.3Z"/><path class="cls-9" d="M119.18,73.24C120.55,93.62,92.47,92.53,88,109.61c-.16.64.82,1.11,1.12.46C94,99.77,103.68,96.84,112.24,90.5c5.45-4,10-10.37,8.29-17.44-.18-.74-1.41-.6-1.35.18Z"/><path class="cls-9" d="M110,94.44c4.8-2.4,10.56-7.28,11.62-12.86.07-.36-.41-.76-.69-.4-1.69,2.16-2.83,4.64-4.63,6.74a33,33,0,0,1-6.69,5.85.39.39,0,0,0,.39.67Z"/><path class="cls-9" d="M107.82,94.64c6.23-2.48,13.81-8.92,14.19-16.18,0-.58-.73-.7-1-.28-1.95,2.93-3.1,6.13-5.44,8.87a29.55,29.55,0,0,1-8.19,6.51c-.57.32-.18,1.34.46,1.08Z"/><path class="cls-9" d="M98.64,100.64a4.59,4.59,0,0,0-.64.28c-.1.07,0,.27.1.22a4.16,4.16,0,0,0,.61-.35c.08,0,0-.19-.07-.15Z"/><path class="cls-9" d="M94.72,102.32c-1.25,2.52-2.6,5.73-2.28,8.6a.53.53,0,0,0,1,.14c.42-1.37.45-2.86.77-4.27s.69-2.82,1.14-4.19a.37.37,0,0,0-.67-.28Z"/><path class="cls-9" d="M92.58,104.51c-.61,1.93-1.6,4.07-1.71,6.1,0,.49.75.72,1,.26.86-1.85,1-4.2,1.34-6.2a.31.31,0,0,0-.59-.16Z"/><path class="cls-9" d="M91.38,105.73l-1.29,2.91c-.34.75-.93,1.58-.65,2.41a.52.52,0,0,0,.75.31c.8-.36,1-1.36,1.32-2.11l1.18-2.76c.38-.88-.91-1.66-1.31-.76Z"/><path class="cls-9" d="M93.16,105.74c1-1.28,2.14-2.52,3.17-3.8.8-1,2-2,2.08-3.32a.62.62,0,0,0-.79-.59c-1.27.49-1.76,1.9-2.45,3-.88,1.41-1.69,2.86-2.56,4.27-.2.33.3.74.55.43Z"/><path class="cls-9" d="M106.68,95.88,110.1,94a7.1,7.1,0,0,0,2.77-1.94.8.8,0,0,0-.69-1.2A7.31,7.31,0,0,0,109,92.21l-3.39,1.9c-1.15.64-.12,2.39,1,1.77Z"/><path class="cls-9" d="M93.88,71.39a6.36,6.36,0,0,0,3.32.91c1,0,2.42,0,3.15-.85.3-.35.24-1.07-.31-1.15a11.55,11.55,0,0,0-2.65.35,14,14,0,0,1-3.09-.24.54.54,0,0,0-.42,1Z"/><path class="cls-9" d="M106.59,60.93c10.34,4.59,24.72,3.64,34.54-1.9.66-.37.22-1.53-.53-1.25-5.49,2-10.66,3.82-16.58,4.19s-11.33-.8-17-2c-.55-.11-1,.71-.41,1Z"/><path class="cls-9" d="M129.94,39.73c-5.93.35-11.54,7-12.94,12.34-.24.93,1.2,1.63,1.62.68a24.76,24.76,0,0,1,4.5-7.32c2.06-2.17,4.63-3.32,7-5.06.25-.18.2-.66-.17-.64Z"/><path class="cls-9" d="M105.77,61c-3.08.8-7.1,2.7-9,5.38-.36.53.34,1.16.86.86,1.43-.84,2.6-2.12,4-3a46,46,0,0,1,4.43-2.38c.47-.23.13-1-.35-.83Z"/><path class="cls-9" d="M81.75,48.49a3.21,3.21,0,0,0,.68-4,2,2,0,0,0-3.53.12,1.36,1.36,0,0,0,.28,1.78A.79.79,0,0,0,80.4,46c.09-.17.11-.48.35-.51.07,0,.49.3.44.25.53.63.06,1.81.14,2.54a.25.25,0,0,0,.42.17Z"/><path class="cls-9" d="M80.26,45.6a4.62,4.62,0,0,1,.73,2c.06.64-.08,1.21,0,1.85a.47.47,0,0,0,.78.21c1.2-1.24.37-3.61-.76-4.64a.51.51,0,0,0-.79.61Z"/><path class="cls-9" d="M152.75,17.47s0,0,0,0,0,0,0,0Z"/><path class="cls-9" d="M152.87,17.36a4.22,4.22,0,0,0-.64,1.81,6.5,6.5,0,0,1-2.55,3.65c-2.5,1.65-4.68.67-7.17-.21-.74-.26-1.28.78-.75,1.29,2.21,2.13,6.2,1.68,8.56,0,1.62-1.13,4.25-4.6,2.73-6.57a.13.13,0,0,0-.18,0Z"/><path class="cls-3" d="M128.11,50.63a.12.12,0,0,0,0-.23.12.12,0,0,0,0,.23Z"/><path class="cls-3" d="M95.71,75.76A9.34,9.34,0,0,0,96,79.89a6.47,6.47,0,0,0,2,3.19c.6.43,1.34-.29,1.18-.91a18.34,18.34,0,0,0-1.46-3,31.22,31.22,0,0,1-1.44-3.49.26.26,0,0,0-.5.07Z"/><path class="cls-3" d="M133.48,16.14a17.6,17.6,0,0,0,2.71-.23,5,5,0,0,0,2.52-.84,1,1,0,0,0-.44-1.67,5,5,0,0,0-2.64.48A18.72,18.72,0,0,0,133.16,15a.63.63,0,0,0,.32,1.17Z"/><path class="cls-3" d="M159.62,17.89a1,1,0,0,0-2,.27c0,1.49,2.43,1.1,2-.27Z"/><path class="cls-3" d="M84.29,18.56c6.87,6.54,15.33,11.32,24.1,14.83.56.23.8-.68.25-.9C99.83,28.86,92.34,23.84,84.88,18c-.41-.33-1,.21-.59.6Z"/><path class="cls-3" d="M53.18,37.71C70,31.13,84.69,45.47,98.62,52.55c.51.26,1-.52.45-.77C85,44.72,70,29.06,53,37.23c-.26.12-.07.59.21.48Z"/><path class="cls-3" d="M39.85,42.17c3-.63,6.76-2.37,8-5.38.09-.23-.23-.44-.42-.32-1.24.8-2.25,1.92-3.46,2.76a18.62,18.62,0,0,1-4.35,2.17.4.4,0,0,0,.21.77Z"/><path class="cls-3" d="M61.67,17.35l3.06-2.2A13.56,13.56,0,0,0,67.45,13c.29-.36,0-1.11-.51-.89A13.33,13.33,0,0,0,64.07,14l-3,2.28c-.61.46,0,1.5.6,1Z"/><path class="cls-3" d="M24,83.57c-.49,5.08.58,10.87,1.2,15.94.07.52.88.55.85,0-.3-5.11-.29-11.06-1.7-16a.18.18,0,0,0-.35,0Z"/><path class="cls-3" d="M49.17,44.14A39.6,39.6,0,0,0,49,49.48c-.07,2.05-.37,4.09-.41,6.14a.39.39,0,0,0,.77.1c.88-3.33,1.3-8.27.2-11.58-.06-.18-.38-.22-.42,0Z"/><path class="cls-3" d="M41.27,113.31c1.61.09,3.24.1,4.85.22s3.19.54,4.8.52a.33.33,0,0,0,.17-.61c-2.84-1.42-6.88-1.29-9.87-.47a.17.17,0,0,0,.05.34Z"/><path class="cls-3" d="M40,113.1a29.67,29.67,0,0,0,1-4.16,13.85,13.85,0,0,0,.51-3.72c0-.24-.36-.38-.48-.13a14.37,14.37,0,0,0-1,3.91,27.51,27.51,0,0,0-.56,4c0,.3.4.32.49.07Z"/><path class="cls-3" d="M45.86,102.66c1.37,1.84,5.28,3.41,7.53,2.65.3-.11.44-.6.09-.76a23.22,23.22,0,0,0-3.59-.87c-1.29-.36-2.49-1-3.8-1.32-.16,0-.35.14-.23.3Z"/><path class="cls-3" d="M47.07,99.56c2.21.91,4.65,2.33,7,2.73a.47.47,0,0,0,.36-.85A17.34,17.34,0,0,0,51.11,100l-3.76-1.46c-.65-.25-.91.78-.28,1Z"/><path class="cls-3" d="M48.48,98.85c2.79-.18,5.82-.18,8.52-1a.44.44,0,0,0-.12-.86c-2.8-.2-5.77.5-8.53,1-.52.09-.4,1,.13.92Z"/><path class="cls-3" d="M49.54,94a34.37,34.37,0,0,0,5.21,1.06c.6.06.7-.88.14-1a35.58,35.58,0,0,0-5.24-.87c-.48-.06-.57.73-.11.84Z"/><path class="cls-3" d="M51.32,87.69a7.66,7.66,0,0,0,3,1.55c.91.27,2.23.65,3.08.09a.46.46,0,0,0,.1-.71,5.68,5.68,0,0,0-2.58-.85c-1-.27-2-.69-3.09-1-.49-.12-.93.53-.52.89Z"/><path class="cls-3" d="M53.91,79.77c-.93,1.56.81,2.83,2.23,3,1.76.24,3.31,0,4.49,1.61A5.42,5.42,0,0,1,61.36,88a.34.34,0,0,0,.63.16c1-1.43.41-3.51-.66-4.77a4.55,4.55,0,0,0-2.26-1.45c-1.42-.38-4.76.51-4.5-2,0-.37-.49-.46-.66-.18Z"/><path class="cls-3" d="M56,77.23a14.08,14.08,0,0,0,3.95,2,16.6,16.6,0,0,0,4.71,1.55A.5.5,0,0,0,65,80,15.37,15.37,0,0,0,61,78a15.15,15.15,0,0,0-4.71-1.41.36.36,0,0,0-.25.6Z"/><path class="cls-3" d="M60.25,79.24C60.89,78.1,61.51,77,62,75.79a9.43,9.43,0,0,0,1.07-3,.44.44,0,0,0-.75-.3A9.26,9.26,0,0,0,61,75.36c-.46,1.23-.79,2.46-1.13,3.73a.2.2,0,0,0,.36.15Z"/><path class="cls-3" d="M59.42,71.06a17.62,17.62,0,0,0,4.79,2.59c1.49.67,3.06,1.57,4.71,1.62a.46.46,0,0,0,.33-.78c-1.18-1.16-2.92-1.66-4.43-2.27a17.87,17.87,0,0,0-5.19-1.66.3.3,0,0,0-.21.5Z"/><path class="cls-10" d="M129.83,13.12c8.49-2.18,18.65-5.28,23.91,4.27.07.13.3,0,.25-.1-3.8-9.82-16.67-7.43-24.19-4.28-.06,0,0,.13,0,.11Z"/><path class="cls-10" d="M153.36,17.12a40.55,40.55,0,0,0,7.87.15.2.2,0,0,0,0-.39,40.55,40.55,0,0,0-7.87.13.06.06,0,0,0,0,.11Z"/><path class="cls-10" d="M160.29,17.64c.41,4.13.88,8.66-4.34,9.74-2.6.53-5.22.17-7.4,1.95-.2.16.08.44.28.28,2.94-2.45,7.42-.72,10.28-3.25,2.4-2.12,2-6,1.24-8.73a0,0,0,0,0-.06,0Z"/><path class="cls-10" d="M153.75,28a29.55,29.55,0,0,0-3.35-.77,13,13,0,0,0-3-.45.15.15,0,0,0,0,.3,15.83,15.83,0,0,0,3.37.66,29.54,29.54,0,0,0,3,.37.06.06,0,0,0,0-.11Z"/><path class="cls-10" d="M150.39,28.37c-2.43,1.52-5.17,3.35-8.15,3.07-3.65-.33-5.51-3.57-4.94-7a.15.15,0,0,0-.29-.08,5.85,5.85,0,0,0,3.06,7c3.62,1.67,7.56-.84,10.39-2.93.06-.05,0-.15-.07-.11Z"/><path class="cls-10" d="M131.76,13.8A25,25,0,0,0,115.22,12a.22.22,0,0,0,.06.42,48.73,48.73,0,0,1,16.43,1.56c.07,0,.13-.09,0-.13Z"/><path class="cls-10" d="M116.23,12.3a15.79,15.79,0,0,0,16.38,7.53.15.15,0,0,0,0-.3,17.81,17.81,0,0,1-16.15-7.34c-.08-.11-.26,0-.19.11Z"/><path class="cls-10" d="M121.17,15.38a23.48,23.48,0,0,1,11.73,2.06c.19.07.28-.21.13-.31a15.61,15.61,0,0,0-11.89-2c-.13,0-.11.25,0,.23Z"/><path class="cls-10" d="M134.18,11.68A20.59,20.59,0,0,0,120.3,9.49c-.44.08-.24.72.18.66a27,27,0,0,1,13.6,1.77c.15.06.23-.16.1-.24Z"/><path class="cls-10" d="M121.1,9.88c.51.46,1.05.9,1.59,1.33a9.78,9.78,0,0,0,1.53,1.11.19.19,0,0,0,.23-.29,10,10,0,0,0-1.5-1.16c-.56-.4-1.13-.79-1.73-1.15-.09-.06-.21.08-.12.16Z"/><path class="cls-10" d="M156.38,17.66c0,1.62,2.31,3.31,3.79,2.17a.19.19,0,0,0-.14-.34,2.76,2.76,0,0,1-2.13-.12,2.46,2.46,0,0,1-1.28-1.74c0-.14-.24-.1-.24,0Z"/><path class="cls-10" d="M158,17.65a1.2,1.2,0,0,0,.88,1.55.17.17,0,0,0,.17-.07.91.91,0,0,0-.84-1.26c-.68,0-.94.95-.2,1.07s.6-1,0-1-.56,1,.07,1c.16,0,.22-.27,0-.29a.28.28,0,0,1-.21-.33c.34.06.35.05.05-.06,0-.11.39-.07.42-.06.32.09.62.43.44.75l.17-.07a1,1,0,0,1-.82-1.21.07.07,0,0,0-.14,0Z"/><path class="cls-10" d="M155.8,28.7c1-.45,1.64.14,1.81,1.77l-2,.4c-.39-.12-.91-.76-1.18-1.09A9.79,9.79,0,0,0,153,28.19a2.07,2.07,0,0,0-2.69-.23c-.21.16.07.53.28.37,2.57-1.9,4.55,5.3,7.06,2.64a1.62,1.62,0,0,0-2-2.51.13.13,0,0,0,.1.24Z"/><path class="cls-10" d="M145,31.13c-1.17,2.18-2.16,4.46-3.2,6.7a39.64,39.64,0,0,0-2.54,6c0,.11.12.16.18.07,2.44-3.67,4.2-8.52,5.75-12.66.05-.11-.14-.18-.19-.08Z"/><path class="cls-10" d="M138.78,40a5.25,5.25,0,0,0-.43.81c-.06.16.17.23.26.11a5.8,5.8,0,0,0,.37-.8c.07-.13-.13-.25-.2-.12Z"/><path class="cls-10" d="M137.9,39.85c.55,7.38,3.35,15.34,1.27,22.61a.28.28,0,0,0,.54.15c2.24-6.9-.11-15.91-1.55-22.79a.13.13,0,0,0-.26,0Z"/><path class="cls-10" d="M132,63.54c12.5,6.92,24.66,3.31,36.83-2.31.34-.15,0-.65-.29-.49-12.13,5.6-23.73,8.93-36.31,2.4-.26-.13-.49.25-.23.4Z"/><path class="cls-10" d="M126.92,70.37c14.17,8.27,31.63.51,44.49-6.71.36-.2,0-.71-.32-.54-14.28,6.75-28.27,13.76-44,7-.15-.07-.29.14-.13.23Z"/><path class="cls-10" d="M140.69,59.14c8.18,4.33,18.48,2.78,25.95-2.29.37-.25,0-.86-.36-.61-8.12,5.21-16.51,5.42-25.52,2.73a.09.09,0,0,0-.07.17Z"/><path class="cls-10" d="M118.41,74.73C120.53,86,108.26,89.16,101,93.84a47.08,47.08,0,0,0-13.61,14,.14.14,0,0,0,.22.17c3.25-3.29,5.86-7.11,9.31-10.22,4.07-3.67,8.77-5.66,13.42-8.39,5.22-3.06,10.26-8.29,8.4-14.8a.18.18,0,0,0-.34.09Z"/><path class="cls-10" d="M99.85,65c-6.06-.32-11.69-3.08-14.45-8.72a17.76,17.76,0,0,1-1.54-8.63c0-1.26.56-2.87-.4-4-2-2.42-4,.27-4.68,2.3-4.39,13,8,25,20.22,24.89a.33.33,0,0,0,0-.66c-7.68,0-14.93-3.83-18.38-10.89A20,20,0,0,1,78.69,49q-.73-4.56,2.54-2.2c1.49-.21,2.17.07,2,.83.37.51-.1,3.07,0,3.77a15.62,15.62,0,0,0,16.6,13.82.12.12,0,0,0,0-.24Z"/><path class="cls-10" d="M93.73,71.2c-1.61,5.6,2.63,10.4.33,16.09-2.53,6.24-6.22,12.16-9.24,18.19-.13.26.26.49.4.23,3.14-6,6.78-12,9.36-18.21,2.39-5.79-1.82-10.39-.73-16.27,0-.07-.1-.11-.12,0Z"/><path class="cls-10" d="M123.36,78.27c-2.91,8.5-8.35,14.34-16.87,17.42-4.89,1.77-10,3.35-11.18,9.07,0,.21.28.3.32.09,1.76-8.33,13.19-8.39,19.1-13a23.89,23.89,0,0,0,8.81-13.56.09.09,0,1,0-.18,0Z"/><path class="cls-10" d="M56,67.14a31.38,31.38,0,0,0,.28,7.12c0,.22.34.14.36-.05a31.08,31.08,0,0,0-.36-7.07.14.14,0,0,0-.28,0Z"/><path class="cls-10" d="M49.75,70.29c.27,2.37.45,4.78.93,7.12,0,.22.4.17.4-.06,0-2.36-.4-4.72-.66-7.06,0-.43-.71-.43-.67,0Z"/><path class="cls-10" d="M167.53,60.47a9,9,0,0,0,3.89-2.21c1.09-.9,2.2-2,3.66-2.32a3,3,0,0,1,3.45,1.62,3.26,3.26,0,0,1-1.81,3.11c-2.23,1.37-5.59,1-6.86,3.69-.1.2.18.37.29.18,1.52-2.61,4.75-2.21,7-3.74,1.1-.75,2.1-2,1.67-3.37a3.08,3.08,0,0,0-3.27-1.88c-3.21.25-5.07,3.87-8.09,4.72-.13,0-.07.22.06.2Z"/><path class="cls-10" d="M164.76,57.9c2.42-4.44,7.22-5.65,11.51-3,.23.15.43-.2.21-.36a7.9,7.9,0,0,0-11.86,3.32c0,.1.09.18.14.09Z"/><path class="cls-10" d="M139.22,60.08c-.71,1.8-1.49,3.62-2,5.48,0,.17.22.29.29.12.79-1.78,1.37-3.69,2-5.53.05-.16-.19-.22-.25-.07Z"/><path class="cls-10" d="M133.41,65.18c-.06-1.24-.15-2.48-.25-3.72l-.27,0c.36,1,.72,2,1.1,2.94.07.19.36.11.29-.08-.37-1-.75-1.95-1.13-2.93-.05-.13-.28-.13-.26,0q.17,1.86.39,3.72c0,.08.14.08.13,0Z"/><path class="cls-10" d="M116,76.65A15.41,15.41,0,0,0,106.34,82c-.12.14,0,.37.2.26,2-1.21,4.07-2.34,6.06-3.59a.08.08,0,0,0-.08-.13c-1.35.71-2.67,1.49-4,2.24-.24.14-1.53,1-1.57,1,.16,0,1.13-1.14,1.26-1.25a16.21,16.21,0,0,1,7.84-3.7c.1,0,.06-.18,0-.16Z"/><path class="cls-10" d="M98.74,99.32a16.74,16.74,0,0,0-3.89,11.15.11.11,0,0,0,.21,0,25.64,25.64,0,0,1,3.81-11c0-.08-.07-.18-.13-.1Z"/><path class="cls-10" d="M92.93,108.18a35.71,35.71,0,0,0-.06,3.73.13.13,0,0,0,.26,0,35.67,35.67,0,0,0,.07-3.73.14.14,0,0,0-.27,0Z"/><path class="cls-10" d="M92,110a2.09,2.09,0,0,1-2.54,1.46,2.72,2.72,0,0,1-1.8-2.82c0-2.17,1.76-3.61,3.14-5a.18.18,0,0,0-.26-.26c-2,1.64-4.55,4.74-2.68,7.4,1.1,1.57,4,1.42,4.35-.68,0-.14-.18-.2-.21-.06Z"/><path class="cls-10" d="M88.71,104c.84,3.09-.65,5.84-3,7.68-.13.1-.06.38.13.3,3.07-1.26,4.13-5.1,3-8a.06.06,0,1,0-.12,0Z"/><path class="cls-10" d="M86.18,108.76a2.92,2.92,0,0,1-1.6,2.62,3.59,3.59,0,0,1-2.89,0,.17.17,0,0,0-.16.28c.79,1,2.46.54,3.35,0a3,3,0,0,0,1.53-2.94c0-.13-.23-.1-.23,0Z"/><path class="cls-10" d="M82.65,109.36a2.2,2.2,0,0,1-3.13,1.58,2.26,2.26,0,0,1-.83-3.29c1.21-2.09,3.65-2,5.73-2.21a.19.19,0,0,0,0-.37c-2.57-.18-7.16.85-6.6,4.39.46,2.86,4.47,2.67,5-.06a.08.08,0,0,0-.15,0Z"/><path class="cls-10" d="M176.56,57.91c-.58.25-1.18.46-1.76.71a3.91,3.91,0,0,0-1.45.81c-.08.09,0,.26.1.25a3.67,3.67,0,0,0,1.49-.57c.59-.32,1.16-.67,1.75-1,.16-.08,0-.3-.13-.23Z"/><path class="cls-10" d="M177.84,58.82c-.94.37-1.9.71-2.8,1.17-.17.09,0,.38.13.32,1-.33,1.86-.8,2.78-1.22.16-.07.05-.34-.11-.27Z"/><path class="cls-10" d="M122.57,80.17a41.35,41.35,0,0,0,0-5.89c0-.07-.11-.07-.11,0a41.35,41.35,0,0,0,0,5.89.07.07,0,0,0,.14,0Z"/><path class="cls-10" d="M121.81,75.86c-.3,1.57-.59,3.13-.85,4.7,0,.08.11.11.12,0,.29-1.57.54-3.15.78-4.72a0,0,0,1,0,0,0Z"/><path class="cls-10" d="M130.36,40.9h0s0,0,0,0Z"/><path class="cls-10" d="M129.56,39.46c-7.23,1.66-9.7,9-13.78,14.27-3.49,4.54-8,5.46-13,7.5a11.57,11.57,0,0,0-6.28,5.15c-.09.14.13.27.22.13,4.12-6.48,12.89-5.48,18-10.88s6.91-13.69,14.94-16a.09.09,0,0,0-.05-.18Z"/><path class="cls-10" d="M129.6,20.47c0-.13,0-.26,0-.39h0c0,.13,0,.26,0,.39a0,0,0,1,0,.06,0Z"/><path class="cls-10" d="M128.78,20.24c-1,2.51,0,4.44.87,6.9A16.08,16.08,0,0,1,129,39.61c0,.1.1.19.15.09A15,15,0,0,0,130.92,32c-.17-4-3.15-7.68-2.08-11.7,0,0,0-.05-.06,0Z"/><path class="cls-10" d="M144.9,11.82c-3.93,0-6.21,4.33-4.77,7.78,1.35,3.22,5.18,5.18,8.42,3.52,3.07-1.58,4.74-5.73,2.87-8.81a6.65,6.65,0,0,0-8.93-2.16.15.15,0,0,0,.16.26,6.5,6.5,0,0,1,7.8,1.19c2.32,2.47,1.57,6.28-.83,8.41-2.82,2.51-6.84,1.33-8.75-1.66a5.51,5.51,0,0,1,4-8.43c.06,0,0-.1,0-.1Z"/><path class="cls-10" d="M144.89,15.9a1.5,1.5,0,0,0-.86,2.32,1.59,1.59,0,0,0,2.53-.35,1.62,1.62,0,0,0-1.7-2.18c-.93.15-1.87,1.65-1.06,2.42A.1.1,0,0,0,144,18c-.12-.74-.15-1.56.67-1.94a1.26,1.26,0,1,1-.4,2,1.32,1.32,0,0,1,.7-2,.08.08,0,0,0,0-.16Z"/><path class="cls-10" d="M157.74,17.73c0,.37,0,.74,0,1.11,0,.07,0,.11.11.14l1.11.44a.15.15,0,0,0,.17,0,1.51,1.51,0,0,0,.31-1.77.2.2,0,0,0-.21-.08,1.17,1.17,0,0,1-1.5-.6.16.16,0,0,0-.29.12,1.41,1.41,0,0,0,1.93.81l-.25-.07a1.06,1.06,0,0,1,.11.76c0,.14-.11.44-.25.5s-.35-.1-.41-.12l-.65-.24.11.15c0-.38-.07-.74-.11-1.11,0-.13-.21-.14-.21,0Z"/><path class="cls-10" d="M157.49,17a1.34,1.34,0,0,0,1.18,2.12.14.14,0,0,0,0-.26,1.29,1.29,0,0,1-1-1.78.08.08,0,1,0-.14-.08Z"/><path class="cls-10" d="M159.71,16.94c0,.52,0,1,0,1.57a.14.14,0,0,0,.28,0c0-.52,0-1.05,0-1.57a.1.1,0,0,0-.2,0Z"/><path class="cls-10" d="M160.21,16.93a16.82,16.82,0,0,0-.39,2c0,.16.24.19.28,0a19.34,19.34,0,0,0,.24-2c0-.07-.12-.09-.13,0Z"/><path class="cls-10" d="M160.51,16.94a1.83,1.83,0,0,1-1.15,1.47c-.1.05,0,.21.08.18a1.68,1.68,0,0,0,1.27-1.65c0-.13-.18-.12-.2,0Z"/><path class="cls-10" d="M158.3,17.67l-.39-.4c-.08-.09-.21,0-.13.13l.4.38a.08.08,0,0,0,.12-.11Z"/><path class="cls-10" d="M139.91,11.88c2-4,5.91-4.26,8.92-1.21a.1.1,0,0,0,.15-.12c-2-3.8-8.15-2.73-9.14,1.3a0,0,0,0,0,.07,0Z"/><path class="cls-10" d="M148.38,11.33a3.65,3.65,0,0,1,3.87,1.34,3.73,3.73,0,0,1-.13,4.1c-.07.11.09.24.17.14,2.37-2.78-.63-6.75-3.95-5.74a.08.08,0,0,0,0,.16Z"/><path class="cls-10" d="M128.64,71.34c-4.11-3.17-10.68-.06-10.35,5.3,0,.12.21.17.23,0,.79-5.1,5.36-7.75,10.06-5.24a.05.05,0,0,0,.06-.09Z"/><path class="cls-10" d="M120.5,71.94A10.3,10.3,0,0,1,122,79c0,.09.13.1.15,0a8.58,8.58,0,0,0-1.55-7.14c-.05-.07-.17,0-.12.07Z"/><path class="cls-10" d="M120.78,72.36a37.72,37.72,0,0,1,1.69,10.17.07.07,0,0,0,.14,0A24,24,0,0,0,121,72.31c0-.11-.22-.06-.18,0Z"/><path class="cls-10" d="M121.69,78.2c-.27,1.31-.56,2.61-.79,3.92,0,0,0,.07.06,0,.29-1.3.53-2.61.79-3.93,0,0-.06,0-.06,0Z"/><path class="cls-10" d="M65.78,10.3C88.56,8.69,102.44,32.69,124.59,34c.32,0,.31-.48,0-.5C102.47,32.19,88.59,8.2,65.78,9.8c-.32,0-.32.52,0,.5Z"/><path class="cls-10" d="M141.76,38.85c6.13,7.07-2.58,13.36-8.81,14.85a37.55,37.55,0,0,1-15.9-.06c-9.06-1.8-17.44-6-25.6-10.17C78.45,36.81,64.73,30,49.7,32.3c-.31.05-.18.53.13.48,23.52-3.69,42.08,14.7,63.56,20.5,7.83,2.12,17.49,3,24.9-1,5.09-2.76,8-9,3.82-13.79-.21-.24-.56.11-.35.35Z"/><path class="cls-10" d="M63.76,19c12-4.91,21.83,5.39,31.35,11a68.48,68.48,0,0,0,26.68,8.91c.31,0,.31-.46,0-.5C109.42,36.89,98.62,32.1,88.48,25c-7.34-5.13-15.75-10.22-24.86-6.51-.29.12-.16.6.14.48Z"/><path class="cls-10" d="M141.65,41c7.26,3.12,5.61,12,.31,16.09-4.86,3.72-11.26,4-17.15,4.24-5.5.17-11.11,0-16.42-1.6s-10-4.69-14.82-7.49A73.7,73.7,0,0,0,42.8,43.09c-.31,0-.18.53.14.47A72.72,72.72,0,0,1,81.88,47C93,51.31,102.16,59.87,114.29,61.44c8.79,1.14,22.06,1.69,29.08-4.84,4.92-4.58,5.38-13.11-1.47-16.06-.29-.13-.54.3-.25.43Z"/><path class="cls-10" d="M115.34,56.93A36.2,36.2,0,0,0,137.5,55.7c.3-.11.17-.59-.13-.48a35.6,35.6,0,0,1-21.9,1.23.25.25,0,0,0-.13.48Z"/><path class="cls-10" d="M144.26,48a5.3,5.3,0,0,1-1.52,4.14c-.22.23.13.58.35.35A5.77,5.77,0,0,0,144.75,48c0-.31-.51-.31-.49,0Z"/><path class="cls-10" d="M139.22,43.36l2.38,5.09c.14.29.56,0,.43-.25l-2.38-5.1c-.13-.28-.56,0-.43.26Z"/><path class="cls-10" d="M72.57,13.06a25.65,25.65,0,0,1,8.09,5.66c.22.23.57-.12.35-.35a26,26,0,0,0-8.19-5.74c-.29-.12-.54.3-.25.43Z"/><path class="cls-10" d="M59,37.71a24.21,24.21,0,0,1,14.82,2c.29.14.54-.29.25-.43a24.75,24.75,0,0,0-15.2-2.05c-.32.06-.19.54.13.48Z"/><path class="cls-10" d="M65.72,10.44l-7.29,5.47c-.79.6-3.73,2-3.55,3.41.35,2.63,8.32-.24,9.55-.63.3-.1.17-.58-.14-.48a39.71,39.71,0,0,1-4.44,1.17c-.71.13-2.27.66-3,.44-1.61-.51,0-2.12.81-2.73L66,10.87c.25-.19,0-.62-.25-.43Z"/><path class="cls-10" d="M48.5,32.09A49.84,49.84,0,0,1,34.11,42.23c-.22.1-.12.39,0,.45a17.54,17.54,0,0,0,9.48.89c.32,0,.19-.53-.13-.48-1.77.31-6.33.91-7.87-.41-.87-.74.48-.86,1.37-1.33s1.73-1,2.57-1.48a49.56,49.56,0,0,0,9.27-7.43c.22-.23-.13-.58-.35-.35Z"/><path class="cls-10" d="M57.37,46.22a21.88,21.88,0,0,1,10.82,1c.3.1.43-.38.13-.48a22.2,22.2,0,0,0-11.08-.94c-.32,0-.18.53.13.47Z"/><path class="cls-10" d="M59.27,49.39h5.89a.25.25,0,0,0,0-.49H59.27a.25.25,0,0,0,0,.49Z"/><path class="cls-10" d="M65.16,6.88l6.28-.36c.32,0,.32-.51,0-.49l-6.28.36c-.32,0-.32.51,0,.49Z"/><path class="cls-10" d="M62.93,5a10.88,10.88,0,0,1,8.91-.53c.3.11.43-.37.13-.48a11.38,11.38,0,0,0-9.29.58c-.28.14,0,.57.25.43Z"/><path class="cls-10" d="M50.81,18.64a15.42,15.42,0,0,0,4.41,5.19c.25.19.5-.24.25-.43a14.81,14.81,0,0,1-4.23-5c-.15-.29-.58,0-.43.25Z"/><path class="cls-10" d="M48.45,18.64l2.36,4.71c.14.28.57,0,.43-.25l-2.36-4.71c-.14-.29-.57,0-.43.25Z"/><path class="cls-10" d="M30.51,38.38A4.87,4.87,0,0,0,30,45.84c.24.21.59-.14.35-.35a4.39,4.39,0,0,1,.42-6.69c.26-.18,0-.61-.25-.42Z"/><path class="cls-10" d="M27.68,37.47a7.16,7.16,0,0,0-1.6,9.82c.18.26.61,0,.43-.25a6.66,6.66,0,0,1,1.42-9.14c.25-.19,0-.62-.25-.43Z"/><path class="cls-10" d="M25.66,75.46l1.23,39.27c0,.32.51.32.5,0L26.16,75.46c0-.32-.51-.32-.5,0Z"/><path class="cls-10" d="M45.26,24,46,31.87c0,.31.53.31.5,0L45.76,24c0-.31-.53-.32-.5,0Z"/><path class="cls-10" d="M46.26,43.65V66.82a.25.25,0,0,0,.5,0V43.65a.25.25,0,0,0-.5,0Z"/><path class="cls-10" d="M25.16,75.93c-5.37.1-4.2,6.55-4.06,10.28l1,27.34c0,.32.51.32.5,0L22,96c-.13-3.48-2.7-19.43,3.21-19.54a.25.25,0,0,0,0-.5Z"/><path class="cls-10" d="M45.17,24.49a4.54,4.54,0,0,1,5.11,4.93c0,.31.44.45.48.13A5,5,0,0,0,45,24c-.31.06-.18.53.14.48Z"/><path class="cls-10" d="M50.23,42.86l-.77,22c0,.32.49.32.5,0l.77-22c0-.32-.49-.32-.5,0Z"/><path class="cls-10" d="M45.72,66.61a3.05,3.05,0,0,0,4.64,0c.2-.24-.15-.6-.35-.35a2.56,2.56,0,0,1-3.94.05c-.2-.24-.55.11-.35.35Z"/><path class="cls-10" d="M20.66,114.16a12,12,0,0,0,7.19,2.39.25.25,0,0,0,0-.5,11.52,11.52,0,0,1-6.94-2.32c-.26-.19-.5.24-.25.43Z"/><path class="cls-10" d="M26.69,110.78A188.68,188.68,0,0,0,50.15,67.93c.11-.29-.37-.42-.48-.13a187.9,187.9,0,0,1-23.41,42.73c-.19.26.24.5.43.25Z"/><path class="cls-10" d="M37.67,114.19a51.39,51.39,0,0,1,16.82,2,.25.25,0,0,0,.13-.48,51.6,51.6,0,0,0-16.95-2c-.32,0-.32.51,0,.49Z"/><path class="cls-10" d="M38.7,113.69l5.13-9.41c.15-.28-.28-.53-.43-.25l-5.13,9.41c-.15.28.28.54.43.25Z"/><path class="cls-10" d="M44.56,115.33l4.71-5.9c.2-.24-.15-.6-.35-.35L44.21,115c-.19.25.16.6.35.35Z"/><path class="cls-10" d="M45.46,102l9,3.53c.3.12.43-.36.13-.47l-9-3.54c-.3-.12-.42.36-.13.48Z"/><path class="cls-10" d="M42.78,100.84a.25.25,0,0,0,0-.5.25.25,0,0,0,0,.5Z"/><path class="cls-10" d="M47.44,98.3l8.13,4.16c.28.14.53-.28.25-.43l-8.13-4.16c-.28-.15-.53.28-.25.43Z"/><path class="cls-10" d="M47.1,97l9.82-.4c.32,0,.32-.51,0-.49l-9.82.39c-.32,0-.32.51,0,.5Z"/><path class="cls-10" d="M58.26,96,50,91.64c-.28-.15-.53.28-.25.43L58,96.4c.28.15.54-.28.25-.43Z"/><path class="cls-10" d="M51.74,87.09l6.68,2.35c.3.11.43-.37.13-.48l-6.67-2.35c-.31-.11-.44.37-.14.48Z"/><path class="cls-10" d="M48.67,85.92a.25.25,0,0,0,0-.5.25.25,0,0,0,0,.5Z"/><path class="cls-10" d="M54,79.19a2.09,2.09,0,0,0,.5,3.56c1.2.62,2.57.34,3.85.34,3.14,0,3.91,2.24,4.07,4.93,0,.32.52.32.5,0-.11-1.74-.32-3.89-2-4.9a5.18,5.18,0,0,0-2.9-.52,14.31,14.31,0,0,1-2.07,0c-1.29-.14-3.49-1.79-1.74-3,.26-.19,0-.62-.25-.43Z"/><path class="cls-11" d="M128.13,70.91a42.24,42.24,0,0,0-5.07-2.78.13.13,0,0,0-.13.23A39.61,39.61,0,0,0,128.08,71c.06,0,.11,0,0-.08Z"/><path class="cls-11" d="M126.37,70.27a18.23,18.23,0,0,0-3-2.18c-.15-.09-.33.13-.19.24a19.72,19.72,0,0,0,3.09,2c.06,0,.14-.06.08-.11Z"/><path class="cls-11" d="M123.62,69.38a34.31,34.31,0,0,0-5.13-.67.14.14,0,0,0,0,.27,34.2,34.2,0,0,0,5.15.54c.08,0,.1-.13,0-.14Z"/><path class="cls-11" d="M123.9,70.24a11.58,11.58,0,0,0-8.83,4.21c-.12.15.08.37.22.22a12.86,12.86,0,0,1,8.61-4.26c.1,0,.1-.17,0-.17Z"/><path class="cls-11" d="M122.67,70.54c-2.83.66-5.91,2.69-7.06,5.45,0,.12.13.22.21.13a20.06,20.06,0,0,1,2.69-3.06,13.12,13.12,0,0,1,4.23-2.27.13.13,0,0,0-.07-.25Z"/><path class="cls-11" d="M121.45,70.87a17,17,0,0,0-6.65,5.74c-.07.11.09.24.17.14A22.14,22.14,0,0,1,121.53,71a.08.08,0,0,0-.08-.14Z"/><path class="cls-11" d="M119,72.4a10.16,10.16,0,0,0-2.1,7.26c0,.13.21.14.21,0a11.64,11.64,0,0,1,2.06-7.16c.08-.11-.1-.2-.17-.1Z"/><path class="cls-11" d="M119,73a7.63,7.63,0,0,0-1.55,5.14.12.12,0,0,0,.23,0,10.53,10.53,0,0,1,1.46-5.07c0-.08-.08-.15-.14-.07Z"/><path class="cls-11" d="M118.1,73.3c-.4.8-.89,1.6-1.21,2.43,0,.11.12.17.18.08a22.38,22.38,0,0,0,1.2-2.4c.06-.12-.11-.22-.17-.11Z"/><path class="cls-11" d="M124.84,70.28a9.69,9.69,0,0,0-5.14-1.91.11.11,0,0,0,0,.22,17.05,17.05,0,0,1,5.06,1.87c.12.08.22-.1.11-.18Z"/><path class="cls-11" d="M123,69.91a24.79,24.79,0,0,0-3-.91c-.15,0-.29.21-.12.28a26.73,26.73,0,0,0,3,.91c.18.06.26-.23.08-.28Z"/><path class="cls-11" d="M125.2,69.39c-.3-.5-.59-1-.93-1.49a.12.12,0,0,0-.21.13c.25.52.55,1,.85,1.53.1.19.4,0,.29-.17Z"/><path class="cls-11" d="M125.27,69.1l-.33-.89c-.06-.17-.33-.11-.28.07l.28.91c.06.22.4.12.33-.09Z"/><path class="cls-11" d="M139.79,59.52c-.18.73-.21,1.48-.44,2.2A11.93,11.93,0,0,1,138.22,64c-.07.11.1.26.19.15a6.28,6.28,0,0,0,1.46-4.61,0,0,0,0,0-.08,0Z"/><path class="cls-11" d="M139.76,61c-1.13,1.68-2.31,3.35-3.36,5.08-.1.16.14.3.25.15,1.14-1.68,2.18-3.43,3.25-5.15,0-.09-.09-.16-.14-.08Z"/><path class="cls-11" d="M55.64,76.82a45.81,45.81,0,0,0,9.59,2.79c.16,0,.31-.22.13-.3a45,45,0,0,0-9.64-2.78.15.15,0,0,0-.08.29Z"/><path class="cls-11" d="M61.29,77.86a11.81,11.81,0,0,1,.89-5.35c.08-.22-.25-.35-.36-.16a8.55,8.55,0,0,0-.92,5.57c0,.22.41.17.39-.06Z"/><path class="cls-11" d="M59.52,71.2a75,75,0,0,0,9.89,2.5.28.28,0,0,0,.15-.53,75.84,75.84,0,0,0-10-2.29.17.17,0,0,0-.09.32Z"/><path class="cls-11" d="M74.24,72.13C69.52,87.21,65,102.38,60.67,117.59a.2.2,0,0,0,.39.11c4.7-15.08,9.13-30.3,13.39-45.51,0-.13-.16-.19-.21-.06Z"/><path class="cls-11" d="M76.22,73.68c-4.07,14.64-7.53,29.56-11,44.36a.22.22,0,0,0,.43.12c3.77-14.73,7.57-29.56,10.72-44.43,0-.12-.15-.17-.18,0Z"/><path class="cls-11" d="M62.59,112.83a17.8,17.8,0,0,0,3,0,.14.14,0,0,0,0-.28,18.91,18.91,0,0,0-3,0c-.13,0-.13.2,0,.21Z"/><path class="cls-11" d="M64.67,104.75a11.72,11.72,0,0,0,3.33.39c.19,0,.26-.31,0-.36a12.22,12.22,0,0,0-3.36-.2c-.09,0-.12.15,0,.17Z"/><path class="cls-11" d="M66.73,96.32a2.62,2.62,0,0,0,3.47-.67.1.1,0,0,0-.13-.13,3.2,3.2,0,0,1-3.19.54c-.18-.07-.33.17-.15.26Z"/><path class="cls-11" d="M69.16,90.34a13.51,13.51,0,0,0,2.73.7c.19,0,.19-.26,0-.32a13,13,0,0,0-2.7-.61.12.12,0,0,0-.07.23Z"/><path class="cls-11" d="M71,83.67a18.12,18.12,0,0,0,2.44-.21c.12,0,.09-.21,0-.21a19.79,19.79,0,0,0-2.42.32s0,.1,0,.1Z"/><path class="cls-11" d="M73.17,76.59a10.93,10.93,0,0,0,1.8-.31.17.17,0,0,0,0-.34,10.65,10.65,0,0,0-1.85.3c-.23,0-.13.38.1.35Z"/></svg>