<svg xmlns="http://www.w3.org/2000/svg" viewBox="0 0 198.43 34.14"><defs><style>.cls-1,.cls-2{font-size:132.35px;font-family:UDDigiKyokashoN-R, UD Digi Kyokasho N-R;}.cls-1{fill:none;stroke:#010101;stroke-miterlimit:10;stroke-width:0.5px;}.cls-2{opacity:0.75;fill:#010101;}.cls-3{fill:#6e6e6e;}.cls-4{fill:#fff;}</style></defs><g id="Hiragana"><text class="cls-1" transform="translate(43.93 -26.33)">か</text><text class="cls-2" transform="translate(43.6 -26.39)">か</text></g><g id="carracters"><path d="M131.48,27.57l-1.92-1.47a35.71,35.71,0,0,0,5.27-12.32A32.71,32.71,0,0,0,130.6,15a.93.93,0,0,1,0-.14c0-.83,0-1.66,0-2.49,0-.14,0-.2.18-.22,1.49-.23,3-.48,4.46-.72.15,0,.19-.09.2-.22.09-.8.19-1.6.28-2.4.12-1,.24-2,.37-3l2.48.34-.77,5c.49,0,.95-.06,1.42-.07a6.51,6.51,0,0,1,2,.25,3.5,3.5,0,0,1,2.15,1.85,6.67,6.67,0,0,1,.72,2.55,18.92,18.92,0,0,1-.64,7.14,6.85,6.85,0,0,1-2.12,3.56,4.88,4.88,0,0,1-2.91,1.15l-1.56.09c-.07,0-.19-.05-.2-.1-.26-.77-.5-1.54-.75-2.34h.52l1.15.07a3.13,3.13,0,0,0,2.2-.81,5,5,0,0,0,1.55-2.54,11.65,11.65,0,0,0,.51-3.41c0-1,0-1.91-.06-2.85a2.34,2.34,0,0,0-1.37-2.13,4.31,4.31,0,0,0-.88-.19,4.15,4.15,0,0,0-2,.05.22.22,0,0,0-.18.19,36.72,36.72,0,0,1-3.11,9.22,44.76,44.76,0,0,1-2.54,4.53C131.59,27.42,131.54,27.48,131.48,27.57Z"/><path d="M170.76,13.76A35.2,35.2,0,0,0,166.51,15V12.18l1.21-.21,3.44-.55c.12,0,.17-.06.19-.2.19-1.6.38-3.2.58-4.8,0-.2,0-.39.07-.63l2.48.33-.77,5c.48,0,.95-.09,1.42-.09a6.36,6.36,0,0,1,2.16.32A3.42,3.42,0,0,1,179.15,13a6.67,6.67,0,0,1,.8,2.6,19.06,19.06,0,0,1-.65,7.32,6.81,6.81,0,0,1-2.12,3.5,5,5,0,0,1-3,1.14l-1.45.09c-.13,0-.19,0-.24-.16-.22-.72-.45-1.43-.68-2.15a1.16,1.16,0,0,1,0-.16c.35,0,.69,0,1,.06a3.58,3.58,0,0,0,3.77-1.88,6.3,6.3,0,0,0,.74-1.87,15.53,15.53,0,0,0,.41-4.19,8.39,8.39,0,0,0-.18-2.18,2.2,2.2,0,0,0-1.25-1.57,4.44,4.44,0,0,0-1-.21c-.2,0-.39,0-.59-.08a3.6,3.6,0,0,0-1.42.17c-.05,0-.1.14-.12.23-.2.83-.37,1.67-.59,2.5a40.56,40.56,0,0,1-5.11,11.25l-.06.09-.06,0-1.89-1.45A35.88,35.88,0,0,0,170.76,13.76Z"/><path d="M188.16,22.05l-2.27.57A37.24,37.24,0,0,0,180.6,11.4l2.06-1.25A37.2,37.2,0,0,1,188.16,22.05Z"/><path class="cls-3" d="M152.43,22.32l-2.27.57a37.27,37.27,0,0,0-5.28-11.21l2.05-1.25A37.15,37.15,0,0,1,152.43,22.32Z"/><path class="cls-3" d="M100.27,14.31A33.51,33.51,0,0,0,96,15.55V12.73l1.21-.2,3.44-.56a.19.19,0,0,0,.19-.19c.19-1.61.38-3.21.58-4.81,0-.19,0-.39.07-.63l2.48.34-.77,5c.48,0,1-.09,1.42-.09a6.9,6.9,0,0,1,2.16.32,3.44,3.44,0,0,1,1.86,1.64,6.58,6.58,0,0,1,.8,2.59,19,19,0,0,1-.65,7.32A6.79,6.79,0,0,1,106.68,27a5,5,0,0,1-3,1.14c-.48,0-1,.05-1.45.09-.13,0-.19,0-.24-.16-.22-.72-.45-1.44-.68-2.15,0-.05,0-.09,0-.16.35,0,.69,0,1,.05a3.58,3.58,0,0,0,3.77-1.88,6.35,6.35,0,0,0,.74-1.86,16,16,0,0,0,.41-4.2,8.42,8.42,0,0,0-.18-2.18,2.2,2.2,0,0,0-1.25-1.57,5.06,5.06,0,0,0-1-.21c-.19,0-.39,0-.58-.08a3.6,3.6,0,0,0-1.42.17s-.1.15-.12.23c-.2.83-.37,1.68-.6,2.5A40.12,40.12,0,0,1,97,28l-.06.1-.06,0L95,26.63A35.71,35.71,0,0,0,100.27,14.31Z"/><path d="M96.16,15.6V12.78l2-.33c.87-.15,1.75-.3,2.63-.42.65-.09,1.3-.15,2-.21s1.44-.15,2.16-.16a5.06,5.06,0,0,1,2.33.46,4,4,0,0,1,2,2.49,10.48,10.48,0,0,1,.46,3.19,19.44,19.44,0,0,1-.86,6.06,7.2,7.2,0,0,1-1.57,2.75,4.78,4.78,0,0,1-2.89,1.49c-.68.09-1.36.11-2,.15a.2.2,0,0,1-.18-.1c-.26-.77-.5-1.55-.75-2.34H102l1.13.07a3.16,3.16,0,0,0,2.14-.78,5.09,5.09,0,0,0,1.59-2.58,11.93,11.93,0,0,0,.5-3.41c0-.95,0-1.9-.06-2.85a2.31,2.31,0,0,0-1.48-2.17,10,10,0,0,0-1.24-.21,5.39,5.39,0,0,0-1.88.14c-1,.15-2,.26-2.9.49-1.16.29-2.29.68-3.43,1Z"/><path class="cls-3" d="M117.67,22.6l-2.27.57A37.19,37.19,0,0,0,110.11,12l2.06-1.26A37.3,37.3,0,0,1,117.67,22.6Z"/><path class="cls-4" d="M21,13.42a35.2,35.2,0,0,0-4.25,1.23V11.84L18,11.63l3.44-.55a.2.2,0,0,0,.19-.2c.19-1.6.38-3.2.58-4.8,0-.2,0-.39.06-.63l2.49.33-.78,5c.49,0,1-.09,1.43-.09a6.36,6.36,0,0,1,2.16.32,3.46,3.46,0,0,1,1.86,1.63,6.66,6.66,0,0,1,.79,2.6,18.86,18.86,0,0,1-.64,7.32,6.76,6.76,0,0,1-2.13,3.5,4.94,4.94,0,0,1-3,1.14L23,27.3c-.13,0-.2,0-.24-.16-.22-.72-.45-1.43-.68-2.15a.5.5,0,0,1,0-.16c.35,0,.69,0,1,.06A3.58,3.58,0,0,0,26.82,23a6.58,6.58,0,0,0,.74-1.87A16,16,0,0,0,28,17a8.84,8.84,0,0,0-.18-2.18,2.2,2.2,0,0,0-1.25-1.57,4.41,4.41,0,0,0-1-.21c-.19,0-.39,0-.58-.08a3.6,3.6,0,0,0-1.42.17c-.06,0-.11.14-.13.23-.2.83-.36,1.67-.59,2.5a40.25,40.25,0,0,1-5.1,11.25l-.07.09s0,0-.05,0l-1.9-1.45A35.71,35.71,0,0,0,21,13.42Z"/><path class="cls-4" d="M38.4,21.71l-2.28.57a37,37,0,0,0-5.28-11.22l2.05-1.25A37.23,37.23,0,0,1,38.4,21.71Z"/><path d="M111,17.25a1.69,1.69,0,0,1,.31-.09.35.35,0,0,1,.14.06c0,.05,0,.12-.08.13-.21.07-.42.12-.64.18l-.32-.79c.36-.1.23.3.41.36a6,6,0,0,0-.53-4.59,3.61,3.61,0,0,0-3.2-1.8h-.34s-.08-.06-.12-.09.08-.11.12-.11a7.46,7.46,0,0,1,1,.05A4,4,0,0,1,111,13.83a6.5,6.5,0,0,1,0,3.25S111,17.16,111,17.25Z"/><path d="M139.37,8.68l.33-.22.12.15-.63.46-.57-.64.15-.14.39.42.53-3.37c.22,0,.19.1.17.21l-.24,1.54C139.54,7.61,139.46,8.13,139.37,8.68Z"/><path d="M184.9,11.69c.13-.33.39-.08.56-.22L183.4,8.8l.16-.12,2.05,2.64.09-.45c.08.09.16.14.15.19,0,.22,0,.43-.07.68Z"/><path d="M96,11.45l3.3-.51L99,10.69l.12-.16.63.46-.44.72-.17-.1.28-.48-2.14.33-1.11.17C96,11.66,96,11.59,96,11.45Z"/></g></svg>