<svg id="illustration" xmlns="http://www.w3.org/2000/svg" viewBox="0 0 198.43 144.07"><defs><style>.cls-1{fill:#8a1f1b;}.cls-2{fill:#231f20;}.cls-3{fill:#7a54a3;}.cls-4{fill:#fee000;}.cls-5{fill:#fff;}.cls-6{fill:#ab284d;}.cls-7{fill:#00bff3;}.cls-8{fill:#fff689;}.cls-9{fill:#010101;}</style></defs><path class="cls-1" d="M88.5,18s.55,2.67,1.19,3.2.4,1.84.4,1.84.67,3.19.28,4.36c-.2,1.26-.93,3.87-.93,3.87l-1.39,2.67-.89,2-1.68,2.48L83.89,41l-1.42,1.76-.68,1-2.33,4-1.85,3.65L77.2,53l-.75,2.32-.39,3,.2,2.52L77,63.29l1.14,2A8,8,0,0,0,78,67.56c.12.9.61,5.45.61,5.45l.81,11.42-.15,9.85.42.67-1.33,1.58L76.8,98.6,75,102.47l-1.14,5.21.08,5.63,1.57,6.35,3.11,6.66,3.94,6.14s8.92,3.76,17,3.93,18.16-3.6,20.24-4.57c2.12-2.78,4.06-9.86,4.06-9.86l.8-6.22V110l-1.21-6.72-1.68-4.5-2.32-4.34-1.91-2.64L117.22,83l-.29-10.53L116.71,65l-.57.22,1.86-3,.88-2,.24-4.44-.65-3.55-2.19-4.88L116.1,44,112,39.88l-3-3.27-2.65-4.28L105,28.9l-.82-3.66,0-3.72.7-2.62-.52-2-2.17-1.06L98,15.48l-2.58.25-1.49,0-1.6.42-1.52.4-1.53.76Z"/><path class="cls-2" d="M92,18.42a18.84,18.84,0,0,0,6.77.48c4.46-.31,2.16-1.77,2.16-1.77s-.84-.79-3.69-.56S92.89,17.22,92,18.42Z"/><path class="cls-3" d="M78.11,66.9A70.71,70.71,0,0,0,89,69.34a92,92,0,0,0,11.16.07l4.4-.67,5.9-1.49,5.32-2,.94-.47.07,2.59.65,15.1.11,9.36-.43.56-2,1-9.2,3.25-5.42.9-5.5.12-4.18-.2-4.8-.7-2.61-.59-2.49-.73-1.79-.84.29-11-.49-9.19L78,68.27S77.61,67.18,78.11,66.9Z"/><path class="cls-4" d="M107,69.15a3,3,0,0,0,1.38,1.94l.56.25,1-.1.91-.31-.23.72-.35.59-.46.55.64,1.37.7,1.53L110,75.46l-2-.61-1.39,1.49-1.36,1.49-.65.51,1.15-4.41-.88-.58-.68-1.11.83-.06.83-.44.77-.73.37-.7Z"/><polygon class="cls-4" points="82.22 68.07 82.77 68.86 80.7 73.84 83.78 71.07 85.42 71.9 87.03 72.55 88.22 72.58 87.77 71.34 87.29 70.02 86.89 68.9 82.22 68.07"/><polygon class="cls-4" points="89.34 87.53 91.23 89.06 93.06 89.29 91.36 90.65 92.33 93.45 91.23 93.12 89.88 91.98 87.81 93.79 88.61 91.54 85.76 90.17 85.52 89.94 88.61 89.5 89.34 87.53"/><polygon class="cls-4" points="117.08 87.65 116.93 87.58 113.6 86.05 113.96 89.7 110.64 91.99 112.63 92.09 114.11 91.68 115.02 91.57 115.07 93.31 117.71 91.99 117.36 87.65 117.08 87.65"/><polygon class="cls-4" points="83.01 91.54 82.27 95.77 79.07 94.74 83.01 91.54"/><polygon class="cls-4" points="86.82 76.93 86.72 76.87 85.34 76.04 83.9 76.11 82.57 77.06 81.47 78.56 80.94 80.34 80.92 82.1 81.4 83.77 82.34 85.39 83.98 86.67 85.72 87.25 87.02 87.53 86.4 84.19 85.09 84.25 83.19 83.27 82.71 81.78 83.01 79.97 83.98 79.1 84.99 78.7 86.86 78.87 86.82 76.93"/><path class="cls-4" d="M92,76.56a4.72,4.72,0,0,1,6.35,3c1.86,4.83-1.94,6.87-2.12,7a5.24,5.24,0,0,1-5.65-2.44C88.82,80.89,89.32,78,92,76.56Z"/><path class="cls-4" d="M100.36,75.06s.88-.8,1.69-.44a1.84,1.84,0,0,1,1.29,1.72c-.08.7-.75,4.13-.5,4.9a4,4,0,0,1,.21.69,11,11,0,0,1,1.09-.52,3.52,3.52,0,0,1,2.28.31c.46.36,1.36,1.67,1.13,2.27a4.12,4.12,0,0,1-.73,1.15l-6.46.76Z"/><polygon class="cls-4" points="111.63 74.87 114.1 74.64 117.07 80.66 117.28 84.42 115.98 84.42 113.72 81.33 113.26 82.45 113.11 84.33 112.09 84.68 110.99 84.27 111.63 74.87"/><polygon class="cls-3" points="113.22 77.45 114.47 79.14 112.74 79.81 113.22 77.45"/><path class="cls-3" d="M94,80.38s1.22-.24,1.38.89a1.45,1.45,0,0,1-.85,1.66c-.19,0-1.3,0-1.47-.19a1.57,1.57,0,0,1-.47-1.09C92.61,81.16,92.58,80.29,94,80.38Z"/><path class="cls-5" d="M76.5,53.14a8.94,8.94,0,0,0-1,3.19,5.78,5.78,0,0,0,0,3,.12.12,0,0,0,.23,0,24.91,24.91,0,0,0,.34-3c.18-1,.55-2,.79-3a.19.19,0,0,0-.35-.15Z"/><path class="cls-5" d="M75.81,54.73c-.28.51-.56,1-.83,1.53a4.21,4.21,0,0,0-.53,1.21c-.11.65.29,1.28,1,1.17a.31.31,0,0,0,.07-.56c-.75-.42.52-2.46.79-3.07.15-.32-.32-.61-.49-.28Z"/><path class="cls-5" d="M75.18,55.91c-.81.15-1.15,1.54-1,2.22s1.2,1.27,1.83.69c.26-.25,0-.6-.33-.55-.68.1-.92-.46-.76-1.06.1-.41.45-.76.37-1.21,0-.07-.09-.1-.16-.09Z"/><path class="cls-5" d="M89.65,45.28c.09.79.36,1.54.41,2.34a11.08,11.08,0,0,1-.41,2.8c-.17.89-.15,2,.88,2.33a1.36,1.36,0,0,0,1.73-.88c.49-1.3-.56-3.33-.91-4.58a.51.51,0,0,0-1,.28c.15.63.79,2.06.64,2.68q.27.61-.66.15l.09-.38a6.77,6.77,0,0,1,.21-1,5.18,5.18,0,0,0-.73-3.89.15.15,0,0,0-.26.1Z"/><path class="cls-5" d="M90.53,48.28a4.1,4.1,0,0,0-.53,1.4,3.29,3.29,0,0,0,0,1.56c.12.38.81.48.87,0,.13-.94-.06-1.92,0-2.86a.2.2,0,0,0-.37-.1Z"/><path class="cls-5" d="M90.7,49.49a2.83,2.83,0,0,0-.25,1,1.7,1.7,0,0,0,.12,1.09c.2.44.81.26,1-.13a2.59,2.59,0,0,0-.36-1.95.27.27,0,0,0-.46,0Z"/><path class="cls-5" d="M91.08,47.21a2,2,0,0,0-.71-1.46c-.08-.07-.26,0-.24.1a1.93,1.93,0,0,0,.8,1.42.1.1,0,0,0,.15-.06Z"/><path class="cls-5" d="M102.09,53.63c1.22,1.18-.09,2.5.2,3.9a1.52,1.52,0,0,0,1.57,1.29c.8-.15,1-1,1-1.71a6,6,0,0,0-.39-1.61c-.24-.67-.36-1.37-.6-2a.34.34,0,0,0-.65,0,3.22,3.22,0,0,0,.35,2.28,4.1,4.1,0,0,1,.43,1.38c0,.31,0,.67-.34.78-.53.19-.8-.92-.74-1.27.15-1,1-3.07-.62-3.36a.21.21,0,0,0-.21.35Z"/><path class="cls-5" d="M103.06,55.17a4.63,4.63,0,0,0-.24,1.22,7.71,7.71,0,0,0,.14,1.27c.11.68,1.2.4,1-.28a9.91,9.91,0,0,1-.18-1.09c0-.35-.14-.69-.17-1s-.49-.42-.58-.08Z"/><path class="cls-5" d="M103.49,56.58a2.34,2.34,0,0,1-.28,1c-.24.46.38,1,.75.58a1.18,1.18,0,0,0-.15-1.77.22.22,0,0,0-.32.19Z"/><path class="cls-5" d="M102.62,57.68a.59.59,0,0,0,0,.32c0,.1.15.23.27.21h.11a.22.22,0,0,0,.19-.26c0-.14-.1-.19-.15-.32a.24.24,0,0,0-.47.06Z"/><path class="cls-5" d="M110.44,46.54a16.64,16.64,0,0,0,.32,3,18.78,18.78,0,0,1,0,3c0,.34.48.38.58.08.56-1.77.79-4.68-.48-6.2-.14-.17-.37,0-.38.16Z"/><path class="cls-5" d="M116.92,49.52a4.31,4.31,0,0,0,0,.88,4,4,0,0,1-.2,1.14,3.88,3.88,0,0,0-.24,1.84.58.58,0,0,0,1,.14,2.71,2.71,0,0,0,.15-2c-.08-.4-.23-.77-.3-1.18a2.31,2.31,0,0,0-.25-.86.11.11,0,0,0-.2,0Z"/><path class="cls-5" d="M116.33,52.77a.44.44,0,0,0-.1.75c.26.24.72-.07.51-.39a.61.61,0,0,0-.07-.1c.06-.21-.16-.33-.34-.26Z"/><path class="cls-5" d="M116.61,53a.48.48,0,0,1,.08-.16c.23-.36-.38-.7-.56-.33a.5.5,0,0,0,.06.6.26.26,0,0,0,.42-.11Z"/><path class="cls-5" d="M119,54.24c-.23.48.3,1.16.37,1.67a3.35,3.35,0,0,1-.06,1.22c-.08.34-.24.53-.11.86a.24.24,0,0,0,.28.16c.83-.27.74-1.82.61-2.5a2.49,2.49,0,0,0-.59-1.32c-.09-.08-.4-.29-.5-.09Z"/><path class="cls-5" d="M79.18,53.52a11.87,11.87,0,0,0,.53,6.08c.07.17.35.16.34-.05a48.84,48.84,0,0,0-.59-6,.15.15,0,0,0-.28,0Z"/><path class="cls-5" d="M79.86,59.83a17,17,0,0,0,.26-6c0-.32-.54-.34-.52,0,.1,2,0,4,.08,6a.09.09,0,0,0,.18,0Z"/><path class="cls-5" d="M79.74,58.93A1.75,1.75,0,0,0,79.8,60c.11.24.44.06.4-.17a5.84,5.84,0,0,1-.22-.94c0-.16-.22-.15-.24,0Z"/><path class="cls-5" d="M79.7,53.94a.54.54,0,0,0,.2.33s.07,0,.06,0a.62.62,0,0,0-.2-.34s-.08,0-.06,0Z"/><path class="cls-5" d="M80.07,54a1.9,1.9,0,0,0-.45-.92c-.15-.18-.37.05-.3.23a1.86,1.86,0,0,0,.62.79c.07,0,.14,0,.13-.1Z"/><path class="cls-5" d="M79.31,53.13a1.86,1.86,0,0,0-.26,1.78.08.08,0,0,0,.13,0,4.08,4.08,0,0,0,.14-.85,5.08,5.08,0,0,0,.12-.86c0-.06-.09-.1-.13,0Z"/><path class="cls-5" d="M79.42,53.77a2,2,0,0,0,.08,1.66c0,.06.16.08.2,0a2,2,0,0,0-.16-1.66.08.08,0,0,0-.12,0Z"/><path class="cls-5" d="M79.52,53.82a1.36,1.36,0,0,0-.09.8,1.31,1.31,0,0,0,.18.83.15.15,0,0,0,.25,0,1.89,1.89,0,0,0-.18-1.65.09.09,0,0,0-.16,0Z"/><path class="cls-5" d="M91.05,71.94a2.54,2.54,0,0,0-.85,1.91c0,.53.22,1.24.82,1.34a1,1,0,0,0,1.08-1,3.33,3.33,0,0,0-.16-1.13A1.78,1.78,0,0,1,92.08,72a.19.19,0,0,0-.19-.25c-.79-.05-.79,1-.65,1.51a2.86,2.86,0,0,1,.21.85c0,.35-.2.39-.55.11a1.13,1.13,0,0,1-.05-.41,2.05,2.05,0,0,1,.61-1.51.29.29,0,0,0-.41-.4Z"/><path class="cls-5" d="M91.18,72.94c-.52.42-.69,1.66.15,1.85.19,0,.41-.13.33-.34-.16-.46-.5-.77-.19-1.28.12-.19-.13-.35-.29-.23Z"/><path class="cls-5" d="M91,72.79a1.27,1.27,0,0,0-.1,1.7.39.39,0,0,0,.4.11.44.44,0,0,0,.3-.46c0-.17-.12-.29-.16-.45a1.54,1.54,0,0,1,0-.64.27.27,0,0,0-.45-.26Z"/><path class="cls-5" d="M98.79,87.79c0,.73.1,1.44,0,2.17a9.25,9.25,0,0,0-.23,1.64c0,.7.5,1.47,1.3,1.38a1,1,0,0,0,.79-1.27A15.79,15.79,0,0,0,100,90.1c-.23-.73-.22-1.5-.46-2.22a.19.19,0,0,0-.36,0,3.36,3.36,0,0,0,.06,1.75,7,7,0,0,0,.32,1c.09.2.18.39.28.59s.12.35-.32.22c-.47.15-.59,0-.36-.49l.12-.57a6.26,6.26,0,0,0,.1-.87,3.55,3.55,0,0,0-.31-1.82c-.08-.15-.3-.07-.31.09Z"/><path class="cls-5" d="M99.31,90.16a1.66,1.66,0,0,0,.24,1.89c.28.34.81-.1.6-.47a7.57,7.57,0,0,1-.52-1.37.18.18,0,0,0-.32,0Z"/><path class="cls-5" d="M99.26,90.91c-.62.16-.37,1.07,0,1.31a.39.39,0,0,0,.47-.61,1.73,1.73,0,0,1-.33-.63.16.16,0,0,0-.19-.07Z"/><path class="cls-5" d="M105.83,89.25a2.88,2.88,0,0,1,.52,1.38,3,3,0,0,1-.5,1.38c-.1.22.12.5.35.35a2.24,2.24,0,0,0,0-3.46c-.23-.15-.46.13-.35.35Z"/><path class="cls-5" d="M106.08,92.27a2.94,2.94,0,0,0,.27-3,.23.23,0,0,0-.42.11c-.05.47.09.95.08,1.42s-.13.93-.12,1.4a.11.11,0,0,0,.19.08Z"/><path class="cls-5" d="M106.49,89.5c-.15.29.08.7.08,1s-.26.76-.18,1.15a.15.15,0,0,0,.19.11c.58-.11.65-1,.58-1.49,0-.09-.44-1.19-.67-.78Z"/><path class="cls-5" d="M78.86,94.38a24.81,24.81,0,0,1-2.41,2.81,18,18,0,0,0-2,2.09c-.74,1-1.43,2.76.1,3.36.17.07.31-.19.18-.31-2.31-2,3.78-5.73,4.38-7.81,0-.13-.16-.26-.25-.14Z"/><path class="cls-5" d="M74.47,102.4c.83-1.26,1.48-2.63,2.32-3.9s1.92-2.33,2.74-3.6c.11-.16-.11-.4-.28-.28a14.9,14.9,0,0,0-5,7.71.09.09,0,0,0,.17.07Z"/><path class="cls-5" d="M77,96.68a5.91,5.91,0,0,0-2.13,2.51c-.41.79-1,1.86-.63,2.73a.26.26,0,0,0,.4.06c.66-.55.78-1.68,1.17-2.42s1.11-1.62,1.6-2.47a.3.3,0,0,0-.41-.41Z"/><path class="cls-5" d="M73.25,109.82c-.54,1.68-2.35,5.19.35,6,.38.12.52-.45.16-.59-2.22-.87-.1-3.8-.28-5.4a.12.12,0,0,0-.23,0Z"/><path class="cls-5" d="M73.69,115.65a9.34,9.34,0,0,0,0-4.58c-.13-.36-.74-.44-.82,0a9.47,9.47,0,0,0,.63,4.58c0,.08.17.1.19,0Z"/><path class="cls-5" d="M73.07,111.15a3.35,3.35,0,0,0-.63,2,2.11,2.11,0,0,0,.59,1.74c.19.14.42,0,.43-.24,0-.5-.29-1-.32-1.5a4,4,0,0,1,.32-1.77.23.23,0,0,0-.39-.23Z"/><path class="cls-5" d="M119,93.47a32.79,32.79,0,0,0,2,4.11c.41.76.78,1.7,1.79,1.61.36,0,.37-.58,0-.56-.94.05-1.63-2-2-2.69a23.43,23.43,0,0,0-1.51-2.62c-.12-.16-.43-.08-.35.15Z"/><path class="cls-5" d="M122.48,99c1,0,1.1-1.18.7-1.87a9.42,9.42,0,0,0-1.6-1.74,5.21,5.21,0,0,0-1.91-1.56.29.29,0,0,0-.35.35A5.19,5.19,0,0,0,120.91,96c.38.37,2.75,2.15,1.51,2.72a.13.13,0,0,0,.06.23Z"/><path class="cls-5" d="M120.27,95.55a4.62,4.62,0,0,0,.94,1.81c.32.47.69,1.37,1.3,1.46a.28.28,0,0,0,.34-.19c.12-.64-.55-1.21-.91-1.69a4.77,4.77,0,0,0-1.42-1.54c-.1-.05-.27,0-.25.15Z"/><path class="cls-5" d="M120.24,108.86a.05.05,0,0,0,0-.1.05.05,0,1,0,0,.1Z"/><path class="cls-5" d="M120.19,108.75a3.4,3.4,0,0,0-.1,1.9,4.25,4.25,0,0,0,.32,1.95.21.21,0,0,0,.35,0,4.28,4.28,0,0,0,0-1.95,3.7,3.7,0,0,0-.4-1.9c0-.07-.15-.09-.19,0Z"/><path class="cls-5" d="M104.56,109c-.17.71-1.17,4.89.87,4.24,1.65-.52.31-3.55-.58-4.16a.27.27,0,0,0-.4.3,8.23,8.23,0,0,0,.67,1.24,6.76,6.76,0,0,1,.33.78l.12.36c.19.38.07.57-.38.56-.43.31-.61.17-.53-.4l0-.26c0-.28.07-.56.1-.84a15.16,15.16,0,0,0,.18-1.77.2.2,0,0,0-.4,0Z"/><path class="cls-5" d="M104.59,110.33c.14.62-.17,1.29.11,1.89.17.36.65.77,1,.48a.24.24,0,0,0,.05-.38c-.13-.13-.3-.19-.39-.36a1.63,1.63,0,0,1-.07-.85,1.41,1.41,0,0,0-.31-1c-.17-.22-.47,0-.43.25Z"/><path class="cls-5" d="M105.06,111.43a1.44,1.44,0,0,0,.12,1.27.29.29,0,0,0,.46-.06,1.47,1.47,0,0,0-.18-1.26c-.07-.17-.36-.12-.4.05Z"/><path class="cls-5" d="M104.66,111.65c-.24.36-.44.87-.11,1.24a.63.63,0,0,0,1,0,.37.37,0,0,0-.22-.54c-.25,0-.25-.12-.13-.36a.32.32,0,0,0-.55-.32Z"/><path class="cls-5" d="M105,111.22c.08.43-.16,1,.09,1.34a.38.38,0,0,0,.5.13c.77-.37.18-1.43-.39-1.67-.13,0-.22.1-.2.2Z"/><path class="cls-5" d="M105,111c0,.44-.17.82-.14,1.25a.17.17,0,0,0,.25.14c.48-.25.51-.92.45-1.39s-.6-.36-.56,0Z"/><path class="cls-5" d="M104.9,112.41l.12,0a.09.09,0,0,0,.07-.17l-.11-.07c-.13-.08-.23.13-.08.19Z"/><path class="cls-5" d="M77.2,100.39a8.71,8.71,0,0,1-.78,2,3.91,3.91,0,0,0-.62,1.49,1.28,1.28,0,0,0,.85,1.46c2.4.57,1.32-4.16.82-5.07a.16.16,0,0,0-.28,0,5.84,5.84,0,0,0,.07,2c0,.33.11.67.13,1a1.57,1.57,0,0,1-.26,1.14c-.65-.18-.89-.46-.73-.85,0-.62.74-1.34,1-1.92a1.77,1.77,0,0,0,.11-1.35.14.14,0,0,0-.27,0Z"/><path class="cls-5" d="M77.12,101.63a11.36,11.36,0,0,0-.91,2.86c-.15.6.79.85.91.25a11.25,11.25,0,0,0,.43-3,.23.23,0,0,0-.43-.12Z"/><path class="cls-5" d="M81.65,102.87a15.27,15.27,0,0,1,.42,2.16,10,10,0,0,0,0,1.55c.12.59.63,1.13,1.28.88,1.72-.66,0-4.06-.94-4.66a.29.29,0,0,0-.43.33,11.49,11.49,0,0,0,.83,1.49,3.21,3.21,0,0,1,.5,1.14l.07.24c-.57.77-.82.79-.74.07A7.21,7.21,0,0,0,82,102.7a.22.22,0,0,0-.39.17Z"/><path class="cls-5" d="M82.53,104.62a7.48,7.48,0,0,0-.08,2.06c0,.56.91.58.89,0a7.15,7.15,0,0,0-.32-2.06.26.26,0,0,0-.49,0Z"/><path class="cls-5" d="M83.2,105.62a4,4,0,0,1,.15-.78,2.34,2.34,0,0,0,0-.79c-.15-.87-1.58-.51-1.35.38a8.12,8.12,0,0,0,.74,1.32c.11.26.5.12.5-.13Z"/><path class="cls-5" d="M82.39,104.34a3.82,3.82,0,0,1,.27,1.67.56.56,0,0,0,.28.5.6.6,0,0,0,.58,0,.57.57,0,0,0,.28-.5,3.86,3.86,0,0,0-.74-2c-.22-.31-.85-.13-.67.28Z"/><path class="cls-5" d="M77.54,104.55a1.75,1.75,0,0,0,.42-.81c.27-1-1.43-1.15-1.35-.18a1.77,1.77,0,0,0,.25.9.44.44,0,0,0,.68.09Z"/><path class="cls-5" d="M92.42,125.56a18.4,18.4,0,0,0,.23,3.92c.1.6.44,1.29,1.17,1.22s.77-.79.66-1.37a19.17,19.17,0,0,0-1-3.81c-.12-.28-.62-.14-.59.16a12,12,0,0,0,.46,2,10.55,10.55,0,0,1,.59,2.21c-.7.55-.68-.93-.69-1.09,0-.35,0-.71-.06-1.07a18.15,18.15,0,0,0-.2-2.21c-.07-.31-.51-.21-.53.07Z"/><path class="cls-5" d="M93.14,127.22c-.65.77-.31,2.31.17,3.08.21.34.86.24.81-.22-.11-1,.14-2.35-.37-3.29-.22-.4-.74-.17-.79.21a5.77,5.77,0,0,0,.19,1.42,6.59,6.59,0,0,1,.1,1.66l.86-.11a14.61,14.61,0,0,1-.47-1.46,4.54,4.54,0,0,0-.3-1.26.13.13,0,0,0-.2,0Z"/><path class="cls-6" d="M89.22,104.53c-1.85,4.63-.9,11.83,2.11,15.8a.17.17,0,0,0,.32-.13c-.48-2.72-1.32-5.26-1.57-8-.22-2.51.13-5,.09-7.49a.49.49,0,0,0-1-.13Z"/><path class="cls-6" d="M90.27,118.54a22.22,22.22,0,0,1-1.12-3.67c-.24-1.26-.12-2.54-.37-3.79,0-.17-.27-.15-.32,0-.75,2.34.3,5.56,1.54,7.57.09.14.34,0,.27-.11Z"/><path class="cls-6" d="M89.77,118.22c.19.61.52,1.48,1.18,1.71a.12.12,0,0,0,.14-.14,2.24,2.24,0,0,0-.39-.62,3.66,3.66,0,0,1-.58-1c-.08-.22-.43-.13-.35.09Z"/><path class="cls-6" d="M100.06,107.12a57.64,57.64,0,0,0,.83,11.57c.07.58,1,.44,1-.13A57.75,57.75,0,0,0,100.63,107a.29.29,0,0,0-.57.08Z"/><path class="cls-6" d="M102.05,118.31a49.75,49.75,0,0,0-1.21-10.87c-.12-.51-.91-.29-.79.22a62.74,62.74,0,0,1,1.47,10.65.27.27,0,0,0,.53,0Z"/><path class="cls-6" d="M99.58,107.69a62,62,0,0,0,.78,10.61c0,.31.51.33.5,0a62.48,62.48,0,0,0-.76-10.68c-.07-.3-.5-.21-.52.07Z"/><path class="cls-6" d="M79.71,106c-.58,4-1.27,10.34,1.05,13.94a.57.57,0,0,0,1.06-.28c.16-2.1-.66-4.29-.93-6.39a53.76,53.76,0,0,1-.45-7.18c0-.4-.66-.51-.73-.09Z"/><path class="cls-6" d="M80.46,109.52a6.44,6.44,0,0,0-.16,2.19,9,9,0,0,0,.22,2.2.17.17,0,0,0,.32,0,9.51,9.51,0,0,0,.15-2.2,6.74,6.74,0,0,0-.24-2.19.15.15,0,0,0-.29,0Z"/><path class="cls-6" d="M84.82,51.65a17.47,17.47,0,0,0-1.07,10.61c0,.27.5.21.49-.07a46.59,46.59,0,0,1,.86-10.41c0-.17-.2-.3-.28-.13Z"/><path class="cls-6" d="M97.34,46.2a6.69,6.69,0,0,0,.22,2.26c.13,1,.1,1.94.22,2.91,0,.21.33.29.39.05.39-1.37.44-4.17-.62-5.27a.13.13,0,0,0-.21.05Z"/><path class="cls-6" d="M93.83,50.42A11.35,11.35,0,0,0,94.25,59a.2.2,0,0,0,.38-.1c0-1.4-.42-2.76-.49-4.16s.12-2.8.16-4.21a.24.24,0,0,0-.47-.06Z"/><path class="cls-6" d="M111.76,59.93a16.5,16.5,0,0,1-1.29,5.17c-.1.24.23.46.37.21a12.41,12.41,0,0,0,1.57-5.38c0-.42-.62-.41-.65,0Z"/><path class="cls-6" d="M88,64.18a5.11,5.11,0,0,0,.41,2.08,2.85,2.85,0,0,0,1.08,1.56.12.12,0,0,0,.17-.13,12.21,12.21,0,0,0-.79-1.63,10.55,10.55,0,0,1-.51-1.93c0-.2-.35-.15-.36.05Z"/><path class="cls-6" d="M80.11,66.3A10.18,10.18,0,0,0,79.75,65a11.82,11.82,0,0,0-.35-1.48.18.18,0,0,0-.35.05A4,4,0,0,0,79.24,65a3.91,3.91,0,0,0,.55,1.37c.09.11.34.1.32-.09Z"/><path class="cls-6" d="M88.62,129.79a2.47,2.47,0,0,0-.39-1.17,10,10,0,0,0-.62-1.42.12.12,0,0,0-.22.09,9.43,9.43,0,0,0,.53,1.46,2.39,2.39,0,0,0,.53,1.11.1.1,0,0,0,.17-.07Z"/><path class="cls-6" d="M86.29,102.12a13.06,13.06,0,0,0,.76-2.26c0-.2-.23-.35-.35-.15a13.15,13.15,0,0,0-.89,2.28c-.11.31.37.44.48.13Z"/><path class="cls-6" d="M98.3,102.09c.1-.41.21-.82.34-1.22s.32-.79.4-1.2a.18.18,0,0,0-.33-.14,5.37,5.37,0,0,0-.68,2.53c0,.15.24.18.27,0Z"/><path class="cls-6" d="M106.16,99.52c.17.63.52,1.19.71,1.81s.26,1.3.5,1.88c0,.1.18.12.21,0a4.45,4.45,0,0,0-1.12-3.87.18.18,0,0,0-.3.18Z"/><path class="cls-6" d="M114.56,102.16c.27,1.58,1,3.09,1.35,4.68.4,1.81.42,3.64.65,5.47,0,.14.25.21.27,0,.5-3.08-.16-7.78-2.13-10.27-.06-.08-.15,0-.14.08Z"/><path class="cls-6" d="M106.88,134.4c.76-1.4,1.85-3.32,1.69-5a.14.14,0,0,0-.26-.06,12.67,12.67,0,0,0-.78,2.14,18.78,18.78,0,0,1-1.16,2.59c-.18.33.32.63.51.3Z"/><path class="cls-6" d="M99.21,132.18c0,.54,0,1.08,0,1.62a5.62,5.62,0,0,0,0,1.42.13.13,0,0,0,.24,0,3.93,3.93,0,0,0,.22-1.45,8.47,8.47,0,0,0-.1-1.67c0-.24-.4-.17-.4.05Z"/><path class="cls-6" d="M80.05,122.22c-.94,2.14.07,5.91,1.45,7.68.07.09.21,0,.19-.11-.34-1.26-.88-2.43-1.13-3.72s-.08-2.61-.41-3.84a.06.06,0,0,0-.1,0Z"/><path class="cls-6" d="M118.09,124.69c-.28.89-.23,1.87-.48,2.79s-.74,1.73-1,2.63a.2.2,0,0,0,.34.19c1.16-1.17,2.08-4,1.56-5.61a.2.2,0,0,0-.38,0Z"/><path class="cls-6" d="M99.19,91.76c-.42.4.07,1,.57.8a.39.39,0,0,0-.2-.75h0a.25.25,0,0,0-.38,0Z"/><path class="cls-6" d="M73.65,100.29a1,1,0,0,0,.38,1.2.29.29,0,0,0,.42-.32,2.4,2.4,0,0,1-.24-.8.29.29,0,0,0-.56-.08Z"/><path class="cls-6" d="M76.35,104.51c.22.21.38.39.69.35.16,0,.32-.19.2-.35s-.42-.29-.76-.31a.18.18,0,0,0-.13.31Z"/><path class="cls-6" d="M82.71,107.25l-.25-.25a.35.35,0,0,0,.25.25.91.91,0,0,0,1-.43.47.47,0,0,0,0-.43c-.33-.46-.77,0-1.09.21a.36.36,0,0,0,.08.65Z"/><path class="cls-6" d="M104.77,113.07a.94.94,0,0,0,.86.1.37.37,0,0,0,.25-.25l0-.11a.24.24,0,0,0-.11-.26,2.12,2.12,0,0,0-.87-.06c-.33,0-.39.41-.16.58Z"/><path class="cls-6" d="M120.21,112.36a.8.8,0,0,0,.4.06c.26,0,.42-.41.15-.54a1,1,0,0,0-.46-.12c-.37,0-.4.5-.09.6Z"/><path class="cls-6" d="M122.34,96.76a1,1,0,0,0,0,.53,3.86,3.86,0,0,1,0,.68c0,.29.16.54.49.43.75-.25.58-1.89-.25-1.84a.28.28,0,0,0-.25.2Z"/><path class="cls-6" d="M106.68,91.94a3.1,3.1,0,0,0,.4-1.38.15.15,0,0,0-.25-.1,3.06,3.06,0,0,0-.63,1.35c-.1.31.36.42.48.13Z"/><path class="cls-6" d="M91.3,74.28l.15.13a.49.49,0,0,0-1,.26.68.68,0,0,0,.54.54.48.48,0,0,0,.26-.93Z"/><path class="cls-6" d="M103.07,58.5a1.09,1.09,0,0,0,1.36-.43.43.43,0,0,0,0-.44c-.17-.22-.6-.16-.84-.07s-.4.19-.6.27-.17.58.08.67Z"/><path class="cls-6" d="M90.21,51.45a1.08,1.08,0,0,0,1.22.16c.53-.23.07-1.09-.46-.79a.74.74,0,0,1-.46.12c-.26,0-.57.3-.3.51Z"/><path class="cls-6" d="M74.73,56.77c-1,0-.79,1.47-.26,1.89s1.32-.12.9-.7a1.58,1.58,0,0,1-.24-.76c0-.2-.15-.42-.4-.43Z"/><path class="cls-6" d="M92.1,24.78a39.1,39.1,0,0,1-1,5.16c-.5,1.7-1.36,3.23-1.92,4.89-.1.29.33.56.53.31,2.1-2.66,3.11-6.93,3.07-10.27,0-.39-.65-.51-.71-.09Z"/><path class="cls-6" d="M89.46,34.92c.72,0,1.46-.63,2.05-1s1.39-.63,1.64-1.27c0-.13-.08-.24-.2-.25-.67-.06-1.38.62-1.92,1s-1.42.69-1.7,1.31a.15.15,0,0,0,.13.23Z"/><path class="cls-6" d="M93.29,32.68a58.13,58.13,0,0,0,.17-7.81.33.33,0,0,0-.66,0c.06,2.62,0,5.2-.13,7.81,0,.41.58.4.62,0Z"/><path class="cls-6" d="M92.44,26.74c-.11,1-.27,2.05-.32,3.1a7.15,7.15,0,0,0,.06,2.77.44.44,0,0,0,.85,0,7.33,7.33,0,0,0,.2-2.77c0-1-.11-2.06-.17-3.1a.31.31,0,0,0-.62,0Z"/><path class="cls-6" d="M92.61,32.08a3.64,3.64,0,0,0-.87.11,4.53,4.53,0,0,0-.88.5.69.69,0,0,0-.31.76.63.63,0,0,0,.31.4.64.64,0,0,0,.69,0,4.27,4.27,0,0,0,.88-.63,3.63,3.63,0,0,0,.43-.71.29.29,0,0,0-.25-.43Z"/><path class="cls-6" d="M91.27,33.29a3.84,3.84,0,0,0,.49-.27,2,2,0,0,0,.33-.44,5.68,5.68,0,0,0,.51-1.16c.31-.9-1.25-1.28-1.38-.38,0,.37-.12.72-.2,1.08a2.73,2.73,0,0,0-.1.48c0,.18.06.34,0,.52a.21.21,0,0,0,.31.17Z"/><path class="cls-5" d="M93.16,24.56c-.12,2.6.1,5.27.09,7.87,0,.44.61.41.66,0a24.38,24.38,0,0,0-.11-7.95c-.08-.37-.62-.27-.64.08Z"/><path class="cls-5" d="M93.54,32.58a3.93,3.93,0,0,0,1.45,0c.45-.07,1,0,1.21-.45a.3.3,0,0,0,0-.38c-.36-.34-.76-.17-1.21-.09a3.93,3.93,0,0,0-1.46.44.27.27,0,0,0,.06.49Z"/><path class="cls-5" d="M96,32a8.73,8.73,0,0,0-.09-3.45c-.17-1.33-.33-2.65-.46-4,0-.32-.54-.33-.52,0,.1,1.42.17,2.84.24,4.26a8,8,0,0,0,.5,3.21A.18.18,0,0,0,96,32Z"/><path class="cls-5" d="M93.29,24.81c.18.27.45.2.75.17a12.34,12.34,0,0,0,1.34-.19.29.29,0,0,0-.08-.57c-.21,0-2.29.19-2,.59Z"/><path class="cls-5" d="M94.44,24.88a11.55,11.55,0,0,0,0,3.27,10.66,10.66,0,0,0,.46,3.3c.11.25.57.36.63,0a13.63,13.63,0,0,0-.23-3.3,15.6,15.6,0,0,0-.44-3.27c-.06-.19-.36-.21-.4,0Z"/><path class="cls-5" d="M95.29,31.23A1.25,1.25,0,0,0,94,31.12a.55.55,0,0,0,.14,1,1.3,1.3,0,0,0,1.28-.58.23.23,0,0,0-.08-.31Z"/><path class="cls-5" d="M94.6,31.63a14.25,14.25,0,0,0,.25-3.75c-.06-1,.17-2.29-.65-3a.38.38,0,0,0-.53,0c-.75.78-.37,2-.3,3a14.39,14.39,0,0,0,.72,3.75c.07.23.46.27.51,0Z"/><path class="cls-1" d="M94.32,26.51l.06-.06s0-.05,0,0l-.06.06s0,.06,0,0Z"/><path class="cls-1" d="M94.2,25.8c.33,1.68.5,3.38.83,5.05,0,.21.38.16.37-.05a27.73,27.73,0,0,0-.8-5.11c0-.26-.44-.15-.4.11Z"/><path class="cls-5" d="M92.71,19.81a32.83,32.83,0,0,0,5.52.15c1.46,0,3.65.17,5-.63,1-.64,1.25-2.26-.07-2.64-.26-.08-.35.29-.11.39-.25,1.54-.93,2.3-2,2.3l-1.17.08c-.78.06-1.57.1-2.35.12-1.58.05-3.15,0-4.72,0-.1,0-.14.18,0,.2Z"/><path class="cls-5" d="M103.46,38.32c.37,1.16.82,2.28,1.13,3.46s.45,2.4.81,3.55a.31.31,0,0,0,.6-.08,15.41,15.41,0,0,0-2-7.18.31.31,0,0,0-.57.25Z"/><path class="cls-5" d="M108.3,39.93c1.26,1.46,3,2.45,4.41,3.79s2.22,3.07,3.71,4c.42.26.83-.17.76-.59-.29-1.81-2.26-3.54-3.56-4.71s-3.1-2.67-5.05-3a.28.28,0,0,0-.27.46Z"/><path class="cls-5" d="M86.7,40.86c-3,1.16-6,5.16-5.42,8.48.07.4.6.29.72,0,.62-1.53.82-3.1,1.68-4.56a18.82,18.82,0,0,1,3.15-3.69c.1-.09,0-.29-.13-.23Z"/><path class="cls-5" d="M76.43,108.42c-1,2.46-.75,5.66-.41,8.25.3,2.32.69,5.44,2.43,7.14a.48.48,0,0,0,.8-.34c0-2.32-1.3-4.78-1.71-7.11-.47-2.65-.15-5.33-.59-7.94,0-.3-.43-.21-.52,0Z"/><path class="cls-5" d="M122,106.18c-.48,1.28,0,2.34.18,3.72a28.39,28.39,0,0,1,.14,4.61c-.17,3.33-1.27,6.38-2,9.61a.37.37,0,0,0,.67.28c2-2.7,2.68-6.16,2.87-9.47.13-2.36.36-7.19-1.68-8.8a.12.12,0,0,0-.2.05Z"/><path class="cls-5" d="M110.69,108.83A51,51,0,0,1,112,121.2a59.77,59.77,0,0,1-2.2,12.24c0,.19.25.34.33.14,3.31-7.39,3.46-17.22,1.06-24.89a.26.26,0,0,0-.5.14Z"/><path class="cls-5" d="M87.49,133A69.1,69.1,0,0,1,84,115a.12.12,0,0,0-.23,0,48.07,48.07,0,0,0,3.47,18.06c.06.13.27.09.22-.06Z"/><path class="cls-5" d="M112.61,95.37c.89,1.14,1.91,2.15,2.76,3.32.69,1,1.27,2,2,2.92.08.1.27,0,.22-.13a15.77,15.77,0,0,0-4.8-6.33c-.14-.11-.26.11-.17.22Z"/><path class="cls-5" d="M91.7,98.19a6.24,6.24,0,0,0-2.86,4c0,.15.21.29.29.12a13.64,13.64,0,0,1,1-2.13,10.58,10.58,0,0,1,1.66-1.94s0-.09-.06-.07Z"/><path class="cls-5" d="M87.54,97.3a7.58,7.58,0,0,0-2.44,6c0,.16.27.22.3,0a18.51,18.51,0,0,1,.66-3c.39-1.07,1.07-1.94,1.55-3,0,0,0-.11-.07-.08Z"/><path class="cls-5" d="M94.2,68a3.53,3.53,0,0,1-1.35-1.25c-.27-.49-.27-1-.51-1.54a.15.15,0,0,0-.25,0,2,2,0,0,0,.3,1.91A2.85,2.85,0,0,0,94,68.4.24.24,0,0,0,94.2,68Z"/><path class="cls-5" d="M100.7,68.62a2.2,2.2,0,0,0-.14-2.45c-.07-.07-.21,0-.2.08a4,4,0,0,1-.07,2.13c-.12.27.28.51.41.24Z"/><path class="cls-5" d="M106.24,67.88a20.77,20.77,0,0,0,1.13-2.14A5.2,5.2,0,0,0,108.1,64c0-.1-.12-.14-.19-.08a6.36,6.36,0,0,0-1.07,1.86,20.8,20.8,0,0,0-.93,2c-.07.19.22.29.33.13Z"/><path class="cls-5" d="M110.51,67a5.73,5.73,0,0,0,1-2.11,21,21,0,0,0,1-2.89.09.09,0,0,0-.16-.07,18.67,18.67,0,0,0-1.14,2.49,6.64,6.64,0,0,0-.82,2.55,0,0,0,0,0,.06,0Z"/><path class="cls-5" d="M112.15,47.4a33.59,33.59,0,0,0,3.09,6.86c.12.19.45.07.37-.15a33.18,33.18,0,0,0-3.33-6.76c0-.07-.16,0-.13,0Z"/><path class="cls-5" d="M97.61,47a18.7,18.7,0,0,0,.46,2.57A11.15,11.15,0,0,0,98.73,52c.06.14.27.06.27-.07a11.14,11.14,0,0,0-.37-2.37A18.56,18.56,0,0,0,98,46.93c-.07-.18-.38-.17-.37,0Z"/><path class="cls-5" d="M100.33,25a4.47,4.47,0,0,0,1.25,4.2.21.21,0,0,0,.32-.25,9.71,9.71,0,0,1-1-1.84,6.87,6.87,0,0,1-.28-2.06c0-.2-.3-.25-.34-.05Z"/><path class="cls-5" d="M89.14,11.25c.46-.38.83-.74,1.48-.57A1.08,1.08,0,0,1,91.38,12a1,1,0,0,1-1.21.87c-.61-.11-.82-.54-1.07-1-.12-.23-.41-.1-.44.11-.09.8.86,1.41,1.55,1.46a1.56,1.56,0,0,0,1.65-1.38,1.55,1.55,0,0,0-1.07-1.78c-.63-.17-1.76.07-1.89.83a.15.15,0,0,0,.24.15Z"/><path class="cls-5" d="M96.44,8.14a2.33,2.33,0,0,0-1,3.47,2.44,2.44,0,0,0,3.61.19,2.48,2.48,0,0,0-.46-3.64A2.48,2.48,0,0,0,95.1,9.41c-.15.37.45.53.6.17a1.85,1.85,0,0,1,2.59-.86,1.84,1.84,0,0,1,.25,2.78,1.93,1.93,0,0,1-2.75-.3,2.09,2.09,0,0,1,.76-2.88c.11-.07,0-.23-.11-.18Z"/><path class="cls-5" d="M102.13,12.26a1,1,0,0,0-.18,1.56,1,1,0,0,0,1.66-.17,1.23,1.23,0,0,0-.44-1.82c-.62-.29-1.7-.06-1.8.71,0,.21.24.31.4.23.31-.16.49-.42.88-.38a.55.55,0,0,1,.5.76c-.33.93-1.38,0-.79-.6a.19.19,0,0,0-.23-.29Z"/><path class="cls-5" d="M102.12,7.52a1.7,1.7,0,0,0-.73,2.69,2,2,0,0,0,3.13-.15A2.07,2.07,0,0,0,103.45,7a2,2,0,0,0-1.9.45c-.43.38-.87,1.12-.51,1.66a.21.21,0,0,0,.35,0c.24-.32.29-.7.6-1a1.24,1.24,0,0,1,1.92,1.56,1.34,1.34,0,0,1-2.08.1,1.39,1.39,0,0,1,.42-1.93.17.17,0,0,0-.13-.3Z"/><path class="cls-5" d="M89.75,6.26a2,2,0,1,0,3.34.65c-.33-.86-1.61-1.84-2.53-1.27a.32.32,0,0,0,.07.58c.68.11,1.28.07,1.71.73a1.32,1.32,0,0,1-.56,1.9c-1.47.8-2.73-1.12-1.76-2.31.16-.19-.1-.47-.27-.28Z"/><path class="cls-5" d="M83.25,10.54c-.73.36-.47,1.56.08,2a1.38,1.38,0,0,0,2.06-.94,1.43,1.43,0,1,0-2.64.58c.1.16.38.06.31-.13a1.24,1.24,0,0,1,.49-1.51,1.05,1.05,0,0,1,1.48.91,1,1,0,0,1-1.6.78,1.22,1.22,0,0,1-.1-1.57.06.06,0,0,0-.08-.08Z"/><path class="cls-7" d="M72.55,113a4.81,4.81,0,0,0,0,1.56.22.22,0,0,0,.41,0,4.54,4.54,0,0,0,0-1.56.19.19,0,0,0-.37,0Z"/><path class="cls-7" d="M75,100.43c-.62-.66-1.74.34-1.71,1.07,0,.16.25.25.33.09a1.8,1.8,0,0,1,.56-.74c.27-.17.55-.15.81-.33a.06.06,0,0,0,0-.09Z"/><path class="cls-7" d="M76.58,114.7a10.48,10.48,0,0,0,1,7.37.14.14,0,0,0,.25-.11c-.19-1.2-.61-2.35-.77-3.57s-.07-2.42-.16-3.64a.17.17,0,0,0-.34,0Z"/><path class="cls-7" d="M120.65,97.08a10.35,10.35,0,0,1,1.2,1.74c.07.1.26.11.29,0a1.54,1.54,0,0,0-.34-1.2,2.29,2.29,0,0,0-.43-.45,1.48,1.48,0,0,0-.6-.27.13.13,0,0,0-.12.21Z"/><path class="cls-7" d="M90.6,50.16c-.32.72-.17,2.16.8,2.34a.21.21,0,0,0,.21-.35c-.23-.28-.5-.44-.63-.8a1.36,1.36,0,0,1,0-1c.1-.25-.33-.43-.43-.18Z"/><path class="cls-7" d="M103.85,56.36a2.13,2.13,0,0,0-.52.85c-.12.26-.17.38,0,.64a.2.2,0,0,0,.23.09c.27-.08.33-.2.42-.46a2.3,2.3,0,0,0,.22-1,.2.2,0,0,0-.33-.13Z"/><path class="cls-7" d="M116.52,52.18a3.63,3.63,0,0,0,0,1.14.28.28,0,0,0,.53,0,3.63,3.63,0,0,0,0-1.14c0-.21-.39-.21-.43,0Z"/><path class="cls-7" d="M119.06,55.55a3.07,3.07,0,0,0,0,1.62.17.17,0,0,0,.29,0,3.07,3.07,0,0,0,0-1.62.14.14,0,0,0-.27,0Z"/><path class="cls-7" d="M75.51,56.22a1.38,1.38,0,0,0-1.58,1.39,1.44,1.44,0,0,0,1.59,1.47c.17,0,.14-.26,0-.3a1.38,1.38,0,0,1-1.07-1.17,1.45,1.45,0,0,1,1.06-1.22c.08,0,.1-.16,0-.17Z"/><path class="cls-7" d="M75.21,56.65c-.2.07-.33,0-.49.23a1.14,1.14,0,0,0-.24.59c-.06.37,0,1,.49,1a.18.18,0,0,0,.17-.14c.06-.27-.13-.49-.1-.77a1.5,1.5,0,0,1,.29-.7c.08-.08,0-.24-.12-.19Z"/><path class="cls-7" d="M94.37,30a3.19,3.19,0,0,0,.45,1.33.16.16,0,0,0,.29-.13,3.13,3.13,0,0,0-.6-1.26c0-.06-.15,0-.14.06Z"/><path class="cls-7" d="M99.87,27c-.13.74.23,1.84,1.11,1.91a.12.12,0,0,0,.09-.2,8.17,8.17,0,0,1-.63-.69,2.18,2.18,0,0,1-.35-1c0-.11-.19-.16-.22,0Z"/><path class="cls-7" d="M82.09,47.57a14.68,14.68,0,0,1,1.29-2.41c.52-.75,1.23-1.33,1.73-2.08.08-.12-.07-.23-.18-.18-1.59.72-2.74,2.92-3.15,4.54,0,.18.23.31.31.13Z"/><path class="cls-7" d="M77.45,126.51a3,3,0,0,0-2.5,2.84c0,1.1.94,3,2.25,2.83a.29.29,0,0,0,.2-.49c-.74-.74-1.71-.95-1.77-2.21a2.4,2.4,0,0,1,2-2.39c.38-.08.22-.65-.16-.58Z"/><path class="cls-7" d="M76.56,131.55a4,4,0,0,0-.3,4.5c.63,1.08,2.65,2.82,3.93,1.84a.4.4,0,0,0,0-.68c-.39-.3-.76-.25-1.22-.38a3.17,3.17,0,0,1-1.91-4.89c.13-.3-.25-.68-.5-.39Z"/><path class="cls-7" d="M79.65,138.41a9.21,9.21,0,0,0,1.62-3.31,7.13,7.13,0,0,0,.49-3.69.33.33,0,0,0-.63,0,27.87,27.87,0,0,0-.69,3.46c-.3,1.14-.82,2.19-1.16,3.32-.07.21.23.4.37.22Z"/><path class="cls-7" d="M81.15,132a11,11,0,0,0-1.66-2.69c-.66-1-1.19-2-1.77-3-.3-.53-1.27-.17-1,.43A16.12,16.12,0,0,0,78.63,130a5.83,5.83,0,0,0,2.31,2.18.18.18,0,0,0,.21-.21Z"/><path class="cls-7" d="M77.33,128a1.15,1.15,0,0,0-1.4,1.64c.32.78,1.09,1.08,1.73,1.5,1.74,1.13,2.64,3.27.62,4.81l1.13.47a10.12,10.12,0,0,1-.7-4.65.8.8,0,0,0-1.56-.21,4.26,4.26,0,0,0,.69,3.46.75.75,0,0,0,1.17.15,2.08,2.08,0,0,0,.72-2c-.14-1.28-1.74-2.53-1.45-3.8l-1.47.2a5.07,5.07,0,0,1,.09,4.81h1.25a2.64,2.64,0,0,1-.42-1.91c.1-.94-1.4-1-1.49,0a4,4,0,0,0,.66,2.65.73.73,0,0,0,1.25,0,7.3,7.3,0,0,0,0-6.37.81.81,0,0,0-1.47.19,3,3,0,0,0,.2,2c.32.68,1.95,2.3,1,3.1l1.18.16a2.79,2.79,0,0,1-.44-2.29l-1.57-.21a11,11,0,0,0,.8,5.06.8.8,0,0,0,1.3.34,4.16,4.16,0,0,0,1.55-4.44,4,4,0,0,0-1.28-1.93,4.45,4.45,0,0,0-1-.62l-.38-.17q-1.1-.15-.87-1.56a.23.23,0,0,0,.06-.45Z"/><path class="cls-7" d="M77.19,129c.08.64,0,1.59.49,2.06a.44.44,0,0,0,.68-.08c.33-.6,0-1.48-.1-2.12s-1.14-.46-1.07.14Z"/><path class="cls-7" d="M78,131.29a.05.05,0,0,0,0-.1.05.05,0,1,0,0,.1Z"/><path class="cls-7" d="M78,130.53l.32.71c.24.53,1,.14.9-.38l-.17-.77c-.17-.77-1.41-.35-1.05.44Z"/><path class="cls-1" d="M82,133.77c12.15,5.37,27,3.84,38.87-1.4,1-.44.14-1.88-.84-1.45-12.29,5.39-24.92,5.12-37.78,2.25-.34-.07-.6.44-.25.6Z"/><path class="cls-1" d="M118.68,133.13c.24.64.58,1.24.76,1.91s.07,1.41.24,2.11a.58.58,0,0,0,1,.13c.83-1.42-.23-3.93-1.73-4.46a.26.26,0,0,0-.31.31Z"/><path class="cls-1" d="M119.65,132.37a5.3,5.3,0,0,1-1.18,5.2c-.74.72.36,1.78,1.13,1.13,1.89-1.6,2.56-4.87.5-6.59a.27.27,0,0,0-.45.26Z"/><path class="cls-1" d="M119,137.91c-6.39.35-12.7,1.3-19.11,1.39s-12.75-.89-19.16-1.05a.67.67,0,0,0-.17,1.3c6.13,1.58,13,1.5,19.33,1.35s13-.55,19.18-2.44c.29-.09.25-.57-.07-.55Z"/><path class="cls-1" d="M80.84,139.25c2.53-1,3.12-4.25,2.71-6.61-.12-.75-1.23-.53-1.26.17a10.17,10.17,0,0,1-2,5.48c-.38.56.51,1.26.94.73a10.49,10.49,0,0,0,2.3-6.21l-1.27.17c.81,2.34-.35,4.19-1.66,6-.08.12.06.31.19.26Z"/><path class="cls-1" d="M83.72,135.78c5,2.92,12.38,3.07,18,3a62.63,62.63,0,0,0,18.87-3c1.17-.38.69-2.22-.51-1.86a65.76,65.76,0,0,1-18.36,2.92,67.62,67.62,0,0,1-8.54-.51C90.12,136,87,135,83.94,135a.44.44,0,0,0-.22.81Z"/><path class="cls-1" d="M111.11,137.2a34,34,0,0,0,8-1.92.73.73,0,0,0-.37-1.35,33.91,33.91,0,0,0-7.91,2.4.45.45,0,0,0,.24.87Z"/><path class="cls-1" d="M108.75,136.8a19.52,19.52,0,0,0,11-3,.59.59,0,0,0-.6-1c-3.48,1.48-6.9,2.51-10.5,3.65a.21.21,0,0,0,.06.4Z"/><path class="cls-1" d="M119.09,137c-12.28,1.25-24.38,1.56-36.6-.47-1.13-.19-1.62,1.52-.48,1.73,12.21,2.23,25.12,2.46,37.16-.68.31-.08.26-.62-.08-.58Z"/><path class="cls-1" d="M83,134.57c-.33.72.54,1.78,1,2.27a4.48,4.48,0,0,0,2.75,1.39c.81.07.83-1,.18-1.31a9,9,0,0,1-2.22-1.09,5.05,5.05,0,0,1-.79-.74c-.23-.25-.39-.52-.72-.6a.19.19,0,0,0-.21.08Z"/><path class="cls-1" d="M83.34,136.57a2.14,2.14,0,0,0,1.55,1.17c.63.13,1.43.13,1.65-.6a.29.29,0,0,0-.07-.28,1.69,1.69,0,0,0-1.26-.28,2.92,2.92,0,0,1-.73-.09,4.69,4.69,0,0,1-.86-.2c-.18-.08-.4.09-.28.28Z"/><path class="cls-1" d="M83,134.72l2.35,1.15a5.78,5.78,0,0,0,2.13.78.55.55,0,0,0,.39-.93,5.84,5.84,0,0,0-2-1l-2.45-.91c-.53-.2-.9.67-.39.91Z"/><path class="cls-1" d="M115.28,137.58c1,.59,3.89.45,3.92-1.1a.47.47,0,0,0-.35-.45c-.55-.13-1,.26-1.54.46a5.34,5.34,0,0,1-.76.28c-.35.07-.71,0-1.06,0a.43.43,0,0,0-.21.79Z"/><path class="cls-7" d="M122.24,127.74a4.94,4.94,0,0,0-.84,5.85c.3.56,1.17.06.85-.49a4.42,4.42,0,0,1,.36-5.07c.16-.24-.18-.45-.37-.29Z"/><path class="cls-7" d="M121.78,133.62a16.44,16.44,0,0,0,1-4.47.55.55,0,1,0-1.09-.15,16.42,16.42,0,0,0-.33,4.57.21.21,0,0,0,.39.05Z"/><path class="cls-5" d="M97.14,136.29c-.3.4-.54.83-.8,1.25a.48.48,0,0,0,.17.65c.28.13.56.25.85.36l-.38-.49a2.07,2.07,0,0,1-1,1.91c-.4.31-.2,1.07.38.89a2.7,2.7,0,0,0,1.68-2.8.54.54,0,0,0-.37-.5l-.76-.23.29.69c.23-.44.48-.86.68-1.32a.41.41,0,0,0-.7-.41Z"/><path class="cls-5" d="M99.17,137.05a3.51,3.51,0,0,1-.55,1.78,3,3,0,0,1-.52.65c-.25.22-.42.28-.51.62a.38.38,0,0,0,.27.46c.72.14,1.37-.74,1.64-1.32a3.06,3.06,0,0,0,.18-2.26.26.26,0,0,0-.51.07Z"/><path class="cls-5" d="M98.16,138.82a6.84,6.84,0,0,0-.8.52l.51.65a2.29,2.29,0,0,0,.42-3.18.37.37,0,0,0-.36-.1c-.5.1-.16.78-.1,1.06a1.63,1.63,0,0,1-.55,1.63c-.41.35.18.94.59.59a5.32,5.32,0,0,0,.7-.64.34.34,0,0,0-.41-.53Z"/><path class="cls-5" d="M97.65,137.55a1.74,1.74,0,0,0,1.53-.11.27.27,0,0,0,0-.39,1.74,1.74,0,0,0-1.53-.11.32.32,0,0,0,0,.61Z"/><path class="cls-5" d="M97.6,139.9a1.36,1.36,0,0,0,.84-.42.26.26,0,0,0-.19-.44,1.33,1.33,0,0,0-.93.19c-.39.21-.1.73.28.67Z"/><path class="cls-5" d="M80.28,131c0-.41,0-.83,0-1.25,0-.05-.09-.05-.09,0,0,.42,0,.84,0,1.25,0,.06.07.06.08,0Z"/><path class="cls-5" d="M79.88,129.3a30.45,30.45,0,0,0-2.73,5.59c-.12.3.35.48.51.21a30.72,30.72,0,0,0,2.72-5.59c.1-.3-.34-.46-.5-.21Z"/><path class="cls-8" d="M82.85,34c.79,2.81,0,5.85-2.73,7.22a.56.56,0,0,0,.28,1c3.06-.11,5.6,1.93,5.12,5.23h1.3c-.53-1.84-1.56-5.85,1.59-6.21.74-.09,1.09-1.29.2-1.44-2.91-.51-3.6-2.59-4.27-5.09a.56.56,0,0,0-1.06,0c-1.09,3.11,2.1,6,4.94,6.5l.19-1.44c-4.21.48-3.92,5-2.89,8a.67.67,0,0,0,1.32-.18,5.66,5.66,0,0,0-6.58-6.5l.43,1c2.85-1.81,4.45-5.29,2.91-8.5-.21-.43-.88-.13-.75.31Z"/><path class="cls-8" d="M83.75,39.62a7.58,7.58,0,0,1-.43,1.06h.79c-.26-.37-.54-.72-.83-1.06-.43-.52-1.18.23-.74.74a2.76,2.76,0,0,0,2.83.84.57.57,0,0,0,.34-.82,1.79,1.79,0,0,0-1.53-1c-.57,0-1.43.19-1.53.84a.49.49,0,0,0,.59.59c.3,0,.51-.27.82-.26a.86.86,0,0,1,.69.35l.2-.76a1.38,1.38,0,0,1-1.59-.46l-.82.64a11.63,11.63,0,0,0,.85.87.46.46,0,0,0,.76-.44,7.37,7.37,0,0,1,0-1c0-.21-.33-.33-.43-.12Z"/><path class="cls-8" d="M82.62,40.81A2.33,2.33,0,0,0,84,42.08c.53.23,1.53.43,1.88-.2a.53.53,0,0,0,0-.62c-.24-.31-.59-.26-.93-.22a3.24,3.24,0,0,1-2-.44c-.14-.08-.26.08-.21.21Z"/><path class="cls-8" d="M83.67,40.05c.2.2.38.42.57.62.44.46,1.3-.16.9-.69s-.75-.91-1.15-1.35a.64.64,0,0,0-1.08.45A2.56,2.56,0,0,1,82,41c-.62.53.28,1.42.89.89a3.72,3.72,0,0,0,1.3-2.8l-1.09.45c.38.39.74.79,1.15,1.14l.7-.9c-.23-.16-.47-.29-.69-.46-.44-.32-1,.37-.58.74Z"/><path class="cls-8" d="M84.69,40.06c.06.47.42.7.71,1,.57.63,1.42-.54.69-.88-.41-.18-.76-.48-1.22-.39a.25.25,0,0,0-.18.24Z"/><path class="cls-8" d="M117.59,45.75c.39,1.7,1.4,5.82-1.24,6.48-.78.2-.43,1.28.32,1.18,2.76-.37,3.12,7.75,3.11,9.06l1.37-.19c-.47-2.29-1-4.79.62-6.72a6.85,6.85,0,0,1,4.06-2.37.72.72,0,0,0,.19-1.4c-2.89-.78-6.61-2.33-7.11-5.67-.12-.82-1.57-.63-1.45.2.53,4,4.68,5.89,8.18,6.84l.19-1.4A8.34,8.34,0,0,0,120.4,55c-1.68,2.19-1.08,5.09-.6,7.61.16.79,1.36.58,1.37-.18a17.23,17.23,0,0,0-1.64-8.06c-.71-1.51-1.45-2.42-3.18-2.18l.32,1.18c3.06-.8,3.58-6,1.3-7.88a.23.23,0,0,0-.38.22Z"/><path class="cls-8" d="M118.57,52.05a7.68,7.68,0,0,0-1.33.7.53.53,0,0,0-.1.81c.85,1,2.78,1.43,3.61.16a1.64,1.64,0,0,0-1.84-2.39A1.64,1.64,0,1,0,121,52.42c-.21-.81-1.61-.68-1.51.21a.32.32,0,0,1-.11.33s0,0,0,0-.06-.14,0-.18,0-.07,0,0,.1,0,.09.09-.26.18-.39.2c-.53.08-1-.31-1.46-.44l.23.87a7.2,7.2,0,0,0,.94-1.2.21.21,0,0,0-.24-.31Z"/><path class="cls-8" d="M121.1,53.05c-.18-.12-.34-.26-.51-.39-.84-.67-1.28.93-.38.9.26,0,.5,0,.75,0a.27.27,0,0,0,.14-.51Z"/><path class="cls-8" d="M120.86,53.43c-.53.34-1,.65-1.57,1a.57.57,0,1,0,.79.79c.37-.51.68-1,1-1.56a.18.18,0,0,0-.24-.25Z"/><path class="cls-8" d="M118.35,50.73c-.23.26-.47.48-.71.71a.77.77,0,0,0-.28.66.36.36,0,0,0,.54.31.77.77,0,0,0,.43-.57c.09-.32.17-.63.29-1a.16.16,0,0,0-.27-.16Z"/><path class="cls-8" d="M77.34,68.88c.72,3.18-.33,6.67-3.66,7.85-.51.19-.48,1.09.14,1,4.11-.44,4.62,4.25,4.63,7.26l1.11-.15c-.4-2.46-.75-6,2.33-6.82a.59.59,0,0,0,.26-1c-2.49-2.07-3.45-4.68-3.83-7.81a.64.64,0,0,0-1.28,0,10.26,10.26,0,0,0,4.29,8.64l.25-1C77.86,78,78,82,78.47,85.16c.1.64,1.11.47,1.11-.15,0-3.62-1-9.2-5.9-8.28l.4,1c3.36-1.46,5.56-5.54,3.74-9-.14-.27-.54-.07-.48.21Z"/><path class="cls-8" d="M78.08,76.09a1.61,1.61,0,0,0,0,2.26.51.51,0,0,0,.84-.22,3.66,3.66,0,0,0-.62-3.2c-.35-.44-.94,0-1,.41A14.25,14.25,0,0,1,76.92,77l.8-.33a.56.56,0,0,1-.2-.64h-1c0,.31,0,.62,0,.93a.5.5,0,0,0,1,0c0-.31,0-.62,0-.93,0-.6-.88-.69-1-.14a1.54,1.54,0,0,0,.68,1.72.55.55,0,0,0,.8-.33,13.76,13.76,0,0,1,.48-1.81l-1.06.14A4,4,0,0,1,77.93,78l.76-.44a.67.67,0,0,1-.19-1c.24-.29-.14-.69-.42-.42Z"/><path class="cls-8" d="M76.44,77.19a2.79,2.79,0,0,0,2,0,.55.55,0,0,0-.29-1.06A2.64,2.64,0,0,0,76.4,77a.13.13,0,0,0,0,.18Z"/><path class="cls-8" d="M76.06,77.47a3.87,3.87,0,0,0,1.18-.42,2.35,2.35,0,0,0,1-.66c.28-.37-.18-.78-.54-.71a2.89,2.89,0,0,0-1.1.71,3.49,3.49,0,0,0-.78.8c-.1.15.07.3.22.28Z"/><path class="cls-8" d="M77.81,75.14a2.31,2.31,0,0,0,2.42,2.73.66.66,0,0,0,0-1.32,1.74,1.74,0,0,1-1.64-1.41.4.4,0,0,0-.78,0Z"/><path class="cls-8" d="M77.43,75c0,.14-.06.24-.05.39a3,3,0,0,0,.08.41,2.69,2.69,0,0,0,.44.92,3.15,3.15,0,0,0,1.66,1.16.64.64,0,0,0,.34-1.23,2.78,2.78,0,0,1-1.17-.74,3.57,3.57,0,0,1-.41-.55c0-.09-.08-.22-.14-.31s-.16-.23-.13-.13a.32.32,0,0,0-.62.08Z"/><path class="cls-8" d="M78.79,77.89c-.25.49-.81.13-1.23.33a.49.49,0,0,0-.09.76c.32.36.78.22,1.13,0a1.39,1.39,0,0,0,.52-.92c0-.19-.23-.34-.33-.14Z"/><path class="cls-8" d="M78.38,78.24a5.13,5.13,0,0,1-1.4-1,.57.57,0,1,0-.49.86,5.12,5.12,0,0,1,1.6.68.29.29,0,0,0,.29-.51Z"/><path class="cls-8" d="M76.62,77a3.38,3.38,0,0,0,1.89-2.33c.21-.74-1.06-.88-1-.13a2.23,2.23,0,0,1-1.16,2c-.3.17,0,.61.28.46Z"/><path class="cls-8" d="M78,74.58c.08.49.16,1,.26,1.47a2.19,2.19,0,0,0,.47,1.2.34.34,0,0,0,.57-.15,2.11,2.11,0,0,0-.3-1.26c-.21-.48-.43-.94-.65-1.41-.1-.21-.39-.05-.35.15Z"/><path class="cls-8" d="M123.48,100.65a3.73,3.73,0,0,1-1.73,4.85c-.62.32-.25,1.13.32,1.19,2.39.24,2.62,2.78,2.71,4.64l1.37-.19a4.32,4.32,0,0,1,1.83-5.46.71.71,0,0,0-.16-1.28,3.29,3.29,0,0,1-2.54-2.91c-.11-.94-1.6-.94-1.49,0a4.75,4.75,0,0,0,3.65,4.26l-.17-1.28a5.68,5.68,0,0,0-2.47,7c.27.68,1.42.67,1.38-.18-.12-2.56-.85-6.09-4.11-5.91l.32,1.18a5,5,0,0,0,1.91-6.29.45.45,0,0,0-.82.34Z"/><path class="cls-8" d="M124.46,104.66a10.29,10.29,0,0,1-.52,1.44l1.18.5a3.91,3.91,0,0,0,.07-1.67.71.71,0,0,0-1.41,0,4.08,4.08,0,0,0,.09,1.67c.23.63,1.36.6,1.28-.18a10.26,10.26,0,0,1,0-1.66c0-.43-.6-.48-.73-.1Z"/><path class="cls-8" d="M124.43,104.79a6.37,6.37,0,0,0,1,.75c.8.47,1.41-.82.51-1.2a5.47,5.47,0,0,0-1-.3c-.41-.08-.8.43-.44.75Z"/><path class="cls-8" d="M125.49,105.05c-.91,0-2.19,1.09-1.32,2a.44.44,0,0,0,.62,0,1.3,1.3,0,0,0,.45-.77,1.57,1.57,0,0,1,.39-.89c.1-.12,0-.35-.14-.34Z"/><path class="cls-8" d="M72,103.76c-.17,2.7.12,4.83-1.33,7.32a.62.62,0,0,0,.22.84c2.63,1.78,2.76,4.87,3,7.75l1.3-.17a6.58,6.58,0,0,1,1.92-6.87.64.64,0,0,0-.13-1,8.35,8.35,0,0,1-3.65-7.4c0-1-1.43-1-1.52,0a8.89,8.89,0,0,0,4.54,8.48l-.13-1a7.85,7.85,0,0,0-2.31,8.1.66.66,0,0,0,1.3-.18c0-3.38-.49-7-3.65-8.81l.22.84c1.26-2.31,2.16-5.65.63-8a.2.2,0,0,0-.36.1Z"/><path class="cls-8" d="M72.79,111a2.25,2.25,0,0,0-.11,2.38,1.34,1.34,0,0,0,2,.33,1.69,1.69,0,0,0,.26-2,2.82,2.82,0,0,0-2.2-1.22.76.76,0,0,0-.91.52.75.75,0,0,0,.52.91c.34.06,1.74.19,1.53.84-.11.31-.43-.07-.5-.24a2.93,2.93,0,0,1,0-1.38c0-.34-.48-.45-.63-.17Z"/><path class="cls-8" d="M73.36,110.71c0,.31-.19.47-.08.81a3.45,3.45,0,0,0,2.46,2.06c.71.07.7-.92.15-1.15a3.65,3.65,0,0,1-1.38-.75,5.7,5.7,0,0,1-.48-.62c-.12-.17-.32-.24-.43-.38s-.22-.1-.24,0Z"/><path class="cls-8" d="M116.4,59.68a3.78,3.78,0,0,1,.17,1.7,10.88,10.88,0,0,1-.54,1.44.22.22,0,0,0,.27.27c1.3-.51,1.53-2.73.55-3.67a.27.27,0,0,0-.45.26Z"/><path class="cls-8" d="M110.12,100.81a28.83,28.83,0,0,0,1.89,2.43c.56.78.91,1.73,1.52,2.45.2.24.51,0,.47-.27a7.27,7.27,0,0,0-1.55-2.79,6.05,6.05,0,0,0-2.12-2c-.14-.06-.29.06-.21.21Z"/><path class="cls-8" d="M114.13,67.54a4.75,4.75,0,0,0,.09,4.51.61.61,0,0,0,1.11-.47,14.15,14.15,0,0,1-.45-2c0-.63,0-1.26,0-1.89a.4.4,0,0,0-.74-.2Z"/><path class="cls-8" d="M86.44,95.46c2.87,2.2,8.06,1.7,11.43,1.27s7.84-1.2,10.42-3.53c.43-.39,0-1-.53-.91-1.77.36-3.4,1.33-5.14,1.86a29.46,29.46,0,0,1-6,1.18,31.8,31.8,0,0,1-5.07,0c-1.74-.13-3.33-.57-5.05-.25-.17,0-.15.24,0,.33Z"/><path class="cls-8" d="M94.44,72.46a6.55,6.55,0,0,0,1.92.22c.64,0,1.27.27,1.74-.26a.53.53,0,0,0,0-.73c-.58-.48-1.08-.17-1.75-.06a6.51,6.51,0,0,0-1.95.5.18.18,0,0,0,0,.33Z"/><path class="cls-1" d="M84,12a.73.73,0,0,0,0-1.45A.73.73,0,0,0,84,12Z"/><path class="cls-1" d="M83.59,11.27c.12,1,1.67.26,1.14-.42a.33.33,0,0,0-.6.26c0,.1,0,.1,0,0s-.1,0-.07,0c-.12-.2-.51-.14-.48.13Z"/><path class="cls-1" d="M89.34,10.91a1.28,1.28,0,0,0,.32,1.82,1.18,1.18,0,0,0,1.78-.64,1.16,1.16,0,0,0-1-1.62,1.28,1.28,0,0,0-1.26,1.64.64.64,0,0,0,.58.45c.48,0,1.18,0,1.47-.41a.31.31,0,0,0,0-.31c-.25-.46-1-.48-1.47-.5l.53.3c.09.21.11-.07.19,0a.82.82,0,0,1-.11.29c-.42.43-.64-.44-.57-.74s-.29-.52-.48-.28Z"/><path class="cls-1" d="M90.32,6.17a1.69,1.69,0,0,0-.17,2.76,1.47,1.47,0,0,0,2.4-.74c.18-.92-.65-2-1.64-1.58a1.29,1.29,0,0,0-.24,2.24l.27-1c.13,0-.13-.09-.1.11s.17.18.2.23a.4.4,0,0,0,.62.08c.74-.81-.55-1.8-1.34-1.29a1.08,1.08,0,0,0,.62,1.93.54.54,0,0,0,.27-1c-.1-.06,0-.36.14-.37s.29.53.16.66c-.29.32-.86,0-1-.28-.23-.48.09-1,.26-1.44.11-.27-.23-.43-.44-.33Z"/><path class="cls-1" d="M97.44,8.88c-.92-.67-1.85.7-1.83,1.53a1.69,1.69,0,0,0,2.27,1.42,1.6,1.6,0,0,0,.69-2.63,1.65,1.65,0,0,0-2.8.37,1.63,1.63,0,0,0,.35,1.66,1.24,1.24,0,0,0,1.46.35.36.36,0,0,0-.09-.65c-.06,0-.31-.17-.19-.07a1,1,0,0,1-.21-.31c0-.11-.12-.46,0-.58s.8.22.72.51c-.12.45-1,.43-1.14,0-.27-.58.43-1.14.81-1.46a.12.12,0,0,0,0-.19Z"/><path class="cls-1" d="M96.94,10.16a.74.74,0,0,0,.38,1,.72.72,0,0,0,1-.37.33.33,0,0,0-.22-.4,1,1,0,0,1-.35-.12.67.67,0,0,1-.18-.11c-.1-.07-.1-.08,0,0-.07-.3-.48-.25-.57,0Z"/><path class="cls-1" d="M102.55,8c-.88-.26-1.36,1-1,1.66.53,1,1.92.54,2.19-.42s-1-2.21-1.9-1.33a1.07,1.07,0,0,0,0,1.51c.37.28,1,.18.94-.34a.8.8,0,0,0-.11-.38c0-.07,0,0,0,0s0,.07,0,.12,0,.35-.16.4-.22-.11-.23-.26a.6.6,0,0,1,.35-.53.24.24,0,0,0-.06-.43Z"/><path class="cls-1" d="M102.14,12.3l0,.11a.42.42,0,0,0,.14.56.36.36,0,0,0,.32,0,.43.43,0,0,0,.3-.4v-.12c0-.33-.54-.57-.71-.19Z"/><path class="cls-1" d="M101.71,13c0,.78,1.08.73,1.32.09.17-.47-.71-.6-.67-.09,0-.11-.06,0-.09-.08a.29.29,0,0,0-.56.08Z"/><path class="cls-1" d="M101.78,13a.77.77,0,0,0,1.13,0c.25-.27-.15-.67-.4-.4h-.32c-.27-.26-.68.15-.41.41Z"/><path class="cls-9" d="M78.5,68A243.87,243.87,0,0,1,79.76,93.6a.11.11,0,0,0,.22,0A226.42,226.42,0,0,0,78.63,68c0-.08-.14-.08-.13,0Z"/><path class="cls-9" d="M117,66.38a164,164,0,0,0,.84,26.31c0,.14.24.14.23,0-.82-8.79-.85-17.5-1-26.31a0,0,0,0,0-.06,0Z"/><path class="cls-9" d="M78.94,94.73c11.77,5,27.25,3.9,38.35-2.34.17-.1,0-.34-.15-.26a52.36,52.36,0,0,1-19.22,5.2c-6.55.37-12.71-.83-19-2.66,0,0,0,0,0,.06Z"/><path class="cls-9" d="M78.08,67c12,4.88,26.55,3.49,38.18-1.78.29-.13,0-.54-.24-.42a51.34,51.34,0,0,1-19.14,4.6,60.06,60.06,0,0,1-18.74-2.62c-.14,0-.19.16-.06.22Z"/><path class="cls-9" d="M89.82,22.31c2.37,10-6.56,17.9-10.86,26-3,5.68-5,13,0,18.27.2.21.51-.1.31-.31-6.56-7-.85-16.78,3.39-23.34,4-6.26,9.82-12.65,7.49-20.68a.14.14,0,0,0-.28.07Z"/><path class="cls-9" d="M104.8,18.87c-3.22,8,2.55,16,7.09,22.11,4.89,6.63,11.1,17.22,3.5,24.4a.23.23,0,0,0,.32.33c5.53-5.2,3.86-13.59.37-19.43-5-8.44-14.46-16.44-11-27.35,0-.15-.19-.21-.24-.06Z"/><path class="cls-9" d="M79.75,94.87c-5,4-6.74,11.35-6.19,17.48.64,7.19,4.25,14.59,8.84,20.09.13.16.4-.05.29-.23-3.81-6.06-7.68-11.84-8.56-19.16a22.42,22.42,0,0,1,5.78-18,.11.11,0,0,0-.16-.16Z"/><path class="cls-9" d="M117.86,92.3a53.49,53.49,0,0,1,4.66,9.41,37.71,37.71,0,0,1,.79,20.81c-.87,3.49-2.5,6.48-4,9.73a.16.16,0,0,0,.27.16c4.24-5.51,5.55-14,5.23-20.73s-2.32-14.41-6.78-19.54a.14.14,0,0,0-.22.16Z"/><path class="cls-9" d="M82,132.06c5.2,3.69,13,4.67,19.21,4.56a38.85,38.85,0,0,0,19.14-5.07.21.21,0,0,0-.21-.36,44.62,44.62,0,0,1-19.33,4.95,41.29,41.29,0,0,1-9.6-1C88,134.37,85.08,133,82,132c0,0-.07,0,0,.07Z"/><path class="cls-9" d="M77.83,125.65c-1.53.77-3.56,2-3.41,4,.07,1,.54,1.21,1,1.92s.47,0,.19,1.16c-1.43,6.06,6.81,6.91,10.86,7.35,8.16.87,16.59.2,24.76-.29,2.67-.16,6.6.16,9-1.29,2.2-1.32,1-5,3-6a.22.22,0,0,0,.12-.2q-.26-2.79-.5-5.58c0-.29-.5-.3-.47,0,.18,2.08.66,4.11-.19,5.93-.54,1.15-.37,2.33-.8,3.48-1.16,3.06-5,2.79-7.72,3s-5.51.34-8.27.46c-5,.2-10,.55-15,.32a53.58,53.58,0,0,1-8.84-1,9.13,9.13,0,0,1-3.76-1.53c-1.71-1.3-2.58-3.74-1.14-5.62.09-.13,0-.28-.17-.29l-1.62-1.39a3.07,3.07,0,0,1,1.31-3,12.81,12.81,0,0,1,1.76-1.22c.1-.06,0-.21-.1-.16Z"/><path class="cls-9" d="M95.83,15.28s0,0,0,0,0,0,0,0Z"/><path class="cls-9" d="M96.52,15.44c-2.13,0-8.54.8-8.26,4.13.3,3.55,8,1.85,9.92,1.58,1.34-.18,9.14-.76,6.95-3.92-.9-1.3-3.17-1.58-4.55-1.77a17.16,17.16,0,0,0-8,.82c-.22.07-.13.41.09.34A16.55,16.55,0,0,1,101.4,16a11.86,11.86,0,0,1,2.33.72q.88,3-1.41,3.16a13.14,13.14,0,0,1-3.31.66c-1.41.23-2.83.39-4.25.48-1,.06-2.64.4-3.6.08q-3.81-2.76-.76-4.05a12.3,12.3,0,0,1,2.19-.9,14.11,14.11,0,0,1,3.93-.58.07.07,0,0,0,0-.13Z"/><path class="cls-9" d="M95.83,16.6a6.7,6.7,0,0,0-4.06,1.9.09.09,0,0,0,0,.15c1.24.22,10.26,1.28,10-.93-.11-.87-2.06-1-2.6-1.14a9.4,9.4,0,0,0-5.72.82c-.06,0,0,.12,0,.1a13.11,13.11,0,0,1,4.38-.81c.55,0,2.1,0,2.52.4,1.78,1.66-1.34,1.61-1.87,1.66a23.23,23.23,0,0,1-4.49,0l-1.47-.18c-.44-.31-.38-.54.16-.7.62-.8,2.18-1.07,3.08-1.19.08,0,.08-.13,0-.12Z"/><path class="cls-9" d="M93.54,36.1a24.61,24.61,0,0,0,2.52-1c.06,0,0-.11,0-.1-.85.24-1.69.61-2.51.93-.07,0,0,.15,0,.12Z"/><path class="cls-9" d="M97.42,35.43c.69,0,1.38-.11,2.06-.18.17,0,.17-.27,0-.25-.68.07-1.37.16-2.06.25-.11,0-.11.19,0,.18Z"/><path class="cls-9" d="M102.9,36.59a3.47,3.47,0,0,0,1.42.19c.06,0,.06-.09,0-.12a3.67,3.67,0,0,0-1.4-.27.1.1,0,0,0,0,.2Z"/><path class="cls-9" d="M90.05,36.63a.69.69,0,0,0,1-.32s0-.08-.08-.05a.69.69,0,0,1-.86.25c-.08,0-.16.08-.07.12Z"/><path class="cls-9" d="M93.72,37.22c0,1.22.11,2.45.22,3.66,0,.08.13.08.13,0,0-1.22-.13-2.45-.25-3.66a.05.05,0,0,0-.1,0Z"/><path class="cls-9" d="M104.4,38.66a14.67,14.67,0,0,1,1.19,5.42.1.1,0,1,0,.19,0,11.16,11.16,0,0,0-1.16-5.55c-.07-.14-.28,0-.22.13Z"/><path class="cls-9" d="M83.7,40.37c-.26,1.71,1.12,3,1,4.73,0,.08.12.1.14,0,.36-1.69-1.27-3-1.1-4.73a0,0,0,0,0-.09,0Z"/><path class="cls-9" d="M88.5,69.11c-4.23-5.26-5.14-11.61-3.28-18a.06.06,0,1,0-.11,0,18.31,18.31,0,0,0,3.31,18.11s.12,0,.08-.08Z"/><path class="cls-9" d="M81.45,68a10.86,10.86,0,0,1-2.24-5.69c0-.12-.2-.12-.19,0A10.61,10.61,0,0,0,81.34,68c0,.07.16,0,.11-.08Z"/><path class="cls-9" d="M78.79,50.37a36.44,36.44,0,0,0,1.08,10.71.11.11,0,0,0,.22,0,28.19,28.19,0,0,0,.2-7.73c0-.13-.22-.13-.2,0a29.26,29.26,0,0,1,.18,3.86c0,.87,0,4.82-.64,1.94a39.14,39.14,0,0,1-.76-8.78s-.07,0-.08,0Z"/><path class="cls-9" d="M89.42,45.1a6.61,6.61,0,0,1,.72,3.78c-.09.74-.37,1.43-.45,2.16s0,1.51.79,1.73a1.44,1.44,0,0,0,1.58-.88c.76-1.66-1-3.37-.47-5.13,0-.1-.11-.16-.15-.07a2.79,2.79,0,0,0-.12,2,8.81,8.81,0,0,1,.58,1.87c.36,1-.32,1.28-2,.9a5.54,5.54,0,0,1,.2-1.15A7.3,7.3,0,0,0,89.57,45c0-.11-.2,0-.15.09Z"/><path class="cls-9" d="M101.88,53.57c1.53.86.15,3,.38,4.28A1.28,1.28,0,0,0,103.47,59a1.69,1.69,0,0,0,1.42-1.62c.14-1.75-1.64-3.17-.51-4.92.05-.08-.07-.18-.13-.1a2.16,2.16,0,0,0-.42,1.81,16.51,16.51,0,0,0,.65,1.95,3.47,3.47,0,0,1,.18,1.53,1.14,1.14,0,0,1-2.21.11c-.36-1.37,1.18-3.44-.49-4.38a.09.09,0,0,0-.08.15Z"/><path class="cls-9" d="M110.24,46.47a17,17,0,0,1,.19,7.09.08.08,0,0,0,.15.06,7.79,7.79,0,0,0,.9-6.49c-.2-.6-1.41-2-1.63-.62a.08.08,0,0,0,.15,0c.87-.26,1.33,0,1.37.85a6.74,6.74,0,0,1,.25,1.34,6.37,6.37,0,0,1,0,1.38,7.25,7.25,0,0,1-.38,1.78,7.7,7.7,0,0,1-.56,1.24c0-.12,0-.24,0-.36-.09-1,.21-2.05.16-3.05a15.9,15.9,0,0,0-.53-3.29.06.06,0,0,0-.12,0Z"/><path class="cls-9" d="M116.74,49.32c.78,1.24-.48,2.44-.71,3.66-.12.63-.68,1.45-.63,2.08,0,0,0,.07.06.08.74.19.84-1.89.94-2.19.39-1.2,1.29-2.57.87-3.88,0-.12-.24-.06-.2.06.39,1.15-.36,2.43-.73,3.5-.13.36-.21.72-.31,1.08a10.25,10.25,0,0,1-.38,1c.07-.19.16-.36.23-.55a5.79,5.79,0,0,0,.29-.92,10.46,10.46,0,0,1,.74-2,1.74,1.74,0,0,0-.1-2s-.1,0-.07,0Z"/><path class="cls-9" d="M119.08,53.88a3.33,3.33,0,0,1,0,4.83c-.11.1.05.26.16.16a3.5,3.5,0,0,0-.09-5.08c-.06,0-.15,0-.09.09Z"/><path class="cls-9" d="M76.36,52.82c.11,2.07-2.66,3.21-2.2,5.29a1.25,1.25,0,0,0,2.13.7c.07-.08,0-.2-.12-.12l-1.3.17-.51-1.63a2.46,2.46,0,0,1,.44-1c.27-.45.66-.84,1-1.27a3,3,0,0,0,.7-2.18c0-.07-.12-.08-.12,0Z"/><path class="cls-9" d="M94.24,37.69c0,.48.09,1,.14,1.45a3.8,3.8,0,0,0,.19,1.11.11.11,0,0,0,.2,0,3.55,3.55,0,0,0-.1-1.12c-.07-.48-.14-1-.23-1.44,0-.11-.21-.08-.2,0Z"/><path class="cls-9" d="M99.83,65.92A23.75,23.75,0,0,0,100,69.6a.08.08,0,0,0,.16,0,25.13,25.13,0,0,0,0-3.68c0-.18-.28-.18-.27,0Z"/><path class="cls-9" d="M100.09,65.23c0,1-.07,2,0,3,0,.08.14.08.14,0,.06-1,0-2,0-3,0-.07-.12-.07-.12,0Z"/><path class="cls-9" d="M92.45,63.87a7.08,7.08,0,0,0,2.64,4.87c.11.08.24-.1.15-.2a8.84,8.84,0,0,1-2.64-4.69c0-.08-.16-.06-.15,0Z"/><path class="cls-9" d="M85.09,68.84a4.2,4.2,0,0,1-1.44-1.55,9.35,9.35,0,0,1-.55-1.85.09.09,0,0,0-.18,0c-.32,1.39,1,2.9,2.09,3.53a.08.08,0,0,0,.08-.13Z"/><path class="cls-9" d="M81.31,95.57a8,8,0,0,0-2.16,6.53c0,.14.24.1.25,0a10.37,10.37,0,0,1,2-6.39c.06-.08-.06-.18-.13-.11Z"/><path class="cls-9" d="M84,132.64a22.32,22.32,0,0,1-3.68-12,.1.1,0,0,0-.19,0,17,17,0,0,0,3.75,12.15c.06.07.17,0,.12-.1Z"/><path class="cls-9" d="M87.73,97.44a12.69,12.69,0,0,0-1.76,8.3c0,.11.19.08.19,0a19.38,19.38,0,0,1,1.72-8.18.09.09,0,0,0-.15-.09Z"/><path class="cls-9" d="M114.79,94a31.89,31.89,0,0,1,1.93,3.09A26.34,26.34,0,0,1,118,101c0,.12.24.1.23,0a11.71,11.71,0,0,0-3.34-7c-.06-.06-.18,0-.13.1Z"/><path class="cls-9" d="M105.75,98.93a10.72,10.72,0,0,1,1.64,4.07c0,.09.17.07.17,0A7.7,7.7,0,0,0,106,98.79c-.1-.15-.34,0-.24.14Z"/><path class="cls-9" d="M98,97.48a68.58,68.58,0,0,0-.25,6.87c0,.13.2.13.21,0a68.51,68.51,0,0,0,.18-6.87.07.07,0,0,0-.14,0Z"/><path class="cls-9" d="M92.23,135.18a33.92,33.92,0,0,1-4.37-9.12.13.13,0,0,0-.25.07,21.71,21.71,0,0,0,4.46,9.17c.07.09.23,0,.16-.12Z"/><path class="cls-9" d="M87.44,122.39c-.42-2.29-.75-4.62-1.29-6.88,0-.15-.25-.08-.23.06.33,2.31.89,4.59,1.36,6.87,0,.1.18.06.16,0Z"/><path class="cls-9" d="M98.54,126.31c0-1.45-.07-2.9-.09-4.35,0-.22-.36-.22-.34,0,.1,1.45.18,2.9.28,4.35a.07.07,0,0,0,.15,0Z"/><path class="cls-9" d="M97.53,114.87c.09-.9.25-1.83.25-2.74,0-.12-.19-.15-.21,0-.14.91-.13,1.85-.18,2.77,0,.1.13.1.14,0Z"/><path class="cls-9" d="M99.63,136.6c.05-1.75.13-3.52.05-5.26a.08.08,0,1,0-.16,0c-.11,1.74,0,3.51,0,5.26a.07.07,0,0,0,.14,0Z"/><path class="cls-9" d="M105.63,136a29.21,29.21,0,0,0,4.12-10.82c0-.23-.3-.32-.35-.1A49.29,49.29,0,0,1,105.54,136c0,.07,0,.12.09.06Z"/><path class="cls-9" d="M114.14,134.56a19.28,19.28,0,0,0,4.2-11c0-.13-.21-.17-.23,0a25.34,25.34,0,0,1-4.07,11c-.05.06,0,.12.1.06Z"/><path class="cls-9" d="M120.13,107.87a6.76,6.76,0,0,1,.26,5.6h.32a13.57,13.57,0,0,1-.74-5.25c0-.18-.27-.18-.28,0a14.67,14.67,0,0,0,.7,5.34.17.17,0,0,0,.32,0,6.22,6.22,0,0,0-.46-5.76.07.07,0,0,0-.12.07Z"/><path class="cls-9" d="M104.67,108.52c-.15.78-.29,1.57-.41,2.35a8.47,8.47,0,0,0-.21,1.66,1,1,0,0,0,1,1.06,1.55,1.55,0,0,0,1.33-.9c.41-.93-.2-2-.66-2.78-.08-.14-.3,0-.22.13a3.28,3.28,0,0,1,.7,2.41c-.29.94-1.73,1.3-1.92.08a8.91,8.91,0,0,1,.3-2.27c.08-.57.15-1.15.21-1.72a.07.07,0,0,0-.14,0Z"/><path class="cls-9" d="M99.4,106.18c.23,3.74.62,7.48.95,11.22.06.66-.21,2.85,1,2.92,2.51.14-.11-12.48-.41-14.2,0-.09-.13-.1-.18-.05q-.67.57-1.29,1.2c-.06.06,0,.15.09.1,1.51-1.21,1.45.39,1.64,1.62s.36,2.49.51,3.73c.11,1,.21,1.89.3,2.84.05.63.11,1.26.15,1.89.38.9.14,1.21-.71.91-.81.23-1.1-.09-.86-1l-.17-1.87c-.08-.94-.17-1.87-.25-2.81-.2-2.18-.37-4.36-.63-6.54a0,0,0,0,0-.09,0Z"/><path class="cls-9" d="M88.54,103.87c-.84,6-1.39,12.85,3.34,17.5.07.06.21,0,.17-.1a34.72,34.72,0,0,1-1.38-17.33.11.11,0,0,0-.1-.14,2,2,0,0,0-2.16,1.9c0,.1.13.14.15,0q2.1-2.1,1.69-.55l-.06.45a13.85,13.85,0,0,1-.19,1.77,34,34,0,0,0-.06,4.4,50.51,50.51,0,0,0,1.37,7.83c.52,2.47-1.15-.65-1.56-1.43a14.44,14.44,0,0,1-1.31-4c-.63-3.43-.15-6.9.25-10.32,0-.08-.14-.1-.15,0Z"/><path class="cls-9" d="M92.37,125.15a40.09,40.09,0,0,0,.24,4.39c.09.65.36,1.37,1.14,1.33a1.41,1.41,0,0,0,1.2-1.29c.14-1.31-1-2.5-1.13-3.77,0-.11-.21-.11-.22,0-.16,1.12,2.07,4,.52,4.64s-1.31-1.81-1.36-2.43c-.07-1-.15-1.91-.24-2.87,0-.09-.15-.09-.15,0Z"/><path class="cls-9" d="M81.55,102.8c.85,1.15-.06,2.48.22,3.75.15.66.58,1.33,1.34,1.28a1.51,1.51,0,0,0,1.25-1.27c.32-1.51-1.08-2.7-.6-4.27,0-.15-.2-.26-.27-.11a2.51,2.51,0,0,0-.06,1.81c.13.45.35.87.47,1.32a2.71,2.71,0,0,1,.16,1c-.07.84-1.19,1.58-1.75.72-.86-1.32.5-3-.65-4.29a.07.07,0,0,0-.11.09Z"/><path class="cls-9" d="M79.7,106.17c-.34,4-.72,8.63.11,12.64.17.79.86,2.54,1.92,1.47.58-.58.22-1.92.16-2.52-.24-2.3-.52-4.6-.78-6.9l-.33-3c-.06-.45.06-2-.29-2.33s0-.32-.59-.35a.09.09,0,0,0-.08,0l-.13.24a.09.09,0,0,0,.15.09,3.7,3.7,0,0,1,.74,2.3l.22,2c.11,1,.23,2,.34,3l.39,3.45c.06.55.63,2.58.31,3-1.78,2.23-2-1.76-2-2.42-.12-1.29-.18-2.59-.2-3.88,0-2.27,0-4.54.2-6.8,0-.06-.08-.06-.09,0Z"/><path class="cls-9" d="M77.18,100.23c.43,1.42-.89,2.26-1.25,3.49a1.78,1.78,0,0,0,.28,1.71c.64.66,2,.2,1.69-.79,0-.12-.23-.1-.22,0l-1.35.37-.18-.72a2.38,2.38,0,0,1,.32-1.07c.22-.43.51-.83.71-1.27a2.41,2.41,0,0,0,.19-1.8c0-.12-.23-.07-.19,0Z"/><path class="cls-9" d="M86.9,76.87c-2.49-2.81-5.69.65-6.14,3.32a6.45,6.45,0,0,0,6.34,7.49c.21,0,.2-.29,0-.32-2.64-.3-5-1.65-5.79-4.34a6.33,6.33,0,0,1,0-3.48c.63-2.13,3-4.69,5.38-2.46.14.14.34-.07.21-.21Z"/><path class="cls-9" d="M87.13,87.66c-.14-1.24-.32-2.49-.58-3.71,0-.2-.33-.11-.3.09.17,1.22.42,2.45.7,3.65,0,.09.19.07.18,0Z"/><path class="cls-9" d="M86.59,84A2.82,2.82,0,0,1,82.9,81.2c.19-2.16,2.32-2.79,4.09-2.11.17.07.26-.19.12-.29a3,3,0,0,0-4.56,2.26,3,3,0,0,0,4.09,3.14c.11,0,.07-.21,0-.17Z"/><path class="cls-9" d="M86.81,76.67a10.28,10.28,0,0,0,0,2.54c0,.07.14.08.15,0a10.28,10.28,0,0,0,0-2.54.08.08,0,0,0-.15,0Z"/><path class="cls-9" d="M92.81,76.56c-3.42.18-4.15,4.16-2.89,6.75S94.8,88.4,97.4,86c2.32-2.15,2-6.55-.13-8.72-1.86-1.91-5.52-2-6.87.57a.18.18,0,0,0,.3.18A4.08,4.08,0,0,1,97,77.55a6.37,6.37,0,0,1,.88,7.16c-1.72,3-5.36,1.73-7-.6-1.84-2.59-1.64-6.58,2-7.36a.1.1,0,0,0,0-.19Z"/><path class="cls-9" d="M93,80.44a1.59,1.59,0,0,0,0,2.41,1.67,1.67,0,0,0,2.45-.59,1.52,1.52,0,0,0-1.08-2.1,1.25,1.25,0,0,0-1.25,1.74c.06.1.23,0,.19-.08-.22-.75.63-1.63,1.37-1.18A1.2,1.2,0,0,1,95,82.37a1.34,1.34,0,0,1-1.87.15,1.46,1.46,0,0,1,0-2,.09.09,0,0,0-.12-.12Z"/><path class="cls-9" d="M100.2,74.84A93.09,93.09,0,0,1,100,85.92a.16.16,0,0,0,.17.17l7.2-.89a.18.18,0,0,0,.17-.13,3.08,3.08,0,0,0-1.17-3.56,3,3,0,0,0-2-.41c-1,.14-1.18.87-1.51-.25-.48-1.61,1.59-5.2-.32-6.42A1.05,1.05,0,0,0,101,75c0,.17.24.3.31.13,1.37.18,1.93.82,1.68,1.9,0,.56-.09,1.13-.17,1.69a17.29,17.29,0,0,0-.14,3.37.19.19,0,0,0,.32.13c3-2.49,5.7,1.5,3.56,2.71a7.32,7.32,0,0,1-2.25.29,15.72,15.72,0,0,1-2.25.28c-1.38,0-1.36.06-1.5-1.3a40.62,40.62,0,0,1,.15-4.26c0-1.71-.06-3.42-.21-5.12,0-.15-.25-.16-.25,0Z"/><path class="cls-9" d="M111.55,74.59c-.46,3.26-.6,6.58-.85,9.87a.19.19,0,0,0,.1.18,1.76,1.76,0,0,0,2.29-.31.13.13,0,0,0-.16-.19c-2.27,1.2-1.71-1.15-1.65-2s.13-1.77.19-2.65c.12-1.64.26-3.28.28-4.92,0-.12-.19-.15-.2,0Z"/><path class="cls-9" d="M111.59,75l1.48-.09a5.2,5.2,0,0,0,1.3-.16c.09,0,.12-.2,0-.22a10.89,10.89,0,0,0-2.78.23c-.15,0-.15.25,0,.24Z"/><path class="cls-9" d="M113.89,74.46a42.82,42.82,0,0,0,2.34,5.28c.12.25.49,0,.38-.22a41.54,41.54,0,0,0-2.51-5.15c-.07-.1-.25,0-.21.09Z"/><path class="cls-9" d="M113.29,85.13a10.93,10.93,0,0,1,.45-3.64c0-.16-.19-.27-.27-.11a5.91,5.91,0,0,0-.36,3.78.09.09,0,0,0,.18,0Z"/><path class="cls-9" d="M113.83,81.72c.64.94,1.28,1.89,2,2.8.15.21.5,0,.35-.21-.66-.94-1.38-1.86-2.09-2.77-.1-.14-.33,0-.23.18Z"/><path class="cls-9" d="M113.13,77.11c-.19.88-.34,1.77-.53,2.66a.18.18,0,0,0,.21.21l1.7-.59a.18.18,0,0,0,.11-.26,9.61,9.61,0,0,0-1.21-1.8.13.13,0,0,0-.21.12,9.7,9.7,0,0,0,1.12,1.85l.1-.25-1.7.6.22.16c.11-.89.25-1.78.36-2.68,0-.1-.15-.12-.17,0Z"/><path class="cls-9" d="M106.92,68.29a3.4,3.4,0,0,1-.73,2.91,4,4,0,0,1-2.64,1c-.12,0-.09.19,0,.23a3,3,0,0,0,3-1.07,3.07,3.07,0,0,0,.51-3.1.07.07,0,0,0-.14,0Z"/><path class="cls-9" d="M104.11,72.65a2.67,2.67,0,0,0,2.49,1.67c.18,0,.14-.28,0-.33a4.8,4.8,0,0,1-1.25-.45,2.62,2.62,0,0,1-.91-1.09c-.1-.22-.43,0-.33.2Z"/><path class="cls-9" d="M105.25,75.48c-.23.68-.51,1.37-.68,2.06,0,.17.22.3.29.12.29-.67.49-1.39.72-2.09.07-.21-.26-.3-.33-.09Z"/><path class="cls-9" d="M105.26,77.89c.52-.5,1-1,1.5-1.53A6.46,6.46,0,0,0,108,74.91a.1.1,0,0,0-.14-.14,6.51,6.51,0,0,0-1.34,1.38c-.48.54-1,1.07-1.41,1.62-.06.08,0,.2.12.12Z"/><path class="cls-9" d="M108.11,75c.51.21,1,.38,1.57.56a4.19,4.19,0,0,0,1.42.4.15.15,0,0,0,.08-.28,4.81,4.81,0,0,0-1.39-.55c-.52-.17-1.05-.35-1.58-.5-.24-.07-.33.28-.1.37Z"/><path class="cls-9" d="M111.26,75.72c-.2-.53-.42-1-.64-1.55a4.61,4.61,0,0,0-.78-1.47c-.06-.07-.21,0-.2.08a4.3,4.3,0,0,0,.53,1.38c.27.56.54,1.12.85,1.66.07.12.29,0,.24-.1Z"/><path class="cls-9" d="M109.59,73.07c.64-.52,1.5-1.45,1.42-2.35a.11.11,0,0,0-.2,0c-.23.35-.32.78-.52,1.15a5,5,0,0,1-.82,1.13c-.08.08,0,.19.12.12Z"/><path class="cls-9" d="M110.94,70.69a2.61,2.61,0,0,1-2.74.16,2.84,2.84,0,0,1-1.24-2,.18.18,0,0,0-.35,0c-.11,2.34,2.84,3.28,4.46,2,.1-.08,0-.23-.13-.17Z"/><path class="cls-9" d="M81.58,67.75c.14.47.73.92,1.09,1.24a.17.17,0,0,0,.24-.24c-.32-.36-.77-1-1.25-1.08,0,0-.09,0-.08.08Z"/><path class="cls-9" d="M82.44,69.52c-.27.57-.52,1.13-.78,1.7a6.62,6.62,0,0,0-.61,1.52.08.08,0,0,0,.15.07,7.19,7.19,0,0,0,.74-1.59c.23-.54.45-1.08.67-1.62,0-.1-.13-.17-.17-.08Z"/><path class="cls-9" d="M81.69,73.07c.79-.65,1.56-1.33,2.35-2,.17-.15-.09-.41-.25-.25-.74.71-1.5,1.4-2.23,2.12-.08.08,0,.2.13.12Z"/><path class="cls-9" d="M83.87,71.25A7,7,0,0,0,88,72.7a.13.13,0,0,0,0-.25c-.63-.23-1.32-.3-2-.5s-1.42-.56-2.12-.87a.1.1,0,0,0-.1.17Z"/><path class="cls-9" d="M88.36,72.53c-.34-1-.68-2-1-3-.09-.25-.49-.14-.39.1.4,1,.82,2,1.25,3a.1.1,0,0,0,.19-.07Z"/><path class="cls-9" d="M79.89,94.38c1-.82,2-1.63,3-2.47.2-.17-.09-.45-.28-.28-1,.84-1.95,1.7-2.93,2.56-.14.11.06.3.19.19Z"/><path class="cls-9" d="M82.81,92.18c-.13.61-.25,1.22-.35,1.84a3.06,3.06,0,0,1-.16.92c-.49.37-.61.27-.38-.31a.47.47,0,0,1,.46.34.13.13,0,0,0,.26,0c.09-1.17-2-.69-1.22.26.24.3.84.47,1.1.1a4.15,4.15,0,0,0,.26-1.46c.09-.55.16-1.11.23-1.66a.1.1,0,0,0-.2,0Z"/><path class="cls-9" d="M77.75,67.56C78.22,72,78.75,76.5,79,81s-.13,9,.1,13.51c0,.16.28.22.3,0A75.7,75.7,0,0,0,79.45,81,113.34,113.34,0,0,0,78.14,67.5c0-.21-.42-.17-.39.06Z"/><path class="cls-9" d="M116.56,65.23c-.33,8.87.44,17.89.71,26.76,0,.31.5.32.49,0-.27-8.87,0-17.93-.9-26.76a.15.15,0,0,0-.3,0Z"/><path class="cls-9" d="M113.51,86.05a11.44,11.44,0,0,0,0,1.85,8,8,0,0,0,.17,1.62c0,.11.23.13.24,0a8.52,8.52,0,0,0-.06-1.75,10.08,10.08,0,0,0-.2-1.74.1.1,0,0,0-.19,0Z"/><path class="cls-9" d="M114.28,89.39c-1,.58-2,1.38-3,2-.22.12,0,.47.22.29.92-.78,2-1.36,2.91-2.13.06,0,0-.15-.09-.11Z"/><path class="cls-9" d="M110.88,92.08c1.06.26,2.66.36,3.53-.45a.09.09,0,0,0-.06-.15c-.55,0-1,.29-1.6.37a7.08,7.08,0,0,1-1.84,0c-.12,0-.14.18,0,.21Z"/><path class="cls-9" d="M114.94,91.54a5.39,5.39,0,0,0,0,1.39.09.09,0,0,0,.18,0,5.39,5.39,0,0,0,0-1.39.08.08,0,1,0-.16,0Z"/><path class="cls-9" d="M114.06,86.57c1,.49,2,.87,3,1.26.23.09.33-.28.1-.37-1-.36-2-.76-3-1-.09,0-.15.1-.07.14Z"/><path class="cls-9" d="M89.56,87.5a7.23,7.23,0,0,0,1.63,1.59A.08.08,0,0,0,91.3,89a7,7,0,0,0-1.59-1.63.11.11,0,1,0-.15.15Z"/><path class="cls-9" d="M89.31,87.39a10,10,0,0,0-.77,2.36.07.07,0,0,0,.13,0,9.54,9.54,0,0,0,.78-2.35.07.07,0,0,0-.14,0Z"/><path class="cls-9" d="M88.72,89.41a13.41,13.41,0,0,0-1.42.16,3.33,3.33,0,0,0-1.37.29A.09.09,0,0,0,86,90a3,3,0,0,0,1.22-.13c.53-.1,1-.2,1.56-.34.08,0,.07-.15,0-.14Z"/><path class="cls-9" d="M85.72,90.19c.48.28,1,.55,1.44.8a5.82,5.82,0,0,0,1.31.62c.09,0,.18-.1.1-.16a5.8,5.8,0,0,0-1.27-.69c-.5-.24-1-.47-1.51-.68-.08,0-.15.07-.07.11Z"/><path class="cls-9" d="M88.66,91.5c-.33.77-.65,1.53-1,2.3,0,.12.15.18.2,0,.3-.76.59-1.53.88-2.29,0-.08-.09-.13-.12-.06Z"/><path class="cls-9" d="M87.86,93.89l1.24-1.08a4.86,4.86,0,0,0,1.08-1,.1.1,0,0,0-.14-.14,4.62,4.62,0,0,0-1.1,1l-1.2,1.12c-.08.07,0,.19.12.12Z"/><path class="cls-9" d="M89.8,92a3.78,3.78,0,0,0,1.06,1,2,2,0,0,0,1.29.45.07.07,0,0,0,0-.13,6.61,6.61,0,0,0-1.1-.54,4.68,4.68,0,0,1-1.13-1c-.07-.08-.21,0-.15.12Z"/><path class="cls-9" d="M92.54,93.55c-.21-.61-.41-1.22-.61-1.84a8.4,8.4,0,0,0-.59-1.61.13.13,0,0,0-.24.07,7.87,7.87,0,0,0,.5,1.63c.2.62.41,1.23.62,1.84a.17.17,0,0,0,.32-.09Z"/><path class="cls-9" d="M91.3,90.92a28.76,28.76,0,0,0,2.32-1.8c.11-.11,0-.31-.17-.22-.81.55-1.53,1.26-2.29,1.88-.1.08,0,.22.14.14Z"/><path class="cls-9" d="M93.06,89.2c-.76-.09-1.53-.23-2.29-.31-.22,0-.22.32,0,.34.76.07,1.53.09,2.29.14.11,0,.1-.15,0-.17Z"/><path class="cls-9" d="M91.07,89.18c-.6-.62-1.18-1.25-1.78-1.87-.15-.15-.38.08-.23.22.62.61,1.25,1.19,1.87,1.79a.1.1,0,0,0,.14-.14Z"/><path class="cls-9" d="M112.76,100.64c3,2.07,3.58,6.94,4.07,10.29a46.25,46.25,0,0,1,.13,11c0,.08.14.1.15,0a39.24,39.24,0,0,0-.31-12.47c-.53-2.93-1.09-7.35-4-9a.06.06,0,1,0-.06.1Z"/><path class="cls-9" d="M109.62,42.89c2.48,4.2,5.51,8.29,5.2,13.41,0,.1.16.1.16,0,.31-5-2.63-9.39-5.27-13.46,0-.05-.12,0-.09,0Z"/><path class="cls-9" d="M109.3,67.69a12.66,12.66,0,0,0,2.61-8.86c0-.06-.08-.06-.08,0a14.94,14.94,0,0,1-2.65,8.78c-.05.08.07.15.12.08Z"/><path class="cls-9" d="M105,68.49a7.68,7.68,0,0,0,2.21-5.77,0,0,0,1,0-.07,0,9,9,0,0,1-2.22,5.69c-.05,0,0,.13.08.08Z"/><path class="cls-9" d="M92.2,70a12,12,0,0,1-3.91-6.59c0-.07-.15-.06-.14,0a9.94,9.94,0,0,0,4,6.67c.05,0,.12,0,.07-.1Z"/><path class="cls-9" d="M88.11,44.31a9.82,9.82,0,0,1,2.25-6.61s0-.09,0-.05A9.08,9.08,0,0,0,88,44.31s.09,0,.09,0Z"/><path class="cls-9" d="M99,38a15.35,15.35,0,0,1,3,6.82s.07,0,.06,0a13.81,13.81,0,0,0-3-6.86s-.08,0,0,.05Z"/><path class="cls-9" d="M97.23,45.33c.45,2.67.87,5.35,1.37,8,0,0,.09,0,.08,0-.41-2.67-.91-5.34-1.37-8,0-.06-.09,0-.08,0Z"/><path class="cls-9" d="M94.54,47.82a26.11,26.11,0,0,0,1.07,13.74s.08,0,.07,0a28.43,28.43,0,0,1-1.07-13.7c0-.05-.07-.07-.07,0Z"/><path class="cls-9" d="M73.26,108c.44,2.29-2.15,4.7-1.08,6.89a1.79,1.79,0,0,0,2.54.89c.07,0,0-.16-.06-.11a1.74,1.74,0,0,1-2.46-1.18,4.27,4.27,0,0,1,.23-2.16c.18-.59.49-1.16.71-1.74a4.22,4.22,0,0,0,.24-2.62.06.06,0,0,0-.12,0Z"/><path class="cls-9" d="M78.88,70.5s0,0,0,0,0,0,0,0Z"/><path class="cls-9" d="M91.13,71.87a3.16,3.16,0,0,0-1,2.37,1.38,1.38,0,0,0,1,1,.88.88,0,0,0,1.11-.51c.33-.89-.87-2.12.16-2.78a0,0,0,0,0,0-.09c-1.1.35-.18,1.82-.22,2.51-.07,1.21-1.57.76-1.83-.07s.4-1.76.86-2.41c0-.05,0-.1-.07-.06Z"/><path class="cls-9" d="M98.66,87.72c.63,1.38-.42,2.69-.08,4.08A1.49,1.49,0,0,0,100,93a1,1,0,0,0,.9-1.09c0-1.19-1.72-2.32-.87-3.48.08-.11-.1-.22-.18-.11a1.38,1.38,0,0,0-.14,1.39c.21.6,1.38,1.91,1,2.53l-1,.53-.59-.36a1.88,1.88,0,0,1-.4-1.27A10.49,10.49,0,0,1,99,89.58a3,3,0,0,0-.21-1.92c0-.08-.14,0-.11.06Z"/><path class="cls-9" d="M105,87.17a12.78,12.78,0,0,1,.87,5.4.09.09,0,0,0,.13.08,2.28,2.28,0,0,0,.77-3.59c-.08-.09-.21,0-.13.12a2.09,2.09,0,0,1,.29,2.39c-.08.15-.54.89-.79.83s-.07-1.06-.07-1.21a11.18,11.18,0,0,0-1-4.06c0-.06-.13,0-.1,0Z"/><path class="cls-9" d="M80.18,92.55l-4,4.7c-.93,1.1-2.85,2.61-3.21,4-.23.91.43,2,1.41,1.35a.08.08,0,0,0-.09-.13c-.85-1.15-.85-2.08,0-2.8l1-1.17,1.49-1.77,3.47-4.11c.07-.08,0-.2-.11-.12Z"/><path class="cls-9" d="M117.5,91.79c1,1,2.06,1.92,3.09,2.88L122,96l.73.69q1.41,1.06-.27,2.61a.11.11,0,1,0,0,.22c1.31.08,1.59-1.31,1-2.27a13.3,13.3,0,0,0-2.57-2.51l-3.33-3s-.11,0-.07.07Z"/><path class="cls-9" d="M82.75,131.94a1.43,1.43,0,0,0-1,1.58,4.17,4.17,0,0,1-.07,2A6,6,0,0,1,80,138c-.07.06,0,.14.09.09a5.33,5.33,0,0,0,1.65-2.32,5.26,5.26,0,0,0,.3-1.23c.11-.95-.62-1.95.7-2.5.06,0,0-.13,0-.1Z"/><path class="cls-9" d="M120,132.1a5.15,5.15,0,0,1,2,3.15c0,.05.1,0,.09,0a4.43,4.43,0,0,0-2-3.23s-.1.05,0,.09Z"/><path class="cls-9" d="M89.65,21a1.43,1.43,0,0,1,.81,1.58c0,.11.14.16.17.05a1.38,1.38,0,0,0-.95-1.7s-.07.05,0,.07Z"/><path class="cls-9" d="M89.43,17.14A2.23,2.23,0,0,0,88.52,20c.63,1.63,2.52,2,4.08,2.17a32.27,32.27,0,0,0,8.93-.65c1.78-.37,3.61-1,3.71-3.06a.09.09,0,0,0-.18,0c-.88,3.27-6.27,3.17-9,3.32a26.62,26.62,0,0,1-3.46,0,6.16,6.16,0,0,1-2.69-.65q-2.4-1.92-.41-3.88a.07.07,0,0,0-.07-.12Z"/><path class="cls-9" d="M97.22,21.53a36.26,36.26,0,0,0,4.36-.9c.09,0,0-.16,0-.15a38.09,38.09,0,0,0-4.33,1,0,0,0,0,0,0,.08Z"/><path class="cls-9" d="M98.12,21.76a11,11,0,0,0,5.3-1.63c.07-.05,0-.18-.06-.14a17.63,17.63,0,0,1-5.24,1.58c-.12,0-.12.2,0,.19Z"/><path class="cls-9" d="M98.34,21.45a0,0,0,0,0,0,0s0,0,0,0Z"/><path class="cls-9" d="M95.37,21.52a8.93,8.93,0,0,0,4.63-.67.11.11,0,0,0-.08-.21,15.62,15.62,0,0,1-4.55.72c-.1,0-.1.15,0,.16Z"/><path class="cls-9" d="M97,21.55a10.19,10.19,0,0,0,5.32-.7c.11-.05,0-.25-.09-.21a11.94,11.94,0,0,1-5.23.68c-.15,0-.14.22,0,.23Z"/><path class="cls-9" d="M90,21.44a13.47,13.47,0,0,0,.24,1.39c0,.07.13.05.13,0,0-.47-.14-.93-.23-1.39,0-.07-.15-.06-.14,0Z"/><path class="cls-9" d="M89.65,21.9c.06.31.13.61.21.92,0,.09.16.05.14,0l-.21-.92c0-.09-.17-.05-.14,0Z"/><path class="cls-9" d="M90.93,21.41c-.16.53-.31,1.07-.45,1.6,0,.08.1.12.12,0,.16-.53.3-1.07.45-1.61a.06.06,0,0,0-.12,0Z"/><path class="cls-9" d="M90.28,21.67a6.91,6.91,0,0,0,0,.91,0,0,0,0,0,.08,0c0-.3,0-.61,0-.91a.06.06,0,0,0-.12,0Z"/><path class="cls-9" d="M89.66,21.21a14.54,14.54,0,0,0,.68,1.37s.09,0,.07,0c-.19-.47-.45-.92-.69-1.38,0,0-.08,0-.06,0Z"/><path class="cls-9" d="M88.51,18.23a1.2,1.2,0,0,0,0,1.89s.07,0,0-.06a1.17,1.17,0,0,1,0-1.79s0-.07,0,0Z"/><path class="cls-9" d="M90.53,18c-.64.55-.23,2.12.73,1.89,0,0,0-.05,0-.05a1.13,1.13,0,0,1-.88-.64,1,1,0,0,1,.2-1.15s0-.07,0-.05Z"/><path class="cls-9" d="M102.64,17.18a.75.75,0,0,1,0,1.25s0,.11.06.08a.84.84,0,0,0,0-1.42.05.05,0,1,0-.06.09Z"/><path class="cls-9" d="M88.53,19.15a2.42,2.42,0,0,0,1.78,2.61,0,0,0,1,0,0-.08,2.46,2.46,0,0,1-1.77-2.53s0,0,0,0Z"/><path class="cls-9" d="M91.93,24.64a23.27,23.27,0,0,1-3,10.89s0,.1.09.06a14.31,14.31,0,0,1,6.58-3.21c.05,0,0-.09,0-.08a13.65,13.65,0,0,0-3.85,1.29c-1.12.57-2.93,2.64-1.81.3A21.45,21.45,0,0,0,92,24.64s-.07,0-.07,0Z"/><path class="cls-9" d="M96.4,32.64c-.25-2.88-.5-5.76-.78-8.64,0-.05,0-.08-.09-.07l-3.36.71a.07.07,0,0,0,0,.13c.67-.14,2-.72,2.69-.56,1,.24.79,2,.86,2.78q.27,2.84.56,5.65c0,.06.1.06.09,0Z"/><path class="cls-9" d="M94,24.87c.46-.08.92-.15,1.37-.24,0,0,0-.06,0-.05-.46.06-.92.14-1.38.22,0,0,0,.08,0,.07Z"/><path class="cls-9" d="M78.9,41.58a0,0,0,1,0,0,0s0,0,0,0Z"/><path class="cls-8" d="M119,50.25a33.7,33.7,0,0,0,3.83,2.89c.7.47,1.42-.73.66-1.14a34.73,34.73,0,0,0-4.31-2.06.18.18,0,0,0-.18.31Z"/><path class="cls-8" d="M123,52.68a2.69,2.69,0,0,0-2.63,2.15c-.16.77,1.06,1.07,1.17.32a2.13,2.13,0,0,1,1.55-1.8.34.34,0,0,0-.09-.67Z"/><path class="cls-8" d="M115.28,53.83A5.06,5.06,0,0,1,119,57.4c.46,1.58.18,3.19.43,4.78.09.54.92.49,1,0,.79-3.3-.57-9.74-5.16-9-.33.06-.29.54,0,.62Z"/><path class="cls-8" d="M118.81,51.29c.89.54,1.75,1.17,2.68,1.63a.49.49,0,0,0,.5-.85c-.9-.53-1.89-.92-2.83-1.37a.34.34,0,0,0-.35.59Z"/><path class="cls-8" d="M119.18,51.67a1.23,1.23,0,0,0,2.42.21,1.45,1.45,0,0,0-.76-1.61c-.72-.4-1.5-.34-1.9-1.17a.4.4,0,0,0-.62-.08c-.71.75.11,1.63.86,1.89.39.13,1,.12,1.32.45.41.5-.54,1-.79.24-.09-.28-.57-.25-.53.07Z"/><path class="cls-8" d="M119.38,50a2.71,2.71,0,0,0-.18-1.41.31.31,0,0,0-.55.07,2.62,2.62,0,0,0,.26,1.4.24.24,0,0,0,.47-.06Z"/></svg>