<svg id="carracters" xmlns="http://www.w3.org/2000/svg" viewBox="0 0 198.43 35.43"><defs><style>.cls-1{fill:#fff;}.cls-2{fill:#6e6e6e;}</style></defs><path d="M134.65,11.44l.16-.09.64.66c0-.53.07-1,.1-1.5,0-.77.09-1.54.13-2.31,0-.06,0-.11,0-.16h.09a.8.8,0,0,1,.05.21l-.21,3.55V12l.07.06.48-.55c.1-.11.11-.1.19,0-.25.27-.49.54-.75.8a.25.25,0,0,1-.23,0c-.26-.24-.51-.49-.76-.75Z"/><path d="M172.3,20.6a25.12,25.12,0,0,1-4.08,4.89l-.76-1.21c.39-.43.77-.83,1.15-1.23A21.12,21.12,0,0,0,172,18.53a3.42,3.42,0,0,0,.37-1.71V16.1l-4.19.35V14.9a23.67,23.67,0,0,0,4.34-.31l.13-4,2.18.21c-.08.33-.35.37-.62.43,0,.26-.05.53-.06.8-.05.69-.08,1.38-.13,2.07a.22.22,0,0,0,.16.26c.2.07.4.16.59.24a9.53,9.53,0,0,0-.94,3.49L174,18a13.33,13.33,0,0,1,4.77-2.21,8.07,8.07,0,0,1,3.69-.07,4.88,4.88,0,0,1,3.68,3.18,7.62,7.62,0,0,1,.31,4.53,5.79,5.79,0,0,1-3.16,3.88,13.27,13.27,0,0,1-4,1.26c-.61.1-1.23.16-1.85.25-.17,0-.24,0-.29-.19-.13-.39-.29-.77-.44-1.18l1.09-.13a14.23,14.23,0,0,0,4.44-1.17,4.54,4.54,0,0,0,2.59-2.78,5.68,5.68,0,0,0-.4-4.35,3.66,3.66,0,0,0-3-2,8.69,8.69,0,0,0-4.67.92A15.13,15.13,0,0,0,174,19.68a.36.36,0,0,0-.17.3c0,1.81,0,3.61,0,5.41V29.5h-1.5Z"/><path class="cls-1" d="M21.47,20.6a25.12,25.12,0,0,1-4.08,4.89l-.76-1.21c.39-.43.76-.83,1.15-1.23a21.46,21.46,0,0,0,3.39-4.52,3.42,3.42,0,0,0,.37-1.71V16.1l-4.19.35V14.9a23.5,23.5,0,0,0,4.33-.31l.13-4,2.19.21c-.08.33-.35.37-.62.43,0,.26-.05.53-.07.8,0,.69-.08,1.38-.13,2.07a.23.23,0,0,0,.16.26c.21.07.4.16.6.24A9.34,9.34,0,0,0,23,18.1l.17-.11a13.41,13.41,0,0,1,4.77-2.21,8.11,8.11,0,0,1,3.7-.07,4.92,4.92,0,0,1,3.68,3.18,7.54,7.54,0,0,1,.3,4.53,5.77,5.77,0,0,1-3.16,3.88,13.21,13.21,0,0,1-4,1.26c-.61.1-1.24.16-1.85.25-.17,0-.24,0-.29-.19-.13-.39-.29-.77-.44-1.18L27,27.31a14.17,14.17,0,0,0,4.43-1.17A4.51,4.51,0,0,0,34,23.36,5.68,5.68,0,0,0,33.62,19a3.67,3.67,0,0,0-3-2,8.72,8.72,0,0,0-4.68.92,15.13,15.13,0,0,0-2.78,1.75A.35.35,0,0,0,23,20c0,1.81,0,3.61,0,5.41,0,1.28,0,2.56,0,3.84v.27h-1.5Z"/><path class="cls-2" d="M136.35,20.55a25.36,25.36,0,0,1-4.08,4.88l-.76-1.21L132.66,23a21.32,21.32,0,0,0,3.39-4.51,3.45,3.45,0,0,0,.37-1.72V16l-4.19.35V14.85a24.6,24.6,0,0,0,4.34-.32l.13-4,2.18.21c-.08.34-.35.37-.62.44,0,.26,0,.53-.06.8,0,.68-.08,1.37-.13,2.06a.22.22,0,0,0,.16.26c.2.07.39.16.59.24a9.53,9.53,0,0,0-.94,3.49l.18-.1a13.19,13.19,0,0,1,4.77-2.22,8.21,8.21,0,0,1,3.69-.07,4.9,4.9,0,0,1,3.68,3.18,7.63,7.63,0,0,1,.31,4.53,5.79,5.79,0,0,1-3.16,3.88,13,13,0,0,1-4,1.26c-.61.1-1.23.16-1.85.25-.17,0-.24,0-.29-.18-.13-.4-.29-.78-.44-1.19l1.09-.13a14.49,14.49,0,0,0,4.44-1.16,4.56,4.56,0,0,0,2.59-2.79,5.68,5.68,0,0,0-.4-4.35,3.67,3.67,0,0,0-3.05-2,8.69,8.69,0,0,0-4.67.92A14.66,14.66,0,0,0,138,19.63a.35.35,0,0,0-.17.3c0,1.8,0,3.6,0,5.41,0,1.28,0,2.56,0,3.83v.27h-1.5Z"/><path d="M138.81,10.83c-.1.33-.35.37-.62.42,0,.36-.07.71-.08,1.07-.05.81-.07,1.63-.12,2.45-.24,4.2-.19,8.41-.19,12.62,0,.63,0,1.26,0,1.9v.25h-1.51c0-6.31-.06-12.61.36-18.93Z"/><path d="M175.24,15.59l.16.08-.57,1.1a12.84,12.84,0,0,1,5.18-1.9l-.11-.24.07,0c.22.12.49.12.7.35l-.84.41-.05-.26a11.88,11.88,0,0,0-5.52,2.36Z"/><path d="M168,14.69l-.15-.15.26-.16,0-.06-1.53-.16c-.11,0-.22,0-.14-.2l1.7.18-.19-.26.1-.09.07,0C168.55,14.32,168.56,14.22,168,14.69Z"/></svg>