<?xml version="1.0" encoding="utf-8"?>
<!-- Generator: Adobe Illustrator 25.4.1, SVG Export Plug-In . SVG Version: 6.00 Build 0)  -->
<svg version="1.1" id="illustration" xmlns="http://www.w3.org/2000/svg" xmlns:xlink="http://www.w3.org/1999/xlink" x="0px"
	 y="0px" viewBox="0 0 198.4 136.4" style="enable-background:new 0 0 198.4 136.4;" xml:space="preserve">
<style type="text/css">
	.st0{fill:#CBA157;}
	.st1{fill:#FFCD75;}
	.st2{fill:#D62726;}
	.st3{fill:#231F20;}
	.st4{fill:#FFFFFF;}
	.st5{fill:#010101;}
</style>
<path class="st0" d="M38.5,36.8c0,0,1.8-7.2,4.3-9.4c1.7,3.2,16,30.4,16,30.4L74,90.4l13,31.7l-3.1,3.1L38.5,36.8z"/>
<path class="st1" d="M43.7,27.3l1.7-1.3l31.3,2.2l40.4,2.5l18.3,1c0,0-1.8,24-10.4,43s-26,40.9-37.2,47.4L70,80L43.7,27.3z"/>
<path class="st0" d="M130.5,31.4c0,0,0.8-4.1,5.9-3.5s6.5,5,6.1,5.8s-2.1,5.1-3.8,5.2c1.5,1.5,2.1,3.8,1.4,5.9
	c-0.7,1.9-1.7,3.7-2.9,5.3c0.7,2.2,0.8,4.6,0.2,6.8c-0.6,1.8-1.4,3.6-2.3,5.3c0,0,0.6,5.5-0.6,8c-1.1,1.9-2.4,3.7-4,5.2
	c0,0,1.8,2.3-0.5,6.8c-1.2,2.4-2.9,4.6-4.9,6.5c-0.5,2.6-1.7,4.9-3.4,6.9c-1.4,1.4-2.9,2.7-4.5,3.8c0,0-0.3,1.9-2.7,5.2
	c-1.2,1.8-2.7,3.2-4.5,4.3c0,0,3.1,1.3-2.2,5.5s-9.1,4.7-9.1,4.7s2.2,1-3.3,3.8c-3.6,1.7-7.6,2.4-11.6,2.2c0,0,26.7-22.1,36.3-42.4
	S134.5,38,134.5,38c0.4-1.5,0.4-3.2-0.1-4.7C133.6,30.8,130.5,31.4,130.5,31.4z"/>
<path class="st2" d="M79.4,82.3c0,0,9.3,4.4,10,4.8s10.2,4.6,10.3,8.6s-8.3,14.1-14.7,9.4S78,82.6,79.4,82.3"/>
<path class="st2" d="M90.2,64.2c0,0,10.1,0.7,10.7,0.8s11.9,0.3,13.8,4.5s-3,5.1-5.1,8.3s-2.2,6.9-4.5,8.6s-7.1,1.4-9.5-4.7
	s-2.1-8.3-3.2-10.5s-2.5-4.9-2.5-4.9S89.3,64.9,90.2,64.2z"/>
<path class="st2" d="M120.1,44L120.1,44c0,0-0.5,12-3.7,14c-3,1.9-9.6,2.4-16.2-2s-3.8-8.6-3.8-8.6s5.5-5.3,9.2-6.5
	s8.9-2.2,10.5-1.5S120.1,44,120.1,44z"/>
<path class="st2" d="M65.6,44c0,0,20.7,5.1,22.2,6.5s0,5.9,0,6.2s-3.7,2.4-4,3.6s-2.5,3.3-4,3c-2.2-0.7-4.2-1.9-5.8-3.5
	c-1-1.2-11.4-13.5-11.4-13.5L65.6,44z"/>
<path class="st2" d="M43.2,27.3l0.4-0.1c1.3-0.3,5-1.1,7-0.6c2.1,0.6,4.3,1.4,6.3,2.2c0,0,1.9,1.3,2.1,2.9s-2.7,4.1-2.7,4.1
	s-1,5-1.7,5.5s-3.6,0.9-3.6,0.9L43.2,27.3z"/>
<path class="st2" d="M69.3,79.4c0,0,5.4-3.3,7.3-4.6S71.8,67,71.8,67l-10.7-9.3l-1.8,0.9L69.3,79.4z"/>
<path class="st2" d="M66.3,30.5c-0.3,1.2,5.6,11,18.9,13.4c1.3-1.4,2.3-3,2.9-4.8c1.3-3.4,2.4,0.6,3-4S81,28.9,76.8,28.9
	S66.6,29.3,66.3,30.5z"/>
<path class="st1" d="M51.1,43.4c-1.2,1.1-2.5,2.2-3.7,3.3c-0.3,0.3-1.7,1.1-1.2,1.7s1.6-0.3,2-0.5c1.4-0.6,2.8-1.4,4-2.4
	c0.1-0.1,0-0.2-0.1-0.1c-0.9,0.4-1.7,1-2.5,1.4c-0.5,0.3-1,0.5-1.5,0.8l-0.8,0.4c-0.7,0.1-0.9,0.1-0.5-0.2c0.2-0.3,0.8-0.8,1.1-1
	l1.1-1l2.4-2.2C51.6,43.6,51.4,43.3,51.1,43.4L51.1,43.4z"/>
<path class="st1" d="M50.7,46.8c0.4,0.3,0.8,0.5,0.9,1.1s-0.1,1-0.2,1.5c0,0,0,0.1,0.1,0.1c1.3-0.5,0.7-3-0.7-3
	c-0.1,0-0.2,0.1-0.2,0.2C50.7,46.7,50.7,46.7,50.7,46.8L50.7,46.8z"/>
<path class="st1" d="M51.4,49.3c-0.1,1.4,0.9,3.3,2.5,3.4c0.1,0,0.1-0.1,0-0.1c-0.6-0.4-1.1-0.8-1.5-1.3c-0.4-0.6-0.7-1.3-0.7-2
	c0-0.1-0.1-0.1-0.1-0.1C51.5,49.2,51.4,49.2,51.4,49.3L51.4,49.3z"/>
<path class="st1" d="M53.3,52.8c1.3,1.3-2,3.8-2.9,4.4c-0.4,0.2-1.2,0.6-0.9,1.2s1.1,0.3,1.5,0.1c1.5-0.6,3-1.4,4.4-2.3
	c0,0,0-0.1,0-0.1c-1.3,0.5-2.5,1.1-3.7,1.7c-0.2,0.2-0.5,0.3-0.8,0.4c-0.8-0.3-1-0.6-0.6-0.8l0.3-0.2c0.4-0.3,0.9-0.6,1.2-1
	c0.7-0.7,2.9-2.8,1.5-3.7C53.4,52.5,53.3,52.7,53.3,52.8L53.3,52.8z"/>
<path class="st1" d="M55.3,56.4c0.3,0,0.2,1.1,0.5,1.3c0.1,0.1,0.2,0.1,0.4,0.2c0.5,0.1,0.9,0.3,1.2,0.7c0.4,0.6,1.2,1,1.7,0.4
	c0,0,0-0.1,0-0.1c-0.5,0.3-1,0.2-1.4-0.2c-0.2-0.2-0.3-0.4-0.4-0.6c-0.2-0.2-0.5-0.4-0.8-0.5c-0.6-0.4-0.2-1-0.6-1.4
	c-0.1-0.1-0.4-0.1-0.5,0c0,0,0,0,0,0C55.3,56.3,55.2,56.4,55.3,56.4C55.3,56.4,55.3,56.5,55.3,56.4L55.3,56.4z"/>
<path class="st1" d="M69.1,80c-0.8,0.4-6,2.6-3.8,4.1c0.5,0.3,1.2,0.1,1.7,0.3c0.9,0.5,0.7,1.5,0.9,2.3c0.2,0.8,0.9,1.4,1.7,1.5
	c0.2,0,0.2-0.2,0.1-0.3c-1.2-0.7-1.1-1.5-1.4-2.7c-0.1-0.4-0.3-0.8-0.7-1.1c-0.8-0.5-3,0.3-1.6-1.9c0.2-0.3,1-0.6,1.3-0.8
	c0.6-0.4,1.2-0.8,1.8-1.2c0.1,0,0.1-0.1,0-0.2C69.2,80,69.1,80,69.1,80L69.1,80z"/>
<path class="st1" d="M69.5,88.4c0.5,0.6,0,1.6,0.2,2.3c0.1,0.4,0.4,0.6,0.6,0.9c0.6,0.7,0.8,1.7,0.6,2.6c-0.2,0.5-0.5,1-0.8,1.4
	c-0.2,0.3-0.5,0.7-0.4,1.1s0.3,0.6,0.7,0.6c0.7,0,1.5-0.7,2.1-1l3.1-1.5c0.3-0.1,0-0.5-0.2-0.4l-2.5,1.2c-0.4,0.2-2.1,1.3-2.2,0.4
	c0-0.3,0.8-1.2,0.9-1.6c0.2-0.5,0.3-1,0.3-1.5c-0.2-1.3-1.5-1.7-1.6-3c0-0.8,0.2-1.3-0.6-1.7c-0.1,0-0.2,0-0.2,0
	C69.4,88.3,69.4,88.4,69.5,88.4L69.5,88.4z"/>
<path class="st1" d="M74.1,95.5c-0.9,1.2,0.4,3.4,1.9,3.1c0.1,0,0.1-0.1,0-0.2c0,0,0,0,0,0c-0.5-0.2-1-0.5-1.3-1
	c-0.3-0.5-0.4-1.2-0.2-1.8C74.4,95.3,74.2,95.3,74.1,95.5L74.1,95.5z"/>
<path class="st1" d="M75.8,98.5c-0.9,0.5-0.9,2.1-0.5,2.9c0.5,1,1.6,1.5,2.7,1.3c0.1,0,0.2-0.2,0.2-0.3c0-0.1-0.1-0.2-0.2-0.2
	c-0.8-0.2-1.5-0.3-2-1s-0.1-1.5,0-2.4C76,98.6,76,98.5,75.8,98.5C75.8,98.5,75.8,98.5,75.8,98.5L75.8,98.5z"/>
<path class="st1" d="M77.8,102.6c-1.2,2-0.5,5.3,1.6,6.3c0.2,0.1,0.4,0,0.5-0.2c0.1-0.1,0-0.3,0-0.4c-0.6-0.7-1.2-1.4-1.5-2.2
	c-0.3-1.1-0.4-2.2-0.1-3.3c0-0.1,0-0.3-0.1-0.3C78,102.4,77.9,102.5,77.8,102.6z"/>
<path class="st1" d="M80.2,108.8c-2.7,2.3,0.7,4.8,1.9,6.6c1.1,1.7,0,3.6,1,5.2c0.8,1.1,2.1,1.7,3.4,1.7c0.2,0,0.3-0.3,0.1-0.4
	l-0.7-0.3l-1.3-0.5l-1-2.8c0-0.7,0-1.4-0.2-2.1c-0.8-2.3-4.5-4.4-2.8-7.1C80.8,108.9,80.4,108.7,80.2,108.8L80.2,108.8z"/>
<path class="st1" d="M87.1,121.9c0.4-1.6-0.2-3.4-0.6-4.9s-0.7-3.4-1.8-4.7c-0.2-0.3-0.7,0-0.7,0.3c-0.1,1.6,0.7,3.2,1.1,4.8
	s0.5,3.3,1.5,4.6c0.1,0.1,0.2,0.1,0.4,0.1C87,122,87.1,122,87.1,121.9z"/>
<path class="st1" d="M87.1,122.2L87.1,122.2l-0.3-0.1H87l-0.2-0.2v0.1l0.2-0.3h-0.1c-0.1,0.1-0.2,0.3-0.1,0.4
	c0.1,0.1,0.3,0.2,0.4,0.1c0.1-0.1,0.2-0.2,0.3-0.3c0-0.1,0-0.2-0.1-0.3c-0.1-0.1-0.3-0.1-0.5,0l0.4,0.5l0.1-0.1
	c0.1-0.1,0.1-0.2,0.1-0.3v-0.1c0-0.1-0.2-0.2-0.3-0.2c-0.2,0-0.3,0.1-0.4,0.2C86.6,122.1,86.9,122.3,87.1,122.2L87.1,122.2z"/>
<path class="st1" d="M85.7,120.8c-0.6-0.4-0.4-2.5-0.5-3.2s-0.1-1.6-0.8-2c-0.2-0.1-0.5,0-0.7,0.2c-0.2,0.5-0.2,1,0,1.5
	c0.2,0.7,0.3,1.4,0.3,2.1c0.1,1.1,0.3,1.7,1.4,2c0.2,0,0.4-0.1,0.4-0.2C85.9,121,85.9,120.8,85.7,120.8L85.7,120.8z"/>
<path class="st1" d="M84.2,115.9c-0.1-1.6-1.7-2.7-1.7-4.4c0-1.1,0.4-2.1-0.6-3c-0.7-0.6-1.7,0.4-1,1s0.1,1.6,0.1,2.2
	c0,0.5,0.2,1,0.4,1.4c0.4,1.2,1.1,2.3,2.1,3.1c0.2,0.1,0.5,0.1,0.6-0.1C84.2,116.1,84.2,116,84.2,115.9L84.2,115.9z"/>
<path class="st1" d="M81.9,109.4c0.2,0.8,0.4,1.5,0.7,2.2c0.1,0.8,0.2,1.6,0.5,2.4c0.2,0.3,0.5,0.3,0.8,0.2c0.1-0.1,0.2-0.2,0.2-0.3
	c0.1-0.9-0.1-1.9-0.5-2.7c-0.2-0.8-0.7-1.5-1.3-2c-0.1-0.1-0.3,0-0.3,0.1C81.9,109.3,81.9,109.4,81.9,109.4L81.9,109.4z"/>
<path class="st1" d="M80.6,110c-0.8,0.4-1,1.4-0.6,2.2c0.1,0.2,0.2,0.3,0.3,0.4c0.3,0.2,0.7,0.1,0.8-0.2c0,0,0-0.1,0.1-0.1
	c0.1-0.4-0.1-0.7-0.2-1.1s-0.1-0.7-0.1-1C80.9,110,80.8,109.9,80.6,110C80.6,110,80.6,110,80.6,110z"/>
<path class="st1" d="M81.4,108.7c-0.7-1.7-1.3-3.5-1.6-5.3c-0.2-1-1.7-0.6-1.6,0.4c0.2,1.9,1,3.7,2.1,5.3
	C80.6,109.6,81.6,109.4,81.4,108.7z"/>
<path class="st1" d="M78.3,101.9c-0.1-0.2-0.3-0.5-0.3-0.7c-0.1-0.3-0.2-0.6-0.3-0.8c-0.2-0.6,0.1-1.1,0.1-1.7
	c0-0.4-0.3-0.7-0.7-0.7c-0.2,0-0.3,0.1-0.4,0.2c-0.6,0.7-0.7,1.7-0.4,2.6c0.1,0.4,0.3,0.8,0.6,1.1c0.3,0.3,0.7,0.5,1.2,0.6
	c0.2,0,0.3-0.1,0.3-0.2C78.4,102.1,78.4,102,78.3,101.9z"/>
<path class="st1" d="M76.8,98.3c-0.1-0.2-0.1-0.5-0.1-0.7s-0.2-0.4-0.2-0.7c-0.1-0.5-0.1-0.9,0-1.4c0-0.7-1.1-1.1-1.4-0.4
	c-0.3,0.7-0.3,1.5,0,2.2c0.1,0.4,0.3,0.7,0.5,0.9c0.3,0.3,0.6,0.3,0.9,0.5c0.1,0.1,0.3,0,0.4-0.1C76.9,98.5,76.9,98.4,76.8,98.3
	L76.8,98.3z"/>
<path class="st1" d="M70.7,96.3c0.8-0.1,1.6-0.4,2.4-0.8c1-0.4,1.9-0.9,2.8-1.4c0.2-0.1,0.2-0.4,0.1-0.5c-0.1-0.1-0.3-0.2-0.4-0.1
	c-0.8,0.4-1.6,0.9-2.4,1.3c-0.9,0.3-1.7,0.7-2.4,1.2C70.4,96,70.4,96.3,70.7,96.3z"/>
<path class="st1" d="M74.2,93.3c-0.7,0.3-1.8,0.4-2.3,1.1c-0.2,0.2-0.1,0.7,0.3,0.7c0.8-0.1,1.5-0.9,2.2-1.3
	C74.5,93.6,74.4,93.2,74.2,93.3z"/>
<path class="st1" d="M72.2,95c0.4-0.6,0.6-1.2,0.8-1.8c0.1-0.7,0.2-1.3,0.2-2c0-0.3-0.2-0.6-0.6-0.7c-0.2-0.1-0.4,0-0.6,0.1
	c-0.2,0.1-0.4,0.4-0.4,0.7c0.1,1.2,0.1,2.4,0,3.6C71.6,95.1,72,95.2,72.2,95L72.2,95z"/>
<path class="st1" d="M75.1,93.4c-0.6-1.6-1.2-3.2-1.8-4.8c-0.3-0.8-0.4-2.4-1.6-2.1c-0.4,0.1-0.7,0.5-0.7,0.9
	c0.1,2.3,1.9,4.5,2.9,6.5C74.3,94.5,75.4,94.1,75.1,93.4z"/>
<path class="st1" d="M69.9,79.9c-0.1,1.3,0.2,2.6,0.8,3.7c0.4,1.3,1,2.5,1.8,3.5c0.1,0.1,0.3,0.1,0.5,0c0.1-0.1,0.1-0.2,0.1-0.3
	c-0.4-1.4-0.9-2.7-1.6-3.9c-0.3-1.1-0.8-2.1-1.4-3C70,79.8,69.9,79.8,69.9,79.9C69.9,79.8,69.9,79.8,69.9,79.9L69.9,79.9z"/>
<path class="st1" d="M69.4,80.7c-0.6,0.2-1.2,0.4-1.7,0.8c-0.5,0.3-1,0.6-1.5,0.9s-0.8,1.1-0.1,1.3c0.2,0,0.3,0,0.4-0.2
	c0-0.1,0-0.1,0-0.2c-0.2-0.5,1.2-1.1,1.5-1.3c0.5-0.3,1-0.7,1.5-1.2c0,0,0-0.1,0-0.2C69.5,80.7,69.4,80.7,69.4,80.7z"/>
<path class="st1" d="M66.7,82.5c1.1-0.4,2.1-0.9,3.1-1.5c0.4-0.2,0-0.8-0.3-0.6c-0.9,0.6-1.9,1.2-2.9,1.6
	C66.3,82.2,66.4,82.6,66.7,82.5z"/>
<path class="st1" d="M68.2,81.1c0.4-0.1,0.8-0.2,1.2-0.4c0.1-0.1,0.2-0.3,0.1-0.4c-0.1-0.1-0.2-0.2-0.3-0.1
	c-0.4,0.1-0.8,0.3-1.1,0.6c-0.1,0-0.1,0.2-0.1,0.2C68,81.1,68.1,81.1,68.2,81.1z"/>
<path class="st1" d="M66.8,83.5C66.8,83.5,66.8,83.5,66.8,83.5C66.8,83.4,66.8,83.4,66.8,83.5C66.8,83.4,66.8,83.4,66.8,83.5
	C66.8,83.4,66.7,83.4,66.8,83.5C66.7,83.5,66.8,83.5,66.8,83.5z"/>
<path class="st1" d="M66.7,83.7c0.7,0,1.4-0.2,2-0.5c0.5-0.2,1.3-0.3,1.4-1c0-0.2,0-0.4-0.2-0.5c-0.6-0.4-1.3,0.2-1.8,0.4
	c-0.6,0.3-1.1,0.7-1.6,1.2C66.5,83.5,66.6,83.7,66.7,83.7L66.7,83.7z"/>
<path class="st1" d="M68.2,84.5c1,0.2,2,0.1,2.9-0.3c0.7-0.3,0.2-1.3-0.5-1.1s-1.6,0.4-2.4,0.7C67.8,83.8,67.8,84.4,68.2,84.5z"/>
<path class="st1" d="M68.7,85.4c0.2,0.1,0.4,0.2,0.6,0.4c0.3,0.1,0.6,0.2,0.8,0.2c0.5,0.1,1.2,0.3,1.6-0.1c0.3-0.2,0.4-0.6,0.2-0.9
	c0,0,0,0-0.1-0.1c-0.4-0.4-1-0.4-1.6-0.4c-0.3,0-0.5,0-0.8,0c-0.3,0-0.5,0.2-0.8,0.3c-0.2,0-0.3,0.2-0.2,0.4
	C68.6,85.3,68.7,85.4,68.7,85.4L68.7,85.4z"/>
<path class="st1" d="M68.9,86.2c0.2,0.6,0.6,1,1.2,1.2c0.6,0.3,1.3,0.3,1.9,0c0.3-0.2,0.4-0.6,0.2-0.9c-0.1-0.1-0.1-0.2-0.2-0.2
	c-0.5-0.2-1-0.3-1.5-0.3c-0.5-0.1-0.9-0.1-1.4-0.1C69,86,68.9,86.1,68.9,86.2z"/>
<path class="st1" d="M68.6,85.9c-0.3,1.1,0.5,2.1,1,3s0.8,2.2,1.9,2.3c0.2,0,0.3-0.1,0.4-0.2c0.4-1-0.6-2-1-2.8s-1-2.1-2-2.4
	C68.7,85.8,68.7,85.9,68.6,85.9C68.6,85.9,68.6,86,68.6,85.9L68.6,85.9z"/>
<path class="st1" d="M46.9,48.1c0.9-0.4,1.7-0.8,2.5-1.2c0.9-0.4,1.7-0.8,2.5-1.3c0.2-0.2,0-0.5-0.2-0.4c-0.9,0.2-1.8,0.6-2.6,1.1
	c-0.8,0.4-1.6,1-2.3,1.6C46.6,48,46.7,48.2,46.9,48.1L46.9,48.1z"/>
<path class="st1" d="M49.4,46.2c0.8-0.2,1.5-0.6,2.1-1.1c0.1-0.1,0.2-0.2,0.2-0.4c0-0.1,0-0.1-0.1-0.2c-0.1-0.1-0.3-0.1-0.4,0
	c-0.7,0.3-1.4,0.8-1.9,1.4c-0.1,0.1-0.1,0.2,0,0.2C49.3,46.2,49.4,46.2,49.4,46.2L49.4,46.2z"/>
<path class="st1" d="M50.9,44.4c1.4,5.1,4.6,9.5,7,14.2c0.2,0.4,0.8,0,0.6-0.3c-2.3-4.7-3.9-9.9-7.2-14
	C51.1,44.1,50.8,44.2,50.9,44.4L50.9,44.4z"/>
<path class="st1" d="M50.4,58.3c0.9-0.4,1.8-0.9,2.7-1.5c1-0.6,2-1.1,3-1.8c0.2-0.2,0.1-0.6-0.2-0.5c-1,0.5-2,1-2.9,1.6
	c-1,0.5-1.9,1.1-2.8,1.8c-0.1,0.1-0.1,0.2,0,0.2C50.3,58.3,50.3,58.3,50.4,58.3z"/>
<path class="st1" d="M53.5,56.8c0.4,0,0.8-0.2,1.1-0.3c1-0.5,1.3,0.3,1.8,1s1.1,1.5,1.9,1.4c0.1,0,0.2-0.1,0.2-0.2c0,0,0,0,0-0.1
	c-0.3-0.6-0.9-0.9-1.3-1.4s-0.5-1.1-0.9-1.5c-1-0.7-2,0.4-2.8,0.8C53.3,56.7,53.4,56.9,53.5,56.8L53.5,56.8z"/>
<path class="st1" d="M58,58.9c0.1,0.1,0.3,0.2,0.4,0.2c0.3,0.1,0.4-0.4,0.1-0.5c-0.2-0.1-0.3-0.1-0.5-0.1
	C57.9,58.6,57.9,58.8,58,58.9z"/>
<path class="st1" d="M55.6,54.2c-0.6,0.1-1.1,0.4-1.5,0.7c-0.5,0.3-1,0.7-1.4,1.2c-0.1,0.2,0.1,0.6,0.4,0.5c0.5-0.3,1-0.6,1.4-1
	c0.5-0.3,0.9-0.7,1.3-1.2C55.8,54.3,55.7,54.3,55.6,54.2C55.7,54.2,55.7,54.2,55.6,54.2L55.6,54.2z"/>
<path class="st1" d="M52.8,56.5c0.8-0.5,1.4-1.2,1.9-2c0.5-0.8,0.4-1.7-0.1-2.5c-0.2-0.2-0.4-0.2-0.6,0c-0.1,0.1-0.1,0.2-0.1,0.3
	c0,0.3,0.1,0.7,0.1,1c0,0.4-0.1,0.9-0.4,1.3c-0.3,0.6-0.7,1.2-1.1,1.7C52.5,56.4,52.6,56.6,52.8,56.5L52.8,56.5z"/>
<path class="st1" d="M52.8,55.9c-0.3,0.2-0.6,0.4-0.9,0.7c-0.3,0.3,0.2,0.9,0.5,0.5c0.3-0.2,0.5-0.5,0.7-0.9c0.1-0.1,0-0.3-0.1-0.4
	C53,55.8,52.9,55.8,52.8,55.9z"/>
<path class="st1" d="M51.9,49.4c-0.1,1.2,0.6,2.4,1.7,3c0.2,0.1,0.3,0.1,0.5,0h0.1c0.1-0.1,0.2-0.2,0.2-0.3c0-0.5-0.7-0.8-1.1-1.2
	c-0.4-0.5-0.7-1-0.9-1.6C52.3,49.3,52.1,49.2,51.9,49.4C52,49.3,51.9,49.4,51.9,49.4L51.9,49.4z"/>
<path class="st2" d="M43,28.1c1.1,5.4,3.9,10.4,8,14.1c0.6,0.5,1.5-0.3,0.9-0.9c-3.8-3.8-6.6-8.3-8.5-13.3c0-0.1-0.2-0.2-0.3-0.1
	C43,27.9,43,28,43,28.1L43,28.1z"/>
<path class="st2" d="M59.5,59c-0.5,2.9,1.6,6.4,2.9,9c1.8,3.6,3.9,7.2,6.1,10.6c0.5,0.8,1.8,0.1,1.3-0.8c-4-5.9-7.3-12.2-9.8-18.8
	C59.9,58.8,59.5,58.7,59.5,59L59.5,59z"/>
<path class="st3" d="M86,33.7c0.3,0,0.7,0,1-0.1c0.1,0,0.1-0.1,0-0.2c0,0,0,0,0,0c-0.3-0.1-0.7-0.1-1-0.1c-0.1,0-0.2,0.2-0.2,0.3
	C85.8,33.6,85.9,33.7,86,33.7z"/>
<path class="st3" d="M77.4,31c0.2,0,0.3,0,0.5,0c0.1,0,0.1-0.1,0.1-0.2c0,0,0-0.1-0.1-0.1c-0.1-0.1-0.3-0.1-0.5-0.2
	c-0.1,0-0.3,0-0.3,0.2c0,0.1,0,0.3,0.2,0.3C77.3,31,77.3,31,77.4,31L77.4,31z"/>
<path class="st3" d="M71.8,31.6c0.3,0,0.6,0.1,0.9,0.1c0.1,0,0.2-0.1,0.2-0.2c0-0.1,0-0.1-0.1-0.1c-0.3-0.2-0.7-0.3-1.1-0.2
	C71.5,31.1,71.5,31.6,71.8,31.6z"/>
<path class="st3" d="M73.2,35.4c0.2,0.1,0.5,0.1,0.7,0.1c0.3,0,0.4-0.5,0.1-0.6c-0.2-0.1-0.4-0.1-0.6-0.2
	C73,34.7,72.8,35.3,73.2,35.4z"/>
<path class="st3" d="M79.3,34.5c0.3,0.2,0.6,0.3,0.9,0.3c0.1,0,0.2-0.1,0.2-0.2c0,0,0-0.1,0-0.1c-0.2-0.2-0.4-0.4-0.7-0.6
	C79.3,33.8,79,34.3,79.3,34.5z"/>
<path class="st3" d="M81.3,39c0.2,0.1,0.5,0.2,0.7,0.1c0.1,0,0.2-0.2,0.2-0.3c0,0,0-0.1-0.1-0.1c-0.2-0.1-0.4-0.2-0.6-0.2
	C81.3,38.4,81,38.8,81.3,39z"/>
<path class="st3" d="M83.7,36.7c0.2,0.2,0.4,0.3,0.7,0.4c0.1,0.1,0.3-0.1,0.2-0.2c-0.1-0.2-0.3-0.4-0.5-0.6
	C83.9,36,83.4,36.4,83.7,36.7z"/>
<path class="st3" d="M76.2,38.3l0.3,0.1c0.1,0.1,0.3,0,0.3-0.1c0.1-0.1,0-0.3-0.1-0.3l-0.3-0.2C76,37.5,75.7,38.1,76.2,38.3z"/>
<path class="st3" d="M48.1,28.3c0.3,0,0.6,0,0.9,0c0.2,0,0.2-0.3,0-0.4c-0.3-0.1-0.6-0.1-0.9-0.1C47.8,27.8,47.8,28.3,48.1,28.3z"/>
<path class="st3" d="M53.1,29.9c0.2,0.1,0.4,0.1,0.5,0.1c0.1,0,0.2-0.1,0.2-0.2c0,0,0-0.1,0-0.1c-0.1-0.1-0.3-0.2-0.5-0.3
	c-0.1-0.1-0.3,0-0.4,0.1S52.9,29.8,53.1,29.9C53,29.9,53.1,29.9,53.1,29.9z"/>
<path class="st3" d="M54.2,33.6c0.2,0.2,0.4,0.3,0.7,0.3c0.1,0,0.1,0,0.1-0.1c0,0,0,0,0,0c-0.1-0.2-0.3-0.4-0.5-0.5
	c-0.1-0.1-0.2-0.1-0.3,0C54,33.3,54,33.5,54.2,33.6C54.2,33.6,54.2,33.6,54.2,33.6z"/>
<path class="st3" d="M48.4,31.1c0.4,0.2,0.8,0.3,1.2,0.4c0.1,0,0.2,0,0.2-0.1c0-0.1,0-0.2-0.1-0.3c-0.3-0.2-0.6-0.4-1-0.5
	C48.4,30.5,48.1,31,48.4,31.1L48.4,31.1z"/>
<path class="st3" d="M50.9,35.8l0.3,0.1c0.2,0.1,0.4-0.3,0.2-0.4l-0.3-0.2C50.8,35.2,50.5,35.8,50.9,35.8z"/>
<path class="st3" d="M51.9,39.8c0.3,0.2,0.6,0.3,1,0.4c0.1,0,0.2-0.1,0.2-0.2c0,0,0-0.1-0.1-0.1c-0.2-0.2-0.5-0.4-0.8-0.5
	C51.9,39.2,51.6,39.7,51.9,39.8L51.9,39.8z"/>
<path class="st3" d="M67.5,47.6h0.3c0.2,0,0.3-0.1,0.3-0.3c0-0.1,0-0.2-0.1-0.3l-0.2-0.1C67.2,46.6,67,47.6,67.5,47.6L67.5,47.6z"/>
<path class="st3" d="M72.3,48.3c0.2,0.2,0.3,0.3,0.5,0.4c0.1,0.1,0.3,0,0.4-0.1c0.1-0.1,0.1-0.2,0-0.3c-0.1-0.2-0.2-0.4-0.4-0.5
	C72.5,47.4,72,48,72.3,48.3z"/>
<path class="st3" d="M69.4,51.6c0.3,0.3,0.7,0.5,1.1,0.5c0.1,0,0.2-0.1,0.2-0.2c0,0,0-0.1,0-0.1c-0.2-0.4-0.6-0.5-1-0.7
	c-0.1-0.1-0.3,0-0.4,0.1C69.3,51.4,69.3,51.5,69.4,51.6L69.4,51.6z"/>
<path class="st3" d="M73.5,51.6C73.5,51.6,73.5,51.6,73.5,51.6C73.5,51.5,73.5,51.5,73.5,51.6C73.5,51.5,73.5,51.5,73.5,51.6
	C73.4,51.5,73.4,51.5,73.5,51.6C73.4,51.6,73.4,51.6,73.5,51.6z"/>
<path class="st3" d="M78,50c0.4,0.4,0.8,0.6,1.3,0.8c0.2,0,0.3-0.1,0.2-0.3c-0.3-0.4-0.7-0.8-1.2-1C78.1,49.4,77.8,49.8,78,50L78,50
	z"/>
<path class="st3" d="M76.2,54.6c0.4,0.1,1.1,0.5,1.5,0.3c0.1-0.1,0.1-0.2,0.1-0.2c-0.2-0.4-1-0.5-1.4-0.6c-0.2,0-0.3,0.1-0.4,0.2
	C76,54.4,76.1,54.6,76.2,54.6z"/>
<path class="st3" d="M74.4,51.4l0.3,0.3c0.2,0.2,0.4,0,0.3-0.2l-0.2-0.3C74.6,50.8,74.2,51.1,74.4,51.4z"/>
<path class="st3" d="M74,57.2c0.3,0.2,0.6,0.4,1,0.4c0.1,0,0.2-0.1,0.2-0.2c0,0,0-0.1,0-0.1c-0.2-0.3-0.5-0.5-0.8-0.6
	c-0.1-0.1-0.3,0-0.4,0.1C73.8,56.9,73.9,57.1,74,57.2L74,57.2z"/>
<path class="st3" d="M79.1,59.9c0.4,0.2,0.8,0.5,1.2,0.4c0.1,0,0.2-0.1,0.1-0.3c0,0,0,0,0,0c-0.2-0.4-0.7-0.4-1.1-0.6
	S78.8,59.8,79.1,59.9z"/>
<path class="st3" d="M84.8,53c0.3,0.2,0.6,0.4,0.9,0.5c0.1,0.1,0.3,0,0.3-0.1c0.1-0.1,0-0.3-0.1-0.4c-0.2-0.3-0.5-0.5-0.8-0.6
	c-0.1-0.1-0.3,0-0.4,0.1S84.7,52.8,84.8,53L84.8,53L84.8,53z"/>
<path class="st3" d="M81.6,56.2l0.5,0.2c0.2,0,0.3-0.1,0.3-0.2c0-0.1,0-0.2-0.1-0.3l-0.4-0.2c-0.2-0.1-0.4,0-0.4,0.2
	C81.4,55.9,81.5,56.1,81.6,56.2z"/>
<path class="st3" d="M63.3,62.5c0.2,0.1,0.9,1,1.2,0.4c0.1-0.1,0.1-0.2,0-0.3c-0.2-0.3-0.6-0.5-1-0.6c-0.1,0-0.3,0.1-0.3,0.2
	C63.2,62.3,63.2,62.4,63.3,62.5z"/>
<path class="st3" d="M68.3,67.1l0.3,0.2c0.1,0.1,0.3,0,0.4-0.1c0.1-0.1,0-0.2,0-0.3l-0.2-0.2C68.4,66.2,67.9,66.8,68.3,67.1z"/>
<path class="st3" d="M71.8,71.2c0.1,0.2,0.3,0.4,0.5,0.6c0.1,0.1,0.3,0,0.4-0.1c0-0.1,0-0.2,0-0.3c-0.2-0.2-0.4-0.4-0.6-0.5
	C71.9,70.7,71.7,71,71.8,71.2z"/>
<path class="st3" d="M69.1,73.1c0.2,0.2,0.2,0.4,0.5,0.5c0.1,0,0.2,0,0.3-0.1c0,0,0-0.1,0-0.1c0-0.3-0.2-0.4-0.4-0.6
	S68.9,72.9,69.1,73.1z"/>
<path class="st3" d="M66,69.3l0.1,0.2c0.1,0.2,0.5,0.1,0.5-0.1v-0.2C66.6,68.6,65.8,68.9,66,69.3L66,69.3z"/>
<path class="st3" d="M64.6,67c0.2,0.1,0.4,0.2,0.6,0.3c0.1,0,0.2,0,0.2-0.1c0,0,0-0.1,0-0.1c-0.1-0.3-0.3-0.6-0.6-0.7
	c-0.1-0.1-0.3,0-0.4,0.2S64.5,66.9,64.6,67z"/>
<path class="st3" d="M94.1,67.7c0.1,0.1,0.3,0.2,0.5,0.2c0.2,0,0.4-0.2,0.2-0.4c-0.1-0.1-0.3-0.2-0.5-0.3
	C94,67.1,93.9,67.5,94.1,67.7z"/>
<path class="st3" d="M98.6,67.7c0.2,0.1,0.4,0.2,0.6,0.2c0.1,0,0.1-0.1,0.1-0.2c0,0,0,0,0-0.1c-0.1-0.2-0.2-0.3-0.4-0.5
	c-0.1-0.1-0.3-0.1-0.4,0C98.4,67.3,98.4,67.5,98.6,67.7C98.5,67.7,98.5,67.7,98.6,67.7z"/>
<path class="st3" d="M96.3,71.7l0.3,0.1c0.3,0.1,0.4-0.3,0.2-0.4l-0.2-0.2C96.2,71,96,71.6,96.3,71.7z"/>
<path class="st3" d="M95.5,75.2c0.3,0.3,0.7,0.5,1.1,0.6c0.1,0,0.2-0.1,0.2-0.2c0,0,0-0.1,0-0.1c-0.3-0.3-0.6-0.6-1-0.7
	C95.4,74.6,95.2,75,95.5,75.2L95.5,75.2z"/>
<path class="st3" d="M101.7,72.4c0.1,0.4,0.5,0.7,0.9,0.7c0.1,0,0.2-0.1,0.2-0.3c0-0.1,0-0.2-0.1-0.2c-0.2-0.1-0.3-0.2-0.4-0.4
	S101.5,72,101.7,72.4z"/>
<path class="st3" d="M106.6,70.2c0.4,0.2,0.8,0.3,1.2,0.3c0.1,0,0.2-0.2,0.1-0.3c-0.4-0.2-0.8-0.4-1.2-0.5
	C106.5,69.6,106.3,70.1,106.6,70.2z"/>
<path class="st3" d="M110,69.7c0.1,0.1,0.2,0.1,0.3,0.2c0.2,0.1,0.4-0.2,0.3-0.3c-0.1-0.1-0.2-0.2-0.3-0.3c-0.1-0.1-0.3-0.1-0.4,0
	S109.8,69.6,110,69.7C110,69.7,110,69.7,110,69.7z"/>
<path class="st3" d="M105.5,75.7c0.3,0.2,0.6,0.3,0.9,0.3c0.1,0,0.2-0.1,0.2-0.2c0,0,0-0.1,0-0.1c-0.2-0.2-0.5-0.3-0.8-0.4
	C105.5,75.1,105.2,75.5,105.5,75.7z"/>
<path class="st3" d="M102.7,78.4c0.4,0.2,0.9,0.7,1.3,0.6c0.1,0,0.2-0.1,0.2-0.2c0,0,0-0.1,0-0.1c-0.2-0.4-0.8-0.6-1.3-0.8
	c-0.1-0.1-0.3,0-0.3,0.1C102.6,78.2,102.6,78.4,102.7,78.4z"/>
<path class="st3" d="M101.7,82.1c0.2,0.2,0.4,0.3,0.7,0.4c0.2,0.1,0.4-0.2,0.2-0.4c-0.2-0.2-0.4-0.3-0.6-0.5
	C101.7,81.4,101.4,81.9,101.7,82.1z"/>
<path class="st3" d="M98.3,81.3c0.2,0.3,0.5,0.5,0.9,0.6c0.1,0,0.3-0.1,0.3-0.2c0-0.1,0-0.2-0.1-0.2c-0.2-0.2-0.5-0.4-0.9-0.6
	C98.4,80.9,98.1,81.1,98.3,81.3z"/>
<path class="st3" d="M99.4,76.8h0.2c0.3,0,0.3-0.4,0.1-0.5l-0.2-0.1C99.1,75.9,98.8,76.7,99.4,76.8L99.4,76.8z"/>
<path class="st3" d="M102.2,69c0.3,0.2,0.6,0.3,0.9,0.2c0.2,0,0.2-0.2,0.1-0.4c-0.2-0.2-0.5-0.4-0.8-0.4c-0.1,0-0.3,0.1-0.3,0.2
	C102,68.8,102.1,68.9,102.2,69z"/>
<path class="st3" d="M80.5,85.3c0.1,0.3,0.3,0.5,0.5,0.7c0.1,0,0.2,0,0.2,0c0,0,0-0.1,0-0.1c0-0.3-0.1-0.6-0.2-0.8
	C80.8,84.8,80.4,85.1,80.5,85.3L80.5,85.3z"/>
<path class="st3" d="M81.1,92c0.2,0.2,0.4,0.5,0.6,0.6c0.2,0.1,0.5-0.1,0.4-0.4c-0.2-0.2-0.4-0.4-0.7-0.6C81.1,91.5,81,91.8,81.1,92
	z"/>
<path class="st3" d="M87.4,88.5c0.2,0.4,0.5,0.7,0.8,1c0.1,0.1,0.3,0,0.4-0.1c0-0.1,0-0.1,0-0.2c-0.2-0.4-0.4-0.7-0.7-1
	C87.6,87.9,87.2,88.2,87.4,88.5L87.4,88.5z"/>
<path class="st3" d="M83.3,88.8c0.2,0.3,0.5,0.5,0.8,0.7c0.2,0.1,0.4-0.1,0.3-0.3c-0.1-0.3-0.3-0.6-0.6-0.8
	C83.5,88.3,83.1,88.5,83.3,88.8z"/>
<path class="st3" d="M87.1,96.2c0.2,0.2,0.4,0.3,0.6,0.5c0.1,0.1,0.3,0,0.4-0.1c0-0.1,0-0.2,0-0.3c-0.2-0.2-0.4-0.3-0.6-0.4
	c-0.1-0.1-0.2-0.1-0.3,0S87,96.2,87.1,96.2z"/>
<path class="st3" d="M83.2,97.6c0.2,0.5,0.6,1.2,1.2,1.2c0.1,0,0.3-0.1,0.3-0.3c0,0,0-0.1,0-0.1c-0.3-0.4-0.7-0.6-1-1
	C83.5,97.1,83,97.3,83.2,97.6L83.2,97.6z"/>
<path class="st3" d="M85.8,93.2l0.1,0.2c0.2,0.2,0.6,0.2,0.6-0.2V93C86.5,92.4,85.5,92.7,85.8,93.2L85.8,93.2z"/>
<path class="st3" d="M91.8,92.7c0.3,0.3,0.6,0.5,1,0.7c0.2,0.1,0.4-0.2,0.3-0.4c-0.2-0.3-0.5-0.5-0.8-0.8C92,92,91.5,92.5,91.8,92.7
	L91.8,92.7z"/>
<path class="st3" d="M90,94.5l0.4,0.2c0.2,0.1,0.4-0.2,0.2-0.3l-0.3-0.3c-0.1-0.1-0.2-0.1-0.3,0C89.9,94.2,89.8,94.4,90,94.5
	C89.9,94.5,90,94.5,90,94.5z"/>
<path class="st3" d="M92.1,99l0.4,0.2c0.2,0.1,0.5-0.2,0.3-0.4l-0.3-0.2C92.1,98.3,91.7,98.8,92.1,99z"/>
<path class="st3" d="M95.7,96.9l0.3,0.2c0.1,0,0.2,0,0.2-0.1c0-0.1,0-0.1-0.1-0.2l-0.3-0.2C95.7,96.4,95.5,96.8,95.7,96.9z"/>
<path class="st3" d="M88.3,99.8c0.2,0.1,0.4,0.2,0.6,0.3c0.2,0.1,0.4-0.1,0.3-0.3c-0.2-0.3-0.5-0.5-0.8-0.4
	C88.1,99.4,88.1,99.7,88.3,99.8L88.3,99.8z"/>
<path class="st3" d="M85.7,101.7c0.1,0.2,0.2,0.5,0.4,0.6c0.1,0.1,0.2,0.1,0.3,0c0.1-0.1,0.1-0.1,0.1-0.2c-0.1-0.3-0.2-0.5-0.3-0.7
	c-0.1-0.1-0.3-0.1-0.4,0C85.6,101.5,85.6,101.6,85.7,101.7z"/>
<path class="st3" d="M89.3,103.8c0.2,0.3,0.5,0.5,0.8,0.6c0.1,0,0.2,0,0.3-0.2c0-0.1,0-0.1,0-0.2c-0.2-0.3-0.4-0.5-0.7-0.6
	c-0.1-0.1-0.3-0.1-0.3,0C89.2,103.6,89.2,103.7,89.3,103.8L89.3,103.8z"/>
<path class="st3" d="M92.1,102.2c0.2,0.2,0.5,0.4,0.8,0.5c0.2,0,0.5-0.2,0.3-0.4c-0.2-0.3-0.5-0.5-0.8-0.6
	C92.1,101.5,91.8,101.9,92.1,102.2z"/>
<path class="st3" d="M95.9,100.6h0.3c0.2,0,0.3-0.1,0.3-0.3c0-0.1-0.1-0.2-0.2-0.3l-0.2-0.1C95.5,99.6,95.3,100.5,95.9,100.6z"/>
<path class="st3" d="M96.5,93.8c0.2,0.2,0.4,0.4,0.7,0.5c0.2,0.1,0.3-0.2,0.2-0.3c-0.1-0.2-0.3-0.4-0.5-0.6
	C96.6,93.2,96.2,93.6,96.5,93.8z"/>
<path class="st3" d="M98.8,49.4c0.3,0.1,0.7,0.1,1-0.1c0.1-0.1,0.2-0.3,0.1-0.4c0-0.1-0.1-0.1-0.2-0.1c-0.3-0.1-0.6-0.1-0.9,0.1
	C98.6,49,98.5,49.4,98.8,49.4L98.8,49.4z"/>
<path class="st3" d="M101.8,45.4c0.3-0.1,0.6-0.3,0.9-0.5c0.1-0.1,0.1-0.2,0.1-0.3c0-0.1-0.1-0.1-0.2-0.1c-0.3,0.1-0.7,0.2-1,0.3
	c-0.2,0.1-0.2,0.2-0.2,0.4C101.5,45.4,101.7,45.4,101.8,45.4L101.8,45.4L101.8,45.4z"/>
<path class="st3" d="M106.7,43.1c0.4-0.1,0.7-0.3,1-0.5c0.1-0.1,0-0.2-0.1-0.2c-0.4,0-0.7,0.1-1.1,0.2
	C106.2,42.7,106.3,43.2,106.7,43.1L106.7,43.1z"/>
<path class="st3" d="M112.9,41.6C112.9,41.6,112.9,41.6,112.9,41.6C112.9,41.5,112.9,41.5,112.9,41.6
	C112.9,41.5,112.9,41.5,112.9,41.6C112.9,41.5,112.8,41.5,112.9,41.6C112.8,41.6,112.9,41.6,112.9,41.6z"/>
<path class="st3" d="M101.9,52.8c0.2,0.3,0.5,0.4,0.8,0.5c0.1,0,0.2-0.1,0.2-0.2c0,0,0-0.1,0-0.1c-0.2-0.3-0.5-0.5-0.8-0.5
	c-0.1,0-0.3,0.1-0.3,0.2C101.8,52.6,101.9,52.7,101.9,52.8z"/>
<path class="st3" d="M103.7,55.7c0.4,0.1,0.9,0.3,1.3,0.2c0.1-0.1,0.1-0.2,0-0.3c0,0,0,0,0,0c-0.3-0.3-0.8-0.3-1.2-0.4
	c-0.1,0-0.3,0-0.3,0.2S103.5,55.7,103.7,55.7L103.7,55.7z"/>
<path class="st3" d="M109.8,57.4c0.4,0.2,1.3,0.4,1.4-0.2s-0.8-0.3-1.1-0.4S109.4,57.2,109.8,57.4z"/>
<path class="st3" d="M105.7,48.9c0.3-0.1,0.7-0.1,1-0.2c0.1,0,0.1-0.1,0.1-0.2c0-0.1-0.1-0.1-0.1-0.1c-0.4,0-0.7,0-1.1,0
	c-0.1,0-0.2,0.1-0.2,0.3C105.4,48.8,105.5,48.9,105.7,48.9L105.7,48.9z"/>
<path class="st3" d="M111.5,46.1c0.3,0,0.5,0,0.8-0.1c0.1,0,0.2-0.2,0.2-0.3c0-0.1-0.1-0.1-0.2-0.2c-0.3,0-0.5-0.1-0.8-0.1
	C111.1,45.5,111.1,46.1,111.5,46.1z"/>
<path class="st3" d="M106.3,52.3c0.5,0,1,0,1.5,0c0.2,0,0.3-0.4,0.1-0.5c-0.5-0.1-1-0.2-1.5-0.2C105.9,51.7,105.9,52.3,106.3,52.3
	L106.3,52.3z"/>
<path class="st3" d="M112.8,52.1c0.5,0,1-0.1,1.5-0.2c0.2-0.1,0.2-0.3,0-0.3c-0.5-0.1-1-0.1-1.5-0.1c-0.2,0-0.3,0.1-0.3,0.3
	C112.4,52,112.6,52.1,112.8,52.1z"/>
<path class="st3" d="M111.8,49l0.6-0.2c0.1,0,0.1-0.1,0.1-0.1c0,0,0-0.1-0.1-0.1l-0.6,0.1C111.7,48.8,111.7,49,111.8,49L111.8,49z"
	/>
<path class="st3" d="M114.1,42.5h0.5c0.1,0,0.1-0.1,0.1-0.1c0-0.1-0.1-0.1-0.1-0.1l-0.5-0.1c-0.1,0-0.2,0-0.2,0.1
	C113.9,42.3,113.9,42.4,114.1,42.5C114.1,42.4,114.1,42.4,114.1,42.5L114.1,42.5z"/>
<path class="st3" d="M115.4,49c0.5,0.3,1,0.4,1.5,0.3c0.1,0,0.2-0.2,0.2-0.3c0,0,0-0.1-0.1-0.1c-0.4-0.3-0.9-0.5-1.4-0.5
	c-0.2,0-0.3,0.1-0.3,0.3C115.2,48.8,115.3,48.9,115.4,49z"/>
<path class="st3" d="M113.7,56c0.6,0.1,1.3-0.1,1.8-0.5c0.2-0.1,0-0.4-0.2-0.4c-0.5,0.2-1.1,0.3-1.6,0.4c-0.1,0-0.2,0.1-0.2,0.2
	C113.5,55.9,113.6,56,113.7,56z"/>
<path class="st4" d="M110.9,45.4c0.3,0,0.5,0,0.8,0c0.1,0,0.1-0.1,0.1-0.2c0-0.1-0.1-0.1-0.1-0.1c-0.3,0-0.5,0-0.8,0
	c-0.1,0-0.1,0.1-0.1,0.2C110.8,45.3,110.9,45.3,110.9,45.4L110.9,45.4z"/>
<path class="st4" d="M106.3,42.5c0.5,0,0.9-0.1,1.3-0.3c0.1,0,0.1-0.1,0.1-0.2c0,0-0.1-0.1-0.1-0.1c-0.4,0-0.9,0.1-1.3,0.3
	C106.2,42.3,106.2,42.6,106.3,42.5L106.3,42.5z"/>
<path class="st4" d="M114,42.2c0.2,0.1,0.5,0.1,0.8,0.1c0.2,0,0.1-0.3,0-0.3c-0.2-0.1-0.5-0.1-0.7,0C113.9,41.9,113.8,42.2,114,42.2
	L114,42.2z"/>
<path class="st4" d="M115.5,48.6c0.2,0.2,0.5,0.2,0.8,0.2c0.1,0,0.2-0.1,0.2-0.2c0-0.1,0-0.1-0.1-0.2c-0.3-0.1-0.5-0.2-0.8-0.1
	C115.4,48.2,115.4,48.5,115.5,48.6L115.5,48.6z"/>
<path class="st4" d="M105.7,48.4c0.3,0,0.6,0,0.9-0.1c0.2-0.1,0.1-0.3-0.1-0.4c-0.3,0-0.6,0-0.9,0.2
	C105.4,48.2,105.5,48.4,105.7,48.4z"/>
<path class="st4" d="M112.2,51.7c0.3,0,0.6,0,0.9-0.1c0.1-0.1,0.2-0.2,0.1-0.3c0,0-0.1-0.1-0.1-0.1c-0.3,0-0.6,0-0.9,0.2
	c-0.1,0-0.2,0.1-0.1,0.2C112.1,51.6,112.1,51.6,112.2,51.7z"/>
<path class="st4" d="M106.2,51.7c0.3,0.1,0.7,0.1,1-0.2c0.1-0.1,0.1-0.3,0-0.3c-0.4-0.1-0.8,0-1.1,0.3
	C106.1,51.6,106.1,51.7,106.2,51.7L106.2,51.7z"/>
<path class="st4" d="M110.8,41.3c0.9-0.2,1.9-0.4,2.9-0.5c0.9,0,1.7,0.2,2.6,0.2c0.1,0,0.2-0.1,0.2-0.2c0-0.1,0-0.1-0.1-0.1
	c-1.8-0.8-3.9-0.6-5.7,0.3C110.5,41.1,110.7,41.3,110.8,41.3z"/>
<path class="st4" d="M98.8,49.2c0.4,0,0.9-0.1,1.3-0.2c0.1,0,0.1-0.2,0.1-0.2c0,0,0-0.1-0.1-0.1c-0.4-0.1-0.9-0.1-1.3,0.1
	C98.5,48.7,98.6,49.2,98.8,49.2L98.8,49.2z"/>
<path class="st4" d="M94.3,67.3c0.1,0.3,0.5,0.4,0.8,0.4c0.1,0,0.1-0.2,0.1-0.3c0,0-0.1-0.1-0.1-0.1c-0.2-0.1-0.4-0.2-0.6-0.3
	S94.1,67.1,94.3,67.3L94.3,67.3z"/>
<path class="st4" d="M96.6,71.5c0.2,0.1,0.4,0.1,0.6,0.2c0.1,0,0.2-0.1,0.2-0.2c0,0,0-0.1,0-0.1c-0.2-0.1-0.4-0.2-0.6-0.3
	C96.4,71,96.3,71.4,96.6,71.5z"/>
<path class="st4" d="M99,67.5c0.3,0.2,0.5,0.3,0.8,0.3c0.1,0,0.1-0.1,0.1-0.1c0,0,0-0.1,0-0.1c-0.2-0.2-0.5-0.3-0.7-0.4
	C99,67.1,98.8,67.4,99,67.5z"/>
<path class="st4" d="M95.6,75.1c0.2,0.2,0.6,0.3,0.9,0.3c0.1,0,0.1-0.1,0.1-0.2c0,0,0,0,0,0c-0.2-0.3-0.5-0.4-0.8-0.5
	S95.4,75,95.6,75.1z"/>
<path class="st4" d="M101.6,72.2c0.3,0.3,0.8,0.8,1.3,0.5c0.1-0.1,0.1-0.2,0-0.3c0,0,0,0,0,0c-0.2-0.3-0.7-0.3-1.1-0.5
	S101.4,72.1,101.6,72.2L101.6,72.2z"/>
<path class="st4" d="M102.2,68.8L103,69c0.1,0,0.2-0.1,0.2-0.2c0-0.1,0-0.2-0.1-0.2l-0.7-0.2c-0.1,0-0.2,0.1-0.2,0.2
	C102.1,68.7,102.2,68.8,102.2,68.8z"/>
<path class="st4" d="M103.6,67.3c1,0.1,1.9,0.2,2.9,0.4c0.8,0.3,1.7,0.5,2.6,0.7c0.4,0,0.5-0.5,0.2-0.7c-1.4-1.1-3.9-1.2-5.6-0.9
	c-0.1,0-0.2,0.2-0.2,0.3C103.4,67.2,103.5,67.3,103.6,67.3z"/>
<path class="st4" d="M110.4,69.4c0.2,0.3,0.4,0.5,0.8,0.5c0.1,0,0.2-0.1,0.2-0.2c0,0,0,0,0,0c-0.1-0.4-0.4-0.5-0.7-0.6
	C110.5,69.1,110.4,69.3,110.4,69.4z"/>
<path class="st4" d="M107.1,70c0.3,0.2,0.7,0.2,1,0.2c0.1,0,0.1-0.1,0.1-0.2c0,0,0-0.1-0.1-0.1c-0.3-0.2-0.7-0.2-1-0.1
	c-0.1,0-0.1,0.1-0.1,0.1C106.9,69.9,107,70,107.1,70z"/>
<path class="st4" d="M103,78.1c0.1,0.3,0.4,0.5,0.7,0.5c0.1,0,0.3,0,0.3-0.2c0-0.1,0-0.2-0.1-0.2c-0.2-0.2-0.5-0.3-0.8-0.3
	C103,78,103,78.1,103,78.1C103,78.1,103,78.1,103,78.1z"/>
<path class="st4" d="M99.3,76.4c0.3,0.2,0.6,0.2,0.9,0.2c0.1,0,0.2-0.1,0.1-0.3c0,0,0,0,0,0c-0.2-0.3-0.6-0.3-0.9-0.4
	S99,76.2,99.3,76.4z"/>
<path class="st4" d="M90.4,89.6c0.8,0.5,1.6,1,2.4,1.4c0.7,0.5,1.5,1,2.2,1.5c0.2,0.1,0.5-0.2,0.4-0.4c-0.2-0.9-1.3-1.5-2.1-1.9
	c-0.9-0.5-1.8-0.9-2.8-1c-0.1,0-0.2,0.1-0.2,0.3C90.3,89.5,90.3,89.6,90.4,89.6L90.4,89.6z"/>
<path class="st4" d="M87.8,88.4c0.1,0.3,0.4,0.5,0.6,0.7c0.2,0.1,0.4-0.1,0.4-0.3c-0.1-0.3-0.4-0.5-0.6-0.7
	C88,87.9,87.6,88.1,87.8,88.4z"/>
<path class="st4" d="M83.5,89c0.1,0.2,0.3,0.4,0.6,0.5c0.1,0,0.2,0,0.3-0.2c0,0,0-0.1,0-0.1c-0.1-0.2-0.2-0.5-0.4-0.6
	C83.7,88.3,83.2,88.7,83.5,89z"/>
<path class="st4" d="M80.8,85.2c0.2,0.2,0.3,0.5,0.6,0.5c0.1,0,0.2,0,0.2-0.1c0,0,0,0,0,0c0-0.3-0.2-0.4-0.4-0.6
	S80.7,84.9,80.8,85.2z"/>
<path class="st4" d="M81.4,92c0.1,0.2,0.3,0.4,0.5,0.5c0.1,0.1,0.2,0,0.3-0.1c0,0,0,0,0,0c0.1-0.3-0.1-0.6-0.4-0.6
	c-0.1,0-0.2,0-0.3,0C81.5,91.8,81.4,91.9,81.4,92z"/>
<path class="st4" d="M83.6,97.7c0.2,0.3,0.5,0.5,0.8,0.6c0.1,0,0.2-0.1,0.2-0.2c-0.1-0.3-0.4-0.5-0.7-0.7S83.4,97.5,83.6,97.7z"/>
<path class="st4" d="M86.1,93c0.1,0.3,0.2,0.4,0.4,0.5c0.1,0,0.2,0,0.3-0.1c0.1-0.3-0.1-0.4-0.3-0.7S86,92.7,86.1,93z"/>
<path class="st4" d="M87.4,96c0.2,0.2,0.4,0.3,0.7,0.3c0.1,0,0.2-0.1,0.2-0.2c0,0,0-0.1-0.1-0.1c-0.2-0.2-0.4-0.3-0.7-0.3
	C87.3,95.6,87.2,95.9,87.4,96z"/>
<path class="st4" d="M90.2,94.3c0.2,0.2,0.4,0.3,0.7,0.3c0.1,0,0.2-0.1,0.2-0.2c0,0,0-0.1,0-0.1c-0.1-0.2-0.3-0.4-0.6-0.5
	c-0.1-0.1-0.3,0-0.3,0.1S90,94.3,90.2,94.3z"/>
<path class="st4" d="M92.3,98.6c0.2,0.2,0.4,0.4,0.7,0.4c0.2,0,0.3-0.3,0.1-0.3c-0.2-0.1-0.4-0.2-0.6-0.3c-0.1-0.1-0.2-0.1-0.3,0
	S92.2,98.6,92.3,98.6z"/>
<path class="st4" d="M96.8,93.8c0.1,0.2,0.3,0.3,0.5,0.3c0.2,0,0.3-0.1,0.2-0.3c-0.1-0.2-0.3-0.3-0.5-0.3
	C96.8,93.5,96.7,93.7,96.8,93.8z"/>
<path class="st4" d="M88.7,99.5c0.2,0.1,0.5,0.1,0.7,0.2c0.1,0,0.2-0.2,0.1-0.2c-0.2-0.2-0.5-0.3-0.7-0.3c-0.1,0-0.2,0.1-0.2,0.2
	C88.6,99.4,88.7,99.5,88.7,99.5z"/>
<path class="st4" d="M86.1,101.5l0.1,0.1c0,0.1,0.1,0.1,0.2,0.1h0.2c0.1,0,0.2-0.1,0.2-0.2c0,0,0-0.1,0-0.1l-0.1-0.1
	c0-0.1-0.1-0.1-0.2-0.1h-0.2C86.1,101.3,86.1,101.4,86.1,101.5L86.1,101.5z"/>
<path class="st4" d="M89.8,103.6c0.1,0.2,0.4,0.4,0.7,0.4c0.1,0,0.2-0.1,0.2-0.2c0,0,0-0.1,0-0.1c-0.2-0.2-0.5-0.3-0.8-0.2
	C89.8,103.4,89.8,103.5,89.8,103.6C89.8,103.5,89.8,103.6,89.8,103.6z"/>
<path class="st4" d="M92.9,101.9c0.1,0,0.3,0.1,0.4,0.1c0.1,0,0.2-0.2,0.1-0.2c-0.1-0.1-0.3-0.1-0.4-0.2
	C92.8,101.5,92.6,101.9,92.9,101.9z"/>
<path class="st4" d="M69.5,66.5c0.7,0.7,1.6,1.2,2.3,1.9c0.7,0.7,1.3,1.5,1.9,2.2c0.2,0.3,0.7-0.1,0.5-0.4c-0.5-0.9-1.2-1.8-2-2.5
	c-0.7-0.7-1.5-1.3-2.5-1.6c-0.1,0-0.2,0-0.3,0.1C69.4,66.4,69.4,66.5,69.5,66.5L69.5,66.5z"/>
<path class="st4" d="M72.2,71c0.2,0.2,0.4,0.4,0.7,0.4c0.1,0,0.2-0.1,0.1-0.2c-0.2-0.3-0.4-0.4-0.7-0.5c-0.1,0-0.2,0-0.2,0.1
	C72.2,70.9,72.2,71,72.2,71z"/>
<path class="st4" d="M68.2,66.5c0.2,0.1,0.2,0.3,0.3,0.4c0.1,0,0.1,0,0.2,0v-0.1c0.1-0.1,0.1-0.2,0-0.3c-0.1-0.2-0.3-0.3-0.5-0.3
	c-0.1,0-0.1,0.1-0.1,0.1C68.1,66.5,68.1,66.5,68.2,66.5L68.2,66.5z"/>
<path class="st4" d="M63.9,62.6c0.1,0,0.3,0.1,0.4,0.1c0.1,0,0.2-0.1,0.1-0.2c0-0.1-0.1-0.1-0.1-0.1c-0.1,0-0.2-0.1-0.3-0.1
	c-0.1,0-0.2,0.1-0.2,0.2C63.8,62.5,63.9,62.5,63.9,62.6L63.9,62.6L63.9,62.6z"/>
<path class="st4" d="M64.8,66.7H65c0.2,0,0.3-0.2,0.1-0.3l-0.2-0.1C64.6,66.1,64.5,66.6,64.8,66.7L64.8,66.7z"/>
<path class="st4" d="M66.2,68.9l0.3,0.1c0.1,0.1,0.2,0.1,0.3,0c0.1-0.1,0.1-0.2,0-0.3l-0.2-0.3C66.3,68.2,65.9,68.8,66.2,68.9z"/>
<path class="st4" d="M69.5,73c0.1,0.2,0.3,0.3,0.5,0.5c0.2,0.1,0.4-0.2,0.2-0.3c-0.2-0.2-0.4-0.3-0.6-0.4
	C69.5,72.7,69.4,72.9,69.5,73z"/>
<path class="st4" d="M68.1,47c0.1,0.1,0.3,0.2,0.4,0.2c0.1,0,0.1-0.1,0.1-0.1c0,0,0-0.1,0-0.1c-0.1-0.1-0.3-0.2-0.4-0.2
	C68.1,46.8,68,46.9,68.1,47C68,47,68,47,68.1,47z"/>
<path class="st4" d="M69.8,51.3c0.2,0.2,0.4,0.3,0.7,0.3c0.1,0,0.1-0.1,0.1-0.2c-0.2-0.2-0.4-0.3-0.7-0.3
	C69.8,51.1,69.7,51.2,69.8,51.3z"/>
<path class="st4" d="M74.4,56.9h0.2c0.3,0,0.3-0.3,0.1-0.5l-0.2-0.1C74.2,56.1,73.9,56.8,74.4,56.9L74.4,56.9z"/>
<path class="st4" d="M76.2,54.1c0.3,0.3,0.6,0.4,1,0.4c0.1,0,0.2-0.1,0.1-0.2c0,0,0-0.1,0-0.1c-0.3-0.2-0.6-0.3-1-0.3
	C76.2,53.9,76.2,54,76.2,54.1L76.2,54.1z"/>
<path class="st4" d="M74.5,51.1c0.1,0.3,0.4,0.5,0.7,0.5c0.1,0,0.2-0.1,0.2-0.2c0-0.1,0-0.1-0.1-0.1c-0.2-0.2-0.4-0.2-0.5-0.4
	S74.4,50.9,74.5,51.1z"/>
<path class="st4" d="M72.7,47.8c0.2,0.1,0.4,0.2,0.6,0.3c0.2,0,0.2-0.2,0.1-0.3c-0.2-0.2-0.3-0.3-0.6-0.3
	C72.7,47.4,72.5,47.7,72.7,47.8z"/>
<path class="st4" d="M78.2,49.7c0.2,0.2,0.5,0.3,0.8,0.4c0.1,0,0.2-0.1,0.2-0.2c0,0,0-0.1-0.1-0.1c-0.2-0.2-0.5-0.3-0.8-0.4
	c-0.1,0-0.2,0-0.2,0.2C78.1,49.5,78.2,49.6,78.2,49.7z"/>
<path class="st4" d="M84.7,52.5c0.1,0.1,0.3,0.3,0.5,0.3c0.1,0,0.3-0.1,0.2-0.3c-0.1-0.2-0.3-0.3-0.5-0.3
	C84.8,52.1,84.6,52.3,84.7,52.5z"/>
<path class="st4" d="M81.7,55.8c0.1,0.1,0.3,0.1,0.5,0.1c0.1,0,0.2-0.1,0.2-0.2c0,0,0,0,0-0.1c-0.1-0.2-0.2-0.3-0.3-0.3
	C81.7,55.2,81.4,55.7,81.7,55.8z"/>
<path class="st4" d="M79.3,59.3C79.3,59.3,79.3,59.3,79.3,59.3C79.3,59.3,79.3,59.2,79.3,59.3C79.3,59.2,79.2,59.3,79.3,59.3
	C79.2,59.3,79.3,59.3,79.3,59.3C79.3,59.3,79.3,59.3,79.3,59.3z"/>
<path class="st4" d="M79.2,59.3L79.2,59.3L79.2,59.3L79.2,59.3z"/>
<path class="st4" d="M79,59.6c0.3,0.1,0.7,0.2,1.1,0.2c0.1,0,0.1-0.1,0.1-0.2c0,0,0,0,0,0c-0.3-0.3-0.8-0.4-1.2-0.2
	C78.9,59.4,78.9,59.6,79,59.6z"/>
<path class="st4" d="M80.5,49.6c0.9,0.3,1.8,0.6,2.7,1.1c0.6,0.4,1.2,1.1,1.9,1.2c0.1,0,0.2-0.1,0.2-0.2c0,0,0,0,0,0
	c0-0.9-1.1-1.5-1.8-1.8c-0.9-0.5-2-0.7-3-0.6c-0.1,0-0.2,0.1-0.2,0.3C80.3,49.5,80.4,49.5,80.5,49.6L80.5,49.6z"/>
<path class="st4" d="M71.8,31.5c0.3,0,0.5,0,0.8-0.2c0.1-0.1,0.1-0.2,0-0.3c0,0,0,0,0,0c-0.3-0.2-0.5-0.1-0.8,0
	c-0.1,0-0.2,0.2-0.2,0.3C71.6,31.4,71.7,31.5,71.8,31.5L71.8,31.5z"/>
<path class="st4" d="M73.1,35c0.3,0.1,0.6,0.1,0.9,0c0.1-0.1,0.1-0.2,0.1-0.2c0,0,0,0-0.1-0.1c-0.3-0.2-0.6-0.2-0.9-0.1
	C72.9,34.6,72.9,35,73.1,35L73.1,35z"/>
<path class="st4" d="M76,37.9c0.3,0.1,0.5,0.1,0.7,0c0.1-0.1,0.1-0.2,0.1-0.3c0,0,0-0.1-0.1-0.1c-0.3-0.2-0.4-0.1-0.7,0
	c-0.1,0-0.2,0.2-0.2,0.3C75.9,37.9,75.9,37.9,76,37.9L76,37.9z"/>
<path class="st4" d="M77.1,30.8c0.3,0.1,0.7,0.2,1.1,0.1c0.1,0,0.2-0.2,0.2-0.3c0,0,0-0.1-0.1-0.1c-0.3-0.1-0.7-0.2-1.1-0.2
	c-0.1,0-0.2,0.1-0.2,0.3C76.9,30.7,76.9,30.8,77.1,30.8z"/>
<path class="st4" d="M79.6,34.3c0.2,0,0.4,0,0.6,0c0.1,0,0.2-0.1,0.1-0.2c0-0.1-0.1-0.1-0.1-0.1c-0.2-0.1-0.4-0.1-0.6-0.1
	c-0.1,0-0.2,0.1-0.2,0.2S79.5,34.3,79.6,34.3L79.6,34.3L79.6,34.3z"/>
<path class="st4" d="M81.3,38.8c0.3,0.2,0.7,0.3,1,0c0.1,0,0.1-0.1,0-0.2c0,0,0,0,0,0c-0.2-0.2-0.5-0.1-0.8-0.2S81.2,38.6,81.3,38.8
	L81.3,38.8z"/>
<path class="st4" d="M83.9,36.5c0.2,0.1,0.4,0.1,0.5,0.1c0.1,0,0.2-0.2,0.1-0.2c-0.2-0.1-0.3-0.2-0.5-0.2c-0.1,0-0.2,0-0.3,0.2
	S83.8,36.5,83.9,36.5L83.9,36.5z"/>
<path class="st4" d="M86.3,33.5c0.3,0.1,0.6,0.1,0.8,0.1c0.1,0,0.2-0.2,0-0.2c-0.3-0.1-0.6-0.1-0.9-0.2
	C86.3,33.3,86.2,33.4,86.3,33.5C86.3,33.5,86.3,33.5,86.3,33.5L86.3,33.5z"/>
<path class="st4" d="M80.9,30.6c1,0.1,1.9,0.4,2.8,0.6c0.9,0.4,1.8,0.7,2.7,1c0.2,0,0.4-0.1,0.4-0.3c0-0.1,0-0.2-0.1-0.3
	c-0.7-0.7-1.6-1.1-2.6-1.3c-1-0.3-2.1-0.4-3.1-0.4C80.6,29.9,80.5,30.5,80.9,30.6L80.9,30.6z"/>
<path class="st4" d="M47.7,27.8c0.2,0.3,0.7,0.4,1.1,0.2c0.1-0.1,0.2-0.3,0.1-0.4c-0.3-0.4-0.8-0.5-1.1-0.2
	C47.6,27.5,47.6,27.7,47.7,27.8C47.7,27.8,47.7,27.8,47.7,27.8L47.7,27.8z"/>
<path class="st4" d="M48.8,30.8c0.2,0.2,0.5,0.2,0.7,0.1c0.1,0,0.2-0.2,0.2-0.3c0-0.1-0.1-0.1-0.1-0.1c-0.2-0.2-0.5-0.2-0.7-0.1
	C48.7,30.5,48.7,30.7,48.8,30.8C48.8,30.8,48.8,30.8,48.8,30.8z"/>
<path class="st4" d="M51.1,35.5c0.2,0.1,0.4,0.1,0.5,0.1c0.1,0,0.2-0.1,0.1-0.3c0-0.1-0.1-0.1-0.1-0.1c-0.2-0.1-0.4,0-0.5,0.1
	C51,35.2,51,35.3,51.1,35.5C51,35.4,51,35.4,51.1,35.5z"/>
<path class="st4" d="M54.1,33.5c0.2,0.1,0.4,0.2,0.6,0.2c0.2,0,0.4-0.3,0.2-0.4c-0.2-0.1-0.4-0.2-0.6-0.2
	C54.1,33.1,53.9,33.4,54.1,33.5z"/>
<path class="st4" d="M53.2,29.5c0.2,0.2,0.5,0.3,0.8,0.3c0.1,0,0.2-0.1,0.1-0.2c0,0,0,0,0,0c-0.2-0.2-0.5-0.4-0.8-0.4
	C53.1,29.1,53.1,29.4,53.2,29.5z"/>
<path class="st4" d="M52.3,39.7c0.3,0.1,0.6,0.2,0.9,0.1c0.1,0,0.2-0.1,0.1-0.2c0,0,0-0.1-0.1-0.1c-0.3-0.2-0.6-0.2-1-0.2
	c-0.1,0-0.2,0.1-0.2,0.3C52.1,39.6,52.2,39.6,52.3,39.7z"/>
<path class="st4" d="M44.4,27.8c0.5-0.1,1.1-0.2,1.6-0.5c0.1,0,0.1-0.1,0.1-0.2c0,0,0-0.1-0.1-0.1c-0.5-0.2-1.2,0.2-1.7,0.4
	C44.1,27.6,44.3,27.9,44.4,27.8L44.4,27.8z"/>
<path class="st4" d="M52.5,28.1c0.9,0.4,1.8,0.9,2.7,1.5c0.7,0.5,1.4,1.4,2.2,1.7c0.1,0,0.2-0.1,0.3-0.2c0,0,0,0,0,0
	c-0.1-1-1.1-1.7-1.9-2.2c-0.9-0.7-2-1.1-3.2-1.1c-0.1,0-0.2,0.1-0.2,0.2C52.4,28,52.5,28.1,52.5,28.1z"/>
<path class="st4" d="M97.6,33c2.8,1.4,6.4,1.6,9.5,2.1c3.5,0.6,7,1.2,10.4,1.7c4.4,0.7,10.4,1.3,13.3-2.9c0.2-0.3-0.2-0.7-0.5-0.5
	c-5.3,3.4-10.7,2.3-16.6,1.3c-2.9-0.5-5.7-1-8.6-1.4c-2.4-0.4-5-1-7.4-0.7C97.5,32.7,97.5,32.8,97.6,33C97.6,33,97.6,33,97.6,33
	L97.6,33z"/>
<path class="st4" d="M89.5,113.2c5.5-4.8,10.6-10,15.6-15.3c4.7-5,10-10.2,13.8-15.9c0.3-0.5-0.4-1-0.8-0.6
	c-2.5,2.5-4.6,5.5-6.9,8.2s-4.7,5.4-7.1,8c-4.8,5.2-9.9,10.3-14.9,15.3C88.9,113.1,89.3,113.4,89.5,113.2L89.5,113.2z"/>
<path class="st4" d="M78.4,67.8c2.2,1.4,5.4,2.4,8,1.9c0.3-0.1,0.3-0.6,0-0.7c-1.3-0.2-2.7-0.2-4-0.4c-1.3-0.3-2.6-0.7-3.8-1.2
	C78.3,67.3,78.2,67.7,78.4,67.8L78.4,67.8z"/>
<path class="st4" d="M77.7,68.3c0.9,2.4,2.4,5.6,5.1,6.1c1.6,0.3,3.2-0.7,3.6-2.3c0.1-0.3,0.1-0.6,0-1c-0.1-0.4-0.6-0.3-0.8,0
	c-0.6,1.8-2.7-0.7-3.2-1.1c-0.5-0.4-1.2-0.6-1.8-0.5c-0.3,0-0.6,0.4-0.4,0.7c0.9,1.3,2.1,2.3,3.5,3c0.6,0.3,1.1-0.6,0.5-0.9
	c-1.3-0.6-2.4-1.5-3.2-2.6l-0.4,0.7c1.5-0.2,4.7,4.1,5.8,0.9h-0.8c0.3,1.7-1.5,2.7-2.9,2.3c-0.8-0.2-1.5-0.7-2-1.3
	c-1.1-1.2-1.9-2.7-2.4-4.2C78.2,67.7,77.6,67.9,77.7,68.3L77.7,68.3z"/>
<path class="st4" d="M79.4,69.7c1.1,0.5,2.2,0.9,3.3,1.2c1,0.4,2.1,0.6,3.1,0.6c0.2-0.1,0.3-0.3,0.3-0.5c0-0.1-0.1-0.1-0.1-0.2
	c-0.9-0.6-1.9-0.9-3-1c-1.1-0.3-2.3-0.5-3.5-0.6c-0.1,0-0.3,0.1-0.3,0.3C79.3,69.5,79.3,69.6,79.4,69.7z"/>
<path class="st4" d="M79,69.1c0.1,2.5,3.5,4.9,5.9,4.3c0.2-0.1,0.3-0.5,0.1-0.6c-1.1-0.3-2.1-0.8-3.1-1.3c-1-0.7-1.8-1.6-2.6-2.5
	c-0.1-0.1-0.1-0.1-0.2,0C79,69,78.9,69.1,79,69.1L79,69.1z"/>
<path class="st4" d="M83.3,69.9c0.3,0.3,0.6,0.5,0.8,0.8c0.2,0.3,0.5,0.5,0.8,0.7c0.2,0.1,0.6-0.1,0.4-0.4c-0.5-0.5-1.1-1-1.8-1.3
	C83.3,69.6,83.2,69.8,83.3,69.9z"/>
<path class="st4" d="M78.8,68.4c-0.1,0.6,0,1.2,0.3,1.6c0.3,0.4,0.9,0.9,1.4,0.7c0.1,0,0.2-0.2,0.2-0.3c0,0,0-0.1-0.1-0.1
	c-0.2-0.3-0.7-0.4-0.9-0.7c-0.3-0.3-0.5-0.8-0.6-1.2C79.1,68.3,78.8,68.2,78.8,68.4L78.8,68.4z"/>
<path class="st4" d="M48,47.2c0.7-0.4,1.4-0.8,2-1.3c0.1-0.1,0-0.3-0.2-0.2c-0.7,0.4-1.3,0.9-1.8,1.4C48,47.1,48,47.1,48,47.2
	C48,47.2,48.1,47.2,48,47.2L48,47.2z"/>
<path class="st4" d="M52,48.5c-0.1,1.6,0.7,3.2,2.1,4c0.2,0.2,0.5-0.2,0.2-0.4c-1.2-0.9-1.9-2.2-2.1-3.6C52.2,48.3,52,48.4,52,48.5
	L52,48.5z"/>
<path class="st4" d="M51.3,58c0.7-0.2,1.3-0.5,1.9-0.8c0.6-0.2,1.1-0.5,1.7-0.8c0.1,0,0.1-0.1,0.1-0.2c0-0.1-0.1-0.1-0.2-0.1
	c-0.6,0.2-1.2,0.4-1.7,0.7c-0.6,0.3-1.2,0.6-1.8,1C51.1,57.9,51.2,58.1,51.3,58L51.3,58z"/>
<path class="st4" d="M66.7,84.1L66.7,84.1L66.7,84.1z"/>
<path class="st4" d="M68,81.5c-1,0.1-1.8,0.9-1.7,1.9c0,0.1,0,0.2,0,0.2c0,0.2,0.2,0.3,0.3,0.3c0.4,0,0.7,0,1.1-0.1
	c0.2,0,0.4-0.4,0.1-0.5c-0.4-0.1-0.7-0.1-1.1-0.2l0.3,0.3c-0.2-0.6,0.2-1.3,0.8-1.5c0.1,0,0.1,0,0.2,0C68.3,81.9,68.2,81.5,68,81.5
	L68,81.5z"/>
<path class="st4" d="M70.2,87.2c0.5,2.1,1.2,4.1,2.1,6c0.1,0.3,0.6,0.1,0.5-0.2c-0.6-2.1-1.3-4.1-2.2-6
	C70.4,86.8,70.1,86.9,70.2,87.2L70.2,87.2z"/>
<path class="st4" d="M75.8,99.7L75.8,99.7c-0.2,0-0.2,0.1-0.2,0.2c-0.1,0.6,0.2,1.3,0.8,1.6c0.2,0.1,0.4-0.1,0.3-0.3
	s-0.3-0.3-0.4-0.5c-0.1-0.2-0.2-0.5-0.2-0.8C76,99.9,75.9,99.6,75.8,99.7L75.8,99.7z"/>
<path class="st4" d="M77.5,104.5c-0.5,1.1,0.3,2.8,1.6,2.7c0.1,0,0.2-0.1,0.2-0.2c0-0.1,0-0.1-0.1-0.1c-0.9-0.4-1.4-1.3-1.4-2.2
	C77.8,104.5,77.5,104.4,77.5,104.5z"/>
<path class="st4" d="M80,111.3c-0.3,0.8-0.2,1.7,0.2,2.4c0.3,0.6,1.1,1.5,1.9,1.4c0.1,0,0.2-0.1,0.2-0.2c0-0.1,0-0.1-0.1-0.2
	c-0.4-0.5-1-0.7-1.4-1.2c-0.4-0.6-0.6-1.4-0.5-2.1c0-0.1,0-0.2-0.1-0.2S80,111.3,80,111.3L80,111.3z"/>
<path class="st4" d="M82.9,118.6c-0.2,0.5-0.4,1-0.6,1.5c0,0.1,0,0.2,0.1,0.3c0.4,0.3,0.8,0.6,1.2,0.7c0.1,0,0.2-0.1,0.3-0.2
	c0-0.1,0-0.1,0-0.1c-0.3-0.4-0.7-0.7-1.1-0.9l0.2,0.4c0.1-0.5,0.3-1,0.4-1.5C83.4,118.5,83,118.3,82.9,118.6z"/>
<path class="st4" d="M70.2,96.8c0.9-0.2,1.8-0.6,2.5-1.2c0.1-0.1,0-0.4-0.2-0.4c-0.9,0.2-1.8,0.5-2.6,1.1
	C69.7,96.5,69.9,96.9,70.2,96.8L70.2,96.8z"/>
<path class="st4" d="M137.6,31.4c0.4,0.5,0.7,1.1,0.9,1.8c0.1,0.6-0.1,1.2,0.2,1.8c0.1,0.2,0.3,0.3,0.6,0.2c1.8-0.7,0.5-4-0.8-4.6
	C137.9,30.4,137.2,30.9,137.6,31.4L137.6,31.4z"/>
<path class="st4" d="M136.5,41.1c0.2,0.5,0.3,1.1,0.2,1.7c-0.2,0.5-0.3,1-0.3,1.5c0.1,0.2,0.3,0.4,0.5,0.4c1,0,1.3-1.1,1.3-2
	c0-0.9-0.4-1.7-1.1-2.1C136.7,40.3,136.4,40.8,136.5,41.1L136.5,41.1z"/>
<path class="st4" d="M134.6,53c-0.2,0.8-0.1,1.6-0.3,2.4s-0.8,1.4-0.6,2.2c0.1,0.3,0.4,0.5,0.7,0.4c0.9-0.2,1.2-1.5,1.3-2.3
	c0.2-1,0-2-0.5-2.8c-0.2-0.1-0.4-0.1-0.5,0C134.6,52.9,134.6,52.9,134.6,53L134.6,53z"/>
<path class="st4" d="M132,67.3c0,0.6-0.1,1.3-0.2,1.9c-0.2,0.6-0.7,1.1-0.6,1.7c0,0.1,0.1,0.2,0.2,0.3c0.9,0.2,1.5-0.9,1.6-1.6
	c0.3-0.9,0-1.8-0.6-2.4C132.3,67,132.1,67.1,132,67.3C132,67.2,132,67.3,132,67.3z"/>
<path class="st4" d="M127.2,79.3c0.1,0.6,0.1,1.3-0.1,1.9c-0.3,0.5-0.5,1.1-0.6,1.7c0,0.2,0.2,0.4,0.4,0.4c0,0,0.1,0,0.1,0
	c0.8-0.2,1.2-1.2,1.3-1.8c0.1-0.8,0-1.6-0.3-2.4C127.8,78.7,127.1,78.9,127.2,79.3z"/>
<path class="st4" d="M121.9,90.5c-0.2,0.7-0.5,1.3-1,1.9c-0.4,0.5-1.1,0.8-1.3,1.3c-0.1,0.1,0,0.3,0.1,0.4c0,0,0,0,0.1,0
	c0.8,0.2,1.6-0.5,2.1-1.1c0.5-0.7,0.8-1.5,0.8-2.4c0-0.2-0.2-0.4-0.4-0.4C122,90.3,121.9,90.4,121.9,90.5L121.9,90.5z"/>
<path class="st4" d="M113.3,101c0.3,1-0.4,1.4-0.8,2.2c-0.1,0.2,0,0.4,0.1,0.5c0,0,0,0,0.1,0c0.7,0,1.3-0.4,1.4-1
	c0.2-0.6,0.1-1.3-0.2-1.9c-0.1-0.2-0.3-0.2-0.4-0.2S113.3,100.9,113.3,101L113.3,101z"/>
<path class="st4" d="M106.1,112.1c-0.1,0.6-0.3,1.2-0.6,1.8c-0.3,0.5-0.8,0.9-0.9,1.4c-0.1,0.2,0.1,0.4,0.3,0.5c0.1,0,0.1,0,0.2,0
	c0.6-0.2,1-0.9,1.2-1.5c0.3-0.7,0.4-1.4,0.3-2.1C106.7,111.9,106.2,111.8,106.1,112.1z"/>
<path class="st4" d="M94.6,120.5c-0.5,0.2-0.9,0.5-1.4,0.7c-0.5,0.2-0.9,0.5-1.4,0.8c-0.5,0.5,0.1,1.2,0.7,0.9
	c0.4-0.2,0.8-0.5,1.2-0.9c0.4-0.3,0.8-0.6,1.2-1C95.3,120.8,95,120.3,94.6,120.5L94.6,120.5z"/>
<path class="st3" d="M50.5,43.6c-1.1,0.7-2.1,1.6-2.9,2.5c-0.5,0.5-1.8,1.4-1.8,2.2c0.1,0.5,0.6,0.7,1.1,0.6
	c0.4-0.1,0.8-0.3,1.2-0.5l1-0.5c0.1-0.1,2.2-0.8,1.7,0C50.7,48,51,48.2,51.1,48c0.2-0.3,0.1-0.7-0.2-0.9c0,0-0.1,0-0.1-0.1
	c-0.7-0.4-1.7,0.4-2.3,0.7l-0.8,0.4l-0.5,0.2l-0.8-0.6c0-0.2,1.2-1.2,1.3-1.4C48.8,45.5,49.7,44.6,50.5,43.6L50.5,43.6L50.5,43.6z"
	/>
<path class="st3" d="M52.6,52.6c0.5,0.6,0.5,1.5,0,2.1c-0.4,0.6-0.9,1.1-1.4,1.5c-0.4,0.4-1.3,0.9-1.4,1.6c-0.2,1.3,1.5,0.8,2,0.3
	c0.1-0.1,0-0.3-0.2-0.2c-0.4,0.4-0.8,0.3-1.2-0.5l0.5-0.5c0.3-0.3,0.6-0.5,0.8-0.8c0.5-0.5,1-1,1.3-1.7c0.3-0.7,0.4-1.8-0.5-1.9
	C52.6,52.5,52.6,52.5,52.6,52.6C52.6,52.6,52.6,52.6,52.6,52.6L52.6,52.6z"/>
<path class="st3" d="M55.2,57.6c-0.3,0.5,0.4,0.8,0.8,0.9c0.4,0.1,0.8,0.3,1.2,0.5c0.3,0.2,0.6,0.5,0.9,0.7c0.1,0.1,0.2-0.1,0.2-0.2
	C58,59,57.5,58.6,57,58.3c-0.5-0.2-1.1-0.5-1.5-0.8C55.4,57.4,55.3,57.4,55.2,57.6C55.2,57.5,55.2,57.5,55.2,57.6L55.2,57.6z"/>
<path class="st3" d="M68.2,80.2c-1.1,0.1-2,0.7-2.7,1.5c0,0,0,0.1,0,0.1c0.4-0.2,0.8-0.5,1.3-0.7c0.5-0.2,0.9-0.4,1.3-0.7
	C68.2,80.3,68.3,80.3,68.2,80.2C68.2,80.2,68.2,80.2,68.2,80.2z"/>
<path class="st3" d="M65.3,81.9c-0.3,0.4-0.7,0.6-0.8,1c-0.3,0.6,0,1.3,0.6,1.6c0.1,0,0.2,0.1,0.2,0.1c0.6,0.1,1.1,0.3,1.6,0.5
	c0.2,0.1,0.4-0.1,0.3-0.3c-0.4-0.4-0.9-0.6-1.4-0.6c-0.4,0-1,0-1.2-0.5C64.5,83,64.8,82.3,65.3,81.9C65.5,82,65.4,81.9,65.3,81.9
	L65.3,81.9z"/>
<path class="st3" d="M68.4,88c0.1,0.8,0.3,1.6,0.7,2.3c0.6,1.3,1.8,2.7,1.1,4.2c0,0.1,0.1,0.2,0.2,0.1c0.3-0.8,0.4-1.6,0.1-2.4
	c-0.3-0.6-0.6-1.2-1-1.8C69.1,89.6,69,88.7,68.4,88L68.4,88z"/>
<path class="st3" d="M73.5,96.1c-0.3,0.4-0.4,1-0.1,1.5c0.3,0.6,0.1,0.1,0.5,0.6c0.4,0.5,0.6,1.2,0.6,1.8c0,0.6,0.1,1.1,0.3,1.6
	c0.4,0.7,2.2,1.3,2.3,1.9c0,0.1,0,0.2,0.1,0.2c0.1,0,0.2,0,0.2-0.1c0,0,0-0.1,0-0.1c-0.1-0.4-0.3-0.7-0.6-0.9
	c-0.3-0.2-0.7-0.4-1-0.5c-1.1-0.6-1.1-1.4-1-2.6s-1.5-1.8-1.1-3.3c0-0.1,0-0.1-0.1-0.1C73.6,96.1,73.6,96.1,73.5,96.1L73.5,96.1z"/>
<path class="st3" d="M79.2,109.2c-0.5,1-0.5,2.2-0.2,3.3c0.7,2,2.6,3,2.8,5.2c0,0.1,0.1,0.2,0.2,0.1c0.1,0,0.1-0.1,0.1-0.1
	c0.2-1-0.1-2.1-0.8-2.8c-1.4-1.8-2.9-3.2-2-5.7C79.4,109,79.2,109,79.2,109.2z"/>
<path class="st5" d="M44.5,26.2c29.7,2.2,59.4,4,89,5.7c0.2,0,0.2-0.4,0-0.4c-29.7-2.1-59.3-4.1-89-5.6
	C44.3,25.9,44.3,26.2,44.5,26.2z"/>
<path class="st5" d="M134.3,37.9c-3.6,27.1-15.5,52.4-34,72.4c-5.2,5.5-10.8,10.5-16.8,15.2c-0.1,0,0,0.2,0.1,0.1
	c21.9-15.3,38.2-39.8,46.1-65.1c2.3-7.3,3.9-14.9,4.8-22.5C134.6,37.9,134.4,37.8,134.3,37.9L134.3,37.9z"/>
<path class="st5" d="M38.4,36.8c3.4,7.5,7.5,14.8,11.2,22.2L61,81.1c7.6,14.7,15,29.6,22.7,44.2c0.1,0.2,0.3,0,0.3-0.2
	c-7.4-14.8-15.1-29.5-22.7-44.2L50,58.8c-3.8-7.4-7.3-14.9-11.5-22C38.5,36.7,38.4,36.7,38.4,36.8L38.4,36.8z"/>
<path class="st5" d="M42.3,26.7c8.2,15.2,16.2,30.5,23.6,46.1c7.4,15.9,14,32.2,20.5,48.5c0,0.1,0.2,0.1,0.2,0
	c-5.8-16.2-12.7-32.2-20-47.8c-7.4-16-15.3-31.7-24.1-46.9C42.4,26.5,42.3,26.6,42.3,26.7z"/>
<path class="st5" d="M43.2,27.2c-2.1,2.3-3.5,5.1-4.3,8.2c0,0.1,0.1,0.1,0.1,0c0.9-3,2.3-5.7,4.3-8.1C43.4,27.2,43.3,27.1,43.2,27.2
	L43.2,27.2z"/>
<path class="st5" d="M89.6,106.7C109.2,93,123.4,73,130,50.1c0,0-0.1,0-0.1,0C123.1,72.9,108.9,92.8,89.6,106.7
	C89.6,106.6,89.6,106.7,89.6,106.7L89.6,106.7z"/>
<path class="st5" d="M84,126c6.7,1.4,14.7-2.8,16.1-9.8c0,0-0.1-0.1-0.1-0.1c0,0,0,0-0.1,0.1C97.6,122.8,91.2,127.3,84,126
	C84,125.9,83.9,126,84,126L84,126z"/>
<path class="st5" d="M100.7,119.3c6-1.2,10-6.7,9.4-12.8c0-0.2-0.3-0.2-0.3,0c0.6,5.9-3.3,11.3-9.1,12.6c0,0-0.1,0-0.1,0.1
	C100.6,119.3,100.6,119.3,100.7,119.3L100.7,119.3L100.7,119.3z"/>
<path class="st5" d="M111,109.1c3.9-3.1,5.9-8,5.3-12.9c0-0.2-0.3-0.2-0.3,0c0.6,4.8-1.4,9.6-5.1,12.8
	C110.8,109.1,110.8,109.2,111,109.1L111,109.1z"/>
<path class="st5" d="M117.3,99.6c4.7-2.8,7.8-7.7,8.4-13.1c0-0.2-0.3-0.2-0.3,0c-0.6,5.3-3.6,10.1-8.1,13
	C117.2,99.5,117.2,99.5,117.3,99.6C117.2,99.6,117.2,99.6,117.3,99.6L117.3,99.6z"/>
<path class="st5" d="M126.2,88.8c3.5-4.1,5.4-10.4,4.1-15.7c0-0.1-0.2-0.1-0.2,0c0.4,5.9-0.5,10.7-4,15.6
	C126.1,88.7,126.1,88.8,126.2,88.8L126.2,88.8z"/>
<path class="st5" d="M131.9,74.8c3.7-3.8,4.5-9.6,1.9-14.2c-0.1-0.2-0.4,0-0.3,0.2c2.4,4.6,1.7,10.1-1.7,13.9
	C131.7,74.8,131.8,74.9,131.9,74.8z"/>
<path class="st5" d="M135.2,62.3c3.1-4.4,3.5-10.1,1.3-15c-0.1-0.2-0.4,0-0.3,0.2c2.2,4.8,1.8,10.4-1.1,14.8c0,0,0,0.1,0,0.1
	C135.1,62.4,135.1,62.4,135.2,62.3C135.2,62.4,135.2,62.4,135.2,62.3L135.2,62.3z"/>
<path class="st5" d="M137.3,50.2c5.2-4.4,3.4-12.4-2.7-14.8c-0.3-0.1-0.4,0.3-0.1,0.4C140.6,38.2,141.7,45.6,137.3,50.2
	C137.2,50.1,137.2,50.2,137.3,50.2C137.2,50.2,137.3,50.2,137.3,50.2z"/>
<path class="st5" d="M138.4,39.4c2-1.4,3.5-3.4,4.3-5.6c0-0.1-0.1-0.1-0.1,0C141.6,35.9,140.2,37.8,138.4,39.4
	C138.3,39.3,138.3,39.3,138.4,39.4C138.3,39.4,138.3,39.4,138.4,39.4L138.4,39.4L138.4,39.4z"/>
<path class="st5" d="M141.3,26c-0.6,0.8-1.2,2.2-2.2,2.5s-2-0.3-2.9-0.4c-1.5-0.2-3-0.1-4.4,0.4c-0.1,0,0,0.1,0,0.1
	c2.5-0.5,5-0.4,7.4,0.4c0,0,0.1,0,0.1,0C139.9,28.1,140.6,27.1,141.3,26C141.3,26.1,141.3,26,141.3,26L141.3,26z"/>
<path class="st5" d="M96.4,47.4c3.6-3.9,8.4-6.5,13.6-7.6c3-0.5,7.7-1.1,9.3,2.1c1.2,2.3,0.7,5.5,0.3,8s-0.9,5.4-2.8,7.3
	c-2.3,2.3-5.6,2.6-8.6,1.9c-2.8-0.8-5.5-2-8-3.6c-1.5-0.7-2.8-1.9-3.8-3.2c-1.3-2.3-0.3-5.9,2.8-5.6c0.1,0,0.1-0.1,0.1-0.1
	c0-0.1-0.1-0.1-0.1-0.1c-1.9-0.3-3.6,0.9-4,2.8c0,0.2,0,0.4,0,0.6c-0.2,3.4,3.2,5.4,5.8,6.8c5.7,3.1,14.4,6.1,17.8-1.7
	c1.2-3.2,1.8-6.5,1.6-9.9c-0.1-2.8-1.3-5.2-4.2-5.9c-7-1.6-15.7,2.8-20,8.1c0,0,0,0.1,0,0.2C96.3,47.5,96.4,47.5,96.4,47.4
	L96.4,47.4z"/>
<path class="st5" d="M85.3,44c-8.1-1.2-15.1-6.3-18.8-13.6c-0.1-0.2-0.5-0.1-0.4,0.2c3,7.5,11.1,13.2,19.1,13.6c0,0,0.1,0,0.1-0.1
	S85.3,44,85.3,44L85.3,44z"/>
<path class="st5" d="M82.7,44.4c0.8,0.8,2,0.8,2.8,0c0.7-0.6,1.3-1.3,1.6-2.2c0.3-0.7,0.4-1.3,0.8-2c0.6-1.2,1.6-1.6,2.4-2.5
	c3.2-3-0.9-6.3-3.8-7.2c-0.1,0-0.2,0-0.2,0.1c0,0.1,0,0.2,0.1,0.2l0,0c1.4,0.8,3.5,1.4,4.2,3c1,2.3-0.4,3.2-1.9,4.5
	c-1.8,1.6-2.2,7.8-5.8,6C82.7,44.3,82.6,44.4,82.7,44.4L82.7,44.4z"/>
<path class="st5" d="M63.2,47c2.7,3.7,5.9,7.1,8.8,10.5c1.8,2.1,4,5.7,7,6.2c2.7,0.5,4.1-1.7,5.4-3.6c1-1.3,2.3-2.5,3.7-3.5
	c0.9-0.6,1.4-1.6,1.5-2.6c0.1-2.5-1.9-4.1-4-4.9c-4-1.7-8.5-2.6-12.6-3.7c-2.2-0.6-4.5-1.3-6.7-1.7c-1-0.3-2.1-0.2-3,0.3
	c-0.9,0.5-1.2,1.7-0.7,2.6c0.2,0.3,0.4,0.5,0.7,0.7c0.1,0.1,0.2,0,0.3-0.1c0.1-0.1,0-0.2-0.1-0.3l0,0l0.7-2.7h2
	c0.6,0.1,1.1,0.2,1.6,0.4c1.4,0.3,2.8,0.7,4.2,1c2.6,0.7,5.2,1.4,7.8,2.1c2.5,0.7,5.5,1.2,7.6,2.8c1.8,1.5,2.4,3.9,0.5,5.7
	c-0.7,0.6-1.5,1-2.2,1.6c-1.2,1.2-1.8,2.7-2.9,3.9c-2.8,3.1-6,0.3-8-2.1c-3.7-4.3-7.2-8.9-11.3-12.9C63.3,46.7,63.2,46.8,63.2,47
	L63.2,47z"/>
<path class="st5" d="M50.3,41.7c0.3,1.1,1.5,1.7,2.6,1.4c2-0.4,2.6-2.8,3-4.5c0.4-1.7,1.3-3.3,2.5-4.5c0.5-0.5,0.9-1.2,0.9-1.9
	c0.1-2.4-2.2-3.6-4-4.5c-0.3-0.1-0.5,0.3-0.2,0.4c0.6,0.2,1.1,0.5,1.6,0.8c0.7,0.4,1.3,0.9,1.7,1.6L57.8,34
	c-0.5,0.8-1.3,1.2-1.7,2.1c-0.3,0.8-0.5,1.6-0.7,2.4c-0.1,0.6-0.2,1.1-0.4,1.7c-0.6,1.8-3.1,4-4.6,1.5c0,0-0.1-0.1-0.1,0
	C50.3,41.6,50.3,41.7,50.3,41.7z"/>
<path class="st5" d="M57,30.2c-3.5-4.1-9.4-5.4-14.3-3.1c-0.2,0.1-0.1,0.5,0.2,0.4c4.8-2,10.3-0.9,14,2.8C56.9,30.4,57,30.3,57,30.2
	L57,30.2z"/>
<path class="st5" d="M89.2,65.7c2,3.4,3.6,7.1,4.6,11c0.7,2.8,1.2,6,3.1,8.3c3.2,3.8,8.2,3.4,10.2-1.2c1.2-2.7,1.7-5.2,4.1-7.2
	c1.5-1.3,3.7-2.6,4-4.7c1-6.1-9.6-6.2-13.1-6.8l-7-1.1c-1.3-0.2-3.2-0.8-4.5-0.5s-2,1.8-0.7,2.5c0.2,0.1,0.3-0.1,0.2-0.2
	c0.3-1.6,1.1-2.1,2.2-1.7c0.6,0.1,1.2,0.2,1.8,0.3l2.3,0.4l5.1,0.8c3,0.3,5.9,0.8,8.8,1.5c2.3,0.7,4.9,2.2,4.2,5
	c-0.4,1.3-1.3,2.5-2.5,3.3c-1.6,1.2-2.9,2.7-3.9,4.4c-1,2.1-1.3,4.7-3,6.4c-3.5,3.4-8-0.7-9.3-4c-1.2-2.8-1.5-5.8-2.5-8.7
	c-1-2.7-2.3-5.3-3.9-7.7C89.4,65.4,89.2,65.6,89.2,65.7L89.2,65.7z"/>
<path class="st5" d="M69.5,80c-0.2-3.4,5.3-2.1,6.8-4c1.2-1.5,0.7-3.6-0.3-5c-1.6-2.4-4.4-4.2-6.6-6l-8.6-7.3
	c-0.1-0.1-0.3-0.1-0.3,0l-0.8,0.8c-0.2,0.2,0.1,0.6,0.3,0.3c1.2-1.2,6,4,7.2,5c2.6,2,5.1,4.1,7.4,6.4c2,2.1,3.1,5.7-0.9,6.7
	c-0.9,0.1-1.9,0.3-2.8,0.5c-1.1,0.3-1.9,1.4-1.7,2.6C69.3,80.1,69.5,80.1,69.5,80z"/>
<path class="st5" d="M90.3,107.4c2.9-4.3,13.9-9,7.7-15.4c-2.7-2.7-6.8-4.2-10.1-6c-2.2-1.3-4.5-2.5-6.8-3.6
	c-0.8-0.3-1.5-0.7-2.3-0.2c-1.9,1.4-0.4,6.3-0.1,8.2c0.7,4.1,2,8.1,3.9,11.8c1.2,2.2,3,4.4,5.6,4.8c3.2,0.4,5.9-2.4,7.8-4.7
	c0.2-0.2-0.1-0.5-0.3-0.3c-2,2.2-4.6,5.3-8,4.4c-3.2-0.8-4.8-4.5-5.9-7.3c-1.1-2.9-2-5.8-2.6-8.8c-0.3-1.6-0.9-3.8-0.7-5.4
	c0.5-3.4,3.3-1.5,4.9-0.7l8.5,4.5c2.4,1.2,5.4,2.5,6.8,4.9C102.3,99.8,92.2,102.6,90.3,107.4C90.3,107.4,90.3,107.4,90.3,107.4
	L90.3,107.4z"/>
<path class="st5" d="M138.3,110L138.3,110L138.3,110z"/>
<path class="st4" d="M78.1,67c0,0,3,1.5,4.3,1.7s4.5-0.1,4.9,0.6c0.4,0.7,0.8,4,0,4.8c-0.8,0.9-3.5,1.2-4.1,1.1
	c-0.6-0.1-3.1-1.6-3.7-2c-0.6-0.4-1.3-2.5-1.7-3.7C77.4,68.3,77.1,67.5,78.1,67z"/>
</svg>
