<svg id="illustration" xmlns="http://www.w3.org/2000/svg" viewBox="0 0 198.43 124.33"><defs><style>.cls-1{fill:#5e0c00;}.cls-2{fill:#f7921e;}.cls-3{fill:#cf4327;}.cls-4{fill:#784038;}.cls-5{fill:#934342;}.cls-6{fill:#231f20;}.cls-7{fill:#fff;}.cls-8{fill:#a9afbf;}.cls-9{fill:#393c56;}.cls-10{fill:#724000;}</style></defs><path class="cls-1" d="M142.43,57.66c-1.1-.94-2.33,1.1-2.33,1.1V47.67l-.37-18,1.47-3.31.75-1.75,0-1-1.3,0-1.16,2.1-1.2-.09-2.06.33-.63-1.15h-.93l-.56.21.63.8-34.4.92-35.59.61.59-1.17L66,25.07v-1H64.76l-.57,1.55-.85,2.35L61.2,24.19l-.91-.34-.49.38,2.89,6L62.92,36l.21,7.89.51,11.52.92,19.19.69,9.79.68,8,.89,0,.93-.41-.67-1-.75-8.88L64.84,56.19l-.65-26.28.37-1.76,10.56.36,19.11.09,40.5-1.53,3.69,4L139,57.18l.1,27.75.21,7.23,1.28-.08-.08-30s-.05-1.73.51-2.27S143.54,58.59,142.43,57.66Zm-3.56-29.59a4,4,0,0,1-.32.61.5.5,0,0,1-.9-.39l-.3-.35a.51.51,0,0,1,.47-.84h1A.5.5,0,0,1,138.87,28.07Z"/><path class="cls-2" d="M72.67,96.89l11.09,8,17.2,2.66,10.1-2.21,10.16-5.72,4.23-7.85,1.18-7.46,2.68-3.53,1.31-4.5L127.89,79a.9.9,0,0,1-1-1.18c.26-1.35,2.32-3,2.32-3l1.63-2.76.57-1.59s-3.1,2.49-3.31,3.17,1-3.48,1-3.48l1.8-2.81,1.52-3.15.64-3.63-.08-1.9s-2.36,3.24-3.71,2.89-1.91-1-1.25-2.61a17.47,17.47,0,0,1,3-4.82,8,8,0,0,0,1.43-3l1.9-3.56,2-4.3V39.65l-1.56-1.9a8.17,8.17,0,0,1-1.87-2.22c-.92-1.52.31,1-1.12,1.85s-18.24,1.74-19.71.12-5.79-.1-6.13-3.42,3.88-5.95,1.4-5.2-5.85,3.51-8,5.88-2.88,3.3-5.26,3.46-5.05,1-6.81-.72-3.69-1.16-2.94-.83a9,9,0,0,1,2,2.1,5.18,5.18,0,0,1-2.67,0c-1-.43-3.12-3.9-3.12-3.9l-1.2-2s-.9,3.14-.71,4,1.67,2.94,1.68,4a5.93,5.93,0,0,1-1,3.26c-.61.83-2,.33-2,.33a2.89,2.89,0,0,0-.43-2.62c-1-1-3.22-2.92-3.55-4s-.79-2.48-.79-2.48-2.6,1.89-2,4.34,2.63,5,2.91,6,1,4.29.1,4.38-2.46.6-3-.78a27.28,27.28,0,0,1-1-4.43,12.38,12.38,0,0,0-.8,2.72c-.07,1-.3,3.88.66,4.8s2.36,4.25,2.36,4.25l-1.2,1.2-1.44.14s-1.17,0-.89-1.34-.6,0-.6,0l-.47,3,.59,2.65L69,64.89l1.5,2.52,1.36,2.51.78,2.69-.41,1.55L71,73.7l-.76-.18-.9-2.34-.94.94-.64,3,.64,3.33,1.48,2.34.69,1.34,1,1.5H69.93l-.4,1.32L70,87.76l1.74,4.17.19,2.23Z"/><path class="cls-3" d="M79.92,94.41C77.85,90.88,78,87.87,79,84a.31.31,0,0,0-.56-.24c-1.9,3.26-1,7.94,1.13,10.84.17.23.54,0,.39-.23Z"/><path class="cls-3" d="M78.26,83.7a6.91,6.91,0,0,0,2.24,4.18.35.35,0,0,0,.49-.49,8.25,8.25,0,0,1-2.2-3.84c-.09-.35-.59-.19-.53.15Z"/><path class="cls-3" d="M81.47,87.75A31.44,31.44,0,0,0,81.16,84a28.82,28.82,0,0,0,0-3.35.33.33,0,0,0-.6-.08c-.83,1.85-.64,5.57.54,7.25a.18.18,0,0,0,.34-.09Z"/><path class="cls-3" d="M69.73,83.8a10.15,10.15,0,0,0,2,8.38c.26.29.82,0,.67-.39-.46-1.23-1.13-2.35-1.49-3.62a24.88,24.88,0,0,1-.61-4.3c0-.28-.45-.38-.53-.07Z"/><path class="cls-3" d="M69.55,84.06a2.5,2.5,0,0,0,2.07,1.53c.51.06.55-.71.11-.86a5.27,5.27,0,0,1-1-.38c-.3-.16-.55-.41-.86-.54a.22.22,0,0,0-.32.25Z"/><path class="cls-3" d="M72,85.23c.55-4.83-5.74-8.46-2.67-13.23.12-.19-.13-.47-.32-.33a4.12,4.12,0,0,0-1.36,4.48c.76,3.35,3.72,5.49,3.91,9.08a.22.22,0,0,0,.44,0Z"/><path class="cls-3" d="M69,71.74c-.14,2,2.73,4.1,4.55,3a.22.22,0,0,0-.11-.41,5.38,5.38,0,0,1-2.62-.49,5,5,0,0,1-1.6-2.15.12.12,0,0,0-.22.06Z"/><path class="cls-3" d="M73.27,74.52c.29-2.68-1-5.24-2.24-7.54C69.09,63.29,67.79,60.3,68.57,56a.22.22,0,0,0-.4-.16c-1.52,2.39-.79,5.42.26,7.87,1.6,3.72,3.71,6.76,4.43,10.83,0,.25.39.16.41-.06Z"/><path class="cls-3" d="M68,56.55c.24,1.5,1.65,3.13,3.32,2.48,1.85-.72.82-3.15-.35-4-.23-.17-.51.15-.37.37a7.29,7.29,0,0,1,1,1.55,1.11,1.11,0,0,1-1,1.56c-1.2,0-1.82-1.25-2.56-2a0,0,0,0,0,0,0Z"/><path class="cls-3" d="M72,55.73c-1.63-3.61-2.57-6.46-2.18-10.49,0-.47-.74-.58-.82-.11-.61,3.56.19,8.1,2.72,10.81.15.16.35,0,.28-.21Z"/><path class="cls-3" d="M69.42,46.06a4.32,4.32,0,0,0,.22,2.19,3.81,3.81,0,0,0,1,1.78c.72.64,2.37,1.26,3,.22a.34.34,0,0,0-.3-.51,7.41,7.41,0,0,1-1.16.21,2.07,2.07,0,0,1-1.52-.86,4.19,4.19,0,0,1-.68-1.63A5.8,5.8,0,0,0,69.74,46a.18.18,0,0,0-.32,0Z"/><path class="cls-3" d="M74.08,49.89c1.14-4.62-5.14-8.75-1.34-13.15.25-.29-.08-.82-.43-.56a4.72,4.72,0,0,0-1.6,4.76,14.51,14.51,0,0,0,1.51,3.78,17.21,17.21,0,0,1,1.63,5.17.12.12,0,0,0,.23,0Z"/><path class="cls-3" d="M72.54,36.12A5.32,5.32,0,0,0,73.91,40c1.32,1.74,2.66,3.06,3.31,5.21.11.37.71.32.69-.09-.23-3.59-4.28-5.56-5-9.09,0-.21-.33-.14-.35,0Z"/><path class="cls-3" d="M78.06,45.33a3.77,3.77,0,0,0,3-3.95,7,7,0,0,0-1-2.68,10.44,10.44,0,0,1-.6-5.56c0-.48-.67-.45-.73,0a10.85,10.85,0,0,0,.17,4.94,11.89,11.89,0,0,0,.77,1.61,3.53,3.53,0,0,1-1.82,5.24c-.24.11-.07.46.17.4Z"/><path class="cls-3" d="M79.64,33.36c-.13,2.48,2.23,5.29,4.29,6.42.39.21.87-.34.5-.64a14.93,14.93,0,0,1-2.8-2.7c-.72-1-1.16-2.13-1.86-3.12a.07.07,0,0,0-.13,0Z"/><path class="cls-3" d="M95.48,38.31c6-.93,6.44-9.66,13.27-9.46a.42.42,0,0,0,.11-.82c-2.42-.64-4.64.72-6.24,2.47-2.51,2.74-3.8,5.73-7.26,7.53-.16.09,0,.31.12.28Z"/><path class="cls-3" d="M108.49,28.54c-3.13,1.18-4.48,6.24-2.39,8.84.45.55,1.23-.06,1.11-.64-.34-1.55-.93-2.75-.56-4.4a10.15,10.15,0,0,1,2-3.58.15.15,0,0,0-.17-.22Z"/><path class="cls-3" d="M102.54,39l0,.12a.06.06,0,0,0,.12,0l0-.12a.08.08,0,1,0-.16,0Z"/><path class="cls-3" d="M102.48,39.07c.5,2.12,2.18,3.63,2.37,5.94.22,2.55-1.23,3.68-2.32,5.67a.35.35,0,0,0,.39.51c2.36-.41,3.28-3.8,3.2-5.84-.08-2.25-1.29-5.51-3.54-6.38-.06,0-.11.05-.1.1Z"/><path class="cls-3" d="M77,46.29c1.1,2.44.09,4.44.49,6.93a3.37,3.37,0,0,0,2,2.81c.34.13.66-.41.37-.64-3.16-2.45.4-7-2.56-9.34a.19.19,0,0,0-.3.24Z"/><path class="cls-3" d="M77.83,47.23a10,10,0,0,1,1.56,2.66,22.66,22.66,0,0,1,.41,2.81.23.23,0,0,0,.42,0C81,50.9,79.72,48,78.09,47c-.15-.1-.37.1-.26.26Z"/><path class="cls-3" d="M79,70.48a31.76,31.76,0,0,1-2.62-10.23.43.43,0,0,0-.86,0,14.32,14.32,0,0,0,3.09,10.46c.14.17.48,0,.39-.23Z"/><path class="cls-3" d="M86,72.83a20.41,20.41,0,0,1-2-3.93c-.42-1.3-.29-2.73-.78-4a.28.28,0,0,0-.5-.07c-1.34,2.58.83,6.8,3,8.35.23.17.52-.16.38-.38Z"/><polyline class="cls-2" points="70.96 93.37 48.62 125.24 155.5 125.24 127.3 83.43"/><path class="cls-3" d="M82.75,64.75a5.27,5.27,0,0,0,2.07,3.19c1,.77,2.62,1.7,3.88,1.36a.34.34,0,0,0,.08-.61c-1.06-.54-2.23-.6-3.26-1.31A12.1,12.1,0,0,1,83,64.64a.15.15,0,0,0-.26.11Z"/><path class="cls-3" d="M101.53,62.8a4.44,4.44,0,0,0,2.13-1.72,3.18,3.18,0,0,0,.66-2.62.17.17,0,0,0-.31,0c-.39.65-.47,1.42-.86,2.08a6.49,6.49,0,0,1-1.79,1.9c-.18.13-.08.5.17.4Z"/><path class="cls-3" d="M104,58.25a31.77,31.77,0,0,1-.11,5,29.68,29.68,0,0,1-1.53,4.2.29.29,0,0,0,.48.28c2-2.17,2.81-6.88,1.48-9.53-.08-.16-.31-.07-.32.08Z"/><path class="cls-3" d="M89.66,101.22a6.76,6.76,0,0,1-2-5.09A.35.35,0,0,0,87,96a5.29,5.29,0,0,0,2.31,5.6c.25.17.54-.21.32-.42Z"/><path class="cls-3" d="M87.23,95.64a3.42,3.42,0,0,0,1.09,2.16,3.64,3.64,0,0,0,2.29,1.13.39.39,0,0,0,.2-.72,12.72,12.72,0,0,1-1.89-1,9,9,0,0,1-1.47-1.62c-.06-.08-.24-.07-.22.06Z"/><path class="cls-3" d="M90.76,98.67c-.09-.72-.41-1.37-.45-2.11s.16-1.29.12-1.94a.23.23,0,0,0-.42-.11,4.2,4.2,0,0,0,.42,4.35c.15.16.36,0,.33-.19Z"/><path class="cls-3" d="M100.42,90.74a28.7,28.7,0,0,1,.62-3.69,25,25,0,0,0,1-3.25.37.37,0,0,0-.56-.32c-2,1.46-2.46,5-1.89,7.26.09.38.74.42.8,0Z"/><path class="cls-3" d="M101.62,83.56a3.86,3.86,0,0,0,.1,2.53c.27.69.85,1.66,1.64,1.8a.53.53,0,0,0,.59-.77c-.26-.55-.84-.94-1.16-1.48a4.41,4.41,0,0,1-.58-2,.3.3,0,0,0-.59-.08Z"/><path class="cls-3" d="M104.21,97.2c2.38-.77,4.15-4.48,3.36-6.84a.49.49,0,0,0-1,.13A9.66,9.66,0,0,1,106,94a12.61,12.61,0,0,1-2.08,2.64c-.2.23,0,.66.32.55Z"/><path class="cls-3" d="M106.66,90.68c.22,1.07.7,2,.93,3.11s-.06,2.23.28,3.22a.45.45,0,0,0,.74.2c.81-.94.62-2.46.4-3.61a4.37,4.37,0,0,0-2-3.21.26.26,0,0,0-.37.29Z"/><path class="cls-3" d="M112.72,83.94a1.26,1.26,0,0,0,1.32.66,2.92,2.92,0,0,0,1.7-.7,4.2,4.2,0,0,0,1-4.18c-.14-.57-1.1-.47-1.05.15a3.82,3.82,0,0,1-.6,3.11,2.89,2.89,0,0,1-2.23.69.19.19,0,0,0-.16.27Z"/><path class="cls-3" d="M115.85,80.2c1,3.48,1.26,6.74-.57,10a.64.64,0,0,0,1.11.65c1.86-3.28,2.37-7.73,0-10.89-.19-.26-.65-.12-.55.23Z"/><path class="cls-3" d="M120.07,76c1.56-.57,2.9-3.6,2.17-5.12a.3.3,0,0,0-.54.07c-.23.81-.1,1.66-.4,2.48a16.26,16.26,0,0,1-1.46,2.27.2.2,0,0,0,.23.3Z"/><path class="cls-3" d="M123.5,65.28A13.58,13.58,0,0,1,125,68.35c.34,1.05.17,2.16.5,3.17a.51.51,0,0,0,.93.12c.59-1.09.2-2.71-.22-3.82a5.74,5.74,0,0,0-2.36-2.93.29.29,0,0,0-.39.39Z"/><path class="cls-3" d="M127.72,72.82c3-2.6,5.09-8.65,5.19-12.54a.46.46,0,0,0-.84-.23c-1,2.06-1.5,4.31-2.3,6.44s-1.86,4.09-2.13,6.29c0,0,0,.06.08,0Z"/><path class="cls-3" d="M132.22,59.48A20.3,20.3,0,0,1,127.4,63c-.52.26-.05,1.07.45.77a16.28,16.28,0,0,0,4.68-4c.17-.22-.1-.52-.31-.31Z"/><path class="cls-3" d="M129.28,61.55c-3.68-1.62,2.46-6.78,2.95-8.85a.36.36,0,0,0-.52-.41c-1.22.73-1.92,2.13-2.74,3.26a9.64,9.64,0,0,0-2.11,3.68c-.27,1.53.62,3.22,2.34,3a.35.35,0,0,0,.08-.63Z"/><path class="cls-3" d="M132.12,49.2a14.33,14.33,0,0,0,2.55-4.36c.6-1.38,1.39-2.88,1.29-4.4,0-.22-.32-.41-.48-.2a16,16,0,0,0-1.83,4.09A36.57,36.57,0,0,0,131.71,49a.25.25,0,0,0,.41.24Z"/><path class="cls-3" d="M128.58,74.13a4.9,4.9,0,0,0,1.27-1.22,4.31,4.31,0,0,0,1-1.33c.06-.17-.16-.31-.31-.23a4.47,4.47,0,0,0-1.21,1.31,4.22,4.22,0,0,0-.92,1.34.12.12,0,0,0,.17.13Z"/><path class="cls-3" d="M130.64,71.38a22.54,22.54,0,0,1-3.49,4.75c-.73.76-1.46,1.94-.78,3,1.44,2.18,4.16-.52,4-2.35,0-.14-.18-.25-.29-.12-.39.44-1.11,2.37-1.81,2.23l-1.19-1.09a3.17,3.17,0,0,1,.7-1c.3-.35.65-.65.95-1a11.25,11.25,0,0,0,2.37-4.17.24.24,0,0,0-.43-.18Z"/><path class="cls-3" d="M129.68,77.35c-.1,2.08-1.34,3.36-2.56,4.88a4.83,4.83,0,0,0-1.43,2.91.38.38,0,0,0,.7.19c.42-.71.66-1.47,1.14-2.15s1.16-1.42,1.69-2.17a4.47,4.47,0,0,0,.95-3.72.25.25,0,0,0-.49.06Z"/><path class="cls-3" d="M72,92.2a.69.69,0,0,0,0-1.38.69.69,0,0,0,0,1.38Z"/><path class="cls-3" d="M71.79,92.07c.64.75,1.49,1.25,2.09,2a7,7,0,0,1,1.21,2.79.74.74,0,0,0,1.45-.2c0-2.26-1.84-5.55-4.4-5.46a.49.49,0,0,0-.35.83Z"/><path class="cls-3" d="M76.55,97.93a1.86,1.86,0,0,1,2.49.85,5.66,5.66,0,0,1,.4,3.28.76.76,0,0,0,.55.73.9.9,0,0,0,.4,0c.34-.05.52-.43.55-.73.15-1.75.09-3.7-1.28-5A2.68,2.68,0,0,0,75.84,97a.59.59,0,0,0,.71.93Z"/><path class="cls-3" d="M80.53,102.67a2.58,2.58,0,0,1,2.57-1.15c1,.22,1.25,1,1.78,1.75.22.31.85.36.92-.12.22-1.48-1.29-2.7-2.65-2.87A2.88,2.88,0,0,0,80,102.45a.28.28,0,0,0,.51.22Z"/><path class="cls-3" d="M92.38,106.37a5.55,5.55,0,0,0-3.12-4.64c-1.27-.59-3.74-.58-4.09,1.17a.53.53,0,0,0,.77.59c1.24-.66,2-1,3.35-.11a7.75,7.75,0,0,1,2.5,3.07c.12.29.6.29.59-.08Z"/><path class="cls-3" d="M91.86,106c.55-.28.83-.83,1.36-1.14,1.14-.65,2,.41,2.82,1.06s1.75,1.21,2.64.47a.45.45,0,0,0-.09-.69c-.47-.31-1-.33-1.44-.65s-.81-.66-1.22-1a3,3,0,0,0-2-.73,2.69,2.69,0,0,0-2.25,2.54.13.13,0,0,0,.19.11Z"/><path class="cls-3" d="M98.9,106.43c.53-1.33.8-2.65,2.73-2a9.29,9.29,0,0,1,1.5.92,15,15,0,0,0,3.23,1.74.62.62,0,0,0,.6-1,14.64,14.64,0,0,0-3.07-2c-.91-.53-1.94-1.38-3-1.33-1.95.09-2.48,2.07-2.4,3.68a.23.23,0,0,0,.45.06Z"/><path class="cls-3" d="M107,106.89c.82-1.34,1-3.75,3.13-3.67,1.45.06,1.65,2,3.27,1.7a.65.65,0,0,0,.45-.46l.06-.19a.47.47,0,0,0-.32-.57c-1-.21-1.39-1.19-2.31-1.56a3.31,3.31,0,0,0-2.49.1,4.11,4.11,0,0,0-2.23,4.59.24.24,0,0,0,.44.06Z"/><path class="cls-3" d="M114.31,105c1.31-.59.83-2.55,1.64-3.59a2.58,2.58,0,0,1,2-.92c.65,0,1.22.3,1.86.32a.39.39,0,0,0,.37-.48A2.44,2.44,0,0,0,118.48,99a3.71,3.71,0,0,0-2.75.37,4.35,4.35,0,0,0-1.86,2,5.17,5.17,0,0,0-.48,3.26.64.64,0,0,0,.92.37Z"/><path class="cls-3" d="M119.58,100c.08-1-.4-2-.23-3.08.2-1.2,1.2-2.3,2.46-1.6.61.34,1.06-.51.53-.91a2.56,2.56,0,0,0-3.63.9,4.75,4.75,0,0,0,.27,4.85.33.33,0,0,0,.6-.16Z"/><path class="cls-3" d="M122,95.05a4.36,4.36,0,0,1,.57-2.86,3.84,3.84,0,0,1,.81-1c.31-.29.63-.42.83-.8a.45.45,0,0,0-.38-.66c-1-.07-1.94,1.3-2.31,2.11a4.45,4.45,0,0,0-.09,3.4.3.3,0,0,0,.57-.16Z"/><path class="cls-3" d="M124.14,90.39c0-1.14-.22-2.22.36-3.29a3.9,3.9,0,0,1,2.55-1.79c.69-.21.6-1.39-.17-1.3-2.71.31-5.58,4.21-3.24,6.59a.3.3,0,0,0,.5-.21Z"/><path class="cls-3" d="M91.73,73.64c3.43-.45,5.85-6.72,2.64-8.82a.53.53,0,0,0-.79.45c-.08,1.43.53,2.71.11,4.18s-1.46,2.19-2.33,3.28c-.25.31-.14,1,.37.91Z"/><path class="cls-3" d="M98.06,55.29a6.3,6.3,0,0,1-1-3c0-.94.5-1.75.58-2.65a.28.28,0,0,0-.41-.23c-2.1,1-1.36,5.27.45,6.22a.26.26,0,0,0,.35-.35Z"/><path class="cls-3" d="M108.21,56.6c2.56-2.24,4.33-6.76,1.83-9.73a.33.33,0,0,0-.56.23c.35,3.27.68,6.35-1.74,9a.34.34,0,0,0,.47.48Z"/><path class="cls-3" d="M101.45,38.31a22.69,22.69,0,0,1,.89-2.24c.36-.67.9-1.21,1.23-1.87.16-.32-.18-.75-.52-.52a5.67,5.67,0,0,0-2,4.58.22.22,0,0,0,.43.05Z"/><path class="cls-3" d="M108.89,41.9c.32-.36.32-.86.51-1.29s.6-.79.57-1.23a.22.22,0,0,0-.22-.22c-.54,0-.88.67-1.06,1.09s-.47,1.14-.12,1.61a.2.2,0,0,0,.32,0Z"/><path class="cls-3" d="M81.82,46.39c2.39,3.12-.41,7.08,1.23,10.38.12.25.49.12.5-.13.11-3.5,1.62-7.89-1.12-10.72-.3-.3-.88.12-.61.47Z"/><path class="cls-3" d="M75.17,70.46a9.76,9.76,0,0,1-2-2.48c-.49-.87-.62-1.91-1.13-2.75a.55.55,0,0,0-1,.28,6.07,6.07,0,0,0,1.06,3.1,11.14,11.14,0,0,0,2.19,2.69c.57.51,1.41-.32.84-.84Z"/><path class="cls-3" d="M83.53,97.38a4.07,4.07,0,0,1-.92-2,3.45,3.45,0,0,1,1-2.09A6.18,6.18,0,0,0,84.92,91c.07-.29-.32-.57-.54-.31-1,1.15-2.36,2.18-2.81,3.67s.39,2.56,1.31,3.56c.32.34.92-.11.65-.5Z"/><path class="cls-3" d="M75.11,82.25a3.41,3.41,0,0,1-.2-2.64,10.61,10.61,0,0,1,1.23-2,.24.24,0,0,0-.27-.35c-2.27.41-2.33,3.84-1.44,5.39.25.45.91.06.68-.39Z"/><path class="cls-3" d="M111.12,99.65c1.26-1.47,2.42-4.09,1.32-6a.39.39,0,0,0-.72.2,24.12,24.12,0,0,1,0,2.69,6.69,6.69,0,0,1-1.07,2.72c-.19.27.23.59.44.35Z"/><path class="cls-4" d="M72.52,92.37l.46.34,1,.81.77,1.1L75.24,97l-.33,1.38-.16.41.68-.23,1.23-.7,1.11-.31,1,.55.75,1.62-.06,1.71.06,1.08.5.31.79-.31,1.42-.92,1.5.1,1.29.82.65,1.24.81-.89,1.41-.29L89,103l1.87,1.86.67,1.13.2.45.76-.09.68-1.3,1.21-.65,1.41.65,1.31,1.3,1.27.47.53.25.23-1.21,1-1.33,1.2-.79.77.61,1,.7,1.68.6,1.5,1.42h1l.35-2,.6-1.07.63-1,1.55.39,1.29.46,1.53,1.07.84.19,1-.19.17-.88-.08-2,.53-1.24.66-.73,1.53,0,1.48.36,1,.09-.79-1.25L119,98.05l0-1.64.15-.82,1.26-.46h1.17l1.14.55-.57-1.39.21-1.29.17-1.09,1-1.14,1.32-.44-1-.59-.26-.44s.8-4.34,2.93-4.38c1.2,0,1.2.65,1.2.65l-.27,1.09.11,1.09-.14,1.59-.56.74-1.14.57.59.82,0,1.89-.29,1-.48,1.13-.79.76-.93.11L122.82,96l.45,1.07.24,1.93-.19,1.48-.59.67-.9.23-1.42-.63s-.8.13-.61.37a4.52,4.52,0,0,1,.61,1l.2,1.71-.2,1.09-.46,1.87-.7.54-1.32-.22-1-.67-.94-1.08s-1.7-.09-1.8.21.35,1.22.35,1.22l.1,1.28-.87,1.38-1.42.53-1.4,0-1.8-.72-1-.84-.7-.88s-.62-.08-.59.18.33,1.54.33,1.54l-.86,1.11-1.17.5-1.88-.15-1.78-.53-1.34-.66-.92-1-.32-.71-.53,1.08-1,.68-1.5.38-1.34-.36-1-.59-.82-.94-.21-1.28-.55.32-.11,1.46-1.18,1.15-1.32.28-1.44-.56-1-.83-.41-.75-.66-1.71-.48,1.41-1,.47H82.9l-.87-.43-1.17-1-.57-.87-.5-1.37.46-1L79.5,103l-.36,1.32-.68.73-1.34-.62-1-1L75.15,102l-.36-1.18,0-1,.37-.77-.71.21-.74.56-1.15-.38L71,99l-.61-.8L70.29,97l1.12-4.51.8-.25Z"/><path class="cls-2" d="M71.26,93a2.71,2.71,0,0,0,.88.4,4.42,4.42,0,0,1,1.15.76,9.56,9.56,0,0,1,1.57,2.3.14.14,0,0,0,.25-.1,6.16,6.16,0,0,0-1.35-3.15c-.57-.6-1.76-1.25-2.5-.64a.3.3,0,0,0,0,.43Z"/><path class="cls-2" d="M75.53,99a5,5,0,0,1,1.4-.13,2.67,2.67,0,0,1,1.46.77c.22.22.65-.07.45-.35-.7-1-2.53-1.56-3.37-.39,0,0,0,.1.06.1Z"/><path class="cls-2" d="M80.43,103.23a12.24,12.24,0,0,1,2.62.25,7.91,7.91,0,0,1,2.09,1.36c.18.15.52,0,.43-.25a3.15,3.15,0,0,0-2-2c-1-.35-2.45-.45-3.22.34-.07.08,0,.26.08.28Z"/><path class="cls-2" d="M85.72,104.86a6,6,0,0,1,2.76-.14,7.07,7.07,0,0,1,2,1c.3.18.72-.19.5-.5a4.13,4.13,0,0,0-5.48-.86.26.26,0,0,0,.19.47Z"/><path class="cls-2" d="M78.25,99.27l0,.06a.4.4,0,0,0,.1.36c.31.27.56.68.94.87a.21.21,0,0,0,.31-.18,1.75,1.75,0,0,0-.74-1.21.39.39,0,0,0-.44,0,.23.23,0,0,0-.15.15Z"/><path class="cls-2" d="M92.56,106.59c2.14-1.26,3.87,1.27,6,1.25a.27.27,0,0,0,.07-.53c-1.9-.53-4.39-2.64-6.33-1.16-.25.2,0,.61.26.44Z"/><path class="cls-2" d="M99.14,107a9.84,9.84,0,0,1,2.76-1.1c.66-.11,1.6.17,2.13-.27a.12.12,0,0,0,0-.14c-.44-.67-1.66-.41-2.34-.29a5.3,5.3,0,0,0-2.89,1.39.26.26,0,0,0,.32.41Z"/><path class="cls-2" d="M107.44,106.22a7.72,7.72,0,0,1,4.22-1.71c.44,0,.45-.7,0-.69a6.34,6.34,0,0,0-4.54,2c-.18.21.06.61.32.42Z"/><path class="cls-2" d="M115.18,103.64a4.38,4.38,0,0,0,.9-.72,7.87,7.87,0,0,1,1.27-.86,16.12,16.12,0,0,0,2.21-1.07.15.15,0,0,0-.07-.25c-1.44-.53-4.31,1.19-4.62,2.66a.21.21,0,0,0,.31.24Z"/><path class="cls-2" d="M119.41,98.6a8.22,8.22,0,0,0,.75-1.48,3.16,3.16,0,0,1,1.46-1.24c.58-.26.08-1.12-.51-.86a3.77,3.77,0,0,0-1.74,1.54c-.33.53-.68,1.43-.25,2a.19.19,0,0,0,.29,0Z"/><path class="cls-2" d="M122.34,94.34c.65-.49,1-1.25,1.69-1.76a5.24,5.24,0,0,1,1.35-.75c.34-.13.68-.16.92-.45a.25.25,0,0,0,0-.4c-.74-.5-2,.32-2.65.77s-1.62,1.51-1.5,2.46c0,.1.13.22.24.13Z"/><path class="cls-2" d="M124.06,89.78a2.82,2.82,0,0,0,.55-1.14,7.05,7.05,0,0,1,.76-1.5A4.65,4.65,0,0,1,126.61,86c.4-.26.77-.37.87-.87a.43.43,0,0,0-.19-.47c-1-.68-2.53,1-3,1.72s-1.43,2.6-.57,3.44a.28.28,0,0,0,.38,0Z"/><path class="cls-5" d="M70.08,96.25c-.71.8-.22,2.22.4,2.93a3.15,3.15,0,0,0,1.4,1,19.76,19.76,0,0,1,2.42.56c.54.26,1-.54.47-.8a18,18,0,0,0-2.92-.68,2.14,2.14,0,0,1-1.35-1.13,6.08,6.08,0,0,1-.24-1.79c0-.08-.13-.1-.18,0Z"/><path class="cls-5" d="M74.09,100.65c-.08,1.53,1.12,3,2.24,3.9.81.67,2.53,1.78,3.34.55a.34.34,0,0,0-.29-.51,2.26,2.26,0,0,1-1.66-.33,7.09,7.09,0,0,1-1.4-1.22c-.71-.8-1.14-1.76-1.84-2.55a.23.23,0,0,0-.39.16Z"/><path class="cls-5" d="M79.18,105.12c-.3,3.09,6,5.94,6.89,2.15a.13.13,0,0,0-.22-.13,3,3,0,0,1-4.16.12c-.81-.66-1.32-1.85-2.26-2.28a.17.17,0,0,0-.25.14Z"/><path class="cls-5" d="M85.59,107.08c.24,3.6,6.16,5,7,1a.32.32,0,0,0-.61-.16,2.74,2.74,0,0,1-3.73,1.64c-1.22-.51-1.62-1.53-2.2-2.6a.25.25,0,0,0-.46.12Z"/><path class="cls-5" d="M92.13,108.25c1.1,2.56,5.61,3.45,7,.63a.17.17,0,0,0-.23-.23,5.62,5.62,0,0,1-3.2,1.24A4.21,4.21,0,0,1,92.51,108c-.19-.23-.47.07-.38.29Z"/><path class="cls-5" d="M98.72,108.88c.54,2.29,4.09,3,6.06,2.68,1.68-.29,4.47-2.15,2.63-4-.29-.29-.68.07-.53.41,1.35,3-3.24,2.94-4.7,2.48-1.24-.39-2.08-1.31-3.24-1.79-.13,0-.25.1-.22.22Z"/><path class="cls-5" d="M107.63,108.79c.62,2.06,4,2.34,5.73,1.7,2.31-.89,2.7-3.11,1.7-5.21-.23-.48-1-.14-.86.36a3.9,3.9,0,0,1,.38,2.54,1.82,1.82,0,0,1-1.43,1.56,4.27,4.27,0,0,1-1.33.13,5.18,5.18,0,0,1-2.38-.56,7.38,7.38,0,0,0-1.5-.84.26.26,0,0,0-.31.32Z"/><path class="cls-5" d="M114.57,105.74c.7-.16,1.07.93,1.7,1.07a.27.27,0,0,0,.33-.25c.08-.57-.5-1.22-.95-1.52a1,1,0,0,0-1.44.22c-.17.25.11.53.36.48Z"/><path class="cls-5" d="M115.68,106.4c.74,1.83,3.9,2.47,5.07.7.67-1,.72-3,.82-4.13.09-.92-.13-2.15-1.25-2.17a.4.4,0,0,0-.34.6,3.15,3.15,0,0,1,.57,2,13.91,13.91,0,0,1-.27,2.74c-.59,2.17-3,.45-4.29,0-.17-.06-.38.14-.31.31Z"/><path class="cls-5" d="M121.05,101.55c.27,1.7,2.61-.08,3-.73.79-1.2,1.19-3.89-.44-4.61-.14-.06-.32,0-.31.18,0,1.06.65,1.9.35,3a3.51,3.51,0,0,1-.85,1.5c-.54.55-1,.43-1.69.5a.12.12,0,0,0-.1.14Z"/><path class="cls-5" d="M124,96.81c1.5.85,2.49-1.21,3-2.29s1.15-3.31-.34-4a.3.3,0,0,0-.46.26,10.65,10.65,0,0,1,.3,2.82,4.5,4.5,0,0,1-.63,1.6A2.63,2.63,0,0,1,124,96.48a.18.18,0,0,0,0,.33Z"/><path class="cls-5" d="M126.33,90.82c1.62-.1,1.87-1.91,2-3.19a6.47,6.47,0,0,0,.19-2.31c-.23-.8-.86-.62-1.4-1.1a.46.46,0,0,0-.65.65c.26.27.34.23.66.41.72.4.71.77.62,1.53-.18,1.39-.1,2.94-1.57,3.64a.2.2,0,0,0,.1.37Z"/><path class="cls-5" d="M127.55,85.86a2,2,0,0,0-.08,1.19.3.3,0,0,0,.58,0,2,2,0,0,0,0-1.19.26.26,0,0,0-.49,0Z"/><path class="cls-2" d="M135.69,28A17.28,17.28,0,0,0,137,29.6a8.45,8.45,0,0,0,1.4,1.52c.09.06.18-.05.14-.13-.34-.58-.87-1-1.26-1.6s-.76-1.13-1.13-1.69c-.18-.27-.61,0-.43.25Z"/><path class="cls-2" d="M138.33,31.24a124,124,0,0,1,.45,12.93c0,.41.6.4.63,0a44.84,44.84,0,0,0-.8-13,.14.14,0,0,0-.28,0Z"/><path class="cls-2" d="M139,53c.08,6,0,12,.17,18a.25.25,0,0,0,.49,0,93.34,93.34,0,0,0-.19-18c0-.3-.48-.31-.47,0Z"/><path class="cls-2" d="M138.84,72.17c.1,6.76.33,13.5.53,20.25,0,.43.68.43.66,0-.23-6.75-.43-13.5-.76-20.25,0-.27-.44-.27-.43,0Z"/><path class="cls-2" d="M63.82,29.89c0,.14.18.24.25.1s-.17-.29-.25-.1Z"/><path class="cls-2" d="M64.18,29.82c.11-.47.23-.92.3-1.4s-.57-.6-.64-.17-.1,1-.14,1.51c0,.27.42.33.48.06Z"/><path class="cls-2" d="M64.17,28.38c2.83.71,6.23.09,9.14,0,3.35-.08,6.71,0,10.06-.17a.24.24,0,0,0,0-.48c-3.35-.07-6.71.08-10.06.09-2.92,0-6.32-.54-9.14.25a.15.15,0,0,0,0,.29Z"/><path class="cls-2" d="M113,27.42c-2.94-.26-6,.39-9,.52s-6,.2-9,.21a.33.33,0,0,0,0,.66q4.74,0,9.48-.27c2.8-.14,5.84,0,8.56-.73a.2.2,0,0,0,0-.39Z"/><path class="cls-2" d="M130.38,27.43a9.4,9.4,0,0,0,3,.21,5.35,5.35,0,0,0,2.61-.3.3.3,0,0,0,0-.52,5.33,5.33,0,0,0-2.61-.21,9.41,9.41,0,0,0-3,.31.27.27,0,0,0,0,.51Z"/><path class="cls-2" d="M63.74,30a96.29,96.29,0,0,0,.57,14.51.12.12,0,0,0,.24,0A96.29,96.29,0,0,0,64.2,30a.23.23,0,0,0-.46,0Z"/><path class="cls-2" d="M63.71,38c.18,7.41.52,14.84.83,22.25a.22.22,0,0,0,.43,0A168.65,168.65,0,0,0,64.05,38c0-.21-.35-.22-.34,0Z"/><path class="cls-2" d="M64.39,59.92c.3,5,.65,10,.67,15.09a.26.26,0,0,0,.52,0,113.51,113.51,0,0,0-.77-15.09c0-.26-.44-.28-.42,0Z"/><path class="cls-2" d="M65.31,74.76a43.73,43.73,0,0,0,.41,9.14A41.47,41.47,0,0,0,67,92.05c.09.29.6.26.56-.07-.32-2.88-1.08-5.68-1.4-8.56s-.2-5.79-.52-8.66a.18.18,0,0,0-.36,0Z"/><path class="cls-2" d="M61.06,25.35c-.14.37.16.8.37,1.09a3.87,3.87,0,0,0,.85,1,.13.13,0,0,0,.19-.11A4.11,4.11,0,0,0,61.92,26c-.17-.32-.38-.71-.77-.76,0,0-.08,0-.09.07Z"/><path class="cls-2" d="M65.44,24.35a10.47,10.47,0,0,1-.3,1.56,13.85,13.85,0,0,0-.47,1.37c0,.17.17.31.3.17a5.06,5.06,0,0,0,1-3.1c0-.33-.47-.32-.5,0Z"/><path class="cls-2" d="M134.58,25.1h0a.3.3,0,0,0-.22.28,1,1,0,0,0,.74,1c.39.11.65-.48.28-.66a1,1,0,0,1-.37-.29c-.06-.07-.06-.18-.13-.26a.3.3,0,0,0-.26-.11Z"/><path class="cls-2" d="M140.6,25.07a5.86,5.86,0,0,0-1.55,2.69c0,.26.33.29.45.12.26-.37.39-.84.61-1.23a8.61,8.61,0,0,1,.84-1.23c.21-.24-.14-.59-.35-.35Z"/><path class="cls-2" d="M71.53,104.55a54.2,54.2,0,0,0-6.77,11.89c-.07.18.16.33.26.16,2.25-3.94,4.6-7.91,6.67-11.93,0-.09-.09-.21-.16-.12Z"/><path class="cls-2" d="M72.1,104.72c-3.13,5-6.51,10-8.88,15.4a.21.21,0,0,0,.37.21c3.5-4.71,6.23-10.15,9-15.33a.28.28,0,0,0-.48-.28Z"/><path class="cls-6" d="M73.2,102.08a47.32,47.32,0,0,0-5.73,7c-.1.15.15.35.27.2,1.85-2.35,3.74-4.68,5.61-7,.09-.1,0-.25-.15-.15Z"/><path class="cls-6" d="M78.62,107.1a28.41,28.41,0,0,0-.79,4.29c0,.23.33.26.39,0a29.61,29.61,0,0,0,.68-4.3c0-.16-.24-.2-.28,0Z"/><path class="cls-6" d="M85.35,110c.07,2.91,0,5.84.15,8.75a.15.15,0,0,0,.3,0,34.05,34.05,0,0,0-.19-8.79c0-.15-.27-.11-.26,0Z"/><path class="cls-6" d="M92.32,110.81c.67,3.52,1,7.1,1.62,10.62,0,.17.3.12.3,0a44.08,44.08,0,0,0-1.46-10.71c-.07-.3-.51-.17-.46.13Z"/><path class="cls-6" d="M99.28,111.53a59.43,59.43,0,0,0,1.58,5.89.18.18,0,0,0,.34-.09c-.39-2-1-3.94-1.63-5.88a.15.15,0,0,0-.29.08Z"/><path class="cls-6" d="M108.87,111.81a17.84,17.84,0,0,0,1.63,3c.61,1.11,1.2,2.24,1.73,3.39.13.27.61.07.5-.21-.81-2.09-1.87-4.87-3.7-6.27-.08-.06-.19,0-.16.13Z"/><path class="cls-6" d="M116.55,109.07a74.91,74.91,0,0,1,5.48,7.19.22.22,0,0,0,.38-.22,22.2,22.2,0,0,0-5.61-7.21.17.17,0,0,0-.25.24Z"/><path class="cls-6" d="M123.34,103.56a45.86,45.86,0,0,0,4,2.33c1.31.81,2.54,1.81,3.92,2.51a.15.15,0,0,0,.18-.24,15.85,15.85,0,0,0-3.8-2.79,14.76,14.76,0,0,0-4.24-2,.11.11,0,0,0-.09.21Z"/><path class="cls-6" d="M126.42,98.09a20.72,20.72,0,0,0,7,4.24c.18.06.24-.18.12-.28a37.79,37.79,0,0,0-3.44-2.12c-1.15-.69-2.28-1.45-3.48-2a.13.13,0,0,0-.15.2Z"/><path class="cls-6" d="M129.42,91.85a31.73,31.73,0,0,1,3.37,3.09c1,1.12,1.87,2.41,2.89,3.53.1.11.33,0,.27-.16-1.16-2.76-3.8-5.19-6.22-6.87-.24-.17-.55.22-.31.41Z"/><path class="cls-7" d="M68,101.25a41.87,41.87,0,0,0-5.27,7.42,43,43,0,0,0-4.33,8c-.07.22.24.32.36.15,1.69-2.48,2.94-5.29,4.5-7.85s3.51-5,4.92-7.59c0-.11-.09-.23-.18-.14Z"/><path class="cls-7" d="M75.1,106.17c-1.64,2.63-2.94,5.48-4.46,8.18s-3.22,5.33-4.65,8.08a.19.19,0,0,0,.32.19,65.35,65.35,0,0,0,9.08-16.33c.06-.17-.2-.27-.29-.12Z"/><path class="cls-7" d="M81.52,112.54c-.54,3.66-1.65,7.11-2.5,10.69,0,.16.2.28.27.12a36.21,36.21,0,0,0,2.85-10.64c.06-.4-.55-.57-.62-.17Z"/><path class="cls-7" d="M89,112.5c.45,3.46.48,6.91.72,10.38,0,.15.25.2.28,0a27.43,27.43,0,0,0-.59-10.48c0-.23-.45-.18-.41.06Z"/><path class="cls-7" d="M96.62,114.79c1,3.1,1.22,6.24,1.91,9.39,0,.22.34.15.36,0,.25-3.16-.87-6.53-2-9.43-.06-.17-.34-.1-.28.08Z"/><path class="cls-7" d="M103.6,113.9c1.54,3,2.57,5.7,2.36,9.1,0,.34.47.38.57.08,1.1-3.34-.91-6.63-2.56-9.4a.22.22,0,0,0-.37.22Z"/><path class="cls-7" d="M115.77,113.27c1.72,2.93,3.64,6.48,6.33,8.64a.21.21,0,0,0,.32-.25c-1.67-3.07-4.27-5.72-6.18-8.67a.27.27,0,0,0-.47.28Z"/><path class="cls-7" d="M123.35,110.14c1.27,1.36,2.61,2.66,3.86,4a36.8,36.8,0,0,0,3.73,4.15.25.25,0,0,0,.38-.3,17.51,17.51,0,0,0-3.51-4.44,33.42,33.42,0,0,0-4.17-3.81c-.22-.17-.46.18-.29.37Z"/><path class="cls-7" d="M80.47,69.25a15.36,15.36,0,0,1-.93-7.62c0-.2-.27-.21-.33,0A10.47,10.47,0,0,0,80,69.51c.14.3.58,0,.44-.26Z"/><path class="cls-7" d="M74,57.76c.88-1.39.42-4.08-1-5a.26.26,0,0,0-.37.28c.21.73.65,1.37.83,2.12a18.45,18.45,0,0,1,.25,2.47.18.18,0,0,0,.33.09Z"/><path class="cls-7" d="M110,85.38v.25s0,0,0,0v-.25Z"/><path class="cls-7" d="M110,85.81c-2.29-3.3,1.56-7.8,3.53-10.36.17-.22-.19-.49-.38-.3-2.34,2.35-6.46,7.69-3.39,10.85.12.12.34,0,.24-.19Z"/><path class="cls-7" d="M123.48,78.26A14.37,14.37,0,0,1,120.83,86c-.12.19.15.38.31.24a10.29,10.29,0,0,0,2.9-8,.28.28,0,0,0-.56,0Z"/><path class="cls-7" d="M97.14,101a9.11,9.11,0,0,0,2.86.58.22.22,0,0,0,.11-.41,9.55,9.55,0,0,0-2.75-1,.41.41,0,0,0-.22.78Z"/><path class="cls-7" d="M89,88.37a17.64,17.64,0,0,1-3-7.3.23.23,0,0,0-.46.06,12.39,12.39,0,0,0,3,7.58c.2.25.64-.08.44-.34Z"/><path class="cls-7" d="M75.17,90.72a9.72,9.72,0,0,1-1.34-1.9c-.34-.62-.55-1.3-.88-1.93a.23.23,0,0,0-.43.12,6.52,6.52,0,0,0,2.31,4,.24.24,0,0,0,.34-.33Z"/><path class="cls-7" d="M107.23,65.93c2-.87,3-3.37,2.91-5.42a.2.2,0,0,0-.4,0c-.23,2.18-1.33,3.58-2.66,5.23a.12.12,0,0,0,.15.19Z"/><polygon class="cls-8" points="122.39 13.84 119.43 15.35 116.22 18.22 114.03 22.5 113.19 25.73 112.07 30.05 112.46 33.92 112.72 38.48 113.29 49.01 113.19 55 112.39 60.51 110.66 63.49 108.53 67.27 103.68 72.61 100.84 74.16 95.44 76.59 91.01 77.39 88.16 77.39 91.23 82.3 92.75 86.14 93.5 90.75 95.17 87.93 99.01 81.98 103.68 77.23 110.92 71.39 116.63 66.86 121.22 62.59 125.12 56.87 127.51 51.75 129.64 44.17 130.41 38.1 130.62 32.07 130 26.02 126.56 17.21 124.29 14.49 122.39 13.84"/><path class="cls-8" d="M88.5,18.74,85.63,22l-1.21,4.73-.7,4.72.55,7.24,1.57,5.86,1.41,4.87.28,4L87,56.87l-1.88,3.25,2.54-1.36,3.42-.39a31.57,31.57,0,0,0,3.44.78c.49,0-.5-1.89-.5-1.89l-.73-3.68.12-4,1.24-5.37.53-4.28.41-4-.19-3.21-1-6.5L92.65,22.5l-1.42-3.16-.65-1.12H89.37Z"/><path class="cls-9" d="M88.39,27.27c-.63,4,.08,8.43.35,12.48l.41,6.44c.12,1.75-.09,3.64.89,5.14a.39.39,0,0,0,.66,0c.79-1.62.36-3.39.25-5.14l-.43-6.44c-.27-4.07-.11-8.55-1.27-12.48-.11-.39-.79-.46-.86,0Z"/><path class="cls-9" d="M121.59,31.71c-1.11,4.63-.59,9.73-1.28,14.46A43.36,43.36,0,0,1,116.4,59.3a40.86,40.86,0,0,1-7,10.17,36.11,36.11,0,0,1-5.08,4.33c-1.48,1-3.24,1.81-4.46,3.14a.37.37,0,0,0,.36.62c3.61-.53,7.43-4.32,9.93-6.79a39.35,39.35,0,0,0,7.92-10.48,44.88,44.88,0,0,0,4.11-13.6c.7-4.72,1.57-10.25.75-15-.12-.7-1.2-.65-1.36,0Z"/><path class="cls-9" d="M121.55,31.76c-1,.42-2,.95-3,1.41a11.48,11.48,0,0,0-3,1.43.34.34,0,0,0,.25.58,7.43,7.43,0,0,0,3-1.15,16.49,16.49,0,0,0,3-1.85c.18-.15,0-.51-.25-.42Z"/><path class="cls-9" d="M115.31,35.14c-.31,4.9.14,9.87-.1,14.8-.11,2.39-.29,4.77-.56,7.14s-1,5.08-.92,7.56c0,.4.65.67.83.23a23.23,23.23,0,0,0,1.25-6.36q.52-4,.75-8.09c.26-5,.46-10.5-.71-15.36-.07-.31-.52-.22-.54.08Z"/><path class="cls-9" d="M122.42,31.79c0,1,1,1.86,1.6,2.53A30,30,0,0,0,126.64,37c.64.56,1.55-.33.94-.94-.85-.84-1.71-1.65-2.53-2.52-.62-.67-1.33-1.83-2.27-2a.3.3,0,0,0-.36.28Z"/><path class="cls-9" d="M126.9,36.82c-1,5.11-1.52,10-3.7,14.79a41.94,41.94,0,0,1-8.76,12.47c-.47.47.27,1.22.74.74a41.84,41.84,0,0,0,8.95-13.13c1.94-4.46,3.72-9.87,3.29-14.81,0-.27-.45-.38-.52-.06Z"/><path class="cls-9" d="M88.21,27.73a18.06,18.06,0,0,0-1.69,2.1c-.57.7-1.17,1.38-1.75,2.07-.27.32.15.76.46.46a18.33,18.33,0,0,0,1.83-2.11,9.38,9.38,0,0,0,1.48-2.33c.07-.19-.19-.31-.33-.19Z"/><path class="cls-9" d="M84.85,31.89a54.28,54.28,0,0,0,3.91,19.37c.27.67,1.34.42,1.12-.31-1-3.15-2-6.26-2.81-9.45s-1.21-6.44-1.84-9.66c0-.22-.38-.16-.38.05Z"/><path class="cls-9" d="M89.45,50.56a44.8,44.8,0,0,0-3.53,9.35.27.27,0,0,0,.49.2A37.61,37.61,0,0,0,90,50.79c.08-.31-.39-.54-.54-.23Z"/><path class="cls-9" d="M89.78,49.77a10.61,10.61,0,0,0,1.43,5c.7,1.44,1.56,3.49,3,4.27a.39.39,0,0,0,.57-.44c-.38-1.48-1.73-2.79-2.46-4.15-.82-1.53-1.27-3.31-2.24-4.76a.18.18,0,0,0-.32.09Z"/><path class="cls-9" d="M94.38,58.63c-2.43-1.17-6.54-1.51-8.62.61a.46.46,0,0,0,.45.77c1.34-.22,2.5-.9,3.89-1a15.56,15.56,0,0,1,4.09.12c.26,0,.47-.31.19-.45Z"/><path class="cls-9" d="M88.26,58.08c.65-1.72,1.26-3.44,1.89-5.17l-1.29.17c.93,1.5,1.85,3,2.78,4.52l.65-1.13a14.55,14.55,0,0,1-3.9,0A.78.78,0,0,0,88,58c3.38,1.3,2.56-5.45,2.2-7-.25-1.07-1.93-.62-1.66.46.09.35.81,5.33-.13,5L88.19,58a17.2,17.2,0,0,0,4.3-.08.76.76,0,0,0,.45-1.1c-1-1.5-1.91-3-2.86-4.47a.71.71,0,0,0-1.29.17A21.64,21.64,0,0,0,87.61,58c0,.39.53.4.65.08Z"/><path class="cls-9" d="M90,54.63a2.43,2.43,0,0,1,0,1,.69.69,0,1,0,1.2,0,2.53,2.53,0,0,1-.26-1.09c-.07-.52-.92-.39-.91.12Z"/><path class="cls-9" d="M90.06,55.86c-.17.61.12,1.71,1,1.52a.55.55,0,0,0,.46-.48.74.74,0,0,0,0-.33c0-.09-.18-.27-.16-.36a.65.65,0,0,0-1.26-.35Z"/><path class="cls-9" d="M88.92,27.89c.07.92,1.12,1.7,1.76,2.27A8.73,8.73,0,0,0,93.39,32a.35.35,0,0,0,.33-.58c-.8-.71-1.79-1.2-2.61-1.9C90.46,29,89.85,28,89,27.82a.07.07,0,0,0-.09.07Z"/><path class="cls-9" d="M93.16,31.77c.15,7-.23,13.37-2.65,20-.18.49.6.69.79.21,2.45-6.22,3.77-13.67,2.4-20.31a.28.28,0,0,0-.54.08Z"/><path class="cls-9" d="M89.5,48.06c.38-2.66-.63-5.58-.86-8.25-.27-3.12.2-6.21,0-9.3a.82.82,0,0,0-1.61-.22c-.92,3.09-.62,6.81-.24,10,.31,2.58.64,5.85,2.41,7.86a.16.16,0,0,0,.27-.07Z"/><path class="cls-9" d="M87.78,29.48c-1.56.44-2.23,2.36-2.49,3.81a8.2,8.2,0,0,0,.78,5.17c.46.93,1.88.11,1.4-.82a6.66,6.66,0,0,1-.61-4.41c.25-1.2,1.06-2.22,1.26-3.42a.28.28,0,0,0-.34-.33Z"/><path class="cls-9" d="M87.3,31a2.69,2.69,0,0,1,1-1.19.57.57,0,1,0-.69-.89,4.29,4.29,0,0,0-1.17,1.7c-.2.51.66.88.89.38Z"/><path class="cls-9" d="M88.88,29.64A3.74,3.74,0,0,0,90.2,32a6.54,6.54,0,0,0,2.45,1.69.78.78,0,0,0,.75-1.29c-.61-.62-1.46-1-2.13-1.63a6.63,6.63,0,0,0-1.94-1.44.36.36,0,0,0-.45.34Z"/><path class="cls-9" d="M89.23,30.52c.53.47,1,.94,1.59,1.4a5.59,5.59,0,0,0,1.66,1.16A.74.74,0,0,0,93.31,32a5.81,5.81,0,0,0-1.52-1.4c-.54-.43-1.11-.83-1.66-1.25s-1.54.62-.9,1.16Z"/><path class="cls-9" d="M92.38,32.69c-.47,2.59-.2,5.27-.46,7.9-.29,2.82-1.53,5.77-1.49,8.56a.5.5,0,0,0,.93.25c1.52-2.1,1.75-5.37,2-7.9.32-2.87.57-6.07-.51-8.81-.09-.21-.45-.28-.5,0Z"/><path class="cls-9" d="M91.41,48A46.17,46.17,0,0,0,92,39.82c0-2.36.24-5.25-.85-7.39a.62.62,0,0,0-1.12.14c-.6,2.24.14,5,.28,7.25.16,2.7.32,5.38.54,8.06,0,.31.52.43.58.08Z"/><path class="cls-9" d="M89.56,32.53a2.27,2.27,0,0,0,.79,1.12,11.09,11.09,0,0,0,1.23,1c.86.63,1.79-.87.86-1.46A10.8,10.8,0,0,0,91,32.48a2.08,2.08,0,0,0-1.26-.28c-.15,0-.21.2-.19.33Z"/><path class="cls-9" d="M91.1,33.75c0,1.43,0,2.85.1,4.27,0,1.08,1.76,1.06,1.66,0-.14-1.48-.34-3-.54-4.43-.1-.71-1.23-.52-1.22.16Z"/><path class="cls-9" d="M89.3,31.51a8.12,8.12,0,0,1,.62,4c-.08,1-.74,2.16-.38,3.09a.38.38,0,0,0,.46.26c1.34-.34,1.55-2.4,1.5-3.56a6.2,6.2,0,0,0-1.9-4.05c-.16-.16-.4.05-.3.24Z"/><path class="cls-9" d="M86,38.46c.55,1.66,1,3.32,1.62,5,.43,1.21.69,2.56,1.78,3.33a.45.45,0,0,0,.65-.26c.32-1.32-.43-2.59-.91-3.81-.6-1.54-1.29-3-1.93-4.55-.3-.72-1.47-.46-1.21.33Z"/><path class="cls-9" d="M89.65,49.88a74.69,74.69,0,0,0,.12-9.1c0-2.75.26-5.63-.15-8.35a.77.77,0,0,0-1.47,0c-.52,2.85-.19,5.94-.09,8.83A42.39,42.39,0,0,0,89,50c.09.38.59.26.63-.08Z"/><path class="cls-9" d="M115.77,36.46a6.47,6.47,0,0,0,3.52-1,9,9,0,0,0,3.34-2.28c.3-.39-.2-1-.66-.85a31,31,0,0,0-3.17,1.87,14.15,14.15,0,0,0-3.18,1.67c-.18.17-.12.56.15.59Z"/><path class="cls-9" d="M116.12,35.57c.87.64,2.3,0,3.21-.28s2.42-.65,2.93-1.67A.43.43,0,0,0,122,33c-1.14-.22-2.21.56-3.26.93-.87.31-2.22.46-2.7,1.33a.25.25,0,0,0,.08.33Z"/><path class="cls-9" d="M116.22,36.28c-.42,1.83,0,3.8.08,5.67s.11,4,0,6a95.71,95.71,0,0,1-1.62,13.17c-.16.92,1.16,1.32,1.41.39A59.69,59.69,0,0,0,118,48.46,64.26,64.26,0,0,0,117.9,42c-.11-1.92-.08-4-1-5.76a.4.4,0,0,0-.71.09Z"/><path class="cls-9" d="M115.88,60.07c2.69-3.32,4.16-7.81,5.11-11.93.9-3.89,2.09-9.33.85-13.21a.72.72,0,0,0-1.38,0,36.13,36.13,0,0,0-.26,5.51,48.69,48.69,0,0,1-.94,7.22c-.86,4.23-2.56,8.1-3.7,12.23,0,.17.19.34.32.18Z"/><path class="cls-9" d="M121,35.05a4.85,4.85,0,0,0-2.33.22,3.81,3.81,0,0,0-2.09,1.29c-.39.61.25,1.22.86,1.12a7.15,7.15,0,0,0,1.84-1c.61-.32,1.23-.64,1.81-1,.23-.15.24-.61-.09-.66Z"/><path class="cls-9" d="M117.45,36.6a70.51,70.51,0,0,0-.36,8.1c-.06,2.29-.67,5,.27,7.16a.45.45,0,0,0,.77,0c1.14-2,.74-4.9.78-7.16a44.68,44.68,0,0,0-.31-8.1c-.09-.56-1.07-.57-1.15,0Z"/><path class="cls-9" d="M117.57,52.59a7.18,7.18,0,0,0,.94-.65l-1.23-.71-.13.94a.79.79,0,0,0,1.53.42,35.44,35.44,0,0,0,1.5-16.54c-.16-1.13-1.88-.65-1.72.47a34,34,0,0,1-1.31,15.65l1.55.21,0-1a.74.74,0,0,0-1.44-.2,3.83,3.83,0,0,0-.28.93.39.39,0,0,0,.57.43Z"/><path class="cls-9" d="M122.3,34.1A6.29,6.29,0,0,0,124,36.7c.54.64,1.24,2,2.18,1.91a.46.46,0,0,0,.44-.33c.2-1-1-1.78-1.54-2.44S123.71,34,122.7,33.7a.33.33,0,0,0-.4.4Z"/><path class="cls-9" d="M122.91,34.36c.6.8,1.19,1.61,1.81,2.39.37.46,1.07,1.51,1.8,1s-.15-1.46-.52-1.87c-.67-.78-1.38-1.51-2.07-2.26-.49-.53-1.47.19-1,.79Z"/><path class="cls-9" d="M125.54,37.57c-1.11,3.36-1.77,6.85-2.87,10.22a64.91,64.91,0,0,1-4.51,10.37c-.44.83.8,1.56,1.26.74,3.48-6.27,6.78-14,6.59-21.26a.24.24,0,0,0-.47-.07Z"/><path class="cls-9" d="M120.14,57.53a53.71,53.71,0,0,0,5-10.58c1-2.91,2.74-6.77,1-9.73a.69.69,0,0,0-1.27.35c.46,6.87-3.08,13.37-5.31,19.74-.11.31.35.48.51.22Z"/><path class="cls-9" d="M123.39,36c-.9,2-.88,4.41-1.36,6.56a43.61,43.61,0,0,1-2.36,7.2c-.41,1,1.31,1.73,1.76.74,1.75-3.83,4.19-10.23,2.52-14.43-.09-.21-.44-.34-.56-.07Z"/><path class="cls-9" d="M122.53,49.12a16.52,16.52,0,0,0,2.56-6.51c.35-1.78.91-3.94.06-5.6a.51.51,0,0,0-.87,0c-.89,1.62-.63,3.74-1,5.56-.39,2.11-1.14,4.12-1.56,6.22a.43.43,0,0,0,.78.33Z"/><path class="cls-9" d="M126.24,36.74a3,3,0,0,1-.12,1.35c-.11.4-.41.76-.37,1.18a.53.53,0,0,0,.79.46c.52-.23.67-1,.74-1.49a3.73,3.73,0,0,0-.29-1.71.39.39,0,0,0-.75.21Z"/><path class="cls-9" d="M115.85,35.26a1.8,1.8,0,0,0,.32,1.45.29.29,0,0,0,.45-.06,1.83,1.83,0,0,0-.26-1.53c-.13-.26-.5-.11-.51.14Z"/><path class="cls-9" d="M101.75,76.06a.05.05,0,0,0,0-.1.05.05,0,1,0,0,.1Z"/><path class="cls-9" d="M101.76,75.92c-4.27-.28-8.82.59-13,1.54a.34.34,0,0,0,.09.66c4.25-.13,8.88-.42,12.94-1.76a.22.22,0,0,0-.06-.44Z"/><path class="cls-9" d="M88.39,78.19c2.38,4.06,4.37,7.64,4.86,12.44,0,.54.91.55.86,0-.47-4.46-2.06-9.52-5.43-12.67a.19.19,0,0,0-.29.23Z"/><path class="cls-9" d="M94,90.38a57.88,57.88,0,0,1,3.87-7.91c1.79-2.72,4.13-4.69,6.4-7a.4.4,0,0,0-.48-.62c-5,2.81-9.59,9.66-10.13,15.4a.19.19,0,0,0,.34.1Z"/><path class="cls-9" d="M94.64,85.35c-.2.54-.43,1.08-.61,1.62a0,0,0,0,0,.06,0c.26-.52.47-1.06.7-1.59a.08.08,0,1,0-.15-.06Z"/><path class="cls-9" d="M93.61,88.72A61.84,61.84,0,0,1,101,77.29a.71.71,0,0,0-1-1,21.45,21.45,0,0,0-6.84,12.26c0,.23.28.42.42.17Z"/><path class="cls-9" d="M94.17,88.63a15.39,15.39,0,0,0-1.39-6.18c-.62-1.5-1.37-3.62-2.89-4.39-.27-.14-.7,0-.66.38.16,1.56,1.36,2.87,2,4.29.9,1.94,1.43,4,2.17,6a.39.39,0,0,0,.76-.1Z"/><path class="cls-9" d="M89.54,78.2a15.25,15.25,0,0,0,5.71-.12,19.46,19.46,0,0,0,5.07-1.1c.58-.24.26-1.15-.31-1.14a39.89,39.89,0,0,0-5,.76,25.48,25.48,0,0,0-5.51,1c-.26.11-.32.52,0,.6Z"/><path class="cls-9" d="M90.62,79.24c2.78.37,7.1.53,9.3-1.54a.58.58,0,0,0-.41-1,20.63,20.63,0,0,0-3.93,1,26.66,26.66,0,0,1-5,.58.49.49,0,0,0,0,1Z"/><path class="cls-9" d="M91,79.8c2,1.78,6.12.79,7.86-1a.8.8,0,0,0-1-1.26A13.79,13.79,0,0,1,94.41,79c-1.11.22-2.26.12-3.35.38a.25.25,0,0,0-.11.41Z"/><path class="cls-9" d="M91.87,81.44a5.65,5.65,0,0,0,3.18.15,7.1,7.1,0,0,0,2.89-1.54c.84-.73-.38-1.91-1.22-1.22A7.56,7.56,0,0,1,92,80.49a.49.49,0,0,0-.13,1Z"/><path class="cls-9" d="M92.32,82.51c1.81.44,4.38.11,5.41-1.68a.8.8,0,0,0-1.09-1.09,12.65,12.65,0,0,1-1.74,1.13,4.42,4.42,0,0,1-2.21.31c-.85-.12-1.25,1.11-.37,1.33Z"/><path class="cls-9" d="M93.2,83.53a4.23,4.23,0,0,0,4.27-1.17.86.86,0,0,0-1.21-1.21,3.9,3.9,0,0,1-2.89,1.13.64.64,0,0,0-.17,1.25Z"/><path class="cls-9" d="M93.36,84.48a5.26,5.26,0,0,0,1.51.3c.74,0,1-1.19.19-1.34a5.1,5.1,0,0,0-1.56,0c-.54,0-.73.85-.14,1Z"/><path class="cls-9" d="M93.91,83.38a4.7,4.7,0,0,0-.38,1.39c-.1.51-.24.92.13,1.34a.51.51,0,0,0,.71,0c.39-.35.27-.81.23-1.29a4.61,4.61,0,0,0-.2-1.38.27.27,0,0,0-.49-.06Z"/><path class="cls-9" d="M89,77.76a1.69,1.69,0,0,0,1.54,1.58.59.59,0,0,0,.29-1.09c-.23-.12-.49-.14-.73-.25a3.34,3.34,0,0,1-.63-.43.28.28,0,0,0-.47.19Z"/><path class="cls-2" d="M94.18,90.47a27.33,27.33,0,0,1,5.74-9.84,68.12,68.12,0,0,1,8.73-7.43c5.11-3.84,10.83-7.94,13.36-14.05.28-.69-.81-1.09-1.17-.49-4.23,6.93-10.45,11-16.66,16C99.5,78.41,93.91,84,93.71,90.41c0,.28.38.3.47.06Z"/><path class="cls-2" d="M85.69,60.05a13,13,0,0,1,4.59-1.52c1.41-.1,2.71.5,4.07.43a.53.53,0,0,0,.37-.9c-2.3-2.33-7.59-.73-9.38,1.53a.29.29,0,0,0,.35.46Z"/><path class="cls-2" d="M88.75,50.09q.72,0,1.44.09c1,.08.94-1.72-.19-1.47-.47.1-.93.2-1.4.28-.65.1-.46,1.08.15,1.1Z"/><path class="cls-2" d="M89.17,45.63a2.4,2.4,0,0,0,1.36-.47.57.57,0,0,0-.26-.95,2.49,2.49,0,0,0-1.44.18c-.81.21-.46,1.39.34,1.24Z"/><path class="cls-2" d="M88.71,41.66c.44-.2,1-.14,1.38-.37a.18.18,0,0,0,0-.31c-.5-.37-1.21,0-1.59.41-.15.14,0,.35.21.27Z"/><path class="cls-2" d="M88.91,37.54l.36-.38s0-.09,0,0l-.38.36a0,0,0,0,0,.07.07Z"/><path class="cls-2" d="M88.69,33.12c.62-.14,1.24-.27,1.85-.45.18-.05.15-.35,0-.33-.65.07-1.3.19-1.94.3-.32,0-.19.56.13.48Z"/><path class="cls-2" d="M115.87,61a19.46,19.46,0,0,0,5-16.26c0-.17-.29-.13-.29,0a26.52,26.52,0,0,1-4.91,16.06c-.08.13.11.26.21.16Z"/><path class="cls-10" d="M92.87,81.11c5.45-1.86,11.22-6.46,14.9-10.83a.57.57,0,0,0-.8-.8c-2.51,2.14-4.83,4.44-7.5,6.41-2.24,1.66-4.65,3.09-6.81,4.86-.17.13,0,.42.21.36Z"/><path class="cls-10" d="M114.52,50.14a73.11,73.11,0,0,0,.21-8.76c0-1.29-.09-2.59-.09-3.89a9.29,9.29,0,0,1,1.22-4.71.38.38,0,0,0-.43-.56c-2.72.53-2.42,4.14-2.37,6.24a96.5,96.5,0,0,0,.71,11.78c.07.46.71.3.75-.1Z"/><path class="cls-10" d="M127.84,34.33c-.94,3-.34,6.68-.89,9.84-.58,3.33-2,6.34-2.78,9.6a.51.51,0,0,0,.93.39c2.14-2.83,3-7,3.5-10.43.43-2.92,1.08-6.74-.35-9.45a.22.22,0,0,0-.41,0Z"/><path class="cls-10" d="M122.17,33.76a32.46,32.46,0,0,1-.1,4.73,44.36,44.36,0,0,0-.68,4.66.44.44,0,0,0,.81.22c1.49-2.65,1.16-6.71.81-9.61-.07-.52-.87-.55-.84,0Z"/><path class="cls-10" d="M83.85,31.88a26.28,26.28,0,0,0,.84,8c.57,2.53,1.17,5.46,2.59,7.66a.35.35,0,0,0,.64-.27c-.49-2.59-1.66-5.07-2.25-7.66s-.76-5.25-1.35-7.83c-.06-.28-.44-.19-.47.06Z"/><path class="cls-10" d="M93.44,30.7c-.5,2.17,0,4.55,0,6.77,0,2.58-.58,5.1-.64,7.66,0,.69.93.75,1.15.15a24.14,24.14,0,0,0,1-7.81c0-2.22.07-4.84-1-6.82a.21.21,0,0,0-.38.05Z"/><path class="cls-10" d="M87.61,56.93a3.29,3.29,0,0,0,.88-.25,5.15,5.15,0,0,1,1.6-.26c.73,0,1.74.36,2.36-.08a.5.5,0,0,0,.17-.66c-.42-.88-1.9-.7-2.7-.53a3.77,3.77,0,0,0-2.47,1.5.19.19,0,0,0,.16.28Z"/><path class="cls-10" d="M88.75,54.5c.43,0,.87,0,1.31.06.87.1.88-1.45,0-1.36-.44,0-.88,0-1.31.07a.62.62,0,0,0,0,1.23Z"/><path class="cls-10" d="M84.85,30.23a7.6,7.6,0,0,0,1.27-.92,4.34,4.34,0,0,0,1.16-1,.46.46,0,0,0-.51-.67,4,4,0,0,0-1.22.88,7.9,7.9,0,0,0-1.2,1.11.41.41,0,0,0,.5.65Z"/><path class="cls-7" d="M128.47,22.46c-1.69-1.31-3.71.73-3.42,2.52a2.55,2.55,0,0,0,1.76,2c.81.24,2.24.16,2.52-.8a.57.57,0,0,0-.54-.71c-.49,0-.85.36-1.36.31a1.23,1.23,0,0,1-1.1-1c-.23-1.2.91-1.59,1.87-1.7.28,0,.55-.42.27-.64Z"/><path class="cls-7" d="M129.07,26.15a1.72,1.72,0,0,0,.46-1.45,4.29,4.29,0,0,0-.61-1.93.68.68,0,0,0-1.16,0,4.27,4.27,0,0,0-.86,3l1.29-.35a1.64,1.64,0,0,1-.38-1c0-.4.2-.71,0-1.1a.64.64,0,0,0-.92-.37c-.58.28-.62,1.06-.56,1.64a3.07,3.07,0,0,0,.72,1.68c.48.6,1.26-.07,1.16-.67a2.43,2.43,0,0,1,.56-2l-1.06-.14A8.06,8.06,0,0,1,128.4,25a2.65,2.65,0,0,0,.48,1.16.15.15,0,0,0,.19,0Z"/><path class="cls-7" d="M127.28,23.67a5.09,5.09,0,0,0,0,1.23c.05.46-.1.89-.09,1.35a.74.74,0,0,0,1.37.37c.51-.9.19-2.89-1-3.14a.27.27,0,0,0-.32.19Z"/><path class="cls-7" d="M114.66,21.83c-1.2,1.06-2.15,2.85-1.29,4.42s2.57,1.31,3.6.17a3.48,3.48,0,0,0,.35-4.41c-.7-.83-3.41-1.25-3.22.45,0,.24.2.51.48.48.64-.06,1.06-.53,1.72-.19,1.15.59.57,2.36-.12,3.08a1.32,1.32,0,0,1-2.39-.84c-.08-1.09.7-2,1.16-2.94a.18.18,0,0,0-.29-.22Z"/><path class="cls-7" d="M115,22.36a3.41,3.41,0,0,0-1.49,1.4,2,2,0,0,0,0,1.95,1.71,1.71,0,0,0,3.1,0c.51-1,.71-3.14-.87-3.22a1.61,1.61,0,0,0-1.48.91,2.14,2.14,0,0,0,.43,2.27c.48.58,1.4,0,1.22-.71a4.28,4.28,0,0,0-.27-.81c0-.08,0-.12.07-.14-.22-.12-.3-.07-.24.14-.1.24,0,1-.37,1.13s-.43-.9-.38-1.13c.13-.54.53-.89.69-1.41.07-.21-.16-.47-.38-.38Z"/><path class="cls-7" d="M85.62,23.65a0,0,0,1,0,0,0s0,0,0,0Z"/><path class="cls-7" d="M85.48,23.83c.33.94.23,2.17-1,2.35-.65.09-.34,1.22.38.9,1.31-.58,2.2-2.3,1-3.5-.18-.18-.53,0-.44.25Z"/><path class="cls-7" d="M85,26.58a4.05,4.05,0,0,1,.32-1.13c.18-.34.41-.64.62-1s-.37-.95-.74-.57a3.1,3.1,0,0,0-.74,2.66.28.28,0,0,0,.54,0Z"/><path class="cls-7" d="M91.66,23.3A2,2,0,0,0,93,25.59a.5.5,0,0,0,.38-.91,2.16,2.16,0,0,1-1.09-1.38.33.33,0,0,0-.63,0Z"/><path class="cls-7" d="M91.82,23.57a1.77,1.77,0,0,1,.53.71c.1.28.07.58.16.85a.54.54,0,0,0,1,0,2.17,2.17,0,0,0-1.22-2.21c-.4-.22-.87.33-.5.65Z"/><path class="cls-7" d="M88.48,21c.13-.29.31-.68.65-.74s.58.17.88.23a.32.32,0,0,0,.39-.39c-.23-1.38-2.9-.48-2.21.9a.17.17,0,0,0,.29,0Z"/><path class="cls-7" d="M119.2,17.55a6.74,6.74,0,0,1,2.07-.69c1-.05,1.46.67,2.31.87a.63.63,0,0,0,.76-.76c-.26-1.2-2-1.65-3.07-1.57a2.61,2.61,0,0,0-2.44,1.78c0,.2.15.46.37.37Z"/><path class="cls-7" d="M120,33.7a23.41,23.41,0,0,0-.13,3.35c0,1.28-.3,2.56-.3,3.84a.34.34,0,0,0,.66.09,10.8,10.8,0,0,0,.14-7.33.2.2,0,0,0-.37.05Z"/><path class="cls-7" d="M119,46.33a77.91,77.91,0,0,0-1.93,9.05c0,.32.46.37.55.08a74.52,74.52,0,0,0,1.78-9c0-.26-.33-.38-.4-.11Z"/><path class="cls-7" d="M88.3,31.76C88.1,36.63,88,42.37,89.85,47c.08.19.38.18.38-.05,0-2.53-.57-5-.76-7.53a69,69,0,0,1-.16-7.61c0-.65-1-.65-1,0Z"/><path class="cls-7" d="M90,79.14c2,.43,4.83,0,6.17-1.7.23-.3-.14-.68-.45-.6-.91.25-1.71.76-2.61,1a15.39,15.39,0,0,1-3,.6c-.34,0-.49.57-.09.65Z"/><path class="cls-7" d="M92.39,54.22a16.84,16.84,0,0,0,0-2.75,29.12,29.12,0,0,0,.2-3.08.32.32,0,0,0-.59-.16,6.34,6.34,0,0,0,0,6c.1.15.39.17.43-.05Z"/><path class="cls-7" d="M73.34,27.45a7.58,7.58,0,0,0,2.28.2,6.34,6.34,0,0,0,2.3-.17.19.19,0,0,0,0-.37,6.33,6.33,0,0,0-2.3-.13,7.6,7.6,0,0,0-2.28.24.12.12,0,0,0,0,.23Z"/><path class="cls-7" d="M101.84,27.24a11,11,0,0,0,3.34.46,14.73,14.73,0,0,0,3.38.1c.27,0,.23-.43,0-.5a15.27,15.27,0,0,0-3.38-.34,11,11,0,0,0-3.34,0,.15.15,0,0,0,0,.28Z"/><path class="cls-7" d="M133.12,25.81a.05.05,0,1,0,0-.1.05.05,0,0,0,0,.1Z"/><path class="cls-7" d="M132.62,26.56a.05.05,0,1,0,0-.1.05.05,0,0,0,0,.1Z"/><path class="cls-7" d="M132.31,26.62a5.9,5.9,0,0,0,2.5.14c.17-.06.25-.34.05-.43a5.79,5.79,0,0,0-2.49-.14c-.23,0-.31.39-.06.43Z"/><path class="cls-7" d="M81,103a2.79,2.79,0,0,1,2-.31c.62.17.93.76,1.5.93a.32.32,0,0,0,.39-.3c.09-.87-1.24-1.39-1.93-1.49a2.39,2.39,0,0,0-2.28.85c-.14.22.12.41.32.32Z"/><path class="cls-7" d="M85.74,104.05c.59,0,1.16-.19,1.76-.16s1.15.33,1.75.31a.32.32,0,0,0,.22-.55c-.76-.89-3.1-.78-3.85.1a.17.17,0,0,0,.12.3Z"/><path class="cls-7" d="M92.9,105.81a2.37,2.37,0,0,1,1.51,0c.48.16.76.56,1.2.74s.54-.23.48-.49c-.13-.61-1-1-1.53-1.08a2.4,2.4,0,0,0-1.86.37c-.23.15-.09.58.2.47Z"/><path class="cls-7" d="M99.26,105.64a2.57,2.57,0,0,1,1.25-.73,8.41,8.41,0,0,0,1.24-.17c.16-.07.14-.29,0-.4-.38-.45-1.14-.3-1.61-.1a2.16,2.16,0,0,0-1.2,1.19c-.07.16.13.36.27.21Z"/><path class="cls-7" d="M107.38,105.48a10.52,10.52,0,0,1,1.88-1c.51-.14,1.24,0,1.63-.42a.2.2,0,0,0,0-.25c-.43-.6-1.4-.32-2-.11a3.21,3.21,0,0,0-1.89,1.43.25.25,0,0,0,.34.34Z"/><path class="cls-7" d="M115,102.55a4.3,4.3,0,0,1,1.52-.94c.5-.17,1-.2,1.51-.41a.24.24,0,0,0,0-.46c-1.21-.48-2.72.57-3.4,1.52-.17.23.18.45.37.29Z"/><path class="cls-7" d="M119.29,97.55c.24-.26.26-.62.45-.91a7.84,7.84,0,0,1,.8-.83.23.23,0,0,0-.16-.39c-.85-.08-2,1.3-1.47,2.09a.24.24,0,0,0,.38,0Z"/><path class="cls-7" d="M122.4,93.22A3.71,3.71,0,0,1,123.86,92c.49-.25,1.07-.33,1.44-.77a.25.25,0,0,0,0-.38c-.64-.39-1.4,0-1.92.47a4,4,0,0,0-1.23,1.81c-.08.19.21.29.3.13Z"/><path class="cls-7" d="M123.94,89.25a6.3,6.3,0,0,1,1-2.08c.42-.51,1.08-.84,1.42-1.39a.31.31,0,0,0-.26-.46c-.81-.09-1.58.72-2,1.32a3.8,3.8,0,0,0-.79,2.53.32.32,0,0,0,.63.08Z"/><path class="cls-7" d="M76.48,98.38c.36.2.77.23,1.13.45s.57.63,1,.69a.41.41,0,0,0,.49-.28c.42-1.2-1.92-2-2.7-1.31a.29.29,0,0,0,.06.45Z"/><path class="cls-7" d="M71.92,93.28a7.28,7.28,0,0,1,2.16,2c.13.22.66,1.71,1.1.94.34-.6-.61-1.74-1-2.13A3.18,3.18,0,0,0,72,93a.13.13,0,0,0-.07.24Z"/><path class="cls-6" d="M88.43,18.67c-5,4.31-5.34,11.94-4.62,18C84.7,44.36,90.32,53,85,60.13c-.1.13.12.3.23.18,4.61-5,1.63-12.26.09-17.85C83.3,35,82.57,24.78,88.57,18.81c.09-.09,0-.22-.14-.14Z"/><path class="cls-6" d="M85.2,60.53c2.11-1.12,4-2.27,6.46-1.78a9.61,9.61,0,0,0,3.44.44c.11,0,.08-.2,0-.2-1.92.11-3.69-.88-5.62-.56a10.74,10.74,0,0,0-4.29,2s0,.11,0,.08Z"/><path class="cls-6" d="M95.1,58.85a9.6,9.6,0,0,1-1.76-5.54.16.16,0,0,0-.31,0,7.58,7.58,0,0,0,2,5.61s.12,0,.09-.07Z"/><path class="cls-6" d="M90.49,18.28a38.14,38.14,0,0,1,4.88,17.87c0,6-2.79,11.72-2.46,17.7,0,.2.33.21.33,0,0-3.67,1.1-7,1.82-10.57a34.23,34.23,0,0,0,.67-8.8,33.07,33.07,0,0,0-5-16.31.11.11,0,0,0-.19.11Z"/><path class="cls-6" d="M88.74,35.35a1.69,1.69,0,0,0,1.21.17.11.11,0,0,0,0-.21.69.69,0,0,0-.61.09.12.12,0,0,0,0,.19.18.18,0,0,0,.3-.07c0-.06,0-.14-.09-.1h-.07l0,.17.44-.07v-.21a1.45,1.45,0,0,1-1.08-.09c-.08,0-.16.08-.07.13Z"/><path class="cls-6" d="M89.18,36.92l.69.25,0-.18h-.7a.11.11,0,0,0,0,.21,1.09,1.09,0,0,0,.44.06.06.06,0,0,0,0-.11.89.89,0,0,0-.42-.15l0,.2.7,0c.1,0,.13-.16,0-.17l-.72-.16c-.06,0-.08.07,0,.08Z"/><path class="cls-6" d="M89.09,38.13l1,.1,0-.2a.8.8,0,0,1-.56.18.12.12,0,0,0-.11.15.18.18,0,0,0,.28.14.09.09,0,0,0,0-.15l0,0-.12.11a1.15,1.15,0,0,0,.69-.24c.07-.06,0-.18-.08-.18l-1-.07c-.12,0-.11.17,0,.18Z"/><path class="cls-6" d="M89,39.61l.6.11,0-.2-.27.14c-.12.06,0,.21,0,.22a2,2,0,0,0,.55,0c.09,0,.08-.15,0-.17a2.5,2.5,0,0,0-.55-.05l.06.21.27-.16c.08,0,.07-.18,0-.19L89,39.4c-.14,0-.19.18-.06.21Z"/><path class="cls-6" d="M89.37,41.16l.48.2.08-.19c-.23-.05-.35,0-.48.15s0,.09.06.08a1.46,1.46,0,0,1,.36,0,.1.1,0,1,0,.06-.2l-.51-.2c-.12,0-.17.14,0,.19Z"/><path class="cls-6" d="M89.81,47.48h.36l0-.27a2,2,0,0,0-.49,0,.15.15,0,0,0,0,.29,2,2,0,0,0,.49,0,.14.14,0,0,0,0-.27.58.58,0,0,0-.49.13c-.07.06,0,.16.09.15Z"/><path class="cls-6" d="M89.67,48.46l.49.22,0-.18-.6,0c-.12,0-.16.13-.12.22a1.11,1.11,0,0,0,.24.39.08.08,0,0,0,.13,0,1.18,1.18,0,0,0-.1-.45l-.11.18a2.67,2.67,0,0,1,.56-.06c.09,0,.15-.15.05-.19l-.49-.21c-.11,0-.21.11-.1.16Z"/><path class="cls-6" d="M89.73,50.26l.28.29.06-.23c-.2,0-.29,0-.43.17a.09.09,0,0,0,0,.14c.18.07.27,0,.46,0a.14.14,0,0,0,.06-.23l-.28-.29c-.12-.12-.3.06-.19.19Z"/><path class="cls-6" d="M82,36.57a3,3,0,0,0,1-.23.07.07,0,0,0,0-.14,3.39,3.39,0,0,0-.94.33,0,0,0,0,0,0,0Z"/><path class="cls-6" d="M84.09,29.68c2.65-.54,3.13-4.52,6.56-2.79,1.39.7,2.22,1.9,3.88,1.28.08,0,0-.17,0-.14-2.4.74-3.36-2-5.48-1.89s-3.17,2.75-4.94,3.47c0,0,0,.08,0,.07Z"/><path class="cls-6" d="M85,22.87a2.28,2.28,0,0,1,1.25,1.93,1.93,1.93,0,0,1-1.81,1.77c-.16,0-.17.27,0,.26a2.19,2.19,0,0,0,2-1.8,2,2,0,0,0-1.45-2.23s-.07.05,0,.07Z"/><path class="cls-6" d="M92.6,22.4a1.77,1.77,0,0,0,1,3.32.14.14,0,0,0,0-.27,1.54,1.54,0,0,1-.89-2.85.11.11,0,1,0-.11-.2Z"/><path class="cls-6" d="M93.35,23.4c-.43.5-.82,1-1.2,1.56-.08.11.09.2.17.1.39-.52.77-1,1.12-1.59,0-.06,0-.12-.09-.07Z"/><path class="cls-6" d="M91.92,23.72a1.91,1.91,0,0,1,.79.08,5.62,5.62,0,0,1,.65.43.08.08,0,0,0,.11-.09,1.22,1.22,0,0,0-1.57-.52c-.05,0,0,.1,0,.1Z"/><path class="cls-6" d="M85,24.41a13.15,13.15,0,0,0,1.37,1.8c.07.07.2,0,.14-.11a14,14,0,0,0-1.41-1.77s-.14,0-.1.08Z"/><path class="cls-6" d="M84.79,26.06a6.69,6.69,0,0,0,1.62-1.9.08.08,0,0,0-.13-.09,9.06,9.06,0,0,0-.75,1c-.26.32-.53.63-.81.94,0,.05,0,.12.07.07Z"/><path class="cls-6" d="M87.93,20.4a2.35,2.35,0,0,0-.32,1c0,.15.2.22.24.06a2.49,2.49,0,0,0,.09-1.08Z"/><path class="cls-6" d="M90.45,20.22a2.9,2.9,0,0,0,.54,1.1c.07.09.2,0,.18-.1a2.81,2.81,0,0,0-.57-1.08c-.06-.07-.17,0-.15.08Z"/><path class="cls-6" d="M84.06,32.28a1.62,1.62,0,0,0,.62,0,.08.08,0,0,0,0-.15.27.27,0,0,0-.35.11s0,.08.06.05l.22,0,.05-.13a1.69,1.69,0,0,0-.63.13,0,0,0,0,0,0,0Z"/><path class="cls-6" d="M93.27,46a3.6,3.6,0,0,0,.64.12.06.06,0,0,0,0-.12,2.84,2.84,0,0,0-.65-.1c-.06,0-.07.09,0,.1Z"/><path class="cls-6" d="M93.06,47.19l.21.08a0,0,0,0,0,0-.09l-.19-.13c-.1-.06-.17.1-.06.14Z"/><path class="cls-6" d="M92.86,48a.86.86,0,0,0,.23,0,.06.06,0,0,0,0-.12h-.23c-.09,0-.09.14,0,.15Z"/><path class="cls-6" d="M92.5,49c.1.15.33.19.38,0a0,0,0,0,0,0,0h-.26a.05.05,0,1,0-.09,0Z"/><path class="cls-6" d="M92.41,50a.54.54,0,0,0,.69,0s0-.08,0-.06h-.58a.06.06,0,1,0-.06.1Z"/><path class="cls-6" d="M86.14,46.85a.69.69,0,0,0,.89-.11,0,0,0,0,0-.06-.07.83.83,0,0,1-.78.08.06.06,0,0,0,0,.1Z"/><path class="cls-6" d="M86.65,47.65a3.6,3.6,0,0,0,.66.06,0,0,0,0,0,0-.08,3.42,3.42,0,0,0-.62-.13c-.1,0-.14.14,0,.15Z"/><path class="cls-6" d="M87.31,48.86a3,3,0,0,0,.52,0c.07,0,.07-.09,0-.1a4.51,4.51,0,0,0-.52,0,.06.06,0,1,0,0,.12Z"/><path class="cls-6" d="M86.29,59.82A27.46,27.46,0,0,0,88,56.88a0,0,0,0,0-.08,0,24.89,24.89,0,0,0-1.69,2.92.06.06,0,0,0,.1.06Z"/><path class="cls-6" d="M87.35,59.09a4.39,4.39,0,0,0,.75-2,.06.06,0,0,0-.11,0,6.73,6.73,0,0,1-.72,2c0,.05,0,.09.08,0Z"/><path class="cls-6" d="M88.62,58.67a17,17,0,0,0,.41-2s-.07,0-.08,0a19,19,0,0,0-.43,2c0,.06.09.09.1,0Z"/><path class="cls-6" d="M88.93,58.56c.11-.38.23-.76.32-1.15,0-.07-.09-.1-.11,0-.12.38-.21.77-.31,1.15a.05.05,0,0,0,.1,0Z"/><path class="cls-6" d="M89.61,57.62a0,0,0,1,0,0,0s0,0,0,0Z"/><path class="cls-6" d="M90,58.14c.07-.2.14-.41.2-.63,0-.06-.08-.09-.1,0a6.5,6.5,0,0,0-.22.62c0,.08.09.11.12,0Z"/><path class="cls-6" d="M90.73,58.57c.07-.36.14-.71.19-1.07a0,0,0,0,0-.09,0c-.1.34-.16.69-.23,1,0,.08.11.12.13,0Z"/><path class="cls-6" d="M92.15,58.32a4.79,4.79,0,0,1-1.28-2.52c0-.07-.12,0-.12,0a3.61,3.61,0,0,0,1.3,2.6.07.07,0,0,0,.1-.1Z"/><path class="cls-6" d="M93,59a26.5,26.5,0,0,0-.82-2.62.06.06,0,0,0-.11,0A26.43,26.43,0,0,0,92.9,59,0,0,0,1,0,93,59Z"/><path class="cls-6" d="M93.57,59a25.49,25.49,0,0,0-1-2.35s-.1,0-.08,0a25.38,25.38,0,0,0,.94,2.37c0,.08.18,0,.14-.06Z"/><path class="cls-6" d="M94,59.15a4.52,4.52,0,0,0-1.32-2.51s-.09,0-.07,0a10.26,10.26,0,0,1,1.34,2.48s.06,0,0,0Z"/><path class="cls-6" d="M94.39,58.83c-.55-.85-1.06-1.74-1.69-2.53,0-.06-.14,0-.1.08.49.88,1.1,1.69,1.67,2.51,0,.07.16,0,.12-.06Z"/><path class="cls-6" d="M92.41,58.74a23.13,23.13,0,0,0-.64-2.83c0-.07-.12,0-.11,0a21,21,0,0,0,.66,2.82,0,0,0,1,0,.09,0Z"/><path class="cls-6" d="M91.26,58.55A21.14,21.14,0,0,0,90.78,56c0-.06-.11-.05-.1,0a19.88,19.88,0,0,0,.51,2.53s.08,0,.07,0Z"/><path class="cls-6" d="M90.39,58.44a14.69,14.69,0,0,0,0-2.2s-.06,0-.07,0a14.69,14.69,0,0,0,0,2.2c0,.05.07.05.08,0Z"/><path class="cls-6" d="M89.4,58.45a30.36,30.36,0,0,0,.36-3.15s-.07,0-.08,0a30.32,30.32,0,0,0-.34,3.15,0,0,0,0,0,.06,0Z"/><path class="cls-6" d="M87.67,58.48a5.21,5.21,0,0,0,1.12-3.08,0,0,0,0,0-.05,0,9.21,9.21,0,0,1-1.12,3s0,.07,0,0Z"/><path class="cls-6" d="M86.67,59.18a15.08,15.08,0,0,0,1.52-3.73,0,0,0,0,0-.06,0c-.61,1.17-1,2.5-1.53,3.7,0,0,.05.09.07,0Z"/><path class="cls-6" d="M87.69,58.88c.47-1.21,1-2.42,1.37-3.66,0,0,0-.06-.06,0-.52,1.2-.94,2.44-1.39,3.67,0,0,.06.07.08,0Z"/><path class="cls-6" d="M89.7,58.34c.06-1.22.15-2.45.09-3.67,0-.07-.1-.07-.11,0-.1,1.21-.06,2.45-.05,3.67,0,0,.07,0,.07,0Z"/><path class="cls-6" d="M91.63,58.12a31.77,31.77,0,0,0-1.13-3.46c0-.07-.14,0-.12,0a31.88,31.88,0,0,0,1.15,3.46c0,.06.12,0,.1,0Z"/><path class="cls-6" d="M91.87,57.17c-.14-.66-.26-1.33-.44-2,0,0-.07,0-.06,0,.09.67.25,1.34.39,2,0,.07.12,0,.11,0Z"/><path class="cls-6" d="M121.52,13.8c-11.93,6.78-9,22.24-8.47,33.55.34,7.67-1,15.12-6.06,21.12-4.93,5.81-11.94,8.6-19.44,8.82a.22.22,0,0,0,0,.44c12.77.36,23.77-9.44,25.62-21.91,2-13.22-6.16-33.36,8.47-41.81a.12.12,0,1,0-.12-.21Z"/><path class="cls-6" d="M87.47,76.94c3.22,4,5.38,8.21,5.84,13.42,0,.27.45.27.42,0-.44-5-2.4-10.09-6.12-13.56-.09-.09-.22,0-.14.14Z"/><path class="cls-6" d="M94.19,90.81C99.85,74.28,120.31,70,126.93,54a54.88,54.88,0,0,0,3.52-25.28c-.41-4-3.1-17.38-9.6-14.81-.27.11-.15.56.13.45,5-2,7.67,7.39,8.42,10.75A39.47,39.47,0,0,1,130,36.78c-.66,8.39-2.14,17.1-7.48,23.89C114,71.52,98.2,76.6,94,90.75c0,.14.17.19.21.06Z"/><path class="cls-6" d="M114.88,21.65c2.5-1.14,3.49,2,2.66,3.84a2.64,2.64,0,0,1-2.07,1.66,2,2,0,0,1-2.11-1.46c0-.22-.39-.13-.34.09a2.3,2.3,0,0,0,2.45,1.68,3,3,0,0,0,2.34-1.88,3.61,3.61,0,0,0-.23-3.53,1.91,1.91,0,0,0-2.74-.45s0,.06,0,0Z"/><path class="cls-6" d="M129.38,22.42a2.71,2.71,0,0,0-3.13-.28A2.75,2.75,0,0,0,124.89,25a2.87,2.87,0,0,0,5.29,1c.11-.18-.18-.35-.3-.17a2.55,2.55,0,0,1-4.7-.88,2.45,2.45,0,0,1,1.2-2.59,3.15,3.15,0,0,1,3,.12s.08,0,0-.06Z"/><path class="cls-6" d="M128.68,22.88A30.82,30.82,0,0,0,126.85,26a.16.16,0,0,0,.28.17A35.67,35.67,0,0,0,128.8,23c0-.08-.07-.15-.12-.07Z"/><path class="cls-6" d="M126.78,23.63a11.82,11.82,0,0,0,2.36,1.63c.16.07.36-.12.21-.26a11.63,11.63,0,0,0-2.42-1.56c-.12-.07-.26.1-.15.19Z"/><path class="cls-6" d="M116.3,22.85c-1,.63-2,1.27-2.88,2-.13.1,0,.34.14.24,1-.64,1.9-1.36,2.82-2.07.08-.06,0-.21-.08-.15Z"/><path class="cls-6" d="M114.53,23.41a5.28,5.28,0,0,0,.76,1.81c.1.12.26,0,.24-.14a5.29,5.29,0,0,0-.86-1.73c0-.06-.16,0-.14.06Z"/><path class="cls-6" d="M116.48,20.69a1.72,1.72,0,0,1,1.8,1.17.07.07,0,0,0,.13,0,1.56,1.56,0,0,0-1.94-1.2s0,.07,0,.06Z"/><path class="cls-6" d="M113.49,28a4.34,4.34,0,0,0,3.19-.14c.07,0,0-.14-.05-.12a7.43,7.43,0,0,1-3.11.18c-.06,0-.08.06,0,.08Z"/><path class="cls-6" d="M119,24.33a4.22,4.22,0,0,1-.76,1.87s0,.08.06.05a3.56,3.56,0,0,0,.81-1.92c0-.06-.1-.06-.11,0Z"/><path class="cls-6" d="M127.19,21.3a2,2,0,0,0-2.11.62s0,.12.07.07a2.26,2.26,0,0,1,2-.55c.1,0,.14-.12,0-.14Z"/><path class="cls-6" d="M124.8,22.42a2.42,2.42,0,0,0-.39,2.91s.09,0,.07,0a2.68,2.68,0,0,1,.38-2.82,0,0,0,0,0-.06-.06Z"/><path class="cls-6" d="M125.42,27.69a3.63,3.63,0,0,0,2.87.14s0-.09,0-.08a5.36,5.36,0,0,1-2.81-.14s-.08.06,0,.08Z"/><path class="cls-6" d="M112.05,30.08a5.74,5.74,0,0,0,6.51-1.48c0-.07,0-.19-.11-.13A7.76,7.76,0,0,1,112.08,30s-.07,0,0,.07Z"/><path class="cls-6" d="M119.66,28.3a2,2,0,0,1,2.14,0c.09.06.16-.08.08-.14a1.92,1.92,0,0,0-2.31,0c-.06.05,0,.14.09.1Z"/><path class="cls-6" d="M124.55,29a6.7,6.7,0,0,0,5,2.34.13.13,0,0,0,0-.25,20.82,20.82,0,0,1-2.73-.82c-.78-.37-1.43-.92-2.18-1.35,0,0-.11,0-.08.08Z"/><path class="cls-6" d="M111.72,60.71a10.47,10.47,0,0,0,1.25,1,.08.08,0,0,0,.1-.12,12.17,12.17,0,0,0-1.29-.94s-.11.05-.06.09Z"/><path class="cls-6" d="M110.61,63a1.44,1.44,0,0,0,.84,1.47.07.07,0,0,0,.06-.11,1.76,1.76,0,0,1-.8-1.36.05.05,0,0,0-.1,0Z"/><path class="cls-6" d="M109.55,65.36a1.37,1.37,0,0,0,.62,1.67c.06,0,.1-.06.06-.11-.42-.46-.75-.86-.57-1.53,0-.07-.09-.1-.11,0Z"/><path class="cls-6" d="M108.53,67.31a9.14,9.14,0,0,0,.64,1.09c0,.06.16,0,.13-.05a7.67,7.67,0,0,0-.63-1.12.08.08,0,0,0-.14.08Z"/><path class="cls-6" d="M107.3,68.35a13.42,13.42,0,0,0,.17,1.9.05.05,0,0,0,.1,0,14.89,14.89,0,0,0-.15-1.89c0-.07-.13-.08-.12,0Z"/><path class="cls-6" d="M105.92,69.91a12.36,12.36,0,0,0-.32,1.9,0,0,0,0,0,.09,0,13.44,13.44,0,0,0,.31-1.9s-.07,0-.08,0Z"/><path class="cls-6" d="M104.65,71.44a1.33,1.33,0,0,0-.48,1.33.07.07,0,0,0,.13,0,1.34,1.34,0,0,1,.45-1.21c.07-.06,0-.16-.1-.1Z"/><path class="cls-6" d="M102.77,72.74c-.17.52-.35,1-.47,1.57,0,.06.07.08.09,0,.19-.52.33-1,.47-1.58,0-.05-.07-.07-.09,0Z"/><path class="cls-6" d="M101.45,74.14c0,.32-.11.64-.14,1,0,.07.11.09.12,0,.07-.32.1-.64.14-1,0-.07-.11-.08-.12,0Z"/><path class="cls-6" d="M99.8,75.44a7.27,7.27,0,0,0,.18.93,0,0,0,0,0,.07,0,6.27,6.27,0,0,0-.11-1,.07.07,0,1,0-.14,0Z"/><path class="cls-6" d="M98.68,75.58a9.75,9.75,0,0,0,0,1.43s.09,0,.09,0a8.54,8.54,0,0,0,0-1.43c0-.06-.1-.07-.1,0Z"/><path class="cls-6" d="M98,76a1.15,1.15,0,0,0,0,1.16s.14,0,.11,0a1.24,1.24,0,0,1,0-1c0-.08-.08-.15-.12-.07Z"/><path class="cls-6" d="M97,76.54A15,15,0,0,0,97.59,78c0,.05.1,0,.08,0A12.16,12.16,0,0,0,97,76.5s-.11,0-.09,0Z"/><path class="cls-6" d="M120.72,48.12a6.29,6.29,0,0,0,1.9.34c.07,0,.12-.11,0-.14a6.53,6.53,0,0,0-1.92-.3c-.06,0-.07.09,0,.1Z"/><path class="cls-6" d="M120.85,49.2a8.65,8.65,0,0,0,1.14.13.13.13,0,0,0,0-.26,9.53,9.53,0,0,0-1.09-.19c-.2,0-.29.29-.08.32Z"/><path class="cls-6" d="M120.74,49.78a.88.88,0,0,0,1.14.25c.09-.05.06-.21,0-.2a1.12,1.12,0,0,1-1-.19.1.1,0,0,0-.14.14Z"/><path class="cls-6" d="M121,50.58l.41.11v-.2c-.28.09-.57.16-.85.23a.06.06,0,0,0,0,.11l.41.49c.09.12.29-.07.17-.17s-.33-.27-.49-.41l0,.11c.28-.05.56-.12.84-.15.12,0,.15-.17,0-.21l-.4-.13a.11.11,0,1,0-.06.22Z"/><path class="cls-6" d="M121.15,50.85a7.31,7.31,0,0,0,.65.43.09.09,0,0,0,.11-.15,7.57,7.57,0,0,0-.6-.5.14.14,0,1,0-.16.22Z"/><path class="cls-6" d="M120.24,52a4.27,4.27,0,0,0,1.12.16.09.09,0,0,0,0-.18,4.19,4.19,0,0,0-1.12-.14.08.08,0,0,0,0,.16Z"/><path class="cls-6" d="M120.42,52.8a0,0,0,1,0,0,0,0,0,0,0,0,0,0Z"/><path class="cls-6" d="M119.85,53.63a.85.85,0,0,0,1.09.33c.08,0,0-.2,0-.18a.94.94,0,0,1-.89-.26c-.07-.08-.21,0-.15.11Z"/><path class="cls-6" d="M120,54.42a1.39,1.39,0,0,1,.2,1.19c0,.07.08.11.11,0a1.05,1.05,0,0,0-.2-1.33c0-.06-.16,0-.11.09Z"/><path class="cls-6" d="M117.86,58.34c.3.24.6.48.91.7.14.1.28-.13.13-.22-.32-.2-.65-.38-1-.57,0,0-.12,0-.06.09Z"/><path class="cls-6" d="M117.62,59.52a3,3,0,0,0,.53.47.15.15,0,0,0,.2-.2,3,3,0,0,0-.47-.53.18.18,0,0,0-.26.26Z"/><path class="cls-6" d="M117.3,59.75a2.55,2.55,0,0,0,.33.8.09.09,0,0,0,.17-.07,2.71,2.71,0,0,0-.35-.8c0-.08-.18,0-.15.07Z"/><path class="cls-6" d="M116.81,60.82s0,0,0,0a0,0,0,0,0,0,0Z"/><path class="cls-6" d="M116.39,61a1.75,1.75,0,0,0,.35.47s.14,0,.11-.07a1.87,1.87,0,0,0-.32-.52c-.07-.08-.19,0-.14.12Z"/><path class="cls-6" d="M116.21,61.25c0,.26-.14.51-.18.77s.2.23.24.07.06-.53.11-.8a.09.09,0,0,0-.17,0Z"/><path class="cls-6" d="M115.76,62.12a1.34,1.34,0,0,0,.22.31c0,.06.15,0,.13-.08A1.09,1.09,0,0,0,116,62c-.07-.15-.31,0-.23.13Z"/><path class="cls-6" d="M115.26,62.41a2.08,2.08,0,0,0,.17.65.1.1,0,0,0,.19-.05,1.88,1.88,0,0,0-.16-.65.1.1,0,1,0-.2,0Z"/><path class="cls-6" d="M115.14,63a1.65,1.65,0,0,0,0,.48.12.12,0,0,0,.24,0,1.33,1.33,0,0,0,0-.48.1.1,0,0,0-.19,0Z"/><path class="cls-6" d="M115,63.43c-.07.17-.07.17-.13.34a.06.06,0,0,0,.11,0,1.32,1.32,0,0,0,.19-.29c.06-.12-.12-.22-.17-.1Z"/><path class="cls-6" d="M114.79,63.6a3.65,3.65,0,0,0-.12.66c0,.09.14.13.17,0a4.79,4.79,0,0,0,.21-.64.13.13,0,0,0-.26-.07Z"/><path class="cls-6" d="M121.89,43.29c.31-.16.64-.29.94-.48.06,0,0-.16-.06-.13a9.55,9.55,0,0,0-1,.48c-.09,0,0,.17.08.13Z"/><path class="cls-6" d="M122,42.65a5.85,5.85,0,0,0,.48-.34c.07-.06,0-.17-.1-.12a4.66,4.66,0,0,0-.47.3c-.11.06,0,.23.09.16Z"/><path class="cls-6" d="M121.7,42.3a10.75,10.75,0,0,0,1-.63c.08-.07,0-.18-.11-.14-.33.18-.63.41-.94.62-.09.06,0,.2.08.15Z"/><path class="cls-6" d="M122.15,41.17a0,0,0,0,0,0,0,0,0,0,0,0,0,0Z"/><path class="cls-6" d="M121.88,40.91a5.5,5.5,0,0,0,1.26-.8.08.08,0,0,0-.07-.13,6.31,6.31,0,0,0-1.28.79.08.08,0,0,0,.09.14Z"/><path class="cls-6" d="M122.17,40.26a3.32,3.32,0,0,0,.82-.81c.05-.07,0-.17-.12-.12a3.32,3.32,0,0,0-.81.82.08.08,0,0,0,.11.11Z"/><path class="cls-6" d="M122.62,39.12s0,0,0,0,0,0,0,0Z"/><path class="cls-6" d="M122.53,38.87a4.32,4.32,0,0,0,.78-.82.07.07,0,0,0-.1-.1,4.32,4.32,0,0,0-.82.78.1.1,0,0,0,.14.14Z"/><path class="cls-6" d="M122.34,38.39a4.66,4.66,0,0,0,1-.79.08.08,0,0,0-.1-.13,4.29,4.29,0,0,0-.95.8c-.06.06,0,.17.08.12Z"/><path class="cls-6" d="M123.12,37.09l.15-.16a0,0,0,0,0,0,0l-.16.16s0,.07.05,0Z"/><path class="cls-6" d="M122.86,37a5.56,5.56,0,0,0,.9-1.16s0-.09-.06-.06a5.59,5.59,0,0,0-1,1.06c-.09.11.06.26.16.16Z"/><path class="cls-6" d="M123.09,35.67a0,0,0,0,0,0,0s0,0,0,0Z"/><path class="cls-6" d="M123,35.27a7.68,7.68,0,0,0,.77-.64c.08-.07,0-.21-.11-.15a10,10,0,0,0-.82.64c-.11.09,0,.24.16.15Z"/><path class="cls-6" d="M122.36,34.92a6.46,6.46,0,0,0,.78-.79c.06-.07,0-.16-.1-.1a8.3,8.3,0,0,0-.79.78c-.06.07,0,.18.11.11Z"/><path class="cls-6" d="M122.66,34l.46-.48a0,0,0,0,0-.06-.06l-.48.46s0,.14.08.08Z"/><path class="cls-6" d="M122.15,33.62a6.3,6.3,0,0,0,.65-.8c0-.06-.06-.14-.12-.08a5.35,5.35,0,0,0-.62.8c0,.06,0,.12.09.08Z"/><path class="cls-6" d="M122,33.47a3.63,3.63,0,0,1,1.75-2.11c.14-.07,0-.29-.13-.21a3.81,3.81,0,0,0-1.74,2.28c0,.08.1.12.12,0Z"/><path class="cls-6" d="M122.7,31.8a2,2,0,0,0,.29-.36c0-.05,0-.13-.09-.09a2.52,2.52,0,0,0-.35.3c-.1.09,0,.25.15.15Z"/><path class="cls-6" d="M122.3,32.36a2.68,2.68,0,0,0,.63,0,0,0,0,0,0,0-.09,3.56,3.56,0,0,0-.65,0c-.06,0-.06.08,0,.09Z"/><path class="cls-6" d="M122.15,34.61a2.81,2.81,0,0,0,.81-.19.05.05,0,0,0,0-.1,2.46,2.46,0,0,0-.8.15c-.08,0-.07.15,0,.14Z"/><path class="cls-6" d="M122.62,35.35s0,0,0,0,0,0,0,0Z"/><path class="cls-6" d="M122.48,36.19a6.85,6.85,0,0,0,.79-.13.08.08,0,0,0,0-.15,7.31,7.31,0,0,0-.78.18c-.07,0,0,.11,0,.1Z"/><path class="cls-6" d="M122.48,37a5.73,5.73,0,0,0,1.27-.48c.07,0,0-.12,0-.11a5.81,5.81,0,0,0-1.28.48c-.06,0,0,.13,0,.11Z"/><path class="cls-6" d="M122.65,37.75a2.16,2.16,0,0,0,.3-.18s0-.11,0-.09l-.34.14c-.09,0,0,.18.07.13Z"/><path class="cls-6" d="M121.88,38.87a5.55,5.55,0,0,0,.94-.48c.06,0,0-.16-.06-.13a5.36,5.36,0,0,0-1,.46.09.09,0,0,0,.09.15Z"/><path class="cls-6" d="M122.16,39.33a5.59,5.59,0,0,0,1.12-.49.08.08,0,0,0-.06-.14,5.53,5.53,0,0,0-1.12.47c-.09,0,0,.19.06.16Z"/><path class="cls-6" d="M122.31,40.85s0,0,0,0,0,0,0,0Z"/><path class="cls-6" d="M122.18,41.89a1.68,1.68,0,0,0,.48-.2s0-.11,0-.1a1.59,1.59,0,0,0-.47.14c-.1,0-.06.2,0,.16Z"/><path class="cls-6" d="M121.56,43.1a9.87,9.87,0,0,0,1-.64c.06-.05,0-.14-.08-.11a9.63,9.63,0,0,0-.94.63c-.07.05,0,.17.07.12Z"/><path class="cls-6" d="M121.36,43.53a0,0,0,0,0,0,0s0,0,0,0Z"/><path class="cls-6" d="M120.71,49.16a9.4,9.4,0,0,0,1.9.3.08.08,0,0,0,0-.15,8.72,8.72,0,0,0-1.91-.28c-.07,0-.09.11,0,.13Z"/><path class="cls-6" d="M121.3,49.75A2.48,2.48,0,0,0,122,50a.07.07,0,0,0,.06-.11,2.72,2.72,0,0,0-.61-.38c-.15-.07-.28.15-.13.22Z"/><path class="cls-6" d="M120.79,50.27a1.07,1.07,0,0,0,.72,1,.07.07,0,0,0,.07-.12,1.63,1.63,0,0,1-.63-.89c0-.09-.18-.07-.16,0Z"/><path class="cls-6" d="M120.32,51.37a.57.57,0,0,0,.75.56.11.11,0,0,0,0-.21.53.53,0,0,1-.56-.37c0-.08-.16-.07-.16,0Z"/><path class="cls-6" d="M120.18,52.45a3.66,3.66,0,0,0,.68.29c.09,0,.18-.1.1-.17a5,5,0,0,0-.63-.37c-.17-.08-.31.17-.15.25Z"/><path class="cls-6" d="M120.33,53.09a4.69,4.69,0,0,0,.67.42c.09,0,.21-.08.12-.16a3.79,3.79,0,0,0-.67-.46c-.13-.08-.24.11-.12.2Z"/><path class="cls-6" d="M119.79,53.59a0,0,0,0,0,0,0s0,0,0,0Z"/><path class="cls-6" d="M119.1,54.31a4.12,4.12,0,0,0,.65.44.1.1,0,0,0,.12-.16,5.27,5.27,0,0,0-.63-.52c-.14-.1-.28.13-.14.24Z"/><path class="cls-6" d="M119.1,54.81c-.08.35.18.75.56.59a.11.11,0,0,0,0-.22c-.26,0-.39-.1-.38-.35,0-.08-.13-.1-.15,0Z"/><path class="cls-6" d="M119,55.63s0,0,0,0a0,0,0,0,0,0,0Z"/><path class="cls-6" d="M119.09,56.38A4.53,4.53,0,0,0,119,57a.05.05,0,0,0,.1,0q.1-.31.18-.63a.08.08,0,0,0-.15,0Z"/><path class="cls-6" d="M117.73,59.07a1.51,1.51,0,0,1,.88.56c.06.07.2,0,.16-.1a.84.84,0,0,0-1-.53s0,.06,0,.07Z"/><path class="cls-6" d="M117.51,59.32a3.52,3.52,0,0,0,.35.31c.07.06.19-.06.13-.13a3.52,3.52,0,0,0-.31-.35.12.12,0,1,0-.17.17Z"/><path class="cls-6" d="M117,59.57a1.77,1.77,0,0,0,.16.34c.06.1.19,0,.15-.09a1.34,1.34,0,0,0-.17-.31c0-.07-.18,0-.14.06Z"/><path class="cls-6" d="M116.43,60.44a6.76,6.76,0,0,0,.67.29c.1,0,.14-.1.06-.16a4.53,4.53,0,0,0-.61-.34c-.14-.08-.26.14-.12.21Z"/><path class="cls-6" d="M116.2,60.89a10,10,0,0,0,.63,1c.09.11.24,0,.18-.14a7.3,7.3,0,0,0-.61-.95c-.08-.13-.29,0-.2.12Z"/><path class="cls-6" d="M116,61.17a3.74,3.74,0,0,0,.33.8.1.1,0,0,0,.19-.07,3.42,3.42,0,0,0-.35-.81.1.1,0,0,0-.17.08Z"/><path class="cls-6" d="M115.66,61.75v.15a0,0,0,1,0,.09,0v-.15a0,0,0,1,0-.09,0Z"/><path class="cls-6" d="M115.11,61.94a6,6,0,0,0,.35,1s.1,0,.09,0a6.54,6.54,0,0,0-.3-1,.07.07,0,0,0-.14,0Z"/><path class="cls-6" d="M114.48,62.41a5.33,5.33,0,0,0,.32,1.12c0,.06.14,0,.14,0a6.23,6.23,0,0,0-.32-1.12c0-.09-.17,0-.14,0Z"/><path class="cls-6" d="M114.51,63.63c0,.21,0,.42,0,.63a.06.06,0,0,0,.11,0c0-.21,0-.42,0-.63s-.19-.11-.19,0Z"/><path class="cls-6" d="M113.84,64.3a7.27,7.27,0,0,0,.18.93.09.09,0,0,0,.18,0,6.3,6.3,0,0,0-.14-1c0-.15-.24-.08-.22.06Z"/><path class="cls-6" d="M114.13,64.9s0,0,0,0,0,0,0,0Z"/><path class="cls-6" d="M109.52,70.55a7.25,7.25,0,0,0,.28,1.6c0,.09.19.08.18,0a7.69,7.69,0,0,0-.35-1.58.06.06,0,0,0-.11,0Z"/><path class="cls-6" d="M107.63,72.66a.8.8,0,0,1,.17,1c0,.07.06.12.11.06a.84.84,0,0,0-.18-1.17c-.07-.06-.18,0-.1.1Z"/><path class="cls-6" d="M106.09,73.23c0,.32.1.63.16.94,0,.06.1,0,.09,0,0-.32-.08-.63-.14-1,0-.07-.13,0-.11,0Z"/><path class="cls-6" d="M104.8,74.05a2.14,2.14,0,0,1,.19,1.68c0,.06.07.1.1,0a1.8,1.8,0,0,0-.19-1.8c0-.06-.15,0-.1.07Z"/><path class="cls-6" d="M104.15,75.47a1.13,1.13,0,0,1,0,1c0,.06,0,.08.08,0a1,1,0,0,0,0-1.17c0-.1-.21,0-.15.09Z"/><path class="cls-6" d="M102.93,75.73A9,9,0,0,0,103.1,77a.06.06,0,0,0,.11,0,7.83,7.83,0,0,0-.14-1.27c0-.08-.15-.07-.14,0Z"/><path class="cls-6" d="M101.94,77c0,.27-.1.54-.12.81,0,.06.08.06.1,0a6.66,6.66,0,0,0,.19-.77c0-.11-.15-.16-.17,0Z"/><path class="cls-6" d="M100.87,77.15c.06.48.08,1,.18,1.43,0,.08.13.06.13,0,0-.47-.09-.94-.14-1.41,0-.11-.18-.11-.17,0Z"/><path class="cls-6" d="M100.4,79v.47a0,0,0,1,0,.09,0V79a.06.06,0,0,0-.11,0Z"/><path class="cls-6" d="M99.61,79c0,.26,0,.52,0,.78a.06.06,0,1,0,.12,0q0-.39,0-.78a.06.06,0,1,0-.12,0Z"/><path class="cls-6" d="M99.3,79.67c0,.37,0,.73,0,1.1a.05.05,0,1,0,.1,0c0-.37,0-.73,0-1.1a.08.08,0,1,0-.16,0Z"/><path class="cls-6" d="M112.07,69a.66.66,0,0,1,.28,1.21s0,.1.07.08a.74.74,0,0,0-.33-1.41c-.07,0-.09.11,0,.12Z"/><path class="cls-6" d="M113.25,68.06a4.51,4.51,0,0,0,.35,1c0,.08.14,0,.13-.05a4.53,4.53,0,0,0-.29-.95c0-.11-.22-.07-.19,0Z"/><path class="cls-6" d="M114.84,67.09a7.81,7.81,0,0,0,0,1.28.07.07,0,0,0,.14,0,6.84,6.84,0,0,0,0-1.28.08.08,0,0,0-.15,0Z"/><path class="cls-6" d="M116.18,67.42s0,0,0,0a0,0,0,1,0,0,0Z"/><path class="cls-6" d="M94.17,27.24a.07.07,0,0,0,0-.15.07.07,0,1,0,0,.15Z"/><path class="cls-6" d="M94.32,27.16a120.32,120.32,0,0,0,18.4-.75.08.08,0,0,0,0-.16,119.11,119.11,0,0,0-18.4.74.09.09,0,0,0,0,.17Z"/><path class="cls-6" d="M95,28.52a62.07,62.07,0,0,0,8.73-.08c2.9-.09,5.81-.16,8.72-.29.23,0,.23-.36,0-.35-3.07.05-6.14.17-9.21.26A58.12,58.12,0,0,0,95,28.5s0,0,0,0Z"/><path class="cls-6" d="M130.32,26.06a51.48,51.48,0,0,0,9.12-.27.11.11,0,0,0,0-.22,51.5,51.5,0,0,0-9.12.3.1.1,0,0,0,0,.19Z"/><path class="cls-6" d="M130.17,27.52a53.55,53.55,0,0,0,9.12-.37.13.13,0,0,0,0-.25,54.78,54.78,0,0,0-9.14.52c-.06,0,0,.1,0,.1Z"/><path class="cls-6" d="M63.37,29.23l-.47.16s0,0,0,0l.47-.16s0,0,0,0Z"/><path class="cls-6" d="M63.77,29.18A10.67,10.67,0,0,0,62,25c-.32-.48-1.09-1.81-1.91-1.52-.65.23-.44.91-.25,1.39.73,1.87,1.81,3.69,2.7,5.5.1.19.39,0,.29-.18l-1.35-2.75C61.26,27,61,26.5,60.81,26l-.45-.92c-.58-.75-.48-1,.3-.62.77.16.85.4,1.25,1,.23.36.44.74.64,1.13.43.82.79,1.69,1.16,2.54a0,0,0,0,0,.06,0Z"/><path class="cls-6" d="M63.4,28c.3-.63.55-1.29.79-1.95.17-.47.48-2.05,1.11-2,.89.05.53,1.25.3,1.68-.12.22-.28.42-.42.63a2.51,2.51,0,0,0-.49,1.46.14.14,0,0,0,.27,0c0-1.15,1.16-1.8,1.22-2.91a1.06,1.06,0,0,0-.72-1.12c-.6-.2-.82.16-1,.66a33.64,33.64,0,0,0-1.18,3.51c0,.06.08.11.12.05Z"/><path class="cls-6" d="M64.35,28.87c-.18.67-.37,1.34-.51,2,0,.16.22.24.26.07.15-.69.26-1.38.37-2.07a.06.06,0,0,0-.12,0Z"/><path class="cls-6" d="M84.42,26.61c-7-.07-14.35,0-21.38.56a.14.14,0,0,0,0,.28c7.05.19,14.35-.2,21.38-.68a.08.08,0,1,0,0-.16Z"/><path class="cls-6" d="M83.79,28.43H84s0,0,0,0h-.16s0,0,0,0Z"/><path class="cls-6" d="M84,28.53C77.13,28,70.2,28.14,63.36,28c-.22,0-.22.34,0,.34,6.84.14,13.75.57,20.59.35a.07.07,0,0,0,0-.14Z"/><polygon class="cls-6" points="138.5 28.9 138.5 28.89 138.5 28.9 138.5 28.9"/><path class="cls-6" d="M138.49,28.88l-.18.13c-.08,0,0,.15.08.07l.12-.18s0,0,0,0Z"/><path class="cls-6" d="M138.39,29.24c.35-.8.66-1.61,1-2.43.15-.4.3-.81.44-1.21l.27-.73c.05-.71.39-.86,1-.46.89,0,1,.29.4,1l-.23.52c-.23.51-.46,1-.68,1.54-.46,1-.92,2.05-1.37,3.08-.07.15.15.28.21.13.84-1.88,1.77-3.74,2.51-5.65.23-.59.52-1.43-.22-1.78s-1.45.36-1.75,1a29.55,29.55,0,0,0-1.68,5c0,.07.1.12.13,0Z"/><path class="cls-6" d="M138.43,29.32a8.39,8.39,0,0,0-1.21-1.92c-.1-.16-.36,0-.25.14a8.6,8.6,0,0,0,1.39,1.82s.09,0,.07,0Z"/><path class="cls-6" d="M136.23,25.92A1.44,1.44,0,0,0,134,24.87a.13.13,0,0,0,0,.2,5.3,5.3,0,0,0,.65.77.09.09,0,0,0,.14-.11,5.85,5.85,0,0,0-.6-.81l0,.17a1.36,1.36,0,0,1,2,.84.05.05,0,0,0,.1,0Z"/><path class="cls-6" d="M135.51,27.94a9,9,0,0,0,1.22,1.54,13.2,13.2,0,0,0,1.45,1.63c.07.06.18,0,.13-.1A13.7,13.7,0,0,0,137,29.4a9.69,9.69,0,0,0-1.42-1.51s-.06,0-.05.05Z"/><path class="cls-6" d="M62.71,30.46c.31,20.6,1,41.4,3.06,61.91a.16.16,0,0,0,.32,0l.32-.8c0-.08-.1-.13-.14-.06s-.43-2.77-.46-3.11c-.1-1.31-.19-2.62-.29-3.93q-.27-3.93-.53-7.85-.49-7.62-.88-15.23c-.53-10.33-.93-20.65-1.27-31a.07.07,0,1,0-.13,0Z"/><path class="cls-6" d="M64.21,29.84c-.08,20.61.91,41.24,2.72,61.77a.22.22,0,0,0,.11.18l.66.3c.1,0,.23-.09.13-.17-.94-.77-.74-3.14-.83-4.22l-.33-3.91c-.21-2.61-.41-5.23-.59-7.84q-.51-7.59-.89-15.19c-.49-10.3-.73-20.61-.83-30.92a.07.07,0,0,0-.15,0Z"/><path class="cls-6" d="M138.5,30.93c.15,20.33.51,40.66.58,61a.22.22,0,0,0,.44,0c-.06-20.33-.18-40.68-.84-61a.09.09,0,1,0-.18,0Z"/><path class="cls-6" d="M139.72,30.15c-.37,9.5,0,19.11.2,28.61a.18.18,0,0,0,.36,0c-.05-9.5.1-19.12-.5-28.61,0,0-.06,0-.06,0Z"/><path class="cls-6" d="M140.28,59.12a2.92,2.92,0,0,1,.95-1.42,1,1,0,0,1,1-.05c.46.28.34.81,0,1.14-.55.54-1.79.74-1.77,1.7a.11.11,0,0,0,.22,0c.33-.91,1.35-1,1.88-1.73a.89.89,0,0,0-.05-1.22,1.23,1.23,0,0,0-1.28-.12,2.51,2.51,0,0,0-1,1.63c0,.05,0,.08.07,0Z"/><path class="cls-6" d="M140.33,60.33c-.26,10.45-.3,21,0,31.44a.15.15,0,0,0,.29,0c.24-10.44.17-21-.13-31.44a.08.08,0,0,0-.15,0Z"/><path class="cls-6" d="M138.13,92a2.53,2.53,0,0,0,2.47.15c.13-.07,0-.25-.1-.22a5.61,5.61,0,0,1-1.16.18,3.47,3.47,0,0,1-1.14-.28c-.1,0-.16.11-.07.17Z"/><path class="cls-6" d="M138.48,92.31a5.58,5.58,0,0,0,3.83-.47.09.09,0,0,0-.07-.16,12.51,12.51,0,0,1-3.75.54,0,0,0,0,0,0,.09Z"/><path class="cls-6" d="M139.46,92.48c.48-.15.95-.31,1.41-.49.07,0,0-.14,0-.12-.48.13-1,.29-1.42.45-.1,0-.06.2,0,.16Z"/><path class="cls-6" d="M138.19,92.34a14.44,14.44,0,0,0,1.74-.17.07.07,0,0,0,0-.13,12.48,12.48,0,0,0-1.72.15.08.08,0,1,0,0,.15Z"/><path class="cls-6" d="M137.89,92.15c.31-.05.63-.08.94-.16.06,0,0-.13,0-.12a8,8,0,0,0-1,.15c-.09,0,0,.15,0,.13Z"/><path class="cls-6" d="M137.34,92a.92.92,0,0,0,1.35,0s0-.11-.06-.07a.91.91,0,0,1-1.16,0c-.09-.07-.21,0-.13.13Z"/><path class="cls-6" d="M138.34,91.94s0,0,0,0,0,0,0,0Z"/><path class="cls-6" d="M138.32,92.15a2.14,2.14,0,0,0,2.09-.18s0-.1,0-.08a2.67,2.67,0,0,1-2,.12c-.09,0-.13.11,0,.14Z"/><path class="cls-6" d="M139.9,92.3a1.52,1.52,0,0,0,1.31-.33.05.05,0,0,0-.06-.08,1.65,1.65,0,0,1-1.22.28c-.08,0-.12.12,0,.13Z"/><path class="cls-6" d="M64.75,92.32a4.78,4.78,0,0,0,3.69-.3.11.11,0,0,0-.08-.2,12.15,12.15,0,0,1-1.88.42,10.91,10.91,0,0,1-1.71-.06c-.08,0-.09.12,0,.14Z"/><path class="cls-6" d="M65.27,92.82c.52-.11,1-.21,1.56-.37.06,0,0-.11,0-.1-.54.05-1.07.16-1.6.26-.14,0-.08.23,0,.21Z"/><path class="cls-6" d="M64.43,92.67a2.84,2.84,0,0,0,2,0c.11-.05,0-.21-.08-.19a3.66,3.66,0,0,1-1.83,0c-.14,0-.2.17-.06.22Z"/><path class="cls-6" d="M64.11,92.45a2.47,2.47,0,0,0,2.29-.12c.08-.06,0-.22-.08-.18a3.4,3.4,0,0,1-2.16.19c-.07,0-.12.09,0,.11Z"/><path class="cls-6" d="M71.37,92.49a31.13,31.13,0,0,0-1.09,4.14,2.84,2.84,0,0,0,0,1.8c.61,1.31,2.71,1.2,3.77,1.89.16.11.34-.13.2-.26-.85-.8-2.19-.49-3-1.18-1.6-1.29.07-4.67.25-6.38a0,0,0,0,0-.08,0Z"/><path class="cls-6" d="M74,99.9a4.67,4.67,0,0,0,1.22-4.7,4.34,4.34,0,0,0-3.33-3.08c-.13,0-.16.17-.06.23,1.24.77,2.35,1.33,2.92,2.79a4.74,4.74,0,0,1-.83,4.68c0,.06,0,.14.08.08Z"/><path class="cls-6" d="M77.69,97.87c-1.57-.7-3,.77-3.12,2.31a4.53,4.53,0,0,0,1.07,3c.51.67,1.71,2.19,2.64,2.32.56.08.83-.25,1-.73a15.13,15.13,0,0,0,.42-4.46c0-1.67-1.24-3.72-3.15-2.77-.24.12,0,.48.21.36,1.74-.89,2.51,1.19,2.54,2.41a13.13,13.13,0,0,1-.11,1.54c-.11,1.15,0,4.19-1.77,2.59a7.25,7.25,0,0,1-2.28-2.9c-.62-1.85.44-3.77,2.52-3.57,0,0,.08-.08,0-.1Z"/><path class="cls-6" d="M81.74,101.89c-1.88.44-2.31,2.74-1.44,4.25.77,1.33,3.66,3.38,5,1.8a4.66,4.66,0,0,0,.61-3.31,4,4,0,0,0-1.55-2.75c-1.54-1.12-4.18-.51-4.19,1.68a.11.11,0,0,0,.22,0,2.4,2.4,0,0,1,4.18-1,3.9,3.9,0,0,1,1,2.52,5.89,5.89,0,0,1-.08,1.26c-.14.82-.17.78-1.06,1.23s-.81.52-1.58.21a6.77,6.77,0,0,1-.85-.43,4.18,4.18,0,0,1-1.59-1.72A2.76,2.76,0,0,1,81.77,102s0-.08,0-.07Z"/><path class="cls-6" d="M85.61,103.73c0,2.26.27,5.06,2.63,6.13a2.76,2.76,0,0,0,3.87-1.69c.4-2-1.6-4.77-3.32-5.57-1.49-.7-3.49,0-3.23,1.89a.14.14,0,0,0,.27,0c0-2.34,2.52-1.93,3.64-.95A7.88,7.88,0,0,1,90.69,105c.87,1.26,1.88,3.39.06,4.44-1.52.87-3.2-.12-4-1.46a9.9,9.9,0,0,1-1-4.24,0,0,0,1,0-.08,0Z"/><path class="cls-6" d="M92.87,105.27A2.9,2.9,0,0,0,94,109.55c1.42.74,4.23.65,5-1a1.43,1.43,0,0,0-.27-1.67,2.63,2.63,0,0,0-.92-.45A3.54,3.54,0,0,1,96,105c-1.2-1.65-2.92-.52-3.7.93-.08.15.13.33.25.19a7.83,7.83,0,0,1,.89-1.09c1-.9,2,.08,2.74.89.53.59,1.2.51,1.81.93.51.1.56.48.14,1.14.22.66.07,1.06-.46,1.19a2.93,2.93,0,0,1-1,.32,4,4,0,0,1-2.11-.18,2.84,2.84,0,0,1-1.55-4,.05.05,0,0,0-.09-.06Z"/><path class="cls-6" d="M99.9,104.75a3.15,3.15,0,0,0,.29,5c1.65,1.07,5.52,2.33,6.83.1,1.09-1.84-1.43-4.31-3.06-4.83-.68-.21-1-.06-1.63-.63-.19-.16-.28-.4-.48-.56a1.45,1.45,0,0,0-1.22-.31,1.48,1.48,0,0,0-1.12,1.68c0,.24.4.25.38,0l2-.83.22.28c.11,0,.19.21.29.28a3.43,3.43,0,0,0,1.13.38c1.62.45,5,3.34,2.5,4.94-1.38.91-3.59.17-5-.49a3,3,0,0,1-1-5,0,0,0,1,0,0-.06Z"/><path class="cls-6" d="M108.67,103.15c-1.27,1.53-2.47,3.74-.7,5.4,1.36,1.29,4,2.21,5.71,1.15,3.9-2.42-2.52-8-5.53-6.71-.22.1,0,.43.19.33,1.52-.66,3.76.84,4.85,1.84,1.55,1.42,1.84,4.11-.71,4.57a5.57,5.57,0,0,1-4.27-1.42c-1.69-1.57-.42-3.57.57-5.08,0-.06-.06-.14-.11-.08Z"/><path class="cls-6" d="M116,100.36a3.81,3.81,0,0,0-.54,4.59c.57,1,2.9,3.49,4.26,2.62.47-.3.59-1.13.73-1.61a7,7,0,0,0,.32-3.3c-.32-1.62-1.84-3.15-3.58-2.67-.17.05-.14.35,0,.33a3,3,0,0,1,3.24,3.12,7.41,7.41,0,0,1-.25,1.93c-.08.33-.18.65-.28,1,0,.54-.33.74-.92.59-1.36.19-2.64-1-3.31-2.13a3.78,3.78,0,0,1,.35-4.37c0-.05,0-.11-.07-.07Z"/><path class="cls-6" d="M119.23,95.26a5.33,5.33,0,0,0,.74,5.3c.92,1.09,2.83,1.53,3.52,0a5.68,5.68,0,0,0-.59-4.68c-1.2-1.59-3.32-.83-4.66.12-.17.12,0,.39.16.28,1.36-.83,3.26-1.65,4.37,0a5.84,5.84,0,0,1,.57,3.2,2.17,2.17,0,0,1-.46,1.38,1.85,1.85,0,0,1-1.95.1,3.35,3.35,0,0,1-1.25-1.46,6,6,0,0,1-.35-4.19.05.05,0,0,0-.1,0Z"/><path class="cls-6" d="M123,91.26c-.94,1.45-1.72,3.63,0,4.88,1.49,1.11,2.7-.12,3.2-1.53s1-4-1-4.42c-1.86-.39-3,1.63-3.42,3.11a.11.11,0,0,0,.2.08,5.55,5.55,0,0,1,1.82-2.58,1.67,1.67,0,0,1,2.47.89A4,4,0,0,1,126,94c-.39,1.32-1.42,3-2.93,1.74s-.6-3.1,0-4.46a0,0,0,0,0-.07,0Z"/><path class="cls-6" d="M123.56,89.32a2.17,2.17,0,0,0,3,1.2,2.34,2.34,0,0,0,1.18-1.45c.3-1.13-.4-2.29.17-3.4a.2.2,0,0,0,0-.22,1.66,1.66,0,0,0-2.92.45c0,.13.14.2.21.09.33-.54,1.26-1.39,2-.69.54.52.17.36.16.83a13.78,13.78,0,0,0,.07,1.56,2.33,2.33,0,0,1-.88,2.46,2.09,2.09,0,0,1-2.85-.87s-.13,0-.1,0Z"/><path class="cls-6" d="M126.69,84.36a12.59,12.59,0,0,0,4.1-8.09.17.17,0,0,0-.29-.12,36.28,36.28,0,0,0-2.61,3.32.13.13,0,0,0,.21.16c.7-.71,1.22-1.58,1.9-2.3s.37-.26.23.4A12.35,12.35,0,0,1,129.9,79a14,14,0,0,1-3.32,5.28.08.08,0,1,0,.11.12Z"/><path class="cls-6" d="M128.36,76a13.58,13.58,0,0,0,3.2-5.39c0-.14-.14-.3-.27-.2a32.77,32.77,0,0,0-2.61,2.67c-.15.67-.3.85-.43.52a5.21,5.21,0,0,1,.61-2.46,19.08,19.08,0,0,1,1.77-3,14.28,14.28,0,0,0,2.5-9.36.2.2,0,0,0-.34-.13c-1.6,1.42-3.23,2.82-4.81,4.26-.16.16.08.39.25.25.49-.42,3.78-3.83,4.36-3.6,1.14.44-.56,5.29-1,6.18-1.42,3-4,5.2-3.63,8.75,0,.16.25.27.34.09.25-.53,1.77-3.61,2.67-3.3.44.15-2.6,4.46-2.74,4.63s0,.19.12.11Z"/><path class="cls-6" d="M72.15,92.57a21.14,21.14,0,0,1-2.24-6c0-.24-.47-2.16,0-2.48-.23.16,1.58.78,1.49.75a.2.2,0,0,0,.25-.14,4.25,4.25,0,0,0-1.08-3.6c-2.27-2.94-3.52-5.79-1.63-9.38a.13.13,0,0,0-.22-.13,7.21,7.21,0,0,0-1.06,5.22,7.3,7.3,0,0,0,1,2.51c.21.33.45.63.69.94l.49.57c1.24.8,1.19,1.6-.13,2.4a.22.22,0,0,0-.37.15,14,14,0,0,0,2.78,9.26s.08,0,.06-.05Z"/><path class="cls-6" d="M69.26,71.18c-.21,1.78,1.56,3.74,3.43,3.07.1,0,.09-.19,0-.19a3.2,3.2,0,0,1-2.34-.63,2.86,2.86,0,0,1-.93-2.25c0-.1-.13-.09-.14,0Z"/><path class="cls-6" d="M72.5,74.72C73.7,67.82,64,62,68.59,55.4a.09.09,0,0,0-.14-.11c-1.82,2-1.78,4.68-.87,7.1,1.58,4.24,5.28,7.44,4.81,12.31,0,.07.1.09.11,0Z"/><path class="cls-6" d="M68,56.26c.38,1.07,1,2.46,2.38,2.4a1.53,1.53,0,0,0,1.46-1.26c.36-1.45-.94-2.65-1.63-3.75A9.54,9.54,0,0,1,69.7,45c.07-.18-.22-.3-.3-.13a9.14,9.14,0,0,0,.17,8.31c.29.54.87,1,1.09,1.6l.48.67q-2.46,3-3,.78s-.09,0-.08,0Z"/><path class="cls-6" d="M79.86,94.44a10,10,0,0,1-2.36-6.18,10.51,10.51,0,0,1,.34-2.67c.46-1.71,1-2.64,1.39-.14.21,1.29.36,3,2.17,2.49a.09.09,0,0,0,.07-.12A17.94,17.94,0,0,1,81,77.76a.11.11,0,1,0-.22-.06,16.38,16.38,0,0,0-.41,6.86,16.72,16.72,0,0,1,.35,1.68c.47,1,.29,1.11-.53.2-.61-.17-.87-.49-.77-1-.28-.94,0-1.5-.5-2.43a.14.14,0,0,0-.22,0,9.23,9.23,0,0,0,1.07,11.47s.08,0,0,0Z"/><path class="cls-6" d="M115.91,90.68a15.45,15.45,0,0,0,2-5.87c.17-2.41-1.21-4.13-1.76-6.39,0-.17-.32-.14-.3,0,.11,1.14-.39,6.74-3.35,4.8-.15-.1-.29.14-.14.24,2,1.43,3.44-1.25,3.76-3,0-.22.41-1.58-.07-1.26a27.66,27.66,0,0,0,1.3,3c.87,2.89-.44,5.71-1.55,8.34,0,0,.06.07.08,0Z"/><path class="cls-6" d="M103.63,96.68a6.4,6.4,0,0,0,3.4-4.86c0-.24-.08-1.2,0-1.32s1,1.15,1.1,1.36a6,6,0,0,1,.41,4.46.11.11,0,0,0,.21.06A5.78,5.78,0,0,0,107,90c-.08-.07-.24,0-.23.09a6.84,6.84,0,0,1-3.16,6.51s0,.06,0,0Z"/><path class="cls-6" d="M89.8,101.54a7.41,7.41,0,0,1-2-2.87c-.14-.39-.74-3-.28-3.13-.13,0,.84,1.54.93,1.66a6.31,6.31,0,0,0,2,1.62c.14.08.27-.14.12-.21a6.23,6.23,0,0,1-3-3.49c0-.11-.22-.13-.25,0a6.15,6.15,0,0,0,2.39,6.48s.08,0,0-.06Z"/><path class="cls-6" d="M91.25,99.59a6,6,0,0,1-1-3.12,5.32,5.32,0,0,1,.11-1.32,5.19,5.19,0,0,1,.17-.65c-.14,0-.13.15,0,.35a7.49,7.49,0,0,0,2.29,3.32c.1.07.23-.1.13-.18a6.25,6.25,0,0,1-2.33-3.86c0-.12-.18-.1-.22,0a5.79,5.79,0,0,0,.74,5.51s.11,0,.08,0Z"/><path class="cls-6" d="M73.55,50.41a5.9,5.9,0,0,0-.36-5.4c-.7-1.2-1.7-2.13-2.16-3.47a5.67,5.67,0,0,1,1.65-6c.11-.11-.05-.27-.17-.17a5.71,5.71,0,0,0-2,5.29,6.65,6.65,0,0,0,1.38,2.94c1.59,2.24,2.45,3.94,1.64,6.8,0,0,0,0,0,0Z"/><path class="cls-6" d="M131.87,54.72c0-4.45,3.67-7.21,4.63-11.31.49-2.09.14-4.41-1.66-5.74-.09-.07-.19.08-.12.15,5.14,5.3-3.23,11.15-2.94,16.9a0,0,0,0,0,.09,0Z"/><path class="cls-6" d="M134.34,37.4c1.35,3.84-2.24,6.3-3.16,9.68a9.42,9.42,0,0,0,.84,7c.09.16.31,0,.24-.14-2-4.24-.73-7.37,1.48-11.12,1-1.73,1.64-3.56.73-5.45,0-.07-.16,0-.13,0Z"/><path class="cls-6" d="M103.24,52.6c-.87-2.82,1.48-5,1.4-7.74a11.22,11.22,0,0,0-2.43-5.94.08.08,0,1,0-.14.08,23.61,23.61,0,0,1,2,4.26,8.1,8.1,0,0,1-.62,5.22c-.54,1.45-.92,2.69-.28,4.15,0,0,.09,0,.07,0Z"/><path class="cls-6" d="M102,38.74c5,3.17,5,8.94.75,12.68-.07.06,0,.18.1.13,5-3,4.25-10.44-.8-12.89,0,0-.1.05,0,.08Z"/><path class="cls-6" d="M73,35.72c-.74,4.26,5.5,5.41,4.74,9.65a.1.1,0,1,0,.19.05c1.35-4.19-5.18-5.57-4.75-9.67,0-.1-.16-.12-.18,0Z"/><path class="cls-6" d="M78.81,70.72c-2.06-3.26-3-6.19-2.59-10.09,0-.11-.17-.13-.2,0a10.92,10.92,0,0,0,2.72,10.16s.1,0,.07,0Z"/><path class="cls-6" d="M102.61,67.57a9.24,9.24,0,0,0,1.54-10.44c-.08-.17-.37-.08-.36.1A5.57,5.57,0,0,1,101,62.38a.11.11,0,1,0,.11.19,5.6,5.6,0,0,0,2.23-1.92c.13-.21,1.15-2.82.84-2.84.47,0,.58,4.11.55,4.5a9.86,9.86,0,0,1-2.23,5.18c0,.05,0,.14.08.08Z"/><path class="cls-6" d="M86.3,73.07a11.85,11.85,0,0,1-3.2-8.61l-.39.05a6.65,6.65,0,0,0,5.6,4.35c.19,0,.24-.31,0-.35a6.7,6.7,0,0,1-5.26-4.1.2.2,0,0,0-.39,0,11.28,11.28,0,0,0,3.53,8.68s.11,0,.06-.07Z"/><path class="cls-6" d="M119.48,76.26a6.92,6.92,0,0,0,2.19-5.16c0-1-.58-.07.19-.16.47-.06.68.19,1.17-.06,1.51-.75,1.38-3.45,1.22-4.77,0-.14-.3-.91-.16-1,.37-.3,2,1.86,2,2a5.92,5.92,0,0,1,.49,5c0,.15.18.21.24.06a5.82,5.82,0,0,0-3.07-7.57c-.15-.07-.37.05-.31.23a8,8,0,0,1,.48,2.51,3.56,3.56,0,0,1-.08,1.08c0,1.19-.73,1.75-2.32,1.7-.1-.22-.38-.05-.35.14a7.13,7.13,0,0,1-1.8,6c0,.07,0,.16.1.1Z"/><path class="cls-6" d="M104.41,87.68a5.8,5.8,0,0,1-1.93-4.77c0-.21-.26-.25-.36-.1A13.13,13.13,0,0,0,99.65,91a.08.08,0,0,0,.16,0,16.83,16.83,0,0,1,2.65-8l-.37-.09a5.52,5.52,0,0,0,2.24,4.85c.06,0,.14,0,.08-.08Z"/><path class="cls-6" d="M79.38,55.94c-3.69-2-.35-6.52-2.24-9.41-.16-.24-.45-.46-.59-.69.46.75,1.26,1.09,1.84,1.73A6.83,6.83,0,0,1,80,53.39c0,.22.29.32.34.09a7,7,0,0,0-4.32-8c-.22-.09-.34.25-.16.37,3.51,2.31-1,8.67,3.43,10.19a.08.08,0,0,0,.06-.14Z"/><path class="cls-6" d="M80.56,40.87c-1.33-1.7-2.29-4.45-1.47-6.6l.13-.46c.23-.39.39-.39.5,0,.33.21.6,1,.82,1.37A36.22,36.22,0,0,0,82.6,38.4a.12.12,0,0,0,.2-.12,61,61,0,0,0-3.23-5.51c-.07-.11-.28-.14-.34,0A7.52,7.52,0,0,0,80.48,41c0,.06.13,0,.08-.09Z"/></svg>