<svg id="illustration" xmlns="http://www.w3.org/2000/svg" viewBox="0 0 198.43 129.26"><defs><style>.cls-1{fill:#6f3202;}.cls-2{fill:#d6a466;}.cls-3{fill:#fff;}.cls-4{fill:#662d23;}.cls-5{fill:#574d47;}.cls-6{fill:#2c2621;}.cls-7{fill:#957346;}.cls-8{fill:#542100;}.cls-9{fill:#010101;}.cls-10{fill:#1f62ae;}</style></defs><path class="cls-1" d="M76.7,21.72a46.53,46.53,0,0,0,5.82.17c1.5-.2-.89,3.63-1.27,3.95a12.17,12.17,0,0,0-2.14,3.4c-.3,1-1.71,4.73-1.71,4.73l-1,2.53,1-.32-1.47,2.61-.66,3,.64-.73-1.25,5.06s-.6,1.13,1,.4a7.87,7.87,0,0,0,2.56,5.15c2,1.38.68-1.91.68-1.91l3.5,2.12,1.16-.72,1.67-1.05A.8.8,0,0,0,85.5,49c-.35-.76-.59-.56-.59-.56l-1,.56V47.63l.28-1.48-.88.7.39-1.09.85-1.11-.85-.29,1.57-.83,1.34-.67.11-1,.57-.52.65-.64-1-.3.82-.67.88-.54-1.07-.25,1.15-.82.77-1-1.69.52.92-1.32L88,35.61l.87-2.3-2.31.39,1.1-1.31L90,31.21l-1.72-.62-1.32,0L89,29.7l3.8-.4.46-.4A13.81,13.81,0,0,0,91,27.16c-.57-.18,3.28-.88,5.93,1.28a7.43,7.43,0,0,0-1-2.39c-.47-.36,3.57.91,5.67,3.65l-.29-2.19a22.54,22.54,0,0,1,2,1.86c1,1,2.51,3.69,2.52,5.36,0,0,3.68-2.79,5.6.38s-2.29,5.56-2.29,5.56,1.45-.77-.43.18c-.34.26.64.26.64.26l.65.7.29.79-.67-.18.63,1.14.47.5.71-.28.5-.92.66-.66.65-1.53v1.42l1.08-1.57.37.94.71-1.1.54-.8.38-1.11.53.78.49-.78.12-.75.4-1.07.21.84.35-.8.2-.67.53-.83.19.65.43-.86v-.84l1-.42.23-.62.47-1.31.17-1.25.11-.82.39-.93.57-.29-.24-1.19.36.09-.29-3h.23l.06-1.67.33-.09-.46-2.74.46.11-.1-1.26.54.6.91-1.05h.87l.31.69.85-.69,0,1.1.21.5,2.06-.62-1,.63,1.82-.19v.62l-.75.88,1,0-1.72,1.91-.87,1,.84-.16.86-.24-.22.73.61.37-1.07.62.46,0-1.16,1.81,1,0-.58,2.39.5,0-.06,1.47L128,32.54l.13.41-.23.55.54,0-.39.93.42-.19-.67,1.23,1,.1-.64,1.18.31.24L128,38.67l.35,0-.75,1.74,0,.77.33-.17.3,1.16-.61,1,.3.38L127,44.94l-.66.77h1.07l-2.66,2s.39.31-.12.51a1.61,1.61,0,0,0-.74.68l-1.06.49.84.87-2.52.24-.3.21.75.5-1.67,0,.07.49h-1.89l.52,1.08-2.37-.4,1,1-2.2,0,.79.66.51,1.33,1.33,2.12-1.28-.87.5,1.59.66,1.81-.83-.52.47,2.12.22,2.39,0,.4-.34-.81a8,8,0,0,0-.32,2.33,15.65,15.65,0,0,1,.52,2.09l-.52-.64a16.78,16.78,0,0,0,0,1.91c0,.41.74,2.68.74,2.68l-.91-.4a25.15,25.15,0,0,1-.54,3.23c-.23.59-.24-.59-.24-.59s-.46,2.36-.48,3.14,0,1.16,0,1.16l-.29-.43-.2.83-.59,1.23-.19.51-.22,1.1s-11.62,2.22-13.63,2S90,83.44,90,83.44l0-.61-.19.21,0-1.73-.57.74.14-1.94-.42.64.44-1.68.3-.8-.83.66L90,76.53v-.45l0-.54.11-.86V72.94l.06-.59.07-.49.06-.71-.3-.7-.08-.76L89.76,69l-.39-.39L88.88,68l-.36-1-.62-1-.53.81-.26-2.48-.59.56-.38-.49-.21-.65-1.21.94v-.39l-.65.6-.25-.32-1,.92L82.61,65,81,66.3l-.4-.86-2.16,1.44.1-.73-1,.83-.25-.74L75.7,67l.53-1.25a7.57,7.57,0,0,1-2,.39c-1.47,0-1-.84-1-.84l-.81,0,.4-.4-1.32-.36-.72-.22-1.93-.77.54-.35L67.49,61.9l.75-.71-.94-.68.08-.44-.44-.5.44-.13-.77-.59.36-.17a5.29,5.29,0,0,0-.36-1.94l-.32-.41.68-.48-.71-.91.35.17-.46-1.29-.2-.75h.4l-.12-2,.08-1,.2-.76.25-.89.21-.59-.46-.16.86-.24-.54-2.57.54,0,.88-.25v-.37l-.07-.88-.37-.71h.75l.3-.33-.62-1.14,1.12.6.11-3.16.52.43.21-2.24.44.3.09-2.45.59,0V32.39l.41.41a1.23,1.23,0,0,0,.46-.59c.07-.31.2-2.31.2-2.31l.45-1,.24-1.8.64.49.55-1.93.44.5.29-2,.41-.21.78-.79.29-.54Z"/><path class="cls-2" d="M98.5,52.05s6.52-2,11,5.32.82,17.24.82,17.24-4.1,8.62-9.67,8.62-6.44-2.89-7-6.29-.48-4.71-1.67-7.58a21.42,21.42,0,0,1-2.11-9.2c0-3.74,3.68-5.62,3.68-5.62l1.1-.35A20.69,20.69,0,0,1,98.5,52.05Z"/><path class="cls-2" d="M92.19,40.57s-2.32-5.77,2.3-8A2.42,2.42,0,0,1,97.67,34s2.73-2,4.77.1-.17,4.78-.17,4.78,2.24-.15,2.82.25a5.82,5.82,0,0,1,1,7.68c-2.51,4.28-8.37,6-12.47,5.17s-6.81-4.3-6.21-7.38S92.19,40.57,92.19,40.57Z"/><path class="cls-2" d="M105.68,35.5a3.07,3.07,0,0,1,2.89-1.89,3.36,3.36,0,0,1,3.5,3.13c.09,1.74-.84,3.5-1.88,3.71s-1.79.44-1.79.44l.47-1-1.26-.11.16-.89-1.55,0,.41-.78-1.39-.7-.15-.57.77-.41Z"/><path class="cls-2" d="M88.64,36.28l-1.35-1H85.08S83,37,83.29,38.9a5.07,5.07,0,0,0,3.08,3.46c1,.44.66-.71.66-.71l.88-1-1-.3,1-1.12h-.59l.9-.78.7-.59.52-.78-1.69.52Z"/><path class="cls-3" d="M93.84,35.06c-.52-.1-.78.61-.82,1a1.75,1.75,0,0,0,.77,1.6c1.3.87,2.37-.88,1.92-2-.57-1.48-3-.92-2.62.69a1.26,1.26,0,0,0,1.57.93,1,1,0,0,0,.39-1.65c-.65-.58-1.62.41-1,1-.39-.32.24-.53.36-.52a.33.33,0,0,1,.3.15.58.58,0,0,1-.37.81c-.47.06-.74-.55-.72-.92s.31-.58.26-.91a.12.12,0,0,0-.09-.12Z"/><path class="cls-3" d="M99.08,35.26l0,0a.27.27,0,0,0-.31,0,1.16,1.16,0,0,0-.3,1.72,2,2,0,0,0,2.15.72,1.27,1.27,0,0,0,.74-1.9c-.46-.78-2-1.22-2.64-.48a.56.56,0,0,0,.11.88,1,1,0,0,0,.73.13c.2,0,.57-.1.72.07s-.36.28-.54.25c-.36-.06-.8-.22-.77-.65,0-.19.29-.49.13-.68Z"/><path class="cls-3" d="M99.22,36.54c.32.13.49.26.83.19a.26.26,0,0,0,.11-.43c-.26-.23-.45-.2-.8-.25a.26.26,0,0,0-.14.49Z"/><path class="cls-3" d="M90.83,44.84A7,7,0,0,0,98,50.79c3.91-.29,5.89-4.51,6.19-8,0-.35-.46-.37-.57-.08-1.08,2.88-2.19,6.57-6,6.7-3.22.1-4.65-2.48-6.23-4.74-.16-.22-.64-.18-.59.16Z"/><path class="cls-3" d="M103.85,43.59a3.1,3.1,0,0,0-.66,1.42,15,15,0,0,1-.73,2,.56.56,0,0,0,0,.57.51.51,0,0,0,.49.28.55.55,0,0,0,.49-.28c.54-1,1.41-2.8.71-3.92a.2.2,0,0,0-.3,0Z"/><path class="cls-3" d="M91.56,45.17c3.6,2.33,8.86.78,12-1.56.36-.27,0-.89-.37-.62-3.83,2.66-7.26,2.28-11.61,2-.11,0-.14.16,0,.21Z"/><path class="cls-3" d="M102.68,44A15.08,15.08,0,0,0,101.63,46a8.15,8.15,0,0,1-1.65,2l.74.57A14.5,14.5,0,0,0,102,45.17c.15-.63-.85-.89-1-.26A8.87,8.87,0,0,1,99.91,48c-.31.48.35.89.74.57,1.17-1,2.71-2.84,2.36-4.48a.2.2,0,0,0-.33-.09Z"/><path class="cls-3" d="M91.89,45.61c-.31,1.42,1.58,2.45,2.67,2.93a7.37,7.37,0,0,0,5.79.07c1-.42.63-2.1-.48-1.72a6.45,6.45,0,0,1-5-.09c-.9-.42-1.63-1.48-2.67-1.43a.36.36,0,0,0-.32.24Z"/><path class="cls-3" d="M95.33,49.19c1.24.69,3.2,1.11,4.31-.09.39-.42.16-1.34-.52-1.26-1.15.13-2.16.68-3.35.32a.57.57,0,0,0-.44,1Z"/><path class="cls-3" d="M94.12,47.1c2.07.66,4.93.92,6.69-.67.49-.44.13-1.5-.59-1.41-1,.13-1.85.57-2.83.72a12,12,0,0,1-3.1.13c-.73-.09-.82,1-.17,1.23Z"/><path class="cls-3" d="M101.72,45.67a2.52,2.52,0,0,0,1.32-.75c.51-.46-.22-1.14-.74-.74a2.39,2.39,0,0,0-.88,1.09.32.32,0,0,0,.3.4Z"/><path class="cls-3" d="M103.12,43.81a4.8,4.8,0,0,1-2.07.79.56.56,0,0,0-.38.38.51.51,0,0,0,.14.52.52.52,0,0,0,.53.14,3.54,3.54,0,0,0,1.27-.6,4.61,4.61,0,0,0,.81-1c.14-.19-.15-.37-.3-.23Z"/><path class="cls-3" d="M104.12,43.13c.14-.19.2-.41.35-.6.3-.37-.27-.81-.53-.4a.92.92,0,0,0-.11,1,.17.17,0,0,0,.29,0Z"/><path class="cls-3" d="M88.57,30.3c.23.28.61.12.91,0s.81-.12,1-.51a.23.23,0,0,0-.09-.32c-.44-.25-1,.06-1.47.26-.16.07-.54.29-.36.53Z"/><path class="cls-3" d="M91.44,27.24a1.75,1.75,0,0,0,1.63.25.36.36,0,0,0,0-.7,1.75,1.75,0,0,0-1.63.25.15.15,0,0,0,0,.2Z"/><path class="cls-3" d="M96.69,26.94c.34.09.7.11,1,.17a.93.93,0,0,0,.75-.08.24.24,0,0,0,.09-.32c-.27-.56-1.38-.54-1.88-.43a.35.35,0,0,0,0,.66Z"/><path class="cls-3" d="M101.19,28.08c.47.38.79,1,1.39,1.13.2.05.44-.15.36-.36-.26-.7-1-.85-1.61-1-.13,0-.25.14-.14.24Z"/><path class="cls-3" d="M84.26,38.67a3,3,0,0,0-.07-.73,1.68,1.68,0,0,1,.22-1,1.63,1.63,0,0,1,.67-.63c.33-.16.66-.13,1-.26s.39-.51.08-.65a2.06,2.06,0,0,0-2.33,1c-.39.63-.62,2,.1,2.42a.23.23,0,0,0,.34-.14Z"/><path class="cls-3" d="M106.83,35.21c.24-.06.45-.2.69-.26a1.63,1.63,0,0,1,.85,0,.39.39,0,0,0,.21-.75c-.64-.21-1.76,0-2,.75a.18.18,0,0,0,.22.22Z"/><path class="cls-3" d="M89.31,47.76c0-.8-.59-1.42-.58-2.27,0-1.09.66-1.66,1.12-2.55.09-.19-.07-.49-.3-.39A3.14,3.14,0,0,0,88,45.18c-.08.91.14,2.38,1.1,2.75a.17.17,0,0,0,.22-.17Z"/><path class="cls-3" d="M92.62,35.42c.43-.21,1-.47.9-1a.21.21,0,0,0-.21-.16c-.56-.06-.75.62-.9,1,0,.13.11.21.21.16Z"/><path class="cls-3" d="M76.41,22.68a2.66,2.66,0,0,0-.53,1.43.17.17,0,0,0,.29.13,2.77,2.77,0,0,0,.7-1.37.25.25,0,0,0-.46-.19Z"/><path class="cls-3" d="M74.14,26.12a2,2,0,0,0-.23.93.19.19,0,0,0,.38.05,2.08,2.08,0,0,0,0-1,.11.11,0,0,0-.19,0Z"/><path class="cls-3" d="M73.05,27.76a1.82,1.82,0,0,0-.1,1.08.17.17,0,0,0,.33,0,1.73,1.73,0,0,0,0-1.08c0-.13-.21-.11-.25,0Z"/><path class="cls-3" d="M72.41,30c-.06.42,0,.84,0,1.26A5.27,5.27,0,0,1,72,33c-.07.17.17.31.25.15A3.74,3.74,0,0,0,72.61,30a.11.11,0,0,0-.2,0Z"/><path class="cls-3" d="M71.29,32.91c0,.36.08.7.08,1.05,0,.13,0,1.49-.46,1.11a.14.14,0,0,0-.19.2c.31.33.72,0,.88-.28a2.46,2.46,0,0,0-.16-2.12.08.08,0,0,0-.15,0Z"/><path class="cls-3" d="M70.68,35a3.94,3.94,0,0,0,.1.9c0,.08.13,1.76-.16,1.54a.19.19,0,0,0-.32.08c-.07.29-.61,1.58-.48,1.81a.16.16,0,0,0-.3.07c0,.24-.09,2.46-.9,2.11a.18.18,0,1,0-.14.32L69,42a.18.18,0,0,0,.19-.07,6.72,6.72,0,0,0,.61-2.57l-.29.08.09.19a.16.16,0,0,0,.28,0,10.47,10.47,0,0,0,.75-2l-.32.09c1.28,1,.81-2.23.5-2.76a.09.09,0,0,0-.17,0Z"/><path class="cls-3" d="M68.55,56.26a1.73,1.73,0,0,0,.23,1.5.3.3,0,0,0,.56-.15,1.69,1.69,0,0,0-.51-1.43.21.21,0,0,0-.28.08Z"/><path class="cls-3" d="M68.9,59.47a3.2,3.2,0,0,0,.84,1.16c.32.29.72.66,1.18.61.11,0,.24-.12.19-.25-.16-.38-.5-.55-.81-.81s-.68-.62-1-.91c-.14-.11-.44,0-.35.2Z"/><path class="cls-3" d="M71.61,62.3c-.07.63,1,1.34,1.56,1.28a.37.37,0,0,0,.26-.62,3.45,3.45,0,0,0-.91-.48,1.62,1.62,0,0,0-.8-.29.13.13,0,0,0-.11.11Z"/><path class="cls-3" d="M75,64.24a2.83,2.83,0,0,0,1.36-.12.21.21,0,0,0-.05-.38,2.89,2.89,0,0,0-1.36.14c-.21,0-.15.35.05.36Z"/><path class="cls-3" d="M66.45,54.67c-.27,3.94,1.58,9.16,5.7,10.38.41.12.57-.5.17-.63-4.63-1.54-4.42-5.92-5.65-9.78a.11.11,0,0,0-.22,0Z"/><path class="cls-3" d="M91.25,60a10.11,10.11,0,0,1,2.83-3.41c1.16-.78,2.55-1,3.73-1.72a.41.41,0,0,0-.1-.74c-1.75-.6-3.72.51-5.06,1.59-1.11.89-3,2.76-2,4.28a.35.35,0,0,0,.59,0Z"/><path class="cls-3" d="M92,66.77a2.62,2.62,0,0,0,2.13,1.43c.71.11,2,.07,2.35-.73a.2.2,0,0,0-.12-.28c-.64-.17-1.36.13-2,0a8.92,8.92,0,0,1-1.93-.83.32.32,0,0,0-.4.39Z"/><path class="cls-3" d="M95.94,77.94a6,6,0,0,0-.27-2.22,5.14,5.14,0,0,1-.06-2.83.33.33,0,0,0-.55-.32,2.2,2.2,0,0,0-.47,2.18A8.24,8.24,0,0,0,95.67,78a.15.15,0,0,0,.27,0Z"/><path class="cls-3" d="M98.59,72.2a3.89,3.89,0,0,0,.56,2.71.1.1,0,0,0,.18-.08c-.11-.44-.25-.86-.32-1.31s-.06-.89-.16-1.32a.14.14,0,0,0-.26,0Z"/><path class="cls-3" d="M98.82,56.74a6.37,6.37,0,0,0,.6,5.41c.11.21.47.07.39-.16a14.93,14.93,0,0,1-.55-5.19.23.23,0,0,0-.44-.06Z"/><path class="cls-3" d="M94.66,40.6A.82.82,0,0,0,94,41.81c.12.17.46.19.51-.07a1.1,1.1,0,0,1,.31-.74.24.24,0,0,0-.16-.4Z"/><path class="cls-3" d="M98.18,40.59a3.23,3.23,0,0,1,.53.58c.12.17.16.27.34.37a.22.22,0,0,0,.33-.18c.06-.49-.5-1-.9-1.16-.24-.11-.51.19-.3.39Z"/><path class="cls-3" d="M95.92,40c.46-.12,1,0,1.42-.24a.21.21,0,0,0,0-.34c-.47-.44-1.17-.14-1.65.13a.25.25,0,0,0,.19.45Z"/><path class="cls-3" d="M96.06,39.05a2.09,2.09,0,0,0,.66,0,.22.22,0,0,0,.11-.4c-.28-.17-.87-.08-.83.35,0,0,0,.07.06.08Z"/><path class="cls-4" d="M93.62,36.68c-.4,0-.63.22-.45.59a.71.71,0,0,0,1,.33c.8-.5-.2-1.61-.73-.94a.27.27,0,0,0,.37.38q-.32.24-.33-.12l0,.19.19-.06c.24,0,.23-.34,0-.37Z"/><path class="cls-4" d="M93.77,37c-.11.32.21.65.44.85a.17.17,0,0,0,.24-.24c-.21-.21-.36-.53-.64-.63,0,0,0,0,0,0Z"/><path class="cls-4" d="M99.39,36.47a.46.46,0,0,0-.65.52c.12.6.83.58,1.28.46a.24.24,0,0,0,.17-.29,1,1,0,0,0-1-.73.25.25,0,0,0-.24.25,1,1,0,0,0,.1.4.27.27,0,0,0,.22.13h.1a.16.16,0,0,0,.16-.16c0-.13-.08-.24-.09-.37l-.25.25a.43.43,0,0,1,.49.35l.17-.29a.37.37,0,0,1-.42-.06q-.41,0-.12-.21a.14.14,0,0,0,0-.25Z"/><path class="cls-4" d="M99.86,37.17a.44.44,0,0,0,.09.31.21.21,0,0,0,.33,0c.16-.14,0-.31-.07-.44s-.35-.08-.35.09Z"/><path class="cls-3" d="M93.23,37.35a.37.37,0,0,0,0-.73.37.37,0,0,0,0,.73Z"/><path class="cls-3" d="M98.85,37.21a.29.29,0,0,0,0-.58.29.29,0,0,0,0,.58Z"/><path class="cls-3" d="M73.38,88.18a7,7,0,0,0,3.92-.25c.13-.06.06-.25-.07-.26-.64,0-1.26.12-1.9.16s-1.28,0-1.91,0c-.17,0-.22.27,0,.3Z"/><path class="cls-3" d="M83.21,86.77c1-.41,2.1-.64,3.11-1.06.09,0,.09-.2,0-.19a9.38,9.38,0,0,0-3.22.93c-.18.08,0,.4.14.32Z"/><path class="cls-3" d="M85.84,90.61a7.66,7.66,0,0,1,2-.22c.59,0,1.16.14,1.74.13a.12.12,0,0,0,.06-.22,5.06,5.06,0,0,0-3.86,0,.19.19,0,0,0,.1.36Z"/><path class="cls-3" d="M72.53,88.11c.26.58,1.21.34,1.71.3a3.85,3.85,0,0,0,2.1-.47.46.46,0,0,0-.1-.72,4.75,4.75,0,0,0-2.53.08c-.33,0-1.47.19-1.18.81Z"/><path class="cls-5" d="M59.61,14.57a2.83,2.83,0,0,0,1.88,2.91c2.11.75,15-1.18,15-1.18l60.19-4.84L151.75,9.7s2.73-.5,2.35-2.67a2.85,2.85,0,0,0-1.87-2.52L120.45,7.06,85,10.86Z"/><path class="cls-1" d="M70.5,88.5l-1.44-.8,1,1.42-2.25-.2,1.46,1.27-1.71.71,1.57.37L68,92.72l1.3.11-.9,1.31.72,0,.92-.46.11,1.13.94-1a11.82,11.82,0,0,1-.76-2.8C70.35,90.19,70.5,88.5,70.5,88.5Z"/><polygon class="cls-2" points="135.34 82.41 134.33 80.45 135.17 80.4 136.35 81.03 136.94 82.32 137.92 83.7 138.29 83.73 138.94 82.83 139.15 81.67 138.8 79.3 137.87 75.54 137.7 72.35 138.6 70.99 139.4 70.54 139.99 70.77 140.31 71.48 142.19 71.06 142.69 72.25 143.27 72.35 144.07 71.13 144.73 72.06 145.32 74.86 145.96 78.53 146.21 83.29 145.98 86.72 145.38 89.04 144.07 90.87 142.82 91.54 141.25 91.48 138.74 89.94 137.13 87.64 135.92 85.67 135.59 83.56 135.34 82.41"/><path class="cls-2" d="M70.88,87.1l-1.21-1.48-1-2.58-.06-2.14.07-1.48-.49-1-.46-.3H67.1l-1.55-.21L66,79.27,66.49,81l.08,1.13-.62.57-.91.16-.43-.55-1.2-1.58-1.2-1.39-.87-.92-.6-.59h-.33l-.19.54.41.85.76,1,.85,1.1.72.94.56.73L64,84l.5,1.3.36,1.23.49.78.33,1.33.15,1,0,1.11a6.35,6.35,0,0,0-.07.91c0,.16-.58.45-.58.45l-.69.16-1.08-.21-.91-.84-.88-.3-.67.3,0,.85.63.64.88.19s.66.67.86.57,1.09.67,1.09.67l1.07.46,1.3.62h1.56l.72-.62v-.58l-.72,0,.72-1.06L68,92.72l1.11-1.45-1.57-.37,1.71-.71L67.8,88.92l2.25.2-1-1.42,1.44.8Z"/><polygon class="cls-2" points="76.38 21.79 75.41 16.32 76.47 16.3 76.61 8.83 78.18 7.95 83.85 8.1 84.89 9.05 85.01 10.86 84.8 11.86 84.15 14.35 83.68 15.56 86.63 15.51 85.83 16.89 84.39 19.13 83.26 20.71 82.68 21.7 81.43 21.85 81.07 21.47 81.02 21.94 80.31 21.94 79.79 21.66 79.76 21.94 79.11 21.88 78.89 20.98 78.26 21.94 77.78 21.94 77.6 21.26 76.93 21.94 76.38 21.79"/><path class="cls-2" d="M85.29,11.4a3.3,3.3,0,0,1,1.85-2.57l.06,2.63Z"/><polygon class="cls-2" points="123.14 18.5 121.93 12.98 132.48 11.95 128.84 19.29 126.78 19.91 126.52 18.31 125.89 18.82 125.56 17.9 124.89 18.31 124.39 17.75 123.99 18.89 123.58 19.36 123.14 18.5"/><polygon class="cls-2" points="126.1 3.41 127.56 3.04 128.76 3.18 129.98 3.4 131.19 3.61 133.02 4.16 133.81 4.29 134.28 5.26 133.98 5.96 133.42 6.5 132.95 8.17 132.48 9.7 131.49 11.38 131.12 11.99 130.45 12.15 130.17 11.86 130.17 11.44 130.15 10.85 129.65 11.32 129.19 11.61 129.27 10.36 128.6 10.58 128.13 10.32 128.01 9.9 127.38 10.44 126.7 10.58 126.1 10.58 126.31 8.57 126.7 4.28 126.1 3.41"/><polyline class="cls-2" points="121.93 6.61 121.33 5.26 121.93 4.32 122.63 4.16 123.31 4.71 123.65 5.59 123.65 6.24"/><path class="cls-1" d="M95.5,93.24s.57,8-1.45,14-5.68,12.2-13.06,13-9.85-5.88-9.31-9.56,2.25-6.83,5.68-6.85,5,1.66,4.37,5.6-4,3.56-4,3.56A11.12,11.12,0,0,1,75,111c-.62,4.32,2.56,5.5,2.56,5.5a13.27,13.27,0,0,0,2.84-.18,6.78,6.78,0,0,0,3.4-2.66c.64-1.22,3.12-7.25-.12-11.49s-11.25,0-12.65,1.79a12.94,12.94,0,0,0-2.77,12.69c2,6.67,10.16,9.91,18.33,6.42s12.93-16,12.93-16l4.82-13.38-4.51-.15Z"/><path class="cls-6" d="M84.85,11.82c-.2.57-.27,1.18-.44,1.76s-.38,1.15-.58,1.72c-.1.31.35.41.47.13a8.87,8.87,0,0,0,.79-3.57.12.12,0,0,0-.24,0Z"/><path class="cls-6" d="M84.69,12.34c-.17.89-.54,1.7-.78,2.57a.57.57,0,0,0,.14.53.51.51,0,0,0,.38.16.57.57,0,0,0,.47-.27,7.49,7.49,0,0,0,.86-2.7c.12-.69-.93-1-1.07-.29Z"/><path class="cls-6" d="M85.29,12.29c.42-.06.87,0,1.29,0s.65,0,.87-.36a.38.38,0,0,0,0-.41l0-.08a.56.56,0,0,0-.48-.27,3.82,3.82,0,0,0-1,.17,3.42,3.42,0,0,0-.82.54.25.25,0,0,0,.19.46Z"/><path class="cls-6" d="M134.1,6a.07.07,0,0,0,0-.14.07.07,0,0,0,0,.14Z"/><path class="cls-6" d="M125.94,6.39c-.59.52-.44,1.55-.57,2.28a4.6,4.6,0,0,0-.09,2.05c.46,1.36,2,.83,2.74.13.47-.42-.21-1-.68-.68s-.78.46-1.27,0a2.57,2.57,0,0,1,0-.48c0-.42,0-.84,0-1.26,0-.66.28-1.46-.13-2,0,0,0,0,0,0Z"/><path class="cls-6" d="M127.66,10.46a.83.83,0,0,0,1.35.79.45.45,0,0,0-.19-.75c-.22-.05-.49,0-.68-.16s-.43-.11-.48.12Z"/><path class="cls-6" d="M129.58,12.16a1,1,0,0,0,.41-.46.31.31,0,0,0-.53-.31,1.06,1.06,0,0,0-.19.59.21.21,0,0,0,.31.18Z"/><path class="cls-6" d="M129.48,11.37a.62.62,0,0,0,.37.92.26.26,0,0,0,.29-.38,2.77,2.77,0,0,1-.28-.54c-.07-.16-.3-.12-.38,0Z"/><path class="cls-6" d="M131.46,12.1c1.72-1.48,2.58-4.07,3.26-6.17a.5.5,0,0,0-1-.27c-.62,2.24-1.93,4.05-2.72,6.18-.1.27.26.41.43.26Z"/><path class="cls-3" d="M91,12.48c4.71,0,9.48-.44,14.16-.89,4.32-.41,9-.6,13.17-1.78a.18.18,0,0,0,0-.36c-4.52.08-9.11,1.07-13.61,1.5S95.53,11.6,91,12a.24.24,0,0,0,0,.47Z"/><path class="cls-3" d="M62.47,14.84a27.64,27.64,0,0,0,6.77-.72.06.06,0,0,0,0-.12,27.39,27.39,0,0,0-6.76.7.07.07,0,0,0,0,.14Z"/><path class="cls-3" d="M71.06,13.73h.06a.05.05,0,0,0,0-.1h-.06c-.11,0-.11.15,0,.12Z"/><path class="cls-3" d="M72.35,13.66l.13,0a.1.1,0,0,0,0-.19h-.13c-.14,0-.14.23,0,.22Z"/><path class="cls-3" d="M137.48,7.1A45,45,0,0,0,145,6.56s0-.09,0-.09a44.71,44.71,0,0,0-7.5.34c-.18,0-.19.29,0,.29Z"/><path class="cls-3" d="M147.64,6.07a1.73,1.73,0,0,0,.51-.19.09.09,0,0,0-.05-.16,1.4,1.4,0,0,0-.53.08c-.18,0-.1.31.07.27Z"/><path class="cls-3" d="M150.1,6h.13a.09.09,0,0,0,0-.18h-.13c-.13,0-.13.22,0,.2Z"/><path class="cls-3" d="M127.59,4.17c1.57-.25,3.47,1.23,4.93.42.15-.08.07-.28-.08-.3a19.27,19.27,0,0,1-2.82-.46,5.31,5.31,0,0,0-2.17-.16c-.32.06-.19.55.14.5Z"/><path class="cls-3" d="M122,5.47a1.57,1.57,0,0,0,.56-.8c0-.18-.17-.38-.33-.26a1.6,1.6,0,0,0-.58.86c-.07.22.2.32.35.2Z"/><path class="cls-3" d="M77.91,9.19c1.73-.14,3.4,0,5.13.05a.22.22,0,0,0,0-.43,17.29,17.29,0,0,0-5.18-.11c-.31,0-.32.52,0,.49Z"/><path class="cls-3" d="M86.08,10.15a2.21,2.21,0,0,0,1.12-.64.2.2,0,0,0-.17-.3,2.29,2.29,0,0,0-1.14.62.19.19,0,0,0,.19.32Z"/><path class="cls-7" d="M75.45,17c.14,0,.14,0,.28,0a1.47,1.47,0,0,1,.69,0,.2.2,0,0,0,.11-.39,1.1,1.1,0,0,0-1,.13s-.25.27-.1.33Z"/><path class="cls-7" d="M75.73,16.78a1.57,1.57,0,0,0,.61-.1c.2-.08.2-.41,0-.4a1.67,1.67,0,0,0-.61.16c-.17.07-.17.36,0,.34Z"/><path class="cls-7" d="M76.05,16.71c-.11.32.15.65.34.9a1.79,1.79,0,0,0,1.08.7c.55.1,1.7-.43,1.24-1.13a.19.19,0,0,0-.31,0c-.15.15-.2.37-.37.5a.86.86,0,0,1-1-.17c-.29-.25-.43-.74-.81-.84a.11.11,0,0,0-.13.08Z"/><path class="cls-7" d="M78.54,17.46a1.47,1.47,0,0,0,1.55.9c.52-.05,1.37-.48,1.24-1.11a.22.22,0,0,0-.26-.14c-.36.11-.52.48-.91.57a1.33,1.33,0,0,1-1.2-.47c-.18-.15-.52,0-.42.25Z"/><path class="cls-7" d="M80.94,17.44c0,.81,1.68.89,1.68.1a.21.21,0,0,0-.21-.2c-.24,0-.4.16-.65.18a2.58,2.58,0,0,1-.7-.18.1.1,0,0,0-.12.1Z"/><path class="cls-7" d="M82.61,17.34h0a.19.19,0,0,0-.23.18c0,.44.47.44.72.19a4.86,4.86,0,0,0,.62-.93,2,2,0,0,0,.44-.94.19.19,0,0,0-.28-.16,2.75,2.75,0,0,0-.76,1.07c-.08.13-.23.56-.36.62s0,0-.13,0Z"/><path class="cls-7" d="M83.76,16.12a3.73,3.73,0,0,0,2,.13.44.44,0,0,0,.31-.31.37.37,0,0,0,0-.35.43.43,0,0,0-.38-.22c-.61,0-1.23,0-1.84.12-.35.06-.25.53,0,.63Z"/><path class="cls-7" d="M85.51,15.71l0,.06a.14.14,0,0,0,.27,0l0-.06a.16.16,0,1,0-.31,0Z"/><path class="cls-7" d="M85.66,16.14a1.83,1.83,0,0,0,.77-.15c.15-.08.06-.27-.08-.28a1.84,1.84,0,0,0-.73.12c-.17,0-.14.33,0,.31Z"/><path class="cls-7" d="M122.15,13.74c3.09.88,6.84-.39,9.89-.91a.24.24,0,0,0-.06-.46c-3.1.23-6.89-.36-9.83.84a.28.28,0,0,0,0,.53Z"/><path class="cls-7" d="M131.6,12.46h.09a.18.18,0,0,0,.16-.09l.06-.08c.07-.11,0-.22-.16-.2l-.1,0a.18.18,0,0,0-.13.12l0,.08a.11.11,0,0,0,.1.14Z"/><path class="cls-7" d="M131.59,12.23v.13a.26.26,0,0,0,.13.23l.05,0a.15.15,0,0,0,.16,0l.06,0a.28.28,0,0,0,.13-.23v-.13a.26.26,0,0,0-.52,0Z"/><path class="cls-7" d="M131.74,12.06l0,.14c0,.15.15.27.26.15l.1-.09c.25-.25-.28-.51-.33-.2Z"/><path class="cls-7" d="M106.58,38.18a4,4,0,0,0,.13-.67,2.11,2.11,0,0,1,.37-.75,2.13,2.13,0,0,1,.57-.51c.22-.12.44-.15.6-.35a.29.29,0,0,0-.13-.47c-.59-.23-1.33.49-1.65.92a2,2,0,0,0-.37,1.89.26.26,0,0,0,.48-.06Z"/><path class="cls-7" d="M107.55,36.11c.66.38,1.33.49,1.73,1.24a2.11,2.11,0,0,1-.48,2.44c-.17.21,0,.56.31.4a2.55,2.55,0,0,0,1-2.92c-.31-.91-1.45-2-2.48-1.58a.23.23,0,0,0,0,.42Z"/><path class="cls-7" d="M109.28,37.86a1.31,1.31,0,0,1-1.55,1.46c-.29,0-.33.43-.06.51a1.52,1.52,0,0,0,1.83-2c0-.1-.23-.1-.22,0Z"/><path class="cls-7" d="M107.79,39.53a.78.78,0,0,0,.5-1.09c-.31-.57-1.26-.27-1.76-.22-.35,0-.35.6,0,.56a5.8,5.8,0,0,1,1-.12c.53,0,.22.43.14.75a.1.1,0,0,0,.12.12Z"/><path class="cls-7" d="M106.85,38.59a.81.81,0,0,0,.48-.58.23.23,0,0,0-.1-.24c-.44-.33,0-.87.34-1a.92.92,0,0,1,1,.24,1.11,1.11,0,0,1,.29,1.08c-.11.37-.47.56-.56.93,0,.12,0,.31.18.33.76.1,1.2-.9,1.19-1.54a1.76,1.76,0,0,0-1.2-1.66,1.6,1.6,0,0,0-1.66.48,1,1,0,0,0,.23,1.5l-.1-.18a.64.64,0,0,1-.19.47.1.1,0,0,0,.12.16Z"/><path class="cls-7" d="M108.89,39.08a2.43,2.43,0,0,0,0-1.62,1.52,1.52,0,0,0-1.11-1.07.89.89,0,0,0-.94.91,1.36,1.36,0,0,0,.87,1.19c.44.22,1-.37.57-.74-.1-.08-.31-.32-.42-.35s-.06-.11-.1.06a1.16,1.16,0,0,1,.2.24,1.52,1.52,0,0,1,.26,1.2.34.34,0,0,0,.65.18Z"/><path class="cls-7" d="M86.43,37c-1.47,1-.91,3.59.37,4.5.26.18.52-.2.33-.42a3.15,3.15,0,0,1-1-2.05,5.6,5.6,0,0,1,.52-1.88.13.13,0,0,0-.19-.15Z"/><path class="cls-7" d="M87.1,41.35a1.1,1.1,0,0,0,.31-.57c0-.17-.18-.33-.32-.18a1,1,0,0,0-.27.59c0,.15.16.3.28.16Z"/><path class="cls-7" d="M87.36,40.82a.78.78,0,0,0-1.07-.09.17.17,0,0,0,0,.25.78.78,0,0,0,1.07-.08.11.11,0,0,0,0-.08Z"/><path class="cls-7" d="M86.58,40.61a2.74,2.74,0,0,1,.73-.75,1.54,1.54,0,0,0,.47-.37c.07-.08,0-.18-.11-.19-.62-.07-1.14.71-1.33,1.21-.06.14.16.22.24.1Z"/><path class="cls-7" d="M87.77,39.13a2.29,2.29,0,0,0-1-.06c-.35,0-.36.56,0,.55a2.36,2.36,0,0,0,1.08-.2.16.16,0,0,0,0-.29Z"/><path class="cls-7" d="M86.89,39.46a9.54,9.54,0,0,0,2.25-2c.11-.15-.09-.3-.23-.23a9.83,9.83,0,0,0-2.22,2c-.12.13,0,.37.2.26Z"/><path class="cls-7" d="M89,37.4a6.59,6.59,0,0,0-1.16.3c-.34.11-.76.1-1,.39a.14.14,0,0,0,0,.21c.36.18.74,0,1.1-.16a2.7,2.7,0,0,0,1.08-.61.08.08,0,0,0,0-.13Z"/><path class="cls-7" d="M87.13,38.32a1.14,1.14,0,0,0,.34-.59.18.18,0,0,0-.22-.22c-.3.06-.38.32-.39.6a.2.2,0,0,0,.11.18l.06,0a.09.09,0,0,0,.1,0Z"/><path class="cls-7" d="M87.34,37.68c0-.52-.69-.69-1.12-.65a.32.32,0,0,0-.3.4l0,.07a.31.31,0,0,0,.35.14c.36-.09.56.09.89.15a.12.12,0,0,0,.15-.11Z"/><path class="cls-7" d="M86.86,37.51c.09,0,.33.05.46.08s.24-.05.22-.18c-.06-.45-.57-.5-.92-.3s0,.53.24.4Z"/><path class="cls-7" d="M87,37.48a2.23,2.23,0,0,0-.58,1.7.27.27,0,0,0,.5.07,15.07,15.07,0,0,1,.49-1.53.24.24,0,0,0-.41-.24Z"/><path class="cls-7" d="M86.69,37.73a1.32,1.32,0,0,0-.37,1.79.24.24,0,0,0,.4-.1,4.4,4.4,0,0,0,0-.81c0-.27.1-.52.11-.78a.12.12,0,0,0-.18-.1Z"/><path class="cls-7" d="M86.22,38a2,2,0,0,0-.13,2.15c.22.37.85.13.7-.29a3.22,3.22,0,0,1-.25-1.73.17.17,0,0,0-.32-.13Z"/><path class="cls-7" d="M86.92,39.18a2.22,2.22,0,0,0,.48-.58.36.36,0,0,0-.06-.43l-.68-.6-.44.57a.8.8,0,0,1,.33.79c0,.24-.17.43-.11.68a.23.23,0,0,0,.23.17c.53,0,.67-.63.65-1a1.5,1.5,0,0,0-.73-1.23c-.35-.21-.78.31-.45.58l.71.58-.1-.25a1.21,1.21,0,0,1-.12.53.19.19,0,0,0,.29.23Z"/><path class="cls-7" d="M97.32,42.12c.13.53,1.22.34,1.21-.2a.12.12,0,0,0-.12-.12c-.18,0-.29.12-.46.16s-.37,0-.55,0a.11.11,0,0,0-.08.13Z"/><path class="cls-7" d="M94.89,42.14c.18.4.71.38,1.06.24a.27.27,0,0,0,.18-.24v-.07a.15.15,0,0,0-.11-.14c-.16-.06-.23,0-.4,0a4.24,4.24,0,0,1-.62,0,.14.14,0,0,0-.12.2Z"/><path class="cls-7" d="M95.78,40.74a1.36,1.36,0,0,1,1-.17.21.21,0,0,0,.1-.39,1.19,1.19,0,0,0-1.33.2c-.2.16.07.51.28.36Z"/><path class="cls-7" d="M92.77,38.12a2.09,2.09,0,0,0,2.84-.07.22.22,0,0,0-.24-.32,4,4,0,0,1-1.12.38A2.5,2.5,0,0,1,93,37.79c-.21-.1-.44.15-.26.33Z"/><path class="cls-7" d="M98.6,37.86c.51.64,1.69.53,2.38.3.3-.1.18-.58-.13-.48a3,3,0,0,1-1.15.15c-.35,0-.68-.15-1-.14a.1.1,0,0,0-.07.17Z"/><path class="cls-7" d="M90.55,47.93a2.86,2.86,0,0,0,.79,1.23,4.54,4.54,0,0,0,1.23,1,.14.14,0,0,0,.17-.22c-.38-.37-.81-.66-1.17-1a7.32,7.32,0,0,0-.91-1.08c-.06,0-.12,0-.11.08Z"/><path class="cls-7" d="M104.41,48.09c.86-1.05,1.69-3,1.27-4.32a.11.11,0,0,0-.2,0c-.27.67-.29,1.44-.5,2.14s-.5,1.38-.77,2.06c0,.11.13.21.2.12Z"/><path class="cls-7" d="M94.39,69.44a47.64,47.64,0,0,1,11.71-1.09c.22,0,.27-.34.05-.37-4.14-.73-8-.7-11.91,1.1-.22.1-.06.4.15.36Z"/><path class="cls-7" d="M105.56,77.79c1.16-.24,2.1-1.54,2.67-2.5a7,7,0,0,0,.88-3.87.06.06,0,1,0-.11,0,9.15,9.15,0,0,1-1.39,3.72c-.62,1-1.59,1.53-2.21,2.43-.08.11,0,.24.16.22Z"/><path class="cls-7" d="M92.48,64.22a1.49,1.49,0,0,0,1.87.59.23.23,0,0,0-.06-.42c-.26,0-.51,0-.77-.06a2.34,2.34,0,0,1-.74-.41c-.19-.13-.4.11-.3.3Z"/><path class="cls-7" d="M92.78,63.64c-.2.52.5.89.92.7a.77.77,0,0,0,0-1.35c-.54-.28-1.17.41-.63.82s1.07-.71.27-.88a.33.33,0,0,0-.25.61l.21.11c.15.06.28-.09.29-.22a.54.54,0,0,0,0-.18l-.42.33,0-.29h.32c.14.08.07.59-.11.62s-.33-.19-.4-.3a.13.13,0,0,0-.22,0Z"/><path class="cls-7" d="M106.41,60.18a.45.45,0,0,0,.72.42.47.47,0,0,0-.28-.83.26.26,0,0,0-.18.44c.07.11.12.08.16-.09s-.39-.16-.42.06Z"/><path class="cls-7" d="M106.51,61.26a1.11,1.11,0,0,0,.58-.46c0-.07,0-.19-.11-.18a1.13,1.13,0,0,0-.68.37c-.16.14,0,.36.21.27Z"/><path class="cls-7" d="M101,67a2.33,2.33,0,0,0-.49-1,.18.18,0,0,0-.3.08,1.07,1.07,0,0,0,.57,1.12A.15.15,0,0,0,101,67Z"/><path class="cls-7" d="M100.35,66.42c-.09.42.16,1,.66.89a.13.13,0,0,0,0-.21c-.25-.24-.52-.31-.66-.68,0,0,0,0-.05,0Z"/><path class="cls-7" d="M100.29,66.3a2.59,2.59,0,0,0-.65.89c-.06.15.16.26.26.15a2.6,2.6,0,0,0,.54-1,.09.09,0,0,0-.15-.08Z"/><path class="cls-7" d="M100.22,66.66a.45.45,0,0,0-.06.62c.19.25.55,0,.34-.26l-.08-.24c0-.11-.12-.21-.2-.12Z"/><path class="cls-7" d="M100.32,66.76a.38.38,0,0,0-.1.5.19.19,0,0,0,.22.09h.06a.11.11,0,0,0,.08-.1c0-.12-.06-.23,0-.34a.14.14,0,0,0-.23-.14Z"/><path class="cls-7" d="M100.16,66.38a1.75,1.75,0,0,0-.68.86c-.08.17.18.28.3.17a1.68,1.68,0,0,0,.54-.91.11.11,0,0,0-.16-.12Z"/><path class="cls-7" d="M100.06,66.06a2,2,0,0,0-.58,1c0,.17.21.23.32.13a1.94,1.94,0,0,0,.51-1,.15.15,0,0,0-.25-.15Z"/><path class="cls-7" d="M100.22,66a1.22,1.22,0,0,0,.58,1.13.2.2,0,0,0,.27-.27c-.15-.34-.43-.59-.58-.93a.15.15,0,0,0-.27.07Z"/><path class="cls-7" d="M99.34,76.24a2.67,2.67,0,0,0,.21,1.34.19.19,0,0,0,.34,0,2.5,2.5,0,0,0-.21-1.34.17.17,0,0,0-.34,0Z"/><path class="cls-7" d="M96.85,75.3c0,.7,1.36.85,1.81.64.25-.12.09-.43-.12-.46a5,5,0,0,1-1-.1c-.22-.07-.39-.21-.62-.14a.06.06,0,0,0-.05.06Z"/><path class="cls-7" d="M99.72,75.79c.62.31,1.61.51,2.14-.11.12-.16.06-.47-.19-.45a6.68,6.68,0,0,1-1.84.3c-.15,0-.27.18-.11.26Z"/><path class="cls-8" d="M85.32,59.51a3.87,3.87,0,0,0-1,2.45.52.52,0,0,0,.37.58c.45.11.57-.36.94-.46a.29.29,0,0,0-.08-.56.65.65,0,0,0-.46.16s-.24.3-.18.28a3.4,3.4,0,0,0,.07-.49,5.81,5.81,0,0,1,.7-1.69c.11-.22-.17-.46-.35-.27Z"/><path class="cls-8" d="M85.37,61.62a2,2,0,0,0-.4,1.17c0,.38-.1.94.22,1.2a.18.18,0,0,0,.28,0c.16-.33,0-.65,0-1s.16-.81.16-1.22a.17.17,0,0,0-.28-.12Z"/><path class="cls-8" d="M85.4,63.61c-1.54.78-3.59.46-4.73,1.92l.71.09-.54-.91a.44.44,0,0,0-.6-.15A5.4,5.4,0,0,0,78.57,66a.22.22,0,0,0,.24.31,5.37,5.37,0,0,0,1.87-1l-.6-.16.51.92a.46.46,0,0,0,.72.1c1.08-1.27,3.65-.7,4.28-2.42,0-.12-.1-.19-.19-.15Z"/><path class="cls-8" d="M78.78,66l-.07,0a.16.16,0,1,0,.22.22l0-.06c.09-.12-.09-.3-.2-.21Z"/><path class="cls-8" d="M111.56,56.43a15.31,15.31,0,0,0,2.31.58.61.61,0,0,0,.68-.88,2.62,2.62,0,0,0-1-1.12c-.61-.38-1.15.56-.56,1a1.41,1.41,0,0,1,.5.63l.74-.74a6.69,6.69,0,0,0-2.63-.25c-.47.07-.34.7,0,.83Z"/><path class="cls-8" d="M113.21,55.38A2.66,2.66,0,0,0,115,56.44a.46.46,0,0,0,.55-.56c-.19-.65-.74-1.87-1.54-1.9a.36.36,0,0,0-.34.45c.06.34.33.49.52.75a3.13,3.13,0,0,1,.49.94l.56-.55a7.92,7.92,0,0,0-1.88-.45.17.17,0,0,0-.14.26Z"/><path class="cls-8" d="M114,54.36a1.9,1.9,0,0,0,1.69.61.39.39,0,0,0,.17-.65,1.92,1.92,0,0,0-1.77-.31.21.21,0,0,0-.09.35Z"/><path class="cls-8" d="M115.25,54.42a2,2,0,0,0,1.26,2.46.42.42,0,0,0,.4-.53c-.15-.39-.51-.61-.73-1a7,7,0,0,0-.55-1,.24.24,0,0,0-.38.05Z"/><path class="cls-8" d="M115.83,56.46c-.77.84,0,2.37.68,3,.34.38.88-.18.55-.55a3.11,3.11,0,0,1-.71-1.31,4.32,4.32,0,0,0-.32-1.17.13.13,0,0,0-.2,0Z"/><path class="cls-8" d="M116.08,59.42c-.48,1.08.09,3,.65,4,.18.32.61.09.56-.23-.12-.68-.36-1.33-.5-2a5.11,5.11,0,0,0-.47-1.73.14.14,0,0,0-.24,0Z"/><path class="cls-8" d="M115,56.74a18.82,18.82,0,0,0,.57,2.53c.22,1.06.33,2.14.46,3.21a.31.31,0,0,0,.62,0c.23-1.83,0-4.46-1.17-5.94a.28.28,0,0,0-.48.2Z"/><path class="cls-8" d="M116.14,61.71a8.23,8.23,0,0,0,0,3,23,23,0,0,0,.37,3c.06.27.51.22.48-.06-.08-1.06-.26-2.11-.35-3.16a11,11,0,0,0-.31-2.75c0-.07-.14-.08-.16,0Z"/><path class="cls-8" d="M116.32,63.36a1.32,1.32,0,0,0,.17.66.19.19,0,0,0,.34,0,1.05,1.05,0,0,0,0-.61c0-.34-.57-.35-.54,0Z"/><path class="cls-8" d="M116.71,63.17a1,1,0,0,0,.29.92c.07.06.23,0,.25-.07a1,1,0,0,0-.4-.91.08.08,0,0,0-.14.06Z"/><path class="cls-8" d="M115.19,56.44c.16.4.19.83.36,1.23a.37.37,0,0,0,.73-.1,2.16,2.16,0,0,0-.55-1.36c-.18-.24-.67-.11-.54.23Z"/><path class="cls-8" d="M113.47,57.19a16.57,16.57,0,0,1,1.24,3.41c.2.81.14,1.82.71,2.46a.19.19,0,0,0,.29,0c.49-.8.06-2-.17-2.87a13.39,13.39,0,0,0-1.5-3.29.33.33,0,0,0-.57.33Z"/><path class="cls-8" d="M114.43,57.38a18.88,18.88,0,0,1,.64,2.19,11.77,11.77,0,0,0,.43,2.06c.14.33.66.21.75-.1.38-1.43-.54-3.21-1.3-4.37-.17-.25-.64-.1-.52.22Z"/><path class="cls-8" d="M114.44,56.8a7.22,7.22,0,0,0,.3,1.84c.15.48.28,1.06.81,1.21a.25.25,0,0,0,.29-.12c.32-.44,0-1-.13-1.47a6.89,6.89,0,0,0-.85-1.58.23.23,0,0,0-.42.12Z"/><path class="cls-8" d="M114.65,57.55a1.77,1.77,0,0,1,.46-.63.51.51,0,1,0-.62-.81,1.13,1.13,0,0,0-.3,1.44.26.26,0,0,0,.46,0Z"/><path class="cls-8" d="M114.41,57.32a1.67,1.67,0,0,0,.73-.42.23.23,0,0,0-.22-.39,1.58,1.58,0,0,0-.73.44c-.16.14,0,.46.22.37Z"/><path class="cls-8" d="M101.37,51.38c1.56,0,3.23-1.13,4.27-2.22a5.82,5.82,0,0,0,1.65-4.61.26.26,0,0,0-.51-.07A11.72,11.72,0,0,1,105,48.56c-1,1.34-2.3,1.75-3.66,2.56a.14.14,0,0,0,.07.26Z"/><path class="cls-8" d="M108.75,46.86c.31,0,.55.37.86.42a.66.66,0,0,0,.57-.16c.56-.47.17-1.14.33-1.73.12-.43-.57-.62-.67-.18a1.83,1.83,0,0,0,0,.66c0,.24.18.88-.26.71s-.61-.39-.93,0c-.08.1,0,.32.13.3Z"/><path class="cls-8" d="M110,45.19a.6.6,0,0,0,.91.47c.6-.33.35-1.09,0-1.5s-.93.11-.69.54c0,.08.09.16.13.25a.24.24,0,0,0,.21.17c-.11-.28-.6-.28-.56.07Z"/><path class="cls-8" d="M120.79,48.83a3.18,3.18,0,0,0,1.92-.19,7.42,7.42,0,0,0,2-.85c.9-.62.35-2.1-.71-1.53-.53.29-.16,1.23.43,1l.12-.05-.43-.06c-.07-.24-.19-.26-.36-.07l-.45.25c-.34.17-.7.32-1.06.47a4.61,4.61,0,0,0-1.51.69.2.2,0,0,0,.09.33Z"/><path class="cls-8" d="M124.17,46.61a2.5,2.5,0,0,0,1.36-.44,5.57,5.57,0,0,0,1.23-1,.48.48,0,0,0-.21-.8l-.3-.11c-.59-.21-.87.78-.26.95l.3.08-.21-.8a6,6,0,0,1-1,1,8.2,8.2,0,0,0-1,.8.17.17,0,0,0,.12.29Z"/><path class="cls-8" d="M126,44.9a4.06,4.06,0,0,0,1.92-2.27.52.52,0,0,0-.13-.51.59.59,0,0,0-.23-.13.54.54,0,0,0-.59.23c-.27.36-.44.79-.68,1.17a9.55,9.55,0,0,0-.61,1.19.24.24,0,0,0,.32.32Z"/><path class="cls-8" d="M84.88,59.72a4.58,4.58,0,0,0-1,1.4,2.19,2.19,0,0,0-.31,1.34c.27,1,1.55.59,1.83-.16a.36.36,0,0,0-.52-.4c-.11.06-.46.36-.52.31s.22-.71.25-.78a15.05,15.05,0,0,1,.75-1.36c.17-.28-.22-.56-.45-.35Z"/><path class="cls-8" d="M84.81,62.44a5,5,0,0,0-.39,1.42c0,.24.35.41.51.21a1.69,1.69,0,0,0,.2-1.68c-.06-.15-.27-.07-.32,0Z"/><path class="cls-8" d="M84.67,63.12c-.49,0-1,.35-1.42.55a14.27,14.27,0,0,1-1.88.72c-.5.16-.29,1,.21.78a11.39,11.39,0,0,0,1.93-.84c.44-.24,1.11-.55,1.26-1.07,0-.07,0-.13-.1-.14Z"/><path class="cls-8" d="M81.59,64.49a.72.72,0,0,1-.33.21q-.27.18-.42-.27c.12-.28-.27-.55-.51-.4a5.65,5.65,0,0,0-1.23,1c-.28.34-.68.76-.62,1.22a.25.25,0,0,0,.38.22c.36-.17.52-.6.78-.9a5.37,5.37,0,0,1,1-1l-.51-.39a.84.84,0,0,0,.52,1.08,1.06,1.06,0,0,0,1.22-.6.2.2,0,0,0-.32-.24Z"/><path class="cls-8" d="M82,51.57c.47.59,1.72.77,2.05-.07a.3.3,0,0,0-.28-.37c-.24,0-.42.16-.66.21a1.47,1.47,0,0,1-.85-.12.22.22,0,0,0-.26.35Z"/><path class="cls-8" d="M86.06,43.33a1.46,1.46,0,0,0,1.51-.53.26.26,0,0,0-.29-.38A4.2,4.2,0,0,0,86,43a.16.16,0,0,0,0,.3Z"/><path class="cls-8" d="M87.82,37.64a3.08,3.08,0,0,0,1.06-.76c.12-.15,0-.46-.22-.37a3.2,3.2,0,0,0-1.08.82.2.2,0,0,0,.24.31Z"/><path class="cls-8" d="M86.94,42.57c.29-.23.64-.4.7-.78a.17.17,0,0,0-.2-.21c-.38.07-.55.42-.78.71a.2.2,0,0,0,.28.28Z"/><path class="cls-8" d="M104.63,38c.33.27.88.61,1.24.23a.21.21,0,0,0,0-.28c-.29-.25-.63-.14-1-.3s-.47.17-.27.35Z"/><path class="cls-8" d="M105.16,37.46h.19c.31,0,.37-.39.15-.54l-.16-.11c-.45-.31-.8.62-.18.65Z"/><path class="cls-8" d="M114.41,48.62c.53.05,1.39.13,1.72-.36A.18.18,0,0,0,116,48a.89.89,0,0,0-.62.06,4.75,4.75,0,0,1-1,.16.2.2,0,0,0,0,.4Z"/><path class="cls-8" d="M115.93,48.2c-.09.32-.36.51-.48.8a.16.16,0,0,0,.15.2c.51,0,.64-.56.55-1,0-.11-.18-.1-.22,0Z"/><path class="cls-8" d="M78,58l-.7.26a.29.29,0,0,0-.18.42c.19.33.54.73,1,.57a.24.24,0,0,0,.14-.35c-.15-.25-.41-.28-.59-.51l-.1.4.65-.38c.22-.13.08-.5-.17-.41Z"/><path class="cls-8" d="M69.9,45.87a1.93,1.93,0,0,0,.15,1.85c.17.2.43,0,.39-.23a2.54,2.54,0,0,1,0-1.47c.13-.33-.41-.48-.53-.15Z"/><path class="cls-8" d="M87.11,55.3c.19.54.67,1.3,1.31,1.31a.2.2,0,0,0,.17-.3c-.13-.22-.33-.31-.52-.48a3.09,3.09,0,0,1-.55-.7c-.13-.2-.5-.07-.41.17Z"/><path class="cls-8" d="M113.29,74.61a13.66,13.66,0,0,1-.24,1.56,6,6,0,0,0-.29,1.31.34.34,0,0,0,.58.24,4.09,4.09,0,0,0,.45-3.18c-.06-.31-.47-.2-.5.07Z"/><path class="cls-8" d="M111,79.94c-.33.14-.68.18-1,.33a.26.26,0,0,0,.06.47,1.42,1.42,0,0,0,1.28-.37c.26-.21-.08-.55-.34-.43Z"/><path class="cls-9" d="M105.93,34.73a9.27,9.27,0,0,0-4.55-7.38.19.19,0,0,0-.28.21c.15.73.29,1.45.47,2.17.05.21.35.12.32-.09-.12-.73-.27-1.45-.42-2.18l-.28.22a10.36,10.36,0,0,1,4.55,7.07c0,.11.2.09.19,0Z"/><path class="cls-9" d="M101.7,29.63a7.54,7.54,0,0,0-5.79-3.79c-.18,0-.26.24-.14.35A4,4,0,0,1,97,28.3c.06.26.44.15.39-.11a4.21,4.21,0,0,0-1.28-2.29l-.15.35a8,8,0,0,1,5.55,3.52.14.14,0,0,0,.24-.14Z"/><path class="cls-9" d="M97,28.35a8.83,8.83,0,0,0-6.59-1.55c-.19,0-.16.3,0,.35A5.39,5.39,0,0,1,93.17,29c.14.18.39-.07.25-.25a5.66,5.66,0,0,0-2.92-2v.35a9.42,9.42,0,0,1,6.4,1.38c.12.08.21-.1.1-.18Z"/><path class="cls-9" d="M92.84,29.19a10.66,10.66,0,0,0-6.06,1.32c-.14.08-.09.33.08.31a9.4,9.4,0,0,1,3.21.26c.14,0,.24-.18.1-.24a6.22,6.22,0,0,0-3.31-.35l.09.31a10.56,10.56,0,0,1,5.89-1.4c.14,0,.14-.2,0-.21Z"/><path class="cls-9" d="M90,31.11a8.23,8.23,0,0,0-3.36,2.4c-.08.09,0,.26.1.25.88-.06,1.76-.09,2.63-.19.19,0,.2-.31,0-.3-.87,0-1.75.12-2.63.2l.1.25A7.75,7.75,0,0,1,90,31.31c.12,0,.07-.25-.06-.2Z"/><path class="cls-9" d="M88.8,33.25a5,5,0,0,0-1,2.8c0,.07.11.13.15,0a9,9,0,0,0,.35-1.26A6.76,6.76,0,0,1,89,33.36a.11.11,0,0,0-.18-.11Z"/><path class="cls-9" d="M86.54,42.8c-1,.49-2,1-3,1.45-.08,0-.06.2,0,.21a1.76,1.76,0,0,0,1.55-.35A.07.07,0,0,0,85,44a2.75,2.75,0,0,1-1.42.25l0,.21,3-1.52c.09,0,0-.18-.08-.13Z"/><path class="cls-9" d="M84.48,44.58a3.78,3.78,0,0,0-1.38,2.26.15.15,0,0,0,.25.14,3.52,3.52,0,0,0,.89-.78c.05-.07,0-.17-.1-.14a4.33,4.33,0,0,0-1,.71l.25.11a2.83,2.83,0,0,1,1.17-2.16c.08-.06,0-.2-.08-.14Z"/><path class="cls-9" d="M84.28,46.08a3.79,3.79,0,0,0-.67,3,.14.14,0,0,0,.17.09,2.28,2.28,0,0,0,1.44-.85c0-.05,0-.14-.09-.11a14.31,14.31,0,0,1-1.42.69l.17.1a3.89,3.89,0,0,1,.54-2.78c.06-.1-.08-.17-.14-.09Z"/><path class="cls-9" d="M108.92,41a2.36,2.36,0,0,1,1.21,1.68l.29-.17a1,1,0,0,0-.59-.34.18.18,0,0,0-.21.12.31.31,0,0,0,.21.46.09.09,0,0,0,.1-.14c.1-.07.18,0,.24.14a.18.18,0,0,0,.3-.17A2.31,2.31,0,0,0,109,40.8c-.1,0-.17.12-.08.17Z"/><path class="cls-9" d="M109.73,42.71a6.38,6.38,0,0,1,.6,2.21l.24-.18a1.74,1.74,0,0,0-.64-.05c-.11,0-.11.18,0,.23a1.6,1.6,0,0,0,.57.19.2.2,0,0,0,.24-.19,5,5,0,0,0-.72-2.36.15.15,0,0,0-.26.15Z"/><path class="cls-9" d="M109.81,45.16c0,.44,0,.87,0,1.31l.2-.16c-.32-.07-.65-.14-1-.23s-.32.32-.09.36l1,.18a.16.16,0,0,0,.21-.15V45.16a.15.15,0,0,0-.3,0Z"/><path class="cls-9" d="M85.16,50a3.32,3.32,0,0,1-3.63.85.15.15,0,0,0-.17.21,2.65,2.65,0,0,0,1,.89.12.12,0,0,0,.12-.21,2.81,2.81,0,0,1-.86-.82l-.16.21a3.38,3.38,0,0,0,3.88-1c.07-.09-.08-.2-.17-.12Z"/><path class="cls-9" d="M81.8,51.94c-.92-.77-1.83-1.57-2.77-2.33a.17.17,0,0,0-.28.12,3.56,3.56,0,0,0,.46,2.09c.1.17.33,0,.26-.15a4,4,0,0,1-.39-1.94l-.28.11c1,.77,1.94,1.48,2.91,2.23.07,0,.16-.07.09-.13Z"/><path class="cls-9" d="M78.28,51.56a4.63,4.63,0,0,1-1.34-1.63c-.07-.13-.25,0-.23.1l.12.65c0,.15.25.08.23-.07S77,50.18,77,50l-.25.06a3.44,3.44,0,0,0,1.48,1.69c.1.06.18-.09.09-.16Z"/><path class="cls-9" d="M76.69,49.85l-.32-1.51a.11.11,0,0,0-.22,0,8,8,0,0,0-.31.86.09.09,0,0,0,.17.07,7.25,7.25,0,0,0,.36-.87h-.22l.33,1.51c0,.14.24.08.21-.06Z"/><path class="cls-9" d="M75.9,48.24l-.1-1.75c0-.09-.11-.17-.19-.11a1.27,1.27,0,0,0-.63,1,.09.09,0,0,0,.16,0,1.84,1.84,0,0,1,.6-.81l-.19-.1.11,1.75c0,.15.25.15.24,0Z"/><path class="cls-9" d="M74.77,46.37a4.83,4.83,0,0,1,.51-2.87c.07-.14-.13-.26-.21-.13s-.23.42-.33.64a.11.11,0,0,0,.18.11c.13-.21.24-.42.36-.62l-.21-.13a4.64,4.64,0,0,0-.43,3c0,.07.14.06.13,0Z"/><path class="cls-9" d="M75,43.44l1-2.36c0-.1-.08-.24-.18-.13s-.43.48-.64.73.06.26.16.16.43-.49.64-.74L75.8,41c-.31.79-.63,1.58-1,2.38,0,.08.11.14.14.06Z"/><path class="cls-9" d="M75.05,41.33s0,0,0,0,0,0,0,0Z"/><path class="cls-9" d="M75,41.32a7.5,7.5,0,0,0,.74-1.4c.24-.48.48-1,.69-1.44a.12.12,0,0,0-.19-.14,1.6,1.6,0,0,0-.39.43,0,0,0,0,0,0,.07,1.43,1.43,0,0,0,.51-.34l-.18-.14c-.26.51-.49,1-.72,1.55A7.17,7.17,0,0,0,75,41.29a0,0,0,0,0,.06,0Z"/><path class="cls-9" d="M76.05,38.36c.48-.71,1-1.42,1.46-2.12.07-.1-.07-.23-.17-.17l-1,.64c-.14.08,0,.3.12.22l1-.65-.16-.16-1.4,2.14c-.07.1.09.19.15.1Z"/><path class="cls-9" d="M79.11,35.29s0,0,0,0,0,0,0,0Z"/><path class="cls-9" d="M76.51,36.51a6.77,6.77,0,0,1,1.84-3.45.11.11,0,0,0-.08-.19l-.73.09c-.11,0-.09.22,0,.21l.7-.07-.08-.19a5.14,5.14,0,0,0-1.81,3.59.07.07,0,0,0,.13,0Z"/><path class="cls-9" d="M77.85,32.84,79,30.78a.13.13,0,0,0-.2-.15l-.76.61c-.13.1,0,.28.17.18L79,30.8l-.2-.15-1.08,2.1c0,.1.1.19.15.09Z"/><path class="cls-9" d="M78.77,30.61c.18-.39.37-.78.55-1.18.05-.1,0-.25-.17-.17a3.38,3.38,0,0,0-.63.5s0,.16.08.13a3.62,3.62,0,0,0,.68-.41l-.17-.17c-.18.4-.35.8-.53,1.19-.06.13.13.24.19.11Z"/><path class="cls-9" d="M79.23,29.31,80,28c.07-.12-.07-.28-.19-.2a2.63,2.63,0,0,0-.74.62.08.08,0,0,0,.09.12,2.82,2.82,0,0,0,.79-.49l-.19-.2L79,29.17a.14.14,0,0,0,.24.14Z"/><path class="cls-9" d="M71.79,32.88a1,1,0,0,1-.33-.53c0-.15-.27-.11-.26,0a6.39,6.39,0,0,0,.15,1.86c0,.08.16.1.18,0a5.83,5.83,0,0,0-.06-1.86l-.27,0a.62.62,0,0,0,.53.57s.11-.06.06-.11Z"/><path class="cls-9" d="M71.12,34.68l-.34-.1a.13.13,0,0,0-.16.08,2.78,2.78,0,0,0,0,1.59.13.13,0,0,0,.24-.07,3.73,3.73,0,0,1,0-1.45l-.15.09.34.1c.16,0,.22-.2.07-.24Z"/><path class="cls-9" d="M70.94,37c-.28.12-.48.06-.59-.2a.16.16,0,0,0-.3.09,3.62,3.62,0,0,1-.21,1.46c-.07.2.25.29.32.09a3.59,3.59,0,0,0,.22-1.55l-.31.08a.64.64,0,0,0,1,.19c.09-.07,0-.23-.1-.16Z"/><path class="cls-9" d="M70,38.92l-.41-.29c0-.14-.22-.1-.23,0a18.34,18.34,0,0,0-.11,2.22c0,.13.22.18.24,0a18.73,18.73,0,0,0,.1-2.25l-.23,0a.52.52,0,0,0,.66.4c.09,0,.07-.18,0-.17Z"/><path class="cls-9" d="M69,41.49l-.73-.37a.12.12,0,0,0-.16.16c.21.4.43.8.65,1.2.07.13.28,0,.21-.12l-.66-1.2-.13.18.76.31c.09,0,.15-.11.06-.16Z"/><path class="cls-9" d="M68.55,42.65l-.65.19.14.08c0-.09-.07-.17-.11-.26s-.27-.09-.23.06c.15.53.28,1.07.45,1.59a.12.12,0,0,0,.23-.06c-.14-.54-.3-1.06-.45-1.59l-.22.09.12.26a.11.11,0,0,0,.13.05l.64-.22c.12,0,.07-.23,0-.19Z"/><path class="cls-9" d="M67.85,44.73a1.16,1.16,0,0,1-1,0c-.1,0-.18.07-.16.15.18.83.31,1.68.55,2.49,0,.14.23.07.21-.06-.11-.84-.34-1.67-.51-2.49L66.8,45A1.35,1.35,0,0,0,68,44.91c.13-.06,0-.24-.11-.18Z"/><path class="cls-9" d="M67.15,47.41a.59.59,0,0,0-.74.22.11.11,0,0,0,.07.16,1.33,1.33,0,0,1,.83.56c0,.07.16,0,.14-.08a1.08,1.08,0,0,0-.92-.69l.07.16.51-.16c.1,0,.15-.13,0-.17Z"/><path class="cls-9" d="M66.67,48.41a6.1,6.1,0,0,0-.27,1.12.08.08,0,0,0-.14.06c0,.12-.06,1.35-.27,1.23a.07.07,0,0,0-.11.08,8.88,8.88,0,0,1,.43,2.17s.09.06.09,0c0-.39.08-1.66-.24-1.92a.1.1,0,0,0,.17-.07c0-.16.1-1.26.18-1.16s.18,0,.17-.07a3.27,3.27,0,0,1,.17-1.39c0-.12-.14-.17-.18-.05Z"/><path class="cls-9" d="M66.41,53.77l-.11-.07a.06.06,0,0,0-.08,0l-.12,0a.08.08,0,0,0,0,.1c.16.44.34.87.47,1.32l.19-.14-.41-.19a.12.12,0,0,0-.18.14,2.22,2.22,0,0,0,.68,1.16l0-.22-.64.29a.14.14,0,0,0,0,.22,3.08,3.08,0,0,1,.64,1.16.14.14,0,1,0,.27-.07,3.14,3.14,0,0,0-.71-1.29l0,.22.63-.29A.13.13,0,0,0,67,56a1.84,1.84,0,0,1-.64-1l-.18.14.4.2a.13.13,0,0,0,.17-.17s-.39-1.14-.44-1.18.16-.07.08-.13Z"/><path class="cls-9" d="M67.23,58.69a.59.59,0,0,0-.7.08.12.12,0,0,0,0,.16c.24.22.49.42.74.63l.06-.21-.43.1a.12.12,0,0,0-.07.18,1.38,1.38,0,0,0,.57.6l-.05-.18-.18.42a.13.13,0,0,0,.06.15,5.1,5.1,0,0,0,.89.41.09.09,0,0,0,.08-.17,5.79,5.79,0,0,0-.84-.47l0,.19.18-.43s0-.12-.06-.15a1.22,1.22,0,0,1-.48-.5l-.08.19.42-.1a.13.13,0,0,0,.06-.21c-.26-.21-.52-.42-.79-.62l0,.17.48-.12c.08,0,.15-.08.07-.12Z"/><path class="cls-9" d="M67.88,61.63l-.43.15a.12.12,0,0,0,0,.22,7,7,0,0,0,1.55.93c.07,0,.11-.07.07-.12a6.75,6.75,0,0,0-1.51-1V62l.39-.24c.06,0,0-.16-.05-.13Z"/><path class="cls-9" d="M69.41,63.09l-.57.31a.1.1,0,0,0,0,.17,7,7,0,0,0,2.44.92c.17,0,.24-.22.07-.25a8.32,8.32,0,0,1-2.41-.84v.17a6.55,6.55,0,0,0,.53-.39s0-.11-.06-.09Z"/><path class="cls-9" d="M71.49,64.57a2.2,2.2,0,0,0,1.48.3l-.09-.23-.55.5a.14.14,0,0,0,.09.24l.85.05-.15-.19a.56.56,0,0,0,.16.69c.06,0,.18,0,.15-.09a.72.72,0,0,1,0-.52c0-.1-.06-.19-.15-.2l-.85,0,.1.24.55-.51c.11-.1,0-.24-.13-.22a2.51,2.51,0,0,1-1.35-.21.1.1,0,0,0-.1.17Z"/><path class="cls-9" d="M73.37,66a1,1,0,0,0,.92.21s0-.1,0-.09a1.28,1.28,0,0,1-.85-.21c-.06-.05-.11,0-.06.09Z"/><path class="cls-9" d="M75.51,66.1l.76-.2-.09-.15A3.65,3.65,0,0,0,75.45,67c0,.1.08.19.17.17a5.61,5.61,0,0,0,1.81-.78c.16-.11,0-.36-.15-.26a6.4,6.4,0,0,1-1.73.77l.17.17a3.37,3.37,0,0,1,.61-1.19.09.09,0,0,0-.1-.14l-.76.22c-.1,0-.06.19,0,.16Z"/><path class="cls-9" d="M77.43,66.34a.76.76,0,0,0,.08.7.12.12,0,0,0,.16,0c.32-.23.64-.48,1-.72l-.18-.14c0,.21-.07.42-.11.63s.09.22.2.15c.61-.42,1.26-.81,1.83-1.29.11-.09,0-.25-.15-.19-.63.36-1.22.83-1.82,1.25l.2.15.09-.67c0-.12-.14-.14-.21-.08l-.94.73h.17l-.17-.55s-.08-.06-.1,0Z"/><path class="cls-9" d="M80.52,65.8l.21.68a.13.13,0,0,0,.21,0l1-.77a3.07,3.07,0,0,0,.77-.71s0-.13-.08-.11a3,3,0,0,0-.81.58l-1,.83.21.06-.25-.66c0-.12-.24-.08-.2,0Z"/><path class="cls-9" d="M82.63,65a.53.53,0,0,0,.1.51.13.13,0,0,0,.2,0l1-.92-.23-.09c0,.16,0,.31,0,.47a.15.15,0,0,0,.23.13l.84-.62-.2-.15c0,.11-.08.23-.13.35s.11.22.2.15l1.35-1c.12-.1,0-.33-.14-.23l-1.34,1,.2.15.12-.35c0-.11-.1-.22-.2-.15-.28.19-.57.39-.85.6L84,65c0-.16,0-.31,0-.47a.14.14,0,0,0-.23-.1l-.48.47c-.06,0-.43.5-.37.18,0-.16-.21-.22-.24-.07Z"/><path class="cls-9" d="M85.74,60.31a2.18,2.18,0,0,0,.11,1.14.08.08,0,0,0,.14,0,2.18,2.18,0,0,0,.11-1.14.18.18,0,0,0-.36,0Z"/><path class="cls-9" d="M85.68,59.7c-.39.12-.64.6-.81.94A3.54,3.54,0,0,0,84.54,62a.18.18,0,0,0,.3.13A15.39,15.39,0,0,0,86,61.08a.19.19,0,0,0-.22-.29l-.16.1a.09.09,0,0,0,0,.17.64.64,0,0,0,.18.06l-.08-.3a13.6,13.6,0,0,0-1.19,1.09l.3.12a3.31,3.31,0,0,1,.31-1.38,8.11,8.11,0,0,0,.54-.89.05.05,0,0,0-.06-.06Z"/><path class="cls-9" d="M85.63,61.17c-.11.76-.21,1.52-.3,2.29,0,.15.19.21.29.12a3.81,3.81,0,0,0,.85-.9.12.12,0,0,0-.17-.17,3.45,3.45,0,0,0-.92.83l.29.12c0-.76.07-1.52.1-2.27,0-.08-.13-.1-.14,0Z"/><path class="cls-9" d="M86.21,63.61c-.2.41-.41,1.09.14,1.34s.83-.34,1-.73l-.17.13v.08a.11.11,0,0,0,.13.13c.38-.08.18-.53-.12-.56a.17.17,0,0,0-.17.13c-.09.25-.09.31-.38.35s-.33.06-.25-.2a.61.61,0,0,1,.12-.52c.08-.17-.18-.32-.26-.15Z"/><path class="cls-9" d="M87.05,64.8c.07.65.13,1.3.19,2a.13.13,0,0,0,.24.06c.46-.64.49-.2.7.45,0,.09.15.16.23.09.65-.49.07.21.39,1a.17.17,0,0,0,.32,0c-.12.39.21,1,.37,1.37a.18.18,0,0,0,.3,0,6.37,6.37,0,0,0,0,1.32c0,.18.3.24.33,0L90,72.24a.11.11,0,0,0,.19.08c.3-.41.22-.21.29-.71,0-.11-.15-.17-.18,0l-.42,1.93a.11.11,0,0,0,.21.06c-.16.41-.29,1-.42,1.49a.1.1,0,0,0,.18.08,1.68,1.68,0,0,1-.29,1,.09.09,0,0,0,.11.1l.87-.27c.12,0,.06-.23,0-.19-.9.31-.4-.76-.23-1.29,0-.06-.08-.13-.12-.07s.25-1.65.25-1.64-.08-.11-.12,0c-.2.38.07-1,.07-1.11a4.54,4.54,0,0,0-.09-1.33c0-.12-.2-.1-.23,0a11.33,11.33,0,0,0,0-1.24.15.15,0,0,0-.28-.07,1.68,1.68,0,0,1-.51-1.3c0-.17-.28-.15-.32,0a1,1,0,0,1-.24-.93c0-.19-.29-.12-.31,0a4.26,4.26,0,0,1-.35-.92.15.15,0,0,0-.27,0c-.61.92-.53-.58-.61-1.08,0-.07-.12-.05-.12,0Z"/><path class="cls-9" d="M90,76.28c-.43.85-.83,1.72-1.28,2.56-.08.15.09.34.24.24.75-.45.37-.48.08.17a.18.18,0,0,0,.32.18,3.18,3.18,0,0,0-.58,1.27.19.19,0,0,0,.31.18c-.26.23.34-.25.3-.31S89.05,82,89,82.05a.19.19,0,0,0,.32.13c.73-.79.21-.09.23.86,0,.15.22.28.34.14-.3.37-.1.93,0,1.44a.22.22,0,0,0,.41,0l.09-.35c.06-.22-.29-.39-.39-.16a1.88,1.88,0,0,0,.38,2.31.22.22,0,0,0,.36-.09c.09-.56-.26-.55-.32-.31s.26.92.36,1.15.39.09.41-.11l0-.73c0-.28-.42-.28-.44,0l.09-.94c0-.24-.39-.3-.42-.06q-.28,2.19-.24-2.64a.2.2,0,0,0-.37-.15c.16-.21,0-1.13,0-1.32a.19.19,0,0,0-.38,0c-.27.74,0-.9,0-1,0-.23-.3-.23-.37,0,0-.08.37-.81.46-1.12a.18.18,0,0,0-.33-.14l.53-.57c.07-.16-.13-.37-.27-.2a15.56,15.56,0,0,0,.63-1.74c0-.12-.12-.22-.18-.11Z"/><path class="cls-9" d="M90.13,85.72a3.68,3.68,0,0,0-2.24-.56.2.2,0,0,0-.17.29l.43.79.22-.28-2.29-.34a.2.2,0,0,0-.22.29l.43.74a.18.18,0,0,0,.31-.18l-.41-.76L86,86l2.29.33a.2.2,0,0,0,.22-.28l-.43-.8-.17.29a5.91,5.91,0,0,1,2.16.36c.11,0,.17-.12.08-.18Z"/><path class="cls-9" d="M85.62,86.32c-.63-.21-1.25-.41-1.88-.64a.18.18,0,0,0-.22.23l.38.91.23-.23-1.55-.28a.2.2,0,0,0-.22.28c.06.14.13.27.19.41l.11-.28a1.58,1.58,0,0,1-1-.11.15.15,0,0,0-.14.24,1.26,1.26,0,0,0,1.21.24.2.2,0,0,0,.12-.28c-.07-.14-.13-.28-.19-.41l-.21.27L84,87a.19.19,0,0,0,.21-.28l-.39-.91-.2.28c.64.16,1.27.34,1.91.53.16.05.22-.2.06-.25Z"/><path class="cls-9" d="M81.36,86.92c-.48-.18-1-.36-1.44-.55a.2.2,0,0,0-.25.24,1.48,1.48,0,0,0,.6.79l.16-.37-2-.45a.21.21,0,0,0-.24.3.92.92,0,0,0,.61.53l.1-.39-1.11-.21a.2.2,0,0,0-.24.25l.12.53c0,.25.42.15.37-.1L78,87l-.24.24,1.11.22a.2.2,0,0,0,.1-.39l-.35-.35-.23.31,2,.44a.2.2,0,0,0,.15-.37l-.41-.54-.25.24,1.45.53c.22.08.32-.28.1-.36Z"/><path class="cls-9" d="M77.34,87.44l-1-.88c-.13-.1-.39,0-.31.18l.4,1.05.24-.24-1.3-.4a.21.21,0,0,0-.23.3l.29.55.22-.29a5.85,5.85,0,0,0-1.29-.34c-.16,0-.2.21-.08.29a6.37,6.37,0,0,0,1.27.44.2.2,0,0,0,.22-.3l-.28-.56-.23.3,1.31.38c.13,0,.29-.1.23-.23-.14-.35-.28-.7-.41-1l-.28.22c.37.27.74.52,1.11.8.12.09.28-.12.16-.22Z"/><path class="cls-9" d="M73.67,87.7l-.73-.24c-.12,0-.27.09-.22.21l.28.73.26-.2-1.59-1a.19.19,0,0,0-.27.11,1.71,1.71,0,0,0,.2,1.21.18.18,0,0,0,.31-.18,1.37,1.37,0,0,1-.15-.93l-.27.11,1.59,1c.13.07.32-.06.26-.2l-.28-.73-.22.21.74.24c.21.07.3-.26.09-.33Z"/><path class="cls-9" d="M71.57,88.73a25.77,25.77,0,0,1-2.4-1.22c-.2-.14-.39.12-.31.3a5.25,5.25,0,0,0,1.29,1.7l.22-.37-2.51-.44c-.17,0-.38.16-.25.33a4.09,4.09,0,0,0,1.54,1.35l0-.4-1.7.71a.22.22,0,0,0,0,.42,3.81,3.81,0,0,0,2,.25.17.17,0,0,0,0-.34,4.1,4.1,0,0,1-1.8-.31l0,.4,1.7-.71a.22.22,0,0,0,.06-.4A3.3,3.3,0,0,1,68,88.81l-.26.33,2.51.43c.2,0,.4-.21.22-.38a4.87,4.87,0,0,1-1.22-1.6l-.31.3a4.87,4.87,0,0,0,2.58,1,.11.11,0,0,0,0-.2Z"/><path class="cls-9" d="M69.06,91.21c-.39.46-.75,1-1.17,1.39a.17.17,0,0,0,.08.27c.44.07.89.11,1.34.15l-.17-.28-1,1.49a.19.19,0,0,0,.17.29,2.77,2.77,0,0,0,2.09-.67.17.17,0,0,0-.2-.27,3.19,3.19,0,0,1-1.89.55l.17.29,1-1.49a.19.19,0,0,0-.16-.28c-.44,0-.87-.09-1.3-.1l.14.25c.32-.51.71-1,1-1.48,0-.09-.07-.19-.14-.11Z"/><path class="cls-9" d="M70.05,94c0,.3-.06.59-.1.89a.1.1,0,0,0,.17.07,4.2,4.2,0,0,1,1-.87c.35-.21.75-.29,1.1-.49.07,0,0-.13,0-.14A3.25,3.25,0,0,0,70,94.84l.17.07c0-.3,0-.6,0-.89,0-.09-.12-.08-.12,0Z"/><path class="cls-9" d="M72,93.68a.45.45,0,0,0,.2.76c.84.27,1.12-1.15,2-.88.14,0,.2-.17.06-.23a.78.78,0,0,0-.77.13,1.88,1.88,0,0,0-.35.34c-.08.08-.14.16-.22.23l-.16.13c-.23.2-.44.07-.63-.4.06-.05,0-.13-.09-.08Z"/><path class="cls-9" d="M74.57,93a1.94,1.94,0,0,0-.25.42.11.11,0,0,0,.15.15c.39-.2.77-.41,1.15-.62a2.16,2.16,0,0,0,.81-.55s0-.11-.07-.11a2.23,2.23,0,0,0-.88.42l-1.12.67.16.12a1.7,1.7,0,0,0,.15-.45c0-.05-.06-.1-.1-.05Z"/><path class="cls-9" d="M76.5,92.54a.74.74,0,0,0-.1.6.12.12,0,0,0,.18.07l1.73-.94c.15-.09,0-.33-.15-.24l-1.7,1,.18.08,0-.42a.11.11,0,1,0-.19-.11Z"/><path class="cls-9" d="M78.48,92.1c-.14.21-.29.42-.44.62s0,.21.13.17c.74-.27,1.47-.59,2.2-.89.11-.06,0-.27-.09-.22-.74.29-1.48.58-2.2.9l.15.16.41-.64c.07-.11-.09-.19-.16-.1Z"/><path class="cls-9" d="M80.4,92l-.08.34c0,.08.06.19.15.16A10.86,10.86,0,0,0,81.58,92a.1.1,0,0,0-.08-.19,11,11,0,0,0-1.09.41l.15.16.09-.34A.13.13,0,0,0,80.4,92Z"/><path class="cls-9" d="M81.77,91.55a3.45,3.45,0,0,1-.2.32c-.06.08.05.16.12.12a7,7,0,0,1,2.59-.56.12.12,0,0,0,0-.23,5,5,0,0,0-2.68.64l.12.12c0-.11.11-.23.17-.34a.07.07,0,0,0-.12-.07Z"/><path class="cls-9" d="M84.55,91.41l-.76.5c-.08.06-.06.21,0,.2.69-.06,1.38-.14,2.07-.22.17,0,.17-.28,0-.26-.7.09-1.4.17-2.1.27l.09.2.75-.53a.09.09,0,1,0-.1-.16Z"/><path class="cls-9" d="M88.77,90.84s0,0,0,0,0,0,0,0Z"/><path class="cls-9" d="M115.28,53.6a20.37,20.37,0,0,0,2.22,4.11l.23-.13c-.25-.33-.5-.66-.77-1,0-.06-.13,0-.18,0l-.06,0a.11.11,0,0,0,0,.11c0,.12,0,.14.17.17a.08.08,0,0,0,.08-.13s.12.36.11.34a4.61,4.61,0,0,0,.47.6c.1.11.3,0,.21-.16a19,19,0,0,1-2.25-4c0-.12-.25-.07-.2.05Z"/><path class="cls-9" d="M116.42,57.39c.31.94.64,1.88,1,2.82l.17-.14a1,1,0,0,1-.42-.55l-.18.18a1.49,1.49,0,0,0,.36,0c.1,0,.13-.13.05-.18a1.4,1.4,0,0,0-.33-.15c-.13,0-.21.11-.16.21a1.3,1.3,0,0,0,.56.64.11.11,0,0,0,.17-.13c-.35-.93-.7-1.86-1.06-2.79,0-.08-.16-.05-.13,0Z"/><path class="cls-9" d="M116.6,60.33a9.25,9.25,0,0,1,.61,4.23l.24,0c-.17-.43-.35-.86-.53-1.29-.07-.15-.32-.08-.25.07.18.44.36.88.55,1.32.06.11.23,0,.23-.06a9.89,9.89,0,0,0-.72-4.27c0-.08-.16,0-.13,0Z"/><path class="cls-9" d="M116.82,64.13a9.77,9.77,0,0,0,.16,3.92l.24-.18-.6-.44c-.13-.09-.3.12-.17.23l.57.46a.16.16,0,0,0,.27-.16,9.93,9.93,0,0,1-.25-3.8c0-.12-.2-.15-.22,0Z"/><path class="cls-9" d="M116.59,67.65a7.76,7.76,0,0,0,.75,4.78l.21-.21a13.65,13.65,0,0,0-1.35-.75.13.13,0,0,0-.13.22,13.69,13.69,0,0,0,1.33.79.15.15,0,0,0,.2-.2,9.92,9.92,0,0,1-.93-4.62s-.07-.06-.08,0Z"/><path class="cls-9" d="M116.25,72.06a7.18,7.18,0,0,1-.68,3.42l.23.06a8,8,0,0,0,0-1.2c0-.09-.16-.09-.18,0a9.62,9.62,0,0,0,0,1.2.12.12,0,0,0,.24,0,8.42,8.42,0,0,0,.61-3.51c0-.09-.15-.09-.15,0Z"/><path class="cls-9" d="M115.51,75.23a10,10,0,0,0-.47,3.43l.28,0a1.1,1.1,0,0,0-.46-.75c-.12-.09-.26.1-.16.2a.86.86,0,0,1,.35.62c0,.15.29.12.27,0a9,9,0,0,1,.33-3.39c0-.09-.11-.13-.14,0Z"/><path class="cls-9" d="M114.65,78.53a3.39,3.39,0,0,1-1.11,2.18l.22.13a8.46,8.46,0,0,0,.27-1c0-.13-.16-.23-.22-.1-.13.32-.21.65-.31,1a.14.14,0,0,0,.23.14,3.76,3.76,0,0,0,1.17-2.37c0-.15-.23-.15-.25,0Z"/><path class="cls-9" d="M113.67,80.4l-.12,1.81h.29a7.48,7.48,0,0,0,0-.82.12.12,0,0,0-.24,0,5.62,5.62,0,0,0,0,.82.15.15,0,0,0,.29,0l.1-1.81c0-.18-.26-.17-.27,0Z"/><path class="cls-9" d="M111.75,84l1.1-.2-.14-.19a1.15,1.15,0,0,0-.16.74c0,.09.14.08.16,0a4.9,4.9,0,0,1,.21-.61.12.12,0,0,0-.14-.18l-1.09.21c-.15,0-.09.26.06.23Z"/><path class="cls-9" d="M113.31,84.35a12,12,0,0,1,3.26-1l-.14-.18c-.13.18-.27.36-.42.53a.15.15,0,1,0,.23.18c.12-.2.26-.39.4-.59s0-.19-.14-.18a12.78,12.78,0,0,0-3.29,1.06c-.12,0,0,.23.1.18Z"/><path class="cls-9" d="M116.25,84.12a13.76,13.76,0,0,1,3.16-.83l-.13-.22c-.19.16-.37.32-.55.5a.14.14,0,0,0,.2.2,6.38,6.38,0,0,0,.53-.51c.11-.1,0-.24-.13-.22a13.55,13.55,0,0,0-3.16.9c-.1,0,0,.22.08.18Z"/><path class="cls-9" d="M120.19,83.62a6.7,6.7,0,0,0,2.64-1.07l-.16-.22a5.44,5.44,0,0,0-.76,1.06.12.12,0,0,0,.19.15,5.33,5.33,0,0,0,.78-1c.1-.14-.1-.25-.21-.17a6.38,6.38,0,0,1-2.52,1.16c-.09,0-.05.15,0,.13Z"/><path class="cls-9" d="M122.94,83.46c.62-.21,1.24-.46,1.87-.62l-.12-.2c-.29.26-.58.54-.86.82a.16.16,0,0,0,.16.27.93.93,0,0,0,.31-.13.12.12,0,0,0-.06-.23,1,1,0,0,0-.34,0l.16.27c.27-.29.54-.58.8-.88a.12.12,0,0,0-.14-.19c-.59.26-1.22.44-1.83.65-.11,0-.06.23,0,.19Z"/><path class="cls-9" d="M124.94,83.75l3.17-.85-.1-.34a.7.7,0,0,0-.54.62.19.19,0,0,0,.23.24l1.41-.4-.18-.3c-.11.14-.22.29-.34.43a.2.2,0,0,0,.12.29c.38.12,1.91-.43,2,.08,0,.17.26.11.27,0,.11-1.29-1.66-.26-2.16-.42l.11.28.3-.41c.1-.14-.06-.31-.21-.27l-1.41.38.23.24.32-.4c.18-.09,0-.38-.14-.33-1,.32-2.09.62-3.14.93a.13.13,0,0,0,.07.26Z"/><path class="cls-9" d="M132.07,83.43c.61-.09,1.21-.2,1.82-.28l-.1-.24-.22.23a.18.18,0,0,0,0,.27.82.82,0,0,0,1.13-.22.08.08,0,0,0-.09-.12,1.39,1.39,0,0,1-.9,0l.1.25c.06-.09.12-.18.17-.27s0-.22-.16-.2c-.61.11-1.23.2-1.85.3-.16,0-.09.28.07.25Z"/><path class="cls-9" d="M136.3,86.37a3.23,3.23,0,0,0,.39.79s.13,0,.12,0a2.74,2.74,0,0,0-.32-.82c-.05-.11-.23,0-.19.08Z"/><path class="cls-9" d="M112.5,91.86a24.49,24.49,0,0,1,5.41.18.18.18,0,0,0,.13-.32l-.73-.51c-.15-.1-.34.14-.19.26s.49.37.75.55l.13-.31a15.29,15.29,0,0,0-5.52,0,.08.08,0,0,0,0,.15Z"/><path class="cls-9" d="M118,91.11l3.89.06a.14.14,0,0,0,0-.27l-.9-.23V91a8.37,8.37,0,0,0,1.29-.59.09.09,0,0,0-.06-.16,8,8,0,0,0-1.3.47.15.15,0,0,0,0,.28l.9.21,0-.27H118a.11.11,0,0,0,0,.22Z"/><path class="cls-9" d="M122.26,90.45a35,35,0,0,0,3.69.29.15.15,0,0,0,.14-.19l.06-.57c0-.06,0-.17-.11-.11a.57.57,0,0,0-.23.76l.14-.19q-1.85,0-3.69-.18c-.12,0-.12.17,0,.19Z"/><path class="cls-9" d="M126.21,90c1,.12,2,.11,3,.14a.16.16,0,0,0,.08-.3,5.41,5.41,0,0,1-.61-.36c-.14-.09-.28.14-.14.23a3.67,3.67,0,0,1,.56.38l.11-.27c-1,0-2-.11-3,0a.12.12,0,0,0,0,.23Z"/><path class="cls-9" d="M129.72,89.6c.69,0,1.37-.12,2.06-.15.15,0,.2-.24,0-.27l-.74-.14c-.14,0-.2.18-.06.22l.72.19,0-.28c-.68.09-1.37.14-2.06.21-.14,0-.14.24,0,.22Z"/><path class="cls-9" d="M131.88,89.31l1.67.24a5.48,5.48,0,0,0,1.28.17c.38,0,.66-.37.41-.74a.19.19,0,0,0-.2-.08H135a.14.14,0,0,0-.06.23c.25.22-.24.23-.36.24a4.48,4.48,0,0,1-1-.14L132,89c-.18,0-.26.26-.08.28Z"/><path class="cls-9" d="M135.54,89c.41,0,.82.09,1.23.11.13,0,.2-.21.07-.26a2.28,2.28,0,0,1-.38-.2l-.08.27c.26,0,.52,0,.78.06a.15.15,0,0,0,.07-.28l-.39-.21c-.18-.1-.34.18-.16.27s.27.13.4.2l.08-.28c-.26,0-.52-.05-.78-.05s-.18.23,0,.29a1.69,1.69,0,0,1,.36.17l.1-.26c-.41,0-.84-.08-1.26-.12-.18,0-.18.27,0,.29Z"/><path class="cls-9" d="M110.81,44.14a9.24,9.24,0,0,0,2.7-3.74l-.28,0c0,.58-.1,1.15-.13,1.73,0,.2.3.2.32,0,0-.58.06-1.15.1-1.73,0-.17-.23-.18-.28,0A9.22,9.22,0,0,1,110.65,44c-.12.09,0,.25.16.16Z"/><path class="cls-9" d="M113.85,41.63l.65-1-.34,0a2,2,0,0,1,0,1.1.21.21,0,0,0,.34.2,1.25,1.25,0,0,0,.32-.33c.08-.11,0-.28-.17-.23a1.53,1.53,0,0,0-.44.27l.35.2a2.53,2.53,0,0,0-.06-1.31.19.19,0,0,0-.34,0c-.22.34-.43.68-.64,1a.18.18,0,0,0,.31.18Z"/><path class="cls-9" d="M114.52,41.31a4.91,4.91,0,0,0,2-2.61c.07-.21-.24-.32-.35-.14a1.63,1.63,0,0,0-.24,1.16c0,.21.41.17.38,0a1.35,1.35,0,0,1,.19-.92l-.35-.15a4.78,4.78,0,0,1-1.73,2.54c-.09.07,0,.24.1.17Z"/><path class="cls-9" d="M117,39.33a5.53,5.53,0,0,0,1.06-2.7h-.44a2.2,2.2,0,0,0,.27,1.38.19.19,0,0,0,.34-.14,4.75,4.75,0,0,1-.17-1.24c0-.28-.41-.27-.44,0a4.88,4.88,0,0,1-1,2.5c-.15.2.19.4.34.2Z"/><path class="cls-9" d="M118.28,37.31c.34-.75.7-1.49,1-2.23L119,35c0,.35,0,.69,0,1a.2.2,0,0,0,.36.1,5.05,5.05,0,0,0,.87-2.3h-.42l0,.42a.22.22,0,0,0,.32.18,1.77,1.77,0,0,0,1-1.29c0-.27-.36-.38-.41-.11a1.38,1.38,0,0,1-.77,1l.31.18,0-.42a.21.21,0,0,0-.42,0,4.83,4.83,0,0,1-.78,2.1l.35.1c0-.35,0-.69-.08-1a.17.17,0,0,0-.33-.05c-.32.76-.61,1.52-.92,2.28,0,.12.15.2.2.09Z"/><path class="cls-9" d="M121.53,32.14a11.37,11.37,0,0,0,.29-3.39.2.2,0,0,0-.4,0,3,3,0,0,0,.3,1.47.21.21,0,0,0,.38,0,5,5,0,0,0,.2-1.89l-.4.11.38.69a.21.21,0,0,0,.39,0,3.31,3.31,0,0,0-.06-1.92l-.31.24.46.21c.21.08.31-.23.14-.35a1.9,1.9,0,0,0-.39-.23c-.15-.08-.37.06-.31.24a2.9,2.9,0,0,1,.06,1.7l.39-.05c-.13-.23-.26-.46-.38-.7s-.42-.1-.4.11a4.64,4.64,0,0,1-.17,1.78l.38,0a2.62,2.62,0,0,1-.26-1.26h-.4a14.13,14.13,0,0,1-.18,3.31c0,.18.24.27.29.08Z"/><path class="cls-9" d="M122.88,27.27a11.21,11.21,0,0,0-.32-3.16l-.38.16a6.17,6.17,0,0,0,.74,1c.1.1.32,0,.26-.15a6.53,6.53,0,0,0-.64-1.08.21.21,0,0,0-.38.16,15,15,0,0,1,.47,3.05.13.13,0,0,0,.25,0Z"/><path class="cls-9" d="M123,24.41l-.12-2-.4.1c.17.34.33.67.5,1s.44.06.38-.16c-.27-1.14-.24-2.32-.48-3.45a.16.16,0,0,0-.31,0,9,9,0,0,0,.39,3.56l.38-.16-.49-1a.22.22,0,0,0-.4.11c0,.67.08,1.35.13,2,0,.27.44.27.42,0Z"/><path class="cls-9" d="M123.31,20.35c0-.53,0-1.07-.09-1.59l-.31.12c.18.21.35.41.54.6s.39-.07.25-.24-.35-.41-.53-.61a.19.19,0,0,0-.32.13q.08.79.18,1.59c0,.17.29.18.28,0Z"/><path class="cls-9" d="M123.69,19.48a2.45,2.45,0,0,0,.83-1.74c0-.23-.33-.22-.36,0a.79.79,0,1,0,1.58.11h-.42c.05.39.09.77.13,1.15a.23.23,0,0,0,.38.16l1.12-.91-.39-.22a4.76,4.76,0,0,0-.16,1.59c0,.12.2.13.26,0a4.76,4.76,0,0,0,.35-1.5.24.24,0,0,0-.39-.23c-.37.31-.74.61-1.1.93l.36.09c0-.36-.1-.72-.14-1.09a.21.21,0,0,0-.42,0c-.62.38-.89.35-.8-.11h-.36a2.28,2.28,0,0,1-.68,1.53c-.14.13.07.33.21.21Z"/><path class="cls-9" d="M127,20l2-.5-.15-.37-1.11.66c-.17.1-.11.42.11.39l1.25-.12a3.16,3.16,0,0,1,.57-.06c.13.13-.27.46-.38.51s-.07.31.09.32c.5,0,1.22-.4.9-1-.13-.26-.34-.27-.61-.28-.6,0-1.23.14-1.82.2l.1.4,1.1-.68a.2.2,0,0,0-.16-.37l-2,.55A.18.18,0,0,0,127,20Z"/><path class="cls-9" d="M129,21.3h1l-.07-.17c-.78.7-1.49,1.48-2.21,2.25a.1.1,0,0,0,.14.13c.75-.72,1.52-1.45,2.21-2.24,0-.06,0-.17-.07-.16l-1,.05a.07.07,0,0,0,0,.14Z"/><path class="cls-9" d="M127.75,27.47c.33,0,.54-.1.6.09s-.7.94-.77,1.05a.17.17,0,0,0,.15.26l.85,0-.15-.27-.45,1c0,.12,0,.3.17.29.87-.06-.21,2.37-.36,2.88a.12.12,0,0,0,.21.12,4.86,4.86,0,0,0,.83-3.22.19.19,0,0,0-.18-.18l-.5,0,.18.24c.14-.35.28-.69.43-1a.18.18,0,0,0-.18-.23l-.85.05.15.26,1-1.42a.14.14,0,0,0-.11-.21l-1,.13c-.11,0-.08.2,0,.19Z"/><path class="cls-9" d="M128,35.53a6.82,6.82,0,0,0,.77.23l-.07-.28A4.36,4.36,0,0,0,128,37c0,.13.1.29.23.24l.51-.19-.23-.3a4.6,4.6,0,0,0-.7,1.9.21.21,0,0,0,.2.27l.35,0-.19-.26a9.78,9.78,0,0,0-.68,1.77.13.13,0,0,0,.23.1,10.75,10.75,0,0,0,.82-1.71.22.22,0,0,0-.18-.31l-.35,0,.21.21a4.25,4.25,0,0,1,.64-1.76c.08-.13-.06-.36-.23-.29l-.54.23.28.21a4,4,0,0,1,.66-1.37.17.17,0,0,0-.1-.25l-.83-.13c-.14,0-.15.18,0,.22Z"/><path class="cls-9" d="M126.34,45.79a1.82,1.82,0,0,1,1,.07l0-.27c-.43.33-.88.63-1.29,1s-1,.69-1.41,1.09a.15.15,0,0,0,.19.24c.47-.3.87-.7,1.33-1s.88-.69,1.33-1a.15.15,0,0,0,0-.27,1.26,1.26,0,0,0-1.15.07c-.08,0,0,.16.06.15Z"/><path class="cls-9" d="M123.94,48.43a1.08,1.08,0,0,1-.67.74,1.78,1.78,0,0,0-.52.18.09.09,0,0,0,0,.12c.56.49,1.38-.46,1.52-.95.07-.21-.26-.3-.33-.09Z"/><path class="cls-9" d="M123,49.51c.15.3.3.6.46.89l.16-.27a4.06,4.06,0,0,0-2.58.32.12.12,0,0,0,.06.23,9,9,0,0,0,1.25-.18,9,9,0,0,1,1.27,0,.18.18,0,0,0,.16-.27c-.19-.28-.37-.57-.57-.84a.12.12,0,0,0-.21.13Z"/><path class="cls-9" d="M120.75,50.9l.73.52,0-.34a4.13,4.13,0,0,1-2.15-.15c-.25-.08-.33.29-.11.38a4,4,0,0,0,2.36.13.19.19,0,0,0,0-.34l-.76-.48c-.17-.11-.32.16-.16.28Z"/><path class="cls-9" d="M119.24,51.4c.29.17.58.34.86.52l.08-.31a15.68,15.68,0,0,0-2.47.15c-.2,0-.15.34.05.35a16.86,16.86,0,0,0,2.46-.17.17.17,0,0,0,0-.31c-.3-.14-.59-.3-.89-.46-.14-.08-.27.14-.13.23Z"/><path class="cls-9" d="M117.88,52.29l.62.69.16-.28a13.33,13.33,0,0,0-2.42-.42.18.18,0,0,0,0,.35c.79.16,1.59.24,2.38.39a.17.17,0,0,0,.16-.28l-.65-.65c-.13-.14-.33.06-.2.2Z"/><path class="cls-9" d="M116.21,52.75l.86.86.12-.29c-.76,0-1.53-.07-2.28-.06a.18.18,0,0,0,0,.36c.75.05,1.52.05,2.28,0a.17.17,0,0,0,.12-.29c-.31-.26-.62-.52-.92-.8-.12-.1-.3.07-.18.18Z"/><path class="cls-9" d="M114.93,53.64c.45.31.9.63,1.32,1l.22-.28a4,4,0,0,0-2.82-.55.18.18,0,0,0,0,.35,4.49,4.49,0,0,1,2.59.51.18.18,0,0,0,.18-.31c-.48-.28-1-.59-1.41-.9-.14-.1-.26.12-.13.21Z"/><path class="cls-9" d="M113.35,54.29a7.34,7.34,0,0,1,1.38,1.51l.29-.23a2.91,2.91,0,0,0-1.86-.94.13.13,0,0,0-.06.23,6.78,6.78,0,0,1,1.66,1c.15.13.42-.05.29-.23a7.44,7.44,0,0,0-1.52-1.55c-.13-.1-.3.12-.18.23Z"/><path class="cls-9" d="M113,55a2.3,2.3,0,0,0,.68,1.28.18.18,0,0,0,.25-.25c-.55-.64-1.79-1.14-2.52-.5a.11.11,0,0,0,.08.18,5.59,5.59,0,0,1,1.08-.05,1.85,1.85,0,0,1,1.11.62l.25-.25a2.29,2.29,0,0,1-.74-1.09A.1.1,0,0,0,113,55Z"/><path class="cls-9" d="M79.46,28a20.11,20.11,0,0,0,1.84-1.62c.06,0,0-.14-.09-.11l-.61.31c-.08,0,0,.16.08.12l.6-.31-.08-.11a20.09,20.09,0,0,0-1.78,1.67s0,.08,0,.05Z"/><path class="cls-9" d="M80.92,26.22c.4-.5.79-1,1.2-1.49L82,24.6a1,1,0,0,1-.49.3.08.08,0,0,0,0,.16.71.71,0,0,0,.61-.35c.06-.1-.09-.18-.16-.09-.37.51-.78,1-1.17,1.49-.07.07,0,.19.11.11Z"/><path class="cls-9" d="M82,24.33c.1-.25.2-.5.31-.75l-.25-.1-.11.3c-.06.17.21.24.27.07a13.1,13.1,0,0,0,.6-1.73c0-.13-.16-.23-.23-.1a13.7,13.7,0,0,0-.64,1.76l.27.07.1-.3c.06-.16-.2-.23-.26-.07s-.2.53-.3.79.18.21.24.06Z"/><path class="cls-9" d="M82.9,22.15l.22-.64c.06-.17-.17-.28-.29-.17a3.89,3.89,0,0,0-.44.47.15.15,0,0,0,.2.2,3.89,3.89,0,0,0,.49-.42l-.3-.17-.21.64c-.07.21.26.3.33.09Z"/><path class="cls-9" d="M81.93,22.37a2,2,0,0,0-.78-1.12c-.11-.1-.35,0-.28.17s.21.55.31.83l.23-.22L81,22c-.23,0-.33.31-.09.35l.38.08c.12,0,.29-.08.23-.23l-.34-.82-.25.19a2.27,2.27,0,0,1,.9.89c0,.05.09,0,.08,0Z"/><path class="cls-9" d="M80.51,21.86l-.66-.5c-.13-.1-.28.06-.25.19a.69.69,0,0,1-.09.56l.27,0a.86.86,0,0,0-.33-.23c-.06,0-.16,0-.13.1a.83.83,0,0,0,.19.34.17.17,0,0,0,.29,0,1.08,1.08,0,0,0,.13-.82l-.25.19.67.49c.17.12.33-.16.16-.28Z"/><path class="cls-9" d="M79.33,22.26a2.4,2.4,0,0,1-.24-1.49.18.18,0,0,0-.34-.1l-.67,1.62c-.08.22.27.31.36.09.22-.53.43-1.07.65-1.61l-.34-.1a2.43,2.43,0,0,0,.36,1.72.13.13,0,0,0,.22-.13Z"/><path class="cls-9" d="M77.93,22l-.29-.73c0-.1-.2-.16-.25,0l-.39.86.22,0-.42-.4a.15.15,0,0,0-.23,0,6.44,6.44,0,0,0-.4.73c0,.1.08.22.16.13a8.3,8.3,0,0,0,.5-.71l-.24,0,.43.39a.14.14,0,0,0,.24-.06l.36-.83-.25,0,.3.73c.06.16.32.09.26-.07Z"/><path class="cls-9" d="M76.4,22.61c-.49.67-1,1.34-1.47,2-.08.11.08.22.18.17a.53.53,0,1,0-.41-1,.12.12,0,0,0-.09.16,7.88,7.88,0,0,1,0,1.88c0,.11.14.11.18,0a2.72,2.72,0,0,0,.15-1c0-.16,0-.32,0-.48-.07-.6,0,.17,0,.17l.17.17c.45-.69.93-1.37,1.39-2,.06-.09-.08-.16-.14-.08Z"/><path class="cls-9" d="M74.69,25.87l-.35-.27s-.14,0-.15,0c-.07.47-.18.93-.23,1.41a.1.1,0,0,0,.2,0c.1-.45.13-.92.2-1.38l-.13,0,.35.27c.08.06.18-.08.11-.14Z"/><path class="cls-9" d="M73.77,27.53l-.58-.48C73.13,27,73,27,73,27.1a8.93,8.93,0,0,1-.59,3h.24l-.1-.28c0-.13-.27-.12-.26,0a8.71,8.71,0,0,1-.18,2.28.12.12,0,0,0,.23.06,6.35,6.35,0,0,0,.21-2.34l-.25.07.13.27a.12.12,0,0,0,.22,0c.14-.72.46-1.39.55-2.13,0,.05.07-.71,0-.69s.56.29.52.28a.08.08,0,0,0,.06-.14Z"/><path class="cls-9" d="M120.3,48.55A5.47,5.47,0,0,0,124,47c.15-.13,0-.34-.19-.31a2.42,2.42,0,0,0-1.06.31.08.08,0,0,0,0,.14,2.47,2.47,0,0,0,1.14-.09l-.18-.31A6.57,6.57,0,0,1,122,47.8c-.58.26-1.19.35-1.77.58a.09.09,0,0,0,0,.17Z"/><path class="cls-9" d="M123.23,47.08c1-.63,2-1.27,3-1.88.17-.1.12-.44-.12-.41l-1.34.16c-.24,0-.19.46.06.43.43,0,.86-.09,1.28-.15l-.11-.41c-.94.68-1.91,1.34-2.86,2-.15.1,0,.35.14.25Z"/><path class="cls-9" d="M125.49,44.76a15.84,15.84,0,0,0,1.9-3,.22.22,0,0,0-.25-.32,2.12,2.12,0,0,0-1.56,1.14c-.08.18.19.3.32.18a2.75,2.75,0,0,1,1.35-.89l-.25-.33a14.76,14.76,0,0,1-1.8,2.94c-.15.2.12.49.29.28Z"/><path class="cls-9" d="M126.41,41.87l-.09-1.2a.21.21,0,0,0-.35-.15,6.57,6.57,0,0,0-1.29,1.29c-.07.11.06.22.17.16a7.08,7.08,0,0,0,1.41-1.16l-.35-.14.1,1.2c0,.25.42.25.4,0Z"/><path class="cls-9" d="M77.71,64.05a4.59,4.59,0,0,0-3.29.4l.2.08.15-.59c.1-.14-.12-.27-.22-.14a.93.93,0,0,0-.19.8c0,.1.13.12.2.08a5.5,5.5,0,0,1,3.13-.43c.12,0,.13-.17,0-.2Z"/><path class="cls-9" d="M74.1,63.36A6.45,6.45,0,0,1,71,61.87l-.12.31c.55,0,1.1.12,1.66.16.17,0,.22-.29,0-.32-.57-.08-1.14-.13-1.7-.2-.16,0-.24.21-.13.31A6.5,6.5,0,0,0,74,63.63c.17,0,.25-.24.07-.27Z"/><path class="cls-9" d="M71.28,61.56A26.9,26.9,0,0,1,68.71,59l-.17.28a4.14,4.14,0,0,0,.91.16c.12,0,.18-.18.06-.23a3.65,3.65,0,0,0-.87-.26.18.18,0,0,0-.17.29,9.21,9.21,0,0,0,2.71,2.42c.08,0,.16-.05.1-.11Z"/><path class="cls-9" d="M69.17,58a4.42,4.42,0,0,1-.4-2.21l-.33.09.42.66c.12.18.42,0,.3-.18l-.41-.66a.18.18,0,0,0-.33.09,4.72,4.72,0,0,0,.44,2.4c.09.21.41,0,.31-.19Z"/><polyline class="cls-10" points="71.38 87.17 79.86 86.56 89.98 83.59 99.05 83.92 104.75 83.74 112.82 82.16 114.47 83.48 126.98 82.97"/><path class="cls-9" d="M76.3,22a12.07,12.07,0,0,0,7-.32.13.13,0,0,0-.07-.25,21.35,21.35,0,0,1-6.9.41c-.09,0-.11.14,0,.16Z"/><path class="cls-9" d="M69.84,88.82a4.45,4.45,0,0,1,.67,1.32.12.12,0,0,0,.24-.06,4.76,4.76,0,0,0-.69-1.39c-.1-.12-.31,0-.22.13Z"/><path class="cls-9" d="M86.06,91.59a36.54,36.54,0,0,1,10.12,2.18c.15.06.21-.18.06-.24a36.53,36.53,0,0,0-10.18-2.19c-.16,0-.16.24,0,.25Z"/><path class="cls-9" d="M111.89,84.57c8.27-.43,16.4-1.09,24.7-.77.31,0,.31-.47,0-.48-8.16-.32-16.66-.39-24.74,1-.16,0-.12.3,0,.29Z"/><path class="cls-9" d="M105,93.24c2.89-.59,5.79-1.13,8.69-1.64.16,0,.09-.27-.07-.24-2.9.51-5.79,1-8.68,1.64-.16,0-.09.27.06.24Z"/><path class="cls-9" d="M106.27,93a14.11,14.11,0,0,1-6.4.84c-.28,0-.28.4,0,.43a11.91,11.91,0,0,0,6.49-1.06c.12,0,0-.26-.09-.21Z"/><path class="cls-9" d="M94,92.59a10.7,10.7,0,0,0,9.69,1.07.14.14,0,0,0-.07-.27,15.45,15.45,0,0,1-9.58-.9c-.06,0-.09.07,0,.1Z"/><path class="cls-9" d="M94.35,54.07c-6,2.1-5,9.14-3.34,13.92a55,55,0,0,1,1.81,5.29c.47,1.86.44,3.81.91,5.67a5.69,5.69,0,0,0,4.78,4.45c5.46.92,9.9-3.8,11.7-8.46,2.27-5.92,2.64-13.82-1.4-19.08-3.55-4.63-10.69-6.16-14.74-1.25-.19.23.13.56.33.33,5.22-6.1,13.6-1.69,16,4.69,2.29,6.21,1,15.31-3.67,20.16-2.29,2.35-5.76,4-9,2.92-4.07-1.3-3.48-5.81-4.26-9.14-1.32-5.63-7.45-16.14,1-19.26.14-.06.08-.29-.07-.24Z"/><path class="cls-9" d="M93.58,62.6a.9.9,0,0,0-.6,1.59,1,1,0,0,0,1.54-.95c-.15-.74-1.41-1-1.5-.12s1.28.68.85-.08a.19.19,0,0,0-.17-.1h-.4c-.22,0-.29.35-.06.39s.43.06.65.1A.12.12,0,0,0,94,63.2c-.2-.07-.39-.17-.6-.24l0,.39h.2c.09,0,.09,0,0-.09s-.08-.25.31-.32l.22.13a.63.63,0,0,1-.08.87.6.6,0,0,1-.91-.28c-.19-.44.17-.78.58-.9a.08.08,0,0,0,0-.16Z"/><path class="cls-9" d="M106.78,59.67c-1,.14-.22,1.74.51.93a.67.67,0,0,0-.15-1.07.82.82,0,0,0-1.1.55.19.19,0,0,0,.28.21,1.29,1.29,0,0,0,.39-.23c.08-.08,0-.26-.1-.24a1.67,1.67,0,0,0-.48.15l.27.21c0-.16.24-.41.45-.35s.43.4.17.57-.69-.49-.21-.6c.08,0,0-.14,0-.13Z"/><path class="cls-9" d="M99.53,77a0,0,0,1,0,0,0s0,0,0,0Z"/><path class="cls-9" d="M93.72,69.11a28.67,28.67,0,0,1,14.18-.94.15.15,0,0,0,.08-.29A20.12,20.12,0,0,0,93.65,69c-.08,0,0,.18.07.15Z"/><path class="cls-9" d="M92.27,34.06a6.9,6.9,0,0,0-.66,5.74c.29,1.31-.08.78-1.21,1.19a4.93,4.93,0,0,0-2.2,1.65c-3.22,4.2,1.23,9,5.44,9.73,4.61.79,10.29-1.25,12.65-5.47,1.65-2.95.88-9.59-3.93-7.9a.18.18,0,0,0,.1.35c2.7-.44,4.46,2,4.32,4.42a7.64,7.64,0,0,1-2.12,4.53,12.1,12.1,0,0,1-6.49,3.48c-3,.6-6.56.27-8.8-2-2.93-3-1.79-8.85,3.09-8.56a.2.2,0,0,0,.17-.3,6.3,6.3,0,0,1-.18-6.71.11.11,0,0,0-.18-.11Z"/><path class="cls-9" d="M101.91,39.34c1.8-.91,2.12-3.65.9-5.16s-4.43-1.92-5.43,0a.17.17,0,0,0,.23.22,4.56,4.56,0,0,1,2.3-1,3.14,3.14,0,0,1,2.49,1c1.29,1.47.63,3.55-.64,4.74a.12.12,0,0,0,.15.18Z"/><path class="cls-9" d="M98,34c-1.16-2.78-5.52-1.92-5.73,1,0,.14.19.15.23,0a3.13,3.13,0,0,1,2.59-2.33,3.23,3.23,0,0,1,2.71,1.41c.07.09.24,0,.2-.11Z"/><path class="cls-9" d="M93.54,35a1.77,1.77,0,0,0-.61,2.55,1.86,1.86,0,0,0,2.68.15,1.86,1.86,0,1,0-2.89-2.33.16.16,0,0,0,.25.19,1.74,1.74,0,0,1,2.1-.36,1.5,1.5,0,0,1,.3,2.16,1.44,1.44,0,0,1-2.17-.12,1.46,1.46,0,0,1,.48-2c.15-.08,0-.32-.14-.23Z"/><path class="cls-9" d="M99.33,34.73a1.37,1.37,0,0,0-1.42,1.78c.36,1.16,2,1.63,3.06,1.31a1.35,1.35,0,0,0,.42-2.44c-.94-.81-2.94-1-3.8,0a.12.12,0,0,0,.11.2,5.43,5.43,0,0,1,2.06-.43,2.32,2.32,0,0,1,1.42.57.91.91,0,0,1-.17,1.57,2.33,2.33,0,0,1-2.11-.23c-.83-.55-1-2.34.4-2.2.11,0,.13-.17,0-.18Z"/><path class="cls-9" d="M88.73,36.22c-1.26-2.3-4.6-1.37-5.41.79-1.06,2.78,1.18,5.3,3.81,5.86a.24.24,0,0,0,.13-.46c-2.12-.53-4.06-2.16-3.68-4.55a2.84,2.84,0,0,1,5-1.5c.09.09.23,0,.17-.14Z"/><path class="cls-9" d="M105.78,35.72c1.22-2.27,4.3-2.78,5.65-.26s-.61,4.46-2.77,5.2c-.2.07-.18.43.06.4a4.07,4.07,0,0,0,2.92-6.17c-1.49-2.23-5.38-2.13-6.08.74a.12.12,0,0,0,.22.09Z"/><path class="cls-9" d="M90.33,44.1c4.21,2.6,10.88,2,14-2.07.07-.1-.08-.25-.18-.18-1.88,1.33-3.52,2.62-5.84,3.12a13.26,13.26,0,0,1-7.92-1.07c-.12,0-.19.13-.09.2Z"/><path class="cls-9" d="M104.29,42.69c-.08,3.27-1.69,6.94-5.15,7.84-4.4,1.15-7.84-2.09-8.21-6.34a.2.2,0,0,0-.39,0,6.86,6.86,0,0,0,7.58,7c4.29-.44,6.53-4.58,6.62-8.52a.23.23,0,0,0-.45,0Z"/><path class="cls-9" d="M95.35,41.46c-.2.19-.16.62.18.58s.38-.56.17-.77a.15.15,0,0,0-.13,0,.39.39,0,0,0,.2.75.14.14,0,0,0,.1-.1c0-.19-.05-.33-.25-.31a.14.14,0,0,0-.13.1c0,.19.06.31.25.28s.08-.16,0-.2a.41.41,0,0,0-.28-.18c.06-.08,0-.18-.11-.11Z"/><path class="cls-9" d="M97.65,41.26l-.38.16a.14.14,0,0,0,0,.17.57.57,0,0,0,1.09-.34.18.18,0,0,0-.12-.15.57.57,0,0,0-.77.6.18.18,0,0,0,.3.13,2.74,2.74,0,0,0,.32-.36c.08-.12-.08-.28-.21-.2a2.11,2.11,0,0,0-.36.31l.29.08-.32-.19,0,.17.33-.24c.08-.07,0-.18-.08-.14Z"/><path class="cls-9" d="M94.92,40.47a1.07,1.07,0,0,0-1,1.09c0,.49.51,1.14,1,1a.12.12,0,0,0,0-.21c-.31-.21-.62-.26-.73-.67a.83.83,0,0,1,.7-1,.1.1,0,0,0,0-.2Z"/><path class="cls-9" d="M98.22,40.16a1.67,1.67,0,0,1,1.44,2l.18-.14a6.49,6.49,0,0,0-.66.11c-.1,0-.11.19,0,.21a4.76,4.76,0,0,0,.66.06.2.2,0,0,0,.18-.14,2,2,0,0,0-1.8-2.34c-.19,0-.18.26,0,.28Z"/><path class="cls-9" d="M95.85,39.79l.49.16c.24.07.35-.32.11-.37l-.51-.12a.17.17,0,0,0-.09.33Z"/><path class="cls-9" d="M96.36,39.11l.17.16s.12,0,.07-.07L96.45,39c-.06-.06-.14,0-.09.08Z"/><path class="cls-9" d="M95.91,39.57s0,0,0,0,0,0,0,0Z"/><path class="cls-9" d="M96.08,39A1.7,1.7,0,0,0,97,39a.1.1,0,0,0,0-.17,1.51,1.51,0,0,0-.87,0,.13.13,0,1,0,0,.25Z"/><path class="cls-9" d="M96.57,38.35a6.56,6.56,0,0,0,1,0,.15.15,0,0,0,0-.29,4.69,4.69,0,0,0-1,0,.1.1,0,1,0,0,.21Z"/><path class="cls-9" d="M93.11,37.13a.66.66,0,1,1,1.08.55.17.17,0,0,0,.23.24,1,1,0,0,0-.11-1.55,1,1,0,0,0-1.42.7c0,.14.19.2.22.06Z"/><path class="cls-9" d="M98.53,37.29a.86.86,0,0,1,1.14-.72c.44.18.44.53.57.91,0,.09.18.13.23,0,.25-.57-.34-1.21-.88-1.3a1.14,1.14,0,0,0-1.28,1c0,.12.19.15.22,0Z"/><path class="cls-9" d="M86.37,37a1.92,1.92,0,0,1,1.59.6,2.85,2.85,0,0,1,.64,1.51c0,.1.16.08.19,0,.46-1.36-1.2-2.6-2.42-2.47-.23,0-.23.38,0,.36Z"/><path class="cls-9" d="M86.46,38a2,2,0,0,0-.94,2.12c0,.09.19.11.2,0a2.37,2.37,0,0,1,.91-1.83c.18-.12,0-.41-.17-.29Z"/><path class="cls-9" d="M108.22,34.8a2.86,2.86,0,0,0-2,1.38,2.21,2.21,0,0,0-.2,2.29.12.12,0,0,0,.22-.06,4.18,4.18,0,0,1,.32-2,2.54,2.54,0,0,1,1.74-1.32c.18,0,.1-.28-.07-.26Z"/><path class="cls-9" d="M107.61,35.62a2.24,2.24,0,0,1,1.65.49,3.88,3.88,0,0,1,.91,1.36.1.1,0,0,0,.19,0,2,2,0,0,0-.9-1.56,2.59,2.59,0,0,0-1.85-.53c-.19,0-.19.31,0,.29Z"/><path class="cls-9" d="M76.79,22.79c-.09-.86-.32-1.71-.48-2.57a25.93,25.93,0,0,0-.48-2.93.15.15,0,0,0-.29,0,10,10,0,0,0,.3,2.82,10.53,10.53,0,0,0,.79,2.69.09.09,0,0,0,.16-.05Z"/><path class="cls-9" d="M82.32,22.05a32.29,32.29,0,0,0,4.47-6.45.19.19,0,0,0-.32-.19c-1.28,2.29-2.83,4.36-4.28,6.54,0,.08.07.17.13.1Z"/><path class="cls-9" d="M84.39,15.64c1.81-.21,3.67-.33,5.45-.72.16,0,.13-.3,0-.29-1.83.14-3.64.55-5.44.87-.08,0-.06.14,0,.14Z"/><path class="cls-9" d="M84.71,11.65a18,18,0,0,0,3.82-.17c.09,0,.11-.19,0-.21a17.5,17.5,0,0,0-3.82.17c-.14,0-.14.22,0,.21Z"/><path class="cls-9" d="M76.43,9.43c-.08,1.81,0,3.63,0,5.45,0,.8-.18,2.15.57,2.74s1.92-.2,1.18-1c-.11-.12-.27.05-.17.18-.92.35-1.33.18-1.24-.49a9.69,9.69,0,0,1-.05-1.07l0-1.93c0-1.28,0-2.56-.12-3.84a.07.07,0,1,0-.13,0Z"/><path class="cls-9" d="M78.11,11.24c0,1.77,0,4.28.78,5.91.36.71,1.25,1.16,1.79.39.1-.13-.11-.29-.22-.17-1.08,1.07-1.5-1-1.59-1.44s-.2-.94-.28-1.4a30.31,30.31,0,0,1-.34-3.29.07.07,0,1,0-.14,0Z"/><path class="cls-9" d="M80.52,10.41c0,1.46,0,2.9,0,4.35,0,.75-.17,2,.46,2.64s1.45.39,1.49-.4c0-.13-.18-.17-.25-.06-.88.14-1.29-.1-1.23-.73a5.43,5.43,0,0,1,0-.9c0-.55,0-1.09-.05-1.63,0-1.09-.11-2.18-.17-3.27,0-.11-.19-.12-.19,0Z"/><path class="cls-9" d="M82.87,10.58c-.11,2.24-.21,4.49-.28,6.73a.18.18,0,0,0,.34.09,17.81,17.81,0,0,0,2.13-6.18c.15-1.14.43-2.62-.84-3.18a7.42,7.42,0,0,0-2.66-.26,19.86,19.86,0,0,0-3.27,0c-1.23.17-2.26.88-2,2.19,0,.17.27.12.28,0,.12-2.51,4.13-1.77,5.71-1.72s2.32.1,2.54,2.08a9,9,0,0,1-.45,2.84,14.79,14.79,0,0,1-.6,1.85c-.21.54-.85,2.81-.78.88.06-1.75.05-3.5.06-5.24a.09.09,0,1,0-.18,0Z"/><path class="cls-9" d="M85.37,11.08A3.23,3.23,0,0,1,87.21,9L87,8.83a11.55,11.55,0,0,0,.09,2.28c0,.12.24.13.26,0a11.6,11.6,0,0,0,0-2.28.15.15,0,0,0-.23-.13A3.1,3.1,0,0,0,85.2,11c0,.11.14.16.17.05Z"/><path class="cls-9" d="M128.77,19.45c.64-1.23,1.2-2.5,1.84-3.73s1.26-2.12,1.73-3.25c0-.11-.13-.2-.2-.11a23.06,23.06,0,0,0-3.51,7,.08.08,0,0,0,.14.06Z"/><path class="cls-9" d="M126.6,4.29c-.39,2.07-.5,4.2-.7,6.29,0,.25.37.25.39,0,.2-2.07.49-4.17.5-6.26,0-.11-.17-.14-.19,0Z"/><path class="cls-9" d="M133.43,6.09a23.1,23.1,0,0,1-2.62,6.13.13.13,0,1,0,.22.13,15.52,15.52,0,0,0,2.55-6.22.08.08,0,0,0-.15,0Z"/><path class="cls-9" d="M131.8,6.42A10.87,10.87,0,0,1,129,11.79l.3.12A20.48,20.48,0,0,1,131,6a.08.08,0,0,0-.13-.07,11.28,11.28,0,0,0-1.93,6,.18.18,0,0,0,.3.13A11,11,0,0,0,132,6.48c0-.14-.19-.21-.22-.06Z"/><path class="cls-9" d="M128.6,10.38q-.53-.33-.33-.78c.06-.18.11-.37.16-.56l.3-1.12c.2-.74.42-1.49.56-2.25a.1.1,0,0,0-.2-.06c-.35,1-.58,2-.84,3-.12.47-.65,1.55-.25,2a.45.45,0,0,0,.82-.2c0-.12-.2-.15-.22,0Z"/><path class="cls-9" d="M128.08,9.4a1.78,1.78,0,0,1-2,1.21l.1.16a1.59,1.59,0,0,0,.13-.53.12.12,0,0,0-.23-.06,1.77,1.77,0,0,0-.17.52.14.14,0,0,0,.14.17,2,2,0,0,0,2.15-1.44c0-.07-.09-.1-.11,0Z"/><path class="cls-9" d="M120.29,13.25a71.76,71.76,0,0,0,11.24-1c.15,0,.11-.27,0-.27a71.66,71.66,0,0,0-11.23,1,.13.13,0,0,0,0,.25Z"/><path class="cls-9" d="M132.13,12.06A153.12,153.12,0,0,0,151.8,9.87c.19,0,.15-.36-.05-.34a150.66,150.66,0,0,0-19.64,2.39c-.08,0-.06.14,0,.14Z"/><path class="cls-9" d="M133.63,6.1c6.17.06,12.46-.84,18.6-1.35.31,0,.31-.5,0-.48-6.16.49-12.53.61-18.63,1.65-.11,0-.08.18,0,.18Z"/><path class="cls-9" d="M126.08,3.58c1.25-.7,2.87-.14,4.17.09,1.09.2,3.76.23,3.82,1.85a.14.14,0,0,0,.27,0c.65-1.65-1.62-1.91-2.72-2.1-1.76-.3-4-1.12-5.68-.1a.13.13,0,0,0,.14.23Z"/><path class="cls-9" d="M122.05,7c-.2-.74-1-2,0-2.54.64-.33,1.18.33,1.32.89s0,.86.14,1.28a.15.15,0,0,0,.28,0c.36-1.06-.34-3.12-1.78-2.64s-.88,2.36-.09,3.09c.06.06.17,0,.14-.08Z"/><path class="cls-9" d="M126.56,6.09c-13.94,1.3-27.86,3.67-41.73,5.53-.31.05-.18.51.13.47,13.85-1.87,27.87-3.27,41.63-5.71.17,0,.13-.31,0-.29Z"/><path class="cls-9" d="M76.78,11.29c-5.85,1-11.52,2.24-17.47,2.62a.24.24,0,0,0-.17.41l.34.38c.15.16.4,0,.3-.23.07.13,3.9-.43,4.18-.46,1.26-.14,2.52-.3,3.77-.5a51.4,51.4,0,0,0,9.11-2,.12.12,0,0,0-.06-.23Z"/><path class="cls-9" d="M61.49,17.6c4.7,0,9.49-.6,14.16-1.07.29,0,.3-.47,0-.45-4.71.31-9.53.54-14.19,1.3-.12,0-.09.22,0,.22Z"/><path class="cls-9" d="M84.23,15.62c6.09.2,12.36-.76,18.43-1.22L121.09,13c.3,0,.31-.5,0-.48L102.16,14c-5.92.44-12.11.43-18,1.51-.09,0-.06.14,0,.15Z"/><path class="cls-9" d="M136.83,85.05c-.38-.86-.82-1.69-1.25-2.53a6.28,6.28,0,0,1-.74-1.43c-.33-.35-.22-.54.31-.57a1.63,1.63,0,0,1,.8.5,12,12,0,0,1,1.52,2.27L139,85.7c.11.17.38,0,.27-.16-.9-1.41-1.75-2.87-2.71-4.23-.55-.78-1.31-1.38-2.28-1a.16.16,0,0,0-.1.23c.77,1.56,1.54,3.15,2.43,4.64.08.14.27,0,.21-.12Z"/><path class="cls-9" d="M138.11,83.94c1.8-1.33,1-3.73.59-5.57-.21-.92-.48-1.82-.65-2.75a10.65,10.65,0,0,1-.23-2.7q2.12-3.17,2.27-1.17a8.39,8.39,0,0,1,.38,2.6c.18,1.16.35,2.31.52,3.47,0,.22.36.12.33-.09-.17-1.17-.15-9.11-2.9-7.35-1.25.8-1,3.2-.84,4.37.32,2.51,2.85,7.07.45,9.08-.06,0,0,.15.08.11Z"/><path class="cls-9" d="M140.57,71.83l1.68-.44.3.9a8.6,8.6,0,0,1,.14,1.76c0,.78,0,1.57.05,2.35A4.46,4.46,0,0,0,144,79.26c.09.08.26,0,.18-.14-1.27-1.64-1.13-3.42-1.2-5.37,0-.93-.06-2.24-.81-2.92-.91-.81-2.52-.13-1.72,1.08a.08.08,0,0,0,.13-.08Z"/><path class="cls-9" d="M143.06,73q1.45-2.13,1.59-.18c.16.58.31,1.15.44,1.73.2.88.37,1.75.51,2.64a36,36,0,0,1,.41,6.64c-.07,1.88-.1,4.16-1.16,5.82-2.61,4.1-6.29,0-7.79-2.43a.13.13,0,0,0-.23.13c1.17,2.33,3.47,5.27,6.48,4.16,2.75-1,3-4.81,3.05-7.24.15-3.73.06-9-1.71-12.41-1-1.95-2.19-.45-1.79,1.2,0,.12.22.07.2-.06Z"/><path class="cls-9" d="M72,87.92a8,8,0,0,1-3.15-6.76c.07-1.24.37-2.6-1-3.23-.19-.09-.35.17-.17.28,1.37.91.65,2.81.74,4.08A7.79,7.79,0,0,0,69,84.57a7.34,7.34,0,0,0,2.89,3.54c.11.07.24-.1.14-.19Z"/><path class="cls-9" d="M67.74,83A23.15,23.15,0,0,0,67.52,78c-.13-.59-.48-1.28-1.19-1.29a1,1,0,0,0-.94,1.17,5,5,0,0,0,.49,1.51,9.21,9.21,0,0,1,.36,1.24l.08.42c.36.87,0,1.33-1.15,1.39a.14.14,0,0,0-.26-.08.76.76,0,0,0,.63,1.08c.78.1,1.16-.78,1.2-1.4a6.18,6.18,0,0,0-.28-1.91c-.11-.42-.26-.82-.41-1.23-.25-.64-.62-.73.46-.63s.74.13.79.89c0,.48,0,1,.08,1.46.05.82.09,1.65.2,2.46a.08.08,0,0,0,.16,0Z"/><path class="cls-9" d="M64.91,82.63a25.34,25.34,0,0,0-4.36-5.16.15.15,0,0,0-.23,0c-.5.81,0,1.59.53,2.27.93,1.24,1.83,2.55,2.87,3.7a.11.11,0,0,0,.17-.13c-.49-.75-1.07-1.44-1.62-2.15s-.93-1.13-1.34-1.72c-.2-.3-.9-1.69-.14-1.35.36.16.76.77,1,1.06s.67.72,1,1.09c.7.79,1.33,1.62,2,2.45,0,.07.16,0,.12-.09Z"/><path class="cls-9" d="M63.54,84a13,13,0,0,1,2.07,8.43.13.13,0,0,0,.25,0,11.11,11.11,0,0,0-2.15-8.56c-.07-.1-.24,0-.17.1Z"/><path class="cls-9" d="M65.18,92.14c-1.61.94-3-2.32-4.55-1.07-.73.59-.31,1.39.38,1.76a6.08,6.08,0,0,0,1.18.26,7,7,0,0,1,2,1,8.35,8.35,0,0,0,2.59,1.36,2.47,2.47,0,0,0,3-1.52c.1-.26-.32-.37-.41-.11-1.08,3-4.21.35-5.5-.39a7.88,7.88,0,0,0-1-.52C62,92.58,61.64,93,62,92s.18-.57,1,0a3.3,3.3,0,0,0,.88.49,1.48,1.48,0,0,0,1.39-.24c.07,0,0-.15-.06-.11Z"/><path class="cls-9" d="M95.85,94.27c-.85,9.33-1.89,22-12.68,25.3-6,1.81-11.39-1.95-11.27-8.35,0-3.17,1.6-6.44,5-7.07,3.73-.7,6.61,3.54,3.81,6.46-.14.15.07.33.22.22a4,4,0,0,0,.63-5.38c-1.33-2-4-2.28-6.06-1.37-5.31,2.33-5.13,10.75-1.34,14.34,4.6,4.35,11.86,1.36,15.57-2.6,5.35-5.71,6.11-14.1,6.31-21.55a.1.1,0,0,0-.19,0Z"/><path class="cls-9" d="M104.24,93.92c-3.13,7.52-4.94,15.8-9.94,22.41s-14.86,11.39-22.11,5.4a11.93,11.93,0,0,1,1.57-19.49c4-2.34,10.14-2.41,11.12,3.17.73,4.2-1,12.49-7.15,10.79A4.08,4.08,0,0,1,75,113c0-.19-.11-1.43.23-1.5,0,0,.59.7.67.77a3.81,3.81,0,0,0,2.49,1A3.72,3.72,0,0,0,82,109c0-.22-.37-.23-.35,0,.24,3.71-4.53,5.49-6.33,1.75a.22.22,0,0,0-.38,0,4.26,4.26,0,0,0,2.16,5.73c3.15,1.39,6.51-1.19,7.67-4s1.38-7.23-.41-9.87c-2-2.92-6.26-2.68-9.17-1.5a12.34,12.34,0,0,0-6.38,17.18c4,7.5,13.44,8.11,20.09,3.82,9.48-6.1,11.83-18.29,15.5-28.1,0-.08-.09-.1-.12,0Z"/><path class="cls-9" d="M97.06,95.4s0,0,0,0,0,0,0,0Z"/><path class="cls-9" d="M97.45,94.17c-.3.69-.59,1.39-.87,2.08a8.55,8.55,0,0,0-.74,2.11c0,.12.14.13.19.06a8.24,8.24,0,0,0,.82-1.93c.28-.74.55-1.48.8-2.23,0-.12-.15-.21-.2-.09Z"/><path class="cls-9" d="M98.82,94.61c-1.25,2.25-2.52,4.5-3.71,6.79-.08.16.16.31.25.15C96.61,99.29,97.79,97,99,94.71c.06-.12-.11-.22-.17-.1Z"/><path class="cls-9" d="M100.57,95.15c-1.5,2.43-3.23,4.83-4.51,7.38a.13.13,0,0,0,.22.12c1.67-2.31,3-4.94,4.47-7.39a.11.11,0,0,0-.18-.11Z"/><path class="cls-9" d="M103.32,94a114.15,114.15,0,0,0-6.73,9.9c-.07.13.12.29.22.17a115.52,115.52,0,0,0,6.7-10c.08-.12-.11-.23-.19-.11Z"/><path class="cls-9" d="M103.07,97c-.83,1.58-1.78,3.14-2.48,4.78a.15.15,0,0,0,.26.14c.93-1.51,1.66-3.19,2.47-4.77.08-.17-.17-.31-.25-.15Z"/><path class="cls-9" d="M113.32,57.18a22.94,22.94,0,0,1,.49,11.8c-.06.29.38.42.45.13a19.5,19.5,0,0,0-.62-12c-.08-.2-.38-.13-.32.08Z"/><path class="cls-9" d="M140.39,80a7.53,7.53,0,0,1,4.85,0,.18.18,0,0,0,.14-.32,5.43,5.43,0,0,0-5.09.11c-.13.07,0,.3.1.25Z"/><path class="cls-9" d="M139.61,85.38c.74-.16,1.16.27,1.47.88a.2.2,0,0,0,.37-.1,1.43,1.43,0,0,0-1.92-1.09.16.16,0,0,0,.08.31Z"/><path class="cls-9" d="M64.92,84.81c.47.14.6.47.77.89a.1.1,0,0,0,.2,0A1.09,1.09,0,0,0,65,84.61c-.13,0-.18.16,0,.2Z"/><path class="cls-9" d="M67.14,84.1a3.47,3.47,0,0,1,.53,1.27.11.11,0,0,0,.21,0A1.94,1.94,0,0,0,67.32,84c-.08-.1-.27,0-.18.14Z"/><path class="cls-9" d="M68.41,84.78a.1.1,0,0,0,0-.19.1.1,0,0,0,0,.19Z"/><path class="cls-9" d="M68.18,84a1.75,1.75,0,0,1,1,1.7.11.11,0,0,0,.21,0,1.64,1.64,0,0,0-1.1-2c-.14,0-.24.19-.1.25Z"/><path class="cls-9" d="M91.67,78.56A4.75,4.75,0,0,0,92.52,83c.14.18.39-.07.25-.25a4.81,4.81,0,0,1-.91-4.11.1.1,0,1,0-.19,0Z"/><path class="cls-9" d="M109.06,70.32a12.87,12.87,0,0,1-1.19,3.87,17.79,17.79,0,0,1-2.44,3.23c-.08.09,0,.25.14.17,2.28-1.46,3.59-4.62,3.67-7.24,0-.1-.17-.13-.18,0Z"/><path class="cls-9" d="M91.65,46.93a13.55,13.55,0,0,0,12.26-.78c.25-.14,0-.53-.23-.39a14.43,14.43,0,0,1-11.91.89c-.17,0-.28.21-.12.28Z"/><path class="cls-9" d="M93.5,46.67a2.15,2.15,0,0,1,0,1.28.07.07,0,0,0,.12,0,1.43,1.43,0,0,0,0-1.4c0-.1-.21,0-.17.07Z"/><path class="cls-9" d="M95.82,47.14A3.14,3.14,0,0,0,96,48.32c0,.09.15.07.16,0a3.37,3.37,0,0,0-.18-1.17.06.06,0,0,0-.12,0Z"/><path class="cls-9" d="M98.25,47a3.38,3.38,0,0,0,.2,1.35.06.06,0,0,0,.11,0,3.7,3.7,0,0,0-.1-1.36c0-.12-.21-.09-.21,0Z"/><path class="cls-9" d="M100.42,46.51c.1.49.2,1,.31,1.48a.12.12,0,0,0,.24-.06c-.11-.5-.22-1-.34-1.48a.11.11,0,0,0-.21.06Z"/><path class="cls-9" d="M102.43,46.34a4.41,4.41,0,0,0,.21,1.15c0,.07.12,0,.12,0a4.31,4.31,0,0,0-.12-1.18c0-.14-.23-.08-.21.06Z"/><path class="cls-9" d="M122.71,16.8l-.66-3c0-.16-.27-.09-.24.06l.66,3c0,.15.27.09.24-.07Z"/><path class="cls-9" d="M122,13.6c.15.9.31,1.79.48,2.68a9.75,9.75,0,0,0,.56,2.28.12.12,0,0,0,.22-.06,9.74,9.74,0,0,0-.41-2.32q-.28-1.32-.63-2.64c0-.14-.24-.08-.22.06Z"/><path class="cls-9" d="M114,80.59c-.48,1-.72,2.54.06,3.41.07.08.17,0,.16-.09a12.54,12.54,0,0,1-.32-1.62,4.08,4.08,0,0,1,.29-1.62c0-.11-.14-.18-.19-.08Z"/><path class="cls-9" d="M114.11,82.64a5.66,5.66,0,0,0,.29.88c0,.07.15,0,.14,0a5.71,5.71,0,0,0-.16-.92c0-.17-.32-.1-.27.08Z"/><path class="cls-9" d="M89.37,35.72a4.3,4.3,0,0,0-1.79,1.91c0,.08,0,.21.13.17a15.18,15.18,0,0,0,1.75-.63c.12-.05,0-.22-.08-.19a17.62,17.62,0,0,0-1.73.59l.13.18a4.62,4.62,0,0,1,1.68-1.88c.09-.06,0-.21-.09-.15Z"/><path class="cls-9" d="M89.22,37.49l-2.06,1.66c-.09.07,0,.22.1.22a9.94,9.94,0,0,0,1.33-.11c.13,0,.09-.23,0-.23a9.36,9.36,0,0,0-1.3.08l.09.22,2-1.73a.07.07,0,0,0-.1-.11Z"/><path class="cls-9" d="M88.29,39.16a4.45,4.45,0,0,0-1.55,1.17c-.07.08,0,.25.09.24a1.52,1.52,0,0,1,1,.22l0-.23a4,4,0,0,0-1.29,1.76.15.15,0,0,0,.27.11A5.88,5.88,0,0,1,88,40.77a.15.15,0,0,0,0-.24,1.72,1.72,0,0,0-1.15-.24l.12.21a4.11,4.11,0,0,1,1.43-1.19c.1-.05,0-.2-.09-.15Z"/><path class="cls-9" d="M104.59,35.28a1.68,1.68,0,0,1,1,.58c.13.22.23.59-.08.76a1.51,1.51,0,0,1-.38.06c-.1,0-.11.14-.06.2.37.4,1-.12,1-.55.06-.77-.76-1.1-1.36-1.29-.16,0-.22.19-.07.24Z"/><path class="cls-9" d="M105,37.59l1.52.68,0-.28a2.72,2.72,0,0,0-.31.38c-.08.13.08.31.2.21a2.31,2.31,0,0,0,.36-.34.18.18,0,0,0-.08-.29l-1.56-.61c-.14-.05-.24.19-.1.25Z"/><path class="cls-9" d="M106.42,39a2.24,2.24,0,0,1,1.44-.22l-.09-.23a8.6,8.6,0,0,0-.58.9.16.16,0,0,0,.28.16,10.4,10.4,0,0,0,.56-.9.15.15,0,0,0-.13-.23,2.83,2.83,0,0,0-1.62.29c-.16.08,0,.31.14.23Z"/><path class="cls-9" d="M107.77,39.89l1.22,0-.13-.23a6.66,6.66,0,0,0-.68,1.26c-.06.19.2.26.3.12a6.17,6.17,0,0,0,.64-1.22.16.16,0,0,0-.13-.23c-.41,0-.82,0-1.22,0a.14.14,0,0,0,0,.27Z"/><path class="cls-9" d="M91.61,59.89a17.68,17.68,0,0,1,1.06-2.08,15.21,15.21,0,0,1,1.68-1.91.08.08,0,0,0-.1-.12,6.27,6.27,0,0,0-2.78,4c0,.08.1.14.14.06Z"/><path class="cls-9" d="M127.8,27.3a9.59,9.59,0,0,1,1.78-2.41.15.15,0,0,0-.18-.24,5.32,5.32,0,0,0-1.06.68.09.09,0,0,0,.09.16,4.76,4.76,0,0,0,1.12-.58l-.18-.23a9.29,9.29,0,0,0-1.75,2.51c-.06.12.12.23.18.11Z"/><path class="cls-9" d="M129,24.91a1.85,1.85,0,0,0,.28-1.28c0-.12-.19-.14-.27-.07-.24.23-.52.4-.63.72a.07.07,0,0,0,.09.09,1.88,1.88,0,0,0,.77-.58l-.27-.07a1.43,1.43,0,0,1-.21,1.05.14.14,0,0,0,.24.14Z"/><path class="cls-9" d="M128.34,24.12l.21-.84a.16.16,0,0,0-.24-.18,1.91,1.91,0,0,0-1.09,1.07.09.09,0,0,0,.14.1,10.55,10.55,0,0,1,1.11-.89l-.23-.19c-.07.29-.14.57-.2.85a.16.16,0,0,0,.3.08Z"/><path class="cls-9" d="M127.94,35.53a1.73,1.73,0,0,1,.65-1.17c.12-.1,0-.25-.15-.2l-.42.19.19.18.4-.93c0-.09,0-.23-.13-.22l-.62.06.12.28a1.34,1.34,0,0,0,.35-1.23c0-.17-.28-.12-.3,0a1.89,1.89,0,0,1-.31,1c-.09.13.06.26.19.24l.61-.09-.18-.18c-.13.31-.26.62-.38.94,0,.12.1.19.2.15l.41-.2-.15-.2a2.06,2.06,0,0,0-.69,1.32c0,.12.19.15.21,0Z"/><path class="cls-9" d="M127.14,45a4.41,4.41,0,0,0,.84-1.38c0-.1-.09-.21-.19-.15a4.68,4.68,0,0,0-1,1.33c-.13.21.2.4.33.2Z"/><path class="cls-9" d="M127.57,44.15a.86.86,0,0,0-.08-.83l-.07.17a.94.94,0,0,0,.62-.8,10,10,0,0,0,0-1.64.18.18,0,0,0-.27-.16.88.88,0,0,0-.31.26c0,.06,0,.18.07.17a.88.88,0,0,0,.38-.09l-.23-.18a11.37,11.37,0,0,0,0,1.17c0,.53-.17.69-.42,1.1a.12.12,0,0,0,0,.14.42.42,0,0,1,0,.51c-.13.18.2.38.31.18Z"/><path class="cls-9" d="M74.82,24.74a2.25,2.25,0,0,0,0-.58c0-.1-.18-.1-.2,0a2.25,2.25,0,0,0,0,.58.1.1,0,0,0,.2,0Z"/><path class="cls-9" d="M74.9,25.45c.22-.54.47-1.09.66-1.64.06-.18-.22-.3-.3-.13-.24.55-.44,1.13-.65,1.69-.07.19.22.26.29.08Z"/><path class="cls-10" d="M72.86,86.88l-1.48.29a41.94,41.94,0,0,0,10.68-1.5c1.68-.51,3.67-.26,5.33-.86s1.48-1.55,3.24-1.32a58.52,58.52,0,0,0,23.56-1.7l1,.58,13.83.48,6.27-.44s.4,4,2.32,6.39c-2.11.69-14.89,2.92-14.89,2.92a119.78,119.78,0,0,1-20.94,1.93L87.25,92.54a37,37,0,0,0-11.93,1.21s-2.74,1-3.4,1.36c-.8-.72-1.76-4.36-1.76-4.36L71,87Z"/><path class="cls-10" d="M71.18,86.86c-1.44,2.06-1.1,5.13-.11,7.3.12.25.57.07.46-.2-1-2.47-.64-4.51-.19-7a.09.09,0,0,0-.16-.06Z"/><path class="cls-10" d="M71.1,93.81s0,0,0,0a0,0,0,0,0,0,0Z"/><path class="cls-10" d="M137.08,88.5A17.37,17.37,0,0,1,135.76,86a11.73,11.73,0,0,1-.42-2.82c0-.39-.62-.53-.71-.1a6,6,0,0,0,2.15,5.75c.19.14.4-.12.3-.3Z"/><path class="cls-10" d="M135.11,83.23c-6.56-1.85-14.7-.94-21.42-.44-.61,0-.62,1,0,.95,3.56-.26,7.12-.43,10.7-.44s7.22.48,10.7,0a.06.06,0,0,0,0-.11Z"/><path class="cls-9" d="M89.52,83.47a56.23,56.23,0,0,0,25.09-1.62.19.19,0,0,0-.1-.36,74.11,74.11,0,0,1-12.82,2.05,111.71,111.71,0,0,1-12.14-.28c-.12,0-.15.19,0,.21Z"/><path class="cls-9" d="M114.28,81.53a3.76,3.76,0,0,0,.52,1.32,6,6,0,0,0,.77,1.4c.12.15.33,0,.3-.17a5.65,5.65,0,0,0-.63-1.37,4,4,0,0,0-.76-1.26c-.07-.06-.21,0-.2.08Z"/><path class="cls-9" d="M89.74,83.32a1.94,1.94,0,0,0-.87,2.06.12.12,0,0,0,.24,0c.09-.33.07-.67.17-1a4.3,4.3,0,0,1,.53-1s0-.09-.07-.07Z"/><path class="cls-9" d="M88.89,84,89,84c.06,0,0-.12-.06-.06l-.08.13s0,0,0,0Z"/><path class="cls-9" d="M89.1,83.7A26.06,26.06,0,0,1,82,85.48a3.42,3.42,0,0,0-2.84,1.71c-.12.23.21.42.33.2,1-1.9,3.57-1.54,5.4-1.94a15.28,15.28,0,0,0,4.25-1.61c.1,0,0-.18-.08-.14Z"/><path class="cls-9" d="M80.11,86.17c-2.74.23-5.38.57-8.13.54a.2.2,0,0,0,0,.4,22.36,22.36,0,0,0,8.14-.8c.08,0,.07-.15,0-.14Z"/><path class="cls-9" d="M71.9,86.88A7.12,7.12,0,0,0,72,88.1a0,0,0,0,0,.06,0A6.17,6.17,0,0,0,72,86.88c0-.07-.12-.07-.11,0Z"/><path class="cls-9" d="M72,86.87a3,3,0,0,0-.9,0,.08.08,0,0,0,0,.15A2.79,2.79,0,0,0,72,87c.07,0,.05-.11,0-.11Z"/><path class="cls-9" d="M70.84,87.07a6.36,6.36,0,0,0,0,5c.05.09.19,0,.17-.07a9.33,9.33,0,0,1,0-4.89c0-.06-.08-.11-.1-.05Z"/><polygon class="cls-9" points="70.66 86.99 70.66 86.99 70.66 86.99 70.66 86.99"/><polygon class="cls-9" points="70.66 86.99 70.66 86.99 70.66 86.99 70.66 86.99"/><path class="cls-9" d="M71.06,86.86a7.55,7.55,0,0,0,.66,8c.1.13.32,0,.22-.13a7.89,7.89,0,0,1-.81-7.86s0-.07-.07,0Z"/><path class="cls-9" d="M72,95.17c10.42-4.63,21.83-1.2,32.76-1.44s21.56-2.43,32.17-4.62c.15,0,.09-.27-.07-.24-11.52,2.37-23.18,4.77-35,4.63C92,93.38,81.1,90.26,71.88,95c-.09,0,0,.17.07.13Z"/><path class="cls-9" d="M136.74,89.19a2.33,2.33,0,0,0,.81-.22.14.14,0,1,0-.11-.25,2.27,2.27,0,0,0-.72.42s0,0,0,0Z"/><path class="cls-9" d="M137.77,88.55a12.14,12.14,0,0,1-1.58-2.92,18.47,18.47,0,0,1-.49-3,.12.12,0,0,0-.24,0,7.3,7.3,0,0,0,2.09,6c.11.11.31,0,.22-.17Z"/><path class="cls-9" d="M135.14,82.25a1.8,1.8,0,0,0-.86,2,.09.09,0,0,0,.17,0,2.2,2.2,0,0,1,.79-1.86.08.08,0,0,0-.1-.13Z"/><path class="cls-9" d="M134.23,82.47c-6.38-.44-12.83-.26-19.22-.3a.2.2,0,0,0,0,.4c6.39.07,12.84.37,19.22,0a.07.07,0,0,0,0-.14Z"/><path class="cls-9" d="M89.09,85.36a1.49,1.49,0,0,0,.2.15.07.07,0,1,0,0-.12.88.88,0,0,0-.23-.07s0,0,0,0Z"/><path class="cls-9" d="M89,85.52c-.2.38-.37.79-.55,1.2a.07.07,0,1,0,.12.06l.47-.73L88.92,86a7.35,7.35,0,0,0-.55,1s0,.07.07,0a7.23,7.23,0,0,0,.6-1,.07.07,0,1,0-.12-.08c-.16.25-.32.5-.47.75l.13,0c.16-.41.35-.81.49-1.23,0,0,0-.06-.07,0Z"/><path class="cls-9" d="M116,84.61a5,5,0,0,0,1.27,1l.07-.26a1,1,0,0,1-.84-.6l-.2.16a7.22,7.22,0,0,0,.79.87c.07,0,.18,0,.13-.1a6.82,6.82,0,0,0-.74-1c-.1-.13-.26,0-.2.16a1.27,1.27,0,0,0,1.06.75c.14,0,.17-.19.07-.26a5.27,5.27,0,0,0-1.34-.81s-.11,0-.07.1Z"/><path class="cls-9" d="M88.89,85.68l.12-.1s0-.07,0,0l-.09.13s0,0,0,0Z"/><path class="cls-9" d="M89.32,85.48a129,129,0,0,0,26.83-1.54c.17,0,.1-.28-.07-.26a210,210,0,0,1-26.76,1.68c-.07,0-.07.11,0,.12Z"/><path class="cls-9" d="M97.11,84.14a4.62,4.62,0,0,0,.19,1.34.06.06,0,0,0,.12,0,4.73,4.73,0,0,0-.16-1.34c0-.08-.15-.07-.15,0Z"/><path class="cls-9" d="M103.11,83.81a5.16,5.16,0,0,0,.19,1.11c0,.08.16.08.15,0a4.81,4.81,0,0,0-.25-1.11,0,0,0,0,0-.09,0Z"/><path class="cls-9" d="M92.69,83.66c-.45.53-.45,1.83.33,2.09a0,0,0,0,0,0-.07,2.84,2.84,0,0,1-.49-.82,1.63,1.63,0,0,1,.19-1.14s0-.11-.08-.06Z"/><path class="cls-9" d="M92.7,84.12A1.6,1.6,0,0,0,93.09,86c.1.1.25-.06.15-.14a1.71,1.71,0,0,1-.49-1.69s0,0,0,0Z"/><path class="cls-9" d="M93.12,83.79a2,2,0,0,0,.66,2.06.08.08,0,0,0,.11-.11,4,4,0,0,1-.53-.83,2.43,2.43,0,0,1-.14-1.1.05.05,0,0,0-.1,0Z"/><path class="cls-9" d="M90.16,83.59c0,.81.09,1.62.13,2.42,0,.14.23.14.22,0-.08-.81-.14-1.62-.25-2.43,0,0-.1,0-.1,0Z"/><path class="cls-9" d="M90.89,83.89A2.22,2.22,0,0,0,91.34,86c.1.12.27,0,.17-.16A2,2,0,0,1,91,83.93a.07.07,0,0,0-.13,0Z"/><path class="cls-9" d="M109.19,83c.08.81.2,1.63.34,2.43,0,.12.22.1.21,0-.1-.81-.22-1.64-.38-2.44,0-.1-.18-.07-.17,0Z"/><path class="cls-9" d="M110.15,82.7a17.75,17.75,0,0,0,.17,2.41c0,.1.16.11.15,0a17.71,17.71,0,0,0-.24-2.42s-.08,0-.08,0Z"/><path class="cls-9" d="M112,82.45a10.6,10.6,0,0,0,.75,2.46c.06.14.27.08.23-.06a10.62,10.62,0,0,0-.92-2.41s-.06,0-.06,0Z"/><path class="cls-9" d="M113.24,82c.08.93.15,1.86.29,2.77,0,.1.19.08.18,0-.07-.92-.21-1.85-.35-2.76,0-.07-.13-.06-.12,0Z"/><path class="cls-9" d="M88.44,85.32c-.34.12-.68.26-1,.41-.07,0,0,.13.06.1a9.45,9.45,0,0,0,1-.47,0,0,0,0,0,0,0Z"/><path class="cls-9" d="M86.57,86a5.46,5.46,0,0,0-.78.35.05.05,0,0,0,0,.1,6,6,0,0,0,.79-.33c.06,0,0-.14-.05-.12Z"/><path class="cls-9" d="M84.92,86.51a3.52,3.52,0,0,0-.78.24s0,.09,0,.08a4.28,4.28,0,0,0,.78-.21.06.06,0,1,0,0-.11Z"/><path class="cls-9" d="M83.17,87c-.19.06-.37.11-.56.19s0,.13,0,.1.36-.16.55-.25c0,0,0-.05,0,0Z"/><path class="cls-9" d="M81.08,87.05a3.76,3.76,0,0,0-.89.23,0,0,0,0,0,0,.09,3.54,3.54,0,0,0,.89-.23c.06,0,0-.1,0-.09Z"/><path class="cls-9" d="M79.84,87.36a2.51,2.51,0,0,0-.53.37s0,.07,0,.06a2.42,2.42,0,0,0,.58-.29.08.08,0,0,0-.08-.14Z"/><path class="cls-9" d="M78.76,87.82a2.28,2.28,0,0,0-.53.37s0,.06,0,0a3.14,3.14,0,0,0,.58-.29c.08,0,0-.18-.07-.13Z"/><path class="cls-9" d="M77.8,88.17a3.48,3.48,0,0,0-.79.09c-.05,0,0,.1,0,.1a4,4,0,0,0,.77-.13s0-.07,0-.06Z"/><path class="cls-9" d="M76.1,88.45a1.13,1.13,0,0,0-.21.12c-.06,0,0,.15,0,.12a1,1,0,0,0,.24-.11c.09,0,0-.17-.08-.13Z"/><path class="cls-9" d="M74.6,88.6a4.72,4.72,0,0,0-.54.13,0,0,0,0,0,0,.08,3.7,3.7,0,0,0,.57-.07c.1,0,0-.16,0-.14Z"/><path class="cls-9" d="M73.29,88.55a.47.47,0,0,0-.23,0,.05.05,0,0,0,0,.1.62.62,0,0,0,.23,0c.12,0,.12-.19,0-.18Z"/><path class="cls-9" d="M72.2,88.62a2.63,2.63,0,0,0-.56.1s0,.1,0,.1a2.8,2.8,0,0,0,.57-.08c.07,0,0-.13,0-.12Z"/><path class="cls-9" d="M71,88.62a5.39,5.39,0,0,0-.56.08c-.08,0-.06.14,0,.13a3.59,3.59,0,0,0,.57-.11s0-.11,0-.1Z"/><path class="cls-9" d="M70.66,88.76a0,0,0,1,0,0,0,0,0,0,1,0,0,0Z"/><path class="cls-9" d="M116.09,83.47a8.24,8.24,0,0,0,1.77.22.07.07,0,0,0,0-.13,8.17,8.17,0,0,0-1.77-.22c-.08,0-.1.12,0,.13Z"/><path class="cls-9" d="M118.42,83.66h.33c.07,0,.07-.12,0-.12a1.82,1.82,0,0,0-.33,0,.07.07,0,0,0,0,.14Z"/><path class="cls-9" d="M120.31,83.78l.34-.13c.06,0,0-.13-.05-.11a1.78,1.78,0,0,0-.33.09.08.08,0,1,0,0,.15Z"/><path class="cls-9" d="M121.84,83.65a5.36,5.36,0,0,0,.54-.14.06.06,0,0,0,0-.12,5.62,5.62,0,0,0-.57.09c-.11,0-.06.2,0,.17Z"/><path class="cls-9" d="M122.91,83.62a2.49,2.49,0,0,0,.67,0c.08,0,.08-.12,0-.13a2.49,2.49,0,0,0-.67,0,0,0,0,0,0,0,.07Z"/><path class="cls-9" d="M124.78,83.63a6.57,6.57,0,0,0,1,0,.07.07,0,1,0,0-.13,6.59,6.59,0,0,0-1,0s0,.07,0,.08Z"/><path class="cls-9" d="M126.65,83.66a5.26,5.26,0,0,0,.89,0,0,0,0,0,0,0-.09,6.56,6.56,0,0,0-.89,0,.07.07,0,1,0,0,.15Z"/><path class="cls-9" d="M127.85,83.74a2.5,2.5,0,0,0,.67,0,0,0,0,0,0,0-.09,2.15,2.15,0,0,0-.67,0s0,.07,0,.08Z"/><path class="cls-9" d="M129.37,83.8a5.35,5.35,0,0,0,.56.08c.06,0,.1-.09,0-.11l-.55-.11c-.09,0-.14.13,0,.14Z"/><path class="cls-9" d="M131.26,83.76a2.5,2.5,0,0,0,.67,0,0,0,0,0,0,0-.09,2.5,2.5,0,0,0-.67,0c-.07,0-.07.11,0,.12Z"/><path class="cls-9" d="M132.71,83.76l.54-.13a0,0,0,0,0,0-.09l-.57.09c-.08,0,0,.15,0,.13Z"/><path class="cls-9" d="M134.25,83.52a1.05,1.05,0,0,0,.21-.12s0-.11,0-.09l-.24.1c-.07,0,0,.15.06.11Z"/><path class="cls-9" d="M99.85,85.56a21.74,21.74,0,0,0,.1,2.55,3,3,0,0,0,.31,1.5c.55.79,1.63.53,2.39.27a.06.06,0,0,0,0-.12,3,3,0,0,1-1.42.23c-.94-.18-1.07-1.09-1.12-1.88a21.89,21.89,0,0,0-.2-2.56s0,0,0,0Z"/><path class="cls-9" d="M101.32,90.19l.09.56c0,.1.17.06.15,0l-.12-.55c0-.08-.13,0-.12,0Z"/><path class="cls-9" d="M101.54,91.05c0,.19,0,.37,0,.55a.07.07,0,0,0,.14,0c0-.18,0-.36,0-.55a.08.08,0,0,0-.16,0Z"/><path class="cls-9" d="M101.57,91.93a2.1,2.1,0,0,0,0,.56c0,.05.09.05.09,0a1.75,1.75,0,0,0,0-.56.05.05,0,0,0-.1,0Z"/><path class="cls-9" d="M101.68,92.93a2.37,2.37,0,0,0,.13.34c0,.06.12,0,.11,0a2,2,0,0,0-.09-.33c0-.1-.19,0-.15,0Z"/><path class="cls-9" d="M101.88,93.25a.59.59,0,0,0,0,.23.06.06,0,0,0,.12,0,.87.87,0,0,0,0-.23.07.07,0,0,0-.14,0Z"/><path class="cls-9" d="M101.08,86.58c.11.77.25,1.54.38,2.31,0,.11.19.06.17,0-.14-.77-.26-1.55-.42-2.31,0-.09-.15-.05-.13,0Z"/><path class="cls-3" d="M72.48,87.84a8.06,8.06,0,0,0,3-.13.17.17,0,0,0,0-.34c-1,0-2,.06-2.94,0-.32,0-.32.46,0,.5Z"/></svg>