<svg id="illustration" xmlns="http://www.w3.org/2000/svg" viewBox="0 0 198.43 149.18"><defs><style>.cls-1{fill:#fffffe;}.cls-2{fill:#ccc461;}.cls-3{fill:#f6f29d;}.cls-4{fill:#421313;}.cls-5{fill:#fff;}.cls-6{fill:#231f20;}.cls-7{fill:#010101;}</style></defs><g id="Layer_7" data-name="Layer 7"><path class="cls-1" d="M118.09,8.86c.49.5-.85,2.55-2.67,5.47a34.14,34.14,0,0,0-2.61,5,11.61,11.61,0,0,0-1,5.4,8.36,8.36,0,0,0,.59,2.4,10.37,10.37,0,0,0,1.25,2.15A23.67,23.67,0,0,0,117.34,33l3.47,3c.93.79,1.56,1.39,1.72,1.54s.78.83,1.72,2a26.66,26.66,0,0,1,3.29,5.17,25.86,25.86,0,0,1,2.33,7.89,25.07,25.07,0,0,1-.46,9.07,23.07,23.07,0,0,1-3.63,8,21.69,21.69,0,0,1-5.19,5.24,15.18,15.18,0,0,1-4.53,2.29c-1.18.34-1.93.3-2.07,0s.29-.87,1-1.7A43.86,43.86,0,0,0,118,72.13a23.58,23.58,0,0,0,3-5.19,19.6,19.6,0,0,0,1.53-6.4,19.07,19.07,0,0,0-.69-6.4,18.67,18.67,0,0,0-2.28-5.08A19.89,19.89,0,0,0,117,45.91c-.76-.78-1.36-1.3-1.48-1.44L114.1,43c-.77-.85-1.89-2-3.23-3.55a29.28,29.28,0,0,1-4.24-6,17.19,17.19,0,0,1-1.52-4.26,15.09,15.09,0,0,1-.22-4.69A14.77,14.77,0,0,1,106,20.11a18.76,18.76,0,0,1,2-3.52,25.75,25.75,0,0,1,4.53-4.79C115.44,9.44,117.63,8.39,118.09,8.86Z"/><path class="cls-1" d="M101.5,5.73c.36.59-1.06,2.15-3.14,4.28a37.68,37.68,0,0,0-6.36,8,16.83,16.83,0,0,0-1.72,4.61,11.17,11.17,0,0,0-.15,3.9,13.91,13.91,0,0,0,.71,2.85c.26.74.47,1.24.52,1.38a42.24,42.24,0,0,0,2,5.29c.66,1.52,1.54,3.38,2.41,5.49a35.5,35.5,0,0,1,2.17,7.11,20.91,20.91,0,0,1,.31,4,15.1,15.1,0,0,1-.59,3.93,13.33,13.33,0,0,1-3.39,5.86,8.12,8.12,0,0,1-4.11,2.3,3.23,3.23,0,0,1-1.32,0c-.32-.07-.49-.19-.54-.36a.8.8,0,0,1,.22-.6c.18-.22.45-.5.75-.83a10.58,10.58,0,0,0,2-2.84,11.51,11.51,0,0,0,1-4.51,11,11,0,0,0-.24-2.5,15.67,15.67,0,0,0-.81-2.64c-1.38-3.52-3.93-7-5.86-10.14-1-1.56-1.77-3-2.32-4.16A22,22,0,0,1,82.05,34a19.41,19.41,0,0,1-.56-2.18,21.43,21.43,0,0,1-.44-5,18.94,18.94,0,0,1,1.47-6.7A22.31,22.31,0,0,1,86.33,14a26.35,26.35,0,0,1,5-4.45,30.64,30.64,0,0,1,4.83-2.69C99.09,5.58,101.15,5.16,101.5,5.73Z"/><path class="cls-1" d="M61.76,28.9a1.66,1.66,0,0,1,.39,1.19A12.51,12.51,0,0,0,62.46,32,10.84,10.84,0,0,0,65,36.35a13.39,13.39,0,0,0,2.09,1.85c.8.61,1.63,1.19,2.4,1.74a34.51,34.51,0,0,1,2.93,2.26c.08.09.4.46.89,1.08A23.29,23.29,0,0,1,75.16,46a15.85,15.85,0,0,1,1.73,4.51A14,14,0,0,1,77,55.83a12.87,12.87,0,0,1-4.44,7.81,8.85,8.85,0,0,1-1.36.88A7.1,7.1,0,0,1,70,65c-.71.14-1.17.07-1.36-.21a1.56,1.56,0,0,1,.09-1.32c.1-.29.21-.63.36-1s.29-.74.41-1.17a11.79,11.79,0,0,0,.52-5.8,7.84,7.84,0,0,0-.9-2.54,10.38,10.38,0,0,0-1.41-1.8c-1-1.06-2.1-1.86-2.23-2L63.3,46.56c-.64-.77-1.41-1.71-2.19-2.82a17.21,17.21,0,0,1-2.17-4A13.63,13.63,0,0,1,58,35.31a9.13,9.13,0,0,1,.67-4,5,5,0,0,1,1.77-2.23C61.05,28.73,61.49,28.69,61.76,28.9Z"/><path class="cls-1" d="M76.11,4c.38.57,0,1.59-.69,2.79a29.35,29.35,0,0,0-2.07,3.86,5,5,0,0,0-.32,2.9,1.59,1.59,0,0,0,.26.53.77.77,0,0,1,.13.16,2,2,0,0,0,0,.29,3.06,3.06,0,0,0,.17,1,15.27,15.27,0,0,0,.83,2c.41.85.87,1.77,1.36,3a10.9,10.9,0,0,1,.73,3.8,7.44,7.44,0,0,1-.75,3.41A3.64,3.64,0,0,1,74,29.54a1.06,1.06,0,0,1-1.23-.12,2.17,2.17,0,0,1-.35-1.09A4.71,4.71,0,0,0,72,27a8,8,0,0,0-.88-1.48,8.93,8.93,0,0,0-1.36-1.46c-.5-.42-1.22-1.06-1.91-1.69a17.42,17.42,0,0,1-2.06-2.21,12,12,0,0,1-1.46-2.39,8.35,8.35,0,0,1-.51-1.38A7.75,7.75,0,0,1,63.67,15a10.89,10.89,0,0,1,.4-2.92A11.55,11.55,0,0,1,65.58,8.8,12.19,12.19,0,0,1,68,6.14a12.59,12.59,0,0,1,5.17-2.5C74.66,3.34,75.73,3.42,76.11,4Z"/><path class="cls-1" d="M97.81,29.44c.68.17,1,1.45,1.81,2.87a17.66,17.66,0,0,0,1.55,2.32,26.68,26.68,0,0,0,2.2,2.45,52.39,52.39,0,0,1,5.12,5.56,16.93,16.93,0,0,1,1.68,2.74,8.35,8.35,0,0,1,.63,1.42,14.67,14.67,0,0,1,.36,1.62l.2,1.57c0,.6,0,1.26,0,2s-.09,1.45-.17,2.23a23.79,23.79,0,0,1-.47,2.38,20.39,20.39,0,0,1-1.85,4.72,18.23,18.23,0,0,1-2.9,4,14.51,14.51,0,0,1-3.28,2.59,8.2,8.2,0,0,1-2.73,1c-.73.09-1.19,0-1.36-.3s-.05-.77.24-1.35.74-1.32,1.22-2.15a24.64,24.64,0,0,0,1.36-2.9,18.88,18.88,0,0,0,1-3.37,17.21,17.21,0,0,0,.26-3.37c0-.53-.09-1-.1-1.52s-.15-.91-.23-1.32l-.29-1.08-.3-.82c-.16-.46-.32-.73-.33-.81a6.64,6.64,0,0,0-.19-.79,10.52,10.52,0,0,0-.56-1.78c-.31-.77-.75-1.69-1.3-2.76s-1.2-2.26-1.81-3.57a20.62,20.62,0,0,1-1.47-4.14,12.36,12.36,0,0,1-.28-3.94,6.06,6.06,0,0,1,.87-2.69C97.08,29.6,97.49,29.36,97.81,29.44Z"/></g><polyline class="cls-2" points="89.17 126.33 112.3 126.33 112.05 119.55 88.42 120.36 89.17 126.33"/><path class="cls-3" d="M52.66,75.73l83.77-1.15s10.3,16.63-9.15,35-39.06,11.59-39.06,11.59-17.89-3.8-27.32-16.12S52,78.48,52.66,75.73Z"/><path class="cls-4" d="M125,65.69s4.71-2.38,8.35,1.22a2.49,2.49,0,0,1-2.11,3l-.81.51.15,1.6-.69,1.31-1.05,1.38L127,74.52V72.91l.53-1.26.38-1.27.4-1-1.16-.85-.84-.92-.61-.82Z"/><polygon class="cls-4" points="54.35 75.14 54.98 70.24 54.77 69.2 55.73 68.19 56.75 67.58 58.01 67.18 59.18 67.18 60.44 67.67 61.18 68.75 61.13 70.11 60.29 70.98 59.18 71.39 58.01 71.39 59.18 72.2 59.45 73.58 59.46 74.58 58.73 75.76 54.35 75.71 54.35 75.14"/><polygon class="cls-4" points="51.33 119.45 50.93 120.64 51.33 121.55 51.99 122.59 50.93 122.51 50.29 122.94 49.93 123.65 50.26 124.94 49.35 125.55 48.45 126.88 48.29 127.94 48.87 130.14 46.9 130.11 45.52 131.07 44.98 133.03 45.82 134.86 46.93 135.49 48.48 135.36 50.14 134.48 50.92 133.57 51.41 132.04 51.6 131.19 53.59 130.39 54.15 129.22 54.15 127.94 53.9 126.81 52.75 125.81 53.74 125.32 54.54 124.54 54.81 123.33 56.45 123.75 57.73 123.16 58.02 121.83 57.73 120.79 56.35 120.27 55.35 119.45 54.15 118.61 52.36 118.61 51.33 119.45"/><path class="cls-5" d="M52.25,121a1,1,0,0,1,.86-1.2.1.1,0,0,0,0-.19A1.11,1.11,0,0,0,52,121a.11.11,0,1,0,.21-.06Z"/><path class="cls-5" d="M51.05,124.8c-.06-.25-.22-.49-.16-.76s.35-.43.64-.59a.23.23,0,0,0-.05-.41c-1-.18-1.7,1.69-.61,1.94a.15.15,0,0,0,.18-.18Z"/><path class="cls-5" d="M49.5,129.32c0-.47-.39-.79-.27-1.3s.55-.63.84-1a.19.19,0,0,0-.09-.31c-.63-.18-1.22.6-1.35,1.14s0,1.62.73,1.61a.14.14,0,0,0,.14-.14Z"/><path class="cls-5" d="M46.79,134a1.77,1.77,0,0,1-.47-1.82,5.3,5.3,0,0,1,.85-1.3.18.18,0,0,0-.16-.28,1.78,1.78,0,0,0-1.38,1.54,2.52,2.52,0,0,0,.79,2.24c.24.24.61-.13.37-.38Z"/><path class="cls-5" d="M54.89,121.64a.39.39,0,0,0,0-.77.39.39,0,0,0,0,.77Z"/><path class="cls-5" d="M55,121.65a.33.33,0,0,0,0-.66.33.33,0,0,0,0,.66Z"/><path class="cls-5" d="M129.33,67.58a.61.61,0,0,0,0-1.21.61.61,0,0,0,0,1.21Z"/><path class="cls-5" d="M127.2,65.49a15.38,15.38,0,0,1,1.92,0A13.36,13.36,0,0,1,131,66a.12.12,0,0,0,.09-.23,6.14,6.14,0,0,0-3.91-.48.12.12,0,0,0,0,.23Z"/><path class="cls-5" d="M132.63,66.71a1.32,1.32,0,0,1-.09.76,2.2,2.2,0,0,0-.27.47.13.13,0,0,0,.12.16c.69,0,.82-1,.55-1.48-.08-.13-.33-.09-.31.09Z"/><path class="cls-5" d="M128.3,71.56a2.13,2.13,0,0,0-.75,1.32c-.06.39,0,1,.33,1.19a.17.17,0,0,0,.25-.1,4.35,4.35,0,0,0,.06-1,2.11,2.11,0,0,1,.48-1.09.26.26,0,0,0-.37-.36Z"/><path class="cls-5" d="M57.1,68.71a.63.63,0,0,0,.22,1.2.71.71,0,0,0,.47-1.28c-.54-.42-1.14.4-.57.73q.3-.4.24-.18a.3.3,0,0,0-.36-.47Z"/><path class="cls-5" d="M58.69,68a1.82,1.82,0,0,1,1,.15c.24.11.41.29.65.39a.23.23,0,0,0,.28-.28c-.25-.74-1.29-.87-2-.73-.25.06-.2.5.07.47Z"/><path class="cls-5" d="M55.43,68.7a.71.71,0,0,0-.47,1,.23.23,0,0,0,.41,0,1.33,1.33,0,0,1,.26-.58c.14-.14,0-.43-.2-.36Z"/><path class="cls-5" d="M55.19,71.91a2.35,2.35,0,0,0-.06,2.57.24.24,0,0,0,.4-.17c0-.34-.15-.64-.16-1a2.6,2.6,0,0,1,.24-1.16c.13-.28-.26-.53-.42-.25Z"/><path class="cls-5" d="M57.49,69.71a.47.47,0,0,0,0-.93.47.47,0,0,0,0,.93Z"/><path class="cls-6" d="M57.49,69.46a.35.35,0,0,0,0-.7.35.35,0,0,0,0,.7Z"/><path class="cls-6" d="M129.39,67.16a.39.39,0,0,0,0-.77.39.39,0,0,0,0,.77Z"/><path class="cls-6" d="M55.3,121.71l.06,0a.28.28,0,0,0,0-.47l-.06,0c-.56-.25-.56.76,0,.51Z"/><path class="cls-5" d="M55.42,85.92c.63,7.9,6,15.85,12.08,20.69.72.57,1.75-.45,1-1a34.57,34.57,0,0,1-8-8.74c-2.14-3.49-3.23-7.17-4.47-11-.11-.31-.64-.28-.61.09Z"/><path class="cls-5" d="M80.53,89.32c3.2,1.34,7,1.71,10.46,2.05a64.63,64.63,0,0,0,11.72.1A56.35,56.35,0,0,0,123.64,86c.76-.39.23-1.7-.59-1.4-6.91,2.49-13.84,4.49-21.21,5a63.48,63.48,0,0,1-10.41-.13c-3.62-.33-7.1-1.34-10.68-1.78-1-.13-1,1.34-.22,1.67Z"/><path class="cls-7" d="M134.84,75l-.41-.4s0,0,0,0l.39.4s.06,0,0,0Z"/><path class="cls-7" d="M134.81,74.37c-13.65-.27-27.37.32-41,.52l-41,.62c-.31,0-.31.5,0,.49l41-.62c13.66-.21,27.39,0,41-.72a.15.15,0,0,0,0-.29Z"/><path class="cls-7" d="M52.57,75.71c-3.3,18.41,9.27,35.58,25.71,42.55,8.8,3.73,19.29,5.38,28.75,3.64s17.16-8.28,23.41-15.31c3.46-3.9,6.71-8.27,8-13.4,1.5-5.94,0-12.07-1.38-17.87-.07-.3-.53-.17-.46.13,1.34,5.47,2.71,11.18,1.56,16.81-1,4.68-3.69,8.81-6.71,12.42-5.69,6.8-12.75,13.42-21.43,16-9,2.68-19.47,1.4-28.21-1.59a44.67,44.67,0,0,1-21.88-15.7,38.81,38.81,0,0,1-7.18-27.66c0-.1-.16-.12-.18,0Z"/><path class="cls-7" d="M70,71.29c-4.09-5.24,2-10.53,5.44-14,2.9-2.93,6.34-5.76,8.76-9.1,4.8-6.62-.74-13.89-5.32-18.76-.1-.11-.26,0-.16.16,3.28,3.74,7,7.9,6.85,13.21S80.38,51.6,77,55c-3.61,3.66-12.48,10.65-7.18,16.4.07.08.18,0,.12-.11Z"/><path class="cls-7" d="M121.15,70.42c8-6.72,12-20,5.1-28.93-3.6-4.69-9.16-7-14.23-9.74-6.12-3.27-13.12-9.49-9.13-17.11a.12.12,0,0,0-.21-.12c-2.59,3.76-1.23,8.78,1.52,12.06C108,31.11,114,33,118.89,36c6.2,3.71,10.35,9,10.35,16.54a24.32,24.32,0,0,1-8.17,17.86s0,.12.08.07Z"/><path class="cls-7" d="M89.62,68.75c-1.66-6,4.88-9,7.1-13.71a12,12,0,0,0-.23-10.68c-.07-.14-.26,0-.21.11A12.82,12.82,0,0,1,97,53.05C96.17,56,94.15,58,92.18,60.18c-2.12,2.36-4.05,5.39-2.61,8.59,0,0,.05,0,.05,0Z"/><path class="cls-7" d="M101.92,63.15A22.81,22.81,0,0,0,107.68,49a7.47,7.47,0,0,0-1.82-5.86A104.86,104.86,0,0,0,98.4,35.7c-.1-.1-.25,0-.15.16,1.73,2,3.62,3.82,5.47,5.7,2.25,2.29,3.67,4,3.56,7.45a24,24,0,0,1-5.4,14.1,0,0,0,1,0,0,0Z"/><path class="cls-7" d="M71.56,50.05c4.4-2,6.81-7.82,4.37-12.16-.07-.12-.28,0-.23.1,1.78,4.57.34,9.66-4.19,12-.06,0,0,.11,0,.09Z"/><path class="cls-7" d="M62.38,38.74c.83-2.29,3-4.08,2.74-6.69-.24-2.37-1.93-4.34-2.81-6.48A13.89,13.89,0,0,1,67.14,9.4c.07-.05,0-.17-.07-.12a13.78,13.78,0,0,0-5.94,12.06,15,15,0,0,0,2.18,6.75c1.28,2.35,2.24,4.47.82,7.08a17.08,17.08,0,0,0-1.84,3.55c0,.06.07.08.09,0Z"/><path class="cls-7" d="M112.75,27.27a12.29,12.29,0,0,1-.93-12.44c1.57-3.1,4.78-4.86,6.35-7.95,0-.06-.06-.11-.09,0-2.07,3.7-6,5.71-7.2,10a12.32,12.32,0,0,0,1.8,10.5,0,0,0,1,0,.07,0Z"/><path class="cls-7" d="M133.89,64.5c2.2-2.41,2.16-5.87,4.13-8.41,2.43-3.13,6.38-4.1,10-5.24,0,0,0-.09,0-.08-3.11.72-6.47,1.78-8.9,3.93-3,2.66-2.67,6.88-5.24,9.75,0,0,0,.08,0,0Z"/><path class="cls-7" d="M61.53,69.79c-3.24-6.23-9.82-9.68-16-12.46-.07,0-.13.07-.06.1C51.63,60.51,58,63.58,61.4,69.87c0,.08.17,0,.13-.08Z"/><path class="cls-7" d="M137.2,78.13c-1.72.41-3.47.76-5.16,1.28a.06.06,0,0,0,0,.12c1.74-.32,3.46-.82,5.17-1.25a.08.08,0,0,0,0-.15Z"/><path class="cls-7" d="M138.44,81.41a14.07,14.07,0,0,1-6,1.38.07.07,0,0,0,0,.14,11.59,11.59,0,0,0,6.07-1.41c.07,0,0-.14-.06-.11Z"/><path class="cls-7" d="M137.19,84.86a26.41,26.41,0,0,1-5.57,1.65c-.09,0-.05.15,0,.14A20.68,20.68,0,0,0,137.25,85c.07,0,0-.16-.06-.13Z"/><path class="cls-7" d="M138.37,86.8a58.54,58.54,0,0,1-7.14,1.75s0,.11,0,.11a34.53,34.53,0,0,0,7.14-1.77,0,0,0,0,0,0-.09Z"/><path class="cls-7" d="M137.66,89.82a19.85,19.85,0,0,1-7.22,1.81.08.08,0,0,0,0,.15,15,15,0,0,0,7.26-1.9,0,0,0,0,0,0-.06Z"/><path class="cls-7" d="M136.42,93.3a56.85,56.85,0,0,1-8,1.46c-.1,0-.11.18,0,.17a29.93,29.93,0,0,0,8-1.56s0-.08,0-.07Z"/><path class="cls-7" d="M136.43,96.56c-3.07.58-6.14,1.24-9.17,2-.09,0-.05.16,0,.14,3.06-.59,6.12-1.28,9.15-2a0,0,0,0,0,0-.09Z"/><path class="cls-7" d="M134.3,99.5a14.83,14.83,0,0,1-8.26,2.37.09.09,0,0,0,0,.17,12.2,12.2,0,0,0,8.29-2.49s0-.08,0,0Z"/><path class="cls-7" d="M131.23,103.64a17.49,17.49,0,0,1-9.16,2.73.07.07,0,0,0,0,.14,14.83,14.83,0,0,0,9.21-2.78c.06,0,0-.13-.05-.09Z"/><path class="cls-7" d="M128.85,108.05a34.82,34.82,0,0,1-9.57,1.49.09.09,0,0,0,0,.17,23.12,23.12,0,0,0,9.59-1.59s0-.09,0-.07Z"/><path class="cls-7" d="M124.46,112.75a43,43,0,0,0-10.38.75c-.16,0-.09.25.06.23a67.36,67.36,0,0,1,10.32-.86.06.06,0,1,0,0-.12Z"/><path class="cls-7" d="M120.12,116.55a29.39,29.39,0,0,1-8.82.73c-.1,0-.12.16,0,.17a21.33,21.33,0,0,0,8.87-.82s0-.09,0-.08Z"/><path class="cls-7" d="M114.5,118.73c-3,0-6.11-.16-9.16,0a.09.09,0,1,0,0,.18c3,.13,6.11,0,9.16,0a.06.06,0,1,0,0-.12Z"/><path class="cls-7" d="M135.94,78.44a6.37,6.37,0,0,1-4.33.62c-.06,0-.08.08,0,.09a6.26,6.26,0,0,0,4.43-.6c.07,0,0-.15-.07-.11Z"/><path class="cls-7" d="M56.32,78.27c22-.13,44.1-.89,66.14-1.35.09,0,.09-.14,0-.13-22,.46-44.11.64-66.14,1.43,0,0,0,.06,0,0Z"/><path class="cls-7" d="M88.56,122.38c0,1-.65,3.49.2,4.3s3.77.23,4.79.23c5.92,0,11.84,0,17.77-.09a.18.18,0,0,0,0-.36c-4.44,0-8.89.06-13.33.14l-6.41.09c-1.08,0-2.37.32-2.91-.93-.33-.76,0-2.53,0-3.38a.07.07,0,1,0-.13,0Z"/><path class="cls-7" d="M112.66,126c.06-1.59.06-3.19,0-4.78a.19.19,0,0,0-.38,0c0,1.59,0,3.19.05,4.78a.15.15,0,0,0,.29,0Z"/><path class="cls-7" d="M112.22,121.94a10.3,10.3,0,0,1,.17,2.21,14.26,14.26,0,0,1-.44,2.16.1.1,0,0,0,.19.07,5.19,5.19,0,0,0,.15-4.47s-.08,0-.07,0Z"/><path class="cls-7" d="M88.57,127.15a16.82,16.82,0,0,0-.39,2,0,0,0,0,0,.08,0,16.75,16.75,0,0,0,.42-2,.06.06,0,0,0-.11,0Z"/><path class="cls-7" d="M90.25,128.47l.33.48a.06.06,0,0,0,.08.08c.71-.39,2.43-1.68,1.31.07,0,.07.06.15.11.09h1.08c0,.08.08.14.14.08,1.2-.43,2.4-.89,3.58-1.38a1,1,0,0,1-1,.93c-.13.05,0,.26.09.21,1.1-.39,2.22-.77,3.35-1.09q.84-.25,1.71-.45a1.66,1.66,0,0,1,2,.35c-.07.09.06.21.15.15l.34.18a.13.13,0,0,0,.07.25c.59-.15,2.78-1.11,2,.1a.14.14,0,0,0,.15.2,12.88,12.88,0,0,0,2.26-.79c.62-.31,1.19-.84.39-.09a.15.15,0,0,0,.1.24,13.52,13.52,0,0,0,4-.78c.16-.06.09-.31-.07-.26-.6.21-4.23,1.34-3,.17a.14.14,0,0,0-.16-.22c-.6.31-3.71,2-2.83.67a.13.13,0,0,0-.15-.19c-.18,0-2.23.42-2.13.69s.9-1,.85-.89a.15.15,0,0,0-.13-.21c-.31,0-1.44.65-1.5.64s-.11-.45-.15-.45c-.72,0-.74-.25-1.33.62-.07.11.09.2.17.1l.69-.91c0-.07,0-.15-.1-.14a27.92,27.92,0,0,0-5.12,1.33c-1.52.64-.62.36,0-.54.06-.08,0-.16-.11-.15a6.67,6.67,0,0,0-3.28,1.61c-.07.06,0,.19.1.13a2.07,2.07,0,0,0,.92-1.38s0-.12-.1-.09c-.45.17-1.45,1.06-1.8,1.13,0,0-.18-.35-.2-.35-1,0-.9.21-.19-.93a.06.06,0,0,0-.08-.08,8.74,8.74,0,0,1-2.1,1.08c1.83-.23-1.9-.32-.57-.33-.08,0-.08.14,0,.13Z"/><path class="cls-7" d="M132.23,66a6.85,6.85,0,0,0-7.27-.4.09.09,0,0,0,0,.13c1.41,2.18,3.79,5.37,6.82,4.07,2-.86,2.4-3.76.13-4.53-.13,0-.18.15-.06.19,1.73.59,1.76,2.42.69,3.53a2.81,2.81,0,0,1-2.61.81A6.13,6.13,0,0,1,126,66.93c-.3-.42-.78-.84-.44-1.39s1.89-.57,2.39-.6a7.57,7.57,0,0,1,4.29,1.14,0,0,0,1,0,0-.07Z"/><path class="cls-7" d="M131.94,65.85c1.07-2.6.3-6.2-2.27-7.67-.1,0-.21.09-.12.17,2.17,2,3.27,4.55,2.27,7.47,0,.07.09.1.12,0Z"/><path class="cls-7" d="M132.8,66.1c2.79-.74,5-3.77,4.15-6.7,0-.07-.14-.06-.13,0a6,6,0,0,1-4,6.66s0,0,0,0Z"/><path class="cls-7" d="M128.83,70.17A4.27,4.27,0,0,0,127,73.78a.07.07,0,0,0,.13,0,4.67,4.67,0,0,1,1.79-3.55s0-.08,0-.06Z"/><path class="cls-7" d="M130.38,70.41a3.16,3.16,0,0,1-1.19,3.48c-.07,0,0,.17.07.12a3.27,3.27,0,0,0,1.23-3.63.06.06,0,0,0-.11,0Z"/><path class="cls-7" d="M129.7,72.13c.45.5.92,1,1.39,1.47a3.82,3.82,0,0,1,.64.63c.26.45.17.43-.2.84-.92,1-2.12,1.73-3.05,2.71-.08.09,0,.25.13.18,1.36-1,2.58-2.16,3.83-3.25a.18.18,0,0,0,0-.23c-.87-.83-1.74-1.66-2.66-2.43-.06,0-.13,0-.08.08Z"/><path class="cls-7" d="M127.63,71.67a3.31,3.31,0,0,0-3.87,2.48.08.08,0,0,0,.16,0,3.42,3.42,0,0,1,3.7-2.45s.06-.07,0-.08Z"/><path class="cls-7" d="M126.44,66.2a2.27,2.27,0,0,1-2.32,1.29v.18a2.91,2.91,0,0,0,2.48-1.16s0-.1-.07-.07a6.17,6.17,0,0,1-1,.72,3.09,3.09,0,0,1-1.43.33.09.09,0,1,0,0,.18,2.18,2.18,0,0,0,2.36-1.45s0,0,0,0Z"/><path class="cls-7" d="M126.09,65.39A2.68,2.68,0,0,0,124,63.91c-.1,0-.15.16,0,.2a6.07,6.07,0,0,1,2,1.59c.06.06.14,0,.11-.08a4,4,0,0,0-2-1.69l0,.19a2.69,2.69,0,0,1,2,1.35c0,.1.19,0,.14-.08Z"/><path class="cls-7" d="M129,66.29a.89.89,0,0,0-.09,1.38,1,1,0,0,0,1.39-.31A1,1,0,0,0,129.6,66,1.11,1.11,0,0,0,128.28,67a.06.06,0,1,0,.12,0,1,1,0,0,1,1-1,.87.87,0,0,1,.72,1.31.76.76,0,1,1-1.08-1s0-.1-.05-.07Z"/><path class="cls-7" d="M129.21,67.22a2.11,2.11,0,0,0,.19.23s.14,0,.08-.09a1.24,1.24,0,0,0-.22-.18s-.06,0,0,0Z"/><path class="cls-7" d="M55.72,68.16c-1.28.24-1.28,1.79-.44,2.55,1.17,1.05,4,1,5.29.16a2,2,0,0,0-.08-3.27c-1.8-1.42-4.16,0-5.72,1.06-.1.07,0,.23.1.16a8.61,8.61,0,0,1,3-1.54c1.45-.27,3.33.37,3.25,2.11-.06,1.55-1.59,1.77-2.83,1.83a7.57,7.57,0,0,1-1.26,0,2.88,2.88,0,0,1-1.42-.43c-1.14-.89-1.11-1.75.09-2.56.05,0,0-.08,0-.07Z"/><path class="cls-7" d="M54.9,70.75c-.21,1.46-.47,2.92-.62,4.39,0,.09.13.11.14,0,.26-1.44.43-2.92.63-4.37,0-.1-.13-.14-.15,0Z"/><path class="cls-7" d="M57.57,71.42l.19-.21a0,0,0,0,0,0,0l-.21.19a0,0,0,0,0,.06.06Z"/><path class="cls-7" d="M57.72,71.48a2.28,2.28,0,0,1,1.37,3.27.06.06,0,0,0,.11.06,2.25,2.25,0,0,0-1.47-3.36s0,0,0,0Z"/><path class="cls-7" d="M56.5,73a2.29,2.29,0,0,0-1.34,2.56,5.12,5.12,0,0,0,2.57,3.32.09.09,0,0,0,.11-.14,10.63,10.63,0,0,1-2.18-2.36,2.4,2.4,0,0,1,.88-3.29s0-.11,0-.09Z"/><path class="cls-7" d="M58.74,72.6a4,4,0,0,1,4,3.23c0,.17.28.1.26-.07-.28-1.92-2.31-3.74-4.32-3.2,0,0,0,0,0,0Z"/><path class="cls-7" d="M56.43,68c-.52-3.61,0-6.71,2.79-9.3.06-.05,0-.13-.08-.08-2.59,2.15-4.12,6.15-2.77,9.4a0,0,0,0,0,.06,0Z"/><path class="cls-7" d="M58.48,67a13.93,13.93,0,0,1,6.28-8.87,0,0,0,1,0,0-.07A12.54,12.54,0,0,0,58.36,67c0,.07.1.11.12,0Z"/><path class="cls-7" d="M59.62,69.84a2.64,2.64,0,0,0,2.52,1.78c.07,0,.06-.12,0-.14A4.11,4.11,0,0,1,60.75,71a3.17,3.17,0,0,1-1-1.2,0,0,0,0,0-.09,0Z"/><path class="cls-7" d="M60.75,69.47a1.56,1.56,0,0,1,1.69.77c.06.11.24,0,.17-.1a1.67,1.67,0,0,0-1.89-.78.06.06,0,1,0,0,.11Z"/><path class="cls-7" d="M56.91,68.51A.93.93,0,0,0,56.79,70a1,1,0,0,0,1.49-.44,1,1,0,0,0-.9-1.34,1.09,1.09,0,0,0-1.05,1.37c0,.1.18,0,.16,0a.94.94,0,0,1,.66-1.14A.85.85,0,0,1,58,69.67a.82.82,0,0,1-1.26.11.89.89,0,0,1,.15-1.24s0,0,0,0Z"/><path class="cls-7" d="M52.36,75s0,0,0,0Z"/><path class="cls-7" d="M67.08,72.2c2.12,23.19,5.11,46.34,7.71,69.48,0,.29.49.3.46,0-2.58-23.15-4.78-46.39-7.84-69.48,0-.2-.35-.21-.33,0Z"/><path class="cls-7" d="M74.92,76.19c1.37,11.71,3.85,23.38,5.81,35q3,18,6,35.92c0,.29.5.17.45-.13q-3-17.72-6-35.43c-2-11.77-3.47-23.76-6-35.41,0-.17-.34-.14-.32,0Z"/><path class="cls-7" d="M68.43,82.43c2.45.93,4.89,2,7.39,2.75.23.08.39-.29.17-.38-2.42-1.07-5-1.91-7.43-2.83-.29-.11-.42.35-.13.46Z"/><path class="cls-7" d="M69.42,88.57c2.3.76,4.72,1.24,7.08,1.8a.24.24,0,0,0,.13-.47c-2.36-.58-4.73-1.26-7.13-1.63a.16.16,0,0,0-.08.3Z"/><path class="cls-7" d="M70.51,94.62a14.94,14.94,0,0,0,3.86,1,38.77,38.77,0,0,0,4,.76c.21,0,.24-.3.05-.36-1.37-.42-2.81-.62-4.21-.9a14.46,14.46,0,0,0-3.68-.52s0,0,0,0Z"/><path class="cls-7" d="M70.39,100.44a45.37,45.37,0,0,0,8.63.72c.16,0,.21-.27,0-.29a44.86,44.86,0,0,0-8.66-.48s0,0,0,0Z"/><path class="cls-7" d="M71.09,105.55a94.62,94.62,0,0,0,9.52.9c.26,0,.25-.37,0-.4-3.14-.28-6.34-.67-9.5-.64-.07,0-.1.12,0,.14Z"/><path class="cls-7" d="M71.56,110.28c2.82.47,5.68.7,8.53,1,.27,0,.27-.4,0-.43-2.83-.28-5.67-.63-8.51-.75-.1,0-.13.17,0,.18Z"/><path class="cls-7" d="M72.64,117.59a63.49,63.49,0,0,0,8.81.87c.21,0,.26-.34,0-.37a62.28,62.28,0,0,0-8.84-.65c-.08,0-.11.14,0,.15Z"/><path class="cls-7" d="M73.49,122c2.89.43,5.81.71,8.72,1,.28,0,.28-.42,0-.45-2.9-.31-5.79-.64-8.69-.82-.14,0-.17.22,0,.24Z"/><path class="cls-7" d="M75.08,129l-.18-.1s0,0,0,0l.17.11s0,0,0,0Z"/><path class="cls-7" d="M74.11,129.6a45.9,45.9,0,0,0,8.91.69c.2,0,.26-.32,0-.35a46.07,46.07,0,0,0-8.93-.51c-.1,0-.13.15,0,.17Z"/><path class="cls-7" d="M74,133.65a66.91,66.91,0,0,0,10.79,1.87c.19,0,.22-.28,0-.32A66.68,66.68,0,0,0,74,133.48a.09.09,0,0,0,0,.17Z"/><path class="cls-7" d="M74.32,139c3.82.87,7.77,1.24,11.64,1.77.31,0,.44-.43.13-.47-3.89-.52-7.83-1.24-11.75-1.42-.07,0-.09.1,0,.12Z"/><path class="cls-7" d="M55.61,120.11a7.09,7.09,0,0,1,1.71,1c.87.72.69,1.56-.54,2.51a3.61,3.61,0,0,1-1-.19,17.13,17.13,0,0,1-3.21-1.18c-.83-.44-1.84-1.21-1.26-2.38a2.12,2.12,0,0,1,1.41-1c1.64-.37,2.9,1.07,4,2a.13.13,0,0,0,.18-.18c-1.21-1.48-3.32-3.12-5.24-1.8-1.54,1.07-.86,2.79.55,3.57a16.26,16.26,0,0,0,3.64,1.35,2,2,0,0,0,2.13-.38c1.36-1.61-1-3.12-2.29-3.48a.08.08,0,0,0-.06.15Z"/><path class="cls-7" d="M52.78,120.25c-1.63-4.19-.37-12.79,6.09-11.1a.08.08,0,0,0,.05-.16c-2.55-.89-4.87.55-6.13,2.79a9.15,9.15,0,0,0-.11,8.51s.12,0,.1,0Z"/><path class="cls-7" d="M54.54,119.07c-.54-3.33,2-5.61,5.23-5.45a.08.08,0,0,0,0-.15c-3.33-.81-6.08,2.47-5.36,5.63,0,.07.12,0,.11,0Z"/><path class="cls-7" d="M56.87,123.34a2.85,2.85,0,0,0,1.58,2.32c.15.08.28-.16.13-.22A2.66,2.66,0,0,1,57,123.32c0-.09-.16-.07-.15,0Z"/><path class="cls-7" d="M58.36,122.45a1.16,1.16,0,0,1,.86.07c.11,0,.28.13.27.25s-.17.29-.21.35a.07.07,0,0,0,.11.08,3.41,3.41,0,0,0,.38-.38.12.12,0,0,0,0-.17,1.25,1.25,0,0,0-1.44-.33c-.08,0,0,.16,0,.13Z"/><path class="cls-7" d="M54.77,123.33a2.71,2.71,0,0,1-2.94,2.45A2,2,0,0,1,50,123.92,1.38,1.38,0,0,1,52,122.69c.11,0,.17-.13.07-.19a1.51,1.51,0,0,0-2.06.67,1.88,1.88,0,0,0,.6,2.26c1.63,1.4,4.28-.05,4.27-2.1a0,0,0,0,0-.08,0Z"/><path class="cls-7" d="M53.18,126.17A2.73,2.73,0,0,1,50.8,131c-3.38-.81-2.85-5.48.34-6.12.21,0,.12-.35-.08-.31a3.51,3.51,0,0,0-2.93,3.3,3.35,3.35,0,0,0,2.75,3.43,3,3,0,0,0,3.41-1.73,2.93,2.93,0,0,0-1-3.48c-.06,0-.14.06-.08.11Z"/><path class="cls-7" d="M51.54,131.45c-.86,1.82-1.8,4.61-4.43,3.9A2.66,2.66,0,0,1,45.26,132a2.76,2.76,0,0,1,3.56-1.71.17.17,0,0,0,.09-.33,3.05,3.05,0,0,0-3.29,5,3.14,3.14,0,0,0,3.65.53,5.67,5.67,0,0,0,2.39-4c0-.07-.09-.13-.12-.05Z"/><path class="cls-7" d="M52.69,124.53c1,1.41,2.08,2.85,3.23,4.17.06.08.2,0,.14-.1-1-1.44-2.14-2.82-3.26-4.15,0-.06-.15,0-.11.08Z"/><path class="cls-7" d="M54.52,124.57a4,4,0,0,1,2.17,2.77c0,.1.19.08.18,0a3.5,3.5,0,0,0-2.32-2.81s-.06,0,0,.06Z"/><path class="cls-7" d="M51.29,127.23a4.28,4.28,0,0,0-1.46,4.84A.11.11,0,0,0,50,132a4.37,4.37,0,0,1,1.34-4.67c.06,0,0-.16-.09-.11Z"/><path class="cls-7" d="M54.32,129.14A15.15,15.15,0,0,0,56.06,131a.1.1,0,0,0,.15-.14,16.92,16.92,0,0,0-1.84-1.75s-.08,0,0,0Z"/><path class="cls-7" d="M48.57,133.08a7.6,7.6,0,0,1,1.83,10,.17.17,0,0,0,.3.17,7.58,7.58,0,0,0-2-10.24.07.07,0,0,0-.09.11Z"/><path class="cls-7" d="M52.12,132.44a5.81,5.81,0,0,1,3.28,8.61.13.13,0,0,0,.22.13,5.85,5.85,0,0,0-3.47-8.84.05.05,0,1,0,0,.1Z"/><path class="cls-7" d="M55,120.52a.74.74,0,1,1-.63,1.14.81.81,0,0,1,.61-1.19c.53,0,.82.46.9.91,0,.11.16.07.17,0a1,1,0,0,0-1.37-1,1,1,0,0,0-.37,1.61,1,1,0,0,0,1.53-.27.91.91,0,0,0-.84-1.2c-.05,0-.05.07,0,.07Z"/></svg>