<svg id="illustration" xmlns="http://www.w3.org/2000/svg" viewBox="0 0 198.43 148.16"><defs><style>.cls-1{fill:#d9595a;}.cls-2{fill:#fff;}.cls-3{fill:#fec574;}.cls-4{fill:#aa654c;}.cls-5{fill:#2f474a;}.cls-6{fill:#010101;}.cls-7{fill:#faf183;}.cls-8{fill:#5b5b5b;}.cls-9{fill:#909090;}.cls-10{fill:#b0b0b0;}.cls-11{fill:#7ed3f5;}.cls-12{fill:none;stroke:#000;stroke-width:0.5px;}.cls-13{fill:#b58040;}</style></defs><path class="cls-1" d="M99.11,112.85s-3.42-7.41-22.84-3.14c0,0-3,2.56-22.2,4.48s-13.66,10.67-13.66,10.67-.68,1.28,12-3.41c11.67-2.25,18.23,4.66,20.91,4.69,3.15,0,10,4.27,10,4.27l11.15-1.07Z"/><path d="M99.35,112.86c-.73-1.54-2.6-2.56-4.08-3.18-5-2.09-10.9-1.56-16.07-.68-2.68.46-4.72,1.51-7.32,2.22-7.22,2-14.71,2.06-22,3.43-3.64.69-9.45,2.1-10.33,6.45-.19.92-.13,3.12.64,3.77,1.05.89,3.77-.38,4.8-.69,4.58-1.41,8.79-3.4,13.71-3a28.44,28.44,0,0,1,11,3.63c2,1,3.62,1.22,5.74,1.89A32.12,32.12,0,0,1,81,129.2a12.33,12.33,0,0,0,2.22,1.27c1.31.35,3.29-.24,4.61-.37l6.79-.65c.05,0,.12,0,.14-.06l4.64-16.5c0-.13-.45-.23-.49-.09l-3.59,12.77c-.23.8-.74,3.46-1.09,3.68a8.06,8.06,0,0,1-2.57.25l-4.29.41c-1.15.11-2.31.29-3.46.33-.83,0-.25.24-1.1-.31a29.58,29.58,0,0,0-7.39-3.49c-1-.3-2.11-.31-3.1-.65a26.08,26.08,0,0,1-3.21-1.62,28.66,28.66,0,0,0-8.36-3,21.4,21.4,0,0,0-11.1,1.08c-2.48.89-5.61,2.5-8.3,2.56-.86,0-.38.19-.77-.19a4.58,4.58,0,0,1-.61-2.83c.43-6.22,10.32-7.11,14.74-7.58,6.4-.69,13-1.3,19.2-3.32.89-.29,1.68-.74,2.54-1.08,3.57-1.44,8.56-1.53,12.39-1.32,3.13.18,8.49,1,10.08,4.3C98.93,113,99.41,113,99.35,112.86Z"/><path class="cls-2" d="M45.54,97.54s-3.42,0-3,1.71,1.92,0,3,0"/><path d="M45.43,97.43c-.93,0-2.61.1-3.07,1.08a1.17,1.17,0,0,0,.76,1.58c.92.2,1.64-.68,2.52-.73.32,0,0-.23-.21-.23a6.48,6.48,0,0,0-1.83.66c-.88.32-1.06-1-.54-1.45a4,4,0,0,1,2.58-.69c.32,0,0-.22-.21-.22Z"/><path class="cls-2" d="M30.38,114.83s-4.27.21-3.84,1.71a7,7,0,0,0,2.35,2.86l1.49-2.29"/><path d="M30.27,114.73a6.67,6.67,0,0,0-3.6.89c-1.35,1.08,1.14,3.18,2,3.8.08.06.37.15.45,0l1.5-2.28c.08-.13-.4-.24-.47-.12l-1.5,2.29.46,0c-.85-.61-3.33-2.71-1.89-3.69a6.81,6.81,0,0,1,3.27-.75c.32,0-.07-.21-.22-.2Z"/><path class="cls-2" d="M28.89,127a1.59,1.59,0,0,0-.45,2.14c.66,1.49,1.94,1.28,3,0"/><path d="M28.7,127a1.86,1.86,0,0,0-.23,2.7c.91,1.23,2.42.4,3.2-.5.12-.14-.35-.14-.44,0-.4.46-1.1,1.19-1.78.87a2,2,0,0,1-.93-1.4,1.47,1.47,0,0,1,.55-1.54c.22-.13-.26-.16-.37-.09Z"/><path class="cls-2" d="M46.82,136.23s-2.14,1.22-1.28,2.08,2.77-1,2.77-1"/><path d="M46.63,136.19c-.61.36-2.42,1.75-1.07,2.36,1,.45,2.31-.62,3-1.27.13-.12-.34-.12-.44,0-.46.46-1.81,1.7-2.39.92s.78-1.6,1.3-1.9c.22-.12-.26-.14-.37-.08Z"/><path class="cls-2" d="M60.33,94.77s1.64,4.38,2.28,4,13.09-8.81,15.14-8-7-4.11-7-4.11L56.26,90.94Z"/><path d="M60.09,94.78c.36,1,1.11,3.89,2.31,4.1.88.15,2.28-1.25,2.94-1.68,2.43-1.56,4.88-3.1,7.43-4.47A16.73,16.73,0,0,1,76.49,91a10.69,10.69,0,0,1,1.68-.07s.16,0,.12-.11c-.25-.41-1.09-.73-1.48-1-1.3-.75-2.62-1.47-3.93-2.2-1.08-.59-1.66-1.15-2.81-1A67.69,67.69,0,0,0,62.38,89l-6.29,1.87c-.06,0-.1.06,0,.11l4.06,3.83c.1.09.58.06.44-.07l-1.5-1.41c-.37-.35-2.41-1.81-2.41-2.27,0-.2-.09,0,.47-.23a15.25,15.25,0,0,1,2.33-.69L66,88.19c1.46-.43,3.22-1.3,4.74-1.4.39,0-.28-.08-.11,0a2,2,0,0,1,.55.3c.78.52,1.67.91,2.48,1.36s1.77,1,2.64,1.49c.38.22.77.49,1.16.69s.55,0,.44.09a5.54,5.54,0,0,1-.78-.06,6.78,6.78,0,0,0-2.1.67,47.21,47.21,0,0,0-5.78,3.1c-2,1.2-3.93,2.77-6,3.8-.94.46-.87.38-1.43-.67a27.23,27.23,0,0,1-1.2-2.77C60.53,94.62,60,94.63,60.09,94.78Z"/><path class="cls-3" d="M53.86,94.34s18.57-8.11,23.48-6.83,15.37,8.75,14.3,22.84-20.49,27.53-20.49,27.53-1.07,5.55,9.39,5.12,25-9.5,41.62-27.8c0,0,7.68-20.44,5.34-29.61S113,12.16,113,12.16l-54.21,19s-2.78,31.38-.43,38C50.87,81.32,14.59,85.8,11.17,89.64s-2.35,8.75,5.55,7.69,30.74-13.24,37.57-15.8,5.76,4.06,5.76,4.06Z"/><path d="M54.06,94.43c2.76-1.2,5.56-2.31,8.37-3.35,4.17-1.53,9.57-4,14.14-3.59s8.92,4.89,11.26,8.45a22.3,22.3,0,0,1,2.93,17.86c-2.65,9.58-11.08,17.5-18.82,23.27-1.19.88-1.42,1.45-.62,3,1.63,3.08,6.36,3.21,9.33,3.08,10-.45,19.35-7.16,26.78-13.34,3-2.53,5.94-5.21,8.74-8,2-2,4.87-4.21,6.28-6.66a18.49,18.49,0,0,0,1.18-3.4q1.07-3.19,2-6.44c1.4-5.13,2.69-10.53,2.61-15.87a40.84,40.84,0,0,0-1.35-7.75c-1.67-7.69-3.17-15.41-4.69-23.13q-2.76-14-5.44-28.06c-1.11-5.79-2-11.69-3.32-17.42-.07-.29-.11-.58-.17-.87,0-.14-.35-.14-.44-.1L65.26,28.73l-6.7,2.34a.07.07,0,0,0,0,.05A258.1,258.1,0,0,0,57.2,61.7c.07,2.19.36,4.31.63,6.47.29,2.34-2.56,4.29-4.35,5.56-5.54,4-12.33,6.2-18.77,8.19-6,1.85-12,3.28-18,5.13-3.32,1-7.77,2.36-7.61,6.75.37,10.58,27.76-4.06,31.05-5.61,3.46-1.63,6.9-3.3,10.38-4.88,2.75-1.25,8.64-4.27,9.3.52.26,1.91-.79,2.81-1.86,4.32l-4.33,6.12c-.09.12.38.25.46.14,1.89-2.67,3.81-5.3,5.65-8a3.81,3.81,0,0,0-.38-4.72c-2.09-2.06-5.69-.13-7.85.81-4.55,2-9,4.21-13.5,6.31-4.94,2.32-9.9,4.63-15,6.54-3.51,1.31-15.1,4.58-13.27-2.7.86-3.42,3.82-4.31,6.78-5.25,4.24-1.35,8.57-2.41,12.85-3.62,8.69-2.45,18.48-5,25.67-10.73,1-.78,3.34-2.52,3.55-3.85.17-1.07-.59-2.84-.69-4a108.44,108.44,0,0,1-.13-13.37c.15-4.64.41-9.28.73-13.92q.16-2.37.36-4.74c0-.41-.09-1.64.16-2s2.83-1,3.51-1.21l9-3.15L96.2,18.2l10.45-3.66c1.87-.66,4.23-1.1,6-2.09.79-.45.23.09.15-.22.12.43.17.91.25,1.36.45,2.34.89,4.68,1.34,7q2.37,12.41,4.77,24.81,2.59,13.44,5.29,26.88c.65,3.2,1.31,6.41,2,9.6a35,35,0,0,1,1.27,8.75,65.41,65.41,0,0,1-2.89,15.62c-.79,2.78-1.41,6.32-2.86,8.85-.89,1.55-2.72,2.95-4,4.23-1.47,1.51-3,3-4.5,4.47-2.66,2.54-5.42,5-8.31,7.28a64.9,64.9,0,0,1-15.38,9.51c-4.6,1.91-12.32,4.12-16.73.83-1.43-1.06-2.38-2.88-.92-4,7.22-5.71,14.65-12.23,18.23-20.94a22.48,22.48,0,0,0-8.66-27,10.67,10.67,0,0,0-7.46-2c-4.34.57-8.63,2.18-12.71,3.7-2.65,1-5.28,2-7.87,3.16C53.49,94.32,53.94,94.48,54.06,94.43Z"/><path class="cls-4" d="M92.28,94.55S90.36,81.1,73.92,83.67C57.42,87.42,58.34,87.4,53.65,89s-3.63,4.32-3.21,5.6,1.93,3.84,4.91,2.78,14.73-9.25,21.56-6.87,10,4.52,10.46,14.34-2.78,20.91-13.66,28.38-3.87,9.94-2.55,9,18.77-10,21.12-21.77S95.71,101.42,92.28,94.55Z"/><path class="cls-5" d="M58.59,33.3S92.16,24.76,94.46,26s-1.11,16.43-1.11,16.43,6.61-.85,9.17,0,6,13,6,13l19,30.1s2.13,14.42-3.36,23.72c8.27,1.89,27.05-11.34,30.46-30.77s-6.19-51.44-22-61.68-36.93-16-58.7-4.7S58.59,33.3,58.59,33.3Z"/><path d="M58.67,33.39Q68.16,31,77.74,28.83C81.87,27.9,86,27,90.2,26.35c.9-.14,3-.74,3.93-.29,1.26.65.9,3.38.83,4.52A73.77,73.77,0,0,1,93.1,42.49c0,.09.23.09.25.08,2.64-.33,7.71-1.39,9.77.57,2.23,2.11,3.17,6.22,4.1,9a25.7,25.7,0,0,0,1.25,3.68c.76,1.49,1.82,2.89,2.71,4.3l10,15.8,4.28,6.78a16.5,16.5,0,0,1,1.82,2.89c.82,2.28.45,5.69.39,8.05-.15,5.39-1,10.88-3.74,15.63,0,.06.09.09.12.1,4.28.87,8.84-1.38,12.33-3.61a42.77,42.77,0,0,0,14-14.86c7.61-13.39,5.88-29.88,1.58-44.08a71.91,71.91,0,0,0-9.51-20.37c-4.25-6.11-9.66-10.2-16.24-13.58-16.26-8.33-35-9.51-51.53-1.25-6.29,3.14-14.38,7.79-16.67,15-.66,2.07-.83,4.78.4,6.69.08.12.56,0,.48-.09a7.83,7.83,0,0,1-.65-5.68c1.5-6.75,8.65-11.35,14.22-14.44A53.58,53.58,0,0,1,105,6.47a65.23,65.23,0,0,1,26.45,9.84c12.43,7.81,18.67,23.5,21.7,37.24,3.25,14.78,2.85,30.24-6.82,42.62-4.14,5.3-9.78,10.28-16.25,12.44a13.91,13.91,0,0,1-3.93.77c-.66,0-1.36.11-1.49-.38s1-2.29,1.24-2.8a35.25,35.25,0,0,0,2.16-10.7,53.48,53.48,0,0,0-.14-8.49,4.86,4.86,0,0,0-.41-1.84c-1.57-3.3-4-6.41-6-9.5l-8.57-13.58a59,59,0,0,1-4.23-6.78c-.88-2-1.3-4.24-2.07-6.28s-1.58-4.86-3.25-6.2C102,41.69,99.52,42,97.83,42c-1.28.05-2.58.29-3.85.29-.69,0-.47.28-.24-.53A52.43,52.43,0,0,0,95,35c.35-2.38.89-5.16.41-7.55S92,25.88,90.05,26.17c-9.81,1.48-19.51,4-29.13,6.43l-2.4.61C58.19,33.29,58.45,33.44,58.67,33.39Z"/><path class="cls-5" d="M162.93,76.62l-12,25s-.21,13.66,7.9,16.43,26.63-3.2,30.31-17.08,3-21.34-3.63-28.81C177,66,163.14,72.78,162.93,76.62Z"/><path d="M162.69,76.6,152.6,97.67c-.84,1.75-1.94,3.25-1.84,5.2.22,4.34,1.17,9.3,4.13,12.64,6.34,7.16,19.81,1.87,26-2.7,5.28-3.89,7.92-9,9.34-15.26s2.33-13.23-.43-19.36c-1.23-2.74-3.05-5.76-5.81-7.15a15.91,15.91,0,0,0-8.69-1.39,22.1,22.1,0,0,0-8.41,2.59c-1.62.89-4,2.34-4.25,4.38,0,.13.48.15.5,0,.23-1.84,2.26-3.16,3.72-4a21.07,21.07,0,0,1,9.5-2.82c3.92-.19,7.84.86,10.29,4.06a21.41,21.41,0,0,1,3.69,7.24c1.61,5.78.48,12-.9,17.72a23.24,23.24,0,0,1-9.22,14.08c-7.55,5.42-22.37,10-27.11-1.06-1.14-2.67-2.49-7.08-1.93-10.07.33-1.74,1.69-3.67,2.45-5.26l9.5-19.84C163.23,76.51,162.75,76.47,162.69,76.6Z"/><path class="cls-2" d="M87.37,64a10.07,10.07,0,0,1-3.25,7.39A10.1,10.1,0,0,1,81.76,73l-.54.25h0a43.55,43.55,0,0,0-4.59-3.64,12.64,12.64,0,0,0-5-1.61A35.85,35.85,0,0,0,68,67.7,9.9,9.9,0,0,1,67.31,64a10,10,0,0,1,20.06,0Z"/><path d="M87.12,64a10.35,10.35,0,0,1-3.24,7.36,7.56,7.56,0,0,1-2,1.43c-.9.35.19.65-1,0-1-.6-2-1.65-3-2.36a11.79,11.79,0,0,0-4.56-2.13,26.15,26.15,0,0,0-2.65-.44c-2.19-.26-2.9-.59-3.1-3a10.06,10.06,0,0,1,7.26-10.38c6.38-1.79,12.07,3.37,12.28,9.57,0,.15.5.17.5,0A10.36,10.36,0,0,0,76.53,53.93a10.23,10.23,0,0,0-8.77,13.78c0,.07.18.09.24.09,2.92.17,6,.42,8.48,2A25.18,25.18,0,0,1,81,73.33a.45.45,0,0,0,.39,0A10.31,10.31,0,0,0,87.62,64C87.62,63.9,87.12,63.87,87.12,64Z"/><circle class="cls-6" cx="77.34" cy="64.03" r="3.63"/><path d="M81.21,64.07c-.26-4.77-7.74-5-7.75-.09s7.49,5,7.75.09c0-.15-.48-.21-.49-.09a3.66,3.66,0,0,1-2.09,3.27A3.4,3.4,0,0,1,74,64.07,3.58,3.58,0,0,1,75.73,61c2.41-1.39,4.86.56,5,3C80.73,64.14,81.22,64.19,81.21,64.07Z"/><circle class="cls-2" cx="77.34" cy="64.03" r="2.35"/><path d="M79.93,64.08C79.76,61,74.75,60.7,74.75,64s5,3.34,5.18.11c0-.15-.48-.23-.49-.11a2.36,2.36,0,0,1-1.33,2.1,2.11,2.11,0,0,1-2.88-2,2.31,2.31,0,0,1,1.14-2A2.08,2.08,0,0,1,79.44,64C79.45,64.14,79.94,64.2,79.93,64.08Z"/><line class="cls-2" x1="72.25" y1="55.39" x2="70.93" y2="51.44"/><path d="M72.5,55.38l-1.32-4c-.05-.15-.53-.09-.5,0l1.32,4c0,.15.53.1.5,0Z"/><line class="cls-2" x1="79.69" y1="54.28" x2="80.97" y2="49.73"/><path d="M79.94,54.27l1.28-4.55c0-.1-.46-.14-.5,0l-1.28,4.54c0,.11.45.15.5,0Z"/><line class="cls-2" x1="85.84" y1="58.71" x2="89.29" y2="56.77"/><path d="M86.06,58.76l3.45-1.94c.14-.08-.32-.16-.44-.1l-3.44,1.94c-.15.09.31.17.43.1Z"/><path class="cls-7" d="M155.29,73.21s-3.36,18.35-10.17,24.71c0,2,2,.88,2,.88s1.71,3.22,3.84,2.8,8.12-8.93,10-14.18a35.68,35.68,0,0,0,1.92-10.8s-.86-1.28-1.92-1.06S157.69,71.93,155.29,73.21Z"/><path d="M155,73.17a81.81,81.81,0,0,1-3.66,13.32A35.71,35.71,0,0,1,146.54,96c-.54.71-2.26,1.82-1.41,2.81a1.29,1.29,0,0,0,.94.39,3.24,3.24,0,0,0,.75-.11c.89-.09-.19-.48.29.06.71.82,1.2,1.75,2.23,2.25,1.62.79,2.76-.07,3.9-1.23A35.16,35.16,0,0,0,163,79.44c.22-2.19.57-3.1-1.54-4-1.36-.57-2.43-1.65-3.81-2.25a3,3,0,0,0-2.57-.07c-.16.06.28.21.41.16.68-.27,2.72.65,3.34,1a9.19,9.19,0,0,1,.76.64,6.94,6.94,0,0,0,.88.57c.84.42,1.86.37,2.19,1.35.4,1.14-.25,3.41-.43,4.57a29.6,29.6,0,0,1-1.78,6.67,41.56,41.56,0,0,1-5.75,9.63,13,13,0,0,1-2.72,3c-1.86,1.24-3.69-.29-4.61-2a.44.44,0,0,0-.45-.1c-1,.48-1.2-.8-.89-1.42a13.6,13.6,0,0,1,1.29-1.59,28.23,28.23,0,0,0,2-3.37A53.73,53.73,0,0,0,152.74,84a85.48,85.48,0,0,0,2.8-10.79C155.56,73.11,155.07,73,155,73.17Z"/><path class="cls-8" d="M118.32,46.06s3.84-22.58-3.2-33.9S103.38,6,103.38,6,104,.88,120.67,4.18c0,0,7.47.51,9,15.24a115.4,115.4,0,0,1,0,25.22l-3.2,3.17h-5.55Z"/><path d="M118.55,46.15c1.41-8.38,1.73-17.56-.12-25.88-1.19-5.33-3.88-11.23-8.6-14.33-1.41-.93-4.86-2.22-6.25-.43-.43.56-.23.5.15.21.61-.47.91-1.13,1.69-1.52,4.35-2.2,10.94-.9,15.39.11,3.41.76,5.54,3.91,6.77,7,2.76,6.91,2.55,15.29,2.47,22.61,0,3-.16,5.92-.45,8.87-.17,1.72-.34,1.91-1.62,3.18-.49.49-1.18,1.51-1.83,1.73a11.64,11.64,0,0,1-3.12,0c-2.34,0-2.51-.26-4.56-1.65-.13-.09-.57-.11-.3.07,1.8,1.23,2.36,1.83,4.44,1.83,1,0,2.76.34,3.75,0a5.82,5.82,0,0,0,1.89-1.6c1.52-1.5,1.66-1.65,1.85-3.72A109.22,109.22,0,0,0,130.52,31c-.07-5.59-.16-11.5-1.6-16.94a16.46,16.46,0,0,0-4.14-7.82c-3.09-2.95-8.1-3.07-12.07-3.28-2-.11-9.07-.45-9.57,2.9,0,.13.37.28.46.19,2.34-2.48,5.94-.39,7.86,1.54,4.29,4.32,6.29,10.07,7.11,16A74.72,74.72,0,0,1,118.08,46C118.06,46.13,118.53,46.27,118.55,46.15Z"/><circle class="cls-8" cx="126.43" cy="64.88" r="20.49"/><path d="M147.16,64.93a20.71,20.71,0,1,0-38.1,11.19A21.07,21.07,0,0,0,129,85.34a20.81,20.81,0,0,0,18.18-20.41c0-.16-.48-.22-.49-.09a20.7,20.7,0,0,1-11.73,18.5,20.27,20.27,0,0,1-24.28-5.65,20.32,20.32,0,1,1,36-12.85C146.68,65,147.17,65.05,147.16,64.93Z"/><circle class="cls-9" cx="126.43" cy="64.88" r="15.37"/><path d="M142.05,64.88c-.3-13.69-17.36-20.67-27-10.66a15.54,15.54,0,0,0-1.78,19.08,15.65,15.65,0,0,0,28.73-8.42c0-.14-.5-.14-.5,0-.18,8.23-6.69,15.27-15.12,15.26a15.27,15.27,0,0,1,0-30.53c8.42,0,14.94,7,15.12,15.27C141.55,65,142.05,65,142.05,64.88Z"/><circle class="cls-10" cx="126.43" cy="64.88" r="8.11"/><path d="M134.79,64.84a8.36,8.36,0,1,0-7.74,8.23,8.36,8.36,0,0,0,7.74-8.23c0-.12-.49-.07-.5.09-.2,4.92-4.53,9-9.65,7.73a8.14,8.14,0,0,1-6.08-7.82,7.92,7.92,0,0,1,9.66-7.73,8.15,8.15,0,0,1,6.07,7.82C134.3,65.05,134.79,65,134.79,64.84Z"/><path class="cls-10" d="M116.84,15.65a43.55,43.55,0,0,1,12.23,0c1.22,1,2.5,5.89.89,7.6s-11.64,1.08-11.64,1.08S115.78,18.28,116.84,15.65Z"/><path d="M117,15.75c1.27-.19,2.56-.3,3.85-.37,2.39-.12,7.27-.77,8.75,1.4a7.19,7.19,0,0,1,.66,5.41c-.63,1.84-2.83,1.89-4.48,2a46.31,46.31,0,0,1-5,.1c-.54,0-2,.21-2.48-.09.47.29-.06-.71-.12-.87-.25-.69-.48-1.39-.68-2.1-.5-1.77-1-3.76-.42-5.57,0-.12-.44-.23-.49-.08-.86,2.74.44,6.17,1.49,8.7,0,.09.21.12.29.13a58.16,58.16,0,0,0,7.11,0c2.47-.16,5.18-.24,5.46-3.22a8.37,8.37,0,0,0-1.07-4.85c-.6-1-1-.9-2.19-1a41.44,41.44,0,0,0-11,.2C116.42,15.59,116.87,15.77,117,15.75Z"/><path class="cls-10" d="M118.09,33.1a67.86,67.86,0,0,1,12.23,0c1.23.65,2.51,3.83.9,4.95s-11.64.7-11.64.7S117,34.82,118.09,33.1Z"/><path d="M118.11,33.2a51.6,51.6,0,0,1,10.32-.15c1.95.21,3.25,1.06,3.29,3.22.05,2.38-2.85,2.28-4.52,2.37-1.38.07-2.76.08-4.13.08a10.53,10.53,0,0,1-2.92-.06c-1.36-.48-2.49-4-1.81-5.57,0-.12-.43-.11-.49,0-.73,1.64.34,5.25,2.07,5.76,1.29.37,3.24.07,4.56.05a29.48,29.48,0,0,0,5.39-.35c.92-.17,1.8-.37,2.2-1.32A3.87,3.87,0,0,0,130.53,33c-.85-.41-2.73-.24-3.63-.27-1.25,0-2.51,0-3.76,0-1.69,0-3.38.11-5.06.28C117.78,33,117.81,33.23,118.11,33.2Z"/><path class="cls-11" d="M81.18,73.29h0a1.23,1.23,0,0,0,.54-.25l.09-.09a5.12,5.12,0,0,1,2.27-1.53c1.4-.5,2.86-.43,3.45.29.94,1.18,3.32,2.35,4.39.75s-3.84-3-5.78-3.7-5.54.5-6.82.89-.44-2.36-2.59-3.34S71.59,68,71.59,68"/><path d="M81.3,73.39a2.36,2.36,0,0,0,.79-.4,4.89,4.89,0,0,1,2.2-1.49l3.4.61c.32.15.64.53,1,.71a3.26,3.26,0,0,0,2.63.39c3.81-1.54-3.9-4.25-5-4.53a10.17,10.17,0,0,0-5.16.31c-.89.24-1.7.76-2.35.06-.46-.49-.4-1.52-.91-2.1-1.82-2.08-4.91-.37-6.54,1-.08.07.36.18.48.08,1.5-1.32,4.47-3,5.89-.66.38.6.34,1.8.94,2.22.31.22.53.08.88.09A13.7,13.7,0,0,0,82,69a8.68,8.68,0,0,1,4.44,0c1.3.38,3.89,1,4.81,2.1a1,1,0,0,1,.46,1.34q-2.52,1.06-3.91-.72a3.79,3.79,0,0,0-.56-.43,4.06,4.06,0,0,0-2.46-.16,5.79,5.79,0,0,0-2.12.86c-.5.33-1,1.13-1.61,1.23-.32,0,.09.21.24.19Z"/><path class="cls-3" d="M56.26,81s6.32-.82,6.88,0,.24-3.66-1.12-4.06a3.21,3.21,0,0,0-2.18,0"/><path d="M56.38,81.11a42.18,42.18,0,0,1,4.21-.36,11.83,11.83,0,0,1,1.46,0,6.4,6.4,0,0,1,1,.35c.19,0,.35.16.53,0,.66-.56-.35-3.24-.73-3.73a2.91,2.91,0,0,0-3.19-.54c-.16.07.29.22.41.17,2.41-1,3.09,1.62,3.12,3.27a3.08,3.08,0,0,1,0,.61c0,.15.44,0,.06-.07a6.32,6.32,0,0,0-.85-.24,22.92,22.92,0,0,0-6.18.3c-.32,0,.07.23.23.21Z"/><path d="M158.49,74.08A15.94,15.94,0,0,1,157,80.24c-.06.13.42.15.48,0A16.3,16.3,0,0,0,159,74c0-.13-.49-.12-.5,0Z"/><path d="M147.33,98.9c2-.81,5.28-2.28,5.7-4.66,0-.15-.46-.27-.48-.14-.42,2.33-3.65,3.8-5.61,4.59-.17.07.26.26.39.21Z"/><path class="cls-12" d="M81.85,30.52s2.32,5.3-4.51,5.3"/><path class="cls-12" d="M81.75,44.12s2.32-5.3-4.51-5.3"/><path class="cls-12" d="M85.3,44.12s-2.32-5.3,4.51-5.3"/><path class="cls-12" d="M85.3,30.17s-2.32,5.3,4.51,5.3"/><path class="cls-2" d="M62.63,23.53c5.26-3,10.07-6.44,15.81-8.59,5.23-2,10.8-2.45,16-4.25a.43.43,0,0,0-.11-.83C83.88,8.47,69.29,15.61,62.45,23.3a.15.15,0,0,0,.18.23Z"/><path class="cls-2" d="M114.28,52.3C108.12,54.69,106,62.82,108,68.58a.49.49,0,0,0,1-.26c-1.84-6.85.65-11.3,5.38-15.94,0,0,0-.1,0-.08Z"/><path class="cls-2" d="M117.63,57.13c-3,2.16-4.62,7.71-2.41,10.94a.38.38,0,0,0,.7-.29,14,14,0,0,1-.52-5.15A10.79,10.79,0,0,1,118,57.54c.16-.21,0-.59-.32-.41Z"/><path class="cls-2" d="M124.45,59.59c-4.69,2.52-2.93,9.72,2.08,10.51.67.1,1-.88.29-1-4.74-1.12-5.58-6.08-2.21-9.26.12-.1,0-.28-.16-.21Z"/><path class="cls-2" d="M131.35,74.42c2.37.12,5.13-1.23,5.91-3.63,0-.08-.08-.14-.14-.08A12.35,12.35,0,0,1,134.55,73a9.81,9.81,0,0,1-3.23,1.18c-.16,0-.11.26,0,.26Z"/><path class="cls-2" d="M136,79.88c2.5,0,5.35-2.7,5.71-5.11,0-.19-.21-.32-.32-.14a13.34,13.34,0,0,1-2.2,3.12,16.76,16.76,0,0,1-3.22,2,.06.06,0,0,0,0,.11Z"/><path class="cls-2" d="M171.25,74.36c6.4-3.29,14.37,1.76,15.78,8.47.07.32.49.25.59,0,1.41-3.73-3.61-7.78-6.5-9.38-3.23-1.79-7.35-2.16-10.09.62a.18.18,0,0,0,.22.29Z"/><path class="cls-2" d="M159.28,79.76c-.91,2.22-1.33,4.65-2,6.94s-1.84,4.54-2.2,6.88a.27.27,0,0,0,.49.21c1.37-2,2-4.54,2.64-6.83a26.66,26.66,0,0,0,1.45-7.15.18.18,0,0,0-.35,0Z"/><path class="cls-2" d="M155.87,80.89c-.37,1-.65,2.09-1,3.12s-.9,2-1.27,3c-.13.36.41.68.65.38a9.69,9.69,0,0,0,1.94-6.47.15.15,0,0,0-.29,0Z"/><path class="cls-2" d="M135.32,25.88a9.73,9.73,0,0,0,2.38,2.18,19.74,19.74,0,0,1,3.14,3.32c1.63,2.19,2.29,4.72,3.59,7.05a.18.18,0,0,0,.33-.09c.19-2.86-1.64-6-3.37-8.12-1.35-1.7-3.65-4.38-6-4.45a.08.08,0,0,0-.06.11Z"/><path class="cls-2" d="M14.33,89.27h-.22a.07.07,0,0,0,0,.13h.22c.1,0,.1-.16,0-.15Z"/><path class="cls-2" d="M12.55,90.45c-.84-.11-1.47.86-1.77,1.53a3.67,3.67,0,0,0,0,3c.74,1.6,3.81,3.22,5,1.22a.39.39,0,0,0-.34-.58c-1.39-.11-2.94.43-3.86-1a2.63,2.63,0,0,1-.06-2.47c.27-.58.87-.89,1.11-1.46,0-.06,0-.18-.08-.19Z"/><path class="cls-2" d="M44.67,119.28A60.74,60.74,0,0,1,69,117.85c.14,0,.15-.18,0-.23a34.12,34.12,0,0,0-24.59,1.14c-.3.14-.08.6.22.52Z"/><path class="cls-2" d="M71.08,117.28l.88-.44s0,0,0,0l-.89.45s0,0,0,0Z"/><path class="cls-2" d="M60.2,39.59c2.12-.37,4.1-1.82,6.11-2.59s3.84-1.16,5.68-2c.47-.2.24-1-.26-1a20,20,0,0,0-5.92,1.72c-2,.82-4.47,1.69-5.83,3.4a.23.23,0,0,0,.22.38Z"/><path class="cls-2" d="M122.31,96.05c-1.85,7.32-4.08,13.46-8.81,19.46-3.91,4.94-8.56,9.07-13.11,13.4-.32.3.12.9.48.63,10-7.61,24-19.3,22-33.49,0-.28-.48-.25-.55,0Z"/><path class="cls-2" d="M53.78,90.39c-2.35-.29-2.05,2.83-.32,3.6s3.77-.25,5.39-.77a62,62,0,0,0,8.28-3c.64-.31.16-1.2-.46-1.09a45,45,0,0,0-6.23,1.75l-3.08,1-1,.34c-1,.54-1.78.14-2.38-1.19.35-.19.14-.64-.18-.67Z"/><path class="cls-2" d="M69.61,139.83a25.43,25.43,0,0,0,5.09-3.65,40.39,40.39,0,0,0,5.22-4.53c.45-.53-.12-1.39-.78-1A38.76,38.76,0,0,0,74,134.89a26.47,26.47,0,0,0-4.67,4.61c-.15.22.14.42.33.33Z"/><path class="cls-2" d="M90.31,110c3.41-6.55-1.34-17-7-20.86-.14-.1-.29.12-.18.24,2.69,3,5.1,6,6.23,9.94,1,3.65.38,7,.64,10.61,0,.13.2.21.26.07Z"/><path class="cls-2" d="M41,83.41a35.86,35.86,0,0,0,14.56-6.09.38.38,0,0,0-.39-.66c-2.24,1-4.34,2.26-6.58,3.25C46.05,81,43.4,81.77,40.84,82.8a.32.32,0,0,0,.16.61Z"/><path class="cls-2" d="M60.4,78a1.36,1.36,0,0,1,.45.37,4,4,0,0,1,.55.54c.24.33.25.87.6,1.09a.27.27,0,0,0,.26,0c.5-.39.11-1.19-.22-1.58a1.93,1.93,0,0,0-.78-.58,2,2,0,0,0-.84,0,.07.07,0,0,0,0,.12Z"/><path class="cls-2" d="M84.38,69.65c.32.82,1.73.76,2.48,1a14.88,14.88,0,0,1,2.15.87,7.56,7.56,0,0,0,1.86.89c.2,0,.41-.17.28-.36-.83-1.26-2.87-1.92-4.26-2.33,0,0-2.78-.74-2.51-.07Z"/><path class="cls-2" d="M83.83,74.93a7.93,7.93,0,0,1,1.75-.74A13.26,13.26,0,0,1,87.47,74c.18,0,.29-.28.1-.38a3.71,3.71,0,0,0-4.07.86.27.27,0,0,0,.33.41Z"/><path class="cls-2" d="M83,74.58a11.13,11.13,0,0,1,3.49-.88c1.33,0,2.27.62,3.49.94a.33.33,0,0,0,.31-.54c-1.57-1.95-5.95-1.66-7.43.23-.09.11,0,.3.14.25Z"/><path class="cls-2" d="M86.36,74.08a8.07,8.07,0,0,1,3.15.53c1,.41,1.74,1.18,2.69,1.67a.27.27,0,0,0,.37-.36c-1-2.09-4.25-2.67-6.28-2.34-.28,0-.21.5.07.5Z"/><path class="cls-2" d="M83.08,31.48a1.74,1.74,0,0,1-.14-.27c-.1-.22-.41.09-.2.19a1.71,1.71,0,0,1,.27.14,0,0,0,0,0,.07-.06Z"/><path class="cls-2" d="M83,31.48c-.18.5,0,1,.05,1.49A3.41,3.41,0,0,1,82.38,35c-1,1.33-2.27,1.31-3.74,1.45a.24.24,0,0,0-.12.44c1.37.82,3.4-.06,4.32-1.21.69-.86,1.62-3.59.24-4.26a.06.06,0,0,0-.09,0Z"/><path class="cls-2" d="M87.28,38.4c-1.22-.44-2.69.43-3.41,1.38a3.49,3.49,0,0,0-.28,4,.28.28,0,0,0,.51-.22,4.25,4.25,0,0,1,.26-3.3c.69-1.1,1.79-1.28,2.92-1.65a.1.1,0,0,0,0-.2Z"/><path class="cls-2" d="M112.15,5.21c2.41.61,4.89.42,7.19,1.5a5.74,5.74,0,0,1,3,3,21.32,21.32,0,0,0,1,2.6.85.85,0,0,0,1.45,0c1.07-2.52-1.22-4.61-3.16-5.91a13.4,13.4,0,0,0-9.4-1.77.33.33,0,0,0,0,.63Z"/><path class="cls-2" d="M119.77,19.65a9.86,9.86,0,0,0,3,.25c1.15,0,2.32.05,3.46,0a.59.59,0,0,0,0-1.18c-1.14,0-2.31.08-3.46.15a10.2,10.2,0,0,0-3,.41.22.22,0,0,0,0,.41Z"/><path class="cls-2" d="M120.71,36.26a25.54,25.54,0,0,1,6,1c.86.28,1.24-1.1.38-1.36a11.54,11.54,0,0,0-6.48-.3.33.33,0,0,0,.08.64Z"/><path class="cls-2" d="M125.3,26.49a5.88,5.88,0,0,0,.07,3c.23.94,1.78.76,1.71-.23a5.85,5.85,0,0,0-.82-2.93.54.54,0,0,0-1,.13Z"/><path class="cls-2" d="M125.68,40.6a7.41,7.41,0,0,0-.43,2.24c-.09.73,1.1.75,1.16,0a6.68,6.68,0,0,0,0-2.14.41.41,0,0,0-.74-.1Z"/><path class="cls-13" d="M82.92,138.28c7.58-4,14.19-11.26,16.91-19.41a.2.2,0,0,0-.37-.16c-4.18,8-9.17,14.18-16.68,19.34a.13.13,0,0,0,.14.23Z"/><path class="cls-13" d="M111.65,81.33c3.06,4.71,10.08,7.39,15.42,5.22a.3.3,0,0,0-.16-.57c-6,.84-10.73-.39-15-4.86a.17.17,0,0,0-.26.21Z"/><path class="cls-13" d="M59.93,34.82C71.22,33,82.6,29.69,93.75,27.1c.38-.09.21-.65-.16-.58-11.11,1.93-23.16,4.11-33.7,8.17a.07.07,0,0,0,0,.13Z"/><path class="cls-13" d="M59.53,34.23a12.07,12.07,0,0,0,3.08-.59,10.74,10.74,0,0,0,3-.94.15.15,0,0,0-.08-.28,10.49,10.49,0,0,0-3.07.63,12.45,12.45,0,0,0-3,1,.11.11,0,0,0,.05.21Z"/><path class="cls-13" d="M59.08,34.19a91.91,91.91,0,0,0,13.4-2.59c.24-.07.21-.5-.06-.46A91.05,91.05,0,0,0,59.05,34c-.12,0-.1.24,0,.23Z"/><path class="cls-13" d="M66.88,31.72a94.35,94.35,0,0,0,11.78-2.21c.14,0,.12-.28,0-.26a94.35,94.35,0,0,0-11.77,2.26c-.11,0-.09.22,0,.21Z"/><path class="cls-13" d="M76.18,30c3.51-.58,7-1.34,10.46-2.24a.2.2,0,0,0-.1-.39c-3.5.68-7,1.5-10.4,2.5-.08,0,0,.14,0,.13Z"/><path class="cls-13" d="M76.6,29.24a39,39,0,0,0,15.12-2.69c.1-.05.07-.19,0-.17-5,.78-10.11,1.8-15.07,2.8a0,0,0,0,0,0,.06Z"/><path class="cls-13" d="M64.43,32.14a24.73,24.73,0,0,0-5.37,1.22.16.16,0,0,0,.09.31,25.3,25.3,0,0,0,5.3-1.43s0-.11,0-.1Z"/><path class="cls-13" d="M59.1,33.91c-.71.26-.19,1.37.28,1a.11.11,0,0,0,0-.19c-.16-.12-.55-.46-.22-.7.06,0,0-.17-.06-.14Z"/><path class="cls-13" d="M59.55,34.47c.67-.07,1.34-.13,2-.22,0,0,0-.11,0-.1-.66.05-1.33.14-2,.22-.06,0-.06.1,0,.1Z"/><path class="cls-13" d="M57.13,72.12c2-.66,2.3-3.77,1.63-5.39-.1-.23-.48-.14-.39.1a4.4,4.4,0,0,1,.15,2.93A8.49,8.49,0,0,1,57.07,72a.05.05,0,0,0,.06.08Z"/><path class="cls-13" d="M64.63,60.76V61a0,0,0,0,0,0,0v-.22s0,0,0,0Z"/><path class="cls-13" d="M64.53,61c.8-.68,1.12-1.89,1.71-2.76A13.51,13.51,0,0,1,69.34,55a.35.35,0,0,0-.35-.6c-2.68,1.48-5.39,4.66-5.21,7.91a.25.25,0,0,0,.5.07,15,15,0,0,1,1.54-4.15A9.5,9.5,0,0,1,69.34,55l-.35-.6a14.19,14.19,0,0,0-3,3.1c-.65.92-1.63,2.28-1.45,3.46,0,0,0,0,0,0Z"/><path class="cls-13" d="M90.08,60.74A7.17,7.17,0,0,0,90.26,63a11.59,11.59,0,0,1-.22,3c-.06.31.42.57.56.23a10.57,10.57,0,0,0,.81-6.1c-.06-.38-.72-.3-.67.09a10.88,10.88,0,0,1-.7,5.78l.59.16A11.91,11.91,0,0,0,90.82,63a3.61,3.61,0,0,0-.65-2.31.05.05,0,0,0-.09,0Z"/><path class="cls-13" d="M127.79,54.05c3.67.1,6,2,7.43,5.3.11.24.42,0,.39-.16-.48-3.44-4.57-6-7.85-5.32-.1,0-.07.18,0,.18Z"/><path class="cls-13" d="M133.1,48.59a9,9,0,0,1,7.54,7.34.16.16,0,0,0,.32,0c-.12-4-4-7.46-7.83-7.52-.12,0-.16.2,0,.22Z"/><path class="cls-13" d="M25.92,92.87a69.07,69.07,0,0,0,14.2-6.71.2.2,0,0,0-.2-.35c-4.66,2.43-9.32,4.64-14.11,6.8-.14.06,0,.31.11.26Z"/><path class="cls-13" d="M59.52,81.39c.37.29.86.11,1.31.14A12.8,12.8,0,0,1,63,82a.21.21,0,0,0,.16-.38,4.89,4.89,0,0,0-2-.52c-.51,0-1.35-.22-1.7.23a0,0,0,0,0,0,0Z"/></svg>