<?xml version="1.0" encoding="utf-8"?>
<!-- Generator: Adobe Illustrator 24.1.2, SVG Export Plug-In . SVG Version: 6.00 Build 0)  -->
<svg version="1.1" id="Layer_1" xmlns="http://www.w3.org/2000/svg" xmlns:xlink="http://www.w3.org/1999/xlink" x="0px" y="0px"
	 viewBox="0 0 15.1 21.4" style="enable-background:new 0 0 15.1 21.4;" xml:space="preserve">
<style type="text/css">
	.st0{opacity:0.5;fill:#6E6E6E;enable-background:new    ;}
</style>
<path d="M4.8,20.9l-1.1-2.2l1.1-0.3c2-0.6,3.9-1.6,5.5-3c0.6-0.5,1-1.1,1.4-1.8c0.1-0.1,0.1-0.2,0.2-0.4c0.3-0.6,0.5-1.2,0.4-1.9
	c0-0.3-0.1-0.7-0.1-1c-0.2-0.9-0.9-1.7-1.8-1.9c-1-0.3-2-0.4-3-0.3c-2.3,0.4-4.5,1.1-6.6,2l-0.2,0.1c0-0.1,0-0.1,0-0.2
	c0-0.6,0-1.3,0-1.9c0-0.1,0.1-0.2,0.2-0.2c1.7-0.6,3.5-1.2,5.3-1.6c0.4-0.1,0.9-0.1,1.3-0.1c0.5,0,1-0.1,1.4-0.1
	c1.1,0,2.2,0.2,3.2,0.7c1,0.5,1.8,1.3,2.2,2.4c0.4,1,0.6,2.1,0.4,3.1c-0.2,1-0.6,1.9-1.1,2.8c-0.8,1.3-1.9,2.4-3.2,3.2
	C8.5,19.4,6.7,20.2,4.8,20.9z"/>
<path class="st0" d="M-30.3,20.9l-1.1-2.2l1.1-0.3c2-0.6,3.9-1.6,5.5-3c0.6-0.5,1-1.1,1.4-1.8c0.1-0.1,0.1-0.2,0.2-0.4
	c0.3-0.6,0.4-1.3,0.4-1.9c0-0.3-0.1-0.7-0.1-1c-0.2-0.9-0.9-1.7-1.8-1.9c-1-0.3-2-0.4-3-0.3c-2.3,0.4-4.5,1.1-6.6,2l-0.2,0.1
	c0-0.1,0-0.1,0-0.2c0-0.6,0-1.3,0-1.9c0-0.1,0.1-0.2,0.2-0.2c1.7-0.6,3.5-1.2,5.3-1.6c0.4-0.1,0.9-0.1,1.3-0.1c0.5,0,1-0.1,1.4-0.1
	c1.1,0,2.2,0.2,3.2,0.7c1,0.5,1.8,1.3,2.2,2.4c0.4,1,0.6,2.1,0.4,3.1c-0.2,1-0.6,1.9-1.1,2.8c-0.8,1.3-1.9,2.4-3.2,3.2
	C-26.7,19.4-28.5,20.2-30.3,20.9z"/>
<path d="M-32.1,0.4c2.9,0.8,5.9,1.2,8.8,1c0,0.2,0,0.4-0.1,0.6l-0.1,1.1c0,0.1-0.1,0.2-0.2,0.2c-1.5,0-2.9,0-4.4-0.2
	c-0.7-0.1-1.4-0.1-2.1-0.3c-0.5-0.1-1-0.3-1.5-0.4c-0.2,0-0.4-0.1-0.4-0.2s0-0.3,0-0.5L-32.1,0.4z"/>
<path d="M12,1.2l-0.2,1.9c-0.4,0-0.7,0-1.1,0c-0.8,0-1.6,0-2.4-0.1c-1-0.1-2.1-0.2-3.1-0.3C4.5,2.5,3.9,2.3,3.3,2.1
	c0,0-0.1-0.1-0.1-0.1V0.2C6,1,9,1.3,12,1.2z"/>
</svg>
