<svg id="illustration" xmlns="http://www.w3.org/2000/svg" viewBox="0 0 198.43 152.66"><defs><style>.cls-1{fill:#006bb6;}.cls-2{fill:#fff;}.cls-3{fill:#5e6d76;}.cls-4{fill:#00114a;}.cls-5{fill:#42b6e9;}.cls-6{fill:#1b617e;}.cls-7{fill:#001a42;}.cls-8{fill:#5f6062;}.cls-9{fill:#010101;}</style></defs><path class="cls-1" d="M135.65,25.06,60.43,49.43S58.68,58,45.11,65.34c0,0,.34,3.93,2.17,4.88s25.13-9.86,25.13-9.86l15.53-6.81,26-8.68,14.18-3.32S136.86,27.84,135.65,25.06Z"/><path class="cls-2" d="M60.54,40.3S90.5,33.12,99.33,30s38-15.42,38-15.42-.4,8.85-1.64,10.52S60.43,49.43,60.43,49.43,62.06,43.66,60.54,40.3Z"/><path class="cls-3" d="M81.61,34.74s-1.83-4-1.2-6.53l5.52-.94-.78-6s-.49-1.26,4.5-3a3.43,3.43,0,0,1,.64-4.72L98.19,12l.49,2.83,5-.83s4,.23,6.06,3.05a6,6,0,0,0,2.63-2.92,24.56,24.56,0,0,1,9.8,6.11l-19.48,8.59Z"/><path class="cls-4" d="M84.48,6.35l2.21,3.1,12.09-1.6s1.27-2.11.41-3.69S84.48,6.35,84.48,6.35Z"/><path class="cls-5" d="M112.05,92.88l-1.64,2.93-1,4.29-.43,3.77,1.48,5,3.48,4.51,2.07,1.51s-8.92-1.77,36.61,14.72c27.5,10,21.5,15.53,12.44,18.38a40.32,40.32,0,0,1-21.33.63L54,134.75A34.93,34.93,0,0,1,30.56,85.58l3.56-7.38,74,.35Z"/><path class="cls-2" d="M141.86,41.79l-5.8-.39-7.92.15-8.37,2L89.6,52.94s-38.85,16.56-42,18.14-12.8,5.33-12.8,5.33l-3.95,11c.79.14,2.87.65,7.88,2,10.93,3.06,23.14,2.85,23.14,2.85l4.42.58,4.47-.75,9.71-1.19,6.18-3.66,4.56-4.85,2.62,1.91,3.6,2.87,5,3.65,6.88,1.37,3.91.66c2.14-2.77,4.52-5.34,6.66-8.12,2.8-3.64,5.55-7.18,8.69-10.55,3.44-3.68,7.07-7.26,9.3-11.83a46.11,46.11,0,0,1,3.09-5.59,18.64,18.64,0,0,0,3-5.75.46.46,0,0,1,.18-.26,68.2,68.2,0,0,0,1.3-7.56.19.19,0,0,1,0-.07Z"/><path class="cls-6" d="M64.76,122.16A22.75,22.75,0,0,1,60.39,113c-.77-3.84.16-6.86.82-10.57a.73.73,0,0,0-1.33-.56c-1.93,3-1.84,7.51-1.22,10.86a16.56,16.56,0,0,0,5.6,9.81c.26.2.74-.07.5-.39Z"/><path class="cls-6" d="M87,115.64A18.64,18.64,0,0,1,84,109c-.56-2.73-.07-5.21.38-7.91,0-.34-.41-.61-.6-.26-2.56,4.72-.8,11.52,3,15.07.14.13.4,0,.28-.21Z"/><path class="cls-6" d="M67.84,93.73c4.21.91,9.42-.67,13.3-2.25a33.64,33.64,0,0,0,11.25-7.63c.36-.37-.21-.94-.57-.57A33.18,33.18,0,0,1,80.19,91c-4.08,1.59-8.14,1.64-12.35,2.46-.12,0-.12.23,0,.25Z"/><path class="cls-6" d="M92.35,83.66a19.38,19.38,0,0,0,8.59,7.8c2.94,1.46,7.44,3.09,10.74,2.11a.23.23,0,0,0,0-.43c-1.68-.39-3.44-.25-5.15-.6a21,21,0,0,1-5.52-2c-3.42-1.75-5.84-4.32-8.26-7.23-.19-.23-.52.06-.4.3Z"/><path class="cls-6" d="M31.8,88.13a90.16,90.16,0,0,0,18.69,4.43c5.94.83,12.37,1.6,18.35.86a.2.2,0,0,0,0-.4c-6.37-.55-12.71-.44-19.07-1.37A170.22,170.22,0,0,1,31.9,87.78a.18.18,0,0,0-.1.35Z"/><path class="cls-6" d="M59.56,93.17a4.8,4.8,0,0,0,3.38,0c.17-.08,0-.32-.13-.29A8.46,8.46,0,0,1,59.6,93a.07.07,0,0,0,0,.14Z"/><path class="cls-6" d="M55,130.72C53,128.73,50.8,127,48.9,125a42.18,42.18,0,0,1-5.29-7.23c-3-5.22-4.26-10.55-5.26-16.42-.07-.35-.61-.25-.62.09-.17,5.78,2,12,4.72,17s6.89,10.42,12.1,12.84c.34.16.71-.25.42-.54Z"/><path class="cls-6" d="M136.7,134.88a.05.05,0,1,0,0-.1.05.05,0,0,0,0,.1Z"/><path class="cls-6" d="M135.94,134.2c-4.72-4.4-12-2.13-17-6.09-.27-.21-.63.13-.38.38,4.5,4.64,12.21,1.76,16.94,6.11.27.25.67-.15.4-.4Z"/><path class="cls-6" d="M131.29,142.68c-5.55-6.22-15.41-3-22.32-6.41a.36.36,0,0,0-.36.62c6.8,4.32,16.07.43,22.35,6.12a.23.23,0,0,0,.33-.33Z"/><path class="cls-2" d="M53.62,120.17a92.17,92.17,0,0,0-4.86-10.72c-.09-.17-.39,0-.31.13a90,90,0,0,0,5,10.64.07.07,0,0,0,.12,0Z"/><path class="cls-2" d="M37.88,121.65c-4.64-7.13-3.44-14.46-2.9-22.46,0-.09-.12-.1-.14,0-1.68,7.22-2.47,16.65,2.88,22.6.08.08.23,0,.16-.12Z"/><path class="cls-2" d="M73.06,123.43a26.71,26.71,0,0,1-4.39-12.69c-.31-4.46.79-8.4,2.28-12.54.08-.23-.25-.35-.37-.16-4.77,7.63-3.14,18.75,2.27,25.55.1.12.29,0,.21-.16Z"/><path class="cls-2" d="M111.12,116.24c-2.14-2.9-4-5.58-4.49-9.23s.33-6.79,1.67-10.11c.19-.47-.55-.74-.8-.33-3.66,6-2.43,15.53,3.27,19.94.18.13.52-.05.35-.27Z"/><path class="cls-2" d="M99.18,133.27q-6-1.14-12.07-2.11c-3.3-.54-9-.38-11.17-3.32a.25.25,0,0,0-.43.25c1.52,3,6.1,3,9,3.43,4.87.76,9.74,1.49,14.63,2.12.22,0,.27-.33.06-.37Z"/><path class="cls-2" d="M115.17,134c6.78-1.36,11.52,5,18.06,5.18.25,0,.23-.35,0-.38-6.25-.76-11.59-7-18.17-5.2a.21.21,0,0,0,.11.4Z"/><path class="cls-2" d="M126.72,125.57c5,3.12,10.64,8.68,17,7.84.26,0,.28-.41,0-.41-6.94,0-10.85-5.49-16.93-7.6a.09.09,0,0,0-.07.17Z"/><path class="cls-2" d="M83.23,31.19c1.72,1.49,5.73.14,7.7-.31,3-.7,6.41-1.55,8.7-3.7.3-.28,0-.66-.36-.62-3,.42-5.85,1.9-8.8,2.62-1.54.37-3.08.64-4.64.87-1.14.17-1.83.1-2.6,1a.12.12,0,0,0,0,.18Z"/><path class="cls-2" d="M88.2,23.82a18.54,18.54,0,0,0,9.1-2.7.16.16,0,0,0-.12-.29c-1.53.32-3,1-4.48,1.43s-3,.76-4.54,1.24c-.17.06-.15.33,0,.32Z"/><path class="cls-2" d="M86.79,7.33a75.2,75.2,0,0,0,11-1.89c.42-.08.24-.71-.18-.64A75.13,75.13,0,0,0,86.76,7.1c-.13,0-.11.24,0,.23Z"/><path class="cls-2" d="M88.39,8.63a33.07,33.07,0,0,0,9.28-1.09A.28.28,0,0,0,97.59,7a32.73,32.73,0,0,0-9.23,1.41.11.11,0,0,0,0,.22Z"/><path class="cls-2" d="M107.53,21.69A8.19,8.19,0,0,0,108.72,23a10.93,10.93,0,0,0,1.33,1.22c.36.25.66-.26.43-.55a10.31,10.31,0,0,0-1.32-1.24,7.88,7.88,0,0,0-1.33-1.05c-.18-.1-.43.11-.3.31Z"/><path class="cls-2" d="M112.69,18.1c.23.68,1,1.11,1.57,1.54a10.13,10.13,0,0,0,2,1.51c.18.08.47-.1.31-.31a11.07,11.07,0,0,0-2-1.72c-.53-.41-1.1-1.07-1.8-1.14-.06,0-.11.07-.09.12Z"/><path class="cls-2" d="M115.61,16.14A12.09,12.09,0,0,0,117.07,18a6.35,6.35,0,0,0,1.66,1.65c.15.08.4-.06.33-.25a6.43,6.43,0,0,0-1.45-1.76,12.37,12.37,0,0,0-1.78-1.69c-.14-.1-.3.09-.22.22Z"/><path class="cls-2" d="M100.73,17.77c0,.12,0,.25,0,.37l.45-.06c-.07-.23.28-.19,0-.08,0,0-.14,0-.2,0a.24.24,0,0,0-.17.19.3.3,0,0,0,.2.37c.63.26,1.28-.73.72-1.17a.69.69,0,0,0-1,.84c.14.26.57,0,.4-.23l-.24-.31a.11.11,0,0,0-.2.05Z"/><path class="cls-2" d="M96.05,18.74a.66.66,0,0,0-.72.87.77.77,0,0,0,1.34.08.88.88,0,0,0-.82-1.29c-.58.05-1.08.81-.6,1.27a.19.19,0,0,0,.32-.08c.07-.2.11-.48.37-.45s.19,0,.11.14,0,.18-.15.1,0-.33.15-.37a.14.14,0,0,0,0-.27Z"/><path class="cls-2" d="M90,21.05a.39.39,0,0,0-.7.34.52.52,0,0,0,.53.34c.3,0,.49-.27.62-.52a.32.32,0,0,0-.11-.41.54.54,0,0,0-.88.22c-.06.2.13.33.31.31a.82.82,0,0,1,.27,0L89.87,21l-.14.38a.21.21,0,0,0,.24-.31Z"/><path class="cls-7" d="M123.43,26.1c-2.25.38-2.76,3.31-2,5.09s3.13,3.55,5.18,2.41c4.49-2.52-.19-10.64-4.27-7.19-.41.35,0,1,.5.86,1.47-.37,3-.3,3.89,1.09a3.19,3.19,0,0,1-.42,4.09c-1.5,1.21-3.42-.15-4.17-1.56-1-1.91-.17-3.42,1.41-4.56a.13.13,0,0,0-.1-.23Z"/><path class="cls-7" d="M122.07,27.83a2.82,2.82,0,0,0-1,3.64c.62,1.23,2.43,2.28,3.76,1.55.5-.27.21-.92-.27-1-1-.12-2-.06-2.61-1.09a3,3,0,0,1,.22-3c.05-.08,0-.18-.14-.13Z"/><path class="cls-7" d="M123.07,26.41c-1.53.87-3,2.62-2.32,4.5.38,1,2.34,2.39,3.06.94a.32.32,0,0,0-.19-.47c-1-.34-1.88-.35-1.84-1.71,0-1.2.88-2.12,1.45-3.11a.11.11,0,0,0-.16-.15Z"/><path class="cls-7" d="M123.58,26.83a3.06,3.06,0,0,0-2.19,3.2,3.21,3.21,0,0,0,2.91,2.8c3.53.39,4.9-4.87,1.5-6.08a2.78,2.78,0,0,0-3.74,2.09,2.49,2.49,0,0,0,2.83,2.86,2.07,2.07,0,0,0,1.2-3.46,1.74,1.74,0,0,0-3,1.5,1.58,1.58,0,0,0,3.12-.21c.08-1.71-2.68-2-2.94-.3a.83.83,0,0,0,1.2.93l.69-.38a.82.82,0,0,0-.83-1.42l-.69.38,1.21.93c-.19.14-.24,0-.14-.35.31.05.4.21.28.5s-.51.37-.79.3a1,1,0,0,1-.27-1.7c1.37-1.21,2.65.86,2.08,2.08a1.84,1.84,0,0,1-3,.19c-1-1.17-.26-2.69.67-3.59.13-.12,0-.29-.15-.27Z"/><path class="cls-7" d="M104,31.9c-2.55.08-4.45,3.17-3.09,5.41s4.85,1.62,6-.52A4.2,4.2,0,1,0,99.07,35a4.3,4.3,0,0,0,6.31,3.52c1-.5.12-2-.88-1.5a2.55,2.55,0,1,1,.8-3.83c1.23,1.6.22,4.27-2,4.09a2,2,0,0,1-1.54-2.6c.31-1.25,1.35-1.75,2.35-2.37a.21.21,0,0,0-.11-.39Z"/><path class="cls-7" d="M103.83,32.57A2.74,2.74,0,0,0,101.55,34a2.5,2.5,0,0,0,.65,2.89c1.75,1.62,4.86-.24,4-2.56-.79-2-4-1.83-4.24.47a2.13,2.13,0,0,0,4.12.92c.36-.87-1-1.4-1.49-.63-.31.53-1.25.32-.89-.3s1,0,.92.51c-.21.88-1.27.63-1.62,0a1.75,1.75,0,0,1,.94-2.38c.19-.08.2-.45-.06-.42Z"/><path class="cls-7" d="M103.14,34.85a1.4,1.4,0,0,0,2-1.24,1.63,1.63,0,0,0-2.27-1.41,2,2,0,0,0-.89,2.86,2.49,2.49,0,0,0,3.36.77c.68-.43.24-1.7-.58-1.37-.43.16-1,.36-1.38,0a.73.73,0,0,1-.18-.93.55.55,0,0,1,.8,0c.19.35-.36.64-.61.57a.37.37,0,0,0-.28.67Z"/><path class="cls-7" d="M104.78,33.16a1.45,1.45,0,0,1-.31,1.21,1.5,1.5,0,0,1-.91.62.57.57,0,0,0,.3,1.1A2.14,2.14,0,0,0,105.13,33a.19.19,0,0,0-.35.15Z"/><path class="cls-7" d="M87.42,37.27c-1.83-1.05-3.59,1.74-3.14,3.32a3.2,3.2,0,0,0,4.88,1.81,3.26,3.26,0,0,0,.42-4.93,3.52,3.52,0,0,0-2.65-.86c-.88.08-1.89.49-1.75,1.52a.58.58,0,0,0,.41.41c.42.17.73,0,1.14-.17a1.86,1.86,0,0,1,1.27.08,1.47,1.47,0,0,1,.49,2.31,1.56,1.56,0,0,1-2.65-.42,1.72,1.72,0,0,1,.08-1.63c.34-.58,1-.76,1.5-1.1a.2.2,0,0,0,0-.34Z"/><path class="cls-7" d="M87.45,38a1.72,1.72,0,0,0-2,2.11,1.79,1.79,0,0,0,2.92.8A1.74,1.74,0,0,0,87.81,38a1.77,1.77,0,0,0-1.62.36,1.31,1.31,0,0,0-.4,1.69c.28.39,1,.55,1.25,0,.07-.16.08-.59.35-.53-.16,0,0,.21-.14.31s-.4-.15-.46-.27c-.21-.42.25-1,.66-1a.32.32,0,0,0,0-.64Z"/><path class="cls-7" d="M69.5,39.78c-2.71-.3-4.52,3.31-4,5.59a4.84,4.84,0,0,0,6.25,3.55,4.74,4.74,0,0,0,2.81-6.45c-1.15-2.54-4.74-3.69-6.69-1.51a.46.46,0,0,0,.44.77c1.6-.42,3.7-.45,4.63,1.17a3.16,3.16,0,0,1-2,4.64,3.36,3.36,0,0,1-4.06-2.9c-.31-2.25,1.27-3.1,2.81-4.25a.33.33,0,0,0-.16-.61Z"/><path class="cls-7" d="M70.22,41.15a3.07,3.07,0,0,0-3.33,1.63,3.56,3.56,0,0,0,.49,3.85c2,2.35,6.17,1,6.16-2.19s-4.74-4.11-5.45-.85c-.63,2.86,3.94,4.09,4.49,1.11.21-1.18-.84-3.16-2.25-2.33a1.53,1.53,0,0,0,.79,2.86.8.8,0,0,0,.76-.58.71.71,0,0,0-.06-.57.7.7,0,0,0-.22-.26.58.58,0,0,0-.18-.11c-.13-.1-.19,0-.2.18l-.68-.08c.36.18.5.78,0,.92s-.91-.63-.64-1.07a1,1,0,0,1,1.59,0,1.43,1.43,0,0,1-.06,1.87,2,2,0,0,1-3.27-.58c-.53-1.42.69-2.72,2-3,.39-.08.41-.76,0-.82Z"/><path class="cls-7" d="M87,39.31c-.27,0-.54,0-.75.2a1,1,0,0,0-.28.74,1.18,1.18,0,0,0,1.5,1,.72.72,0,0,0-.19-1.41s-.17,0-.11,0-.2-.15-.14-.07,0-.08,0-.13-.1,0,0-.15.07-.22,0-.2Z"/><path class="cls-7" d="M86.58,39.19A1.58,1.58,0,0,0,87.67,41c.68.11,1.19-.8.5-1.19-.26-.14-.54-.12-.78-.28s-.38-.29-.57-.42a.17.17,0,0,0-.24.1Z"/><path class="cls-2" d="M123.48,26.27c-1,.65-2,2.21-1.09,3.37.46.63.92.31,1.43.68.78.57-.31,2.08-.14,2.91.08.39.61.26.64-.08.08-.93,1.08-2.14.43-3.08-.24-.34-.44-.3-.78-.48-2-1.08-.93-1.82-.33-3.16,0-.1,0-.23-.16-.16Z"/><path class="cls-2" d="M103.85,31a19.19,19.19,0,0,0-.88,3.53.4.4,0,0,0,.38.5h.56l-.4-.4a25.1,25.1,0,0,0-.3,3.86c0,.36.56.47.65.09a24.87,24.87,0,0,0,.44-4,.4.4,0,0,0-.39-.4h-.56l.38.5a18.51,18.51,0,0,0,.44-3.7c0-.2-.25-.21-.32,0Z"/><path class="cls-2" d="M87.82,37.13a2,2,0,0,0-.87,2,5.17,5.17,0,0,0,.39,1,7.51,7.51,0,0,1,0,2.22.41.41,0,0,0,.82,0,7.55,7.55,0,0,0,0-2.51c-.18-.46-.46-.63-.44-1.18a2.33,2.33,0,0,1,.49-1.18c.16-.23-.14-.5-.36-.37Z"/><path class="cls-2" d="M70,40c-.65,1-1.6,3.08-1.26,4.32a1.15,1.15,0,0,0,1.82.69l-.86-.49c-.07,1-.19,2.06-.17,3.08,0,.58,1,.76,1.05.14.16-1.06.19-2.14.26-3.22,0-.54-.62-.68-1-.4,0,0,.29-2.11.34-2.35a7.28,7.28,0,0,0,.13-1.68A.18.18,0,0,0,70,40Z"/><path class="cls-2" d="M133.36,22c-.78,1.14-.78,2.55-1.07,3.88a33.43,33.43,0,0,1-1.49,5,28.42,28.42,0,0,1-2.46,4.86,21.58,21.58,0,0,0-2.43,3.84.51.51,0,0,0,.73.57c2.7-1.54,4.4-5.69,5.51-8.48,1-2.54,2.81-7.07,1.48-9.7a.15.15,0,0,0-.27,0Z"/><path class="cls-2" d="M46.6,66.23A3.84,3.84,0,0,0,48.43,68,.51.51,0,0,0,49,68c.5-.38.16-.79-.27-1a8.08,8.08,0,0,1-1.48-1.18.38.38,0,0,0-.6.46Z"/><path class="cls-2" d="M71.34,56.93c7.19-3.5,14-7.47,21.53-10.25a113.35,113.35,0,0,1,10.84-3.38c3.79-1,7.76-1.41,11.49-2.55a.39.39,0,0,0-.1-.77c-3.78,0-7.67,1.06-11.31,2A108.51,108.51,0,0,0,91.7,45.73C84.55,48.42,77,51.72,71,56.55c-.23.18.07.5.3.38Z"/><path class="cls-8" d="M62.58,23.75c-1.36,0-2.17,1.42-2.39,2.62a3.49,3.49,0,0,0,1.23,3.45A3.39,3.39,0,0,0,67,27.41c.13-2.92-3.78-5.22-5.74-2.5a2.57,2.57,0,0,0,.46,3.53,2.24,2.24,0,0,0,3.33-.53,1.78,1.78,0,0,0-2.19-2.55,1.56,1.56,0,0,0,.72,3,1,1,0,0,0,0-1.92c-.12.63-.35.79-.71.5l-.18-.26a.77.77,0,0,1,.26-.79,1.34,1.34,0,0,1,1.83.27,1.73,1.73,0,0,1-.53,2.67,2,2,0,0,1-2.48-1.45c-.28-1.26.68-2.13,1.11-3.19a.34.34,0,0,0-.32-.42Z"/><path class="cls-8" d="M64.26,24.2a4.46,4.46,0,0,1,1.89,1.44c.4.53.55,1.2,1,1.71a.2.2,0,0,0,.34-.09A2.44,2.44,0,0,0,66.68,25a3.58,3.58,0,0,0-2.32-1.18.19.19,0,0,0-.1.37Z"/><path class="cls-8" d="M63.4,30.75a9.2,9.2,0,0,0,.3,2,4.83,4.83,0,0,0,.68,1.82c.4.51,1.11,0,1.15-.48a4.63,4.63,0,0,0-.46-1.84,8.65,8.65,0,0,0-.76-1.7.49.49,0,0,0-.91.25Z"/><path class="cls-8" d="M63.66,32.74c-2.44.83-3,5.14-1.27,6.86a.62.62,0,0,0,1-.6,8.18,8.18,0,0,1-.6-3.13,9.48,9.48,0,0,1,1-2.94.16.16,0,0,0-.2-.19Z"/><path class="cls-8" d="M62.76,39.41A13.65,13.65,0,0,0,65.81,39a18.6,18.6,0,0,0,3.39-.81c.36-.14.35-.74-.1-.72a17.63,17.63,0,0,0-3.29.6,15.06,15.06,0,0,0-3.16.92c-.21.1-.1.41.11.42Z"/><path class="cls-8" d="M69.35,37.84a4.09,4.09,0,0,0-1.26-3.93c-.94-.9-2.84-1.76-4.09-1.09a.61.61,0,0,0,.14,1.1c.52.15,1,0,1.57.15a4.06,4.06,0,0,1,1.55.68A5,5,0,0,1,69,37.84a.18.18,0,0,0,.34,0Z"/><path class="cls-8" d="M65.55,34c-1.72-1.31-3.58.79-2.87,2.6s3.78,2.59,4.88.73a2.12,2.12,0,0,0-.71-2.7,3.57,3.57,0,0,0-1.3-.7,1.55,1.55,0,0,0-1.36.58c-1.47,1.64.57,4.23,2.46,3a.78.78,0,0,0,.39-.68.74.74,0,0,0-.33-.65c-.32-.21-.56-.08-.89,0s-.81-.49-.27-.69l-.63-.08c.33.15,1.47.54,1.31,1.09s-1.26.32-1.59.15A1.33,1.33,0,0,1,64,35.16a1.38,1.38,0,0,1,1.48-.91.14.14,0,0,0,.1-.25Z"/><path class="cls-8" d="M67.48,35.34a1.77,1.77,0,0,0,0,1.18,2.24,2.24,0,0,0,.79,1.07.69.69,0,0,0,.9-.18.71.71,0,0,0,0-.91,15.17,15.17,0,0,1-1-1.24.32.32,0,0,0-.57.08Z"/><path class="cls-8" d="M64.86,35.27c.19.3.33.62.53.91s.41.58.59.88c.6,1,2.06-.35,1-1-.3-.18-.58-.41-.86-.61s-.6-.35-.89-.55-.53.15-.38.38Z"/><path class="cls-8" d="M63.18,38.14a10.13,10.13,0,0,0,2.58,0c.78-.08,1.55,0,2-.68a.52.52,0,0,0-.18-.7c-.67-.46-1.46,0-2.17.15a9.32,9.32,0,0,0-2.31.87.2.2,0,0,0,0,.37Z"/><path class="cls-8" d="M64.42,38.94a25.28,25.28,0,0,0,2.61-.4c.77-.17,1.7-.2,2.24-.82a.36.36,0,0,0-.16-.61,3.88,3.88,0,0,0-2.35.47c-.83.29-1.63.65-2.43,1a.18.18,0,0,0,.09.34Z"/><path class="cls-9" d="M44.19,73.07A453.47,453.47,0,0,1,86.33,54.25C100.14,48.85,114.84,42,129.79,41c.32,0,.32-.52,0-.5-15,1-29.72,7.89-43.6,13.31A457,457,0,0,0,43.94,72.63c-.29.15,0,.58.25.44Z"/><path class="cls-9" d="M95.42,85.74A23.13,23.13,0,0,1,93,82.93c-.19-.25-.62,0-.43.26a26.55,26.55,0,0,0,2.49,2.91c.23.23.58-.13.36-.36Z"/><path class="cls-9" d="M106.09,53.81a17.66,17.66,0,0,1,3.2-1.28c.31-.09.18-.58-.13-.48a19.08,19.08,0,0,0-3.33,1.32c-.28.15,0,.58.26.44Z"/><path class="cls-9" d="M82.57,120.82c-7.81-6.06-9.44-13.23-6.64-22.53.09-.28-.3-.42-.46-.19-5,7.71-1.15,19.14,6.94,22.92.13,0,.28-.11.16-.2Z"/><path class="cls-9" d="M104.84,119.74a23.65,23.65,0,0,1-4-7.14c-.81-2.77-.62-5.35-.45-8.17,0-.33-.47-.37-.57-.07-1.62,5.16.55,12.19,4.79,15.54.11.08.3,0,.21-.16Z"/><path class="cls-9" d="M116.13,114.79c-6.9-5.48-8.15-12.69-4.43-20.58a.32.32,0,0,0-.55-.32c-5.23,6.78-2.6,17.19,4.75,21.19.18.1.4-.15.23-.29Z"/><path class="cls-9" d="M129,40.8a54.53,54.53,0,0,0,8.73-26.26c0-.52-.78-.52-.82,0a57.44,57.44,0,0,1-8.31,26,.23.23,0,0,0,.4.24Z"/><path class="cls-9" d="M137.35,14.13c-25,10.66-49.64,20.22-76.28,26-.53.12-.31.93.22.82,26-5.64,52.72-13.78,76.23-26.51.19-.11,0-.38-.17-.29Z"/><path class="cls-9" d="M60.22,40.39C63.3,52.53,53.35,59,45,65.12a.25.25,0,0,0,.25.43c9.24-4.64,18.92-14.1,15.63-25.34a.33.33,0,0,0-.64.18Z"/><path class="cls-9" d="M45.05,65.48a4.66,4.66,0,0,0,2.07,5c.35.24.65-.32.33-.56a5.4,5.4,0,0,1-2.08-4.42.16.16,0,0,0-.32,0Z"/><path class="cls-9" d="M68.09,40.69a4.46,4.46,0,0,0-.88,7.24c2.09,1.8,5.53,1.71,7.05-.74s.72-5.89-1.89-7.07a5.12,5.12,0,0,0-6.75,2.8c-.1.25.34.44.45.19a4.86,4.86,0,0,1,5.59-2.65c2.53.73,3.42,3.79,2.39,6a4.16,4.16,0,0,1-6.16,1.43c-2.72-1.81-2-5.32.28-7.13.06,0,0-.13-.08-.1Z"/><path class="cls-9" d="M88.34,37.79c-1.94-.92-4,1.53-3.48,3.4.54,2,3.35,2.52,4.89,1.38,1.9-1.41,1.23-4.49-.68-5.56a3.64,3.64,0,0,0-5.19,2.92c0,.21.28.22.34,0,.61-1.73,2.62-3.43,4.51-2.39,1.41.78,2.09,3,.85,4.26a2.66,2.66,0,0,1-3.94-.39c-1.06-1.83.91-3.57,2.65-3.51.09,0,.13-.13,0-.16Z"/><path class="cls-9" d="M105.93,33.11l-1.83-.44s0,0,0,0l1.83.43s0,0,0,0Z"/><path class="cls-9" d="M103.19,32.14c-2.27.16-3.59,3-2.76,5,.95,2.31,4.18,2.59,6,1.16,2.14-1.69,1.6-5.16-.47-6.66-2.44-1.78-5.68-.42-6.83,2.13-.1.21.2.4.32.18,1.08-1.86,3.76-3.07,5.76-1.95a3.73,3.73,0,0,1,1.21,5.35c-1.27,1.56-4.2,1.66-5.29-.18s.23-4.09,2.12-4.65a.18.18,0,0,0,0-.36Z"/><path class="cls-9" d="M123.44,25.9a4.17,4.17,0,0,0-2.73,6.29,4.32,4.32,0,0,0,7,.29A4.42,4.42,0,0,0,126,25.77c-3.47-1.68-7.34.49-9.48,3.27-.1.13.09.32.22.22,1.85-1.37,3.7-3.11,6.13-3.28s5,1.11,5,3.74a3.55,3.55,0,0,1-5.33,3.13c-3.14-1.79-1.77-5.62,1-6.85,0,0,0-.11,0-.1Z"/><path class="cls-9" d="M63.19,74.81a12.05,12.05,0,0,1,4.56-5c2-1.11,3.83-1.24,6-1.63a.15.15,0,0,0,0-.29c-4.3-1-9.38,2.89-10.72,6.81a.1.1,0,0,0,.18.07Z"/><path class="cls-9" d="M82.31,67.53a3.88,3.88,0,0,0-.15-.36.2.2,0,0,0-.32,0,1.21,1.21,0,0,0-.24.21c-.69.67,1,1,.71.19Z"/><path class="cls-9" d="M85.93,68.74a.61.61,0,0,0-.91.31c-.11.33.32.7.62.48-.19,0-.26,0-.19,0,.55.3,1-.58.48-.81Z"/><path class="cls-9" d="M89.07,71.64l-.13.23c-.43.63,1,1.09.85.12l0-.25c0-.44-.61-.47-.74-.1Z"/><path class="cls-9" d="M89.47,77.54c-.58,3.88-2.92,6.55-6.26,8.41-.12.07,0,.28.1.23,3.56-1.27,6-4.91,6.47-8.55,0-.2-.28-.29-.31-.09Z"/><path class="cls-9" d="M105.4,57.1c5.5-2.94,10.52-2.61,16.07,0a.3.3,0,0,0,.31-.52c-4.69-3.43-11.88-2.95-16.48.38a.1.1,0,0,0,.1.17Z"/><path class="cls-9" d="M127.55,62.68a.07.07,0,0,0,0-.14.07.07,0,0,0,0,.14Z"/><path class="cls-9" d="M118.36,49.24a57,57,0,0,1,12.69-4.16c.34-.06.27-.64-.08-.6a25.77,25.77,0,0,0-12.66,4.66c-.06,0,0,.13,0,.1Z"/><path class="cls-9" d="M81.62,35a33,33,0,0,1-1.2-7.25c0-.38-.57-.37-.58,0-.06,2.41.23,5.27,1.55,7.34a.12.12,0,0,0,.23-.09Z"/><path class="cls-9" d="M80.41,28.36c11.11-1.21,22.6-6.22,31.51-12.88.27-.19,0-.65-.26-.45-9.9,6.45-19.86,10.26-31.29,13-.16,0-.13.31,0,.29Z"/><path class="cls-9" d="M112.27,14.29c3.89,2,7.27,4.08,10.11,7.53.28.33.74-.15.47-.48-2.6-3.26-6.3-6.36-10.4-7.47a.23.23,0,0,0-.18.42Z"/><path class="cls-9" d="M86.13,27.27a31.54,31.54,0,0,0-.63-6.12c-.07-.4-.74-.31-.71.1a31.3,31.3,0,0,0,1,6.08.2.2,0,0,0,.38-.06Z"/><path class="cls-9" d="M84.93,20.88a112.23,112.23,0,0,1,17-6.34.21.21,0,0,0-.11-.41,60.09,60.09,0,0,0-16.93,6.65c-.06,0,0,.13.06.1Z"/><path class="cls-9" d="M101.91,14.11c1.06.52,2.36.35,3.49.69a10.32,10.32,0,0,1,4.09,2.48.39.39,0,0,0,.55-.55,9.86,9.86,0,0,0-4-2.56c-1.19-.42-3-.95-4.16-.21a.09.09,0,0,0,0,.15Z"/><path class="cls-9" d="M89.74,18.16a3,3,0,0,1,.91-4.41c1.68-1,3.44-.31,5.18-.74.16,0,.23-.32,0-.4C94,11.78,90.63,12.3,89.27,14c-1.07,1.31-1.33,3.44.31,4.38a.13.13,0,0,0,.16-.2Z"/><path class="cls-9" d="M97.92,12c0,.51.11,1,.19,1.5a4.44,4.44,0,0,0,.33,1.46c.1.2.47.18.5-.06a4.2,4.2,0,0,0-.14-1.36c-.1-.54-.21-1.08-.36-1.61-.08-.27-.54-.23-.52.07Z"/><path class="cls-9" d="M94.91,12.84a13.84,13.84,0,0,0,2.87-.45.15.15,0,0,0,0-.3,13.39,13.39,0,0,0-2.85.54c-.11,0-.09.22,0,.21Z"/><path class="cls-9" d="M93.25,12.25a33.2,33.2,0,0,0-1.07-4.59.35.35,0,0,0-.67.19,32,32,0,0,0,1.41,4.49.17.17,0,0,0,.33-.09Z"/><path class="cls-9" d="M85.91,9.64c2.74-.2,5.48-.46,8.22-.76,1.49-.15,3.31-.14,4.69-.85,1.64-.84,2.28-3,.5-4.09-.28-.17-.54.27-.26.45.77,2.09.27,3.26-1.49,3.49-.8.14-1.6.26-2.41.34l-3.09.37c-2.06.27-4.13.54-6.19.85-.11,0-.08.21,0,.2Z"/><path class="cls-9" d="M99.1,3.37c-5,.84-9.89,2.07-14.81,3.17a.24.24,0,0,0,.12.46c4.92-1.1,9.89-2.07,14.74-3.43a.1.1,0,0,0-.05-.2Z"/><path class="cls-9" d="M84.31,6.45a36.22,36.22,0,0,0,2.62,3.77c.18.22.54-.07.39-.31a33.65,33.65,0,0,0-2.7-3.7c-.14-.18-.43,0-.31.24Z"/><path class="cls-9" d="M38.22,61.48c-1.35-4.06-8-5-9.39-.46-.64,2.07.72,4,2.54,4.95,2.4,1.21,5.71.68,8-.53.23-.12.14-.54-.13-.5-1.66.19-3.19.88-4.89.86-2,0-4.74-1.15-4.85-3.58s2.52-3.84,4.6-3.39c1.68.36,2.77,1.61,3.91,2.78a.13.13,0,0,0,.22-.13Z"/><path class="cls-9" d="M66,38.79c2-3.18,3.7-6.63,5.46-10a75.34,75.34,0,0,0,4.47-9c.12-.33-.36-.48-.54-.23-2.16,3.07-3.69,6.68-5.42,10-1.54,3-3.16,5.91-4.43,9-.11.27.31.42.46.19Z"/><path class="cls-9" d="M86.84,89Q91.63,105,97.9,120.54c.12.29.61.16.48-.13q-6.27-15.52-11-31.57c-.09-.31-.58-.18-.49.13Z"/><path class="cls-9" d="M81,66.1q2.13,9.62,4.78,19.09a.25.25,0,0,0,.49-.13Q83.59,75.58,81.45,66c-.07-.32-.55-.18-.48.13Z"/><path class="cls-9" d="M74.43,23.26a348.88,348.88,0,0,0,5.72,39c.06.32.54.18.48-.13a348.88,348.88,0,0,1-5.7-38.86c0-.32-.53-.32-.5,0Z"/><path class="cls-9" d="M93.9,120.63a2.16,2.16,0,0,0-.34,2.85,1.94,1.94,0,0,0,2.73.39.12.12,0,0,0-.11-.21,2,2,0,0,1-2.17-.42,1.66,1.66,0,0,1,.24-2.26c.24-.21-.11-.56-.35-.35Z"/><path class="cls-9" d="M100.54,120.17a1.23,1.23,0,0,1,1.62.71c.23.83-.6,1.28-1.27,1.39-.26,0-.2.4,0,.48,1.13.42,2.21-1,1.88-2a1.64,1.64,0,0,0-2.4-.84.17.17,0,0,0,.17.3Z"/><path class="cls-9" d="M93.38,118.61c-2.51.3-3.79,3.59-3.15,5.78a4.84,4.84,0,0,0,6.28,3,.17.17,0,0,0-.09-.32c-2.22.48-4.8-.38-5.6-2.7-.85-2.51.74-4.29,2.59-5.7,0,0,0-.12,0-.11Z"/><path class="cls-9" d="M100.15,118.08a4.31,4.31,0,0,1,3.37,7.92.2.2,0,0,0,.2.34,4.63,4.63,0,0,0-3.64-8.52.14.14,0,0,0,.07.26Z"/><path class="cls-9" d="M97,124.56l-.08.37a0,0,0,0,0,0,0l.1-.36s-.06-.07-.07,0Z"/><path class="cls-9" d="M96.36,125.19a4.72,4.72,0,0,0,5.32-.22c.15-.12,0-.34-.2-.26a5.38,5.38,0,0,1-5,.33c-.1,0-.18.1-.09.15Z"/><path class="cls-9" d="M64.21,23.67c-2.73-.17-5.18,2.58-3.88,5.24a3.82,3.82,0,0,0,6.43.81A4,4,0,0,0,65,23.43a4.19,4.19,0,0,0-5.53,4.43.12.12,0,0,0,.23,0c0-2.38,1.87-4.72,4.44-4.28a3.67,3.67,0,0,1,2.78,5.28,3.54,3.54,0,0,1-5.77.79A3.42,3.42,0,0,1,64.21,24c.21,0,.22-.32,0-.34Z"/><path class="cls-9" d="M63.15,30.73a12.37,12.37,0,0,0,.24,2,.11.11,0,0,0,.21,0,12.57,12.57,0,0,0-.36-2,0,0,0,0,0-.09,0Z"/><path class="cls-9" d="M64.5,31.12c.12.55.22,1.11.39,1.64a.16.16,0,0,0,.31-.09c-.08-.55-.24-1.09-.37-1.64a.17.17,0,0,0-.33.09Z"/><path class="cls-9" d="M62.9,32.87c-1.88,1.65-2.64,5.32-.71,7.25.09.1.23,0,.18-.14-1.14-2.45-1.32-4.85.74-6.91.13-.13-.07-.33-.21-.2Z"/><path class="cls-9" d="M65,32.51a5.16,5.16,0,0,1,4.4,5.88c0,.21.28.3.32.09.55-2.85-1.65-6.13-4.7-6.11-.08,0-.1.13,0,.14Z"/><path class="cls-9" d="M69,35.19q-.42.72-.81,1.44A6,6,0,0,0,67.57,38c0,.09.1.18.17.1a6.26,6.26,0,0,0,.7-1.3c.24-.5.48-1,.71-1.5,0-.07-.07-.13-.11-.06Z"/><path class="cls-9" d="M67.13,33.58c-.88,1.84-1.75,3.68-2.57,5.55-.09.19.19.36.28.16.85-1.86,1.64-3.76,2.43-5.65,0-.08-.1-.13-.14-.06Z"/><path class="cls-9" d="M65.55,33.57a12.17,12.17,0,0,0-3.11,6.29c0,.16.23.18.27,0a19.79,19.79,0,0,1,3-6.24c.06-.07-.06-.16-.12-.09Z"/><path class="cls-9" d="M64.09,33.24c-.74,1.35-1.58,2.69-2.21,4.09-.08.17.15.32.25.15.78-1.33,1.39-2.79,2.07-4.17,0-.08-.07-.14-.11-.07Z"/><path class="cls-9" d="M67,26.2c-.51.75-1,1.54-1.43,2.33a9.87,9.87,0,0,0-1.14,2.12.1.1,0,0,0,.17.1,10,10,0,0,0,1.3-2c.45-.79.92-1.57,1.33-2.39A.13.13,0,0,0,67,26.2Z"/><path class="cls-9" d="M65.81,24.35a17.75,17.75,0,0,0-4,6.82c0,.13.16.21.22.09a35,35,0,0,1,3.92-6.78c.07-.09,0-.22-.13-.13Z"/><path class="cls-9" d="M63.14,24.12C62.1,26,61,28,60.12,30c-.07.17.16.31.25.15,1.08-1.9,1.94-4,2.85-5.93,0-.06,0-.11-.08-.05Z"/><path class="cls-9" d="M64.18,24.35a43.94,43.94,0,0,0-2.92,5.92c0,.12.14.19.21.09a46.67,46.67,0,0,0,3-5.86c.08-.18-.17-.33-.26-.15Z"/><path class="cls-9" d="M66.11,24.84a39.89,39.89,0,0,0-2.79,6.69.09.09,0,0,0,.17.07,38.94,38.94,0,0,0,2.73-6.72c0-.06-.08-.1-.11,0Z"/><path class="cls-9" d="M65.84,33.64a37.59,37.59,0,0,0-3.19,6.61.19.19,0,0,0,.34.15,38,38,0,0,0,3-6.68c0-.11-.13-.18-.19-.08Z"/><path class="cls-9" d="M116.31,15.49l.08-.37s0,0,0,0l-.09.37s0,0,0,0Z"/><path class="cls-9" d="M116,15.15c-4.61,3.58-9.09,6.85-14.75,8.59a.29.29,0,0,0-.17.42l.9,2a.32.32,0,0,0,.31.24c7.25-.72,14.94-3.39,20.24-8.58.16-.16-.06-.46-.25-.32-3.46,2.36-6.7,4.65-10.67,6.12-1.44.54-8.67,3.22-9.29,1.14-.35-1.18,5-3.11,5.69-3.51a34.19,34.19,0,0,0,8.11-6c.07-.08,0-.18-.12-.12Z"/><path class="cls-9" d="M110.61,19.45a8.72,8.72,0,0,0,2.17,1.11,16.14,16.14,0,0,0,2.89,1.12.21.21,0,0,0,.16-.38A16.36,16.36,0,0,0,113,20a9.15,9.15,0,0,0-2.31-.79.15.15,0,0,0-.1.25Z"/><path class="cls-9" d="M113.16,17.11a19.91,19.91,0,0,0,2.17,1.82,6.37,6.37,0,0,0,1.88,1.31.13.13,0,0,0,.14-.19,7.21,7.21,0,0,0-1.92-1.67,17,17,0,0,0-2.08-1.51.15.15,0,0,0-.19.24Z"/><path class="cls-9" d="M89,20.62A1.05,1.05,0,0,0,89.72,22a.2.2,0,0,0,.15,0c.26-.28.53-.57.8-.84a.2.2,0,0,0,0-.21c-.37-.82-1.86-.08-1.36.59a.12.12,0,0,0,.22-.06c0-.39.62-.84.86-.36l0-.2c-.16.18-.5.7-.74.72s-.49-.64-.44-.91a.11.11,0,0,0-.22-.06Z"/><path class="cls-9" d="M95.67,19.46a.51.51,0,0,0-.91.16c-.15.54.7.77,1.08.73,1.56-.16,1.17-2.42-.3-2.3a.22.22,0,0,0-.19.14,6.09,6.09,0,0,0-.25,1.2c0,.15.23.22.29.08a6,6,0,0,0,.34-1.17l-.19.14c.66-.07,1.34.76.78,1.32a1,1,0,0,1-.67.25.65.65,0,0,1-.38-.09l-.14-.09c0-.26.08-.33.3-.23a.14.14,0,0,0,.24-.14Z"/><path class="cls-9" d="M101.16,17.62c-.42-.58-1.17.19-1,.74.18.79,1.28.76,1.77.32a2.09,2.09,0,0,0,.6-1.2c.06-.37-.22-.55-.58-.62A1.17,1.17,0,0,0,100.46,18c0,.16.25.21.29,0a1,1,0,0,1,.73-.73c.13,0,.47-.07.57.06s0,.32,0,.47a1.07,1.07,0,0,1-1.05.86c-.33,0-.66-.3-.47-.66s.37-.28.63-.3c0,0,.06,0,0-.07Z"/><path class="cls-9" d="M91.31,15c1.77-.3,3.54-.64,5.3-1,.2,0,.11-.34-.08-.3-1.76.36-3.51.73-5.26,1.15-.09,0,0,.15,0,.14Z"/><path class="cls-9" d="M85.19,8.21c4.79-.5,9.67-1.09,14.42-2,.08,0,.06-.16,0-.16-4.8.43-9.66,1.15-14.42,1.94a.09.09,0,0,0,0,.18Z"/><path class="cls-9" d="M91.27,5a4.18,4.18,0,0,1,1.11,3.28.11.11,0,0,0,.21,0,3.4,3.4,0,0,0-1.17-3.46.11.11,0,0,0-.15.15Z"/><path class="cls-9" d="M93.25,5a17.5,17.5,0,0,0,1.24,3,.09.09,0,0,0,.16-.07,17.2,17.2,0,0,0-1.27-3,.07.07,0,0,0-.13.06Z"/><path class="cls-9" d="M94.84,4.63a22.7,22.7,0,0,0,1.4,3.85c.05.1.2,0,.17-.08A23.24,23.24,0,0,0,95,4.58c0-.07-.14,0-.12,0Z"/><path class="cls-9" d="M97.1,4.82c.27.55.54,1.11.82,1.66a5.9,5.9,0,0,0,.8,1.43.08.08,0,0,0,.14-.08,6.17,6.17,0,0,0-.71-1.49c-.29-.54-.58-1.08-.88-1.62-.06-.11-.22,0-.17.1Z"/><path class="cls-9" d="M88.06,5.71l.28.45a0,0,0,0,0,0,0l-.28-.46s0,0,0,0Z"/><path class="cls-9" d="M88.28,6.2A35.13,35.13,0,0,0,90,10.11c.06.1.24,0,.2-.08a34.79,34.79,0,0,0-1.81-3.92c-.05-.1-.19,0-.15.09Z"/><path class="cls-9" d="M87.14,7.52a24.83,24.83,0,0,0,1.34,2.62c.07.11.27,0,.22-.1a24.29,24.29,0,0,0-1.29-2.67c-.09-.18-.36,0-.27.15Z"/><path class="cls-9" d="M131.81,41a45.59,45.59,0,0,1,13.11,2.19c.3.1.43-.38.13-.48a45.8,45.8,0,0,0-13.24-2.21.25.25,0,0,0,0,.5Z"/><path class="cls-9" d="M144.5,43.81c-1.4,13.17-10.26,24-18.43,33.79-1.8,2.17-3.62,4.3-5.46,6.42s-4.45,6.32-7.13,7.49c-4.38,1.91-10,0-13.87-2.25a17,17,0,0,1-7.83-8.71c-.12-.29-.6-.16-.48.13,2.19,5.58,6.79,8.88,12.29,10.92,2.7,1,5.85,2.05,8.72,1,3.41-1.21,5.78-5,8-7.56,10.23-11.78,22.93-25,24.66-41.27,0-.32-.47-.32-.5,0Z"/><path class="cls-9" d="M76.52,70.84a39.58,39.58,0,0,1,19.73-2.08c.32,0,.45-.43.14-.48a40.06,40.06,0,0,0-20,2.08c-.3.11-.17.59.13.48Z"/><path class="cls-9" d="M95.86,69.13C94.47,76,92.78,82.85,87,87.41c-5.22,4.11-11.85,5.6-18.38,5.81C55.2,93.66,41,92.11,28.92,86.28c-.29-.14-.54.29-.25.43a53.86,53.86,0,0,0,19.87,5.73c8.29.67,16.86,2.09,25.17.85,5.32-.79,10.72-2.73,14.75-6.4,5.05-4.62,6.58-11.16,7.87-17.63.07-.31-.41-.44-.47-.13Z"/><path class="cls-9" d="M133.06,39.68a.25.25,0,0,0,0-.49.25.25,0,0,0,0,.49Z"/><path class="cls-9" d="M132.19,40.45a13.44,13.44,0,0,0-5.2.48.24.24,0,0,0,.13.47,13.17,13.17,0,0,1,5.07-.45c.31,0,.31-.46,0-.5Z"/></svg>