<?xml version="1.0" encoding="utf-8"?>
<!-- Generator: Adobe Illustrator 25.4.1, SVG Export Plug-In . SVG Version: 6.00 Build 0)  -->
<svg version="1.1" xmlns="http://www.w3.org/2000/svg" xmlns:xlink="http://www.w3.org/1999/xlink" x="0px" y="0px"
	 viewBox="0 0 198.4 114.5" style="enable-background:new 0 0 198.4 114.5;" xml:space="preserve">
<style type="text/css">
	.st0{display:none;}
	.st1{display:inline;fill:#45FFC3;stroke:#FFFFFF;stroke-miterlimit:10;}
	.st2{fill:#FFFFFF;}
	.st3{fill:#EF4875;}
	.st4{fill:#8C5236;}
	.st5{fill:#8C5236;stroke:#8C5236;stroke-width:2;stroke-miterlimit:10;}
	.st6{fill:#8C8E90;}
	.st7{fill:#8C8E90;stroke:#8C8E90;stroke-width:2;stroke-miterlimit:10;}
	.st8{fill:#FAB7A2;}
	.st9{fill:#010101;}
</style>
<g id="Layer_2" class="st0">
	<rect x="-25" y="-22.1" class="st1" width="273" height="156"/>
</g>
<g id="illustration">
	<path class="st2" d="M165.1,97.5l-3.6-0.5l-4.9-2.2l-3.3-3.8l-1.9-3.8l0.4-1.1l0.4-4.1l-0.1-0.4c-0.1-0.2-0.1-0.3-0.2-0.5
		c-0.2,0-0.4-0.2-0.4-0.4c-0.6,0-1.1-0.8-0.4-1.1l0.5-0.2l-0.8-3.2l-1.3-5.4l1.9-7.3c1.7-4.1,3.1-8.4,4-12.8
		c1.5-6.8-1.4-17.7-1.4-17.7l-1.6-2l-2.5-2.7L147,27l-4.4-0.7l-3.4,0.7l-3.4,2.1l-4,0.1l-3.5,1l-3.4,1.8l-5.2,4.4l-6.6,9.7l-2.8,5
		L103,61.6l-6.9,5.2l-6.5,1.7l-1.7,0.3l-4.4-0.3l-3.8,0.7l-4.5-1l-5-1.1L69.3,66l-1.1-0.5l-1.7-3.9l-2.7-3.7c0,0-1.4-1.9-2.8-1.3
		s-1.2,3.7-1.2,3.7l0.2,1.7l-0.2,1.7l-0.8,0.6l-2.2,1.6l-2,1.2l-2.4,1l-1.7,1l-1.3,1.7l0.8,1.4l-1.5,1.9l-0.7,1.4L46,75.8l-0.4,1
		v2.5l0.8,1.5l1.4,0.6l2.1-0.6l2.4-0.7l2.6-0.4l-0.6,2.4l-2.5,2.5l-2.8,1.1c0,0-0.8,1.3,1.7,1.7c-0.9,1-8.9,2.2-8.9,2.2l-5.5,1.1
		l-6.6,1.8l-9.6,0.9l-4.2,1.2l0.1,1.7l0.7,0.8l1.1-0.3V98l-2.9,1.4l-0.8,2.2l0.8,0.2l0.2,0.8l1.7,1.1h2l2.3,0.1l2.9-0.1l5.1-1.1
		l3,0.3l6.2,0.2h7.5l11-0.2l6.1-0.1l4.3-1.6l11-0.5l3.7-1.5l1,0.6l5.7,1.1l8.8,0.1c7.6-0.6,17.1-5.6,17.1-5.6s0,2.8,1.7,3.8
		c4.7,4.2,14.8,4.3,14.8,4.3l1.2,0.3l1.1,1.4l2,0.1l2.2-0.1l3-0.1l2.4-1.1l0.6-1.9l1.4-2.2l3.2-6l3.4,4.2l4.9,4l3.2,1.3l4.8,0.4
		l2.6-0.8l0.4-2.5L165.1,97.5z M125.9,91.4l-3.2-1l5.3-3.6L125.9,91.4z M137.3,97.6l-5.1-0.9l5.7-7L137.3,97.6z"/>
	<polygon class="st3" points="50.8,80.8 50.2,82.7 49.2,85 49.8,85.5 52.2,84.3 54.2,82.2 54.8,79.8 53,79.9 51.4,80.6 	"/>
	<path class="st4" d="M95.6,67.7c1.7,3.4,5.5,5.1,9.2,4.3c1.9-0.5,3.5-1.5,4.8-3c2.5-2.8,5.4-5.3,8.5-7.5c7.1-4.9,7.9-17-1.6-19.8
		c-0.4-0.1-0.8,0.2-0.9,0.6c-0.1,0.3,0.1,0.6,0.3,0.8c4,2.5,7.2,6,6.2,11.2c-0.9,4.5-4.7,6-7.9,8.5c-2.1,1.6-3.4,3.6-5.2,5.4
		c-4,4-9.3,3.1-12.6-1.1C96,66.8,95.5,67.3,95.6,67.7L95.6,67.7z"/>
	<path class="st4" d="M115.2,43c-4.3,9.6-10.7,18.2-18.7,25c-0.3,0.3,0.1,0.9,0.5,0.6c8.7-6.4,15.2-15.3,18.9-25.4
		C116,42.8,115.4,42.5,115.2,43L115.2,43z"/>
	<path class="st4" d="M97.2,67.4"/>
	<path class="st4" d="M97,67.9c0.4,0,0.8-0.1,1.2-0.1c0.4,0,0.7-0.2,0.9-0.5c0.2-0.3,0.1-0.6-0.2-0.8c0,0-0.1,0-0.1-0.1
		c-0.8-0.2-1.3,0.5-2,0.9c-0.2,0.1-0.2,0.3-0.1,0.5C96.7,67.9,96.8,68,97,67.9L97,67.9z"/>
	<path class="st4" d="M97.5,68.3c1.9,3.1,5.1,3.9,8.1,2c2.4-1.8,4.7-3.6,6.8-5.7c2.4-2,5.1-3.8,7-6.3c0.3-0.4-0.3-0.9-0.7-0.7
		c-3.2,1.6-6,4.4-8.7,6.7c-1.5,1.2-3.1,3.1-4.8,4c-3.6,1.8-4.7,0.6-7.5-0.3C97.7,68.1,97.5,68.2,97.5,68.3
		C97.5,68.3,97.5,68.4,97.5,68.3L97.5,68.3z"/>
	<path class="st4" d="M108.2,68.1c1.2-1.1,2.3-2.3,3.4-3.4c1.1-0.9,2.2-2,3.1-3.1c0.1-0.2-0.1-0.4-0.3-0.3c-1.4,0.8-2.6,1.8-3.6,2.9
		c-1.1,1.1-2.2,2.2-3.1,3.5C107.6,68,108,68.3,108.2,68.1z"/>
	<path class="st4" d="M107.6,68.9c1.3-0.4,2.2-1.8,3.1-2.8c1-1,1.9-2.2,2.5-3.6c0.1-0.2,0-0.4-0.2-0.4c-0.1,0-0.2,0-0.3,0
		c-1.3,0.9-2.4,2-3.3,3.3c-0.8,1-1.9,2-2,3.3C107.4,68.9,107.5,69,107.6,68.9L107.6,68.9z"/>
	<path class="st4" d="M120,58c4.1-4.8,1.3-12.1-3.4-15.2c-1.2-0.8-2.5,1.3-1.2,2c2.2,1.1,3.9,3,4.8,5.3c0.8,2.6,0.1,5-0.7,7.5
		c0,0.2,0.1,0.4,0.3,0.4C119.8,58.1,119.9,58.1,120,58z"/>
	<path class="st4" d="M119.2,59.3c1.2-0.6,1.7-2.7,1.8-3.9c0-0.2-0.1-0.4-0.3-0.5c-0.8-0.5-0.9,0.8-1,1.2c-0.4,0.9-0.7,1.9-1,2.9
		C118.8,59.3,119.1,59.4,119.2,59.3L119.2,59.3z"/>
	<path class="st5" d="M120.1,51.7c-0.9,2.5-2.1,4.8-3.7,6.8l1.9,1.1c1.9-2.9,2.8-6.3,2.7-9.7c0-0.6-0.5-1.1-1.1-1
		c-0.5,0-0.8,0.3-1,0.7c-0.9,3.8-2.6,7.3-5,10.3l1.9,1.1c2.6-3.7,4.2-8,4.4-12.5c0-0.6-0.4-1-1-1c-0.4,0-0.7,0.2-0.9,0.5
		c-2.4,4.7-5.1,9.3-7.6,14l2,1.2c1.9-4.2,4.7-8.5,6-12.8c0.5-1.6,0.5-2.6-0.9-3.5c-0.4-0.2-0.8-0.2-1.1,0c-2.7,1.4-3.6,6.2-4.7,8.8
		c-2.3,5.5-6,12.4-13.3,11.4c-1.6-0.2-2.2,2.2-0.7,2.4c6.3,0.8,11.1-2.8,14-8.2c1.9-3.6,3.6-7.4,4.9-11.3c0.7-2-0.9,1.4-1.2,1.8
		c-0.6,1-1,2.1-1.5,3.2c-1.1,2.4-2.3,4.7-3.4,7.1c-0.7,1.4,1.3,2.6,2,1.2c2.5-4.7,4.7-9.5,7.2-14.2l-1.8-0.5
		c-0.2,4-1.7,7.9-4.2,11.1c-0.4,0.4-0.4,1.2,0.1,1.6c0.4,0.4,1.2,0.4,1.6-0.1c0-0.1,0.1-0.1,0.1-0.2c2.5-3.2,4.2-6.9,5.1-10.9
		l-2.1-0.3c0.1,3.1-0.7,6.1-2.4,8.6c-0.8,1.2,1.1,2.2,1.9,1.1c1.6-2.2,2.7-4.8,3.1-7.6c0.1-0.3-0.2-0.7-0.5-0.8
		C120.5,51.2,120.2,51.4,120.1,51.7z"/>
	<path class="st4" d="M101.1,67.3c7.2-3.1,14.4-13.8,16.1-21.3c0.2-0.5,0-1.1-0.5-1.3s-1.1,0-1.3,0.5l0,0c-2.2,3.8-3.8,7.9-6.4,11.5
		s-6,6.3-8.5,9.9C100.1,67.1,100.7,67.5,101.1,67.3z"/>
	<path class="st4" d="M99.8,67.8c2.6-0.8,5-2.1,7.1-3.8c1-0.9-0.3-2.7-1.4-1.9c-2.1,1.5-4,3.2-6.2,4.6C98.7,67,99.1,68,99.8,67.8z"
		/>
	<path class="st4" d="M105.3,67.3c1.2-0.9,2.5-1.7,3.6-2.7s2.6-1.7,3.1-3.1c0.1-0.6-0.2-1.1-0.8-1.3c-0.2,0-0.4,0-0.5,0
		c-1.3,0.4-2.1,1.9-3.1,2.9s-1.9,2.4-2.9,3.6C104.6,67,105,67.5,105.3,67.3z"/>
	<path class="st4" d="M51.9,68.6c0.7,3,4.5,0.5,5.9,0c1.2-0.5,2.8-0.6,3.6-1.8c0.6-0.7,0.6-1.8-0.1-2.4c-0.2-0.2-0.4,0-0.3,0.3
		c1,2.2-2.2,3.1-3.6,3.8c-1.8,1-3.4,1.3-5.1-0.1c-0.1-0.1-0.3-0.1-0.4,0C51.9,68.5,51.8,68.6,51.9,68.6L51.9,68.6z"/>
	<path class="st4" d="M149.6,38c-1.6,3-4,5.6-6.9,7.5c-1,0.6-2.5,1-3.2,1.9c-0.5,0.6-0.6,1.3-0.5,2.1c0,0.4,0.4,0.8,0.5,1.1
		c0.3,1.6,0,3.2,0.2,4.6c0.6,4.3,5,13.3,10.5,9.7c0.2-0.1,0.2-0.3,0.1-0.5c-0.1-0.2-0.3-0.2-0.5-0.1c-4.1,2-6.2-2.5-7.3-5
		c-1-2.3-0.7-4.5-1.2-6.7c-0.4-1.5-1.1-2.2-0.7-3.8c0.5-2.4,3.3-2.7,5.2-4.2c2-1.6,3.6-3.7,4.6-6c0.1-0.2,0.1-0.5-0.2-0.6
		S149.7,37.8,149.6,38L149.6,38z"/>
	<path class="st4" d="M149.5,38.8c1,8.5,0.9,17-0.4,25.5c-0.1,0.7,0.8,1,1,0.3c2-8.5,2.1-17.3,0.3-25.9
		C150.3,38.2,149.5,38.3,149.5,38.8L149.5,38.8z"/>
	<path class="st4" d="M147.4,64.3c-0.7-2.8-1.8-5.5-2.4-8.4s-0.9-5.8-1.4-8.7c-0.2-1.3-2.3-1-2.3,0.3c0.1,6.1,2,12,5.4,17.1
		c0.1,0.2,0.4,0.2,0.6,0.1C147.4,64.6,147.4,64.4,147.4,64.3z"/>
	<path class="st4" d="M140,48.4c-0.2,2.9,2.6,20.1,8.1,16.1c0.4-0.3,0.3-1-0.3-1c-5.4,0.4-5.9-11.6-7.2-15.2
		c-0.1-0.2-0.3-0.3-0.4-0.2C140.1,48.1,140,48.3,140,48.4L140,48.4z"/>
	<path class="st4" d="M150.2,63.8c1.8-7.3,1.6-15-0.5-22.2c-0.3-0.8-1.6-0.7-1.6,0.2c0.2,3.7,0.9,7.2,1.1,10.9s0,7.3,0.3,11
		c0,0.2,0.2,0.3,0.3,0.3C150,64,150.1,64,150.2,63.8L150.2,63.8z"/>
	<path class="st4" d="M149.1,41.3c-1.5,0.5-2.8,1.8-4,2.8c-1.7,1.3-3.4,2.6-5.2,3.7c-0.8,0.5-0.1,1.8,0.8,1.3c1.7-1.1,3.4-2.3,5-3.5
		c1.4-1.1,3.1-2.2,3.8-3.9c0-0.2-0.1-0.3-0.2-0.3C149.2,41.3,149.2,41.3,149.1,41.3L149.1,41.3z"/>
	<path class="st4" d="M149.3,40.6c-1.4,1.5-2,3.6-2.9,5.5c-1.1,2.1-2.2,4.1-3.4,6.2c-0.2,0.4-0.1,0.9,0.3,1.1
		c0.4,0.2,0.9,0.1,1.1-0.3c1.3-2.1,2.5-4.3,3.5-6.6c0.8-1.8,1.8-3.7,1.8-5.7c0-0.1-0.1-0.3-0.3-0.2
		C149.4,40.6,149.3,40.6,149.3,40.6z"/>
	<path class="st4" d="M146.4,45.2c-1,0.3-1.9,1-2.4,1.9c-0.6,0.8-1.4,2-1.2,3c0.1,0.4,0.5,0.6,0.9,0.5c0.1,0,0.2-0.1,0.3-0.2
		c0.6-0.7,0.8-1.8,1.3-2.6c0.6-0.7,1-1.5,1.4-2.3c0-0.2-0.1-0.3-0.2-0.3C146.5,45.2,146.5,45.2,146.4,45.2L146.4,45.2z"/>
	<path class="st4" d="M148,46.7c-1.4,2.1-2.9,4.1-4.6,5.9c-0.8,0.8,0.5,2.1,1.3,1.3c1.9-1.9,3.3-4.3,4-6.9c0-0.2-0.1-0.4-0.3-0.5
		C148.2,46.5,148.1,46.6,148,46.7L148,46.7z"/>
	<path class="st4" d="M148.3,48.2c-0.7,1.1-1.4,2.2-2.1,3.3c-0.8,0.9-1.6,1.9-2.2,3c-0.3,0.6,0.6,1.1,1,0.8c1.1-0.8,1.9-1.8,2.5-3
		c0.7-1.2,1.1-2.5,1.4-3.9c0-0.2-0.1-0.3-0.2-0.4C148.5,48.1,148.3,48.1,148.3,48.2L148.3,48.2z"/>
	<path class="st4" d="M148.2,50.7c-1.1,1.9-2.4,3.7-3.8,5.4c-0.3,0.3-0.3,0.9,0,1.2c0.3,0.3,0.9,0.3,1.2,0c1.8-1.7,3-4,3.2-6.5
		c0-0.2-0.2-0.3-0.3-0.3C148.4,50.5,148.3,50.6,148.2,50.7z"/>
	<path class="st4" d="M148.3,53c-0.6,0.8-1.1,1.6-1.5,2.6c-0.5,1-1.2,1.8-1.8,2.8c-0.2,0.4,0,0.8,0.3,1c0.3,0.1,0.6,0.1,0.8-0.1
		c1.4-1.4,2.9-4.1,2.6-6.1C148.9,53,148.5,52.8,148.3,53L148.3,53z"/>
	<path class="st4" d="M148.6,54.9c-0.3,0.6-0.6,1.3-0.9,2c-0.4,0.7-0.8,1.3-1.4,1.9c-0.8,0.8,0.5,2.1,1.2,1.2c1.1-1.2,2.4-3.3,1.8-5
		c-0.1-0.2-0.3-0.3-0.5-0.3C148.7,54.8,148.7,54.8,148.6,54.9L148.6,54.9z"/>
	<path class="st4" d="M148.9,57.1c-0.7,0.6-1.2,1.3-1.7,2c-0.6,0.7-1.1,1.5-1.4,2.3c-0.1,0.5,0.5,1.2,1,0.8c0.7-0.6,1.2-1.4,1.6-2.2
		c0.5-0.8,0.9-1.7,1.1-2.6c0.1-0.2-0.1-0.4-0.3-0.5C149.1,56.9,149,57,148.9,57.1L148.9,57.1z"/>
	<path class="st4" d="M148.1,60.3c-0.4,0.9-0.9,2.2-0.6,3.2c0.1,0.5,0.6,0.7,1.1,0.6c0.2-0.1,0.4-0.2,0.5-0.4c0.5-1,0.2-2.4-0.1-3.4
		c-0.1-0.3-0.3-0.4-0.6-0.3C148.3,60,148.2,60.2,148.1,60.3z"/>
	<path class="st4" d="M149.4,60.8c0.9-1.3,0.8-3.4,0.8-4.9c0-1.6-0.1-3.5-1.1-4.8c-0.7-0.9-2.1,0.2-1.5,1.2c0.1,0.1,0.2,0.3,0.4,0.3
		l-0.4-1.1c-0.3,1.5,0.4,3.1,0.6,4.6s0.1,3.3,0.8,4.7C149.1,60.9,149.2,60.9,149.4,60.8C149.4,60.8,149.4,60.8,149.4,60.8z"/>
	<path class="st4" d="M147.4,62.5c0.5,0.2,1,0.3,1.6,0.2c0.4,0,0.7-0.3,0.8-0.8c0-0.4-0.3-0.8-0.8-0.8l0,0c-0.6,0.1-1.1,0.3-1.6,0.6
		c-0.2,0.1-0.2,0.3-0.1,0.5C147.3,62.4,147.4,62.4,147.4,62.5z"/>
	<path class="st4" d="M130.7,74c0.9-0.4,1.6-1.1,2.5-1.4c1.3-0.7,3-0.2,3.7,1.1c0.1,0.1,0.1,0.2,0.2,0.4c0.9,2.2-0.3,4.5-1.3,6.4
		c-0.1,0.2-0.1,0.5,0.2,0.7c0.2,0.1,0.5,0.1,0.7-0.2l0,0c1.4-2.6,3-5.9,0.8-8.5c-2-2.5-5.4-1.1-7,1.2
		C130.1,73.8,130.5,74.1,130.7,74L130.7,74z"/>
	<path class="st4" d="M136.4,79.9c-0.7-0.2-1.4-0.3-2.1-0.4s-1.2-0.3-1.7,0c-0.2,0.1-0.3,0.4-0.2,0.6c0,0,0,0.1,0.1,0.1
		c0.4,0.5,1.1,0.4,1.7,0.5s1.4,0.1,2.1,0.1c0.2,0,0.5-0.2,0.5-0.4C136.8,80.1,136.6,79.9,136.4,79.9L136.4,79.9z"/>
	<path class="st4" d="M133,79.9c0-1-0.2-2-0.4-2.9c-0.2-1.1-0.5-2.2-0.9-3.2c-0.1-0.3-0.5-0.5-0.8-0.3c-0.3,0.1-0.4,0.4-0.4,0.7
		c0.2,1.1,0.5,2.2,0.9,3.2c0.3,0.9,0.6,1.8,1.1,2.7c0.1,0.1,0.3,0.2,0.4,0.1C133,80,133,79.9,133,79.9L133,79.9z"/>
	<path class="st4" d="M131.7,73.4c-0.6,2,0.6,4.5,1.5,6.2c0.3,0.6,1.2,0.3,1.2-0.3c0.1-2.1,0-4.2-0.4-6.3l-1.4,0.4
		c0.6,2,1.3,4,1.9,5.9c0.1,0.4,0.6,0.6,1,0.5c0.3-0.1,0.5-0.4,0.5-0.7c0-1.7,1-3.3,0.4-5c-0.3-1.3-1.6-2.1-2.9-1.9
		c-0.8,0.2-0.9,1.6,0,1.7c2.4,0.5,0.9,3.5,0.9,5.1l1.5-0.2c-0.6-2-1.3-4-2-5.9c-0.1-0.4-0.6-0.6-1-0.4c-0.3,0.1-0.5,0.5-0.5,0.8
		c0.4,1.9,0.6,3.9,0.5,5.9l1.2-0.3c-0.5-1-0.9-2-1.2-3c-0.2-0.9-0.4-1.7-0.8-2.6c-0.1-0.2-0.3-0.2-0.5-0.1
		C131.7,73.3,131.7,73.4,131.7,73.4L131.7,73.4z"/>
	<path class="st4" d="M134.7,72.7c0.5,0.8,1,1.7,1.3,2.6c0.3,1.1,0.1,2.2-0.4,3.2c-0.2,0.4,0,0.8,0.4,1c0.3,0.1,0.7,0,0.9-0.2
		c1.3-2.1,0.8-6.3-1.9-7c-0.2,0-0.4,0.1-0.4,0.3C134.6,72.5,134.6,72.6,134.7,72.7L134.7,72.7z"/>
	<path class="st4" d="M147.4,71.8c-0.4,2-1.3,4.2-1.1,6.3c0.3,2.3,2,3.3,4.2,3.4c1.3,0.1,1.3-1.9,0-2c-3.8-0.2-1.7-4.8-1.2-7.2
		C149.6,71.1,147.6,70.6,147.4,71.8z"/>
	<path class="st4" d="M151.4,78.8l-2.3-5.9c-0.5-1.2-2.4-0.7-1.9,0.5l2.3,5.9C149.9,80.5,151.9,80,151.4,78.8z"/>
	<path class="st4" d="M148.4,74.4c-1.2,1.3-1.3,3.2-0.3,4.7c0.2,0.3,0.5,0.4,0.8,0.3c0.1,0,0.2-0.1,0.3-0.2c0.2-0.2,0.3-0.6,0.1-0.8
		c-0.6-1.2-0.7-2.5-0.4-3.8C148.9,74.4,148.6,74.3,148.4,74.4L148.4,74.4z"/>
	<path class="st4" d="M148.2,77c0.1,0.7,0.5,1.7,1.3,1.9c0.5,0.1,0.9-0.5,0.5-0.8s-0.8-0.6-1.1-1.1C148.8,76.5,148.1,76.5,148.2,77z
		"/>
	<path class="st4" d="M148.5,72.5c0,0.4,0,0.9,0.2,1.3c0,0.4,0.2,0.8,0.5,1.2c0.1,0.1,0.4,0.1,0.5,0c0.8-0.8,0.2-2.5-0.8-2.8
		C148.7,72.2,148.5,72.3,148.5,72.5C148.5,72.5,148.5,72.5,148.5,72.5z"/>
	<path class="st4" d="M148.5,79.2c0.5,0.6,1.2,0.9,2,0.9c0.8,0,0.8-1.2,0-1.2c-0.5,0-1.1-0.2-1.6-0.4
		C148.5,78.3,148.3,78.9,148.5,79.2L148.5,79.2z"/>
	<path class="st4" d="M45.6,102.7c1.2-2,4.7-9.1,0.3-9.7c-0.6-0.1-0.7,1,0,1c2.3-0.1,1.6,2.4,1.3,3.3c-0.2,0.5-0.5,1-0.7,1.5
		c-0.6,1.2-1,2.4-1.3,3.7c0,0.1,0,0.2,0.1,0.2C45.5,102.8,45.6,102.8,45.6,102.7L45.6,102.7z"/>
	<path class="st4" d="M48.7,92.6c1.7,3.3,2,6.4-0.5,9.4c-0.1,0.1-0.1,0.3,0.1,0.4c0.1,0.1,0.2,0.1,0.3,0c3-2.4,3.8-7.5,0.7-10.2
		c-0.1-0.1-0.3-0.1-0.5,0C48.7,92.3,48.7,92.4,48.7,92.6z"/>
	<path class="st4" d="M34.1,92.3c0.3,0.4,0.7,0.7,1,1.2c0.3,0.5,0.6,1,0.7,1.5c0.1,0.3,0.4,0.4,0.7,0.3c0.2-0.1,0.4-0.3,0.3-0.6
		c0-1.2-1.3-2.8-2.5-2.7c-0.1,0-0.2,0.1-0.2,0.2C34,92.2,34,92.3,34.1,92.3L34.1,92.3z"/>
	<path class="st4" d="M36.3,91.4c0.6,0.4,1.1,0.9,1.5,1.5c0.2,0.3,0.3,0.6,0.4,0.9c0.1,0.3,0.1,0.6,0.3,0.8c0.1,0.1,0.3,0.1,0.4,0
		c0.5-0.6,0-1.7-0.4-2.3c-0.4-0.8-1.2-1.3-2-1.5c-0.2,0-0.3,0.2-0.3,0.3C36.2,91.3,36.3,91.3,36.3,91.4L36.3,91.4z"/>
	<path class="st6" d="M93,84.9c2.3-0.8,4.6-1.7,6.7-2.9c1.4-0.7,2.8-1.3,4.2-2l1.2-0.6c2-1.6,2.8-0.8,2.5,2.3
		c-0.6,0.4-1.1,0.8-1.7,1.3c-0.8,0.7-1.5,1.5-2.2,2.3c-0.7,0.8-1.4,1.6-2.2,2.3c-0.9,0.9-2,1.5-3.2,1.8c-3.2,0.6-4.3-0.9-3.3-4.4
		c0.6-0.5-0.3-1.3-0.8-0.8c-1.5,1.4-1.7,3.7-0.3,5.3c0.5,0.6,1.2,1,1.9,1.1c5,1.5,7.9-4,10.9-6.7c1.2-1,3.2-1.8,3.6-3.6
		c0.4-1.1-0.2-2.3-1.3-2.7c-0.1,0-0.1,0-0.2-0.1c-1.8-0.5-3.9,1-5.4,1.7c-3.6,1.7-7.4,3-10.7,5.2C92.6,84.6,92.8,84.9,93,84.9
		L93,84.9z"/>
	<path class="st7" d="M94.9,83.7c-1.1,3,0.6,6.6,4.2,5.3c3.8-1.3,7.1-5.5,9.4-8.6c0.5-0.7-0.3-1.6-1.1-1.4c-3,0.7-5.9,1.8-8.7,3.3
		c-1.5,0.8-3.8,1.8-3.6,3.9c0.4,5.5,8-1.4,9.2-2.7c0.5-0.5,0.5-1.4-0.1-1.9c-0.4-0.4-1-0.5-1.5-0.2c-1.8,0.9-3.7,2-4.7,3.8
		c-0.2,0.4-0.1,1,0.4,1.2c0.3,0.1,0.6,0.1,0.8,0c1.7-0.7,3.1-1.9,4.8-2.7l-1.6-2.1c-0.9,1-1.9,1.9-2.9,2.7c-0.4,0.3-1.9,1-2,1.5
		c0.1-0.7,1.3-1.2,1.8-1.5c2.7-1.5,5.5-2.7,8.5-3.5l-1.1-1.4c-1.4,1.9-2.9,3.7-4.7,5.3c-0.8,0.8-1.9,2-3,2.4c-1.2,1-2.4,0.4-3.5-1.6
		c0-0.6,0-1.2,0-1.7c0-0.2-0.2-0.4-0.4-0.4C95.1,83.4,94.9,83.5,94.9,83.7L94.9,83.7z"/>
	<path class="st6" d="M94.7,88.1c-0.1,0.2-0.1,0.4-0.1,0.5c0,0.2,0.1,0.4,0.2,0.5c0.2,0.3,0.5,0.6,0.9,0.8c0.9,0.4,1.9,0.2,2.6-0.4
		c0.9-1-0.5-2.4-1.5-1.5c-0.2,0.2-0.4,0.3-0.7,0.3c-0.2,0-0.8-0.1-0.9-0.3c-0.1-0.1-0.2-0.1-0.3,0C94.7,88,94.7,88,94.7,88.1z"/>
	<path class="st6" d="M76.5,101c1.1-8.4,14.5-8.9,16.3-0.7c0.1,0.6,1.1,0.4,1-0.1C93,90.2,75,91.6,76,101c0,0.1,0.1,0.2,0.2,0.2
		C76.4,101.2,76.5,101.1,76.5,101L76.5,101z"/>
	<path class="st6" d="M93.7,100.1c-1.4-0.2-2.8-0.2-4.2-0.2c-2.4-0.2-4.6-1.3-6.9-1.6c-2-0.5-4,0.2-5.3,1.8
		c-0.5,0.6,0.4,1.5,0.9,0.9c2.6-3.1,6.9-0.3,10.1,0.1c1.9,0.3,3.8,0.4,5.5-0.6c0.1,0,0.1-0.2,0.1-0.3
		C93.8,100.1,93.8,100.1,93.7,100.1L93.7,100.1z"/>
	<path class="st6" d="M77.5,99.5c2.3-2,4.4-3.8,7.7-3.5c2.8,0.2,4.2,2,6.3,3.4c0.3,0.1,0.6,0,0.8-0.2c0.1-0.1,0.1-0.3,0.1-0.4
		c-2.2-6.3-13.2-5.4-15.5,0.4C76.8,99.5,77.3,99.7,77.5,99.5z"/>
	<path class="st6" d="M92.2,99.3c-1.5-1.3-3.6-1.6-5.4-2.1s-4-1.3-6-1c-0.9,0.2-0.9,1.4-0.2,1.8c1.6,1.2,4,1.3,6,1.7
		c1.8,0.3,3.7,0.9,5.4,0.4c0.3-0.1,0.4-0.4,0.4-0.7C92.3,99.4,92.3,99.3,92.2,99.3L92.2,99.3z"/>
	<path class="st6" d="M77.4,99.3c-0.3-0.1-0.6-0.1-0.8-0.1L77,100C77.2,99.8,77.3,99.5,77.4,99.3c-0.1-0.3-0.2-0.6-0.5-0.5
		c-0.3,0.1-0.6,0.3-0.8,0.5c-0.2,0.2-0.2,0.6,0,0.8c0.1,0.1,0.2,0.2,0.4,0.2c0.3,0.1,0.6,0.1,0.8,0c0.3-0.1,0.4-0.4,0.3-0.6
		C77.6,99.5,77.5,99.4,77.4,99.3L77.4,99.3z"/>
	<path class="st6" d="M78.2,99c2.5-2.8,6.6-3.6,9.9-1.9c0.3,0.2,0.7,0.1,0.9-0.2s0.1-0.7-0.2-0.9c-3.8-2.2-8.6-1-10.9,2.7
		c-0.1,0.1,0,0.2,0.1,0.3C78,99.1,78.1,99.1,78.2,99L78.2,99z"/>
	<path class="st6" d="M85.3,96.6c0.7,0.4,1.6,0.7,2.4,0.9c0.7,0.1,1.6,0.2,2-0.4c0.1-0.2,0.1-0.3-0.1-0.5c-0.4-0.5-1.2-0.3-1.7-0.3
		c-0.8,0-1.6-0.2-2.3-0.4c-0.2,0-0.4,0.1-0.5,0.3C85,96.4,85.1,96.5,85.3,96.6L85.3,96.6z"/>
	<path class="st6" d="M78.3,99.2c0.8,0,1.7-0.3,2.4-0.7c0.6-0.3,1.6-0.9,1.7-1.7c0.1-0.2-0.1-0.5-0.3-0.5c-0.1,0-0.1,0-0.2,0
		c-0.7,0.2-1.2,0.9-1.7,1.3c-0.6,0.4-1.3,0.8-2,1.2c-0.1,0-0.1,0.2-0.1,0.3C78.1,99.1,78.2,99.2,78.3,99.2L78.3,99.2z"/>
	<path class="st6" d="M129,30.7c2.2,0.9,1.4,3.3,2.1,4.9c0.4,0.9,1.2,1.6,2.1,2c2,0.8,4.3,0.8,6.3-0.1c3.8-1.7,5.7-7.8,1.6-10.4
		c-0.5-0.3-1,0.4-0.6,0.8c1.9,2.2,0.9,3.3-1.3,5.7c-1.9,1.9-0.9-3.4-3.4-4.5c-2.6-1.3-3.2,1-6.7,0.8C128.6,29.9,128.6,30.5,129,30.7
		L129,30.7z"/>
	<path class="st4" d="M140,48.4l9-8.6c0,0,2,2.4,2.9,7.2s-0.9,16.1-0.9,16.1s-1.8,1.3-3.1,1.4s-5.2-2.7-5.3-3.2s-2.3-6-2.4-6.5
		c-0.1-0.5-0.6-6.2-0.6-6.2"/>
	<path class="st4" d="M115.1,42.1c0,0,5.6,4.8,6.5,6.8c0.8,2,0.5,6.5,0.4,7.4c-0.1,0.9-2.4,2-3.1,2.9c-0.7,0.9-6.2,4.6-6.9,5.4
		c-0.7,0.8-3.1,4.9-3.6,5.2c-0.4,0.3-3.8,1.2-5.4,1.3c-1.6,0.1-4.9-1.5-5.7-2.4c-0.8-0.9-1.5-1.7-1.5-1.7s4.8-2.6,6.4-4.5
		c1.6-1.9,5.9-7.8,5.9-7.8s3.6-6.5,3.6-6.8c0-0.4,2.2-4.4,2.2-4.4L115.1,42.1z"/>
	<path class="st4" d="M130.5,74.1c0,0,1.1-2.5,3.6-2.5c2.4,0,3.9,2,3.7,3.1c-0.2,1.2-1.1,5.6-1.1,5.6l-0.9,0.7l-3.4-0.9
		c0,0-1.5-1.9-1.7-2.7C130.5,76.6,130.5,74.1,130.5,74.1z"/>
	<path class="st6" d="M76.5,101c0,0-0.1-6.3,6.4-7.1s7.4,1.2,7.7,1.9c0.4,0.7,2.8,5.2,2.8,5.2s-7.7-0.7-8.5-0.7
		c-0.9,0-6.4,0.6-6.7,0.5S76.5,101,76.5,101z"/>
	<path class="st6" d="M153.6,91.8c0,0-0.5,5.1,0.2,5.6c0.6,0.5,1.4,1.5,3,2.2c1.6,0.7,4.2,1,4.9,0.8s3.5,0.2,3.5,0.2
		s1.7-0.5,1.6-0.7c-0.1-0.2-0.2-0.8-1.3-1.1s-2.9-1.7-3.9-1.4c-1.1,0.3-2.4,0-3.6-0.6c-1.2-0.6-2.1-0.4-2.7-1.5
		c-0.7-1-1.2-1.1-1.5-2S153.6,91.8,153.6,91.8z"/>
	<path class="st6" d="M129.9,30.1c3.1,1.2,8,1.1,10.6-1.2c0.3-0.3,0-0.7-0.4-0.6c-1.7,0.4-3.2,1.2-5,1.5c-1.7,0.2-3.5,0.1-5.2-0.1
		C129.6,29.6,129.6,30,129.9,30.1L129.9,30.1z"/>
	<path class="st6" d="M139.6,27.7c0.7,1.9,1.4,3.8-0.2,5.5c-1.4,1.6-3,1.3-4.8,1.1c-0.6-0.1-0.6,0.7-0.3,1c1.9,1.4,5,0.2,6.2-1.5
		s1.4-5-0.6-6.3c-0.1-0.1-0.3,0-0.4,0.1C139.5,27.6,139.5,27.6,139.6,27.7L139.6,27.7z"/>
	<path class="st6" d="M131.7,31.5c1.5,0.5,0.4,3.6,1.2,4.8c0.6,0.8,1.5,1.3,2.5,1.4c2.7,0.3,5.4-2.2,6.3-4.6c0.8-1.9-0.6-5-3.1-4.2
		c-0.9,0.4-1.5,1.2-1.7,2.2c-0.1,0.5-0.1,0.9-0.3,1.4l-0.1,0.6l-1.3,0.1c-0.2-0.5,1.9-2.1,2.3-2.5l-1.4-0.6c0,1.2,0.3,2.7,1.7,3
		c0.8,0.2,1.7-0.2,1.9-1.1c0-0.1,0.1-0.2,0.1-0.4c-0.1-1-0.9-1.7-1.9-1.6c-0.1,0-0.1,0-0.2,0c-2.1,0.3-1.6,2.8-3,3.8l1.2,0.5
		c-0.2-1.1,0.1-2.2,0.8-3c0.6-0.8-0.7-1.8-1.3-1c-0.7,0.8-1,1.8-1,2.8c0,0.5,0.4,0.8,0.8,0.8c0.1,0,0.3,0,0.4-0.1
		c0.6-0.4,1-0.9,1.2-1.6c0.2-0.4,0.1-1.1-0.5-1.2c-0.4-0.1-0.8-0.1-1.2,0.1c-0.4,0.1-1,0.8-1.4,0.9c-0.6,0-0.7-0.7-1.1-1
		c-0.3-0.3-0.8-0.5-1.3-0.5c-0.4,0-0.7,0.3-0.7,0.7l0.4,3.4c0.1,0.9,1.5,1,1.5,0s0-1.8,0-2.8c0-0.4-0.3-0.7-0.7-0.7
		s-0.7,0.3-0.7,0.7c0,0.9,0,1.8,0,2.8h1.5l-0.4-3.4l-0.7,0.7c0.7,0,1,1.7,2.1,1.8s1.7-1.2,2.5-1.1l-0.5-1.2l-0.8,1l1.2,0.7l0.6-1.6
		l-1.3-1c-0.9,1.2-1.3,2.8-1,4.3c0.1,0.4,0.6,0.7,1,0.6c0.1,0,0.1,0,0.2-0.1c1.5-1.1,2.2-3.4,2.2-5.2c0-0.4-0.4-0.8-0.8-0.8
		c-0.2,0-0.4,0.1-0.5,0.2c-1.2,1.3-4.1,3.2-2.3,5.3c1.1,1.4,3,0.4,3.6-0.9c0.3-0.7,0.2-1.6,0.5-2.3c0.1-0.8,0.6-1.1,1.7-1
		c0.5,0.8,0.4,1.8-0.1,2.6c-0.9,1.5-2.8,3.4-4.6,2.9c-2.3-0.7-1-2.7-1.6-4.3c-0.2-0.8-1-1.3-1.8-1.3c-0.2,0-0.4,0.2-0.4,0.4
		C131.3,31.3,131.4,31.5,131.7,31.5L131.7,31.5z"/>
	<path class="st6" d="M137.1,34c0.2,0.7,1,0.5,1.5,0.2c0.6-0.4,1-1,1-1.7c0-0.4-0.3-0.6-0.6-0.7c-0.1,0-0.3,0-0.4,0.1
		c-0.6,0.3-1.1,0.6-1.6,1l1,0.7c0.2-0.2,0.3-0.4,0.4-0.7c0.1-0.2-0.1-0.5-0.3-0.5c-0.1,0-0.1,0-0.2,0c-0.3,0.1-0.5,0.2-0.7,0.4
		c-0.6,0.4-0.2,1.4,0.5,1.1c0.6-0.3,1.2-0.6,1.7-1l-1-0.5c-0.1,0.4-0.3,0.7-0.7,0.8C137.3,33.4,136.9,33.7,137.1,34L137.1,34z"/>
	<path class="st6" d="M139.3,36.1c1.4-0.8,2.5-2.1,2.9-3.6c0.1-0.6-0.8-1.1-1.1-0.5s-0.5,1.3-0.8,1.9c-0.4,0.6-0.8,1.2-1.3,1.7
		c-0.1,0.1-0.1,0.3,0,0.5C139,36.2,139.2,36.2,139.3,36.1z"/>
	<path class="st6" d="M139.4,34.8c-1.6-0.3-3.2-0.4-4.8-0.4c-0.4,0-0.7,0.3-0.7,0.7c0,0.1,0,0.2,0.1,0.3c0.7,1.5,3,2.2,4.2,0.8
		c0.2-0.3,0.2-0.7-0.1-0.9c-0.2-0.1-0.5-0.2-0.7-0.1c-0.8,0.4-1.8,0.5-2.2-0.5l-0.6,1c1.6,0,3.2-0.1,4.8-0.4
		c0.2-0.1,0.2-0.2,0.2-0.4C139.6,34.9,139.5,34.9,139.4,34.8L139.4,34.8z"/>
	<path class="st6" d="M133.4,31.5c0.7,0.9,2.4,0.7,3.3,0.6s2.4-0.4,2.8-1.6c0.1-0.2-0.1-0.5-0.3-0.5c-0.9-0.3-1.9,0.3-2.9,0.6
		s-2.2,0-3,0.6C133.3,31.2,133.3,31.4,133.4,31.5C133.4,31.5,133.4,31.5,133.4,31.5L133.4,31.5z"/>
	<path class="st6" d="M138.4,29.1c0.1-0.3,0.3-0.6,0.6-0.8c0.3-0.2,0.5-0.1,0.8-0.3c0.2-0.1,0.2-0.4,0.1-0.6
		c-0.1-0.2-0.3-0.4-0.6-0.5c-0.2-0.1-0.5-0.1-0.7,0c-0.7,0.4-1,1.2-1,1.9C137.7,29.2,138.2,29.5,138.4,29.1z"/>
	<path class="st6" d="M140.2,29.3c0.3,1.2,0.4,2.5,0.2,3.7c-0.4,1.1-0.9,2.1-1.5,3.1c-0.2,0.5,0.3,1.1,0.8,0.8
		c2.3-1.5,2.9-5.7,1.4-7.9c-0.1-0.2-0.4-0.3-0.6-0.1C140.3,28.9,140.2,29.1,140.2,29.3z"/>
	<path class="st6" d="M138.2,30.1L138.2,30.1c0.3-0.1,0.4-0.3,0.3-0.5c0-0.1-0.1-0.2-0.3-0.3h-0.1C137.6,29.2,137.6,30.4,138.2,30.1
		L138.2,30.1z"/>
	<path class="st6" d="M53.2,69.1c1.7-0.2,3.3-0.7,4.8-1.5c0.8-0.4,2.6-1.2,2.6-2.3c0-1-1-0.7-1.6-0.4c-1.8,0.9-3.6,2-5.1,3.2
		c-0.4,0.4,0.1,0.9,0.6,0.7c1.1-0.5,2.1-1.2,3.1-1.9c0.4-0.3,0.9-0.6,1.3-0.9c0.3-0.2,0.6-0.4,0.8-0.6c-0.2,0.3-0.4,0.5-0.7,0.7
		c-1.8,1.2-3.8,2-5.9,2.3C52.6,68.6,52.8,69.2,53.2,69.1L53.2,69.1z"/>
	<path class="st6" d="M54.3,69c1.2,0.3,2.4-0.3,3.4-0.9c1.2-0.5,2.3-1.4,3-2.5c0.2-0.4-0.2-0.8-0.6-0.6c-1,0.7-1.8,1.6-2.9,2.2
		c-1,0.4-2,0.9-3,1.4C54.1,68.7,54.1,68.9,54.3,69C54.2,69,54.3,69,54.3,69L54.3,69z"/>
	<path class="st6" d="M60.1,66.9c0.3-0.5,0.6-0.9,0.8-1.5c0-0.2-0.1-0.4-0.2-0.4c-0.1,0-0.3,0-0.4,0.2c-0.2,0.5-0.4,1-0.5,1.6
		C59.6,67,59.9,67.1,60.1,66.9z"/>
	<path class="st6" d="M54,68.3c-0.3-0.1-0.5-0.1-0.8-0.2c-0.2-0.1-0.4,0-0.6,0.2v0.1c-0.1,0.2,0,0.4,0.1,0.5l0.1,0.1
		c0.1,0.1,0.3,0.1,0.5,0c0.2-0.2,0.5-0.2,0.7-0.5C54.2,68.5,54.2,68.4,54,68.3C54.1,68.3,54.1,68.3,54,68.3L54,68.3z"/>
	<path class="st6" d="M25.9,96.3c0.4,1.3,1,2.6,1.6,3.8c0.1,0.3,0.5,0,0.4-0.2c-0.4-1.3-1-2.5-1.7-3.7c-0.1-0.1-0.2-0.1-0.3-0.1
		C25.9,96.2,25.9,96.2,25.9,96.3z"/>
	<path class="st6" d="M30.3,102.5c0.2-0.7,0.2-1.5-0.1-2.2c-0.2-0.6-0.5-1.3-1.2-1.6c-0.1,0-0.2,0.1-0.3,0.2c0,0,0,0.1,0,0.1
		c0.2,0.5,0.6,0.9,0.9,1.4c0.3,0.6,0.3,1.3,0.2,2C29.7,102.7,30.2,102.8,30.3,102.5L30.3,102.5z"/>
	<path class="st6" d="M29.8,96c0.3,0.6,0.7,1.2,1,1.8c0.2,0.7,0.5,1.3,0.8,1.9c0,0.1,0.2,0.1,0.3,0.1c0.1,0,0.1-0.1,0.1-0.2
		c0-0.7-0.2-1.4-0.6-2c-0.3-0.7-0.8-1.3-1.4-1.8c-0.1-0.1-0.2,0-0.2,0C29.8,95.9,29.8,95.9,29.8,96z"/>
	<path class="st6" d="M34.3,102.6c0.4-0.4,0.2-1,0.1-1.5c-0.1-0.6-0.3-1.2-0.7-1.6c-0.1-0.1-0.3,0-0.3,0.1c0.1,0.5,0.2,1,0.3,1.5
		s0,1.1,0.3,1.5C34.1,102.6,34.2,102.6,34.3,102.6C34.3,102.5,34.3,102.5,34.3,102.6L34.3,102.6z"/>
	<path class="st6" d="M33.4,95.4c0,0.5,0.2,1,0.4,1.5c0.2,0.5,0.4,1,0.6,1.4c0,0.1,0.1,0.1,0.2,0.1c0.1,0,0.1-0.1,0.1-0.2
		c-0.1-0.6-0.3-1.1-0.5-1.7c-0.1-0.4-0.3-0.9-0.6-1.2C33.5,95.4,33.4,95.4,33.4,95.4C33.4,95.4,33.4,95.4,33.4,95.4L33.4,95.4z"/>
	<path class="st6" d="M35,95.5c0.1,0.7,0.3,1.5,0.6,2.1c0,0.1,0.3,0.1,0.2-0.1c-0.1-0.7-0.3-1.4-0.7-2.1
		C35.1,95.4,35.1,95.4,35,95.5C35,95.4,35,95.4,35,95.5L35,95.5z"/>
	<path class="st6" d="M36.2,100.4c0,0.4,0.1,0.7,0.2,1.1c0.1,0.1,0.3,0.1,0.3-0.1C36.6,101,36.5,100.7,36.2,100.4L36.2,100.4z"/>
	<path class="st6" d="M21.1,94c0.3,0.4,0.5,0.7,0.7,1.2c0.1,0.4,0.2,0.8,0.4,1.2c0.1,0.1,0.2,0.1,0.3,0c0,0,0,0,0,0
		c0.8-0.8-0.1-2.5-1-2.9C21.3,93.4,20.9,93.7,21.1,94L21.1,94z"/>
	<path class="st6" d="M23.1,93.5c0.2,0.4,0.4,0.8,0.9,1c0.1,0,0.3,0,0.3-0.2c0,0,0-0.1,0-0.1c-0.2-0.5-0.5-0.6-1-0.9
		c-0.1,0-0.2,0-0.2,0.1C23.1,93.4,23.1,93.5,23.1,93.5L23.1,93.5z"/>
	<path class="st6" d="M27,95.3c0.2-0.3,0-0.7,0-1s-0.2-0.7-0.5-0.9c-0.1-0.1-0.3,0-0.3,0.1c0,0,0,0,0,0c-0.1,0.4,0.1,0.7,0.2,1.1
		s0.2,0.7,0.6,0.7C26.9,95.3,27,95.3,27,95.3L27,95.3z"/>
	<path class="st6" d="M27.9,92.7c0.2,0.7,0.6,1.2,1.1,1.7c0.2,0.1,0.4,0,0.5-0.1c0-0.1,0-0.2,0-0.2c-0.2-0.6-0.6-1.2-1.2-1.5
		C28.1,92.3,27.8,92.4,27.9,92.7z"/>
	<path class="st6" d="M132.9,98c-0.8-0.4-1.8,0-2.2,0.8c0,0.1-0.1,0.1-0.1,0.2c-0.2,0.8,0.2,2,1.2,1.8c0.2,0,0.2-0.2,0.2-0.4
		c-0.1-0.3-0.4-0.7-0.3-1.1s0.5-0.5,0.9-0.6S133.3,98.2,132.9,98L132.9,98z"/>
	<path class="st6" d="M131.2,97.9c-1.6,2.1-0.6,5,1.5,6.4c2.7,1.8,6.3,1.2,9.1,0c0.6-0.3,0.2-1.3-0.5-1.1c-2.1,0.6-4.3,1.3-6.5,0.7
		c-2.2-0.5-3.5-2.7-3-4.9c0.1-0.2,0.1-0.5,0.2-0.7C132.1,97.8,131.4,97.6,131.2,97.9L131.2,97.9z"/>
	<path class="st6" d="M141.4,103.9c0.8-1.1,1.5-2.2,1.9-3.5c0.1-0.3,0.1-0.6-0.1-0.9c-0.1-0.2-0.3-0.2-0.5-0.2
		c-0.3,0-0.5,0.1-0.6,0.3c-0.6,1.3-1,2.6-1.2,4c0,0.2,0.2,0.3,0.3,0.3C141.3,104,141.4,104,141.4,103.9L141.4,103.9z"/>
	<path class="st6" d="M143.5,99.9c-0.9-0.7-1.8-1.2-2.8-1.6c-0.8-0.4-1.8-1-2.7-0.8c-0.3,0.1-0.4,0.4-0.4,0.7c0,0,0,0.1,0,0.1
		c0.4,0.8,1.6,1.1,2.4,1.4c1,0.5,2,0.8,3.1,1c0.2,0,0.4-0.2,0.4-0.5C143.6,100.1,143.6,100,143.5,99.9L143.5,99.9z"/>
	<path class="st6" d="M143.1,100.2c-0.8,0.9-1.6,1.9-2.2,3c-0.4,0.6,0.6,1.2,1,0.6c0.7-1,1.4-2,2-3
		C144.1,100.4,143.5,99.8,143.1,100.2L143.1,100.2z"/>
	<path class="st6" d="M141.2,100.6c-0.8,0.8-1.5,1.8-2.1,2.8c-0.2,0.6,0.6,0.9,1,0.6c0.8-0.8,1.4-1.8,1.9-2.8
		C142.3,100.8,141.6,100.2,141.2,100.6L141.2,100.6z"/>
	<path class="st6" d="M139.6,100.9l-1.1,1.3c-0.4,0.4-0.7,0.8-0.9,1.3c-0.1,0.4,0.1,0.7,0.5,0.8c0.2,0,0.4,0,0.5-0.1
		c0.4-0.3,0.8-0.7,1-1.1l1-1.2c0.3-0.3,0.3-0.7,0-1C140.4,100.6,140,100.6,139.6,100.9L139.6,100.9z"/>
	<path class="st6" d="M139.6,100.5c-1.4,0.4-2.6,1.5-3.1,2.9c-0.3,0.8,1,1.2,1.3,0.4c0.3-1,0.7-2,1.3-2.9c0.3-0.5-0.4-0.9-0.8-0.6
		c-0.9,0.7-1.8,1.5-2.6,2.3l1.2,0.9c0.5-1.1,1.1-2.2,1.8-3.3c0.4-0.7-0.6-1.4-1.1-0.8c-1,1-2,1.9-2.9,3s0.9,2,1.3,0.8
		c0.1-0.2,0.1-0.3,0.2-0.4c0.1-0.3,0.1-0.6-0.2-0.7c-0.2-0.1-0.4-0.1-0.5,0c-0.1,0.1-0.3,0.2-0.5,0.2l0.8,1.3c0.9-1,1.8-2.1,2.7-3.1
		l-1.2-0.7c-0.5,1.1-1.1,2.1-1.8,3.1c-0.2,0.4,0,0.8,0.3,1c0.3,0.1,0.6,0.1,0.8-0.1c0.8-0.9,1.6-1.8,2.3-2.8l-0.9-0.4
		c-0.4,1-1,1.9-1.7,2.8l1.2,0.7c0.5-1,1.3-1.9,2.2-2.6C140.4,101.1,140.1,100.4,139.6,100.5L139.6,100.5z"/>
	<path class="st6" d="M138.9,100.5c-1.5-1.4-3.5-2.2-5.6-2v2c1.2-0.1,2.5,0,3.7,0.3c1.1,0.2,2.1,0.8,3.1,0.8c0.4,0,0.7-0.3,0.7-0.7
		c0-0.2-0.1-0.4-0.2-0.5c-0.7-0.9-2.2-1.2-3.4-1.5c-1.3-0.3-2.7-0.4-4-0.3c-0.6,0-1,0.4-1,1s0.4,1,1,1c1.8,0,3.6,0.2,5.4,0.4
		C138.9,100.9,139,100.6,138.9,100.5L138.9,100.5z"/>
	<path class="st6" d="M137.5,99.1c-1-0.7-2.3-0.9-3.4-0.6c-1.1,0.4-1.7,1.5-1.5,2.6c0.1,1.1,1,2,2.1,2.1c1,0.1,2.7-0.4,2.4-1.7
		c-0.1-0.3-0.4-0.5-0.7-0.5c-0.6-0.1-0.9,0.4-1.4,0.5c-0.4,0.1-0.8-0.2-0.9-0.7c0,0,0-0.1,0-0.1c-0.1-1.6,2.2-1,3-0.7
		c0.3,0.1,0.5-0.1,0.6-0.4C137.7,99.4,137.6,99.2,137.5,99.1L137.5,99.1z"/>
	<path class="st6" d="M132.9,101.5c0.8,1.5,2.7,2.2,4.2,1.4c0.2-0.1,0.3-0.2,0.5-0.3c0.6-0.5-0.2-1.3-0.8-1.1c-1,0.5-2.2,0.3-3-0.5
		c-0.1-0.2-0.4-0.3-0.7-0.1C132.9,101,132.9,101.3,132.9,101.5L132.9,101.5z"/>
	<path class="st6" d="M133.3,98.6c1.1,0.3,2.2,0.6,3.3,0.8c0.8,0.1,1.8,0.3,2.4-0.4c0.2-0.2,0.2-0.4,0.1-0.6
		c-0.5-0.8-1.6-0.8-2.5-0.7c-1.1,0-2.2,0.2-3.4,0.4C133.1,98.2,133.1,98.6,133.3,98.6z"/>
	<path class="st6" d="M133.2,98.4c1,0.1,2.1,0.3,3.1,0.5c0.8,0.2,1.6,0.6,2.4,0.3c0.3-0.1,0.4-0.4,0.3-0.6c0,0,0,0,0-0.1
		c-0.5-0.9-1.6-1-2.6-1.1c-1.1-0.1-2.2-0.1-3.3,0.1C132.6,97.6,132.7,98.3,133.2,98.4z"/>
	<path class="st6" d="M139,99.9c0.6,0.5,1.3,0.9,2,1.2c0.6,0.2,0.9-0.7,0.4-1.1c-0.6-0.4-1.3-0.7-2.1-0.8
		C139,99.1,138.6,99.6,139,99.9L139,99.9z"/>
	<path class="st6" d="M133.6,103.7c0.9,0.6,3,0.6,3.6-0.4c0.1-0.2,0-0.5-0.2-0.6c0,0-0.1,0-0.1,0c-0.5-0.1-1.1,0-1.6,0.2
		c-0.6,0.1-1.1,0.2-1.7,0.3c-0.2,0.1-0.3,0.2-0.2,0.4C133.5,103.6,133.6,103.7,133.6,103.7z"/>
	<path class="st6" d="M136.4,103c0.4-0.1,0.8-0.2,1.1-0.4c0.2-0.1,0.3-0.4,0.2-0.6c-0.1-0.1-0.1-0.2-0.3-0.2c-0.4-0.1-0.9,0-1.3,0.1
		C135.4,102,135.7,103.2,136.4,103L136.4,103z"/>
	<path class="st6" d="M145.3,97.6c-0.4-0.3-0.9-0.5-1.4-0.6c-0.5-0.2-1-0.5-1.5-0.2c-0.2,0.1-0.2,0.4-0.1,0.5
		c0.2,0.5,0.9,0.5,1.4,0.6c0.5,0.2,1,0.3,1.6,0.2c0.2-0.1,0.3-0.2,0.2-0.4C145.4,97.7,145.4,97.7,145.3,97.6L145.3,97.6z"/>
	<path class="st6" d="M137.9,94.4c0.6,0.1,1.2,0.2,1.8,0.4c0.6,0.2,1.1,0.5,1.7,0.6c0.2,0,0.4-0.1,0.4-0.2c0-0.1,0-0.2-0.1-0.3
		c-1-0.9-2.4-1.2-3.8-0.9c-0.1,0-0.2,0.2-0.2,0.3C137.7,94.3,137.8,94.3,137.9,94.4L137.9,94.4z"/>
	<path class="st6" d="M138.1,92.4c1,0.2,2.1,0.2,3.1,0c0.1,0,0.2-0.2,0.1-0.3c0-0.1-0.1-0.1-0.1-0.1c-1-0.2-2.1-0.2-3.1,0
		c-0.1,0-0.2,0.1-0.2,0.3C138,92.3,138,92.4,138.1,92.4L138.1,92.4z"/>
	<path class="st6" d="M146.5,95.4c-0.4-0.4-1-0.8-1.5-1.1c-0.5-0.4-1.1-0.7-1.7-0.8c-0.2,0-0.5,0.2-0.3,0.4c0.4,0.5,0.9,0.8,1.5,1.1
		c0.6,0.3,1.2,0.6,1.8,0.8c0.1,0,0.2,0,0.3-0.2C146.6,95.6,146.6,95.5,146.5,95.4L146.5,95.4z"/>
	<path class="st6" d="M138.1,89.7c0.7,0.2,1.3,0.2,2,0.1c0.1,0,0.2-0.2,0.2-0.3c0-0.1-0.1-0.1-0.2-0.2c-0.7-0.1-1.3-0.1-2,0.1
		c-0.1,0-0.1,0.1-0.1,0.2C138,89.6,138,89.7,138.1,89.7z"/>
	<path class="st6" d="M153.7,91.8c-1.6,2-2.2,4.6-1.6,7.1c0.1,0.3,0.5,0.4,0.7,0.2c0.1-0.1,0.2-0.2,0.3-0.4c-0.1-1.1,0-2.2,0.1-3.3
		c0.3-1,0.7-2,1.3-3C154.7,92,154.1,91.4,153.7,91.8L153.7,91.8z"/>
	<path class="st6" d="M153.9,93.4c-1.3,2.3-1.2,5.1,0.3,7.2c0.3,0.4,0.8,0.5,1.2,0.3c0.2-0.1,0.3-0.3,0.4-0.5
		c0.4-1.8,0.8-3.6,1.2-5.3l-1.5-0.2c-0.2,2.2,0.1,4.3,0.8,6.4c0.2,0.3,0.7,0.5,1,0.3c0.2-0.1,0.3-0.2,0.3-0.4
		c0.3-1.6,0.8-3.2,1.5-4.6l-1.3-0.6c-0.8,1.9-0.9,4-0.2,5.9c0.1,0.4,0.6,0.7,1,0.6c0.3-0.1,0.5-0.3,0.6-0.6c0.5-1.3,1-2.7,1.5-4
		l-1.6-0.5c-0.3,1.6,0,3.3,0.9,4.7c0.4,0.6,1.5,0.6,1.6-0.2c0.2-1.2,0.5-2.4,0.9-3.6l-1.6-0.2c0,1.3-0.7,4.8,1.3,5
		c0.5,0,1.1-0.2,1.4-0.6c0.6-0.8,0.1-2.1,0.7-2.7l-1.4-0.2c0.5,1,0.7,2.1,0.6,3.2c-0.1,1.2,1.8,1.2,1.9,0c0.1-1.4-0.2-2.8-0.9-4.1
		c-0.2-0.4-0.8-0.6-1.2-0.3c-0.1,0-0.1,0.1-0.2,0.1c-0.4,0.3-0.6,0.8-0.7,1.3c0,0.1-0.1,0.8,0.3,0.6c0.1,0-0.1-2.2-0.1-2.4
		c0-0.7-1.2-1.2-1.5-0.4c-0.5,1.2-0.9,2.5-1.1,3.8l1.6-0.2c-0.7-1-1-2.2-0.8-3.4c0.1-0.4-0.1-0.9-0.6-1c-0.4-0.1-0.9,0.1-1,0.6
		c-0.5,1.3-1,2.7-1.5,4h1.5c-0.7-1.6-0.7-3.4,0-5c0.3-0.8-1-1.3-1.3-0.6c-0.8,1.6-1.3,3.3-1.6,5h1.4c-0.7-1.9-0.9-3.9-0.6-5.8
		c0.1-0.9-1.3-1-1.5-0.2c-0.4,1.8-0.9,3.5-1.3,5.3l1.6-0.2c-1-1.8-1.4-3.9-1-6c0-0.2-0.1-0.5-0.3-0.5
		C154,93.3,153.9,93.3,153.9,93.4L153.9,93.4z"/>
	<path class="st6" d="M153.9,98.8c1.9,2.5,8.7,7.2,11.5,3.7s-4.4-6.3-4.6-1.9c0,0.6,0.5,1,1,1c0.3,0,0.5-0.1,0.7-0.3
		c0.6-0.6,0.4-0.5-0.6,0.2c-0.5-0.1-0.9-0.2-1.4-0.4c-0.7-0.2-1.3-0.5-2-0.7c-1.5-0.6-2.9-1.3-4.4-1.8c-0.1,0-0.2,0-0.3,0.2
		C153.8,98.7,153.8,98.8,153.9,98.8L153.9,98.8z"/>
	<path class="st6" d="M153.7,94.2c0.9,1.4,2.1,2.5,3.6,3.3c1.3,0.7,3.1,1.6,4.6,1.2c0.5-0.2,0.8-0.9,0.3-1.3c-1.1-0.9-2.7-1-3.9-1.6
		s-2.6-1.5-3.9-2.2c-0.2-0.1-0.5,0-0.6,0.2C153.7,93.9,153.7,94.1,153.7,94.2z"/>
	<path class="st6" d="M160.5,97.8c1.3,0.9,3.5,1.8,5.1,1.1c0.4-0.2,0.2-0.6-0.1-0.7c-0.8-0.2-1.6-0.3-2.4-0.3
		c-0.8-0.1-1.6-0.3-2.4-0.6C160.4,97.1,160.2,97.6,160.5,97.8L160.5,97.8z"/>
	<path class="st6" d="M150.3,88c-0.4,0.5-0.7,1.1-1,1.6c-0.3,0.5-0.5,1-0.6,1.5c0,0.2,0.1,0.3,0.3,0.3c0,0,0.1,0,0.1,0
		c0.4-0.3,0.8-0.8,1.1-1.2c0.4-0.5,0.7-1.1,1-1.7c0.1-0.3,0-0.6-0.3-0.7C150.8,87.7,150.5,87.8,150.3,88L150.3,88z"/>
	<path class="st6" d="M146.4,92.3c0.4-0.3,0.7-0.7,1-1.1c0.3-0.4,0.5-0.9,0.7-1.4c0-0.2-0.1-0.4-0.3-0.4c-0.1,0-0.2,0-0.3,0.1
		c-0.3,0.4-0.6,0.8-0.9,1.2c-0.2,0.5-0.4,0.9-0.5,1.4C146.1,92.3,146.3,92.4,146.4,92.3L146.4,92.3z"/>
	<path class="st6" d="M147.3,84.6c-0.3,0.4-0.6,0.9-0.9,1.3c-0.3,0.4-0.5,0.9-0.6,1.3c0,0.1,0.1,0.2,0.3,0.2c0,0,0.1,0,0.1,0
		c0.4-0.3,0.7-0.7,0.9-1.2c0.3-0.5,0.5-0.9,0.8-1.4C148,84.6,147.5,84.3,147.3,84.6L147.3,84.6z"/>
	<path class="st6" d="M144.6,83.7c-0.3,0.3-0.6,0.6-0.8,1c-0.3,0.4-0.5,0.8-0.7,1.3c0,0.1,0.1,0.3,0.2,0.2c0.3-0.3,0.6-0.7,0.9-1.1
		c0.3-0.4,0.5-0.8,0.6-1.3C144.8,83.7,144.7,83.6,144.6,83.7C144.6,83.6,144.6,83.6,144.6,83.7L144.6,83.7z"/>
	<path class="st6" d="M143.4,89.6c0.5-0.7,0.9-1.4,1.2-2.1c0-0.1,0-0.1-0.1-0.1c0,0-0.1,0-0.1,0c-0.5,0.6-1,1.3-1.3,2
		c0,0.1,0,0.2,0.1,0.2C143.3,89.7,143.3,89.6,143.4,89.6L143.4,89.6z"/>
	<path class="st6" d="M142.6,83.3c-0.4,0.3-0.7,0.6-0.9,1c-0.3,0.4-0.6,0.9-0.9,1.4c-0.1,0.2,0.1,0.3,0.2,0.2
		c0.4-0.4,0.7-0.9,0.9-1.3C142.3,84.2,142.5,83.8,142.6,83.3C142.6,83.3,142.6,83.3,142.6,83.3L142.6,83.3z"/>
	<path class="st6" d="M141.3,88.4c0.4-0.6,0.8-1.2,1.1-1.9c0-0.1,0-0.2-0.1-0.2c-0.1,0-0.2,0-0.2,0.1l0,0c-0.4,0.6-0.7,1.2-1,1.9
		C141,88.4,141.2,88.5,141.3,88.4L141.3,88.4z"/>
	<path class="st6" d="M140.1,82.1c-0.6,0.6-1.1,1.3-1.5,2.1c0,0.1,0,0.2,0.1,0.2c0,0,0.1,0,0.1,0c0.6-0.6,1.1-1.3,1.4-2.1
		C140.4,82.1,140.2,81.9,140.1,82.1z"/>
	<path class="st6" d="M139.4,86.9c0.8-0.9,1.5-2,1.9-3.1c0-0.1,0-0.2-0.1-0.2c-0.1,0-0.1,0-0.1,0c-0.8,0.9-1.4,2-1.8,3.2
		c0,0.1,0,0.1,0.1,0.1C139.4,87,139.4,87,139.4,86.9L139.4,86.9z"/>
	<path class="st6" d="M138.3,82.2c-0.7,1-1.4,2.2-1.8,3.3c0,0.1,0,0.1,0,0.2c0.1,0,0.1,0,0.2,0c0.8-1,1.4-2.1,1.9-3.3
		c0-0.1,0-0.2-0.1-0.2C138.4,82.1,138.3,82.1,138.3,82.2L138.3,82.2L138.3,82.2z"/>
	<path class="st6" d="M136.3,81.4c-0.2,0.4-0.4,0.8-0.6,1.3c-0.1,0.2,0.2,0.2,0.3,0.1c0.3-0.4,0.5-0.8,0.6-1.2
		C136.7,81.4,136.4,81.2,136.3,81.4L136.3,81.4z"/>
	<path class="st6" d="M134.1,85.1c0.4-0.7,0.8-1.5,1.1-2.3c0-0.1,0-0.2-0.1-0.2c-0.1,0-0.1,0-0.2,0.1c-0.4,0.7-0.7,1.5-1,2.3
		C133.9,85.1,134,85.2,134.1,85.1L134.1,85.1z"/>
	<path class="st6" d="M132.9,81.5c-0.4,0.9-0.7,1.8-0.8,2.7c0,0.1,0.1,0.1,0.1,0.1c0,0,0.1,0,0.1-0.1c0.4-0.8,0.7-1.8,0.8-2.7
		c0-0.1,0-0.1-0.1-0.1C133,81.4,132.9,81.5,132.9,81.5L132.9,81.5z"/>
	<path class="st8" d="M61.8,71.1c0.9-0.6,1.7-1.5,2.6-2.1s1.9-1.1,2.8-1.8c0.1-0.1,0-0.3-0.1-0.2c-1.1,0.5-2.1,1.1-3,1.9
		c-0.9,0.6-1.7,1.3-2.4,2.1C61.6,71.1,61.7,71.2,61.8,71.1L61.8,71.1z"/>
	<path class="st8" d="M67.1,67c-0.4,0.3-0.4,1-0.4,1.5c0,0.6,0.2,1.2,0.5,1.7c0.2,0.2,0.5,0,0.4-0.3c-0.2-0.5-0.3-1-0.4-1.5
		c0-0.4,0.2-0.9,0.1-1.3C67.3,67,67.2,66.9,67.1,67z"/>
	<path class="st8" d="M67.1,69.8c-0.4,0.5-0.6,1.1-0.6,1.8c-0.1,0.6-0.2,1.4,0.2,1.8c0.1,0.1,0.2,0.1,0.3,0c0,0,0-0.1,0.1-0.1
		c0.2-0.5,0-1.1,0-1.7s0.3-1.2,0.3-1.8c0-0.1-0.1-0.2-0.2-0.2C67.1,69.7,67.1,69.7,67.1,69.8L67.1,69.8z"/>
	<path class="st8" d="M66.9,71.5c-0.1,0.3-0.2,0.7-0.2,1.1c0,0.4,0,0.8,0,1.2c0,0.2,0.3,0.3,0.4,0c0.1-0.4,0.1-0.8,0.1-1.2
		c0.1-0.4,0.1-0.8,0-1.1C67.3,71.3,67.1,71.3,66.9,71.5L66.9,71.5z"/>
	<path class="st8" d="M66.8,73.6c-0.4-0.9-1.3-1-2.2-1.4S62.9,71.4,62,71c-0.1,0-0.2,0.1-0.2,0.2c0,0.1,0,0.1,0.1,0.2
		c1,0.4,1.9,0.9,2.8,1.5c0.6,0.5,1.3,0.9,2.1,0.9C66.9,73.7,66.9,73.7,66.8,73.6C66.9,73.6,66.9,73.6,66.8,73.6L66.8,73.6z"/>
	<path class="st8" d="M62.1,71.5c0.8-0.7,1.5-1.4,2.3-2c0.8-0.4,1.5-0.9,2.1-1.5c0-0.1,0-0.2-0.1-0.2c-0.9,0.2-1.7,0.6-2.3,1.2
		c-0.9,0.6-1.6,1.4-2.2,2.2C61.8,71.4,62,71.5,62.1,71.5L62.1,71.5z"/>
	<path class="st8" d="M66.2,68.1c0,0.4,0,0.9,0.1,1.3c0,0.4,0.1,0.8,0.3,1.1c0.1,0.1,0.2,0.1,0.3,0c0,0,0,0,0-0.1
		c0.1-0.4,0-0.8-0.1-1.1c-0.1-0.4-0.2-0.8-0.4-1.2c0-0.1-0.1-0.1-0.2,0C66.2,68,66.2,68.1,66.2,68.1z"/>
	<path class="st8" d="M66.6,70c-0.6,0.7-1,1.6-1,2.6c0,0.2,0.2,0.3,0.3,0.3c0.1,0,0.2-0.1,0.3-0.2c0.1-0.4,0.2-0.9,0.3-1.3
		s0.3-0.8,0.4-1.3c0-0.1,0-0.1-0.1-0.2C66.7,70,66.7,70,66.6,70L66.6,70z"/>
	<path class="st8" d="M66.1,72.4c-0.1-0.1-0.3-0.1-0.4-0.1l0.2,0.4c0.3-0.8,0.5-1.6,0.6-2.4c0-0.2-0.1-0.4-0.3-0.4
		c-0.2,0-0.4,0.1-0.4,0.2c-0.3,0.7-0.6,1.3-0.8,1.9l0.7,0.2c0-1.2,1-2,0.6-3.2c-0.1-0.2-0.3-0.3-0.5-0.3c-0.1,0-0.1,0.1-0.2,0.1
		c-0.7,0.8-1.2,1.8-1.6,2.8l0.6,0.3c0.2-0.8,0.5-1.5,0.8-2.3c0-0.2-0.1-0.4-0.3-0.4c-0.1,0-0.2,0-0.3,0.1c-0.1,0.1-1.5,1.6-1.4,1.6
		l0.2,0.3c0-0.2,0.4-0.6,0.5-0.8c0.2-0.4-0.3-0.7-0.6-0.3s-1.2,1.3-0.3,1.5c0.3,0.1,0.6-0.2,0.8-0.4c0.4-0.4,0.9-0.9,1.3-1.4
		l-0.6-0.3c-0.3,0.8-0.5,1.5-0.8,2.3c-0.1,0.4,0.4,0.6,0.6,0.3c0.4-0.9,0.9-1.8,1.5-2.6l-0.7-0.2c0.2,1-0.6,2-0.6,3
		c0,0.3,0.6,0.6,0.7,0.2c0.3-0.7,0.6-1.3,0.9-2L65.7,70c-0.2,0.8-0.4,1.7-0.5,2.6c0,0.2,0.2,0.3,0.3,0.3c0,0,0,0,0.1,0
		c0.1,0,0.3-0.1,0.4-0.2C66.1,72.6,66.2,72.5,66.1,72.4C66.1,72.4,66.1,72.4,66.1,72.4L66.1,72.4z"/>
	<path class="st8" d="M62.7,70.9c0.6,0.9,1.6,1.3,2.7,1.2c0.2,0,0.2-0.2,0.2-0.4c0-0.1-0.1-0.2-0.2-0.2c-0.5,0-0.9-0.1-1.4-0.3
		c-0.4-0.2-0.7-0.4-1.1-0.6C62.8,70.6,62.7,70.8,62.7,70.9z"/>
	<path class="st8" d="M62.5,71.2c0.3,0.4,0.7,0.7,1.2,0.8c0.4,0.2,1,0.4,1.4,0.1c0.1-0.1,0.1-0.2,0-0.3c-0.3-0.3-0.8-0.3-1.2-0.4
		c-0.4-0.2-0.8-0.3-1.3-0.3C62.5,71,62.4,71.1,62.5,71.2C62.4,71.1,62.4,71.2,62.5,71.2z"/>
	<path class="st8" d="M66.4,67.9c-0.5,0.1-0.5,0.9-0.2,1.2c0.1,0.1,0.3,0.1,0.4-0.1C66.7,68.6,66.6,68.2,66.4,67.9L66.4,67.9
		L66.4,67.9z"/>
	<path class="st8" d="M66.6,67.6c-0.4,0-0.8,0.6-0.9,0.9s0.5,0.7,0.7,0.3c0.2-0.3,0.3-0.7,0.3-1.1C66.7,67.6,66.6,67.6,66.6,67.6z"
		/>
	<path class="st6" d="M153.6,95.7c0.2,1,0.9,1.9,1.9,2.1c0.5,0.1,1-0.4,1.1-0.9c0-0.4-0.2-0.8-0.6-1c-0.5-0.2-0.9-0.5-1.4-0.9
		c-0.3-0.2-0.8-0.1-1,0.3C153.7,95.5,153.7,95.6,153.6,95.7z"/>
	<path class="st6" d="M154.8,100.8c0.2,1.1,1.8,1.7,2.7,1.9c0.5,0.1,1-0.2,1.2-0.7c0.1-0.5-0.2-1-0.7-1.2c-0.5-0.1-1-0.2-1.4-0.4
		c-0.4-0.2-0.9-0.3-1.4-0.3C154.8,100.1,154.7,100.5,154.8,100.8L154.8,100.8z"/>
	<path class="st6" d="M133.8,101.5c0.9,0.8,2.6,0.1,3.7,0c1.3-0.1,1.2-2.1,0-2s-3.4,0.2-3.8,1.5
		C133.7,101.2,133.7,101.3,133.8,101.5L133.8,101.5z"/>
	<path class="st6" d="M132,99.2c-0.9,0.9-0.6,2.5,0.1,3.5s2.5,2,3.2,0.4c0.1-0.4-0.1-0.7-0.4-0.9c-0.3-0.1-0.6-0.1-0.8-0.2
		c-0.3-0.2-0.5-0.5-0.7-0.8c-0.4-0.6-0.5-1.3-0.8-1.9C132.5,99.1,132.3,99,132,99.2C132,99.1,132,99.1,132,99.2z"/>
	<path class="st6" d="M132.7,97.8c-0.8-0.4-1.7-0.1-2.2,0.6c-0.6,1-0.7,2.2-0.2,3.2c0.6,1.9,3.2,4.7,5.4,3.5
		c0.2-0.1,0.3-0.4,0.2-0.7c-0.1-0.1-0.2-0.2-0.3-0.2c-1.4-0.3-2.6-0.2-3.7-1.5s-2-4.5,0.6-4.5c0.1,0,0.2-0.1,0.2-0.2
		C132.7,97.8,132.7,97.8,132.7,97.8L132.7,97.8z"/>
	<path class="st6" d="M132.1,98c0.4,0.3,0.8,0.5,1.3,0.5c0.5,0.1,1.1,0.3,1.5,0c0.3-0.2,0.4-0.5,0.2-0.8c0,0,0-0.1-0.1-0.1
		c-0.5-0.3-1-0.4-1.6-0.3c-0.5,0-0.9,0.1-1.3,0.4C132,97.8,132,97.9,132.1,98L132.1,98z"/>
	<path class="st6" d="M53.8,67.9c0.5-0.1,1.5-0.2,1.7-0.8c0-0.1,0-0.2-0.1-0.2c-0.6-0.2-1.2,0.5-1.6,0.8c0,0-0.1,0.1,0,0.1
		S53.8,67.9,53.8,67.9L53.8,67.9z"/>
	<path class="st6" d="M53.1,68.3c0.5-0.1,0.9-0.2,1.3-0.4c0.4-0.2,1-0.3,1.2-0.8c0.1-0.1,0-0.2-0.1-0.3c-0.5-0.2-0.9,0.1-1.3,0.3
		c-0.5,0.2-0.9,0.6-1.2,1C53,68.2,53,68.3,53.1,68.3C53.1,68.3,53.1,68.3,53.1,68.3L53.1,68.3z"/>
	<path class="st6" d="M53.7,69.1c0.4,0.2,0.8,0.2,1.2,0.1c0.1,0,0.2-0.3,0-0.4c-0.4-0.2-0.8-0.2-1.2,0
		C53.6,68.8,53.6,68.9,53.7,69.1C53.6,69,53.6,69,53.7,69.1L53.7,69.1z"/>
	<path class="st6" d="M58.5,67.7c0.6,0,1.1-0.3,1.4-0.8c0-0.1,0-0.2-0.1-0.2c0,0-0.1,0-0.1,0c-0.2,0.1-0.5,0.3-0.7,0.5
		c-0.2,0.1-0.4,0.2-0.6,0.4C58.4,67.6,58.5,67.7,58.5,67.7z"/>
	<path class="st6" d="M58.3,68.1c1.5-0.3,2.6-1.6,2.6-3.2c0-0.3-0.5-0.3-0.5,0c0,0.7-0.3,1.3-0.8,1.8c-0.5,0.3-1,0.7-1.4,1.1
		c-0.1,0.1,0,0.2,0,0.3C58.2,68.1,58.3,68.1,58.3,68.1z"/>
	<path class="st6" d="M60.6,65.1c0.1,0.2,0.1,0.5,0,0.8c0,0.1,0,0.2,0,0.3c0,0.1,0.1,0.1,0.2,0.1c0,0,0,0,0,0c0.5-0.1,0.4-1,0.2-1.3
		C60.9,64.7,60.5,64.9,60.6,65.1L60.6,65.1z"/>
	<path class="st6" d="M60.6,65c-0.5-0.3-1.1-0.4-1.7-0.3c-0.5,0.1-1.3,0.3-1.5,0.8c0,0.2,0.1,0.4,0.3,0.4c0,0,0,0,0.1,0
		c0.5,0,0.8-0.4,1.3-0.5c0.5-0.1,1-0.2,1.6-0.2c0.1,0,0.1-0.1,0.1-0.1C60.7,65.1,60.7,65,60.6,65z"/>
	<path class="st4" d="M106.3,65.1c0.7-0.5,1.4-1.2,2.1-1.8s1.7-1.1,1.9-2c0.1-0.4-0.1-0.8-0.5-0.9c-0.1,0-0.2,0-0.4,0
		c-0.8,0.2-1.4,1.2-1.9,1.9c-0.6,0.8-1.1,1.6-1.5,2.5C105.9,65,106.1,65.3,106.3,65.1L106.3,65.1z"/>
	<path class="st4" d="M96.5,67.6c0.6,0.1,1.2,0,1.7-0.4c0.3-0.4,0-1-0.5-0.8c-0.5,0.2-0.9,0.5-1.3,0.8
		C96.1,67.2,96.2,67.6,96.5,67.6z"/>
	<path class="st6" d="M130.4,30.8c1.6,1.3,4.3,1.3,6.3,1.4c1.1,0,1.1-1.7,0-1.8c-1.9-0.2-4.4-0.8-6.2-0.1
		C130.4,30.4,130.3,30.6,130.4,30.8z"/>
	<path class="st6" d="M139.2,30.6c0.1,0.5,0.1,1.1,0,1.6c0,0.5,0.4,0.9,1,0.9c0.4,0,0.7-0.3,0.9-0.7c0.1-0.6,0-1.2-0.3-1.7
		c-0.3-0.4-0.7-0.7-1.2-0.7C139.3,30.1,139.1,30.4,139.2,30.6L139.2,30.6z"/>
	<path class="st6" d="M141,27.2l-0.2-0.3c-0.2-0.2-0.4-0.2-0.6-0.1c-1.3,0.3-1.8,1-2.8,1.7c-1.3,0.7-2.8,1-4.3,1
		c-0.2,0-0.4,0.2-0.4,0.4c0,0.2,0.1,0.3,0.3,0.3c1.4,0.3,3,0.1,4.3-0.6c0.6-0.3,1.1-0.6,1.7-1c0.7-0.3,1.4-0.7,2.1-1.1
		C141.1,27.4,141.1,27.3,141,27.2z"/>
	<path class="st4" d="M147.9,45.5c-0.6,1-0.3,2.4-0.1,3.5c0,1.3,0.3,2.5,0.8,3.7c0.2,0.3,0.7,0.5,1,0.2c0.2-0.1,0.3-0.2,0.3-0.4
		c0.1-1.3,0-2.5-0.3-3.7c-0.2-1.1-0.1-2.5-1-3.4C148.4,45.2,148.1,45.2,147.9,45.5C147.9,45.4,147.9,45.4,147.9,45.5L147.9,45.5z"/>
	<path class="st4" d="M148.9,39.9c-0.6,0.5-0.9,1.2-0.9,2c-0.2,0.8-0.2,1.7-0.1,2.5c0.1,0.4,0.5,0.6,0.9,0.5c0.1,0,0.1,0,0.2-0.1
		c0.6-0.5,0.9-1.4,0.8-2.2c0.1-0.8,0.1-1.7,0-2.5c-0.1-0.3-0.4-0.5-0.7-0.4C149,39.8,148.9,39.8,148.9,39.9L148.9,39.9z"/>
	<path class="st4" d="M143.5,59.2L143.5,59.2L143.5,59.2L143.5,59.2z"/>
	<path class="st4" d="M143,59.6c0.2,1.9,1.4,3.5,3.2,4.2c0.8,0.3,1.7,0.1,2.2-0.6c0.3-0.5,0.1-1.1-0.3-1.4c-0.2-0.1-0.5-0.2-0.8-0.1
		c-0.3,0.1-0.6,0.4-0.6,0.7v0.1c0,0.4,0.3,0.6,0.6,0.7l-0.4-0.2l-0.1-0.6c0,0-0.8-0.4-0.9-0.5c-0.3-0.3-0.6-0.6-0.9-0.9
		c-0.4-0.6-1-1.2-1.6-1.6c-0.2-0.1-0.4,0-0.5,0.1C143,59.5,143,59.5,143,59.6L143,59.6z"/>
	<path class="st4" d="M148.2,64.8c0.3,0.2,0.7,0.2,1.1,0.2c0.4-0.1,0.8-0.4,1-0.8c0.2-0.4,0.1-0.9-0.3-1.1c-0.2-0.1-0.4-0.1-0.6-0.1
		c-0.4,0.1-0.7,0.4-1,0.7c-0.1,0.1-0.2,0.3-0.2,0.5c0,0.1,0,0.1,0,0c0,0.1-0.1,0.2-0.1,0.3C147.9,64.6,148,64.7,148.2,64.8
		C148.1,64.8,148.1,64.8,148.2,64.8L148.2,64.8z"/>
	<path class="st4" d="M149.8,64.9c1.2-1.2,1.2-3,1.4-4.6c0.3-2.4,1.1-5.3,0.5-7.6c-0.1-0.2-0.2-0.3-0.4-0.2c-0.1,0-0.2,0.1-0.2,0.2
		c-0.8,1.7-0.7,3.7-0.9,5.5c-0.1,2.2-0.4,4.4-0.9,6.5c0,0.2,0.1,0.3,0.2,0.4C149.6,65,149.8,65,149.8,64.9z"/>
	<path class="st4" d="M130.4,74c-0.6,1.9,0.6,4.5,1.8,6c0.3,0.4,1-0.1,0.7-0.6c-0.6-0.9-1-1.9-1.4-2.9c-0.2-0.9-0.5-1.7-0.8-2.5
		C130.6,73.9,130.5,73.9,130.4,74C130.4,73.9,130.4,74,130.4,74L130.4,74z"/>
	<path class="st4" d="M132.2,73.8c0.5-0.2,1-0.4,1.5-0.5c0.9-0.2,0.4-1.6-0.5-1.2c-0.6,0.3-1.1,0.7-1.4,1.3c-0.1,0.1,0,0.3,0.1,0.4
		C132,73.9,132.1,73.9,132.2,73.8z"/>
	<path class="st4" d="M148.4,71.9c-0.2,0.7-0.2,1.5,0.1,2.1c0.2,0.7,0.4,1.5,0.7,2.2c0.2,0.3,0.5,0.3,0.7,0.2c0.1,0,0.1-0.1,0.2-0.2
		c0.6-1.3-0.3-3-0.7-4.3c-0.1-0.3-0.3-0.5-0.6-0.4C148.5,71.5,148.4,71.7,148.4,71.9L148.4,71.9z"/>
	<path class="st9" d="M59,64.3l-5.2,3.1c-1.4,0.7-2.8,1.5-4.1,2.5c-0.8,0.7-1,2.1,0.3,2.3c0.2,0,0.2-0.2,0.1-0.3
		c-0.5-1.2-0.3-2,0.6-2.4l1.3-0.8l2.3-1.3l4.9-2.9c0.1,0,0.1-0.1,0-0.2S59.1,64.3,59,64.3z"/>
	<path class="st9" d="M49.9,72.7c-0.5,0.8-1.1,1.4-1.7,2.1c-0.7,0.6-1.4,1.1-2.2,1.6c-0.1,0.1,0,0.2,0.1,0.2c1.7-0.8,3.1-2.1,4-3.7
		c0-0.1,0-0.1,0-0.1C50,72.7,49.9,72.7,49.9,72.7L49.9,72.7z"/>
	<path class="st9" d="M45.9,75.6c-0.8,2-0.8,4.2-0.1,6.2c0.1,0.3,0.6,0.2,0.5-0.1c-0.7-1.9-0.7-4,0.1-5.9
		C46.5,75.4,46.1,75.3,45.9,75.6z"/>
	<path class="st9" d="M70.8,79.7c-1.2-0.3-2.1-1.3-2.5-2.4c0-0.1-0.2-0.1-0.2,0c0.2,1.4,1.3,2.5,2.7,2.6
		C70.9,79.9,70.9,79.7,70.8,79.7L70.8,79.7z"/>
	<path class="st9" d="M57.5,65.2c4.8-1.2,9.8-0.3,14,2.3c0.1,0.1,0.2-0.1,0.1-0.2C67.6,64.3,62.3,63.4,57.5,65.2L57.5,65.2z"/>
	<path class="st9" d="M59,64.9c2.3-2-0.3-5,1.2-7.2c2-2.9,4.5,1.8,5.4,3.2s1.7,3,2.4,4.6c0.1,0.2,0.4,0,0.3-0.2
		c-1-2.2-2.1-4.3-3.5-6.2c-0.7-1-1.6-2.6-3-2.8c-1,0-1.9,0.6-2.2,1.6c-0.8,2.2,1.1,4.9-0.9,6.7C58.7,64.8,58.9,65,59,64.9L59,64.9z"
		/>
	<path class="st9" d="M59.6,71.4c1.5-1.1,2.9-2.2,4.3-3.3l1.1-0.9l1-0.8c0.7-1.1,1.4-1.2,2.2-0.2c1.2,0.8,1,1.1,0.9,2.3
		c-0.1,1.1-0.2,2.2-0.4,3.3c-0.4,1.7-0.8,3.3-1.4,4.9c0,0.1,0.2,0.2,0.2,0.1c0.9-2.1,1.5-4.3,1.8-6.6c0.1-1.1,0.9-4.3-0.4-5.1
		c-0.8-0.6-1.7,0.1-2.4,0.5c-2.5,1.7-4.8,3.6-7.1,5.6C59.4,71.4,59.4,71.5,59.6,71.4L59.6,71.4z"/>
	<polygon class="st9" points="50.3,75.3 50.3,75.3 50.3,75.3 	"/>
	<path class="st9" d="M49.5,76.6c0.5-0.5,1.1-1,1.7-1.5c0.5-0.4,1-0.9,1.4-1.4c0-0.1,0-0.2-0.1-0.1c-0.5,0.4-1,0.8-1.5,1.3l-1.6,1.5
		C49.3,76.5,49.4,76.6,49.5,76.6z"/>
	<path class="st9" d="M52.2,74c1.9,1.3,5.2,0.8,6.9-0.6c0.1-0.1,0-0.2,0-0.2c0,0-0.1,0-0.1,0c-1.1,0.5-2.3,0.8-3.5,1
		c-1.1,0-2.2-0.1-3.2-0.3C52.1,73.8,52.1,74,52.2,74L52.2,74z"/>
	<path class="st9" d="M46.3,81c1.2,1.1,3.7,0.9,4.9,0c0,0,0.1-0.1,0-0.1c0,0-0.1,0-0.1,0c-0.8,0.3-1.7,0.4-2.5,0.4
		c-0.8,0-1.5-0.3-2.2-0.4C46.2,80.8,46.2,80.9,46.3,81L46.3,81z"/>
	<path class="st9" d="M46.1,78.4c0.9-0.5,1.7-1.9,1.1-2.9c0-0.1-0.1,0-0.1,0c0.1,0.5,0.1,1-0.1,1.4c-0.2,0.5-0.5,1-1,1.3
		C45.9,78.3,46,78.5,46.1,78.4L46.1,78.4z"/>
	<path class="st9" d="M46.5,76.7c-0.1,0.4-0.1,0.8,0,1.1c0,0.1,0.1,0.1,0.2,0c0.1-0.4,0.1-0.8,0.1-1.1
		C46.8,76.5,46.5,76.5,46.5,76.7L46.5,76.7z"/>
	<path class="st9" d="M46.2,77c-0.1,0.4-0.2,0.7-0.3,1.1c0,0,0,0.1,0.1,0.1c0,0,0.1,0,0.1-0.1l0,0c0.1-0.4,0.2-0.8,0.3-1.1
		C46.3,77,46.3,77,46.2,77C46.2,77,46.2,77,46.2,77L46.2,77z"/>
	<path class="st9" d="M46.4,77.3c0,0.2,0,0.4,0.1,0.6c0,0.1,0.1,0.1,0.1,0.1c0,0,0.1,0,0.1-0.1c0-0.2,0.1-0.4,0.1-0.6
		c0-0.1-0.1-0.1-0.2-0.1C46.5,77.2,46.5,77.2,46.4,77.3z"/>
	<path class="st9" d="M70.7,67.6c4.1,0.8,8.1,2,11.9,3.7c0.3,0.1,0.4-0.3,0.2-0.5c-3.6-2.2-7.8-3.4-12-3.6c-0.1,0-0.2,0.1-0.2,0.2
		S70.6,67.5,70.7,67.6z"/>
	<path class="st9" d="M79.8,69.4c3.7-0.5,7.5-0.4,11.2,0.2c0.1,0,0.2,0,0.3-0.2s0-0.2-0.2-0.3c-3.7-1-7.6-1-11.3,0
		C79.6,69.2,79.6,69.4,79.8,69.4L79.8,69.4z"/>
	<path class="st9" d="M89.1,68.7c24.2,0.1,21.6-40.3,46.7-39.2c0.4,0,0.4-0.6,0-0.6c-9.2-0.8-16.3,6-20.8,13.2
		c-6.8,10.9-11.3,24.5-25.9,26.4C89,68.5,89,68.7,89.1,68.7z"/>
	<path class="st9" d="M148.8,32.7c1.4,6.5,3.1,12.7,3.1,19.4s-1.3,13-3.1,19.4c0,0.1,0.1,0.3,0.2,0.3c0.1,0,0.2,0,0.3-0.1
		c4.5-11.7,5-27.4-0.3-39C149,32.5,148.8,32.6,148.8,32.7L148.8,32.7z"/>
	<path class="st9" d="M147.8,93.4c-2,3.8-4,7.5-5.9,11.3c-0.1,0.3,0.3,0.5,0.4,0.2c2-3.8,4-7.5,5.9-11.3
		C148.4,93.4,148,93.1,147.8,93.4z"/>
	<path class="st9" d="M149.2,69.4c-0.5,6.2,4.2,11,2,17.3c-0.1,0.3,0.4,0.4,0.5,0.1c2.2-6.3-2.5-11.2-2-17.4
		C149.7,69.1,149.2,69.1,149.2,69.4L149.2,69.4z"/>
	<path class="st9" d="M136.7,87.4c0.4,0.4,0.9,0.9,1.4,1.3c0.2,0.2,0.6-0.2,0.4-0.4c-0.5-0.4-1-0.8-1.4-1.3c-0.1-0.1-0.3-0.1-0.4,0
		C136.6,87.2,136.6,87.3,136.7,87.4z"/>
	<path class="st9" d="M129.4,71c0.2,3.1,1,6.2,2.2,9c0.1,0.3,0.6,0,0.4-0.2c-1.2-2.8-2-5.7-2.2-8.8C129.9,70.7,129.3,70.7,129.4,71z
		"/>
	<path class="st9" d="M138.3,88.3c-0.7,2.9-1.1,5.8-1.2,8.7c0,0.1,0.1,0.2,0.2,0.2c0.1,0,0.2-0.1,0.2-0.2c0.7-2.9,1-5.8,1-8.8
		C138.5,88.3,138.4,88.2,138.3,88.3C138.3,88.3,138.3,88.3,138.3,88.3L138.3,88.3z"/>
	<path class="st9" d="M137.9,97.4c-2.2-0.1-4.7-1.4-6.9-0.3c-1.3,0.5-1.9,2-1.4,3.3c0,0.1,0,0.1,0.1,0.2c0,0.1,0.1,0.1,0.2,0.1
		c0.1,0,0.1-0.1,0.1-0.2c-1.1-4.5,5.8-2.7,7.9-2.7c0.1,0,0.2-0.1,0.2-0.2C138,97.5,138,97.4,137.9,97.4z"/>
	<path class="st9" d="M133.5,99.4c-0.9-0.5-2.1-0.2-2.7,0.7c-0.7,1.2-0.7,2.6,0,3.8c0.1,0.1,0.2,0.1,0.2-0.1
		c-0.3-0.9-0.4-1.9-0.2-2.8c0.2-1,1.2-1.7,2.3-1.5c0.1,0,0.2,0.1,0.3,0.1C133.5,99.7,133.7,99.5,133.5,99.4L133.5,99.4z"/>
	<path class="st9" d="M135.8,100.3c-1.6,0-3.3,0.4-4,2c-0.6,1.1-0.1,2.5,1,3c0.1,0,0.1,0.1,0.2,0.1c0.2,0.1,0.4-0.3,0.2-0.4
		c-1-0.5-1.4-1.7-1-2.7c0.1-0.2,0.2-0.4,0.4-0.5c0.9-0.8,2-1.3,3.2-1.3C136,100.6,136,100.3,135.8,100.3L135.8,100.3z"/>
	<path class="st9" d="M134.4,105.6c2.6-0.3,7.5,1,9-2.1c0.1-0.2-0.1-0.3-0.2-0.2c-2.7,2.4-5.7,1.1-8.8,2.1
		C134.3,105.4,134.3,105.4,134.4,105.6C134.3,105.5,134.4,105.6,134.4,105.6L134.4,105.6z"/>
	<path class="st9" d="M136.1,29.4c7.8-7.2,18.8,0.3,18.6,9.8c0,0.1,0.1,0.2,0.2,0.2s0.2-0.1,0.2-0.2c0.1-10-11.4-17.7-19.5-10.1
		C135.5,29.2,135.9,29.6,136.1,29.4z"/>
	<path class="st9" d="M130.3,97.6c-1.1,0.2-2.3,0.2-3.4,0c-1.7-0.3-5.5-2.2-6.1-4.1c-1.1-3.7,2.5-7.4,5.8-8.1
		c4.4-0.9,8.9,1.5,12.8,3.2c3.7,1.5,6.9,3.8,9.4,6.9c1.7,2.1,3.1,4.2,5.3,5.8c3.2,2.3,8.9,4.2,12.7,2c2.1-1.2,2.5-3.6,0.4-5.2
		c-1.6-1.2-3.4-0.8-5.2-1.2c-4.8-1.1-7.4-4-9.6-8.1c-2.7-5.1-6.5-5.4-11.8-6.7c-9.1-2.3-22.9-4.7-26.6,7.2
		c-3.5,11.2,8.4,14.2,16.7,14.4c0.1,0,0.2-0.1,0.2-0.2s-0.1-0.2-0.2-0.2c-7.7-0.3-19-2.6-16.4-13.2c2.9-11.8,16.5-9.9,25.2-7.6
		c4.7,1.2,9.3,1.6,12,6.1c1.4,2.4,2,4.5,4.4,6.3c0.9,0.6,1.8,1.2,2.8,1.6c1.2,0.6,3.5,0.6,4.6,1.2h0.1c3.3,4.3,2.9,6.2-1.1,5.8
		c-2.8-0.1-5.6-1.1-7.8-2.8c-3-2.2-4.6-5.5-7.3-8c-2.2-2-4.8-3.6-7.5-4.7c-4.4-2-9.7-4.7-14.7-2.9c-3.4,1.3-6.1,4.8-5,8.6
		c1.3,4.5,6.3,4.9,10.2,4.3C130.5,98,130.5,97.6,130.3,97.6L130.3,97.6z"/>
	<path class="st9" d="M128.3,86c-0.6,0.8-1,1.7-1.4,2.7c-0.4,0.8-0.8,1.6-1,2.5c0,0.2,0.2,0.3,0.3,0.1c0.5-0.9,0.9-1.8,1.2-2.8
		c0.4-0.8,0.8-1.6,1.1-2.4C128.5,86,128.3,85.9,128.3,86L128.3,86z"/>
	<path class="st9" d="M126,91.2c-1-0.4-2.1-0.5-3.2-0.4c-0.2,0-0.3,0.1-0.3,0.3c0,0.1,0.1,0.2,0.2,0.3c0.2,0.1,0.3,0.2,0.5,0.3
		c0.2,0,0.3-0.1,0.2-0.3c-0.1-0.2-0.2-0.3-0.3-0.5l-0.2,0.5c1-0.1,2.1,0,3.1,0.2c0.1,0,0.2-0.1,0.2-0.2
		C126.1,91.3,126.1,91.3,126,91.2z"/>
	<path class="st9" d="M132.3,96.8c2.1-2.2,4-4.6,5.8-7c0.1-0.2-0.2-0.5-0.4-0.3c-2,2.3-3.9,4.6-5.7,7.1
		C132,96.8,132.2,96.9,132.3,96.8L132.3,96.8z"/>
	<path class="st9" d="M129.2,85.5c-2.9,1.4-5.5,3.4-7.6,5.8c-0.2,0.2,0.1,0.6,0.4,0.4c2.2-2.3,4.7-4.3,7.4-6c0.1,0,0.1-0.1,0-0.2
		C129.3,85.4,129.2,85.4,129.2,85.5L129.2,85.5L129.2,85.5z"/>
	<path class="st9" d="M114.2,95.2c-10.3,5.2-20.5,6.7-31.7,4.3c-0.2,0-0.3,0.1-0.3,0.3c0,0.1,0.1,0.3,0.2,0.3
		c10.9,3,22.5,1.4,32.1-4.6c0.1-0.1,0.1-0.2,0-0.3C114.3,95.2,114.3,95.2,114.2,95.2z"/>
	<path class="st9" d="M122.9,90.9c-0.8,0.5-1.5,0.9-2.2,1.5c-0.2,0.2,0.1,0.6,0.3,0.4c0.7-0.5,1.4-1.1,2.1-1.7
		C123.2,91,123.1,90.8,122.9,90.9z"/>
	<path class="st9" d="M128.7,86.3c0.6-0.3,1.2-0.7,1.7-1.2c0-0.1,0-0.1-0.1-0.1c-0.6,0.3-1.2,0.6-1.7,1.1c0,0,0,0.1,0,0.2
		C128.6,86.3,128.6,86.3,128.7,86.3z"/>
	<path class="st9" d="M130,85.5c-3.8,0.8-7.2,3.8-9.7,6.7c-0.3,0.3,0.2,0.8,0.5,0.5c1.3-1.5,2.8-2.9,4.5-4.1
		c1.5-1.1,3.2-1.9,4.8-2.9c0,0,0.1-0.1,0-0.1C130.1,85.5,130,85.5,130,85.5z"/>
	<path class="st9" d="M58.3,87.6c-8.8,5.3-18.6,6.6-28.6,8.1c-4.2,0.6-9.8,0.4-13.7,2.1c-1.8,0.8-2.6,1.8-2.4,3.8
		c0,0.3,0.5,0.3,0.4,0c-0.5-5.3,22.1-6.4,25.7-7c6.5-1,13.4-2.6,18.8-6.7C58.7,87.7,58.5,87.4,58.3,87.6L58.3,87.6z"/>
	<path class="st9" d="M16.6,99.7c-1.2,0-2.1,0.9-2.2,2c0,0.1,0,0.2,0,0.3c0.1,0.9,1.2,2.4,2.2,1.8c0.1,0,0.1-0.1,0-0.2c0,0,0,0,0,0
		c-0.3-0.2-0.6-0.2-0.9-0.4c-0.4-0.2-0.7-0.6-0.9-1.1c-0.2-1,0.5-2,1.6-2.2c0,0,0,0,0.1,0C16.7,100,16.7,99.8,16.6,99.7L16.6,99.7z"
		/>
	<path class="st9" d="M19.1,100.6c-0.9,0-1.7,0.7-1.7,1.6c0,0.3,0.1,0.6,0.2,0.9c0.7,1.2,2.2,1.6,3.4,0.9c0.1-0.1,0.2-0.1,0.3-0.2
		c0.1-0.1,0-0.3-0.1-0.3c-0.9,0.1-1.8,0.4-2.6-0.1c-1-0.7-0.9-2.5,0.5-2.4C19.3,100.9,19.3,100.6,19.1,100.6z"/>
	<path class="st9" d="M23.3,104c2-0.2,4.7-0.3,6.5-1.4c0.1-0.1,0.1-0.2,0-0.3c0,0-0.1-0.1-0.1-0.1c-1,0.1-2,0.4-3,0.7
		c-1.1,0.3-2.3,0.6-3.4,0.8C23.1,103.7,23.1,104,23.3,104L23.3,104z"/>
	<path class="st9" d="M29.5,103c10.7,0.6,21.4,0.6,32.2,0.1c0.1,0,0.2-0.1,0.2-0.2s-0.1-0.2-0.2-0.2c-10.7-0.6-21.4-0.6-32.2,0
		c-0.1,0-0.1,0.1-0.1,0.2C29.4,103,29.4,103,29.5,103L29.5,103z"/>
	<path class="st9" d="M63.6,102.7c2.9-0.9,5.5-2.5,7.6-4.5c0.2-0.2-0.1-0.4-0.3-0.3c-2.3,1.8-4.8,3.4-7.5,4.6
		c-0.1,0-0.1,0.1-0.1,0.1S63.6,102.7,63.6,102.7z"/>
	<path class="st9" d="M41.5,89.5c-7.3,1.9-14.8,3-22.3,3.5c-2.6,0.2-5.6,0.1-4.3,3.4c0.1,0.3,0.6,0.2,0.5-0.1
		c-1.2-3,12.1-3.2,13.6-3.4c4.3-0.7,8.5-1.6,12.6-2.8c0.1,0,0.2-0.2,0.1-0.3C41.7,89.6,41.6,89.5,41.5,89.5z"/>
	<path class="st9" d="M17,95.2c-0.6-0.2-1.3,0.1-1.5,0.7c0,0,0,0.1,0,0.1c-0.1,0.6,0.3,1.4,0.9,1.4c0.1,0,0.2-0.2,0.1-0.3
		c-0.3-0.2-0.6-0.5-0.6-0.9c0-0.5,0.4-0.8,0.9-0.7c0,0,0.1,0,0.1,0c0.1,0,0.2-0.1,0.2-0.1C17.1,95.2,17.1,95.2,17,95.2z"/>
	<path class="st9" d="M18.1,96.2c-0.4,0-0.7,0.2-0.7,0.6c0,0.1,0,0.2,0,0.3c0.1,0.3,0.4,0.5,0.7,0.4c0.1,0,0.2-0.1,0.2-0.1
		c0.1-0.1,0-0.1,0-0.2c0,0,0,0-0.1,0L18,97c-0.2-0.4-0.2-0.6,0.1-0.6c0.1,0,0.1-0.1,0.1-0.1C18.2,96.2,18.2,96.2,18.1,96.2
		L18.1,96.2z"/>
	<path class="st9" d="M71.3,68.8c0.1,0.9,0.8,1.6,1.7,1.7c0.1,0,0.1-0.1,0.1-0.1c0,0,0-0.1-0.1-0.1c-0.6-0.4-1.1-0.9-1.5-1.5
		c0-0.1-0.1-0.1-0.2,0C71.4,68.8,71.3,68.8,71.3,68.8z"/>
	<path class="st9" d="M71.6,70.9L70.9,71c-0.2,0-0.2,0.2-0.1,0.3c0.4,0.2,0.9,0.4,1.3,0.7c0.3,0.3,0.6,0.7,1,0.9c0.1,0,0.1,0,0.1,0
		c0,0,0,0,0-0.1c-0.1-0.4-0.6-0.7-0.9-1c-0.4-0.3-0.8-0.6-1.3-0.7v0.3l0.7-0.1C71.9,71.3,71.9,70.9,71.6,70.9L71.6,70.9z"/>
	<path class="st9" d="M71.7,73.7l0.4,0.5l0.2-0.3h-0.7c-0.2,0-0.3,0.2-0.2,0.3c0.2,0.4,0.8,0.8,1.1,0.4c0.1-0.1,0.1-0.2,0-0.3
		c0,0-0.1,0-0.1-0.1c-0.3-0.1-0.5,0-0.7-0.3l-0.2,0.3c0.2,0,0.4,0,0.7,0c0.1,0,0.2-0.1,0.2-0.2c0,0,0-0.1,0-0.1l-0.4-0.5
		C71.9,73.3,71.6,73.5,71.7,73.7L71.7,73.7z"/>
	<path class="st9" d="M71.4,75.6l0.5,0.7l0.1-0.4c-0.4,0.1-0.9,0.2-1.3,0.3c-0.1,0-0.2,0.2-0.2,0.3c0.1,0.3,0.4,0.5,0.7,0.4
		c0.1,0,0.1,0,0.2-0.1c0.1,0,0.1-0.1,0.1-0.2c0,0-0.1-0.1-0.1-0.1c-0.2-0.1-0.3-0.1-0.4-0.3l-0.1,0.4c0.4-0.1,0.9-0.2,1.3-0.3
		c0.1,0,0.2-0.2,0.2-0.3c0,0,0,0,0,0l-0.6-0.7C71.6,75,71.3,75.4,71.4,75.6L71.4,75.6z"/>
	<path class="st9" d="M70.5,77.4l0.2,0.2l0.2-0.4l-1.4,0.2c-0.3,0-0.3,0.5,0,0.4l1.4-0.1c0.1,0,0.2-0.1,0.2-0.2c0-0.1,0-0.1-0.1-0.2
		l-0.2-0.2c-0.1-0.1-0.2-0.1-0.3,0C70.4,77.2,70.4,77.3,70.5,77.4z"/>
	<path class="st9" d="M68.3,78.3c0.4,0.3,1,0.4,1.5,0.3l-0.1-0.4c-0.3,0.1-0.6,0.3-0.9,0.6c0,0.1,0,0.2,0,0.2c0,0,0.1,0,0.1,0
		c0.4-0.1,0.7-0.2,1-0.4c0.2-0.1,0.1-0.5-0.1-0.4c-0.4,0.1-0.9,0-1.3-0.2c-0.1-0.1-0.2,0-0.3,0.1C68.1,78.2,68.2,78.3,68.3,78.3
		L68.3,78.3z"/>
	<path class="st9" d="M69.5,79.6c0.5,0,0.9,0,1.4,0v-0.5c-0.6,0-1.1,0.3-1.4,0.8c-0.1,0.2,0.2,0.3,0.3,0.2c0.4-0.2,0.6-0.5,1.1-0.6
		c0.1,0,0.2-0.1,0.2-0.2c0-0.1-0.1-0.2-0.2-0.2c-0.5,0-0.9,0-1.4,0c-0.1,0-0.2,0.1-0.2,0.2C69.3,79.5,69.4,79.6,69.5,79.6z"/>
	<path class="st9" d="M77.3,71.8c-0.2,0.8-0.4,1.5-0.7,2.3c-0.3,0.7-0.6,1.5-0.8,2.2c0,0.2,0.2,0.4,0.4,0.2c1-1.1,1.4-3.2,1.4-4.7
		c0-0.1-0.1-0.2-0.2-0.2S77.3,71.7,77.3,71.8L77.3,71.8z"/>
	<path class="st9" d="M89.8,71.5c0.2,1.3-0.1,2.6-0.8,3.7c-0.2,0.4,0.4,0.7,0.6,0.4c0.8-1.2,1-2.8,0.5-4.2c0-0.1-0.1-0.1-0.2-0.1
		S89.7,71.5,89.8,71.5z"/>
	<path class="st9" d="M67.4,101.4c3.5,0,7-0.2,10.5-0.4c0.3,0,0.3-0.5,0-0.5c-3.5,0.1-7,0.3-10.5,0.6
		C67.2,101.1,67.2,101.4,67.4,101.4z"/>
	<path class="st9" d="M78.2,100.8c1.8-0.5,4.1-1.2,5.4-2.6c0.1-0.1,0-0.2,0-0.2c0,0-0.1,0-0.2,0c-0.8,0.4-1.6,1-2.4,1.4
		c-0.9,0.5-1.9,0.9-2.9,1.2c-0.1,0-0.1,0-0.1,0.1C78.1,100.8,78.1,100.8,78.2,100.8L78.2,100.8z"/>
	<path class="st9" d="M121,40.1c1-2.2,2.6-4.1,4.6-5.6c2.5-1.6,4.9-1.5,7.7-1.8c0.2,0,0.3-0.1,0.3-0.3c0-0.1-0.1-0.3-0.2-0.3
		c-5.1-2-11.7,2.8-12.7,7.8C120.7,40.2,120.9,40.3,121,40.1z"/>
	<path class="st9" d="M144.9,28.5c1.8,0.5,3.4,1.5,4.7,2.9c0.6,0.7,1,1.5,1.3,2.4c0.1,0.7,0.3,1.3,0.6,2c0.1,0.1,0.2,0.2,0.3,0.1
		c0.1,0,0.1-0.1,0.1-0.1c0.5-1.7-0.8-3.8-1.9-5c-1.3-1.5-3.1-2.4-5.1-2.5c-0.1,0-0.2,0.1-0.2,0.2C144.7,28.4,144.8,28.5,144.9,28.5
		L144.9,28.5z"/>
	<path class="st9" d="M150.7,93.2c-1.2,6.2,8.1,9.5,12.9,9.3c0.4,0,0.5-0.6,0.1-0.7c-5.3-1.2-11.6-2.1-12.5-8.6
		C151.1,93,150.7,93,150.7,93.2z"/>
	<path class="st9" d="M123.3,82.5c-4.3,1.8-11.2,9.7-5.8,13.8c0.3,0.2,0.7-0.2,0.4-0.4c-5.3-4.1,2-11,5.5-13.2
		C123.6,82.7,123.4,82.4,123.3,82.5z"/>
	<path class="st9" d="M86.9,98.8c7.7,0.8,15.5-1,22.1-5c0.1-0.1,0.1-0.2,0-0.3c-0.1-0.1-0.2-0.1-0.3-0.1c-6.9,3.1-14.3,4.8-21.9,5.1
		C86.7,98.5,86.8,98.7,86.9,98.8L86.9,98.8z"/>
	<path class="st9" d="M99.5,67.4c6.8-4.2,12.9-10.7,15.9-18.2c0.1-0.1-0.2-0.2-0.2-0.1c-4.2,7.3-8.9,13.2-15.8,18.1c0,0,0,0.1,0,0.2
		C99.4,67.4,99.4,67.4,99.5,67.4z"/>
	<path class="st9" d="M94.6,67.2v0.3l0,0V67.2L94.6,67.2L94.6,67.2z"/>
	<path class="st9" d="M118.5,30.4c3.5-3.6,7.4-4.8,12.3-4.7c0.1,0,0.1-0.1,0.1-0.1c0,0,0-0.1-0.1-0.1c-4.5-1-9.7,1.2-12.5,4.8
		C118.3,30.4,118.4,30.5,118.5,30.4L118.5,30.4z"/>
	<path class="st9" d="M117.7,27c3.4-3.3,8.3-4.5,12.8-3.2c0.1,0,0.2-0.1,0.2-0.2c0-0.1,0-0.2-0.1-0.2c-4.7-1.4-9.7-0.1-13.1,3.4
		c0,0,0,0.1,0,0.2C117.6,27.1,117.7,27.1,117.7,27C117.7,27.1,117.7,27.1,117.7,27z"/>
	<path class="st9" d="M166.5,95.2c1.4,0.3,2.6,1,3.4,2.2c0.7,1.1,1,2.4,0.8,3.7c0,0.2,0.2,0.2,0.3,0.1c1.3-2.7-1.8-6.4-4.6-6.2
		c-0.1,0-0.1,0.1-0.1,0.1C166.4,95.2,166.4,95.3,166.5,95.2L166.5,95.2z"/>
	<path class="st9" d="M169.1,93.2c1.7,0.8,3,2.2,3.8,3.9c0.8,1.8,0.5,3.2,0.3,5.1c0,0.1,0.1,0.2,0.2,0.2c0.1,0,0.1,0,0.2-0.1
		c1.9-3.3-1-8.4-4.4-9.3c-0.1,0-0.1,0-0.2,0.1C169,93.1,169,93.2,169.1,93.2L169.1,93.2z"/>
	<path class="st9" d="M154.8,37.6c0.9,8.6,0.4,16.6-3,24.7c-0.2,0.4,0.4,0.5,0.6,0.2c3.3-7.8,4.6-16.5,2.6-24.9
		C155,37.5,154.8,37.5,154.8,37.6L154.8,37.6z"/>
	<path class="st9" d="M50.8,81c1.4-0.5,3-0.7,4.5-0.7c0,0,0.1,0,0.1-0.1s0-0.1-0.1-0.1C53.7,80.1,52.2,80.4,50.8,81
		C50.7,80.9,50.8,81,50.8,81L50.8,81z"/>
	<path class="st9" d="M54.5,80.5c-0.9,2.8-2.6,5.1-5.7,5.6c-0.2,0-0.1,0.3,0.1,0.2C51.6,85.8,54.4,83.4,54.5,80.5L54.5,80.5z"/>
	<path class="st9" d="M51,83.4c0.4-0.8,0.6-1.7,0.5-2.6c0-0.2-0.3-0.2-0.2,0c0.1,0.9-0.1,1.7-0.5,2.5C50.7,83.5,50.9,83.6,51,83.4z"
		/>
	<path class="st9" d="M48.5,86c-0.1,0.5,0.2,1,0.7,1.1c0.4,0.1,0.7-0.1,1-0.4c0-0.1,0-0.1-0.1-0.1c-0.2,0.3-0.6,0.4-1,0.3
		C48.7,86.8,48.5,86.4,48.5,86C48.5,86,48.4,86,48.5,86L48.5,86z"/>
	<path class="st9" d="M49.5,87c3,0.9,6-1.1,8.9,0.3c0.1,0,0.2-0.1,0.1-0.1C55.7,85.6,52.5,87.5,49.5,87C49.5,86.9,49.5,87,49.5,87
		L49.5,87z"/>
	<path class="st9" d="M53.4,83.1"/>
	<path class="st9" d="M50.2,84.6l-0.8,0.6c-0.1,0.1,0,0.2,0.1,0.1c0.3-0.2,0.5-0.4,0.8-0.7c0,0,0-0.1,0-0.1
		c-0.3,0.2-0.6,0.4-0.8,0.6l0.1,0.1l0.7-0.7C50.4,84.6,50.3,84.5,50.2,84.6L50.2,84.6z"/>
	<path class="st9" d="M54,76.4c-0.4,0.3-0.7,0.7-0.8,1.1c0,0,0,0.1,0,0.1c0,0,0.1,0,0.1,0c0.2-0.4,0.5-0.7,0.8-1
		C54.1,76.5,54.1,76.4,54,76.4L54,76.4z"/>
	<path class="st9" d="M55,76.7c-0.2,0.2-0.3,0.5-0.4,0.7c0,0.1,0.1,0.1,0.2,0.1c0.3-0.1,0.4-0.4,0.5-0.6S55.1,76.5,55,76.7z"/>
	<path class="st9" d="M57.1,76.4c-0.2,0.2-0.4,0.5-0.6,0.7s0.1,0.4,0.3,0.2l0.6-0.7C57.5,76.5,57.2,76.2,57.1,76.4z"/>
	<path class="st9" d="M58.8,64.1c-1.5,1.2-3.1,2.1-4.8,2.9c-1.2,0.3-2.3,0.8-3.3,1.5c-1.2,0.9-2.1,2.6-1.1,4
		c0.1,0.2,0.4,0.1,0.3-0.1c-1-3,2.1-4,4.3-4.9c1.8-0.8,3.4-1.9,4.8-3.3c0,0,0-0.1,0-0.1C59,64.1,58.9,64.1,58.8,64.1L58.8,64.1z"/>
	<path class="st9" d="M49.8,72.5c-1.3,1.3-2.7,2.6-4.2,3.8c-0.2,0.2,0.1,0.5,0.3,0.4c1.6-1.1,3-2.4,4.2-3.9
		C50.1,72.6,49.9,72.4,49.8,72.5L49.8,72.5z"/>
	<path class="st9" d="M45.9,75.8c-0.4,1.6-0.4,3.2-0.3,4.8c0,0.6,0.4,1,1,1.1c2.9,0.8,5.5-2.2,8.4-1.6c0.4,0.1,0.5-0.5,0.2-0.6
		c-1.9-0.4-3.6,0.4-5.3,1.1c-1.2,0.5-3.3,1.2-3.8-0.6c-0.3-1.2,0-3.1-0.1-4.3C46,75.7,45.9,75.7,45.9,75.8L45.9,75.8z"/>
	<path class="st9" d="M55,80c-0.5,1.4-1.4,2.7-2.5,3.7c-1.1,0.8-2.4,1.5-3.7,1.9c-0.2,0.1-0.1,0.4,0.1,0.4c3,0,5.8-3.2,6.4-5.9
		c0-0.1,0-0.1-0.1-0.2C55.1,79.9,55,79.9,55,80z"/>
	<path class="st9" d="M51.2,82.6c0.2-0.5,0.4-0.9,0.5-1.4c0.1-0.4,0.1-0.8,0-1.2c0-0.1-0.1-0.1-0.2,0c0,0,0,0,0,0
		c-0.1,0.4-0.1,0.7-0.1,1.1c0,0.5-0.1,1-0.3,1.5C51.1,82.7,51.2,82.7,51.2,82.6L51.2,82.6z"/>
	<path class="st9" d="M49.3,85.9c-0.5,1.3,0.5,1.7,1.7,1.7c4.3,0,8.8-5.2,12.9-0.9c0.2,0.2,0.6-0.1,0.4-0.4C63,85,61,84.3,59.2,84.6
		c-1,0.2-2,0.4-3,0.8c-0.5,0.2-7.2,3-6.6,0.5C49.6,85.9,49.4,85.8,49.3,85.9L49.3,85.9z"/>
	<path class="st9" d="M60.3,85c-0.7,1.1-1.6,2.2-2.5,3.1c-0.2,0.2,0.1,0.4,0.3,0.3c1-1,1.8-2.1,2.5-3.3c0-0.1,0-0.1-0.1-0.2
		C60.4,84.9,60.3,84.9,60.3,85z"/>
	<path class="st9" d="M50.8,81.1L50.8,81.1L50.8,81.1z"/>
	<path class="st9" d="M50.6,81c-0.3,0.8-0.6,1.6-0.8,2.4c-0.3,0.7-0.6,1.4-0.8,2.2c0,0.1,0.1,0.1,0.1,0c0.3-0.8,0.9-1.5,1.2-2.3
		c0.3-0.7,0.5-1.5,0.6-2.3c0-0.1-0.1-0.1-0.2-0.1C50.7,80.9,50.6,80.9,50.6,81L50.6,81z"/>
	<path class="st9" d="M68.1,79.4c0,0.4,0.1,0.7,0.3,1c0.2,0.4,0.3,0.9,0.2,1.4l0.5-0.1c-0.1-0.1-0.3-0.2-0.4-0.2
		c-0.2,0-0.3,0.2-0.2,0.4c0.1,0,0.1,0.1,0.2,0.2c0.1,0.1,0.3,0.1,0.4,0c0,0,0-0.1,0.1-0.1c0.1-0.5,0.1-1-0.1-1.4
		c-0.1-0.5-0.4-0.9-0.7-1.3C68.3,79.2,68.1,79.3,68.1,79.4L68.1,79.4z"/>
	<path class="st9" d="M68.3,82.3c0.3,1.1,0.4,2.3,0.3,3.4l0.3-0.1c-0.2-0.2-0.5-0.4-0.8-0.4c-0.2,0-0.2,0.3,0,0.3l0.5,0.3
		c0.1,0.2,0.3,0.1,0.4,0c0.5-1.1-0.1-2.5-0.3-3.6C68.7,82,68.3,82.2,68.3,82.3L68.3,82.3z"/>
	<path class="st9" d="M67.8,85.6c-0.1,0.4-0.1,0.8-0.2,1.2s0,1-0.3,1.3l0.4,0.1c-0.2-0.4-0.3-0.9-0.8-1.1c-0.1,0-0.2,0-0.2,0.1
		c0,0,0,0,0,0c0,0.4,0.3,0.8,0.4,1.2c0,0.2,0.2,0.2,0.4,0.2c0,0,0,0,0,0c0.3-0.2,0.5-0.6,0.5-1c0.1-0.7,0.1-1.3,0.1-2
		C68.2,85.3,67.9,85.3,67.8,85.6L67.8,85.6z"/>
	<path class="st9" d="M66.4,87.3c-0.5,1.2-2.2,1.7-3.2,2.2l0.2,0.2c0.4-0.6,1-1.2,1-2c0-0.2-0.3-0.2-0.3,0c0,0.7-0.6,1.3-1,1.8
		c-0.1,0.1,0.1,0.3,0.2,0.2c1.2-0.6,2.8-1.1,3.3-2.4C66.6,87.3,66.4,87.2,66.4,87.3L66.4,87.3z"/>
	<path class="st9" d="M63.8,87.4c-0.3,0.2-0.5,0.3-0.8,0.3l0.2,0.3c0.4-0.4,0.7-0.9,0.9-1.5c0.1-0.2-0.2-0.3-0.3-0.1
		c-0.3,0.5-0.6,0.9-0.9,1.4c0,0.1,0,0.2,0.1,0.2c0,0,0.1,0,0.1,0c0.3-0.1,0.6-0.2,0.9-0.4C64,87.5,63.9,87.3,63.8,87.4L63.8,87.4z"
		/>
	<path class="st9" d="M68.1,66.3c-1.4,0.5-2.7,1.3-3.8,2.2c-1.1,0.7-2.1,1.7-2.9,2.8c0,0.1,0.1,0.2,0.1,0.1c1.8-2.1,4.1-3.7,6.7-4.8
		C68.3,66.5,68.2,66.2,68.1,66.3z"/>
	<path class="st9" d="M67.4,66.8c-0.6,1.1-0.5,2.5,0.2,3.5c0,0,0.1,0.1,0.1,0c0,0,0,0,0,0c0.1-0.5-0.2-0.9-0.3-1.3
		c-0.1-0.7-0.1-1.4,0.2-2.1C67.6,66.8,67.5,66.7,67.4,66.8C67.5,66.7,67.4,66.7,67.4,66.8L67.4,66.8z"/>
	<path class="st9" d="M67.4,70.1c0,1.4-0.1,2.8-0.4,4.2l0,0c0.5-1.3,0.7-2.8,0.6-4.2C67.5,70,67.5,70,67.4,70.1
		C67.4,70,67.3,70,67.4,70.1L67.4,70.1z"/>
	<path class="st9" d="M61.5,71.7c0.6-0.3,1.1-0.6,1.7-1c0,0,0-0.1,0-0.1c0,0-0.1,0-0.1,0l0,0c-0.6,0.3-1.1,0.6-1.7,0.9
		c0,0-0.1,0.1,0,0.1S61.4,71.7,61.5,71.7L61.5,71.7L61.5,71.7z"/>
	<path class="st9" d="M62.4,71.3l0.5-0.2l0,0L62.4,71.3C62.4,71.3,62.4,71.3,62.4,71.3L62.4,71.3z"/>
	<path class="st9" d="M62.9,71L62.9,71L62.9,71z"/>
	<path class="st9" d="M63.1,71.9c0.2-0.4,0.4-0.7,0.7-1l-0.2-0.1c0,0.2-0.1,0.4-0.2,0.7c0,0,0,0.1,0.1,0c0.1-0.2,0.2-0.4,0.3-0.6
		c0-0.1-0.1-0.2-0.2-0.1c-0.3,0.3-0.5,0.7-0.7,1.1C62.9,71.9,63,72,63.1,71.9z"/>
	<path class="st9" d="M63.5,72.1c0,0,0,0.1,0,0.2c0,0,0,0,0.1,0c0.2,0,0.5-0.7,0.6-0.8s-0.1-0.1-0.1-0.1c-0.2,0.3-0.6,0.7-0.6,1l0,0
		h0c0,0,0,0,0.1,0l0,0c0,0,0-0.1,0,0c0.1-0.1,0.2-0.3,0.2-0.4l0.3-0.5l-0.1-0.1c-0.2,0.2-0.3,0.5-0.5,0.7
		C63.6,72.1,63.6,72.1,63.5,72.1L63.5,72.1z"/>
	<path class="st9" d="M64.3,71.9L64.3,71.9L64.3,71.9z"/>
	<path class="st9" d="M64.5,72L64.5,72L64.5,72z"/>
	<path class="st9" d="M64.9,72.3v0.1l0,0V72.3L64.9,72.3z"/>
	<path class="st9" d="M65,72.4c-0.1,0.2-0.1,0.4-0.1,0.6c0,0,0,0.1,0.1,0.1c0,0,0,0,0,0c0.2,0,0.3-0.1,0.4-0.3
		c0.1-0.1-0.1-0.2-0.2-0.1c-0.2,0-0.3-0.1-0.1-0.3C65.1,72.4,65.1,72.3,65,72.4C65,72.3,65,72.3,65,72.4C65,72.4,65,72.4,65,72.4
		L65,72.4z"/>
	<path class="st9" d="M65.8,71.5v-0.3c0-0.2-0.2-0.2-0.2,0l-0.1,0.3C65.4,71.7,65.7,71.7,65.8,71.5L65.8,71.5z"/>
	<path class="st9" d="M66.1,73.3c0,0.2,0.1,0.4,0.2,0.6c0,0,0.1,0.1,0.1,0.1c0,0,0,0,0.1-0.1c0.3-1.3,0.8-2.5,1.2-3.8
		c0-0.1,0-0.1-0.1-0.2c-0.1,0-0.1,0-0.1,0.1c-0.6,1.2-1,2.5-1.1,3.9l0.2-0.1l-0.1-0.4C66.3,73.2,66.1,73.2,66.1,73.3L66.1,73.3z"/>
	<path class="st9" d="M64.8,72.6c0.2-0.5,0.4-1.1,0.5-1.6c0-0.1-0.1-0.2-0.1-0.1c-0.2,0.5-0.4,1.1-0.6,1.6
		C64.6,72.7,64.8,72.8,64.8,72.6L64.8,72.6z"/>
	<path class="st9" d="M60.2,59.6c0.3-0.1,0.7-0.3,1-0.4c0.2-0.1,0.6-0.3,0-0.1c-0.1,0-0.3,0.1-0.5,0.1c-0.1,0-0.1,0.2,0,0.2
		c0.1,0,0.2,0,0.3-0.1c0,0,0-0.1,0-0.1h-0.3v0.2c0.3-0.1,0.6-0.2,0.9-0.4c0,0,0-0.1,0-0.1c-0.5,0.2-1,0.4-1.5,0.6
		C60.1,59.4,60.2,59.6,60.2,59.6L60.2,59.6z"/>
	<path class="st9" d="M60.5,60.6l0.7-0.3c0.1,0,0.2-0.1,0.3-0.2c0,0,0.2-0.2,0-0.1s0,0.1,0,0.1l0.2-0.1c0,0,0-0.1,0-0.1l-1.3,0.5
		c0,0-0.1,0-0.1,0.1S60.4,60.6,60.5,60.6C60.5,60.6,60.5,60.6,60.5,60.6L60.5,60.6z"/>
	<path class="st9" d="M61.3,61.3c0.2-0.1,0.5-0.2,0.7-0.2c0,0,0.6-0.1,0.5,0s0,0,0,0s0.1,0,0.2-0.1s0,0,0,0
		c-0.5,0.1-0.9,0.2-1.4,0.3C61.2,61.2,61.2,61.3,61.3,61.3L61.3,61.3z"/>
	<path class="st9" d="M61.2,61.6l1-0.3l0.5-0.1c0.1,0,0.4-0.1,0,0l0,0l0.3-0.2l0,0L61.2,61.6L61.2,61.6L61.2,61.6z"/>
	<path class="st9" d="M62.3,62.6c0.1,0,0.2,0,0.2,0.1L62,62.8c-0.3,0-0.6,0.1-0.9,0.2c-0.1,0-0.1,0.2,0,0.2c0.9,0,1.8-0.1,2.7-0.4
		c0.1,0,0.1-0.2,0-0.2c-0.9,0.1-1.8,0.3-2.7,0.3v0.2c0.5-0.1,1-0.2,1.5-0.4c0,0,0-0.1,0-0.1C62.6,62.6,62.4,62.5,62.3,62.6
		C62.3,62.5,62.2,62.6,62.3,62.6L62.3,62.6z"/>
</g>
</svg>
