<svg id="carracters" xmlns="http://www.w3.org/2000/svg" viewBox="0 0 198.43 35.43"><defs><style>.cls-1{fill:#fff;}.cls-2{fill:#6e6e6e;opacity:0.5;}</style></defs><path d="M132.65,8l.18-.09.7.73.25-4.29H134l-.25,4.3.65-.77.16.14c-.28.31-.55.62-.83.91,0,0-.19,0-.24-.06-.28-.26-.55-.54-.83-.82Z"/><path d="M166.47,22.72c.63-.76,1.26-1.47,1.84-2.23a23.62,23.62,0,0,0,3.05-5.38,1.14,1.14,0,0,0,.07-.41c0-.51,0-1,0-1.49l-4.49.23V11.8a24.67,24.67,0,0,0,4.63-.27l.15-4.21,2.3.2c0,.29-.1.35-.62.49-.05.93-.1,1.87-.14,2.81,0,.45,0,.45.41.6l.5.17c-.17.43-.34.85-.49,1.27-.2.59-.41,1.18-.58,1.78a6.22,6.22,0,0,0-.09,1c.49-.37.91-.71,1.35-1a12.86,12.86,0,0,1,4.87-2.2,6.61,6.61,0,0,1,3.81.2,4.45,4.45,0,0,1,2.61,2.86,8.62,8.62,0,0,1,.5,2.61,13.71,13.71,0,0,1-.46,4.73.54.54,0,0,0,.17.65c.54.5,1,1,1.57,1.55.15.15.19.26,0,.45-.33.37-.61.77-.92,1.16l-1.71-1.78c-.39.46-.72.93-1.12,1.33a4.59,4.59,0,0,1-3,1.32,4.81,4.81,0,0,1-2.52-.33,3.08,3.08,0,0,1-.2-5.67,4.83,4.83,0,0,1,2.78-.45,7.36,7.36,0,0,1,3.1,1.1l.19.1c.1-.5.21-1,.28-1.44a12.23,12.23,0,0,0,.05-2.9,5.15,5.15,0,0,0-1.16-3,3.21,3.21,0,0,0-2.37-1.07,9,9,0,0,0-4.06,1,14.76,14.76,0,0,0-3.73,2.52.52.52,0,0,0-.13.35q0,5.08,0,10.18v.28h-1.6V18.47c-.56.94-1.14,2-1.77,2.93a19.57,19.57,0,0,1-2.17,2.75Zm13.82,3.42A5.79,5.79,0,0,0,181,26a3.77,3.77,0,0,0,2.53-2.22c.07-.15,0-.2-.12-.26a6,6,0,0,0-2.65-1.15,3.13,3.13,0,0,0-2.38.47,1.6,1.6,0,0,0-.22,2.56A2.93,2.93,0,0,0,180.29,26.14Z"/><path class="cls-1" d="M15.83,22.72c.63-.76,1.27-1.47,1.84-2.23a23.25,23.25,0,0,0,3-5.38,1.14,1.14,0,0,0,.07-.41c0-.51,0-1,0-1.49l-4.49.23V11.8a24.78,24.78,0,0,0,4.64-.27l.15-4.21,2.29.2c0,.29-.09.35-.62.49-.05.93-.1,1.87-.14,2.81,0,.45,0,.45.42.6l.49.17c-.17.43-.33.85-.48,1.27-.21.59-.42,1.18-.58,1.78a5.27,5.27,0,0,0-.09,1c.48-.37.9-.71,1.35-1a12.73,12.73,0,0,1,4.87-2.2,6.57,6.57,0,0,1,3.8.2A4.49,4.49,0,0,1,35,15.49a9.28,9.28,0,0,1,.5,2.61,13.72,13.72,0,0,1-.47,4.73.53.53,0,0,0,.18.65c.54.5,1,1,1.56,1.55.15.15.19.26,0,.45-.32.37-.61.77-.91,1.16l-1.72-1.78c-.38.46-.72.93-1.11,1.33a4.62,4.62,0,0,1-2.95,1.32,4.86,4.86,0,0,1-2.53-.33,3.09,3.09,0,0,1-.2-5.67,4.86,4.86,0,0,1,2.78-.45,7.31,7.31,0,0,1,3.1,1.1l.19.1c.1-.5.22-1,.28-1.44a12.23,12.23,0,0,0,0-2.9,5.15,5.15,0,0,0-1.16-3,3.21,3.21,0,0,0-2.37-1.07,9,9,0,0,0-4.06,1,14.94,14.94,0,0,0-3.73,2.52.52.52,0,0,0-.13.35V28.15H20.74V18.47c-.56.94-1.14,2-1.77,2.93a18.86,18.86,0,0,1-2.17,2.75Zm13.82,3.42a5.38,5.38,0,0,0,.75-.1,3.75,3.75,0,0,0,2.53-2.22c.08-.15,0-.2-.11-.26a6,6,0,0,0-2.66-1.15,3.11,3.11,0,0,0-2.37.47,1.6,1.6,0,0,0-.22,2.56A2.89,2.89,0,0,0,29.65,26.14Z"/><path class="cls-2" d="M129.69,22.73c.63-.76,1.27-1.47,1.84-2.23a22.89,22.89,0,0,0,3.05-5.38,1.14,1.14,0,0,0,.07-.41c0-.51,0-1,0-1.49l-4.49.23V11.81a24.72,24.72,0,0,0,4.63-.27L135,7.33l2.29.2c0,.29-.09.36-.62.49,0,.93-.09,1.87-.14,2.82,0,.44,0,.44.42.59l.49.17c-.16.44-.33.85-.48,1.28s-.42,1.17-.58,1.77a6.22,6.22,0,0,0-.09,1c.48-.37.9-.71,1.35-1a12.88,12.88,0,0,1,4.87-2.2,6.57,6.57,0,0,1,3.8.2,4.51,4.51,0,0,1,2.62,2.86,8.94,8.94,0,0,1,.5,2.61,13.48,13.48,0,0,1-.47,4.73.55.55,0,0,0,.18.66c.54.49,1,1,1.56,1.55.15.14.19.25,0,.44-.32.37-.61.77-.91,1.16l-1.72-1.78c-.38.46-.72.93-1.11,1.33A4.62,4.62,0,0,1,144,27.52a4.86,4.86,0,0,1-2.53-.33,3.09,3.09,0,0,1-.2-5.67,4.86,4.86,0,0,1,2.78-.45,7.54,7.54,0,0,1,3.11,1.1l.19.1c.09-.5.21-1,.27-1.44a12.23,12.23,0,0,0,0-2.9,5.08,5.08,0,0,0-1.16-3,3.16,3.16,0,0,0-2.37-1.06,8.75,8.75,0,0,0-4,1,14.81,14.81,0,0,0-3.74,2.52.54.54,0,0,0-.13.35V28.17H134.6V18.48c-.56.94-1.14,1.95-1.76,2.93a19.64,19.64,0,0,1-2.18,2.75Zm13.82,3.43c.17,0,.47,0,.75-.11a3.73,3.73,0,0,0,2.53-2.22c.08-.15,0-.19-.11-.26A6,6,0,0,0,144,22.42a3.15,3.15,0,0,0-2.37.47,1.6,1.6,0,0,0-.22,2.56A2.89,2.89,0,0,0,143.51,26.16Z"/><path d="M134.88,7.31l2.31.21c-.07.37-.36.4-.63.47-.5,6.71-.4,13.44-.4,20.17h-1.64C134.6,21.21,134.48,14.26,134.88,7.31Z"/><path d="M179.17,12,179,11.9a7.87,7.87,0,0,1,1.24-1.57A6,6,0,0,1,183,8.66a3.7,3.7,0,0,1,4.14,1.49A7.57,7.57,0,0,1,188.66,14a9.59,9.59,0,0,1-.66,4.88l0,.14.62,0c.17,0,.19.06.15.21l-1,.05c-.13,0-.19,0-.19-.17,0-.35,0-.69,0-1,0-.06.07-.12.12-.19l.09,0v.95h0s.05,0,.06-.07a9,9,0,0,0-.1-7.25,4.82,4.82,0,0,0-2.12-2.4,3.47,3.47,0,0,0-3.11,0,7.07,7.07,0,0,0-3.18,2.74C179.27,11.87,179.22,11.93,179.17,12Z"/><path d="M178.54,27.76c0,.13,0,.21-.18.15a5.28,5.28,0,0,1-3.21-2.82,3.23,3.23,0,0,1,.64-3.49,5.24,5.24,0,0,1,3.58-1.92,15.79,15.79,0,0,1,1.69,0l-.18-.53.19-.07c.09.25.19.49.26.73a.27.27,0,0,1-.1.24,4.41,4.41,0,0,1-.64.23c-.05,0-.13-.05-.19-.08v-.07l.51-.2v-.06c-.32,0-.65,0-1,0a5.4,5.4,0,0,0-3.61,1.5,3.66,3.66,0,0,0-1.21,2.29,3,3,0,0,0,.42,1.77,5.28,5.28,0,0,0,2.86,2.31Z"/><path d="M165.91,27.21c0-.09-.13-.17-.12-.23.22-1,.46-2.08.69-3.12.27,0,.18.13.16.24-.19.87-.39,1.74-.58,2.6a.35.35,0,0,0,0,.12l3.1-2.48a3.39,3.39,0,0,1-.6,0c-.14,0-.37.09-.41-.22l1.23.07a.23.23,0,0,1,.13.18c0,.36,0,.71-.07,1.07,0,.06-.08.1-.13.15l-.07,0,.06-1Z"/><path d="M164.38,10.74c-.07-.17,0-.18.16-.18l2.58,0h1.46l0-.07-.69-.62.13-.16c.31.27.61.53.89.8a.26.26,0,0,1,0,.27c-.24.29-.5.56-.76.86l-.17-.12.66-.75Z"/><path d="M174.89,12.78l.53-.09a1,1,0,0,1,.07.16,5.63,5.63,0,0,1-.73.19c-.08,0-.21-.08-.25-.15a5,5,0,0,1-.16-.51c-.06-.15,0-.18.15-.19l.18.52,1.33-2c-.52,0-1,.06-1.49.11-.16,0-.23,0-.2-.19l1.79-.14c.06,0,.13.08.21.13Z"/></svg>