<svg xmlns="http://www.w3.org/2000/svg" viewBox="0 0 198.43 35.43"><defs><style>.cls-1{fill:#6e6e6e;opacity:0.5;}.cls-2{fill:#fff;}</style></defs><g id="carracters"><path d="M184,7.9c.05.47.09.95.14,1.42.09.9.19,1.8.29,2.71,0,.15,0,.31.06.52l.24-.26.13.1-.46.54-.68-1,.14-.1.4.56h0l-.48-4.51Z"/><path d="M180.62,15.37l-.28-4.78h2.12l.19,4.38a9.46,9.46,0,0,0,2.48-.66v2l-1.14.31-1.17.31c-.12,0-.17.07-.16.21a37.35,37.35,0,0,1-.22,5c-.09.77-.16,1.55-.31,2.31a5.52,5.52,0,0,1-2,3.12,12.56,12.56,0,0,1-4,2.24.22.22,0,0,1-.17-.05q-.58-.79-1.14-1.59a0,0,0,0,1,0,0c.51-.15,1-.27,1.51-.44a6.24,6.24,0,0,0,3.21-2.41A4.47,4.47,0,0,0,180,24a15.34,15.34,0,0,0,.55-3.43c0-.94,0-1.89.06-2.84,0-.13,0-.27,0-.4h-3.49a24,24,0,0,1-3.48-.25V15.28a15.88,15.88,0,0,0,4,.23C178.63,15.48,179.61,15.42,180.62,15.37Z"/><path class="cls-1" d="M146.29,15.32,146,10.54h2.12l.2,4.38a9.67,9.67,0,0,0,2.48-.66v2l-1.14.31c-.4.11-.79.22-1.18.31a.18.18,0,0,0-.16.21,34.25,34.25,0,0,1-.22,5c-.09.77-.15,1.55-.3,2.32a5.58,5.58,0,0,1-2,3.11,12.77,12.77,0,0,1-4,2.24.2.2,0,0,1-.18,0l-1.14-1.58a.1.1,0,0,1,0,0c.51-.15,1-.27,1.52-.44a6.36,6.36,0,0,0,3.21-2.4,4.63,4.63,0,0,0,.48-1.27,14.79,14.79,0,0,0,.55-3.43c0-.94,0-1.89.07-2.84,0-.13,0-.26,0-.4-1.17,0-2.33,0-3.49,0a22.51,22.51,0,0,1-3.47-.25V15.23a15.33,15.33,0,0,0,4,.23C144.3,15.44,145.28,15.37,146.29,15.32Z"/><path d="M100.64,11.17c-.16.58-.32,1.13-.46,1.69a23.4,23.4,0,0,0-.62,3.82,33,33,0,0,0-.1,4.1,40.37,40.37,0,0,0,.41,4.52c.06.44.13.88.19,1.31a1.15,1.15,0,0,1,0,.19l-1.92.38c-.09-.45-.17-.88-.24-1.31a27.75,27.75,0,0,1-.4-4.54c0-1.15,0-2.3.08-3.44s.23-2.53.4-3.78.41-2.36.62-3.53l0-.08Z"/><path d="M171.45,27.05l-1.93.39A40.6,40.6,0,0,1,170,10.76l2,.67c-.16.57-.32,1.13-.47,1.69a24.2,24.2,0,0,0-.61,3.78,32.73,32.73,0,0,0-.1,4.2,44.23,44.23,0,0,0,.48,5C171.36,26.42,171.4,26.72,171.45,27.05Z"/><path class="cls-2" d="M31.2,14.74,30.91,10H33l.19,4.38a9.64,9.64,0,0,0,2.49-.66v2L34.56,16l-1.17.31c-.12,0-.16.07-.16.21a37.35,37.35,0,0,1-.22,5c-.09.77-.15,1.55-.31,2.31a5.51,5.51,0,0,1-2,3.12,12.77,12.77,0,0,1-4,2.24.23.23,0,0,1-.18-.05L25.4,27.52a0,0,0,0,1,0,0c.51-.15,1-.27,1.52-.44a6.26,6.26,0,0,0,3.2-2.41,4.18,4.18,0,0,0,.49-1.26A14.79,14.79,0,0,0,31.15,20c0-.94.05-1.89.06-2.84a2.68,2.68,0,0,0,0-.4H27.7a24.06,24.06,0,0,1-3.48-.25V14.65a15.88,15.88,0,0,0,4,.23C29.21,14.85,30.18,14.79,31.2,14.74Z"/><path class="cls-2" d="M22,26.42l-1.93.39a40.77,40.77,0,0,1,.48-16.68l2,.67c-.16.57-.32,1.13-.46,1.69a24.22,24.22,0,0,0-.62,3.78,32.72,32.72,0,0,0-.09,4.2,44.22,44.22,0,0,0,.47,5C21.93,25.79,22,26.09,22,26.42Z"/><path class="cls-1" d="M109,15.31l-.28-4.78h2.12l.19,4.38a9.46,9.46,0,0,0,2.48-.66v2l-1.14.31-1.17.31c-.12,0-.17.07-.16.21a37.35,37.35,0,0,1-.22,5c-.09.77-.16,1.55-.31,2.31a5.52,5.52,0,0,1-2,3.12,12.56,12.56,0,0,1-4,2.24.22.22,0,0,1-.17-.05c-.39-.53-.76-1.06-1.14-1.58a.1.1,0,0,1,0,0c.51-.15,1-.27,1.51-.44a6.24,6.24,0,0,0,3.21-2.41,4.18,4.18,0,0,0,.49-1.26,15.34,15.34,0,0,0,.55-3.43c0-.94,0-1.89.06-2.84,0-.13,0-.26,0-.4h-3.49A24,24,0,0,1,102,17V15.22a15.88,15.88,0,0,0,4,.23C107,15.43,108,15.36,109,15.31Z"/><path d="M150.8,14.26v2c0,.1,0,.14-.13.15-1.37.19-2.74.65-4.11.8s-2.67.08-4.08.12a21.3,21.3,0,0,1-3-.16l-.17,0c0-.6,0-1.31,0-1.92a10.89,10.89,0,0,0,3.06.25c1.32,0,2.6-.05,3.91-.16a14.56,14.56,0,0,0,2-.4C149.14,14.74,150,14.46,150.8,14.26Z"/><path d="M181.34,28.85c.09.1.33-.07.27.21H181c0-.21,0-.42,0-.63,0,0,.08-.05.15-.1v.41a4.67,4.67,0,0,0,2.58-5.3l.16-.06a5.37,5.37,0,0,1-.33,3.17A4.73,4.73,0,0,1,181.34,28.85Z"/><path d="M97.17,12.7l.3-.19.09.13L97.1,13c-.09.06-.15,0-.18-.07l-.33-1c.09-.08.15-.09.19,0a3.54,3.54,0,0,0,.23.53l.68-4.45c.11,0,.17,0,.15.13l-.63,4.14C97.2,12.45,97.18,12.56,97.17,12.7Z"/><path d="M143.43,14l-.21-.28.13-.12.41.54a.87.87,0,0,1-.11.09l-.85.35c-.05,0-.12,0-.18,0v-.08l.61-.27v0l-4.46-.42v-.17Z"/><path d="M137.12,10.92c-.16.58-.33,1.13-.47,1.69a26,26,0,0,0-.62,3.82,35.08,35.08,0,0,0-.09,4.1,42.86,42.86,0,0,0,.4,4.52c.07.44.13.88.2,1.32a1.21,1.21,0,0,0,0,.18l-1.93.39c-.08-.46-.17-.89-.24-1.32a28.89,28.89,0,0,1-.39-4.54c0-1.15,0-2.29.08-3.44s.22-2.52.4-3.78.41-2.36.62-3.53c0,0,0,0,0-.07Z"/></g></svg>