<svg id="illustration" xmlns="http://www.w3.org/2000/svg" viewBox="0 0 198.43 150.2"><defs><style>.cls-1{fill:#f0b56f;}.cls-2{fill:#e95a48;}.cls-3{fill:#25211e;}.cls-4{fill:#fff;}.cls-5{fill:#44abe0;}.cls-6{fill:#d49729;}.cls-7{fill:#25256a;}.cls-8{fill:#ee2624;}.cls-9{fill:#010101;}</style></defs><path class="cls-1" d="M142.52,2.74s5.92,6,7.27,8.61a43.5,43.5,0,0,1,4.6,19.85c0,10.08-5.38,23.66-5.38,23.66s-6.13,1.27-10.28-.16-7.59-12.76-7.19-18.31.77-10.78,4.72-13.38l-.53,2.7.09.94.44.61.31.2-.2.82v.38l.51.24v.6l-.29.39.8,5.15V36l.32.54.36.39.11.81.25.59.49.37.31,1.16,1.09.24-.48,2a11.77,11.77,0,0,0,2-1.7c.23-.43.41-2.4.64-2.74s.88-1.05.88-1.05-.43-.6-.32-.82,1.35-1.52,1.35-1.52l-.76-1.72L145,32s.21-1.29.51-1.54a2.64,2.64,0,0,1,.88-.38l-.7-1.18-.34-1.48.44.41.64-1.48-1.73-1.86L146,23.1s-.69-.76-.78-.91-.64-3.55-.64-3.55l.8-1.39L144.3,15l1.53-1.23-1.7-1.27,1-1.66-1.52-1.56,1.24-.84-1.5-2,.55-1Z"/><path class="cls-1" d="M74.66,71.27s-12.59,9.65-13.37,25A35.07,35.07,0,0,0,69.43,121s8.2,2.45,12.86-9.68.63-24.56-4-28.07l-1.56-.49.39.76-.56.58.3.72-.58.39L78,86.45l-1.21.85.59,3.77-.54,4.62.66,1.47v.76l-1.39,1.53.6,1.06L76.32,103s.89,1.12.89,1.66S75.84,106,75.84,106l.41,1.16-1.7-.39-.39-1-.63-.19-.48-3-.52-.43v-1.26l-.45-.17.37-2L72,98.43l.3-1.54L72,95.4,72.08,90,72,87.61l.2-2.25,1.12-5.92L72.8,79l.67-2.12L73,76.27l1.31-2-1-.78Z"/><path class="cls-2" d="M97.16,50.44a6.8,6.8,0,0,0-1.22,4.12c-4.7,1.82-7.86,9.79-7.86,9.79a40.47,40.47,0,0,0-.39,7.94,13.39,13.39,0,0,0-.76,2.35c-.08.69-2.22,9.11-2.22,9.11l.9,2.76s-1.76,4.7-1.45,7.11S86.25,99.27,88,100c1.88,2.8,3.15,11.05,6.11,11.72l-.43.42s1.9,5,5.41,5.9c-.38,1,0,7.83.13,8.65s2.93,3,5.55,2.77,5.42-1.3,5.86-2.65,1.45-7,1.12-8.28a5.28,5.28,0,0,0,3-3.73l-.55-5.07a5.06,5.06,0,0,0,2.89-2.71c.62-1.91.68-7.85.11-9,1.81-1.09,1.81-5.22,1.81-5.22L116.71,84l.44-1.69L114.7,73a3.16,3.16,0,0,0-1-.7c1.76-4.9-1.84-15.91-4.12-17.57A8.13,8.13,0,0,0,108,49.92s-.12,3.75-1.52,3.91a3.57,3.57,0,0,1-2.56-1l-1.51.28-1.06.35-1.26-.61-.86.75A6.22,6.22,0,0,1,97.16,50.44Z"/><path class="cls-2" d="M99.62,127.39a34.24,34.24,0,0,1-3.31,4.12c-1,.77-2.12,1.68-2.12,1.68s-3-.93-3.61-2.85S92.92,126,92.92,126s3.34-2.42,5.8-1.5.38-6.51.38-6.51a10.56,10.56,0,0,0-4.82.29,26.84,26.84,0,0,0-5.39,3.25l-1.89.67s-4.26,4.05-3.85,9.3,3.7,10.31,10.09,10.33a2.83,2.83,0,0,0,3-1.2,2.76,2.76,0,0,0,2.3.32,16.29,16.29,0,0,0,4.45-2.45c1-.9,4.17-5.08,4.17-5.08l1.6-3.57v-1.44s-.91,1.68-5,.75S99.62,127.39,99.62,127.39Z"/><path class="cls-3" d="M111.1,124.75a26.68,26.68,0,0,0,5.65-2.57c2-1.4,5.42-4.48,5.42-4.48l-1.39,2.48a1.81,1.81,0,0,0,1.69.69c1.24-.08-2.2,1.73-2.2,1.73l2.54.68-2.7,1.86L123,126l-1.9,1.81,2.74,1.35.33.25-2,1.14,2.36,1.7.91.65-3.62,1.36,2.21,2.55.83.59-2.36,1.44,2,.68-2.15,1.86,1.53,2.51-2.06.66,1.22,2.07-1.38-.34V147s-4.12-7.17-4.59-7.45-4.93-5.88-9.34-7.17c0,0,1.08-3.44,1.08-3.69S111.16,126.65,111.1,124.75Z"/><path class="cls-2" d="M116.32,77.53c.14-.13,6.55-5.77,7.74-6.08a5.56,5.56,0,0,1,1.81-.24l11.31-9.39s.86-5.9,1.42-6.44,3.64.14,4.35.17,6.06-.69,6.06-.69-1.74,6.19-3.69,8.52l-1.94,2.32a2.4,2.4,0,0,1,.31,2A7.23,7.23,0,0,1,142,70.43c-.46.37-11.87,6.67-11.87,6.67l-.56,1.25-1.4,1.22L117.26,86l-3.85-3.41Z"/><path class="cls-2" d="M69.43,121a11.09,11.09,0,0,0,4-.08,26.14,26.14,0,0,0,6.14-3.71c1.28.76,2.89,1,3.6-.56a16.79,16.79,0,0,0,1-3.08,23.19,23.19,0,0,1-.73-2.52c0-.43-.2-1.35-.2-1.35l1.26-4.14s.73-8.56.43-9S86.41,99.41,88,100s2.93,7.9,2.93,7.9-.3,3.28-1,4.12a8.51,8.51,0,0,1-2.12,2,7.47,7.47,0,0,1-.84.29,13.34,13.34,0,0,1-1.35,5.07c-1.15,1.82-3.35,4.65-6,5.26S72.27,125.35,69.43,121Z"/><path class="cls-4" d="M92.84,60c-1.16.18-1.9,1.56-2,2.63a3.52,3.52,0,0,0,1.55,3.23,4.18,4.18,0,0,0,6.3-2.5c.9-3.14-2.71-4.85-5.27-3.59s-2.63,5.51.67,5.77c.75.06.75-1.11,0-1.17a1.74,1.74,0,0,1-1-3,3.14,3.14,0,0,1,2.63-.86c1.17.1,2.09.58,2.2,1.88a3.19,3.19,0,0,1-1.24,2.36,3.1,3.1,0,0,1-4.31-.13,2.58,2.58,0,0,1-.54-2.48,4.43,4.43,0,0,1,1.2-1.73.25.25,0,0,0-.24-.41Z"/><path class="cls-4" d="M94.61,65.21c2.29.69,4.61-3.46,2.13-4.59A3.62,3.62,0,0,0,93,61c-.9.75-1.39,2.45-.24,3.2.37.24.76-.15.69-.53-.15-.77-.35-1.33.42-1.88a2.83,2.83,0,0,1,2.22-.33c.44.1,1,.28,1,.86a2.34,2.34,0,0,1-.4,1.15,2.52,2.52,0,0,1-2.08,1.48.15.15,0,0,0,0,.29Z"/><path class="cls-4" d="M94.78,65.6a2.77,2.77,0,0,0,2.59-1.17c.52-.71,1-2,.36-2.76-.22-.27-.6-.08-.7.18a3.13,3.13,0,0,0-.07.92,2.47,2.47,0,0,1-.39,1.08,3.29,3.29,0,0,1-1.86,1.25c-.29.07-.21.48.07.5Z"/><path class="cls-4" d="M95.26,65.8c.56.2,1.46,0,1.54-.67a.31.31,0,0,0-.23-.3c-.47-.13-1,.3-1.37.55a.23.23,0,0,0,.06.42Z"/><path class="cls-4" d="M96.54,61.61c-.3.59-.61,1.18-.9,1.77s-.67,1-.53,1.54a.35.35,0,0,0,.42.24c.58-.18.78-.88,1-1.41a6.74,6.74,0,0,0,.42-2,.21.21,0,0,0-.4-.1Z"/><path class="cls-4" d="M96.11,61.62a8.58,8.58,0,0,0-1.44,1.57c-.31.45-1,1.09-.71,1.67a.36.36,0,0,0,.34.26c.67,0,.94-.78,1.25-1.28a8.91,8.91,0,0,0,.88-2,.19.19,0,0,0-.32-.19Z"/><path class="cls-4" d="M96,61.64A4.87,4.87,0,0,0,93.3,64c-.32.56.57,1.07.87.51a11.49,11.49,0,0,1,2-2.59.14.14,0,0,0-.14-.24Z"/><path class="cls-4" d="M96.26,61.38a2.54,2.54,0,0,0-2.44.51c-.55.44-1.23,1.52-.72,2.21a.54.54,0,0,0,1-.13c.07-.28,0-.56.08-.83a1.39,1.39,0,0,1,.57-.63c.49-.3,1.19-.36,1.59-.78a.22.22,0,0,0,0-.35Z"/><path class="cls-4" d="M96.51,62.81a2.84,2.84,0,0,1-.47.73c-.14.19.09.45.3.39.55-.17.66-.6.51-1.12a.18.18,0,0,0-.34,0Z"/><path class="cls-4" d="M108.18,61.85a1,1,0,0,0,0-1.93,1,1,0,0,0,0,1.93Z"/><path class="cls-4" d="M107.78,59.86c-1.71-.24-2.71,1.64-2.37,3.16a3.21,3.21,0,1,0,6-2.22,3,3,0,0,0-4.53-1.07c-.72.55,0,1.78.71,1.23,2-1.52,3.88,1.71,1.75,2.86a1.9,1.9,0,0,1-2.72-1.13c-.3-1.07.49-1.86,1.25-2.47a.22.22,0,0,0-.09-.36Z"/><path class="cls-4" d="M109,62.58v0a.57.57,0,1,0-.4.4h0a.47.47,0,0,0,.34-.35Z"/><path class="cls-4" d="M107.57,60.9a1.49,1.49,0,0,0-1.19,1.77,1.92,1.92,0,0,0,1.68,1.69,2.13,2.13,0,0,0,2.22-1.06,2.31,2.31,0,0,0-.33-2.57.88.88,0,0,0-1.25,0,.9.9,0,0,0,0,1.24.43.43,0,0,1-.43.69c-.68-.1-.43-1-.38-1.44a.32.32,0,0,0-.32-.32Z"/><path class="cls-4" d="M108.8,62.75a.3.3,0,0,0,0-.6.3.3,0,0,0,0,.6Z"/><path class="cls-4" d="M108.87,63.21a.76.76,0,0,0,0-1.51.76.76,0,0,0,0,1.51Z"/><path class="cls-4" d="M108.59,63.14a.55.55,0,0,0,0-1.1.55.55,0,0,0,0,1.1Z"/><path class="cls-4" d="M108.8,63.26a.81.81,0,0,0,0-1.62.81.81,0,0,0,0,1.62Z"/><path class="cls-5" d="M108.72,62.62l0-.08c-.08-.14-.28.05-.14.13l.09,0a.07.07,0,0,0,.09-.1Z"/><path class="cls-5" d="M108.87,62.7a.32.32,0,0,0,0-.64.32.32,0,0,0,0,.64Z"/><path class="cls-5" d="M108.59,63.25a.66.66,0,0,0,0-1.32.66.66,0,0,0,0,1.32Z"/><path class="cls-5" d="M108.6,62.3l0,.1a.25.25,0,0,0,.17.29l.1,0c.3.11.54-.27.4-.52a.35.35,0,0,0-.64.09Z"/><path class="cls-5" d="M108.93,62.56a.25.25,0,0,0,0-.49.25.25,0,0,0,0,.49Z"/><path class="cls-5" d="M109,62.89a.44.44,0,0,0,0-.88.44.44,0,0,0,0,.88Z"/><path class="cls-5" d="M93.41,63.56a.36.36,0,0,0,0-.72.36.36,0,0,0,0,.72Z"/><path class="cls-5" d="M93.75,63.65a.66.66,0,0,0,0-1.31.66.66,0,0,0,0,1.31Z"/><path class="cls-5" d="M93.89,64a.5.5,0,0,0,0-1,.5.5,0,0,0,0,1Z"/><path class="cls-5" d="M93.21,63.54a.48.48,0,0,0,0-.95.48.48,0,0,0,0,.95Z"/><path class="cls-5" d="M93.34,63.27a.34.34,0,0,0,0-.68.34.34,0,0,0,0,.68Z"/><path class="cls-5" d="M93.55,63.18a.25.25,0,0,0,0-.5.25.25,0,0,0,0,.5Z"/><path class="cls-5" d="M94.23,63.7a.37.37,0,0,0,0-.73.37.37,0,0,0,0,.73Z"/><path class="cls-5" d="M93.28,63.07a.28.28,0,0,0,0-.55.28.28,0,0,0,0,.55Z"/><path class="cls-4" d="M103.8,73.57c3.42.82,9.73-1.5,8.85-5.93-.06-.28-.46-.19-.48.07a4.88,4.88,0,0,1-3.33,4.44c-1.64.63-3.42.42-5,1a.23.23,0,0,0,0,.45Z"/><path class="cls-4" d="M93.77,58c.55-.23,1.06-.53,1.58-.81a3,3,0,0,0,1.3-.94.25.25,0,0,0-.21-.37,3,3,0,0,0-1.47.66,16.39,16.39,0,0,0-1.48,1c-.23.17,0,.6.28.49Z"/><path class="cls-4" d="M87.77,76.16c-1.24,2.37-1.67,5.63-.23,8a4.54,4.54,0,0,0,6,1.67.36.36,0,0,0-.18-.67c-2.47.13-5,.2-5.81-2.73-.59-2.14.3-4.1.55-6.19,0-.18-.25-.24-.33-.09Z"/><path class="cls-4" d="M106.17,85.88a8.71,8.71,0,0,0,7.46-1.32c1.53-1.24,2.82-3.65,1.73-5.55a.57.57,0,0,0-1.06.29c.07,2.2-.58,3.86-2.71,4.84-1.7.78-3.64.83-5.42,1.36a.2.2,0,0,0,0,.38Z"/><path class="cls-4" d="M110.55,98.42a7.35,7.35,0,0,0,6.67-2.91c1.31-1.87,1.78-5-.16-6.64-.22-.18-.68,0-.55.32.86,2.18,1.12,4.42-.62,6.29a10.82,10.82,0,0,1-5.38,2.63.16.16,0,0,0,0,.31Z"/><path class="cls-4" d="M108.6,107.35c1.87.88,4.23,1.36,6.1.17a4.39,4.39,0,0,0,1.65-4.8.35.35,0,0,0-.67,0c-.3,1.56-.29,3.25-1.87,4.1s-3.46.2-5.08,0c-.26,0-.37.39-.13.51Z"/><path class="cls-4" d="M100.56,109a8,8,0,0,1,2.29-1c.71-.16,1.51,0,2.15-.28a.4.4,0,0,0,0-.67c-.69-.52-1.92-.13-2.66.14a4.52,4.52,0,0,0-2.12,1.51c-.15.2.14.44.34.33Z"/><path class="cls-4" d="M94.39,90a19.61,19.61,0,0,0,13.87-.38c.31-.13.08-.56-.22-.51a44.7,44.7,0,0,1-6.72,1,37.73,37.73,0,0,1-6.78-.67.28.28,0,0,0-.15.53Z"/><path class="cls-4" d="M93.39,78.28a16.38,16.38,0,0,0,12.69.15c.41-.17.1-.76-.3-.69a32.77,32.77,0,0,1-12.21.12c-.24,0-.44.3-.18.42Z"/><path class="cls-4" d="M96.73,104.09c3.44,1.57,7.87,1.12,11.49.36.63-.13.36-1.07-.27-1A32.55,32.55,0,0,1,102,104c-1.75,0-3.48-.31-5.23-.22-.15,0-.24.23-.08.3Z"/><path class="cls-4" d="M101.31,111.77a7.11,7.11,0,0,1,3.68-1c1,0,1.9.56,2.81.38a.27.27,0,0,0,.16-.38c-.63-1-2.33-1-3.37-.88a6.47,6.47,0,0,0-3.54,1.5c-.2.17,0,.46.26.35Z"/><path class="cls-4" d="M112,112.31a3.54,3.54,0,0,1-.74,3.34,3.21,3.21,0,0,1-1.4.82c-.51.15-1,.06-1.52.22a.32.32,0,0,0-.08.58c1.17.71,3-.33,3.77-1.25a3.83,3.83,0,0,0,.57-4c-.17-.36-.67-.09-.6.25Z"/><path class="cls-4" d="M109.69,121.73c-.12,1.18.27,2.14-.4,3.28a4.69,4.69,0,0,1-2.44,1.77c-.26.11-.13.55.14.53a3.85,3.85,0,0,0,2.94-2.1c.52-1,.85-2.7,0-3.57a.13.13,0,0,0-.21.09Z"/><path class="cls-4" d="M102.52,122.07c1.07.73,3,.77,3.81-.4a.31.31,0,0,0-.34-.45,15.75,15.75,0,0,1-1.5.54,4.43,4.43,0,0,1-1.81-.08.21.21,0,0,0-.16.39Z"/><path class="cls-4" d="M86.44,125c-3.08,4.62-.55,13.53,5.53,14.36a.37.37,0,0,0,.28-.68c-2-1.47-3.93-2.42-5.13-4.72-1.51-2.92-1.16-5.77-.35-8.82a.18.18,0,0,0-.33-.14Z"/><path class="cls-4" d="M99.26,139a7.52,7.52,0,0,0,3.65-3.24c.77-1.24,1.84-3.28,1.38-4.76a.42.42,0,0,0-.75-.09c-.73,1.21-.76,2.79-1.5,4.07a20.89,20.89,0,0,1-3,3.61c-.15.17,0,.5.24.41Z"/><path class="cls-4" d="M99.26,130.89c-.23,1.18.88,2.73,2.18,2.19.26-.1.33-.52,0-.6-.79-.18-1.6-.61-1.62-1.52,0-.3-.49-.4-.56-.07Z"/><path class="cls-4" d="M96.81,133.09a2.72,2.72,0,0,0,.52,2.12c.42.54,1.35,1.21,2,.83a.42.42,0,0,0,.09-.65,1.69,1.69,0,0,0-.7-.34,3.16,3.16,0,0,1-.74-.46,2.42,2.42,0,0,1-.88-1.5c0-.17-.31-.17-.34,0Z"/><path class="cls-4" d="M93,121.34a2.88,2.88,0,0,1,1.31-.7c.46-.1.94.08,1.37-.08a.52.52,0,0,0,.12-.93,2,2,0,0,0-1.83.2,3.29,3.29,0,0,0-1.36,1.2c-.16.26.18.48.39.31Z"/><path class="cls-4" d="M112.46,126.55a12.92,12.92,0,0,0,3.91-1.91c.27-.16,0-.54-.25-.41a12.51,12.51,0,0,0-3.78,2.1.13.13,0,0,0,.12.22Z"/><path class="cls-4" d="M113,129.39a12.44,12.44,0,0,0,6.43-1.4c.2-.11.07-.46-.16-.38a21.45,21.45,0,0,1-6.27,1.51.14.14,0,0,0,0,.27Z"/><path class="cls-4" d="M113.51,132.82a41.74,41.74,0,0,0,4.72.5c.15,0,.19-.24,0-.27a38,38,0,0,0-4.76-.58c-.22,0-.21.32,0,.35Z"/><path class="cls-4" d="M115.07,135c.85,1,1.81,1.82,2.72,2.73a20.17,20.17,0,0,0,2.62,2.36.21.21,0,0,0,.29-.29,16.85,16.85,0,0,0-5.41-5.08c-.18-.11-.34.13-.22.28Z"/><path class="cls-4" d="M116.47,131.15a27,27,0,0,0,4.43-1.27c.26-.12,0-.47-.19-.43a25.82,25.82,0,0,0-4.35,1.29.21.21,0,0,0,.11.41Z"/><path class="cls-4" d="M118.89,136a12.73,12.73,0,0,0,3,.61.16.16,0,0,0,.08-.3,12.35,12.35,0,0,0-3-.72.21.21,0,0,0-.11.41Z"/><path class="cls-4" d="M115.28,127.37a21.72,21.72,0,0,0,4.76-2.76c.15-.12,0-.41-.2-.34a22.18,22.18,0,0,0-4.77,2.74.21.21,0,0,0,.21.36Z"/><path class="cls-4" d="M117.53,79c2.92-2.54,4.78-5.84,9.28-4.74.39.1.69-.51.28-.69-3.89-1.71-8.14,2-9.79,5.26a.14.14,0,0,0,.23.17Z"/><path class="cls-4" d="M129.49,71c3.08-2.71,5.22-6.51,10-4.59.48.2.7-.52.33-.78-4-2.86-9,1.64-10.5,5.22a.12.12,0,0,0,.19.15Z"/><path class="cls-4" d="M139.19,60a3.13,3.13,0,0,1,1.18-2.18,2,2,0,0,1,1.42-.24,2.38,2.38,0,0,0,1,.16.29.29,0,0,0,.21-.37c-.41-1.18-2.4-.81-3.19-.27a2.28,2.28,0,0,0-.9,2.94.15.15,0,0,0,.27,0Z"/><path class="cls-4" d="M133.19,36.23A56.27,56.27,0,0,0,135.3,48c.59,1.92,2,4.22,4.32,3.78a.48.48,0,0,0,.11-.87,6.58,6.58,0,0,1-2.92-2.31,14.43,14.43,0,0,1-1.28-4,79.18,79.18,0,0,0-2-8.34c-.06-.16-.32-.15-.31,0Z"/><path class="cls-4" d="M148.25,13.38c.25,2.65,1.36,5.21,1.79,7.86a38.64,38.64,0,0,1,.37,9.05c-.45,6.2-2.75,11.35-5.09,17-.12.28.32.53.51.3,3.6-4.49,5.15-10.87,5.67-16.49a39.5,39.5,0,0,0-.22-9c-.4-2.9-.9-6.44-2.71-8.84-.09-.11-.33-.1-.32.09Z"/><path class="cls-4" d="M133.6,26.69c-.16.41-.29.83-.41,1.25a1.58,1.58,0,0,0-.11,1,.17.17,0,0,0,.28.08c.28-.22.31-.62.39-.95A11.73,11.73,0,0,0,134,26.8a.21.21,0,0,0-.4-.11Z"/><path class="cls-4" d="M145.81,7.93a4.27,4.27,0,0,0,.34.9,1.85,1.85,0,0,0,.48.81.21.21,0,0,0,.35-.15,1.5,1.5,0,0,0-.23-.78,5.55,5.55,0,0,0-.5-1,.24.24,0,0,0-.44.19Z"/><path class="cls-4" d="M71.72,75c-10.09,8.37-11.53,26-4.11,36.37a.45.45,0,0,0,.78-.45c-2.82-6.06-4.6-12.41-3.71-19.14.84-6.37,3.74-11.38,7.31-16.57.12-.17-.13-.33-.27-.21Z"/><path class="cls-4" d="M81.25,109.67C84,105.16,84.13,97,79.66,93.43a.47.47,0,0,0-.74.57c1.19,2.63,2.67,4.81,3,7.78a17.19,17.19,0,0,1-1,7.75.18.18,0,0,0,.32.14Z"/><path class="cls-4" d="M88.53,109a8.7,8.7,0,0,1-.73,2.54,8.3,8.3,0,0,1-1.67,2.06.19.19,0,0,0,.23.3,4.91,4.91,0,0,0,2.48-4.9.16.16,0,0,0-.31,0Z"/><path class="cls-4" d="M84.63,117.78c-1.79,3.73-4.85,5.15-8.74,5.69-.15,0-.15.28,0,.31,3.82.58,7.71-2.47,9-5.88.06-.16-.21-.27-.29-.12Z"/><path class="cls-4" d="M90.21,71.31c1.46,1.88,4.59,2.91,6.73,1.61.22-.13.07-.41-.16-.38-2.46.36-4.37.23-6.33-1.47a.17.17,0,0,0-.24.24Z"/><path class="cls-4" d="M97.68,68.06a5.23,5.23,0,0,1,3.76-1.9c1.5,0,2.33.85,3.51,1.57.2.13.38-.11.3-.3-.61-1.41-2.58-2.05-4-1.94A4.29,4.29,0,0,0,97.59,68c0,.06,0,.13.09.07Z"/><path class="cls-4" d="M100.41,56.35a13.74,13.74,0,0,1,.08,1.44,13.6,13.6,0,0,1-.3,1.57c0,.28.32.48.48.2a4.22,4.22,0,0,0,.17-3.27c-.08-.21-.44-.21-.43.06Z"/><path class="cls-4" d="M103.89,56.6a1.68,1.68,0,0,0,.6,2.64.26.26,0,0,0,.29-.38c-.18-.35-.49-.58-.6-1a4.84,4.84,0,0,1,0-1.14c0-.11-.14-.23-.25-.15Z"/><path class="cls-4" d="M96.22,52.54a2,2,0,0,0,.15,1,.23.23,0,0,0,.41-.06,2,2,0,0,0-.17-1,.2.2,0,0,0-.39,0Z"/><path class="cls-4" d="M107.8,52.47a2.21,2.21,0,0,0-.17,1.21.24.24,0,0,0,.43.06,2.24,2.24,0,0,0,.18-1.21.22.22,0,0,0-.44-.06Z"/><path class="cls-6" d="M52.52,33.76c7.52.54,15.3,0,22.85-.11s14.9,0,22.35-.06c15.06-.15,30.16-.16,45.21-.7a.81.81,0,0,0,0-1.62c-15.06-.05-30.15.44-45.21.78-7.45.17-14.9.49-22.35.67s-15.35-.15-22.85.63a.21.21,0,0,0,0,.41Z"/><path class="cls-6" d="M155.21,32.22a27.55,27.55,0,0,0,6.91,0c2-.12,4.18.07,6.07-.73.33-.14.2-.65-.1-.74-2-.58-4.36-.05-6.46.09a25.67,25.67,0,0,0-6.42.87c-.21.07-.25.43,0,.48Z"/><path class="cls-6" d="M50.52,34.25c2.46.51,5.08.21,7.58.17l8.38-.16,16.77-.32c11.17-.22,22.37-.23,33.54-.67a1,1,0,0,0,0-1.92c-11.18,0-22.37.41-33.54.62L67,32.28l-8.39.17c-2.65.06-5.48-.17-8.07.46a.7.7,0,0,0,0,1.34Z"/><path class="cls-6" d="M51.91,34.12a13.38,13.38,0,0,0-1.72,1.56c-.12.13,0,.37.2.26a13.21,13.21,0,0,0,1.82-1.52c.21-.19-.09-.47-.3-.3Z"/><path class="cls-6" d="M50.19,34.23a13.77,13.77,0,0,0-1.44,1.88.17.17,0,0,0,.26.2,13.44,13.44,0,0,0,1.48-1.78c.17-.21-.12-.51-.3-.3Z"/><path class="cls-6" d="M167.65,32.28a5.34,5.34,0,0,0,2.79-.81.35.35,0,0,0-.16-.59,5.41,5.41,0,0,0-2.8.78c-.29.14-.16.67.17.62Z"/><path class="cls-6" d="M167.26,32.58a5.09,5.09,0,0,0,1.92-.53.21.21,0,0,0-.1-.38,4.78,4.78,0,0,0-1.91.25c-.35.1-.3.71.09.66Z"/><path class="cls-7" d="M118.1,33c1.94.55,4.06.27,6.07.23l6.42-.14c4.09-.11,8.53.25,12.56-.52,1-.19.61-1.51-.22-1.62-4.13-.55-8.68.09-12.84.21l-5.92.2c-2,.07-4.16-.1-6.07.56a.56.56,0,0,0,0,1.08Z"/><path class="cls-7" d="M154.18,32.16c.26,0,.47.23.75.25s.81,0,1.21,0c.69,0,1.6,0,2.09-.52a.6.6,0,0,0-.12-.92c-.59-.44-1.5-.2-2.18-.07-.35.07-.74.12-1.09.22s-.48.33-.74.41a.32.32,0,0,0,.08.63Z"/><path class="cls-7" d="M117.09,31.47a30.48,30.48,0,0,0,7,.25l6.88,0c4.51,0,9.52.54,13.94-.32a.7.7,0,0,0,0-1.33c-4.43-.79-9.44-.13-13.94-.09l-6.88.07c-2.32,0-4.76-.2-7,.37a.57.57,0,0,0,0,1.09Z"/><path class="cls-7" d="M144.65,30.63a2.71,2.71,0,0,0-.66.51.45.45,0,0,0,0,.62.51.51,0,0,0,.2.12.44.44,0,0,0,.5-.21,2.88,2.88,0,0,0,.24-.87.19.19,0,0,0-.28-.17Z"/><path class="cls-7" d="M117.25,31a4.11,4.11,0,0,0,.3,1.29A2.45,2.45,0,0,0,118,33.4a.4.4,0,0,0,.68-.28,2.86,2.86,0,0,0-.37-1.29,3.76,3.76,0,0,0-.52-1.11c-.19-.24-.56,0-.57.23Z"/><path class="cls-7" d="M117.65,31.25a.05.05,0,0,0,0-.1.05.05,0,1,0,0,.1Z"/><path class="cls-7" d="M117.55,31.16a1.92,1.92,0,0,0-.2,1.11,11.14,11.14,0,0,0,.17,1.4c.14.58,1.15.47,1.07-.15a4,4,0,0,0-.88-2.38.1.1,0,0,0-.16,0Z"/><path class="cls-7" d="M118.11,33.45a18.89,18.89,0,0,0,5.52.15c2.15-.09,4.3-.12,6.45-.11,4.3,0,8.6.14,12.89.4,1.12.07,1.12-1.68,0-1.75-4.46-.27-8.92-.41-13.39-.29-3.63.1-8.14-.36-11.54,1.08-.23.1-.15.46.07.52Z"/><path class="cls-7" d="M117.07,31.53c-.06.6.11,1.45.71,1.69a.39.39,0,0,0,.43-.17c.32-.54-.14-1.36-.52-1.77a.36.36,0,0,0-.62.25Z"/><path class="cls-7" d="M118.4,33.48c.46.15.77.37,1.23.12a.41.41,0,0,0,0-.71c-.46-.24-.77,0-1.23.12a.25.25,0,0,0,0,.47Z"/><path class="cls-7" d="M154.58,30.46a7.85,7.85,0,0,0-.06,2.65.34.34,0,0,0,.67,0,8.13,8.13,0,0,0-.12-2.65.26.26,0,0,0-.49,0Z"/><path class="cls-7" d="M154.77,33a10.29,10.29,0,0,0,3.59.16,12.72,12.72,0,0,0,3.65-.35c.35-.12.42-.69,0-.78a13.3,13.3,0,0,0-3.93.11,10.22,10.22,0,0,0-3.34.6c-.12.05-.07.23,0,.26Z"/><path class="cls-7" d="M161.89,32.52a4.44,4.44,0,0,0,.49-2c0-.66-1-.65-1,0a4.37,4.37,0,0,0,.24,2,.18.18,0,0,0,.3,0Z"/><path class="cls-7" d="M161.63,30.43c-1,0-2,.14-3.06.18s-2.06-.11-3.07,0a.34.34,0,0,0-.09.66,11.26,11.26,0,0,0,6.27-.37.22.22,0,0,0-.05-.44Z"/><path class="cls-7" d="M155.29,30.86a11.4,11.4,0,0,0,2.73.34,9.57,9.57,0,0,0,2.78-.09.5.5,0,0,0,0-.95,9.24,9.24,0,0,0-2.78-.11,10.89,10.89,0,0,0-2.73.31.26.26,0,0,0,0,.5Z"/><path class="cls-7" d="M158,32.62a2.46,2.46,0,0,0,1.54.07,3,3,0,0,0,1.65-.59c.29-.27.08-.89-.35-.84a6.25,6.25,0,0,0-1.45.51,5.42,5.42,0,0,0-1.39.47.22.22,0,0,0,0,.38Z"/><path class="cls-7" d="M158.59,32.52a18.14,18.14,0,0,0,2.94-.55.6.6,0,0,0-.32-1.16,17.32,17.32,0,0,0-2.82,1,.39.39,0,0,0,.2.76Z"/><path class="cls-6" d="M162.94,32.58a5.79,5.79,0,0,0,2.56.25,12,12,0,0,0,3-.09.24.24,0,0,0,0-.46,12,12,0,0,0-3-.12,5.93,5.93,0,0,0-2.56.24.1.1,0,0,0,0,.18Z"/><path class="cls-6" d="M163.08,30.68a18.06,18.06,0,0,0,2.95.18c1.12.07,2.24.34,3.36.31a.25.25,0,0,0,.07-.49,10.43,10.43,0,0,0-3.19-.5,8.54,8.54,0,0,0-3.19.19.16.16,0,0,0,0,.31Z"/><path class="cls-6" d="M169.66,30.84a1.71,1.71,0,0,0,.45,0,.15.15,0,0,0,0-.28,1.71,1.71,0,0,0-.45,0,.18.18,0,0,0,0,.36Z"/><path class="cls-6" d="M162.54,32.63a1.11,1.11,0,0,0,1.72.25c.14-.16.06-.48-.19-.46s-.46.11-.7.11-.44-.1-.67-.1a.16.16,0,0,0-.16.2Z"/><path class="cls-6" d="M50,33.17c5.45.08,10.94-.5,16.39-.77s10.93-.49,16.4-.64c10.94-.29,21.89-.3,32.83-.33a.47.47,0,0,0,0-.94c-11.11-.14-22.22.1-33.32.48-5.47.19-10.94.38-16.41.65-5.3.26-10.7.33-16,1.09-.26,0-.19.46.07.46Z"/><path class="cls-6" d="M49.69,36.83c4.6-2.51,10-2,15.06-2.14q8.22-.24,16.44-.44c10.78-.24,21.58-.42,32.37-.71.94,0,1-1.5,0-1.47-11.63.37-23.25.87-34.86,1.29-5.65.21-11.29.36-16.94.55-4,.14-9.06-.22-12.29,2.63-.17.14,0,.39.22.29Z"/><path class="cls-6" d="M100.59,34.06a9.6,9.6,0,0,0,5.54.22.2.2,0,0,0,0-.4c-.89-.11-1.83,0-2.73,0a24.88,24.88,0,0,0-2.72-.13.15.15,0,0,0,0,.3Z"/><path class="cls-6" d="M106.21,34a38.62,38.62,0,0,0,10.3-.63c.4-.09.28-.64-.09-.67a38.59,38.59,0,0,0-10.26.92c-.22.05-.15.37,0,.38Z"/><path class="cls-6" d="M114.38,33.81a6.11,6.11,0,0,0,2.34-.13c.25-.12.15-.5-.08-.57a6.21,6.21,0,0,0-2.26.16c-.33,0-.35.54,0,.54Z"/><path class="cls-6" d="M115.56,31a5.58,5.58,0,0,0,.52,2,.24.24,0,0,0,.44-.12,5.92,5.92,0,0,0-.59-2,.19.19,0,0,0-.37.1Z"/><path class="cls-6" d="M50,32.64a7,7,0,0,0-.1,1.83A4.87,4.87,0,0,0,50,36.3a.24.24,0,0,0,.46,0,5.09,5.09,0,0,0,.11-1.83,7,7,0,0,0-.09-1.83.25.25,0,0,0-.48,0Z"/><path class="cls-6" d="M49.94,33a10.94,10.94,0,0,0,2.86.09,3.6,3.6,0,0,0,2.25-.5.25.25,0,0,0,0-.39,3.75,3.75,0,0,0-2.39,0,10.17,10.17,0,0,0-2.67.62c-.1,0-.13.2,0,.22Z"/><path class="cls-6" d="M50.79,35.63c.9-.17,1.78-.57,2.67-.83A5.68,5.68,0,0,0,55.64,34a.3.3,0,0,0-.13-.5,4,4,0,0,0-2.63.44,5.9,5.9,0,0,0-2.26,1.37.17.17,0,0,0,.17.29Z"/><path class="cls-6" d="M50.07,35.58a9.57,9.57,0,0,1,2-.88c.5-.15,1-.21,1.34-.68a.17.17,0,0,0-.06-.25c-.55-.25-1.05,0-1.55.29a13.89,13.89,0,0,0-1.9,1.21c-.18.13,0,.43.18.31Z"/><path class="cls-6" d="M51.21,35c.51-.35,1.25-.7,1.5-1.29a.16.16,0,0,0-.14-.2c-.63,0-1.17.64-1.65,1-.29.21,0,.71.29.49Z"/><path class="cls-6" d="M49.84,33.21c.56.07,1.11.18,1.68.22s.91.09,1.24-.26a.27.27,0,0,0,0-.39c-.33-.35-.79-.28-1.24-.26s-1.12.15-1.68.22a.24.24,0,0,0,0,.47Z"/><path class="cls-7" d="M45.76,32.74a12.45,12.45,0,0,0,2.36-.08,5.17,5.17,0,0,0,1.83-.3A.2.2,0,0,0,49.9,32a5.72,5.72,0,0,0-2.1.06,10.45,10.45,0,0,0-2.09.32c-.21.06-.15.33,0,.36Z"/><path class="cls-7" d="M45.65,32.67c-2.15,5.26-3.71,10.78-5.48,16.18-.83,2.51-1.58,5.27-3.74,7-2.43,1.9-5.83,1.31-8.64.83-.73-.13-1.07,1-.31,1.14,5,1.16,9.81,0,12.05-5a95.58,95.58,0,0,0,3.13-9.19c1.19-3.59,2.42-7.2,3.33-10.87a.18.18,0,0,0-.34-.1Z"/><path class="cls-7" d="M27.66,56.43a3.13,3.13,0,0,0,4.1.65c.18-.14,0-.43-.18-.43a11.66,11.66,0,0,1-1.87.05A9.27,9.27,0,0,1,28,56.06a.26.26,0,0,0-.29.37Z"/><path class="cls-7" d="M29.93,57.5c1.91.6,4.54-.47,6.09-1.58.41-.3,0-1-.41-.71a15.42,15.42,0,0,1-2.89,1.33c-.92.28-1.9.36-2.79.73a.12.12,0,0,0,0,.23Z"/><path class="cls-7" d="M35.16,56.79a10.94,10.94,0,0,0,5.37-7.51.32.32,0,0,0-.62-.18,19.82,19.82,0,0,1-5,7.32c-.2.18.06.5.29.37Z"/><path class="cls-7" d="M27.71,56.89a7.53,7.53,0,0,0-.82,1.83,14.52,14.52,0,0,0-.8,2.11c-.06.23.27.39.39.17a14.61,14.61,0,0,0,.77-2,7.83,7.83,0,0,0,.63-2c0-.1-.12-.11-.17,0Z"/><path class="cls-7" d="M26.88,58.35A4.81,4.81,0,0,0,25.93,60a7.34,7.34,0,0,0-.71,1.8c0,.22.25.48.43.25a7.28,7.28,0,0,0,.91-1.83,4.56,4.56,0,0,0,.53-1.75.13.13,0,0,0-.21-.09Z"/><path class="cls-7" d="M25.71,61.25c4.21,2.43,10.41,1,14.12-1.77A15.33,15.33,0,0,0,46,47.14a.63.63,0,0,0-1.25,0,14.74,14.74,0,0,1-6.17,11.69c-4.07,2.79-8.11,2.41-12.73,1.93-.27,0-.34.36-.13.49Z"/><path class="cls-7" d="M45.35,47.59a.05.05,0,0,0,0-.1.05.05,0,1,0,0,.1Z"/><path class="cls-7" d="M45.57,47.62c1.38-1.76,1.7-4.22,2.26-6.34.74-2.74,1.69-5.49,2.16-8.29a.5.5,0,0,0-1-.26c-1,2.64-1.59,5.5-2.35,8.23-.59,2.12-1.57,4.4-1.26,6.61a.09.09,0,0,0,.15,0Z"/><path class="cls-7" d="M48.51,39.34a13.91,13.91,0,0,0-.84,3,.13.13,0,0,0,.24.07,14.66,14.66,0,0,0,.73-3.06c0-.09-.11-.12-.13,0Z"/><path class="cls-7" d="M47.42,42.34c-.35,1.89-1,3.71-1.37,5.58,0,.17.22.31.3.13a17.23,17.23,0,0,0,1.26-5.68c0-.11-.17-.14-.19,0Z"/><path class="cls-7" d="M47,43.94a18.42,18.42,0,0,0-1.22,4.29.26.26,0,0,0,.47.13A18.4,18.4,0,0,0,47.37,44a.18.18,0,0,0-.35-.1Z"/><path class="cls-7" d="M48,41.79c-.28.72-.52,1.45-.84,2.16s-.62,1.14-.84,1.74a.28.28,0,0,0,.47.27,6.38,6.38,0,0,0,1.51-4.13c0-.18-.24-.19-.3,0Z"/><path class="cls-7" d="M36,61.41a7,7,0,0,0,2.54-1A8.13,8.13,0,0,0,41,58.75c.11-.14,0-.38-.18-.32a16.07,16.07,0,0,0-2.51,1.37,13.93,13.93,0,0,0-2.48,1.38.14.14,0,0,0,.1.23Z"/><path class="cls-7" d="M36.1,61.55a8,8,0,0,0,6.09-3.37.25.25,0,0,0-.34-.33c-1,.61-1.75,1.45-2.75,2s-2.08.91-3,1.51a.08.08,0,0,0,0,.16Z"/><path class="cls-7" d="M34.88,61.71a5.06,5.06,0,0,0,2.63-.77,4.75,4.75,0,0,0,2.13-1.75c.09-.17-.09-.31-.25-.24a23.76,23.76,0,0,0-2.21,1.43c-.76.44-1.62.68-2.35,1.16a.09.09,0,0,0,.05.17Z"/><path class="cls-7" d="M39,60.63a9.52,9.52,0,0,0,2.52-2.13A5.14,5.14,0,0,0,42.92,56c0-.17-.23-.26-.35-.14A23.86,23.86,0,0,0,41,58.1a15.23,15.23,0,0,1-2.19,2.28c-.14.12,0,.34.19.25Z"/><path class="cls-7" d="M35.58,61.83c.74-.16,2.19-.58,2.38-1.42a.25.25,0,0,0-.3-.31c-.4.11-.63.47-.93.73a5.2,5.2,0,0,1-1.25.77c-.13.06,0,.26.1.23Z"/><path class="cls-7" d="M25.81,61.24a1.63,1.63,0,0,0,2.19,0,.32.32,0,0,0-.22-.54,3.65,3.65,0,0,0-1,.2c-.32.08-.65.08-1,.18a.1.1,0,0,0,0,.16Z"/><path class="cls-7" d="M27.14,57.52A4,4,0,0,0,26.39,59c-.15.5-.37,1.06,0,1.5a.28.28,0,0,0,.4,0c.33-.35.21-.83.27-1.28s.24-1.06.34-1.6c0-.13-.13-.25-.23-.14Z"/><path class="cls-7" d="M25.93,61c.1,1,2.13.77,2.26-.15a.43.43,0,0,0-.52-.52c-.32,0-.54.28-.85.36s-.55,0-.78.12a.25.25,0,0,0-.11.19Z"/><path class="cls-7" d="M25.8,61.59c.57.18,1.48.54,2,.16a.35.35,0,0,0,.07-.54c-.51-.49-1.45-.25-2.09-.16-.28.05-.23.46,0,.54Z"/><path class="cls-7" d="M26.89,58.72a9.83,9.83,0,0,0,0,2.3c.05.58.91.78,1.06.15.24-1,.5-2,.77-2.93H27.66l.39,2.68c.09.61,1.06.57,1.18,0,.19-.86.39-1.72.59-2.58l-1.19-.16a9.7,9.7,0,0,0,.9,3.33c.28.63,1.09.22,1.16-.31a15.41,15.41,0,0,0,.08-2.88l-1.2.17a7.48,7.48,0,0,0,2,3.1.68.68,0,0,0,1.13-.66c-.16-.6-1-2.41-.88-1,0,.46,1,1.33,1.29,1.64.49.61,1.47-.05,1.27-.74-.24-.85-.48-1.69-.74-2.53l-1.28.54a8.7,8.7,0,0,0,2.43,2.37.76.76,0,0,0,1.11-.85c-.18-.76-.36-1.51-.55-2.26l-1.27.74a5.38,5.38,0,0,0,2.5,1.72c.78.28,1.16-.75.73-1.27l-.76-2-1.28.53A6.68,6.68,0,0,0,38,59.22a.78.78,0,0,0,.6-1.41c-.25.26,0,.43.79.52.61.36,1.48-.39,1-1l-1.6-2.21c-.56-.77-1.87,0-1.3.76l1.6,2.21,1-1c-.93-.54-2.66-2-3.63-.7s.32,2.29,1.3,2.81l.59-1.42a3.49,3.49,0,0,1-2.09-1.06.76.76,0,0,0-1.28.53,4.83,4.83,0,0,0,1.2,3.11L37,59.05a3.36,3.36,0,0,1-1.83-1.33c-.51-.62-1.42.06-1.26.74s.36,1.5.56,2.25l1.11-.85a5.58,5.58,0,0,1-2-1.78.7.7,0,0,0-1.28.54c.2.86.41,1.71.63,2.56l1.27-.74A9.47,9.47,0,0,0,31.87,58a.68.68,0,0,0-.91.23c-.58.8.24,2.32.47,3.11l1.13-.66a6,6,0,0,1-1.81-2.47c-.23-.59-1.24-.58-1.2.16a16.33,16.33,0,0,1-.11,2.88l1.16-.32a6.22,6.22,0,0,1-.76-2.7c-.06-.63-1-.88-1.19-.16s-.39,1.72-.6,2.58h1.18c-.16-.88-.33-1.77-.5-2.65a.56.56,0,0,0-1.07,0c-.24,1-.48,2-.74,2.93h1a10.11,10.11,0,0,0-.51-2.24.29.29,0,0,0-.56.08Z"/><path class="cls-7" d="M40.66,57.62c2.92-2.48,4.08-7.82,5.13-11.35.64-2.17,1.2-4.37,1.65-6.59.38-1.87,1.05-3.91.57-5.79a.66.66,0,0,0-1.18-.15c-.92,1.6-.92,3.62-1.29,5.42q-.67,3.33-1.64,6.59-.91,3-2,6c-.71,1.84-1.67,3.66-1.7,5.66a.3.3,0,0,0,.51.21Z"/><path class="cls-7" d="M48.47,32.51c-1.09.05-1.49,1.65-1.58,2.51s1.57,1,1.56,0a5.16,5.16,0,0,1,.12-1.3,2.05,2.05,0,0,0,.08-1.07.18.18,0,0,0-.18-.14Z"/><path class="cls-7" d="M48.73,33.18c-.25-1.16-2.15-.71-2.84-.32-.93.52-.1,1.92.83,1.42a7.73,7.73,0,0,1,1.37-.49c.25-.07.71-.28.64-.61Z"/><path class="cls-7" d="M46,33.41C43.88,36.7,43.3,41.31,42.11,45c-1.32,4.13-3.15,8.16-4.33,12.32a.88.88,0,0,0,1.6.67c2-3.72,3.19-8,4.46-12C45,42.24,47,37.56,46.64,33.59a.35.35,0,0,0-.65-.18Z"/><path class="cls-7" d="M32.94,58.27a7.08,7.08,0,0,0,2.56,1.45,4.76,4.76,0,0,0,2.37,0c1.14-.31,2.51-1.3,2-2.62a.36.36,0,0,0-.52-.21,9,9,0,0,1-2.32,1.21,5.36,5.36,0,0,1-2-.18c-.6-.12-1.24-.14-1.83-.29a.35.35,0,0,0-.27.64Z"/><path class="cls-7" d="M48.76,32.67a3.69,3.69,0,0,0-1.32,1.58,3.13,3.13,0,0,0-.52,2,.36.36,0,0,0,.51.21,3.22,3.22,0,0,0,1.18-1.62,3.87,3.87,0,0,0,.41-2c0-.12-.15-.23-.26-.15Z"/><path class="cls-8" d="M40.58,32.48a.05.05,0,1,0,0-.1.05.05,0,0,0,0,.1Z"/><path class="cls-8" d="M40.39,32.32C36,39.88,32,47.76,28.11,55.58c-.18.35.33.65.52.31,4.18-7.68,8.34-15.49,12-23.41.08-.18-.17-.33-.27-.16Z"/><path class="cls-8" d="M28.48,55.84c3.7,3.21,8.22-.77,10-4.13,3-5.77,5-12.5,6.73-18.77a.48.48,0,0,0-.92-.25,125.68,125.68,0,0,1-4.51,13.89C37.91,51.26,35,58.05,28.68,55.5c-.19-.07-.34.21-.2.34Z"/><path class="cls-8" d="M40.53,32.49a7.89,7.89,0,0,0,2.57.16,14.25,14.25,0,0,0,2.61-.17.31.31,0,0,0,0-.6,13.38,13.38,0,0,0-2.61-.07,7.9,7.9,0,0,0-2.57.26.22.22,0,0,0,0,.42Z"/><path class="cls-8" d="M43.83,33.07c-2.49,3.26-3.86,7.71-5.44,11.48-1.33,3.15-2.57,8.62-6.16,9.94-1.59.58-1.37.23-.67-1l1.69-3.05q1.45-2.62,2.88-5.25L39,39.89c.84-1.55,2.23-5.61,4-6.16a.79.79,0,0,0-.41-1.52c-2,.57-2.81,2.42-3.75,4.14l-4.77,8.76c-1.51,2.77-3,5.54-4.49,8.34-.54,1-1,2.15.21,2.92s3.38-.1,4.51-.9a12.38,12.38,0,0,0,3.87-5.56c1.17-2.75,2.23-5.54,3.29-8.33s2.35-5.54,2.7-8.42c0-.2-.25-.22-.34-.09Z"/><path class="cls-8" d="M41.32,32.63a1,1,0,0,0-1.27,1.27.42.42,0,0,0,.81-.22.67.67,0,0,1,.08-.48c.09-.22.05-.24.34-.26a.16.16,0,0,0,0-.31Z"/><path class="cls-8" d="M43.76,32.7a5,5,0,0,0-1.29,1.35,9.22,9.22,0,0,0-1.2,1.9.31.31,0,0,0,.48.37,8.23,8.23,0,0,0,1.3-1.64A5.58,5.58,0,0,0,44,32.86a.14.14,0,0,0-.21-.16Z"/><path class="cls-8" d="M42.47,34.17c-3.06,3.62-7,8.82-7,13.81a.43.43,0,0,0,.8.22c1.28-2.14,1.84-4.75,2.89-7A45.12,45.12,0,0,1,43,34.54c.19-.29-.26-.64-.48-.37Z"/><path class="cls-8" d="M39.81,38.16c-2.2,4-3.56,8.56-5.05,12.89-.31.91,1.13,1.3,1.44.39,1.49-4.28,3.22-8.64,4-13.12,0-.21-.26-.37-.37-.16Z"/><path class="cls-8" d="M36.37,48.16a15.07,15.07,0,0,1-4,5l1,.8a37.77,37.77,0,0,0,1.8-3.74c.37-1,1.15-2.34.53-3.32a.43.43,0,0,0-.57-.15c-.88.57-.84,1.72-1.14,2.66a15.79,15.79,0,0,1-1.76,3.88c-.34.53.37,1.3.91.9A10,10,0,0,0,37,48.41c.08-.34-.43-.6-.6-.25Z"/><path class="cls-8" d="M31.48,54.55c.74,0,1.29-1.37,1.61-1.88.58-.94,1.61-1.92,1.71-3a.69.69,0,0,0-.87-.66c-1.22.5-1.82,2.12-2.27,3.28-.07.19-.86,2.27-.18,2.3Z"/><path class="cls-8" d="M32.28,54.67c.4-.47.43-1.11.77-1.61l-1.31-.56a2.42,2.42,0,0,1-1.18,1.82c-.76.42-.08,1.6.69,1.17.59-.32,3.26-.72,2.79-1.85s-2.65.43-3.32.61l.53,1.24a3.17,3.17,0,0,0,1.9-2.79.73.73,0,0,0-1.34-.37c-.38.69-.73,1.92.17,2.38a.24.24,0,0,0,.3,0Z"/><path class="cls-8" d="M35,55.35a3.5,3.5,0,0,0,1.72-1.07,3.82,3.82,0,0,0,.82-1.91.18.18,0,0,0-.34-.09,5.56,5.56,0,0,1-2.29,2.88.11.11,0,0,0,.09.19Z"/><path class="cls-8" d="M40.74,37.35c-1,1-1.11,2.38-1.59,3.62s-1.48,2.5-1.27,3.86a.56.56,0,0,0,.68.39c1.37-.5,1.87-2.23,2.28-3.52s.91-3,.16-4.32a.17.17,0,0,0-.26,0Z"/><path class="cls-8" d="M40.91,42.1c-.57,1.16-1,2.35-1.46,3.56s-1.29,2.4-1.2,3.65a.42.42,0,0,0,.7.28c.93-.73,1.27-2.26,1.62-3.34a15.34,15.34,0,0,0,.85-4,.28.28,0,0,0-.51-.14Z"/><path class="cls-8" d="M43.94,32.82a6.66,6.66,0,0,0-2.26,1.86,5,5,0,0,0-1.26,2.4.49.49,0,0,0,.82.34,22.26,22.26,0,0,0,1.25-2.12,25,25,0,0,1,1.75-2.1.25.25,0,0,0-.3-.38Z"/><path class="cls-8" d="M43.15,33.05a3.53,3.53,0,0,0-2.24,1.34c-.45.54-1.13,1.72-.64,2.39a.27.27,0,0,0,.42.06A1.6,1.6,0,0,0,41,36a4.86,4.86,0,0,1,.44-1,4.73,4.73,0,0,1,1.75-1.66.13.13,0,0,0-.07-.24Z"/><path class="cls-8" d="M41.09,33.4a2.62,2.62,0,0,0-1.71,2.29.4.4,0,0,0,.2.34l.06,0A.27.27,0,0,0,40,36c.32-.26.18-.84.31-1.22a2.89,2.89,0,0,1,.91-1.22.11.11,0,0,0-.11-.19Z"/><path class="cls-8" d="M40.3,33.51a7.84,7.84,0,0,0-1.47,2.3,4.09,4.09,0,0,0-.45,2.66.23.23,0,0,0,.41.05,7.53,7.53,0,0,0,.77-2.18,24.29,24.29,0,0,1,1-2.6c.08-.18-.15-.41-.3-.23Z"/><path class="cls-8" d="M39.33,37.78a42.62,42.62,0,0,0-2.39,4.66c-.1.25.29.39.42.17A41.61,41.61,0,0,0,39.67,38c.11-.23-.22-.43-.34-.2Z"/><path class="cls-8" d="M30,54c1.71,1.78,6,.32,6.2-2.19a.34.34,0,0,0-.51-.29,11.15,11.15,0,0,1-2.47,1.72,10.11,10.11,0,0,1-3,.34A.25.25,0,0,0,30,54Z"/><path class="cls-8" d="M34.87,54.79a2.4,2.4,0,0,0,2.45-2.35.29.29,0,0,0-.54-.14,5,5,0,0,1-2,2.21.15.15,0,0,0,.08.28Z"/><path class="cls-8" d="M35.67,54.84c.87-.39,2.16-1.09,2.27-2.13,0-.2-.21-.27-.35-.2a3.18,3.18,0,0,0-1,.91,8.71,8.71,0,0,1-1.15,1,.22.22,0,0,0,.22.38Z"/><path class="cls-8" d="M35.37,55.65a4.6,4.6,0,0,0,2.1-1.8.31.31,0,0,0-.42-.42,4.48,4.48,0,0,0-1.87,2c0,.12,0,.3.19.24Z"/><path class="cls-4" d="M69.45,33.28c5.38.68,11.26-.19,16.68-.4l16.68-.61c.45,0,.45-.72,0-.7l-17.17.7c-5.27.21-11-.19-16.2.89-.08,0,0,.11,0,.12Z"/><path class="cls-4" d="M163.34,31.15a8.89,8.89,0,0,0,2.92.32,15.2,15.2,0,0,0,2.94,0c.31,0,.28-.53,0-.6a15.21,15.21,0,0,0-2.94-.22,8.41,8.41,0,0,0-2.92.08.21.21,0,0,0,0,.4Z"/><path class="cls-4" d="M39.8,35.6a3.5,3.5,0,0,1,.82-1.8,3.68,3.68,0,0,1,2.86-.64A7.76,7.76,0,0,0,47.1,33a.44.44,0,0,0-.23-.84c-1.94.31-4.42-.24-6.19.75-.89.49-1.85,1.72-1.15,2.7a.15.15,0,0,0,.27,0Z"/><path class="cls-4" d="M35.1,60.78c4.24.25,7-4.81,8.06-8.21a.26.26,0,0,0-.48-.2,31.07,31.07,0,0,1-2.87,5A8.85,8.85,0,0,1,35,60.21a.29.29,0,0,0,.07.57Z"/><path class="cls-9" d="M88.3,72.93c0-6.71.34-15.33,7.66-18.27a.12.12,0,0,0,.08-.13c.09.54-.39-4,1-3.42.06,0,.37,1.25.54,1.52A3.39,3.39,0,0,0,99.39,54a.1.1,0,0,0,.12-.05c.17-.61.53-.72,1.08-.31a.13.13,0,0,0,.18,0l1.49.08a.13.13,0,0,0,.21,0c1-1.1,2.85.06,3.77.7a.15.15,0,0,0,.16,0,4.72,4.72,0,0,0,1.77-2.92c0-.21,0-1.34.06-1.34,1.19,0,.66,4.39.49,5a.12.12,0,0,0,.12.15c1.67,0,2.5,3.71,3,5,.06.15.3.08.24-.07-.68-1.7-1.38-3.4-2.06-5.1a.13.13,0,0,0-.11-.08c-1.21,0-.57-1.9-.71-2.81A6.5,6.5,0,0,0,108,49.43a.12.12,0,0,0-.21.09c.21,1,.29,3.81-1.05,4.27-.9.31-1.75-.53-2.4-1a.15.15,0,0,0-.17,0l-1,0c-.05-.06-.15-.1-.21,0a2.84,2.84,0,0,1-2.78,0,.12.12,0,0,0-.19,0c-.29.87-.79.77-1.47-.29a1.54,1.54,0,0,1-1.23-2.06.1.1,0,0,0-.18-.07,4.83,4.83,0,0,0-1.21,1.93c-.26.84,0,1.71-.63,2.42-.42.46-1.33.7-1.85,1.1a10.86,10.86,0,0,0-2.23,2.31c-3.13,4.25-3.15,9.75-3,14.8a.09.09,0,0,0,.17,0Z"/><path class="cls-9" d="M113.16,61.6a26.58,26.58,0,0,1,.14,11.16.09.09,0,1,0,.18,0,17.52,17.52,0,0,0-.21-11.24.06.06,0,0,0-.11,0Z"/><path class="cls-9" d="M90,74.05a29.48,29.48,0,0,0,22.68-.26c.16-.07,0-.34-.12-.28a34.69,34.69,0,0,1-22.52.39c-.09,0-.13.12,0,.15Z"/><path class="cls-9" d="M86.85,74.62a75.14,75.14,0,0,0-2.22,8.68,3.36,3.36,0,0,0,.78,3.28c1.41,1.35,3.88,1.32,5.69,1.44a70.13,70.13,0,0,0,18.06-1.17c2.23-.43,5.16-.7,7.11-1.95a2.43,2.43,0,0,0,1-2.9c-.6-3-1.61-6.07-2.42-9.07a.2.2,0,0,0-.39.11l1.65,6.13a12.05,12.05,0,0,1,.7,2.63c0,3-1.38,3.13-3.16,3.61a69,69,0,0,1-13.08,2.18c-4,.28-8.7.61-12.7-.29-3.29-.75-3-3.79-2.38-6.38.51-2.08,1-4.16,1.47-6.26a.08.08,0,0,0-.15,0Z"/><path class="cls-9" d="M85.21,87.32c-1.65,3.94-2,9.11,1.64,12.09,3.9,3.16,11,2.39,15.62,2.2,4.27-.18,10.91,0,14.38-3,4-3.45,2.15-9.22.5-13.35-.1-.26-.53-.15-.42.12,1.67,4.23,3.74,10.58-1.2,13.54-3.67,2.19-9.12,2.05-13.26,2.22s-8.92.48-12.87-.81c-5.82-1.9-5.89-8.13-4.26-13,0-.08-.1-.11-.13,0Z"/><path class="cls-9" d="M88.73,102c1.53,3.12,1.63,8.44,5.45,9.92a4.07,4.07,0,0,0,3.21-.19c2.48-1.1,4.22-2.75,7.06-3.06s5.12,1.09,7.89,1.34a4.61,4.61,0,0,0,3.54-1c2.81-2.34,2.31-6.3,1.78-9.5,0-.26-.44-.15-.4.12.79,4.85.22,11.2-6.45,9.62-2.68-.63-4.81-1.41-7.59-.8-3,.65-6.44,4.53-9.47,2.83-3.25-1.83-3.09-6.49-4.84-9.4-.07-.12-.24,0-.18.11Z"/><path class="cls-9" d="M94.63,114.7c2.91,4.79,9.31,4.74,14.22,4.41,1.9-.13,4-.32,5.27-2s1.12-4.29.48-6.23a.15.15,0,0,0-.29.08c.42,2.86.81,6.23-2.71,7.29a21.47,21.47,0,0,1-5.77.51c-4.27.06-8.22-.83-11-4.25-.09-.11-.26,0-.19.14Z"/><path class="cls-9" d="M99,121c0,2-.68,5.58,1,7,1.25,1.1,4,1.48,5.59,1.52,5,.13,6.15-4.56,6.09-8.71a.17.17,0,0,0-.34,0c-.11,4.07-1,8.62-6.14,8.35a6,6,0,0,1-4.71-2.07A3.89,3.89,0,0,1,99.42,124c0-1-.09-2-.19-3,0-.12-.2-.13-.2,0Z"/><path class="cls-9" d="M99,127.77h-.07s-.08,0-.06,0l0,.06s0,0,0,0,.1,0,.15-.07-.05-.1-.08,0Z"/><path class="cls-9" d="M99.29,127.43a8.66,8.66,0,0,1-2.4,3.61c-.87.76-2.07,1.1-2.9,1.89a2.82,2.82,0,0,0-.95,2c-.15,2.1,1.52,5.53,3.61,6.2,2.62.83,5.61-1.54,7.37-3.21a17.23,17.23,0,0,0,4.9-8.87.16.16,0,0,0-.3-.08,16.84,16.84,0,0,1-3.61,7.27c-1.88,2.21-5.39,5.42-8.38,4.14a5.56,5.56,0,0,1-3-4.05,5.83,5.83,0,0,1,1.64-3.81c.33-.29.89-.5,1.23-.75a8.29,8.29,0,0,0,3-4.26c0-.15-.17-.2-.22-.07Z"/><path class="cls-9" d="M93.56,132.36q-3.93-1.44-2.56-3.73A3.84,3.84,0,0,1,92.16,127a15.7,15.7,0,0,0,1.36-1.17c.37-.51.37-.27.31-1.08a3.94,3.94,0,0,0-2.9-3.09c-4.43-1.25-7.09,3.73-7.67,7.3-.64,4,.28,8.57,3.54,11.19a8.85,8.85,0,0,0,5.73,2c1.3,0,3.46-.38,4.07-1.69a.13.13,0,0,0-.2-.16c-4.25,3.75-10.51-.1-12.16-4.53-1.56-4.19-1-12,4.17-13.58,1.8-.55,6.32.76,4.53,3.59-.32.51-1.16,1-1.56,1.47a4.43,4.43,0,0,0-1.14,3.44,2.44,2.44,0,0,0,3.41,2c.14-.05,0-.26-.09-.23Z"/><path class="cls-9" d="M88.93,121.58A11.22,11.22,0,0,1,97,118.22a.22.22,0,0,0,0-.43,10.14,10.14,0,0,0-8.15,3.71.06.06,0,1,0,.08.08Z"/><path class="cls-9" d="M94.34,125.34a5.13,5.13,0,0,1,4.32-.63c.22.06.38-.29.16-.38a4.24,4.24,0,0,0-4.62.83.12.12,0,0,0,.14.18Z"/><path class="cls-9" d="M111.77,124.71c4-1.26,8.4-3.91,10.85-7.42.06-.09-.07-.17-.14-.11a55.73,55.73,0,0,1-5.26,4.45,38.31,38.31,0,0,1-5.5,3c-.06,0,0,.14,0,.12Z"/><path class="cls-9" d="M109.91,133.48c2,1.89,4.27,3.4,6.12,5.5a47.13,47.13,0,0,1,5,7.49c.08.13.32,0,.26-.11-1.73-4.92-6.44-10.81-11.24-13a.08.08,0,0,0-.09.13Z"/><path class="cls-9" d="M121.92,117.7a4.17,4.17,0,0,0,0,.5,0,0,0,1,0,.09,0c0-.17,0-.33,0-.5s-.1-.07-.1,0Z"/><path class="cls-9" d="M122.11,117.68a4.46,4.46,0,0,1-1.53,2.69s0,.09,0,.06a3.71,3.71,0,0,0,1.59-2.73c0-.06-.1-.08-.11,0Z"/><path class="cls-9" d="M120.89,120.67A2.62,2.62,0,0,0,123,121c.08,0,.08-.17,0-.16a3.54,3.54,0,0,1-2-.3c-.1,0-.19.1-.09.15Z"/><path class="cls-9" d="M121.93,121.69c-.56.28-1.15.53-1.68.86-.06,0,0,.13,0,.11.59-.23,1.15-.56,1.71-.84.09,0,0-.17-.07-.13Z"/><path class="cls-9" d="M120.76,122.85c.68.17,1.35.36,2,.5.08,0,.12-.11,0-.13-.67-.2-1.35-.36-2-.52-.09,0-.14.12,0,.15Z"/><path class="cls-9" d="M121.93,123.89c-.62.39-1.28.74-1.86,1.19-.07,0,0,.17.07.12.65-.33,1.25-.78,1.87-1.17.09-.06,0-.2-.08-.14Z"/><path class="cls-9" d="M119.9,125.25a21,21,0,0,0,2.37.85c.11,0,.18-.13.08-.18a25.18,25.18,0,0,0-2.4-.83.08.08,0,0,0,0,.16Z"/><path class="cls-9" d="M122.08,127.07a6.63,6.63,0,0,0-1,.71c-.06,0,0,.12.08.1a8.08,8.08,0,0,0,1-.64c.11-.07,0-.24-.1-.17Z"/><path class="cls-9" d="M121.28,128.25a15.72,15.72,0,0,0,2.54,1,.07.07,0,0,0,.06-.13,15.43,15.43,0,0,0-2.56-1c-.11,0-.15.14,0,.18Z"/><path class="cls-9" d="M124,129.64c-.62.28-1.25.54-1.85.88,0,0,0,.1,0,.08.65-.23,1.27-.53,1.89-.82.09,0,0-.18-.08-.14Z"/><path class="cls-9" d="M122.38,131.23a14.14,14.14,0,0,0,2.43,1.29c.07,0,.12-.08.07-.13a14,14,0,0,0-2.37-1.38c-.14-.08-.27.14-.13.22Z"/><path class="cls-9" d="M123.94,133.16a21.93,21.93,0,0,0-2.19,1,.08.08,0,0,0,.07.15,21,21,0,0,0,2.22-1c.12-.06,0-.23-.1-.18Z"/><path class="cls-9" d="M122.22,135a16.63,16.63,0,0,0,1.75,1.81s.1,0,.07,0a15.91,15.91,0,0,0-1.65-1.92c-.1-.11-.26.05-.17.16Z"/><path class="cls-9" d="M124.12,137.75a14.37,14.37,0,0,0-1.36.68c-.08,0,0,.21.08.17a14.7,14.7,0,0,0,1.38-.68c.11-.06,0-.23-.1-.17Z"/><path class="cls-9" d="M122.41,138.92a1.68,1.68,0,0,0,1.61.67.07.07,0,0,0,0-.13,3,3,0,0,1-1.48-.68c-.09-.09-.22,0-.13.14Z"/><path class="cls-9" d="M123.45,140.47a9.28,9.28,0,0,0-1.18.88s0,.1.06.08a9.78,9.78,0,0,0,1.2-.82c.09-.06,0-.21-.08-.14Z"/><path class="cls-9" d="M122.4,141.63a4.79,4.79,0,0,1,1.21,2c0,.05.11.05.1,0a3.56,3.56,0,0,0-1.16-2.11c-.1-.09-.24.06-.15.15Z"/><path class="cls-9" d="M123.26,143.82c-.5.22-1,.41-1.51.68a.07.07,0,0,0,0,.13,15.1,15.1,0,0,0,1.56-.65c.11,0,0-.2-.1-.16Z"/><path class="cls-9" d="M122.22,145a7.79,7.79,0,0,0,.73,1.7c0,.05.11,0,.1,0a7.8,7.8,0,0,0-.62-1.71c-.05-.12-.26-.07-.21.06Z"/><path class="cls-9" d="M122.79,146.73a1,1,0,0,1-1-.29s-.09,0-.06.05a1,1,0,0,0,1.07.36c.08,0,0-.14,0-.12Z"/><path class="cls-9" d="M121.81,146.46a4.46,4.46,0,0,0-.18,1,0,0,0,0,0,.06,0,4.41,4.41,0,0,0,.15-1s0,0,0,0Z"/><path class="cls-9" d="M120.78,146.48a0,0,0,0,0,0,0s0,0,0,0Z"/><path class="cls-9" d="M116,77.93c2-1.76,4-3.53,6.19-5.09,1.73-1.23,3.11-2.36,5.32-.39a8.42,8.42,0,0,1,1.94,3c1.18,3.52-3,4.85-5.39,6.2l-6.64,3.72a.19.19,0,0,0,.19.32l5.79-3.28a37.81,37.81,0,0,0,5.37-3.13c1.94-1.58,1.54-3.38.35-5.34s-2.8-3.71-5.18-2.67c-2.88,1.26-5.92,4.31-8,6.52-.07.06,0,.16.1.1Z"/><path class="cls-9" d="M126,71.43a1.35,1.35,0,0,0-.19-.33,0,0,0,0,0,0,0,2.17,2.17,0,0,0,.15.35,0,0,0,1,0,.08,0Z"/><path class="cls-9" d="M125.93,71.27c3.79-3.29,7.47-6.62,11.53-9.59.19-.14,0-.47-.19-.32a79.86,79.86,0,0,0-11.45,9.8c-.07.07,0,.17.11.11Z"/><path class="cls-9" d="M137.16,61.89c2.07.8,4.49,1.25,5.73,3.32,1.62,2.71-.7,5-2.89,6.3-3.27,1.92-6.7,3.55-10,5.44-.2.11,0,.4.18.3,3.16-1.59,6.29-3.31,9.4-5,1.59-.88,3.48-1.93,4.13-3.77,1.42-4-3.38-6.41-6.55-6.72-.1,0-.1.12,0,.15Z"/><path class="cls-9" d="M137.38,62.16c.36-1.26.75-6.67,2.06-7,.64-.17,2.08.47,2.81.55a16.85,16.85,0,0,0,3.62,0,11.56,11.56,0,0,1,2.43-.43c.71.4-.19,2.21-.43,2.86a22.15,22.15,0,0,1-4.64,7.4c-.19.2.11.5.3.3a22.57,22.57,0,0,0,5.69-10.93.22.22,0,0,0-.26-.27,17.28,17.28,0,0,1-10.17-.16.21.21,0,0,0-.26.15c-.47,2.49-1,5-1.26,7.5a.06.06,0,0,0,.11,0Z"/><path class="cls-9" d="M136.82,34.18c.68.39.31,1.72.23,2.37a.12.12,0,0,0,.09.12c1.15.19,1,.62.71,1.56a.12.12,0,0,0,.09.15c1.19.27,1.14.59.88,1.71,0,.07,0,.17.12.16.46,0,1-.3,1.24.18.11.21-.42,1.33-.49,1.53s.19.22.24.07l.66-2.05c0-.07,0-.17-.12-.16-1.29.15-1.32,0-1.05-1.23a.12.12,0,0,0-.08-.15c-1.19-.27-1.13-.56-.82-1.65a.14.14,0,0,0-.08-.16c-1.63-.27-.29-2-1.5-2.67-.14-.08-.26.14-.12.22Z"/><path class="cls-9" d="M132.25,29.77a13.49,13.49,0,0,1,2.22-4.8,16.34,16.34,0,0,1,1.63-1.74c.1.11-.28,1.22-.31,1.4a4.15,4.15,0,0,0,0,2.29,2.58,2.58,0,0,0,.36.49s.32.19.31.16c.12.29-.21.78-.31,1a.13.13,0,0,0,.08.16c.81.32.43.83.31,1.51,0,.15.21.22.24.06a4.3,4.3,0,0,1,.39-1.31.13.13,0,0,0-.07-.19c-.77-.3-.5-.68-.25-1.31a.12.12,0,0,0-.08-.15c-1.63-.24-.57-3.32-.35-4.32,0-.09-.09-.21-.19-.14a12.2,12.2,0,0,0-4.2,6.8c0,.15.2.22.24.07Z"/><path class="cls-9" d="M138.66,54.44c-6.43-4.84-7.2-13.23-6.94-20.69a.13.13,0,0,0-.25,0c-.26,7.57.57,16,7.07,20.9.12.1.25-.12.12-.21Z"/><path class="cls-9" d="M154.4,30.39c.21-10.32-3.22-21.08-12-27.21-.13-.1-.26.12-.12.21,8.67,6.08,12.05,16.77,11.84,27a.13.13,0,0,0,.25,0Z"/><path class="cls-9" d="M149.08,54.61a101.66,101.66,0,0,0,5-19.56c0-.16-.23-.16-.25,0a101,101,0,0,1-5,19.49c-.05.15.19.22.25.07Z"/><path class="cls-9" d="M144.34,34.08c-.46.39-1.23,1-1.39,1.6.11-.43-.1,1.3.13.77-.17.41-.67.53-.88.95-.6,1.21.07,2.19-1.24,3.5-2.56,2.56-5.2,6-1.11,8.65.13.08.26-.13.12-.22a3.81,3.81,0,0,1-1.54-5.23c.8-1.59,2.06-2.12,3.2-3.35s.6-3.27,2-4.06a.13.13,0,0,0,0-.22c-1.16-.59.51-1.91.87-2.22.12-.1-.05-.28-.18-.17Z"/><path class="cls-9" d="M142.41,2.8c.55.89,2.05,2.41.74,3.53a.13.13,0,0,0,0,.18c.39.48,1.47,1.33,1.24,2,.22-.66-1.51,1.09-1.1.7a.11.11,0,0,0,0,.17c1.52,1.21,1.84,1.63.5,3.06a.13.13,0,0,0,.05.21c2,.56,1.4,1.42.23,2.33a.13.13,0,0,0,0,.17c.67.87,2.06,2.21.29,3.33a.13.13,0,0,0,0,.23l.58,3.34a.13.13,0,0,0,0,.2c1.24,1,.5,1.41-.44,2.2a.13.13,0,0,0,0,.18c.33.3,2,1.47,1.87,2,.09-.4-1.28,1-1,.57a1.69,1.69,0,0,0,.13,1.68c.19.41.66.83.59,1.23,0,.06-.42,0-.46.16-.25.76-.73,1.2-.73,2.15a.13.13,0,0,0,.25,0,1.66,1.66,0,0,1,1.38-1.92c.1,0,.21-.1.14-.19-.2-.26-.36-.53-.72-.54a.13.13,0,0,0-.11.19c.24.32.17.21.66.53a.13.13,0,0,0,.17-.18c-.64-1-1.75-2.88.15-3.58a.13.13,0,0,0,.06-.21c-.29-.27-1.52-1.18-1.65-1.54-.29-.88.58-1.29,1.13-1.75a.13.13,0,0,0,0-.18c-1.35-1.06-.26-1.18-.17-2.42.08-1.06-.69-1.14-1-1.88-.22-.58.32-.61.37-1.41a2.37,2.37,0,0,0-.33-1c-.69-1.37-.58-1.46.74-2.47a.13.13,0,0,0,0-.2c-1.21-1.31-2-1-.46-2.67a.14.14,0,0,0,0-.18l-1-.8c-.68-.35-.48-.76.58-1.24.12,0,.15-.13.09-.21-.66-.8-1.35-1.34-1.38-2.44,0-.66.25-.21.21-.94,0-.93-.89-1.76-1.35-2.5-.09-.14-.3,0-.22.12Z"/><path class="cls-9" d="M84.17,94.93,84,94.76c-.07-.11-.22,0-.11.1l.18.14s.11,0,.06-.07Z"/><path class="cls-9" d="M83.3,111a3,3,0,0,0,3.55,3.42c2.74-.46,4.21-3.53,4.22-6.07a.14.14,0,0,0-.27,0c-.45,1.84-.69,3.74-2.34,5-2,1.44-5.19.66-4.9-2.22,0-.16-.23-.19-.26,0Z"/><path class="cls-9" d="M84.42,105.71a38.06,38.06,0,0,0,6.47,2.53c.18.05.31-.21.13-.3a37.47,37.47,0,0,0-6.49-2.49c-.15,0-.26.19-.11.26Z"/><path class="cls-9" d="M84,113.56c-.11.5-.22,1-.35,1.5-.44,2.19-1.79,2.8-4.07,1.82a.19.19,0,0,0-.29,0c-2.5,3.46-6.06,4.31-10.1,4-.14,0-.15.19,0,.23a8.65,8.65,0,0,0,5.5-.24,10,10,0,0,0,2.48-1.27c.65-.44,1.42-1.68,2-1.92.8-.31,1.68.51,2.7.15,1.72-.6,2.16-2.62,2.4-4.2,0-.18-.25-.27-.29-.07Z"/><path class="cls-9" d="M69.35,121.08a8.55,8.55,0,0,0,10.85,3.55,11.85,11.85,0,0,0,7-9.76c0-.16-.25-.2-.28,0-.72,3.72-2.36,7.08-5.8,9A8.65,8.65,0,0,1,69.51,121a.09.09,0,0,0-.16.1Z"/><path class="cls-9" d="M69.42,120.36c-5.78-7.65-8.92-17-7.61-26.59A34.9,34.9,0,0,1,75,71.12c.16-.13,0-.41-.22-.28-15.2,11.66-18.58,35-5.47,49.6,0,.06.16,0,.11-.08Z"/><path class="cls-9" d="M78.14,83.39c7.93,9.85,8.79,23.21.89,33.42-.15.19.12.47.27.27,7.69-9.93,7.79-24.53-.94-33.91-.14-.15-.34.06-.22.22Z"/><path class="cls-9" d="M77.69,83.08a10.64,10.64,0,0,0-1.22,1c-.08.06,0,.18.11.11a11.47,11.47,0,0,0,1.16-1s0-.1,0-.07Z"/><path class="cls-9" d="M78.23,83.39l-1.69-.52a.12.12,0,0,0-.11.2A11.19,11.19,0,0,0,78,84.58c.07,0,.17,0,.12-.12A12.43,12.43,0,0,0,76.6,82.9l-.12.21,1.72.41a.07.07,0,1,0,0-.13Z"/><path class="cls-9" d="M77.33,84.58c-.38.24-.76.47-1.15.69a.11.11,0,0,0,0,.21,2.51,2.51,0,0,1,1.72,1.09c.08.13.28,0,.2-.11a2.6,2.6,0,0,0-1.86-1.2l0,.21c.36-.27.73-.52,1.11-.77.07,0,0-.17-.08-.12Z"/><path class="cls-9" d="M77.5,86.6c-.28.21-.56.42-.85.61a.12.12,0,0,0,0,.21l-.08,1.68a.18.18,0,0,0,0,.3c.63.37.41,6.2,0,6.33-.07,0-.08.13,0,.14q1.58,2.49-.55,3.56a.11.11,0,0,0,.08.21c.23,0,.23,2.85.11,3.51,0,0,0,0,0,.06l.22.26q1,1-.81,2.28a.13.13,0,0,0-.14.19c.3.6.6,1.19.91,1.78.08.16.31,0,.23-.13-1.24-2.41.36-.7.84-2.44.15-.57-.07-.64-.2-1.14-.59-2.29-.22,1.92-.51-1.38-.23-2.66.21.67.35-1.64.2-3.2-.05,1-.06-1.34a2,2,0,0,0-.55-.32c0-.33,1.16-1.07,1.3-1.63a1.7,1.7,0,0,0,0-1.09c-.08-.2-.65-.66-.67-.78s.22-.17.24-.41c0-.55.22-.41.2-1,0-1.7-.19-.16.39-2.86,0,0,.07-.05.08-.1.25-1.29-.34-1.35-.65-2.41,0-.16.28-.56.27-.77,0-.77-.85-.87,0-1.53.08-.06,0-.19-.1-.13Z"/><path class="cls-9" d="M74.59,71.23c-.57.77-1.12,1.56-1.68,2.34,0,.05,0,.12.06.14,1.53.49.87.63.58,1.73-.06.22.06.44,0,.62a7.51,7.51,0,0,1-1.33,3.07.12.12,0,0,0,.1.18c1,0,.26,1,.28,1.91.06,2.59-.77,5.21-1.11,7.8a.1.1,0,0,0,.06.1l.17,2.13a.11.11,0,0,0,0,.11c.77,2.31.06.7-.06,3-.19,3.41,1.59,1.07-.18,4.38,0,.07,0,.18.09.16,1.05-.13.28,1.74.21,2a.11.11,0,0,0,.11.14q1,.39.33,1.26a.13.13,0,0,0,.08.15c.71.23,1.13,2.86,1,3.32a.15.15,0,0,0,.15.19c.61.11.84.45.69,1a.17.17,0,0,0,.21.16,4.52,4.52,0,0,1,4.85,2.64c.1.22.43,0,.33-.2A4.68,4.68,0,0,0,76.9,107c-1-.38-2.37.15-2.45-1.22a.16.16,0,0,0-.15-.16c-.58-.13-.74-.45-.46-1a.19.19,0,0,0,0-.14l-.45-1.81a.12.12,0,0,0-.07-.18,1.07,1.07,0,0,1-.3-1.65.11.11,0,0,0-.11-.14c-1.19.12-.41-1.62-.32-2,0-.06,0-.15-.1-.14-.54.07,0-7.1.07-8a2.8,2.8,0,0,0-.1-1,8.53,8.53,0,0,1-.33-2.84,38.66,38.66,0,0,1,.82-4.13,28,28,0,0,0,.65-3.26.13.13,0,0,0-.07-.23c-1.45-.06.17-1.84.48-2.55.47-1-10.23,5.69.61-2.38a.09.09,0,0,0,0-.17c-1.75-.56-.53-1.69.18-2.7.07-.1-.09-.19-.15-.09Z"/><path class="cls-9" d="M90.26,73.94a7.78,7.78,0,0,0-1.07-.82A4.45,4.45,0,0,0,88,72.43a.07.07,0,0,0-.07.11,3.9,3.9,0,0,0,1,.75,7.73,7.73,0,0,0,1.25.71s.08,0,0-.06Z"/><path class="cls-9" d="M112.29,73.73a9.37,9.37,0,0,0,1.7-1.37.06.06,0,0,0-.08-.1,9.71,9.71,0,0,0-1.69,1.38.06.06,0,0,0,.07.09Z"/><path class="cls-9" d="M113.72,72.1a1.29,1.29,0,0,1,1.08,1.37c0,.2.27.19.3,0a1.41,1.41,0,0,0-1.35-1.57c-.11,0-.14.18,0,.2Z"/><path class="cls-9" d="M87.65,72.59a3.46,3.46,0,0,0-.87,2.74.07.07,0,0,0,.15,0,6.8,6.8,0,0,1,.23-1.48c.14-.44.39-.81.55-1.22,0,0,0-.06-.06,0Z"/><path class="cls-9" d="M88.26,72.9a2.07,2.07,0,0,1-.7-1.3c0-.07-.11,0-.11,0A1.68,1.68,0,0,0,88.16,73c.07.06.17,0,.1-.1Z"/><path class="cls-9" d="M87.48,72.92c-.11.12-.22.23-.32.36a0,0,0,0,0,0,0c.13-.1.24-.21.36-.32s0-.14-.09-.09Z"/><path class="cls-9" d="M87.75,72.27a3.77,3.77,0,0,1,0-2s-.06-.07-.07,0a3,3,0,0,0,0,2c0,.08.15,0,.12,0Z"/><path class="cls-9" d="M88.12,72.43a24.74,24.74,0,0,0-.57-2.52s-.09,0-.08,0A24.52,24.52,0,0,0,88,72.46c0,.05.09,0,.08,0Z"/><path class="cls-9" d="M87.94,75.31A24.58,24.58,0,0,0,86.79,84a0,0,0,1,0,.06,0,41,41,0,0,1,1.26-8.6.09.09,0,0,0-.17,0Z"/><path class="cls-9" d="M88.57,84.91a13.27,13.27,0,0,0,8,.38c.1,0,.06-.18,0-.16a16.6,16.6,0,0,1-7.89-.34.06.06,0,1,0,0,.12Z"/><path class="cls-9" d="M86.32,89.71a7.21,7.21,0,0,0,2.5,7.68c.07,0,.16,0,.09-.09a7.22,7.22,0,0,1-2.48-7.56.06.06,0,0,0-.11,0Z"/><path class="cls-9" d="M92.44,98.25a99.81,99.81,0,0,0,11.32,1.17c.13,0,.13-.19,0-.2-3.78-.25-7.54-.75-11.31-1,0,0,0,.06,0,.07Z"/><path class="cls-9" d="M116.14,87.68a12,12,0,0,1,.91,6.26c0,.06.1.08.11,0a10.75,10.75,0,0,0-.92-6.34c0-.07-.13,0-.1.06Z"/><path class="cls-9" d="M113.35,75.69a13.91,13.91,0,0,1,.86,5.57s.09.07.1,0a10.57,10.57,0,0,0-.84-5.63c0-.06-.14,0-.12,0Z"/><path class="cls-9" d="M91.42,103.75c.53,2.31,1.61,5.06,4.09,5.86,2.88.92,4.63-2.3,7.41-2.21,0,0,0-.07,0-.07-1.61-.16-2.63.78-4,1.54-4.31,2.41-6.21-1.83-7.47-5.14,0,0-.07,0-.06,0Z"/><path class="cls-9" d="M115.76,102.08a5.75,5.75,0,0,1-2.91,6.31.07.07,0,0,0,.07.12,5.62,5.62,0,0,0,2.89-6.45s0,0,0,0Z"/><path class="cls-9" d="M96.65,113.93l-.33-.35s0,0,0,0l.33.34s0,0,0,0Z"/><path class="cls-9" d="M96,113.12a5.8,5.8,0,0,0,7.28,4.28,0,0,0,0,0,0-.09,5.78,5.78,0,0,1-7.1-4.24c0-.09-.17,0-.15.05Z"/><path class="cls-9" d="M108.58,110.62c2.09.21,5.25.67,5,3.51,0,.05.08.06.09,0,.58-2.85-3-3.62-5-3.66a.07.07,0,0,0,0,.14Z"/><path class="cls-9" d="M93.62,93a.2.2,0,0,0,0-.4.2.2,0,0,0,0,.4Z"/><path class="cls-9" d="M97.87,92.57l-.09-.08c-.31-.3-.31.5,0,.21l.09-.08a0,0,0,0,0,0-.05Z"/><path class="cls-9" d="M90.57,81.47a.22.22,0,0,0,0-.43.22.22,0,0,0,0,.43Z"/><path class="cls-9" d="M90.57,78.72a.17.17,0,0,0,0-.34.17.17,0,0,0,0,.34Z"/><path class="cls-9" d="M99.26,78l-.12.07a.13.13,0,0,0,0,.22l.12.07c.4.25.4-.6,0-.36Z"/><path class="cls-9" d="M102.36,82.09a1.09,1.09,0,0,1-.31.08c-.1,0-.1.19,0,.2a.85.85,0,0,1,.31.09c.31.11.32-.49,0-.37Z"/><path class="cls-9" d="M95,82.65l.15-.06a.16.16,0,0,0,0-.3L95,82.23c-.36-.14-.36.56,0,.42Z"/><path class="cls-9" d="M110.91,77.42l-.06-.14a.17.17,0,0,0-.29,0l0,.14c-.19.43.58.43.4,0Z"/><path class="cls-9" d="M111.84,82.76l-.32.08a.12.12,0,0,0,0,.22l.32.08c.32.1.32-.48,0-.38Z"/><path class="cls-9" d="M107.78,84.57a2.11,2.11,0,0,0-.21-.31c-.06-.07-.19,0-.16.07a2.42,2.42,0,0,0,.12.35.14.14,0,1,0,.25-.11Z"/><path class="cls-9" d="M106.32,79.81a.72.72,0,0,0-.1.24.09.09,0,0,0,.11.11,1,1,0,0,0,.24-.1c.26-.14-.11-.51-.25-.25Z"/><path class="cls-9" d="M97.17,82.12s0,0,0,0a0,0,0,1,0,0,0Z"/><path class="cls-9" d="M101.93,95.33a2.45,2.45,0,0,0-.31.41.15.15,0,0,0,.21.21,2.08,2.08,0,0,0,.43-.3c.22-.19-.13-.54-.33-.32Z"/><path class="cls-9" d="M94.68,97.18l.15-.07a.12.12,0,0,0,0-.24l-.15-.06c-.3-.12-.3.49,0,.37Z"/><path class="cls-9" d="M104.81,89.75l-.14.12a.22.22,0,1,0,.3.3l.12-.14a.2.2,0,0,0-.28-.28Z"/><path class="cls-9" d="M113.54,89.9l-.16,0a.13.13,0,0,0,0,.25l.16,0c.26.07.27-.38,0-.31Z"/><path class="cls-9" d="M110.61,96.57l-.53-.1c-.18,0-.32.22-.13.32l.47.22c.34.15.52-.37.19-.44Z"/><path class="cls-9" d="M108.17,92.52H108a.07.07,0,0,0,0,.13h.17c.09,0,.09-.16,0-.15Z"/><path class="cls-9" d="M89.05,90.89a.16.16,0,0,0,0-.32.16.16,0,0,0,0,.32Z"/><path class="cls-9" d="M89.89,94.47a0,0,0,0,0,0,0s0,0,0,0Z"/><path class="cls-9" d="M98.49,95.51l-.16,0a.09.09,0,0,0,0,.18l.16,0c.22.07.22-.33,0-.26Z"/><path class="cls-9" d="M95,106.79l-.13.07a.14.14,0,0,0,0,.23l.13.08c.41.24.41-.63,0-.38Z"/><path class="cls-9" d="M94.27,104.91l-.06-.16a.09.09,0,0,0-.17,0l-.06.16c-.11.24.39.24.29,0Z"/><path class="cls-9" d="M113,103.43l-.13.07a.11.11,0,0,0,0,.19l.13.06c.35.18.35-.49,0-.32Z"/><path class="cls-9" d="M111.15,105.86a3.9,3.9,0,0,0-.4-.31c-.08,0-.19,0-.13.13a2.87,2.87,0,0,0,.31.4c.13.15.36-.08.22-.22Z"/><path class="cls-9" d="M106.14,105a2.09,2.09,0,0,0-.36.07.09.09,0,0,0,0,.17,1.44,1.44,0,0,0,.36.07c.19,0,.19-.33,0-.31Z"/><path class="cls-9" d="M99.52,105.88a1,1,0,0,0-.24-.32c0-.06-.13,0-.12.07a1.09,1.09,0,0,0,.14.38c.07.15.31,0,.22-.13Z"/><path class="cls-9" d="M99,104.1v.17s0,0,0,0v-.17a0,0,0,1,0,0,0Z"/><path class="cls-9" d="M100.5,121.56a13.11,13.11,0,0,0,.52,5.28,0,0,0,1,0,0,0,14.12,14.12,0,0,1-.34-5.26c0-.15-.22-.15-.23,0Z"/><path class="cls-9" d="M102.39,127.53a22.65,22.65,0,0,0,4.08.72.08.08,0,0,0,0-.15,22.59,22.59,0,0,0-4.08-.69.06.06,0,0,0,0,.12Z"/><path class="cls-9" d="M98.8,130.35a6.64,6.64,0,0,0,5.64,4.11s0-.05,0-.05a7.13,7.13,0,0,1-5.58-4.09s-.08,0-.07,0Z"/><path class="cls-9" d="M97,132.37a8.23,8.23,0,0,0,5.27,4.77s.06,0,0-.06A9,9,0,0,1,97,132.35s-.08,0-.06,0Z"/><path class="cls-9" d="M95.65,134.22a7.36,7.36,0,0,0,3.27,5.08s.06,0,0-.05a8.83,8.83,0,0,1-3.23-5.05s-.09,0-.08,0Z"/><path class="cls-9" d="M87,124a11.88,11.88,0,0,0,3.06,16.28c.07,0,.13-.06.07-.11a12,12,0,0,1-3-16.13,0,0,0,0,0-.08,0Z"/><path class="cls-9" d="M89.55,123.76a20.89,20.89,0,0,0,2,.66c.08,0,.1-.08,0-.11a20.09,20.09,0,0,0-2-.67.06.06,0,0,0,0,.12Z"/><path class="cls-9" d="M93.11,120a3.12,3.12,0,0,1,2.75,2.72c0,.07.12.05.12,0a3.06,3.06,0,0,0-2.87-2.83c-.09,0-.08.12,0,.13Z"/><path class="cls-9" d="M113.86,125.72a1,1,0,0,1,.56,0c.18.11.1.18.08.32s-.15.37-.19.56a3.07,3.07,0,0,0,0,1.09s.09,0,.09,0a2.66,2.66,0,0,1,.34-1.85.07.07,0,0,0,0-.09,1.06,1.06,0,0,0-.9-.11c-.06,0,0,.11,0,.1Z"/><path class="cls-9" d="M113.47,129.77l.83.53v-.15a1.36,1.36,0,0,0-.21,2c.06,0,.15,0,.11-.08a1.3,1.3,0,0,1,.2-1.8.09.09,0,0,0,0-.14l-.84-.49c-.07,0-.13.06-.07.11Z"/><path class="cls-9" d="M113.76,133.43a5,5,0,0,0,0,1,0,0,0,0,0,.09,0,4.44,4.44,0,0,0,0-1,.07.07,0,0,0-.13,0Z"/><path class="cls-9" d="M117.25,124.38l1-.26-.08-.16-.65.63a.11.11,0,0,0,0,.14,4.76,4.76,0,0,0,.55.78s.16,0,.13-.07-.36-.48-.38-.67.33-.5.5-.68a.09.09,0,0,0-.09-.15l-1,.28c-.11,0-.06.18,0,.16Z"/><path class="cls-9" d="M117.08,132.44l.82-.41-.14-.08a2.66,2.66,0,0,0,0,.63c0,.06.1.08.11,0a3.47,3.47,0,0,0,.06-.64.09.09,0,0,0-.14-.08l-.81.42c-.1.05,0,.2.09.15Z"/><path class="cls-9" d="M118.05,134.37a3.27,3.27,0,0,0,.5.19.09.09,0,0,0,.07-.17,4.68,4.68,0,0,0-.53-.17c-.1,0-.14.11,0,.15Z"/><path class="cls-9" d="M110.73,133.71c-.39-.65-1.51-1.54-2.33-1.22a.12.12,0,0,0,0,.22c.36.17.78.15,1.15.32a3.28,3.28,0,0,1,1,.82c.09.1.25,0,.18-.14Z"/><path class="cls-9" d="M111.51,118.49c0,.56.15,1.12.15,1.69a16.09,16.09,0,0,1-.16,1.69c0,.07.09.07.11,0a4.94,4.94,0,0,0,0-3.41,0,0,0,0,0-.07,0Z"/><path class="cls-9" d="M98.78,118.34a7.88,7.88,0,0,1,.38,3.85c0,.07.09.11.1,0a6.73,6.73,0,0,0-.33-3.92c0-.09-.18,0-.15,0Z"/><path class="cls-9" d="M92.86,110.73a10.52,10.52,0,0,0,1.08,2.21l1.35,2.44a.2.2,0,0,0,.35-.2l-1.37-2.43a10.1,10.1,0,0,0-1.3-2.08.06.06,0,0,0-.11.06Z"/><path class="cls-9" d="M114.19,109.69a8,8,0,0,0,.11,1.38,3.7,3.7,0,0,0,.21,1c0,.1.18,0,.19-.06a3.88,3.88,0,0,0-.11-1.12,6.71,6.71,0,0,0-.26-1.26.07.07,0,0,0-.14,0Z"/><path class="cls-9" d="M113.52,72.66A19.93,19.93,0,0,0,109,53.84c-.16-.16-.38.08-.24.24a21.6,21.6,0,0,1,4.61,18.54.07.07,0,0,0,.13,0Z"/><path class="cls-9" d="M96.26,54.26c-7,3.39-10.24,11.49-8.79,18.9.06.29.5.16.45-.12-1.5-7.75,2-14.4,8.48-18.54a.14.14,0,0,0-.14-.24Z"/><path class="cls-9" d="M88,67.21a20.4,20.4,0,0,0,0,2.71,0,0,0,0,0,.08,0,20.4,20.4,0,0,0,0-2.71.08.08,0,0,0-.16,0Z"/><path class="cls-9" d="M88.28,67c-.1,1.46-.2,2.94-.18,4.4a.07.07,0,0,0,.13,0c.13-1.45.15-2.94.15-4.4,0-.07-.1-.06-.1,0Z"/><path class="cls-9" d="M88.78,67.38c.06-.61.17-1.24.17-1.86a0,0,0,0,0-.09,0,16.66,16.66,0,0,0-.17,1.87c0,.06.08.06.09,0Z"/><path class="cls-9" d="M88.25,65.86c-.06,1.4-.18,2.82-.16,4.23,0,.1.15.1.16,0,.11-1.41.07-2.83.1-4.23a.05.05,0,1,0-.1,0Z"/><path class="cls-9" d="M96.07,54.69a6.1,6.1,0,0,1,1.32-4.24l-.31-.08a5.29,5.29,0,0,0,2,3.43c.17.12.4-.17.23-.3a5,5,0,0,1-1.92-3.23.19.19,0,0,0-.31-.08,5,5,0,0,0-1.2,4.52.07.07,0,0,0,.14,0Z"/><path class="cls-9" d="M99.41,53.86c.17-.22.35-.44.51-.67s-.09-.19-.16-.09-.31.46-.47.7c-.05.07.07.13.12.06Z"/><path class="cls-9" d="M106.42,54.46a6.2,6.2,0,0,0,1.8-4.54l-.41.11a7.7,7.7,0,0,1,1.13,4.66c0,.26.39.26.41,0a8,8,0,0,0-1.16-4.88.22.22,0,0,0-.41.11,7.24,7.24,0,0,1-1.52,4.42c-.06.09.08.19.16.12Z"/><path class="cls-9" d="M100.42,56.35a3,3,0,0,0,0,1.19,2.83,2.83,0,0,0,.4,1.24s.11,0,.11,0c0-.35-.17-.68-.23-1s0-.89,0-1.34a.14.14,0,0,0-.27,0Z"/><path class="cls-9" d="M104.7,56.21a21.34,21.34,0,0,0,.37,2.89.05.05,0,0,0,.1,0,20,20,0,0,0-.31-2.88c0-.1-.17-.1-.16,0Z"/><path class="cls-9" d="M99.4,55.64a.92.92,0,0,0-1.27.39s.06.09.09,0a.91.91,0,0,1,1.12-.33c.07,0,.13-.07.06-.11Z"/><path class="cls-9" d="M105.15,55.63c.29-.06.52-.16.79,0s.32.31.52.43c0,0,.09,0,.06-.07a2.24,2.24,0,0,0-.69-.68c-.18-.06-.54.1-.73.15s0,.17.05.15Z"/><path class="cls-9" d="M93.15,62.74A.87.87,0,0,0,93.93,64c.64,0,.9-.79.7-1.31a1,1,0,0,0-1.57-.37A1,1,0,0,0,93.25,64a.06.06,0,0,0,.06-.11,1,1,0,0,1-.24-1.44.87.87,0,1,1,1.14,1.29c-.59.33-1.24-.43-1-1a.06.06,0,0,0-.1-.06Z"/><path class="cls-9" d="M108.05,61.84a1,1,0,0,0,.17,1.44.88.88,0,0,0,1.35-.47.87.87,0,0,0-.8-1.2,1.64,1.64,0,0,0-1.6,1.51.08.08,0,0,0,.16,0c.2-.51.39-1.09,1-1.29s1.21.05,1.15.68a.75.75,0,0,1-1.06.65.88.88,0,0,1-.23-1.26c.06-.07,0-.18-.1-.1Z"/><path class="cls-9" d="M93.8,59.33a3.73,3.73,0,0,0-3.25,4.45,4.2,4.2,0,0,0,5.57,2.84c2.14-.84,3.7-3.44,2.73-5.69-1.13-2.63-4.57-2.15-6.52-.85-.11.08,0,.28.09.23,1.79-.68,3.82-1.56,5.43,0,1.9,1.84.41,4.87-1.66,5.83a3.87,3.87,0,0,1-5-1.68c-1.17-2.18.46-4.5,2.67-5,.07,0,.06-.14,0-.14Z"/><path class="cls-9" d="M107.19,59.16a3.58,3.58,0,0,0-1.66,5,3.5,3.5,0,1,0,5.19-4.55,3.48,3.48,0,0,0-5.18,1.18.11.11,0,1,0,.19.12c1-1.55,3.47-2.22,4.9-.83a3.25,3.25,0,0,1-.06,4.6,3.3,3.3,0,0,1-4.74-.69,3.47,3.47,0,0,1,1.41-4.72c.07,0,0-.16,0-.13Z"/><path class="cls-9" d="M91.27,69.34A43,43,0,0,0,100.33,64c.24-.17,0-.58-.24-.4-2.86,2.06-5.92,3.68-8.9,5.52-.1.07,0,.25.08.2Z"/><path class="cls-9" d="M111.08,68.49c-2.18-1.95-4.68-3.61-7-5.36-.25-.19-.5.23-.25.42,2.34,1.74,4.62,3.66,7.1,5.19.14.09.32-.13.18-.25Z"/><path class="cls-9" d="M153.72,22.8c1.63-.39,3.28-.72,4.94-1,.15,0,.09-.26-.07-.24-1.66.26-3.31.59-4.94,1a.13.13,0,0,0,.07.24Z"/><path class="cls-9" d="M136.44,30.14a61.77,61.77,0,0,1,9.08-4.67c.14-.06.08-.3-.07-.24a63,63,0,0,0-9.14,4.69c-.13.08,0,.3.13.22Z"/><path class="cls-9" d="M112.65,60A60.89,60.89,0,0,1,131,33.88c.13-.1-.05-.27-.17-.17a61,61,0,0,0-18.45,26.17c-.06.15.19.22.24.07Z"/><path class="cls-9" d="M91.92,57.75c-15.49-8.41-36.17-6.13-48.77,6.53-.09.09.05.22.14.14,6.38-5.5,13.63-9.48,22-10.86A42.92,42.92,0,0,1,91.78,58c.16.08.3-.15.14-.24Z"/><path class="cls-9" d="M66.76,79.25a238.4,238.4,0,0,1,1.26,47c0,.09.12.09.13,0a180.74,180.74,0,0,0-1.22-47c0-.1-.18-.07-.17,0Z"/><path class="cls-9" d="M66.2,83.81a0,0,0,0,0,0,0s0,0,0,0Z"/><path class="cls-9" d="M65.19,84.48s0,0,0,0,0,0,0,0Z"/><path class="cls-9" d="M65,83.46c-.54,16.1-.25,32.32.49,48.4a.08.08,0,0,0,.15,0c-.5-16.14-.54-32.25-.51-48.4a.07.07,0,0,0-.13,0Z"/><path class="cls-9" d="M62.16,91.91c.18,13,1.74,26.33,5.52,38.82,0,.06.11,0,.1,0-3.13-12.8-5.29-25.57-5.52-38.79a.05.05,0,0,0-.1,0Z"/><path class="cls-9" d="M69.45,79.74c.4,16.83.54,33.78,1.57,50.58a.07.07,0,1,0,.13,0c0-16.84-.89-33.76-1.52-50.58,0-.11-.18-.11-.18,0Z"/><path class="cls-9" d="M72,79.81c4.73,19.9.51,41.23,7.55,60.66a.06.06,0,1,0,.11,0c-6.49-19.68-2.73-40.69-7.53-60.66,0-.08-.14,0-.13,0Z"/><path class="cls-9" d="M79.28,88.16a273.7,273.7,0,0,1,2,38.61c0,.06.09.06.1,0a212.45,212.45,0,0,0-2-38.63c0-.06-.12,0-.11,0Z"/><path class="cls-9" d="M71.42,88a138.94,138.94,0,0,1,.65,26.74,0,0,0,1,0,.07,0A125.18,125.18,0,0,0,71.54,88c0-.07-.13-.07-.12,0Z"/><path class="cls-9" d="M76.2,88c.56,11.85,1,23.7,1.74,35.54a0,0,0,0,0,.09,0C77.57,111.71,76.9,99.87,76.31,88c0-.07-.11-.07-.11,0Z"/><path class="cls-9" d="M73.17,106.3c.14,8.4.25,16.81.46,25.21a0,0,0,1,0,.07,0c-.09-8.4-.28-16.81-.44-25.21a0,0,0,0,0-.09,0Z"/><path class="cls-9" d="M71.51,117.12c1,9,2,18.08,3.14,27.1,0,.05.08.05.07,0-1-9-2.06-18.07-3.12-27.1,0-.06-.1-.06-.09,0Z"/><path class="cls-9" d="M73.49,115.27c.47,8.18,1.09,16.37,1.73,24.54,0,.07.11.07.11,0-.52-8.18-1.06-16.38-1.75-24.54a0,0,0,0,0-.09,0Z"/><path class="cls-9" d="M78.37,112q1.84,13.58,2.38,27.26c0,.07.11.07.11,0A237.52,237.52,0,0,0,78.5,112c0-.09-.14-.05-.13,0Z"/><path class="cls-9" d="M84,104.44c.31,7.33.59,14.67,1,22a0,0,0,0,0,0,0c-.26-7.34-.6-14.67-.91-22a0,0,0,0,0-.09,0Z"/><path class="cls-9" d="M81.94,96.33a0,0,0,1,0,0,0,0,0,0,0,0,0,0Z"/><path class="cls-9" d="M81.71,93.63a118.57,118.57,0,0,1,1,13.18.07.07,0,0,0,.13,0,92.85,92.85,0,0,0-1-13.22c0-.07-.13,0-.12,0Z"/><path class="cls-9" d="M78.85,93.78A195.85,195.85,0,0,1,80,118.48c0,.07.09.07.1,0A139.68,139.68,0,0,0,79,93.78c0-.1-.16-.1-.15,0Z"/><path class="cls-9" d="M81.8,88.23c1.08,7.83,2.25,15.63,3.16,23.48,0,.06.09.06.09,0C84.31,103.86,83.39,96,82,88.18c0-.1-.17-.05-.16,0Z"/><path class="cls-9" d="M76.77,83.29a142.57,142.57,0,0,0,.72,25.55c0,.07.12.07.11,0a207.53,207.53,0,0,1-.75-25.55,0,0,0,0,0-.08,0Z"/><path class="cls-9" d="M73.67,72.32a274.62,274.62,0,0,1,3.76,30.25c0,.06.1.06.09,0a158.41,158.41,0,0,0-3.75-30.28c0-.07-.12,0-.1,0Z"/><path class="cls-9" d="M70.17,75c.35,5.19.89,10.4,1.46,15.57,0,.09.15.09.14,0-.42-5.19-.88-10.4-1.52-15.57,0,0-.08,0-.08,0Z"/><path class="cls-9" d="M66.28,84c.13,9.52.59,19.08,1,28.59a0,0,0,0,0,.08,0C67.15,103,66.91,93.48,66.35,84c0,0-.07,0-.07,0Z"/><path class="cls-9" d="M63.11,91.08a131.86,131.86,0,0,1,1.65,21.82.06.06,0,0,0,.12,0A108.77,108.77,0,0,0,63.2,91.06c0-.07-.1,0-.09,0Z"/><path class="cls-9" d="M70.54,114.76A158.63,158.63,0,0,0,74,141.34s.09,0,.08,0a230,230,0,0,1-3.41-26.55c0-.06-.11-.07-.1,0Z"/><path class="cls-9" d="M66.75,113.39a207.34,207.34,0,0,0,3.32,28.32c0,.07.11,0,.1,0a276.87,276.87,0,0,1-3.31-28.29.06.06,0,0,0-.11,0Z"/><path class="cls-9" d="M65.23,115.6A78.57,78.57,0,0,0,75.57,147s.07,0,.05,0A82.6,82.6,0,0,1,65.31,115.6s-.09,0-.08,0Z"/><path class="cls-9" d="M69.08,118.32a159.7,159.7,0,0,0,8.53,24.41c0,.05.1,0,.08,0a172.4,172.4,0,0,1-8.5-24.41c0-.07-.13,0-.11,0Z"/><path class="cls-9" d="M74.3,124.59c2.93,6.21,5.81,12.44,8.81,18.61,0,.06.11,0,.09,0-2.86-6.24-5.86-12.41-8.8-18.62,0-.07-.13,0-.1.06Z"/><path class="cls-9" d="M75,121.18a200.42,200.42,0,0,0,16.45,25.14s.09,0,.07,0a238,238,0,0,1-16.42-25.15c0-.07-.13,0-.1.06Z"/><path class="cls-9" d="M74.57,121.65c5.1,7.82,10.12,15.7,15.34,23.44,0,0,.13,0,.09-.06-5-7.88-10.19-15.64-15.31-23.45a.07.07,0,1,0-.12.07Z"/><path class="cls-9" d="M70.18,117.66a54.31,54.31,0,0,0,14.58,25.76,0,0,0,0,0,.06-.06,56.71,56.71,0,0,1-14.5-25.74.07.07,0,0,0-.14,0Z"/><path class="cls-9" d="M66.47,110.71a46.76,46.76,0,0,0,13.78,31.46,0,0,0,1,0,.06-.06,48.78,48.78,0,0,1-13.73-31.4.06.06,0,0,0-.11,0Z"/><path class="cls-9" d="M64.27,109a55.59,55.59,0,0,0,13.41,34.55c0,.05.12,0,.08-.08A57.36,57.36,0,0,1,64.39,109c0-.07-.12-.07-.12,0Z"/><path class="cls-9" d="M65.67,96.86c-8,16.75,2.45,34.42,11.82,48.07a0,0,0,1,0,.07,0c-9-14-19.79-31-11.76-48,0-.08-.09-.16-.13-.07Z"/><path class="cls-9" d="M131.42,30c-30.06-.29-60.08,2.19-90.14,1.74-.16,0-.16.24,0,.25,30.06.45,60.08-2,90.14-1.74a.13.13,0,0,0,0-.25Z"/><path class="cls-9" d="M137.05,30l-3.87,0a.13.13,0,0,0,0,.25l3.87,0a.13.13,0,0,0,0-.25Z"/><path class="cls-9" d="M144.85,29.81l-6,.11c-.16,0-.16.26,0,.25l6-.11a.13.13,0,0,0,0-.25Z"/><path class="cls-9" d="M40.49,32.06Q32.57,46.81,24.74,61.61c-.09.17.17.32.26.15Q32.82,47,40.58,32.11c0-.06-.06-.11-.09,0Z"/><path class="cls-9" d="M25.14,61.78c5.63,1,12.74,1.77,16.9-3.09,1.74-2,2.53-4.67,3.33-7.17q1.89-5.85,3.76-11.7a.21.21,0,0,0-.4-.11c-.95,3-1.88,5.93-2.83,8.9-.87,2.75-1.56,5.78-3,8.29-3.74,6.37-11.44,5.51-17.7,4.76a.06.06,0,0,0,0,.12Z"/><path class="cls-9" d="M48.54,39.16c1.52-3.9,6.52-3.63,10-3.7q6.21-.1,12.43-.25Q83.1,35,95.24,34.65c16.31-.39,32.63-.75,49-.88a.13.13,0,0,0,0-.25c-18,.15-35.93.57-53.9,1q-13.4.31-26.78.6c-4.41.08-13.13-1.36-15.21,4-.06.15.19.22.24.07Z"/><path class="cls-9" d="M154.39,30.21l16.34.07a.13.13,0,0,0,0-.25L154.39,30a.13.13,0,0,0,0,.25Z"/><path class="cls-9" d="M154.52,33.56l14.7-.61a.13.13,0,0,0,0-.25l-14.7.61a.13.13,0,0,0,0,.25Z"/><path class="cls-9" d="M170.61,30.21a1.73,1.73,0,0,1-.35,1.77,1.65,1.65,0,0,1-1.74.28c-.14,0-.24.17-.11.24a1.73,1.73,0,0,0,2.3-2.33.05.05,0,0,0-.1,0Z"/><path class="cls-9" d="M28.2,55.94c3.7,2.53,8.42.43,10.3-3.26,1.43-2.79,2.2-6,3.2-8.94,1.24-3.71,2.55-7.4,3.69-11.13,0,0,0,0,0,0-1.87,5-3.49,10.17-5.21,15.26-.9,2.64-1.66,5.54-3.89,7.39s-5.35,1.79-8,.65c0,0-.05,0,0,0Z"/><path class="cls-9" d="M48.63,39.7a46.81,46.81,0,0,0,1.27-6.86s-.06,0-.07,0A46,46,0,0,0,48.6,39.7s0,0,0,0Z"/><path class="cls-9" d="M32.44,47.63a11.16,11.16,0,0,0,1.53,0c.07,0,.07-.11,0-.11a11.16,11.16,0,0,0-1.53,0,.05.05,0,0,0,0,.1Z"/><path class="cls-9" d="M33.2,45.85a19.83,19.83,0,0,0,2,0,0,0,0,0,0,0-.09,19.83,19.83,0,0,0-2,0c-.05,0-.05.09,0,.09Z"/><path class="cls-9" d="M34,44.34a17.48,17.48,0,0,0,2-.25c.07,0,.06-.13,0-.12a15.74,15.74,0,0,0-2,.26c-.06,0,0,.11,0,.11Z"/><path class="cls-9" d="M35.24,42.31a11,11,0,0,0,1.52,0,.05.05,0,0,0,0-.1,11,11,0,0,0-1.52,0,.06.06,0,1,0,0,.12Z"/><path class="cls-9" d="M36.28,40.61c.69-.14,1.38-.26,2-.46.06,0,0-.12,0-.1-.69.12-1.36.31-2,.49,0,0,0,.08,0,.07Z"/><path class="cls-9" d="M37,38.93a10.8,10.8,0,0,0,1.8-.22c.06,0,.05-.11,0-.11a10,10,0,0,0-1.79.26,0,0,0,0,0,0,.07Z"/><path class="cls-9" d="M37.27,37.72c.59,0,1.18,0,1.77,0a0,0,0,1,0,0-.08c-.59,0-1.18,0-1.77,0a0,0,0,0,0,0,.08Z"/><path class="cls-9" d="M116.52,30.3a18,18,0,0,0,.72,3.07,0,0,0,1,0,.09,0,17.59,17.59,0,0,0-.77-3s0,0,0,0Z"/><path class="cls-9" d="M117.78,30.32a22.55,22.55,0,0,0,.5,3,0,0,0,0,0,.07,0,21.24,21.24,0,0,0-.51-3.06c0-.05-.07,0-.06,0Z"/><path class="cls-9" d="M118.93,30.59c.24,1.18.41,2.4.76,3.56,0,.07.12,0,.11,0-.16-1.2-.51-2.38-.78-3.55a0,0,0,1,0-.09,0Z"/><path class="cls-9" d="M120.73,30.58a19.72,19.72,0,0,0,.5,3.06s.11,0,.1,0a20.15,20.15,0,0,0-.51-3.06s-.09,0-.09,0Z"/><path class="cls-9" d="M121.88,30.61a13.83,13.83,0,0,0,.7,3.07,0,0,0,0,0,.08,0A14,14,0,0,0,122,30.6s-.08,0-.07,0Z"/><path class="cls-9" d="M124.05,30.33a23.23,23.23,0,0,0,.72,3.31c0,.09.14,0,.13,0a23.88,23.88,0,0,0-.8-3.29,0,0,0,1,0,0,0Z"/><path class="cls-9" d="M125.57,30.57a24.34,24.34,0,0,0,.47,3.32.07.07,0,0,0,.14,0,24.67,24.67,0,0,0-.54-3.3c0-.05-.08,0-.07,0Z"/><path class="cls-9" d="M126.84,30.84a22.7,22.7,0,0,0,1,3.33c0,.08.15,0,.13-.06a22.87,22.87,0,0,0-1-3.29s-.08,0-.06,0Z"/><path class="cls-9" d="M129.12,30.58a33,33,0,0,0,.72,3.31.07.07,0,0,0,.14,0,30.92,30.92,0,0,0-.8-3.29s-.06,0-.06,0Z"/><path class="cls-9" d="M130.44,30.57a30.66,30.66,0,0,0,.21,3.32c0,.08.14.06.14,0,0-1.1-.18-2.21-.29-3.3,0,0-.06,0-.06,0Z"/><path class="cls-9" d="M131.9,30.83c.15,1.19.26,2.39.48,3.57,0,.09.16.07.15,0-.13-1.19-.35-2.38-.55-3.56,0-.05-.09,0-.08,0Z"/><path class="cls-9" d="M134.46,30.32a24.88,24.88,0,0,0,0,3.56c0,.06.1.06.1,0a24.88,24.88,0,0,0,0-3.56,0,0,0,0,0,0,0Z"/><path class="cls-9" d="M136.21,30.58a32.34,32.34,0,0,0,0,3.55.07.07,0,0,0,.14,0,32.34,32.34,0,0,0,0-3.55.05.05,0,1,0-.1,0Z"/><path class="cls-9" d="M137.45,30.83a18.34,18.34,0,0,0,.21,3.32c0,.07.1,0,.11,0a18.33,18.33,0,0,0-.24-3.3s-.08,0-.08,0Z"/><path class="cls-9" d="M139.77,30.59a20.8,20.8,0,0,0,.47,3.05.08.08,0,0,0,.16,0,21,21,0,0,0-.55-3c0-.05-.08,0-.08,0Z"/><path class="cls-9" d="M141.58,29.81c.07,1.1.09,2.21.21,3.3a.1.1,0,0,0,.19,0c-.06-1.1-.22-2.2-.33-3.3,0,0-.08,0-.07,0Z"/><path class="cls-9" d="M142.58,30.83a20,20,0,0,0-.06,2.79.09.09,0,0,0,.17,0,20,20,0,0,0-.07-2.79s0,0,0,0Z"/><path class="cls-9" d="M156.52,30.07a15.64,15.64,0,0,0,0,3.06.06.06,0,0,0,.11,0,14.9,14.9,0,0,0,0-3.06c0-.05-.07-.05-.08,0Z"/><path class="cls-9" d="M158.23,30.09a14.67,14.67,0,0,0,.5,2.8s.1,0,.1,0a15,15,0,0,0-.54-2.8s-.07,0-.06,0Z"/><path class="cls-9" d="M160.05,30.32a12.46,12.46,0,0,0,.26,2.3.07.07,0,0,0,.13,0,11.91,11.91,0,0,0-.26-2.29c0-.08-.13-.08-.13,0Z"/><path class="cls-9" d="M161.36,30.32a21.58,21.58,0,0,0-.05,2.54.08.08,0,1,0,.15,0,19.61,19.61,0,0,0,0-2.54,0,0,0,0,0-.06,0Z"/><path class="cls-9" d="M162.39,30.82a18,18,0,0,0-.29,1.79c0,.09.14.11.16,0a17.89,17.89,0,0,0,.24-1.79c0-.07-.1-.08-.11,0Z"/><path class="cls-9" d="M155.74,29.56a25.6,25.6,0,0,0-.27,3.81c0,.08.14.11.16,0a25.75,25.75,0,0,0,.23-3.83c0-.08-.11-.08-.12,0Z"/><path class="cls-9" d="M154.45,30.06c-.22,1.76-.41,3.57-.46,5.34a0,0,0,0,0,.09,0c.24-1.76.36-3.57.43-5.35,0,0,0,0-.06,0Z"/><path class="cls-9" d="M144.63,32.86Z"/><path class="cls-9" d="M144.6,32.84a9.52,9.52,0,0,0-1,2c0,.07.08.11.12.05a8.85,8.85,0,0,0,1-2.06s0,0-.05,0Z"/><path class="cls-9" d="M144.5,34.1c-.18-.58-.44-1.14-.67-1.69l-.11.2a13.89,13.89,0,0,0,2-.69c.12-.06,0-.23-.09-.21a14.24,14.24,0,0,0-2,.58.16.16,0,0,0-.1.24c.24.56.45,1.13.74,1.66.07.13.28,0,.23-.09Z"/><path class="cls-9" d="M131.17,30.26a6.89,6.89,0,0,0,2.39-.15.09.09,0,0,0,0-.18,6.49,6.49,0,0,0-2.36.25,0,0,0,0,0,0,.08Z"/><path class="cls-9" d="M136.57,30.07a11,11,0,0,0,2.37-.13c.05,0,0-.09,0-.1a10.91,10.91,0,0,0-2.35.18,0,0,0,0,0,0,.05Z"/></svg>