<svg id="carracters" xmlns="http://www.w3.org/2000/svg" viewBox="0 0 198.43 35.43"><defs><style>.cls-1{fill:#fff;}.cls-2,.cls-3{fill:#6e6e6e;}.cls-2{opacity:0.5;}</style></defs><path d="M59.89,10.9l.14-.06.45.6c.06-.42.11-.79.16-1.16l.18-1.38c0-.1,0-.16.18-.09l-.36,2.66.59-.42.09.12-.8.59-.63-.82Z"/><path d="M184.22,22.73l-.66,1.1a17.18,17.18,0,0,0-3-2.06c0,.32,0,.6,0,.88a2.41,2.41,0,0,1-.47,1.37,2.12,2.12,0,0,1-1.4.75,5.18,5.18,0,0,1-2.76-.23,2.33,2.33,0,0,1-1.52-1.43,2.14,2.14,0,0,1,1-2.62,4.35,4.35,0,0,1,1.79-.55,5.9,5.9,0,0,1,2.05.17h.12l-.2-3.32h-4.5V15.7h4.43L179,12.18h-4v-1.1a42.92,42.92,0,0,0,8.23-.48l.14,1.14a24.19,24.19,0,0,1-2.81.33c0,.24-.17.24-.34.31,0,1.06.09,2.13.13,3.23a20.67,20.67,0,0,0,3.59-.58c0,.29.08.57.11.85s0,.34-.28.39l-2.48.37c-.28,0-.57.06-.88.08,0,.27,0,.54,0,.81,0,.67.09,1.35.13,2,0,.25,0,.5,0,.75a.2.2,0,0,0,.14.21,14.68,14.68,0,0,1,3.31,2.06l.13.1ZM179.47,22h0c0-.18,0-.36,0-.54s0-.16-.14-.2a4.49,4.49,0,0,0-2.05-.25,2.78,2.78,0,0,0-1.22.39,1.18,1.18,0,0,0-.51,1.48,1.41,1.41,0,0,0,.89.78,3.8,3.8,0,0,0,1.83.17,1.23,1.23,0,0,0,1.16-1.12C179.44,22.44,179.45,22.2,179.47,22Z"/><path d="M170.6,10.22l1.71.32a.47.47,0,0,1-.36.3.18.18,0,0,0-.14.11c-.24,1.18-.5,2.35-.7,3.53a30.06,30.06,0,0,0-.34,3c-.05,1,0,1.91,0,2.86,0,.46.07.92.11,1.41l1.42-3.6c.27.25.52.47.75.71,0,0,0,.15,0,.21-.34.78-.71,1.55-1,2.35a17.52,17.52,0,0,0-.57,1.87,1.7,1.7,0,0,0,.05.92c0,.05,0,.1.05.17-.38.08-.75.17-1.11.23,0,0-.1-.07-.12-.12-.16-.64-.36-1.29-.48-1.94a20.52,20.52,0,0,1-.31-4.28,24.34,24.34,0,0,1,.2-2.7c.18-1.4.41-2.78.63-4.17C170.43,11,170.52,10.63,170.6,10.22Z"/><path class="cls-1" d="M32.51,22.73l-.66,1.1a17.18,17.18,0,0,0-3-2.06c0,.32,0,.6,0,.88A2.41,2.41,0,0,1,28.41,24a2.12,2.12,0,0,1-1.4.75,5.19,5.19,0,0,1-2.76-.23,2.33,2.33,0,0,1-1.52-1.43,2.14,2.14,0,0,1,1-2.62,4.35,4.35,0,0,1,1.79-.55,5.9,5.9,0,0,1,2.05.17h.12l-.2-3.32H23V15.7h4.43l-.15-3.52h-4v-1.1a42.92,42.92,0,0,0,8.23-.48l.14,1.14a24.27,24.27,0,0,1-2.8.33c0,.24-.18.24-.35.31,0,1.06.09,2.13.13,3.23A20.67,20.67,0,0,0,32.21,15c0,.29.08.57.11.85s0,.34-.28.39l-2.48.37c-.28,0-.57.06-.88.08,0,.27,0,.54,0,.81,0,.67.09,1.35.13,2,0,.25,0,.5,0,.75a.2.2,0,0,0,.14.21,14.68,14.68,0,0,1,3.31,2.06l.13.1ZM27.76,22h0c0-.18,0-.36,0-.54s0-.16-.14-.2A4.49,4.49,0,0,0,25.54,21a2.78,2.78,0,0,0-1.22.39,1.19,1.19,0,0,0-.51,1.48,1.41,1.41,0,0,0,.89.78,3.8,3.8,0,0,0,1.83.17,1.23,1.23,0,0,0,1.16-1.12C27.73,22.44,27.74,22.2,27.76,22Z"/><path class="cls-1" d="M18.89,10.22l1.71.32a.47.47,0,0,1-.36.3s-.13.06-.14.11c-.24,1.18-.5,2.35-.7,3.53a30.06,30.06,0,0,0-.34,3c0,1,0,1.91,0,2.86,0,.46.07.92.11,1.41l1.42-3.6c.27.25.52.47.75.71,0,0,0,.15,0,.21-.34.78-.71,1.55-1,2.35-.23.61-.4,1.24-.57,1.87a1.7,1.7,0,0,0,.05.92c0,.05,0,.1.05.17-.38.08-.75.17-1.11.23,0,0-.1-.07-.12-.12-.16-.64-.36-1.29-.48-1.94a20.52,20.52,0,0,1-.31-4.28,24.34,24.34,0,0,1,.2-2.7c.18-1.4.41-2.78.64-4.17C18.72,11,18.81,10.63,18.89,10.22Z"/><path class="cls-2" d="M111.11,22.73l-.66,1.1a16.8,16.8,0,0,0-3-2.06c0,.32,0,.6,0,.88A2.42,2.42,0,0,1,107,24a2.12,2.12,0,0,1-1.39.75,5.23,5.23,0,0,1-2.77-.23,2.35,2.35,0,0,1-1.52-1.43,2.17,2.17,0,0,1,1-2.62,4.35,4.35,0,0,1,1.79-.55,5.88,5.88,0,0,1,2,.17h.12l-.19-3.32h-4.51V15.7H106l-.16-3.52h-4v-1.1a42.82,42.82,0,0,0,8.23-.48l.15,1.14a24.71,24.71,0,0,1-2.81.33c0,.24-.18.24-.34.31,0,1.06.08,2.13.12,3.23a20.94,20.94,0,0,0,3.6-.58c0,.29.08.57.1.85s0,.34-.28.39l-2.48.37c-.28,0-.57.06-.88.08,0,.27,0,.54,0,.81l.12,2c0,.25,0,.5,0,.75a.2.2,0,0,0,.15.21A15.14,15.14,0,0,1,111,22.58l.12.1ZM106.37,22h0c0-.18,0-.36,0-.54s0-.16-.15-.2a4.49,4.49,0,0,0-2-.25,2.78,2.78,0,0,0-1.22.39,1.18,1.18,0,0,0-.5,1.48,1.36,1.36,0,0,0,.89.78,3.79,3.79,0,0,0,1.83.17,1.22,1.22,0,0,0,1.15-1.12C106.33,22.44,106.34,22.2,106.37,22Z"/><path d="M97.49,10.22l1.72.32a.49.49,0,0,1-.37.3.18.18,0,0,0-.13.11c-.24,1.18-.51,2.35-.7,3.53a25.1,25.1,0,0,0-.34,3c-.06,1,0,1.91,0,2.86,0,.46.07.92.11,1.41l1.42-3.6c.27.25.51.47.74.71,0,0,0,.15,0,.21-.34.78-.71,1.55-1,2.35-.23.61-.4,1.24-.57,1.87a1.7,1.7,0,0,0,.06.92c0,.05,0,.1,0,.17-.38.08-.74.17-1.11.23,0,0-.1-.07-.11-.12-.17-.64-.37-1.29-.49-1.94a20.52,20.52,0,0,1-.31-4.28,27,27,0,0,1,.2-2.7c.18-1.4.42-2.78.64-4.17C97.32,11,97.41,10.63,97.49,10.22Z"/><path class="cls-2" d="M147.88,22.74l-.65,1.1a17.26,17.26,0,0,0-3-2.06c0,.32,0,.6,0,.88a2.41,2.41,0,0,1-.47,1.37,2.14,2.14,0,0,1-1.4.75,5.23,5.23,0,0,1-2.77-.23,2.32,2.32,0,0,1-1.51-1.43,2.14,2.14,0,0,1,1-2.62A4.3,4.3,0,0,1,140.9,20a5.92,5.92,0,0,1,2,.17h.12l-.2-3.32h-4.51v-1.1h4.44l-.16-3.52h-4v-1.1a42.77,42.77,0,0,0,8.22-.48l.15,1.14a24.19,24.19,0,0,1-2.81.33c0,.24-.17.24-.34.31,0,1.06.08,2.13.13,3.22a20.65,20.65,0,0,0,3.59-.57c0,.29.08.57.11.85s0,.34-.28.39l-2.48.37c-.29,0-.58.06-.89.08,0,.27,0,.54,0,.81,0,.67.08,1.35.13,2,0,.25,0,.5,0,.75a.2.2,0,0,0,.14.21,14.91,14.91,0,0,1,3.31,2.06l.12.1ZM143.14,22h0c0-.18,0-.36,0-.54s0-.17-.15-.2a4.45,4.45,0,0,0-2.05-.25,2.74,2.74,0,0,0-1.21.39,1.17,1.17,0,0,0-.51,1.48,1.38,1.38,0,0,0,.89.78,3.79,3.79,0,0,0,1.83.17,1.22,1.22,0,0,0,1.15-1.12A5.56,5.56,0,0,0,143.14,22Z"/><path d="M134.27,10.23l1.71.32a.46.46,0,0,1-.37.29c-.05,0-.12.07-.13.12-.24,1.18-.51,2.35-.7,3.53a30.06,30.06,0,0,0-.34,3c-.06.95,0,1.91,0,2.86,0,.46.07.92.11,1.41l1.42-3.6c.27.25.52.47.75.71,0,0,0,.15,0,.21-.34.78-.72,1.55-1,2.35-.24.61-.4,1.24-.58,1.87a1.7,1.7,0,0,0,.06.92c0,.05,0,.1,0,.17-.37.08-.74.17-1.11.23,0,0-.1-.07-.11-.12-.17-.64-.36-1.29-.49-1.95a20.38,20.38,0,0,1-.31-4.27c0-.9.09-1.81.2-2.7.18-1.4.42-2.78.64-4.17C134.09,11,134.18,10.64,134.27,10.23Z"/><path class="cls-3" d="M75.31,22.73l-.66,1.1a17.18,17.18,0,0,0-3-2.06c0,.32,0,.6,0,.88A2.41,2.41,0,0,1,71.21,24a2.12,2.12,0,0,1-1.39.75,5.22,5.22,0,0,1-2.77-.23,2.33,2.33,0,0,1-1.52-1.43,2.14,2.14,0,0,1,1-2.62,4.35,4.35,0,0,1,1.79-.55,5.88,5.88,0,0,1,2.05.17h.12l-.2-3.32h-4.5V15.7h4.43l-.15-3.52h-4v-1.1a42.92,42.92,0,0,0,8.23-.48l.14,1.14a24.27,24.27,0,0,1-2.8.33c0,.24-.18.24-.35.31,0,1.06.09,2.13.13,3.23A20.67,20.67,0,0,0,75,15c0,.29.08.57.11.85s0,.34-.28.39l-2.48.37c-.28,0-.57.06-.88.08,0,.27,0,.54,0,.81,0,.67.09,1.35.13,2,0,.25,0,.5,0,.75a.2.2,0,0,0,.14.21,14.68,14.68,0,0,1,3.31,2.06l.13.1ZM70.56,22h0c0-.18,0-.36,0-.54s0-.16-.14-.2a4.49,4.49,0,0,0-2-.25,2.78,2.78,0,0,0-1.22.39,1.19,1.19,0,0,0-.51,1.48,1.41,1.41,0,0,0,.89.78,3.8,3.8,0,0,0,1.83.17,1.23,1.23,0,0,0,1.16-1.12C70.53,22.44,70.54,22.2,70.56,22Z"/><path d="M61.69,10.22l1.71.32a.47.47,0,0,1-.36.3s-.13.06-.13.11c-.25,1.18-.51,2.35-.71,3.53a30.06,30.06,0,0,0-.34,3c0,1,0,1.91,0,2.86,0,.46.07.92.11,1.41l1.42-3.6c.27.25.52.47.75.71,0,0,0,.15,0,.21-.34.78-.71,1.55-1,2.35-.23.61-.4,1.24-.57,1.87a1.7,1.7,0,0,0,.05.92c0,.05,0,.1,0,.17-.38.08-.74.17-1.11.23,0,0-.1-.07-.11-.12-.17-.64-.37-1.29-.49-1.94a20.52,20.52,0,0,1-.31-4.28,24.34,24.34,0,0,1,.2-2.7c.18-1.4.41-2.78.64-4.17C61.52,11,61.61,10.63,61.69,10.22Z"/><path d="M97.8,21.69l1.39-3.53.81.75c-.23.5-.47,1-.68,1.5-.27.67-.54,1.35-.78,2a2.62,2.62,0,0,0-.09,1.93l-1.08.23c-.11,0-.14,0-.16-.11-.15-.6-.34-1.18-.45-1.78a20.7,20.7,0,0,1-.34-3.6,25.65,25.65,0,0,1,.18-3.5,51.62,51.62,0,0,1,.86-5.22c0-.05,0-.1,0-.17l1.7.32c-.06.19-.2.24-.36.29s-.13.08-.14.13c-.24,1.2-.51,2.4-.71,3.61a29.91,29.91,0,0,0-.33,3c-.06.88,0,1.78,0,2.66,0,.46.07.92.11,1.38Z"/><path d="M61.69,10.23l1.72.32a.4.4,0,0,1-.35.28.16.16,0,0,0-.16.15,30.93,30.93,0,0,0-.74,3.79c-.14,1.13-.26,2.26-.33,3.4a19.49,19.49,0,0,0,0,2.16c0,.46.07.92.12,1.41l1.42-3.58.79.74c-.34.79-.69,1.56-1,2.34a7.75,7.75,0,0,0-.64,2.05,5.56,5.56,0,0,0,.05.91,1.67,1.67,0,0,0,0,.18l-1.08.23c-.11,0-.13,0-.15-.12-.16-.65-.36-1.29-.48-1.95a20.28,20.28,0,0,1-.31-4.33,28.68,28.68,0,0,1,.23-2.93c.2-1.47.47-2.94.71-4.41C61.6,10.66,61.65,10.46,61.69,10.23Z"/><path d="M136,18.16c.28.26.53.48.76.71,0,0,0,.14,0,.2-.31.72-.64,1.43-1,2.15a9.8,9.8,0,0,0-.63,2,2.14,2.14,0,0,0,.1,1.17l-1.12.23s-.11-.08-.12-.13c-.16-.61-.35-1.22-.47-1.85a20.76,20.76,0,0,1-.31-4.79c.07-1.16.18-2.33.34-3.48s.45-2.6.67-3.9c0-.07,0-.14.06-.23l1.71.32a.52.52,0,0,1-.49.3c-.09.42-.21.84-.29,1.27-.22,1.25-.45,2.51-.62,3.78a21.8,21.8,0,0,0-.13,4.71c0,.37.06.74.1,1.13Z"/><path d="M147.59,15l.14,1.18c-.42.08-.82.18-1.23.24-.83.1-1.66.21-2.5.27s-1.41,0-2.12.05l-3.32.07h-.22c0-.35,0-.69,0-1,0,0,.07-.08.12-.08h.44c1.07,0,2.15,0,3.22,0a28.3,28.3,0,0,0,3.44-.27c.62-.1,1.24-.24,1.87-.36Z"/><path d="M146.87,10.61a.45.45,0,0,1,0,.08c.05.34.09.69.13,1.07a51.14,51.14,0,0,1-8.4.45V11.08A41.38,41.38,0,0,0,146.87,10.61Z"/><path d="M101.86,12.21V11.08a41.41,41.41,0,0,0,8.24-.47c0,.2.05.39.07.57s0,.36.07.58A51,51,0,0,1,101.86,12.21Z"/><path d="M178.44,19.34l-.15-.53c.09,0,.15-.07.18.06s.14.47.21.74l-1,.18-.05-.15.76-.14a3.5,3.5,0,0,0-1.78-.36,3.77,3.77,0,0,0-3.18,3.15,2.46,2.46,0,0,0,.93,2.29,4.69,4.69,0,0,0,2.65,1.1,6.24,6.24,0,0,0,2.57-.26l.07.17c-.35.07-.68.16-1,.21a5.71,5.71,0,0,1-3.41-.46,4,4,0,0,1-1.27-.93,2.51,2.51,0,0,1-.59-2.57A3.87,3.87,0,0,1,176,19.08a3.28,3.28,0,0,1,2.16.16Z"/><path d="M61.32,24.85c.12-.06.15,0,.17.1.1.61.21,1.21.32,1.81a1.26,1.26,0,0,0,0,.16L63,24.75l-.59.16c-.1,0-.16,0-.15-.12l.95-.27.28,1-.15.07-.21-.74-.67,1.24c-.18.34-.36.69-.55,1a.18.18,0,0,1-.12.08.18.18,0,0,1-.1-.12l-.39-2.15S61.32,24.87,61.32,24.85Z"/><path d="M177.36,14.79l.1-.12.6.44-.13-.83-.3-1.71s0-.09.06-.14.09.07.1.11c.14.78.27,1.56.4,2.33,0,.07,0,.13,0,.22l.43-.58.13.09-.59.81Z"/><path d="M104.11,9.93l-.56-.47.09-.12.78.63-.62.76s-.1,0-.18,0l.5-.62-1.87.23-.69.08c-.1,0-.16,0-.12-.14Z"/><path d="M139.86,15l-2.68.13,0-.15,2.64-.14-.46-.5.1-.12.73.69-.66.69s-.1,0-.16,0v-.05Z"/></svg>