<?xml version="1.0" encoding="utf-8"?>
<!-- Generator: Adobe Illustrator 24.1.2, SVG Export Plug-In . SVG Version: 6.00 Build 0)  -->
<svg version="1.1" id="illustration" xmlns="http://www.w3.org/2000/svg" xmlns:xlink="http://www.w3.org/1999/xlink" x="0px"
	 y="0px" viewBox="0 0 198.4 107.8" style="enable-background:new 0 0 198.4 107.8;" xml:space="preserve">
<style type="text/css">
	.st0{fill:#566A78;}
	.st1{fill:#AACDE4;}
	.st2{fill:#3A2A12;}
	.st3{fill:#FFFFFF;}
	.st4{fill:#5A93AB;}
	.st5{fill:#2F3D47;}
	.st6{fill:#7F5133;}
	.st7{fill:#46260B;}
	.st8{fill:#010101;}
</style>
<path class="st0" d="M100.7,36.8c0,0-0.3-7.7-4.4-10.3s-18.4-4.6-18.8-4.7l-3.2-0.6l0.8-0.8l-2.2,0.4l1.3-1.8l-5.7,1.9l0.8-1.5
	l-5,1.5L62,21l2.3-2.3l-7.1,2.9l1.1-2.4l-4.2,2.4c0,0-1.8-2.7-2.1-2.9s-4.5-3.8-4.5-3.8L43.7,12l-3.2-3.7l-1-3.2l0.1-1.8l-3,2.3
	l-2,3.4v3.7L31.3,11l-4-2.2L24.9,7l-2.4-1.9l-0.6,4.2l0.4,5.4l3.3,8.1l-3.9,3.5l-6,4.5l-3.9,3.3v58.1c0,7.7,6.2,13.9,13.9,14
	c0.4,0,0.9,0,1.3-0.1h0.3c6.3-0.7,12.3-2.6,17.9-5.5l5.5-10.4c0,0,4.8-5.2,9.9-7.3s17.1-5.6,17.1-5.6l26-34L100.7,36.8z"/>
<path class="st1" d="M100.7,36.8c0.1,3.8-2.1,7.2-5.5,8.6c-6,2.6-10.9,3.7-15.4,6.7s-7.1,7-9.1,10.4C68.5,66,70.9,77,70.9,77
	l12.6,1.2c3.6,1.1,13.7,5.4,23.6,4.7s20.3-13.2,22.3-16.3C131.5,63.5,136,53,136,53l2.5-8l0.4-2.3l-4.1-8.1L100.7,36.8z"/>
<path class="st2" d="M132,35.2c0,0,5.9-1,7-0.8s1.8,2,1.8,2l-1.1,5.2l-1.6,1.7l-2.6-1.9l-1.6-2l-1.2-2.2L132,35.2z"/>
<path class="st3" d="M67.6,26.1c0,0-2.4,4.6-2.3,6.1s1.3,6.3,4,8.2h3.3l2.8,0.4l3.5,1.2l4.5-1.6l2.8-2.2l2.2-3.1l-5-0.8L83,33.5
	l-6.1-2.8l-4-1.9l-2-1L67.6,26.1z"/>
<polygon class="st4" points="70.9,30.4 69.9,32.2 70.6,35.3 72.5,37 75.5,37.9 78.9,37.8 81.6,37 84,35.3 84.6,34.2 72.9,28.8 "/>
<path class="st3" d="M80.3,36.9c0.1-0.7-0.4-1.4-0.3-2.1c0-0.5,0.4-0.8,0.8-0.8c0.2,0,0.4,0.1,0.5,0.2c0.9,0.5,1.4,1.1,2.5,1
	c0.7-0.1,0.5-1.2-0.2-1.2s-1.3-0.7-2-1c-0.6-0.4-1.4-0.4-2,0c-1.2,0.9-1.3,2.6-0.4,3.8c0.1,0.1,0.2,0.3,0.4,0.4
	c0.2,0.2,0.4-0.1,0.5-0.3L80.3,36.9z"/>
<path class="st3" d="M83.6,34.6c-1.1,0.4-2.1,1-3.2,1.4c-0.3,0-0.4,0.3-0.4,0.6c0.1,0.3,0.3,0.4,0.6,0.4c0,0,0.1,0,0.1-0.1
	c1.1-0.5,2.1-1.1,3-2C83.9,34.8,83.8,34.5,83.6,34.6L83.6,34.6z"/>
<path class="st3" d="M81.1,36.4C81,36,81,35.7,81,35.4c0-0.2,0,0-0.1,0c0.1,0.1,0.2,0.2,0.3,0.3c0.4,0.4,1,0.3,1.4-0.1
	c0.1-0.1,0.1-0.1,0.1-0.2c0.3-0.3,0.3-0.7,0-1s-0.7-0.3-1,0c-0.5,0.2-1.2,0.4-1.5,0.9c-0.1,0.2-0.1,0.5,0.2,0.7c0,0,0.1,0,0.1,0.1
	c0.5,0.2,1.2-0.2,1.8-0.3l-0.7-1.2H82l0-0.1c0-0.1-0.1-0.1-0.2-0.2c-0.1-0.1-0.3-0.2-0.5-0.3c-0.4-0.1-0.9,0-1.2,0.3
	c-0.7,0.7-0.7,1.7,0,2.4c0.1,0.2,0.4,0.3,0.7,0.2C81,36.8,81.1,36.6,81.1,36.4L81.1,36.4z"/>
<path class="st3" d="M79.2,36.9c0.1,0.2,0.2,0.4,0.3,0.5c0.1,0.2,0.3,0.2,0.5,0.1c0,0,0,0,0.1-0.1s0.2-0.3,0.3-0.5
	c0.1-0.1,0-0.3-0.1-0.4c-0.1-0.1-0.2-0.1-0.3,0c-0.2,0.1-0.3,0.2-0.5,0.3H80c-0.2-0.1-0.4-0.3-0.5-0.4S79.2,36.7,79.2,36.9z"/>
<path class="st3" d="M135.8,36.2c0.1,0,0.3,0.1,0.4,0.1c0.3,0.1,0.5,0,0.8,0.1c0.5,0.1,1,0.2,1.4,0.5c0.3,0.1,0.7,0,0.8-0.4
	c0.1-0.3,0-0.6-0.2-0.7c-0.6-0.4-1.2-0.6-1.9-0.6c-0.3,0-0.6,0.1-0.9,0.2c-0.3,0.1-0.4,0.3-0.6,0.5c-0.1,0.1-0.1,0.2,0,0.3
	C135.7,36.2,135.7,36.2,135.8,36.2L135.8,36.2z"/>
<path class="st3" d="M82,25.4c4.2,1.6,10.5,1.5,13,5.7c0.2,0.4,0.9,0.2,0.8-0.2c-0.2-2.1-2-3.3-3.8-4c-3.2-1.1-6.5-1.7-9.9-2
	C81.8,24.9,81.8,25.3,82,25.4L82,25.4z"/>
<path class="st3" d="M69.7,21.4c1.1-0.1,2.1-0.3,3.1-0.8c0.1-0.1,0.2-0.2,0.1-0.4c0-0.1-0.1-0.1-0.2-0.1c-1.1,0.1-2.1,0.3-3.1,0.8
	C69.4,21.1,69.4,21.5,69.7,21.4z"/>
<path class="st3" d="M59.6,21.3c0.9-0.2,1.8-0.6,2.7-1.1c0.1,0,0.1-0.2,0.1-0.2c0-0.1-0.1-0.1-0.2-0.1c-0.9,0.3-1.8,0.7-2.6,1.2
	c-0.1,0-0.1,0.1-0.1,0.1C59.5,21.3,59.5,21.3,59.6,21.3z"/>
<path class="st3" d="M54.5,22.2c1-0.4,1.9-1,2.7-1.7c0.2-0.1,0-0.4-0.2-0.3c-1,0.5-1.9,1.1-2.6,1.8C54.2,22.1,54.3,22.2,54.5,22.2
	L54.5,22.2z"/>
<path class="st3" d="M47.7,26.3c-0.9,0.1-1.7,0.4-2.5,0.9c-0.1,0.1-0.1,0.4,0.1,0.4c0.9-0.1,1.7-0.4,2.5-0.9
	C47.9,26.5,47.9,26.2,47.7,26.3z"/>
<path class="st3" d="M46.3,28.8c-1,0.1-1.8,0.6-2.4,1.4c-0.1,0.1,0,0.3,0.1,0.3s0.2,0,0.3,0c0.4-0.2,0.7-0.5,1-0.8
	c0.4-0.2,0.7-0.5,1.1-0.7C46.4,29,46.3,28.8,46.3,28.8L46.3,28.8z"/>
<path class="st3" d="M45.1,32c-0.4,0.2-0.8,0.4-1.2,0.6c-0.4,0.2-0.7,0.4-1,0.7c-0.1,0.1-0.1,0.2,0,0.3s0.1,0.1,0.2,0.1
	c0.4-0.1,0.7-0.3,1-0.6c0.4-0.2,0.7-0.5,1.1-0.8c0.1,0,0.1-0.2,0.1-0.2C45.2,32,45.1,32,45.1,32L45.1,32z"/>
<path class="st3" d="M44.3,34.4c-0.3,0.5-0.5,1.1-0.8,1.6c-0.3,0.4-0.4,0.9-0.5,1.5c0,0.2,0.2,0.3,0.4,0.3c0.1,0,0.2,0,0.2-0.1
	c0.3-0.4,0.5-0.9,0.6-1.4c0.2-0.6,0.3-1.2,0.5-1.7C44.7,34.3,44.4,34.1,44.3,34.4z"/>
<path class="st3" d="M44.5,46c-2.3-0.5-4.6-0.2-6.7,0.7c-0.9,0.3-0.5,1.8,0.4,1.4c2.1-0.8,4.2-1.2,6.3-1.8c0.1,0,0.2-0.1,0.1-0.2
	C44.6,46.1,44.5,46,44.5,46z"/>
<path class="st3" d="M37,47.6c0.5-0.1,1.1-0.1,1.5-0.5c0.1-0.1,0.1-0.2,0-0.3c0,0-0.1,0-0.1-0.1c-0.5-0.2-1.1,0.2-1.5,0.3
	c-0.1,0-0.2,0.2-0.2,0.3C36.7,47.6,36.9,47.6,37,47.6z"/>
<path class="st3" d="M29.9,58.5c-1.2,1.1-2.2,2.5-3.3,3.7c-0.8,0.9-1.9,1.9-2,3.1c0,0.2,0.2,0.4,0.4,0.4h0.1
	c1.2-0.4,1.8-1.8,2.4-2.8c0.9-1.4,1.9-2.7,2.7-4.2c0-0.1,0-0.2-0.1-0.3C30,58.5,30,58.5,29.9,58.5L29.9,58.5z"/>
<path class="st3" d="M32.6,68.7c-3.4,2-5.7,6.5-7,10c-0.3,0.7,0.8,1,1.1,0.3c0.8-1.9,1.7-3.8,2.8-5.6c1-1.6,2.4-3,3.3-4.6
	c0-0.1,0-0.1-0.1-0.2C32.7,68.7,32.7,68.7,32.6,68.7L32.6,68.7z"/>
<path class="st3" d="M34.1,77c-0.5,1.4-0.9,2.9-1.2,4.4c-0.4,1.7-0.8,3.5-1.1,5.2c-0.1,0.7,0.9,0.9,1,0.3c0.3-1.5,0.6-3.1,0.8-4.6
	c0.4-1.7,0.6-3.5,0.6-5.2C34.3,77,34.1,76.9,34.1,77L34.1,77z"/>
<path class="st3" d="M37.8,84.2c-0.3,0.6-0.1,1.4-0.1,2.2c-0.1,1.1-0.3,2.1-0.6,3.1C37,90,37.8,90.2,38,89.7c0.4-1,0.6-2.1,0.6-3.2
	c0-0.7,0.1-1.9-0.5-2.4C37.9,84.1,37.9,84.1,37.8,84.2C37.9,84.1,37.9,84.1,37.8,84.2L37.8,84.2z"/>
<path class="st3" d="M39.8,57.3c-0.8,0.1-2,0.9-2,1.8c0,0.2,0.1,0.3,0.3,0.3h0.1c0.3-0.2,0.6-0.5,0.8-0.8c0.3-0.3,0.6-0.5,0.9-0.8
	C40,57.7,40,57.5,39.8,57.3C39.9,57.3,39.9,57.3,39.8,57.3z"/>
<path class="st3" d="M41.2,64.2c-0.6,0.3-1,0.7-1.3,1.3c-0.3,0.5-0.6,1.2-0.3,1.7c0.1,0.2,0.3,0.2,0.5,0.1c0,0,0,0,0.1-0.1
	c0.3-0.3,0.4-0.9,0.6-1.3s0.6-0.8,0.8-1.3C41.7,64.5,41.5,64.1,41.2,64.2z"/>
<path class="st3" d="M44.2,68.3c-0.3,0-0.5,0.1-0.7,0.4c-0.2,0.2-0.1,0.5,0.1,0.7l0,0c0.1,0.1,0.2,0,0.3-0.1l0,0
	c0.1-0.3,0-0.7,0.3-0.8C44.3,68.5,44.3,68.3,44.2,68.3L44.2,68.3z"/>
<path class="st3" d="M44.5,69.3c-0.8,0.7-1.5,2.8-0.9,3.9c0.1,0.1,0.3,0.2,0.4,0.1c0.1,0,0.1-0.1,0.1-0.2c0.1-0.6,0.1-1.2,0.1-1.8
	c0.1-0.7,0.4-1.2,0.5-1.9C44.7,69.3,44.7,69.3,44.5,69.3C44.6,69.3,44.5,69.3,44.5,69.3z"/>
<path class="st3" d="M48.8,73.8c-0.4,0.2-0.7,0.6-0.6,1.1c0,0.2,0.1,0.3,0.3,0.3c0.1,0,0.2,0,0.2-0.1c0.3-0.3,0.4-0.8,0.3-1.3
	C48.9,73.9,48.8,73.9,48.8,73.8L48.8,73.8z"/>
<path class="st3" d="M53.9,54.6c-0.3-0.3-0.8,0-1.1,0.1s-1,0.2-1.3,0.7c-0.1,0.2,0,0.4,0.1,0.5h0.1c0.6,0.1,1.1-0.3,1.6-0.6
	C53.4,55.2,54.1,54.8,53.9,54.6z"/>
<path class="st3" d="M51.9,56c-0.7,0-1.3,0.3-1.8,0.8c-0.1,0.2,0,0.3,0.1,0.4c0,0,0.1,0,0.2,0C51,57.2,51.7,56.5,51.9,56
	C52,56.1,52,56,51.9,56C52,56,51.9,56,51.9,56z"/>
<path class="st3" d="M51.3,57.4c-0.4,0.2-0.8,0.8-0.6,1.3c0.1,0.1,0.2,0.1,0.3,0l0,0c0.1-0.1,0.2-0.3,0.2-0.4
	c0.1-0.2,0.2-0.5,0.3-0.7c0-0.1,0-0.2,0-0.2C51.5,57.4,51.4,57.4,51.3,57.4L51.3,57.4z"/>
<path class="st3" d="M65.8,43.7c2.1,0.3,4.2-0.4,6.3-0.4c2.6-0.1,5.1,0.5,7.4,1.7c0.1,0.1,0.3,0,0.4-0.1c0-0.1,0-0.2,0-0.3
	c-3-3.7-10.3-3.9-14.1-1.7C65.4,43.1,65.4,43.6,65.8,43.7L65.8,43.7z"/>
<path class="st3" d="M97.9,77.9c4.4,1.8,10.4-0.1,14.5-1.9c4.6-1.9,8.7-5,11.6-9.1c0.3-0.5-0.4-1-0.8-0.6c-3.4,3.6-7.6,6.4-12.1,8.4
	c-2,0.8-4.1,1.4-6.2,1.8c-2.3,0.4-4.8,0.4-7,1.1C97.8,77.7,97.8,77.8,97.9,77.9C97.8,77.9,97.9,78,97.9,77.9L97.9,77.9z"/>
<path class="st3" d="M103.3,56.3c4.8,0.5,9.8,0.1,14.6-0.2c4.6-0.3,9.2-0.7,13.7-1.4c0.4-0.1,0.3-0.8-0.1-0.7
	c-4.7,0.5-9.4,1.1-14.1,1.4s-9.5,0.2-14.2,0.7c-0.1,0-0.1,0.1-0.1,0.2C103.2,56.3,103.2,56.3,103.3,56.3z"/>
<path class="st3" d="M23.6,7c0.1,2.3,2.1,3.6,4,4.5c2.8,1.4,5.7,2.2,8.4,3.8c0.5,0.3,1.2-0.3,0.8-0.9c-1.3-1.9-3.5-2.6-5.5-3.4
	c-1.3-0.4-2.6-0.9-3.8-1.5c-1.2-0.8-2.4-1.8-3.5-2.8c-0.1-0.1-0.3-0.1-0.4,0C23.7,6.9,23.6,6.9,23.6,7L23.6,7z"/>
<path class="st3" d="M24.5,16c0.3,4.8,3.6,10.9,7.4,13.9c0.2,0.2,0.6,0,0.4-0.3c-1.4-2.2-3.1-4.2-4.3-6.5s-2.1-4.7-3.3-7
	C24.6,15.9,24.6,15.9,24.5,16L24.5,16z"/>
<path class="st3" d="M39.1,6.8c0-0.2,0-0.3,0-0.5l0,0C39.1,6.5,39.1,6.7,39.1,6.8S39.1,6.8,39.1,6.8z"/>
<path class="st3" d="M38.7,5.1c-1.7,3.4,2,8.9,5.8,8.6c0.3,0,0.5-0.2,0.5-0.5c0-0.2-0.1-0.3-0.2-0.4c-1.3-0.9-2.8-1.3-3.8-2.6
	c-1.2-1.5-1.4-3.3-2-5C39,5,38.8,5,38.7,5.1L38.7,5.1z"/>
<path class="st3" d="M36.2,8.6c-0.6,0.9-0.8,2-0.6,3.1c0.1,0.2,0.4,0.2,0.5,0c0.1-0.5,0.1-0.9,0.1-1.4c0-0.6,0.1-1.1,0.3-1.6
	C36.4,8.6,36.3,8.5,36.2,8.6z"/>
<path class="st3" d="M13.2,33.8c2.2-0.6,4.1-2.8,5.9-4.2c2-1.6,4.6-3.1,6.1-5.3c0.1-0.3,0-0.6-0.2-0.7c-0.1-0.1-0.2-0.1-0.4,0
	c-2.4,0.8-4.4,3.1-6.3,4.7S14.1,31.5,13.2,33.8L13.2,33.8L13.2,33.8z"/>
<path class="st5" d="M80.4,42.3c4-0.3,7.6-2.8,9.1-6.5c0.2-0.6-0.7-1-1.1-0.5c-1.7,3.2-4.6,5.6-8.1,6.6c-0.1,0-0.2,0.2-0.1,0.3
	C80.3,42.2,80.3,42.3,80.4,42.3L80.4,42.3z"/>
<path class="st5" d="M67.1,26.5c-4.9,3.2-3.4,10.7,0.3,14.1c0.7,0.6,1.7-0.4,1-1c-1.9-1.6-3.1-3.9-3.2-6.4s1-4.3,2.1-6.4
	C67.4,26.6,67.2,26.4,67.1,26.5L67.1,26.5z"/>
<path class="st5" d="M109,37.7c0.3,0.3,0.6,0.6,0.9,0.9c0.2,0.3,0.6,0.5,0.9,0.5c0.2,0,0.4-0.2,0.4-0.4c0-0.4-0.3-0.7-0.6-0.9
	c-0.4-0.3-0.7-0.5-1.1-0.8c-0.2-0.1-0.5,0-0.6,0.2C108.9,37.3,108.9,37.5,109,37.7z"/>
<path class="st5" d="M111.9,36.7c0,0.3,0.2,0.7,0.4,1c0.2,0.4,0.4,0.8,0.7,1.1c0.1,0.2,0.4,0.2,0.6,0.2l0.1-0.1
	c0.2-0.1,0.3-0.3,0.3-0.5c-0.1-0.7-0.5-1.3-1.1-1.6C112.7,36.7,111.9,36.3,111.9,36.7L111.9,36.7z"/>
<path class="st5" d="M114.8,36.8c0.3,0.5,0.6,0.9,0.9,1.4c0.2,0.3,0.5,0.7,0.9,0.4s0-1-0.2-1.3c-0.3-0.4-0.7-0.7-1.2-0.9
	c-0.2,0-0.3,0.1-0.3,0.2C114.8,36.7,114.8,36.8,114.8,36.8z"/>
<path class="st5" d="M116.3,36.8c0.4,0.3,0.7,0.5,1,0.8s0.5,0.7,1,0.8c0.2,0.1,0.5-0.1,0.5-0.3V38c0-1-1.6-1.7-2.4-1.7
	c-0.1,0-0.3,0.1-0.3,0.3C116.2,36.6,116.2,36.7,116.3,36.8z"/>
<path class="st5" d="M118.9,36.7c0.3,0.4,0.6,0.8,1.1,1.1c0.4,0.3,0.8,0.7,1.4,0.5c0.2-0.1,0.4-0.3,0.3-0.5c-0.1-0.5-0.7-0.8-1.1-1
	c-0.4-0.3-0.9-0.4-1.4-0.5c-0.1,0-0.2,0.1-0.2,0.2C118.8,36.6,118.8,36.6,118.9,36.7z"/>
<path class="st5" d="M122.2,36.4c0.2,0.4,0.5,0.8,0.8,1.2s0.7,0.7,1.2,0.9c0.3,0.1,0.5-0.1,0.6-0.3c0-0.1,0-0.2,0-0.3
	c-0.1-0.4-0.4-0.8-0.8-1.1c-0.3-0.3-0.7-0.6-1.1-0.9C122.5,35.7,122,36,122.2,36.4z"/>
<path class="st5" d="M128.2,36.9c0,0.6,0.2,1.1,0.6,1.6c0.2,0.1,0.5,0,0.6-0.2c0-0.1,0-0.1,0-0.2c0-0.6-0.5-1-0.9-1.4
	C128.4,36.5,128.2,36.6,128.2,36.9z"/>
<path class="st5" d="M133.1,39.3c-0.9,0.6,0.4,2.5,0.8,3c0.9,1.2,2.2,2.1,3.6,2.7c0.3,0.1,0.6,0,0.8-0.3c0.1-0.1,0.1-0.2,0.1-0.3
	c0-0.3-0.2-0.6-0.5-0.7c-1.3-0.5-2.5-1.4-3.3-2.5C134.5,40.9,133.6,39,133.1,39.3L133.1,39.3z"/>
<path class="st5" d="M86.3,60.2c0.1,2,0.9,3.9,2.2,5.4c0.2,0.2,0.5,0.2,0.8,0c1.5-1.7,3-3.4,4.5-5.2h-0.7c1.1,1,2.3,1.9,3.6,2.5
	c0.3,0.2,0.7,0.1,0.9-0.2c0,0,0-0.1,0.1-0.1c0.3-1,0.9-1.9,1.6-2.6c0.5-0.5-0.3-1.3-0.8-0.8c-0.9,0.8-1.6,1.9-2,3.1l0.9-0.4
	c-1.3-0.5-2.5-1.3-3.6-2.2c-0.2-0.2-0.5-0.2-0.7,0c-1.5,1.7-3,3.4-4.5,5.1h0.8c-1.2-1.4-2-3-2.5-4.7C86.7,59.9,86.3,59.9,86.3,60.2
	L86.3,60.2z"/>
<path class="st5" d="M98.9,59.9c5.4,0.8,11.4-0.4,16.9-0.8c5.9-0.5,11.9-0.9,17.8-1.5c0.7-0.1,0.8-1.2,0-1.2
	c-5.9,0.3-11.9,0.8-17.8,1.3c-5.5,0.4-11.6,0.1-16.9,1.8C98.7,59.5,98.7,59.8,98.9,59.9z"/>
<path class="st5" d="M94.4,81.8c3.9,2.2,10,1.5,14.2,0.5c4.4-1,10.1-3.3,13.1-6.8c0.1-0.1,0.1-0.3,0.1-0.4c-0.1-0.1-0.3-0.1-0.4,0
	c-2,1-3.7,2.5-5.8,3.4c-2.2,1-4.6,1.7-7,2.2c-2.3,0.5-4.5,0.7-6.8,0.7c-2.4,0-4.7-0.6-7-0.5c-0.3,0-0.5,0.2-0.5,0.5
	C94.3,81.5,94.4,81.7,94.4,81.8L94.4,81.8z"/>
<path class="st5" d="M46.4,81.3C46,81.9,46,82,46.2,82.7c0.1,0.4,0.5,0.6,0.9,0.5c0.1,0,0.2-0.1,0.3-0.2c1.5-1.3,3.3-2.4,5.2-3
	c1.5-0.5,3.2-0.6,4.5-1.5c0.3-0.2,0.3-0.5,0.2-0.7s-0.3-0.3-0.4-0.3C55,77.3,52.7,78.3,51,79s-3.3,1.7-4.6,3l1.1,0.2
	C47.2,81.5,47.1,81.3,46.4,81.3C46.4,81.2,46.4,81.2,46.4,81.3L46.4,81.3z"/>
<path class="st5" d="M37.4,91.4c1.2-1.5,2.4-3,3.8-4.4c0.8-0.7,1.6-1.4,2.5-1.9c0.8-0.4,1.6-0.9,2.2-1.5c0.2-0.2,0.2-0.5,0-0.7
	c-0.1-0.1-0.2-0.1-0.3-0.1c-1.9,0.1-3.8,1.9-5.1,3.1c-1.6,1.4-2.8,3.3-3.4,5.3C36.9,91.4,37.3,91.7,37.4,91.4L37.4,91.4z"/>
<path class="st5" d="M45,83.1c0.2,0.9,1,1.6,1.9,1.8c0.9,0.3,1.3-1.1,0.4-1.4c-0.7-0.2-1.2-0.6-1.8-0.7C45.2,82.7,45,82.8,45,83.1z"
	/>
<path class="st5" d="M46.9,84.9c4.8-1.3,9.1-3.8,14-5c5.1-1.2,10.3-1.9,15.5-2c0.2,0,0.3-0.2,0.3-0.4c0-0.1-0.1-0.2-0.3-0.3
	c-5.3-0.6-10.7-0.3-15.9,1c-4.7,1.1-10.3,2.7-14,5.9c-0.1,0.2-0.1,0.4,0,0.6C46.6,84.8,46.7,84.8,46.9,84.9L46.9,84.9z"/>
<path class="st5" d="M31.5,88.6c1.2-0.6,2.1-1.6,3.2-2.3s2.5-1,3.2-1.8c0.2-0.2,0.2-0.4,0-0.6c0,0-0.1-0.1-0.2-0.1
	c-1.3-0.3-2.8,0.9-3.8,1.6c-1.2,0.7-2.1,1.7-2.7,3C31.1,88.5,31.3,88.7,31.5,88.6L31.5,88.6z"/>
<path class="st5" d="M25.3,81.5c1.3-0.5,2.4-1.3,3.7-1.8s2.9-0.8,4.2-1.5c0.6-0.3,0.3-1.1-0.3-1.2c-1.6,0-3.1,0.5-4.5,1.2
	c-1.4,0.6-2.6,1.5-3.6,2.7c-0.1,0.2-0.1,0.4,0.1,0.5C25.1,81.5,25.2,81.5,25.3,81.5z"/>
<path class="st5" d="M22.7,68.3c1.9-0.4,3.7-1,5.5-1.3s3.8-0.3,5.6-0.6c0.4-0.1,0.3-0.7,0-0.7c-3.9-0.6-7.9,0.2-11.4,2.2
	c-0.1,0.1-0.2,0.2-0.1,0.3C22.4,68.3,22.6,68.4,22.7,68.3z"/>
<path class="st5" d="M34.5,48.2c0.8,0.6,1.7,1.2,2.6,1.7c0.7,0.5,1.5,1.7,2.4,1.7c0.3,0,0.5-0.2,0.5-0.5l0,0c0.1-1-1.4-1.9-2.2-2.4
	c-0.9-0.7-2-1.1-3.2-1c-0.2,0-0.2,0.2-0.2,0.4C34.4,48.1,34.5,48.1,34.5,48.2L34.5,48.2z"/>
<path class="st5" d="M42.5,42.1c-4.1-1.8-7.5-3.2-10.6-6.7s-5-7.5-7-11.6c-0.3-0.6-1.3-0.2-1.1,0.5c1.8,4.6,4,9.3,7.4,13
	c2.7,2.9,7,6,11.2,5.4c0.2,0,0.2-0.2,0.2-0.4C42.6,42.2,42.5,42.1,42.5,42.1L42.5,42.1z"/>
<path class="st5" d="M24.9,24.7c0,0.8,0.2,1.6,0.5,2.4c0.2,0.7,0.5,1.4,1,2c0.1,0.1,0.2,0.1,0.3,0c0.1-0.1,0.1-0.1,0.1-0.2
	c-0.2-0.7-0.5-1.4-0.8-2.1s-0.5-1.4-0.7-2.1C25.2,24.4,24.9,24.5,24.9,24.7L24.9,24.7z"/>
<path class="st5" d="M24.8,24c0.1,0.5,0.3,1,0.5,1.4s0.3,0.9,0.7,1.2c0.2,0.1,0.3,0,0.4-0.2c0.1-0.5-0.3-0.9-0.5-1.3
	c-0.2-0.5-0.5-0.9-0.8-1.3C25,23.7,24.8,23.8,24.8,24z"/>
<path class="st5" d="M47.5,27.5c-0.4-0.2-0.9-0.2-1.4-0.2c-0.5-0.1-1,0-1.4,0.2c-0.2,0.1-0.3,0.4-0.1,0.5c0,0.1,0.1,0.1,0.1,0.1
	c0.4,0.2,0.9,0.2,1.4,0.2s0.9-0.1,1.4-0.2c0.2-0.1,0.2-0.3,0.1-0.5L47.5,27.5z"/>
<path class="st5" d="M45.7,30.8c-0.5,0-1.1,0-1.6,0c-0.4,0-0.9,0.1-1.3,0.3c-0.1,0-0.1,0.2-0.1,0.3l0.1,0.1c0.4,0.1,0.9,0.1,1.3-0.1
	c0.5-0.1,1.1-0.2,1.6-0.4C45.8,31,45.8,30.9,45.7,30.8C45.8,30.8,45.7,30.8,45.7,30.8L45.7,30.8z"/>
<path class="st5" d="M44.1,34.2c-0.8-0.4-1.8-0.2-2.4,0.5c-0.1,0.2,0.1,0.4,0.3,0.3s0.6-0.3,0.9-0.5c0.4-0.1,0.7-0.1,1.1-0.1
	C44.2,34.4,44.2,34.3,44.1,34.2z"/>
<path class="st6" d="M47.8,24.7c-5-3-11-4.8-16.4-7c-0.9-0.4-1.3,1.1-0.4,1.4c5.4,2.1,10.9,4.9,16.5,6.2c0.2,0,0.4-0.1,0.4-0.2
	C48,25,48,24.8,47.8,24.7L47.8,24.7z"/>
<path class="st6" d="M31,18.7c-0.8,7,4.6,15,9.9,19.1c0.6,0.4,1.4-0.3,0.8-0.8c-2.7-2.3-5-5.1-6.8-8.2c-1.8-3.3-2.3-6.7-3.5-10.1
	c0-0.1-0.1-0.2-0.2-0.2S31,18.6,31,18.7L31,18.7z"/>
<path class="st6" d="M41.7,37.9c0.5-0.4,0.9-0.8,1.2-1.4l1.3-1.8c0.2-0.2-0.1-0.5-0.3-0.5h-1.8c-0.6-0.1-1.1,0-1.7,0.1
	c-0.2,0.1-0.4,0.3-0.3,0.6c0,0.1,0.2,0.3,0.3,0.3c0.5,0.1,1.1,0.1,1.7,0l1.8-0.2l-0.3-0.5c-0.4,0.6-0.8,1.2-1.2,1.7s-0.7,1-0.9,1.6
	c0,0.1,0,0.2,0.1,0.2C41.6,38,41.7,38,41.7,37.9L41.7,37.9z"/>
<path class="st6" d="M40.9,34.8c0.7-0.8,1.4-1.5,2.2-2.1s1.7-1.2,2.7-1.6c0.2-0.1,0.3-0.4,0.1-0.5c-0.1-0.2-0.3-0.2-0.5-0.2
	c-2.1,0.8-3.9,2.2-5,4.1C40.3,34.7,40.7,35,40.9,34.8L40.9,34.8z"/>
<path class="st6" d="M45.5,30.4c-0.9,0-1.8,0.1-2.6,0.2s-1.7,0.1-2.3,0.7c-0.1,0.1-0.1,0.4,0,0.5l0.1,0.1c0.7,0.3,1.6-0.1,2.4-0.4
	c0.8-0.2,1.7-0.5,2.4-0.9C45.7,30.6,45.7,30.4,45.5,30.4z"/>
<path class="st6" d="M40.8,31.6c1-0.6,1.8-1.4,2.7-2.1s2-1.2,3-1.8c0.3-0.2,0.1-0.7-0.3-0.6c-2.3,0.8-4.2,2.3-5.6,4.3
	C40.6,31.5,40.7,31.6,40.8,31.6C40.8,31.7,40.8,31.7,40.8,31.6L40.8,31.6z"/>
<path class="st6" d="M46.4,27.4c-1.1-0.6-2.3-0.8-3.5-0.5c-0.3,0.1-0.5,0.5-0.4,0.8s0.3,0.4,0.6,0.4c1.1-0.1,2.2-0.1,3.2-0.3
	c0.1,0,0.2-0.1,0.2-0.2C46.5,27.5,46.5,27.4,46.4,27.4z"/>
<path class="st6" d="M43.6,27.5c0.5-0.5,1.1-1,1.8-1.3c0.5-0.2,1.3-0.1,1.6-0.6c0.1-0.1,0.1-0.3-0.1-0.4c-0.5-0.5-1.5,0-2.1,0.2
	c-0.8,0.4-1.4,0.9-1.9,1.6C42.7,27.4,43.3,27.8,43.6,27.5L43.6,27.5z"/>
<path class="st6" d="M46.9,24.9c-2.5-1-5.1-1.6-7.6-2.5s-4.9-2.5-7.4-3c-0.4-0.1-0.8,0.1-0.9,0.5c-0.1,0.2,0,0.5,0.2,0.7
	c1.8,1.8,4.8,2.7,7.1,3.5c2.7,1,5.5,1.5,8.4,1.5c0.2,0,0.3-0.2,0.3-0.4C47.1,25.1,47,25,46.9,24.9z"/>
<path class="st6" d="M34.7,21c1,0.7,2,1.3,3.2,1.6c1.4,0.6,2.8,1.1,4.3,1.6c0.7,0.2,1.2-0.9,0.5-1.2c-1.3-0.6-2.6-1-3.9-1.5
	c-1.2-0.5-2.6-0.9-3.9-1c-0.1,0-0.2,0.1-0.2,0.2C34.6,20.9,34.6,20.9,34.7,21L34.7,21z"/>
<path class="st6" d="M43.6,25.3c-1.9-0.7-3.8-1.3-5.6-1.9s-3.6-1.7-5.5-2.3c-0.4-0.1-0.8,0.2-0.9,0.6c-0.1,0.3,0,0.5,0.2,0.7
	c2.8,2.6,8.1,4,11.8,3.5c0.2,0,0.3-0.1,0.3-0.3C43.9,25.4,43.8,25.3,43.6,25.3L43.6,25.3z"/>
<path class="st6" d="M43.7,25.9c-2,0.7-4.4-0.9-6.1-1.7c-1.6-0.9-3.3-1.6-5-2.1c-0.6-0.1-1.3,0.7-0.7,1.2c2.2,1.5,4.6,2.7,7.2,3.5
	c1.9,0.7,3.2,0.7,4.7-0.7C43.9,26,43.9,25.8,43.7,25.9L43.7,25.9z"/>
<path class="st6" d="M43.7,28.2c-1.2-1.3-3-1.8-4.6-2.4s-3.7-1.8-5.6-1.7c-0.3,0-0.6,0.3-0.6,0.7c0,0.1,0.1,0.2,0.1,0.3
	c1.2,1.2,3.2,1.6,4.8,2.2c1.8,0.6,3.7,1.6,5.6,1.4c0.1,0,0.3-0.1,0.3-0.3C43.8,28.3,43.7,28.3,43.7,28.2L43.7,28.2z"/>
<path class="st6" d="M44.7,25.1c-0.4-0.2-0.8-0.2-1.2,0c-0.5,0.1-0.9,0.2-1.4,0.3c-0.3,0.1-0.5,0.3-0.6,0.6v0.1
	c-0.1,0.3,0.1,0.6,0.3,0.8l0.1,0.1c0.3,0.1,0.6,0.1,0.9,0l1.3-0.7c0.4-0.1,0.7-0.4,0.8-0.8C45,25.3,44.9,25.1,44.7,25.1L44.7,25.1z"
	/>
<path class="st6" d="M44.2,27.8c-0.4,0-0.8,0-1.2,0c-0.4,0.1-0.8,0.3-1.1,0.7c-0.2,0.3-0.1,0.7,0.2,0.9c0,0,0.1,0,0.2,0.1
	c0.4,0.1,0.9,0,1.2-0.3s0.6-0.5,0.9-0.9c0.1-0.1,0.1-0.3,0-0.4C44.3,27.7,44.2,27.7,44.2,27.8L44.2,27.8z"/>
<path class="st6" d="M43,28.5c-1.5-0.5-3.2-0.6-4.7-1.1s-2.8-1.7-4.3-2c-0.4-0.1-0.7,0.1-0.8,0.5c-0.1,0.2,0,0.4,0.1,0.5
	c0.9,1.4,2.8,2.1,4.4,2.6c1.7,0.7,3.6,0.9,5.4,0.6c0.3,0,0.5-0.2,0.5-0.5S43.3,28.6,43,28.5L43,28.5z"/>
<path class="st6" d="M41.6,30.2c-0.9-0.8-2.3-0.9-3.3-1.4S36,27.1,34.7,27c-0.4,0-0.7,0.3-0.7,0.7c0,0.1,0,0.1,0,0.2
	c0.4,1.3,2.2,2,3.3,2.5s2.9,1,4.2,0.3C41.7,30.5,41.7,30.4,41.6,30.2L41.6,30.2L41.6,30.2z"/>
<path class="st6" d="M36.1,28.7c1,0.9,2.2,1.4,3.5,1.6c1.1,0.2,2.4,0.5,3.3-0.2c0.2-0.2,0.2-0.5,0-0.7l-0.1-0.1
	c-0.9-0.5-2.1-0.3-3.1-0.4s-2.2-0.6-3.4-0.8c-0.2,0-0.3,0.1-0.4,0.2C36,28.5,36,28.6,36.1,28.7z"/>
<path class="st6" d="M41.6,30.3c-1.9,0.7-3.3-0.2-5-0.9c-1-0.4-1.4,1-0.7,1.6c1.1,0.9,2.5,1.3,3.9,1.1C40.8,32,41.5,31.3,41.6,30.3
	L41.6,30.3L41.6,30.3z"/>
<path class="st6" d="M35.4,30.2c1.5,1.5,2.9,3,4.3,4.5c0.8,0.8,1.9-0.4,1.2-1.2c-1.5-1.5-3.1-2.9-4.6-4.3c-0.3-0.3-0.7-0.3-0.9,0
	C35.1,29.6,35.1,30,35.4,30.2L35.4,30.2z"/>
<path class="st6" d="M41.9,36.1c-0.5-0.8-1-1.6-1.7-2.3c-0.5-0.8-1.2-1.5-2-2.1c-0.8-0.5-1.5,0.4-1.2,1.2c0.5,0.8,1.2,1.5,2,2.1
	c0.6,0.7,1.3,1.3,2.1,1.9C41.6,37.2,42.1,36.6,41.9,36.1L41.9,36.1z"/>
<path class="st6" d="M40.4,33.5c0.6-0.3,1.3-0.6,2-0.8c0.4-0.1,0.7-0.6,0.5-1c-0.1-0.2-0.3-0.4-0.5-0.5c-0.7-0.2-1.4-0.2-2,0.1
	c-0.6,0.3-1.1,0.9-1,1.7c0.1,0.6,0.6,1.1,1.2,1.2c0.6,0.1,1.5-0.3,1.4-1c0-0.4-0.4-0.8-0.8-0.8c-0.1,0-0.1,0-0.2,0
	c-0.1,0-0.2,0.1-0.3,0.1c-0.3,0.2,0,0,0.1,0s0.1,0,0.2,0.1l0.1,0.3c0,0,0,0,0-0.1c0.1,0,0.2-0.1,0.3-0.1c0.2,0,0.5,0,0.7,0.1
	L42,31.2c-0.9,0.3-1.7,0.8-2.3,1.6C39.5,33.3,40,33.6,40.4,33.5L40.4,33.5z"/>
<path class="st6" d="M41.6,34.8c-0.4,0.3-0.3,0.9-0.4,1.3c-0.1,0.8,1,0.9,1.4,0.4c0.3-0.4,0.5-0.8,0.7-1.2c0.4-0.7-0.6-1.6-1.2-0.9
	c-0.2,0.2-0.3,0.4-0.4,0.7c-0.1,0.3,0.1,0.7,0.5,0.8c0.1,0,0.2,0,0.3,0c0.2-0.1,0.5-0.2,0.6-0.4L42,34.6c-0.2,0.4-0.5,0.8-0.7,1.2
	l1.4,0.2c-0.1-0.4-0.2-1-0.6-1.2C41.9,34.7,41.7,34.7,41.6,34.8z"/>
<path class="st7" d="M30.3,19c1.9,1.9,5.3,2.6,7.8,3.4c3.2,1.1,6.4,2.1,9.5,3.2c0.5,0.1,0.8-0.6,0.3-0.8c-3.1-1.3-6.1-2.7-9.2-4
	c-2.4-1.1-5.4-2.9-8.1-2.7c-0.3,0-0.6,0.3-0.5,0.6C30.2,18.8,30.2,18.9,30.3,19z"/>
<path class="st7" d="M40.9,22.3c0.6,0.3,1.2,0.5,1.8,0.7c0.6,0.3,1.2,0.6,1.9,0.8c0.3,0,0.7-0.3,0.4-0.6c-0.5-0.5-1.1-0.9-1.7-1.1
	c-0.7-0.3-1.5-0.4-2.2-0.4C40.8,21.7,40.6,22.1,40.9,22.3z"/>
<path class="st7" d="M30.5,17.9c0.2,0.3,0.4,0.7,0.8,0.8c0.1,0,0.3,0,0.3-0.2c0,0,0,0,0-0.1c0-0.4-0.3-0.7-0.6-0.9
	S30.4,17.6,30.5,17.9z"/>
<path class="st3" d="M32.8,24.2c0.9,4,3.1,7.7,6.3,10.4c0.2,0.2,0.5,0,0.3-0.3c-1-1.7-2.2-3.3-3.3-5s-1.8-3.6-2.8-5.3
	c-0.1-0.1-0.3-0.2-0.4-0.1C32.8,24,32.8,24.1,32.8,24.2L32.8,24.2z"/>
<path class="st3" d="M104.5,37.7c0.8,0.1,1.5,0.1,2.3,0.3c0.7,0.2,1.4,0.4,2.2,0.4c0.2,0,0.3-0.2,0.3-0.3s0-0.2-0.1-0.2
	C108.2,36.7,105.7,36.9,104.5,37.7C104.4,37.5,104.4,37.7,104.5,37.7L104.5,37.7z"/>
<path class="st3" d="M110.7,37.1c0.2,0.3,0.4,0.6,0.6,0.9c0.2,0.3,0.3,0.6,0.6,0.7c0.1,0.1,0.3,0,0.4-0.1c0,0,0,0,0-0.1
	c0.2-0.7-0.7-1.5-1.3-1.8C110.8,36.6,110.5,36.8,110.7,37.1z"/>
<path class="st3" d="M113.8,36.8c0,0.6,0.4,1.8,1.2,1.7c0.2,0,0.3-0.1,0.3-0.3v-0.1c0-0.3-0.3-0.4-0.4-0.6c-0.2-0.2-0.4-0.5-0.5-0.8
	C114.2,36.4,113.8,36.6,113.8,36.8z"/>
<path class="st3" d="M115.7,36.8c0.3,0.4,0.6,0.7,0.9,1s0.5,0.6,1,0.6c0.2,0,0.3-0.1,0.3-0.3c0,0,0,0,0-0.1
	c-0.1-0.4-0.5-0.6-0.8-0.9c-0.3-0.3-0.6-0.5-1-0.7C115.9,36.4,115.7,36.6,115.7,36.8L115.7,36.8z"/>
<path class="st3" d="M118,36.6c0.4,0.7,1,1.3,1.8,1.7c0.2,0.1,0.5-0.2,0.4-0.4c-0.4-0.7-1-1.3-1.8-1.7C118.2,36,117.8,36.4,118,36.6
	z"/>
<path class="st3" d="M121.1,36.7c0.2,0.6,0.9,1.7,1.6,1.8c0.2,0,0.4-0.1,0.4-0.2c0,0,0,0,0-0.1c0-0.8-1-1.6-1.7-1.9
	C121.3,36.2,121.1,36.5,121.1,36.7z"/>
<path class="st3" d="M123.7,36.8c1.4,0.2,2.8,0.3,4.2,0.3c1.3,0.1,2.5,0,3.7-0.3c0.2-0.1,0.3-0.3,0.3-0.5c0-0.1-0.1-0.2-0.3-0.3
	c-1.3-0.3-2.7-0.3-4-0.2s-2.7,0.2-4,0.4C123.3,36.2,123.4,36.7,123.7,36.8L123.7,36.8z"/>
<path class="st5" d="M53.9,58c-0.6,0.5-1.3,0.9-2,1.1c-0.7,0.2-1.4-0.1-2,0.2c-0.3,0.1-0.4,0.4-0.3,0.6c0,0.1,0.1,0.2,0.2,0.3
	c0.7,0.5,1.9,0.2,2.6-0.1c0.8-0.3,1.5-0.9,2-1.6C54.6,58.1,54.2,57.8,53.9,58L53.9,58z"/>
<path class="st5" d="M43.6,65.2c-0.8,0.4-1.6,0.8-2.3,1.4c-0.7,0.5-1.5,1-2.2,1.6c-0.3,0.3,0.1,0.8,0.4,0.6c0.8-0.5,1.5-1.1,2.3-1.7
	c0.7-0.5,1.3-1,1.9-1.7C43.8,65.3,43.8,65.1,43.6,65.2z"/>
<path class="st5" d="M46.7,71c-0.6,0.4-1.1,0.9-1.7,1.4c-0.6,0.4-1.1,0.9-1.6,1.5c-0.2,0.2,0.2,0.5,0.4,0.4c0.6-0.4,1.1-0.8,1.6-1.3
	s1.1-1,1.6-1.5C47.2,71.2,46.9,70.8,46.7,71L46.7,71z"/>
<path class="st5" d="M53.2,73.4c-1,0.1-1.9,0.5-2.8,1c-1,0.4-2,1-2.8,1.8c-0.2,0.2,0,0.6,0.3,0.5c0.9-0.5,1.8-1,2.7-1.5
	c0.9-0.4,1.8-0.9,2.7-1.5C53.3,73.6,53.3,73.5,53.2,73.4L53.2,73.4L53.2,73.4z"/>
<path class="st5" d="M39.2,51.1c0.2,0.3,0.4,0.6,0.8,0.7c0.1,0,0.2,0,0.2-0.1v-0.1c-0.1-0.3-0.4-0.6-0.7-0.8c-0.1,0-0.2,0-0.3,0.1
	C39.2,50.9,39.2,51,39.2,51.1z"/>
<path class="st5" d="M39.2,51.9c0.2,0.1,0.5,0.1,0.8,0.2c0.1,0,0.1,0,0.1-0.1s0-0.1-0.1-0.1C39.7,51.8,39.5,51.8,39.2,51.9
	C39.1,51.8,39.1,51.8,39.2,51.9C39.1,51.9,39.1,51.9,39.2,51.9L39.2,51.9z"/>
<path class="st5" d="M64.9,42.6c2.8-0.8,5.7-1.1,8.6-1c2.9,0.4,5.7,1.2,8.3,2.4c0.2,0.1,0.3-0.3,0.2-0.4c-4.6-3.2-12.1-3.8-17.1-1.3
	C64.7,42.4,64.8,42.6,64.9,42.6L64.9,42.6z"/>
<path class="st5" d="M53,39.9c-0.7,0.2-1.3,0.7-1.5,1.3c-0.1,0.1,0,0.2,0.1,0.3h0.1l0.5-0.1l-0.3-0.3c-0.2,0.4-0.3,0.8-0.4,1.3
	c0,0.1,0.2,0.2,0.2,0.1c0.2-0.4,0.4-0.8,0.5-1.2c0.1-0.2-0.1-0.3-0.3-0.3l-0.5,0.1l0.3,0.3c0.2-0.5,0.7-1,1.2-1.2
	C53,40.2,53,40.1,53,39.9C53.1,39.9,53.1,39.9,53,39.9z"/>
<path class="st5" d="M65.1,57.2c-0.4,0.5-0.8,1-1.1,1.5c0,0.1,0,0.2,0.1,0.2h0.1c0.4-0.5,0.8-1,1.2-1.5
	C65.4,57.2,65.2,57.1,65.1,57.2z"/>
<path class="st5" d="M60.7,67.8c-0.4,0.1-0.7,0.4-0.8,0.7c0,0.1,0,0.3,0.2,0.3c0,0,0,0,0.1,0c0.3,0,0.5,0,0.8,0
	c0.1,0,0.2-0.1,0.2-0.2s-0.1-0.2-0.2-0.2c-0.3-0.1-0.5-0.1-0.8-0.1l0.2,0.3c0.1-0.2,0.2-0.5,0.4-0.6c0.1,0,0.1-0.1,0-0.2
	C60.8,67.8,60.8,67.7,60.7,67.8L60.7,67.8z"/>
<path class="st5" d="M75.8,50.3c-1.5,0.9-2.7,2.1-3.7,3.5c-0.1,0.1-0.1,0.2,0,0.3s0.2,0.1,0.3,0c0.6-0.5,1.1-1.2,1.6-1.7
	c0.6-0.6,1.3-1.1,1.9-1.6C76.3,50.5,76.1,50.1,75.8,50.3z"/>
<path class="st5" d="M63.3,47.9c-1.1,0.1-2.2,0.8-2.8,1.7c-0.1,0.3,0.2,0.4,0.4,0.3c0.4-0.3,0.8-0.5,1.2-0.8s0.9-0.5,1.3-0.7
	C63.7,48.3,63.6,47.9,63.3,47.9z"/>
<path class="st5" d="M82.4,70.4c0.9,0.1,1.8,0.1,2.7,0.2s1.8,0.3,2.7,0.4c0.3,0,0.4-0.4,0.1-0.6c-1.8-0.7-3.7-0.8-5.5-0.4
	C82.2,70,82.2,70.3,82.4,70.4L82.4,70.4z"/>
<path class="st5" d="M73,29L73,29c-0.2,0-0.2,0-0.2,0.1s0,0.1,0.1,0.1H73C73.3,29.3,73.3,28.8,73,29L73,29z"/>
<path class="st5" d="M72.3,30c1,0.7,2,1,3.1,1.5s2,1.3,3,1.8c1.6,1,3.5,1.6,5.4,1.7c0.7,0,0.7-1.1,0-1.1c-4.2-0.2-7.3-5.4-11.4-4.7
	C72,29.4,72,29.9,72.3,30L72.3,30z"/>
<path class="st5" d="M80.2,33.3c0.5,0.3,1,0.5,1.6,0.5c0.3,0,0.4-0.4,0.1-0.5c-0.5-0.2-1.1-0.3-1.6-0.3
	C80.2,33.1,80.2,33.1,80.2,33.3C80.2,33.2,80.2,33.3,80.2,33.3z"/>
<path class="st5" d="M67.3,27.6c1.1,0.3,2.2,0.7,3.2,1.3c0.8,0.5,1.6,1.5,2.5,1.6c0.2,0.1,0.4-0.1,0.4-0.3c0-0.1,0-0.1,0-0.2
	c-0.2-1-1.7-1.8-2.5-2.2c-1.1-0.6-2.3-1-3.5-1.1C66.9,26.6,66.8,27.4,67.3,27.6z"/>
<path class="st5" d="M81.4,33.7c0.2,0.9,1.5,1.3,2.3,1.6c1.1,0.4,2.5,0.9,3.6,0.6c0.2-0.1,0.3-0.3,0.3-0.5c0-0.1-0.1-0.2-0.2-0.2
	c-1-0.4-2.1-0.7-3.2-0.9C83.4,34,82.2,33.3,81.4,33.7C81.4,33.6,81.4,33.7,81.4,33.7L81.4,33.7z"/>
<path class="st5" d="M88.8,36c1.8,1,5.1-0.3,5.3-2.5c0-0.1-0.1-0.3-0.3-0.3h-0.1c-0.7,0.6-1.3,1.1-2.1,1.6c-0.9,0.3-1.8,0.5-2.7,0.6
	C88.6,35.5,88.6,35.9,88.8,36z"/>
<path class="st8" d="M51.1,23.4c2.7-0.8,5.3-2,7.6-3.7l-0.6-0.6c-0.3,0.6-0.7,1.2-0.9,1.8c-0.1,0.2,0.3,0.4,0.4,0.2
	c0.4-0.5,0.9-1.1,1.2-1.6c0.2-0.3-0.2-0.8-0.6-0.6c-2.4,1.5-5,2.6-7.3,4.1c-0.1,0.1-0.1,0.2,0,0.3C50.9,23.3,51,23.4,51.1,23.4z"/>
<path class="st8" d="M57.4,21.8c2.3-1,4.7-1.9,7.1-2.7l-0.3-0.5c-0.8,0.8-1.6,1.6-2.3,2.5c-0.1,0.2,0.1,0.5,0.3,0.3
	c0.9-0.7,1.7-1.5,2.5-2.3c0.1-0.1,0.1-0.3,0-0.5c-0.1-0.1-0.2-0.1-0.3-0.1c-2.5,0.6-4.9,1.7-7,3.1C57.3,21.7,57.4,21.8,57.4,21.8
	L57.4,21.8z"/>
<path class="st8" d="M63.8,21c1.9,0.3,4-0.5,5.7-1.3l-0.3-0.6c-0.6,0.4-1.2,0.8-1.7,1.3c-0.2,0.2,0,0.5,0.2,0.4
	c0.6-0.3,1.3-0.7,1.8-1.1c0.1-0.1,0.2-0.3,0.1-0.5c-0.1-0.1-0.3-0.2-0.4-0.1c-0.9,0.4-1.8,0.8-2.8,1.1c-0.8,0.3-1.8,0.4-2.6,0.7
	C63.8,20.9,63.7,21,63.8,21z"/>
<path class="st8" d="M67.7,21.1c2.3-0.4,4.5-0.9,6.6-1.8l-0.4-0.5c-0.2,0.3-0.3,0.6-0.5,0.9s0.2,0.5,0.4,0.3s0.4-0.5,0.6-0.8
	c0.1-0.1,0.1-0.3,0-0.5c-0.1-0.1-0.2-0.1-0.3-0.1c-2.3,0.4-4.5,1.1-6.6,2c-0.1,0-0.1,0.2-0.1,0.3C67.5,21.1,67.6,21.1,67.7,21.1z"/>
<path class="st8" d="M72.9,20.9c0.8,0.1,1.7,0,2.4-0.3L75,20.1c-0.6,0.3-1.2,0.8-1.7,1.3c-0.1,0.1,0,0.2,0.1,0.3h0.1
	c0.6-0.3,1.2-0.6,1.8-1.1c0.1-0.1,0.2-0.2,0.1-0.4c-0.1-0.1-0.2-0.2-0.4-0.1c-0.6,0.4-1.4,0.5-2.1,0.5
	C72.7,20.6,72.7,20.9,72.9,20.9L72.9,20.9z"/>
<path class="st8" d="M74.3,21.4c5.7,1.8,11.9,2,17.7,3.8c2.8,0.8,5.2,2.8,6.4,5.5c1.1,2.3,1.3,4.8,2.3,7.1c0.1,0.2,0.5,0.1,0.5-0.1
	c0.2-4.7-2.8-10.5-7-12.6c-2.8-1.3-6-1.7-9-2.2c-3.6-0.8-7.2-1.4-10.8-1.7C74.1,21,74.1,21.3,74.3,21.4L74.3,21.4z"/>
<path class="st8" d="M100.7,37c5.5,0.5,11.3-0.3,16.8-0.6s11.2-0.5,16.8-1c0.5,0,0.5-0.8,0-0.8c-5.8,0.1-11.6,0.6-17.3,0.9
	c-5.4,0.3-11.1,0.1-16.4,1.2C100.5,36.7,100.6,36.9,100.7,37L100.7,37z"/>
<path class="st8" d="M131.8,35.3c0.4,2.6,1.7,5,3.7,6.8c1.2,1.2,3.4,2.9,4.5,0.6c0.5-1.4,0.8-2.9,0.9-4.3c0.2-1,0.7-2.5,0.1-3.5
	s-1.7-0.9-2.7-0.9c-1.6-0.2-3.3,0.1-4.8,0.8c-0.2,0.1-0.1,0.4,0.1,0.4c0.9,0,1.8,0,2.7-0.2c0.6,0,1.1-0.1,1.7-0.1
	c1,0,0.9-0.1,1.6,0.9s0.6,0.9,0.4,1.9l-0.3,1.4c-0.1,0.7-0.1,2.3-0.6,2.8c-0.5,0.6-1.4,0.8-2,0.3c-0.1,0-0.1-0.1-0.2-0.1
	c-0.3-0.2-0.6-0.5-0.8-0.7c-0.6-0.6-1.2-1.3-1.7-2c-0.9-1.4-1.6-2.8-2.3-4.2C132.1,34.9,131.7,35,131.8,35.3L131.8,35.3z"/>
<path class="st8" d="M138.7,43.4c-1.3,4.2-2.7,8.4-4.1,12.6c-0.1,0.3,0.4,0.5,0.5,0.2c1.9-4.1,3.2-8.3,4-12.8c0-0.1,0-0.2-0.1-0.2
	S138.7,43.2,138.7,43.4L138.7,43.4L138.7,43.4z"/>
<path class="st8" d="M136.7,56.2"/>
<path class="st8" d="M134.7,55.8c-11.7,0.2-23.6,1.6-35.3,2.5c-0.6,0-0.6,0.9,0,0.9c11.8-0.9,23.7-1.3,35.3-2.9
	C135,56.3,135,55.9,134.7,55.8z"/>
<path class="st8" d="M98.9,58.1c-1,1.2-2,2.4-2.9,3.8h0.8c-0.7-1.1-1.8-2.7-3-3c-0.2,0-0.4,0.1-0.4,0.2c0,0.1,0,0.2,0,0.2
	c0.3,0.5,0.7,0.9,1.2,1.2c0.5,0.5,1,1.1,1.4,1.7c0.1,0.2,0.4,0.3,0.6,0.1c0.1,0,0.1-0.1,0.1-0.1c0.9-1.3,1.7-2.6,2.4-4
	C99.2,58.1,99,57.9,98.9,58.1L98.9,58.1z"/>
<path class="st8" d="M93.3,58.9c-1.7,1.7-3.3,3.5-4.7,5.4l0.8,0.2c-0.6-1.7-1.2-3.3-1.8-5c-0.2-0.6-1.1-0.3-0.9,0.3
	c0.6,1.7,1.2,3.3,1.8,5c0.1,0.3,0.4,0.4,0.6,0.3c0.1,0,0.2-0.1,0.3-0.2c1.5-1.8,2.9-3.8,4.1-5.8c0-0.1,0-0.1-0.1-0.2
	C93.4,58.9,93.4,58.9,93.3,58.9L93.3,58.9z"/>
<path class="st8" d="M134.3,56.2c-1.5,3.8-3.4,7.4-5.6,10.8c-2.3,3.3-5.1,6.2-8.2,8.7c-3.5,2.8-7.5,5-11.8,6.3
	c-4.9,1.4-9.5,0.6-14.2-1c-8-2.7-15.6-4.8-24.2-4.5c-8,0.3-16.6,2.2-23.6,6.3c-0.5,0.3,0,0.9,0.4,0.7c8.8-4,17.7-6.4,27.4-6
	c4.7,0.2,9.4,1.1,13.9,2.5c4,1.3,8,3.1,12.2,3.6c8,1,15.8-3.2,21.7-8.2c5.6-4.8,10.9-11.6,12.5-18.9
	C134.9,56.1,134.5,55.9,134.3,56.2L134.3,56.2z"/>
<path class="st8" d="M47.5,83.7c-0.3-0.6-0.6-1.3-0.8-1.9c-0.1-0.3-0.1-1.2-0.7-0.9s-0.2,1.2-0.1,1.6c0.2,0.7,0.6,1.2,1.1,1.6
	C47.2,84.3,47.6,84,47.5,83.7L47.5,83.7z"/>
<path class="st8" d="M45.9,82c-1.8,0.3-3.6,1.9-4.9,3.1c-1.6,1.4-2.8,3.1-3.7,5.1c0,0.1,0,0.2,0,0.2c0.1,0,0.2,0,0.2,0l0,0
	c1.1-1.7,2.4-3.4,3.9-4.8c1.4-1.3,3.2-2.1,4.6-3.4C46.1,82.1,46,82,45.9,82z"/>
<path class="st8" d="M36.8,91c0.7-2.3,1.1-4.6,1.1-7c0-0.1-0.1-0.1-0.2-0.1L37.6,84c-0.7,2.3-1.1,4.6-1.1,7
	C36.5,91.1,36.6,91.1,36.8,91C36.7,91.1,36.7,91,36.8,91z"/>
<path class="st8" d="M37.8,83.6c-2.3,0.6-4.4,1.9-6,3.7c-0.2,0.2,0.1,0.5,0.3,0.3c1.6-1.7,3.6-2.9,5.8-3.8c0.1,0,0.1-0.1,0.1-0.1
	C37.9,83.6,37.8,83.5,37.8,83.6L37.8,83.6z"/>
<path class="st8" d="M31.6,88.4c0.5-3.7,1.4-7.4,2.7-10.9c0.1-0.2-0.1-0.4-0.2-0.4c-0.2,0-0.3,0-0.4,0.2c-1.9,3.4-2.7,7.3-2.3,11.2
	c0,0.1,0.1,0.1,0.1,0.1C31.5,88.5,31.6,88.5,31.6,88.4z"/>
<path class="st8" d="M35.5,76c-4,0.2-7.8,1.7-10.8,4.3c-0.3,0.2,0.1,0.6,0.4,0.5c1.6-1,3.3-1.8,5.1-2.6c1.8-0.7,3.6-1.2,5.5-1.7
	c0.1,0,0.2-0.2,0.2-0.3C35.6,76.1,35.6,76,35.5,76z"/>
<path class="st8" d="M25.4,80.4c1.3-3.4,2.5-6.6,4.8-9.4c2-2.5,4.6-4,7.1-5.9c0.2-0.2,0-0.4-0.2-0.4c-6.1,1.7-11.7,9.5-12.2,15.6
	C24.9,80.6,25.3,80.6,25.4,80.4z"/>
<path class="st8" d="M35.3,65.7c-3.8-1.6-10.6-1.3-13.5,2c-0.1,0.1-0.1,0.2,0,0.3c0.1,0.1,0.1,0.1,0.2,0.1c2.1-0.6,3.9-1.8,6.1-2.2
	c2.4-0.3,4.8-0.3,7.2,0C35.5,65.9,35.5,65.7,35.3,65.7L35.3,65.7z"/>
<path class="st8" d="M23.6,67.2c1.8-3.2,4-6.2,6.6-8.8c2.8-2.6,5.9-4.1,9.2-6c0.2-0.1,0.2-0.3,0.1-0.5c-0.1-0.2-0.3-0.2-0.4-0.2
	c-6.9,1.9-13.5,8.6-15.9,15.3C23.3,67.2,23.5,67.3,23.6,67.2L23.6,67.2z"/>
<path class="st8" d="M40.7,51.4c-0.4-1.2-1.1-2.2-2.1-2.9c-0.8-0.6-2.1-1.6-3.2-1.3c-0.2,0.1-0.3,0.2-0.2,0.4c0,0,0,0.1,0.1,0.1
	c0.3,0.3,0.6,0.4,1,0.5c0.6,0.2,1.2,0.5,1.7,0.9c0.9,0.7,1.8,1.5,2.5,2.3C40.5,51.5,40.6,51.5,40.7,51.4
	C40.7,51.5,40.7,51.5,40.7,51.4L40.7,51.4z"/>
<path class="st8" d="M34.2,47.8c1.9-0.4,3.7-1,5.6-1.4s3.8-0.3,5.7-0.7c0.2,0,0.2-0.2,0.2-0.4c0-0.1-0.1-0.2-0.2-0.2
	c-3.5-0.7-8.3,0.6-11.4,2.4C33.9,47.6,34,47.9,34.2,47.8z"/>
<path class="st8" d="M52.4,25.3C50,20.2,44.5,17,39.7,14.6c-5.9-3-11.9-5.5-17-9.7c-0.2-0.2-0.4-0.2-0.6,0c0,0,0,0.1-0.1,0.2
	c-1,8,1.9,15.8,5.1,23c2.8,6.2,7.4,12.2,14.5,13.5c0.5,0.1,0.7-0.6,0.2-0.7c-7-1.6-11.3-7.3-14.1-13.6c-1.4-3.2-2.6-6.5-3.6-9.8
	c-1.3-3.9-2.4-8.2-1.3-12.2l-0.7,0.2c4.2,4.3,10,6.6,15.3,9.1c5.7,2.4,10.7,6.2,14.6,11C52.2,25.9,52.5,25.5,52.4,25.3L52.4,25.3z"
	/>
<path class="st8" d="M25.4,10.5c0.4,4.3,4.9,7.2,8.5,8.7c2.3,1,4.8,1.6,7.2,2.5c2.9,1,5.6,2.6,8,4.5c0.2,0.1,0.5-0.1,0.3-0.3
	c-2.6-3.4-7.2-4.7-11.1-5.9c-2.6-0.7-5.1-1.8-7.5-3.1c-2.3-1.6-4.2-3.8-5.3-6.4C25.5,10.3,25.3,10.3,25.4,10.5L25.4,10.5z"/>
<path class="st8" d="M30.4,17.2c-1.3,8.7,4.4,18.4,12.3,22c0.4,0.2,0.8-0.4,0.4-0.7c-8-4.7-12-12.1-12.4-21.3
	C30.6,17.1,30.4,17.1,30.4,17.2L30.4,17.2z"/>
<path class="st8" d="M45.1,37.6c-1-0.1-1.9,0-2.9,0.3C42,38,41.9,38.2,42,38.4c0,0,0,0.1,0.1,0.1c0.4,0.5,0.8,0.9,1.2,1.4l0.5-0.7
	c-1.1-0.5-2.8-0.2-2.6,1.4c0.1,0.5,0.4,0.9,1,1c0.5,0.1,1.1-0.1,1.2-0.6c0-0.2-0.1-0.4-0.3-0.4c-0.1,0-0.2,0-0.3,0
	c-0.3,0.1-0.8,0.3-0.7-0.3s0.9-0.5,1.3-0.4s0.9-0.3,0.5-0.7s-0.8-0.9-1.3-1.3l-0.1,0.6c0.8-0.4,1.7-0.6,2.6-0.6
	C45.4,37.9,45.4,37.6,45.1,37.6L45.1,37.6z"/>
<path class="st8" d="M49.2,25c-1.6,0.5-3.2,1-4.7,1.6c-0.2,0-0.3,0.3-0.3,0.5s0.2,0.3,0.4,0.3c1,0.1,2,0.5,3.1,0.6
	c0.3,0,0.3-0.3,0.1-0.4c-1-0.4-2-0.6-3-1v0.8c1.6-0.5,3.1-1.1,4.7-1.7C49.8,25.5,49.7,24.9,49.2,25L49.2,25z"/>
<path class="st8" d="M48.4,27.4c-2.6,0.8-4.9,2.1-7,3.9c-0.2,0.1,0,0.4,0.2,0.3c2.3-1.1,4.7-2.5,6.9-3.9c0.1,0,0.1-0.2,0.1-0.2
	C48.6,27.4,48.5,27.3,48.4,27.4L48.4,27.4z"/>
<path class="st8" d="M43.3,30.9c0.7-0.1,1.5-0.1,2.2-0.2c0.6,0,1.2-0.1,1.7-0.4c0.1-0.1,0.1-0.2,0.1-0.3c0-0.1-0.1-0.1-0.1-0.1
	c-0.6,0-1.2,0-1.8,0.2c-0.7,0.1-1.5,0.3-2.2,0.5C43.1,30.5,43.1,30.9,43.3,30.9L43.3,30.9z"/>
<path class="st8" d="M47.6,30.1c-2.3,1.2-4.5,2.6-6.6,4.1c-0.3,0.2,0,0.6,0.3,0.4c2.3-1.3,4.5-2.7,6.6-4.3
	C48,30.2,47.8,30,47.6,30.1L47.6,30.1z"/>
<path class="st8" d="M41.9,34.3c1.3-0.2,2.5-0.5,3.7-1c0.1-0.1,0.1-0.2,0.1-0.2L45.6,33c-1.3,0.2-2.5,0.5-3.7,1
	C41.8,34,41.8,34.1,41.9,34.3C41.8,34.2,41.8,34.3,41.9,34.3L41.9,34.3L41.9,34.3z"/>
<path class="st8" d="M45.1,33.4c-1.2,1.2-2.8,2.9-3.1,4.7c0,0.2,0.2,0.3,0.3,0.2c0.5-0.7,1-1.4,1.4-2.1c0.6-0.8,1.2-1.6,1.9-2.3
	C45.8,33.5,45.4,33.1,45.1,33.4z"/>
<path class="st8" d="M53.8,21.6c-0.2-3-3.4-5.3-5.6-6.9c-4.1-3-8.3-5.7-8.3-11.4c0-0.1-0.1-0.2-0.3-0.2c-0.1,0-0.2,0.1-0.2,0.2
	c-1,3.7,1.5,7.1,4.3,9.3c1.5,1.2,3.1,2.2,4.7,3.4C50.6,17.6,51.9,19.6,53.8,21.6C53.7,21.6,53.8,21.6,53.8,21.6L53.8,21.6z"/>
<path class="st8" d="M39.2,3.4c-2.8,1.6-5.5,5.6-4.5,9c0.1,0.3,0.5,0.3,0.6,0c0.3-1.7,0.2-3.3,1-4.9C37,6,38.1,4.6,39.4,3.6
	C39.5,3.6,39.4,3.4,39.2,3.4L39.2,3.4z"/>
<path class="st8" d="M37.8,7.1c-0.2,2.4,2.2,5.9,4.8,6c0.2,0,0.3-0.1,0.3-0.3c0-0.1-0.1-0.2-0.2-0.3c-1.1-0.6-2.1-1.3-3-2.1
	c-0.7-1-1.2-2.1-1.5-3.3C38.1,7,38,6.9,37.9,7C37.8,6.9,37.8,7,37.8,7.1L37.8,7.1z"/>
<path class="st8" d="M44.8,14.9c0.5,0.5,1.1,0.9,1.7,1.4s0.9,1.1,1.5,1.7c0.3,0.3,0.8-0.1,0.6-0.5c-0.4-0.7-0.9-1.3-1.6-1.8
	c-0.6-0.5-1.3-0.9-2-1.1C44.8,14.6,44.7,14.7,44.8,14.9L44.8,14.9z"/>
<path class="st8" d="M65.4,25.4c6,3.3,12.1,6.3,18.4,9c3,1.3,8.8,2.5,10.4-1.5c0.1-0.3-0.3-0.4-0.5-0.3c-2.5,2-4.5,2.6-7.7,1.7
	c-2.5-0.9-4.8-2-7.1-3.3c-4.4-2.1-8.8-4.4-13.3-6.2C65.3,24.6,65,25.2,65.4,25.4L65.4,25.4z"/>
<path class="st8" d="M67.6,26.6c-4,3.5-3.3,9.7,0.6,13c0.4,0.4,1.1-0.3,0.6-0.6c-3.9-3.4-3.8-8.1-1-12.1
	C68,26.7,67.7,26.5,67.6,26.6L67.6,26.6z"/>
<path class="st8" d="M78.6,42.1c4.3,0.2,8.4-3.1,10.3-6.8c0.3-0.5-0.5-0.9-0.7-0.4c-2.1,4-5.4,5.7-9.6,7c-0.1,0-0.1,0.1-0.1,0.1
	C78.4,42.1,78.5,42.1,78.6,42.1L78.6,42.1z"/>
<path class="st8" d="M64.4,42c2.8-0.5,5.4-1.3,8.4-1.1c3,0.3,6,1.2,8.6,2.8c0.2,0.1,0.5,0,0.6-0.2s0-0.4-0.1-0.6
	c-4.5-3.2-12.8-4.6-17.5-1.2C64.3,41.7,64.3,41.8,64.4,42C64.3,42,64.4,42,64.4,42z"/>
<path class="st8" d="M72.8,29c-1.8,0.2-3.1,1.6-3.3,3.3c-0.3,2.5,1.7,4.7,3.9,5.6c4.5,1.8,10.2,0,12.4-4.4c0.1-0.2,0-0.5-0.2-0.6
	s-0.4,0-0.6,0.1c-1.6,2.7-4.4,4.4-7.5,4.5c-1.6,0.1-3.3-0.2-4.7-1c-2.9-1.7-3.6-5.8,0-7.3C73,29.3,73,29,72.8,29L72.8,29z"/>
<path class="st8" d="M80.8,32.7c-0.7-0.8-2.1,0.8-2.4,1.4c-0.4,0.8-0.5,2.9,0.7,3.1c0.1,0,0.3,0,0.3-0.2c0,0,0,0,0-0.1
	c0-0.3-0.2-0.6-0.3-0.8c-0.3-0.6-0.3-1.3,0-1.9c0.2-0.5,0.6-0.9,1.1-1.1C80.5,33.1,80.7,33.1,80.8,32.7
	C80.9,32.8,80.9,32.8,80.8,32.7L80.8,32.7z"/>
<path class="st8" d="M40.2,56.9c-0.7-0.1-1.4,0.2-1.9,0.7c-0.6,0.6-1,1.3-1.2,2.2c0,0.2,0.1,0.4,0.3,0.3c1.3-0.5,2.6-1,3.9-1.6
	c0.2-0.1,0-0.3-0.1-0.3c-1.3,0.4-2.6,0.9-3.9,1.4l0.3,0.3c0.2-0.7,0.6-1.4,1.1-1.9c0.5-0.4,1.1-0.6,1.5-1
	C40.3,57,40.3,56.9,40.2,56.9C40.3,56.9,40.3,56.9,40.2,56.9L40.2,56.9z"/>
<path class="st8" d="M41.6,63.7c-1.4,1.3-2.6,2.9-3.3,4.7c0,0.2,0.1,0.4,0.3,0.4c0.1,0,0.2,0,0.2,0c1.8-1.2,3.5-2.6,5.2-4
	c0.1-0.1,0.1-0.2,0-0.3c-0.1-0.1-0.2-0.1-0.3,0c-1.8,1.2-3.6,2.4-5.3,3.8l0.5,0.3c0.5-1.8,1.5-3.4,2.8-4.8
	C41.9,63.7,41.8,63.6,41.6,63.7L41.6,63.7z"/>
<path class="st8" d="M44.4,67.7c-0.9,0.7-1.5,1.6-1.8,2.7c-0.1,0.2,0.2,0.4,0.4,0.3c0.7-0.6,1.5-1.2,2.2-1.8l-0.3-0.3
	c-1.3,1.5-2,3.4-2,5.4c0,0.2,0.2,0.3,0.3,0.3s0.1,0,0.2-0.1c1.3-1.1,2.7-2.3,4-3.4c0.1-0.1,0-0.3-0.2-0.3c-1.4,1-2.9,2.1-4.3,3.2
	l0.5,0.2c-0.1-1.9,0.5-3.7,1.7-5.2c0.1-0.2,0-0.5-0.3-0.3c-0.7,0.6-1.5,1.1-2.2,1.7l0.4,0.2c0.2-1,0.7-2,1.5-2.7
	C44.6,67.7,44.5,67.6,44.4,67.7L44.4,67.7z"/>
<path class="st8" d="M48.5,73.2c-0.5,1-0.9,2.1-1.4,3c-0.1,0.1-0.1,0.3,0.1,0.4c0.1,0.1,0.2,0.1,0.3,0c2-1.3,4.2-2.5,6.3-3.6
	c0.2-0.1,0.1-0.4-0.2-0.3c-2.4,0.7-4.6,1.9-6.6,3.4l0.5,0.3C47.8,75.3,48.2,74.3,48.5,73.2C48.7,73.1,48.6,73,48.5,73.2L48.5,73.2z"
	/>
<path class="st8" d="M53.7,54c-1.2,0.2-2.3,0.7-3.2,1.5c-0.3,0.2,0,0.5,0.3,0.5l1.7-0.4l-0.2-0.5c-0.8,0.5-1.6,1.2-2.3,1.9
	c-0.1,0.1-0.1,0.4,0.1,0.5c0.3,0,0.5,0.1,0.8,0.2l-0.1-0.3c-0.4,0.5-0.7,1.1-1.1,1.6c-0.1,0.1,0,0.3,0.1,0.4h0.1
	c1.7,0,3.3-0.6,4.7-1.6c0.2-0.2,0-0.5-0.3-0.4c-1.4,0.7-2.9,1.2-4.5,1.4l0.2,0.4l1-1.7c0.1-0.1,0-0.3-0.1-0.3c0,0,0,0-0.1,0
	c-0.2,0-0.5-0.1-0.7-0.3l0.1,0.4c0.7-0.7,1.4-1.3,2.1-1.8c0.1-0.1,0.2-0.2,0.1-0.4s0-0.1-0.1-0.1l0,0c-0.6,0.1-1.1,0.2-1.7,0.4
	l0.3,0.5c0.8-0.7,1.8-1.2,2.8-1.5c0.1,0,0.1-0.1,0.1-0.2C53.8,54,53.7,54,53.7,54L53.7,54z"/>
<path class="st8" d="M34.7,38.4c-0.9,0.4-1.7,1-2.5,1.5c-0.7,0.4-1.4,0.9-2.1,1.5c-0.1,0.1,0,0.2,0.1,0.2c0.9-0.4,1.7-0.9,2.5-1.5
	c0.7-0.4,1.4-0.9,2.1-1.5C34.8,38.5,34.8,38.4,34.7,38.4L34.7,38.4z"/>
<path class="st8" d="M24,24.3c-3.6,1.6-6.8,3.9-9.5,6.8c0,0,0,0.1,0,0.2s0.1,0,0.2,0l0,0c2.8-2.7,6-5,9.5-6.7
	C24.4,24.5,24.2,24.1,24,24.3z"/>
<path class="st8" d="M24.8,23.7c-1.2-0.1-2.7,0.9-3.6,1.6c-1.1,0.8-2,1.8-2.5,3.1c0,0,0,0.1,0.1,0.1c0,0,0,0,0.1,0
	c0.9-1.1,1.9-2.1,2.9-3C22.7,24.8,24,24.5,24.8,23.7C24.9,23.8,24.9,23.7,24.8,23.7L24.8,23.7z"/>
<path class="st8" d="M21.6,26.5c0.2-0.2,0.5-0.3,0.7-0.5l-0.1-0.3c-0.7,0.5-1.3,1-2,1.5s-1.3,1-1.9,1.6c-0.1,0.1,0.1,0.2,0.2,0.2
	c0.7-0.4,1.3-0.8,1.9-1.4c0.7-0.5,1.3-1.1,2-1.7c0.1-0.1-0.1-0.3-0.2-0.2c-0.2,0.2-0.4,0.4-0.6,0.5C21.5,26.4,21.5,26.6,21.6,26.5
	L21.6,26.5z"/>
<path class="st8" d="M20.5,27.5c-1.7,1.1-3.4,2.1-5,3.3c-0.1,0.1-0.1,0.4,0.1,0.3l0.7-0.3c0.1,0,0-0.2-0.1-0.2s-0.5,0.1-0.7,0.2
	l0.1,0.3c1.7-1,3.4-2.2,5-3.3C20.8,27.7,20.7,27.4,20.5,27.5L20.5,27.5z"/>
<path class="st8" d="M20.2,27.6c0.7-1.1,1.6-1.9,2.7-2.6c0.1,0,0-0.2-0.1-0.1c-1.2,0.6-2.2,1.5-2.8,2.6v0.1
	C20.1,27.6,20.1,27.6,20.2,27.6L20.2,27.6z"/>
<path class="st8" d="M108.3,37c0,0.4,0.4,0.7,0.6,0.9c0.3,0.4,0.7,0.7,1.1,1c0.1,0.1,0.3,0,0.4-0.1s0.1-0.2,0-0.3
	c-0.3-0.4-0.7-0.7-1.1-1C109,37.3,108.7,36.9,108.3,37C108.4,37,108.3,37,108.3,37L108.3,37z"/>
<path class="st8" d="M111.1,36.5c0.5,0.4,0.9,0.9,1.3,1.5c0.3,0.5,0.4,1.2,0.8,1.5c0.1,0.1,0.2,0.1,0.3,0v-0.1
	c0.2-0.6-0.4-1.3-0.7-1.8c-0.4-0.6-0.9-1-1.5-1.4c-0.1,0-0.1,0-0.2,0.1C111,36.4,111,36.4,111.1,36.5L111.1,36.5z"/>
<path class="st8" d="M115.2,37.7l0.6,0.5c0.1,0.1,0.2,0.1,0.2,0s0.1-0.2,0-0.2l0,0l-0.5-0.6C115.3,37.2,115,37.5,115.2,37.7
	L115.2,37.7z"/>
<path class="st8" d="M116.4,36.8c0.5,0.2,0.9,0.5,1.3,0.8c0.3,0.3,0.5,0.7,0.8,1c0.1,0.1,0.2,0.1,0.2,0c0,0,0.1-0.1,0-0.2
	c-0.4-1-1.3-1.7-2.3-1.9C116.3,36.5,116.2,36.7,116.4,36.8L116.4,36.8z"/>
<path class="st8" d="M119.5,37c0.4,0.6,1,1.1,1.6,1.6c0.1,0,0.3,0,0.2-0.2c-0.4-0.7-0.8-1.3-1.4-1.8C119.7,36.4,119.3,36.8,119.5,37
	z"/>
<path class="st8" d="M122,36.2c0.7,0.9,1.5,1.7,2.5,2.3c0.1,0,0.1,0,0.2,0v-0.1c-0.7-0.9-1.5-1.7-2.4-2.5c-0.1-0.1-0.2,0-0.3,0.1
	C122,36.1,122,36.2,122,36.2z"/>
<path class="st8" d="M126.8,37L126.8,37L126.8,37z"/>
<path class="st8" d="M128.6,37.4c0.4,0.3,0.4,0.8,0.6,1.2c0,0.1,0.2,0.1,0.2,0.1s0,0,0.1-0.1c0.4-0.5,0-1.2-0.5-1.6
	C128.8,36.8,128.4,37.2,128.6,37.4z"/>
</svg>
