<svg id="illustration" xmlns="http://www.w3.org/2000/svg" viewBox="0 0 198.43 107.82"><defs><style>.cls-1{fill:#566a78;}.cls-2{fill:#aacde4;}.cls-3{fill:#3a2a12;}.cls-4{fill:#fff;}.cls-5{fill:#5a93ab;}.cls-6{fill:#2f3d47;}.cls-7{fill:#7f5133;}.cls-8{fill:#46260b;}.cls-9{fill:#010101;}</style></defs><path class="cls-1" d="M100.7,36.82s-.29-7.67-4.41-10.34S77.92,21.85,77.5,21.77l-3.15-.6.82-.82-2.24.41L74.23,19l-5.68,1.91.78-1.54-5,1.54-2.28.15,2.35-2.33-7.06,2.91,1.07-2.37-4.17,2.37s-1.81-2.69-2.1-2.91-4.51-3.83-4.51-3.83l-3.93-2.86-3.2-3.73-1-3.22.1-1.75-3,2.32-2,3.37v3.66l-3.32-1.66-4-2.22L24.83,7.05,22.42,5.12l-.59,4.19.42,5.42,3.25,8.15-3.93,3.55-6,4.47-3.93,3.31v58.1a13.91,13.91,0,0,0,15.19,13.91l.31,0A49.09,49.09,0,0,0,45,100.69l5.55-10.42S55.3,85.1,60.42,83s17.13-5.58,17.13-5.58l26-34Z"/><path class="cls-2" d="M100.7,36.82a9,9,0,0,1-5.53,8.64c-6,2.6-10.89,3.65-15.44,6.69s-7.1,7-9.14,10.41S70.93,77,70.93,77l12.6,1.16c3.64,1.11,13.71,5.38,23.55,4.68s20.26-13.15,22.34-16.29S136,52.93,136,52.93l2.46-8,.38-2.26-4.05-8.06Z"/><path class="cls-3" d="M132,35.19s5.91-1,7-.79,1.79,2,1.79,2l-1.05,5.18-1.57,1.69-2.58-1.88-1.65-2-1.22-2.2Z"/><path class="cls-4" d="M67.63,26.11s-2.41,4.57-2.31,6.08,1.29,6.28,4,8.2h3.3l2.85.4L78.94,42l4.51-1.59,2.85-2.21,2.18-3.06-5-.75-.47-.85L76.9,30.7l-4-1.93-2-1Z"/><polygon class="cls-5" points="70.93 30.4 69.91 32.19 70.64 35.27 72.48 37.03 75.48 37.92 78.94 37.82 81.6 36.99 84.03 35.27 84.62 34.21 72.93 28.77 70.93 30.4"/><path class="cls-4" d="M71.07,31a8.31,8.31,0,0,0,1.57,1.38c.23.18.57-.15.33-.34a8.87,8.87,0,0,0-1.67-1.27c-.14-.06-.35.09-.23.23Z"/><path class="cls-4" d="M71.77,31.05c-.66.81.15,2.05,1,2.36a1.94,1.94,0,0,0,2.56-1.47,2.13,2.13,0,0,0-1.47-2.43A2,2,0,0,0,71.43,31c0,.37.45.4.63.17.39-.51.71-1,1.43-.93a1.39,1.39,0,0,1,1.3,1.44A1.36,1.36,0,0,1,73,32.81c-.8-.28-.79-1-1-1.7a.14.14,0,0,0-.23-.06Z"/><path class="cls-4" d="M72.05,30.31a2.33,2.33,0,0,0,.72,1.74c.39.39,1.12.89,1.67.57a.3.3,0,0,0,.06-.47c-.29-.34-.82-.37-1.17-.66a2.57,2.57,0,0,1-.76-1.25.27.27,0,0,0-.52.07Z"/><path class="cls-4" d="M73.26,30.29c.31.53.76,1,1,1.51s.26,1.21.71,1.44a.21.21,0,0,0,.27,0c.42-.48-.08-1.32-.34-1.78A3,3,0,0,0,73.46,30a.18.18,0,0,0-.2.27Z"/><path class="cls-4" d="M72.17,30.23a1.41,1.41,0,0,0-1.5,1.1.36.36,0,0,0,.34.44.94.94,0,0,0,.46-.13.2.2,0,0,0,0-.36,1.09,1.09,0,0,0-.51-.21l.34.35a.94.94,0,0,1,.82-.87c.2,0,.21-.32,0-.32Z"/><path class="cls-4" d="M70.75,31.1a2.84,2.84,0,0,0,1.51,1.74c.53.27,1.62.6,2.09.11a.27.27,0,0,0,0-.37,1.09,1.09,0,0,0-.65-.32,7,7,0,0,1-1-.4c-.59-.29-1.12-.65-1.67-1a.2.2,0,0,0-.3.23Z"/><path class="cls-4" d="M73,30.21c-.85,1.14.43,2.79,1.7,2.62a.68.68,0,0,0,.3-1.14c-.28-.26-.64-.39-.92-.65a4.22,4.22,0,0,1-.7-.83.22.22,0,0,0-.38,0Z"/><path class="cls-4" d="M71.49,31.29a2,2,0,0,0,2.44,1.15c.49-.23.2-.9-.25-.94s-.62.08-.94,0a1.42,1.42,0,0,1-.9-.51c-.17-.2-.46.06-.35.27Z"/><path class="cls-4" d="M74,30.71a1.86,1.86,0,0,1,.52,1.18,1.3,1.3,0,0,1-.43,1c-.51.49.23,1.19.75.76a2.11,2.11,0,0,0,.78-2c-.15-.81-.72-1.14-1.45-1.36-.26-.08-.36.27-.17.42Z"/><path class="cls-4" d="M80.27,36.94c.06-.72-.38-1.42-.26-2.13a.82.82,0,0,1,1.34-.62c.87.48,1.41,1.1,2.48,1,.68-.1.52-1.24-.16-1.2s-1.31-.67-2-1a1.94,1.94,0,0,0-2,0,2.7,2.7,0,0,0,0,4.19c.2.16.45-.06.46-.26Z"/><path class="cls-4" d="M83.58,34.56c-1.07.44-2.09,1-3.16,1.41a.51.51,0,1,0,.39.93,8.83,8.83,0,0,0,3-2c.13-.14,0-.44-.21-.36Z"/><path class="cls-4" d="M81.08,36.37a2.13,2.13,0,0,1-.07-1c0-.17,0,0-.06,0,.13.08.22.23.34.32a1,1,0,0,0,1.55-.25.7.7,0,0,0-1-1c-.5.24-1.22.37-1.51.87a.5.5,0,0,0,.29.74c.54.18,1.23-.2,1.76-.34l-.68-1.16.36,0L82,34.46a.73.73,0,0,0-.18-.17,1.2,1.2,0,0,0-.52-.28,1.27,1.27,0,0,0-1.17.33,1.71,1.71,0,0,0,0,2.4.48.48,0,0,0,.88-.37Z"/><path class="cls-4" d="M79.24,36.92a5.36,5.36,0,0,0,.28.53.35.35,0,0,0,.55.07,2.48,2.48,0,0,0,.33-.45.26.26,0,0,0-.36-.36,2.39,2.39,0,0,0-.47.31h.5c-.17-.14-.36-.27-.54-.39s-.38.12-.29.29Z"/><path class="cls-4" d="M75.42,37.06A3.44,3.44,0,0,1,76,35c.09-.13-.1-.28-.22-.17a2.62,2.62,0,0,0-.65,2.26c0,.14.26.11.25,0Z"/><path class="cls-4" d="M75.31,37.6a4.94,4.94,0,0,1,1-2.26c.15-.17,0-.47-.25-.33a2.37,2.37,0,0,0-1,2.59.14.14,0,0,0,.26,0Z"/><path class="cls-4" d="M135.77,36.21a4,4,0,0,1,.41.14c.25.06.52,0,.77.09a3.82,3.82,0,0,1,1.44.47A.64.64,0,0,0,139,35.8a3.54,3.54,0,0,0-1.92-.6,2.7,2.7,0,0,0-.89.17c-.29.12-.35.28-.56.49a.21.21,0,0,0,.1.35Z"/><path class="cls-4" d="M82,25.37C86.17,27,92.5,26.83,95,31.05c.21.37.9.24.85-.23-.21-2.09-2-3.29-3.84-3.95a41.88,41.88,0,0,0-9.92-2c-.3,0-.31.4-.07.49Z"/><path class="cls-4" d="M69.67,21.43a9.28,9.28,0,0,0,3.13-.77.26.26,0,0,0-.13-.48,9.09,9.09,0,0,0-3.06.78c-.23.09-.23.5.06.47Z"/><path class="cls-4" d="M59.57,21.29a11.62,11.62,0,0,0,2.69-1.07.18.18,0,0,0-.14-.33A11.12,11.12,0,0,0,59.5,21.1a.1.1,0,0,0,.07.19Z"/><path class="cls-4" d="M54.48,22.17a11,11,0,0,0,2.71-1.7c.16-.14,0-.35-.21-.27A11.18,11.18,0,0,0,54.34,22c-.1.09,0,.23.14.18Z"/><path class="cls-4" d="M47.67,26.25a5.76,5.76,0,0,0-2.47.9c-.14.1-.11.37.1.35a5.64,5.64,0,0,0,2.47-.9c.14-.09.11-.37-.1-.35Z"/><path class="cls-4" d="M46.26,28.81a3.82,3.82,0,0,0-2.42,1.38.24.24,0,0,0,.33.33,8.92,8.92,0,0,0,1-.81,8.65,8.65,0,0,1,1.14-.66c.14-.07,0-.26-.1-.24Z"/><path class="cls-4" d="M45.07,32c-.41.19-.8.38-1.19.59a3.57,3.57,0,0,0-1,.65.23.23,0,0,0,.22.38,3.57,3.57,0,0,0,1-.57c.38-.24.74-.49,1.1-.75a.17.17,0,0,0-.17-.3Z"/><path class="cls-4" d="M44.33,34.36c-.28.53-.51,1.08-.75,1.63a3.35,3.35,0,0,0-.47,1.46.34.34,0,0,0,.57.23,3.33,3.33,0,0,0,.58-1.41c.16-.58.33-1.15.45-1.74,0-.23-.27-.39-.38-.17Z"/><path class="cls-4" d="M44.47,46a11.33,11.33,0,0,0-6.74.73c-.89.33-.49,1.76.39,1.42,2.06-.8,4.24-1.16,6.35-1.78a.19.19,0,0,0,0-.37Z"/><path class="cls-4" d="M37,47.6c.47-.09,1.14-.09,1.47-.47a.24.24,0,0,0-.1-.4c-.49-.16-1.06.19-1.51.35a.27.27,0,0,0,.14.52Z"/><path class="cls-4" d="M29.86,58.51c-1.18,1.13-2.18,2.5-3.25,3.74-.78.89-1.94,1.9-2,3.13a.4.4,0,0,0,.51.39c1.18-.45,1.78-1.8,2.43-2.83.88-1.38,1.93-2.72,2.67-4.18a.21.21,0,0,0-.32-.25Z"/><path class="cls-4" d="M32.63,68.73c-3.36,2-5.73,6.53-7,10-.26.7.82,1,1.1.31a38.8,38.8,0,0,1,2.84-5.56c1-1.6,2.35-3,3.26-4.63a.12.12,0,0,0-.16-.16Z"/><path class="cls-4" d="M34.1,77a24.6,24.6,0,0,0-1.18,4.44c-.44,1.72-.78,3.47-1.13,5.21-.13.66.89.94,1,.28.29-1.54.61-3.08.83-4.64a27.38,27.38,0,0,0,.63-5.24c0-.08-.12-.13-.16,0Z"/><path class="cls-4" d="M37.85,84.15c-.35.63-.1,1.45-.13,2.17a12.38,12.38,0,0,1-.6,3.13c-.17.54.66.75.85.23a9.49,9.49,0,0,0,.56-3.17c0-.74.06-1.87-.55-2.38a.09.09,0,0,0-.13,0Z"/><path class="cls-4" d="M39.8,57.29c-.83.07-1.95.87-1.95,1.77a.31.31,0,0,0,.46.26,3.7,3.7,0,0,0,.8-.78c.28-.29.61-.49.9-.76a.29.29,0,0,0-.21-.49Z"/><path class="cls-4" d="M41.2,64.24a2.72,2.72,0,0,0-1.28,1.27c-.28.5-.61,1.18-.31,1.73a.36.36,0,0,0,.56.08c.35-.35.37-.9.57-1.33s.59-.83.83-1.27c.12-.23-.09-.58-.37-.48Z"/><path class="cls-4" d="M44.17,68.28a.8.8,0,0,0-.7.37.49.49,0,0,0,.11.72.21.21,0,0,0,.29-.08c.13-.26,0-.67.32-.81.1,0,.1-.2,0-.2Z"/><path class="cls-4" d="M44.46,69.35c-.84.73-1.48,2.85-.91,3.86a.29.29,0,0,0,.52-.07,10.51,10.51,0,0,0,.12-1.78c.09-.65.39-1.24.49-1.88a.13.13,0,0,0-.22-.13Z"/><path class="cls-4" d="M48.77,73.83a1.17,1.17,0,0,0-.63,1.11.28.28,0,0,0,.48.2,1.19,1.19,0,0,0,.27-1.26.11.11,0,0,0-.12,0Z"/><path class="cls-4" d="M53.87,54.6c-.31-.27-.75,0-1.09.1s-1,.23-1.3.65a.35.35,0,0,0,.21.51c.59.09,1.13-.34,1.64-.6.11-.06.81-.41.54-.66Z"/><path class="cls-4" d="M51.92,56a2.53,2.53,0,0,0-1.78.82.32.32,0,0,0,.28.48c.59,0,1.26-.68,1.59-1.15a.1.1,0,0,0-.09-.15Z"/><path class="cls-4" d="M51.34,57.43c-.42.22-.85.78-.63,1.26a.24.24,0,0,0,.38,0,.63.63,0,0,0,.19-.41,4.37,4.37,0,0,1,.27-.68.15.15,0,0,0-.21-.21Z"/><path class="cls-4" d="M65.81,43.68c2.09.29,4.2-.36,6.31-.4A14.62,14.62,0,0,1,79.48,45a.29.29,0,0,0,.34-.45c-3-3.67-10.25-3.94-14.11-1.65-.3.17-.3.75.1.81Z"/><path class="cls-4" d="M97.88,77.93c4.38,1.81,10.41-.1,14.51-1.86A26.69,26.69,0,0,0,124,67c.33-.47-.38-1-.78-.6a38,38,0,0,1-12.09,8.38,32,32,0,0,1-6.21,1.82c-2.32.43-4.77.4-7,1.07a.16.16,0,0,0,0,.31Z"/><path class="cls-4" d="M103.3,56.31c4.81.52,9.81.11,14.63-.2,4.58-.3,9.17-.72,13.7-1.4.42-.06.33-.79-.1-.74-4.69.55-9.37,1.08-14.08,1.4s-9.47.18-14.15.65a.15.15,0,0,0,0,.29Z"/><path class="cls-4" d="M23.65,7c.07,2.27,2.15,3.63,4,4.52,2.82,1.36,5.69,2.18,8.39,3.82.51.31,1.22-.33.85-.85-1.32-1.87-3.46-2.62-5.55-3.36a24.8,24.8,0,0,1-3.8-1.5,23.45,23.45,0,0,1-3.48-2.8.25.25,0,0,0-.43.17Z"/><path class="cls-4" d="M24.45,16c.3,4.83,3.6,10.9,7.38,13.87.23.19.62,0,.44-.34-1.37-2.23-3.06-4.21-4.34-6.51S25.87,18.27,24.67,16a.12.12,0,0,0-.22,0Z"/><path class="cls-4" d="M39.06,6.81c0-.16,0-.33,0-.5a0,0,0,0,0,0,0c0,.17,0,.34,0,.5s0,0,0,0Z"/><path class="cls-4" d="M38.73,5.11c-1.7,3.42,2,8.85,5.82,8.57a.5.5,0,0,0,.25-.93c-1.35-.87-2.76-1.32-3.83-2.6-1.21-1.46-1.44-3.26-2-5,0-.11-.22-.15-.27,0Z"/><path class="cls-4" d="M36.2,8.63a4.19,4.19,0,0,0-.63,3.12c.07.2.4.24.45,0a10.8,10.8,0,0,0,.08-1.39,7,7,0,0,1,.31-1.64c0-.12-.15-.2-.21-.09Z"/><path class="cls-4" d="M13.23,33.76c2.21-.63,4.12-2.78,5.85-4.21,2-1.63,4.64-3.15,6.08-5.3a.52.52,0,0,0-.58-.75c-2.37.84-4.4,3.06-6.26,4.7s-4.26,3.26-5.11,5.54l0,0Z"/><path class="cls-6" d="M80.42,42.28a10.75,10.75,0,0,0,9.14-6.53c.24-.62-.74-1-1.07-.45a13.52,13.52,0,0,1-8.12,6.58.21.21,0,0,0,0,.4Z"/><path class="cls-6" d="M67.12,26.45c-4.94,3.18-3.44,10.73.34,14.09.69.61,1.71-.39,1-1a9,9,0,0,1-3.22-6.43c-.09-2.46,1-4.3,2.09-6.42.06-.14-.08-.32-.23-.23Z"/><path class="cls-6" d="M109,37.65a10.83,10.83,0,0,0,.91.88,1.17,1.17,0,0,0,.94.45c.2,0,.45-.18.42-.43a1.09,1.09,0,0,0-.59-.86,8.52,8.52,0,0,0-1.13-.75.46.46,0,0,0-.55.71Z"/><path class="cls-6" d="M111.89,36.69c0,.34.24.72.41,1a6.44,6.44,0,0,0,.67,1.14.56.56,0,0,0,.56.15l.14-.06a.57.57,0,0,0,.29-.5,2.46,2.46,0,0,0-1.07-1.64c-.18-.12-1-.51-1-.08Z"/><path class="cls-6" d="M114.81,36.83a10,10,0,0,1,.88,1.43c.15.32.51.74.87.39s0-1-.24-1.31a2.55,2.55,0,0,0-1.2-.92.28.28,0,0,0-.31.41Z"/><path class="cls-6" d="M116.3,36.76a9.34,9.34,0,0,1,1,.83c.3.29.52.68,1,.78a.45.45,0,0,0,.56-.43c0-1-1.59-1.67-2.43-1.67a.26.26,0,0,0-.13.49Z"/><path class="cls-6" d="M118.86,36.66a3.62,3.62,0,0,0,1.06,1.11c.43.32.84.67,1.4.54a.45.45,0,0,0,.3-.54c-.12-.54-.66-.77-1.11-1a3.67,3.67,0,0,0-1.45-.46.23.23,0,0,0-.2.35Z"/><path class="cls-6" d="M122.19,36.36a4.57,4.57,0,0,0,.82,1.17,2.35,2.35,0,0,0,1.15.89.49.49,0,0,0,.6-.6,2.23,2.23,0,0,0-.8-1.09,4.29,4.29,0,0,0-1.13-.86c-.3-.13-.8.1-.64.49Z"/><path class="cls-6" d="M128.23,36.86a2.09,2.09,0,0,0,.62,1.56.43.43,0,0,0,.63-.37c0-.59-.49-1-.87-1.41-.17-.18-.41,0-.38.22Z"/><path class="cls-6" d="M133.12,39.32c-.87.62.42,2.5.84,3A8.13,8.13,0,0,0,137.53,45a.7.7,0,0,0,.79-.32.61.61,0,0,0,.09-.35.71.71,0,0,0-.51-.67,7.07,7.07,0,0,1-3.26-2.55c-.18-.25-1-2.08-1.52-1.74Z"/><path class="cls-6" d="M86.31,60.19a8.54,8.54,0,0,0,2.22,5.37.54.54,0,0,0,.75,0c1.5-1.72,3-3.43,4.5-5.17h-.72a13.54,13.54,0,0,0,3.64,2.54.63.63,0,0,0,.91-.37A5.72,5.72,0,0,1,99.22,60c.53-.52-.27-1.3-.82-.81a6.52,6.52,0,0,0-2,3.06l.91-.38a14.25,14.25,0,0,1-3.55-2.18.51.51,0,0,0-.72,0c-1.53,1.7-3,3.43-4.53,5.15h.75a11.86,11.86,0,0,1-2.51-4.69c-.08-.25-.48-.21-.46.06Z"/><path class="cls-6" d="M98.88,59.87c5.44.8,11.41-.39,16.87-.83,5.93-.48,11.88-.89,17.8-1.46.72-.08.75-1.2,0-1.15-5.94.33-11.87.84-17.8,1.27-5.47.4-11.6.12-16.87,1.76-.18.06-.22.37,0,.41Z"/><path class="cls-6" d="M94.45,81.75c3.93,2.15,10,1.49,14.19.52,4.38-1,10.13-3.27,13.08-6.79a.27.27,0,0,0-.33-.43c-2,1-3.73,2.46-5.78,3.4a31.86,31.86,0,0,1-7,2.19,34.26,34.26,0,0,1-6.85.72c-2.36,0-4.71-.64-7-.54a.5.5,0,0,0-.25.93Z"/><path class="cls-6" d="M46.36,81.28c-.4.58-.31.72-.12,1.43a.71.71,0,0,0,1.17.31,14.86,14.86,0,0,1,5.2-3c1.45-.5,3.18-.62,4.47-1.47a.54.54,0,0,0-.27-1c-1.86-.2-4.1.79-5.81,1.49A13.93,13.93,0,0,0,46.42,82l1.1.15c-.34-.62-.41-.8-1.08-.93a.07.07,0,0,0-.08,0Z"/><path class="cls-6" d="M37.44,91.42A50.6,50.6,0,0,1,41.21,87a16.85,16.85,0,0,1,2.45-1.92,10.29,10.29,0,0,0,2.23-1.48.51.51,0,0,0-.36-.86c-1.86.07-3.81,1.88-5.12,3.11A11.73,11.73,0,0,0,37,91.15c-.07.26.29.5.48.27Z"/><path class="cls-6" d="M45,83.06a2.46,2.46,0,0,0,1.88,1.78c.87.28,1.26-1.14.38-1.37-.65-.17-1.19-.59-1.82-.74-.2,0-.47.1-.44.33Z"/><path class="cls-6" d="M46.92,84.86c4.79-1.32,9.14-3.82,14-5a74.93,74.93,0,0,1,15.5-2,.32.32,0,0,0,0-.63,46,46,0,0,0-15.94,1c-4.65,1.11-10.31,2.67-14,5.92a.41.41,0,0,0,.39.67Z"/><path class="cls-6" d="M31.51,88.61c1.16-.6,2.08-1.6,3.17-2.31s2.47-1,3.19-1.84a.41.41,0,0,0-.18-.68c-1.27-.25-2.81.86-3.8,1.56a6.66,6.66,0,0,0-2.71,3c-.07.19.16.34.33.25Z"/><path class="cls-6" d="M25.33,81.48c1.29-.48,2.44-1.26,3.69-1.83s2.91-.8,4.23-1.48c.6-.31.25-1.11-.32-1.16a9.46,9.46,0,0,0-4.45,1.23,8.89,8.89,0,0,0-3.6,2.65.4.4,0,0,0,.45.59Z"/><path class="cls-6" d="M22.73,68.3c1.85-.44,3.67-1,5.54-1.32s3.76-.29,5.63-.59c.37-.06.35-.67,0-.74a17.79,17.79,0,0,0-11.37,2.17.26.26,0,0,0,.2.48Z"/><path class="cls-6" d="M34.46,48.16a17.18,17.18,0,0,0,2.64,1.69c.73.51,1.47,1.69,2.4,1.72A.48.48,0,0,0,40,51.1c.11-1-1.42-1.94-2.18-2.44a4.52,4.52,0,0,0-3.2-1,.3.3,0,0,0-.13.49Z"/><path class="cls-6" d="M42.48,42.11c-4.09-1.81-7.54-3.21-10.6-6.67s-5-7.53-7-11.62c-.29-.59-1.32-.17-1.08.45,1.8,4.59,4,9.35,7.37,13,2.71,2.91,7,6,11.23,5.36a.29.29,0,0,0,.07-.52Z"/><path class="cls-6" d="M24.9,24.68a7.66,7.66,0,0,0,.49,2.41,4.79,4.79,0,0,0,1.05,2,.24.24,0,0,0,.4-.23A11.87,11.87,0,0,0,26,26.76c-.27-.7-.47-1.43-.73-2.13-.08-.19-.39-.18-.38.05Z"/><path class="cls-6" d="M24.81,24a8.33,8.33,0,0,0,.54,1.44c.17.42.29.94.69,1.19.17.11.33,0,.35-.2.06-.45-.29-.92-.49-1.31a8.13,8.13,0,0,0-.76-1.31c-.13-.16-.36,0-.33.19Z"/><path class="cls-6" d="M47.47,27.51a3.65,3.65,0,0,0-1.36-.2,2.43,2.43,0,0,0-1.39.16.4.4,0,0,0,0,.69,2.52,2.52,0,0,0,1.39.16,3.66,3.66,0,0,0,1.36-.21.35.35,0,0,0,0-.6Z"/><path class="cls-6" d="M45.67,30.79a10.53,10.53,0,0,0-1.59,0,2.48,2.48,0,0,0-1.27.26.21.21,0,0,0,0,.38,2.41,2.41,0,0,0,1.3-.07A10.41,10.41,0,0,0,45.7,31a.12.12,0,0,0,0-.23Z"/><path class="cls-6" d="M44.12,34.19a2,2,0,0,0-2.4.51c-.1.16.07.42.26.34s.61-.34.94-.46a3.89,3.89,0,0,1,1.13-.14c.13,0,.19-.19.07-.25Z"/><path class="cls-7" d="M47.83,24.74c-5-3-11-4.83-16.4-7-.87-.35-1.26,1.07-.39,1.41,5.35,2.12,10.92,4.93,16.53,6.18a.33.33,0,0,0,.26-.6Z"/><path class="cls-7" d="M31,18.69c-.81,7,4.61,15,9.87,19.12.56.44,1.38-.31.81-.81a30.53,30.53,0,0,1-6.81-8.24c-1.8-3.28-2.33-6.66-3.51-10.12a.18.18,0,0,0-.36.05Z"/><path class="cls-7" d="M41.72,37.93a4.72,4.72,0,0,0,1.18-1.37l1.3-1.82c.17-.23-.06-.52-.3-.53l-1.81-.05a5.13,5.13,0,0,0-1.66.07.45.45,0,0,0,0,.86,4.87,4.87,0,0,0,1.66,0l1.81-.16-.3-.52c-.4.57-.79,1.15-1.19,1.73a5.1,5.1,0,0,0-.93,1.63.16.16,0,0,0,.24.18Z"/><path class="cls-7" d="M40.87,34.76a18,18,0,0,1,2.23-2.13A21,21,0,0,1,45.75,31a.4.4,0,0,0-.31-.73,9.54,9.54,0,0,0-5,4.13c-.16.26.22.57.43.33Z"/><path class="cls-7" d="M45.54,30.4a16.57,16.57,0,0,0-2.63.22c-.77.14-1.71.11-2.27.7a.37.37,0,0,0,.16.61c.74.29,1.63-.14,2.37-.36a17.43,17.43,0,0,0,2.44-.91c.14-.05.07-.27-.07-.26Z"/><path class="cls-7" d="M40.83,31.65c1-.59,1.77-1.44,2.7-2.09s2-1.18,3-1.79c.3-.19.1-.74-.26-.6a12,12,0,0,0-5.6,4.28.15.15,0,0,0,.2.2Z"/><path class="cls-7" d="M46.41,27.38a4.79,4.79,0,0,0-3.53-.55.63.63,0,0,0,.17,1.23c1.07-.08,2.18-.14,3.24-.26a.23.23,0,0,0,.12-.42Z"/><path class="cls-7" d="M43.57,27.46a5.24,5.24,0,0,1,1.83-1.25c.51-.21,1.28-.14,1.58-.65a.35.35,0,0,0-.06-.42c-.49-.55-1.55,0-2.1.22A4.9,4.9,0,0,0,42.93,27c-.27.38.32.82.64.49Z"/><path class="cls-7" d="M46.86,24.92c-2.47-1-5.08-1.6-7.59-2.5s-4.86-2.49-7.38-3a.7.7,0,0,0-.68,1.16C33,22.39,36,23.32,38.35,24.1a22.49,22.49,0,0,0,8.42,1.48.34.34,0,0,0,.09-.66Z"/><path class="cls-7" d="M34.65,21a10.86,10.86,0,0,0,3.19,1.65,38.58,38.58,0,0,0,4.28,1.59c.68.18,1.16-.85.49-1.17a35.82,35.82,0,0,0-3.9-1.46,12.14,12.14,0,0,0-3.91-1,.21.21,0,0,0-.15.36Z"/><path class="cls-7" d="M43.62,25.25C41.75,24.52,39.85,24,38,23.39s-3.6-1.74-5.49-2.25a.77.77,0,0,0-.75,1.27c2.79,2.65,8.09,4,11.81,3.47a.32.32,0,0,0,.09-.63Z"/><path class="cls-7" d="M43.72,25.88c-2,.69-4.38-.87-6.1-1.68a23.69,23.69,0,0,0-5-2.1c-.62-.12-1.3.71-.69,1.19a29,29,0,0,0,7.19,3.5c1.9.72,3.23.73,4.73-.67.09-.1,0-.29-.14-.24Z"/><path class="cls-7" d="M43.7,28.23c-1.18-1.3-3-1.8-4.6-2.42S35.36,24,33.5,24.1a.61.61,0,0,0-.42,1c1.22,1.23,3.21,1.63,4.82,2.2,1.77.63,3.69,1.61,5.61,1.37a.27.27,0,0,0,.19-.46Z"/><path class="cls-7" d="M44.71,25.06a1.6,1.6,0,0,0-1.18,0c-.47.12-.94.22-1.41.33a.86.86,0,0,0-.6.6l0,.11a.7.7,0,0,0,.32.78l.1.07a.88.88,0,0,0,.86,0l1.26-.7a1.5,1.5,0,0,0,.85-.77.38.38,0,0,0-.17-.42Z"/><path class="cls-7" d="M44.16,27.76a5.73,5.73,0,0,0-1.24,0,1.53,1.53,0,0,0-1.06.66.64.64,0,0,0,.38.94,1.54,1.54,0,0,0,1.22-.32,5.64,5.64,0,0,0,.89-.87.27.27,0,0,0-.19-.46Z"/><path class="cls-7" d="M43.05,28.53c-1.54-.48-3.15-.57-4.68-1.12s-2.83-1.69-4.35-2a.67.67,0,0,0-.75,1c.91,1.41,2.82,2.09,4.37,2.6a9.93,9.93,0,0,0,5.41.56.5.5,0,0,0,0-1Z"/><path class="cls-7" d="M41.62,30.17c-.92-.76-2.25-.94-3.33-1.39S36,27.1,34.72,27a.67.67,0,0,0-.64.84c.36,1.33,2.15,2.05,3.33,2.52s2.94,1,4.15.27a.29.29,0,0,0,.06-.44Z"/><path class="cls-7" d="M36.07,28.67a7.11,7.11,0,0,0,3.5,1.65c1.1.23,2.41.51,3.34-.21a.5.5,0,0,0-.1-.78c-.87-.52-2.08-.27-3.08-.41s-2.23-.56-3.36-.77a.31.31,0,0,0-.3.52Z"/><path class="cls-7" d="M41.58,30.33c-1.94.71-3.27-.2-5-.88-1-.39-1.4,1.05-.67,1.59a5.21,5.21,0,0,0,3.94,1.08,2.07,2.07,0,0,0,1.79-1.78s0,0,0,0Z"/><path class="cls-7" d="M35.37,30.24c1.45,1.51,2.88,3,4.35,4.52.75.75,1.93-.43,1.17-1.16-1.51-1.46-3.06-2.86-4.6-4.28a.65.65,0,0,0-.92.92Z"/><path class="cls-7" d="M41.87,36.1a13,13,0,0,0-1.68-2.29,8.39,8.39,0,0,0-2-2.09c-.77-.47-1.51.43-1.16,1.16A8.86,8.86,0,0,0,39,35a12.91,12.91,0,0,0,2.12,1.86c.52.33,1-.3.79-.79Z"/><path class="cls-7" d="M40.4,33.46a10.14,10.14,0,0,1,2-.76.81.81,0,0,0,0-1.54,2.84,2.84,0,0,0-2,.09,1.67,1.67,0,0,0-1,1.65,1.37,1.37,0,0,0,1.2,1.19c.63.08,1.46-.29,1.39-1a.8.8,0,0,0-1-.76,1,1,0,0,0-.27.1c-.35.21,0,0,.1,0a.3.3,0,0,1,.15.07l.11.29a.09.09,0,0,1,0-.06c.06,0,.24-.06.34-.06a4.78,4.78,0,0,1,.74.08L42,31.16a4.13,4.13,0,0,0-2.25,1.63c-.27.46.25.85.67.67Z"/><path class="cls-7" d="M41.59,34.84c-.37.28-.35.89-.4,1.31-.09.81,1,.94,1.41.38.26-.38.48-.78.72-1.18.43-.72-.64-1.6-1.2-.92a1.49,1.49,0,0,0-.36.65.65.65,0,0,0,.8.8,1.58,1.58,0,0,0,.64-.37L42,34.58c-.24.4-.49.79-.7,1.19l1.38.18c-.12-.41-.21-1-.63-1.17a.39.39,0,0,0-.46.06Z"/><path class="cls-8" d="M30.3,19c1.86,1.91,5.33,2.59,7.8,3.42,3.18,1.07,6.38,2.13,9.55,3.22.46.15.78-.59.33-.79-3.07-1.33-6.13-2.7-9.2-4.05-2.4-1.06-5.44-2.9-8.09-2.74a.56.56,0,0,0-.39.94Z"/><path class="cls-8" d="M40.91,22.26c.59.26,1.19.47,1.78.71a9.29,9.29,0,0,0,1.89.83c.3,0,.66-.26.44-.58a3.63,3.63,0,0,0-1.72-1.07,5.42,5.42,0,0,0-2.24-.43c-.26,0-.43.42-.15.54Z"/><path class="cls-8" d="M30.54,17.86c.22.34.4.71.82.81a.24.24,0,0,0,.3-.23c0-.44-.34-.66-.65-.94s-.66.06-.47.36Z"/><path class="cls-4" d="M32.8,24.17a19.65,19.65,0,0,0,6.25,10.4c.18.15.48,0,.35-.27-1-1.73-2.22-3.33-3.25-5s-1.76-3.6-2.79-5.31a.31.31,0,0,0-.56.23Z"/><path class="cls-4" d="M73.67,35.78a1,1,0,0,0,.25,0c.1,0,.1-.13,0-.15l-.25,0c-.12,0-.12.2,0,.19Z"/><path class="cls-4" d="M104.53,37.72c.76.12,1.53.11,2.29.25a9,9,0,0,0,2.15.44.33.33,0,0,0,.23-.56c-1-1.15-3.53-1.05-4.69-.32-.07,0-.07.18,0,.19Z"/><path class="cls-4" d="M110.7,37.07a9.28,9.28,0,0,1,.64.87c.17.27.27.59.57.74a.28.28,0,0,0,.4-.17c.22-.7-.7-1.52-1.26-1.79-.2-.1-.52.12-.35.35Z"/><path class="cls-4" d="M113.77,36.81c0,.59.41,1.75,1.15,1.66a.28.28,0,0,0,.27-.36c0-.28-.26-.41-.44-.61a2.91,2.91,0,0,1-.47-.82c-.12-.26-.51-.12-.51.13Z"/><path class="cls-4" d="M115.71,36.82a7.15,7.15,0,0,0,.9,1c.29.28.53.6,1,.61a.28.28,0,0,0,.27-.34c-.07-.41-.46-.62-.76-.87a7,7,0,0,0-1-.73c-.18-.1-.45.12-.31.32Z"/><path class="cls-4" d="M118,36.59a4.11,4.11,0,0,0,1.75,1.73c.24.07.53-.19.43-.44a4.1,4.1,0,0,0-1.79-1.68c-.23-.15-.56.16-.39.39Z"/><path class="cls-4" d="M121.14,36.66c.17.64.87,1.73,1.57,1.84a.33.33,0,0,0,.41-.31c0-.78-1-1.58-1.66-1.86-.19-.08-.37.15-.32.33Z"/><path class="cls-4" d="M123.67,36.78a33.39,33.39,0,0,0,4.24.25,11.14,11.14,0,0,0,3.74-.29.4.4,0,0,0,0-.76,11.89,11.89,0,0,0-4-.15,31.49,31.49,0,0,0-4,.41c-.34,0-.21.51.07.54Z"/><path class="cls-6" d="M53.88,58a4.9,4.9,0,0,1-2,1.1c-.67.18-1.39-.08-2,.15a.49.49,0,0,0-.11.89c.68.53,1.9.15,2.63-.13a4,4,0,0,0,2-1.6c.23-.33-.25-.64-.53-.41Z"/><path class="cls-6" d="M43.62,65.17a11.14,11.14,0,0,0-2.25,1.4c-.74.53-1.5,1-2.21,1.61-.31.25.1.77.43.55.77-.52,1.5-1.11,2.25-1.68a10.46,10.46,0,0,0,1.92-1.66c.07-.09,0-.28-.14-.22Z"/><path class="cls-6" d="M46.69,71c-.58.43-1.12.9-1.66,1.37a11,11,0,0,0-1.58,1.47c-.19.24.17.53.4.4A10.8,10.8,0,0,0,45.4,72.9c.54-.49,1.09-1,1.59-1.51.19-.2-.06-.58-.3-.4Z"/><path class="cls-6" d="M53.17,73.45a7.37,7.37,0,0,0-2.77,1,10.76,10.76,0,0,0-2.82,1.75c-.2.19,0,.6.29.49a23.67,23.67,0,0,0,2.72-1.54,12.92,12.92,0,0,0,2.65-1.54.1.1,0,0,0-.07-.18Z"/><path class="cls-6" d="M39.23,51.06a1.4,1.4,0,0,0,.76.68.17.17,0,0,0,.2-.21,1.42,1.42,0,0,0-.68-.75.21.21,0,0,0-.28.28Z"/><path class="cls-6" d="M39.15,51.92a2.84,2.84,0,0,0,.77.15.11.11,0,0,0,0-.22,2.93,2.93,0,0,0-.78-.1.09.09,0,0,0,0,.17Z"/><path class="cls-6" d="M64.93,42.63a28,28,0,0,1,8.58-1,28.06,28.06,0,0,1,8.27,2.4c.24.09.35-.27.16-.4-4.62-3.15-12.08-3.78-17.12-1.3-.16.08,0,.31.11.28Z"/><path class="cls-6" d="M53,39.88a2.25,2.25,0,0,0-1.53,1.32.22.22,0,0,0,.24.31l.45-.08-.25-.25a5.53,5.53,0,0,0-.37,1.26c0,.14.18.16.24.06a5.39,5.39,0,0,0,.52-1.21c.06-.17-.11-.27-.25-.25l-.45.06.26.26a2.11,2.11,0,0,1,1.22-1.16.17.17,0,0,0-.08-.32Z"/><path class="cls-6" d="M65.07,57.21a11.91,11.91,0,0,0-1.14,1.53.14.14,0,0,0,.21.17,12.23,12.23,0,0,0,1.15-1.53c.09-.13-.12-.29-.22-.17Z"/><path class="cls-6" d="M60.72,67.78a.94.94,0,0,0-.78.74.25.25,0,0,0,.24.31,2.75,2.75,0,0,0,.76,0,.21.21,0,0,0,.05-.42,2.73,2.73,0,0,0-.81-.11l.24.31a1.1,1.1,0,0,1,.4-.62.14.14,0,0,0-.1-.25Z"/><path class="cls-6" d="M75.85,50.31a12,12,0,0,0-3.67,3.47.21.21,0,0,0,.33.26c.59-.51,1.08-1.15,1.63-1.7a18.9,18.9,0,0,1,1.94-1.64c.23-.17,0-.56-.23-.39Z"/><path class="cls-6" d="M63.29,47.88a3.61,3.61,0,0,0-2.76,1.74c-.1.26.22.41.42.32a8.81,8.81,0,0,0,1.18-.85,12.41,12.41,0,0,1,1.3-.69c.23-.13.14-.55-.14-.52Z"/><path class="cls-6" d="M82.41,70.36c.89.1,1.79.13,2.68.23s1.76.31,2.65.38c.27,0,.41-.43.14-.55A9.34,9.34,0,0,0,82.37,70c-.2,0-.13.31,0,.33Z"/><path class="cls-6" d="M73,29l-.11,0a.11.11,0,0,0,0,.22l.11,0c.26.1.26-.4,0-.31Z"/><path class="cls-6" d="M72.31,30.05c1,.66,2,1,3.06,1.54s2,1.27,3,1.84a11.9,11.9,0,0,0,5.43,1.7c.72,0,.71-1.08,0-1.12-4.17-.21-7.29-5.36-11.42-4.67-.36.06-.34.54-.09.71Z"/><path class="cls-6" d="M80.24,33.29a3.59,3.59,0,0,0,1.56.54c.25,0,.38-.39.13-.5a3.78,3.78,0,0,0-1.63-.26.12.12,0,0,0-.06.22Z"/><path class="cls-6" d="M67.3,27.6a16.57,16.57,0,0,1,3.21,1.29c.81.47,1.56,1.45,2.47,1.62a.36.36,0,0,0,.44-.45c-.2-1-1.65-1.79-2.49-2.24a8.9,8.9,0,0,0-3.5-1.13c-.55-.05-.6.75-.13.91Z"/><path class="cls-6" d="M81.4,33.73c.23.93,1.54,1.3,2.35,1.6,1.07.39,2.51.93,3.64.59a.39.39,0,0,0,.09-.7,14.46,14.46,0,0,0-3.23-.92c-.82-.25-2-1-2.79-.67a.08.08,0,0,0-.06.1Z"/><path class="cls-6" d="M88.79,36c1.75,1,5.11-.3,5.26-2.46a.27.27,0,0,0-.4-.24,17,17,0,0,1-2.08,1.61,8.38,8.38,0,0,1-2.71.59c-.25,0-.25.39-.07.5Z"/><path class="cls-9" d="M51.06,23.35a25.2,25.2,0,0,0,7.61-3.69l-.56-.57a16.2,16.2,0,0,0-.92,1.81c-.09.23.25.41.41.24a14.72,14.72,0,0,0,1.22-1.63c.24-.34-.23-.77-.56-.57-2.38,1.47-5,2.57-7.35,4.07a.19.19,0,0,0,.15.34Z"/><path class="cls-9" d="M57.41,21.76a64.41,64.41,0,0,1,7.13-2.69l-.32-.54A20.59,20.59,0,0,0,61.89,21c-.14.2.14.48.34.34A20.55,20.55,0,0,0,64.68,19a.32.32,0,0,0-.31-.54,22.59,22.59,0,0,0-7,3.14c-.08.06,0,.22.07.17Z"/><path class="cls-9" d="M63.77,21c1.88.29,4-.54,5.73-1.3l-.34-.58a8.7,8.7,0,0,0-1.7,1.3c-.15.16,0,.49.23.4a8.93,8.93,0,0,0,1.81-1.12.34.34,0,0,0-.34-.58,21.53,21.53,0,0,1-2.8,1.07c-.85.25-1.76.38-2.59.71,0,0-.06.1,0,.1Z"/><path class="cls-9" d="M67.68,21.12a32.37,32.37,0,0,0,6.64-1.77l-.38-.49c-.17.28-.33.57-.49.86s.2.52.38.3.43-.5.63-.76a.33.33,0,0,0-.32-.55,32.2,32.2,0,0,0-6.56,2.05.19.19,0,0,0,.1.36Z"/><path class="cls-9" d="M72.89,20.9a4,4,0,0,0,2.41-.32L75,20.11a6.43,6.43,0,0,0-1.69,1.31.19.19,0,0,0,.2.28,6.19,6.19,0,0,0,1.76-1.12.27.27,0,0,0-.27-.47,4.08,4.08,0,0,1-2.1.51c-.16,0-.2.25,0,.28Z"/><path class="cls-9" d="M74.3,21.35c5.74,1.83,11.92,2,17.65,3.8a10.3,10.3,0,0,1,6.42,5.48c1.11,2.26,1.27,4.83,2.33,7.07.11.24.46.1.47-.13.23-4.69-2.76-10.55-7-12.59-2.78-1.33-6-1.68-9-2.24A91.37,91.37,0,0,0,74.35,21c-.21,0-.24.31,0,.37Z"/><path class="cls-9" d="M100.7,37c5.5.51,11.31-.3,16.82-.6s11.24-.46,16.83-1c.52,0,.54-.84,0-.83-5.77.11-11.56.59-17.32.91-5.38.29-11.08.13-16.37,1.21-.16,0-.1.25,0,.27Z"/><path class="cls-9" d="M131.77,35.25a11.59,11.59,0,0,0,3.7,6.77c1.19,1.15,3.42,2.91,4.46.63a19.86,19.86,0,0,0,.93-4.34c.2-1,.73-2.48.12-3.47s-1.69-.92-2.67-.93a9.58,9.58,0,0,0-4.81.75c-.22.12-.1.41.12.44a15,15,0,0,0,2.67-.18c.56-.05,1.12-.07,1.68-.07,1,0,.94-.09,1.62.93s.59.94.4,1.93l-.27,1.37c-.14.69-.14,2.25-.56,2.8a1.46,1.46,0,0,1-2.2.17q-.42-.34-.81-.72a14.9,14.9,0,0,1-1.67-2,33.26,33.26,0,0,1-2.29-4.24c-.1-.19-.45-.11-.42.12Z"/><path class="cls-9" d="M138.67,43.36C137.32,47.59,136,51.8,134.56,56c-.1.27.35.47.47.2a51.51,51.51,0,0,0,4-12.75.19.19,0,0,0-.37-.1Z"/><path class="cls-9" d="M136.72,56.24a0,0,0,0,0,0-.05,0,0,0,0,0,0,.05Z"/><path class="cls-9" d="M134.71,55.85C123,56,111.14,57.4,99.43,58.32c-.56,0-.57.92,0,.88,11.75-.86,23.67-1.28,35.34-2.89.26,0,.2-.46-.06-.46Z"/><path class="cls-9" d="M98.87,58.06A34.16,34.16,0,0,0,96,61.81h.75c-.66-1.07-1.75-2.69-3-3a.33.33,0,0,0-.37.48,5.83,5.83,0,0,0,1.2,1.23A13.21,13.21,0,0,1,96,62.24a.44.44,0,0,0,.75,0,35.24,35.24,0,0,0,2.41-4c.07-.15-.12-.32-.25-.19Z"/><path class="cls-9" d="M93.31,58.91a38.14,38.14,0,0,0-4.65,5.4l.79.21c-.58-1.66-1.16-3.32-1.77-5-.22-.57-1.14-.33-.94.26.58,1.66,1.19,3.31,1.8,5a.48.48,0,0,0,.86.11,38.9,38.9,0,0,0,4.11-5.81.13.13,0,0,0-.2-.16Z"/><path class="cls-9" d="M134.32,56.21A64.2,64.2,0,0,1,128.77,67a41.58,41.58,0,0,1-8.22,8.74A34.83,34.83,0,0,1,108.71,82c-4.9,1.38-9.48.61-14.22-1-8-2.67-15.63-4.79-24.15-4.5-8,.28-16.64,2.16-23.63,6.27-.47.28-.05.93.42.72,8.82-4,17.66-6.4,27.41-6A53.51,53.51,0,0,1,88.46,80c4,1.28,8,3.06,12.18,3.58,8,1,15.81-3.22,21.7-8.23,5.58-4.76,10.89-11.63,12.5-18.92.06-.29-.38-.52-.52-.22Z"/><path class="cls-9" d="M47.45,83.74a10.94,10.94,0,0,1-.78-1.91c-.06-.33-.14-1.17-.69-.93s-.24,1.2-.11,1.61A2.77,2.77,0,0,0,47,84.11c.22.14.58-.1.47-.37Z"/><path class="cls-9" d="M45.91,82c-1.83.3-3.6,1.87-4.91,3.1a15.49,15.49,0,0,0-3.72,5.07.15.15,0,0,0,.26.16,27.27,27.27,0,0,1,3.88-4.8c1.4-1.31,3.22-2.08,4.58-3.37.08-.07,0-.18-.09-.16Z"/><path class="cls-9" d="M36.76,91a22.66,22.66,0,0,0,1.14-7,.14.14,0,0,0-.27,0,23.5,23.5,0,0,0-1.14,7,.14.14,0,0,0,.27,0Z"/><path class="cls-9" d="M37.76,83.56a11.54,11.54,0,0,0-6,3.69c-.17.19.1.46.28.28a16.36,16.36,0,0,1,5.76-3.77.1.1,0,0,0-.05-.2Z"/><path class="cls-9" d="M31.59,88.39a54.38,54.38,0,0,1,2.65-10.92.35.35,0,0,0-.64-.27,18.87,18.87,0,0,0-2.29,11.19.14.14,0,0,0,.28,0Z"/><path class="cls-9" d="M35.45,76a17.47,17.47,0,0,0-10.8,4.31c-.25.23.07.61.35.46a56.48,56.48,0,0,1,5.06-2.64,43.33,43.33,0,0,1,5.45-1.66.24.24,0,0,0-.06-.47Z"/><path class="cls-9" d="M25.4,80.4C26.68,77,27.86,73.84,30.21,71c2-2.46,4.64-4,7.11-5.92.19-.15,0-.44-.22-.39C31,66.35,25.41,74.18,24.94,80.34c0,.28.38.29.46.06Z"/><path class="cls-9" d="M35.32,65.73c-3.83-1.59-10.62-1.27-13.55,2a.23.23,0,0,0,.22.38c2.1-.56,3.92-1.76,6.11-2.16a25.1,25.1,0,0,1,7.19,0c.16,0,.16-.21,0-.26Z"/><path class="cls-9" d="M23.58,67.2a38.49,38.49,0,0,1,6.65-8.78c2.79-2.62,5.93-4.14,9.23-6a.36.36,0,0,0-.28-.66c-6.94,1.86-13.5,8.64-15.85,15.3,0,.14.17.23.25.1Z"/><path class="cls-9" d="M40.68,51.44a5.68,5.68,0,0,0-2.14-2.86c-.79-.62-2.1-1.56-3.16-1.34a.34.34,0,0,0-.14.56,2.44,2.44,0,0,0,1,.53,8.79,8.79,0,0,1,1.68.91,25.62,25.62,0,0,1,2.55,2.33.13.13,0,0,0,.22-.13Z"/><path class="cls-9" d="M34.17,47.83c1.86-.43,3.68-1,5.57-1.36s3.82-.3,5.66-.73a.29.29,0,0,0,0-.56c-3.54-.65-8.26.64-11.35,2.37-.16.08,0,.32.12.28Z"/><path class="cls-9" d="M52.38,25.27C50,20.21,44.5,17,39.73,14.56c-5.92-3-11.85-5.47-17-9.72a.4.4,0,0,0-.68.28c-1.05,8,1.85,15.81,5.08,23,2.78,6.2,7.39,12.21,14.47,13.46.47.08.68-.62.2-.73-7-1.58-11.33-7.32-14.06-13.59a100.38,100.38,0,0,1-3.62-9.82c-1.25-3.89-2.36-8.17-1.29-12.23l-.66.18c4.2,4.28,10,6.56,15.3,9.12a39.9,39.9,0,0,1,14.49,11.1c.21.26.57-.08.45-.35Z"/><path class="cls-9" d="M25.35,10.48c.41,4.33,4.91,7.17,8.54,8.69,2.35,1,4.82,1.65,7.22,2.48a28.55,28.55,0,0,1,8,4.46c.2.14.49-.15.34-.34-2.57-3.4-7.18-4.66-11.06-5.89a31.42,31.42,0,0,1-7.5-3.11,14.46,14.46,0,0,1-5.28-6.37c-.07-.13-.3-.07-.28.08Z"/><path class="cls-9" d="M30.35,17.24c-1.27,8.66,4.42,18.38,12.31,22,.43.19.8-.4.37-.65C35,33.89,31,26.51,30.65,17.28c0-.16-.27-.22-.3,0Z"/><path class="cls-9" d="M45.14,37.58a7.71,7.71,0,0,0-2.86.28.37.37,0,0,0-.16.6q.59.7,1.2,1.38l.52-.67C42.76,38.69,41,39,41.2,40.54a1.17,1.17,0,0,0,.95,1c.47.08,1.09-.09,1.16-.62a.36.36,0,0,0-.52-.4c-.3.14-.83.3-.72-.28s.92-.55,1.33-.36.89-.3.52-.67-.85-.87-1.29-1.29l-.07.56a5.36,5.36,0,0,1,2.58-.58c.23,0,.23-.33,0-.35Z"/><path class="cls-9" d="M49.24,25c-1.56.51-3.2.95-4.72,1.57a.39.39,0,0,0,.1.77c1,.13,2,.48,3.08.61.25,0,.25-.32.06-.4-1-.39-2-.58-3-1v.76c1.58-.46,3.13-1.15,4.68-1.73.37-.13.22-.72-.17-.6Z"/><path class="cls-9" d="M48.39,27.36a20.51,20.51,0,0,0-7,3.87c-.17.14,0,.38.22.29,2.34-1.15,4.71-2.51,6.94-3.85a.17.17,0,0,0-.13-.31Z"/><path class="cls-9" d="M43.33,30.87c.74-.06,1.47-.13,2.21-.22a5.33,5.33,0,0,0,1.73-.35.23.23,0,0,0-.05-.42,5.23,5.23,0,0,0-1.76.18c-.73.14-1.45.3-2.18.47-.19,0-.15.36,0,.34Z"/><path class="cls-9" d="M47.6,30.1A52.64,52.64,0,0,0,41,34.21c-.25.19,0,.59.25.43a51.15,51.15,0,0,0,6.56-4.31c.14-.11,0-.3-.18-.23Z"/><path class="cls-9" d="M41.92,34.34a14,14,0,0,0,3.69-1,.18.18,0,0,0-.09-.33,13.65,13.65,0,0,0-3.67,1,.13.13,0,0,0,.07.26Z"/><path class="cls-9" d="M45.14,33.36c-1.22,1.22-2.83,2.93-3.14,4.69,0,.16.17.31.29.17a18.64,18.64,0,0,0,1.36-2.12,16.27,16.27,0,0,1,1.89-2.34c.25-.26-.15-.65-.4-.4Z"/><path class="cls-9" d="M53.8,21.61c-.16-3-3.4-5.29-5.63-6.89-4.09-3-8.29-5.71-8.26-11.35a.25.25,0,0,0-.49-.06c-1.05,3.74,1.49,7.07,4.26,9.32,1.49,1.21,3.14,2.21,4.68,3.35,2.25,1.65,3.54,3.66,5.36,5.66,0,0,.09,0,.08,0Z"/><path class="cls-9" d="M39.22,3.44c-2.8,1.6-5.51,5.64-4.49,9,.08.26.53.31.58,0,.31-1.69.24-3.26,1-4.87a11.68,11.68,0,0,1,3.08-3.93c.11-.09,0-.27-.15-.2Z"/><path class="cls-9" d="M37.78,7.05c-.19,2.43,2.19,5.9,4.8,6a.34.34,0,0,0,.18-.63,12.1,12.1,0,0,1-3-2.13A9.42,9.42,0,0,1,38.24,7a.24.24,0,0,0-.46.06Z"/><path class="cls-9" d="M44.84,14.85c.54.49,1.14.91,1.67,1.41s.94,1.15,1.47,1.67c.33.32.78-.09.61-.47A5.62,5.62,0,0,0,47,15.64a5.06,5.06,0,0,0-2-1.07c-.16,0-.3.16-.17.28Z"/><path class="cls-9" d="M65.37,25.41a197.74,197.74,0,0,0,18.4,9c3,1.31,8.8,2.52,10.42-1.53.13-.3-.29-.44-.49-.28-2.49,2-4.52,2.6-7.67,1.66A49.41,49.41,0,0,1,78.91,31c-4.39-2.11-8.75-4.43-13.27-6.24-.38-.15-.61.45-.27.64Z"/><path class="cls-9" d="M67.63,26.61c-4,3.51-3.27,9.68.6,13,.44.38,1.08-.25.64-.63-3.89-3.36-3.79-8.1-1-12.14.11-.15-.12-.3-.25-.19Z"/><path class="cls-9" d="M78.58,42.1c4.29.22,8.39-3.14,10.27-6.77.25-.49-.48-.92-.74-.43-2.13,4-5.43,5.67-9.57,7a.12.12,0,0,0,0,.24Z"/><path class="cls-9" d="M64.42,42c2.82-.45,5.44-1.31,8.36-1.12a20.88,20.88,0,0,1,8.6,2.77.44.44,0,0,0,.44-.76c-4.5-3.2-12.77-4.6-17.52-1.18a.16.16,0,0,0,.12.29Z"/><path class="cls-9" d="M72.75,29a3.73,3.73,0,0,0-3.29,3.35c-.28,2.55,1.66,4.7,3.89,5.61,4.46,1.84,10.19,0,12.39-4.37a.44.44,0,0,0-.76-.44,9.08,9.08,0,0,1-7.5,4.55,8.37,8.37,0,0,1-4.7-1c-2.86-1.74-3.56-5.82,0-7.28.18-.08.19-.41,0-.39Z"/><path class="cls-9" d="M80.82,32.73c-.68-.8-2.13.82-2.41,1.38-.41.83-.46,2.86.71,3.11a.24.24,0,0,0,.3-.23,2.07,2.07,0,0,0-.32-.82,2.2,2.2,0,0,1,0-1.86,2.22,2.22,0,0,1,1.13-1.07c.3-.14.49-.13.62-.42a.1.1,0,0,0,0-.09Z"/><path class="cls-9" d="M70.47,31.43A10.54,10.54,0,0,0,73,33.36c.63.36,1.45.89,2.21.62,1.65-.58.79-2.59.11-3.55a.38.38,0,1,0-.59.47c.39.5,1,1.19.73,1.87-.35,1-1.49.46-2.16.09-.92-.51-1.75-1.13-2.63-1.69-.16-.11-.32.13-.2.26Z"/><path class="cls-9" d="M77.54,31a1.87,1.87,0,0,0-2.22,1,.17.17,0,0,0,.24.19c.28-.18.52-.42.8-.59a2.26,2.26,0,0,1,1.14-.3c.16,0,.21-.26,0-.3Z"/><path class="cls-9" d="M73.16,33.42a4,4,0,0,0-1.48,3.7.35.35,0,0,0,.69-.09,8.25,8.25,0,0,1,.11-1.72,4.47,4.47,0,0,1,.89-1.68.15.15,0,1,0-.21-.21Z"/><path class="cls-9" d="M40.23,56.9a2.17,2.17,0,0,0-1.9.74,3.71,3.71,0,0,0-1.18,2.16c0,.16.11.4.31.31,1.3-.54,2.64-1,3.92-1.57.16-.07,0-.32-.11-.28-1.34.4-2.62.93-3.94,1.36l.31.31a3.94,3.94,0,0,1,1.11-1.87c.46-.43,1.08-.61,1.51-1.05a.07.07,0,0,0,0-.11Z"/><path class="cls-9" d="M41.62,63.66a12.21,12.21,0,0,0-3.27,4.72.34.34,0,0,0,.49.37,58.67,58.67,0,0,0,5.17-4,.23.23,0,0,0-.28-.37,55.14,55.14,0,0,0-5.29,3.83l.55.32a11.53,11.53,0,0,1,2.77-4.75c.09-.09,0-.22-.14-.14Z"/><path class="cls-9" d="M44.38,67.67a5,5,0,0,0-1.84,2.69c-.06.19.18.41.36.28.74-.58,1.46-1.17,2.18-1.78l-.3-.29a8,8,0,0,0-2,5.45.33.33,0,0,0,.55.23c1.35-1.12,2.69-2.25,4-3.41.14-.12,0-.35-.19-.25q-2.16,1.57-4.27,3.2l.55.23a7.65,7.65,0,0,1,1.67-5.16c.13-.16,0-.48-.26-.32q-1.12.83-2.22,1.71l.41.24a5.14,5.14,0,0,1,1.48-2.68c.07-.07,0-.21-.11-.14Z"/><path class="cls-9" d="M48.5,73.15c-.46,1-.9,2.06-1.43,3a.31.31,0,0,0,.43.43A70.59,70.59,0,0,1,53.83,73c.2-.09.06-.42-.15-.35a20.33,20.33,0,0,0-6.56,3.45l.53.31c.29-1.07.72-2.12,1.1-3.17,0-.14-.18-.24-.25-.1Z"/><path class="cls-9" d="M53.69,54.05a6.68,6.68,0,0,0-3.17,1.45c-.25.2,0,.55.28.49l1.68-.4-.2-.49A10.18,10.18,0,0,0,50,57c-.12.14-.1.42.12.45a5.09,5.09,0,0,1,.77.19l-.13-.33c-.38.54-.74,1.09-1.12,1.64a.28.28,0,0,0,.25.42,8.64,8.64,0,0,0,4.72-1.56c.2-.15,0-.52-.25-.43a17.54,17.54,0,0,1-4.47,1.43l.24.42,1-1.69a.23.23,0,0,0-.14-.34,2.42,2.42,0,0,1-.68-.25l.06.43a25,25,0,0,1,2.13-1.85.27.27,0,0,0-.21-.5c-.56.13-1.13.24-1.7.36l.29.49a9,9,0,0,1,2.85-1.55.17.17,0,0,0-.09-.32Z"/><path class="cls-9" d="M34.65,38.36a18.94,18.94,0,0,0-2.46,1.52,15.48,15.48,0,0,0-2.1,1.47c-.09.08,0,.2.12.16A19,19,0,0,0,32.67,40a16.1,16.1,0,0,0,2.09-1.48c.07-.07,0-.17-.11-.14Z"/><path class="cls-9" d="M24,24.25a29,29,0,0,0-9.49,6.84.11.11,0,1,0,.16.16,36.08,36.08,0,0,1,9.52-6.67c.22-.1,0-.43-.19-.33Z"/><path class="cls-9" d="M24.83,23.73c-1.19-.13-2.7.93-3.59,1.62a6.73,6.73,0,0,0-2.49,3.07.08.08,0,0,0,.13.07,28.1,28.1,0,0,1,2.89-3c.95-.69,2.21-1,3.09-1.7,0,0,0-.06,0-.07Z"/><path class="cls-9" d="M21.61,26.5a6.62,6.62,0,0,1,.71-.46l-.14-.25c-.68.48-1.34,1-2,1.5a9.56,9.56,0,0,0-1.85,1.62c-.09.12.08.23.18.18A9.43,9.43,0,0,0,20.4,27.7q1-.81,2-1.68c.14-.13-.07-.34-.2-.21a6.75,6.75,0,0,1-.65.55c-.07.06,0,.2.11.14Z"/><path class="cls-9" d="M20.53,27.5c-1.68,1.07-3.39,2.12-5,3.27-.14.09-.06.36.12.29l.69-.3c.12-.05,0-.22-.08-.19s-.47.11-.7.18l.12.29c1.71-1,3.35-2.17,5-3.29.16-.1,0-.35-.14-.25Z"/><path class="cls-9" d="M20.18,27.57A7.91,7.91,0,0,1,22.89,25c.07-.05,0-.19-.07-.15A6.4,6.4,0,0,0,20,27.47a.09.09,0,0,0,.16.1Z"/><path class="cls-9" d="M108.31,37c0,.39.38.67.64.93a3.94,3.94,0,0,0,1.14,1,.3.3,0,0,0,.41-.41,3.93,3.93,0,0,0-1.07-1c-.3-.23-.61-.58-1-.57a.12.12,0,0,0-.11.11Z"/><path class="cls-9" d="M111.08,36.52A9.53,9.53,0,0,1,112.33,38c.29.48.39,1.15.82,1.51a.2.2,0,0,0,.33-.09c.17-.63-.36-1.3-.72-1.77a4.29,4.29,0,0,0-1.54-1.36.12.12,0,0,0-.14.19Z"/><path class="cls-9" d="M115.2,37.71l.57.53A.16.16,0,0,0,116,38l-.53-.57c-.17-.19-.46.1-.27.27Z"/><path class="cls-9" d="M116.4,36.77a4.12,4.12,0,0,1,1.28.82c.32.31.52.7.81,1a.17.17,0,0,0,.29-.16,3.33,3.33,0,0,0-2.31-1.94c-.17,0-.23.2-.07.26Z"/><path class="cls-9" d="M119.51,37.05a7.17,7.17,0,0,0,1.6,1.56c.1,0,.25,0,.2-.16a7.34,7.34,0,0,0-1.39-1.81c-.24-.28-.66.13-.41.41Z"/><path class="cls-9" d="M122,36.23a12.44,12.44,0,0,0,2.47,2.34.13.13,0,0,0,.18-.18,12.44,12.44,0,0,0-2.36-2.45.21.21,0,0,0-.29.29Z"/><path class="cls-9" d="M126.85,37.05a0,0,0,0,0,0,0,0,0,0,0,0,0,0Z"/><path class="cls-9" d="M128.65,37.42c.36.32.41.75.61,1.15a.17.17,0,0,0,.29,0c.35-.54,0-1.21-.48-1.57-.29-.23-.71.16-.42.42Z"/></svg>