<svg id="carracters" xmlns="http://www.w3.org/2000/svg" viewBox="0 0 198.43 35.43"><defs><style>.cls-1{fill:#fff;}</style></defs><path d="M181.43,28.64c-.22.47-.43.92-.65,1.37a.24.24,0,0,1-.17.09,14.22,14.22,0,0,1-5.48-1.76,5.4,5.4,0,0,1-2.58-4.19,6.9,6.9,0,0,1,1.14-4.51,16.59,16.59,0,0,1,4.16-4.4c.43-.32.88-.62,1.36-1-.4,0-.75,0-1.1.06l-5.24.41-4.32.35-.4,0a.42.42,0,0,0-.14.09l-.43.31-.18-1.93c5.78-.33,11.53-.79,17.31-1v1.59h-.33a6.74,6.74,0,0,0-4.17,1.15,16.31,16.31,0,0,0-5,4.77,6.19,6.19,0,0,0-1,2.61A4.2,4.2,0,0,0,176.05,27a8.77,8.77,0,0,0,3.07,1.25c.71.17,1.43.27,2.15.4Z"/><path class="cls-1" d="M30.47,28.64c-.22.47-.43.92-.65,1.37a.24.24,0,0,1-.16.09,14.22,14.22,0,0,1-5.49-1.76,5.4,5.4,0,0,1-2.58-4.19,6.85,6.85,0,0,1,1.15-4.51,16.4,16.4,0,0,1,4.15-4.4c.43-.32.88-.62,1.36-1-.4,0-.75,0-1.1.06l-5.24.41-4.32.35-.4,0a.42.42,0,0,0-.14.09l-.43.31-.18-1.93c5.78-.33,11.53-.79,17.31-1v1.59h-.32a6.75,6.75,0,0,0-4.18,1.15,16.31,16.31,0,0,0-5,4.77,6.19,6.19,0,0,0-1,2.61A4.2,4.2,0,0,0,25.09,27a8.77,8.77,0,0,0,3.07,1.25c.71.17,1.44.27,2.15.4Z"/><path d="M185.59,13.42l2.77.17c.11.13,0,.2-.07.28L186,15.46l-.19.14.72.11c.06,0,.1.08.15.12a.45.45,0,0,1-.18.07l-1.06-.17c.06-.36.1-.7.17-1,0,0,.08-.1.13-.15l.07.05-.13.86,2.4-1.68-.68,0-1.7-.1C185.6,13.61,185.51,13.59,185.59,13.42Z"/><path d="M168.41,13.36l-.17-.09.46-.78L167,13l-1.21.35c-.11,0-.19,0-.19-.14l3.09-.88-.75-.45.1-.16,1,.6Z"/></svg>