<svg id="illustration" xmlns="http://www.w3.org/2000/svg" viewBox="0 0 198.43 145.09"><defs><style>.cls-1,.cls-5{fill:#6a979e;}.cls-11,.cls-2{fill:#010101;}.cls-3,.cls-7{fill:#cdb46e;}.cls-4{opacity:0.51;}.cls-5,.cls-6,.cls-7,.cls-8,.cls-9{stroke:#010101;stroke-miterlimit:10;stroke-width:0.25px;}.cls-10,.cls-6{fill:#fff;}.cls-8{fill:#90a3a5;}.cls-9{fill:none;}.cls-11{font-size:8.21px;font-family:Algerian;}</style></defs><circle class="cls-1" cx="99.16" cy="71.86" r="51.6"/><path class="cls-2" d="M150.88,71.86a51.71,51.71,0,0,0-92-32.43,51.72,51.72,0,0,0,50.64,83.11c23.91-4.85,41.21-26.41,41.37-50.68a.13.13,0,0,0-.25,0,51.46,51.46,0,0,1-91.17,32.76,51.47,51.47,0,0,1,50-83.2c23.81,4.83,41,26.27,41.19,50.44A.13.13,0,0,0,150.88,71.86Z"/><circle class="cls-3" cx="99.16" cy="79.71" r="51.6"/><path class="cls-2" d="M150.88,79.71a51.71,51.71,0,0,0-92-32.43,51.72,51.72,0,0,0,50.64,83.11c23.91-4.85,41.21-26.41,41.37-50.68a.13.13,0,0,0-.25,0,51.46,51.46,0,0,1-91.17,32.76,51.47,51.47,0,0,1,50-83.2c23.81,4.83,41,26.27,41.19,50.44A.13.13,0,0,0,150.88,79.71Z"/><g class="cls-4"><circle class="cls-1" cx="99.41" cy="79.46" r="48.88"/><path class="cls-2" d="M148.41,79.46a49,49,0,0,0-86.94-31A49,49,0,0,0,109,127.52c22.75-4.53,39.21-25,39.37-48.06a.13.13,0,0,0-.25,0,48.75,48.75,0,0,1-86.09,31.35A48.75,48.75,0,0,1,109,31.65c22.63,4.51,39,24.85,39.18,47.81A.13.13,0,0,0,148.41,79.46Z"/></g><path class="cls-2" d="M148.17,79.68a49,49,0,0,0-86.95-31,49,49,0,0,0,47.58,79.08c22.74-4.53,39.2-25,39.37-48.06a.13.13,0,0,0-.25,0A48.75,48.75,0,0,1,61.82,111a48.76,48.76,0,0,1,46.91-79.16c22.64,4.51,39,24.85,39.19,47.81A.13.13,0,0,0,148.17,79.68Z"/><path class="cls-5" d="M98.38,13.72s-1.49.59-1.16,3.75A36.86,36.86,0,0,0,97.69,22c.2.58,1,1.43,1.55,1.42a2.63,2.63,0,0,0,2.18-1c.5-.83,0-4.33,0-5.64S100.63,13.06,98.38,13.72Z"/><circle class="cls-6" cx="99.28" cy="16.37" r="1.23"/><rect class="cls-7" x="92.91" y="74.9" width="12.51" height="12.51"/><polygon class="cls-8" points="112.33 67.99 99.16 74.9 85.99 67.99 92.91 81.24 85.99 94.32 99.49 87.41 112.33 94.32 105.41 81.24 112.33 67.99"/><polygon class="cls-7" points="99.16 41.82 105.41 74.9 116.44 81.16 105.41 87.41 99 104.86 92.91 87.41 82.54 81.16 92.91 74.9 99.16 41.82"/><circle class="cls-7" cx="99.16" cy="81.16" r="9.38"/><polyline class="cls-9" points="95.7 30.58 99.16 39.27 102.05 30.65"/><polyline class="cls-9" points="95.7 128.34 99.16 119.66 102.05 128.27"/><polyline class="cls-9" points="148.29 77.98 139.6 81.44 148.22 84.33"/><polyline class="cls-9" points="50.53 84.41 59.22 80.95 50.6 78.07"/><path class="cls-2" d="M114.18,66.72q10-10.78,20-21.63c.12-.14-.08-.33-.2-.2q-10,10.8-19.92,21.71c-.07.08,0,.19.12.12Z"/><path class="cls-2" d="M83.93,66.11c-3.27-3.48-7.08-6.53-10.64-9.69L62.53,46.85c-.23-.21-.58.13-.35.34l11.13,9.9c3.45,3.07,6.81,6.39,10.52,9.14.07,0,.15-.06.1-.12Z"/><path class="cls-2" d="M65.16,114.66c4.71-4.67,8.71-10.3,12.93-15.41.11-.13-.07-.32-.18-.19-4.27,5.09-9.08,10-12.83,15.53,0,0,0,.1.08.07Z"/><path class="cls-2" d="M129.56,117.78c-3-4.52-6.42-8.86-9.81-13.06-.15-.2-.49.06-.34.26,3.16,4.38,6.44,8.86,10,12.91.07.07.19,0,.14-.11Z"/><path class="cls-2" d="M70.4,119.36c.39-.62.69-1.3,1-2,0-.09-.1-.17-.14-.08-.33.66-.7,1.32-1,2a0,0,0,0,0,.09,0Z"/><path class="cls-2" d="M79,124a7.84,7.84,0,0,0,1.14-1.52c0-.07,0-.12-.1-.08a7.69,7.69,0,0,0-1.17,1.49c-.06.08.07.19.13.11Z"/><path class="cls-2" d="M52.09,91.58a10.81,10.81,0,0,0,2.18-.75c.16-.06.08-.33-.08-.26a10,10,0,0,0-2.13.9c-.05,0,0,.12,0,.11Z"/><path class="cls-2" d="M56.83,103.86a5,5,0,0,0,1.11-.8L59.25,102c.15-.13-.06-.34-.21-.22l-1.23,1a4.86,4.86,0,0,0-1,1,.05.05,0,0,0,.06.08Z"/><path class="cls-2" d="M51.58,69c1.21.22,2.43.32,3.64.44.23,0,.23-.34,0-.35-1.2-.1-2.41-.24-3.62-.24-.08,0-.1.14,0,.15Z"/><path class="cls-2" d="M56,56.92c.85.48,1.73.93,2.6,1.38l0-.22a.69.69,0,0,0-.28.33.1.1,0,0,0,.13.13.71.71,0,0,0,.35-.26.15.15,0,0,0,0-.23c-.88-.43-1.77-.86-2.67-1.25a.07.07,0,0,0-.07.12Z"/><path class="cls-2" d="M73.25,38.44c.74.6,1.54,1.13,2.3,1.71.16.12.33-.16.16-.28-.79-.52-1.54-1.09-2.33-1.6-.1-.06-.23.09-.13.17Z"/><path class="cls-2" d="M85.27,33a12.07,12.07,0,0,0,.63,2.62.08.08,0,0,0,.15,0,12.07,12.07,0,0,0-.6-2.63.09.09,0,0,0-.18.05Z"/><path class="cls-2" d="M114.71,33.57a9.71,9.71,0,0,0-.42,1.49,6.62,6.62,0,0,0-.29,1.32.08.08,0,0,0,.15,0,7.5,7.5,0,0,0,.37-1.41,11.65,11.65,0,0,0,.28-1.43s-.08,0-.09,0Z"/><path class="cls-2" d="M123.62,37.51a17.43,17.43,0,0,0-1.33,2c0,.07.07.17.13.1a17.8,17.8,0,0,0,1.33-2c0-.08-.08-.15-.13-.07Z"/><path class="cls-2" d="M139.69,52.86c-1.21.87-2.37,1.81-3.52,2.75-.12.1.06.27.18.17,1.14-.93,2.29-1.88,3.37-2.89,0,0,0,0,0,0Z"/><path class="cls-2" d="M145.36,64.79c-.9.62-1.78,1.27-2.67,1.91a.14.14,0,1,0,.17.22c.86-.67,1.73-1.34,2.58-2,.05,0,0-.14-.08-.1Z"/><path class="cls-2" d="M146.21,93.07c-.43-.22-.84-.46-1.28-.67a2.69,2.69,0,0,0-1.05-.4c-.1,0-.14.12-.08.19a2.68,2.68,0,0,0,1,.51c.44.18.9.33,1.34.51a.08.08,0,0,0,.06-.14Z"/><path class="cls-2" d="M139.68,106.6c-1-.63-2.07-1.12-3.06-1.75-.22-.14-.43.24-.2.34,1.09.47,2.11,1.08,3.21,1.54.08,0,.12-.08.05-.13Z"/><path class="cls-2" d="M110.46,126.71c-.34-1.11-.69-2.21-1.07-3.31-.09-.23-.46-.13-.38.1.39,1.1.8,2.19,1.24,3.27a.11.11,0,0,0,.21-.06Z"/><path class="cls-2" d="M118.75,124.1c-.42-1-.94-1.89-1.4-2.84-.1-.21-.43,0-.31.18.53.91,1,1.85,1.57,2.75a.08.08,0,0,0,.14-.09Z"/><path class="cls-2" d="M98.89,49.23c-.09,6.33.19,12.76.54,19.08a0,0,0,1,0,.08,0c0-6.32-.1-12.77-.54-19.08a0,0,0,0,0-.08,0Z"/><path class="cls-2" d="M85.17,81.19a19.37,19.37,0,0,0,3.32,0,.08.08,0,0,0,0-.16,18.4,18.4,0,0,0-3.32,0c-.13,0-.13.2,0,.21Z"/><path class="cls-2" d="M109.69,81.47a13.28,13.28,0,0,0,3.15,0c.11,0,.07-.16,0-.17a12.62,12.62,0,0,0-3.13,0,.06.06,0,0,0,0,.12Z"/><path class="cls-2" d="M98.77,92.18c-.06,1.69.06,3.41.13,5.1a.12.12,0,0,0,.24,0c0-1.69,0-3.41-.18-5.1,0-.12-.19-.12-.19,0Z"/><path class="cls-2" d="M96.83,74.15a6.84,6.84,0,0,0-5.21,5.52c0,.16.22.17.26,0a8.61,8.61,0,0,1,1.89-3.47,9.39,9.39,0,0,1,3.12-1.95c.09,0,0-.15-.06-.14Z"/><path class="cls-2" d="M91.88,81.91a.79.79,0,0,0-.35.37c0,.06,0,.12.1.09A.81.81,0,0,0,92,82a.08.08,0,0,0-.11-.11Z"/><path class="cls-2" d="M92.1,84.32l0,.16a.11.11,0,0,0,.22,0l0-.16c.06-.24-.34-.24-.29,0Z"/><path class="cls-2" d="M93.55,86.49l.15,0a.1.1,0,1,0,0-.19l-.15,0a.07.07,0,0,0,0,.14Z"/><path class="cls-2" d="M96.84,88.73a6.94,6.94,0,0,0,7.67-1.9s0-.11-.07-.07a8,8,0,0,1-7.54,1.82c-.09,0-.16.11-.06.15Z"/><path class="cls-2" d="M102.13,74.53a5.63,5.63,0,0,1,4,5.63c0,.15.2.14.22,0a5.31,5.31,0,0,0-4.14-5.75.06.06,0,0,0,0,.12Z"/><path class="cls-2" d="M97.8,78.93a1.81,1.81,0,0,0-.2,3.18c.13.08.24-.12.12-.2a1.66,1.66,0,0,1,.15-2.86c.07,0,0-.15-.07-.12Z"/><path class="cls-2" d="M100,79.25c.68.2.88.66,1.09,1.27a.08.08,0,0,0,.15,0c.16-.7-.56-1.35-1.19-1.44a.09.09,0,0,0-.05.17Z"/><path class="cls-2" d="M99.73,82.38c.28-.27.57-.53.84-.81a.09.09,0,0,0-.13-.12c-.28.27-.54.56-.81.84,0,.06,0,.15.1.09Z"/><path class="cls-2" d="M98,76.17a4.63,4.63,0,0,0-3.12,5.16,4.88,4.88,0,0,0,4.77,3.86.17.17,0,0,0,0-.33,4.52,4.52,0,0,1-4.51-4.21A5,5,0,0,1,98,76.27s0-.11,0-.1Z"/><path class="cls-2" d="M103.19,79.56a3.17,3.17,0,0,1,0,3.06c0,.07.06.17.12.09a2.63,2.63,0,0,0,0-3.25c-.06-.07-.18,0-.13.1Z"/><path class="cls-2" d="M92.31,39.82A41.45,41.45,0,0,0,63.75,67.33c0,.1.12.14.16,0A43.94,43.94,0,0,1,92.36,40a.09.09,0,1,0,0-.18Z"/><path class="cls-2" d="M134.93,76.68a39.31,39.31,0,0,1-13.85,22.63.07.07,0,0,0,.08.11,34,34,0,0,0,14-22.71.09.09,0,0,0-.18,0Z"/><path class="cls-2" d="M68.77,97.77c5,8.53,14.33,14.49,24.31,14.59a.09.09,0,1,0,0-.18A30.33,30.33,0,0,1,68.89,97.7a.07.07,0,0,0-.12.07Z"/><path class="cls-2" d="M114.14,41.93c8.48,3.69,13.71,11.15,15.18,20.15,0,.13.25.1.24,0-.56-8.95-7.1-17.12-15.33-20.32-.12,0-.2.15-.09.2Z"/><path class="cls-2" d="M66.69,35.51c4.8-5.21,10.71-8,17.52-9.56.09,0,.07-.17,0-.16-6.78.76-13.09,4.63-17.55,9.66,0,0,0,.1,0,.06Z"/><path class="cls-2" d="M97,21.83a15.18,15.18,0,0,0-2.65.77c-.12,0-.07.23.05.2A15.15,15.15,0,0,0,97,21.92s0-.1,0-.09Z"/><path class="cls-2" d="M102.11,21.8a7,7,0,0,0,1.82.17.07.07,0,0,0,0-.13,7.46,7.46,0,0,0-1.83-.15c-.06,0-.08.1,0,.11Z"/><path class="cls-2" d="M100.3,20.2A1.59,1.59,0,0,1,99,22.4c-.23,0-.22.38,0,.35a1.88,1.88,0,0,0,1.5-2.67c-.07-.14-.26,0-.2.12Z"/><path class="cls-2" d="M119.71,28A68.6,68.6,0,0,1,133,36.45c.09.08.22-.05.13-.13a51.5,51.5,0,0,0-13.28-8.51c-.14-.07-.27.15-.12.22Z"/><path class="cls-2" d="M140.22,46a48.08,48.08,0,0,1,7.47,8.82.08.08,0,0,0,.13-.08,30.5,30.5,0,0,0-7.45-8.89c-.11-.08-.25.06-.15.15Z"/><path class="cls-2" d="M51.33,56.43a47.17,47.17,0,0,1,12-16.54c.07-.06,0-.17-.11-.11a41.33,41.33,0,0,0-12,16.62s.05.07.07,0Z"/><path class="cls-2" d="M116.93,27.18a.18.18,0,0,0,0-.35.18.18,0,0,0,0,.35Z"/><path class="cls-2" d="M113.4,25.89a.7.7,0,0,0-.31.23.08.08,0,0,0,.07.13.74.74,0,0,0,.38-.12c.16-.08,0-.33-.14-.24Z"/><path class="cls-2" d="M110.29,25.14l-.15.17a.07.07,0,0,0,.1.1l.17-.15c.08-.07,0-.2-.12-.12Z"/><path class="cls-2" d="M135.08,38.07l0,.16a.1.1,0,0,0,.18,0l0-.16a.12.12,0,1,0-.24,0Z"/><path class="cls-2" d="M71,35.12a43.12,43.12,0,0,0,5.34-3c.07,0,0-.14-.06-.11a42.94,42.94,0,0,0-5.31,3.05s0,.07,0,.06Z"/><path class="cls-2" d="M61.38,39.37a16,16,0,0,1,6-7.74c.14-.1,0-.34-.14-.24a13.92,13.92,0,0,0-6,7.94.08.08,0,0,0,.15,0Z"/><path class="cls-2" d="M84.5,24.17c2.15-.58,4.34-1.12,6.46-1.83.11,0,.06-.19,0-.17-2.17.53-4.31,1.24-6.44,1.89a.06.06,0,0,0,0,.11Z"/><path class="cls-2" d="M91.4,25.53c2.37-.23,4.75-.4,7.1-.74a.06.06,0,0,0,0-.12c-2.37.15-4.73.46-7.09.71-.09,0-.09.16,0,.15Z"/><path class="cls-2" d="M101,25.91a29.29,29.29,0,0,1,12.91,2.25c.22.1.42-.23.19-.33A26,26,0,0,0,101,25.7c-.14,0-.14.22,0,.21Z"/><path class="cls-2" d="M134.29,39.25c.81.74,1.64,1.45,2.47,2.15A20.42,20.42,0,0,0,139,43.27a.09.09,0,0,0,.11-.14,21.55,21.55,0,0,0-2.34-2c-.79-.66-1.59-1.32-2.41-2-.07-.06-.19,0-.11.11Z"/><path class="cls-2" d="M100,67.66c-.68,1.47-1.42,2.93-2,4.43,0,0,0,0,.05,0,.74-1.44,1.36-3,2-4.42,0,0,0,0,0,0Z"/><path class="cls-2" d="M98.18,69.48c-.34.87-.72,1.74-1,2.62a.05.05,0,0,0,.1,0c.37-.86.67-1.76,1-2.64,0,0-.07-.07-.09,0Z"/><path class="cls-2" d="M96.16,70.1c-.4.93-.85,1.86-1.17,2.81,0,.06.08.1.1,0,.45-.9.78-1.87,1.16-2.81,0,0-.07-.09-.09,0Z"/><path class="cls-2" d="M94.7,71a23.76,23.76,0,0,0-.81,2.47s.07.1.09,0A24,24,0,0,0,94.81,71a.06.06,0,0,0-.11,0Z"/><path class="cls-2" d="M93.81,71.75a15,15,0,0,0-.8,2.31s.06.08.09,0a15.57,15.57,0,0,0,.82-2.32c0-.07-.09-.1-.11,0Z"/><path class="cls-2" d="M89.91,77a34.16,34.16,0,0,0-2.1,4,0,0,0,1,0,.07,0,35.2,35.2,0,0,0,2.11-4s-.06-.07-.08,0Z"/><path class="cls-2" d="M87.92,78.5c-.71,1-1.46,2.06-2.13,3.12,0,.06,0,.1.08,0,.75-1,1.43-2.08,2.14-3.12,0-.06-.05-.11-.09,0Z"/><path class="cls-2" d="M85.64,79.66c-.57.75-1.16,1.5-1.69,2.27,0,0,0,.11.07.06.59-.74,1.13-1.52,1.69-2.29,0,0,0-.08-.07,0Z"/><path class="cls-2" d="M84.47,80a14.19,14.19,0,0,0-1,1.32s0,.1.08,0a16.32,16.32,0,0,0,1-1.32c0-.06,0-.11-.09,0Z"/><path class="cls-2" d="M113.93,81.44a23.4,23.4,0,0,0-2,2.49s0,.1.07.06a21.5,21.5,0,0,0,2-2.47c0-.06,0-.12-.09-.08Z"/><path class="cls-2" d="M111.65,82c-.54.76-1.18,1.5-1.64,2.31,0,0,0,.1.07.06A26.51,26.51,0,0,0,111.75,82c0-.06-.06-.12-.1-.06Z"/><path class="cls-2" d="M110,82.12c-.56.93-1.15,1.84-1.66,2.79,0,.07.06.12.09.06.58-.91,1.1-1.87,1.64-2.81,0,0,0-.08-.07,0Z"/><path class="cls-2" d="M109,82.28c-.22.44-.47.87-.66,1.32a.06.06,0,0,0,.1.05c.24-.42.44-.87.65-1.31,0-.07-.06-.12-.09-.06Z"/><path class="cls-2" d="M101.91,95.77c-1.15,1.5-2.23,3.06-3.31,4.6-.07.09.08.18.15.09,1.1-1.53,2.22-3,3.27-4.62,0-.07-.06-.13-.11-.07Z"/><path class="cls-2" d="M100.9,97.9c-.76,1.2-1.61,2.38-2.29,3.63a.07.07,0,0,0,.12.07c.85-1.14,1.56-2.41,2.33-3.61.06-.09-.1-.18-.16-.09Z"/><path class="cls-2" d="M99.93,100.38c-.44.76-1,1.51-1.32,2.3a.07.07,0,1,0,.11.07,25,25,0,0,0,1.32-2.31c0-.07-.07-.13-.11-.06Z"/><path class="cls-2" d="M99.78,101.37c-.4.65-.82,1.3-1.18,2,0,.09.08.17.13.08.41-.64.76-1.32,1.13-2,0,0,0-.1-.08,0Z"/><path class="cls-2" d="M104.38,89.19c-.45.7-.93,1.41-1.31,2.14,0,.06.05.11.08.06.49-.68.9-1.42,1.32-2.14a.05.05,0,0,0-.09-.06Z"/><path class="cls-2" d="M102.75,90.17c-.39.5-.83,1-1.16,1.49,0,0,0,.1.07.06a17,17,0,0,0,1.16-1.49s0-.1-.07-.06Z"/><path class="cls-2" d="M101.1,91a16.36,16.36,0,0,0-1.17,1.33c0,.05,0,.12.1.07a15.86,15.86,0,0,0,1.14-1.32s0-.13-.07-.08Z"/><path class="cls-2" d="M100,91c-.49.71-1,1.42-1.48,2.14,0,.07.07.14.12.07.49-.71,1-1.44,1.45-2.16,0,0,0-.1-.09,0Z"/><path class="cls-2" d="M98.15,90.67a6.58,6.58,0,0,0-.83.84s0,.1.07.07a7.22,7.22,0,0,0,.84-.82c0-.06,0-.14-.08-.09Z"/><path class="cls-2" d="M96.65,90.5a5.93,5.93,0,0,0-.82.84s0,.09.06.06a5.93,5.93,0,0,0,.84-.82.06.06,0,1,0-.08-.08Z"/><path class="cls-2" d="M95.52,90.18a8.16,8.16,0,0,0-1,.68c-.05,0,0,.1.06.08a9.41,9.41,0,0,0,1-.67s0-.13-.06-.09Z"/><path class="cls-2" d="M94.63,89.48a6.71,6.71,0,0,0-.65.84s0,.1.07.05a7.53,7.53,0,0,0,.65-.84s0-.09-.07,0Z"/><path class="cls-2" d="M97.67,67.83c-.5,1.19-1.09,2.38-1.49,3.62,0,0,.06.07.08,0,.59-1.16,1-2.43,1.48-3.64,0,0,0,0-.07,0Z"/><path class="cls-2" d="M96.3,69c-.49,1.2-1,2.4-1.47,3.63,0,.06.09.11.12,0,.53-1.19,1-2.43,1.46-3.64,0-.07-.09-.1-.11,0Z"/><path class="cls-2" d="M98.45,68.12a34.16,34.16,0,0,0-1.8,3.64,0,0,0,0,0,.09,0,35.92,35.92,0,0,0,1.83-3.61c0-.08-.08-.14-.12-.07Z"/><path class="cls-2" d="M97.16,68.32a35.5,35.5,0,0,0-1.31,3.62s.07.09.1,0a35,35,0,0,0,1.35-3.63c0-.08-.1-.11-.14,0Z"/><path class="cls-2" d="M96.06,67.94c-.66,1.7-1.34,3.4-2,5.1,0,.12.15.17.2,0,.66-1.69,1.3-3.4,1.95-5.1,0-.1-.12-.14-.15,0Z"/><path class="cls-2" d="M98.79,69.94c-.33.66-.7,1.31-1,2,0,0,.06.07.08,0,.37-.63.67-1.31,1-2,0,0-.05-.1-.08,0Z"/><path class="cls-2" d="M99.29,66.17c-.67,1.85-1.43,3.7-2,5.59,0,.09.1.12.14,0,.75-1.82,1.32-3.73,2-5.6,0-.07-.09-.1-.11,0Z"/><path class="cls-2" d="M97.31,68.79a27.2,27.2,0,0,0-1.31,3,0,0,0,0,0,.08,0,26.15,26.15,0,0,0,1.32-3c0-.06-.06-.11-.09,0Z"/><path class="cls-2" d="M110.15,81.45a37.1,37.1,0,0,0-2.34,3.61.08.08,0,0,0,.14.08,34.08,34.08,0,0,0,2.27-3.64s0-.09-.07,0Z"/><path class="cls-2" d="M110.47,82.12c-.66,1-1.32,2.08-2,3.13,0,.09.09.17.15.08.65-1,1.29-2.09,1.93-3.15,0-.07-.07-.14-.11-.06Z"/><path class="cls-2" d="M111.29,82a25.26,25.26,0,0,0-1.52,2.8c0,.07.08.1.12,0A26.75,26.75,0,0,0,111.43,82a.08.08,0,0,0-.14-.08Z"/><path class="cls-2" d="M112.73,81.76c-.54.71-1.13,1.41-1.63,2.15,0,.08.07.17.13.1.59-.68,1.12-1.44,1.67-2.15.07-.1-.09-.19-.17-.1Z"/><path class="cls-2" d="M113.57,81.74a8.48,8.48,0,0,0-1.16,1.16s0,.12.08.09a7.55,7.55,0,0,0,1.17-1.16.06.06,0,1,0-.09-.09Z"/><path class="cls-2" d="M90.2,77.33a26,26,0,0,0-1.8,3.81c0,.06.07.09.11,0a26,26,0,0,0,1.84-3.79c0-.08-.11-.14-.15-.06Z"/><path class="cls-2" d="M89.2,78c-.62,1-1.23,2-1.83,3a.08.08,0,0,0,.14.08c.6-1,1.19-2,1.77-3,0,0,0-.09-.08,0Z"/><path class="cls-2" d="M88.2,78c-.74,1-1.56,2-2.25,3,0,.07.06.15.11.09.8-1,1.49-2,2.23-3,0-.06-.05-.11-.09-.06Z"/><path class="cls-2" d="M86.46,79.15c-.56.71-1.14,1.41-1.67,2.14-.05.06.06.15.11.08.57-.7,1.09-1.44,1.63-2.16,0,0,0-.1-.07-.06Z"/><path class="cls-2" d="M84.43,80.12c-.22.33-.45.65-.64,1,0,0,0,.1.08,0,.24-.32.45-.66.67-1,0-.07-.06-.13-.11-.06Z"/><path class="cls-2" d="M88.39,78c-.57,1-1.17,1.93-1.68,2.94a.05.05,0,1,0,.09,0c.6-1,1.13-2,1.68-2.94,0-.06-.06-.11-.09-.05Z"/><path class="cls-2" d="M106.48,73.67c1.06-.9,2.18-1.79,3.14-2.78.07-.07,0-.19-.09-.13a39.9,39.9,0,0,0-3.17,2.78c-.09.08,0,.2.12.13Z"/><path class="cls-2" d="M88.75,70.64c.85,1.12,1.74,2.24,2.64,3.32.08.09.24,0,.17-.13-.86-1.12-1.75-2.23-2.66-3.31-.07-.09-.22,0-.15.12Z"/><path class="cls-2" d="M88.77,92.3a40.79,40.79,0,0,0,2.75-3.67s0-.11-.08-.07a39.52,39.52,0,0,0-2.76,3.67c0,.06,0,.13.09.07Z"/><path class="cls-2" d="M106.11,88.66c.44.4,1,.73,1.43,1.09a10.78,10.78,0,0,0,1.65,1.14.08.08,0,0,0,.1-.13,9,9,0,0,0-1.43-1.09,18.72,18.72,0,0,0-1.65-1.15.09.09,0,0,0-.1.14Z"/><path class="cls-10" d="M64.54,85.14c-1.84-7.37-2.16-14.56,1.12-21.62,2.72-5.84,7.09-9.81,12.39-13.26a.2.2,0,0,0-.2-.34C65.56,55.73,59,72.69,64.24,85.22a.16.16,0,0,0,.3-.08Z"/><path class="cls-10" d="M135.76,63.45c2.06,13-2.06,25.91-12.47,34.34-.24.2.1.53.34.34,10-7.92,15.69-22.2,12.53-34.79-.07-.26-.44-.14-.4.11Z"/><text class="cls-11" transform="translate(96.57 10.22)">N </text><text class="cls-11" transform="translate(97.17 141.23)">S</text><text class="cls-11" transform="translate(153.47 84.45)">e</text><text class="cls-11" transform="translate(36.46 83.95)">w</text><path class="cls-2" d="M141.37,100.51a0,0,0,0,0,0,0s0,0,0,0Z"/><path class="cls-2" d="M141.67,99.27c-.66,2.31-1.35,4.6-1.92,6.93,0,0,.06.07.07,0,.73-2.28,1.33-4.61,2-6.91a.06.06,0,1,0-.12,0Z"/><path class="cls-2" d="M139.33,101.06c-1.13,3-2.33,6.08-3.35,9.17,0,0,.05.06.07,0,1.23-3,2.28-6.1,3.4-9.16,0-.07-.09-.1-.12,0Z"/><path class="cls-2" d="M134.74,104.45c-2.41,4.55-4.79,9.14-7,13.78,0,.09.08.16.13.08,2.45-4.52,4.77-9.14,7-13.76a.09.09,0,0,0-.16-.1Z"/><path class="cls-2" d="M127.48,110.93c-1.73,3.87-3.58,7.7-5.15,11.64,0,.05.06.08.09,0,1.86-3.79,3.47-7.73,5.17-11.6,0-.07-.07-.14-.11-.07Z"/><path class="cls-2" d="M122.66,114.83c-1.65,3.15-3.48,6.27-4.94,9.52,0,.05.06.1.09,0,1.83-3,3.36-6.32,5-9.47a.09.09,0,0,0-.16-.09Z"/><path class="cls-2" d="M116.34,118.46c-1.72,2.53-3.55,5.05-5.12,7.69,0,.08.07.14.12.07,1.84-2.46,3.47-5.11,5.16-7.67.07-.1-.09-.19-.16-.09Z"/><path class="cls-2" d="M110,122.7c-1.48,1.9-3,3.76-4.41,5.73,0,0,0,.08.06,0,1.57-1.82,3-3.78,4.46-5.67,0-.07,0-.18-.11-.11Z"/><path class="cls-2" d="M105.28,123.65c-1.23,1.4-2.51,2.77-3.69,4.21,0,0,0,.13.08.08,1.28-1.36,2.48-2.79,3.71-4.19.07-.07,0-.17-.1-.1Z"/><path class="cls-2" d="M100.79,124.34c-1.48,1.55-3.1,3-4.43,4.71,0,.06,0,.15.09.09,1.6-1.43,3-3.13,4.43-4.7.06-.06,0-.16-.09-.1Z"/><path class="cls-2" d="M96.62,125.36a25.24,25.24,0,0,0-2.2,2.75.06.06,0,0,0,.09.07,22.42,22.42,0,0,0,2.25-2.69c.08-.09-.06-.22-.14-.13Z"/><path class="cls-2" d="M93.44,126.09a17.32,17.32,0,0,0-2,1.52.06.06,0,0,0,.08.09,17.42,17.42,0,0,0,2-1.45c.1-.07,0-.24-.09-.16Z"/><path class="cls-2" d="M90.77,126.18a21,21,0,0,0-2,1.23,0,0,0,1,0,0,.08,22.29,22.29,0,0,0,2-1.21.06.06,0,1,0-.06-.1Z"/><path class="cls-2" d="M88,125.65a10.62,10.62,0,0,0-1.21,1s0,.1,0,.07a13.28,13.28,0,0,0,1.26-1c.07-.06,0-.16-.1-.1Z"/><path class="cls-2" d="M86.05,125.87a3.72,3.72,0,0,0-.48.27s0,.08,0,.06a4.83,4.83,0,0,0,.52-.23c.07,0,0-.14-.06-.1Z"/><path class="cls-2" d="M136.48,103.48c-1.57,3.82-3.15,7.67-4.56,11.56,0,.06.08.1.11,0,1.63-3.8,3.11-7.7,4.58-11.56,0-.09-.1-.12-.13,0Z"/><path class="cls-2" d="M130.67,108.12c-1.45,4-2.76,8.09-4,12.15,0,.11.13.15.17,0,1.38-4,2.75-8.09,4-12.17a.05.05,0,0,0-.1,0Z"/><path class="cls-2" d="M124.88,114.09c-1.15,3-2.42,6.06-3.43,9.15,0,.07.09.12.12.05,1.26-3,2.29-6.12,3.42-9.17,0-.07-.09-.1-.11,0Z"/><path class="cls-2" d="M139.51,101.53c-1.23,3.18-2.37,6.4-3.52,9.6-.05.14.16.19.21.06,1.18-3.2,2.37-6.39,3.46-9.62,0-.1-.11-.13-.15,0Z"/><path class="cls-2" d="M136,104.93c-1.2,2.74-2.46,5.45-3.57,8.22,0,0,.05.07.07,0,1.26-2.7,2.39-5.47,3.58-8.2,0,0-.06-.1-.08,0Z"/><path class="cls-2" d="M136,105.11a41.86,41.86,0,0,0,4,2c.08,0,.12-.09.06-.14a42.73,42.73,0,0,0-3.94-2c-.08,0-.16.08-.07.12Z"/><path class="cls-2" d="M132.46,108.73c1.64.49,3.28,1.06,4.95,1.46.07,0,.09-.08,0-.11-1.6-.58-3.29-1-4.93-1.5a.08.08,0,0,0,0,.15Z"/><path class="cls-2" d="M127.53,111.43l3.66,1.37,1.71.64c.42.15,1.48.28,1,.84a.06.06,0,1,0,.08.08c.16-.13.31-.27.46-.41a.11.11,0,0,0,0-.18c-2.28-.85-4.58-1.65-6.86-2.48-.09,0-.13.1,0,.14Z"/><path class="cls-2" d="M124.58,115.6c1.82.73,3.65,1.63,5.54,2.19,0,0,.09-.07,0-.1-1.77-.88-3.72-1.48-5.55-2.2-.07,0-.1.08,0,.11Z"/><path class="cls-2" d="M119.9,117.64a11.49,11.49,0,0,1,6.39,2.63c.09.07.22,0,.13-.13a10.57,10.57,0,0,0-6.52-2.68c-.11,0-.11.17,0,.18Z"/><path class="cls-2" d="M115.45,119.54c2.22.75,4.45,1.67,6.73,2.26a.06.06,0,1,0,0-.12c-2.17-.91-4.5-1.52-6.73-2.26a.06.06,0,1,0,0,.12Z"/><path class="cls-2" d="M109.47,123.05a44.34,44.34,0,0,0,5,2.49c.12,0,.19-.14.09-.21a43,43,0,0,0-5-2.46c-.12-.06-.23.12-.11.18Z"/><path class="cls-2" d="M105.54,124c1.47,1,2.93,2,4.44,3,.09.06.18-.08.09-.15-1.45-1-3-2-4.45-3-.09-.06-.17.09-.08.15Z"/><path class="cls-2" d="M100.65,124.69c1.64,1.15,3.26,2.36,4.95,3.44.07.05.14-.07.07-.12-1.6-1.21-3.3-2.31-5-3.45-.08,0-.15.08-.07.13Z"/><path class="cls-2" d="M96.68,125.21c1.88,1.12,3.76,2.4,5.73,3.36a.07.07,0,0,0,.07-.12c-1.79-1.27-3.82-2.29-5.71-3.4-.1-.06-.19.1-.09.16Z"/><path class="cls-2" d="M96.33,126.63c.83.47,1.65,1,2.5,1.41.06,0,.11,0,0-.09-.8-.51-1.67-1-2.5-1.42-.06,0-.11.06,0,.1Z"/><path class="cls-2" d="M111.72,123A36.94,36.94,0,0,0,116.2,125a.08.08,0,0,0,.06-.15,35.63,35.63,0,0,0-4.5-1.89c-.06,0-.1.08,0,.1Z"/><path class="cls-2" d="M113.46,122.29a35.2,35.2,0,0,0,4.73,1.62.07.07,0,0,0,0-.13,36.83,36.83,0,0,0-4.72-1.7c-.13,0-.19.16-.06.21Z"/><path class="cls-2" d="M114.19,121.59c2,.67,3.91,1.47,5.92,2,.11,0,.15-.12,0-.17-1.92-.78-4-1.32-5.93-2a.08.08,0,0,0,0,.16Z"/><path class="cls-2" d="M118.63,119.07c2.29,1,4.58,2.1,6.94,2.94.09,0,.16-.12.07-.16-2.25-1.1-4.64-2-7-2.91-.07,0-.13.1-.05.13Z"/><path class="cls-2" d="M123.75,117.47c1.4.63,2.8,1.41,4.25,1.9a.05.05,0,0,0,0-.1,43.22,43.22,0,0,0-4.21-1.93c-.09,0-.16.08-.08.13Z"/><path class="cls-2" d="M126.76,114.15c1.49.67,3,1.38,4.47,2a.08.08,0,0,0,.06-.14c-1.44-.73-2.95-1.34-4.43-2-.11,0-.21.11-.1.16Z"/><path class="cls-2" d="M128.53,111.62c1.55.51,3.11,1.1,4.7,1.48.08,0,.11-.1,0-.13-1.51-.62-3.12-1-4.68-1.52a.09.09,0,0,0-.05.17Z"/><path class="cls-2" d="M130.25,109.44c1.48.48,2.95,1,4.46,1.43a.07.07,0,0,0,0-.14c-1.44-.58-3-1-4.44-1.49-.13,0-.18.16-.06.2Z"/><path class="cls-2" d="M134.69,109.2c.91.17,1.82.38,2.73.48.06,0,.07-.09,0-.1-.89-.23-1.81-.35-2.71-.52-.09,0-.13.13,0,.14Z"/><path class="cls-2" d="M135.17,107c1.16.33,2.31.66,3.47.94.08,0,.11-.1,0-.12-1.14-.38-2.29-.7-3.45-1a.11.11,0,0,0-.06.22Z"/><path class="cls-2" d="M136.45,104.86c1.31.1,2.64.28,4,.26.06,0,.08-.11,0-.12-1.3-.21-2.65-.24-4-.34-.13,0-.13.19,0,.2Z"/><path class="cls-2" d="M138.66,102.31c.91-.08,1.82-.14,2.73-.29a0,0,0,0,0,0-.09c-.9,0-1.81.12-2.71.2-.12,0-.12.19,0,.18Z"/><path class="cls-2" d="M138.15,100.8c.57.17,1.15.35,1.73.48a0,0,0,1,0,0-.09c-.57-.2-1.15-.35-1.73-.51-.08,0-.11.1,0,.12Z"/><path class="cls-2" d="M139.38,100.82c.74.24,1.47.53,2.22.72.09,0,.11-.09,0-.12-.72-.3-1.48-.51-2.22-.75-.1,0-.14.11,0,.15Z"/><path class="cls-10" d="M146.21,95.78a31.19,31.19,0,0,1-4.06,9.92s0,.07,0,0a21.69,21.69,0,0,0,4.06-9.95s0,0,0,0Z"/><path class="cls-10" d="M51.92,62a45.41,45.41,0,0,1,18.83-23.7c.07,0,0-.17-.07-.12a43.94,43.94,0,0,0-18.85,23.8c0,.06.07.08.09,0Z"/><path class="cls-10" d="M146.75,63.62A39.88,39.88,0,0,1,149,83.94a.07.07,0,0,0,.13,0,34.51,34.51,0,0,0-2.27-20.38s-.09,0-.08,0Z"/><path class="cls-10" d="M95.47,130a65.74,65.74,0,0,0,7.41-1c.05,0,0-.09,0-.08a65.63,65.63,0,0,0-7.4,1.08s0,.06,0,0Z"/><path class="cls-10" d="M57.41,44.93a123,123,0,0,0,8-9.55c.07-.1-.09-.22-.18-.14a123,123,0,0,0-7.89,9.6c0,.06,0,.15.09.09Z"/><path class="cls-10" d="M78.32,30.87c3.23-1.54,6.33-2.12,9.75-3a.15.15,0,0,0,0-.29c-3.36-.07-7,1.35-9.91,3-.22.12,0,.44.2.33Z"/><path class="cls-10" d="M118.18,30a28.7,28.7,0,0,1,6.2,2.23,24,24,0,0,1,5,4.23.17.17,0,0,0,.27-.21c-2.3-3.47-7.27-6.47-11.49-6.44a.1.1,0,0,0,0,.19Z"/><path class="cls-10" d="M97.74,20.39a10.68,10.68,0,0,0,1.17,1.35c.16.18.43-.09.26-.27a11.9,11.9,0,0,0-1.23-1.23c-.1-.08-.28,0-.2.15Z"/><path class="cls-10" d="M106.56,21.7c.49.24,1,.44,1.51.65a7.73,7.73,0,0,0,1.72.63.12.12,0,0,0,.1-.22,6.74,6.74,0,0,0-1.5-.67c-.57-.23-1.13-.46-1.71-.66-.16-.06-.28.2-.12.27Z"/><path class="cls-10" d="M57.77,68.16c.67-6.93,3.87-12.35,8.42-17.42a.16.16,0,0,0-.22-.23c-5.08,4.31-7.77,11.16-8.34,17.65,0,.09.13.09.14,0Z"/><path class="cls-10" d="M89.54,123.47c-5.22-1.47-9.83-3.41-13.84-7.17,0,0,0,0,0,0,3.57,3.87,8.49,6.89,13.84,7.28a.07.07,0,0,0,0-.13Z"/><path class="cls-10" d="M127.14,43.08A18.38,18.38,0,0,1,133,47.14c1.71,1.88,2.43,4,3.49,6.22a.14.14,0,0,0,.26-.07c-.49-4.64-5.19-9.23-9.49-10.53-.19-.06-.32.24-.14.32Z"/></svg>