<svg id="carracters" xmlns="http://www.w3.org/2000/svg" viewBox="0 0 198.43 35.43"><defs><style>.cls-1{fill:#fff;}</style></defs><path d="M165.15,20.76c0-.38.06-.77.1-1.15a14.52,14.52,0,0,1,1-4.16c0-.06,0-.12.06-.2h-1.14c.09-.09.14-.18.19-.19.43,0,.85,0,1.28,0,.05,0,.15.11.15.17,0,.57,0,1.13,0,1.73-.15.06-.19,0-.19-.2,0-.46,0-.93,0-1.4h-.06c-.08.23-.17.45-.26.68a14.48,14.48,0,0,0-.85,5.72,12.16,12.16,0,0,0,1.43,5.34,7.41,7.41,0,0,0,1.55,2,4.29,4.29,0,0,0,4.69.78,8.67,8.67,0,0,0,3.81-3c.27-.35.52-.73.76-1.1.08-.13.15-.16.29,0-.37.51-.73,1.06-1.14,1.56a8.76,8.76,0,0,1-3.5,2.7,4.67,4.67,0,0,1-5.77-1.52,9.93,9.93,0,0,1-2-4.45c-.18-.87-.22-1.77-.33-2.66a1,1,0,0,0,0-.17Z"/><path d="M178,13.71l1.59.38c-.08.26-.16.33-.59.45a42.82,42.82,0,0,1-1.1,5.94,20.39,20.39,0,0,1-2.18,5.42,7.55,7.55,0,0,1-2,2.24,3.5,3.5,0,0,1-5.32-1.07,6.63,6.63,0,0,1-.9-2.82,10.78,10.78,0,0,1,.87-5.82A10.48,10.48,0,0,1,176,12.27a12.1,12.1,0,0,1,7.71.74,8.22,8.22,0,0,1,4.87,6.19,10.72,10.72,0,0,1-.68,6.7,8.43,8.43,0,0,1-3.72,3.86,17.63,17.63,0,0,1-4.64,1.71.24.24,0,0,1-.21-.08c-.32-.46-.63-.93-.94-1.4.5-.12,1-.23,1.52-.37a11.57,11.57,0,0,0,4.35-2.1,7.1,7.1,0,0,0,2.61-4.82,8.58,8.58,0,0,0-.47-4.32,7.06,7.06,0,0,0-5.26-4.45,10,10,0,0,0-3-.26Zm-.78.09-.49.07a9.09,9.09,0,0,0-7.43,10.54,4.08,4.08,0,0,0,1.07,2.26,1.5,1.5,0,0,0,1.48.47,3.07,3.07,0,0,0,.87-.38,4.29,4.29,0,0,0,1.37-1.47A16.59,16.59,0,0,0,176,20.62,37.56,37.56,0,0,0,177.07,15C177.12,14.58,177.15,14.21,177.19,13.8Z"/><path d="M178.93,18.12l.22-.18.78.73c0-.37,0-.71.07-1.05.07-1.1.13-2.2.2-3.3,0-.06.07-.11.11-.17s.1.13.09.2c-.07,1.39-.16,2.79-.24,4.18a.21.21,0,0,0,.05.14l.66-.77.15.16-.87.93a.26.26,0,0,1-.24,0C179.58,18.71,179.27,18.43,178.93,18.12Z"/><path class="cls-1" d="M11.83,20.76l.09-1.15a14.52,14.52,0,0,1,1-4.16c0-.06,0-.12.06-.2H11.83c.09-.09.14-.18.19-.19.43,0,.86,0,1.28,0,0,0,.15.11.15.17,0,.57,0,1.13,0,1.73-.16.06-.2,0-.2-.2,0-.46,0-.93,0-1.4H13.2c-.08.23-.17.45-.25.68a14.48,14.48,0,0,0-.86,5.72,12.29,12.29,0,0,0,1.43,5.34,7.41,7.41,0,0,0,1.55,2,4.31,4.31,0,0,0,4.7.78,8.7,8.7,0,0,0,3.8-3c.28-.35.52-.73.76-1.1.09-.13.15-.16.29,0-.37.51-.73,1.06-1.14,1.56A8.76,8.76,0,0,1,20,30a4.68,4.68,0,0,1-5.77-1.52,9.93,9.93,0,0,1-2-4.45c-.18-.87-.22-1.77-.33-2.66l0-.17Z"/><path class="cls-1" d="M24.65,13.71l1.58.38c-.08.26-.16.33-.59.45a42.82,42.82,0,0,1-1.1,5.94,20.39,20.39,0,0,1-2.18,5.42,7.66,7.66,0,0,1-2,2.24,3.5,3.5,0,0,1-5.33-1.07,6.77,6.77,0,0,1-.9-2.82A10.87,10.87,0,0,1,15,18.43a10.48,10.48,0,0,1,7.64-6.16,12.1,12.1,0,0,1,7.71.74,8.22,8.22,0,0,1,4.87,6.19,10.72,10.72,0,0,1-.68,6.7,8.38,8.38,0,0,1-3.72,3.86,17.37,17.37,0,0,1-4.64,1.71.24.24,0,0,1-.21-.08c-.32-.46-.63-.93-.94-1.4.5-.12,1-.23,1.52-.37a11.57,11.57,0,0,0,4.35-2.1,7.11,7.11,0,0,0,2.62-4.82,8.81,8.81,0,0,0-.47-4.32,7.1,7.1,0,0,0-5.27-4.45,10,10,0,0,0-3-.26Zm-.79.09-.48.07a9.09,9.09,0,0,0-7.44,10.54A4.08,4.08,0,0,0,17,26.67a1.5,1.5,0,0,0,1.48.47,3.07,3.07,0,0,0,.87-.38,4.42,4.42,0,0,0,1.38-1.47,16.86,16.86,0,0,0,1.92-4.67A37.56,37.56,0,0,0,23.74,15C23.79,14.58,23.82,14.21,23.86,13.8Z"/><path class="cls-1" d="M25.6,18.12l.22-.18.78.73c0-.37,0-.71.07-1.05.07-1.1.13-2.2.2-3.3,0-.06.07-.11.11-.17s.1.13.09.2c-.07,1.39-.16,2.79-.24,4.18a.19.19,0,0,0,.06.14l.65-.77.15.16c-.3.32-.57.63-.87.93a.26.26,0,0,1-.24,0C26.26,18.71,25.94,18.43,25.6,18.12Z"/></svg>